<svg xmlns="http://www.w3.org/2000/svg" width="77" height="220" fill="none" viewBox="0 0 77 220"><path stroke="#95a5a6" stroke-linecap="round" stroke-width="5.2" d="M8.734 217.262v-88.484c0-5.523 3.72-10.353 9.059-11.764v0a12.17 12.17 0 0 0 9.059-11.764V86.947"/><path fill="#95a5a6" d="M55.76 82.62V217.2c0 1.43-1.15 2.58-2.58 2.58a2.58 2.58 0 0 1-2.58-2.58V82.62z"/><path fill="#bdc7c7" d="M50.59 75.99V62.66c0-.08 0-.18.03-.26V51.76h-4.07l-14.47-18.3h17.77l5.89 5.82v23.26c.01.04.01.08.01.12v13.33z"/><path fill="#bdc7c7" d="M29.04 51.76v10.9H29v13.33h-5.15V62.66h-.02V32.43h5.95l-1.59 1.85 13.77 17.48z"/><path fill="#da5b4a" d="M8.29 28.43v47.56h60.16V28.43a25 25 0 0 0-.11-2.31C67.18 11.49 54.95 0 40.01 0c-.55 0-1.11.02-1.65.04C37.82.01 37.28 0 36.72 0 21.81 0 9.57 11.5 8.41 26.12c-.08.75-.12 1.53-.12 2.31M.67 82.92a3 3 0 0 1 3-3h65v10h-65a3 3 0 0 1-3-3z"/><path stroke="#fff" stroke-miterlimit="10" stroke-width="7.43" d="M36 8.9c-8.17 0-14.79 6.62-14.79 14.79"/></svg>