<svg xmlns="http://www.w3.org/2000/svg" id="block_diagram" data-name="block diagram" viewBox="0 0 1061.915 631.68"><defs><pattern id="Pattern_pumkin" width="9.3" height="9.3" data-name="Pattern $pumkin" patternTransform="translate(.638 27.19)" patternUnits="userSpaceOnUse" viewBox="0 0 9.3 9.3"><path d="M0 0h9.3v9.3H0z" class="cls-1"/><path d="M0 0h9.3v9.3H0z" class="cls-2"/><path d="M9.3 0v2.12L2.12 9.3H0V7.18L7.17 0zM9.3 7.18V9.3H7.18zM0 2.12V0h2.12z" class="cls-3"/><path d="M0 0h9.3v9.3H0z" class="cls-1"/></pattern><pattern id="Pattern_pumkin-3" width="9.3" height="9.3" data-name="Pattern $pumkin" patternTransform="matrix(2 0 0 2 -26.984 38.91)" patternUnits="userSpaceOnUse" viewBox="0 0 9.3 9.3"><path d="M0 0h9.3v9.3H0z" class="cls-1"/><path d="M0 0h9.3v9.3H0z" class="cls-2"/><path d="M9.3 0v2.12L2.12 9.3H0V7.18L7.17 0zM9.3 7.18V9.3H7.18zM0 2.12V0h2.12z" class="cls-3"/><path d="M0 0h9.3v9.3H0z" class="cls-1"/></pattern><style>.cls-1,.cls-17,.cls-19,.cls-26{fill:none}.cls-2{fill:#d35400}.cls-22,.cls-25,.cls-3{fill:#fff}.cls-3{opacity:.25}.cls-8{font-size:11.47447px;fill:#241f21}.cls-18,.cls-20,.cls-22,.cls-8{font-family:RobotoMono-Bold,Roboto Mono;font-weight:700}.cls-9{letter-spacing:.09902em}.cls-10{letter-spacing:.09898em}.cls-17,.cls-19,.cls-26{stroke-miterlimit:10}.cls-17{stroke-width:5px;stroke:#fff}.cls-18,.cls-20,.cls-22{font-size:13.05247px;letter-spacing:.04998em}.cls-18,.cls-21{fill:#c11f09}.cls-19{stroke:#c11f09}.cls-20{fill:#171e21}.cls-24{fill:#95a5a6}.cls-26{stroke:#00979d}</style></defs><path d="M269.91 529.111h15.904v15.904H269.91z" style="fill:#f29c12"/><path d="M269.91 556.621h15.904v15.904H269.91z" style="fill:#00969e"/><text style="font-size:11.47447px;fill:#241f21;font-family:RobotoMono-Bold,Roboto Mono;font-weight:700;letter-spacing:.09902em" transform="translate(83.273 541.133)">Powe<tspan x="32.087" y="0" style="letter-spacing:.00004em">r</tspan></text><text class="cls-8" transform="translate(83.273 568.672)"><tspan class="cls-9">LE</tspan><tspan x="16.043" y="0">D</tspan></text><text class="cls-8" transform="translate(83.273 596.211)"><tspan class="cls-9">Internal Part</tspan><tspan x="104.283" y="0">s</tspan></text><text class="cls-8" transform="translate(298.207 541.133)"><tspan class="cls-10">Microcontrolle</tspan><tspan x="112.305" y="0">r</tspan></text><path d="M269.91 584.139h15.904v15.904H269.91z" style="fill:url(#Pattern_pumkin)"/><text style="font-size:11.47447px;fill:#241f21;font-family:RobotoMono-Bold,Roboto Mono;font-weight:700;letter-spacing:.09898em" transform="translate(298.207 596.16)">Connectors</text><text class="cls-8" transform="translate(298.207 568.672)"><tspan class="cls-10">Data Communicatio</tspan><tspan x="136.37" y="0">n</tspan></text><path d="M54.976 556.627H70.88v15.904H54.976z" style="fill:#1ca187"/><path d="M54.976 584.139H70.88v15.904H54.976z" style="fill:#94a3a6"/><path d="M54.976 529.11H70.88v15.905H54.976z" style="fill:#c21f0a"/><path d="M54.976 59.827h986.174v420.421H54.976z" style="fill:none;stroke:#cceaeb;stroke-miterlimit:10;stroke-width:5px"/><path d="M605.741 100.037V46.492" class="cls-17"/><text class="cls-18" transform="translate(588.77 41.492)">VBAT</text><path d="M605.741 100.037V46.492" class="cls-19"/><path d="M352.781 100.037V46.492" class="cls-17"/><text class="cls-18" transform="translate(340.052 41.492)">VIN</text><path d="M352.781 100.037V46.492" class="cls-19"/><path d="M412.781 100.037V46.492" class="cls-17"/><text class="cls-18" transform="translate(395.81 41.492)">VUSB</text><path d="M412.781 100.037V46.492" class="cls-19"/><text class="cls-20" transform="translate(331.567 418.827)">27MHz</text><rect width="160.015" height="50.421" x="302.773" y="74.827" class="cls-21" rx="6.527"/><text class="cls-22" transform="translate(365.81 96.02)">PMIC<tspan x="-42.427" y="15.663">MC34PF1550A0EP</tspan></text><rect width="160.015" height="50.421" x="525.57" y="74.827" class="cls-21" rx="6.527"/><text class="cls-22" transform="translate(546.18 96.02)">Fuel Gauge Bat<tspan x="29.699" y="15.663">MAX1726</tspan></text><rect width="160.015" height="50.421" x="302.773" y="154.827" rx="6.527" style="fill:#f39c12"/><text class="cls-22" transform="translate(319.14 176.02)">Microcontroller<tspan x="8.486" y="15.663">STM32H747XIH6</tspan></text><rect width="160.015" height="50.421" x="79.976" y="154.827" class="cls-24" rx="6.527"/><text class="cls-22" transform="translate(143.012 176.02)">WiFi<tspan x="-42.427" y="15.663">LBEE5KL1DX-883</tspan></text><rect width="160.015" height="50.421" x="79.976" y="234.827" class="cls-24" rx="6.527"/><path d="M141.805 253.114a3.5 3.5 0 0 1-.302 1.262 2.9 2.9 0 0 1-.692.956 3 3 0 0 1-1.032.609 4 4 0 0 1-1.326.213 3.4 3.4 0 0 1-1.46-.302 3 3 0 0 1-1.07-.848 3.9 3.9 0 0 1-.663-1.31 5.8 5.8 0 0 1-.23-1.682v-1.25a5.6 5.6 0 0 1 .243-1.688 3.9 3.9 0 0 1 .688-1.313 3.1 3.1 0 0 1 1.08-.851 3.3 3.3 0 0 1 1.424-.303 4 4 0 0 1 1.362.217 2.78 2.78 0 0 1 1.679 1.6 4.3 4.3 0 0 1 .305 1.306h-1.784a3 3 0 0 0-.124-.727 1.4 1.4 0 0 0-.287-.52 1.2 1.2 0 0 0-.472-.311 2 2 0 0 0-.679-.105 1.33 1.33 0 0 0-1.226.7 2.7 2.7 0 0 0-.297.845 6 6 0 0 0-.095 1.138v1.262a4.1 4.1 0 0 0 .385 2.027 1.31 1.31 0 0 0 1.22.656 1.58 1.58 0 0 0 1.11-.373 1.7 1.7 0 0 0 .452-1.208ZM146.996 252.553h-1.358v3.468h-1.79v-9.28h3.11a5 5 0 0 1 1.395.182 3.1 3.1 0 0 1 1.068.532 2.34 2.34 0 0 1 .681.873 2.9 2.9 0 0 1 .24 1.211 3.1 3.1 0 0 1-.119.896 2.4 2.4 0 0 1-.866 1.264 3.5 3.5 0 0 1-.691.408l1.994 3.83v.084h-1.918Zm-1.358-1.453h1.326a1.65 1.65 0 0 0 1.17-.385 1.38 1.38 0 0 0 .41-1.055 1.43 1.43 0 0 0-.4-1.08 1.65 1.65 0 0 0-1.186-.386h-1.32ZM155.5 251.018l1.83-4.277h1.968l-2.918 6.068-.006 3.212h-1.785l-.006-3.29-2.875-5.99h1.963ZM162.723 252.617v3.404h-1.79v-9.28h3.173a4 4 0 0 1 1.371.22 3.1 3.1 0 0 1 1.042.612 2.7 2.7 0 0 1 .662.94 3.1 3.1 0 0 1 .234 1.217 2.8 2.8 0 0 1-.234 1.154 2.64 2.64 0 0 1-.662.914 3.1 3.1 0 0 1-1.042.602 4.1 4.1 0 0 1-1.37.217Zm0-1.453h1.383a1.7 1.7 0 0 0 .663-.115 1.3 1.3 0 0 0 .469-.312 1.3 1.3 0 0 0 .28-.456 1.6 1.6 0 0 0 .093-.538 2 2 0 0 0-.093-.606 1.4 1.4 0 0 0-.28-.49 1.3 1.3 0 0 0-.469-.332 1.7 1.7 0 0 0-.663-.12h-1.383ZM176.123 248.2h-2.862v7.82h-1.797v-7.82h-2.824v-1.459h7.483ZM184.264 252.063a5.5 5.5 0 0 1-.236 1.644 3.8 3.8 0 0 1-.682 1.294 3.1 3.1 0 0 1-1.087.844 3.3 3.3 0 0 1-1.443.303 3.2 3.2 0 0 1-1.428-.303 3 3 0 0 1-1.051-.847 3.9 3.9 0 0 1-.65-1.294 5.7 5.7 0 0 1-.223-1.641v-1.352a5.7 5.7 0 0 1 .223-1.644 3.9 3.9 0 0 1 .65-1.296 3 3 0 0 1 1.048-.852 3.2 3.2 0 0 1 1.424-.305 3.3 3.3 0 0 1 1.45.305 3.14 3.14 0 0 1 1.087.852 3.8 3.8 0 0 1 .682 1.296 5.5 5.5 0 0 1 .236 1.644Zm-1.816-1.364a5.5 5.5 0 0 0-.093-1.045 2.7 2.7 0 0 0-.29-.822 1.5 1.5 0 0 0-.507-.539 1.4 1.4 0 0 0-.749-.194 1.3 1.3 0 0 0-.726.194 1.4 1.4 0 0 0-.472.539 2.8 2.8 0 0 0-.255.822 6.7 6.7 0 0 0-.076 1.045v1.364a6.6 6.6 0 0 0 .076 1.039 2.8 2.8 0 0 0 .255.828 1.4 1.4 0 0 0 .472.548 1.3 1.3 0 0 0 .733.198 1.35 1.35 0 0 0 .742-.198 1.5 1.5 0 0 0 .504-.545 2.9 2.9 0 0 0 .29-.825 5.4 5.4 0 0 0 .096-1.045ZM93.51 269.262a1.3 1.3 0 0 0-.086-.466 1.1 1.1 0 0 0-.293-.404 2.2 2.2 0 0 0-.542-.344 5 5 0 0 0-.832-.29 8 8 0 0 1-1.156-.415 4.2 4.2 0 0 1-.971-.599 2.8 2.8 0 0 1-.673-.815 2.2 2.2 0 0 1-.252-1.071 2.3 2.3 0 0 1 .249-1.065 2.4 2.4 0 0 1 .688-.815 3.2 3.2 0 0 1 1.038-.52 4.5 4.5 0 0 1 1.301-.181 4 4 0 0 1 1.328.21 3.1 3.1 0 0 1 1.036.59 2.66 2.66 0 0 1 .918 2.049h-1.746a1.8 1.8 0 0 0-.112-.574 1.2 1.2 0 0 0-.293-.45 1.35 1.35 0 0 0-.484-.292 2 2 0 0 0-.68-.106 2.1 2.1 0 0 0-.633.087 1.4 1.4 0 0 0-.469.242 1.04 1.04 0 0 0-.29.37 1.1 1.1 0 0 0-.098.461.9.9 0 0 0 .13.472 1.3 1.3 0 0 0 .38.379 3 3 0 0 0 .602.309 8 8 0 0 0 .8.262 7 7 0 0 1 1.173.452 3.8 3.8 0 0 1 .92.634 2.7 2.7 0 0 1 .6.835 2.5 2.5 0 0 1 .214 1.042 2.3 2.3 0 0 1-.246 1.087 2.35 2.35 0 0 1-.68.803 3.1 3.1 0 0 1-1.032.497 4.8 4.8 0 0 1-1.307.169 5 5 0 0 1-.876-.08 4 4 0 0 1-.835-.245 3.7 3.7 0 0 1-.742-.414 2.8 2.8 0 0 1-.596-.58 2.6 2.6 0 0 1-.395-.752 2.9 2.9 0 0 1-.144-.931h1.76a1.9 1.9 0 0 0 .146.72 1.3 1.3 0 0 0 .373.49 1.5 1.5 0 0 0 .574.282 2.8 2.8 0 0 0 .735.088 2.2 2.2 0 0 0 .635-.082 1.4 1.4 0 0 0 .468-.23 1 1 0 0 0 .294-.354 1 1 0 0 0 .101-.455M102.888 267.618h-3.81v2.619h4.455v1.447H97.28v-9.28h6.233v1.46h-4.435v2.339h3.81ZM111.77 268.153a5.5 5.5 0 0 1-.208 1.583 3.2 3.2 0 0 1-.596 1.148 2.5 2.5 0 0 1-.95.698 3.48 3.48 0 0 1-2.517 0 2.5 2.5 0 0 1-.952-.698 3.2 3.2 0 0 1-.606-1.148 5.3 5.3 0 0 1-.214-1.583v-2.218a5.4 5.4 0 0 1 .211-1.584 3.2 3.2 0 0 1 .602-1.147 2.5 2.5 0 0 1 .95-.698 3.2 3.2 0 0 1 1.252-.236 3.2 3.2 0 0 1 1.262.236 2.5 2.5 0 0 1 .953.698 3.2 3.2 0 0 1 .602 1.147 5.4 5.4 0 0 1 .21 1.584Zm-4.258-.765 2.473-1.842a2.6 2.6 0 0 0-.325-1.39 1.03 1.03 0 0 0-.918-.452 1.02 1.02 0 0 0-.924.478 2.8 2.8 0 0 0-.306 1.472Zm2.473-.637-2.473 1.835a2.6 2.6 0 0 0 .337 1.36 1.03 1.03 0 0 0 .906.444 1.02 1.02 0 0 0 .927-.485 2.87 2.87 0 0 0 .303-1.485ZM114.302 267.114l.529-4.71h5.15v1.504h-3.69l-.224 2.04a3 3 0 0 1 .562-.236 2.6 2.6 0 0 1 .835-.121 3.2 3.2 0 0 1 1.194.213 2.36 2.36 0 0 1 .886.615 2.7 2.7 0 0 1 .551.982 4.2 4.2 0 0 1 .192 1.313 3.7 3.7 0 0 1-.186 1.185 2.75 2.75 0 0 1-.566.988 2.7 2.7 0 0 1-.963.676 3.5 3.5 0 0 1-1.37.248 3.8 3.8 0 0 1-1.157-.178 3.1 3.1 0 0 1-.99-.523 2.7 2.7 0 0 1-.705-.844 2.5 2.5 0 0 1-.29-1.144h1.746a1.31 1.31 0 0 0 1.389 1.268 1.3 1.3 0 0 0 .61-.134 1.1 1.1 0 0 0 .407-.37 1.7 1.7 0 0 0 .23-.56 3.2 3.2 0 0 0 .072-.701 2.4 2.4 0 0 0-.091-.68 1.4 1.4 0 0 0-.285-.531 1.26 1.26 0 0 0-.477-.345 1.7 1.7 0 0 0-.676-.12 2 2 0 0 0-.452.044 1.7 1.7 0 0 0-.338.114 1.4 1.4 0 0 0-.262.163 3 3 0 0 0-.216.194ZM128.74 268.153a5.5 5.5 0 0 1-.207 1.583 3.2 3.2 0 0 1-.596 1.148 2.5 2.5 0 0 1-.95.698 3.48 3.48 0 0 1-2.518 0 2.5 2.5 0 0 1-.952-.698 3.2 3.2 0 0 1-.605-1.148 5.3 5.3 0 0 1-.214-1.583v-2.218a5.4 5.4 0 0 1 .21-1.584 3.2 3.2 0 0 1 .602-1.147 2.5 2.5 0 0 1 .95-.698 3.2 3.2 0 0 1 1.253-.236 3.2 3.2 0 0 1 1.261.236 2.5 2.5 0 0 1 .953.698 3.2 3.2 0 0 1 .603 1.147 5.4 5.4 0 0 1 .21 1.584Zm-4.257-.765 2.473-1.842a2.6 2.6 0 0 0-.325-1.39 1.03 1.03 0 0 0-.918-.452 1.02 1.02 0 0 0-.924.478 2.8 2.8 0 0 0-.306 1.472Zm2.473-.637-2.473 1.835a2.6 2.6 0 0 0 .337 1.36 1.03 1.03 0 0 0 .905.444 1.02 1.02 0 0 0 .928-.485 2.87 2.87 0 0 0 .303-1.485ZM137.563 268.777a3.5 3.5 0 0 1-.303 1.262 2.9 2.9 0 0 1-.691.956 3 3 0 0 1-1.032.609 4 4 0 0 1-1.326.213 3.4 3.4 0 0 1-1.46-.302 3 3 0 0 1-1.07-.848 3.9 3.9 0 0 1-.663-1.31 5.8 5.8 0 0 1-.23-1.682v-1.25a5.6 5.6 0 0 1 .243-1.688 3.9 3.9 0 0 1 .687-1.313 3.1 3.1 0 0 1 1.081-.851 3.3 3.3 0 0 1 1.424-.303 4 4 0 0 1 1.362.217 2.78 2.78 0 0 1 1.678 1.6 4.3 4.3 0 0 1 .306 1.306h-1.784a3 3 0 0 0-.124-.727 1.4 1.4 0 0 0-.287-.519 1.2 1.2 0 0 0-.472-.312 2 2 0 0 0-.679-.105 1.33 1.33 0 0 0-1.226.7 2.7 2.7 0 0 0-.297.845 6 6 0 0 0-.095 1.138v1.262a4.1 4.1 0 0 0 .385 2.027 1.31 1.31 0 0 0 1.22.656 1.58 1.58 0 0 0 1.11-.373 1.7 1.7 0 0 0 .452-1.208ZM145.736 271.684h-6.328v-1.211l3-3.225q.352-.383.594-.695a5 5 0 0 0 .392-.57 2.3 2.3 0 0 0 .217-.482 1.5 1.5 0 0 0 .066-.433 1.6 1.6 0 0 0-.088-.554 1.2 1.2 0 0 0-.252-.411 1.1 1.1 0 0 0-.39-.259 1.4 1.4 0 0 0-.5-.089 1.38 1.38 0 0 0-1.093.408 1.67 1.67 0 0 0-.36 1.14h-1.777a2.94 2.94 0 0 1 .9-2.134 3.1 3.1 0 0 1 1.04-.653 4 4 0 0 1 2.6-.042 2.5 2.5 0 0 1 .912.555 2.34 2.34 0 0 1 .557.857 3.1 3.1 0 0 1 .192 1.106 2.7 2.7 0 0 1-.144.876 3.8 3.8 0 0 1-.408.825 7 7 0 0 1-.634.832q-.369.424-.822.89l-1.746 1.847h4.072ZM154.215 271.684h-1.772v-4.022h-2.625v4.022h-1.778v-9.28h1.778v3.805h2.625v-3.805h1.772ZM163.108 268.006a4.5 4.5 0 0 1-.296 1.61 3.5 3.5 0 0 1-.85 1.29l1.535 1.39-1.154 1.025-1.765-1.631a4 4 0 0 1-.455.09 4 4 0 0 1-.482.031 3.1 3.1 0 0 1-2.482-1.144 3.7 3.7 0 0 1-.653-1.214 4.7 4.7 0 0 1-.223-1.447V266.4a5.8 5.8 0 0 1 .223-1.654 3.9 3.9 0 0 1 .653-1.303 3.04 3.04 0 0 1 1.055-.857 3.2 3.2 0 0 1 1.427-.31 3.3 3.3 0 0 1 1.453.31 3.15 3.15 0 0 1 1.09.857 3.9 3.9 0 0 1 .686 1.303 5.5 5.5 0 0 1 .238 1.654Zm-1.816-1.619a5.6 5.6 0 0 0-.092-1.054 2.7 2.7 0 0 0-.29-.832 1.5 1.5 0 0 0-.51-.545 1.4 1.4 0 0 0-.759-.194 1.3 1.3 0 0 0-.736.197 1.4 1.4 0 0 0-.475.545 2.8 2.8 0 0 0-.255.829 7 7 0 0 0-.076 1.054v1.62a4.7 4.7 0 0 0 .076.85 2.5 2.5 0 0 0 .255.746 1.5 1.5 0 0 0 .475.532 1.27 1.27 0 0 0 .736.204 1.38 1.38 0 0 0 .76-.2 1.6 1.6 0 0 0 .509-.533 2.5 2.5 0 0 0 .29-.749 4 4 0 0 0 .092-.85ZM169.465 271.684h-1.79v-7.12l-2.346.842v-1.542l4.04-1.46h.096ZM175.764 272.48h-1.65l3.474-10.076h1.65ZM183.944 270.237h4.602v1.447h-6.782v-1.097l4.5-6.723h-4.487v-1.46h6.653l.007 1.064ZM196.623 268.153a5.5 5.5 0 0 1-.207 1.583 3.2 3.2 0 0 1-.596 1.148 2.5 2.5 0 0 1-.95.698 3.48 3.48 0 0 1-2.518 0 2.5 2.5 0 0 1-.952-.698 3.2 3.2 0 0 1-.605-1.148 5.3 5.3 0 0 1-.214-1.583v-2.218a5.4 5.4 0 0 1 .21-1.584 3.2 3.2 0 0 1 .602-1.147 2.5 2.5 0 0 1 .95-.698 3.2 3.2 0 0 1 1.252-.236 3.2 3.2 0 0 1 1.262.236 2.5 2.5 0 0 1 .953.698 3.2 3.2 0 0 1 .603 1.147 5.4 5.4 0 0 1 .21 1.584Zm-4.257-.765 2.473-1.842a2.6 2.6 0 0 0-.326-1.39 1.03 1.03 0 0 0-.918-.452 1.02 1.02 0 0 0-.924.478 2.8 2.8 0 0 0-.305 1.472Zm2.473-.637-2.473 1.835a2.6 2.6 0 0 0 .337 1.36 1.03 1.03 0 0 0 .905.444 1.02 1.02 0 0 0 .928-.485 2.87 2.87 0 0 0 .303-1.485ZM203.407 271.684h-1.791v-7.12l-2.346.842v-1.542l4.041-1.46h.096ZM212.306 269.262a1.3 1.3 0 0 0-.086-.466 1.1 1.1 0 0 0-.294-.404 2.2 2.2 0 0 0-.54-.344 5 5 0 0 0-.833-.29 8 8 0 0 1-1.156-.415 4.2 4.2 0 0 1-.972-.599 2.8 2.8 0 0 1-.672-.815 2.2 2.2 0 0 1-.252-1.071 2.3 2.3 0 0 1 .249-1.065 2.4 2.4 0 0 1 .687-.815 3.2 3.2 0 0 1 1.04-.52 4.5 4.5 0 0 1 1.3-.181 4 4 0 0 1 1.328.21 3.1 3.1 0 0 1 1.036.59 2.67 2.67 0 0 1 .917 2.049h-1.746a1.8 1.8 0 0 0-.111-.574 1.2 1.2 0 0 0-.293-.45 1.35 1.35 0 0 0-.485-.292 2 2 0 0 0-.678-.106 2.1 2.1 0 0 0-.635.087 1.4 1.4 0 0 0-.468.242 1 1 0 0 0-.29.37 1.1 1.1 0 0 0-.098.461.9.9 0 0 0 .13.472 1.3 1.3 0 0 0 .38.379 3 3 0 0 0 .602.309 8 8 0 0 0 .8.262 7 7 0 0 1 1.172.452 3.8 3.8 0 0 1 .92.634 2.7 2.7 0 0 1 .6.835 2.5 2.5 0 0 1 .214 1.042 2.28 2.28 0 0 1-.925 1.89 3.1 3.1 0 0 1-1.032.497 4.8 4.8 0 0 1-1.307.169 5 5 0 0 1-.876-.08 4 4 0 0 1-.835-.245 3.7 3.7 0 0 1-.742-.414 2.8 2.8 0 0 1-.597-.58 2.6 2.6 0 0 1-.394-.752 2.9 2.9 0 0 1-.144-.931h1.76a1.9 1.9 0 0 0 .146.72 1.3 1.3 0 0 0 .373.49 1.5 1.5 0 0 0 .573.282 2.9 2.9 0 0 0 .736.088 2.2 2.2 0 0 0 .634-.082 1.4 1.4 0 0 0 .469-.23 1 1 0 0 0 .293-.354 1 1 0 0 0 .102-.455M215.935 271.684v-9.28h2.403a4.3 4.3 0 0 1 1.672.316 3.7 3.7 0 0 1 1.282.88 3.9 3.9 0 0 1 .822 1.347 4.9 4.9 0 0 1 .29 1.721v.765a4.9 4.9 0 0 1-.29 1.717 4 4 0 0 1-.813 1.345 3.6 3.6 0 0 1-1.255.876 4.1 4.1 0 0 1-1.619.313Zm1.804-7.827v6.386h.688a2.06 2.06 0 0 0 .902-.19 1.84 1.84 0 0 0 .676-.555 2.6 2.6 0 0 0 .423-.883 4.4 4.4 0 0 0 .147-1.182v-.778a4.2 4.2 0 0 0-.144-1.137 2.6 2.6 0 0 0-.426-.883 1.96 1.96 0 0 0-.702-.574 2.2 2.2 0 0 0-.965-.204ZM226.37 270.237h4.602v1.447h-6.78v-1.097l4.498-6.723h-4.486v-1.46h6.653l.007 1.064Z" class="cls-25"/><rect width="160.015" height="50.421" x="79.976" y="314.827" class="cls-24" rx="6.527"/><text class="cls-22" transform="translate(121.8 343.852)">ATECC608A</text><rect width="160.015" height="50.421" x="79.976" y="394.827" class="cls-24" rx="6.527"/><text class="cls-22" transform="translate(138.77 416.02)">FLASH<tspan x="-38.185" y="15.663">MX25L12833FZ2I</tspan></text><rect width="160.015" height="50.421" x="302.773" y="314.827" class="cls-24" rx="6.527"/><text class="cls-22" transform="translate(348.839 343.852)">USB3320C</text><rect width="160.015" height="50.421" x="525.57" y="154.827" class="cls-24" rx="6.527"/><text class="cls-22" transform="translate(592.85 176.02)">ETH<tspan x="-25.456" y="15.663">LAN8742AI</tspan></text><rect width="160.015" height="50.421" x="525.57" y="234.827" class="cls-24" rx="6.527"/><text class="cls-22" transform="translate(541.937 256.02)">MIPI-DSI bridge<tspan x="33.942" y="15.663">ANX7625</tspan></text><rect width="140.015" height="50.421" x="525.57" y="324.827" class="cls-24" rx="6.527"/><text class="cls-22" transform="translate(553.15 346.02)">EMI Filter<tspan x="-12.728" y="15.663">PCMF2USB3B/CZ</tspan></text><rect width="140.015" height="50.421" x="685.157" y="324.827" class="cls-24" rx="6.527"/><text class="cls-22" transform="translate(712.738 346.02)">EMI Filter<tspan x="-12.728" y="15.663">PCMF2USB3B/CZ</tspan></text><rect width="140.015" height="50.421" x="844.744" y="324.827" class="cls-24" rx="6.527"/><text class="cls-22" transform="translate(872.324 346.02)">EMI Filter<tspan x="-12.728" y="15.663">PCMF2USB3B/CZ</tspan></text><rect width="200.015" height="50.421" x="784.744" y="234.827" class="cls-24" rx="6.527"/><text class="cls-22" transform="translate(842.324 256.02)">PWR SWITCH<tspan x="-8.485" y="15.663">NX18P3001UKZ</tspan></text><path d="M462.788 100.037h62.782" class="cls-19"/><path d="m418.862 133.956-12.163 12.162M500.26 173.956l-12.162 12.162M501.26 252.956l-12.162 12.162M984.759 260.037h31.391v170h-31.391M685.585 260.037h99.159M525.57 260.037h-31.391v-80.086h-31.391M277.463 173.956l-12.162 12.162M239.991 180.037h62.782M277.463 253.956l-12.162 12.162M239.991 260.037h31.391M277.463 333.956l-12.162 12.162M239.991 340.037h31.391M239.991 420.037h31.391v-240" class="cls-26"/><path d="M352.781 125.248v29.579" class="cls-19"/><path d="M412.781 125.248v29.579M418.862 253.956l-12.163 12.162M412.781 205.248v109.579M352.781 365.248v39.579" class="cls-26"/><text class="cls-20" transform="translate(331.567 258.827)">32KHz</text><path d="M352.781 205.248v39.579" class="cls-26"/><text class="cls-20" transform="translate(729.912 184.59)">25MHz</text><path d="M725.165 179.951h-39.58" class="cls-26"/><path d="M79.976 180.037h-51" class="cls-17"/><path d="M79.976 180.037h-51v-25.21" class="cls-26"/><path d="m28.976 169.048 8.211-14.221H20.765z" class="cls-26"/><rect width="459.188" height="50.421" x="525.57" y="404.827" rx="5" style="fill:url(#Pattern_pumkin-3)"/><text class="cls-22" transform="translate(731.223 433.852)">J3 USB-C</text><path d="M595.578 324.827v-39.579M755.165 324.827v-19.79H595.578" class="cls-26"/><path d="M914.751 324.827v-19.79H595.578M595.578 375.248v29.579M755.165 375.248v29.579M914.751 375.248v29.579" class="cls-26"/><path d="M487.792 480.248h120.541v15.614a6.185 6.185 0 0 1-6.184 6.185H493.977a6.185 6.185 0 0 1-6.185-6.185z" style="fill:#cceaeb"/><text class="cls-20" transform="translate(501.394 494.99)">Portenta H7</text><path d="M525.57 430.037H412.781v-64.789M494.179 179.951h31.391" class="cls-26"/></svg>