<svg xmlns="http://www.w3.org/2000/svg" xmlns:xlink="http://www.w3.org/1999/xlink" xml:space="preserve" width="920" height="250" viewBox="0 0 920 250"><path fill="#ecf1f1" d="M-5.917-14H928.75v278.333H-5.917z"/><path fill="#00929f" d="M354.311 27.849v179.897l.016.349.056.338.077.328.115.33.153.311.17.295.207.275.23.259.258.232.274.203.293.171.314.149.328.117.328.08.338.053.347.016h224.401l.347-.016.337-.053.333-.08.33-.117.311-.149.291-.171.277-.203.259-.232.231-.259.205-.275.168-.295.149-.311.117-.33.08-.328.056-.338.017-.349v-5.393l8.899-8.9V78.643l-8.899-8.899V29.691l-5.341-5.339H357.815v-.009l-.347.018-.338.055-.328.079-.328.117-.314.151-.293.167-.274.206-.258.231-.23.257-.207.276-.17.294-.153.312-.115.329-.077.331-.056.339z"/><defs><path id="a" d="M446.753 65.137h10.751v4.133h-10.751z"/></defs><defs><path id="b" d="M446.753 96.476h10.751v4.133h-10.751z"/></defs><defs><path id="c" d="M571.993 28.802h8.899v8.899h-8.899z"/></defs><clipPath id="d"><use xlink:href="#c" overflow="visible"/></clipPath><g clip-path="url(#d)"><path d="M571.993 28.803h8.899v8.899h-8.899z"/></g><g clip-path="url(#d)"><path fill="#58595b" d="M578.234 31.438h-.854v.007h-1.898v-.007h-.857v3.619h3.609v-.009z"/></g><defs><path id="e" d="M563.456 28.802h8.899v8.899h-8.899z"/></defs><clipPath id="f"><use xlink:href="#e" overflow="visible"/></clipPath><g clip-path="url(#f)"><path d="M563.456 28.803h8.899v8.899h-8.899z"/></g><g clip-path="url(#f)"><path fill="#58595b" d="M569.7 31.438h-.857v.007h-1.898v-.007h-.855v3.619h3.61v-.009z"/></g><defs><path id="g" d="M554.539 28.802h8.899v8.899h-8.899z"/></defs><clipPath id="h"><use xlink:href="#g" overflow="visible"/></clipPath><g clip-path="url(#h)"><path d="M554.539 28.803h8.899v8.899h-8.899z"/></g><g clip-path="url(#h)"><path fill="#58595b" d="M560.783 31.438h-.857v.007h-1.895v-.007h-.858v3.619h3.61v-.009z"/></g><defs><path id="i" d="M545.631 28.802h8.899v8.899h-8.899z"/></defs><clipPath id="j"><use xlink:href="#i" overflow="visible"/></clipPath><g clip-path="url(#j)"><path d="M545.631 28.803h8.897v8.899h-8.897z"/></g><g clip-path="url(#j)"><path fill="#58595b" d="M551.873 31.438h-.855v.007h-1.898v-.007h-.857v3.619h3.61v-.009z"/></g><defs><path id="k" d="M536.713 28.802h8.899v8.899h-8.899z"/></defs><clipPath id="l"><use xlink:href="#k" overflow="visible"/></clipPath><g clip-path="url(#l)"><path d="M536.713 28.803h8.899v8.899h-8.899z"/></g><g clip-path="url(#l)"><path fill="#58595b" d="M542.956 31.438h-.857v.007h-1.895v-.007h-.857v3.619h3.609v-.009z"/></g><defs><path id="m" d="M527.802 28.802h8.899v8.899h-8.899z"/></defs><clipPath id="n"><use xlink:href="#m" overflow="visible"/></clipPath><g clip-path="url(#n)"><path d="M527.8 28.803h8.899v8.899H527.8z"/></g><g clip-path="url(#n)"><path fill="#58595b" d="M534.044 31.438h-.855v.007h-1.898v-.007h-.857v3.619h3.61v-.009z"/></g><defs><path id="o" d="M518.886 28.802h8.899v8.899h-8.899z"/></defs><clipPath id="p"><use xlink:href="#o" overflow="visible"/></clipPath><g clip-path="url(#p)"><path d="M518.886 28.803h8.897v8.899h-8.897z"/></g><g clip-path="url(#p)"><path fill="#58595b" d="M525.127 31.438h-.855v.007h-1.897v-.007h-.857v3.619h3.609v-.009z"/></g><defs><path id="q" d="M509.973 28.802h8.899v8.899h-8.899z"/></defs><clipPath id="r"><use xlink:href="#q" overflow="visible"/></clipPath><g clip-path="url(#r)"><path d="M509.973 28.803h8.899v8.899h-8.899z"/></g><g clip-path="url(#r)"><path fill="#58595b" d="M516.215 31.438h-.855v.007h-1.898v-.007h-.855v3.619h3.608v-.009z"/></g><defs><path id="s" d="M495.918 28.802h8.902v8.899h-8.902z"/></defs><clipPath id="t"><use xlink:href="#s" overflow="visible"/></clipPath><g clip-path="url(#t)"><path d="M495.918 28.803h8.899v8.899h-8.899z"/></g><g clip-path="url(#t)"><path fill="#58595b" d="M502.162 31.438h-.855v.007h-1.898v-.007h-.857v3.619h3.61v-.009z"/></g><defs><path id="u" d="M487.008 28.802h8.899v8.899h-8.899z"/></defs><clipPath id="v"><use xlink:href="#u" overflow="visible"/></clipPath><g clip-path="url(#v)"><path d="M487.008 28.803h8.899v8.899h-8.899z"/></g><g clip-path="url(#v)"><path fill="#58595b" d="M493.252 31.438h-.855v.007h-1.898v-.007h-.857v3.619h3.61v-.009z"/></g><defs><path id="w" d="M478.096 28.802h8.899v8.899h-8.899z"/></defs><clipPath id="x"><use xlink:href="#w" overflow="visible"/></clipPath><g clip-path="url(#x)"><path d="M478.096 28.803h8.899v8.899h-8.899z"/></g><g clip-path="url(#x)"><path fill="#58595b" d="M484.34 31.438h-.858v.007h-1.897v-.007h-.855v3.619h3.61v-.009z"/></g><defs><path id="y" d="M469.18 28.802h8.899v8.899h-8.899z"/></defs><clipPath id="z"><use xlink:href="#y" overflow="visible"/></clipPath><g clip-path="url(#z)"><path d="M469.179 28.803h8.899v8.899h-8.899z"/></g><g clip-path="url(#z)"><path fill="#58595b" d="M475.423 31.438h-.856v.007h-1.897v-.007h-.857v3.619h3.61v-.009z"/></g><defs><path id="A" d="M460.269 28.802h8.9v8.899h-8.9z"/></defs><clipPath id="B"><use xlink:href="#A" overflow="visible"/></clipPath><g clip-path="url(#B)"><path d="M460.269 28.803h8.899v8.899h-8.899z"/></g><g clip-path="url(#B)"><path fill="#58595b" d="M466.513 31.438h-.856v.007h-1.898v-.007h-.857v3.619h3.611v-.009z"/></g><defs><path id="C" d="M451.355 28.802h8.899v8.899h-8.899z"/></defs><clipPath id="D"><use xlink:href="#C" overflow="visible"/></clipPath><g clip-path="url(#D)"><path d="M451.354 28.803h8.899v8.899h-8.899z"/></g><g clip-path="url(#D)"><path fill="#58595b" d="M457.598 31.438h-.856v.007h-1.898v-.007h-.856v3.619h3.61v-.009z"/></g><defs><path id="E" d="M442.443 28.802h8.9v8.899h-8.9z"/></defs><clipPath id="F"><use xlink:href="#E" overflow="visible"/></clipPath><g clip-path="url(#F)"><path d="M442.443 28.803h8.899v8.899h-8.899z"/></g><g clip-path="url(#F)"><path fill="#58595b" d="M448.685 31.438h-.855v.007h-1.898v-.007h-.857v3.619h3.61v-.009z"/></g><defs><path id="G" d="M433.528 28.802h8.899v8.899h-8.899z"/></defs><clipPath id="H"><use xlink:href="#G" overflow="visible"/></clipPath><g clip-path="url(#H)"><path d="M433.528 28.803h8.899v8.899h-8.899z"/></g><g clip-path="url(#H)"><path fill="#58595b" d="M439.771 31.438h-.856v.007h-1.897v-.007h-.857v3.619h3.61v-.009z"/></g><defs><path id="I" d="M424.618 28.802h8.899v8.899h-8.899z"/></defs><clipPath id="J"><use xlink:href="#I" overflow="visible"/></clipPath><g clip-path="url(#J)"><path d="M424.617 28.803h8.899v8.899h-8.899z"/></g><g clip-path="url(#J)"><path fill="#58595b" d="M430.86 31.438h-.855v.007h-1.898v-.007h-.856v3.619h3.609v-.009z"/></g><defs><path id="K" d="M415.701 28.802h8.899v8.899h-8.899z"/></defs><clipPath id="L"><use xlink:href="#K" overflow="visible"/></clipPath><g clip-path="url(#L)"><path d="M415.701 28.803h8.899v8.899h-8.899z"/></g><g clip-path="url(#L)"><path fill="#58595b" d="M421.944 31.438h-.856v.007h-1.897v-.007h-.857v3.619h3.61v-.009z"/></g><defs><path id="M" d="M572.418 197.893h8.899v8.899h-8.899z"/></defs><clipPath id="N"><use xlink:href="#M" overflow="visible"/></clipPath><g clip-path="url(#N)"><path d="M572.418 197.894h8.897v8.899h-8.897z"/></g><g clip-path="url(#N)"><path fill="#58595b" d="M578.66 200.53h-.855v.006h-1.898v-.006h-.857v3.619h3.61v-.011z"/></g><defs><path id="O" d="M563.517 197.893h8.899v8.899h-8.899z"/></defs><clipPath id="P"><use xlink:href="#O" overflow="visible"/></clipPath><g clip-path="url(#P)"><path d="M563.517 197.894h8.899v8.899h-8.899z"/></g><g clip-path="url(#P)"><path fill="#58595b" d="M569.758 200.53h-.855v.006h-1.898v-.006h-.854v3.619h3.607v-.011z"/></g><defs><path id="Q" d="M554.611 197.893h8.899v8.899h-8.899z"/></defs><clipPath id="R"><use xlink:href="#Q" overflow="visible"/></clipPath><g clip-path="url(#R)"><path d="M554.611 197.894h8.899v8.899h-8.899z"/></g><g clip-path="url(#R)"><path fill="#58595b" d="M560.855 200.53h-.858v.006h-1.895v-.006h-.857v3.619h3.61v-.011z"/></g><defs><path id="S" d="M545.714 197.893h8.899v8.899h-8.899z"/></defs><clipPath id="T"><use xlink:href="#S" overflow="visible"/></clipPath><g clip-path="url(#T)"><path d="M545.713 197.894h8.897v8.899h-8.897z"/></g><g clip-path="url(#T)"><path fill="#58595b" d="M551.955 200.53h-.855v.006h-1.898v-.006h-.857v3.619h3.61v-.011z"/></g><defs><path id="U" d="M536.812 197.893h8.899v8.899h-8.899z"/></defs><clipPath id="V"><use xlink:href="#U" overflow="visible"/></clipPath><g clip-path="url(#V)"><path d="M536.812 197.894h8.899v8.899h-8.899z"/></g><g clip-path="url(#V)"><path fill="#58595b" d="M543.056 200.53h-.857v.006h-1.898v-.006h-.855v3.619h3.61v-.011z"/></g><defs><path id="W" d="M527.913 197.893h8.899v8.899h-8.899z"/></defs><clipPath id="X"><use xlink:href="#W" overflow="visible"/></clipPath><g clip-path="url(#X)"><path d="M527.913 197.894h8.899v8.899h-8.899z"/></g><g clip-path="url(#X)"><path fill="#58595b" d="M534.154 200.53h-.855v.006h-1.898v-.006h-.854v3.619h3.607v-.011z"/></g><defs><path id="Y" d="M510.107 197.893h8.899v8.899h-8.899z"/></defs><clipPath id="Z"><use xlink:href="#Y" overflow="visible"/></clipPath><g clip-path="url(#Z)"><path d="M510.105 197.894h8.899v8.899h-8.899z"/></g><g clip-path="url(#Z)"><path fill="#58595b" d="M516.349 200.53h-.855v.006h-1.898v-.006h-.857v3.619h3.61v-.011z"/></g><defs><path id="aa" d="M501.204 197.893h8.902v8.899h-8.902z"/></defs><clipPath id="ab"><use xlink:href="#aa" overflow="visible"/></clipPath><g clip-path="url(#ab)"><path d="M501.204 197.894h8.899v8.899h-8.899z"/></g><g clip-path="url(#ab)"><path fill="#58595b" d="M507.447 200.53h-.855v.006h-1.897v-.006h-.857v3.619h3.609v-.011z"/></g><defs><path id="ac" d="M492.308 197.893h8.899v8.899h-8.899z"/></defs><clipPath id="ad"><use xlink:href="#ac" overflow="visible"/></clipPath><g clip-path="url(#ad)"><path d="M492.306 197.894h8.899v8.899h-8.899z"/></g><g clip-path="url(#ad)"><path fill="#58595b" d="M498.55 200.53h-.855v.006h-1.898v-.006h-.857v3.619h3.61v-.011z"/></g><defs><path id="ae" d="M483.407 197.893h8.902v8.899h-8.902z"/></defs><clipPath id="af"><use xlink:href="#ae" overflow="visible"/></clipPath><g clip-path="url(#af)"><path d="M483.407 197.894h8.899v8.899h-8.899z"/></g><g clip-path="url(#af)"><path fill="#58595b" d="M489.651 200.53h-.855v.006h-1.898v-.006h-.857v3.619h3.61v-.011z"/></g><defs><path id="ag" d="M474.503 197.893h8.899v8.899h-8.899z"/></defs><clipPath id="ah"><use xlink:href="#ag" overflow="visible"/></clipPath><g clip-path="url(#ah)"><path d="M474.503 197.894h8.899v8.899h-8.899z"/></g><g clip-path="url(#ah)"><path fill="#58595b" d="M480.747 200.53h-.856v.006h-1.898v-.006h-.856v3.619h3.61v-.011z"/></g><defs><path id="ai" d="M465.602 197.893h8.899v8.899h-8.899z"/></defs><clipPath id="aj"><use xlink:href="#ai" overflow="visible"/></clipPath><g clip-path="url(#aj)"><path d="M465.602 197.894h8.899v8.899h-8.899z"/></g><g clip-path="url(#aj)"><path fill="#58595b" d="M471.844 200.53h-.856v.006h-1.897v-.006h-.856v3.619h3.609v-.011z"/></g><defs><path id="ak" d="M456.701 197.893h8.899v8.899h-8.899z"/></defs><clipPath id="al"><use xlink:href="#ak" overflow="visible"/></clipPath><g clip-path="url(#al)"><path d="M456.701 197.894h8.899v8.899h-8.899z"/></g><g clip-path="url(#al)"><path fill="#58595b" d="M462.943 200.53h-.855v.006h-1.897v-.006h-.857v3.619h3.609v-.011z"/></g><defs><path id="am" d="M447.804 197.893h8.899v8.899h-8.899z"/></defs><clipPath id="an"><use xlink:href="#am" overflow="visible"/></clipPath><g clip-path="url(#an)"><path d="M447.804 197.894h8.899v8.899h-8.899z"/></g><g clip-path="url(#an)"><path fill="#58595b" d="M454.047 200.53h-.855v.006h-1.898v-.006h-.857v3.619h3.61v-.011z"/></g><path fill="#fff" d="M575.309 57.233v-1.299c0-.894.458-1.231 1.077-1.231.443 0 .779.179.967.531l1.181-.63v.942l-1.023.486v.403h1.023v.798zm1.082-1.681c-.285 0-.432.104-.432.475v.408h.913v-.422c0-.278-.123-.461-.481-.461M575.309 53.438l.954-.455-.954-.461v-.804l1.524.873 1.702-1.006v.917l-1.082.55 1.082.561v.819l-1.667-.973-1.559.897zM357.821 45.669v-1.191c0-.859.411-1.186 1.039-1.186.44 0 .765.193.94.554l1.235-.676v.756l-1.111.564v.542h1.111v.638zm1.049-1.7c-.361 0-.519.149-.519.57v.492h1.053v-.509c0-.32-.134-.553-.534-.553M357.822 40.4h.529v1.636h.781v-1.482h.523v1.482h.845v-1.631h.535v2.269h-3.213zM358.672 39.727c-.524 0-.895-.529-.895-1.192 0-.361.075-.681.243-.982l.592.177a1.2 1.2 0 0 0-.307.801c0 .3.094.518.321.518.579 0 .386-1.626 1.509-1.626.672 0 .948.619.948 1.3 0 .352-.079.742-.292 1.069l-.588-.208c.222-.251.356-.562.356-.923 0-.312-.104-.555-.361-.555-.68-.001-.433 1.621-1.526 1.621M357.822 34.517h.529v1.634h.781V34.67h.523v1.481h.845v-1.63h.535v2.268h-3.213zM358.351 31.397v1.013h2.683v.637h-2.683v1.012h-.529v-2.662zM509.563 90.783V89.46c0-1.508.715-2.011 1.98-2.011.956 0 2.053.293 2.053 2.005v1.33h-4.033zm.814-1.001h2.396v-.379c0-.825-.505-.887-1.188-.887-.786 0-1.209.081-1.209.975zM512.771 86.825v-1.043h-2.383v1.043h-.825v-3.089h.825v1.049h2.383v-1.049h.827v3.089zM511.599 79.828h1.675c.257.473.386.913.386 1.386 0 1.246-.766 1.811-2.094 1.811-1.408 0-2.058-.857-2.058-2.018 0-.422.065-.733.272-1.173l.892.341c-.266.337-.352.555-.352.877 0 .583.328.913 1.235.913.954 0 1.295-.355 1.295-.958 0-.069 0-.129-.011-.199h-1.241zM512.771 79.065v-1.044h-2.383v1.044h-.825v-3.091h.825v1.049h2.383v-1.049h.827v3.091zM510.377 71.95v1.191h3.219v.998h-3.219v1.192h-.814V71.95zM513.598 71.592l-4.035-1.264v-1.124l4.035-1.285v1.061l-.827.223v1.16l.827.204zm-3.078-1.786 1.477.367v-.763zM509.563 66.198h3.208v-1.855h.827v2.855h-4.035zM517.061 83.496c.518.689 1.328 1.017 2.081 1.017.874 0 1.613-.378 2.133-1.066l.348.323c-.656.906-1.507 1.366-2.463 1.366-.881 0-1.798-.447-2.438-1.31zM517.064 82.284v-1.521c0-1.078.564-1.483 1.354-1.483.842 0 1.395.541 1.395 1.515v.69h1.285v.8zm1.381-2.154c-.419 0-.719.149-.719.714v.64h1.421v-.663c0-.436-.179-.691-.702-.691M520.216 76.102l-3.155-.131v-.776l4.036.452v.8l-2.032.521 2.032.455v.818l-4.036.546v-.818l3.142-.205-2.192-.498v-.607zM518.311 72.119l1.391.69v.571l-1.447.744h2.842v.645h-4.036v-.708l1.851-.967-1.851-.944v-.688h4.036v.657zM518.951 69.677c0 .254.164.486.535.752l-.326.44c-.702-.44-.827-.827-.827-1.231 0-.693.581-1.267.581-1.631 0-.275-.179-.424-.635-.707l.328-.456c.775.447.933.857.933 1.228 0 .682-.589 1.069-.589 1.605M516.722 65.6c.639-.863 1.557-1.311 2.438-1.311.956 0 1.807.46 2.463 1.367l-.348.323a2.59 2.59 0 0 0-2.135-1.068c-.749 0-1.561.328-2.079 1.018zM579.154 169.941l-1.265 4.031h-1.124l-1.285-4.031h1.061l.223.825h1.16l.204-.825zm-1.786 3.076.366-1.477h-.763zM574.156 169.939h.944v4.033h-1.086l-1.31-2.418v2.418h-.931v-4.033h1.012l1.378 2.582zM571.392 169.941l-1.265 4.031h-1.124l-1.283-4.031h1.06l.223.825h1.162l.204-.825zm-1.787 3.076.366-1.477h-.762zM565.998 173.972v-3.206h-1.855v-.827h2.855v4.033zM560.082 171.955c0-1.166.429-2.079 1.725-2.079 1.16 0 1.694.702 1.694 2.036 0 1.218-.465 2.118-1.687 2.118-1.149 0-1.732-.533-1.732-2.075m1.061 0c0 .989.08 1.261.67 1.261.533 0 .626-.315.626-1.304 0-.814-.055-1.222-.633-1.222-.583 0-.663.337-.663 1.265M556.342 171.936v-1.675c.473-.253.913-.384 1.385-.384 1.247 0 1.812.764 1.812 2.092 0 1.41-.857 2.062-2.018 2.062-.423 0-.733-.069-1.173-.274l.341-.894c.337.268.554.354.875.354.584 0 .913-.328.913-1.237 0-.952-.354-1.295-.956-1.295-.069 0-.13 0-.199.011v1.241h-.98zM553.248 170.766h-1.042v2.383h1.042v.823h-3.09v-.823h1.05v-2.383h-1.05v-.827h3.09zM548.542 169.939h.943v4.033h-1.086l-1.31-2.418v2.418h-.931v-4.033h1.013l1.377 2.582zM566.837 54.639v.953h2.578v.798h-2.578v.954h-.648v-2.705zM566.189 53.438l.953-.455-.953-.461v-.804l1.523.873 1.701-1.006v.917l-1.082.55 1.082.561v.819l-1.667-.973-1.557.897zM549.332 83.481c1.049 0 1.87.384 1.87 1.551 0 1.045-.63 1.524-1.831 1.524-1.095 0-1.904-.419-1.904-1.519 0-1.031.481-1.556 1.865-1.556m0 .954c-.887 0-1.133.073-1.133.602 0 .481.285.563 1.172.563.73 0 1.099-.05 1.099-.569 0-.522-.3-.596-1.138-.596M551.146 82.037v.849h-3.63v-.978l2.179-1.178h-2.179v-.837h3.63v.91l-2.321 1.24zM557.845 42.782c-.423 0-.695.245-.695.67 0 .35.218.707.516.953l-.626.447c-.104-.088-.654-.663-.654-1.594 0-.871.514-1.452 1.347-1.452.985 0 2.118 1.064 2.764 1.982v-2.191h.799v3.375h-.596c-.545-.85-1.931-2.19-2.855-2.19M549.723 42.832c.156-.737.611-1.221 1.311-1.221.633 0 1.386.477 1.386 1.789 0 .759-.311 1.333-.501 1.55l-.749-.463c.253-.289.469-.648.469-1.14 0-.41-.201-.775-.62-.775-.589 0-.842.693-.864 1.565h-.589c-.05-.723-.371-1.356-.825-1.356-.369 0-.531.289-.531.654 0 .404.194.71.404.924l-.626.404s-.553-.553-.553-1.549c0-.828.507-1.402 1.179-1.402.55 0 .945.417 1.109 1.02M543.459 42.082v.929h-1.03v2.145h-.559l-3.247-2.129v-.946h3.055v-.671h.751v.671zm-1.789.93h-1.891l1.891 1.238zM531.568 43.654c.015-1.394.687-2.012 1.593-2.012.775 0 1.535.572 1.535 1.825 0 .537-.177 1.05-.514 1.451l-.743-.431c.326-.32.49-.702.49-1.058 0-.41-.246-.827-.708-.827-.654 0-.946.514-.946 1.93h-2.496V41.76h.799v1.893h.99zM525.708 43.25c0 1.289-.894 1.736-2.319 1.736-1.719 0-2.664-.989-2.664-2.496 0-.222.022-.462.065-.708h.814a3 3 0 0 0-.073.679c0 .767.341 1.43 1.323 1.543-.155-.291-.268-.617-.268-.939 0-.894.499-1.49 1.425-1.49 1.026 0 1.697.587 1.697 1.675m-2.347.015c0 .382.158.663.233.76.818 0 1.345-.149 1.345-.834 0-.498-.417-.663-.831-.663-.539 0-.747.247-.747.737M534.599 195.288l-4.845-1.587v-1.067l4.845-1.608v1.023l-1.112.335v1.608l1.112.314zm-3.906-2.079 2.042.575v-1.178zM532.073 186.437c1.349 0 2.599.35 2.599 1.914 0 1.244-.743 1.848-2.399 1.848-1.52 0-2.584-.468-2.584-1.923 0-1.311.888-1.839 2.384-1.839m1.371 2.643-2.928-1.1c-.037.104-.06.221-.06.364 0 .722.738.9 1.669.9.544.001.997-.02 1.319-.164m-1.296-1.682c-.456 0-.872.022-1.187.149l2.902 1.087q.043-.134.043-.329c0-.765-.73-.907-1.758-.907M543.507 195.288l-4.843-1.587v-1.067l4.843-1.608v1.023l-1.11.335v1.608l1.11.314zm-3.904-2.079 2.042.575v-1.178zM542.71 189.984v-1.222h-3.277l.045.983h-.783l-.096-1.922h4.111v-1.171h.797v3.332zM552.417 195.288l-4.845-1.587v-1.067l4.845-1.608v1.023l-1.112.335v1.608l1.112.314zm-3.906-2.079 2.04.575v-1.178zM548.967 187.816c-.425 0-.695.246-.695.669 0 .35.216.71.516.954l-.624.448c-.108-.089-.659-.663-.659-1.595 0-.872.514-1.454 1.349-1.454.982 0 2.116 1.067 2.764 1.983v-2.19h.799v3.375h-.596c-.544-.85-1.93-2.19-2.854-2.19M561.323 195.288l-4.843-1.587v-1.067l4.843-1.608v1.023l-1.11.335v1.608l1.11.314zm-3.904-2.079 2.042.575v-1.178zM558.702 187.866c.155-.737.611-1.221 1.31-1.221.633 0 1.386.477 1.386 1.789 0 .761-.311 1.333-.501 1.55l-.749-.464c.253-.289.468-.648.468-1.139 0-.408-.201-.775-.62-.775-.589 0-.842.693-.864 1.565h-.589c-.052-.722-.371-1.355-.827-1.355-.367 0-.529.289-.529.654 0 .403.194.709.404.925l-.626.404s-.553-.554-.553-1.55c0-.829.507-1.401 1.179-1.401.552 0 .947.415 1.111 1.018M570.235 195.288l-4.845-1.587v-1.067l4.845-1.608v1.023l-1.11.335v1.608l1.11.314zm-3.903-2.079 2.038.575v-1.178zM570.227 187.116v.929h-1.028v2.146h-.559l-3.249-2.129v-.947h3.055v-.671h.754v.671h1.027zm-1.788.929h-1.893l1.893 1.239zM579.141 195.288l-4.843-1.587v-1.067l4.843-1.608v1.023l-1.11.335v1.608l1.11.314zm-3.903-2.079 2.04.575v-1.178zM576.088 188.687c.013-1.393.682-2.012 1.593-2.012.775 0 1.535.573 1.535 1.826 0 .535-.179 1.05-.514 1.45l-.747-.432c.328-.318.492-.701.492-1.058 0-.41-.246-.826-.706-.826-.656 0-.948.514-.948 1.93h-2.496v-2.772h.797v1.893zM512.506 41.611l4.314 1.961v.93l-4.038-1.84v2.296h-.796v-3.347zM499.973 42.693c.292-.589.725-1.142 1.298-1.142.799 0 1.362.746 1.362 1.753 0 .946-.432 1.706-1.257 1.706-.605 0-1.043-.559-1.304-1.081-.328.529-.611.932-1.2.932-.717 0-1.222-.76-1.222-1.611 0-.907.49-1.534 1.183-1.534.471 0 .872.513 1.14.977m-.38.572c-.259-.357-.484-.605-.728-.605-.343 0-.514.261-.514.613 0 .43.22.648.468.648.308.001.469-.2.774-.656m.851.089c.216.35.507.708.872.708.417 0 .648-.333.648-.827 0-.446-.261-.736-.648-.736-.35 0-.633.447-.872.855M488.716 43.318c0-1.296.892-1.743 2.317-1.743 1.721 0 2.669.989 2.669 2.496 0 .222-.026.462-.069.708h-.812c.052-.231.073-.456.073-.679 0-.768-.343-1.43-1.326-1.536.158.285.268.611.268.933 0 .894-.499 1.49-1.421 1.49-1.028-.001-1.699-.589-1.699-1.669m2.345-.023a1.35 1.35 0 0 0-.229-.76c-.82.008-1.349.149-1.349.841 0 .492.419.656.836.656.534.001.742-.246.742-.737M483.824 49.794v-1.222h-3.279l.047.982h-.784l-.096-1.921h4.112v-1.171h.796v3.332zM482.094 41.404c1.349 0 2.602.35 2.602 1.913 0 1.244-.745 1.848-2.401 1.848-1.519 0-2.583-.468-2.583-1.921 0-1.313.886-1.84 2.382-1.84m1.371 2.643-2.928-1.101c-.037.105-.06.222-.06.365 0 .723.738.9 1.669.9.544 0 1-.022 1.319-.164m-1.295-1.682c-.453 0-.872.022-1.185.147l2.9 1.088q.043-.135.043-.327c-.001-.768-.731-.908-1.758-.908M475.056 49.794v-1.222h-3.277l.043.982h-.783l-.096-1.921h4.113v-1.171h.799v3.332zM475.056 44.949v-1.22h-3.277l.043.983h-.783l-.096-1.923h4.113v-1.171h.799v3.331zM466.193 49.794v-1.222h-3.277l.044.982h-.783l-.096-1.921h4.112v-1.171h.799v3.332zM463.542 42.782c-.425 0-.694.245-.694.67 0 .35.216.707.514.953l-.624.447c-.105-.088-.657-.663-.657-1.594 0-.871.514-1.452 1.35-1.452.982 0 2.117 1.064 2.762 1.982v-2.191h.8v3.375h-.597c-.545-.85-1.93-2.19-2.854-2.19M457.308 49.794v-1.222h-3.278l.045.982h-.782l-.097-1.921h4.112v-1.171h.798v3.332zM455.482 42.832c.157-.737.61-1.221 1.313-1.221.633 0 1.384.477 1.384 1.789 0 .759-.311 1.333-.499 1.55l-.751-.463c.253-.289.469-.648.469-1.14 0-.41-.2-.775-.619-.775-.588 0-.841.693-.864 1.565h-.589c-.052-.723-.373-1.356-.827-1.356-.364 0-.529.289-.529.654 0 .404.194.71.403.924l-.627.404s-.551-.553-.551-1.549c0-.828.508-1.402 1.178-1.402.552 0 .945.417 1.109 1.02M447.217 49.394h1.67c.21.341.391.796.391 1.278 0 1.105-.601 1.812-2.067 1.812-1.434 0-2.085-.807-2.085-1.93 0-.453.099-.801.255-1.111l.613.23a1.4 1.4 0 0 0-.316.9c0 .805.446 1.216 1.52 1.216 1.135 0 1.526-.46 1.526-1.224a1.6 1.6 0 0 0-.091-.52h-1.417zM449.215 47.802v.621h-4.034v-.721l2.978-1.755h-2.978v-.62h4.034v.676l-3.071 1.799zM445.182 44.356v-1.34c0-1.447.863-1.881 1.985-1.881 1.049 0 2.047.322 2.047 1.905v1.315h-4.032zm.551-.659h2.916v-.712c0-1.023-.638-1.149-1.45-1.149-.807 0-1.466.186-1.466 1.192zM515.401 193.859l-2.694-.793v-.535l3.225 1.041v.606l-3.225 1.096v-.546zM512.45 190.679a.31.31 0 0 1 .311-.312c.171 0 .304.139.304.312a.3.3 0 0 1-.304.304.306.306 0 0 1-.311-.304m3.066 1.096v-.833h-1.544v.833h-.415v-1.347h1.958v-.854h.417v2.202zM515.932 187.992v.516h-2.375v-.476l.3-.01a1.23 1.23 0 0 1-.36-.85c0-.396.179-.838.827-.838h1.609v.517h-1.429c-.427 0-.546.193-.546.481 0 .217.119.476.278.659h1.696zM439.853 56.681l-4.034-1.365v-.719l4.034-1.378v.702l-.993.315v1.472l.993.304zm-3.376-1.699 1.856.565V54.4zM435.82 52.335v-1.403c0-1.054.472-1.451 1.266-1.451.56 0 .963.266 1.154.721l1.614-.901v.776l-1.478.782v.82h1.478v.656zm1.284-2.159c-.521 0-.732.224-.732.8v.703h1.459v-.726c0-.442-.174-.777-.727-.777M435.819 45.451h.553v2.14h1.142V45.65h.547v1.941h1.228v-2.134h.565v2.793h-4.035zM435.819 41.402h.553v2.136h1.321v-1.949h.547v1.949h1.614v.657h-4.035zM468.345 195.039v-1.12c0-.842.377-1.161 1.011-1.161.447 0 .77.215.924.577l1.289-.719v.618l-1.18.624v.658h1.18v.523zm1.028-1.726c-.419 0-.587.18-.587.641v.562h1.167v-.582c0-.353-.139-.621-.58-.621M468.345 189.535h.441v1.712h.913v-1.553h.437v1.553h.982v-1.707h.451v2.231h-3.224zM469.173 188.523c-.514 0-.872-.505-.872-1.157 0-.362.084-.697.229-.955l.501.154a1.2 1.2 0 0 0-.287.792c0 .362.119.611.391.611.665 0 .419-1.671 1.559-1.671.643 0 .926.58.926 1.239 0 .389-.104.77-.287 1.058l-.494-.179c.216-.248.344-.565.344-.932 0-.352-.128-.63-.431-.63-.789-.001-.493 1.67-1.579 1.67M468.345 183.076h.441v1.712h.913v-1.553h.437v1.553h.982v-1.707h.451v2.234h-3.224zM468.786 179.664v1.06h2.784v.527h-2.784v1.063h-.44v-2.65zM462.243 195.045v-.877h-2.328v.877h-.446v-2.301h.446v.897h2.328v-.897h.451v2.301zM461.081 189.32c.952 0 1.661.423 1.661 1.371 0 .942-.608 1.337-1.646 1.337-.988 0-1.672-.41-1.672-1.354.001-.936.531-1.354 1.657-1.354m0 .558c-.823 0-1.215.157-1.215.797 0 .62.387.794 1.23.794.769 0 1.204-.138 1.204-.778.001-.63-.445-.813-1.219-.813M459.468 188.583v-1.12c0-.844.377-1.16 1.012-1.16.447 0 .77.213.923.575l1.291-.72v.62l-1.18.625v.655h1.18v.525zm1.028-1.726c-.417 0-.586.179-.586.64v.56h1.167v-.58c0-.352-.14-.62-.581-.62M459.468 183.076h.442v1.712h.914v-1.553h.436v1.553h.983v-1.707h.451v2.234h-3.226zM459.468 179.838h.442v1.705h1.058v-1.557h.435v1.557h1.291v.526h-3.226zM478.794 193.68c.098-.524.405-.857.871-.857.427 0 .918.311.918 1.175 0 .476-.207.862-.316.988l-.413-.263c.16-.189.3-.447.3-.759 0-.317-.168-.615-.488-.615-.427 0-.602.486-.635 1.096h-.33c-.036-.492-.259-.953-.602-.953-.267 0-.403.224-.403.497 0 .278.126.489.254.64l-.352.221s-.33-.367-.33-.975c0-.535.325-.907.758-.907.389 0 .657.292.768.712M479.985 191.923c0-.183.093-.329.296-.329.199 0 .307.126.307.329 0 .208-.108.316-.307.316-.188 0-.296-.124-.296-.316M478.794 189.706c.098-.524.405-.857.871-.857.427 0 .918.312.918 1.176 0 .476-.207.862-.316.988l-.413-.263c.16-.189.3-.447.3-.759 0-.317-.168-.615-.488-.615-.427 0-.602.486-.635 1.096h-.33c-.036-.492-.259-.953-.602-.953-.267 0-.403.224-.403.497 0 .278.126.49.254.64l-.352.221s-.33-.367-.33-.975c0-.535.325-.907.758-.907.389-.001.657.291.768.711M480.004 186.657l-2.695-.795v-.536l3.226 1.044v.603l-3.226 1.097v-.547zM487.414 194.238c.011-.958.432-1.396 1.062-1.396.507 0 1.006.367 1.006 1.195 0 .347-.127.686-.326.922l-.412-.241a1.05 1.05 0 0 0 .313-.72c0-.319-.188-.626-.551-.626-.505 0-.695.431-.695 1.35h-1.604v-1.797h.443v1.312h.764zM488.904 190.631l-2.695-.795v-.535l3.226 1.043v.603l-3.226 1.097v-.547zM517.469 174.071h-1.606c-1.119 0-1.539-.609-1.539-1.384 0-.857.539-1.457 1.618-1.457h.528v-1.194h1v4.035zm-2.084-1.414c0 .315.086.6.594.6h.491v-1.209h-.508c-.392 0-.577.162-.577.609M510.412 172.054c0-1.168.428-2.079 1.724-2.079 1.16 0 1.694.702 1.694 2.036 0 1.216-.465 2.116-1.687 2.116-1.15 0-1.731-.533-1.731-2.073m1.06 0c0 .987.081 1.259.67 1.259.534 0 .627-.315.627-1.302 0-.812-.056-1.224-.634-1.224-.582 0-.663.337-.663 1.267M507.386 171.115l.013 2.956h-.963l.386-4.035h.999l.396 1.807.336-1.807h1.012l.478 4.035h-1.026l-.049-2.93-.397 2.062h-.72zM502.891 174.071v-.814h1.931v-.762h-1.756v-.808h1.756v-.824h-1.924v-.827h2.923v4.035zM502.039 174.071h-1.626c-1.117 0-1.539-.572-1.539-1.347 0-.553.222-.972.664-1.209l-.787-1.479h1.178l.608 1.28h.503v-1.28h1v4.035zm-2.104-1.352c0 .358.13.538.596.538h.508v-1.142h-.526c-.347 0-.578.158-.578.604M496.549 192.688h1.336c.168.273.311.635.311 1.023 0 .881-.482 1.449-1.652 1.449-1.146 0-1.667-.644-1.667-1.543 0-.362.08-.64.203-.889l.49.185c-.173.216-.25.456-.25.72 0 .644.358.973 1.213.973.909 0 1.222-.367 1.222-.978 0-.159-.03-.292-.073-.418h-1.133zM498.149 191.413v.497h-3.226v-.575l2.379-1.404h-2.379v-.496h3.226v.542l-2.455 1.436zM494.923 188.659v-1.072c0-1.157.689-1.504 1.589-1.504.836 0 1.637.258 1.637 1.523v1.054h-3.226zm.44-.527h2.334v-.57c0-.818-.512-.92-1.164-.92-.643 0-1.17.149-1.17.953zM505.329 192.688h1.332c.168.273.313.635.313 1.023 0 .881-.484 1.449-1.652 1.449-1.146 0-1.669-.644-1.669-1.543 0-.362.08-.64.205-.889l.492.185a1.1 1.1 0 0 0-.255.72c0 .644.358.973 1.213.973.909 0 1.224-.367 1.224-.978 0-.159-.03-.292-.076-.418h-1.129v-.522zM506.925 191.413v.497h-3.224v-.575l2.38-1.404h-2.38v-.496h3.224v.542l-2.455 1.436zM503.701 188.659v-1.072c0-1.157.687-1.504 1.587-1.504.838 0 1.636.258 1.636 1.523v1.054h-3.223zm.441-.527h2.332v-.57c0-.818-.509-.92-1.164-.92-.643 0-1.168.149-1.168.953zM576.55 41.404c1.347 0 2.602.35 2.602 1.913 0 1.244-.747 1.848-2.401 1.848-1.52 0-2.584-.468-2.584-1.921 0-1.313.885-1.84 2.383-1.84m1.369 2.643-2.925-1.101c-.039.105-.06.222-.06.365 0 .723.736.9 1.669.9.541 0 .999-.022 1.316-.164m-1.295-1.682c-.453 0-.872.022-1.183.147l2.897 1.088q.045-.135.045-.327c0-.768-.731-.908-1.759-.908M569.387 44.949v-1.22h-3.277l.045.983h-.782l-.097-1.923h4.111v-1.171h.799v3.331zM567.418 50.578v-3.271l-1.367 1.572h-.993l2.695-2.891 2.692 2.891h-1.006l-1.328-1.55v3.249zM577.155 45.988v3.274l1.362-1.571h.993l-2.692 2.887-2.696-2.887h1.01l1.326 1.547v-3.25zM440.895 101.338v-1.462c0-1.006.512-1.386 1.21-1.386.495 0 .877.201 1.088.598l1.33-.709v1.061l-1.151.546v.453h1.151v.898zm1.216-1.892c-.324 0-.487.116-.487.537v.458h1.029v-.475c0-.315-.141-.52-.542-.52M440.895 96.79l1.072-.515-1.072-.518v-.905l1.713.984 1.916-1.135v1.033l-1.218.619 1.218.632v.921l-1.876-1.093-1.753 1.01zM441.625 87.255v1.073h2.899v.898h-2.899v1.071h-.73v-3.042zM440.895 85.628l1.072-.515-1.072-.518v-.905l1.713.983 1.916-1.133v1.032l-1.218.619 1.218.631v.921l-1.876-1.092-1.753 1.009zM440.895 67.374h2.885v-1.67h.744v2.57h-3.629zM532.641 48.502c0 .202.11.413.419.707l-.313.415c-.633-.499-.725-.846-.725-1.228 0-.596.447-1.062.447-1.33 0-.218-.112-.328-.497-.646l.32-.423c.684.504.801.905.801 1.207-.001.615-.452.885-.452 1.298M550.364 48.502c0 .202.114.413.423.707l-.317.415c-.633-.499-.723-.846-.723-1.228 0-.596.443-1.062.443-1.33 0-.218-.11-.328-.494-.646l.317-.423c.687.504.803.905.803 1.207-.001.615-.452.885-.452 1.298M523.649 48.502c0 .202.114.413.423.707l-.311.415c-.637-.499-.73-.846-.73-1.228 0-.596.447-1.062.447-1.33 0-.218-.115-.328-.494-.646l.315-.423c.684.504.803.905.803 1.207 0 .615-.453.885-.453 1.298M491.641 48.502c0 .202.11.413.421.707l-.315.415c-.63-.499-.723-.846-.723-1.228 0-.596.445-1.062.445-1.33 0-.218-.112-.328-.497-.646l.317-.423c.687.504.803.905.803 1.207.001.615-.451.885-.451 1.298M482.636 52.985c0 .203.112.416.419.71l-.311.412c-.635-.499-.728-.846-.728-1.226 0-.598.447-1.062.447-1.332 0-.218-.112-.329-.497-.643l.32-.426c.684.504.801.905.801 1.206 0 .616-.451.887-.451 1.299M473.866 52.985c0 .203.111.416.421.71l-.315.412c-.63-.499-.723-.846-.723-1.226 0-.598.446-1.062.446-1.332 0-.218-.113-.329-.498-.643l.317-.426c.687.504.803.905.803 1.206.001.616-.451.887-.451 1.299M578.439 59.684a.37.37 0 0 1-.372.372H453.482a.372.372 0 1 1 0-.744h124.584c.206 0 .373.166.373.372M579.147 177.566a.37.37 0 0 1-.372.373h-49.56a.372.372 0 0 1 0-.746h49.56c.205 0 .372.168.372.373M517.557 177.566a.37.37 0 0 1-.372.373h-40.146a.372.372 0 0 1 0-.746h40.146c.206 0 .372.168.372.373"/><path d="M358.019 169.394v-1.395a.7.7 0 0 0-.7-.7h-8.148a.7.7 0 0 0-.701.7v31.732c0 .387.315.702.701.702h8.148c.385 0 .7-.315.7-.702v-1.393h36.398a.7.7 0 0 0 .698-.702v-27.542a.7.7 0 0 0-.698-.7z"/><path d="M358.019 198.338v1.393a.7.7 0 0 1-.7.702h-8.148a.704.704 0 0 1-.701-.702v-31.732c0-.386.315-.7.701-.7h8.148c.385 0 .7.314.7.7v30.339"/><path fill="#1c1711" d="M358.019 169.505h36.985v4.344h-36.985zM358.019 193.681h36.985v4.671h-36.985z"/><path d="M348.47 196.746v2.984c0 .387.315.702.701.702h8.148c.386 0 .7-.315.7-.702v-2.984zM348.47 167.998v2.602h9.549v-2.602a.7.7 0 0 0-.7-.7h-8.148a.7.7 0 0 0-.701.7"/><defs><path id="ao" d="M358.019 169.505h1.063v28.833h-1.063z"/></defs><clipPath id="ap"><use xlink:href="#ao" overflow="visible"/></clipPath><g clip-path="url(#ap)"><path d="M358.019 169.505h1.063v28.832h-1.063z"/></g><path fill="#8e9090" d="M464.854 159.855h5.892v3.401h-5.892zM456.528 159.855h4.659v3.401h-4.659zM473.74 159.855h5.892v3.401h-5.892zM482.626 159.855h5.894v3.401h-5.894zM491.514 159.855h5.896v3.401h-5.896zM500.399 159.855h5.896v3.401h-5.896zM509.289 159.855h5.893v3.401h-5.893zM518.177 159.855h5.892v3.401h-5.892zM527.022 159.855h5.892v3.401h-5.892zM535.951 159.855h5.895v3.401h-5.895zM544.838 159.855h5.89v3.401h-5.89zM553.724 159.855h5.89v3.401h-5.89zM562.614 159.855h5.895v3.401h-5.895zM572.21 159.855h4.686v3.401h-4.686zM464.854 129.899h5.892v3.499h-5.892zM456.528 129.899h4.659v3.499h-4.659zM473.74 129.899h5.892v3.499h-5.892zM482.626 129.899h5.894v3.499h-5.894zM491.514 129.899h5.896v3.499h-5.896zM500.399 129.899h5.896v3.499h-5.896zM509.289 129.899h5.893v3.499h-5.893zM518.177 129.899h5.892v3.499h-5.892zM527.022 129.899h5.892v3.499h-5.892zM535.951 129.899h5.895v3.499h-5.895zM544.838 129.899h5.89v3.499h-5.89zM553.724 129.899h5.89v3.499h-5.89zM562.614 129.899h5.895v3.499h-5.895zM572.21 129.899h4.686v3.499h-4.686z"/><path d="M454.132 133.509H579.35v26.584H454.132z"/><path fill="#fff" d="M590.396 184.394a4.696 4.696 0 1 0-9.392-.002 4.696 4.696 0 0 0 9.392.002M590.396 86.658a4.696 4.696 0 1 0-9.392-.002 4.696 4.696 0 0 0 9.392.002"/><path fill="#a0a1a2" d="M333.213 57.275h53.328v40.043h-53.328z"/><path fill="#8e9090" d="M335.436 57.275h-2.223v40.043h2.223v-.108zM339.879 57.275h-2.223v40.043h2.223v-.108zM344.322 57.275h-2.223v40.043h2.223v-.108zM348.766 57.275h-2.223v40.043h2.223v-.108zM353.208 57.275h-2.222v40.043h2.222v-.108zM357.652 57.275h-2.22v40.043h2.22v-.108zM362.098 57.275h-2.224v40.043h2.224v-.108zM366.54 57.275h-2.222v40.043h2.222v-.108zM370.983 57.275h-2.222v40.043h2.222v-.108zM375.427 57.275h-2.222v40.043h2.222v-.108zM379.87 57.275h-2.223v40.043h2.223v-.108zM384.313 57.275h-2.223v40.043h2.223v-.108zM392.776 30.95h2.976v-1.748H389.8v1.748zM370.512 29.16h-2.975v1.751h5.952V29.16zM392.776 47.499h2.976v-1.747H389.8v1.747zM370.512 45.714h-2.975v1.748h5.952v-1.748zM370.512 37.438h-2.975v1.747h5.952v-1.747z"/><path d="M371.556 27.942h20.825v20.825h-20.825z"/><circle cx="381.645" cy="38.332" r="5.742" fill="#fff"/><path fill="#fff" d="M410.582 202.522a4.695 4.695 0 1 0-9.389 0 4.695 4.695 0 1 0 9.389 0M410.582 33.055a4.695 4.695 0 1 0-9.389 0 4.694 4.694 0 1 0 9.389 0"/><g fill="#fff"><path d="M393.045 155.891v3.602c-1.014.547-1.961.827-2.975.827-2.681 0-3.896-1.641-3.896-4.496 0-3.028 1.841-4.43 4.336-4.43.907 0 1.574.147 2.522.587l-.734 1.921c-.721-.573-1.188-.761-1.881-.761-1.254 0-1.961.708-1.961 2.656 0 2.054.761 2.788 2.055 2.788.147 0 .28 0 .427-.027v-2.668h2.107zM400.905 157.945l.533 1.628c-.854.467-1.627.747-2.922.747-1.721 0-3.456-.92-3.456-3.415 0-2.068 1.534-3.335 3.229-3.335 1.815 0 3.175.894 3.175 3.482 0 .147 0 .294-.013.454h-4.202c.227.974 1.027 1.174 1.774 1.174.574-.001 1.334-.294 1.882-.735m-1.575-1.734c.053-.867-.441-1.174-.974-1.174-.72 0-1.054.307-1.147 1.174zM405.909 160.187h-2.121v-6.418h1.934l.04.947c.654-.84 1.495-1.147 2.321-1.147 1.148 0 2.148.64 2.148 2.281v4.336h-2.121v-3.656c0-.88-.401-1.041-.867-1.041-.467 0-1.001.294-1.334.681zM416.77 153.769h2.121v6.418h-1.868l-.106-1.014c-.654.841-1.455 1.148-2.282 1.148-1.148 0-2.148-.48-2.148-2.281v-4.27h2.121v3.723c0 .907.347 1.067.747 1.067.467 0 1.041-.4 1.414-.84v-3.951zM421.307 158.533h1.961v-3.109h-1.961v-1.654h4.083v4.763h2.028v1.654h-6.111zm3.042-8.032a1.19 1.19 0 0 1 1.187 1.187c0 .654-.534 1.174-1.187 1.174s-1.174-.52-1.174-1.174.52-1.187 1.174-1.187M431.929 160.187h-2.121v-6.418h1.934l.04.947c.654-.84 1.495-1.147 2.321-1.147 1.148 0 2.148.64 2.148 2.281v4.336h-2.121v-3.656c0-.88-.4-1.041-.867-1.041s-1.001.294-1.334.681zM441.723 153.57c2.255 0 3.482 1.387 3.482 3.362 0 1.881-1.281 3.389-3.469 3.389-2.175 0-3.522-1.281-3.522-3.389 0-1.882 1.387-3.362 3.509-3.362m-.054 5.109c1.068 0 1.308-.547 1.308-1.761 0-.934-.24-1.708-1.308-1.708-.92 0-1.227.64-1.227 1.708 0 1.188.4 1.761 1.227 1.761"/></g><path fill="#fff" d="M386.413 133.49v13.486h13.484V133.49zm10.881 8.079h-2.795v2.806h-2.67v-2.806h-2.81v-2.665h2.81v-2.813h2.67v2.813h2.795zM431.769 133.49v13.486h13.483V133.49zm10.878 8.075h-8.271V138.9h8.271zM401.532 133.49v13.486h13.484V133.49zm6.74 9.935c-2.943 0-5.33-3.193-5.33-3.193s2.387-3.188 5.33-3.188c2.945 0 5.33 3.188 5.33 3.188s-2.385 3.193-5.33 3.193"/><path fill="#fff" d="M409.746 140.232a1.472 1.472 0 1 1-2.945.005 1.472 1.472 0 0 1 2.945-.005M416.65 133.49v13.486h13.481V133.49zm7.595 8.726-1.881 1.884-1.884-1.884-1.907-1.909 1.884-1.883 1.907 1.911 3.959-3.964 1.888 1.882zM444.783 130.503l-.19.634-.222.795-.214-.771-.192-.658h-1.604v.397h.344v1.514h.419V130.9h.337v1.514h.361v-1.089l.169.581.151.508h.447l.14-.519.12-.489v1.008h.404v-1.911z"/><path fill="#8c7965" d="M450.665 68.853v-4.108c0-.126-.1-.229-.226-.229h-4.11a.23.23 0 0 0-.226.229v4.108c0 .126.103.227.226.227h4.11a.226.226 0 0 0 .226-.227M453.449 64.745v4.108c0 .126.102.227.228.227h4.108c.126 0 .226-.1.226-.227v-4.108c0-.126-.1-.229-.226-.229h-4.108a.23.23 0 0 0-.228.229"/><circle cx="452.064" cy="66.799" r="3.522" fill="#f47b20"/><circle cx="452.063" cy="66.799" r="1.291" fill="#fff"/><path fill="#8c7965" d="M450.665 90.994v-4.111c0-.125-.1-.226-.226-.226h-4.11c-.124 0-.226.1-.226.226v4.111c0 .123.103.226.226.226h4.11a.226.226 0 0 0 .226-.226M453.449 86.884v4.111c0 .123.102.226.228.226h4.108a.226.226 0 0 0 .226-.226v-4.111c0-.125-.1-.226-.226-.226h-4.108c-.126 0-.228.1-.228.226"/><circle cx="452.064" cy="88.938" r="3.522" fill="#f47b20"/><circle cx="452.063" cy="88.938" r="1.291" fill="#fff"/><path fill="#8c7965" d="M450.665 100.51v-4.111c0-.125-.1-.226-.226-.226h-4.11c-.124 0-.226.1-.226.226v4.111c0 .123.103.226.226.226h4.11a.226.226 0 0 0 .226-.226M453.449 96.399v4.111c0 .123.102.226.228.226h4.108a.226.226 0 0 0 .226-.226v-4.111c0-.125-.1-.226-.226-.226h-4.108a.227.227 0 0 0-.228.226"/><circle cx="452.064" cy="98.454" r="3.522" fill="#f47b20"/><circle cx="452.063" cy="98.454" r="1.291" fill="#fff"/><path fill="#8c7965" d="M557.476 84.551v-4.11a.226.226 0 0 0-.226-.227h-4.107a.23.23 0 0 0-.229.227v4.11c0 .124.102.227.229.227h4.107a.227.227 0 0 0 .226-.227M560.26 80.441v4.11c0 .124.106.227.229.227h4.107a.23.23 0 0 0 .229-.227v-4.11a.23.23 0 0 0-.229-.227h-4.107a.23.23 0 0 0-.229.227"/><circle cx="558.876" cy="82.498" r="3.522" fill="#8dc63f"/><circle cx="558.877" cy="82.498" r="1.291" fill="#fff"/><path fill="none" stroke="#e57e25" stroke-miterlimit="10" stroke-width=".944" d="M283.42 183.921h60.902M582.424 146.976h47.542M584.165 199.089h45.801M283.42 75.974h46.98M280.59 39.185h70.396M570.235 89.134h58.625M580.892 39.791h47.968M283.42 103.62h149.61M628.86 64.366H464.537M433.528 78.975h31.008v27.402h-31.008zM433.528 61.069h31.008v13.233h-31.008zM539.126 71.064h31.008v23.384h-31.008zM483.087 182.314h27.324v33.348h-27.324zM496.536 215.662v11.581h133.43M525.708 183.192h58.457v32.469h-58.457zM415.689 20.324h165.203v36.357H415.689z"/><path fill="#e57e25" d="M272.284 29.179h18.857v18.857h-18.857z"/><g fill="#fff"><path d="M274.911 41.255h2.175v-5.569l-1.75.305v-1.353l3.421-.703v7.319h2.148v1.419h-5.993v-1.418zM289.182 38.179c0 2.4-.623 4.628-3.408 4.628-2.214 0-3.289-1.326-3.289-4.27 0-2.705.835-4.601 3.421-4.601 2.334 0 3.276 1.578 3.276 4.243m-4.707 2.44 1.962-5.211a1.9 1.9 0 0 0-.65-.106c-1.286 0-1.604 1.313-1.604 2.97 0 .968.04 1.777.292 2.347m2.996-2.307c0-.809-.04-1.552-.265-2.108l-1.936 5.158c.159.053.358.079.583.079 1.366 0 1.618-1.299 1.618-3.129"/></g><path fill="#e57e25" d="M272.284 94.191h18.857v18.857h-18.857z"/><path fill="#fff" d="M282.758 103.085c1.048.518 2.029 1.286 2.029 2.308 0 1.419-1.326 2.427-3.116 2.427-1.684 0-3.036-.77-3.036-2.241 0-1.074.994-1.856 1.922-2.32-.941-.584-1.657-1.088-1.657-2.135 0-1.273 1.353-2.175 2.864-2.175 1.618 0 2.731.875 2.731 2.109 0 .834-.915 1.549-1.737 2.027m-1.18.836c-.623.384-1.26.901-1.26 1.551 0 .743.597 1.154 1.472 1.154.795 0 1.312-.464 1.312-1.154.001-.623-.795-1.127-1.524-1.551m.159-1.512c.637-.465 1.074-.862 1.074-1.3 0-.61-.464-.915-1.087-.915-.769 0-1.154.397-1.154.836 0 .543.358.835 1.167 1.379"/><path fill="#e57e25" d="M272.284 174.437h18.857v18.857h-18.857z"/><path fill="#fff" d="m284.681 180.242-3.487 7.677h-1.658l3.275-7.187h-4.084v-1.419h5.954z"/><path fill="#e57e25" d="M272.284 65.902h18.857v18.857h-18.857z"/><path fill="#fff" d="M281.644 70.659c2.307 0 3.103 1.591 3.103 4.124 0 3.063-1.764 4.747-4.442 4.747-.397 0-.822-.04-1.26-.12v-1.445c.411.093.809.133 1.207.133 1.366 0 2.546-.61 2.731-2.36-.504.278-1.087.478-1.658.478-1.591 0-2.652-.889-2.652-2.533.001-1.83 1.048-3.024 2.971-3.024m.04 4.177c.663 0 1.18-.278 1.352-.411-.013-1.458-.265-2.4-1.498-2.4-.875 0-1.167.743-1.167 1.485 0 .955.438 1.326 1.313 1.326"/><path fill="#e57e25" d="M628.86 30.363h18.857V49.22H628.86z"/><path fill="#fff" d="M635.316 42.439h2.175V36.87l-1.751.305v-1.353l3.422-.703v7.319h2.147v1.419h-5.993z"/><path fill="#e57e25" d="M628.86 55.088h18.857v18.857H628.86z"/><path fill="#fff" d="M639.175 62.444c0-.756-.438-1.233-1.193-1.233-.623 0-1.26.385-1.697.915l-.796-1.114c.159-.186 1.181-1.167 2.838-1.167 1.552 0 2.586.915 2.586 2.4 0 1.75-1.896 3.766-3.527 4.919h3.898v1.419h-6.007v-1.061c1.511-.968 3.898-3.434 3.898-5.078"/><path fill="#e57e25" d="M628.86 79.707h18.857v18.857H628.86z"/><path fill="#fff" d="M639.082 88.535c1.312.278 2.175 1.087 2.175 2.334 0 1.127-.849 2.466-3.183 2.466-1.353 0-2.373-.557-2.758-.889l.822-1.339c.517.451 1.153.835 2.028.835.729 0 1.379-.358 1.379-1.101 0-1.047-1.232-1.498-2.784-1.538v-1.047c1.286-.093 2.413-.663 2.413-1.472 0-.649-.517-.941-1.167-.941-.716 0-1.26.345-1.644.716l-.717-1.114s.981-.981 2.759-.981c1.472 0 2.492.902 2.492 2.095.001.981-.741 1.684-1.815 1.976"/><path fill="#e57e25" d="M628.86 137.372h18.857v18.857H628.86z"/><path fill="#fff" d="M640.422 150.854h-1.658v-1.829h-3.818v-.995l3.792-5.781h1.685v5.437h1.193v1.34h-1.193zm-1.658-3.181v-3.368l-2.201 3.368z"/><path fill="#e57e25" d="M628.86 188.465h18.857v18.857H628.86z"/><path fill="#fff" d="M637.624 196.524c2.479.026 3.58 1.22 3.58 2.838 0 1.379-1.021 2.731-3.249 2.731-.955 0-1.87-.318-2.586-.915l.77-1.326c.57.584 1.246.875 1.883.875.729 0 1.472-.438 1.472-1.26 0-1.167-.915-1.684-3.435-1.684v-4.442h4.933v1.419h-3.367v1.764z"/><path fill="#e57e25" d="M628.86 217.815h18.857v18.857H628.86z"/><path fill="#fff" d="M638.34 231.443c-2.294 0-3.09-1.592-3.09-4.124 0-3.063 1.764-4.747 4.442-4.747.397 0 .822.04 1.26.119v1.445a5.4 5.4 0 0 0-1.207-.133c-1.366 0-2.546.61-2.745 2.36.518-.278 1.101-.477 1.671-.477 1.592 0 2.652.888 2.652 2.532 0 1.832-1.048 3.025-2.983 3.025m-.027-4.176c-.677 0-1.181.278-1.353.411 0 1.458.265 2.399 1.484 2.399.889 0 1.181-.742 1.181-1.485.001-.954-.437-1.325-1.312-1.325"/></svg>