<svg xmlns="http://www.w3.org/2000/svg" xml:space="preserve" id="Layer_1" x="0" y="0" viewBox="0 0 183.4 138"><style>.st0{fill:#017481}.st1{fill:#80b9c0}.st2{fill:#fff}.st3{fill:#8a7867}.st4{fill:#c2c5c6}.st5{fill:#9da0a1}.st6{fill:#8b8f90}.st7{fill:#eaa800}.st8{fill:#e5540f}.st10{fill:#a1cbcf}.st12{fill:#a19284}</style><path d="M0 97.9V13.1l6.6-6.5V2.1l.1-.3.1-.2.1-.2.1-.3.1-.2.2-.1.2-.2.2-.2.2-.1.3-.1.2-.1h.2l.3-.1h166.2l.2.1h.3l.2.1.3.1.2.1.2.2.2.2.1.1.2.2.1.3.1.2.1.2.1.3v133.8l-.1.3-.1.2-.1.2-.1.3-.2.2-.1.1-.2.2-.2.2-.2.1-.3.1-.2.1h-.3l-.2.1H8.9l-.3-.1h-.2l-.2-.1-.3-.1-.2-.1-.2-.2-.2-.2-.2-.1-.1-.2-.1-.3-.1-.2-.1-.2-.1-.3v-31.4z" class="st0"/><path d="M54.8 75.2v3.3c0 .1-.1.1-.1.1H52c-.1 0-.1-.1-.1-.1v-3.3c0-.1.1-.1.1-.1h2.7s.1 0 .1.1M50 75.2v3.3c0 .1-.1.1-.1.1h-2.7c-.1 0-.1-.1-.1-.1v-3.3c0-.1.1-.1.1-.1h2.7c.1 0 .1 0 .1.1M50 69.3v3.3c0 .1-.1.1-.1.1h-2.7c-.1 0-.1-.1-.1-.1v-3.3c0-.1.1-.1.1-.1h2.7c.1-.1.1 0 .1.1M54.8 69.3v3.3c0 .1-.1.1-.1.1H52c-.1 0-.1-.1-.1-.1v-3.3c0-.1.1-.1.1-.1h2.7c0-.1.1 0 .1.1" class="st1"/><g id="INSERT"><path id="CIRCLE" d="M137.1 6.6c0 2.3 1.9 4.1 4.1 4.1s4.1-1.9 4.1-4.1-1.9-4.1-4.1-4.1c-2.2-.1-4.1 1.8-4.1 4.1" class="st2"/></g><g id="INSERT-2"><path id="CIRCLE-2" d="M2.4 19.7c0 2.3 1.9 4.1 4.1 4.1 2.3 0 4.1-1.9 4.1-4.1 0-2.3-1.9-4.1-4.1-4.1s-4.1 1.8-4.1 4.1" class="st2"/></g><g id="INSERT-3"><path id="CIRCLE-3" d="M2.4 92c0 2.3 1.9 4.1 4.1 4.1 2.3 0 4.1-1.9 4.1-4.1 0-2.3-1.9-4.1-4.1-4.1S2.4 89.7 2.4 92" class="st2"/></g><path id="LWPOLYLINE" d="M47.8 69.8H54v8.3h-6.2z" class="st3"/><g id="USB"><path d="M169.3 101.7v.9c0 .1-.1.2-.2.2h-3.4c-.1 0-.2-.1-.2-.2v-.9c0-.1.1-.2.2-.2h3.4c.2.1.2.1.2.2M169.3 100v.9c0 .1-.1.1-.1.1h-3.4c-.1 0-.2-.1-.2-.2v-.8c0-.1.1-.1.1-.1h3.4c.2-.1.2 0 .2.1M169.3 98.2v.9c0 .1-.1.2-.2.2h-3.4c-.1 0-.1-.1-.1-.1v-.9c0-.1.1-.1.1-.1h3.4c.2-.1.2-.1.2 0M169.3 96.5v.9c0 .1-.1.1-.1.1h-3.4c-.1 0-.2-.1-.2-.2v-.9c0-.1.1-.2.2-.2h3.4c.1.1.1.2.1.3M169.3 94.7v.9c0 .1-.1.2-.2.2h-3.4c-.1 0-.2-.1-.2-.2v-.9c0-.1.1-.1.1-.1h3.4c.3 0 .3.1.3.1" class="st4"/><path d="M167.6 89.1h14.9v19.5h-14.9z" class="st5"/><path d="M169.1 89.1h-1.5v19.5h1.5zM172 89.1h-1.4v19.5h1.4zM175 89.1h-1.5v19.5h1.5zM178 89.1h-1.5v19.5h1.5zM181 89.1h-1.5v19.5h1.5z" class="st6"/></g><g id="LED"><path d="M162.5 70.9h6.9v2.7h-6.9z" class="st6"/><path d="M168 72.3c0 1.2-.9 2.1-2.1 2.1s-2.1-.9-2.1-2.1.9-2.1 2.1-2.1 2.1.9 2.1 2.1" class="st7"/></g><g id="LED-2"><path d="M162.5 61h6.9v2.7h-6.9z" class="st6"/><path d="M168 62.4c0 1.2-.9 2.1-2.1 2.1s-2.1-.9-2.1-2.1.9-2.1 2.1-2.1 2.1 1 2.1 2.1" class="st7"/></g><g id="LED-3"><path d="M162.5 51.2h6.9v2.7h-6.9z" class="st6"/><path d="M168 52.6c0 1.2-.9 2.1-2.1 2.1s-2.1-.9-2.1-2.1.9-2.1 2.1-2.1c1.2-.1 2.1.9 2.1 2.1" class="st7"/></g><g id="LED-4"><path d="M162.5 41.3h6.9V44h-6.9z" class="st6"/><path d="M168 42.7c0 1.2-.9 2.1-2.1 2.1s-2.1-.9-2.1-2.1.9-2.1 2.1-2.1 2.1.9 2.1 2.1" class="st7"/></g><g id="Artwork_4"><path d="M155 6.8c-1.7 0-3.1 1.4-3.1 3.1h6.2c0-1.7-1.3-3.1-3.1-3.1M147.3 25.5s.1 0 0 0l.1-2.6v-3.6h-.1c-1.7 0-3.1 1.4-3.1 3.1s1.4 3.1 3.1 3.1" class="st6"/><path d="M174.2 30.6v2.6h7.4V7.4h-7.4v2.5h-26.8v20.7z" class="st0"/><path d="M174.2 30.6v2.6h7.4V7.4h-7.4v2.5h-26.8v20.7z" class="st8"/><path d="M174.2 30.6v2.6h7.4V7.4h-7.4v2.5h-26.8v20.7z"/><path d="M181.6 7.5h1.8v25.7h-1.8z" class="st3"/></g><g id="INSERT-4"><path id="CIRCLE-4" d="M133.8 131.4c0 2.3 1.9 4.1 4.1 4.1 2.3 0 4.1-1.9 4.1-4.1 0-2.3-1.9-4.1-4.1-4.1s-4.1 1.8-4.1 4.1" class="st2"/></g><g id="Single_pin"><path d="M132.1 134.7v-6.6h-6.6v6.6z" class="st0"/><path d="M132.1 134.7v-6.6h-6.6v6.6z" class="st8"/><path d="M132.1 134.7v-6.6h-6.6v6.6z"/><path d="M127.1 133.1h3.3v-3.3h-3.3z" class="st3"/></g><g id="Single_pin-2"><path d="M125.5 134.7v-6.6h-6.6v6.6z" class="st0"/><path d="M125.5 134.7v-6.6h-6.6v6.6z" class="st8"/><path d="M125.5 134.7v-6.6h-6.6v6.6z"/><path d="M120.6 133.1h3.3v-3.3h-3.3z" class="st3"/></g><g id="Single_pin-3"><path d="M118.9 134.7v-6.6h-6.6v6.6z" class="st0"/><path d="M118.9 134.7v-6.6h-6.6v6.6z" class="st8"/><path d="M118.9 134.7v-6.6h-6.6v6.6z"/><path d="M114 133.1h3.3v-3.3H114z" class="st3"/></g><g id="Single_pin-4"><path d="M112.4 134.7v-6.6h-6.6v6.6z" class="st0"/><path d="M112.4 134.7v-6.6h-6.6v6.6z" class="st8"/><path d="M112.4 134.7v-6.6h-6.6v6.6z"/><path d="M107.5 133.1h3.3v-3.3h-3.3z" class="st3"/></g><g id="Single_pin-5"><path d="M105.8 134.7v-6.6h-6.6v6.6z" class="st0"/><path d="M105.8 134.7v-6.6h-6.6v6.6z" class="st8"/><path d="M105.8 134.7v-6.6h-6.6v6.6z"/><path d="M100.9 133.1h3.3v-3.3h-3.3z" class="st3"/></g><g id="Single_pin-6"><path d="M99.3 134.7v-6.6h-6.6v6.6z" class="st0"/><path d="M99.3 134.7v-6.6h-6.6v6.6z" class="st8"/><path d="M99.3 134.7v-6.6h-6.6v6.6z"/><path d="M94.4 133.1h3.2v-3.3h-3.2z" class="st3"/></g><g id="Single_pin-7"><path d="M92.7 134.7v-6.6h-6.6v6.6z" class="st0"/><path d="M92.7 134.7v-6.6h-6.6v6.6z" class="st8"/><path d="M92.7 134.7v-6.6h-6.6v6.6z"/><path d="M87.8 133.1h3.3v-3.3h-3.3z" class="st3"/></g><g id="Single_pin-8"><path d="M86.2 134.7v-6.6h-6.6v6.6z" class="st0"/><path d="M86.2 134.7v-6.6h-6.6v6.6z" class="st8"/><path d="M86.2 134.7v-6.6h-6.6v6.6z"/><path d="M81.2 133.1h3.3v-3.3h-3.3z" class="st3"/></g><g id="Single_pin-9"><path d="M79.6 134.7v-6.6H73v6.6z" class="st0"/><path d="M79.6 134.7v-6.6H73v6.6z" class="st8"/><path d="M79.6 134.7v-6.6H73v6.6z"/><path d="M74.7 133.1H78v-3.3h-3.3z" class="st3"/></g><g id="Single_pin-10"><path d="M73.1 134.7v-6.6h-6.6v6.6z" class="st0"/><path d="M73.1 134.7v-6.6h-6.6v6.6z" class="st8"/><path d="M73.1 134.7v-6.6h-6.6v6.6z"/><path d="M68.1 133.1h3.3v-3.3h-3.3z" class="st3"/></g><g id="Single_pin-11"><path d="M62.5 134.7v-6.6h-6.6v6.6z" class="st0"/><path d="M62.5 134.7v-6.6h-6.6v6.6z" class="st8"/><path d="M62.5 134.7v-6.6h-6.6v6.6z"/><path d="M57.6 133.1h3.3v-3.3h-3.3z" class="st3"/></g><g id="Single_pin-12"><path d="M55.9 134.7v-6.6h-6.6v6.6z" class="st0"/><path d="M55.9 134.7v-6.6h-6.6v6.6z" class="st8"/><path d="M55.9 134.7v-6.6h-6.6v6.6z"/><path d="M51 133.1h3.3v-3.3H51z" class="st3"/></g><g id="Single_pin-13"><path d="M49.4 134.7v-6.6h-6.6v6.6z" class="st0"/><path d="M49.4 134.7v-6.6h-6.6v6.6z" class="st8"/><path d="M49.4 134.7v-6.6h-6.6v6.6z"/><path d="M44.4 133.1h3.3v-3.3h-3.3z" class="st3"/></g><g id="Single_pin-14"><path d="M42.8 134.7v-6.6h-6.6v6.6z" class="st0"/><path d="M42.8 134.7v-6.6h-6.6v6.6z" class="st8"/><path d="M42.8 134.7v-6.6h-6.6v6.6z"/><path d="M37.9 133.1h3.2v-3.3h-3.2z" class="st3"/></g><g id="Single_pin-15"><path d="M36.2 134.7v-6.6h-6.6v6.6z" class="st0"/><path d="M36.2 134.7v-6.6h-6.6v6.6z" class="st8"/><path d="M36.2 134.7v-6.6h-6.6v6.6z"/><path d="M31.3 133.1h3.3v-3.3h-3.3z" class="st3"/></g><g id="Single_pin-16"><path d="M29.6 134.7v-6.6H23v6.6z" class="st0"/><path d="M29.6 134.7v-6.6H23v6.6z" class="st8"/><path d="M29.6 134.7v-6.6H23v6.6z"/><path d="M24.7 133.1H28v-3.3h-3.3z" class="st3"/></g><g id="Single_pin-17"><path d="M23.1 134.7v-6.6h-6.6v6.6z" class="st0"/><path d="M23.1 134.7v-6.6h-6.6v6.6z" class="st8"/><path d="M23.1 134.7v-6.6h-6.6v6.6z"/><path d="M18.1 133.1h3.3v-3.3h-3.3z" class="st3"/></g><g id="Single_pin-18"><path d="M16.5 134.7v-6.6H9.9v6.6z" class="st0"/><path d="M16.5 134.7v-6.6H9.9v6.6z" class="st8"/><path d="M16.5 134.7v-6.6H9.9v6.6z"/><path d="M11.6 133.1h3.3v-3.3h-3.3z" class="st3"/></g><g id="Single_pin-19"><path d="M108.4 9.9V3.3h-6.6v6.6z" class="st0"/><path d="M108.4 9.9V3.3h-6.6v6.6z" class="st8"/><path d="M108.4 9.9V3.3h-6.6v6.6z"/><path d="M103.5 8.2h3.3V4.9h-3.3z" class="st3"/></g><g id="Single_pin-20"><path d="M101.8 9.9V3.3h-6.6v6.6z" class="st0"/><path d="M101.8 9.9V3.3h-6.6v6.6z" class="st8"/><path d="M101.8 9.9V3.3h-6.6v6.6z"/><path d="M96.9 8.2h3.3V4.9h-3.3z" class="st3"/></g><g id="Single_pin-21"><path d="M95.3 9.9V3.3h-6.6v6.6z" class="st0"/><path d="M95.3 9.9V3.3h-6.6v6.6z" class="st8"/><path d="M95.3 9.9V3.3h-6.6v6.6z"/><path d="M90.3 8.2h3.3V4.9h-3.3z" class="st3"/></g><g id="Single_pin-22"><path d="M88.7 9.9V3.3h-6.6v6.6z" class="st0"/><path d="M88.7 9.9V3.3h-6.6v6.6z" class="st8"/><path d="M88.7 9.9V3.3h-6.6v6.6z"/><path d="M83.8 8.2h3.3V4.9h-3.3z" class="st3"/></g><g id="Single_pin-23"><path d="M82.1 9.9V3.3h-6.6v6.6z" class="st0"/><path d="M82.1 9.9V3.3h-6.6v6.6z" class="st8"/><path d="M82.1 9.9V3.3h-6.6v6.6z"/><path d="M77.2 8.2h3.3V4.9h-3.3z" class="st3"/></g><g id="Single_pin-24"><path d="M75.6 9.9V3.3H69v6.6z" class="st0"/><path d="M75.6 9.9V3.3H69v6.6z" class="st8"/><path d="M75.6 9.9V3.3H69v6.6z"/><path d="M70.6 8.2h3.3V4.9h-3.3z" class="st3"/></g><g id="Single_pin-25"><path d="M69 9.9V3.3h-6.6v6.6z" class="st0"/><path d="M69 9.9V3.3h-6.6v6.6z" class="st8"/><path d="M69 9.9V3.3h-6.6v6.6z"/><path d="M64.1 8.2h3.3V4.9h-3.3z" class="st3"/></g><g id="Single_pin-26"><path d="M62.4 9.9V3.3h-6.6v6.6z" class="st0"/><path d="M62.4 9.9V3.3h-6.6v6.6z" class="st8"/><path d="M62.4 9.9V3.3h-6.6v6.6z"/><path d="M57.5 8.2h3.3V4.9h-3.3z" class="st3"/></g><g id="Single_pin-27"><path d="M49.3 9.9V3.3h-6.6v6.6z" class="st0"/><path d="M49.3 9.9V3.3h-6.6v6.6z" class="st8"/><path d="M49.3 9.9V3.3h-6.6v6.6z"/><path d="M44.3 8.2h3.3V4.9h-3.3z" class="st3"/></g><g id="Single_pin-28"><path d="M42.7 9.9V3.3h-6.6v6.6z" class="st0"/><path d="M42.7 9.9V3.3h-6.6v6.6z" class="st8"/><path d="M42.7 9.9V3.3h-6.6v6.6z"/><path d="M37.8 8.2H41V4.9h-3.2z" class="st3"/></g><g id="Single_pin-29"><path d="M36.1 9.9V3.3h-6.6v6.6z" class="st0"/><path d="M36.1 9.9V3.3h-6.6v6.6z" class="st8"/><path d="M36.1 9.9V3.3h-6.6v6.6z"/><path d="M31.2 8.2h3.3V4.9h-3.3z" class="st3"/></g><g id="Single_pin-30"><path d="M29.5 9.9V3.3H23v6.6z" class="st0"/><path d="M29.5 9.9V3.3H23v6.6z" class="st8"/><path d="M29.5 9.9V3.3H23v6.6z"/><path d="M24.6 8.2h3.3V4.9h-3.3z" class="st3"/></g><g id="Single_pin-31"><path d="M23 9.9V3.3h-6.6v6.6z" class="st0"/><path d="M23 9.9V3.3h-6.6v6.6z" class="st8"/><path d="M23 9.9V3.3h-6.6v6.6z"/><path d="M18 8.2h3.3V4.9H18z" class="st3"/></g><g id="Single_pin-32"><path d="M16.4 9.9V3.3H9.8v6.6z" class="st0"/><path d="M16.4 9.9V3.3H9.8v6.6z" class="st8"/><path d="M16.4 9.9V3.3H9.8v6.6z"/><path d="M11.5 8.2h3.3V4.9h-3.3z" class="st3"/></g><g id="Artwork_14"><path d="M154.2 134.5v1h15.5v-1H168v-1.3h1.7v-4.8H168v-1.3h1.7v-4.8H168V121h1.7v-1h-15.5v1h1.7v1.3h-1.7v10.9h1.7v1.3zm7.8-11c2.3 0 4.2 1.9 4.2 4.3 0 2.3-1.9 4.2-4.3 4.2-2.3 0-4.2-1.9-4.2-4.2 0-2.4 1.9-4.3 4.3-4.3" class="st6"/><path d="M149.9 135.5v-3.3h3.3v1h-1.6v1.3h1.6v1zM172.4 134.5v-1.3h-1.6v-1h3.3v3.3h-3.3v-1z" class="st5"/><path d="M170.2 134.5h2.2v-1.3H168v1.3z" class="st3"/><path d="M149.9 123.3V120h3.3v1h-1.6v1.3h1.6v1zM172.4 122.3V121h-1.6v-1h3.3v3.3h-3.3v-1zM172.4 128.4v-1.3h-1.6v-1h3.3v3.3h-3.3v-1z" class="st5"/><path d="M153.8 133.2h-2.2v1.3h4.4v-1.3zM153.8 121h-2.2v1.3h4.4V121zM170.2 122.3h2.2V121H168v1.3zM170.2 128.4h2.2v-1.3H168v1.3z" class="st3"/><path d="M166.2 127.7c0 2.3-1.9 4.2-4.2 4.2s-4.2-1.9-4.2-4.2 1.9-4.2 4.2-4.2 4.2 1.9 4.2 4.2" style="fill:#dddede"/></g><g id="Disegno_33"><path d="M46.8 51.9V33.8h17l1.1 1.2v16.9z" class="st0"/><path d="M46.8 51.9V33.8h17l1.1 1.2v16.9z" class="st8"/><path d="M46.8 51.9V33.8h17l1.1 1.2v16.9z"/><path d="M62.5 51.3h1.1v1.1h-1.1zM61.2 51.3h1.1v1.1h-1.1zM59.9 51.3H61v1.1h-1.1zM58.6 51.3h1.1v1.1h-1.1zM57.3 51.3h1.1v1.1h-1.1zM56 51.3h1.1v1.1H56zM54.7 51.3h1.1v1.1h-1.1zM53.3 51.3h1.1v1.1h-1.1zM52 51.3h1.1v1.1H52zM50.7 51.3h1.1v1.1h-1.1zM49.4 51.3h1.1v1.1h-1.1zM48.1 51.3h1.1v1.1h-1.1zM62.5 33.3h1.1v1.1h-1.1zM61.2 33.3h1.1v1.1h-1.1zM59.9 33.3H61v1.1h-1.1zM58.6 33.3h1.1v1.1h-1.1zM57.3 33.3h1.1v1.1h-1.1zM56 33.3h1.1v1.1H56zM54.7 33.3h1.1v1.1h-1.1zM53.3 33.3h1.1v1.1h-1.1zM52 33.3h1.1v1.1H52zM50.7 33.3h1.1v1.1h-1.1zM49.4 33.3h1.1v1.1h-1.1zM48.1 33.3h1.1v1.1h-1.1zM64.3 35.7h1.1v1.1h-1.1zM64.3 37h1.1v1.1h-1.1zM64.3 38.4h1.1v1.1h-1.1zM64.3 39.7h1.1v1.1h-1.1zM64.3 41h1.1v1.1h-1.1zM64.3 42.3h1.1v1.1h-1.1zM64.3 43.6h1.1v1.1h-1.1zM64.3 44.9h1.1V46h-1.1zM64.3 46.3h1.1v1.1h-1.1zM64.3 47.6h1.1v1.1h-1.1zM64.3 48.9h1.1V50h-1.1zM46.3 35.7h1.1v1.1h-1.1zM46.3 37h1.1v1.1h-1.1zM46.3 38.4h1.1v1.1h-1.1zM46.3 39.7h1.1v1.1h-1.1zM46.3 41h1.1v1.1h-1.1zM46.3 42.3h1.1v1.1h-1.1zM46.3 43.6h1.1v1.1h-1.1zM46.3 44.9h1.1V46h-1.1zM46.3 46.3h1.1v1.1h-1.1zM46.3 47.6h1.1v1.1h-1.1zM46.3 48.9h1.1V50h-1.1z" class="st6"/></g><g id="Disegno_21"><path d="M3.1 64.5V67l1.8 1.8v.5l-1.8 1.8v2.6l1.8 1.8v.5l-1.8 1.8v2.5l1.8 1.8h9.2l1.8-1.8v-2.5L14.1 76v-.5l1.8-1.8v-2.6l-1.8-1.8v-.5l1.8-1.8v-2.5l-1.8-1.8H4.9z"/><path d="M12.8 66.9c-.6 0-1.1-.5-1.1-1.1s.5-1.1 1.1-1.1 1.1.5 1.1 1.1c.1.6-.5 1.1-1.1 1.1M6.1 80.2c-.6 0-1.1-.5-1.1-1.1S5.5 78 6.1 78s1.1.5 1.1 1.1c.1.6-.4 1.1-1.1 1.1M6.1 73.5c-.6 0-1.1-.5-1.1-1.1s.5-1.1 1.1-1.1 1.1.5 1.1 1.1c.1.6-.4 1.1-1.1 1.1M6.1 66.9c-.6 0-1.1-.5-1.1-1.1s.5-1.1 1.1-1.1 1.1.5 1.1 1.1c.1.6-.4 1.1-1.1 1.1M12.8 80.2c-.6 0-1.1-.5-1.1-1.1s.5-1.1 1.1-1.1 1.1.5 1.1 1.1c.1.6-.5 1.1-1.1 1.1M12.8 73.5c-.6 0-1.1-.5-1.1-1.1s.5-1.1 1.1-1.1 1.1.5 1.1 1.1c.1.6-.5 1.1-1.1 1.1" class="st6"/></g><g id="Artwork_8"><path d="M25.8 62.4c-.7 0-1.3.6-1.3 1.3h2.6c0-.8-.5-1.3-1.3-1.3M25.8 74.9c.7 0 1.3-.6 1.3-1.3h-2.6c.1.7.6 1.3 1.3 1.3" class="st6"/><path d="M23.3 62.4c-.7 0-1.3.6-1.3 1.3h2.6c-.1-.8-.6-1.3-1.3-1.3M23.3 74.9c.7 0 1.3-.6 1.3-1.3H22c0 .7.5 1.3 1.3 1.3" class="st6"/><path d="M24.5 73.6h2.6v-9.9H22v9.9z" class="st0"/><path d="M24.5 73.6h2.6v-9.9H22v9.9z" class="st8"/><path d="M24.5 73.6h2.6v-9.9H22v9.9z"/></g><g id="Artwork_8-2"><path d="M123.2 12.1c-.9 0-1.6.7-1.6 1.6h3.2c0-.9-.7-1.6-1.6-1.6M123.2 27.8c.9 0 1.6-.7 1.6-1.6h-3.2c0 .9.7 1.6 1.6 1.6M119.9 12.1c-.9 0-1.6.7-1.6 1.6h3.2c.1-.9-.7-1.6-1.6-1.6M119.9 27.8c.9 0 1.6-.7 1.6-1.6h-3.2c0 .9.7 1.6 1.6 1.6" class="st6"/><path d="M121.6 26.2h3.2V13.7h-6.5v12.5z" class="st0"/><path d="M121.6 26.2h3.2V13.7h-6.5v12.5z" class="st8"/><path d="M121.6 26.2h3.2V13.7h-6.5v12.5z"/></g><g id="Artwork_11"><path d="M142.8 93.8c0 .4-.3.6-.6.6-.4 0-.6-.3-.6-.6 0-.4.3-.6.6-.6s.6.3.6.6M142.8 95.9c0 .4-.3.6-.6.6-.4 0-.6-.3-.6-.6 0-.4.3-.6.6-.6s.6.3.6.6M142.8 98c0 .4-.3.6-.6.6-.4 0-.6-.3-.6-.6 0-.4.3-.6.6-.6.3-.1.6.2.6.6M142.8 100c0 .4-.3.6-.6.6-.4 0-.6-.3-.6-.6 0-.4.3-.6.6-.6s.6.3.6.6M147.9 93.8c0 .4-.3.6-.6.6-.4 0-.6-.3-.6-.6 0-.4.3-.6.6-.6.4 0 .6.3.6.6M147.9 95.9c0 .4-.3.6-.6.6-.4 0-.6-.3-.6-.6 0-.4.3-.6.6-.6.4 0 .6.3.6.6M147.9 98c0 .4-.3.6-.6.6-.4 0-.6-.3-.6-.6 0-.4.3-.6.6-.6.4-.1.6.2.6.6M147.9 100c0 .4-.3.6-.6.6-.4 0-.6-.3-.6-.6 0-.4.3-.6.6-.6.4 0 .6.3.6.6" class="st10"/><path d="M144.7 100.7h1.3v-7.5h-2.6v7.5z" class="st0"/><path d="M144.7 100.7h1.3v-7.5h-2.6v7.5z" class="st8"/><path d="M144.7 100.7h1.3v-7.5h-2.6v7.5z"/><path d="M146 99.4h1.3v1.3H146zM146 97.3h1.3v1.3H146zM146 95.3h1.3v1.3H146zM146 93.2h1.3v1.3H146zM142.1 99.4h1.3v1.3h-1.3zM142.1 97.3h1.3v1.3h-1.3zM142.1 95.3h1.3v1.3h-1.3zM142.1 93.2h1.3v1.3h-1.3z" class="st6"/></g><g id="Artwork_11-2"><path d="M142.8 61.2c0 .4-.3.6-.6.6-.4 0-.6-.3-.6-.6 0-.4.3-.6.6-.6s.6.3.6.6M142.8 63.3c0 .4-.3.6-.6.6-.4 0-.6-.3-.6-.6 0-.4.3-.6.6-.6.3-.1.6.2.6.6M142.8 65.4c0 .4-.3.6-.6.6-.4 0-.6-.3-.6-.6 0-.4.3-.6.6-.6.3-.1.6.2.6.6M142.8 67.4c0 .4-.3.6-.6.6-.4 0-.6-.3-.6-.6 0-.4.3-.6.6-.6s.6.3.6.6M147.9 61.2c0 .4-.3.6-.6.6-.4 0-.6-.3-.6-.6 0-.4.3-.6.6-.6.4 0 .6.3.6.6M147.9 63.3c0 .4-.3.6-.6.6s-.6-.3-.6-.6c0-.4.3-.6.6-.6.4-.1.6.2.6.6M147.9 65.4c0 .4-.3.6-.6.6-.4 0-.6-.3-.6-.6 0-.4.3-.6.6-.6.4-.1.6.2.6.6M147.9 67.4c0 .4-.3.6-.6.6-.4 0-.6-.3-.6-.6 0-.4.3-.6.6-.6.4 0 .6.3.6.6" class="st10"/><path d="M144.7 68.1h1.3v-7.5h-2.6v7.5z" class="st0"/><path d="M144.7 68.1h1.3v-7.5h-2.6v7.5z" class="st8"/><path d="M144.7 68.1h1.3v-7.5h-2.6v7.5z"/><path d="M146 66.8h1.3v1.3H146zM146 64.7h1.3V66H146zM146 62.6h1.3v1.3H146zM146 60.6h1.3v1.3H146zM142.1 66.8h1.3v1.3h-1.3zM142.1 64.7h1.3V66h-1.3zM142.1 62.6h1.3v1.3h-1.3zM142.1 60.6h1.3v1.3h-1.3z" class="st6"/></g><g id="Artwork_11-3"><path d="M96.6 44.3c0 .4-.3.6-.6.6-.4 0-.6-.3-.6-.6 0-.4.3-.6.6-.6s.6.3.6.6M96.6 46.4c0 .4-.3.6-.6.6s-.6-.3-.6-.6c0-.4.3-.6.6-.6.3-.1.6.2.6.6M96.6 48.4c0 .4-.3.6-.6.6-.4 0-.6-.3-.6-.6 0-.4.3-.6.6-.6s.6.3.6.6M96.6 50.5c0 .4-.3.6-.6.6-.4 0-.6-.3-.6-.6 0-.4.3-.6.6-.6s.6.3.6.6M101.8 44.3c0 .4-.3.6-.6.6-.4 0-.6-.3-.6-.6 0-.4.3-.6.6-.6s.6.3.6.6M101.8 46.4c0 .4-.3.6-.6.6s-.6-.3-.6-.6c0-.4.3-.6.6-.6.3-.1.6.2.6.6M101.8 48.4c0 .4-.3.6-.6.6-.4 0-.6-.3-.6-.6 0-.4.3-.6.6-.6s.6.3.6.6M101.8 50.5c0 .4-.3.6-.6.6-.4 0-.6-.3-.6-.6 0-.4.3-.6.6-.6s.6.3.6.6" class="st10"/><path d="M98.6 51.2h1.3v-7.5h-2.6v7.5z" class="st0"/><path d="M98.6 51.2h1.3v-7.5h-2.6v7.5z" class="st8"/><path d="M98.6 51.2h1.3v-7.5h-2.6v7.5z"/><path d="M99.9 49.9h1.3v1.3h-1.3zM99.9 47.8h1.3v1.3h-1.3zM99.9 45.7h1.3V47h-1.3zM99.9 43.7h1.3V45h-1.3zM96 49.9h1.3v1.3H96zM96 47.8h1.3v1.3H96zM96 45.7h1.3V47H96zM96 43.7h1.3V45H96z" class="st6"/></g><g id="Artwork_10"><path d="M119 84.5h8.4v8.4H119z" class="st8"/><path d="M119 84.5h8.4v8.4H119z"/><path d="M119 84.5h8.4v8.4H119z"/><path d="M121.9 92.1h.9v3.8h-.9zM123.6 92.1h.9v3.8h-.9zM125.3 92.1h.9v3.8h-.9zM120.3 92.1h.9v3.8h-.9zM123.6 81.5h.9v3.8h-.9zM121.9 81.5h.9v3.8h-.9zM120.3 81.5h.9v3.8h-.9zM125.3 81.5h.9v3.8h-.9z" class="st6"/><path d="M125.7 81.1c-.2 0-.4.2-.4.4s.2.4.4.4.4-.2.4-.4c.1-.2-.1-.4-.4-.4M124 81.1c-.2 0-.4.2-.4.4s.2.4.4.4.4-.2.4-.4c.1-.2-.1-.4-.4-.4M122.4 81.1c-.2 0-.4.2-.4.4s.2.4.4.4.4-.2.4-.4-.2-.4-.4-.4M120.7 81.1c-.2 0-.4.2-.4.4s.2.4.4.4.4-.2.4-.4-.2-.4-.4-.4M125.7 95.5c-.2 0-.4.2-.4.4s.2.4.4.4.4-.2.4-.4c.1-.3-.1-.4-.4-.4M124 95.5c-.2 0-.4.2-.4.4s.2.4.4.4.4-.2.4-.4c.1-.3-.1-.4-.4-.4M122.4 95.5c-.2 0-.4.2-.4.4s.2.4.4.4.4-.2.4-.4c0-.3-.2-.4-.4-.4M120.7 95.5c-.2 0-.4.2-.4.4s.2.4.4.4.4-.2.4-.4c0-.3-.2-.4-.4-.4" class="st1"/></g><g id="Disegno_34"><path d="M125.5 48.6h1.1v2.9h-1.1zM125.5 43.4h1.1v2.9h-1.1zM136.6 40.7h1.1v8.4h-1.1z" class="st6"/><path d="M137.8 40.7h1.1v8.4h-1.1z" style="fill:#adb0b1"/><path d="M138.9 40.7h1.1v8.4h-1.1zM125.5 38.3h1.1v2.9h-1.1z" class="st6"/><path d="M124.4 48.6h1.1v2.9h-1.1zM124.4 43.4h1.1v2.9h-1.1zM124.4 38.3h1.1v2.9h-1.1z" class="st12"/><path d="M123.3 48.6h1.1v2.9h-1.1zM123.3 43.4h1.1v2.9h-1.1zM123.3 38.3h1.1v2.9h-1.1z" class="st6"/><path d="M126.6 36.3h10v17h-10z" class="st0"/><path d="M126.6 36.3h10v17h-10z" class="st8"/><path d="M126.6 36.3h10v17h-10z"/></g><g id="Disegno_22"><path d="M110.8 40.2h4.8v8h-4.8z" class="st0"/><path d="M110.8 40.2h4.8v8h-4.8z" class="st8"/><path d="M110.8 40.2h4.8v8h-4.8z"/><path d="M114.9 43.7h3.5V45h-3.5zM114.9 46.3h3.5v1.3h-3.5zM108.6 46.3h3.5v1.3h-3.5zM114.9 41.2h3.5v1.3h-3.5zM108.6 41.2h3.5v1.3h-3.5z" class="st6"/></g><g id="Disegno_7"><path d="M129.4 70.8h3.6V77h-3.6z"/><path d="M127.2 74.7h2.2v2.2h-2.2zM133 72.7h2.2v2.2H133zM127.2 70.8h2.2V73h-2.2z" class="st4"/><path d="M128.9 75.3h1.1v1.1h-1.1zM128.9 71.3h1.1v1.1h-1.1zM132.4 73.3h1.1v1.1h-1.1z" class="st6"/></g><g id="Artwork_13"><path d="M152.7 116.7H151v-2.3c.5 0 .9-.4.9-1 0-.5-.4-.9-.9-.9V110h1.8v6.7zM138.5 116.7h-2.1V110h2.1v2.4c.2 0 .5.1.7.3-.2-.2-.4-.3-.7-.3-.5 0-.9.4-.9.9s.4.9.9.9z" class="st6"/><path d="M152.7 110h1.3v6.6h-1.3zM135 110h1.3v6.6H135zM151 114.3c-.5 0-1-.4-1-.9s.4-.9.9-.9c-.5 0-.9.5-.9 1 .1.4.5.8 1 .8" class="st4"/><path d="M141.8 109.3h5.5v8.2h-5.5z" class="st0"/><path d="M141.8 109.3h5.5v8.2h-5.5z" class="st8"/><path d="M141.8 109.3h5.5v8.2h-5.5z"/><path d="M151 117.4h-3.6v-8.2h3.6v3.2c-.5 0-.9.4-.9 1 0 .5.4.9.9.9zM141.8 109.3v8.2h-3.3v-3.1c.5 0 .9-.4.9-1 0-.5-.4-.9-.9-.9v-3.2z" class="st3"/><path d="M138.5 114.3c-.5 0-.9-.4-.9-.9s.4-.9.9-.9.9.4.9.9-.4.9-.9.9M150.9 114.3c-.5 0-.9-.4-.9-.9s.4-.9.9-.9.9.4.9.9c.1.5-.3.9-.9.9" class="st4"/></g><g id="Artwork_3"><path d="M121.2 97.6v3h-3v-3zc-.1 0 0 0 0 0M117.8 97.6v3h-3v-3zc-.1 0 0 0 0 0" class="st6"/><path d="M116.7 100.4h2.7c.7 0 1.3-.6 1.2-1.3 0-.7-.6-1.2-1.2-1.2h-2.7c-.7 0-1.3.6-1.3 1.3 0 .6.5 1.2 1.3 1.2" class="st4"/><path d="M116.9 97.8h1.9v2.6h-1.9z" class="st0"/><path d="M116.9 97.8h1.9v2.6h-1.9z" class="st8"/><path d="M116.9 97.8h1.9v2.6h-1.9z"/></g><g id="Artwork_3-2"><path d="M131.7 97.6v3h-3v-3zc-.1 0 0 0 0 0M128.3 97.6v3h-3v-3zc-.1 0 0 0 0 0" class="st6"/><path d="M127.2 100.4h2.7c.7 0 1.3-.6 1.2-1.3 0-.7-.6-1.2-1.2-1.2h-2.7c-.7 0-1.3.6-1.3 1.3 0 .6.5 1.2 1.3 1.2q-.15 0 0 0" class="st4"/><path d="M127.4 97.8h1.9v2.6h-1.9z" class="st0"/><path d="M127.4 97.8h1.9v2.6h-1.9z" class="st8"/><path d="M127.4 97.8h1.9v2.6h-1.9z"/></g><g id="Artwork_3-3"><path d="M121.5 77.3v3h-3v-3zM118.1 77.3v3h-3v-3z" class="st6"/><path d="M117 80.1h2.7c.7 0 1.3-.6 1.2-1.3 0-.7-.6-1.2-1.2-1.2H117c-.7 0-1.3.6-1.3 1.3s.6 1.2 1.3 1.2" class="st4"/><path d="M117.3 77.6h1.9v2.6h-1.9z" class="st0"/><path d="M117.3 77.6h1.9v2.6h-1.9z" class="st8"/><path d="M117.3 77.6h1.9v2.6h-1.9z"/></g><g id="Artwork_3-4"><path d="M148 103.6v3h-3v-3zc-.1 0 0 0 0 0M144.6 103.6v3h-3v-3zc-.1 0 0 0 0 0" class="st6"/><path d="M143.4 106.4h2.7c.7 0 1.3-.6 1.2-1.3 0-.7-.6-1.2-1.2-1.2h-2.7c-.7 0-1.3.6-1.3 1.3 0 .6.6 1.2 1.3 1.2" class="st4"/><path d="M143.7 103.8h1.9v2.6h-1.9z" class="st0"/><path d="M143.7 103.8h1.9v2.6h-1.9z" class="st8"/><path d="M143.7 103.8h1.9v2.6h-1.9z"/></g><g id="Artwork_3-5"><path d="M148 87.2v3h-3v-3zc-.1 0 0 0 0 0M144.6 87.2v3h-3v-3zc-.1 0 0 0 0 0" class="st6"/><path d="M143.4 90h2.7c.7 0 1.3-.6 1.2-1.3 0-.7-.6-1.2-1.2-1.2h-2.7c-.7 0-1.3.6-1.3 1.3 0 .6.6 1.2 1.3 1.2" class="st4"/><path d="M143.7 87.4h1.9V90h-1.9z" class="st0"/><path d="M143.7 87.4h1.9V90h-1.9z" class="st8"/><path d="M143.7 87.4h1.9V90h-1.9z"/></g><g id="Artwork_3-6"><path d="M149.4 81.6v4.3s0 .1-.1.1H145s-.1 0-.1-.1v-4.3s0-.1.1-.1zc0-.1 0 0 0 0M144.5 81.6v4.3s0 .1-.1.1h-4.3s-.1 0-.1-.1v-4.3s0-.1.1-.1zc0-.1 0 0 0 0" class="st6"/><path d="M142.9 85.6h3.7c1 0 1.8-.9 1.8-1.9s-.8-1.8-1.8-1.8h-3.7c-1 0-1.9.8-1.9 1.9 0 1 .9 1.8 1.9 1.8" class="st4"/><path d="M143.3 81.9h2.8v3.7h-2.8z" class="st0"/><path d="M143.3 81.9h2.8v3.7h-2.8z" class="st8"/><path d="M143.3 81.9h2.8v3.7h-2.8z"/></g><g id="Artwork_12"><path d="M147.3 70.5h3.3v6.8h-3.3zM138.7 70.5h3.3v6.8h-3.3z" class="st6"/><path d="M141.7 71.3c-.7 0-1.3.6-1.3 1.3v2.6c0 .7.6 1.3 1.3 1.3h.4v-5.2zM147.7 76.5c.7 0 1.3-.6 1.3-1.3v-2.6c0-.7-.6-1.3-1.3-1.3h-.4v5.2z" class="st3"/><path d="M142.1 71.3h5.2v5.2h-5.2z" class="st0"/><path d="M142.1 71.3h5.2v5.2h-5.2z" class="st8"/><path d="M142.1 71.3h5.2v5.2h-5.2z"/></g><g id="Artwork_3-7"><path d="M116.6 49.4v3h-3v-3zM113.2 49.4v3h-3v-3z" class="st6"/><path d="M112.1 52.2h2.7c.7 0 1.3-.6 1.2-1.3 0-.7-.6-1.2-1.2-1.2h-2.7c-.7 0-1.3.6-1.3 1.3 0 .6.6 1.2 1.3 1.2" class="st4"/><path d="M112.4 49.6h1.9v2.6h-1.9z" class="st0"/><path d="M112.4 49.6h1.9v2.6h-1.9z" class="st8"/><path d="M112.4 49.6h1.9v2.6h-1.9z"/></g><g id="Artwork_3-8"><path d="M116.6 36.3v3h-3v-3zc0-.1 0 0 0 0M113.2 36.3v3h-3v-3zc0-.1 0 0 0 0" class="st6"/><path d="M112.1 39.1h2.7c.7 0 1.3-.6 1.2-1.3 0-.7-.6-1.2-1.2-1.2h-2.7c-.7 0-1.3.6-1.3 1.3 0 .6.6 1.2 1.3 1.2" class="st4"/><path d="M112.4 36.5h1.9v2.6h-1.9z" class="st0"/><path d="M112.4 36.5h1.9v2.6h-1.9z" class="st8"/><path d="M112.4 36.5h1.9v2.6h-1.9z"/></g><g id="Artwork_12-2"><path d="M126.6 14h6.8v3.3h-6.8zM126.6 22.6h6.8v3.3h-6.8z" class="st6"/><path d="M127.4 22.9c0 .7.6 1.3 1.3 1.3h2.6c.7 0 1.3-.6 1.3-1.3v-.4h-5.2zM132.6 17c0-.7-.6-1.3-1.3-1.3h-2.6c-.7 0-1.3.6-1.3 1.3v.4h5.2z" class="st3"/><path d="M127.4 17.4h5.2v5.2h-5.2z" class="st0"/><path d="M127.4 17.4h5.2v5.2h-5.2z" class="st8"/><path d="M127.4 17.4h5.2v5.2h-5.2z"/></g><g id="Artwork_12-3"><path d="M109.8 14h6.8v3.3h-6.8zM109.8 22.6h6.8v3.3h-6.8z" class="st6"/><path d="M110.6 22.9c0 .7.6 1.3 1.3 1.3h2.6c.7 0 1.3-.6 1.3-1.3v-.4h-5.2zM115.8 17c0-.7-.6-1.3-1.3-1.3h-2.6c-.7 0-1.3.6-1.3 1.3v.4h5.2z" class="st3"/><path d="M110.6 17.4h5.2v5.2h-5.2z" class="st0"/><path d="M110.6 17.4h5.2v5.2h-5.2z" class="st8"/><path d="M110.6 17.4h5.2v5.2h-5.2z"/></g><g id="Artwork_3-9"><path d="M78.9 25.2v3h-3v-3zM75.5 25.2v3h-3v-3z" class="st6"/><path d="M74.4 28h2.7c.7 0 1.3-.6 1.2-1.3 0-.7-.6-1.2-1.2-1.2h-2.7c-.7 0-1.3.6-1.3 1.3s.6 1.2 1.3 1.2" class="st4"/><path d="M74.7 25.4h1.9V28h-1.9z" class="st0"/><path d="M74.7 25.4h1.9V28h-1.9z" class="st8"/><path d="M74.7 25.4h1.9V28h-1.9z"/></g><g id="Artwork_3-10"><path d="M32.8 41.4v3h-3v-3zq0-.15 0 0M29.4 41.4v3h-3v-3zq0-.15 0 0" class="st6"/><path d="M28.3 44.2H31c.7 0 1.3-.6 1.2-1.3 0-.7-.6-1.2-1.2-1.2h-2.7c-.7 0-1.3.6-1.3 1.3 0 .6.6 1.2 1.3 1.2" class="st4"/><path d="M28.6 41.6h1.9v2.6h-1.9z" class="st0"/><path d="M28.6 41.6h1.9v2.6h-1.9z" class="st8"/><path d="M28.6 41.6h1.9v2.6h-1.9z"/></g><g id="Artwork_3-11"><path d="M32.8 45.4v3h-3v-3zM29.4 45.4v3h-3v-3z" class="st6"/><path d="M28.3 48.2H31c.7 0 1.3-.6 1.2-1.3 0-.7-.6-1.2-1.2-1.2h-2.7c-.7 0-1.3.6-1.3 1.3 0 .6.6 1.2 1.3 1.2" class="st4"/><path d="M28.6 45.6h1.9v2.6h-1.9z" class="st0"/><path d="M28.6 45.6h1.9v2.6h-1.9z" class="st8"/><path d="M28.6 45.6h1.9v2.6h-1.9z"/></g><g id="Artwork_3-12"><path d="M38.4 25.5v3h-3v-3zc0-.1 0 0 0 0M35 25.5v3h-3v-3zc0-.1 0 0 0 0" class="st6"/><path d="M33.9 28.3h2.7c.7 0 1.3-.6 1.2-1.3 0-.7-.6-1.2-1.2-1.2h-2.7c-.7 0-1.3.6-1.3 1.3 0 .6.6 1.2 1.3 1.2" class="st4"/><path d="M34.2 25.7h1.9v2.6h-1.9z" class="st0"/><path d="M34.2 25.7h1.9v2.6h-1.9z" class="st8"/><path d="M34.2 25.7h1.9v2.6h-1.9z"/></g><g id="Artwork_3-13"><path d="M41.1 65.8v3h-3v-3zc-.1-.1 0 0 0 0M41.1 69.2v3h-3v-3zc-.1-.1 0 0 0 0" class="st6"/><path d="M40.8 70.3v-2.7c0-.7-.6-1.3-1.3-1.3s-1.2.6-1.3 1.3v2.7c0 .7.6 1.3 1.3 1.3s1.3-.6 1.3-1.3" class="st4"/><path d="M38.2 68.1h2.6V70h-2.6z" class="st0"/><path d="M38.2 68.1h2.6V70h-2.6z" class="st8"/><path d="M38.2 68.1h2.6V70h-2.6z"/></g><g id="Artwork_3-14"><path d="M31.2 65.8v3h-3v-3zc0-.1 0 0 0 0M31.2 69.2v3h-3v-3zc0-.1 0 0 0 0" class="st6"/><path d="M31 70.3v-2.7c0-.7-.6-1.3-1.3-1.2-.7 0-1.2.6-1.2 1.2v2.7c0 .7.6 1.3 1.3 1.3S31 71 31 70.3" class="st4"/><path d="M28.4 68.1H31V70h-2.6z" class="st0"/><path d="M28.4 68.1H31V70h-2.6z" class="st8"/><path d="M28.4 68.1H31V70h-2.6z"/></g><g id="Artwork_3-15"><path d="M45.9 65.8v3h-3v-3zc0-.1 0 0 0 0M45.9 69.2v3h-3v-3zc0-.1 0 0 0 0" class="st6"/><path d="M45.6 70.3v-2.7c0-.7-.6-1.3-1.3-1.2-.7 0-1.2.6-1.2 1.2v2.7c0 .7.6 1.3 1.3 1.3.6 0 1.2-.6 1.2-1.3" class="st4"/><path d="M43.1 68.1h2.6V70h-2.6z" class="st0"/><path d="M43.1 68.1h2.6V70h-2.6z" class="st8"/><path d="M43.1 68.1h2.6V70h-2.6z"/></g><g id="Artwork_3-16"><path d="M52.4 64.2v3h-3v-3zM55.8 64.2v3h-3v-3z" class="st6"/><path d="M53.8 64.4h-2.7c-.7 0-1.3.6-1.2 1.3 0 .7.6 1.2 1.2 1.2h2.7c.7 0 1.3-.6 1.3-1.3 0-.6-.5-1.2-1.3-1.2" class="st4"/><path d="M51.6 64.4h1.9V67h-1.9z" class="st0"/><path d="M51.6 64.4h1.9V67h-1.9z" class="st8"/><path d="M51.6 64.4h1.9V67h-1.9z"/></g><g id="Artwork_3-17"><path d="M52.4 80.6v3h-3v-3zM55.8 80.6v3h-3v-3z" class="st6"/><path d="M53.8 80.8h-2.7c-.7 0-1.3.6-1.2 1.3 0 .7.6 1.2 1.2 1.2h2.7c.7 0 1.3-.6 1.3-1.3 0-.6-.5-1.2-1.3-1.2" class="st4"/><path d="M51.6 80.8h1.9v2.6h-1.9z" class="st0"/><path d="M51.6 80.8h1.9v2.6h-1.9z" class="st8"/><path d="M51.6 80.8h1.9v2.6h-1.9z"/></g><g id="Artwork_3-18"><path d="M36.3 70.8v-3.7c0-1-.9-1.8-1.9-1.8s-1.7.8-1.8 1.8v3.7c0 1 .8 1.9 1.8 1.9s1.9-.8 1.9-1.9" class="st4"/><path d="M32.7 67.7h3.7v2.7h-3.7z" class="st0"/><path d="M32.7 67.7h3.7v2.7h-3.7z" class="st8"/><path d="M32.7 67.7h3.7v2.7h-3.7z"/></g><path d="M62.1 128.1H67v6.6h-4.9zM48.7 3.3h7.8v6.6h-7.8z"/><path d="M22.5 86.9c-1.9 0-3.4 1.5-3.4 3.4s1.5 3.4 3.4 3.4 3.4-1.5 3.4-3.4-1.5-3.4-3.4-3.4" class="st1"/><path d="M22.5 88.7c-.9 0-1.6.7-1.6 1.6s.7 1.6 1.6 1.6 1.6-.7 1.6-1.6-.7-1.6-1.6-1.6" style="fill:#bcc6c6"/><path d="M65.4 56h1.3v3.2h-1.3zM63.4 56h1.3v3.2h-1.3zM61.3 56h1.3v3.2h-1.3zM59.2 56h1.3v3.2h-1.3zM57.2 56h1.3v3.2h-1.3zM55.1 56h1.3v3.2h-1.3zM53 56h1.3v3.2H53zM50.9 56h1.3v3.2h-1.3zM48.9 56h1.3v3.2h-1.3zM46.8 56h1.3v3.2h-1.3zM44.7 56H46v3.2h-1.3zM65.4 25.9h1.3v3.2h-1.3zM63.4 25.9h1.3v3.2h-1.3zM61.3 25.9h1.3v3.2h-1.3zM59.2 25.9h1.3v3.2h-1.3zM57.2 25.9h1.3v3.2h-1.3zM55.1 25.9h1.3v3.2h-1.3zM53 25.9h1.3v3.2H53zM50.9 25.9h1.3v3.2h-1.3zM48.9 25.9h1.3v3.2h-1.3zM46.8 25.9h1.3v3.2h-1.3zM44.7 25.9H46v3.2h-1.3zM39.1 52.3h3.2v1.3h-3.2zM39.1 50.2h3.2v1.3h-3.2zM39.1 48.1h3.2v1.3h-3.2zM39.1 46.1h3.2v1.3h-3.2zM39.1 44h3.2v1.3h-3.2zM39.1 41.9h3.2v1.3h-3.2zM39.1 39.8h3.2v1.3h-3.2zM39.1 37.8h3.2v1.3h-3.2zM39.1 35.7h3.2V37h-3.2zM39.1 33.6h3.2v1.3h-3.2zM39.1 31.6h3.2v1.3h-3.2zM69.1 52.3h3.2v1.3h-3.2zM69.1 50.2h3.2v1.3h-3.2zM69.1 48.1h3.2v1.3h-3.2zM69.1 46.1h3.2v1.3h-3.2zM69.1 44h3.2v1.3h-3.2zM69.1 41.9h3.2v1.3h-3.2zM69.1 39.8h3.2v1.3h-3.2zM69.1 37.8h3.2v1.3h-3.2zM69.1 35.7h3.2V37h-3.2zM69.1 33.6h3.2v1.3h-3.2zM69.1 31.6h3.2v1.3h-3.2z" class="st4"/></svg>