<svg xmlns="http://www.w3.org/2000/svg" width="2636.681" height="764pt" viewBox="0 0 1977.511 764"><path d="m461.71 0-204.6.3c-189.4.2-205 .4-210.1 1.9-22.9 7.1-39.3 24.1-45 46.4-2 7.6-2 12.5-2 329.3 0 358.1-.6 328.4 7.1 344.1 7.5 15.1 20.8 26.3 38.4 32.2l7 2.3 863.8.3 863.7.2v7h5.5c3 0 5.5-.5 5.5-1 0-.6-.9-1-2-1s-2-.4-2-.9-.3-1.6-.6-2.5c-.5-1.3 6.1-1.5 58.3-1.9 52.6-.3 59.4-.5 64.8-2.1 20.1-5.9 37.1-22 43.8-41.6l2.2-6.5.5-99 .5-99 10.5-.1 10.5-.2V241.8l-10.5-.2-10.5-.1-.5-97.5-.5-97.5-2.4-6.4c-6.7-18-20.7-31.2-40.1-37.7-5.3-1.8-23.9-1.9-631.2-2.2L656.11 0h-97.3c-104.257.187-88.61.237-97.1 0m1449.4 8.6c19.1 5.6 34.5 22.2 37.8 40.8.8 4.2 1.1 103.7 1.1 328.1 0 315.5 0 322.3-1.9 329.8-2.3 8.9-4.4 13.3-10 20.7-7.3 9.8-18.7 17.3-30.8 20.4-5.2 1.4-14.4 1.6-63.4 1.5-31.6 0-56.6-.4-55.6-.8 2.9-1.1 2.5-2.3-1.3-3.7l-3.5-1.2 3.8-.1c5.9-.1 4.3-2.1-1.8-2.1-5 0-7.4 1.4-4.2 2.5.6.2 2.6 1 4.2 1.6l3 1.1-3 1.4c-2.5 1.1-149.5 1.3-866.2 1.4-622.6 0-864.7-.3-868.5-1.1-19.1-3.9-35.8-19.6-42.1-39.4l-2.2-7v-648l2.2-7c6-18.8 20.7-33.4 38.8-38.6 5.7-1.7 58.5-1.8 932.1-1.8 844.9-.1 926.5 0 931.5 1.5m63.9 252.4v17h-19v-16.3c0-9 .3-16.7.7-17 .3-.4 4.6-.7 9.5-.7h8.8zm0 114v94h-19v-6.9c0-6.7 0-6.8 2.4-6.4 3 .6 7.6-3.5 7.6-6.8 0-3.2-3.8-6.9-7.2-6.9h-2.8V308.3h3c4.1 0 7-2.8 7-7s-3-7.3-7-7.3h-3v-13h19zm-14.2-73.8c-.3.7-1.1 1.3-1.8 1.3s-1.5-.6-1.7-1.3c-.3-.7.4-1.2 1.7-1.2s2 .5 1.8 1.2m-.8 147.8c0 .5-.4 1-1 1-.5 0-1-.5-1-1 0-.6.5-1 1-1 .6 0 1 .4 1 1m15 40v17.1l-9.2-.3-9.3-.3-.3-16.8-.2-16.7h19zm-190 270.5c0 1.8-.5 2.5-2 2.5-2 0-2.8-2.8-1.3-4.3 1.5-1.6 3.3-.6 3.3 1.8" style="fill:#000;stroke:none;stroke-width:.1"/><path d="M53.91 31.6c-15.4 4.7-24.8 18.5-23.7 34.5.9 11.9 7.5 21.6 18.2 26.9 8.1 4 15.4 4.8 23.1 2.6 13.2-3.9 21.6-13.1 24.4-26.7 2.1-10.1-2-22-10.2-29.6-5.3-4.9-7.6-6.2-14.2-7.9-6.3-1.7-11.7-1.7-17.6.2m22.1 4.2c11.1 5.8 17.4 15.7 17.4 27.7 0 32.1-43.8 42.1-57.5 13.1-8.1-17.1.7-36.7 19.1-42.7 4.9-1.6 16.2-.5 21 1.9M1883.91 31.6c-15.4 4.7-24.8 18.5-23.7 34.5.9 11.9 7.5 21.6 18.2 26.9 8.1 4 15.4 4.8 23.1 2.6 13.2-3.9 21.6-13.1 24.4-26.7 2.1-10.1-2-22-10.2-29.6-5.3-4.9-7.6-6.2-14.2-7.9-6.3-1.7-11.7-1.7-17.6.2m21.6 4.3c11.7 5.5 17.9 15 17.9 27.6 0 32.2-43.8 42.1-57.5 13.1-12.1-25.7 14.3-52.8 39.6-40.7M1518.41 39.5c-.4 1-2 1.5-4.5 1.5h-3.9v30h3.9c3.3 0 4 .4 4.4 2.2l.4 2.3.2-2.2c.1-2.1.6-2.2 9.9-2.5l9.7-.3.3-14.8.3-14.7h-5c-3.9 0-5.1-.4-5.4-1.8-.4-1.6-.5-1.6-.6 0-.1 2.2-1.9 2.3-4.5.3-2.5-1.9-4.5-1.9-5.2 0m3.9 1.2c-.7.2-1.9.2-2.5 0-.7-.3-.2-.5 1.2-.5s1.9.2 1.3.5m5 4.5c1.1.5 1.7.5 1.7-.2 0-.5 1.6-1 3.5-1h3.5v24h-8.5c-6.1 0-8.5-.4-8.6-1.3q0-1.5-.6 0c-.2.7-1.8 1.3-3.4 1.3h-2.9V44.1l6.8.1c3.7 0 7.5.5 8.5 1" style="fill:#000;stroke:none;stroke-width:.1"/><path d="M1521.51 47.9c-2.3.5-3 1.2-3 3 0 1.4.7 2.6 1.5 2.9 1.2.4 1.3.2.3-.9-.7-.7-1.3-1.9-1.3-2.6 0-1.7 2.6-1.7 3.4-.1.5 1 .7 1 1.2 0 .8-1.6 4.4-1.6 4.4.1 0 .7-.6 1.9-1.2 2.6-1.1 1.1-1 1.3.2.9 2-.6 2.6-4.8.8-5.9-1.4-1-1.9-1-6.3 0M1519.31 55.7c-.8.2-1.3 2.2-1.3 4.4V64h5.5c3 0 5.5-.5 5.5-1 0-.6-.9-1-1.9-1-1.2 0-2.1-1-2.6-2.7-.9-3.7-2.5-4.8-5.2-3.6m3.7 3.8c0 1.8-.5 2.5-2 2.5-2 0-2.8-2.8-1.3-4.3 1.5-1.6 3.3-.6 3.3 1.8M1515.01 88.8l-4.5.7v29l4.2.3c3.4.3 4.3.7 4.6 2.5l.4 2.2.2-2.2c.1-2.1.6-2.2 9.9-2.5l9.7-.3.3-13.9c.1-7.7-.1-14.3-.5-14.7-1.1-1.1-18.9-1.8-24.3-1.1m22 15.2v12h-8.5c-6.1 0-8.5-.4-8.6-1.3q0-1.5-.6 0c-.2.7-1.8 1.3-3.4 1.3h-2.9V92h24z" style="fill:#000;stroke:none;stroke-width:.1"/><path d="M1522.51 95.9c-2.3.5-3 1.2-3 3 0 1.4.7 2.6 1.5 2.9 1.2.4 1.3.2.3-.9-.7-.7-1.3-1.9-1.3-2.6 0-1.7 2.6-1.7 3.4-.1.5 1 .7 1 1.2 0 .8-1.6 4.4-1.6 4.4.1 0 .7-.6 1.9-1.2 2.6-1.1 1.1-1 1.3.2.9 2-.6 2.6-4.8.8-5.9-1.4-1-1.9-1-6.3 0M1520.31 103.7c-.8.2-1.3 2.2-1.3 4.4v3.9h5.5c3 0 5.5-.5 5.5-1 0-.6-.9-1-1.9-1-1.2 0-2.1-1-2.6-2.7-.9-3.7-2.5-4.8-5.2-3.6m3.7 3.8c0 1.8-.5 2.5-2 2.5-2 0-2.8-2.8-1.3-4.3 1.5-1.6 3.3-.6 3.3 1.8M145.21 120.3c-1.7 1.7-2.2 3.6-2.2 7.3v4.9h-7.6c-8 0-8.8.4-8.8 4.5 0 2.4.2 2.5 8.2 2.8 7.2.2 8.2.5 8.2 2.1 0 1.5-1.1 1.9-6.4 2.5-3.5.3-7.1.4-8 0-1.6-.6-1.7-.4-1.9 4.3l-.1 2.8 8.2.3c7.3.2 8.2.5 8.2 2.2s-.9 2-8.2 2.2l-8.2.3v3.5l-.1 3.5 8.3.3c7.3.2 8.2.5 8.2 2.2s-.9 2-8.2 2.2l-8.1.3-.2 2.8c-.1 3.3.7 4 4.9 4.2 11.6.4 11.6.4 11.6 2.5 0 1.7-.8 1.9-8.2 2.2l-8.2.3v6l8.2.3c7.7.3 8.2.4 8.2 2.5s-.4 2.2-7.6 2.2c-8 0-8.8.4-8.8 4.5 0 2.4.2 2.5 8.2 2.8 7.2.2 8.2.5 8.2 2.1 0 1.5-1.1 1.9-6.4 2.5-3.5.3-7.1.4-8 0-1.6-.6-1.7-.4-1.9 4.3l-.1 2.8 8.2.3c7.3.2 8.2.5 8.2 2.2s-.9 2-8.2 2.2l-8.2.3v7l8.2.3c7.3.2 8.2.5 8.2 2.2s-.9 2-8.2 2.2l-8.2.3.1 2.7c.2 4.8.3 5 1.9 4.4.9-.4 4.5-.3 8 0 5.3.6 6.4 1 6.4 2.5 0 1.6-1 1.9-8.2 2.1-8 .3-8.2.4-8.2 2.8 0 4.1.8 4.5 8.8 4.5 7.2 0 7.6.1 7.6 2.2s-.5 2.2-8.2 2.5l-8.2.3v6l8.2.3c7.4.3 8.2.5 8.2 2.2 0 2.1 0 2.1-11.6 2.5-4.2.2-5 .9-4.9 4.2l.2 2.8 8.1.3c7.3.2 8.2.5 8.2 2.2s-.9 2-8.2 2.2l-8.3.3.1 3.5v3.5l8.2.3c7.3.2 8.2.5 8.2 2.2s-.9 2-8.2 2.2l-8.2.3v3.5l-.1 3.5 8.3.3c7.3.2 8.2.5 8.2 2.2s-.9 2-8.2 2.2l-8.1.3-.2 2.8c-.1 3.3.7 4 4.9 4.2 11.6.4 11.6.4 11.6 2.5 0 1.7-.8 1.9-8.2 2.2l-8.2.3v6l8.2.3c7.4.3 8.2.5 8.2 2.2 0 2.1 0 2.1-11.6 2.5-4.2.2-5 .9-4.9 4.2l.2 2.8 8.1.3c7.3.2 8.2.5 8.2 2.2s-.9 2-8.2 2.2l-8.3.3.1 3.5v3.5l8.2.3c7.3.2 8.2.5 8.2 2.2s-.9 2-8.2 2.2l-8.2.3v3.5l-.1 3.5 8.3.3c7.3.2 8.2.5 8.2 2.2s-.9 2-8.2 2.2l-8.1.3-.2 2.8c-.1 3.3.7 4 4.9 4.2 11.6.4 11.6.4 11.6 2.5 0 1.7-.8 1.9-8.2 2.2l-8.2.3v6l8.2.3c7.7.3 8.2.4 8.2 2.5s-.4 2.2-7.6 2.2c-8 0-8.8.4-8.8 4.5 0 2.4.2 2.5 8.2 2.8 7.2.2 8.2.5 8.2 2.1 0 1.5-1.1 1.9-6.4 2.5-3.5.3-7.1.4-8 0-1.6-.6-1.7-.4-1.9 4.3l-.1 2.8 8.2.3c7.3.2 8.2.5 8.2 2.2s-.9 2-8.2 2.2l-8.2.3v7l8.2.3c7.3.2 8.2.5 8.2 2.2s-.9 2-8.2 2.2l-8.2.3.1 2.7c.2 4.8.3 5 1.9 4.4.9-.4 4.5-.3 8 0 5.3.6 6.4 1 6.4 2.5 0 1.6-1 1.9-8.2 2.1-8 .3-8.2.4-8.2 2.8 0 4.1.8 4.5 8.8 4.5 7.2 0 7.6.1 7.6 2.2s-.5 2.2-8.2 2.5l-8.2.3v6l8.2.3c7.4.3 8.2.5 8.2 2.2 0 2.1 0 2.1-11.6 2.5-4.2.2-5 .9-4.9 4.2l.2 2.8 8.1.3c7.3.2 8.2.5 8.2 2.2s-.9 2-8.2 2.2l-8.3.3.1 3.5v3.5l8.2.3c7.3.2 8.2.5 8.2 2.2s-.9 2-8.2 2.2l-8.2.3v3.5l-.1 3.5 8.3.3c7.3.2 8.2.5 8.2 2.2s-.9 2-8.2 2.2c-8 .3-8.2.4-8.2 2.8 0 4.1.8 4.5 8.8 4.5 7.2 0 7.6.1 7.6 2.2s-.5 2.2-8.2 2.5l-8.2.3v6l8.2.3c7.4.3 8.2.5 8.2 2.2 0 2.1 0 2.1-11.6 2.5-4.2.2-5 .9-4.9 4.2l.2 2.8 8.1.3c7.3.2 8.2.5 8.2 2.2s-.9 2-8.2 2.2l-8.3.3.1 3.5v3.5l8.2.3c7.3.2 8.2.5 8.2 2.2s-.9 2-8.2 2.2l-8.2.3v3.5l-.1 3.5 8.3.3c7.3.2 8.2.5 8.2 2.2s-.9 2-8.2 2.2l-8.1.3-.2 2.8c-.1 3.3.7 4 4.9 4.2 11.6.4 11.6.4 11.6 2.5 0 1.7-.8 1.9-8.2 2.2l-8.2.3v6l8.2.3c7.7.3 8.2.4 8.2 2.5s-.4 2.2-7.6 2.2c-8 0-8.8.4-8.8 4.5 0 2.4.2 2.5 8.2 2.8 7.2.2 8.2.5 8.2 2.1 0 1.5-1.1 1.9-6.4 2.5-3.5.3-7.1.4-8 0-1.6-.6-1.7-.4-1.9 4.3l-.1 2.8 8.2.3c7.3.2 8.2.5 8.2 2.2s-.9 2-8.2 2.2l-8.2.3v3.5l-.1 3.5 8.3.3c7.3.2 8.2.5 8.2 2.2s-.9 2-8.2 2.2l-8.1.3-.2 2.8c-.1 3.3.7 4 4.9 4.2 11.6.4 11.6.4 11.6 2.5 0 1.7-.8 1.9-8.2 2.2l-8.2.3v6l8.2.3 8.2.3v5.3c0 4.2.5 5.7 2.3 7.4 2.3 2.1 3.1 2.2 26.8 2.2 24.4 0 24.6 0 26.7-2.3 1.7-1.8 2.2-3.6 2.2-7.5V624h16v-7h-8c-7.3 0-8-.2-8-2 0-2.1.4-2.2 12-2.5 3.3-.1 3.5-.3 3.8-3.8l.3-3.7h-8c-7.4 0-8.1-.2-8.1-2s.7-2 8-2h8v-8h-8c-7.3 0-8-.2-8-2s.7-2 8.1-2h8l-.3-3.7c-.3-3.5-.5-3.7-3.8-3.8-11.6-.3-12-.4-12-2.5 0-1.8.7-2 8.1-2h8l-.3-3.7c-.3-3.5-.5-3.7-3.8-3.8-11.6-.3-12-.4-12-2.5 0-1.8.7-2 8-2h8v-7h-8c-7.3 0-8-.2-8-2 0-2.1.4-2.2 12-2.5 3.3-.1 3.5-.3 3.8-3.8l.3-3.7h-8c-7.4 0-8.1-.2-8.1-2s.7-2 8-2h8v-8h-8c-7.3 0-8-.2-8-2s.7-2 8-2h8v-8h-8c-7.3 0-8-.2-8-2s.7-2 8.1-2h8l-.3-3.7c-.3-3.5-.5-3.7-3.8-3.8-11.6-.3-12-.4-12-2.5 0-1.8.7-2 8-2h8v-7h-8c-7.3 0-8-.2-8-2 0-2.1.4-2.2 12-2.5 3.3-.1 3.5-.3 3.8-3.8l.3-3.7h-8c-7.4 0-8.1-.2-8.1-2s.7-2 8-2h8v-8h-8c-7.3 0-8-.2-8-2s.7-2 8-2h8v-8h-8c-7.3 0-8-.2-8-2s.7-2 8.1-2h8l-.3-3.7c-.3-3.5-.5-3.7-3.8-3.8-11.6-.3-12-.4-12-2.5 0-1.8.7-2 8-2h8v-7h-8c-7.3 0-8-.2-8-2 0-2.1.4-2.2 12-2.5 3.3-.1 3.5-.3 3.8-3.8l.3-3.7h-8c-7.4 0-8.1-.2-8.1-2 0-2.1.4-2.2 12-2.5 3.3-.1 3.5-.3 3.8-3.8l.3-3.7h-8c-7.4 0-8.1-.2-8.1-2s.7-2 8-2h8v-8h-8c-7.3 0-8-.2-8-2s.7-2 8.1-2h8l-.3-3.7c-.3-3.5-.5-3.7-3.8-3.8-11.6-.3-12-.4-12-2.5 0-1.8.7-2 8.1-2h8l-.3-3.7c-.3-3.5-.5-3.7-3.8-3.8-11.6-.3-12-.4-12-2.5 0-1.8.7-2 8-2h8v-7h-8c-7.3 0-8-.2-8-2 0-2.1.4-2.2 12-2.5 3.3-.1 3.5-.3 3.8-3.8l.3-3.7h-8c-7.4 0-8.1-.2-8.1-2s.7-2 8-2h8v-8h-8c-7.3 0-8-.2-8-2s.7-2 8-2h8v-8h-8c-7.3 0-8-.2-8-2s.7-2 8.1-2h8l-.3-3.7c-.3-3.5-.5-3.7-3.8-3.8-11.6-.3-12-.4-12-2.5 0-1.8.7-2 8-2h8v-7h-8c-7.3 0-8-.2-8-2 0-2.1.4-2.2 12-2.5 3.3-.1 3.5-.3 3.8-3.8l.3-3.7h-8c-7.4 0-8.1-.2-8.1-2s.7-2 8-2h8v-8h-8c-7.3 0-8-.2-8-2s.7-2 8-2h8v-8h-8c-7.3 0-8-.2-8-2s.7-2 8.1-2h8l-.3-3.7c-.3-3.5-.5-3.7-3.8-3.8-11.6-.3-12-.4-12-2.5 0-1.8.7-2 8-2h8v-7h-8c-7.3 0-8-.2-8-2 0-2.1.4-2.2 12-2.5 3.3-.1 3.5-.3 3.8-3.8l.3-3.7h-8c-7.4 0-8.1-.2-8.1-2 0-2.1.4-2.2 12-2.5 3.3-.1 3.5-.3 3.8-3.8l.3-3.7h-8c-7.4 0-8.1-.2-8.1-2s.7-2 8-2h8v-8h-8c-7.3 0-8-.2-8-2s.7-2 8.1-2h8l-.3-3.7c-.3-3.5-.5-3.7-3.8-3.8-11.6-.3-12-.4-12-2.5 0-1.8.7-2 8.1-2h8l-.3-3.7c-.3-3.5-.5-3.7-3.8-3.8-11.6-.3-12-.4-12-2.5 0-1.8.7-2 8-2h8v-7h-8c-7.3 0-8-.2-8-2 0-2.1.4-2.2 12-2.5 3.3-.1 3.5-.3 3.8-3.8l.3-3.7h-8c-7.4 0-8.1-.2-8.1-2s.7-2 8-2h8v-8h-8c-7.3 0-8-.2-8-2s.7-2 8.1-2h8l-.3-3.7c-.3-3.5-.5-3.7-3.8-3.8-11.6-.3-12-.4-12-2.5 0-1.8.7-2 8.1-2h8l-.3-3.7c-.3-3.5-.5-3.7-3.8-3.8-1.9 0-5.4-.2-7.7-.3l-4.3-.2v-4.8c0-3.8-.5-5.3-2.3-7-2.3-2.1-3.1-2.2-26.8-2.2-24.4 0-24.6 0-26.7 2.3m50.8 258.2V634h-48V123h48zm-62.7-241.8c-.7.2-2.1.2-3 0-1-.3-.4-.5 1.2-.5 1.7 0 2.4.2 1.8.5m80 0c-.7.2-1.9.2-2.5 0-.7-.3-.2-.5 1.2-.5s1.9.2 1.3.5m-79.3 11.3c0 .5-1.2 1-2.6 1s-2.3-.4-1.9-1c.3-.6 1.5-1 2.6-1 1 0 1.9.4 1.9 1m80 0c0 .5-.9 1-2 1s-2-.5-2-1c0-.6.9-1 2-1s2 .4 2 1m-80 12c0 .5-.9 1-1.9 1-1.1 0-2.3-.5-2.6-1-.4-.6.5-1 1.9-1s2.6.4 2.6 1m80 0c0 .5-.9 1-2 1s-2-.5-2-1c0-.6.9-1 2-1s2 .4 2 1m-80 12c0 .5-.9 1-1.9 1-1.1 0-2.3-.5-2.6-1-.4-.6.5-1 1.9-1s2.6.4 2.6 1m80 0c0 .5-.9 1-2 1s-2-.5-2-1c0-.6.9-1 2-1s2 .4 2 1m-80.7 11.7c-.7.2-2.1.2-3 0-1-.3-.4-.5 1.2-.5 1.7 0 2.4.2 1.8.5m80 0c-.7.2-1.9.2-2.5 0-.7-.3-.2-.5 1.2-.5s1.9.2 1.3.5m-80 12c-.7.2-2.1.2-3 0-1-.3-.4-.5 1.2-.5 1.7 0 2.4.2 1.8.5m80 0c-.7.2-1.9.2-2.5 0-.7-.3-.2-.5 1.2-.5s1.9.2 1.3.5m-79.3 11.3c0 .5-1.2 1-2.6 1s-2.3-.4-1.9-1c.3-.6 1.5-1 2.6-1 1 0 1.9.4 1.9 1m80 0c0 .5-.9 1-2 1s-2-.5-2-1c0-.6.9-1 2-1s2 .4 2 1m-80 12c0 .5-1.1 1-2.5 1s-2.5-.5-2.5-1c0-.6 1.1-1 2.5-1s2.5.4 2.5 1m80 0c0 .5-.9 1-2 1s-2-.5-2-1c0-.6.9-1 2-1s2 .4 2 1m-80 12c0 .5-.9 1-1.9 1-1.1 0-2.3-.5-2.6-1-.4-.6.5-1 1.9-1s2.6.4 2.6 1m80 0c0 .5-.9 1-2 1s-2-.5-2-1c0-.6.9-1 2-1s2 .4 2 1m-80.7 11.7c-.7.2-2.1.2-3 0-1-.3-.4-.5 1.2-.5 1.7 0 2.4.2 1.8.5m80 0c-.7.2-1.9.2-2.5 0-.7-.3-.2-.5 1.2-.5s1.9.2 1.3.5m-80 12c-.7.2-2.1.2-3 0-1-.3-.4-.5 1.2-.5 1.7 0 2.4.2 1.8.5m80 0c-.7.2-1.9.2-2.5 0-.7-.3-.2-.5 1.2-.5s1.9.2 1.3.5m-79.3 11.3c0 .5-1.2 1-2.6 1s-2.3-.4-1.9-1c.3-.6 1.5-1 2.6-1 1 0 1.9.4 1.9 1m80 0c0 .5-.9 1-2 1s-2-.5-2-1c0-.6.9-1 2-1s2 .4 2 1m-80 12c0 .5-1.2 1-2.6 1s-2.3-.4-1.9-1c.3-.6 1.5-1 2.6-1 1 0 1.9.4 1.9 1m80 0c0 .5-.9 1-2 1s-2-.5-2-1c0-.6.9-1 2-1s2 .4 2 1m-80 12c0 .5-.9 1-1.9 1-1.1 0-2.3-.5-2.6-1-.4-.6.5-1 1.9-1s2.6.4 2.6 1m80 0c0 .5-.9 1-2 1s-2-.5-2-1c0-.6.9-1 2-1s2 .4 2 1m-80.7 11.7c-.7.2-2.1.2-3 0-1-.3-.4-.5 1.2-.5 1.7 0 2.4.2 1.8.5m80 0c-.7.2-1.9.2-2.5 0-.7-.3-.2-.5 1.2-.5s1.9.2 1.3.5m-80 12c-.7.2-2.1.2-3 0-1-.3-.4-.5 1.2-.5 1.7 0 2.4.2 1.8.5m80 0c-.7.2-1.9.2-2.5 0-.7-.3-.2-.5 1.2-.5s1.9.2 1.3.5m-80 12c-.7.2-2.1.2-3 0-1-.3-.4-.5 1.2-.5 1.7 0 2.4.2 1.8.5m80 0c-.7.2-1.9.2-2.5 0-.7-.3-.2-.5 1.2-.5s1.9.2 1.3.5m-79.3 11.3c0 .5-1.2 1-2.6 1s-2.3-.4-1.9-1c.3-.6 1.5-1 2.6-1 1 0 1.9.4 1.9 1m80 0c0 .5-.9 1-2 1s-2-.5-2-1c0-.6.9-1 2-1s2 .4 2 1m-80 12c0 .5-.9 1-1.9 1-1.1 0-2.3-.5-2.6-1-.4-.6.5-1 1.9-1s2.6.4 2.6 1m80 0c0 .5-.9 1-2 1s-2-.5-2-1c0-.6.9-1 2-1s2 .4 2 1m-80 12c0 .5-.9 1-1.9 1-1.1 0-2.3-.5-2.6-1-.4-.6.5-1 1.9-1s2.6.4 2.6 1m80 0c0 .5-.9 1-2 1s-2-.5-2-1c0-.6.9-1 2-1s2 .4 2 1m-80.7 11.7c-.7.2-2.1.2-3 0-1-.3-.4-.5 1.2-.5 1.7 0 2.4.2 1.8.5m80 0c-.7.2-1.9.2-2.5 0-.7-.3-.2-.5 1.2-.5s1.9.2 1.3.5m-80 12c-.7.2-2.1.2-3 0-1-.3-.4-.5 1.2-.5 1.7 0 2.4.2 1.8.5m80 0c-.7.2-1.9.2-2.5 0-.7-.3-.2-.5 1.2-.5s1.9.2 1.3.5m-79.3 11.3c0 .5-1.2 1-2.6 1s-2.3-.4-1.9-1c.3-.6 1.5-1 2.6-1 1 0 1.9.4 1.9 1m80 0c0 .5-.9 1-2 1s-2-.5-2-1c0-.6.9-1 2-1s2 .4 2 1m-80 12c0 .5-1.1 1-2.5 1s-2.5-.5-2.5-1c0-.6 1.1-1 2.5-1s2.5.4 2.5 1m80 0c0 .5-.9 1-2 1s-2-.5-2-1c0-.6.9-1 2-1s2 .4 2 1m-80 12c0 .5-.9 1-1.9 1-1.1 0-2.3-.5-2.6-1-.4-.6.5-1 1.9-1s2.6.4 2.6 1m80 0c0 .5-.9 1-2 1s-2-.5-2-1c0-.6.9-1 2-1s2 .4 2 1m-80.7 11.7c-.7.2-2.1.2-3 0-1-.3-.4-.5 1.2-.5 1.7 0 2.4.2 1.8.5m80 0c-.7.2-1.9.2-2.5 0-.7-.3-.2-.5 1.2-.5s1.9.2 1.3.5m-80 12c-.7.2-2.1.2-3 0-1-.3-.4-.5 1.2-.5 1.7 0 2.4.2 1.8.5m80 0c-.7.2-1.9.2-2.5 0-.7-.3-.2-.5 1.2-.5s1.9.2 1.3.5m-79.3 11.3c0 .5-1.2 1-2.6 1s-2.3-.4-1.9-1c.3-.6 1.5-1 2.6-1 1 0 1.9.4 1.9 1m80 0c0 .5-.9 1-2 1s-2-.5-2-1c0-.6.9-1 2-1s2 .4 2 1m-80 12c0 .5-1.2 1-2.6 1s-2.3-.4-1.9-1c.3-.6 1.5-1 2.6-1 1 0 1.9.4 1.9 1m80 0c0 .5-.9 1-2 1s-2-.5-2-1c0-.6.9-1 2-1s2 .4 2 1m-80 12c0 .5-.9 1-1.9 1-1.1 0-2.3-.5-2.6-1-.4-.6.5-1 1.9-1s2.6.4 2.6 1m80 0c0 .5-.9 1-2 1s-2-.5-2-1c0-.6.9-1 2-1s2 .4 2 1m-80.7 11.7c-.7.2-2.1.2-3 0-1-.3-.4-.5 1.2-.5 1.7 0 2.4.2 1.8.5m80 0c-.7.2-1.9.2-2.5 0-.7-.3-.2-.5 1.2-.5s1.9.2 1.3.5m-80 12c-.7.2-2.1.2-3 0-1-.3-.4-.5 1.2-.5 1.7 0 2.4.2 1.8.5m80 0c-.7.2-1.9.2-2.5 0-.7-.3-.2-.5 1.2-.5s1.9.2 1.3.5m-80 12c-.7.2-2.1.2-3 0-1-.3-.4-.5 1.2-.5 1.7 0 2.4.2 1.8.5m80 0c-.7.2-1.9.2-2.5 0-.7-.3-.2-.5 1.2-.5s1.9.2 1.3.5m-79.3 11.3c0 .5-1.2 1-2.6 1s-2.3-.4-1.9-1c.3-.6 1.5-1 2.6-1 1 0 1.9.4 1.9 1m80 0c0 .5-.9 1-2 1s-2-.5-2-1c0-.6.9-1 2-1s2 .4 2 1m-80 12c0 .5-.9 1-1.9 1-1.1 0-2.3-.5-2.6-1-.4-.6.5-1 1.9-1s2.6.4 2.6 1m80 0c0 .5-.9 1-2 1s-2-.5-2-1c0-.6.9-1 2-1s2 .4 2 1m-80 12c0 .5-.9 1-1.9 1-1.1 0-2.3-.5-2.6-1-.4-.6.5-1 1.9-1s2.6.4 2.6 1m80 0c0 .5-.9 1-2 1s-2-.5-2-1c0-.6.9-1 2-1s2 .4 2 1m-80.7 11.7c-.7.2-2.1.2-3 0-1-.3-.4-.5 1.2-.5 1.7 0 2.4.2 1.8.5m80 0c-.7.2-1.9.2-2.5 0-.7-.3-.2-.5 1.2-.5s1.9.2 1.3.5m-80 12c-.7.2-2.1.2-3 0-1-.3-.4-.5 1.2-.5 1.7 0 2.4.2 1.8.5m80 0c-.7.2-1.9.2-2.5 0-.7-.3-.2-.5 1.2-.5s1.9.2 1.3.5m-79.3 11.3c0 .5-1.2 1-2.6 1s-2.3-.4-1.9-1c.3-.6 1.5-1 2.6-1 1 0 1.9.4 1.9 1m80 0c0 .5-.9 1-2 1s-2-.5-2-1c0-.6.9-1 2-1s2 .4 2 1m-80 12c0 .5-.9 1-1.9 1-1.1 0-2.3-.5-2.6-1-.4-.6.5-1 1.9-1s2.6.4 2.6 1m80 0c0 .5-.9 1-2 1s-2-.5-2-1c0-.6.9-1 2-1s2 .4 2 1m-80 12c0 .5-.9 1-1.9 1-1.1 0-2.3-.5-2.6-1-.4-.6.5-1 1.9-1s2.6.4 2.6 1m80 0c0 .5-.9 1-2 1s-2-.5-2-1c0-.6.9-1 2-1s2 .4 2 1m-80.7 11.7c-.7.2-2.1.2-3 0-1-.3-.4-.5 1.2-.5 1.7 0 2.4.2 1.8.5m80 0c-.7.2-1.9.2-2.5 0-.7-.3-.2-.5 1.2-.5s1.9.2 1.3.5" style="fill:#000;stroke:none;stroke-width:.1"/><path d="M149.51 131.2c-.3.7-.4 112.4-.3 248.3l.3 247 5.8.3c4.4.2 5.9 0 6.3-1.2.9-2.3 19.9-2.3 20.8-.1.4 1.1 2.1 1.5 6.1 1.5h5.5V130h-6c-4.7 0-6 .3-6 1.5s-1.8 1.5-9.9 1.5c-7.9 0-10-.3-10.5-1.5-.7-1.9-11.4-2.1-12.1-.3m4.5 247.3c0 163-.3 245.5-1 245.5s-1-82.5-1-245.5.3-245.5 1-245.5 1 82.5 1 245.5m38 0c0 163-.3 245.5-1 245.5s-1-82.5-1-245.5.3-245.5 1-245.5 1 82.5 1 245.5m-14.2-241.8c-3.2.2-8.4.2-11.5 0-3.2-.2-.6-.3 5.7-.3s8.9.1 5.8.3m7.1 129c0 72.4-.4 122.9-.9 121.6-1.4-3.5-4.2-4.3-15.4-4.3h-10.6v-9l2.5 1.6c2.5 1.6 5.5 1.3 5.5-.6 0-.5-.7-1-1.5-1-2.1 0-4.8-4.5-4-6.9.9-2.9 4.9-3.7 7.9-1.7 1.4.8 4 3.4 5.8 5.7 2.8 3.5 7.4 6.9 9.3 6.9.3 0 .5-4.1.5-9 0-7.3-.3-9-1.5-9s-1.5 1.4-1.5 6.7v6.7l-6.3-6.2c-5.2-5.2-6.8-6.2-9.6-6.2-1.9 0-4.3.7-5.3 1.7-1.7 1.6-1.8-1.9-1.8-109.5V142h27zm-4.1 124.5c.3 2.2-.2 2.9-2.2 3.4-3.3.8-3.4 3.4-.3 3.4 2.4 0 4.9-2.2 6-5 .3-.8.6 49 .6 110.7l.1 112.3h-27V386.9l11.3.3 11.2.3zm-3 230.5c-3.2.2-8.4.2-11.5 0-3.2-.2-.6-.3 5.7-.3s8.9.1 5.8.3" style="fill:#000;stroke:none;stroke-width:.1"/><path d="M166.31 236c-1.3.5-2.3 1.5-2.3 2.2-.4 16.4.1 45.3.9 46.1 1.8 1.8 9.9 2.1 12.6.3l2.5-1.6v-46l-2.6-1c-3.1-1.2-8.1-1.2-11.1 0m2.4 34.7c-.1 5.9-.3 1.3-.3-10.2 0-11.6.2-16.4.3-10.8.2 5.6.2 15.1 0 21m7 0c-.1 5.9-.3 1.3-.3-10.2 0-11.6.2-16.4.3-10.8.2 5.6.2 15.1 0 21M166.31 472c-1.3.5-2.3 1.5-2.3 2.2-.4 16.4.1 45.3.9 46.1 1.5 1.5 9.3 2 12.4.8l2.7-1.1v-22.7c0-12.6-.4-23.4-.9-24.2-1.1-1.7-9.7-2.4-12.8-1.1m2.4 34.7c-.1 5.9-.3 1.3-.3-10.2 0-11.6.2-16.4.3-10.8.2 5.6.2 15.1 0 21m7 0c-.1 5.9-.3 1.3-.3-10.2 0-11.6.2-16.4.3-10.8.2 5.6.2 15.1 0 21M1420.21 120.3c-1.7 1.7-2.2 3.6-2.2 7.3v4.9h-7.6c-8 0-8.8.4-8.8 4.5 0 2.4.2 2.5 8.2 2.8 7.2.2 8.2.5 8.2 2.1 0 1.5-1.1 1.9-6.4 2.5-3.5.3-7.1.4-8 0-1.6-.6-1.7-.4-1.9 4.3l-.1 2.8 8.2.3c7.3.2 8.2.5 8.2 2.2s-.9 2-8.2 2.2l-8.2.3v3.5l-.1 3.5 8.3.3c7.3.2 8.2.5 8.2 2.2s-.9 2-8.2 2.2l-8.1.3-.2 2.8c-.1 3.3.7 4 4.9 4.2 11.6.4 11.6.4 11.6 2.5 0 1.7-.8 1.9-8.2 2.2l-8.2.3v6l8.2.3c7.7.3 8.2.4 8.2 2.5s-.4 2.2-7.6 2.2c-8 0-8.8.4-8.8 4.5 0 2.4.2 2.5 8.2 2.8 7.2.2 8.2.5 8.2 2.1 0 1.5-1.1 1.9-6.4 2.5-3.5.3-7.1.4-8 0-1.6-.6-1.7-.4-1.9 4.3l-.1 2.8 8.2.3c7.3.2 8.2.5 8.2 2.2s-.9 2-8.2 2.2l-8.2.3v7l8.2.3c7.3.2 8.2.5 8.2 2.2s-.9 2-8.2 2.2l-8.2.3.1 2.7c.2 4.8.3 5 1.9 4.4.9-.4 4.5-.3 8 0 5.3.6 6.4 1 6.4 2.5 0 1.6-1 1.9-8.2 2.1-8 .3-8.2.4-8.2 2.8 0 4.1.8 4.5 8.8 4.5 7.2 0 7.6.1 7.6 2.2s-.5 2.2-8.2 2.5l-8.2.3v6l8.2.3c7.4.3 8.2.5 8.2 2.2 0 2.1 0 2.1-11.6 2.5-4.2.2-5 .9-4.9 4.2l.2 2.8 8.1.3c7.3.2 8.2.5 8.2 2.2s-.9 2-8.2 2.2l-8.3.3.1 3.5v3.5l8.2.3c7.3.2 8.2.5 8.2 2.2s-.9 2-8.2 2.2l-8.2.3v3.5l-.1 3.5 8.3.3c7.3.2 8.2.5 8.2 2.2s-.9 2-8.2 2.2l-8.1.3-.2 2.8c-.1 3.3.7 4 4.9 4.2 11.6.4 11.6.4 11.6 2.5 0 1.7-.8 1.9-8.2 2.2l-8.2.3v6l8.2.3c7.4.3 8.2.5 8.2 2.2 0 2.1 0 2.1-11.6 2.5-4.2.2-5 .9-4.9 4.2l.2 2.8 8.1.3c7.3.2 8.2.5 8.2 2.2s-.9 2-8.2 2.2l-8.3.3.1 3.5v3.5l8.2.3c7.3.2 8.2.5 8.2 2.2s-.9 2-8.2 2.2l-8.2.3v3.5l-.1 3.5 8.3.3c7.3.2 8.2.5 8.2 2.2s-.9 2-8.2 2.2l-8.1.3-.2 2.8c-.1 3.3.7 4 4.9 4.2 11.6.4 11.6.4 11.6 2.5 0 1.7-.8 1.9-8.2 2.2l-8.2.3v6l8.2.3c7.7.3 8.2.4 8.2 2.5s-.4 2.2-7.6 2.2c-8 0-8.8.4-8.8 4.5 0 2.4.2 2.5 8.2 2.8 7.2.2 8.2.5 8.2 2.1 0 1.5-1.1 1.9-6.4 2.5-3.5.3-7.1.4-8 0-1.6-.6-1.7-.4-1.9 4.3l-.1 2.8 8.2.3c7.3.2 8.2.5 8.2 2.2s-.9 2-8.2 2.2l-8.2.3v7l8.2.3c7.3.2 8.2.5 8.2 2.2s-.9 2-8.2 2.2l-8.2.3.1 2.7c.2 4.8.3 5 1.9 4.4.9-.4 4.5-.3 8 0 5.3.6 6.4 1 6.4 2.5 0 1.6-1 1.9-8.2 2.1-8 .3-8.2.4-8.2 2.8 0 4.1.8 4.5 8.8 4.5 7.2 0 7.6.1 7.6 2.2s-.5 2.2-8.2 2.5l-8.2.3v6l8.2.3c7.4.3 8.2.5 8.2 2.2 0 2.1 0 2.1-11.6 2.5-4.2.2-5 .9-4.9 4.2l.2 2.8 8.1.3c7.3.2 8.2.5 8.2 2.2s-.9 2-8.2 2.2l-8.3.3.1 3.5v3.5l8.2.3c7.3.2 8.2.5 8.2 2.2s-.9 2-8.2 2.2l-8.2.3v3.5l-.1 3.5 8.3.3c7.3.2 8.2.5 8.2 2.2s-.9 2-8.2 2.2c-8 .3-8.2.4-8.2 2.8 0 4.1.8 4.5 8.8 4.5 7.2 0 7.6.1 7.6 2.2s-.5 2.2-8.2 2.5l-8.2.3v6l8.2.3c7.4.3 8.2.5 8.2 2.2 0 2.1 0 2.1-11.6 2.5-4.2.2-5 .9-4.9 4.2l.2 2.8 8.1.3c7.3.2 8.2.5 8.2 2.2s-.9 2-8.2 2.2l-8.3.3.1 3.5v3.5l8.2.3c7.3.2 8.2.5 8.2 2.2s-.9 2-8.2 2.2l-8.2.3v3.5l-.1 3.5 8.3.3c7.3.2 8.2.5 8.2 2.2s-.9 2-8.2 2.2l-8.1.3-.2 2.8c-.1 3.3.7 4 4.9 4.2 11.6.4 11.6.4 11.6 2.5 0 1.7-.8 1.9-8.2 2.2l-8.2.3v6l8.2.3c7.7.3 8.2.4 8.2 2.5s-.4 2.2-7.6 2.2c-8 0-8.8.4-8.8 4.5 0 2.4.2 2.5 8.2 2.8 7.2.2 8.2.5 8.2 2.1 0 1.5-1.1 1.9-6.4 2.5-3.5.3-7.1.4-8 0-1.6-.6-1.7-.4-1.9 4.3l-.1 2.8 8.2.3c7.3.2 8.2.5 8.2 2.2s-.9 2-8.2 2.2l-8.2.3v3.5l-.1 3.5 8.3.3c7.3.2 8.2.5 8.2 2.2s-.9 2-8.2 2.2l-8.1.3-.2 2.8c-.1 3.3.7 4 4.9 4.2 11.6.4 11.6.4 11.6 2.5 0 1.7-.8 1.9-8.2 2.2l-8.2.3v6l8.2.3 8.2.3v5.3c0 4.2.5 5.7 2.3 7.4 2.3 2.1 3.1 2.2 26.8 2.2 24.4 0 24.6 0 26.7-2.3 1.7-1.8 2.2-3.6 2.2-7.5V624h16v-7h-8c-7.3 0-8-.2-8-2 0-2.1.4-2.2 12-2.5 3.3-.1 3.5-.3 3.8-3.8l.3-3.7h-8c-7.4 0-8.1-.2-8.1-2s.7-2 8-2h8v-8h-8c-7.3 0-8-.2-8-2s.7-2 8.1-2h8l-.3-3.7c-.3-3.5-.5-3.7-3.8-3.8-11.6-.3-12-.4-12-2.5 0-1.8.7-2 8.1-2h8l-.3-3.7c-.3-3.5-.5-3.7-3.8-3.8-11.6-.3-12-.4-12-2.5 0-1.8.7-2 8-2h8v-7h-8c-7.3 0-8-.2-8-2 0-2.1.4-2.2 12-2.5 3.3-.1 3.5-.3 3.8-3.8l.3-3.7h-8c-7.4 0-8.1-.2-8.1-2s.7-2 8-2h8v-8h-8c-7.3 0-8-.2-8-2s.7-2 8-2h8v-8h-8c-7.3 0-8-.2-8-2s.7-2 8.1-2h8l-.3-3.7c-.3-3.5-.5-3.7-3.8-3.8-11.6-.3-12-.4-12-2.5 0-1.8.7-2 8-2h8v-7h-8c-7.3 0-8-.2-8-2 0-2.1.4-2.2 12-2.5 3.3-.1 3.5-.3 3.8-3.8l.3-3.7h-8c-7.4 0-8.1-.2-8.1-2s.7-2 8-2h8v-8h-8c-7.3 0-8-.2-8-2s.7-2 8-2h8v-8h-8c-7.3 0-8-.2-8-2s.7-2 8.1-2h8l-.3-3.7c-.3-3.5-.5-3.7-3.8-3.8-11.6-.3-12-.4-12-2.5 0-1.8.7-2 8-2h8v-7h-8c-7.3 0-8-.2-8-2 0-2.1.4-2.2 12-2.5 3.3-.1 3.5-.3 3.8-3.8l.3-3.7h-8c-7.4 0-8.1-.2-8.1-2 0-2.1.4-2.2 12-2.5 3.3-.1 3.5-.3 3.8-3.8l.3-3.7h-8c-7.4 0-8.1-.2-8.1-2s.7-2 8-2h8v-8h-8c-7.3 0-8-.2-8-2s.7-2 8.1-2h8l-.3-3.7c-.3-3.5-.5-3.7-3.8-3.8-11.6-.3-12-.4-12-2.5 0-1.8.7-2 8.1-2h8l-.3-3.7c-.3-3.5-.5-3.7-3.8-3.8-11.6-.3-12-.4-12-2.5 0-1.8.7-2 8-2h8v-7h-8c-7.3 0-8-.2-8-2 0-2.1.4-2.2 12-2.5 3.3-.1 3.5-.3 3.8-3.8l.3-3.7h-8c-7.4 0-8.1-.2-8.1-2s.7-2 8-2h8v-8h-8c-7.3 0-8-.2-8-2s.7-2 8-2h8v-8h-8c-7.3 0-8-.2-8-2s.7-2 8.1-2h8l-.3-3.7c-.3-3.5-.5-3.7-3.8-3.8-11.6-.3-12-.4-12-2.5 0-1.8.7-2 8-2h8v-7h-8c-7.3 0-8-.2-8-2 0-2.1.4-2.2 12-2.5 3.3-.1 3.5-.3 3.8-3.8l.3-3.7h-8c-7.4 0-8.1-.2-8.1-2s.7-2 8-2h8v-8h-8c-7.3 0-8-.2-8-2s.7-2 8-2h8v-8h-8c-7.3 0-8-.2-8-2s.7-2 8.1-2h8l-.3-3.7c-.3-3.5-.5-3.7-3.8-3.8-11.6-.3-12-.4-12-2.5 0-1.8.7-2 8-2h8v-7h-8c-7.3 0-8-.2-8-2 0-2.1.4-2.2 12-2.5 3.3-.1 3.5-.3 3.8-3.8l.3-3.7h-8c-7.4 0-8.1-.2-8.1-2 0-2.1.4-2.2 12-2.5 3.3-.1 3.5-.3 3.8-3.8l.3-3.7h-8c-7.4 0-8.1-.2-8.1-2s.7-2 8-2h8v-8h-8c-7.3 0-8-.2-8-2s.7-2 8.1-2h8l-.3-3.7c-.3-3.5-.5-3.7-3.8-3.8-11.6-.3-12-.4-12-2.5 0-1.8.7-2 8.1-2h8l-.3-3.7c-.3-3.5-.5-3.7-3.8-3.8-11.6-.3-12-.4-12-2.5 0-1.8.7-2 8-2h8v-7h-8c-7.3 0-8-.2-8-2 0-2.1.4-2.2 12-2.5 3.3-.1 3.5-.3 3.8-3.8l.3-3.7h-8c-7.4 0-8.1-.2-8.1-2s.7-2 8-2h8v-8h-8c-7.3 0-8-.2-8-2s.7-2 8.1-2h8l-.3-3.7c-.3-3.5-.5-3.7-3.8-3.8-11.6-.3-12-.4-12-2.5 0-1.8.7-2 8.1-2h8l-.3-3.7c-.3-3.5-.5-3.7-3.8-3.8-1.9 0-5.4-.2-7.7-.3l-4.3-.2v-4.8c0-3.8-.5-5.3-2.3-7-2.3-2.1-3.1-2.2-26.8-2.2-24.4 0-24.6 0-26.7 2.3m50.8 258.2V634h-48V123h48zm-62.7-241.8c-.7.2-2.1.2-3 0-1-.3-.4-.5 1.2-.5 1.7 0 2.4.2 1.8.5m80 0c-.7.2-1.9.2-2.5 0-.7-.3-.2-.5 1.2-.5s1.9.2 1.3.5m-79.3 11.3c0 .5-1.2 1-2.6 1s-2.3-.4-1.9-1c.3-.6 1.5-1 2.6-1 1 0 1.9.4 1.9 1m80 0c0 .5-.9 1-2 1s-2-.5-2-1c0-.6.9-1 2-1s2 .4 2 1m-80 12c0 .5-.9 1-1.9 1-1.1 0-2.3-.5-2.6-1-.4-.6.5-1 1.9-1s2.6.4 2.6 1m80 0c0 .5-.9 1-2 1s-2-.5-2-1c0-.6.9-1 2-1s2 .4 2 1m-80 12c0 .5-.9 1-1.9 1-1.1 0-2.3-.5-2.6-1-.4-.6.5-1 1.9-1s2.6.4 2.6 1m80 0c0 .5-.9 1-2 1s-2-.5-2-1c0-.6.9-1 2-1s2 .4 2 1m-80.7 11.7c-.7.2-2.1.2-3 0-1-.3-.4-.5 1.2-.5 1.7 0 2.4.2 1.8.5m80 0c-.7.2-1.9.2-2.5 0-.7-.3-.2-.5 1.2-.5s1.9.2 1.3.5m-80 12c-.7.2-2.1.2-3 0-1-.3-.4-.5 1.2-.5 1.7 0 2.4.2 1.8.5m80 0c-.7.2-1.9.2-2.5 0-.7-.3-.2-.5 1.2-.5s1.9.2 1.3.5m-79.3 11.3c0 .5-1.2 1-2.6 1s-2.3-.4-1.9-1c.3-.6 1.5-1 2.6-1 1 0 1.9.4 1.9 1m80 0c0 .5-.9 1-2 1s-2-.5-2-1c0-.6.9-1 2-1s2 .4 2 1m-80 12c0 .5-1.1 1-2.5 1s-2.5-.5-2.5-1c0-.6 1.1-1 2.5-1s2.5.4 2.5 1m80 0c0 .5-.9 1-2 1s-2-.5-2-1c0-.6.9-1 2-1s2 .4 2 1m-80 12c0 .5-.9 1-1.9 1-1.1 0-2.3-.5-2.6-1-.4-.6.5-1 1.9-1s2.6.4 2.6 1m80 0c0 .5-.9 1-2 1s-2-.5-2-1c0-.6.9-1 2-1s2 .4 2 1m-80.7 11.7c-.7.2-2.1.2-3 0-1-.3-.4-.5 1.2-.5 1.7 0 2.4.2 1.8.5m80 0c-.7.2-1.9.2-2.5 0-.7-.3-.2-.5 1.2-.5s1.9.2 1.3.5m-80 12c-.7.2-2.1.2-3 0-1-.3-.4-.5 1.2-.5 1.7 0 2.4.2 1.8.5m80 0c-.7.2-1.9.2-2.5 0-.7-.3-.2-.5 1.2-.5s1.9.2 1.3.5m-79.3 11.3c0 .5-1.2 1-2.6 1s-2.3-.4-1.9-1c.3-.6 1.5-1 2.6-1 1 0 1.9.4 1.9 1m80 0c0 .5-.9 1-2 1s-2-.5-2-1c0-.6.9-1 2-1s2 .4 2 1m-80 12c0 .5-1.2 1-2.6 1s-2.3-.4-1.9-1c.3-.6 1.5-1 2.6-1 1 0 1.9.4 1.9 1m80 0c0 .5-.9 1-2 1s-2-.5-2-1c0-.6.9-1 2-1s2 .4 2 1m-80 12c0 .5-.9 1-1.9 1-1.1 0-2.3-.5-2.6-1-.4-.6.5-1 1.9-1s2.6.4 2.6 1m80 0c0 .5-.9 1-2 1s-2-.5-2-1c0-.6.9-1 2-1s2 .4 2 1m-80.7 11.7c-.7.2-2.1.2-3 0-1-.3-.4-.5 1.2-.5 1.7 0 2.4.2 1.8.5m80 0c-.7.2-1.9.2-2.5 0-.7-.3-.2-.5 1.2-.5s1.9.2 1.3.5m-80 12c-.7.2-2.1.2-3 0-1-.3-.4-.5 1.2-.5 1.7 0 2.4.2 1.8.5m80 0c-.7.2-1.9.2-2.5 0-.7-.3-.2-.5 1.2-.5s1.9.2 1.3.5m-80 12c-.7.2-2.1.2-3 0-1-.3-.4-.5 1.2-.5 1.7 0 2.4.2 1.8.5m80 0c-.7.2-1.9.2-2.5 0-.7-.3-.2-.5 1.2-.5s1.9.2 1.3.5m-79.3 11.3c0 .5-1.2 1-2.6 1s-2.3-.4-1.9-1c.3-.6 1.5-1 2.6-1 1 0 1.9.4 1.9 1m80 0c0 .5-.9 1-2 1s-2-.5-2-1c0-.6.9-1 2-1s2 .4 2 1m-80 12c0 .5-.9 1-1.9 1-1.1 0-2.3-.5-2.6-1-.4-.6.5-1 1.9-1s2.6.4 2.6 1m80 0c0 .5-.9 1-2 1s-2-.5-2-1c0-.6.9-1 2-1s2 .4 2 1m-80 12c0 .5-.9 1-1.9 1-1.1 0-2.3-.5-2.6-1-.4-.6.5-1 1.9-1s2.6.4 2.6 1m80 0c0 .5-.9 1-2 1s-2-.5-2-1c0-.6.9-1 2-1s2 .4 2 1m-80.7 11.7c-.7.2-2.1.2-3 0-1-.3-.4-.5 1.2-.5 1.7 0 2.4.2 1.8.5m80 0c-.7.2-1.9.2-2.5 0-.7-.3-.2-.5 1.2-.5s1.9.2 1.3.5m-80 12c-.7.2-2.1.2-3 0-1-.3-.4-.5 1.2-.5 1.7 0 2.4.2 1.8.5m80 0c-.7.2-1.9.2-2.5 0-.7-.3-.2-.5 1.2-.5s1.9.2 1.3.5m-79.3 11.3c0 .5-1.2 1-2.6 1s-2.3-.4-1.9-1c.3-.6 1.5-1 2.6-1 1 0 1.9.4 1.9 1m80 0c0 .5-.9 1-2 1s-2-.5-2-1c0-.6.9-1 2-1s2 .4 2 1m-80 12c0 .5-1.1 1-2.5 1s-2.5-.5-2.5-1c0-.6 1.1-1 2.5-1s2.5.4 2.5 1m80 0c0 .5-.9 1-2 1s-2-.5-2-1c0-.6.9-1 2-1s2 .4 2 1m-80 12c0 .5-.9 1-1.9 1-1.1 0-2.3-.5-2.6-1-.4-.6.5-1 1.9-1s2.6.4 2.6 1m80 0c0 .5-.9 1-2 1s-2-.5-2-1c0-.6.9-1 2-1s2 .4 2 1m-80.7 11.7c-.7.2-2.1.2-3 0-1-.3-.4-.5 1.2-.5 1.7 0 2.4.2 1.8.5m80 0c-.7.2-1.9.2-2.5 0-.7-.3-.2-.5 1.2-.5s1.9.2 1.3.5m-80 12c-.7.2-2.1.2-3 0-1-.3-.4-.5 1.2-.5 1.7 0 2.4.2 1.8.5m80 0c-.7.2-1.9.2-2.5 0-.7-.3-.2-.5 1.2-.5s1.9.2 1.3.5m-79.3 11.3c0 .5-1.2 1-2.6 1s-2.3-.4-1.9-1c.3-.6 1.5-1 2.6-1 1 0 1.9.4 1.9 1m80 0c0 .5-.9 1-2 1s-2-.5-2-1c0-.6.9-1 2-1s2 .4 2 1m-80 12c0 .5-1.2 1-2.6 1s-2.3-.4-1.9-1c.3-.6 1.5-1 2.6-1 1 0 1.9.4 1.9 1m80 0c0 .5-.9 1-2 1s-2-.5-2-1c0-.6.9-1 2-1s2 .4 2 1m-80 12c0 .5-.9 1-1.9 1-1.1 0-2.3-.5-2.6-1-.4-.6.5-1 1.9-1s2.6.4 2.6 1m80 0c0 .5-.9 1-2 1s-2-.5-2-1c0-.6.9-1 2-1s2 .4 2 1m-80.7 11.7c-.7.2-2.1.2-3 0-1-.3-.4-.5 1.2-.5 1.7 0 2.4.2 1.8.5m80 0c-.7.2-1.9.2-2.5 0-.7-.3-.2-.5 1.2-.5s1.9.2 1.3.5m-80 12c-.7.2-2.1.2-3 0-1-.3-.4-.5 1.2-.5 1.7 0 2.4.2 1.8.5m80 0c-.7.2-1.9.2-2.5 0-.7-.3-.2-.5 1.2-.5s1.9.2 1.3.5m-80 12c-.7.2-2.1.2-3 0-1-.3-.4-.5 1.2-.5 1.7 0 2.4.2 1.8.5m80 0c-.7.2-1.9.2-2.5 0-.7-.3-.2-.5 1.2-.5s1.9.2 1.3.5m-79.3 11.3c0 .5-1.2 1-2.6 1s-2.3-.4-1.9-1c.3-.6 1.5-1 2.6-1 1 0 1.9.4 1.9 1m80 0c0 .5-.9 1-2 1s-2-.5-2-1c0-.6.9-1 2-1s2 .4 2 1m-80 12c0 .5-.9 1-1.9 1-1.1 0-2.3-.5-2.6-1-.4-.6.5-1 1.9-1s2.6.4 2.6 1m80 0c0 .5-.9 1-2 1s-2-.5-2-1c0-.6.9-1 2-1s2 .4 2 1m-80 12c0 .5-.9 1-1.9 1-1.1 0-2.3-.5-2.6-1-.4-.6.5-1 1.9-1s2.6.4 2.6 1m80 0c0 .5-.9 1-2 1s-2-.5-2-1c0-.6.9-1 2-1s2 .4 2 1m-80.7 11.7c-.7.2-2.1.2-3 0-1-.3-.4-.5 1.2-.5 1.7 0 2.4.2 1.8.5m80 0c-.7.2-1.9.2-2.5 0-.7-.3-.2-.5 1.2-.5s1.9.2 1.3.5m-80 12c-.7.2-2.1.2-3 0-1-.3-.4-.5 1.2-.5 1.7 0 2.4.2 1.8.5m80 0c-.7.2-1.9.2-2.5 0-.7-.3-.2-.5 1.2-.5s1.9.2 1.3.5m-79.3 11.3c0 .5-1.2 1-2.6 1s-2.3-.4-1.9-1c.3-.6 1.5-1 2.6-1 1 0 1.9.4 1.9 1m80 0c0 .5-.9 1-2 1s-2-.5-2-1c0-.6.9-1 2-1s2 .4 2 1m-80 12c0 .5-.9 1-1.9 1-1.1 0-2.3-.5-2.6-1-.4-.6.5-1 1.9-1s2.6.4 2.6 1m80 0c0 .5-.9 1-2 1s-2-.5-2-1c0-.6.9-1 2-1s2 .4 2 1m-80 12c0 .5-.9 1-1.9 1-1.1 0-2.3-.5-2.6-1-.4-.6.5-1 1.9-1s2.6.4 2.6 1m80 0c0 .5-.9 1-2 1s-2-.5-2-1c0-.6.9-1 2-1s2 .4 2 1m-80.7 11.7c-.7.2-2.1.2-3 0-1-.3-.4-.5 1.2-.5 1.7 0 2.4.2 1.8.5m80 0c-.7.2-1.9.2-2.5 0-.7-.3-.2-.5 1.2-.5s1.9.2 1.3.5" style="fill:#000;stroke:none;stroke-width:.1"/><path d="M1424.51 131.2c-.3.7-.4 112.4-.3 248.3l.3 247 5.8.3c4.4.2 5.9 0 6.3-1.2.9-2.3 19.9-2.3 20.8-.1.4 1.1 2.1 1.5 6.1 1.5h5.5V130h-6c-4.7 0-6 .3-6 1.5s-1.8 1.5-9.9 1.5c-7.9 0-10-.3-10.5-1.5-.7-1.9-11.4-2.1-12.1-.3m4.5 247.3c0 163-.3 245.5-1 245.5s-1-82.5-1-245.5.3-245.5 1-245.5 1 82.5 1 245.5m38 0c0 163-.3 245.5-1 245.5s-1-82.5-1-245.5.3-245.5 1-245.5 1 82.5 1 245.5m-14.2-241.8c-3.2.2-8.4.2-11.5 0-3.2-.2-.6-.3 5.7-.3s8.9.1 5.8.3m7.1 129c0 72.4-.4 122.9-.9 121.6-1.4-3.5-4.2-4.3-15.4-4.3h-10.6v-7.8l.1-7.7 3.3 3.7c4.5 5.2 7.6 5.2 4 0l-1.5-2.2h10c9.4 0 10.1-.1 10.1-2s-.7-2-13-2h-13V142h27zm-4.1 124.5c.3 2.2-.2 2.9-2.2 3.4-3.3.8-3.4 3.4-.3 3.4 2.4 0 4.9-2.2 6-5 .3-.8.6 49 .6 110.7l.1 112.3h-27V386.9l11.3.3 11.2.3zm-3 230.5c-3.2.2-8.4.2-11.5 0-3.2-.2-.6-.3 5.7-.3s8.9.1 5.8.3" style="fill:#000;stroke:none;stroke-width:.1"/><path d="M1441.31 236c-1.3.5-2.3 1.5-2.3 2.2-.4 16.4.1 45.3.9 46.1 1.8 1.8 9.9 2.1 12.6.3l2.5-1.6v-46l-2.6-1c-3.1-1.2-8.1-1.2-11.1 0m2.4 34.7c-.1 5.9-.3 1.3-.3-10.2 0-11.6.2-16.4.3-10.8.2 5.6.2 15.1 0 21m7 0c-.1 5.9-.3 1.3-.3-10.2 0-11.6.2-16.4.3-10.8.2 5.6.2 15.1 0 21M1441.31 472c-1.3.5-2.3 1.5-2.3 2.2-.4 16.4.1 45.3.9 46.1 1.5 1.5 9.3 2 12.4.8l2.7-1.1v-22.7c0-12.6-.4-23.4-.9-24.2-1.1-1.7-9.7-2.4-12.8-1.1m2.4 34.7c-.1 5.9-.3 1.3-.3-10.2 0-11.6.2-16.4.3-10.8.2 5.6.2 15.1 0 21m7 0c-.1 5.9-.3 1.3-.3-10.2 0-11.6.2-16.4.3-10.8.2 5.6.2 15.1 0 21M30.01 129.9l-4.5.6-.3 14.7-.3 14.8h4.5c3.8 0 4.5.3 4.9 2.2l.4 2.3.2-2.3c.1-2.1.5-2.2 9.6-2.2h9.5v-29.7l-6.7-.6c-7.4-.7-10.5-.7-17.3.2m22 15.1v12h-8.5c-6.1 0-8.5-.4-8.6-1.3q0-1.5-.6 0c-.2.7-1.8 1.3-3.4 1.3h-2.9v-24h24z" style="fill:#000;stroke:none;stroke-width:.1"/><path d="M34.01 138.8c0 1.1 2.2 3.2 3.3 3.2.4 0 .5-.5.2-1-.4-.6 1-1 3.4-1 2.3 0 4.1-.5 4.1-1 0-.6-2.5-1-5.5-1s-5.5.4-5.5.8M35.31 144.7c-.8.2-1.3 2.2-1.3 4.4v3.9h5.5c3 0 5.5-.5 5.5-1 0-.6-.9-1-1.9-1-1.2 0-2.1-1-2.6-2.7-.9-3.7-2.5-4.8-5.2-3.6m3.7 3.8c0 1.8-.5 2.5-2 2.5-2 0-2.8-2.8-1.3-4.3 1.5-1.6 3.3-.6 3.3 1.8M87.31 131.4c-.4.8-2.6 1.6-4.8 1.8l-4 .3-.3 14.7-.3 14.8h4.5c3.8 0 4.5.3 4.9 2.2l.4 2.3.2-2.2c.1-2.1.6-2.2 9.9-2.5l9.7-.3v-29l-4.7-.3c-3.4-.2-4.8-.8-5.1-2-.4-1.6-.5-1.6-.6 0-.1 2.2-1.9 2.3-4.5.3-2.5-1.9-4.3-1.9-5.3-.1m4 1.3c-.7.2-1.9.2-2.5 0-.7-.3-.2-.5 1.2-.5s1.9.2 1.3.5m5 4.5c1.1.5 1.7.5 1.7-.2 0-.5 1.6-1 3.5-1h3.5v24h-8.5c-6.1 0-8.5-.4-8.6-1.3q0-1.5-.6 0c-.2.7-1.8 1.3-3.4 1.3h-2.9v-23.9l6.8.1c3.7 0 7.5.5 8.5 1" style="fill:#000;stroke:none;stroke-width:.1"/><path d="M87.01 141.8c0 1.1 2.2 3.2 3.3 3.2.4 0 .5-.5.2-1-.4-.6 1-1 3.4-1 2.3 0 4.1-.5 4.1-1 0-.6-2.5-1-5.5-1s-5.5.4-5.5.8M88.31 147.7c-.8.2-1.3 2.2-1.3 4.4v3.9h5.5c3 0 5.5-.5 5.5-1 0-.6-.9-1-1.9-1-1.2 0-2.1-1-2.6-2.7-.9-3.7-2.5-4.8-5.2-3.6m3.7 3.8c0 1.8-.5 2.5-2 2.5-2 0-2.8-2.8-1.3-4.3 1.5-1.6 3.3-.6 3.3 1.8M1519.71 131.4c-.8.8-3.2 1.6-5.3 1.8l-3.9.3v29l4.3.3c3.7.3 4.2.6 4.2 2.7s-.5 2.4-4.2 2.7l-4.3.3v29l4.2.3c3.4.3 4.3.7 4.6 2.5l.4 2.2.2-2.2c.1-2.1.6-2.2 9.9-2.5l9.7-.3v-29l-4.4-.3c-2.4-.2-5.1-1-5.9-1.9-1-1-2.8-1.4-5.4-1.1-2.5.2-3.8-.1-3.8-.9 0-.9 2.8-1.3 9.8-1.5l9.7-.3v-29l-4.4-.3c-2.4-.2-5-1-5.8-1.8-1.9-1.8-7.7-1.8-9.6 0m8.3.6c1.1.7.1 1-3.5.9-3.7 0-4.5-.3-3-.9 2.7-1.2 4.7-1.2 6.5 0m9 16.2V160h-8.5c-6.1 0-8.5-.4-8.6-1.3q0-1.5-.6 0c-.2.7-1.8 1.3-3.4 1.3h-2.9v-23.6h12l12-.1zm-8.4 19c.3.3-1.7.6-4.3.6-3.3.1-4.3-.2-3.3-.8 1.4-.9 6.6-.7 7.6.2m8.4 15.9V195h-8.5c-6.1 0-8.5-.4-8.6-1.3q0-1.5-.6 0c-.2.7-1.8 1.3-3.4 1.3h-2.9v-23.6l12-.1h12z" style="fill:#000;stroke:none;stroke-width:.1"/><path d="M1522.51 139.9c-2.3.5-3 1.2-3 3 0 1.4.7 2.6 1.5 2.9 1.2.4 1.3.2.3-.9-.7-.7-1.3-1.9-1.3-2.6 0-1.7 2.6-1.7 3.4-.1.5 1 .7 1 1.2 0 .8-1.6 4.4-1.6 4.4.1 0 .7-.6 1.9-1.2 2.6-1.1 1.1-1 1.3.2.9 2-.6 2.6-4.8.8-5.9-1.4-1-1.9-1-6.3 0M1520.31 147.7c-.8.2-1.3 2.2-1.3 4.4v3.9h5.5c3 0 5.5-.5 5.5-1 0-.6-.9-1-1.9-1-1.2 0-2.1-1-2.6-2.7-.9-3.7-2.5-4.8-5.2-3.6m3.7 3.8c0 1.8-.5 2.5-2 2.5-2 0-2.8-2.8-1.3-4.3 1.5-1.6 3.3-.6 3.3 1.8M1519.41 175.4c-.9 2.3-.1 4.9 1.6 5.4 1.2.4 1.3.2.3-.9-1.9-2-1.6-3.9.7-3.9 1.1 0 2.7 1.1 3.5 2.4 2.9 4.3 4.5 4.1 4.4-.7-.2-3-.3-3.4-.6-1.5-.5 3.4-.6 3.4-3.7.3-2.8-2.8-5.4-3.2-6.2-1.1M1520.31 182.7c-.8.2-1.3 2.2-1.3 4.4v3.9h5.5c3 0 5.5-.5 5.5-1 0-.6-.9-1-1.9-1-1.2 0-2.1-1-2.6-2.7-.9-3.7-2.5-4.8-5.2-3.6m3.7 3.8c0 1.8-.5 2.5-2 2.5-2 0-2.8-2.8-1.3-4.3 1.5-1.6 3.3-.6 3.3 1.8M344.51 152.9l-3 .6-.5 10.5c-.6 12.4.1 14.4 5.2 14.8 5.6.5 6.7-2 6.5-14.6-.2-12.3-.7-12.9-8.2-11.3m.5 1.5c0 .2-.7.6-1.5 1-.8.3-1.5.1-1.5-.4 0-.6.7-1 1.5-1s1.5.2 1.5.4m5 .6c-1.9 1.3-3 1.3-3 0 0-.6 1-1 2.3-1 1.8 0 1.9.2.7 1m-1 11c0 2.5-.4 3-2.2 2.9-1.3 0-1.7-.3-1.1-.6.8-.3 1.1-1.4.7-2.9-.5-1.8-.2-2.4 1-2.4 1.1 0 1.6.9 1.6 3m-.6 11.2c-1.5.7-2.8.7-4-.1-1.6-.9-1.2-1 2.1-1 3.5 0 3.7.2 1.9 1.1M381.81 163.2c-.3 13 .4 15.2 5.1 15.6 5.9.6 7.1-1.6 7.1-13 0-5.4-.3-9.8-.7-9.9-2.9-.3-5.8-1.1-8.3-2.4l-2.9-1.5zm8.2.8c0 .5-.7.7-1.5.4-.8-.4-1.5-.8-1.5-1s.7-.4 1.5-.4 1.5.4 1.5 1m0 3.6c0 .8-.9 1.4-2 1.4-1.3 0-2-.7-2-1.9 0-1.4.5-1.8 2-1.4 1.1.3 2 1.2 2 1.9m-.6 9.6c-1.5.7-2.8.7-4-.1-1.6-.9-1.2-1 2.1-1 3.5 0 3.7.2 1.9 1.1M61.61 173.5c-.8.8-3.2 1.5-5.5 1.5h-4.1v29h4.4c3.8 0 4.5.3 4.9 2.2l.4 2.3.2-2.3c.1-2.1.5-2.2 9.6-2.2h9.5v-29h-4.1c-2.3 0-4.7-.7-5.5-1.5-.9-.8-3.1-1.5-4.9-1.5s-4 .7-4.9 1.5m8.4.5c1.1.7.1 1-3.5.9-3.7 0-4.5-.3-3-.9 2.7-1.2 4.7-1.2 6.5 0m8 15.7V201h-8c-5.7 0-8-.4-8.1-1.3q0-1.5-.6 0c-.2.7-2 1.3-3.9 1.3h-3.4v-22.7l12 .1h12z" style="fill:#000;stroke:none;stroke-width:.1"/><path d="M61.01 182.8c0 1.1 2.2 3.2 3.3 3.2.4 0 .5-.5.2-1-.4-.6 1-1 3.4-1 2.3 0 4.1-.5 4.1-1 0-.6-2.5-1-5.5-1s-5.5.4-5.5.8M62.31 189.7c-.8.2-1.3 2.2-1.3 4.4v3.9h5.5c3 0 5.5-.5 5.5-1 0-.6-.9-1-1.9-1-1.2 0-2.1-1-2.6-2.7-.9-3.7-2.5-4.8-5.2-3.6m3.7 3.8c0 1.8-.5 2.5-2 2.5-2 0-2.8-2.8-1.3-4.3 1.5-1.6 3.3-.6 3.3 1.8M346.31 185.7c-.7.2-1.3 1.1-1.3 1.9s-.7 1.4-1.5 1.4c-1.8 0-2-1.6-.2-2.3.7-.3.6-.6-.5-.6-1.4-.1-1.7 1.3-2 10.6-.4 12.7.4 14.7 5.4 15.1 5.7.5 6.8-2 6.5-14.6-.3-11.5-1.4-13.6-6.4-11.5m4.7 2.3c0 .5-1.1 1-2.5 1s-2.5-.5-2.5-1c0-.6 1.1-1 2.5-1s2.5.4 2.5 1m-2 9c0 .5-.7.7-1.5.4-.8-.4-1.5-.8-1.5-1s.7-.4 1.5-.4 1.5.4 1.5 1m0 3.6c0 .8-.9 1.4-2 1.4-1.3 0-2-.7-2-1.9 0-1.4.5-1.8 2-1.4 1.1.3 2 1.2 2 1.9m-.5 9.4c-.3.5-1.2 1-2 1s-1.7-.5-2-1c-.4-.6.5-1 2-1s2.4.4 2 1M1038.91 209.7c-.5 7.1-.4 9.5.5 10.2.6.5 5.2.8 10.1.7l9-.1.3-5.8.3-5.7h-10.1c-5.5 0-10 .3-10.1.7m13.1 5.1c0 1.4-.8 1.9-3 1.9s-3-.5-3-1.9c0-1.3.8-1.8 3-1.8s3 .5 3 1.8M1524.31 210.3c-.7 1-.9 4.8-.4 9.9.1.5 4.6.8 10.1.8h10.1l-.3-5.8-.3-5.7-9.2-.2c-6.2-.1-9.4.2-10 1m12.7 4.6c0 1.5-.7 1.9-3 1.9-2.2-.1-3-.6-3-2 0-1.3.7-1.8 3-1.8s3 .5 3 1.9M1553.21 213.3c-.7.8-1.2 3.8-1.1 6.8 0 3 .1 6.7 0 8.4-.1 4.1.8 4.7 6.5 4.3l4.9-.3v-20l-4.6-.3c-3-.2-5 .2-5.7 1.1m6.6 9.7c-.1 2.2-.6 3-2 3-1.3 0-1.8-.7-1.8-3s.5-3 1.9-3c1.5 0 1.9.7 1.9 3M344.51 220.9l-3 .6-.5 10.5c-.6 12.4.1 14.4 5.2 14.8 5.6.5 6.7-2 6.5-14.6-.2-12.3-.7-12.9-8.2-11.3m.2 1.7c-.3.3-1.2.4-1.9.1-.8-.3-.5-.6.6-.6 1.1-.1 1.7.2 1.3.5m5.6.1c-.7.2-1.9.2-2.5 0-.7-.3-.2-.5 1.2-.5s1.9.2 1.3.5m-2 5c-.7.2-1.9.2-2.5 0-.7-.3-.2-.5 1.2-.5s1.9.2 1.3.5m.7 4.3c0 .5-.7.7-1.5.4-.8-.4-1.5-.8-1.5-1s.7-.4 1.5-.4 1.5.4 1.5 1m0 3.6c0 .8-.9 1.4-2 1.4-1.3 0-2-.7-2-1.9 0-1.4.5-1.8 2-1.4 1.1.3 2 1.2 2 1.9m-.6 9.6c-1.5.7-2.8.7-4-.1-1.6-.9-1.2-1 2.1-1 3.5 0 3.7.2 1.9 1.1M381.91 230.9c-.5 13.5.2 15.5 5.3 15.9 5.4.5 6.8-2.1 6.8-13 0-4.7-.4-9.8-1-11.2-1.2-3.3-4.8-3.4-7.5-.4l-1.9 2.3-.7-2.5c-.3-1.4-.8 2.6-1 8.9m9.6-8.9c.4.6-.6 1-2.2 1-2.2 0-2.5-.2-1.3-1 1.9-1.2 2.7-1.2 3.5 0m-1.8 5.6c-.3.3-1.2.4-1.9.1-.8-.3-.5-.6.6-.6 1.1-.1 1.7.2 1.3.5m.3 4.4c0 .5-.7.7-1.5.4-.8-.4-1.5-.8-1.5-1s.7-.4 1.5-.4 1.5.4 1.5 1m0 3.6c0 .8-.9 1.4-2 1.4-1.3 0-2-.7-2-1.9 0-1.4.5-1.8 2-1.4 1.1.3 2 1.2 2 1.9m-.6 9.6c-1.5.7-2.8.7-4-.1-1.6-.9-1.2-1 2.1-1 3.5 0 3.7.2 1.9 1.1M28.01 239.5V254h29v-29h-29zm27-8.6c0 2.5-.4 3-2.7 3.3-2.4.3-2.8.8-2.8 3.3s.5 3.1 2.7 3.5c2.1.4 2.5.8 1.8 2-.8 1.3-1.3 1.3-3.1.2s-2-1.1-1.7 0c.3.7 1.7 1.4 3.1 1.6 2.3.3 2.7.8 2.7 3.8v3.4h-24l.2-8.8c.1-6 .3-7.1.5-3.5.5 6.7 2.3 7 2.3.4 0-3.9.4-5.1 1.8-5.4.9-.3.2-.5-1.5-.6-3-.1-3.3-.4-3.3-3.1v-3h24zm-1 6.6c0 2.5-2.3 3.5-3.5 1.5-1-1.6.2-4 2-4 .9 0 1.5.9 1.5 2.5" style="fill:#000;stroke:none;stroke-width:.1"/><path d="M39.01 239.5c0 3 .5 5.5 1 5.5.6 0 1-.8 1-1.9 0-1.2.9-2 2.9-2.4 5.8-1.2 4.6-6.7-1.5-6.7h-3.4zm6.8-2.3c.3 1.3-.3 1.8-2.2 1.8-2 0-2.6-.5-2.6-2.1 0-1.5.5-2 2.2-1.7 1.3.2 2.4 1.1 2.6 2M1524.31 227.3c-.5.7-.8 3.2-.8 5.7v4.5l10.3.3 10.3.3-.3-5.8-.3-5.8-9.2-.2c-6.1-.1-9.4.2-10 1m11.6 4.5c-1.6 2.5-4.9 2.6-4.9.1 0-1.4.7-1.9 3-1.9 2.7 0 2.9.2 1.9 1.8M1216.01 259v31l45.5-.2 45.6-.3v-61l-45.6-.3-45.5-.2zm88 0v28h-85v-56h85z" style="fill:#000;stroke:none;stroke-width:.1"/><path d="M1231.01 255.3c0 11.7.9 13.9 6.5 15.7 4.5 1.5 8.6.6 11.6-2.6 2.1-2.2 2.4-3.7 2.7-13 .4-10 .4-10.4-1.7-10.4-2 0-2.1.5-2.1 9.9 0 11.5-.9 13.1-7 13.1-5.8 0-7-2.4-7-13.7 0-7.6-.3-9.3-1.5-9.3s-1.5 1.8-1.5 10.3M1262.61 248c-1.6 1.7-3.3 3-3.8 3-.4 0-.8.7-.8 1.5 0 1.9 1 1.9 3.8-.1l2.2-1.5v10c0 9.4.1 10.1 2 10.1s2-.7 2-13c0-14.4-.4-15.1-5.4-10M1280.31 246.5c-4.2 3-5.6 14.4-2.5 20.4 4.4 8.7 15.4 5.4 15.4-4.6 0-6.1-6.1-10-11.3-7.3-1.6.9-1.9.7-1.9-1.3 0-5.2 5-7.9 8.3-4.3 1.2 1.2 2.8 2.1 3.5 1.9 1.7-.6 1.5-1.6-.8-4.1-2.5-2.6-7.5-2.9-10.7-.7m8.1 12.1c1.8 1.8 2.1 5.6.6 8.5-1.3 2.3-5.3 2.5-7.4.3-3.4-3.3-1-10.4 3.4-10.4 1 0 2.6.7 3.4 1.6M1294.81 276.1c-4.4 2.5-.3 9.3 4.2 6.9 2.6-1.4 2.6-5.6.1-7-2.3-1.2-2.2-1.2-4.3.1M1527.21 245.2c-.7.7-1.2 2.7-1.2 4.4 0 5.1 2.8 6.4 13.5 6.3 7.8-.1 17.5-1.5 12.3-1.8-2.2-.1-2.3-1.5-.3-4.5.9-1.3 1.3-3.1.9-4-.5-1.4-2.4-1.6-12.3-1.6q-11.7 0-12.9 1.2m23.5 3c-.3.7-.5.2-.5-1.2s.2-1.9.5-1.3c.2.7.2 1.9 0 2.5m-21.7 1.5c-.1 3.1-.3 3.5-1.1 2-.6-.9-.7-2.6-.4-3.7 1-3 1.5-2.4 1.5 1.7m4.7 1.5c-.3.7-.5.2-.5-1.2s.2-1.9.5-1.3c.2.7.2 1.9 0 2.5m7.3-2.8c0 .2-.3 1.1-.6 2-.9 2.3-3.4 2-3.4-.4 0-1.3.7-2 2-2 1.1 0 2 .2 2 .4m2 2.1c0 .8-.4 1.5-1 1.5-.5 0-.7-.7-.4-1.5.4-.8.8-1.5 1-1.5s.4.7.4 1.5M534.01 246.7c0 .8-1.4 1.3-3.5 1.3h-3.5v25h5.5c5.7 0 7.6-1.6 2.8-2.3-2.6-.4-2.6-.4.5-.6l3.2-.1v-10.5c0-9.1-.2-10.6-1.7-11.2-1-.4-2.1-1.1-2.5-1.7-.5-.7-.8-.7-.8.1m-1.3 8.9c-.3.3-1.2.4-1.9.1-.8-.3-.5-.6.6-.6 1.1-.1 1.7.2 1.3.5m0 2.6c1.1-2.7 3.2-1.2 3.1 2.3-.1 3.1-.4 3.5-3 3.5s-2.8-.3-2.8-3.8c0-2.9.3-3.4 1.1-2.2.8 1.1 1.2 1.2 1.6.2m-1.4 12.5c-.7.2-1.9.2-2.5 0-.7-.3-.2-.5 1.2-.5s1.9.2 1.3.5M1527.11 261.3c-2 2-1.3 7.4 1.1 9.1 2.5 1.8 19.6 2.2 23.3.6 1.7-.7 1.7-.9.3-.9-2.2-.1-2.3-1.5-.3-4.5.9-1.3 1.3-3 .9-3.9-.5-1.4-2.4-1.7-12.4-1.6-7.4 0-12.1.4-12.9 1.2m2.1 3.9c-.4 3.3-.6 3.8-1.4 2.4-.7-1.2-.7-2.6.1-4.2 1.5-3.3 1.7-3 1.3 1.8m21.5-1c-.3.7-.5.2-.5-1.2s.2-1.9.5-1.3c.2.7.2 1.9 0 2.5m-9.1 1.2c2.1 2.1 1.8 2.6-1.6 2.6-2.3 0-3-.4-3-2 0-2.3 2.5-2.7 4.6-.6m-7.9 1.8c-.3.8-.6.5-.6-.6-.1-1.1.2-1.7.5-1.3.3.3.4 1.2.1 1.9M60.41 270.3c-.2.7-.3 7.4-.2 14.8l.3 13.4h29v-29l-14.3-.3c-11.1-.2-14.4 0-14.8 1.1m26.6 4.6c0 2.3-.5 3-2.2 3.3-2 .3-2.3.9-2.3 5.3s.3 5 2.3 5.3c1.8.3 2.2 1 2.2 3.8v3.4h-24v-8.5c0-5 .4-8.5 1-8.5s1 2.2 1 5c0 2.7.5 5 1 5 .6 0 1-2.2 1-4.9 0-3.9.4-5.1 1.8-5.4.9-.3 0-.5-2-.6-3.5-.1-3.8-.3-3.8-3.1v-3h24zm0 5.6c0 .8-.7 1.5-1.5 1.5s-1.5-.7-1.5-1.5.7-1.5 1.5-1.5 1.5.7 1.5 1.5m0 5.5c0 2.1-2.4 2.8-3.5 1-.8-1.4.3-3 2.1-3 .8 0 1.4.9 1.4 2" style="fill:#000;stroke:none;stroke-width:.1"/><path d="M71.01 283.5c0 3 .5 5.5 1 5.5.6 0 1-.8 1-1.9 0-1.2.9-2 2.9-2.4 5.8-1.2 4.6-6.7-1.5-6.7h-3.4zm6.8-2.3c.3 1.3-.3 1.8-2.2 1.8-2 0-2.6-.5-2.6-2.1 0-1.5.5-2 2.2-1.7 1.3.2 2.4 1.1 2.6 2M527.61 278.8c-.3.5-.6 5.9-.7 12.1-.1 12.5.5 14.1 5.7 14.1 5.1 0 6.4-2.7 6.3-13.5-.1-7.8-1.5-17.5-1.8-12.3-.1 2.2-1.9 2.3-4.5.3-2.2-1.7-4.2-1.9-5-.7m3.7 1.9c-.7.2-1.9.2-2.5 0-.7-.3-.2-.5 1.2-.5s1.9.2 1.3.5m3.7 9.3c0 1.1-.4 2-.9 2-1.1 0-2.2-2.6-1.4-3.4 1.2-1.2 2.3-.5 2.3 1.4m-1 3c1.2.8 1.1 1-.7 1-1.3 0-2.3-.5-2.3-1 0-1.3 1.1-1.3 3 0m.4 10.2c-1.5.7-2.8.7-4-.1-1.6-.9-1.2-1 2.1-1 3.5 0 3.7.2 1.9 1.1M544.81 290.2c-.4 12.1.4 14.2 5.3 14.6 5.2.4 6.3-1.4 6.6-11.6.5-12.9.3-13.2-6.2-13.2h-5.4zm8.2-.2c0 1.1-.4 2-.9 2-1.1 0-2.2-2.6-1.4-3.4 1.2-1.2 2.3-.5 2.3 1.4m-1 3c1.2.8 1.1 1-.7 1-1.3 0-2.3-.5-2.3-1 0-1.3 1.1-1.3 3 0m.4 10.2c-1.5.7-2.8.7-4-.1-1.6-.9-1.2-1 2.1-1 3.5 0 3.7.2 1.9 1.1M708.31 285.8c-1.7 1.1-2 22.7-.3 24.7 2.1 2.5 7.7 1.9 9.6-1 2.2-3.3 1.7-22.1-.6-23.5-1.8-1.2-7-1.3-8.7-.2m7.6 1.1c.9.6-.1 1-3.3 1.2-4.5.4-6.3-.5-2.8-1.4 2.9-.8 4.6-.7 6.1.2m-.9 12.1c0 2.5-.4 3-2.2 2.9-1.3 0-1.7-.3-1.1-.6.8-.3 1.1-1.4.7-2.9-.5-1.8-.2-2.4 1-2.4 1.1 0 1.6.9 1.6 3m-.6 11.2c-1.5.7-2.8.7-4-.1-1.6-.9-1.2-1 2.1-1 3.5 0 3.7.2 1.9 1.1M735.61 286.5c-.8.8-2.1 1.5-2.8 1.5-1 0-.9-.3.2-1 1.3-.8 1.3-1-.2-1-1.4 0-1.7 1.4-2 10.7-.4 12.7.4 14.7 5.4 15.1 5.7.5 6.9-2.1 6.5-14.7-.2-7.6-.7-10.5-1.7-11.1-2.1-1.4-3.6-1.2-5.4.5m4.7 1.2c-.7.2-2.1.2-3 0-1-.3-.4-.5 1.2-.5 1.7 0 2.4.2 1.8.5m-1.3 11.3c0 2.5-.4 3-2.2 2.9-1.3 0-1.7-.3-1.1-.6.8-.3 1.1-1.4.7-2.9-.5-1.8-.2-2.4 1-2.4 1.1 0 1.6.9 1.6 3m-.6 11.2c-1.5.7-2.8.7-4-.1-1.6-.9-1.2-1 2.1-1 3.5 0 3.7.2 1.9 1.1M777.81 296.2c-.4 13.2.3 15.2 5.4 15.6 5.7.5 6.9-2.3 6.6-13.9l-.3-9.4-3.5-.6c-1.9-.3-4.5-1.1-5.7-1.7-2.2-1.2-2.2-1.2-2.5 10m8.2 2.8c0 2.5-.4 3-2.2 2.9-1.3 0-1.7-.3-1.1-.6.8-.3 1.1-1.4.7-2.9-.5-1.8-.2-2.4 1-2.4 1.1 0 1.6.9 1.6 3m-.6 11.2c-1.5.7-2.8.7-4-.1-1.6-.9-1.2-1 2.1-1 3.5 0 3.7.2 1.9 1.1M799.51 285.9c-1.1 1.8-.7 23.2.5 24.6 2 2.4 7.7 1.9 9.4-.8 1.6-2.4 2.1-16.4.7-21.3-.7-2.6-1.2-2.9-5.4-3-2.6-.1-4.9.1-5.2.5m9 1.1c.3.5-.3 1-1.5 1s-1.8-.5-1.5-1c.3-.6 1-1 1.5-1s1.2.4 1.5 1m-5.8.6c-.3.3-1.2.4-1.9.1-.8-.3-.5-.6.6-.6 1.1-.1 1.7.2 1.3.5m3 5c-.3.3-1.2.4-1.9.1-.8-.3-.5-.6.6-.6 1.1-.1 1.7.2 1.3.5m1.3 6.4c0 2.5-.4 3-2.2 2.9-1.3 0-1.7-.3-1.1-.6.8-.3 1.1-1.4.7-2.9-.5-1.8-.2-2.4 1-2.4 1.1 0 1.6.9 1.6 3m-.6 11.2c-1.5.7-2.8.7-4-.1-1.6-.9-1.2-1 2.1-1 3.5 0 3.7.2 1.9 1.1M823.21 285.8c-.8.6-1.2 3.8-1.3 10.3v11.2c0 2.9 2.1 4.7 5.6 4.7 5.7 0 6.7-2.3 6.3-14.5-.2-8-.7-10.8-1.8-11.5-1.8-1.2-7-1.3-8.8-.2m8.4 1.5c.3.3-1 .5-3 .5-1.9 0-3.9.3-4.5.7-.6.3-1.1.2-1.1-.4 0-.5.6-1.1 1.3-1.4 1.4-.6 6.6-.2 7.3.6m-1.9 5.3c-.3.3-1.2.4-1.9.1-.8-.3-.5-.6.6-.6 1.1-.1 1.7.2 1.3.5m.3 6.4c0 2.5-.4 3-2.2 2.9-1.3 0-1.7-.3-1.1-.6.8-.3 1.1-1.4.7-2.9-.5-1.8-.2-2.4 1-2.4 1.1 0 1.6.9 1.6 3m-.6 11.2c-1.5.7-2.8.7-4-.1-1.6-.9-1.2-1 2.1-1 3.5 0 3.7.2 1.9 1.1M753.71 288.7c-1.2 1.1-.8 30.1.4 30.8 1.3.9 14.4.9 15.7.2.6-.5 1-27 .3-31-.1-.9-15.5-1-16.4 0m6.3 4.7c0 .3-.4.8-1 1.1-.5.3-1 .1-1-.4 0-.6.5-1.1 1-1.1.6 0 1 .2 1 .4m6 .6c0 .5-1.1 1-2.5 1s-2.5-.5-2.5-1c0-.6 1.1-1 2.5-1s2.5.4 2.5 1m0 5.5c0 1.8-2 2-2.1.2q0-1.5-.6 0c-.7 1.9-5.3 1.6-5.3-.2 0-1.1 1.1-1.5 4-1.5s4 .4 4 1.5m-3 4c0 1.3-.4 1.4-2 .5-1.1-.6-2-1.3-2-1.5 0-.3.9-.5 2-.5s2 .7 2 1.5m3 1.5c0 2.1-.5 3-1.6 3-.8 0-1.2.4-.9 1 .4.6-.6 1-2.2 1-2.5 0-2.9-.4-3.1-3-.3-3.3.8-3.9 2.8-1.5 1.8 2.2 3 1.8 3-1 0-1.4.5-2.5 1-2.5.6 0 1 1.3 1 3m-1 8.9c0 1.1-3.8 2.1-5.6 1.4-2.6-1-1.4-2.3 2.1-2.3 1.9 0 3.5.4 3.5.9M674.21 291.2c-2.1 2.1-1.5 7.6 1.1 9.2 3.1 2.1 22.4 1.7 23.7-.4 1.4-2.1 1.2-7.4-.2-8.8-1.7-1.7-22.9-1.7-24.6 0m24.4 3.5c.1 1.5-.1 3.4-.5 4.1-.5.9-.9-.3-.9-3.3-.1-5 .8-5.6 1.4-.8m-22.6 1c-.1 3.1-.3 3.5-1.1 2-.6-.9-.7-2.6-.4-3.7 1-3 1.5-2.4 1.5 1.7m9-1.3c0 .3-.4.8-1 1.1-.5.3-1 .1-1-.4 0-.6.5-1.1 1-1.1.6 0 1 .2 1 .4m3 1.1c0 .8-.7 1.5-1.5 1.5-.9 0-1.2-.6-.9-1.5.4-.8 1-1.5 1.5-1.5s.9.7.9 1.5M841.01 305.7c-2.9 2-2.8 7.8.3 9.6 3.1 1.9 22.5 1.6 23.8-.4 1.4-2.2 1.1-7.5-.5-8.8-2.3-1.9-21-2.2-23.6-.4m23.4 2.9c.8 2.9-.1 6.4-1.5 6.4-.5 0-.9-2-.9-4.5 0-4.9 1.4-6 2.4-1.9m-22.4 2.1c0 2-.3 2.4-1.1 1.6-.7-.7-.9-1.9-.6-2.7 1-2.4 1.7-1.9 1.7 1.1m13 .8c0 .3-.8.5-1.8.5s-1.9-.7-1.9-1.4c0-1.1.5-1.3 1.9-.5 1 .5 1.8 1.2 1.8 1.4M1502.21 304.8c-.9.6-1.2 3.7-1.2 10.3v11.2c-.2 2.9 2 4.7 5.5 4.7 5.7 0 6.7-2.3 6.3-14.5-.2-8-.7-10.8-1.8-11.5-1.8-1.2-7-1.3-8.8-.2m7.7 1.1c2 1.3-.1 2.2-4.3 1.9-3.8-.3-4.7-1.4-1.8-2.1 2.9-.8 4.6-.7 6.1.2m-.9 13.1c0 1.3-.7 2-2 2s-2-.7-2-2 .7-2 2-2 2 .7 2 2m-.6 10.2c-1.5.7-2.8.7-4-.1-1.6-.9-1.2-1 2.1-1 3.5 0 3.7.2 1.9 1.1M1521.81 305.4c-3.3 1.7-3.3 8.5 0 10.2 3.3 1.6 22.2 1 23.3-.8 1.4-2.1 1-7.5-.6-8.8-2-1.7-19.6-2.1-22.7-.6m22.8 4.3c.1 1.5-.1 3.4-.5 4.1-.5.9-.9-.3-.9-3.3-.1-5 .8-5.6 1.4-.8m-22.6 1c-.1 3.1-.3 3.5-1.1 2-.6-.9-.7-2.6-.4-3.7 1-3 1.5-2.4 1.5 1.7m12-.2c-.7.8-2.1 1.5-3.1 1.5-1.1 0-1.9-.7-1.9-1.5 0-1 1-1.5 3.1-1.5 2.7 0 3 .2 1.9 1.5M1732.41 313.2c-.8 1.3-.8 29.7 0 30.6 1 1 15.8.5 16.4-.6.9-1.4.7-28.5-.2-30-1-1.6-15.2-1.6-16.2 0m6.1 4.8c-.3.5-1 1-1.6 1-.5 0-.9-.5-.9-1 0-.6.7-1 1.6-1 .8 0 1.2.4.9 1m6.5 0c0 .5-1.1 1-2.5 1s-2.5-.5-2.5-1c0-.6 1.1-1 2.5-1s2.5.4 2.5 1m-5.7 4.7c-.7.2-1.9.2-2.5 0-.7-.3-.2-.5 1.2-.5s1.9.2 1.3.5m5.7.2c0 .5-.9.7-2 .4s-2-.7-2-.9.9-.4 2-.4 2 .4 2 .9m-4.5 3.7c0 1-.8 2-1.8 2.2-2.2.4-3.5-2.7-1.6-3.9 2-1.2 3.4-.5 3.4 1.7m3.5-1.1c1 1.2 1 1.8 0 3-.9 1-.9 1.5-.1 1.5.6 0 1.1.6 1.1 1.4 0 1.6-4.4 2.9-7.1 2.1-2.8-.9-2.3-3.3.9-3.7 2.2-.2 2.7-.8 2.7-3.1-.1-3 .7-3.4 2.5-1.2m-.2 13.2c.2.9-.8 1.3-3.2 1.3-3.6 0-5.6-1.4-3.4-2.4 2.2-.8 6.1-.2 6.6 1.1M1849.41 313.2c-1.2 1.8-1.2 46.1-.1 47.5.7.9 4.4 1.3 12.3 1.3s11.5-.4 12.1-1.3c1.1-1.8 1.1-46 0-47.5-1.3-1.7-23.3-1.7-24.3 0m19.4 6.5c-.5 2.8-8.1 3-12.1.4l-3.2-2.1h7.8c6.9 0 7.8.2 7.5 1.7m-4.2 6.4c3.2.8 4.4 1.6 4.4 3 0 1-.4 2.1-1 2.4-.5.3-1 2-1 3.8v3.1l-3.3-3.2c-3.4-3.3-8.1-4.3-9-2-.3.7-.6.1-.6-1.5-.1-1.5.4-2.7.9-2.7.6 0 1-.9 1-2 0-2.3 2-2.5 8.6-.9m-1.3 11.4c1.5 1.9 3.4 3.5 4.2 3.5 1 0 1.5 1 1.5 2.7 0 2.5 0 2.6-2 .8-1.1-1-2.3-1.5-2.8-1.1-.4.4.1 1.3 1.1 2 3.2 2.4 1.9 3.6-3.8 3.6-4.3 0-5.5-.3-5.5-1.5 0-.9.7-1.8 1.5-2.1.8-.4 1.2-1 .9-1.6-.3-.5-1.4-.2-2.5.8-1.8 1.7-1.9 1.6-1.9-2.1 0-3.2.2-3.6 1.5-2.5.9.7 1.9.9 2.3.5s.1-1-.5-1.2c-.7-.3-1.3-1.6-1.3-2.9 0-3.7 3.9-3.1 7.3 1.1m1.7 15.5c-.8.5-2.4 1-3.5 1s-2.7-.5-3.5-1c-1.1-.7-.1-1 3.5-1s4.6.3 3.5 1m-3.5 3c1.7 0 4.1-.7 5.3-1.6 2.1-1.4 2.2-1.4 2.2.5s-.6 2.1-7.5 2.1-7.5-.2-7.5-2.1.1-1.9 2.2-.5c1.2.9 3.6 1.6 5.3 1.6M675.81 314.4c-2.9 1.4-3.7 7.6-1.3 9.6 2.2 1.9 23.4 1.7 24.6-.2 1.4-2.2 1-7.5-.7-8.8-2-1.7-19.5-2.1-22.6-.6m22.4 7.9c-.9 1.8-1.1 1.4-1.1-2.8.1-4.6.1-4.8 1.1-2.2.7 2 .7 3.5 0 5m-22.2-2.6c-.1 3.1-.3 3.5-1.1 2-.6-.9-.7-2.6-.4-3.7 1-3 1.5-2.4 1.5 1.7m10.8-.5c-.7 1.9-3.8 2.2-3.8.4 0-1 .9-1.6 2.1-1.6s1.9.5 1.7 1.2M1808.31 319.2c-1.1 1.8-1.1 46 0 47.5.7.9 4.4 1.3 12.3 1.3 9.8 0 11.4-.2 12.1-1.8 1-2.1.9-45.4-.1-47-1-1.7-23.2-1.7-24.3 0m19.7 5.2c0 1.8-2.2 2.6-7.5 2.6s-7.5-.8-7.5-2.6c0-1.1 1.8-1.4 7.5-1.4s7.5.3 7.5 1.4m0 7.5c0 2-.2 2.1-1.5 1.1-.9-.8-2.5-.9-4.2-.5-1.6.5-3.9.7-5.2.6-2.6-.3-4.1 1.3-4.1 4.6 0 2.6 3 4.6 5 3.3.7-.5 2.4-.3 3.7.3 1.8.8 2.9.8 4.4-.1 1.6-1.1 1.9-.9 1.9.8 0 1.1-.4 2-1 2-.5 0-1 1.6-1 3.5v3.5h-6.5c-5.1 0-6.5.3-6.5 1.5s1.5 1.5 7.5 1.5c5.4 0 7.5.4 7.5 1.3s-2.2 1.2-8 1.2h-8v-27h8c7.8 0 8 0 8 2.4m-1.5 4.1c.8 2.6-.1 4-2.6 4-2.2 0-3.4-2.2-2.5-4.5.8-2.2 4.4-1.8 5.1.5m-8 1c0 .8-.8 1.6-1.7 1.8-1.3.2-1.8-.3-1.8-1.8s.5-2 1.8-1.8c.9.2 1.7 1 1.7 1.8m7.3 22.6c1.2.4 2.2 1.3 2.2 2 0 1.1-1.9 1.4-8 1.4-6.3 0-8-.3-8-1.4 0-.8.8-1.7 1.8-1.9 2.6-.7 9.4-.7 12-.1M518.21 321.2c-1.6 1.6-1.7 47.4-.1 48.4 1.7 1 23 .7 24.1-.4 1.5-1.5 1.3-45.9-.2-47.7-1.6-1.9-21.9-2.2-23.8-.3m19.8 6.3c0 1.2-1.6 1.5-8 1.5s-8-.3-8-1.5 1.6-1.5 8-1.5 8 .3 8 1.5m-.1 8.2c0 3.7-.2 4.3-.9 2.7-1.1-2.7-3.6-3.7-6.1-2.3-1.1.5-2.9.7-4 .4-1.1-.4-2.6-.1-3.4.5-1.3 1-1.5.7-1.5-1.8v-3.1l7.8-.4c4.2-.1 7.8-.4 8-.5.1-.1.2 1.9.1 4.5m-2.5 3.7c.9 1.3.7 2-.8 3.1-1.1.8-1.6 1.8-1.2 2.2.4.5 1.6-.3 2.7-1.6l1.9-2.3V359h-8c-6.4 0-8-.3-8-1.5s1.5-1.5 7.5-1.5h7.5v-5c0-2.8-.4-5-1-5-.5 0-1 1.6-1 3.5v3.5h-13v-5.1c0-4.5.2-5 1.5-3.9.9.7 1.9.9 2.3.5s.1-1-.5-1.2c-1.8-.6-1.7-5.3.1-5.3.7 0 2.1 1 2.9 2.2l1.6 2.3v-2.2c.1-3.5 3.6-4.1 5.5-.9m2.6 24.1c0 1.2-1.6 1.5-8 1.5s-8-.3-8-1.5 1.6-1.5 8-1.5 8 .3 8 1.5M840.11 323.3c-1.7 1.7-1.3 7.2.7 9 1.4 1.3 3.9 1.7 10.9 1.7 12.1 0 12.3-.1 12.3-6.5v-5.3h-11.4c-7.2-.1-11.7.3-12.5 1.1m1.9 5.4c0 2.2-.2 2.5-1 1.3-1.3-2-1.3-4 0-4 .6 0 1 1.2 1 2.7m12.8.1c.2.7-.6 1.2-1.7 1.2-2.1 0-2.7-1.1-1.4-2.4.9-.9 2.6-.2 3.1 1.2M1520.21 323.2c-2.1 2.1-1.5 7.5 1 9.2 2.6 1.8 18 2.2 22.2.6 2.6-.9 2.8-2.2 1.7-10.3-.2-1.3-23.6-.8-24.9.5m23.8 1.3c0 .8-.2 1.5-.4 1.5s-.6-.7-1-1.5c-.3-.8-.1-1.5.4-1.5.6 0 1 .7 1 1.5m-22 3.2c-.1 3.1-.3 3.5-1.1 2-.6-.9-.7-2.6-.4-3.7 1-3 1.5-2.4 1.5 1.7m11.5.3c-1 1.1-2.4 2-3.2 2-.7 0-1.3-.9-1.3-2 0-1.6.7-2 3.2-2 3 0 3.1 0 1.3 2m10.7 3.2c-.9.9-1.2.7-1.2-1.2s.3-2.1 1.2-1.2.9 1.5 0 2.4M1783.01 324.7c-1.4.3-2.9.9-3.4 1.4-.6.5-2.9.9-5.3.9h-4.3v29h4.4c3.8 0 4.5.3 4.9 2.2l.4 2.3.2-2.3c.1-2.1.4-2.2 10.1-2.2h10v-29h-4.6c-2.7 0-5.1-.6-6-1.5-1.6-1.5-2-1.6-6.4-.8m-.3 1.9c-.3.3-1.2.4-1.9.1-.8-.3-.5-.6.6-.6 1.1-.1 1.7.2 1.3.5m5.6.1c-.7.2-1.9.2-2.5 0-.7-.3-.2-.5 1.2-.5s1.9.2 1.3.5m8.7 14.9V353h-8.5c-6.1 0-8.5-.4-8.6-1.3q0-1.5-.6 0c-.2.7-1.8 1.3-3.4 1.3h-2.9v-22.8h24z" style="fill:#000;stroke:none;stroke-width:.1"/><path d="M1782.51 332.9c-2.3.5-3 1.2-3 3 0 1.4.7 2.6 1.5 2.9 1.2.4 1.3.2.3-.9-.7-.7-1.3-1.9-1.3-2.6 0-1.7 2.6-1.7 3.4-.1.5 1 .7 1 1.2 0 .8-1.6 4.4-1.6 4.4.1 0 .7-.6 1.9-1.2 2.6-1.1 1.1-1 1.3.2.9 2-.6 2.6-4.8.8-5.9-1.4-1-1.9-1-6.3 0M1780.31 341.7c-.8.2-1.3 2.2-1.3 4.4v3.9h5.5c3 0 5.5-.5 5.5-1 0-.6-.9-1-1.9-1-1.2 0-2.1-1-2.6-2.7-.9-3.7-2.5-4.8-5.2-3.6m3.7 3.8c0 1.8-.5 2.5-2 2.5-2 0-2.8-2.8-1.3-4.3 1.5-1.6 3.3-.6 3.3 1.8M1698.01 341.5V356h29v-29h-29zm26-8.7c0 1.6-.8 3.2-2 4-1.1.7-2 1.7-2 2.3 0 .5.5.7 1 .4.6-.4 1 1 1 3.4 0 2.3.5 4.1 1 4.1.6 0 1 1.3 1 3v3h-23l.2-8.3c.1-6.1.3-6.8.5-3 .5 6.7 2.3 7 2.3.4 0-3.9.4-5.1 1.8-5.4.9-.3.2-.5-1.5-.6-3-.1-3.3-.4-3.3-3.1v-3h23z" style="fill:#000;stroke:none;stroke-width:.1"/><path d="M1709.01 341.5c0 3 .5 5.5 1 5.5.6 0 1-.8 1-1.9 0-1.2.9-2 2.9-2.4 5.8-1.2 4.6-6.7-1.5-6.7h-3.4zm6.8-2.3c.3 1.3-.3 1.8-2.2 1.8-2 0-2.6-.5-2.6-2.1 0-1.5.5-2 2.2-1.7 1.3.2 2.4 1.1 2.6 2M674.21 335.2c-2.2 2.2-1.5 7.6 1.3 9.4 3.3 2.2 22.1 1.7 23.5-.6 1.4-2.1 1.2-7.4-.2-8.8-1.7-1.7-22.9-1.7-24.6 0m24.4 3.5c.1 1.5-.1 3.4-.5 4.1-.5.9-.9-.3-.9-3.3-.1-5 .8-5.6 1.4-.8m-22.6 1c-.1 3.1-.3 3.5-1.1 2-.6-.9-.7-2.6-.4-3.7 1-3 1.5-2.4 1.5 1.7m13 1.3c0 .6-.9 1-1.9 1-1.3 0-1.9-.6-1.8-1.9.1-1.6.5-1.8 1.9-1 1 .5 1.8 1.4 1.8 1.9M840.21 341.2c-1.8 1.8-1.4 7.3.6 9.1 1.5 1.3 3.8 1.7 10.8 1.6 8.4-.1 18.2-1.5 12.7-1.8-2.8-.1-2.8-.5-.3-3.9 1.3-1.7 1.8-3.5 1.4-4.5-.5-1.5-2.2-1.7-12.3-1.7q-11.7 0-12.9 1.2m23.8 1.7c0 1.1-.4 2.3-1 2.6-.6.4-1-.5-1-1.9s.5-2.6 1-2.6c.6 0 1 .9 1 1.9m-22 3.2c0 1.1-.4 1.7-1 1.4-.5-.3-1-1.3-1-2.1s.5-1.4 1-1.4c.6 0 1 .9 1 2.1m13 .9c0 .6-.9 1-1.9 1-1.3 0-1.9-.6-1.8-1.9.1-1.6.5-1.8 1.9-1 1 .5 1.8 1.4 1.8 1.9M1504.21 341.2c-.7.7-1.2 2.7-1.2 4.4 0 5.1 2.8 6.4 13.1 6.4 11.7 0 11.9-.1 11.9-6.6V340h-11.3c-7.5 0-11.7.4-12.5 1.2m1.8 4.5c-.1 3.1-.3 3.5-1.1 2-.6-.9-.7-2.6-.4-3.7 1-3 1.5-2.4 1.5 1.7m11 .3c0 1.3-.7 2-2 2s-2-.7-2-2 .7-2 2-2 2 .7 2 2M1506.31 357.8c-1.7 1.1-2 22.7-.3 24.7 1.8 2.2 7.3 1.9 9.5-.5 1.5-1.6 1.7-3.4 1.3-12.5-.3-7.9-.7-10.8-1.8-11.5-1.8-1.2-7-1.3-8.7-.2m7.1.8c3.1 1.2 1.6 2.4-2.9 2.4-4.4 0-6.1-1.4-2.7-2.3 2.7-.7 3.9-.7 5.6-.1m-.4 12.4c0 2.3-.4 3-2 3-2.3 0-2.7-2.3-.7-4.5 1.9-2.2 2.7-1.8 2.7 1.5m-.5 11c-.3.5-1.3 1-2.1 1s-1.4-.5-1.4-1c0-.6.9-1 2.1-1 1.1 0 1.7.4 1.4 1M840.21 359.2c-2.1 2.1-1.5 7.6 1.1 9.2 3.1 2.1 22.4 1.7 23.7-.4.9-1.4.4-7.3-.7-9.3-.7-1.2-22.8-.8-24.1.5m23 3c-.9.9-1.2.7-1.2-1.2s.3-2.1 1.2-1.2.9 1.5 0 2.4m-21.2 1.5c0 2-.3 2.4-1.1 1.6-.7-.7-.9-1.9-.6-2.7 1-2.4 1.7-1.9 1.7 1.1m13 1.3c0 .6-.9 1-1.9 1-1.3 0-1.9-.6-1.8-1.9.1-1.6.5-1.8 1.9-1 1 .5 1.8 1.4 1.8 1.9m9 1c0 1.1-.4 2-1 2-.5 0-1-.9-1-2s.5-2 1-2c.6 0 1 .9 1 2M1626.21 371.8c-.8.6-1.2 3.8-1.3 10.3v11.2c0 4.9 7.6 6.7 10.5 2.5 2.3-3.2 2.3-21 0-23.2-1.6-1.7-7-2.1-9.2-.8m7.8 1.2c1.1.7.1 1-3.5.9-3.7 0-4.5-.3-3-.9 2.7-1.2 4.7-1.2 6.5 0m-2 10.9c1.4 2.7 1.3 3.1-1 3.1-1.5 0-2-.7-2-2.5 0-3 1.5-3.3 3-.6m.4 12.3c-1.5.7-2.8.7-4-.1-1.6-.9-1.2-1 2.1-1 3.5 0 3.7.2 1.9 1.1M1643.51 372c-.2.4-.5 5.7-.6 11.9-.1 12.5.5 14.1 5.7 14.1 5.1 0 6.4-2.7 6.4-13.2 0-12.2-.7-13.6-6.5-13.6-2.5.1-4.8.4-5 .8m9 1c.3.5-.3 1-1.5 1s-1.8-.5-1.5-1c.3-.6 1-1 1.5-1s1.2.4 1.5 1m-5.8.6c-.3.3-1.2.4-1.9.1-.8-.3-.5-.6.6-.6 1.1-.1 1.7.2 1.3.5m4.3 11.4c0 1.3-.7 2-2 2s-2-.7-2-2 .7-2 2-2 2 .7 2 2m-.6 11.2c-1.5.7-2.8.7-4-.1-1.6-.9-1.2-1 2.1-1 3.5 0 3.7.2 1.9 1.1M1664.91 373.6c-.5.7-.8 7.8-.7 16l.3 14.9 7.3.3c4.1.2 7.9-.1 8.5-.7 1.3-1 1.6-29.5.4-30.7-1.1-1.2-14.8-.9-15.8.2m6.5 4.6c.5 1 .7 1 1.2 0 .3-.6 1.5-1.2 2.6-1.2 3.5 0 1.3 2.5-2.5 2.8-2.8.2-3.7-.1-3.7-1.2 0-1.9 1.6-2.1 2.4-.4m5.6 4.7c0 1.2-5 2.1-6.9 1.3-1-.5-.1-.9 2.4-1.3 2.2-.3 4.1-.7 4.3-.8.1 0 .2.3.2.8m-.2 4.4c.4 2.2-2.7 3.5-3.8 1.6-1-1.5.7-4.2 2.4-3.6.6.2 1.2 1.1 1.4 2m-5.8.2c0 .8-.4 1.5-1 1.5-.5 0-1-.7-1-1.5s.5-1.5 1-1.5c.6 0 1 .7 1 1.5m4.6 3.5c.8 0 1.4.4 1.4 1 0 .5-.7 1-1.6 1-.8 0-1.2.4-.9 1 .4.6-.6 1-2.3 1-2.1 0-2.9-.5-2.9-1.8 0-2 1.7-3.4 3.5-2.7.8.3 2 .5 2.8.5m.4 8c0 .5-1.6 1-3.5 1s-3.5-.5-3.5-1c0-.6 1.6-1 3.5-1s3.5.4 3.5 1M834.01 379c-1.2.8-1.5 14.9-.3 16.1.6.6 7.1.8 15.9.7l14.9-.3.3-7.4c.2-4.3-.2-7.9-.8-8.5-1-1-28.4-1.6-30-.6m6 8c0 2.2-.2 4-.5 4-1 0-2.4-5-1.9-6.5 1.1-2.8 2.4-1.5 2.4 2.5m9-3.1c0 .5-.7 1.4-1.5 2.1-2.2 1.8-1.8 3 1 3 1.4 0 2.5.4 2.5 1 0 .5-1.3 1-3 1-2.1 0-3-.5-3-1.6 0-.8-.4-1.2-1-.9s-1-.5-1-1.9c0-1.3.6-2.7 1.3-2.9 2-.9 4.7-.8 4.7.2m6 3.1c0 2.9-.4 4-1.5 4-1.8 0-2-2-.2-2.1q1.5 0 0-.6c-1.9-.7-1.6-5.3.2-5.3 1.1 0 1.5 1.1 1.5 4m5-3c0 .5-.4 1-1 1-.5 0-1-.5-1-1 0-.6.5-1 1-1 .6 0 1 .4 1 1m-9 2c0 1.1-.7 2-1.5 2-1.3 0-1.4-.4-.5-2 .6-1.1 1.3-2 1.5-2 .3 0 .5.9.5 2m9 2.5c0 1.4-.4 2.5-1 2.5-.5 0-1-1.1-1-2.5s.5-2.5 1-2.5c.6 0 1 1.1 1 2.5M1517.81 405.2c-.4 12.1.4 14.2 5.4 14.6 5.4.5 6.8-2.1 6.8-12.9 0-11.7-.1-11.9-6.5-11.9h-5.4zm8.2-.7c0 .9-.6 1.2-1.6.8-1.3-.5-1.3-.7-.2-1.4 1.7-1.1 1.8-1.1 1.8.6m0 4c0 .8-.8 1.1-2 .8-1.1-.3-2-1.1-2-1.8 0-.8.8-1.1 2-.8 1.1.3 2 1.1 2 1.8m-.6 9.7c-1.5.7-2.8.7-4-.1-1.6-.9-1.2-1 2.1-1 3.5 0 3.7.2 1.9 1.1M1535.81 405.2c-.4 12.1.4 14.2 5.4 14.6 5.4.5 6.8-2.1 6.8-12.9 0-11.7-.1-11.9-6.5-11.9h-5.4zm8.2.8c0 2.3-.4 3-2 3-2.3 0-2.7-2.3-.7-4.5 1.9-2.2 2.7-1.8 2.7 1.5m-.6 12.2c-1.5.7-2.8.7-4-.1-1.6-.9-1.2-1 2.1-1 3.5 0 3.7.2 1.9 1.1M1698.01 409.5V424h29v-29h-29zm26-8.6c0 2.3-.5 3-2.2 3.3-1.2.2-2.3 1-2.6 1.8-.4 1.2-.2 1.3.9.2.7-.6 1.9-1.2 2.6-1.2 2.3 0 1.4 3.3-1.9 6.7l-3.2 3.3h3.2c2.9 0 3.2.3 3.2 3v3h-23l.2-8.3c.1-6.1.3-6.8.5-3 .5 6.7 2.3 7 2.3.4 0-3.9.4-5.1 1.8-5.4.9-.3.2-.5-1.5-.6-3-.1-3.3-.4-3.3-3.1v-3h23zm0 11.6c0 .8-.7 1.5-1.5 1.5-2.6 0-1.8-2 1.3-2.9.1-.1.2.6.2 1.4" style="fill:#000;stroke:none;stroke-width:.1"/><path d="M1709.01 409.5c0 3 .5 5.5 1 5.5.6 0 1-.8 1-1.9 0-1.2.9-2 2.9-2.4 5.8-1.2 4.6-6.7-1.5-6.7h-3.4zm6.8-2.3c.3 1.3-.3 1.8-2.2 1.8-2 0-2.6-.5-2.6-2.1 0-1.5.5-2 2.2-1.7 1.3.2 2.4 1.1 2.6 2M1812.71 398.2c-1.7 1-1.8 29.5-.1 30.9.7.5 4.5.9 8.6.7l7.3-.3.3-14.9c.1-8.2-.2-15.4-.7-15.9-1-1-13.8-1.5-15.4-.5m8.3 5.8c0 .5-.6 1-1.4 1s-1.8-.5-2.1-1c-.3-.6.3-1 1.4-1 1.2 0 2.1.4 2.1 1m3 0c0 .5-.4 1-1 1-.5 0-1-.5-1-1 0-.6.5-1 1-1 .6 0 1 .4 1 1m0 4.8c0 .4-1.8.6-4 .4s-4-.6-4-.8 1.8-.4 4-.4 4 .3 4 .8m-4.5 3.8c0 1-.8 2-1.7 2.2-1.8.3-2.6-2.7-1.1-4.2 1.2-1.1 2.8 0 2.8 2m3.5-1.6c1.2.8 1.3 1.3.2 3-.7 1.2-.8 2-.2 2 .5 0 1 .4 1 1 0 .5-.7 1-1.6 1-.8 0-1.2.4-.9 1 .4.6-.6 1-2.2 1-3.6 0-4.5-3.7-1-4.2 1.7-.2 2.2-1 2.2-3.1-.1-2.9.2-3.2 2.5-1.7m.5 13c-.3.5-2.2 1-4.1 1s-3.4-.5-3.4-1c0-.6 1.8-1 4.1-1 2.4 0 3.8.4 3.4 1M840.21 406.2c-1.8 1.8-1.4 7.3.6 9.1 1.4 1.3 3.9 1.7 11 1.7 5 0 10.2-.4 11.6-1 2.6-.9 2.8-2.2 1.7-10.3-.2-1.3-23.6-.8-24.9.5m23.8 1.3c0 .8-.4 1.5-1 1.5-.5 0-1-.7-1-1.5s.5-1.5 1-1.5c.6 0 1 .7 1 1.5m-22 3.6c0 1.1-.4 1.7-1 1.4-.5-.3-1-1.3-1-2.1s.5-1.4 1-1.4c.6 0 1 .9 1 2.1m9-1.7c0 .3-.4.8-1 1.1-.5.3-1 .1-1-.4 0-.6.5-1.1 1-1.1.6 0 1 .2 1 .4m3 1.1c0 .8-.7 1.5-1.5 1.5-.9 0-1.2-.6-.9-1.5.4-.8 1-1.5 1.5-1.5s.9.7.9 1.5m10.5 2.5c0 .7-.6 1.5-1.2 1.7-.8.3-1.3-.4-1.3-1.7s.5-2 1.3-1.8c.6.3 1.2 1.1 1.2 1.8M674.21 409.2c-2.1 2.1-1.5 7.5 1 9.2 2.6 1.8 18 2.2 22.2.6 2.6-.9 2.8-2.2 1.7-10.3-.2-1.3-23.6-.8-24.9.5m23.5 2c-.3.8-.6.5-.6-.6-.1-1.1.2-1.7.5-1.3.3.3.4 1.2.1 1.9m-21.7 2.5c-.1 3.1-.3 3.5-1.1 2-.6-.9-.7-2.6-.4-3.7 1-3 1.5-2.4 1.5 1.7m13 1.3c0 .6-.9 1-1.9 1-1.3 0-1.9-.6-1.8-1.9.1-1.6.5-1.8 1.9-1 1 .5 1.8 1.4 1.8 1.9m9.2 2.2c-.9.9-1.2.7-1.2-1.2s.3-2.1 1.2-1.2.9 1.5 0 2.4M1663.21 418.2c-2.1 2.1-1.5 7.6 1.1 9.2 3.1 2.1 22.4 1.7 23.7-.4 1.4-2.1 1.2-7.4-.2-8.8-1.7-1.7-22.9-1.7-24.6 0m24.4 3.5c.1 1.5-.1 3.4-.5 4.1-.5.9-.9-.3-.9-3.3-.1-5 .8-5.6 1.4-.8m-22.6 1c-.1 3.1-.3 3.5-1.1 2-.6-.9-.7-2.6-.4-3.7 1-3 1.5-2.4 1.5 1.7m12 .3c0 1.3-.7 2-2 2s-2-.7-2-2 .7-2 2-2 2 .7 2 2M840.21 424.2c-.7.7-1.2 2.7-1.2 4.5 0 4.9 2.7 6.1 13.3 5.9l8.9-.1 1.3-3.9c.8-2.1 1.8-4.3 2.4-4.9s1.1-1.5 1.1-1.9c0-1.3-24.4-1-25.8.4m23.2 1.3c-.4.8-.8 1.5-1 1.5s-.4-.7-.4-1.5.4-1.5 1-1.5c.5 0 .7.7.4 1.5m-21.4 3.2c0 2-.3 2.4-1.1 1.6-.7-.7-.9-1.9-.6-2.7 1-2.4 1.7-1.9 1.7 1.1m9-1.3c0 .3-.4.8-1 1.1-.5.3-1 .1-1-.4 0-.6.5-1.1 1-1.1.6 0 1 .2 1 .4m3 1.1c0 .8-.7 1.5-1.5 1.5-.9 0-1.2-.6-.9-1.5.4-.8 1-1.5 1.5-1.5s.9.7.9 1.5M675.71 432.5c-2.8 1.3-3.6 7.5-1.2 9.5 1 .8 4.8 1.4 10.3 1.5 11.1.3 12.2 0 12.2-3.3 0-1.5.7-3.8 1.6-5 .9-1.3 1.4-2.6 1.1-2.9-1.1-1-21.9-.9-24 .2m.3 5.2c-.1 3.1-.3 3.5-1.1 2-.6-.9-.7-2.6-.4-3.7 1-3 1.5-2.4 1.5 1.7m13 .8c0 .3-.8.5-1.8.5s-1.9-.7-1.9-1.4c0-1.1.5-1.3 1.9-.5 1 .5 1.8 1.2 1.8 1.4M738.01 461v15h29v-30h-29zm26-9.1c0 2.3-.5 3-2.2 3.3-1.2.2-2.4 1-2.6 1.8-.5 1.3-.3 1.3 1.2.1 2.3-1.9 4.5.1 2.6 2.4-.8 1-.9 1.5-.1 1.5.6 0 1.1.9 1.1 2 0 2.3-1.9 2.6-3.9.7-1.1-1-1.3-.9-.9.3.3.8 1.4 1.6 2.6 1.8 1.8.3 2.2 1 2.2 3.8v3.4h-23l.2-8.8c.1-6 .3-7.1.5-3.5.5 6.7 2.3 7 2.3.4 0-3.9.4-5.1 1.8-5.4.9-.3.2-.5-1.5-.6-3-.1-3.3-.4-3.3-3.1v-3h23z" style="fill:#000;stroke:none;stroke-width:.1"/><path d="M749.01 460.5c0 3 .5 5.5 1 5.5.6 0 1-.8 1-1.9 0-1.2.9-2 2.9-2.4 5.8-1.2 4.6-6.7-1.5-6.7h-3.4zm6.8-2.3c.3 1.3-.3 1.8-2.2 1.8-2 0-2.6-.5-2.6-2.1 0-1.5.5-2 2.2-1.7 1.3.2 2.4 1.1 2.6 2M310.01 461.5V476h30.1l-.3-14.3-.3-14.2-14.7-.3-14.8-.3zm26.9-4.8c-.2 5.6-.3 6.1-.8 2.9l-.6-4-2.7 3.6c-3.4 4.5-3.4 4.8-.3 4.8 1.7 0 2.5.6 2.5 1.7 0 1.5.2 1.6 1 .3.7-1.1 1-.2 1 3.2v4.8h-24l.2-8.8c.1-6 .3-7.1.5-3.5.5 6.7 2.3 7 2.3.4 0-3.9.4-5.1 1.8-5.4.9-.3.2-.5-1.5-.6-3-.1-3.3-.4-3.3-3.1v-3h24zm-1.9 4.3c0 1.1-.7 2-1.5 2-1.3 0-1.4-.4-.5-2 .6-1.1 1.3-2 1.5-2 .3 0 .5.9.5 2" style="fill:#000;stroke:none;stroke-width:.1"/><path d="M321.01 461.5c0 3 .5 5.5 1 5.5.6 0 1-.8 1-1.9 0-1.2.9-2 2.9-2.4 5.8-1.2 4.6-6.7-1.5-6.7h-3.4zm6.8-2.3c.3 1.3-.3 1.8-2.2 1.8-2 0-2.6-.5-2.6-2.1 0-1.5.5-2 2.2-1.7 1.3.2 2.4 1.1 2.6 2M679.61 449.5c-.8.8-2.1 1.5-2.8 1.5-1 0-.9-.3.2-1 1.3-.8 1.2-1-.2-1-1 0-1.8.8-1.9 1.7-1 20.9-.4 23.3 5.6 23.3 5.1 0 6.2-2.5 6-14.3-.1-7.3-.5-10.1-1.6-10.8-2-1.3-3.6-1.1-5.3.6m4.7 1.2c-.7.2-2.1.2-3 0-1-.3-.4-.5 1.2-.5 1.7 0 2.4.2 1.8.5m-2.3 9.4c0 1.1-.4 1.7-1 1.4-.5-.3-1-1.3-1-2.1s.5-1.4 1-1.4c.6 0 1 .9 1 2.1m.5 11.9c-.3.5-1.2 1-2 1s-1.7-.5-2-1c-.4-.6.5-1 2-1s2.4.4 2 1M777.91 458.4c-.5 12.8.2 15 5 15.4 5.7.6 7.1-1.7 7.1-11.9 0-10.8-1-13.9-4.5-13.9-1.4 0-2.8.7-3.1 1.5-.8 2.1-3.2 1.9-3.7-.3-.2-.9-.6 3.2-.8 9.2m9.6-8.4c.4.6-.6 1-2.2 1-2.2 0-2.5-.2-1.3-1 1.9-1.2 2.7-1.2 3.5 0m-1.5 10.1c0 2.4-2.3 2.1-2.8-.4-.2-1 .3-1.7 1.2-1.7 1 0 1.6.9 1.6 2.1m-.5 11.9c-.3.5-1.3 1-2.1 1s-1.4-.5-1.4-1c0-.6.9-1 2.1-1 1.1 0 1.7.4 1.4 1M832.01 448.7c0 .8-1.4 1.3-3.4 1.3h-3.4l-.1 8.7c-.1 4.9-.2 9.6-.2 10.6 0 2.9 2.1 4.7 5.6 4.7 5.4 0 6.5-2.3 6.5-13.4 0-8.3-.2-9.8-1.7-10.3-1-.4-2.1-1.1-2.5-1.7-.5-.7-.8-.7-.8.1m1 11.4c0 2.4-2.3 2.1-2.8-.4-.2-1 .3-1.7 1.2-1.7 1 0 1.6.9 1.6 2.1m-.5 11.9c-.3.5-1.3 1-2.1 1s-1.4-.5-1.4-1c0-.6.9-1 2.1-1 1.1 0 1.7.4 1.4 1M1667.71 450.7c-1.3 1.2-.8 30.1.5 30.9 1.5.9 14.6.9 15.5 0 1.1-1.1 1.1-29 0-30.4-1-1.3-14.8-1.8-16-.5m6.3 4.7c0 .3-.4.8-1 1.1-.5.3-1 .1-1-.4 0-.6.5-1.1 1-1.1.6 0 1 .2 1 .4m6 .6c0 .5-1.1 1-2.5 1s-2.5-.5-2.5-1c0-.6 1.1-1 2.5-1s2.5.4 2.5 1m-2.4 5c-1.7.6-3.6.5-4.5 0-1.1-.7-.3-.9 2.9-.9 4.2.1 4.3.1 1.6.9m2.2 3.3c.4 2.2-2.7 3.5-3.8 1.6-1-1.5.7-4.2 2.4-3.6.6.2 1.2 1.1 1.4 2m-5.8.2c0 .8-.4 1.5-1 1.5-.5 0-1-.7-1-1.5s.5-1.5 1-1.5c.6 0 1 .7 1 1.5m4.6 3.5c2.7 0 1.4 2.8-1.6 3.5-3.3.7-5 .1-5-2 0-1.6 1.9-2.5 3.8-1.9.8.2 2 .4 2.8.4m.9 8.5c0 .5-1.7 1.1-3.7 1.3-3.6.3-4.7-.5-3.1-2.2 1.1-1 6.8-.3 6.8.9M704.21 461.2l.3 10.2h11l.3-10.2.3-10.2h-12.2zm7.1-1.2c.3 0 .8-.8 1-1.8.3-1.1.5-.7.6 1 .1 1.8-.5 2.9-1.9 3.3-1.1.3-2 1.3-2 2.1s-.4 1.4-1 1.4c-1.4 0-1.2-2.7.3-3.4 1-.5 1-.7 0-1.2-.7-.3-1.3-1.5-1.3-2.6 0-2 .1-2 1.8-.5 1 1 2.1 1.7 2.5 1.7m1.7 5c0 .5-.4 1-1 1-.5 0-1-.5-1-1 0-.6.5-1 1-1 .6 0 1 .4 1 1M722.21 461.1l.3 10.1 5.5.1 5.5.1.3-10.2.3-10.2h-12.2zm8.6-1.7c.1 1.7-.5 2.7-1.8 3.1-1.1.4-2 1.3-2 2.1s-.4 1.4-1 1.4c-1.4 0-1.2-2.7.3-3.4 1-.5 1-.7 0-1.2-.7-.3-1.3-1.4-1.3-2.5 0-1.4.7-1.9 2.8-1.9 2.2 0 2.8.5 3 2.4m.2 5.6c0 .5-.4 1-1 1-.5 0-1-.5-1-1 0-.6.5-1 1-1 .6 0 1 .4 1 1M402.41 455.1c-.4.7-.7 14.2-.6 30.2 0 23 .3 29.1 1.4 29.8 2.2 1.5 46.5 1.1 47.5-.4 1.1-1.8 1.1-57.9 0-59.5-1.3-1.7-47.2-1.8-48.3-.1m43.6 7.8c0 3.5-.3 3.9-3.2 4.5-1.9.4-3.4.2-3.6-.4-.4-1.2-3.2-1.4-3.2-.1 0 1.4-10 2.3-11.6 1-.9-.8-3.2-1-6.5-.6-2.8.4-6.4.4-8 0-2.6-.5-2.9-.9-2.9-4.4V459h39zm-32.9 12.5c.5 5 2.9 7.9 5.8 7.4 2-.4 2.6-2.8.7-2.8-2.2 0-4.9-4.5-4.1-7 .5-1.6 1.5-2 4.5-2 3.4 0 4.4.6 8.2 5.1 3.7 4.3 8.3 7.9 10.3 7.9.3 0 .5-2.9.5-6.4 0-6.7.6-7.6 5.1-7.6 1.8 0 1.9.9 1.9 14.8v14.8l-3.5-.4-3.5-.4v-6.4c0-5-.3-6.4-1.5-6.4s-1.5 1.3-1.5 5.9v5.8l-12.7.5c-7.1.3-13.6.9-14.5 1.3-1.7.7-1.8-.4-1.8-14.5v-15.1l2.8.3c2.4.3 2.8.8 3.3 5.2m22.9-.2v4.2l-3.5-3.4c-1.9-1.9-3.5-3.8-3.5-4.2s1.6-.8 3.5-.8c3.4 0 3.5.1 3.5 4.2m10 30.8v4h-39v-8h39zM1125.11 456.7c-.1.8-1.5 1.3-3.6 1.3-1.9 0-3.4.3-3.4.7.1.5 0 1-.1 1.3s-.3 4.5-.5 9.5c-.3 10.9.9 13.5 5.9 13.5 1.8 0 3.9-.7 4.6-1.5 1.7-2.1 1.9-19.4.3-21.1-1-1-1-1.3 0-1.7.7-.3.6-.6-.5-.6-.9-.1-1.9-.7-2.1-1.4q-.6-1.5-.6 0m-.8 3c-.7.2-1.9.2-2.5 0-.7-.3-.2-.5 1.2-.5s1.9.2 1.3.5m.7 10.3c0 2.2-.5 3-1.7 2.9-1.1 0-1.3-.3-.6-.6.8-.3 1.1-1.4.7-2.9s-.2-2.4.5-2.4c.6 0 1.1 1.3 1.1 3m.5 11c-.3.5-1.2 1-2 1s-1.7-.5-2-1c-.4-.6.5-1 2-1s2.4.4 2 1M1135.01 466c0 5.8-.1 11.3-.1 12.3 0 2.9 2.1 4.7 5.6 4.7 5.3 0 6.5-2.3 6.5-12.8 0-5-.4-10.2-1-11.6-1.2-3.3-4.8-3.4-7.5-.4l-1.9 2.3-.7-2.5c-.4-1.4-.8 2-.9 8m9.1-7.5c0 1.3-4.1 1.9-4.1.7 0-1.1 2-2.2 3.3-1.8.5.1.8.6.8 1.1m-1.1 11.5c0 2.5-.4 3-2.2 2.9-1.3 0-1.7-.3-1.1-.6.8-.3 1.1-1.4.7-2.9-.5-1.8-.2-2.4 1-2.4 1.1 0 1.6.9 1.6 3m-.5 11c-.3.5-1.3 1-2.1 1s-1.4-.5-1.4-1c0-.6.9-1 2.1-1 1.1 0 1.7.4 1.4 1M1079.31 457.7c-1 .3-1.3 3.9-1.3 12.9V483h5.5c3.7 0 5.5-.4 5.6-1.3.1-.6.2-5.9.3-11.6.1-7.6-.2-10.8-1.2-11.7-1.3-1.4-6.4-1.8-8.9-.7m8.3 1.5c.3.3-1.7.6-4.3.6-3.3.1-4.3-.2-3.3-.8 1.4-.9 6.6-.7 7.6.2m-.6 8.4c0 1.4-.3 1.4-1.5.4-.8-.7-1.5-1.4-1.5-1.6s.7-.4 1.5-.4 1.5.7 1.5 1.6m-1.9 2.5c2.4 3.4 1.5 5.5-2 4.4-1.6-.5-2.1-1.5-2.1-4.1 0-4.2 1.2-4.3 4.1-.3M490.61 459.8c-.9.2-1.6.8-1.7 1.3-.4 5.2-.1 28.8.5 29.7.9 1.6 15.2 1.6 16.2.1 1.1-1.8.8-28.9-.4-30.1-.9-.9-11.1-1.6-14.6-1m4.9 7c-.8.8-2.5-1-1.9-2q.6-.9 1.5.3c.4.7.6 1.5.4 1.7m6-1.3c0 .5-1 1.1-2.2 1.3-1.6.2-2.3-.2-2.3-1.3s.7-1.5 2.3-1.3c1.2.2 2.2.7 2.2 1.3m-1.5 5.5c-3.6 1.2-7 1.2-7 0 0-.6 2.1-1 4.8-.9 3.8.1 4.2.2 2.2.9m-3.6 3.2c.5 1 .7 1 1.2 0 .8-1.6 4.4-1.6 4.4.1 0 .7-.5 1.8-1.2 2.5-.9.9-.9 1.2 0 1.2.7 0 1.2.4 1.2 1 0 .5-.7 1-1.6 1-.8 0-1.2.4-.9 1 .4.6-.7 1-2.5 1-1.7 0-2.9-.4-2.6-.9.4-.5 0-1.2-.6-1.5-1-.5-1-.7 0-1.2 1-.4 1-.9.2-2-1.2-1.3-.6-3.4 1-3.4.4 0 1.1.6 1.4 1.2m4.6 11.8c0 .5-1.6 1-3.5 1s-3.5-.5-3.5-1c0-.6 1.6-1 3.5-1s3.5.4 3.5 1M516.51 460.6c-.7.8-1.1 6-.9 15.5.1 7.9.2 14.8.3 15.2 0 .4 3.8.7 8.4.5l8.2-.3.3-14.9c.1-8.2-.2-15.4-.7-15.9-1.3-1.3-14.3-1.4-15.6-.1m7.5 4.9c0 .8-.9 1.5-2 1.5s-2-.7-2-1.5.9-1.5 2-1.5 2 .7 2 1.5m3.8.3c.2.7-.3 1.2-1.2 1.2s-1.6-.7-1.6-1.6c0-1.7 2.2-1.4 2.8.4m.2 4.9c0 .5-1.8.9-4 1-2.2.2-4-.2-4-.7 0-.6 1.8-1 4-1s4 .3 4 .7m-5.6 3.5c.5 1 .7 1 1.2 0 .8-1.6 4.4-1.6 4.4.1 0 .7-.5 1.8-1.2 2.5-.9.9-.9 1.2 0 1.2.7 0 1.2.4 1.2 1 0 .5-.7 1-1.6 1-.8 0-1.2.4-.9 1 .4.6-.6 1-2.2 1-2.7 0-2.8-.3-3-4.5-.2-4.3.9-5.9 2.1-3.3m5.1 11.8c-.3.5-2.2 1-4.1 1s-3.4-.5-3.4-1c0-.6 1.8-1 4.1-1 2.4 0 3.8.4 3.4 1M1700.01 459.7c0 .8-1.4 1.3-3.7 1.3l-3.8.1 3.5 3c3.4 2.9 3.4 3 .9 2.5-1.6-.3-3.1-.1-3.7.7-1.5 1.8-.8 24.2.8 26.1 1.6 2 7.4 2.1 8.9.2.6-.7 1.1-2.7 1.1-4.2 0-1.6.1-7 .2-11.9.3-7.5 0-9.3-1.4-10.8-1-.9-1.8-2.4-1.8-3.2s.8-1.5 1.8-1.6c1.3 0 1.4-.2.2-.6-.8-.3-1.8-1.1-2.2-1.7-.5-.8-.8-.7-.8.1m0 3.8c0 1.3-.4 1.4-2 .5-1.1-.6-2-1.3-2-1.5 0-.3.9-.5 2-.5s2 .7 2 1.5m0 12.5c0 1.3-.7 2-1.9 2-1.4 0-1.8-.5-1.4-2 .3-1.1 1.2-2 1.9-2 .8 0 1.4.9 1.4 2m1.8 12.2c3.1 3.1-1.5 7.1-5.7 4.9-2-1.1-2.8-4.1-1.4-5.4 1.1-1.1 5.8-.8 7.1.5M462.71 460.7c-.2.4-.4 7.5-.3 15.8l.1 15h17v-31l-8.2-.3c-4.5-.1-8.3.1-8.6.5m6.3 5.3c0 .5-.4 1-1 1-.5 0-1-.5-1-1 0-.6.5-1 1-1 .6 0 1 .4 1 1m6 0c0 .5-1.1 1-2.5 1s-2.5-.5-2.5-1c0-.6 1.1-1 2.5-1s2.5.4 2.5 1m0 4.8c0 .4-1.8.6-4 .4s-4-.6-4-.8 1.8-.4 4-.4 4 .3 4 .8m-4.5 3.8c0 1-.8 2-1.7 2.2-1.8.3-2.6-2.7-1.1-4.2 1.2-1.1 2.8 0 2.8 2m3.5-1.6c1.2.8 1.3 1.3.2 3-.7 1.2-.8 2-.2 2 .5 0 1 .4 1 1 0 .5-.7 1-1.6 1-.8 0-1.2.4-.9 1 .4.6-.6 1-2.2 1-3.6 0-4.5-3.7-1-4.2 1.7-.2 2.2-1 2.2-3.1-.1-2.9.2-3.2 2.5-1.7m0 12.9c0 1.1-3.8 2.1-5.6 1.4-2.6-1-1.4-2.3 2.1-2.3 1.9 0 3.5.4 3.5.9M542.41 461.3c-.2.7-.3 7.8-.2 15.7l.3 14.5 8.3.3c6.1.2 8.2 0 8.3-1 .6-7.4.2-28.6-.5-29.6-1.2-1.7-15.5-1.7-16.2.1m6.6 4.7c0 .5-.4 1-1 1-.5 0-1-.5-1-1 0-.6.5-1 1-1 .6 0 1 .4 1 1m6 0c0 .5-.9 1-1.9 1-1.1 0-2.3-.5-2.6-1-.4-.6.5-1 1.9-1s2.6.4 2.6 1m0 4.7c0 .5-1.8.9-4 1-2.2.2-4-.2-4-.7 0-.6 1.8-1 4-1s4 .3 4 .7m-5.6 3.5c.5 1 .7 1 1.2 0 .8-1.6 4.4-1.6 4.4.1 0 .7-.5 1.8-1.2 2.5-.9.9-.9 1.2 0 1.2.7 0 1.2.4 1.2 1 0 .5-.7 1-1.6 1-.8 0-1.2.4-.9 1 .4.6-.6 1-2.2 1-2.7 0-2.8-.3-3-4.5-.2-4.3.9-5.9 2.1-3.3m4.6 11.7c0 1.1-3.8 2.1-5.6 1.4-2.6-1-1.4-2.3 2.1-2.3 1.9 0 3.5.4 3.5.9M1560.01 477.5V492h26.1l-.2 17.6c-.2 14.3 0 17.7 1.2 18.5 2.4 1.5 22.5 1.1 23.8-.5.8-.9 1.1-8.3.9-24.7l-.3-23.4-10.7-.3-10.7-.3-.3-7.7-.3-7.7-14.7-.3-14.8-.3zm27-8.5c0 2.5-.4 3-2.5 3-5 0-5.8 9.2-1 11 2.5 1 3 2.5 1.9 5.4-.5 1.3-2.5 1.6-11.5 1.6h-10.9l.2-8.8c.1-6 .3-7.1.5-3.5.5 6.7 2.3 7 2.3.4 0-3.9.4-5.1 1.8-5.4.9-.3.2-.5-1.5-.6-3-.1-3.3-.4-3.3-3.1v-3h24zm-.7 5.4c.4.9-.3 1.6-1.9 1.9-1.4.2-2.4 0-2.4-.8 0-2.6 3.4-3.5 4.3-1.1m-.5 5.4c.2 1.4-.2 2.2-1.2 2.2-1.9 0-2.9-1.7-2.2-3.6.8-2.2 3-1.2 3.4 1.4m7.2 4.9c0 .5-.5 1.5-1 2.3-.8 1.2-1 1.1-1-.8 0-1.2.5-2.2 1-2.2.6 0 1 .3 1 .7m11 1.8c0 3.1-1 3.1-3.3 0-1.8-2.5-1.8-2.5.8-2.5 2 0 2.5.5 2.5 2.5m2.7.7c-.3.7-.5.2-.5-1.2s.2-1.9.5-1.3c.2.7.2 1.9 0 2.5m-8.6-1.2c2.8 1.6 2.3 3-1.1 3-2.8 0-4-1.7-2.3-3.3.8-.9 1.1-.9 3.4.3m8.9 7.8c0 2.2-.1 2.2-2.2.8-4.5-3.2-12.8-1.3-12.8 2.9s9.4 6.3 13.2 2.8c1.7-1.5 1.8-1.3 1.8 7.5 0 9.1 0 9.1-2.2 8.4-2.5-.9-11.2-.7-12.8.3-.6.4-1-3.9-1-12.2v-12.8h8c7.7 0 8 .1 8 2.3m-2.5 3.7c0 1.6-.8 2.1-4.4 2.3-4.8.4-6.7-.8-5.7-3.3.4-1.2 1.7-1.5 5.3-1.3 4 .3 4.8.6 4.8 2.3m-.5 23.5c0 1.7-.7 2-5 2s-5-.3-5-2 .7-2 5-2 5 .3 5 2m-12.3 1.2c-.3.8-.6.5-.6-.6-.1-1.1.2-1.7.5-1.3.3.3.4 1.2.1 1.9m15 0c-.3.8-.6.5-.6-.6-.1-1.1.2-1.7.5-1.3.3.3.4 1.2.1 1.9" style="fill:#000;stroke:none;stroke-width:.1"/><path d="M1571.01 477.5c0 3 .5 5.5 1 5.5.6 0 1-.8 1-1.9 0-1.2.9-2 2.9-2.4 5.8-1.2 4.6-6.7-1.5-6.7h-3.4zm6.8-2.3c.3 1.3-.3 1.8-2.2 1.8-2 0-2.6-.5-2.6-2.1 0-1.5.5-2 2.2-1.7 1.3.2 2.4 1.1 2.6 2M1593.71 509.5c2 2.7 3.8 3.3 2.9 1-.4-1.2.4-1.5 4.4-1.5 2.8 0 5-.5 5-1 0-.6-3-1-7-1h-7.1zM1042.01 477.5c0 5.7 1.6 7.6 2.3 2.7.4-2.5.4-2.5.6.5l.1 3.3 10.3-.1c5.6 0 11.1-.4 12.2-.9 1.7-.7 1.7-.9.3-.9-2.2-.1-2.3-1.5-.3-4.5.9-1.3 1.3-3.1.9-4-.5-1.4-2.5-1.6-13.5-1.6h-12.9zm2.7-1.3c-.3.7-.5.2-.5-1.2s.2-1.9.5-1.3c.2.7.2 1.9 0 2.5m22 0c-.3.7-.5.2-.5-1.2s.2-1.9.5-1.3c.2.7.2 1.9 0 2.5m-8.7-.5c0 .3-.7 1.5-1.7 2.5-.9 1-1.1 1.8-.5 1.8s1.8-1 2.6-2.2l1.6-2.2v2.6c0 2.6-.3 2.7-4.5 2.6-4.3 0-4.5-.2-4.5-2.9 0-2.6.3-2.9 3.5-2.9 1.9 0 3.5.3 3.5.7M1625.51 480.1c-.4.6-.7 11.5-.7 24.1 0 18.1.3 23.3 1.4 23.9 2.3 1.5 22.4 1.1 23.7-.5.8-.9 1.1-8.3.9-24.7l-.3-23.4-12.2-.3c-8.2-.2-12.4.1-12.8.9m6.4 5.6c-.7 1-1.5 2-1.6 2.2-.2.2-.3-.5-.3-1.7 0-1.4.6-2.2 1.6-2.2 1.4 0 1.5.3.3 1.7m14.1-.2c0 .8-.2 1.5-.4 1.5s-.6-.7-1-1.5c-.3-.8-.1-1.5.4-1.5.6 0 1 .7 1 1.5m-2.2 1.8c.3 1.3-.3 1.7-2.8 1.7-2.8 0-3-.2-2-2.1 1.3-2.4 4.3-2.2 4.8.4m-7 .4c.2.8-.5 1.3-1.7 1.3s-2.1-.6-2.1-1.6c0-1.8 3.1-1.5 3.8.3m9.2 6.5v2.8l-2-2c-3.7-3.7-13-2-13 2.5 0 4.7 10.5 6.4 13.4 2.3 1.5-2.1 1.6-1.6 1.6 7.5 0 9.6 0 9.6-2.2 8.9-2.5-.9-11.2-.7-12.8.3-.6.4-1-3.9-1-12.2v-12.8h16zm-2.5 3.3c0 1.6-.8 2.1-4.4 2.3-4.8.4-6.7-.8-5.7-3.3.4-1.2 1.7-1.5 5.3-1.3 4 .3 4.8.6 4.8 2.3m-.5 23.5c0 1.7-.7 2-5 2s-5-.3-5-2 .7-2 5-2 5 .3 5 2m-12.3 1.2c-.3.8-.6.5-.6-.6-.1-1.1.2-1.7.5-1.3.3.3.4 1.2.1 1.9m15 0c-.3.8-.6.5-.6-.6-.1-1.1.2-1.7.5-1.3.3.3.4 1.2.1 1.9" style="fill:#000;stroke:none;stroke-width:.1"/><path d="M1632.71 509.5c2 2.7 3.8 3.3 2.9 1-.4-1.2.4-1.5 4.4-1.5 2.8 0 5-.5 5-1 0-.6-3-1-7-1h-7.1zM1044.31 490.8c-2.1.3-2.3.9-2.3 5.8 0 5.6 1.6 7.4 2.3 2.6l.4-2.7.2 2.7.1 2.8h22v-5.5c0-3-.3-5.6-.7-5.6-1.9-.4-20-.4-22-.1m.4 4.4c-.3.7-.5.2-.5-1.2s.2-1.9.5-1.3c.2.7.2 1.9 0 2.5m13.3-1c0 1.9-3.2 4.8-5.2 4.8-1.3 0-1.8-.7-1.8-2.8 0-2.4.4-2.7 3.5-2.9 2-.1 3.5.3 3.5.9m2 2.8c0 1.1-.7 2-1.5 2-1.3 0-1.3-.3-.3-2 .7-1.1 1.4-2 1.5-2 .2 0 .3.9.3 2M1042.01 513.5c0 5.7 1.6 7.6 2.3 2.7.4-2.5.4-2.5.6.5l.1 3.3h10.4c11.8 0 13.6-.9 13.6-6.4 0-5.2-1.2-5.6-14.7-5.6h-12.3zm2.7-1.3c-.3.7-.5.2-.5-1.2s.2-1.9.5-1.3c.2.7.2 1.9 0 2.5m22.9.5c.1 1.5-.1 3.4-.5 4.1-.5.9-.9-.3-.9-3.3-.1-5 .8-5.6 1.4-.8m-11.6 1.5c0 2.3-.4 2.8-2.5 2.8s-2.5-.5-2.5-3c0-2.6.3-2.9 2.5-2.8 2 .2 2.5.8 2.5 3m4-.2c0 1.6-.4 3-1 3-.5 0-1-1.4-1-3 0-1.7.5-3 1-3 .6 0 1 1.3 1 3M1730.81 512.1c1.2.5 3.2 1.3 4.5 1.8 1.9.7 1.7.9-2 1.5-5.3.9-5.7 3.2-.8 4.2 6.1 1.1 3.8 2.4-4.5 2.4h-8v30l5.8.1c3.1 0 5.1.3 4.5.6-.7.2-1.3.9-1.3 1.4s1.6.2 3.6-.6 6.5-1.5 10-1.5h6.4v-30h-4.5c-2.5 0-4.5-.4-4.5-.9 0-.4-2.1-1.4-4.7-2.2l-4.8-1.3 4.8-1.4c2.6-.7 4.7-1.6 4.7-2.1 0-.4-2-1.2-4.5-1.9-5.3-1.4-8-1.5-4.7-.1m16.2 24.9v12h-3.5c-1.9 0-5.8-.9-8.7-2-5.8-2.2-8-1.9-2.7.4l3.4 1.5-6.2.1h-6.3v-24h24z" style="fill:#000;stroke:none;stroke-width:.1"/><path d="M1734.61 528.2c-.9 1.2-1.6 2.8-1.6 3.5s-.7 1.3-1.5 1.3c-1.8 0-2-3.1-.3-4.8.9-.9.9-1.2 0-1.2-1.8 0-3 3.3-2.1 5.7 1.2 3.4 3.8 2.8 5.5-1.2.8-1.9 1.9-3.5 2.4-3.5 2 0 2.2 3.1.4 5.2-1.9 2-1.9 2 .1 1.7 2.4-.5 3.3-5.2 1.4-7.5-1.6-1.9-2.5-1.8-4.3.8M1729.01 539.8c0 1.1 2.2 3.2 3.3 3.2.4 0 .5-.5.2-1-.4-.6 1-1 3.4-1 2.3 0 4.1-.5 4.1-1 0-.6-2.5-1-5.5-1s-5.5.4-5.5.8M1042.01 529.5c0 5.7 1.6 7.6 2.3 2.7.4-2.5.4-2.5.6.5l.1 3.3h10.4c11.8 0 13.6-.9 13.6-6.4 0-5.2-1.2-5.6-14.7-5.6h-12.3zm2.7-1.3c-.3.7-.5.2-.5-1.2s.2-1.9.5-1.3c.2.7.2 1.9 0 2.5m22.5 4.1c-.9 1.8-1.1 1.4-1.1-2.8.1-4.6.1-4.8 1.1-2.2.7 2 .7 3.5 0 5m-9.2-4.6c0 .3-.7 1.5-1.7 2.5-.9 1-1.1 1.8-.5 1.8s1.8-1 2.6-2.2l1.6-2.2v2.6c0 2.6-.3 2.7-4.5 2.6-4.3 0-4.5-.2-4.5-2.9 0-2.6.3-2.9 3.5-2.9 1.9 0 3.5.3 3.5.7M1816.01 542.5V557h29v-29h-29zm9.2-9.3c.3 2 .9 2.3 5.3 2.3s5-.3 5.3-2.3c.3-1.7 1-2.2 3.3-2.2h2.9v23h-6.4c-3.6 0-6.8-.5-7.1-1-.4-.6 1-1 3.4-1 2.3 0 4.1-.5 4.1-1 0-.6-2.5-1-5.5-1-5.6 0-6.5.6-4.3 2.8.9.9.3 1.2-3 1.2h-4.2v-23h2.9c2.3 0 3 .5 3.3 2.2m9.6-.5c-.2 1.4-1.3 1.8-4.3 1.8s-4.1-.4-4.3-1.8c-.3-1.4.4-1.7 4.3-1.7s4.6.3 4.3 1.7" style="fill:#000;stroke:none;stroke-width:.1"/><path d="M1825.41 538.8c.4.6 2.5 1.7 4.7 2.3 4.4 1.4 4.2 2.1-1.3 3.9-2.1.6-3.8 1.6-3.8 2.1 0 .7 9.7-2.5 10.9-3.7.7-.7-1.2-2-4.4-3.2-1.6-.5-3.9-1.3-4.9-1.8-1.3-.5-1.7-.4-1.2.4M1519.41 534.2c-1.3 2-1 29.9.3 30.9.6.6 4.4.9 8.5.7l7.3-.3.3-15.4c.2-11.7-.1-15.6-1-16.3-2-1.2-14.6-1-15.4.4m8.6 5.3c0 1.6-.9 1.9-3.4.9-2.5-.9-1.9-2.4.9-2.4 1.6 0 2.5.6 2.5 1.5m3-.6c0 .6-.4 1.3-1 1.6-.5.3-1-.1-1-.9 0-.9.5-1.6 1-1.6.6 0 1 .4 1 .9m0 5.3c0 .5-1.8.8-4 .8s-4-.3-4-.8c0-.4 1.8-.7 4-.7s4 .3 4 .7m-3.5 4.4c0 1-.8 2-1.8 2.2-2.2.4-3.5-2.7-1.6-3.9 2-1.2 3.4-.5 3.4 1.7m3.2 1.7c0 2-.3 3.7-.9 3.7-.5 0-.6.4-.3 1 1 1.6-3.5 1.2-5.1-.4-2-2-1.8-2.4 1.4-2.8 2.2-.2 2.7-.8 2.7-3.1-.1-4.1 2-2.6 2.2 1.6m-.6 8.7c.5 0 .9.4.9 1 0 1.3-6.7 1.3-7.5.1-.6-1.1 2.3-2.1 4.3-1.5.8.2 1.8.4 2.3.4M1777.01 536.7c0 .7-2.9 1.4-8 1.9l-8 .7V568h4.4c3.8 0 4.5.3 4.9 2.2l.4 2.3.2-2.3c.1-1.7.7-2.2 2.9-2.2 2.4 0 2.7.4 2.7 3.2 0 3.3 0 3.3 5 3.3s5 0 5-3.3c0-2.4.4-3.2 1.7-3.2 1.6 0 1.8-1.3 1.8-14.4v-14.4l-5.6-.4c-3.3-.3-6-1.1-6.5-1.9-.5-.9-.9-1-.9-.2m-1.1 6.5c1.1 1 1.4 1 1.8 0 .3-.7 2.4-1.2 5.4-1.2h4.9v24h-8.5c-7.4 0-8.5-.2-8.6-1.8s-.2-1.6-.6 0c-.3 1.2-1.4 1.8-3.4 1.8h-2.9v-24h5.3c2.9 0 5.9.6 6.6 1.2m9.9 28.1c.4 2.2-2.7 3.5-3.8 1.6-1-1.5.7-4.2 2.4-3.6.6.2 1.2 1.1 1.4 2m-5.8.2c0 .8-.7 1.5-1.5 1.5s-1.5-.7-1.5-1.5.7-1.5 1.5-1.5 1.5.7 1.5 1.5" style="fill:#000;stroke:none;stroke-width:.1"/><path d="M1770.41 545.4c-.9 2.3-.1 4.9 1.6 5.4 1.2.4 1.3.2.3-.9-1.9-2-1.6-3.9.7-3.9 1.1 0 2.7 1.1 3.5 2.4 2.9 4.3 4.5 4.1 4.4-.7-.2-3-.3-3.4-.6-1.5-.5 3.4-.6 3.4-3.7.3-2.8-2.8-5.4-3.2-6.2-1.1M1771.31 553.7c-.8.2-1.3 2.2-1.3 4.4v3.9h5.5c3 0 5.5-.5 5.5-1 0-.6-.9-1-1.9-1-1.2 0-2.1-1-2.6-2.7-.9-3.7-2.5-4.8-5.2-3.6m3.7 3.8c0 1.8-.5 2.5-2 2.5-2 0-2.8-2.8-1.3-4.3 1.5-1.6 3.3-.6 3.3 1.8M1042.01 546.5c0 5.7 1.6 7.6 2.3 2.7.4-2.5.4-2.5.6.5l.1 3.3h10.1c5.5 0 10.9-.5 11.9-1 1.9-1 2.1-3 1.1-10.3-.1-.4-5.9-.7-13.1-.7h-13zm2.7-1.3c-.3.7-.5.2-.5-1.2s.2-1.9.5-1.3c.2.7.2 1.9 0 2.5m22-1c-.3.8-.6.5-.6-.6-.1-1.1.2-1.7.5-1.3.3.3.4 1.2.1 1.9m-10.7 3c0 2.3-.4 2.8-2.5 2.8s-2.5-.5-2.5-3c0-2.6.3-2.9 2.5-2.8 2 .2 2.5.8 2.5 3m4-.2c0 1.6-.4 3-1 3-.5 0-1-1.4-1-3 0-1.7.5-3 1-3 .6 0 1 1.3 1 3m7.2 3.2c-.9.9-1.2.7-1.2-1.2s.3-2.1 1.2-1.2.9 1.5 0 2.4M1862.01 551.7c-1.4.3-2.9.9-3.4 1.4-.6.5-2.9.9-5.3.9h-4.4l.3 14.7.3 14.8 4.2.3c3.4.3 4.3.7 4.6 2.5l.4 2.2.2-2.2c.1-2.1.6-2.2 9.9-2.5l9.7-.3v-29l-4.4-.3c-2.4-.2-5-1-5.8-1.8-1.5-1.4-1.9-1.5-6.3-.7m-.3 1.9c-.3.3-1.2.4-1.9.1-.8-.3-.5-.6.6-.6 1.1-.1 1.7.2 1.3.5m5.6.1c-.7.2-1.9.2-2.5 0-.7-.3-.2-.5 1.2-.5s1.9.2 1.3.5m8.7 15.4V581h-8.5c-6.1 0-8.5-.4-8.6-1.3q0-1.5-.6 0c-.2.7-1.8 1.3-3.4 1.3h-2.9v-23.8h24z" style="fill:#000;stroke:none;stroke-width:.1"/><path d="M1858.01 562.8c0 1.1 2.2 3.2 3.3 3.2.4 0 .5-.5.2-1-.4-.6 1-1 3.4-1 2.3 0 4.1-.5 4.1-1 0-.6-2.5-1-5.5-1s-5.5.4-5.5.8M1859.31 568.7c-.8.2-1.3 2.2-1.3 4.4v3.9h5.5c3 0 5.5-.5 5.5-1 0-.6-.9-1-1.9-1-1.2 0-2.1-1-2.6-2.7-.9-3.7-2.5-4.8-5.2-3.6m3.7 3.8c0 1.8-.5 2.5-2 2.5-2 0-2.8-2.8-1.3-4.3 1.5-1.6 3.3-.6 3.3 1.8M1593.01 569v15h29v-30h-29zm9.2-9.3c.3 2.6.6 2.8 5.3 2.8s5-.2 5.3-2.8c.3-2.4.8-2.7 3.8-2.7h3.4v24h-6.9c-3.9 0-7.3-.5-7.6-1-.4-.6 1-1 3.4-1 2.3 0 4.1-.5 4.1-1 0-.6-2.5-1-5.5-1-5.6 0-6.5.6-4.3 2.8.9.9.3 1.2-3 1.2h-4.2v-24h2.9c2.5 0 3 .4 3.3 2.7m9.8-.1c0 2-3 3-4 1.3-1.1-1.7.7-4 2.6-3.2.8.3 1.4 1.2 1.4 1.9m-6-.1c0 .8-.7 1.5-1.5 1.5s-1.5-.7-1.5-1.5.7-1.5 1.5-1.5 1.5.7 1.5 1.5" style="fill:#000;stroke:none;stroke-width:.1"/><path d="M1602.41 564.8c.4.6 2.5 1.7 4.7 2.3 4.4 1.4 4.2 2.1-1.3 3.9-2.1.6-3.8 1.6-3.8 2.1 0 .7 9.7-2.5 10.9-3.7.7-.7-1.2-2-4.4-3.2-1.6-.5-3.9-1.3-4.9-1.8-1.3-.5-1.7-.4-1.2.4M1644.31 555.7c-.7.2-1.3 1.6-1.3 2.9 0 2.7-1.7 3.2-2.7.8-.3-.9 0-2 .8-2.5 1.1-.7 1.1-.9-.3-.9-2.8 0-2.4 5 .4 5.8 2.2.5 2.2.5.1 1.3-1.9.7-2.1 1.6-2.2 11.1-.1 5.7-.1 11.1-.2 12.1 0 2.9 2.1 4.7 5.6 4.7 5 0 5.7-1.7 6.3-15 .5-11.8.4-12-1.8-12.8-2-.7-2.1-1-.7-1.5 2.2-.8 2.2-5.3.1-6.1-1.8-.7-2.3-.7-4.1.1m4.5 3c-.2 1-1.2 1.8-2.3 1.8s-2.1-.8-2.3-1.8c-.3-1.3.3-1.7 2.3-1.7s2.6.4 2.3 1.7m-1.8 13.8c0 1.8-.5 2.5-2 2.5s-2-.7-2-2.5.5-2.5 2-2.5 2 .7 2 2.5m1.8 13.7c.2 1.1-.6 2.2-2.1 2.9-3.1 1.4-6.7-.3-6.7-3.2 0-1.8.5-2 4.2-1.7 3.1.2 4.4.8 4.6 2M1658.01 569.3c-.3 18.4-.3 17.6 1.1 19.3 1.5 1.9 7.3 1.8 8.9-.1.9-1 1.3-5.6 1.4-13.8l.1-12.2-5.2-.3c-4.9-.3-5.3-.5-5.3-2.9s.1-2.5 2.3-1.1c3 2 7.7 3.1 7.7 1.8 0-.5-.7-1-1.5-1-.9 0-3.3-.9-5.5-2l-3.9-2zm8 2.7c0 1.3-.7 2-2 2s-2-.7-2-2 .7-2 2-2 2 .7 2 2m1.8 13.2c.2 1.1-.6 2.2-2.1 2.9-3.1 1.4-6.7-.3-6.7-3.2 0-1.8.5-2 4.2-1.7 3.1.2 4.4.8 4.6 2M1681.31 555.7c-.7.2-1.3 1.6-1.3 2.9 0 2.7-1.7 3.2-2.7.8-.3-.9 0-2 .8-2.5 1.1-.7 1.1-.9-.3-.9-2.8 0-2.4 4.8.5 6 2.2.9 2.2.9.1.9-1.2.1-2.4.7-2.6 1.3-1 2.8 0 23.8 1.2 25.3 1.6 1.9 7.4 1.9 9 .1 1.1-1.4 2.2-22.6 1.2-25.4-.2-.6-1.2-1.2-2.1-1.2-1.4-.1-1.4-.2.2-1.1 2.1-1.3 2.2-5.5.1-6.3-1.8-.7-2.3-.7-4.1.1m4.5 3c-.2 1-1.2 1.8-2.3 1.8s-2.1-.8-2.3-1.8c-.3-1.3.3-1.7 2.3-1.7s2.6.4 2.3 1.7m-2.8 13.8c0 1.6-.6 2.5-1.5 2.5s-1.5-.9-1.5-2.5.6-2.5 1.5-2.5 1.5.9 1.5 2.5m-.3 7.1c-.3.3-1.2.4-1.9.1-.8-.3-.5-.6.6-.6 1.1-.1 1.7.2 1.3.5m3.1 6.6c.2 1.1-.6 2.2-2.1 2.9-3.1 1.4-6.7-.3-6.7-3.2 0-1.8.5-2 4.2-1.7 3.1.2 4.4.8 4.6 2M1693.11 557.7c0 1.8.2 3.3.7 3.3.4 0 1.7.3 3 .6 2.1.6 2.2.4 1.7-1.8-.5-1.9-.2-2.7 1.1-3.2 2.6-1 4.1 1 2.5 3.5-1 1.8-1 2 .1 1.7.7-.3 1.3-1.8 1.3-3.4 0-2.4-.5-3-2.7-3.2-1.8-.2-3 .3-3.7 1.6-.6 1.1-.7 2.2-.4 2.6.3.3-.1.6-1 .6s-1.7-1.1-2-2.8c-.4-2.5-.4-2.5-.6.5M1732.51 556.9c-2.3.5-3 1.2-3 3 0 1.4.7 2.6 1.5 2.9 1.2.4 1.3.2.3-.9-.7-.7-1.3-1.9-1.3-2.6 0-1.7 2.6-1.7 3.4-.1.5 1 .7 1 1.2 0 .8-1.6 4.4-1.6 4.4.1 0 .7-.6 1.9-1.2 2.6-1.1 1.1-1 1.3.2.9 2-.6 2.6-4.8.8-5.9-1.4-1-1.9-1-6.3 0M1693.71 563.7c-.3.4-.5 5.3-.6 10.8s-.1 10.8-.2 11.8c0 2.9 2.1 4.7 5.6 4.7 5.2 0 5.9-1.7 5.9-15.3l.1-12.2-5.2-.3c-2.8-.2-5.3.1-5.6.5m7.3 8.8c0 1.8-.5 2.5-2 2.5s-2-.7-2-2.5.5-2.5 2-2.5 2 .7 2 2.5m1.8 13.7c.2 1.1-.6 2.2-2.1 2.9-3.1 1.4-6.7-.3-6.7-3.2 0-1.8.5-2 4.2-1.7 3.1.2 4.4.8 4.6 2M1719.01 565.3l-4.5 1.2-.3 15.1c-.2 12.4 0 15.3 1.2 16.3 2.5 2.1 8.8 2.4 12.7.8l3.6-1.5-.1-14.8-.1-14.7-3-1.9c-3.4-2-3.4-2-9.5-.5m8 6.7c0 .5-1.8 1-4 1s-4-.5-4-1c0-.6 1.8-1 4-1s4 .4 4 1m0 8.5c0 3.4-.1 3.5-4 3.5-3.6 0-4-.3-4-2.5 0-1.4.5-2.5 1.1-2.5.5 0 .7-.5.4-1-.4-.6.8-1 2.9-1 3.4 0 3.6.2 3.6 3.5m0 6.8q0 1.35-3 .9c-4.4-.6-4.7-2.2-.6-2.2 2.3 0 3.6.5 3.6 1.3m-2 5.2c1.1 1.3.7 1.5-2.4 1.5-3.4 0-4.4-.8-2.9-2.3 1.1-1.2 4-.8 5.3.8M1752.11 587.2l-.1 13.8h5.4c4.7 0 5.4-.3 6-2.3.9-3.6.7-19.3-.4-22.1-1.2-3.2-5.4-3.6-7-.6-1.4 2.6-2.8 2.5-3.3-.3-.2-1.2-.5 4-.6 11.5m9.7-10.4c.2.7-.7 1.2-2.2 1.2-2.7 0-3.5-1.5-1.3-2.3 1.7-.7 3-.3 3.5 1.1m-2 7.9c-1 .2-2.6.2-3.5 0-1-.3-.2-.5 1.7-.5s2.7.2 1.8.5m1.2 4.7c0 2.9-1.3 4-3.9 3.1-1.2-.4-1.8-1.4-1.7-3 .1-2 .6-2.5 2.9-2.5 2.2 0 2.7.4 2.7 2.4m.7 9.2c-.3.3-1.2.4-1.9.1-.8-.3-.5-.6.6-.6 1.1-.1 1.7.2 1.3.5M679.01 589.5V604h30v-29h-30zm27-8.5c0 2.5-.4 3-2.5 3-1.4 0-2.5.3-2.5.7 0 .5-.3 1.8-.6 3.1-.6 2.1-.4 2.2 1.8 1.7 2.8-.7 4.2 1.2 2.7 3.6-.7 1.2-1.2 1.2-3 .1s-2-1.1-1.7 0c.3.7 1.7 1.4 3.1 1.6 2.2.3 2.7.8 2.7 3.3v2.9h-24l.2-8.3c.1-6.1.3-6.8.5-3 .5 6.7 2.3 7 2.3.4 0-3.9.4-5.1 1.8-5.4.9-.3.2-.5-1.5-.6-3-.1-3.3-.4-3.3-3.1v-3h24zm0 5.4c0 .9-.9 1.4-2 1.3s-2-.7-2-1.4.9-1.3 2-1.3 2 .6 2 1.4" style="fill:#000;stroke:none;stroke-width:.1"/><path d="M690.01 589.5c0 3 .5 5.5 1 5.5.6 0 1-.8 1-1.9 0-1.2.9-2 2.9-2.4 5.8-1.2 4.6-6.7-1.5-6.7h-3.4zm6.8-2.3c.3 1.3-.3 1.8-2.2 1.8-2 0-2.6-.5-2.6-2.1 0-1.5.5-2 2.2-1.7 1.3.2 2.4 1.1 2.6 2M1776.81 576.2c-.1.3-.7 16.9-.9 23.1 0 2.9 2.1 4.7 5.6 4.7 5.1 0 5.8-1.7 6.3-15.5l.5-12.5h-5.7c-3.1 0-5.7.1-5.8.2m7.2 9.3c0 1.8-.5 2.5-2 2.5s-2-.7-2-2.5.5-2.5 2-2.5 2 .7 2 2.5m.8 11.7c1.8 1.8 1.5 3.6-.9 4.9-2.8 1.5-6.9-.3-6.9-3 0-2.8 5.6-4.1 7.8-1.9M1566.41 589.3c-.2.7-.3 7.4-.2 14.8l.3 13.4h29l.3-14.8.3-14.7h-14.6c-11 0-14.7.3-15.1 1.3m26.6 13.7v12h-3.5c-3 0-3.5-.3-3.5-2.4 0-3-2.2-3.8-7-2.8-2.6.6-3.6 1.4-3.8 3-.3 1.7-1 2.2-3.3 2.2h-2.9v-24h24zm-13.6 9.2c.5 1 .7 1 1.2 0 .9-1.9 4.6-1.5 4.2.5-.2 1.4-1.3 1.8-4.3 1.8s-4.1-.4-4.3-1.8c-.4-2 2.3-2.4 3.2-.5" style="fill:#000;stroke:none;stroke-width:.1"/><path d="M1575.01 592.8c0 1.1 2.2 3.2 3.3 3.2.4 0 .5-.5.2-1-.4-.6 1-1 3.4-1 2.3 0 4.1-.5 4.1-1 0-.6-2.5-1-5.5-1s-5.5.4-5.5.8M1575.41 598.8c.4.6 2.5 1.7 4.7 2.3 4.4 1.4 4.2 2.1-1.3 3.9-2.1.6-3.8 1.6-3.8 2.1 0 .7 9.7-2.5 10.9-3.7.7-.7-1.2-2-4.4-3.2-1.6-.5-3.9-1.3-4.9-1.8-1.3-.5-1.7-.4-1.2.4M1818.11 590.7c-.1 2-.6 2.3-4.6 2.3h-4.5v29h4.4c3.8 0 4.5.3 4.9 2.2l.4 2.3.2-2.3c.1-2.1.4-2.2 10.1-2.2h10v-29h-4.5c-3.4 0-4.7-.5-5.5-2-.6-1.2-2.1-2-3.5-2s-2.9.8-3.5 2c-1.4 2.6-2.8 2.5-3.3-.3l-.4-2.2zm9.7 1.1c.2.7-.7 1.2-2.2 1.2-2.7 0-3.5-1.5-1.3-2.3 1.7-.7 3-.3 3.5 1.1m8.2 15.3V619h-8.5c-6.1 0-8.5-.4-8.6-1.3q0-1.5-.6 0c-.2.7-1.8 1.3-3.4 1.3h-2.9v-23.7h24z" style="fill:#000;stroke:none;stroke-width:.1"/><path d="M1818.01 600.8c0 1.1 2.2 3.2 3.3 3.2.4 0 .5-.5.2-1-.4-.6 1-1 3.4-1 2.3 0 4.1-.5 4.1-1 0-.6-2.5-1-5.5-1s-5.5.4-5.5.8M1819.31 606.7c-.8.2-1.3 2.2-1.3 4.4v3.9h5.5c3 0 5.5-.5 5.5-1 0-.6-.9-1-1.9-1-1.2 0-2.1-1-2.6-2.7-.9-3.7-2.5-4.8-5.2-3.6m3.7 3.8c0 1.8-.5 2.5-2 2.5-2 0-2.8-2.8-1.3-4.3 1.5-1.6 3.3-.6 3.3 1.8M1857.31 592.8c-2.1.3-2.3.9-2.3 5.8 0 5.4 1.9 7.8 2.1 2.6l.1-2.7.7 3 .6 2.9 10.4.1c7.5 0 10.8-.3 11.7-1.3 1.8-1.8 1.8-3.7-.1-5.6-.8-.8-1.5-2.1-1.5-2.8 0-1 .3-.9 1 .2.8 1.3 1 1.2 1-.3 0-.9-.6-1.7-1.2-1.8-3.6-.3-20.6-.4-22.5-.1m.4 4.4c-.3.7-.5.2-.5-1.2s.2-1.9.5-1.3c.2.7.2 1.9 0 2.5m9.8-1.2c.4.6 1.1.8 1.6.5.5-.4.9.5.9 1.9 0 2.2-.4 2.6-3 2.6-2.7 0-3-.3-3-3 0-3 2.1-4.2 3.5-2m5.2 3.7c-.3 1-.5.2-.5-1.7s.2-2.7.5-1.8c.2 1 .2 2.6 0 3.5m7 2.5c-.3.7-.5.2-.5-1.2s.2-1.9.5-1.3c.2.7.2 1.9 0 2.5M1632.21 595.2c-1.7 1.7-1.5 7.3.3 8.8 1.9 1.6 25.5 2.8 25.5 1.3 0-.6 1.7-1 3.8-.9 3.3.1 3.7-.2 4-2.6.2-1.8-.3-3-1.6-3.7-1.1-.6-2.2-.7-2.6-.4-.3.3-.6-.1-.6-1s1.1-1.7 2.8-2c2.5-.4 2.5-.4-.5-.6-2.5-.1-3.3.3-3.3 1.6-.1 1.7-.1 1.7-1.1 0-.9-1.5-2.6-1.7-13.2-1.7q-12.3 0-13.5 1.2m5.6 4c-.4 5.1-3.1 6.5-4.9 2.5-1.4-3.1.3-6.7 3.2-6.7 1.8 0 2 .5 1.7 4.2m13.2.8c0 1.3-.7 2-2 2s-2-.7-2-2 .7-2 2-2 2 .7 2 2m13.4.6c1.3 3.3-2.1 4.7-4.5 1.8-1-1.3-1-1.7.2-2.5 2.1-1.3 3.6-1.1 4.3.7M560.81 600.9c-.7.2-1.6.9-2 1.5-1 1.5-1 21.8 0 23.4.7.9 6.3 1.2 24.8 1l23.9-.3.3-12.3c.2-10.4 0-12.3-1.3-12.8-1.8-.7-43.8-1.1-45.7-.5m5.6 6.7c.3.9.6 3.7.6 6.4 0 5.8-.7 8-2.6 8-1.1 0-1.4-1.8-1.4-8s.3-8 1.4-8c.8 0 1.7.7 2 1.6m5.6 5.9v7.5h5c2.8 0 5-.5 5-1 0-.6-1.6-1-3.5-1h-3.5v-13h7c3.9 0 7 .3 7 .6s-1 1.5-2.2 2.6l-2.3 2 2.3-.5c2.1-.5 2.2-.2 2.2 4.9 0 3 .5 5.4 1 5.4.6 0 1-3.2 1-7.5V606h5.5v16h-27.1l.1-8c0-5.7.4-8 1.3-8 .8 0 1.2 2.2 1.2 7.5m31 .5c0 6.3-.3 8-1.4 8-1 0-1.7-1.6-2.2-4.5-.8-5.8.2-11.5 2.1-11.5 1.2 0 1.5 1.7 1.5 8M1534.01 624.5V639h29v-29h-29zm9.2-9.3c.2 1.2 1 2.3 1.8 2.6 1.2.4 1.3.2.3-.9-.7-.7-1.3-1.9-1.3-2.6 0-1.7 2.6-1.7 3.4-.1.5 1 .7 1 1.2 0 .8-1.6 4.4-1.6 4.4.1 0 .7-.6 1.9-1.2 2.6-1.1 1.1-1 1.3.2.9.8-.3 1.6-1.4 1.8-2.6.3-1.8 1-2.2 3.8-2.2h3.4v23h-3.5c-3 0-3.5-.3-3.5-2.4 0-3-2.2-3.8-7-2.8-2.6.6-3.6 1.4-3.8 3-.3 1.7-1 2.2-3.3 2.2h-2.9v-23h2.9c2.3 0 3 .5 3.3 2.2m4.2 18c.5 1 .7 1 1.2 0 .9-1.9 4.6-1.5 4.2.5-.2 1.4-1.3 1.8-4.3 1.8s-4.1-.4-4.3-1.8c-.4-2 2.3-2.4 3.2-.5" style="fill:#000;stroke:none;stroke-width:.1"/><path d="M1543.41 620.8c.4.6 2.5 1.7 4.7 2.3 4.4 1.4 4.2 2.1-1.3 3.9-2.1.6-3.8 1.6-3.8 2.1 0 .7 9.7-2.5 10.9-3.7.7-.7-1.2-2-4.4-3.2-1.6-.5-3.9-1.3-4.9-1.8-1.3-.5-1.7-.4-1.2.4M1641.61 616.2c-1.8 3.5-2 7-.7 9.6.5.9 1.2 2.4 1.4 3.3.4 1.3 2.6 1.5 15.4 1.4 17.6-.3 16.3-.1 16.3-2 0-.8.6-1.5 1.3-1.5.8 0 .7-.3-.3-1-1.2-.8-1.3-1.4-.3-4.1 1-2.6.9-3.7-.3-6l-1.5-2.9h-29.8zm7.4 4.8c0 1-.7 2.3-1.5 3-1.3 1.1-1.5.7-1.5-2.3 0-2.8.3-3.5 1.5-3.1.8.4 1.5 1.4 1.5 2.4m5.1-1.6c.5-.3.9 1.1.9 3 0 2.5-.4 3.6-1.5 3.6s-1.5-1.1-1.4-4.3c0-2.3.3-3.6.6-2.9.2.6.9 1 1.4.6m6.9-.3c0 .5.5.7 1 .4.6-.4 1 .8 1 2.9 0 3.3-.2 3.6-3 3.6s-3-.2-3-4c0-3.3.3-4 2-4 1.1 0 2 .5 2 1.1m8 2.9c0 2.2-.4 4-1 4-.5 0-1-1.8-1-4s.5-4 1-4c.6 0 1 1.8 1 4m-27.3.2c-.3.8-.6.5-.6-.6-.1-1.1.2-1.7.5-1.3.3.3.4 1.2.1 1.9M1817.01 638.7c0 .7-2.9 1.4-8 1.9l-8.1.7.3 14.6.3 14.6 3.3.3c2.6.3 3.2.7 3.2 2.8 0 2.3.3 2.4 5.5 2.4s5.5-.1 5.5-2.5c0-2.2.4-2.4 5.8-2.7l5.7-.3v-29l-5.9-.6c-3.2-.4-6.2-1.3-6.7-2-.6-.9-.9-1-.9-.2m-1.1 6.5c1.1 1 1.4 1 1.8 0 .3-.7 2.4-1.2 5.4-1.2h4.9v24h-8.5c-7.4 0-8.5-.2-8.6-1.8s-.2-1.6-.6 0c-.3 1.2-1.4 1.8-3.4 1.8h-2.9v-24h5.3c2.9 0 5.9.6 6.6 1.2m-6.2 28c-.3.8-.6.5-.6-.6-.1-1.1.2-1.7.5-1.3.3.3.4 1.2.1 1.9m8.3-.7c0 1-1.1 1.5-3.5 1.5s-3.5-.5-3.5-1.5 1.1-1.5 3.5-1.5 3.5.5 3.5 1.5" style="fill:#000;stroke:none;stroke-width:.1"/><path d="M1810.01 649.8c0 1.1 2.2 3.2 3.3 3.2.4 0 .5-.5.2-1-.4-.6 1-1 3.4-1 2.3 0 4.1-.5 4.1-1 0-.6-2.5-1-5.5-1s-5.5.4-5.5.8M1811.31 655.7c-.8.2-1.3 2.2-1.3 4.4v3.9h5.5c3 0 5.5-.5 5.5-1 0-.6-.9-1-1.9-1-1.2 0-2.1-1-2.6-2.7-.9-3.7-2.5-4.8-5.2-3.6m3.7 3.8c0 1.8-.5 2.5-2 2.5-2 0-2.8-2.8-1.3-4.3 1.5-1.6 3.3-.6 3.3 1.8M1640.51 650.3c-1.7 3.4-2 7.8-.6 9.2.5.6 1.1 1.9 1.3 3 .3 1.9 1.1 2 15.6 2.1 8.4 0 15.6-.4 15.9-.9.8-1.2.6-14.7-.2-15.5-.4-.4-7.4-.7-15.6-.8h-14.9zm12.6 3.1c.5-.3.9 1.1.9 3 0 2.5-.4 3.6-1.5 3.6s-1.5-1.1-1.4-4.3c0-2.3.3-3.6.6-2.9.2.6.9 1 1.4.6m6.9-.3c0 .5.5.7 1 .4.6-.4 1 .8 1 2.9 0 3.3-.2 3.6-3 3.6s-3-.2-3-4c0-3.3.3-4 2-4 1.1 0 2 .5 2 1.1m9 2.9c0 2.9-.4 4-1.5 4s-1.5-1.1-1.5-4 .4-4 1.5-4 1.5 1.1 1.5 4m-21-1.1c0 1.1-.4 2.3-1 2.6-.6.4-1-.5-1-1.9s.5-2.6 1-2.6c.6 0 1 .9 1 1.9m-7.3 1.3c-.3.8-.6.5-.6-.6-.1-1.1.2-1.7.5-1.3.3.3.4 1.2.1 1.9M1566.41 653.3c-.2.7-.3 7.4-.2 14.8l.3 13.4 14.8.3 14.8.3-.3-14.8-.3-14.8-14.3-.3c-11.1-.2-14.4 0-14.8 1.1m8.8 4.4c.2 1.4 1 2.8 1.8 3.1 1.2.4 1.3.2.3-.9-.7-.7-1.3-1.9-1.3-2.6 0-2.4 3.5-1.3 6.5 1.9l3 3.3.3-3.8c.3-3.5.5-3.7 3.8-3.7h3.4v24h-6.9c-3.9 0-7.3-.5-7.6-1-.4-.6 1-1 3.4-1 2.3 0 4.1-.5 4.1-1 0-.6-2.5-1-5.5-1-5.6 0-6.5.6-4.3 2.8.9.9.3 1.2-3 1.2h-4.2v-24h2.9c2.5 0 3 .5 3.3 2.7m9.8-.7c0 1.1-.3 2-.8 2-.4 0-1.3-.9-2-2-1.1-1.8-1-2 .8-2 1.3 0 2 .7 2 2" style="fill:#000;stroke:none;stroke-width:.1"/><path d="M1575.41 662.8c.4.6 2.5 1.7 4.7 2.3 4.4 1.4 4.2 2.1-1.3 3.9-2.1.6-3.8 1.6-3.8 2.1 0 .7 9.7-2.5 10.9-3.7.7-.7-1.2-2-4.4-3.2-1.6-.5-3.9-1.3-4.9-1.8-1.3-.5-1.7-.4-1.2.4M53.91 661.6c-15.4 4.7-24.8 18.5-23.7 34.5.9 11.9 7.5 21.6 18.2 26.9 8.1 4 15.4 4.8 23.1 2.6 13.2-3.9 21.6-13.1 24.4-26.7 2.1-10.1-2-22-10.2-29.6-5.3-4.9-7.6-6.2-14.2-7.9-6.3-1.7-11.7-1.7-17.6.2m22.1 4.2c11.1 5.8 17.4 15.7 17.4 27.7 0 32.1-43.8 42.1-57.5 13.1-8.1-17.1.7-36.7 19.1-42.7 4.9-1.6 16.2-.5 21 1.9M1613.51 660.8c-.3.3-.5 6.3-.5 13.4V687h5.5c5.7 0 7.6-1.6 2.8-2.3-2.6-.4-2.6-.4.5-.6l3.2-.1v-10.1c0-12.5-.6-13.7-6.5-13.7-2.5.1-4.7.3-5 .6m9 1.2c.3.5-.3 1-1.5 1s-1.8-.5-1.5-1c.3-.6 1-1 1.5-1s1.2.4 1.5 1m-5.8.6c-.3.3-1.2.4-1.9.1-.8-.3-.5-.6.6-.6 1.1-.1 1.7.2 1.3.5m2 7c-.3.3-1.2.4-1.9.1-.8-.3-.5-.6.6-.6 1.1-.1 1.7.2 1.3.5m0 2.6c1.1-2.7 3.2-1.2 3.1 2.3-.1 3.1-.4 3.5-3 3.5s-2.8-.3-2.8-3.8c0-2.9.3-3.4 1.1-2.2.8 1.1 1.2 1.2 1.6.2m-1.4 12.5c-.7.2-1.9.2-2.5 0-.7-.3-.2-.5 1.2-.5s1.9.2 1.3.5M1883.91 661.6c-15.4 4.7-24.8 18.5-23.7 34.5.9 11.9 7.5 21.6 18.2 26.9 8.1 4 15.4 4.8 23.1 2.6 13.2-3.9 21.6-13.1 24.4-26.7 2.1-10.1-2-22-10.2-29.6-5.3-4.9-7.6-6.2-14.2-7.9-6.3-1.7-11.7-1.7-17.6.2m21.6 4.3c11.7 5.5 17.9 15.1 17.9 27.6-.1 32.2-43.8 42.1-57.5 13.1-12.1-25.7 14.3-52.8 39.6-40.7M1757.21 663.2c-1.7 1.7-1.5 7.3.2 8.8 1.8 1.4 20.8 2.1 29.3 1 3.2-.4 4.6-.8 3.1-.9-2.5-.1-4.2-2.1-1.8-2.1 1.6 0 4.1-4.6 3.4-6.4-.8-2.1-5.5-1.8-6.2.4-.4 1.2-.2 1.3.9.2.7-.6 1.9-1.2 2.6-1.2 2.3 0 1.4 3.5-1.6 6.4l-3 2.9-.3-4.9-.3-4.9-12.5-.3c-8.9-.2-12.9.1-13.8 1m5.6 4c-.4 5.1-3.1 6.5-4.9 2.5-1.4-3.1.3-6.7 3.2-6.7 1.8 0 2 .5 1.7 4.2m4.9 1c-.3.8-.6.5-.6-.6-.1-1.1.2-1.7.5-1.3.3.3.4 1.2.1 1.9m9.3-.2c0 1.5-.7 2-2.5 2s-2.5-.5-2.5-2 .7-2 2.5-2 2.5.5 2.5 2M1543.31 665.7c-.3.8-2.1 1.3-4.4 1.3h-3.9v30h3.9c3.3 0 4 .4 4.4 2.2l.4 2.3.2-2.2c.1-2.1.6-2.2 9.9-2.5l9.7-.3.3-14.8.3-14.7h-5c-3.3 0-5.1-.5-5.4-1.4-.7-1.9-9.7-1.8-10.4.1m9.2.3c.3.5-.3 1-1.5 1s-1.8-.5-1.5-1c.3-.6 1-1 1.5-1s1.2.4 1.5 1m-5.8.6c-.3.3-1.2.4-1.9.1-.8-.3-.5-.6.6-.6 1.1-.1 1.7.2 1.3.5m14.3 15.5V694h-8.5c-6.1 0-8.5-.4-8.6-1.3q0-1.5-.6 0c-.2.7-1.8 1.3-3.4 1.3h-2.9v-23.7h24z" style="fill:#000;stroke:none;stroke-width:.1"/><path d="M1543.01 675.8c0 1.1 2.2 3.2 3.3 3.2.4 0 .5-.5.2-1-.4-.6 1-1 3.4-1 2.3 0 4.1-.5 4.1-1 0-.6-2.5-1-5.5-1s-5.5.4-5.5.8M1544.31 681.7c-.8.2-1.3 2.2-1.3 4.4v3.9h5.5c3 0 5.5-.5 5.5-1 0-.6-.9-1-1.9-1-1.2 0-2.1-1-2.6-2.7-.9-3.7-2.5-4.8-5.2-3.6m3.7 3.8c0 1.8-.5 2.5-2 2.5-2 0-2.8-2.8-1.3-4.3 1.5-1.6 3.3-.6 3.3 1.8M1632.31 673.7c-1 .3-1.3 4-1.3 13.4V700h5.5c5.7 0 7.6-1.6 2.8-2.3-2.6-.4-2.6-.4.5-.6l3.2-.1v-10.4c0-8.2-.3-10.8-1.6-12-1.5-1.5-6.5-2-9.1-.9m8.3 1.5c.3.3-1.7.6-4.3.6-3.3.1-4.3-.2-3.3-.8 1.4-.9 6.6-.7 7.6.2m-.8 11.9c0 3.7-.2 4-2.7 3.7-2.1-.2-2.7-.9-2.9-3.5-.3-2.6 0-3.2 1.2-2.7.9.3 1.6.1 1.6-.5s.6-1.1 1.4-1.1c1.1 0 1.5 1.2 1.4 4.1m-4.5 10.6c-.7.2-1.9.2-2.5 0-.7-.3-.2-.5 1.2-.5s1.9.2 1.3.5M1814.01 678.5c-1.4 1.7-4.5 2.1-3.5.5.3-.6.2-1-.4-1-.5 0-1.3.4-1.6 1-.3.5-2.6 1-5.1 1h-4.4v29.7l7.3.7c4 .4 10.6.3 14.5 0l7.2-.7V680h-4.4c-2.6 0-4.8-.6-5.6-1.5-.7-.8-1.6-1.5-2-1.5s-1.3.7-2 1.5m-5.6 6c.3.8 1.2 1.5 1.9 1.5.8 0 2-.7 2.7-1.5s1.9-1.5 2.7-1.5c1.3 0 1.3.3.3 1.5s-.9 1.5.4 1.5c.9 0 1.9-.7 2.2-1.5.4-.9 1.9-1.5 3.5-1.5h2.9v24h-23v-24h2.9c1.6 0 3.1.6 3.5 1.5m3.3-.9c-.3.3-1.2.4-1.9.1-.8-.3-.5-.6.6-.6 1.1-.1 1.7.2 1.3.5" style="fill:#000;stroke:none;stroke-width:.1"/><path d="M1821.31 691.5c0 2.7.2 3.8.4 2.2.2-1.5.2-3.7 0-5-.2-1.2-.4 0-.4 2.8M1808.11 698.8c-.7 1.2-.6 2.6.2 4.3 1 1.9 2 2.4 5.1 2.4 2.5 0 4.3-.6 4.9-1.6 1.4-2.2 0-6.9-2-6.9-1.5 0-1.5.1 0 1.8 2.3 2.5 2.1 4.1-.7 5.3-4.5 2.1-8.7-2.6-5.4-5.9.9-.9.9-1.2 0-1.2-.6 0-1.6.8-2.1 1.8M1733.01 682.7c0 .8-1.4 1.3-3.7 1.3l-3.8.1 2.9 2.3 2.9 2.4-2.4.4c-2.3.3-2.4.6-2.9 11.7-.6 13.5 0 15.5 5.1 15.9 5.4.5 6.1-1.1 6.5-14.3.3-10.6.1-11.7-1.7-12.8-2.4-1.5-2.5-4.7-.1-4.8 1.3 0 1.4-.2.2-.6-.8-.3-1.8-1.1-2.2-1.7-.5-.8-.8-.7-.8.1m0 3.8c0 1.3-.4 1.4-2 .5-1.1-.6-2-1.3-2-1.5 0-.3.9-.5 2-.5s2 .7 2 1.5m1 12.5c0 1.3-.7 2-2 2s-2-.7-2-2 .7-2 2-2 2 .7 2 2m1.8 13.2c.2 1.1-.6 2.2-2.1 2.9-3.1 1.4-6.7-.3-6.7-3.2 0-1.8.5-2 4.2-1.7 3.1.2 4.4.8 4.6 2M1761.81 685.8c-2.5.2-4.3 1.1-5.3 2.5-.8 1.2-1.5 1.6-1.5.9 0-.6-.6-1.2-1.4-1.2s-1.7-.6-1.9-1.3q-.6-1.5-.6 0c-.1.8-1.5 1.3-3.5 1.3-2.5 0-3.6.5-3.9 1.7-.4 1.5-.3 16.1.2 21.5.1 1.5 1.1 1.8 5.6 1.8 5.5 0 8-1.9 2.8-2.1l-2.8-.1 3-.7 3-.6-.4-8-.3-8 2.1 1.9c1.7 1.5 3.6 1.9 10.8 1.8 10.7-.1 11.8.2 12 2.9.3 3.2 2.2 4.9 5.8 4.9 3.9 0 5.6-1.7 5.5-5.6-.1-1.6.2-4.1.6-5.6 1-4.5-.3-7.8-3.1-7.8-1.9 0-2.7.7-3.4 3.2l-.9 3.3-.1-3.3c-.1-1.7-.4-3.2-.8-3.3-2.1-.3-18.3-.4-21.5-.1m1 5.4c-.4 5.1-3.1 6.5-4.9 2.5-1.4-3.1.3-6.7 3.2-6.7 1.8 0 2 .5 1.7 4.2m27-1.4c.3 1.7-.2 2.2-1.7 2.2q-2.1 0-2.1-1.8c0-3.8 3.3-4.1 3.8-.4m-22.1 2.4c-.3.8-.6.5-.6-.6-.1-1.1.2-1.7.5-1.3.3.3.4 1.2.1 1.9m9.3-.7c0 .9-.9 1.5-2.5 1.5s-2.5-.6-2.5-1.5.9-1.5 2.5-1.5 2.5.6 2.5 1.5m13 9.2c0 2.2-4.4 3.7-6.9 2.4-2.4-1.3-2.8-4.6-.6-5.5.8-.3 1.5-1.2 1.5-2 0-1 .9-.6 3 1.2 1.7 1.5 3 3.2 3 3.9m0-5.7c0 .5-.6 1-1.4 1s-1.8-.5-2.1-1c-.3-.6.3-1 1.4-1 1.2 0 2.1.4 2.1 1m-38 1.6c0 1.4-.3 1.5-1.7.3-1-.7-2-1.5-2.2-1.6-.2-.2.5-.3 1.7-.3 1.4 0 2.2.6 2.2 1.6m-1.6 2.6c2.3 3.3 2 4.8-1.1 4.8-2.5 0-2.8-.4-3-3.5-.2-4.1 1.7-4.7 4.1-1.3m-2.1 11.5c-.7.2-1.9.2-2.5 0-.7-.3-.2-.5 1.2-.5s1.9.2 1.3.5M1672.91 689c-.3 1.9-.5 7.1-.4 11.5.3 13.7-.2 12.5 6 12.5 5.5 0 8-1.9 2.8-2.1l-2.8-.1 3-.7 3-.6.1-9.5c.1-11.4-.6-14-4.1-14-1.4 0-2.8.7-3.1 1.5-.8 2.1-3.2 1.9-3.6-.3-.2-.9-.6-.1-.9 1.8m9.6-1c.4.6-.6 1-2.2 1-2.2 0-2.5-.2-1.3-1 1.9-1.2 2.7-1.2 3.5 0m-3.8 7.6c-.3.3-1.2.4-1.9.1-.8-.3-.5-.6.6-.6 1.1-.1 1.7.2 1.3.5m0 2.6c1.1-2.7 3.2-1.2 3 2.3-.2 3.1-.5 3.5-2.9 3.5-2.6 0-2.8-.3-2.8-3.8 0-2.9.3-3.4 1.1-2.2.8 1.1 1.2 1.2 1.6.2m-1.4 12.5c-.7.2-1.9.2-2.5 0-.7-.3-.2-.5 1.2-.5s1.9.2 1.3.5M1708.71 686.7c-.4.3-.7 6.4-.7 13.5V713h5.5c5.7 0 7.6-1.6 2.8-2.3-2.6-.4-2.6-.4.5-.6l3.2-.1-.1-10.3c0-5.6-.4-11.1-.9-12.2-.7-1.7-.9-1.7-.9-.3-.1 2.2-1.9 2.3-4.5.3-2.1-1.6-3.9-1.9-4.9-.8m3.6 2c-.7.2-1.9.2-2.5 0-.7-.3-.2-.5 1.2-.5s1.9.2 1.3.5m1.4 6.9c-.3.3-1.2.4-1.9.1-.8-.3-.5-.6.6-.6 1.1-.1 1.7.2 1.3.5m0 2.6c1.1-2.7 3.2-1.2 3.1 2.3-.1 3.1-.4 3.5-3 3.5s-2.8-.3-2.8-3.8c0-2.9.3-3.4 1.1-2.2.8 1.1 1.2 1.2 1.6.2m-1.4 12.5c-.7.2-1.9.2-2.5 0-.7-.3-.2-.5 1.2-.5s1.9.2 1.3.5M1690.01 700.5V713h5.5c5.7 0 7.6-1.6 2.8-2.3-2.6-.4-2.5-.4.5-.6l3.3-.1-.3-10.8-.3-10.7-5.7-.3-5.8-.3zm8.8 0c-.1 3.1-.4 3.5-3 3.5-2.4 0-2.8-.4-2.8-3 0-2.2.4-2.8 1.5-2.4.8.4 1.5.1 1.5-.5s.7-1.1 1.5-1.1c1 0 1.4 1 1.3 3.5m-4.5 10.2c-.7.2-1.9.2-2.5 0-.7-.3-.2-.5 1.2-.5s1.9.2 1.3.5M1575.01 693.4c0 1-1.3 1.6-4.2 1.8l-4.3.3v29l4.2.3c3.4.3 4.3.7 4.6 2.5l.4 2.2.2-2.2c.1-2.1.6-2.2 9.9-2.5l9.7-.3.3-14.8.3-14.7h-7.6c-4.9 0-8.7-.6-10.5-1.5-2.6-1.4-3-1.4-3-.1m18 16.6v12h-8.5c-6.1 0-8.5-.4-8.6-1.3q0-1.5-.6 0c-.2.7-1.8 1.3-3.4 1.3h-2.9v-23.8l12-.1 12-.1z" style="fill:#000;stroke:none;stroke-width:.1"/><path d="M1575.01 703.8c0 1.1 2.2 3.2 3.3 3.2.4 0 .5-.5.2-1-.4-.6 1-1 3.4-1 2.3 0 4.1-.5 4.1-1 0-.6-2.5-1-5.5-1s-5.5.4-5.5.8M1576.31 709.7c-.8.2-1.3 2.2-1.3 4.4v3.9h5.5c3 0 5.5-.5 5.5-1 0-.6-.9-1-1.9-1-1.2 0-2.1-1-2.6-2.7-.9-3.7-2.5-4.8-5.2-3.6m3.7 3.8c0 1.8-.5 2.5-2 2.5-2 0-2.8-2.8-1.3-4.3 1.5-1.6 3.3-.6 3.3 1.8M1633.01 710.5c0 5.7 1.6 7.6 2.3 2.7.4-2.4.4-2.4.6.6l.1 3.4 11-.4c8.5-.2 11.3-.7 12-1.8 1.5-2.3 1.2-3.9-.9-5.7-1.1-.9-1.7-2.1-1.4-2.6s.9-.3 1.4.4c.7 1.1.9 1 .9-.4 0-1.5-1.3-1.7-13-1.7h-13zm2.7-1.3c-.3.7-.5.2-.5-1.2s.2-1.9.5-1.3c.2.7.2 1.9 0 2.5m12.3.3c-.9 1-.9 1.5-.1 1.5.6 0 1.1.7 1.1 1.5 0 1.1-.9 1.4-3.5 1.2-3.1-.2-3.5-.5-3.5-3 0-2.4.3-2.7 3.6-2.7 3.1 0 3.5.2 2.4 1.5m10 3.6c0 1.1-.4 1.7-1 1.4-.5-.3-1-1.5-1-2.6s.5-1.7 1-1.4c.6.3 1 1.5 1 2.6M1785.81 709c-.7 1.1-2.1 2-3.2 2-1.5 0-1.6-.3-.6-1.5.9-1.1.9-1.5.1-1.5-.6 0-1.4.7-1.7 1.5-.4 1-2 1.5-5 1.5h-4.4v29h30v-29h-4.8c-3.6 0-5-.5-6-2-.7-1.1-1.7-2-2.2-2s-1.5.9-2.2 2m3.7 1c.3.5-.3 1-1.5 1s-1.8-.5-1.5-1c.3-.6 1-1 1.5-1s1.2.4 1.5 1m-8.5 5.2c1.5 1 2.2 1 3.2 0 1.4-1.4 4.2-1.6 3.3-.2-.3.5.1 1 .9 1s1.8-.5 2.1-1c.3-.6 2.2-1 4.1-1h3.4v23h-24v-23h2.5c1.4 0 3.4.6 4.5 1.2" style="fill:#000;stroke:none;stroke-width:.1"/><path d="M1793.31 721.5c0 2.7.2 3.8.4 2.2.2-1.5.2-3.7 0-5-.2-1.2-.4 0-.4 2.8M1780.11 728.8c-.7 1.2-.6 2.6.2 4.3 1 1.9 2 2.4 5.1 2.4 2.5 0 4.3-.6 4.9-1.6 1.4-2.2 0-6.9-2-6.9-1.5 0-1.5.1 0 1.8 2.3 2.5 2.1 4.1-.7 5.3-4.5 2.1-8.7-2.6-5.4-5.9.9-.9.9-1.2 0-1.2-.6 0-1.6.8-2.1 1.8M1531.01 715.4c0 3.8-.3 4.5-2.2 4.9l-2.3.4 2.3.2c2.1.1 2.2.5 2.2 9.6v9.5h29v-4.1c0-2.3.7-4.7 1.5-5.5.8-.9 1.5-2.2 1.5-2.9s-.7-2-1.5-2.9c-.8-.8-1.5-2.1-1.5-2.8 0-1 .3-.9 1 .2.8 1.3 1 1.2 1-.3 0-.9-.4-1.7-1-1.7-.5 0-1-2-1-4.5V711h-29zm25.5 3.3c-.8 5.6-.8 8.3.1 14l.6 4.3h-23.2v-8c0-5.7.4-8 1.3-8.1q1.5 0 0-.6c-.7-.2-1.3-1.8-1.3-3.4V714h23.3zm4.2 10.5c-.3.7-.5.2-.5-1.2s.2-1.9.5-1.3c.2.7.2 1.9 0 2.5" style="fill:#000;stroke:none;stroke-width:.1"/><path d="M1537.01 725.5c0 3 .5 5.5 1 5.5.6 0 1-.8 1-1.9 0-1.2.9-2 2.9-2.4 5.8-1.2 4.6-6.7-1.5-6.7h-3.4zm6.8-2.3c.3 1.3-.3 1.8-2.2 1.8-2 0-2.6-.5-2.6-2.1 0-1.5.5-2 2.2-1.7 1.3.2 2.4 1.1 2.6 2M1550.21 721.2c-1.5 1.5-1.6 3.2-.2 2.3.6-.4 1 1 1 3.4 0 2.3.5 4.1 1 4.1.6 0 1-2.5 1-5.5 0-5.6-.6-6.5-2.8-4.3M1808.21 714.2c.2.6 1.8 1.6 3.5 2.2 4.8 1.7 4.9 2.4.4 3.7-6.1 1.8-5.3 3.9 1.4 3.9 6.1 0 7.7-2 1.8-2.1l-3.8-.1 3.2-1.1c4.4-1.6 4.5-2.8.3-4.3l-3.5-1.2 3.8-.1c6-.1 4.3-2.1-1.9-2.1-3.8 0-5.4.4-5.2 1.2M1809.31 725.7c-.8.2-1.3 2.2-1.3 4.4v3.9h5.5c3 0 5.5-.5 5.5-1 0-.6-.9-1-1.9-1-1.2 0-2.1-1-2.6-2.7-.9-3.7-2.5-4.8-5.2-3.6m3.7 3.8c0 1.8-.5 2.5-2 2.5-2 0-2.8-2.8-1.3-4.3 1.5-1.6 3.3-.6 3.3 1.8" style="fill:#000;stroke:none;stroke-width:.1"/></svg>