<svg xmlns="http://www.w3.org/2000/svg" width="181.029" height="209.096" viewBox="0 0 135.772 156.822"><clipPath id="a"><path d="M-335.747 473.962h842v-595h-842Z"/></clipPath><g clip-path="url(#a)"><clipPath id="b"><path d="M-335.747 451.51h836.139v-572.527h-836.139Z"/></clipPath><g clip-path="url(#b)"><path fill="#fffcf8" fill-rule="evenodd" d="M-329.511-97.323v547.24h828.794v-547.24z"/><path fill="none" stroke="#000" stroke-linecap="round" stroke-miterlimit="10" stroke-width=".16" d="M8.316 733.34h1105.206V2.127H8.316Z" transform="matrix(.7499 0 0 -.7484 -335.747 451.51)"/><path fill="#fffcf8" fill-rule="evenodd" d="M-315.09-82.914v518.423h799.952V-82.914z"/><path fill="none" stroke="#000" stroke-linecap="round" stroke-miterlimit="10" stroke-width=".16" d="M27.546 714.088h1066.746V21.38H27.546ZM284.617 2.127v19.252" transform="matrix(.7499 0 0 -.7484 -335.747 451.51)"/><text xml:space="preserve" font-family="Times New Roman" font-size="8.645" transform="matrix(.7499 0 0 .7484 -335.747 451.51)"><tspan x="143.128" y="-8.851">1</tspan></text><path fill="none" stroke="#000" stroke-linecap="round" stroke-miterlimit="10" stroke-width=".16" d="M284.617 733.34v-19.242" transform="matrix(.7499 0 0 -.7484 -335.747 451.51)"/><text xml:space="preserve" font-family="Times New Roman" font-size="8.645" transform="matrix(.7499 0 0 .7484 -335.747 451.51)"><tspan x="143.128" y="-720.813">1</tspan></text><path fill="none" stroke="#000" stroke-linecap="round" stroke-miterlimit="10" stroke-width=".16" d="M560.919 2.127v19.252" transform="matrix(.7499 0 0 -.7484 -335.747 451.51)"/><text xml:space="preserve" font-family="Times New Roman" font-size="8.645" transform="matrix(.7499 0 0 .7484 -335.747 451.51)"><tspan x="418.83" y="-8.851">2</tspan></text><path fill="none" stroke="#000" stroke-linecap="round" stroke-miterlimit="10" stroke-width=".16" d="M560.919 733.34v-19.252" transform="matrix(.7499 0 0 -.7484 -335.747 451.51)"/><text xml:space="preserve" font-family="Times New Roman" font-size="8.645" transform="matrix(.7499 0 0 .7484 -335.747 451.51)"><tspan x="418.83" y="-720.813">2</tspan></text><path fill="none" stroke="#000" stroke-linecap="round" stroke-miterlimit="10" stroke-width=".16" d="M837.22 2.127v19.252" transform="matrix(.7499 0 0 -.7484 -335.747 451.51)"/><text xml:space="preserve" font-family="Times New Roman" font-size="8.645" transform="matrix(.7499 0 0 .7484 -335.747 451.51)"><tspan x="695.492" y="-8.851">3</tspan></text><path fill="none" stroke="#000" stroke-linecap="round" stroke-miterlimit="10" stroke-width=".16" d="M837.22 733.34v-19.252" transform="matrix(.7499 0 0 -.7484 -335.747 451.51)"/><text xml:space="preserve" font-family="Times New Roman" font-size="8.645" transform="matrix(.7499 0 0 .7484 -335.747 451.51)"><tspan x="695.492" y="-720.813">3</tspan></text><path fill="none" stroke="#000" stroke-linecap="round" stroke-miterlimit="10" stroke-width=".16" d="M1113.522 2.127v19.252" transform="matrix(.7499 0 0 -.7484 -335.747 451.51)"/><text xml:space="preserve" font-family="Times New Roman" font-size="8.645" transform="matrix(.7499 0 0 .7484 -335.747 451.51)"><tspan x="971.353" y="-8.851">4</tspan></text><path fill="none" stroke="#000" stroke-linecap="round" stroke-miterlimit="10" stroke-width=".16" d="M1113.522 733.34v-19.252" transform="matrix(.7499 0 0 -.7484 -335.747 451.51)"/><text xml:space="preserve" font-family="Times New Roman" font-size="8.645" transform="matrix(.7499 0 0 .7484 -335.747 451.51)"><tspan x="971.353" y="-720.813">4</tspan></text><path fill="none" stroke="#000" stroke-linecap="round" stroke-miterlimit="10" stroke-width=".16" d="M8.316 184.94h19.23" transform="matrix(.7499 0 0 -.7484 -335.747 451.51)"/><text xml:space="preserve" font-family="Times New Roman" font-size="8.645" transform="matrix(.7499 0 0 .7484 -335.747 451.51)"><tspan x="15.033" y="-90.662">D</tspan></text><path fill="none" stroke="#000" stroke-linecap="round" stroke-miterlimit="10" stroke-width=".16" d="M1113.522 184.92h-19.23" transform="matrix(.7499 0 0 -.7484 -335.747 451.51)"/><text xml:space="preserve" font-family="Times New Roman" font-size="8.645" transform="matrix(.7499 0 0 .7484 -335.747 451.51)"><tspan x="1100.889" y="-90.662">D</tspan></text><path fill="none" stroke="#000" stroke-linecap="round" stroke-miterlimit="10" stroke-width=".16" d="M8.316 367.734h19.23" transform="matrix(.7499 0 0 -.7484 -335.747 451.51)"/><text xml:space="preserve" font-family="Times New Roman" font-size="8.645" transform="matrix(.7499 0 0 .7484 -335.747 451.51)"><tspan x="15.192" y="-273.495">C</tspan></text><path fill="none" stroke="#000" stroke-linecap="round" stroke-miterlimit="10" stroke-width=".16" d="M1113.522 367.714h-19.23" transform="matrix(.7499 0 0 -.7484 -335.747 451.51)"/><text xml:space="preserve" font-family="Times New Roman" font-size="8.645" transform="matrix(.7499 0 0 .7484 -335.747 451.51)"><tspan x="1101.208" y="-273.495">C</tspan></text><path fill="none" stroke="#000" stroke-linecap="round" stroke-miterlimit="10" stroke-width=".16" d="M8.316 550.537h19.22" transform="matrix(.7499 0 0 -.7484 -335.747 451.51)"/><text xml:space="preserve" font-family="Times New Roman" font-size="8.645" transform="matrix(.7499 0 0 .7484 -335.747 451.51)"><tspan x="15.192" y="-456.329">B</tspan></text><path fill="none" stroke="#000" stroke-linecap="round" stroke-miterlimit="10" stroke-width=".16" d="M1113.522 550.507h-19.23" transform="matrix(.7499 0 0 -.7484 -335.747 451.51)"/><text xml:space="preserve" font-family="Times New Roman" font-size="8.645" transform="matrix(.7499 0 0 .7484 -335.747 451.51)"><tspan x="1101.208" y="-456.329">B</tspan></text><path fill="none" stroke="#000" stroke-linecap="round" stroke-miterlimit="10" stroke-width=".16" d="M8.316 733.34h19.22" transform="matrix(.7499 0 0 -.7484 -335.747 451.51)"/><text xml:space="preserve" font-family="Times New Roman" font-size="8.645" transform="matrix(.7499 0 0 .7484 -335.747 451.51)"><tspan x="14.873" y="-639.162">A</tspan></text><path fill="none" stroke="#000" stroke-linecap="round" stroke-miterlimit="10" stroke-width=".16" d="M1113.522 733.34h-19.23" transform="matrix(.7499 0 0 -.7484 -335.747 451.51)"/><text xml:space="preserve" font-family="Times New Roman" font-size="8.645" transform="matrix(.7499 0 0 .7484 -335.747 451.51)"><tspan x="1100.729" y="-639.162">A</tspan></text><path fill="none" stroke="#000" stroke-linecap="round" stroke-miterlimit="10" stroke-width=".16" d="M757.94 98.347h336.352M757.94 69.489h336.352M757.94 40.59h336.352M757.94 30.985h336.352M757.94 98.347V21.379M998.18 69.489V40.59M805.996 69.489V40.59M950.124 40.59V21.38" transform="matrix(.7499 0 0 -.7484 -335.747 451.51)"/><text xml:space="preserve" font-family="Times New Roman" font-size="8.645" transform="matrix(.7499 0 0 .7484 -335.747 451.51)"><tspan x="762.658 767.62136 770.02389 772.4264 774.8289" y="-90.662">Title</tspan></text><text xml:space="preserve" font-family="Times New Roman" font-size="8.645" transform="matrix(.7499 0 0 .7484 -335.747 451.51)"><tspan x="810.7939 817.03677 821.3603 828.0873 832.4108 836.25027" y="-61.844">Number</tspan></text><text xml:space="preserve" font-family="Times New Roman" font-size="8.645" transform="matrix(.7499 0 0 .7484 -335.747 451.51)"><tspan x="1003.0176 1008.7832 1012.6209 1016.94277 1019.3453 1022.70748 1025.11 1029.4318" y="-61.844">Revision</tspan></text><text xml:space="preserve" font-family="Times New Roman" font-size="8.645" transform="matrix(.7499 0 0 .7484 -335.747 451.51)"><tspan x="762.658 767.4657 769.87 773.7094" y="-61.844">Size</tspan></text><text xml:space="preserve" font-family="Times New Roman" font-size="8.645" transform="matrix(.7499 0 0 .7484 -335.747 451.51)"><tspan x="767.4556 773.6985" y="-47.435">A4</tspan></text><text xml:space="preserve" font-family="Times New Roman" font-size="8.645" transform="matrix(.7499 0 0 .7484 -335.747 451.51)"><tspan x="762.658 768.9009 772.7403 775.1446 778.984" y="-33.026">Date:</tspan></text><text xml:space="preserve" font-family="Times New Roman" font-size="8.645" transform="matrix(.7499 0 0 .7484 -335.747 451.51)"><tspan x="805.9963 810.23947 814.4826 817.282 821.526 825.84957 828.7293 833.05288 837.3764 841.69998" y="-33.026">10-11-2022</tspan></text><text xml:space="preserve" font-family="Times New Roman" font-size="8.645" transform="matrix(.7499 0 0 .7484 -335.747 451.51)"><tspan x="954.8817 959.71279 964.0597 967.9225 971.7853 974.2129 976.39846 978.584 980.76956 985.11648" y="-33.026">Sheet   of</tspan></text><text xml:space="preserve" font-family="Times New Roman" font-size="8.645" transform="matrix(.7499 0 0 .7484 -335.747 451.51)"><tspan x="762.658 767.464 769.8665 772.26907 776.10678" y="-23.42">File:</tspan></text><text xml:space="preserve" font-family="Times New Roman" font-size="8.645" transform="matrix(.7499 0 0 .7484 -335.747 451.51)"><tspan x="805.9963 810.81008 815.13967 818.9851 822.83059 825.2409 829.5705 831.7388 836.55258 840.398 844.7276 850.9765 855.3061" y="-23.42">Sheet1.SchDoc</tspan></text><text xml:space="preserve" font-family="Times New Roman" font-size="8.645" transform="matrix(.7499 0 0 .7484 -335.747 451.51)"><tspan x="954.8817 961.1332 964.0216 967.8697 974.12118 978.45339 980.6242 986.4002 990.7324" y="-23.42">Drawn By:</tspan></text><path fill="none" stroke="#00f" stroke-linecap="round" stroke-miterlimit="10" stroke-width=".96" d="M538.03 513.184h4.798M533.213 513.184h4.817M525.057 514.625l5.277 5.303M525.537 510.302l5.277 5.283" transform="matrix(.7499 0 0 -.7484 -335.747 451.51)"/><path fill="#00f" fill-rule="evenodd" d="m57.993 66.364 1.08-2.516 1.439 1.438Z"/><path fill="none" stroke="#00f" stroke-linecap="round" stroke-miterlimit="10" stroke-width=".96" d="m525.057 514.625 1.44 3.362 1.918-1.921Z" transform="matrix(.7499 0 0 -.7484 -335.747 451.51)"/><path fill="#00f" fill-rule="evenodd" d="m58.353 69.6 1.08-2.517 1.438 1.438Z"/><path fill="none" stroke="#00f" stroke-linecap="round" stroke-miterlimit="10" stroke-width=".96" d="m525.537 510.302 1.439 3.362 1.92-1.921Z" transform="matrix(.7499 0 0 -.7484 -335.747 451.51)"/><path fill="none" stroke="#000" stroke-linecap="round" stroke-miterlimit="10" stroke-width=".96" d="M538.03 522.81v9.626M538.03 513.184v-9.626" transform="matrix(.7499 0 0 -.7484 -335.747 451.51)"/><path fill="#00f" fill-rule="evenodd" d="M60.512 60.238h14.406l-7.196 7.204Z"/><path fill="none" stroke="#00f" stroke-linecap="round" stroke-miterlimit="10" stroke-width=".96" d="M528.415 522.81h19.21l-9.595-9.626Z" transform="matrix(.7499 0 0 -.7484 -335.747 451.51)"/><text xml:space="preserve" fill="navy" font-family="Times New Roman" font-size="8.645" transform="matrix(.7499 0 0 .7484 -335.747 451.51)"><tspan x="548.5252 554.76809 560.0513" y="-516.046">DL1</tspan></text><text xml:space="preserve" fill="navy" font-family="Times New Roman" font-size="8.645" transform="matrix(.7499 0 0 .7484 -335.747 451.51)"><tspan x="548.5252 554.7672 559.57406 567.2598 573.50186 576.38076 582.1472 586.4699 590.7926" y="-506.44">HSMD-C190</tspan></text><path fill="none" stroke="#000" stroke-linecap="round" stroke-miterlimit="10" stroke-width=".96" d="M538.03 560.693v9.606M538.03 541.441v-9.626" transform="matrix(.7499 0 0 -.7484 -335.747 451.51)"/><path fill="none" stroke="#00f" stroke-linecap="round" stroke-miterlimit="10" stroke-width=".96" d="M538.03 560.693v-3.862M538.03 556.83l1.92-.96M539.95 555.87l-3.839-1.92M536.112 553.95l3.837-1.922M539.95 552.028l-3.839-1.921M536.112 550.107l3.837-1.921M539.95 548.186l-3.839-1.942M536.112 546.244l1.918-.96M538.03 545.284v-3.843" transform="matrix(.7499 0 0 -.7484 -335.747 451.51)"/><text xml:space="preserve" fill="navy" font-family="Times New Roman" font-size="8.645" transform="matrix(.7499 0 0 .7484 -335.747 451.51)"><tspan x="540.8491 545.1718 549.4945" y="-544.383">100</tspan></text><text xml:space="preserve" fill="navy" font-family="Times New Roman" font-size="8.645" transform="matrix(.7499 0 0 .7484 -335.747 451.51)"><tspan x="540.8491 546.6139" y="-553.989">R1</tspan></text><path fill="none" stroke="#000" stroke-linecap="round" stroke-miterlimit="10" stroke-width=".96" d="M538.03 485.527v9.626M518.8 475.92h-9.615M538.03 466.295v-9.626" transform="matrix(.7499 0 0 -.7484 -335.747 451.51)"/><path fill="none" stroke="#00f" stroke-linecap="round" stroke-miterlimit="10" stroke-width=".96" d="M538.03 482.645h-9.615M538.03 475.92h-9.615M538.03 469.177h-9.615M538.03 475.92v-9.625M526.496 484.566v-17.31M528.415 484.566v-3.842M528.415 473.98v3.862M528.415 467.255v3.843M518.8 475.92h7.696" transform="matrix(.7499 0 0 -.7484 -335.747 451.51)"/><path fill="#00f" fill-rule="evenodd" d="m60.512 95.33 4.317 1.453v-2.89Z"/><path fill="none" stroke="#00f" stroke-linecap="round" stroke-miterlimit="10" stroke-width=".16" d="m528.415 475.92 5.757-1.94v3.862Z" transform="matrix(.7499 0 0 -.7484 -335.747 451.51)"/><path fill="none" stroke="#00f" stroke-linecap="round" stroke-miterlimit="10" stroke-width=".96" d="M538.03 482.645v2.882M538.03 482.645v2.882" transform="matrix(.7499 0 0 -.7484 -335.747 451.51)"/><path fill="#00f" fill-rule="evenodd" d="M73.478 92.454 70.6 96.783h5.772Z"/><path fill="none" stroke="#00f" stroke-linecap="round" stroke-miterlimit="10" stroke-width=".16" d="m545.707 479.763-3.838-5.783h7.696Z" transform="matrix(.7499 0 0 -.7484 -335.747 451.51)"/><path fill="none" stroke="#00f" stroke-linecap="round" stroke-miterlimit="10" stroke-width=".96" d="M545.707 466.295v9.626M545.707 466.295h-7.677M541.869 479.763h7.696M545.707 485.527h-7.677M545.707 478.803v6.724" transform="matrix(.7499 0 0 -.7484 -335.747 451.51)"/><text xml:space="preserve" fill="navy" font-family="Times New Roman" font-size="8.645" transform="matrix(.7499 0 0 .7484 -335.747 451.51)"><tspan x="550.4443 556.68716 561.0107" y="-478.903">Q1A</tspan></text><text xml:space="preserve" fill="navy" font-family="Times New Roman" font-size="8.645" transform="matrix(.7499 0 0 .7484 -335.747 451.51)"><tspan x="550.4443 556.2082 561.01248 565.8167 570.13687 574.457 578.7771 583.58139" y="-469.297">BSS138PS</tspan></text><path fill="none" stroke="maroon" stroke-linecap="round" stroke-miterlimit="10" stroke-width=".96" d="M528.415 428.111h19.21M531.294 425.23h13.453M534.172 422.348h7.697M537.071 419.446h1.919" transform="matrix(.7499 0 0 -.7484 -335.747 451.51)"/><text xml:space="preserve" fill="maroon" font-family="Times New Roman" font-size="8.645" transform="matrix(.7499 0 0 .7484 -335.747 451.51)"><tspan x="528.8551 534.93887 541.18258" y="-410.86">GND</tspan></text><path fill="none" stroke="maroon" stroke-linecap="round" stroke-miterlimit="10" stroke-width=".96" d="M538.03 437.737v-9.626M538.03 579.925l-2.898-5.763M538.03 579.925l2.88-5.763M535.132 574.162h5.777" transform="matrix(.7499 0 0 -.7484 -335.747 451.51)"/><text xml:space="preserve" fill="maroon" font-family="Times New Roman" font-size="8.645" transform="matrix(.7499 0 0 .7484 -335.747 451.51)"><tspan x="530.9341 535.2576 541.5005" y="-581.846">3V3</tspan></text><path fill="none" stroke="maroon" stroke-linecap="round" stroke-miterlimit="10" stroke-width=".96" d="M538.03 570.3v3.862" transform="matrix(.7499 0 0 -.7484 -335.747 451.51)"/><path fill="none" stroke="navy" stroke-linecap="round" stroke-miterlimit="10" stroke-width=".96" d="M538.03 532.436v-.62M538.03 503.558v-8.405M538.03 456.669v-18.932" transform="matrix(.7499 0 0 -.7484 -335.747 451.51)"/><path fill="#ffff80" fill-rule="evenodd" d="M10.968 91.736v7.204H39.57v-7.204z"/><path fill="none" stroke="maroon" stroke-linecap="round" stroke-miterlimit="10" stroke-width=".16" d="M462.348 471.098v9.626h38.141v-9.626Z" transform="matrix(.7499 0 0 -.7484 -335.747 451.51)"/><text xml:space="preserve" fill="maroon" font-family="Times New Roman" font-size="8.645" transform="matrix(.7499 0 0 .7484 -335.747 451.51)"><tspan x="471.9236 476.72959 481.05143 483.92948" y="-473.139">Port</tspan></text><path fill="none" stroke="navy" stroke-linecap="round" stroke-miterlimit="10" stroke-width=".96" d="M500.49 475.92h8.695" transform="matrix(.7499 0 0 -.7484 -335.747 451.51)"/></g><text xml:space="preserve" fill-opacity="0" font-family="Courier" font-size="2.803" transform="matrix(.25482 -.00004 .00068 3.92429 -335.747 473.962)"><tspan x="1573.925" y="-105.83">P</tspan><tspan x="1575.607 1577.2888" y="-105.83">ID</tspan><tspan x="1578.9706 1580.6524" y="-105.83">L1</tspan><tspan x="1582.3341 1584.0159" y="-105.83">0A</tspan><tspan x="1585.698" y="-105.83"> </tspan></text><text xml:space="preserve" fill-opacity="0" font-family="Courier" font-size="2.673" transform="matrix(.26726 -.00005 .00064 3.74165 -335.747 473.962)"><tspan x="1500.66" y="-107.173">P</tspan><tspan x="1502.2634 1503.8671" y="-107.173">ID</tspan><tspan x="1505.4707 1507.0744" y="-107.173">L1</tspan><tspan x="1508.678 1510.2816 1511.8853" y="-107.173">0C </tspan></text><text xml:space="preserve" fill-opacity="0" font-family="Courier" font-size="4.899" transform="matrix(.61237 -.0001 .00029 1.633 -335.747 473.962)"><tspan x="671.27896 674.21829" y="-250.696">CO</tspan><tspan x="677.15768 680.09707 683.0364" y="-250.696">DL1</tspan><tspan x="685.976" y="-250.696"> </tspan></text><text xml:space="preserve" fill-opacity="0" font-family="Courier" font-size="2.887" transform="matrix(.28867 -.00005 .00059 3.4641 -335.747 473.962)"><tspan x="1389.328" y="-105.655">P</tspan><tspan x="1391.06" y="-105.655">I</tspan><tspan x="1392.7916 1394.5237 1396.2557" y="-105.655">Q10</tspan><tspan x="1397.988" y="-105.655">1</tspan><tspan x="1399.72" y="-105.655"> </tspan></text><text xml:space="preserve" fill-opacity="0" font-family="Courier" font-size="2.887" transform="matrix(.96225 -.00016 .00017 1.03923 -335.747 473.962)"><tspan x="394.973" y="-363.594">P</tspan><tspan x="396.705" y="-363.594">I</tspan><tspan x="398.43754 400.16957" y="-363.594">Q1</tspan><tspan x="401.9016 403.63365 405.3657" y="-363.594">02 </tspan></text><text xml:space="preserve" fill-opacity="0" font-family="Courier" font-size="2.887" transform="matrix(.28867 -.00005 .00059 3.4641 -335.747 473.962)"><tspan x="1389.341" y="-112.006">P</tspan><tspan x="1391.072" y="-112.006">I</tspan><tspan x="1392.8046 1394.5366" y="-112.006">Q1</tspan><tspan x="1396.2687 1398.0007 1399.7328" y="-112.006">06 </tspan></text><text xml:space="preserve" fill-opacity="0" font-family="Courier" font-size="3.742" transform="matrix(.53452 -.0001 .00032 1.87083 -335.747 473.962)"><tspan x="770.90597 773.15097 775.396 777.641" y="-204.229">COQ1</tspan><tspan x="779.886 782.13107" y="-204.229">A </tspan></text><text xml:space="preserve" fill-opacity="0" font-family="Courier" font-size="2.887" transform="matrix(.28867 -.00005 .00059 3.4641 -335.747 473.962)"><tspan x="1389.3605 1391.0925 1392.8246" y="-121.821">PIR</tspan><tspan x="1394.5567 1396.2887 1398.0208 1399.7528" y="-121.821">101 </tspan><tspan x="1389.373" y="-128.172">P</tspan><tspan x="1391.1055 1392.8375" y="-128.172">IR</tspan><tspan x="1394.57" y="-128.172">1</tspan><tspan x="1396.3016 1398.0337" y="-128.172">02</tspan><tspan x="1399.766" y="-128.172"> </tspan></text><text xml:space="preserve" fill-opacity="0" font-family="Courier" font-size="4.183" transform="matrix(.59761 -.0001 .00029 1.67332 -335.747 473.962)"><tspan x="677.8216 680.33157" y="-261.803">CO</tspan><tspan x="682.84158 685.3515 687.8615" y="-261.803">R1 </tspan></text><text xml:space="preserve" fill-opacity="0" font-family="Courier" font-size="2.887" transform="matrix(.28867 -.00005 .00059 3.4641 -335.747 473.962)"><tspan x="1389.373" y="-128.172">P</tspan><tspan x="1391.1055 1392.8375" y="-128.172">IR</tspan><tspan x="1394.57" y="-128.172">1</tspan><tspan x="1396.3016 1398.0337" y="-128.172">02</tspan><tspan x="1399.766" y="-128.172"> </tspan><tspan x="1389.328" y="-105.655">P</tspan><tspan x="1391.06" y="-105.655">I</tspan><tspan x="1392.7916 1394.5237 1396.2557" y="-105.655">Q10</tspan><tspan x="1397.988" y="-105.655">1</tspan><tspan x="1399.72" y="-105.655"> </tspan></text><text xml:space="preserve" fill-opacity="0" font-family="Courier" font-size="2.803" transform="matrix(.25482 -.00004 .00068 3.92429 -335.747 473.962)"><tspan x="1573.925" y="-105.83">P</tspan><tspan x="1575.607 1577.2888" y="-105.83">ID</tspan><tspan x="1578.9706 1580.6524" y="-105.83">L1</tspan><tspan x="1582.3341 1584.0159" y="-105.83">0A</tspan><tspan x="1585.698" y="-105.83"> </tspan></text><text xml:space="preserve" fill-opacity="0" font-family="Courier" font-size="2.887" transform="matrix(.28867 -.00005 .00059 3.4641 -335.747 473.962)"><tspan x="1389.3605 1391.0925 1392.8246" y="-121.821">PIR</tspan><tspan x="1394.5567 1396.2887 1398.0208 1399.7528" y="-121.821">101 </tspan></text><text xml:space="preserve" fill-opacity="0" font-family="Courier" font-size="2.673" transform="matrix(.26726 -.00005 .00064 3.74165 -335.747 473.962)"><tspan x="1500.66" y="-107.173">P</tspan><tspan x="1502.2634 1503.8671" y="-107.173">ID</tspan><tspan x="1505.4707 1507.0744" y="-107.173">L1</tspan><tspan x="1508.678 1510.2816 1511.8853" y="-107.173">0C </tspan></text><text xml:space="preserve" fill-opacity="0" font-family="Courier" font-size="2.887" transform="matrix(.28867 -.00005 .00059 3.4641 -335.747 473.962)"><tspan x="1389.341" y="-112.006">P</tspan><tspan x="1391.072" y="-112.006">I</tspan><tspan x="1392.8046 1394.5366" y="-112.006">Q1</tspan><tspan x="1396.2687 1398.0007 1399.7328" y="-112.006">06 </tspan></text><text xml:space="preserve" fill-opacity="0" font-family="Courier" font-size="2.887" transform="matrix(.96225 -.00016 .00017 1.03923 -335.747 473.962)"><tspan x="394.973" y="-363.594">P</tspan><tspan x="396.705" y="-363.594">I</tspan><tspan x="398.43754 400.16957" y="-363.594">Q1</tspan><tspan x="401.9016 403.63365 405.3657" y="-363.594">02 </tspan></text><text xml:space="preserve" fill-opacity="0" font-family="Courier" font-size="7.509" transform="matrix(1.07275 -.00018 .00016 .93218 -335.747 473.962)"><tspan x="322.59635 327.1019 331.60746 336.113" y="-404.523">POPo</tspan><tspan x="340.6186 345.12416 349.6297" y="-404.523">rt </tspan><tspan x="322.59635 327.1019 331.60746 336.113" y="-404.523">POPo</tspan><tspan x="340.6186 345.12416 349.6297" y="-404.523">rt </tspan></text></g></svg>