<svg width="248" height="101" viewBox="0 0 248 101" fill="none" xmlns="http://www.w3.org/2000/svg">
<g clip-path="url(#clip0_427_2357)">
<path d="M6.43066 0.5L6.43066 100.5L247.5 100.5L247.5 0.5L6.43066 0.5ZM13.5238 97.999C10.9821 97.999 8.93298 95.9347 8.93298 93.3741C8.93298 90.8136 10.9821 88.7294 13.5238 88.7294C16.0656 88.7294 18.1344 90.7938 18.1344 93.3741C18.1344 95.9545 16.0853 97.999 13.5238 97.999ZM13.5238 12.2904C10.9821 12.2904 8.93298 10.2261 8.93298 7.66554C8.93298 5.105 10.9821 3.02084 13.5238 3.02084C16.0656 3.02084 18.1344 5.08515 18.1344 7.66554C18.1344 10.2459 16.0853 12.2904 13.5238 12.2904ZM240.407 97.999C237.865 97.999 235.816 95.9347 235.816 93.3741C235.816 90.8136 237.865 88.7294 240.407 88.7294C242.949 88.7294 245.017 90.7938 245.017 93.3741C245.017 95.9545 242.968 97.999 240.407 97.999ZM240.407 12.2904C237.865 12.2904 235.816 10.2261 235.816 7.66554C235.816 5.105 237.865 3.02084 240.407 3.02084C242.949 3.02084 245.017 5.08515 245.017 7.66554C245.017 10.2459 242.968 12.2904 240.407 12.2904Z" fill="#057582"/>
<path d="M66.9 56.415L66.4074 56.3952L65.8951 56.3356L65.4025 56.2166L64.9296 56.0776L64.4568 55.899L63.9839 55.6806L63.5504 55.4226L63.1366 55.1249L62.7426 54.8073L62.3879 54.45L62.053 54.053L61.7574 53.656L61.5013 53.2193L61.2648 52.7628L61.0678 52.2864L60.9299 51.81L60.8117 51.3138L60.7328 50.7977L60.7131 50.3015V49.7854L60.7722 49.2892L60.8708 48.7731L60.989 48.2967L61.1663 47.8204L61.383 47.344L61.6195 46.9073L61.8953 46.4905L62.2106 46.0736L62.5652 45.7164L62.9396 45.3789L63.3337 45.0613L63.7671 44.7834L64.2203 44.5453L64.6735 44.3468L65.1464 44.188L65.639 44.049L66.1512 43.9696L66.6438 43.9299H67.1561L67.6487 43.9696L68.161 44.049L68.6535 44.188L69.1264 44.3468L69.5796 44.5453L70.0328 44.7834L70.4662 45.0613L70.8603 45.3789L71.2347 45.7164L71.5893 46.0736L71.9046 46.4905L72.1804 46.9073L72.4366 47.344L72.6336 47.8204L72.8109 48.2967L72.9489 48.7731L73.0277 49.2892L73.0868 49.7854L73.1065 50.3015L73.0671 50.7977L72.9883 51.3138L72.87 51.81L72.7321 52.2864L72.5351 52.7628L72.3184 53.2193L72.0425 53.656L71.747 54.053L71.412 54.45L71.0573 54.8073L70.6633 55.1249L70.2495 55.4226L69.816 55.6806L69.3629 55.899L68.89 56.0776L68.3974 56.2166L67.9048 56.3356L67.4122 56.3952L66.9 56.415Z" fill="#F8FAFA"/>
<path d="M71.1952 60.0673H62.3879V63.4615H71.1952V60.0673Z" fill="#8C9091"/>
<path d="M71.1952 37.5385H62.3879V40.9327H71.1952V37.5385Z" fill="#8C9091"/>
<path d="M59.59 40.1982V61.1986H73.9931V40.1982H59.59ZM71.8454 51.9688L71.6878 52.3658L71.4908 52.7429L71.2741 53.12L70.7224 53.7949L70.4268 54.0926L70.0919 54.3705L69.7372 54.6087L69.3628 54.8271L68.9885 55.0256L68.5747 55.1843L68.1609 55.3034L67.7472 55.3828L67.3334 55.4424H66.8999H66.4665L66.033 55.3828L65.6192 55.3034L65.2055 55.1843L64.8114 55.0256L64.4173 54.8271L64.043 54.6087L63.708 54.3705L63.3731 54.0926L63.0775 53.7949L62.782 53.4575L62.5258 53.12L62.3091 52.7429L62.112 52.3658L61.9544 51.9688L61.8165 51.552L61.7377 51.1351L61.6589 50.6984V50.2618L61.6392 49.8449L61.6983 49.4082L61.7771 48.9716L61.8756 48.5746L62.0332 48.1577L62.2106 47.7608L62.4076 47.4035L62.6637 47.0263L62.9199 46.6889L63.2154 46.3713L63.5307 46.0934L63.8656 45.8155L64.24 45.5972L64.6144 45.3987L65.0084 45.2201L65.4222 45.0811L65.836 44.9819L66.2497 44.9025L66.6832 44.8628H67.1167L67.5304 44.9025L67.9639 44.9819L68.3777 45.0811L68.7914 45.2201L69.1658 45.3987L69.5599 45.5972L69.9145 45.8155L70.2692 46.0934L70.5844 46.3713L70.88 46.6889L71.1361 47.0263L71.3726 47.4035L71.5893 47.7608L71.7666 48.1577L71.9046 48.5746L72.0228 48.9716L72.1016 49.4082L72.141 49.8449V50.2618L72.1213 50.6984L72.0622 51.1351L71.9637 51.552L71.8454 51.9688Z" fill="#C4C6C7"/>
<path d="M123.291 56.415L122.798 56.3952L122.286 56.3356L121.793 56.2166L121.32 56.0776L120.848 55.899L120.375 55.6806L119.941 55.4226L119.527 55.1249L119.153 54.8073L118.779 54.45L118.444 54.053L118.148 53.656L117.892 53.2193L117.656 52.7628L117.478 52.2864L117.321 51.81L117.202 51.3138L117.124 50.7977L117.104 50.3015V49.7854L117.163 49.2892L117.262 48.7731L117.38 48.2967L117.557 47.8005L117.774 47.344L118.01 46.9073L118.306 46.4905L118.601 46.0736L118.956 45.7164L119.33 45.3789L119.724 45.0613L120.158 44.7834L120.611 44.5453L121.064 44.3468L121.537 44.1681L122.03 44.049L122.542 43.9696L123.054 43.9299H123.547L124.059 43.9696L124.552 44.049L125.044 44.1681L125.517 44.3468L125.99 44.5453L126.424 44.7834L126.857 45.0613L127.251 45.3789L127.645 45.7164L127.98 46.0736L128.295 46.4905L128.571 46.9073L128.827 47.344L129.024 47.8005L129.202 48.2967L129.34 48.7731L129.418 49.2892L129.478 49.7854L129.497 50.3015L129.458 50.7977L129.379 51.3138L129.261 51.81L129.123 52.2864L128.926 52.7628L128.709 53.2193L128.433 53.656L128.138 54.053L127.803 54.45L127.448 54.8073L127.054 55.1249L126.66 55.4226L126.207 55.6806L125.754 55.899L125.281 56.0776L124.788 56.2166L124.296 56.3356L123.803 56.3952L123.291 56.415Z" fill="#F8FAFA"/>
<path d="M127.586 60.0673H118.779V63.4615H127.586V60.0673Z" fill="#8C9091"/>
<path d="M127.586 37.5385H118.779V40.9327H127.586V37.5385Z" fill="#8C9091"/>
<path d="M115.981 40.1982V61.1986H130.384V40.1982H115.981ZM128.236 51.9688L128.079 52.3658L127.882 52.7429L127.665 53.12L127.113 53.7949L126.818 54.0926L126.483 54.3705L126.128 54.6087L125.754 54.8271L125.379 55.0256L124.965 55.1843L124.552 55.3034L124.138 55.3828L123.724 55.4424H123.291H122.857L122.424 55.3828L122.01 55.3034L121.596 55.1843L121.202 55.0256L120.808 54.8271L120.434 54.6087L120.099 54.3705L119.764 54.0926L119.468 53.7949L119.173 53.4575L118.917 53.12L118.7 52.7429L118.503 52.3658L118.345 51.9688L118.207 51.552L118.128 51.1351L118.05 50.6984V50.2618L118.03 49.8449L118.089 49.4082L118.168 48.9716L118.266 48.5746L118.424 48.1577L118.601 47.7608L118.798 47.4035L119.054 47.0263L119.311 46.6889L119.606 46.3713L119.921 46.0934L120.256 45.8155L120.631 45.5972L121.005 45.3987L121.399 45.2201L121.813 45.0811L122.227 44.9819L122.64 44.9025L123.074 44.8628H123.507L123.921 44.9025L124.355 44.9819L124.768 45.0811L125.182 45.2201L125.557 45.3987L125.951 45.5972L126.305 45.8155L126.66 46.0934L126.975 46.3713L127.271 46.6889L127.527 47.0263L127.763 47.4035L127.98 47.7608L128.157 48.1577L128.295 48.5746L128.414 48.9716L128.492 49.4082L128.532 49.8449V50.2618L128.512 50.6984L128.453 51.1351L128.354 51.552L128.236 51.9688Z" fill="#C4C6C7"/>
<path d="M33.2665 0.5V7.82433C33.2665 10.2856 31.2764 12.2904 28.8135 12.2904C26.3506 12.2904 24.3803 10.2856 24.3803 7.82433V0.5L33.2665 0.5Z" fill="#C3BAB0"/>
<path d="M28.8136 10.762C30.4132 10.762 31.7099 9.45569 31.7099 7.84422C31.7099 6.23275 30.4132 4.92639 28.8136 4.92639C27.2139 4.92639 25.9172 6.23275 25.9172 7.84422C25.9172 9.45569 27.2139 10.762 28.8136 10.762Z" fill="white"/>
<path d="M31.7099 0.5C31.7099 2.10778 30.4292 3.41782 28.8136 3.41782C27.1979 3.41782 25.9172 2.10778 25.9172 0.5L31.7099 0.5Z" fill="white"/>
<path d="M47.2755 0.5V7.82433C47.2755 10.2856 45.2855 12.2904 42.8226 12.2904C40.3597 12.2904 38.3893 10.2856 38.3893 7.82433V0.5L47.2755 0.5Z" fill="#C3BAB0"/>
<path d="M42.8226 10.762C44.4222 10.762 45.719 9.45569 45.719 7.84422C45.719 6.23275 44.4222 4.92639 42.8226 4.92639C41.223 4.92639 39.9262 6.23275 39.9262 7.84422C39.9262 9.45569 41.223 10.762 42.8226 10.762Z" fill="white"/>
<path d="M45.719 0.5C45.719 2.10778 44.4383 3.41782 42.8226 3.41782C41.2069 3.41782 39.9262 2.10778 39.9262 0.5L45.719 0.5Z" fill="white"/>
<path d="M61.3042 0.5V7.82433C61.3042 10.2856 59.3142 12.2904 56.8513 12.2904C54.3884 12.2904 52.418 10.2856 52.418 7.82433V0.5L61.3042 0.5Z" fill="#C3BAB0"/>
<path d="M56.8513 10.762C58.4509 10.762 59.7477 9.45569 59.7477 7.84422C59.7477 6.23275 58.4509 4.92639 56.8513 4.92639C55.2517 4.92639 53.9549 6.23275 53.9549 7.84422C53.9549 9.45569 55.2517 10.762 56.8513 10.762Z" fill="white"/>
<path d="M59.7477 0.5C59.7477 2.10778 58.4669 3.41782 56.8513 3.41782C55.2356 3.41782 53.9549 2.10778 53.9549 0.5L59.7477 0.5Z" fill="white"/>
<path d="M75.3132 0.5V7.82433C75.3132 10.2856 73.3232 12.2904 70.8603 12.2904C68.3974 12.2904 66.4271 10.2856 66.4271 7.82433V0.5L75.3132 0.5Z" fill="#C3BAB0"/>
<path d="M70.88 10.762C72.4796 10.762 73.7764 9.45569 73.7764 7.84422C73.7764 6.23275 72.4796 4.92639 70.88 4.92639C69.2804 4.92639 67.9836 6.23275 67.9836 7.84422C67.9836 9.45569 69.2804 10.762 70.88 10.762Z" fill="white"/>
<path d="M73.7567 0.5C73.7567 2.10778 72.476 3.41782 70.8603 3.41782C69.2446 3.41782 67.9639 2.10778 67.9639 0.5L73.7567 0.5Z" fill="white"/>
<path d="M89.3419 0.5V7.82433C89.3419 10.2856 87.3519 12.2904 84.889 12.2904C82.4261 12.2904 80.4557 10.2856 80.4557 7.82433V0.5L89.3419 0.5Z" fill="#C3BAB0"/>
<path d="M84.889 10.762C86.4886 10.762 87.7854 9.45569 87.7854 7.84422C87.7854 6.23275 86.4886 4.92639 84.889 4.92639C83.2894 4.92639 81.9926 6.23275 81.9926 7.84422C81.9926 9.45569 83.2894 10.762 84.889 10.762Z" fill="white"/>
<path d="M87.7854 0.5C87.7854 2.10778 86.5047 3.41782 84.889 3.41782C83.2733 3.41782 81.9926 2.10778 81.9926 0.5L87.7854 0.5Z" fill="white"/>
<path d="M103.351 0.5V7.82433C103.351 10.2856 101.361 12.2904 98.898 12.2904C96.4351 12.2904 94.4648 10.2856 94.4648 7.82433V0.5L103.351 0.5Z" fill="#C3BAB0"/>
<path d="M98.9177 10.762C100.517 10.762 101.814 9.45569 101.814 7.84422C101.814 6.23275 100.517 4.92639 98.9177 4.92639C97.3181 4.92639 96.0214 6.23275 96.0214 7.84422C96.0214 9.45569 97.3181 10.762 98.9177 10.762Z" fill="white"/>
<path d="M101.794 0.5C101.794 2.10778 100.514 3.41782 98.898 3.41782C97.2824 3.41782 96.0016 2.10778 96.0016 0.5L101.794 0.5Z" fill="white"/>
<path d="M117.38 0.5V7.82433C117.38 10.2856 115.39 12.2904 112.927 12.2904C110.464 12.2904 108.494 10.2856 108.494 7.82433V0.5L117.38 0.5Z" fill="#C3BAB0"/>
<path d="M112.927 10.762C114.526 10.762 115.823 9.45569 115.823 7.84422C115.823 6.23275 114.526 4.92639 112.927 4.92639C111.327 4.92639 110.03 6.23275 110.03 7.84422C110.03 9.45569 111.327 10.762 112.927 10.762Z" fill="white"/>
<path d="M115.823 0.5C115.823 2.10778 114.542 3.41782 112.927 3.41782C111.311 3.41782 110.03 2.10778 110.03 0.5L115.823 0.5Z" fill="white"/>
<path d="M131.408 0.5V7.82433C131.408 10.2856 129.418 12.2904 126.955 12.2904C124.493 12.2904 122.522 10.2856 122.522 7.82433V0.5L131.408 0.5Z" fill="#C3BAB0"/>
<path d="M126.955 10.762C128.555 10.762 129.852 9.45569 129.852 7.84422C129.852 6.23275 128.555 4.92639 126.955 4.92639C125.356 4.92639 124.059 6.23275 124.059 7.84422C124.059 9.45569 125.356 10.762 126.955 10.762Z" fill="white"/>
<path d="M129.852 0.5C129.852 2.10778 128.571 3.41782 126.955 3.41782C125.34 3.41782 124.059 2.10778 124.059 0.5L129.852 0.5Z" fill="white"/>
<path d="M145.417 0.5V7.82433C145.417 10.2856 143.427 12.2904 140.964 12.2904C138.502 12.2904 136.531 10.2856 136.531 7.82433V0.5L145.417 0.5Z" fill="#C3BAB0"/>
<path d="M140.964 10.762C142.564 10.762 143.861 9.45569 143.861 7.84422C143.861 6.23275 142.564 4.92639 140.964 4.92639C139.365 4.92639 138.068 6.23275 138.068 7.84422C138.068 9.45569 139.365 10.762 140.964 10.762Z" fill="white"/>
<path d="M143.861 0.5C143.861 2.10778 142.58 3.41782 140.964 3.41782C139.349 3.41782 138.068 2.10778 138.068 0.5L143.861 0.5Z" fill="white"/>
<path d="M159.446 0.5V7.82433C159.446 10.2856 157.456 12.2904 154.993 12.2904C152.53 12.2904 150.56 10.2856 150.56 7.82433V0.5L159.446 0.5Z" fill="#C3BAB0"/>
<path d="M154.993 10.762C156.593 10.762 157.89 9.45569 157.89 7.84422C157.89 6.23275 156.593 4.92639 154.993 4.92639C153.394 4.92639 152.097 6.23275 152.097 7.84422C152.097 9.45569 153.394 10.762 154.993 10.762Z" fill="white"/>
<path d="M157.89 0.5C157.89 2.10778 156.609 3.41782 154.993 3.41782C153.378 3.41782 152.097 2.10778 152.097 0.5L157.89 0.5Z" fill="white"/>
<path d="M173.455 0.5V7.82433C173.455 10.2856 171.465 12.2904 169.002 12.2904C166.539 12.2904 164.569 10.2856 164.569 7.82433V0.5L173.455 0.5Z" fill="#C3BAB0"/>
<path d="M169.022 10.762C170.622 10.762 171.918 9.45569 171.918 7.84422C171.918 6.23275 170.622 4.92639 169.022 4.92639C167.422 4.92639 166.126 6.23275 166.126 7.84422C166.126 9.45569 167.422 10.762 169.022 10.762Z" fill="white"/>
<path d="M171.899 0.5C171.899 2.10778 170.618 3.41782 169.002 3.41782C167.387 3.41782 166.106 2.10778 166.106 0.5L171.899 0.5Z" fill="white"/>
<path d="M187.484 0.5V7.82433C187.484 10.2856 185.494 12.2904 183.031 12.2904C180.568 12.2904 178.598 10.2856 178.598 7.82433V0.5L187.484 0.5Z" fill="#C3BAB0"/>
<path d="M183.031 10.762C184.631 10.762 185.927 9.45569 185.927 7.84422C185.927 6.23275 184.631 4.92639 183.031 4.92639C181.431 4.92639 180.135 6.23275 180.135 7.84422C180.135 9.45569 181.431 10.762 183.031 10.762Z" fill="white"/>
<path d="M185.927 0.5C185.927 2.10778 184.647 3.41782 183.031 3.41782C181.415 3.41782 180.135 2.10778 180.135 0.5L185.927 0.5Z" fill="white"/>
<path d="M201.493 0.5V7.82433C201.493 10.2856 199.503 12.2904 197.04 12.2904C194.577 12.2904 192.607 10.2856 192.607 7.82433V0.5L201.493 0.5Z" fill="#C3BAB0"/>
<path d="M197.06 10.762C198.659 10.762 199.956 9.45569 199.956 7.84422C199.956 6.23275 198.659 4.92639 197.06 4.92639C195.46 4.92639 194.163 6.23275 194.163 7.84422C194.163 9.45569 195.46 10.762 197.06 10.762Z" fill="white"/>
<path d="M199.936 0.5C199.936 2.10778 198.656 3.41782 197.04 3.41782C195.424 3.41782 194.144 2.10778 194.144 0.5L199.936 0.5Z" fill="white"/>
<path d="M215.522 0.5V7.82433C215.522 10.2856 213.532 12.2904 211.069 12.2904C208.606 12.2904 206.635 10.2856 206.635 7.82433V0.5L215.522 0.5Z" fill="#C3BAB0"/>
<path d="M211.069 10.762C212.668 10.762 213.965 9.45569 213.965 7.84422C213.965 6.23275 212.668 4.92639 211.069 4.92639C209.469 4.92639 208.172 6.23275 208.172 7.84422C208.172 9.45569 209.469 10.762 211.069 10.762Z" fill="white"/>
<path d="M213.965 0.5C213.965 2.10778 212.684 3.41782 211.069 3.41782C209.453 3.41782 208.172 2.10778 208.172 0.5L213.965 0.5Z" fill="white"/>
<path d="M229.55 0.5V7.82433C229.55 10.2856 227.56 12.2904 225.097 12.2904C222.634 12.2904 220.664 10.2856 220.664 7.82433V0.5L229.55 0.5Z" fill="#C3BAB0"/>
<path d="M225.097 10.762C226.697 10.762 227.994 9.45569 227.994 7.84422C227.994 6.23275 226.697 4.92639 225.097 4.92639C223.498 4.92639 222.201 6.23275 222.201 7.84422C222.201 9.45569 223.498 10.762 225.097 10.762Z" fill="white"/>
<path d="M227.994 0.5C227.994 2.10778 226.713 3.41782 225.097 3.41782C223.482 3.41782 222.201 2.10778 222.201 0.5L227.994 0.5Z" fill="white"/>
<path d="M220.664 100.5V93.1757C220.664 90.7144 222.654 88.7096 225.117 88.7096C227.58 88.7096 229.55 90.7144 229.55 93.1757V100.5H220.664Z" fill="#C3BAB0"/>
<path d="M225.097 96.0737C226.697 96.0737 227.994 94.7673 227.994 93.1559C227.994 91.5444 226.697 90.238 225.097 90.238C223.498 90.238 222.201 91.5444 222.201 93.1559C222.201 94.7673 223.498 96.0737 225.097 96.0737Z" fill="white"/>
<path d="M222.221 100.5C222.221 98.8922 223.501 97.5822 225.117 97.5822C226.733 97.5822 228.013 98.8922 228.013 100.5H222.221Z" fill="white"/>
<path d="M206.635 100.5V93.1757C206.635 90.7144 208.625 88.7096 211.088 88.7096C213.551 88.7096 215.522 90.7144 215.522 93.1757V100.5H206.635Z" fill="#C3BAB0"/>
<path d="M211.088 96.0737C212.688 96.0737 213.985 94.7673 213.985 93.1559C213.985 91.5444 212.688 90.238 211.088 90.238C209.489 90.238 208.192 91.5444 208.192 93.1559C208.192 94.7673 209.489 96.0737 211.088 96.0737Z" fill="white"/>
<path d="M208.192 100.5C208.192 98.8922 209.473 97.5822 211.088 97.5822C212.704 97.5822 213.985 98.8922 213.985 100.5H208.192Z" fill="white"/>
<path d="M192.607 100.5V93.1757C192.607 90.7144 194.597 88.7096 197.06 88.7096C199.523 88.7096 201.493 90.7144 201.493 93.1757V100.5H192.607Z" fill="#C3BAB0"/>
<path d="M197.06 96.0737C198.659 96.0737 199.956 94.7673 199.956 93.1559C199.956 91.5444 198.659 90.238 197.06 90.238C195.46 90.238 194.163 91.5444 194.163 93.1559C194.163 94.7673 195.46 96.0737 197.06 96.0737Z" fill="white"/>
<path d="M194.163 100.5C194.163 98.8922 195.444 97.5822 197.06 97.5822C198.675 97.5822 199.956 98.8922 199.956 100.5H194.163Z" fill="white"/>
<path d="M178.598 100.5V93.1757C178.598 90.7144 180.588 88.7096 183.051 88.7096C185.514 88.7096 187.484 90.7144 187.484 93.1757V100.5H178.598Z" fill="#C3BAB0"/>
<path d="M183.051 96.0737C184.65 96.0737 185.947 94.7673 185.947 93.1559C185.947 91.5444 184.65 90.238 183.051 90.238C181.451 90.238 180.154 91.5444 180.154 93.1559C180.154 94.7673 181.451 96.0737 183.051 96.0737Z" fill="white"/>
<path d="M180.154 100.5C180.154 98.8922 181.435 97.5822 183.051 97.5822C184.666 97.5822 185.947 98.8922 185.947 100.5H180.154Z" fill="white"/>
<path d="M164.569 100.5V93.1757C164.569 90.7144 166.559 88.7096 169.022 88.7096C171.485 88.7096 173.455 90.7144 173.455 93.1757V100.5H164.569Z" fill="#C3BAB0"/>
<path d="M169.022 96.0737C170.622 96.0737 171.918 94.7673 171.918 93.1559C171.918 91.5444 170.622 90.238 169.022 90.238C167.422 90.238 166.126 91.5444 166.126 93.1559C166.126 94.7673 167.422 96.0737 169.022 96.0737Z" fill="white"/>
<path d="M166.126 100.5C166.126 98.8922 167.406 97.5822 169.022 97.5822C170.638 97.5822 171.918 98.8922 171.918 100.5H166.126Z" fill="white"/>
<path d="M150.56 100.5V93.1757C150.56 90.7144 152.55 88.7096 155.013 88.7096C157.476 88.7096 159.446 90.7144 159.446 93.1757V100.5H150.56Z" fill="#C3BAB0"/>
<path d="M154.993 96.0737C156.593 96.0737 157.89 94.7673 157.89 93.1559C157.89 91.5444 156.593 90.238 154.993 90.238C153.394 90.238 152.097 91.5444 152.097 93.1559C152.097 94.7673 153.394 96.0737 154.993 96.0737Z" fill="white"/>
<path d="M152.116 100.5C152.116 98.8922 153.397 97.5822 155.013 97.5822C156.629 97.5822 157.909 98.8922 157.909 100.5H152.116Z" fill="white"/>
<path d="M136.531 100.5V93.1757C136.531 90.7144 138.521 88.7096 140.984 88.7096C143.447 88.7096 145.417 90.7144 145.417 93.1757V100.5H136.531Z" fill="#C3BAB0"/>
<path d="M140.984 96.0737C142.584 96.0737 143.881 94.7673 143.881 93.1559C143.881 91.5444 142.584 90.238 140.984 90.238C139.385 90.238 138.088 91.5444 138.088 93.1559C138.088 94.7673 139.385 96.0737 140.984 96.0737Z" fill="white"/>
<path d="M138.088 100.5C138.088 98.8922 139.369 97.5822 140.984 97.5822C142.6 97.5822 143.881 98.8922 143.881 100.5H138.088Z" fill="white"/>
<path d="M122.522 100.5V93.1757C122.522 90.7144 124.512 88.7096 126.975 88.7096C129.438 88.7096 131.408 90.7144 131.408 93.1757V100.5H122.522Z" fill="#C3BAB0"/>
<path d="M126.955 96.0737C128.555 96.0737 129.852 94.7673 129.852 93.1559C129.852 91.5444 128.555 90.238 126.955 90.238C125.356 90.238 124.059 91.5444 124.059 93.1559C124.059 94.7673 125.356 96.0737 126.955 96.0737Z" fill="white"/>
<path d="M124.079 100.5C124.079 98.8922 125.36 97.5822 126.975 97.5822C128.591 97.5822 129.872 98.8922 129.872 100.5H124.079Z" fill="white"/>
<path d="M108.494 100.5V93.1757C108.494 90.7144 110.484 88.7096 112.946 88.7096C115.409 88.7096 117.38 90.7144 117.38 93.1757V100.5H108.494Z" fill="#C3BAB0"/>
<path d="M112.946 96.0737C114.546 96.0737 115.843 94.7673 115.843 93.1559C115.843 91.5444 114.546 90.238 112.946 90.238C111.347 90.238 110.05 91.5444 110.05 93.1559C110.05 94.7673 111.347 96.0737 112.946 96.0737Z" fill="white"/>
<path d="M110.05 100.5C110.05 98.8922 111.331 97.5822 112.946 97.5822C114.562 97.5822 115.843 98.8922 115.843 100.5H110.05Z" fill="white"/>
<path d="M94.4648 100.5V93.1757C94.4648 90.7144 96.4548 88.7096 98.9177 88.7096C101.381 88.7096 103.351 90.7144 103.351 93.1757V100.5H94.4648Z" fill="#C3BAB0"/>
<path d="M98.9177 96.0737C100.517 96.0737 101.814 94.7673 101.814 93.1559C101.814 91.5444 100.517 90.238 98.9177 90.238C97.3181 90.238 96.0214 91.5444 96.0214 93.1559C96.0214 94.7673 97.3181 96.0737 98.9177 96.0737Z" fill="white"/>
<path d="M96.0214 100.5C96.0214 98.8922 97.3021 97.5822 98.9177 97.5822C100.533 97.5822 101.814 98.8922 101.814 100.5H96.0214Z" fill="white"/>
<path d="M80.4557 100.5V93.1757C80.4557 90.7144 82.4458 88.7096 84.9087 88.7096C87.3716 88.7096 89.3419 90.7144 89.3419 93.1757V100.5H80.4557Z" fill="#C3BAB0"/>
<path d="M84.9087 96.0737C86.5083 96.0737 87.8051 94.7673 87.8051 93.1559C87.8051 91.5444 86.5083 90.238 84.9087 90.238C83.3091 90.238 82.0123 91.5444 82.0123 93.1559C82.0123 94.7673 83.3091 96.0737 84.9087 96.0737Z" fill="white"/>
<path d="M82.0123 100.5C82.0123 98.8922 83.293 97.5822 84.9087 97.5822C86.5244 97.5822 87.8051 98.8922 87.8051 100.5H82.0123Z" fill="white"/>
<path d="M66.4271 100.5V93.1757C66.4271 90.7144 68.4171 88.7096 70.88 88.7096C73.3429 88.7096 75.3132 90.7144 75.3132 93.1757V100.5H66.4271Z" fill="#C3BAB0"/>
<path d="M70.88 96.0737C72.4796 96.0737 73.7764 94.7673 73.7764 93.1559C73.7764 91.5444 72.4796 90.238 70.88 90.238C69.2804 90.238 67.9836 91.5444 67.9836 93.1559C67.9836 94.7673 69.2804 96.0737 70.88 96.0737Z" fill="white"/>
<path d="M67.9836 100.5C67.9836 98.8922 69.2644 97.5822 70.88 97.5822C72.4957 97.5822 73.7764 98.8922 73.7764 100.5H67.9836Z" fill="white"/>
<path d="M52.418 100.5V93.1757C52.418 90.7144 54.4081 88.7096 56.871 88.7096C59.3339 88.7096 61.3042 90.7144 61.3042 93.1757V100.5H52.418Z" fill="#C3BAB0"/>
<path d="M56.8513 96.0737C58.4509 96.0737 59.7477 94.7673 59.7477 93.1559C59.7477 91.5444 58.4509 90.238 56.8513 90.238C55.2517 90.238 53.9549 91.5444 53.9549 93.1559C53.9549 94.7673 55.2517 96.0737 56.8513 96.0737Z" fill="white"/>
<path d="M53.9746 100.5C53.9746 98.8922 55.2553 97.5822 56.871 97.5822C58.4867 97.5822 59.7674 98.8922 59.7674 100.5H53.9746Z" fill="white"/>
<path d="M38.3893 100.5V93.1757C38.3893 90.7144 40.3794 88.7096 42.8423 88.7096C45.3052 88.7096 47.2755 90.7144 47.2755 93.1757V100.5H38.3893Z" fill="#C3BAB0"/>
<path d="M42.8423 96.0737C44.4419 96.0737 45.7387 94.7673 45.7387 93.1559C45.7387 91.5444 44.4419 90.238 42.8423 90.238C41.2427 90.238 39.9459 91.5444 39.9459 93.1559C39.9459 94.7673 41.2427 96.0737 42.8423 96.0737Z" fill="white"/>
<path d="M39.9459 100.5C39.9459 98.8922 41.2266 97.5822 42.8423 97.5822C44.458 97.5822 45.7387 98.8922 45.7387 100.5H39.9459Z" fill="white"/>
<path d="M24.3803 100.5L24.3803 93.1757C24.3803 90.7144 26.3703 88.7096 28.8332 88.7096C31.2962 88.7096 33.2665 90.7144 33.2665 93.1757V100.5H24.3803Z" fill="#C3BAB0"/>
<path d="M28.8136 96.0736C30.4132 96.0736 31.7099 94.7672 31.7099 93.1557C31.7099 91.5443 30.4132 90.2379 28.8136 90.2379C27.2139 90.2379 25.9172 91.5443 25.9172 93.1557C25.9172 94.7672 27.2139 96.0736 28.8136 96.0736Z" fill="white"/>
<path d="M25.9369 100.5C25.9369 98.8922 27.2176 97.5822 28.8333 97.5822C30.4489 97.5822 31.7296 98.8922 31.7296 100.5H25.9369Z" fill="white"/>
<path d="M53.817 35.6727H44.0639V42.4413H53.817V35.6727Z" fill="#057582"/>
<path d="M53.817 35.6727H44.0639V42.4413H53.817V35.6727Z" fill="#F47B20"/>
<path d="M53.817 35.6727H44.0639V42.4413H53.817V35.6727Z" fill="#010101"/>
<path d="M44.0639 38.1142V39.9999H42.2709C41.9951 39.9999 41.7783 39.7815 41.7783 39.5037V38.5906C41.7783 38.3127 41.9951 38.0944 42.2709 38.0944H44.0639V38.1142Z" fill="#8C9091"/>
<path d="M53.817 39.9998V38.1141H55.61C55.8859 38.1141 56.1026 38.3325 56.1026 38.6104V39.5234C56.1026 39.8013 55.8859 40.0197 55.61 40.0197H53.817V39.9998Z" fill="#8C9091"/>
<path d="M201.197 71.9569H185.454V82.8938H201.197V71.9569Z" fill="#057582"/>
<path d="M201.197 71.9569H185.454V82.8938H201.197V71.9569Z" fill="#F47B20"/>
<path d="M201.197 71.9569H185.454V82.8938H201.197V71.9569Z" fill="#010101"/>
<path d="M185.454 75.0336V79.8371H183.524C183.248 79.8371 183.031 79.6187 183.031 79.3408V75.5298C183.031 75.2519 183.248 75.0336 183.524 75.0336H185.454Z" fill="#8C9091"/>
<path d="M201.197 79.8171V75.0136H203.128C203.404 75.0136 203.621 75.232 203.621 75.5099V79.3209C203.621 79.5988 203.404 79.8171 203.128 79.8171H201.197Z" fill="#8C9091"/>
<path d="M52.5954 44.7239H45.5219V49.5274H52.5954V44.7239Z" fill="#057582"/>
<path d="M52.5954 44.7239H45.5219V49.5274H52.5954V44.7239Z" fill="#F47B20"/>
<path d="M52.5954 44.7239H45.5219V49.5274H52.5954V44.7239Z" fill="#010101"/>
<path d="M45.5022 46.1728V48.0585H44.7929C44.517 48.0585 44.3003 47.8401 44.3003 47.5622V46.6492C44.3003 46.3713 44.517 46.153 44.7929 46.153H45.5022V46.1728Z" fill="#8C9091"/>
<path d="M52.5953 48.0585V46.1729H53.3047C53.5805 46.1729 53.7972 46.3912 53.7972 46.6691V47.5821C53.7972 47.86 53.5805 48.0784 53.3047 48.0784H52.5953V48.0585Z" fill="#8C9091"/>
<path d="M52.5954 51.5321H45.5219V56.3356H52.5954V51.5321Z" fill="#057582"/>
<path d="M52.5954 51.5321H45.5219V56.3356H52.5954V51.5321Z" fill="#F47B20"/>
<path d="M52.5954 51.5321H45.5219V56.3356H52.5954V51.5321Z" fill="#010101"/>
<path d="M45.5219 52.9812V54.8668H44.8126C44.5368 54.8668 44.32 54.6485 44.32 54.3706V53.4575C44.32 53.1796 44.5368 52.9613 44.8126 52.9613H45.5219V52.9812Z" fill="#8C9091"/>
<path d="M52.5757 54.8667V52.9811H53.285C53.5608 52.9811 53.7776 53.1994 53.7776 53.4773V54.3904C53.7776 54.6683 53.5608 54.8866 53.285 54.8866H52.5757V54.8667Z" fill="#8C9091"/>
<path d="M139.979 51.8298H135.743V61.0001H139.979V51.8298Z" fill="#057582"/>
<path d="M139.979 51.8298H135.743V61.0001H139.979V51.8298Z" fill="#F47B20"/>
<path d="M139.979 51.8298H135.743V61.0001H139.979V51.8298Z" fill="#010101"/>
<path d="M135.743 55.0851V57.6853H133.95C133.674 57.6853 133.458 57.467 133.458 57.1891V55.5813C133.458 55.3034 133.674 55.0851 133.95 55.0851H135.743Z" fill="#8C9091"/>
<path d="M139.979 60.5635V57.9632H141.772C142.048 57.9632 142.265 58.1816 142.265 58.4595V60.0672C142.265 60.3451 142.048 60.5635 141.772 60.5635H139.979Z" fill="#8C9091"/>
<path d="M139.979 54.8866V52.2864H141.772C142.048 52.2864 142.265 52.5047 142.265 52.7826V54.3904C142.265 54.6683 142.048 54.8866 141.772 54.8866H139.979Z" fill="#8C9091"/>
<path d="M139.979 68.2054H135.743V77.3757H139.979V68.2054Z" fill="#057582"/>
<path d="M139.979 68.2054H135.743V77.3757H139.979V68.2054Z" fill="#F47B20"/>
<path d="M139.979 68.2054H135.743V77.3757H139.979V68.2054Z" fill="#010101"/>
<path d="M135.743 71.4806V74.0808H133.95C133.674 74.0808 133.458 73.8625 133.458 73.5846V71.9768C133.458 71.6989 133.674 71.4806 133.95 71.4806H135.743Z" fill="#8C9091"/>
<path d="M139.96 76.9589V74.3586H141.753C142.028 74.3586 142.245 74.577 142.245 74.8549V76.4626C142.245 76.7405 142.028 76.9589 141.753 76.9589H139.96Z" fill="#8C9091"/>
<path d="M139.979 71.2622V68.662H141.772C142.048 68.662 142.265 68.8803 142.265 69.1582V70.766C142.265 71.0439 142.048 71.2622 141.772 71.2622H139.979Z" fill="#8C9091"/>
<path d="M154.244 75.8076H145.142V80.0752H154.244V75.8076Z" fill="#057582"/>
<path d="M154.244 75.8076H145.142V80.0752H154.244V75.8076Z" fill="#F47B20"/>
<path d="M154.244 75.8076H145.142V80.0752H154.244V75.8076Z" fill="#010101"/>
<path d="M148.373 80.0752H150.954V81.8815C150.954 82.1594 150.737 82.3777 150.461 82.3777H148.866C148.59 82.3777 148.373 82.1594 148.373 81.8815V80.0752Z" fill="#8C9091"/>
<path d="M153.811 75.8076H151.23V74.0013C151.23 73.7235 151.447 73.5051 151.722 73.5051H153.318C153.594 73.5051 153.811 73.7235 153.811 74.0013V75.8076Z" fill="#8C9091"/>
<path d="M148.176 75.8076H145.595V74.0013C145.595 73.7235 145.812 73.5051 146.087 73.5051H147.683C147.959 73.5051 148.176 73.7235 148.176 74.0013V75.8076Z" fill="#8C9091"/>
<path d="M167.012 75.8076H157.909V80.0752H167.012V75.8076Z" fill="#057582"/>
<path d="M167.012 75.8076H157.909V80.0752H167.012V75.8076Z" fill="#F47B20"/>
<path d="M167.012 75.8076H157.909V80.0752H167.012V75.8076Z" fill="#010101"/>
<path d="M161.141 80.0752H163.722V81.8815C163.722 82.1594 163.505 82.3777 163.229 82.3777H161.633C161.357 82.3777 161.141 82.1594 161.141 81.8815V80.0752Z" fill="#8C9091"/>
<path d="M166.579 75.8076H163.998V74.0013C163.998 73.7235 164.214 73.5051 164.49 73.5051H166.086C166.362 73.5051 166.579 73.7235 166.579 74.0013V75.8076Z" fill="#8C9091"/>
<path d="M160.924 75.8076H158.343V74.0013C158.343 73.7235 158.56 73.5051 158.835 73.5051H160.431C160.707 73.5051 160.924 73.7235 160.924 74.0013V75.8076Z" fill="#8C9091"/>
<path d="M247.5 35.5933H230.89V65.4067H247.5V35.5933Z" fill="#B9BBBB"/>
<path d="M10.6472 17.471C10.6472 16.5182 10.4699 15.5853 10.1349 14.7318L18.5285 14.7318C18.1936 15.5853 18.0162 16.5182 18.0162 17.471C18.0162 18.4238 18.1936 19.3765 18.5482 20.23H10.1152C10.4699 19.3765 10.6472 18.4436 10.6472 17.471Z" fill="#4DBC9D"/>
<path d="M17.9965 17.471C17.9965 16.5182 18.1739 15.5853 18.5088 14.7318H19.888V20.23H18.5285C18.1738 19.3765 17.9965 18.4436 17.9965 17.471Z" fill="#CFD1D3"/>
<path d="M8.77539 20.25V14.7518H10.1349C10.4699 15.6053 10.6472 16.5383 10.6472 17.491C10.6472 18.4438 10.4699 19.3965 10.1152 20.25H8.77539Z" fill="#CFD1D3"/>
<path d="M52.6348 62.8263C52.6348 64.1165 52.8121 65.3471 53.1471 66.4984H44.7535C45.0884 65.3471 45.2657 64.1165 45.2657 62.8263C45.2657 61.5361 45.0884 60.2658 44.7338 59.1145H53.1668C52.8121 60.2658 52.6348 61.4964 52.6348 62.8263Z" fill="#8B7866"/>
<path d="M45.2658 62.8265C45.2658 64.1167 45.0884 65.3473 44.7535 66.4986H43.3743V59.1345H44.7338C45.0885 60.2858 45.2658 61.5164 45.2658 62.8463V62.8265Z" fill="#CFD1D3"/>
<path d="M54.5066 59.1344V66.4984H53.1471C52.8121 65.3471 52.6348 64.1165 52.6348 62.8263C52.6348 61.5361 52.8121 60.2658 53.1668 59.1145H54.5066V59.1344Z" fill="#CFD1D3"/>
<path d="M12.5584 82.1792C12.5584 81.7227 12.4796 81.286 12.322 80.8691H16.3217C16.1641 81.286 16.0853 81.7227 16.0853 82.1792C16.0853 82.6357 16.1641 83.0922 16.3414 83.4892H12.322C12.4993 83.0724 12.5781 82.6357 12.5781 82.1792H12.5584Z" fill="#057582"/>
<path d="M12.5584 82.1792C12.5584 81.7227 12.4796 81.286 12.322 80.8691H16.3217C16.1641 81.286 16.0853 81.7227 16.0853 82.1792C16.0853 82.6357 16.1641 83.0922 16.3414 83.4892H12.322C12.4993 83.0724 12.5781 82.6357 12.5781 82.1792H12.5584Z" fill="#F47B20"/>
<path d="M12.5584 82.1792C12.5584 81.7227 12.4796 81.286 12.322 80.8691H16.3217C16.1641 81.286 16.0853 81.7227 16.0853 82.1792C16.0853 82.6357 16.1641 83.0922 16.3414 83.4892H12.322C12.4993 83.0724 12.5781 82.6357 12.5781 82.1792H12.5584Z" fill="#010101"/>
<path d="M16.0656 82.1792C16.0656 81.7227 16.1444 81.286 16.302 80.8691H16.9719V83.4892H16.3217C16.1444 83.0724 16.0656 82.6357 16.0656 82.1792Z" fill="#CFD1D3"/>
<path d="M11.6718 83.5092V80.8892H12.322C12.4796 81.306 12.5584 81.7427 12.5584 82.1992C12.5584 82.6557 12.4796 83.1123 12.3023 83.5092H11.6718Z" fill="#CFD1D3"/>
<path d="M33.2468 82.1793C33.2468 81.8815 33.1877 81.5838 33.0892 81.3059H35.7294C35.6309 81.5838 35.5718 81.8617 35.5718 82.1793C35.5718 82.4969 35.6309 82.7747 35.7491 83.0526H33.0892C33.2074 82.7747 33.2665 82.4969 33.2665 82.1793H33.2468Z" fill="#057582"/>
<path d="M33.2468 82.1793C33.2468 81.8815 33.1877 81.5838 33.0892 81.3059H35.7294C35.6309 81.5838 35.5718 81.8617 35.5718 82.1793C35.5718 82.4969 35.6309 82.7747 35.7491 83.0526H33.0892C33.2074 82.7747 33.2665 82.4969 33.2665 82.1793H33.2468Z" fill="#F47B20"/>
<path d="M33.2468 82.1793C33.2468 81.8815 33.1877 81.5838 33.0892 81.3059H35.7294C35.6309 81.5838 35.5718 81.8617 35.5718 82.1793C35.5718 82.4969 35.6309 82.7747 35.7491 83.0526H33.0892C33.2074 82.7747 33.2665 82.4969 33.2665 82.1793H33.2468Z" fill="#010101"/>
<path d="M35.5521 82.1793C35.5521 81.8815 35.6112 81.5838 35.7097 81.3059H36.1431V83.0328H35.7097C35.5915 82.7549 35.5323 82.477 35.5323 82.1594L35.5521 82.1793Z" fill="#CFD1D3"/>
<path d="M32.6557 83.0528V81.3259H33.0892C33.1877 81.6038 33.2468 81.8817 33.2468 82.1993C33.2468 82.5169 33.1877 82.7948 33.0695 83.0726H32.6557V83.0528Z" fill="#CFD1D3"/>
<path d="M32.636 18.5826C32.636 18.2849 32.5769 17.9871 32.4784 17.7092H35.1186C35.0201 17.9871 34.961 18.265 34.961 18.5826C34.961 18.9002 35.0201 19.1781 35.1383 19.456H32.4784C32.5966 19.1781 32.6557 18.9002 32.6557 18.5826H32.636Z" fill="#057582"/>
<path d="M32.636 18.5826C32.636 18.2849 32.5769 17.9871 32.4784 17.7092H35.1186C35.0201 17.9871 34.961 18.265 34.961 18.5826C34.961 18.9002 35.0201 19.1781 35.1383 19.456H32.4784C32.5966 19.1781 32.6557 18.9002 32.6557 18.5826H32.636Z" fill="#F47B20"/>
<path d="M32.636 18.5826C32.636 18.2849 32.5769 17.9871 32.4784 17.7092H35.1186C35.0201 17.9871 34.961 18.265 34.961 18.5826C34.961 18.9002 35.0201 19.1781 35.1383 19.456H32.4784C32.5966 19.1781 32.6557 18.9002 32.6557 18.5826H32.636Z" fill="#010101"/>
<path d="M34.961 18.5826C34.961 18.2849 35.0201 17.9871 35.1186 17.7092H35.5521V19.4361H35.1186C35.0004 19.1582 34.9413 18.8803 34.9413 18.5627L34.961 18.5826Z" fill="#CFD1D3"/>
<path d="M32.0449 19.4561V17.7292H32.4784C32.5769 18.0071 32.636 18.285 32.636 18.6026C32.636 18.9202 32.5769 19.1981 32.4587 19.476H32.0449V19.4561Z" fill="#CFD1D3"/>
<path d="M47.6302 32.2983C47.6302 32.0006 47.5711 31.7028 47.4725 31.4249H50.1128C50.0143 31.7028 49.9551 31.9807 49.9551 32.2983C49.9551 32.6159 50.0143 32.8938 50.1325 33.1716H47.4725C47.5908 32.8938 47.6499 32.6159 47.6499 32.2983H47.6302Z" fill="#057582"/>
<path d="M47.6302 32.2983C47.6302 32.0006 47.5711 31.7028 47.4725 31.4249H50.1128C50.0143 31.7028 49.9551 31.9807 49.9551 32.2983C49.9551 32.6159 50.0143 32.8938 50.1325 33.1716H47.4725C47.5908 32.8938 47.6499 32.6159 47.6499 32.2983H47.6302Z" fill="#F47B20"/>
<path d="M47.6302 32.2983C47.6302 32.0006 47.5711 31.7028 47.4725 31.4249H50.1128C50.0143 31.7028 49.9551 31.9807 49.9551 32.2983C49.9551 32.6159 50.0143 32.8938 50.1325 33.1716H47.4725C47.5908 32.8938 47.6499 32.6159 47.6499 32.2983H47.6302Z" fill="#010101"/>
<path d="M49.9551 32.2983C49.9551 32.0006 50.0142 31.7028 50.1128 31.4249H50.5462V33.1518H50.1128C49.9945 32.8739 49.9354 32.596 49.9354 32.2784L49.9551 32.2983Z" fill="#CFD1D3"/>
<path d="M47.0391 33.1718V31.4449H47.4725C47.571 31.7228 47.6302 32.0007 47.6302 32.3183C47.6302 32.6359 47.571 32.9138 47.4528 33.1917H47.0391V33.1718Z" fill="#CFD1D3"/>
<path d="M124.158 22.2744C124.453 22.2744 124.749 22.2148 125.025 22.1156V24.7754C124.749 24.6761 124.473 24.6166 124.158 24.6166C123.842 24.6166 123.567 24.6761 123.291 24.7952V22.1156C123.567 22.2347 123.842 22.2942 124.158 22.2942V22.2744Z" fill="#057582"/>
<path d="M124.158 22.2744C124.453 22.2744 124.749 22.2148 125.025 22.1156V24.7754C124.749 24.6761 124.473 24.6166 124.158 24.6166C123.842 24.6166 123.567 24.6761 123.291 24.7952V22.1156C123.567 22.2347 123.842 22.2942 124.158 22.2942V22.2744Z" fill="#F47B20"/>
<path d="M124.158 22.2744C124.453 22.2744 124.749 22.2148 125.025 22.1156V24.7754C124.749 24.6761 124.473 24.6166 124.158 24.6166C123.842 24.6166 123.567 24.6761 123.291 24.7952V22.1156C123.567 22.2347 123.842 22.2942 124.158 22.2942V22.2744Z" fill="#010101"/>
<path d="M124.158 24.5968C124.453 24.5968 124.749 24.6563 125.025 24.7555V25.1922H123.311V24.7555C123.586 24.6365 123.862 24.5769 124.177 24.5769L124.158 24.5968Z" fill="#CFD1D3"/>
<path d="M123.291 21.679H125.005V22.1156C124.729 22.2149 124.453 22.2744 124.138 22.2744C123.823 22.2744 123.547 22.2149 123.271 22.0958V21.679H123.291Z" fill="#CFD1D3"/>
<path d="M128.768 22.2744C129.064 22.2744 129.359 22.2148 129.635 22.1156V24.7754C129.359 24.6761 129.083 24.6166 128.768 24.6166C128.453 24.6166 128.177 24.6761 127.901 24.7952V22.1156C128.177 22.2347 128.453 22.2942 128.768 22.2942V22.2744Z" fill="#057582"/>
<path d="M128.768 22.2744C129.064 22.2744 129.359 22.2148 129.635 22.1156V24.7754C129.359 24.6761 129.083 24.6166 128.768 24.6166C128.453 24.6166 128.177 24.6761 127.901 24.7952V22.1156C128.177 22.2347 128.453 22.2942 128.768 22.2942V22.2744Z" fill="#F47B20"/>
<path d="M128.768 22.2744C129.064 22.2744 129.359 22.2148 129.635 22.1156V24.7754C129.359 24.6761 129.083 24.6166 128.768 24.6166C128.453 24.6166 128.177 24.6761 127.901 24.7952V22.1156C128.177 22.2347 128.453 22.2942 128.768 22.2942V22.2744Z" fill="#010101"/>
<path d="M128.768 24.5968C129.064 24.5968 129.359 24.6563 129.635 24.7555V25.1922H127.921V24.7555C128.197 24.6365 128.473 24.5769 128.788 24.5769L128.768 24.5968Z" fill="#CFD1D3"/>
<path d="M127.901 21.679H129.615V22.1156C129.34 22.2149 129.064 22.2744 128.748 22.2744C128.433 22.2744 128.157 22.2149 127.882 22.0958V21.679H127.901Z" fill="#CFD1D3"/>
<path d="M79.7465 82.1793C79.7465 81.8815 79.6874 81.5838 79.5889 81.3059H82.2291C82.1306 81.5838 82.0715 81.8617 82.0715 82.1793C82.0715 82.4969 82.1306 82.7747 82.2488 83.0526H79.5889C79.7071 82.7747 79.7662 82.4969 79.7662 82.1793H79.7465Z" fill="#057582"/>
<path d="M79.7465 82.1793C79.7465 81.8815 79.6874 81.5838 79.5889 81.3059H82.2291C82.1306 81.5838 82.0715 81.8617 82.0715 82.1793C82.0715 82.4969 82.1306 82.7747 82.2488 83.0526H79.5889C79.7071 82.7747 79.7662 82.4969 79.7662 82.1793H79.7465Z" fill="#F47B20"/>
<path d="M79.7465 82.1793C79.7465 81.8815 79.6874 81.5838 79.5889 81.3059H82.2291C82.1306 81.5838 82.0715 81.8617 82.0715 82.1793C82.0715 82.4969 82.1306 82.7747 82.2488 83.0526H79.5889C79.7071 82.7747 79.7662 82.4969 79.7662 82.1793H79.7465Z" fill="#010101"/>
<path d="M82.0715 82.1793C82.0715 81.8815 82.1306 81.5838 82.2291 81.3059H82.6626V83.0328H82.2291C82.1109 82.7549 82.0518 82.477 82.0518 82.1594L82.0715 82.1793Z" fill="#CFD1D3"/>
<path d="M79.1751 83.0528V81.3259H79.6086C79.7071 81.6038 79.7662 81.8817 79.7662 82.1993C79.7662 82.5169 79.7071 82.7948 79.5889 83.0726H79.1751V83.0528Z" fill="#CFD1D3"/>
<path d="M127.704 77.9315C127.704 77.6337 127.645 77.336 127.547 77.0581H130.187C130.088 77.336 130.029 77.6139 130.029 77.9315C130.029 78.2491 130.088 78.5269 130.207 78.8048H127.547C127.665 78.5269 127.724 78.2491 127.724 77.9315H127.704Z" fill="#057582"/>
<path d="M127.704 77.9315C127.704 77.6337 127.645 77.336 127.547 77.0581H130.187C130.088 77.336 130.029 77.6139 130.029 77.9315C130.029 78.2491 130.088 78.5269 130.207 78.8048H127.547C127.665 78.5269 127.724 78.2491 127.724 77.9315H127.704Z" fill="#F47B20"/>
<path d="M127.704 77.9315C127.704 77.6337 127.645 77.336 127.547 77.0581H130.187C130.088 77.336 130.029 77.6139 130.029 77.9315C130.029 78.2491 130.088 78.5269 130.207 78.8048H127.547C127.665 78.5269 127.724 78.2491 127.724 77.9315H127.704Z" fill="#010101"/>
<path d="M130.009 77.9315C130.009 77.6337 130.069 77.336 130.167 77.0581H130.601V78.785H130.167C130.049 78.5071 129.99 78.2292 129.99 77.9116L130.009 77.9315Z" fill="#CFD1D3"/>
<path d="M127.113 78.805V77.0781H127.547C127.645 77.356 127.704 77.6339 127.704 77.9515C127.704 78.2691 127.645 78.547 127.527 78.8248H127.113V78.805Z" fill="#CFD1D3"/>
<path d="M138.482 79.8172C138.482 79.5195 138.423 79.2217 138.324 78.9438H140.965C140.866 79.2217 140.807 79.4996 140.807 79.8172C140.807 80.1348 140.866 80.4127 140.984 80.6906H138.324C138.442 80.4127 138.502 80.1348 138.502 79.8172H138.482Z" fill="#057582"/>
<path d="M138.482 79.8172C138.482 79.5195 138.423 79.2217 138.324 78.9438H140.965C140.866 79.2217 140.807 79.4996 140.807 79.8172C140.807 80.1348 140.866 80.4127 140.984 80.6906H138.324C138.442 80.4127 138.502 80.1348 138.502 79.8172H138.482Z" fill="#F47B20"/>
<path d="M138.482 79.8172C138.482 79.5195 138.423 79.2217 138.324 78.9438H140.965C140.866 79.2217 140.807 79.4996 140.807 79.8172C140.807 80.1348 140.866 80.4127 140.984 80.6906H138.324C138.442 80.4127 138.502 80.1348 138.502 79.8172H138.482Z" fill="#010101"/>
<path d="M140.807 79.8172C140.807 79.5195 140.866 79.2217 140.965 78.9438H141.398V80.6707H140.965C140.846 80.3928 140.787 80.1149 140.787 79.7974L140.807 79.8172Z" fill="#CFD1D3"/>
<path d="M137.891 80.6907V78.9639H138.324C138.423 79.2418 138.482 79.5196 138.482 79.8372C138.482 80.1548 138.423 80.4327 138.305 80.7106H137.891V80.6907Z" fill="#CFD1D3"/>
<path d="M138.482 63.4615C138.482 63.1638 138.423 62.866 138.324 62.5881H140.965C140.866 62.866 140.807 63.1439 140.807 63.4615C140.807 63.7791 140.866 64.057 140.984 64.3349H138.324C138.442 64.057 138.502 63.7791 138.502 63.4615H138.482Z" fill="#057582"/>
<path d="M138.482 63.4615C138.482 63.1638 138.423 62.866 138.324 62.5881H140.965C140.866 62.866 140.807 63.1439 140.807 63.4615C140.807 63.7791 140.866 64.057 140.984 64.3349H138.324C138.442 64.057 138.502 63.7791 138.502 63.4615H138.482Z" fill="#F47B20"/>
<path d="M138.482 63.4615C138.482 63.1638 138.423 62.866 138.324 62.5881H140.965C140.866 62.866 140.807 63.1439 140.807 63.4615C140.807 63.7791 140.866 64.057 140.984 64.3349H138.324C138.442 64.057 138.502 63.7791 138.502 63.4615H138.482Z" fill="#010101"/>
<path d="M140.807 63.4615C140.807 63.1638 140.866 62.866 140.965 62.5881H141.398V64.315H140.965C140.846 64.0371 140.787 63.7592 140.787 63.4416L140.807 63.4615Z" fill="#CFD1D3"/>
<path d="M137.891 64.335V62.6082H138.324C138.423 62.886 138.482 63.1639 138.482 63.4815C138.482 63.7991 138.423 64.077 138.305 64.3549H137.891V64.335Z" fill="#CFD1D3"/>
<path d="M127.704 81.7425C127.704 81.4448 127.645 81.147 127.547 80.8691H130.187C130.088 81.147 130.029 81.4249 130.029 81.7425C130.029 82.0601 130.088 82.338 130.207 82.6159H127.547C127.665 82.338 127.724 82.0601 127.724 81.7425H127.704Z" fill="#057582"/>
<path d="M127.704 81.7425C127.704 81.4448 127.645 81.147 127.547 80.8691H130.187C130.088 81.147 130.029 81.4249 130.029 81.7425C130.029 82.0601 130.088 82.338 130.207 82.6159H127.547C127.665 82.338 127.724 82.0601 127.724 81.7425H127.704Z" fill="#F47B20"/>
<path d="M127.704 81.7425C127.704 81.4448 127.645 81.147 127.547 80.8691H130.187C130.088 81.147 130.029 81.4249 130.029 81.7425C130.029 82.0601 130.088 82.338 130.207 82.6159H127.547C127.665 82.338 127.724 82.0601 127.724 81.7425H127.704Z" fill="#010101"/>
<path d="M130.009 81.7425C130.009 81.4448 130.069 81.147 130.167 80.8691H130.601V82.596H130.167C130.049 82.3181 129.99 82.0402 129.99 81.7226L130.009 81.7425Z" fill="#CFD1D3"/>
<path d="M127.113 82.616V80.8892H127.547C127.645 81.167 127.704 81.4449 127.704 81.7625C127.704 82.0801 127.645 82.358 127.527 82.6359H127.113V82.616Z" fill="#CFD1D3"/>
<path d="M110.838 38.7096C111.134 38.7096 111.429 38.65 111.705 38.5508V41.2106C111.429 41.1113 111.154 41.0518 110.838 41.0518C110.523 41.0518 110.247 41.1113 109.971 41.2304V38.5508C110.247 38.6699 110.523 38.7294 110.838 38.7294V38.7096Z" fill="#057582"/>
<path d="M110.838 38.7096C111.134 38.7096 111.429 38.65 111.705 38.5508V41.2106C111.429 41.1113 111.154 41.0518 110.838 41.0518C110.523 41.0518 110.247 41.1113 109.971 41.2304V38.5508C110.247 38.6699 110.523 38.7294 110.838 38.7294V38.7096Z" fill="#F47B20"/>
<path d="M110.838 38.7096C111.134 38.7096 111.429 38.65 111.705 38.5508V41.2106C111.429 41.1113 111.154 41.0518 110.838 41.0518C110.523 41.0518 110.247 41.1113 109.971 41.2304V38.5508C110.247 38.6699 110.523 38.7294 110.838 38.7294V38.7096Z" fill="#010101"/>
<path d="M110.838 41.0518C111.134 41.0518 111.429 41.1114 111.705 41.2106V41.6473H109.991V41.2106C110.267 41.0915 110.543 41.032 110.858 41.032L110.838 41.0518Z" fill="#CFD1D3"/>
<path d="M109.971 38.1141H111.685V38.5508C111.41 38.6501 111.134 38.7096 110.819 38.7096C110.503 38.7096 110.227 38.6501 109.952 38.531V38.1141H109.971Z" fill="#CFD1D3"/>
<path d="M86.2092 79.5393C86.5048 79.5393 86.8003 79.4797 87.0762 79.3805V82.0403C86.8003 81.941 86.5245 81.8815 86.2092 81.8815C85.894 81.8815 85.6181 81.941 85.3423 82.0601V79.3805C85.6181 79.4996 85.894 79.5591 86.2092 79.5591V79.5393Z" fill="#057582"/>
<path d="M86.2092 79.5393C86.5048 79.5393 86.8003 79.4797 87.0762 79.3805V82.0403C86.8003 81.941 86.5245 81.8815 86.2092 81.8815C85.894 81.8815 85.6181 81.941 85.3423 82.0601V79.3805C85.6181 79.4996 85.894 79.5591 86.2092 79.5591V79.5393Z" fill="#F47B20"/>
<path d="M86.2092 79.5393C86.5048 79.5393 86.8003 79.4797 87.0762 79.3805V82.0403C86.8003 81.941 86.5245 81.8815 86.2092 81.8815C85.894 81.8815 85.6181 81.941 85.3423 82.0601V79.3805C85.6181 79.4996 85.894 79.5591 86.2092 79.5591V79.5393Z" fill="#010101"/>
<path d="M86.2093 81.8815C86.5048 81.8815 86.8004 81.9411 87.0762 82.0403V82.477H85.3621V82.0403C85.6379 81.9212 85.9137 81.8617 86.229 81.8617L86.2093 81.8815Z" fill="#CFD1D3"/>
<path d="M85.3422 78.9438H87.0564V79.3805C86.7806 79.4798 86.5047 79.5393 86.1895 79.5393C85.8742 79.5393 85.5984 79.4798 85.3225 79.3607V78.9438H85.3422Z" fill="#CFD1D3"/>
<path d="M121.005 78.3681C121.301 78.3681 121.596 78.3086 121.872 78.2094V80.8691C121.596 80.7699 121.32 80.7103 121.005 80.7103C120.69 80.7103 120.414 80.7699 120.138 80.889V78.2094C120.414 78.3284 120.69 78.388 121.005 78.388V78.3681Z" fill="#057582"/>
<path d="M121.005 78.3681C121.301 78.3681 121.596 78.3086 121.872 78.2094V80.8691C121.596 80.7699 121.32 80.7103 121.005 80.7103C120.69 80.7103 120.414 80.7699 120.138 80.889V78.2094C120.414 78.3284 120.69 78.388 121.005 78.388V78.3681Z" fill="#F47B20"/>
<path d="M121.005 78.3681C121.301 78.3681 121.596 78.3086 121.872 78.2094V80.8691C121.596 80.7699 121.32 80.7103 121.005 80.7103C120.69 80.7103 120.414 80.7699 120.138 80.889V78.2094C120.414 78.3284 120.69 78.388 121.005 78.388V78.3681Z" fill="#010101"/>
<path d="M121.005 80.7104C121.301 80.7104 121.596 80.7699 121.872 80.8692V81.3059H120.158V80.8692C120.434 80.7501 120.71 80.6906 121.025 80.6906L121.005 80.7104Z" fill="#CFD1D3"/>
<path d="M120.138 77.7727H121.852V78.2094C121.577 78.3086 121.301 78.3682 120.985 78.3682C120.67 78.3682 120.394 78.3086 120.118 78.1895V77.7727H120.138Z" fill="#CFD1D3"/>
<path d="M208.645 66.0022C208.941 66.0022 209.236 65.9426 209.512 65.8434V68.5032C209.236 68.4039 208.961 68.3444 208.645 68.3444C208.33 68.3444 208.054 68.4039 207.778 68.523V65.8434C208.054 65.9625 208.33 66.022 208.645 66.022V66.0022Z" fill="#057582"/>
<path d="M208.645 66.0022C208.941 66.0022 209.236 65.9426 209.512 65.8434V68.5032C209.236 68.4039 208.961 68.3444 208.645 68.3444C208.33 68.3444 208.054 68.4039 207.778 68.523V65.8434C208.054 65.9625 208.33 66.022 208.645 66.022V66.0022Z" fill="#F47B20"/>
<path d="M208.645 66.0022C208.941 66.0022 209.236 65.9426 209.512 65.8434V68.5032C209.236 68.4039 208.961 68.3444 208.645 68.3444C208.33 68.3444 208.054 68.4039 207.778 68.523V65.8434C208.054 65.9625 208.33 66.022 208.645 66.022V66.0022Z" fill="#010101"/>
<path d="M208.645 68.3444C208.941 68.3444 209.236 68.404 209.512 68.5032V68.9399H207.798V68.5032C208.074 68.3841 208.35 68.3246 208.665 68.3246L208.645 68.3444Z" fill="#CFD1D3"/>
<path d="M207.778 65.4067H209.492V65.8434C209.217 65.9427 208.941 66.0022 208.625 66.0022C208.31 66.0022 208.034 65.9427 207.759 65.8236V65.4067H207.778Z" fill="#CFD1D3"/>
<path d="M234.161 23.7433C234.456 23.7433 234.752 23.6837 235.028 23.5845V26.2443C234.752 26.145 234.476 26.0855 234.161 26.0855C233.846 26.0855 233.57 26.145 233.294 26.2641V23.5845C233.57 23.7036 233.846 23.7631 234.161 23.7631V23.7433Z" fill="#057582"/>
<path d="M234.161 23.7433C234.456 23.7433 234.752 23.6837 235.028 23.5845V26.2443C234.752 26.145 234.476 26.0855 234.161 26.0855C233.846 26.0855 233.57 26.145 233.294 26.2641V23.5845C233.57 23.7036 233.846 23.7631 234.161 23.7631V23.7433Z" fill="#F47B20"/>
<path d="M234.161 23.7433C234.456 23.7433 234.752 23.6837 235.028 23.5845V26.2443C234.752 26.145 234.476 26.0855 234.161 26.0855C233.846 26.0855 233.57 26.145 233.294 26.2641V23.5845C233.57 23.7036 233.846 23.7631 234.161 23.7631V23.7433Z" fill="#010101"/>
<path d="M234.161 26.0656C234.457 26.0656 234.752 26.1252 235.028 26.2244V26.6611H233.314V26.2244C233.59 26.1053 233.866 26.0458 234.181 26.0458L234.161 26.0656Z" fill="#CFD1D3"/>
<path d="M233.294 23.1478H235.008V23.5845C234.732 23.6838 234.456 23.7433 234.141 23.7433C233.826 23.7433 233.55 23.6838 233.274 23.5647V23.1478H233.294Z" fill="#CFD1D3"/>
<path d="M55.019 78.5666C54.2899 78.5666 53.5806 78.7056 52.9304 78.9636V72.4531C53.5806 72.7111 54.2899 72.8501 55.019 72.8501C55.748 72.8501 56.477 72.7111 57.1272 72.4332V78.9834C56.477 78.7056 55.7677 78.5666 55.019 78.5666Z" fill="#8B7866"/>
<path d="M55.0191 72.8501C54.2901 72.8501 53.5808 72.7111 52.9306 72.4531V71.3812H57.1471V72.4332C56.4969 72.7111 55.7876 72.8501 55.0389 72.8501H55.0191Z" fill="#CFD1D3"/>
<path d="M57.1271 80.0156H52.9106V78.9636C53.5609 78.7056 54.2702 78.5667 54.9992 78.5667C55.7282 78.5667 56.4572 78.7056 57.1074 78.9835V80.0156H57.1271Z" fill="#CFD1D3"/>
<path d="M63.2746 78.5666C62.5456 78.5666 61.8362 78.7056 61.186 78.9636V72.4531C61.8362 72.7111 62.5456 72.8501 63.2746 72.8501C64.0036 72.8501 64.7326 72.7111 65.3828 72.4332V78.9834C64.7326 78.7056 64.0233 78.5666 63.2746 78.5666Z" fill="#8B7866"/>
<path d="M63.2746 72.8501C62.5456 72.8501 61.8362 72.7111 61.186 72.4531V71.3812H65.4025V72.4332C64.7523 72.7111 64.043 72.8501 63.2943 72.8501H63.2746Z" fill="#CFD1D3"/>
<path d="M65.4025 80.0156H61.186V78.9636C61.8362 78.7056 62.5456 78.5667 63.2746 78.5667C64.0036 78.5667 64.7326 78.7056 65.3828 78.9835V80.0156H65.4025Z" fill="#CFD1D3"/>
<path d="M80.0026 52.8224C80.0026 52.088 79.8647 51.3734 79.6086 50.7184H86.0712C85.8151 51.3734 85.6772 52.088 85.6772 52.8224C85.6772 53.5568 85.8151 54.2912 86.0909 54.9463H79.5889C79.8647 54.2912 80.0026 53.5767 80.0026 52.8224Z" fill="#8B7866"/>
<path d="M85.6771 52.8224C85.6771 52.088 85.815 51.3734 86.0712 50.7184H87.1352V54.9661H86.0909C85.815 54.3111 85.6771 53.5965 85.6771 52.8422V52.8224Z" fill="#CFD1D3"/>
<path d="M78.5643 54.9462V50.6985H79.6085C79.8647 51.3535 80.0026 52.0681 80.0026 52.8025C80.0026 53.5369 79.8647 54.2713 79.5888 54.9264H78.5643V54.9462Z" fill="#CFD1D3"/>
<path d="M80.0026 62.072C80.0026 61.3376 79.8647 60.623 79.6086 59.968H86.0712C85.8151 60.623 85.6772 61.3376 85.6772 62.072C85.6772 62.8064 85.8151 63.5409 86.0909 64.1959H79.5889C79.8647 63.5409 80.0026 62.8263 80.0026 62.072Z" fill="#8B7866"/>
<path d="M85.6771 62.072C85.6771 61.3376 85.815 60.623 86.0712 59.968H87.1352V64.2157H86.0909C85.815 63.5607 85.6771 62.8461 85.6771 62.0919V62.072Z" fill="#CFD1D3"/>
<path d="M78.5643 64.2157V59.968H79.6085C79.8647 60.623 80.0026 61.3376 80.0026 62.072C80.0026 62.8064 79.8647 63.5409 79.5888 64.1959H78.5643V64.2157Z" fill="#CFD1D3"/>
<path d="M94.4649 46.1134C94.4649 45.379 94.3269 44.6644 94.0708 44.0094H100.533C100.277 44.6644 100.139 45.379 100.139 46.1134C100.139 46.8478 100.277 47.5822 100.553 48.2373H94.0511C94.3269 47.5822 94.4649 46.8677 94.4649 46.1134Z" fill="#8B7866"/>
<path d="M100.139 46.1134C100.139 45.379 100.277 44.6644 100.533 44.0094H101.597V48.2571H100.553C100.277 47.6021 100.139 46.8875 100.139 46.1333V46.1134Z" fill="#CFD1D3"/>
<path d="M93.0265 48.2372V43.9895H94.0708C94.3269 44.6445 94.4648 45.3591 94.4648 46.0935C94.4648 46.8279 94.3269 47.5623 94.0511 48.2174H93.0265V48.2372Z" fill="#CFD1D3"/>
<path d="M48.7927 79.1422C48.3395 79.1422 47.906 79.2216 47.4922 79.3804V75.351C47.906 75.5098 48.3395 75.5892 48.7927 75.5892C49.2458 75.5892 49.699 75.5098 50.0931 75.3312V79.3804C49.6793 79.2018 49.2458 79.1224 48.7927 79.1224V79.1422Z" fill="#8B7866"/>
<path d="M48.7927 75.6091C48.3395 75.6091 47.906 75.5297 47.4922 75.3709V74.696H50.0931V75.3511C49.6793 75.5297 49.2458 75.6091 48.7927 75.6091Z" fill="#CFD1D3"/>
<path d="M50.1129 80.0354H47.512V79.3804C47.9258 79.2216 48.3593 79.1422 48.8124 79.1422C49.2656 79.1422 49.7188 79.2216 50.1129 79.4003V80.0354Z" fill="#CFD1D3"/>
<path d="M69.8357 82.1793C69.8357 81.8815 69.7766 81.5838 69.6781 81.3059H72.3183C72.2198 81.5838 72.1607 81.8617 72.1607 82.1793C72.1607 82.4969 72.2198 82.7747 72.338 83.0526H69.6781C69.7963 82.7747 69.8554 82.4969 69.8554 82.1793H69.8357Z" fill="#8B7866"/>
<path d="M72.1607 82.1793C72.1607 81.8815 72.2198 81.5838 72.3183 81.3059H72.7518V83.0328H72.3183C72.2001 82.7549 72.141 82.477 72.141 82.1594L72.1607 82.1793Z" fill="#CFD1D3"/>
<path d="M69.2446 83.0528V81.3259H69.6781C69.7766 81.6038 69.8357 81.8817 69.8357 82.1993C69.8357 82.5169 69.7766 82.7948 69.6584 83.0726H69.2446V83.0528Z" fill="#CFD1D3"/>
<path d="M96.3366 20.0117C96.3366 19.7139 96.2775 19.4162 96.179 19.1383H98.8193C98.7207 19.4162 98.6616 19.6941 98.6616 20.0117C98.6616 20.3293 98.7207 20.6071 98.839 20.885H96.179C96.2972 20.6071 96.3563 20.3293 96.3563 20.0117H96.3366Z" fill="#8B7866"/>
<path d="M98.6419 20.0117C98.6419 19.7139 98.701 19.4162 98.7995 19.1383H99.233V20.8652H98.7995C98.6813 20.5873 98.6222 20.3094 98.6222 19.9918L98.6419 20.0117Z" fill="#CFD1D3"/>
<path d="M95.7455 20.8852V19.1583H96.179C96.2775 19.4362 96.3366 19.7141 96.3366 20.0317C96.3366 20.3493 96.2775 20.6272 96.1593 20.9051H95.7455V20.8852Z" fill="#CFD1D3"/>
<path d="M135.448 47.2248C135.743 47.2248 136.039 47.1653 136.315 47.066V49.7258C136.039 49.6266 135.763 49.567 135.448 49.567C135.132 49.567 134.857 49.6266 134.581 49.7457V47.066C134.857 47.1851 135.132 47.2447 135.448 47.2447V47.2248Z" fill="#8B7866"/>
<path d="M135.448 49.5671C135.743 49.5671 136.039 49.6266 136.315 49.7259V50.1626H134.6V49.7259C134.876 49.6068 135.152 49.5472 135.467 49.5472L135.448 49.5671Z" fill="#CFD1D3"/>
<path d="M134.581 46.6294H136.295V47.0661C136.019 47.1653 135.743 47.2249 135.428 47.2249C135.113 47.2249 134.837 47.1653 134.561 47.0462V46.6294H134.581Z" fill="#CFD1D3"/>
<path d="M161.239 43.2351C161.535 43.2351 161.83 43.1755 162.106 43.0763V45.7361C161.83 45.6368 161.554 45.5773 161.239 45.5773C160.924 45.5773 160.648 45.6368 160.372 45.7559V43.0763C160.648 43.1954 160.924 43.2549 161.239 43.2549V43.2351Z" fill="#8B7866"/>
<path d="M161.239 45.5773C161.535 45.5773 161.83 45.6369 162.106 45.7361V46.1728H160.392V45.7361C160.668 45.617 160.944 45.5575 161.259 45.5575L161.239 45.5773Z" fill="#CFD1D3"/>
<path d="M160.392 42.6396H162.106V43.0763C161.83 43.1756 161.554 43.2351 161.239 43.2351C160.924 43.2351 160.648 43.1756 160.372 43.0565V42.6396H160.392Z" fill="#CFD1D3"/>
<path d="M86.4653 72.9294C86.0122 72.9294 85.5787 73.0088 85.1649 73.1676V69.1383C85.5787 69.2971 86.0122 69.3764 86.4653 69.3764C86.9185 69.3764 87.3717 69.2971 87.7657 69.1184V73.1676C87.352 72.989 86.9185 72.9096 86.4653 72.9096V72.9294Z" fill="#8B7866"/>
<path d="M86.4653 69.3963C86.0122 69.3963 85.5787 69.3169 85.1649 69.1581V68.4833H87.7657V69.1383C87.352 69.3169 86.9185 69.3963 86.4653 69.3963Z" fill="#CFD1D3"/>
<path d="M87.7855 73.8426H85.1847V73.1875C85.5985 73.0287 86.0319 72.9493 86.4851 72.9493C86.9383 72.9493 87.3915 73.0287 87.7855 73.2074V73.8426Z" fill="#CFD1D3"/>
<path d="M91.5488 80.1545C91.0956 80.1545 90.6621 80.2339 90.2484 80.3927V76.3634C90.6621 76.5222 91.0956 76.6015 91.5488 76.6015C92.0019 76.6015 92.4551 76.5221 92.8492 76.3435V80.3927C92.4354 80.2141 92.0019 80.1347 91.5488 80.1347V80.1545Z" fill="#8B7866"/>
<path d="M91.5488 76.6214C91.0956 76.6214 90.6621 76.542 90.2484 76.3832V75.7084H92.8492V76.3634C92.4354 76.542 92.0019 76.6214 91.5488 76.6214Z" fill="#CFD1D3"/>
<path d="M92.8492 81.0677H90.2484V80.4126C90.6621 80.2538 91.0956 80.1744 91.5488 80.1744C92.0019 80.1744 92.4551 80.2538 92.8492 80.4325V81.0677Z" fill="#CFD1D3"/>
<path d="M37.9559 37.3003H35.6112V38.7493H37.9559V37.3003Z" fill="#8C9091"/>
<path d="M37.9559 32.8541H35.6112V34.3031H37.9559V32.8541Z" fill="#8C9091"/>
<path d="M37.9559 39.5433H35.6112V40.9923H37.9559V39.5433Z" fill="#8C9091"/>
<path d="M37.9559 41.7664H35.6112V43.2153H37.9559V41.7664Z" fill="#8C9091"/>
<path d="M37.9559 44.0094H35.6112V45.7561H37.9559V44.0094Z" fill="#8C9091"/>
<path d="M37.9559 46.5104H35.6112V47.9594H37.9559V46.5104Z" fill="#8C9091"/>
<path d="M37.9559 48.7334H35.6112V50.1824H37.9559V48.7334Z" fill="#8C9091"/>
<path d="M37.9559 50.9565H35.6112V52.4055H37.9559V50.9565Z" fill="#8C9091"/>
<path d="M37.9559 53.1995H35.6112V54.6485H37.9559V53.1995Z" fill="#8C9091"/>
<path d="M37.9559 55.3829H35.6112V56.8319H37.9559V55.3829Z" fill="#8C9091"/>
<path d="M37.9559 57.6259H35.6112V59.0748H37.9559V57.6259Z" fill="#8C9091"/>
<path d="M37.9559 59.849H35.6112V61.298H37.9559V59.849Z" fill="#8C9091"/>
<path d="M37.9559 62.0919H35.6112V63.5409H37.9559V62.0919Z" fill="#8C9091"/>
<path d="M37.9559 66.5977H35.6112V68.0466H37.9559V66.5977Z" fill="#8C9091"/>
<path d="M36.1826 25.3114L0.5 25.3114L0.5 75.49H36.1826L36.1826 25.3114Z" fill="#9EA2A2"/>
<path d="M9.5044 25.3114H6.15485L6.15485 75.49H9.5044L9.5044 25.3114Z" fill="#8C9091"/>
<path d="M16.1838 25.3114H12.8342L12.8342 75.49H16.1838L16.1838 25.3114Z" fill="#8C9091"/>
<path d="M22.8829 25.3114H19.5333L19.5333 75.49H22.8829L22.8829 25.3114Z" fill="#8C9091"/>
<path d="M29.5623 25.3114H26.2128L26.2128 75.49H29.5623L29.5623 25.3114Z" fill="#8C9091"/>
<path d="M36.1826 25.3114H32.8528L32.8528 75.49H36.1826L36.1826 25.3114Z" fill="#8C9091"/>
<path d="M104.848 32.7548V28.7255L89.0464 28.7255V32.7548V36.7842H104.848V32.7548Z" fill="#057582"/>
<path d="M104.848 32.7548V28.7255L89.0464 28.7255V32.7548V36.7842H104.848V32.7548Z" fill="#F47B20"/>
<path d="M104.848 32.7548V28.7255L89.0464 28.7255V32.7548V36.7842H104.848V32.7548Z" fill="#010101"/>
<path d="M101.262 36.7842V40.1585C101.262 40.7342 101.499 41.1907 101.775 41.1907H103.509C103.784 41.1907 104.021 40.7342 104.021 40.1585V36.7842H101.282H101.262Z" fill="#8C9091"/>
<path d="M90.0513 36.7842V40.1585C90.0513 40.7342 90.2877 41.1907 90.5636 41.1907H92.2974C92.5733 41.1907 92.8097 40.7342 92.8097 40.1585V36.7842H90.071H90.0513Z" fill="#8C9091"/>
<path d="M92.79 28.7255V25.3511C92.79 24.7755 92.5536 24.319 92.2777 24.319H90.5438C90.268 24.319 90.0316 24.7755 90.0316 25.3511V28.7255H92.7703H92.79Z" fill="#8C9091"/>
<path d="M104.001 28.7255V25.3511C104.001 24.7755 103.765 24.319 103.489 24.319H101.755C101.479 24.319 101.243 24.7755 101.243 25.3511V28.7255H103.981H104.001Z" fill="#8C9091"/>
<path d="M95.5879 36.7842V40.1585C95.5879 40.7342 95.8243 41.1907 96.1002 41.1907H97.8341C98.1099 41.1907 98.3463 40.7342 98.3463 40.1585V36.7842H95.6076H95.5879Z" fill="#8C9091"/>
<path d="M69.3629 69.9323C69.3629 69.4956 69.6191 69.1383 69.954 69.1383H71.4712V70.7262H69.954C69.6191 70.7262 69.3629 70.3689 69.3629 69.9323Z" fill="#8C9091"/>
<path d="M69.3629 75.49C69.3629 75.0533 69.6191 74.696 69.954 74.696H71.4712V76.284H69.954C69.6191 76.284 69.3629 75.9267 69.3629 75.49Z" fill="#8C9091"/>
<path d="M69.3629 72.7111C69.3629 72.2744 69.6191 71.9171 69.954 71.9171H71.4712V73.505H69.954C69.6191 73.505 69.3629 73.1478 69.3629 72.7111Z" fill="#8C9091"/>
<path d="M69.3629 78.2689C69.3629 77.8323 69.6191 77.475 69.954 77.475H71.4712V79.0629H69.954C69.6191 79.0629 69.3629 78.7056 69.3629 78.2689Z" fill="#8C9091"/>
<path d="M81.579 78.2689C81.579 78.7056 81.3228 79.0629 80.9878 79.0629H79.4707V77.475H80.9878C81.3228 77.475 81.579 77.8323 81.579 78.2689Z" fill="#8C9091"/>
<path d="M81.579 72.7111C81.579 73.1478 81.3228 73.505 80.9878 73.505H79.4707V71.9171H80.9878C81.3228 71.9171 81.579 72.2744 81.579 72.7111Z" fill="#8C9091"/>
<path d="M81.579 75.49C81.579 75.9267 81.3228 76.284 80.9878 76.284H79.4707V74.696H80.9878C81.3228 74.696 81.579 75.0533 81.579 75.49Z" fill="#8C9091"/>
<path d="M81.579 69.9323C81.579 70.3689 81.3228 70.7262 80.9878 70.7262H79.4707V69.1383H80.9878C81.3228 69.1383 81.579 69.4956 81.579 69.9323Z" fill="#8C9091"/>
<path d="M79.4904 67.6298H71.4515V80.0355H79.4904V67.6298Z" fill="#057582"/>
<path d="M79.4904 67.6298H71.4515V80.0355H79.4904V67.6298Z" fill="#F47B20"/>
<path d="M79.4904 67.6298H71.4515V80.0355H79.4904V67.6298Z" fill="#010101"/>
<path d="M101.952 60.8612H92.9674V72.1157H101.952V60.8612Z" fill="#057582"/>
<path d="M101.952 60.8612H92.9674V72.1157H101.952V60.8612Z" fill="#F47B20"/>
<path d="M101.952 60.8612H92.9674V72.1157H101.952V60.8612Z" fill="#010101"/>
<path d="M125.773 68.6421H120.532V73.922H125.773V68.6421Z" fill="#057582"/>
<path d="M125.773 68.6421H120.532V73.922H125.773V68.6421Z" fill="#F47B20"/>
<path d="M125.773 68.6421H120.532V73.922H125.773V68.6421Z" fill="#010101"/>
<path d="M202.123 31.3257L164.135 31.3257V69.5948H202.123V31.3257Z" fill="#057582"/>
<path d="M202.123 31.3257L164.135 31.3257V69.5948H202.123V31.3257Z" fill="#F47B20"/>
<path d="M202.123 31.3257L164.135 31.3257V69.5948H202.123V31.3257Z" fill="#010101"/>
<path d="M199.148 67.332C199.649 67.332 200.055 66.9232 200.055 66.4189C200.055 65.9146 199.649 65.5059 199.148 65.5059C198.648 65.5059 198.242 65.9146 198.242 66.4189C198.242 66.9232 198.648 67.332 199.148 67.332Z" fill="#8C9091"/>
<path d="M157.791 21.1827L135.448 21.1827V43.6917H157.791V21.1827Z" fill="#057582"/>
<path d="M157.791 21.1827L135.448 21.1827V43.6917H157.791V21.1827Z" fill="#F47B20"/>
<path d="M157.791 21.1827L135.448 21.1827V43.6917H157.791V21.1827Z" fill="#010101"/>
<path d="M140.334 18.9398H138.974V21.2026H140.334V18.9398Z" fill="#8C9091"/>
<path d="M143.112 18.9398H141.753V21.2026H143.112V18.9398Z" fill="#8C9091"/>
<path d="M145.89 18.9398H144.531V21.2026H145.89V18.9398Z" fill="#8C9091"/>
<path d="M148.688 18.9398H147.329V21.2026H148.688V18.9398Z" fill="#8C9091"/>
<path d="M151.466 18.9398H150.107V21.2026H151.466V18.9398Z" fill="#8C9091"/>
<path d="M154.245 18.9398H152.885V21.2026H154.245V18.9398Z" fill="#8C9091"/>
<path d="M140.334 43.6917H138.974V45.9545H140.334V43.6917Z" fill="#8C9091"/>
<path d="M143.112 43.6917H141.753V45.9545H143.112V43.6917Z" fill="#8C9091"/>
<path d="M145.89 43.6917H144.531V45.9545H145.89V43.6917Z" fill="#8C9091"/>
<path d="M148.688 43.6917H147.329V45.9545H148.688V43.6917Z" fill="#8C9091"/>
<path d="M151.466 43.6917H150.107V45.9545H151.466V43.6917Z" fill="#8C9091"/>
<path d="M154.245 43.6917H152.885V45.9545H154.245V43.6917Z" fill="#8C9091"/>
<path d="M135.448 26.1053V24.7357H133.201V26.1053H135.448Z" fill="#8C9091"/>
<path d="M135.428 28.904V27.5344H133.182V28.904H135.428Z" fill="#8C9091"/>
<path d="M135.428 31.7226V30.353H133.182V31.7226H135.428Z" fill="#8C9091"/>
<path d="M135.448 34.5213V33.1517H133.201V34.5213H135.448Z" fill="#8C9091"/>
<path d="M135.428 37.3399V35.9703H133.182V37.3399H135.428Z" fill="#8C9091"/>
<path d="M135.448 40.1386V38.769H133.201V40.1386H135.448Z" fill="#8C9091"/>
<path d="M160.018 26.1252V24.7556H157.771V26.1252H160.018Z" fill="#8C9091"/>
<path d="M160.018 28.9239V27.5543H157.771V28.9239H160.018Z" fill="#8C9091"/>
<path d="M160.018 31.7226V30.353H157.771V31.7226H160.018Z" fill="#8C9091"/>
<path d="M160.018 34.5412V33.1716H157.771V34.5412H160.018Z" fill="#8C9091"/>
<path d="M160.018 37.3399V35.9703H157.771V37.3399H160.018Z" fill="#8C9091"/>
<path d="M160.018 40.1387V38.7692H157.771V40.1387H160.018Z" fill="#8C9091"/>
<path d="M137.418 42.4016C137.864 42.4016 138.226 42.0372 138.226 41.5877C138.226 41.1383 137.864 40.7739 137.418 40.7739C136.972 40.7739 136.61 41.1383 136.61 41.5877C136.61 42.0372 136.972 42.4016 137.418 42.4016Z" fill="#8C9091"/>
<path d="M157.909 49.3488H147.88V68.8803H157.909V49.3488Z" fill="#C4C6C7"/>
<path d="M231.245 21.024V19.9521H229.472V21.024H231.245Z" fill="#CFD1D3"/>
<path d="M231.265 23.5647V22.4928H229.491V23.5647H231.265Z" fill="#CFD1D3"/>
<path d="M236.19 30.7699H237.254V28.9835H236.19V30.7699Z" fill="#CFD1D3"/>
<path d="M233.668 30.7699H234.732V28.9835H233.668V30.7699Z" fill="#CFD1D3"/>
<path d="M124 70.5L125 70.5L125 72H124V70.5Z" fill="#DA5B4A"/>
<path d="M121.5 73L121.5 72L123 72L123 73L121.5 73Z" fill="#009E73"/>
<path d="M123 69.5L123 70.5L121.5 70.5L121.5 69.5L123 69.5Z" fill="#0072B2"/>
</g>
<defs>
<clipPath id="clip0_427_2357">
<rect width="247" height="100" fill="white" transform="translate(0.5 0.5)"/>
</clipPath>
</defs>
</svg>
