<svg width="1920" height="1080" viewBox="0 0 1920 1080" fill="none" xmlns="http://www.w3.org/2000/svg">
<path fill-rule="evenodd" clip-rule="evenodd" d="M596.807 204.23H1324.8L1342.25 221.683V347.943L1342.27 348.053V352.697L1371.38 381.806V757.348L1342.27 786.456V791.1L1342.25 791.211V804.62L1342.22 805.11V805.125L1342.16 805.599V805.615L1342.09 806.105H1342.08L1341.98 806.594L1341.87 807.068V807.084L1341.73 807.558L1341.57 808.032L1341.38 808.49V808.505L1341.19 808.948L1341.18 808.963L1340.97 809.406H1340.96L1340.72 809.832V809.848L1340.47 810.259V810.274L1340.18 810.685L1339.9 811.08L1339.88 811.096L1339.58 811.475L1339.57 811.49L1339.25 811.854L1338.9 812.217L1338.54 812.565L1338.18 812.896H1338.16L1337.78 813.196L1337.77 813.212L1337.37 813.496L1336.96 813.781H1336.95L1336.54 814.033L1336.52 814.049L1336.09 814.27V814.286L1335.65 814.491L1335.63 814.507L1335.19 814.697H1335.18L1334.72 814.886L1334.24 815.044L1333.77 815.186H1333.76L1333.28 815.297L1332.79 815.392V815.407L1332.3 815.471H1332.29L1331.8 815.534L1331.31 815.565H596.302L595.812 815.534H595.796L595.323 815.471H595.307L594.817 815.407V815.392L594.328 815.297L593.838 815.186L593.364 815.044H593.348L592.89 814.886H592.874L592.432 814.697H592.416L591.974 814.507L591.958 814.491L591.516 814.286V814.27L591.074 814.049V814.033L590.647 813.781L589.826 813.212V813.196L589.447 812.896H589.431L589.068 812.565H589.052L588.705 812.217L588.357 811.854L588.026 811.49V811.475L587.71 811.096V811.08L587.425 810.685H587.41L587.141 810.274L586.888 809.848L586.873 809.832L586.636 809.406L586.415 808.963V808.948L586.225 808.505L586.209 808.49L586.035 808.032L585.878 807.558L585.735 807.084V807.068L585.625 806.594H585.609L585.514 806.105L585.451 805.615L585.435 805.599L585.388 805.11L585.356 804.62V804.604L585.341 804.178V215.618L585.356 215.191V215.175L585.388 214.686V214.67L585.435 214.196L585.451 214.18L585.514 213.691L585.609 213.201H585.625L585.735 212.727V212.711L585.878 212.238L586.035 211.764L586.209 211.306L586.225 211.29L586.415 210.848V210.832L586.636 210.39L586.873 209.963L586.888 209.947L587.141 209.521L587.41 209.11H587.425L587.71 208.715V208.7L588.026 208.321V208.305L588.357 207.942L588.705 207.578L589.052 207.231H589.068L589.431 206.899H589.447L589.826 206.599V206.583L590.221 206.299L590.237 206.283L590.647 206.015L591.074 205.762V205.746L591.516 205.525V205.509L591.958 205.304L591.974 205.288L592.416 205.099L592.432 205.083L592.874 204.909H592.89L593.348 204.751H593.364L593.838 204.609H593.854L594.328 204.498V204.483L594.817 204.388L595.307 204.325H595.323L595.796 204.261H595.812L596.302 204.23H596.318L596.744 204.214L596.807 204.23Z" fill="white" stroke="black" stroke-width="1.88933" stroke-miterlimit="10" stroke-linecap="round"/>
<path fill-rule="evenodd" clip-rule="evenodd" d="M762.648 786.456C762.648 776.964 754.956 769.272 745.463 769.272C735.971 769.272 728.263 776.964 728.263 786.456C728.263 795.948 735.971 803.656 745.463 803.656C754.956 803.656 762.648 795.948 762.648 786.456Z" fill="white" stroke="black" stroke-width="0.756" stroke-miterlimit="10" stroke-linecap="round"/>
<path fill-rule="evenodd" clip-rule="evenodd" d="M1359.45 408.008C1359.45 403.444 1357.64 399.069 1354.41 395.847C1351.19 392.624 1346.82 390.808 1342.27 390.808C1337.7 390.808 1333.33 392.624 1330.11 395.847C1326.88 399.069 1325.07 403.444 1325.07 408.008C1325.07 412.557 1326.88 416.932 1330.11 420.154C1333.33 423.392 1337.7 425.192 1342.27 425.192C1346.82 425.192 1351.19 423.392 1354.41 420.154C1357.64 416.932 1359.45 412.557 1359.45 408.008Z" fill="white" stroke="black" stroke-width="0.756" stroke-miterlimit="10" stroke-linecap="round"/>
<path fill-rule="evenodd" clip-rule="evenodd" d="M1359.45 728.238C1359.45 723.674 1357.64 719.299 1354.41 716.076C1351.19 712.854 1346.82 711.038 1342.27 711.038C1337.7 711.038 1333.33 712.854 1330.11 716.076C1326.88 719.299 1325.07 723.674 1325.07 728.238C1325.07 732.803 1326.88 737.178 1330.11 740.4C1333.33 743.622 1337.7 745.422 1342.27 745.422C1346.82 745.422 1351.19 743.622 1354.41 740.4C1357.64 737.178 1359.45 732.803 1359.45 728.238Z" fill="white" stroke="black" stroke-width="0.756" stroke-miterlimit="10" stroke-linecap="round"/>
<path fill-rule="evenodd" clip-rule="evenodd" d="M777.21 233.339C777.21 228.774 775.394 224.399 772.172 221.177C768.95 217.955 764.575 216.139 760.026 216.139C755.461 216.139 751.086 217.955 747.864 221.177C744.642 224.399 742.826 228.774 742.826 233.339C742.826 237.888 744.642 242.263 747.864 245.485C751.086 248.707 755.461 250.523 760.026 250.523C764.575 250.523 768.95 248.707 772.172 245.485C775.394 242.263 777.21 237.888 777.21 233.339Z" fill="white" stroke="black" stroke-width="0.756" stroke-miterlimit="10" stroke-linecap="round"/>
<path d="M594.059 186.869L587.362 169.495H589.826L594.374 182.131C594.706 183.141 595.006 184.089 595.259 184.974C595.512 184.01 595.827 183.063 596.207 182.131L600.882 169.495H603.219L596.459 186.869H594.059Z" fill="black"/>
<path d="M605.035 171.959V169.495H607.12V171.959H605.035ZM605.035 186.869V174.297H607.12V186.869H605.035Z" fill="black"/>
<path d="M619.013 182.825L621.224 183.078C620.845 184.389 620.182 185.4 619.266 186.11C618.334 186.837 617.134 187.184 615.665 187.184C613.801 187.184 612.332 186.616 611.242 185.479C610.184 184.341 609.663 182.746 609.663 180.677C609.663 178.576 610.2 176.934 611.305 175.749C612.395 174.58 613.801 173.98 615.538 173.98C617.213 173.98 618.587 174.58 619.645 175.749C620.735 176.886 621.287 178.497 621.287 180.551C621.287 180.677 621.256 180.867 621.224 181.119H611.874C611.953 182.509 612.332 183.583 613.011 184.341C613.722 185.068 614.606 185.415 615.665 185.415C616.454 185.415 617.134 185.21 617.686 184.784C618.223 184.373 618.666 183.71 619.013 182.825ZM612 179.35H619.013C618.918 178.308 618.65 177.518 618.192 177.013C617.513 176.176 616.628 175.749 615.538 175.749C614.559 175.749 613.738 176.097 613.074 176.76C612.443 177.392 612.079 178.261 612 179.35Z" fill="black"/>
<path d="M626.184 186.869L622.33 174.296H624.541L626.563 181.562L627.321 184.278C627.321 184.12 627.527 183.236 627.953 181.625L629.975 174.296H632.123L634.018 181.562L634.65 183.963L635.345 181.562L637.556 174.296H639.578L635.661 186.869H633.449L631.428 179.351L630.985 177.203L628.395 186.869H626.184Z" fill="black"/>
<path d="M648.588 186.869V175.939H646.756V174.296H648.588V172.97C648.588 172.133 648.667 171.501 648.84 171.074C649.046 170.537 649.409 170.095 649.914 169.748C650.42 169.369 651.146 169.179 652.126 169.179C652.71 169.179 653.358 169.274 654.084 169.432L653.768 171.264C653.294 171.185 652.884 171.138 652.505 171.138C651.873 171.138 651.399 171.295 651.115 171.58C650.862 171.832 650.736 172.338 650.736 173.096V174.296H653.2V175.939H650.736V186.869H648.588Z" fill="black"/>
<path d="M654.802 186.868V174.296H656.698V176.191C657.203 175.307 657.661 174.723 658.088 174.423C658.498 174.138 658.94 173.98 659.414 173.98C660.172 173.98 660.899 174.217 661.626 174.675L660.931 176.697C660.378 176.365 659.857 176.191 659.351 176.191C658.877 176.191 658.467 176.349 658.088 176.634C657.709 176.934 657.424 177.313 657.266 177.771C657.045 178.529 656.95 179.382 656.95 180.298V186.868H654.802Z" fill="black"/>
<path d="M662.123 180.551C662.123 178.245 662.77 176.507 664.081 175.37C665.124 174.454 666.435 173.98 667.998 173.98C669.72 173.98 671.126 174.549 672.231 175.686C673.321 176.823 673.874 178.403 673.874 180.424C673.874 182.035 673.621 183.299 673.116 184.215C672.642 185.147 671.947 185.889 671.031 186.426C670.099 186.932 669.088 187.184 667.998 187.184C666.229 187.184 664.792 186.616 663.702 185.479C662.644 184.341 662.123 182.699 662.123 180.551ZM664.271 180.551C664.271 182.193 664.618 183.425 665.345 184.215C666.056 185.021 666.94 185.415 667.998 185.415C669.041 185.415 669.925 185.021 670.652 184.215C671.362 183.378 671.726 182.13 671.726 180.488C671.726 178.94 671.362 177.755 670.652 176.95C669.925 176.16 669.041 175.749 667.998 175.749C666.94 175.749 666.056 176.16 665.345 176.95C664.618 177.755 664.271 178.956 664.271 180.551Z" fill="black"/>
<path d="M676.37 186.868V174.296H678.328V176.065C678.707 175.433 679.212 174.928 679.844 174.549C680.508 174.17 681.266 173.98 682.119 173.98C683.035 173.98 683.793 174.201 684.393 174.612C684.977 174.991 685.404 175.528 685.657 176.191C686.667 174.723 687.963 173.98 689.574 173.98C690.79 173.98 691.737 174.344 692.417 175.054C693.08 175.733 693.427 176.792 693.427 178.213V186.868H691.343V178.971C691.343 178.087 691.248 177.455 691.09 177.076C690.963 176.697 690.711 176.413 690.332 176.191C689.984 175.986 689.574 175.876 689.068 175.876C688.184 175.876 687.441 176.176 686.857 176.76C686.257 177.36 685.972 178.276 685.972 179.54V186.868H683.888V178.719C683.888 177.755 683.698 177.044 683.319 176.571C682.972 176.113 682.403 175.876 681.613 175.876C681.013 175.876 680.476 176.049 679.971 176.381C679.465 176.681 679.086 177.123 678.833 177.708C678.612 178.308 678.518 179.192 678.518 180.361V186.868H676.37Z" fill="black"/>
<path d="M708.036 186.869V171.58H702.287V169.495H716.06V171.58H710.311V186.869H708.036Z" fill="black"/>
<path d="M717.339 180.551C717.339 178.245 717.986 176.507 719.297 175.37C720.34 174.454 721.651 173.98 723.214 173.98C724.936 173.98 726.342 174.549 727.447 175.686C728.537 176.823 729.09 178.403 729.09 180.424C729.09 182.035 728.837 183.299 728.332 184.215C727.858 185.147 727.163 185.889 726.247 186.426C725.315 186.932 724.304 187.184 723.214 187.184C721.445 187.184 720.008 186.616 718.918 185.479C717.86 184.341 717.339 182.699 717.339 180.551ZM719.487 180.551C719.487 182.193 719.834 183.425 720.561 184.215C721.272 185.021 722.156 185.415 723.214 185.415C724.257 185.415 725.141 185.021 725.868 184.215C726.578 183.378 726.942 182.13 726.942 180.488C726.942 178.94 726.578 177.755 725.868 176.95C725.141 176.16 724.257 175.749 723.214 175.749C722.156 175.749 721.272 176.16 720.561 176.95C719.834 177.755 719.487 178.956 719.487 180.551Z" fill="black"/>
<path d="M731.586 191.67V174.296H733.544V175.939C734.002 175.307 734.507 174.833 735.06 174.486C735.645 174.154 736.355 173.98 737.208 173.98C738.251 173.98 739.183 174.28 739.988 174.865C740.825 175.418 741.457 176.191 741.883 177.202C742.294 178.182 742.515 179.271 742.515 180.488C742.515 181.751 742.278 182.92 741.82 183.962C741.346 184.973 740.683 185.779 739.799 186.363C738.914 186.9 737.982 187.184 737.019 187.184C736.34 187.184 735.708 187.026 735.123 186.742C734.571 186.41 734.113 186.016 733.734 185.542V191.67H731.586ZM733.544 180.677C733.544 182.288 733.86 183.488 734.492 184.278C735.155 185.036 735.961 185.415 736.892 185.415C737.856 185.415 738.677 185.021 739.356 184.215C740.02 183.425 740.367 182.178 740.367 180.488C740.367 178.892 740.02 177.692 739.356 176.886C738.677 176.097 737.903 175.686 737.019 175.686C736.087 175.686 735.266 176.113 734.555 176.95C733.876 177.803 733.544 179.034 733.544 180.677Z" fill="black"/>
<path d="M750.973 183.141L753.058 182.762C753.184 183.615 753.516 184.262 754.069 184.72C754.606 185.194 755.364 185.415 756.343 185.415C757.306 185.415 758.017 185.226 758.491 184.847C758.996 184.436 759.249 183.947 759.249 183.394C759.249 182.936 759.028 182.557 758.617 182.257C758.317 182.099 757.575 181.862 756.406 181.562C754.843 181.151 753.753 180.803 753.121 180.551C752.521 180.266 752.063 179.856 751.731 179.35C751.431 178.813 751.289 178.245 751.289 177.645C751.289 177.06 751.415 176.539 751.668 176.065C751.952 175.607 752.315 175.212 752.742 174.865C753.074 174.612 753.516 174.407 754.069 174.233C754.653 174.075 755.285 173.98 755.964 173.98C756.927 173.98 757.796 174.138 758.554 174.423C759.312 174.723 759.849 175.117 760.197 175.623C760.576 176.097 760.829 176.728 760.955 177.518L758.87 177.834C758.744 177.171 758.444 176.665 757.986 176.318C757.559 175.939 756.927 175.749 756.09 175.749C755.111 175.749 754.416 175.923 754.005 176.255C753.579 176.555 753.374 176.934 753.374 177.392C753.374 177.645 753.453 177.897 753.626 178.15C753.784 178.371 754.069 178.561 754.448 178.719C754.653 178.766 755.285 178.94 756.343 179.224C757.859 179.65 758.902 179.982 759.502 180.235C760.086 180.488 760.544 180.867 760.892 181.372C761.223 181.846 761.397 182.43 761.397 183.141C761.397 183.868 761.176 184.531 760.765 185.163C760.386 185.794 759.786 186.3 758.996 186.679C758.191 187.011 757.306 187.184 756.343 187.184C754.7 187.184 753.437 186.853 752.552 186.174C751.699 185.463 751.178 184.452 750.973 183.141Z" fill="black"/>
<path d="M763.987 171.959V169.495H766.072V171.959H763.987ZM763.987 186.869V174.297H766.072V186.869H763.987Z" fill="black"/>
<path d="M777.523 186.869V185.29C776.718 186.553 775.533 187.185 773.985 187.185C772.974 187.185 772.042 186.901 771.205 186.364C770.352 185.779 769.705 185.005 769.247 184.026C768.773 183.015 768.552 181.878 768.552 180.614C768.552 179.351 768.757 178.214 769.184 177.203C769.594 176.16 770.226 175.355 771.079 174.802C771.916 174.265 772.848 173.981 773.859 173.981C774.617 173.981 775.28 174.155 775.881 174.486C776.465 174.834 776.955 175.244 777.334 175.75V169.495H779.482V186.869H777.523ZM770.763 180.614C770.763 182.225 771.095 183.426 771.774 184.215C772.437 185.021 773.243 185.416 774.175 185.416C775.091 185.416 775.881 185.037 776.512 184.279C777.176 183.521 777.523 182.352 777.523 180.741C777.523 179.067 777.176 177.819 776.512 177.013C775.881 176.176 775.075 175.75 774.112 175.75C773.132 175.75 772.343 176.16 771.711 176.95C771.079 177.708 770.763 178.94 770.763 180.614Z" fill="black"/>
<path d="M791.454 182.825L793.665 183.078C793.286 184.389 792.623 185.4 791.707 186.11C790.775 186.837 789.574 187.184 788.106 187.184C786.242 187.184 784.773 186.616 783.683 185.479C782.625 184.341 782.104 182.746 782.104 180.677C782.104 178.576 782.641 176.934 783.746 175.749C784.836 174.58 786.242 173.98 787.979 173.98C789.653 173.98 791.027 174.58 792.086 175.749C793.175 176.886 793.728 178.497 793.728 180.551C793.728 180.677 793.697 180.867 793.665 181.119H784.315C784.394 182.509 784.773 183.583 785.452 184.341C786.163 185.068 787.047 185.415 788.106 185.415C788.895 185.415 789.574 185.21 790.127 184.784C790.664 184.373 791.106 183.71 791.454 182.825ZM784.441 179.35H791.454C791.359 178.308 791.091 177.518 790.633 177.013C789.953 176.176 789.069 175.749 787.979 175.749C787 175.749 786.179 176.097 785.515 176.76C784.883 177.392 784.52 178.261 784.441 179.35Z" fill="black"/>
<path d="M592.227 815.566H407.844M592.227 204.23H407.844" stroke="#007AC0" stroke-width="0.756" stroke-miterlimit="10" stroke-linecap="round"/>
<path d="M412.424 566.915V805.157" stroke="#007AC0" stroke-width="0.756" stroke-miterlimit="10" stroke-linecap="round"/>
<path fill-rule="evenodd" clip-rule="evenodd" d="M412.424 815.566L418.726 777.754H406.122L412.424 815.566Z" fill="#007AC0"/>
<path d="M412.424 419.933V214.638" stroke="#007AC0" stroke-width="0.756" stroke-miterlimit="10" stroke-linecap="round"/>
<path fill-rule="evenodd" clip-rule="evenodd" d="M412.424 204.23L406.122 242.042H418.726L412.424 204.23Z" fill="#007AC0"/>
<path d="M415.888 542.976L415.699 540.765C416.804 540.607 417.626 540.228 418.163 539.628C418.715 538.996 418.984 538.269 418.984 537.416C418.984 536.374 418.605 535.505 417.847 534.826C417.057 534.115 416.015 533.752 414.751 533.752C413.535 533.752 412.587 534.1 411.908 534.763C411.197 535.442 410.834 536.327 410.834 537.416C410.834 538.143 410.992 538.775 411.276 539.312C411.576 539.864 411.971 540.291 412.477 540.575L412.224 542.597L403.316 540.891V532.299H405.338V539.185L410.013 540.133C409.302 539.091 408.939 537.985 408.939 536.848C408.939 535.331 409.476 534.068 410.518 533.057C411.576 532.015 412.919 531.478 414.561 531.478C416.125 531.478 417.468 531.951 418.605 532.868C420.042 533.973 420.753 535.489 420.753 537.416C420.753 538.98 420.311 540.259 419.426 541.27C418.542 542.281 417.373 542.85 415.888 542.976Z" fill="#C00000"/>
<path d="M415.825 529.488L415.572 527.339C416.804 527.087 417.689 526.676 418.226 526.076C418.731 525.492 418.984 524.781 418.984 523.928C418.984 522.917 418.652 522.08 417.973 521.401C417.262 520.737 416.394 520.39 415.383 520.39C414.372 520.39 413.551 520.706 412.919 521.338C412.287 521.969 411.971 522.775 411.971 523.738C411.971 524.165 412.066 524.67 412.224 525.255L410.329 525.065C410.376 524.907 410.392 524.781 410.392 524.686C410.392 523.802 410.171 523.012 409.697 522.285C409.191 521.527 408.465 521.148 407.486 521.148C406.696 521.148 406.033 521.432 405.527 521.969C405.022 522.475 404.769 523.154 404.769 523.991C404.769 524.844 405.022 525.539 405.527 526.076C406.033 526.629 406.822 526.992 407.865 527.15L407.486 529.235C406.064 528.982 404.958 528.398 404.2 527.466C403.411 526.55 403 525.413 403 524.054C403 523.091 403.221 522.206 403.632 521.401C404.011 520.611 404.564 519.995 405.274 519.569C406.001 519.158 406.727 518.937 407.486 518.937C408.244 518.937 408.939 519.158 409.57 519.569C410.171 519.948 410.644 520.548 411.024 521.338C411.276 520.327 411.782 519.553 412.54 519C413.266 518.416 414.182 518.116 415.32 518.116C416.836 518.116 418.131 518.668 419.173 519.758C420.232 520.864 420.753 522.254 420.753 523.928C420.753 525.492 420.311 526.771 419.426 527.782C418.51 528.761 417.31 529.33 415.825 529.488Z" fill="#C00000"/>
<path d="M420.437 514.798H418.036V512.397H420.437V514.798Z" fill="#C00000"/>
<path d="M415.825 509.279L415.572 507.131C416.804 506.878 417.689 506.467 418.226 505.867C418.731 505.283 418.984 504.572 418.984 503.719C418.984 502.708 418.652 501.871 417.973 501.192C417.262 500.529 416.394 500.181 415.383 500.181C414.372 500.181 413.551 500.497 412.919 501.129C412.287 501.761 411.971 502.566 411.971 503.53C411.971 503.956 412.066 504.461 412.224 505.046L410.329 504.856C410.376 504.698 410.392 504.572 410.392 504.477C410.392 503.593 410.171 502.803 409.697 502.076C409.191 501.318 408.465 500.939 407.486 500.939C406.696 500.939 406.033 501.224 405.527 501.761C405.022 502.266 404.769 502.945 404.769 503.782C404.769 504.635 405.022 505.33 405.527 505.867C406.033 506.42 406.822 506.783 407.865 506.941L407.486 509.026C406.064 508.773 404.958 508.189 404.2 507.257C403.411 506.341 403 505.204 403 503.845C403 502.882 403.221 501.997 403.632 501.192C404.011 500.402 404.564 499.786 405.274 499.36C406.001 498.949 406.727 498.728 407.486 498.728C408.244 498.728 408.939 498.949 409.57 499.36C410.171 499.739 410.644 500.339 411.024 501.129C411.276 500.118 411.782 499.344 412.54 498.791C413.266 498.207 414.182 497.907 415.32 497.907C416.836 497.907 418.131 498.46 419.173 499.549C420.232 500.655 420.753 502.045 420.753 503.719C420.753 505.283 420.311 506.562 419.426 507.573C418.51 508.552 417.31 509.121 415.825 509.279Z" fill="#C00000"/>
<path d="M420.437 488.967H416.267V496.485H414.309L403.063 488.588V486.819H414.309V484.481H416.267V486.819H420.437V488.967ZM414.309 488.967H406.475L414.309 494.4V488.967Z" fill="#C00000"/>
<path d="M420.437 481.733H407.865V479.774H409.634C409.002 479.395 408.496 478.89 408.117 478.258C407.738 477.595 407.549 476.837 407.549 475.984C407.549 475.068 407.77 474.31 408.181 473.709C408.56 473.125 409.097 472.699 409.76 472.446C408.291 471.435 407.549 470.14 407.549 468.529C407.549 467.313 407.912 466.365 408.623 465.686C409.302 465.023 410.36 464.675 411.782 464.675H420.437V466.76H412.54C411.655 466.76 411.024 466.855 410.644 467.013C410.265 467.139 409.981 467.392 409.76 467.771C409.555 468.118 409.444 468.529 409.444 469.034C409.444 469.919 409.744 470.661 410.329 471.245C410.929 471.846 411.845 472.13 413.108 472.13H420.437V474.215H412.287C411.324 474.215 410.613 474.404 410.139 474.783C409.681 475.131 409.444 475.699 409.444 476.489C409.444 477.089 409.618 477.626 409.95 478.132C410.25 478.637 410.692 479.016 411.276 479.269C411.876 479.49 412.761 479.585 413.93 479.585H420.437V481.733Z" fill="#C00000"/>
<path d="M420.437 461.524H407.865V459.566H409.634C409.002 459.187 408.496 458.681 408.117 458.049C407.738 457.386 407.549 456.628 407.549 455.775C407.549 454.859 407.77 454.101 408.181 453.501C408.56 452.916 409.097 452.49 409.76 452.237C408.291 451.226 407.549 449.931 407.549 448.32C407.549 447.104 407.912 446.156 408.623 445.477C409.302 444.814 410.36 444.466 411.782 444.466H420.437V446.551H412.54C411.655 446.551 411.024 446.646 410.644 446.804C410.265 446.93 409.981 447.183 409.76 447.562C409.555 447.909 409.444 448.32 409.444 448.825C409.444 449.71 409.744 450.452 410.329 451.037C410.929 451.637 411.845 451.921 413.108 451.921H420.437V454.006H412.287C411.324 454.006 410.613 454.195 410.139 454.575C409.681 454.922 409.444 455.491 409.444 456.28C409.444 456.881 409.618 457.418 409.95 457.923C410.25 458.428 410.692 458.807 411.276 459.06C411.876 459.281 412.761 459.376 413.93 459.376H420.437V461.524Z" fill="#C00000"/>
<path d="M585.341 282.586V111.833M1342.25 280.232V111.833" stroke="#007AC0" stroke-width="0.756" stroke-miterlimit="10" stroke-linecap="round"/>
<path d="M913.01 116.429H595.765" stroke="#007AC0" stroke-width="0.756" stroke-miterlimit="10" stroke-linecap="round"/>
<path fill-rule="evenodd" clip-rule="evenodd" d="M585.341 116.429L623.168 122.731V110.127L585.341 116.429Z" fill="#007AC0"/>
<path d="M1059.99 116.429H1331.84" stroke="#007AC0" stroke-width="0.756" stroke-miterlimit="10" stroke-linecap="round"/>
<path fill-rule="evenodd" clip-rule="evenodd" d="M1342.25 116.429L1304.44 110.127V122.731L1342.25 116.429Z" fill="#007AC0"/>
<path d="M947.996 111.296L945.911 111.486C945.69 110.648 945.421 110.033 945.089 109.653C944.489 109.069 943.779 108.769 942.941 108.769C942.262 108.769 941.678 108.958 941.172 109.338C940.493 109.811 939.941 110.522 939.53 111.486C939.151 112.417 938.961 113.744 938.961 115.466C939.467 114.708 940.067 114.139 940.793 113.76C941.552 113.381 942.341 113.191 943.194 113.191C944.616 113.191 945.816 113.728 946.795 114.771C947.806 115.782 948.312 117.14 948.312 118.814C948.312 119.92 948.075 120.931 947.617 121.847C947.143 122.779 946.495 123.489 945.658 123.995C944.853 124.5 943.921 124.753 942.878 124.753C941.109 124.753 939.656 124.105 938.519 122.794C937.382 121.499 936.813 119.32 936.813 116.287C936.813 112.97 937.445 110.522 938.709 108.958C939.798 107.663 941.251 107 943.068 107C944.458 107 945.563 107.379 946.416 108.137C947.301 108.895 947.822 109.954 947.996 111.296ZM939.277 118.814C939.277 119.541 939.419 120.236 939.719 120.899C940.051 121.578 940.493 122.099 941.046 122.478C941.631 122.826 942.215 122.984 942.815 122.984C943.731 122.984 944.521 122.636 945.153 121.91C945.784 121.152 946.1 120.172 946.1 118.941C946.1 117.724 945.784 116.777 945.153 116.098C944.521 115.387 943.715 115.024 942.752 115.024C941.773 115.024 940.951 115.387 940.288 116.098C939.609 116.777 939.277 117.677 939.277 118.814Z" fill="#C00000"/>
<path d="M961.484 111.296L959.399 111.486C959.178 110.649 958.91 110.033 958.578 109.654C957.978 109.069 957.267 108.769 956.43 108.769C955.751 108.769 955.167 108.959 954.661 109.338C953.982 109.811 953.429 110.522 953.019 111.486C952.639 112.418 952.45 113.744 952.45 115.466C952.955 114.708 953.556 114.139 954.282 113.76C955.04 113.381 955.83 113.191 956.683 113.191C958.104 113.191 959.305 113.728 960.284 114.771C961.295 115.782 961.8 117.14 961.8 118.814C961.8 119.92 961.563 120.931 961.105 121.847C960.631 122.779 959.984 123.489 959.147 123.995C958.341 124.5 957.409 124.753 956.367 124.753C954.598 124.753 953.145 124.105 952.008 122.794C950.87 121.499 950.302 119.32 950.302 116.287C950.302 112.97 950.934 110.522 952.197 108.959C953.287 107.663 954.74 107 956.556 107C957.946 107 959.052 107.379 959.905 108.137C960.789 108.895 961.311 109.954 961.484 111.296ZM952.766 118.814C952.766 119.541 952.908 120.236 953.208 120.899C953.54 121.578 953.982 122.099 954.535 122.479C955.119 122.826 955.704 122.984 956.304 122.984C957.22 122.984 958.01 122.636 958.641 121.91C959.273 121.152 959.589 120.173 959.589 118.941C959.589 117.724 959.273 116.777 958.641 116.098C958.01 115.387 957.204 115.024 956.241 115.024C955.261 115.024 954.44 115.387 953.777 116.098C953.097 116.777 952.766 117.677 952.766 118.814Z" fill="#C00000"/>
<path d="M965.117 124.437V122.037H967.518V124.437H965.117Z" fill="#C00000"/>
<path d="M970.637 115.845C970.637 113.823 970.842 112.181 971.269 110.917C971.679 109.654 972.311 108.69 973.164 108.011C974.001 107.348 975.059 107 976.323 107C977.239 107 978.045 107.19 978.724 107.569C979.434 107.948 980.019 108.501 980.493 109.211C980.951 109.89 981.314 110.759 981.567 111.802C981.819 112.812 981.946 114.171 981.946 115.845C981.946 117.914 981.725 119.572 981.314 120.836C980.887 122.068 980.256 123.031 979.419 123.742C978.613 124.421 977.586 124.753 976.323 124.753C974.633 124.753 973.306 124.153 972.343 122.921C971.206 121.499 970.637 119.13 970.637 115.845ZM972.848 115.845C972.848 118.719 973.164 120.631 973.796 121.594C974.459 122.526 975.312 122.984 976.323 122.984C977.286 122.984 978.108 122.526 978.787 121.594C979.45 120.631 979.798 118.719 979.798 115.845C979.798 113.033 979.45 111.154 978.787 110.222C978.108 109.259 977.271 108.769 976.26 108.769C975.28 108.769 974.507 109.195 973.922 110.033C973.196 111.091 972.848 113.033 972.848 115.845Z" fill="#C00000"/>
<path d="M990.949 124.437V120.268H983.431V118.309L991.328 107.064H993.097V118.309H995.434V120.268H993.097V124.437H990.949ZM990.949 118.309V110.475L985.516 118.309H990.949Z" fill="#C00000"/>
<path d="M998.183 124.437V111.865H1000.14V113.634C1000.52 113.002 1001.03 112.496 1001.66 112.117C1002.32 111.738 1003.08 111.549 1003.93 111.549C1004.85 111.549 1005.61 111.77 1006.21 112.181C1006.79 112.56 1007.22 113.097 1007.47 113.76C1008.48 112.291 1009.78 111.549 1011.39 111.549C1012.6 111.549 1013.55 111.912 1014.23 112.623C1014.89 113.302 1015.24 114.36 1015.24 115.782V124.437H1013.16V116.54C1013.16 115.655 1013.06 115.024 1012.9 114.645C1012.78 114.265 1012.52 113.981 1012.14 113.76C1011.8 113.555 1011.39 113.444 1010.88 113.444C1010 113.444 1009.25 113.744 1008.67 114.329C1008.07 114.929 1007.79 115.845 1007.79 117.108V124.437H1005.7V116.287C1005.7 115.324 1005.51 114.613 1005.13 114.139C1004.78 113.681 1004.22 113.444 1003.43 113.444C1002.83 113.444 1002.29 113.618 1001.78 113.95C1001.28 114.25 1000.9 114.692 1000.65 115.276C1000.43 115.876 1000.33 116.761 1000.33 117.93V124.437H998.183Z" fill="#C00000"/>
<path d="M1018.39 124.437V111.865H1020.35V113.634C1020.73 113.002 1021.23 112.496 1021.87 112.117C1022.53 111.738 1023.29 111.549 1024.14 111.549C1025.06 111.549 1025.81 111.77 1026.41 112.181C1027 112.56 1027.43 113.097 1027.68 113.76C1028.69 112.291 1029.98 111.549 1031.6 111.549C1032.81 111.549 1033.76 111.912 1034.44 112.623C1035.1 113.302 1035.45 114.36 1035.45 115.782V124.437H1033.36V116.54C1033.36 115.655 1033.27 115.024 1033.11 114.645C1032.99 114.265 1032.73 113.981 1032.35 113.76C1032.01 113.555 1031.6 113.444 1031.09 113.444C1030.21 113.444 1029.46 113.744 1028.88 114.329C1028.28 114.929 1027.99 115.845 1027.99 117.108V124.437H1025.91V116.287C1025.91 115.324 1025.72 114.613 1025.34 114.139C1024.99 113.681 1024.42 113.444 1023.64 113.444C1023.03 113.444 1022.5 113.618 1021.99 113.95C1021.49 114.25 1021.11 114.692 1020.86 115.276C1020.63 115.876 1020.54 116.761 1020.54 117.93V124.437H1018.39Z" fill="#C00000"/>
<path d="M585.341 557.312V969.165M1371.38 574.164V969.165" stroke="#007AC0" stroke-width="0.756" stroke-miterlimit="10" stroke-linecap="round"/>
<path d="M901.543 964.569H595.765" stroke="#007AC0" stroke-width="0.756" stroke-miterlimit="10" stroke-linecap="round"/>
<path fill-rule="evenodd" clip-rule="evenodd" d="M585.341 964.569L623.168 970.871V958.267L585.341 964.569Z" fill="#007AC0"/>
<path d="M1048.53 964.569H1360.97" stroke="#007AC0" stroke-width="0.756" stroke-miterlimit="10" stroke-linecap="round"/>
<path fill-rule="evenodd" clip-rule="evenodd" d="M1371.38 964.569L1333.55 958.267V970.871L1371.38 964.569Z" fill="#007AC0"/>
<path d="M936.535 959.444L934.45 959.634C934.229 958.797 933.96 958.181 933.629 957.802C933.029 957.217 932.318 956.917 931.481 956.917C930.802 956.917 930.217 957.107 929.712 957.486C929.033 957.96 928.48 958.671 928.069 959.634C927.69 960.566 927.501 961.893 927.501 963.614C928.006 962.856 928.606 962.287 929.333 961.908C930.091 961.529 930.88 961.34 931.733 961.34C933.155 961.34 934.355 961.877 935.334 962.919C936.345 963.93 936.851 965.288 936.851 966.963C936.851 968.068 936.614 969.079 936.156 969.995C935.682 970.927 935.034 971.638 934.197 972.143C933.392 972.649 932.46 972.901 931.418 972.901C929.649 972.901 928.195 972.254 927.058 970.943C925.921 969.648 925.352 967.468 925.352 964.436C925.352 961.119 925.984 958.671 927.248 957.107C928.338 955.812 929.791 955.148 931.607 955.148C932.997 955.148 934.103 955.528 934.955 956.286C935.84 957.044 936.361 958.102 936.535 959.444ZM927.816 966.963C927.816 967.689 927.959 968.384 928.259 969.047C928.59 969.727 929.033 970.248 929.585 970.627C930.17 970.974 930.754 971.132 931.354 971.132C932.27 971.132 933.06 970.785 933.692 970.058C934.324 969.3 934.64 968.321 934.64 967.089C934.64 965.873 934.324 964.925 933.692 964.246C933.06 963.535 932.255 963.172 931.291 963.172C930.312 963.172 929.491 963.535 928.827 964.246C928.148 964.925 927.816 965.825 927.816 966.963Z" fill="#C00000"/>
<path d="M942.253 963.172C941.368 962.84 940.705 962.382 940.294 961.782C939.868 961.198 939.662 960.487 939.662 959.634C939.662 958.37 940.105 957.328 940.989 956.475C941.905 955.591 943.137 955.148 944.653 955.148C946.17 955.148 947.37 955.591 948.254 956.475C949.17 957.36 949.644 958.434 949.644 959.697C949.644 960.503 949.423 961.198 949.013 961.782C948.586 962.382 947.954 962.84 947.117 963.172C948.16 963.519 948.965 964.088 949.518 964.878C950.102 965.636 950.402 966.552 950.402 967.594C950.402 969.111 949.865 970.374 948.823 971.385C947.765 972.396 946.375 972.901 944.653 972.901C942.916 972.901 941.526 972.396 940.484 971.385C939.473 970.343 938.967 969.047 938.967 967.531C938.967 966.441 939.236 965.51 939.789 964.751C940.373 963.962 941.194 963.425 942.253 963.172ZM941.81 959.571C941.81 960.376 942.063 961.056 942.568 961.593C943.105 962.098 943.8 962.351 944.653 962.351C945.49 962.351 946.17 962.098 946.675 961.593C947.212 961.056 947.496 960.424 947.496 959.697C947.496 958.907 947.212 958.244 946.675 957.739C946.122 957.202 945.443 956.917 944.653 956.917C943.848 956.917 943.169 957.17 942.632 957.676C942.079 958.181 941.81 958.813 941.81 959.571ZM941.115 967.594C941.115 968.195 941.258 968.779 941.558 969.363C941.842 969.916 942.268 970.358 942.821 970.69C943.406 970.99 944.037 971.132 944.716 971.132C945.727 971.132 946.549 970.816 947.18 970.185C947.844 969.521 948.191 968.668 948.191 967.658C948.191 966.615 947.844 965.762 947.18 965.13C946.501 964.467 945.633 964.12 944.59 964.12C943.611 964.12 942.79 964.467 942.126 965.13C941.447 965.762 941.115 966.584 941.115 967.594Z" fill="#C00000"/>
<path d="M953.656 972.586V970.185H956.057V972.586H953.656Z" fill="#C00000"/>
<path d="M959.176 968.037L961.387 967.847C961.545 968.953 961.924 969.774 962.525 970.311C963.156 970.864 963.883 971.133 964.736 971.133C965.778 971.133 966.647 970.754 967.326 969.995C968.037 969.206 968.4 968.163 968.4 966.9C968.4 965.684 968.053 964.736 967.389 964.057C966.71 963.346 965.826 962.983 964.736 962.983C964.009 962.983 963.377 963.141 962.84 963.425C962.288 963.725 961.861 964.12 961.577 964.625L959.555 964.373L961.261 955.465H969.853V957.486H962.967L962.019 962.161C963.062 961.451 964.167 961.087 965.304 961.087C966.821 961.087 968.084 961.624 969.095 962.667C970.137 963.725 970.674 965.068 970.674 966.71C970.674 968.274 970.201 969.616 969.285 970.754C968.179 972.191 966.663 972.902 964.736 972.902C963.172 972.902 961.893 972.459 960.882 971.575C959.871 970.69 959.303 969.522 959.176 968.037Z" fill="#C00000"/>
<path d="M975.95 963.172C975.066 962.84 974.402 962.382 973.992 961.782C973.565 961.198 973.36 960.487 973.36 959.634C973.36 958.37 973.802 957.328 974.686 956.475C975.603 955.591 976.834 955.148 978.351 955.148C979.867 955.148 981.067 955.591 981.952 956.475C982.868 957.36 983.342 958.434 983.342 959.697C983.342 960.503 983.121 961.198 982.71 961.782C982.284 962.382 981.652 962.84 980.815 963.172C981.857 963.519 982.663 964.088 983.215 964.878C983.8 965.636 984.1 966.552 984.1 967.594C984.1 969.111 983.563 970.374 982.52 971.385C981.462 972.396 980.072 972.901 978.351 972.901C976.613 972.901 975.223 972.396 974.181 971.385C973.17 970.343 972.665 969.047 972.665 967.531C972.665 966.441 972.933 965.51 973.486 964.751C974.07 963.962 974.892 963.425 975.95 963.172ZM975.508 959.571C975.508 960.376 975.76 961.056 976.266 961.593C976.803 962.098 977.498 962.351 978.351 962.351C979.188 962.351 979.867 962.098 980.372 961.593C980.909 961.056 981.194 960.424 981.194 959.697C981.194 958.907 980.909 958.244 980.372 957.739C979.82 957.202 979.14 956.917 978.351 956.917C977.545 956.917 976.866 957.17 976.329 957.676C975.776 958.181 975.508 958.813 975.508 959.571ZM974.813 967.594C974.813 968.195 974.955 968.779 975.255 969.363C975.539 969.916 975.966 970.358 976.519 970.69C977.103 970.99 977.735 971.132 978.414 971.132C979.425 971.132 980.246 970.816 980.878 970.185C981.541 969.521 981.889 968.668 981.889 967.658C981.889 966.615 981.541 965.762 980.878 965.13C980.199 964.467 979.33 964.12 978.288 964.12C977.308 964.12 976.487 964.467 975.824 965.13C975.145 965.762 974.813 966.584 974.813 967.594Z" fill="#C00000"/>
<path d="M986.722 972.585V960.013H988.68V961.782C989.06 961.15 989.565 960.645 990.197 960.266C990.86 959.887 991.618 959.697 992.471 959.697C993.387 959.697 994.145 959.918 994.746 960.329C995.33 960.708 995.756 961.245 996.009 961.908C997.02 960.44 998.315 959.697 999.926 959.697C1001.14 959.697 1002.09 960.061 1002.77 960.771C1003.43 961.45 1003.78 962.509 1003.78 963.93V972.585H1001.7V964.688C1001.7 963.804 1001.6 963.172 1001.44 962.793C1001.32 962.414 1001.06 962.13 1000.68 961.908C1000.34 961.703 999.926 961.593 999.421 961.593C998.536 961.593 997.794 961.893 997.209 962.477C996.609 963.077 996.325 963.993 996.325 965.257V972.585H994.24V964.436C994.24 963.472 994.051 962.761 993.671 962.288C993.324 961.83 992.755 961.593 991.966 961.593C991.366 961.593 990.829 961.766 990.323 962.098C989.818 962.398 989.439 962.84 989.186 963.425C988.965 964.025 988.87 964.909 988.87 966.078V972.585H986.722Z" fill="#C00000"/>
<path d="M1006.93 972.585V960.013H1008.89V961.782C1009.27 961.15 1009.77 960.645 1010.41 960.266C1011.07 959.887 1011.83 959.697 1012.68 959.697C1013.6 959.697 1014.35 959.918 1014.95 960.329C1015.54 960.708 1015.96 961.245 1016.22 961.908C1017.23 960.44 1018.52 959.697 1020.13 959.697C1021.35 959.697 1022.3 960.061 1022.98 960.771C1023.64 961.45 1023.99 962.509 1023.99 963.93V972.585H1021.9V964.688C1021.9 963.804 1021.81 963.172 1021.65 962.793C1021.52 962.414 1021.27 962.13 1020.89 961.908C1020.55 961.703 1020.13 961.593 1019.63 961.593C1018.74 961.593 1018 961.893 1017.42 962.477C1016.82 963.077 1016.53 963.993 1016.53 965.257V972.585H1014.45V964.436C1014.45 963.472 1014.26 962.761 1013.88 962.288C1013.53 961.83 1012.96 961.593 1012.17 961.593C1011.57 961.593 1011.04 961.766 1010.53 962.098C1010.03 962.398 1009.65 962.84 1009.39 963.425C1009.17 964.025 1009.08 964.909 1009.08 966.078V972.585H1006.93Z" fill="#C00000"/>
<path d="M1273.03 345.652H1156.42" stroke="#007AC0" stroke-width="0.756" stroke-miterlimit="10" stroke-linecap="round"/>
<path d="M1158.31 339.718V322.344H1166.02C1167.57 322.344 1168.75 322.518 1169.56 322.849C1170.34 323.15 1170.98 323.702 1171.45 324.492C1171.96 325.25 1172.21 326.119 1172.21 327.082C1172.21 328.314 1171.8 329.341 1171.01 330.178C1170.2 331.031 1168.99 331.568 1167.34 331.821C1167.93 332.121 1168.37 332.421 1168.67 332.705C1169.33 333.305 1170 334.063 1170.63 334.979L1173.6 339.718H1170.76L1168.42 336.117C1167.74 335.074 1167.19 334.269 1166.78 333.716C1166.35 333.179 1165.95 332.8 1165.57 332.579C1165.23 332.326 1164.9 332.168 1164.56 332.073C1164.31 332.042 1163.88 332.01 1163.3 332.01H1160.65V339.718H1158.31ZM1160.65 329.988H1165.57C1166.62 329.988 1167.44 329.894 1168.04 329.673C1168.62 329.467 1169.07 329.136 1169.37 328.662C1169.65 328.156 1169.81 327.635 1169.81 327.082C1169.81 326.293 1169.51 325.613 1168.92 325.061C1168.32 324.524 1167.41 324.239 1166.14 324.239H1160.65V329.988Z" fill="#C00000"/>
<path d="M1182.96 339.717H1180.82V326.134C1180.31 326.64 1179.63 327.145 1178.79 327.65C1177.99 328.124 1177.25 328.472 1176.58 328.724V326.64C1177.75 326.103 1178.79 325.423 1179.68 324.618C1180.6 323.828 1181.23 323.038 1181.57 322.28H1182.96V339.717Z" fill="#C00000"/>
<path d="M1189.63 339.718V337.317H1192.03V339.718H1189.63Z" fill="#C00000"/>
<path d="M1206.21 326.576L1204.12 326.766C1203.9 325.929 1203.63 325.313 1203.3 324.934C1202.7 324.349 1201.99 324.049 1201.15 324.049C1200.47 324.049 1199.89 324.239 1199.38 324.618C1198.7 325.092 1198.15 325.802 1197.74 326.766C1197.36 327.698 1197.17 329.024 1197.17 330.746C1197.68 329.988 1198.28 329.419 1199 329.04C1199.76 328.661 1200.55 328.472 1201.4 328.472C1202.83 328.472 1204.03 329.009 1205.01 330.051C1206.02 331.062 1206.52 332.42 1206.52 334.094C1206.52 335.2 1206.28 336.211 1205.83 337.127C1205.35 338.059 1204.71 338.77 1203.87 339.275C1203.06 339.78 1202.13 340.033 1201.09 340.033C1199.32 340.033 1197.87 339.386 1196.73 338.075C1195.59 336.779 1195.02 334.6 1195.02 331.567C1195.02 328.251 1195.66 325.802 1196.92 324.239C1198.01 322.944 1199.46 322.28 1201.28 322.28C1202.67 322.28 1203.77 322.659 1204.63 323.417C1205.51 324.176 1206.03 325.234 1206.21 326.576ZM1197.49 334.094C1197.49 334.821 1197.63 335.516 1197.93 336.179C1198.26 336.858 1198.7 337.38 1199.26 337.759C1199.84 338.106 1200.42 338.264 1201.03 338.264C1201.94 338.264 1202.73 337.917 1203.36 337.19C1203.99 336.432 1204.31 335.453 1204.31 334.221C1204.31 333.005 1203.99 332.057 1203.36 331.378C1202.73 330.667 1201.93 330.304 1200.96 330.304C1199.98 330.304 1199.16 330.667 1198.5 331.378C1197.82 332.057 1197.49 332.957 1197.49 334.094Z" fill="#C00000"/>
<path d="M1208.64 331.125C1208.64 329.103 1208.84 327.461 1209.27 326.197C1209.68 324.934 1210.31 323.97 1211.17 323.291C1212 322.628 1213.06 322.28 1214.32 322.28C1215.24 322.28 1216.05 322.47 1216.72 322.849C1217.44 323.228 1218.02 323.781 1218.49 324.491C1218.95 325.171 1219.32 326.039 1219.57 327.082C1219.82 328.093 1219.95 329.451 1219.95 331.125C1219.95 333.194 1219.73 334.853 1219.32 336.116C1218.89 337.348 1218.26 338.312 1217.42 339.022C1216.61 339.701 1215.59 340.033 1214.32 340.033C1212.63 340.033 1211.31 339.433 1210.34 338.201C1209.21 336.779 1208.64 334.41 1208.64 331.125ZM1210.85 331.125C1210.85 334 1211.17 335.911 1211.8 336.874C1212.46 337.806 1213.31 338.264 1214.32 338.264C1215.29 338.264 1216.11 337.806 1216.79 336.874C1217.45 335.911 1217.8 334 1217.8 331.125C1217.8 328.314 1217.45 326.434 1216.79 325.502C1216.11 324.539 1215.27 324.049 1214.26 324.049C1213.28 324.049 1212.51 324.476 1211.92 325.313C1211.2 326.371 1210.85 328.314 1210.85 331.125Z" fill="#C00000"/>
<path d="M1222.7 339.717V327.145H1224.65V328.914C1225.03 328.282 1225.54 327.777 1226.17 327.398C1226.83 327.019 1227.59 326.829 1228.44 326.829C1229.36 326.829 1230.12 327.05 1230.72 327.461C1231.3 327.84 1231.73 328.377 1231.98 329.04C1232.99 327.571 1234.29 326.829 1235.9 326.829C1237.12 326.829 1238.06 327.192 1238.74 327.903C1239.41 328.582 1239.75 329.64 1239.75 331.062V339.717H1237.67V331.82C1237.67 330.936 1237.57 330.304 1237.42 329.925C1237.29 329.546 1237.04 329.261 1236.66 329.04C1236.31 328.835 1235.9 328.724 1235.39 328.724C1234.51 328.724 1233.77 329.025 1233.18 329.609C1232.58 330.209 1232.3 331.125 1232.3 332.389V339.717H1230.21V331.567C1230.21 330.604 1230.02 329.893 1229.65 329.419C1229.3 328.961 1228.73 328.724 1227.94 328.724C1227.34 328.724 1226.8 328.898 1226.3 329.23C1225.79 329.53 1225.41 329.972 1225.16 330.557C1224.94 331.157 1224.84 332.041 1224.84 333.21V339.717H1222.7Z" fill="#C00000"/>
<path d="M1242.9 339.717V327.145H1244.86V328.914C1245.24 328.282 1245.75 327.777 1246.38 327.398C1247.04 327.019 1247.8 326.829 1248.65 326.829C1249.57 326.829 1250.33 327.05 1250.93 327.461C1251.51 327.84 1251.94 328.377 1252.19 329.04C1253.2 327.571 1254.5 326.829 1256.11 326.829C1257.32 326.829 1258.27 327.192 1258.95 327.903C1259.61 328.582 1259.96 329.64 1259.96 331.062V339.717H1257.88V331.82C1257.88 330.936 1257.78 330.304 1257.62 329.925C1257.5 329.546 1257.25 329.261 1256.87 329.04C1256.52 328.835 1256.11 328.724 1255.6 328.724C1254.72 328.724 1253.98 329.025 1253.39 329.609C1252.79 330.209 1252.51 331.125 1252.51 332.389V339.717H1250.42V331.567C1250.42 330.604 1250.23 329.893 1249.85 329.419C1249.51 328.961 1248.94 328.724 1248.15 328.724C1247.55 328.724 1247.01 328.898 1246.51 329.23C1246 329.53 1245.62 329.972 1245.37 330.557C1245.15 331.157 1245.05 332.041 1245.05 333.21V339.717H1242.9Z" fill="#C00000"/>
<path d="M1342.27 408.008L1328.64 395.736" stroke="#007AC0" stroke-width="0.756" stroke-miterlimit="10" stroke-linecap="round"/>
<path d="M1274.56 347.026L1320.9 388.77" stroke="#007AC0" stroke-width="0.756" stroke-miterlimit="10" stroke-linecap="round"/>
<path fill-rule="evenodd" clip-rule="evenodd" d="M1328.64 395.736L1304.76 365.742L1296.31 375.108L1328.64 395.736Z" fill="#007AC0"/>
<path d="M1273.03 345.652L1300.52 370.417" stroke="#007AC0" stroke-width="0.756" stroke-miterlimit="10" stroke-linecap="round"/>
<path d="M760.01 237.919V278.32" stroke="#007AC0" stroke-width="0.756" stroke-miterlimit="10" stroke-linecap="round"/>
<path d="M759.631 273.724H749.602" stroke="#007AC0" stroke-width="0.756" stroke-miterlimit="10" stroke-linecap="round"/>
<path fill-rule="evenodd" clip-rule="evenodd" d="M760.01 273.725L722.198 267.423V280.042L760.01 273.725Z" fill="#007AC0"/>
<path d="M759.631 273.724H595.749" stroke="#007AC0" stroke-width="0.756" stroke-miterlimit="10" stroke-linecap="round"/>
<path fill-rule="evenodd" clip-rule="evenodd" d="M585.341 273.725L623.168 280.042V267.423L585.341 273.725Z" fill="#007AC0"/>
<path d="M791.582 281.745H789.434V268.162C788.928 268.667 788.249 269.173 787.412 269.678C786.607 270.152 785.864 270.499 785.201 270.752V268.667C786.37 268.13 787.412 267.451 788.297 266.645C789.213 265.856 789.844 265.066 790.192 264.308H791.582V281.745Z" fill="#C00000"/>
<path d="M797.047 277.196L799.258 277.007C799.416 278.112 799.795 278.934 800.395 279.471C801.027 280.024 801.754 280.292 802.607 280.292C803.649 280.292 804.518 279.913 805.197 279.155C805.908 278.365 806.271 277.323 806.271 276.059C806.271 274.843 805.923 273.895 805.26 273.216C804.581 272.505 803.696 272.142 802.607 272.142C801.88 272.142 801.248 272.3 800.711 272.584C800.158 272.885 799.732 273.279 799.448 273.785L797.426 273.532L799.132 264.624H807.724V266.646H800.838L799.89 271.321C800.932 270.61 802.038 270.247 803.175 270.247C804.691 270.247 805.955 270.784 806.966 271.826C808.008 272.885 808.545 274.227 808.545 275.87C808.545 277.433 808.071 278.776 807.155 279.913C806.05 281.35 804.533 282.061 802.607 282.061C801.043 282.061 799.764 281.619 798.753 280.734C797.742 279.85 797.173 278.681 797.047 277.196Z" fill="#C00000"/>
<path d="M811.736 281.745V279.344H814.137V281.745H811.736Z" fill="#C00000"/>
<path d="M828.438 279.723V281.745H817.003C816.956 281.239 817.035 280.766 817.256 280.292C817.54 279.502 818.014 278.712 818.646 277.954C819.277 277.196 820.193 276.312 821.425 275.301C823.321 273.785 824.584 272.584 825.216 271.7C825.879 270.784 826.227 269.915 826.227 269.109C826.227 268.225 825.927 267.514 825.342 266.961C824.742 266.377 823.968 266.077 823.005 266.077C821.947 266.077 821.11 266.393 820.478 267.025C819.878 267.625 819.593 268.462 819.593 269.552L817.382 269.299C817.54 267.704 818.109 266.488 819.088 265.635C820.051 264.75 821.362 264.308 823.005 264.308C824.679 264.308 826.006 264.782 826.985 265.698C827.948 266.63 828.438 267.767 828.438 269.109C828.438 269.836 828.28 270.531 827.996 271.194C827.696 271.873 827.206 272.584 826.543 273.342C825.911 274.069 824.837 275.08 823.321 276.375C822.01 277.433 821.173 278.144 820.794 278.523C820.446 278.902 820.178 279.313 819.972 279.723H828.438Z" fill="#C00000"/>
<path d="M837.567 281.745V277.575H830.049V275.616L837.947 264.371H839.715V275.616H842.053V277.575H839.715V281.745H837.567ZM837.567 275.616V267.782L832.134 275.616H837.567Z" fill="#C00000"/>
<path d="M844.801 281.745V269.173H846.76V270.942C847.139 270.31 847.644 269.804 848.276 269.425C848.94 269.046 849.698 268.857 850.551 268.857C851.467 268.857 852.225 269.078 852.825 269.488C853.409 269.868 853.836 270.405 854.089 271.068C855.099 269.599 856.394 268.857 858.006 268.857C859.222 268.857 860.169 269.22 860.848 269.931C861.512 270.61 861.859 271.668 861.859 273.09V281.745H859.774V273.848C859.774 272.963 859.68 272.331 859.522 271.952C859.395 271.573 859.143 271.289 858.764 271.068C858.416 270.863 858.006 270.752 857.5 270.752C856.616 270.752 855.873 271.052 855.289 271.636C854.689 272.237 854.404 273.153 854.404 274.416V281.745H852.32V273.595C852.32 272.632 852.13 271.921 851.751 271.447C851.403 270.989 850.835 270.752 850.045 270.752C849.445 270.752 848.908 270.926 848.403 271.257C847.897 271.558 847.518 272 847.265 272.584C847.044 273.184 846.949 274.069 846.949 275.238V281.745H844.801Z" fill="#C00000"/>
<path d="M865.01 281.745V269.173H866.969V270.942C867.348 270.31 867.853 269.804 868.485 269.425C869.148 269.046 869.906 268.857 870.759 268.857C871.675 268.857 872.433 269.078 873.034 269.488C873.618 269.868 874.044 270.405 874.297 271.068C875.308 269.599 876.603 268.857 878.214 268.857C879.43 268.857 880.378 269.22 881.057 269.931C881.721 270.61 882.068 271.668 882.068 273.09V281.745H879.983V273.848C879.983 272.963 879.888 272.331 879.73 271.952C879.604 271.573 879.351 271.289 878.972 271.068C878.625 270.863 878.214 270.752 877.709 270.752C876.824 270.752 876.082 271.052 875.498 271.636C874.897 272.237 874.613 273.153 874.613 274.416V281.745H872.528V273.595C872.528 272.632 872.339 271.921 871.96 271.447C871.612 270.989 871.044 270.752 870.254 270.752C869.654 270.752 869.117 270.926 868.611 271.257C868.106 271.558 867.727 272 867.474 272.584C867.253 273.184 867.158 274.069 867.158 275.238V281.745H865.01Z" fill="#C00000"/>
<path d="M745.463 791.052V863.422M585.34 808.695V863.422" stroke="#007AC0" stroke-width="0.756" stroke-miterlimit="10" stroke-linecap="round"/>
<path d="M745.369 858.841H735.055" stroke="#007AC0" stroke-width="0.756" stroke-miterlimit="10" stroke-linecap="round"/>
<path fill-rule="evenodd" clip-rule="evenodd" d="M745.464 858.842L707.636 852.54V865.144L745.464 858.842Z" fill="#007AC0"/>
<path d="M745.369 858.841H595.749" stroke="#007AC0" stroke-width="0.756" stroke-miterlimit="10" stroke-linecap="round"/>
<path fill-rule="evenodd" clip-rule="evenodd" d="M585.341 858.842L623.168 865.144V852.54L585.341 858.842Z" fill="#007AC0"/>
<path d="M777.323 866.856H775.175V853.273C774.67 853.778 773.991 854.284 773.154 854.789C772.348 855.263 771.606 855.611 770.942 855.863V853.778C772.111 853.241 773.154 852.562 774.038 851.757C774.954 850.967 775.586 850.177 775.933 849.419H777.323V866.856Z" fill="#C00000"/>
<path d="M782.788 862.244L784.936 861.991C785.189 863.223 785.6 864.108 786.2 864.645C786.784 865.15 787.495 865.403 788.348 865.403C789.359 865.403 790.196 865.071 790.875 864.392C791.538 863.681 791.886 862.813 791.886 861.802C791.886 860.791 791.57 859.97 790.938 859.338C790.306 858.706 789.501 858.39 788.538 858.39C788.111 858.39 787.606 858.485 787.021 858.643L787.211 856.748C787.369 856.795 787.495 856.811 787.59 856.811C788.474 856.811 789.264 856.59 789.991 856.116C790.749 855.611 791.128 854.884 791.128 853.905C791.128 853.115 790.844 852.452 790.306 851.946C789.801 851.441 789.122 851.188 788.285 851.188C787.432 851.188 786.737 851.441 786.2 851.946C785.647 852.452 785.284 853.241 785.126 854.284L783.041 853.905C783.294 852.483 783.878 851.378 784.81 850.62C785.726 849.83 786.863 849.419 788.222 849.419C789.185 849.419 790.07 849.64 790.875 850.051C791.665 850.43 792.281 850.983 792.707 851.694C793.118 852.42 793.339 853.147 793.339 853.905C793.339 854.663 793.118 855.358 792.707 855.99C792.328 856.59 791.728 857.064 790.938 857.443C791.949 857.695 792.723 858.201 793.276 858.959C793.86 859.686 794.16 860.602 794.16 861.739C794.16 863.255 793.608 864.55 792.518 865.593C791.412 866.651 790.022 867.172 788.348 867.172C786.784 867.172 785.505 866.73 784.494 865.845C783.515 864.929 782.946 863.729 782.788 862.244Z" fill="#C00000"/>
<path d="M797.477 866.857V864.456H799.878V866.857H797.477Z" fill="#C00000"/>
<path d="M803.313 862.813L805.335 862.623C805.54 863.603 805.872 864.313 806.345 864.771C806.851 865.198 807.483 865.403 808.241 865.403C808.904 865.403 809.473 865.261 809.947 864.961C810.452 864.677 810.847 864.266 811.147 863.76C811.479 863.255 811.747 862.592 811.968 861.739C812.174 860.854 812.284 859.97 812.284 859.085C812.284 859.006 812.284 858.88 812.284 858.706C811.858 859.385 811.273 859.938 810.515 860.349C809.789 860.775 808.999 860.981 808.114 860.981C806.677 860.981 805.461 860.459 804.45 859.401C803.471 858.359 802.997 856.985 802.997 855.295C802.997 853.526 803.502 852.12 804.513 851.062C805.556 849.972 806.867 849.419 808.43 849.419C809.568 849.419 810.594 849.735 811.526 850.367C812.489 850.967 813.2 851.82 813.674 852.957C814.179 854.063 814.432 855.674 814.432 857.822C814.432 860.065 814.179 861.834 813.674 863.129C813.2 864.44 812.489 865.45 811.526 866.161C810.594 866.84 809.473 867.172 808.178 867.172C806.819 867.172 805.714 866.793 804.829 866.035C803.976 865.277 803.471 864.203 803.313 862.813ZM812.031 855.168C812.031 853.952 811.684 852.989 811.021 852.262C810.389 851.551 809.631 851.188 808.746 851.188C807.767 851.188 806.93 851.599 806.219 852.389C805.54 853.147 805.208 854.142 805.208 855.358C805.208 856.463 805.524 857.364 806.156 858.074C806.819 858.754 807.672 859.085 808.683 859.085C809.646 859.085 810.452 858.754 811.084 858.074C811.716 857.364 812.031 856.4 812.031 855.168Z" fill="#C00000"/>
<path d="M816.612 851.757V849.735H827.858V851.378C826.752 852.563 825.662 854.126 824.572 856.053C823.467 857.996 822.63 860.002 822.045 862.055C821.619 863.54 821.35 865.135 821.224 866.856H819.076C819.076 865.514 819.329 863.871 819.834 861.929C820.371 860.002 821.113 858.122 822.045 856.306C823.009 854.505 824.035 852.989 825.141 851.757H816.612Z" fill="#C00000"/>
<path d="M830.543 866.856V854.284H832.501V856.053C832.88 855.421 833.386 854.916 834.018 854.537C834.681 854.158 835.439 853.968 836.292 853.968C837.208 853.968 837.966 854.189 838.566 854.6C839.151 854.979 839.577 855.516 839.83 856.179C840.841 854.71 842.136 853.968 843.747 853.968C844.963 853.968 845.911 854.331 846.59 855.042C847.253 855.721 847.601 856.779 847.601 858.201V866.856H845.516V858.959C845.516 858.075 845.421 857.443 845.263 857.064C845.137 856.685 844.884 856.4 844.505 856.179C844.158 855.974 843.747 855.863 843.242 855.863C842.357 855.863 841.615 856.163 841.03 856.748C840.43 857.348 840.146 858.264 840.146 859.528V866.856H838.061V858.706C838.061 857.743 837.871 857.032 837.492 856.558C837.145 856.1 836.576 855.863 835.787 855.863C835.186 855.863 834.649 856.037 834.144 856.369C833.639 856.669 833.26 857.111 833.007 857.695C832.786 858.296 832.691 859.18 832.691 860.349V866.856H830.543Z" fill="#C00000"/>
<path d="M850.751 866.856V854.284H852.71V856.053C853.089 855.421 853.594 854.916 854.226 854.537C854.89 854.158 855.648 853.968 856.501 853.968C857.417 853.968 858.175 854.189 858.775 854.6C859.359 854.979 859.786 855.516 860.039 856.179C861.049 854.71 862.345 853.968 863.956 853.968C865.172 853.968 866.119 854.331 866.799 855.042C867.462 855.721 867.809 856.779 867.809 858.201V866.856H865.724V858.959C865.724 858.075 865.63 857.443 865.472 857.064C865.345 856.685 865.093 856.4 864.714 856.179C864.366 855.974 863.956 855.863 863.45 855.863C862.566 855.863 861.823 856.163 861.239 856.748C860.639 857.348 860.354 858.264 860.354 859.528V866.856H858.27V858.706C858.27 857.743 858.08 857.032 857.701 856.558C857.353 856.1 856.785 855.863 855.995 855.863C855.395 855.863 854.858 856.037 854.353 856.369C853.847 856.669 853.468 857.111 853.215 857.695C852.994 858.296 852.899 859.18 852.899 860.349V866.856H850.751Z" fill="#C00000"/>
<path d="M1346.85 728.238H1513.75M1329.38 204.229H1513.75" stroke="#007AC0" stroke-width="0.756" stroke-miterlimit="10" stroke-linecap="round"/>
<path d="M1509.15 549.13V717.829" stroke="#007AC0" stroke-width="0.756" stroke-miterlimit="10" stroke-linecap="round"/>
<path fill-rule="evenodd" clip-rule="evenodd" d="M1509.15 728.238L1515.47 690.411H1502.85L1509.15 728.238Z" fill="#007AC0"/>
<path d="M1509.15 402.148V214.638" stroke="#007AC0" stroke-width="0.756" stroke-miterlimit="10" stroke-linecap="round"/>
<path fill-rule="evenodd" clip-rule="evenodd" d="M1509.15 204.23L1502.85 242.042H1515.47L1509.15 204.23Z" fill="#007AC0"/>
<path d="M1517.17 518.366H1513V525.884H1511.04L1499.8 517.987V516.218H1511.04V513.881H1513V516.218H1517.17V518.366ZM1511.04 518.366H1503.21L1511.04 523.8V518.366Z" fill="#C00000"/>
<path d="M1512.62 511.702L1512.43 509.49C1513.54 509.332 1514.36 508.953 1514.9 508.353C1515.45 507.721 1515.72 506.995 1515.72 506.142C1515.72 505.1 1515.34 504.231 1514.58 503.552C1513.79 502.841 1512.75 502.478 1511.49 502.478C1510.27 502.478 1509.32 502.825 1508.64 503.489C1507.93 504.168 1507.57 505.052 1507.57 506.142C1507.57 506.869 1507.73 507.5 1508.01 508.037C1508.31 508.59 1508.71 509.017 1509.21 509.301L1508.96 511.323L1500.05 509.617V501.025H1502.07V507.911L1506.75 508.859C1506.04 507.816 1505.67 506.711 1505.67 505.573C1505.67 504.057 1506.21 502.794 1507.25 501.783C1508.31 500.74 1509.65 500.203 1511.3 500.203C1512.86 500.203 1514.2 500.677 1515.34 501.593C1516.78 502.699 1517.49 504.215 1517.49 506.142C1517.49 507.706 1517.05 508.985 1516.16 509.996C1515.28 511.007 1514.11 511.575 1512.62 511.702Z" fill="#C00000"/>
<path d="M1517.17 497.012H1514.77V494.611H1517.17V497.012Z" fill="#C00000"/>
<path d="M1502.07 491.366H1500.05V480.12H1501.69C1502.88 481.226 1504.44 482.316 1506.37 483.406C1508.31 484.511 1510.32 485.348 1512.37 485.933C1513.85 486.359 1515.45 486.628 1517.17 486.754V488.902C1515.83 488.902 1514.19 488.649 1512.24 488.144C1510.32 487.607 1508.44 486.865 1506.62 485.933C1504.82 484.969 1503.3 483.943 1502.07 482.837V491.366Z" fill="#C00000"/>
<path d="M1515.15 466.822H1517.17V478.257C1516.67 478.305 1516.19 478.226 1515.72 478.004C1514.93 477.72 1514.14 477.246 1513.38 476.615C1512.62 475.983 1511.74 475.067 1510.73 473.835C1509.21 471.939 1508.01 470.676 1507.13 470.044C1506.21 469.381 1505.34 469.033 1504.54 469.033C1503.65 469.033 1502.94 469.333 1502.39 469.918C1501.8 470.518 1501.5 471.292 1501.5 472.255C1501.5 473.313 1501.82 474.151 1502.45 474.782C1503.05 475.383 1503.89 475.667 1504.98 475.667L1504.73 477.878C1503.13 477.72 1501.91 477.152 1501.06 476.172C1500.18 475.209 1499.73 473.898 1499.73 472.255C1499.73 470.581 1500.21 469.254 1501.12 468.275C1502.06 467.312 1503.19 466.822 1504.54 466.822C1505.26 466.822 1505.96 466.98 1506.62 467.264C1507.3 467.564 1508.01 468.054 1508.77 468.717C1509.5 469.349 1510.51 470.423 1511.8 471.939C1512.86 473.25 1513.57 474.087 1513.95 474.466C1514.33 474.814 1514.74 475.082 1515.15 475.288V466.822Z" fill="#C00000"/>
<path d="M1517.17 463.946H1504.6V461.988H1506.37C1505.74 461.609 1505.23 461.103 1504.85 460.472C1504.47 459.808 1504.28 459.05 1504.28 458.197C1504.28 457.281 1504.5 456.523 1504.91 455.923C1505.29 455.339 1505.83 454.912 1506.49 454.659C1505.03 453.649 1504.28 452.353 1504.28 450.742C1504.28 449.526 1504.65 448.579 1505.36 447.899C1506.04 447.236 1507.09 446.889 1508.52 446.889H1517.17V448.973H1509.27C1508.39 448.973 1507.76 449.068 1507.38 449.226C1507 449.352 1506.72 449.605 1506.49 449.984C1506.29 450.332 1506.18 450.742 1506.18 451.248C1506.18 452.132 1506.48 452.875 1507.06 453.459C1507.66 454.059 1508.58 454.343 1509.84 454.343H1517.17V456.428H1509.02C1508.06 456.428 1507.35 456.618 1506.87 456.997C1506.42 457.344 1506.18 457.913 1506.18 458.703C1506.18 459.303 1506.35 459.84 1506.68 460.345C1506.98 460.851 1507.43 461.23 1508.01 461.483C1508.61 461.704 1509.5 461.798 1510.66 461.798H1517.17V463.946Z" fill="#C00000"/>
<path d="M1517.17 443.738H1504.6V441.78H1506.37C1505.74 441.401 1505.23 440.895 1504.85 440.264C1504.47 439.6 1504.28 438.842 1504.28 437.989C1504.28 437.073 1504.5 436.315 1504.91 435.715C1505.29 435.131 1505.83 434.704 1506.49 434.451C1505.03 433.441 1504.28 432.145 1504.28 430.534C1504.28 429.318 1504.65 428.371 1505.36 427.691C1506.04 427.028 1507.09 426.681 1508.52 426.681H1517.17V428.765H1509.27C1508.39 428.765 1507.76 428.86 1507.38 429.018C1507 429.144 1506.72 429.397 1506.49 429.776C1506.29 430.124 1506.18 430.534 1506.18 431.04C1506.18 431.924 1506.48 432.667 1507.06 433.251C1507.66 433.851 1508.58 434.135 1509.84 434.135H1517.17V436.22H1509.02C1508.06 436.22 1507.35 436.41 1506.87 436.789C1506.42 437.136 1506.18 437.705 1506.18 438.495C1506.18 439.095 1506.35 439.632 1506.68 440.137C1506.98 440.643 1507.43 441.022 1508.01 441.275C1508.61 441.496 1509.5 441.59 1510.66 441.59H1517.17V443.738Z" fill="#C00000"/>
<path d="M1346.85 408.008H1459.05M1329.38 204.229H1459.05" stroke="#007AC0" stroke-width="0.756" stroke-miterlimit="10" stroke-linecap="round"/>
<path d="M1454.47 404.565V397.599" stroke="#007AC0" stroke-width="0.756" stroke-miterlimit="10" stroke-linecap="round"/>
<path fill-rule="evenodd" clip-rule="evenodd" d="M1454.47 408.008L1460.77 370.181H1448.17L1454.47 408.008Z" fill="#007AC0"/>
<path d="M1454.47 404.565V214.638" stroke="#007AC0" stroke-width="0.756" stroke-miterlimit="10" stroke-linecap="round"/>
<path fill-rule="evenodd" clip-rule="evenodd" d="M1454.47 204.23L1448.17 242.042H1460.77L1454.47 204.23Z" fill="#007AC0"/>
<path d="M1462.49 519.592V521.74H1448.9C1449.41 522.245 1449.91 522.925 1450.42 523.762C1450.89 524.567 1451.24 525.31 1451.49 525.973H1449.41C1448.87 524.804 1448.19 523.762 1447.39 522.877C1446.6 521.961 1445.81 521.329 1445.05 520.982V519.592H1462.49Z" fill="#C00000"/>
<path d="M1447.39 514H1445.37V502.755H1447.01C1448.19 503.86 1449.76 504.95 1451.68 506.04C1453.63 507.146 1455.63 507.983 1457.69 508.567C1459.17 508.994 1460.77 509.262 1462.49 509.388V511.536C1461.14 511.536 1459.5 511.284 1457.56 510.778C1455.63 510.241 1453.75 509.499 1451.94 508.567C1450.14 507.604 1448.62 506.577 1447.39 505.471V514Z" fill="#C00000"/>
<path d="M1462.49 499.438H1460.09V497.038H1462.49V499.438Z" fill="#C00000"/>
<path d="M1447.39 493.792H1445.37V482.547H1447.01C1448.19 483.652 1449.76 484.742 1451.68 485.832C1453.63 486.937 1455.63 487.775 1457.69 488.359C1459.17 488.785 1460.77 489.054 1462.49 489.18V491.328C1461.14 491.328 1459.5 491.076 1457.56 490.57C1455.63 490.033 1453.75 489.291 1451.94 488.359C1450.14 487.395 1448.62 486.369 1447.39 485.263V493.792Z" fill="#C00000"/>
<path d="M1453.07 477.144C1452.74 478.029 1452.28 478.692 1451.68 479.103C1451.1 479.529 1450.39 479.735 1449.54 479.735C1448.27 479.735 1447.23 479.292 1446.38 478.408C1445.49 477.492 1445.05 476.26 1445.05 474.744C1445.05 473.227 1445.49 472.027 1446.38 471.142C1447.26 470.226 1448.34 469.753 1449.6 469.753C1450.4 469.753 1451.1 469.974 1451.68 470.384C1452.28 470.811 1452.74 471.443 1453.07 472.28C1453.42 471.237 1453.99 470.432 1454.78 469.879C1455.54 469.294 1456.45 468.994 1457.5 468.994C1459.01 468.994 1460.28 469.531 1461.29 470.574C1462.3 471.632 1462.8 473.022 1462.8 474.744C1462.8 476.481 1462.3 477.871 1461.29 478.913C1460.24 479.924 1458.95 480.429 1457.43 480.429C1456.34 480.429 1455.41 480.161 1454.65 479.608C1453.86 479.024 1453.33 478.202 1453.07 477.144ZM1449.47 477.587C1450.28 477.587 1450.96 477.334 1451.49 476.828C1452 476.291 1452.25 475.596 1452.25 474.744C1452.25 473.906 1452 473.227 1451.49 472.722C1450.96 472.185 1450.33 471.901 1449.6 471.901C1448.81 471.901 1448.15 472.185 1447.64 472.722C1447.1 473.275 1446.82 473.954 1446.82 474.744C1446.82 475.549 1447.07 476.228 1447.58 476.765C1448.08 477.318 1448.71 477.587 1449.47 477.587ZM1457.5 478.281C1458.1 478.281 1458.68 478.139 1459.26 477.839C1459.82 477.555 1460.26 477.128 1460.59 476.576C1460.89 475.991 1461.03 475.36 1461.03 474.68C1461.03 473.67 1460.72 472.848 1460.09 472.216C1459.42 471.553 1458.57 471.206 1457.56 471.206C1456.52 471.206 1455.66 471.553 1455.03 472.216C1454.37 472.896 1454.02 473.764 1454.02 474.807C1454.02 475.786 1454.37 476.607 1455.03 477.271C1455.66 477.95 1456.49 478.281 1457.5 478.281Z" fill="#C00000"/>
<path d="M1462.49 466.373H1449.91V464.414H1451.68C1451.05 464.035 1450.55 463.53 1450.17 462.898C1449.79 462.235 1449.6 461.477 1449.6 460.624C1449.6 459.708 1449.82 458.949 1450.23 458.349C1450.61 457.765 1451.15 457.338 1451.81 457.086C1450.34 456.075 1449.6 454.78 1449.6 453.169C1449.6 451.953 1449.96 451.005 1450.67 450.326C1451.35 449.662 1452.41 449.315 1453.83 449.315H1462.49V451.4H1454.59C1453.71 451.4 1453.07 451.495 1452.69 451.653C1452.32 451.779 1452.03 452.032 1451.81 452.411C1451.6 452.758 1451.49 453.169 1451.49 453.674C1451.49 454.559 1451.79 455.301 1452.38 455.885C1452.98 456.486 1453.89 456.77 1455.16 456.77H1462.49V458.855H1454.34C1453.37 458.855 1452.66 459.044 1452.19 459.423C1451.73 459.771 1451.49 460.339 1451.49 461.129C1451.49 461.729 1451.67 462.266 1452 462.772C1452.3 463.277 1452.74 463.656 1453.33 463.909C1453.93 464.13 1454.81 464.225 1455.98 464.225H1462.49V466.373Z" fill="#C00000"/>
<path d="M1462.49 446.164H1449.91V444.205H1451.68C1451.05 443.826 1450.55 443.321 1450.17 442.689C1449.79 442.026 1449.6 441.268 1449.6 440.415C1449.6 439.499 1449.82 438.741 1450.23 438.14C1450.61 437.556 1451.15 437.13 1451.81 436.877C1450.34 435.866 1449.6 434.571 1449.6 432.96C1449.6 431.744 1449.96 430.796 1450.67 430.117C1451.35 429.454 1452.41 429.106 1453.83 429.106H1462.49V431.191H1454.59C1453.71 431.191 1453.07 431.286 1452.69 431.444C1452.32 431.57 1452.03 431.823 1451.81 432.202C1451.6 432.549 1451.49 432.96 1451.49 433.465C1451.49 434.35 1451.79 435.092 1452.38 435.677C1452.98 436.277 1453.89 436.561 1455.16 436.561H1462.49V438.646H1454.34C1453.37 438.646 1452.66 438.835 1452.19 439.214C1451.73 439.562 1451.49 440.131 1451.49 440.92C1451.49 441.52 1451.67 442.057 1452 442.563C1452.3 443.068 1452.74 443.447 1453.33 443.7C1453.93 443.921 1454.81 444.016 1455.98 444.016H1462.49V446.164Z" fill="#C00000"/>
<path d="M740.883 786.456H478.523M592.227 204.229H478.523" stroke="#007AC0" stroke-width="0.756" stroke-miterlimit="10" stroke-linecap="round"/>
<path d="M483.104 572.742V776.047" stroke="#007AC0" stroke-width="0.756" stroke-miterlimit="10" stroke-linecap="round"/>
<path fill-rule="evenodd" clip-rule="evenodd" d="M483.104 786.456L489.421 748.644H476.802L483.104 786.456Z" fill="#007AC0"/>
<path d="M483.104 425.761V214.638" stroke="#007AC0" stroke-width="0.756" stroke-miterlimit="10" stroke-linecap="round"/>
<path fill-rule="evenodd" clip-rule="evenodd" d="M483.104 204.23L476.802 242.042H489.421L483.104 204.23Z" fill="#007AC0"/>
<path d="M486.574 548.806L486.384 546.594C487.49 546.436 488.311 546.057 488.848 545.457C489.401 544.825 489.67 544.099 489.67 543.246C489.67 542.203 489.291 541.335 488.532 540.656C487.743 539.945 486.7 539.582 485.437 539.582C484.221 539.582 483.273 539.929 482.594 540.592C481.883 541.272 481.52 542.156 481.52 543.246C481.52 543.972 481.678 544.604 481.962 545.141C482.262 545.694 482.657 546.12 483.162 546.405L482.91 548.426L474.002 546.721V538.129H476.023V545.015L480.699 545.963C479.988 544.92 479.624 543.815 479.624 542.677C479.624 541.161 480.161 539.898 481.204 538.887C482.262 537.844 483.605 537.307 485.247 537.307C486.811 537.307 488.153 537.781 489.291 538.697C490.728 539.803 491.439 541.319 491.439 543.246C491.439 544.81 490.996 546.089 490.112 547.1C489.227 548.111 488.059 548.679 486.574 548.806Z" fill="#C00000"/>
<path d="M482.531 535.318C480.509 535.318 478.866 535.112 477.603 534.686C476.339 534.275 475.376 533.643 474.697 532.791C474.033 531.953 473.686 530.895 473.686 529.632C473.686 528.716 473.875 527.91 474.254 527.231C474.634 526.52 475.186 525.936 475.897 525.462C476.576 525.004 477.445 524.641 478.487 524.388C479.498 524.135 480.856 524.009 482.531 524.009C484.6 524.009 486.258 524.23 487.522 524.641C488.754 525.067 489.717 525.699 490.428 526.536C491.107 527.342 491.439 528.368 491.439 529.632C491.439 531.322 490.839 532.648 489.607 533.612C488.185 534.749 485.816 535.318 482.531 535.318ZM482.531 533.106C485.405 533.106 487.316 532.791 488.28 532.159C489.212 531.495 489.67 530.643 489.67 529.632C489.67 528.668 489.212 527.847 488.28 527.168C487.316 526.504 485.405 526.157 482.531 526.157C479.719 526.157 477.84 526.504 476.908 527.168C475.944 527.847 475.455 528.684 475.455 529.695C475.455 530.674 475.881 531.448 476.718 532.032C477.777 532.759 479.719 533.106 482.531 533.106Z" fill="#C00000"/>
<path d="M491.123 520.628H488.722V518.227H491.123V520.628Z" fill="#C00000"/>
<path d="M481.709 511.823C481.378 512.708 480.92 513.371 480.319 513.782C479.735 514.208 479.024 514.414 478.171 514.414C476.908 514.414 475.865 513.971 475.013 513.087C474.128 512.171 473.686 510.939 473.686 509.423C473.686 507.906 474.128 506.706 475.013 505.821C475.897 504.905 476.971 504.432 478.235 504.432C479.04 504.432 479.735 504.653 480.319 505.063C480.92 505.49 481.378 506.122 481.709 506.959C482.057 505.916 482.625 505.111 483.415 504.558C484.173 503.974 485.089 503.673 486.132 503.673C487.648 503.673 488.912 504.21 489.922 505.253C490.933 506.311 491.439 507.701 491.439 509.423C491.439 511.16 490.933 512.55 489.922 513.592C488.88 514.603 487.585 515.109 486.069 515.109C484.979 515.109 484.047 514.84 483.289 514.287C482.499 513.703 481.962 512.882 481.709 511.823ZM478.108 512.266C478.914 512.266 479.593 512.013 480.13 511.507C480.635 510.97 480.888 510.275 480.888 509.423C480.888 508.586 480.635 507.906 480.13 507.401C479.593 506.864 478.961 506.58 478.235 506.58C477.445 506.58 476.782 506.864 476.276 507.401C475.739 507.954 475.455 508.633 475.455 509.423C475.455 510.228 475.708 510.907 476.213 511.444C476.718 511.997 477.35 512.266 478.108 512.266ZM486.132 512.961C486.732 512.961 487.316 512.818 487.901 512.518C488.454 512.234 488.896 511.808 489.227 511.255C489.528 510.67 489.67 510.039 489.67 509.359C489.67 508.349 489.354 507.527 488.722 506.896C488.059 506.232 487.206 505.885 486.195 505.885C485.153 505.885 484.3 506.232 483.668 506.896C483.005 507.575 482.657 508.443 482.657 509.486C482.657 510.465 483.005 511.286 483.668 511.95C484.3 512.629 485.121 512.961 486.132 512.961Z" fill="#C00000"/>
<path d="M482.531 501.62C480.509 501.62 478.866 501.415 477.603 500.988C476.339 500.578 475.376 499.946 474.697 499.093C474.033 498.256 473.686 497.198 473.686 495.934C473.686 495.018 473.875 494.213 474.254 493.533C474.634 492.823 475.186 492.238 475.897 491.764C476.576 491.306 477.445 490.943 478.487 490.69C479.498 490.438 480.856 490.311 482.531 490.311C484.6 490.311 486.258 490.533 487.522 490.943C488.754 491.37 489.717 492.001 490.428 492.838C491.107 493.644 491.439 494.671 491.439 495.934C491.439 497.624 490.839 498.951 489.607 499.914C488.185 501.052 485.816 501.62 482.531 501.62ZM482.531 499.409C485.405 499.409 487.316 499.093 488.28 498.461C489.212 497.798 489.67 496.945 489.67 495.934C489.67 494.971 489.212 494.149 488.28 493.47C487.316 492.807 485.405 492.459 482.531 492.459C479.719 492.459 477.84 492.807 476.908 493.47C475.944 494.149 475.455 494.987 475.455 495.997C475.455 496.977 475.881 497.751 476.718 498.335C477.777 499.061 479.719 499.409 482.531 499.409Z" fill="#C00000"/>
<path d="M491.123 487.563H478.551V485.604H480.319C479.688 485.225 479.182 484.72 478.803 484.088C478.424 483.424 478.235 482.666 478.235 481.813C478.235 480.897 478.456 480.139 478.866 479.539C479.245 478.955 479.782 478.528 480.446 478.275C478.977 477.265 478.235 475.969 478.235 474.358C478.235 473.142 478.598 472.195 479.309 471.515C479.988 470.852 481.046 470.505 482.468 470.505H491.123V472.589H483.226C482.341 472.589 481.709 472.684 481.33 472.842C480.951 472.969 480.667 473.221 480.446 473.6C480.241 473.948 480.13 474.358 480.13 474.864C480.13 475.748 480.43 476.491 481.014 477.075C481.615 477.675 482.531 477.96 483.794 477.96H491.123V480.044H482.973C482.009 480.044 481.299 480.234 480.825 480.613C480.367 480.96 480.13 481.529 480.13 482.319C480.13 482.919 480.304 483.456 480.635 483.961C480.935 484.467 481.378 484.846 481.962 485.099C482.562 485.32 483.447 485.414 484.616 485.414H491.123V487.563Z" fill="#C00000"/>
<path d="M491.123 467.354H478.551V465.396H480.319C479.688 465.017 479.182 464.511 478.803 463.88C478.424 463.216 478.235 462.458 478.235 461.605C478.235 460.689 478.456 459.931 478.866 459.331C479.245 458.746 479.782 458.32 480.446 458.067C478.977 457.056 478.235 455.761 478.235 454.15C478.235 452.934 478.598 451.987 479.309 451.307C479.988 450.644 481.046 450.297 482.468 450.297H491.123V452.381H483.226C482.341 452.381 481.709 452.476 481.33 452.634C480.951 452.76 480.667 453.013 480.446 453.392C480.241 453.74 480.13 454.15 480.13 454.656C480.13 455.54 480.43 456.283 481.014 456.867C481.615 457.467 482.531 457.751 483.794 457.751H491.123V459.836H482.973C482.009 459.836 481.299 460.026 480.825 460.405C480.367 460.752 480.13 461.321 480.13 462.111C480.13 462.711 480.304 463.248 480.635 463.753C480.935 464.259 481.378 464.638 481.962 464.89C482.562 465.112 483.447 465.206 484.616 465.206H491.123V467.354Z" fill="#C00000"/>
<path d="M1342.25 732.818V922.887M585.34 705.541V922.887" stroke="#007AC0" stroke-width="0.756" stroke-miterlimit="10" stroke-linecap="round"/>
<path d="M1052.92 918.307H1331.84" stroke="#007AC0" stroke-width="0.756" stroke-miterlimit="10" stroke-linecap="round"/>
<path fill-rule="evenodd" clip-rule="evenodd" d="M1342.25 918.307L1304.44 912.005V924.609L1342.25 918.307Z" fill="#007AC0"/>
<path d="M905.934 918.307H595.749" stroke="#007AC0" stroke-width="0.756" stroke-miterlimit="10" stroke-linecap="round"/>
<path fill-rule="evenodd" clip-rule="evenodd" d="M585.341 918.307L623.168 924.609V912.005L585.341 918.307Z" fill="#007AC0"/>
<path d="M940.918 913.174L938.833 913.363C938.612 912.526 938.343 911.91 938.012 911.531C937.411 910.947 936.701 910.646 935.864 910.646C935.184 910.646 934.6 910.836 934.095 911.215C933.415 911.689 932.863 912.4 932.452 913.363C932.073 914.295 931.883 915.622 931.883 917.343C932.389 916.585 932.989 916.016 933.716 915.637C934.474 915.258 935.263 915.069 936.116 915.069C937.538 915.069 938.738 915.606 939.717 916.648C940.728 917.659 941.234 919.017 941.234 920.692C941.234 921.797 940.997 922.808 940.539 923.724C940.065 924.656 939.417 925.367 938.58 925.872C937.775 926.378 936.843 926.63 935.8 926.63C934.031 926.63 932.578 925.983 931.441 924.672C930.304 923.377 929.735 921.197 929.735 918.165C929.735 914.848 930.367 912.4 931.631 910.836C932.721 909.541 934.174 908.877 935.99 908.877C937.38 908.877 938.485 909.257 939.338 910.015C940.223 910.773 940.744 911.831 940.918 913.174ZM932.199 920.692C932.199 921.418 932.341 922.113 932.642 922.776C932.973 923.456 933.415 923.977 933.968 924.356C934.553 924.703 935.137 924.861 935.737 924.861C936.653 924.861 937.443 924.514 938.075 923.787C938.707 923.029 939.022 922.05 939.022 920.818C939.022 919.602 938.707 918.654 938.075 917.975C937.443 917.264 936.638 916.901 935.674 916.901C934.695 916.901 933.874 917.264 933.21 917.975C932.531 918.654 932.199 919.554 932.199 920.692Z" fill="#C00000"/>
<path d="M954.406 913.174L952.322 913.363C952.1 912.526 951.832 911.91 951.5 911.531C950.9 910.947 950.189 910.646 949.352 910.646C948.673 910.646 948.089 910.836 947.583 911.215C946.904 911.689 946.351 912.4 945.941 913.363C945.562 914.295 945.372 915.622 945.372 917.343C945.877 916.585 946.478 916.016 947.204 915.637C947.962 915.258 948.752 915.069 949.605 915.069C951.026 915.069 952.227 915.606 953.206 916.648C954.217 917.659 954.722 919.017 954.722 920.692C954.722 921.797 954.485 922.808 954.027 923.724C953.553 924.656 952.906 925.367 952.069 925.872C951.263 926.378 950.331 926.63 949.289 926.63C947.52 926.63 946.067 925.983 944.93 924.672C943.793 923.377 943.224 921.197 943.224 918.165C943.224 914.848 943.856 912.4 945.119 910.836C946.209 909.541 947.662 908.877 949.479 908.877C950.868 908.877 951.974 909.257 952.827 910.015C953.711 910.773 954.233 911.831 954.406 913.174ZM945.688 920.692C945.688 921.418 945.83 922.113 946.13 922.776C946.462 923.456 946.904 923.977 947.457 924.356C948.041 924.703 948.626 924.861 949.226 924.861C950.142 924.861 950.932 924.514 951.563 923.787C952.195 923.029 952.511 922.05 952.511 920.818C952.511 919.602 952.195 918.654 951.563 917.975C950.932 917.264 950.126 916.901 949.163 916.901C948.183 916.901 947.362 917.264 946.699 917.975C946.02 918.654 945.688 919.554 945.688 920.692Z" fill="#C00000"/>
<path d="M958.039 926.315V923.914H960.44V926.315H958.039Z" fill="#C00000"/>
<path d="M963.559 917.722C963.559 915.701 963.764 914.058 964.191 912.794C964.602 911.531 965.233 910.567 966.086 909.888C966.923 909.225 967.981 908.877 969.245 908.877C970.161 908.877 970.967 909.067 971.646 909.446C972.357 909.825 972.941 910.378 973.415 911.089C973.873 911.768 974.236 912.636 974.489 913.679C974.741 914.69 974.868 916.048 974.868 917.722C974.868 919.791 974.647 921.45 974.236 922.713C973.81 923.945 973.178 924.909 972.341 925.619C971.535 926.299 970.509 926.63 969.245 926.63C967.555 926.63 966.228 926.03 965.265 924.798C964.128 923.377 963.559 921.007 963.559 917.722ZM965.77 917.722C965.77 920.597 966.086 922.508 966.718 923.471C967.381 924.403 968.234 924.861 969.245 924.861C970.208 924.861 971.03 924.403 971.709 923.471C972.372 922.508 972.72 920.597 972.72 917.722C972.72 914.911 972.372 913.031 971.709 912.099C971.03 911.136 970.193 910.646 969.182 910.646C968.203 910.646 967.429 911.073 966.844 911.91C966.118 912.968 965.77 914.911 965.77 917.722Z" fill="#C00000"/>
<path d="M983.871 926.315V922.145H976.353V920.187L984.25 908.941H986.019V920.187H988.357V922.145H986.019V926.315H983.871ZM983.871 920.187V912.353L978.438 920.187H983.871Z" fill="#C00000"/>
<path d="M991.105 926.314V913.742H993.063V915.511C993.442 914.879 993.948 914.374 994.58 913.995C995.243 913.616 996.001 913.426 996.854 913.426C997.77 913.426 998.528 913.647 999.128 914.058C999.713 914.437 1000.14 914.974 1000.39 915.637C1001.4 914.169 1002.7 913.426 1004.31 913.426C1005.53 913.426 1006.47 913.79 1007.15 914.5C1007.82 915.179 1008.16 916.238 1008.16 917.659V926.314H1006.08V918.417C1006.08 917.533 1005.98 916.901 1005.83 916.522C1005.7 916.143 1005.45 915.859 1005.07 915.637C1004.72 915.432 1004.31 915.322 1003.8 915.322C1002.92 915.322 1002.18 915.622 1001.59 916.206C1000.99 916.806 1000.71 917.722 1000.71 918.986V926.314H998.623V918.165C998.623 917.201 998.433 916.49 998.054 916.017C997.707 915.559 997.138 915.322 996.349 915.322C995.748 915.322 995.211 915.495 994.706 915.827C994.201 916.127 993.822 916.569 993.569 917.154C993.348 917.754 993.253 918.638 993.253 919.807V926.314H991.105Z" fill="#C00000"/>
<path d="M1011.31 926.314V913.742H1013.27V915.511C1013.65 914.879 1014.16 914.374 1014.79 913.995C1015.45 913.616 1016.21 913.426 1017.06 913.426C1017.98 913.426 1018.74 913.647 1019.34 914.058C1019.92 914.437 1020.35 914.974 1020.6 915.637C1021.61 914.169 1022.91 913.426 1024.52 913.426C1025.73 913.426 1026.68 913.79 1027.36 914.5C1028.02 915.179 1028.37 916.238 1028.37 917.659V926.314H1026.29V918.417C1026.29 917.533 1026.19 916.901 1026.03 916.522C1025.91 916.143 1025.65 915.859 1025.28 915.637C1024.93 915.432 1024.52 915.322 1024.01 915.322C1023.13 915.322 1022.39 915.622 1021.8 916.206C1021.2 916.806 1020.92 917.722 1020.92 918.986V926.314H1018.83V918.165C1018.83 917.201 1018.64 916.49 1018.26 916.017C1017.92 915.559 1017.35 915.322 1016.56 915.322C1015.96 915.322 1015.42 915.495 1014.91 915.827C1014.41 916.127 1014.03 916.569 1013.78 917.154C1013.56 917.754 1013.46 918.638 1013.46 919.807V926.314H1011.31Z" fill="#C00000"/>
</svg>
