<svg xmlns="http://www.w3.org/2000/svg" width="1920" height="1080" fill="none" viewBox="0 0 1920 1080"><path fill="#fff" fill-rule="evenodd" stroke="#000" stroke-linecap="round" stroke-miterlimit="10" stroke-width="1.889" d="M596.807 204.23H1324.8l17.45 17.453v126.26l.02.11v4.644l29.11 29.109v375.542l-29.11 29.108v4.644l-.02.111v13.409l-.03.49v.015l-.06.474v.016l-.07.49h-.01l-.1.489-.11.474v.016l-.14.474-.16.474-.19.458v.015l-.19.443-.01.015-.21.443h-.01l-.24.426v.016l-.25.411v.015l-.29.411-.28.395-.02.016-.3.379-.01.015-.32.364-.35.363-.36.348-.36.331h-.02l-.38.3-.01.016-.4.284-.41.285h-.01l-.41.252-.02.016-.43.221v.016l-.44.205-.02.016-.44.19h-.01l-.46.189-.48.158-.47.142h-.01l-.48.111-.49.095v.015l-.49.064h-.01l-.49.063-.49.031H596.302l-.49-.031h-.016l-.473-.063h-.016l-.49-.064v-.015l-.489-.095-.49-.111-.474-.142h-.016l-.458-.158h-.016l-.442-.189h-.016l-.442-.19-.016-.016-.442-.205v-.016l-.442-.221v-.016l-.427-.252-.821-.569v-.016l-.379-.3h-.016l-.363-.331h-.016l-.347-.348-.348-.363-.331-.364v-.015l-.316-.379v-.016l-.285-.395h-.015l-.269-.411-.253-.426-.015-.016-.237-.426-.221-.443v-.015l-.19-.443-.016-.015-.174-.458-.157-.474-.143-.474v-.016l-.11-.474h-.016l-.095-.489-.063-.49-.016-.016-.047-.489-.032-.49v-.016l-.015-.426v-588.56l.015-.427v-.016l.032-.489v-.016l.047-.474.016-.016.063-.489.095-.49h.016l.11-.474v-.016l.143-.473.157-.474.174-.458.016-.016.19-.442v-.016l.221-.442.237-.427.015-.016.253-.426.269-.411h.015l.285-.395v-.015l.316-.379v-.016l.331-.363.348-.364.347-.347h.016l.363-.332h.016l.379-.3v-.016l.395-.284.016-.016.41-.268.427-.253v-.016l.442-.221v-.016l.442-.205.016-.016.442-.189.016-.016.442-.174h.016l.458-.158h.016l.474-.142h.016l.474-.111v-.015l.489-.095.49-.063h.016l.473-.064h.016l.49-.031h.016l.426-.016z" clip-rule="evenodd"/><path fill="#fff" fill-rule="evenodd" stroke="#000" stroke-linecap="round" stroke-miterlimit="10" stroke-width=".756" d="M762.648 786.456c0-9.492-7.692-17.184-17.185-17.184s-17.2 7.692-17.2 17.184 7.708 17.2 17.2 17.2c9.493 0 17.185-7.708 17.185-17.2ZM1359.45 408.008a17.17 17.17 0 0 0-5.04-12.161 17.17 17.17 0 0 0-24.3 0 17.17 17.17 0 0 0 0 24.307 17.12 17.12 0 0 0 12.16 5.038c4.55 0 8.92-1.8 12.14-5.038a17.16 17.16 0 0 0 5.04-12.146ZM1359.45 728.238c0-4.564-1.81-8.939-5.04-12.162a17.17 17.17 0 0 0-12.14-5.038c-4.57 0-8.94 1.816-12.16 5.038a17.18 17.18 0 0 0-5.04 12.162c0 4.565 1.81 8.94 5.04 12.162a17.17 17.17 0 0 0 12.16 5.022c4.55 0 8.92-1.8 12.14-5.022a17.17 17.17 0 0 0 5.04-12.162ZM777.21 233.339a17.203 17.203 0 0 0-17.184-17.2 17.203 17.203 0 0 0-17.2 17.2 17.203 17.203 0 0 0 17.2 17.184c4.549 0 8.924-1.816 12.146-5.038a17.2 17.2 0 0 0 5.038-12.146Z" clip-rule="evenodd"/><path fill="#000" d="m594.059 186.869-6.697-17.374h2.464l4.548 12.636c.332 1.01.632 1.958.885 2.843q.379-1.445.948-2.843l4.675-12.636h2.337l-6.76 17.374zM605.035 171.959v-2.464h2.085v2.464zm0 14.91v-12.572h2.085v12.572zM619.013 182.825l2.211.253c-.379 1.311-1.042 2.322-1.958 3.032-.932.727-2.132 1.074-3.601 1.074-1.864 0-3.333-.568-4.423-1.705-1.058-1.138-1.579-2.733-1.579-4.802 0-2.101.537-3.743 1.642-4.928 1.09-1.169 2.496-1.769 4.233-1.769 1.675 0 3.049.6 4.107 1.769 1.09 1.137 1.642 2.748 1.642 4.802 0 .126-.031.316-.063.568h-9.35q.119 2.085 1.137 3.222c.711.727 1.595 1.074 2.654 1.074.789 0 1.469-.205 2.021-.631.537-.411.98-1.074 1.327-1.959M612 179.35h7.013c-.095-1.042-.363-1.832-.821-2.337-.679-.837-1.564-1.264-2.654-1.264-.979 0-1.8.348-2.464 1.011-.631.632-.995 1.501-1.074 2.59M626.184 186.869l-3.854-12.573h2.211l2.022 7.266.758 2.716c0-.158.206-1.042.632-2.653l2.022-7.329h2.148l1.895 7.266.632 2.401.695-2.401 2.211-7.266h2.022l-3.917 12.573h-2.212l-2.021-7.518-.443-2.148-2.59 9.666zM648.588 186.869v-10.93h-1.832v-1.643h1.832v-1.326c0-.837.079-1.469.252-1.896.206-.537.569-.979 1.074-1.326.506-.379 1.232-.569 2.212-.569.584 0 1.232.095 1.958.253l-.316 1.832a8 8 0 0 0-1.263-.126c-.632 0-1.106.157-1.39.442q-.38.379-.379 1.516v1.2h2.464v1.643h-2.464v10.93zM654.802 186.868v-12.572h1.896v1.895c.505-.884.963-1.468 1.39-1.768.41-.285.852-.443 1.326-.443.758 0 1.485.237 2.212.695l-.695 2.022c-.553-.332-1.074-.506-1.58-.506-.474 0-.884.158-1.263.443-.379.3-.664.679-.822 1.137-.221.758-.316 1.611-.316 2.527v6.57zM662.123 180.551c0-2.306.647-4.044 1.958-5.181 1.043-.916 2.354-1.39 3.917-1.39 1.722 0 3.128.569 4.233 1.706 1.09 1.137 1.643 2.717 1.643 4.738q0 2.417-.758 3.791a5.3 5.3 0 0 1-2.085 2.211 6.26 6.26 0 0 1-3.033.758c-1.769 0-3.206-.568-4.296-1.705-1.058-1.138-1.579-2.78-1.579-4.928m2.148 0c0 1.642.347 2.874 1.074 3.664.711.806 1.595 1.2 2.653 1.2 1.043 0 1.927-.394 2.654-1.2.71-.837 1.074-2.085 1.074-3.727 0-1.548-.364-2.733-1.074-3.538-.727-.79-1.611-1.201-2.654-1.201-1.058 0-1.942.411-2.653 1.201-.727.805-1.074 2.006-1.074 3.601M676.37 186.868v-12.572h1.958v1.769a4.35 4.35 0 0 1 1.516-1.516q.996-.569 2.275-.569c.916 0 1.674.221 2.274.632a3.2 3.2 0 0 1 1.264 1.579c1.01-1.468 2.306-2.211 3.917-2.211 1.216 0 2.163.364 2.843 1.074.663.679 1.01 1.738 1.01 3.159v8.655h-2.084v-7.897c0-.884-.095-1.516-.253-1.895-.127-.379-.379-.663-.758-.885-.348-.205-.758-.315-1.264-.315-.884 0-1.627.3-2.211.884-.6.6-.885 1.516-.885 2.78v7.328h-2.084v-8.149c0-.964-.19-1.675-.569-2.148-.347-.458-.916-.695-1.706-.695-.6 0-1.137.173-1.642.505q-.759.45-1.138 1.327c-.221.6-.315 1.484-.315 2.653v6.507zM708.036 186.869V171.58h-5.749v-2.085h13.773v2.085h-5.749v15.289zM717.339 180.551c0-2.306.647-4.044 1.958-5.181 1.043-.916 2.354-1.39 3.917-1.39 1.722 0 3.128.569 4.233 1.706 1.09 1.137 1.643 2.717 1.643 4.738q0 2.417-.758 3.791a5.3 5.3 0 0 1-2.085 2.211 6.26 6.26 0 0 1-3.033.758c-1.769 0-3.206-.568-4.296-1.705-1.058-1.138-1.579-2.78-1.579-4.928m2.148 0c0 1.642.347 2.874 1.074 3.664.711.806 1.595 1.2 2.653 1.2 1.043 0 1.927-.394 2.654-1.2.71-.837 1.074-2.085 1.074-3.727 0-1.548-.364-2.733-1.074-3.538-.727-.79-1.611-1.201-2.654-1.201-1.058 0-1.942.411-2.653 1.201-.727.805-1.074 2.006-1.074 3.601M731.586 191.67v-17.374h1.958v1.643c.458-.632.963-1.106 1.516-1.453.585-.332 1.295-.506 2.148-.506 1.043 0 1.975.3 2.78.885.837.553 1.469 1.326 1.895 2.337.411.98.632 2.069.632 3.286 0 1.263-.237 2.432-.695 3.474-.474 1.011-1.137 1.817-2.021 2.401-.885.537-1.817.821-2.78.821a4.3 4.3 0 0 1-1.896-.442 5.1 5.1 0 0 1-1.389-1.2v6.128zm1.958-10.993q0 2.416.948 3.601c.663.758 1.469 1.137 2.4 1.137.964 0 1.785-.394 2.464-1.2.664-.79 1.011-2.037 1.011-3.727 0-1.596-.347-2.796-1.011-3.602-.679-.789-1.453-1.2-2.337-1.2-.932 0-1.753.427-2.464 1.264-.679.853-1.011 2.084-1.011 3.727M750.973 183.141l2.085-.379c.126.853.458 1.5 1.011 1.958.537.474 1.295.695 2.274.695.963 0 1.674-.189 2.148-.568.505-.411.758-.9.758-1.453 0-.458-.221-.837-.632-1.137-.3-.158-1.042-.395-2.211-.695-1.563-.411-2.653-.759-3.285-1.011a3.35 3.35 0 0 1-1.39-1.201 3.43 3.43 0 0 1-.442-1.705c0-.585.126-1.106.379-1.58a4.8 4.8 0 0 1 1.074-1.2c.332-.253.774-.458 1.327-.632a7.2 7.2 0 0 1 1.895-.253c.963 0 1.832.158 2.59.443.758.3 1.295.694 1.643 1.2q.569.71.758 1.895l-2.085.316c-.126-.663-.426-1.169-.884-1.516q-.64-.569-1.896-.569c-.979 0-1.674.174-2.085.506-.426.3-.631.679-.631 1.137 0 .253.079.505.252.758.158.221.443.411.822.569.205.047.837.221 1.895.505 1.516.426 2.559.758 3.159 1.011a3.2 3.2 0 0 1 1.39 1.137c.331.474.505 1.058.505 1.769 0 .727-.221 1.39-.632 2.022-.379.631-.979 1.137-1.769 1.516a6.9 6.9 0 0 1-2.653.505c-1.643 0-2.906-.331-3.791-1.01-.853-.711-1.374-1.722-1.579-3.033M763.987 171.959v-2.464h2.085v2.464zm0 14.91v-12.572h2.085v12.572zM777.523 186.869v-1.579c-.805 1.263-1.99 1.895-3.538 1.895a5.07 5.07 0 0 1-2.78-.821c-.853-.585-1.5-1.359-1.958-2.338-.474-1.011-.695-2.148-.695-3.412s.205-2.4.632-3.411c.41-1.043 1.042-1.848 1.895-2.401a5.07 5.07 0 0 1 2.78-.821c.758 0 1.421.174 2.022.505.584.348 1.074.758 1.453 1.264v-6.255h2.148v17.374zm-6.76-6.255c0 1.611.332 2.812 1.011 3.601.663.806 1.469 1.201 2.401 1.201.916 0 1.706-.379 2.337-1.137.664-.758 1.011-1.927 1.011-3.538 0-1.674-.347-2.922-1.011-3.728-.631-.837-1.437-1.263-2.4-1.263-.98 0-1.769.41-2.401 1.2-.632.758-.948 1.99-.948 3.664M791.454 182.825l2.211.253c-.379 1.311-1.042 2.322-1.958 3.032-.932.727-2.133 1.074-3.601 1.074-1.864 0-3.333-.568-4.423-1.705-1.058-1.138-1.579-2.733-1.579-4.802 0-2.101.537-3.743 1.642-4.928 1.09-1.169 2.496-1.769 4.233-1.769 1.674 0 3.048.6 4.107 1.769 1.089 1.137 1.642 2.748 1.642 4.802 0 .126-.031.316-.063.568h-9.35q.118 2.085 1.137 3.222c.711.727 1.595 1.074 2.654 1.074.789 0 1.468-.205 2.021-.631.537-.411.979-1.074 1.327-1.959m-7.013-3.475h7.013c-.095-1.042-.363-1.832-.821-2.337-.68-.837-1.564-1.264-2.654-1.264-.979 0-1.8.348-2.464 1.011-.632.632-.995 1.501-1.074 2.59"/><path stroke="#007ac0" stroke-linecap="round" stroke-miterlimit="10" stroke-width=".756" d="M592.227 815.566H407.844M592.227 204.23H407.844M412.424 566.915v238.242"/><path fill="#007ac0" fill-rule="evenodd" d="m412.424 815.566 6.302-37.812h-12.604z" clip-rule="evenodd"/><path stroke="#007ac0" stroke-linecap="round" stroke-miterlimit="10" stroke-width=".756" d="M412.424 419.933V214.638"/><path fill="#007ac0" fill-rule="evenodd" d="m412.424 204.23-6.302 37.812h12.604z" clip-rule="evenodd"/><path fill="#c00000" d="m415.888 542.976-.189-2.211q1.658-.237 2.464-1.137c.552-.632.821-1.359.821-2.212 0-1.042-.379-1.911-1.137-2.59-.79-.711-1.832-1.074-3.096-1.074-1.216 0-2.164.348-2.843 1.011-.711.679-1.074 1.564-1.074 2.653 0 .727.158 1.359.442 1.896.3.552.695.979 1.201 1.263l-.253 2.022-8.908-1.706v-8.592h2.022v6.886l4.675.948c-.711-1.042-1.074-2.148-1.074-3.285 0-1.517.537-2.78 1.579-3.791 1.058-1.042 2.401-1.579 4.043-1.579 1.564 0 2.907.473 4.044 1.39 1.437 1.105 2.148 2.621 2.148 4.548 0 1.564-.442 2.843-1.327 3.854-.884 1.011-2.053 1.58-3.538 1.706M415.825 529.488l-.253-2.149c1.232-.252 2.117-.663 2.654-1.263.505-.584.758-1.295.758-2.148 0-1.011-.332-1.848-1.011-2.527-.711-.664-1.579-1.011-2.59-1.011q-1.516 0-2.464.948c-.632.631-.948 1.437-.948 2.4 0 .427.095.932.253 1.517l-1.895-.19c.047-.158.063-.284.063-.379 0-.884-.221-1.674-.695-2.401-.506-.758-1.232-1.137-2.211-1.137-.79 0-1.453.284-1.959.821-.505.506-.758 1.185-.758 2.022q0 1.28.758 2.085c.506.553 1.295.916 2.338 1.074l-.379 2.085c-1.422-.253-2.528-.837-3.286-1.769-.789-.916-1.2-2.053-1.2-3.412 0-.963.221-1.848.632-2.653.379-.79.932-1.406 1.642-1.832.727-.411 1.453-.632 2.212-.632.758 0 1.453.221 2.084.632.601.379 1.074.979 1.454 1.769.252-1.011.758-1.785 1.516-2.338.726-.584 1.642-.884 2.78-.884 1.516 0 2.811.552 3.853 1.642 1.059 1.106 1.58 2.496 1.58 4.17 0 1.564-.442 2.843-1.327 3.854q-1.374 1.469-3.601 1.706M420.437 514.798h-2.401v-2.401h2.401zM415.825 509.279l-.253-2.148c1.232-.253 2.117-.664 2.654-1.264.505-.584.758-1.295.758-2.148 0-1.011-.332-1.848-1.011-2.527-.711-.663-1.579-1.011-2.59-1.011q-1.516 0-2.464.948c-.632.632-.948 1.437-.948 2.401 0 .426.095.931.253 1.516l-1.895-.19c.047-.158.063-.284.063-.379 0-.884-.221-1.674-.695-2.401-.506-.758-1.232-1.137-2.211-1.137-.79 0-1.453.285-1.959.822-.505.505-.758 1.184-.758 2.021q0 1.28.758 2.085c.506.553 1.295.916 2.338 1.074l-.379 2.085c-1.422-.253-2.528-.837-3.286-1.769-.789-.916-1.2-2.053-1.2-3.412 0-.963.221-1.848.632-2.653.379-.79.932-1.406 1.642-1.832.727-.411 1.453-.632 2.212-.632.758 0 1.453.221 2.084.632.601.379 1.074.979 1.454 1.769.252-1.011.758-1.785 1.516-2.338.726-.584 1.642-.884 2.78-.884 1.516 0 2.811.553 3.853 1.642 1.059 1.106 1.58 2.496 1.58 4.17 0 1.564-.442 2.843-1.327 3.854q-1.374 1.469-3.601 1.706M420.437 488.967h-4.17v7.518h-1.958l-11.246-7.897v-1.769h11.246v-2.338h1.958v2.338h4.17zm-6.128 0h-7.834l7.834 5.433zM420.437 481.733h-12.572v-1.959h1.769a4.35 4.35 0 0 1-1.517-1.516q-.568-.995-.568-2.274c0-.916.221-1.674.632-2.275a3.2 3.2 0 0 1 1.579-1.263c-1.469-1.011-2.211-2.306-2.211-3.917 0-1.216.363-2.164 1.074-2.843.679-.663 1.737-1.011 3.159-1.011h8.655v2.085h-7.897c-.885 0-1.516.095-1.896.253-.379.126-.663.379-.884.758-.205.347-.316.758-.316 1.263 0 .885.3 1.627.885 2.211.6.601 1.516.885 2.779.885h7.329v2.085h-8.15c-.963 0-1.674.189-2.148.568-.458.348-.695.916-.695 1.706 0 .6.174 1.137.506 1.643q.45.757 1.326 1.137c.6.221 1.485.316 2.654.316h6.507zM420.437 461.524h-12.572v-1.958h1.769a4.36 4.36 0 0 1-1.517-1.517q-.568-.995-.568-2.274c0-.916.221-1.674.632-2.274a3.2 3.2 0 0 1 1.579-1.264c-1.469-1.011-2.211-2.306-2.211-3.917 0-1.216.363-2.164 1.074-2.843.679-.663 1.737-1.011 3.159-1.011h8.655v2.085h-7.897c-.885 0-1.516.095-1.896.253-.379.126-.663.379-.884.758-.205.347-.316.758-.316 1.263 0 .885.3 1.627.885 2.212.6.6 1.516.884 2.779.884h7.329v2.085h-8.15c-.963 0-1.674.189-2.148.569-.458.347-.695.916-.695 1.705 0 .601.174 1.138.506 1.643q.45.758 1.326 1.137c.6.221 1.485.316 2.654.316h6.507z"/><path stroke="#007ac0" stroke-linecap="round" stroke-miterlimit="10" stroke-width=".756" d="M585.341 282.586V111.833m756.909 168.399V111.833M913.01 116.429H595.765"/><path fill="#007ac0" fill-rule="evenodd" d="m585.341 116.429 37.827 6.302v-12.604z" clip-rule="evenodd"/><path stroke="#007ac0" stroke-linecap="round" stroke-miterlimit="10" stroke-width=".756" d="M1059.99 116.429h271.85"/><path fill="#007ac0" fill-rule="evenodd" d="m1342.25 116.429-37.81-6.302v12.604z" clip-rule="evenodd"/><path fill="#c00000" d="m947.996 111.296-2.085.19c-.221-.838-.49-1.453-.822-1.833-.6-.584-1.31-.884-2.148-.884-.679 0-1.263.189-1.769.569-.679.473-1.231 1.184-1.642 2.148q-.569 1.397-.569 3.98c.506-.758 1.106-1.327 1.832-1.706a5.3 5.3 0 0 1 2.401-.569c1.422 0 2.622.537 3.601 1.58 1.011 1.011 1.517 2.369 1.517 4.043a6.7 6.7 0 0 1-.695 3.033c-.474.932-1.122 1.642-1.959 2.148-.805.505-1.737.758-2.78.758-1.769 0-3.222-.648-4.359-1.959-1.137-1.295-1.706-3.474-1.706-6.507 0-3.317.632-5.765 1.896-7.329 1.089-1.295 2.542-1.958 4.359-1.958 1.39 0 2.495.379 3.348 1.137.885.758 1.406 1.817 1.58 3.159m-8.719 7.518c0 .727.142 1.422.442 2.085.332.679.774 1.2 1.327 1.579.585.348 1.169.506 1.769.506.916 0 1.706-.348 2.338-1.074.631-.758.947-1.738.947-2.969q0-1.825-.947-2.843c-.632-.711-1.438-1.074-2.401-1.074-.979 0-1.801.363-2.464 1.074-.679.679-1.011 1.579-1.011 2.716M961.484 111.296l-2.085.19c-.221-.837-.489-1.453-.821-1.832-.6-.585-1.311-.885-2.148-.885-.679 0-1.263.19-1.769.569-.679.473-1.232 1.184-1.642 2.148q-.57 1.397-.569 3.98c.505-.758 1.106-1.327 1.832-1.706a5.3 5.3 0 0 1 2.401-.569c1.421 0 2.622.537 3.601 1.58 1.011 1.011 1.516 2.369 1.516 4.043a6.7 6.7 0 0 1-.695 3.033c-.474.932-1.121 1.642-1.958 2.148-.806.505-1.738.758-2.78.758-1.769 0-3.222-.648-4.359-1.959-1.138-1.295-1.706-3.474-1.706-6.507 0-3.317.632-5.765 1.895-7.328 1.09-1.296 2.543-1.959 4.359-1.959 1.39 0 2.496.379 3.349 1.137.884.758 1.406 1.817 1.579 3.159m-8.718 7.518c0 .727.142 1.422.442 2.085.332.679.774 1.2 1.327 1.58a3.4 3.4 0 0 0 1.769.505c.916 0 1.706-.348 2.337-1.074.632-.758.948-1.737.948-2.969q0-1.825-.948-2.843c-.631-.711-1.437-1.074-2.4-1.074-.98 0-1.801.363-2.464 1.074-.68.679-1.011 1.579-1.011 2.716M965.117 124.437v-2.4h2.401v2.4zM970.637 115.845c0-2.022.205-3.664.632-4.928.41-1.263 1.042-2.227 1.895-2.906.837-.663 1.895-1.011 3.159-1.011.916 0 1.722.19 2.401.569.71.379 1.295.932 1.769 1.642.458.679.821 1.548 1.074 2.591.252 1.01.379 2.369.379 4.043 0 2.069-.221 3.727-.632 4.991-.427 1.232-1.058 2.195-1.895 2.906-.806.679-1.833 1.011-3.096 1.011-1.69 0-3.017-.6-3.98-1.832-1.137-1.422-1.706-3.791-1.706-7.076m2.211 0c0 2.874.316 4.786.948 5.749.663.932 1.516 1.39 2.527 1.39.963 0 1.785-.458 2.464-1.39.663-.963 1.011-2.875 1.011-5.749 0-2.812-.348-4.691-1.011-5.623-.679-.963-1.516-1.453-2.527-1.453-.98 0-1.753.426-2.338 1.264-.726 1.058-1.074 3-1.074 5.812M990.949 124.437v-4.169h-7.518v-1.959l7.897-11.245h1.769v11.245h2.337v1.959h-2.337v4.169zm0-6.128v-7.834l-5.433 7.834zM998.183 124.437v-12.572h1.957v1.769c.38-.632.89-1.138 1.52-1.517.66-.379 1.42-.568 2.27-.568.92 0 1.68.221 2.28.632.58.379 1.01.916 1.26 1.579 1.01-1.469 2.31-2.211 3.92-2.211 1.21 0 2.16.363 2.84 1.074.66.679 1.01 1.737 1.01 3.159v8.655h-2.08v-7.897c0-.885-.1-1.516-.26-1.895-.12-.38-.38-.664-.76-.885-.34-.205-.75-.316-1.26-.316-.88 0-1.63.3-2.21.885-.6.6-.88 1.516-.88 2.779v7.329h-2.09v-8.15c0-.963-.19-1.674-.57-2.148-.35-.458-.91-.695-1.7-.695-.6 0-1.14.174-1.65.506-.5.3-.88.742-1.13 1.326-.22.6-.32 1.485-.32 2.654v6.507zM1018.39 124.437v-12.572h1.96v1.769c.38-.632.88-1.138 1.52-1.517.66-.379 1.42-.568 2.27-.568.92 0 1.67.221 2.27.632.59.379 1.02.916 1.27 1.579 1.01-1.469 2.3-2.211 3.92-2.211 1.21 0 2.16.363 2.84 1.074.66.679 1.01 1.737 1.01 3.159v8.655h-2.09v-7.897c0-.885-.09-1.516-.25-1.895-.12-.38-.38-.664-.76-.885-.34-.205-.75-.316-1.26-.316-.88 0-1.63.3-2.21.885-.6.6-.89 1.516-.89 2.779v7.329h-2.08v-8.15c0-.963-.19-1.674-.57-2.148-.35-.458-.92-.695-1.7-.695-.61 0-1.14.174-1.65.506-.5.3-.88.742-1.13 1.326-.23.6-.32 1.485-.32 2.654v6.507z"/><path stroke="#007ac0" stroke-linecap="round" stroke-miterlimit="10" stroke-width=".756" d="M585.341 557.312v411.853m786.039-395.001v395.001M901.543 964.569H595.765"/><path fill="#007ac0" fill-rule="evenodd" d="m585.341 964.569 37.827 6.302v-12.604z" clip-rule="evenodd"/><path stroke="#007ac0" stroke-linecap="round" stroke-miterlimit="10" stroke-width=".756" d="M1048.53 964.569h312.44"/><path fill="#007ac0" fill-rule="evenodd" d="m1371.38 964.569-37.83-6.302v12.604z" clip-rule="evenodd"/><path fill="#c00000" d="m936.535 959.444-2.085.19c-.221-.837-.49-1.453-.821-1.832-.6-.585-1.311-.885-2.148-.885-.679 0-1.264.19-1.769.569-.679.474-1.232 1.185-1.643 2.148q-.568 1.398-.568 3.98c.505-.758 1.105-1.327 1.832-1.706a5.26 5.26 0 0 1 2.4-.568c1.422 0 2.622.537 3.601 1.579 1.011 1.011 1.517 2.369 1.517 4.044a6.7 6.7 0 0 1-.695 3.032c-.474.932-1.122 1.643-1.959 2.148-.805.506-1.737.758-2.779.758-1.769 0-3.223-.647-4.36-1.958-1.137-1.295-1.706-3.475-1.706-6.507 0-3.317.632-5.765 1.896-7.329 1.09-1.295 2.543-1.959 4.359-1.959 1.39 0 2.496.38 3.348 1.138.885.758 1.406 1.816 1.58 3.158m-8.719 7.519c0 .726.143 1.421.443 2.084.331.68.774 1.201 1.326 1.58.585.347 1.169.505 1.769.505.916 0 1.706-.347 2.338-1.074.632-.758.948-1.737.948-2.969q0-1.824-.948-2.843c-.632-.711-1.437-1.074-2.401-1.074-.979 0-1.8.363-2.464 1.074-.679.679-1.011 1.579-1.011 2.717M942.253 963.172c-.885-.332-1.548-.79-1.959-1.39-.426-.584-.632-1.295-.632-2.148 0-1.264.443-2.306 1.327-3.159.916-.884 2.148-1.327 3.664-1.327q2.275 0 3.601 1.327c.916.885 1.39 1.959 1.39 3.222 0 .806-.221 1.501-.631 2.085-.427.6-1.059 1.058-1.896 1.39 1.043.347 1.848.916 2.401 1.706.584.758.884 1.674.884 2.716 0 1.517-.537 2.78-1.579 3.791q-1.587 1.516-4.17 1.516-2.606 0-4.169-1.516c-1.011-1.042-1.517-2.338-1.517-3.854 0-1.09.269-2.021.822-2.78.584-.789 1.405-1.326 2.464-1.579m-.443-3.601c0 .805.253 1.485.758 2.022q.805.758 2.085.758c.837 0 1.517-.253 2.022-.758.537-.537.821-1.169.821-1.896 0-.79-.284-1.453-.821-1.958a2.82 2.82 0 0 0-2.022-.822c-.805 0-1.484.253-2.021.759-.553.505-.822 1.137-.822 1.895m-.695 8.023c0 .601.143 1.185.443 1.769.284.553.71.995 1.263 1.327.585.3 1.216.442 1.895.442q1.517 0 2.464-.947c.664-.664 1.011-1.517 1.011-2.527 0-1.043-.347-1.896-1.011-2.528-.679-.663-1.547-1.01-2.59-1.01-.979 0-1.8.347-2.464 1.01-.679.632-1.011 1.454-1.011 2.464M953.656 972.586v-2.401h2.401v2.401zM959.176 968.037l2.211-.19q.237 1.659 1.138 2.464c.631.553 1.358.822 2.211.822 1.042 0 1.911-.379 2.59-1.138.711-.789 1.074-1.832 1.074-3.095 0-1.216-.347-2.164-1.011-2.843-.679-.711-1.563-1.074-2.653-1.074-.727 0-1.359.158-1.896.442-.552.3-.979.695-1.263 1.2l-2.022-.252 1.706-8.908h8.592v2.021h-6.886l-.948 4.675c1.043-.71 2.148-1.074 3.285-1.074 1.517 0 2.78.537 3.791 1.58 1.042 1.058 1.579 2.401 1.579 4.043 0 1.564-.473 2.906-1.389 4.044-1.106 1.437-2.622 2.148-4.549 2.148-1.564 0-2.843-.443-3.854-1.327-1.011-.885-1.579-2.053-1.706-3.538M975.95 963.172c-.884-.332-1.548-.79-1.958-1.39-.427-.584-.632-1.295-.632-2.148 0-1.264.442-2.306 1.326-3.159.917-.884 2.148-1.327 3.665-1.327q2.274 0 3.601 1.327c.916.885 1.39 1.959 1.39 3.222 0 .806-.221 1.501-.632 2.085-.426.6-1.058 1.058-1.895 1.39 1.042.347 1.848.916 2.4 1.706.585.758.885 1.674.885 2.716 0 1.517-.537 2.78-1.58 3.791q-1.587 1.516-4.169 1.516-2.607 0-4.17-1.516c-1.011-1.042-1.516-2.338-1.516-3.854 0-1.09.268-2.021.821-2.78.584-.789 1.406-1.326 2.464-1.579m-.442-3.601c0 .805.252 1.485.758 2.022q.805.758 2.085.758c.837 0 1.516-.253 2.021-.758.537-.537.822-1.169.822-1.896 0-.79-.285-1.453-.822-1.958a2.81 2.81 0 0 0-2.021-.822c-.806 0-1.485.253-2.022.759-.553.505-.821 1.137-.821 1.895m-.695 8.023c0 .601.142 1.185.442 1.769a3.3 3.3 0 0 0 1.264 1.327c.584.3 1.216.442 1.895.442q1.516 0 2.464-.947c.663-.664 1.011-1.517 1.011-2.527 0-1.043-.348-1.896-1.011-2.528-.679-.663-1.548-1.01-2.59-1.01-.98 0-1.801.347-2.464 1.01-.679.632-1.011 1.454-1.011 2.464M986.722 972.585v-12.572h1.958v1.769a4.36 4.36 0 0 1 1.517-1.516q.995-.569 2.274-.569c.916 0 1.674.221 2.275.632.584.379 1.01.916 1.263 1.579 1.011-1.468 2.306-2.211 3.917-2.211 1.214 0 2.164.364 2.844 1.074.66.679 1.01 1.738 1.01 3.159v8.655h-2.08v-7.897c0-.884-.1-1.516-.26-1.895-.12-.379-.38-.663-.76-.885-.34-.205-.754-.315-1.259-.315-.885 0-1.627.3-2.212.884-.6.6-.884 1.516-.884 2.78v7.328h-2.085v-8.149c0-.964-.189-1.675-.569-2.148-.347-.458-.916-.695-1.705-.695-.6 0-1.137.173-1.643.505q-.758.45-1.137 1.327c-.221.6-.316 1.484-.316 2.653v6.507zM1006.93 972.585v-12.572h1.96v1.769c.38-.632.88-1.137 1.52-1.516.66-.379 1.42-.569 2.27-.569.92 0 1.67.221 2.27.632.59.379 1.01.916 1.27 1.579 1.01-1.468 2.3-2.211 3.91-2.211 1.22 0 2.17.364 2.85 1.074.66.679 1.01 1.738 1.01 3.159v8.655h-2.09v-7.897c0-.884-.09-1.516-.25-1.895-.13-.379-.38-.663-.76-.885-.34-.205-.76-.315-1.26-.315-.89 0-1.63.3-2.21.884-.6.6-.89 1.516-.89 2.78v7.328h-2.08v-8.149c0-.964-.19-1.675-.57-2.148-.35-.458-.92-.695-1.71-.695-.6 0-1.13.173-1.64.505q-.75.45-1.14 1.327c-.22.6-.31 1.484-.31 2.653v6.507z"/><path stroke="#007ac0" stroke-linecap="round" stroke-miterlimit="10" stroke-width=".756" d="M1273.03 345.652h-116.61"/><path fill="#c00000" d="M1158.31 339.718v-17.374h7.71c1.55 0 2.73.174 3.54.505.78.301 1.42.853 1.89 1.643.51.758.76 1.627.76 2.59 0 1.232-.41 2.259-1.2 3.096-.81.853-2.02 1.39-3.67 1.643.59.3 1.03.6 1.33.884.66.6 1.33 1.358 1.96 2.274l2.97 4.739h-2.84l-2.34-3.601a52 52 0 0 0-1.64-2.401c-.43-.537-.83-.916-1.21-1.137a3 3 0 0 0-1.01-.506c-.25-.031-.68-.063-1.26-.063h-2.65v7.708zm2.34-9.73h4.92c1.05 0 1.87-.094 2.47-.315.58-.206 1.03-.537 1.33-1.011.28-.506.44-1.027.44-1.58 0-.789-.3-1.469-.89-2.021-.6-.537-1.51-.822-2.78-.822h-5.49zM1182.96 339.717h-2.14v-13.583c-.51.506-1.19 1.011-2.03 1.516-.8.474-1.54.822-2.21 1.074v-2.084a12.2 12.2 0 0 0 3.1-2.022c.92-.79 1.55-1.58 1.89-2.338h1.39zM1189.63 339.718v-2.401h2.4v2.401zM1206.21 326.576l-2.09.19c-.22-.837-.49-1.453-.82-1.832-.6-.585-1.31-.885-2.15-.885-.68 0-1.26.19-1.77.569-.68.474-1.23 1.184-1.64 2.148q-.57 1.397-.57 3.98c.51-.758 1.11-1.327 1.83-1.706a5.3 5.3 0 0 1 2.4-.568c1.43 0 2.63.537 3.61 1.579 1.01 1.011 1.51 2.369 1.51 4.043 0 1.106-.24 2.117-.69 3.033-.48.932-1.12 1.643-1.96 2.148-.81.505-1.74.758-2.78.758-1.77 0-3.22-.647-4.36-1.958-1.14-1.296-1.71-3.475-1.71-6.508 0-3.316.64-5.765 1.9-7.328 1.09-1.295 2.54-1.959 4.36-1.959 1.39 0 2.49.379 3.35 1.137.88.759 1.4 1.817 1.58 3.159m-8.72 7.518c0 .727.14 1.422.44 2.085.33.679.77 1.201 1.33 1.58.58.347 1.16.505 1.77.505.91 0 1.7-.347 2.33-1.074.63-.758.95-1.737.95-2.969 0-1.216-.32-2.164-.95-2.843-.63-.711-1.43-1.074-2.4-1.074-.98 0-1.8.363-2.46 1.074-.68.679-1.01 1.579-1.01 2.716M1208.64 331.125c0-2.022.2-3.664.63-4.928.41-1.263 1.04-2.227 1.9-2.906.83-.663 1.89-1.011 3.15-1.011.92 0 1.73.19 2.4.569.72.379 1.3.932 1.77 1.642.46.68.83 1.548 1.08 2.591.25 1.011.38 2.369.38 4.043 0 2.069-.22 3.728-.63 4.991-.43 1.232-1.06 2.196-1.9 2.906-.81.679-1.83 1.011-3.1 1.011-1.69 0-3.01-.6-3.98-1.832-1.13-1.422-1.7-3.791-1.7-7.076m2.21 0c0 2.875.32 4.786.95 5.749.66.932 1.51 1.39 2.52 1.39.97 0 1.79-.458 2.47-1.39.66-.963 1.01-2.874 1.01-5.749 0-2.811-.35-4.691-1.01-5.623-.68-.963-1.52-1.453-2.53-1.453-.98 0-1.75.427-2.34 1.264-.72 1.058-1.07 3.001-1.07 5.812M1222.7 339.717v-12.572h1.95v1.769c.38-.632.89-1.137 1.52-1.516.66-.379 1.42-.569 2.27-.569.92 0 1.68.221 2.28.632.58.379 1.01.916 1.26 1.579 1.01-1.469 2.31-2.211 3.92-2.211 1.22 0 2.16.363 2.84 1.074.67.679 1.01 1.737 1.01 3.159v8.655h-2.08v-7.897c0-.884-.1-1.516-.25-1.895-.13-.379-.38-.664-.76-.885-.35-.205-.76-.316-1.27-.316-.88 0-1.62.301-2.21.885-.6.6-.88 1.516-.88 2.78v7.328h-2.09v-8.15c0-.963-.19-1.674-.56-2.148-.35-.458-.92-.695-1.71-.695-.6 0-1.14.174-1.64.506q-.765.45-1.14 1.327c-.22.6-.32 1.484-.32 2.653v6.507zM1242.9 339.717v-12.572h1.96v1.769c.38-.632.89-1.137 1.52-1.516.66-.379 1.42-.569 2.27-.569.92 0 1.68.221 2.28.632.58.379 1.01.916 1.26 1.579 1.01-1.469 2.31-2.211 3.92-2.211 1.21 0 2.16.363 2.84 1.074.66.679 1.01 1.737 1.01 3.159v8.655h-2.08v-7.897c0-.884-.1-1.516-.26-1.895-.12-.379-.37-.664-.75-.885-.35-.205-.76-.316-1.27-.316-.88 0-1.62.301-2.21.885-.6.6-.88 1.516-.88 2.78v7.328h-2.09v-8.15c0-.963-.19-1.674-.57-2.148-.34-.458-.91-.695-1.7-.695-.6 0-1.14.174-1.64.506q-.765.45-1.14 1.327c-.22.6-.32 1.484-.32 2.653v6.507z"/><path stroke="#007ac0" stroke-linecap="round" stroke-miterlimit="10" stroke-width=".756" d="m1342.27 408.008-13.63-12.272M1274.56 347.026l46.34 41.744"/><path fill="#007ac0" fill-rule="evenodd" d="m1328.64 395.736-23.88-29.994-8.45 9.366z" clip-rule="evenodd"/><path stroke="#007ac0" stroke-linecap="round" stroke-miterlimit="10" stroke-width=".756" d="m1273.03 345.652 27.49 24.765M760.01 237.919v40.401M759.631 273.724h-10.029"/><path fill="#007ac0" fill-rule="evenodd" d="m760.01 273.725-37.812-6.302v12.619z" clip-rule="evenodd"/><path stroke="#007ac0" stroke-linecap="round" stroke-miterlimit="10" stroke-width=".756" d="M759.631 273.724H595.749"/><path fill="#007ac0" fill-rule="evenodd" d="m585.341 273.725 37.827 6.317v-12.619z" clip-rule="evenodd"/><path fill="#c00000" d="M791.582 281.745h-2.148v-13.583c-.506.505-1.185 1.011-2.022 1.516-.805.474-1.548.821-2.211 1.074v-2.085a12 12 0 0 0 3.096-2.022c.916-.789 1.547-1.579 1.895-2.337h1.39zM797.047 277.196l2.211-.189q.237 1.658 1.137 2.464c.632.553 1.359.821 2.212.821 1.042 0 1.911-.379 2.59-1.137.711-.79 1.074-1.832 1.074-3.096 0-1.216-.348-2.164-1.011-2.843-.679-.711-1.564-1.074-2.653-1.074-.727 0-1.359.158-1.896.442-.553.301-.979.695-1.263 1.201l-2.022-.253 1.706-8.908h8.592v2.022h-6.886l-.948 4.675c1.042-.711 2.148-1.074 3.285-1.074 1.516 0 2.78.537 3.791 1.579 1.042 1.059 1.579 2.401 1.579 4.044 0 1.563-.474 2.906-1.39 4.043-1.105 1.437-2.622 2.148-4.548 2.148-1.564 0-2.843-.442-3.854-1.327-1.011-.884-1.58-2.053-1.706-3.538M811.736 281.745v-2.401h2.401v2.401zM828.438 279.723v2.022h-11.435a2.74 2.74 0 0 1 .253-1.453c.284-.79.758-1.58 1.39-2.338s1.547-1.642 2.779-2.653q2.843-2.275 3.791-3.601c.663-.916 1.011-1.785 1.011-2.591 0-.884-.3-1.595-.885-2.148-.6-.584-1.374-.884-2.337-.884-1.058 0-1.895.316-2.527.948-.6.6-.885 1.437-.885 2.527l-2.211-.253c.158-1.595.727-2.811 1.706-3.664.963-.885 2.274-1.327 3.917-1.327 1.674 0 3.001.474 3.98 1.39.963.932 1.453 2.069 1.453 3.411 0 .727-.158 1.422-.442 2.085-.3.679-.79 1.39-1.453 2.148q-.948 1.09-3.222 3.033c-1.311 1.058-2.148 1.769-2.527 2.148-.348.379-.616.79-.822 1.2zM837.567 281.745v-4.17h-7.518v-1.959l7.898-11.245h1.768v11.245h2.338v1.959h-2.338v4.17zm0-6.129v-7.834l-5.433 7.834zM844.801 281.745v-12.572h1.959v1.769a4.35 4.35 0 0 1 1.516-1.517q.996-.568 2.275-.568c.916 0 1.674.221 2.274.631.584.38 1.011.917 1.264 1.58 1.01-1.469 2.305-2.211 3.917-2.211 1.216 0 2.163.363 2.842 1.074.664.679 1.011 1.737 1.011 3.159v8.655h-2.085v-7.897c0-.885-.094-1.517-.252-1.896-.127-.379-.379-.663-.758-.884-.348-.205-.758-.316-1.264-.316-.884 0-1.627.3-2.211.884-.6.601-.885 1.517-.885 2.78v7.329h-2.084v-8.15c0-.963-.19-1.674-.569-2.148-.348-.458-.916-.695-1.706-.695-.6 0-1.137.174-1.642.505q-.759.451-1.138 1.327c-.221.6-.316 1.485-.316 2.654v6.507zM865.01 281.745v-12.572h1.959v1.769a4.35 4.35 0 0 1 1.516-1.517q.995-.568 2.274-.568c.916 0 1.674.221 2.275.631.584.38 1.01.917 1.263 1.58 1.011-1.469 2.306-2.211 3.917-2.211 1.216 0 2.164.363 2.843 1.074.664.679 1.011 1.737 1.011 3.159v8.655h-2.085v-7.897c0-.885-.095-1.517-.253-1.896-.126-.379-.379-.663-.758-.884-.347-.205-.758-.316-1.263-.316-.885 0-1.627.3-2.211.884-.601.601-.885 1.517-.885 2.78v7.329h-2.085v-8.15c0-.963-.189-1.674-.568-2.148-.348-.458-.916-.695-1.706-.695-.6 0-1.137.174-1.643.505q-.757.451-1.137 1.327c-.221.6-.316 1.485-.316 2.654v6.507z"/><path stroke="#007ac0" stroke-linecap="round" stroke-miterlimit="10" stroke-width=".756" d="M745.463 791.052v72.37M585.34 808.695v54.727M745.369 858.841h-10.314"/><path fill="#007ac0" fill-rule="evenodd" d="m745.464 858.842-37.828-6.302v12.604z" clip-rule="evenodd"/><path stroke="#007ac0" stroke-linecap="round" stroke-miterlimit="10" stroke-width=".756" d="M745.369 858.841h-149.62"/><path fill="#007ac0" fill-rule="evenodd" d="m585.341 858.842 37.827 6.302V852.54z" clip-rule="evenodd"/><path fill="#c00000" d="M777.323 866.856h-2.148v-13.583c-.505.505-1.184 1.011-2.021 1.516-.806.474-1.548.822-2.212 1.074v-2.085a12 12 0 0 0 3.096-2.021c.916-.79 1.548-1.58 1.895-2.338h1.39zM782.788 862.244l2.148-.253c.253 1.232.664 2.117 1.264 2.654.584.505 1.295.758 2.148.758 1.011 0 1.848-.332 2.527-1.011.663-.711 1.011-1.579 1.011-2.59q0-1.516-.948-2.464c-.632-.632-1.437-.948-2.4-.948-.427 0-.932.095-1.517.253l.19-1.895c.158.047.284.063.379.063.884 0 1.674-.221 2.401-.695.758-.505 1.137-1.232 1.137-2.211 0-.79-.284-1.453-.822-1.959-.505-.505-1.184-.758-2.021-.758q-1.28 0-2.085.758c-.553.506-.916 1.295-1.074 2.338l-2.085-.379c.253-1.422.837-2.527 1.769-3.285.916-.79 2.053-1.201 3.412-1.201.963 0 1.848.221 2.653.632.79.379 1.406.932 1.832 1.643.411.726.632 1.453.632 2.211s-.221 1.453-.632 2.085c-.379.6-.979 1.074-1.769 1.453 1.011.252 1.785.758 2.338 1.516.584.727.884 1.643.884 2.78 0 1.516-.552 2.811-1.642 3.854-1.106 1.058-2.496 1.579-4.17 1.579-1.564 0-2.843-.442-3.854-1.327q-1.469-1.374-1.706-3.601M797.477 866.857v-2.401h2.401v2.401zM803.313 862.813l2.022-.19c.205.98.537 1.69 1.01 2.148.506.427 1.138.632 1.896.632.663 0 1.232-.142 1.706-.442.505-.284.9-.695 1.2-1.201.332-.505.6-1.168.821-2.021.206-.885.316-1.769.316-2.654v-.379a4.7 4.7 0 0 1-1.769 1.643c-.726.426-1.516.632-2.401.632-1.437 0-2.653-.522-3.664-1.58-.979-1.042-1.453-2.416-1.453-4.106 0-1.769.505-3.175 1.516-4.233 1.043-1.09 2.354-1.643 3.917-1.643 1.138 0 2.164.316 3.096.948.963.6 1.674 1.453 2.148 2.59.505 1.106.758 2.717.758 4.865q0 3.365-.758 5.307c-.474 1.311-1.185 2.321-2.148 3.032-.932.679-2.053 1.011-3.348 1.011-1.359 0-2.464-.379-3.349-1.137q-1.28-1.137-1.516-3.222m8.718-7.645c0-1.216-.347-2.179-1.01-2.906-.632-.711-1.39-1.074-2.275-1.074-.979 0-1.816.411-2.527 1.201-.679.758-1.011 1.753-1.011 2.969 0 1.105.316 2.006.948 2.716.663.68 1.516 1.011 2.527 1.011.963 0 1.769-.331 2.401-1.011.632-.71.947-1.674.947-2.906M816.612 851.757v-2.022h11.246v1.643c-1.106 1.185-2.196 2.748-3.286 4.675a27.2 27.2 0 0 0-2.527 6.002c-.426 1.485-.695 3.08-.821 4.801h-2.148q0-2.014.758-4.927a30 30 0 0 1 2.211-5.623c.964-1.801 1.99-3.317 3.096-4.549zM830.543 866.856v-12.572h1.958v1.769a4.35 4.35 0 0 1 1.517-1.516q.995-.569 2.274-.569c.916 0 1.674.221 2.274.632a3.2 3.2 0 0 1 1.264 1.579c1.011-1.469 2.306-2.211 3.917-2.211 1.216 0 2.164.363 2.843 1.074.663.679 1.011 1.737 1.011 3.159v8.655h-2.085v-7.897c0-.884-.095-1.516-.253-1.895-.126-.379-.379-.664-.758-.885-.347-.205-.758-.316-1.263-.316-.885 0-1.627.3-2.212.885-.6.6-.884 1.516-.884 2.78v7.328h-2.085v-8.15c0-.963-.19-1.674-.569-2.148-.347-.458-.916-.695-1.705-.695-.601 0-1.138.174-1.643.506q-.758.45-1.137 1.326c-.221.601-.316 1.485-.316 2.654v6.507zM850.751 866.856v-12.572h1.959v1.769a4.35 4.35 0 0 1 1.516-1.516q.996-.569 2.275-.569c.916 0 1.674.221 2.274.632a3.2 3.2 0 0 1 1.264 1.579c1.01-1.469 2.306-2.211 3.917-2.211 1.216 0 2.163.363 2.843 1.074.663.679 1.01 1.737 1.01 3.159v8.655h-2.085v-7.897c0-.884-.094-1.516-.252-1.895-.127-.379-.379-.664-.758-.885-.348-.205-.758-.316-1.264-.316-.884 0-1.627.3-2.211.885-.6.6-.885 1.516-.885 2.78v7.328h-2.084v-8.15c0-.963-.19-1.674-.569-2.148-.348-.458-.916-.695-1.706-.695-.6 0-1.137.174-1.642.506q-.759.45-1.138 1.326c-.221.601-.316 1.485-.316 2.654v6.507z"/><path stroke="#007ac0" stroke-linecap="round" stroke-miterlimit="10" stroke-width=".756" d="M1346.85 728.238h166.9m-184.37-524.009h184.37M1509.15 549.13v168.699"/><path fill="#007ac0" fill-rule="evenodd" d="m1509.15 728.238 6.32-37.827h-12.62z" clip-rule="evenodd"/><path stroke="#007ac0" stroke-linecap="round" stroke-miterlimit="10" stroke-width=".756" d="M1509.15 402.148v-187.51"/><path fill="#007ac0" fill-rule="evenodd" d="m1509.15 204.23-6.3 37.812h12.62z" clip-rule="evenodd"/><path fill="#c00000" d="M1517.17 518.366H1513v7.518h-1.96l-11.24-7.897v-1.769h11.24v-2.337h1.96v2.337h4.17zm-6.13 0h-7.83l7.83 5.434zM1512.62 511.702l-.19-2.212c1.11-.158 1.93-.537 2.47-1.137a3.24 3.24 0 0 0 .82-2.211c0-1.042-.38-1.911-1.14-2.59-.79-.711-1.83-1.074-3.09-1.074-1.22 0-2.17.347-2.85 1.011-.71.679-1.07 1.563-1.07 2.653 0 .727.16 1.358.44 1.895.3.553.7.98 1.2 1.264l-.25 2.022-8.91-1.706v-8.592h2.02v6.886l4.68.948c-.71-1.043-1.08-2.148-1.08-3.286 0-1.516.54-2.779 1.58-3.79 1.06-1.043 2.4-1.58 4.05-1.58 1.56 0 2.9.474 4.04 1.39 1.44 1.106 2.15 2.622 2.15 4.549 0 1.564-.44 2.843-1.33 3.854-.88 1.011-2.05 1.579-3.54 1.706M1517.17 497.012h-2.4v-2.401h2.4zM1502.07 491.366h-2.02V480.12h1.64c1.19 1.106 2.75 2.196 4.68 3.286a27.2 27.2 0 0 0 6 2.527c1.48.426 3.08.695 4.8.821v2.148c-1.34 0-2.98-.253-4.93-.758a30 30 0 0 1-5.62-2.211c-1.8-.964-3.32-1.99-4.55-3.096zM1515.15 466.822h2.02v11.435c-.5.048-.98-.031-1.45-.253-.79-.284-1.58-.758-2.34-1.389-.76-.632-1.64-1.548-2.65-2.78q-2.28-2.844-3.6-3.791c-.92-.663-1.79-1.011-2.59-1.011-.89 0-1.6.3-2.15.885-.59.6-.89 1.374-.89 2.337 0 1.058.32 1.896.95 2.527.6.601 1.44.885 2.53.885l-.25 2.211c-1.6-.158-2.82-.726-3.67-1.706-.88-.963-1.33-2.274-1.33-3.917 0-1.674.48-3.001 1.39-3.98.94-.963 2.07-1.453 3.42-1.453.72 0 1.42.158 2.08.442.68.3 1.39.79 2.15 1.453q1.095.948 3.03 3.222c1.06 1.311 1.77 2.148 2.15 2.527.38.348.79.616 1.2.822zM1517.17 463.946h-12.57v-1.958h1.77a4.4 4.4 0 0 1-1.52-1.516q-.57-.996-.57-2.275c0-.916.22-1.674.63-2.274a3.23 3.23 0 0 1 1.58-1.264c-1.46-1.01-2.21-2.306-2.21-3.917 0-1.216.37-2.163 1.08-2.843.68-.663 1.73-1.01 3.16-1.01h8.65v2.084h-7.9c-.88 0-1.51.095-1.89.253-.38.126-.66.379-.89.758-.2.348-.31.758-.31 1.264 0 .884.3 1.627.88 2.211.6.6 1.52.884 2.78.884h7.33v2.085h-8.15c-.96 0-1.67.19-2.15.569-.45.347-.69.916-.69 1.706 0 .6.17 1.137.5 1.642.3.506.75.885 1.33 1.138.6.221 1.49.315 2.65.315h6.51zM1517.17 443.738h-12.57v-1.958h1.77a4.4 4.4 0 0 1-1.52-1.516q-.57-.996-.57-2.275c0-.916.22-1.674.63-2.274a3.23 3.23 0 0 1 1.58-1.264c-1.46-1.01-2.21-2.306-2.21-3.917 0-1.216.37-2.163 1.08-2.843.68-.663 1.73-1.01 3.16-1.01h8.65v2.084h-7.9c-.88 0-1.51.095-1.89.253-.38.126-.66.379-.89.758-.2.348-.31.758-.31 1.264 0 .884.3 1.627.88 2.211.6.6 1.52.884 2.78.884h7.33v2.085h-8.15c-.96 0-1.67.19-2.15.569-.45.347-.69.916-.69 1.706 0 .6.17 1.137.5 1.642.3.506.75.885 1.33 1.138.6.221 1.49.315 2.65.315h6.51z"/><path stroke="#007ac0" stroke-linecap="round" stroke-miterlimit="10" stroke-width=".756" d="M1346.85 408.008h112.2m-129.67-203.779h129.67M1454.47 404.565v-6.966"/><path fill="#007ac0" fill-rule="evenodd" d="m1454.47 408.008 6.3-37.827h-12.6z" clip-rule="evenodd"/><path stroke="#007ac0" stroke-linecap="round" stroke-miterlimit="10" stroke-width=".756" d="M1454.47 404.565V214.638"/><path fill="#007ac0" fill-rule="evenodd" d="m1454.47 204.23-6.3 37.812h12.6z" clip-rule="evenodd"/><path fill="#c00000" d="M1462.49 519.592v2.148h-13.59c.51.505 1.01 1.185 1.52 2.022.47.805.82 1.548 1.07 2.211h-2.08a12.3 12.3 0 0 0-2.02-3.096c-.79-.916-1.58-1.548-2.34-1.895v-1.39zM1447.39 514h-2.02v-11.245h1.64c1.18 1.105 2.75 2.195 4.67 3.285a27.1 27.1 0 0 0 6.01 2.527c1.48.427 3.08.695 4.8.821v2.148c-1.35 0-2.99-.252-4.93-.758a29.6 29.6 0 0 1-5.62-2.211c-1.8-.963-3.32-1.99-4.55-3.096zM1462.49 499.438h-2.4v-2.4h2.4zM1447.39 493.792h-2.02v-11.245h1.64c1.18 1.105 2.75 2.195 4.67 3.285a27.2 27.2 0 0 0 6.01 2.527c1.48.426 3.08.695 4.8.821v2.148c-1.35 0-2.99-.252-4.93-.758a29.6 29.6 0 0 1-5.62-2.211c-1.8-.964-3.32-1.99-4.55-3.096zM1453.07 477.144c-.33.885-.79 1.548-1.39 1.959-.58.426-1.29.632-2.14.632-1.27 0-2.31-.443-3.16-1.327-.89-.916-1.33-2.148-1.33-3.664s.44-2.717 1.33-3.602c.88-.916 1.96-1.389 3.22-1.389.8 0 1.5.221 2.08.631.6.427 1.06 1.059 1.39 1.896.35-1.043.92-1.848 1.71-2.401.76-.585 1.67-.885 2.72-.885 1.51 0 2.78.537 3.79 1.58 1.01 1.058 1.51 2.448 1.51 4.17 0 1.737-.5 3.127-1.51 4.169-1.05 1.011-2.34 1.516-3.86 1.516-1.09 0-2.02-.268-2.78-.821-.79-.584-1.32-1.406-1.58-2.464m-3.6.443c.81 0 1.49-.253 2.02-.759.51-.537.76-1.232.76-2.084 0-.838-.25-1.517-.76-2.022-.53-.537-1.16-.821-1.89-.821-.79 0-1.45.284-1.96.821a2.8 2.8 0 0 0-.82 2.022c0 .805.25 1.484.76 2.021.5.553 1.13.822 1.89.822m8.03.694c.6 0 1.18-.142 1.76-.442.56-.284 1-.711 1.33-1.263.3-.585.44-1.216.44-1.896 0-1.01-.31-1.832-.94-2.464-.67-.663-1.52-1.01-2.53-1.01-1.04 0-1.9.347-2.53 1.01-.66.68-1.01 1.548-1.01 2.591 0 .979.35 1.8 1.01 2.464.63.679 1.46 1.01 2.47 1.01M1462.49 466.373h-12.58v-1.959h1.77a4.36 4.36 0 0 1-1.51-1.516q-.57-.995-.57-2.274c0-.916.22-1.675.63-2.275.38-.584.92-1.011 1.58-1.263-1.47-1.011-2.21-2.306-2.21-3.917 0-1.216.36-2.164 1.07-2.843.68-.664 1.74-1.011 3.16-1.011h8.66v2.085h-7.9c-.88 0-1.52.095-1.9.253-.37.126-.66.379-.88.758-.21.347-.32.758-.32 1.263 0 .885.3 1.627.89 2.211.6.601 1.51.885 2.78.885h7.33v2.085h-8.15c-.97 0-1.68.189-2.15.568-.46.348-.7.916-.7 1.706 0 .6.18 1.137.51 1.643.3.505.74.884 1.33 1.137.6.221 1.48.316 2.65.316h6.51zM1462.49 446.164h-12.58v-1.959h1.77a4.36 4.36 0 0 1-1.51-1.516q-.57-.995-.57-2.274c0-.916.22-1.674.63-2.275.38-.584.92-1.01 1.58-1.263-1.47-1.011-2.21-2.306-2.21-3.917 0-1.216.36-2.164 1.07-2.843.68-.663 1.74-1.011 3.16-1.011h8.66v2.085h-7.9c-.88 0-1.52.095-1.9.253-.37.126-.66.379-.88.758-.21.347-.32.758-.32 1.263 0 .885.3 1.627.89 2.212.6.6 1.51.884 2.78.884h7.33v2.085h-8.15c-.97 0-1.68.189-2.15.568-.46.348-.7.917-.7 1.706 0 .6.18 1.137.51 1.643.3.505.74.884 1.33 1.137.6.221 1.48.316 2.65.316h6.51z"/><path stroke="#007ac0" stroke-linecap="round" stroke-miterlimit="10" stroke-width=".756" d="M740.883 786.456h-262.36m113.704-582.227H478.523M483.104 572.742v203.305"/><path fill="#007ac0" fill-rule="evenodd" d="m483.104 786.456 6.317-37.812h-12.619z" clip-rule="evenodd"/><path stroke="#007ac0" stroke-linecap="round" stroke-miterlimit="10" stroke-width=".756" d="M483.104 425.761V214.638"/><path fill="#007ac0" fill-rule="evenodd" d="m483.104 204.23-6.302 37.812h12.619z" clip-rule="evenodd"/><path fill="#c00000" d="m486.574 548.806-.19-2.212q1.659-.237 2.464-1.137c.553-.632.822-1.358.822-2.211 0-1.043-.379-1.911-1.138-2.59-.789-.711-1.832-1.074-3.095-1.074-1.216 0-2.164.347-2.843 1.01-.711.68-1.074 1.564-1.074 2.654 0 .726.158 1.358.442 1.895.3.553.695.979 1.2 1.264l-.252 2.021-8.908-1.705v-8.592h2.021v6.886l4.676.948c-.711-1.043-1.075-2.148-1.075-3.286 0-1.516.537-2.779 1.58-3.79 1.058-1.043 2.401-1.58 4.043-1.58 1.564 0 2.906.474 4.044 1.39 1.437 1.106 2.148 2.622 2.148 4.549 0 1.564-.443 2.843-1.327 3.854-.885 1.011-2.053 1.579-3.538 1.706M482.531 535.318c-2.022 0-3.665-.206-4.928-.632-1.264-.411-2.227-1.043-2.906-1.895-.664-.838-1.011-1.896-1.011-3.159 0-.916.189-1.722.568-2.401.38-.711.932-1.295 1.643-1.769.679-.458 1.548-.821 2.59-1.074 1.011-.253 2.369-.379 4.044-.379 2.069 0 3.727.221 4.991.632 1.232.426 2.195 1.058 2.906 1.895.679.806 1.011 1.832 1.011 3.096 0 1.69-.6 3.016-1.832 3.98-1.422 1.137-3.791 1.706-7.076 1.706m0-2.212c2.874 0 4.785-.315 5.749-.947.932-.664 1.39-1.516 1.39-2.527 0-.964-.458-1.785-1.39-2.464-.964-.664-2.875-1.011-5.749-1.011-2.812 0-4.691.347-5.623 1.011-.964.679-1.453 1.516-1.453 2.527 0 .979.426 1.753 1.263 2.337 1.059.727 3.001 1.074 5.813 1.074M491.123 520.628h-2.401v-2.401h2.401zM481.709 511.823c-.331.885-.789 1.548-1.39 1.959-.584.426-1.295.632-2.148.632-1.263 0-2.306-.443-3.158-1.327-.885-.916-1.327-2.148-1.327-3.664q0-2.275 1.327-3.602c.884-.916 1.958-1.389 3.222-1.389.805 0 1.5.221 2.084.631.601.427 1.059 1.059 1.39 1.896.348-1.043.916-1.848 1.706-2.401.758-.584 1.674-.885 2.717-.885 1.516 0 2.78.537 3.79 1.58q1.517 1.587 1.517 4.17 0 2.606-1.517 4.169c-1.042 1.011-2.337 1.517-3.853 1.517-1.09 0-2.022-.269-2.78-.822-.79-.584-1.327-1.405-1.58-2.464m-3.601.443c.806 0 1.485-.253 2.022-.759q.758-.806.758-2.084c0-.837-.253-1.517-.758-2.022-.537-.537-1.169-.821-1.895-.821-.79 0-1.453.284-1.959.821a2.82 2.82 0 0 0-.821 2.022c0 .805.253 1.484.758 2.021.505.553 1.137.822 1.895.822m8.024.695c.6 0 1.184-.143 1.769-.443.553-.284.995-.71 1.326-1.263a4.1 4.1 0 0 0 .443-1.896q0-1.516-.948-2.463c-.663-.664-1.516-1.011-2.527-1.011-1.042 0-1.895.347-2.527 1.011-.663.679-1.011 1.547-1.011 2.59 0 .979.348 1.8 1.011 2.464.632.679 1.453 1.011 2.464 1.011M482.531 501.62c-2.022 0-3.665-.205-4.928-.632-1.264-.41-2.227-1.042-2.906-1.895-.664-.837-1.011-1.895-1.011-3.159 0-.916.189-1.721.568-2.401.38-.71.932-1.295 1.643-1.769.679-.458 1.548-.821 2.59-1.074 1.011-.252 2.369-.379 4.044-.379 2.069 0 3.727.222 4.991.632 1.232.427 2.195 1.058 2.906 1.895.679.806 1.011 1.833 1.011 3.096 0 1.69-.6 3.017-1.832 3.98-1.422 1.138-3.791 1.706-7.076 1.706m0-2.211c2.874 0 4.785-.316 5.749-.948.932-.663 1.39-1.516 1.39-2.527 0-.963-.458-1.785-1.39-2.464-.964-.663-2.875-1.011-5.749-1.011-2.812 0-4.691.348-5.623 1.011-.964.679-1.453 1.517-1.453 2.527 0 .98.426 1.754 1.263 2.338 1.059.726 3.001 1.074 5.813 1.074M491.123 487.563h-12.572v-1.959h1.768a4.36 4.36 0 0 1-1.516-1.516q-.568-.996-.568-2.275c0-.916.221-1.674.631-2.274a3.2 3.2 0 0 1 1.58-1.264c-1.469-1.01-2.211-2.306-2.211-3.917 0-1.216.363-2.163 1.074-2.843.679-.663 1.737-1.01 3.159-1.01h8.655v2.084h-7.897c-.885 0-1.517.095-1.896.253-.379.127-.663.379-.884.758-.205.348-.316.758-.316 1.264 0 .884.3 1.627.884 2.211.601.6 1.517.885 2.78.885h7.329v2.084h-8.15c-.964 0-1.674.19-2.148.569-.458.347-.695.916-.695 1.706 0 .6.174 1.137.505 1.642q.45.759 1.327 1.138c.6.221 1.485.315 2.654.315h6.507zM491.123 467.354h-12.572v-1.958h1.768a4.37 4.37 0 0 1-1.516-1.516q-.568-.996-.568-2.275c0-.916.221-1.674.631-2.274a3.2 3.2 0 0 1 1.58-1.264c-1.469-1.011-2.211-2.306-2.211-3.917 0-1.216.363-2.163 1.074-2.843.679-.663 1.737-1.01 3.159-1.01h8.655v2.084h-7.897c-.885 0-1.517.095-1.896.253-.379.126-.663.379-.884.758-.205.348-.316.758-.316 1.264 0 .884.3 1.627.884 2.211.601.6 1.517.884 2.78.884h7.329v2.085h-8.15c-.964 0-1.674.19-2.148.569-.458.347-.695.916-.695 1.706 0 .6.174 1.137.505 1.642q.45.759 1.327 1.137c.6.222 1.485.316 2.654.316h6.507z"/><path stroke="#007ac0" stroke-linecap="round" stroke-miterlimit="10" stroke-width=".756" d="M1342.25 732.818v190.069M585.34 705.541v217.346M1052.92 918.307h278.92"/><path fill="#007ac0" fill-rule="evenodd" d="m1342.25 918.307-37.81-6.302v12.604z" clip-rule="evenodd"/><path stroke="#007ac0" stroke-linecap="round" stroke-miterlimit="10" stroke-width=".756" d="M905.934 918.307H595.749"/><path fill="#007ac0" fill-rule="evenodd" d="m585.341 918.307 37.827 6.302v-12.604z" clip-rule="evenodd"/><path fill="#c00000" d="m940.918 913.174-2.085.189c-.221-.837-.49-1.453-.821-1.832-.601-.584-1.311-.885-2.148-.885-.68 0-1.264.19-1.769.569-.68.474-1.232 1.185-1.643 2.148q-.569 1.398-.569 3.98c.506-.758 1.106-1.327 1.833-1.706a5.26 5.26 0 0 1 2.4-.568c1.422 0 2.622.537 3.601 1.579 1.011 1.011 1.517 2.369 1.517 4.044a6.7 6.7 0 0 1-.695 3.032c-.474.932-1.122 1.643-1.959 2.148-.805.506-1.737.758-2.78.758-1.769 0-3.222-.647-4.359-1.958-1.137-1.295-1.706-3.475-1.706-6.507 0-3.317.632-5.765 1.896-7.329 1.09-1.295 2.543-1.959 4.359-1.959 1.39 0 2.495.38 3.348 1.138.885.758 1.406 1.816 1.58 3.159m-8.719 7.518c0 .726.142 1.421.443 2.084.331.68.773 1.201 1.326 1.58.585.347 1.169.505 1.769.505.916 0 1.706-.347 2.338-1.074.632-.758.947-1.737.947-2.969q0-1.824-.947-2.843c-.632-.711-1.437-1.074-2.401-1.074-.979 0-1.8.363-2.464 1.074-.679.679-1.011 1.579-1.011 2.717M954.406 913.174l-2.084.189c-.222-.837-.49-1.453-.822-1.832-.6-.584-1.311-.885-2.148-.885-.679 0-1.263.19-1.769.569-.679.474-1.232 1.185-1.642 2.148q-.569 1.398-.569 3.98c.505-.758 1.106-1.327 1.832-1.706a5.3 5.3 0 0 1 2.401-.568c1.421 0 2.622.537 3.601 1.579 1.011 1.011 1.516 2.369 1.516 4.044a6.7 6.7 0 0 1-.695 3.032c-.474.932-1.121 1.643-1.958 2.148-.806.506-1.738.758-2.78.758-1.769 0-3.222-.647-4.359-1.958-1.137-1.295-1.706-3.475-1.706-6.507 0-3.317.632-5.765 1.895-7.329 1.09-1.295 2.543-1.959 4.36-1.959 1.389 0 2.495.38 3.348 1.138.884.758 1.406 1.816 1.579 3.159m-8.718 7.518c0 .726.142 1.421.442 2.084.332.68.774 1.201 1.327 1.58a3.4 3.4 0 0 0 1.769.505c.916 0 1.706-.347 2.337-1.074.632-.758.948-1.737.948-2.969q0-1.824-.948-2.843c-.631-.711-1.437-1.074-2.4-1.074-.98 0-1.801.363-2.464 1.074-.679.679-1.011 1.579-1.011 2.717M958.039 926.315v-2.401h2.401v2.401zM963.559 917.722c0-2.021.205-3.664.632-4.928.411-1.263 1.042-2.227 1.895-2.906.837-.663 1.895-1.011 3.159-1.011.916 0 1.722.19 2.401.569.711.379 1.295.932 1.769 1.643.458.679.821 1.547 1.074 2.59.252 1.011.379 2.369.379 4.043 0 2.069-.221 3.728-.632 4.991-.426 1.232-1.058 2.196-1.895 2.906-.806.68-1.832 1.011-3.096 1.011-1.69 0-3.017-.6-3.98-1.832-1.137-1.421-1.706-3.791-1.706-7.076m2.211 0c0 2.875.316 4.786.948 5.749.663.932 1.516 1.39 2.527 1.39.963 0 1.785-.458 2.464-1.39.663-.963 1.011-2.874 1.011-5.749 0-2.811-.348-4.691-1.011-5.623-.679-.963-1.516-1.453-2.527-1.453-.979 0-1.753.427-2.338 1.264-.726 1.058-1.074 3.001-1.074 5.812M983.871 926.315v-4.17h-7.518v-1.958l7.897-11.246h1.769v11.246h2.338v1.958h-2.338v4.17zm0-6.128v-7.834l-5.433 7.834zM991.105 926.314v-12.572h1.958v1.769a4.35 4.35 0 0 1 1.517-1.516q.995-.569 2.274-.569c.916 0 1.674.221 2.274.632a3.2 3.2 0 0 1 1.262 1.579c1.01-1.468 2.31-2.211 3.92-2.211 1.22 0 2.16.364 2.84 1.074.67.679 1.01 1.738 1.01 3.159v8.655h-2.08v-7.897c0-.884-.1-1.516-.25-1.895-.13-.379-.38-.663-.76-.885-.35-.205-.76-.315-1.27-.315-.88 0-1.62.3-2.21.884-.6.6-.88 1.516-.88 2.78v7.328h-2.087v-8.149c0-.964-.19-1.675-.569-2.148-.347-.458-.916-.695-1.705-.695-.601 0-1.138.173-1.643.505q-.758.45-1.137 1.327c-.221.6-.316 1.484-.316 2.653v6.507zM1011.31 926.314v-12.572h1.96v1.769c.38-.632.89-1.137 1.52-1.516.66-.379 1.42-.569 2.27-.569.92 0 1.68.221 2.28.632.58.379 1.01.916 1.26 1.579 1.01-1.468 2.31-2.211 3.92-2.211 1.21 0 2.16.364 2.84 1.074.66.679 1.01 1.738 1.01 3.159v8.655h-2.08v-7.897c0-.884-.1-1.516-.26-1.895-.12-.379-.38-.663-.75-.885-.35-.205-.76-.315-1.27-.315-.88 0-1.62.3-2.21.884-.6.6-.88 1.516-.88 2.78v7.328h-2.09v-8.149c0-.964-.19-1.675-.57-2.148-.34-.458-.91-.695-1.7-.695-.6 0-1.14.173-1.65.505-.5.3-.88.742-1.13 1.327-.22.6-.32 1.484-.32 2.653v6.507z"/></svg>