<svg id="Layer_1" data-name="Layer 1" xmlns="http://www.w3.org/2000/svg" viewBox="0 0 187.23 208.9"><defs><style>.cls-1{fill-rule:evenodd;}.cls-2{fill:#404642;}.cls-3{fill:#8c9091;}.cls-4{fill:#8b7867;}.cls-5{fill:#2b322d;}.cls-6{fill:#d8dcdd;}.cls-7{fill:#fff;}.cls-8{fill:#d9dad9;}.cls-9{fill:#b8aca0;}.cls-10{fill:#9e846d;}.cls-11{fill:#8b7866;}.cls-12{fill:#c3c5c6;}.cls-13{fill:#c3b9af;}</style></defs><g id="REGION"><g id="ARC"><path d="M114.11,259.44a.36.36,0,0,1,0-.71,1.06,1.06,0,1,0,0-2.12.36.36,0,0,1,0-.71,1.77,1.77,0,1,1,0,3.54Z" transform="translate(-73.72 -84.07)"/></g><g id="LINE"><path d="M114.11,256.61H109a.36.36,0,0,1,0-.71h5.1a.36.36,0,1,1,0,.71Z" transform="translate(-73.72 -84.07)"/></g><g id="ARC-2"><path d="M109,259.44a1.77,1.77,0,0,1,0-3.54.36.36,0,1,1,0,.71,1.06,1.06,0,0,0,0,2.12.36.36,0,1,1,0,.71Z" transform="translate(-73.72 -84.07)"/></g><g id="LINE-2"><path d="M114.11,259.44H109a.36.36,0,0,1,0-.71h5.1a.36.36,0,1,1,0,.71Z" transform="translate(-73.72 -84.07)"/></g></g><g id="HATCH"><path class="cls-1" d="M114.11,259.09a1.42,1.42,0,0,0,0-2.84H109a1.42,1.42,0,1,0,0,2.84Z" transform="translate(-73.72 -84.07)"/></g><g id="REGION-2"><g id="ARC-3"><path d="M114.11,241.87a.36.36,0,0,1,0-.71,1.07,1.07,0,1,0,0-2.13.36.36,0,0,1,0-.71,1.78,1.78,0,1,1,0,3.55Z" transform="translate(-73.72 -84.07)"/></g><g id="LINE-3"><path d="M114.11,239H109a.36.36,0,0,1,0-.71h5.1a.36.36,0,1,1,0,.71Z" transform="translate(-73.72 -84.07)"/></g><g id="ARC-4"><path d="M109,241.87a1.78,1.78,0,0,1,0-3.55.36.36,0,1,1,0,.71,1.07,1.07,0,0,0,0,2.13.36.36,0,1,1,0,.71Z" transform="translate(-73.72 -84.07)"/></g><g id="LINE-4"><path d="M114.11,241.87H109a.36.36,0,0,1,0-.71h5.1a.36.36,0,1,1,0,.71Z" transform="translate(-73.72 -84.07)"/></g></g><g id="HATCH-2"><path class="cls-1" d="M114.11,241.51a1.42,1.42,0,1,0,0-2.83H109a1.42,1.42,0,1,0,0,2.83Z" transform="translate(-73.72 -84.07)"/></g><g id="REGION-3"><g id="ARC-5"><path d="M127,246.83a.36.36,0,0,1-.35-.36,1.07,1.07,0,0,0-2.13,0,.36.36,0,1,1-.71,0,1.78,1.78,0,0,1,3.55,0A.36.36,0,0,1,127,246.83Z" transform="translate(-73.72 -84.07)"/></g><g id="LINE-5"><path d="M124.18,251.93a.36.36,0,0,1-.36-.35v-5.11a.36.36,0,0,1,.71,0v5.11A.35.35,0,0,1,124.18,251.93Z" transform="translate(-73.72 -84.07)"/></g><g id="ARC-6"><path d="M125.59,253.35a1.78,1.78,0,0,1-1.77-1.77.36.36,0,1,1,.71,0,1.07,1.07,0,0,0,2.13,0,.36.36,0,1,1,.71,0A1.78,1.78,0,0,1,125.59,253.35Z" transform="translate(-73.72 -84.07)"/></g><g id="LINE-6"><path d="M127,251.93a.35.35,0,0,1-.35-.35v-5.11a.36.36,0,0,1,.71,0v5.11A.36.36,0,0,1,127,251.93Z" transform="translate(-73.72 -84.07)"/></g></g><g id="HATCH-3"><path class="cls-1" d="M127,246.47a1.42,1.42,0,0,0-2.83,0v5.11a1.42,1.42,0,0,0,2.83,0Z" transform="translate(-73.72 -84.07)"/></g><g id="REGION-4"><g id="CIRCLE"><path d="M249.75,194.8a1.77,1.77,0,1,1,1.77-1.77A1.77,1.77,0,0,1,249.75,194.8Zm0-2.83a1.06,1.06,0,1,0,1.07,1.06A1.06,1.06,0,0,0,249.75,192Z" transform="translate(-73.72 -84.07)"/></g></g><g id="HATCH-4"><circle cx="176.03" cy="108.96" r="1.42"/></g><g id="REGION-5"><g id="CIRCLE-2"><path d="M249.75,180.4a1.77,1.77,0,1,1,1.77-1.77A1.77,1.77,0,0,1,249.75,180.4Zm0-2.83a1.06,1.06,0,1,0,1.07,1.06A1.06,1.06,0,0,0,249.75,177.57Z" transform="translate(-73.72 -84.07)"/></g></g><g id="HATCH-5"><circle cx="176.03" cy="94.56" r="1.42"/></g><g id="REGION-6"><g id="CIRCLE-3"><path d="M226.23,194.8A1.77,1.77,0,1,1,228,193,1.78,1.78,0,0,1,226.23,194.8Zm0-2.83a1.06,1.06,0,1,0,1.06,1.06A1.06,1.06,0,0,0,226.23,192Z" transform="translate(-73.72 -84.07)"/></g></g><g id="HATCH-6"><circle cx="152.5" cy="108.96" r="1.42"/></g><g id="REGION-7"><g id="CIRCLE-4"><path d="M226.23,180.4a1.77,1.77,0,1,1,1.77-1.77A1.78,1.78,0,0,1,226.23,180.4Zm0-2.83a1.06,1.06,0,1,0,1.06,1.06A1.06,1.06,0,0,0,226.23,177.57Z" transform="translate(-73.72 -84.07)"/></g></g><g id="HATCH-7"><circle cx="152.5" cy="94.56" r="1.42"/></g><g id="REGION-8"><g id="CIRCLE-5"><path d="M202.7,194.8a1.77,1.77,0,1,1,1.77-1.77A1.77,1.77,0,0,1,202.7,194.8Zm0-2.83a1.06,1.06,0,1,0,1.06,1.06A1.06,1.06,0,0,0,202.7,192Z" transform="translate(-73.72 -84.07)"/></g></g><g id="HATCH-8"><circle cx="128.98" cy="108.96" r="1.42"/></g><g id="REGION-9"><g id="CIRCLE-6"><path d="M202.7,180.4a1.77,1.77,0,1,1,1.77-1.77A1.77,1.77,0,0,1,202.7,180.4Zm0-2.83a1.06,1.06,0,1,0,1.06,1.06A1.06,1.06,0,0,0,202.7,177.57Z" transform="translate(-73.72 -84.07)"/></g></g><g id="HATCH-9"><circle cx="128.98" cy="94.56" r="1.42"/></g><g id="REGION-10"><g id="CIRCLE-7"><path d="M179.17,194.8a1.77,1.77,0,1,1,1.77-1.77A1.77,1.77,0,0,1,179.17,194.8Zm0-2.83a1.06,1.06,0,1,0,1.06,1.06A1.05,1.05,0,0,0,179.17,192Z" transform="translate(-73.72 -84.07)"/></g></g><g id="HATCH-10"><circle cx="105.45" cy="108.96" r="1.42"/></g><g id="REGION-11"><g id="CIRCLE-8"><path d="M179.17,180.4a1.77,1.77,0,1,1,1.77-1.77A1.77,1.77,0,0,1,179.17,180.4Zm0-2.83a1.06,1.06,0,1,0,1.06,1.06A1.05,1.05,0,0,0,179.17,177.57Z" transform="translate(-73.72 -84.07)"/></g></g><g id="HATCH-11"><circle cx="105.45" cy="94.56" r="1.42"/></g><g id="REGION-12"><g id="CIRCLE-9"><path d="M155.64,194.8a1.77,1.77,0,1,1,1.77-1.77A1.77,1.77,0,0,1,155.64,194.8Zm0-2.83a1.06,1.06,0,1,0,1.07,1.06A1.06,1.06,0,0,0,155.64,192Z" transform="translate(-73.72 -84.07)"/></g></g><g id="HATCH-12"><circle cx="81.92" cy="108.96" r="1.42"/></g><g id="REGION-13"><g id="CIRCLE-10"><path d="M155.64,180.4a1.77,1.77,0,1,1,1.77-1.77A1.77,1.77,0,0,1,155.64,180.4Zm0-2.83a1.06,1.06,0,1,0,1.07,1.06A1.06,1.06,0,0,0,155.64,177.57Z" transform="translate(-73.72 -84.07)"/></g></g><g id="HATCH-13"><circle cx="81.92" cy="94.56" r="1.42"/></g><g id="REGION-14"><g id="CIRCLE-11"><path d="M132.11,194.8a1.77,1.77,0,1,1,1.78-1.77A1.77,1.77,0,0,1,132.11,194.8Zm0-2.83a1.06,1.06,0,1,0,1.07,1.06A1.06,1.06,0,0,0,132.11,192Z" transform="translate(-73.72 -84.07)"/></g></g><g id="HATCH-14"><circle cx="58.39" cy="108.96" r="1.42"/></g><g id="REGION-15"><g id="CIRCLE-12"><path d="M132.11,180.4a1.77,1.77,0,1,1,1.78-1.77A1.77,1.77,0,0,1,132.11,180.4Zm0-2.83a1.06,1.06,0,1,0,1.07,1.06A1.06,1.06,0,0,0,132.11,177.57Z" transform="translate(-73.72 -84.07)"/></g></g><g id="HATCH-15"><circle cx="58.39" cy="94.56" r="1.42"/></g><g id="REGION-16"><g id="CIRCLE-13"><path d="M108.59,194.8a1.77,1.77,0,1,1,1.77-1.77A1.77,1.77,0,0,1,108.59,194.8Zm0-2.83a1.06,1.06,0,1,0,1.06,1.06A1.06,1.06,0,0,0,108.59,192Z" transform="translate(-73.72 -84.07)"/></g></g><g id="HATCH-16"><circle cx="34.87" cy="108.96" r="1.42"/></g><g id="REGION-17"><g id="CIRCLE-14"><path d="M108.59,180.4a1.77,1.77,0,1,1,1.77-1.77A1.77,1.77,0,0,1,108.59,180.4Zm0-2.83a1.06,1.06,0,1,0,1.06,1.06A1.06,1.06,0,0,0,108.59,177.57Z" transform="translate(-73.72 -84.07)"/></g></g><g id="HATCH-17"><circle cx="34.87" cy="94.56" r="1.42"/></g><g id="REGION-18"><g id="CIRCLE-15"><path d="M85.06,194.8A1.77,1.77,0,1,1,86.83,193,1.77,1.77,0,0,1,85.06,194.8Zm0-2.83A1.06,1.06,0,1,0,86.12,193,1.05,1.05,0,0,0,85.06,192Z" transform="translate(-73.72 -84.07)"/></g></g><g id="HATCH-18"><circle cx="11.34" cy="108.96" r="1.42"/></g><g id="REGION-19"><g id="CIRCLE-16"><path d="M85.06,180.4a1.77,1.77,0,1,1,1.77-1.77A1.77,1.77,0,0,1,85.06,180.4Zm0-2.83a1.06,1.06,0,1,0,1.06,1.06A1.05,1.05,0,0,0,85.06,177.57Z" transform="translate(-73.72 -84.07)"/></g></g><g id="HATCH-19"><circle cx="11.34" cy="94.56" r="1.42"/></g><g id="REGION-20"><g id="CIRCLE-17"><path d="M195.19,106.67a2.06,2.06,0,1,1,2.05-2A2.05,2.05,0,0,1,195.19,106.67Zm0-3.4a1.35,1.35,0,1,0,1.34,1.35A1.34,1.34,0,0,0,195.19,103.27Z" transform="translate(-73.72 -84.07)"/></g></g><g id="HATCH-20"><circle cx="121.46" cy="20.55" r="1.7"/></g><g id="REGION-21"><g id="CIRCLE-18"><path d="M181,106.67a2.06,2.06,0,1,1,2.06-2A2.05,2.05,0,0,1,181,106.67Zm0-3.4a1.35,1.35,0,1,0,1.35,1.35A1.34,1.34,0,0,0,181,103.27Z" transform="translate(-73.72 -84.07)"/></g></g><g id="HATCH-21"><circle cx="107.29" cy="20.55" r="1.7"/></g><g id="REGION-22"><g id="CIRCLE-19"><path d="M166.84,106.67a2.06,2.06,0,1,1,2-2A2.06,2.06,0,0,1,166.84,106.67Zm0-3.4a1.35,1.35,0,1,0,1.35,1.35A1.35,1.35,0,0,0,166.84,103.27Z" transform="translate(-73.72 -84.07)"/></g></g><g id="HATCH-22"><circle cx="93.12" cy="20.55" r="1.7"/></g><g id="REGION-23"><g id="CIRCLE-20"><path d="M152.52,106.67a2.06,2.06,0,1,1,2.06-2A2.05,2.05,0,0,1,152.52,106.67Zm0-3.4a1.35,1.35,0,1,0,1.35,1.35A1.34,1.34,0,0,0,152.52,103.27Z" transform="translate(-73.72 -84.07)"/></g></g><g id="HATCH-23"><circle cx="78.8" cy="20.55" r="1.7"/></g><g id="REGION-24"><g id="CIRCLE-21"><path d="M252,106.67a2.06,2.06,0,1,1,2.06-2A2.06,2.06,0,0,1,252,106.67Zm0-3.4a1.35,1.35,0,1,0,1.35,1.35A1.35,1.35,0,0,0,252,103.27Z" transform="translate(-73.72 -84.07)"/></g></g><g id="HATCH-24"><circle cx="178.3" cy="20.55" r="1.7"/></g><g id="REGION-25"><g id="CIRCLE-22"><path d="M237.71,106.67a2.06,2.06,0,1,1,2-2A2.05,2.05,0,0,1,237.71,106.67Zm0-3.4a1.35,1.35,0,1,0,1.34,1.35A1.34,1.34,0,0,0,237.71,103.27Z" transform="translate(-73.72 -84.07)"/></g></g><g id="HATCH-25"><circle cx="163.98" cy="20.55" r="1.7"/></g><g id="REGION-26"><g id="CIRCLE-23"><path d="M223.53,106.67a2.06,2.06,0,1,1,2.06-2A2.05,2.05,0,0,1,223.53,106.67Zm0-3.4a1.35,1.35,0,1,0,1.35,1.35A1.34,1.34,0,0,0,223.53,103.27Z" transform="translate(-73.72 -84.07)"/></g></g><g id="HATCH-26"><circle cx="149.81" cy="20.55" r="1.7"/></g><g id="REGION-27"><g id="CIRCLE-24"><path d="M209.36,106.67a2.06,2.06,0,1,1,2-2A2.06,2.06,0,0,1,209.36,106.67Zm0-3.4a1.35,1.35,0,1,0,1.35,1.35A1.35,1.35,0,0,0,209.36,103.27Z" transform="translate(-73.72 -84.07)"/></g></g><g id="HATCH-27"><circle cx="135.64" cy="20.55" r="1.7"/></g><g id="REGION-28"><g id="CIRCLE-25"><path d="M133,106.81a2.06,2.06,0,1,1,2.06-2A2.05,2.05,0,0,1,133,106.81Zm0-3.4a1.35,1.35,0,1,0,1.35,1.35A1.35,1.35,0,0,0,133,103.41Z" transform="translate(-73.72 -84.07)"/></g></g><g id="HATCH-28"><circle cx="59.24" cy="20.69" r="1.7"/></g><g id="REGION-29"><g id="CIRCLE-26"><path d="M118.65,106.81a2.06,2.06,0,1,1,2.06-2A2.06,2.06,0,0,1,118.65,106.81Zm0-3.4a1.35,1.35,0,1,0,1.35,1.35A1.36,1.36,0,0,0,118.65,103.41Z" transform="translate(-73.72 -84.07)"/></g></g><g id="HATCH-29"><circle cx="44.93" cy="20.69" r="1.7"/></g><g id="REGION-30"><g id="CIRCLE-27"><path d="M104.48,106.81a2.06,2.06,0,1,1,2-2A2.05,2.05,0,0,1,104.48,106.81Zm0-3.4a1.35,1.35,0,1,0,1.34,1.35A1.35,1.35,0,0,0,104.48,103.41Z" transform="translate(-73.72 -84.07)"/></g></g><g id="HATCH-30"><circle cx="30.76" cy="20.69" r="1.7"/></g><g id="REGION-31"><g id="CIRCLE-28"><path d="M90.16,106.81a2.06,2.06,0,1,1,2.06-2A2.05,2.05,0,0,1,90.16,106.81Zm0-3.4a1.35,1.35,0,1,0,1.35,1.35A1.35,1.35,0,0,0,90.16,103.41Z" transform="translate(-73.72 -84.07)"/></g></g><g id="HATCH-31"><circle cx="16.44" cy="20.69" r="1.7"/></g><rect class="cls-2" width="187.23" height="203.53" rx="2.28"/><path class="cls-3" d="M135.35,248.44a4.87,4.87,0,0,0-4.88-4.88v9.75a4.87,4.87,0,0,0,4.88-4.87Z" transform="translate(-73.72 -84.07)"/><path class="cls-3" d="M106,236.26a.77.77,0,0,0,0,.15h9.72s0-.1,0-.15a4.88,4.88,0,1,0-9.75,0Z" transform="translate(-73.72 -84.07)"/><polygon points="24.22 194.51 22.19 194.51 22.19 194.51 20.16 194.51 20.16 206.07 22.19 206.07 22.19 206.07 24.22 206.07 26.25 206.07 28.29 206.07 30.32 206.07 32.35 206.07 34.39 206.07 36.42 206.07 38.45 206.07 40.49 206.07 42.52 206.07 44.55 206.07 46.58 206.07 48.62 206.07 50.65 206.07 52.68 206.07 54.72 206.07 56.75 206.07 58.58 206.07 58.78 206.07 60.61 206.07 60.61 194.51 58.78 194.51 58.58 194.51 56.75 194.51 56.75 169.24 56.75 159.49 56.75 152.35 52.68 152.35 48.62 152.35 44.55 152.35 42.05 152.35 40.49 152.35 36.42 152.35 32.35 152.35 32.32 152.35 28.29 152.35 24.22 152.35 24.22 194.51"/><polygon points="24.22 194.51 22.19 194.51 22.19 194.51 20.16 194.51 20.16 206.07 22.19 206.07 22.19 206.07 24.22 206.07 26.25 206.07 28.29 206.07 30.32 206.07 32.35 206.07 34.39 206.07 36.42 206.07 38.45 206.07 40.49 206.07 42.52 206.07 44.55 206.07 46.58 206.07 48.62 206.07 50.65 206.07 52.68 206.07 54.72 206.07 56.75 206.07 58.58 206.07 58.78 206.07 60.61 206.07 60.61 194.51 58.78 194.51 58.58 194.51 56.75 194.51 56.75 169.24 56.75 159.49 56.75 152.35 52.68 152.35 48.62 152.35 44.55 152.35 42.05 152.35 40.49 152.35 36.42 152.35 32.35 152.35 32.32 152.35 28.29 152.35 24.22 152.35 24.22 194.51"/><polygon points="24.22 194.51 22.19 194.51 22.19 194.51 20.16 194.51 20.16 206.07 22.19 206.07 22.19 206.07 24.22 206.07 26.25 206.07 28.29 206.07 30.32 206.07 32.35 206.07 34.39 206.07 36.42 206.07 38.45 206.07 40.49 206.07 42.52 206.07 44.55 206.07 46.58 206.07 48.62 206.07 50.65 206.07 52.68 206.07 54.72 206.07 56.75 206.07 58.58 206.07 58.78 206.07 60.61 206.07 60.61 194.51 58.78 194.51 58.58 194.51 56.75 194.51 56.75 169.24 56.75 159.49 56.75 152.35 52.68 152.35 48.62 152.35 44.55 152.35 42.05 152.35 40.49 152.35 36.42 152.35 32.35 152.35 32.32 152.35 28.29 152.35 24.22 152.35 24.22 194.51"/><rect class="cls-4" x="20.16" y="206.07" width="40.44" height="2.83"/><path class="cls-5" d="M152.66,145.16a6.36,6.36,0,0,0-1.82.27v-4.36a6,6,0,0,0,1.82.27,5.75,5.75,0,0,0,1.83-.28v4.38A6,6,0,0,0,152.66,145.16Z" transform="translate(-73.72 -84.07)"/><path class="cls-6" d="M152.66,141.34a6,6,0,0,1-1.82-.27v-.72h3.65v.71a5.75,5.75,0,0,1-1.83.28Z" transform="translate(-73.72 -84.07)"/><path class="cls-6" d="M154.49,146.14h-3.65v-.71a6.36,6.36,0,0,1,1.82-.27,6,6,0,0,1,1.83.28Z" transform="translate(-73.72 -84.07)"/><path class="cls-5" d="M166.83,145.16a6.29,6.29,0,0,0-1.81.27v-4.36a6,6,0,0,0,1.81.27,5.71,5.71,0,0,0,1.83-.28v4.38a6,6,0,0,0-1.83-.28Z" transform="translate(-73.72 -84.07)"/><path class="cls-6" d="M166.83,141.34a6,6,0,0,1-1.81-.27v-.72h3.64v.71A5.71,5.71,0,0,1,166.83,141.34Z" transform="translate(-73.72 -84.07)"/><path class="cls-6" d="M168.66,146.14H165v-.71a6.29,6.29,0,0,1,1.81-.27,6,6,0,0,1,1.83.28v.7Z" transform="translate(-73.72 -84.07)"/><path class="cls-5" d="M181,145.16a6.34,6.34,0,0,0-1.81.27v-4.36a6,6,0,0,0,1.81.27,5.71,5.71,0,0,0,1.83-.28v4.38A6,6,0,0,0,181,145.16Z" transform="translate(-73.72 -84.07)"/><path class="cls-6" d="M181,141.34a6,6,0,0,1-1.81-.27v-.72h3.64v.71a5.71,5.71,0,0,1-1.83.28Z" transform="translate(-73.72 -84.07)"/><path class="cls-6" d="M182.83,146.14h-3.64v-.71a6.34,6.34,0,0,1,1.81-.27,6,6,0,0,1,1.83.28Z" transform="translate(-73.72 -84.07)"/><path class="cls-5" d="M195.18,145.16a6.36,6.36,0,0,0-1.82.27v-4.36a6,6,0,0,0,1.82.27,5.75,5.75,0,0,0,1.83-.28v4.38A6,6,0,0,0,195.18,145.16Z" transform="translate(-73.72 -84.07)"/><path class="cls-6" d="M195.18,141.34a6,6,0,0,1-1.82-.27v-.72H197v.71a5.75,5.75,0,0,1-1.83.28Z" transform="translate(-73.72 -84.07)"/><path class="cls-6" d="M197,146.14h-3.65v-.71a6.36,6.36,0,0,1,1.82-.27,6,6,0,0,1,1.83.28v.7Z" transform="translate(-73.72 -84.07)"/><path class="cls-5" d="M209.35,145.16a6.29,6.29,0,0,0-1.81.27v-4.36a6,6,0,0,0,1.81.27,5.71,5.71,0,0,0,1.83-.28v4.38a6,6,0,0,0-1.83-.28Z" transform="translate(-73.72 -84.07)"/><path class="cls-6" d="M209.35,141.34a6,6,0,0,1-1.81-.27v-.72h3.64v.71A5.71,5.71,0,0,1,209.35,141.34Z" transform="translate(-73.72 -84.07)"/><path class="cls-6" d="M211.18,146.14h-3.64v-.71a6.29,6.29,0,0,1,1.81-.27,6,6,0,0,1,1.83.28v.7Z" transform="translate(-73.72 -84.07)"/><path class="cls-5" d="M223.52,145.16a6.29,6.29,0,0,0-1.81.27v-4.36a6,6,0,0,0,1.81.27,5.71,5.71,0,0,0,1.83-.28v4.38A6,6,0,0,0,223.52,145.16Z" transform="translate(-73.72 -84.07)"/><path class="cls-6" d="M223.52,141.34a6,6,0,0,1-1.81-.27v-.72h3.64v.71a5.71,5.71,0,0,1-1.83.28Z" transform="translate(-73.72 -84.07)"/><path class="cls-6" d="M225.35,146.14h-3.64v-.71a6.29,6.29,0,0,1,1.81-.27,6,6,0,0,1,1.83.28Z" transform="translate(-73.72 -84.07)"/><path class="cls-5" d="M237.7,145.16a6.36,6.36,0,0,0-1.82.27v-4.36a6,6,0,0,0,1.82.27,5.75,5.75,0,0,0,1.83-.28v4.38a6,6,0,0,0-1.83-.28Z" transform="translate(-73.72 -84.07)"/><path class="cls-6" d="M237.7,141.34a6,6,0,0,1-1.82-.27v-.72h3.65v.71A5.75,5.75,0,0,1,237.7,141.34Z" transform="translate(-73.72 -84.07)"/><path class="cls-6" d="M239.53,146.14h-3.65v-.71a6.36,6.36,0,0,1,1.82-.27,6,6,0,0,1,1.83.28v.7Z" transform="translate(-73.72 -84.07)"/><path class="cls-5" d="M251.87,145.16a6.29,6.29,0,0,0-1.81.27v-4.36a6,6,0,0,0,1.81.27,5.71,5.71,0,0,0,1.83-.28v4.38A6,6,0,0,0,251.87,145.16Z" transform="translate(-73.72 -84.07)"/><path class="cls-6" d="M251.87,141.34a6,6,0,0,1-1.81-.27v-.72h3.64v.71A5.71,5.71,0,0,1,251.87,141.34Z" transform="translate(-73.72 -84.07)"/><path class="cls-6" d="M253.7,146.14h-3.64v-.71a6.29,6.29,0,0,1,1.81-.27,6,6,0,0,1,1.83.28v.7Z" transform="translate(-73.72 -84.07)"/><path class="cls-5" d="M152.66,153.52a6.36,6.36,0,0,0-1.82.27v-4.36a6,6,0,0,0,1.82.27,5.75,5.75,0,0,0,1.83-.28v4.38A6,6,0,0,0,152.66,153.52Z" transform="translate(-73.72 -84.07)"/><path class="cls-6" d="M152.66,149.7a6,6,0,0,1-1.82-.27v-.72h3.65v.71a5.75,5.75,0,0,1-1.83.28Z" transform="translate(-73.72 -84.07)"/><path class="cls-6" d="M154.49,154.49h-3.65v-.7a6.36,6.36,0,0,1,1.82-.27,6,6,0,0,1,1.83.28Z" transform="translate(-73.72 -84.07)"/><path class="cls-5" d="M81.65,128.3a6.29,6.29,0,0,0-1.81.27v-4.36a6,6,0,0,0,1.81.27,5.71,5.71,0,0,0,1.83-.28v4.38a6,6,0,0,0-1.83-.28Z" transform="translate(-73.72 -84.07)"/><path class="cls-6" d="M81.65,124.48a6,6,0,0,1-1.81-.27v-.72h3.64v.71A5.71,5.71,0,0,1,81.65,124.48Z" transform="translate(-73.72 -84.07)"/><path class="cls-6" d="M83.48,129.28H79.84v-.71a6.29,6.29,0,0,1,1.81-.27,6,6,0,0,1,1.83.28Z" transform="translate(-73.72 -84.07)"/><path class="cls-7" d="M81.65,136.8a6,6,0,0,0-1.81.27v-4.36a6.29,6.29,0,0,0,1.81.27,6,6,0,0,0,1.83-.28v4.38a5.71,5.71,0,0,0-1.83-.28Z" transform="translate(-73.72 -84.07)"/><path class="cls-6" d="M81.65,133a6.29,6.29,0,0,1-1.81-.27V132h3.64v.71A6,6,0,0,1,81.65,133Z" transform="translate(-73.72 -84.07)"/><path class="cls-6" d="M83.48,137.77H79.84v-.7a6,6,0,0,1,1.81-.27,5.71,5.71,0,0,1,1.83.28Z" transform="translate(-73.72 -84.07)"/><path class="cls-5" d="M166.83,153.52a6.29,6.29,0,0,0-1.81.27v-4.36a6,6,0,0,0,1.81.27,5.71,5.71,0,0,0,1.83-.28v4.38a6,6,0,0,0-1.83-.28Z" transform="translate(-73.72 -84.07)"/><path class="cls-6" d="M166.83,149.7a6,6,0,0,1-1.81-.27v-.72h3.64v.71A5.71,5.71,0,0,1,166.83,149.7Z" transform="translate(-73.72 -84.07)"/><path class="cls-6" d="M168.66,154.49H165v-.7a6.29,6.29,0,0,1,1.81-.27,6,6,0,0,1,1.83.28v.69Z" transform="translate(-73.72 -84.07)"/><path class="cls-5" d="M181,153.52a6.34,6.34,0,0,0-1.81.27v-4.36a6,6,0,0,0,1.81.27,5.71,5.71,0,0,0,1.83-.28v4.38A6,6,0,0,0,181,153.52Z" transform="translate(-73.72 -84.07)"/><path class="cls-6" d="M181,149.7a6,6,0,0,1-1.81-.27v-.72h3.64v.71a5.71,5.71,0,0,1-1.83.28Z" transform="translate(-73.72 -84.07)"/><path class="cls-6" d="M182.83,154.49h-3.64v-.7a6.34,6.34,0,0,1,1.81-.27,6,6,0,0,1,1.83.28Z" transform="translate(-73.72 -84.07)"/><path class="cls-5" d="M195.18,153.52a6.36,6.36,0,0,0-1.82.27v-4.36a6,6,0,0,0,1.82.27,5.75,5.75,0,0,0,1.83-.28v4.38A6,6,0,0,0,195.18,153.52Z" transform="translate(-73.72 -84.07)"/><path class="cls-6" d="M195.18,149.7a6,6,0,0,1-1.82-.27v-.72H197v.71a5.75,5.75,0,0,1-1.83.28Z" transform="translate(-73.72 -84.07)"/><path class="cls-6" d="M197,154.49h-3.65v-.7a6.36,6.36,0,0,1,1.82-.27,6,6,0,0,1,1.83.28v.69Z" transform="translate(-73.72 -84.07)"/><path class="cls-5" d="M209.35,153.52a6.29,6.29,0,0,0-1.81.27v-4.36a6,6,0,0,0,1.81.27,5.71,5.71,0,0,0,1.83-.28v4.38a6,6,0,0,0-1.83-.28Z" transform="translate(-73.72 -84.07)"/><path class="cls-6" d="M209.35,149.7a6,6,0,0,1-1.81-.27v-.72h3.64v.71A5.71,5.71,0,0,1,209.35,149.7Z" transform="translate(-73.72 -84.07)"/><path class="cls-6" d="M211.18,154.49h-3.64v-.7a6.29,6.29,0,0,1,1.81-.27,6,6,0,0,1,1.83.28v.69Z" transform="translate(-73.72 -84.07)"/><path class="cls-5" d="M223.52,153.52a6.29,6.29,0,0,0-1.81.27v-4.36a6,6,0,0,0,1.81.27,5.71,5.71,0,0,0,1.83-.28v4.38A6,6,0,0,0,223.52,153.52Z" transform="translate(-73.72 -84.07)"/><path class="cls-6" d="M223.52,149.7a6,6,0,0,1-1.81-.27v-.72h3.64v.71a5.71,5.71,0,0,1-1.83.28Z" transform="translate(-73.72 -84.07)"/><path class="cls-6" d="M225.35,154.49h-3.64v-.7a6.29,6.29,0,0,1,1.81-.27,6,6,0,0,1,1.83.28Z" transform="translate(-73.72 -84.07)"/><path class="cls-5" d="M237.7,153.52a6.36,6.36,0,0,0-1.82.27v-4.36a6,6,0,0,0,1.82.27,5.75,5.75,0,0,0,1.83-.28v4.38a6,6,0,0,0-1.83-.28Z" transform="translate(-73.72 -84.07)"/><path class="cls-6" d="M237.7,149.7a6,6,0,0,1-1.82-.27v-.72h3.65v.71A5.75,5.75,0,0,1,237.7,149.7Z" transform="translate(-73.72 -84.07)"/><path class="cls-6" d="M239.53,154.49h-3.65v-.7a6.36,6.36,0,0,1,1.82-.27,6,6,0,0,1,1.83.28v.69Z" transform="translate(-73.72 -84.07)"/><path class="cls-5" d="M251.87,153.52a6.29,6.29,0,0,0-1.81.27v-4.36a6,6,0,0,0,1.81.27,5.71,5.71,0,0,0,1.83-.28v4.38A6,6,0,0,0,251.87,153.52Z" transform="translate(-73.72 -84.07)"/><path class="cls-6" d="M251.87,149.7a6,6,0,0,1-1.81-.27v-.72h3.64v.71A5.71,5.71,0,0,1,251.87,149.7Z" transform="translate(-73.72 -84.07)"/><path class="cls-6" d="M253.7,154.49h-3.64v-.7a6.29,6.29,0,0,1,1.81-.27,6,6,0,0,1,1.83.28v.69Z" transform="translate(-73.72 -84.07)"/><path class="cls-7" d="M152.66,136.8a6,6,0,0,0-1.82.27v-4.36a6.36,6.36,0,0,0,1.82.27,6,6,0,0,0,1.83-.28v4.38A5.75,5.75,0,0,0,152.66,136.8Z" transform="translate(-73.72 -84.07)"/><path class="cls-6" d="M152.66,133a6.36,6.36,0,0,1-1.82-.27V132h3.65v.71a6,6,0,0,1-1.83.28Z" transform="translate(-73.72 -84.07)"/><path class="cls-6" d="M154.49,137.77h-3.65v-.7a6,6,0,0,1,1.82-.27,5.75,5.75,0,0,1,1.83.28Z" transform="translate(-73.72 -84.07)"/><path class="cls-7" d="M166.83,136.8a6,6,0,0,0-1.81.27v-4.36a6.29,6.29,0,0,0,1.81.27,6,6,0,0,0,1.83-.28v4.38a5.71,5.71,0,0,0-1.83-.28Z" transform="translate(-73.72 -84.07)"/><path class="cls-6" d="M166.83,133a6.29,6.29,0,0,1-1.81-.27V132h3.64v.71A6,6,0,0,1,166.83,133Z" transform="translate(-73.72 -84.07)"/><path class="cls-6" d="M168.66,137.77H165v-.7a6,6,0,0,1,1.81-.27,5.71,5.71,0,0,1,1.83.28v.69Z" transform="translate(-73.72 -84.07)"/><path class="cls-7" d="M181,136.8a6,6,0,0,0-1.81.27v-4.36A6.34,6.34,0,0,0,181,133a6,6,0,0,0,1.83-.28v4.38A5.71,5.71,0,0,0,181,136.8Z" transform="translate(-73.72 -84.07)"/><path class="cls-6" d="M181,133a6.34,6.34,0,0,1-1.81-.27V132h3.64v.71A6,6,0,0,1,181,133Z" transform="translate(-73.72 -84.07)"/><path class="cls-6" d="M182.83,137.77h-3.64v-.7a6,6,0,0,1,1.81-.27,5.71,5.71,0,0,1,1.83.28Z" transform="translate(-73.72 -84.07)"/><path class="cls-7" d="M195.18,136.8a6,6,0,0,0-1.82.27v-4.36a6.36,6.36,0,0,0,1.82.27,6,6,0,0,0,1.83-.28v4.38A5.75,5.75,0,0,0,195.18,136.8Z" transform="translate(-73.72 -84.07)"/><path class="cls-6" d="M195.18,133a6.36,6.36,0,0,1-1.82-.27V132H197v.71a6,6,0,0,1-1.83.28Z" transform="translate(-73.72 -84.07)"/><path class="cls-6" d="M197,137.77h-3.65v-.7a6,6,0,0,1,1.82-.27,5.75,5.75,0,0,1,1.83.28v.69Z" transform="translate(-73.72 -84.07)"/><path class="cls-7" d="M209.35,136.8a6,6,0,0,0-1.81.27v-4.36a6.29,6.29,0,0,0,1.81.27,6,6,0,0,0,1.83-.28v4.38a5.71,5.71,0,0,0-1.83-.28Z" transform="translate(-73.72 -84.07)"/><path class="cls-6" d="M209.35,133a6.29,6.29,0,0,1-1.81-.27V132h3.64v.71A6,6,0,0,1,209.35,133Z" transform="translate(-73.72 -84.07)"/><path class="cls-6" d="M211.18,137.77h-3.64v-.7a6,6,0,0,1,1.81-.27,5.71,5.71,0,0,1,1.83.28v.69Z" transform="translate(-73.72 -84.07)"/><path class="cls-7" d="M223.52,136.8a6,6,0,0,0-1.81.27v-4.36a6.29,6.29,0,0,0,1.81.27,6,6,0,0,0,1.83-.28v4.38A5.71,5.71,0,0,0,223.52,136.8Z" transform="translate(-73.72 -84.07)"/><path class="cls-6" d="M223.52,133a6.29,6.29,0,0,1-1.81-.27V132h3.64v.71a6,6,0,0,1-1.83.28Z" transform="translate(-73.72 -84.07)"/><path class="cls-6" d="M225.35,137.77h-3.64v-.7a6,6,0,0,1,1.81-.27,5.71,5.71,0,0,1,1.83.28Z" transform="translate(-73.72 -84.07)"/><path class="cls-7" d="M237.7,136.8a6,6,0,0,0-1.82.27v-4.36a6.36,6.36,0,0,0,1.82.27,6,6,0,0,0,1.83-.28v4.38a5.75,5.75,0,0,0-1.83-.28Z" transform="translate(-73.72 -84.07)"/><path class="cls-6" d="M237.7,133a6.36,6.36,0,0,1-1.82-.27V132h3.65v.71A6,6,0,0,1,237.7,133Z" transform="translate(-73.72 -84.07)"/><path class="cls-6" d="M239.53,137.77h-3.65v-.7a6,6,0,0,1,1.82-.27,5.75,5.75,0,0,1,1.83.28v.69Z" transform="translate(-73.72 -84.07)"/><path class="cls-7" d="M251.87,136.8a6,6,0,0,0-1.81.27v-4.36a6.29,6.29,0,0,0,1.81.27,6,6,0,0,0,1.83-.28v4.38A5.71,5.71,0,0,0,251.87,136.8Z" transform="translate(-73.72 -84.07)"/><path class="cls-6" d="M251.87,133a6.29,6.29,0,0,1-1.81-.27V132h3.64v.71A6,6,0,0,1,251.87,133Z" transform="translate(-73.72 -84.07)"/><path class="cls-6" d="M253.7,137.77h-3.64v-.7a6,6,0,0,1,1.81-.27,5.71,5.71,0,0,1,1.83.28v.69Z" transform="translate(-73.72 -84.07)"/><rect class="cls-5" x="8.48" y="169.47" width="5.72" height="7.97"/><rect class="cls-8" x="9.8" y="167.91" width="3.09" height="1.56"/><rect class="cls-8" x="9.8" y="177.44" width="3.09" height="1.56"/><rect class="cls-3" x="4.07" y="90.24" width="14.47" height="22.97"/><rect class="cls-3" x="27.63" y="90.24" width="14.47" height="22.97"/><rect class="cls-3" x="51.19" y="90.24" width="14.47" height="22.97"/><rect class="cls-3" x="74.76" y="90.24" width="14.47" height="22.97"/><rect class="cls-3" x="98.32" y="90.24" width="14.47" height="22.97"/><rect class="cls-3" x="121.88" y="90.24" width="14.47" height="22.97"/><rect class="cls-3" x="145.45" y="90.24" width="14.47" height="22.97"/><rect class="cls-3" x="169.01" y="90.24" width="14.47" height="22.97"/><circle class="cls-8" cx="58.39" cy="102.62" r="4.13"/><path class="cls-5" d="M132.11,185.05c2.16,0,3.91,7,3.91,9.16a3.91,3.91,0,1,1-7.81,0C128.21,192.05,130,185.05,132.11,185.05Z" transform="translate(-73.72 -84.07)"/><circle class="cls-8" cx="11.34" cy="102.62" r="4.13"/><path class="cls-5" d="M85.06,185.05c2.16,0,3.91,7,3.91,9.16a3.91,3.91,0,1,1-7.82,0C81.15,192.05,82.9,185.05,85.06,185.05Z" transform="translate(-73.72 -84.07)"/><circle class="cls-8" cx="34.87" cy="102.62" r="4.13"/><path class="cls-5" d="M108.59,185.05c2.16,0,3.9,7,3.9,9.16a3.91,3.91,0,1,1-7.81,0C104.68,192.05,106.43,185.05,108.59,185.05Z" transform="translate(-73.72 -84.07)"/><circle class="cls-8" cx="81.92" cy="102.62" r="4.13"/><path class="cls-5" d="M155.64,185.05c2.16,0,3.91,7,3.91,9.16a3.91,3.91,0,0,1-7.82,0C151.73,192.05,153.48,185.05,155.64,185.05Z" transform="translate(-73.72 -84.07)"/><circle class="cls-8" cx="105.45" cy="102.62" r="4.13"/><path class="cls-5" d="M179.17,185.05c2.16,0,3.91,7,3.91,9.16a3.91,3.91,0,0,1-7.82,0C175.26,192.05,177,185.05,179.17,185.05Z" transform="translate(-73.72 -84.07)"/><circle class="cls-8" cx="128.98" cy="102.62" r="4.13"/><path class="cls-5" d="M202.7,185.05c2.16,0,3.9,7,3.9,9.16a3.91,3.91,0,1,1-7.81,0C198.79,192.05,200.54,185.05,202.7,185.05Z" transform="translate(-73.72 -84.07)"/><circle class="cls-8" cx="152.5" cy="102.62" r="4.13"/><path class="cls-5" d="M226.22,185.05c2.16,0,3.91,7,3.91,9.16a3.91,3.91,0,1,1-7.81,0C222.32,192.05,224.07,185.05,226.22,185.05Z" transform="translate(-73.72 -84.07)"/><circle class="cls-8" cx="176.03" cy="102.62" r="4.13"/><path class="cls-5" d="M249.75,185.05c2.16,0,3.91,7,3.91,9.16a3.91,3.91,0,1,1-7.81,0C245.85,192.05,247.59,185.05,249.75,185.05Z" transform="translate(-73.72 -84.07)"/><g id="Artwork_25" data-name="Artwork 25"><g id="LWPOLYLINE"><path class="cls-9" d="M210.68,104.49a3.27,3.27,0,1,1-3.28-3.28A3.28,3.28,0,0,1,210.68,104.49Z" transform="translate(-73.72 -84.07)"/><path class="cls-9" d="M223.44,104.49a3.27,3.27,0,1,1-3.26-3.28A3.26,3.26,0,0,1,223.44,104.49Z" transform="translate(-73.72 -84.07)"/><rect class="cls-9" x="126.38" y="7.63" width="27.39" height="7.17"/><rect class="cls-9" x="126.38" y="26.01" width="27.39" height="7.17"/></g><rect class="cls-10" x="126.37" y="30.59" width="27.39" height="2.6"/><path class="cls-11" d="M210.68,104.49a3.27,3.27,0,1,1-3.28-3.28A3.28,3.28,0,0,1,210.68,104.49Z" transform="translate(-73.72 -84.07)"/><path class="cls-11" d="M223.44,104.49a3.27,3.27,0,1,1-3.26-3.28A3.26,3.26,0,0,1,223.44,104.49Z" transform="translate(-73.72 -84.07)"/><path class="cls-10" d="M200.1,98.87v1.06l.22-.05,2-.41v2.66l-2-.41-.22,0v8.41h27.38V98.87Zm7.31,8.88a3.27,3.27,0,1,1,3.28-3.26A3.27,3.27,0,0,1,207.41,107.75Zm12.77,0a3.27,3.27,0,1,1,3.27-3.26A3.27,3.27,0,0,1,220.18,107.75Z" transform="translate(-73.72 -84.07)"/><g id="INSERT"><g id="CIRCLE-29"><path class="cls-12" d="M223.44,104.49a3.27,3.27,0,1,1-3.26-3.28A3.26,3.26,0,0,1,223.44,104.49Z" transform="translate(-73.72 -84.07)"/></g></g><g id="INSERT-2"><g id="CIRCLE-30"><path class="cls-12" d="M210.68,104.49a3.27,3.27,0,1,1-3.28-3.28A3.28,3.28,0,0,1,210.68,104.49Z" transform="translate(-73.72 -84.07)"/></g></g><rect class="cls-3" x="206.94" y="101.96" width="0.92" height="5.03" transform="translate(-97.13 46.04) rotate(-33.07)"/><rect class="cls-3" x="204.89" y="104.02" width="5.03" height="0.92" transform="matrix(0.84, -0.55, 0.55, 0.84, -97.14, 46.01)"/><rect class="cls-3" x="217.72" y="104.02" width="4.92" height="0.92" transform="translate(-69.33 133.68) rotate(-53.08)"/><rect class="cls-3" x="219.71" y="102.02" width="0.92" height="4.92" transform="translate(-69.35 133.65) rotate(-53.07)"/><polygon class="cls-13" points="124.21 27.11 124.21 29.77 126.37 29.31 126.37 27.57 124.21 27.11"/></g><g id="Artwork_25-2" data-name="Artwork 25-2"><g id="LWPOLYLINE-2"><path class="cls-9" d="M94.05,104.49a3.27,3.27,0,1,1-3.27-3.28A3.28,3.28,0,0,1,94.05,104.49Z" transform="translate(-73.72 -84.07)"/><path class="cls-9" d="M106.81,104.49a3.27,3.27,0,1,1-3.26-3.28A3.26,3.26,0,0,1,106.81,104.49Z" transform="translate(-73.72 -84.07)"/><rect class="cls-9" x="9.75" y="7.63" width="27.39" height="7.17"/><rect class="cls-9" x="9.75" y="26.01" width="27.39" height="7.17"/></g><rect class="cls-10" x="9.74" y="30.59" width="27.39" height="2.6"/><path class="cls-11" d="M94.05,104.49a3.27,3.27,0,1,1-3.27-3.28A3.28,3.28,0,0,1,94.05,104.49Z" transform="translate(-73.72 -84.07)"/><path class="cls-11" d="M106.81,104.49a3.27,3.27,0,1,1-3.26-3.28A3.26,3.26,0,0,1,106.81,104.49Z" transform="translate(-73.72 -84.07)"/><path class="cls-10" d="M83.47,98.87v1.06l2.16-.46v2.66l-2.16-.46v8.41h27.38V98.87Zm7.31,8.88a3.27,3.27,0,1,1,3.27-3.26A3.27,3.27,0,0,1,90.78,107.75Zm12.77,0a3.27,3.27,0,1,1,3.26-3.26A3.28,3.28,0,0,1,103.55,107.75Z" transform="translate(-73.72 -84.07)"/><g id="INSERT-3"><g id="CIRCLE-31"><path class="cls-12" d="M106.81,104.49a3.27,3.27,0,1,1-3.26-3.28A3.26,3.26,0,0,1,106.81,104.49Z" transform="translate(-73.72 -84.07)"/></g></g><g id="INSERT-4"><g id="CIRCLE-32"><path class="cls-12" d="M94.05,104.49a3.27,3.27,0,1,1-3.27-3.28A3.28,3.28,0,0,1,94.05,104.49Z" transform="translate(-73.72 -84.07)"/></g></g><rect class="cls-3" x="90.31" y="101.96" width="0.92" height="5.03" transform="translate(-116.03 -17.6) rotate(-33.07)"/><rect class="cls-3" x="88.26" y="104.02" width="5.03" height="0.92" transform="translate(-116.02 -17.62) rotate(-33.06)"/><rect class="cls-3" x="101.09" y="104.02" width="4.92" height="0.92" transform="translate(-115.9 40.44) rotate(-53.08)"/><rect class="cls-3" x="103.08" y="102.02" width="0.92" height="4.92" transform="translate(-115.91 40.41) rotate(-53.07)"/><polygon class="cls-13" points="7.58 27.11 7.58 29.77 9.74 29.31 9.74 27.57 7.58 27.11"/></g><g id="Artwork_25-3" data-name="Artwork 25-3"><g id="LWPOLYLINE-3"><path class="cls-9" d="M121.44,104.49a3.28,3.28,0,1,1-3.28-3.28A3.28,3.28,0,0,1,121.44,104.49Z" transform="translate(-73.72 -84.07)"/><path class="cls-9" d="M134.19,104.49a3.27,3.27,0,1,1-3.26-3.28A3.26,3.26,0,0,1,134.19,104.49Z" transform="translate(-73.72 -84.07)"/><rect class="cls-9" x="37.13" y="7.63" width="27.39" height="7.17"/><rect class="cls-9" x="37.13" y="26.01" width="27.39" height="7.17"/></g><rect class="cls-10" x="37.12" y="30.59" width="27.39" height="2.6"/><path class="cls-11" d="M121.44,104.49a3.28,3.28,0,1,1-3.28-3.28A3.28,3.28,0,0,1,121.44,104.49Z" transform="translate(-73.72 -84.07)"/><path class="cls-11" d="M134.19,104.49a3.27,3.27,0,1,1-3.26-3.28A3.26,3.26,0,0,1,134.19,104.49Z" transform="translate(-73.72 -84.07)"/><path class="cls-10" d="M110.85,98.87v1.06h0v1.74h0v8.41h27.38V98.87Zm7.31,8.88a3.27,3.27,0,1,1,3.28-3.26A3.27,3.27,0,0,1,118.16,107.75Zm12.77,0a3.27,3.27,0,1,1,3.26-3.26A3.28,3.28,0,0,1,130.93,107.75Z" transform="translate(-73.72 -84.07)"/><g id="INSERT-5"><g id="CIRCLE-33"><path class="cls-12" d="M134.19,104.49a3.27,3.27,0,1,1-3.26-3.28A3.26,3.26,0,0,1,134.19,104.49Z" transform="translate(-73.72 -84.07)"/></g></g><g id="INSERT-6"><g id="CIRCLE-34"><path class="cls-12" d="M121.44,104.49a3.28,3.28,0,1,1-3.28-3.28A3.28,3.28,0,0,1,121.44,104.49Z" transform="translate(-73.72 -84.07)"/></g></g><rect class="cls-3" x="117.7" y="101.96" width="0.92" height="5.03" transform="translate(-111.59 -2.66) rotate(-33.07)"/><rect class="cls-3" x="115.64" y="104.02" width="5.03" height="0.92" transform="translate(-111.59 -2.68) rotate(-33.06)"/><rect class="cls-3" x="128.47" y="104.02" width="4.92" height="0.92" transform="translate(-104.97 62.33) rotate(-53.08)"/><rect class="cls-3" x="130.47" y="102.02" width="0.92" height="4.92" transform="translate(-104.97 62.3) rotate(-53.07)"/></g><g id="Artwork_25-4" data-name="Artwork 25-4"><g id="LWPOLYLINE-4"><path class="cls-9" d="M156.14,104.49a3.28,3.28,0,1,1-3.28-3.28A3.28,3.28,0,0,1,156.14,104.49Z" transform="translate(-73.72 -84.07)"/><path class="cls-9" d="M168.9,104.49a3.27,3.27,0,1,1-3.27-3.28A3.27,3.27,0,0,1,168.9,104.49Z" transform="translate(-73.72 -84.07)"/><rect class="cls-9" x="71.83" y="7.63" width="27.39" height="7.17"/><rect class="cls-9" x="71.83" y="26.01" width="27.39" height="7.17"/></g><rect class="cls-10" x="71.82" y="30.59" width="27.39" height="2.6"/><path class="cls-11" d="M156.14,104.49a3.28,3.28,0,1,1-3.28-3.28A3.28,3.28,0,0,1,156.14,104.49Z" transform="translate(-73.72 -84.07)"/><path class="cls-11" d="M168.9,104.49a3.27,3.27,0,1,1-3.27-3.28A3.27,3.27,0,0,1,168.9,104.49Z" transform="translate(-73.72 -84.07)"/><path class="cls-10" d="M145.55,98.87v1.06l2.17-.46v2.66l-2.17-.46v8.41h27.38V98.87Zm7.31,8.88a3.27,3.27,0,1,1,3.28-3.26A3.27,3.27,0,0,1,152.86,107.75Zm12.77,0a3.27,3.27,0,1,1,3.27-3.26A3.27,3.27,0,0,1,165.63,107.75Z" transform="translate(-73.72 -84.07)"/><g id="INSERT-7"><g id="CIRCLE-35"><path class="cls-12" d="M168.9,104.49a3.27,3.27,0,1,1-3.27-3.28A3.27,3.27,0,0,1,168.9,104.49Z" transform="translate(-73.72 -84.07)"/></g></g><g id="INSERT-8"><g id="CIRCLE-36"><path class="cls-12" d="M156.14,104.49a3.28,3.28,0,1,1-3.28-3.28A3.28,3.28,0,0,1,156.14,104.49Z" transform="translate(-73.72 -84.07)"/></g></g><rect class="cls-3" x="152.4" y="101.96" width="0.92" height="5.03" transform="translate(-105.97 16.27) rotate(-33.07)"/><rect class="cls-3" x="150.34" y="104.02" width="5.03" height="0.92" transform="matrix(0.84, -0.55, 0.55, 0.84, -105.97, 16.25)"/><rect class="cls-3" x="163.17" y="104.02" width="4.92" height="0.92" transform="translate(-91.11 90.07) rotate(-53.08)"/><rect class="cls-3" x="165.17" y="102.02" width="0.92" height="4.92" transform="translate(-91.12 90.04) rotate(-53.07)"/><polygon class="cls-13" points="69.66 27.11 69.66 29.77 71.82 29.31 71.82 27.57 69.66 27.11"/></g><g id="Artwork_25-5" data-name="Artwork 25-5"><g id="LWPOLYLINE-5"><path class="cls-9" d="M183.52,104.49a3.27,3.27,0,1,1-3.27-3.28A3.28,3.28,0,0,1,183.52,104.49Z" transform="translate(-73.72 -84.07)"/><path class="cls-9" d="M196.28,104.49a3.27,3.27,0,1,1-3.26-3.28A3.26,3.26,0,0,1,196.28,104.49Z" transform="translate(-73.72 -84.07)"/><rect class="cls-9" x="99.22" y="7.63" width="27.39" height="7.17"/><rect class="cls-9" x="99.22" y="26.01" width="27.39" height="7.16"/></g><rect class="cls-10" x="99.21" y="30.59" width="27.39" height="2.6"/><path class="cls-11" d="M183.52,104.49a3.27,3.27,0,1,1-3.27-3.28A3.28,3.28,0,0,1,183.52,104.49Z" transform="translate(-73.72 -84.07)"/><path class="cls-11" d="M196.28,104.49a3.27,3.27,0,1,1-3.26-3.28A3.26,3.26,0,0,1,196.28,104.49Z" transform="translate(-73.72 -84.07)"/><path class="cls-10" d="M200.1,110.08h.22v-8.36l-.22,0Zm0-11.21v1.06l.22-.05v-1Z" transform="translate(-73.72 -84.07)"/><path class="cls-10" d="M200.32,99.88l-.22.05V98.87H172.94v11.21H200.1v-8.41l.22,0,2,.41V99.47Zm-20.07,7.87a3.27,3.27,0,1,1,3.27-3.26A3.27,3.27,0,0,1,180.25,107.75Zm12.77,0a3.27,3.27,0,1,1,3.26-3.26A3.28,3.28,0,0,1,193,107.75Z" transform="translate(-73.72 -84.07)"/><g id="INSERT-9"><g id="CIRCLE-37"><path class="cls-12" d="M196.28,104.49a3.27,3.27,0,1,1-3.26-3.28A3.26,3.26,0,0,1,196.28,104.49Z" transform="translate(-73.72 -84.07)"/></g></g><g id="INSERT-10"><g id="CIRCLE-38"><path class="cls-12" d="M183.52,104.49a3.27,3.27,0,1,1-3.27-3.28A3.28,3.28,0,0,1,183.52,104.49Z" transform="translate(-73.72 -84.07)"/></g></g><rect class="cls-3" x="179.78" y="101.96" width="0.92" height="5.03" transform="translate(-101.53 31.2) rotate(-33.07)"/><rect class="cls-3" x="177.72" y="104.02" width="5.04" height="0.92" transform="matrix(0.84, -0.55, 0.55, 0.84, -101.53, 31.19)"/><rect class="cls-3" x="190.55" y="104.02" width="4.92" height="0.92" transform="translate(-80.18 111.96) rotate(-53.08)"/><rect class="cls-3" x="192.55" y="102.02" width="0.92" height="4.92" transform="translate(-80.19 111.94) rotate(-53.08)"/></g><g id="Artwork_25-6" data-name="Artwork 25-6"><g id="LWPOLYLINE-6"><path class="cls-9" d="M238.06,104.49a3.27,3.27,0,1,1-3.27-3.28A3.27,3.27,0,0,1,238.06,104.49Z" transform="translate(-73.72 -84.07)"/><path class="cls-9" d="M250.82,104.49a3.27,3.27,0,1,1-3.26-3.28A3.26,3.26,0,0,1,250.82,104.49Z" transform="translate(-73.72 -84.07)"/><rect class="cls-9" x="153.76" y="7.63" width="27.39" height="7.17"/><rect class="cls-9" x="153.76" y="26.01" width="27.39" height="7.17"/></g><rect class="cls-10" x="153.75" y="30.59" width="27.39" height="2.6"/><path class="cls-11" d="M238.06,104.49a3.27,3.27,0,1,1-3.27-3.28A3.27,3.27,0,0,1,238.06,104.49Z" transform="translate(-73.72 -84.07)"/><path class="cls-11" d="M250.82,104.49a3.27,3.27,0,1,1-3.26-3.28A3.26,3.26,0,0,1,250.82,104.49Z" transform="translate(-73.72 -84.07)"/><path class="cls-10" d="M227.48,98.87v1.06h0v1.74h0v8.41h27.38V98.87Zm7.31,8.88a3.27,3.27,0,1,1,3.27-3.26A3.27,3.27,0,0,1,234.79,107.75Zm12.77,0a3.27,3.27,0,1,1,3.26-3.26A3.28,3.28,0,0,1,247.56,107.75Z" transform="translate(-73.72 -84.07)"/><g id="INSERT-11"><g id="CIRCLE-39"><path class="cls-12" d="M250.82,104.49a3.27,3.27,0,1,1-3.26-3.28A3.26,3.26,0,0,1,250.82,104.49Z" transform="translate(-73.72 -84.07)"/></g></g><g id="INSERT-12"><g id="CIRCLE-40"><path class="cls-12" d="M238.06,104.49a3.27,3.27,0,1,1-3.27-3.28A3.27,3.27,0,0,1,238.06,104.49Z" transform="translate(-73.72 -84.07)"/></g></g><rect class="cls-3" x="234.33" y="101.96" width="0.92" height="5.03" transform="translate(-92.7 60.96) rotate(-33.07)"/><rect class="cls-3" x="232.27" y="104.02" width="5.04" height="0.92" transform="matrix(0.84, -0.55, 0.55, 0.84, -92.7, 60.95)"/><rect class="cls-3" x="245.1" y="104.02" width="4.92" height="0.92" transform="translate(-58.4 155.57) rotate(-53.08)"/><rect class="cls-3" x="247.1" y="102.02" width="0.92" height="4.92" transform="translate(-58.41 155.55) rotate(-53.08)"/></g></svg>