<svg xmlns="http://www.w3.org/2000/svg" id="Livello_3" data-name="Livello 3" viewBox="0 0 199.21 149.53"><defs><style>.cls-1{fill:#007481}.cls-2{fill:#f27b40}.cls-3{fill:#eba900}.cls-4{fill:#e65300}.cls-5{fill:#fff}.cls-6{fill:#8b7866}.cls-7{fill:#9fa1a2}.cls-8{fill:#a1a3a4}.cls-9{fill:#8c9091}.cls-10{fill:#c1c3c3}.cls-13{fill:#2a312d}.cls-14{fill:#2e2200}.cls-15{fill:#787875}</style></defs><path d="M184.12 51.37c0-.76-.35-1.43-.88-1.88s-4.95-4.95-4.95-4.95c-.44-.44-.71-1.03-.74-1.68h-.01V13.65c0-1.37-1.11-2.47-2.47-2.47H8.57l-.25.04-.24.06-.24.09-.23.11-.22.12-.2.15-.19.17-.17.19-.15.2-.12.22-.11.23-.09.24-.06.24-.04.25v.25l-.01 133.18v.26l.05.25.06.24.09.25.11.23.12.22.15.2.17.19.19.17.2.15.22.13.23.11.24.09.24.06.25.04h.25l166.11.01h.26l.25-.05.25-.06.24-.09.23-.11.22-.13.2-.15.19-.17.17-.19.15-.2.13-.22.11-.23.09-.25.06-.24.04-.25v-.26l.01-3.99 5.84-5.84.04-.04c.43-.45.71-1.05.71-1.73z" class="cls-1"/><path d="m8.31 149.48-.24-.06-.25-.08-.23-.11-.22-.13-.2-.15-.19-.17-.17-.19-.15-.21-.13-.22-.11-.22-.09-.25-.06-.24-.04-.25-.01-.26V13.76l.01-.25.04-.25.06-.25.09-.24.11-.23.13-.22.15-.2.17-.2.19-.17.2-.15.22-.12.23-.12.25-.08.24-.06.25-.04.26-.01-.26.01-.25.04-.24.06-.25.08-.23.12-.22.12-.2.15-.19.17-.17.2-.15.2-.13.22-.11.23-.09.24-.06.25-.04.25-.01.25v133.18l.01.26.04.25.06.24.09.25.11.22.13.22.15.21.17.19.19.17.2.15.22.13.23.11.25.08zl.25.04.26.01-.26-.01z" class="cls-1"/><path d="M177.47 124.81c-2.73 0-4.96 2.23-4.96 4.96s2.23 4.96 4.96 4.96 4.96-2.23 4.96-4.96a4.96 4.96 0 0 0-4.96-4.96M44.84 12.8c-2.74 0-4.96 2.23-4.96 4.96s2.23 4.96 4.96 4.96 4.96-2.23 4.96-4.96-2.23-4.96-4.96-4.96M42.46 137.92c-2.74 0-4.96 2.23-4.96 4.96s2.23 4.96 4.96 4.96 4.96-2.23 4.96-4.96-2.23-4.96-4.96-4.96" class="cls-5"/><path d="M132.01 54.89v25.79h-25.77V54.89z" class="cls-1"/><path d="M132.01 54.89v25.79h-25.77V54.89z" class="cls-4"/><path d="M132.01 54.89v25.79h-25.77V54.89z" class="cls-14"/><path d="M108.98 50.93h.81v3.96h-.81zM110.27 50.93h.81v3.96h-.81zM111.56 50.93h.81v3.96h-.81zM112.86 50.93h.81v3.96h-.81zM114.15 50.93h.81v3.96h-.81zM115.45 50.93h.81v3.96h-.81zM116.74 50.93h.81v3.96h-.81zM118.04 50.93h.81v3.96h-.81zM119.33 50.93h.81v3.96h-.81zM120.63 50.93h.81v3.96h-.81zM121.92 50.93h.81v3.96h-.81zM123.22 50.93h.81v3.96h-.81zM124.51 50.93h.81v3.96h-.81zM125.8 50.93h.81v3.96h-.81zM127.1 50.93h.81v3.96h-.81zM128.39 50.93h.81v3.96h-.81zM108.98 80.68h.81v3.96h-.81zM110.27 80.68h.81v3.96h-.81zM111.56 80.68h.81v3.96h-.81zM112.86 80.68h.81v3.96h-.81zM114.15 80.68h.81v3.96h-.81zM115.45 80.68h.81v3.96h-.81zM116.74 80.68h.81v3.96h-.81zM118.04 80.68h.81v3.96h-.81zM119.33 80.68h.81v3.96h-.81zM120.63 80.68h.81v3.96h-.81zM121.92 80.68h.81v3.96h-.81zM123.22 80.68h.81v3.96h-.81zM124.51 80.68h.81v3.96h-.81zM125.8 80.68h.81v3.96h-.81zM127.1 80.68h.81v3.96h-.81zM128.39 80.68h.81v3.96h-.81zM102.28 57.67h3.96v.81h-3.96zM102.28 58.96h3.96v.81h-3.96zM102.28 60.26h3.96v.81h-3.96zM102.28 61.55h3.96v.81h-3.96zM102.28 62.85h3.96v.81h-3.96zM102.28 64.14h3.96v.81h-3.96zM102.28 65.44h3.96v.81h-3.96zM102.28 66.73h3.96v.81h-3.96zM102.28 68.03h3.96v.81h-3.96zM102.28 69.32h3.96v.81h-3.96zM102.28 70.62h3.96v.81h-3.96zM102.28 71.91h3.96v.81h-3.96zM102.28 73.2h3.96v.81h-3.96zM102.28 74.5h3.96v.81h-3.96zM102.28 75.79h3.96v.81h-3.96zM102.28 77.09h3.96v.81h-3.96zM132.01 57.67h3.96v.81h-3.96zM132.01 58.96h3.96v.81h-3.96zM132.01 60.26h3.96v.81h-3.96zM132.01 61.55h3.96v.81h-3.96zM132.01 62.85h3.96v.81h-3.96zM132.01 64.14h3.96v.81h-3.96zM132.01 65.44h3.96v.81h-3.96zM132.01 66.73h3.96v.81h-3.96zM132.01 68.03h3.96v.81h-3.96zM132.01 69.32h3.96v.81h-3.96zM132.01 70.62h3.96v.81h-3.96zM132.01 71.91h3.96v.81h-3.96zM132.01 73.2h3.96v.81h-3.96zM132.01 74.5h3.96v.81h-3.96zM132.01 75.79h3.96v.81h-3.96zM132.01 77.09h3.96v.81h-3.96z" class="cls-9"/><path d="M121.83 14.46h6.59v6.59h-6.59zM58.55 14.46h6.59v6.59h-6.59zM65.15 14.46v6.59h6.59v-6.59z" class="cls-1"/><path d="M71.73 14.46v6.59h6.59v-6.59z" class="cls-1"/><path d="M78.32 14.46v6.59h6.59v-6.59zM51.97 14.46v6.59h6.59v-6.59zM91.45 14.46v6.59h6.59v-6.59z" class="cls-1"/><path d="M84.86 14.46v6.59h6.59v-6.59zM98.03 14.46v6.59h6.59v-6.59zM111.21 14.46v6.59h6.59v-6.59zM117.8 14.46v6.59h4.03v-6.59z" class="cls-1"/><path d="M104.62 14.46v6.59h6.59v-6.59zM135 14.46v6.59h6.59v-6.59zM128.41 14.46v6.59H135v-6.59zM148.18 21.05v-6.59h-6.59v6.59M154.71 14.46v6.59h6.59v-6.59zM167.89 14.46v6.59h6.59v-6.59z" class="cls-1"/><path d="M148.13 14.46v6.59h6.59v-6.59zM161.3 14.46h6.59v6.59h-6.59z" class="cls-1"/><path d="M121.83 14.46h6.59v6.59h-6.59zM58.55 14.46h6.59v6.59h-6.59zM65.15 14.46v6.59h6.59v-6.59z" class="cls-4"/><path d="M71.73 14.46v6.59h6.59v-6.59z" class="cls-4"/><path d="M78.32 14.46v6.59h6.59v-6.59zM51.97 14.46v6.59h6.59v-6.59zM91.45 14.46v6.59h6.59v-6.59z" class="cls-4"/><path d="M84.86 14.46v6.59h6.59v-6.59zM98.03 14.46v6.59h6.59v-6.59zM111.21 14.46v6.59h6.59v-6.59zM117.8 14.46v6.59h4.03v-6.59z" class="cls-4"/><path d="M104.62 14.46v6.59h6.59v-6.59zM135 14.46v6.59h6.59v-6.59zM128.41 14.46v6.59H135v-6.59zM148.18 21.05v-6.59h-6.59v6.59M154.71 14.46v6.59h6.59v-6.59zM167.89 14.46v6.59h6.59v-6.59z" class="cls-4"/><path d="M148.13 14.46v6.59h6.59v-6.59zM161.3 14.46h6.59v6.59h-6.59z" class="cls-4"/><path d="M121.83 14.46h6.59v6.59h-6.59zM58.55 14.46h6.59v6.59h-6.59zM65.15 14.46v6.59h6.59v-6.59z" class="cls-14"/><path d="M71.73 14.46v6.59h6.59v-6.59z" class="cls-14"/><path d="M78.32 14.46v6.59h6.59v-6.59zM51.97 14.46v6.59h6.59v-6.59zM91.45 14.46v6.59h6.59v-6.59z" class="cls-14"/><path d="M84.86 14.46v6.59h6.59v-6.59zM98.03 14.46v6.59h6.59v-6.59zM111.21 14.46v6.59h6.59v-6.59zM117.8 14.46v6.59h4.03v-6.59z" class="cls-14"/><path d="M104.62 14.46v6.59h6.59v-6.59zM135 14.46v6.59h6.59v-6.59zM128.41 14.46v6.59H135v-6.59zM148.18 21.05v-6.59h-6.59v6.59M154.71 14.46v6.59h6.59v-6.59zM167.89 14.46v6.59h6.59v-6.59z" class="cls-14"/><path d="M148.13 14.46v6.59h6.59v-6.59zM161.3 14.46h6.59v6.59h-6.59z" class="cls-14"/><path d="M168.25 69.21v2.52l1.78 1.78v.51l-1.78 1.78v2.52l1.78 1.78v.51l-1.78 1.78v2.52l1.78 1.78h9.1l1.78-1.78v-2.52l-1.78-1.78v-.51l1.78-1.78V75.8l-1.78-1.78v-.51l1.78-1.78v-2.52l-1.78-1.78h-9.1z" class="cls-1"/><path d="M168.25 69.21v2.52l1.78 1.78v.51l-1.78 1.78v2.52l1.78 1.78v.51l-1.78 1.78v2.52l1.78 1.78h9.1l1.78-1.78v-2.52l-1.78-1.78v-.51l1.78-1.78V75.8l-1.78-1.78v-.51l1.78-1.78v-2.52l-1.78-1.78h-9.1z" class="cls-4"/><path d="M168.25 69.21v2.52l1.78 1.78v.51l-1.78 1.78v2.52l1.78 1.78v.51l-1.78 1.78v2.52l1.78 1.78h9.1l1.78-1.78v-2.52l-1.78-1.78v-.51l1.78-1.78V75.8l-1.78-1.78v-.51l1.78-1.78v-2.52l-1.78-1.78h-9.1z" class="cls-14"/><path d="M177.88 71.6c-.62 0-1.13-.51-1.13-1.13s.51-1.13 1.13-1.13 1.13.51 1.13 1.13-.51 1.13-1.13 1.13M171.29 84.78a1.129 1.129 0 1 1-.002-2.262 1.129 1.129 0 0 1 .002 2.262M171.29 78.19a1.129 1.129 0 1 1 1.13-1.13c0 .62-.5 1.13-1.13 1.13M171.29 71.6a1.129 1.129 0 1 1 1.13-1.13c0 .62-.5 1.13-1.13 1.13M177.88 84.78c-.62 0-1.13-.51-1.13-1.13s.51-1.13 1.13-1.13 1.13.51 1.13 1.13-.51 1.13-1.13 1.13M177.88 78.19c-.62 0-1.13-.51-1.13-1.13s.51-1.13 1.13-1.13 1.13.51 1.13 1.13-.51 1.13-1.13 1.13" class="cls-9"/><path d="M169.51 37.73v-1.37l-.96-.97h-4.96l-.97.97v1.37l.97.97v.28l-.97.97v1.37l.97.97v.28l-.97.97v1.37l.97.97-.97.97v1.37l.97.97v.28l-.97.96v1.38l.97.96h4.96l.96-.96v-1.38l-.96-.96v-.28l.96-.97v-1.37l-.96-.97.96-.97v-1.37l-.96-.97v-.28l.96-.97v-1.37l-.96-.97v-.28zm-5.24 14.01c-.34 0-.61-.28-.61-.62s.27-.62.61-.62.62.28.62.62-.28.62-.62.62m0-3.59c-.34 0-.61-.28-.61-.62s.27-.61.61-.61.62.27.62.61-.28.62-.62.62m3.59 3.59c-.34 0-.61-.28-.61-.62s.27-.62.61-.62.62.28.62.62-.28.62-.62.62m0-3.59c-.34 0-.61-.28-.61-.62s.27-.61.61-.61.62.27.62.61-.28.62-.62.62m0-11.72c.34 0 .62.28.62.62s-.28.61-.62.61-.61-.27-.61-.61.27-.62.61-.62m0 3.59c.34 0 .62.27.62.61s-.28.62-.62.62-.61-.28-.61-.62.27-.61.61-.61m0 3.59c.34 0 .62.27.62.61s-.28.62-.62.62-.61-.28-.61-.62.27-.61.61-.61m-3.59-7.18c.34 0 .62.28.62.62s-.28.61-.62.61-.61-.27-.61-.61.27-.62.61-.62m0 3.59c.34 0 .62.27.62.61s-.28.62-.62.62-.61-.28-.61-.62.27-.61.61-.61m0 3.59c.34 0 .62.27.62.61s-.28.62-.62.62-.61-.28-.61-.62.27-.61.61-.61" class="cls-1"/><path d="M164.89 51.12c0 .34-.28.62-.62.62s-.61-.28-.61-.62.27-.62.61-.62.62.28.62.62M164.89 47.53c0 .34-.28.62-.62.62s-.61-.28-.61-.62.27-.61.61-.61.62.27.62.61M168.48 51.12c0 .34-.28.62-.62.62s-.61-.28-.61-.62.27-.62.61-.62.62.28.62.62M167.25 47.53c0-.34.27-.61.61-.61s.62.27.62.61-.28.62-.62.62-.61-.28-.61-.62" class="cls-6"/><path d="M168.48 47.53c0 .34-.28.62-.62.62s-.61-.28-.61-.62.27-.61.61-.61.62.27.62.61M164.89 51.12c0 .34-.28.62-.62.62s-.61-.28-.61-.62.27-.62.61-.62.62.28.62.62M164.89 47.53c0 .34-.28.62-.62.62s-.61-.28-.61-.62.27-.61.61-.61.62.27.62.61M168.48 51.12c0 .34-.28.62-.62.62s-.61-.28-.61-.62.27-.62.61-.62.62.28.62.62" class="cls-9"/><path d="M164.89 44.22c0 .34-.28.62-.62.62s-.61-.28-.61-.62.27-.61.61-.61.62.27.62.61M164.89 40.63c0 .34-.28.62-.62.62s-.61-.28-.61-.62.27-.61.61-.61.62.27.62.61M164.89 37.05c0 .34-.28.61-.62.61s-.61-.27-.61-.61.27-.62.61-.62.62.28.62.62M168.48 44.22c0 .34-.28.62-.62.62s-.61-.28-.61-.62.27-.61.61-.61.62.27.62.61M168.48 40.63c0 .34-.28.62-.62.62s-.61-.28-.61-.62.27-.61.61-.61.62.27.62.61M167.25 37.05c0-.34.27-.62.61-.62s.62.28.62.62-.28.61-.62.61-.61-.27-.61-.61" class="cls-6"/><path d="M168.48 37.05c0 .34-.28.61-.62.61s-.61-.27-.61-.61.27-.62.61-.62.62.28.62.62M164.89 44.22c0 .34-.28.62-.62.62s-.61-.28-.61-.62.27-.61.61-.61.62.27.62.61M164.89 40.63c0 .34-.28.62-.62.62s-.61-.28-.61-.62.27-.61.61-.61.62.27.62.61M164.89 37.05c0 .34-.28.61-.62.61s-.61-.27-.61-.61.27-.62.61-.62.62.28.62.62M168.48 44.22c0 .34-.28.62-.62.62s-.61-.28-.61-.62.27-.61.61-.61.62.27.62.61M168.48 40.63c0 .34-.28.62-.62.62s-.61-.28-.61-.62.27-.61.61-.61.62.27.62.61" class="cls-9"/><path d="M169.51 37.73v-1.37l-.96-.97h-4.96l-.97.97v1.37l.97.97v.28l-.97.97v1.37l.97.97v.28l-.97.97v1.37l.97.97-.97.97v1.37l.97.97v.28l-.97.96v1.38l.97.96h4.96l.96-.96v-1.38l-.96-.96v-.28l.96-.97v-1.37l-.96-.97.96-.97v-1.37l-.96-.97v-.28l.96-.97v-1.37l-.96-.97v-.28zm-5.24 14.01c-.34 0-.61-.28-.61-.62s.27-.62.61-.62.62.28.62.62-.28.62-.62.62m0-3.59c-.34 0-.61-.28-.61-.62s.27-.61.61-.61.62.27.62.61-.28.62-.62.62m3.59 3.59c-.34 0-.61-.28-.61-.62s.27-.62.61-.62.62.28.62.62-.28.62-.62.62m0-3.59c-.34 0-.61-.28-.61-.62s.27-.61.61-.61.62.27.62.61-.28.62-.62.62m0-11.72c.34 0 .62.28.62.62s-.28.61-.62.61-.61-.27-.61-.61.27-.62.61-.62m0 3.59c.34 0 .62.27.62.61s-.28.62-.62.62-.61-.28-.61-.62.27-.61.61-.61m0 3.59c.34 0 .62.27.62.61s-.28.62-.62.62-.61-.28-.61-.62.27-.61.61-.61m-3.59-7.18c.34 0 .62.28.62.62s-.28.61-.62.61-.61-.27-.61-.61.27-.62.61-.62m0 3.59c.34 0 .62.27.62.61s-.28.62-.62.62-.61-.28-.61-.62.27-.61.61-.61m0 3.59c.34 0 .62.27.62.61s-.28.62-.62.62-.61-.28-.61-.62.27-.61.61-.61" class="cls-4"/><path d="M169.51 37.73v-1.37l-.96-.97h-4.96l-.97.97v1.37l.97.97v.28l-.97.97v1.37l.97.97v.28l-.97.97v1.37l.92.92.05.05-.97.97v1.37l.97.97v.28l-.97.96v1.38l.97.96h4.96l.96-.96v-1.38l-.96-.96v-.28l.96-.97v-1.37l-.96-.97.96-.97v-1.37l-.96-.97v-.28l.96-.97v-1.37l-.96-.97v-.28zm-5.24 14.01c-.34 0-.61-.28-.61-.62s.27-.62.61-.62.62.28.62.62-.28.62-.62.62m0-3.59c-.34 0-.61-.28-.61-.62s.27-.61.61-.61.62.27.62.61-.28.62-.62.62m3.59 3.59c-.34 0-.61-.28-.61-.62s.27-.62.61-.62.62.28.62.62-.28.62-.62.62m0-3.59c-.34 0-.61-.28-.61-.62s.27-.61.61-.61.62.27.62.61-.28.62-.62.62m0-11.72c.34 0 .62.28.62.62s-.28.61-.62.61-.61-.27-.61-.61.27-.62.61-.62m0 3.59c.34 0 .62.27.62.61s-.28.62-.62.62-.61-.28-.61-.62.27-.61.61-.61m0 3.59c.34 0 .62.27.62.61s-.28.62-.62.62-.61-.28-.61-.62.27-.61.61-.61m-3.59-7.18c.34 0 .62.28.62.62s-.28.61-.62.61-.61-.27-.61-.61.27-.62.61-.62m0 3.59c.34 0 .62.27.62.61s-.28.62-.62.62-.61-.28-.61-.62.27-.61.61-.61m0 3.59c.34 0 .62.27.62.61s-.28.62-.62.62-.61-.28-.61-.62.27-.61.61-.61" class="cls-14"/><path d="M164.89 51.12c0 .34-.28.62-.62.62s-.61-.28-.61-.62.27-.62.61-.62.62.28.62.62M164.89 47.53c0 .34-.28.62-.62.62s-.61-.28-.61-.62.27-.61.61-.61.62.27.62.61M168.48 51.12c0 .34-.28.62-.62.62s-.61-.28-.61-.62.27-.62.61-.62.62.28.62.62M167.25 47.53c0-.34.27-.61.61-.61s.62.27.62.61-.28.62-.62.62-.61-.28-.61-.62" class="cls-6"/><path d="M168.48 47.53c0 .34-.28.62-.62.62s-.61-.28-.61-.62.27-.61.61-.61.62.27.62.61M164.89 51.12c0 .34-.28.62-.62.62s-.61-.28-.61-.62.27-.62.61-.62.62.28.62.62M164.89 47.53c0 .34-.28.62-.62.62s-.61-.28-.61-.62.27-.61.61-.61.62.27.62.61M168.48 51.12c0 .34-.28.62-.62.62s-.61-.28-.61-.62.27-.62.61-.62.62.28.62.62" class="cls-9"/><path d="M164.89 44.22c0 .34-.28.62-.62.62s-.61-.28-.61-.62.27-.61.61-.61.62.27.62.61M164.89 40.63c0 .34-.28.62-.62.62s-.61-.28-.61-.62.27-.61.61-.61.62.27.62.61M164.89 37.05c0 .34-.28.61-.62.61s-.61-.27-.61-.61.27-.62.61-.62.62.28.62.62M168.48 44.22c0 .34-.28.62-.62.62s-.61-.28-.61-.62.27-.61.61-.61.62.27.62.61M168.48 40.63c0 .34-.28.62-.62.62s-.61-.28-.61-.62.27-.61.61-.61.62.27.62.61M167.25 37.05c0-.34.27-.62.61-.62s.62.28.62.62-.28.61-.62.61-.61-.27-.61-.61" class="cls-6"/><path d="M168.48 37.05c0 .34-.28.61-.62.61s-.61-.27-.61-.61.27-.62.61-.62.62.28.62.62M164.89 44.22c0 .34-.28.62-.62.62s-.61-.28-.61-.62.27-.61.61-.61.62.27.62.61M164.89 40.63c0 .34-.28.62-.62.62s-.61-.28-.61-.62.27-.61.61-.61.62.27.62.61M164.89 37.05c0 .34-.28.61-.62.61s-.61-.27-.61-.61.27-.62.61-.62.62.28.62.62M168.48 44.22c0 .34-.28.62-.62.62s-.61-.28-.61-.62.27-.61.61-.61.62.27.62.61M168.48 40.63c0 .34-.28.62-.62.62s-.61-.28-.61-.62.27-.61.61-.61.62.27.62.61M14.47 13.34h15.56V28.9H14.47z" class="cls-9"/><path d="M10.15 25.61h3.29v3.29h-3.29z" class="cls-7"/><path d="M14 26.6h-2.2v1.29h4.41V26.6z" class="cls-6"/><path d="M31.07 25.61h3.29v3.29h-3.29z" class="cls-7"/><path d="M30.51 27.93h2.2v-1.3H28.3v1.3z" class="cls-6"/><path d="M10.15 13.34h3.29v3.29h-3.29z" class="cls-7"/><path d="M14 14.33h-2.2v1.3h4.41v-1.3z" class="cls-6"/><path d="M31.07 13.34h3.29v3.29h-3.29z" class="cls-7"/><path d="M30.51 15.65h2.2v-1.29H28.3v1.29z" class="cls-6"/><path d="M31.07 19.48h3.29v3.29h-3.29z" class="cls-7"/><path d="M30.51 21.79h2.2v-1.3H28.3v1.3z" class="cls-6"/><path d="M26.51 21.13c0 2.35-1.9 4.26-4.26 4.26s-4.26-1.91-4.26-4.26 1.91-4.26 4.26-4.26 4.26 1.91 4.26 4.26" style="fill:#e0e1e1"/><path d="M88.61 139.64v6.59h6.59v-6.59zM95.2 139.64v6.59h6.59v-6.59zM101.79 139.64v6.59h6.59v-6.59z" class="cls-1"/><path d="M108.38 139.64v6.59h6.59v-6.59zM114.97 139.64v6.59h6.59v-6.59zM121.56 139.64v6.59h6.59v-6.59zM128.15 139.64v6.59h6.59v-6.59zM82.05 139.64v6.59h6.59v-6.59z" class="cls-1"/><path d="M75.5 139.64v6.59h6.59v-6.59zM134.73 139.64v6.59h6.59v-6.59zM141.32 139.64v6.59h6.59v-6.59zM147.91 139.64v6.59h6.59v-6.59zM154.5 139.64v6.59h6.59v-6.59zM161.09 139.64v6.59h6.59v-6.59zM167.68 139.64v6.59h6.59v-6.59z" class="cls-1"/><path d="M88.61 139.64v6.59h6.59v-6.59zM95.2 139.64v6.59h6.59v-6.59zM101.79 139.64v6.59h6.59v-6.59z" class="cls-4"/><path d="M108.38 139.64v6.59h6.59v-6.59zM114.97 139.64v6.59h6.59v-6.59zM121.56 139.64v6.59h6.59v-6.59zM128.15 139.64v6.59h6.59v-6.59zM82.05 139.64v6.59h6.59v-6.59z" class="cls-4"/><path d="M75.5 139.64v6.59h6.59v-6.59zM134.73 139.64v6.59h6.59v-6.59zM141.32 139.64v6.59h6.59v-6.59zM147.91 139.64v6.59h6.59v-6.59zM154.5 139.64v6.59h6.59v-6.59zM161.09 139.64v6.59h6.59v-6.59zM167.68 139.64v6.59h6.59v-6.59z" class="cls-4"/><path d="M88.61 139.64v6.59h6.59v-6.59zM95.2 139.64v6.59h6.59v-6.59zM101.79 139.64v6.59h6.59v-6.59z" class="cls-13"/><path d="M108.38 139.64v6.59h6.59v-6.59zM114.97 139.64v6.59h6.59v-6.59zM121.56 139.64v6.59h6.59v-6.59zM128.15 139.64v6.59h6.59v-6.59zM82.05 139.64v6.59h6.59v-6.59z" class="cls-13"/><path d="M75.5 139.64v6.59h6.59v-6.59zM134.73 139.64v6.59h6.59v-6.59zM141.32 139.64v6.59h6.59v-6.59zM147.91 139.64v6.59h6.59v-6.59zM154.5 139.64v6.59h6.59v-6.59zM161.09 139.64v6.59h6.59v-6.59zM167.68 139.64v6.59h6.59v-6.59z" class="cls-13"/><path d="M93.54 141.28h-3.29v3.31h3.29v-3.31M100.13 141.28h-3.29v3.31h3.29v-3.31M106.72 141.28h-3.29v3.31h3.29v-3.31M113.31 141.28h-3.29v3.31h3.29v-3.31M119.9 141.28h-3.29v3.31h3.29v-3.31M126.5 141.28h-3.3v3.31h3.3v-3.31M86.99 141.28h-3.3v3.31h3.3v-3.31M80.43 141.28h-3.29v3.31h3.29v-3.31M139.66 141.28h-3.29v3.31h3.29v-3.31M146.25 141.28h-3.29v3.31h3.29v-3.31M152.84 141.28h-3.29v3.31h3.29v-3.31M159.43 141.28h-3.29v3.31h3.29v-3.31M166.03 141.28h-3.3v3.31h3.3v-3.31M172.62 141.28h-3.3v3.31h3.3v-3.31M69.81 16.11h-3.3v3.3h3.3v-3.3M63.21 16.11h-3.3v3.3h3.3v-3.3M56.63 16.11h-3.3v3.3h3.3v-3.3M96.11 16.11h-3.3v3.3h3.3v-3.3M112.58 16.11l-.01 3.29h3.31v-3.29h-3.3M99.39 16.11v3.29h3.3v-3.29zM86.22 16.11v3.29h3.3v-3.29h-3.3M79.69 16.11l-.01 3.29h3.31v-3.29h-3.3M73.1 16.11v3.29h3.3v-3.29h-3.3M139.66 16.11h-3.29v3.3h3.29v-3.3M129.78 16.11v3.29h3.3v-3.29h-3.3M123.19 16.11v3.29h3.3v-3.29h-3.3M142.95 16.11v3.29h3.3v-3.29zM149.49 16.11v3.29h3.3v-3.29h-3.3M156.08 16.11l-.01 3.29h3.31v-3.29h-3.3M162.66 16.11v3.29h3.3v-3.29h-3.3M169.25 16.11v3.29h3.3v-3.29zM105.99 16.11l-.01 3.29h3.31v-3.29h-3.3" class="cls-6"/><path d="M35.02 49.92v-1.63H27.5v3.25h7.52z" class="cls-1"/><path d="M35.02 49.92v-1.63H27.5v3.25h7.52z" class="cls-4"/><path d="M35.02 49.92v-1.63H27.5v3.25h7.52z" class="cls-14"/><path d="M27.85 51.54v1.62c0 .28.22.5.5.5h1.7c.28 0 .5-.22.5-.5v-1.62zM32.84 51.54v1.62c0 .28.14.5.31.5h1.06c.17 0 .31-.22.31-.5v-1.62zM34.52 48.29v-1.62c0-.28-.14-.5-.31-.5h-1.06c-.17 0-.31.22-.31.5v1.62zM29.53 48.29v-1.62c0-.28-.14-.5-.31-.5h-1.06c-.17 0-.31.22-.31.5v1.62z" class="cls-9"/><path d="M177.47 52.33c-2.73 0-4.96 2.22-4.96 4.96s2.23 4.96 4.96 4.96 4.96-2.23 4.96-4.96a4.96 4.96 0 0 0-4.96-4.96" class="cls-5"/><path d="M12.41 98.58h12.4v12.4h-12.4z" class="cls-9"/><path d="M27.24 93.16h7.8v10.25h-7.8z" class="cls-1"/><path d="M27.24 93.16h7.8v10.25h-7.8z" class="cls-4"/><path d="M27.24 93.16h7.8v10.25h-7.8z" class="cls-14"/><path d="M26.66 94.78h.58v.58h-.58zM26.66 96.06h.58v.58h-.58zM26.66 97.35h.58v.58h-.58zM26.66 98.64h.58v.58h-.58zM26.66 99.92h.58v.58h-.58zM26.66 101.21h.58v.58h-.58zM35.04 94.78h.58v.58h-.58zM35.04 96.06h.58v.58h-.58zM35.04 97.35h.58v.58h-.58zM35.04 98.64h.58v.58h-.58zM35.04 99.92h.58v.58h-.58zM35.04 101.21h.58v.58h-.58z" class="cls-9"/><path d="M34.52 73.73h1.51c.38 0 .69.31.69.69v1.75c0 .38-.31.69-.69.69h-1.51zM27.5 76.87h-1.2c-.35 0-.63-.28-.63-.63v-1.87c0-.35.28-.63.63-.63h1.2z" class="cls-8"/><path d="M34.52 75.25v-1.97H27.5v3.93h7.02z" class="cls-1"/><path d="M34.52 75.25v-1.97H27.5v3.93h7.02z" class="cls-4"/><path d="M34.52 75.25v-1.97H27.5v3.93h7.02z" class="cls-14"/><path d="M34.52 80.66h1.51c.38 0 .69.31.69.69v1.75c0 .38-.31.69-.69.69h-1.51zM27.5 83.79h-1.2c-.35 0-.63-.28-.63-.63v-1.87c0-.35.28-.63.63-.63h1.2z" class="cls-8"/><path d="M34.52 82.17v-1.96H27.5v3.93h7.02z" class="cls-1"/><path d="M34.52 82.17v-1.96H27.5v3.93h7.02z" class="cls-4"/><path d="M34.52 82.17v-1.96H27.5v3.93h7.02z" class="cls-14"/><path d="M62.63 102.93v1.75h-1.95v1.95h-1.76v-1.95h-1.94v-1.75h1.94v-1.95h1.76v1.95z" class="cls-9"/><circle cx="44.16" cy="72.48" r="1.53" class="cls-9"/><circle cx="51.97" cy="127.04" r="2.02" class="cls-9"/><circle cx="44.54" cy="95.97" r="1.05" class="cls-9"/><circle cx="22.97" cy="82.24" r="1.17" class="cls-9"/><circle cx="24.15" cy="88.1" r="1.2" class="cls-9"/><path d="M49 56.28h5.65v1.75H49z" class="cls-9"/><path d="M95.9 76.19c0-.48-.09-.95-.26-1.38h4.26a3.76 3.76 0 0 0 .01 2.77h-4.28c.18-.43.27-.9.27-1.39" class="cls-6"/><path d="M99.64 76.19c0-.48.09-.95.26-1.38h.7v2.77h-.69c-.18-.43-.27-.9-.27-1.39M94.95 77.59v-2.77h.69a3.76 3.76 0 0 1-.01 2.77z" class="cls-10"/><path d="M124.36 43.76c.48 0 .95-.09 1.38-.26v4.26a3.76 3.76 0 0 0-2.77.01v-4.28c.43.18.9.27 1.39.27" class="cls-6"/><path d="M124.36 47.5c.48 0 .95.09 1.38.26v.7h-2.77v-.69c.43-.18.9-.27 1.39-.27M122.97 42.81h2.77v.69a3.76 3.76 0 0 1-2.77-.01z" class="cls-10"/><path d="M95.9 58.54c0-.48-.09-.95-.26-1.38h4.26a3.76 3.76 0 0 0 .01 2.77h-4.28c.18-.43.27-.9.27-1.39" class="cls-6"/><path d="M99.64 58.54c0-.48.09-.95.26-1.38h.7v2.77h-.69c-.18-.43-.27-.9-.27-1.39M94.95 59.93v-2.77h.69a3.76 3.76 0 0 1-.01 2.77z" class="cls-10"/><path d="M140.14 61.71c0-.48-.09-.95-.26-1.38h4.26c-.17.43-.26.9-.26 1.38 0 .49.09.96.27 1.39h-4.28c.18-.43.27-.9.27-1.39" class="cls-1"/><path d="M140.14 61.71c0-.48-.09-.95-.26-1.38h4.26c-.17.43-.26.9-.26 1.38 0 .49.09.96.27 1.39h-4.28c.18-.43.27-.9.27-1.39" class="cls-4"/><path d="M140.14 61.71c0-.48-.09-.95-.26-1.38h4.26c-.17.43-.26.9-.26 1.38 0 .49.09.96.27 1.39h-4.28c.18-.43.27-.9.27-1.39" class="cls-14"/><path d="M143.88 61.71c0-.48.09-.95.26-1.38h.7v2.77h-.69c-.18-.43-.27-.9-.27-1.39M139.19 63.11v-2.77h.69a3.76 3.76 0 0 1-.01 2.77z" class="cls-10"/><path d="M140.14 65.33c0-.48-.09-.95-.26-1.38h4.26c-.17.43-.26.9-.26 1.38 0 .49.09.96.27 1.39h-4.28c.18-.43.27-.9.27-1.39" class="cls-1"/><path d="M140.14 65.33c0-.48-.09-.95-.26-1.38h4.26c-.17.43-.26.9-.26 1.38 0 .49.09.96.27 1.39h-4.28c.18-.43.27-.9.27-1.39" class="cls-4"/><path d="M140.14 65.33c0-.48-.09-.95-.26-1.38h4.26c-.17.43-.26.9-.26 1.38 0 .49.09.96.27 1.39h-4.28c.18-.43.27-.9.27-1.39" class="cls-14"/><path d="M143.88 65.33c0-.48.09-.95.26-1.38h.7v2.77h-.69c-.18-.43-.27-.9-.27-1.39M139.19 66.72v-2.77h.69a3.76 3.76 0 0 1-.01 2.77z" class="cls-10"/><path d="M99.95 72.89c0 .33.06.64.18.94h-2.89c.11-.29.18-.61.18-.94s-.06-.65-.19-.94h2.91c-.12.29-.19.61-.19.94" class="cls-1"/><path d="M99.95 72.89c0 .33.06.64.18.94h-2.89c.11-.29.18-.61.18-.94s-.06-.65-.19-.94h2.91c-.12.29-.19.61-.19.94" class="cls-4"/><path d="M99.95 72.89c0 .33.06.64.18.94h-2.89c.11-.29.18-.61.18-.94s-.06-.65-.19-.94h2.91c-.12.29-.19.61-.19.94" class="cls-14"/><path d="M97.42 72.89c0 .33-.06.64-.18.94h-.48v-1.88h.47c.12.29.19.61.19.94M100.6 71.94v1.88h-.47c-.11-.29-.18-.61-.18-.94s.06-.65.19-.94z" class="cls-10"/><path d="M99.95 70.01c0 .33.06.64.18.94h-2.89c.11-.29.18-.61.18-.94s-.06-.65-.19-.94h2.91c-.12.29-.19.61-.19.94" class="cls-1"/><path d="M99.95 70.01c0 .33.06.64.18.94h-2.89c.11-.29.18-.61.18-.94s-.06-.65-.19-.94h2.91c-.12.29-.19.61-.19.94" class="cls-4"/><path d="M99.95 70.01c0 .33.06.64.18.94h-2.89c.11-.29.18-.61.18-.94s-.06-.65-.19-.94h2.91c-.12.29-.19.61-.19.94" class="cls-14"/><path d="M97.42 70.01c0 .33-.06.64-.18.94h-.48v-1.88h.47c.12.29.19.61.19.94M100.6 69.07v1.88h-.47c-.11-.29-.18-.61-.18-.94s.06-.65.19-.94z" class="cls-10"/><path d="M159.26 50.66c0 .33.06.64.18.94h-2.89c.11-.29.18-.61.18-.94s-.06-.65-.19-.94h2.91c-.12.29-.19.61-.19.94" class="cls-1"/><path d="M159.26 50.66c0 .33.06.64.18.94h-2.89c.11-.29.18-.61.18-.94s-.06-.65-.19-.94h2.91c-.12.29-.19.61-.19.94" class="cls-4"/><path d="M159.26 50.66c0 .33.06.64.18.94h-2.89c.11-.29.18-.61.18-.94s-.06-.65-.19-.94h2.91c-.12.29-.19.61-.19.94" class="cls-14"/><path d="M156.73 50.66c0 .33-.06.64-.18.94h-.48v-1.88h.47c.12.29.19.61.19.94M159.9 49.72v1.88h-.47c-.11-.29-.18-.61-.18-.94s.06-.65.19-.94z" class="cls-10"/><path d="M142.37 79.52c0 .33.06.64.18.94h-2.89c.11-.29.18-.61.18-.94s-.06-.65-.19-.94h2.91c-.12.29-.19.61-.19.94" class="cls-1"/><path d="M142.37 79.52c0 .33.06.64.18.94h-2.89c.11-.29.18-.61.18-.94s-.06-.65-.19-.94h2.91c-.12.29-.19.61-.19.94" class="cls-4"/><path d="M142.37 79.52c0 .33.06.64.18.94h-2.89c.11-.29.18-.61.18-.94s-.06-.65-.19-.94h2.91c-.12.29-.19.61-.19.94" class="cls-14"/><path d="M139.84 79.52c0 .33-.06.64-.18.94h-.48v-1.88h.47c.12.29.19.61.19.94M143.02 78.58v1.88h-.47c-.11-.29-.18-.61-.18-.94s.06-.65.19-.94z" class="cls-10"/><path d="M142.37 76.65c0 .33.06.64.18.94h-2.89c.11-.29.18-.61.18-.94s-.06-.65-.19-.94h2.91c-.12.29-.19.61-.19.94" class="cls-1"/><path d="M142.37 76.65c0 .33.06.64.18.94h-2.89c.11-.29.18-.61.18-.94s-.06-.65-.19-.94h2.91c-.12.29-.19.61-.19.94" class="cls-4"/><path d="M142.37 76.65c0 .33.06.64.18.94h-2.89c.11-.29.18-.61.18-.94s-.06-.65-.19-.94h2.91c-.12.29-.19.61-.19.94" class="cls-14"/><path d="M139.84 76.65c0 .33-.06.64-.18.94h-.48v-1.88h.47c.12.29.19.61.19.94M143.02 75.71v1.88h-.47c-.11-.29-.18-.61-.18-.94s.06-.65.19-.94z" class="cls-10"/><path d="M107.14 47.84c-.33 0-.64.06-.94.18v-2.89c.29.11.61.18.94.18s.65-.06.94-.19v2.91c-.29-.12-.61-.19-.94-.19" class="cls-1"/><path d="M107.14 47.84c-.33 0-.64.06-.94.18v-2.89c.29.11.61.18.94.18s.65-.06.94-.19v2.91c-.29-.12-.61-.19-.94-.19" class="cls-4"/><path d="M107.14 47.84c-.33 0-.64.06-.94.18v-2.89c.29.11.61.18.94.18s.65-.06.94-.19v2.91c-.29-.12-.61-.19-.94-.19" class="cls-14"/><path d="M107.14 45.31c-.33 0-.64-.06-.94-.18v-.48h1.88v.47c-.29.12-.61.19-.94.19M108.08 48.49h-1.88v-.47c.29-.11.61-.18.94-.18s.65.06.94.19z" class="cls-10"/><path d="M40.81 28.2c-.33 0-.64.06-.94.18v-2.89c.29.11.61.18.94.18s.65-.06.94-.19v2.91c-.29-.12-.61-.19-.94-.19" class="cls-1"/><path d="M40.81 28.2c-.33 0-.64.06-.94.18v-2.89c.29.11.61.18.94.18s.65-.06.94-.19v2.91c-.29-.12-.61-.19-.94-.19" class="cls-4"/><path d="M40.81 28.2c-.33 0-.64.06-.94.18v-2.89c.29.11.61.18.94.18s.65-.06.94-.19v2.91c-.29-.12-.61-.19-.94-.19" class="cls-14"/><path d="M40.81 25.67c-.33 0-.64-.06-.94-.18v-.48h1.88v.47c-.29.12-.61.19-.94.19M41.76 28.84h-1.88v-.47c.29-.11.61-.18.94-.18s.65.06.94.19z" class="cls-10"/><path d="M25.29 42.22c-.33 0-.64.06-.94.18v-2.89c.29.11.61.18.94.18s.65-.06.94-.19v2.91c-.29-.12-.61-.19-.94-.19" class="cls-1"/><path d="M25.29 42.22c-.33 0-.64.06-.94.18v-2.89c.29.11.61.18.94.18s.65-.06.94-.19v2.91c-.29-.12-.61-.19-.94-.19" class="cls-4"/><path d="M25.29 42.22c-.33 0-.64.06-.94.18v-2.89c.29.11.61.18.94.18s.65-.06.94-.19v2.91c-.29-.12-.61-.19-.94-.19" class="cls-14"/><path d="M25.29 39.69c-.33 0-.64-.06-.94-.18v-.48h1.88v.47c-.29.12-.61.19-.94.19M26.23 42.87h-1.88v-.47c.29-.11.61-.18.94-.18s.65.06.94.19z" class="cls-10"/><path d="M25.29 58.98c-.33 0-.64.06-.94.18v-2.89c.29.11.61.18.94.18s.65-.06.94-.19v2.91c-.29-.12-.61-.19-.94-.19" class="cls-1"/><path d="M25.29 58.98c-.33 0-.64.06-.94.18v-2.89c.29.11.61.18.94.18s.65-.06.94-.19v2.91c-.29-.12-.61-.19-.94-.19" class="cls-4"/><path d="M25.29 58.98c-.33 0-.64.06-.94.18v-2.89c.29.11.61.18.94.18s.65-.06.94-.19v2.91c-.29-.12-.61-.19-.94-.19" class="cls-14"/><path d="M25.29 56.44c-.33 0-.64-.06-.94-.18v-.48h1.88v.47c-.29.12-.61.19-.94.19M26.23 59.62h-1.88v-.47c.29-.11.61-.18.94-.18s.65.06.94.19z" class="cls-10"/><path d="M16.47 73.47c0-.33-.06-.64-.18-.94h2.89c-.11.29-.18.61-.18.94s.06.65.19.94h-2.91c.12-.29.19-.61.19-.94" class="cls-1"/><path d="M16.47 73.47c0-.33-.06-.64-.18-.94h2.89c-.11.29-.18.61-.18.94s.06.65.19.94h-2.91c.12-.29.19-.61.19-.94" class="cls-4"/><path d="M16.47 73.47c0-.33-.06-.64-.18-.94h2.89c-.11.29-.18.61-.18.94s.06.65.19.94h-2.91c.12-.29.19-.61.19-.94" class="cls-14"/><path d="M19 73.47c0-.33.06-.64.18-.94h.48v1.88h-.47c-.12-.29-.19-.61-.19-.94M15.82 74.41v-1.88h.47c.11.29.18.61.18.94s-.06.65-.19.94z" class="cls-10"/><path d="M32.24 88.14c0-.33-.06-.64-.18-.94h2.89c-.11.29-.18.61-.18.94s.06.65.19.94h-2.91c.12-.29.19-.61.19-.94" class="cls-1"/><path d="M32.24 88.14c0-.33-.06-.64-.18-.94h2.89c-.11.29-.18.61-.18.94s.06.65.19.94h-2.91c.12-.29.19-.61.19-.94" class="cls-4"/><path d="M32.24 88.14c0-.33-.06-.64-.18-.94h2.89c-.11.29-.18.61-.18.94s.06.65.19.94h-2.91c.12-.29.19-.61.19-.94" class="cls-14"/><path d="M34.77 88.14c0-.33.06-.64.18-.94h.48v1.88h-.47c-.12-.29-.19-.61-.19-.94M31.6 89.08V87.2h.47c.11.29.18.61.18.94s-.06.65-.19.94z" class="cls-10"/><path d="M38.09 88.14c0-.33-.06-.64-.18-.94h2.89c-.11.29-.18.61-.18.94s.06.65.19.94H37.9c.12-.29.19-.61.19-.94" class="cls-1"/><path d="M38.09 88.14c0-.33-.06-.64-.18-.94h2.89c-.11.29-.18.61-.18.94s.06.65.19.94H37.9c.12-.29.19-.61.19-.94" class="cls-4"/><path d="M38.09 88.14c0-.33-.06-.64-.18-.94h2.89c-.11.29-.18.61-.18.94s.06.65.19.94H37.9c.12-.29.19-.61.19-.94" class="cls-14"/><path d="M40.62 88.14c0-.33.06-.64.18-.94h.48v1.88h-.47c-.12-.29-.19-.61-.19-.94M37.44 89.08V87.2h.47c.11.29.18.61.18.94s-.06.65-.19.94z" class="cls-10"/><path d="M38.09 93.89c0-.33-.06-.64-.18-.94h2.89c-.11.29-.18.61-.18.94s.06.65.19.94H37.9c.12-.29.19-.61.19-.94" class="cls-13"/><path d="M38.09 93.89c0-.33-.06-.64-.18-.94h2.89c-.11.29-.18.61-.18.94s.06.65.19.94H37.9c.12-.29.19-.61.19-.94" class="cls-13"/><path d="M38.09 93.89c0-.33-.06-.64-.18-.94h2.89c-.11.29-.18.61-.18.94s.06.65.19.94H37.9c.12-.29.19-.61.19-.94" class="cls-14"/><path d="M40.62 93.89c0-.33.06-.64.18-.94h.48v1.88h-.47c-.12-.29-.19-.61-.19-.94M37.44 94.84v-1.88h.47c.11.29.18.61.18.94s-.06.65-.19.94z" class="cls-15"/><path d="M38.09 96.81c0-.33-.06-.64-.18-.94h2.89c-.11.29-.18.61-.18.94s.06.65.19.94H37.9c.12-.29.19-.61.19-.94" class="cls-1"/><path d="M38.09 96.81c0-.33-.06-.64-.18-.94h2.89c-.11.29-.18.61-.18.94s.06.65.19.94H37.9c.12-.29.19-.61.19-.94" class="cls-4"/><path d="M38.09 96.81c0-.33-.06-.64-.18-.94h2.89c-.11.29-.18.61-.18.94s.06.65.19.94H37.9c.12-.29.19-.61.19-.94" class="cls-14"/><path d="M40.62 96.81c0-.33.06-.64.18-.94h.48v1.88h-.47c-.12-.29-.19-.61-.19-.94M37.44 97.75v-1.88h.47c.11.29.18.61.18.94s-.06.65-.19.94z" class="cls-10"/><path d="M44.55 99.94c.33 0 .64-.06.94-.18v2.89c-.29-.11-.61-.18-.94-.18s-.65.06-.94.19v-2.91c.29.12.61.19.94.19" class="cls-1"/><path d="M44.55 99.94c.33 0 .64-.06.94-.18v2.89c-.29-.11-.61-.18-.94-.18s-.65.06-.94.19v-2.91c.29.12.61.19.94.19" class="cls-4"/><path d="M44.55 99.94c.33 0 .64-.06.94-.18v2.89c-.29-.11-.61-.18-.94-.18s-.65.06-.94.19v-2.91c.29.12.61.19.94.19" class="cls-14"/><path d="M44.55 102.47c.33 0 .64.06.94.18v.48h-1.88v-.47c.29-.12.61-.19.94-.19M43.6 99.29h1.88v.47c-.29.11-.61.18-.94.18s-.65-.06-.94-.19z" class="cls-10"/><path d="M32.24 90.98c0-.33-.06-.64-.18-.94h2.89c-.11.29-.18.61-.18.94s.06.65.19.94h-2.91c.12-.29.19-.61.19-.94" class="cls-1"/><path d="M32.24 90.98c0-.33-.06-.64-.18-.94h2.89c-.11.29-.18.61-.18.94s.06.65.19.94h-2.91c.12-.29.19-.61.19-.94" class="cls-4"/><path d="M32.24 90.98c0-.33-.06-.64-.18-.94h2.89c-.11.29-.18.61-.18.94s.06.65.19.94h-2.91c.12-.29.19-.61.19-.94" class="cls-14"/><path d="M34.77 90.98c0-.33.06-.64.18-.94h.48v1.88h-.47c-.12-.29-.19-.61-.19-.94M31.59 91.92v-1.88h.47c.11.29.18.61.18.94s-.06.65-.19.94z" class="cls-10"/><path d="M104.43 47.84c-.33 0-.64.06-.94.18v-2.89c.29.11.61.18.94.18s.65-.06.94-.19v2.91c-.29-.12-.61-.19-.94-.19" class="cls-1"/><path d="M104.43 47.84c-.33 0-.64.06-.94.18v-2.89c.29.11.61.18.94.18s.65-.06.94-.19v2.91c-.29-.12-.61-.19-.94-.19" class="cls-4"/><path d="M104.43 47.84c-.33 0-.64.06-.94.18v-2.89c.29.11.61.18.94.18s.65-.06.94-.19v2.91c-.29-.12-.61-.19-.94-.19" class="cls-14"/><path d="M104.43 45.31c-.33 0-.64-.06-.94-.18v-.48h1.88v.47c-.29.12-.61.19-.94.19M105.37 48.49h-1.88v-.47c.29-.11.61-.18.94-.18s.65.06.94.19z" class="cls-10"/><path d="M104.69 42.54c0-.33-.06-.64-.18-.94h2.89c-.11.29-.18.61-.18.94s.06.65.19.94h-2.91c.12-.29.19-.61.19-.94" class="cls-1"/><path d="M104.69 42.54c0-.33-.06-.64-.18-.94h2.89c-.11.29-.18.61-.18.94s.06.65.19.94h-2.91c.12-.29.19-.61.19-.94" class="cls-4"/><path d="M104.69 42.54c0-.33-.06-.64-.18-.94h2.89c-.11.29-.18.61-.18.94s.06.65.19.94h-2.91c.12-.29.19-.61.19-.94" class="cls-14"/><path d="M107.22 42.54c0-.33.06-.64.18-.94h.48v1.88h-.47c-.12-.29-.19-.61-.19-.94M104.04 43.48V41.6h.47c.11.29.18.61.18.94s-.06.65-.19.94z" class="cls-10"/><path d="M83.89 54.58c0-.33-.06-.64-.18-.94h2.89c-.11.29-.18.61-.18.94s.06.65.19.94H83.7c.12-.29.19-.61.19-.94" class="cls-1"/><path d="M83.89 54.58c0-.33-.06-.64-.18-.94h2.89c-.11.29-.18.61-.18.94s.06.65.19.94H83.7c.12-.29.19-.61.19-.94" class="cls-4"/><path d="M83.89 54.58c0-.33-.06-.64-.18-.94h2.89c-.11.29-.18.61-.18.94s.06.65.19.94H83.7c.12-.29.19-.61.19-.94" class="cls-14"/><path d="M86.42 54.58c0-.33.06-.64.18-.94h.48v1.88h-.47c-.12-.29-.19-.61-.19-.94M83.24 55.52v-1.88h.47c.11.29.18.61.18.94s-.06.65-.19.94z" class="cls-10"/><path d="M83.89 60.64c0-.33-.06-.64-.18-.94h2.89c-.11.29-.18.61-.18.94s.06.65.19.94H83.7c.12-.29.19-.61.19-.94" class="cls-1"/><path d="M83.89 60.64c0-.33-.06-.64-.18-.94h2.89c-.11.29-.18.61-.18.94s.06.65.19.94H83.7c.12-.29.19-.61.19-.94" class="cls-4"/><path d="M83.89 60.64c0-.33-.06-.64-.18-.94h2.89c-.11.29-.18.61-.18.94s.06.65.19.94H83.7c.12-.29.19-.61.19-.94" class="cls-14"/><path d="M86.42 60.64c0-.33.06-.64.18-.94h.48v1.88h-.47c-.12-.29-.19-.61-.19-.94M83.24 61.58V59.7h.47c.11.29.18.61.18.94s-.06.65-.19.94z" class="cls-10"/><path d="M83.89 40.01c0-.33-.06-.64-.18-.94h2.89c-.11.29-.18.61-.18.94s.06.65.19.94H83.7c.12-.29.19-.61.19-.94" class="cls-1"/><path d="M83.89 40.01c0-.33-.06-.64-.18-.94h2.89c-.11.29-.18.61-.18.94s.06.65.19.94H83.7c.12-.29.19-.61.19-.94" class="cls-4"/><path d="M83.89 40.01c0-.33-.06-.64-.18-.94h2.89c-.11.29-.18.61-.18.94s.06.65.19.94H83.7c.12-.29.19-.61.19-.94" class="cls-14"/><path d="M86.42 40.01c0-.33.06-.64.18-.94h.48v1.88h-.47c-.12-.29-.19-.61-.19-.94M83.24 40.95v-1.88h.47c.11.29.18.61.18.94s-.06.65-.19.94z" class="cls-10"/><path d="M99.96 79.52c0 .33.06.64.18.94h-2.89c.11-.29.18-.61.18-.94s-.06-.65-.19-.94h2.91c-.12.29-.19.61-.19.94" class="cls-6"/><path d="M97.42 79.52c0 .33-.06.64-.18.94h-.48v-1.88h.47c.12.29.19.61.19.94M100.6 78.58v1.88h-.47c-.11-.29-.18-.61-.18-.94s.06-.65.19-.94z" class="cls-10"/><path d="M40.63 99.73c0 .33.06.64.18.94h-2.89c.11-.29.18-.61.18-.94s-.06-.65-.19-.94h2.91c-.12.29-.19.61-.19.94" class="cls-6"/><path d="M38.09 99.73c0 .33-.06.64-.18.94h-.48v-1.88h.47c.12.29.19.61.19.94M41.27 98.79v1.88h-.47c-.11-.29-.18-.61-.18-.94s.06-.65.19-.94z" class="cls-10"/><path d="M40.63 102.65c0 .33.06.64.18.94h-2.89c.11-.29.18-.61.18-.94s-.06-.65-.19-.94h2.91c-.12.29-.19.61-.19.94" class="cls-6"/><path d="M38.09 102.65c0 .33-.06.64-.18.94h-.48v-1.88h.47c.12.29.19.61.19.94M41.27 101.7v1.88h-.47c-.11-.29-.18-.61-.18-.94s.06-.65.19-.94z" class="cls-10"/><path d="M142.38 68.5c0 .33.06.64.18.94h-2.89c.11-.29.18-.61.18-.94s-.06-.65-.19-.94h2.91c-.12.29-.19.61-.19.94" class="cls-6"/><path d="M139.84 68.5c0 .33-.06.64-.18.94h-.48v-1.88h.47c.12.29.19.61.19.94M143.02 67.56v1.88h-.47c-.11-.29-.18-.61-.18-.94s.06-.65.19-.94z" class="cls-10"/><path d="M127.96 47.84c-.33 0-.64.06-.94.18v-2.89c.29.11.61.18.94.18s.65-.06.94-.19v2.91c-.29-.12-.61-.19-.94-.19" class="cls-6"/><path d="M127.96 45.3c-.33 0-.64-.06-.94-.18v-.48h1.88v.47c-.29.12-.61.19-.94.19M128.9 48.48h-1.88v-.47c.29-.11.61-.18.94-.18s.65.06.94.19z" class="cls-10"/><path d="M109.84 47.84c-.33 0-.64.06-.94.18v-2.89c.29.11.61.18.94.18s.65-.06.94-.19v2.91c-.29-.12-.61-.19-.94-.19" class="cls-6"/><path d="M109.84 45.3c-.33 0-.64-.06-.94-.18v-.48h1.88v.47c-.29.12-.61.19-.94.19M110.78 48.48h-1.88v-.47c.29-.11.61-.18.94-.18s.65.06.94.19z" class="cls-10"/><path d="M24.61 96.54c-.33 0-.64.06-.94.18v-2.89c.29.11.61.18.94.18s.65-.06.94-.19v2.91c-.29-.12-.61-.19-.94-.19" class="cls-6"/><path d="M24.61 94c-.33 0-.64-.06-.94-.18v-.48h1.88v.47c-.29.12-.61.19-.94.19M25.55 97.18h-1.88v-.47c.29-.11.61-.18.94-.18s.65.06.94.19z" class="cls-10"/><path d="M142.38 58.55c0 .33.06.64.18.94h-2.89c.11-.29.18-.61.18-.94s-.06-.65-.19-.94h2.91c-.12.29-.19.61-.19.94" class="cls-6"/><path d="M139.84 58.55c0 .33-.06.64-.18.94h-.48v-1.88h.47c.12.29.19.61.19.94M143.02 57.61v1.88h-.47c-.11-.29-.18-.61-.18-.94s.06-.65.19-.94z" class="cls-10"/><path d="M16.33 88.13c0-.72-.09-1.42-.26-2.07h4.26c-.17.64-.26 1.35-.26 2.07s.09 1.44.27 2.09h-4.28c.18-.64.27-1.35.27-2.09" class="cls-6"/><path d="M20.07 88.13c0-.72.09-1.42.26-2.07h.7v4.15h-.69c-.18-.64-.27-1.35-.27-2.09ZM15.38 90.22v-4.15h.69c.17.64.26 1.35.26 2.07s-.09 1.44-.27 2.09h-.68Z" class="cls-10"/><path d="M14.59 69.06c0-.72-.09-1.42-.26-2.07h4.26c-.17.64-.26 1.35-.26 2.07s.09 1.44.27 2.09h-4.28c.18-.64.27-1.35.27-2.09" class="cls-6"/><path d="M18.33 69.06c0-.72.09-1.42.26-2.07h.7v4.15h-.69c-.18-.64-.27-1.35-.27-2.09ZM13.64 71.15V67h.69c.17.64.26 1.35.26 2.07s-.09 1.44-.27 2.09h-.68Z" class="cls-10"/><path d="M16.33 93.67c0-.72-.09-1.42-.26-2.07h4.26c-.17.64-.26 1.35-.26 2.07s.09 1.44.27 2.09h-4.28c.18-.64.27-1.35.27-2.09" class="cls-6"/><path d="M20.07 93.67c0-.72.09-1.42.26-2.07h.7v4.15h-.69c-.18-.64-.27-1.35-.27-2.09ZM15.38 95.75V91.6h.69c.17.64.26 1.35.26 2.07s-.09 1.44-.27 2.09h-.68Z" class="cls-10"/><path d="M29.03 106.32c.72 0 1.42-.09 2.07-.26v4.26c-.64-.17-1.35-.26-2.07-.26s-1.44.09-2.09.27v-4.28c.64.18 1.35.27 2.09.27" class="cls-6"/><path d="M29.03 110.06c.72 0 1.42.09 2.07.26v.7h-4.15v-.69c.64-.18 1.35-.27 2.09-.27ZM26.95 105.37h4.15v.69c-.64.17-1.35.26-2.07.26s-1.44-.09-2.09-.27v-.68Z" class="cls-10"/><path d="M34.14 106.32c.72 0 1.42-.09 2.07-.26v4.26c-.64-.17-1.35-.26-2.07-.26s-1.44.09-2.09.27v-4.28c.64.18 1.35.27 2.09.27" class="cls-6"/><path d="M34.14 110.06c.72 0 1.42.09 2.07.26v.7h-4.15v-.69c.64-.18 1.35-.27 2.09-.27ZM32.05 105.37h4.15v.69c-.64.17-1.35.26-2.07.26s-1.44-.09-2.09-.27v-.68Z" class="cls-10"/><path d="M39.25 106.32c.72 0 1.42-.09 2.07-.26v4.26c-.64-.17-1.35-.26-2.07-.26s-1.44.09-2.09.27v-4.28c.64.18 1.35.27 2.09.27" class="cls-6"/><path d="M39.25 110.06c.72 0 1.42.09 2.07.26v.7h-4.15v-.69c.64-.18 1.35-.27 2.09-.27ZM37.16 105.37h4.15v.69c-.64.17-1.35.26-2.07.26s-1.44-.09-2.09-.27v-.68Z" class="cls-10"/><path d="M44.35 106.32c.72 0 1.42-.09 2.07-.26v4.26c-.64-.17-1.35-.26-2.07-.26s-1.44.09-2.09.27v-4.28c.64.18 1.35.27 2.09.27" class="cls-6"/><path d="M44.35 110.06c.72 0 1.42.09 2.07.26v.7h-4.15v-.69c.64-.18 1.35-.27 2.09-.27ZM42.27 105.37h4.15v.69c-.64.17-1.35.26-2.07.26s-1.44-.09-2.09-.27v-.68ZM62.69 31.73v1.67h-2.77v-1.67zM62.69 35.71v1.67h-2.77v-1.67zM115.35 38.16v2.03h-3.37v-2.03zM115.36 43v2.03h-3.37V43zM121.42 38.16v2.03h-3.37v-2.03zM121.42 43.01v2.03h-3.37v-2.03zM56.37 31.73v1.67H53.6v-1.67zM56.37 35.71v1.67H53.6v-1.67zM42.63 90.05h1.12v1.86h-1.12zM45.3 90.05h1.12v1.86H45.3zM42.63 87.21h1.12v1.86h-1.12zM45.3 87.21h1.12v1.86H45.3zM112.66 46.56h1.12v1.86h-1.12zM115.33 46.56h1.12v1.86h-1.12zM117.81 46.56h1.12v1.86h-1.12zM120.49 46.56h1.12v1.86h-1.12zM147.67 61.48v1.12h-1.86v-1.12zM147.67 64.15v1.12h-1.86v-1.12zM39.02 25.04v1.12h-1.86v-1.12zM39.02 27.71v1.12h-1.86v-1.12zM37.46 90.09h1.12v1.86h-1.12zM40.13 90.09h1.12v1.86h-1.12zM25.88 90.09H27v1.86h-1.12zM28.55 90.09h1.12v1.86h-1.12z" class="cls-10"/><path d="M75.45 38.7h5.89v2.62h-5.89z" class="cls-9"/><circle cx="78.39" cy="40.01" r="1.89" class="cls-3"/><path d="M75.45 53.27h5.89v2.62h-5.89z" class="cls-9"/><circle cx="78.39" cy="54.58" r="1.89" class="cls-3"/><path d="M155.19 53.27h5.89v2.62h-5.89z" class="cls-9"/><circle cx="158.13" cy="54.58" r="1.89" class="cls-3"/><path d="M75.45 59.35h5.89v2.62h-5.89z" class="cls-9"/><circle cx="78.39" cy="60.67" r="1.89" class="cls-3"/><path d="M20.11 44.18h1.19v.73h-1.19zM20.11 41.85h1.19v.73h-1.19zM20.11 45.31h1.19v.73h-1.19zM20.11 46.43h1.19v.73h-1.19zM20.11 47.56h1.19v.73h-1.19zM20.11 48.68h1.19v.73h-1.19zM20.11 49.81h1.19v.73h-1.19zM20.11 50.93h1.19v.73h-1.19zM20.11 52.06h1.19v.73h-1.19zM20.11 53.2h1.19v.73h-1.19zM20.11 54.33h1.19v.73h-1.19zM20.11 55.45h1.19v.73h-1.19zM20.11 56.58h1.19v.73h-1.19zM20.11 58.86h1.19v.73h-1.19z" class="cls-9"/><path d="M2.29 39.5H20.4v23.05H2.29z" class="cls-7"/><path d="M5.16 39.5h1.7v23.05h-1.7zM8.55 39.5h1.7v23.05h-1.7zM11.95 39.5h1.7v23.05h-1.7zM15.34 39.5h1.7v23.05h-1.7zM18.71 39.5h1.69v23.05h-1.69zM28.42 141.38c1.72 0 3.11-1.39 3.11-3.11h-6.22c0 1.72 1.39 3.11 3.11 3.11M36.2 122.67h-.1v6.2h.1c1.72 0 3.11-1.4 3.11-3.11s-1.39-3.11-3.11-3.11Z" class="cls-9"/><path d="M9.19 117.51v-2.6H1.81v25.83h7.38v-2.47H36.1v-20.76z" class="cls-1"/><path d="M9.19 117.51v-2.6H1.81v25.83h7.38v-2.47H36.1v-20.76z" class="cls-2"/><path d="M9.19 117.51v-2.6H1.81v25.83h7.38v-2.47H36.1v-20.76z" class="cls-1"/><path d="M9.19 117.51v-2.6H1.81v25.83h7.38v-2.47H36.1v-20.76z" class="cls-4"/><path d="M9.19 117.51v-2.6H1.81v25.83h7.38v-2.47H36.1v-20.76z" class="cls-2"/><path d="M9.19 117.51v-2.6H1.81v25.83h7.38v-2.47H36.1v-20.76z" style="fill:#e45525"/><path d="M9.19 117.51v-2.6H1.81v25.83h7.38v-2.47H36.1v-20.76z" class="cls-1"/><path d="M9.19 117.51v-2.6H1.81v25.83h7.38v-2.47H36.1v-20.76z" class="cls-2"/><path d="M9.19 117.51v-2.6H1.81v25.83h7.38v-2.47H36.1v-20.76z" class="cls-14"/><path d="M0 114.91h1.81v25.81H0z" class="cls-6"/></svg>