<svg xmlns="http://www.w3.org/2000/svg" width="329" height="198" fill="none" viewBox="0 0 329 198"><path fill="#fff" d="M0 0h329v198H0z"/><path fill="#17a1a5" d="M43 73h244v52H43z"/><path fill="#c4c4c4" d="M64.231 73H265.77v52H64.231z" opacity=".5"/><path fill="#374146" d="M74.077 73H255v52H74.077z"/><path fill="#c4c4c4" stroke="#8c9091" stroke-miterlimit="10" stroke-width="5" d="M49.462 120.385a2.154 2.154 0 1 0-.001-4.309 2.154 2.154 0 0 0 0 4.309ZM49.462 107.769a2.154 2.154 0 1 0 0-4.307 2.154 2.154 0 0 0 0 4.307ZM49.462 95.154a2.154 2.154 0 1 0 0-4.308 2.154 2.154 0 0 0 0 4.308ZM49.462 82.846c1.19 0 2.153-1.033 2.153-2.308s-.964-2.307-2.153-2.307-2.154 1.033-2.154 2.308.964 2.307 2.154 2.307Z"/></svg>