<?xml version="1.0" encoding="UTF-8" standalone="no"?>
<svg
   version="1.1"
   width="322.84091pt"
   height="221.38545pt"
   viewBox="0 0 322.84091 221.38545"
   id="svg69464"
   sodipodi:docname="mechanical.svg"
   inkscape:version="1.2 (dc2aedaf03, 2022-05-15)"
   xmlns:inkscape="http://www.inkscape.org/namespaces/inkscape"
   xmlns:sodipodi="http://sodipodi.sourceforge.net/DTD/sodipodi-0.dtd"
   xmlns="http://www.w3.org/2000/svg"
   xmlns:svg="http://www.w3.org/2000/svg">
  <defs
     id="defs69468" />
  <sodipodi:namedview
     id="namedview69466"
     pagecolor="#ffffff"
     bordercolor="#000000"
     borderopacity="0.25"
     inkscape:showpageshadow="2"
     inkscape:pageopacity="0.0"
     inkscape:pagecheckerboard="0"
     inkscape:deskcolor="#d1d1d1"
     inkscape:document-units="pt"
     showgrid="false"
     inkscape:zoom="0.74568147"
     inkscape:cx="222.61516"
     inkscape:cy="205.18144"
     inkscape:window-width="1536"
     inkscape:window-height="801"
     inkscape:window-x="-8"
     inkscape:window-y="-8"
     inkscape:window-maximized="1"
     inkscape:current-layer="svg69464" />
  <path
     d="M 26.537676,195.75926 V 21.742418 c 0,-4.133542 3.35106,-7.484471 7.48461,-7.484471 H 281.01377 c 4.13368,0 7.4846,3.350929 7.4846,7.484471 V 195.75926 c 0,4.13354 -3.35092,7.4846 -7.4846,7.4846 H 34.022286 c -1.98506,0 -3.88878,-0.78855 -5.29242,-2.19219 -1.40363,-1.40363 -2.19219,-3.30736 -2.19219,-5.29241 z"
     fill="#ffffff"
     fill-rule="evenodd"
     id="path69288"
     style="stroke-width:1.3202" />
  <path
     stroke-width="1.41789"
     stroke-linecap="round"
     stroke-miterlimit="10"
     stroke-linejoin="miter"
     fill="none"
     stroke="#000000"
     d="M 26.537676,195.75926 V 21.742418 c 0,-4.133542 3.35106,-7.484471 7.48461,-7.484471 H 281.01377 c 4.13368,0 7.4846,3.350929 7.4846,7.484471 V 195.75926 c 0,4.13354 -3.35092,7.4846 -7.4846,7.4846 H 34.022286 c -1.98506,0 -3.88878,-0.78855 -5.29242,-2.19219 -1.40363,-1.40363 -2.19219,-3.30736 -2.19219,-5.29241 z"
     id="path69290" />
  <path
     d="m 45.714226,185.65498 c 0,-1.51281 -0.60096,-2.96371 -1.67071,-4.03347 -1.06976,-1.06975 -2.52066,-1.67071 -4.03347,-1.67071 -1.51295,0 -2.96385,0.60096 -4.03347,1.67071 -1.06976,1.06976 -1.67085,2.52066 -1.67085,4.03347 0,1.51295 0.60109,2.96372 1.67085,4.03348 1.06962,1.06975 2.52052,1.67071 4.03347,1.67071 1.51281,0 2.96371,-0.60096 4.03347,-1.67071 1.06975,-1.06976 1.67071,-2.52053 1.67071,-4.03348 z"
     fill="#ffffff"
     fill-rule="evenodd"
     id="path69292"
     style="stroke-width:1.3202" />
  <path
     stroke-width="0.566365"
     stroke-linecap="round"
     stroke-miterlimit="10"
     stroke-linejoin="miter"
     fill="none"
     stroke="#000000"
     d="m 45.714226,185.65498 c 0,-1.51281 -0.60096,-2.96371 -1.67071,-4.03347 -1.06976,-1.06975 -2.52066,-1.67071 -4.03347,-1.67071 -1.51295,0 -2.96385,0.60096 -4.03347,1.67071 -1.06976,1.06976 -1.67085,2.52066 -1.67085,4.03347 0,1.51295 0.60109,2.96372 1.67085,4.03348 1.06962,1.06975 2.52052,1.67071 4.03347,1.67071 1.51281,0 2.96371,-0.60096 4.03347,-1.67071 1.06975,-1.06976 1.67071,-2.52053 1.67071,-4.03348 z"
     id="path69294" />
  <path
     d="m 280.35618,31.846691 c 0,-3.150391 -2.55392,-5.704183 -5.70431,-5.704183 -1.51282,0 -2.96372,0.600955 -4.03348,1.670712 -1.06975,1.069757 -1.67071,2.520655 -1.67071,4.033471 0,1.512815 0.60096,2.963714 1.67071,4.033471 1.06976,1.069757 2.52066,1.670711 4.03348,1.670711 3.15039,0 5.70431,-2.553792 5.70431,-5.704182 z"
     fill="#ffffff"
     fill-rule="evenodd"
     id="path69296"
     style="stroke-width:1.3202" />
  <path
     stroke-width="0.566365"
     stroke-linecap="round"
     stroke-miterlimit="10"
     stroke-linejoin="miter"
     fill="none"
     stroke="#000000"
     d="m 280.35618,31.846691 c 0,-3.150391 -2.55392,-5.704183 -5.70431,-5.704183 -1.51282,0 -2.96372,0.600955 -4.03348,1.670712 -1.06975,1.069757 -1.67071,2.520655 -1.67071,4.033471 0,1.512815 0.60096,2.963714 1.67071,4.033471 1.06976,1.069757 2.52066,1.670711 4.03348,1.670711 3.15039,0 5.70431,-2.553792 5.70431,-5.704182 z"
     id="path69298" />
  <path
     d="m 280.35618,185.65498 c 0,-1.51281 -0.60109,-2.96371 -1.67084,-4.03347 -1.06963,-1.06975 -2.52053,-1.67071 -4.03347,-1.67071 -1.51282,0 -2.96372,0.60096 -4.03348,1.67071 -1.06975,1.06976 -1.67071,2.52066 -1.67071,4.03347 0,1.51295 0.60096,2.96372 1.67071,4.03348 1.06976,1.06975 2.52066,1.67071 4.03348,1.67071 1.51294,0 2.96384,-0.60096 4.03347,-1.67071 1.06975,-1.06976 1.67084,-2.52053 1.67084,-4.03348 z"
     fill="#ffffff"
     fill-rule="evenodd"
     id="path69300"
     style="stroke-width:1.3202" />
  <path
     stroke-width="0.566365"
     stroke-linecap="round"
     stroke-miterlimit="10"
     stroke-linejoin="miter"
     fill="none"
     stroke="#000000"
     d="m 280.35618,185.65498 c 0,-1.51281 -0.60109,-2.96371 -1.67084,-4.03347 -1.06963,-1.06975 -2.52053,-1.67071 -4.03347,-1.67071 -1.51282,0 -2.96372,0.60096 -4.03348,1.67071 -1.06975,1.06976 -1.67071,2.52066 -1.67071,4.03347 0,1.51295 0.60096,2.96372 1.67071,4.03348 1.06976,1.06975 2.52066,1.67071 4.03348,1.67071 1.51294,0 2.96384,-0.60096 4.03347,-1.67071 1.06975,-1.06976 1.67084,-2.52053 1.67084,-4.03348 z"
     id="path69302" />
  <path
     d="m 45.714226,31.846691 c 0,-3.150391 -2.55393,-5.704183 -5.70418,-5.704183 -3.15039,0 -5.70432,2.553792 -5.70432,5.704183 0,3.15039 2.55393,5.704182 5.70432,5.704182 3.15025,0 5.70418,-2.553792 5.70418,-5.704182 z"
     fill="#ffffff"
     fill-rule="evenodd"
     id="path69304"
     style="stroke-width:1.3202" />
  <path
     stroke-width="0.566365"
     stroke-linecap="round"
     stroke-miterlimit="10"
     stroke-linejoin="miter"
     fill="none"
     stroke="#000000"
     d="m 45.714226,31.846691 c 0,-3.150391 -2.55393,-5.704183 -5.70418,-5.704183 -3.15039,0 -5.70432,2.553792 -5.70432,5.704183 0,3.15039 2.55393,5.704182 5.70432,5.704182 3.15025,0 5.70418,-2.553792 5.70418,-5.704182 z"
     id="path69306" />
  <path
     stroke-width="0.283"
     stroke-linecap="round"
     stroke-miterlimit="10"
     stroke-linejoin="miter"
     fill="none"
     stroke="#007ac0"
     d="m 59.462526,25.095615 h 29.835"
     id="path69308" />
  <text
     fill="#c00000"
     xml:space="preserve"
     font-size="9px"
     font-family="Arial"
     id="text69312"
     x="-263.96848"
     y="-52.874386"><tspan
       y="22.893314"
       x="62.297211 69.290222 74.29422 81.791229"
       id="tspan69310">Ø3mm</tspan></text>
  <path
     stroke-width="0.283"
     stroke-linecap="round"
     stroke-miterlimit="10"
     stroke-linejoin="miter"
     fill="none"
     stroke="#007ac0"
     d="m 40.009526,31.846615 5.657,-1.963"
     id="path69314" />
  <path
     stroke-width="0.283"
     stroke-linecap="round"
     stroke-miterlimit="10"
     stroke-linejoin="miter"
     fill="none"
     stroke="#007ac0"
     d="m 62.671526,23.982615 -15.789,5.479"
     id="path69316" />
  <path
     d="m 45.666636,29.883624 9.34843,-1.593928 -1.02232,-2.945851 z"
     fill="#007ac0"
     fill-rule="evenodd"
     id="path69318" />
  <path
     stroke-width="0.283"
     stroke-linecap="round"
     stroke-miterlimit="10"
     stroke-linejoin="miter"
     fill="none"
     stroke="#007ac0"
     d="m 59.462496,25.095775 -4.959,1.721"
     id="path69320" />
  <path
     stroke-width="0.283"
     stroke-linecap="round"
     stroke-miterlimit="10"
     stroke-linejoin="miter"
     fill="none"
     stroke="#007ac0"
     d="m 38.881096,25.966475 c -1.903,0.3653 -3.5115,1.6289 -4.317,3.3912 -0.8055,1.7623 -0.7085,3.8054 0.2605,5.4834"
     id="path69322" />
  <path
     stroke-width="0.283"
     stroke-linecap="round"
     stroke-miterlimit="10"
     stroke-linejoin="miter"
     fill="none"
     stroke="#007ac0"
     d="m 40.009496,31.846775 -5.656,1.963"
     id="path69324" />
  <path
     stroke-width="0.283"
     stroke-linecap="round"
     stroke-miterlimit="10"
     stroke-linejoin="miter"
     fill="none"
     stroke="#007ac0"
     d="m 17.347496,39.711775 15.789,-5.48"
     id="path69326" />
  <path
     d="m 34.353226,33.809625 -9.34843,1.593928 1.02232,2.945851 z"
     fill="#007ac0"
     fill-rule="evenodd"
     id="path69328" />
  <path
     stroke-width="11.25"
     stroke-linecap="round"
     stroke-miterlimit="10"
     stroke-linejoin="miter"
     fill="none"
     stroke="#ffffff"
     stroke-opacity="0"
     d="m 59.462436,25.095927 -25.109,8.714"
     id="path69330" />
  <path
     stroke-width="0.283"
     stroke-linecap="round"
     stroke-miterlimit="10"
     stroke-linejoin="miter"
     fill="none"
     stroke="#007ac0"
     d="M 32.888236,14.258227 H 2.3623362 M 32.888236,203.24402 H 2.3623362 Z"
     id="path69332" />
  <path
     stroke-width="0.283"
     stroke-linecap="round"
     stroke-miterlimit="10"
     stroke-linejoin="miter"
     fill="none"
     stroke="#007ac0"
     d="M 3.4964362,91.481923 V 15.545927"
     id="path69334" />
  <path
     d="m 3.4963062,14.258193 -1.5591,9.3543 h 3.1182 z"
     fill="#007ac0"
     fill-rule="evenodd"
     id="path69336" />
  <path
     stroke-width="0.283"
     stroke-linecap="round"
     stroke-miterlimit="10"
     stroke-linejoin="miter"
     fill="none"
     stroke="#007ac0"
     d="m 3.4964362,127.82592 v 74.131"
     id="path69338" />
  <path
     d="m 3.4962362,203.2441 1.5591,-9.3543 h -3.1182 z"
     fill="#007ac0"
     fill-rule="evenodd"
     id="path69340" />
  <text
     fill="#c00000"
     xml:space="preserve"
     transform="rotate(-90)"
     font-size="9px"
     font-family="Arial"
     id="text69344"
     x="-377.11884"
     y="-159.03174"><tspan
       y="6.46875"
       x="-122.15654 -117.15253 -112.14853 -104.65152"
       id="tspan69342">51mm</tspan></text>
  <path
     stroke-width="0.283"
     stroke-linecap="round"
     stroke-miterlimit="10"
     stroke-linejoin="miter"
     fill="none"
     stroke="#007ac0"
     d="m 26.537506,196.89338 v 20.9604 m 261.960504,-20.9604 v 20.9604 z"
     id="path69346" />
  <path
     stroke-width="0.283"
     stroke-linecap="round"
     stroke-miterlimit="10"
     stroke-linejoin="miter"
     fill="none"
     stroke="#007ac0"
     d="M 138.01541,216.71998 H 27.824406"
     id="path69348" />
  <path
     d="m 26.537496,216.71998 9.3543,1.5591 v -3.1182 z"
     fill="#007ac0"
     fill-rule="evenodd"
     id="path69350" />
  <path
     stroke-width="0.283"
     stroke-linecap="round"
     stroke-miterlimit="10"
     stroke-linejoin="miter"
     fill="none"
     stroke="#007ac0"
     d="m 174.35841,216.71998 h 112.852"
     id="path69352" />
  <path
     d="m 288.4982,216.72002 -9.3543,-1.5591 v 3.1182 z"
     fill="#007ac0"
     fill-rule="evenodd"
     id="path69354" />
  <text
     fill="#c00000"
     xml:space="preserve"
     font-size="9px"
     font-family="Arial"
     id="text69358"
     x="-263.96857"
     y="-52.87402"><tspan
       y="219.69238"
       x="143.68433 148.68832 153.69232 161.18933"
       id="tspan69356">70mm</tspan></text>
  <path
     stroke-width="0.283"
     stroke-linecap="round"
     stroke-miterlimit="10"
     stroke-linejoin="miter"
     fill="none"
     stroke="#007ac0"
     d="m 40.009736,184.52148 v -13.0393 m 234.641804,13.0393 v -13.0393 z"
     id="path69360" />
  <path
     stroke-width="0.283"
     stroke-linecap="round"
     stroke-miterlimit="10"
     stroke-linejoin="miter"
     fill="none"
     stroke="#007ac0"
     d="M 143.79444,172.61598 H 41.297436"
     id="path69362" />
  <path
     d="m 40.009796,172.6161 9.3543,1.5591 v -3.1182 z"
     fill="#007ac0"
     fill-rule="evenodd"
     id="path69364" />
  <path
     stroke-width="0.283"
     stroke-linecap="round"
     stroke-miterlimit="10"
     stroke-linejoin="miter"
     fill="none"
     stroke="#007ac0"
     d="m 180.13744,172.61598 h 93.227"
     id="path69366" />
  <path
     d="m 274.6517,172.61615 -9.3543,-1.5591 v 3.1182 z"
     fill="#007ac0"
     fill-rule="evenodd"
     id="path69368" />
  <text
     fill="#c00000"
     xml:space="preserve"
     font-size="9px"
     font-family="Arial"
     id="text69372"
     x="-263.96857"
     y="-52.87402"><tspan
       y="175.58847"
       x="149.46353 154.46753 159.47153 166.96854"
       id="tspan69370">63mm</tspan></text>
  <path
     stroke-width="0.283"
     stroke-linecap="round"
     stroke-miterlimit="10"
     stroke-linejoin="miter"
     fill="none"
     stroke="#007ac0"
     d="m 273.51774,31.847081 h -13.5279 m 13.5278,153.808199 h -13.5278 z"
     id="path69374" />
  <path
     stroke-width="0.283"
     stroke-linecap="round"
     stroke-miterlimit="10"
     stroke-linejoin="miter"
     fill="none"
     stroke="#007ac0"
     d="M 261.12344,86.615983 V 33.133981"
     id="path69376" />
  <path
     d="m 261.12379,31.847033 -1.5591,9.3543 h 3.1182 z"
     fill="#007ac0"
     fill-rule="evenodd"
     id="path69378" />
  <path
     stroke-width="0.283"
     stroke-linecap="round"
     stroke-miterlimit="10"
     stroke-linejoin="miter"
     fill="none"
     stroke="#007ac0"
     d="m 261.12344,122.95898 v 61.409"
     id="path69380" />
  <path
     d="m 261.12373,185.65539 1.5591,-9.3543 h -3.1182 z"
     fill="#007ac0"
     fill-rule="evenodd"
     id="path69382" />
  <text
     fill="#c00000"
     xml:space="preserve"
     transform="rotate(-90)"
     font-size="9px"
     font-family="Arial"
     id="text69386"
     x="-629.87964"
     y="103.4624"><tspan
       y="264.09619"
       x="-117.2899 -112.28587 -107.28185 -99.784836"
       id="tspan69384">41mm</tspan></text>
  <path
     stroke-width="0.283"
     stroke-linecap="round"
     stroke-miterlimit="10"
     stroke-linejoin="miter"
     fill="none"
     stroke="#007ac0"
     d="m 40.009736,184.52145 v -29.7683 m -13.4722,1.1338 z"
     id="path69388" />
  <path
     stroke-width="0.283"
     stroke-linecap="round"
     stroke-miterlimit="10"
     stroke-linejoin="miter"
     fill="none"
     stroke="#007ac0"
     d="m 58.009436,155.88695 h -16.712"
     id="path69390" />
  <path
     d="m 40.009796,155.88702 9.3543,1.5591 v -3.1182 z"
     fill="#007ac0"
     fill-rule="evenodd"
     id="path69392" />
  <path
     stroke-width="0.283"
     stroke-linecap="round"
     stroke-miterlimit="10"
     stroke-linejoin="miter"
     fill="none"
     stroke="#007ac0"
     d="M 8.5374362,155.88695 H 25.250436"
     id="path69394" />
  <path
     d="m 26.537576,155.88704 -9.3543,-1.5591 v 3.1182 z"
     fill="#007ac0"
     fill-rule="evenodd"
     id="path69396" />
  <text
     fill="#c00000"
     xml:space="preserve"
     font-size="9px"
     font-family="Arial"
     id="text69400"
     x="-263.96857"
     y="-52.87405"><tspan
       y="158.85945"
       x="28.171021 33.175018 40.672028"
       id="tspan69398">4mm</tspan></text>
  <path
     stroke-width="0.283"
     stroke-linecap="round"
     stroke-miterlimit="10"
     stroke-linejoin="miter"
     fill="none"
     stroke="#007ac0"
     d="m 41.143636,185.65525 h 16.1069 m -1.1338,17.5888 z"
     id="path69402" />
  <path
     stroke-width="0.283"
     stroke-linecap="round"
     stroke-miterlimit="10"
     stroke-linejoin="miter"
     fill="none"
     stroke="#007ac0"
     d="m 56.116436,167.65495 v 16.713"
     id="path69404" />
  <path
     d="m 56.116736,185.65534 1.5591,-9.3543 h -3.1182 z"
     fill="#007ac0"
     fill-rule="evenodd"
     id="path69406" />
  <path
     stroke-width="0.283"
     stroke-linecap="round"
     stroke-miterlimit="10"
     stroke-linejoin="miter"
     fill="none"
     stroke="#007ac0"
     d="m 56.116436,221.24395 v -16.713"
     id="path69408" />
  <path
     d="m 56.116786,203.2441 -1.5591,9.3543 h 3.1182 z"
     fill="#007ac0"
     fill-rule="evenodd"
     id="path69410" />
  <text
     fill="#c00000"
     xml:space="preserve"
     transform="rotate(-90)"
     font-size="9px"
     font-family="Arial"
     id="text69414"
     x="-511.86374"
     y="-188.53569"><tspan
       y="59.089203"
       x="-201.77847 -196.77448 -189.27747"
       id="tspan69412">5mm</tspan></text>
  <path
     stroke-width="0.283"
     stroke-linecap="round"
     stroke-miterlimit="10"
     stroke-linejoin="miter"
     fill="none"
     stroke="#007ac0"
     d="m 274.65153,184.52145 v -38.5891 m 13.8465,1.1339 z"
     id="path69416" />
  <path
     stroke-width="0.283"
     stroke-linecap="round"
     stroke-miterlimit="10"
     stroke-linejoin="miter"
     fill="none"
     stroke="#007ac0"
     d="m 256.65143,147.06595 h 16.713"
     id="path69418" />
  <path
     d="m 274.6517,147.06629 -9.3543,-1.5591 v 3.1182 z"
     fill="#007ac0"
     fill-rule="evenodd"
     id="path69420" />
  <path
     stroke-width="0.283"
     stroke-linecap="round"
     stroke-miterlimit="10"
     stroke-linejoin="miter"
     fill="none"
     stroke="#007ac0"
     d="m 306.49844,147.06595 h -16.713"
     id="path69422" />
  <path
     d="m 288.49816,147.06625 9.3543,1.5591 v -3.1182 z"
     fill="#007ac0"
     fill-rule="evenodd"
     id="path69424" />
  <text
     fill="#c00000"
     xml:space="preserve"
     font-size="9px"
     font-family="Arial"
     id="text69428"
     x="-263.96857"
     y="-52.87405"><tspan
       y="150.03865"
       x="267.24432 272.24835 279.74536"
       id="tspan69426">4mm</tspan></text>
  <path
     stroke-width="0.283"
     stroke-linecap="round"
     stroke-miterlimit="10"
     stroke-linejoin="miter"
     fill="none"
     stroke="#007ac0"
     d="m 273.51774,185.65525 h -22.957 m 1.1338,17.5888 z"
     id="path69430" />
  <path
     stroke-width="0.283"
     stroke-linecap="round"
     stroke-miterlimit="10"
     stroke-linejoin="miter"
     fill="none"
     stroke="#007ac0"
     d="m 251.69444,167.65495 v 16.713"
     id="path69432" />
  <path
     d="m 251.69454,185.65538 1.5591,-9.3543 h -3.1182 z"
     fill="#007ac0"
     fill-rule="evenodd"
     id="path69434" />
  <path
     stroke-width="0.283"
     stroke-linecap="round"
     stroke-miterlimit="10"
     stroke-linejoin="miter"
     fill="none"
     stroke="#007ac0"
     d="m 251.69444,221.24395 v -16.713"
     id="path69436" />
  <path
     d="m 251.69462,203.24406 -1.5591,9.3543 h 3.1182 z"
     fill="#007ac0"
     fill-rule="evenodd"
     id="path69438" />
  <text
     fill="#c00000"
     xml:space="preserve"
     transform="rotate(-90)"
     font-size="9px"
     font-family="Arial"
     id="text69442"
     x="-706.52917"
     y="7.9546814"><tspan
       y="254.66705"
       x="-200.86606 -195.86206 -188.36508"
       id="tspan69440">5mm</tspan></text>
  <path
     stroke-width="0.283"
     stroke-linecap="round"
     stroke-miterlimit="10"
     stroke-linejoin="miter"
     fill="none"
     stroke="#007ac0"
     d="m 293.36541,8.6709496 h 29.334"
     id="path69444" />
  <text
     fill="#c00000"
     xml:space="preserve"
     font-size="9px"
     font-family="Arial"
     id="text69448"
     x="-263.9686"
     y="-52.87405"><tspan
       y="6.46875"
       x="296.19965 302.69763 307.70166 315.19867"
       id="tspan69446">R2mm</tspan></text>
  <path
     stroke-width="0.283"
     stroke-linecap="round"
     stroke-miterlimit="10"
     stroke-linejoin="miter"
     fill="none"
     stroke="#007ac0"
     d="m 281.01341,21.74295 5.141,-5.44"
     id="path69450" />
  <path
     stroke-width="0.283"
     stroke-linecap="round"
     stroke-miterlimit="10"
     stroke-linejoin="miter"
     fill="none"
     stroke="#007ac0"
     d="M 298.51641,3.2199496 287.03841,15.36695"
     id="path69452" />
  <path
     d="m 286.154,16.302802 7.55784,-5.728244 -2.26643,-2.1416124 z"
     fill="#007ac0"
     fill-rule="evenodd"
     id="path69454" />
  <path
     stroke-width="0.283"
     stroke-linecap="round"
     stroke-miterlimit="10"
     stroke-linejoin="miter"
     fill="none"
     stroke="#007ac0"
     d="m 293.36544,8.6708356 -0.787,0.833"
     id="path69456" />
  <path
     stroke-width="11.25"
     stroke-linecap="round"
     stroke-miterlimit="10"
     stroke-linejoin="miter"
     fill="none"
     stroke="#ffffff"
     stroke-opacity="0"
     d="m 293.36544,8.6708356 -12.352,13.0720004"
     id="path69458" />
</svg>
