<svg xmlns="http://www.w3.org/2000/svg" width="351.171" height="253.872" viewBox="0 0 263.379 190.404"><path fill="#fff" fill-rule="evenodd" d="M262.67 182.21V8.193A7.485 7.485 0 0 0 255.185.71H8.194A7.485 7.485 0 0 0 .709 8.193V182.21a7.485 7.485 0 0 0 7.485 7.485h246.991a7.485 7.485 0 0 0 7.485-7.485" style="stroke-width:1.3202"/><path fill="none" stroke="#000" stroke-linecap="round" stroke-miterlimit="10" stroke-width="1.418" d="M262.67 182.21V8.193A7.485 7.485 0 0 0 255.185.71H8.194A7.485 7.485 0 0 0 .709 8.193V182.21a7.485 7.485 0 0 0 7.485 7.485h246.991a7.485 7.485 0 0 0 7.485-7.485z"/><path fill="#fff" fill-rule="evenodd" d="M201.954 17.55a2.15 2.15 0 1 1 4.298 0 2.15 2.15 0 0 1-4.298 0" style="stroke-width:1.3202"/><path fill="none" stroke="#000" stroke-linecap="round" stroke-miterlimit="10" stroke-width=".566" d="M201.954 17.55a2.15 2.15 0 1 1 4.298 0 2.15 2.15 0 0 1-4.298 0z"/><path fill="#fff" fill-rule="evenodd" d="M228.15 17.55a2.15 2.15 0 1 1 4.299 0 2.15 2.15 0 0 1-4.3 0" style="stroke-width:1.3202"/><path fill="none" stroke="#000" stroke-linecap="round" stroke-miterlimit="10" stroke-width=".566" d="M228.15 17.55a2.15 2.15 0 1 1 4.299 0 2.15 2.15 0 0 1-4.3 0z"/><path fill="#fff" fill-rule="evenodd" d="M215.052 17.55a2.149 2.149 0 1 1 4.298 0 2.149 2.149 0 0 1-4.298 0" style="stroke-width:1.3202"/><path fill="none" stroke="#000" stroke-linecap="round" stroke-miterlimit="10" stroke-width=".566" d="M215.052 17.55a2.149 2.149 0 1 1 4.298 0 2.149 2.149 0 0 1-4.298 0z"/><path fill="#fff" fill-rule="evenodd" d="M188.856 17.55a2.149 2.149 0 1 1 4.298 0 2.149 2.149 0 0 1-4.298 0" style="stroke-width:1.3202"/><path fill="none" stroke="#000" stroke-linecap="round" stroke-miterlimit="10" stroke-width=".566" d="M188.856 17.55a2.149 2.149 0 1 1 4.298 0 2.149 2.149 0 0 1-4.298 0z"/><path fill="#fff" fill-rule="evenodd" d="M149.561 17.55a2.149 2.149 0 1 1 4.298 0 2.149 2.149 0 0 1-4.298 0" style="stroke-width:1.3202"/><path fill="none" stroke="#000" stroke-linecap="round" stroke-miterlimit="10" stroke-width=".566" d="M149.561 17.55a2.149 2.149 0 1 1 4.298 0 2.149 2.149 0 0 1-4.298 0z"/><path fill="#fff" fill-rule="evenodd" d="M175.758 17.55a2.149 2.149 0 1 1 4.297 0 2.149 2.149 0 0 1-4.297 0" style="stroke-width:1.3202"/><path fill="none" stroke="#000" stroke-linecap="round" stroke-miterlimit="10" stroke-width=".566" d="M175.758 17.55a2.149 2.149 0 1 1 4.297 0 2.149 2.149 0 0 1-4.297 0z"/><path fill="#fff" fill-rule="evenodd" d="M162.66 17.55a2.15 2.15 0 1 1 4.298 0 2.15 2.15 0 0 1-4.298 0" style="stroke-width:1.3202"/><path fill="none" stroke="#000" stroke-linecap="round" stroke-miterlimit="10" stroke-width=".566" d="M162.66 17.55a2.15 2.15 0 1 1 4.298 0 2.15 2.15 0 0 1-4.298 0z"/><path fill="#fff" fill-rule="evenodd" d="M136.464 17.55a2.15 2.15 0 1 1 4.298 0 2.15 2.15 0 0 1-4.298 0" style="stroke-width:1.3202"/><path fill="none" stroke="#000" stroke-linecap="round" stroke-miterlimit="10" stroke-width=".566" d="M136.464 17.55a2.15 2.15 0 1 1 4.298 0 2.15 2.15 0 0 1-4.298 0z"/><path fill="#fff" fill-rule="evenodd" d="M97.17 17.55a2.15 2.15 0 1 1 4.298 0 2.15 2.15 0 0 1-4.299 0" style="stroke-width:1.3202"/><path fill="none" stroke="#000" stroke-linecap="round" stroke-miterlimit="10" stroke-width=".566" d="M97.17 17.55a2.15 2.15 0 1 1 4.298 0 2.15 2.15 0 0 1-4.299 0z"/><path fill="#fff" fill-rule="evenodd" d="M123.365 17.55a2.149 2.149 0 1 1 4.298 0 2.149 2.149 0 0 1-4.298 0" style="stroke-width:1.3202"/><path fill="none" stroke="#000" stroke-linecap="round" stroke-miterlimit="10" stroke-width=".566" d="M123.365 17.55a2.149 2.149 0 1 1 4.298 0 2.149 2.149 0 0 1-4.298 0z"/><path fill="#fff" fill-rule="evenodd" d="M110.267 17.55a2.149 2.149 0 1 1 4.298 0 2.149 2.149 0 0 1-4.298 0" style="stroke-width:1.3202"/><path fill="none" stroke="#000" stroke-linecap="round" stroke-miterlimit="10" stroke-width=".566" d="M110.267 17.55a2.149 2.149 0 1 1 4.298 0 2.149 2.149 0 0 1-4.298 0z"/><path fill="#fff" fill-rule="evenodd" d="M84.071 17.55a2.149 2.149 0 1 1 4.298 0 2.149 2.149 0 0 1-4.298 0" style="stroke-width:1.3202"/><path fill="none" stroke="#000" stroke-linecap="round" stroke-miterlimit="10" stroke-width=".566" d="M84.071 17.55a2.149 2.149 0 1 1 4.298 0 2.149 2.149 0 0 1-4.298 0z"/><path fill="#fff" fill-rule="evenodd" d="M44.777 17.55a2.149 2.149 0 1 1 4.298 0 2.149 2.149 0 0 1-4.298 0" style="stroke-width:1.3202"/><path fill="none" stroke="#000" stroke-linecap="round" stroke-miterlimit="10" stroke-width=".566" d="M44.777 17.55a2.149 2.149 0 1 1 4.298 0 2.149 2.149 0 0 1-4.298 0z"/><path fill="#fff" fill-rule="evenodd" d="M70.973 17.55a2.15 2.15 0 1 1 4.3 0 2.15 2.15 0 0 1-4.3 0" style="stroke-width:1.3202"/><path fill="none" stroke="#000" stroke-linecap="round" stroke-miterlimit="10" stroke-width=".566" d="M70.973 17.55a2.15 2.15 0 1 1 4.3 0 2.15 2.15 0 0 1-4.3 0z"/><path fill="#fff" fill-rule="evenodd" d="M57.875 17.55a2.149 2.149 0 1 1 4.298 0 2.149 2.149 0 0 1-4.298 0" style="stroke-width:1.3202"/><path fill="none" stroke="#000" stroke-linecap="round" stroke-miterlimit="10" stroke-width=".566" d="M57.875 17.55a2.149 2.149 0 1 1 4.298 0 2.149 2.149 0 0 1-4.298 0z"/><path fill="#fff" fill-rule="evenodd" d="M31.68 17.55a2.15 2.15 0 1 1 4.298 0 2.15 2.15 0 0 1-4.299 0" style="stroke-width:1.3202"/><path fill="none" stroke="#000" stroke-linecap="round" stroke-miterlimit="10" stroke-width=".566" d="M31.68 17.55a2.15 2.15 0 1 1 4.298 0 2.15 2.15 0 0 1-4.299 0z"/><path fill="#fff" fill-rule="evenodd" d="M57.875 171.732a2.149 2.149 0 1 1 4.298 0 2.149 2.149 0 0 1-4.298 0" style="stroke-width:1.3202"/><path fill="none" stroke="#000" stroke-linecap="round" stroke-miterlimit="10" stroke-width=".566" d="M57.875 171.732a2.149 2.149 0 1 1 4.298 0 2.149 2.149 0 0 1-4.298 0z"/><path fill="#fff" fill-rule="evenodd" d="M31.68 171.732a2.149 2.149 0 1 1 4.297 0 2.149 2.149 0 0 1-4.298 0" style="stroke-width:1.3202"/><path fill="none" stroke="#000" stroke-linecap="round" stroke-miterlimit="10" stroke-width=".566" d="M31.68 171.732a2.149 2.149 0 1 1 4.297 0 2.149 2.149 0 0 1-4.298 0z"/><path fill="#fff" fill-rule="evenodd" d="M44.777 171.732a2.149 2.149 0 1 1 4.298 0 2.149 2.149 0 0 1-4.298 0" style="stroke-width:1.3202"/><path fill="none" stroke="#000" stroke-linecap="round" stroke-miterlimit="10" stroke-width=".566" d="M44.777 171.732a2.149 2.149 0 1 1 4.298 0 2.149 2.149 0 0 1-4.298 0z"/><path fill="#fff" fill-rule="evenodd" d="M70.973 171.732a2.15 2.15 0 1 1 4.3 0 2.15 2.15 0 0 1-4.3 0" style="stroke-width:1.3202"/><path fill="none" stroke="#000" stroke-linecap="round" stroke-miterlimit="10" stroke-width=".566" d="M70.973 171.732a2.15 2.15 0 1 1 4.3 0 2.15 2.15 0 0 1-4.3 0z"/><path fill="#fff" fill-rule="evenodd" d="M110.267 171.732a2.149 2.149 0 1 1 4.298 0 2.149 2.149 0 0 1-4.298 0" style="stroke-width:1.3202"/><path fill="none" stroke="#000" stroke-linecap="round" stroke-miterlimit="10" stroke-width=".566" d="M110.267 171.732a2.149 2.149 0 1 1 4.298 0 2.149 2.149 0 0 1-4.298 0z"/><path fill="#fff" fill-rule="evenodd" d="M84.071 171.732a2.149 2.149 0 1 1 4.298 0 2.149 2.149 0 0 1-4.298 0" style="stroke-width:1.3202"/><path fill="none" stroke="#000" stroke-linecap="round" stroke-miterlimit="10" stroke-width=".566" d="M84.071 171.732a2.149 2.149 0 1 1 4.298 0 2.149 2.149 0 0 1-4.298 0z"/><path fill="#fff" fill-rule="evenodd" d="M97.17 171.732a2.149 2.149 0 1 1 4.297 0 2.149 2.149 0 0 1-4.298 0" style="stroke-width:1.3202"/><path fill="none" stroke="#000" stroke-linecap="round" stroke-miterlimit="10" stroke-width=".566" d="M97.17 171.732a2.149 2.149 0 1 1 4.297 0 2.149 2.149 0 0 1-4.298 0z"/><path fill="#fff" fill-rule="evenodd" d="M123.365 171.732a2.149 2.149 0 1 1 4.298 0 2.149 2.149 0 0 1-4.298 0" style="stroke-width:1.3202"/><path fill="none" stroke="#000" stroke-linecap="round" stroke-miterlimit="10" stroke-width=".566" d="M123.365 171.732a2.149 2.149 0 1 1 4.298 0 2.149 2.149 0 0 1-4.298 0z"/><path fill="#fff" fill-rule="evenodd" d="M162.66 171.732a2.149 2.149 0 1 1 4.297 0 2.149 2.149 0 0 1-4.297 0" style="stroke-width:1.3202"/><path fill="none" stroke="#000" stroke-linecap="round" stroke-miterlimit="10" stroke-width=".566" d="M162.66 171.732a2.149 2.149 0 1 1 4.297 0 2.149 2.149 0 0 1-4.297 0z"/><path fill="#fff" fill-rule="evenodd" d="M136.464 171.732a2.149 2.149 0 1 1 4.297 0 2.149 2.149 0 0 1-4.297 0" style="stroke-width:1.3202"/><path fill="none" stroke="#000" stroke-linecap="round" stroke-miterlimit="10" stroke-width=".566" d="M136.464 171.732a2.149 2.149 0 1 1 4.297 0 2.149 2.149 0 0 1-4.297 0z"/><path fill="#fff" fill-rule="evenodd" d="M149.561 171.732a2.149 2.149 0 1 1 4.298 0 2.149 2.149 0 0 1-4.298 0" style="stroke-width:1.3202"/><path fill="none" stroke="#000" stroke-linecap="round" stroke-miterlimit="10" stroke-width=".566" d="M149.561 171.732a2.149 2.149 0 1 1 4.298 0 2.149 2.149 0 0 1-4.298 0z"/><path fill="#fff" fill-rule="evenodd" d="M175.758 171.732a2.149 2.149 0 1 1 4.297 0 2.149 2.149 0 0 1-4.297 0" style="stroke-width:1.3202"/><path fill="none" stroke="#000" stroke-linecap="round" stroke-miterlimit="10" stroke-width=".566" d="M175.758 171.732a2.149 2.149 0 1 1 4.297 0 2.149 2.149 0 0 1-4.297 0z"/><path fill="#fff" fill-rule="evenodd" d="M215.052 171.732a2.149 2.149 0 1 1 4.298 0 2.149 2.149 0 0 1-4.298 0" style="stroke-width:1.3202"/><path fill="none" stroke="#000" stroke-linecap="round" stroke-miterlimit="10" stroke-width=".566" d="M215.052 171.732a2.149 2.149 0 1 1 4.298 0 2.149 2.149 0 0 1-4.298 0z"/><path fill="#fff" fill-rule="evenodd" d="M188.856 171.732a2.149 2.149 0 1 1 4.298 0 2.149 2.149 0 0 1-4.298 0" style="stroke-width:1.3202"/><path fill="none" stroke="#000" stroke-linecap="round" stroke-miterlimit="10" stroke-width=".566" d="M188.856 171.732a2.149 2.149 0 1 1 4.298 0 2.149 2.149 0 0 1-4.298 0z"/><path fill="#fff" fill-rule="evenodd" d="M201.954 171.732a2.149 2.149 0 1 1 4.297 0 2.149 2.149 0 0 1-4.297 0" style="stroke-width:1.3202"/><path fill="none" stroke="#000" stroke-linecap="round" stroke-miterlimit="10" stroke-width=".566" d="M201.954 171.732a2.149 2.149 0 1 1 4.297 0 2.149 2.149 0 0 1-4.297 0z"/><path fill="#fff" fill-rule="evenodd" d="M228.15 171.732a2.149 2.149 0 1 1 4.298 0 2.149 2.149 0 0 1-4.298 0" style="stroke-width:1.3202"/><path fill="none" stroke="#000" stroke-linecap="round" stroke-miterlimit="10" stroke-width=".566" d="M228.15 171.732a2.149 2.149 0 1 1 4.298 0 2.149 2.149 0 0 1-4.298 0z"/><path fill="#fff" fill-rule="evenodd" d="M97.34 65.825a2.806 2.806 0 1 1 5.611 0 2.806 2.806 0 0 1-5.611 0" style="stroke-width:1.3202"/><path fill="none" stroke="#000" stroke-linecap="round" stroke-miterlimit="10" stroke-width=".566" d="M97.34 65.825a2.806 2.806 0 1 1 5.611 0 2.806 2.806 0 0 1-5.611 0z"/><path fill="#fff" fill-rule="evenodd" d="M97.34 122.932a2.806 2.806 0 1 1 5.611 0 2.806 2.806 0 0 1-5.611 0" style="stroke-width:1.3202"/><path fill="none" stroke="#000" stroke-linecap="round" stroke-miterlimit="10" stroke-width=".566" d="M97.34 122.932a2.806 2.806 0 1 1 5.611 0 2.806 2.806 0 0 1-5.611 0z"/><path fill="#fff" fill-rule="evenodd" d="M249.483 122.932a2.806 2.806 0 1 1 5.611 0 2.806 2.806 0 0 1-5.611 0" style="stroke-width:1.3202"/><path fill="none" stroke="#000" stroke-linecap="round" stroke-miterlimit="10" stroke-width=".566" d="M249.483 122.932a2.806 2.806 0 1 1 5.611 0 2.806 2.806 0 0 1-5.611 0z"/><path fill="#fff" fill-rule="evenodd" d="M249.483 65.825a2.806 2.806 0 1 1 5.611 0 2.806 2.806 0 0 1-5.611 0" style="stroke-width:1.3202"/><path fill="none" stroke="#000" stroke-linecap="round" stroke-miterlimit="10" stroke-width=".566" d="M249.483 65.825a2.806 2.806 0 1 1 5.611 0 2.806 2.806 0 0 1-5.611 0z"/><path fill="#fff" fill-rule="evenodd" d="M16.56 56.619a1.588 1.588 0 1 1 3.176 0 1.588 1.588 0 0 1-3.176 0" style="stroke-width:1.3202"/><path fill="none" stroke="#000" stroke-linecap="round" stroke-miterlimit="10" stroke-width=".566" d="M16.56 56.619a1.588 1.588 0 1 1 3.176 0 1.588 1.588 0 0 1-3.176 0z"/><path fill="#fff" fill-rule="evenodd" d="M26.066 56.619a1.588 1.588 0 1 1 3.175 0 1.588 1.588 0 0 1-3.175 0" style="stroke-width:1.3202"/><path fill="none" stroke="#000" stroke-linecap="round" stroke-miterlimit="10" stroke-width=".566" d="M26.066 56.619a1.588 1.588 0 1 1 3.175 0 1.588 1.588 0 0 1-3.175 0z"/><path fill="#fff" fill-rule="evenodd" d="M35.571 56.619a1.588 1.588 0 1 1 3.176 0 1.588 1.588 0 0 1-3.176 0" style="stroke-width:1.3202"/><path fill="none" stroke="#000" stroke-linecap="round" stroke-miterlimit="10" stroke-width=".566" d="M35.571 56.619a1.588 1.588 0 1 1 3.176 0 1.588 1.588 0 0 1-3.176 0z"/><path fill="#fff" fill-rule="evenodd" d="M45.077 56.619a1.588 1.588 0 1 1 3.175 0 1.588 1.588 0 0 1-3.175 0" style="stroke-width:1.3202"/><path fill="none" stroke="#000" stroke-linecap="round" stroke-miterlimit="10" stroke-width=".566" d="M45.077 56.619a1.588 1.588 0 1 1 3.175 0 1.588 1.588 0 0 1-3.175 0z"/><path fill="#fff" fill-rule="evenodd" d="M54.582 56.619a1.588 1.588 0 1 1 3.176 0 1.588 1.588 0 0 1-3.176 0" style="stroke-width:1.3202"/><path fill="none" stroke="#000" stroke-linecap="round" stroke-miterlimit="10" stroke-width=".566" d="M54.582 56.619a1.588 1.588 0 1 1 3.176 0 1.588 1.588 0 0 1-3.176 0z"/><path fill="#fff" fill-rule="evenodd" d="M64.087 56.619a1.588 1.588 0 1 1 3.176 0 1.588 1.588 0 0 1-3.176 0" style="stroke-width:1.3202"/><path fill="none" stroke="#000" stroke-linecap="round" stroke-miterlimit="10" stroke-width=".566" d="M64.087 56.619a1.588 1.588 0 1 1 3.176 0 1.588 1.588 0 0 1-3.176 0z"/><path fill="#fff" fill-rule="evenodd" d="M73.593 56.619a1.588 1.588 0 1 1 3.175 0 1.588 1.588 0 0 1-3.175 0" style="stroke-width:1.3202"/><path fill="none" stroke="#000" stroke-linecap="round" stroke-miterlimit="10" stroke-width=".566" d="M73.593 56.619a1.588 1.588 0 1 1 3.175 0 1.588 1.588 0 0 1-3.175 0z"/><path fill="#fff" fill-rule="evenodd" d="M83.098 56.619a1.588 1.588 0 1 1 3.176 0 1.588 1.588 0 0 1-3.176 0" style="stroke-width:1.3202"/><path fill="none" stroke="#000" stroke-linecap="round" stroke-miterlimit="10" stroke-width=".566" d="M83.098 56.619a1.588 1.588 0 1 1 3.176 0 1.588 1.588 0 0 1-3.176 0z"/><path fill="#fff" fill-rule="evenodd" d="M83.098 66.124a1.588 1.588 0 1 1 3.176 0 1.588 1.588 0 0 1-3.176 0" style="stroke-width:1.3202"/><path fill="none" stroke="#000" stroke-linecap="round" stroke-miterlimit="10" stroke-width=".566" d="M83.098 66.124a1.588 1.588 0 1 1 3.176 0 1.588 1.588 0 0 1-3.176 0z"/><path fill="#fff" fill-rule="evenodd" d="M73.593 66.124a1.588 1.588 0 1 1 3.175 0 1.588 1.588 0 0 1-3.175 0" style="stroke-width:1.3202"/><path fill="none" stroke="#000" stroke-linecap="round" stroke-miterlimit="10" stroke-width=".566" d="M73.593 66.124a1.588 1.588 0 1 1 3.175 0 1.588 1.588 0 0 1-3.175 0z"/><path fill="#fff" fill-rule="evenodd" d="M64.087 66.124a1.588 1.588 0 1 1 3.176 0 1.588 1.588 0 0 1-3.176 0" style="stroke-width:1.3202"/><path fill="none" stroke="#000" stroke-linecap="round" stroke-miterlimit="10" stroke-width=".566" d="M64.087 66.124a1.588 1.588 0 1 1 3.176 0 1.588 1.588 0 0 1-3.176 0z"/><path fill="#fff" fill-rule="evenodd" d="M54.582 66.124a1.588 1.588 0 1 1 3.175 0 1.588 1.588 0 0 1-3.175 0" style="stroke-width:1.3202"/><path fill="none" stroke="#000" stroke-linecap="round" stroke-miterlimit="10" stroke-width=".566" d="M54.582 66.124a1.588 1.588 0 1 1 3.175 0 1.588 1.588 0 0 1-3.175 0z"/><path fill="#fff" fill-rule="evenodd" d="M45.077 66.124a1.588 1.588 0 1 1 3.175 0 1.588 1.588 0 0 1-3.175 0" style="stroke-width:1.3202"/><path fill="none" stroke="#000" stroke-linecap="round" stroke-miterlimit="10" stroke-width=".566" d="M45.077 66.124a1.588 1.588 0 1 1 3.175 0 1.588 1.588 0 0 1-3.175 0z"/><path fill="#fff" fill-rule="evenodd" d="M35.571 66.124a1.588 1.588 0 1 1 3.176 0 1.588 1.588 0 0 1-3.176 0" style="stroke-width:1.3202"/><path fill="none" stroke="#000" stroke-linecap="round" stroke-miterlimit="10" stroke-width=".566" d="M35.571 66.124a1.588 1.588 0 1 1 3.176 0 1.588 1.588 0 0 1-3.176 0z"/><path fill="#fff" fill-rule="evenodd" d="M26.066 66.124a1.588 1.588 0 1 1 3.175 0 1.588 1.588 0 0 1-3.175 0" style="stroke-width:1.3202"/><path fill="none" stroke="#000" stroke-linecap="round" stroke-miterlimit="10" stroke-width=".566" d="M26.066 66.124a1.588 1.588 0 1 1 3.175 0 1.588 1.588 0 0 1-3.175 0z"/><path fill="#fff" fill-rule="evenodd" d="M16.56 66.124a1.588 1.588 0 1 1 3.176 0 1.588 1.588 0 0 1-3.176 0" style="stroke-width:1.3202"/><path fill="none" stroke="#000" stroke-linecap="round" stroke-miterlimit="10" stroke-width=".566" d="M16.56 66.124a1.588 1.588 0 1 1 3.176 0 1.588 1.588 0 0 1-3.176 0z"/><path fill="#fff" fill-rule="evenodd" d="M83.098 75.63a1.588 1.588 0 1 1 3.176 0 1.588 1.588 0 0 1-3.176 0" style="stroke-width:1.3202"/><path fill="none" stroke="#000" stroke-linecap="round" stroke-miterlimit="10" stroke-width=".566" d="M83.098 75.63a1.588 1.588 0 1 1 3.176 0 1.588 1.588 0 0 1-3.176 0z"/><path fill="#fff" fill-rule="evenodd" d="M73.593 75.63a1.588 1.588 0 1 1 3.175 0 1.588 1.588 0 0 1-3.175 0" style="stroke-width:1.3202"/><path fill="none" stroke="#000" stroke-linecap="round" stroke-miterlimit="10" stroke-width=".566" d="M73.593 75.63a1.588 1.588 0 1 1 3.175 0 1.588 1.588 0 0 1-3.175 0z"/><path fill="#fff" fill-rule="evenodd" d="M64.087 75.63a1.588 1.588 0 1 1 3.176 0 1.588 1.588 0 0 1-3.176 0" style="stroke-width:1.3202"/><path fill="none" stroke="#000" stroke-linecap="round" stroke-miterlimit="10" stroke-width=".566" d="M64.087 75.63a1.588 1.588 0 1 1 3.176 0 1.588 1.588 0 0 1-3.176 0z"/><path fill="#fff" fill-rule="evenodd" d="M54.582 75.63a1.588 1.588 0 1 1 3.175 0 1.588 1.588 0 0 1-3.175 0" style="stroke-width:1.3202"/><path fill="none" stroke="#000" stroke-linecap="round" stroke-miterlimit="10" stroke-width=".566" d="M54.582 75.63a1.588 1.588 0 1 1 3.175 0 1.588 1.588 0 0 1-3.175 0z"/><path fill="#fff" fill-rule="evenodd" d="M45.077 75.63a1.588 1.588 0 1 1 3.175 0 1.588 1.588 0 0 1-3.175 0" style="stroke-width:1.3202"/><path fill="none" stroke="#000" stroke-linecap="round" stroke-miterlimit="10" stroke-width=".566" d="M45.077 75.63a1.588 1.588 0 1 1 3.175 0 1.588 1.588 0 0 1-3.175 0z"/><path fill="#fff" fill-rule="evenodd" d="M35.571 75.63a1.588 1.588 0 1 1 3.176 0 1.588 1.588 0 0 1-3.176 0" style="stroke-width:1.3202"/><path fill="none" stroke="#000" stroke-linecap="round" stroke-miterlimit="10" stroke-width=".566" d="M35.571 75.63a1.588 1.588 0 1 1 3.176 0 1.588 1.588 0 0 1-3.176 0z"/><path fill="#fff" fill-rule="evenodd" d="M26.066 75.63a1.588 1.588 0 1 1 3.175 0 1.588 1.588 0 0 1-3.175 0" style="stroke-width:1.3202"/><path fill="none" stroke="#000" stroke-linecap="round" stroke-miterlimit="10" stroke-width=".566" d="M26.066 75.63a1.588 1.588 0 1 1 3.175 0 1.588 1.588 0 0 1-3.175 0z"/><path fill="#fff" fill-rule="evenodd" d="M16.56 75.63a1.588 1.588 0 1 1 3.176 0 1.588 1.588 0 0 1-3.176 0" style="stroke-width:1.3202"/><path fill="none" stroke="#000" stroke-linecap="round" stroke-miterlimit="10" stroke-width=".566" d="M16.56 75.63a1.588 1.588 0 1 1 3.176 0 1.588 1.588 0 0 1-3.176 0z"/><path fill="#fff" fill-rule="evenodd" d="M83.098 85.135a1.588 1.588 0 1 1 3.176 0 1.588 1.588 0 0 1-3.176 0" style="stroke-width:1.3202"/><path fill="none" stroke="#000" stroke-linecap="round" stroke-miterlimit="10" stroke-width=".566" d="M83.098 85.135a1.588 1.588 0 1 1 3.176 0 1.588 1.588 0 0 1-3.176 0z"/><path fill="#fff" fill-rule="evenodd" d="M73.593 85.135a1.588 1.588 0 1 1 3.175 0 1.588 1.588 0 0 1-3.175 0" style="stroke-width:1.3202"/><path fill="none" stroke="#000" stroke-linecap="round" stroke-miterlimit="10" stroke-width=".566" d="M73.593 85.135a1.588 1.588 0 1 1 3.175 0 1.588 1.588 0 0 1-3.175 0z"/><path fill="#fff" fill-rule="evenodd" d="M64.087 85.135a1.588 1.588 0 1 1 3.176 0 1.588 1.588 0 0 1-3.176 0" style="stroke-width:1.3202"/><path fill="none" stroke="#000" stroke-linecap="round" stroke-miterlimit="10" stroke-width=".566" d="M64.087 85.135a1.588 1.588 0 1 1 3.176 0 1.588 1.588 0 0 1-3.176 0z"/><path fill="#fff" fill-rule="evenodd" d="M54.582 85.135a1.588 1.588 0 1 1 3.175 0 1.588 1.588 0 0 1-3.175 0" style="stroke-width:1.3202"/><path fill="none" stroke="#000" stroke-linecap="round" stroke-miterlimit="10" stroke-width=".566" d="M54.582 85.135a1.588 1.588 0 1 1 3.175 0 1.588 1.588 0 0 1-3.175 0z"/><path fill="#fff" fill-rule="evenodd" d="M45.077 85.135a1.588 1.588 0 1 1 3.175 0 1.588 1.588 0 0 1-3.175 0" style="stroke-width:1.3202"/><path fill="none" stroke="#000" stroke-linecap="round" stroke-miterlimit="10" stroke-width=".566" d="M45.077 85.135a1.588 1.588 0 1 1 3.175 0 1.588 1.588 0 0 1-3.175 0z"/><path fill="#fff" fill-rule="evenodd" d="M35.571 85.135a1.588 1.588 0 1 1 3.176 0 1.588 1.588 0 0 1-3.176 0" style="stroke-width:1.3202"/><path fill="none" stroke="#000" stroke-linecap="round" stroke-miterlimit="10" stroke-width=".566" d="M35.571 85.135a1.588 1.588 0 1 1 3.176 0 1.588 1.588 0 0 1-3.176 0z"/><path fill="#fff" fill-rule="evenodd" d="M26.066 85.135a1.588 1.588 0 1 1 3.175 0 1.588 1.588 0 0 1-3.175 0" style="stroke-width:1.3202"/><path fill="none" stroke="#000" stroke-linecap="round" stroke-miterlimit="10" stroke-width=".566" d="M26.066 85.135a1.588 1.588 0 1 1 3.175 0 1.588 1.588 0 0 1-3.175 0z"/><path fill="#fff" fill-rule="evenodd" d="M16.56 85.135a1.588 1.588 0 1 1 3.176 0 1.588 1.588 0 0 1-3.176 0" style="stroke-width:1.3202"/><path fill="none" stroke="#000" stroke-linecap="round" stroke-miterlimit="10" stroke-width=".566" d="M16.56 85.135a1.588 1.588 0 1 1 3.176 0 1.588 1.588 0 0 1-3.176 0z"/><path fill="#fff" fill-rule="evenodd" d="M83.098 94.64a1.588 1.588 0 1 1 3.176 0 1.588 1.588 0 0 1-3.176 0" style="stroke-width:1.3202"/><path fill="none" stroke="#000" stroke-linecap="round" stroke-miterlimit="10" stroke-width=".566" d="M83.098 94.64a1.588 1.588 0 1 1 3.176 0 1.588 1.588 0 0 1-3.176 0z"/><path fill="#fff" fill-rule="evenodd" d="M73.593 94.64a1.588 1.588 0 1 1 3.175 0 1.588 1.588 0 0 1-3.175 0" style="stroke-width:1.3202"/><path fill="none" stroke="#000" stroke-linecap="round" stroke-miterlimit="10" stroke-width=".566" d="M73.593 94.64a1.588 1.588 0 1 1 3.175 0 1.588 1.588 0 0 1-3.175 0z"/><path fill="#fff" fill-rule="evenodd" d="M64.087 94.64a1.588 1.588 0 1 1 3.176 0 1.588 1.588 0 0 1-3.176 0" style="stroke-width:1.3202"/><path fill="none" stroke="#000" stroke-linecap="round" stroke-miterlimit="10" stroke-width=".566" d="M64.087 94.64a1.588 1.588 0 1 1 3.176 0 1.588 1.588 0 0 1-3.176 0z"/><path fill="#fff" fill-rule="evenodd" d="M54.582 94.64a1.588 1.588 0 1 1 3.175 0 1.588 1.588 0 0 1-3.175 0" style="stroke-width:1.3202"/><path fill="none" stroke="#000" stroke-linecap="round" stroke-miterlimit="10" stroke-width=".566" d="M54.582 94.64a1.588 1.588 0 1 1 3.175 0 1.588 1.588 0 0 1-3.175 0z"/><path fill="#fff" fill-rule="evenodd" d="M45.077 94.64a1.588 1.588 0 1 1 3.175 0 1.588 1.588 0 0 1-3.175 0" style="stroke-width:1.3202"/><path fill="none" stroke="#000" stroke-linecap="round" stroke-miterlimit="10" stroke-width=".566" d="M45.077 94.64a1.588 1.588 0 1 1 3.175 0 1.588 1.588 0 0 1-3.175 0z"/><path fill="#fff" fill-rule="evenodd" d="M35.571 94.64a1.588 1.588 0 1 1 3.176 0 1.588 1.588 0 0 1-3.176 0" style="stroke-width:1.3202"/><path fill="none" stroke="#000" stroke-linecap="round" stroke-miterlimit="10" stroke-width=".566" d="M35.571 94.64a1.588 1.588 0 1 1 3.176 0 1.588 1.588 0 0 1-3.176 0z"/><path fill="#fff" fill-rule="evenodd" d="M26.066 94.64a1.588 1.588 0 1 1 3.175 0 1.588 1.588 0 0 1-3.175 0" style="stroke-width:1.3202"/><path fill="none" stroke="#000" stroke-linecap="round" stroke-miterlimit="10" stroke-width=".566" d="M26.066 94.64a1.588 1.588 0 1 1 3.175 0 1.588 1.588 0 0 1-3.175 0z"/><path fill="#fff" fill-rule="evenodd" d="M16.56 94.64a1.588 1.588 0 1 1 3.176 0 1.588 1.588 0 0 1-3.176 0" style="stroke-width:1.3202"/><path fill="none" stroke="#000" stroke-linecap="round" stroke-miterlimit="10" stroke-width=".566" d="M16.56 94.64a1.588 1.588 0 1 1 3.176 0 1.588 1.588 0 0 1-3.176 0z"/><path fill="#fff" fill-rule="evenodd" d="M83.098 104.146a1.588 1.588 0 1 1 3.176 0 1.588 1.588 0 0 1-3.176 0" style="stroke-width:1.3202"/><path fill="none" stroke="#000" stroke-linecap="round" stroke-miterlimit="10" stroke-width=".566" d="M83.098 104.146a1.588 1.588 0 1 1 3.176 0 1.588 1.588 0 0 1-3.176 0z"/><path fill="#fff" fill-rule="evenodd" d="M73.593 104.146a1.588 1.588 0 1 1 3.175 0 1.588 1.588 0 0 1-3.175 0" style="stroke-width:1.3202"/><path fill="none" stroke="#000" stroke-linecap="round" stroke-miterlimit="10" stroke-width=".566" d="M73.593 104.146a1.588 1.588 0 1 1 3.175 0 1.588 1.588 0 0 1-3.175 0z"/><path fill="#fff" fill-rule="evenodd" d="M64.087 104.146a1.588 1.588 0 1 1 3.176 0 1.588 1.588 0 0 1-3.176 0" style="stroke-width:1.3202"/><path fill="none" stroke="#000" stroke-linecap="round" stroke-miterlimit="10" stroke-width=".566" d="M64.087 104.146a1.588 1.588 0 1 1 3.176 0 1.588 1.588 0 0 1-3.176 0z"/><path fill="#fff" fill-rule="evenodd" d="M54.582 104.146a1.588 1.588 0 1 1 3.175 0 1.588 1.588 0 0 1-3.175 0" style="stroke-width:1.3202"/><path fill="none" stroke="#000" stroke-linecap="round" stroke-miterlimit="10" stroke-width=".566" d="M54.582 104.146a1.588 1.588 0 1 1 3.175 0 1.588 1.588 0 0 1-3.175 0z"/><path fill="#fff" fill-rule="evenodd" d="M45.077 104.146a1.588 1.588 0 1 1 3.175 0 1.588 1.588 0 0 1-3.175 0" style="stroke-width:1.3202"/><path fill="none" stroke="#000" stroke-linecap="round" stroke-miterlimit="10" stroke-width=".566" d="M45.077 104.146a1.588 1.588 0 1 1 3.175 0 1.588 1.588 0 0 1-3.175 0z"/><path fill="#fff" fill-rule="evenodd" d="M35.571 104.146a1.588 1.588 0 1 1 3.176 0 1.588 1.588 0 0 1-3.176 0" style="stroke-width:1.3202"/><path fill="none" stroke="#000" stroke-linecap="round" stroke-miterlimit="10" stroke-width=".566" d="M35.571 104.146a1.588 1.588 0 1 1 3.176 0 1.588 1.588 0 0 1-3.176 0z"/><path fill="#fff" fill-rule="evenodd" d="M26.066 104.146a1.588 1.588 0 1 1 3.175 0 1.588 1.588 0 0 1-3.175 0" style="stroke-width:1.3202"/><path fill="none" stroke="#000" stroke-linecap="round" stroke-miterlimit="10" stroke-width=".566" d="M26.066 104.146a1.588 1.588 0 1 1 3.175 0 1.588 1.588 0 0 1-3.175 0z"/><path fill="#fff" fill-rule="evenodd" d="M16.56 104.146a1.588 1.588 0 1 1 3.176 0 1.588 1.588 0 0 1-3.176 0" style="stroke-width:1.3202"/><path fill="none" stroke="#000" stroke-linecap="round" stroke-miterlimit="10" stroke-width=".566" d="M16.56 104.146a1.588 1.588 0 1 1 3.176 0 1.588 1.588 0 0 1-3.176 0z"/><path fill="#fff" fill-rule="evenodd" d="M83.098 113.651a1.588 1.588 0 1 1 3.176 0 1.588 1.588 0 0 1-3.176 0" style="stroke-width:1.3202"/><path fill="none" stroke="#000" stroke-linecap="round" stroke-miterlimit="10" stroke-width=".566" d="M83.098 113.651a1.588 1.588 0 1 1 3.176 0 1.588 1.588 0 0 1-3.176 0z"/><path fill="#fff" fill-rule="evenodd" d="M73.593 113.651a1.588 1.588 0 1 1 3.175 0 1.588 1.588 0 0 1-3.175 0" style="stroke-width:1.3202"/><path fill="none" stroke="#000" stroke-linecap="round" stroke-miterlimit="10" stroke-width=".566" d="M73.593 113.651a1.588 1.588 0 1 1 3.175 0 1.588 1.588 0 0 1-3.175 0z"/><path fill="#fff" fill-rule="evenodd" d="M64.087 113.651a1.588 1.588 0 1 1 3.176 0 1.588 1.588 0 0 1-3.176 0" style="stroke-width:1.3202"/><path fill="none" stroke="#000" stroke-linecap="round" stroke-miterlimit="10" stroke-width=".566" d="M64.087 113.651a1.588 1.588 0 1 1 3.176 0 1.588 1.588 0 0 1-3.176 0z"/><path fill="#fff" fill-rule="evenodd" d="M54.582 113.651a1.588 1.588 0 1 1 3.175 0 1.588 1.588 0 0 1-3.175 0" style="stroke-width:1.3202"/><path fill="none" stroke="#000" stroke-linecap="round" stroke-miterlimit="10" stroke-width=".566" d="M54.582 113.651a1.588 1.588 0 1 1 3.175 0 1.588 1.588 0 0 1-3.175 0z"/><path fill="#fff" fill-rule="evenodd" d="M45.077 113.651a1.588 1.588 0 1 1 3.175 0 1.588 1.588 0 0 1-3.175 0" style="stroke-width:1.3202"/><path fill="none" stroke="#000" stroke-linecap="round" stroke-miterlimit="10" stroke-width=".566" d="M45.077 113.651a1.588 1.588 0 1 1 3.175 0 1.588 1.588 0 0 1-3.175 0z"/><path fill="#fff" fill-rule="evenodd" d="M35.571 113.651a1.588 1.588 0 1 1 3.176 0 1.588 1.588 0 0 1-3.176 0" style="stroke-width:1.3202"/><path fill="none" stroke="#000" stroke-linecap="round" stroke-miterlimit="10" stroke-width=".566" d="M35.571 113.651a1.588 1.588 0 1 1 3.176 0 1.588 1.588 0 0 1-3.176 0z"/><path fill="#fff" fill-rule="evenodd" d="M26.066 113.651a1.588 1.588 0 1 1 3.175 0 1.588 1.588 0 0 1-3.175 0" style="stroke-width:1.3202"/><path fill="none" stroke="#000" stroke-linecap="round" stroke-miterlimit="10" stroke-width=".566" d="M26.066 113.651a1.588 1.588 0 1 1 3.175 0 1.588 1.588 0 0 1-3.175 0z"/><path fill="#fff" fill-rule="evenodd" d="M16.56 113.651a1.588 1.588 0 1 1 3.176 0 1.588 1.588 0 0 1-3.176 0" style="stroke-width:1.3202"/><path fill="none" stroke="#000" stroke-linecap="round" stroke-miterlimit="10" stroke-width=".566" d="M16.56 113.651a1.588 1.588 0 1 1 3.176 0 1.588 1.588 0 0 1-3.176 0z"/><path fill="#fff" fill-rule="evenodd" d="M83.098 123.157a1.588 1.588 0 1 1 3.176 0 1.588 1.588 0 0 1-3.176 0" style="stroke-width:1.3202"/><path fill="none" stroke="#000" stroke-linecap="round" stroke-miterlimit="10" stroke-width=".566" d="M83.098 123.157a1.588 1.588 0 1 1 3.176 0 1.588 1.588 0 0 1-3.176 0z"/><path fill="#fff" fill-rule="evenodd" d="M73.593 123.157a1.588 1.588 0 1 1 3.175 0 1.588 1.588 0 0 1-3.175 0" style="stroke-width:1.3202"/><path fill="none" stroke="#000" stroke-linecap="round" stroke-miterlimit="10" stroke-width=".566" d="M73.593 123.157a1.588 1.588 0 1 1 3.175 0 1.588 1.588 0 0 1-3.175 0z"/><path fill="#fff" fill-rule="evenodd" d="M64.087 123.157a1.588 1.588 0 1 1 3.176 0 1.588 1.588 0 0 1-3.176 0" style="stroke-width:1.3202"/><path fill="none" stroke="#000" stroke-linecap="round" stroke-miterlimit="10" stroke-width=".566" d="M64.087 123.157a1.588 1.588 0 1 1 3.176 0 1.588 1.588 0 0 1-3.176 0z"/><path fill="#fff" fill-rule="evenodd" d="M54.582 123.157a1.588 1.588 0 1 1 3.175 0 1.588 1.588 0 0 1-3.175 0" style="stroke-width:1.3202"/><path fill="none" stroke="#000" stroke-linecap="round" stroke-miterlimit="10" stroke-width=".566" d="M54.582 123.157a1.588 1.588 0 1 1 3.175 0 1.588 1.588 0 0 1-3.175 0z"/><path fill="#fff" fill-rule="evenodd" d="M45.077 123.157a1.588 1.588 0 1 1 3.175 0 1.588 1.588 0 0 1-3.175 0" style="stroke-width:1.3202"/><path fill="none" stroke="#000" stroke-linecap="round" stroke-miterlimit="10" stroke-width=".566" d="M45.077 123.157a1.588 1.588 0 1 1 3.175 0 1.588 1.588 0 0 1-3.175 0z"/><path fill="#fff" fill-rule="evenodd" d="M35.571 123.157a1.588 1.588 0 1 1 3.176 0 1.588 1.588 0 0 1-3.176 0" style="stroke-width:1.3202"/><path fill="none" stroke="#000" stroke-linecap="round" stroke-miterlimit="10" stroke-width=".566" d="M35.571 123.157a1.588 1.588 0 1 1 3.176 0 1.588 1.588 0 0 1-3.176 0z"/><path fill="#fff" fill-rule="evenodd" d="M26.066 123.157a1.588 1.588 0 1 1 3.175 0 1.588 1.588 0 0 1-3.175 0" style="stroke-width:1.3202"/><path fill="none" stroke="#000" stroke-linecap="round" stroke-miterlimit="10" stroke-width=".566" d="M26.066 123.157a1.588 1.588 0 1 1 3.175 0 1.588 1.588 0 0 1-3.175 0z"/><path fill="#fff" fill-rule="evenodd" d="M16.56 123.157a1.588 1.588 0 1 1 3.176 0 1.588 1.588 0 0 1-3.176 0" style="stroke-width:1.3202"/><path fill="none" stroke="#000" stroke-linecap="round" stroke-miterlimit="10" stroke-width=".566" d="M16.56 123.157a1.588 1.588 0 1 1 3.176 0 1.588 1.588 0 0 1-3.176 0z"/><path fill="#fff" fill-rule="evenodd" d="M16.56 132.662a1.588 1.588 0 1 1 3.176 0 1.588 1.588 0 0 1-3.176 0" style="stroke-width:1.3202"/><path fill="none" stroke="#000" stroke-linecap="round" stroke-miterlimit="10" stroke-width=".566" d="M16.56 132.662a1.588 1.588 0 1 1 3.176 0 1.588 1.588 0 0 1-3.176 0z"/><path fill="#fff" fill-rule="evenodd" d="M26.066 132.662a1.588 1.588 0 1 1 3.175 0 1.588 1.588 0 0 1-3.175 0" style="stroke-width:1.3202"/><path fill="none" stroke="#000" stroke-linecap="round" stroke-miterlimit="10" stroke-width=".566" d="M26.066 132.662a1.588 1.588 0 1 1 3.175 0 1.588 1.588 0 0 1-3.175 0z"/><path fill="#fff" fill-rule="evenodd" d="M35.571 132.662a1.588 1.588 0 1 1 3.176 0 1.588 1.588 0 0 1-3.176 0" style="stroke-width:1.3202"/><path fill="none" stroke="#000" stroke-linecap="round" stroke-miterlimit="10" stroke-width=".566" d="M35.571 132.662a1.588 1.588 0 1 1 3.176 0 1.588 1.588 0 0 1-3.176 0z"/><path fill="#fff" fill-rule="evenodd" d="M45.077 132.662a1.588 1.588 0 1 1 3.175 0 1.588 1.588 0 0 1-3.175 0" style="stroke-width:1.3202"/><path fill="none" stroke="#000" stroke-linecap="round" stroke-miterlimit="10" stroke-width=".566" d="M45.077 132.662a1.588 1.588 0 1 1 3.175 0 1.588 1.588 0 0 1-3.175 0z"/><path fill="#fff" fill-rule="evenodd" d="M54.582 132.662a1.588 1.588 0 1 1 3.175 0 1.588 1.588 0 0 1-3.175 0" style="stroke-width:1.3202"/><path fill="none" stroke="#000" stroke-linecap="round" stroke-miterlimit="10" stroke-width=".566" d="M54.582 132.662a1.588 1.588 0 1 1 3.175 0 1.588 1.588 0 0 1-3.175 0z"/><path fill="#fff" fill-rule="evenodd" d="M64.087 132.662a1.588 1.588 0 1 1 3.176 0 1.588 1.588 0 0 1-3.176 0" style="stroke-width:1.3202"/><path fill="none" stroke="#000" stroke-linecap="round" stroke-miterlimit="10" stroke-width=".566" d="M64.087 132.662a1.588 1.588 0 1 1 3.176 0 1.588 1.588 0 0 1-3.176 0z"/><path fill="#fff" fill-rule="evenodd" d="M73.593 132.662a1.588 1.588 0 1 1 3.175 0 1.588 1.588 0 0 1-3.175 0" style="stroke-width:1.3202"/><path fill="none" stroke="#000" stroke-linecap="round" stroke-miterlimit="10" stroke-width=".566" d="M73.593 132.662a1.588 1.588 0 1 1 3.175 0 1.588 1.588 0 0 1-3.175 0z"/><path fill="#fff" fill-rule="evenodd" d="M83.098 132.662a1.588 1.588 0 1 1 3.176 0 1.588 1.588 0 0 1-3.176 0" style="stroke-width:1.3202"/><path fill="none" stroke="#000" stroke-linecap="round" stroke-miterlimit="10" stroke-width=".566" d="M83.098 132.662a1.588 1.588 0 1 1 3.176 0 1.588 1.588 0 0 1-3.176 0z"/><path fill="#fff" fill-rule="evenodd" d="M221.81 122.932a1.962 1.962 0 1 1 3.924 0 1.962 1.962 0 0 1-3.924 0" style="stroke-width:1.3202"/><path fill="none" stroke="#000" stroke-linecap="round" stroke-miterlimit="10" stroke-width=".566" d="M221.81 122.932a1.962 1.962 0 1 1 3.924 0 1.962 1.962 0 0 1-3.924 0z"/><path fill="#fff" fill-rule="evenodd" d="M231.316 122.932a1.962 1.962 0 1 1 3.923 0 1.962 1.962 0 0 1-3.923 0" style="stroke-width:1.3202"/><path fill="none" stroke="#000" stroke-linecap="round" stroke-miterlimit="10" stroke-width=".566" d="M231.316 122.932a1.962 1.962 0 1 1 3.923 0 1.962 1.962 0 0 1-3.923 0z"/><path fill="#fff" fill-rule="evenodd" d="M240.821 122.932a1.962 1.962 0 1 1 3.924 0 1.962 1.962 0 0 1-3.924 0" style="stroke-width:1.3202"/><path fill="none" stroke="#000" stroke-linecap="round" stroke-miterlimit="10" stroke-width=".566" d="M240.821 122.932a1.962 1.962 0 1 1 3.924 0 1.962 1.962 0 0 1-3.924 0z"/><path fill="#fff" fill-rule="evenodd" d="M234.946 127.685a3.085 3.085 0 1 1 6.169 0 3.085 3.085 0 0 1-6.17 0" style="stroke-width:1.3202"/><path fill="none" stroke="#000" stroke-linecap="round" stroke-miterlimit="10" stroke-width=".566" d="M234.946 127.685a3.085 3.085 0 1 1 6.169 0 3.085 3.085 0 0 1-6.17 0z"/><path fill="#fff" fill-rule="evenodd" d="M111.375 127.685a3.085 3.085 0 1 1 6.17 0 3.085 3.085 0 0 1-6.17 0" style="stroke-width:1.3202"/><path fill="none" stroke="#000" stroke-linecap="round" stroke-miterlimit="10" stroke-width=".566" d="M111.375 127.685a3.085 3.085 0 1 1 6.17 0 3.085 3.085 0 0 1-6.17 0z"/><path fill="#fff" fill-rule="evenodd" d="M212.305 122.932a1.962 1.962 0 1 1 3.924 0 1.962 1.962 0 0 1-3.924 0" style="stroke-width:1.3202"/><path fill="none" stroke="#000" stroke-linecap="round" stroke-miterlimit="10" stroke-width=".566" d="M212.305 122.932a1.962 1.962 0 1 1 3.924 0 1.962 1.962 0 0 1-3.924 0z"/><path fill="#fff" fill-rule="evenodd" d="M202.8 122.932a1.962 1.962 0 1 1 3.923 0 1.962 1.962 0 0 1-3.924 0" style="stroke-width:1.3202"/><path fill="none" stroke="#000" stroke-linecap="round" stroke-miterlimit="10" stroke-width=".566" d="M202.8 122.932a1.962 1.962 0 1 1 3.923 0 1.962 1.962 0 0 1-3.924 0z"/><path fill="#fff" fill-rule="evenodd" d="M193.294 122.932a1.962 1.962 0 1 1 3.924 0 1.962 1.962 0 0 1-3.924 0" style="stroke-width:1.3202"/><path fill="none" stroke="#000" stroke-linecap="round" stroke-miterlimit="10" stroke-width=".566" d="M193.294 122.932a1.962 1.962 0 1 1 3.924 0 1.962 1.962 0 0 1-3.924 0z"/><path fill="#fff" fill-rule="evenodd" d="M183.789 122.932a1.962 1.962 0 1 1 3.923 0 1.962 1.962 0 0 1-3.923 0" style="stroke-width:1.3202"/><path fill="none" stroke="#000" stroke-linecap="round" stroke-miterlimit="10" stroke-width=".566" d="M183.789 122.932a1.962 1.962 0 1 1 3.923 0 1.962 1.962 0 0 1-3.923 0z"/><path fill="#fff" fill-rule="evenodd" d="M174.283 122.932a1.962 1.962 0 1 1 3.924 0 1.962 1.962 0 0 1-3.924 0" style="stroke-width:1.3202"/><path fill="none" stroke="#000" stroke-linecap="round" stroke-miterlimit="10" stroke-width=".566" d="M174.283 122.932a1.962 1.962 0 1 1 3.924 0 1.962 1.962 0 0 1-3.924 0z"/><path fill="#fff" fill-rule="evenodd" d="M164.778 122.932a1.962 1.962 0 1 1 3.923 0 1.962 1.962 0 0 1-3.923 0" style="stroke-width:1.3202"/><path fill="none" stroke="#000" stroke-linecap="round" stroke-miterlimit="10" stroke-width=".566" d="M164.778 122.932a1.962 1.962 0 1 1 3.923 0 1.962 1.962 0 0 1-3.923 0z"/><path fill="#fff" fill-rule="evenodd" d="M155.272 122.932a1.962 1.962 0 1 1 3.924 0 1.962 1.962 0 0 1-3.924 0" style="stroke-width:1.3202"/><path fill="none" stroke="#000" stroke-linecap="round" stroke-miterlimit="10" stroke-width=".566" d="M155.272 122.932a1.962 1.962 0 1 1 3.924 0 1.962 1.962 0 0 1-3.924 0z"/><path fill="#fff" fill-rule="evenodd" d="M145.767 122.932a1.962 1.962 0 1 1 3.924 0 1.962 1.962 0 0 1-3.924 0" style="stroke-width:1.3202"/><path fill="none" stroke="#000" stroke-linecap="round" stroke-miterlimit="10" stroke-width=".566" d="M145.767 122.932a1.962 1.962 0 1 1 3.924 0 1.962 1.962 0 0 1-3.924 0z"/><path fill="#fff" fill-rule="evenodd" d="M136.261 122.932a1.962 1.962 0 1 1 3.924 0 1.962 1.962 0 0 1-3.924 0" style="stroke-width:1.3202"/><path fill="none" stroke="#000" stroke-linecap="round" stroke-miterlimit="10" stroke-width=".566" d="M136.261 122.932a1.962 1.962 0 1 1 3.924 0 1.962 1.962 0 0 1-3.924 0z"/><path fill="#fff" fill-rule="evenodd" d="M126.756 122.932a1.962 1.962 0 1 1 3.924 0 1.962 1.962 0 0 1-3.924 0" style="stroke-width:1.3202"/><path fill="none" stroke="#000" stroke-linecap="round" stroke-miterlimit="10" stroke-width=".566" d="M126.756 122.932a1.962 1.962 0 1 1 3.924 0 1.962 1.962 0 0 1-3.924 0z"/><path fill="#fff" fill-rule="evenodd" d="M126.756 132.438a1.962 1.962 0 1 1 3.924 0 1.962 1.962 0 0 1-3.924 0" style="stroke-width:1.3202"/><path fill="none" stroke="#000" stroke-linecap="round" stroke-miterlimit="10" stroke-width=".566" d="M126.756 132.438a1.962 1.962 0 1 1 3.924 0 1.962 1.962 0 0 1-3.924 0z"/><path fill="#fff" fill-rule="evenodd" d="M136.261 132.438a1.962 1.962 0 1 1 3.924 0 1.962 1.962 0 0 1-3.924 0" style="stroke-width:1.3202"/><path fill="none" stroke="#000" stroke-linecap="round" stroke-miterlimit="10" stroke-width=".566" d="M136.261 132.438a1.962 1.962 0 1 1 3.924 0 1.962 1.962 0 0 1-3.924 0z"/><path fill="#fff" fill-rule="evenodd" d="M145.767 132.438a1.962 1.962 0 1 1 3.924 0 1.962 1.962 0 0 1-3.924 0" style="stroke-width:1.3202"/><path fill="none" stroke="#000" stroke-linecap="round" stroke-miterlimit="10" stroke-width=".566" d="M145.767 132.438a1.962 1.962 0 1 1 3.924 0 1.962 1.962 0 0 1-3.924 0z"/><path fill="#fff" fill-rule="evenodd" d="M155.272 132.438a1.962 1.962 0 1 1 3.924 0 1.962 1.962 0 0 1-3.924 0" style="stroke-width:1.3202"/><path fill="none" stroke="#000" stroke-linecap="round" stroke-miterlimit="10" stroke-width=".566" d="M155.272 132.438a1.962 1.962 0 1 1 3.924 0 1.962 1.962 0 0 1-3.924 0z"/><path fill="#fff" fill-rule="evenodd" d="M164.778 132.438a1.962 1.962 0 1 1 3.923 0 1.962 1.962 0 0 1-3.923 0" style="stroke-width:1.3202"/><path fill="none" stroke="#000" stroke-linecap="round" stroke-miterlimit="10" stroke-width=".566" d="M164.778 132.438a1.962 1.962 0 1 1 3.923 0 1.962 1.962 0 0 1-3.923 0z"/><path fill="#fff" fill-rule="evenodd" d="M174.283 132.438a1.962 1.962 0 1 1 3.924 0 1.962 1.962 0 0 1-3.924 0" style="stroke-width:1.3202"/><path fill="none" stroke="#000" stroke-linecap="round" stroke-miterlimit="10" stroke-width=".566" d="M174.283 132.438a1.962 1.962 0 1 1 3.924 0 1.962 1.962 0 0 1-3.924 0z"/><path fill="#fff" fill-rule="evenodd" d="M183.789 132.438a1.962 1.962 0 1 1 3.923 0 1.962 1.962 0 0 1-3.923 0" style="stroke-width:1.3202"/><path fill="none" stroke="#000" stroke-linecap="round" stroke-miterlimit="10" stroke-width=".566" d="M183.789 132.438a1.962 1.962 0 1 1 3.923 0 1.962 1.962 0 0 1-3.923 0z"/><path fill="#fff" fill-rule="evenodd" d="M193.294 132.438a1.962 1.962 0 1 1 3.924 0 1.962 1.962 0 0 1-3.924 0" style="stroke-width:1.3202"/><path fill="none" stroke="#000" stroke-linecap="round" stroke-miterlimit="10" stroke-width=".566" d="M193.294 132.438a1.962 1.962 0 1 1 3.924 0 1.962 1.962 0 0 1-3.924 0z"/><path fill="#fff" fill-rule="evenodd" d="M202.8 132.438a1.962 1.962 0 1 1 3.923 0 1.962 1.962 0 0 1-3.924 0" style="stroke-width:1.3202"/><path fill="none" stroke="#000" stroke-linecap="round" stroke-miterlimit="10" stroke-width=".566" d="M202.8 132.438a1.962 1.962 0 1 1 3.923 0 1.962 1.962 0 0 1-3.924 0z"/><path fill="#fff" fill-rule="evenodd" d="M212.305 132.438a1.962 1.962 0 1 1 3.924 0 1.962 1.962 0 0 1-3.924 0" style="stroke-width:1.3202"/><path fill="none" stroke="#000" stroke-linecap="round" stroke-miterlimit="10" stroke-width=".566" d="M212.305 132.438a1.962 1.962 0 1 1 3.924 0 1.962 1.962 0 0 1-3.924 0z"/><path fill="#fff" fill-rule="evenodd" d="M221.81 132.438a1.962 1.962 0 1 1 3.924 0 1.962 1.962 0 0 1-3.924 0" style="stroke-width:1.3202"/><path fill="none" stroke="#000" stroke-linecap="round" stroke-miterlimit="10" stroke-width=".566" d="M221.81 132.438a1.962 1.962 0 1 1 3.924 0 1.962 1.962 0 0 1-3.924 0z"/><path fill="#fff" fill-rule="evenodd" d="M117.25 122.932a1.962 1.962 0 1 1 3.924 0 1.962 1.962 0 0 1-3.923 0" style="stroke-width:1.3202"/><path fill="none" stroke="#000" stroke-linecap="round" stroke-miterlimit="10" stroke-width=".566" d="M117.25 122.932a1.962 1.962 0 1 1 3.924 0 1.962 1.962 0 0 1-3.923 0z"/><path fill="#fff" fill-rule="evenodd" d="M107.745 122.932a1.962 1.962 0 1 1 3.924 0 1.962 1.962 0 0 1-3.924 0" style="stroke-width:1.3202"/><path fill="none" stroke="#000" stroke-linecap="round" stroke-miterlimit="10" stroke-width=".566" d="M107.745 122.932a1.962 1.962 0 1 1 3.924 0 1.962 1.962 0 0 1-3.924 0z"/><path fill="#fff" fill-rule="evenodd" d="M107.745 132.438a1.962 1.962 0 1 1 3.924 0 1.962 1.962 0 0 1-3.924 0" style="stroke-width:1.3202"/><path fill="none" stroke="#000" stroke-linecap="round" stroke-miterlimit="10" stroke-width=".566" d="M107.745 132.438a1.962 1.962 0 1 1 3.924 0 1.962 1.962 0 0 1-3.924 0z"/><path fill="#fff" fill-rule="evenodd" d="M117.25 132.438a1.962 1.962 0 1 1 3.924 0 1.962 1.962 0 0 1-3.923 0" style="stroke-width:1.3202"/><path fill="none" stroke="#000" stroke-linecap="round" stroke-miterlimit="10" stroke-width=".566" d="M117.25 132.438a1.962 1.962 0 1 1 3.924 0 1.962 1.962 0 0 1-3.923 0z"/><path fill="#fff" fill-rule="evenodd" d="M240.821 132.438a1.962 1.962 0 1 1 3.924 0 1.962 1.962 0 0 1-3.924 0" style="stroke-width:1.3202"/><path fill="none" stroke="#000" stroke-linecap="round" stroke-miterlimit="10" stroke-width=".566" d="M240.821 132.438a1.962 1.962 0 1 1 3.924 0 1.962 1.962 0 0 1-3.924 0z"/><path fill="#fff" fill-rule="evenodd" d="M231.316 132.438a1.962 1.962 0 1 1 3.923 0 1.962 1.962 0 0 1-3.923 0" style="stroke-width:1.3202"/><path fill="none" stroke="#000" stroke-linecap="round" stroke-miterlimit="10" stroke-width=".566" d="M231.316 132.438a1.962 1.962 0 1 1 3.923 0 1.962 1.962 0 0 1-3.923 0z"/><path fill="#fff" fill-rule="evenodd" d="M221.81 56.32a1.962 1.962 0 1 1 3.924 0 1.962 1.962 0 0 1-3.924 0" style="stroke-width:1.3202"/><path fill="none" stroke="#000" stroke-linecap="round" stroke-miterlimit="10" stroke-width=".566" d="M221.81 56.32a1.962 1.962 0 1 1 3.924 0 1.962 1.962 0 0 1-3.924 0z"/><path fill="#fff" fill-rule="evenodd" d="M231.316 56.32a1.962 1.962 0 1 1 3.923 0 1.962 1.962 0 0 1-3.923 0" style="stroke-width:1.3202"/><path fill="none" stroke="#000" stroke-linecap="round" stroke-miterlimit="10" stroke-width=".566" d="M231.316 56.32a1.962 1.962 0 1 1 3.923 0 1.962 1.962 0 0 1-3.923 0z"/><path fill="#fff" fill-rule="evenodd" d="M240.821 56.32a1.962 1.962 0 1 1 3.924 0 1.962 1.962 0 0 1-3.924 0" style="stroke-width:1.3202"/><path fill="none" stroke="#000" stroke-linecap="round" stroke-miterlimit="10" stroke-width=".566" d="M240.821 56.32a1.962 1.962 0 1 1 3.924 0 1.962 1.962 0 0 1-3.924 0z"/><path fill="#fff" fill-rule="evenodd" d="M234.946 61.072a3.085 3.085 0 1 1 6.17 0 3.085 3.085 0 0 1-6.17 0" style="stroke-width:1.3202"/><path fill="none" stroke="#000" stroke-linecap="round" stroke-miterlimit="10" stroke-width=".566" d="M234.946 61.072a3.085 3.085 0 1 1 6.17 0 3.085 3.085 0 0 1-6.17 0z"/><path fill="#fff" fill-rule="evenodd" d="M111.375 61.072a3.085 3.085 0 1 1 6.17 0 3.085 3.085 0 0 1-6.17 0" style="stroke-width:1.3202"/><path fill="none" stroke="#000" stroke-linecap="round" stroke-miterlimit="10" stroke-width=".566" d="M111.375 61.072a3.085 3.085 0 1 1 6.17 0 3.085 3.085 0 0 1-6.17 0z"/><path fill="#fff" fill-rule="evenodd" d="M212.305 56.32a1.962 1.962 0 1 1 3.923 0 1.962 1.962 0 0 1-3.923 0" style="stroke-width:1.3202"/><path fill="none" stroke="#000" stroke-linecap="round" stroke-miterlimit="10" stroke-width=".566" d="M212.305 56.32a1.962 1.962 0 1 1 3.923 0 1.962 1.962 0 0 1-3.923 0z"/><path fill="#fff" fill-rule="evenodd" d="M202.8 56.32a1.962 1.962 0 1 1 3.923 0 1.962 1.962 0 0 1-3.924 0" style="stroke-width:1.3202"/><path fill="none" stroke="#000" stroke-linecap="round" stroke-miterlimit="10" stroke-width=".566" d="M202.8 56.32a1.962 1.962 0 1 1 3.923 0 1.962 1.962 0 0 1-3.924 0z"/><path fill="#fff" fill-rule="evenodd" d="M193.294 56.32a1.962 1.962 0 1 1 3.924 0 1.962 1.962 0 0 1-3.924 0" style="stroke-width:1.3202"/><path fill="none" stroke="#000" stroke-linecap="round" stroke-miterlimit="10" stroke-width=".566" d="M193.294 56.32a1.962 1.962 0 1 1 3.924 0 1.962 1.962 0 0 1-3.924 0z"/><path fill="#fff" fill-rule="evenodd" d="M183.789 56.32a1.962 1.962 0 1 1 3.923 0 1.962 1.962 0 0 1-3.923 0" style="stroke-width:1.3202"/><path fill="none" stroke="#000" stroke-linecap="round" stroke-miterlimit="10" stroke-width=".566" d="M183.789 56.32a1.962 1.962 0 1 1 3.923 0 1.962 1.962 0 0 1-3.923 0z"/><path fill="#fff" fill-rule="evenodd" d="M174.283 56.32a1.962 1.962 0 1 1 3.924 0 1.962 1.962 0 0 1-3.924 0" style="stroke-width:1.3202"/><path fill="none" stroke="#000" stroke-linecap="round" stroke-miterlimit="10" stroke-width=".566" d="M174.283 56.32a1.962 1.962 0 1 1 3.924 0 1.962 1.962 0 0 1-3.924 0z"/><path fill="#fff" fill-rule="evenodd" d="M164.778 56.32a1.962 1.962 0 1 1 3.924 0 1.962 1.962 0 0 1-3.924 0" style="stroke-width:1.3202"/><path fill="none" stroke="#000" stroke-linecap="round" stroke-miterlimit="10" stroke-width=".566" d="M164.778 56.32a1.962 1.962 0 1 1 3.924 0 1.962 1.962 0 0 1-3.924 0z"/><path fill="#fff" fill-rule="evenodd" d="M155.272 56.32a1.962 1.962 0 1 1 3.924 0 1.962 1.962 0 0 1-3.924 0" style="stroke-width:1.3202"/><path fill="none" stroke="#000" stroke-linecap="round" stroke-miterlimit="10" stroke-width=".566" d="M155.272 56.32a1.962 1.962 0 1 1 3.924 0 1.962 1.962 0 0 1-3.924 0z"/><path fill="#fff" fill-rule="evenodd" d="M145.767 56.32a1.962 1.962 0 1 1 3.924 0 1.962 1.962 0 0 1-3.924 0" style="stroke-width:1.3202"/><path fill="none" stroke="#000" stroke-linecap="round" stroke-miterlimit="10" stroke-width=".566" d="M145.767 56.32a1.962 1.962 0 1 1 3.924 0 1.962 1.962 0 0 1-3.924 0z"/><path fill="#fff" fill-rule="evenodd" d="M136.261 56.32a1.962 1.962 0 1 1 3.924 0 1.962 1.962 0 0 1-3.924 0" style="stroke-width:1.3202"/><path fill="none" stroke="#000" stroke-linecap="round" stroke-miterlimit="10" stroke-width=".566" d="M136.261 56.32a1.962 1.962 0 1 1 3.924 0 1.962 1.962 0 0 1-3.924 0z"/><path fill="#fff" fill-rule="evenodd" d="M126.756 56.32a1.962 1.962 0 1 1 3.924 0 1.962 1.962 0 0 1-3.924 0" style="stroke-width:1.3202"/><path fill="none" stroke="#000" stroke-linecap="round" stroke-miterlimit="10" stroke-width=".566" d="M126.756 56.32a1.962 1.962 0 1 1 3.924 0 1.962 1.962 0 0 1-3.924 0z"/><path fill="#fff" fill-rule="evenodd" d="M126.756 65.825a1.962 1.962 0 1 1 3.924 0 1.962 1.962 0 0 1-3.924 0" style="stroke-width:1.3202"/><path fill="none" stroke="#000" stroke-linecap="round" stroke-miterlimit="10" stroke-width=".566" d="M126.756 65.825a1.962 1.962 0 1 1 3.924 0 1.962 1.962 0 0 1-3.924 0z"/><path fill="#fff" fill-rule="evenodd" d="M136.261 65.825a1.962 1.962 0 1 1 3.924 0 1.962 1.962 0 0 1-3.924 0" style="stroke-width:1.3202"/><path fill="none" stroke="#000" stroke-linecap="round" stroke-miterlimit="10" stroke-width=".566" d="M136.261 65.825a1.962 1.962 0 1 1 3.924 0 1.962 1.962 0 0 1-3.924 0z"/><path fill="#fff" fill-rule="evenodd" d="M145.767 65.825a1.962 1.962 0 1 1 3.924 0 1.962 1.962 0 0 1-3.924 0" style="stroke-width:1.3202"/><path fill="none" stroke="#000" stroke-linecap="round" stroke-miterlimit="10" stroke-width=".566" d="M145.767 65.825a1.962 1.962 0 1 1 3.924 0 1.962 1.962 0 0 1-3.924 0z"/><path fill="#fff" fill-rule="evenodd" d="M155.272 65.825a1.962 1.962 0 1 1 3.924 0 1.962 1.962 0 0 1-3.924 0" style="stroke-width:1.3202"/><path fill="none" stroke="#000" stroke-linecap="round" stroke-miterlimit="10" stroke-width=".566" d="M155.272 65.825a1.962 1.962 0 1 1 3.924 0 1.962 1.962 0 0 1-3.924 0z"/><path fill="#fff" fill-rule="evenodd" d="M164.778 65.825a1.962 1.962 0 1 1 3.924 0 1.962 1.962 0 0 1-3.924 0" style="stroke-width:1.3202"/><path fill="none" stroke="#000" stroke-linecap="round" stroke-miterlimit="10" stroke-width=".566" d="M164.778 65.825a1.962 1.962 0 1 1 3.924 0 1.962 1.962 0 0 1-3.924 0z"/><path fill="#fff" fill-rule="evenodd" d="M174.283 65.825a1.962 1.962 0 1 1 3.924 0 1.962 1.962 0 0 1-3.924 0" style="stroke-width:1.3202"/><path fill="none" stroke="#000" stroke-linecap="round" stroke-miterlimit="10" stroke-width=".566" d="M174.283 65.825a1.962 1.962 0 1 1 3.924 0 1.962 1.962 0 0 1-3.924 0z"/><path fill="#fff" fill-rule="evenodd" d="M183.789 65.825a1.962 1.962 0 1 1 3.923 0 1.962 1.962 0 0 1-3.923 0" style="stroke-width:1.3202"/><path fill="none" stroke="#000" stroke-linecap="round" stroke-miterlimit="10" stroke-width=".566" d="M183.789 65.825a1.962 1.962 0 1 1 3.923 0 1.962 1.962 0 0 1-3.923 0z"/><path fill="#fff" fill-rule="evenodd" d="M193.294 65.825a1.962 1.962 0 1 1 3.924 0 1.962 1.962 0 0 1-3.924 0" style="stroke-width:1.3202"/><path fill="none" stroke="#000" stroke-linecap="round" stroke-miterlimit="10" stroke-width=".566" d="M193.294 65.825a1.962 1.962 0 1 1 3.924 0 1.962 1.962 0 0 1-3.924 0z"/><path fill="#fff" fill-rule="evenodd" d="M202.8 65.825a1.962 1.962 0 1 1 3.923 0 1.962 1.962 0 0 1-3.924 0" style="stroke-width:1.3202"/><path fill="none" stroke="#000" stroke-linecap="round" stroke-miterlimit="10" stroke-width=".566" d="M202.8 65.825a1.962 1.962 0 1 1 3.923 0 1.962 1.962 0 0 1-3.924 0z"/><path fill="#fff" fill-rule="evenodd" d="M212.305 65.825a1.962 1.962 0 1 1 3.924 0 1.962 1.962 0 0 1-3.924 0" style="stroke-width:1.3202"/><path fill="none" stroke="#000" stroke-linecap="round" stroke-miterlimit="10" stroke-width=".566" d="M212.305 65.825a1.962 1.962 0 1 1 3.924 0 1.962 1.962 0 0 1-3.924 0z"/><path fill="#fff" fill-rule="evenodd" d="M221.81 65.825a1.962 1.962 0 1 1 3.924 0 1.962 1.962 0 0 1-3.924 0" style="stroke-width:1.3202"/><path fill="none" stroke="#000" stroke-linecap="round" stroke-miterlimit="10" stroke-width=".566" d="M221.81 65.825a1.962 1.962 0 1 1 3.924 0 1.962 1.962 0 0 1-3.924 0z"/><path fill="#fff" fill-rule="evenodd" d="M117.25 56.32a1.962 1.962 0 1 1 3.924 0 1.962 1.962 0 0 1-3.923 0" style="stroke-width:1.3202"/><path fill="none" stroke="#000" stroke-linecap="round" stroke-miterlimit="10" stroke-width=".566" d="M117.25 56.32a1.962 1.962 0 1 1 3.924 0 1.962 1.962 0 0 1-3.923 0z"/><path fill="#fff" fill-rule="evenodd" d="M107.745 56.32a1.962 1.962 0 1 1 3.924 0 1.962 1.962 0 0 1-3.924 0" style="stroke-width:1.3202"/><path fill="none" stroke="#000" stroke-linecap="round" stroke-miterlimit="10" stroke-width=".566" d="M107.745 56.32a1.962 1.962 0 1 1 3.924 0 1.962 1.962 0 0 1-3.924 0z"/><path fill="#fff" fill-rule="evenodd" d="M107.745 65.825a1.962 1.962 0 1 1 3.924 0 1.962 1.962 0 0 1-3.924 0" style="stroke-width:1.3202"/><path fill="none" stroke="#000" stroke-linecap="round" stroke-miterlimit="10" stroke-width=".566" d="M107.745 65.825a1.962 1.962 0 1 1 3.924 0 1.962 1.962 0 0 1-3.924 0z"/><path fill="#fff" fill-rule="evenodd" d="M117.25 65.825a1.962 1.962 0 1 1 3.924 0 1.962 1.962 0 0 1-3.923 0" style="stroke-width:1.3202"/><path fill="none" stroke="#000" stroke-linecap="round" stroke-miterlimit="10" stroke-width=".566" d="M117.25 65.825a1.962 1.962 0 1 1 3.924 0 1.962 1.962 0 0 1-3.923 0z"/><path fill="#fff" fill-rule="evenodd" d="M240.821 65.825a1.962 1.962 0 1 1 3.924 0 1.962 1.962 0 0 1-3.924 0" style="stroke-width:1.3202"/><path fill="none" stroke="#000" stroke-linecap="round" stroke-miterlimit="10" stroke-width=".566" d="M240.821 65.825a1.962 1.962 0 1 1 3.924 0 1.962 1.962 0 0 1-3.924 0z"/><path fill="#fff" fill-rule="evenodd" d="M231.316 65.825a1.962 1.962 0 1 1 3.923 0 1.962 1.962 0 0 1-3.923 0" style="stroke-width:1.3202"/><path fill="none" stroke="#000" stroke-linecap="round" stroke-miterlimit="10" stroke-width=".566" d="M231.316 65.825a1.962 1.962 0 1 1 3.923 0 1.962 1.962 0 0 1-3.923 0z"/><path fill="#fff" fill-rule="evenodd" d="M243.493 172.106a5.704 5.704 0 1 1 11.409 0 5.704 5.704 0 0 1-11.409 0" style="stroke-width:1.3202"/><path fill="none" stroke="#000" stroke-linecap="round" stroke-miterlimit="10" stroke-width=".566" d="M243.493 172.106a5.704 5.704 0 1 1 11.409 0 5.704 5.704 0 0 1-11.409 0z"/><path fill="#fff" fill-rule="evenodd" d="M8.851 18.298a5.704 5.704 0 1 1 11.409 0 5.704 5.704 0 0 1-11.409 0" style="stroke-width:1.3202"/><path fill="none" stroke="#000" stroke-linecap="round" stroke-miterlimit="10" stroke-width=".566" d="M8.851 18.298a5.704 5.704 0 1 1 11.409 0 5.704 5.704 0 0 1-11.409 0z"/><path fill="#fff" fill-rule="evenodd" d="M8.851 172.106a5.704 5.704 0 1 1 11.409 0 5.704 5.704 0 0 1-11.409 0" style="stroke-width:1.3202"/><path fill="none" stroke="#000" stroke-linecap="round" stroke-miterlimit="10" stroke-width=".566" d="M8.851 172.106a5.704 5.704 0 1 1 11.409 0 5.704 5.704 0 0 1-11.409 0z"/><path fill="#fff" fill-rule="evenodd" d="M243.493 18.298a5.704 5.704 0 1 1 11.408 0 5.704 5.704 0 0 1-11.408 0" style="stroke-width:1.3202"/><path fill="none" stroke="#000" stroke-linecap="round" stroke-miterlimit="10" stroke-width=".566" d="M243.493 18.298a5.704 5.704 0 1 1 11.408 0 5.704 5.704 0 0 1-11.408 0z"/></svg>