<svg xmlns="http://www.w3.org/2000/svg" viewBox="0 0 223.58 346.6"><defs><clipPath id="clip-path" transform="translate(-48.56 -51.793)"><path d="M258.09 212.762h1.821v19.624h-1.821z" class="cls-1"/></clipPath><clipPath id="clip-path-2" transform="translate(-48.56 -51.793)"><path d="M262.011 212.76h1.917v19.63h-1.917z" class="cls-1"/></clipPath><clipPath id="clip-path-3" transform="translate(-48.56 -51.793)"><path d="M266.029 212.76h1.917v19.63h-1.917z" class="cls-1"/></clipPath><style>.cls-1{fill:#d8d9da}.cls-17{fill:#057582}.cls-3{fill:#9e846d}.cls-4{fill:#95a5a6}.cls-5{fill:#8c9091}.cls-6{fill:#fff}.cls-7{fill:#2c353a}.cls-8{fill:#434f54}.cls-9{fill:#7e8b8c}.cls-10{fill:#bbc3c4}.cls-11{fill:#d6dadb}.cls-13{fill:#a39386}.cls-21{fill:#c4c6c7}.cls-22,.cls-25{fill:none}.cls-22{stroke:#8c9091;stroke-width:.919px}.cls-24{fill:#7f8c8d}.cls-25{stroke:#d4cdc6;stroke-miterlimit:10;stroke-width:.28346px}.cls-26{fill:#b8babb}.cls-28{fill:#cbd3d3}</style></defs><path id="Background" d="M263.937 119.893h-15.766a4.61 4.61 0 0 1-4.61-4.611V59.995a8.203 8.203 0 0 0-8.204-8.202H85.343a8.203 8.203 0 0 0-8.203 8.202v55.287a4.61 4.61 0 0 1-4.61 4.61H56.763a8.203 8.203 0 0 0-8.203 8.203V390.19a8.203 8.203 0 0 0 8.203 8.203h207.174a8.203 8.203 0 0 0 8.203-8.203V128.095a8.203 8.203 0 0 0-8.203-8.202M58.231 393.703a4.55 4.55 0 1 1 4.55-4.55 4.55 4.55 0 0 1-4.55 4.55m0-259.925a4.55 4.55 0 1 1 4.55-4.55 4.55 4.55 0 0 1-4.55 4.55m117.866-32.704a4.55 4.55 0 1 1-4.55 4.55 4.55 4.55 0 0 1 4.55-4.55m-31.282 0a4.55 4.55 0 1 1-4.55 4.55 4.55 4.55 0 0 1 4.55-4.55M81.55 120.413a2.845 2.845 0 1 1 2.84-2.84 2.847 2.847 0 0 1-2.84 2.84m6.54 0a2.845 2.845 0 1 1 2.84-2.84 2.84 2.84 0 0 1-2.84 2.84m6.54 0a2.845 2.845 0 1 1 2.85-2.84 2.84 2.84 0 0 1-2.85 2.84m24.458 221.533a2.844 2.844 0 1 1 2.844-2.844 2.844 2.844 0 0 1-2.844 2.844m0-100.956a2.844 2.844 0 1 1 2.844-2.844 2.844 2.844 0 0 1-2.844 2.844m63.132-120.577h-81.05a2.845 2.845 0 0 1 0-5.69h81.05a2.845 2.845 0 0 1 0 5.69m6.54 0a2.845 2.845 0 1 1 2.85-2.84 2.84 2.84 0 0 1-2.85 2.84m3.7-2.84a2.845 2.845 0 1 1 2.84 2.84 2.84 2.84 0 0 1-2.84-2.84m7.677 224.373a2.844 2.844 0 1 1 2.844-2.844 2.844 2.844 0 0 1-2.844 2.844m0-100.956a2.844 2.844 0 1 1 2.844-2.844 2.844 2.844 0 0 1-2.844 2.844m1.703-120.577a2.845 2.845 0 1 1 2.85-2.84 2.84 2.84 0 0 1-2.85 2.84m11.95 0h-5.41a2.845 2.845 0 0 1 0-5.69h5.41a2.845 2.845 0 1 1 0 5.69m7.107-1.076a1.769 1.769 0 1 1 1.77-1.77 1.77 1.77 0 0 1-1.77 1.77m6.257 0a1.769 1.769 0 1 1 1.769-1.77 1.77 1.77 0 0 1-1.77 1.77m6.256 0a1.769 1.769 0 1 1 1.77-1.77 1.77 1.77 0 0 1-1.77 1.77m6.257 0a1.769 1.769 0 1 1 1.769-1.77 1.77 1.77 0 0 1-1.77 1.77m22.466 5.34a4.55 4.55 0 1 1-4.55 4.55 4.55 4.55 0 0 1 4.55-4.55m.853 269.027a4.55 4.55 0 1 1 4.55-4.55 4.55 4.55 0 0 1-4.55 4.55" style="fill:#057582;fill-rule:evenodd" transform="translate(-48.56 -51.793)"/><g id="Components"><path d="M62.56 121.415h-2.154l-1.055-1.055v-6.42l1.055-1.056h2.155l1.055 1.055v6.42ZM69.784 121.415H67.63l-1.056-1.055v-6.42l1.056-1.056h2.154l1.056 1.055v6.42ZM77.007 121.415h-2.154l-1.056-1.055v-6.42l1.056-1.056h2.154l1.056 1.055v6.42ZM84.23 121.415h-2.154l-1.055-1.055v-6.42l1.055-1.056h2.155l1.055 1.055v6.42ZM91.454 121.415H89.3l-1.056-1.055v-6.42l1.056-1.056h2.154l1.056 1.055v6.42ZM98.677 121.415h-2.154l-1.056-1.055v-6.42l1.056-1.056h2.154l1.056 1.055v6.42ZM105.9 121.415h-2.154l-1.055-1.055v-6.42l1.055-1.056h2.155l1.055 1.055v6.42ZM113.124 121.415h-2.154l-1.056-1.055v-6.42l1.055-1.056h2.155l1.056 1.055v6.42ZM120.347 121.415h-2.154l-1.056-1.055v-6.42l1.056-1.056h2.154l1.056 1.055v6.42ZM127.57 121.415h-2.154l-1.055-1.055v-6.42l1.055-1.056h2.155l1.055 1.055v6.42ZM134.794 121.415h-2.155l-1.055-1.055v-6.42l1.055-1.056h2.155l1.056 1.055v6.42ZM142.017 121.415h-2.154l-1.056-1.055v-6.42l1.056-1.056h2.154l1.056 1.055v6.42ZM149.24 121.415h-2.154l-1.056-1.055v-6.42l1.056-1.056h2.155l1.055 1.055v6.42ZM156.464 121.415h-2.155l-1.055-1.055v-6.42l1.055-1.056h2.155l1.055 1.055v6.42ZM163.687 121.415h-2.154l-1.056-1.055v-6.42l1.056-1.056h2.154l1.056 1.055v6.42ZM161.533 101.11h2.154l1.056 1.056v6.42l-1.056 1.056h-2.154l-1.056-1.056v-6.42ZM154.31 101.11h2.154l1.055 1.056v6.42l-1.055 1.056h-2.155l-1.055-1.056v-6.42Z" class="cls-3"/><rect width="4.266" height="8.531" x="146.03" y="101.11" class="cls-3" rx="1.056"/><rect width="4.266" height="8.531" x="138.807" y="101.11" class="cls-3" rx="1.056"/><rect width="4.266" height="8.531" x="131.584" y="101.11" class="cls-3" rx="1.056"/><rect width="4.266" height="8.531" x="124.361" y="101.11" class="cls-3" rx="1.056"/><rect width="4.266" height="8.531" x="117.137" y="101.11" class="cls-3" rx="1.056"/><rect width="4.266" height="8.531" x="109.914" y="101.11" class="cls-3" rx="1.056"/><rect width="4.266" height="8.531" x="102.691" y="101.11" class="cls-3" rx="1.056"/><rect width="4.266" height="8.531" x="95.467" y="101.11" class="cls-3" rx="1.056"/><rect width="4.266" height="8.531" x="88.244" y="101.11" class="cls-3" rx="1.056"/><rect width="4.266" height="8.531" x="81.021" y="101.11" class="cls-3" rx="1.056"/><rect width="4.266" height="8.531" x="73.797" y="101.11" class="cls-3" rx="1.056"/><path d="M67.63 101.11h2.154l1.056 1.056v6.42l-1.056 1.056H67.63l-1.056-1.056v-6.42ZM60.406 101.11h2.155l1.055 1.056v6.42l-1.055 1.056h-2.155l-1.055-1.056v-6.42Z" class="cls-3"/><path d="M57.673 103.84h108.748v14.845H57.673z"/><path d="M60.531 113.922h1.905v1.905h-1.905zM67.754 113.922h1.905v1.905h-1.905zM74.978 113.922h1.905v1.905h-1.905zM82.201 113.922h1.905v1.905h-1.905zM89.424 113.922h1.905v1.905h-1.905zM96.647 113.922h1.905v1.905h-1.905zM103.871 113.922h1.905v1.905h-1.905zM111.094 113.922h1.905v1.905h-1.905zM118.317 113.922h1.905v1.905h-1.905zM125.541 113.922h1.905v1.905h-1.905zM132.764 113.922h1.905v1.905h-1.905zM139.987 113.922h1.905v1.905h-1.905zM147.211 113.922h1.905v1.905h-1.905zM154.434 113.922h1.905v1.905h-1.905zM161.657 113.922h1.905v1.905h-1.905zM163.562 108.604h-1.905v-1.905h1.905zM156.34 108.604h-1.906v-1.905h1.905zM149.116 108.604h-1.905v-1.905h1.905zM141.892 108.604h-1.905v-1.905h1.905zM134.67 108.604h-1.905v-1.905h1.905zM127.446 108.604h-1.905v-1.905h1.905zM120.222 108.604h-1.905v-1.905h1.905zM113 108.604h-1.905v-1.905H113zM105.776 108.604h-1.905v-1.905h1.905zM98.553 108.604h-1.905v-1.905h1.905zM91.33 108.604h-1.905v-1.905h1.905zM84.106 108.604h-1.905v-1.905h1.905zM76.883 108.604h-1.905v-1.905h1.905zM69.66 108.604h-1.905v-1.905h1.905zM62.436 108.604h-1.905v-1.905h1.905z" class="cls-4"/><path d="M168.788 121.506h6.367v4.246h-6.367zM168.788 113.194h6.367v4.246h-6.367zM186.107 121.506h6.367v4.246h-6.367zM186.107 113.194h6.367v4.246h-6.367z" class="cls-5"/><path d="M190.92 110.54v17.87h-3.39v-.7h-13.79v.7h-3.4v-17.87h3.4v.7h13.79v-.7z" class="cls-6"/><path d="M161.533 151.73h2.154l1.056 1.056v6.42l-1.056 1.056h-2.154l-1.056-1.056v-6.42ZM154.31 151.73h2.154l1.055 1.056v6.42l-1.055 1.056h-2.155l-1.055-1.056v-6.42ZM147.086 151.73h2.155l1.055 1.056v6.42l-1.055 1.056h-2.155l-1.056-1.056v-6.42ZM139.863 151.73h2.154l1.056 1.056v6.42l-1.056 1.056h-2.154l-1.056-1.056v-6.42ZM132.64 151.73h2.154l1.056 1.056v6.42l-1.056 1.056h-2.155l-1.055-1.056v-6.42ZM125.416 151.73h2.155l1.055 1.056v6.42l-1.055 1.056h-2.155l-1.056-1.056v-6.42ZM118.193 151.73h2.154l1.056 1.056v6.42l-1.056 1.056h-2.154l-1.056-1.056v-6.42ZM110.97 151.73h2.154l1.056 1.056v6.42l-1.056 1.056h-2.154l-1.056-1.056v-6.42ZM103.746 151.73h2.155l1.055 1.056v6.42l-1.055 1.056h-2.155l-1.055-1.056v-6.42ZM96.523 151.73h2.154l1.056 1.056v6.42l-1.056 1.056h-2.154l-1.056-1.056v-6.42ZM89.3 151.73h2.154l1.056 1.056v6.42l-1.056 1.056H89.3l-1.056-1.056v-6.42ZM82.076 151.73h2.155l1.055 1.056v6.42l-1.055 1.056h-2.155l-1.055-1.056v-6.42ZM74.853 151.73h2.154l1.056 1.056v6.42l-1.056 1.056h-2.154l-1.056-1.056v-6.42ZM67.63 151.73h2.154l1.056 1.056v6.42l-1.056 1.056H67.63l-1.056-1.056v-6.42ZM60.406 151.73h2.155l1.055 1.056v6.42l-1.055 1.056h-2.155l-1.055-1.056v-6.42ZM62.56 172.035h-2.154l-1.055-1.055v-6.42l1.055-1.056h2.155l1.055 1.056v6.42ZM69.784 172.035H67.63l-1.056-1.055v-6.42l1.056-1.056h2.154l1.056 1.056v6.42Z" class="cls-3"/><rect width="4.266" height="8.531" x="73.797" y="163.504" class="cls-3" rx="1.056"/><rect width="4.266" height="8.531" x="81.021" y="163.504" class="cls-3" rx="1.056"/><rect width="4.266" height="8.531" x="88.244" y="163.504" class="cls-3" rx="1.056"/><rect width="4.266" height="8.531" x="95.467" y="163.504" class="cls-3" rx="1.056"/><rect width="4.266" height="8.531" x="102.691" y="163.504" class="cls-3" rx="1.056"/><rect width="4.266" height="8.531" x="109.914" y="163.504" class="cls-3" rx="1.056"/><rect width="4.266" height="8.531" x="117.137" y="163.504" class="cls-3" rx="1.056"/><rect width="4.266" height="8.531" x="124.36" y="163.504" class="cls-3" rx="1.056"/><rect width="4.266" height="8.531" x="131.584" y="163.504" class="cls-3" rx="1.056"/><rect width="4.266" height="8.531" x="138.807" y="163.504" class="cls-3" rx="1.056"/><rect width="4.266" height="8.531" x="146.03" y="163.504" class="cls-3" rx="1.056"/><path d="M156.464 172.035h-2.155l-1.055-1.055v-6.42l1.055-1.056h2.155l1.055 1.056v6.42ZM163.687 172.035h-2.154l-1.056-1.055v-6.42l1.056-1.056h2.154l1.056 1.056v6.42Z" class="cls-3"/><path d="M166.42 169.305H57.674V154.46H166.42z"/><path d="M163.562 159.224h-1.905v-1.905h1.905zM156.34 159.224h-1.906v-1.905h1.905zM149.116 159.224h-1.905v-1.905h1.905zM141.892 159.224h-1.905v-1.905h1.905zM134.67 159.224h-1.905v-1.905h1.905zM127.446 159.224h-1.905v-1.905h1.905zM120.222 159.224h-1.905v-1.905h1.905zM113 159.224h-1.905v-1.905H113zM105.776 159.224h-1.905v-1.905h1.905zM98.553 159.224h-1.905v-1.905h1.905zM91.33 159.224h-1.905v-1.905h1.905zM84.106 159.224h-1.905v-1.905h1.905zM76.883 159.224h-1.905v-1.905h1.905zM69.66 159.224h-1.905v-1.905h1.905zM62.436 159.224h-1.905v-1.905h1.905zM60.531 164.542h1.905v1.905h-1.905zM67.754 164.542h1.905v1.905h-1.905zM74.978 164.542h1.905v1.905h-1.905zM82.201 164.542h1.905v1.905h-1.905zM89.424 164.542h1.905v1.905h-1.905zM96.647 164.542h1.905v1.905h-1.905zM103.871 164.542h1.905v1.905h-1.905zM111.094 164.542h1.905v1.905h-1.905zM118.317 164.542h1.905v1.905h-1.905zM125.541 164.542h1.905v1.905h-1.905zM132.764 164.542h1.905v1.905h-1.905zM139.987 164.542h1.905v1.905h-1.905zM147.211 164.542h1.905v1.905h-1.905zM154.434 164.542h1.905v1.905h-1.905zM161.657 164.542h1.905v1.905h-1.905z" class="cls-4"/><path d="M194.563 86.472h4.392v4.392h-4.392zM169.035 80.439h2.196v4.392h-2.196zM169.035 92.505h2.196v4.392h-2.196zM171.231 69.543h23.332v38.25h-23.332z" class="cls-7"/><path d="M171.231 72.074h23.332v33.189h-23.332z" class="cls-8"/><path d="M186.355 73.976h6.12v8.622h-8.623v-6.119Z"/><path d="M186.944 77.059h2.439v2.456h-2.439z" class="cls-3"/><path d="M175.823 73.976h6.12v8.622h-8.622v-6.119Z"/><path d="M176.412 77.059h2.439v2.456h-2.439z" class="cls-3"/><path d="M186.355 84.357h6.12v8.622h-8.623V86.86Z"/><path d="M186.944 87.44h2.439v2.456h-2.439z" class="cls-3"/><path d="M175.823 84.357h6.12v8.622h-8.622V86.86Z"/><path d="M176.412 87.44h2.439v2.456h-2.439z" class="cls-3"/><path d="M183.852 100.857v-6.119h8.622v8.622h-6.119Z"/><path d="M186.935 97.83h2.456v2.439h-2.456z" class="cls-3"/><path d="M175.823 94.738h6.12v8.622h-8.622v-6.119Z"/><path d="M176.412 97.821h2.439v2.456h-2.439z" class="cls-3"/><path d="M59.671 130.248h1.82v.889h-1.82zM59.671 131.598h1.82v.889h-1.82zM59.671 132.949h1.82v.889h-1.82zM59.671 134.3h1.82v.889h-1.82zM59.671 135.65h1.82v.889h-1.82zM59.671 137.001h1.82v.889h-1.82zM59.671 138.352h1.82v.889h-1.82zM59.671 139.702h1.82v.889h-1.82zM71.612 141.255h.891v1.82h-.891zM70.262 141.255h.889v1.82h-.889zM68.909 141.255h.891v1.82h-.891zM67.558 141.255h.889v1.82h-.889zM66.206 141.255h.891v1.82h-.891zM64.857 141.255h.889v1.82h-.889zM63.505 141.255h.889v1.82h-.889zM62.154 141.255h.889v1.82h-.889zM71.612 127.787h.891v1.82h-.891zM70.262 127.787h.889v1.82h-.889zM68.909 127.787h.891v1.82h-.891zM67.558 127.787h.889v1.82h-.889zM66.206 127.787h.891v1.82h-.891zM64.857 127.787h.889v1.82h-.889zM63.505 127.787h.889v1.82h-.889zM62.154 127.787h.889v1.82h-.889zM73.143 130.248h1.82v.889h-1.82zM73.143 131.598h1.82v.889h-1.82zM73.143 132.949h1.82v.889h-1.82zM73.143 134.3h1.82v.889h-1.82zM73.143 135.65h1.82v.889h-1.82zM73.143 137.001h1.82v.889h-1.82zM73.143 138.352h1.82v.889h-1.82zM73.143 139.702h1.82v.889h-1.82z" class="cls-5"/><path d="M74.083 142.167H60.581V128.67h13.502z"/><path d="M74.083 142.167H60.581V128.67h13.502z"/><path d="M74.083 142.167H60.581V128.67h13.502z"/><path d="M103.355 130.223h1.82v.889h-1.82zM103.355 131.574h1.82v.889h-1.82zM103.355 132.925h1.82v.889h-1.82zM103.355 134.275h1.82v.889h-1.82zM103.355 135.626h1.82v.889h-1.82zM103.355 136.977h1.82v.889h-1.82zM103.355 138.327h1.82v.889h-1.82zM103.355 139.678h1.82v.889h-1.82zM115.297 141.231h.891v1.82h-.891zM113.946 141.231h.889v1.82h-.889zM112.593 141.231h.891v1.82h-.891zM111.243 141.231h.889v1.82h-.889zM109.89 141.231h.891v1.82h-.891zM108.541 141.231h.889v1.82h-.889zM107.189 141.231h.889v1.82h-.889zM105.838 141.231h.889v1.82h-.889zM115.297 127.763h.891v1.82h-.891zM113.946 127.763h.889v1.82h-.889zM112.593 127.763h.891v1.82h-.891zM111.243 127.763h.889v1.82h-.889zM109.89 127.763h.891v1.82h-.891zM108.541 127.763h.889v1.82h-.889zM107.189 127.763h.889v1.82h-.889zM105.838 127.763h.889v1.82h-.889zM116.827 130.223h1.82v.889h-1.82zM116.827 131.574h1.82v.889h-1.82zM116.827 132.925h1.82v.889h-1.82zM116.827 134.275h1.82v.889h-1.82zM116.827 135.626h1.82v.889h-1.82zM116.827 136.977h1.82v.889h-1.82zM116.827 138.327h1.82v.889h-1.82zM116.827 139.678h1.82v.889h-1.82z" class="cls-5"/><path d="M117.767 142.142h-13.502v-13.496h13.502z"/><path d="M117.767 142.142h-13.502v-13.496h13.502z"/><path d="M117.767 142.142h-13.502v-13.496h13.502z"/><g id="Artwork_3" data-name="Artwork 3"><path d="M67.125 124.07h1.823a.03.03 0 0 1 .028.029v1.822a.03.03 0 0 1-.028.029h-1.823a.03.03 0 0 1-.028-.029V124.1a.03.03 0 0 1 .028-.028M69.187 124.07h1.823a.03.03 0 0 1 .029.029v1.822a.03.03 0 0 1-.029.029h-1.823a.03.03 0 0 1-.028-.029V124.1a.03.03 0 0 1 .028-.028" class="cls-9"/><path d="M69.835 124.224H68.24v.006a.78.78 0 0 0 0 1.56v.007h1.595a.786.786 0 1 0 0-1.573" class="cls-10"/><path d="M68.494 124.224h1.163v1.573h-1.163z"/></g><g id="Artwork_3-2" data-name="Artwork 3"><path d="M76.56 125.95h1.823a.03.03 0 0 1 .028.028v1.822a.03.03 0 0 1-.028.029H76.56a.03.03 0 0 1-.028-.028v-1.823a.03.03 0 0 1 .028-.028M78.622 125.95h1.823a.03.03 0 0 1 .029.028v1.822a.03.03 0 0 1-.029.029h-1.823a.03.03 0 0 1-.028-.029v-1.822a.03.03 0 0 1 .028-.028" class="cls-9"/><path d="M79.27 126.104v-.001h-1.595v.006a.78.78 0 0 0 0 1.561v.006h1.595a.786.786 0 1 0 0-1.572" class="cls-10"/><path d="M77.929 126.103h1.163v1.573h-1.163z"/></g><g id="Artwork_3-3" data-name="Artwork 3"><path d="M82.164 125.95h1.822a.03.03 0 0 1 .029.028v1.822a.03.03 0 0 1-.029.029h-1.822a.03.03 0 0 1-.029-.028v-1.823a.03.03 0 0 1 .029-.028M84.226 125.95h1.823a.03.03 0 0 1 .028.028v1.822a.03.03 0 0 1-.028.029h-1.823a.03.03 0 0 1-.028-.029v-1.822a.03.03 0 0 1 .028-.028" class="cls-9"/><path d="M84.873 126.104v-.001H83.28v.006a.78.78 0 0 0 0 1.561v.006h1.594a.786.786 0 1 0 0-1.572" class="cls-10"/><path d="M83.532 126.103h1.163v1.573h-1.163z"/></g><g id="Artwork_3-4" data-name="Artwork 3"><path d="M94.705 128.996h1.823a.03.03 0 0 1 .028.029v1.822a.03.03 0 0 1-.028.028h-1.823a.03.03 0 0 1-.028-.028v-1.822a.03.03 0 0 1 .028-.029M96.767 128.996h1.823a.03.03 0 0 1 .028.029v1.822a.03.03 0 0 1-.028.028h-1.823a.03.03 0 0 1-.028-.028v-1.822a.03.03 0 0 1 .028-.029" class="cls-9"/><path d="M97.415 129.15H95.82v.006a.78.78 0 0 0 0 1.56v.006h1.594a.786.786 0 1 0 0-1.572" class="cls-10"/><path d="M96.074 129.149h1.163v1.573h-1.163z"/></g><g id="Artwork_3-5" data-name="Artwork 3"><path d="M94.705 131.815h1.823a.03.03 0 0 1 .028.028v1.823a.03.03 0 0 1-.028.028h-1.823a.03.03 0 0 1-.028-.028v-1.823a.03.03 0 0 1 .028-.028M96.767 131.815h1.823a.03.03 0 0 1 .028.028v1.823a.03.03 0 0 1-.028.028h-1.823a.03.03 0 0 1-.028-.028v-1.823a.03.03 0 0 1 .028-.028" class="cls-9"/><path d="M97.415 131.969h-.829l-.766-.001v.006a.78.78 0 0 0 0 1.561v.006h1.594a.786.786 0 1 0 0-1.572" class="cls-10"/><path d="M96.074 131.968h1.163v1.573h-1.163z"/></g><g id="Artwork_3-6" data-name="Artwork 3"><path d="M137.627 127.13h1.823a.03.03 0 0 1 .028.028v1.822a.03.03 0 0 1-.028.029h-1.823a.03.03 0 0 1-.028-.029v-1.822a.03.03 0 0 1 .028-.028M139.69 127.13h1.822a.03.03 0 0 1 .029.028v1.822a.03.03 0 0 1-.029.029h-1.822a.03.03 0 0 1-.029-.029v-1.822a.03.03 0 0 1 .029-.028" class="cls-9"/><path d="M140.337 127.283h-1.594v.006a.78.78 0 0 0 0 1.56v.007h1.594a.786.786 0 1 0 0-1.573" class="cls-10"/><path d="M138.996 127.283h1.163v1.573h-1.163z"/></g><g id="Artwork_3-7" data-name="Artwork 3"><path d="M137.627 129.948h1.823a.03.03 0 0 1 .028.029v1.822a.03.03 0 0 1-.028.028h-1.823a.03.03 0 0 1-.028-.028v-1.822a.03.03 0 0 1 .028-.029M139.69 129.948h1.822a.03.03 0 0 1 .029.029v1.822a.03.03 0 0 1-.029.028h-1.822a.03.03 0 0 1-.029-.028v-1.822a.03.03 0 0 1 .029-.029" class="cls-9"/><path d="M140.337 130.102h-1.594v.006a.78.78 0 0 0 0 1.56v.006h1.594a.786.786 0 1 0 0-1.572" class="cls-10"/><path d="M138.996 130.101h1.163v1.573h-1.163z"/></g><g id="Artwork_3-8" data-name="Artwork 3"><path d="M159.427 130.93h1.823a.03.03 0 0 1 .028.03v1.822a.03.03 0 0 1-.028.028h-1.823a.03.03 0 0 1-.028-.028v-1.823a.03.03 0 0 1 .028-.028M161.49 130.93h1.822a.03.03 0 0 1 .029.03v1.822a.03.03 0 0 1-.029.028h-1.822a.03.03 0 0 1-.029-.028v-1.823a.03.03 0 0 1 .029-.028" class="cls-9"/><path d="m162.137 131.085-.766-.001h-.828v.006a.78.78 0 0 0 0 1.561v.006h1.594a.786.786 0 1 0 0-1.572" class="cls-10"/><path d="M160.796 131.084h1.163v1.573h-1.163z"/></g><g id="Artwork_3-9" data-name="Artwork 3"><path d="M152.97 141.221h1.823a.03.03 0 0 1 .028.029v1.822a.03.03 0 0 1-.028.028h-1.823a.03.03 0 0 1-.028-.028v-1.822a.03.03 0 0 1 .028-.029M155.033 141.221h1.822a.03.03 0 0 1 .029.029v1.822a.03.03 0 0 1-.029.028h-1.822a.03.03 0 0 1-.029-.028v-1.822a.03.03 0 0 1 .029-.029" class="cls-9"/><path d="M155.68 141.375h-1.594v.006a.78.78 0 0 0 0 1.56v.006h1.594a.786.786 0 1 0 0-1.572" class="cls-10"/><path d="M154.339 141.374h1.163v1.573h-1.163z"/></g><g id="Artwork_3-10" data-name="Artwork 3"><path d="M152.97 143.738h1.823a.03.03 0 0 1 .028.029v1.822a.03.03 0 0 1-.028.028h-1.823a.03.03 0 0 1-.028-.028v-1.822a.03.03 0 0 1 .028-.029M155.033 143.738h1.822a.03.03 0 0 1 .029.029v1.822a.03.03 0 0 1-.029.028h-1.822a.03.03 0 0 1-.029-.028v-1.822a.03.03 0 0 1 .029-.029" class="cls-9"/><path d="M155.68 143.892h-1.594v.006a.78.78 0 0 0 0 1.56v.006h1.594a.786.786 0 1 0 0-1.572" class="cls-10"/><path d="M154.339 143.891h1.163v1.573h-1.163z"/></g><g id="Artwork_3-11" data-name="Artwork 3"><path d="M94.705 134.634h1.823a.03.03 0 0 1 .028.028v1.822a.03.03 0 0 1-.028.029h-1.823a.03.03 0 0 1-.028-.029v-1.822a.03.03 0 0 1 .028-.028M96.767 134.634h1.823a.03.03 0 0 1 .028.028v1.822a.03.03 0 0 1-.028.029h-1.823a.03.03 0 0 1-.028-.029v-1.822a.03.03 0 0 1 .028-.028" class="cls-9"/><path d="M97.415 134.788v-.001H95.82v.006a.78.78 0 0 0 0 1.561v.006h1.594a.786.786 0 1 0 0-1.572" class="cls-10"/><path d="M96.074 134.787h1.163v1.573h-1.163z"/></g><g id="Artwork_3-12" data-name="Artwork 3"><path d="M94.705 137.452h1.823a.03.03 0 0 1 .028.029v1.822a.03.03 0 0 1-.028.029h-1.823a.03.03 0 0 1-.028-.029v-1.822a.03.03 0 0 1 .028-.029M96.767 137.452h1.823a.03.03 0 0 1 .028.029v1.822a.03.03 0 0 1-.028.029h-1.823a.03.03 0 0 1-.028-.029v-1.822a.03.03 0 0 1 .028-.029" class="cls-9"/><path d="M97.415 137.606H95.82v.006a.78.78 0 0 0 0 1.56v.006h1.594a.786.786 0 1 0 0-1.572" class="cls-10"/><path d="M96.074 137.606h1.163v1.573h-1.163z"/></g><g id="Artwork_3-13" data-name="Artwork 3"><path d="M109.073 146.298h1.823a.03.03 0 0 1 .028.029v1.822a.03.03 0 0 1-.028.029h-1.823a.03.03 0 0 1-.028-.029v-1.822a.03.03 0 0 1 .028-.029M111.136 146.298h1.822a.03.03 0 0 1 .029.029v1.822a.03.03 0 0 1-.029.029h-1.822a.03.03 0 0 1-.029-.029v-1.822a.03.03 0 0 1 .029-.029" class="cls-9"/><path d="M111.783 146.452h-1.594v.006a.78.78 0 0 0 0 1.56v.006h1.594a.786.786 0 1 0 0-1.572" class="cls-10"/><path d="M110.442 146.451h1.163v1.573h-1.163z"/></g><g id="Artwork_3-14" data-name="Artwork 3"><path d="M121.587 141.955h1.822a.03.03 0 0 1 .029.028v1.823a.03.03 0 0 1-.029.028h-1.822a.03.03 0 0 1-.029-.028v-1.823a.03.03 0 0 1 .029-.028M121.587 144.017h1.822a.03.03 0 0 1 .029.028v1.823a.03.03 0 0 1-.029.028h-1.822a.03.03 0 0 1-.029-.028v-1.823a.03.03 0 0 1 .029-.028" class="cls-9"/><path d="M123.284 144.693v-1.595h-.006a.78.78 0 0 0-1.56 0h-.006v1.594a.786.786 0 1 0 1.572 0" class="cls-10"/><path d="M121.711 143.351h1.573v1.163h-1.573z"/></g><g id="Artwork_3-15" data-name="Artwork 3"><path d="M121.587 136.421h1.822a.03.03 0 0 1 .029.029v1.822a.03.03 0 0 1-.029.029h-1.822a.03.03 0 0 1-.029-.029v-1.822a.03.03 0 0 1 .029-.029M121.587 138.483h1.822a.03.03 0 0 1 .029.029v1.822a.03.03 0 0 1-.029.029h-1.822a.03.03 0 0 1-.029-.028v-1.823a.03.03 0 0 1 .029-.029" class="cls-9"/><path d="M123.284 139.16v-1.595h-.006a.78.78 0 0 0-1.56 0h-.006v1.594a.786.786 0 1 0 1.572 0" class="cls-10"/><path d="M121.711 137.818h1.573v1.163h-1.573z"/></g><g id="Artwork_3-16" data-name="Artwork 3"><path d="M121.587 130.888h1.822a.03.03 0 0 1 .029.028v1.823a.03.03 0 0 1-.029.028h-1.822a.03.03 0 0 1-.029-.028v-1.823a.03.03 0 0 1 .029-.028M121.587 132.95h1.822a.03.03 0 0 1 .029.028v1.823a.03.03 0 0 1-.029.029h-1.822a.03.03 0 0 1-.029-.029v-1.823a.03.03 0 0 1 .029-.028" class="cls-9"/><path d="M123.284 133.626v-1.595h-.006a.78.78 0 0 0-1.56 0h-.006v1.595a.786.786 0 1 0 1.572 0" class="cls-10"/><path d="M121.711 132.285h1.573v1.163h-1.573z"/></g><g id="Artwork_3-17" data-name="Artwork 3"><path d="M124.464 136.421h1.822a.03.03 0 0 1 .029.029v1.822a.03.03 0 0 1-.029.029h-1.822a.03.03 0 0 1-.028-.029v-1.822a.03.03 0 0 1 .028-.029M124.464 138.483h1.822a.03.03 0 0 1 .029.029v1.822a.03.03 0 0 1-.029.029h-1.822a.03.03 0 0 1-.028-.028v-1.823a.03.03 0 0 1 .028-.029" class="cls-9"/><path d="M126.16 139.16h.001v-1.595h-.006a.78.78 0 0 0-1.56 0h-.006v1.594a.786.786 0 1 0 1.572 0" class="cls-10"/><path d="M124.589 137.818h1.573v1.163h-1.573z"/></g><g id="Artwork_3-18" data-name="Artwork 3"><path d="M156.912 134.602h1.822a.03.03 0 0 1 .029.028v1.823a.03.03 0 0 1-.029.028h-1.822a.03.03 0 0 1-.028-.028v-1.823a.03.03 0 0 1 .028-.028M156.912 136.664h1.822a.03.03 0 0 1 .029.029v1.822a.03.03 0 0 1-.029.029h-1.822a.03.03 0 0 1-.028-.029v-1.822a.03.03 0 0 1 .028-.029" class="cls-9"/><path d="M158.609 137.34v-1.594h-.005a.78.78 0 0 0-1.561 0h-.006v1.594a.786.786 0 1 0 1.572 0" class="cls-10"/><path d="M157.037 135.999h1.573v1.163h-1.573z"/></g><g id="Artwork_3-19" data-name="Artwork 3"><path d="M187.394 129.704h1.823a.03.03 0 0 1 .028.028v1.823a.03.03 0 0 1-.029.028h-1.822a.03.03 0 0 1-.028-.028v-1.823a.03.03 0 0 1 .028-.028M187.394 131.766h1.823a.03.03 0 0 1 .028.028v1.823a.03.03 0 0 1-.029.028h-1.822a.03.03 0 0 1-.028-.028v-1.823a.03.03 0 0 1 .028-.028" class="cls-9"/><path d="M189.091 132.442v-.829l.001-.766h-.006a.78.78 0 0 0-1.561 0h-.006v1.594a.786.786 0 1 0 1.572 0" class="cls-10"/><path d="M187.519 131.101h1.573v1.163h-1.573z"/></g><g id="Artwork_3-20" data-name="Artwork 3"><path d="M143.775 74.641h1.823a.03.03 0 0 1 .028.029v1.822a.03.03 0 0 1-.028.029h-1.823a.03.03 0 0 1-.028-.029V74.67a.03.03 0 0 1 .028-.029M143.775 76.704h1.823a.03.03 0 0 1 .028.028v1.823a.03.03 0 0 1-.028.028h-1.823a.03.03 0 0 1-.028-.028v-1.823a.03.03 0 0 1 .028-.028" class="cls-9"/><path d="m145.472 77.38.001-.767v-.828h-.006a.78.78 0 0 0-1.561 0h-.006v1.594a.786.786 0 1 0 1.572 0" class="cls-10"/><path d="M143.9 76.038h1.573v1.163H143.9z"/></g><g id="Artwork_3-21" data-name="Artwork 3"><path d="M138.612 74.641h1.822a.03.03 0 0 1 .028.029v1.822a.03.03 0 0 1-.028.029h-1.822a.03.03 0 0 1-.029-.029V74.67a.03.03 0 0 1 .029-.029M138.612 76.704h1.822a.03.03 0 0 1 .028.028v1.823a.03.03 0 0 1-.028.028h-1.822a.03.03 0 0 1-.029-.028v-1.823a.03.03 0 0 1 .029-.028" class="cls-9"/><path d="M140.308 77.38h.001v-1.595h-.006a.78.78 0 0 0-1.561 0h-.006v1.594a.786.786 0 1 0 1.572 0" class="cls-10"/><path d="M138.736 76.038h1.573v1.163h-1.573z"/></g><rect width=".789" height="5.479" x="209.143" y="130.485" class="cls-10" rx=".394" transform="rotate(-90 159.361 131.609)"/><rect width=".789" height="5.479" x="209.143" y="131.957" class="cls-10" rx=".394" transform="rotate(-90 159.361 133.08)"/><rect width=".789" height="5.479" x="209.143" y="133.429" class="cls-10" rx=".394" transform="rotate(-90 159.361 134.552)"/><path d="M159.367 85.14v-4.473h3.222v4.474z"/><path d="M125.872 133.779a4.2 4.2 0 0 0-1.526.288v-4.706a4.2 4.2 0 0 0 1.526.288 3.9 3.9 0 0 0 1.54-.302v4.734a3.9 3.9 0 0 0-1.54-.302" class="cls-9"/><path d="M125.872 129.649a4.2 4.2 0 0 1-1.526-.288v-.777h3.065v.763a3.9 3.9 0 0 1-1.54.302M127.411 134.83h-3.065v-.763a4.2 4.2 0 0 1 1.526-.288 3.9 3.9 0 0 1 1.54.302Z" class="cls-11"/><path d="M140.032 82.971a4.2 4.2 0 0 0-.287-1.525h4.705a4.2 4.2 0 0 0-.288 1.525 3.9 3.9 0 0 0 .303 1.54h-4.735a3.9 3.9 0 0 0 .302-1.54" class="cls-9"/><path d="M144.162 82.971a4.2 4.2 0 0 1 .288-1.525h.777v3.065h-.762a3.9 3.9 0 0 1-.303-1.54M138.982 84.51v-3.064h.763a4.2 4.2 0 0 1 .287 1.525 3.9 3.9 0 0 1-.302 1.54Z" class="cls-11"/><path d="M149.706 137.493a4.2 4.2 0 0 0-1.526.288v-4.706a4.2 4.2 0 0 0 1.526.288 3.9 3.9 0 0 0 1.54-.302v4.734a3.9 3.9 0 0 0-1.54-.302" class="cls-9"/><path d="M149.706 133.363a4.2 4.2 0 0 1-1.526-.288v-.777h3.066v.763a3.9 3.9 0 0 1-1.54.302M151.246 138.544h-3.065v-.763a4.2 4.2 0 0 1 1.525-.288 3.9 3.9 0 0 1 1.54.302Z" class="cls-11"/><path d="M154.058 137.493a4.2 4.2 0 0 0-1.526.288v-4.706a4.2 4.2 0 0 0 1.526.288 3.9 3.9 0 0 0 1.54-.302v4.734a3.9 3.9 0 0 0-1.54-.302" class="cls-9"/><path d="M154.058 133.363a4.2 4.2 0 0 1-1.526-.288v-.777h3.065v.763a3.9 3.9 0 0 1-1.54.302M155.597 138.544h-3.065v-.763a4.2 4.2 0 0 1 1.526-.288 3.9 3.9 0 0 1 1.54.302Z" class="cls-11"/><path d="M166.213 131.863a4.2 4.2 0 0 0-.288-1.525h4.706a4.2 4.2 0 0 0-.288 1.525 3.9 3.9 0 0 0 .302 1.54h-4.734a3.9 3.9 0 0 0 .302-1.54" class="cls-9"/><path d="M170.343 131.863a4.2 4.2 0 0 1 .288-1.525h.777v3.065h-.763a3.9 3.9 0 0 1-.302-1.54M165.163 133.403v-3.065h.762a4.2 4.2 0 0 1 .288 1.525 3.9 3.9 0 0 1-.302 1.54Z" class="cls-11"/><g id="Artwork_3-22" data-name="Artwork 3"><path d="M179.663 157.809h1.822a.03.03 0 0 1 .029.028v1.822a.03.03 0 0 1-.029.029h-1.822a.03.03 0 0 1-.029-.028v-1.823a.03.03 0 0 1 .029-.028M181.725 157.809h1.823a.03.03 0 0 1 .028.028v1.822a.03.03 0 0 1-.028.029h-1.823a.03.03 0 0 1-.028-.028v-1.823a.03.03 0 0 1 .028-.028" class="cls-9"/><path d="M182.372 157.963v-.001h-1.594v.006a.78.78 0 0 0 0 1.561v.006h1.594a.786.786 0 1 0 0-1.572" class="cls-10"/><path d="M181.031 157.962h1.163v1.573h-1.163z"/></g><path d="M186.448 158.741a4.2 4.2 0 0 0-.287-1.525h4.705a4.2 4.2 0 0 0-.287 1.525 3.9 3.9 0 0 0 .302 1.54h-4.735a3.9 3.9 0 0 0 .302-1.54" class="cls-9"/><path d="M190.579 158.741a4.2 4.2 0 0 1 .287-1.525h.778v3.065h-.763a3.9 3.9 0 0 1-.302-1.54M185.398 160.28v-3.064h.763a4.2 4.2 0 0 1 .287 1.525 3.9 3.9 0 0 1-.302 1.54Z" class="cls-11"/><path d="M195.041 204.49a4.2 4.2 0 0 0-.288-1.525h4.706a4.2 4.2 0 0 0-.288 1.525 3.9 3.9 0 0 0 .302 1.54h-4.734a3.9 3.9 0 0 0 .302-1.54" class="cls-9"/><path d="M199.171 204.49a4.2 4.2 0 0 1 .288-1.525h.777v3.065h-.763a3.9 3.9 0 0 1-.302-1.54M193.99 206.03v-3.065h.763a4.2 4.2 0 0 1 .288 1.525 3.9 3.9 0 0 1-.302 1.54Z" class="cls-11"/><path d="M194.516 158.741a4.2 4.2 0 0 0-.288-1.525h4.706a4.2 4.2 0 0 0-.288 1.525 3.9 3.9 0 0 0 .302 1.54h-4.734a3.9 3.9 0 0 0 .302-1.54" class="cls-9"/><path d="M198.646 158.741a4.2 4.2 0 0 1 .288-1.525h.777v3.065h-.763a3.9 3.9 0 0 1-.302-1.54M193.465 160.28v-3.064h.763a4.2 4.2 0 0 1 .288 1.525 3.9 3.9 0 0 1-.302 1.54Z" class="cls-11"/><path d="M174.039 146.618a4.2 4.2 0 0 0 1.525-.288v4.706a4.2 4.2 0 0 0-1.525-.288 3.9 3.9 0 0 0-1.54.302v-4.734a3.9 3.9 0 0 0 1.54.302" class="cls-9"/><path d="M174.039 150.748a4.2 4.2 0 0 1 1.525.288v.777h-3.065v-.763a3.9 3.9 0 0 1 1.54-.302M172.499 145.567h3.065v.763a4.2 4.2 0 0 1-1.525.288 3.9 3.9 0 0 1-1.54-.302Z" class="cls-11"/><path d="M179.72 132.262a5.3 5.3 0 0 0-.363-1.924h5.935a5.3 5.3 0 0 0-.363 1.924 4.9 4.9 0 0 0 .38 1.941h-5.97a4.9 4.9 0 0 0 .381-1.941" class="cls-9"/><path d="M184.929 132.262a5.3 5.3 0 0 1 .363-1.924h.98v3.865h-.962a4.9 4.9 0 0 1-.381-1.941M178.396 134.203v-3.865h.961a5.3 5.3 0 0 1 .363 1.924 4.9 4.9 0 0 1-.38 1.941Z" class="cls-11"/><path d="M173.824 141.937a5.3 5.3 0 0 0-.363-1.924h5.934a5.3 5.3 0 0 0-.363 1.924 4.9 4.9 0 0 0 .38 1.942h-5.97a4.9 4.9 0 0 0 .382-1.942" class="cls-9"/><path d="M179.032 141.937a5.3 5.3 0 0 1 .363-1.924h.98v3.866h-.962a4.9 4.9 0 0 1-.381-1.942M172.499 143.879v-3.866h.962a5.3 5.3 0 0 1 .363 1.924 4.9 4.9 0 0 1-.381 1.942Z" class="cls-11"/><path d="M184.392 201.694a5.3 5.3 0 0 0-.363-1.924h5.934a5.3 5.3 0 0 0-.362 1.924 4.9 4.9 0 0 0 .38 1.941h-5.97a4.9 4.9 0 0 0 .381-1.941" class="cls-9"/><path d="M189.6 201.694a5.3 5.3 0 0 1 .363-1.924h.98v3.865h-.961a4.9 4.9 0 0 1-.381-1.941M183.068 203.635v-3.865h.961a5.3 5.3 0 0 1 .363 1.924 4.9 4.9 0 0 1-.38 1.941Z" class="cls-11"/><path d="M184.392 207.284a5.3 5.3 0 0 0-.363-1.924h5.934a5.3 5.3 0 0 0-.362 1.924 4.9 4.9 0 0 0 .38 1.941h-5.97a4.9 4.9 0 0 0 .381-1.941" class="cls-9"/><path d="M189.6 207.284a5.3 5.3 0 0 1 .363-1.924h.98v3.865h-.961a4.9 4.9 0 0 1-.381-1.941M183.068 209.225v-3.865h.961a5.3 5.3 0 0 1 .363 1.924 4.9 4.9 0 0 1-.38 1.941Z" class="cls-11"/><path d="M162.938 135.428h.889v1.82h-.889zM164.492 135.428h.889v1.82h-.889zM166.046 135.428h.889v1.82h-.889zM162.938 142.646h.889v1.82h-.889zM164.492 142.646h.889v1.82h-.889zM166.046 142.646h.889v1.82h-.889zM167.635 137.949h1.82v.889h-1.82zM167.635 139.503h1.82v.889h-1.82zM167.635 141.057h1.82v.889h-1.82zM160.418 137.949h1.82v.889h-1.82zM160.418 139.503h1.82v.889h-1.82zM160.418 141.057h1.82v.889h-1.82z" class="cls-10"/><path d="M161.328 136.338h7.218v7.218h-7.218z" class="cls-5"/><rect width=".789" height="5.479" x="235.082" y="185.992" class="cls-10" rx=".394" transform="rotate(-90 185.3 187.115)"/><rect width=".789" height="5.479" x="235.082" y="187.464" class="cls-10" rx=".394" transform="rotate(-90 185.3 188.587)"/><rect width=".789" height="5.479" x="235.082" y="188.935" class="cls-10" rx=".394" transform="rotate(-90 185.3 190.059)"/><path d="M185.305 140.648v-4.474h3.222v4.474z"/><rect width="1.374" height="9.541" x="194.774" y="188.504" class="cls-10" rx=".687"/><rect width="1.374" height="9.541" x="192.211" y="188.504" class="cls-10" rx=".687"/><rect width="1.374" height="9.541" x="189.648" y="188.504" class="cls-10" rx=".687"/><path d="M189.003 190.47h7.791v5.61h-7.791z"/><path d="M184.29 165.371h3.86v1.463h-3.86zM191.061 165.371h3.858v1.463h-3.858zM187.477 179.97h11.026v1.463h-11.026z" class="cls-5"/><path d="M187.477 181.433h11.026v1.463h-11.026z" style="fill:#aeb1b2"/><path d="M187.477 182.896h11.026v1.461h-11.026zM197.716 165.371h3.86v1.463h-3.86z" class="cls-5"/><path d="M184.29 163.91h3.86v1.461h-3.86zM191.061 163.91h3.858v1.461h-3.858zM197.716 163.91h3.86v1.461h-3.86z" class="cls-13"/><path d="M184.29 162.447h3.86v1.463h-3.86zM191.061 162.447h3.858v1.463h-3.858zM197.716 162.447h3.86v1.463h-3.86z" class="cls-5"/><path d="M183.323 166.834h19.151v13.137h-19.151z"/><path d="M183.323 166.834h19.151v13.137h-19.151z"/><path d="M183.323 166.834h19.151v13.137h-19.151z"/><g id="Artwork_3-23" data-name="Artwork 3"><path d="M203.962 192.968h1.823a.03.03 0 0 1 .028.029v1.823a.03.03 0 0 1-.028.028h-1.823a.03.03 0 0 1-.028-.028v-1.823a.03.03 0 0 1 .028-.029M203.962 195.03h1.823a.03.03 0 0 1 .028.03v1.822a.03.03 0 0 1-.028.028h-1.823a.03.03 0 0 1-.028-.028v-1.823a.03.03 0 0 1 .028-.028" class="cls-9"/><path d="M205.66 195.707v-1.595h-.006a.78.78 0 0 0-1.561 0h-.006v1.594a.786.786 0 1 0 1.572 0" class="cls-10"/><path d="M204.087 194.365h1.573v1.163h-1.573z"/></g><g id="Artwork_3-24" data-name="Artwork 3"><path d="M179.867 244.713h1.822a.03.03 0 0 1 .028.028v1.823a.03.03 0 0 1-.028.028h-1.822a.03.03 0 0 1-.029-.028v-1.823a.03.03 0 0 1 .029-.028M179.867 246.775h1.822a.03.03 0 0 1 .028.029v1.822a.03.03 0 0 1-.028.029h-1.822a.03.03 0 0 1-.029-.029v-1.822a.03.03 0 0 1 .029-.029" class="cls-9"/><path d="M181.564 247.451v-1.594h-.006a.78.78 0 0 0-1.561 0h-.006v1.594a.786.786 0 1 0 1.573 0" class="cls-10"/><path d="M179.991 246.11h1.573v1.163h-1.573z"/></g><g id="Artwork_3-25" data-name="Artwork 3"><path d="M201.144 192.968h1.822a.03.03 0 0 1 .028.029v1.823a.03.03 0 0 1-.028.028h-1.822a.03.03 0 0 1-.029-.028v-1.823a.03.03 0 0 1 .029-.029M201.144 195.03h1.822a.03.03 0 0 1 .028.03v1.822a.03.03 0 0 1-.028.028h-1.822a.03.03 0 0 1-.029-.028v-1.823a.03.03 0 0 1 .029-.028" class="cls-9"/><path d="M202.84 195.707h.001v-1.595h-.006a.78.78 0 0 0-1.561 0h-.006v1.594a.786.786 0 1 0 1.572 0" class="cls-10"/><path d="M201.268 194.365h1.573v1.163h-1.573z"/></g><g id="Artwork_3-26" data-name="Artwork 3"><path d="M198.325 192.968h1.822a.03.03 0 0 1 .029.029v1.823a.03.03 0 0 1-.029.028h-1.822a.03.03 0 0 1-.029-.028v-1.823a.03.03 0 0 1 .029-.029M198.325 195.03h1.822a.03.03 0 0 1 .029.03v1.822a.03.03 0 0 1-.029.028h-1.822a.03.03 0 0 1-.029-.028v-1.823a.03.03 0 0 1 .029-.028" class="cls-9"/><path d="M200.022 195.707v-1.595h-.006a.78.78 0 0 0-1.56 0h-.006v1.594a.786.786 0 1 0 1.572 0" class="cls-10"/><path d="M198.45 194.365h1.573v1.163h-1.573z"/></g><g id="Artwork_3-27" data-name="Artwork 3"><path d="M185.889 187.732h1.823a.03.03 0 0 1 .028.029v1.822a.03.03 0 0 1-.028.029h-1.823a.03.03 0 0 1-.029-.029v-1.822a.03.03 0 0 1 .029-.029M183.827 187.732h1.822a.03.03 0 0 1 .029.029v1.822a.03.03 0 0 1-.029.029h-1.822a.03.03 0 0 1-.029-.029v-1.822a.03.03 0 0 1 .029-.029" class="cls-9"/><path d="M185.002 189.458h1.594v-.006a.78.78 0 0 0 0-1.56v-.006h-1.594a.786.786 0 1 0 0 1.572" class="cls-10"/><path d="M185.18 187.886h1.163v1.573h-1.163z"/></g><path d="M209.529 176.808v-.843h-1.962zM209.529 174.004v-.842h-1.962zM209.529 171.2v-.841h-1.962zM209.529 168.397v-.843h-1.962zM209.529 165.593v-.842h-1.962z" class="cls-5"/><path d="m209.529 176.808-1.962-.843v.843zM209.529 174.004l-1.962-.842v.842zM209.529 171.2l-1.962-.841v.841zM209.529 168.397l-1.962-.843v.843zM209.529 165.593l-1.962-.842v.842z" class="cls-5"/><path d="M209.53 160.967h11.915v19.626H209.53z" class="cls-6"/><path d="M209.53 160.969h1.821v19.624h-1.821z" class="cls-1"/><path d="M209.53 160.968h1.821v19.625h-1.821z" class="cls-1" style="clip-path:url(#clip-path)"/><path d="M213.451 160.967h1.917v19.63h-1.917z" class="cls-1"/><path d="M213.451 160.966h1.917v19.63h-1.917z" class="cls-1" style="clip-path:url(#clip-path-2)"/><path d="M217.469 160.967h1.917v19.63h-1.917z" class="cls-1"/><path d="M217.469 160.966h1.917v19.63h-1.917z" class="cls-1" style="clip-path:url(#clip-path-3)"/><path d="M202.375 94.869h20.323v23.272h-20.323z" class="cls-17"/><path d="M202.375 94.869h20.323v23.272h-20.323z" class="cls-17"/><path d="M202.375 94.869h20.323v23.272h-20.323z" style="fill:#f0b92f;opacity:.5"/><path d="M208.079 94.869h8.917v23.272h-8.917z" style="fill:#4a9ca6"/><path d="M208.079 94.869h8.917v23.272h-8.917z" style="opacity:.5;fill:#f2c657"/><path d="M215.137 111.539a2.6 2.6 0 1 0-2.598 2.6 2.6 2.6 0 0 0 2.598-2.6M215.137 101.375a2.6 2.6 0 1 0-2.598 2.602 2.6 2.6 0 0 0 2.598-2.602" class="cls-21"/><path d="m210.355 112.957 4.362-2.837" class="cls-22"/><path d="M202.376 94.869h2.067v23.272h-2.067z" class="cls-17"/><path d="M202.376 94.869h2.067v23.272h-2.067z" style="opacity:.5;fill:#ebaa01"/><path d="m209.949 101.088 5.173.576" class="cls-22"/><path d="M199.75 222.128h4.04v4.821h-4.04zM193.035 222.128h4.04v4.821h-4.04zM186.321 222.128h4.04v4.821h-4.04zM199.75 245.418h4.04v4.821h-4.04zM186.321 245.418h4.04v4.821h-4.04z" class="cls-5"/><path d="M187.406 225.549h15.297v21.268h-15.297z" class="cls-7"/><circle cx="195.053" cy="236.184" r="4.984" class="cls-11"/><path d="M182.248 191.027h4.854v6.557h-4.854z" class="cls-10"/><rect width="5.609" height="5.489" x="181.87" y="191.561" class="cls-9" rx=".284"/><path d="M189.729 23.041h4.392v4.392h-4.392zM164.201 17.008h2.196V21.4h-2.196zM164.201 29.074h2.196v4.392h-2.196zM166.397 6.112h23.332v38.25h-23.332z" class="cls-7"/><path d="M166.397 8.642h23.332v33.189h-23.332z" class="cls-8"/><path d="M181.52 10.545h6.12v8.622h-8.622v-6.12Z"/><path d="M182.109 13.628h2.439v2.456h-2.439z" class="cls-3"/><path d="M170.989 10.545h6.119v8.622h-8.622v-6.12Z"/><path d="M171.578 13.628h2.439v2.456h-2.439z" class="cls-3"/><path d="M181.52 20.926h6.12v8.622h-8.622v-6.12Z"/><path d="M182.109 24.009h2.439v2.456h-2.439z" class="cls-3"/><path d="M170.989 20.926h6.119v8.622h-8.622v-6.12Z"/><path d="M171.578 24.009h2.439v2.456h-2.439z" class="cls-3"/><path d="M179.018 37.426v-6.119h8.622v8.622h-6.12Z"/><path d="M182.101 34.398h2.456v2.439h-2.456z" class="cls-3"/><path d="M170.989 31.307h6.119v8.622h-8.622v-6.12Z"/><path d="M171.578 34.39h2.439v2.456h-2.439z" class="cls-3"/><path d="M102.065 241.57h.799v4.052h-.799zM103.464 241.57h.799v4.052h-.799zM104.864 241.57h.799v4.052h-.799zM106.264 241.57h.799v4.052h-.799zM107.664 241.57h.799v4.052h-.799zM109.064 241.57h.799v4.052h-.799zM110.463 241.57h.799v4.052h-.799zM111.863 241.57h.799v4.052h-.799zM113.263 241.57h.799v4.052h-.799zM114.663 241.57h.799v4.052h-.799zM116.063 241.57h.799v4.052h-.799zM117.462 241.57h.799v4.052h-.799zM118.862 241.57h.799v4.052h-.799zM120.262 241.57h.799v4.052h-.799zM121.662 241.57h.799v4.052h-.799zM123.062 241.57h.799v4.052h-.799zM124.461 241.57h.799v4.052h-.799zM125.861 241.57h.799v4.052h-.799zM127.261 241.57h.799v4.052h-.799zM128.661 241.57h.799v4.052h-.799zM130.061 241.57h.799v4.052h-.799zM131.46 241.57h.799v4.052h-.799zM132.86 241.57h.799v4.052h-.799zM134.26 241.57h.799v4.052h-.799zM100.89 243.479v5.99h-3.11v-2.04h-3.96v-2.68h1.94v-1.27zM136.234 243.479v5.99h3.11v-2.04h3.96v-2.68h-1.94v-1.27z" class="cls-24"/><path d="M94.146 250.379h48.831v4.949H94.146z" class="cls-11"/><path d="M95.358 244.376h46.407v8.861H95.358z" class="cls-6"/><path d="M95.358 244.376h3.375v4.431h-3.375zM138.391 244.376h3.375v4.431h-3.375z" class="cls-11"/><path d="M126.261 225.989h2.8v4.395h-2.8z"/><g id="Artwork_3-28" data-name="Artwork 3"><path d="M134.459 221.473h1.822a.03.03 0 0 1 .029.029v1.822a.03.03 0 0 1-.029.029h-1.822a.03.03 0 0 1-.028-.028v-1.823a.03.03 0 0 1 .028-.029M134.459 223.536h1.822a.03.03 0 0 1 .029.028v1.823a.03.03 0 0 1-.029.028h-1.822a.03.03 0 0 1-.028-.028v-1.823a.03.03 0 0 1 .028-.028" class="cls-9"/><path d="M136.156 224.212v-1.595h-.006a.78.78 0 0 0-1.56 0h-.006v1.594a.786.786 0 1 0 1.572 0" class="cls-10"/><path d="M134.584 222.87h1.573v1.163h-1.573z"/></g><g id="Artwork_3-29" data-name="Artwork 3"><path d="M131.64 221.473h1.823a.03.03 0 0 1 .028.029v1.822a.03.03 0 0 1-.028.029h-1.823a.03.03 0 0 1-.028-.028v-1.823a.03.03 0 0 1 .028-.029M131.64 223.536h1.823a.03.03 0 0 1 .028.028v1.823a.03.03 0 0 1-.028.028h-1.823a.03.03 0 0 1-.028-.028v-1.823a.03.03 0 0 1 .028-.028" class="cls-9"/><path d="M133.337 224.212v-.83l.001-.765h-.006a.78.78 0 0 0-1.561 0h-.006v1.594a.786.786 0 1 0 1.572 0" class="cls-10"/><path d="M131.765 222.87h1.573v1.163h-1.573z"/></g><g id="Artwork_3-30" data-name="Artwork 3"><path d="M134.08 229.264h1.823a.03.03 0 0 1 .029.028v1.823a.03.03 0 0 1-.029.028h-1.822a.03.03 0 0 1-.029-.028v-1.823a.03.03 0 0 1 .029-.028M132.018 229.264h1.823a.03.03 0 0 1 .028.028v1.823a.03.03 0 0 1-.028.028h-1.823a.03.03 0 0 1-.028-.028v-1.823a.03.03 0 0 1 .028-.028" class="cls-9"/><path d="M133.194 230.99h1.594v-.006a.78.78 0 0 0 0-1.561v-.006h-1.594a.786.786 0 1 0 0 1.572" class="cls-10"/><path d="M133.371 229.417h1.163v1.573h-1.163z"/></g><g id="Artwork_3-31" data-name="Artwork 3"><path d="M134.08 226.445h1.823a.03.03 0 0 1 .029.029v1.822a.03.03 0 0 1-.029.028h-1.822a.03.03 0 0 1-.029-.028v-1.822a.03.03 0 0 1 .029-.029M132.018 226.445h1.823a.03.03 0 0 1 .028.029v1.822a.03.03 0 0 1-.028.028h-1.823a.03.03 0 0 1-.028-.028v-1.822a.03.03 0 0 1 .028-.029" class="cls-9"/><path d="M133.194 228.17v.001h1.594v-.006a.78.78 0 0 0 0-1.56v-.007h-1.594a.786.786 0 1 0 0 1.573" class="cls-10"/><path d="M133.371 226.598h1.163v1.573h-1.163z"/></g><g id="Artwork_3-32" data-name="Artwork 3"><path d="M127.78 221.473h1.823a.03.03 0 0 1 .029.029v1.822a.03.03 0 0 1-.029.029h-1.822a.03.03 0 0 1-.029-.029v-1.822a.03.03 0 0 1 .028-.029M125.718 221.473h1.823a.03.03 0 0 1 .028.029v1.822a.03.03 0 0 1-.028.029h-1.823a.03.03 0 0 1-.028-.029v-1.822a.03.03 0 0 1 .028-.029" class="cls-9"/><path d="M126.894 223.199h1.594v-.006a.78.78 0 0 0 0-1.56v-.006h-1.594a.786.786 0 1 0 0 1.572" class="cls-10"/><path d="M127.071 221.627h1.163v1.573h-1.163z"/></g><g id="Artwork_3-33" data-name="Artwork 3"><path d="M10.724 142.746h1.244a.02.02 0 0 1 .02.019v1.244a.02.02 0 0 1-.02.02h-1.244a.02.02 0 0 1-.02-.02v-1.244a.02.02 0 0 1 .02-.02M10.724 144.153h1.244a.02.02 0 0 1 .02.02v1.244a.02.02 0 0 1-.02.02h-1.244a.02.02 0 0 1-.02-.02v-1.244a.02.02 0 0 1 .02-.02" class="cls-9"/><path d="M11.883 144.615v-1.089h-.004a.533.533 0 0 0-1.066 0h-.004v1.089a.537.537 0 1 0 1.074 0" class="cls-10"/><path d="M10.809 143.699h1.074v.794h-1.074z"/></g><path d="m16.498 147.107-1.726-1.726h-.949l-1.658 1.657v.949l1.727 1.726h.949l1.657-1.657Z" class="cls-5"/><path d="m13.901 146.655-.407-.406.802-.802" class="cls-25"/><path d="M14.674 145.283a.514.514 0 0 1-.748-.005M13.44 147.116l-.406-.407-.802.802" class="cls-25"/><path d="M12.068 147.89a.514.514 0 0 0-.005-.749M15.224 147.978l.406.407.802-.802" class="cls-25"/><path d="M16.596 147.205a.514.514 0 0 0 .005.748M14.763 148.439l.407.406-.802.802" class="cls-25"/><path d="M13.99 149.811a.514.514 0 0 1 .748.005" class="cls-25"/><path d="m14.973 145.582 1.323 1.323-2.607 2.607-1.323-1.323z" class="cls-26"/><g id="Artwork_3-34" data-name="Artwork 3"><path d="M10.724 149.657h1.244a.02.02 0 0 1 .02.02v1.244a.02.02 0 0 1-.02.02h-1.244a.02.02 0 0 1-.02-.02v-1.244a.02.02 0 0 1 .02-.02M10.724 151.065h1.244a.02.02 0 0 1 .02.02v1.244a.02.02 0 0 1-.02.02h-1.244a.02.02 0 0 1-.02-.02v-1.244a.02.02 0 0 1 .02-.02" class="cls-9"/><path d="M11.883 151.527v-1.089h-.004a.533.533 0 0 0-1.066 0h-.004v1.089a.537.537 0 1 0 1.074 0" class="cls-10"/><path d="M10.809 150.611h1.074v.794h-1.074z"/></g><g id="Artwork_3-35" data-name="Artwork 3"><path d="M10.724 153.749h1.244a.02.02 0 0 1 .02.02v1.243a.02.02 0 0 1-.02.02h-1.244a.02.02 0 0 1-.02-.02v-1.244a.02.02 0 0 1 .02-.02M10.724 155.157h1.244a.02.02 0 0 1 .02.019v1.244a.02.02 0 0 1-.02.02h-1.244a.02.02 0 0 1-.02-.02v-1.244a.02.02 0 0 1 .02-.02" class="cls-9"/><path d="M11.883 155.618v-1.089h-.004a.533.533 0 0 0-1.066 0h-.004v1.089a.537.537 0 1 0 1.074 0" class="cls-10"/><path d="M10.809 154.702h1.074v.794h-1.074z"/></g><path d="m16.498 158.11-1.726-1.726h-.949l-1.658 1.657v.949l1.727 1.726h.949l1.657-1.657Z" class="cls-5"/><path d="m13.901 157.658-.407-.406.802-.802" class="cls-25"/><path d="M14.674 156.286a.514.514 0 0 1-.748-.005M13.44 158.119l-.406-.407-.802.802" class="cls-25"/><path d="M12.068 158.892a.514.514 0 0 0-.005-.748M15.224 158.981l.406.407.802-.802" class="cls-25"/><path d="M16.596 158.208a.514.514 0 0 0 .005.748M14.763 159.442l.407.406-.802.802" class="cls-25"/><path d="M13.99 160.814a.514.514 0 0 1 .748.005" class="cls-25"/><path d="m14.973 156.585 1.323 1.323-2.607 2.607-1.323-1.323z" class="cls-26"/><g id="Artwork_3-36" data-name="Artwork 3"><path d="M10.724 160.66h1.244a.02.02 0 0 1 .02.02v1.244a.02.02 0 0 1-.02.02h-1.244a.02.02 0 0 1-.02-.02v-1.244a.02.02 0 0 1 .02-.02M10.724 162.068h1.244a.02.02 0 0 1 .02.02v1.244a.02.02 0 0 1-.02.02h-1.244a.02.02 0 0 1-.02-.02v-1.244a.02.02 0 0 1 .02-.02" class="cls-9"/><path d="M11.883 162.53v-1.089h-.004a.533.533 0 0 0-1.066 0h-.004v1.089a.537.537 0 1 0 1.074 0" class="cls-10"/><path d="M10.809 161.614h1.074v.794h-1.074z"/></g><g id="Artwork_3-37" data-name="Artwork 3"><path d="M10.724 164.752h1.244a.02.02 0 0 1 .02.02v1.243a.02.02 0 0 1-.02.02h-1.244a.02.02 0 0 1-.02-.02v-1.244a.02.02 0 0 1 .02-.02M10.724 166.16h1.244a.02.02 0 0 1 .02.019v1.244a.02.02 0 0 1-.02.02h-1.244a.02.02 0 0 1-.02-.02v-1.244a.02.02 0 0 1 .02-.02" class="cls-9"/><path d="M11.883 166.62v-1.088h-.004a.533.533 0 0 0-1.066 0h-.004v1.089a.537.537 0 1 0 1.074 0" class="cls-10"/><path d="M10.809 165.705h1.074v.794h-1.074z"/></g><path d="m16.498 169.113-1.726-1.726h-.949l-1.658 1.657v.949l1.727 1.727h.949l1.657-1.658Z" class="cls-5"/><path d="m13.901 168.661-.407-.406.802-.802" class="cls-25"/><path d="M14.674 167.289a.514.514 0 0 1-.748-.005M13.44 169.122l-.406-.407-.802.802" class="cls-25"/><path d="M12.068 169.895a.514.514 0 0 0-.005-.748M15.224 169.984l.406.407.802-.802" class="cls-25"/><path d="M16.596 169.211a.514.514 0 0 0 .005.748M14.763 170.445l.407.406-.802.802" class="cls-25"/><path d="M13.99 171.817a.514.514 0 0 1 .748.005" class="cls-25"/><path d="m14.973 167.588 1.323 1.323-2.607 2.607-1.323-1.323z" class="cls-26"/><g id="Artwork_3-38" data-name="Artwork 3"><path d="M10.724 171.664h1.244a.02.02 0 0 1 .02.019v1.244a.02.02 0 0 1-.02.02h-1.244a.02.02 0 0 1-.02-.02v-1.244a.02.02 0 0 1 .02-.02M10.724 173.071h1.244a.02.02 0 0 1 .02.02v1.244a.02.02 0 0 1-.02.02h-1.244a.02.02 0 0 1-.02-.02v-1.244a.02.02 0 0 1 .02-.02" class="cls-9"/><path d="M11.883 173.533v-1.089h-.004a.533.533 0 0 0-1.066 0h-.004v1.089a.537.537 0 1 0 1.074 0" class="cls-10"/><path d="M10.809 172.617h1.074v.794h-1.074z"/></g><g id="Artwork_3-39" data-name="Artwork 3"><path d="M10.724 175.755h1.244a.02.02 0 0 1 .02.02v1.243a.02.02 0 0 1-.02.02h-1.244a.02.02 0 0 1-.02-.02v-1.244a.02.02 0 0 1 .02-.02M10.724 177.163h1.244a.02.02 0 0 1 .02.019v1.244a.02.02 0 0 1-.02.02h-1.244a.02.02 0 0 1-.02-.02v-1.244a.02.02 0 0 1 .02-.02" class="cls-9"/><path d="M11.883 177.624v-1.089h-.004a.533.533 0 0 0-1.066 0h-.004v1.089a.537.537 0 1 0 1.074 0" class="cls-10"/><path d="M10.809 176.708h1.074v.794h-1.074z"/></g><path d="m16.498 180.116-1.726-1.726h-.949l-1.658 1.657v.95l1.727 1.726h.949l1.657-1.658Z" class="cls-5"/><path d="m13.901 179.664-.407-.406.802-.802" class="cls-25"/><path d="M14.674 178.292a.514.514 0 0 1-.748-.005M13.44 180.125l-.406-.407-.802.802" class="cls-25"/><path d="M12.068 180.898a.514.514 0 0 0-.005-.748M15.224 180.987l.406.407.802-.802" class="cls-25"/><path d="M16.596 180.214a.514.514 0 0 0 .005.748M14.763 181.448l.407.406-.802.802" class="cls-25"/><path d="M13.99 182.82a.514.514 0 0 1 .748.005" class="cls-25"/><path d="m14.973 178.591 1.323 1.323-2.607 2.607-1.323-1.323z" class="cls-26"/><g id="Artwork_3-40" data-name="Artwork 3"><path d="M10.724 182.667h1.244a.02.02 0 0 1 .02.019v1.244a.02.02 0 0 1-.02.02h-1.244a.02.02 0 0 1-.02-.02v-1.244a.02.02 0 0 1 .02-.02M10.724 184.074h1.244a.02.02 0 0 1 .02.02v1.244a.02.02 0 0 1-.02.02h-1.244a.02.02 0 0 1-.02-.02v-1.244a.02.02 0 0 1 .02-.02" class="cls-9"/><path d="M11.883 184.536v-1.089h-.004a.533.533 0 0 0-1.066 0h-.004v1.089a.537.537 0 1 0 1.074 0" class="cls-10"/><path d="M10.809 183.62h1.074v.794h-1.074z"/></g><g id="Artwork_3-41" data-name="Artwork 3"><path d="M10.724 186.758h1.244a.02.02 0 0 1 .02.02v1.243a.02.02 0 0 1-.02.02h-1.244a.02.02 0 0 1-.02-.02v-1.244a.02.02 0 0 1 .02-.02M10.724 188.166h1.244a.02.02 0 0 1 .02.02v1.243a.02.02 0 0 1-.02.02h-1.244a.02.02 0 0 1-.02-.02v-1.244a.02.02 0 0 1 .02-.02" class="cls-9"/><path d="M11.883 188.627v-1.088h-.004a.533.533 0 0 0-1.066 0h-.004v1.088a.537.537 0 1 0 1.074 0" class="cls-10"/><path d="M10.809 187.711h1.074v.794h-1.074z"/></g><path d="m16.498 191.12-1.726-1.727h-.949l-1.658 1.657v.95l1.727 1.726h.949l1.657-1.658Z" class="cls-5"/><path d="m13.901 190.667-.407-.406.802-.802" class="cls-25"/><path d="M14.674 189.295a.514.514 0 0 1-.748-.005M13.44 191.128l-.406-.407-.802.802" class="cls-25"/><path d="M12.068 191.901a.514.514 0 0 0-.005-.748M15.224 191.991l.406.406.802-.802" class="cls-25"/><path d="M16.596 191.217a.514.514 0 0 0 .005.748M14.763 192.451l.407.407-.802.801" class="cls-25"/><path d="M13.99 193.823a.514.514 0 0 1 .748.006" class="cls-25"/><path d="m14.973 189.594 1.323 1.323-2.606 2.607-1.323-1.323z" class="cls-26"/><g id="Artwork_3-42" data-name="Artwork 3"><path d="M10.724 193.67h1.244a.02.02 0 0 1 .02.019v1.244a.02.02 0 0 1-.02.02h-1.244a.02.02 0 0 1-.02-.02v-1.244a.02.02 0 0 1 .02-.02M10.724 195.077h1.244a.02.02 0 0 1 .02.02v1.244a.02.02 0 0 1-.02.02h-1.244a.02.02 0 0 1-.02-.02v-1.244a.02.02 0 0 1 .02-.02" class="cls-9"/><path d="M11.883 195.539v-1.089h-.004a.533.533 0 0 0-1.066 0h-.004v1.089a.537.537 0 1 0 1.074 0" class="cls-10"/><path d="M10.809 194.623h1.074v.794h-1.074z"/></g><g id="Artwork_3-43" data-name="Artwork 3"><path d="M10.724 197.76h1.244a.02.02 0 0 1 .02.02v1.244a.02.02 0 0 1-.02.02h-1.244a.02.02 0 0 1-.02-.02v-1.244a.02.02 0 0 1 .02-.02M10.724 199.169h1.244a.02.02 0 0 1 .02.02v1.243a.02.02 0 0 1-.02.02h-1.244a.02.02 0 0 1-.02-.02v-1.244a.02.02 0 0 1 .02-.02" class="cls-9"/><path d="M11.883 199.63v-1.088h-.004a.533.533 0 0 0-1.066 0h-.004v1.088a.537.537 0 1 0 1.074 0" class="cls-10"/><path d="M10.809 198.714h1.074v.794h-1.074z"/></g><path d="m16.498 202.122-1.726-1.726h-.949l-1.658 1.657v.95l1.727 1.726h.949l1.657-1.658Z" class="cls-5"/><path d="m13.901 201.67-.407-.406.802-.802" class="cls-25"/><path d="M14.674 200.298a.514.514 0 0 1-.748-.005M13.44 202.131l-.406-.407-.802.802" class="cls-25"/><path d="M12.068 202.904a.514.514 0 0 0-.005-.748M15.224 202.994l.406.406.802-.802" class="cls-25"/><path d="M16.596 202.22a.514.514 0 0 0 .005.748M14.763 203.454l.407.407-.802.801" class="cls-25"/><path d="M13.99 204.826a.514.514 0 0 1 .748.006" class="cls-25"/><path d="m14.973 200.597 1.323 1.323-2.606 2.607-1.323-1.323z" class="cls-26"/><g id="Artwork_3-44" data-name="Artwork 3"><path d="M10.724 204.673h1.244a.02.02 0 0 1 .02.019v1.244a.02.02 0 0 1-.02.02h-1.244a.02.02 0 0 1-.02-.02v-1.244a.02.02 0 0 1 .02-.02M10.724 206.08h1.244a.02.02 0 0 1 .02.02v1.244a.02.02 0 0 1-.02.02h-1.244a.02.02 0 0 1-.02-.02V206.1a.02.02 0 0 1 .02-.02" class="cls-9"/><path d="M11.883 206.542v-1.089h-.004a.533.533 0 0 0-1.066 0h-.004v1.089a.537.537 0 1 0 1.074 0" class="cls-10"/><path d="M10.809 205.626h1.074v.794h-1.074z"/></g><g id="Artwork_3-45" data-name="Artwork 3"><path d="M18.848 251.128h1.822a.03.03 0 0 1 .029.028v1.823a.03.03 0 0 1-.029.028h-1.822a.03.03 0 0 1-.028-.028v-1.823a.03.03 0 0 1 .028-.028M18.848 253.19h1.822a.03.03 0 0 1 .029.029v1.822a.03.03 0 0 1-.029.029h-1.822a.03.03 0 0 1-.028-.029v-1.822a.03.03 0 0 1 .028-.029" class="cls-9"/><path d="M20.545 253.866v-1.594h-.005a.78.78 0 0 0-1.561 0h-.006v1.594a.786.786 0 1 0 1.572 0" class="cls-10"/><path d="M18.973 252.525h1.573v1.163h-1.573z"/></g><g id="Artwork_3-46" data-name="Artwork 3"><path d="M16.03 251.128h1.822a.03.03 0 0 1 .028.028v1.823a.03.03 0 0 1-.028.028h-1.823a.03.03 0 0 1-.028-.028v-1.823a.03.03 0 0 1 .028-.028M16.03 253.19h1.822a.03.03 0 0 1 .028.029v1.822a.03.03 0 0 1-.028.029h-1.823a.03.03 0 0 1-.028-.029v-1.822a.03.03 0 0 1 .028-.029" class="cls-9"/><path d="m17.726 253.866.001-.766v-.828h-.006a.78.78 0 0 0-1.561 0h-.006v1.594a.786.786 0 1 0 1.572 0" class="cls-10"/><path d="M16.154 252.525h1.573v1.163h-1.573z"/></g><g id="Artwork_3-47" data-name="Artwork 3"><path d="M13.21 251.128h1.823a.03.03 0 0 1 .028.028v1.823a.03.03 0 0 1-.028.028H13.21a.03.03 0 0 1-.029-.028v-1.823a.03.03 0 0 1 .029-.028M13.21 253.19h1.823a.03.03 0 0 1 .028.029v1.822a.03.03 0 0 1-.028.029H13.21a.03.03 0 0 1-.029-.029v-1.822a.03.03 0 0 1 .029-.029" class="cls-9"/><path d="M14.908 253.866v-1.594h-.006a.78.78 0 0 0-1.56 0h-.007v1.594a.786.786 0 1 0 1.573 0" class="cls-10"/><path d="M13.335 252.525h1.573v1.163h-1.573z"/></g><g id="Artwork_3-48" data-name="Artwork 3"><path d="M44.647 217.502h1.823a.03.03 0 0 1 .028.028v1.823a.03.03 0 0 1-.028.028h-1.822a.03.03 0 0 1-.029-.028v-1.823a.03.03 0 0 1 .028-.028M44.647 219.564h1.823a.03.03 0 0 1 .028.028v1.823a.03.03 0 0 1-.028.028h-1.823a.03.03 0 0 1-.028-.028v-1.823a.03.03 0 0 1 .028-.028" class="cls-9"/><path d="M46.344 220.24zv-1.595h-.006a.78.78 0 0 0-1.561 0h-.006v1.595a.786.786 0 1 0 1.572 0" class="cls-10"/><path d="M44.772 218.899h1.573v1.163h-1.573z"/></g><g id="Artwork_3-49" data-name="Artwork 3"><path d="M41.829 217.502h1.822a.03.03 0 0 1 .028.028v1.823a.03.03 0 0 1-.028.028h-1.822a.03.03 0 0 1-.029-.028v-1.823a.03.03 0 0 1 .029-.028M41.829 219.564h1.822a.03.03 0 0 1 .028.028v1.823a.03.03 0 0 1-.028.028h-1.822a.03.03 0 0 1-.029-.028v-1.823a.03.03 0 0 1 .029-.028" class="cls-9"/><path d="M43.526 220.24v-1.595h-.006a.78.78 0 0 0-1.56 0h-.006v1.595a.786.786 0 1 0 1.572 0" class="cls-10"/><path d="M41.953 218.899h1.573v1.163h-1.573z"/></g><path d="m23.248 244.053 2.158 2.158-1.147 1.146-2.158-2.158zM20.799 241.604l2.158 2.158-1.147 1.146-2.158-2.158zM18.35 239.155l2.158 2.158-1.146 1.146-2.159-2.158zM38.086 229.214l2.158 2.158-1.146 1.146-2.158-2.158zM35.637 226.765l2.158 2.158-1.146 1.146-2.158-2.158zM33.188 224.316l2.158 2.158-1.146 1.146-2.158-2.158zM23.698 227.685l-3.127 3.127-1.66-1.661 3.126-3.127zM38.537 242.523l-3.127 3.127-1.66-1.661 3.126-3.127z" class="cls-3"/><rect width="24.373" height="24.373" x="16.537" y="223.65" class="cls-10" rx="5.517"/><path d="m39.578 239.747 1.332 1.149v-10.119l-1.332 1.149zM19.91 234.45v2.77l-2.04 1.03v1.5l-1.33 1.15v-10.12l1.33 1.15v1.5z" class="cls-7"/><circle cx="28.724" cy="235.837" r="6.479" class="cls-7"/><path d="M74.752 285.098h5.063v5.063h-5.063z" style="fill:#4e5b61" transform="rotate(45 115.523 203.115)"/><path d="M193.79 147.996v-.637h1.41v.637zM193.79 146.68v-.638h1.41v.637zM193.791 145.362v-.637h1.41v.637zM193.791 144.046v-.637h1.41v.637zM193.79 142.729v-.637h1.41v.637zM193.79 141.412v-.637h1.41v.637zM193.79 140.095v-.637h1.41v.637zM193.79 138.778v-.637h1.41v.637zM193.79 137.461v-.637h1.41v.637zM193.791 136.144v-.637h1.41v.637zM193.791 134.828v-.637h1.41v.637zM193.79 133.51v-.636h1.41v.637zM193.79 132.194v-.637h1.41v.637zM193.79 130.877v-.637h1.41v.637zM193.79 129.56v-.637h1.41v.637zM193.79 128.243v-.637h1.41v.637zM193.791 126.927v-.637h1.41v.637zM193.79 125.61v-.637h1.41v.637z" class="cls-26"/><path d="M195.201 125.892h.338a.626.626 0 0 1 .636.626v1.172a.634.634 0 0 1-.636.636h-.338v1.312h.338a.634.634 0 0 1 .636.636v1.172a.626.626 0 0 1-.636.626h-.338v1.322h.338a.626.626 0 0 1 .636.626v1.172a.634.634 0 0 1-.636.636h-.338v1.312h.338a.634.634 0 0 1 .636.635v1.173a.626.626 0 0 1-.636.626h-.338v1.321h.338a.626.626 0 0 1 .636.626v1.173a.634.634 0 0 1-.636.636h-.338v1.311h.338a.634.634 0 0 1 .636.636v1.173a.626.626 0 0 1-.636.626h-.338v2.483h28.377V123.62h-28.377Z" class="cls-5"/><rect width="3.434" height="1.303" x="248.241" y="187.625" class="cls-26" rx=".652" transform="rotate(-90 199.781 186.66)"/><path d="M32.362 5.631H50.57V33.78H32.362z" class="cls-28"/><path d="M44.857 9.034h5.713v21.342h-5.713z" class="cls-4"/><path d="M48.382 9.034h2.188v21.342h-2.188z" class="cls-6"/><path d="M37.611 15.407h1.71v1.722h-1.71zM37.611 29.156h1.71v1.722h-1.71zM37.611 8.532h1.71v1.722h-1.71zM37.611 22.282h1.71v1.722h-1.71z" class="cls-3"/><path d="M54.335 5.631h18.208V33.78H54.335z" class="cls-28"/><path d="M66.83 9.034h5.713v21.342H66.83z" class="cls-4"/><path d="M70.355 9.034h2.188v21.342h-2.188z" class="cls-6"/><path d="M59.584 15.407h1.71v1.722h-1.71zM59.584 29.156h1.71v1.722h-1.71zM59.584 8.532h1.71v1.722h-1.71zM59.584 22.282h1.71v1.722h-1.71z" class="cls-3"/><path d="M76.308 5.631h18.208V33.78H76.308z" class="cls-28"/><path d="M88.803 9.034h5.713v21.342h-5.713z" class="cls-4"/><path d="M92.328 9.034h2.188v21.342h-2.188z" class="cls-6"/><path d="M81.557 15.407h1.71v1.722h-1.71zM81.557 29.156h1.71v1.722h-1.71zM81.557 8.532h1.71v1.722h-1.71zM81.557 22.282h1.71v1.722h-1.71z" class="cls-3"/><path d="M98.281 5.631h18.208V33.78H98.281z" class="cls-28"/><path d="M110.776 9.034h5.713v21.342h-5.713z" class="cls-4"/><path d="M114.301 9.034h2.188v21.342h-2.188z" class="cls-6"/><path d="M103.531 15.407h1.71v1.722h-1.71zM103.531 29.156h1.71v1.722h-1.71zM103.531 8.532h1.71v1.722h-1.71zM103.531 22.282h1.71v1.722h-1.71z" class="cls-3"/><path d="M120.254 5.631h18.208V33.78h-18.208z" class="cls-28"/><path d="M132.75 9.034h5.713v21.342h-5.713z" class="cls-4"/><path d="M136.274 9.034h2.188v21.342h-2.188z" class="cls-6"/><path d="M125.504 15.407h1.71v1.722h-1.71zM125.504 29.156h1.71v1.722h-1.71zM125.504 8.532h1.71v1.722h-1.71zM125.504 22.282h1.71v1.722h-1.71z" class="cls-3"/><path d="M142.228 5.631h18.208V33.78h-18.208z" class="cls-28"/><path d="M154.723 9.034h5.713v21.342h-5.713z" class="cls-4"/><path d="M158.248 9.034h2.188v21.342h-2.188z" class="cls-6"/><path d="M147.477 15.407h1.71v1.722h-1.71zM147.477 29.156h1.71v1.722h-1.71zM147.477 8.532h1.71v1.722h-1.71zM147.477 22.282h1.71v1.722h-1.71z" class="cls-3"/></g><g id="LCD"><rect width="88.437" height="108.344" x="66.834" y="182.66" rx="1.763" style="fill:#374146"/><rect width="71.397" height="72.137" x="75.354" y="191.268" rx="1.145"/></g></svg>