<svg xmlns="http://www.w3.org/2000/svg" id="Illustration" viewBox="0 0 251.41 158.64"><defs><style>.cls-2{fill:#7f8c8d}.cls-3{fill:#bcc3c4}.cls-4{fill:#9e846d}.cls-5{fill:#2b322d}.cls-6{fill:#abaeaf}.cls-8{fill:#a0a3a4}.cls-9{fill:#9da1a2}.cls-10{fill:#b5b8b9}.cls-11{fill:#acaeaf}.cls-12{fill:#b8aca0}.cls-13{fill:#8b7866}.cls-14{fill:#c3c5c6}.cls-15{fill:none;stroke:#8c9091;stroke-width:.92px}.cls-16{fill:#c3b9af}.cls-17{fill:#b8babb}.cls-18{fill:#555b57}</style></defs><path d="m608.69 168.52.49-.5.48-.48 1.45-1.45a2.22 2.22 0 0 0 .66-1.59V98.61a8.46 8.46 0 0 0-8.45-8.45H379.46a8.48 8.48 0 0 0-8.46 8.45v47.16a4.28 4.28 0 0 0 2.69 4 4.38 4.38 0 0 1 2.75 4.08v61.22a4.39 4.39 0 0 1-2.75 4.08 4.28 4.28 0 0 0-2.69 4v17.23a8.47 8.47 0 0 0 8.46 8.45H603.4a8.46 8.46 0 0 0 8.45-8.45v-36.95a2.2 2.2 0 0 0-.66-1.58l-2-2-.52-.53a4.36 4.36 0 0 1-1.29-3.11v-24.6a4.38 4.38 0 0 1 1.31-3.09m-228 74.87a4.26 4.26 0 1 1 4.25-4.25 4.25 4.25 0 0 1-4.29 4.25Zm0-139.33a4.26 4.26 0 1 1 4.25-4.26 4.26 4.26 0 0 1-4.29 4.26Zm164.58 139.33a4.26 4.26 0 1 1 4.26-4.25 4.25 4.25 0 0 1-4.26 4.25m0-139.33a4.26 4.26 0 1 1 4.26-4.26 4.25 4.25 0 0 1-4.26 4.26m36.4 40a2.34 2.34 0 1 1 2.34-2.34 2.33 2.33 0 0 1-2.34 2.35Zm0-44.78A2.34 2.34 0 1 1 584 97a2.33 2.33 0 0 1-2.33 2.29Z" style="fill:#404642" transform="translate(-371 -90.15)"/><path d="M114.58 34.61a6 6 0 0 0 2.15-.4v6.64a6 6 0 0 0-2.15-.41 5.6 5.6 0 0 0-2.16.43v-6.65a5.6 5.6 0 0 0 2.16.39" class="cls-2"/><path d="M114.58 40.41a6 6 0 0 1 2.15.41v1.09h-4.31v-1.06a5.6 5.6 0 0 1 2.16-.44M112.42 33.13h4.31v1.08a6 6 0 0 1-2.15.4 5.6 5.6 0 0 1-2.16-.42Z" class="cls-3"/><path d="M25.84 51.1a5.7 5.7 0 0 0 1.67-.24v4a5.7 5.7 0 0 0-1.67-.24 5.2 5.2 0 0 0-1.69.26v-4a5.2 5.2 0 0 0 1.69.22" class="cls-4"/><path d="M25.84 54.63a5.7 5.7 0 0 1 1.67.24v.67h-3.36v-.69a5.2 5.2 0 0 1 1.69-.22M24.15 50.21h3.36v.64a5.7 5.7 0 0 1-1.67.24 5.2 5.2 0 0 1-1.69-.26Z" class="cls-3"/><path d="M30.41 51.1a5.7 5.7 0 0 0 1.67-.24v4a5.7 5.7 0 0 0-1.67-.24 5.2 5.2 0 0 0-1.69.26v-4a5.2 5.2 0 0 0 1.69.22" class="cls-4"/><path d="M30.41 54.63a5.7 5.7 0 0 1 1.67.24v.67h-3.36v-.69a5.2 5.2 0 0 1 1.69-.22M28.72 50.21h3.36v.64a5.7 5.7 0 0 1-1.67.24 5.2 5.2 0 0 1-1.69-.26Z" class="cls-3"/><path d="M64.2 51.1a5.7 5.7 0 0 0 1.67-.25v4a5.7 5.7 0 0 0-1.67-.25 5.4 5.4 0 0 0-1.69.26v-4a5.4 5.4 0 0 0 1.69.24" class="cls-4"/><path d="M64.2 54.62a5.7 5.7 0 0 1 1.67.25v.66h-3.36v-.68a5.4 5.4 0 0 1 1.69-.23M62.51 50.2h3.36v.65a5.7 5.7 0 0 1-1.67.25 5.4 5.4 0 0 1-1.69-.26Z" class="cls-3"/><path d="M145.35 64.11a5.7 5.7 0 0 0 1.65-.26v4a5.7 5.7 0 0 0-1.67-.24 5.2 5.2 0 0 0-1.69.26v-4.02a5.2 5.2 0 0 0 1.71.26" class="cls-4"/><path d="M145.35 67.64a5.7 5.7 0 0 1 1.65.21v.67h-3.36v-.65a5.2 5.2 0 0 1 1.71-.23M143.66 63.22H147v.63a5.7 5.7 0 0 1-1.67.24 5.2 5.2 0 0 1-1.69-.26Z" class="cls-3"/><path d="M114.58 46.25a5.7 5.7 0 0 0 1.67-.24v4a5.7 5.7 0 0 0-1.67-.25 5.4 5.4 0 0 0-1.69.26v-4a5.4 5.4 0 0 0 1.69.23" class="cls-4"/><path d="M114.58 49.78a5.7 5.7 0 0 1 1.67.25v.66h-3.36v-.65a5.4 5.4 0 0 1 1.69-.26M112.89 45.36h3.36v.65a5.7 5.7 0 0 1-1.67.24 5.4 5.4 0 0 1-1.69-.25Z" class="cls-3"/><path d="M68.14 51.1a5.8 5.8 0 0 0 1.68-.25v4a5.8 5.8 0 0 0-1.68-.25 5.4 5.4 0 0 0-1.68.26v-4a5.4 5.4 0 0 0 1.68.24" class="cls-2"/><path d="M68.14 54.62a5.8 5.8 0 0 1 1.68.25v.66h-3.36v-.68a5.4 5.4 0 0 1 1.68-.23M66.46 50.2h3.36v.65a5.8 5.8 0 0 1-1.68.25 5.4 5.4 0 0 1-1.68-.26Z" class="cls-3"/><path d="M56.31 51.1a5.7 5.7 0 0 0 1.69-.25v4a5.7 5.7 0 0 0-1.67-.25 5.4 5.4 0 0 0-1.69.26v-4a5.4 5.4 0 0 0 1.67.24" class="cls-4"/><path d="M56.31 54.62a5.7 5.7 0 0 1 1.69.23v.66h-3.36v-.66a5.4 5.4 0 0 1 1.67-.23M54.62 50.2H58v.65a5.7 5.7 0 0 1-1.67.25 5.4 5.4 0 0 1-1.69-.26Z" class="cls-3"/><path d="M75.08 124.34a5.7 5.7 0 0 0 1.67-.25v4a5.7 5.7 0 0 0-1.67-.25 5.4 5.4 0 0 0-1.69.26v-4a5.4 5.4 0 0 0 1.69.24" class="cls-4"/><path d="M75.08 127.85a5.7 5.7 0 0 1 1.67.25v.66h-3.36v-.65a5.4 5.4 0 0 1 1.69-.26M73.39 123.44h3.36v.65a5.7 5.7 0 0 1-1.67.25 5.4 5.4 0 0 1-1.69-.26Z" class="cls-3"/><path d="M60.26 51.1a5.7 5.7 0 0 0 1.67-.25v4a5.7 5.7 0 0 0-1.67-.25 5.4 5.4 0 0 0-1.69.26v-4a5.4 5.4 0 0 0 1.69.24" class="cls-4"/><path d="M60.26 54.62a5.7 5.7 0 0 1 1.67.25v.66h-3.36v-.68a5.4 5.4 0 0 1 1.69-.23M58.57 50.2h3.36v.65a5.7 5.7 0 0 1-1.67.25 5.4 5.4 0 0 1-1.69-.26Z" class="cls-3"/><path d="M48.43 51.1a5.7 5.7 0 0 0 1.67-.25v4a5.7 5.7 0 0 0-1.67-.25 5.4 5.4 0 0 0-1.69.26v-4a5.4 5.4 0 0 0 1.69.24" class="cls-4"/><path d="M48.43 54.62a5.7 5.7 0 0 1 1.67.25v.66h-3.36v-.68a5.4 5.4 0 0 1 1.69-.23M46.74 50.2h3.36v.65a5.7 5.7 0 0 1-1.67.25 5.4 5.4 0 0 1-1.69-.26Z" class="cls-3"/><path d="M52.37 51.1a5.8 5.8 0 0 0 1.68-.25v4a5.8 5.8 0 0 0-1.68-.25 5.4 5.4 0 0 0-1.68.26v-4a5.4 5.4 0 0 0 1.68.24" class="cls-4"/><path d="M52.37 54.62a5.8 5.8 0 0 1 1.68.25v.66h-3.36v-.68a5.4 5.4 0 0 1 1.68-.23M50.69 50.2h3.36v.65a5.8 5.8 0 0 1-1.68.25 5.4 5.4 0 0 1-1.68-.26Z" class="cls-3"/><path d="M51.53 39.52a5.7 5.7 0 0 0 1.68-.25v4a5.7 5.7 0 0 0-1.68-.25 5.4 5.4 0 0 0-1.68.26v-4a5.4 5.4 0 0 0 1.68.24" class="cls-4"/><path d="M51.53 43.04a5.7 5.7 0 0 1 1.68.25v.66h-3.36v-.65a5.4 5.4 0 0 1 1.68-.26M49.85 38.62h3.36v.65a5.7 5.7 0 0 1-1.68.25 5.4 5.4 0 0 1-1.68-.26Z" class="cls-3"/><path d="M47.21 31.85a5.7 5.7 0 0 0 .24 1.67h-4a5.7 5.7 0 0 0 .25-1.67 5.4 5.4 0 0 0-.26-1.69h4a5.4 5.4 0 0 0-.23 1.69" class="cls-4"/><path d="M43.68 31.85a5.7 5.7 0 0 1-.25 1.67h-.66v-3.36h.65a5.4 5.4 0 0 1 .26 1.69M48.1 30.18v3.36h-.65a5.7 5.7 0 0 1-.24-1.67 5.4 5.4 0 0 1 .25-1.69Z" class="cls-3"/><path d="M95.68 132.85a5.7 5.7 0 0 0 .24 1.67h-4a5.7 5.7 0 0 0 .24-1.67 5.4 5.4 0 0 0-.25-1.69h4a5.2 5.2 0 0 0-.23 1.69" class="cls-4"/><path d="M92.15 132.85a5.7 5.7 0 0 1-.24 1.67h-.67v-3.36h.66a5.4 5.4 0 0 1 .25 1.69M96.58 131.19v3.36h-.66a5.7 5.7 0 0 1-.24-1.67 5.2 5.2 0 0 1 .26-1.69Z" class="cls-3"/><path d="M47.21 36.43a5.7 5.7 0 0 0 .24 1.68h-4a5.7 5.7 0 0 0 .25-1.68 5.4 5.4 0 0 0-.26-1.68h4a5.4 5.4 0 0 0-.23 1.68" class="cls-2"/><path d="M43.68 36.43a5.7 5.7 0 0 1-.25 1.68h-.66v-3.36h.65a5.4 5.4 0 0 1 .26 1.68M48.1 34.75v3.36h-.65a5.7 5.7 0 0 1-.24-1.68 5.4 5.4 0 0 1 .25-1.68Z" class="cls-3"/><path d="M97.07 112.62a5.7 5.7 0 0 0 .24 1.67h-4a5.7 5.7 0 0 0 .25-1.67 5.4 5.4 0 0 0-.26-1.69h4a5.4 5.4 0 0 0-.23 1.69" class="cls-2"/><path d="M93.54 112.62a5.7 5.7 0 0 1-.25 1.67h-.66v-3.36h.65a5.4 5.4 0 0 1 .26 1.69M98 110.93v3.36h-.65a5.7 5.7 0 0 1-.24-1.67 5.4 5.4 0 0 1 .25-1.69Z" class="cls-3"/><path d="M24.94 143.7a5.7 5.7 0 0 0 .24 1.67h-4a6 6 0 0 0 .24-1.67 5.4 5.4 0 0 0-.26-1.69h4a5.4 5.4 0 0 0-.22 1.69" class="cls-2"/><path d="M21.41 143.7a6 6 0 0 1-.24 1.67h-.67v-3.36h.65a5.4 5.4 0 0 1 .26 1.69M25.83 142.01v3.36h-.65a5.7 5.7 0 0 1-.24-1.67 5.4 5.4 0 0 1 .25-1.69Z" class="cls-3"/><path d="M24.94 147.99a5.7 5.7 0 0 0 .24 1.67h-4a6 6 0 0 0 .24-1.67 5.4 5.4 0 0 0-.26-1.69h4a5.4 5.4 0 0 0-.22 1.69" class="cls-2"/><path d="M21.41 147.99a6 6 0 0 1-.24 1.67h-.67v-3.36h.65a5.4 5.4 0 0 1 .26 1.69M25.83 146.3v3.36h-.65a5.7 5.7 0 0 1-.24-1.67 5.4 5.4 0 0 1 .25-1.69ZM25.32 152.28a4.9 4.9 0 0 0 .3 1.67h-4.89a4.9 4.9 0 0 0 .3-1.67 4.5 4.5 0 0 0-.32-1.69h4.93a4.5 4.5 0 0 0-.32 1.69" class="cls-3"/><path d="M21 152.28a4.9 4.9 0 0 1-.3 1.67h-.81v-3.36h.79a4.5 4.5 0 0 1 .32 1.69M26.41 150.59v3.36h-.79a4.9 4.9 0 0 1-.3-1.67 4.5 4.5 0 0 1 .32-1.69ZM101 152.28a4.9 4.9 0 0 0 .3 1.67h-4.89a4.9 4.9 0 0 0 .3-1.67 4.5 4.5 0 0 0-.32-1.69h4.93a4.5 4.5 0 0 0-.32 1.69" class="cls-3"/><path d="M96.66 152.28a4.9 4.9 0 0 1-.3 1.67h-.81v-3.36h.79a4.5 4.5 0 0 1 .32 1.69M102.05 150.59v3.36h-.8a4.9 4.9 0 0 1-.3-1.67 4.5 4.5 0 0 1 .32-1.69Z" class="cls-3"/><path d="M100.56 145.15a5.7 5.7 0 0 0 .25 1.67h-4a5.7 5.7 0 0 0 .25-1.67 5.4 5.4 0 0 0-.26-1.69h4a5.4 5.4 0 0 0-.24 1.69" class="cls-2"/><path d="M97 145.15a5.7 5.7 0 0 1-.25 1.67h-.66v-3.36h.65a5.4 5.4 0 0 1 .26 1.69M101.46 143.46v3.39h-.65a5.7 5.7 0 0 1-.25-1.67 5.4 5.4 0 0 1 .26-1.69Z" class="cls-3"/><path d="M219.35 122.12a5.7 5.7 0 0 0 .24 1.67h-4a5.7 5.7 0 0 0 .25-1.67 5.4 5.4 0 0 0-.26-1.69h4a5.4 5.4 0 0 0-.23 1.69" class="cls-2"/><path d="M215.82 122.12a5.7 5.7 0 0 1-.25 1.67h-.66v-3.36h.65a5.4 5.4 0 0 1 .26 1.69M220.24 120.43v3.36h-.65a5.7 5.7 0 0 1-.24-1.67 5.4 5.4 0 0 1 .25-1.69Z" class="cls-3"/><path d="M219.76 127.47a7 7 0 0 0 .31 2.07h-5a7 7 0 0 0 .31-2.07 6.7 6.7 0 0 0-.32-2.08h5a6.7 6.7 0 0 0-.3 2.08" class="cls-4"/><path d="M215.41 127.47a7 7 0 0 1-.31 2.07h-.82v-4.15h.81a6.7 6.7 0 0 1 .32 2.08M220.87 125.39v4.15h-.8a7 7 0 0 1-.31-2.07 6.7 6.7 0 0 1 .32-2.08Z" class="cls-3"/><path d="M223.25 73.56a5.7 5.7 0 0 0 .24 1.68h-4a5.7 5.7 0 0 0 .25-1.68 5.4 5.4 0 0 0-.26-1.68h4a5.4 5.4 0 0 0-.23 1.68" class="cls-2"/><path d="M219.72 73.56a5.7 5.7 0 0 1-.25 1.68h-.66v-3.39h.65a5.4 5.4 0 0 1 .26 1.71M224.14 71.85v3.36h-.65a5.7 5.7 0 0 1-.24-1.68 5.4 5.4 0 0 1 .25-1.68Z" class="cls-3"/><path d="M223.25 68.98a5.7 5.7 0 0 0 .25 1.68h-4a5.7 5.7 0 0 0 .25-1.68 5.4 5.4 0 0 0-.26-1.68h4a5.4 5.4 0 0 0-.24 1.68" class="cls-2"/><path d="M219.73 68.98a5.7 5.7 0 0 1-.25 1.68h-.66V67.3h.65a5.4 5.4 0 0 1 .26 1.68M224.15 67.3v3.36h-.65a5.7 5.7 0 0 1-.25-1.68 5.4 5.4 0 0 1 .26-1.68Z" class="cls-3"/><path d="M214 73.56a5.7 5.7 0 0 0 .24 1.68h-4a5.7 5.7 0 0 0 .24-1.68 5.4 5.4 0 0 0-.25-1.68h4a5.1 5.1 0 0 0-.23 1.68" class="cls-2"/><path d="M210.48 73.56a5.7 5.7 0 0 1-.24 1.68h-.67v-3.39h.66a5.4 5.4 0 0 1 .25 1.71M214.91 71.85v3.36h-.66a5.7 5.7 0 0 1-.24-1.68 5.1 5.1 0 0 1 .26-1.68Z" class="cls-3"/><path d="M214 68.98a5.7 5.7 0 0 0 .25 1.68h-4a5.7 5.7 0 0 0 .25-1.68 5.4 5.4 0 0 0-.26-1.68h4a5.4 5.4 0 0 0-.24 1.68" class="cls-2"/><path d="M210.49 68.98a5.7 5.7 0 0 1-.25 1.68h-.66V67.3h.65a5.4 5.4 0 0 1 .26 1.68M214.91 67.3v3.36h-.65a5.7 5.7 0 0 1-.25-1.68 5.4 5.4 0 0 1 .26-1.68Z" class="cls-3"/><path d="M145.34 77.08a5.7 5.7 0 0 0-1.68.25v-4a5.7 5.7 0 0 0 1.68.25 5.4 5.4 0 0 0 1.68-.26v4a5.4 5.4 0 0 0-1.68-.24" class="cls-2"/><path d="M145.34 73.56a5.7 5.7 0 0 1-1.68-.25v-.66H147v.65a5.4 5.4 0 0 1-1.66.26M147 77.98h-3.36v-.65a5.7 5.7 0 0 1 1.68-.25 5.4 5.4 0 0 1 1.68.26Z" class="cls-3"/><path d="M39 32.38a6 6 0 0 0 1.67-.24v4A5.7 5.7 0 0 0 39 35.9a5.4 5.4 0 0 0-1.69.25v-4a5.4 5.4 0 0 0 1.69.23" class="cls-2"/><path d="M39 35.91a5.7 5.7 0 0 1 1.67.24v.7h-3.36v-.65a5.4 5.4 0 0 1 1.69-.29M37.33 31.48h3.36v.66a6 6 0 0 1-1.67.24 5.4 5.4 0 0 1-1.69-.26Z" class="cls-3"/><path d="M25.84 42.18a5.7 5.7 0 0 0 1.67-.24v4a5.7 5.7 0 0 0-1.67-.24 5.4 5.4 0 0 0-1.69.25v-4a5.2 5.2 0 0 0 1.69.23" class="cls-4"/><path d="M25.84 45.71a5.7 5.7 0 0 1 1.67.24v.67h-3.36v-.66a5.4 5.4 0 0 1 1.69-.25M24.15 41.28h3.36v.66a5.7 5.7 0 0 1-1.67.24 5.2 5.2 0 0 1-1.69-.26Z" class="cls-3"/><path d="M30.41 42.18a5.7 5.7 0 0 0 1.67-.24v4a5.7 5.7 0 0 0-1.67-.24 5.4 5.4 0 0 0-1.69.25v-4a5.2 5.2 0 0 0 1.69.23" class="cls-4"/><path d="M30.41 45.71a5.7 5.7 0 0 1 1.67.24v.67h-3.36v-.66a5.4 5.4 0 0 1 1.69-.25M28.72 41.28h3.36v.66a5.7 5.7 0 0 1-1.67.24 5.2 5.2 0 0 1-1.69-.26Z" class="cls-3"/><path d="M35 42.18a5.7 5.7 0 0 0 1.67-.24v4A5.7 5.7 0 0 0 35 45.7a5.4 5.4 0 0 0-1.69.25v-4a5.2 5.2 0 0 0 1.69.23" class="cls-4"/><path d="M35 45.71a5.7 5.7 0 0 1 1.67.24v.67h-3.36v-.66a5.4 5.4 0 0 1 1.69-.25M33.28 41.28h3.36v.66a5.7 5.7 0 0 1-1.67.24 5.2 5.2 0 0 1-1.69-.26Z" class="cls-3"/><path d="M45.64 38.97v9.05h-4.79v-9.05z" class="cls-5"/><path d="M48 41.28h-2.36v-.82H48a.41.41 0 0 1 .41.41.41.41 0 0 1-.41.41M48 43.91h-2.36v-.82H48a.4.4 0 0 1 .41.41.41.41 0 0 1-.41.41M48 46.53h-2.36v-.82H48a.41.41 0 0 1 .41.41.41.41 0 0 1-.41.41M38.48 41.28h2.36v-.82h-2.36a.41.41 0 0 0-.41.41.41.41 0 0 0 .41.41M38.48 43.91h2.36v-.82h-2.36a.4.4 0 0 0-.41.41.41.41 0 0 0 .41.41M38.48 46.53h2.36v-.82h-2.36a.41.41 0 0 0-.41.41.41.41 0 0 0 .41.41" class="cls-6"/><path d="M136.42 62.68v13.49H125.7V62.68z" class="cls-5"/><path d="M138.79 64.58h-2.36v-.82h2.36a.41.41 0 1 1 0 .82M138.79 68.16h-2.36v-.82h2.36a.41.41 0 0 1 .41.41.41.41 0 0 1-.41.41M138.79 71.74h-2.36v-.82h2.36a.4.4 0 0 1 .41.41.41.41 0 0 1-.41.41M138.79 75.31h-2.36v-.82h2.36a.41.41 0 0 1 .41.41.41.41 0 0 1-.41.41M123.34 64.58h2.36v-.82h-2.36a.41.41 0 0 0 0 .82M123.34 68.16h2.36v-.82h-2.36a.41.41 0 0 0-.41.41.41.41 0 0 0 .41.41M123.34 71.74h2.36v-.82h-2.36a.4.4 0 0 0-.41.41.41.41 0 0 0 .41.41M123.34 75.31h2.36v-.82h-2.36a.41.41 0 0 0-.41.41.41.41 0 0 0 .41.41" class="cls-6"/><path d="M93.91 116v13.49H83.19V116z" class="cls-5"/><path d="M96.27 117.9h-2.36v-.82h2.36a.39.39 0 0 1 .41.41.41.41 0 0 1-.41.41M96.27 121.47h-2.36v-.82h2.36a.41.41 0 0 1 0 .82M96.27 125.05h-2.36v-.82h2.36a.4.4 0 0 1 .41.41.41.41 0 0 1-.41.41M96.27 128.63h-2.36v-.78h2.36a.42.42 0 0 1 0 .83ZM80.82 117.9h2.36v-.82h-2.36a.4.4 0 0 0-.41.41.41.41 0 0 0 .41.41M80.82 121.47h2.36v-.82h-2.36a.41.41 0 0 0 0 .82M80.82 125.05h2.36v-.82h-2.36a.41.41 0 0 0-.41.41.41.41 0 0 0 .41.41M80.82 128.63h2.36v-.78h-2.36a.42.42 0 0 0 0 .83Z" class="cls-6"/><path d="M596.1 194.33a3 3 0 1 0 3 3 3 3 0 0 0-3-3" style="fill:#32352f" transform="translate(-371 -90.15)"/><path d="M233.69 85.85a.74.74 0 0 0 0-1.48h-4.33v1.48ZM233.69 88.85a.74.74 0 1 0 0-1.47h-4.33v1.47ZM233.69 91.91a.74.74 0 1 0 0-1.47h-4.33v1.47ZM233.69 94.96a.74.74 0 1 0 0-1.47h-4.33v1.47ZM233.69 98a.74.74 0 1 0 0-1.47h-4.33V98ZM233.69 101.04a.74.74 0 1 0 0-1.47h-4.33v1.47ZM233.69 104.09a.74.74 0 1 0 0-1.47h-4.33v1.47ZM233.69 107.13a.74.74 0 1 0 0-1.47h-4.33v1.47Z" class="cls-4"/><path d="m231.24 83.31 3.63-2.15v-3.73H230v3.52h-10.46v-1l2.68-.53 1.2.53h4.76v-2.54h-25.43v32.86h32.12v-2.78h-1.38c-2.47 0-2.25-1.79-2.25-1.79Z" class="cls-8"/><path d="M3.98 128.6h2.34v1.96H3.98zM12.6 128.6h2.28v1.96H12.6zM3.98 136.6h2.34v1.96H3.98zM12.6 136.6h2.28v1.96H12.6z" class="cls-2"/><path d="M3.13 129.62h12.68v7.93H3.13z" class="cls-3"/><path d="m12.01 133.58-.02.28-.05.27-.07.28-.11.25-.12.25-.17.23-.18.21-.21.19-.22.16-.25.14-.25.12-.26.07-.28.06-.28.03-.27-.01-.28-.04-.28-.07-.26-.1-.25-.12-.24-.15-.21-.19-.19-.19-.17-.23-.14-.24-.13-.25-.09-.26-.06-.27-.03-.28v-.28l.03-.28.06-.27.09-.26.13-.25.14-.24.17-.22.19-.2.21-.18.24-.16.25-.12.26-.1.28-.07.28-.04.27-.01.28.03.28.05.26.08.25.11.25.15.22.17.21.18.18.21.17.23.12.24.11.27.07.26.05.28z" class="cls-8"/><g id="pin"><path d="M112.96 141.83h7.45v7.46h-7.45zM120.42 141.85v7.45h7.45v-7.45ZM127.87 141.85v7.45h7.46v-7.45ZM135.33 141.85v7.45h7.45v-7.45Z" class="cls-5"/><path d="M105.52 141.85v7.45H113v-7.45ZM150.17 141.85v7.45h7.45v-7.45ZM142.72 141.85v7.45h7.45v-7.45ZM157.62 141.85v7.45h7.45v-7.45Z" class="cls-5"/><path d="M112.96 141.83h7.45v7.46h-7.45zM120.42 141.85v7.45h7.45v-7.45ZM127.87 141.85v7.45h7.46v-7.45ZM135.33 141.85v7.45h7.45v-7.45Z" class="cls-5"/><path d="M105.52 141.85v7.45H113v-7.45ZM150.17 141.85v7.45h7.45v-7.45ZM142.72 141.85v7.45h7.45v-7.45ZM157.62 141.85v7.45h7.45v-7.45Z" class="cls-5"/><path d="M112.96 141.83h7.45v7.46h-7.45zM120.42 141.85v7.45h7.45v-7.45ZM127.87 141.85v7.45h7.46v-7.45ZM135.33 141.85v7.45h7.45v-7.45Z" class="cls-5"/><path d="M105.52 141.85v7.45H113v-7.45ZM150.17 141.85v7.45h7.45v-7.45ZM142.72 141.85v7.45h7.45v-7.45ZM157.62 141.85v7.45h7.45v-7.45Z" class="cls-5"/><path d="M126.01 143.69h-3.72v3.74h3.72v-3.74M118.55 143.69h-3.73v3.74h3.73v-3.74M111.11 143.69h-3.73v3.74h3.73v-3.74M155.76 143.69h-3.73v3.74h3.73v-3.74M159.48 143.7v3.73h3.73v-3.73h-3.73M144.58 143.7l-.01 3.73h3.74v-3.73h-3.73M137.19 143.7v3.73h3.73v-3.73h-3.73M129.74 143.7l-.01 3.73h3.74v-3.73h-3.73" class="cls-4"/></g><g id="pin-2" data-name="pin"><path d="M112.96 149.29h7.45v7.46h-7.45zM120.42 149.29v7.45h7.45v-7.45ZM127.87 149.29v7.45h7.46v-7.45ZM135.33 149.29v7.45h7.45v-7.45Z" class="cls-5"/><path d="M105.52 149.29v7.45H113v-7.45ZM150.17 149.29v7.45h7.45v-7.45ZM142.72 149.29v7.45h7.45v-7.45ZM157.62 149.29v7.45h7.45v-7.45Z" class="cls-5"/><path d="M112.96 149.29h7.45v7.46h-7.45zM120.42 149.29v7.45h7.45v-7.45ZM127.87 149.29v7.45h7.46v-7.45ZM135.33 149.29v7.45h7.45v-7.45Z" class="cls-5"/><path d="M105.52 149.29v7.45H113v-7.45ZM150.17 149.29v7.45h7.45v-7.45ZM142.72 149.29v7.45h7.45v-7.45ZM157.62 149.29v7.45h7.45v-7.45Z" class="cls-5"/><path d="M112.96 149.29h7.45v7.46h-7.45zM120.42 149.29v7.45h7.45v-7.45ZM127.87 149.29v7.45h7.46v-7.45ZM135.33 149.29v7.45h7.45v-7.45Z" class="cls-5"/><path d="M105.52 149.29v7.45H113v-7.45ZM150.17 149.29v7.45h7.45v-7.45ZM142.72 149.29v7.45h7.45v-7.45ZM157.62 149.29v7.45h7.45v-7.45Z" class="cls-5"/><path d="M126.01 151.15h-3.72v3.73h3.72v-3.73M118.55 151.15h-3.73v3.73h3.73v-3.73M111.11 151.15h-3.73v3.73h3.73v-3.73M155.76 151.15h-3.73v3.73h3.73v-3.73M159.48 151.15v3.73h3.73v-3.72h-.01v-.01zM144.58 151.15l-.01 3.73h3.74v-3.72h-.01v-.01zM137.19 151.15v3.73h3.73v-3.72h-.01v-.01zM129.74 151.15l-.01 3.73h3.74v-3.72h-.01v-.01z" class="cls-4"/></g><g id="pin-3" data-name="pin"><path d="M25.4 2.47h7.45v7.46H25.4zM32.86 2.48v7.45h7.45V2.48ZM40.31 2.48v7.45h7.45V2.48Z" class="cls-5"/><path d="M47.76 2.48v7.45h7.45V2.48ZM18 2.48v7.45h7.45V2.48ZM62.6 2.48v7.45h7.45V2.48Z" class="cls-5"/><path d="M55.15 2.48v7.45h7.45V2.48ZM70.05 2.48v7.45h7.45V2.48ZM25.4 2.47h7.45v7.46H25.4zM32.86 2.48v7.45h7.45V2.48ZM40.31 2.48v7.45h7.45V2.48Z" class="cls-5"/><path d="M47.76 2.48v7.45h7.45V2.48ZM18 2.48v7.45h7.45V2.48ZM62.6 2.48v7.45h7.45V2.48Z" class="cls-5"/><path d="M55.15 2.48v7.45h7.45V2.48ZM70.05 2.48v7.45h7.45V2.48ZM25.4 2.47h7.45v7.46H25.4zM32.86 2.48v7.45h7.45V2.48ZM40.31 2.48v7.45h7.45V2.48Z" class="cls-5"/><path d="M47.76 2.48v7.45h7.45V2.48ZM18 2.48v7.45h7.45V2.48ZM62.6 2.48v7.45h7.45V2.48Z" class="cls-5"/><path d="M55.15 2.48v7.45h7.45V2.48ZM70.05 2.48v7.45h7.45V2.48Z" class="cls-5"/><path d="M38.45 4.33h-3.73v3.74h3.73V4.33M30.98 4.33h-3.72v3.74h3.72V4.33M23.54 4.33h-3.73v3.74h3.73V4.33M68.19 4.33h-3.72v3.74h3.72V4.33M71.91 4.34v3.72h3.73V4.34h-3.73M57.01 4.34v3.72h3.73V4.34h-3.73M49.62 4.34v3.72h3.73V4.34h-3.73M42.17 4.34v3.72h3.73V4.34h-3.73" class="cls-4"/></g><g id="pin-4" data-name="pin"><path d="M84.94 2.47h7.45v7.46h-7.45zM92.41 2.48v7.45h7.45V2.48ZM99.86 2.48v7.45h7.45V2.48ZM107.31 2.48v7.45h7.45V2.48Z" class="cls-5"/><path d="M77.5 2.48v7.45H85V2.48ZM122.15 2.48v7.45h7.45V2.48ZM114.7 2.48v7.45h7.45V2.48ZM129.6 2.48v7.45h7.45V2.48Z" class="cls-5"/><path d="M84.94 2.47h7.45v7.46h-7.45zM92.41 2.48v7.45h7.45V2.48ZM99.86 2.48v7.45h7.45V2.48ZM107.31 2.48v7.45h7.45V2.48Z" class="cls-5"/><path d="M77.5 2.48v7.45H85V2.48ZM122.15 2.48v7.45h7.45V2.48ZM114.7 2.48v7.45h7.45V2.48ZM129.6 2.48v7.45h7.45V2.48Z" class="cls-5"/><path d="M84.94 2.47h7.45v7.46h-7.45zM92.41 2.48v7.45h7.45V2.48ZM99.86 2.48v7.45h7.45V2.48ZM107.31 2.48v7.45h7.45V2.48Z" class="cls-5"/><path d="M77.5 2.48v7.45H85V2.48ZM122.15 2.48v7.45h7.45V2.48ZM114.7 2.48v7.45h7.45V2.48ZM129.6 2.48v7.45h7.45V2.48Z" class="cls-5"/><path d="M98 4.33h-3.73v3.74H98V4.33M90.53 4.33h-3.72v3.74h3.72V4.33M83.09 4.33h-3.73v3.74h3.73V4.33M127.74 4.33h-3.72v3.74h3.72V4.33M131.46 4.34v3.72h3.73V4.34h-3.73M116.56 4.34v3.72h3.73V4.34h-3.73M109.17 4.34v3.72h3.73V4.34h-3.73M101.72 4.34v3.72h3.73V4.34h-3.73" class="cls-4"/></g><g id="pin-5" data-name="pin"><path d="M144.49 2.47h7.45v7.46h-7.45zM152 2.48v7.45h7.45V2.48Z" class="cls-5"/><path d="M159.41 2.48v7.45h7.45V2.48ZM137.05 2.48v7.45h7.45V2.48Z" class="cls-5"/><path d="M144.49 2.47h7.45v7.46h-7.45zM152 2.48v7.45h7.45V2.48Z" class="cls-5"/><path d="M159.41 2.48v7.45h7.45V2.48ZM137.05 2.48v7.45h7.45V2.48Z" class="cls-5"/><path d="M144.49 2.47h7.45v7.46h-7.45zM152 2.48v7.45h7.45V2.48Z" class="cls-5"/><path d="M159.41 2.48v7.45h7.45V2.48ZM137.05 2.48v7.45h7.45V2.48Z" class="cls-5"/><path d="M157.55 4.33h-3.73v3.74h3.73V4.33M150.08 4.33h-3.72v3.74h3.72V4.33M142.64 4.33h-3.73v3.74h3.73V4.33M161.27 4.34v3.72H165V4.34h-3.73" class="cls-4"/></g><g id="pin-6" data-name="pin"><path d="M25.4 9.93h7.45v7.46H25.4zM32.86 9.93v7.45h7.45V9.93ZM40.31 9.93v7.45h7.45V9.93Z" class="cls-5"/><path d="M47.76 9.93v7.45h7.45V9.93ZM18 9.93v7.45h7.45V9.93ZM62.6 9.93v7.45h7.45V9.93Z" class="cls-5"/><path d="M55.15 9.93v7.45h7.45V9.93ZM70.05 9.93v7.45h7.45V9.93ZM25.4 9.93h7.45v7.46H25.4zM32.86 9.93v7.45h7.45V9.93ZM40.31 9.93v7.45h7.45V9.93Z" class="cls-5"/><path d="M47.76 9.93v7.45h7.45V9.93ZM18 9.93v7.45h7.45V9.93ZM62.6 9.93v7.45h7.45V9.93Z" class="cls-5"/><path d="M55.15 9.93v7.45h7.45V9.93ZM70.05 9.93v7.45h7.45V9.93ZM25.4 9.93h7.45v7.46H25.4zM32.86 9.93v7.45h7.45V9.93ZM40.31 9.93v7.45h7.45V9.93Z" class="cls-5"/><path d="M47.76 9.93v7.45h7.45V9.93ZM18 9.93v7.45h7.45V9.93ZM62.6 9.93v7.45h7.45V9.93Z" class="cls-5"/><path d="M55.15 9.93v7.45h7.45V9.93ZM70.05 9.93v7.45h7.45V9.93Z" class="cls-5"/><path d="M38.45 11.79h-3.73v3.74h3.73v-3.74M30.98 11.79h-3.72v3.74h3.72v-3.74M23.54 11.79h-3.73v3.74h3.73v-3.74M68.19 11.79h-3.72v3.74h3.72v-3.74M71.91 11.79v3.73h3.73v-3.73h-3.73M57.01 11.79v3.73h3.73v-3.73h-3.73M49.62 11.79v3.73h3.73v-3.73h-3.73M42.17 11.79v3.73h3.73v-3.73h-3.73" class="cls-4"/></g><g id="pin-7" data-name="pin"><path d="M84.94 9.93h7.45v7.46h-7.45zM92.41 9.93v7.45h7.45V9.93ZM99.86 9.93v7.45h7.45V9.93ZM107.31 9.93v7.45h7.45V9.93Z" class="cls-5"/><path d="M77.5 9.93v7.45H85V9.93ZM122.15 9.93v7.45h7.45V9.93ZM114.7 9.93v7.45h7.45V9.93ZM129.6 9.93v7.45h7.45V9.93Z" class="cls-5"/><path d="M84.94 9.93h7.45v7.46h-7.45zM92.41 9.93v7.45h7.45V9.93ZM99.86 9.93v7.45h7.45V9.93ZM107.31 9.93v7.45h7.45V9.93Z" class="cls-5"/><path d="M77.5 9.93v7.45H85V9.93ZM122.15 9.93v7.45h7.45V9.93ZM114.7 9.93v7.45h7.45V9.93ZM129.6 9.93v7.45h7.45V9.93Z" class="cls-5"/><path d="M84.94 9.93h7.45v7.46h-7.45zM92.41 9.93v7.45h7.45V9.93ZM99.86 9.93v7.45h7.45V9.93ZM107.31 9.93v7.45h7.45V9.93Z" class="cls-5"/><path d="M77.5 9.93v7.45H85V9.93ZM122.15 9.93v7.45h7.45V9.93ZM114.7 9.93v7.45h7.45V9.93ZM129.6 9.93v7.45h7.45V9.93Z" class="cls-5"/><path d="M98 11.79h-3.73v3.74H98v-3.74M90.53 11.79h-3.72v3.74h3.72v-3.74M83.09 11.79h-3.73v3.74h3.73v-3.74M127.74 11.79h-3.72v3.74h3.72v-3.74M131.46 11.79v3.73h3.73v-3.73h-3.73M116.56 11.79v3.73h3.73v-3.73h-3.73M109.17 11.79v3.73h3.73v-3.73h-3.73M101.72 11.79v3.73h3.73v-3.73h-3.73" class="cls-4"/></g><g id="pin-8" data-name="pin"><path d="M144.49 9.93h7.45v7.46h-7.45zM152 9.93v7.45h7.45V9.93Z" class="cls-5"/><path d="M159.41 9.93v7.45h7.45V9.93ZM137.05 9.93v7.45h7.45V9.93Z" class="cls-5"/><path d="M144.49 9.93h7.45v7.46h-7.45zM152 9.93v7.45h7.45V9.93Z" class="cls-5"/><path d="M159.41 9.93v7.45h7.45V9.93ZM137.05 9.93v7.45h7.45V9.93Z" class="cls-5"/><path d="M144.49 9.93h7.45v7.46h-7.45zM152 9.93v7.45h7.45V9.93Z" class="cls-5"/><path d="M159.41 9.93v7.45h7.45V9.93ZM137.05 9.93v7.45h7.45V9.93Z" class="cls-5"/><path d="M157.55 11.79h-3.73v3.74h3.73v-3.74M150.08 11.79h-3.72v3.74h3.72v-3.74M142.64 11.79h-3.73v3.74h3.73v-3.74M161.27 11.79v3.73H165v-3.73h-3.73" class="cls-4"/></g><path d="M5.54 30.04h9.75v19.27H5.54z" class="cls-5"/><path d="M8.11 32.11h.94v.94h-.94zM11.78 32.11h.94v.94h-.94zM8.11 35.6h.94v.94h-.94zM11.78 35.6h.94v.94h-.94zM8.11 39.1h.94v.94h-.94zM11.78 39.1h.94v.94h-.94zM8.11 42.6h.94v.94h-.94zM11.78 42.6h.94v.94h-.94zM8.11 46.09h.94v.94h-.94zM11.78 46.09h.94v.94h-.94zM108.35 37.73v15.94H79.07V37.73z" class="cls-3"/><path d="M105.05 45.99v1.42h-1.42v-1.42zM97.96 45.99v1.42h-1.42v-1.42zM90.88 45.98v1.42h-1.42v-1.42zM83.79 45.99v1.42h-1.42v-1.42zM55.21 25.87h19.78v19.78H55.21z" class="cls-8"/><path id="USB" d="M189.68 6.81h61.72v44.78h-61.72z" class="cls-9"/><path d="m232.87 43.66 17.67.82v-1l-17.64-.83a1.2 1.2 0 0 1-1-1.28v-.52a1.21 1.21 0 0 1 1-1.29l17.64-.82v-1l-17.67.83a2.15 2.15 0 0 0-1.81 2.3v.49a2.17 2.17 0 0 0 1.81 2.3M232.87 20.17l17.67.82v-1l-17.64-.83a1.2 1.2 0 0 1-1-1.28v-.49a1.21 1.21 0 0 1 1-1.29l17.64-.82v-1l-17.67.83a2.16 2.16 0 0 0-1.81 2.3v.44a2.17 2.17 0 0 0 1.81 2.32" class="cls-10"/><path id="USB-2" d="M189.68 134.32h61.73v20.94h-61.73z" class="cls-9" data-name="USB"/><path d="m232.87 147.34 17.67.82v-1l-17.64-.82a1.21 1.21 0 0 1-1-1.29v-.48a1.2 1.2 0 0 1 1-1.29l17.64-.83v-1l-17.67.82a2.17 2.17 0 0 0-1.81 2.31v.48a2.17 2.17 0 0 0 1.81 2.28" class="cls-10"/><path d="M196.13 129.29h-6.88v-3.65h6.88z" class="cls-5"/><path d="M194.29 125.63h1.51v-1.78a.31.31 0 0 0-.31-.31h-.91a.29.29 0 0 0-.29.29ZM189.56 125.63h1.5v-1.78a.31.31 0 0 0-.31-.31h-.91a.28.28 0 0 0-.28.29ZM195.8 129.29h-1.51v1.8a.32.32 0 0 0 .32.32h.9a.29.29 0 0 0 .29-.29ZM192.1 129.29h-2.51v1.8a.32.32 0 0 0 .32.32h1.9a.29.29 0 0 0 .29-.29Z" class="cls-11"/><path d="M157.53 32.24h17.12v10.35h-17.12z" class="cls-5"/><path d="M153.8 34.31h3.73v2.59h-3.73zM153.8 37.93h3.73v2.59h-3.73zM174.66 34.31h3.73v2.59h-3.73zM174.66 37.93h3.73v2.59h-3.73z" class="cls-2"/><path d="M24.15 31.86h11.73v4.95H24.15z" class="cls-5"/><circle cx="186.88" cy="3.79" r="3.02" class="cls-4"/><circle cx="186.88" cy="3.79" r="1.82" class="cls-2"/><circle cx="96.68" cy="138.81" r="3.02" class="cls-4"/><circle cx="96.68" cy="138.81" r="1.82" class="cls-2"/><path d="M14.88 73.52h5.61v1.79h-5.61zM14.88 76.37h5.61v1.79h-5.61zM14.88 79.23h5.61v1.79h-5.61zM14.88 82.08h5.61v1.79h-5.61zM14.88 84.93h5.61v1.79h-5.61zM14.88 87.78h5.61v1.79h-5.61zM14.88 90.63h5.61v1.79h-5.61zM14.88 93.48h5.61v1.79h-5.61zM14.88 96.33h5.61v1.79h-5.61zM14.88 99.19h5.61v1.79h-5.61zM14.88 102.04h5.61v1.79h-5.61zM14.88 104.89h5.61v1.79h-5.61zM14.88 107.74h5.61v1.79h-5.61zM14.88 110.59h5.61v1.79h-5.61zM14.88 113.44h5.61v1.79h-5.61z" class="cls-6"/><path d="M14.91 66.53v55.69a1.08 1.08 0 0 1-1.08 1.09H7v2.42a.67.67 0 0 1-.67.67h-1a2.32 2.32 0 0 1-2.32-2.32V64.67a2.32 2.32 0 0 1 2.32-2.32h1a.68.68 0 0 1 .67.68v2.42h6.86a1.08 1.08 0 0 1 1.05 1.08" class="cls-3"/><g id="Artwork_25" data-name="Artwork 25"><g id="LWPOLYLINE"><path d="M38.81 148.21a2.41 2.41 0 1 1-2.41-2.36 2.41 2.41 0 0 1 2.41 2.36M48.19 148.21a2.4 2.4 0 1 1-2.4-2.41 2.4 2.4 0 0 1 2.4 2.41M31.03 138.81h20.14v5.27H31.03zM31.03 152.32h20.14v5.27H31.03z" class="cls-12"/></g><path d="M31.03 155.69h20.14v1.91H31.03zM31 144.08v.77l1.59-.34v2l-1.59-.34v6.18h59.78v-8.24Zm5.37 6.53a2.41 2.41 0 1 1 2.41-2.4 2.4 2.4 0 0 1-2.38 2.4Zm9.39 0a2.41 2.41 0 1 1 2.4-2.4 2.41 2.41 0 0 1-2.37 2.4Zm10.44 0a2.41 2.41 0 1 1 2.4-2.4 2.41 2.41 0 0 1-2.37 2.4Zm9.39 0a2.41 2.41 0 1 1 2.4-2.4 2.41 2.41 0 0 1-2.37 2.4Zm10.43 0a2.41 2.41 0 1 1 2.4-2.4 2.4 2.4 0 0 1-2.37 2.4Zm9.39 0a2.41 2.41 0 1 1 2.4-2.4 2.4 2.4 0 0 1-2.37 2.4Z" class="cls-4"/><path d="M38.81 148.21a2.41 2.41 0 1 1-2.41-2.36 2.41 2.41 0 0 1 2.41 2.36M48.19 148.21a2.4 2.4 0 1 1-2.4-2.41 2.4 2.4 0 0 1 2.4 2.41" class="cls-13"/><g id="INSERT"><path id="CIRCLE" d="M419.19 238.36a2.4 2.4 0 1 1-2.4-2.41 2.4 2.4 0 0 1 2.4 2.41" class="cls-14" transform="translate(-371 -90.15)"/></g><g id="INSERT-2" data-name="INSERT"><path id="CIRCLE-2" d="M409.81 238.36a2.41 2.41 0 1 1-2.41-2.36 2.41 2.41 0 0 1 2.41 2.36" class="cls-14" data-name="CIRCLE" transform="translate(-371 -90.15)"/></g><path d="m37.41 149.76-2.02-3.1M34.85 149.22l3.1-2.02M44.71 149.65l2.17-2.89M47.24 149.29l-2.89-2.17" class="cls-15"/><path d="M29.44 153.13v1.96l1.59-.34v-1.28z" class="cls-16"/></g><g id="Artwork_25-2" data-name="Artwork 25"><g id="LWPOLYLINE-2" data-name="LWPOLYLINE"><path d="M58.63 148.21a2.41 2.41 0 1 1-2.4-2.41 2.41 2.41 0 0 1 2.4 2.41M68 148.21a2.41 2.41 0 1 1-2.4-2.41 2.41 2.41 0 0 1 2.4 2.41M50.85 138.81h20.14v5.27H50.85zM50.85 152.32h20.14v5.27H50.85z" class="cls-12"/></g><path d="M50.85 155.69h20.14v1.91H50.85z" class="cls-4"/><path d="M58.63 148.21a2.41 2.41 0 1 1-2.4-2.41 2.41 2.41 0 0 1 2.4 2.41M68 148.21a2.41 2.41 0 1 1-2.4-2.41 2.41 2.41 0 0 1 2.4 2.41" class="cls-13"/><g id="INSERT-3" data-name="INSERT"><path id="CIRCLE-3" d="M439 238.36a2.41 2.41 0 1 1-2.4-2.41 2.41 2.41 0 0 1 2.4 2.41" class="cls-14" data-name="CIRCLE" transform="translate(-371 -90.15)"/></g><g id="INSERT-4" data-name="INSERT"><path id="CIRCLE-4" d="M429.63 238.36a2.41 2.41 0 1 1-2.4-2.41 2.41 2.41 0 0 1 2.4 2.41" class="cls-14" data-name="CIRCLE" transform="translate(-371 -90.15)"/></g><path d="m57.24 149.76-2.02-3.1M54.68 149.22l3.1-2.02M64.53 149.65l2.17-2.89M67.06 149.29l-2.89-2.17" class="cls-15"/></g><g id="Artwork_25-3" data-name="Artwork 25"><g id="LWPOLYLINE-3" data-name="LWPOLYLINE"><path d="M70.67 152.32h20.14v5.27H70.67zM78.45 148.21a2.4 2.4 0 1 1-2.4-2.41 2.4 2.4 0 0 1 2.4 2.41M87.84 148.21a2.4 2.4 0 1 1-2.4-2.41 2.4 2.4 0 0 1 2.4 2.41M70.67 138.81h20.14v5.27H70.67z" class="cls-12"/></g><path d="M70.67 155.69h20.14v1.91H70.67z" class="cls-4"/><path d="M78.45 148.21a2.4 2.4 0 1 1-2.4-2.41 2.4 2.4 0 0 1 2.4 2.41M87.84 148.21a2.4 2.4 0 1 1-2.4-2.41 2.4 2.4 0 0 1 2.4 2.41" class="cls-13"/><g id="INSERT-5" data-name="INSERT"><path id="CIRCLE-5" d="M458.84 238.36a2.4 2.4 0 1 1-2.4-2.41 2.4 2.4 0 0 1 2.4 2.41" class="cls-14" data-name="CIRCLE" transform="translate(-371 -90.15)"/></g><g id="INSERT-6" data-name="INSERT"><path id="CIRCLE-6" d="M449.45 238.36a2.4 2.4 0 1 1-2.4-2.41 2.4 2.4 0 0 1 2.4 2.41" class="cls-14" data-name="CIRCLE" transform="translate(-371 -90.15)"/></g><path d="m77.06 149.76-2.02-3.1M74.5 149.22l3.1-2.02M84.35 149.65l2.17-2.89M86.88 149.29l-2.89-2.17" class="cls-15"/><path d="M92.4 144.53v1.95l-1.59-.34v-1.27z" class="cls-16"/></g><path d="M63.05 118.63v-.65h1.21v.65zM63.05 72.19v-.65h1.21v.65zM63.05 116.79h1.21v.65h-1.21zM63.05 115.6h1.21v.65h-1.21zM63.05 114.41h1.21v.65h-1.21zM63.05 113.22h1.21v.65h-1.21zM63.05 112.03h1.21v.65h-1.21zM63.05 110.83h1.21v.65h-1.21zM63.05 109.64h1.21v.65h-1.21zM63.05 108.45h1.21v.65h-1.21zM63.05 107.26h1.21v.65h-1.21zM63.05 106.07h1.21v.65h-1.21zM63.05 104.88h1.21v.65h-1.21zM63.05 103.69h1.21v.65h-1.21zM63.05 102.5h1.21v.65h-1.21zM63.05 101.31h1.21v.65h-1.21zM63.05 100.12h1.21v.65h-1.21zM63.05 98.93h1.21v.65h-1.21zM63.05 97.74h1.21v.65h-1.21zM63.05 96.55h1.21v.65h-1.21zM63.05 95.35h1.21V96h-1.21zM63.05 94.16h1.21v.65h-1.21zM63.05 92.97h1.21v.65h-1.21zM63.05 91.78h1.21v.65h-1.21zM63.05 90.59h1.21v.65h-1.21zM63.05 89.4h1.21v.65h-1.21zM63.05 88.21h1.21v.65h-1.21zM63.05 87.02h1.21v.65h-1.21zM63.05 85.83h1.21v.65h-1.21zM63.05 84.64h1.21v.65h-1.21zM63.05 83.45h1.21v.65h-1.21zM63.05 82.26h1.21v.65h-1.21zM63.05 81.07h1.21v.65h-1.21zM63.05 79.88h1.21v.65h-1.21zM63.05 78.68h1.21v.65h-1.21zM63.05 77.49h1.21v.65h-1.21zM63.05 76.3h1.21v.65h-1.21zM63.05 75.11h1.21v.65h-1.21zM63.05 73.92h1.21v.65h-1.21zM63.05 72.73h1.21v.65h-1.21zM73.8 71.54v.65h-1.21v-.65zM73.8 117.98v.65h-1.21v-.65zM72.58 72.73h1.21v.65h-1.21zM72.58 73.92h1.21v.65h-1.21zM72.58 75.11h1.21v.65h-1.21zM72.58 76.3h1.21v.65h-1.21zM72.58 77.49h1.21v.65h-1.21zM72.58 78.68h1.21v.65h-1.21zM72.58 79.88h1.21v.65h-1.21zM72.58 81.07h1.21v.65h-1.21zM72.58 82.26h1.21v.65h-1.21zM72.58 83.45h1.21v.65h-1.21zM72.58 84.64h1.21v.65h-1.21zM72.58 85.83h1.21v.65h-1.21zM72.58 87.02h1.21v.65h-1.21zM72.58 88.21h1.21v.65h-1.21zM72.58 89.4h1.21v.65h-1.21zM72.58 90.59h1.21v.65h-1.21zM72.58 91.78h1.21v.65h-1.21zM72.58 92.97h1.21v.65h-1.21zM72.58 94.16h1.21v.65h-1.21zM72.58 95.35h1.21V96h-1.21zM72.58 96.55h1.21v.65h-1.21zM72.58 97.74h1.21v.65h-1.21zM72.58 98.93h1.21v.65h-1.21zM72.58 100.12h1.21v.65h-1.21zM72.58 101.31h1.21v.65h-1.21zM72.58 102.5h1.21v.65h-1.21zM72.58 103.69h1.21v.65h-1.21zM72.58 104.88h1.21v.65h-1.21zM72.58 106.07h1.21v.65h-1.21zM72.58 107.26h1.21v.65h-1.21zM72.58 108.45h1.21v.65h-1.21zM72.58 109.64h1.21v.65h-1.21zM72.58 110.83h1.21v.65h-1.21zM72.58 112.03h1.21v.65h-1.21zM72.58 113.22h1.21v.65h-1.21zM72.58 114.41h1.21v.65h-1.21zM72.58 115.6h1.21v.65h-1.21zM72.58 116.79h1.21v.65h-1.21z" class="cls-17"/><path d="M65.07 69.74h6.7v50.68h-6.7z" class="cls-18"/><path d="M64.26 121.2h8.32V68.97h-8.32Zm7.51-51.46v50.68h-6.7V69.74Z" class="cls-5"/><path d="M64.27 119.24h8.31v.42h-8.31zM64.27 70.51h8.31v.42h-8.31z" class="cls-18"/><path d="M66.92 71.54h-.34a.32.32 0 0 0-.32.32.32.32 0 0 0 .32.33h.34ZM66.92 118.63h-.34a.32.32 0 0 1-.32-.33.32.32 0 0 1 .32-.32h.34ZM66.92 117.44h-.34a.32.32 0 0 1-.32-.33.32.32 0 0 1 .32-.32h.34ZM66.92 116.24h-.34a.32.32 0 0 1-.32-.32.32.32 0 0 1 .32-.33h.34ZM66.92 115.05h-.34a.32.32 0 0 1-.32-.32.32.32 0 0 1 .32-.33h.34ZM66.92 113.85h-.34a.32.32 0 0 1-.32-.32.32.32 0 0 1 .32-.33h.34ZM66.92 112.67h-.34a.32.32 0 0 1-.32-.32.32.32 0 0 1 .32-.33h.34ZM66.92 111.48h-.34a.32.32 0 0 1-.32-.32.32.32 0 0 1 .32-.33h.34ZM66.92 110.29h-.34a.32.32 0 0 1-.32-.32.32.32 0 0 1 .32-.33h.34ZM66.92 109.1h-.34a.32.32 0 0 1-.32-.32.32.32 0 0 1 .32-.33h.34ZM66.92 107.91h-.34a.32.32 0 0 1-.32-.33.32.32 0 0 1 .32-.32h.34ZM66.92 106.72h-.34a.32.32 0 0 1-.32-.33.32.32 0 0 1 .32-.32h.34ZM66.92 105.53h-.34a.32.32 0 0 1-.32-.33.32.32 0 0 1 .32-.32h.34ZM66.92 104.34h-.34a.32.32 0 0 1-.32-.33.32.32 0 0 1 .32-.32h.34ZM66.92 103.15h-.34a.32.32 0 0 1-.32-.33.32.32 0 0 1 .32-.32h.34ZM66.92 101.96h-.34a.32.32 0 0 1-.32-.33.32.32 0 0 1 .32-.32h.34ZM66.92 100.76h-.34a.32.32 0 0 1-.32-.32.32.32 0 0 1 .32-.33h.34ZM66.92 99.57h-.34a.32.32 0 0 1-.32-.32.32.32 0 0 1 .32-.33h.34ZM66.92 98.38h-.34a.32.32 0 0 1-.32-.32.32.32 0 0 1 .32-.33h.34ZM66.92 97.19h-.34a.32.32 0 0 1-.32-.32.32.32 0 0 1 .32-.33h.34ZM66.92 96h-.34a.32.32 0 0 1-.32-.32.32.32 0 0 1 .32-.33h.34ZM66.92 94.85h-.34a.32.32 0 0 1-.32-.32.32.32 0 0 1 .32-.33h.34ZM66.92 93.62h-.34a.32.32 0 0 1-.32-.32.32.32 0 0 1 .32-.33h.34ZM66.92 92.43h-.34a.32.32 0 0 1-.32-.33.32.32 0 0 1 .32-.32h.34ZM66.92 91.24h-.34a.32.32 0 0 1-.32-.33.32.32 0 0 1 .32-.32h.34ZM66.92 90.05h-.34a.32.32 0 0 1-.32-.33.32.32 0 0 1 .32-.32h.34ZM66.92 88.85h-.34a.32.32 0 0 1-.32-.33.32.32 0 0 1 .32-.32h.34ZM66.92 87.67h-.34a.32.32 0 0 1-.32-.33.32.32 0 0 1 .32-.32h.34ZM66.92 86.48h-.34a.32.32 0 0 1-.32-.33.32.32 0 0 1 .32-.32h.34ZM66.92 85.29h-.34a.32.32 0 0 1-.32-.33.32.32 0 0 1 .32-.32h.34ZM66.92 84.09h-.34a.32.32 0 0 1-.32-.32.32.32 0 0 1 .32-.33h.34ZM66.92 82.9h-.34a.32.32 0 0 1-.32-.32.32.32 0 0 1 .32-.33h.34ZM66.92 81.71h-.34a.32.32 0 0 1-.32-.32.32.32 0 0 1 .32-.33h.34ZM66.92 80.52h-.34a.32.32 0 0 1-.32-.32.32.32 0 0 1 .32-.33h.34ZM66.92 79.33h-.34a.32.32 0 0 1-.32-.32.32.32 0 0 1 .32-.33h.34ZM66.92 78.14h-.34a.32.32 0 0 1-.32-.32.32.32 0 0 1 .32-.33h.34ZM66.92 76.95h-.34a.32.32 0 0 1-.32-.32.32.32 0 0 1 .32-.33h.34ZM66.92 75.76h-.34a.32.32 0 0 1-.32-.33.32.32 0 0 1 .32-.32h.34ZM66.92 74.57h-.34a.32.32 0 0 1-.32-.33.32.32 0 0 1 .32-.32h.34ZM66.92 73.38h-.34a.32.32 0 0 1-.32-.33.32.32 0 0 1 .32-.32h.34ZM69.92 118.63h.34a.33.33 0 0 0 .33-.33.32.32 0 0 0-.33-.32h-.34ZM69.92 71.54h.34a.32.32 0 0 1 .33.32.33.33 0 0 1-.33.33h-.34ZM69.92 72.73h.34a.32.32 0 0 1 .33.32.33.33 0 0 1-.33.33h-.34ZM69.92 73.92h.34a.32.32 0 0 1 .33.32.33.33 0 0 1-.33.33h-.34ZM69.92 75.11h.34a.32.32 0 0 1 .33.32.33.33 0 0 1-.33.33h-.34ZM69.92 76.3h.34a.33.33 0 0 1 .33.33.33.33 0 0 1-.33.32h-.34ZM69.92 77.49h.34a.33.33 0 0 1 .33.33.32.32 0 0 1-.33.32h-.34ZM69.92 78.68h.34a.33.33 0 0 1 .33.33.32.32 0 0 1-.33.32h-.34ZM69.92 79.85h.34a.33.33 0 0 1 .33.33.32.32 0 0 1-.33.32h-.34ZM69.92 81.06h.34a.33.33 0 0 1 .33.33.32.32 0 0 1-.33.32h-.34ZM69.92 82.25h.34a.33.33 0 0 1 .33.33.32.32 0 0 1-.33.32h-.34ZM69.92 83.44h.34a.33.33 0 0 1 .33.33.32.32 0 0 1-.33.32h-.34ZM69.92 84.64h.34a.32.32 0 0 1 .33.32.33.33 0 0 1-.33.33h-.34ZM69.92 85.85h.34a.32.32 0 0 1 .33.32.33.33 0 0 1-.33.33h-.34ZM69.92 87.02h.34a.32.32 0 0 1 .33.32.33.33 0 0 1-.33.33h-.34ZM69.92 88.21h.34a.32.32 0 0 1 .33.32.33.33 0 0 1-.33.33h-.34ZM69.92 89.4h.34a.32.32 0 0 1 .33.32.33.33 0 0 1-.33.33h-.34ZM69.92 90.59h.34a.32.32 0 0 1 .33.32.33.33 0 0 1-.33.33h-.34ZM69.92 91.78h.34a.33.33 0 0 1 .33.32.33.33 0 0 1-.33.33h-.34ZM69.92 92.97h.34a.33.33 0 0 1 .33.33.33.33 0 0 1-.33.32h-.34ZM69.92 94.16h.34a.33.33 0 0 1 .33.33.32.32 0 0 1-.33.32h-.34ZM69.92 95.35h.34a.33.33 0 0 1 .33.33.32.32 0 0 1-.33.32h-.34ZM69.92 96.54h.34a.33.33 0 0 1 .33.33.32.32 0 0 1-.33.32h-.34ZM69.92 97.73h.34a.33.33 0 0 1 .33.33.32.32 0 0 1-.33.32h-.34ZM69.92 98.92h.34a.33.33 0 0 1 .33.33.32.32 0 0 1-.33.32h-.34ZM69.92 100.11h.34a.33.33 0 0 1 .33.33.32.32 0 0 1-.33.32h-.34ZM69.92 101.31h.34a.32.32 0 0 1 .33.32.33.33 0 0 1-.33.33h-.34ZM69.92 102.5h.34a.32.32 0 0 1 .33.32.33.33 0 0 1-.33.33h-.34ZM69.92 103.69h.34a.32.32 0 0 1 .33.32.33.33 0 0 1-.33.33h-.34ZM69.92 104.85h.34a.32.32 0 0 1 .33.32.33.33 0 0 1-.33.33h-.34ZM69.92 106.07h.34a.32.32 0 0 1 .33.32.33.33 0 0 1-.33.33h-.34ZM69.92 107.26h.34a.32.32 0 0 1 .33.32.33.33 0 0 1-.33.33h-.34ZM69.92 108.45h.34a.33.33 0 0 1 .33.33.33.33 0 0 1-.33.32h-.34ZM69.92 109.64h.34a.33.33 0 0 1 .33.33.32.32 0 0 1-.33.32h-.34ZM69.92 110.85h.34a.33.33 0 0 1 .33.33.32.32 0 0 1-.33.32h-.34ZM69.92 112.02h.34a.33.33 0 0 1 .33.33.32.32 0 0 1-.33.32h-.34ZM69.92 113.21h.34a.33.33 0 0 1 .33.33.32.32 0 0 1-.33.32h-.34ZM69.92 114.4h.34a.33.33 0 0 1 .33.33.32.32 0 0 1-.33.32h-.34ZM69.92 115.59h.34a.33.33 0 0 1 .33.33.32.32 0 0 1-.33.32h-.34ZM69.92 116.79h.34a.32.32 0 0 1 .33.32.33.33 0 0 1-.33.33h-.34Z" class="cls-4"/><path d="M66.92 119.45V70.72h3v48.73z" class="cls-5"/><rect width=".68" height="4.22" x="68.08" y="103.93" class="cls-18" rx=".34"/><rect width=".68" height="4.22" x="68.08" y="82.02" class="cls-18" rx=".34"/><path d="M186.98 118.63v-.65h1.21v.65zM186.98 72.19v-.65h1.21v.65zM186.98 116.79h1.21v.65h-1.21zM186.98 115.6h1.21v.65h-1.21zM186.98 114.41h1.21v.65h-1.21zM186.98 113.22h1.21v.65h-1.21zM186.98 112.03h1.21v.65h-1.21zM186.98 110.83h1.21v.65h-1.21zM186.98 109.64h1.21v.65h-1.21zM186.98 108.45h1.21v.65h-1.21zM186.98 107.26h1.21v.65h-1.21zM186.98 106.07h1.21v.65h-1.21zM186.98 104.88h1.21v.65h-1.21zM186.98 103.69h1.21v.65h-1.21zM186.98 102.5h1.21v.65h-1.21zM186.98 101.31h1.21v.65h-1.21zM186.98 100.12h1.21v.65h-1.21zM186.98 98.93h1.21v.65h-1.21zM186.98 97.74h1.21v.65h-1.21zM186.98 96.55h1.21v.65h-1.21zM186.98 95.35h1.21V96h-1.21zM186.98 94.16h1.21v.65h-1.21zM186.98 92.97h1.21v.65h-1.21zM186.98 91.78h1.21v.65h-1.21zM186.98 90.59h1.21v.65h-1.21zM186.98 89.4h1.21v.65h-1.21zM186.98 88.21h1.21v.65h-1.21zM186.98 87.02h1.21v.65h-1.21zM186.98 85.83h1.21v.65h-1.21zM186.98 84.64h1.21v.65h-1.21zM186.98 83.45h1.21v.65h-1.21zM186.98 82.26h1.21v.65h-1.21zM186.98 81.07h1.21v.65h-1.21zM186.98 79.88h1.21v.65h-1.21zM186.98 78.68h1.21v.65h-1.21zM186.98 77.49h1.21v.65h-1.21zM186.98 76.3h1.21v.65h-1.21zM186.98 75.11h1.21v.65h-1.21zM186.98 73.92h1.21v.65h-1.21zM186.98 72.73h1.21v.65h-1.21zM197.73 71.54v.65h-1.21v-.65zM197.73 117.98v.65h-1.21v-.65zM196.51 72.73h1.21v.65h-1.21zM196.51 73.92h1.21v.65h-1.21zM196.51 75.11h1.21v.65h-1.21zM196.51 76.3h1.21v.65h-1.21zM196.51 77.49h1.21v.65h-1.21zM196.51 78.68h1.21v.65h-1.21zM196.51 79.88h1.21v.65h-1.21zM196.51 81.07h1.21v.65h-1.21zM196.51 82.26h1.21v.65h-1.21zM196.51 83.45h1.21v.65h-1.21zM196.51 84.64h1.21v.65h-1.21zM196.51 85.83h1.21v.65h-1.21zM196.51 87.02h1.21v.65h-1.21zM196.51 88.21h1.21v.65h-1.21zM196.51 89.4h1.21v.65h-1.21zM196.51 90.59h1.21v.65h-1.21zM196.51 91.78h1.21v.65h-1.21zM196.51 92.97h1.21v.65h-1.21zM196.51 94.16h1.21v.65h-1.21zM196.51 95.35h1.21V96h-1.21zM196.51 96.55h1.21v.65h-1.21zM196.51 97.74h1.21v.65h-1.21zM196.51 98.93h1.21v.65h-1.21zM196.51 100.12h1.21v.65h-1.21zM196.51 101.31h1.21v.65h-1.21zM196.51 102.5h1.21v.65h-1.21zM196.51 103.69h1.21v.65h-1.21zM196.51 104.88h1.21v.65h-1.21zM196.51 106.07h1.21v.65h-1.21zM196.51 107.26h1.21v.65h-1.21zM196.51 108.45h1.21v.65h-1.21zM196.51 109.64h1.21v.65h-1.21zM196.51 110.83h1.21v.65h-1.21zM196.51 112.03h1.21v.65h-1.21zM196.51 113.22h1.21v.65h-1.21zM196.51 114.41h1.21v.65h-1.21zM196.51 115.6h1.21v.65h-1.21zM196.51 116.79h1.21v.65h-1.21z" class="cls-17"/><path d="M189 69.74h6.7v50.68H189z" class="cls-18"/><path d="M188.19 121.2h8.32V68.97h-8.32Zm7.51-51.46v50.68H189V69.74Z" class="cls-5"/><path d="M188.2 119.24h8.31v.42h-8.31zM188.2 70.51h8.31v.42h-8.31z" class="cls-18"/><path d="M190.85 71.54h-.34a.32.32 0 0 0-.32.32.32.32 0 0 0 .32.33h.34ZM190.85 118.63h-.34a.32.32 0 0 1-.32-.33.32.32 0 0 1 .32-.32h.34ZM190.85 117.44h-.34a.32.32 0 0 1-.32-.33.32.32 0 0 1 .32-.32h.34ZM190.85 116.24h-.34a.32.32 0 0 1-.32-.32.32.32 0 0 1 .32-.33h.34ZM190.85 115.05h-.34a.32.32 0 0 1-.32-.32.32.32 0 0 1 .32-.33h.34ZM190.85 113.85h-.34a.32.32 0 0 1-.32-.32.32.32 0 0 1 .32-.33h.34ZM190.85 112.67h-.34a.32.32 0 0 1-.32-.32.32.32 0 0 1 .32-.33h.34ZM190.85 111.48h-.34a.32.32 0 0 1-.32-.32.32.32 0 0 1 .32-.33h.34ZM190.85 110.29h-.34a.32.32 0 0 1-.32-.32.32.32 0 0 1 .32-.33h.34ZM190.85 109.1h-.34a.32.32 0 0 1-.32-.32.32.32 0 0 1 .32-.33h.34ZM190.85 107.91h-.34a.32.32 0 0 1-.32-.33.32.32 0 0 1 .32-.32h.34ZM190.85 106.72h-.34a.32.32 0 0 1-.32-.33.32.32 0 0 1 .32-.32h.34ZM190.85 105.53h-.34a.32.32 0 0 1-.32-.33.32.32 0 0 1 .32-.32h.34ZM190.85 104.34h-.34a.32.32 0 0 1-.32-.33.32.32 0 0 1 .32-.32h.34ZM190.85 103.15h-.34a.32.32 0 0 1-.32-.33.32.32 0 0 1 .32-.32h.34ZM190.85 101.96h-.34a.32.32 0 0 1-.32-.33.32.32 0 0 1 .32-.32h.34ZM190.85 100.76h-.34a.32.32 0 0 1-.32-.32.32.32 0 0 1 .32-.33h.34ZM190.85 99.57h-.34a.32.32 0 0 1-.32-.32.32.32 0 0 1 .32-.33h.34ZM190.85 98.38h-.34a.32.32 0 0 1-.32-.32.32.32 0 0 1 .32-.33h.34ZM190.85 97.19h-.34a.32.32 0 0 1-.32-.32.32.32 0 0 1 .32-.33h.34ZM190.85 96h-.34a.32.32 0 0 1-.32-.32.32.32 0 0 1 .32-.33h.34ZM190.85 94.85h-.34a.32.32 0 0 1-.32-.32.32.32 0 0 1 .32-.33h.34ZM190.85 93.62h-.34a.32.32 0 0 1-.32-.32.32.32 0 0 1 .32-.33h.34ZM190.85 92.43h-.34a.32.32 0 0 1-.32-.33.32.32 0 0 1 .32-.32h.34ZM190.85 91.24h-.34a.32.32 0 0 1-.32-.33.32.32 0 0 1 .32-.32h.34ZM190.85 90.05h-.34a.32.32 0 0 1-.32-.33.32.32 0 0 1 .32-.32h.34ZM190.85 88.85h-.34a.32.32 0 0 1-.32-.33.32.32 0 0 1 .32-.32h.34ZM190.85 87.67h-.34a.32.32 0 0 1-.32-.33.32.32 0 0 1 .32-.32h.34ZM190.85 86.48h-.34a.32.32 0 0 1-.32-.33.32.32 0 0 1 .32-.32h.34ZM190.85 85.29h-.34a.32.32 0 0 1-.32-.33.32.32 0 0 1 .32-.32h.34ZM190.85 84.09h-.34a.32.32 0 0 1-.32-.32.32.32 0 0 1 .32-.33h.34ZM190.85 82.9h-.34a.32.32 0 0 1-.32-.32.32.32 0 0 1 .32-.33h.34ZM190.85 81.71h-.34a.32.32 0 0 1-.32-.32.32.32 0 0 1 .32-.33h.34ZM190.85 80.52h-.34a.32.32 0 0 1-.32-.32.32.32 0 0 1 .32-.33h.34ZM190.85 79.33h-.34a.32.32 0 0 1-.32-.32.32.32 0 0 1 .32-.33h.34ZM190.85 78.14h-.34a.32.32 0 0 1-.32-.32.32.32 0 0 1 .32-.33h.34ZM190.85 76.95h-.34a.32.32 0 0 1-.32-.32.32.32 0 0 1 .32-.33h.34ZM190.85 75.76h-.34a.32.32 0 0 1-.32-.33.32.32 0 0 1 .32-.32h.34ZM190.85 74.57h-.34a.32.32 0 0 1-.32-.33.32.32 0 0 1 .32-.32h.34ZM190.85 73.38h-.34a.32.32 0 0 1-.32-.33.32.32 0 0 1 .32-.32h.34ZM193.85 118.63h.34a.33.33 0 0 0 .33-.33.32.32 0 0 0-.33-.32h-.34ZM193.85 71.54h.34a.32.32 0 0 1 .33.32.33.33 0 0 1-.33.33h-.34ZM193.85 72.73h.34a.32.32 0 0 1 .33.32.33.33 0 0 1-.33.33h-.34ZM193.85 73.92h.34a.32.32 0 0 1 .33.32.33.33 0 0 1-.33.33h-.34ZM193.85 75.11h.34a.32.32 0 0 1 .33.32.33.33 0 0 1-.33.33h-.34ZM193.85 76.3h.34a.33.33 0 0 1 .33.33.33.33 0 0 1-.33.32h-.34ZM193.85 77.49h.34a.33.33 0 0 1 .33.33.32.32 0 0 1-.33.32h-.34ZM193.85 78.68h.34a.33.33 0 0 1 .33.33.32.32 0 0 1-.33.32h-.34ZM193.85 79.85h.34a.33.33 0 0 1 .33.33.32.32 0 0 1-.33.32h-.34ZM193.85 81.06h.34a.33.33 0 0 1 .33.33.32.32 0 0 1-.33.32h-.34ZM193.85 82.25h.34a.33.33 0 0 1 .33.33.32.32 0 0 1-.33.32h-.34ZM193.85 83.44h.34a.33.33 0 0 1 .33.33.32.32 0 0 1-.33.32h-.34ZM193.85 84.64h.34a.32.32 0 0 1 .33.32.33.33 0 0 1-.33.33h-.34ZM193.85 85.85h.34a.32.32 0 0 1 .33.32.33.33 0 0 1-.33.33h-.34ZM193.85 87.02h.34a.32.32 0 0 1 .33.32.33.33 0 0 1-.33.33h-.34ZM193.85 88.21h.34a.32.32 0 0 1 .33.32.33.33 0 0 1-.33.33h-.34ZM193.85 89.4h.34a.32.32 0 0 1 .33.32.33.33 0 0 1-.33.33h-.34ZM193.85 90.59h.34a.32.32 0 0 1 .33.32.33.33 0 0 1-.33.33h-.34ZM193.85 91.78h.34a.33.33 0 0 1 .33.32.33.33 0 0 1-.33.33h-.34ZM193.85 92.97h.34a.33.33 0 0 1 .33.33.33.33 0 0 1-.33.32h-.34ZM193.85 94.16h.34a.33.33 0 0 1 .33.33.32.32 0 0 1-.33.32h-.34ZM193.85 95.35h.34a.33.33 0 0 1 .33.33.32.32 0 0 1-.33.32h-.34ZM193.85 96.54h.34a.33.33 0 0 1 .33.33.32.32 0 0 1-.33.32h-.34ZM193.85 97.73h.34a.33.33 0 0 1 .33.33.32.32 0 0 1-.33.32h-.34ZM193.85 98.92h.34a.33.33 0 0 1 .33.33.32.32 0 0 1-.33.32h-.34ZM193.85 100.11h.34a.33.33 0 0 1 .33.33.32.32 0 0 1-.33.32h-.34ZM193.85 101.31h.34a.32.32 0 0 1 .33.32.33.33 0 0 1-.33.33h-.34ZM193.85 102.5h.34a.32.32 0 0 1 .33.32.33.33 0 0 1-.33.33h-.34ZM193.85 103.69h.34a.32.32 0 0 1 .33.32.33.33 0 0 1-.33.33h-.34ZM193.85 104.85h.34a.32.32 0 0 1 .33.32.33.33 0 0 1-.33.33h-.34ZM193.85 106.07h.34a.32.32 0 0 1 .33.32.33.33 0 0 1-.33.33h-.34ZM193.85 107.26h.34a.32.32 0 0 1 .33.32.33.33 0 0 1-.33.33h-.34ZM193.85 108.45h.34a.33.33 0 0 1 .33.33.33.33 0 0 1-.33.32h-.34ZM193.85 109.64h.34a.33.33 0 0 1 .33.33.32.32 0 0 1-.33.32h-.34ZM193.85 110.85h.34a.33.33 0 0 1 .33.33.32.32 0 0 1-.33.32h-.34ZM193.85 112.02h.34a.33.33 0 0 1 .33.33.32.32 0 0 1-.33.32h-.34ZM193.85 113.21h.34a.33.33 0 0 1 .33.33.32.32 0 0 1-.33.32h-.34ZM193.85 114.4h.34a.33.33 0 0 1 .33.33.32.32 0 0 1-.33.32h-.34ZM193.85 115.59h.34a.33.33 0 0 1 .33.33.32.32 0 0 1-.33.32h-.34ZM193.85 116.79h.34a.32.32 0 0 1 .33.32.33.33 0 0 1-.33.33h-.34Z" class="cls-4"/><path d="M190.85 119.45V70.72h3v48.73z" class="cls-5"/><rect width=".68" height="4.22" x="192.01" y="103.93" class="cls-18" rx=".34"/><rect width=".68" height="4.22" x="192.01" y="82.02" class="cls-18" rx=".34"/></svg>