<svg xmlns="http://www.w3.org/2000/svg" width="72" height="17" fill="none" viewBox="0 0 72 17"><path stroke="#95a5a6" stroke-linecap="round" stroke-miterlimit="10" stroke-width="5" d="M69.01 8.02 3 8.23"/><path fill="#e8d4ac" d="M45.8 15.5c.81.37 2.2.66 3.09.66l4.84-.01c1.62 0 3.22-1.62 3.22-3.24l-.03-9.69C56.92 1.61 55.3 0 53.68 0l-4.84.01c-.89 0-2.27.31-3.08.68l-.17.08c-.81.37-2.19.68-3.08.68l-13.17.04c-.89 0-2.27-.29-3.09-.66l-.17-.08c-.81-.37-2.2-.66-3.09-.66L18.15.1c-1.62 0-3.22 1.63-3.22 3.24l.03 9.69c0 1.62 1.62 3.22 3.24 3.22l4.84-.01c.89 0 2.28-.31 3.08-.68l.17-.08c.81-.37 2.2-.67 3.08-.68l13.17-.04c.89 0 2.28.29 3.09.66z"/><path fill="#8a3d06" d="M48.59 16.15c-.55 0-1.32-.19-1.32-.19L47.22.23s.79-.18 1.15-.19c.36 0 3.7-.03 3.7-.03l.05 16.15c-.01-.01-2.98-.01-3.53-.01"/><path fill="#000" d="M42.52 14.77c-.67 0-3.34.01-3.34.01l-.04-13.32s2.86-.01 3.37-.01 1.48-.18 1.48-.18l.04 13.68c.01 0-.83-.18-1.51-.18"/><path fill="#ff4d00" d="m35.911 1.465-4.84.015.041 13.32 4.84-.015z"/><path fill="#bea95d" d="m21.907.1-1.86.005.05 16.15 1.86-.005z"/></svg>