<?xml version="1.0" encoding="utf-8"?>
<!-- Generator: Adobe Illustrator 17.1.0, SVG Export Plug-In . SVG Version: 6.00 Build 0)  -->
<!DOCTYPE svg PUBLIC "-//W3C//DTD SVG 1.1//EN" "http://www.w3.org/Graphics/SVG/1.1/DTD/svg11.dtd">
<svg version="1.1" id="Layer_1" xmlns="http://www.w3.org/2000/svg" xmlns:xlink="http://www.w3.org/1999/xlink" x="0px" y="0px"
	 width="166.7px" height="171.014px" viewBox="0 0 166.7 171.014" enable-background="new 0 0 166.7 171.014" xml:space="preserve">
<g>
	<path fill="#00979D" stroke="#81C9CB" stroke-width="0.9317" stroke-miterlimit="10" d="M164.203,85.47
		c0,44.655-36.201,80.854-80.846,80.854c-44.66,0-80.859-36.199-80.859-80.854c0-44.645,36.199-80.846,80.859-80.846
		C128.004,4.624,164.203,40.825,164.203,85.47z"/>
	
		<linearGradient id="SVGID_1_" gradientUnits="userSpaceOnUse" x1="2.4978" y1="85.271" x2="164.2026" y2="85.271" gradientTransform="matrix(1 0 0 -1 0 170.8116)">
		<stop  offset="0.1166" style="stop-color:#FFFFFF;stop-opacity:0"/>
		<stop  offset="0.2517" style="stop-color:#C0D1D3;stop-opacity:0.153"/>
		<stop  offset="0.3869" style="stop-color:#91B3B7;stop-opacity:0.306"/>
		<stop  offset="0.5205" style="stop-color:#6D9FA3;stop-opacity:0.4572"/>
		<stop  offset="0.6505" style="stop-color:#4D9195;stop-opacity:0.6044"/>
		<stop  offset="0.7759" style="stop-color:#30888B;stop-opacity:0.7463"/>
		<stop  offset="0.8947" style="stop-color:#148386;stop-opacity:0.8808"/>
		<stop  offset="1" style="stop-color:#008184"/>
	</linearGradient>
	
		<linearGradient id="SVGID_2_" gradientUnits="userSpaceOnUse" x1="1.9978" y1="85.271" x2="164.7026" y2="85.271" gradientTransform="matrix(1 0 0 -1 0 170.8116)">
		<stop  offset="0" style="stop-color:#FFFFFF;stop-opacity:0"/>
		<stop  offset="0.153" style="stop-color:#C0D1D3;stop-opacity:0.153"/>
		<stop  offset="0.306" style="stop-color:#91B3B7;stop-opacity:0.306"/>
		<stop  offset="0.4572" style="stop-color:#6D9FA3;stop-opacity:0.4572"/>
		<stop  offset="0.6044" style="stop-color:#4D9195;stop-opacity:0.6044"/>
		<stop  offset="0.7463" style="stop-color:#30888B;stop-opacity:0.7463"/>
		<stop  offset="0.8808" style="stop-color:#148386;stop-opacity:0.8808"/>
		<stop  offset="1" style="stop-color:#008184"/>
	</linearGradient>
	<path opacity="0.5" fill="url(#SVGID_1_)" stroke="url(#SVGID_2_)" stroke-miterlimit="10" enable-background="new    " d="
		M164.203,85.537c0,44.655-36.201,80.854-80.846,80.854c-44.66,0-80.859-36.201-80.859-80.854c0-44.645,36.199-80.846,80.859-80.846
		C128.004,4.693,164.203,40.892,164.203,85.537z"/>
	<g>
		<path fill="#FFFFFF" d="M114.232,114.383c-1.523,0-3.081-0.109-4.615-0.338c-12.851-1.834-21.444-11.064-26.258-18.16
			c-4.829,7.096-13.422,16.335-26.268,18.167c-1.528,0.22-3.084,0.328-4.615,0.328c-7.99,0-15.491-2.973-21.133-8.373
			c-5.696-5.444-8.839-12.75-8.839-20.54c0-7.8,3.143-15.096,8.847-20.55c5.637-5.4,13.143-8.365,21.137-8.365
			c1.523,0,3.074,0.109,4.602,0.328c12.846,1.832,21.439,11.064,26.268,18.16c4.815-7.096,13.407-16.325,26.258-18.16
			c1.533-0.22,3.084-0.328,4.607-0.328c7.99,0,15.496,2.973,21.133,8.365c5.701,5.454,8.837,12.75,8.837,20.55
			c0,7.79-3.128,15.096-8.829,20.54C129.717,111.407,122.222,114.383,114.232,114.383 M89.05,85.47
			c2.509,4.78,9.913,16.708,22.016,18.441c1.059,0.146,2.126,0.227,3.165,0.227c10.871,0,19.72-8.373,19.72-18.671
			s-8.847-18.671-19.728-18.671c-1.039,0-2.106,0.074-3.155,0.227C98.963,68.752,91.559,80.68,89.05,85.47 M52.488,66.799
			c-10.886,0-19.737,8.373-19.737,18.671c0,10.296,8.847,18.671,19.723,18.671c1.044,0,2.111-0.081,3.17-0.227
			c12.103-1.733,19.505-13.654,22.016-18.441c-2.504-4.78-9.913-16.718-22.016-18.441C54.597,66.873,53.528,66.799,52.488,66.799"/>
		<rect x="44.23" y="82.643" fill="#FFFFFF" width="17.999" height="5.8"/>
		<polygon fill="#FFFFFF" points="122.313,82.643 116.219,82.643 116.219,76.54 110.4,76.54 110.4,82.643 104.309,82.643 
			104.309,88.443 110.4,88.443 110.4,94.544 116.219,94.544 116.219,88.443 122.313,88.443 		"/>
	</g>
</g>
</svg>
