<?xml version="1.0" encoding="utf-8"?>
<!-- Generator: Adobe Illustrator 19.2.1, SVG Export Plug-In . SVG Version: 6.00 Build 0)  -->
<svg version="1.1" id="Layer_1" xmlns="http://www.w3.org/2000/svg" xmlns:xlink="http://www.w3.org/1999/xlink" x="0px" y="0px"
	 width="143px" height="140px" viewBox="0 0 143 140" enable-background="new 0 0 143 140" xml:space="preserve">
<g id="createlogo" opacity="0.6">
</g>
<g id="createlogo_1_">
</g>
<g>
	<path fill="#04979C" d="M133.431,41.271c0-16.185-13.652-29.352-30.432-29.352c-1.549,0-3.124,0.106-4.682,0.331
		c-13.04,1.86-21.766,11.24-26.65,18.433C66.766,23.49,58.04,14.11,45.004,12.25c-1.558-0.226-3.137-0.331-4.682-0.331
		c-16.789,0-30.437,13.167-30.437,29.352c0,16.187,13.648,29.346,30.424,29.346c1.558,0,3.137-0.097,4.694-0.321
		c13.036-1.87,21.762-11.254,26.663-18.454c4.884,7.2,13.61,16.584,26.65,18.454c1.558,0.224,3.132,0.321,4.694,0.321
		C119.788,70.616,133.431,57.458,133.431,41.271 M43.527,59.989c-1.064,0.154-2.149,0.234-3.217,0.234
		c-11.035,0-20.018-8.51-20.018-18.952c0-10.448,8.983-18.959,20.031-18.959c1.06,0,2.14,0.087,3.208,0.232
		c12.284,1.754,19.807,13.87,22.357,18.72C63.334,46.128,55.816,58.237,43.527,59.989 M77.438,41.271
		c2.55-4.857,10.068-16.972,22.353-18.726c1.064-0.146,2.153-0.232,3.208-0.232c11.043,0,20.027,8.51,20.027,18.959
		c0,10.442-8.983,18.952-20.014,18.952c-1.064,0-2.149-0.08-3.221-0.234C87.506,58.237,79.979,46.117,77.438,41.271"/>
	<rect x="31.935" y="38.402" fill="#04979C" width="18.275" height="5.889"/>
	<polygon fill="#04979C" points="105.025,44.291 111.201,44.291 111.201,38.402 105.025,38.402 105.025,32.205 99.119,32.205 
		99.119,38.402 92.935,38.402 92.935,44.291 99.119,44.291 99.119,50.489 105.025,50.489 	"/>
	<path fill="#04979C" d="M18.532,79.346l-5.336,17h4.306l0.87-3.479h4.888l0.941,3.479h4.47l-5.412-17H18.532z M19.177,89.602
		l1.545-6.227l1.676,6.227H19.177z"/>
	<path fill="#04979C" d="M44.696,85.024c0-3.267-1.773-5.678-6.48-5.678h-6.851v17h4.209v-5.387h2.119l2.554,5.387h4.973
		l-3.318-6.225C43.755,89.127,44.696,87.359,44.696,85.024 M37.803,87.585h-2.229v-4.798h2.145c1.963,0,2.499,0.754,2.499,2.261
		C40.217,86.937,39.259,87.585,37.803,87.585"/>
	<path fill="#04979C" d="M53.667,79.346h-5.568v17h5.593c7.214,0,8.439-4.635,8.439-8.654C62.131,82.354,60.02,79.346,53.667,79.346
		 M53.899,92.868h-1.592V82.785h1.228c3.761,0,4.103,1.771,4.103,5.093C57.639,90.751,57.382,92.868,53.899,92.868"/>
	<path fill="#04979C" d="M74.588,89.729c0,2.59-0.709,3.447-2.622,3.447c-1.591,0-2.592-0.65-2.592-3.47V79.347h-4.205v11.145
		c0,5.146,3.715,6.117,6.619,6.117c3.006,0,6.847-1.068,6.847-6.092v-11.17h-4.048L74.588,89.729L74.588,89.729z"/>
	<polygon fill="#04979C" points="82.398,82.825 86.793,82.825 86.793,92.868 82.398,92.868 82.398,96.346 95.425,96.346 
		95.425,92.868 91.001,92.868 91.001,82.825 95.425,82.825 95.425,79.346 82.398,79.346 	"/>
	<polygon fill="#04979C" points="108.993,89.552 103.484,79.346 98.895,79.346 98.895,96.346 102.881,96.346 102.851,85.468 
		108.656,96.346 112.915,96.346 112.915,79.346 108.993,79.346 	"/>
	<path fill="#04979C" d="M122.831,79.125c-5.154,0-7.113,3.782-7.113,8.909c0,5.623,2.25,8.574,7.134,8.574
		c5.467,0,7.265-3.839,7.265-8.757C130.117,81.362,127.669,79.125,122.831,79.125 M122.852,93.176c-2.427,0-2.668-1.718-2.668-5.142
		c0-4.154,0.397-5.492,2.647-5.492c2.482,0,2.82,1.157,2.82,5.309C125.651,91.77,125.313,93.176,122.852,93.176"/>
	<g>
		<path fill="#04979C" d="M133.351,13.698c-0.173-0.401-0.401-0.745-0.697-1.036c-0.287-0.291-0.629-0.521-1.017-0.696
			c-0.393-0.171-0.815-0.258-1.267-0.258c-0.456,0-0.878,0.087-1.266,0.258c-0.393,0.175-0.735,0.405-1.022,0.696
			c-0.291,0.291-0.523,0.635-0.697,1.036c-0.173,0.397-0.258,0.834-0.258,1.307c0,0.454,0.084,0.884,0.258,1.292
			c0.173,0.409,0.405,0.758,0.697,1.047c0.287,0.293,0.629,0.526,1.022,0.699c0.388,0.173,0.811,0.257,1.266,0.257
			c0.452,0,0.874-0.084,1.267-0.257c0.388-0.173,0.73-0.405,1.017-0.699c0.295-0.289,0.523-0.637,0.697-1.047
			c0.169-0.407,0.257-0.838,0.257-1.292C133.609,14.532,133.52,14.095,133.351,13.698z M132.638,16.003
			c-0.127,0.308-0.308,0.576-0.536,0.806c-0.232,0.232-0.494,0.418-0.785,0.553c-0.291,0.137-0.608,0.205-0.946,0.205
			c-0.342,0-0.663-0.068-0.962-0.205c-0.3-0.135-0.561-0.321-0.785-0.553c-0.22-0.23-0.393-0.498-0.523-0.806
			c-0.127-0.308-0.19-0.642-0.19-0.998c0-0.359,0.063-0.697,0.19-1.013c0.131-0.317,0.304-0.589,0.523-0.819
			c0.224-0.23,0.485-0.412,0.785-0.538c0.3-0.129,0.621-0.194,0.962-0.194c0.338,0,0.654,0.065,0.946,0.194
			c0.291,0.127,0.553,0.308,0.785,0.538c0.228,0.23,0.409,0.502,0.536,0.819s0.19,0.654,0.19,1.013
			C132.828,15.362,132.764,15.695,132.638,16.003z"/>
		<path fill="#04979C" d="M131.076,15.324c0.186-0.093,0.325-0.22,0.426-0.382c0.097-0.163,0.148-0.348,0.148-0.545
			c0-0.308-0.11-0.578-0.329-0.804c-0.215-0.226-0.587-0.342-1.114-0.342c-0.198,0-0.376,0.004-0.532,0.015
			c-0.156,0.011-0.304,0.023-0.447,0.042v3.24h0.815v-1.062h0.329l0.57,1.062h0.929L131.076,15.324z M130.261,14.885
			c-0.11,0-0.194-0.006-0.245-0.025v-0.872c0.051-0.017,0.144-0.027,0.27-0.027c0.346,0,0.519,0.152,0.519,0.462
			C130.806,14.733,130.624,14.885,130.261,14.885z"/>
	</g>
</g>
<rect x="12.856" y="107.724" fill="#E75300" width="117.356" height="20.568"/>
<g>
	<path fill="#FFFFFF" d="M27.478,122.568l1.348-10.256h0.857l-1.697,11.376h-0.91l-2.346-7.264l-2.1,7.264h-0.928l-2.03-11.376h0.91
		l1.646,10.291l2.047-7.036h0.963L27.478,122.568z"/>
	<path fill="#FFFFFF" d="M39.063,112.312v0.84h-6.615v4.271h5.985v0.822h-5.985v4.604h6.615v0.84h-7.508v-11.376H39.063z"/>
	<path fill="#FFFFFF" d="M45.853,123.688h-3.815v-11.376h3.623c2.327,0,3.308,0.962,3.308,2.853c0,1.05-0.578,1.995-1.681,2.433
		v0.035c1.943,0.367,2.503,1.646,2.503,2.905C49.79,122.515,48.653,123.688,45.853,123.688z M45.608,113.152H42.93v4.253h2.59
		c1.4,0,2.503-0.875,2.503-2.223C48.023,113.799,47.287,113.152,45.608,113.152z M42.93,118.193v4.655h2.94
		c2.1,0,2.975-0.665,2.975-2.293s-1.12-2.362-3.133-2.362H42.93z"/>
	<path fill="#FFFFFF" d="M70.563,112.312v0.84h-6.615v4.271h5.985v0.822h-5.985v4.604h6.615v0.84h-7.508v-11.376H70.563z"/>
	<path fill="#FFFFFF" d="M73.204,112.312h3.815c3.903,0,4.953,2.87,4.953,5.618c0,3.22-0.997,5.758-5.093,5.758h-3.676V112.312z
		 M74.097,113.152v9.696h2.94c3.466,0,3.99-2.205,3.99-4.849c0-2.345-0.84-4.848-3.99-4.848H74.097z"/>
	<path fill="#FFFFFF" d="M83.985,122.848h3.238v-9.696h-3.238v-0.84h7.525v0.84h-3.395v9.696h3.395v0.84h-7.525V122.848z"/>
	<path fill="#FFFFFF" d="M102.763,113.152h-4.13v10.536h-0.893v-10.536h-4.148v-0.84h9.171V113.152z"/>
	<path fill="#FFFFFF" d="M113.403,118.017c0,3.413-1.768,5.846-4.795,5.846c-3.378,0-4.673-2.327-4.673-5.863
		c0-3.553,1.593-5.846,4.795-5.846C112.09,112.154,113.403,114.412,113.403,118.017z M112.458,118.017
		c0-3.045-0.893-5.04-3.729-5.04c-2.87,0-3.85,1.838-3.85,5.022c0,3.115,0.822,5.041,3.728,5.041
		C111.39,123.04,112.458,120.853,112.458,118.017z"/>
	<path fill="#FFFFFF" d="M115.555,112.312h3.325c2.782,0,3.851,1.05,3.851,3.36c0,1.61-0.91,2.678-2.223,3.098l2.888,4.918h-1.068
		l-2.747-4.726h-3.133v4.726h-0.893V112.312z M121.785,115.742c0-1.925-0.875-2.59-2.835-2.59h-2.503v4.988h2.59
		C120.56,118.14,121.785,117.597,121.785,115.742z"/>
</g>
</svg>
