<svg xmlns="http://www.w3.org/2000/svg" xml:space="preserve" width="143" height="140" viewBox="0 0 143 140"><g fill="#04979c"><path d="M133.431 41.271c0-16.185-13.652-29.352-30.432-29.352-1.549 0-3.124.106-4.682.331-13.04 1.86-21.766 11.24-26.65 18.433C66.766 23.49 58.04 14.11 45.004 12.25a33 33 0 0 0-4.682-.331c-16.789 0-30.437 13.167-30.437 29.352 0 16.187 13.648 29.346 30.424 29.346a33 33 0 0 0 4.694-.321c13.036-1.87 21.762-11.254 26.663-18.454 4.884 7.2 13.61 16.584 26.65 18.454a33 33 0 0 0 4.694.321c16.778-.001 30.421-13.159 30.421-29.346M43.527 59.989a22.6 22.6 0 0 1-3.217.234c-11.035 0-20.018-8.51-20.018-18.952 0-10.448 8.983-18.959 20.031-18.959 1.06 0 2.14.087 3.208.232 12.284 1.754 19.807 13.87 22.357 18.72-2.554 4.864-10.072 16.973-22.361 18.725m33.911-18.718c2.55-4.857 10.068-16.972 22.353-18.726a24 24 0 0 1 3.208-.232c11.043 0 20.027 8.51 20.027 18.959 0 10.442-8.983 18.952-20.014 18.952-1.064 0-2.149-.08-3.221-.234-12.285-1.753-19.812-13.873-22.353-18.719"/><path d="M31.935 38.402H50.21v5.889H31.935zM105.025 44.291h6.176v-5.889h-6.176v-6.197h-5.906v6.197h-6.184v5.889h6.184v6.198h5.906zM18.532 79.346l-5.336 17h4.306l.87-3.479h4.888l.941 3.479h4.47l-5.412-17zm.645 10.256 1.545-6.227 1.676 6.227zM44.696 85.024c0-3.267-1.773-5.678-6.48-5.678h-6.851v17h4.209v-5.387h2.119l2.554 5.387h4.973l-3.318-6.225c1.853-.994 2.794-2.762 2.794-5.097m-6.893 2.561h-2.229v-4.798h2.145c1.963 0 2.499.754 2.499 2.261-.001 1.889-.959 2.537-2.415 2.537M53.667 79.346h-5.568v17h5.593c7.214 0 8.439-4.635 8.439-8.654 0-5.338-2.111-8.346-8.464-8.346m.232 13.522h-1.592V82.785h1.228c3.761 0 4.103 1.771 4.103 5.093.001 2.873-.256 4.99-3.739 4.99M74.588 89.729c0 2.59-.709 3.447-2.622 3.447-1.591 0-2.592-.65-2.592-3.47V79.347h-4.205v11.145c0 5.146 3.715 6.117 6.619 6.117 3.006 0 6.847-1.068 6.847-6.092v-11.17h-4.048zM82.398 82.825h4.395v10.043h-4.395v3.478h13.027v-3.478h-4.424V82.825h4.424v-3.479H82.398zM108.993 89.552l-5.509-10.206h-4.589v17h3.986l-.03-10.878 5.805 10.878h4.259v-17h-3.922zM122.831 79.125c-5.154 0-7.113 3.782-7.113 8.909 0 5.623 2.25 8.574 7.134 8.574 5.467 0 7.265-3.839 7.265-8.757 0-6.489-2.448-8.726-7.286-8.726m.021 14.051c-2.427 0-2.668-1.718-2.668-5.142 0-4.154.397-5.492 2.647-5.492 2.482 0 2.82 1.157 2.82 5.309 0 3.919-.338 5.325-2.799 5.325M133.351 13.698a3.2 3.2 0 0 0-.697-1.036 3.3 3.3 0 0 0-1.017-.696 3.1 3.1 0 0 0-1.267-.258q-.684 0-1.266.258a3.3 3.3 0 0 0-1.022.696 3.3 3.3 0 0 0-.697 1.036 3.2 3.2 0 0 0-.258 1.307q-.001.68.258 1.292.26.613.697 1.047.431.44 1.022.699.583.258 1.266.257.678.001 1.267-.257c.388-.173.73-.405 1.017-.699.295-.289.523-.637.697-1.047a3.3 3.3 0 0 0 .257-1.292 3.3 3.3 0 0 0-.257-1.307m-.713 2.305a2.5 2.5 0 0 1-.536.806 2.7 2.7 0 0 1-.785.553 2.2 2.2 0 0 1-.946.205q-.513 0-.962-.205a2.52 2.52 0 0 1-1.308-1.359 2.6 2.6 0 0 1-.19-.998q0-.539.19-1.013.196-.475.523-.819a2.41 2.41 0 0 1 1.747-.732q.507 0 .946.194.437.192.785.538.344.344.536.819c.192.475.19.654.19 1.013q0 .536-.19.998"/><path d="M131.076 15.324a1.03 1.03 0 0 0 .426-.382 1.12 1.12 0 0 0-.181-1.349q-.323-.34-1.114-.342a8 8 0 0 0-.979.057v3.24h.815v-1.062h.329l.57 1.062h.929zm-.815-.439a.8.8 0 0 1-.245-.025v-.872a1 1 0 0 1 .27-.027q.519-.002.519.462.001.463-.544.462"/></g><path fill="#e75300" d="M12.856 107.724h117.356v20.568H12.856z"/><g fill="#fff"><path d="m27.478 122.568 1.348-10.256h.857l-1.697 11.376h-.91l-2.346-7.264-2.1 7.264h-.928l-2.03-11.376h.91l1.646 10.291 2.047-7.036h.963zM39.063 112.312v.84h-6.615v4.271h5.985v.822h-5.985v4.604h6.615v.84h-7.508v-11.376h7.508zM45.853 123.688h-3.815v-11.376h3.623c2.327 0 3.308.962 3.308 2.853 0 1.05-.578 1.995-1.681 2.433v.035c1.943.367 2.503 1.646 2.503 2.905-.001 1.977-1.138 3.15-3.938 3.15m-.245-10.536H42.93v4.253h2.59c1.4 0 2.503-.875 2.503-2.223 0-1.383-.736-2.03-2.415-2.03m-2.678 5.041v4.655h2.94c2.1 0 2.975-.665 2.975-2.293s-1.12-2.362-3.133-2.362zM70.563 112.312v.84h-6.615v4.271h5.985v.822h-5.985v4.604h6.615v.84h-7.508v-11.376h7.508zM73.204 112.312h3.815c3.903 0 4.953 2.87 4.953 5.618 0 3.22-.997 5.758-5.093 5.758h-3.676v-11.376zm.893.84v9.696h2.94c3.466 0 3.99-2.205 3.99-4.849 0-2.345-.84-4.848-3.99-4.848h-2.94zM83.985 122.848h3.238v-9.696h-3.238v-.84h7.525v.84h-3.395v9.696h3.395v.84h-7.525zM102.763 113.152h-4.13v10.536h-.893v-10.536h-4.148v-.84h9.171zM113.403 118.017c0 3.413-1.768 5.846-4.795 5.846-3.378 0-4.673-2.327-4.673-5.863 0-3.553 1.593-5.846 4.795-5.846 3.36 0 4.673 2.258 4.673 5.863m-.945 0c0-3.045-.893-5.04-3.729-5.04-2.87 0-3.85 1.838-3.85 5.022 0 3.115.822 5.041 3.728 5.041 2.783 0 3.851-2.187 3.851-5.023M115.555 112.312h3.325c2.782 0 3.851 1.05 3.851 3.36 0 1.61-.91 2.678-2.223 3.098l2.888 4.918h-1.068l-2.747-4.726h-3.133v4.726h-.893zm6.23 3.43c0-1.925-.875-2.59-2.835-2.59h-2.503v4.988h2.59c1.523 0 2.748-.543 2.748-2.398"/></g></svg>