<svg id="Layer_1" data-name="Layer 1" xmlns="http://www.w3.org/2000/svg" viewBox="0 0 187.23 203.53"><defs><style>.cls-1{fill:#404642;}.cls-2{fill:#849192;}.cls-3{fill:#2b322d;}.cls-4{fill:#7e8b8c;}.cls-5{fill:#d9dad9;}.cls-6{fill:#d8dcdd;}.cls-7{fill:#b8aca0;}.cls-8{fill:#9e846d;}.cls-9{fill:#8b7866;}.cls-10{fill:#c3c5c6;}.cls-11{fill:#8c9091;}.cls-12{fill:#c3b9af;}.cls-13{fill:#9c836d;}.cls-14{fill:#fff;}</style></defs><rect class="cls-1" width="187.23" height="203.53" rx="2.28"/><path class="cls-2" d="M136.79,213.25l-.13.13a2.8,2.8,0,0,1-4.3-.41,42.63,42.63,0,0,1,0-48.62,2.82,2.82,0,0,1,4.3-.41l.12.12a2.79,2.79,0,0,1,.31,3.58,36.87,36.87,0,0,0,0,42A2.8,2.8,0,0,1,136.79,213.25Z" transform="translate(-73.72 -86.75)"/><path class="cls-2" d="M192.05,219.32a2.81,2.81,0,0,1-.41,4.31,42.57,42.57,0,0,1-48.61,0,2.81,2.81,0,0,1-.41-4.31l.11-.11a2.8,2.8,0,0,1,3.58-.31,36.88,36.88,0,0,0,42.05,0,2.8,2.8,0,0,1,3.58.31Z" transform="translate(-73.72 -86.75)"/><path class="cls-2" d="M209.93,188.66A42.39,42.39,0,0,1,202.31,213a2.8,2.8,0,0,1-4.3.41l-.13-.13a2.8,2.8,0,0,1-.31-3.58,36.83,36.83,0,0,0,0-42,2.79,2.79,0,0,1,.31-3.58l.12-.12a2.82,2.82,0,0,1,4.3.41A42.41,42.41,0,0,1,209.93,188.66Z" transform="translate(-73.72 -86.75)"/><path class="cls-2" d="M192.05,158l-.11.11a2.79,2.79,0,0,1-3.58.31,36.93,36.93,0,0,0-42.05,0,2.79,2.79,0,0,1-3.58-.31l-.11-.11a2.8,2.8,0,0,1,.41-4.3,42.57,42.57,0,0,1,48.61,0A2.8,2.8,0,0,1,192.05,158Z" transform="translate(-73.72 -86.75)"/><path class="cls-2" d="M197.42,196.63a31.15,31.15,0,0,1-22.11,22.11,2.8,2.8,0,0,1-3.52-2.71h0a2.8,2.8,0,0,1,2.1-2.71A25.54,25.54,0,0,0,192,195.21a2.81,2.81,0,0,1,2.71-2.1h0a2.8,2.8,0,0,1,2.71,3.52Z" transform="translate(-73.72 -86.75)"/><path class="cls-2" d="M162.89,216h0a2.81,2.81,0,0,1-3.53,2.71,31.15,31.15,0,0,1-22.11-22.11,2.8,2.8,0,0,1,2.71-3.52h0a2.81,2.81,0,0,1,2.71,2.1,25.54,25.54,0,0,0,18.11,18.11,2.81,2.81,0,0,1,2.11,2.71Z" transform="translate(-73.72 -86.75)"/><path class="cls-2" d="M162.89,161.29h0a2.81,2.81,0,0,1-2.11,2.7,25.56,25.56,0,0,0-18.11,18.11,2.81,2.81,0,0,1-2.71,2.11h0a2.81,2.81,0,0,1-2.71-3.53,31.18,31.18,0,0,1,22.11-22.11,2.82,2.82,0,0,1,3.53,2.72Z" transform="translate(-73.72 -86.75)"/><path class="cls-2" d="M194.71,184.21h0A2.81,2.81,0,0,1,192,182.1,25.56,25.56,0,0,0,173.89,164a2.8,2.8,0,0,1-2.1-2.7h0a2.81,2.81,0,0,1,3.52-2.72,31.18,31.18,0,0,1,22.11,22.11,2.81,2.81,0,0,1-2.71,3.53Z" transform="translate(-73.72 -86.75)"/><rect class="cls-3" x="46.9" y="164.5" width="13.5" height="11.87"/><rect class="cls-4" x="47.6" y="161.99" width="1.13" height="2.51"/><rect class="cls-4" x="51.19" y="161.99" width="1.13" height="2.51"/><rect class="cls-4" x="54.77" y="161.99" width="1.13" height="2.51"/><rect class="cls-4" x="58.36" y="161.99" width="1.13" height="2.51"/><rect class="cls-4" x="47.6" y="176.37" width="1.13" height="2.51"/><rect class="cls-4" x="51.19" y="176.37" width="1.13" height="2.51"/><rect class="cls-4" x="54.77" y="176.37" width="1.13" height="2.51"/><rect class="cls-4" x="58.36" y="176.37" width="1.13" height="2.51"/><rect class="cls-3" x="23.92" y="165.97" width="12.41" height="19.23"/><rect class="cls-4" x="36.33" y="168.06" width="2.62" height="2.02"/><rect class="cls-4" x="36.33" y="174.49" width="2.62" height="2.02"/><rect class="cls-4" x="36.33" y="180.93" width="2.62" height="2.02"/><rect class="cls-4" x="21.29" y="171.29" width="2.62" height="8.42"/><rect class="cls-3" x="89.75" y="102.52" width="7.7" height="3.56"/><path class="cls-4" d="M165.22,193.57h-.09a.74.74,0,0,1-.75-.75H166a.75.75,0,0,1-.75.75Z" transform="translate(-73.72 -86.75)"/><path class="cls-4" d="M167.35,187.86h0a.8.8,0,0,1,.8.8v.61h-1.59v-.61a.79.79,0,0,1,.79-.8Z" transform="translate(-73.72 -86.75)"/><path class="cls-4" d="M169.58,193.57h-.09a.74.74,0,0,1-.75-.75h1.59a.75.75,0,0,1-.75.75Z" transform="translate(-73.72 -86.75)"/><rect class="cls-3" x="5.22" y="93.87" width="11.24" height="15.65"/><rect class="cls-5" x="7.81" y="109.52" width="6.06" height="3.07"/><rect class="cls-5" x="7.81" y="90.79" width="6.06" height="3.07"/><rect class="cls-3" x="7.98" y="168.44" width="5.72" height="7.97"/><rect class="cls-5" x="9.3" y="176.4" width="3.09" height="1.56"/><rect class="cls-5" x="9.3" y="166.87" width="3.09" height="1.56"/><path class="cls-3" d="M179.73,173a14.26,14.26,0,0,0,.53,3.91h-8.82A14.26,14.26,0,0,0,172,173a13.23,13.23,0,0,0-.57-4h8.88A13.23,13.23,0,0,0,179.73,173Z" transform="translate(-73.72 -86.75)"/><path class="cls-6" d="M172,173a14.26,14.26,0,0,1-.54,3.91H170v-7.86h1.43a13.23,13.23,0,0,1,.57,4Z" transform="translate(-73.72 -86.75)"/><path class="cls-6" d="M181.7,169.07v7.86h-1.44a14.26,14.26,0,0,1-.53-3.91,13.23,13.23,0,0,1,.56-4Z" transform="translate(-73.72 -86.75)"/><path class="cls-3" d="M162.72,173a14.26,14.26,0,0,0,.54,3.91h-8.83A14.26,14.26,0,0,0,155,173a13.56,13.56,0,0,0-.56-4h8.87a13.56,13.56,0,0,0-.56,4Z" transform="translate(-73.72 -86.75)"/><path class="cls-6" d="M155,173a14.26,14.26,0,0,1-.54,3.91H153v-7.86h1.43a13.56,13.56,0,0,1,.56,4Z" transform="translate(-73.72 -86.75)"/><path class="cls-6" d="M164.69,169.07v7.86h-1.43a14.26,14.26,0,0,1-.54-3.91,13.56,13.56,0,0,1,.56-4Z" transform="translate(-73.72 -86.75)"/><path class="cls-3" d="M179.73,204.2a14.26,14.26,0,0,0,.53,3.91h-8.82a14.26,14.26,0,0,0,.54-3.91,13.23,13.23,0,0,0-.57-3.95h8.88A13.23,13.23,0,0,0,179.73,204.2Z" transform="translate(-73.72 -86.75)"/><path class="cls-6" d="M172,204.2a14.26,14.26,0,0,1-.54,3.91H170v-7.86h1.43a13.23,13.23,0,0,1,.57,3.95Z" transform="translate(-73.72 -86.75)"/><path class="cls-6" d="M181.7,200.25v7.86h-1.44a14.26,14.26,0,0,1-.53-3.91,13.23,13.23,0,0,1,.56-3.95Z" transform="translate(-73.72 -86.75)"/><path class="cls-3" d="M162.72,204.2a14.26,14.26,0,0,0,.54,3.91h-8.83a14.26,14.26,0,0,0,.54-3.91,13.56,13.56,0,0,0-.56-3.95h8.87a13.56,13.56,0,0,0-.56,3.95Z" transform="translate(-73.72 -86.75)"/><path class="cls-6" d="M155,204.2a14.26,14.26,0,0,1-.54,3.91H153v-7.86h1.43a13.56,13.56,0,0,1,.56,3.95Z" transform="translate(-73.72 -86.75)"/><path class="cls-6" d="M164.69,200.25v7.86h-1.43a14.26,14.26,0,0,1-.54-3.91,13.56,13.56,0,0,1,.56-3.95Z" transform="translate(-73.72 -86.75)"/><path class="cls-3" d="M146,257.2a14.15,14.15,0,0,0,.54,3.91h-8.83a14.15,14.15,0,0,0,.54-3.91,13.5,13.5,0,0,0-.56-3.94h8.87a13.5,13.5,0,0,0-.56,3.94Z" transform="translate(-73.72 -86.75)"/><path class="cls-6" d="M138.23,257.2a14.15,14.15,0,0,1-.54,3.91h-1.45v-7.85h1.43a13.5,13.5,0,0,1,.56,3.94Z" transform="translate(-73.72 -86.75)"/><path class="cls-6" d="M148,253.26v7.85h-1.43a14.15,14.15,0,0,1-.54-3.91,13.5,13.5,0,0,1,.56-3.94Z" transform="translate(-73.72 -86.75)"/><path class="cls-3" d="M84.55,277a13.91,13.91,0,0,0-3.92.54v-8.83a14.28,14.28,0,0,0,3.92.54,13.17,13.17,0,0,0,3.94-.57v8.88A13.17,13.17,0,0,0,84.55,277Z" transform="translate(-73.72 -86.75)"/><path class="cls-6" d="M84.55,269.2a14.28,14.28,0,0,1-3.92-.54V267.2h7.86v1.43a13.17,13.17,0,0,1-3.94.57Z" transform="translate(-73.72 -86.75)"/><path class="cls-6" d="M88.49,278.92H80.63v-1.43a13.91,13.91,0,0,1,3.92-.54,13.17,13.17,0,0,1,3.94.56Z" transform="translate(-73.72 -86.75)"/><path class="cls-3" d="M157.05,182.94a14.26,14.26,0,0,0,.54,3.91h-8.83a14.26,14.26,0,0,0,.54-3.91,13.56,13.56,0,0,0-.56-3.95h8.87A13.56,13.56,0,0,0,157.05,182.94Z" transform="translate(-73.72 -86.75)"/><path class="cls-6" d="M149.3,182.94a14.26,14.26,0,0,1-.54,3.91h-1.45V179h1.43a13.56,13.56,0,0,1,.56,3.95Z" transform="translate(-73.72 -86.75)"/><path class="cls-6" d="M159,179v7.86h-1.43a14.26,14.26,0,0,1-.54-3.91,13.56,13.56,0,0,1,.56-3.95Z" transform="translate(-73.72 -86.75)"/><path class="cls-3" d="M185.39,182.94a14.26,14.26,0,0,0,.54,3.91h-8.82a14.26,14.26,0,0,0,.54-3.91,13.23,13.23,0,0,0-.57-3.95H186A13.23,13.23,0,0,0,185.39,182.94Z" transform="translate(-73.72 -86.75)"/><path class="cls-6" d="M177.65,182.94a14.26,14.26,0,0,1-.54,3.91h-1.46V179h1.43a13.23,13.23,0,0,1,.57,3.95Z" transform="translate(-73.72 -86.75)"/><path class="cls-6" d="M187.36,179v7.86h-1.43a14.26,14.26,0,0,1-.54-3.91A13.23,13.23,0,0,1,186,179Z" transform="translate(-73.72 -86.75)"/><path class="cls-3" d="M157.05,194.27a14.28,14.28,0,0,0,.54,3.92h-8.83a14.28,14.28,0,0,0,.54-3.92,13.55,13.55,0,0,0-.56-3.94h8.87A13.55,13.55,0,0,0,157.05,194.27Z" transform="translate(-73.72 -86.75)"/><path class="cls-6" d="M149.3,194.27a14.28,14.28,0,0,1-.54,3.92h-1.45v-7.86h1.43a13.55,13.55,0,0,1,.56,3.94Z" transform="translate(-73.72 -86.75)"/><path class="cls-6" d="M159,190.33v7.86h-1.43a14.28,14.28,0,0,1-.54-3.92,13.55,13.55,0,0,1,.56-3.94Z" transform="translate(-73.72 -86.75)"/><path class="cls-3" d="M185.39,194.27a14.28,14.28,0,0,0,.54,3.92h-8.82a14.28,14.28,0,0,0,.54-3.92,13.21,13.21,0,0,0-.57-3.94H186A13.21,13.21,0,0,0,185.39,194.27Z" transform="translate(-73.72 -86.75)"/><path class="cls-6" d="M177.65,194.27a14.28,14.28,0,0,1-.54,3.92h-1.46v-7.86h1.43a13.21,13.21,0,0,1,.57,3.94Z" transform="translate(-73.72 -86.75)"/><path class="cls-6" d="M187.36,190.33v7.86h-1.43a14.28,14.28,0,0,1-.54-3.92,13.21,13.21,0,0,1,.57-3.94Z" transform="translate(-73.72 -86.75)"/><g id="Artwork_25" data-name="Artwork 25"><g id="LWPOLYLINE"><path class="cls-7" d="M94.34,107.48a3.27,3.27,0,1,1-3.28-3.28A3.28,3.28,0,0,1,94.34,107.48Z" transform="translate(-73.72 -86.75)"/><path class="cls-7" d="M107.1,107.48a3.27,3.27,0,1,1-3.26-3.28A3.27,3.27,0,0,1,107.1,107.48Z" transform="translate(-73.72 -86.75)"/><rect class="cls-7" x="10.04" y="7.94" width="27.39" height="7.17"/><rect class="cls-7" x="10.04" y="26.31" width="27.39" height="7.17"/></g><rect class="cls-8" x="10.03" y="30.89" width="27.39" height="2.6"/><path class="cls-9" d="M94.34,107.48a3.27,3.27,0,1,1-3.28-3.28A3.28,3.28,0,0,1,94.34,107.48Z" transform="translate(-73.72 -86.75)"/><path class="cls-9" d="M107.1,107.48a3.27,3.27,0,1,1-3.26-3.28A3.27,3.27,0,0,1,107.1,107.48Z" transform="translate(-73.72 -86.75)"/><path class="cls-8" d="M83.76,101.86v1.06l2.16-.46v2.66l-2.16-.46v8.41h27.38V101.86Zm7.3,8.88a3.27,3.27,0,1,1,3.28-3.26A3.27,3.27,0,0,1,91.06,110.74Zm12.78,0a3.27,3.27,0,1,1,3.26-3.26A3.28,3.28,0,0,1,103.84,110.74Z" transform="translate(-73.72 -86.75)"/><g id="INSERT"><g id="CIRCLE"><path class="cls-10" d="M107.1,107.48a3.27,3.27,0,1,1-3.26-3.28A3.27,3.27,0,0,1,107.1,107.48Z" transform="translate(-73.72 -86.75)"/></g></g><g id="INSERT-2"><g id="CIRCLE-2"><path class="cls-10" d="M94.34,107.48a3.27,3.27,0,1,1-3.28-3.28A3.28,3.28,0,0,1,94.34,107.48Z" transform="translate(-73.72 -86.75)"/></g></g><rect class="cls-11" x="90.6" y="104.95" width="0.92" height="5.03" transform="translate(-117.61 -19.65) rotate(-33.07)"/><rect class="cls-11" x="88.54" y="107.01" width="5.03" height="0.92" transform="matrix(0.84, -0.55, 0.55, 0.84, -117.61, -19.67)"/><rect class="cls-11" x="101.38" y="107.01" width="4.92" height="0.92" transform="translate(-118.18 39.17) rotate(-53.08)"/><rect class="cls-11" x="103.37" y="105.01" width="0.92" height="4.92" transform="translate(-118.18 39.14) rotate(-53.07)"/><polygon class="cls-12" points="7.87 27.41 7.87 30.07 10.03 29.61 10.03 27.87 7.87 27.41"/></g><g id="Artwork_25-2" data-name="Artwork 25-2"><g id="LWPOLYLINE-2"><path class="cls-7" d="M121.72,107.48a3.27,3.27,0,1,1-3.27-3.28A3.27,3.27,0,0,1,121.72,107.48Z" transform="translate(-73.72 -86.75)"/><path class="cls-7" d="M134.48,107.48a3.27,3.27,0,1,1-3.26-3.28A3.26,3.26,0,0,1,134.48,107.48Z" transform="translate(-73.72 -86.75)"/><rect class="cls-7" x="37.42" y="7.94" width="27.39" height="7.17"/><rect class="cls-7" x="37.42" y="26.31" width="27.39" height="7.17"/></g><rect class="cls-8" x="37.41" y="30.89" width="27.39" height="2.6"/><path class="cls-9" d="M121.72,107.48a3.27,3.27,0,1,1-3.27-3.28A3.27,3.27,0,0,1,121.72,107.48Z" transform="translate(-73.72 -86.75)"/><path class="cls-9" d="M134.48,107.48a3.27,3.27,0,1,1-3.26-3.28A3.26,3.26,0,0,1,134.48,107.48Z" transform="translate(-73.72 -86.75)"/><path class="cls-8" d="M111.14,101.86v1.06h0v1.74h0v8.41h27.38V101.86Zm7.31,8.88a3.27,3.27,0,1,1,3.27-3.26A3.27,3.27,0,0,1,118.45,110.74Zm12.77,0a3.27,3.27,0,1,1,3.26-3.26A3.28,3.28,0,0,1,131.22,110.74Z" transform="translate(-73.72 -86.75)"/><g id="INSERT-3"><g id="CIRCLE-3"><path class="cls-10" d="M134.48,107.48a3.27,3.27,0,1,1-3.26-3.28A3.26,3.26,0,0,1,134.48,107.48Z" transform="translate(-73.72 -86.75)"/></g></g><g id="INSERT-4"><g id="CIRCLE-4"><path class="cls-10" d="M121.72,107.48a3.27,3.27,0,1,1-3.27-3.28A3.27,3.27,0,0,1,121.72,107.48Z" transform="translate(-73.72 -86.75)"/></g></g><rect class="cls-11" x="117.99" y="104.95" width="0.92" height="5.03" transform="translate(-113.18 -4.71) rotate(-33.07)"/><rect class="cls-11" x="115.93" y="107.01" width="5.03" height="0.92" transform="matrix(0.84, -0.55, 0.55, 0.84, -113.17, -4.73)"/><rect class="cls-11" x="128.76" y="107.01" width="4.92" height="0.92" transform="translate(-107.24 61.07) rotate(-53.08)"/><rect class="cls-11" x="130.76" y="105.01" width="0.92" height="4.92" transform="translate(-107.25 61.03) rotate(-53.07)"/></g><g id="Artwork_25-3" data-name="Artwork 25-3"><g id="LWPOLYLINE-3"><path class="cls-7" d="M177,107.48a3.27,3.27,0,1,1-3.28-3.28A3.28,3.28,0,0,1,177,107.48Z" transform="translate(-73.72 -86.75)"/><path class="cls-7" d="M189.73,107.48a3.27,3.27,0,1,1-3.27-3.28A3.27,3.27,0,0,1,189.73,107.48Z" transform="translate(-73.72 -86.75)"/><rect class="cls-7" x="92.67" y="7.94" width="27.39" height="7.17"/><rect class="cls-7" x="92.67" y="26.31" width="27.39" height="7.17"/></g><rect class="cls-8" x="92.66" y="30.89" width="27.39" height="2.6"/><path class="cls-9" d="M177,107.48a3.27,3.27,0,1,1-3.28-3.28A3.28,3.28,0,0,1,177,107.48Z" transform="translate(-73.72 -86.75)"/><path class="cls-9" d="M189.73,107.48a3.27,3.27,0,1,1-3.27-3.28A3.27,3.27,0,0,1,189.73,107.48Z" transform="translate(-73.72 -86.75)"/><path class="cls-8" d="M166.39,101.86v1.06h0v1.74h0v8.41h27.38V101.86Zm7.3,8.88a3.27,3.27,0,1,1,3.28-3.26A3.26,3.26,0,0,1,173.69,110.74Zm12.77,0a3.27,3.27,0,1,1,3.27-3.26A3.27,3.27,0,0,1,186.46,110.74Z" transform="translate(-73.72 -86.75)"/><g id="INSERT-5"><g id="CIRCLE-5"><path class="cls-10" d="M189.73,107.48a3.27,3.27,0,1,1-3.27-3.28A3.27,3.27,0,0,1,189.73,107.48Z" transform="translate(-73.72 -86.75)"/></g></g><g id="INSERT-6"><g id="CIRCLE-6"><path class="cls-10" d="M177,107.48a3.27,3.27,0,1,1-3.28-3.28A3.28,3.28,0,0,1,177,107.48Z" transform="translate(-73.72 -86.75)"/></g></g><rect class="cls-11" x="173.23" y="104.95" width="0.92" height="5.03" transform="translate(-104.23 25.44) rotate(-33.07)"/><rect class="cls-11" x="171.17" y="107.01" width="5.03" height="0.92" transform="matrix(0.84, -0.55, 0.55, 0.84, -104.23, 25.41)"/><rect class="cls-11" x="184" y="107.01" width="4.92" height="0.92" transform="translate(-85.18 105.23) rotate(-53.08)"/><rect class="cls-11" x="186" y="105.01" width="0.92" height="4.92" transform="translate(-85.2 105.19) rotate(-53.07)"/></g><g id="Artwork_25-4" data-name="Artwork 25-4"><g id="LWPOLYLINE-4"><path class="cls-7" d="M164.26,107.48A3.27,3.27,0,1,1,161,104.2,3.28,3.28,0,0,1,164.26,107.48Z" transform="translate(-73.72 -86.75)"/><path class="cls-7" d="M177,107.48a3.27,3.27,0,1,1-3.26-3.28A3.26,3.26,0,0,1,177,107.48Z" transform="translate(-73.72 -86.75)"/><rect class="cls-7" x="79.96" y="7.94" width="27.39" height="7.17"/><rect class="cls-7" x="79.96" y="26.31" width="27.39" height="7.17"/></g><rect class="cls-8" x="79.95" y="30.89" width="27.39" height="2.6"/><path class="cls-9" d="M164.26,107.48A3.27,3.27,0,1,1,161,104.2,3.28,3.28,0,0,1,164.26,107.48Z" transform="translate(-73.72 -86.75)"/><path class="cls-9" d="M177,107.48a3.27,3.27,0,1,1-3.26-3.28A3.26,3.26,0,0,1,177,107.48Z" transform="translate(-73.72 -86.75)"/><path class="cls-8" d="M153.68,101.86v1.06h0v1.74h0v8.41h27.38V101.86Zm7.31,8.88a3.27,3.27,0,1,1,3.27-3.26A3.27,3.27,0,0,1,161,110.74Zm12.77,0a3.27,3.27,0,1,1,3.26-3.26A3.28,3.28,0,0,1,173.76,110.74Z" transform="translate(-73.72 -86.75)"/><g id="INSERT-7"><g id="CIRCLE-7"><path class="cls-10" d="M177,107.48a3.27,3.27,0,1,1-3.26-3.28A3.26,3.26,0,0,1,177,107.48Z" transform="translate(-73.72 -86.75)"/></g></g><g id="INSERT-8"><g id="CIRCLE-8"><path class="cls-10" d="M164.26,107.48A3.27,3.27,0,1,1,161,104.2,3.28,3.28,0,0,1,164.26,107.48Z" transform="translate(-73.72 -86.75)"/></g></g><rect class="cls-11" x="160.52" y="104.95" width="0.92" height="5.03" transform="translate(-106.28 18.51) rotate(-33.07)"/><rect class="cls-11" x="158.47" y="107.01" width="5.03" height="0.92" transform="matrix(0.84, -0.55, 0.55, 0.84, -106.28, 18.48)"/><rect class="cls-11" x="171.3" y="107.01" width="4.92" height="0.92" transform="translate(-90.26 95.08) rotate(-53.08)"/><rect class="cls-11" x="173.3" y="105.01" width="0.92" height="4.92" transform="translate(-90.27 95.03) rotate(-53.07)"/></g><path class="cls-3" d="M143.23,190.43a6,6,0,0,0-1.81.27v-4.36a6.29,6.29,0,0,0,1.81.27,6,6,0,0,0,1.83-.28v4.38a5.71,5.71,0,0,0-1.83-.28Z" transform="translate(-73.72 -86.75)"/><path class="cls-6" d="M143.23,186.61a6.29,6.29,0,0,1-1.81-.27v-.72h3.64v.71A6,6,0,0,1,143.23,186.61Z" transform="translate(-73.72 -86.75)"/><path class="cls-6" d="M145.06,191.4h-3.64v-.7a6,6,0,0,1,1.81-.27,5.71,5.71,0,0,1,1.83.28v.69Z" transform="translate(-73.72 -86.75)"/><path class="cls-3" d="M143.23,269.15a6,6,0,0,0-1.81.27v-4.36a6.29,6.29,0,0,0,1.81.27,6,6,0,0,0,1.83-.28v4.38a5.71,5.71,0,0,0-1.83-.28Z" transform="translate(-73.72 -86.75)"/><path class="cls-6" d="M143.23,265.33a6.29,6.29,0,0,1-1.81-.27v-.72h3.64v.71a6,6,0,0,1-1.83.28Z" transform="translate(-73.72 -86.75)"/><path class="cls-6" d="M145.06,270.12h-3.64v-.7a6,6,0,0,1,1.81-.27,5.71,5.71,0,0,1,1.83.28v.69Z" transform="translate(-73.72 -86.75)"/><path class="cls-13" d="M138.7,269.15a6,6,0,0,0-1.82.27v-4.36a6.36,6.36,0,0,0,1.82.27,6,6,0,0,0,1.83-.28v4.38A5.75,5.75,0,0,0,138.7,269.15Z" transform="translate(-73.72 -86.75)"/><path class="cls-6" d="M138.7,265.33a6.36,6.36,0,0,1-1.82-.27v-.72h3.65v.71a6,6,0,0,1-1.83.28Z" transform="translate(-73.72 -86.75)"/><path class="cls-6" d="M140.53,270.12h-3.65v-.7a6,6,0,0,1,1.82-.27,5.75,5.75,0,0,1,1.83.28v.69Z" transform="translate(-73.72 -86.75)"/><path class="cls-3" d="M81.49,131.05a6.29,6.29,0,0,0-1.81.27V127a6,6,0,0,0,1.81.27,5.75,5.75,0,0,0,1.83-.28v4.38a6,6,0,0,0-1.83-.28Z" transform="translate(-73.72 -86.75)"/><path class="cls-6" d="M81.49,127.23a6,6,0,0,1-1.81-.27v-.71h3.64v.7A5.75,5.75,0,0,1,81.49,127.23Z" transform="translate(-73.72 -86.75)"/><path class="cls-6" d="M83.32,132H79.68v-.71a6.29,6.29,0,0,1,1.81-.27,6,6,0,0,1,1.83.28Z" transform="translate(-73.72 -86.75)"/><path class="cls-14" d="M81.49,139.34a6.29,6.29,0,0,0-1.81.27v-4.36a6,6,0,0,0,1.81.27,5.75,5.75,0,0,0,1.83-.28v4.38a6,6,0,0,0-1.83-.28Z" transform="translate(-73.72 -86.75)"/><path class="cls-6" d="M81.49,135.52a6,6,0,0,1-1.81-.27v-.72h3.64v.71A5.75,5.75,0,0,1,81.49,135.52Z" transform="translate(-73.72 -86.75)"/><path class="cls-6" d="M83.32,140.32H79.68v-.71a6.29,6.29,0,0,1,1.81-.27,6,6,0,0,1,1.83.28Z" transform="translate(-73.72 -86.75)"/><path class="cls-13" d="M165.42,196a6.29,6.29,0,0,0-.27-1.81h4.36a6,6,0,0,0-.27,1.81,5.75,5.75,0,0,0,.28,1.83h-4.38a6,6,0,0,0,.28-1.83Z" transform="translate(-73.72 -86.75)"/><path class="cls-6" d="M169.24,196a6,6,0,0,1,.27-1.81h.72v3.64h-.71a5.75,5.75,0,0,1-.28-1.83Z" transform="translate(-73.72 -86.75)"/><path class="cls-6" d="M164.44,197.78v-3.64h.71a6.29,6.29,0,0,1,.27,1.81,6,6,0,0,1-.28,1.83Z" transform="translate(-73.72 -86.75)"/><path class="cls-3" d="M122.23,277.83A6,6,0,0,0,122,276h4.36a6.29,6.29,0,0,0-.27,1.81,6,6,0,0,0,.28,1.83H122a5.75,5.75,0,0,0,.28-1.83Z" transform="translate(-73.72 -86.75)"/><path class="cls-6" d="M126.05,277.83a6.29,6.29,0,0,1,.27-1.81H127v3.64h-.71a6,6,0,0,1-.28-1.83Z" transform="translate(-73.72 -86.75)"/><path class="cls-6" d="M121.26,279.66V276h.7a6,6,0,0,1,.27,1.81,5.75,5.75,0,0,1-.28,1.83Z" transform="translate(-73.72 -86.75)"/><path class="cls-3" d="M130.55,273.33a6,6,0,0,0-.27-1.81h4.36a6.34,6.34,0,0,0-.27,1.81,6.11,6.11,0,0,0,.28,1.84h-4.38a5.81,5.81,0,0,0,.28-1.84Z" transform="translate(-73.72 -86.75)"/><path class="cls-6" d="M134.37,273.33a6.34,6.34,0,0,1,.27-1.81h.72v3.65h-.71a6.11,6.11,0,0,1-.28-1.84Z" transform="translate(-73.72 -86.75)"/><path class="cls-6" d="M129.58,275.17v-3.65h.7a6,6,0,0,1,.27,1.81,5.81,5.81,0,0,1-.28,1.84Z" transform="translate(-73.72 -86.75)"/><path class="cls-3" d="M139,273.33a6,6,0,0,0-.27-1.81h4.36a6.34,6.34,0,0,0-.27,1.81,6.11,6.11,0,0,0,.28,1.84h-4.38a5.81,5.81,0,0,0,.28-1.84Z" transform="translate(-73.72 -86.75)"/><path class="cls-6" d="M142.86,273.33a6.34,6.34,0,0,1,.27-1.81h.72v3.65h-.71a6.11,6.11,0,0,1-.28-1.84Z" transform="translate(-73.72 -86.75)"/><path class="cls-6" d="M138.07,275.17v-3.65h.7a6,6,0,0,1,.27,1.81,5.81,5.81,0,0,1-.28,1.84Z" transform="translate(-73.72 -86.75)"/><path class="cls-3" d="M139,249.24a6,6,0,0,0-.27-1.81h4.36a6.29,6.29,0,0,0-.27,1.81,6,6,0,0,0,.28,1.83h-4.38a5.71,5.71,0,0,0,.28-1.83Z" transform="translate(-73.72 -86.75)"/><path class="cls-6" d="M142.86,249.24a6.29,6.29,0,0,1,.27-1.81h.72v3.64h-.71a6,6,0,0,1-.28-1.83Z" transform="translate(-73.72 -86.75)"/><path class="cls-6" d="M138.07,251.07v-3.64h.7a6,6,0,0,1,.27,1.81,5.71,5.71,0,0,1-.28,1.83Z" transform="translate(-73.72 -86.75)"/><path class="cls-13" d="M122.22,273.33a6.34,6.34,0,0,0-.26-1.81h4.35a6.34,6.34,0,0,0-.26,1.81,5.81,5.81,0,0,0,.28,1.84h-4.39a5.81,5.81,0,0,0,.28-1.84Z" transform="translate(-73.72 -86.75)"/><path class="cls-6" d="M126.05,273.33a6.34,6.34,0,0,1,.26-1.81H127v3.65h-.7a5.81,5.81,0,0,1-.28-1.84Z" transform="translate(-73.72 -86.75)"/><path class="cls-6" d="M121.25,275.17v-3.65H122a6.34,6.34,0,0,1,.26,1.81,5.81,5.81,0,0,1-.28,1.84Z" transform="translate(-73.72 -86.75)"/><path class="cls-13" d="M117.94,242.15a6.34,6.34,0,0,0-.27-1.81H122a6,6,0,0,0-.27,1.81A5.71,5.71,0,0,0,122,244h-4.38a6,6,0,0,0,.28-1.83Z" transform="translate(-73.72 -86.75)"/><path class="cls-6" d="M121.76,242.15a6,6,0,0,1,.27-1.81h.72V244H122A5.71,5.71,0,0,1,121.76,242.15Z" transform="translate(-73.72 -86.75)"/><path class="cls-6" d="M117,244v-3.64h.71a6.34,6.34,0,0,1,.27,1.81,6,6,0,0,1-.28,1.83Z" transform="translate(-73.72 -86.75)"/><path class="cls-13" d="M108.24,248.09a7.9,7.9,0,0,0-.33-2.25h5.39a7.9,7.9,0,0,0-.33,2.25,7.18,7.18,0,0,0,.35,2.26h-5.43a7.18,7.18,0,0,0,.35-2.26Z" transform="translate(-73.72 -86.75)"/><path class="cls-6" d="M113,248.09a7.9,7.9,0,0,1,.33-2.25h.89v4.51h-.87a7.18,7.18,0,0,1-.35-2.26Z" transform="translate(-73.72 -86.75)"/><path class="cls-6" d="M107,250.35v-4.51h.88a7.9,7.9,0,0,1,.33,2.25,7.18,7.18,0,0,1-.35,2.26Z" transform="translate(-73.72 -86.75)"/><path class="cls-13" d="M107.43,276.44a7.51,7.51,0,0,0-.33-2.25h5.39a7.84,7.84,0,0,0-.33,2.25,7.23,7.23,0,0,0,.35,2.26h-5.43A7,7,0,0,0,107.43,276.44Z" transform="translate(-73.72 -86.75)"/><path class="cls-6" d="M112.16,276.44a7.84,7.84,0,0,1,.33-2.25h.89v4.51h-.87a7.23,7.23,0,0,1-.35-2.26Z" transform="translate(-73.72 -86.75)"/><path class="cls-6" d="M106.23,278.7v-4.51h.87a7.51,7.51,0,0,1,.33,2.25,7,7,0,0,1-.35,2.26Z" transform="translate(-73.72 -86.75)"/><path class="cls-13" d="M97.07,276.44a7.51,7.51,0,0,0-.33-2.25h5.39a7.84,7.84,0,0,0-.33,2.25,7.23,7.23,0,0,0,.35,2.26H96.72a7,7,0,0,0,.35-2.26Z" transform="translate(-73.72 -86.75)"/><path class="cls-6" d="M101.8,276.44a7.84,7.84,0,0,1,.33-2.25H103v4.51h-.87a7.23,7.23,0,0,1-.35-2.26Z" transform="translate(-73.72 -86.75)"/><path class="cls-6" d="M95.87,278.7v-4.51h.87a7.51,7.51,0,0,1,.33,2.25,7,7,0,0,1-.35,2.26Z" transform="translate(-73.72 -86.75)"/><path class="cls-13" d="M127.25,242.15a7.83,7.83,0,0,0-.33-2.24h5.39a7.83,7.83,0,0,0-.33,2.24,7.25,7.25,0,0,0,.35,2.27H126.9a7.25,7.25,0,0,0,.35-2.27Z" transform="translate(-73.72 -86.75)"/><path class="cls-6" d="M132,242.15a7.83,7.83,0,0,1,.33-2.24h.89v4.51h-.87a7.25,7.25,0,0,1-.35-2.27Z" transform="translate(-73.72 -86.75)"/><path class="cls-6" d="M126,244.42v-4.51h.88a7.83,7.83,0,0,1,.33,2.24,7.25,7.25,0,0,1-.35,2.27Z" transform="translate(-73.72 -86.75)"/><path class="cls-13" d="M137.34,242.15a7.83,7.83,0,0,0-.33-2.24h5.39a7.83,7.83,0,0,0-.33,2.24,7.25,7.25,0,0,0,.35,2.27H137a7.25,7.25,0,0,0,.35-2.27Z" transform="translate(-73.72 -86.75)"/><path class="cls-6" d="M142.07,242.15a7.83,7.83,0,0,1,.33-2.24h.89v4.51h-.87a7.25,7.25,0,0,1-.35-2.27Z" transform="translate(-73.72 -86.75)"/><path class="cls-6" d="M136.13,244.42v-4.51H137a7.83,7.83,0,0,1,.33,2.24,7.25,7.25,0,0,1-.35,2.27Z" transform="translate(-73.72 -86.75)"/><path class="cls-14" d="M139,190.43a6,6,0,0,0-1.81.27v-4.36a6.29,6.29,0,0,0,1.81.27,6,6,0,0,0,1.83-.28v4.38A5.71,5.71,0,0,0,139,190.43Z" transform="translate(-73.72 -86.75)"/><path class="cls-6" d="M139,186.61a6.29,6.29,0,0,1-1.81-.27v-.72h3.64v.71a6,6,0,0,1-1.83.28Z" transform="translate(-73.72 -86.75)"/><path class="cls-6" d="M140.87,191.4h-3.64v-.7a6,6,0,0,1,1.81-.27,5.71,5.71,0,0,1,1.83.28Z" transform="translate(-73.72 -86.75)"/><path class="cls-14" d="M195.81,190.43a6,6,0,0,0-1.81.27v-4.36a6.29,6.29,0,0,0,1.81.27,6,6,0,0,0,1.83-.28v4.38A5.75,5.75,0,0,0,195.81,190.43Z" transform="translate(-73.72 -86.75)"/><path class="cls-6" d="M195.81,186.61a6.29,6.29,0,0,1-1.81-.27v-.72h3.64v.71a6,6,0,0,1-1.83.28Z" transform="translate(-73.72 -86.75)"/><path class="cls-6" d="M197.64,191.4H194v-.7a6,6,0,0,1,1.81-.27,5.75,5.75,0,0,1,1.83.28Z" transform="translate(-73.72 -86.75)"/><path class="cls-3" d="M191.42,190.43a6,6,0,0,0-1.81.27v-4.36a6.29,6.29,0,0,0,1.81.27,6,6,0,0,0,1.83-.28v4.38A5.71,5.71,0,0,0,191.42,190.43Z" transform="translate(-73.72 -86.75)"/><path class="cls-6" d="M191.42,186.61a6.29,6.29,0,0,1-1.81-.27v-.72h3.64v.71a6,6,0,0,1-1.83.28Z" transform="translate(-73.72 -86.75)"/><path class="cls-6" d="M193.25,191.4h-3.64v-.7a6,6,0,0,1,1.81-.27,5.71,5.71,0,0,1,1.83.28Z" transform="translate(-73.72 -86.75)"/><rect class="cls-6" x="7.98" y="174.68" width="5.72" height="1.72"/></svg>