<svg xmlns="http://www.w3.org/2000/svg" xmlns:xlink="http://www.w3.org/1999/xlink" xml:space="preserve" id="Layer_1" x="0" y="0" viewBox="0 0 353 141"><style>.st2{fill:#0e7681}.st3{fill:#a3cfd2}.st4{fill:#b8b0a7}.st5{fill:#82898b}.st6{fill:#77b8bd}.st7{fill:#807163}.st8{fill:#939a9b}.st9{fill:#eb5f23}.st11{fill:#898f91}.st13{fill:#b7bcbe}.st14{fill:#bcdcde}.st15{fill:#979d9e}.st16{fill:#fff}.st17,.st18{opacity:.1}.st18{fill:#0e7681;enable-background:new}</style><defs><path id="SVGID_1_" d="M0 0h353v141H0z"/></defs><clipPath id="SVGID_2_"><use xlink:href="#SVGID_1_" style="overflow:visible"/></clipPath><g style="clip-path:url(#SVGID_2_)"><defs><path id="SVGID_3_" d="M0 0h353v141H0z"/></defs><clipPath id="SVGID_4_"><use xlink:href="#SVGID_3_" style="overflow:visible"/></clipPath><g style="clip-path:url(#SVGID_4_)"><path d="M.4 128.1V12.6C.3 9.3 1.5 6.2 3.7 3.8S9 0 12.2-.1h323c3.4 0 6.6 1.3 9 3.7s3.7 5.6 3.7 8.9V128c0 3.4-1.3 6.6-3.7 8.9-2.4 2.4-5.6 3.7-9 3.7h-323c-3.3-.1-6.3-1.5-8.6-3.9-2.1-2.2-3.3-5.4-3.2-8.6m334.8 6.8c1.3 0 2.7-.4 3.8-1.1s2-1.8 2.5-3.1c.5-1.2.7-2.6.4-3.9s-.9-2.5-1.9-3.5-2.2-1.6-3.5-1.9-2.7-.1-3.9.4-2.3 1.4-3.1 2.5c-.7 1.1-1.1 2.4-1.1 3.8 0 1.8.7 3.5 2 4.8 1.3 1.2 3 2 4.8 2m0-115.5c1.3 0 2.7-.4 3.8-1.1s2-1.8 2.5-3 .7-2.6.4-3.9-.9-2.5-1.9-3.5-2.2-1.6-3.5-1.9-2.7-.1-3.9.4-2.3 1.4-3.1 2.5-1.1 2.4-1.1 3.8c0 1.8.7 3.5 2 4.8 1.3 1.2 3 1.9 4.8 1.9M13.1 134.9c1.3 0 2.7-.4 3.8-1.1s2-1.8 2.5-3 .6-2.6.4-3.9-.9-2.5-1.9-3.5c-1-.9-2.2-1.6-3.5-1.9s-2.7-.1-3.9.4-2.3 1.4-3.1 2.5c-.7 1.1-1.1 2.4-1.1 3.8 0 .9.2 1.8.5 2.6s.8 1.6 1.5 2.2c.6.6 1.4 1.1 2.2 1.5.8.2 1.7.4 2.6.4m0-115.5c1.3 0 2.7-.4 3.8-1.1s2-1.8 2.5-3.1c.5-1.2.6-2.6.4-3.9-.3-1.3-.9-2.5-1.9-3.5s-2.2-1.6-3.5-1.9-2.7-.1-3.9.4c-1.3.5-2.3 1.4-3.1 2.5-.7 1.1-1.1 2.4-1.1 3.8 0 .9.2 1.8.5 2.6s.8 1.6 1.5 2.2c.6.6 1.4 1.1 2.2 1.5.8.3 1.7.5 2.6.5" class="st2"/><path d="M255.3 96.9c.3 0 .5-.1.7-.2s.4-.3.5-.6c.1-.2.1-.5.1-.7s-.2-.5-.3-.7c-.2-.2-.4-.3-.7-.3-.2 0-.5 0-.7.1s-.4.3-.6.5c-.1.2-.2.5-.2.7 0 .3.1.7.4.9.1.2.4.3.8.3M47.7 68.4c.3 0 .5-.1.7-.2s.4-.3.5-.6c.1-.2.1-.5.1-.7s-.2-.5-.3-.6c-.2-.2-.4-.3-.7-.3-.2 0-.5 0-.7.1s-.4.3-.6.5c-.1.2-.2.5-.2.7 0 .3.1.7.4.9.1.1.4.2.8.2M43.3 53.6c.3 0 .5-.1.7-.2s.4-.3.5-.6c.1-.2.1-.5.1-.7s-.2-.5-.3-.6c-.2-.2-.4-.3-.7-.3-.2 0-.5 0-.7.1s-.4.3-.6.5c-.1.2-.2.5-.2.7 0 .3.1.7.4.9.2 0 .5.2.8.2M38.2 53.6c.3 0 .5-.1.7-.2s.4-.3.5-.6c.1-.2.1-.5.1-.7s-.2-.5-.3-.6c-.2-.2-.4-.3-.7-.3-.2 0-.5 0-.7.1s-.4.3-.6.5c-.1.2-.2.5-.2.7 0 .3.1.7.4.9.2 0 .5.2.8.2M47.9 53.6c.3 0 .5-.1.7-.2s.4-.3.5-.6c.1-.2.1-.5.1-.7s-.2-.5-.3-.6c-.2-.2-.4-.3-.7-.3-.2 0-.5 0-.7.1s-.4.3-.6.5c-.1.2-.2.5-.2.7 0 .3.1.7.4.9.1 0 .4.2.8.2M159.2 124.5c.3 0 .5-.1.7-.2s.4-.3.5-.6c.1-.2.1-.5.1-.7s-.2-.5-.3-.7c-.2-.2-.4-.3-.7-.3-.2 0-.5 0-.7.1s-.4.3-.6.5c-.1.2-.2.5-.2.7 0 .3.1.7.4.9.1.2.5.3.8.3M59.2 62.6c.3 0 .5-.1.7-.2s.4-.3.5-.6c.1-.2.1-.5.1-.7s-.2-.5-.3-.6c-.2-.2-.4-.3-.7-.3-.2 0-.5 0-.7.1s-.4.3-.6.5c-.1.2-.2.5-.2.7 0 .3.1.7.4.9.1 0 .4.2.8.2M68.2 85.7c.3 0 .5-.1.7-.2s.4-.3.5-.6c.1-.2.1-.5.1-.7s-.2-.5-.3-.7c-.2-.2-.4-.3-.7-.3-.2 0-.5 0-.7.1s-.4.3-.6.5c-.1.2-.2.5-.2.7s0 .3.1.5.2.3.3.4.3.2.4.3c.1-.1.2 0 .4 0M67.9 89.3c.3 0 .5-.1.7-.2s.4-.3.5-.6c.1-.2.1-.5.1-.7s-.2-.5-.3-.6-.4-.3-.7-.3c-.2 0-.5 0-.7.1s-.4.3-.6.5c-.1.2-.2.5-.2.7 0 .3.1.7.4.9.2.1.5.2.8.2M72.2 80.6c.3 0 .5-.1.7-.2s.4-.3.5-.6c.1-.2.1-.5.1-.7s-.2-.5-.3-.6c-.2-.2-.4-.3-.7-.3-.2 0-.5 0-.7.1s-.4.3-.6.5c-.1.2-.2.5-.2.7s0 .3.1.5.2.3.3.4.3.2.4.3c0-.1.2-.1.4-.1M47.6 89.3c.3 0 .5-.1.7-.2s.4-.3.5-.6c.1-.2.1-.5.1-.7s-.2-.5-.3-.6c-.2-.2-.4-.3-.7-.3-.2 0-.5 0-.7.1s-.4.3-.6.5c-.1.2-.2.5-.2.7 0 .3.1.7.4.9.1.1.4.2.8.2M76.1 54.4c.3 0 .5-.1.7-.2s.4-.3.5-.6c.1-.2.1-.5.1-.7s-.2-.5-.3-.6c-.2-.2-.4-.3-.7-.3-.2 0-.5 0-.7.1s-.4.3-.6.5c-.1.2-.2.5-.2.7 0 .3.1.7.4.9.2.1.5.2.8.2M54.1 89.6c.3 0 .5-.1.7-.2s.4-.3.5-.6c.1-.2.1-.5.1-.7s-.2-.5-.3-.7c-.2-.2-.4-.3-.7-.3-.2 0-.5 0-.7.1s-.4.3-.6.5c-.1.2-.2.5-.2.7 0 .3.1.7.4.9.1.2.4.3.8.3" class="st3"/><path d="M319.4 30.6h6.3c.1 0 .1 0 .1.1v9.1c0 .1 0 .1-.1.1h-6.3c-.1 0-.1 0-.1-.1zc-.1.1-.1 0 0 0M308.1 30.6h6.3c.1 0 .1 0 .1.1v9.1c0 .1 0 .1-.1.1h-6.3c-.1 0-.1 0-.1-.1zc-.1.1-.1 0 0 0" class="st4"/><path d="M46.7 106h4.5s.1 0 .1.1v4.5s0 .1-.1.1h-4.5s-.1 0-.1-.1zc0 .1 0 0 0 0M51.2 101h-4.5v4.6h4.5zq.15 0 0 0 .15 0 0 0M57.5 101H53v4.6h4.5zM57.5 106H53v4.5h4.5zq0 .15 0 0 0 .15 0 0M67.5 109.9h-6.6v6.4h6.7zc.1.1.1 0 0 0q.15 0 0 0M67.5 100.9h-6.7v6.5h6.8v-.1zq.15 0 0 0 .15 0 0 0M71.7 100.9h6.6c.1 0 .1 0 .1.1v6.3c0 .1 0 .1-.1.1h-6.6c-.1 0-.1 0-.1-.1zq-.15 0 0 0M71.7 109.9h6.6c.1 0 .1 0 .1.1v6.3c0 .1 0 .1-.1.1h-6.6c-.1 0-.1 0-.1-.1zq-.15 0 0 0" class="st5"/><path d="M264.4 55.9h7.1s.1 0 .1.1v6.1s0 .1-.1.1h-7.1s-.1 0-.1-.1zM264.4 73.9h7.1s.1 0 .1.1v6.1s0 .1-.1.1h-7.1s-.1 0-.1-.1zc0 .1 0 0 0 0M266.3 20h6.2s.1 0 .1.1v7s0 .1-.1.1h-6.2s-.1 0-.1-.1zM248.2 20h6.2s.1 0 .1.1v7s0 .1-.1.1h-6.2s-.1 0-.1-.1zc-.1 0 0 0 0 0M219.6 22.7h6.3c.1 0 .1 0 .1.1v6.6c0 .1 0 .1-.1.1h-6.3c-.1 0-.1 0-.1-.1zc-.1.1 0 0 0 0M228.7 22.7h6.3c.1 0 .1 0 .1.1v6.6c0 .1 0 .1-.1.1h-6.3c-.1 0-.1 0-.1-.1zc-.1.1-.1 0 0 0M276 82.6h6.6c.1 0 .1 0 .1.1V89c0 .1 0 .1-.1.1H276c-.1 0-.1 0-.1-.1zq-.15 0 0 0M276 73.6h6.6c.1 0 .1 0 .1.1V80c0 .1 0 .1-.1.1H276c-.1 0-.1 0-.1-.1zq-.15 0 0 0M280.8 24.4h4.4c.1 0 .1 0 .1.1v9.7c0 .1 0 .1-.1.1h-4.4c-.1 0-.1 0-.1-.1zc-.1.1-.1 0 0 0M286.4 24.4h4.4c.1 0 .1 0 .1.1v9.7c0 .1 0 .1-.1.1h-4.4c-.1 0-.1 0-.1-.1zc-.1.1 0 0 0 0M292.1 24.4h4.4c.1 0 .1 0 .1.1v9.7c0 .1 0 .1-.1.1h-4.4c-.1 0-.1 0-.1-.1zc-.1.1-.1 0 0 0M297.7 24.4h4.4c.1 0 .1 0 .1.1v9.7c0 .1 0 .1-.1.1h-4.4c-.1 0-.1 0-.1-.1zc-.1.1 0 0 0 0M303.4 24.4h4.4c.1 0 .1 0 .1.1v9.7c0 .1 0 .1-.1.1h-4.4c-.1 0-.1 0-.1-.1zc-.1.1-.1 0 0 0M263.3 85.8h6.6c.1 0 .1 0 .1.1v20.7c0 .1 0 .1-.1.1h-6.6c-.1 0-.1 0-.1-.1V85.9c0-.1 0-.1.1-.1M252 85.8h6.6c.1 0 .1 0 .1.1v20.7c0 .1 0 .1-.1.1H252c-.1 0-.1 0-.1-.1V85.9c0-.1 0-.1.1-.1" class="st4"/><path d="M132.6 30h4.5s.1 0 .1.1v4.5s0 .1-.1.1h-4.5s-.1 0-.1-.1zM137.7 30h4.5s.1 0 .1.1v4.5s0 .1-.1.1h-4.5s-.1 0-.1-.1zc-.1 0 0 0 0 0M132.6 37h4.5s.1 0 .1.1v4.5s0 .1-.1.1h-4.5s-.1 0-.1-.1zc0 .1 0 0 0 0M137.7 37h4.5s.1 0 .1.1v4.5s0 .1-.1.1h-4.5s-.1 0-.1-.1zc-.1.1 0 0 0 0" class="st5"/><path d="M85.4 89.7h5.1v7.6h-5.1zM79.8 89.7h5.1v7.6h-5.1zM74.1 89.7h5.1v7.6h-5.1zM68.5 89.7h5.1v7.6h-5.1zM62.8 89.7h5.1v7.6h-5.1zM57.2 89.7h5.1v7.6h-5.1zM51.5 89.7h5.1v7.6h-5.1zM45.9 89.7H51v7.6h-5.1zM40.2 89.7h5.1v7.6h-5.1zM34.6 89.7h5.1v7.6h-5.1zM33.7 79h7.6v5.1h-7.6zM33.7 73.4h7.6v5.1h-7.6zM33.7 67.8h7.6v5.1h-7.6zM33.7 62.1h7.6v5.1h-7.6zM33.7 56.5h7.6v5.1h-7.6zM34.6 43.3h5.1v7.6h-5.1zM40.2 43.3h5.1v7.6h-5.1zM45.9 43.3H51v7.6h-5.1zM51.5 43.3h5.1v7.6h-5.1zM57.2 43.3h5.1v7.6h-5.1zM62.8 43.3h5.1v7.6h-5.1zM68.5 43.3h5.1v7.6h-5.1zM74.1 43.3h5.1v7.6h-5.1zM79.8 43.3h5.1v7.6h-5.1zM85.4 43.3h5.1v7.6h-5.1zM83.7 56.5h7.6v5.1h-7.6zM83.7 62.1h7.6v5.1h-7.6zM83.7 67.8h7.6v5.1h-7.6zM83.7 73.4h7.6v5.1h-7.6zM83.7 79h7.6v5.1h-7.6zM77.2 83.3h5.1v5.1h-5.1zM77.2 77.1h5.1v5.1h-5.1zM77.2 70.9h5.1V76h-5.1zM77.2 64.7h5.1v5.1h-5.1zM77.2 58.5h5.1v5.1h-5.1zM77.2 52.3h5.1v5.1h-5.1zM50.2 77.4h5.1v5.1h-5.1zM50.2 70.9h5.1V76h-5.1zM50.2 64.4h5.1v5.1h-5.1zM50.2 57.9h5.1V63h-5.1zM56.7 70.9h5.1V76h-5.1zM56.7 64.4h5.1v5.1h-5.1zM63.2 77.4h5.1v5.1h-5.1zM63.2 70.9h5.1V76h-5.1zM63.2 64.4h5.1v5.1h-5.1zM63.2 57.9h5.1V63h-5.1zM69.7 70.9h5.1V76h-5.1zM69.7 64.4h5.1v5.1h-5.1zM177.3 106.7h-11.8v7.3h11.9v-7.2zq.15 0 0 0" class="st4"/><path d="M177.2 93.6h-11.8v7.3h11.9v-7.2z" class="st6"/><path d="M167.3 94.5h8.3v18.4h-8.3z" class="st7"/><path d="M168.1 95.6c-.3 0-.5.3-.5.7V111c0 .4.2.7.5.7h6.8c.3 0 .5-.3.5-.7V96.4c0-.4-.2-.7-.5-.7h-6.8z" class="st5"/><path d="M167.3 94.5h8.3v.9h-8.3zM167.3 112.1h8.3v.9h-8.3z" class="st8"/><path d="M254 3.8h-3.9v4.9h4v-.1zq.15.15 0 0M256.8 10.2H253v4.9h4V15zq.15.15 0 0 .15.15 0 0c.1.1.1 0 0 0M251.3 10.3V15h-3.8v-4.7zq-.15-.15 0 0c-.1 0 0 0 0 0" class="st6"/><path d="M250.3 4.6h3.3v2.1h-3.3zM249.1 14.3v.3c0 .1-.1.2-.1.2l-.2.2c-.1.1-.2.1-.3.1s-.2 0-.3-.1c-.1 0-.2-.1-.2-.2-.1-.1-.1-.2-.1-.2v-2h1.3v1.7zM254.7 14.3v-1.7h1.3v2c0 .1-.1.2-.1.2l-.2.2c-.1.1-.2.1-.3.1s-.2 0-.3-.1c-.1 0-.2-.1-.2-.2-.1-.1-.1-.2-.1-.2-.1-.2-.2-.2-.1-.3" class="st5"/><path d="M256.4 6.5c.1 0 .1 0 .2.1.1 0 .1.1.1.2v5.8c0 .1 0 .1-.1.2-.1 0-.1.1-.2.1h-9.1c-.1 0-.1 0-.2-.1-.1 0-.1-.1-.1-.2V6.8c0-.1 0-.1.1-.2.1 0 .1-.1.2-.1z" class="st2"/><path d="M256.4 6.5c.1 0 .1 0 .2.1.1 0 .1.1.1.2v5.8c0 .1 0 .1-.1.2-.1 0-.1.1-.2.1h-9.1c-.1 0-.1 0-.2-.1-.1 0-.1-.1-.1-.2V6.8c0-.1 0-.1.1-.2.1 0 .1-.1.2-.1z" class="st9"/><path d="M256.4 6.5c.1 0 .1 0 .2.1.1 0 .1.1.1.2v5.8c0 .1 0 .1-.1.2-.1 0-.1.1-.2.1h-9.1c-.1 0-.1 0-.2-.1-.1 0-.1-.1-.1-.2V6.8c0-.1 0-.1.1-.2.1 0 .1-.1.2-.1z"/><path d="M314.1 32h5.5v7h-5.5z" style="fill:#86776a"/><path d="M311.3 32h3.1v7h-3.1zM319.4 32h3.1v7h-3.1z" class="st11"/><path d="M248.8 25.6v-4.1c0-.5.2-1.1.6-1.4.4-.4.9-.6 1.4-.6h1v8.2h-1c-.5 0-1.1-.2-1.4-.6s-.6-.9-.6-1.5M272.1 21.5v4.1c0 .5-.2 1.1-.6 1.4-.4.4-.9.6-1.4.6h-1v-8.2h1c.5 0 1.1.2 1.4.6q.6.75.6 1.5" class="st5"/><path d="M268.9 19.3H252c-.1 0-.3 0-.4.1s-.2.1-.3.2-.2.2-.2.3c-.1.1-.1.3-.1.4V27c0 .3.1.5.3.7s.5.3.7.3h16.9c.1 0 .3 0 .4-.1s.2-.1.3-.2.2-.2.2-.3c.1-.1.1-.3.1-.4v-6.8c0-.3-.1-.5-.3-.7-.1-.1-.4-.2-.7-.2"/><path d="M270.1 80.2H266c-.5 0-1.1-.2-1.4-.6-.4-.4-.6-.9-.6-1.4v-1h8.2v1c0 .5-.2 1.1-.6 1.4-.4.4-1 .6-1.5.6M266 56.9h4.1c.5 0 1.1.2 1.4.6.4.4.6.9.6 1.4v1H264v-1c0-.5.2-1.1.6-1.4.3-.4.9-.6 1.4-.6" class="st5"/><path d="M271.5 59.1h-6.8c-.3 0-.5.1-.7.3s-.3.5-.3.7V77c0 .3.1.5.3.7s.5.3.7.3h6.8c.3 0 .5-.1.7-.3s.3-.4.3-.7V60.1c0-.1 0-.3-.1-.4s-.1-.2-.2-.3-.2-.2-.3-.2c-.1-.1-.3-.1-.4-.1" class="st2"/><path d="M271.5 59.1h-6.8c-.3 0-.5.1-.7.3s-.3.5-.3.7V77c0 .3.1.5.3.7s.5.3.7.3h6.8c.3 0 .5-.1.7-.3s.3-.4.3-.7V60.1c0-.1 0-.3-.1-.4s-.1-.2-.2-.3-.2-.2-.3-.2c-.1-.1-.3-.1-.4-.1" class="st9"/><path d="M271.5 59.1h-6.8c-.3 0-.5.1-.7.3s-.3.5-.3.7V77c0 .3.1.5.3.7s.5.3.7.3h6.8c.3 0 .5-.1.7-.3s.3-.4.3-.7V60.1c0-.1 0-.3-.1-.4s-.1-.2-.2-.3-.2-.2-.3-.2c-.1-.1-.3-.1-.4-.1"/><path d="M33.3 42.2h59v56.3h-59z" style="fill:#a2a8a9"/><path d="M33.3 42.1v.1l2.4 2.4H90v-2.3h2.4v-.2z" class="st5"/><path d="M33.3 42.3v2.4h2.4z" class="st13"/><path d="M89.9 42.3h2.4v2.3h-2.4z" class="st5"/><path d="M89.9 44.7v51.4h.1l2.3 2.5h.1V42.3h-.1v2.3h-2.4z" class="st5"/><path d="M89.9 96.1v2.5h2.4z" class="st13"/><path d="M33.2 42.2v56.4h.1v-2.5h2.4V44.7h-2.4v-2.4z" class="st5"/><path d="M33.3 42.3v2.4h2.4zM33.3 96.1h2.4v2.5h-2.4z" class="st5"/><path d="M33.3 96.1v2.5h59.1L90 96.1zM13.4 42.2l.5-.1v.1h5.9v-.1h.5v.1h.1v44.9h5.2V42.2h.1v-.1h.5v.1h5.9v-.1h.5v56.4h-.1v.1h-4.2V95h-2.2v3.6h-6.8V95H17v3.6h-3.7z" class="st5"/><path d="M224.9 26.1c0-.6-.2-1.2-.7-1.6s-1-.7-1.6-.7h9.2v.1h-.1c-.6 0-1.2.3-1.6.7s-.7 1-.7 1.6.2 1.2.7 1.6c.4.4 1 .7 1.6.7h-9.1c.6 0 1.2-.2 1.6-.7.5-.5.7-1.1.7-1.7m.3.5h3.9v-.9h-3.9z" class="st14"/><path d="M231.7 23.8h.1V25h-.1c-.3 0-.6.1-.8.3s-.3.5-.3.8.1.6.3.8.5.3.8.3h.1v1.2h-.1c-.6 0-1.2-.3-1.6-.7s-.7-1-.7-1.6.2-1.2.7-1.6c.4-.4 1-.7 1.6-.7M222.7 23.8h-.1V25h.1c.2 0 .3 0 .4.1s.3.1.4.2.2.2.3.4c.1.1.1.3.1.4 0 .2 0 .3-.1.4s-.1.3-.3.4c-.1.1-.2.2-.4.2-.1.1-.3.1-.4.1h-.1v1.2h.1c.3 0 .6 0 .9-.2.3-.1.5-.3.8-.5.2-.2.4-.5.5-.8s.2-.6.2-.9-.1-.6-.2-.9-.3-.5-.5-.8c-.2-.2-.5-.4-.8-.5z" class="st15"/><path d="M279.3 83.6c-.6 0-1.2.2-1.6.7-.4.4-.7 1-.7 1.6v-9.2h.1v.1c0 .6.3 1.2.7 1.6s1 .6 1.6.6 1.2-.2 1.6-.6.7-1 .7-1.6v9.1c0-.6-.2-1.2-.7-1.6-.5-.5-1.1-.7-1.7-.7m.5-.3v-3.9h-.9v3.9z" class="st14"/><path d="M277 76.8v-.1h1.2v.1c0 .3.1.6.3.8s.5.3.8.3.6-.1.8-.3.3-.5.3-.8v-.1h1.2v.1c0 .6-.3 1.2-.7 1.6s-1 .6-1.6.6-1.2-.2-1.6-.6c-.5-.4-.7-1-.7-1.6M277 85.9v.1h1.2v-.1c0-.2 0-.3.1-.4s.1-.3.2-.4.2-.2.4-.3c.1-.1.3-.1.4-.1.2 0 .3 0 .4.1s.3.1.4.3c.1.1.2.2.2.4.1.1.1.3.1.4v.1h1.2v-.1c0-.3 0-.6-.2-.9-.1-.3-.3-.5-.5-.8-.2-.2-.5-.4-.8-.5s-.6-.2-.9-.2-.6.1-.9.2-.5.3-.8.5c-.2.2-.4.5-.5.8z" class="st15"/><path d="M201.4 5.9h14.4v14.3h-14.4zM201.3 5.9v14.3H187V5.9zM187 5.9v14.3h-14.4V5.9zM172.6 5.9v14.3h-14.4V5.9z" class="st2"/><path d="M230.1 5.9v14.3h-14.4V5.9zM144 5.9v14.3h-14.4V5.9zM158.4 5.9v14.3H144V5.9z" class="st2"/><path d="M129.7 5.9v14.3h-14.4V5.9zM101 5.9v14.3H86.6V5.9z" class="st2"/><path d="M115.3 5.9v14.3H101V5.9z" class="st2"/><path d="M201.4 5.9h14.4v14.3h-14.4zM201.3 5.9v14.3H187V5.9zM187 5.9v14.3h-14.4V5.9zM172.6 5.9v14.3h-14.4V5.9z" class="st9"/><path d="M230.1 5.9v14.3h-14.4V5.9zM144 5.9v14.3h-14.4V5.9zM158.4 5.9v14.3H144V5.9z" class="st9"/><path d="M129.7 5.9v14.3h-14.4V5.9zM101 5.9v14.3H86.6V5.9z" class="st9"/><path d="M115.3 5.9v14.3H101V5.9z" class="st9"/><path d="M201.4 5.9h14.4v14.3h-14.4zM201.3 5.9v14.3H187V5.9zM187 5.9v14.3h-14.4V5.9zM172.6 5.9v14.3h-14.4V5.9z"/><path d="M230.1 5.9v14.3h-14.4V5.9zM144 5.9v14.3h-14.4V5.9zM158.4 5.9v14.3H144V5.9z"/><path d="M129.7 5.9v14.3h-14.4V5.9zM101 5.9v14.3H86.6V5.9z"/><path d="M115.3 5.9v14.3H101V5.9z"/><path d="M190.6 9.5h7.2v7.1h-7.2zM205 9.5h7.2v7.1H205zM219.3 9.5h7.2v7.1h-7.2zM133.3 9.5h7.2v7.1h-7.2zM97.4 9.5v7.2h-7.2V9.5zM126.1 9.5v7.2H119V9.5zM154.8 9.5v7.2h-7.2V9.5zM169.1 9.5v7.2h-7.2V9.5zM183.4 9.5v7.2h-7.2V9.5zM111.8 9.5v7.2h-7.2V9.5z" class="st7"/><path d="M57.9 5.9h14.4v14.3H57.9zM57.9 5.9v14.3H43.6V5.9zM43.6 5.9v14.3H29.2V5.9zM86.6 5.9v14.3H72.3V5.9z" class="st2"/><path d="M57.9 5.9h14.4v14.3H57.9zM57.9 5.9v14.3H43.6V5.9zM43.6 5.9v14.3H29.2V5.9zM86.6 5.9v14.3H72.3V5.9z" class="st9"/><path d="M57.9 5.9h14.4v14.3H57.9zM57.9 5.9v14.3H43.6V5.9zM43.6 5.9v14.3H29.2V5.9zM86.6 5.9v14.3H72.3V5.9z"/><path d="M47.2 9.5h7.2v7.1h-7.2zM61.5 9.5h7.2v7.1h-7.2zM75.9 9.5h7.2v7.1h-7.2zM40 9.5v7.2h-7.2V9.5z" class="st7"/><path d="M201.4 120.5h14.4v14.3h-14.4zM201.3 120.5v14.3H187v-14.3zM187 120.5v14.3h-14.4v-14.3zM172.6 120.5v14.3h-14.4v-14.3z" class="st2"/><path d="M230.1 120.5v14.3h-14.4v-14.3zM144 120.5v14.3h-14.4v-14.3zM158.4 120.5v14.3H144v-14.3z" class="st2"/><path d="M129.7 120.5v14.3h-14.4v-14.3zM101 120.5v14.3H86.6v-14.3z" class="st2"/><path d="M115.3 120.5v14.3H101v-14.3z" class="st2"/><path d="M201.4 120.5h14.4v14.3h-14.4zM201.3 120.5v14.3H187v-14.3zM187 120.5v14.3h-14.4v-14.3zM172.6 120.5v14.3h-14.4v-14.3z" class="st9"/><path d="M230.1 120.5v14.3h-14.4v-14.3zM144 120.5v14.3h-14.4v-14.3zM158.4 120.5v14.3H144v-14.3z" class="st9"/><path d="M129.7 120.5v14.3h-14.4v-14.3zM101 120.5v14.3H86.6v-14.3z" class="st9"/><path d="M115.3 120.5v14.3H101v-14.3z" class="st9"/><path d="M201.4 120.5h14.4v14.3h-14.4zM201.3 120.5v14.3H187v-14.3zM187 120.5v14.3h-14.4v-14.3zM172.6 120.5v14.3h-14.4v-14.3z"/><path d="M230.1 120.5v14.3h-14.4v-14.3zM144 120.5v14.3h-14.4v-14.3zM158.4 120.5v14.3H144v-14.3z"/><path d="M129.7 120.5v14.3h-14.4v-14.3zM101 120.5v14.3H86.6v-14.3z"/><path d="M115.3 120.5v14.3H101v-14.3z"/><path d="M190.6 124h7.2v7.1h-7.2zM205 124h7.2v7.1H205zM219.3 124h7.2v7.1h-7.2zM133.3 124h7.2v7.1h-7.2zM97.4 124v7.2h-7.2V124zM126.1 124v7.2H119V124zM154.8 124v7.2h-7.2V124zM169.1 124v7.2h-7.2V124zM183.4 124v7.2h-7.2V124zM111.8 124v7.2h-7.2V124z" class="st7"/><path d="M57.9 120.5h14.4v14.3H57.9zM57.9 120.5v14.3H43.6v-14.3zM43.6 120.5v14.3H29.2v-14.3zM86.6 120.5v14.3H72.3v-14.3z" class="st2"/><path d="M57.9 120.5h14.4v14.3H57.9zM57.9 120.5v14.3H43.6v-14.3zM43.6 120.5v14.3H29.2v-14.3zM86.6 120.5v14.3H72.3v-14.3z" class="st9"/><path d="M57.9 120.5h14.4v14.3H57.9zM57.9 120.5v14.3H43.6v-14.3zM43.6 120.5v14.3H29.2v-14.3zM86.6 120.5v14.3H72.3v-14.3z"/><path d="M47.2 124h7.2v7.1h-7.2zM61.5 124h7.2v7.1h-7.2zM75.9 124h7.2v7.1h-7.2zM40 124v7.2h-7.2V124z" class="st7"/><path d="M282.3 27.3h1.7v3.9zM288 27.3h1.7v3.9zM293.7 27.3h1.7v3.9zM299.3 27.3h1.7v3.9zM305 27.3h1.7v3.9z" class="st5"/><path d="m282.3 27.3 1.7 3.9h-1.7zM288 27.3l1.7 3.9H288zM293.7 27.3l1.7 3.9h-1.7zM299.3 27.3l1.7 3.9h-1.7zM305 27.3l1.7 3.9H305z" class="st5"/><path d="M274.7 3.4h39.6v23.9h-39.6z" class="st16"/><g class="st17"><g class="st17"><path d="M274.7 23.7h39.6v3.9h-39.6z" class="st18"/></g></g><g class="st17"><g class="st17"><path d="M274.7 15.6h39.6v3.9h-39.6z" class="st18"/></g></g><g class="st17"><g class="st17"><path d="M274.7 7.5h39.6v3.9h-39.6z" class="st18"/></g></g><path d="M238 103.1h44.7V137H238z" class="st16"/><g class="st17"><path d="M238.1 102.9h44.7v4.4h-44.7z" class="st18"/></g><g class="st17"><path d="M238.1 111.7h44.7v4.4h-44.7z" class="st18"/></g><g class="st17"><path d="M238.1 120.5h44.7v4.4h-44.7z" class="st18"/></g><g class="st17"><path d="M238.1 129.1h44.7v4.4h-44.7z" class="st18"/></g><path d="M267.6 103.1V88.5h-2.8v14.6M256.3 103.1V88.5h-2.8v14.6" class="st5"/><path d="M180.2 50.6v39.5h37.1l2.5-2.5v-37z" class="st2"/><path d="M180.2 50.6v39.5h37.1l2.5-2.5v-37z" class="st9"/><path d="M180.2 50.6v39.5h37.1l2.5-2.5v-37z"/><path d="M214.6 49.4h2.4v2.4h-2.4zM211.7 49.4h2.4v2.4h-2.4zM208.8 49.4h2.4v2.4h-2.4zM206 49.4h2.4v2.4H206zM203.1 49.4h2.4v2.4h-2.4zM200.2 49.4h2.4v2.4h-2.4zM197.3 49.4h2.4v2.4h-2.4zM194.4 49.4h2.4v2.4h-2.4zM191.5 49.4h2.4v2.4h-2.4zM188.7 49.4h2.4v2.4h-2.4zM185.8 49.4h2.4v2.4h-2.4zM182.9 49.4h2.4v2.4h-2.4zM214.6 88.9h2.4v2.4h-2.4zM211.7 88.9h2.4v2.4h-2.4zM208.8 88.9h2.4v2.4h-2.4zM206 88.9h2.4v2.4H206zM203.1 88.9h2.4v2.4h-2.4zM200.2 88.9h2.4v2.4h-2.4zM197.3 88.9h2.4v2.4h-2.4zM194.4 88.9h2.4v2.4h-2.4zM191.5 88.9h2.4v2.4h-2.4zM188.7 88.9h2.4v2.4h-2.4zM185.8 88.9h2.4v2.4h-2.4zM182.9 88.9h2.4v2.4h-2.4zM221 83.5V86h-2.4v-2.4h2.4zM221 80.7v2.4h-2.4v-2.4zM221 77.8v2.4h-2.4v-2.4zM221 74.9v2.4h-2.4v-2.4zM221 72.1v2.4h-2.4v-2.4zM221 69.2v2.4h-2.4v-2.4zM221 66.3v2.4h-2.4v-2.4zM221 63.4v2.4h-2.4v-2.4zM221 60.6V63h-2.4v-2.4zM221 57.7v2.4h-2.4v-2.4zM221 54.8v2.4h-2.4v-2.4zM181.4 83.6V86H179v-2.4zM181.4 80.7v2.4H179v-2.4zM181.4 77.8v2.4H179v-2.4zM181.4 74.9v2.4H179v-2.4zM181.4 72.1v2.4H179v-2.4zM181.4 69.2v2.4H179v-2.4zM181.4 66.3v2.4H179v-2.4zM181.4 63.4v2.4H179v-2.4zM181.4 60.6V63H179v-2.4zM181.4 57.7v2.4H179v-2.4zM181.4 54.8v2.4H179v-2.4z" class="st5"/><path d="M326.7 61.4h-6.9s-.1 0-.1.1l-.1.1v1.9c0 .1 0 .2.1.2.1.1.1.1.2.1h6.8c.1 0 .2 0 .2-.1.1-.1.1-.1.1-.2v-1.9s0-.1-.1-.1l-.1-.1zM326.7 64.9h-6.8c-.1 0-.2 0-.2.1-.1.1-.1.1-.1.2V67c0 .1 0 .2.1.2.1.1.1.1.2.1h6.8c.1 0 .2 0 .2-.1.1-.1.1-.1.1-.2v-1.8c0-.1 0-.2-.1-.2 0-.1-.1-.1-.2-.1M326.7 68.4h-6.8c-.1 0-.2 0-.2.1-.1.1-.1.1-.1.2v1.8c0 .1 0 .2.1.2.1.1.1.1.2.1h6.8c.1 0 .2 0 .2-.1.1-.1.1-.1.1-.2v-1.9s0-.1-.1-.1l-.1-.1zM326.7 71.8h-6.8c-.1 0-.2 0-.2.1s-.1.1-.1.2V74c0 .1 0 .2.1.2.1.1.1.1.2.1h6.8c.1 0 .2 0 .2-.1s.1-.2.1-.2v-1.9s0-.1-.1-.1c0 0-.1 0-.1-.1s0-.1-.1-.1M326.7 75.3h-6.8c-.1 0-.2 0-.2.1-.1.1-.1.1-.1.2v1.9s0 .1.1.1l.1.1h7s.1 0 .1-.1c0 0 0-.1.1-.1v-2s0-.1-.1-.1l-.1-.1z" class="st13"/><path d="M323.5 49.8h29.9v38.9h-29.9z" class="st8"/><path d="M326.5 88.7h-3V49.8h3v38.9M332.5 88.7h-3V49.8h3v38.9M338.5 88.7h-3V49.8h3v38.9M344.5 88.7h-3V49.8h3v38.9M350.4 88.7h-3V49.8h3v38.9M126.8 63.5h5v1.8h-5zM126.8 69.5h5v1.8h-5zM126.8 75.5h5v1.8h-5zM107.7 63.5h5v1.8h-5zM107.7 69.5h5v1.8h-5zM107.7 75.5h5v1.8h-5z" class="st5"/><path d="M109.8 59.9h19.8v21h-19.8z" class="st16"/><path d="M343.2 37.3h-15.1v-6h15.1z" class="st5"/><path d="M331.1 34.3c0 .9.3 1.8.8 2.6s1.2 1.4 2.1 1.7c.8.3 1.8.4 2.7.3.9-.2 1.7-.6 2.4-1.3.6-.6 1.1-1.5 1.3-2.4q.3-1.35-.3-2.7c-.4-.8-.9-1.6-1.7-2.1s-1.7-.8-2.6-.8c-1.2 0-2.4.5-3.3 1.4s-1.4 2-1.4 3.3" style="fill:#21a68b"/><path d="M238.7 18.3v-15h6v15z" class="st5"/><path d="M241.7 6.2c-.9 0-1.8.3-2.6.8s-1.4 1.2-1.7 2.1c-.4.8-.4 1.8-.3 2.7.2.9.6 1.7 1.3 2.4.6.6 1.5 1.1 2.4 1.3q1.35.3 2.7-.3c.8-.3 1.6-.9 2.1-1.7s.8-1.7.8-2.6c0-1.2-.5-2.4-1.4-3.3s-2.1-1.4-3.3-1.4" style="fill:#e9a726"/><path d="M343.2 109.5h-15.1v-6h15.1z" class="st5"/><path d="M331.1 106.5c0 .9.3 1.8.8 2.6s1.2 1.4 2.1 1.7c.8.3 1.8.4 2.7.3.9-.2 1.7-.6 2.4-1.3.6-.6 1.1-1.5 1.3-2.4q.3-1.35-.3-2.7c-.4-.8-.9-1.6-1.7-2.1s-1.7-.8-2.6-.8c-.6 0-1.2.1-1.8.4-.6.2-1.1.6-1.5 1s-.8.9-1 1.5c-.3.6-.4 1.2-.4 1.8" style="fill:#d35d27"/><path d="M285.7 80.9H297v8.8h-11.3z" class="st2"/><path d="M285.7 80.9H297v8.8h-11.3z" class="st9"/><path d="M285.7 80.9H297v8.8h-11.3z"/><path d="M295.2 79c.5 0 1 .2 1.3.6.4.4.6.8.6 1.3h-3.8c0-.5.2-1 .6-1.3.3-.4.8-.6 1.3-.6M291.4 79c.2 0 .5 0 .7.1s.4.2.6.4.3.4.4.6.1.5.1.7h-3.8c0-.5.2-1 .6-1.3s.9-.5 1.4-.5" class="st5"/><path d="M287.6 79c.5 0 1 .2 1.3.6.4.4.6.8.6 1.3h-3.8c0-.5.2-1 .6-1.3.3-.4.8-.6 1.3-.6M295.2 91.5c.5 0 1-.2 1.3-.6.4-.4.6-.8.6-1.3h-3.8c0 .5.2 1 .6 1.3.3.4.8.6 1.3.6M291.4 91.5c.2 0 .5 0 .7-.1s.4-.2.6-.4.3-.4.4-.6.1-.5.1-.7h-3.8c0 .5.2 1 .6 1.3s.9.5 1.4.5" class="st5"/><path d="M287.6 91.5c.5 0 1-.2 1.3-.6.4-.4.6-.8.6-1.3h-3.8c0 .5.2 1 .6 1.3.3.4.8.6 1.3.6" class="st5"/><path d="M105.6 37.6h8.8v11.3h-8.8z" class="st2"/><path d="M105.6 37.6h8.8v11.3h-8.8z" class="st9"/><path d="M105.6 37.6h8.8v11.3h-8.8z"/><path d="M116.3 47.1c0 .5-.2 1-.6 1.3-.4.4-.8.6-1.3.6v-3.8c.5 0 1 .2 1.3.6.4.3.6.8.6 1.3M116.3 43.3c0 .5-.2 1-.6 1.3-.4.4-.8.6-1.3.6v-3.8c.5 0 1 .2 1.3.6.4.3.6.8.6 1.3M116.3 39.5c0 .5-.2 1-.6 1.3-.4.4-.8.6-1.3.6v-3.8c.5 0 1 .2 1.3.6.4.3.6.8.6 1.3M103.7 47.1c0 .5.2 1 .6 1.3.4.4.8.6 1.3.6v-3.8c-.5 0-1 .2-1.3.6-.4.3-.6.8-.6 1.3M103.7 43.3c0 .5.2 1 .6 1.3.4.4.8.6 1.3.6v-3.8c-.5 0-1 .2-1.3.6-.4.3-.6.8-.6 1.3M103.7 39.5c0 .5.2 1 .6 1.3.4.4.8.6 1.3.6v-3.8c-.5 0-1 .2-1.3.6-.4.3-.6.8-.6 1.3" class="st5"/><path d="M219.2 98.9h16.7v9.7h-16.7z" class="st2"/><path d="M219.2 98.9h16.7v9.7h-16.7z" class="st9"/><path d="M219.2 98.9h16.7v9.7h-16.7z"/><path d="M226.7 95.8h1.8v5h-1.8zM231.7 107.5h1.8v5h-1.8zM231.7 95.8h1.8v5h-1.8zM221.6 107.5h1.8v5h-1.8zM221.6 95.8h1.8v5h-1.8z" class="st5"/><path d="M299.5 63.4h16.7v9.7h-16.7z" class="st2"/><path d="M299.5 63.4h16.7v9.7h-16.7z" class="st9"/><path d="M299.5 63.4h16.7v9.7h-16.7z"/><path d="M312 72h1.8v5H312zM312 60.3h1.8v5H312zM301.8 72h1.8v5h-1.8zM301.8 60.3h1.8v5h-1.8z" class="st5"/><path d="M138.4 98.9h16.7v9.7h-16.7z" class="st2"/><path d="M138.4 98.9h16.7v9.7h-16.7z" class="st9"/><path d="M138.4 98.9h16.7v9.7h-16.7z"/><path d="M145.8 95.8h1.8v5h-1.8zM150.9 107.5h1.8v5h-1.8zM150.9 95.8h1.8v5h-1.8zM140.8 107.5h1.8v5h-1.8zM140.8 95.8h1.8v5h-1.8z" class="st5"/><path d="M289.4 104.1V128h24v-23.9z"/><path d="M309 126.4h1.6v3.2H309zM306.6 126.4h1.6v3.2h-1.6zM304.2 126.4h1.6v3.2h-1.6zM301.8 126.4h1.6v3.2h-1.6zM299.4 126.4h1.6v3.2h-1.6zM297 126.4h1.6v3.2H297zM294.6 126.4h1.6v3.2h-1.6zM292.2 126.4h1.6v3.2h-1.6zM287.8 106.9h3.2v1.6h-3.2zM287.8 109.3h3.2v1.6h-3.2zM287.8 111.7h3.2v1.6h-3.2zM287.8 114.1h3.2v1.6h-3.2zM287.8 116.4h3.2v1.6h-3.2zM287.8 118.8h3.2v1.6h-3.2zM287.8 121.2h3.2v1.6h-3.2zM287.8 123.6h3.2v1.6h-3.2zM311.7 106.9h3.2v1.6h-3.2zM311.7 109.3h3.2v1.6h-3.2zM311.7 111.7h3.2v1.6h-3.2zM311.7 114.1h3.2v1.6h-3.2zM311.7 116.4h3.2v1.6h-3.2zM311.7 118.8h3.2v1.6h-3.2zM311.7 121.2h3.2v1.6h-3.2zM311.7 123.6h3.2v1.6h-3.2zM309 102.5h1.6v3.2H309zM306.6 102.5h1.6v3.2h-1.6zM304.2 102.5h1.6v3.2h-1.6zM301.8 102.5h1.6v3.2h-1.6zM299.4 102.5h1.6v3.2h-1.6zM297 102.5h1.6v3.2H297zM294.6 102.5h1.6v3.2h-1.6zM292.2 102.5h1.6v3.2h-1.6z" class="st5"/><path d="M158.7 51.8h11.4v16.6h-11.4z" class="st2"/><path d="M158.7 51.8h11.4v16.6h-11.4z" class="st9"/><path d="M158.7 51.8h11.4v16.6h-11.4z"/><path d="M168.6 50.4c.4 0 .7.1 1 .4s.4.6.4 1h-2.8c0-.4.2-.7.4-1 .3-.3.7-.4 1-.4" class="st5"/><path d="M165.8 50.4c.4 0 .7.1 1 .4s.4.6.4 1h-2.9c0-.2 0-.4.1-.5.1-.2.2-.3.3-.5.1-.1.3-.2.5-.3s.4-.1.6-.1" class="st5"/><path d="M163 50.4c.4 0 .7.1 1 .4s.4.6.4 1h-2.8c0-.4.1-.7.4-1 .2-.3.6-.4 1-.4M168.6 69.7c.4 0 .7-.1 1-.4s.4-.6.4-1h-2.8c0 .4.2.7.4 1 .3.3.7.4 1 .4" class="st5"/><path d="M165.8 69.7c.4 0 .7-.1 1-.4s.4-.6.4-1h-2.9c0 .2 0 .4.1.5.1.2.2.3.3.5.1.1.3.2.5.3s.4.1.6.1" class="st5"/><path d="M163 69.7c.4 0 .7-.1 1-.4s.4-.6.4-1h-2.8c0 .4.1.7.4 1 .2.3.6.4 1 .4M160.1 50.4c.4 0 .7.1 1 .4s.4.6.4 1h-2.8c0-.4.2-.7.4-1 .3-.3.6-.4 1-.4M160.1 69.7c.4 0 .7-.1 1-.4s.4-.6.4-1h-2.8c0 .4.2.7.4 1 .3.3.6.4 1 .4M149.3 72.3h6.7V79h-6.7zM149.3 60h6.7v6.7h-6.7z" class="st5"/><path d="M149.3 66.7h6.7v5.6h-6.7z" class="st2"/><path d="M149.3 66.7h6.7v5.6h-6.7z" class="st9"/><path d="M149.3 66.7h6.7v5.6h-6.7z"/><path d="m156.1 74.5-3.4 3.3-3.4-3.3v-2.1h6.7v2.1zM149.3 64.6l3.4-3.3 3.4 3.3v2.1h-6.7v-2.1z" class="st7"/><path d="M159.2 85.1h6.7v6.7h-6.7zM159.2 72.8h6.7v6.7h-6.7z" class="st5"/><path d="M159.2 79.5h6.7v5.6h-6.7z" class="st2"/><path d="M159.2 79.5h6.7v5.6h-6.7z" class="st9"/><path d="M159.2 79.5h6.7v5.6h-6.7z"/><path d="m165.9 87.3-3.4 3.3-3.4-3.3v-2.1h6.7v2.1zM159.2 77.4l3.4-3.3 3.4 3.3v2.1h-6.7v-2.1z" class="st7"/><path d="M228.3 44.5h6.7v6.7h-6.7zM228.3 32.1h6.7v6.7h-6.7z" class="st5"/><path d="M228.3 38.8h6.7v5.6h-6.7z" class="st2"/><path d="M228.3 38.8h6.7v5.6h-6.7z" class="st9"/><path d="M228.3 38.8h6.7v5.6h-6.7z"/><path d="m235 46.6-3.4 3.3-3.4-3.3v-2.1h6.7v2.1zM228.3 36.7l3.4-3.3 3.4 3.3v2.1h-6.7v-2.1z" class="st7"/><path d="M238.2 44.5h6.7v6.7h-6.7zM238.2 32.1h6.7v6.7h-6.7z" class="st5"/><path d="M238.2 38.8h6.7v5.6h-6.7z" class="st2"/><path d="M238.2 38.8h6.7v5.6h-6.7z" class="st9"/><path d="M238.2 38.8h6.7v5.6h-6.7z"/><path d="m244.9 46.6-3.4 3.3-3.4-3.3v-2.1h6.7v2.1zM238.2 36.7l3.4-3.3 3.4 3.3v2.1h-6.7v-2.1z" class="st7"/><path d="M235.7 59.4h3.9v4.7h-3.9zM235.7 76.7h3.9v4.6h-3.9zM251.8 59.4h3.9v4.7h-3.9zM251.8 76.7h3.9v4.6h-3.9z" class="st5"/><path d="M237.7 57.7h16v25.5h-16z" class="st13"/><path d="M245.7 75.5h.6l.6-.1.6-.1.5-.2.5-.3.5-.3.4-.4.4-.4.3-.4.3-.5.2-.5.2-.5.1-.6.1-.6V70l-.1-.6-.1-.6-.2-.5-.3-.5-.3-.5-.4-.4-.4-.4-.4-.3-.5-.3-.5-.2-.5-.2-.5-.1-.6-.1h-.6l-.6.1-.5.1-.5.2-.5.2-.5.3-.4.3-.6.5-.4.4-.3.5-.3.5-.2.5-.1.6-.1.6v1.2l.1.6.2.5.2.5.3.5.3.4.4.4.4.4.5.3.5.3.5.2.5.1.6.1z" style="fill:#e5ebea"/><path d="M316.4 98.2h4.5s.1 0 .1.1v4.5s0 .1-.1.1h-4.5s-.1 0-.1-.1zM316.4 93.1h4.5s.1 0 .1.1v4.5s0 .1-.1.1h-4.5s-.1 0-.1-.1zc0 .1 0 0 0 0" class="st5"/><path d="M320.6 96.1v3.9c0 .5-.2 1-.6 1.4s-.9.6-1.4.6-1-.2-1.4-.6-.6-.8-.6-1.4v-3.9c0-.5.2-1 .6-1.4s.9-.6 1.4-.6 1 .2 1.4.6.6.9.6 1.4" class="st13"/><path d="M316.8 96.5h3.9v2.9h-3.9z" class="st2"/><path d="M316.8 96.5h3.9v2.9h-3.9z" class="st9"/><path d="M316.8 96.5h3.9v2.9h-3.9z"/><path d="M322.5 95.7h4.5s.1 0 .1.1v4.5s0 .1-.1.1h-4.5s-.1 0-.1-.1zq-.15 0 0 0M327.6 95.7h4.5s.1 0 .1.1v4.5s0 .1-.1.1h-4.5s-.1 0-.1-.1zq-.15 0 0 0" class="st5"/><path d="M329.2 99.9h-3.9c-.5 0-1-.2-1.4-.6s-.6-.8-.6-1.4c0-.5.2-1 .6-1.4s.9-.6 1.4-.6h3.9c.5 0 1 .2 1.4.6s.6.9.6 1.4-.2 1-.6 1.4-.9.6-1.4.6" class="st13"/><path d="M325.8 96.1h2.9v3.9h-2.9z" class="st2"/><path d="M325.8 96.1h2.9v3.9h-2.9z" class="st9"/><path d="M325.8 96.1h2.9v3.9h-2.9z"/><path d="M316.4 128.3h4.5s.1 0 .1.1v4.5s0 .1-.1.1h-4.5s-.1 0-.1-.1zc0 .1 0 0 0 0M316.4 123.3h4.5s.1 0 .1.1v4.5s0 .1-.1.1h-4.5s-.1 0-.1-.1z" class="st5"/><path d="M320.6 126.2v3.9c0 .5-.2 1-.6 1.4s-.9.6-1.4.6-1-.2-1.4-.6-.6-.8-.6-1.4v-3.9c0-.5.2-1 .6-1.4s.9-.6 1.4-.6 1 .2 1.4.6.6.9.6 1.4" class="st13"/><path d="M316.8 126.7h3.9v2.9h-3.9z" class="st2"/><path d="M316.8 126.7h3.9v2.9h-3.9z" class="st9"/><path d="M316.8 126.7h3.9v2.9h-3.9z"/><path d="M283.8 95.7h4.5s.1 0 .1.1v4.5s0 .1-.1.1h-4.5s-.1 0-.1-.1zq-.15 0 0 0M288.9 95.7h4.5s.1 0 .1.1v4.5s0 .1-.1.1h-4.5s-.1 0-.1-.1zq-.15 0 0 0" class="st5"/><path d="M290.5 99.9h-3.9c-.5 0-1-.2-1.4-.6s-.6-.8-.6-1.4c0-.5.2-1 .6-1.4s.9-.6 1.4-.6h3.9c.5 0 1 .2 1.4.6s.6.9.6 1.4-.2 1-.6 1.4-.9.6-1.4.6" class="st13"/><path d="M287.2 96.1h2.9v3.9h-2.9z" class="st2"/><path d="M287.2 96.1h2.9v3.9h-2.9z" class="st9"/><path d="M287.2 96.1h2.9v3.9h-2.9z"/><path d="M290.5 133.9h4.5s.1 0 .1.1v4.5s0 .1-.1.1h-4.5s-.1 0-.1-.1zM295.6 133.9h4.5s.1 0 .1.1v4.5s0 .1-.1.1h-4.5s-.1 0-.1-.1zc-.1 0 0 0 0 0" class="st5"/><path d="M297.2 138.2h-3.9c-.5 0-1-.2-1.4-.6s-.6-.8-.6-1.4c0-.5.2-1 .6-1.4s.9-.6 1.4-.6h3.9c.5 0 1 .2 1.4.6s.6.9.6 1.4-.2 1-.6 1.4-.9.6-1.4.6" class="st13"/><path d="M293.9 134.3h2.9v3.9h-2.9z" class="st2"/><path d="M293.9 134.3h2.9v3.9h-2.9z" class="st9"/><path d="M293.9 134.3h2.9v3.9h-2.9z"/><path d="M301.9 133.9h4.5s.1 0 .1.1v4.5s0 .1-.1.1h-4.5s-.1 0-.1-.1zq-.15 0 0 0M306.9 133.9h4.5s.1 0 .1.1v4.5s0 .1-.1.1h-4.5s-.1 0-.1-.1z" class="st5"/><path d="M308.5 138.2h-3.9c-.5 0-1-.2-1.4-.6s-.6-.8-.6-1.4c0-.5.2-1 .6-1.4s.9-.6 1.4-.6h3.9c.5 0 1 .2 1.4.6s.6.9.6 1.4-.2 1-.6 1.4c-.3.4-.8.6-1.4.6" class="st13"/><path d="M305.2 134.3h2.9v3.9h-2.9z" class="st2"/><path d="M305.2 134.3h2.9v3.9h-2.9z" class="st9"/><path d="M305.2 134.3h2.9v3.9h-2.9z"/><path d="M271.7 96.6h4.5s.1 0 .1.1v4.5s0 .1-.1.1h-4.5s-.1 0-.1-.1zc-.1.1 0 0 0 0M271.7 91.6h4.5s.1 0 .1.1v4.5s0 .1-.1.1h-4.5s-.1 0-.1-.1zc-.1 0 0 0 0 0" class="st5"/><path d="M275.9 94.5v3.9c0 .5-.2 1-.6 1.4s-.9.6-1.4.6-1-.2-1.4-.6-.6-.8-.6-1.4v-3.9c0-.5.2-1 .6-1.4s.9-.6 1.4-.6 1 .2 1.4.6.6.9.6 1.4" class="st13"/><path d="M272 95h3.9v2.9H272z" class="st2"/><path d="M272 95h3.9v2.9H272z" class="st9"/><path d="M272 95h3.9v2.9H272z"/><path d="M285.8 71.2h4.5s.1 0 .1.1v4.5s0 .1-.1.1h-4.5s-.1 0-.1-.1zc-.1.1-.1 0 0 0M290.9 71.2h4.5s.1 0 .1.1v4.5s0 .1-.1.1h-4.5s-.1 0-.1-.1zc-.1.1-.1 0 0 0" class="st5"/><path d="M292.4 75.5h-3.9c-.5 0-1-.2-1.4-.6s-.6-.8-.6-1.4c0-.5.2-1 .6-1.4s.9-.6 1.4-.6h3.9c.5 0 1 .2 1.4.6s.6.9.6 1.4-.2 1-.6 1.4c-.3.4-.8.6-1.4.6" class="st13"/><path d="M289.1 71.6h2.9v3.9h-2.9z" class="st2"/><path d="M289.1 71.6h2.9v3.9h-2.9z" class="st9"/><path d="M289.1 71.6h2.9v3.9h-2.9z"/><path d="M305.1 84.7h4.5s.1 0 .1.1v4.5s0 .1-.1.1h-4.5s-.1 0-.1-.1zc-.1.1 0 0 0 0M305.1 79.7h4.5s.1 0 .1.1v4.5s0 .1-.1.1h-4.5s-.1 0-.1-.1zc-.1 0 0 0 0 0" class="st5"/><path d="M309.3 82.6v3.9c0 .5-.2 1-.6 1.4s-.9.6-1.4.6-1-.2-1.4-.6-.6-.8-.6-1.4v-3.9c0-.5.2-1 .6-1.4s.9-.6 1.4-.6 1 .2 1.4.6.6.9.6 1.4" class="st13"/><path d="M305.4 83.1h3.9V86h-3.9z" class="st2"/><path d="M305.4 83.1h3.9V86h-3.9z" class="st9"/><path d="M305.4 83.1h3.9V86h-3.9z"/><path d="M236.1 87.4h4.5s.1 0 .1.1V92s0 .1-.1.1h-4.5s-.1 0-.1-.1zc0 .1 0 0 0 0M241.2 87.4h4.5s.1 0 .1.1V92s0 .1-.1.1h-4.5s-.1 0-.1-.1zc-.1.1 0 0 0 0" class="st5"/><path d="M242.8 91.7h-3.9c-.5 0-1-.2-1.3-.6s-.5-.8-.5-1.3.2-1 .5-1.3c.3-.4.8-.6 1.3-.6h3.9c.5 0 1 .2 1.4.6s.6.9.6 1.4-.2 1-.6 1.4c-.4.2-.9.4-1.4.4" class="st13"/><path d="M239.5 87.8h2.9v3.9h-2.9z" class="st2"/><path d="M239.5 87.8h2.9v3.9h-2.9z" class="st9"/><path d="M239.5 87.8h2.9v3.9h-2.9z"/><path d="M224.5 87.4h4.5s.1 0 .1.1V92s0 .1-.1.1h-4.5s-.1 0-.1-.1zc-.1.1 0 0 0 0M229.6 87.4h4.5s.1 0 .1.1V92s0 .1-.1.1h-4.5s-.1 0-.1-.1zc-.1.1-.1 0 0 0" class="st5"/><path d="M231.2 91.7h-3.9c-.5 0-1-.2-1.3-.6s-.5-.8-.5-1.3.2-1 .5-1.3c.3-.4.8-.6 1.3-.6h3.9c.5 0 1 .2 1.4.6s.6.9.6 1.4-.2 1-.6 1.4c-.4.2-.9.4-1.4.4" class="st13"/><path d="M227.9 87.8h2.9v3.9h-2.9z" class="st2"/><path d="M227.9 87.8h2.9v3.9h-2.9z" class="st9"/><path d="M227.9 87.8h2.9v3.9h-2.9z"/><path d="M224.5 113.6h4.5s.1 0 .1.1v4.5s0 .1-.1.1h-4.5s-.1 0-.1-.1zc-.1.1 0 0 0 0M229.6 113.6h4.5s.1 0 .1.1v4.5s0 .1-.1.1h-4.5s-.1 0-.1-.1zc-.1.1-.1 0 0 0" class="st5"/><path d="M231.2 117.9h-3.9c-.5 0-1-.2-1.3-.6s-.5-.8-.5-1.3.2-1 .5-1.3c.3-.4.8-.6 1.3-.6h3.9c.5 0 1 .2 1.4.6s.6.9.6 1.4-.2 1-.6 1.4c-.4.2-.9.4-1.4.4" class="st13"/><path d="M227.9 114h2.9v3.9h-2.9z" class="st2"/><path d="M227.9 114h2.9v3.9h-2.9z" class="st9"/><path d="M227.9 114h2.9v3.9h-2.9z"/><path d="M211.7 113.6h4.5s.1 0 .1.1v4.5s0 .1-.1.1h-4.5s-.1 0-.1-.1zc-.1.1 0 0 0 0M216.8 113.6h4.5s.1 0 .1.1v4.5s0 .1-.1.1h-4.5s-.1 0-.1-.1zc-.1.1-.1 0 0 0" class="st5"/><path d="M218.4 117.9h-3.9c-.5 0-1-.2-1.3-.6s-.5-.8-.5-1.3.2-1 .5-1.3c.3-.4.8-.6 1.3-.6h3.9c.5 0 1 .2 1.4.6s.6.9.6 1.4-.2 1-.6 1.4c-.4.2-.9.4-1.4.4" class="st13"/><path d="M215.1 114h2.9v3.9h-2.9z" class="st2"/><path d="M215.1 114h2.9v3.9h-2.9z" class="st9"/><path d="M215.1 114h2.9v3.9h-2.9z"/><path d="M201 110.5h4.5s.1 0 .1.1v4.5s0 .1-.1.1H201s-.1 0-.1-.1zc0 .1 0 0 0 0M201 105.5h4.5s.1 0 .1.1v4.5s0 .1-.1.1H201s-.1 0-.1-.1z" class="st5"/><path d="M205.2 108.4v3.9c0 .5-.2 1-.6 1.4s-.9.6-1.4.6-1-.2-1.4-.6-.6-.8-.6-1.4v-3.9c0-.5.2-1 .6-1.4s.9-.6 1.4-.6 1 .2 1.4.6.6.9.6 1.4" class="st13"/><path d="M201.3 108.9h3.9v2.9h-3.9z" class="st2"/><path d="M201.3 108.9h3.9v2.9h-3.9z" class="st9"/><path d="M201.3 108.9h3.9v2.9h-3.9z"/><path d="M195.5 110.5h4.5s.1 0 .1.1v4.5s0 .1-.1.1h-4.5s-.1 0-.1-.1zc-.1.1 0 0 0 0M195.5 105.5h4.5s.1 0 .1.1v4.5s0 .1-.1.1h-4.5s-.1 0-.1-.1zc-.1 0 0 0 0 0" class="st5"/><path d="M199.7 108.4v3.9c0 .5-.2 1-.6 1.4s-.9.6-1.4.6-1-.2-1.4-.6-.6-.8-.6-1.4v-3.9c0-.5.2-1 .6-1.4s.9-.6 1.4-.6 1 .2 1.4.6.6.9.6 1.4" class="st13"/><path d="M195.8 108.9h3.9v2.9h-3.9z" class="st2"/><path d="M195.8 108.9h3.9v2.9h-3.9z" class="st9"/><path d="M195.8 108.9h3.9v2.9h-3.9z"/><path d="M190 110.5h4.5s.1 0 .1.1v4.5s0 .1-.1.1H190s-.1 0-.1-.1zc-.1.1 0 0 0 0M190 105.5h4.5s.1 0 .1.1v4.5s0 .1-.1.1H190s-.1 0-.1-.1zc-.1 0 0 0 0 0" class="st5"/><path d="M194.2 108.4v3.9c0 .5-.2 1-.6 1.4s-.9.6-1.4.6-1-.2-1.4-.6-.6-.8-.6-1.4v-3.9c0-.3 0-.5.1-.8.1-.2.2-.5.4-.6.2-.2.4-.3.6-.4s.5-.2.8-.2.5.1.8.2c.2.1.5.2.6.4.2.2.3.4.4.6.3.3.3.6.3.8" class="st13"/><path d="M190.3 108.9h3.9v2.9h-3.9z" class="st2"/><path d="M190.3 108.9h3.9v2.9h-3.9z" class="st9"/><path d="M190.3 108.9h3.9v2.9h-3.9z"/><path d="M195.5 99.2h4.5s.1 0 .1.1v4.5s0 .1-.1.1h-4.5s-.1 0-.1-.1zc-.1 0 0 0 0 0M195.5 94.1h4.5s.1 0 .1.1v4.5s0 .1-.1.1h-4.5s-.1 0-.1-.1zc-.1.1 0 0 0 0" class="st5"/><path d="M199.7 97.1v3.9c0 .5-.2 1-.6 1.4s-.9.6-1.4.6-1-.2-1.4-.6-.6-.8-.6-1.4v-3.9c0-.5.2-1 .6-1.4s.9-.6 1.4-.6 1 .2 1.4.6.6.9.6 1.4" class="st13"/><path d="M195.8 97.5h3.9v2.9h-3.9z" class="st2"/><path d="M195.8 97.5h3.9v2.9h-3.9z" class="st9"/><path d="M195.8 97.5h3.9v2.9h-3.9z"/><path d="M158.4 110.5h4.5s.1 0 .1.1v4.5s0 .1-.1.1h-4.5s-.1 0-.1-.1zc-.1.1-.1 0 0 0M158.4 105.5h4.5s.1 0 .1.1v4.5s0 .1-.1.1h-4.5s-.1 0-.1-.1zq-.15 0 0 0" class="st5"/><path d="M162.5 108.4v3.9c0 .5-.2 1-.6 1.3s-.8.5-1.3.5-1-.2-1.3-.5c-.4-.3-.6-.8-.6-1.3v-3.9c0-.5.2-1 .6-1.4s.9-.6 1.4-.6 1 .2 1.4.6c.2.4.4.9.4 1.4" class="st13"/><path d="M158.7 108.9h3.9v2.9h-3.9z" class="st2"/><path d="M158.7 108.9h3.9v2.9h-3.9z" class="st9"/><path d="M158.7 108.9h3.9v2.9h-3.9z"/><path d="M158.4 98.3h4.5s.1 0 .1.1v4.5s0 .1-.1.1h-4.5s-.1 0-.1-.1zq-.15 0 0 0M158.4 93.2h4.5s.1 0 .1.1v4.5s0 .1-.1.1h-4.5s-.1 0-.1-.1zc-.1.1-.1 0 0 0" class="st5"/><path d="M162.5 96.2v3.9c0 .5-.2 1-.6 1.3s-.8.5-1.3.5-1-.2-1.3-.5c-.4-.3-.6-.8-.6-1.3v-3.9c0-.3.1-.5.1-.7.1-.2.2-.4.4-.6s.4-.3.6-.4.5-.1.7-.1c.3 0 .5.1.7.1.2.1.4.2.6.4s.3.4.4.6c.3.2.3.4.3.7" class="st13"/><path d="M158.7 96.6h3.9v2.9h-3.9z" class="st2"/><path d="M158.7 96.6h3.9v2.9h-3.9z" class="st9"/><path d="M158.7 96.6h3.9v2.9h-3.9z"/><path d="M130.4 110.5h4.5s.1 0 .1.1v4.5s0 .1-.1.1h-4.5s-.1 0-.1-.1zc-.1.1 0 0 0 0M130.4 105.5h4.5s.1 0 .1.1v4.5s0 .1-.1.1h-4.5s-.1 0-.1-.1zc-.1 0 0 0 0 0" class="st5"/><path d="M134.6 108.4v3.9c0 .5-.2 1-.6 1.4s-.9.6-1.4.6-1-.2-1.4-.6-.6-.8-.6-1.4v-3.9c0-.5.2-1 .6-1.4s.9-.6 1.4-.6 1 .2 1.4.6.6.9.6 1.4" class="st13"/><path d="M130.7 108.9h3.9v2.9h-3.9z" class="st2"/><path d="M130.7 108.9h3.9v2.9h-3.9z" class="st9"/><path d="M130.7 108.9h3.9v2.9h-3.9z"/><path d="M150.3 86.4h4.5s.1 0 .1.1V91s0 .1-.1.1h-4.5s-.1 0-.1-.1zq-.15 0 0 0M150.3 81.3h4.5s.1 0 .1.1v4.5s0 .1-.1.1h-4.5s-.1 0-.1-.1zq-.15 0 0 0" class="st5"/><path d="M154.4 84.2v3.9c0 .5-.2 1-.6 1.3s-.8.5-1.3.5-1-.2-1.3-.5c-.4-.3-.6-.8-.6-1.3v-3.9c0-.5.2-1 .6-1.4s.9-.6 1.4-.6 1 .2 1.4.6c.2.4.4.9.4 1.4" class="st13"/><path d="M150.6 84.7h3.9v2.9h-3.9z" class="st2"/><path d="M150.6 84.7h3.9v2.9h-3.9z" class="st9"/><path d="M150.6 84.7h3.9v2.9h-3.9z"/><path d="M141.7 79.1h4.5s.1 0 .1.1v4.5s0 .1-.1.1h-4.5s-.1 0-.1-.1zM141.7 74h4.5s.1 0 .1.1v4.5s0 .1-.1.1h-4.5s-.1 0-.1-.1z" class="st5"/><path d="M145.9 77v3.9c0 .5-.2 1-.6 1.3s-.8.5-1.3.5-1-.2-1.3-.5c-.4-.3-.6-.8-.6-1.3V77c0-.5.2-1 .6-1.4s.9-.6 1.4-.6 1 .2 1.4.6c.2.4.4.8.4 1.4" class="st13"/><path d="M142.1 77.4h3.9v2.9h-3.9z" class="st2"/><path d="M142.1 77.4h3.9v2.9h-3.9z" class="st9"/><path d="M142.1 77.4h3.9v2.9h-3.9z"/><path d="M119.6 102.1h4.5s.1 0 .1.1v4.5s0 .1-.1.1h-4.5s-.1 0-.1-.1zM119.6 97h4.5s.1 0 .1.1v4.5s0 .1-.1.1h-4.5s-.1 0-.1-.1z" class="st5"/><path d="M123.8 99.9v3.9c0 .5-.2 1-.6 1.3s-.8.5-1.3.5-1-.2-1.3-.5c-.4-.3-.6-.8-.6-1.3v-3.9c0-.5.2-1 .6-1.4s.9-.6 1.4-.6 1 .2 1.4.6c.2.4.4.9.4 1.4" class="st13"/><path d="M120 100.4h3.9v2.9H120z" class="st2"/><path d="M120 100.4h3.9v2.9H120z" class="st9"/><path d="M120 100.4h3.9v2.9H120z"/><path d="M114 102.1h4.5s.1 0 .1.1v4.5s0 .1-.1.1H114s-.1 0-.1-.1zc-.1 0 0 0 0 0M114 97h4.5s.1 0 .1.1v4.5s0 .1-.1.1H114s-.1 0-.1-.1zc-.1 0 0 0 0 0" class="st5"/><path d="M118.2 99.9v3.9c0 .5-.2 1-.6 1.3s-.8.5-1.3.5-1-.2-1.3-.5c-.4-.3-.6-.8-.6-1.3v-3.9c0-.5.2-1 .6-1.4s.9-.6 1.4-.6 1 .2 1.4.6c.2.4.4.9.4 1.4" class="st13"/><path d="M114.3 100.4h3.9v2.9h-3.9z" class="st2"/><path d="M114.3 100.4h3.9v2.9h-3.9z" class="st9"/><path d="M114.3 100.4h3.9v2.9h-3.9z"/><path d="M127.8 83h4.5s.1 0 .1.1v4.5s0 .1-.1.1h-4.5s-.1 0-.1-.1zM132.9 83h4.5s.1 0 .1.1v4.5s0 .1-.1.1h-4.5s-.1 0-.1-.1z" class="st5"/><path d="M134.5 87.2h-3.9c-.5 0-1-.2-1.4-.6s-.6-.8-.6-1.4c0-.5.2-1 .6-1.4s.9-.6 1.4-.6h3.9c.5 0 1 .2 1.4.6s.6.9.6 1.4-.2 1-.6 1.4-.9.6-1.4.6" class="st13"/><path d="M131.2 83.3h2.9v3.9h-2.9z" class="st2"/><path d="M131.2 83.3h2.9v3.9h-2.9z" class="st9"/><path d="M131.2 83.3h2.9v3.9h-2.9z"/><path d="M136.6 63.5h4.5s.1 0 .1.1v4.5s0 .1-.1.1h-4.5s-.1 0-.1-.1zc-.1 0 0 0 0 0M141.7 63.5h4.5s.1 0 .1.1v4.5s0 .1-.1.1h-4.5s-.1 0-.1-.1zc-.1 0 0 0 0 0" class="st5"/><path d="M143.3 67.8h-3.9c-.5 0-1-.2-1.4-.6s-.6-.8-.6-1.4c0-.5.2-1 .6-1.4s.8-.6 1.4-.6h3.9c.5 0 1 .2 1.4.6s.6.9.6 1.4-.2 1-.6 1.4c-.4.3-.9.5-1.4.6" class="st13"/><path d="M140 63.9h2.9v3.9H140z" class="st2"/><path d="M140 63.9h2.9v3.9H140z" class="st9"/><path d="M140 63.9h2.9v3.9H140z"/><path d="M128.6 53.4h4.5s.1 0 .1.1V58s0 .1-.1.1h-4.5s-.1 0-.1-.1zc-.1 0 0 0 0 0M133.7 53.4h4.5s.1 0 .1.1V58s0 .1-.1.1h-4.5s-.1 0-.1-.1zc-.1 0 0 0 0 0" class="st5"/><path d="M135.3 57.6h-3.9c-.5 0-1-.2-1.3-.6s-.5-.8-.5-1.3.2-1 .5-1.3c.3-.4.8-.6 1.3-.6h3.9c.5 0 1 .2 1.4.6s.6.9.6 1.4-.2 1-.6 1.4c-.4.2-.9.4-1.4.4" class="st13"/><path d="M132 53.7h2.9v3.9H132z" class="st2"/><path d="M132 53.7h2.9v3.9H132z" class="st9"/><path d="M132 53.7h2.9v3.9H132z"/><path d="M98.1 81.3h4.5s.1 0 .1.1v4.5s0 .1-.1.1h-4.5s-.1 0-.1-.1zc-.1 0 0 0 0 0M103.2 81.3h4.5s.1 0 .1.1v4.5s0 .1-.1.1h-4.5s-.1 0-.1-.1zc-.1 0 0 0 0 0" class="st5"/><path d="M104.8 85.5h-3.9c-.5 0-1-.2-1.4-.6s-.6-.8-.6-1.4c0-.5.2-1 .6-1.4s.9-.6 1.4-.6h3.9c.5 0 1 .2 1.4.6s.6.9.6 1.4-.2 1-.6 1.4-.9.6-1.4.6" class="st13"/><path d="M101.5 81.6h2.9v3.9h-2.9z" class="st2"/><path d="M101.5 81.6h2.9v3.9h-2.9z" class="st9"/><path d="M101.5 81.6h2.9v3.9h-2.9z"/><path d="M98.1 88.9h4.5s.1 0 .1.1v4.5s0 .1-.1.1h-4.5s-.1 0-.1-.1zc-.1 0 0 0 0 0M103.2 88.9h4.5s.1 0 .1.1v4.5s0 .1-.1.1h-4.5s-.1 0-.1-.1zc-.1 0 0 0 0 0" class="st5"/><path d="M104.8 93.1h-3.9c-.5 0-1-.2-1.4-.6s-.6-.8-.6-1.4c0-.5.2-1 .6-1.4s.9-.6 1.4-.6h3.9c.5 0 1 .2 1.4.6s.6.9.6 1.4-.2 1-.6 1.4-.9.6-1.4.6" class="st13"/><path d="M101.5 89.2h2.9v3.9h-2.9z" class="st2"/><path d="M101.5 89.2h2.9v3.9h-2.9z" class="st9"/><path d="M101.5 89.2h2.9v3.9h-2.9z"/><path d="M106.6 102.1h4.5s.1 0 .1.1v4.5s0 .1-.1.1h-4.5s-.1 0-.1-.1zM106.6 97h4.5s.1 0 .1.1v4.5s0 .1-.1.1h-4.5s-.1 0-.1-.1z" class="st5"/><path d="M110.8 99.9v3.9c0 .5-.2 1-.6 1.4s-.9.6-1.4.6-1-.2-1.4-.6-.6-.8-.6-1.4v-3.9c0-.5.2-1 .6-1.4s.9-.6 1.4-.6 1 .2 1.4.6.6.9.6 1.4" class="st13"/><path d="M106.9 100.4h3.9v2.9h-3.9z" class="st2"/><path d="M106.9 100.4h3.9v2.9h-3.9z" class="st9"/><path d="M106.9 100.4h3.9v2.9h-3.9z"/><path d="M96.7 51.1h4.5s.1 0 .1.1v4.5s0 .1-.1.1h-4.5s-.1 0-.1-.1zc0 .1 0 0 0 0M96.7 46.1h4.5s.1 0 .1.1v4.5s0 .1-.1.1h-4.5s-.1 0-.1-.1z" class="st5"/><path d="M100.9 49v3.9c0 .5-.2 1-.6 1.4s-.9.6-1.4.6-1-.2-1.4-.6-.6-.8-.6-1.4V49c0-.5.2-1 .6-1.4s.9-.6 1.4-.6 1 .2 1.4.6.6.9.6 1.4" class="st13"/><path d="M97 49.5h3.9v2.9H97z" class="st2"/><path d="M97 49.5h3.9v2.9H97z" class="st9"/><path d="M97 49.5h3.9v2.9H97z"/><path d="M122.2 41.1h4.5s.1 0 .1.1v4.5s0 .1-.1.1h-4.5s-.1 0-.1-.1zc-.1.1-.1 0 0 0M122.2 36.1h4.5s.1 0 .1.1v4.5s0 .1-.1.1h-4.5s-.1 0-.1-.1zq-.15 0 0 0" class="st5"/><path d="M126.4 39v3.9c0 .5-.2 1-.6 1.4s-.9.6-1.4.6-1-.2-1.4-.6-.6-.8-.6-1.4V39c0-.5.2-1 .6-1.4s.9-.6 1.4-.6 1 .2 1.4.6.6.9.6 1.4" class="st13"/><path d="M122.5 39.4h3.9v2.9h-3.9z" class="st2"/><path d="M122.5 39.4h3.9v2.9h-3.9z" class="st9"/><path d="M122.5 39.4h3.9v2.9h-3.9z"/><path d="M96.7 32.2h4.5s.1 0 .1.1v4.5s0 .1-.1.1h-4.5s-.1 0-.1-.1zM96.7 27.1h4.5s.1 0 .1.1v4.5s0 .1-.1.1h-4.5s-.1 0-.1-.1z" class="st5"/><path d="M100.9 30.1V34c0 .5-.2 1-.6 1.4s-.9.6-1.4.6-1-.2-1.4-.6-.6-.8-.6-1.4v-3.9c0-.5.2-1 .6-1.4s.9-.6 1.4-.6 1 .2 1.4.6.6.9.6 1.4" class="st13"/><path d="M97 30.5h3.9v2.9H97z" class="st2"/><path d="M97 30.5h3.9v2.9H97z" class="st9"/><path d="M97 30.5h3.9v2.9H97z"/><path d="M88.2 34.1h4.5s.1 0 .1.1v4.5s0 .1-.1.1h-4.5s-.1 0-.1-.1zc-.1.1 0 0 0 0M88.2 29.1h4.5s.1 0 .1.1v4.5s0 .1-.1.1h-4.5s-.1 0-.1-.1zc-.1 0 0 0 0 0" class="st5"/><path d="M92.4 32v4c0 .5-.2 1-.6 1.4s-.9.6-1.4.6-1-.2-1.4-.6-.6-.8-.6-1.4v-4c0-.5.2-1 .6-1.4s.9-.6 1.4-.6 1 .2 1.4.6.6.9.6 1.4" class="st13"/><path d="M88.5 32.5h3.9v2.9h-3.9z" class="st2"/><path d="M88.5 32.5h3.9v2.9h-3.9z" class="st9"/><path d="M88.5 32.5h3.9v2.9h-3.9z"/><path d="M105.6 23h4.5s.1 0 .1.1v4.5s0 .1-.1.1h-4.5s-.1 0-.1-.1zc-.1 0 0 0 0 0M110.7 23h4.5s.1 0 .1.1v4.5s0 .1-.1.1h-4.5s-.1 0-.1-.1zq-.15 0 0 0" class="st5"/><path d="M112.3 27.2h-3.9c-.5 0-1-.2-1.4-.6s-.6-.8-.6-1.4.2-1 .6-1.4.9-.6 1.4-.6h3.9c.5 0 1 .2 1.4.6s.6.9.6 1.4-.2 1-.6 1.4-.9.6-1.4.6" class="st13"/><path d="M109 23.3h2.9v3.9H109z" class="st2"/><path d="M109 23.3h2.9v3.9H109z" class="st9"/><path d="M109 23.3h2.9v3.9H109z"/><path d="M120.4 23h4.5s.1 0 .1.1v4.5s0 .1-.1.1h-4.5s-.1 0-.1-.1zM125.5 23h4.5s.1 0 .1.1v4.5s0 .1-.1.1h-4.5s-.1 0-.1-.1zc-.1 0 0 0 0 0" class="st5"/><path d="M127.1 27.2h-3.9c-.5 0-1-.2-1.4-.6s-.6-.8-.6-1.4.2-1 .6-1.4.9-.6 1.4-.6h3.9c.5 0 1 .2 1.4.6s.6.9.6 1.4-.2 1-.6 1.4-.9.6-1.4.6" class="st13"/><path d="M123.8 23.3h2.9v3.9h-2.9z" class="st2"/><path d="M123.8 23.3h2.9v3.9h-2.9z" class="st9"/><path d="M123.8 23.3h2.9v3.9h-2.9z"/><path d="M156.9 36.5h4.5s.1 0 .1.1v4.5s0 .1-.1.1h-4.5s-.1 0-.1-.1zc-.1.1 0 0 0 0M156.9 31.5h4.5s.1 0 .1.1V36s0 .1-.1.1h-4.5s-.1 0-.1-.1zc-.1 0 0 0 0 0" class="st5"/><path d="M161.1 34.4v3.9c0 .5-.2 1-.6 1.4s-.9.6-1.4.6-1-.2-1.4-.6-.6-.8-.6-1.4v-3.9c0-.5.2-1 .6-1.4s.9-.6 1.4-.6 1 .2 1.4.6.6.9.6 1.4" class="st13"/><path d="M157.2 34.9h3.9v2.9h-3.9z" class="st2"/><path d="M157.2 34.9h3.9v2.9h-3.9z" class="st9"/><path d="M157.2 34.9h3.9v2.9h-3.9z"/><path d="M162.6 36.5h4.5s.1 0 .1.1v4.5s0 .1-.1.1h-4.5s-.1 0-.1-.1zc-.1.1 0 0 0 0M162.6 31.5h4.5s.1 0 .1.1V36s0 .1-.1.1h-4.5s-.1 0-.1-.1zc-.1 0 0 0 0 0" class="st5"/><path d="M166.8 34.4v3.9c0 .5-.2 1-.6 1.4s-.9.6-1.4.6-1-.2-1.4-.6-.6-.8-.6-1.4v-3.9c0-.5.2-1 .6-1.4s.9-.6 1.4-.6 1 .2 1.4.6.6.9.6 1.4" class="st13"/><path d="M162.9 34.9h3.9v2.9h-3.9z" class="st2"/><path d="M162.9 34.9h3.9v2.9h-3.9z" class="st9"/><path d="M162.9 34.9h3.9v2.9h-3.9z"/><path d="M166.9 43.1h4.5s.1 0 .1.1v4.5s0 .1-.1.1h-4.5s-.1 0-.1-.1zc-.1 0 0 0 0 0M172 43.1h4.5s.1 0 .1.1v4.5s0 .1-.1.1H172s-.1 0-.1-.1zq-.15 0 0 0" class="st5"/><path d="M173.6 47.3h-3.9c-.5 0-1-.2-1.4-.6s-.6-.8-.6-1.4.2-1 .6-1.4.9-.6 1.4-.6h3.9c.5 0 1 .2 1.4.6s.6.9.6 1.4-.2 1-.6 1.4-.9.6-1.4.6" class="st13"/><path d="M170.3 43.4h2.9v3.9h-2.9z" class="st2"/><path d="M170.3 43.4h2.9v3.9h-2.9z" class="st9"/><path d="M170.3 43.4h2.9v3.9h-2.9z"/><path d="M168.7 28h4.5s.1 0 .1.1v4.5s0 .1-.1.1h-4.5s-.1 0-.1-.1zM173.8 28h4.5s.1 0 .1.1v4.5s0 .1-.1.1h-4.5s-.1 0-.1-.1zc-.1 0 0 0 0 0" class="st5"/><path d="M175.4 32.2h-3.9c-.5 0-1-.2-1.4-.6s-.6-.8-.6-1.4c0-.5.2-1 .6-1.4s.9-.6 1.4-.6h3.9c.5 0 1 .2 1.4.6s.6.9.6 1.4-.2 1-.6 1.4-.9.6-1.4.6" class="st13"/><path d="M172.1 28.4h2.9v3.9h-2.9z" class="st2"/><path d="M172.1 28.4h2.9v3.9h-2.9z" class="st9"/><path d="M172.1 28.4h2.9v3.9h-2.9z"/><path d="M168.7 22.5h4.5s.1 0 .1.1V27s0 .1-.1.1h-4.5s-.1 0-.1-.1zM173.8 22.5h4.5s.1 0 .1.1V27s0 .1-.1.1h-4.5s-.1 0-.1-.1zc-.1 0 0 0 0 0" class="st5"/><path d="M175.4 26.7h-3.9c-.5 0-1-.2-1.4-.6s-.6-.8-.6-1.4.2-1 .6-1.4.9-.6 1.4-.6h3.9c.5 0 1 .2 1.4.6s.6.9.6 1.4-.2 1-.6 1.4-.9.6-1.4.6" class="st13"/><path d="M172.1 22.9h2.9v3.9h-2.9z" class="st2"/><path d="M172.1 22.9h2.9v3.9h-2.9z" class="st9"/><path d="M172.1 22.9h2.9v3.9h-2.9z"/><path d="M180.7 28h4.5s.1 0 .1.1v4.5s0 .1-.1.1h-4.5s-.1 0-.1-.1zq-.15 0 0 0M185.8 28h4.5s.1 0 .1.1v4.5s0 .1-.1.1h-4.5s-.1 0-.1-.1zq-.15 0 0 0" class="st5"/><path d="M187.4 32.2h-3.9c-.5 0-1-.2-1.4-.6s-.6-.8-.6-1.4c0-.5.2-1 .6-1.4s.8-.6 1.4-.6h3.9c.5 0 1 .2 1.4.6s.6.9.6 1.4-.2 1-.6 1.4-.9.6-1.4.6" class="st13"/><path d="M184.1 28.4h2.9v3.9h-2.9z" class="st2"/><path d="M184.1 28.4h2.9v3.9h-2.9z" class="st9"/><path d="M184.1 28.4h2.9v3.9h-2.9z"/><path d="M180.7 22.5h4.5s.1 0 .1.1V27s0 .1-.1.1h-4.5s-.1 0-.1-.1zq-.15 0 0 0M185.8 22.5h4.5s.1 0 .1.1V27s0 .1-.1.1h-4.5s-.1 0-.1-.1zq-.15 0 0 0" class="st5"/><path d="M187.4 26.7h-3.9c-.5 0-1-.2-1.4-.6s-.6-.8-.6-1.4.2-1 .6-1.4.8-.6 1.4-.6h3.9c.5 0 1 .2 1.4.6s.6.9.6 1.4-.2 1-.6 1.4-.9.6-1.4.6" class="st13"/><path d="M184.1 22.9h2.9v3.9h-2.9z" class="st2"/><path d="M184.1 22.9h2.9v3.9h-2.9z" class="st9"/><path d="M184.1 22.9h2.9v3.9h-2.9z"/><path d="M195.9 37.4h4.5s.1 0 .1.1V42s0 .1-.1.1h-4.5s-.1 0-.1-.1zM195.9 32.3h4.5s.1 0 .1.1v4.5s0 .1-.1.1h-4.5s-.1 0-.1-.1z" class="st5"/><path d="M200.1 35.3v3.9c0 .5-.2 1-.6 1.4s-.9.6-1.4.6-1-.2-1.4-.6-.6-.8-.6-1.4v-3.9c0-.5.2-1 .6-1.4s.9-.6 1.4-.6 1 .2 1.4.6.6.9.6 1.4" class="st13"/><path d="M196.2 35.7h3.9v2.9h-3.9z" class="st2"/><path d="M196.2 35.7h3.9v2.9h-3.9z" class="st9"/><path d="M196.2 35.7h3.9v2.9h-3.9z"/><path d="M202.3 27.5h4.5s.1 0 .1.1v4.5s0 .1-.1.1h-4.5s-.1 0-.1-.1zc-.1.1-.1 0 0 0M202.3 22.5h4.5s.1 0 .1.1V27s0 .1-.1.1h-4.5s-.1 0-.1-.1zq-.15 0 0 0" class="st5"/><path d="M206.4 25.4v3.9c0 .5-.2 1-.6 1.4s-.9.6-1.4.6-1-.2-1.4-.6-.6-.8-.6-1.4v-3.9c0-.5.2-1 .6-1.4s.9-.6 1.4-.6 1 .2 1.4.6.6.9.6 1.4" class="st13"/><path d="M202.6 25.9h3.9v2.9h-3.9z" class="st2"/><path d="M202.6 25.9h3.9v2.9h-3.9z" class="st9"/><path d="M202.6 25.9h3.9v2.9h-3.9z"/><path d="M231.8 13.3h4.5s.1 0 .1.1v4.5s0 .1-.1.1h-4.5s-.1 0-.1-.1zc0 .1 0 0 0 0M231.8 8.2h4.5s.1 0 .1.1v4.5s0 .1-.1.1h-4.5s-.1 0-.1-.1zc0 .1 0 0 0 0" class="st5"/><path d="M236 11.2v3.9c0 .5-.2 1-.6 1.3s-.8.5-1.3.5-1-.2-1.3-.5c-.4-.3-.6-.8-.6-1.3v-3.9c0-.5.2-1 .6-1.4s.9-.6 1.4-.6 1 .2 1.4.6c.2.4.4.9.4 1.4" class="st13"/><path d="M232.1 11.6h3.9v2.9h-3.9z" class="st2"/><path d="M232.1 11.6h3.9v2.9h-3.9z" class="st9"/><path d="M232.1 11.6h3.9v2.9h-3.9z"/><path d="M259.2 10.5h4.5s.1 0 .1.1V15s0 .1-.1.1h-4.5s-.1 0-.1-.1zM259.2 5.4h4.5s.1 0 .1.1V10s0 .1-.1.1h-4.5s-.1 0-.1-.1zc0 .1 0 0 0 0" class="st5"/><path d="M263.4 8.4v3.9c0 .5-.2 1-.6 1.4s-.9.6-1.4.6-1-.2-1.4-.6-.6-.8-.6-1.4V8.4c0-.5.2-1 .6-1.4s.9-.6 1.4-.6 1 .2 1.4.6.6.9.6 1.4" class="st13"/><path d="M259.5 8.8h3.9v2.9h-3.9z" class="st2"/><path d="M259.5 8.8h3.9v2.9h-3.9z" class="st9"/><path d="M259.5 8.8h3.9v2.9h-3.9z"/><path d="M278.5 41.3h4.5s.1 0 .1.1v4.5s0 .1-.1.1h-4.5s-.1 0-.1-.1zq-.15 0 0 0M278.5 36.2h4.5s.1 0 .1.1v4.5s0 .1-.1.1h-4.5s-.1 0-.1-.1zq-.15 0 0 0" class="st5"/><path d="M282.6 39.2v3.9c0 .5-.2 1-.6 1.3s-.8.5-1.3.5-1-.2-1.3-.5-.6-.8-.6-1.3v-3.9c0-.5.2-1 .6-1.4s.9-.6 1.4-.6 1 .2 1.4.6c.2.3.4.8.4 1.4" class="st13"/><path d="M278.8 39.6h3.9v2.9h-3.9z" class="st2"/><path d="M278.8 39.6h3.9v2.9h-3.9z" class="st9"/><path d="M278.8 39.6h3.9v2.9h-3.9z"/><path d="M286.1 38.7h4.5s.1 0 .1.1v4.5s0 .1-.1.1h-4.5s-.1 0-.1-.1zc-.1.1-.1 0 0 0M291.2 38.7h4.5s.1 0 .1.1v4.5s0 .1-.1.1h-4.5s-.1 0-.1-.1zc-.1.1-.1 0 0 0" class="st5"/><path d="M292.8 43h-3.9c-.5 0-1-.2-1.4-.6s-.6-.8-.6-1.4.2-1 .6-1.4.9-.6 1.4-.6h3.9c.3 0 .5 0 .8.1.2.1.5.2.7.4s.3.4.4.6.2.5.2.8-.1.5-.2.8c-.1.2-.2.5-.4.6-.2.2-.4.3-.7.4-.3.2-.6.3-.8.3" class="st13"/><path d="M289.5 39.1h2.9V43h-2.9z" class="st2"/><path d="M289.5 39.1h2.9V43h-2.9z" class="st9"/><path d="M289.5 39.1h2.9V43h-2.9z"/><path d="M297.4 38.7h4.5s.1 0 .1.1v4.5s0 .1-.1.1h-4.5s-.1 0-.1-.1zc-.1.1 0 0 0 0M302.5 38.7h4.5s.1 0 .1.1v4.5s0 .1-.1.1h-4.5s-.1 0-.1-.1zc-.1.1-.1 0 0 0" class="st5"/><path d="M304.1 43h-3.9c-.5 0-1-.2-1.4-.6s-.6-.8-.6-1.4.2-1 .6-1.4.9-.6 1.4-.6h3.9c.3 0 .5 0 .8.1.2.1.5.2.7.4s.3.4.4.6.2.5.2.8-.1.5-.2.8c-.1.2-.2.5-.4.6s-.4.3-.7.4c-.3.2-.6.3-.8.3" class="st13"/><path d="M300.8 39.1h2.9V43h-2.9z" class="st2"/><path d="M300.8 39.1h2.9V43h-2.9z" class="st9"/><path d="M300.8 39.1h2.9V43h-2.9z"/><path d="M313.8 41.4h4.5s.1 0 .1.1V46s0 .1-.1.1h-4.5s-.1 0-.1-.1zM318.9 41.4h4.5s.1 0 .1.1V46s0 .1-.1.1h-4.5s-.1 0-.1-.1z" class="st5"/><path d="M320.5 45.7h-3.9c-.5 0-1-.2-1.4-.6s-.6-.8-.6-1.4.2-1 .6-1.4.9-.6 1.4-.6h3.9c.5 0 1 .2 1.4.6s.6.9.6 1.4-.2 1-.6 1.4c-.4.3-.9.6-1.4.6" class="st13"/><path d="M317.2 41.8h2.9v3.9h-2.9z" class="st2"/><path d="M317.2 41.8h2.9v3.9h-2.9z" class="st9"/><path d="M317.2 41.8h2.9v3.9h-2.9z"/><path d="M315.7 24.4h4.5s.1 0 .1.1V29s0 .1-.1.1h-4.5s-.1 0-.1-.1zq-.15 0 0 0M320.8 24.4h4.5s.1 0 .1.1V29s0 .1-.1.1h-4.5s-.1 0-.1-.1zq-.15 0 0 0" class="st5"/><path d="M322.4 28.6h-3.9c-.5 0-1-.2-1.4-.6s-.6-.8-.6-1.4.2-1 .6-1.4.9-.6 1.4-.6h3.9c.5 0 1 .2 1.4.6s.6.9.6 1.4-.2 1-.6 1.4-.9.6-1.4.6" class="st13"/><path d="M319 24.8h2.9v3.9H319z" class="st2"/><path d="M319 24.8h2.9v3.9H319z" class="st9"/><path d="M319 24.8h2.9v3.9H319z"/><path d="M294.6 47.7h6.7v6.7h-6.7zM282.2 47.7h6.7v6.7h-6.7z" class="st5"/><path d="M288.9 47.7h5.7v6.7h-5.7z" class="st2"/><path d="M288.9 47.7h5.7v6.7h-5.7z" class="st9"/><path d="M288.9 47.7h5.7v6.7h-5.7z"/><path d="m296.7 47.7 3.4 3.3-3.4 3.3h-2.1v-6.7h2.1zM286.8 54.4l-3.4-3.3 3.4-3.3h2.1v6.7h-2.1z" class="st7"/><path d="M291.9 56.8h6.7v6.7h-6.7zM279.5 56.8h6.7v6.7h-6.7z" class="st5"/><path d="M286.2 56.8h5.7v6.7h-5.7z" class="st2"/><path d="M286.2 56.8h5.7v6.7h-5.7z" class="st9"/><path d="M286.2 56.8h5.7v6.7h-5.7z"/><path d="m294 56.8 3.4 3.3-3.4 3.3h-2.1v-6.7h2.1zM284.1 63.5l-3.4-3.3 3.4-3.3h2.1v6.7h-2.1z" class="st7"/><path d="M40.5 106H45s.1 0 .1.1v4.5s0 .1-.1.1h-4.5s-.1 0-.1-.1zM40.5 100.9H45s.1 0 .1.1v4.5s0 .1-.1.1h-4.5s-.1 0-.1-.1z" class="st5"/><path d="M44.7 103.8v3.9c0 .5-.2 1-.6 1.4s-.9.6-1.4.6-1-.2-1.4-.6-.6-.8-.6-1.4v-3.9c0-.3 0-.5.1-.8.1-.2.2-.5.4-.6.2-.2.4-.3.6-.4s.5-.2.8-.2.5.1.8.2c.2.1.5.2.6.4.2.2.3.4.4.6.3.3.3.6.3.8" class="st13"/><path d="M40.8 104.3h3.9v2.9h-3.9z" class="st2"/><path d="M40.8 104.3h3.9v2.9h-3.9z" class="st9"/><path d="M40.8 104.3h3.9v2.9h-3.9z"/><path d="M34.3 106h4.5s.1 0 .1.1v4.5s0 .1-.1.1h-4.5s-.1 0-.1-.1zc-.1 0 0 0 0 0M34.3 100.9h4.5s.1 0 .1.1v4.5s0 .1-.1.1h-4.5s-.1 0-.1-.1zc-.1 0 0 0 0 0" class="st5"/><path d="M38.5 103.8v3.9c0 .5-.2 1-.6 1.3s-.8.5-1.3.5-1-.2-1.3-.5c-.4-.3-.6-.8-.6-1.3v-3.9c0-.5.2-1 .6-1.4s.9-.6 1.4-.6 1 .2 1.4.6c.2.4.4.9.4 1.4" class="st13"/><path d="M34.6 104.3h3.9v2.9h-3.9z" class="st2"/><path d="M34.6 104.3h3.9v2.9h-3.9z" class="st9"/><path d="M34.6 104.3h3.9v2.9h-3.9z"/><path d="M254.8 29.1c-.7 0-1.5.1-2.2.4q-1.05.45-1.8 1.2t-1.2 1.8c-.3.7-.4 1.4-.4 2.2v12.6c0 .7.1 1.5.4 2.2q.45 1.05 1.2 1.8t1.8 1.2c.7.3 1.4.4 2.2.4h14.6c1.5 0 2.9-.6 4-1.7s1.6-2.5 1.6-4V34.7c0-.7-.1-1.5-.4-2.2q-.45-1.05-1.2-1.8t-1.8-1.2c-.7-.3-1.4-.4-2.2-.4z" class="st2"/><path d="M254.8 29.1c-.7 0-1.5.1-2.2.4q-1.05.45-1.8 1.2t-1.2 1.8c-.3.7-.4 1.4-.4 2.2v12.6c0 .7.1 1.5.4 2.2q.45 1.05 1.2 1.8t1.8 1.2c.7.3 1.4.4 2.2.4h14.6c1.5 0 2.9-.6 4-1.7s1.6-2.5 1.6-4V34.7c0-.7-.1-1.5-.4-2.2q-.45-1.05-1.2-1.8t-1.8-1.2c-.7-.3-1.4-.4-2.2-.4z" class="st9"/><path d="M254.8 29.1c-.7 0-1.5.1-2.2.4q-1.05.45-1.8 1.2t-1.2 1.8c-.3.7-.4 1.4-.4 2.2v12.6c0 .7.1 1.5.4 2.2q.45 1.05 1.2 1.8t1.8 1.2c.7.3 1.4.4 2.2.4h14.6c1.5 0 2.9-.6 4-1.7s1.6-2.5 1.6-4V34.7c0-.7-.1-1.5-.4-2.2q-.45-1.05-1.2-1.8t-1.8-1.2c-.7-.3-1.4-.4-2.2-.4z"/></g></g></svg>