<svg xmlns="http://www.w3.org/2000/svg" width="2142.904" height="2670.811" viewBox="0 0 1607.178 2003.108"><path d="M690.603 3.027c-13 17.5-22.7 32.5-22.7 35v2.8h23v13h7v-13h3.5c3.2 0 3.5-.2 3.5-3s-.3-3-3.5-3h-3.5l-.2-17.3c-.3-16.8-.4-17.2-2.5-17.5-1.4-.2-2.9.7-4.6 3m.3 20.3v11.5h-8c-4.4 0-8-.2-8-.5 0-.7 15.2-22.5 15.6-22.5.2 0 .4 5.2.4 11.5M721.603 1.227c-4.9 1.8-6.7 3.4-8.4 7.3-2.2 5.4-1.8 7.3 1.7 7.3 2.3 0 3-.4 3-2 0-3.1 5-7.8 9-8.5 6.7-1.1 12.9 5.2 11.5 11.6-.9 3.9-4.6 8.2-15.1 17.7-8.4 7.4-13.4 14.2-13.4 18 0 .9 4.7 1.2 17.5 1.2h17.5v-6h-13c-10.8 0-12.8-.2-12.4-1.4.3-.8 4.8-5.1 10-9.6s10.6-9.9 12.1-12.1c5.2-7.9 3.6-18-3.5-22.2-4.1-2.4-11.8-3.1-16.5-1.3M606.903 3.827v3h13c7.2 0 13 .2 13 .4s-1.6 2.8-3.6 5.7c-7.1 10.5-14.4 29.7-14.4 38.1 0 2.4.4 2.8 2.9 2.8 3.2 0 3.5-.5 4.6-8.3 1.3-9.8 8-24.9 15.4-34.7 2.2-3 4.1-6.5 4.1-7.7v-2.3h-35zM768.903 15.127c-1.9.5-4.5 1.8-5.7 3l-2.3 2v-2.6c0-2.3-.4-2.7-3-2.7h-3v39h6v-10.8c.1-12.6 1-17.5 4.1-20.8 2.8-3 8.1-3.2 10.9-.4 1.8 1.8 2 3.3 2 17v15h6v-11.8c0-13.2 1.1-18.4 4.3-20.7 3-2.1 8.3-1.9 10.7.5 1.8 1.8 2 3.3 2 17v15h6.1l-.3-17c-.3-15.7-.5-17.1-2.4-19-4.5-4.6-14-4.2-18.5.6l-2.1 2.3-2.2-2.5c-2.6-3-7.9-4.4-12.6-3.1M831.903 15.127c-1.9.5-4.5 1.8-5.7 3l-2.3 2v-2.6c0-2.3-.4-2.7-3-2.7h-3v39h6v-10.8c.1-12.6 1-17.5 4.1-20.8 2.8-3 8.1-3.2 10.9-.4 1.8 1.8 2 3.3 2 17v15h6v-11.8c0-13.2 1.1-18.4 4.3-20.7 3-2.1 8.3-1.9 10.7.5 1.8 1.8 2 3.3 2 17v15h6.1l-.3-17c-.3-15.7-.5-17.1-2.4-19-4.5-4.6-14-4.2-18.5.6l-2.1 2.3-2.2-2.5c-2.6-3-7.9-4.4-12.6-3.1M561.903 24.927c-5.8 1-13.6 2.4-17.5 3l-7 1.3 16 2.7c20 3.5 20.3 3.5 20.7.6.2-1.8 1-2.3 4.1-2.5 4.6-.4 3.9-2.2-.9-2.2-3 0-3.4-.3-3.4-2.5 0-1.4-.3-2.5-.7-2.4-.5.1-5.5.9-11.3 2" style="fill:#000;stroke:none;stroke-width:.1"/><path d="M934.903 25.227v2.6h-18.5c-11.7 0-18.5.4-18.5 1s6.8 1 18.5 1h18.5v5.7l16.8-2.8c9.2-1.6 17.7-2.9 19-2.9h2.2v111.9l-3.7-2.2-3.8-2.2h-429l.3-56.8c.1-37.9-.1-56.7-.8-56.7s-1 19.1-1 57v57h-256c-170 0-256 .3-256 1s85.9 1 255.7 1c243.3 0 255.5.1 254.1 1.7-3.8 4.4-3.8 5.6-3.8 130.4 0 135.2-.4 127.7 6.5 131.9 3 1.9 4.9 2 29.6 2 15 0 28 .5 30.1 1 2 .6 4.6 2.2 5.8 3.7 2 2.6 2 3.2 2 119.8v117.3h-126.2c-215.4 0-452.8 1.2-452.8 2.2 0 .7 53.5 1 148.8 1.1l148.7.1-9.5 3.2c-38.8 12.8-69.7 44.7-81.4 84.1-4.9 16.5-5.6 25.6-5.6 69.3v38l-3.7.7c-13.1 2.4-23.3 15.1-23.3 28.9 0 8.2 2.6 14.2 8.9 20.7 4.6 4.8 6.7 6.1 11.8 7.6l6.3 1.8v90.3l-3.7.7c-13.1 2.4-23.3 15.1-23.3 28.9 0 8.2 2.6 14.2 8.9 20.7 4.6 4.8 6.7 6.1 11.8 7.6l6.3 1.8v90.3l-3.7.7c-13.1 2.4-23.3 15.1-23.3 28.9 0 8.2 2.6 14.2 8.9 20.7 4.6 4.8 6.7 6.1 11.8 7.6l6.3 1.8v90.3l-3.7.7c-12.9 2.4-23.3 15.3-23.3 28.9 0 8.2 2.6 14.2 8.9 20.7 4.6 4.8 6.7 6.1 11.8 7.6l6.3 1.8v90.3l-3.7.7c-12.9 2.4-23.3 15.3-23.3 28.9 0 8.2 2.6 14.2 8.9 20.7 4.6 4.8 6.7 6.1 11.8 7.6l6.3 1.8v90.3l-3.7.7c-12.9 2.4-23.3 15.3-23.3 28.9 0 8.2 2.6 14.2 8.9 20.7 4.6 4.8 6.7 6.1 11.8 7.6l6.3 1.8v90.3l-3.7.7c-12.9 2.4-23.3 15.3-23.3 28.9 0 8.2 2.6 14.2 8.9 20.7 4.6 4.8 6.7 6.1 11.8 7.6l6.3 1.8v90.3l-3.7.7c-13.1 2.4-23.3 15.1-23.3 28.9 0 8.2 2.6 14.2 8.9 20.7 4.6 4.8 6.7 6.1 11.8 7.6l6.3 1.8.2 23.5.3 23.5 489 .5c269 .3 573.7.4 677.3.1l188.2-.4v-47.5l3.8-.7c5.2-.8 13.5-5.8 16.6-9.8 6.8-8.8 8.6-19.4 5.2-29.4-3.1-9.3-12.6-17.5-22.1-19l-3.5-.6v-90.5l3.8-.7c5.2-.8 13.5-5.8 16.6-9.8 6.8-8.8 8.6-19.4 5.2-29.4-3.1-9.3-12.6-17.5-22.1-19l-3.5-.6v-90.5l3.8-.7c5.2-.8 13.5-5.8 16.6-9.8 6.8-8.8 8.6-19.4 5.2-29.4-3.1-9.3-12.6-17.5-22.1-19l-3.5-.6v-90.5l3.8-.7c5.2-.8 13.5-5.8 16.6-9.8 6.8-8.8 8.6-19.4 5.2-29.4-3.1-9.3-12.6-17.5-22.1-19l-3.5-.6v-90.5l3.8-.7c5.2-.8 13.5-5.8 16.6-9.8 6.8-8.8 8.6-19.4 5.2-29.4-3.1-9.3-12.6-17.5-22.1-19l-3.5-.6v-90.5l3.8-.7c5.2-.8 13.5-5.8 16.6-9.8 6.8-8.8 8.6-19.4 5.2-29.4-3.1-9.3-12.6-17.5-22.1-19l-3.5-.6v-90.5l3.8-.7c5.2-.8 13.5-5.8 16.6-9.8 6.8-8.8 8.6-19.4 5.2-29.4-3.1-9.3-12.6-17.5-22.1-19l-3.5-.6v-90.5l3.8-.7c5.2-.8 13.5-5.8 16.6-9.8 6.8-8.8 8.6-19.4 5.2-29.4-3.1-9.3-12.6-17.5-22.1-19l-3.5-.6v-90.5l3.8-.7c5.2-.8 13.5-5.8 16.6-9.8 6.8-8.8 8.6-19.4 5.2-29.4-3.1-9.3-12.6-17.5-22.1-19l-3.5-.6v-47.5l-3.2-.6c-1.8-.4-46.2-.6-98.7-.5l-95.4.1-1.9-6c-6.5-21.3-33.9-27.5-49.8-11.1-3.6 3.7-8 12.8-8 16.4 0 1.3-5.9 1.5-45.1 1.3l-45.1-.3-1.9-6.1c-6.6-21.5-33.9-27.7-49.9-11.3-3.6 3.7-8 12.8-8 16.4 0 1.3-17.3 1.5-135.5 1.5h-135.5v-235l2.9-3.2 2.9-3.3 29.9-.5c32.4-.5 32.4-.5 35.9-6.4 1.8-2.9 1.9-6.6 2.2-63.6.5-88.1-.9-311-1.9-311-.5 0-.9.9-.9 2s-.5 2-1.1 2c-1.2 0-29.4-4.6-34.1-5.6-2.5-.5-2.8-.3-2.8 2m28.5 115.6c2.2.5 5 2.1 6.3 3.5l2.2 2.6v249.8l-2.4 2.8-2.4 2.8-30 .5c-29.3.5-30.1.6-33.1 2.8l-3.1 2.3v-105.1h2.3c1.2 0 9.7 1.3 19 2.9l16.7 2.8v-6.4c0-6.1-.1-6.3-2.2-5.8-4.2.9-32.5 5.5-34.2 5.5-.9 0-1.6-.8-1.6-2 0-1.1-.4-2-1-2-.7 0-1 20.4-1 59.2 0 335.2-.2 306 2 309l2.1 2.8h-301.1l2-3.3c2-3.2 2-5.5 2-186 0-121.1-.3-182.7-1-182.7s-1 19.4-1 56.2c0 45.2-.2 55.9-1.2 54.5-3.2-4.1-7.4-4.7-36.2-4.7-27.1 0-27.5 0-30.1-2.3-1.4-1.2-3-4-3.5-6.2-1.3-5.6-1.3-240.9 0-245.6 1.2-4.4 3.8-6.9 8.2-7.9 4.8-1.1 417.4-1.2 422.3 0m250.3 485c6 2.7 9.7 6.3 13 12.5 5.2 9.9 2.4 24.9-5.9 31.9-10 8.5-22.3 9.2-33.5 2-4.2-2.6-5.8-4.5-8.4-9.8-3-6.1-3.2-7.2-2.8-14 .4-6.3 1-8.3 3.8-12.6 7.4-11.6 21.1-15.6 33.8-10m150 0c6 2.7 9.7 6.3 13 12.5 5.2 9.9 2.4 24.9-5.9 31.9-10 8.5-22.3 9.2-33.5 2-4.2-2.6-5.8-4.5-8.4-9.8-3-6.1-3.2-7.2-2.8-14 .4-6.3 1-8.3 3.8-12.6 7.4-11.6 21.1-15.6 33.8-10m-760.8 32.1c0 3.3-.6 4.7-3.4 7.5l-3.4 3.4h-37.2v387h387v-387h-18c-23 0-24.8-.7-26.5-10.8l-.7-4.2h271.8l1.8 5.5c2.4 7.6 9.9 15.7 17.2 18.4 5.9 2.3 13.8 2.7 19.4 1.1 9.3-2.6 17.7-11.1 20.3-20.8l1.1-4.2h90.2l1.8 5.5c2.4 7.6 9.9 15.7 17.2 18.4 5.9 2.3 13.8 2.7 19.4 1.1 9.3-2.6 17.7-11.1 20.3-20.8l1.1-4.2h47.8l-.6 2.7c-.3 1.6-1.5 8.4-2.6 15.3s-2.3 13.5-2.5 14.7c-.5 1.9-.1 2.3 2 2.3h2.5v223.4c0 147.6.3 223.7 1 224.1s1.1-74.6 1.2-223.2l.3-223.8 2.3-.3c2.7-.4 2.7-.4-.3-18.2-1.4-8-2.5-15.1-2.5-15.8 0-.9 15-1.2 71.5-1.2h71.5v41.8l-3.2.7c-16.7 3.6-26.8 22.4-21.1 39 2.5 7.4 11.1 15.8 18.6 18.1l5.7 1.8v90.4l-3.2.7c-16.7 3.6-26.8 22.4-21.1 39 2.5 7.4 11.1 15.8 18.6 18.1l5.7 1.8v90.4l-3.2.7c-16.7 3.6-26.8 22.4-21.1 39 2.5 7.4 11.1 15.8 18.6 18.1l5.7 1.8v90.4l-3.2.7c-16.8 3.7-26.8 22.3-21.1 39 2.5 7.4 11.1 15.8 18.6 18.1l5.7 1.8v90.4l-3.2.7c-16.7 3.6-26.8 22.4-21.1 39 2.5 7.4 11.1 15.8 18.6 18.1l5.7 1.8v90.4l-3.2.7c-16.7 3.6-26.8 22.4-21.1 39 2.5 7.4 11.1 15.8 18.6 18.1l5.7 1.8v90.4l-3.2.7c-16.7 3.6-26.8 22.4-21.1 39 2.5 7.4 11.1 15.8 18.6 18.1l5.7 1.8v90.4l-3.2.7c-16.7 3.6-26.8 22.4-21.1 39 2.5 7.4 11.1 15.8 18.6 18.1l5.7 1.8v20.8c0 11.4-.3 20.8-.7 20.8-.5 0-8.3-1.3-17.5-2.9l-16.8-2.8v5.7l-53.7-.2-53.8-.3-.3-175.8c-.1-116-.5-175.7-1.2-175.7s-1 59.7-1 176v176h-153.1c-101.7 0-152.8.3-152.4 1s52.5 1 153.1 1h152.4v112h-2.6c-2.3 0-2.5.3-2 2.7.3 1.6 1.5 8.4 2.6 15.3s2.3 13.7 2.6 15.3l.6 2.7h-1199.2v-41.8l4.3-1c10.2-2.6 18.5-11.2 21.3-22.3 1.5-5.7 1.5-6.8 0-12.8-.9-3.6-2.8-8.2-4.1-10.3-3.4-5.1-10.9-10.4-16.7-11.9l-4.8-1.3v-23.8c0-13.1.3-23.8.6-23.8.9 0 30.6 4.9 33.2 5.5 1.8.5 2.2.1 2.2-2v-2.5h249c165 0 249-.3 249-1s-84.1-1.1-248.7-1.2l-248.8-.3-.3-2.6-.3-2.6-16.7 2.9c-9.2 1.5-17.3 2.8-17.9 2.8-1 0-1.3-4.8-1.3-20.9v-20.9l4.3-1c10.2-2.6 18.5-11.2 21.3-22.3 1.5-5.7 1.5-6.8 0-12.8-.9-3.6-2.8-8.2-4.1-10.3-3.4-5.1-10.9-10.4-16.7-11.9l-4.8-1.3v-90.4l4.3-1c10.2-2.6 18.5-11.2 21.3-22.3 1.5-5.7 1.5-6.8 0-12.8-.9-3.6-2.8-8.2-4.1-10.3-3.4-5.1-10.9-10.4-16.7-11.9l-4.8-1.3v-90.4l4.3-1c10.2-2.6 18.5-11.2 21.3-22.3 1.5-5.7 1.5-6.8 0-12.8-.9-3.6-2.8-8.2-4.1-10.3-3.4-5.1-10.9-10.4-16.7-11.9l-4.8-1.3v-90.4l4.3-1c10.2-2.6 18.5-11.2 21.3-22.3 1.5-5.7 1.5-6.8 0-12.8-.9-3.6-2.8-8.2-4.1-10.3-3.4-5.1-10.9-10.4-16.7-11.9l-4.8-1.3v-90.4l4.3-1c14.2-3.6 24.7-19.7 21.7-33.5-2.7-12.9-11.5-22.2-22.7-24.3l-3.3-.6v-90.6l4.3-1c10.2-2.6 18.5-11.2 21.3-22.3 1.5-5.7 1.5-6.8 0-12.8-.9-3.6-2.8-8.2-4.1-10.3-3.4-5.1-10.9-10.4-16.7-11.9l-4.8-1.3v-90.4l4.3-1c10.2-2.6 18.5-11.2 21.3-22.3 1.5-5.7 1.5-6.8 0-12.8-.9-3.6-2.8-8.2-4.1-10.3-3.4-5.1-10.9-10.4-16.7-11.9l-4.8-1.3v-35.5c0-19.5.5-40.7 1.1-47 3-31.4 19.2-61.8 43.6-81.6 16.9-13.8 40.8-24.1 60.8-26.4 4.4-.4 66.2-.9 137.3-1l129.2-.1zm112 15.9c-11.7 1.6-14 2.3-36 11.4l-23.5 9.7-19.9 15.3-19.9 15.3-15.3 19.9-15.3 19.9-9.9 24c-9.4 22.8-10 24.5-11.2 35.2-.7 6.2-1.4 11.3-1.6 11.3s-.4-36.9-.4-82v-82l82.8.1 82.7.1zm61.8 1.1 23.7 3 20 8.1c11 4.5 22 9.1 24.5 10.4 2.5 1.2 12.9 8.7 23.2 16.6l18.7 14.3 14.7 19c8 10.5 15.2 20.1 15.9 21.5s5.2 11.9 10 23.5l8.7 21 3.4 25 3.4 25-3.4 25-3.4 25-9.1 22c-5.1 12.1-9.8 23-10.7 24.2-.8 1.3-7.7 10.5-15.4 20.4l-13.9 18-18.3 14.1c-10.1 7.8-19.6 14.9-21.3 15.9-1.6 1-12.9 5.8-25 10.7l-22 9-24.5 3.1-24.5 3.1-24.5-3.4-24.5-3.3-22.5-9.3-22.5-9.3-20-15.4-20-15.3-15-19.5-15-19.5-9.6-23.3-9.6-23.2-3.2-24.6-3.2-24.6 3.2-24.4 3.2-24.4 9.5-23.2 9.5-23.1 15.2-19.8 15.2-19.7 19.7-15.1 19.6-15.2 22.8-9.4 22.7-9.4 23-3.2c12.7-1.8 24-3.2 25.3-3.3s13 1.3 26 3m166.1 80.1-.1 83.3-1.8-13c-1.8-12.3-2.4-14.2-11.5-36.4l-9.7-23.4-15.4-20-15.5-20-19.8-15.3-19.8-15.3-23.4-9.7c-22-9.1-24.2-9.8-35.9-11.4l-12.5-1.8 82.8-.1 82.7-.1zm646.1-54.1c5.9 2.6 9.6 6.2 12.8 12.4 5.3 10.1 2.6 24.8-6 32-6 5.1-11.2 6.8-19.7 6.3-6.7-.4-8.4-.9-13.3-4-4.7-3-6.1-4.7-8.8-10.2-3-6.1-3.2-7.2-2.8-14 .4-6.2 1-8.3 3.7-12.4 3.1-4.9 8.1-9.1 13.1-11.1 4.5-1.8 16.1-1.2 21 1m-1349.5 150.3c9.8 4.6 15 13.1 14.9 24.1s-5.3 19.3-15 24.1c-4.8 2.4-6.3 2.6-13.3 2.2-11.3-.7-18.1-5.3-22.9-15.7-2.1-4.6-2.4-6.3-2-12.8.5-6.6.9-8 4.4-13.1 5.4-7.8 12-11.2 21.8-11.2 5.4 0 8.3.6 12.1 2.4m1349.5-.3c9.9 4.5 15.5 13.3 15.4 24.4-.1 11.5-5.7 20.1-16.3 24.8-6 2.6-18.2 2.1-23.3-1.1-5.5-3.4-8.9-7.2-11.6-13.1-2.1-4.6-2.4-6.4-2-12.6.4-6.1 1-8.2 3.7-12.3 3.1-4.9 8.1-9.1 13.1-11.1 4.5-1.8 16.1-1.2 21 1m-646 118.9v83l-83.2-.1-83.3-.1 13-1.9c12.3-1.7 14.3-2.3 36.3-11.4l23.2-9.6 20.1-15.4 20-15.4 15.3-19.9 15.3-19.9 9.7-23.4c9.4-22.6 9.8-23.8 11.3-36.2.9-7 1.8-12.7 2-12.7s.3 37.3.3 83m-368-35.2 9.9 24.2 15.3 20 15.3 20 20.1 15.4 20.1 15.4 23.4 9.7c22.3 9.2 24 9.8 36.4 11.5l13 1.8-83.2.1-83.3.1.1-82.3c.2-76 .3-81.4 1.6-71.2 1.3 10.1 2.3 13.1 11.3 35.3m-335.5 66.6c9.8 4.6 15 13.1 14.9 24.1s-5.3 19.3-15 24.1c-4.8 2.4-6.3 2.6-13.2 2.2-6.8-.4-8.4-.9-13.4-4-4.7-3-6.1-4.7-8.8-10.2-3-6.1-3.2-7.1-2.8-14.1.5-6.8.9-8.2 4.4-13.3 5.4-7.8 12-11.2 21.8-11.2 5.4 0 8.3.6 12.1 2.4m1349.5-.3c9.9 4.5 15.5 13.3 15.4 24.4-.1 11.5-5.7 20.1-16.3 24.8-6 2.6-18.2 2.1-23.3-1.1-5.5-3.4-8.9-7.2-11.6-13.1-2.1-4.6-2.4-6.4-2-12.6.4-6.1 1-8.2 3.7-12.3 3.1-4.9 8.1-9.1 13.1-11.1 4.5-1.8 16.1-1.2 21 1m-1350 150c9.9 4.5 15.5 13.3 15.4 24.4-.1 11-5.2 19.3-15 24.1-4.8 2.4-6.3 2.6-13.3 2.2-11.3-.7-18.1-5.3-22.9-15.7-2.1-4.6-2.4-6.3-2-12.8.5-6.6.9-8 4.4-13.1 5.4-7.8 12-11.2 21.8-11.2 5 0 8.4.7 11.6 2.1m1350 0c9.9 4.5 15.5 13.3 15.4 24.4-.1 11.5-5.7 20.1-16.3 24.8-6 2.6-18.2 2.1-23.3-1.1-5.5-3.4-8.9-7.2-11.6-13.1-2.1-4.6-2.4-6.3-2-12.8.5-6.6.9-8 4.4-13.1 5.4-7.8 12-11.2 21.8-11.2 5 0 8.4.7 11.6 2.1m-1349.5 150.3c9.8 4.6 15 13.1 14.9 24.1s-5.3 19.3-15 24.1c-4.8 2.4-6.3 2.6-13.2 2.2-6.8-.4-8.4-.9-13.4-4-4.7-3-6.1-4.7-8.8-10.2-3-6.1-3.2-7.2-2.8-14 .4-6.2 1-8.3 3.7-12.4 3.1-4.9 8.1-9.1 13.1-11.1 4.9-1.9 16.1-1.3 21.5 1.3m1349.5-.3c9.9 4.5 15.5 13.3 15.4 24.4-.1 11.5-5.7 20.1-16.3 24.8-6 2.6-18.2 2.1-23.3-1.1-5.5-3.4-8.9-7.2-11.6-13.1-2.1-4.6-2.4-6.4-2-12.6.4-6.1 1-8.2 3.7-12.3 3.1-4.9 8.1-9.1 13.1-11.1 4.5-1.8 16.1-1.2 21 1m-1349.5 150.3c9.8 4.6 15 13.1 14.9 24.1s-5.3 19.3-15 24.1c-4.8 2.4-6.3 2.6-13.2 2.2-6.8-.4-8.4-.9-13.4-4-4.7-3-6.1-4.7-8.8-10.2-3-6.1-3.2-7.2-2.8-14 .4-6.2 1-8.3 3.7-12.4 3.1-4.9 8.1-9.1 13.1-11.1 4.9-1.9 16.1-1.3 21.5 1.3m1349.5-.3c9.9 4.5 15.5 13.3 15.4 24.4-.1 11.5-5.7 20.1-16.3 24.8-6 2.6-18.2 2.1-23.3-1.1-5.5-3.4-8.9-7.2-11.6-13.1-2.1-4.6-2.4-6.4-2-12.6.4-6.1 1-8.2 3.7-12.3 3.1-4.9 8.1-9.1 13.1-11.1 4.5-1.8 16.1-1.2 21 1m-1349.5 150.3c9.8 4.6 15 13.1 14.9 24.1s-5.3 19.3-15 24.1c-4.8 2.4-6.3 2.6-13.3 2.2-11.3-.7-18.1-5.3-22.9-15.7-2.1-4.6-2.4-6.4-2-12.6.4-6.1 1-8.2 3.7-12.3 3.1-4.9 8.1-9.1 13.1-11.1 4.9-1.9 16.1-1.3 21.5 1.3m1349.5-.3c9.9 4.5 15.5 13.3 15.4 24.4-.1 11.5-5.7 20.1-16.3 24.8-6 2.6-18.2 2.1-23.3-1.1-5.5-3.4-8.9-7.2-11.6-13.1-2.1-4.6-2.4-6.4-2-12.6.4-6.1 1-8.2 3.7-12.3 3.1-4.9 8.1-9.1 13.1-11.1 4.5-1.8 16.1-1.2 21 1m-1349.5 150.3c9.8 4.6 15 13.1 14.9 24.1s-5.3 19.3-15 24.1c-4.8 2.4-6.3 2.6-13.3 2.2-11.3-.7-18.1-5.3-22.9-15.7-2.1-4.6-2.4-6.4-2-12.6.4-6.1 1-8.2 3.7-12.3 3.1-4.9 8.1-9.1 13.1-11.1 4.9-1.9 16.1-1.3 21.5 1.3m1349.5-.3c9.9 4.5 15.5 13.3 15.4 24.4-.1 11.5-5.7 20.1-16.3 24.8-6 2.6-18.2 2.1-23.3-1.1-5.5-3.4-8.9-7.2-11.6-13.1-2.1-4.6-2.4-6.4-2-12.6.4-6.1 1-8.2 3.7-12.3 3.1-4.9 8.1-9.1 13.1-11.1 4.5-1.8 16.1-1.2 21 1m-15 120.8v23.9l-3.2.7c-16.7 3.6-26.8 22.4-21.1 39 2.5 7.4 11.1 15.8 18.6 18.1l5.7 1.8v41.6h-71.5c-56.5 0-71.5-.3-71.5-1.3 0-.6 1.3-8.7 2.9-18l2.8-16.7h-5.7v-112h108v2.5c0 2.1.3 2.4 2.8 1.9 5.1-1 29.7-5.2 31-5.3.9-.1 1.2 5.3 1.2 23.8m-1347 53.7v26.7l-4.5-.6c-2.6-.4-6.8-2.1-9.9-4.1-4.4-2.8-6-4.6-8.6-10-3-6.1-3.2-7.1-2.8-14.1.5-6.8.9-8.2 4.4-13.3 4.4-6.3 12.2-11.2 18-11.2h3.4zm12.5-24.2c9.8 4.6 15 13.1 14.9 24.1 0 7.5-1.9 12.4-6.9 18.3-3 3.6-11.8 8.2-15.7 8.2h-2.8v-53h2.8c1.5 0 5 1.1 7.7 2.4m1337.5 24.2v26.7l-4.6-.7c-8.2-1.1-15.1-6.7-19.2-15.5-2.1-4.6-2.4-6.4-2-12.6.4-6.1 1-8.2 3.7-12.3 4.6-7.2 12.1-12 18.9-12.1l3.2-.1zm12-24.5c5.9 2.6 9.6 6.2 12.8 12.4 5.3 10.1 2.6 24.8-6 32-4.2 3.5-10.5 6.4-14 6.5h-2.8v-53h2.8c1.5 0 4.7 1 7.2 2.1" style="fill:#000;stroke:none;stroke-width:.1"/><path d="M698.403 274.227c-4.1 1.8-8.2 6.7-9.7 11.9-.7 2.3-1.3 9.1-1.3 15.2 0 10 .3 11.5 2.8 16.7 2.2 4.5 3.6 6.1 7.1 7.7 2.3 1.2 5.5 2.1 6.9 2.1 7 0 13.7-5.6 15.8-13.3 1.9-6.6 1.7-23.3-.4-29.3-3.5-10-12.6-14.7-21.2-11m12.3 6.8c3.1 3 4.2 7.8 4.2 19.3 0 12.2-1.1 16.6-5.1 19.9-5.2 4.4-10.7 2.8-14-4.1-1.9-3.9-2.1-5.7-1.7-17.2.3-11.3.6-13.3 2.4-15.8 4.2-5.6 9.5-6.4 14.2-2.1M740.403 274.227c-4.1 1.8-8.2 6.7-9.7 11.9-.7 2.3-1.3 9.1-1.3 15.2 0 10 .3 11.5 2.8 16.7 2.2 4.5 3.6 6.1 7.1 7.7 2.3 1.2 5.5 2.1 6.9 2.1 7 0 13.7-5.6 15.8-13.3 1.9-6.6 1.7-23.3-.4-29.3-3.5-10-12.6-14.7-21.2-11m12.3 6.8c3.1 3 4.2 7.8 4.2 19.3 0 12.2-1.1 16.6-5.1 19.9-5.2 4.4-10.7 2.8-14-4.1-1.9-3.9-2.1-5.7-1.7-17.2.3-11.3.6-13.3 2.4-15.8 4.2-5.6 9.5-6.4 14.2-2.1M631.903 274.027c0 .2-1.1 6.1-2.5 13.1-1.4 7.1-2.3 13.3-2 13.8 1.1 1.7 4.7.9 7.7-1.6 2.2-1.9 4.1-2.5 7.5-2.5 3.8 0 5 .5 7.9 3.4s3.4 4.1 3.4 8.1c0 4.9-1 7.7-4.3 11.2-4.6 5.1-13.5 3.3-16.3-3.3-1.2-2.8-1.9-3.4-4.5-3.4-3 0-3.1.1-2.5 3.2.9 4.4 6.2 9.6 11 10.9 11.2 3 21.3-3.9 23.2-15.9 2-12.3-9.9-22.7-21.4-18.8-2.5.9-4.7 1.5-4.8 1.3-.3-.2.5-4.4 2.1-11.5.5-2.1 1-2.2 11-2.2h10.5v-6h-13c-7.1 0-13 .1-13 .2M785.903 288.127c-1.9.5-4.5 1.8-5.7 3l-2.3 2v-2.6c0-2.3-.4-2.7-3-2.7h-3v39h6v-10.8c.1-12.6 1-17.5 4.1-20.8 2.8-3 8.1-3.2 10.9-.4 1.8 1.8 2 3.3 2 17v15h6v-11.8c0-13.2 1.1-18.4 4.3-20.7 3-2.1 8.3-1.9 10.7.5 1.8 1.8 2 3.3 2 17v15h6.1l-.3-17c-.3-15.7-.5-17.1-2.4-19-4.5-4.6-14-4.2-18.5.6l-2.1 2.3-2.2-2.5c-2.6-3-7.9-4.4-12.6-3.1M848.903 288.127c-1.9.5-4.5 1.8-5.7 3l-2.3 2v-2.6c0-2.3-.4-2.7-3-2.7h-3v39h6v-10.8c.1-12.6 1-17.5 4.1-20.8 2.8-3 8.1-3.2 10.9-.4 1.8 1.8 2 3.3 2 17v15h6v-11.8c0-13.2 1.1-18.4 4.3-20.7 3-2.1 8.3-1.9 10.7.5 1.8 1.8 2 3.3 2 17v15h6.1l-.3-17c-.3-15.7-.5-17.1-2.4-19-4.5-4.6-14-4.2-18.5.6l-2.1 2.3-2.2-2.5c-2.6-3-7.9-4.4-12.6-3.1M565.903 302.127v6.3l16.8-2.7c9.2-1.6 17.6-2.8 18.6-2.9 4.3 0 .3-1-15.4-3.5-9.1-1.4-17.3-2.9-18.2-3.1-1.6-.5-1.8.2-1.8 5.9M669.903 323.327c0 3.3.2 3.5 3.5 3.5s3.5-.2 3.5-3.5-.2-3.5-3.5-3.5-3.5.2-3.5 3.5M682.203 508.427c-2.9 1.5-6.3 6.5-6.3 9.4 0 .7.7 2.7 1.6 4.5 2.1 4.5 7.3 6.9 13 6.1 4.3-.6 4.4-.5 4.4 2.4v3h-17.1l.3 2.7.3 2.8h22l.3-9.8.3-9.7h-2.8c-1.5 0-3.7.7-4.7 1.5-1.1.8-3.2 1.5-4.8 1.5-2.7 0-6.8-3-6.8-5 0-.6.9-1.9 2-3 2.8-2.8 7.5-2.6 10.2.5 4.4 5.1 9 2.1 5.2-3.4-3.3-4.7-11.3-6.3-17.1-3.5m16.5 20.1-.2 5.8-.3-5c-.3-2.7-1-5.3-1.6-5.7-.8-.5-.6-.8.6-.8 1.4 0 1.7.9 1.5 5.7m.2 7.3c0 .5-.5 1-1.1 1-.5 0-.7-.5-.4-1 .3-.6.8-1 1.1-1 .2 0 .4.4.4 1m-6.2.7c-2.1.2-5.7.2-8 0-2.4-.2-.7-.4 3.7-.4s6.3.2 4.3.4M709.903 511.227c0 4.3-.1 4.5-3.2 4.8-2.9.3-3.3.6-3.3 3.3s.4 3 3.3 3.3l3.2.3v8.5c0 8.2 0 8.4 2.4 8.4 3.5 0 18.6-17.3 18.6-21.2v-2.8h-15v-4.5c0-4.3-.1-4.5-3-4.5s-3 .2-3 4.4m10.8 7.4c3.9.2 7.2.6 7.2 1s-3.4.6-7.5.4l-7.5-.4v6.9c0 3.8.3 7.3.7 7.6.4.4 2-.5 3.7-2 2.7-2.5 2.7-2.3-.3 1-1.9 2-3.9 3.7-4.3 3.7s-.8-3.8-.8-8.5v-8.5l-3.2-.2-3.3-.1 3.3-.4c3.1-.4 3.2-.6 3.4-5.1l.1-4.7.6 4.5.6 4.5zm-.7 6c-.5 1-1.7 2.4-2.5 3.2-1.4 1.1-1.6.8-1.6-1.9s.4-3.1 2.5-3.1c2.2 0 2.4.3 1.6 1.8m5.9-1.5c0 .2-1.2 1.4-2.7 2.8l-2.8 2.4 2.4-2.8c2.3-2.5 3.1-3.2 3.1-2.4M733.103 523.027l.3 16.3 2.4.3c3.4.5 7-4.2 7.1-9.2 0-2.9-.3-3.7-1.5-3.3-1.2.5-1.5-1.1-1.7-9.6l-.3-10.2-3.3-.3-3.3-.3zm3.6 13.2c-.5.6-.7-5.3-.6-13l.2-13.9.5 13c.4 7.1.3 13.4-.1 13.9M745.603 507.527c-.4.3-.7 1.7-.7 2.9 0 2.2.4 2.3 7.6 2.6l7.6.3-6.6 5.5c-8.6 7.3-10.2 12.1-5.8 17.3 2.3 2.6 8.3 3.9 13.3 2.8q6.75-1.5 8.4-6.9c.5-1.9.3-2.2-2.1-2.2-1.5 0-3.6.8-4.6 1.7-1.9 1.7-7.6 2.2-9.7.8-2.3-1.4-.8-3.6 7.9-11.7 7-6.6 9-9 9-11.1v-2.7h-11.8c-6.5 0-12.2.3-12.5.7m21.3 3.1c0 .5-1.5 2.1-3.2 3.8-2.7 2.3-2.9 2.4-1 .3 1.2-1.4 2.2-3.1 2.2-3.7 0-.7.5-1.2 1-1.2.6 0 1 .4 1 .8m-8 7.5c0 .2-1.9 2.1-4.2 4.2l-4.3 4 4-4.3c3.6-3.9 4.5-4.7 4.5-3.9m-9.6 11.2c-.4 1.8-.1 3.3 1.2 4.8l1.8 2.2-2.3-2.2c-1.8-1.6-2.2-2.7-1.7-4.7.3-1.4.9-2.6 1.1-2.6.3 0 .3 1.1-.1 2.5M777.903 508.627c-3.5 1.7-6.6 6.4-5.5 8.2s5.4 1.1 6.5-1c.8-1.6 2.1-2 5.9-2 6.4 0 7.6 1.5 7.6 9.7 0 5.2-.4 6.7-1.9 7.9-3 2.1-9.2 1.8-11.5-.7-2.7-2.9-6.7-2.3-6.3 1.1.5 5.7 10.1 9.5 17.6 7 1.9-.6 4.7-2.5 6.1-4.1 2.2-2.7 2.5-3.9 2.5-11.2 0-6.7-.4-8.6-2.2-11.4-3.6-5.2-12.2-6.9-18.8-3.5m6.9 2.1c-3.1.3-6.2 1-7 1.6-.8.5-.6.2.4-.8 1.4-1.2 3.4-1.7 7.1-1.6l5.1.2zm8.6 1.9c-.3.3-1.1 0-1.8-.7-.9-1-.8-1.1.6-.5 1 .3 1.5.9 1.2 1.2m2.3 4.3c-.3.8-.7.3-1.1-1-.4-1.7-.3-2.1.5-1.3.5.5.8 1.6.6 2.3m-2.6 17.1c-3 3-13.1 3.3-15.9.5-1.7-1.7-1.7-1.7 1.5-.1 4 2 11.6 1.4 14-1 .9-.9 1.9-1.6 2.1-1.6.3 0-.5 1-1.7 2.2M807.303 508.227c-4.7 2.1-6.4 5.2-6.4 11.8v5.8h12v-3c0-2.6-.4-3-2.6-3s-2.5-.4-2.2-2.8c.3-2.6.5-2.7 5.8-2.7 4.8 0 5.6.3 6.8 2.5 1.9 3.6 1 12.9-1.3 14.6-2.9 2.2-9.1 1.8-11.4-.7-2.7-2.9-6.7-2.3-6.3 1.1.5 5.7 10.1 9.5 17.6 7 2-.6 4.7-2.6 6.1-4.4 2.2-2.9 2.5-4.3 2.5-11.1 0-6.5-.4-8.5-2.2-11.2-3.4-5-11.8-6.8-18.4-3.9m6.5 2.5c-7.3.8-9.1 2.3-8.7 7.5.2 3.3.7 4.1 2.8 4.7 2.3.6 2.2.7-.7.8-3.3.1-3.3.1-3.3-4.8 0-6.6 3-9.2 10.4-9l5.1.2zm8.6 2.1c1 1.1 1.6 2 1.3 2s-1.3-.9-2.3-2-1.6-2-1.3-2 1.3.9 2.3 2m2.2 14.2c-.2 2.4-.4.7-.4-3.7s.2-6.3.4-4.3c.2 2.1.2 5.7 0 8m-10.7 8.3c4.3 0 6.4-.5 8.1-2l2.4-1.9-2.3 2.4c-1.9 2.1-3.2 2.5-8.2 2.5s-6.3-.4-8.2-2.5l-2.3-2.4 2.4 1.9c1.7 1.5 3.8 2 8.1 2M665.903 568.827c0 8.4.2 9.3 2.6 11.7 2 2 3.1 2.4 5.7 1.9 1.8-.4 3.7-.6 4.2-.6.6.1 3.7.2 7 .3l6 .2.3-11.3.3-11.2h-6.1v8.5c0 7.8-.2 8.5-2 8.5s-2-.7-2-8.5v-8.5h-6v8.5c0 7.8-.2 8.5-2 8.5s-2-.7-2-8.5v-8.5h-6zM694.503 567.727c.8 11.4 1 12 5.2 13.8 4 1.7 12.4 1.2 14.8-.8 2.2-1.8 1.8-5.9-.6-5.9h-2l2-2c2.8-2.8 2.7-8.7-.1-11.1-1.7-1.5-3.8-1.8-10.9-1.8l-8.8.1zm15.1-1.3c.8 2.1-.7 3.4-5 4.1-3 .4-3.7.2-3.7-1 0-1.9 3.7-4.7 6.3-4.7.9 0 2 .7 2.4 1.6m.8 9.4c-.3.5-2.7.9-5.3.8l-4.7-.1 4.5-.7c2.5-.4 4.9-.8 5.3-.8.5-.1.5.2.2.8M721.703 562.027c-3.7 3.1-4.1 6.2-.9 6.6 1.4.2 3-.3 3.6-1.1.6-.9 2.3-1.9 3.7-2.2 5.1-1.3 9 6.1 5.2 9.9-2 2.1-8 2.1-8.8 0q-.6-1.5-3.3-1.2c-2.2.2-2.7.8-2.5 2.3.6 3.1 2.1 4.4 6.3 5.5 9.2 2.5 16.5-3.1 15.6-11.9-.7-6.3-4-9.3-10.9-9.8-4.4-.4-5.7 0-8 1.9M743.703 570.027c.4 12.5.5 12.8 3.7 12.8 2.4 0 2.5-.1 2.5-7.4 0-7.9 1.3-10.6 5-10.6s5 2.7 5 10.6v7.5l2.8-.3c2.5-.3 2.7-.6 3-5.8.7-11.5-2.6-17-10.2-17-2.3 0-4.7.5-5.4 1.2-.9.9-1.2.9-1.2 0 0-.7-1.3-1.2-2.8-1.2h-2.8zM767.903 576.027v15.9l2.8-.3c2.5-.3 2.7-.7 3-4.9l.3-4.7 3.8.5c4.3.6 9.4-1.6 11.1-4.6.5-1.1 1-4.3 1-7.1 0-4.4-.5-5.6-2.9-8.1-2.7-2.7-3.3-2.8-11-2.7l-8.1.1zm14.9-8.8c1.7 2 1 7.7-1.1 9q-1.65 1.05-4.5 0c-2.3-.8-2.9-1.6-3.1-4.8-.2-2.4.2-4.2 1-4.7 2.1-1.4 6.4-1 7.7.5M799.903 567.127c0 6.9-.2 7.4-2.5 8.5-1.4.7-3.2 1.2-4 1.2-1.6 0-2.1 4.5-.6 5.4.4.3 2.2.1 3.9-.4 1.9-.5 3.4-.5 3.7.1.4.5 1.7.9 3.1.9h2.4v-23h-6zM808.203 561.027c.2.7 2.6 7.9 5.3 16l4.8 14.8h7.2l4.8-14.8c2.7-8.1 5.1-15.3 5.3-16q.6-1.2-3-1.2c-3.2 0-3.5.3-4.1 3.5l-.7 3.6-5.7-.3c-5.4-.3-5.7-.4-6.6-3.6-.8-2.8-1.3-3.2-4.4-3.2-2.3 0-3.3.4-2.9 1.2m22.1 8.2c-.3 1.5-.8 2.5-1.1 2.3-.2-.3-.1-1.7.3-3.1.3-1.5.8-2.5 1.1-2.3.2.3.1 1.7-.3 3.1m-5.4 4.3c0 .5-.7 2.8-1.4 5.3l-1.4 4.5-1.1-2.8c-.6-1.5-1.4-3.9-1.7-5.2-.6-2.3-.3-2.5 2.5-2.5 1.7 0 3.1.3 3.1.7M1196.403 696.227c-6.8 1.7-10.3 3.7-15.3 8.7-7.5 7.6-10.2 19.8-6.6 30.3 2.4 6.9 10.2 15 17 17.5 13.8 5.2 28.9.3 36.1-11.8 4.7-7.8 5.8-14.5 3.8-22.3-.9-3.5-2.7-8-4.1-10.1-6.3-9.6-20-15-30.9-12.3m17.4 4.7c5.7 2.4 10 6.6 13.3 12.9 3.3 6.5 3.2 16.6-.5 23.6-7.5 14.7-24.9 19.1-39.3 9.8-4.2-2.6-5.8-4.5-8.4-9.8-3-6.1-3.2-7.2-2.8-14 .4-6.2 1-8.3 3.7-12.4 7.5-11.8 21-15.8 34-10.1M1346.403 696.227c-6.8 1.7-10.3 3.7-15.3 8.7-7.5 7.6-10.2 19.8-6.6 30.3 2.4 6.9 10.2 15 17 17.5 13.8 5.2 28.9.3 36.1-11.8 4.7-7.8 5.8-14.5 3.8-22.3-.9-3.5-2.7-8-4.1-10.1-6.3-9.6-20-15-30.9-12.3m17.4 4.7c5.7 2.4 10 6.6 13.3 12.9 3.3 6.5 3.2 16.6-.5 23.6-7.5 14.7-24.9 19.1-39.3 9.8-4.2-2.6-5.8-4.5-8.4-9.8-3-6.1-3.2-7.2-2.8-14 .4-6.2 1-8.3 3.7-12.4 7.5-11.8 21-15.8 34-10.1M1496.403 696.227c-10.4 2.6-18 9-21.5 18.2-4.1 11.1-2 22 6.2 30.9 13.1 14.4 36.6 12.2 46.5-4.4 4.7-7.8 5.8-14.5 3.8-22.3-.9-3.5-2.7-8-4.1-10.1-6.3-9.6-20-15-30.9-12.3m17.4 4.7c5.7 2.4 10 6.6 13.3 12.9 3.3 6.5 3.2 16.6-.5 23.6-7.5 14.7-24.9 19.1-39.3 9.8-4.2-2.6-5.8-4.5-8.4-9.8-3-6.1-3.2-7.2-2.8-14 .4-6.3 1-8.3 3.8-12.6 7.5-11.6 20.9-15.6 33.9-9.9M296.403 846.227c-6.8 1.7-10.3 3.7-15.3 8.7-7.5 7.6-10.2 19.8-6.6 30.3 2.4 6.9 10.2 15 17 17.5 17.5 6.6 35.3-2.8 40-21 1.5-5.7 1.5-6.8 0-12.8-.9-3.6-2.8-8.2-4.1-10.3-6.4-9.7-20.1-15.1-31-12.4m17.4 4.7c5.7 2.4 10 6.6 13.3 12.9 1.8 3.5 2.3 6 2.2 11.5-.1 13.5-8.8 23.9-22.1 26.4-6.5 1.3-14.9-.6-20-4.5-5-3.7-5.9-4.9-9-11.3-2.2-4.6-2.5-6.3-2.1-12.6.4-6.1 1-8.2 3.7-12.3 7.5-11.8 21-15.8 34-10.1M1496.403 846.227c-6.8 1.7-10.9 4-15.5 8.7-7.2 7.5-9.9 20-6.4 30.3 2.4 6.9 10.2 15 17 17.5 17.5 6.6 35.3-2.8 40-21 1.5-5.7 1.5-6.8 0-12.8-.9-3.6-2.8-8.2-4.1-10.3-6.4-9.7-20.1-15.1-31-12.4m17.4 4.7c5.7 2.4 10 6.6 13.3 12.9 1.8 3.5 2.3 6 2.2 11.5-.1 13.5-8.8 23.9-22 26.4-6.5 1.3-13.5-.3-20-4.5-4.2-2.6-5.8-4.5-8.4-9.8-3-6.1-3.2-7.2-2.8-14 .4-6.3 1-8.3 3.8-12.6 7.5-11.6 20.9-15.6 33.9-9.9M296.403 996.227c-6.8 1.7-10.3 3.7-15.3 8.7-7.5 7.6-10.2 19.8-6.6 30.3 2.4 6.9 10.2 15 17 17.5 17.5 6.6 35.3-2.8 40-21 1.5-5.7 1.5-6.8 0-12.8-.9-3.6-2.8-8.2-4.1-10.3-6.4-9.7-20.1-15.1-31-12.4m17.4 4.7c5.7 2.4 10 6.6 13.3 12.9 1.8 3.5 2.3 6 2.2 11.5-.1 13.5-8.8 23.9-22.1 26.4-6.5 1.3-14.9-.6-20-4.5-5-3.7-5.9-4.9-9-11.3-2.2-4.6-2.5-6.3-2.1-12.6.4-6.1 1-8.2 3.7-12.3 7.5-11.8 21-15.8 34-10.1M1496.403 996.227c-6.8 1.7-10.9 4-15.5 8.7-7.2 7.5-9.9 20-6.4 30.3 2.4 6.9 10.2 15 17 17.5 17.5 6.6 35.3-2.8 40-21 1.5-5.7 1.5-6.8 0-12.8-.9-3.6-2.8-8.2-4.1-10.3-6.4-9.7-20.1-15.1-31-12.4m17.4 4.7c5.7 2.4 10 6.6 13.3 12.9 1.8 3.5 2.3 6 2.2 11.5-.1 13.5-8.8 23.9-22 26.4-6.5 1.3-13.5-.3-20-4.5-4.2-2.6-5.8-4.5-8.4-9.8-3-6.1-3.2-7.2-2.8-14 .4-6.3 1-8.3 3.8-12.6 7.5-11.6 20.9-15.6 33.9-9.9M296.403 1146.227c-10.4 2.6-18 9-21.5 18.2-4.1 11.1-2 22 6.2 30.9 16 17.6 44.4 10 50.4-13.5 1.6-6.4 1.1-12.1-1.9-19.3-5.1-11.9-20.3-19.5-33.2-16.3m17.3 4.6c19.6 8.7 21.3 36.7 2.8 47.5-9.2 5.4-21.4 4.9-29.3-1.1-5-3.7-5.9-4.9-9-11.3-2.2-4.6-2.5-6.3-2.1-12.6.4-6.1 1-8.2 3.8-12.5 7.4-11.6 21.1-15.6 33.8-10M1496.403 1146.227c-10.4 2.6-18 9-21.5 18.2-4.1 11.1-2 22 6.2 30.9 16 17.6 44.4 10 50.4-13.5 1.6-6.4 1.1-12.1-1.9-19.3-5.1-11.9-20.3-19.5-33.2-16.3m17.3 4.6c10.1 4.5 15.7 13.3 15.6 24.5-.1 13.5-8.8 23.9-22 26.4-6.5 1.3-13.5-.3-20-4.5-4.2-2.6-5.8-4.5-8.4-9.8-3-6.1-3.2-7.2-2.8-14 .4-6.3 1-8.3 3.8-12.6 7.4-11.6 21.1-15.6 33.8-10M1421.403 1165.827c-6.9 2.7-8 14.3-2.1 20l2.5 2.3-2.4 1.9c-5 3.9-5.2 13.3-.3 18.5l2.1 2.3h-2.6c-2.3 0-2.7.4-2.7 3v3h39v-5.8l-13.2-.4c-17.1-.5-20.7-2.3-20.8-10 0-6.1 2-6.8 19.2-6.8h14.8v-6h-11.7c-13.3 0-18.5-1.1-20.8-4.3-2.1-3-1.9-8.3.5-10.7 1.8-1.8 3.3-2 17-2h15v-6l-15.7.1c-8.7 0-16.7.4-17.8.9M1421.403 1227.827c-6.9 2.7-8 14.3-2.1 20l2.5 2.3-2.4 1.9c-5 3.9-5.2 13.3-.3 18.5l2.1 2.3h-2.6c-2.3 0-2.7.4-2.7 3v3h39v-5.8l-13.2-.4c-17.1-.5-20.7-2.3-20.8-10 0-6.1 2-6.8 19.2-6.8h14.8v-6h-11.7c-13.3 0-18.5-1.1-20.8-4.3-2.1-3-1.9-8.3.5-10.7 1.8-1.8 3.3-2 17-2h15v-6l-15.7.1c-8.7 0-16.7.4-17.8.9M1429.903 1288.327c-8.6 3.9-12.5 12.2-9.6 20.5.8 2.4 1.4 4.5 1.3 4.7-.2.2-4.7-.7-11.4-2.2-2.2-.5-2.3-1-2.3-11v-10.5h-6v13c0 7.1.1 13 .3 13 .1 0 6 1.1 13 2.5 7.1 1.4 13.3 2.3 13.8 2 1.7-1.1.9-4.7-1.6-7.7-1.9-2.2-2.5-4.1-2.5-7.5 0-3.8.5-5 3.4-7.9s4.1-3.4 8.1-3.4c4.9 0 7.7 1 11.2 4.3 5.1 4.6 3.3 13.5-3.3 16.3-2.8 1.2-3.4 1.9-3.4 4.5 0 3 .1 3.1 3.2 2.5 1.8-.3 4.7-2.1 6.5-3.8 8.4-8.1 5.9-22.8-4.7-28.3-4.4-2.3-12-2.7-16-1M296.403 1296.227c-6.8 1.7-10.3 3.7-15.3 8.7-7.5 7.6-10.2 19.8-6.6 30.3 2.4 6.9 10.2 15 17 17.5 17.5 6.6 35.3-2.8 40-21 1.5-5.7 1.5-6.8 0-12.8-.9-3.6-2.8-8.2-4.1-10.3-6.4-9.7-20.1-15.1-31-12.4m17.4 4.7c5.7 2.4 10 6.6 13.3 12.9 1.8 3.5 2.3 6 2.2 11.5-.1 13.5-8.8 23.9-22.1 26.4-6.5 1.3-14.9-.6-20-4.5-5-3.7-5.9-4.9-9-11.3-2.2-4.6-2.5-6.3-2.1-12.6.4-6.1 1-8.2 3.7-12.3 7.5-11.8 21-15.8 34-10.1M1496.403 1296.227c-6.8 1.7-10.9 4-15.5 8.7-7.2 7.5-9.9 20-6.4 30.3 2.4 6.9 10.2 15 17 17.5 17.5 6.6 35.3-2.8 40-21 1.5-5.7 1.5-6.8 0-12.8-.9-3.6-2.8-8.2-4.1-10.3-6.4-9.7-20.1-15.1-31-12.4m17.4 4.7c5.7 2.4 10 6.6 13.3 12.9 1.8 3.5 2.3 6 2.2 11.5-.1 13.5-8.8 23.9-22 26.4-6.5 1.3-13.5-.3-20-4.5-4.2-2.6-5.8-4.5-8.4-9.8-3-6.1-3.2-7.2-2.8-14 .4-6.3 1-8.3 3.8-12.6 7.5-11.6 20.9-15.6 33.9-9.9" style="fill:#000;stroke:none;stroke-width:.1"/><path d="M1499.103 1324.027c-.2 4.4-2.1 7.6-3 5-.2-.7-.8-1.2-1.3-1.2-.4 0-.6.7-.3 1.5.8 1.9 4.3 2 5 .1.3-.7.4-3.3.1-5.7l-.4-4.4zM1503.603 1320.527c-.4.3-.7 1.1-.7 1.7s.5.5 1.2-.2 1.8-1.2 2.5-1.2c2.3 0 1.4 3.3-1.9 6.7l-3.2 3.3 4.5-.1c2.9-.1 3.5-.3 1.7-.6-2.6-.4-4.1-2.3-1.8-2.3 1.6 0 4.1-4.6 3.4-6.4-.6-1.6-4.4-2.2-5.7-.9M1433.203 1331.227c-1.7.8-3.9 2.7-4.9 4.3-1 1.5-1.9 3-2 3.1-.2.2-1.6-1.1-3.2-2.9-2.6-2.9-3.5-3.3-7.9-3.3-6.2 0-10.5 2.8-12.7 8.4-2.1 5.2-2 8.5.3 13.7 3 6.6 9.1 9.4 15.6 7.3 2.2-.7 4.4-2.4 5.5-4.2l1.8-3 1.3 2.8c4.7 9.5 19.4 9.6 25.7.1 2.2-3.3 2.7-5.2 2.7-10.1-.1-7.1-2-11.4-6.6-14.7-3.9-2.7-11.2-3.5-15.6-1.5m11.4 6.3c4.3 2 6.8 7.1 5.8 11.9-1.5 8.1-12.7 11.4-18.6 5.5-5.3-5.4-3.5-14.6 3.5-17.7 4.1-1.7 5.1-1.7 9.3.3m-23.7 3.3c2.7 2.7 3.5 6.5 2 10.1-4 9.5-19.1 4.4-16.6-5.6 1.5-6.1 10.3-8.8 14.6-4.5M1447.903 1378.327c0 3.3.2 3.5 3.5 3.5s3.5-.2 3.5-3.5-.2-3.5-3.5-3.5-3.5.2-3.5 3.5M1408.903 1394.727c-5.1 2.7-7.5 7.4-7.5 14.6.1 3.7.7 7.2 1.8 9.3 2.1 3.9 7.1 7.2 11 7.2 2.3 0 2.7-.4 2.7-2.9 0-2.4-.5-3-2.9-3.4-6-1.2-9.7-8.7-6.9-14.3 2.2-4.6 6-6.8 10.5-6 3.2.6 5.7 2.8 15.9 13.2 10.8 11 16.5 15.4 20.4 15.4.6 0 1-6.1 1-17.5v-17.5h-6v13c0 10.9-.2 12.8-1.5 12.4-.8-.3-5.4-5.2-10.4-10.9-12.2-14-19.4-17.3-28.1-12.6M299.103 1399.027c-.2 4.4-2.1 7.6-3 5-.2-.7-.8-1.2-1.3-1.2-.4 0-.6.7-.3 1.5.8 1.9 4.3 2 5 .1.3-.7.4-3.3.1-5.7l-.4-4.4zM305.103 1396.027c-1.5 1.5-1.6 3.2-.2 2.3.6-.4 1 1 1 3.4 0 2.3.5 4.1 1 4.1.6 0 1-2.5 1-5.5 0-5.6-.6-6.5-2.8-4.3M1408.903 1436.727c-5.1 2.7-7.5 7.4-7.5 14.6.1 3.7.7 7.2 1.8 9.3 2.1 3.9 7.1 7.2 11 7.2 2.3 0 2.7-.4 2.7-2.9 0-2.4-.5-3-2.9-3.4-6-1.2-9.7-8.7-6.9-14.3 2.2-4.6 6-6.8 10.5-6 3.2.6 5.7 2.8 15.9 13.2 10.8 11 16.5 15.4 20.4 15.4.6 0 1-6.1 1-17.5v-17.5h-6v13c0 10.9-.2 12.8-1.5 12.4-.8-.3-5.4-5.2-10.4-10.9-12.2-14-19.4-17.3-28.1-12.6M296.403 1446.227c-6.8 1.7-10.3 3.7-15.3 8.7-7.5 7.6-10.2 19.8-6.6 30.3 2.4 6.9 10.2 15 17 17.5 17.5 6.6 35.3-2.8 40-21 1.5-5.7 1.5-6.8 0-12.8-.9-3.6-2.8-8.2-4.1-10.3-6.4-9.7-20.1-15.1-31-12.4m17.4 4.7c5.7 2.4 10 6.6 13.3 12.9 1.8 3.5 2.3 6 2.2 11.5-.1 13.5-8.8 23.9-22.1 26.4-6.5 1.3-14.9-.6-20-4.5-5-3.7-5.9-4.9-9-11.3-2.2-4.6-2.5-6.3-2.1-12.6.4-6.1 1-8.2 3.7-12.3 7.5-11.8 21-15.8 34-10.1M1496.403 1446.227c-6.8 1.7-10.9 4-15.5 8.7-7.2 7.5-9.9 20-6.4 30.3 2.4 6.9 10.2 15 17 17.5 17.5 6.6 35.3-2.8 40-21 1.5-5.7 1.5-6.8 0-12.8-.9-3.6-2.8-8.2-4.1-10.3-6.4-9.7-20.1-15.1-31-12.4m17.4 4.7c5.7 2.4 10 6.6 13.3 12.9 1.8 3.5 2.3 6 2.2 11.5-.1 13.5-8.8 23.9-22 26.4-6.5 1.3-13.5-.3-20-4.5-4.2-2.6-5.8-4.5-8.4-9.8-3-6.1-3.2-7.2-2.8-14 .4-6.3 1-8.3 3.8-12.6 7.5-11.6 20.9-15.6 33.9-9.9M296.403 1596.227c-6.8 1.7-10.3 3.7-15.3 8.7-7.5 7.6-10.2 19.8-6.6 30.3 2.4 6.9 10.2 15 17 17.5 17.5 6.6 35.3-2.8 40-21 1.5-5.7 1.5-6.8 0-12.8-.9-3.6-2.8-8.2-4.1-10.3-6.4-9.7-20.1-15.1-31-12.4m17.4 4.7c5.7 2.4 10 6.6 13.3 12.9 1.8 3.5 2.3 6 2.2 11.5-.1 13.5-8.8 23.9-22.1 26.4-6.5 1.3-14.9-.6-20-4.5-5-3.7-5.9-4.9-9-11.3-2.2-4.6-2.5-6.3-2.1-12.6.4-6.1 1-8.2 3.7-12.3 7.5-11.8 21-15.8 34-10.1M1496.403 1596.227c-6.8 1.7-10.9 4-15.5 8.7-7.2 7.5-9.9 20-6.4 30.3 2.4 6.9 10.2 15 17 17.5 17.5 6.6 35.3-2.8 40-21 1.5-5.7 1.5-6.8 0-12.8-.9-3.6-2.8-8.2-4.1-10.3-6.4-9.7-20.1-15.1-31-12.4m17.4 4.7c5.7 2.4 10 6.6 13.3 12.9 1.8 3.5 2.3 6 2.2 11.5-.1 13.5-8.8 23.9-22 26.4-6.5 1.3-13.5-.3-20-4.5-4.2-2.6-5.8-4.5-8.4-9.8-3-6.1-3.2-7.2-2.8-14 .4-6.3 1-8.3 3.8-12.6 7.5-11.6 20.9-15.6 33.9-9.9M296.403 1746.227c-6.8 1.7-10.3 3.7-15.3 8.7-7.5 7.6-10.2 19.8-6.6 30.3 2.4 6.9 10.2 15 17 17.5 17.5 6.6 35.3-2.8 40-21 1.5-5.7 1.5-6.8 0-12.8-.9-3.6-2.8-8.2-4.1-10.3-6.4-9.7-20.1-15.1-31-12.4m17.4 4.7c5.7 2.4 10 6.6 13.3 12.9 1.8 3.5 2.3 6 2.2 11.5-.1 13.5-8.8 23.9-22.1 26.4-6.5 1.3-14.9-.6-20-4.5-5-3.7-5.9-4.9-9-11.3-2.2-4.6-2.5-6.3-2.1-12.6.4-6.1 1-8.2 3.7-12.3 7.5-11.8 21-15.8 34-10.1M1496.403 1746.227c-6.8 1.7-10.9 4-15.5 8.7-7.2 7.5-9.9 20-6.4 30.3 2.4 6.9 10.2 15 17 17.5 17.5 6.6 35.3-2.8 40-21 1.5-5.7 1.5-6.8 0-12.8-.9-3.6-2.8-8.2-4.1-10.3-6.4-9.7-20.1-15.1-31-12.4m17.4 4.7c5.7 2.4 10 6.6 13.3 12.9 1.8 3.5 2.3 6 2.2 11.5-.1 13.5-8.8 23.9-22 26.4-6.5 1.3-13.5-.3-20-4.5-4.2-2.6-5.8-4.5-8.4-9.8-3-6.1-3.2-7.2-2.8-14 .4-6.3 1-8.3 3.8-12.6 7.5-11.6 20.9-15.6 33.9-9.9M801.603 1819.227c-4.9 1.8-6.7 3.4-8.4 7.3-2.2 5.4-1.8 7.3 1.7 7.3 2.3 0 3-.4 3-2 0-3.1 5-7.8 9-8.5 6.7-1.1 12.9 5.2 11.5 11.6-.9 3.9-4.6 8.2-15.1 17.7-8.4 7.4-13.4 14.2-13.4 18 0 .9 4.7 1.2 17.5 1.2h17.5v-6h-13c-10.8 0-12.8-.2-12.4-1.4.3-.8 4.8-5.1 10-9.6s10.6-9.9 12.1-12.1c5.2-7.9 3.6-18-3.5-22.2-4.1-2.4-11.8-3.1-16.5-1.3M843.603 1819.227c-4.9 1.8-6.7 3.4-8.4 7.3-2.2 5.4-1.8 7.3 1.7 7.3 2.3 0 3-.4 3-2 0-3.1 5-7.8 9-8.5 6.7-1.1 12.9 5.2 11.5 11.6-.9 3.9-4.6 8.2-15.1 17.7-8.4 7.4-13.4 14.2-13.4 18 0 .9 4.7 1.2 17.5 1.2h17.5v-6h-13c-10.8 0-12.8-.2-12.4-1.4.3-.8 4.8-5.1 10-9.6s10.6-9.9 12.1-12.1c5.2-7.9 3.6-18-3.5-22.2-4.1-2.4-11.8-3.1-16.5-1.3M905.903 1819.327c-5 2.3-6.9 4.3-8.1 8.7-1.4 5.2.3 10.4 4.3 12.7l2.9 1.8-3.6 2.2c-6.2 3.6-8 11.1-4.6 18.7 4.9 10.8 22.4 12.4 29.7 2.8 5-6.5 4.1-16.4-1.9-20.6-1.8-1.2-3.4-2.3-3.6-2.4-.2-.2 1-1.5 2.7-2.9 4.1-3.4 4.9-8.2 2.3-13.9-3.1-7.1-12.6-10.4-20.1-7.1m11.9 6.1c3.1 2.6 4.1 6.8 2.5 10.9-1.8 4.7-11.8 5.6-14.9 1.2-2.3-3.3-1.9-9 .8-11.4 4.3-4 7.5-4.2 11.6-.7m.7 22.3c4.2 2.6 6 7.8 4.4 12.7-1.3 3.9-6 7.4-9.8 7.4-3.7 0-8.8-2.8-10.1-5.6-.6-1.4-1.1-4.3-1.1-6.5 0-8.3 9-12.6 16.6-8M943.903 1819.027c0 .2-1.1 6.1-2.5 13.1-1.4 7.1-2.3 13.3-2 13.8 1.1 1.7 4.7.9 7.7-1.6 2.2-1.9 4.1-2.5 7.5-2.5 3.8 0 5 .5 7.9 3.4s3.4 4.1 3.4 8.1c0 4.9-1 7.7-4.3 11.2-4.6 5.1-13.5 3.3-16.3-3.3-1.2-2.8-1.9-3.4-4.5-3.4-3 0-3.1.1-2.5 3.2.9 4.4 6.2 9.6 11 10.9 11.2 3 21.3-3.9 23.2-15.9 2-12.3-9.9-22.7-21.4-18.8-2.5.9-4.7 1.5-4.8 1.3-.3-.2.5-4.4 2.1-11.5.5-2.1 1-2.2 11-2.2h10.5v-6h-13c-7.1 0-13 .1-13 .2M993.903 1833.127c-1.9.5-4.5 1.8-5.7 3l-2.3 2v-2.6c0-2.3-.4-2.7-3-2.7h-3v39h6v-10.8c.1-12.6 1-17.5 4.1-20.8 2.8-3 8.1-3.2 10.9-.4 1.8 1.8 2 3.3 2 17v15h6v-11.8c0-13.2 1.1-18.4 4.3-20.7 3-2.1 8.3-1.9 10.7.5 1.8 1.8 2 3.3 2 17v15h6.1l-.3-17c-.3-15.7-.5-17.1-2.4-19-4.5-4.6-14-4.2-18.5.6l-2.1 2.3-2.2-2.5c-2.6-3-7.9-4.4-12.6-3.1M1056.903 1833.127c-1.9.5-4.5 1.8-5.7 3l-2.3 2v-2.6c0-2.3-.4-2.7-3-2.7h-3v39h6v-10.8c.1-12.6 1-17.5 4.1-20.8 2.8-3 8.1-3.2 10.9-.4 1.8 1.8 2 3.3 2 17v15h6v-11.8c0-13.2 1.1-18.4 4.3-20.7 3-2.1 8.3-1.9 10.7.5 1.8 1.8 2 3.3 2 17v15h6.1l-.3-17c-.3-15.7-.5-17.1-2.4-19-4.5-4.6-14-4.2-18.5.6l-2.1 2.3-2.2-2.5c-2.6-3-7.9-4.4-12.6-3.1M877.903 1868.327c0 3.3.2 3.5 3.5 3.5s3.5-.2 3.5-3.5-.2-3.5-3.5-3.5-3.5.2-3.5 3.5M296.403 1896.227c-6.8 1.7-10.3 3.7-15.3 8.7-7.5 7.6-10.2 19.8-6.6 30.3 2.4 6.9 10.2 15 17 17.5 17.5 6.6 35.3-2.8 40-21 1.5-5.7 1.5-6.8 0-12.8-.9-3.6-2.8-8.2-4.1-10.3-6.4-9.7-20.1-15.1-31-12.4m17.4 4.7c5.7 2.4 10 6.6 13.3 12.9 1.8 3.5 2.3 6 2.2 11.5-.1 13.5-8.8 23.9-22.1 26.4-6.5 1.3-14.9-.6-20-4.5-5-3.7-5.9-4.9-9-11.3-2.2-4.6-2.5-6.3-2.1-12.6.4-6.1 1-8.2 3.7-12.3 7.5-11.8 21-15.8 34-10.1M731.903 715.827l-19.5 2.8-17.5 7.4c-16.8 7.1-18.1 7.9-32.7 19.1-14.4 11.1-15.8 12.5-27 26.9-11.4 14.8-12 15.9-19.2 32.8l-7.3 17.5-2.8 20-2.7 20 2.8 20 2.7 20 7.2 17.1c6.9 16.3 7.7 17.8 19.1 32.7 11.6 15.2 12.3 15.9 27.4 27.4s16.2 12.1 33.3 19.3l17.7 7.3 19.5 2.6 19.5 2.6 18.5-2.3 18.5-2.4 18.5-7.6c18.1-7.4 18.8-7.8 34.2-19.5 15.3-11.6 15.9-12.2 27.5-27.5 11.7-15.4 12.1-16 19.5-34.2l7.6-18.5 2.3-18.7 2.2-18.8-2.2-18.2-2.3-18.3-7.6-18.8c-7.6-18.6-7.8-18.8-19.7-34.3-11.5-15-12.6-16-27.4-27.4-15.2-11.6-15.6-11.9-34-19.3-18.5-7.6-18.6-7.6-35.6-9.7-9.3-1.1-17.9-2.2-19-2.4-1.1-.1-10.8.9-21.5 2.4m19 1.8c0 1.5-2.3 2-17.7 4-17.7 2.3-17.9 2.4-34.8 9.4-16.1 6.7-17.8 7.6-32.2 18.5s-15.6 12.1-25.8 25.4c-5.8 7.6-11.2 13.9-12 13.9s-1.5-.3-1.5-.8c0-.4 5-7.1 11-14.9 10.2-13.2 12.1-15.1 25.8-25.7 14.3-11.1 15.2-11.6 32.7-18.9 17.9-7.5 18.1-7.5 36-10 9.9-1.3 18.1-2.5 18.3-2.6.1 0 .2.7.2 1.7m56 10.3c16.9 6.9 18 7.5 32.9 18.8 14.7 11.1 15.9 12.3 26.5 25.9 6.1 7.9 11.2 14.8 11.4 15.2.2.5-.6 1.1-1.7 1.5-1.2.3-2.1 1.2-2.1 1.9s3.1 8.7 6.9 17.8c6.8 16.3 6.9 16.7 9.4 34.9l2.5 18.4-2.4 18c-2.4 17.7-2.5 18.2-9.4 35-6.9 16.6-7.8 19.5-6.2 19.5.4 0 1.3.4 2 .9 1 .6-1.5 4.5-10.1 15.7-10.9 14.1-12.3 15.5-26.4 26.2s-15.7 11.7-31.8 18.4c-17.5 7.3-24.1 8.8-47.7 11.3-6.8.7-6.8.7-6.8-1.8 0-2.9 1-2.6-22.4-5.7-14.9-2-16.7-2.5-30.5-8.2-19.5-8.1-18.6-7.6-34.6-19.9-13.1-10.1-14.7-11.7-25-25.4-6-8-11.5-14.5-12-14.5-.6 0-1.6.5-2.3 1.2s-1.5.8-2 .2c-.5-.5-3.9-8.2-7.5-17-6.5-15.9-6.6-16.4-9.1-35l-2.5-18.9 2.5-19c2.5-18.8 2.6-19.2 9.1-35 3.7-8.8 6.9-16.4 7.3-16.8.4-.5 1.7-.3 2.9.5 1.5.9 2.4 1 2.9.2.4-.5 5.5-7.3 11.4-15 10.1-13.1 11.8-14.8 25.4-25.3 14-10.7 15.4-11.5 31.5-18.2 16.6-6.8 17.2-7 35.1-9.4 10.1-1.4 18.6-2.5 19.1-2.5.4 0 .7-1.3.7-2.8v-2.8l17.8 2.3c17.4 2.3 18 2.4 35.2 9.4m79.3 78.8c7.9 19 7.2 16.4 10 38.1 2.4 18.7 2.4 18.7-1.2 44-1.6 11-2.6 14.4-8.5 28.5-3.7 8.7-6.9 16.1-7.2 16.4-.2.3-.9 0-1.4-.5-.7-.7 1.1-6.3 5.6-17 6.7-15.8 6.8-16.1 9.3-34.9l2.6-19-2.6-19c-2.5-18.8-2.6-19.2-9.2-34.9-6.2-14.7-6.9-17.6-4.8-17.6.5 0 3.8 7.2 7.4 15.9m-239 151.7c2.2 2.9 10.1 9.8 18.7 16.4 14.3 10.9 15.5 11.7 32.2 18.5 17.1 7.1 17.5 7.2 35.1 9.5 12.8 1.7 17.7 2.7 17.7 3.7 0 1.7-1.6 1.7-20.4-.9-15.6-2.1-16.7-2.4-33.8-9.4-17.3-7.2-18.1-7.6-32.9-19.1-14.4-11.1-15.9-12.6-26.2-26.2-8.2-10.6-10.6-14.5-9.7-15.1 1.3-.8 3 1.1 19.3 22.6" style="fill:#000;stroke:none;stroke-width:.1"/><path d="M741.903 798.327c-28.1 4.5-50.2 27.4-54 56-2.9 22.1 7 45.8 24.9 59.4 34.1 25.9 82.7 12.7 99.3-26.9 16.4-38.9-9.3-83.1-51.5-88.9-8.9-1.3-8.7-1.3-18.7.4m19.5 2.6c15.3 2.1 30.9 11.3 40.2 23.8 5.8 7.7 10.8 19.3 11.8 27.1.3 3 .9 6.3 1.1 7.2.5 1.7-2.5 1.8-52.5 1.8h-53.1l.7-6c.4-4.3.2-6-.6-6-1.4 0-1.8 1-2.6 7.2l-.6 4.8h-8c-5.7 0-7.9-.4-7.9-1.3.1-.6.7-4.6 1.4-8.7 5.2-28.5 29.9-49.5 59.8-50.9 1.5 0 6.1.4 10.3 1m-55 67.6c.9 6.5 1.3 7.5 2.6 6.7.8-.4.9-2.5.5-6l-.6-5.4h106l-.5 2.7c-.3 1.6-.9 5.4-1.5 8.5-2.1 12.9-11.7 28-23.3 36.8-32.1 24.3-79.3 11.4-94.6-25.8-2.3-5.5-5.1-17.5-5.1-21.6 0-.3 3.6-.6 7.9-.6h8zM1496.403 1896.227c-6.8 1.7-10.9 4-15.5 8.7-7.2 7.5-9.9 20-6.4 30.3 2.4 6.9 10.2 15 17 17.5 17.5 6.6 35.3-2.8 40-21 1.5-5.7 1.5-6.8 0-12.8-.9-3.6-2.8-8.2-4.1-10.3-6.4-9.7-20.1-15.1-31-12.4m17.4 4.7c5.7 2.4 10 6.6 13.3 12.9 1.8 3.5 2.3 6 2.2 11.5-.1 13.5-8.8 23.9-22 26.4-6.5 1.3-13.5-.3-20-4.5-4.2-2.6-5.8-4.5-8.4-9.8-3-6.1-3.2-7.2-2.8-14 .4-6.3 1-8.3 3.8-12.6 7.5-11.6 20.9-15.6 33.9-9.9M652.903 50.327c0 3.3.2 3.5 3.5 3.5s3.5-.2 3.5-3.5-.2-3.5-3.5-3.5-3.5.2-3.5 3.5M25.603 158.627c-1.5 9.2-2.7 17.3-2.7 17.9 0 .7 1.1 1.3 2.5 1.3h2.5v39.5c0 25.7.4 39.5 1 39.5s1-13.8 1-39.5v-39.5h2.5c1.4 0 2.5-.1 2.5-.3-.1-1.5-6-35-6.2-35.3-.2-.2-1.6 7.2-3.1 16.4M1137.603 247.327c-2.1 2.5-5.8 5.7-8.3 7.1-3.3 1.9-4.4 3.2-4.4 5 0 3.2 1.6 3 8.3-1l5.7-3.5v41.9h6v-27c0-25.1-.1-27-1.7-27-1 .1-3.5 2.1-5.6 4.5M1172.403 244.227c-4.1 1.8-8.2 6.7-9.7 11.9-.7 2.3-1.3 9.1-1.3 15.2 0 10 .3 11.5 2.8 16.7 2.2 4.5 3.6 6.1 7.1 7.7 2.3 1.2 5.5 2.1 6.9 2.1 7 0 13.7-5.6 15.8-13.3 1.9-6.6 1.7-23.3-.4-29.3-3.5-10-12.6-14.7-21.2-11m12.3 6.8c3.1 3 4.2 7.8 4.2 19.3 0 12.2-1.1 16.6-5.1 19.9-5.2 4.4-10.7 2.8-14-4.1-1.9-3.9-2.1-5.7-1.7-17.2.3-11.3.6-13.3 2.4-15.8 4.2-5.6 9.5-6.4 14.2-2.1M1234.603 244.227c-4.9 1.8-6.7 3.4-8.4 7.3-2.2 5.4-1.8 7.3 1.7 7.3 2.3 0 3-.4 3-2 0-3.1 5-7.8 9-8.5 6.7-1.1 12.9 5.2 11.5 11.6-.9 3.9-4.6 8.2-15.1 17.7-8.4 7.4-13.4 14.2-13.4 18 0 .9 4.7 1.2 17.5 1.2h17.5v-6h-13c-10.8 0-12.8-.2-12.4-1.4.3-.8 4.8-5.1 10-9.6s10.6-9.9 12.1-12.1c5.2-7.9 3.6-18-3.5-22.2-4.1-2.4-11.8-3.1-16.5-1.3M1275.603 244.227c-4.9 1.8-6.7 3.4-8.4 7.3-2.2 5.4-1.8 7.3 1.7 7.3 2.3 0 3-.4 3-2 0-3.1 5-7.8 9-8.5 6.7-1.1 12.9 5.2 11.5 11.6-.9 3.9-4.6 8.2-15.1 17.7-8.4 7.4-13.4 14.2-13.4 18 0 .9 4.7 1.2 17.5 1.2h17.5v-6h-13c-10.8 0-12.8-.2-12.4-1.4.3-.8 4.8-5.1 10-9.6s10.6-9.9 12.1-12.1c5.2-7.9 3.6-18-3.5-22.2-4.1-2.4-11.8-3.1-16.5-1.3M1322.903 258.127c-1.9.5-4.5 1.8-5.7 3l-2.3 2v-2.6c0-2.3-.4-2.7-3-2.7h-3v39h6v-10.8c.1-12.6 1-17.5 4.1-20.8 2.8-3 8.1-3.2 10.9-.4 1.8 1.8 2 3.3 2 17v15h6v-11.8c0-13.2 1.1-18.4 4.3-20.7 3-2.1 8.3-1.9 10.7.5 1.8 1.8 2 3.3 2 17v15h6.1l-.3-17c-.3-15.7-.5-17.1-2.4-19-4.5-4.6-14-4.2-18.5.6l-2.1 2.3-2.2-2.5c-2.6-3-7.9-4.4-12.6-3.1M1385.903 258.127c-1.9.5-4.5 1.8-5.7 3l-2.3 2v-2.6c0-2.3-.4-2.7-3-2.7h-3v39h6v-10.8c.1-12.6 1-17.5 4.1-20.8 2.8-3 8.1-3.2 10.9-.4 1.8 1.8 2 3.3 2 17v15h6v-11.8c0-13.2 1.1-18.4 4.3-20.7 3-2.1 8.3-1.9 10.7.5 1.8 1.8 2 3.3 2 17v15h6.1l-.3-17c-.3-15.7-.5-17.1-2.4-19-4.5-4.6-14-4.2-18.5.6l-2.1 2.3-2.2-2.5c-2.6-3-7.9-4.4-12.6-3.1M994.903 268.427c-8 1.4-15.2 2.7-16 3.1-1.3.5 27.3 6.1 32.3 6.2 1.2.1 1.7-.7 1.7-2.4v-2.5h40.5c26.3 0 40.5-.3 40.5-1s-14.2-1-40.5-1h-40.5v-2.5c0-3 .9-3-18 .1M1537.903 268.327v2.5h-43c-28 0-43 .3-43 1s15 1 43 1h43v2.5c0 1.7.5 2.5 1.8 2.4 4.8-.1 33.5-5.7 32.2-6.2-1.2-.5-31.9-5.7-33.5-5.7-.3 0-.5 1.1-.5 2.5M1575.903 456.827c0 125.3.3 189 1 189s1-63.7 1-189-.3-189-1-189-1 63.7-1 189M20.403 285.827c-6.9 2.7-8 14.3-2.1 20l2.5 2.3-2.4 1.9c-5 3.9-5.2 13.3-.3 18.5l2.1 2.3h-2.6c-2.3 0-2.7.4-2.7 3v3h39v-5.8l-13.2-.4c-17.1-.5-20.7-2.3-20.8-10 0-6.1 2-6.8 19.2-6.8h14.8v-6h-11.7c-13.3 0-18.5-1.1-20.8-4.3-2.1-3-1.9-8.3.5-10.7 1.8-1.8 3.3-2 17-2h15v-6l-15.7.1c-8.7 0-16.7.4-17.8.9M1206.903 293.327c0 3.3.2 3.5 3.5 3.5s3.5-.2 3.5-3.5-.2-3.5-3.5-3.5-3.5.2-3.5 3.5M20.403 348.827c-6.9 2.7-8 14.3-2.1 20l2.5 2.3-2.4 1.9c-5 3.9-5.2 13.3-.3 18.5l2.1 2.3h-2.6c-2.3 0-2.7.4-2.7 3v3h39v-5.8l-13.2-.4c-17.1-.5-20.7-2.3-20.8-10 0-6.1 2-6.8 19.2-6.8h14.8v-6h-11.7c-13.3 0-18.5-1.1-20.8-4.3-2.1-3-1.9-8.3.5-10.7 1.8-1.8 3.3-2 17-2h15v-6l-15.7.1c-8.7 0-16.7.4-17.8.9M34.403 407.327c-.5.2-2.2.6-3.7.9-4.4 1-9.4 6.1-10.8 11-1.4 5.3-.3 9.9 3.7 14.7l2.5 3-4.3-.7c-7.6-1-10.7-2.4-14-6.1-2.6-3.1-3-4.2-2.5-7.2.5-3.7 4.5-8.1 7.2-8.1 1.5 0 1.8-1.8.8-4.4-1.6-4.1-9.5.5-12 6.9-3.7 9.7 1.4 19.5 11.9 23.2 7.3 2.5 23.4 2.5 29.9 0 17.4-6.7 14.4-30.4-4.2-33-1.9-.2-3.9-.3-4.5-.2m10.1 8.4c7.5 4.6 6.6 13.8-1.8 17.9-5.9 2.9-11 2.2-15-2.1-4.1-4.3-3.9-9.8.6-14.3 2.9-2.9 4.1-3.4 8.3-3.4 2.9 0 6 .7 7.9 1.9M34.403 449.327c-.5.2-2.2.6-3.7.9-4.4 1-9.4 6.1-10.8 11-1.4 5.3-.3 9.9 3.7 14.7l2.5 3-4.3-.7c-7.6-1-10.7-2.4-14-6.1-2.6-3.1-3-4.2-2.5-7.2.5-3.7 4.5-8.1 7.2-8.1 1.5 0 1.8-1.8.8-4.4-1.6-4.1-9.5.5-12 6.9-3.7 9.7 1.4 19.5 11.9 23.2 7.3 2.5 23.4 2.5 29.9 0 17.4-6.7 14.4-30.4-4.2-33-1.9-.2-3.9-.3-4.5-.2m10.1 8.4c7.5 4.6 6.6 13.8-1.8 17.9-5.9 2.9-11 2.2-15-2.1-4.1-4.3-3.9-9.8.6-14.3 2.9-2.9 4.1-3.4 8.3-3.4 2.9 0 6 .7 7.9 1.9M46.903 498.327c0 3.3.2 3.5 3.5 3.5s3.5-.2 3.5-3.5-.2-3.5-3.5-3.5-3.5.2-3.5 3.5M32.203 514.227c-1.7.8-3.9 2.7-4.9 4.3-1 1.5-1.9 3-2 3.1-.2.2-1.6-1.1-3.2-2.9-2.6-2.9-3.5-3.3-7.9-3.3-6.2 0-10.5 2.8-12.7 8.4-2.1 5.2-2 8.5.3 13.7 3 6.6 9.1 9.4 15.6 7.3 2.2-.7 4.4-2.4 5.5-4.2l1.8-3 1.3 2.8c4.7 9.5 19.4 9.6 25.7.1 2.2-3.3 2.7-5.2 2.7-10.1-.1-7.1-2-11.4-6.6-14.7-3.9-2.7-11.2-3.5-15.6-1.5m11.4 6.3c4.3 2 6.8 7.1 5.8 11.9-1.5 8.1-12.7 11.4-18.6 5.5-5.3-5.4-3.5-14.6 3.5-17.7 4.1-1.7 5.1-1.7 9.3.3m-23.7 3.3c2.7 2.7 3.5 6.5 2 10.1-4 9.5-19.1 4.4-16.6-5.6 1.5-6.1 10.3-8.8 14.6-4.5M27.703 592.027c-.3 19.2-.3 19.3-2.5 19.6-2.9.4-2.9.7.6 20.7 3 17.7 2.8 17.8 6.1-2.5 1.1-6.9 2.3-13.7 2.6-15.3.5-2.4.3-2.7-2-2.7h-2.6v-18.9c0-11.3-.4-19.2-1-19.6s-1.1 6.4-1.2 18.7" style="fill:#000;stroke:none;stroke-width:.1"/></svg>