<?xml version="1.0" encoding="utf-8"?>
<!-- Generator: Adobe Illustrator 24.0.2, SVG Export Plug-In . SVG Version: 6.00 Build 0)  -->
<svg version="1.1" id="Carrier" xmlns="http://www.w3.org/2000/svg" xmlns:xlink="http://www.w3.org/1999/xlink" x="0px" y="0px"
	 viewBox="0 0 459.3 204.5" style="enable-background:new 0 0 459.3 204.5;" xml:space="preserve">
<style type="text/css">
	.st0{fill:#404642;}
	.st1{fill:#B8ACA0;}
	.st2{fill:#8B7866;}
	.st3{fill:#DADBDC;}
	.st4{fill:#FFFFFF;}
	.st5{fill:#8C9091;}
	.st6{fill:#51504B;}
	.st7{fill:#32352F;}
	.st8{fill:#7E8B8C;}
	.st9{fill:#B8BABB;}
	.st10{fill:#D6DADB;}
	.st11{fill:#1DA086;}
	.st12{fill:#D35400;}
	.st13{fill:#C11F09;}
</style>
<path class="st0" d="M0,1.4V203c0,0.8,0.6,1.4,1.4,1.4h456.5c0.8,0,1.4-0.6,1.4-1.4V1.4c0-0.8-0.6-1.4-1.4-1.4H1.4
	C0.6,0,0,0.6,0,1.4z M456.3,179.9c0,1.6-1.3,2.8-2.8,2.8c-1.6,0-2.8-1.3-2.8-2.8s1.3-2.8,2.8-2.8
	C455.1,177.1,456.3,178.4,456.3,179.9z M8.6,179.9c0,1.6-1.3,2.8-2.8,2.8c-1.6,0-2.8-1.3-2.8-2.8s1.3-2.8,2.8-2.8
	C7.4,177.1,8.6,178.4,8.6,179.9z M456.3,24.5c0,1.6-1.3,2.8-2.8,2.8c-1.6,0-2.8-1.3-2.8-2.8c0-1.5,1.3-2.8,2.8-2.8
	C455.1,21.7,456.3,23,456.3,24.5z M8.6,24.5c0,1.6-1.3,2.8-2.8,2.8c-1.6,0-2.8-1.3-2.8-2.8c0-1.5,1.3-2.8,2.8-2.8
	C7.4,21.7,8.6,23,8.6,24.5z"/>
<g>
	<path class="st1" d="M428.5,95v14.4c0,1-0.8,1.7-1.7,1.7h-14.4c-1,0-1.7-0.8-1.7-1.7V95c0-1,0.8-1.7,1.7-1.7h14.4
		C427.7,93.3,428.5,94.1,428.5,95z"/>
	<path class="st2" d="M419.6,110.9c-4.8,0-8.7-3.9-8.7-8.7s3.9-8.7,8.7-8.7c4.8,0,8.7,3.9,8.7,8.7S424.3,110.9,419.6,110.9z"/>
	<path class="st1" d="M419.6,110.1c-4.3,0-7.8-3.5-7.8-7.8s3.5-7.8,7.8-7.8s7.8,3.5,7.8,7.8S423.9,110.1,419.6,110.1z"/>
	<path class="st2" d="M419.6,109.7c-4.1,0-7.5-3.4-7.5-7.5s3.4-7.5,7.5-7.5s7.5,3.4,7.5,7.5C427.1,106.4,423.7,109.7,419.6,109.7z"
		/>
	<path class="st1" d="M419.6,109.3c-3.9,0-7.1-3.2-7.1-7.1s3.2-7.1,7.1-7.1c3.9,0,7.1,3.2,7.1,7.1S423.5,109.3,419.6,109.3z"/>
	<path class="st2" d="M419.6,108.7c-3.5,0-6.4-2.9-6.4-6.4s2.9-6.4,6.4-6.4s6.4,2.9,6.4,6.4S423.1,108.7,419.6,108.7z"/>
	<path class="st1" d="M419.6,103.8c-0.9,0-1.6-0.7-1.6-1.6s0.7-1.6,1.6-1.6c0.9,0,1.6,0.7,1.6,1.6S420.4,103.8,419.6,103.8z"/>
</g>
<g>
	<rect x="349.1" y="98.8" class="st1" width="1.4" height="1.4"/>
	<rect x="349.1" y="110" class="st1" width="1.4" height="1.4"/>
	<rect x="353.8" y="93.8" class="st3" width="1.6" height="16.9"/>
	<polygon class="st4" points="345.1,94.7 343.5,94.7 343.5,93.3 341,93.3 341,88.2 355.4,88.2 355.4,93.8 353.8,93.8 353.8,89.8 
		342.6,89.8 342.6,91.7 345.1,91.7 	"/>
	<polygon class="st4" points="355.4,116.3 341,116.3 341,111.1 343.5,111.1 343.5,109.8 345.1,109.8 345.1,112.8 342.6,112.8 
		342.6,114.7 353.8,114.7 353.8,110.7 355.4,110.7 	"/>
	<polygon class="st3" points="345.1,109.8 343.5,109.8 343.5,107.9 342.1,107.9 342.1,96.6 343.5,96.6 343.5,94.7 345.1,94.7 	"/>
	<rect x="340.7" y="96.6" class="st3" width="1.4" height="11.3"/>
	<path class="st5" d="M353.8,89.8h-11.2v1.9h2.5v21.1h-2.5v1.9h11.2V89.8z M349.1,94.6v-1.4h1.4v1.4H349.1z M349.1,100.2v-1.4h1.4
		v1.4H349.1z M349.1,105.8v-1.4h1.4v1.4H349.1z M349.1,111.4V110h1.4v1.4H349.1z"/>
	<rect x="349.1" y="93.2" class="st1" width="1.4" height="1.4"/>
	<rect x="349.1" y="104.4" class="st1" width="1.4" height="1.4"/>
</g>
<g>
	<rect x="231" y="101.1" class="st5" width="1.9" height="2.3"/>
	<rect x="243.5" y="101.1" class="st5" width="1.9" height="2.3"/>
	<rect x="231.9" y="98.3" class="st3" width="12.5" height="7.8"/>
	<polygon class="st5" points="240.7,102.2 240.7,102.5 240.6,102.8 240.6,103 240.5,103.3 240.3,103.5 240.2,103.8 240,104 
		239.8,104.2 239.6,104.3 239.3,104.5 239.1,104.6 238.8,104.7 238.5,104.7 238.3,104.7 238,104.7 237.7,104.7 237.4,104.6 
		237.2,104.5 236.9,104.4 236.7,104.2 236.5,104.1 236.3,103.9 236.1,103.7 236,103.4 235.9,103.2 235.8,102.9 235.7,102.6 
		235.7,102.4 235.7,102.1 235.7,101.8 235.8,101.5 235.9,101.3 236,101 236.1,100.8 236.3,100.6 236.5,100.4 236.7,100.2 
		236.9,100.1 237.2,99.9 237.4,99.8 237.7,99.8 238,99.7 238.3,99.7 238.5,99.7 238.8,99.8 239.1,99.9 239.3,100 239.6,100.1 
		239.8,100.3 240,100.5 240.2,100.7 240.3,100.9 240.5,101.2 240.6,101.4 240.6,101.7 240.7,102 	"/>
</g>
<g>
	<path class="st4" d="M213.1,109.2v-14c0-0.4,0.1-0.7,0.4-1l2-2c0.3-0.3,0.6-0.4,1-0.4h2c0.7,0,1.2,0.5,1.2,1.2v18.3
		c0,0.7-0.5,1.2-1.2,1.2h-2c-0.4,0-0.7-0.1-1-0.4l-2-2C213.3,109.9,213.1,109.6,213.1,109.2z"/>
	<path class="st3" d="M220.5,93.4v17.7c0,0.1-0.1,0.3-0.3,0.3h-1.6V93.1h1.6C220.4,93.1,220.5,93.2,220.5,93.4z"/>
	<path class="st3" d="M218.6,91.3v1.8h-2.1v-1.8c0-0.1,0.1-0.3,0.3-0.3h1.6C218.5,91.1,218.6,91.2,218.6,91.3L218.6,91.3z"/>
	<path class="st3" d="M218.6,111.3v1.8c0,0.1-0.1,0.3-0.3,0.3h-1.6c-0.1,0-0.3-0.1-0.3-0.3v-1.8L218.6,111.3
		C218.6,111.3,218.6,111.3,218.6,111.3z"/>
	<path class="st3" d="M214.2,94.9v14.7h-1.6c-0.1,0-0.3-0.1-0.3-0.3V95.2c0-0.1,0.1-0.3,0.3-0.3H214.2L214.2,94.9z"/>
	<path class="st5" d="M214,95.2c0-0.1,0.1-0.3,0.2-0.4l2-2c0.1-0.1,0.2-0.2,0.4-0.2h2c0.2,0,0.4,0.2,0.4,0.4v18.3
		c0,0.2-0.2,0.4-0.4,0.4h-2c-0.1,0-0.3-0.1-0.4-0.2l-2-2c-0.1-0.1-0.2-0.2-0.2-0.4C214,109.2,214,95.2,214,95.2z"/>
	<rect x="218.2" y="99.7" class="st6" width="0.7" height="5.1"/>
	<rect x="216.5" y="97.5" class="st6" width="1.7" height="9.5"/>
	<g>
		<rect x="216.5" y="105.3" class="st1" width="0.8" height="1.1"/>
		<rect x="216.5" y="103.5" class="st1" width="0.8" height="1.1"/>
		<rect x="216.5" y="101.7" class="st1" width="0.8" height="1.1"/>
		<rect x="216.5" y="99.8" class="st1" width="0.8" height="1.1"/>
		<rect x="216.5" y="98" class="st1" width="0.8" height="1.1"/>
	</g>
</g>
<g>
	<g>
		<path class="st5" d="M207,71.1h3.3c0.3,0,0.5,0.2,0.5,0.5l0,0c0,0.3-0.2,0.5-0.5,0.5H207c-0.3,0-0.5-0.2-0.5-0.5l0,0
			C206.5,71.3,206.7,71.1,207,71.1z"/>
		<path class="st5" d="M207,67.6h3.3c0.3,0,0.5,0.2,0.5,0.5l0,0c0,0.3-0.2,0.5-0.5,0.5H207c-0.3,0-0.5-0.2-0.5-0.5l0,0
			C206.5,67.8,206.7,67.6,207,67.6z"/>
		<path class="st5" d="M207,64h3.3c0.3,0,0.5,0.2,0.5,0.5l0,0c0,0.3-0.2,0.5-0.5,0.5H207c-0.3,0-0.5-0.2-0.5-0.5l0,0
			C206.5,64.3,206.7,64,207,64z"/>
		<path class="st5" d="M207,60.5h3.3c0.3,0,0.5,0.2,0.5,0.5l0,0c0,0.3-0.2,0.5-0.5,0.5H207c-0.3,0-0.5-0.2-0.5-0.5l0,0
			C206.5,60.8,206.7,60.5,207,60.5z"/>
	</g>
	<g>
		<path class="st5" d="M222.6,61.5h-3.3c-0.3,0-0.5-0.2-0.5-0.5l0,0c0-0.3,0.2-0.5,0.5-0.5h3.3c0.3,0,0.5,0.2,0.5,0.5l0,0
			C223.1,61.3,222.9,61.5,222.6,61.5z"/>
		<path class="st5" d="M222.6,65.1h-3.3c-0.3,0-0.5-0.2-0.5-0.5l0,0c0-0.3,0.2-0.5,0.5-0.5h3.3c0.3,0,0.5,0.2,0.5,0.5l0,0
			C223.1,64.8,222.9,65.1,222.6,65.1z"/>
		<path class="st5" d="M222.6,68.6h-3.3c-0.3,0-0.5-0.2-0.5-0.5l0,0c0-0.3,0.2-0.5,0.5-0.5h3.3c0.3,0,0.5,0.2,0.5,0.5l0,0
			C223.1,68.3,222.9,68.6,222.6,68.6z"/>
		<path class="st5" d="M222.6,72.1h-3.3c-0.3,0-0.5-0.2-0.5-0.5l0,0c0-0.3,0.2-0.5,0.5-0.5h3.3c0.3,0,0.5,0.2,0.5,0.5l0,0
			C223.1,71.9,222.9,72.1,222.6,72.1z"/>
	</g>
	<rect x="209.3" y="59.5" class="st7" width="10.9" height="13.6"/>
	<circle class="st8" cx="218.5" cy="71.3" r="0.6"/>
</g>
<g>
	<path class="st5" d="M173,100.9v2.7c0,0.7-0.6,1.3-1.3,1.3H166c-0.7,0-1.3-0.6-1.3-1.3v-2.7c0-0.7,0.6-1.3,1.3-1.3h5.7
		C172.4,99.6,173,100.1,173,100.9z"/>
	<g>
		<rect x="164.7" y="83.1" class="st5" width="8.3" height="1.4"/>
		<rect x="164.7" y="90.3" class="st5" width="8.3" height="1.4"/>
		<rect x="164.7" y="112.8" class="st5" width="8.3" height="1.4"/>
		<rect x="164.7" y="119.9" class="st5" width="8.3" height="1.4"/>
	</g>
	<g>
		<rect x="118.4" y="84.5" class="st5" width="8.3" height="1.4"/>
		<rect x="118.4" y="88.3" class="st5" width="8.3" height="1.4"/>
		<rect x="118.4" y="92.1" class="st5" width="8.3" height="1.4"/>
		<rect x="118.4" y="95.8" class="st5" width="8.3" height="1.4"/>
		<rect x="118.4" y="99.6" class="st5" width="8.3" height="1.4"/>
		<rect x="118.4" y="103.4" class="st5" width="8.3" height="1.4"/>
		<rect x="118.4" y="107.2" class="st5" width="8.3" height="1.4"/>
		<rect x="118.4" y="111" class="st5" width="8.3" height="1.4"/>
		<rect x="118.4" y="114.8" class="st5" width="8.3" height="1.4"/>
		<rect x="118.4" y="118.6" class="st5" width="8.3" height="1.4"/>
	</g>
	<path class="st3" d="M168.8,80.9v42.7c0,0.8-0.6,1.4-1.4,1.4H124c-0.8,0-1.4-0.6-1.4-1.4V80.9c0-0.8,0.6-1.4,1.4-1.4h43.5
		C168.2,79.5,168.8,80.1,168.8,80.9z"/>
	<g>
		<rect x="161.1" y="83.8" class="st4" width="5.6" height="8"/>
		<rect x="161.1" y="112.7" class="st4" width="5.6" height="8"/>
	</g>
	<polygon class="st5" points="157.8,118.9 138.6,118.9 138.6,85.6 157.8,85.6 157.8,93.4 162.5,93.4 162.5,96.5 166.7,96.5 
		166.7,107.9 162.5,107.9 162.5,111.1 157.8,111.1 	"/>
	<g>
		<rect x="145.1" y="115.7" class="st6" width="5.6" height="3.2"/>
		<rect x="145.1" y="85.6" class="st6" width="5.6" height="3.2"/>
	</g>
	<g>
		<rect x="138.6" y="91.5" class="st1" width="7.7" height="1.5"/>
		<rect x="138.6" y="94.3" class="st1" width="7.7" height="1.5"/>
		<rect x="138.6" y="97.2" class="st1" width="7.7" height="1.5"/>
		<rect x="138.6" y="100" class="st1" width="7.7" height="1.5"/>
		<rect x="138.6" y="102.9" class="st1" width="7.7" height="1.5"/>
		<rect x="138.6" y="105.7" class="st1" width="7.7" height="1.5"/>
		<rect x="138.6" y="108.6" class="st1" width="7.7" height="1.5"/>
		<rect x="138.6" y="111.5" class="st1" width="7.7" height="1.5"/>
	</g>
</g>
<path class="st4" d="M91.2,84.9v34.8c0,0.6-0.5,1-1,1h-14c-0.6,0-1-0.5-1-1V84.9c0-0.6,0.5-1,1-1h14C90.7,83.8,91.2,84.3,91.2,84.9z
	"/>
<g>
	<path class="st3" d="M92.9,87.3v29.8c0,0.4-0.3,0.7-0.7,0.7H90V86.7h2.2C92.6,86.7,92.9,87,92.9,87.3z"/>
	<path class="st3" d="M76.1,86.7v31.1h-2c-0.4,0-0.7-0.3-0.7-0.7V87.3c0-0.4,0.3-0.7,0.7-0.7H76.1L76.1,86.7z"/>
</g>
<g>
	<path class="st3" d="M88.7,119.6v2.3c0,0.4-0.3,0.7-0.7,0.7h-9.6c-0.4,0-0.7-0.3-0.7-0.7v-2.3H88.7
		C88.7,119.6,88.7,119.6,88.7,119.6z"/>
	<path class="st3" d="M88.7,82.6v2.6h-11v-2.6c0-0.4,0.3-0.7,0.7-0.7H88C88.4,81.9,88.7,82.2,88.7,82.6z"/>
</g>
<path class="st5" d="M89.6,119.8H76.7c-0.4,0-0.7-0.3-0.7-0.7V85.4c0-0.4,0.3-0.7,0.7-0.7h12.9c0.4,0,0.7,0.3,0.7,0.7v33.7
	C90.3,119.5,90,119.8,89.6,119.8z"/>
<g>
	<rect x="79" y="90.7" class="st1" width="5.7" height="3.4"/>
	<rect x="79" y="97.3" class="st1" width="5.7" height="3.4"/>
	<rect x="79" y="103.8" class="st1" width="5.7" height="3.4"/>
	<rect x="79" y="110.4" class="st1" width="5.7" height="3.4"/>
</g>
<path class="st6" d="M88.8,88v28.5c0,0.4-0.3,0.8-0.8,0.8h-3.8c-0.4,0-0.8-0.3-0.8-0.8V88c0-0.4,0.3-0.8,0.8-0.8H88
	C88.4,87.2,88.8,87.6,88.8,88z"/>
<g>
	<g>
		<rect x="14.8" y="164.1" class="st5" width="9.8" height="30.8"/>
		<rect x="14.8" y="164.1" class="st3" width="9.8" height="3.4"/>
		<rect x="14.8" y="174" class="st7" width="9.8" height="3.7"/>
		<path class="st9" d="M15.4,191v-3.8c0-1.1,0.9-1.9,1.9-1.9h4.7c1.1,0,1.9,0.9,1.9,1.9v3.8c0,1.1-0.9,1.9-1.9,1.9h-4.7
			C16.3,192.9,15.4,192,15.4,191z"/>
		<path class="st7" d="M21,167.5L21,167.5c0,1.2-1,2.2-2.2,2.2h-2.6v-4.5h2.6C20,165.3,21,166.3,21,167.5z"/>
		<polygon class="st3" points="17.6,173.4 24.6,173.4 24.6,179.2 22.6,179.2 22.6,178.8 22.1,178.3 17.6,178.3 		"/>
		<rect x="17.6" y="174.9" class="st4" width="7" height="2.4"/>
		<path class="st5" d="M22.2,174.1c1,0,1.8,0.8,1.8,1.8c0,1-0.8,1.8-1.8,1.8c-1,0-1.8-0.8-1.8-1.8C20.4,174.9,21.2,174.1,22.2,174.1
			z"/>
	</g>
	<g>
		<rect x="24.6" y="164.1" class="st5" width="9.8" height="30.8"/>
		<rect x="24.6" y="164.1" class="st3" width="9.8" height="3.4"/>
		<rect x="24.6" y="174" class="st7" width="9.8" height="3.7"/>
		<path class="st9" d="M25.2,191v-3.8c0-1.1,0.9-1.9,1.9-1.9h4.7c1.1,0,1.9,0.9,1.9,1.9v3.8c0,1.1-0.9,1.9-1.9,1.9h-4.7
			C26.1,192.9,25.2,192,25.2,191z"/>
		<path class="st7" d="M30.8,167.5L30.8,167.5c0,1.2-1,2.2-2.2,2.2H26v-4.5h2.6C29.8,165.3,30.8,166.3,30.8,167.5z"/>
		<polygon class="st3" points="27.4,173.4 34.4,173.4 34.4,179.2 32.4,179.2 32.4,178.8 31.9,178.3 27.4,178.3 		"/>
		<rect x="27.4" y="174.9" class="st4" width="7" height="2.4"/>
		<path class="st5" d="M32,174.1c1,0,1.8,0.8,1.8,1.8c0,1-0.8,1.8-1.8,1.8c-1,0-1.8-0.8-1.8-1.8C30.2,174.9,31,174.1,32,174.1z"/>
	</g>
	<g>
		<rect x="34.4" y="164.1" class="st5" width="9.8" height="30.8"/>
		<rect x="34.4" y="164.1" class="st3" width="9.8" height="3.4"/>
		<rect x="34.4" y="174" class="st7" width="9.8" height="3.7"/>
		<path class="st9" d="M35,191v-3.8c0-1.1,0.9-1.9,1.9-1.9h4.7c1.1,0,1.9,0.9,1.9,1.9v3.8c0,1.1-0.9,1.9-1.9,1.9h-4.7
			C35.9,192.9,35,192,35,191z"/>
		<path class="st7" d="M40.6,167.5L40.6,167.5c0,1.2-1,2.2-2.2,2.2h-2.6v-4.5h2.6C39.6,165.3,40.6,166.3,40.6,167.5z"/>
		<polygon class="st3" points="37.2,173.4 44.2,173.4 44.2,179.2 42.2,179.2 42.2,178.8 41.7,178.3 37.2,178.3 		"/>
		<rect x="37.2" y="174.9" class="st4" width="7" height="2.4"/>
		<path class="st5" d="M41.8,174.1c1,0,1.8,0.8,1.8,1.8c0,1-0.8,1.8-1.8,1.8s-1.8-0.8-1.8-1.8C40,174.9,40.8,174.1,41.8,174.1z"/>
	</g>
	<g>
		<rect x="44.2" y="164.1" class="st5" width="9.8" height="30.8"/>
		<rect x="44.2" y="164.1" class="st3" width="9.8" height="3.4"/>
		<rect x="44.2" y="174" class="st7" width="9.8" height="3.7"/>
		<path class="st9" d="M44.8,191v-3.8c0-1.1,0.9-1.9,1.9-1.9h4.7c1.1,0,1.9,0.9,1.9,1.9v3.8c0,1.1-0.9,1.9-1.9,1.9h-4.7
			C45.7,192.9,44.8,192,44.8,191z"/>
		<path class="st7" d="M50.4,167.5L50.4,167.5c0,1.2-1,2.2-2.2,2.2h-2.6v-4.5h2.6C49.4,165.3,50.4,166.3,50.4,167.5z"/>
		<polygon class="st3" points="47,173.4 54,173.4 54,179.2 52,179.2 52,178.8 51.5,178.3 47,178.3 		"/>
		<rect x="47" y="174.9" class="st4" width="7" height="2.4"/>
		<path class="st5" d="M51.6,174.1c1,0,1.8,0.8,1.8,1.8c0,1-0.8,1.8-1.8,1.8c-1,0-1.8-0.8-1.8-1.8C49.8,174.9,50.6,174.1,51.6,174.1
			z"/>
	</g>
	<g>
		<rect x="54" y="164.1" class="st5" width="9.8" height="30.8"/>
		<rect x="54" y="164.1" class="st3" width="9.8" height="3.4"/>
		<rect x="54" y="174" class="st7" width="9.8" height="3.7"/>
		<path class="st9" d="M54.6,191v-3.8c0-1.1,0.9-1.9,1.9-1.9h4.7c1.1,0,1.9,0.9,1.9,1.9v3.8c0,1.1-0.9,1.9-1.9,1.9h-4.7
			C55.5,192.9,54.6,192,54.6,191z"/>
		<path class="st7" d="M60.2,167.5L60.2,167.5c0,1.2-1,2.2-2.2,2.2h-2.6v-4.5H58C59.2,165.3,60.2,166.3,60.2,167.5z"/>
		<polygon class="st3" points="56.8,173.4 63.8,173.4 63.8,179.2 61.8,179.2 61.8,178.8 61.3,178.3 56.8,178.3 		"/>
		<rect x="56.8" y="174.9" class="st4" width="7" height="2.4"/>
		<path class="st5" d="M61.4,174.1c1,0,1.8,0.8,1.8,1.8c0,1-0.8,1.8-1.8,1.8s-1.8-0.8-1.8-1.8C59.6,174.9,60.4,174.1,61.4,174.1z"/>
	</g>
	<g>
		<rect x="63.8" y="164.1" class="st5" width="9.8" height="30.8"/>
		<rect x="63.8" y="164.1" class="st3" width="9.8" height="3.4"/>
		<rect x="63.8" y="174" class="st7" width="9.8" height="3.7"/>
		<path class="st9" d="M64.4,191v-3.8c0-1.1,0.9-1.9,1.9-1.9h4.7c1.1,0,1.9,0.9,1.9,1.9v3.8c0,1.1-0.9,1.9-1.9,1.9h-4.7
			C65.3,192.9,64.4,192,64.4,191z"/>
		<path class="st7" d="M70,167.5L70,167.5c0,1.2-1,2.2-2.2,2.2h-2.6v-4.5h2.6C69,165.3,70,166.3,70,167.5z"/>
		<polygon class="st3" points="66.6,173.4 73.6,173.4 73.6,179.2 71.6,179.2 71.6,178.8 71.1,178.3 66.6,178.3 		"/>
		<rect x="66.6" y="174.9" class="st4" width="7" height="2.4"/>
		<path class="st5" d="M71.2,174.1c1,0,1.8,0.8,1.8,1.8c0,1-0.8,1.8-1.8,1.8c-1,0-1.8-0.8-1.8-1.8C69.4,174.9,70.2,174.1,71.2,174.1
			z"/>
	</g>
	<g>
		<rect x="73.6" y="164.1" class="st5" width="9.8" height="30.8"/>
		<rect x="73.6" y="164.1" class="st3" width="9.8" height="3.4"/>
		<rect x="73.6" y="174" class="st7" width="9.8" height="3.7"/>
		<path class="st9" d="M74.2,191v-3.8c0-1.1,0.9-1.9,1.9-1.9h4.7c1.1,0,1.9,0.9,1.9,1.9v3.8c0,1.1-0.9,1.9-1.9,1.9h-4.7
			C75.1,192.9,74.2,192,74.2,191z"/>
		<path class="st7" d="M79.8,167.5L79.8,167.5c0,1.2-1,2.2-2.2,2.2H75v-4.5h2.6C78.8,165.3,79.8,166.3,79.8,167.5z"/>
		<polygon class="st3" points="76.4,173.4 83.4,173.4 83.4,179.2 81.4,179.2 81.4,178.8 80.9,178.3 76.4,178.3 		"/>
		<rect x="76.4" y="174.9" class="st4" width="7" height="2.4"/>
		<path class="st5" d="M81,174.1c1,0,1.8,0.8,1.8,1.8c0,1-0.8,1.8-1.8,1.8c-1,0-1.8-0.8-1.8-1.8C79.2,174.9,80,174.1,81,174.1z"/>
	</g>
	<g>
		<rect x="83.4" y="164.1" class="st5" width="9.8" height="30.8"/>
		<rect x="83.4" y="164.1" class="st3" width="9.8" height="3.4"/>
		<rect x="83.4" y="174" class="st7" width="9.8" height="3.7"/>
		<path class="st9" d="M84,191v-3.8c0-1.1,0.9-1.9,1.9-1.9h4.7c1.1,0,1.9,0.9,1.9,1.9v3.8c0,1.1-0.9,1.9-1.9,1.9h-4.7
			C84.9,192.9,84,192,84,191z"/>
		<path class="st7" d="M89.6,167.5L89.6,167.5c0,1.2-1,2.2-2.2,2.2h-2.6v-4.5h2.6C88.6,165.3,89.6,166.3,89.6,167.5z"/>
		<polygon class="st3" points="86.2,173.4 93.2,173.4 93.2,179.2 91.1,179.2 91.1,178.8 90.7,178.3 86.2,178.3 		"/>
		<rect x="86.2" y="174.9" class="st4" width="7" height="2.4"/>
		<path class="st5" d="M90.8,174.1c1,0,1.8,0.8,1.8,1.8c0,1-0.8,1.8-1.8,1.8s-1.8-0.8-1.8-1.8C89,174.9,89.8,174.1,90.8,174.1z"/>
	</g>
	<g>
		<rect x="93.2" y="164.1" class="st5" width="9.8" height="30.8"/>
		<rect x="93.2" y="164.1" class="st3" width="9.8" height="3.4"/>
		<rect x="93.2" y="174" class="st7" width="9.8" height="3.7"/>
		<path class="st9" d="M93.8,191v-3.8c0-1.1,0.9-1.9,1.9-1.9h4.7c1.1,0,1.9,0.9,1.9,1.9v3.8c0,1.1-0.9,1.9-1.9,1.9h-4.7
			C94.7,192.9,93.8,192,93.8,191z"/>
		<path class="st7" d="M99.4,167.5L99.4,167.5c0,1.2-1,2.2-2.2,2.2h-2.6v-4.5h2.6C98.4,165.3,99.4,166.3,99.4,167.5z"/>
		<polygon class="st3" points="96,173.4 103,173.4 103,179.2 100.9,179.2 100.9,178.8 100.5,178.3 96,178.3 		"/>
		<rect x="96" y="174.9" class="st4" width="7" height="2.4"/>
		<path class="st5" d="M100.6,174.1c1,0,1.8,0.8,1.8,1.8c0,1-0.8,1.8-1.8,1.8c-1,0-1.8-0.8-1.8-1.8
			C98.8,174.9,99.6,174.1,100.6,174.1z"/>
	</g>
</g>
<g>
	<g>
		<rect x="112.9" y="164.1" class="st5" width="9.8" height="30.8"/>
		<rect x="112.9" y="164.1" class="st3" width="9.8" height="3.4"/>
		<rect x="112.9" y="174" class="st7" width="9.8" height="3.7"/>
		<path class="st9" d="M113.5,191v-3.8c0-1.1,0.9-1.9,1.9-1.9h4.7c1.1,0,1.9,0.9,1.9,1.9v3.8c0,1.1-0.9,1.9-1.9,1.9h-4.7
			C114.3,192.9,113.5,192,113.5,191z"/>
		<path class="st7" d="M119,167.5L119,167.5c0,1.2-1,2.2-2.2,2.2h-2.6v-4.5h2.6C118.1,165.3,119,166.3,119,167.5z"/>
		<polygon class="st3" points="115.7,173.4 122.7,173.4 122.7,179.2 120.6,179.2 120.6,178.8 120.2,178.3 115.7,178.3 		"/>
		<rect x="115.7" y="174.9" class="st4" width="7" height="2.4"/>
		<path class="st5" d="M120.3,174.1c1,0,1.8,0.8,1.8,1.8c0,1-0.8,1.8-1.8,1.8s-1.8-0.8-1.8-1.8C118.5,174.9,119.3,174.1,120.3,174.1
			z"/>
	</g>
	<g>
		<rect x="122.7" y="164.1" class="st5" width="9.8" height="30.8"/>
		<rect x="122.7" y="164.1" class="st3" width="9.8" height="3.4"/>
		<rect x="122.7" y="174" class="st7" width="9.8" height="3.7"/>
		<path class="st9" d="M123.3,191v-3.8c0-1.1,0.9-1.9,1.9-1.9h4.7c1.1,0,1.9,0.9,1.9,1.9v3.8c0,1.1-0.9,1.9-1.9,1.9h-4.7
			C124.1,192.9,123.3,192,123.3,191z"/>
		<path class="st7" d="M128.8,167.5L128.8,167.5c0,1.2-1,2.2-2.2,2.2h-2.6v-4.5h2.6C127.8,165.3,128.8,166.3,128.8,167.5z"/>
		<polygon class="st3" points="125.5,173.4 132.5,173.4 132.5,179.2 130.4,179.2 130.4,178.8 130,178.3 125.5,178.3 		"/>
		<rect x="125.5" y="174.9" class="st4" width="7" height="2.4"/>
		<path class="st5" d="M130.1,174.1c1,0,1.8,0.8,1.8,1.8c0,1-0.8,1.8-1.8,1.8s-1.8-0.8-1.8-1.8C128.3,174.9,129.1,174.1,130.1,174.1
			z"/>
	</g>
	<g>
		<rect x="132.5" y="164.1" class="st5" width="9.8" height="30.8"/>
		<rect x="132.5" y="164.1" class="st3" width="9.8" height="3.4"/>
		<rect x="132.5" y="174" class="st7" width="9.8" height="3.7"/>
		<path class="st9" d="M133.1,191v-3.8c0-1.1,0.9-1.9,1.9-1.9h4.7c1.1,0,1.9,0.9,1.9,1.9v3.8c0,1.1-0.9,1.9-1.9,1.9H135
			C133.9,192.9,133.1,192,133.1,191z"/>
		<path class="st7" d="M138.6,167.5L138.6,167.5c0,1.2-1,2.2-2.2,2.2h-2.6v-4.5h2.6C137.6,165.3,138.6,166.3,138.6,167.5z"/>
		<polygon class="st3" points="135.3,173.4 142.3,173.4 142.3,179.2 140.2,179.2 140.2,178.8 139.8,178.3 135.3,178.3 		"/>
		<rect x="135.3" y="174.9" class="st4" width="7" height="2.4"/>
		<path class="st5" d="M139.9,174.1c1,0,1.8,0.8,1.8,1.8c0,1-0.8,1.8-1.8,1.8s-1.8-0.8-1.8-1.8C138.1,174.9,138.9,174.1,139.9,174.1
			z"/>
	</g>
	<g>
		<rect x="142.3" y="164.1" class="st5" width="9.8" height="30.8"/>
		<rect x="142.3" y="164.1" class="st3" width="9.8" height="3.4"/>
		<rect x="142.3" y="174" class="st7" width="9.8" height="3.7"/>
		<path class="st9" d="M142.9,191v-3.8c0-1.1,0.9-1.9,1.9-1.9h4.7c1.1,0,1.9,0.9,1.9,1.9v3.8c0,1.1-0.9,1.9-1.9,1.9h-4.7
			C143.7,192.9,142.9,192,142.9,191z"/>
		<path class="st7" d="M148.4,167.5L148.4,167.5c0,1.2-1,2.2-2.2,2.2h-2.6v-4.5h2.6C147.4,165.3,148.4,166.3,148.4,167.5z"/>
		<polygon class="st3" points="145.1,173.4 152.1,173.4 152.1,179.2 150,179.2 150,178.8 149.6,178.3 145.1,178.3 		"/>
		<rect x="145.1" y="174.9" class="st4" width="7" height="2.4"/>
		<path class="st5" d="M149.7,174.1c1,0,1.8,0.8,1.8,1.8c0,1-0.8,1.8-1.8,1.8s-1.8-0.8-1.8-1.8C147.9,174.9,148.7,174.1,149.7,174.1
			z"/>
	</g>
	<g>
		<rect x="152.1" y="164.1" class="st5" width="9.8" height="30.8"/>
		<rect x="152.1" y="164.1" class="st3" width="9.8" height="3.4"/>
		<rect x="152.1" y="174" class="st7" width="9.8" height="3.7"/>
		<path class="st9" d="M152.7,191v-3.8c0-1.1,0.9-1.9,1.9-1.9h4.7c1.1,0,1.9,0.9,1.9,1.9v3.8c0,1.1-0.9,1.9-1.9,1.9h-4.7
			C153.5,192.9,152.7,192,152.7,191z"/>
		<path class="st7" d="M158.2,167.5L158.2,167.5c0,1.2-1,2.2-2.2,2.2h-2.6v-4.5h2.6C157.2,165.3,158.2,166.3,158.2,167.5z"/>
		<polygon class="st3" points="154.9,173.4 161.9,173.4 161.9,179.2 159.8,179.2 159.8,178.8 159.4,178.3 154.9,178.3 		"/>
		<rect x="154.9" y="174.9" class="st4" width="7" height="2.4"/>
		<path class="st5" d="M159.5,174.1c1,0,1.8,0.8,1.8,1.8c0,1-0.8,1.8-1.8,1.8s-1.8-0.8-1.8-1.8C157.7,174.9,158.5,174.1,159.5,174.1
			z"/>
	</g>
	<g>
		<rect x="161.9" y="164.1" class="st5" width="9.8" height="30.8"/>
		<rect x="161.9" y="164.1" class="st3" width="9.8" height="3.4"/>
		<rect x="161.9" y="174" class="st7" width="9.8" height="3.7"/>
		<path class="st9" d="M162.5,191v-3.8c0-1.1,0.9-1.9,1.9-1.9h4.7c1.1,0,1.9,0.9,1.9,1.9v3.8c0,1.1-0.9,1.9-1.9,1.9h-4.7
			C163.3,192.9,162.5,192,162.5,191z"/>
		<path class="st7" d="M168,167.5L168,167.5c0,1.2-1,2.2-2.2,2.2h-2.6v-4.5h2.6C167,165.3,168,166.3,168,167.5z"/>
		<polygon class="st3" points="164.7,173.4 171.6,173.4 171.6,179.2 169.6,179.2 169.6,178.8 169.2,178.3 164.7,178.3 		"/>
		<rect x="164.7" y="174.9" class="st4" width="7" height="2.4"/>
		<path class="st5" d="M169.3,174.1c1,0,1.8,0.8,1.8,1.8c0,1-0.8,1.8-1.8,1.8s-1.8-0.8-1.8-1.8C167.5,174.9,168.3,174.1,169.3,174.1
			z"/>
	</g>
	<g>
		<rect x="171.6" y="164.1" class="st5" width="9.8" height="30.8"/>
		<rect x="171.6" y="164.1" class="st3" width="9.8" height="3.4"/>
		<rect x="171.6" y="174" class="st7" width="9.8" height="3.7"/>
		<path class="st9" d="M172.3,191v-3.8c0-1.1,0.9-1.9,1.9-1.9h4.7c1.1,0,1.9,0.9,1.9,1.9v3.8c0,1.1-0.9,1.9-1.9,1.9h-4.7
			C173.1,192.9,172.3,192,172.3,191z"/>
		<path class="st7" d="M177.8,167.5L177.8,167.5c0,1.2-1,2.2-2.2,2.2H173v-4.5h2.6C176.8,165.3,177.8,166.3,177.8,167.5z"/>
		<polygon class="st3" points="174.5,173.4 181.4,173.4 181.4,179.2 179.4,179.2 179.4,178.8 179,178.3 174.5,178.3 		"/>
		<rect x="174.5" y="174.9" class="st4" width="7" height="2.4"/>
		<path class="st5" d="M179.1,174.1c1,0,1.8,0.8,1.8,1.8c0,1-0.8,1.8-1.8,1.8s-1.8-0.8-1.8-1.8C177.3,174.9,178.1,174.1,179.1,174.1
			z"/>
	</g>
	<g>
		<rect x="181.4" y="164.1" class="st5" width="9.8" height="30.8"/>
		<rect x="181.4" y="164.1" class="st3" width="9.8" height="3.4"/>
		<rect x="181.4" y="174" class="st7" width="9.8" height="3.7"/>
		<path class="st9" d="M182.1,191v-3.8c0-1.1,0.9-1.9,1.9-1.9h4.7c1.1,0,1.9,0.9,1.9,1.9v3.8c0,1.1-0.9,1.9-1.9,1.9H184
			C182.9,192.9,182.1,192,182.1,191z"/>
		<path class="st7" d="M187.6,167.5L187.6,167.5c0,1.2-1,2.2-2.2,2.2h-2.6v-4.5h2.6C186.6,165.3,187.6,166.3,187.6,167.5z"/>
		<polygon class="st3" points="184.2,173.4 191.2,173.4 191.2,179.2 189.2,179.2 189.2,178.8 188.8,178.3 184.2,178.3 		"/>
		<rect x="184.2" y="174.9" class="st4" width="7" height="2.4"/>
		<path class="st5" d="M188.9,174.1c1,0,1.8,0.8,1.8,1.8c0,1-0.8,1.8-1.8,1.8s-1.8-0.8-1.8-1.8C187,174.9,187.9,174.1,188.9,174.1z"
			/>
	</g>
	<g>
		<rect x="191.2" y="164.1" class="st5" width="9.8" height="30.8"/>
		<rect x="191.2" y="164.1" class="st3" width="9.8" height="3.4"/>
		<rect x="191.2" y="174" class="st7" width="9.8" height="3.7"/>
		<path class="st9" d="M191.9,191v-3.8c0-1.1,0.9-1.9,1.9-1.9h4.7c1.1,0,1.9,0.9,1.9,1.9v3.8c0,1.1-0.9,1.9-1.9,1.9h-4.7
			C192.7,192.9,191.9,192,191.9,191z"/>
		<path class="st7" d="M197.4,167.5L197.4,167.5c0,1.2-1,2.2-2.2,2.2h-2.6v-4.5h2.6C196.4,165.3,197.4,166.3,197.4,167.5z"/>
		<polygon class="st3" points="194,173.4 201,173.4 201,179.2 199,179.2 199,178.8 198.6,178.3 194,178.3 		"/>
		<rect x="194" y="174.9" class="st4" width="7" height="2.4"/>
		<path class="st5" d="M198.7,174.1c1,0,1.8,0.8,1.8,1.8c0,1-0.8,1.8-1.8,1.8s-1.8-0.8-1.8-1.8C196.8,174.9,197.7,174.1,198.7,174.1
			z"/>
	</g>
	<g>
		<rect x="201" y="164.1" class="st5" width="9.8" height="30.8"/>
		<rect x="201" y="164.1" class="st3" width="9.8" height="3.4"/>
		<rect x="201" y="174" class="st7" width="9.8" height="3.7"/>
		<path class="st9" d="M201.7,191v-3.8c0-1.1,0.9-1.9,1.9-1.9h4.7c1.1,0,1.9,0.9,1.9,1.9v3.8c0,1.1-0.9,1.9-1.9,1.9h-4.7
			C202.5,192.9,201.7,192,201.7,191z"/>
		<path class="st7" d="M207.2,167.5L207.2,167.5c0,1.2-1,2.2-2.2,2.2h-2.6v-4.5h2.6C206.2,165.3,207.2,166.3,207.2,167.5z"/>
		<polygon class="st3" points="203.8,173.4 210.8,173.4 210.8,179.2 208.8,179.2 208.8,178.8 208.4,178.3 203.8,178.3 		"/>
		<rect x="203.8" y="174.9" class="st4" width="7" height="2.4"/>
		<path class="st5" d="M208.5,174.1c1,0,1.8,0.8,1.8,1.8c0,1-0.8,1.8-1.8,1.8s-1.8-0.8-1.8-1.8C206.6,174.9,207.5,174.1,208.5,174.1
			z"/>
	</g>
</g>
<g>
	<g>
		<rect x="220.7" y="164.1" class="st5" width="9.8" height="30.8"/>
		<rect x="220.7" y="164.1" class="st3" width="9.8" height="3.4"/>
		<rect x="220.7" y="174" class="st7" width="9.8" height="3.7"/>
		<path class="st9" d="M221.3,191v-3.8c0-1.1,0.9-1.9,1.9-1.9h4.7c1.1,0,1.9,0.9,1.9,1.9v3.8c0,1.1-0.9,1.9-1.9,1.9h-4.7
			C222.2,192.9,221.3,192,221.3,191z"/>
		<path class="st7" d="M226.9,167.5L226.9,167.5c0,1.2-1,2.2-2.2,2.2h-2.6v-4.5h2.6C225.9,165.3,226.9,166.3,226.9,167.5z"/>
		<polygon class="st3" points="223.5,173.4 230.5,173.4 230.5,179.2 228.4,179.2 228.4,178.8 228,178.3 223.5,178.3 		"/>
		<rect x="223.5" y="174.9" class="st4" width="7" height="2.4"/>
		<path class="st5" d="M228.1,174.1c1,0,1.8,0.8,1.8,1.8c0,1-0.8,1.8-1.8,1.8s-1.8-0.8-1.8-1.8C226.3,174.9,227.1,174.1,228.1,174.1
			z"/>
	</g>
	<g>
		<rect x="230.5" y="164.1" class="st5" width="9.8" height="30.8"/>
		<rect x="230.5" y="164.1" class="st3" width="9.8" height="3.4"/>
		<rect x="230.5" y="174" class="st7" width="9.8" height="3.7"/>
		<path class="st9" d="M231.1,191v-3.8c0-1.1,0.9-1.9,1.9-1.9h4.7c1.1,0,1.9,0.9,1.9,1.9v3.8c0,1.1-0.9,1.9-1.9,1.9H233
			C232,192.9,231.1,192,231.1,191z"/>
		<path class="st7" d="M236.7,167.5L236.7,167.5c0,1.2-1,2.2-2.2,2.2h-2.6v-4.5h2.6C235.7,165.3,236.7,166.3,236.7,167.5z"/>
		<polygon class="st3" points="233.3,173.4 240.3,173.4 240.3,179.2 238.2,179.2 238.2,178.8 237.8,178.3 233.3,178.3 		"/>
		<rect x="233.3" y="174.9" class="st4" width="7" height="2.4"/>
		<path class="st5" d="M237.9,174.1c1,0,1.8,0.8,1.8,1.8c0,1-0.8,1.8-1.8,1.8s-1.8-0.8-1.8-1.8C236.1,174.9,236.9,174.1,237.9,174.1
			z"/>
	</g>
	<g>
		<rect x="240.3" y="164.1" class="st5" width="9.8" height="30.8"/>
		<rect x="240.3" y="164.1" class="st3" width="9.8" height="3.4"/>
		<rect x="240.3" y="174" class="st7" width="9.8" height="3.7"/>
		<path class="st9" d="M240.9,191v-3.8c0-1.1,0.9-1.9,1.9-1.9h4.7c1.1,0,1.9,0.9,1.9,1.9v3.8c0,1.1-0.9,1.9-1.9,1.9h-4.7
			C241.8,192.9,240.9,192,240.9,191z"/>
		<path class="st7" d="M246.5,167.5L246.5,167.5c0,1.2-1,2.2-2.2,2.2h-2.6v-4.5h2.6C245.5,165.3,246.5,166.3,246.5,167.5z"/>
		<polygon class="st3" points="243.1,173.4 250.1,173.4 250.1,179.2 248,179.2 248,178.8 247.6,178.3 243.1,178.3 		"/>
		<rect x="243.1" y="174.9" class="st4" width="7" height="2.4"/>
		<path class="st5" d="M247.7,174.1c1,0,1.8,0.8,1.8,1.8c0,1-0.8,1.8-1.8,1.8s-1.8-0.8-1.8-1.8C245.9,174.9,246.7,174.1,247.7,174.1
			z"/>
	</g>
	<g>
		<rect x="250.1" y="164.1" class="st5" width="9.8" height="30.8"/>
		<rect x="250.1" y="164.1" class="st3" width="9.8" height="3.4"/>
		<rect x="250.1" y="174" class="st7" width="9.8" height="3.7"/>
		<path class="st9" d="M250.7,191v-3.8c0-1.1,0.9-1.9,1.9-1.9h4.7c1.1,0,1.9,0.9,1.9,1.9v3.8c0,1.1-0.9,1.9-1.9,1.9h-4.7
			C251.5,192.9,250.7,192,250.7,191z"/>
		<path class="st7" d="M256.3,167.5L256.3,167.5c0,1.2-1,2.2-2.2,2.2h-2.6v-4.5h2.6C255.3,165.3,256.3,166.3,256.3,167.5z"/>
		<polygon class="st3" points="252.9,173.4 259.9,173.4 259.9,179.2 257.8,179.2 257.8,178.8 257.4,178.3 252.9,178.3 		"/>
		<rect x="252.9" y="174.9" class="st4" width="7" height="2.4"/>
		<path class="st5" d="M257.5,174.1c1,0,1.8,0.8,1.8,1.8c0,1-0.8,1.8-1.8,1.8s-1.8-0.8-1.8-1.8C255.7,174.9,256.5,174.1,257.5,174.1
			z"/>
	</g>
	<g>
		<rect x="259.9" y="164.1" class="st5" width="9.8" height="30.8"/>
		<rect x="259.9" y="164.1" class="st3" width="9.8" height="3.4"/>
		<rect x="259.9" y="174" class="st7" width="9.8" height="3.7"/>
		<path class="st9" d="M260.5,191v-3.8c0-1.1,0.9-1.9,1.9-1.9h4.7c1.1,0,1.9,0.9,1.9,1.9v3.8c0,1.1-0.9,1.9-1.9,1.9h-4.7
			C261.3,192.9,260.5,192,260.5,191z"/>
		<path class="st7" d="M266.1,167.5L266.1,167.5c0,1.2-1,2.2-2.2,2.2h-2.6v-4.5h2.6C265.1,165.3,266.1,166.3,266.1,167.5z"/>
		<polygon class="st3" points="262.7,173.4 269.7,173.4 269.7,179.2 267.6,179.2 267.6,178.8 267.2,178.3 262.7,178.3 		"/>
		<rect x="262.7" y="174.9" class="st4" width="7" height="2.4"/>
		<path class="st5" d="M267.3,174.1c1,0,1.8,0.8,1.8,1.8c0,1-0.8,1.8-1.8,1.8s-1.8-0.8-1.8-1.8C265.5,174.9,266.3,174.1,267.3,174.1
			z"/>
	</g>
	<g>
		<rect x="269.7" y="164.1" class="st5" width="9.8" height="30.8"/>
		<rect x="269.7" y="164.1" class="st3" width="9.8" height="3.4"/>
		<rect x="269.7" y="174" class="st7" width="9.8" height="3.7"/>
		<path class="st9" d="M270.3,191v-3.8c0-1.1,0.9-1.9,1.9-1.9h4.7c1.1,0,1.9,0.9,1.9,1.9v3.8c0,1.1-0.9,1.9-1.9,1.9h-4.7
			C271.1,192.9,270.3,192,270.3,191z"/>
		<path class="st7" d="M275.9,167.5L275.9,167.5c0,1.2-1,2.2-2.2,2.2h-2.6v-4.5h2.6C274.9,165.3,275.9,166.3,275.9,167.5z"/>
		<polygon class="st3" points="272.5,173.4 279.5,173.4 279.5,179.2 277.4,179.2 277.4,178.8 277,178.3 272.5,178.3 		"/>
		<rect x="272.5" y="174.9" class="st4" width="7" height="2.4"/>
		<path class="st5" d="M277.1,174.1c1,0,1.8,0.8,1.8,1.8c0,1-0.8,1.8-1.8,1.8s-1.8-0.8-1.8-1.8C275.3,174.9,276.1,174.1,277.1,174.1
			z"/>
	</g>
	<g>
		<rect x="279.5" y="164.1" class="st5" width="9.8" height="30.8"/>
		<rect x="279.5" y="164.1" class="st3" width="9.8" height="3.4"/>
		<rect x="279.5" y="174" class="st7" width="9.8" height="3.7"/>
		<path class="st9" d="M280.1,191v-3.8c0-1.1,0.9-1.9,1.9-1.9h4.7c1.1,0,1.9,0.9,1.9,1.9v3.8c0,1.1-0.9,1.9-1.9,1.9H282
			C280.9,192.9,280.1,192,280.1,191z"/>
		<path class="st7" d="M285.7,167.5L285.7,167.5c0,1.2-1,2.2-2.2,2.2h-2.6v-4.5h2.6C284.7,165.3,285.7,166.3,285.7,167.5z"/>
		<polygon class="st3" points="282.3,173.4 289.3,173.4 289.3,179.2 287.2,179.2 287.2,178.8 286.8,178.3 282.3,178.3 		"/>
		<rect x="282.3" y="174.9" class="st4" width="7" height="2.4"/>
		<path class="st5" d="M286.9,174.1c1,0,1.8,0.8,1.8,1.8c0,1-0.8,1.8-1.8,1.8s-1.8-0.8-1.8-1.8C285.1,174.9,285.9,174.1,286.9,174.1
			z"/>
	</g>
	<g>
		<rect x="289.3" y="164.1" class="st5" width="9.8" height="30.8"/>
		<rect x="289.3" y="164.1" class="st3" width="9.8" height="3.4"/>
		<rect x="289.3" y="174" class="st7" width="9.8" height="3.7"/>
		<path class="st9" d="M289.9,191v-3.8c0-1.1,0.9-1.9,1.9-1.9h4.7c1.1,0,1.9,0.9,1.9,1.9v3.8c0,1.1-0.9,1.9-1.9,1.9h-4.7
			C290.7,192.9,289.9,192,289.9,191z"/>
		<path class="st7" d="M295.5,167.5L295.5,167.5c0,1.2-1,2.2-2.2,2.2h-2.6v-4.5h2.6C294.5,165.3,295.5,166.3,295.5,167.5z"/>
		<polygon class="st3" points="292.1,173.4 299.1,173.4 299.1,179.2 297,179.2 297,178.8 296.6,178.3 292.1,178.3 		"/>
		<rect x="292.1" y="174.9" class="st4" width="7" height="2.4"/>
		<path class="st5" d="M296.7,174.1c1,0,1.8,0.8,1.8,1.8c0,1-0.8,1.8-1.8,1.8s-1.8-0.8-1.8-1.8C294.9,174.9,295.7,174.1,296.7,174.1
			z"/>
	</g>
	<g>
		<rect x="299.1" y="164.1" class="st5" width="9.8" height="30.8"/>
		<rect x="299.1" y="164.1" class="st3" width="9.8" height="3.4"/>
		<rect x="299.1" y="174" class="st7" width="9.8" height="3.7"/>
		<path class="st9" d="M299.7,191v-3.8c0-1.1,0.9-1.9,1.9-1.9h4.7c1.1,0,1.9,0.9,1.9,1.9v3.8c0,1.1-0.9,1.9-1.9,1.9h-4.7
			C300.5,192.9,299.7,192,299.7,191z"/>
		<path class="st7" d="M305.3,167.5L305.3,167.5c0,1.2-1,2.2-2.2,2.2h-2.6v-4.5h2.6C304.3,165.3,305.3,166.3,305.3,167.5z"/>
		<polygon class="st3" points="301.9,173.4 308.9,173.4 308.9,179.2 306.8,179.2 306.8,178.8 306.4,178.3 301.9,178.3 		"/>
		<rect x="301.9" y="174.9" class="st4" width="7" height="2.4"/>
		<path class="st5" d="M306.5,174.1c1,0,1.8,0.8,1.8,1.8c0,1-0.8,1.8-1.8,1.8s-1.8-0.8-1.8-1.8C304.7,174.9,305.5,174.1,306.5,174.1
			z"/>
	</g>
	<g>
		<rect x="308.9" y="164.1" class="st5" width="9.8" height="30.8"/>
		<rect x="308.9" y="164.1" class="st3" width="9.8" height="3.4"/>
		<rect x="308.9" y="174" class="st7" width="9.8" height="3.7"/>
		<path class="st9" d="M309.5,191v-3.8c0-1.1,0.9-1.9,1.9-1.9h4.7c1.1,0,1.9,0.9,1.9,1.9v3.8c0,1.1-0.9,1.9-1.9,1.9h-4.7
			C310.3,192.9,309.5,192,309.5,191z"/>
		<path class="st7" d="M315.1,167.5L315.1,167.5c0,1.2-1,2.2-2.2,2.2h-2.6v-4.5h2.6C314.1,165.3,315.1,166.3,315.1,167.5z"/>
		<polygon class="st3" points="311.7,173.4 318.7,173.4 318.7,179.2 316.6,179.2 316.6,178.8 316.2,178.3 311.7,178.3 		"/>
		<rect x="311.7" y="174.9" class="st4" width="7" height="2.4"/>
		<path class="st5" d="M316.3,174.1c1,0,1.8,0.8,1.8,1.8c0,1-0.8,1.8-1.8,1.8s-1.8-0.8-1.8-1.8C314.5,174.9,315.3,174.1,316.3,174.1
			z"/>
	</g>
	<g>
		<rect x="318.7" y="164.1" class="st5" width="9.8" height="30.8"/>
		<rect x="318.7" y="164.1" class="st3" width="9.8" height="3.4"/>
		<rect x="318.7" y="174" class="st7" width="9.8" height="3.7"/>
		<path class="st9" d="M319.3,191v-3.8c0-1.1,0.9-1.9,1.9-1.9h4.7c1.1,0,1.9,0.9,1.9,1.9v3.8c0,1.1-0.9,1.9-1.9,1.9h-4.7
			C320.1,192.9,319.3,192,319.3,191z"/>
		<path class="st7" d="M324.9,167.5L324.9,167.5c0,1.2-1,2.2-2.2,2.2h-2.6v-4.5h2.6C323.9,165.3,324.9,166.3,324.9,167.5z"/>
		<polygon class="st3" points="321.5,173.4 328.5,173.4 328.5,179.2 326.4,179.2 326.4,178.8 326,178.3 321.5,178.3 		"/>
		<rect x="321.5" y="174.9" class="st4" width="7" height="2.4"/>
		<path class="st5" d="M326.1,174.1c1,0,1.8,0.8,1.8,1.8c0,1-0.8,1.8-1.8,1.8s-1.8-0.8-1.8-1.8C324.3,174.9,325.1,174.1,326.1,174.1
			z"/>
	</g>
	<g>
		<rect x="328.5" y="164.1" class="st5" width="9.8" height="30.8"/>
		<rect x="328.5" y="164.1" class="st3" width="9.8" height="3.4"/>
		<rect x="328.5" y="174" class="st7" width="9.8" height="3.7"/>
		<path class="st9" d="M329.1,191v-3.8c0-1.1,0.9-1.9,1.9-1.9h4.7c1.1,0,1.9,0.9,1.9,1.9v3.8c0,1.1-0.9,1.9-1.9,1.9H331
			C329.9,192.9,329.1,192,329.1,191z"/>
		<path class="st7" d="M334.7,167.5L334.7,167.5c0,1.2-1,2.2-2.2,2.2h-2.6v-4.5h2.6C333.7,165.3,334.7,166.3,334.7,167.5z"/>
		<polygon class="st3" points="331.3,173.4 338.3,173.4 338.3,179.2 336.2,179.2 336.2,178.8 335.8,178.3 331.3,178.3 		"/>
		<rect x="331.3" y="174.9" class="st4" width="7" height="2.4"/>
		<path class="st5" d="M335.9,174.1c1,0,1.8,0.8,1.8,1.8c0,1-0.8,1.8-1.8,1.8s-1.8-0.8-1.8-1.8C334.1,174.9,334.9,174.1,335.9,174.1
			z"/>
	</g>
	<g>
		<rect x="338.3" y="164.1" class="st5" width="9.8" height="30.8"/>
		<rect x="338.3" y="164.1" class="st3" width="9.8" height="3.4"/>
		<rect x="338.3" y="174" class="st7" width="9.8" height="3.7"/>
		<path class="st9" d="M338.9,191v-3.8c0-1.1,0.9-1.9,1.9-1.9h4.7c1.1,0,1.9,0.9,1.9,1.9v3.8c0,1.1-0.9,1.9-1.9,1.9h-4.7
			C339.7,192.9,338.9,192,338.9,191z"/>
		<path class="st7" d="M344.4,167.5L344.4,167.5c0,1.2-1,2.2-2.2,2.2h-2.6v-4.5h2.6C343.4,165.3,344.4,166.3,344.4,167.5z"/>
		<polygon class="st3" points="341.1,173.4 348.1,173.4 348.1,179.2 346,179.2 346,178.8 345.6,178.3 341.1,178.3 		"/>
		<rect x="341.1" y="174.9" class="st4" width="7" height="2.4"/>
		<path class="st5" d="M345.7,174.1c1,0,1.8,0.8,1.8,1.8c0,1-0.8,1.8-1.8,1.8s-1.8-0.8-1.8-1.8C343.9,174.9,344.7,174.1,345.7,174.1
			z"/>
	</g>
	<g>
		<rect x="348.1" y="164.1" class="st5" width="9.8" height="30.8"/>
		<rect x="348.1" y="164.1" class="st3" width="9.8" height="3.4"/>
		<rect x="348.1" y="174" class="st7" width="9.8" height="3.7"/>
		<path class="st9" d="M348.7,191v-3.8c0-1.1,0.9-1.9,1.9-1.9h4.7c1.1,0,1.9,0.9,1.9,1.9v3.8c0,1.1-0.9,1.9-1.9,1.9h-4.7
			C349.5,192.9,348.7,192,348.7,191z"/>
		<path class="st7" d="M354.2,167.5L354.2,167.5c0,1.2-1,2.2-2.2,2.2h-2.6v-4.5h2.6C353.2,165.3,354.2,166.3,354.2,167.5z"/>
		<polygon class="st3" points="350.9,173.4 357.9,173.4 357.9,179.2 355.8,179.2 355.8,178.8 355.4,178.3 350.9,178.3 		"/>
		<rect x="350.9" y="174.9" class="st4" width="7" height="2.4"/>
		<path class="st5" d="M355.5,174.1c1,0,1.8,0.8,1.8,1.8c0,1-0.8,1.8-1.8,1.8s-1.8-0.8-1.8-1.8C353.7,174.9,354.5,174.1,355.5,174.1
			z"/>
	</g>
</g>
<g>
	<g>
		<rect x="42.8" y="9.5" class="st5" width="9.8" height="30.8"/>
		<rect x="42.8" y="36.9" class="st3" width="9.8" height="3.4"/>
		<rect x="42.8" y="26.8" class="st7" width="9.8" height="3.7"/>
		<path class="st9" d="M52,13.5v3.8c0,1.1-0.9,1.9-1.9,1.9h-4.7c-1.1,0-1.9-0.9-1.9-1.9v-3.8c0-1.1,0.9-1.9,1.9-1.9h4.7
			C51.1,11.6,52,12.4,52,13.5z"/>
		<path class="st7" d="M46.4,37L46.4,37c0-1.2,1-2.2,2.2-2.2h2.6v4.5h-2.6C47.4,39.2,46.4,38.2,46.4,37L46.4,37z"/>
		<polygon class="st3" points="49.8,31 42.8,31 42.8,25.3 44.8,25.3 44.8,25.7 45.3,26.1 49.8,26.1 		"/>
		<rect x="42.8" y="27.2" class="st4" width="7" height="2.4"/>
		<path class="st5" d="M45.2,30.4c-1,0-1.8-0.8-1.8-1.8s0.8-1.8,1.8-1.8s1.8,0.8,1.8,1.8S46.2,30.4,45.2,30.4z"/>
	</g>
	<g>
		<rect x="33" y="9.5" class="st5" width="9.8" height="30.8"/>
		<rect x="33" y="36.9" class="st3" width="9.8" height="3.4"/>
		<rect x="33" y="26.8" class="st7" width="9.8" height="3.7"/>
		<path class="st9" d="M42.2,13.5v3.8c0,1.1-0.9,1.9-1.9,1.9h-4.7c-1.1,0-1.9-0.9-1.9-1.9v-3.8c0-1.1,0.9-1.9,1.9-1.9h4.7
			C41.3,11.6,42.2,12.4,42.2,13.5z"/>
		<path class="st7" d="M36.6,37L36.6,37c0-1.2,1-2.2,2.2-2.2h2.6v4.5h-2.6C37.6,39.2,36.6,38.2,36.6,37L36.6,37z"/>
		<polygon class="st3" points="40,31 33,31 33,25.3 35,25.3 35,25.7 35.5,26.1 40,26.1 		"/>
		<rect x="33" y="27.2" class="st4" width="7" height="2.4"/>
		<path class="st5" d="M35.4,30.4c-1,0-1.8-0.8-1.8-1.8s0.8-1.8,1.8-1.8s1.8,0.8,1.8,1.8S36.4,30.4,35.4,30.4z"/>
	</g>
	<g>
		<rect x="23.2" y="9.5" class="st5" width="9.8" height="30.8"/>
		<rect x="23.2" y="36.9" class="st3" width="9.8" height="3.4"/>
		<rect x="23.2" y="26.8" class="st7" width="9.8" height="3.7"/>
		<path class="st9" d="M32.4,13.5v3.8c0,1.1-0.9,1.9-1.9,1.9h-4.7c-1.1,0-1.9-0.9-1.9-1.9v-3.8c0-1.1,0.9-1.9,1.9-1.9h4.7
			C31.5,11.6,32.4,12.4,32.4,13.5z"/>
		<path class="st7" d="M26.8,37L26.8,37c0-1.2,1-2.2,2.2-2.2h2.6v4.5H29C27.8,39.2,26.8,38.2,26.8,37L26.8,37z"/>
		<polygon class="st3" points="30.2,31 23.2,31 23.2,25.3 25.2,25.3 25.2,25.7 25.7,26.1 30.2,26.1 		"/>
		<rect x="23.2" y="27.2" class="st4" width="7" height="2.4"/>
		<path class="st5" d="M25.6,30.4c-1,0-1.8-0.8-1.8-1.8s0.8-1.8,1.8-1.8s1.8,0.8,1.8,1.8S26.6,30.4,25.6,30.4z"/>
	</g>
	<g>
		<rect x="13.4" y="9.5" class="st5" width="9.8" height="30.8"/>
		<rect x="13.4" y="36.9" class="st3" width="9.8" height="3.4"/>
		<rect x="13.4" y="26.8" class="st7" width="9.8" height="3.7"/>
		<path class="st9" d="M22.6,13.5v3.8c0,1.1-0.9,1.9-1.9,1.9h-4.7c-1.1,0-1.9-0.9-1.9-1.9v-3.8c0-1.1,0.9-1.9,1.9-1.9h4.7
			C21.7,11.6,22.6,12.4,22.6,13.5z"/>
		<path class="st7" d="M17,37L17,37c0-1.2,1-2.2,2.2-2.2h2.6v4.5h-2.6C18,39.2,17,38.2,17,37L17,37z"/>
		<polygon class="st3" points="20.4,31 13.4,31 13.4,25.3 15.4,25.3 15.4,25.7 15.9,26.1 20.4,26.1 		"/>
		<rect x="13.4" y="27.2" class="st4" width="7" height="2.4"/>
		<path class="st5" d="M15.8,30.4c-1,0-1.8-0.8-1.8-1.8c0-1,0.8-1.8,1.8-1.8s1.8,0.8,1.8,1.8C17.6,29.6,16.8,30.4,15.8,30.4z"/>
	</g>
</g>
<g>
	<g>
		<rect x="150.6" y="9.5" class="st5" width="9.8" height="30.8"/>
		<rect x="150.6" y="36.9" class="st3" width="9.8" height="3.4"/>
		<rect x="150.6" y="26.8" class="st7" width="9.8" height="3.7"/>
		<path class="st9" d="M159.8,13.5v3.8c0,1.1-0.9,1.9-1.9,1.9h-4.7c-1.1,0-1.9-0.9-1.9-1.9v-3.8c0-1.1,0.9-1.9,1.9-1.9h4.7
			C159,11.6,159.8,12.4,159.8,13.5z"/>
		<path class="st7" d="M154.2,37L154.2,37c0-1.2,1-2.2,2.2-2.2h2.6v4.5h-2.6C155.2,39.2,154.2,38.2,154.2,37L154.2,37z"/>
		<polygon class="st3" points="157.6,31 150.6,31 150.6,25.3 152.7,25.3 152.7,25.7 153.1,26.1 157.6,26.1 		"/>
		<rect x="150.6" y="27.2" class="st4" width="7" height="2.4"/>
		<path class="st5" d="M153,30.4c-1,0-1.8-0.8-1.8-1.8s0.8-1.8,1.8-1.8s1.8,0.8,1.8,1.8S154,30.4,153,30.4z"/>
	</g>
	<g>
		<rect x="140.8" y="9.5" class="st5" width="9.8" height="30.8"/>
		<rect x="140.8" y="36.9" class="st3" width="9.8" height="3.4"/>
		<rect x="140.8" y="26.8" class="st7" width="9.8" height="3.7"/>
		<path class="st9" d="M150,13.5v3.8c0,1.1-0.9,1.9-1.9,1.9h-4.7c-1.1,0-1.9-0.9-1.9-1.9v-3.8c0-1.1,0.9-1.9,1.9-1.9h4.7
			C149.2,11.6,150,12.4,150,13.5z"/>
		<path class="st7" d="M144.4,37L144.4,37c0-1.2,1-2.2,2.2-2.2h2.6v4.5h-2.6C145.4,39.2,144.4,38.2,144.4,37L144.4,37z"/>
		<polygon class="st3" points="147.8,31 140.8,31 140.8,25.3 142.9,25.3 142.9,25.7 143.3,26.1 147.8,26.1 		"/>
		<rect x="140.8" y="27.2" class="st4" width="7" height="2.4"/>
		<path class="st5" d="M143.2,30.4c-1,0-1.8-0.8-1.8-1.8s0.8-1.8,1.8-1.8s1.8,0.8,1.8,1.8S144.2,30.4,143.2,30.4z"/>
	</g>
	<g>
		<rect x="131" y="9.5" class="st5" width="9.8" height="30.8"/>
		<rect x="131" y="36.9" class="st3" width="9.8" height="3.4"/>
		<rect x="131" y="26.8" class="st7" width="9.8" height="3.7"/>
		<path class="st9" d="M140.2,13.5v3.8c0,1.1-0.9,1.9-1.9,1.9h-4.7c-1.1,0-1.9-0.9-1.9-1.9v-3.8c0-1.1,0.9-1.9,1.9-1.9h4.7
			C139.4,11.6,140.2,12.4,140.2,13.5z"/>
		<path class="st7" d="M134.6,37L134.6,37c0-1.2,1-2.2,2.2-2.2h2.6v4.5l-2.6,0C135.6,39.2,134.6,38.2,134.6,37L134.6,37z"/>
		<polygon class="st3" points="138,31 131,31 131,25.3 133.1,25.3 133.1,25.7 133.5,26.1 138,26.1 		"/>
		<rect x="131" y="27.2" class="st4" width="7" height="2.4"/>
		<path class="st5" d="M133.4,30.4c-1,0-1.8-0.8-1.8-1.8s0.8-1.8,1.8-1.8c1,0,1.8,0.8,1.8,1.8S134.4,30.4,133.4,30.4z"/>
	</g>
	<g>
		<rect x="121.2" y="9.5" class="st5" width="9.8" height="30.8"/>
		<rect x="121.2" y="36.9" class="st3" width="9.8" height="3.4"/>
		<rect x="121.2" y="26.8" class="st7" width="9.8" height="3.7"/>
		<path class="st9" d="M130.4,13.5v3.8c0,1.1-0.9,1.9-1.9,1.9h-4.7c-1.1,0-1.9-0.9-1.9-1.9v-3.8c0-1.1,0.9-1.9,1.9-1.9h4.7
			C129.6,11.6,130.4,12.4,130.4,13.5z"/>
		<path class="st7" d="M124.8,37L124.8,37c0-1.2,1-2.2,2.2-2.2h2.6v4.5h-2.6C125.8,39.2,124.8,38.2,124.8,37L124.8,37z"/>
		<polygon class="st3" points="128.2,31 121.2,31 121.2,25.3 123.3,25.3 123.3,25.7 123.7,26.1 128.2,26.1 		"/>
		<rect x="121.2" y="27.2" class="st4" width="7" height="2.4"/>
		<path class="st5" d="M123.6,30.4c-1,0-1.8-0.8-1.8-1.8s0.8-1.8,1.8-1.8c1,0,1.8,0.8,1.8,1.8S124.6,30.4,123.6,30.4z"/>
	</g>
	<g>
		<rect x="111.4" y="9.5" class="st5" width="9.8" height="30.8"/>
		<rect x="111.4" y="36.9" class="st3" width="9.8" height="3.4"/>
		<rect x="111.4" y="26.8" class="st7" width="9.8" height="3.7"/>
		<path class="st9" d="M120.6,13.5v3.8c0,1.1-0.9,1.9-1.9,1.9H114c-1.1,0-1.9-0.9-1.9-1.9v-3.8c0-1.1,0.9-1.9,1.9-1.9h4.7
			C119.8,11.6,120.6,12.4,120.6,13.5z"/>
		<path class="st7" d="M115.1,37L115.1,37c0-1.2,1-2.2,2.2-2.2h2.6v4.5h-2.6C116.1,39.2,115.1,38.2,115.1,37L115.1,37z"/>
		<polygon class="st3" points="118.4,31 111.4,31 111.4,25.3 113.5,25.3 113.5,25.7 113.9,26.1 118.4,26.1 		"/>
		<rect x="111.4" y="27.2" class="st4" width="7" height="2.4"/>
		<path class="st5" d="M113.8,30.4c-1,0-1.8-0.8-1.8-1.8s0.8-1.8,1.8-1.8c1,0,1.8,0.8,1.8,1.8S114.8,30.4,113.8,30.4z"/>
	</g>
	<g>
		<rect x="101.6" y="9.5" class="st5" width="9.8" height="30.8"/>
		<rect x="101.6" y="36.9" class="st3" width="9.8" height="3.4"/>
		<rect x="101.6" y="26.8" class="st7" width="9.8" height="3.7"/>
		<path class="st9" d="M110.8,13.5v3.8c0,1.1-0.9,1.9-1.9,1.9h-4.7c-1.1,0-1.9-0.9-1.9-1.9v-3.8c0-1.1,0.9-1.9,1.9-1.9h4.7
			C110,11.6,110.8,12.4,110.8,13.5z"/>
		<path class="st7" d="M105.3,37L105.3,37c0-1.2,1-2.2,2.2-2.2h2.6v4.5h-2.6C106.3,39.2,105.3,38.2,105.3,37L105.3,37z"/>
		<polygon class="st3" points="108.6,31 101.6,31 101.6,25.3 103.7,25.3 103.7,25.7 104.1,26.1 108.6,26.1 		"/>
		<rect x="101.6" y="27.2" class="st4" width="7" height="2.4"/>
		<path class="st5" d="M104,30.4c-1,0-1.8-0.8-1.8-1.8s0.8-1.8,1.8-1.8c1,0,1.8,0.8,1.8,1.8S105,30.4,104,30.4z"/>
	</g>
	<g>
		<rect x="91.8" y="9.5" class="st5" width="9.8" height="30.8"/>
		<rect x="91.8" y="36.9" class="st3" width="9.8" height="3.4"/>
		<rect x="91.8" y="26.8" class="st7" width="9.8" height="3.7"/>
		<path class="st9" d="M101,13.5v3.8c0,1.1-0.9,1.9-1.9,1.9h-4.7c-1.1,0-1.9-0.9-1.9-1.9v-3.8c0-1.1,0.9-1.9,1.9-1.9h4.7
			C100.2,11.6,101,12.4,101,13.5z"/>
		<path class="st7" d="M95.5,37L95.5,37c0-1.2,1-2.2,2.2-2.2h2.6v4.5h-2.6C96.5,39.2,95.5,38.2,95.5,37L95.5,37z"/>
		<polygon class="st3" points="98.8,31 91.8,31 91.8,25.3 93.9,25.3 93.9,25.7 94.3,26.1 98.8,26.1 		"/>
		<rect x="91.8" y="27.2" class="st4" width="7" height="2.4"/>
		<path class="st5" d="M94.2,30.4c-1,0-1.8-0.8-1.8-1.8s0.8-1.8,1.8-1.8s1.8,0.8,1.8,1.8S95.2,30.4,94.2,30.4z"/>
	</g>
	<g>
		<rect x="82" y="9.5" class="st5" width="9.8" height="30.8"/>
		<rect x="82" y="36.9" class="st3" width="9.8" height="3.4"/>
		<rect x="82" y="26.8" class="st7" width="9.8" height="3.7"/>
		<path class="st9" d="M91.2,13.5v3.8c0,1.1-0.9,1.9-1.9,1.9h-4.7c-1.1,0-1.9-0.9-1.9-1.9v-3.8c0-1.1,0.9-1.9,1.9-1.9h4.7
			C90.4,11.6,91.2,12.4,91.2,13.5z"/>
		<path class="st7" d="M85.7,37L85.7,37c0-1.2,1-2.2,2.2-2.2h2.6v4.5h-2.6C86.7,39.2,85.7,38.2,85.7,37L85.7,37z"/>
		<polygon class="st3" points="89,31 82,31 82,25.3 84.1,25.3 84.1,25.7 84.5,26.1 89,26.1 		"/>
		<rect x="82" y="27.2" class="st4" width="7" height="2.4"/>
		<path class="st5" d="M84.4,30.4c-1,0-1.8-0.8-1.8-1.8s0.8-1.8,1.8-1.8c1,0,1.8,0.8,1.8,1.8S85.4,30.4,84.4,30.4z"/>
	</g>
	<g>
		<rect x="72.2" y="9.5" class="st5" width="9.8" height="30.8"/>
		<rect x="72.2" y="36.9" class="st3" width="9.8" height="3.4"/>
		<rect x="72.2" y="26.8" class="st7" width="9.8" height="3.7"/>
		<path class="st9" d="M81.4,13.5v3.8c0,1.1-0.9,1.9-1.9,1.9h-4.7c-1.1,0-1.9-0.9-1.9-1.9v-3.8c0-1.1,0.9-1.9,1.9-1.9h4.7
			C80.6,11.6,81.4,12.4,81.4,13.5z"/>
		<path class="st7" d="M75.9,37L75.9,37c0-1.2,1-2.2,2.2-2.2h2.6v4.5h-2.6C76.9,39.2,75.9,38.2,75.9,37L75.9,37z"/>
		<polygon class="st3" points="79.2,31 72.2,31 72.2,25.3 74.3,25.3 74.3,25.7 74.7,26.1 79.2,26.1 		"/>
		<rect x="72.2" y="27.2" class="st4" width="7" height="2.4"/>
		<path class="st5" d="M74.6,30.4c-1,0-1.8-0.8-1.8-1.8s0.8-1.8,1.8-1.8c1,0,1.8,0.8,1.8,1.8S75.6,30.4,74.6,30.4z"/>
	</g>
	<g>
		<rect x="62.4" y="9.5" class="st5" width="9.8" height="30.8"/>
		<rect x="62.4" y="36.9" class="st3" width="9.8" height="3.4"/>
		<rect x="62.4" y="26.8" class="st7" width="9.8" height="3.7"/>
		<path class="st9" d="M71.6,13.5v3.8c0,1.1-0.9,1.9-1.9,1.9H65c-1.1,0-1.9-0.9-1.9-1.9v-3.8c0-1.1,0.9-1.9,1.9-1.9h4.7
			C70.8,11.6,71.6,12.4,71.6,13.5z"/>
		<path class="st7" d="M66.1,37L66.1,37c0-1.2,1-2.2,2.2-2.2h2.6v4.5h-2.6C67.1,39.2,66.1,38.2,66.1,37L66.1,37z"/>
		<polygon class="st3" points="69.4,31 62.5,31 62.5,25.3 64.5,25.3 64.5,25.7 64.9,26.1 69.4,26.1 		"/>
		<rect x="62.5" y="27.2" class="st4" width="7" height="2.4"/>
		<path class="st5" d="M64.8,30.4c-1,0-1.8-0.8-1.8-1.8c0-1,0.8-1.8,1.8-1.8c1,0,1.8,0.8,1.8,1.8C66.6,29.6,65.8,30.4,64.8,30.4z"/>
	</g>
</g>
<g>
	<g>
		<rect x="367.7" y="164.1" class="st5" width="9.8" height="30.8"/>
		<rect x="367.7" y="164.1" class="st3" width="9.8" height="3.4"/>
		<rect x="367.7" y="174" class="st7" width="9.8" height="3.7"/>
		<path class="st9" d="M368.3,191v-3.8c0-1.1,0.9-1.9,1.9-1.9h4.7c1.1,0,1.9,0.9,1.9,1.9v3.8c0,1.1-0.9,1.9-1.9,1.9h-4.7
			C369.2,192.9,368.3,192,368.3,191z"/>
		<path class="st7" d="M373.9,167.5L373.9,167.5c0,1.2-1,2.2-2.2,2.2h-2.6v-4.5h2.6C372.9,165.3,373.9,166.3,373.9,167.5z"/>
		<polygon class="st3" points="370.5,173.4 377.5,173.4 377.5,179.2 375.4,179.2 375.4,178.8 375,178.3 370.5,178.3 		"/>
		<rect x="370.5" y="174.9" class="st4" width="7" height="2.4"/>
		<path class="st5" d="M375.1,174.1c1,0,1.8,0.8,1.8,1.8c0,1-0.8,1.8-1.8,1.8c-1,0-1.8-0.8-1.8-1.8
			C373.3,174.9,374.1,174.1,375.1,174.1z"/>
	</g>
	<g>
		<rect x="377.5" y="164.1" class="st5" width="9.8" height="30.8"/>
		<rect x="377.5" y="164.1" class="st3" width="9.8" height="3.4"/>
		<rect x="377.5" y="174" class="st7" width="9.8" height="3.7"/>
		<path class="st9" d="M378.1,191v-3.8c0-1.1,0.9-1.9,1.9-1.9h4.7c1.1,0,1.9,0.9,1.9,1.9v3.8c0,1.1-0.9,1.9-1.9,1.9H380
			C379,192.9,378.1,192,378.1,191z"/>
		<path class="st7" d="M383.7,167.5L383.7,167.5c0,1.2-1,2.2-2.2,2.2h-2.6v-4.5h2.6C382.7,165.3,383.7,166.3,383.7,167.5z"/>
		<polygon class="st3" points="380.3,173.4 387.3,173.4 387.3,179.2 385.2,179.2 385.2,178.8 384.8,178.3 380.3,178.3 		"/>
		<rect x="380.3" y="174.9" class="st4" width="7" height="2.4"/>
		<path class="st5" d="M384.9,174.1c1,0,1.8,0.8,1.8,1.8c0,1-0.8,1.8-1.8,1.8c-1,0-1.8-0.8-1.8-1.8
			C383.1,174.9,383.9,174.1,384.9,174.1z"/>
	</g>
	<g>
		<rect x="387.3" y="164.1" class="st5" width="9.8" height="30.8"/>
		<rect x="387.3" y="164.1" class="st3" width="9.8" height="3.4"/>
		<rect x="387.3" y="174" class="st7" width="9.8" height="3.7"/>
		<path class="st9" d="M387.9,191v-3.8c0-1.1,0.9-1.9,1.9-1.9h4.7c1.1,0,1.9,0.9,1.9,1.9v3.8c0,1.1-0.9,1.9-1.9,1.9h-4.7
			C388.8,192.9,387.9,192,387.9,191z"/>
		<path class="st7" d="M393.5,167.5L393.5,167.5c0,1.2-1,2.2-2.2,2.2h-2.6v-4.5h2.6C392.5,165.3,393.5,166.3,393.5,167.5z"/>
		<polygon class="st3" points="390.1,173.4 397.1,173.4 397.1,179.2 395,179.2 395,178.8 394.6,178.3 390.1,178.3 		"/>
		<rect x="390.1" y="174.9" class="st4" width="7" height="2.4"/>
		<path class="st5" d="M394.7,174.1c1,0,1.8,0.8,1.8,1.8c0,1-0.8,1.8-1.8,1.8c-1,0-1.8-0.8-1.8-1.8
			C392.9,174.9,393.7,174.1,394.7,174.1z"/>
	</g>
	<g>
		<rect x="397.1" y="164.1" class="st5" width="9.8" height="30.8"/>
		<rect x="397.1" y="164.1" class="st3" width="9.8" height="3.4"/>
		<rect x="397.1" y="174" class="st7" width="9.8" height="3.7"/>
		<path class="st9" d="M397.7,191v-3.8c0-1.1,0.9-1.9,1.9-1.9h4.7c1.1,0,1.9,0.9,1.9,1.9v3.8c0,1.1-0.9,1.9-1.9,1.9h-4.7
			C398.6,192.9,397.7,192,397.7,191z"/>
		<path class="st7" d="M403.3,167.5L403.3,167.5c0,1.2-1,2.2-2.2,2.2h-2.6v-4.5h2.6C402.3,165.3,403.3,166.3,403.3,167.5z"/>
		<polygon class="st3" points="399.9,173.4 406.9,173.4 406.9,179.2 404.8,179.2 404.8,178.8 404.4,178.3 399.9,178.3 		"/>
		<rect x="399.9" y="174.9" class="st4" width="7" height="2.4"/>
		<path class="st5" d="M404.5,174.1c1,0,1.8,0.8,1.8,1.8c0,1-0.8,1.8-1.8,1.8c-1,0-1.8-0.8-1.8-1.8
			C402.7,174.9,403.5,174.1,404.5,174.1z"/>
	</g>
	<g>
		<rect x="406.9" y="164.1" class="st5" width="9.8" height="30.8"/>
		<rect x="406.9" y="164.1" class="st3" width="9.8" height="3.4"/>
		<rect x="406.9" y="174" class="st7" width="9.8" height="3.7"/>
		<path class="st9" d="M407.5,191v-3.8c0-1.1,0.9-1.9,1.9-1.9h4.7c1.1,0,1.9,0.9,1.9,1.9v3.8c0,1.1-0.9,1.9-1.9,1.9h-4.7
			C408.4,192.9,407.5,192,407.5,191z"/>
		<path class="st7" d="M413.1,167.5L413.1,167.5c0,1.2-1,2.2-2.2,2.2h-2.6v-4.5h2.6C412.1,165.3,413.1,166.3,413.1,167.5z"/>
		<polygon class="st3" points="409.7,173.4 416.7,173.4 416.7,179.2 414.6,179.2 414.6,178.8 414.2,178.3 409.7,178.3 		"/>
		<rect x="409.7" y="174.9" class="st4" width="7" height="2.4"/>
		<path class="st5" d="M414.3,174.1c1,0,1.8,0.8,1.8,1.8c0,1-0.8,1.8-1.8,1.8c-1,0-1.8-0.8-1.8-1.8
			C412.5,174.9,413.3,174.1,414.3,174.1z"/>
	</g>
	<g>
		<rect x="416.7" y="164.1" class="st5" width="9.8" height="30.8"/>
		<rect x="416.7" y="164.1" class="st3" width="9.8" height="3.4"/>
		<rect x="416.7" y="174" class="st7" width="9.8" height="3.7"/>
		<path class="st9" d="M417.3,191v-3.8c0-1.1,0.9-1.9,1.9-1.9h4.7c1.1,0,1.9,0.9,1.9,1.9v3.8c0,1.1-0.9,1.9-1.9,1.9h-4.7
			C418.2,192.9,417.3,192,417.3,191z"/>
		<path class="st7" d="M422.9,167.5L422.9,167.5c0,1.2-1,2.2-2.2,2.2h-2.6v-4.5h2.6C421.9,165.3,422.9,166.3,422.9,167.5z"/>
		<polygon class="st3" points="419.5,173.4 426.5,173.4 426.5,179.2 424.4,179.2 424.4,178.8 424,178.3 419.5,178.3 		"/>
		<rect x="419.5" y="174.9" class="st4" width="7" height="2.4"/>
		<path class="st5" d="M424.1,174.1c1,0,1.8,0.8,1.8,1.8c0,1-0.8,1.8-1.8,1.8c-1,0-1.8-0.8-1.8-1.8
			C422.3,174.9,423.1,174.1,424.1,174.1z"/>
	</g>
	<g>
		<rect x="426.5" y="164.1" class="st5" width="9.8" height="30.8"/>
		<rect x="426.5" y="164.1" class="st3" width="9.8" height="3.4"/>
		<rect x="426.5" y="174" class="st7" width="9.8" height="3.7"/>
		<path class="st9" d="M427.1,191v-3.8c0-1.1,0.9-1.9,1.9-1.9h4.7c1.1,0,1.9,0.9,1.9,1.9v3.8c0,1.1-0.9,1.9-1.9,1.9H429
			C428,192.9,427.1,192,427.1,191z"/>
		<path class="st7" d="M432.7,167.5L432.7,167.5c0,1.2-1,2.2-2.2,2.2h-2.6v-4.5h2.6C431.7,165.3,432.7,166.3,432.7,167.5z"/>
		<polygon class="st3" points="429.3,173.4 436.3,173.4 436.3,179.2 434.2,179.2 434.2,178.8 433.8,178.3 429.3,178.3 		"/>
		<rect x="429.3" y="174.9" class="st4" width="7" height="2.4"/>
		<path class="st5" d="M433.9,174.1c1,0,1.8,0.8,1.8,1.8c0,1-0.8,1.8-1.8,1.8c-1,0-1.8-0.8-1.8-1.8
			C432.1,174.9,432.9,174.1,433.9,174.1z"/>
	</g>
	<g>
		<rect x="436.3" y="164.1" class="st5" width="9.8" height="30.8"/>
		<rect x="436.3" y="164.1" class="st3" width="9.8" height="3.4"/>
		<rect x="436.3" y="174" class="st7" width="9.8" height="3.7"/>
		<path class="st9" d="M436.9,191v-3.8c0-1.1,0.9-1.9,1.9-1.9h4.7c1.1,0,1.9,0.9,1.9,1.9v3.8c0,1.1-0.9,1.9-1.9,1.9h-4.7
			C437.8,192.9,436.9,192,436.9,191z"/>
		<path class="st7" d="M442.5,167.5L442.5,167.5c0,1.2-1,2.2-2.2,2.2h-2.6v-4.5h2.6C441.5,165.3,442.5,166.3,442.5,167.5z"/>
		<polygon class="st3" points="439.1,173.4 446.1,173.4 446.1,179.2 444,179.2 444,178.8 443.6,178.3 439.1,178.3 		"/>
		<rect x="439.1" y="174.9" class="st4" width="7" height="2.4"/>
		<path class="st5" d="M443.7,174.1c1,0,1.8,0.8,1.8,1.8c0,1-0.8,1.8-1.8,1.8s-1.8-0.8-1.8-1.8C441.9,174.9,442.7,174.1,443.7,174.1
			z"/>
	</g>
</g>
<g>
	<g>
		<rect x="248.6" y="9.5" class="st5" width="9.8" height="30.8"/>
		<rect x="248.6" y="36.9" class="st3" width="9.8" height="3.4"/>
		<rect x="248.6" y="26.8" class="st7" width="9.8" height="3.7"/>
		<path class="st9" d="M257.8,13.5v3.8c0,1.1-0.9,1.9-1.9,1.9h-4.7c-1.1,0-1.9-0.9-1.9-1.9v-3.8c0-1.1,0.9-1.9,1.9-1.9h4.7
			C257,11.6,257.8,12.4,257.8,13.5z"/>
		<path class="st7" d="M252.2,37L252.2,37c0-1.2,1-2.2,2.2-2.2h2.6v4.5h-2.6C253.2,39.2,252.2,38.2,252.2,37L252.2,37z"/>
		<polygon class="st3" points="255.6,31 248.6,31 248.6,25.3 250.7,25.3 250.7,25.7 251.1,26.1 255.6,26.1 		"/>
		<rect x="248.6" y="27.2" class="st4" width="7" height="2.4"/>
		<path class="st5" d="M251,30.4c-1,0-1.8-0.8-1.8-1.8s0.8-1.8,1.8-1.8s1.8,0.8,1.8,1.8S252,30.4,251,30.4z"/>
	</g>
	<g>
		<rect x="238.8" y="9.5" class="st5" width="9.8" height="30.8"/>
		<rect x="238.8" y="36.9" class="st3" width="9.8" height="3.4"/>
		<rect x="238.8" y="26.8" class="st7" width="9.8" height="3.7"/>
		<path class="st9" d="M248,13.5v3.8c0,1.1-0.9,1.9-1.9,1.9h-4.7c-1.1,0-1.9-0.9-1.9-1.9v-3.8c0-1.1,0.9-1.9,1.9-1.9h4.7
			C247.2,11.6,248,12.4,248,13.5z"/>
		<path class="st7" d="M242.4,37L242.4,37c0-1.2,1-2.2,2.2-2.2h2.6v4.5l-2.6,0C243.4,39.2,242.4,38.2,242.4,37L242.4,37z"/>
		<polygon class="st3" points="245.8,31 238.8,31 238.8,25.3 240.9,25.3 240.9,25.7 241.3,26.1 245.8,26.1 		"/>
		<rect x="238.8" y="27.2" class="st4" width="7" height="2.4"/>
		<path class="st5" d="M241.2,30.4c-1,0-1.8-0.8-1.8-1.8s0.8-1.8,1.8-1.8s1.8,0.8,1.8,1.8S242.2,30.4,241.2,30.4z"/>
	</g>
	<g>
		<rect x="229" y="9.5" class="st5" width="9.8" height="30.8"/>
		<rect x="229" y="36.9" class="st3" width="9.8" height="3.4"/>
		<rect x="229" y="26.8" class="st7" width="9.8" height="3.7"/>
		<path class="st9" d="M238.2,13.5v3.8c0,1.1-0.9,1.9-1.9,1.9h-4.7c-1.1,0-1.9-0.9-1.9-1.9v-3.8c0-1.1,0.9-1.9,1.9-1.9h4.7
			C237.4,11.6,238.2,12.4,238.2,13.5z"/>
		<path class="st7" d="M232.6,37L232.6,37c0-1.2,1-2.2,2.2-2.2h2.6v4.5h-2.6C233.6,39.2,232.6,38.2,232.6,37L232.6,37z"/>
		<polygon class="st3" points="236,31 229,31 229,25.3 231.1,25.3 231.1,25.7 231.5,26.1 236,26.1 		"/>
		<rect x="229" y="27.2" class="st4" width="7" height="2.4"/>
		<circle class="st5" cx="231.4" cy="28.6" r="1.8"/>
	</g>
	<g>
		<rect x="219.2" y="9.5" class="st5" width="9.8" height="30.8"/>
		<rect x="219.2" y="36.9" class="st3" width="9.8" height="3.4"/>
		<rect x="219.2" y="26.8" class="st7" width="9.8" height="3.7"/>
		<path class="st9" d="M228.4,13.5v3.8c0,1.1-0.9,1.9-1.9,1.9h-4.7c-1.1,0-1.9-0.9-1.9-1.9v-3.8c0-1.1,0.9-1.9,1.9-1.9h4.7
			C227.6,11.6,228.4,12.4,228.4,13.5z"/>
		<path class="st7" d="M222.8,37L222.8,37c0-1.2,1-2.2,2.2-2.2h2.6v4.5h-2.6C223.8,39.2,222.8,38.2,222.8,37L222.8,37z"/>
		<polygon class="st3" points="226.2,31 219.2,31 219.2,25.3 221.3,25.3 221.3,25.7 221.7,26.1 226.2,26.1 		"/>
		<rect x="219.2" y="27.2" class="st4" width="7" height="2.4"/>
		<path class="st5" d="M221.6,30.4c-1,0-1.8-0.8-1.8-1.8s0.8-1.8,1.8-1.8c1,0,1.8,0.8,1.8,1.8S222.6,30.4,221.6,30.4z"/>
	</g>
	<g>
		<rect x="209.4" y="9.5" class="st5" width="9.8" height="30.8"/>
		<rect x="209.4" y="36.9" class="st3" width="9.8" height="3.4"/>
		<rect x="209.4" y="26.8" class="st7" width="9.8" height="3.7"/>
		<path class="st9" d="M218.6,13.5v3.8c0,1.1-0.9,1.9-1.9,1.9H212c-1.1,0-1.9-0.9-1.9-1.9v-3.8c0-1.1,0.9-1.9,1.9-1.9h4.7
			C217.8,11.6,218.6,12.4,218.6,13.5z"/>
		<path class="st7" d="M213,37L213,37c0-1.2,1-2.2,2.2-2.2h2.6v4.5h-2.6C214,39.2,213,38.2,213,37L213,37z"/>
		<polygon class="st3" points="216.4,31 209.4,31 209.4,25.3 211.5,25.3 211.5,25.7 211.9,26.1 216.4,26.1 		"/>
		<rect x="209.4" y="27.2" class="st4" width="7" height="2.4"/>
		<path class="st5" d="M211.8,30.4c-1,0-1.8-0.8-1.8-1.8s0.8-1.8,1.8-1.8s1.8,0.8,1.8,1.8S212.8,30.4,211.8,30.4z"/>
	</g>
	<g>
		<rect x="199.6" y="9.5" class="st5" width="9.8" height="30.8"/>
		<rect x="199.6" y="36.9" class="st3" width="9.8" height="3.4"/>
		<rect x="199.6" y="26.8" class="st7" width="9.8" height="3.7"/>
		<path class="st9" d="M208.8,13.5v3.8c0,1.1-0.9,1.9-1.9,1.9h-4.7c-1.1,0-1.9-0.9-1.9-1.9v-3.8c0-1.1,0.9-1.9,1.9-1.9h4.7
			C208,11.6,208.8,12.4,208.8,13.5z"/>
		<path class="st7" d="M203.2,37L203.2,37c0-1.2,1-2.2,2.2-2.2h2.6v4.5h-2.6C204.2,39.2,203.2,38.2,203.2,37L203.2,37z"/>
		<polygon class="st3" points="206.6,31 199.6,31 199.6,25.3 201.7,25.3 201.7,25.7 202.1,26.1 206.6,26.1 		"/>
		<rect x="199.6" y="27.2" class="st4" width="7" height="2.4"/>
		<path class="st5" d="M202,30.4c-1,0-1.8-0.8-1.8-1.8s0.8-1.8,1.8-1.8s1.8,0.8,1.8,1.8S203,30.4,202,30.4z"/>
	</g>
	<g>
		<rect x="189.8" y="9.5" class="st5" width="9.8" height="30.8"/>
		<rect x="189.8" y="36.9" class="st3" width="9.8" height="3.4"/>
		<rect x="189.8" y="26.8" class="st7" width="9.8" height="3.7"/>
		<path class="st9" d="M199,13.5v3.8c0,1.1-0.9,1.9-1.9,1.9h-4.7c-1.1,0-1.9-0.9-1.9-1.9v-3.8c0-1.1,0.9-1.9,1.9-1.9h4.7
			C198.2,11.6,199,12.4,199,13.5z"/>
		<path class="st7" d="M193.4,37L193.4,37c0-1.2,1-2.2,2.2-2.2h2.6v4.5h-2.6C194.4,39.2,193.4,38.2,193.4,37L193.4,37z"/>
		<polygon class="st3" points="196.8,31 189.8,31 189.8,25.3 191.9,25.3 191.9,25.7 192.3,26.1 196.8,26.1 		"/>
		<rect x="189.8" y="27.2" class="st4" width="7" height="2.4"/>
		<path class="st5" d="M192.2,30.4c-1,0-1.8-0.8-1.8-1.8s0.8-1.8,1.8-1.8s1.8,0.8,1.8,1.8S193.2,30.4,192.2,30.4z"/>
	</g>
	<g>
		<rect x="180" y="9.5" class="st5" width="9.8" height="30.8"/>
		<rect x="180" y="36.9" class="st3" width="9.8" height="3.4"/>
		<rect x="180" y="26.8" class="st7" width="9.8" height="3.7"/>
		<path class="st9" d="M189.2,13.5v3.8c0,1.1-0.9,1.9-1.9,1.9h-4.7c-1.1,0-1.9-0.9-1.9-1.9v-3.8c0-1.1,0.9-1.9,1.9-1.9h4.7
			C188.4,11.6,189.2,12.4,189.2,13.5z"/>
		<path class="st7" d="M183.7,37L183.7,37c0-1.2,1-2.2,2.2-2.2h2.6v4.5h-2.6C184.6,39.2,183.7,38.2,183.7,37L183.7,37z"/>
		<polygon class="st3" points="187,31 180,31 180,25.3 182.1,25.3 182.1,25.7 182.5,26.1 187,26.1 		"/>
		<rect x="180" y="27.2" class="st4" width="7" height="2.4"/>
		<path class="st5" d="M182.4,30.4c-1,0-1.8-0.8-1.8-1.8s0.8-1.8,1.8-1.8s1.8,0.8,1.8,1.8S183.4,30.4,182.4,30.4z"/>
	</g>
	<g>
		<rect x="170.2" y="9.5" class="st5" width="9.8" height="30.8"/>
		<rect x="170.2" y="36.9" class="st3" width="9.8" height="3.4"/>
		<rect x="170.2" y="26.8" class="st7" width="9.8" height="3.7"/>
		<path class="st9" d="M179.4,13.5v3.8c0,1.1-0.9,1.9-1.9,1.9h-4.7c-1.1,0-1.9-0.9-1.9-1.9v-3.8c0-1.1,0.9-1.9,1.9-1.9h4.7
			C178.6,11.6,179.4,12.4,179.4,13.5z"/>
		<path class="st7" d="M173.9,37L173.9,37c0-1.2,1-2.2,2.2-2.2h2.6v4.5h-2.6C174.9,39.2,173.9,38.2,173.9,37L173.9,37z"/>
		<polygon class="st3" points="177.2,31 170.2,31 170.2,25.3 172.3,25.3 172.3,25.7 172.7,26.1 177.2,26.1 		"/>
		<rect x="170.2" y="27.2" class="st4" width="7" height="2.4"/>
		<path class="st5" d="M172.6,30.4c-1,0-1.8-0.8-1.8-1.8c0-1,0.8-1.8,1.8-1.8s1.8,0.8,1.8,1.8C174.4,29.6,173.6,30.4,172.6,30.4z"/>
	</g>
</g>
<g>
	<g>
		<rect x="346.7" y="9.5" class="st5" width="9.8" height="30.8"/>
		<rect x="346.7" y="36.9" class="st3" width="9.8" height="3.4"/>
		<rect x="346.7" y="26.8" class="st7" width="9.8" height="3.7"/>
		<path class="st9" d="M355.8,13.5v3.8c0,1.1-0.9,1.9-1.9,1.9h-4.7c-1.1,0-1.9-0.9-1.9-1.9v-3.8c0-1.1,0.9-1.9,1.9-1.9h4.7
			C355,11.6,355.8,12.4,355.8,13.5z"/>
		<path class="st7" d="M350.3,37L350.3,37c0-1.2,1-2.2,2.2-2.2h2.6v4.5h-2.6C351.3,39.2,350.3,38.2,350.3,37L350.3,37z"/>
		<polygon class="st3" points="353.7,31 346.7,31 346.7,25.3 348.7,25.3 348.7,25.7 349.1,26.1 353.7,26.1 		"/>
		<rect x="346.7" y="27.2" class="st4" width="7" height="2.4"/>
		<path class="st5" d="M349,30.4c-1,0-1.8-0.8-1.8-1.8s0.8-1.8,1.8-1.8c1,0,1.8,0.8,1.8,1.8S350.1,30.4,349,30.4z"/>
	</g>
	<g>
		<rect x="336.9" y="9.5" class="st5" width="9.8" height="30.8"/>
		<rect x="336.9" y="36.9" class="st3" width="9.8" height="3.4"/>
		<rect x="336.9" y="26.8" class="st7" width="9.8" height="3.7"/>
		<path class="st9" d="M346,13.5v3.8c0,1.1-0.9,1.9-1.9,1.9h-4.7c-1.1,0-1.9-0.9-1.9-1.9v-3.8c0-1.1,0.9-1.9,1.9-1.9h4.7
			C345.2,11.6,346,12.4,346,13.5z"/>
		<path class="st7" d="M340.5,37L340.5,37c0-1.2,1-2.2,2.2-2.2h2.6v4.5l-2.6,0C341.5,39.2,340.5,38.2,340.5,37L340.5,37z"/>
		<polygon class="st3" points="343.9,31 336.9,31 336.9,25.3 338.9,25.3 338.9,25.7 339.3,26.1 343.9,26.1 		"/>
		<rect x="336.9" y="27.2" class="st4" width="7" height="2.4"/>
		<path class="st5" d="M339.2,30.4c-1,0-1.8-0.8-1.8-1.8s0.8-1.8,1.8-1.8s1.8,0.8,1.8,1.8S340.3,30.4,339.2,30.4z"/>
	</g>
	<g>
		<rect x="327.1" y="9.5" class="st5" width="9.8" height="30.8"/>
		<rect x="327.1" y="36.9" class="st3" width="9.8" height="3.4"/>
		<rect x="327.1" y="26.8" class="st7" width="9.8" height="3.7"/>
		<path class="st9" d="M336.3,13.5v3.8c0,1.1-0.9,1.9-1.9,1.9h-4.7c-1.1,0-1.9-0.9-1.9-1.9v-3.8c0-1.1,0.9-1.9,1.9-1.9h4.7
			C335.4,11.6,336.3,12.4,336.3,13.5z"/>
		<path class="st7" d="M330.7,37L330.7,37c0-1.2,1-2.2,2.2-2.2h2.6v4.5h-2.6C331.7,39.2,330.7,38.2,330.7,37L330.7,37z"/>
		<polygon class="st3" points="334.1,31 327.1,31 327.1,25.3 329.1,25.3 329.1,25.7 329.5,26.1 334.1,26.1 		"/>
		<rect x="327.1" y="27.2" class="st4" width="7" height="2.4"/>
		<path class="st5" d="M329.5,30.4c-1,0-1.8-0.8-1.8-1.8s0.8-1.8,1.8-1.8c1,0,1.8,0.8,1.8,1.8S330.5,30.4,329.5,30.4z"/>
	</g>
	<g>
		<rect x="317.3" y="9.5" class="st5" width="9.8" height="30.8"/>
		<rect x="317.3" y="36.9" class="st3" width="9.8" height="3.4"/>
		<rect x="317.3" y="26.8" class="st7" width="9.8" height="3.7"/>
		<path class="st9" d="M326.5,13.5v3.8c0,1.1-0.9,1.9-1.9,1.9h-4.7c-1.1,0-1.9-0.9-1.9-1.9v-3.8c0-1.1,0.9-1.9,1.9-1.9h4.7
			C325.6,11.6,326.5,12.4,326.5,13.5z"/>
		<path class="st7" d="M320.9,37L320.9,37c0-1.2,1-2.2,2.2-2.2h2.6v4.5h-2.6C321.9,39.2,320.9,38.2,320.9,37L320.9,37z"/>
		<polygon class="st3" points="324.3,31 317.3,31 317.3,25.3 319.3,25.3 319.3,25.7 319.7,26.1 324.3,26.1 		"/>
		<rect x="317.3" y="27.2" class="st4" width="7" height="2.4"/>
		<path class="st5" d="M319.7,30.4c-1,0-1.8-0.8-1.8-1.8s0.8-1.8,1.8-1.8c1,0,1.8,0.8,1.8,1.8S320.7,30.4,319.7,30.4z"/>
	</g>
	<g>
		<rect x="307.5" y="9.5" class="st5" width="9.8" height="30.8"/>
		<rect x="307.5" y="36.9" class="st3" width="9.8" height="3.4"/>
		<rect x="307.5" y="26.8" class="st7" width="9.8" height="3.7"/>
		<path class="st9" d="M316.7,13.5v3.8c0,1.1-0.9,1.9-1.9,1.9H310c-1.1,0-1.9-0.9-1.9-1.9v-3.8c0-1.1,0.9-1.9,1.9-1.9h4.7
			C315.8,11.6,316.7,12.4,316.7,13.5z"/>
		<path class="st7" d="M311.1,37L311.1,37c0-1.2,1-2.2,2.2-2.2h2.6v4.5h-2.6C312.1,39.2,311.1,38.2,311.1,37L311.1,37z"/>
		<polygon class="st3" points="314.5,31 307.5,31 307.5,25.3 309.5,25.3 309.5,25.7 309.9,26.1 314.5,26.1 		"/>
		<rect x="307.5" y="27.2" class="st4" width="7" height="2.4"/>
		<path class="st5" d="M309.9,30.4c-1,0-1.8-0.8-1.8-1.8s0.8-1.8,1.8-1.8s1.8,0.8,1.8,1.8S310.9,30.4,309.9,30.4z"/>
	</g>
	<g>
		<rect x="297.7" y="9.5" class="st5" width="9.8" height="30.8"/>
		<rect x="297.7" y="36.9" class="st3" width="9.8" height="3.4"/>
		<rect x="297.7" y="26.8" class="st7" width="9.8" height="3.7"/>
		<path class="st9" d="M306.9,13.5v3.8c0,1.1-0.9,1.9-1.9,1.9h-4.7c-1.1,0-1.9-0.9-1.9-1.9v-3.8c0-1.1,0.9-1.9,1.9-1.9h4.7
			C306,11.6,306.9,12.4,306.9,13.5z"/>
		<path class="st7" d="M301.3,37L301.3,37c0-1.2,1-2.2,2.2-2.2h2.6v4.5h-2.6C302.3,39.2,301.3,38.2,301.3,37L301.3,37z"/>
		<polygon class="st3" points="304.7,31 297.7,31 297.7,25.3 299.7,25.3 299.7,25.7 300.1,26.1 304.7,26.1 		"/>
		<rect x="297.7" y="27.2" class="st4" width="7" height="2.4"/>
		<path class="st5" d="M300.1,30.4c-1,0-1.8-0.8-1.8-1.8s0.8-1.8,1.8-1.8c1,0,1.8,0.8,1.8,1.8S301.1,30.4,300.1,30.4z"/>
	</g>
	<g>
		<rect x="287.9" y="9.5" class="st5" width="9.8" height="30.8"/>
		<rect x="287.9" y="36.9" class="st3" width="9.8" height="3.4"/>
		<rect x="287.9" y="26.8" class="st7" width="9.8" height="3.7"/>
		<path class="st9" d="M297.1,13.5v3.8c0,1.1-0.9,1.9-1.9,1.9h-4.7c-1.1,0-1.9-0.9-1.9-1.9v-3.8c0-1.1,0.9-1.9,1.9-1.9h4.7
			C296.2,11.6,297.1,12.4,297.1,13.5z"/>
		<path class="st7" d="M291.5,37L291.5,37c0-1.2,1-2.2,2.2-2.2h2.6v4.5h-2.6C292.5,39.2,291.5,38.2,291.5,37L291.5,37z"/>
		<polygon class="st3" points="294.9,31 287.9,31 287.9,25.3 289.9,25.3 289.9,25.7 290.4,26.1 294.9,26.1 		"/>
		<rect x="287.9" y="27.2" class="st4" width="7" height="2.4"/>
		<path class="st5" d="M290.3,30.4c-1,0-1.8-0.8-1.8-1.8s0.8-1.8,1.8-1.8s1.8,0.8,1.8,1.8S291.3,30.4,290.3,30.4z"/>
	</g>
	<g>
		<rect x="278.1" y="9.5" class="st5" width="9.8" height="30.8"/>
		<rect x="278.1" y="36.9" class="st3" width="9.8" height="3.4"/>
		<rect x="278.1" y="26.8" class="st7" width="9.8" height="3.7"/>
		<path class="st9" d="M287.3,13.5v3.8c0,1.1-0.9,1.9-1.9,1.9h-4.7c-1.1,0-1.9-0.9-1.9-1.9v-3.8c0-1.1,0.9-1.9,1.9-1.9h4.7
			C286.4,11.6,287.3,12.4,287.3,13.5z"/>
		<path class="st7" d="M281.7,37L281.7,37c0-1.2,1-2.2,2.2-2.2h2.6v4.5h-2.6C282.7,39.2,281.7,38.2,281.7,37L281.7,37z"/>
		<polygon class="st3" points="285.1,31 278.1,31 278.1,25.3 280.1,25.3 280.1,25.7 280.6,26.1 285.1,26.1 		"/>
		<rect x="278.1" y="27.2" class="st4" width="7" height="2.4"/>
		<path class="st5" d="M280.5,30.4c-1,0-1.8-0.8-1.8-1.8s0.8-1.8,1.8-1.8c1,0,1.8,0.8,1.8,1.8S281.5,30.4,280.5,30.4z"/>
	</g>
	<g>
		<rect x="268.3" y="9.5" class="st5" width="9.8" height="30.8"/>
		<rect x="268.3" y="36.9" class="st3" width="9.8" height="3.4"/>
		<rect x="268.3" y="26.8" class="st7" width="9.8" height="3.7"/>
		<path class="st9" d="M277.5,13.5v3.8c0,1.1-0.9,1.9-1.9,1.9h-4.7c-1.1,0-1.9-0.9-1.9-1.9v-3.8c0-1.1,0.9-1.9,1.9-1.9h4.7
			C276.6,11.6,277.5,12.4,277.5,13.5z"/>
		<path class="st7" d="M271.9,37L271.9,37c0-1.2,1-2.2,2.2-2.2h2.6v4.5h-2.6C272.9,39.2,271.9,38.2,271.9,37L271.9,37z"/>
		<polygon class="st3" points="275.3,31 268.3,31 268.3,25.3 270.3,25.3 270.3,25.7 270.8,26.1 275.3,26.1 		"/>
		<rect x="268.3" y="27.2" class="st4" width="7" height="2.4"/>
		<path class="st5" d="M270.7,30.4c-1,0-1.8-0.8-1.8-1.8c0-1,0.8-1.8,1.8-1.8c1,0,1.8,0.8,1.8,1.8C272.5,29.6,271.7,30.4,270.7,30.4
			z"/>
	</g>
</g>
<g>
	<g>
		<rect x="435" y="9.5" class="st5" width="9.8" height="30.8"/>
		<rect x="435" y="36.9" class="st3" width="9.8" height="3.4"/>
		<rect x="435" y="26.8" class="st7" width="9.8" height="3.7"/>
		<path class="st9" d="M444.2,13.5v3.8c0,1.1-0.9,1.9-1.9,1.9h-4.7c-1.1,0-1.9-0.9-1.9-1.9v-3.8c0-1.1,0.9-1.9,1.9-1.9h4.7
			C443.3,11.6,444.2,12.4,444.2,13.5z"/>
		<path class="st7" d="M438.6,37L438.6,37c0-1.2,1-2.2,2.2-2.2h2.6v4.5l-2.6,0C439.6,39.2,438.6,38.2,438.6,37L438.6,37z"/>
		<polygon class="st3" points="442,31 435,31 435,25.3 437,25.3 437,25.7 437.5,26.1 442,26.1 		"/>
		<rect x="435" y="27.2" class="st4" width="7" height="2.4"/>
		<path class="st5" d="M437.4,30.4c-1,0-1.8-0.8-1.8-1.8s0.8-1.8,1.8-1.8s1.8,0.8,1.8,1.8S438.4,30.4,437.4,30.4z"/>
	</g>
	<g>
		<rect x="425.2" y="9.5" class="st5" width="9.8" height="30.8"/>
		<rect x="425.2" y="36.9" class="st3" width="9.8" height="3.4"/>
		<rect x="425.2" y="26.8" class="st7" width="9.8" height="3.7"/>
		<path class="st9" d="M434.4,13.5v3.8c0,1.1-0.9,1.9-1.9,1.9h-4.7c-1.1,0-1.9-0.9-1.9-1.9v-3.8c0-1.1,0.9-1.9,1.9-1.9h4.7
			C433.5,11.6,434.4,12.4,434.4,13.5z"/>
		<path class="st7" d="M428.8,37L428.8,37c0-1.2,1-2.2,2.2-2.2h2.6v4.5H431C429.8,39.2,428.8,38.2,428.8,37L428.8,37z"/>
		<polygon class="st3" points="432.2,31 425.2,31 425.2,25.3 427.2,25.3 427.2,25.7 427.7,26.1 432.2,26.1 		"/>
		<rect x="425.2" y="27.2" class="st4" width="7" height="2.4"/>
		<path class="st5" d="M427.6,30.4c-1,0-1.8-0.8-1.8-1.8s0.8-1.8,1.8-1.8s1.8,0.8,1.8,1.8S428.6,30.4,427.6,30.4z"/>
	</g>
	<g>
		<rect x="415.4" y="9.5" class="st5" width="9.8" height="30.8"/>
		<rect x="415.4" y="36.9" class="st3" width="9.8" height="3.4"/>
		<rect x="415.4" y="26.8" class="st7" width="9.8" height="3.7"/>
		<path class="st9" d="M424.6,13.5v3.8c0,1.1-0.9,1.9-1.9,1.9h-4.7c-1.1,0-1.9-0.9-1.9-1.9v-3.8c0-1.1,0.9-1.9,1.9-1.9h4.7
			C423.7,11.6,424.6,12.4,424.6,13.5z"/>
		<path class="st7" d="M419,37L419,37c0-1.2,1-2.2,2.2-2.2h2.6v4.5h-2.6C420,39.2,419,38.2,419,37L419,37z"/>
		<polygon class="st3" points="422.4,31 415.4,31 415.4,25.3 417.4,25.3 417.4,25.7 417.9,26.1 422.4,26.1 		"/>
		<rect x="415.4" y="27.2" class="st4" width="7" height="2.4"/>
		<path class="st5" d="M417.8,30.4c-1,0-1.8-0.8-1.8-1.8s0.8-1.8,1.8-1.8c1,0,1.8,0.8,1.8,1.8S418.8,30.4,417.8,30.4z"/>
	</g>
	<g>
		<rect x="405.6" y="9.5" class="st5" width="9.8" height="30.8"/>
		<rect x="405.6" y="36.9" class="st3" width="9.8" height="3.4"/>
		<rect x="405.6" y="26.8" class="st7" width="9.8" height="3.7"/>
		<path class="st9" d="M414.8,13.5v3.8c0,1.1-0.9,1.9-1.9,1.9h-4.7c-1.1,0-1.9-0.9-1.9-1.9v-3.8c0-1.1,0.9-1.9,1.9-1.9h4.7
			C413.9,11.6,414.8,12.4,414.8,13.5z"/>
		<path class="st7" d="M409.2,37L409.2,37c0-1.2,1-2.2,2.2-2.2h2.6v4.5h-2.6C410.2,39.2,409.2,38.2,409.2,37L409.2,37z"/>
		<polygon class="st3" points="412.6,31 405.6,31 405.6,25.3 407.6,25.3 407.6,25.7 408.1,26.1 412.6,26.1 		"/>
		<rect x="405.6" y="27.2" class="st4" width="7" height="2.4"/>
		<path class="st5" d="M408,30.4c-1,0-1.8-0.8-1.8-1.8s0.8-1.8,1.8-1.8s1.8,0.8,1.8,1.8S409,30.4,408,30.4z"/>
	</g>
	<g>
		<rect x="395.8" y="9.5" class="st5" width="9.8" height="30.8"/>
		<rect x="395.8" y="36.9" class="st3" width="9.8" height="3.4"/>
		<rect x="395.8" y="26.8" class="st7" width="9.8" height="3.7"/>
		<path class="st9" d="M405,13.5v3.8c0,1.1-0.9,1.9-1.9,1.9h-4.7c-1.1,0-1.9-0.9-1.9-1.9v-3.8c0-1.1,0.9-1.9,1.9-1.9h4.7
			C404.1,11.6,405,12.4,405,13.5z"/>
		<path class="st7" d="M399.4,37L399.4,37c0-1.2,1-2.2,2.2-2.2h2.6v4.5h-2.6C400.4,39.2,399.4,38.2,399.4,37L399.4,37z"/>
		<polygon class="st3" points="402.8,31 395.8,31 395.8,25.3 397.8,25.3 397.8,25.7 398.3,26.1 402.8,26.1 		"/>
		<rect x="395.8" y="27.2" class="st4" width="7" height="2.4"/>
		<path class="st5" d="M398.2,30.4c-1,0-1.8-0.8-1.8-1.8s0.8-1.8,1.8-1.8s1.8,0.8,1.8,1.8S399.2,30.4,398.2,30.4z"/>
	</g>
	<g>
		<rect x="386" y="9.5" class="st5" width="9.8" height="30.8"/>
		<rect x="386" y="36.9" class="st3" width="9.8" height="3.4"/>
		<rect x="386" y="26.8" class="st7" width="9.8" height="3.7"/>
		<path class="st9" d="M395.2,13.5v3.8c0,1.1-0.9,1.9-1.9,1.9h-4.7c-1.1,0-1.9-0.9-1.9-1.9v-3.8c0-1.1,0.9-1.9,1.9-1.9h4.7
			C394.3,11.6,395.2,12.4,395.2,13.5z"/>
		<path class="st7" d="M389.6,37L389.6,37c0-1.2,1-2.2,2.2-2.2h2.6v4.5h-2.6C390.6,39.2,389.6,38.2,389.6,37L389.6,37z"/>
		<polygon class="st3" points="393,31 386,31 386,25.3 388,25.3 388,25.7 388.5,26.1 393,26.1 		"/>
		<rect x="386" y="27.2" class="st4" width="7" height="2.4"/>
		<path class="st5" d="M388.4,30.4c-1,0-1.8-0.8-1.8-1.8s0.8-1.8,1.8-1.8s1.8,0.8,1.8,1.8S389.4,30.4,388.4,30.4z"/>
	</g>
	<g>
		<rect x="376.2" y="9.5" class="st5" width="9.8" height="30.8"/>
		<rect x="376.2" y="36.9" class="st3" width="9.8" height="3.4"/>
		<rect x="376.2" y="26.8" class="st7" width="9.8" height="3.7"/>
		<path class="st9" d="M385.4,13.5v3.8c0,1.1-0.9,1.9-1.9,1.9h-4.7c-1.1,0-1.9-0.9-1.9-1.9v-3.8c0-1.1,0.9-1.9,1.9-1.9h4.7
			C384.5,11.6,385.4,12.4,385.4,13.5z"/>
		<path class="st7" d="M379.8,37L379.8,37c0-1.2,1-2.2,2.2-2.2h2.6v4.5H382C380.8,39.2,379.8,38.2,379.8,37L379.8,37z"/>
		<polygon class="st3" points="383.2,31 376.2,31 376.2,25.3 378.2,25.3 378.2,25.7 378.7,26.1 383.2,26.1 		"/>
		<rect x="376.2" y="27.2" class="st4" width="7" height="2.4"/>
		<path class="st5" d="M378.6,30.4c-1,0-1.8-0.8-1.8-1.8s0.8-1.8,1.8-1.8s1.8,0.8,1.8,1.8S379.6,30.4,378.6,30.4z"/>
	</g>
	<g>
		<rect x="366.4" y="9.5" class="st5" width="9.8" height="30.8"/>
		<rect x="366.4" y="36.9" class="st3" width="9.8" height="3.4"/>
		<rect x="366.4" y="26.8" class="st7" width="9.8" height="3.7"/>
		<path class="st9" d="M375.6,13.5v3.8c0,1.1-0.9,1.9-1.9,1.9h-4.7c-1.1,0-1.9-0.9-1.9-1.9v-3.8c0-1.1,0.9-1.9,1.9-1.9h4.7
			C374.7,11.6,375.6,12.4,375.6,13.5z"/>
		<path class="st7" d="M370,37L370,37c0-1.2,1-2.2,2.2-2.2h2.6v4.5h-2.6C371,39.2,370,38.2,370,37L370,37z"/>
		<polygon class="st3" points="373.4,31 366.4,31 366.4,25.3 368.4,25.3 368.4,25.7 368.9,26.1 373.4,26.1 		"/>
		<rect x="366.4" y="27.2" class="st4" width="7" height="2.4"/>
		<path class="st5" d="M368.8,30.4c-1,0-1.8-0.8-1.8-1.8c0-1,0.8-1.8,1.8-1.8s1.8,0.8,1.8,1.8C370.6,29.6,369.8,30.4,368.8,30.4z"/>
	</g>
</g>
<g>
	<g>
		<rect x="21.7" y="122.4" class="st10" width="3.5" height="2.2"/>
		<circle class="st11" cx="23.5" cy="123.6" r="1.3"/>
	</g>
	<g>
		<rect x="21.7" y="115.3" class="st10" width="3.5" height="2.2"/>
		<circle class="st12" cx="23.5" cy="116.4" r="1.3"/>
	</g>
	<g>
		<rect x="21.7" y="108.2" class="st10" width="3.5" height="2.2"/>
		<circle class="st13" cx="23.5" cy="109.3" r="1.3"/>
	</g>
	<g>
		<rect x="21.7" y="101.1" class="st10" width="3.5" height="2.2"/>
		<circle class="st13" cx="23.5" cy="102.2" r="1.3"/>
	</g>
	<g>
		<rect x="21.7" y="94" class="st10" width="3.5" height="2.2"/>
		<circle class="st11" cx="23.5" cy="95.1" r="1.3"/>
	</g>
	<g>
		<rect x="21.7" y="86.9" class="st10" width="3.5" height="2.2"/>
		<circle class="st11" cx="23.5" cy="88" r="1.3"/>
	</g>
	<g>
		<rect x="21.7" y="79.8" class="st10" width="3.5" height="2.2"/>
		<circle class="st13" cx="23.5" cy="80.9" r="1.3"/>
	</g>
</g>
<g>
	<g>
		<rect x="18.6" y="155.6" class="st10" width="2.2" height="3.5"/>
		<circle class="st11" cx="19.7" cy="157.3" r="1.3"/>
	</g>
	<g>
		<rect x="28.4" y="155.6" class="st10" width="2.2" height="3.5"/>
		<circle class="st11" cx="29.5" cy="157.3" r="1.3"/>
	</g>
	<g>
		<rect x="38.2" y="155.6" class="st10" width="2.2" height="3.5"/>
		<circle class="st11" cx="39.3" cy="157.3" r="1.3"/>
	</g>
	<g>
		<rect x="48" y="155.6" class="st10" width="2.2" height="3.5"/>
		<circle class="st11" cx="49.1" cy="157.3" r="1.3"/>
	</g>
	<g>
		<rect x="57.8" y="155.6" class="st10" width="2.2" height="3.5"/>
		<circle class="st11" cx="58.9" cy="157.3" r="1.3"/>
	</g>
	<g>
		<rect x="67.6" y="155.6" class="st10" width="2.2" height="3.5"/>
		<circle class="st11" cx="68.7" cy="157.3" r="1.3"/>
	</g>
	<g>
		<rect x="77.4" y="155.6" class="st10" width="2.2" height="3.5"/>
		<circle class="st11" cx="78.5" cy="157.3" r="1.3"/>
	</g>
	<g>
		<rect x="87.2" y="155.6" class="st10" width="2.2" height="3.5"/>
		<circle class="st11" cx="88.3" cy="157.3" r="1.3"/>
	</g>
</g>
<g>
	<g>
		<rect x="126.4" y="155.6" class="st10" width="2.2" height="3.5"/>
		<circle class="st13" cx="127.6" cy="157.3" r="1.3"/>
	</g>
	<g>
		<rect x="136.2" y="155.6" class="st10" width="2.2" height="3.5"/>
		<circle class="st13" cx="137.4" cy="157.3" r="1.3"/>
	</g>
	<g>
		<rect x="146" y="155.6" class="st10" width="2.2" height="3.5"/>
		<circle class="st13" cx="147.2" cy="157.3" r="1.3"/>
	</g>
	<g>
		<rect x="155.8" y="155.6" class="st10" width="2.2" height="3.5"/>
		<circle class="st13" cx="157" cy="157.3" r="1.3"/>
	</g>
	<g>
		<rect x="165.6" y="155.6" class="st10" width="2.2" height="3.5"/>
		<circle class="st13" cx="166.8" cy="157.3" r="1.3"/>
	</g>
	<g>
		<rect x="175.4" y="155.6" class="st10" width="2.2" height="3.5"/>
		<circle class="st13" cx="176.5" cy="157.3" r="1.3"/>
	</g>
	<g>
		<rect x="185.2" y="155.6" class="st10" width="2.2" height="3.5"/>
		<circle class="st13" cx="186.3" cy="157.3" r="1.3"/>
	</g>
	<g>
		<rect x="195" y="155.6" class="st10" width="2.2" height="3.5"/>
		<circle class="st13" cx="196.1" cy="157.3" r="1.3"/>
	</g>
</g>
<g>
	<g>
		<rect x="234.3" y="155.6" class="st10" width="2.2" height="3.5"/>
		<circle class="st12" cx="235.4" cy="157.3" r="1.3"/>
	</g>
	<g>
		<rect x="244.1" y="155.6" class="st10" width="2.2" height="3.5"/>
		<circle class="st12" cx="245.2" cy="157.3" r="1.3"/>
	</g>
	<g>
		<rect x="253.9" y="155.6" class="st10" width="2.2" height="3.5"/>
		<circle class="st12" cx="255" cy="157.3" r="1.3"/>
	</g>
	<g>
		<rect x="263.7" y="155.6" class="st10" width="2.2" height="3.5"/>
		<circle class="st12" cx="264.8" cy="157.3" r="1.3"/>
	</g>
	<g>
		<rect x="273.5" y="155.6" class="st10" width="2.2" height="3.5"/>
		<circle class="st12" cx="274.6" cy="157.3" r="1.3"/>
	</g>
	<g>
		<rect x="283.3" y="155.6" class="st10" width="2.2" height="3.5"/>
		<circle class="st12" cx="284.4" cy="157.3" r="1.3"/>
	</g>
	<g>
		<rect x="293.1" y="155.6" class="st10" width="2.2" height="3.5"/>
		<circle class="st12" cx="294.2" cy="157.3" r="1.3"/>
	</g>
	<g>
		<rect x="302.9" y="155.6" class="st10" width="2.2" height="3.5"/>
		<circle class="st12" cx="304" cy="157.3" r="1.3"/>
	</g>
	<g>
		<rect x="312.6" y="155.6" class="st10" width="2.2" height="3.5"/>
		<circle class="st12" cx="313.8" cy="157.3" r="1.3"/>
	</g>
	<g>
		<rect x="322.4" y="155.6" class="st10" width="2.2" height="3.5"/>
		<circle class="st12" cx="323.6" cy="157.3" r="1.3"/>
	</g>
	<g>
		<rect x="332.2" y="155.6" class="st10" width="2.2" height="3.5"/>
		<circle class="st12" cx="333.4" cy="157.3" r="1.3"/>
	</g>
	<g>
		<rect x="342" y="155.6" class="st10" width="2.2" height="3.5"/>
		<circle class="st12" cx="343.2" cy="157.3" r="1.3"/>
	</g>
</g>
</svg>
