<svg xmlns="http://www.w3.org/2000/svg" xml:space="preserve" id="Carrier" x="0" y="0" viewBox="0 0 459.3 204.5"><style>.st1{fill:#b8aca0}.st2{fill:#8b7866}.st3{fill:#dadbdc}.st4{fill:#fff}.st5{fill:#8c9091}.st6{fill:#51504b}.st7{fill:#32352f}.st9{fill:#b8babb}.st10{fill:#d6dadb}.st11{fill:#1da086}.st12{fill:#d35400}.st13{fill:#c11f09}</style><path d="M0 1.4V203c0 .8.6 1.4 1.4 1.4h456.5c.8 0 1.4-.6 1.4-1.4V1.4c0-.8-.6-1.4-1.4-1.4H1.4C.6 0 0 .6 0 1.4m456.3 178.5c0 1.6-1.3 2.8-2.8 2.8-1.6 0-2.8-1.3-2.8-2.8s1.3-2.8 2.8-2.8c1.6 0 2.8 1.3 2.8 2.8m-447.7 0c0 1.6-1.3 2.8-2.8 2.8-1.6 0-2.8-1.3-2.8-2.8s1.3-2.8 2.8-2.8c1.6 0 2.8 1.3 2.8 2.8M456.3 24.5c0 1.6-1.3 2.8-2.8 2.8-1.6 0-2.8-1.3-2.8-2.8s1.3-2.8 2.8-2.8c1.6 0 2.8 1.3 2.8 2.8m-447.7 0c0 1.6-1.3 2.8-2.8 2.8C4.2 27.3 3 26 3 24.5s1.3-2.8 2.8-2.8c1.6 0 2.8 1.3 2.8 2.8" style="fill:#404642"/><path d="M428.5 95v14.4c0 1-.8 1.7-1.7 1.7h-14.4c-1 0-1.7-.8-1.7-1.7V95c0-1 .8-1.7 1.7-1.7h14.4c.9 0 1.7.8 1.7 1.7" class="st1"/><path d="M419.6 110.9c-4.8 0-8.7-3.9-8.7-8.7s3.9-8.7 8.7-8.7 8.7 3.9 8.7 8.7-4 8.7-8.7 8.7" class="st2"/><path d="M419.6 110.1c-4.3 0-7.8-3.5-7.8-7.8s3.5-7.8 7.8-7.8 7.8 3.5 7.8 7.8-3.5 7.8-7.8 7.8" class="st1"/><path d="M419.6 109.7c-4.1 0-7.5-3.4-7.5-7.5s3.4-7.5 7.5-7.5 7.5 3.4 7.5 7.5c0 4.2-3.4 7.5-7.5 7.5" class="st2"/><path d="M419.6 109.3c-3.9 0-7.1-3.2-7.1-7.1s3.2-7.1 7.1-7.1 7.1 3.2 7.1 7.1-3.2 7.1-7.1 7.1" class="st1"/><path d="M419.6 108.7c-3.5 0-6.4-2.9-6.4-6.4s2.9-6.4 6.4-6.4 6.4 2.9 6.4 6.4-2.9 6.4-6.4 6.4" class="st2"/><path d="M419.6 103.8c-.9 0-1.6-.7-1.6-1.6s.7-1.6 1.6-1.6 1.6.7 1.6 1.6-.8 1.6-1.6 1.6M349.1 98.8h1.4v1.4h-1.4zM349.1 110h1.4v1.4h-1.4z" class="st1"/><path d="M353.8 93.8h1.6v16.9h-1.6z" class="st3"/><path d="M345.1 94.7h-1.6v-1.4H341v-5.1h14.4v5.6h-1.6v-4h-11.2v1.9h2.5zM355.4 116.3H341v-5.2h2.5v-1.3h1.6v3h-2.5v1.9h11.2v-4h1.6z" class="st4"/><path d="M345.1 109.8h-1.6v-1.9h-1.4V96.6h1.4v-1.9h1.6zM340.7 96.6h1.4v11.3h-1.4z" class="st3"/><path d="M353.8 89.8h-11.2v1.9h2.5v21.1h-2.5v1.9h11.2zm-4.7 4.8v-1.4h1.4v1.4zm0 5.6v-1.4h1.4v1.4zm0 5.6v-1.4h1.4v1.4zm0 5.6V110h1.4v1.4z" class="st5"/><path d="M349.1 93.2h1.4v1.4h-1.4zM349.1 104.4h1.4v1.4h-1.4z" class="st1"/><path d="M231 101.1h1.9v2.3H231zM243.5 101.1h1.9v2.3h-1.9z" class="st5"/><path d="M231.9 98.3h12.5v7.8h-12.5z" class="st3"/><path d="M240.7 102.2v.3l-.1.3v.2l-.1.3-.2.2-.1.3-.2.2-.2.2-.2.1-.3.2-.2.1-.3.1h-1.1l-.3-.1-.2-.1-.3-.1-.2-.2-.2-.1-.2-.2-.2-.2-.1-.3-.1-.2-.1-.3-.1-.3v-.8l.1-.3.1-.2.1-.3.1-.2.2-.2.2-.2.2-.2.2-.1.3-.2.2-.1h.3l.3-.1h.5l.3.1.3.1.2.1.3.1.2.2.2.2.2.2.1.2.2.3.1.2v.3l.1.3z" class="st5"/><path d="M213.1 109.2v-14c0-.4.1-.7.4-1l2-2c.3-.3.6-.4 1-.4h2c.7 0 1.2.5 1.2 1.2v18.3c0 .7-.5 1.2-1.2 1.2h-2c-.4 0-.7-.1-1-.4l-2-2c-.2-.2-.4-.5-.4-.9" class="st4"/><path d="M220.5 93.4v17.7c0 .1-.1.3-.3.3h-1.6V93.1h1.6q.3 0 .3.3M218.6 91.3v1.8h-2.1v-1.8c0-.1.1-.3.3-.3h1.6c.1.1.2.2.2.3M218.6 111.3v1.8c0 .1-.1.3-.3.3h-1.6c-.1 0-.3-.1-.3-.3v-1.8zM214.2 94.9v14.7h-1.6c-.1 0-.3-.1-.3-.3V95.2c0-.1.1-.3.3-.3z" class="st3"/><path d="M214 95.2c0-.1.1-.3.2-.4l2-2c.1-.1.2-.2.4-.2h2c.2 0 .4.2.4.4v18.3c0 .2-.2.4-.4.4h-2c-.1 0-.3-.1-.4-.2l-2-2c-.1-.1-.2-.2-.2-.4z" class="st5"/><path d="M218.2 99.7h.7v5.1h-.7zM216.5 97.5h1.7v9.5h-1.7z" class="st6"/><path d="M216.5 105.3h.8v1.1h-.8zM216.5 103.5h.8v1.1h-.8zM216.5 101.7h.8v1.1h-.8zM216.5 99.8h.8v1.1h-.8zM216.5 98h.8v1.1h-.8z" class="st1"/><path d="M207 71.1h3.3c.3 0 .5.2.5.5s-.2.5-.5.5H207c-.3 0-.5-.2-.5-.5s.2-.5.5-.5M207 67.6h3.3c.3 0 .5.2.5.5s-.2.5-.5.5H207c-.3 0-.5-.2-.5-.5s.2-.5.5-.5M207 64h3.3c.3 0 .5.2.5.5s-.2.5-.5.5H207c-.3 0-.5-.2-.5-.5 0-.2.2-.5.5-.5M207 60.5h3.3c.3 0 .5.2.5.5s-.2.5-.5.5H207c-.3 0-.5-.2-.5-.5 0-.2.2-.5.5-.5M222.6 61.5h-3.3c-.3 0-.5-.2-.5-.5s.2-.5.5-.5h3.3c.3 0 .5.2.5.5s-.2.5-.5.5M222.6 65.1h-3.3c-.3 0-.5-.2-.5-.5s.2-.5.5-.5h3.3c.3 0 .5.2.5.5 0 .2-.2.5-.5.5M222.6 68.6h-3.3c-.3 0-.5-.2-.5-.5s.2-.5.5-.5h3.3c.3 0 .5.2.5.5 0 .2-.2.5-.5.5M222.6 72.1h-3.3c-.3 0-.5-.2-.5-.5s.2-.5.5-.5h3.3c.3 0 .5.2.5.5s-.2.5-.5.5" class="st5"/><path d="M209.3 59.5h10.9v13.6h-10.9z" class="st7"/><circle cx="218.5" cy="71.3" r=".6" style="fill:#7e8b8c"/><path d="M173 100.9v2.7c0 .7-.6 1.3-1.3 1.3H166c-.7 0-1.3-.6-1.3-1.3v-2.7c0-.7.6-1.3 1.3-1.3h5.7c.7 0 1.3.5 1.3 1.3M164.7 83.1h8.3v1.4h-8.3zM164.7 90.3h8.3v1.4h-8.3zM164.7 112.8h8.3v1.4h-8.3zM164.7 119.9h8.3v1.4h-8.3zM118.4 84.5h8.3v1.4h-8.3zM118.4 88.3h8.3v1.4h-8.3zM118.4 92.1h8.3v1.4h-8.3zM118.4 95.8h8.3v1.4h-8.3zM118.4 99.6h8.3v1.4h-8.3zM118.4 103.4h8.3v1.4h-8.3zM118.4 107.2h8.3v1.4h-8.3zM118.4 111h8.3v1.4h-8.3zM118.4 114.8h8.3v1.4h-8.3zM118.4 118.6h8.3v1.4h-8.3z" class="st5"/><path d="M168.8 80.9v42.7c0 .8-.6 1.4-1.4 1.4H124c-.8 0-1.4-.6-1.4-1.4V80.9c0-.8.6-1.4 1.4-1.4h43.5c.7 0 1.3.6 1.3 1.4" class="st3"/><path d="M161.1 83.8h5.6v8h-5.6zM161.1 112.7h5.6v8h-5.6z" class="st4"/><path d="M157.8 118.9h-19.2V85.6h19.2v7.8h4.7v3.1h4.2v11.4h-4.2v3.2h-4.7z" class="st5"/><path d="M145.1 115.7h5.6v3.2h-5.6zM145.1 85.6h5.6v3.2h-5.6z" class="st6"/><path d="M138.6 91.5h7.7V93h-7.7zM138.6 94.3h7.7v1.5h-7.7zM138.6 97.2h7.7v1.5h-7.7zM138.6 100h7.7v1.5h-7.7zM138.6 102.9h7.7v1.5h-7.7zM138.6 105.7h7.7v1.5h-7.7zM138.6 108.6h7.7v1.5h-7.7zM138.6 111.5h7.7v1.5h-7.7z" class="st1"/><path d="M91.2 84.9v34.8c0 .6-.5 1-1 1h-14c-.6 0-1-.5-1-1V84.9c0-.6.5-1 1-1h14c.5-.1 1 .4 1 1" class="st4"/><path d="M92.9 87.3v29.8c0 .4-.3.7-.7.7H90V86.7h2.2c.4 0 .7.3.7.6M76.1 86.7v31.1h-2c-.4 0-.7-.3-.7-.7V87.3c0-.4.3-.7.7-.7h2zM88.7 119.6v2.3c0 .4-.3.7-.7.7h-9.6c-.4 0-.7-.3-.7-.7v-2.3zM88.7 82.6v2.6h-11v-2.6c0-.4.3-.7.7-.7H88c.4 0 .7.3.7.7" class="st3"/><path d="M89.6 119.8H76.7c-.4 0-.7-.3-.7-.7V85.4c0-.4.3-.7.7-.7h12.9c.4 0 .7.3.7.7v33.7c0 .4-.3.7-.7.7" class="st5"/><path d="M79 90.7h5.7v3.4H79zM79 97.3h5.7v3.4H79zM79 103.8h5.7v3.4H79zM79 110.4h5.7v3.4H79z" class="st1"/><path d="M88.8 88v28.5c0 .4-.3.8-.8.8h-3.8c-.4 0-.8-.3-.8-.8V88c0-.4.3-.8.8-.8H88c.4 0 .8.4.8.8" class="st6"/><path d="M14.8 164.1h9.8v30.8h-9.8z" class="st5"/><path d="M14.8 164.1h9.8v3.4h-9.8z" class="st3"/><path d="M14.8 174h9.8v3.7h-9.8z" class="st7"/><path d="M15.4 191v-3.8c0-1.1.9-1.9 1.9-1.9H22c1.1 0 1.9.9 1.9 1.9v3.8c0 1.1-.9 1.9-1.9 1.9h-4.7c-1 0-1.9-.9-1.9-1.9" class="st9"/><path d="M21 167.5c0 1.2-1 2.2-2.2 2.2h-2.6v-4.5h2.6c1.2.1 2.2 1.1 2.2 2.3" class="st7"/><path d="M17.6 173.4h7v5.8h-2v-.4l-.5-.5h-4.5z" class="st3"/><path d="M17.6 174.9h7v2.4h-7z" class="st4"/><path d="M22.2 174.1c1 0 1.8.8 1.8 1.8s-.8 1.8-1.8 1.8-1.8-.8-1.8-1.8.8-1.8 1.8-1.8M24.6 164.1h9.8v30.8h-9.8z" class="st5"/><path d="M24.6 164.1h9.8v3.4h-9.8z" class="st3"/><path d="M24.6 174h9.8v3.7h-9.8z" class="st7"/><path d="M25.2 191v-3.8c0-1.1.9-1.9 1.9-1.9h4.7c1.1 0 1.9.9 1.9 1.9v3.8c0 1.1-.9 1.9-1.9 1.9h-4.7c-1 0-1.9-.9-1.9-1.9" class="st9"/><path d="M30.8 167.5c0 1.2-1 2.2-2.2 2.2H26v-4.5h2.6c1.2.1 2.2 1.1 2.2 2.3" class="st7"/><path d="M27.4 173.4h7v5.8h-2v-.4l-.5-.5h-4.5z" class="st3"/><path d="M27.4 174.9h7v2.4h-7z" class="st4"/><path d="M32 174.1c1 0 1.8.8 1.8 1.8s-.8 1.8-1.8 1.8-1.8-.8-1.8-1.8.8-1.8 1.8-1.8M34.4 164.1h9.8v30.8h-9.8z" class="st5"/><path d="M34.4 164.1h9.8v3.4h-9.8z" class="st3"/><path d="M34.4 174h9.8v3.7h-9.8z" class="st7"/><path d="M35 191v-3.8c0-1.1.9-1.9 1.9-1.9h4.7c1.1 0 1.9.9 1.9 1.9v3.8c0 1.1-.9 1.9-1.9 1.9h-4.7c-1 0-1.9-.9-1.9-1.9" class="st9"/><path d="M40.6 167.5c0 1.2-1 2.2-2.2 2.2h-2.6v-4.5h2.6c1.2.1 2.2 1.1 2.2 2.3" class="st7"/><path d="M37.2 173.4h7v5.8h-2v-.4l-.5-.5h-4.5z" class="st3"/><path d="M37.2 174.9h7v2.4h-7z" class="st4"/><path d="M41.8 174.1c1 0 1.8.8 1.8 1.8s-.8 1.8-1.8 1.8-1.8-.8-1.8-1.8.8-1.8 1.8-1.8M44.2 164.1H54v30.8h-9.8z" class="st5"/><path d="M44.2 164.1H54v3.4h-9.8z" class="st3"/><path d="M44.2 174H54v3.7h-9.8z" class="st7"/><path d="M44.8 191v-3.8c0-1.1.9-1.9 1.9-1.9h4.7c1.1 0 1.9.9 1.9 1.9v3.8c0 1.1-.9 1.9-1.9 1.9h-4.7c-1 0-1.9-.9-1.9-1.9" class="st9"/><path d="M50.4 167.5c0 1.2-1 2.2-2.2 2.2h-2.6v-4.5h2.6c1.2.1 2.2 1.1 2.2 2.3" class="st7"/><path d="M47 173.4h7v5.8h-2v-.4l-.5-.5H47z" class="st3"/><path d="M47 174.9h7v2.4h-7z" class="st4"/><path d="M51.6 174.1c1 0 1.8.8 1.8 1.8s-.8 1.8-1.8 1.8-1.8-.8-1.8-1.8.8-1.8 1.8-1.8M54 164.1h9.8v30.8H54z" class="st5"/><path d="M54 164.1h9.8v3.4H54z" class="st3"/><path d="M54 174h9.8v3.7H54z" class="st7"/><path d="M54.6 191v-3.8c0-1.1.9-1.9 1.9-1.9h4.7c1.1 0 1.9.9 1.9 1.9v3.8c0 1.1-.9 1.9-1.9 1.9h-4.7c-1 0-1.9-.9-1.9-1.9" class="st9"/><path d="M60.2 167.5c0 1.2-1 2.2-2.2 2.2h-2.6v-4.5H58c1.2.1 2.2 1.1 2.2 2.3" class="st7"/><path d="M56.8 173.4h7v5.8h-2v-.4l-.5-.5h-4.5z" class="st3"/><path d="M56.8 174.9h7v2.4h-7z" class="st4"/><path d="M61.4 174.1c1 0 1.8.8 1.8 1.8s-.8 1.8-1.8 1.8-1.8-.8-1.8-1.8.8-1.8 1.8-1.8M63.8 164.1h9.8v30.8h-9.8z" class="st5"/><path d="M63.8 164.1h9.8v3.4h-9.8z" class="st3"/><path d="M63.8 174h9.8v3.7h-9.8z" class="st7"/><path d="M64.4 191v-3.8c0-1.1.9-1.9 1.9-1.9H71c1.1 0 1.9.9 1.9 1.9v3.8c0 1.1-.9 1.9-1.9 1.9h-4.7c-1 0-1.9-.9-1.9-1.9" class="st9"/><path d="M70 167.5c0 1.2-1 2.2-2.2 2.2h-2.6v-4.5h2.6c1.2.1 2.2 1.1 2.2 2.3" class="st7"/><path d="M66.6 173.4h7v5.8h-2v-.4l-.5-.5h-4.5z" class="st3"/><path d="M66.6 174.9h7v2.4h-7z" class="st4"/><path d="M71.2 174.1c1 0 1.8.8 1.8 1.8s-.8 1.8-1.8 1.8-1.8-.8-1.8-1.8.8-1.8 1.8-1.8M73.6 164.1h9.8v30.8h-9.8z" class="st5"/><path d="M73.6 164.1h9.8v3.4h-9.8z" class="st3"/><path d="M73.6 174h9.8v3.7h-9.8z" class="st7"/><path d="M74.2 191v-3.8c0-1.1.9-1.9 1.9-1.9h4.7c1.1 0 1.9.9 1.9 1.9v3.8c0 1.1-.9 1.9-1.9 1.9h-4.7c-1 0-1.9-.9-1.9-1.9" class="st9"/><path d="M79.8 167.5c0 1.2-1 2.2-2.2 2.2H75v-4.5h2.6c1.2.1 2.2 1.1 2.2 2.3" class="st7"/><path d="M76.4 173.4h7v5.8h-2v-.4l-.5-.5h-4.5z" class="st3"/><path d="M76.4 174.9h7v2.4h-7z" class="st4"/><path d="M81 174.1c1 0 1.8.8 1.8 1.8s-.8 1.8-1.8 1.8-1.8-.8-1.8-1.8.8-1.8 1.8-1.8M83.4 164.1h9.8v30.8h-9.8z" class="st5"/><path d="M83.4 164.1h9.8v3.4h-9.8z" class="st3"/><path d="M83.4 174h9.8v3.7h-9.8z" class="st7"/><path d="M84 191v-3.8c0-1.1.9-1.9 1.9-1.9h4.7c1.1 0 1.9.9 1.9 1.9v3.8c0 1.1-.9 1.9-1.9 1.9h-4.7c-1 0-1.9-.9-1.9-1.9" class="st9"/><path d="M89.6 167.5c0 1.2-1 2.2-2.2 2.2h-2.6v-4.5h2.6c1.2.1 2.2 1.1 2.2 2.3" class="st7"/><path d="M86.2 173.4h7v5.8h-2.1v-.4l-.4-.5h-4.5z" class="st3"/><path d="M86.2 174.9h7v2.4h-7z" class="st4"/><path d="M90.8 174.1c1 0 1.8.8 1.8 1.8s-.8 1.8-1.8 1.8-1.8-.8-1.8-1.8.8-1.8 1.8-1.8M93.2 164.1h9.8v30.8h-9.8z" class="st5"/><path d="M93.2 164.1h9.8v3.4h-9.8z" class="st3"/><path d="M93.2 174h9.8v3.7h-9.8z" class="st7"/><path d="M93.8 191v-3.8c0-1.1.9-1.9 1.9-1.9h4.7c1.1 0 1.9.9 1.9 1.9v3.8c0 1.1-.9 1.9-1.9 1.9h-4.7c-1 0-1.9-.9-1.9-1.9" class="st9"/><path d="M99.4 167.5c0 1.2-1 2.2-2.2 2.2h-2.6v-4.5h2.6c1.2.1 2.2 1.1 2.2 2.3" class="st7"/><path d="M96 173.4h7v5.8h-2.1v-.4l-.4-.5H96z" class="st3"/><path d="M96 174.9h7v2.4h-7z" class="st4"/><path d="M100.6 174.1c1 0 1.8.8 1.8 1.8s-.8 1.8-1.8 1.8-1.8-.8-1.8-1.8.8-1.8 1.8-1.8M112.9 164.1h9.8v30.8h-9.8z" class="st5"/><path d="M112.9 164.1h9.8v3.4h-9.8z" class="st3"/><path d="M112.9 174h9.8v3.7h-9.8z" class="st7"/><path d="M113.5 191v-3.8c0-1.1.9-1.9 1.9-1.9h4.7c1.1 0 1.9.9 1.9 1.9v3.8c0 1.1-.9 1.9-1.9 1.9h-4.7c-1.1 0-1.9-.9-1.9-1.9" class="st9"/><path d="M119 167.5c0 1.2-1 2.2-2.2 2.2h-2.6v-4.5h2.6c1.3.1 2.2 1.1 2.2 2.3" class="st7"/><path d="M115.7 173.4h7v5.8h-2.1v-.4l-.4-.5h-4.5z" class="st3"/><path d="M115.7 174.9h7v2.4h-7z" class="st4"/><path d="M120.3 174.1c1 0 1.8.8 1.8 1.8s-.8 1.8-1.8 1.8-1.8-.8-1.8-1.8.8-1.8 1.8-1.8M122.7 164.1h9.8v30.8h-9.8z" class="st5"/><path d="M122.7 164.1h9.8v3.4h-9.8z" class="st3"/><path d="M122.7 174h9.8v3.7h-9.8z" class="st7"/><path d="M123.3 191v-3.8c0-1.1.9-1.9 1.9-1.9h4.7c1.1 0 1.9.9 1.9 1.9v3.8c0 1.1-.9 1.9-1.9 1.9h-4.7c-1.1 0-1.9-.9-1.9-1.9" class="st9"/><path d="M128.8 167.5c0 1.2-1 2.2-2.2 2.2H124v-4.5h2.6c1.2.1 2.2 1.1 2.2 2.3" class="st7"/><path d="M125.5 173.4h7v5.8h-2.1v-.4l-.4-.5h-4.5z" class="st3"/><path d="M125.5 174.9h7v2.4h-7z" class="st4"/><path d="M130.1 174.1c1 0 1.8.8 1.8 1.8s-.8 1.8-1.8 1.8-1.8-.8-1.8-1.8.8-1.8 1.8-1.8M132.5 164.1h9.8v30.8h-9.8z" class="st5"/><path d="M132.5 164.1h9.8v3.4h-9.8z" class="st3"/><path d="M132.5 174h9.8v3.7h-9.8z" class="st7"/><path d="M133.1 191v-3.8c0-1.1.9-1.9 1.9-1.9h4.7c1.1 0 1.9.9 1.9 1.9v3.8c0 1.1-.9 1.9-1.9 1.9H135c-1.1 0-1.9-.9-1.9-1.9" class="st9"/><path d="M138.6 167.5c0 1.2-1 2.2-2.2 2.2h-2.6v-4.5h2.6c1.2.1 2.2 1.1 2.2 2.3" class="st7"/><path d="M135.3 173.4h7v5.8h-2.1v-.4l-.4-.5h-4.5z" class="st3"/><path d="M135.3 174.9h7v2.4h-7z" class="st4"/><path d="M139.9 174.1c1 0 1.8.8 1.8 1.8s-.8 1.8-1.8 1.8-1.8-.8-1.8-1.8.8-1.8 1.8-1.8M142.3 164.1h9.8v30.8h-9.8z" class="st5"/><path d="M142.3 164.1h9.8v3.4h-9.8z" class="st3"/><path d="M142.3 174h9.8v3.7h-9.8z" class="st7"/><path d="M142.9 191v-3.8c0-1.1.9-1.9 1.9-1.9h4.7c1.1 0 1.9.9 1.9 1.9v3.8c0 1.1-.9 1.9-1.9 1.9h-4.7c-1.1 0-1.9-.9-1.9-1.9" class="st9"/><path d="M148.4 167.5c0 1.2-1 2.2-2.2 2.2h-2.6v-4.5h2.6c1.2.1 2.2 1.1 2.2 2.3" class="st7"/><path d="M145.1 173.4h7v5.8H150v-.4l-.4-.5h-4.5z" class="st3"/><path d="M145.1 174.9h7v2.4h-7z" class="st4"/><path d="M149.7 174.1c1 0 1.8.8 1.8 1.8s-.8 1.8-1.8 1.8-1.8-.8-1.8-1.8.8-1.8 1.8-1.8M152.1 164.1h9.8v30.8h-9.8z" class="st5"/><path d="M152.1 164.1h9.8v3.4h-9.8z" class="st3"/><path d="M152.1 174h9.8v3.7h-9.8z" class="st7"/><path d="M152.7 191v-3.8c0-1.1.9-1.9 1.9-1.9h4.7c1.1 0 1.9.9 1.9 1.9v3.8c0 1.1-.9 1.9-1.9 1.9h-4.7c-1.1 0-1.9-.9-1.9-1.9" class="st9"/><path d="M158.2 167.5c0 1.2-1 2.2-2.2 2.2h-2.6v-4.5h2.6c1.2.1 2.2 1.1 2.2 2.3" class="st7"/><path d="M154.9 173.4h7v5.8h-2.1v-.4l-.4-.5h-4.5z" class="st3"/><path d="M154.9 174.9h7v2.4h-7z" class="st4"/><path d="M159.5 174.1c1 0 1.8.8 1.8 1.8s-.8 1.8-1.8 1.8-1.8-.8-1.8-1.8.8-1.8 1.8-1.8M161.9 164.1h9.8v30.8h-9.8z" class="st5"/><path d="M161.9 164.1h9.8v3.4h-9.8z" class="st3"/><path d="M161.9 174h9.8v3.7h-9.8z" class="st7"/><path d="M162.5 191v-3.8c0-1.1.9-1.9 1.9-1.9h4.7c1.1 0 1.9.9 1.9 1.9v3.8c0 1.1-.9 1.9-1.9 1.9h-4.7c-1.1 0-1.9-.9-1.9-1.9" class="st9"/><path d="M168 167.5c0 1.2-1 2.2-2.2 2.2h-2.6v-4.5h2.6c1.2.1 2.2 1.1 2.2 2.3" class="st7"/><path d="M164.7 173.4h6.9v5.8h-2v-.4l-.4-.5h-4.5z" class="st3"/><path d="M164.7 174.9h7v2.4h-7z" class="st4"/><path d="M169.3 174.1c1 0 1.8.8 1.8 1.8s-.8 1.8-1.8 1.8-1.8-.8-1.8-1.8.8-1.8 1.8-1.8M171.6 164.1h9.8v30.8h-9.8z" class="st5"/><path d="M171.6 164.1h9.8v3.4h-9.8z" class="st3"/><path d="M171.6 174h9.8v3.7h-9.8z" class="st7"/><path d="M172.3 191v-3.8c0-1.1.9-1.9 1.9-1.9h4.7c1.1 0 1.9.9 1.9 1.9v3.8c0 1.1-.9 1.9-1.9 1.9h-4.7c-1.1 0-1.9-.9-1.9-1.9" class="st9"/><path d="M177.8 167.5c0 1.2-1 2.2-2.2 2.2H173v-4.5h2.6c1.2.1 2.2 1.1 2.2 2.3" class="st7"/><path d="M174.5 173.4h6.9v5.8h-2v-.4l-.4-.5h-4.5z" class="st3"/><path d="M174.5 174.9h7v2.4h-7z" class="st4"/><path d="M179.1 174.1c1 0 1.8.8 1.8 1.8s-.8 1.8-1.8 1.8-1.8-.8-1.8-1.8.8-1.8 1.8-1.8M181.4 164.1h9.8v30.8h-9.8z" class="st5"/><path d="M181.4 164.1h9.8v3.4h-9.8z" class="st3"/><path d="M181.4 174h9.8v3.7h-9.8z" class="st7"/><path d="M182.1 191v-3.8c0-1.1.9-1.9 1.9-1.9h4.7c1.1 0 1.9.9 1.9 1.9v3.8c0 1.1-.9 1.9-1.9 1.9H184c-1.1 0-1.9-.9-1.9-1.9" class="st9"/><path d="M187.6 167.5c0 1.2-1 2.2-2.2 2.2h-2.6v-4.5h2.6c1.2.1 2.2 1.1 2.2 2.3" class="st7"/><path d="M184.2 173.4h7v5.8h-2v-.4l-.4-.5h-4.6z" class="st3"/><path d="M184.2 174.9h7v2.4h-7z" class="st4"/><path d="M188.9 174.1c1 0 1.8.8 1.8 1.8s-.8 1.8-1.8 1.8-1.8-.8-1.8-1.8c-.1-1 .8-1.8 1.8-1.8M191.2 164.1h9.8v30.8h-9.8z" class="st5"/><path d="M191.2 164.1h9.8v3.4h-9.8z" class="st3"/><path d="M191.2 174h9.8v3.7h-9.8z" class="st7"/><path d="M191.9 191v-3.8c0-1.1.9-1.9 1.9-1.9h4.7c1.1 0 1.9.9 1.9 1.9v3.8c0 1.1-.9 1.9-1.9 1.9h-4.7c-1.1 0-1.9-.9-1.9-1.9" class="st9"/><path d="M197.4 167.5c0 1.2-1 2.2-2.2 2.2h-2.6v-4.5h2.6c1.2.1 2.2 1.1 2.2 2.3" class="st7"/><path d="M194 173.4h7v5.8h-2v-.4l-.4-.5H194z" class="st3"/><path d="M194 174.9h7v2.4h-7z" class="st4"/><path d="M198.7 174.1c1 0 1.8.8 1.8 1.8s-.8 1.8-1.8 1.8-1.8-.8-1.8-1.8c-.1-1 .8-1.8 1.8-1.8M201 164.1h9.8v30.8H201z" class="st5"/><path d="M201 164.1h9.8v3.4H201z" class="st3"/><path d="M201 174h9.8v3.7H201z" class="st7"/><path d="M201.7 191v-3.8c0-1.1.9-1.9 1.9-1.9h4.7c1.1 0 1.9.9 1.9 1.9v3.8c0 1.1-.9 1.9-1.9 1.9h-4.7c-1.1 0-1.9-.9-1.9-1.9" class="st9"/><path d="M207.2 167.5c0 1.2-1 2.2-2.2 2.2h-2.6v-4.5h2.6c1.2.1 2.2 1.1 2.2 2.3" class="st7"/><path d="M203.8 173.4h7v5.8h-2v-.4l-.4-.5h-4.6z" class="st3"/><path d="M203.8 174.9h7v2.4h-7z" class="st4"/><path d="M208.5 174.1c1 0 1.8.8 1.8 1.8s-.8 1.8-1.8 1.8-1.8-.8-1.8-1.8c-.1-1 .8-1.8 1.8-1.8M220.7 164.1h9.8v30.8h-9.8z" class="st5"/><path d="M220.7 164.1h9.8v3.4h-9.8z" class="st3"/><path d="M220.7 174h9.8v3.7h-9.8z" class="st7"/><path d="M221.3 191v-3.8c0-1.1.9-1.9 1.9-1.9h4.7c1.1 0 1.9.9 1.9 1.9v3.8c0 1.1-.9 1.9-1.9 1.9h-4.7c-1 0-1.9-.9-1.9-1.9" class="st9"/><path d="M226.9 167.5c0 1.2-1 2.2-2.2 2.2h-2.6v-4.5h2.6c1.2.1 2.2 1.1 2.2 2.3" class="st7"/><path d="M223.5 173.4h7v5.8h-2.1v-.4l-.4-.5h-4.5z" class="st3"/><path d="M223.5 174.9h7v2.4h-7z" class="st4"/><path d="M228.1 174.1c1 0 1.8.8 1.8 1.8s-.8 1.8-1.8 1.8-1.8-.8-1.8-1.8.8-1.8 1.8-1.8M230.5 164.1h9.8v30.8h-9.8z" class="st5"/><path d="M230.5 164.1h9.8v3.4h-9.8z" class="st3"/><path d="M230.5 174h9.8v3.7h-9.8z" class="st7"/><path d="M231.1 191v-3.8c0-1.1.9-1.9 1.9-1.9h4.7c1.1 0 1.9.9 1.9 1.9v3.8c0 1.1-.9 1.9-1.9 1.9H233c-1 0-1.9-.9-1.9-1.9" class="st9"/><path d="M236.7 167.5c0 1.2-1 2.2-2.2 2.2h-2.6v-4.5h2.6c1.2.1 2.2 1.1 2.2 2.3" class="st7"/><path d="M233.3 173.4h7v5.8h-2.1v-.4l-.4-.5h-4.5z" class="st3"/><path d="M233.3 174.9h7v2.4h-7z" class="st4"/><path d="M237.9 174.1c1 0 1.8.8 1.8 1.8s-.8 1.8-1.8 1.8-1.8-.8-1.8-1.8.8-1.8 1.8-1.8M240.3 164.1h9.8v30.8h-9.8z" class="st5"/><path d="M240.3 164.1h9.8v3.4h-9.8z" class="st3"/><path d="M240.3 174h9.8v3.7h-9.8z" class="st7"/><path d="M240.9 191v-3.8c0-1.1.9-1.9 1.9-1.9h4.7c1.1 0 1.9.9 1.9 1.9v3.8c0 1.1-.9 1.9-1.9 1.9h-4.7c-1 0-1.9-.9-1.9-1.9" class="st9"/><path d="M246.5 167.5c0 1.2-1 2.2-2.2 2.2h-2.6v-4.5h2.6c1.2.1 2.2 1.1 2.2 2.3" class="st7"/><path d="M243.1 173.4h7v5.8H248v-.4l-.4-.5h-4.5z" class="st3"/><path d="M243.1 174.9h7v2.4h-7z" class="st4"/><path d="M247.7 174.1c1 0 1.8.8 1.8 1.8s-.8 1.8-1.8 1.8-1.8-.8-1.8-1.8.8-1.8 1.8-1.8M250.1 164.1h9.8v30.8h-9.8z" class="st5"/><path d="M250.1 164.1h9.8v3.4h-9.8z" class="st3"/><path d="M250.1 174h9.8v3.7h-9.8z" class="st7"/><path d="M250.7 191v-3.8c0-1.1.9-1.9 1.9-1.9h4.7c1.1 0 1.9.9 1.9 1.9v3.8c0 1.1-.9 1.9-1.9 1.9h-4.7c-1.1 0-1.9-.9-1.9-1.9" class="st9"/><path d="M256.3 167.5c0 1.2-1 2.2-2.2 2.2h-2.6v-4.5h2.6c1.2.1 2.2 1.1 2.2 2.3" class="st7"/><path d="M252.9 173.4h7v5.8h-2.1v-.4l-.4-.5h-4.5z" class="st3"/><path d="M252.9 174.9h7v2.4h-7z" class="st4"/><path d="M257.5 174.1c1 0 1.8.8 1.8 1.8s-.8 1.8-1.8 1.8-1.8-.8-1.8-1.8.8-1.8 1.8-1.8M259.9 164.1h9.8v30.8h-9.8z" class="st5"/><path d="M259.9 164.1h9.8v3.4h-9.8z" class="st3"/><path d="M259.9 174h9.8v3.7h-9.8z" class="st7"/><path d="M260.5 191v-3.8c0-1.1.9-1.9 1.9-1.9h4.7c1.1 0 1.9.9 1.9 1.9v3.8c0 1.1-.9 1.9-1.9 1.9h-4.7c-1.1 0-1.9-.9-1.9-1.9" class="st9"/><path d="M266.1 167.5c0 1.2-1 2.2-2.2 2.2h-2.6v-4.5h2.6c1.2.1 2.2 1.1 2.2 2.3" class="st7"/><path d="M262.7 173.4h7v5.8h-2.1v-.4l-.4-.5h-4.5z" class="st3"/><path d="M262.7 174.9h7v2.4h-7z" class="st4"/><path d="M267.3 174.1c1 0 1.8.8 1.8 1.8s-.8 1.8-1.8 1.8-1.8-.8-1.8-1.8.8-1.8 1.8-1.8M269.7 164.1h9.8v30.8h-9.8z" class="st5"/><path d="M269.7 164.1h9.8v3.4h-9.8z" class="st3"/><path d="M269.7 174h9.8v3.7h-9.8z" class="st7"/><path d="M270.3 191v-3.8c0-1.1.9-1.9 1.9-1.9h4.7c1.1 0 1.9.9 1.9 1.9v3.8c0 1.1-.9 1.9-1.9 1.9h-4.7c-1.1 0-1.9-.9-1.9-1.9" class="st9"/><path d="M275.9 167.5c0 1.2-1 2.2-2.2 2.2h-2.6v-4.5h2.6c1.2.1 2.2 1.1 2.2 2.3" class="st7"/><path d="M272.5 173.4h7v5.8h-2.1v-.4l-.4-.5h-4.5z" class="st3"/><path d="M272.5 174.9h7v2.4h-7z" class="st4"/><path d="M277.1 174.1c1 0 1.8.8 1.8 1.8s-.8 1.8-1.8 1.8-1.8-.8-1.8-1.8.8-1.8 1.8-1.8M279.5 164.1h9.8v30.8h-9.8z" class="st5"/><path d="M279.5 164.1h9.8v3.4h-9.8z" class="st3"/><path d="M279.5 174h9.8v3.7h-9.8z" class="st7"/><path d="M280.1 191v-3.8c0-1.1.9-1.9 1.9-1.9h4.7c1.1 0 1.9.9 1.9 1.9v3.8c0 1.1-.9 1.9-1.9 1.9H282c-1.1 0-1.9-.9-1.9-1.9" class="st9"/><path d="M285.7 167.5c0 1.2-1 2.2-2.2 2.2h-2.6v-4.5h2.6c1.2.1 2.2 1.1 2.2 2.3" class="st7"/><path d="M282.3 173.4h7v5.8h-2.1v-.4l-.4-.5h-4.5z" class="st3"/><path d="M282.3 174.9h7v2.4h-7z" class="st4"/><path d="M286.9 174.1c1 0 1.8.8 1.8 1.8s-.8 1.8-1.8 1.8-1.8-.8-1.8-1.8.8-1.8 1.8-1.8M289.3 164.1h9.8v30.8h-9.8z" class="st5"/><path d="M289.3 164.1h9.8v3.4h-9.8z" class="st3"/><path d="M289.3 174h9.8v3.7h-9.8z" class="st7"/><path d="M289.9 191v-3.8c0-1.1.9-1.9 1.9-1.9h4.7c1.1 0 1.9.9 1.9 1.9v3.8c0 1.1-.9 1.9-1.9 1.9h-4.7c-1.1 0-1.9-.9-1.9-1.9" class="st9"/><path d="M295.5 167.5c0 1.2-1 2.2-2.2 2.2h-2.6v-4.5h2.6c1.2.1 2.2 1.1 2.2 2.3" class="st7"/><path d="M292.1 173.4h7v5.8H297v-.4l-.4-.5h-4.5z" class="st3"/><path d="M292.1 174.9h7v2.4h-7z" class="st4"/><path d="M296.7 174.1c1 0 1.8.8 1.8 1.8s-.8 1.8-1.8 1.8-1.8-.8-1.8-1.8.8-1.8 1.8-1.8M299.1 164.1h9.8v30.8h-9.8z" class="st5"/><path d="M299.1 164.1h9.8v3.4h-9.8z" class="st3"/><path d="M299.1 174h9.8v3.7h-9.8z" class="st7"/><path d="M299.7 191v-3.8c0-1.1.9-1.9 1.9-1.9h4.7c1.1 0 1.9.9 1.9 1.9v3.8c0 1.1-.9 1.9-1.9 1.9h-4.7c-1.1 0-1.9-.9-1.9-1.9" class="st9"/><path d="M305.3 167.5c0 1.2-1 2.2-2.2 2.2h-2.6v-4.5h2.6c1.2.1 2.2 1.1 2.2 2.3" class="st7"/><path d="M301.9 173.4h7v5.8h-2.1v-.4l-.4-.5h-4.5z" class="st3"/><path d="M301.9 174.9h7v2.4h-7z" class="st4"/><path d="M306.5 174.1c1 0 1.8.8 1.8 1.8s-.8 1.8-1.8 1.8-1.8-.8-1.8-1.8.8-1.8 1.8-1.8M308.9 164.1h9.8v30.8h-9.8z" class="st5"/><path d="M308.9 164.1h9.8v3.4h-9.8z" class="st3"/><path d="M308.9 174h9.8v3.7h-9.8z" class="st7"/><path d="M309.5 191v-3.8c0-1.1.9-1.9 1.9-1.9h4.7c1.1 0 1.9.9 1.9 1.9v3.8c0 1.1-.9 1.9-1.9 1.9h-4.7c-1.1 0-1.9-.9-1.9-1.9" class="st9"/><path d="M315.1 167.5c0 1.2-1 2.2-2.2 2.2h-2.6v-4.5h2.6c1.2.1 2.2 1.1 2.2 2.3" class="st7"/><path d="M311.7 173.4h7v5.8h-2.1v-.4l-.4-.5h-4.5z" class="st3"/><path d="M311.7 174.9h7v2.4h-7z" class="st4"/><path d="M316.3 174.1c1 0 1.8.8 1.8 1.8s-.8 1.8-1.8 1.8-1.8-.8-1.8-1.8.8-1.8 1.8-1.8M318.7 164.1h9.8v30.8h-9.8z" class="st5"/><path d="M318.7 164.1h9.8v3.4h-9.8z" class="st3"/><path d="M318.7 174h9.8v3.7h-9.8z" class="st7"/><path d="M319.3 191v-3.8c0-1.1.9-1.9 1.9-1.9h4.7c1.1 0 1.9.9 1.9 1.9v3.8c0 1.1-.9 1.9-1.9 1.9h-4.7c-1.1 0-1.9-.9-1.9-1.9" class="st9"/><path d="M324.9 167.5c0 1.2-1 2.2-2.2 2.2h-2.6v-4.5h2.6c1.2.1 2.2 1.1 2.2 2.3" class="st7"/><path d="M321.5 173.4h7v5.8h-2.1v-.4l-.4-.5h-4.5z" class="st3"/><path d="M321.5 174.9h7v2.4h-7z" class="st4"/><path d="M326.1 174.1c1 0 1.8.8 1.8 1.8s-.8 1.8-1.8 1.8-1.8-.8-1.8-1.8.8-1.8 1.8-1.8M328.5 164.1h9.8v30.8h-9.8z" class="st5"/><path d="M328.5 164.1h9.8v3.4h-9.8z" class="st3"/><path d="M328.5 174h9.8v3.7h-9.8z" class="st7"/><path d="M329.1 191v-3.8c0-1.1.9-1.9 1.9-1.9h4.7c1.1 0 1.9.9 1.9 1.9v3.8c0 1.1-.9 1.9-1.9 1.9H331c-1.1 0-1.9-.9-1.9-1.9" class="st9"/><path d="M334.7 167.5c0 1.2-1 2.2-2.2 2.2h-2.6v-4.5h2.6c1.2.1 2.2 1.1 2.2 2.3" class="st7"/><path d="M331.3 173.4h7v5.8h-2.1v-.4l-.4-.5h-4.5z" class="st3"/><path d="M331.3 174.9h7v2.4h-7z" class="st4"/><path d="M335.9 174.1c1 0 1.8.8 1.8 1.8s-.8 1.8-1.8 1.8-1.8-.8-1.8-1.8.8-1.8 1.8-1.8M338.3 164.1h9.8v30.8h-9.8z" class="st5"/><path d="M338.3 164.1h9.8v3.4h-9.8z" class="st3"/><path d="M338.3 174h9.8v3.7h-9.8z" class="st7"/><path d="M338.9 191v-3.8c0-1.1.9-1.9 1.9-1.9h4.7c1.1 0 1.9.9 1.9 1.9v3.8c0 1.1-.9 1.9-1.9 1.9h-4.7c-1.1 0-1.9-.9-1.9-1.9" class="st9"/><path d="M344.4 167.5c0 1.2-1 2.2-2.2 2.2h-2.6v-4.5h2.6c1.2.1 2.2 1.1 2.2 2.3" class="st7"/><path d="M341.1 173.4h7v5.8H346v-.4l-.4-.5h-4.5z" class="st3"/><path d="M341.1 174.9h7v2.4h-7z" class="st4"/><path d="M345.7 174.1c1 0 1.8.8 1.8 1.8s-.8 1.8-1.8 1.8-1.8-.8-1.8-1.8.8-1.8 1.8-1.8M348.1 164.1h9.8v30.8h-9.8z" class="st5"/><path d="M348.1 164.1h9.8v3.4h-9.8z" class="st3"/><path d="M348.1 174h9.8v3.7h-9.8z" class="st7"/><path d="M348.7 191v-3.8c0-1.1.9-1.9 1.9-1.9h4.7c1.1 0 1.9.9 1.9 1.9v3.8c0 1.1-.9 1.9-1.9 1.9h-4.7c-1.1 0-1.9-.9-1.9-1.9" class="st9"/><path d="M354.2 167.5c0 1.2-1 2.2-2.2 2.2h-2.6v-4.5h2.6c1.2.1 2.2 1.1 2.2 2.3" class="st7"/><path d="M350.9 173.4h7v5.8h-2.1v-.4l-.4-.5h-4.5z" class="st3"/><path d="M350.9 174.9h7v2.4h-7z" class="st4"/><path d="M355.5 174.1c1 0 1.8.8 1.8 1.8s-.8 1.8-1.8 1.8-1.8-.8-1.8-1.8.8-1.8 1.8-1.8M42.8 9.5h9.8v30.8h-9.8z" class="st5"/><path d="M42.8 36.9h9.8v3.4h-9.8z" class="st3"/><path d="M42.8 26.8h9.8v3.7h-9.8z" class="st7"/><path d="M52 13.5v3.8c0 1.1-.9 1.9-1.9 1.9h-4.7c-1.1 0-1.9-.9-1.9-1.9v-3.8c0-1.1.9-1.9 1.9-1.9h4.7c1 0 1.9.8 1.9 1.9" class="st9"/><path d="M46.4 37c0-1.2 1-2.2 2.2-2.2h2.6v4.5h-2.6c-1.2-.1-2.2-1.1-2.2-2.3" class="st7"/><path d="M49.8 31h-7v-5.7h2v.4l.5.4h4.5z" class="st3"/><path d="M42.8 27.2h7v2.4h-7z" class="st4"/><path d="M45.2 30.4c-1 0-1.8-.8-1.8-1.8s.8-1.8 1.8-1.8 1.8.8 1.8 1.8-.8 1.8-1.8 1.8M33 9.5h9.8v30.8H33z" class="st5"/><path d="M33 36.9h9.8v3.4H33z" class="st3"/><path d="M33 26.8h9.8v3.7H33z" class="st7"/><path d="M42.2 13.5v3.8c0 1.1-.9 1.9-1.9 1.9h-4.7c-1.1 0-1.9-.9-1.9-1.9v-3.8c0-1.1.9-1.9 1.9-1.9h4.7c1 0 1.9.8 1.9 1.9" class="st9"/><path d="M36.6 37c0-1.2 1-2.2 2.2-2.2h2.6v4.5h-2.6c-1.2-.1-2.2-1.1-2.2-2.3" class="st7"/><path d="M40 31h-7v-5.7h2v.4l.5.4H40z" class="st3"/><path d="M33 27.2h7v2.4h-7z" class="st4"/><path d="M35.4 30.4c-1 0-1.8-.8-1.8-1.8s.8-1.8 1.8-1.8 1.8.8 1.8 1.8-.8 1.8-1.8 1.8M23.2 9.5H33v30.8h-9.8z" class="st5"/><path d="M23.2 36.9H33v3.4h-9.8z" class="st3"/><path d="M23.2 26.8H33v3.7h-9.8z" class="st7"/><path d="M32.4 13.5v3.8c0 1.1-.9 1.9-1.9 1.9h-4.7c-1.1 0-1.9-.9-1.9-1.9v-3.8c0-1.1.9-1.9 1.9-1.9h4.7c1 0 1.9.8 1.9 1.9" class="st9"/><path d="M26.8 37c0-1.2 1-2.2 2.2-2.2h2.6v4.5H29c-1.2-.1-2.2-1.1-2.2-2.3" class="st7"/><path d="M30.2 31h-7v-5.7h2v.4l.5.4h4.5z" class="st3"/><path d="M23.2 27.2h7v2.4h-7z" class="st4"/><path d="M25.6 30.4c-1 0-1.8-.8-1.8-1.8s.8-1.8 1.8-1.8 1.8.8 1.8 1.8-.8 1.8-1.8 1.8M13.4 9.5h9.8v30.8h-9.8z" class="st5"/><path d="M13.4 36.9h9.8v3.4h-9.8z" class="st3"/><path d="M13.4 26.8h9.8v3.7h-9.8z" class="st7"/><path d="M22.6 13.5v3.8c0 1.1-.9 1.9-1.9 1.9H16c-1.1 0-1.9-.9-1.9-1.9v-3.8c0-1.1.9-1.9 1.9-1.9h4.7c1 0 1.9.8 1.9 1.9" class="st9"/><path d="M17 37c0-1.2 1-2.2 2.2-2.2h2.6v4.5h-2.6C18 39.2 17 38.2 17 37" class="st7"/><path d="M20.4 31h-7v-5.7h2v.4l.5.4h4.5z" class="st3"/><path d="M13.4 27.2h7v2.4h-7z" class="st4"/><path d="M15.8 30.4c-1 0-1.8-.8-1.8-1.8s.8-1.8 1.8-1.8 1.8.8 1.8 1.8-.8 1.8-1.8 1.8M150.6 9.5h9.8v30.8h-9.8z" class="st5"/><path d="M150.6 36.9h9.8v3.4h-9.8z" class="st3"/><path d="M150.6 26.8h9.8v3.7h-9.8z" class="st7"/><path d="M159.8 13.5v3.8c0 1.1-.9 1.9-1.9 1.9h-4.7c-1.1 0-1.9-.9-1.9-1.9v-3.8c0-1.1.9-1.9 1.9-1.9h4.7c1.1 0 1.9.8 1.9 1.9" class="st9"/><path d="M154.2 37c0-1.2 1-2.2 2.2-2.2h2.6v4.5h-2.6c-1.2-.1-2.2-1.1-2.2-2.3" class="st7"/><path d="M157.6 31h-7v-5.7h2.1v.4l.4.4h4.5z" class="st3"/><path d="M150.6 27.2h7v2.4h-7z" class="st4"/><path d="M153 30.4c-1 0-1.8-.8-1.8-1.8s.8-1.8 1.8-1.8 1.8.8 1.8 1.8-.8 1.8-1.8 1.8M140.8 9.5h9.8v30.8h-9.8z" class="st5"/><path d="M140.8 36.9h9.8v3.4h-9.8z" class="st3"/><path d="M140.8 26.8h9.8v3.7h-9.8z" class="st7"/><path d="M150 13.5v3.8c0 1.1-.9 1.9-1.9 1.9h-4.7c-1.1 0-1.9-.9-1.9-1.9v-3.8c0-1.1.9-1.9 1.9-1.9h4.7c1.1 0 1.9.8 1.9 1.9" class="st9"/><path d="M144.4 37c0-1.2 1-2.2 2.2-2.2h2.6v4.5h-2.6c-1.2-.1-2.2-1.1-2.2-2.3" class="st7"/><path d="M147.8 31h-7v-5.7h2.1v.4l.4.4h4.5z" class="st3"/><path d="M140.8 27.2h7v2.4h-7z" class="st4"/><path d="M143.2 30.4c-1 0-1.8-.8-1.8-1.8s.8-1.8 1.8-1.8 1.8.8 1.8 1.8-.8 1.8-1.8 1.8M131 9.5h9.8v30.8H131z" class="st5"/><path d="M131 36.9h9.8v3.4H131z" class="st3"/><path d="M131 26.8h9.8v3.7H131z" class="st7"/><path d="M140.2 13.5v3.8c0 1.1-.9 1.9-1.9 1.9h-4.7c-1.1 0-1.9-.9-1.9-1.9v-3.8c0-1.1.9-1.9 1.9-1.9h4.7c1.1 0 1.9.8 1.9 1.9" class="st9"/><path d="M134.6 37c0-1.2 1-2.2 2.2-2.2h2.6v4.5h-2.6c-1.2-.1-2.2-1.1-2.2-2.3" class="st7"/><path d="M138 31h-7v-5.7h2.1v.4l.4.4h4.5z" class="st3"/><path d="M131 27.2h7v2.4h-7z" class="st4"/><path d="M133.4 30.4c-1 0-1.8-.8-1.8-1.8s.8-1.8 1.8-1.8 1.8.8 1.8 1.8-.8 1.8-1.8 1.8M121.2 9.5h9.8v30.8h-9.8z" class="st5"/><path d="M121.2 36.9h9.8v3.4h-9.8z" class="st3"/><path d="M121.2 26.8h9.8v3.7h-9.8z" class="st7"/><path d="M130.4 13.5v3.8c0 1.1-.9 1.9-1.9 1.9h-4.7c-1.1 0-1.9-.9-1.9-1.9v-3.8c0-1.1.9-1.9 1.9-1.9h4.7c1.1 0 1.9.8 1.9 1.9" class="st9"/><path d="M124.8 37c0-1.2 1-2.2 2.2-2.2h2.6v4.5H127c-1.2-.1-2.2-1.1-2.2-2.3" class="st7"/><path d="M128.2 31h-7v-5.7h2.1v.4l.4.4h4.5z" class="st3"/><path d="M121.2 27.2h7v2.4h-7z" class="st4"/><path d="M123.6 30.4c-1 0-1.8-.8-1.8-1.8s.8-1.8 1.8-1.8 1.8.8 1.8 1.8-.8 1.8-1.8 1.8M111.4 9.5h9.8v30.8h-9.8z" class="st5"/><path d="M111.4 36.9h9.8v3.4h-9.8z" class="st3"/><path d="M111.4 26.8h9.8v3.7h-9.8z" class="st7"/><path d="M120.6 13.5v3.8c0 1.1-.9 1.9-1.9 1.9H114c-1.1 0-1.9-.9-1.9-1.9v-3.8c0-1.1.9-1.9 1.9-1.9h4.7c1.1 0 1.9.8 1.9 1.9" class="st9"/><path d="M115.1 37c0-1.2 1-2.2 2.2-2.2h2.6v4.5h-2.6c-1.2-.1-2.2-1.1-2.2-2.3" class="st7"/><path d="M118.4 31h-7v-5.7h2.1v.4l.4.4h4.5z" class="st3"/><path d="M111.4 27.2h7v2.4h-7z" class="st4"/><path d="M113.8 30.4c-1 0-1.8-.8-1.8-1.8s.8-1.8 1.8-1.8 1.8.8 1.8 1.8-.8 1.8-1.8 1.8M101.6 9.5h9.8v30.8h-9.8z" class="st5"/><path d="M101.6 36.9h9.8v3.4h-9.8z" class="st3"/><path d="M101.6 26.8h9.8v3.7h-9.8z" class="st7"/><path d="M110.8 13.5v3.8c0 1.1-.9 1.9-1.9 1.9h-4.7c-1.1 0-1.9-.9-1.9-1.9v-3.8c0-1.1.9-1.9 1.9-1.9h4.7c1.1 0 1.9.8 1.9 1.9" class="st9"/><path d="M105.3 37c0-1.2 1-2.2 2.2-2.2h2.6v4.5h-2.6c-1.2-.1-2.2-1.1-2.2-2.3" class="st7"/><path d="M108.6 31h-7v-5.7h2.1v.4l.4.4h4.5z" class="st3"/><path d="M101.6 27.2h7v2.4h-7z" class="st4"/><path d="M104 30.4c-1 0-1.8-.8-1.8-1.8s.8-1.8 1.8-1.8 1.8.8 1.8 1.8-.8 1.8-1.8 1.8M91.8 9.5h9.8v30.8h-9.8z" class="st5"/><path d="M91.8 36.9h9.8v3.4h-9.8z" class="st3"/><path d="M91.8 26.8h9.8v3.7h-9.8z" class="st7"/><path d="M101 13.5v3.8c0 1.1-.9 1.9-1.9 1.9h-4.7c-1.1 0-1.9-.9-1.9-1.9v-3.8c0-1.1.9-1.9 1.9-1.9h4.7c1.1 0 1.9.8 1.9 1.9" class="st9"/><path d="M95.5 37c0-1.2 1-2.2 2.2-2.2h2.6v4.5h-2.6c-1.2-.1-2.2-1.1-2.2-2.3" class="st7"/><path d="M98.8 31h-7v-5.7h2.1v.4l.4.4h4.5z" class="st3"/><path d="M91.8 27.2h7v2.4h-7z" class="st4"/><path d="M94.2 30.4c-1 0-1.8-.8-1.8-1.8s.8-1.8 1.8-1.8 1.8.8 1.8 1.8-.8 1.8-1.8 1.8M82 9.5h9.8v30.8H82z" class="st5"/><path d="M82 36.9h9.8v3.4H82z" class="st3"/><path d="M82 26.8h9.8v3.7H82z" class="st7"/><path d="M91.2 13.5v3.8c0 1.1-.9 1.9-1.9 1.9h-4.7c-1.1 0-1.9-.9-1.9-1.9v-3.8c0-1.1.9-1.9 1.9-1.9h4.7c1.1 0 1.9.8 1.9 1.9" class="st9"/><path d="M85.7 37c0-1.2 1-2.2 2.2-2.2h2.6v4.5h-2.6c-1.2-.1-2.2-1.1-2.2-2.3" class="st7"/><path d="M89 31h-7v-5.7h2.1v.4l.4.4H89z" class="st3"/><path d="M82 27.2h7v2.4h-7z" class="st4"/><path d="M84.4 30.4c-1 0-1.8-.8-1.8-1.8s.8-1.8 1.8-1.8 1.8.8 1.8 1.8-.8 1.8-1.8 1.8M72.2 9.5H82v30.8h-9.8z" class="st5"/><path d="M72.2 36.9H82v3.4h-9.8z" class="st3"/><path d="M72.2 26.8H82v3.7h-9.8z" class="st7"/><path d="M81.4 13.5v3.8c0 1.1-.9 1.9-1.9 1.9h-4.7c-1.1 0-1.9-.9-1.9-1.9v-3.8c0-1.1.9-1.9 1.9-1.9h4.7c1.1 0 1.9.8 1.9 1.9" class="st9"/><path d="M75.9 37c0-1.2 1-2.2 2.2-2.2h2.6v4.5h-2.6c-1.2-.1-2.2-1.1-2.2-2.3" class="st7"/><path d="M79.2 31h-7v-5.7h2.1v.4l.4.4h4.5z" class="st3"/><path d="M72.2 27.2h7v2.4h-7z" class="st4"/><path d="M74.6 30.4c-1 0-1.8-.8-1.8-1.8s.8-1.8 1.8-1.8 1.8.8 1.8 1.8-.8 1.8-1.8 1.8M62.4 9.5h9.8v30.8h-9.8z" class="st5"/><path d="M62.4 36.9h9.8v3.4h-9.8z" class="st3"/><path d="M62.4 26.8h9.8v3.7h-9.8z" class="st7"/><path d="M71.6 13.5v3.8c0 1.1-.9 1.9-1.9 1.9H65c-1.1 0-1.9-.9-1.9-1.9v-3.8c0-1.1.9-1.9 1.9-1.9h4.7c1.1 0 1.9.8 1.9 1.9" class="st9"/><path d="M66.1 37c0-1.2 1-2.2 2.2-2.2h2.6v4.5h-2.6c-1.2-.1-2.2-1.1-2.2-2.3" class="st7"/><path d="M69.4 31h-6.9v-5.7h2v.4l.4.4h4.5z" class="st3"/><path d="M62.5 27.2h7v2.4h-7z" class="st4"/><path d="M64.8 30.4c-1 0-1.8-.8-1.8-1.8s.8-1.8 1.8-1.8 1.8.8 1.8 1.8-.8 1.8-1.8 1.8M367.7 164.1h9.8v30.8h-9.8z" class="st5"/><path d="M367.7 164.1h9.8v3.4h-9.8z" class="st3"/><path d="M367.7 174h9.8v3.7h-9.8z" class="st7"/><path d="M368.3 191v-3.8c0-1.1.9-1.9 1.9-1.9h4.7c1.1 0 1.9.9 1.9 1.9v3.8c0 1.1-.9 1.9-1.9 1.9h-4.7c-1 0-1.9-.9-1.9-1.9" class="st9"/><path d="M373.9 167.5c0 1.2-1 2.2-2.2 2.2h-2.6v-4.5h2.6c1.2.1 2.2 1.1 2.2 2.3" class="st7"/><path d="M370.5 173.4h7v5.8h-2.1v-.4l-.4-.5h-4.5z" class="st3"/><path d="M370.5 174.9h7v2.4h-7z" class="st4"/><path d="M375.1 174.1c1 0 1.8.8 1.8 1.8s-.8 1.8-1.8 1.8-1.8-.8-1.8-1.8.8-1.8 1.8-1.8M377.5 164.1h9.8v30.8h-9.8z" class="st5"/><path d="M377.5 164.1h9.8v3.4h-9.8z" class="st3"/><path d="M377.5 174h9.8v3.7h-9.8z" class="st7"/><path d="M378.1 191v-3.8c0-1.1.9-1.9 1.9-1.9h4.7c1.1 0 1.9.9 1.9 1.9v3.8c0 1.1-.9 1.9-1.9 1.9H380c-1 0-1.9-.9-1.9-1.9" class="st9"/><path d="M383.7 167.5c0 1.2-1 2.2-2.2 2.2h-2.6v-4.5h2.6c1.2.1 2.2 1.1 2.2 2.3" class="st7"/><path d="M380.3 173.4h7v5.8h-2.1v-.4l-.4-.5h-4.5z" class="st3"/><path d="M380.3 174.9h7v2.4h-7z" class="st4"/><path d="M384.9 174.1c1 0 1.8.8 1.8 1.8s-.8 1.8-1.8 1.8-1.8-.8-1.8-1.8.8-1.8 1.8-1.8M387.3 164.1h9.8v30.8h-9.8z" class="st5"/><path d="M387.3 164.1h9.8v3.4h-9.8z" class="st3"/><path d="M387.3 174h9.8v3.7h-9.8z" class="st7"/><path d="M387.9 191v-3.8c0-1.1.9-1.9 1.9-1.9h4.7c1.1 0 1.9.9 1.9 1.9v3.8c0 1.1-.9 1.9-1.9 1.9h-4.7c-1 0-1.9-.9-1.9-1.9" class="st9"/><path d="M393.5 167.5c0 1.2-1 2.2-2.2 2.2h-2.6v-4.5h2.6c1.2.1 2.2 1.1 2.2 2.3" class="st7"/><path d="M390.1 173.4h7v5.8H395v-.4l-.4-.5h-4.5z" class="st3"/><path d="M390.1 174.9h7v2.4h-7z" class="st4"/><path d="M394.7 174.1c1 0 1.8.8 1.8 1.8s-.8 1.8-1.8 1.8-1.8-.8-1.8-1.8.8-1.8 1.8-1.8M397.1 164.1h9.8v30.8h-9.8z" class="st5"/><path d="M397.1 164.1h9.8v3.4h-9.8z" class="st3"/><path d="M397.1 174h9.8v3.7h-9.8z" class="st7"/><path d="M397.7 191v-3.8c0-1.1.9-1.9 1.9-1.9h4.7c1.1 0 1.9.9 1.9 1.9v3.8c0 1.1-.9 1.9-1.9 1.9h-4.7c-1 0-1.9-.9-1.9-1.9" class="st9"/><path d="M403.3 167.5c0 1.2-1 2.2-2.2 2.2h-2.6v-4.5h2.6c1.2.1 2.2 1.1 2.2 2.3" class="st7"/><path d="M399.9 173.4h7v5.8h-2.1v-.4l-.4-.5h-4.5z" class="st3"/><path d="M399.9 174.9h7v2.4h-7z" class="st4"/><path d="M404.5 174.1c1 0 1.8.8 1.8 1.8s-.8 1.8-1.8 1.8-1.8-.8-1.8-1.8.8-1.8 1.8-1.8M406.9 164.1h9.8v30.8h-9.8z" class="st5"/><path d="M406.9 164.1h9.8v3.4h-9.8z" class="st3"/><path d="M406.9 174h9.8v3.7h-9.8z" class="st7"/><path d="M407.5 191v-3.8c0-1.1.9-1.9 1.9-1.9h4.7c1.1 0 1.9.9 1.9 1.9v3.8c0 1.1-.9 1.9-1.9 1.9h-4.7c-1 0-1.9-.9-1.9-1.9" class="st9"/><path d="M413.1 167.5c0 1.2-1 2.2-2.2 2.2h-2.6v-4.5h2.6c1.2.1 2.2 1.1 2.2 2.3" class="st7"/><path d="M409.7 173.4h7v5.8h-2.1v-.4l-.4-.5h-4.5z" class="st3"/><path d="M409.7 174.9h7v2.4h-7z" class="st4"/><path d="M414.3 174.1c1 0 1.8.8 1.8 1.8s-.8 1.8-1.8 1.8-1.8-.8-1.8-1.8.8-1.8 1.8-1.8M416.7 164.1h9.8v30.8h-9.8z" class="st5"/><path d="M416.7 164.1h9.8v3.4h-9.8z" class="st3"/><path d="M416.7 174h9.8v3.7h-9.8z" class="st7"/><path d="M417.3 191v-3.8c0-1.1.9-1.9 1.9-1.9h4.7c1.1 0 1.9.9 1.9 1.9v3.8c0 1.1-.9 1.9-1.9 1.9h-4.7c-1 0-1.9-.9-1.9-1.9" class="st9"/><path d="M422.9 167.5c0 1.2-1 2.2-2.2 2.2h-2.6v-4.5h2.6c1.2.1 2.2 1.1 2.2 2.3" class="st7"/><path d="M419.5 173.4h7v5.8h-2.1v-.4l-.4-.5h-4.5z" class="st3"/><path d="M419.5 174.9h7v2.4h-7z" class="st4"/><path d="M424.1 174.1c1 0 1.8.8 1.8 1.8s-.8 1.8-1.8 1.8-1.8-.8-1.8-1.8.8-1.8 1.8-1.8M426.5 164.1h9.8v30.8h-9.8z" class="st5"/><path d="M426.5 164.1h9.8v3.4h-9.8z" class="st3"/><path d="M426.5 174h9.8v3.7h-9.8z" class="st7"/><path d="M427.1 191v-3.8c0-1.1.9-1.9 1.9-1.9h4.7c1.1 0 1.9.9 1.9 1.9v3.8c0 1.1-.9 1.9-1.9 1.9H429c-1 0-1.9-.9-1.9-1.9" class="st9"/><path d="M432.7 167.5c0 1.2-1 2.2-2.2 2.2h-2.6v-4.5h2.6c1.2.1 2.2 1.1 2.2 2.3" class="st7"/><path d="M429.3 173.4h7v5.8h-2.1v-.4l-.4-.5h-4.5z" class="st3"/><path d="M429.3 174.9h7v2.4h-7z" class="st4"/><path d="M433.9 174.1c1 0 1.8.8 1.8 1.8s-.8 1.8-1.8 1.8-1.8-.8-1.8-1.8.8-1.8 1.8-1.8M436.3 164.1h9.8v30.8h-9.8z" class="st5"/><path d="M436.3 164.1h9.8v3.4h-9.8z" class="st3"/><path d="M436.3 174h9.8v3.7h-9.8z" class="st7"/><path d="M436.9 191v-3.8c0-1.1.9-1.9 1.9-1.9h4.7c1.1 0 1.9.9 1.9 1.9v3.8c0 1.1-.9 1.9-1.9 1.9h-4.7c-1 0-1.9-.9-1.9-1.9" class="st9"/><path d="M442.5 167.5c0 1.2-1 2.2-2.2 2.2h-2.6v-4.5h2.6c1.2.1 2.2 1.1 2.2 2.3" class="st7"/><path d="M439.1 173.4h7v5.8H444v-.4l-.4-.5h-4.5z" class="st3"/><path d="M439.1 174.9h7v2.4h-7z" class="st4"/><path d="M443.7 174.1c1 0 1.8.8 1.8 1.8s-.8 1.8-1.8 1.8-1.8-.8-1.8-1.8.8-1.8 1.8-1.8M248.6 9.5h9.8v30.8h-9.8z" class="st5"/><path d="M248.6 36.9h9.8v3.4h-9.8z" class="st3"/><path d="M248.6 26.8h9.8v3.7h-9.8z" class="st7"/><path d="M257.8 13.5v3.8c0 1.1-.9 1.9-1.9 1.9h-4.7c-1.1 0-1.9-.9-1.9-1.9v-3.8c0-1.1.9-1.9 1.9-1.9h4.7c1.1 0 1.9.8 1.9 1.9" class="st9"/><path d="M252.2 37c0-1.2 1-2.2 2.2-2.2h2.6v4.5h-2.6c-1.2-.1-2.2-1.1-2.2-2.3" class="st7"/><path d="M255.6 31h-7v-5.7h2.1v.4l.4.4h4.5z" class="st3"/><path d="M248.6 27.2h7v2.4h-7z" class="st4"/><path d="M251 30.4c-1 0-1.8-.8-1.8-1.8s.8-1.8 1.8-1.8 1.8.8 1.8 1.8-.8 1.8-1.8 1.8M238.8 9.5h9.8v30.8h-9.8z" class="st5"/><path d="M238.8 36.9h9.8v3.4h-9.8z" class="st3"/><path d="M238.8 26.8h9.8v3.7h-9.8z" class="st7"/><path d="M248 13.5v3.8c0 1.1-.9 1.9-1.9 1.9h-4.7c-1.1 0-1.9-.9-1.9-1.9v-3.8c0-1.1.9-1.9 1.9-1.9h4.7c1.1 0 1.9.8 1.9 1.9" class="st9"/><path d="M242.4 37c0-1.2 1-2.2 2.2-2.2h2.6v4.5h-2.6c-1.2-.1-2.2-1.1-2.2-2.3" class="st7"/><path d="M245.8 31h-7v-5.7h2.1v.4l.4.4h4.5z" class="st3"/><path d="M238.8 27.2h7v2.4h-7z" class="st4"/><path d="M241.2 30.4c-1 0-1.8-.8-1.8-1.8s.8-1.8 1.8-1.8 1.8.8 1.8 1.8-.8 1.8-1.8 1.8M229 9.5h9.8v30.8H229z" class="st5"/><path d="M229 36.9h9.8v3.4H229z" class="st3"/><path d="M229 26.8h9.8v3.7H229z" class="st7"/><path d="M238.2 13.5v3.8c0 1.1-.9 1.9-1.9 1.9h-4.7c-1.1 0-1.9-.9-1.9-1.9v-3.8c0-1.1.9-1.9 1.9-1.9h4.7c1.1 0 1.9.8 1.9 1.9" class="st9"/><path d="M232.6 37c0-1.2 1-2.2 2.2-2.2h2.6v4.5h-2.6c-1.2-.1-2.2-1.1-2.2-2.3" class="st7"/><path d="M236 31h-7v-5.7h2.1v.4l.4.4h4.5z" class="st3"/><path d="M229 27.2h7v2.4h-7z" class="st4"/><circle cx="231.4" cy="28.6" r="1.8" class="st5"/><path d="M219.2 9.5h9.8v30.8h-9.8z" class="st5"/><path d="M219.2 36.9h9.8v3.4h-9.8z" class="st3"/><path d="M219.2 26.8h9.8v3.7h-9.8z" class="st7"/><path d="M228.4 13.5v3.8c0 1.1-.9 1.9-1.9 1.9h-4.7c-1.1 0-1.9-.9-1.9-1.9v-3.8c0-1.1.9-1.9 1.9-1.9h4.7c1.1 0 1.9.8 1.9 1.9" class="st9"/><path d="M222.8 37c0-1.2 1-2.2 2.2-2.2h2.6v4.5H225c-1.2-.1-2.2-1.1-2.2-2.3" class="st7"/><path d="M226.2 31h-7v-5.7h2.1v.4l.4.4h4.5z" class="st3"/><path d="M219.2 27.2h7v2.4h-7z" class="st4"/><path d="M221.6 30.4c-1 0-1.8-.8-1.8-1.8s.8-1.8 1.8-1.8 1.8.8 1.8 1.8-.8 1.8-1.8 1.8M209.4 9.5h9.8v30.8h-9.8z" class="st5"/><path d="M209.4 36.9h9.8v3.4h-9.8z" class="st3"/><path d="M209.4 26.8h9.8v3.7h-9.8z" class="st7"/><path d="M218.6 13.5v3.8c0 1.1-.9 1.9-1.9 1.9H212c-1.1 0-1.9-.9-1.9-1.9v-3.8c0-1.1.9-1.9 1.9-1.9h4.7c1.1 0 1.9.8 1.9 1.9" class="st9"/><path d="M213 37c0-1.2 1-2.2 2.2-2.2h2.6v4.5h-2.6c-1.2-.1-2.2-1.1-2.2-2.3" class="st7"/><path d="M216.4 31h-7v-5.7h2.1v.4l.4.4h4.5z" class="st3"/><path d="M209.4 27.2h7v2.4h-7z" class="st4"/><path d="M211.8 30.4c-1 0-1.8-.8-1.8-1.8s.8-1.8 1.8-1.8 1.8.8 1.8 1.8-.8 1.8-1.8 1.8M199.6 9.5h9.8v30.8h-9.8z" class="st5"/><path d="M199.6 36.9h9.8v3.4h-9.8z" class="st3"/><path d="M199.6 26.8h9.8v3.7h-9.8z" class="st7"/><path d="M208.8 13.5v3.8c0 1.1-.9 1.9-1.9 1.9h-4.7c-1.1 0-1.9-.9-1.9-1.9v-3.8c0-1.1.9-1.9 1.9-1.9h4.7c1.1 0 1.9.8 1.9 1.9" class="st9"/><path d="M203.2 37c0-1.2 1-2.2 2.2-2.2h2.6v4.5h-2.6c-1.2-.1-2.2-1.1-2.2-2.3" class="st7"/><path d="M206.6 31h-7v-5.7h2.1v.4l.4.4h4.5z" class="st3"/><path d="M199.6 27.2h7v2.4h-7z" class="st4"/><path d="M202 30.4c-1 0-1.8-.8-1.8-1.8s.8-1.8 1.8-1.8 1.8.8 1.8 1.8-.8 1.8-1.8 1.8M189.8 9.5h9.8v30.8h-9.8z" class="st5"/><path d="M189.8 36.9h9.8v3.4h-9.8z" class="st3"/><path d="M189.8 26.8h9.8v3.7h-9.8z" class="st7"/><path d="M199 13.5v3.8c0 1.1-.9 1.9-1.9 1.9h-4.7c-1.1 0-1.9-.9-1.9-1.9v-3.8c0-1.1.9-1.9 1.9-1.9h4.7c1.1 0 1.9.8 1.9 1.9" class="st9"/><path d="M193.4 37c0-1.2 1-2.2 2.2-2.2h2.6v4.5h-2.6c-1.2-.1-2.2-1.1-2.2-2.3" class="st7"/><path d="M196.8 31h-7v-5.7h2.1v.4l.4.4h4.5z" class="st3"/><path d="M189.8 27.2h7v2.4h-7z" class="st4"/><path d="M192.2 30.4c-1 0-1.8-.8-1.8-1.8s.8-1.8 1.8-1.8 1.8.8 1.8 1.8-.8 1.8-1.8 1.8M180 9.5h9.8v30.8H180z" class="st5"/><path d="M180 36.9h9.8v3.4H180z" class="st3"/><path d="M180 26.8h9.8v3.7H180z" class="st7"/><path d="M189.2 13.5v3.8c0 1.1-.9 1.9-1.9 1.9h-4.7c-1.1 0-1.9-.9-1.9-1.9v-3.8c0-1.1.9-1.9 1.9-1.9h4.7c1.1 0 1.9.8 1.9 1.9" class="st9"/><path d="M183.7 37c0-1.2 1-2.2 2.2-2.2h2.6v4.5h-2.6c-1.3-.1-2.2-1.1-2.2-2.3" class="st7"/><path d="M187 31h-7v-5.7h2.1v.4l.4.4h4.5z" class="st3"/><path d="M180 27.2h7v2.4h-7z" class="st4"/><path d="M182.4 30.4c-1 0-1.8-.8-1.8-1.8s.8-1.8 1.8-1.8 1.8.8 1.8 1.8-.8 1.8-1.8 1.8M170.2 9.5h9.8v30.8h-9.8z" class="st5"/><path d="M170.2 36.9h9.8v3.4h-9.8z" class="st3"/><path d="M170.2 26.8h9.8v3.7h-9.8z" class="st7"/><path d="M179.4 13.5v3.8c0 1.1-.9 1.9-1.9 1.9h-4.7c-1.1 0-1.9-.9-1.9-1.9v-3.8c0-1.1.9-1.9 1.9-1.9h4.7c1.1 0 1.9.8 1.9 1.9" class="st9"/><path d="M173.9 37c0-1.2 1-2.2 2.2-2.2h2.6v4.5h-2.6c-1.2-.1-2.2-1.1-2.2-2.3" class="st7"/><path d="M177.2 31h-7v-5.7h2.1v.4l.4.4h4.5z" class="st3"/><path d="M170.2 27.2h7v2.4h-7z" class="st4"/><path d="M172.6 30.4c-1 0-1.8-.8-1.8-1.8s.8-1.8 1.8-1.8 1.8.8 1.8 1.8-.8 1.8-1.8 1.8M346.7 9.5h9.8v30.8h-9.8z" class="st5"/><path d="M346.7 36.9h9.8v3.4h-9.8z" class="st3"/><path d="M346.7 26.8h9.8v3.7h-9.8z" class="st7"/><path d="M355.8 13.5v3.8c0 1.1-.9 1.9-1.9 1.9h-4.7c-1.1 0-1.9-.9-1.9-1.9v-3.8c0-1.1.9-1.9 1.9-1.9h4.7c1.1 0 1.9.8 1.9 1.9" class="st9"/><path d="M350.3 37c0-1.2 1-2.2 2.2-2.2h2.6v4.5h-2.6c-1.2-.1-2.2-1.1-2.2-2.3" class="st7"/><path d="M353.7 31h-7v-5.7h2v.4l.4.4h4.6z" class="st3"/><path d="M346.7 27.2h7v2.4h-7z" class="st4"/><path d="M349 30.4c-1 0-1.8-.8-1.8-1.8s.8-1.8 1.8-1.8 1.8.8 1.8 1.8-.7 1.8-1.8 1.8M336.9 9.5h9.8v30.8h-9.8z" class="st5"/><path d="M336.9 36.9h9.8v3.4h-9.8z" class="st3"/><path d="M336.9 26.8h9.8v3.7h-9.8z" class="st7"/><path d="M346 13.5v3.8c0 1.1-.9 1.9-1.9 1.9h-4.7c-1.1 0-1.9-.9-1.9-1.9v-3.8c0-1.1.9-1.9 1.9-1.9h4.7c1.1 0 1.9.8 1.9 1.9" class="st9"/><path d="M340.5 37c0-1.2 1-2.2 2.2-2.2h2.6v4.5h-2.6c-1.2-.1-2.2-1.1-2.2-2.3" class="st7"/><path d="M343.9 31h-7v-5.7h2v.4l.4.4h4.6z" class="st3"/><path d="M336.9 27.2h7v2.4h-7z" class="st4"/><path d="M339.2 30.4c-1 0-1.8-.8-1.8-1.8s.8-1.8 1.8-1.8 1.8.8 1.8 1.8-.7 1.8-1.8 1.8M327.1 9.5h9.8v30.8h-9.8z" class="st5"/><path d="M327.1 36.9h9.8v3.4h-9.8z" class="st3"/><path d="M327.1 26.8h9.8v3.7h-9.8z" class="st7"/><path d="M336.3 13.5v3.8c0 1.1-.9 1.9-1.9 1.9h-4.7c-1.1 0-1.9-.9-1.9-1.9v-3.8c0-1.1.9-1.9 1.9-1.9h4.7c1 0 1.9.8 1.9 1.9" class="st9"/><path d="M330.7 37c0-1.2 1-2.2 2.2-2.2h2.6v4.5h-2.6c-1.2-.1-2.2-1.1-2.2-2.3" class="st7"/><path d="M334.1 31h-7v-5.7h2v.4l.4.4h4.6z" class="st3"/><path d="M327.1 27.2h7v2.4h-7z" class="st4"/><path d="M329.5 30.4c-1 0-1.8-.8-1.8-1.8s.8-1.8 1.8-1.8 1.8.8 1.8 1.8-.8 1.8-1.8 1.8M317.3 9.5h9.8v30.8h-9.8z" class="st5"/><path d="M317.3 36.9h9.8v3.4h-9.8z" class="st3"/><path d="M317.3 26.8h9.8v3.7h-9.8z" class="st7"/><path d="M326.5 13.5v3.8c0 1.1-.9 1.9-1.9 1.9h-4.7c-1.1 0-1.9-.9-1.9-1.9v-3.8c0-1.1.9-1.9 1.9-1.9h4.7c1 0 1.9.8 1.9 1.9" class="st9"/><path d="M320.9 37c0-1.2 1-2.2 2.2-2.2h2.6v4.5h-2.6c-1.2-.1-2.2-1.1-2.2-2.3" class="st7"/><path d="M324.3 31h-7v-5.7h2v.4l.4.4h4.6z" class="st3"/><path d="M317.3 27.2h7v2.4h-7z" class="st4"/><path d="M319.7 30.4c-1 0-1.8-.8-1.8-1.8s.8-1.8 1.8-1.8 1.8.8 1.8 1.8-.8 1.8-1.8 1.8M307.5 9.5h9.8v30.8h-9.8z" class="st5"/><path d="M307.5 36.9h9.8v3.4h-9.8z" class="st3"/><path d="M307.5 26.8h9.8v3.7h-9.8z" class="st7"/><path d="M316.7 13.5v3.8c0 1.1-.9 1.9-1.9 1.9H310c-1.1 0-1.9-.9-1.9-1.9v-3.8c0-1.1.9-1.9 1.9-1.9h4.7c1.1 0 2 .8 2 1.9" class="st9"/><path d="M311.1 37c0-1.2 1-2.2 2.2-2.2h2.6v4.5h-2.6c-1.2-.1-2.2-1.1-2.2-2.3" class="st7"/><path d="M314.5 31h-7v-5.7h2v.4l.4.4h4.6z" class="st3"/><path d="M307.5 27.2h7v2.4h-7z" class="st4"/><path d="M309.9 30.4c-1 0-1.8-.8-1.8-1.8s.8-1.8 1.8-1.8 1.8.8 1.8 1.8-.8 1.8-1.8 1.8M297.7 9.5h9.8v30.8h-9.8z" class="st5"/><path d="M297.7 36.9h9.8v3.4h-9.8z" class="st3"/><path d="M297.7 26.8h9.8v3.7h-9.8z" class="st7"/><path d="M306.9 13.5v3.8c0 1.1-.9 1.9-1.9 1.9h-4.7c-1.1 0-1.9-.9-1.9-1.9v-3.8c0-1.1.9-1.9 1.9-1.9h4.7c1 0 1.9.8 1.9 1.9" class="st9"/><path d="M301.3 37c0-1.2 1-2.2 2.2-2.2h2.6v4.5h-2.6c-1.2-.1-2.2-1.1-2.2-2.3" class="st7"/><path d="M304.7 31h-7v-5.7h2v.4l.4.4h4.6z" class="st3"/><path d="M297.7 27.2h7v2.4h-7z" class="st4"/><path d="M300.1 30.4c-1 0-1.8-.8-1.8-1.8s.8-1.8 1.8-1.8 1.8.8 1.8 1.8-.8 1.8-1.8 1.8M287.9 9.5h9.8v30.8h-9.8z" class="st5"/><path d="M287.9 36.9h9.8v3.4h-9.8z" class="st3"/><path d="M287.9 26.8h9.8v3.7h-9.8z" class="st7"/><path d="M297.1 13.5v3.8c0 1.1-.9 1.9-1.9 1.9h-4.7c-1.1 0-1.9-.9-1.9-1.9v-3.8c0-1.1.9-1.9 1.9-1.9h4.7c1 0 1.9.8 1.9 1.9" class="st9"/><path d="M291.5 37c0-1.2 1-2.2 2.2-2.2h2.6v4.5h-2.6c-1.2-.1-2.2-1.1-2.2-2.3" class="st7"/><path d="M294.9 31h-7v-5.7h2v.4l.5.4h4.5z" class="st3"/><path d="M287.9 27.2h7v2.4h-7z" class="st4"/><path d="M290.3 30.4c-1 0-1.8-.8-1.8-1.8s.8-1.8 1.8-1.8 1.8.8 1.8 1.8-.8 1.8-1.8 1.8M278.1 9.5h9.8v30.8h-9.8z" class="st5"/><path d="M278.1 36.9h9.8v3.4h-9.8z" class="st3"/><path d="M278.1 26.8h9.8v3.7h-9.8z" class="st7"/><path d="M287.3 13.5v3.8c0 1.1-.9 1.9-1.9 1.9h-4.7c-1.1 0-1.9-.9-1.9-1.9v-3.8c0-1.1.9-1.9 1.9-1.9h4.7c1 0 1.9.8 1.9 1.9" class="st9"/><path d="M281.7 37c0-1.2 1-2.2 2.2-2.2h2.6v4.5h-2.6c-1.2-.1-2.2-1.1-2.2-2.3" class="st7"/><path d="M285.1 31h-7v-5.7h2v.4l.5.4h4.5z" class="st3"/><path d="M278.1 27.2h7v2.4h-7z" class="st4"/><path d="M280.5 30.4c-1 0-1.8-.8-1.8-1.8s.8-1.8 1.8-1.8 1.8.8 1.8 1.8-.8 1.8-1.8 1.8M268.3 9.5h9.8v30.8h-9.8z" class="st5"/><path d="M268.3 36.9h9.8v3.4h-9.8z" class="st3"/><path d="M268.3 26.8h9.8v3.7h-9.8z" class="st7"/><path d="M277.5 13.5v3.8c0 1.1-.9 1.9-1.9 1.9h-4.7c-1.1 0-1.9-.9-1.9-1.9v-3.8c0-1.1.9-1.9 1.9-1.9h4.7c1 0 1.9.8 1.9 1.9" class="st9"/><path d="M271.9 37c0-1.2 1-2.2 2.2-2.2h2.6v4.5h-2.6c-1.2-.1-2.2-1.1-2.2-2.3" class="st7"/><path d="M275.3 31h-7v-5.7h2v.4l.5.4h4.5z" class="st3"/><path d="M268.3 27.2h7v2.4h-7z" class="st4"/><path d="M270.7 30.4c-1 0-1.8-.8-1.8-1.8s.8-1.8 1.8-1.8 1.8.8 1.8 1.8-.8 1.8-1.8 1.8M435 9.5h9.8v30.8H435z" class="st5"/><path d="M435 36.9h9.8v3.4H435z" class="st3"/><path d="M435 26.8h9.8v3.7H435z" class="st7"/><path d="M444.2 13.5v3.8c0 1.1-.9 1.9-1.9 1.9h-4.7c-1.1 0-1.9-.9-1.9-1.9v-3.8c0-1.1.9-1.9 1.9-1.9h4.7c1 0 1.9.8 1.9 1.9" class="st9"/><path d="M438.6 37c0-1.2 1-2.2 2.2-2.2h2.6v4.5h-2.6c-1.2-.1-2.2-1.1-2.2-2.3" class="st7"/><path d="M442 31h-7v-5.7h2v.4l.5.4h4.5z" class="st3"/><path d="M435 27.2h7v2.4h-7z" class="st4"/><path d="M437.4 30.4c-1 0-1.8-.8-1.8-1.8s.8-1.8 1.8-1.8 1.8.8 1.8 1.8-.8 1.8-1.8 1.8M425.2 9.5h9.8v30.8h-9.8z" class="st5"/><path d="M425.2 36.9h9.8v3.4h-9.8z" class="st3"/><path d="M425.2 26.8h9.8v3.7h-9.8z" class="st7"/><path d="M434.4 13.5v3.8c0 1.1-.9 1.9-1.9 1.9h-4.7c-1.1 0-1.9-.9-1.9-1.9v-3.8c0-1.1.9-1.9 1.9-1.9h4.7c1 0 1.9.8 1.9 1.9" class="st9"/><path d="M428.8 37c0-1.2 1-2.2 2.2-2.2h2.6v4.5H431c-1.2-.1-2.2-1.1-2.2-2.3" class="st7"/><path d="M432.2 31h-7v-5.7h2v.4l.5.4h4.5z" class="st3"/><path d="M425.2 27.2h7v2.4h-7z" class="st4"/><path d="M427.6 30.4c-1 0-1.8-.8-1.8-1.8s.8-1.8 1.8-1.8 1.8.8 1.8 1.8-.8 1.8-1.8 1.8M415.4 9.5h9.8v30.8h-9.8z" class="st5"/><path d="M415.4 36.9h9.8v3.4h-9.8z" class="st3"/><path d="M415.4 26.8h9.8v3.7h-9.8z" class="st7"/><path d="M424.6 13.5v3.8c0 1.1-.9 1.9-1.9 1.9H418c-1.1 0-1.9-.9-1.9-1.9v-3.8c0-1.1.9-1.9 1.9-1.9h4.7c1 0 1.9.8 1.9 1.9" class="st9"/><path d="M419 37c0-1.2 1-2.2 2.2-2.2h2.6v4.5h-2.6c-1.2-.1-2.2-1.1-2.2-2.3" class="st7"/><path d="M422.4 31h-7v-5.7h2v.4l.5.4h4.5z" class="st3"/><path d="M415.4 27.2h7v2.4h-7z" class="st4"/><path d="M417.8 30.4c-1 0-1.8-.8-1.8-1.8s.8-1.8 1.8-1.8 1.8.8 1.8 1.8-.8 1.8-1.8 1.8M405.6 9.5h9.8v30.8h-9.8z" class="st5"/><path d="M405.6 36.9h9.8v3.4h-9.8z" class="st3"/><path d="M405.6 26.8h9.8v3.7h-9.8z" class="st7"/><path d="M414.8 13.5v3.8c0 1.1-.9 1.9-1.9 1.9h-4.7c-1.1 0-1.9-.9-1.9-1.9v-3.8c0-1.1.9-1.9 1.9-1.9h4.7c1 0 1.9.8 1.9 1.9" class="st9"/><path d="M409.2 37c0-1.2 1-2.2 2.2-2.2h2.6v4.5h-2.6c-1.2-.1-2.2-1.1-2.2-2.3" class="st7"/><path d="M412.6 31h-7v-5.7h2v.4l.5.4h4.5z" class="st3"/><path d="M405.6 27.2h7v2.4h-7z" class="st4"/><path d="M408 30.4c-1 0-1.8-.8-1.8-1.8s.8-1.8 1.8-1.8 1.8.8 1.8 1.8-.8 1.8-1.8 1.8M395.8 9.5h9.8v30.8h-9.8z" class="st5"/><path d="M395.8 36.9h9.8v3.4h-9.8z" class="st3"/><path d="M395.8 26.8h9.8v3.7h-9.8z" class="st7"/><path d="M405 13.5v3.8c0 1.1-.9 1.9-1.9 1.9h-4.7c-1.1 0-1.9-.9-1.9-1.9v-3.8c0-1.1.9-1.9 1.9-1.9h4.7c1 0 1.9.8 1.9 1.9" class="st9"/><path d="M399.4 37c0-1.2 1-2.2 2.2-2.2h2.6v4.5h-2.6c-1.2-.1-2.2-1.1-2.2-2.3" class="st7"/><path d="M402.8 31h-7v-5.7h2v.4l.5.4h4.5z" class="st3"/><path d="M395.8 27.2h7v2.4h-7z" class="st4"/><path d="M398.2 30.4c-1 0-1.8-.8-1.8-1.8s.8-1.8 1.8-1.8 1.8.8 1.8 1.8-.8 1.8-1.8 1.8M386 9.5h9.8v30.8H386z" class="st5"/><path d="M386 36.9h9.8v3.4H386z" class="st3"/><path d="M386 26.8h9.8v3.7H386z" class="st7"/><path d="M395.2 13.5v3.8c0 1.1-.9 1.9-1.9 1.9h-4.7c-1.1 0-1.9-.9-1.9-1.9v-3.8c0-1.1.9-1.9 1.9-1.9h4.7c1 0 1.9.8 1.9 1.9" class="st9"/><path d="M389.6 37c0-1.2 1-2.2 2.2-2.2h2.6v4.5h-2.6c-1.2-.1-2.2-1.1-2.2-2.3" class="st7"/><path d="M393 31h-7v-5.7h2v.4l.5.4h4.5z" class="st3"/><path d="M386 27.2h7v2.4h-7z" class="st4"/><path d="M388.4 30.4c-1 0-1.8-.8-1.8-1.8s.8-1.8 1.8-1.8 1.8.8 1.8 1.8-.8 1.8-1.8 1.8M376.2 9.5h9.8v30.8h-9.8z" class="st5"/><path d="M376.2 36.9h9.8v3.4h-9.8z" class="st3"/><path d="M376.2 26.8h9.8v3.7h-9.8z" class="st7"/><path d="M385.4 13.5v3.8c0 1.1-.9 1.9-1.9 1.9h-4.7c-1.1 0-1.9-.9-1.9-1.9v-3.8c0-1.1.9-1.9 1.9-1.9h4.7c1 0 1.9.8 1.9 1.9" class="st9"/><path d="M379.8 37c0-1.2 1-2.2 2.2-2.2h2.6v4.5H382c-1.2-.1-2.2-1.1-2.2-2.3" class="st7"/><path d="M383.2 31h-7v-5.7h2v.4l.5.4h4.5z" class="st3"/><path d="M376.2 27.2h7v2.4h-7z" class="st4"/><path d="M378.6 30.4c-1 0-1.8-.8-1.8-1.8s.8-1.8 1.8-1.8 1.8.8 1.8 1.8-.8 1.8-1.8 1.8M366.4 9.5h9.8v30.8h-9.8z" class="st5"/><path d="M366.4 36.9h9.8v3.4h-9.8z" class="st3"/><path d="M366.4 26.8h9.8v3.7h-9.8z" class="st7"/><path d="M375.6 13.5v3.8c0 1.1-.9 1.9-1.9 1.9H369c-1.1 0-1.9-.9-1.9-1.9v-3.8c0-1.1.9-1.9 1.9-1.9h4.7c1 0 1.9.8 1.9 1.9" class="st9"/><path d="M370 37c0-1.2 1-2.2 2.2-2.2h2.6v4.5h-2.6c-1.2-.1-2.2-1.1-2.2-2.3" class="st7"/><path d="M373.4 31h-7v-5.7h2v.4l.5.4h4.5z" class="st3"/><path d="M366.4 27.2h7v2.4h-7z" class="st4"/><path d="M368.8 30.4c-1 0-1.8-.8-1.8-1.8s.8-1.8 1.8-1.8 1.8.8 1.8 1.8-.8 1.8-1.8 1.8" class="st5"/><path d="M21.7 122.4h3.5v2.2h-3.5z" class="st10"/><circle cx="23.5" cy="123.6" r="1.3" class="st11"/><path d="M21.7 115.3h3.5v2.2h-3.5z" class="st10"/><circle cx="23.5" cy="116.4" r="1.3" class="st12"/><path d="M21.7 108.2h3.5v2.2h-3.5z" class="st10"/><circle cx="23.5" cy="109.3" r="1.3" class="st13"/><path d="M21.7 101.1h3.5v2.2h-3.5z" class="st10"/><circle cx="23.5" cy="102.2" r="1.3" class="st13"/><path d="M21.7 94h3.5v2.2h-3.5z" class="st10"/><circle cx="23.5" cy="95.1" r="1.3" class="st11"/><path d="M21.7 86.9h3.5v2.2h-3.5z" class="st10"/><circle cx="23.5" cy="88" r="1.3" class="st11"/><path d="M21.7 79.8h3.5V82h-3.5z" class="st10"/><circle cx="23.5" cy="80.9" r="1.3" class="st13"/><path d="M18.6 155.6h2.2v3.5h-2.2z" class="st10"/><circle cx="19.7" cy="157.3" r="1.3" class="st11"/><path d="M28.4 155.6h2.2v3.5h-2.2z" class="st10"/><circle cx="29.5" cy="157.3" r="1.3" class="st11"/><path d="M38.2 155.6h2.2v3.5h-2.2z" class="st10"/><circle cx="39.3" cy="157.3" r="1.3" class="st11"/><path d="M48 155.6h2.2v3.5H48z" class="st10"/><circle cx="49.1" cy="157.3" r="1.3" class="st11"/><path d="M57.8 155.6H60v3.5h-2.2z" class="st10"/><circle cx="58.9" cy="157.3" r="1.3" class="st11"/><path d="M67.6 155.6h2.2v3.5h-2.2z" class="st10"/><circle cx="68.7" cy="157.3" r="1.3" class="st11"/><path d="M77.4 155.6h2.2v3.5h-2.2z" class="st10"/><circle cx="78.5" cy="157.3" r="1.3" class="st11"/><path d="M87.2 155.6h2.2v3.5h-2.2z" class="st10"/><circle cx="88.3" cy="157.3" r="1.3" class="st11"/><path d="M126.4 155.6h2.2v3.5h-2.2z" class="st10"/><circle cx="127.6" cy="157.3" r="1.3" class="st13"/><path d="M136.2 155.6h2.2v3.5h-2.2z" class="st10"/><circle cx="137.4" cy="157.3" r="1.3" class="st13"/><path d="M146 155.6h2.2v3.5H146z" class="st10"/><circle cx="147.2" cy="157.3" r="1.3" class="st13"/><path d="M155.8 155.6h2.2v3.5h-2.2z" class="st10"/><circle cx="157" cy="157.3" r="1.3" class="st13"/><path d="M165.6 155.6h2.2v3.5h-2.2z" class="st10"/><circle cx="166.8" cy="157.3" r="1.3" class="st13"/><path d="M175.4 155.6h2.2v3.5h-2.2z" class="st10"/><circle cx="176.5" cy="157.3" r="1.3" class="st13"/><path d="M185.2 155.6h2.2v3.5h-2.2z" class="st10"/><circle cx="186.3" cy="157.3" r="1.3" class="st13"/><path d="M195 155.6h2.2v3.5H195z" class="st10"/><circle cx="196.1" cy="157.3" r="1.3" class="st13"/><path d="M234.3 155.6h2.2v3.5h-2.2z" class="st10"/><circle cx="235.4" cy="157.3" r="1.3" class="st12"/><path d="M244.1 155.6h2.2v3.5h-2.2z" class="st10"/><circle cx="245.2" cy="157.3" r="1.3" class="st12"/><path d="M253.9 155.6h2.2v3.5h-2.2z" class="st10"/><circle cx="255" cy="157.3" r="1.3" class="st12"/><path d="M263.7 155.6h2.2v3.5h-2.2z" class="st10"/><circle cx="264.8" cy="157.3" r="1.3" class="st12"/><path d="M273.5 155.6h2.2v3.5h-2.2z" class="st10"/><circle cx="274.6" cy="157.3" r="1.3" class="st12"/><path d="M283.3 155.6h2.2v3.5h-2.2z" class="st10"/><circle cx="284.4" cy="157.3" r="1.3" class="st12"/><path d="M293.1 155.6h2.2v3.5h-2.2z" class="st10"/><circle cx="294.2" cy="157.3" r="1.3" class="st12"/><path d="M302.9 155.6h2.2v3.5h-2.2z" class="st10"/><circle cx="304" cy="157.3" r="1.3" class="st12"/><path d="M312.6 155.6h2.2v3.5h-2.2z" class="st10"/><circle cx="313.8" cy="157.3" r="1.3" class="st12"/><path d="M322.4 155.6h2.2v3.5h-2.2z" class="st10"/><circle cx="323.6" cy="157.3" r="1.3" class="st12"/><path d="M332.2 155.6h2.2v3.5h-2.2z" class="st10"/><circle cx="333.4" cy="157.3" r="1.3" class="st12"/><path d="M342 155.6h2.2v3.5H342z" class="st10"/><circle cx="343.2" cy="157.3" r="1.3" class="st12"/></svg>