<svg xmlns="http://www.w3.org/2000/svg" xmlns:xlink="http://www.w3.org/1999/xlink" xml:space="preserve" id="a" x="0" y="0" viewBox="0 0 953.8 584.9"><style>.st0{fill:none}.st1{fill:#d35400}.st2{opacity:.25;fill:#fff;enable-background:new}.st5{fill:#241f21}.st8{fill:#95a5a6}.st11{fill:#c11f09}.st12{fill:#fff}.st16,.st17,.st18{fill:none;stroke-miterlimit:10}.st16{stroke:#fff;stroke-width:5}.st17,.st18{stroke:#c11f09}.st18{stroke:#00979d}.st19{fill:#00979d}.st20{fill:#171e21}</style><pattern id="b" width="9.3" height="9.3" y="584.9" patternUnits="userSpaceOnUse" style="overflow:visible" viewBox="0 -9.3 9.3 9.3"><path d="M0-9.3h9.3V0H0z" class="st0"/><path d="M0-9.3h9.3V0H0z" class="st0"/><path d="M0-9.3h9.3V0H0z" class="st1"/><path d="M9.3 0v-2.1L2.1-9.3H0v2.1L7.2 0zM9.3-7.2v-2.1H7.2zM0-2.1V0h2.1z" class="st2"/><path d="M0-9.3h9.3V0H0z" class="st0"/></pattern><pattern id="c" width="9.3" height="9.3" y="584.9" patternUnits="userSpaceOnUse" style="overflow:visible" viewBox="0 -9.3 9.3 9.3"><path d="M0-9.3h9.3V0H0z" class="st0"/><path d="M0-9.3h9.3V0H0z" class="st0"/><path d="M0-9.3h9.3V0H0z" class="st1"/><path d="M9.3 0v-2.1L2.1-9.3H0v2.1L7.2 0zM9.3-7.2v-2.1H7.2zM0-2.1V0h2.1z" class="st2"/><path d="M0-9.3h9.3V0H0z" class="st0"/></pattern><pattern id="d" width="9.3" height="9.3" y="584.9" patternUnits="userSpaceOnUse" style="overflow:visible" viewBox="0 -9.3 9.3 9.3"><path d="M0-9.3h9.3V0H0z" class="st0"/><path d="M0-9.3h9.3V0H0z" class="st0"/><path d="M0-9.3h9.3V0H0z" class="st1"/><path d="M9.3 0v-2.1L2.1-9.3H0v2.1L7.2 0zM9.3-7.2v-2.1H7.2zM0-2.1V0h2.1z" class="st2"/><path d="M0-9.3h9.3V0H0z" class="st0"/></pattern><path d="M252.7 482.7h15.9v15.9h-15.9z" style="fill:#f29c12"/><path d="M252.7 510.3h15.9v15.9h-15.9z" style="fill:#00969e"/><path d="M68.4 491.8v3h-1.6v-8.2h2.8c.4 0 .8.1 1.2.2s.7.3.9.5c.3.2.4.5.6.8.1.3.2.7.2 1.1s-.1.7-.2 1-.3.6-.6.8-.6.4-.9.5-.8.2-1.2.2h-1.2zm0-1.3h1.2c.2 0 .4 0 .6-.1s.3-.2.4-.3.2-.2.2-.4c.1-.2.1-.3.1-.5s0-.4-.1-.5c-.1-.2-.1-.3-.2-.4s-.2-.2-.4-.3-.4-.1-.6-.1h-1.2zM74.6 491.7c0-.4.1-.8.2-1.2s.3-.7.6-1 .5-.5.9-.6c.4-.2.8-.2 1.2-.2.5 0 .9.1 1.2.2q.6.3.9.6c.3.3.4.6.6 1 .1.4.2.8.2 1.2v.1c0 .4-.1.9-.2 1.2-.1.4-.3.7-.6 1s-.5.5-.9.6c-.4.2-.8.2-1.2.2-.5 0-.9-.1-1.2-.2q-.6-.3-.9-.6c-.3-.3-.4-.6-.6-1-.1-.4-.2-.8-.2-1.2zm1.6.1c0 .3 0 .5.1.7 0 .2.1.4.2.6s.2.3.4.4.4.1.6.1.4 0 .6-.1.3-.2.4-.4.2-.4.2-.6.1-.5.1-.7v-.1c0-.2 0-.5-.1-.7 0-.2-.1-.4-.2-.6s-.2-.3-.4-.4-.4-.1-.6-.1-.4 0-.6.1-.3.2-.4.4-.2.4-.2.6-.1.5-.1.7zM86.7 492.9l.5-4.2h1.4l-1.1 6.1h-1.4l-.8-3.9-.8 3.9h-1.4l-1.1-6.1h1.4l.5 4.2.8-4.2h1zM93.8 494.9c-.5 0-.9-.1-1.3-.2-.4-.2-.7-.4-1-.6q-.45-.45-.6-.9c-.1-.4-.2-.7-.2-1.1v-.2c0-.5.1-.9.2-1.3s.3-.7.6-1q.45-.45.9-.6c.45-.15.7-.2 1.2-.2.4 0 .8.1 1.2.2q.45.15.9.6c.45.45.4.6.5.9.1.4.2.8.2 1.2v.7h-4.1c0 .2.1.4.2.6s.2.3.4.4c.1.1.3.2.5.3s.4.1.6.1h.5c.2 0 .3-.1.4-.1.1-.1.3-.1.4-.2l.3-.3.8.8c-.1.1-.2.3-.4.4s-.3.3-.5.4-.4.2-.7.2-.7-.1-1-.1m-.2-5c-.2 0-.3 0-.5.1-.1.1-.3.2-.4.3s-.2.3-.3.4c-.1.2-.1.3-.2.5h2.6v-.2c0-.2 0-.3-.1-.5-.1-.1-.1-.3-.2-.4s-.2-.2-.4-.3-.3.1-.5.1M103.3 488.6h.7c.2 0 .4.1.5.1l-.2 1.6c-.2 0-.4-.1-.6-.1h-.6c-.4 0-.8.1-1.1.3s-.5.4-.6.7v3.6h-1.6v-6.1h1.5l.1 1c.2-.3.5-.6.9-.8s.6-.3 1-.3M68.5 521h3.8v1.3h-5.4v-8.2h1.6zM79.8 518.7h-3.4v2.3h3.9v1.3h-5.5v-8.2h5.5v1.3h-3.9v2.1h3.4zM82.8 522.3v-8.2h2.1q.75 0 1.5.3c.4.2.8.4 1.1.8.3.3.6.7.7 1.2q.3.75.3 1.5v.7c0 .5-.1 1.1-.3 1.5-.2.5-.4.9-.7 1.2s-.7.6-1.1.8-.9.3-1.4.3h-2.2zm1.6-6.9v5.6h.6c.3 0 .6-.1.8-.2s.4-.3.6-.5.3-.5.4-.8.1-.7.1-1v-.7c0-.4 0-.7-.1-1s-.2-.6-.4-.8-.4-.4-.6-.5-.5-.2-.8-.2h-.6zM67.1 541.7h4.7v1.3h-1.6v5.6h1.6v1.3h-4.7v-1.3h1.6V543h-1.6zM76.3 543.8l.1.8c.2-.3.5-.5.8-.7s.7-.2 1-.2.6 0 .8.1.5.2.7.4.3.4.4.8c.1.3.2.7.2 1.1v3.7h-1.6v-3.7c0-.2 0-.4-.1-.6s-.1-.3-.2-.4-.2-.2-.4-.2c-.1 0-.3-.1-.5-.1-.3 0-.5.1-.7.2s-.3.3-.5.4v4.3h-1.6v-6.1h1.6zM85.7 542.3v1.5H88v1.1h-2.3v2.6c0 .2 0 .4.1.6.1.1.1.3.2.4s.2.2.3.2.3.1.4.1h.8c.1 0 .2 0 .3-.1s.2 0 .3-.1l.2 1.1c-.1.1-.2.1-.4.2-.1 0-.3.1-.5.1s-.3.1-.5.1h-.5c-.3 0-.6 0-.9-.1s-.5-.2-.7-.4-.3-.4-.4-.7-.2-.6-.2-1v-2.8h-1.4V544h1.4v-1.5c0-.2 1.5-.2 1.5-.2M93.8 550c-.5 0-.9-.1-1.3-.2-.4-.2-.7-.4-1-.6q-.45-.45-.6-.9c-.1-.4-.2-.7-.2-1.1v-.2c0-.5.1-.9.2-1.3s.3-.7.6-1q.45-.45.9-.6c.45-.15.7-.2 1.2-.2.4 0 .8.1 1.2.2q.45.15.9.6c.45.45.4.6.5.9.1.4.2.8.2 1.2v.7h-4.1c0 .2.1.4.2.6s.2.3.4.4c.1.1.3.2.5.3s.4.1.6.1h.5c.2 0 .3-.1.4-.1.1-.1.3-.1.4-.2l.3-.3.8.8c-.1.1-.2.3-.4.4s-.3.3-.5.4-.4.2-.7.2-.7-.1-1-.1m-.2-5.1c-.2 0-.3 0-.5.1-.1.1-.3.2-.4.3s-.2.3-.3.4c-.1.2-.1.3-.2.5h2.6v-.1c0-.2 0-.3-.1-.5-.1-.1-.1-.3-.2-.4s-.2-.2-.4-.3-.3 0-.5 0M103.3 543.7h.7c.2 0 .4.1.5.1l-.2 1.6c-.2 0-.4-.1-.6-.1h-.6c-.4 0-.8.1-1.1.3s-.5.4-.6.7v3.6h-1.6v-6.1h1.5l.1 1c.2-.3.5-.6.9-.8s.6-.3 1-.3M108.3 543.8l.1.8c.2-.3.5-.5.8-.7s.7-.2 1-.2.6 0 .8.1.5.2.7.4.3.4.4.8c.1.3.2.7.2 1.1v3.7h-1.6v-3.7c0-.2 0-.4-.1-.6s-.1-.3-.2-.4-.2-.2-.4-.2c-.1 0-.3-.1-.5-.1-.3 0-.5.1-.7.2s-.3.3-.5.4v4.3h-1.6v-6.1h1.6zM118.7 549.8c0-.1-.1-.2-.1-.3s0-.2-.1-.3l-.3.3c-.1.1-.2.2-.4.2-.1.1-.3.1-.5.1s-.3.1-.5.1c-.3 0-.6 0-.9-.1s-.5-.2-.7-.4-.3-.4-.4-.6-.2-.5-.2-.7c0-.6.2-1.1.7-1.5.5-.3 1.2-.5 2.1-.5h.9v-.4c0-.3-.1-.5-.3-.7s-.5-.3-.8-.3-.5.1-.7.2c-.1.1-.2.3-.2.5h-1.6c0-.3.1-.5.2-.7s.3-.4.5-.6.5-.3.8-.4.7-.2 1.1-.2.7 0 1 .1.6.2.8.4.4.4.5.7.2.6.2.9v2.6c0 .3 0 .6.1.8s.1.4.2.5v.1h-1.4zm-1.4-1c.2 0 .3 0 .4-.1s.3-.1.4-.1.2-.1.3-.2.1-.2.2-.2v-1h-.8c-.2 0-.5 0-.6.1s-.3.1-.4.2-.2.2-.2.3c-.1.1-.1.2-.1.4s.1.4.2.5c0 0 .3.1.6.1M123.3 541.2h3.4v7.3h1.7v1.3h-5.1v-1.3h1.8v-6.1h-1.8zM140.6 546.9v3H139v-8.2h2.8c.4 0 .8.1 1.2.2s.7.3.9.5c.3.2.4.5.6.8.1.3.2.7.2 1.1s-.1.7-.2 1-.3.6-.6.8-.6.4-.9.5c-.4.1-.8.2-1.2.2h-1.2zm0-1.3h1.2c.2 0 .4 0 .6-.1s.3-.2.4-.3.2-.2.2-.4c.1-.2.1-.3.1-.5s0-.4-.1-.5c-.1-.2-.1-.3-.2-.4s-.2-.2-.4-.3-.4-.1-.6-.1h-1.2zM150.8 549.8c0-.1-.1-.2-.1-.3s0-.2-.1-.3l-.3.3c-.1.1-.2.2-.4.2-.1.1-.3.1-.5.1s-.3.1-.5.1c-.3 0-.6 0-.9-.1s-.5-.2-.7-.4-.3-.4-.4-.6-.2-.5-.2-.7c0-.6.2-1.1.7-1.5.5-.3 1.2-.5 2.1-.5h.9v-.4c0-.3-.1-.5-.3-.7s-.5-.3-.8-.3-.5.1-.7.2c-.1.1-.2.3-.2.5H147c0-.3.1-.5.2-.7s.3-.4.5-.6.5-.3.8-.4.7-.2 1.1-.2.7 0 1 .1.6.2.8.4.4.4.5.7.2.6.2.9v2.6c0 .3 0 .6.1.8 0 .2.1.4.2.5v.1h-1.6zm-1.5-1c.2 0 .3 0 .4-.1.1 0 .3-.1.4-.1s.2-.1.3-.2.1-.2.2-.2v-1h-.8c-.2 0-.5 0-.6.1s-.3.1-.4.2-.2.2-.2.3c-.1.1-.1.2-.1.4s.1.4.2.5c.1 0 .3.1.6.1M159.4 543.7h.7c.2 0 .4.1.5.1l-.2 1.6c-.2 0-.4-.1-.6-.1h-.6c-.4 0-.8.1-1.1.3s-.5.4-.6.7v3.6h-1.6v-6.1h1.5l.1 1c.2-.3.5-.6.9-.8.2-.2.6-.3 1-.3M165.9 542.3v1.5h2.3v1.1h-2.3v2.6c0 .2 0 .4.1.6.1.1.1.3.2.4s.2.2.3.2.3.1.4.1h.8c.1 0 .2 0 .3-.1.1 0 .2 0 .3-.1l.2 1.1c-.1.1-.2.1-.4.2-.1 0-.3.1-.5.1s-.3.1-.5.1h-.5c-.3 0-.6 0-.9-.1s-.5-.2-.7-.4-.3-.4-.4-.7-.2-.6-.2-1v-2.8H163V544h1.4v-1.5h1.5zM175 548.2c0-.1 0-.2-.1-.2 0-.1-.1-.1-.2-.2s-.3-.1-.4-.2-.4-.1-.7-.2c-.4-.1-.7-.2-1-.3s-.5-.2-.8-.4c-.2-.2-.4-.3-.5-.5s-.2-.4-.2-.7.1-.5.2-.7.3-.4.5-.6.5-.3.8-.4.7-.2 1.1-.2.8 0 1.1.1.6.2.9.4c.2.2.4.4.5.6s.2.5.2.8h-1.6q0-.3-.3-.6c-.2-.2-.5-.2-.9-.2s-.6.1-.8.2-.3.3-.3.5c0 .1 0 .2.1.2 0 .1.1.1.2.2s.2.1.4.2c.2 0 .4.1.6.1.4.1.7.1 1 .2s.6.2.8.4c.2.1.4.3.5.5s.2.5.2.8-.1.5-.2.7-.3.4-.5.6-.5.3-.9.4-.7.1-1.1.1c-.5 0-.9-.1-1.2-.2s-.6-.3-.9-.5-.4-.4-.5-.7c-.1-.2-.2-.5-.2-.7h1.5c0 .2.1.3.1.4l.3.3c.1.1.3.1.4.2.2 0 .3.1.5.1.4 0 .7-.1.9-.2.4 0 .5-.1.5-.3M283.6 486.6l.8 3.1.9-3.1h2v8.2h-1.4v-2.4l.1-3.8-1.1 3.5h-.9l-1-3.4.1 3.7v2.4h-1.4v-8.2zM290.2 488.7h3.3v4.8h1.6v1.3h-4.9v-1.3h1.7V490h-1.7zm1.6-1.5c0-.1 0-.2.1-.3s.1-.2.2-.3.2-.1.3-.2.2-.1.4-.1c.3 0 .5.1.7.2s.2.4.2.6-.1.4-.2.6-.4.2-.7.2c-.1 0-.3 0-.4-.1s-.2-.1-.3-.2-.1-.2-.2-.3c-.1.1-.1 0-.1-.1M300.5 493.6c.2 0 .3 0 .4-.1.1 0 .3-.1.4-.2s.2-.2.2-.3c.1-.1.1-.2.1-.4h1.5c0 .3-.1.6-.2.9s-.3.5-.6.7-.5.3-.8.5c-.3.1-.6.2-1 .2-.5 0-.9-.1-1.2-.2-.4-.2-.7-.4-.9-.7s-.4-.6-.5-1-.2-.8-.2-1.2v-.2c0-.4.1-.8.2-1.2s.3-.7.5-1 .5-.5.9-.7.8-.2 1.2-.2.7.1 1 .2.6.3.8.5.4.5.5.7c.1.3.2.6.2 1h-1.5c0-.1 0-.3-.1-.4s-.1-.2-.2-.3-.2-.2-.4-.2c-.1-.1-.3-.1-.5-.1s-.5.1-.6.2c-.2.1-.3.2-.4.4s-.2.4-.2.6-.1.4-.1.7v.2c0 .2 0 .5.1.7 0 .2.1.4.2.6s.2.3.4.4c.3-.1.5-.1.8-.1M310.2 488.6h.7c.2 0 .4.1.5.1l-.2 1.6c-.2 0-.4-.1-.6-.1h-.6c-.4 0-.8.1-1.1.3s-.5.4-.6.7v3.6h-1.6v-6.1h1.5l.1 1c.2-.3.5-.6.9-.8.2-.2.6-.3 1-.3M313.6 491.7c0-.4.1-.8.2-1.2s.3-.7.6-1q.3-.45.9-.6c.4-.2.8-.2 1.2-.2s.9.1 1.2.2q.6.3.9.6c.2.3.4.6.6 1 .1.4.2.8.2 1.2v.1c0 .4-.1.9-.2 1.2-.1.4-.3.7-.6 1q-.3.45-.9.6c-.4.2-.8.2-1.2.2-.5 0-.9-.1-1.2-.2q-.6-.3-.9-.6c-.2-.3-.4-.6-.6-1-.1-.4-.2-.8-.2-1.2zm1.6.1c0 .3 0 .5.1.7 0 .2.1.4.2.6s.2.3.4.4.4.1.6.1.4 0 .6-.1.3-.2.4-.4.2-.4.2-.6.1-.5.1-.7v-.1c0-.2 0-.5-.1-.7 0-.2-.1-.4-.2-.6s-.2-.3-.4-.4-.4-.1-.6-.1-.4 0-.6.1-.3.2-.4.4-.2.4-.2.6-.1.5-.1.7zM324.5 493.6c.2 0 .3 0 .4-.1.1 0 .3-.1.4-.2s.2-.2.2-.3c.1-.1.1-.2.1-.4h1.5c0 .3-.1.6-.2.9s-.3.5-.6.7-.5.3-.8.5c-.3.1-.6.2-1 .2-.5 0-.9-.1-1.2-.2-.4-.2-.7-.4-.9-.7s-.4-.6-.5-1-.2-.8-.2-1.2v-.2c0-.4.1-.8.2-1.2s.3-.7.5-1 .5-.5.9-.7.8-.2 1.2-.2.7.1 1 .2.6.3.8.5.4.5.5.7c.1.3.2.6.2 1h-1.5c0-.1 0-.3-.1-.4s-.1-.2-.2-.3-.2-.2-.4-.2c-.1-.1-.3-.1-.5-.1s-.5.1-.6.2c-.2.1-.3.2-.4.4s-.2.4-.2.6-.1.4-.1.7v.2c0 .2 0 .5.1.7 0 .2.1.4.2.6s.2.3.4.4c.4-.1.6-.1.8-.1M329.7 491.7c0-.4.1-.8.2-1.2s.3-.7.6-1q.3-.45.9-.6c.4-.2.8-.2 1.2-.2s.9.1 1.2.2q.6.3.9.6c.2.3.4.6.6 1 .1.4.2.8.2 1.2v.1c0 .4-.1.9-.2 1.2-.1.4-.3.7-.6 1q-.3.45-.9.6c-.4.2-.8.2-1.2.2-.5 0-.9-.1-1.2-.2q-.6-.3-.9-.6c-.2-.3-.4-.6-.6-1-.1-.4-.2-.8-.2-1.2zm1.5.1c0 .3 0 .5.1.7 0 .2.1.4.2.6s.2.3.4.4.4.1.6.1.4 0 .6-.1.3-.2.4-.4.2-.4.2-.6.1-.5.1-.7v-.1c0-.2 0-.5-.1-.7 0-.2-.1-.4-.2-.6s-.2-.3-.4-.4-.4-.1-.6-.1-.4 0-.6.1-.3.2-.4.4-.2.4-.2.6-.1.5-.1.7zM339.3 488.7l.1.8c.2-.3.5-.5.8-.7s.7-.2 1-.2.6 0 .8.1c.3.1.5.2.7.4s.3.4.4.8c.1.3.2.7.2 1.1v3.7h-1.6V491c0-.2 0-.4-.1-.6s-.1-.3-.2-.4-.2-.2-.4-.2c-.1 0-.3-.1-.5-.1-.3 0-.5.1-.7.2s-.3.3-.5.4v4.3h-1.6v-6.1h1.6zM348.8 487.2v1.5h2.3v1.1h-2.3v2.6c0 .2 0 .4.1.6.1.1.1.3.2.4s.2.2.3.2.3.1.4.1h.8c.1 0 .2 0 .3-.1.1 0 .2 0 .3-.1l.2 1.1c-.1.1-.2.1-.4.2-.1 0-.3.1-.5.1s-.3.1-.5.1h-.5c-.3 0-.6 0-.9-.1s-.5-.2-.7-.4-.3-.4-.4-.7-.2-.6-.2-1V490h-1.4v-1.1h1.4v-1.5h1.5zM358.3 488.6h.7c.2 0 .4.1.5.1l-.2 1.6c-.2 0-.4-.1-.6-.1h-.6c-.4 0-.8.1-1.1.3s-.5.4-.6.7v3.6h-1.6v-6.1h1.5l.1 1c.2-.3.5-.6.9-.8.2-.2.6-.3 1-.3M361.8 491.7c0-.4.1-.8.2-1.2s.3-.7.6-1q.3-.45.9-.6c.4-.2.8-.2 1.2-.2s.9.1 1.2.2q.6.3.9.6c.2.3.4.6.6 1 .1.4.2.8.2 1.2v.1c0 .4-.1.9-.2 1.2-.1.4-.3.7-.6 1q-.3.45-.9.6c-.4.2-.8.2-1.2.2-.5 0-.9-.1-1.2-.2q-.6-.3-.9-.6c-.2-.3-.4-.6-.6-1-.1-.4-.2-.8-.2-1.2zm1.5.1c0 .3 0 .5.1.7 0 .2.1.4.2.6s.2.3.4.4.4.1.6.1.4 0 .6-.1.3-.2.4-.4.2-.4.2-.6.1-.5.1-.7v-.1c0-.2 0-.5-.1-.7 0-.2-.1-.4-.2-.6s-.2-.3-.4-.4-.4-.1-.6-.1-.4 0-.6.1-.3.2-.4.4-.2.4-.2.6-.1.5-.1.7zM370.3 486.2h3.4v7.3h1.7v1.3h-5.1v-1.3h1.8v-6.1h-1.8zM378.3 486.2h3.4v7.3h1.7v1.3h-5.1v-1.3h1.8v-6.1h-1.8zM389 494.9c-.5 0-.9-.1-1.3-.2-.4-.2-.7-.4-1-.6q-.45-.45-.6-.9c-.1-.4-.2-.7-.2-1.1v-.2c0-.5.1-.9.2-1.3s.3-.7.6-1q.45-.45.9-.6c.45-.15.7-.2 1.2-.2.4 0 .8.1 1.2.2q.45.15.9.6c.2.3.4.6.5.9.1.4.2.8.2 1.2v.7h-4.1c0 .2.1.4.2.6s.2.3.4.4c.1.1.3.2.5.3s.4.1.6.1h.5c.2 0 .3-.1.4-.1.1-.1.3-.1.4-.2l.3-.3.8.8c-.1.1-.2.3-.4.4s-.3.3-.5.4-.4.2-.7.2-.7-.1-1-.1m-.2-5c-.2 0-.3 0-.5.1s-.3.2-.4.3-.2.3-.3.4c-.1.2-.1.3-.2.5h2.6v-.2c0-.2 0-.3-.1-.5-.1-.1-.1-.3-.2-.4s-.2-.2-.4-.3-.3.1-.5.1M398.4 488.6h.7c.2 0 .4.1.5.1l-.2 1.6c-.2 0-.4-.1-.6-.1h-.6c-.4 0-.8.1-1.1.3s-.5.4-.6.7v3.6h-1.6v-6.1h1.5l.1 1c.2-.3.5-.6.9-.8.2-.2.6-.3 1-.3" class="st5"/><pattern xlink:href="#b" id="SVGID_1_" patternTransform="matrix(1 0 0 -1 12.883 -15904.916)"/><path d="M252.7 537.8h15.9v15.9h-15.9z" style="fill:url(#SVGID_1_)"/><path d="M287.4 547.2c0 .4-.1.8-.3 1.1s-.4.6-.6.8c-.3.2-.6.4-.9.5-.4.1-.7.2-1.2.2s-.9-.1-1.3-.3-.7-.4-.9-.7c-.3-.3-.4-.7-.6-1.2-.1-.4-.2-.9-.2-1.5V545c0-.5.1-1 .2-1.5q.15-.6.6-1.2c.45-.6.6-.6.9-.7.4-.2.8-.3 1.3-.3.4 0 .8.1 1.2.2.3.1.6.3.9.5q.3.3.6.9c.1.3.2.7.3 1.1h-1.6c0-.2-.1-.5-.1-.6-.1-.2-.1-.3-.3-.5-.1-.1-.2-.2-.4-.3s-.4-.1-.6-.1-.5.1-.6.2c-.2.1-.3.3-.4.5s-.2.4-.3.7-.1.6-.1 1v1.1q0 1.2.3 1.8c.2.4.6.6 1.1.6.4 0 .7-.1 1-.3.2-.2.4-.6.4-1.1h1.6zM289.6 546.7c0-.4.1-.8.2-1.2s.3-.7.6-1q.3-.45.9-.6c.4-.2.8-.2 1.2-.2s.9.1 1.2.2q.6.3.9.6c.2.3.4.6.6 1 .1.4.2.8.2 1.2v.1c0 .4-.1.9-.2 1.2-.1.4-.3.7-.6 1q-.3.45-.9.6c-.4.2-.8.2-1.2.2-.5 0-.9-.1-1.2-.2q-.6-.3-.9-.6c-.2-.3-.4-.6-.6-1-.1-.4-.2-.8-.2-1.2zm1.5.1c0 .3 0 .5.1.7 0 .2.1.4.2.6s.2.3.4.4.4.1.6.1.4 0 .6-.1.3-.2.4-.4.2-.4.2-.6.1-.5.1-.7v-.1c0-.2 0-.5-.1-.7 0-.2-.1-.4-.2-.6s-.2-.3-.4-.4-.4-.1-.6-.1-.4 0-.6.1-.3.2-.4.4-.2.4-.2.6-.1.5-.1.7zM299.2 543.7l.1.8c.2-.3.5-.5.8-.7s.7-.2 1-.2.6 0 .8.1c.3.1.5.2.7.4s.3.4.4.8c.1.3.2.7.2 1.1v3.7h-1.6V546c0-.2 0-.4-.1-.6s-.1-.3-.2-.4-.2-.2-.4-.2c-.1 0-.3-.1-.5-.1-.3 0-.5.1-.7.2s-.3.3-.5.4v4.3h-1.6v-6.1h1.6zM307.2 543.7l.1.8c.2-.3.5-.5.8-.7s.7-.2 1-.2.6 0 .8.1c.3.1.5.2.7.4s.3.4.4.8c.1.3.2.7.2 1.1v3.7h-1.6V546c0-.2 0-.4-.1-.6s-.1-.3-.2-.4-.2-.2-.4-.2c-.1 0-.3-.1-.5-.1-.3 0-.5.1-.7.2s-.3.3-.5.4v4.3h-1.6v-6.1h1.6zM316.8 549.9c-.5 0-.9-.1-1.3-.2-.4-.2-.7-.4-1-.6q-.45-.45-.6-.9c-.1-.4-.2-.7-.2-1.1v-.2c0-.5.1-.9.2-1.3s.3-.7.6-1q.45-.45.9-.6c.45-.15.7-.2 1.2-.2.4 0 .8.1 1.2.2q.45.15.9.6c.2.3.4.6.5.9.1.4.2.8.2 1.2v.7h-4.1c0 .2.1.4.2.6s.2.3.4.4c.1.1.3.2.5.3s.4.1.6.1h.5c.2 0 .3-.1.4-.1.1-.1.3-.1.4-.2l.3-.3.8.8c-.1.1-.2.3-.4.4s-.3.3-.5.4-.4.2-.7.2-.7-.1-1-.1m-.2-5c-.2 0-.3 0-.5.1s-.3.2-.4.3-.2.3-.3.4c-.1.2-.1.3-.2.5h2.6v-.1c0-.2 0-.3-.1-.5-.1-.1-.1-.3-.2-.4s-.2-.2-.4-.3-.3 0-.5 0M324.5 548.7c.2 0 .3 0 .4-.1.1 0 .3-.1.4-.2s.2-.2.2-.3c.1-.1.1-.2.1-.4h1.5c0 .3-.1.6-.2.9s-.3.5-.6.7-.5.3-.8.5c-.3.1-.6.2-1 .2-.5 0-.9-.1-1.2-.2-.4-.2-.7-.4-.9-.7s-.4-.6-.5-1-.2-.8-.2-1.2v-.2c0-.4.1-.8.2-1.2s.3-.7.5-1 .5-.5.9-.7.8-.2 1.2-.2.7.1 1 .2.6.3.8.5.4.5.5.7c.1.3.2.6.2 1h-1.5c0-.1 0-.3-.1-.4s-.1-.2-.2-.3-.2-.2-.4-.2c-.1-.1-.3-.1-.5-.1s-.5.1-.6.2c-.2.1-.3.2-.4.4s-.2.4-.2.6-.1.4-.1.7v.2c0 .2 0 .5.1.7 0 .2.1.4.2.6s.2.3.4.4c.4-.2.6-.1.8-.1M332.7 542.2v1.5h2.3v1.1h-2.3v2.6c0 .2 0 .4.1.6.1.1.1.3.2.4s.2.2.3.2.3.1.4.1h.8c.1 0 .2 0 .3-.1.1 0 .2 0 .3-.1l.2 1.1c-.1.1-.2.1-.4.2-.1 0-.3.1-.5.1s-.3.1-.5.1h-.5c-.3 0-.6 0-.9-.1s-.5-.2-.7-.4-.3-.4-.4-.7-.2-.6-.2-1V545h-1.4v-1.1h1.4v-1.5h1.5zM337.7 546.7c0-.4.1-.8.2-1.2s.3-.7.6-1q.3-.45.9-.6c.4-.2.8-.2 1.2-.2s.9.1 1.2.2q.6.3.9.6c.2.3.4.6.6 1 .1.4.2.8.2 1.2v.1c0 .4-.1.9-.2 1.2-.1.4-.3.7-.6 1q-.3.45-.9.6c-.4.2-.8.2-1.2.2-.5 0-.9-.1-1.2-.2q-.6-.3-.9-.6c-.2-.3-.4-.6-.6-1-.1-.4-.2-.8-.2-1.2zm1.6.1c0 .3 0 .5.1.7 0 .2.1.4.2.6s.2.3.4.4.4.1.6.1.4 0 .6-.1.3-.2.4-.4.2-.4.2-.6.1-.5.1-.7v-.1c0-.2 0-.5-.1-.7 0-.2-.1-.4-.2-.6s-.2-.3-.4-.4-.4-.1-.6-.1-.4 0-.6.1-.3.2-.4.4-.2.4-.2.6-.1.5-.1.7zM350.3 543.6h.7c.2 0 .4.1.5.1l-.2 1.6c-.2 0-.4-.1-.6-.1h-.6c-.4 0-.8.1-1.1.3s-.5.4-.6.7v3.6h-1.6v-6.1h1.5l.1 1c.2-.3.5-.6.9-.8.2-.2.6-.3 1-.3M357.9 548.1c0-.1 0-.2-.1-.2 0-.1-.1-.1-.2-.2s-.3-.1-.4-.2-.4-.1-.7-.2c-.4-.1-.7-.2-1-.3s-.5-.2-.8-.4c-.2-.2-.4-.3-.5-.5s-.2-.4-.2-.7.1-.5.2-.7.3-.4.5-.6.5-.3.8-.4.7-.2 1.1-.2.8 0 1.1.1.6.2.9.4c.2.2.4.4.5.6s.2.5.2.8h-1.6q0-.3-.3-.6c-.2-.2-.5-.2-.9-.2s-.6.1-.8.2-.3.3-.3.5c0 .1 0 .2.1.2 0 .1.1.1.2.2s.2.1.4.2c.2 0 .4.1.6.1.4.1.7.1 1 .2s.6.2.8.4c.2.1.4.3.5.5s.2.5.2.8-.1.5-.2.7-.3.4-.5.6-.5.3-.9.4-.7.1-1.1.1c-.5 0-.9-.1-1.2-.2s-.6-.3-.9-.5-.4-.4-.5-.7c-.1-.2-.2-.5-.2-.7h1.5c0 .2.1.3.1.4l.3.3c.1.1.3.1.4.2.2 0 .3.1.5.1.4 0 .7-.1.9-.2.4.1.5-.1.5-.3M281.7 522.3v-8.2h2.1q.75 0 1.5.3c.4.2.8.4 1.1.8.3.3.6.7.7 1.2q.3.75.3 1.5v.7c0 .5-.1 1.1-.3 1.5-.2.5-.4.9-.7 1.2s-.7.6-1.1.8-.9.3-1.4.3h-2.2zm1.6-6.9v5.6h.6c.3 0 .6-.1.8-.2s.4-.3.6-.5.3-.5.4-.8.1-.7.1-1v-.7c0-.4 0-.7-.1-1s-.2-.6-.4-.8-.4-.4-.6-.5-.5-.2-.8-.2h-.6zM293.6 522.3c0-.1-.1-.2-.1-.3s0-.2-.1-.3l-.3.3c-.1.1-.2.2-.4.2-.1.1-.3.1-.5.1s-.3.1-.5.1c-.3 0-.6 0-.9-.1s-.5-.2-.7-.4-.3-.4-.4-.6-.2-.5-.2-.7c0-.6.2-1.1.7-1.5.5-.3 1.2-.5 2.1-.5h.9v-.4c0-.3-.1-.5-.3-.7s-.5-.3-.8-.3-.5.1-.7.2c-.1.1-.2.3-.2.5h-1.6c0-.3.1-.5.2-.7s.3-.4.5-.6.5-.3.8-.4.7-.2 1.1-.2.7 0 1 .1.6.2.8.4.4.4.5.7.2.6.2.9v2.6c0 .3 0 .6.1.8 0 .2.1.4.2.5v.1h-1.4zm-1.5-1.1c.2 0 .3 0 .4-.1.1 0 .3-.1.4-.1s.2-.1.3-.2.1-.2.2-.2v-1h-.8c-.2 0-.5 0-.6.1s-.3.1-.4.2-.2.2-.2.3c-.1.1-.1.2-.1.4s.1.4.2.5c.1 0 .3.1.6.1M300.7 514.8v1.5h2.3v1.1h-2.3v2.6c0 .2 0 .4.1.6.1.1.1.3.2.4s.2.2.3.2.3.1.4.1h.8c.1 0 .2 0 .3-.1.1 0 .2 0 .3-.1l.2 1.1c-.1.1-.2.1-.4.2-.1 0-.3.1-.5.1s-.3.1-.5.1h-.5c-.3 0-.6 0-.9-.1s-.5-.2-.7-.4-.3-.4-.4-.7-.2-.6-.2-1v-2.8h-1.4v-1.1h1.4V515h1.5zM309.6 522.3c0-.1-.1-.2-.1-.3s0-.2-.1-.3l-.3.3c-.1.1-.2.2-.4.2-.1.1-.3.1-.5.1s-.3.1-.5.1c-.3 0-.6 0-.9-.1s-.5-.2-.7-.4-.3-.4-.4-.6-.2-.5-.2-.7c0-.6.2-1.1.7-1.5.5-.3 1.2-.5 2.1-.5h.9v-.4c0-.3-.1-.5-.3-.7s-.5-.3-.8-.3-.5.1-.7.2c-.1.1-.2.3-.2.5h-1.6c0-.3.1-.5.2-.7s.3-.4.5-.6.5-.3.8-.4.7-.2 1.1-.2.7 0 1 .1.6.2.8.4.4.4.5.7.2.6.2.9v2.6c0 .3 0 .6.1.8 0 .2.1.4.2.5v.1h-1.4zm-1.5-1.1c.2 0 .3 0 .4-.1.1 0 .3-.1.4-.1s.2-.1.3-.2.1-.2.2-.2v-1h-.8c-.2 0-.5 0-.6.1s-.3.1-.4.2-.2.2-.2.3c-.1.1-.1.2-.1.4s.1.4.2.5c.1 0 .3.1.6.1M327.5 519.8c0 .4-.1.8-.3 1.1s-.4.6-.6.8c-.3.2-.6.4-.9.5-.4.1-.7.2-1.2.2s-.9-.1-1.3-.3-.7-.4-.9-.7c-.3-.3-.4-.7-.6-1.2-.1-.4-.2-.9-.2-1.5v-1.1c0-.5.1-1 .2-1.5q.15-.6.6-1.2c.45-.6.6-.6.9-.7.4-.2.8-.3 1.3-.3.4 0 .8.1 1.2.2.3.1.6.3.9.5q.3.3.6.9c.1.3.2.7.3 1.1h-1.6c0-.2-.1-.5-.1-.6-.1-.2-.1-.3-.3-.5-.1-.1-.2-.2-.4-.3s-.4-.1-.6-.1-.5.1-.6.2c-.2.1-.3.3-.4.5s-.2.4-.3.7-.1.6-.1 1v1.1q0 1.2.3 1.8c.2.4.6.6 1.1.6.4 0 .7-.1 1-.3.2-.2.4-.6.4-1.1h1.6zM329.7 519.2c0-.4.1-.8.2-1.2s.3-.7.6-1q.3-.45.9-.6c.4-.2.8-.2 1.2-.2s.9.1 1.2.2q.6.3.9.6c.2.3.4.6.6 1 .1.4.2.8.2 1.2v.1c0 .4-.1.9-.2 1.2-.1.4-.3.7-.6 1q-.3.45-.9.6c-.4.2-.8.2-1.2.2-.5 0-.9-.1-1.2-.2q-.6-.3-.9-.6c-.2-.3-.4-.6-.6-1-.1-.4-.2-.8-.2-1.2zm1.5.1c0 .3 0 .5.1.7 0 .2.1.4.2.6s.2.3.4.4.4.1.6.1.4 0 .6-.1.3-.2.4-.4.2-.4.2-.6.1-.5.1-.7v-.1c0-.2 0-.5-.1-.7 0-.2-.1-.4-.2-.6s-.2-.3-.4-.4-.4-.1-.6-.1-.4 0-.6.1-.3.2-.4.4-.2.4-.2.6-.1.5-.1.7zM338.9 516.2v.7c.1-.3.3-.5.5-.6.2-.2.5-.2.7-.2.5 0 .8.2 1 .6.1-.2.3-.4.5-.5s.4-.2.7-.2c.2 0 .4 0 .5.1.2.1.3.2.4.3q.15.15.3.6c.15.45.1.5.1.9v4.3h-1.4v-4.5c0-.1-.1-.1-.1-.2s-.1-.1-.1-.1h-.2c-.1 0-.2 0-.3.1-.1 0-.1.1-.2.2v4.6h-1.4v-4.6c0-.1-.1-.1-.1-.2s-.1-.1-.1-.1h-.2c-.1 0-.2 0-.3.1s-.1.2-.2.3v4.5h-1.4v-6.1zM346.9 516.2v.7c.1-.3.3-.5.5-.6.2-.2.5-.2.7-.2.5 0 .8.2 1 .6.1-.2.3-.4.5-.5s.4-.2.7-.2c.2 0 .4 0 .5.1.2.1.3.2.4.3q.15.15.3.6c.15.45.1.5.1.9v4.3h-1.4v-4.5c0-.1-.1-.1-.1-.2s-.1-.1-.1-.1h-.2c-.1 0-.2 0-.3.1-.1 0-.1.1-.2.2v4.6h-1.4v-4.6c0-.1-.1-.1-.1-.2s-.1-.1-.1-.1h-.2c-.1 0-.2 0-.3.1s-.1.2-.2.3v4.5h-1.4v-6.1zM357.8 521.5c-.2.3-.5.5-.7.7q-.45.3-.9.3c-.3 0-.6 0-.9-.1s-.5-.3-.7-.5-.3-.5-.4-.8-.2-.7-.2-1.2v-3.6h1.6v3.6c0 .2 0 .5.1.6 0 .2.1.3.2.4s.2.2.3.2.3.1.5.1c.3 0 .6-.1.8-.2s.3-.3.4-.5v-4.3h1.6v6.1h-1.4zM363.4 516.2l.1.8c.2-.3.5-.5.8-.7s.7-.2 1-.2.6 0 .8.1c.3.1.5.2.7.4s.3.4.4.8c.1.3.2.7.2 1.1v3.7h-1.6v-3.7c0-.2 0-.4-.1-.6s-.1-.3-.2-.4-.2-.2-.4-.2c-.1 0-.3-.1-.5-.1-.3 0-.5.1-.7.2s-.3.3-.5.4v4.3H362V516h1.4zM370.4 516.2h3.3v4.8h1.6v1.3h-4.9V521h1.7v-3.5h-1.7zm1.6-1.5c0-.1 0-.2.1-.3s.1-.2.2-.3.2-.1.3-.2.2-.1.4-.1c.3 0 .5.1.7.2s.2.4.2.6-.1.4-.2.6-.4.2-.7.2c-.1 0-.3 0-.4-.1s-.2-.1-.3-.2-.1-.2-.2-.3c-.1.1-.1 0-.1-.1M380.7 521.2c.2 0 .3 0 .4-.1.1 0 .3-.1.4-.2s.2-.2.2-.3c.1-.1.1-.2.1-.4h1.5c0 .3-.1.6-.2.9s-.3.5-.6.7-.5.3-.8.5c-.3.1-.6.2-1 .2-.5 0-.9-.1-1.2-.2-.4-.2-.7-.4-.9-.7s-.4-.6-.5-1-.2-.8-.2-1.2v-.2c0-.4.1-.8.2-1.2s.3-.7.5-1 .5-.5.9-.7.8-.2 1.2-.2.7.1 1 .2.6.3.8.5.4.5.5.7c.1.3.2.6.2 1h-1.5c0-.1 0-.3-.1-.4s-.1-.2-.2-.3-.2-.2-.4-.2c-.1-.1-.3-.1-.5-.1s-.5.1-.6.2c-.2.1-.3.2-.4.4s-.2.4-.2.6-.1.4-.1.7v.2c0 .2 0 .5.1.7 0 .2.1.4.2.6s.2.3.4.4c.3-.2.5-.1.8-.1M389.8 522.3c0-.1-.1-.2-.1-.3s0-.2-.1-.3l-.3.3c-.1.1-.2.2-.4.2-.1.1-.3.1-.5.1s-.3.1-.5.1c-.3 0-.6 0-.9-.1s-.5-.2-.7-.4-.3-.4-.4-.6-.2-.5-.2-.7c0-.6.2-1.1.7-1.5.5-.3 1.2-.5 2.1-.5h.9v-.4c0-.3-.1-.5-.3-.7s-.5-.3-.8-.3-.5.1-.7.2c-.1.1-.2.3-.2.5H386c0-.3.1-.5.2-.7s.3-.4.5-.6.5-.3.8-.4.7-.2 1.1-.2.7 0 1 .1.6.2.8.4.4.4.5.7.2.6.2.9v2.6c0 .3 0 .6.1.8 0 .2.1.4.2.5v.1h-1.6zm-1.5-1.1c.2 0 .3 0 .4-.1.1 0 .3-.1.4-.1s.2-.1.3-.2.1-.2.2-.2v-1h-.8c-.2 0-.5 0-.6.1s-.3.1-.4.2-.2.2-.2.3c-.1.1-.1.2-.1.4s.1.4.2.5c.1 0 .3.1.6.1M396.9 514.8v1.5h2.3v1.1h-2.3v2.6c0 .2 0 .4.1.6.1.1.1.3.2.4s.2.2.3.2.3.1.4.1h.8c.1 0 .2 0 .3-.1.1 0 .2 0 .3-.1l.2 1.1c-.1.1-.2.1-.4.2-.1 0-.3.1-.5.1s-.3.1-.5.1h-.5c-.3 0-.6 0-.9-.1s-.5-.2-.7-.4-.3-.4-.4-.7-.2-.6-.2-1v-2.8H394v-1.1h1.4V515h1.5zM402.5 516.2h3.3v4.8h1.6v1.3h-4.9V521h1.7v-3.5h-1.7zm1.6-1.5c0-.1 0-.2.1-.3s.1-.2.2-.3.2-.1.3-.2.2-.1.4-.1c.3 0 .5.1.7.2s.2.4.2.6-.1.4-.2.6-.4.2-.7.2c-.1 0-.3 0-.4-.1s-.2-.1-.3-.2-.1-.2-.2-.3c-.1.1-.1 0-.1-.1M409.9 519.2c0-.4.1-.8.2-1.2s.3-.7.6-1q.3-.45.9-.6c.4-.2.8-.2 1.2-.2s.9.1 1.2.2q.6.3.9.6c.2.3.4.6.6 1 .1.4.2.8.2 1.2v.1c0 .4-.1.9-.2 1.2-.1.4-.3.7-.6 1q-.3.45-.9.6c-.4.2-.8.2-1.2.2-.5 0-.9-.1-1.2-.2q-.6-.3-.9-.6c-.2-.3-.4-.6-.6-1-.1-.4-.2-.8-.2-1.2zm1.5.1c0 .3 0 .5.1.7 0 .2.1.4.2.6s.2.3.4.4.4.1.6.1.4 0 .6-.1.3-.2.4-.4.2-.4.2-.6.1-.5.1-.7v-.1c0-.2 0-.5-.1-.7 0-.2-.1-.4-.2-.6s-.2-.3-.4-.4-.4-.1-.6-.1-.4 0-.6.1-.3.2-.4.4-.2.4-.2.6-.1.5-.1.7zM419.5 516.2l.1.8c.2-.3.5-.5.8-.7s.7-.2 1-.2.6 0 .8.1c.3.1.5.2.7.4s.3.4.4.8c.1.3.2.7.2 1.1v3.7H422v-3.7c0-.2 0-.4-.1-.6s-.1-.3-.2-.4-.2-.2-.4-.2c-.1 0-.3-.1-.5-.1-.3 0-.5.1-.7.2s-.3.3-.5.4v4.3H418V516h1.5z" class="st5"/><path d="M37.7 510.3h15.9v15.9H37.7z" style="fill:#1ca187"/><path d="M37.7 537.8h15.9v15.9H37.7z" class="st8"/><path d="M37.7 482.7h15.9v15.9H37.7z" style="fill:#c21f0a"/><path d="M176.1 92.1h611.5v342.4H176.1z" style="fill:none;stroke:#cceaeb;stroke-width:5;stroke-miterlimit:10"/><path d="M82 131.9v6.1c0 .5-.1 1-.2 1.4s-.3.7-.6 1-.6.5-1 .6-.8.2-1.3.2-.9-.1-1.3-.2-.7-.4-1-.6c-.3-.3-.5-.6-.6-1s-.2-.9-.2-1.4v-6.1h1.8v6.1c0 .6.1 1.1.3 1.4s.5.5.9.5.8-.2 1-.5.3-.8.4-1.4v-6.1zM89.2 138.7c0-.2 0-.3-.1-.5-.1-.1-.2-.3-.3-.4s-.3-.2-.5-.3-.5-.2-.8-.3c-.4-.1-.8-.2-1.2-.4s-.7-.4-1-.6-.5-.5-.7-.8-.3-.7-.3-1.1.1-.7.2-1.1c.2-.3.4-.6.7-.8s.6-.4 1-.5.8-.2 1.3-.2.9.1 1.3.2.7.3 1 .6.5.6.7.9.2.7.2 1.1H89c0-.2 0-.4-.1-.6s-.2-.3-.3-.4-.3-.2-.5-.3-.4-.1-.7-.1c-.2 0-.4 0-.6.1s-.3.1-.5.2c-.1.1-.2.2-.3.4-.1.1-.1.3-.1.5s0 .3.1.5c.1.1.2.3.4.4l.6.3c.2.1.5.2.8.3.4.1.8.3 1.2.5q.6.3.9.6c.3.2.5.5.6.8s.2.7.2 1c0 .4-.1.8-.2 1.1-.2.3-.4.6-.7.8s-.6.4-1 .5-.8.2-1.3.2c-.3 0-.6 0-.9-.1s-.6-.1-.8-.2c-.3-.1-.5-.2-.7-.4l-.6-.6c-.2-.2-.3-.5-.4-.8s-.1-.6-.1-.9h1.8c0 .3.1.5.1.7.1.2.2.4.4.5l.6.3c.2.1.5.1.7.1s.4 0 .6-.1.3-.1.5-.2c.1-.1.2-.2.3-.4s.2-.3.2-.5M92.8 141.2v-9.3h3.1c.5 0 1 .1 1.4.2s.8.3 1.1.5.5.5.7.8.2.7.2 1.1q0 .6-.3 1.2c-.3.6-.6.6-1 .8.3.1.5.2.7.3s.4.3.5.5l.3.6c.1.2.1.4.1.7 0 .4-.1.8-.2 1.2-.2.3-.4.6-.7.9-.3.2-.6.4-1 .5s-.9.2-1.4.2c-.1-.2-3.5-.2-3.5-.2m1.8-5.4h1.3c.5 0 .9-.1 1.1-.3s.4-.5.4-.9-.1-.7-.4-.9q-.45-.3-1.2-.3h-1.3v2.4zm0 1.3v2.6h1.6c.5 0 .9-.1 1.1-.4s.4-.5.4-.9-.1-.8-.3-1-.6-.4-1.1-.4h-1.7zM560.2 368.2l.9 3.5 1-3.5h2.2v9.3h-1.6v-2.7l.1-4.3-1.2 4h-.9l-1.1-3.9.1 4.2v2.7H558v-9.3zM566.3 374c0-.5.1-1 .2-1.4s.4-.8.6-1.1c.3-.3.6-.6 1-.7.4-.2.9-.3 1.4-.3s1 .1 1.4.3.7.4 1 .7.5.7.6 1.1.2.9.2 1.4v.1c0 .5-.1 1-.2 1.4s-.4.8-.6 1.1c-.3.3-.6.6-1 .7-.4.2-.9.3-1.4.3s-1-.1-1.4-.3-.7-.4-1-.7-.5-.7-.6-1.1-.2-.9-.2-1.4zm1.8.1c0 .3 0 .6.1.8.1.3.1.5.3.7s.3.3.5.4.4.2.7.2.5-.1.7-.2.3-.3.5-.4c.1-.2.2-.4.3-.7s.1-.5.1-.8v-.1c0-.3 0-.5-.1-.8s-.1-.5-.3-.7c-.1-.2-.3-.3-.5-.5-.2-.1-.4-.2-.7-.2s-.5.1-.7.2-.3.3-.5.5-.2.4-.3.7-.1.5-.1.8zM578.3 368.9v1.7h2.6v1.3h-2.6v3c0 .3 0 .5.1.6.1.2.1.3.2.4s.2.2.4.2.3.1.5.1h.8c.1 0 .2 0 .4-.1.1 0 .2 0 .3-.1l.2 1.2c-.1.1-.3.1-.4.2s-.3.1-.5.1-.4.1-.6.1h-.6c-.4 0-.7 0-1-.1s-.6-.3-.8-.5-.4-.5-.5-.8-.2-.7-.2-1.2v-3.1H575v-1.3h1.6v-1.7zM583.3 374c0-.5.1-1 .2-1.4s.4-.8.6-1.1c.3-.3.6-.6 1-.7.4-.2.9-.3 1.4-.3s1 .1 1.4.3.7.4 1 .7.5.7.6 1.1.2.9.2 1.4v.1c0 .5-.1 1-.2 1.4s-.4.8-.6 1.1c-.3.3-.6.6-1 .7-.4.2-.9.3-1.4.3s-1-.1-1.4-.3-.7-.4-1-.7-.5-.7-.6-1.1-.2-.9-.2-1.4zm1.8.1c0 .3 0 .6.1.8.1.3.1.5.3.7s.3.3.5.4.4.2.7.2.5-.1.7-.2.3-.3.5-.4c.1-.2.2-.4.3-.7s.1-.5.1-.8v-.1c0-.3 0-.5-.1-.8s-.1-.5-.3-.7c-.1-.2-.3-.3-.5-.5-.2-.1-.4-.2-.7-.2s-.5.1-.7.2-.3.3-.5.5-.2.4-.3.7-.1.5-.1.8zM597 370.5c.3 0 .5 0 .7.1.2 0 .4.1.6.1l-.3 1.8c-.2-.1-.5-.1-.7-.1h-.7q-.75 0-1.2.3c-.3.2-.5.5-.7.8v4.1h-1.8v-6.9h1.7l.1 1.1c.3-.4.6-.7 1-.9.4-.3.8-.4 1.3-.4M564.3 389.8c0 .5-.1 1-.2 1.4s-.3.8-.5 1.1-.5.6-.8.7q-.45.3-1.2.3c-.4 0-.7-.1-1-.2s-.5-.3-.7-.5v3.2h-1.8v-9.5h1.6l.1.7c.2-.3.5-.5.8-.6s.6-.2 1-.2q.6 0 1.2.3c.3.2.6.4.8.7s.4.7.5 1.1.2.9.2 1.4zm-1.8-.2c0-.3 0-.6-.1-.8-.1-.3-.1-.5-.2-.7s-.3-.3-.4-.4c-.2-.1-.4-.2-.6-.2-.3 0-.6.1-.8.2s-.4.3-.5.5v2.9c.1.2.3.4.5.5s.5.2.8.2c.2 0 .5-.1.6-.2.2-.1.3-.3.4-.5s.2-.4.2-.7c.1-.3.1-.5.1-.8M566.3 389.6c0-.5.1-1 .2-1.4s.4-.8.6-1.1c.3-.3.6-.6 1-.7.4-.2.9-.3 1.4-.3s1 .1 1.4.3.7.4 1 .7.5.7.6 1.1.2.9.2 1.4v.1c0 .5-.1 1-.2 1.4s-.4.8-.6 1.1c-.3.3-.6.6-1 .7-.4.2-.9.3-1.4.3s-1-.1-1.4-.3-.7-.4-1-.7-.5-.7-.6-1.1-.2-.9-.2-1.4zm1.8.2c0 .3 0 .6.1.8.1.3.1.5.3.7.1.2.3.3.5.4s.4.2.7.2.5-.1.7-.2.3-.3.5-.4c.1-.2.2-.4.3-.7s.1-.5.1-.8v-.1c0-.3 0-.5-.1-.8s-.1-.5-.3-.7c-.1-.2-.3-.3-.5-.5-.2-.1-.4-.2-.7-.2s-.5.1-.7.2-.3.3-.5.5-.2.4-.3.7-.1.5-.1.8zM579.4 391l.6-4.7h1.6l-1.2 6.9h-1.6l-.9-4.4-.9 4.4h-1.6l-1.2-6.9h1.6l.6 4.8.9-4.8h1.2zM586.9 393.3c-.5 0-1-.1-1.4-.3s-.8-.4-1.1-.7-.5-.7-.7-1.1-.3-.8-.3-1.3v-.3c0-.5.1-1 .2-1.4.2-.4.4-.8.7-1.1s.6-.6 1.1-.7c.4-.2.9-.3 1.3-.3.5 0 .9.1 1.3.2s.7.4 1 .7.5.7.6 1.1.2.9.2 1.4v.8h-4.7c0 .2.1.4.2.6s.2.4.4.5.3.2.6.3.4.1.7.1c.2 0 .3 0 .5-.1.2 0 .3-.1.5-.1.2-.1.3-.1.4-.2s.3-.2.4-.3l.9 1c-.1.2-.3.3-.4.5-.2.2-.4.3-.6.4s-.5.2-.8.3-.7 0-1 0m-.2-5.7c-.2 0-.4 0-.5.1-.2.1-.3.2-.4.3s-.2.3-.3.5-.1.4-.2.6h2.9v-.1c0-.2 0-.4-.1-.5-.1-.2-.2-.3-.3-.4s-.3-.2-.4-.3c-.3-.2-.5-.2-.7-.2M597 386.1c.3 0 .5 0 .7.1.2 0 .4.1.6.1l-.3 1.8c-.2-.1-.5-.1-.7-.1h-.7q-.75 0-1.2.3c-.3.2-.5.5-.7.8v4.1h-1.8v-6.9h1.7l.1 1.1c.3-.4.6-.7 1-.9.4-.3.8-.4 1.3-.4M558.3 406.9c0-.1 0-.2-.1-.3s-.1-.2-.3-.2-.3-.1-.5-.2-.5-.1-.8-.2c-.4-.1-.8-.2-1.1-.3s-.6-.3-.9-.4l-.6-.6c-.1-.2-.2-.5-.2-.8s.1-.6.2-.8c.1-.3.3-.5.6-.7s.6-.4.9-.5c.4-.1.8-.2 1.2-.2.5 0 .9.1 1.3.2s.7.3 1 .5.5.4.6.7.2.6.2.9H558c0-.3-.1-.5-.3-.7s-.5-.3-1-.3c-.4 0-.7.1-.9.2s-.3.3-.3.5c0 .1 0 .2.1.3 0 .1.1.2.2.2.1.1.3.1.4.2.2.1.4.1.7.2l1.2.3c.4.1.7.2.9.4q.45.3.6.6c.1.2.2.5.2.9 0 .3-.1.6-.2.8-.1.3-.4.5-.6.7-.3.2-.6.3-1 .4s-.8.2-1.3.2-1-.1-1.4-.2-.7-.3-1-.5-.5-.5-.6-.7c-.1-.3-.2-.6-.2-.8h1.7c0 .2.1.3.2.5l.3.3c.1.1.3.1.5.2s.4.1.6.1c.4 0 .8-.1 1-.2.4-.3.5-.5.5-.7M566.7 407.8c-.2.3-.5.6-.8.8s-.7.3-1.1.3-.7-.1-1-.2-.6-.3-.8-.5-.4-.5-.5-.9-.2-.8-.2-1.3v-4.1h1.8v4.1c0 .3 0 .5.1.7 0 .2.1.3.2.5.1.1.2.2.4.3s.3.1.5.1c.4 0 .6-.1.9-.2s.4-.3.5-.6V402h1.8v6.9h-1.6zM577 405.4c0 .5-.1 1-.2 1.4s-.3.8-.5 1.1-.5.6-.8.7q-.45.3-1.2.3c-.4 0-.7-.1-1-.2s-.5-.3-.7-.5v3.2h-1.8v-9.5h1.6l.1.7c.2-.3.5-.5.8-.6s.6-.2 1-.2q.6 0 1.2.3c.3.2.6.4.8.7s.4.7.5 1.1.2.9.2 1.4zm-1.8-.1c0-.3 0-.6-.1-.8-.1-.3-.1-.5-.2-.7s-.3-.3-.4-.4c-.2-.1-.4-.2-.6-.2-.3 0-.6.1-.8.2s-.4.3-.5.5v2.9c.1.2.3.4.5.5s.5.2.8.2c.2 0 .5-.1.6-.2.2-.1.3-.3.4-.5s.2-.4.2-.7c.1-.3.1-.5.1-.8M585.5 405.4c0 .5-.1 1-.2 1.4s-.3.8-.5 1.1-.5.6-.8.7q-.45.3-1.2.3c-.4 0-.7-.1-1-.2s-.5-.3-.7-.5v3.2h-1.8v-9.5h1.6l.1.7c.2-.3.5-.5.8-.6s.6-.2 1-.2q.6 0 1.2.3c.3.2.6.4.8.7s.4.7.5 1.1.2.9.2 1.4zm-1.8-.1c0-.3 0-.6-.1-.8-.1-.3-.1-.5-.2-.7s-.3-.3-.4-.4c-.2-.1-.4-.2-.6-.2-.3 0-.6.1-.8.2s-.4.3-.5.5v2.9c.1.2.3.4.5.5s.5.2.8.2c.2 0 .5-.1.6-.2.2-.1.3-.3.4-.5s.2-.4.2-.7c.1-.3.1-.5.1-.8M588.1 399h3.9v8.3h2v1.4h-5.8v-1.4h2.1v-6.9h-2.1V399zM599.2 405.9l.2.7 1.8-4.7h2l-3.5 7.9-.3.6c-.1.2-.3.4-.5.6s-.4.3-.7.4-.6.2-.9.2h-.6c-.1 0-.1 0-.2-.1l.2-1.4h.6c.1 0 .3 0 .4-.1l.3-.3c.1-.1.1-.2.2-.3l.1-.1.4-.8-2.9-6.6h1.9z" class="st11"/><path d="M359.5 193.9h150c2.8 0 5 2.2 5 5v40.4c0 2.8-2.2 5-5 5h-150c-2.8 0-5-2.2-5-5v-40.4c0-2.8 2.3-5 5-5" class="st8"/><path d="M404 215.1v-9.3h2.4c.6 0 1.2.1 1.7.3s.9.5 1.3.9.6.8.8 1.3.3 1.1.3 1.7v.8c0 .6-.1 1.2-.3 1.7s-.5 1-.8 1.3-.8.7-1.3.9-1 .3-1.6.3H404zm1.8-7.8v6.4h.7c.3 0 .6-.1.9-.2s.5-.3.7-.6.3-.5.4-.9c.1-.3.1-.7.1-1.2v-.8c0-.4 0-.8-.1-1.1s-.2-.6-.4-.9c-.2-.2-.4-.4-.7-.6-.3-.1-.6-.2-1-.2h-.6zM412.4 208.2h3.8v5.5h1.9v1.4h-5.6v-1.4h2v-4h-2v-1.5zm1.8-1.8c0-.1 0-.3.1-.4 0-.1.1-.2.2-.3s.2-.1.3-.2c.1 0 .3-.1.4-.1.3 0 .6.1.7.3.2.2.3.4.3.7s-.1.5-.3.7-.4.3-.7.3c-.2 0-.3 0-.4-.1-.1 0-.2-.1-.3-.2s-.2-.2-.2-.3-.1-.2-.1-.4M424.2 213.2c0-.1 0-.2-.1-.3 0-.1-.1-.2-.3-.2-.1-.1-.3-.1-.5-.2s-.5-.1-.8-.2c-.4-.1-.8-.2-1.1-.3s-.6-.3-.9-.4l-.6-.6c-.2-.2-.2-.5-.2-.8s.1-.6.2-.8c.1-.3.3-.5.6-.7s.6-.4.9-.5c.4-.1.8-.2 1.2-.2.5 0 .9.1 1.3.2s.7.3 1 .5.5.4.6.7.2.6.2.9h-1.8c0-.3-.1-.5-.3-.7s-.5-.3-1-.3c-.4 0-.7.1-.9.2s-.3.3-.3.5c0 .1 0 .2.1.3 0 .1.1.2.2.2.1.1.3.1.4.2.2.1.4.1.7.1l1.2.3c.4.1.7.2.9.4q.45.3.6.6c.1.2.2.5.2.9 0 .3-.1.6-.2.8-.1.3-.4.5-.6.7s-.6.3-1 .4-.8.2-1.3.2-1-.1-1.4-.2-.7-.3-1-.5-.5-.5-.6-.7c-.1-.3-.2-.6-.2-.8h1.7c0 .2.1.3.2.5l.3.3c.1.1.3.1.5.2s.4.1.6.1c.4 0 .8-.1 1-.2s.5-.4.5-.6M433.8 211.7c0 .5-.1 1-.2 1.4s-.3.8-.5 1.1-.5.6-.8.7q-.45.3-1.2.3c-.4 0-.7-.1-1-.2s-.5-.3-.7-.5v3.3h-1.8v-9.5h1.6l.1.7c.2-.3.5-.5.8-.6s.6-.2 1-.2q.6 0 1.2.3c.3.2.6.4.8.7s.4.7.5 1.1.2.9.2 1.4m-1.8-.1c0-.3 0-.6-.1-.8-.1-.3-.1-.5-.2-.7s-.3-.3-.4-.4c-.2-.1-.4-.2-.6-.2-.3 0-.6.1-.8.2s-.4.3-.5.5v2.9c.1.2.3.4.5.5s.5.2.8.2c.2 0 .5-.1.6-.2.2-.1.3-.3.4-.5s.2-.4.2-.7c.1-.3.1-.5.1-.8M435.8 205.3h3.9v8.3h2v1.4h-5.8v-1.4h2.1v-6.9h-2.1v-1.4zM447.6 215.1c0-.1-.1-.2-.1-.3s-.1-.2-.1-.4l-.3.3c-.1.1-.3.2-.4.2-.2.1-.3.1-.5.2-.2 0-.4.1-.6.1-.4 0-.7-.1-1-.2s-.5-.2-.8-.4c-.2-.2-.4-.4-.5-.7s-.2-.5-.2-.8c0-.7.3-1.3.8-1.7q.75-.6 2.4-.6h1v-.4c0-.3-.1-.6-.3-.8q-.3-.3-.9-.3c-.4 0-.6.1-.8.2-.2.2-.2.4-.2.6h-1.8c0-.3.1-.6.2-.8.1-.3.3-.5.6-.7.2-.2.6-.4.9-.5.4-.1.8-.2 1.2-.2s.8.1 1.2.2.7.3.9.5.5.5.6.8.2.7.2 1.1v3c0 .4 0 .7.1.9 0 .2.1.5.2.6v.1zm-1.7-1.3c.2 0 .3 0 .5-.1.2 0 .3-.1.4-.2s.2-.1.3-.2.2-.2.2-.3v-1.2h-.9c-.3 0-.5 0-.7.1s-.4.1-.5.2l-.3.3c-.1.1-.1.3-.1.4q0 .3.3.6c.2.4.4.4.8.4M454 212.2l.2.7 1.8-4.7h2l-3.5 7.9-.3.6c-.1.2-.3.4-.5.6s-.4.3-.7.4-.6.2-.9.2h-.6c-.1 0-.1 0-.2-.1l.2-1.4h.6c.1 0 .3 0 .4-.1l.3-.3c.1-.1.1-.2.2-.3l.1-.1.4-.8-2.9-6.6h1.9zM462.6 214.9c0 .2 0 .5-.1.7-.1.3-.2.5-.3.7s-.3.5-.4.7c-.2.2-.3.4-.5.6l-.9-.5c.1-.2.2-.3.2-.5s.1-.3.2-.5.1-.4.1-.6v-2.1h1.7zM384.9 221.5h1.8v6.4q0 .6-.3 1.2c-.2.4-.4.7-.7.9-.3.3-.6.5-1 .6s-.8.2-1.2.2c-.5 0-.9-.1-1.3-.2s-.7-.3-1-.5q-.45-.3-.6-.9c-.15-.6-.2-.8-.2-1.3h1.8c0 .5.1.9.3 1.1s.6.3 1 .3c.2 0 .4 0 .6-.1s.3-.2.4-.3.2-.3.3-.5.1-.4.1-.6zM388.2 227.2c0-.5.1-1 .2-1.4s.4-.8.6-1.1c.3-.3.6-.6 1-.7.4-.2.9-.3 1.4-.3s1 .1 1.4.3.7.4 1 .7.5.7.6 1.1.2.9.2 1.4v.1c0 .5-.1 1-.2 1.4s-.4.8-.6 1.1c-.3.3-.6.6-1 .7-.4.2-.9.3-1.4.3s-1-.1-1.4-.3-.7-.4-1-.7-.5-.7-.6-1.1-.2-.9-.2-1.4zm1.8.2c0 .3 0 .6.1.8.1.3.1.5.3.7s.3.3.5.4.4.2.7.2.5-.1.7-.2.3-.3.5-.4c.1-.2.2-.4.3-.7s.1-.5.1-.8v-.1c0-.3 0-.5-.1-.8s-.1-.5-.3-.7c-.1-.2-.3-.3-.5-.5-.2-.1-.4-.2-.7-.2s-.5.1-.7.2-.3.3-.5.5-.2.4-.3.7-.1.5-.1.8zM399.2 227.9l.2.7 1.8-4.7h2l-3.5 7.9-.3.6c-.1.2-.3.4-.5.6s-.4.3-.7.4-.6.2-.9.2h-.6c-.1 0-.1 0-.2-.1l.2-1.4h.6c.1 0 .3 0 .4-.1l.3-.3c.1-.1.1-.2.2-.3l.1-.1.4-.8-2.9-6.6h1.9zM408.6 228.9c0-.1 0-.2-.1-.3 0-.1-.1-.2-.3-.2-.1-.1-.3-.1-.5-.2s-.5-.1-.8-.2c-.4-.1-.8-.2-1.1-.3s-.6-.3-.9-.4l-.6-.6c-.2-.2-.2-.5-.2-.8s.1-.6.2-.8c.1-.3.3-.5.6-.7s.6-.4.9-.5c.4-.1.8-.2 1.2-.2.5 0 .9.1 1.3.2s.7.3 1 .5.5.4.6.7.2.6.2.9h-1.8c0-.3-.1-.5-.3-.7s-.5-.3-1-.3c-.4 0-.7.1-.9.2s-.3.3-.3.5c0 .1 0 .2.1.3 0 .1.1.2.2.2.1.1.3.1.4.2.2.1.4.1.7.1l1.2.3c.4.1.7.2.9.4q.45.3.6.6c.1.2.2.5.2.9 0 .3-.1.6-.2.8-.1.3-.4.5-.6.7s-.6.3-1 .4-.8.2-1.3.2-1-.1-1.4-.2-.7-.3-1-.5-.5-.5-.6-.7c-.1-.3-.2-.6-.2-.8h1.7c0 .2.1.3.2.5l.3.3c.1.1.3.1.5.2s.4.1.6.1c.4 0 .8-.1 1-.2s.5-.4.5-.6M415.2 222.2v1.7h2.6v1.3h-2.6v3c0 .3 0 .5.1.6.1.2.1.3.2.4s.2.2.4.2.3.1.5.1h.8c.1 0 .2 0 .4-.1.1 0 .2 0 .3-.1l.2 1.2c-.1.1-.3.1-.4.2s-.3.1-.5.1-.4.1-.6.1h-.6c-.4 0-.7 0-1-.1s-.6-.3-.8-.5-.4-.5-.5-.8-.2-.7-.2-1.2v-3.1h-1.6v-1.3h1.6v-1.7zM420.2 223.9h3.8v5.5h1.9v1.4h-5.6v-1.4h2v-4h-2v-1.5zm1.9-1.8c0-.1 0-.3.1-.4 0-.1.1-.2.2-.3s.2-.1.3-.2c.1 0 .3-.1.4-.1.3 0 .6.1.7.3.2.2.3.4.3.7s-.1.5-.3.7-.4.3-.7.3c-.2 0-.3 0-.4-.1-.1 0-.2-.1-.3-.2s-.2-.2-.2-.3c-.1-.1-.1-.3-.1-.4M430.7 229.5c.2 0 .3 0 .5-.1s.3-.1.4-.2l.3-.3c.1-.1.1-.3.1-.4h1.7c0 .4-.1.7-.2 1-.2.3-.4.6-.6.8-.3.2-.6.4-.9.5-.4.1-.7.2-1.1.2-.5 0-1-.1-1.4-.3s-.7-.4-1-.7-.5-.7-.6-1.1-.2-.9-.2-1.4v-.2c0-.5.1-.9.2-1.4.1-.4.3-.8.6-1.1s.6-.6 1-.7c.4-.2.9-.3 1.4-.3.4 0 .8.1 1.2.2s.7.3.9.5c.3.2.5.5.6.8s.2.7.2 1.1h-1.7c0-.2 0-.3-.1-.5s-.1-.3-.3-.4c-.1-.1-.3-.2-.4-.3-.2-.1-.3-.1-.5-.1-.3 0-.5.1-.7.2s-.3.3-.4.5-.2.4-.2.7c0 .2-.1.5-.1.8v.2c0 .3 0 .5.1.8 0 .2.1.5.2.7s.3.3.4.5.3 0 .6 0M438 227.9l-.8.7v2.1h-1.8V221h1.8v5.6l.5-.6 1.9-2.1h2.1l-2.6 2.9 3 4H440zM446.9 230.6c0 .2 0 .5-.1.7-.1.3-.2.5-.3.7s-.3.5-.4.7c-.2.2-.3.4-.5.6l-.9-.5c.1-.2.2-.3.2-.5s.1-.3.2-.5.1-.4.1-.6v-2.1h1.7zM460.8 229.3h4.3v1.4H459v-9.3h1.8zM472.4 226.7h-3.8v2.6h4.5v1.4h-6.3v-9.3h6.2v1.5h-4.4v2.3h3.8zM474.5 230.8v-9.3h2.4c.6 0 1.2.1 1.7.3s.9.5 1.3.9.6.8.8 1.3.3 1.1.3 1.7v.8c0 .6-.1 1.2-.3 1.7s-.5 1-.8 1.3-.8.7-1.3.9-1 .3-1.6.3h-2.5zm1.8-7.9v6.4h.7c.3 0 .6-.1.9-.2s.5-.3.7-.6.3-.5.4-.9c.1-.3.1-.7.1-1.2v-.8c0-.4 0-.8-.1-1.1s-.2-.6-.4-.9c-.2-.2-.4-.4-.7-.6-.3-.1-.6-.2-1-.2h-.6zM486.9 228.9c0-.1 0-.2-.1-.3 0-.1-.1-.2-.3-.2-.1-.1-.3-.1-.5-.2s-.5-.1-.8-.2c-.4-.1-.8-.2-1.1-.3s-.6-.3-.9-.4l-.6-.6c-.2-.2-.2-.5-.2-.8s.1-.6.2-.8c.1-.3.3-.5.6-.7s.6-.4.9-.5c.4-.1.8-.2 1.2-.2.5 0 .9.1 1.3.2s.7.3 1 .5.5.4.6.7.2.6.2.9h-1.8c0-.3-.1-.5-.3-.7s-.5-.3-1-.3c-.4 0-.7.1-.9.2s-.3.3-.3.5c0 .1 0 .2.1.3 0 .1.1.2.2.2.1.1.3.1.4.2.2.1.4.1.7.1l1.2.3c.4.1.7.2.9.4q.45.3.6.6c.1.2.2.5.2.9 0 .3-.1.6-.2.8-.1.3-.4.5-.6.7s-.6.3-1 .4-.8.2-1.3.2-1-.1-1.4-.2-.7-.3-1-.5-.5-.5-.6-.7c-.1-.3-.2-.6-.2-.8h1.7c0 .2.1.3.2.5l.3.3c.1.1.3.1.5.2s.4.1.6.1c.4 0 .8-.1 1-.2s.5-.4.5-.6" class="st12"/><path d="M359.5 364.1h150c2.8 0 5 2.2 5 5v40.4c0 2.8-2.2 5-5 5h-150c-2.8 0-5-2.2-5-5v-40.4c0-2.7 2.3-5 5-5" class="st8"/><path d="M386.4 381.9v3.4h-1.8V376h3.2c.5 0 1 .1 1.4.2s.8.4 1 .6c.3.3.5.6.7.9.2.4.2.8.2 1.2s-.1.8-.2 1.2c-.2.4-.4.7-.7.9-.3.3-.6.5-1 .6s-.9.2-1.4.2h-1.4zm0-1.4h1.4c.3 0 .5 0 .7-.1s.3-.2.5-.3c.1-.1.2-.3.3-.5s.1-.4.1-.5c0-.2 0-.4-.1-.6s-.2-.4-.3-.5-.3-.3-.5-.3c-.2-.1-.4-.1-.7-.1h-1.4zM392.3 385.3V376h2.4c.6 0 1.2.1 1.7.3s.9.5 1.3.9.6.8.8 1.3.3 1.1.3 1.7v.8c0 .6-.1 1.2-.3 1.7s-.5 1-.8 1.3-.8.7-1.3.9-1 .3-1.6.3h-2.5zm1.8-7.8v6.4h.7c.3 0 .6-.1.9-.2s.5-.3.7-.6.3-.5.4-.9c.1-.3.1-.7.1-1.2v-.8c0-.4 0-.8-.1-1.1s-.2-.6-.4-.9c-.2-.2-.4-.4-.7-.6-.3-.1-.6-.2-1-.2h-.6zM414.4 382.4c0 .5-.1.9-.3 1.3s-.4.7-.7 1-.6.5-1 .6-.8.2-1.3.2q-.75 0-1.5-.3c-.4-.2-.8-.5-1.1-.8s-.5-.8-.7-1.3-.2-1.1-.2-1.7v-1.2c0-.6.1-1.2.2-1.7.2-.5.4-.9.7-1.3s.7-.6 1.1-.9c.4-.2.9-.3 1.4-.3s1 .1 1.4.2.7.4 1 .6c.3.3.5.6.7 1s.3.8.3 1.3h-1.8c0-.3-.1-.5-.1-.7-.1-.2-.2-.4-.3-.5s-.3-.2-.5-.3-.4-.1-.7-.1-.5.1-.7.2-.4.3-.5.5-.2.5-.3.8-.1.7-.1 1.1v1.3c0 .9.1 1.6.4 2s.7.7 1.2.7.8-.1 1.1-.4c.3-.2.4-.7.5-1.2h1.8zM415.6 381.8c0-.5.1-1 .2-1.4s.4-.8.6-1.1.6-.6 1-.7c.4-.2.9-.3 1.4-.3s1 .1 1.4.3.7.4 1 .7.5.7.6 1.1.2.9.2 1.4v.1c0 .5-.1 1-.2 1.4s-.4.8-.6 1.1c-.3.3-.6.6-1 .7-.4.2-.9.3-1.4.3s-1-.1-1.4-.3-.7-.4-1-.7-.5-.7-.6-1.1-.2-.9-.2-1.4zm1.8.1c0 .3 0 .6.1.8.1.3.1.5.3.7.1.2.3.3.5.4s.4.2.7.2.5-.1.7-.2.3-.3.5-.4c.1-.2.2-.4.3-.7s.1-.5.1-.8v-.1c0-.3 0-.5-.1-.8s-.1-.5-.3-.7c-.1-.2-.3-.3-.5-.5-.2-.1-.4-.2-.7-.2s-.5.1-.7.2-.3.3-.5.5-.2.4-.3.7-.1.5-.1.8zM425.3 378.4l.1 1c.2-.3.5-.6.9-.8s.7-.3 1.2-.3c.3 0 .7.1 1 .2s.5.3.7.5.4.5.5.9.2.8.2 1.3v4.2h-1.8v-4.2c0-.3 0-.5-.1-.7s-.2-.3-.3-.4-.3-.2-.4-.2c-.2 0-.3-.1-.5-.1-.3 0-.6.1-.8.2s-.4.3-.5.5v4.9h-1.8v-6.9h1.6zM434.8 376.7v1.7h2.6v1.3h-2.6v3c0 .3 0 .5.1.6.1.2.1.3.2.4s.2.2.4.2.3.1.5.1h.8c.1 0 .2 0 .4-.1.1 0 .2 0 .3-.1l.2 1.2c-.1.1-.3.1-.4.2-.2.1-.3.1-.5.1s-.4.1-.6.1h-.6c-.4 0-.7 0-1-.2-.3-.1-.6-.3-.8-.5s-.4-.5-.5-.8-.2-.7-.2-1.2v-3.1h-1.6v-1.3h1.6v-1.7h1.7zM444.3 378.3c.3 0 .5 0 .7.1.2 0 .4.1.6.1l-.3 1.8c-.2-.1-.5-.1-.7-.1h-.7q-.75 0-1.2.3c-.45.3-.5.5-.7.8v4.1h-1.8v-6.9h1.7l.1 1.1c.3-.4.6-.7 1-.9.4-.3.8-.4 1.3-.4M446.9 381.8c0-.5.1-1 .2-1.4s.4-.8.6-1.1.6-.6 1-.7c.4-.2.9-.3 1.4-.3s1 .1 1.4.3.7.4 1 .7.5.7.6 1.1.2.9.2 1.4v.1c0 .5-.1 1-.2 1.4s-.4.8-.6 1.1c-.3.3-.6.6-1 .7-.4.2-.9.3-1.4.3s-1-.1-1.4-.3-.7-.4-1-.7-.5-.7-.6-1.1-.2-.9-.2-1.4zm1.8.1c0 .3 0 .6.1.8.1.3.1.5.3.7.1.2.3.3.5.4s.4.2.7.2.5-.1.7-.2.3-.3.5-.4c.1-.2.2-.4.3-.7s.1-.5.1-.8v-.1c0-.3 0-.5-.1-.8s-.1-.5-.3-.7c-.1-.2-.3-.3-.5-.5-.2-.1-.4-.2-.7-.2s-.5.1-.7.2-.3.3-.5.5-.2.4-.3.7-.1.5-.1.8zM455.4 375.5h3.9v8.3h2v1.4h-5.8v-1.4h2.1V377h-2.1v-1.5zM463.2 375.5h3.9v8.3h2v1.4h-5.8v-1.4h2.1V377h-2.1v-1.5zM474 385.4c-.5 0-1-.1-1.4-.3s-.8-.4-1.1-.7-.5-.7-.7-1.1-.3-.8-.3-1.3v-.3c0-.5.1-1 .2-1.4.2-.4.4-.8.7-1.1s.6-.6 1.1-.7c.4-.2.9-.3 1.3-.3.5 0 .9.1 1.3.2.4.2.7.4 1 .7s.5.7.6 1.1.2.9.2 1.4v.8h-4.7c0 .2.1.4.2.6s.2.4.4.5.3.2.6.3c.2.1.4.1.7.1.2 0 .3 0 .5-.1.2 0 .3-.1.5-.2s.3-.1.4-.2.3-.2.4-.3l.9 1c-.1.2-.3.3-.4.5-.2.2-.4.3-.6.4s-.5.2-.8.3-.6.1-1 .1m-.2-5.7c-.2 0-.4 0-.5.1s-.3.2-.4.3-.2.3-.3.5-.1.4-.2.6h2.9v-.1c0-.2 0-.4-.1-.5s-.2-.3-.3-.4-.3-.2-.4-.3c-.3-.1-.5-.2-.7-.2M483.5 378.3c.3 0 .5 0 .7.1.2 0 .4.1.6.1l-.3 1.8c-.2-.1-.5-.1-.7-.1h-.7q-.75 0-1.2.3c-.45.3-.5.5-.7.8v4.1h-1.8v-6.9h1.7l.1 1.1c.3-.4.6-.7 1-.9.4-.3.8-.4 1.3-.4M402.1 397.1h-4v3.8h-1.8v-9.3h6.3v1.5h-4.5v2.5h4zM410.2 391.7v6.1c0 .5-.1 1-.2 1.4s-.3.7-.6 1-.6.5-1 .6-.8.2-1.3.2-.9-.1-1.3-.2-.7-.4-1-.6c-.3-.3-.5-.6-.6-1s-.2-.9-.2-1.4v-6.1h1.8v6.1c0 .6.1 1.1.3 1.4s.5.5.9.5.8-.2 1-.5.3-.8.4-1.4v-6.1zM416.7 398.6c0-.2 0-.3-.1-.5-.1-.1-.2-.3-.3-.4s-.3-.2-.5-.3-.5-.2-.8-.3c-.4-.1-.8-.2-1.2-.4s-.7-.4-1-.6-.5-.5-.7-.8-.3-.7-.3-1.1.1-.7.2-1.1c.2-.3.4-.6.7-.8s.6-.4 1-.5.8-.2 1.3-.2.9.1 1.3.2.7.3 1 .6.5.6.7.9.2.7.2 1.1h-1.7c0-.2 0-.4-.1-.6s-.2-.3-.3-.4-.3-.2-.5-.3-.4-.1-.7-.1c-.2 0-.4 0-.6.1s-.3.1-.5.2c-.1.1-.2.2-.3.4-.1.1-.1.3-.1.5s0 .3.1.5c.1.1.2.3.4.4l.6.3c.2.1.5.2.8.3.4.1.8.3 1.2.5q.6.3.9.6c.3.2.5.5.6.8s.2.7.2 1c0 .4-.1.8-.2 1.1-.2.3-.4.6-.7.8s-.6.4-1 .5-.8.2-1.3.2c-.3 0-.6 0-.9-.1s-.6-.1-.8-.2-.5-.2-.7-.4l-.6-.6c-.2-.2-.3-.5-.4-.8s-.1-.6-.1-.9h1.8c0 .3.1.5.1.7.1.2.2.4.4.5l.6.3c.2.1.5.1.7.1s.4 0 .6-.1.3-.1.5-.2c.1-.1.2-.2.3-.4.2-.2.2-.4.2-.5M419.7 401v-9.3h3.1c.5 0 1 .1 1.4.2s.8.3 1.1.5.5.5.7.8.2.7.2 1.1q0 .6-.3 1.2c-.2.3-.6.6-1 .8.3.1.5.2.7.3s.4.3.5.5l.3.6c.1.2.1.4.1.7 0 .4-.1.8-.2 1.2-.2.3-.4.6-.7.9-.3.2-.6.4-1 .5s-.9.2-1.4.2h-3.5zm1.8-5.4h1.3c.5 0 .9-.1 1.1-.3s.4-.5.4-.9-.1-.7-.4-.9q-.45-.3-1.2-.3h-1.3v2.4zm0 1.3v2.6h1.6c.5 0 .9-.1 1.1-.4.3-.2.4-.5.4-.9s-.1-.8-.3-1-.6-.4-1.1-.4h-1.7zM429.4 395.6h1c.5 0 .8-.1 1.1-.4s.4-.6.4-1c0-.2 0-.3-.1-.5s-.1-.3-.2-.4-.2-.2-.4-.3-.4-.1-.6-.1-.3 0-.5.1-.3.1-.4.2l-.3.3c-.1.1-.1.3-.1.5h-1.8c0-.4.1-.7.2-1 .2-.3.4-.6.6-.8.3-.2.6-.4 1-.5s.8-.2 1.2-.2c.5 0 .9.1 1.3.2s.7.3 1 .5.5.5.6.8c.2.3.2.7.2 1.1 0 .2 0 .4-.1.6s-.1.4-.3.6c-.1.2-.3.3-.4.5s-.4.3-.6.4c.3.1.5.2.7.4l.5.5c.2.2.2.4.3.6s.1.5.1.7c0 .4-.1.8-.2 1.2-.2.3-.4.6-.7.9s-.6.4-1 .5-.8.2-1.3.2c-.4 0-.8-.1-1.2-.2s-.7-.3-1-.5-.5-.5-.7-.8q-.3-.45-.3-1.2h1.8c0 .2 0 .3.1.5s.2.3.3.4.3.2.4.3.4.1.6.1c.5 0 .8-.1 1.1-.4.3-.2.4-.6.4-1 0-.2 0-.5-.1-.6-.1-.2-.2-.3-.3-.4s-.3-.2-.5-.3-.4-.1-.7-.1h-1v-1.4zM441.5 397.5c0 .6-.1 1.1-.2 1.6s-.3.8-.6 1.1-.6.5-1 .7-.8.2-1.3.2-.9-.1-1.3-.2c-.4-.2-.7-.4-1-.7s-.5-.7-.6-1.1-.2-1-.2-1.6v-2.2c0-.6.1-1.1.2-1.6s.3-.8.6-1.1.6-.5 1-.7.8-.2 1.3-.2.9.1 1.3.2.7.4 1 .7.5.7.6 1.1c.1.5.2 1 .2 1.6zm-4.3-.8 2.5-1.8c0-.6-.1-1.1-.3-1.4s-.5-.5-.9-.5-.7.2-.9.5q-.3.45-.3 1.5v1.7zm2.5-.7-2.5 1.8c0 .6.1 1.1.3 1.4s.5.4.9.4.7-.2.9-.5q.3-.45.3-1.5V396zM449.3 401H443v-1.2l3-3.2c.2-.3.4-.5.6-.7s.3-.4.4-.6.2-.3.2-.5c0-.1.1-.3.1-.4 0-.2 0-.4-.1-.6s-.1-.3-.3-.4-.2-.2-.4-.3-.3-.1-.5-.1c-.5 0-.9.1-1.1.4s-.4.7-.4 1.1h-1.8c0-.4.1-.8.2-1.2.2-.4.4-.7.7-1s.6-.5 1-.7.9-.2 1.3-.2c.5 0 .9.1 1.3.2q.6.15.9.6.3.3.6.9c.1.3.2.7.2 1.1 0 .3 0 .6-.1.9s-.2.6-.4.8c-.2.3-.4.5-.6.8s-.5.6-.8.9l-1.7 1.8h4.1v1.6zM453.2 391.7l.9 3.5 1-3.5h2.2v9.3h-1.6v-2.7l.1-4.3-1.2 4h-.9l-1.1-3.9.1 4.2v2.7H451v-9.3zM460.8 397.6v3.4H459v-9.3h3.2c.5 0 1 .1 1.4.2s.8.4 1 .6c.3.3.5.6.7.9.2.4.2.8.2 1.2s-.1.8-.2 1.2c-.2.4-.4.7-.7.9-.3.3-.6.5-1 .6s-.9.2-1.4.2h-1.4zm0-1.5h1.4c.3 0 .5 0 .7-.1s.3-.2.5-.3c.1-.1.2-.3.3-.5s.1-.4.1-.5c0-.2 0-.4-.1-.6s-.2-.4-.3-.5-.3-.3-.5-.3c-.2-.1-.4-.1-.7-.1h-1.4zM469.8 395l1.7-3.3h2.1l-2.6 4.6 2.7 4.7h-2.1l-1.7-3.4-1.7 3.4h-2.1l2.7-4.7-2.6-4.6h2.1z" class="st12"/><path d="M359.5 112.1h150c2.8 0 5 2.2 5 5v40.4c0 2.8-2.2 5-5 5h-150c-2.8 0-5-2.2-5-5v-40.4c0-2.7 2.3-5 5-5" class="st8"/><path d="M371.9 129.9h-1.4v3.5h-1.8V124h3.1c.5 0 1 .1 1.4.2s.8.3 1.1.5.5.5.7.9c.2.3.2.8.2 1.2 0 .3 0 .6-.1.9s-.2.5-.3.7-.3.4-.5.6-.4.3-.7.4l2 3.8v.1h-1.9zm-1.3-1.5h1.3c.5 0 .9-.1 1.2-.4s.4-.6.4-1.1-.1-.8-.4-1.1-.7-.4-1.2-.4h-1.3zM381.4 130.9c0-.2 0-.3-.1-.5-.1-.1-.2-.3-.3-.4s-.3-.2-.5-.3-.5-.2-.8-.3c-.4-.1-.8-.2-1.2-.4s-.7-.4-1-.6-.5-.5-.7-.8-.3-.7-.3-1.1.1-.7.2-1.1c.2-.3.4-.6.7-.8s.6-.4 1-.5.8-.2 1.3-.2.9.1 1.3.2.7.3 1 .6.5.6.7.9.2.7.2 1.1h-1.7c0-.2 0-.4-.1-.6s-.2-.3-.3-.4-.3-.2-.5-.3-.4-.1-.7-.1c-.2 0-.4 0-.6.1s-.3.1-.5.2c-.1.1-.2.2-.3.4-.1.1-.1.3-.1.5s0 .3.1.5c.1.1.2.3.4.4l.6.3c.2.1.5.2.8.3.4.1.8.3 1.2.5q.6.3.9.6c.3.2.5.5.6.8s.2.7.2 1c0 .4-.1.8-.2 1.1-.2.3-.4.6-.7.8s-.6.4-1 .5-.8.2-1.3.2c-.3 0-.6 0-.9-.1s-.6-.1-.8-.2c-.3-.1-.5-.2-.7-.4l-.6-.6c-.2-.2-.3-.5-.4-.8s-.1-.6-.1-.9h1.8c0 .3.1.5.1.7.1.2.2.4.4.5l.6.3c.2.1.5.1.7.1s.4 0 .6-.1.3-.1.5-.2c.1-.1.2-.2.3-.4.2-.2.2-.3.2-.5M389.7 129.9h1.1v1.4h-1.1v2h-1.8v-2H384l-.1-1.1 3.9-6.2h1.8v5.9zm-4 0h2.2v-3.4l-.2.3zM398.2 126.5q0 .75-.3 1.2c-.3.45-.5.6-.9.8.5.2.8.5 1.1.9s.4.8.4 1.3c0 .4-.1.8-.2 1.2-.2.3-.4.6-.7.8s-.6.4-1 .5-.8.2-1.2.2-.9-.1-1.2-.2c-.4-.1-.7-.3-1-.5s-.5-.5-.7-.8-.2-.7-.2-1.2c0-.3 0-.5.1-.7l.3-.6c.1-.2.3-.4.5-.5.2-.2.4-.3.6-.4-.4-.2-.7-.5-.9-.8s-.3-.8-.3-1.2.1-.8.2-1.1.3-.6.6-.8.6-.4.9-.5c.4-.1.7-.2 1.2-.2.4 0 .8.1 1.2.2s.7.3.9.5c.3.2.5.5.6.8s0 .7 0 1.1m-1.6 4.2c0-.2 0-.4-.1-.6s-.2-.3-.3-.4-.3-.2-.4-.3c-.2-.1-.3-.1-.6-.1s-.4 0-.6.1-.3.2-.4.3-.2.3-.3.4c-.1.2-.1.4-.1.6 0 .4.1.8.4 1s.6.4 1 .4c.2 0 .4 0 .5-.1.2-.1.3-.2.4-.3s.2-.3.3-.4c.2-.2.2-.4.2-.6m-.2-4.1c0-.2 0-.4-.1-.5-.1-.2-.1-.3-.2-.4s-.2-.2-.4-.3c-.1-.1-.3-.1-.5-.1-.4 0-.6.1-.8.3q-.3.3-.3.9c0 .2 0 .4.1.5.1.2.1.3.2.4s.2.2.4.3c.1.1.3.1.5.1s.3 0 .5-.1c.1-.1.3-.1.4-.3s.2-.2.2-.4zM400.3 128.8l.5-4.7h5.1v1.5h-3.7l-.2 2c.1-.1.3-.2.6-.2s.5-.1.8-.1c.4 0 .8.1 1.2.2s.6.3.9.6c.2.3.4.6.6 1 .1.4.2.8.2 1.3 0 .4-.1.8-.2 1.2s-.3.7-.6 1-.6.5-1 .7-.8.2-1.4.2c-.4 0-.8-.1-1.2-.2s-.7-.3-1-.5-.5-.5-.7-.8-.3-.7-.3-1.1h1.7c0 .4.2.7.4.9s.6.3 1 .3c.2 0 .4 0 .6-.1s.3-.2.4-.4.2-.3.2-.6c0-.2.1-.5.1-.7s0-.5-.1-.7-.2-.4-.3-.5-.3-.3-.5-.3-.4-.1-.7-.1h-.5c-.1 0-.2.1-.3.1s-.2.1-.3.2l-.2.2zM422.6 125.5h-2.9v7.8h-1.8v-7.8h-2.8V124h7.5zM428.6 126.3c.3 0 .5 0 .7.1.2 0 .4.1.6.1l-.3 1.8c-.2-.1-.5-.1-.7-.1h-.7q-.75 0-1.2.3c-.3.2-.5.5-.7.8v4.1h-1.8v-6.9h1.7l.1 1.1c.3-.4.6-.7 1-.9.4-.3.9-.4 1.3-.4M435.8 133.3c0-.1-.1-.2-.1-.3s-.1-.2-.1-.4l-.3.3c-.1.1-.3.2-.4.2-.2.1-.3.1-.5.2-.2 0-.4.1-.6.1-.4 0-.7-.1-1-.2s-.5-.2-.8-.4c-.2-.2-.4-.4-.5-.7s-.2-.5-.2-.8c0-.7.3-1.3.8-1.7q.75-.6 2.4-.6h1v-.4c0-.3-.1-.6-.3-.8q-.3-.3-.9-.3c-.4 0-.6.1-.8.2-.2.2-.2.4-.2.6h-1.8c0-.3.1-.6.2-.8.1-.3.3-.5.6-.7.2-.2.6-.4.9-.5.4-.1.8-.2 1.2-.2s.8.1 1.2.2.7.3.9.5.5.5.6.8.2.7.2 1.1v3c0 .4 0 .7.1.9 0 .2.1.5.2.6v.1zm-1.7-1.2c.2 0 .3 0 .5-.1.2 0 .3-.1.4-.2s.2-.1.3-.2.2-.2.2-.3v-1.2h-.9c-.3 0-.5 0-.7.1s-.4.1-.5.2l-.3.3c-.1.1-.1.3-.1.4q0 .3.3.6c.2.3.5.4.8.4M441 126.4l.1 1c.2-.3.5-.6.9-.8s.7-.3 1.2-.3c.3 0 .7.1 1 .2s.5.3.7.5.4.5.5.9.2.8.2 1.3v4.2h-1.8v-4.2c0-.3 0-.5-.1-.7s-.2-.3-.3-.4-.3-.2-.4-.2c-.2 0-.3-.1-.5-.1-.3 0-.6.1-.8.2s-.4.3-.5.5v4.9h-1.8v-6.9c0-.1 1.6-.1 1.6-.1M451.6 131.4c0-.1 0-.2-.1-.3 0-.1-.1-.2-.3-.2-.1-.1-.3-.1-.5-.2s-.5-.1-.8-.2c-.4-.1-.8-.2-1.1-.3s-.6-.3-.9-.4l-.6-.6c-.2-.2-.2-.5-.2-.8s.1-.6.2-.8c.1-.3.3-.5.6-.7s.6-.4.9-.5c.4-.1.8-.2 1.2-.2.5 0 .9.1 1.3.2s.7.3 1 .5.5.4.6.7.2.6.2.9h-1.8c0-.3-.1-.5-.3-.7s-.5-.3-1-.3c-.4 0-.7.1-.9.2s-.3.3-.3.5c0 .1 0 .2.1.3 0 .1.1.2.2.2.1.1.3.1.4.2.2.1.4.1.7.1l1.2.3c.4.1.7.2.9.4q.45.3.6.6c.1.2.2.5.2.9 0 .3-.1.6-.2.8-.1.3-.4.5-.6.7s-.6.3-1 .4-.8.2-1.3.2-1-.1-1.4-.2-.7-.3-1-.5-.5-.5-.6-.7c-.1-.3-.2-.6-.2-.8h1.7c0 .2.1.3.2.5l.3.3c.1.1.3.1.5.2s.4.1.6.1c.4 0 .8-.1 1-.2s.5-.3.5-.6M458.1 132c.2 0 .3 0 .5-.1s.3-.1.4-.2l.3-.3c.1-.1.1-.3.1-.4h1.7c0 .4-.1.7-.2 1-.2.3-.4.6-.6.8-.3.2-.6.4-.9.5-.4.1-.7.2-1.1.2-.5 0-1-.1-1.4-.3s-.7-.4-1-.7-.5-.7-.6-1.1-.2-.9-.2-1.4v-.2c0-.5.1-.9.2-1.4.1-.4.3-.8.6-1.1s.6-.6 1-.7c.4-.2.9-.3 1.4-.3.4 0 .8.1 1.2.2s.7.3.9.5c.3.2.5.5.6.8s.2.7.2 1.1h-1.7c0-.2 0-.3-.1-.5s-.1-.3-.3-.4c-.1-.1-.3-.2-.4-.3-.2-.1-.3-.1-.5-.1-.3 0-.5.1-.7.2s-.3.3-.4.5-.2.4-.2.7c0 .2-.1.5-.1.8v.2c0 .3 0 .5.1.8 0 .2.1.5.2.7s.3.3.4.5.3 0 .6 0M466.2 133.4c-.5 0-1-.1-1.4-.3s-.8-.4-1.1-.7-.5-.7-.7-1.1-.3-.8-.3-1.3v-.3c0-.5.1-1 .2-1.4.2-.4.4-.8.7-1.1s.6-.6 1.1-.7c.4-.2.9-.3 1.3-.3.5 0 .9.1 1.3.2s.7.4 1 .7.5.7.6 1.1.2.9.2 1.4v.8h-4.7c0 .2.1.4.2.6s.2.4.4.5.3.2.6.3c.2.1.4.1.7.1.2 0 .3 0 .5-.1.2 0 .3-.1.5-.1s.3-.1.4-.2.3-.2.4-.3l.9 1c-.1.2-.3.3-.4.5-.2.2-.4.3-.6.4s-.5.2-.8.3-.7 0-1 0m-.2-5.7c-.2 0-.4 0-.5.1-.2.1-.3.2-.4.3s-.2.3-.3.5-.1.4-.2.6h2.9v-.1c0-.2 0-.4-.1-.5-.1-.2-.2-.3-.3-.4s-.3-.2-.4-.3c-.3-.1-.5-.2-.7-.2M471.2 126.4h3.8v5.5h1.9v1.4h-5.6v-1.4h2v-4h-2c-.1 0-.1-1.5-.1-1.5m1.8-1.7c0-.1 0-.3.1-.4 0-.1.1-.2.2-.3s.2-.1.3-.2c.1 0 .3-.1.4-.1.3 0 .6.1.7.3.2.2.3.4.3.7s-.1.5-.3.7-.4.3-.7.3c-.2 0-.3 0-.4-.1-.1 0-.2-.1-.3-.2s-.2-.2-.2-.3c-.1-.2-.1-.3-.1-.4M481.4 131.3l.1.5.1-.5 1.5-4.9h1.8l-2.6 6.9h-1.7l-2.6-6.9h1.8zM489.7 133.4c-.5 0-1-.1-1.4-.3s-.8-.4-1.1-.7-.5-.7-.7-1.1-.3-.8-.3-1.3v-.3c0-.5.1-1 .2-1.4.2-.4.4-.8.7-1.1s.6-.6 1.1-.7c.4-.2.9-.3 1.3-.3.5 0 .9.1 1.3.2s.7.4 1 .7.5.7.6 1.1.2.9.2 1.4v.8H488c0 .2.1.4.2.6s.2.4.4.5.3.2.6.3c.2.1.4.1.7.1.2 0 .3 0 .5-.1.2 0 .3-.1.5-.1s.3-.1.4-.2.3-.2.4-.3l.9 1c-.1.2-.3.3-.4.5-.2.2-.4.3-.6.4s-.5.2-.8.3-.8 0-1.1 0m-.2-5.7c-.2 0-.4 0-.5.1-.2.1-.3.2-.4.3s-.2.3-.3.5-.1.4-.2.6h2.9v-.1c0-.2 0-.4-.1-.5-.1-.2-.2-.3-.3-.4s-.3-.2-.4-.3c-.3-.1-.5-.2-.7-.2M499.1 126.3c.3 0 .5 0 .7.1.2 0 .4.1.6.1l-.3 1.8c-.2-.1-.5-.1-.7-.1h-.7q-.75 0-1.2.3c-.3.2-.5.5-.7.8v4.1H495v-6.9h1.7l.1 1.1c.3-.4.6-.7 1-.9.4-.3.9-.4 1.3-.4M416.7 146.6c0-.2 0-.3-.1-.5-.1-.1-.2-.3-.3-.4s-.3-.2-.5-.3-.5-.2-.8-.3c-.4-.1-.8-.2-1.2-.4s-.7-.4-1-.6-.5-.5-.7-.8-.3-.7-.3-1.1.1-.7.2-1.1c.2-.3.4-.6.7-.8s.6-.4 1-.5.8-.2 1.3-.2.9.1 1.3.2.7.3 1 .6.5.6.7.9.2.7.2 1.1h-1.7c0-.2 0-.4-.1-.6s-.2-.3-.3-.4-.3-.2-.5-.3-.4-.1-.7-.1c-.2 0-.4 0-.6.1s-.3.1-.5.2c-.1.1-.2.2-.3.4-.1.1-.1.3-.1.5s0 .3.1.5c.1.1.2.3.4.4l.6.3c.2.1.5.2.8.3.4.1.8.3 1.2.5q.6.3.9.6c.3.2.5.5.6.8s.2.7.2 1c0 .4-.1.8-.2 1.1-.2.3-.4.6-.7.8s-.6.4-1 .5-.8.2-1.3.2c-.3 0-.6 0-.9-.1s-.6-.1-.8-.2c-.3-.1-.5-.2-.7-.4l-.6-.6c-.2-.2-.3-.5-.4-.8s-.1-.6-.1-.9h1.8c0 .3.1.5.1.7.1.2.2.4.4.5l.6.3c.2.1.5.1.7.1s.4 0 .6-.1.3-.1.5-.2c.1-.1.2-.2.3-.4.2-.2.2-.4.2-.5M421.6 145.6v3.4h-1.8v-9.3h3.2c.5 0 1 .1 1.4.2s.8.4 1 .6c.3.3.5.6.7.9.2.4.2.8.2 1.2s-.1.8-.2 1.2c-.2.4-.4.7-.7.9-.3.3-.6.5-1 .6s-.9.2-1.4.2h-1.4zm0-1.5h1.4c.3 0 .5 0 .7-.1s.3-.2.5-.3c.1-.1.2-.3.3-.5s.1-.4.1-.5c0-.2 0-.4-.1-.6s-.2-.4-.3-.5-.3-.3-.5-.3c-.2-.1-.4-.1-.7-.1h-1.4zM429.4 143.6h1c.5 0 .8-.1 1.1-.4s.4-.6.4-1c0-.2 0-.3-.1-.5s-.1-.3-.2-.4-.2-.2-.4-.3-.4-.1-.6-.1-.3 0-.5.1-.3.1-.4.2l-.3.3c-.1.1-.1.3-.1.5h-1.8c0-.4.1-.7.2-1 .2-.3.4-.6.6-.8.3-.2.6-.4 1-.5s.8-.2 1.2-.2c.5 0 .9.1 1.3.2s.7.3 1 .5.5.5.6.8c.2.3.2.7.2 1.1 0 .2 0 .4-.1.6s-.1.4-.3.6c-.1.2-.3.3-.4.5s-.4.3-.6.4c.3.1.5.2.7.4l.5.5.3.6c.1.2.1.5.1.7 0 .4-.1.8-.2 1.2-.2.3-.4.6-.7.9s-.6.4-1 .5-.8.2-1.3.2c-.4 0-.8-.1-1.2-.2s-.7-.3-1-.5-.5-.5-.7-.8q-.3-.45-.3-1.2h1.8c0 .2 0 .3.1.5s.2.3.3.4.3.2.4.3.4.1.6.1c.5 0 .8-.1 1.1-.4.3-.2.4-.6.4-1 0-.3 0-.5-.1-.6-.1-.2-.2-.3-.3-.4s-.3-.2-.5-.3-.4-.1-.7-.1h-1v-1.4zM437.2 143.6h1c.5 0 .8-.1 1.1-.4s.4-.6.4-1c0-.2 0-.3-.1-.5s-.1-.3-.2-.4-.2-.2-.4-.3-.4-.1-.6-.1-.3 0-.5.1-.3.1-.4.2l-.3.3c-.1.1-.1.3-.1.5h-1.8c0-.4.1-.7.2-1 .2-.3.4-.6.6-.8.3-.2.6-.4 1-.5s.8-.2 1.2-.2c.5 0 .9.1 1.3.2s.7.3 1 .5.5.5.6.8c.2.3.2.7.2 1.1 0 .2 0 .4-.1.6s-.1.4-.3.6c-.1.2-.3.3-.4.5s-.4.3-.6.4c.3.1.5.2.7.4l.5.5.3.6c.1.2.1.5.1.7 0 .4-.1.8-.2 1.2-.2.3-.4.6-.7.9s-.6.4-1 .5-.8.2-1.3.2c-.4 0-.8-.1-1.2-.2s-.7-.3-1-.5-.5-.5-.7-.8q-.3-.45-.3-1.2h1.8c0 .2 0 .3.1.5s.2.3.3.4.3.2.4.3.4.1.6.1c.5 0 .8-.1 1.1-.4.3-.2.4-.6.4-1 0-.3 0-.5-.1-.6-.1-.2-.2-.3-.3-.4s-.3-.2-.5-.3-.4-.1-.7-.1h-1v-1.4zM443.4 144.4l.5-4.7h5.1v1.5h-3.7l-.2 2c.1-.1.3-.2.6-.2s.5-.1.8-.1c.4 0 .8.1 1.2.2s.6.3.9.6c.2.3.4.6.6 1 .1.4.2.8.2 1.3 0 .4-.1.8-.2 1.2s-.3.7-.6 1-.6.5-1 .7-.8.2-1.4.2c-.4 0-.8-.1-1.2-.2s-.7-.3-1-.5-.5-.5-.7-.8-.3-.7-.3-1.1h1.7c0 .4.2.7.4.9s.6.3 1 .3c.2 0 .4 0 .6-.1s.3-.2.4-.4.2-.3.2-.6c0-.2.1-.5.1-.7s0-.5-.1-.7-.2-.4-.3-.5-.3-.3-.5-.3-.4-.1-.7-.1h-.5c-.1 0-.2.1-.3.1s-.2.1-.3.2l-.2.2zM456.7 144.9h-3.8v2.6h4.5v1.4h-6.3v-9.3h6.2v1.5h-4.4v2.3h3.8z" class="st12"/><path d="M32.7 364.1h110c2.8 0 5 2.2 5 5v40.4c0 2.8-2.2 5-5 5h-110c-2.8 0-5-2.2-5-5v-40.4c0-2.7 2.3-5 5-5" class="st11"/><path d="M43.5 381.9v3.4h-1.8V376h3.2c.5 0 1 .1 1.4.2s.8.4 1 .6c.3.3.5.6.7.9.2.4.2.8.2 1.2s-.1.8-.2 1.2c-.2.4-.4.7-.7.9-.3.3-.6.5-1 .6s-.9.2-1.4.2c0 .1-1.4.1-1.4.1m0-1.4h1.4c.3 0 .5 0 .7-.1s.3-.2.5-.3c.1-.1.2-.3.3-.5s.1-.4.1-.5c0-.2 0-.4-.1-.6s-.2-.4-.3-.5-.3-.3-.5-.3c-.2-.1-.4-.1-.7-.1h-1.4zM49.2 381.8c0-.5.1-1 .2-1.4s.4-.8.6-1.1c.3-.3.6-.6 1-.7.4-.2.9-.3 1.4-.3s1 .1 1.4.3.7.4 1 .7.5.7.6 1.1.2.9.2 1.4v.1c0 .5-.1 1-.2 1.4s-.4.8-.6 1.1c-.3.3-.6.6-1 .7-.4.2-.9.3-1.4.3s-1-.1-1.4-.3-.7-.4-1-.7-.5-.7-.6-1.1-.2-.9-.2-1.4zm1.8.1c0 .3 0 .6.1.8.1.3.1.5.3.7s.3.3.5.4.4.2.7.2.5-.1.7-.2.3-.3.5-.4c.1-.2.2-.4.3-.7s.1-.5.1-.8v-.1c0-.3 0-.5-.1-.8s-.1-.5-.3-.7c-.1-.2-.3-.3-.5-.5-.2-.1-.4-.2-.7-.2s-.5.1-.7.2-.3.3-.5.5-.2.4-.3.7-.1.5-.1.8zM61.7 383.2l.6-4.7h1.6l-1.2 6.9h-1.6l-.9-4.4-.9 4.4h-1.6l-1.2-6.9h1.6l.6 4.8.9-4.8h1.2c.1-.1.9 4.7.9 4.7M68.5 385.4c-.5 0-1-.1-1.4-.3s-.8-.4-1.1-.7-.5-.7-.7-1.1-.3-.8-.3-1.3v-.3c0-.5.1-1 .2-1.4.2-.4.4-.8.7-1.1s.6-.6 1.1-.7c.4-.2.9-.3 1.3-.3.5 0 .9.1 1.3.2s.7.4 1 .7.5.7.6 1.1.2.9.2 1.4v.8h-4.7c0 .2.1.4.2.6s.2.4.4.5.3.2.6.3c.2.1.4.1.7.1.2 0 .3 0 .5-.1.2 0 .3-.1.5-.1s.3-.1.4-.2.3-.2.4-.3l.9 1c-.1.2-.3.3-.4.5-.2.2-.4.3-.6.4s-.5.2-.8.3-.7 0-1 0m-.2-5.7c-.2 0-.4 0-.5.1-.2.1-.3.2-.4.3s-.2.3-.3.5-.1.4-.2.6h2.9v-.1c0-.2 0-.4-.1-.5-.1-.2-.2-.3-.3-.4s-.3-.2-.4-.3c-.3-.1-.5-.2-.7-.2M77.9 378.3c.3 0 .5 0 .7.1.2 0 .4.1.6.1l-.3 1.8c-.2-.1-.5-.1-.7-.1h-.7q-.75 0-1.2.3c-.3.2-.5.5-.7.8v4.1h-1.8v-6.9h1.7l.1 1.1c.3-.4.6-.7 1-.9.4-.3.9-.4 1.3-.4M93.4 382.9c0-.2 0-.3-.1-.5-.1-.1-.2-.3-.3-.4s-.3-.2-.5-.3-.5-.2-.8-.3c-.4-.1-.8-.2-1.2-.4s-.7-.4-1-.6-.5-.5-.7-.8-.3-.7-.3-1.1.1-.7.2-1.1c.2-.3.4-.6.7-.8s.6-.4 1-.5.8-.2 1.3-.2.9.1 1.3.2.7.3 1 .6.5.6.7.9.2.7.2 1.1h-1.7c0-.2 0-.4-.1-.6s-.2-.3-.3-.4-.3-.2-.5-.3-.4-.1-.7-.1c-.2 0-.4 0-.6.1s-.3.1-.5.2c-.1.1-.2.2-.3.4-.1.1-.1.3-.1.5s0 .3.1.5c.1.1.2.3.4.4l.6.3c.2.1.5.2.8.3.4.1.8.3 1.2.5q.6.3.9.6c.3.2.5.5.6.8s.2.7.2 1c0 .4-.1.8-.2 1.1-.2.3-.4.6-.7.8s-.6.4-1 .5-.8.2-1.3.2c-.3 0-.6 0-.9-.1s-.6-.1-.8-.2c-.3-.1-.5-.2-.7-.4l-.6-.6c-.2-.2-.3-.5-.4-.8s-.1-.6-.1-.9H90c0 .3.1.5.1.7.1.2.2.4.4.5l.6.3c.2.1.5.1.7.1s.4 0 .6-.1.3-.1.5-.2c.1-.1.2-.2.3-.4.2-.2.2-.3.2-.5M100.9 384.4c-.2.3-.5.6-.8.8s-.7.3-1.1.3-.7-.1-1-.2-.6-.3-.8-.5-.4-.5-.5-.9-.2-.8-.2-1.3v-4.1h1.8v4.1c0 .3 0 .5.1.7 0 .2.1.3.2.5.1.1.2.2.4.3.1.1.3.1.5.1.4 0 .6-.1.9-.2s.4-.3.5-.6v-4.8h1.8v6.9H101zM110.5 381.9c0 .5-.1 1-.2 1.4s-.3.8-.5 1.1-.5.6-.8.7q-.45.3-1.2.3c-.4 0-.7-.1-1-.2s-.5-.3-.7-.5v3.3h-1.8v-9.5h1.6l.1.7c.2-.3.5-.5.8-.6s.6-.2 1-.2q.6 0 1.2.3c.3.2.6.4.8.7s.4.7.5 1.1.2.9.2 1.4m-1.8-.1c0-.3 0-.6-.1-.8-.1-.3-.1-.5-.2-.7s-.3-.3-.4-.4c-.2-.1-.4-.2-.6-.2-.3 0-.6.1-.8.2s-.4.3-.5.5v2.9c.1.2.3.4.5.5s.5.2.8.2c.2 0 .5-.1.6-.2.2-.1.3-.3.4-.5s.2-.4.2-.7c.1-.3.1-.5.1-.8 0 .1 0 0 0 0M118.3 381.9c0 .5-.1 1-.2 1.4s-.3.8-.5 1.1-.5.6-.8.7q-.45.3-1.2.3c-.4 0-.7-.1-1-.2s-.5-.3-.7-.5v3.3h-1.8v-9.5h1.6l.1.7c.2-.3.5-.5.8-.6s.6-.2 1-.2q.6 0 1.2.3c.3.2.6.4.8.7s.4.7.5 1.1.2.9.2 1.4m-1.7-.1c0-.3 0-.6-.1-.8-.1-.3-.1-.5-.2-.7s-.3-.3-.4-.4c-.2-.1-.4-.2-.6-.2-.3 0-.6.1-.8.2s-.4.3-.5.5v2.9c.1.2.3.4.5.5s.5.2.8.2c.2 0 .5-.1.6-.2.2-.1.3-.3.4-.5s.2-.4.2-.7c.1-.3.1-.5.1-.8 0 .1 0 0 0 0M120.3 375.5h3.9v8.3h2v1.4h-5.8v-1.4h2.1V377h-2.1zM130.7 382.4l.2.7 1.8-4.7h2l-3.5 7.9-.3.6c-.1.2-.3.4-.5.6s-.4.3-.7.4-.6.2-.9.2h-.6c-.1 0-.1 0-.2-.1l.2-1.4h.6c.1 0 .3 0 .4-.1l.3-.3c.1-.1.1-.2.2-.3l.1-.1.4-.8-2.9-6.6h1.9zM67 397.6v3.4h-1.8v-9.3h3.2c.5 0 1 .1 1.4.2s.8.4 1 .6c.3.3.5.6.7.9.2.4.2.8.2 1.2s-.1.8-.2 1.2c-.2.4-.4.7-.7.9-.3.3-.6.5-1 .6s-.9.2-1.4.2c0 .1-1.4.1-1.4.1m0-1.5h1.4c.3 0 .5 0 .7-.1s.3-.2.5-.3c.1-.1.2-.3.3-.5s.1-.4.1-.5c0-.2 0-.4-.1-.6s-.2-.4-.3-.5-.3-.3-.5-.3c-.2-.1-.4-.1-.7-.1H67zM72.9 401v-9.3h2.4c.6 0 1.2.1 1.7.3s.9.5 1.3.9.6.8.8 1.3.3 1.1.3 1.7v.8c0 .6-.1 1.2-.3 1.7s-.5 1-.8 1.3-.8.7-1.3.9-1 .3-1.6.3c0 .1-2.5.1-2.5.1m1.8-7.8v6.4h.7c.3 0 .6-.1.9-.2s.5-.3.7-.6.3-.5.4-.9c.1-.3.1-.7.1-1.2v-.7c0-.4 0-.8-.1-1.1s-.2-.6-.4-.9c-.2-.2-.4-.4-.7-.6-.3-.1-.6-.2-1-.2zM94.8 391.7v6.1c0 .5-.1 1-.2 1.4s-.3.7-.6 1-.6.5-1 .6-.8.2-1.3.2-.9-.1-1.3-.2-.7-.4-1-.6c-.3-.3-.5-.6-.6-1s-.2-.9-.2-1.4v-6.1h1.8v6.1c0 .6.1 1.1.3 1.4s.5.5.9.5.8-.2 1-.5.3-.8.4-1.4v-6.1zM101.2 398.6c0-.2 0-.3-.1-.5-.1-.1-.2-.3-.3-.4s-.3-.2-.5-.3-.5-.2-.8-.3c-.4-.1-.8-.2-1.2-.4s-.7-.4-1-.6-.5-.5-.7-.8-.3-.7-.3-1.1.1-.7.2-1.1c.2-.3.4-.6.7-.8s.6-.4 1-.5.8-.2 1.3-.2.9.1 1.3.2.7.3 1 .6.5.6.7.9.2.7.2 1.1H101c0-.2 0-.4-.1-.6s-.2-.3-.3-.4-.3-.2-.5-.3-.4-.1-.7-.1c-.2 0-.4 0-.6.1s-.3.1-.5.2c-.1.1-.2.2-.3.4-.1.1-.1.3-.1.5s0 .3.1.5c.1.1.2.3.4.4l.6.3c.2.1.5.2.8.3.4.1.8.3 1.2.5q.6.3.9.6c.3.2.5.5.6.8s.2.7.2 1c0 .4-.1.8-.2 1.1-.2.3-.4.6-.7.8s-.6.4-1 .5-.8.2-1.3.2c-.3 0-.6 0-.9-.1s-.6-.1-.8-.2-.5-.2-.7-.4l-.6-.6c-.2-.2-.3-.5-.4-.8s-.1-.6-.1-.9h1.8c0 .3.1.5.1.7.1.2.2.4.4.5l.6.3c.2.1.5.1.7.1s.4 0 .6-.1.3-.1.5-.2c.1-.1.2-.2.3-.4.2-.2.2-.4.2-.5M104.2 401v-9.3h3.1c.5 0 1 .1 1.4.2s.8.3 1.1.5.5.5.7.8.2.7.2 1.1q0 .6-.3 1.2c-.2.3-.6.6-1 .8.3.1.5.2.7.3s.4.3.5.5l.3.6c.1.2.1.4.1.7 0 .4-.1.8-.2 1.2-.2.3-.4.6-.7.9-.3.2-.6.4-1 .5s-.9.2-1.4.2c-.1-.2-3.5-.2-3.5-.2m1.8-5.4h1.3c.5 0 .9-.1 1.1-.3s.4-.5.4-.9-.1-.7-.4-.9q-.45-.3-1.2-.3H106zm0 1.3v2.6h1.6c.5 0 .9-.1 1.1-.4.3-.2.4-.5.4-.9s-.1-.8-.3-1-.6-.4-1.1-.4H106z" class="st12"/><pattern xlink:href="#c" id="SVGID_00000129197111478383326300000013135728895261199018_" patternTransform="matrix(2 0 0 -2 15568.65 -32178.854)"/><path d="M211.1 364.1h90c2.8 0 5 2.2 5 5v40.4c0 2.8-2.2 5-5 5h-90c-2.8 0-5-2.2-5-5v-40.4c0-2.7 2.3-5 5-5" style="fill:url(#SVGID_00000129197111478383326300000013135728895261199018_)"/><path d="M243.6 383.9v6.2c0 .5-.1 1-.2 1.4s-.3.7-.6 1-.6.5-1 .6-.8.2-1.3.2-.9-.1-1.3-.2-.7-.4-1-.6-.5-.6-.6-1-.2-.9-.2-1.4v-6.2h1.8v6.2c0 .6.1 1.1.3 1.4s.5.5.9.5.8-.2 1-.5.3-.8.4-1.4v-6.2zM250 390.7c0-.2 0-.3-.1-.5-.1-.1-.2-.3-.3-.4s-.3-.2-.5-.3-.5-.2-.8-.3c-.4-.1-.8-.2-1.2-.4s-.7-.4-1-.6-.5-.5-.7-.8-.3-.7-.3-1.1.1-.7.2-1.1c.2-.3.4-.6.7-.8s.6-.4 1-.5.8-.2 1.3-.2.9.1 1.3.2.7.3 1 .6.5.6.7.9.2.7.2 1.1H250c0-.2 0-.4-.1-.6s-.2-.3-.3-.4-.3-.2-.5-.3-.4-.1-.7-.1c-.2 0-.4 0-.6.1s-.3.1-.5.2c-.1.1-.2.2-.3.4-.1.1-.1.3-.1.5s0 .3.1.5c.1.1.2.3.4.4l.6.3c.2.1.5.2.8.3.4.1.8.3 1.2.5q.6.3.9.6c.3.2.5.5.6.8s.2.7.2 1c0 .4-.1.8-.2 1.1-.2.3-.4.6-.7.8s-.6.4-1 .5-.8.2-1.3.2c-.3 0-.6 0-.9-.1s-.6-.1-.8-.2c-.3-.1-.5-.2-.7-.4l-.6-.6c-.2-.2-.3-.5-.4-.8s-.1-.6-.1-.9h1.8c0 .3.1.5.1.7.1.2.2.4.4.5l.6.3c.2.1.5.1.7.1s.4 0 .6-.1.3-.1.5-.2c.1-.1.2-.2.3-.4zM253 393.2v-9.3h3.1c.5 0 1 .1 1.4.2s.8.3 1.1.5.5.5.7.8.2.7.2 1.1q0 .6-.3 1.2c-.2.3-.6.6-1 .8.3.1.5.2.7.3s.4.3.5.5l.3.6c.1.2.1.4.1.7 0 .4-.1.8-.2 1.2s-.4.6-.7.9c-.3.2-.6.4-1 .5s-.9.2-1.4.2H253zm1.8-5.4h1.3c.5 0 .9-.1 1.1-.3s.4-.5.4-.9-.1-.7-.4-.9q-.45-.3-1.2-.3h-1.3zm0 1.3v2.6h1.6c.5 0 .9-.1 1.1-.4.3-.2.4-.5.4-.9s-.1-.8-.3-1-.6-.4-1.1-.4h-1.7zM267.2 389.8h-5.3v-1.4h5.3zM275.2 390.2c0 .5-.1.9-.3 1.3s-.4.7-.7 1-.6.5-1 .6-.8.2-1.3.2q-.75 0-1.5-.3c-.4-.2-.8-.5-1.1-.8s-.5-.8-.7-1.3-.2-1.1-.2-1.7V388c0-.6.1-1.2.2-1.7.2-.5.4-.9.7-1.3s.7-.6 1.1-.9c.4-.2.9-.3 1.4-.3s1 .1 1.4.2.7.4 1 .6c.3.3.5.6.7 1s.3.8.3 1.3h-1.8c0-.3-.1-.5-.1-.7-.1-.2-.2-.4-.3-.5s-.3-.2-.5-.3-.4-.1-.7-.1-.5.1-.7.2-.4.3-.5.5-.2.5-.3.8-.1.7-.1 1.1v1.3c0 .9.1 1.6.4 2s.7.7 1.2.7.8-.1 1.1-.4c.3-.2.4-.7.5-1.2h1.8z" class="st12"/><path d="M211.1 112.1h90c2.8 0 5 2.2 5 5v40.4c0 2.8-2.2 5-5 5h-90c-2.8 0-5-2.2-5-5v-40.4c0-2.7 2.3-5 5-5" style="fill:#f39c12"/><path d="M247.4 133.3h-1.8l-2.6-6v6h-1.8V124h1.8l2.6 6v-6h1.8zM253.5 133.3c0-.1-.1-.2-.1-.3s-.1-.2-.1-.4l-.3.3c-.1.1-.3.2-.4.2-.2.1-.3.1-.5.2-.2 0-.4.1-.6.1-.4 0-.7-.1-1-.2s-.5-.2-.8-.4c-.2-.2-.4-.4-.5-.7s-.2-.5-.2-.8c0-.7.3-1.3.8-1.7q.75-.6 2.4-.6h1v-.4c0-.3-.1-.6-.3-.8q-.3-.3-.9-.3c-.4 0-.6.1-.8.2-.2.2-.2.4-.2.6h-1.8c0-.3.1-.6.2-.8.1-.3.3-.5.6-.7.2-.2.6-.4.9-.5.4-.1.8-.2 1.2-.2s.8.1 1.2.2.7.3.9.5.5.5.6.8.2.7.2 1.1v3c0 .4 0 .7.1.9 0 .2.1.5.2.6v.1zm-1.7-1.2c.2 0 .3 0 .5-.1.2 0 .3-.1.4-.2s.2-.1.3-.2.2-.2.2-.3v-1.2h-.9c-.3 0-.5 0-.7.1s-.4.1-.5.2l-.3.3c-.1.1-.1.3-.1.4q0 .3.3.6c.2.3.5.4.8.4M258.6 126.4l.1 1c.2-.3.5-.6.9-.8s.7-.3 1.2-.3c.3 0 .7.1 1 .2s.5.3.7.5.4.5.5.9.2.8.2 1.3v4.2h-1.8v-4.2c0-.3 0-.5-.1-.7s-.2-.3-.3-.4-.3-.2-.4-.2c-.2 0-.3-.1-.5-.1-.3 0-.6.1-.8.2s-.4.3-.5.5v4.9H257v-6.9c0-.1 1.6-.1 1.6-.1M264.6 129.8c0-.5.1-1 .2-1.4s.4-.8.6-1.1c.3-.3.6-.6 1-.7.4-.2.9-.3 1.4-.3s1 .1 1.4.3.7.4 1 .7.5.7.6 1.1.2.9.2 1.4v.1c0 .5-.1 1-.2 1.4s-.4.8-.6 1.1c-.3.3-.6.6-1 .7-.4.2-.9.3-1.4.3s-1-.1-1.4-.3-.7-.4-1-.7-.5-.7-.6-1.1-.2-.9-.2-1.4zm1.8.1c0 .3 0 .6.1.8.1.3.1.5.3.7s.3.3.5.4.4.2.7.2.5-.1.7-.2.3-.3.5-.4c.1-.2.2-.4.3-.7s.1-.5.1-.8v-.1c0-.3 0-.5-.1-.8s-.1-.5-.3-.7c-.1-.2-.3-.3-.5-.5-.2-.1-.4-.2-.7-.2s-.5.1-.7.2-.3.3-.5.5-.2.4-.3.7-.1.5-.1.8zM236.6 145.5h-1.4v3.5h-1.8v-9.3h3.1c.5 0 1 .1 1.4.2s.8.3 1.1.5.5.5.7.9c.2.3.2.8.2 1.2 0 .3 0 .6-.1.9s-.2.5-.3.7-.3.4-.5.6-.4.3-.7.4l2 3.8v.1h-1.9zm-1.3-1.4h1.3c.5 0 .9-.1 1.2-.4s.4-.6.4-1.1-.1-.8-.4-1.1-.7-.4-1.2-.4h-1.3zM243.2 145.6v3.4h-1.8v-9.3h3.2c.5 0 1 .1 1.4.2s.8.4 1 .6c.3.3.5.6.7.9.2.4.2.8.2 1.2s-.1.8-.2 1.2c-.2.4-.4.7-.7.9-.3.3-.6.5-1 .6s-.9.2-1.4.2h-1.4zm0-1.5h1.4c.3 0 .5 0 .7-.1s.3-.2.5-.3c.1-.1.2-.3.3-.5s.1-.4.1-.5c0-.2 0-.4-.1-.6s-.2-.4-.3-.5-.3-.3-.5-.3c-.2-.1-.4-.1-.7-.1h-1.4zM255.3 149H249v-1.2l3-3.2c.2-.3.4-.5.6-.7s.3-.4.4-.6.2-.3.2-.5c0-.1.1-.3.1-.4 0-.2 0-.4-.1-.6s-.1-.3-.3-.4c-.1-.1-.2-.2-.4-.3s-.3-.1-.5-.1c-.5 0-.9.1-1.1.4s-.4.7-.4 1.1h-1.8c0-.4.1-.8.2-1.2.2-.4.4-.7.7-1s.6-.5 1-.7.9-.2 1.3-.2c.5 0 .9.1 1.3.2q.6.15.9.6c.3.45.4.5.6.9.1.3.2.7.2 1.1 0 .3 0 .6-.1.9s-.2.6-.4.8c-.2.3-.4.5-.6.8s-.5.6-.8.9l-1.7 1.8h4.1v1.6zM263.1 145.5c0 .6-.1 1.1-.2 1.6s-.3.8-.6 1.1-.6.5-1 .7-.8.2-1.3.2-.9-.1-1.3-.2c-.4-.2-.7-.4-1-.7s-.5-.7-.6-1.1c-.1-.5-.2-1-.2-1.6v-2.2c0-.6.1-1.1.2-1.6s.3-.8.6-1.1.6-.5 1-.7.8-.2 1.3-.2.9.1 1.3.2c.4.2.7.4 1 .7s.5.7.6 1.1c.1.5.2 1 .2 1.6zm-4.3-.8 2.5-1.8c0-.6-.1-1.1-.3-1.4s-.5-.5-.9-.5-.7.2-.9.5q-.3.45-.3 1.5v1.7zm2.5-.6-2.5 1.8c0 .6.1 1.1.3 1.4s.5.4.9.4.7-.2.9-.5q.3-.45.3-1.5v-1.6zM270 145.5h1.1v1.4H270v2h-1.8v-2h-3.9l-.1-1.1 3.9-6.2h1.8v5.9zm-3.9 0h2.2v-3.4l-.2.3zM278.7 145.5c0 .6-.1 1.1-.2 1.6s-.3.8-.6 1.1-.6.5-1 .7-.8.2-1.3.2-.9-.1-1.3-.2c-.4-.2-.7-.4-1-.7s-.5-.7-.6-1.1c-.1-.5-.2-1-.2-1.6v-2.2c0-.6.1-1.1.2-1.6s.3-.8.6-1.1.6-.5 1-.7.8-.2 1.3-.2.9.1 1.3.2c.4.2.7.4 1 .7s.5.7.6 1.1c.1.5.2 1 .2 1.6zm-4.2-.8 2.5-1.8c0-.6-.1-1.1-.3-1.4s-.5-.5-.9-.5-.7.2-.9.5q-.3.45-.3 1.5v1.7zm2.5-.6-2.5 1.8c0 .6.1 1.1.3 1.4s.5.4.9.4.7-.2.9-.5q.3-.45.3-1.5v-1.6z" class="st12"/><pattern xlink:href="#d" id="SVGID_00000137841311453444927820000008019256939688996502_" patternTransform="matrix(2 0 0 -2 15580.339 -32201)"/><path d="M647.2 112.1h105.4c2.8 0 5 2.2 5 5v292.4c0 2.8-2.2 5-5 5H647.2c-2.8 0-5-2.2-5-5V117.1c0-2.7 2.3-5 5-5" style="fill:url(#SVGID_00000137841311453444927820000008019256939688996502_)"/><path d="m683.4 250 .9 3.5 1-3.5h2.2v9.3h-1.6v-2.7l.1-4.3-1.2 4h-.9l-1.1-3.9.1 4.2v2.7h-1.6V250zM688.8 255.8c0-.5.1-1 .2-1.4s.4-.8.6-1.1c.3-.3.6-.6 1-.7.4-.2.9-.3 1.4-.3s1 .1 1.4.3.7.4 1 .7.5.7.6 1.1.2.9.2 1.4v.1c0 .5-.1 1-.2 1.4s-.4.8-.6 1.1c-.3.3-.6.6-1 .7-.4.2-.9.3-1.4.3s-1-.1-1.4-.3-.7-.4-1-.7-.5-.7-.6-1.1-.2-.9-.2-1.4zm1.8.1c0 .3 0 .6.1.8.1.3.1.5.3.7s.3.3.5.4.4.2.7.2.5-.1.7-.2.3-.3.5-.4c.1-.2.2-.4.3-.7s.1-.5.1-.8v-.1c0-.3 0-.5-.1-.8s-.1-.5-.3-.7c-.1-.2-.3-.3-.5-.5-.2-.1-.4-.2-.7-.2s-.5.1-.7.2-.3.3-.5.5-.2.4-.3.7-.1.5-.1.8zM700.2 250.7v1.7h2.6v1.3h-2.6v3c0 .3 0 .5.1.6.1.2.1.3.2.4s.2.2.4.2.3.1.5.1h.8c.1 0 .2 0 .4-.1.1 0 .2 0 .3-.1l.2 1.2c-.1.1-.3.1-.4.2s-.3.1-.5.1-.4.1-.6.1h-.6c-.4 0-.7 0-1-.1s-.6-.3-.8-.5-.4-.5-.5-.8-.2-.7-.2-1.2v-3.1h-1.6v-1.3h1.6v-1.7zM704.5 255.8c0-.5.1-1 .2-1.4s.4-.8.6-1.1c.3-.3.6-.6 1-.7.4-.2.9-.3 1.4-.3s1 .1 1.4.3.7.4 1 .7.5.7.6 1.1.2.9.2 1.4v.1c0 .5-.1 1-.2 1.4s-.4.8-.6 1.1c-.3.3-.6.6-1 .7-.4.2-.9.3-1.4.3s-1-.1-1.4-.3-.7-.4-1-.7-.5-.7-.6-1.1-.2-.9-.2-1.4zm1.8.1c0 .3 0 .6.1.8.1.3.1.5.3.7s.3.3.5.4.4.2.7.2.5-.1.7-.2.3-.3.5-.4c.1-.2.2-.4.3-.7s.1-.5.1-.8v-.1c0-.3 0-.5-.1-.8s-.1-.5-.3-.7c-.1-.2-.3-.3-.5-.5-.2-.1-.4-.2-.7-.2s-.5.1-.7.2-.3.3-.5.5-.2.4-.3.7-.1.5-.1.8zM717.5 252.3c.3 0 .5 0 .7.1.2 0 .4.1.6.1l-.3 1.8c-.2-.1-.5-.1-.7-.1h-.7q-.75 0-1.2.3c-.3.2-.5.5-.7.8v4.1h-1.8v-6.9h1.7l.1 1.1c.3-.4.6-.7 1-.9.4-.3.9-.4 1.3-.4M668 272.1c0 .5-.1.9-.3 1.3s-.4.7-.7 1-.6.5-1 .6-.8.2-1.3.2q-.75 0-1.5-.3c-.75-.3-.8-.5-1.1-.8s-.5-.8-.7-1.3-.2-1.1-.2-1.7v-1.2c0-.6.1-1.2.2-1.7.2-.5.4-.9.7-1.3s.7-.6 1.1-.9c.4-.2.9-.3 1.4-.3s1 .1 1.4.2.7.4 1 .6c.3.3.5.6.7 1s.3.8.3 1.3h-1.8c0-.3-.1-.5-.1-.7-.1-.2-.2-.4-.3-.5s-.3-.2-.5-.3-.4-.1-.7-.1-.5.1-.7.2-.4.3-.5.5-.2.5-.3.8-.1.7-.1 1.1v1.3c0 .9.1 1.6.4 2s.7.7 1.2.7.8-.1 1.1-.4c.3-.2.4-.7.5-1.2h1.8zM669.3 271.5c0-.5.1-1 .2-1.4s.4-.8.6-1.1c.3-.3.6-.6 1-.7.4-.2.9-.3 1.4-.3s1 .1 1.4.3.7.4 1 .7.5.7.6 1.1.2.9.2 1.4v.1c0 .5-.1 1-.2 1.4s-.4.8-.6 1.1c-.3.3-.6.6-1 .7-.4.2-.9.3-1.4.3s-1-.1-1.4-.3-.7-.4-1-.7-.5-.7-.6-1.1-.2-.9-.2-1.4zm1.7.1c0 .3 0 .6.1.8.1.3.1.5.3.7s.3.3.5.4.4.2.7.2.5-.1.7-.2.3-.3.5-.4c.1-.2.2-.4.3-.7s.1-.5.1-.8v-.1c0-.3 0-.5-.1-.8s-.1-.5-.3-.7c-.1-.2-.3-.3-.5-.5-.2-.1-.4-.2-.7-.2s-.5.1-.7.2-.3.3-.5.5-.2.4-.3.7-.1.5-.1.8zM678.9 268.1l.1 1c.2-.3.5-.6.9-.8s.7-.3 1.2-.3c.3 0 .7.1 1 .2s.5.3.7.5.4.5.5.9.2.8.2 1.3v4.2h-1.8v-4.2c0-.3 0-.5-.1-.7s-.2-.3-.3-.4-.3-.2-.4-.2c-.2 0-.3-.1-.5-.1-.3 0-.6.1-.8.2s-.4.3-.5.5v4.9h-1.8v-6.9h1.6zM686.8 268.1l.1 1c.2-.3.5-.6.9-.8s.7-.3 1.2-.3c.3 0 .7.1 1 .2s.5.3.7.5.4.5.5.9.2.8.2 1.3v4.2h-1.8v-4.2c0-.3 0-.5-.1-.7s-.2-.3-.3-.4-.3-.2-.4-.2c-.2 0-.3-.1-.5-.1-.3 0-.6.1-.8.2s-.4.3-.5.5v4.9h-1.8v-6.9h1.6zM696.3 275.1c-.5 0-1-.1-1.4-.3s-.8-.4-1.1-.7-.5-.7-.7-1.1-.3-.8-.3-1.3v-.3c0-.5.1-1 .2-1.4.2-.4.4-.8.7-1.1s.6-.6 1.1-.7c.4-.2.9-.3 1.3-.3.5 0 .9.1 1.3.2s.7.4 1 .7.5.7.6 1.1.2.9.2 1.4v.8h-4.7c0 .2.1.4.2.6s.2.4.4.5.3.2.6.3c.2.1.4.1.7.1.2 0 .3 0 .5-.1.2 0 .3-.1.5-.1s.3-.1.4-.2.3-.2.4-.3l.9 1c-.1.2-.3.3-.4.5-.2.2-.4.3-.6.4s-.5.2-.8.3-.6 0-1 0m-.2-5.7c-.2 0-.4 0-.5.1-.2.1-.3.2-.4.3s-.2.3-.3.5-.1.4-.2.6h2.9v-.1c0-.2 0-.4-.1-.5-.1-.2-.2-.3-.3-.4s-.3-.2-.4-.3c-.2-.2-.4-.2-.7-.2M703.9 273.7c.2 0 .3 0 .5-.1s.3-.1.4-.2l.3-.3c.1-.1.1-.3.1-.4h1.7c0 .4-.1.7-.2 1-.2.3-.4.6-.6.8-.3.2-.6.4-.9.5-.4.1-.7.2-1.1.2-.5 0-1-.1-1.4-.3s-.7-.4-1-.7-.5-.7-.6-1.1-.2-.9-.2-1.4v-.2c0-.5.1-.9.2-1.4.1-.4.3-.8.6-1.1s.6-.6 1-.7c.4-.2.9-.3 1.4-.3.4 0 .8.1 1.2.2s.7.3.9.5c.3.2.5.5.6.8s.2.7.2 1.1h-1.7c0-.2 0-.3-.1-.5s-.1-.3-.3-.4c-.1-.1-.3-.2-.4-.3-.2-.1-.3-.1-.5-.1-.3 0-.5.1-.7.2s-.3.3-.4.5-.2.4-.2.7c0 .2-.1.5-.1.8v.2c0 .3 0 .5.1.8 0 .2.1.5.2.7s.3.3.4.5.3 0 .6 0M711.9 266.4v1.7h2.6v1.3h-2.6v3c0 .3 0 .5.1.6.1.2.1.3.2.4s.2.2.4.2.3.1.5.1h.8c.1 0 .2 0 .4-.1.1 0 .2 0 .3-.1l.2 1.2c-.1.1-.3.1-.4.2s-.3.1-.5.1-.4.1-.6.1h-.6c-.4 0-.7 0-1-.1s-.6-.3-.8-.5-.4-.5-.5-.8-.2-.7-.2-1.2v-3.1h-1.6v-1.3h1.6v-1.7zM716.3 271.5c0-.5.1-1 .2-1.4s.4-.8.6-1.1c.3-.3.6-.6 1-.7.4-.2.9-.3 1.4-.3s1 .1 1.4.3.7.4 1 .7.5.7.6 1.1.2.9.2 1.4v.1c0 .5-.1 1-.2 1.4s-.4.8-.6 1.1c-.3.3-.6.6-1 .7-.4.2-.9.3-1.4.3s-1-.1-1.4-.3-.7-.4-1-.7-.5-.7-.6-1.1-.2-.9-.2-1.4zm1.7.1c0 .3 0 .6.1.8.1.3.1.5.3.7s.3.3.5.4.4.2.7.2.5-.1.7-.2.3-.3.5-.4c.1-.2.2-.4.3-.7s.1-.5.1-.8v-.1c0-.3 0-.5-.1-.8s-.1-.5-.3-.7c-.1-.2-.3-.3-.5-.5-.2-.1-.4-.2-.7-.2s-.5.1-.7.2-.3.3-.5.5-.2.4-.3.7-.1.5-.1.8zM729.3 268c.3 0 .5 0 .7.1.2 0 .4.1.6.1l-.3 1.8c-.2-.1-.5-.1-.7-.1h-.7q-.75 0-1.2.3c-.3.2-.5.5-.7.8v4.1h-1.8v-6.9h1.7l.1 1.1c.3-.4.6-.7 1-.9.4-.3.8-.4 1.3-.4M736.6 273.1c0-.1 0-.2-.1-.3 0-.1-.1-.2-.3-.2-.1-.1-.3-.1-.5-.2s-.5-.1-.8-.2c-.4-.1-.8-.2-1.1-.3s-.6-.3-.9-.4l-.6-.6c-.2-.2-.2-.5-.2-.8s.1-.6.2-.8c.1-.3.3-.5.6-.7s.6-.4.9-.5c.4-.1.8-.2 1.2-.2.5 0 .9.1 1.3.2s.7.3 1 .5.5.4.6.7.2.6.2.9h-1.8c0-.3-.1-.5-.3-.7s-.5-.3-1-.3c-.4 0-.7.1-.9.2s-.3.3-.3.5c0 .1 0 .2.1.3 0 .1.1.2.2.2.1.1.3.1.4.2.2.1.4.1.7.1l1.2.3c.4.1.7.2.9.4q.45.3.6.6c.1.2.2.5.2.9 0 .3-.1.6-.2.8-.1.3-.4.5-.6.7s-.6.3-1 .4-.8.2-1.3.2-1-.1-1.4-.2-.7-.3-1-.5-.5-.5-.6-.7c-.1-.3-.2-.6-.2-.8h1.7c0 .2.1.3.2.5l.3.3c.1.1.3.1.5.2s.4.1.6.1c.4 0 .8-.1 1-.2s.5-.4.5-.6" class="st12"/><path d="M200.7 389.3h-53" class="st16"/><path d="m184.1 368.9-3.4 3.6 18.1 16.8-18.1 16.8 3.4 3.7 22-20.5z" class="st12"/><path d="M200.7 137.3h-91.3" class="st16"/><path d="m184.1 116.9-3.4 3.7 18.1 16.7-18.1 16.8 3.4 3.7 22-20.5z" class="st12"/><path d="M757.6 263.3H809" class="st16"/><path d="m792.4 283.8-3.4-3.7 18.1-16.8-18.1-16.7 3.4-3.7 22 20.4z" class="st12"/><path d="M205 389.3h-57.3" class="st17"/><path d="m201.7 385.2-.7.8 3.7 3.3-3.7 3.4.7.7 4.4-4.1z" class="st11"/><path d="M641.1 389.3h-32.8" class="st17"/><path d="m637.8 385.2-.7.8 3.6 3.3-3.6 3.4.7.7 4.4-4.1z" class="st11"/><path d="M205 137.3h-95.6" class="st17"/><path d="m201.7 133.2-.7.8 3.7 3.3-3.7 3.4.7.7 4.4-4.1z" class="st11"/><path d="M548 389.3h-33.5" class="st17"/><path d="M306.1 137.3h47.3" class="st18"/><path d="m350.1 141.4-.7-.7 3.7-3.4-3.7-3.3.7-.7 4.4 4z" class="st19"/><path d="M514.5 137.3h126.6" class="st18"/><path d="m637.8 141.4-.7-.7 3.6-3.4-3.6-3.3.7-.7 4.4 4z" class="st19"/><path d="M306.1 389.3h47.3" class="st18"/><path d="m350.1 393.4-.7-.7 3.7-3.4-3.7-3.3.7-.8 4.4 4.1z" class="st19"/><path d="M330.3 137.3v81.8h23.1" class="st18"/><path d="m350.1 223.2-.7-.7 3.7-3.4-3.7-3.4.7-.7 4.4 4.1z" class="st19"/><path d="M330.3 219.1v80.6h114.2V363" class="st18"/><path d="m440.4 359.7.8-.7 3.3 3.7 3.4-3.7.7.7-4.1 4.4z" class="st19"/><path d="M757.6 263.3h56.8" class="st18"/><path d="M921 134.8v1c2.2 0 4 1.8 4 4v20.4c0 2.2-1.8 4-4 4h-80c-2.2 0-4-1.8-4-4v-20.4c0-2.2 1.8-4 4-4h80zm0 0h-80c-2.8 0-5 2.2-5 5v20.4c0 2.8 2.2 5 5 5h80c2.8 0 5-2.2 5-5v-20.4c0-2.8-2.2-5-5-5" class="st20"/><path d="m864.5 144.5.9 3.5 1-3.5h2.2v9.3H867v-2.7l.1-4.3-1.2 4h-.9l-1.1-3.9.1 4.2v2.7h-1.6v-9.3zM869.9 150.3c0-.5.1-1 .2-1.4s.4-.8.6-1.1c.3-.3.6-.6 1-.7.4-.2.9-.3 1.4-.3s1 .1 1.4.3.7.4 1 .7.5.7.6 1.1.2.9.2 1.4v.1c0 .5-.1 1-.2 1.4s-.4.8-.6 1.1c-.3.3-.6.6-1 .7-.4.2-.9.3-1.4.3s-1-.1-1.4-.3-.7-.4-1-.7-.5-.7-.6-1.1-.2-.9-.2-1.4zm1.8.1c0 .3 0 .6.1.8.1.3.1.5.3.7s.3.3.5.4.4.2.7.2.5-.1.7-.2.3-.3.5-.4c.1-.2.2-.4.3-.7s.1-.5.1-.8v-.1c0-.3 0-.5-.1-.8s-.1-.5-.3-.7c-.1-.2-.3-.3-.5-.5-.2-.1-.4-.2-.7-.2s-.5.1-.7.2-.3.3-.5.5-.2.4-.3.7-.1.5-.1.8zM881.3 145.2v1.7h2.6v1.3h-2.6v3c0 .3 0 .5.1.6.1.2.1.3.2.4s.2.2.4.2.3.1.5.1h.8c.1 0 .2 0 .4-.1.1 0 .2 0 .3-.1l.2 1.2c-.1.1-.3.1-.4.2s-.3.1-.5.1-.4.1-.6.1h-.6c-.4 0-.7 0-1-.1s-.6-.3-.8-.5-.4-.5-.5-.8-.2-.7-.2-1.2v-3.1H878v-1.3h1.6v-1.7zM885.6 150.3c0-.5.1-1 .2-1.4s.4-.8.6-1.1c.3-.3.6-.6 1-.7.4-.2.9-.3 1.4-.3s1 .1 1.4.3.7.4 1 .7.5.7.6 1.1.2.9.2 1.4v.1c0 .5-.1 1-.2 1.4s-.4.8-.6 1.1c-.3.3-.6.6-1 .7-.4.2-.9.3-1.4.3s-1-.1-1.4-.3-.7-.4-1-.7-.5-.7-.6-1.1-.2-.9-.2-1.4zm1.8.1c0 .3 0 .6.1.8.1.3.1.5.3.7s.3.3.5.4.4.2.7.2.5-.1.7-.2.3-.3.5-.4c.1-.2.2-.4.3-.7s.1-.5.1-.8v-.1c0-.3 0-.5-.1-.8s-.1-.5-.3-.7c-.1-.2-.3-.3-.5-.5-.2-.1-.4-.2-.7-.2s-.5.1-.7.2-.3.3-.5.5-.2.4-.3.7-.1.5-.1.8zM898.6 146.8c.3 0 .5 0 .7.1.2 0 .4.1.6.1l-.3 1.8c-.2-.1-.5-.1-.7-.1h-.7q-.75 0-1.2.3c-.3.2-.5.5-.7.8v4.1h-1.8V147h1.7l.1 1.1c.3-.4.6-.7 1-.9.4-.3.9-.4 1.3-.4M921 180.1v1c2.2 0 4 1.8 4 4v20.4c0 2.2-1.8 4-4 4h-80c-2.2 0-4-1.8-4-4v-20.4c0-2.2 1.8-4 4-4h80zm0 0h-80c-2.8 0-5 2.2-5 5v20.4c0 2.8 2.2 5 5 5h80c2.8 0 5-2.2 5-5v-20.4c0-2.7-2.2-5-5-5" class="st20"/><path d="m864.5 189.9.9 3.5 1-3.5h2.2v9.3H867v-2.7l.1-4.3-1.2 4h-.9l-1.1-3.9.1 4.2v2.7h-1.6v-9.3zM869.9 195.6c0-.5.1-1 .2-1.4s.4-.8.6-1.1c.3-.3.6-.6 1-.7.4-.2.9-.3 1.4-.3s1 .1 1.4.3.7.4 1 .7.5.7.6 1.1.2.9.2 1.4v.1c0 .5-.1 1-.2 1.4s-.4.8-.6 1.1c-.3.3-.6.6-1 .7-.4.2-.9.3-1.4.3s-1-.1-1.4-.3-.7-.4-1-.7-.5-.7-.6-1.1-.2-.9-.2-1.4zm1.8.2c0 .3 0 .6.1.8.1.3.1.5.3.7s.3.3.5.4.4.2.7.2.5-.1.7-.2.3-.3.5-.4c.1-.2.2-.4.3-.7s.1-.5.1-.8v-.1c0-.3 0-.5-.1-.8s-.1-.5-.3-.7c-.1-.2-.3-.3-.5-.5-.2-.1-.4-.2-.7-.2s-.5.1-.7.2-.3.3-.5.5-.2.4-.3.7-.1.5-.1.8zM881.3 190.6v1.7h2.6v1.3h-2.6v3c0 .3 0 .5.1.6.1.2.1.3.2.4s.2.2.4.2.3.1.5.1h.8c.1 0 .2 0 .4-.1.1 0 .2 0 .3-.1l.2 1.2c-.1.1-.3.1-.4.2s-.3.1-.5.1-.4.1-.6.1h-.6c-.4 0-.7 0-1-.1s-.6-.3-.8-.5-.4-.5-.5-.8-.2-.7-.2-1.2v-3.1H878v-1.3h1.6v-1.7zM885.6 195.6c0-.5.1-1 .2-1.4s.4-.8.6-1.1c.3-.3.6-.6 1-.7.4-.2.9-.3 1.4-.3s1 .1 1.4.3.7.4 1 .7.5.7.6 1.1.2.9.2 1.4v.1c0 .5-.1 1-.2 1.4s-.4.8-.6 1.1c-.3.3-.6.6-1 .7-.4.2-.9.3-1.4.3s-1-.1-1.4-.3-.7-.4-1-.7-.5-.7-.6-1.1-.2-.9-.2-1.4zm1.8.2c0 .3 0 .6.1.8.1.3.1.5.3.7s.3.3.5.4.4.2.7.2.5-.1.7-.2.3-.3.5-.4c.1-.2.2-.4.3-.7s.1-.5.1-.8v-.1c0-.3 0-.5-.1-.8s-.1-.5-.3-.7c-.1-.2-.3-.3-.5-.5-.2-.1-.4-.2-.7-.2s-.5.1-.7.2-.3.3-.5.5-.2.4-.3.7-.1.5-.1.8zM898.6 192.1c.3 0 .5 0 .7.1.2 0 .4.1.6.1l-.3 1.8c-.2-.1-.5-.1-.7-.1h-.7q-.75 0-1.2.3c-.3.2-.5.5-.7.8v4.1h-1.8v-6.9h1.7l.1 1.1c.3-.4.6-.7 1-.9.4-.3.9-.4 1.3-.4M921 225.5v1c2.2 0 4 1.8 4 4v20.4c0 2.2-1.8 4-4 4h-80c-2.2 0-4-1.8-4-4v-20.4c0-2.2 1.8-4 4-4h80zm0 0h-80c-2.8 0-5 2.2-5 5v20.4c0 2.8 2.2 5 5 5h80c2.8 0 5-2.2 5-5v-20.4c0-2.8-2.2-5-5-5" class="st20"/><path d="m864.5 235.2.9 3.5 1-3.5h2.2v9.3H867v-2.7l.1-4.3-1.2 4h-.9l-1.1-3.9.1 4.2v2.7h-1.6v-9.3zM869.9 241c0-.5.1-1 .2-1.4s.4-.8.6-1.1c.3-.3.6-.6 1-.7.4-.2.9-.3 1.4-.3s1 .1 1.4.3.7.4 1 .7.5.7.6 1.1.2.9.2 1.4v.1c0 .5-.1 1-.2 1.4s-.4.8-.6 1.1c-.3.3-.6.6-1 .7-.4.2-.9.3-1.4.3s-1-.1-1.4-.3-.7-.4-1-.7-.5-.7-.6-1.1-.2-.9-.2-1.4zm1.8.1c0 .3 0 .6.1.8.1.3.1.5.3.7s.3.3.5.4.4.2.7.2.5-.1.7-.2.3-.3.5-.4c.1-.2.2-.4.3-.7s.1-.5.1-.8v-.1c0-.3 0-.5-.1-.8s-.1-.5-.3-.7c-.1-.2-.3-.3-.5-.5-.2-.1-.4-.2-.7-.2s-.5.1-.7.2-.3.3-.5.5-.2.4-.3.7-.1.5-.1.8zM881.3 235.9v1.7h2.6v1.3h-2.6v3c0 .3 0 .5.1.6.1.2.1.3.2.4s.2.2.4.2.3.1.5.1h.8c.1 0 .2 0 .4-.1.1 0 .2 0 .3-.1l.2 1.2c-.1.1-.3.1-.4.2s-.3.1-.5.1-.4.1-.6.1h-.6c-.4 0-.7 0-1-.1s-.6-.3-.8-.5-.4-.5-.5-.8-.2-.7-.2-1.2v-3.1H878v-1.3h1.6v-1.7zM885.6 241c0-.5.1-1 .2-1.4s.4-.8.6-1.1c.3-.3.6-.6 1-.7.4-.2.9-.3 1.4-.3s1 .1 1.4.3.7.4 1 .7.5.7.6 1.1.2.9.2 1.4v.1c0 .5-.1 1-.2 1.4s-.4.8-.6 1.1c-.3.3-.6.6-1 .7-.4.2-.9.3-1.4.3s-1-.1-1.4-.3-.7-.4-1-.7-.5-.7-.6-1.1-.2-.9-.2-1.4zm1.8.1c0 .3 0 .6.1.8.1.3.1.5.3.7s.3.3.5.4.4.2.7.2.5-.1.7-.2.3-.3.5-.4c.1-.2.2-.4.3-.7s.1-.5.1-.8v-.1c0-.3 0-.5-.1-.8s-.1-.5-.3-.7c-.1-.2-.3-.3-.5-.5-.2-.1-.4-.2-.7-.2s-.5.1-.7.2-.3.3-.5.5-.2.4-.3.7-.1.5-.1.8zM898.6 237.5c.3 0 .5 0 .7.1.2 0 .4.1.6.1l-.3 1.8c-.2-.1-.5-.1-.7-.1h-.7q-.75 0-1.2.3c-.3.2-.5.5-.7.8v4.1h-1.8v-6.9h1.7l.1 1.1c.3-.4.6-.7 1-.9.4-.3.9-.4 1.3-.4M921 270.8v1c2.2 0 4 1.8 4 4v20.4c0 2.2-1.8 4-4 4h-80c-2.2 0-4-1.8-4-4v-20.4c0-2.2 1.8-4 4-4h80zm0 0h-80c-2.8 0-5 2.2-5 5v20.4c0 2.8 2.2 5 5 5h80c2.8 0 5-2.2 5-5v-20.4c0-2.8-2.2-5-5-5" class="st20"/><path d="m864.5 280.5.9 3.5 1-3.5h2.2v9.3H867v-2.7l.1-4.3-1.2 4h-.9l-1.1-3.9.1 4.2v2.7h-1.6v-9.3zM869.9 286.3c0-.5.1-1 .2-1.4s.4-.8.6-1.1c.3-.3.6-.6 1-.7.4-.2.9-.3 1.4-.3s1 .1 1.4.3.7.4 1 .7.5.7.6 1.1.2.9.2 1.4v.1c0 .5-.1 1-.2 1.4s-.4.8-.6 1.1c-.3.3-.6.6-1 .7-.4.2-.9.3-1.4.3s-1-.1-1.4-.3-.7-.4-1-.7-.5-.7-.6-1.1-.2-.9-.2-1.4zm1.8.1c0 .3 0 .6.1.8.1.3.1.5.3.7s.3.3.5.4.4.2.7.2.5-.1.7-.2.3-.3.5-.4c.1-.2.2-.4.3-.7s.1-.5.1-.8v-.1c0-.3 0-.5-.1-.8s-.1-.5-.3-.7c-.1-.2-.3-.3-.5-.5-.2-.1-.4-.2-.7-.2s-.5.1-.7.2-.3.3-.5.5-.2.4-.3.7-.1.5-.1.8zM881.3 281.2v1.7h2.6v1.3h-2.6v3c0 .3 0 .5.1.6.1.2.1.3.2.4s.2.2.4.2.3.1.5.1h.8c.1 0 .2 0 .4-.1.1 0 .2 0 .3-.1l.2 1.2c-.1.1-.3.1-.4.2s-.3.1-.5.1-.4.1-.6.1h-.6c-.4 0-.7 0-1-.1s-.6-.3-.8-.5-.4-.5-.5-.8-.2-.7-.2-1.2v-3.1H878v-1.3h1.6v-1.7zM885.6 286.3c0-.5.1-1 .2-1.4s.4-.8.6-1.1c.3-.3.6-.6 1-.7.4-.2.9-.3 1.4-.3s1 .1 1.4.3.7.4 1 .7.5.7.6 1.1.2.9.2 1.4v.1c0 .5-.1 1-.2 1.4s-.4.8-.6 1.1c-.3.3-.6.6-1 .7-.4.2-.9.3-1.4.3s-1-.1-1.4-.3-.7-.4-1-.7-.5-.7-.6-1.1-.2-.9-.2-1.4zm1.8.1c0 .3 0 .6.1.8.1.3.1.5.3.7s.3.3.5.4.4.2.7.2.5-.1.7-.2.3-.3.5-.4c.1-.2.2-.4.3-.7s.1-.5.1-.8v-.1c0-.3 0-.5-.1-.8s-.1-.5-.3-.7c-.1-.2-.3-.3-.5-.5-.2-.1-.4-.2-.7-.2s-.5.1-.7.2-.3.3-.5.5-.2.4-.3.7-.1.5-.1.8zM898.6 282.8c.3 0 .5 0 .7.1.2 0 .4.1.6.1l-.3 1.8c-.2-.1-.5-.1-.7-.1h-.7q-.75 0-1.2.3c-.3.2-.5.5-.7.8v4.1h-1.8V283h1.7l.1 1.1c.3-.4.6-.7 1-.9.4-.3.9-.4 1.3-.4M921 316.1v1c2.2 0 4 1.8 4 4v20.4c0 2.2-1.8 4-4 4h-80c-2.2 0-4-1.8-4-4v-20.4c0-2.2 1.8-4 4-4h80zm0 0h-80c-2.8 0-5 2.2-5 5v20.4c0 2.8 2.2 5 5 5h80c2.8 0 5-2.2 5-5v-20.4c0-2.7-2.2-5-5-5" class="st20"/><path d="m864.5 325.9.9 3.5 1-3.5h2.2v9.3H867v-2.7l.1-4.3-1.2 4h-.9l-1.1-3.9.1 4.2v2.7h-1.6v-9.3zM869.9 331.6c0-.5.1-1 .2-1.4s.4-.8.6-1.1c.3-.3.6-.6 1-.7.4-.2.9-.3 1.4-.3s1 .1 1.4.3.7.4 1 .7.5.7.6 1.1.2.9.2 1.4v.1c0 .5-.1 1-.2 1.4s-.4.8-.6 1.1c-.3.3-.6.6-1 .7-.4.2-.9.3-1.4.3s-1-.1-1.4-.3-.7-.4-1-.7-.5-.7-.6-1.1-.2-.9-.2-1.4zm1.8.2c0 .3 0 .6.1.8.1.3.1.5.3.7s.3.3.5.4.4.2.7.2.5-.1.7-.2.3-.3.5-.4c.1-.2.2-.4.3-.7s.1-.5.1-.8v-.1c0-.3 0-.5-.1-.8s-.1-.5-.3-.7c-.1-.2-.3-.3-.5-.5-.2-.1-.4-.2-.7-.2s-.5.1-.7.2-.3.3-.5.5-.2.4-.3.7-.1.5-.1.8zM881.3 326.6v1.7h2.6v1.3h-2.6v3c0 .3 0 .5.1.6.1.2.1.3.2.4s.2.2.4.2.3.1.5.1h.8c.1 0 .2 0 .4-.1.1 0 .2 0 .3-.1l.2 1.2c-.1.1-.3.1-.4.2s-.3.1-.5.1-.4.1-.6.1h-.6c-.4 0-.7 0-1-.1s-.6-.3-.8-.5-.4-.5-.5-.8-.2-.7-.2-1.2v-3.1H878v-1.3h1.6v-1.7zM885.6 331.6c0-.5.1-1 .2-1.4s.4-.8.6-1.1c.3-.3.6-.6 1-.7.4-.2.9-.3 1.4-.3s1 .1 1.4.3.7.4 1 .7.5.7.6 1.1.2.9.2 1.4v.1c0 .5-.1 1-.2 1.4s-.4.8-.6 1.1c-.3.3-.6.6-1 .7-.4.2-.9.3-1.4.3s-1-.1-1.4-.3-.7-.4-1-.7-.5-.7-.6-1.1-.2-.9-.2-1.4zm1.8.2c0 .3 0 .6.1.8.1.3.1.5.3.7s.3.3.5.4.4.2.7.2.5-.1.7-.2.3-.3.5-.4c.1-.2.2-.4.3-.7s.1-.5.1-.8v-.1c0-.3 0-.5-.1-.8s-.1-.5-.3-.7c-.1-.2-.3-.3-.5-.5-.2-.1-.4-.2-.7-.2s-.5.1-.7.2-.3.3-.5.5-.2.4-.3.7-.1.5-.1.8zM898.6 328.1c.3 0 .5 0 .7.1.2 0 .4.1.6.1l-.3 1.8c-.2-.1-.5-.1-.7-.1h-.7q-.75 0-1.2.3c-.3.2-.5.5-.7.8v4.1h-1.8v-6.9h1.7l.1 1.1c.3-.4.6-.7 1-.9.4-.3.9-.4 1.3-.4M921 361.5v1c2.2 0 4 1.8 4 4v20.4c0 2.2-1.8 4-4 4h-80c-2.2 0-4-1.8-4-4v-20.4c0-2.2 1.8-4 4-4h80zm0 0h-80c-2.8 0-5 2.2-5 5v20.4c0 2.8 2.2 5 5 5h80c2.8 0 5-2.2 5-5v-20.4c0-2.8-2.2-5-5-5" class="st20"/><path d="m864.5 371.2.9 3.5 1-3.5h2.2v9.3H867v-2.7l.1-4.3-1.2 4h-.9l-1.1-3.9.1 4.2v2.7h-1.6v-9.3zM869.9 377c0-.5.1-1 .2-1.4s.4-.8.6-1.1c.3-.3.6-.6 1-.7.4-.2.9-.3 1.4-.3s1 .1 1.4.3.7.4 1 .7.5.7.6 1.1.2.9.2 1.4v.1c0 .5-.1 1-.2 1.4s-.4.8-.6 1.1c-.3.3-.6.6-1 .7-.4.2-.9.3-1.4.3s-1-.1-1.4-.3-.7-.4-1-.7-.5-.7-.6-1.1-.2-.9-.2-1.4zm1.8.1c0 .3 0 .6.1.8.1.3.1.5.3.7s.3.3.5.4.4.2.7.2.5-.1.7-.2.3-.3.5-.4c.1-.2.2-.4.3-.7s.1-.5.1-.8v-.1c0-.3 0-.5-.1-.8s-.1-.5-.3-.7c-.1-.2-.3-.3-.5-.5-.2-.1-.4-.2-.7-.2s-.5.1-.7.2-.3.3-.5.5-.2.4-.3.7-.1.5-.1.8zM881.3 371.9v1.7h2.6v1.3h-2.6v3c0 .3 0 .5.1.6.1.2.1.3.2.4s.2.2.4.2.3.1.5.1h.8c.1 0 .2 0 .4-.1.1 0 .2 0 .3-.1l.2 1.2c-.1.1-.3.1-.4.2s-.3.1-.5.1-.4.1-.6.1h-.6c-.4 0-.7 0-1-.1s-.6-.3-.8-.5-.4-.5-.5-.8-.2-.7-.2-1.2v-3.1H878v-1.3h1.6v-1.7zM885.6 377c0-.5.1-1 .2-1.4s.4-.8.6-1.1c.3-.3.6-.6 1-.7.4-.2.9-.3 1.4-.3s1 .1 1.4.3.7.4 1 .7.5.7.6 1.1.2.9.2 1.4v.1c0 .5-.1 1-.2 1.4s-.4.8-.6 1.1c-.3.3-.6.6-1 .7-.4.2-.9.3-1.4.3s-1-.1-1.4-.3-.7-.4-1-.7-.5-.7-.6-1.1-.2-.9-.2-1.4zm1.8.1c0 .3 0 .6.1.8.1.3.1.5.3.7s.3.3.5.4.4.2.7.2.5-.1.7-.2.3-.3.5-.4c.1-.2.2-.4.3-.7s.1-.5.1-.8v-.1c0-.3 0-.5-.1-.8s-.1-.5-.3-.7c-.1-.2-.3-.3-.5-.5-.2-.1-.4-.2-.7-.2s-.5.1-.7.2-.3.3-.5.5-.2.4-.3.7-.1.5-.1.8zM898.6 373.5c.3 0 .5 0 .7.1.2 0 .4.1.6.1l-.3 1.8c-.2-.1-.5-.1-.7-.1h-.7q-.75 0-1.2.3c-.3.2-.5.5-.7.8v4.1h-1.8v-6.9h1.7l.1 1.1c.3-.4.6-.7 1-.9.4-.3.9-.4 1.3-.4" class="st20"/><path d="M814.4 240.7h20.5" class="st18"/><path d="m831.6 244.8-.7-.8 3.7-3.3-3.7-3.4.7-.7 4.4 4.1z" class="st19"/><path d="M814.4 240.7v-45.4h20.5" class="st18"/><path d="m831.6 199.4-.7-.7 3.7-3.4-3.7-3.3.7-.8 4.4 4.1z" class="st19"/><path d="M814.4 240.7V150h20.5" class="st18"/><path d="m831.6 154.1-.7-.7 3.7-3.4-3.7-3.4.7-.7 4.4 4.1z" class="st19"/><path d="M814.4 240.7V286h20.5" class="st18"/><path d="m831.6 290.1-.7-.7 3.7-3.4-3.7-3.4.7-.7 4.4 4.1z" class="st19"/><path d="M814.4 240.7v90.6h20.5" class="st18"/><path d="m831.6 335.4-.7-.7 3.7-3.4-3.7-3.3.7-.8 4.4 4.1z" class="st19"/><path d="M814.4 240.7v136h20.5" class="st18"/><path d="m831.6 380.8-.7-.8 3.7-3.3-3.7-3.4.7-.7 4.4 4.1z" class="st19"/><path d="M411.6 434.5h160.5v15.6c0 3.4-2.8 6.2-6.2 6.2H417.8c-3.4 0-6.2-2.8-6.2-6.2z" style="fill:#cceaeb"/><path d="M429.1 449.3V440h3.1c.5 0 1 .1 1.4.2s.8.3 1.1.5.5.5.7.8.2.7.2 1.1q0 .6-.3 1.2c-.2.3-.6.6-1 .8.3.1.5.2.7.3s.4.3.5.5l.3.6c.1.2.1.4.1.7 0 .4-.1.8-.2 1.2s-.4.6-.7.9c-.3.2-.6.4-1 .5s-.9.2-1.4.2h-3.5zm1.8-5.4h1.3c.5 0 .9-.1 1.1-.3s.4-.5.4-.9-.1-.7-.4-.9q-.45-.3-1.2-.3h-1.3v2.4zm0 1.3v2.6h1.6c.5 0 .9-.1 1.1-.4.3-.2.4-.5.4-.9s-.1-.8-.3-1-.6-.4-1.1-.4h-1.7zM442.6 442.3c.3 0 .5 0 .7.1.2 0 .4.1.6.1l-.3 1.8c-.2-.1-.5-.1-.7-.1h-.7q-.75 0-1.2.3c-.3.2-.5.5-.7.8v4.1h-1.8v-6.9h1.7l.1 1.1c.3-.4.6-.7 1-.9.4-.3.8-.4 1.3-.4M450.4 449.3c0-.1-.1-.2-.1-.3s-.1-.2-.1-.4l-.3.3c-.1.1-.3.2-.4.2s-.3.1-.5.2c-.2 0-.4.1-.6.1-.4 0-.7-.1-1-.2s-.5-.2-.8-.4c-.2-.2-.4-.4-.5-.7s-.2-.5-.2-.8c0-.7.3-1.3.8-1.7q.75-.6 2.4-.6h1v-.4c0-.3-.1-.6-.3-.8q-.3-.3-.9-.3c-.4 0-.6.1-.8.2s-.2.4-.2.6h-1.8c0-.3.1-.6.2-.8.1-.3.3-.5.6-.7.2-.2.6-.4.9-.5.4-.1.8-.2 1.2-.2s.8.1 1.2.2.7.3.9.5c.3.2.5.5.6.8s.2.7.2 1.1v3c0 .4 0 .7.1.9 0 .2.1.5.2.6v.1zm-1.7-1.3c.2 0 .3 0 .5-.1.2 0 .3-.1.4-.2s.2-.1.3-.2.2-.2.2-.3V446h-.9c-.3 0-.5 0-.7.1s-.4.1-.5.2l-.3.3c-.1.1-.1.3-.1.4q0 .3.3.6c.2.4.5.4.8.4M457.7 448c.2 0 .3 0 .5-.1s.3-.1.4-.2l.3-.3c.1-.1.1-.3.1-.4h1.7c0 .4-.1.7-.2 1-.2.3-.4.6-.6.8s-.6.4-.9.5c-.4.1-.7.2-1.1.2-.5 0-1-.1-1.4-.3s-.7-.4-1-.7-.5-.7-.6-1.1-.2-.9-.2-1.4v-.2c0-.5.1-.9.2-1.4.1-.4.3-.8.6-1.1s.6-.6 1-.7.9-.3 1.4-.3c.4 0 .8.1 1.2.2s.7.3.9.5c.3.2.5.5.6.8s.2.7.2 1.1h-1.7c0-.2 0-.3-.1-.5s-.1-.3-.3-.4c-.1-.1-.3-.2-.4-.3-.2-.1-.3-.1-.5-.1-.3 0-.5.1-.7.2s-.3.3-.4.5-.2.4-.2.7c0 .2-.1.5-.1.8v.2c0 .3 0 .5.1.8 0 .2.1.5.2.7s.3.3.4.5c0-.1.3 0 .6 0M466.1 448c.2 0 .3 0 .5-.1s.3-.1.4-.2l.3-.3c.1-.1.1-.3.1-.4h1.7c0 .4-.1.7-.2 1-.2.3-.4.6-.6.8s-.6.4-.9.5c-.4.1-.7.2-1.1.2-.5 0-1-.1-1.4-.3s-.7-.4-1-.7-.5-.7-.6-1.1-.2-.9-.2-1.4v-.2c0-.5.1-.9.2-1.4.1-.4.3-.8.6-1.1s.6-.6 1-.7.9-.3 1.4-.3c.4 0 .8.1 1.2.2s.7.3.9.5c.3.2.5.5.6.8s.2.7.2 1.1h-1.7c0-.2 0-.3-.1-.5s-.1-.3-.3-.4c-.1-.1-.3-.2-.4-.3-.2-.1-.3-.1-.5-.1-.3 0-.5.1-.7.2s-.3.3-.4.5-.2.4-.2.7c0 .2-.1.5-.1.8v.2c0 .3 0 .5.1.8 0 .2.1.5.2.7s.3.3.4.5c.1-.1.4 0 .6 0M472 442.4h3.8v5.5h1.9v1.4H472v-1.4h2v-4h-2zm1.9-1.8c0-.1 0-.3.1-.4s.1-.2.2-.3.2-.1.3-.2c.1 0 .3-.1.4-.1.3 0 .6.1.7.3.2.2.3.4.3.7s-.1.5-.3.7-.4.3-.7.3c-.2 0-.3 0-.4-.1-.1 0-.2-.1-.3-.2s-.2-.2-.2-.3c-.1-.1-.1-.2-.1-.4M479.8 445.8c0-.5.1-1 .2-1.4s.4-.8.6-1.1c.3-.3.6-.6 1-.7.4-.2.9-.3 1.4-.3s1 .1 1.4.3.7.4 1 .7.5.7.6 1.1.2.9.2 1.4v.1c0 .5-.1 1-.2 1.4s-.4.8-.6 1.1c-.3.3-.6.6-1 .7-.4.2-.9.3-1.4.3s-1-.1-1.4-.3-.7-.4-1-.7-.5-.7-.6-1.1-.2-.9-.2-1.4zm1.8.1c0 .3 0 .6.1.8.1.3.1.5.3.7.1.2.3.3.5.4s.4.2.7.2.5-.1.7-.2.3-.3.5-.4c.1-.2.2-.4.3-.7s.1-.5.1-.8v-.1c0-.3 0-.5-.1-.8s-.1-.5-.3-.7c-.1-.2-.3-.3-.5-.5-.2-.1-.4-.2-.7-.2s-.5.1-.7.2-.3.3-.5.5-.2.4-.3.7c-.1.2-.1.5-.1.8zM503.4 446.4c0 .5-.1.9-.3 1.3s-.4.7-.7 1-.6.5-1 .6-.8.2-1.3.2q-.75 0-1.5-.3c-.4-.2-.8-.5-1.1-.8s-.5-.8-.7-1.3-.2-1.1-.2-1.7V444c0-.6.1-1.2.2-1.7.2-.5.4-.9.7-1.3s.7-.6 1.1-.9c.4-.2.9-.3 1.4-.3s1 .1 1.4.2.7.4 1 .6c.3.3.5.6.7 1s.3.8.3 1.3h-1.8c0-.3-.1-.5-.1-.7-.1-.2-.2-.4-.3-.5s-.3-.2-.5-.3-.4-.1-.7-.1-.5.1-.7.2-.4.3-.5.5-.2.5-.3.8-.1.7-.1 1.1v1.3c0 .9.1 1.6.4 2s.7.7 1.2.7.8-.1 1.1-.4c.3-.2.4-.7.5-1.2h1.8zM509.8 449.3c0-.1-.1-.2-.1-.3s-.1-.2-.1-.4l-.3.3c-.1.1-.3.2-.4.2s-.3.1-.5.2c-.2 0-.4.1-.6.1-.4 0-.7-.1-1-.2s-.5-.2-.8-.4c-.2-.2-.4-.4-.5-.7s-.2-.5-.2-.8c0-.7.3-1.3.8-1.7q.75-.6 2.4-.6h1v-.4c0-.3-.1-.6-.3-.8q-.3-.3-.9-.3c-.4 0-.6.1-.8.2s-.2.4-.2.6h-1.8c0-.3.1-.6.2-.8.1-.3.3-.5.6-.7.2-.2.6-.4.9-.5.4-.1.8-.2 1.2-.2s.8.1 1.2.2.7.3.9.5c.3.2.5.5.6.8s.2.7.2 1.1v3c0 .4 0 .7.1.9 0 .2.1.5.2.6v.1zm-1.7-1.3c.2 0 .3 0 .5-.1.2 0 .3-.1.4-.2s.2-.1.3-.2.2-.2.2-.3V446h-.9c-.3 0-.5 0-.7.1s-.4.1-.5.2l-.3.3c-.1.1-.1.3-.1.4q0 .3.3.6c.2.4.5.4.8.4M519 442.3c.3 0 .5 0 .7.1.2 0 .4.1.6.1l-.3 1.8c-.2-.1-.5-.1-.7-.1h-.7q-.75 0-1.2.3c-.3.2-.5.5-.7.8v4.1h-1.8v-6.9h1.7l.1 1.1c.3-.4.6-.7 1-.9.4-.3.8-.4 1.3-.4M527.4 442.3c.3 0 .5 0 .7.1.2 0 .4.1.6.1l-.3 1.8c-.2-.1-.5-.1-.7-.1h-.7q-.75 0-1.2.3c-.3.2-.5.5-.7.8v4.1h-1.8v-6.9h1.7l.1 1.1c.3-.4.6-.7 1-.9.4-.3.9-.4 1.3-.4M531.4 442.4h3.8v5.5h1.9v1.4h-5.6v-1.4h2v-4h-2v-1.5zm1.9-1.8c0-.1 0-.3.1-.4s.1-.2.2-.3.2-.1.3-.2c.1 0 .3-.1.4-.1.3 0 .6.1.7.3.2.2.3.4.3.7s-.1.5-.3.7-.4.3-.7.3c-.2 0-.3 0-.4-.1-.1 0-.2-.1-.3-.2s-.2-.2-.2-.3c-.1-.1-.1-.2-.1-.4M542.8 449.4c-.5 0-1-.1-1.4-.3s-.8-.4-1.1-.7-.5-.7-.7-1.1-.3-.8-.3-1.3v-.3c0-.5.1-1 .2-1.4.2-.4.4-.8.7-1.1s.6-.6 1.1-.7.9-.3 1.3-.3c.5 0 .9.1 1.3.2.4.2.7.4 1 .7s.5.7.6 1.1.2.9.2 1.4v.8H541c0 .2.1.4.2.6s.2.4.4.5.3.2.6.3.4.1.7.1c.2 0 .3 0 .5-.1.2 0 .3-.1.5-.1.2-.1.3-.1.4-.2s.3-.2.4-.3l.9 1c-.1.2-.3.3-.4.5-.2.2-.4.3-.6.4s-.5.2-.8.3-.7 0-1 0m-.2-5.7c-.2 0-.4 0-.5.1-.2.1-.3.2-.4.3s-.2.3-.3.5-.1.4-.2.6h2.9v-.1c0-.2 0-.4-.1-.5-.1-.2-.2-.3-.3-.4s-.3-.2-.4-.3c-.3-.2-.5-.2-.7-.2M552.9 442.3c.3 0 .5 0 .7.1.2 0 .4.1.6.1l-.3 1.8c-.2-.1-.5-.1-.7-.1h-.7q-.75 0-1.2.3c-.3.2-.5.5-.7.8v4.1h-1.8v-6.9h1.7l.1 1.1c.3-.4.6-.7 1-.9.4-.3.8-.4 1.3-.4M355.5 37.9c0-.3 0-.5-.1-.7s-.2-.4-.4-.6-.5-.4-.8-.5-.8-.3-1.3-.4l-1.8-.6q-.9-.45-1.5-.9c-.6-.45-.8-.8-1-1.2-.3-.5-.4-1-.4-1.6s.1-1.1.4-1.6.6-.9 1.1-1.2 1-.6 1.6-.8 1.3-.3 2-.3 1.4.1 2 .3 1.1.5 1.6.9c.4.4.8.8 1 1.4.2.5.4 1.1.4 1.8h-2.7c0-.3-.1-.6-.2-.9s-.3-.5-.4-.7c-.2-.2-.4-.3-.7-.4s-.6-.2-1-.2-.7 0-1 .1-.5.2-.7.4-.3.3-.4.6c-.1.2-.2.5-.2.7 0 .3.1.5.2.7q.15.3.6.6c.45.3.6.3.9.5s.8.3 1.2.4c.7.2 1.2.4 1.8.7s1 .6 1.4 1 .7.8.9 1.3.3 1 .3 1.6-.1 1.2-.4 1.7-.6.9-1 1.2-1 .6-1.6.8-1.3.3-2 .3c-.4 0-.9 0-1.3-.1s-.9-.2-1.3-.4-.8-.4-1.1-.6-.7-.6-.9-.9q-.45-.45-.6-1.2c-.15-.75-.2-.9-.2-1.4h2.7c0 .4.1.8.2 1.1s.3.6.6.8.5.3.9.4.7.1 1.1.1.7 0 1-.1.5-.2.7-.4.3-.3.4-.5zM366 33.9l2.8-6.6h3l-4.5 9.3v4.9h-2.7v-5l-4.4-9.2h3c0 .1 2.8 6.6 2.8 6.6M381.5 37.9c0-.3 0-.5-.1-.7s-.2-.4-.4-.6-.5-.4-.8-.5-.8-.3-1.3-.4l-1.8-.6q-.9-.45-1.5-.9c-.6-.45-.8-.8-1-1.2-.3-.5-.4-1-.4-1.6s.1-1.1.4-1.6.6-.9 1.1-1.2 1-.6 1.6-.8 1.3-.3 2-.3 1.4.1 2 .3 1.1.5 1.6.9c.4.4.8.8 1 1.4.2.5.4 1.1.4 1.8h-2.7c0-.3-.1-.6-.2-.9s-.3-.5-.4-.7c-.2-.2-.4-.3-.7-.4s-.6-.2-1-.2-.7 0-1 .1-.5.2-.7.4-.3.3-.4.6c-.1.2-.2.5-.2.7 0 .3.1.5.2.7q.15.3.6.6c.45.3.6.3.9.5s.8.3 1.2.4c.7.2 1.2.4 1.8.7s1 .6 1.4 1 .7.8.9 1.3.3 1 .3 1.6-.1 1.2-.4 1.7-.6.9-1 1.2-1 .6-1.6.8-1.3.3-2 .3c-.4 0-.9 0-1.3-.1s-.9-.2-1.3-.4-.8-.4-1.1-.6-.7-.6-.9-.9q-.45-.45-.6-1.2c-.15-.75-.2-.9-.2-1.4h2.7c0 .4.1.8.2 1.1s.3.6.6.8.5.3.9.4.7.1 1.1.1.7 0 1-.1.5-.2.7-.4.3-.3.4-.5zM397.6 29.6h-4.4v12h-2.8v-12h-4.3v-2.2h11.5zM408.9 35.3h-5.8v4h6.8v2.2h-9.6V27.4h9.6v2.2h-6.8v3.6h5.8zM416.5 27.4l1.3 5.3 1.5-5.3h3.4v14.2h-2.5v-4.2l.1-6.7-1.9 6.2H417l-1.7-5.9.1 6.4v4.2h-2.5V27.4zM439.1 41.6V27.4h4.8c.8 0 1.5.1 2.1.2s1.2.4 1.6.7.8.7 1 1.2.4 1.1.4 1.7c0 .7-.2 1.3-.5 1.8s-.9.9-1.5 1.2c.4.1.8.3 1.1.5s.5.5.7.7.3.6.4.9.1.7.1 1c0 .7-.1 1.3-.4 1.8s-.6 1-1 1.3-1 .6-1.6.8-1.3.3-2.1.3c.1.1-5.1.1-5.1.1m2.8-8.3h2c.8 0 1.3-.2 1.8-.5s.6-.8.6-1.4c0-.7-.2-1.1-.6-1.4s-1-.4-1.8-.4h-2zm0 2v4.1h2.4c.7 0 1.3-.2 1.7-.6s.6-.8.6-1.4c0-.7-.2-1.2-.5-1.5s-.9-.6-1.7-.6zM455.1 39.4h6.7v2.2h-9.4V27.4h2.8v12zM475.1 35.5c0 .9-.1 1.8-.4 2.5s-.6 1.4-1 2-1 1-1.7 1.3-1.4.5-2.2.5-1.5-.2-2.2-.5-1.2-.7-1.6-1.3-.8-1.2-1-2-.3-1.6-.3-2.5v-2.1c0-.9.1-1.8.3-2.5s.6-1.4 1-2 1-1 1.6-1.3a5.09 5.09 0 0 1 4.4 0c.6.3 1.2.7 1.7 1.3s.8 1.2 1 2 .4 1.6.4 2.5zm-2.8-2.1c0-.6 0-1.1-.1-1.6s-.2-.9-.4-1.3-.5-.6-.8-.8-.7-.3-1.1-.3-.8.1-1.1.3-.5.5-.7.8-.3.8-.4 1.3-.1 1-.1 1.6v2.1c0 .6 0 1.1.1 1.6s.2.9.4 1.3.4.6.7.8.7.3 1.1.3.8-.1 1.1-.3.6-.5.8-.8.3-.8.4-1.3.1-1 .1-1.6zM488 37.1c0 .7-.2 1.4-.5 1.9s-.6 1.1-1.1 1.5-1 .7-1.6.9-1.3.3-2 .3c-.8 0-1.6-.2-2.2-.5s-1.2-.7-1.6-1.3-.8-1.2-1-2-.4-1.6-.4-2.6v-1.9c0-.9.1-1.8.4-2.6s.6-1.5 1.1-2 1-1 1.7-1.3 1.4-.5 2.2-.5q1.2 0 2.1.3c.9.3 1.1.5 1.6.9s.8.9 1 1.5.4 1.3.5 2h-2.7c0-.4-.1-.8-.2-1.1s-.2-.6-.4-.8-.4-.4-.7-.5-.6-.2-1-.2-.8.1-1.1.3-.6.4-.8.8-.4.8-.5 1.3-.1 1.1-.1 1.7v1.9c0 1.4.2 2.4.6 3.1s1 1 1.9 1c.7 0 1.3-.2 1.7-.6s.6-1 .7-1.9zM495.4 35.7l-1.5 1.7v4.2h-2.8V27.4h2.8v6.5l1.3-1.7 3.5-4.8h3.4l-4.8 6.3 5 7.9H499c-.1 0-3.6-5.9-3.6-5.9M517.1 41.6V27.4h3.7c.9 0 1.8.2 2.6.5s1.4.8 2 1.3 1 1.3 1.3 2.1.4 1.7.4 2.6v1.2c0 1-.1 1.8-.4 2.6s-.7 1.5-1.2 2.1-1.2 1-1.9 1.3-1.6.5-2.5.5zm2.8-12v9.8h1.1c.5 0 1-.1 1.4-.3s.8-.5 1-.8.5-.8.6-1.4.2-1.1.2-1.8v-1.2c0-.6-.1-1.2-.2-1.7s-.4-1-.7-1.4-.6-.7-1.1-.9-.9-.3-1.5-.3zM530.8 27.4h8.2v2.2h-2.8v9.8h2.8v2.2h-8.2v-2.2h2.7v-9.8h-2.7zM550.2 38.6h-4.3l-.8 3h-2.9l4.7-14.2h2.5l4.6 14.2h-3zm-3.6-2.3h2.9l-1.5-5.2zM566 39.9l-.7.7c-.3.3-.7.4-1.1.6s-.9.3-1.4.4-1.1.2-1.7.2c-.8 0-1.5-.1-2.2-.4s-1.2-.7-1.7-1.2-.8-1.2-1.1-2-.4-1.7-.4-2.7v-1.9c0-1 .1-1.9.4-2.7s.6-1.5 1.1-2 1-1 1.6-1.2 1.3-.4 2-.4q1.2 0 2.1.3c.9.3 1.1.5 1.5.9s.7.8 1 1.4.4 1.2.5 1.8h-2.7c-.1-.7-.3-1.3-.7-1.6s-.9-.6-1.6-.6c-.4 0-.7.1-1 .3s-.6.4-.8.8-.4.8-.5 1.3-.2 1.1-.2 1.8v2c0 1.3.2 2.3.7 3.1s1.1 1.1 2 1.1h.6c.2 0 .4-.1.6-.1s.3-.1.5-.2.2-.2.3-.2v-2.6h-2.4v-2.1h5.1c.1-.4.2 5.2.2 5.2M574 36.3h-2.1v5.3h-2.7V27.4h4.8q1.2 0 2.1.3c.9.3 1.2.5 1.6.8s.8.8 1 1.3.4 1.2.4 1.9c0 .5-.1 1-.2 1.4s-.3.8-.5 1.1-.5.6-.8.8-.7.4-1.1.6l3.1 5.9v.1h-2.9zm-2.1-2.3h2q1.2 0 1.8-.6c.6-.6.6-.9.6-1.6s-.2-1.3-.6-1.7-1-.6-1.8-.6h-2zM589.2 38.6h-4.3l-.8 3h-2.9l4.7-14.2h2.5l4.6 14.2h-3zm-3.6-2.3h2.9l-1.5-5.2zM598.6 27.4l1.3 5.3 1.5-5.3h3.4v14.2h-2.5v-4.2l.1-6.7-1.9 6.2h-1.4l-1.7-5.9.1 6.4v4.2H595V27.4z" class="st20"/></svg>