<svg width="392" height="435" viewBox="0 0 392 435" fill="none" xmlns="http://www.w3.org/2000/svg">
<g clip-path="url(#clip0_1634_57)">
<path d="M287.698 65.0193H121.399C100.525 65.0193 83.6035 81.9408 83.6035 102.815V269.114C83.6035 289.988 100.525 306.909 121.399 306.909H287.698C308.572 306.909 325.493 289.988 325.493 269.114V102.815C325.493 81.9408 308.572 65.0193 287.698 65.0193Z" fill="#3C3C3B"/>
<path d="M286.15 77.906H122.947C108.335 77.906 96.4902 89.7511 96.4902 104.363V267.566C96.4902 282.178 108.335 294.023 122.947 294.023H286.15C300.762 294.023 312.607 282.178 312.607 267.566V104.363C312.607 89.7511 300.762 77.906 286.15 77.906Z" fill="#202020"/>
<path d="M167.699 358.683V359.763C163.473 360.869 159.046 361.456 154.473 361.456C149.899 361.456 145.473 360.869 141.246 359.763V358.683H167.699Z" fill="#C6C6C6"/>
<path d="M141.246 306.909V358.683H167.699V306.909H141.246ZM154.473 351.789C150.273 351.789 146.873 348.389 146.873 344.189C146.873 339.989 150.273 336.589 154.473 336.589C158.673 336.589 162.073 339.989 162.073 344.189C162.073 348.389 158.673 351.789 154.473 351.789Z" fill="#C6C6C6"/>
<path d="M154.473 336.589C150.273 336.589 146.873 339.989 146.873 344.189C146.873 348.389 150.273 351.789 154.473 351.789C158.673 351.789 162.073 348.389 162.073 344.189C162.073 339.989 158.673 336.589 154.473 336.589ZM154.473 349.563C151.513 349.563 149.1 347.149 149.1 344.189C149.1 341.216 151.513 338.816 154.473 338.816C157.446 338.816 159.846 341.216 159.846 344.189C159.846 347.149 157.446 349.563 154.473 349.563Z" fill="#9D9D9C"/>
<path d="M173.978 200.397L170.907 210.179H173.385L173.885 208.177H176.698L177.24 210.179H179.812L176.698 200.397H173.978ZM174.349 206.299L175.238 202.716L176.203 206.299H174.349Z" fill="white"/>
<path d="M189.033 203.664C189.033 201.784 188.013 200.397 185.305 200.397H181.362V210.179H183.784V207.079H185.004L186.473 210.179H189.335L187.425 206.597C188.492 206.025 189.033 205.007 189.033 203.664ZM185.067 205.137H183.784V202.377H185.018C186.148 202.377 186.456 202.81 186.456 203.677C186.456 204.764 185.905 205.137 185.067 205.137Z" fill="white"/>
<path d="M194.195 200.397H190.991V210.179H194.21C198.361 210.179 199.065 207.512 199.065 205.199C199.065 202.128 197.851 200.397 194.195 200.397ZM194.329 208.177H193.413V202.375H194.12C196.284 202.375 196.481 203.394 196.481 205.306C196.481 206.959 196.333 208.177 194.329 208.177Z" fill="white"/>
<path d="M206.234 206.371C206.234 207.862 205.826 208.355 204.725 208.355C203.809 208.355 203.234 207.981 203.234 206.358V200.397H200.814V206.81C200.814 209.771 202.952 210.33 204.623 210.33C206.353 210.33 208.563 209.715 208.563 206.824V200.397H206.234V206.371Z" fill="white"/>
<path d="M210.728 202.399H213.256V208.177H210.728V210.179H218.224V208.177H215.678V202.399H218.224V200.397H210.728V202.399Z" fill="white"/>
<path d="M226.03 206.269L222.86 200.397H220.22V210.179H222.513L222.496 203.919L225.836 210.179H228.287V200.397H226.03V206.269Z" fill="white"/>
<path d="M233.992 200.27C231.027 200.27 229.899 202.446 229.899 205.396C229.899 208.632 231.194 210.33 234.005 210.33C237.15 210.33 238.185 208.12 238.185 205.29C238.185 201.557 236.776 200.27 233.992 200.27ZM234.005 208.355C232.608 208.355 232.469 207.366 232.469 205.396C232.469 203.006 232.698 202.236 233.992 202.236C235.421 202.236 235.615 202.901 235.615 205.29C235.615 207.546 235.421 208.355 234.005 208.355Z" fill="white"/>
<path d="M240.092 178.488C240.092 169.175 232.237 161.599 222.581 161.599C221.69 161.599 220.784 161.659 219.887 161.789C212.384 162.859 207.363 168.257 204.553 172.396C201.732 168.257 196.711 162.859 189.21 161.789C188.314 161.659 187.406 161.599 186.517 161.599C176.856 161.599 169.003 169.175 169.003 178.488C169.003 187.801 176.856 195.374 186.509 195.374C187.406 195.374 188.314 195.318 189.21 195.189C196.711 194.113 201.732 188.713 204.553 184.57C207.363 188.713 212.384 194.113 219.887 195.189C220.784 195.318 221.69 195.374 222.588 195.374C232.242 195.374 240.092 187.802 240.092 178.488ZM188.36 189.259C187.748 189.347 187.124 189.393 186.509 189.393C180.16 189.393 174.991 184.496 174.991 178.488C174.991 172.476 180.16 167.579 186.517 167.579C187.126 167.579 187.748 167.629 188.363 167.713C195.431 168.722 199.76 175.693 201.227 178.484C199.758 181.283 195.431 188.25 188.36 189.259ZM207.873 178.488C209.34 175.693 213.666 168.722 220.735 167.713C221.347 167.629 221.974 167.579 222.581 167.579C228.936 167.579 234.105 172.476 234.105 178.488C234.105 184.5 228.936 189.393 222.588 189.393C221.976 189.393 221.352 189.347 220.735 189.259C213.666 188.25 209.335 181.277 207.873 178.488Z" fill="white"/>
<path d="M192.206 176.837H181.69V180.226H192.206V176.837Z" fill="white"/>
<path d="M223.747 180.226H227.301V176.837H223.747V173.271H220.349V176.837H216.79V180.226H220.349V183.792H223.747V180.226Z" fill="white"/>
<path d="M238.63 163.65C238.737 163.598 238.817 163.526 238.876 163.434C238.932 163.341 238.961 163.236 238.961 163.125C238.961 162.95 238.898 162.796 238.771 162.668C238.647 162.54 238.432 162.474 238.128 162.474C238.013 162.474 237.911 162.476 237.821 162.483C237.731 162.488 237.645 162.496 237.562 162.507V164.345H238.033V163.743H238.223L238.552 164.345H239.088L238.63 163.65ZM238.16 163.401C238.096 163.401 238.047 163.398 238.018 163.387V162.892C238.047 162.883 238.101 162.877 238.174 162.877C238.374 162.877 238.474 162.963 238.474 163.139C238.474 163.315 238.369 163.401 238.16 163.401Z" fill="white"/>
<path d="M238.222 161.599C237.189 161.599 236.352 162.436 236.352 163.469C236.352 164.501 237.189 165.34 238.222 165.34C239.254 165.34 240.092 164.501 240.092 163.469C240.092 162.436 239.254 161.599 238.222 161.599ZM238.222 164.923C237.438 164.923 236.802 164.272 236.802 163.469C236.802 162.666 237.438 162.014 238.222 162.014C239.005 162.014 239.641 162.666 239.641 163.469C239.641 164.272 239.005 164.923 238.222 164.923Z" fill="white"/>
</g>
<defs>
<clipPath id="clip0_1634_57">
<rect width="392" height="435" fill="white"/>
</clipPath>
</defs>
</svg>
