<?xml version="1.0" encoding="utf-8"?>
<!-- Generator: Adobe Illustrator 25.0.1, SVG Export Plug-In . SVG Version: 6.00 Build 0)  -->
<svg version="1.1" id="Layer_1" xmlns="http://www.w3.org/2000/svg" xmlns:xlink="http://www.w3.org/1999/xlink" x="0px" y="0px"
	 viewBox="0 0 195.7 70.9" style="enable-background:new 0 0 195.7 70.9;" xml:space="preserve">
<style type="text/css">
	.st0{fill:#017481;}
	.st1{fill:none;stroke:#000000;stroke-width:7.330000e-03;stroke-linecap:round;stroke-linejoin:round;}
	.st2{fill:none;stroke:#AFD3D8;stroke-width:0.3712;stroke-linecap:round;stroke-linejoin:round;}
	.st3{fill:#80B9C0;}
	.st4{fill:#8B8F90;}
	.st5{fill:#8A7867;}
	.st6{fill:#9DA0A1;}
	.st7{fill:#8F7F6E;}
	.st8{fill:#929596;}
	.st9{clip-path:url(#SVGID_2_);}
	.st10{fill:#E5540F;}
	.st11{fill:#C2C5C6;}
	.st12{fill:#FFFFFF;}
	.st13{opacity:0.1;}
	.st14{clip-path:url(#SVGID_4_);}
	.st15{clip-path:url(#SVGID_6_);}
	.st16{clip-path:url(#SVGID_8_);}
	.st17{fill:#B8B9BA;}
	.st18{fill:#181E22;}
	.st19{fill:#1A9F85;}
	.st20{fill:#EAA800;}
	.st21{fill:#ADB0B1;}
	.st22{fill:#A19284;}
</style>
<path class="st0" d="M6,70.9h179.3c3.5,0,6.4-2.9,6.4-6.4V6.4c0-3.5-2.9-6.4-6.4-6.4c0,0,0,0,0,0H6C2.6,0.1-0.1,3,0,6.4c0,0,0,0,0,0
	v58.1C-0.1,67.9,2.6,70.8,6,70.9C6,70.9,6,70.9,6,70.9 M185.3,3c1.9,0,3.4,1.5,3.4,3.4c0,1.9-1.5,3.4-3.4,3.4s-3.4-1.5-3.4-3.4
	c0,0,0,0,0,0C181.8,4.5,183.4,3,185.3,3C185.3,3,185.3,3,185.3,3 M185.3,61.1c1.9,0,3.4,1.5,3.4,3.4s-1.5,3.4-3.4,3.4
	c-1.9,0-3.4-1.5-3.4-3.4c0,0,0,0,0,0C181.8,62.6,183.4,61.1,185.3,61.1 M23.7,3c1.9,0,3.4,1.5,3.4,3.4s-1.5,3.4-3.4,3.4
	s-3.4-1.5-3.4-3.4c0,0,0,0,0,0C20.3,4.5,21.8,3,23.7,3L23.7,3 M23.7,61.1c1.9,0,3.4,1.5,3.4,3.4s-1.5,3.4-3.4,3.4
	c-1.9,0-3.4-1.5-3.4-3.4c0,0,0,0,0,0C20.3,62.6,21.8,61.1,23.7,61.1"/>
<polyline class="st1" points="185.3,0 185.3,0 185.3,0 "/>
<path class="st1" d="M6,0C6,0,6,0,6,0C6,0,6,0,6,0"/>
<path class="st1" d="M191.6,64.5C191.6,64.5,191.6,64.5,191.6,64.5C191.6,64.5,191.6,64.5,191.6,64.5"/>
<path class="st1" d="M191.6,6.4L191.6,6.4C191.6,6.4,191.6,6.4,191.6,6.4C191.6,6.4,191.6,6.4,191.6,6.4"/>
<path class="st1" d="M6,70.9C6,70.9,6,70.9,6,70.9C6,70.9,6,70.9,6,70.9C6,70.9,6,70.9,6,70.9"/>
<polyline class="st1" points="185.3,70.9 185.3,70.9 185.3,70.9 "/>
<path class="st1" d="M191.6,6.4C191.6,6.4,191.6,6.4,191.6,6.4C191.6,6.4,191.6,6.4,191.6,6.4"/>
<path class="st1" d="M185.3,0C185.3,0,185.2,0,185.3,0L185.3,0"/>
<path class="st1" d="M185.3,70.9L185.3,70.9C185.2,70.9,185.3,70.9,185.3,70.9C185.3,70.9,185.3,70.9,185.3,70.9"/>
<path class="st1" d="M191.6,64.5L191.6,64.5C191.6,64.5,191.6,64.5,191.6,64.5"/>
<polyline class="st1" points="6,0 6,0 6,0 "/>
<path class="st1" d="M0,6.4C0,6.4,0,6.4,0,6.4C0,6.4,0,6.4,0,6.4C0,6.4,0,6.4,0,6.4"/>
<polyline class="st1" points="0,64.5 0,64.5 0,64.5 "/>
<polyline class="st1" points="6,70.9 6,70.9 6,70.9 "/>
<polyline class="st1" points="0,64.5 0,64.5 0,64.5 "/>
<polyline class="st1" points="0,6.4 0,6.4 0,6.4 "/>
<path class="st2" d="M21.3,15.6c0,0.2,0.1,0.3,0.3,0.3c0.2,0,0.3-0.1,0.3-0.3s-0.1-0.3-0.3-0.3c0,0,0,0,0,0
	C21.4,15.3,21.3,15.4,21.3,15.6z"/>
<path class="st2" d="M1.4,56.8c0,0.2,0.1,0.3,0.3,0.3C1.9,57.1,2,57,2,56.8c0-0.2-0.1-0.3-0.3-0.3c0,0,0,0,0,0
	C1.6,56.6,1.4,56.7,1.4,56.8z"/>
<path class="st2" d="M5,56.8c0,0.2,0.1,0.3,0.3,0.3c0.2,0,0.3-0.1,0.3-0.3c0-0.2-0.1-0.3-0.3-0.3c0,0,0,0,0,0
	C5.2,56.6,5,56.7,5,56.8z"/>
<path class="st2" d="M8.6,56.8c0,0.2,0.1,0.3,0.3,0.3c0.2,0,0.3-0.1,0.3-0.3c0-0.2-0.1-0.3-0.3-0.3c0,0,0,0,0,0
	C8.8,56.6,8.6,56.7,8.6,56.8z"/>
<path class="st2" d="M15.8,56.8c0,0.2,0.1,0.3,0.3,0.3c0.2,0,0.3-0.1,0.3-0.3c0-0.2-0.1-0.3-0.3-0.3c0,0,0,0,0,0
	C16,56.6,15.8,56.7,15.8,56.8z"/>
<path class="st2" d="M12.2,56.8c0,0.2,0.1,0.3,0.3,0.3c0.2,0,0.3-0.1,0.3-0.3c0-0.2-0.1-0.3-0.3-0.3c0,0,0,0,0,0
	C12.4,56.6,12.2,56.7,12.2,56.8z"/>
<path class="st2" d="M19.4,56.8c0,0.2,0.1,0.3,0.3,0.3c0.2,0,0.3-0.1,0.3-0.3c0-0.2-0.1-0.3-0.3-0.3c0,0,0,0,0,0
	C19.6,56.6,19.4,56.7,19.4,56.8z"/>
<path class="st2" d="M19.4,53.2c0,0.2,0.1,0.3,0.3,0.3c0.2,0,0.3-0.1,0.3-0.3c0-0.2-0.1-0.3-0.3-0.3c0,0,0,0,0,0
	C19.6,53,19.4,53.1,19.4,53.2z"/>
<path class="st2" d="M19.4,49.6c0,0.2,0.1,0.3,0.3,0.3s0.3-0.1,0.3-0.3c0-0.2-0.1-0.3-0.3-0.3c0,0,0,0,0,0
	C19.6,49.4,19.4,49.5,19.4,49.6z"/>
<path class="st2" d="M19.4,46c0,0.2,0.1,0.3,0.3,0.3S20,46.2,20,46s-0.1-0.3-0.3-0.3l0,0C19.6,45.8,19.4,45.9,19.4,46
	C19.4,46,19.4,46,19.4,46z"/>
<path class="st2" d="M15.8,49.6c0,0.2,0.1,0.3,0.3,0.3c0.2,0,0.3-0.1,0.3-0.3c0-0.2-0.1-0.3-0.3-0.3c0,0,0,0,0,0
	C16,49.4,15.8,49.5,15.8,49.6z"/>
<path class="st2" d="M15.8,53.2c0,0.2,0.1,0.3,0.3,0.3c0.2,0,0.3-0.1,0.3-0.3c0-0.2-0.1-0.3-0.3-0.3c0,0,0,0,0,0
	C16,53,15.8,53.1,15.8,53.2z"/>
<path class="st2" d="M12.2,53.2c0,0.2,0.1,0.3,0.3,0.3c0.2,0,0.3-0.1,0.3-0.3c0-0.2-0.1-0.3-0.3-0.3c0,0,0,0,0,0
	C12.4,53,12.2,53.1,12.2,53.2z"/>
<path class="st2" d="M8.6,53.2c0,0.2,0.1,0.3,0.3,0.3c0.2,0,0.3-0.1,0.3-0.3c0-0.2-0.1-0.3-0.3-0.3c0,0,0,0,0,0
	C8.8,53,8.6,53.1,8.6,53.2z"/>
<path class="st2" d="M5,53.2c0,0.2,0.1,0.3,0.3,0.3c0.2,0,0.3-0.1,0.3-0.3c0-0.2-0.1-0.3-0.3-0.3c0,0,0,0,0,0C5.2,53,5,53.1,5,53.2z
	"/>
<path class="st2" d="M1.4,53.2c0,0.2,0.1,0.3,0.3,0.3c0.2,0,0.3-0.1,0.3-0.3C2,53.1,1.9,53,1.7,53c0,0,0,0,0,0
	C1.6,53,1.4,53.1,1.4,53.2z"/>
<path class="st2" d="M1.4,49.6c0,0.2,0.1,0.3,0.3,0.3S2,49.8,2,49.7c0-0.2-0.1-0.3-0.3-0.3c0,0,0,0,0,0C1.6,49.4,1.4,49.5,1.4,49.6z
	"/>
<path class="st2" d="M5,49.6c0,0.2,0.1,0.3,0.3,0.3s0.3-0.1,0.3-0.3c0-0.2-0.1-0.3-0.3-0.3c0,0,0,0,0,0C5.2,49.4,5,49.5,5,49.6z"/>
<path class="st2" d="M1.4,46c0,0.2,0.1,0.3,0.3,0.3S2,46.2,2,46s-0.1-0.3-0.3-0.3l0,0C1.6,45.8,1.4,45.9,1.4,46
	C1.4,46,1.4,46,1.4,46z"/>
<path class="st2" d="M1.4,42.4c0,0.2,0.1,0.3,0.3,0.3S2,42.6,2,42.4c0-0.2-0.1-0.3-0.3-0.3C1.6,42.2,1.4,42.3,1.4,42.4
	C1.4,42.4,1.4,42.4,1.4,42.4z"/>
<path class="st2" d="M1.4,38.8c0,0.2,0.1,0.3,0.3,0.3C1.9,39.1,2,39,2,38.8c0-0.2-0.1-0.3-0.3-0.3c0,0,0,0,0,0
	C1.6,38.6,1.4,38.7,1.4,38.8z"/>
<path class="st2" d="M1.4,35.2c0,0.2,0.1,0.3,0.3,0.3c0.2,0,0.3-0.1,0.3-0.3C2,35.1,1.9,35,1.7,35c0,0,0,0,0,0
	C1.6,35,1.4,35.1,1.4,35.2z"/>
<path class="st2" d="M1.4,31.6c0,0.2,0.1,0.3,0.3,0.3S2,31.8,2,31.7c0-0.2-0.1-0.3-0.3-0.3c0,0,0,0,0,0C1.6,31.4,1.4,31.5,1.4,31.6z
	"/>
<path class="st2" d="M5,31.6c0,0.2,0.1,0.3,0.3,0.3s0.3-0.1,0.3-0.3c0-0.2-0.1-0.3-0.3-0.3c0,0,0,0,0,0C5.2,31.4,5,31.5,5,31.6z"/>
<path class="st2" d="M8.6,31.6c0,0.2,0.1,0.3,0.3,0.3s0.3-0.1,0.3-0.3c0-0.2-0.1-0.3-0.3-0.3c0,0,0,0,0,0
	C8.8,31.4,8.6,31.5,8.6,31.6z"/>
<path class="st2" d="M15.8,31.6c0,0.2,0.1,0.3,0.3,0.3c0.2,0,0.3-0.1,0.3-0.3c0-0.2-0.1-0.3-0.3-0.3c0,0,0,0,0,0
	C16,31.4,15.8,31.5,15.8,31.6z"/>
<path class="st2" d="M12.2,31.6c0,0.2,0.1,0.3,0.3,0.3s0.3-0.1,0.3-0.3c0-0.2-0.1-0.3-0.3-0.3c0,0,0,0,0,0
	C12.4,31.4,12.2,31.5,12.2,31.6z"/>
<path class="st2" d="M15.8,28c0,0.2,0.1,0.3,0.3,0.3c0.2,0,0.3-0.1,0.3-0.3c0-0.2-0.1-0.3-0.3-0.3c0,0,0,0,0,0
	C16,27.8,15.8,27.9,15.8,28z"/>
<circle class="st2" cx="12.5" cy="28" r="0.3"/>
<circle class="st2" cx="8.9" cy="28" r="0.3"/>
<circle class="st2" cx="5.3" cy="28" r="0.3"/>
<path class="st2" d="M1.4,28c0,0.2,0.1,0.3,0.3,0.3C1.9,28.3,2,28.2,2,28c0-0.2-0.1-0.3-0.3-0.3l0,0C1.6,27.8,1.4,27.9,1.4,28
	C1.4,28,1.4,28,1.4,28z"/>
<path class="st2" d="M5,35.2c0,0.2,0.1,0.3,0.3,0.3c0.2,0,0.3-0.1,0.3-0.3c0-0.2-0.1-0.3-0.3-0.3c0,0,0,0,0,0C5.2,35,5,35.1,5,35.2z
	"/>
<path class="st2" d="M8.6,35.2c0,0.2,0.1,0.3,0.3,0.3c0.2,0,0.3-0.1,0.3-0.3c0-0.2-0.1-0.3-0.3-0.3c0,0,0,0,0,0
	C8.8,35,8.6,35.1,8.6,35.2z"/>
<path class="st2" d="M5,38.8c0,0.2,0.1,0.3,0.3,0.3c0.2,0,0.3-0.1,0.3-0.3c0-0.2-0.1-0.3-0.3-0.3c0,0,0,0,0,0
	C5.2,38.6,5,38.7,5,38.8z"/>
<path class="st2" d="M15.8,38.8c0,0.2,0.1,0.3,0.3,0.3c0.2,0,0.3-0.1,0.3-0.3c0-0.2-0.1-0.3-0.3-0.3c0,0,0,0,0,0
	C16,38.6,15.8,38.7,15.8,38.8z"/>
<path class="st2" d="M135.8,39.7c0,0.2,0.1,0.3,0.3,0.3s0.3-0.1,0.3-0.3c0-0.2-0.1-0.3-0.3-0.3C135.9,39.4,135.8,39.5,135.8,39.7z"
	/>
<path class="st3" d="M180.4,48.7v4.6c0,0,0,0,0,0l0,0h-3.2c0,0,0,0,0,0l0,0v-4.6c0,0,0,0,0,0l0,0L180.4,48.7
	C180.3,48.6,180.4,48.6,180.4,48.7z"/>
<path class="st3" d="M174.7,48.7v4.6c0,0,0,0,0,0l0,0h-3.2c0,0,0,0,0,0l0,0v-4.6c0,0,0,0,0,0l0,0L174.7,48.7
	C174.7,48.6,174.7,48.6,174.7,48.7C174.7,48.7,174.7,48.7,174.7,48.7z"/>
<path class="st3" d="M153.3,42.7v-3.1c0,0,0,0,0,0h-3.5c0,0,0,0,0,0v3.1c0,0,0,0,0,0c0,0,0,0,0,0L153.3,42.7
	C153.3,42.7,153.3,42.7,153.3,42.7"/>
<path class="st3" d="M153.3,30.5v3.1c0,0,0,0,0,0h-3.5c0,0,0,0,0,0l0,0v-3.1c0,0,0,0,0,0l0,0L153.3,30.5
	C153.3,30.5,153.3,30.5,153.3,30.5L153.3,30.5L153.3,30.5z"/>
<path class="st3" d="M153.8,60.7v-3.5c0,0,0,0,0,0h-3.1c0,0,0,0,0,0c0,0,0,0,0,0v3.5c0,0,0,0,0,0c0,0,0,0,0,0L153.8,60.7
	C153.8,60.8,153.8,60.8,153.8,60.7"/>
<path class="st3" d="M144.7,60.7v-3.5c0,0,0,0,0,0h-3.1c0,0,0,0,0,0v3.5c0,0,0,0,0,0L144.7,60.7C144.7,60.8,144.7,60.8,144.7,60.7"
	/>
<path class="st3" d="M158.9,26.1v3.2c0,0,0,0,0,0l0,0h-3.3c0,0,0,0,0,0v0v-3.2c0,0,0,0,0,0l0,0L158.9,26.1
	C158.9,26,158.9,26,158.9,26.1L158.9,26.1z"/>
<path class="st3" d="M158.9,30.6v3.2c0,0,0,0,0,0h-3.3c0,0,0,0,0,0l0,0v-3.2c0,0,0,0,0,0l0,0L158.9,30.6
	C158.9,30.6,158.9,30.6,158.9,30.6L158.9,30.6z"/>
<path class="st3" d="M126.4,9.6L126.4,9.6C126.4,9.6,126.4,9.6,126.4,9.6C126.4,9.6,126.4,9.6,126.4,9.6L126.4,9.6L126.4,9.6
	C126.4,9.5,126.4,9.5,126.4,9.6C126.4,9.6,126.4,9.6,126.4,9.6C126.4,9.6,126.4,9.6,126.4,9.6"/>
<path class="st3" d="M131.4,9.6C131.4,9.6,131.4,9.6,131.4,9.6C131.4,9.6,131.4,9.5,131.4,9.6C131.4,9.5,131.4,9.5,131.4,9.6
	L131.4,9.6L131.4,9.6C131.4,9.6,131.4,9.6,131.4,9.6"/>
<path class="st4" d="M106.1,20v3.6c0,0,0,0.1-0.1,0.1l0,0h-5.9c0,0-0.1,0-0.1-0.1v0V20c0,0,0-0.1,0.1-0.1l0,0L106.1,20
	C106.1,20,106.1,20,106.1,20z"/>
<path class="st4" d="M106.1,12.9v3.6c0,0,0,0.1-0.1,0.1l0,0h-5.9c0,0-0.1,0-0.1-0.1v0v-3.6c0,0,0-0.1,0.1-0.1l0,0L106.1,12.9
	C106.1,12.9,106.1,12.9,106.1,12.9z"/>
<polygon class="st3" points="101.3,15.4 103.1,13.3 103.1,15.4 "/>
<rect x="101" y="13.4" class="st5" width="4.2" height="9.3"/>
<path class="st4" d="M101.4,22.1c-0.1,0-0.3-0.2-0.3-0.4l0-7.4c0-0.2,0.1-0.4,0.3-0.4h3.4c0.1,0,0.3,0.2,0.3,0.4v7.4
	c0,0.2-0.1,0.4-0.3,0.4H101.4z"/>
<rect x="101" y="22.2" class="st6" width="4.2" height="0.4"/>
<rect x="101" y="13.4" class="st6" width="4.2" height="0.4"/>
<rect x="174.5" y="49.2" class="st7" width="2.8" height="3.5"/>
<rect x="173.1" y="49.2" class="st8" width="1.5" height="3.5"/>
<rect x="177.2" y="49.2" class="st8" width="1.5" height="3.5"/>
<g>
	<defs>
		<rect id="SVGID_1_" x="156" y="27.7" width="2.3" height="4.6"/>
	</defs>
	<clipPath id="SVGID_2_">
		<use xlink:href="#SVGID_1_"  style="overflow:visible;"/>
	</clipPath>
	<g class="st9">
		<path class="st4" d="M156,28.8v2.3h0c0,0.6,0.5,1.1,1.2,1.1c0.6,0,1.1-0.5,1.1-1.1h0v-2.3c0-0.6-0.5-1.1-1.1-1.1
			S156,28.2,156,28.8"/>
		<rect x="156" y="29.2" width="2.3" height="1.7"/>
		<rect x="156" y="29.2" class="st0" width="2.3" height="1.7"/>
		<rect x="156" y="29.2" class="st10" width="2.3" height="1.7"/>
		<rect x="156" y="29.2" width="2.3" height="1.7"/>
	</g>
</g>
<rect x="135.3" y="38.6" class="st4" width="2" height="2.4"/>
<rect x="135.3" y="29.9" class="st4" width="2" height="2.3"/>
<rect x="143.4" y="38.6" class="st4" width="2" height="2.4"/>
<rect x="143.4" y="29.9" class="st4" width="2" height="2.3"/>
<rect x="136.4" y="29" class="st11" width="8" height="12.8"/>
<polygon class="st0" points="140.4,32.8 140.6,32.8 140.9,32.9 141.2,33 141.5,33.1 141.7,33.2 141.9,33.4 142.1,33.5 142.3,33.8 
	142.5,34 142.7,34.2 142.8,34.5 142.8,34.7 142.9,35 142.9,35.3 142.9,35.6 142.9,35.9 142.8,36.1 142.7,36.4 142.6,36.7 
	142.4,36.9 142.2,37.1 142,37.3 141.8,37.5 141.6,37.6 141.3,37.8 141.1,37.8 140.8,37.9 140.5,37.9 140.2,37.9 139.9,37.9 
	139.7,37.8 139.4,37.8 139.1,37.6 138.9,37.5 138.7,37.3 138.5,37.1 138.3,36.9 138.1,36.7 138,36.4 137.9,36.1 137.8,35.9 
	137.8,35.6 137.8,35.3 137.8,35 137.9,34.7 138,34.5 138.1,34.2 138.2,34 138.4,33.8 138.6,33.5 138.8,33.4 139,33.2 139.3,33.1 
	139.5,33 139.8,32.9 140.1,32.8 "/>
<path class="st4" d="M152.5,30.6h-2.1c-0.6,0-1,0.5-1,1v0.5h4.1v-0.5C153.6,31.1,153.1,30.6,152.5,30.6"/>
<path class="st4" d="M150.5,42.3h2.1c0.6,0,1-0.5,1-1v-0.5h-4.1v0.5C149.5,41.9,149.9,42.3,150.5,42.3"/>
<path class="st0" d="M153.7,40.7c0,0.3-0.2,0.5-0.5,0.5h-3.4c-0.3,0-0.5-0.2-0.5-0.5v-8.5c0-0.3,0.2-0.5,0.5-0.5h3.4
	c0.3,0,0.5,0.2,0.5,0.5V40.7z"/>
<path class="st10" d="M153.7,40.7c0,0.3-0.2,0.5-0.5,0.5h-3.4c-0.3,0-0.5-0.2-0.5-0.5v-8.5c0-0.3,0.2-0.5,0.5-0.5h3.4
	c0.3,0,0.5,0.2,0.5,0.5V40.7z"/>
<path d="M153.7,40.7c0,0.3-0.2,0.5-0.5,0.5h-3.4c-0.3,0-0.5-0.2-0.5-0.5v-8.5c0-0.3,0.2-0.5,0.5-0.5h3.4c0.3,0,0.5,0.2,0.5,0.5V40.7
	z"/>
<path class="st4" d="M141.8,57.9V60c0,0.6,0.5,1,1,1h0.5v-4.1h-0.5C142.3,56.9,141.8,57.4,141.8,57.9"/>
<path class="st4" d="M153.5,60v-2.1c0-0.6-0.5-1-1-1H152V61h0.5C153.1,61,153.5,60.6,153.5,60"/>
<path class="st0" d="M152.4,57.3v3.4c0,0.3-0.2,0.5-0.5,0.5h-8.5c-0.3,0-0.5-0.2-0.5-0.5v-3.4c0-0.3,0.2-0.5,0.5-0.5h8.5
	C152.2,56.8,152.4,57,152.4,57.3L152.4,57.3L152.4,57.3z"/>
<path class="st10" d="M152.4,57.3v3.4c0,0.3-0.2,0.5-0.5,0.5h-8.5c-0.3,0-0.5-0.2-0.5-0.5v-3.4c0-0.3,0.2-0.5,0.5-0.5h8.5
	C152.2,56.8,152.4,57,152.4,57.3L152.4,57.3L152.4,57.3z"/>
<path d="M152.4,57.3v3.4c0,0.3-0.2,0.5-0.5,0.5h-8.5c-0.3,0-0.5-0.2-0.5-0.5v-3.4c0-0.3,0.2-0.5,0.5-0.5h8.5
	C152.2,56.8,152.4,57,152.4,57.3L152.4,57.3L152.4,57.3z"/>
<path class="st0" d="M173.9,59.8c0,0.2-0.2,0.4-0.4,0.4c-0.2,0-0.4-0.2-0.4-0.4c0-0.2,0.2-0.4,0.4-0.4c0,0,0,0,0,0
	C173.7,59.4,173.9,59.6,173.9,59.8"/>
<g id="Disegno_28">
	<polygon class="st4" points="158.6,56.9 159.5,56.9 159.5,54.9 	"/>
	<polygon class="st4" points="161.5,56.9 162.3,56.9 162.3,54.9 	"/>
	<polygon class="st4" points="164.3,56.9 165.2,56.9 165.2,54.9 	"/>
	<polygon class="st4" points="167.1,56.9 168,56.9 168,54.9 	"/>
	<polygon class="st4" points="170,56.9 170.8,56.9 170.8,54.9 	"/>
	<polygon class="st4" points="158.6,56.9 159.5,54.9 158.6,54.9 	"/>
	<polygon class="st4" points="161.5,56.9 162.3,54.9 161.5,54.9 	"/>
	<polygon class="st4" points="164.3,56.9 165.2,54.9 164.3,54.9 	"/>
	<polygon class="st4" points="167.1,56.9 168,54.9 167.1,54.9 	"/>
	<polygon class="st4" points="170,56.9 170.8,54.9 170,54.9 	"/>
	<rect x="154.8" y="56.9" class="st12" width="19.8" height="12"/>
	<g class="st13">
		<g>
			<defs>
				<rect id="SVGID_3_" x="154.8" y="56.8" width="19.8" height="1.9"/>
			</defs>
			<clipPath id="SVGID_4_">
				<use xlink:href="#SVGID_3_"  style="overflow:visible;"/>
			</clipPath>
			<g class="st14">
				<rect x="154.8" y="56.8" class="st0" width="19.8" height="1.9"/>
			</g>
		</g>
	</g>
	<g class="st13">
		<g>
			<defs>
				<rect id="SVGID_5_" x="154.8" y="60.8" width="19.8" height="1.9"/>
			</defs>
			<clipPath id="SVGID_6_">
				<use xlink:href="#SVGID_5_"  style="overflow:visible;"/>
			</clipPath>
			<g class="st15">
				<rect x="154.8" y="60.8" class="st0" width="19.8" height="1.9"/>
			</g>
		</g>
	</g>
	<g class="st13">
		<g>
			<defs>
				<rect id="SVGID_7_" x="154.8" y="64.9" width="19.8" height="1.9"/>
			</defs>
			<clipPath id="SVGID_8_">
				<use xlink:href="#SVGID_7_"  style="overflow:visible;"/>
			</clipPath>
			<g class="st16">
				<rect x="154.8" y="64.9" class="st0" width="19.8" height="1.9"/>
			</g>
		</g>
	</g>
</g>
<g id="Disegno_27">
	<rect x="136.8" y="1.9" class="st12" width="22.4" height="17"/>
	<g class="st13">
		<rect x="136.8" y="16.8" class="st0" width="22.4" height="2.2"/>
	</g>
	<g class="st13">
		<rect x="136.8" y="12.4" class="st0" width="22.4" height="2.2"/>
	</g>
	<g class="st13">
		<rect x="136.8" y="8" class="st0" width="22.4" height="2.2"/>
	</g>
	<g class="st13">
		<rect x="136.8" y="3.6" class="st0" width="22.4" height="2.2"/>
	</g>
	<g id="LWPOLYLINE">
		<polyline class="st4" points="151.6,18.9 151.6,26.2 150.1,26.2 150.1,18.9 		"/>
	</g>
	<g id="LWPOLYLINE-2">
		<polyline class="st4" points="145.9,18.9 145.9,26.2 144.5,26.2 144.5,18.9 		"/>
	</g>
</g>
<g id="USB">
	<path class="st11" d="M181.2,38.7v1c0,0.1-0.1,0.2-0.2,0.2l0,0h-3.7c-0.1,0-0.2-0.1-0.2-0.2v-1c0-0.1,0.1-0.2,0.2-0.2c0,0,0,0,0,0
		h3.7C181.2,38.5,181.2,38.6,181.2,38.7L181.2,38.7z"/>
	<path class="st11" d="M181.2,36.8v1c0,0.1-0.1,0.2-0.2,0.2l0,0h-3.7c-0.1,0-0.2-0.1-0.2-0.2v-1c0-0.1,0.1-0.2,0.2-0.2h3.7
		C181.2,36.6,181.2,36.7,181.2,36.8z"/>
	<path class="st11" d="M181.2,34.9v1c0,0.1-0.1,0.2-0.2,0.2l0,0h-3.7c-0.1,0-0.2-0.1-0.2-0.2l0,0v-1c0-0.1,0.1-0.2,0.2-0.2
		c0,0,0,0,0,0h3.7C181.2,34.7,181.2,34.8,181.2,34.9L181.2,34.9z"/>
	<path class="st11" d="M181.2,33v1c0,0.1-0.1,0.2-0.2,0.2l0,0h-3.7c-0.1,0-0.2-0.1-0.2-0.2l0,0v-1c0-0.1,0.1-0.2,0.2-0.2
		c0,0,0,0,0,0h3.7C181.2,32.8,181.2,32.9,181.2,33L181.2,33z"/>
	<path class="st11" d="M181.2,31v1c0,0.1-0.1,0.2-0.2,0.2l0,0h-3.7c-0.1,0-0.2-0.1-0.2-0.2l0,0v-1c0-0.1,0.1-0.2,0.2-0.2
		c0,0,0,0,0,0h3.7C181.2,30.9,181.2,31,181.2,31C181.2,31,181.2,31,181.2,31z"/>
	<rect x="179.3" y="24.9" class="st6" width="16.4" height="21.4"/>
	<polygon class="st4" points="181,24.9 179.3,24.9 179.3,24.9 179.3,46.2 179.3,46.2 181,46.2 181,46.2 181,46.2 	"/>
	<polygon class="st4" points="184.2,24.9 182.6,24.9 182.6,24.9 182.6,46.2 182.6,46.2 184.2,46.2 184.2,46.2 184.2,46.2 	"/>
	<polygon class="st4" points="187.5,24.9 185.9,24.9 185.9,24.9 185.9,46.2 185.9,46.2 187.5,46.2 187.5,46.2 187.5,46.2 	"/>
	<polygon class="st4" points="190.8,24.9 189.1,24.9 189.1,24.9 189.1,46.2 189.1,46.2 190.8,46.2 190.8,46.2 190.8,46.2 	"/>
	<polygon class="st4" points="194.1,24.9 192.4,24.9 192.4,24.9 192.4,46.2 192.4,46.2 194.1,46.2 194.1,46.2 194.1,46.2 	"/>
</g>
<rect x="21" y="12.7" class="st5" width="73.3" height="45.3"/>
<rect x="21.7" y="13.4" class="st17" width="71.8" height="43.9"/>
<g id="Disegno_33">
	<polyline class="st0" points="107.4,45.4 107.4,25.5 107.4,25.5 126,25.5 126,25.5 127.3,26.8 127.3,26.8 127.3,45.4 127.3,45.4 
		107.4,45.4 107.4,45.4 	"/>
	<polyline class="st10" points="107.4,45.4 107.4,25.5 107.4,25.5 126,25.5 126,25.5 127.3,26.8 127.3,26.8 127.3,45.4 127.3,45.4 
		107.4,45.4 107.4,45.4 	"/>
	<polyline points="107.4,45.4 107.4,25.5 107.4,25.5 126,25.5 126,25.5 127.3,26.8 127.3,26.8 127.3,45.4 127.3,45.4 107.4,45.4 
		107.4,45.4 	"/>
	<rect x="124.7" y="44.8" class="st4" width="1.2" height="1.2"/>
	<rect x="123.3" y="44.8" class="st4" width="1.2" height="1.2"/>
	<rect x="121.8" y="44.8" class="st4" width="1.2" height="1.2"/>
	<rect x="120.4" y="44.8" class="st4" width="1.2" height="1.2"/>
	<rect x="118.9" y="44.8" class="st4" width="1.2" height="1.2"/>
	<rect x="117.5" y="44.8" class="st4" width="1.2" height="1.2"/>
	<rect x="116" y="44.8" class="st4" width="1.2" height="1.2"/>
	<rect x="114.6" y="44.8" class="st4" width="1.2" height="1.2"/>
	<rect x="113.2" y="44.8" class="st4" width="1.2" height="1.2"/>
	<rect x="111.7" y="44.8" class="st4" width="1.2" height="1.2"/>
	<rect x="110.3" y="44.8" class="st4" width="1.2" height="1.2"/>
	<rect x="108.8" y="44.8" class="st4" width="1.2" height="1.2"/>
	<rect x="124.7" y="24.9" class="st4" width="1.2" height="1.2"/>
	<rect x="123.3" y="24.9" class="st4" width="1.2" height="1.2"/>
	<rect x="121.8" y="24.9" class="st4" width="1.2" height="1.2"/>
	<rect x="120.4" y="24.9" class="st4" width="1.2" height="1.2"/>
	<rect x="118.9" y="24.9" class="st4" width="1.2" height="1.2"/>
	<rect x="117.5" y="24.9" class="st4" width="1.2" height="1.2"/>
	<rect x="116" y="24.9" class="st4" width="1.2" height="1.2"/>
	<rect x="114.6" y="24.9" class="st4" width="1.2" height="1.2"/>
	<rect x="113.2" y="24.9" class="st4" width="1.2" height="1.2"/>
	<rect x="111.7" y="24.9" class="st4" width="1.2" height="1.2"/>
	<rect x="110.3" y="24.9" class="st4" width="1.2" height="1.2"/>
	<rect x="108.8" y="24.9" class="st4" width="1.2" height="1.2"/>
	<rect x="126.7" y="27.6" class="st4" width="1.2" height="1.2"/>
	<rect x="126.7" y="29.1" class="st4" width="1.2" height="1.2"/>
	<rect x="126.7" y="30.5" class="st4" width="1.2" height="1.2"/>
	<rect x="126.7" y="31.9" class="st4" width="1.2" height="1.2"/>
	<rect x="126.7" y="33.4" class="st4" width="1.2" height="1.2"/>
	<rect x="126.7" y="34.8" class="st4" width="1.2" height="1.2"/>
	<rect x="126.7" y="36.3" class="st4" width="1.2" height="1.2"/>
	<rect x="126.7" y="37.7" class="st4" width="1.2" height="1.2"/>
	<rect x="126.7" y="39.2" class="st4" width="1.2" height="1.2"/>
	<rect x="126.7" y="40.6" class="st4" width="1.2" height="1.2"/>
	<rect x="126.7" y="42.1" class="st4" width="1.2" height="1.2"/>
	<rect x="106.8" y="27.6" class="st4" width="1.2" height="1.2"/>
	<rect x="106.8" y="29.1" class="st4" width="1.2" height="1.2"/>
	<rect x="106.8" y="30.5" class="st4" width="1.2" height="1.2"/>
	<rect x="106.8" y="31.9" class="st4" width="1.2" height="1.2"/>
	<rect x="106.8" y="33.4" class="st4" width="1.2" height="1.2"/>
	<rect x="106.8" y="34.8" class="st4" width="1.2" height="1.2"/>
	<rect x="106.8" y="36.3" class="st4" width="1.2" height="1.2"/>
	<rect x="106.8" y="37.7" class="st4" width="1.2" height="1.2"/>
	<rect x="106.8" y="39.2" class="st4" width="1.2" height="1.2"/>
	<rect x="106.8" y="40.6" class="st4" width="1.2" height="1.2"/>
	<rect x="106.8" y="42.1" class="st4" width="1.2" height="1.2"/>
</g>
<g id="Disegno_32">
	<path class="st18" d="M145.7,55.7c-1.6,0-2.8-1.3-2.8-2.8c0,0,0,0,0,0v-6.4c0-1.6,1.3-2.8,2.8-2.8c0,0,0,0,0,0h7.3
		c1.6,0,2.8,1.3,2.8,2.8v6.4c0,1.6-1.3,2.8-2.8,2.8c0,0,0,0,0,0H145.7z"/>
	<path class="st18" d="M145.7,55.7c-1.6,0-2.8-1.3-2.8-2.8c0,0,0,0,0,0v-6.4c0-1.6,1.3-2.8,2.8-2.8c0,0,0,0,0,0h7.3
		c1.6,0,2.8,1.3,2.8,2.8v6.4c0,1.6-1.3,2.8-2.8,2.8c0,0,0,0,0,0H145.7z"/>
	<path class="st0" d="M145.7,55.7c-1.6,0-2.8-1.3-2.8-2.8c0,0,0,0,0,0v-6.4c0-1.6,1.3-2.8,2.8-2.8c0,0,0,0,0,0h7.3
		c1.6,0,2.8,1.3,2.8,2.8v6.4c0,1.6-1.3,2.8-2.8,2.8c0,0,0,0,0,0H145.7z"/>
	<path class="st0" d="M145.7,55.7c-1.6,0-2.8-1.3-2.8-2.8c0,0,0,0,0,0v-6.4c0-1.6,1.3-2.8,2.8-2.8c0,0,0,0,0,0h7.3
		c1.6,0,2.8,1.3,2.8,2.8v6.4c0,1.6-1.3,2.8-2.8,2.8c0,0,0,0,0,0H145.7z"/>
	<path class="st10" d="M145.7,55.7c-1.6,0-2.8-1.3-2.8-2.8c0,0,0,0,0,0v-6.4c0-1.6,1.3-2.8,2.8-2.8c0,0,0,0,0,0h7.3
		c1.6,0,2.8,1.3,2.8,2.8v6.4c0,1.6-1.3,2.8-2.8,2.8c0,0,0,0,0,0H145.7z"/>
	<path class="st10" d="M145.7,55.7c-1.6,0-2.8-1.3-2.8-2.8c0,0,0,0,0,0v-6.4c0-1.6,1.3-2.8,2.8-2.8c0,0,0,0,0,0h7.3
		c1.6,0,2.8,1.3,2.8,2.8v6.4c0,1.6-1.3,2.8-2.8,2.8c0,0,0,0,0,0H145.7z"/>
	<path d="M145.7,55.7c-1.6,0-2.8-1.3-2.8-2.8c0,0,0,0,0,0v-6.4c0-1.6,1.3-2.8,2.8-2.8c0,0,0,0,0,0h7.3c1.6,0,2.8,1.3,2.8,2.8v6.4
		c0,1.6-1.3,2.8-2.8,2.8c0,0,0,0,0,0H145.7z"/>
	<path d="M145.7,55.7c-1.6,0-2.8-1.3-2.8-2.8c0,0,0,0,0,0v-6.4c0-1.6,1.3-2.8,2.8-2.8c0,0,0,0,0,0h7.3c1.6,0,2.8,1.3,2.8,2.8v6.4
		c0,1.6-1.3,2.8-2.8,2.8c0,0,0,0,0,0H145.7z"/>
</g>
<g id="LED">
	<rect x="181.9" y="52.1" class="st4" width="7.6" height="3"/>
	<path class="st19" d="M188,53.6c0,1.3-1,2.3-2.3,2.3c-1.3,0-2.3-1-2.3-2.3c0-1.3,1-2.3,2.3-2.3c0,0,0,0,0,0
		C187,51.3,188,52.3,188,53.6z"/>
</g>
<g id="LED-2">
	<rect x="136.9" y="61.6" class="st4" width="3" height="7.6"/>
	<path class="st20" d="M138.4,63c1.3,0,2.3,1,2.3,2.3c0,1.3-1,2.3-2.3,2.3c-1.3,0-2.3-1-2.3-2.3C136,64.1,137.1,63,138.4,63z"/>
</g>
<g id="LED-3">
	<rect x="181.9" y="15.7" class="st4" width="7.6" height="3"/>
	<path class="st10" d="M188,17.2c0,1.3-1,2.3-2.3,2.3s-2.3-1-2.3-2.3c0-1.3,1-2.3,2.3-2.3c0,0,0,0,0,0C187,14.8,188,15.9,188,17.2z"
		/>
</g>
<g id="Disegno_11">
	<polyline class="st0" points="163.3,19.4 163.3,7.7 163.3,7.7 175,7.7 175,19.4 175,19.4 163.3,19.4 163.3,19.4 	"/>
	<polyline class="st10" points="163.3,19.4 163.3,7.7 163.3,7.7 175,7.7 175,19.4 175,19.4 163.3,19.4 163.3,19.4 	"/>
	<polyline points="163.3,19.4 163.3,7.7 163.3,7.7 175,7.7 175,19.4 175,19.4 163.3,19.4 163.3,19.4 	"/>
	<rect x="172.9" y="6.9" class="st4" width="0.8" height="1.6"/>
	<rect x="171.7" y="6.9" class="st4" width="0.8" height="1.6"/>
	<rect x="170.5" y="6.9" class="st4" width="0.8" height="1.6"/>
	<rect x="169.4" y="6.9" class="st4" width="0.8" height="1.6"/>
	<rect x="168.2" y="6.9" class="st4" width="0.8" height="1.6"/>
	<rect x="167" y="6.9" class="st4" width="0.8" height="1.6"/>
	<rect x="165.9" y="6.9" class="st4" width="0.8" height="1.6"/>
	<rect x="164.7" y="6.9" class="st4" width="0.8" height="1.6"/>
	<rect x="162.6" y="17.2" class="st4" width="1.6" height="0.8"/>
	<rect x="162.6" y="16.1" class="st4" width="1.6" height="0.8"/>
	<rect x="162.6" y="14.9" class="st4" width="1.6" height="0.8"/>
	<rect x="162.6" y="13.7" class="st4" width="1.6" height="0.8"/>
	<rect x="162.6" y="12.6" class="st4" width="1.6" height="0.8"/>
	<rect x="162.6" y="11.4" class="st4" width="1.6" height="0.8"/>
	<rect x="162.6" y="10.3" class="st4" width="1.6" height="0.8"/>
	<rect x="162.6" y="9.1" class="st4" width="1.6" height="0.8"/>
	<rect x="174.2" y="17.2" class="st4" width="1.6" height="0.8"/>
	<rect x="174.2" y="16.1" class="st4" width="1.6" height="0.8"/>
	<rect x="174.2" y="14.9" class="st4" width="1.6" height="0.8"/>
	<rect x="174.2" y="13.7" class="st4" width="1.6" height="0.8"/>
	<rect x="174.2" y="12.6" class="st4" width="1.6" height="0.8"/>
	<rect x="174.2" y="11.4" class="st4" width="1.6" height="0.8"/>
	<rect x="174.2" y="10.3" class="st4" width="1.6" height="0.8"/>
	<rect x="174.2" y="9.1" class="st4" width="1.6" height="0.8"/>
	<rect x="172.9" y="18.6" class="st4" width="0.8" height="1.6"/>
	<rect x="171.7" y="18.6" class="st4" width="0.8" height="1.6"/>
	<rect x="170.5" y="18.6" class="st4" width="0.8" height="1.6"/>
	<rect x="169.4" y="18.6" class="st4" width="0.8" height="1.6"/>
	<rect x="168.2" y="18.6" class="st4" width="0.8" height="1.6"/>
	<rect x="167" y="18.6" class="st4" width="0.8" height="1.6"/>
	<rect x="165.9" y="18.6" class="st4" width="0.8" height="1.6"/>
	<rect x="164.7" y="18.6" class="st4" width="0.8" height="1.6"/>
</g>
<g id="Disegno_35">
	<rect x="160.5" y="25.1" class="st0" width="5.7" height="4.4"/>
	<rect x="160.5" y="25.1" class="st10" width="5.7" height="4.4"/>
	<rect x="160.5" y="25.1" width="5.7" height="4.4"/>
	<path class="st4" d="M165.2,30.5c0.5,0,1-0.4,1-1c0,0,0,0,0,0h-1.9C164.3,30,164.7,30.5,165.2,30.5
		C165.2,30.5,165.2,30.5,165.2,30.5z"/>
	<path class="st4" d="M163.3,30.5c0.5,0,1-0.4,1-1c0,0,0,0,0,0h-1.9C162.4,30,162.8,30.5,163.3,30.5
		C163.3,30.5,163.3,30.5,163.3,30.5z"/>
	<path class="st4" d="M161.4,30.5c0.5,0,1-0.4,1-1c0,0,0,0,0,0h-1.9C160.5,30,160.9,30.5,161.4,30.5
		C161.4,30.5,161.4,30.5,161.4,30.5z"/>
	<path class="st4" d="M165.2,24.2c0.5,0,1,0.4,1,1c0,0,0,0,0,0h-1.9C164.3,24.6,164.7,24.2,165.2,24.2
		C165.2,24.2,165.2,24.2,165.2,24.2z"/>
	<path class="st4" d="M163.3,24.2c0.5,0,1,0.4,1,1c0,0,0,0,0,0h-1.9C162.4,24.6,162.8,24.2,163.3,24.2
		C163.3,24.2,163.3,24.2,163.3,24.2z"/>
	<path class="st4" d="M161.4,24.2c0.5,0,1,0.4,1,1c0,0,0,0,0,0h-1.9C160.5,24.6,160.9,24.2,161.4,24.2
		C161.4,24.2,161.4,24.2,161.4,24.2z"/>
</g>
<g id="Disegno_25">
	<rect x="96.8" y="36.6" class="st0" width="5.7" height="8.6"/>
	<rect x="96.8" y="36.6" class="st10" width="5.7" height="8.6"/>
	<rect x="96.8" y="36.6" width="5.7" height="8.6"/>
	<path class="st4" d="M101.8,45.9c0.4,0,0.7-0.3,0.7-0.7c0,0,0,0,0,0h-1.4C101.1,45.5,101.4,45.9,101.8,45.9L101.8,45.9z"/>
	<path class="st4" d="M100.4,45.9c0.4,0,0.7-0.3,0.7-0.7c0,0,0,0,0,0h-1.4C99.6,45.5,100,45.9,100.4,45.9L100.4,45.9z"/>
	<path class="st4" d="M98.9,45.9c0.4,0,0.7-0.3,0.7-0.7c0,0,0,0,0,0h-1.4C98.2,45.5,98.5,45.9,98.9,45.9L98.9,45.9z"/>
	<path class="st4" d="M98.9,35.9c-0.4,0-0.7,0.3-0.7,0.7c0,0,0,0,0,0h1.4C99.6,36.2,99.3,35.9,98.9,35.9L98.9,35.9z"/>
	<path class="st4" d="M100.4,35.9c-0.4,0-0.7,0.3-0.7,0.7c0,0,0,0,0,0h1.4C101.1,36.2,100.7,35.9,100.4,35.9L100.4,35.9z"/>
	<path class="st4" d="M101.8,35.9c-0.4,0-0.7,0.3-0.7,0.7c0,0,0,0,0,0h1.4C102.5,36.2,102.2,35.9,101.8,35.9L101.8,35.9z"/>
	<path class="st4" d="M97.5,45.9c0.4,0,0.7-0.3,0.7-0.7c0,0,0,0,0,0h-1.4C96.8,45.5,97.1,45.9,97.5,45.9L97.5,45.9z"/>
	<path class="st4" d="M97.5,35.9c-0.4,0-0.7,0.3-0.7,0.7c0,0,0,0,0,0h1.4C98.2,36.2,97.9,35.9,97.5,35.9z"/>
</g>
<g id="pin">
	<rect x="118.2" y="60.9" class="st0" width="7.2" height="7.2"/>
	<path class="st0" d="M118.2,68.1v-7.2H111v7.2H118.2z"/>
	<path class="st0" d="M111,68.1v-7.2h-7.2v7.2H111z"/>
	<path class="st0" d="M103.8,68.1v-7.2h-7.2v7.2H103.8z"/>
	<path class="st0" d="M132.6,68.1v-7.2h-7.2v7.2H132.6z"/>
	<path class="st0" d="M89.5,68.1v-7.2h-7.2v7.2H89.5z"/>
	<path class="st0" d="M96.7,68.1v-7.2h-7.2v7.2H96.7z"/>
	<path class="st0" d="M82.3,68.1v-7.2h-7.2v7.2H82.3z"/>
	<path class="st0" d="M67.9,68.1v-7.2h-7.2v7.2H67.9z"/>
	<path class="st0" d="M75.1,68.1v-7.2h-7.2v7.2H75.1z"/>
	<rect x="118.2" y="60.9" class="st10" width="7.2" height="7.2"/>
	<path class="st10" d="M118.2,68.1v-7.2H111v7.2H118.2z"/>
	<path class="st10" d="M111,68.1v-7.2h-7.2v7.2H111z"/>
	<path class="st10" d="M103.8,68.1v-7.2h-7.2v7.2H103.8z"/>
	<path class="st10" d="M132.6,68.1v-7.2h-7.2v7.2H132.6z"/>
	<path class="st10" d="M89.5,68.1v-7.2h-7.2v7.2H89.5z"/>
	<path class="st10" d="M96.7,68.1v-7.2h-7.2v7.2H96.7z"/>
	<path class="st10" d="M82.3,68.1v-7.2h-7.2v7.2H82.3z"/>
	<path class="st10" d="M67.9,68.1v-7.2h-7.2v7.2H67.9z"/>
	<path class="st10" d="M75.1,68.1v-7.2h-7.2v7.2H75.1z"/>
	<rect x="118.2" y="60.9" width="7.2" height="7.2"/>
	<path d="M118.2,68.1v-7.2H111v7.2H118.2z"/>
	<path d="M111,68.1v-7.2h-7.2v7.2H111z"/>
	<path d="M103.8,68.1v-7.2h-7.2v7.2H103.8z"/>
	<path d="M132.6,68.1v-7.2h-7.2v7.2H132.6z"/>
	<path d="M89.5,68.1v-7.2h-7.2v7.2H89.5z"/>
	<path d="M96.7,68.1v-7.2h-7.2v7.2H96.7z"/>
	<path d="M82.3,68.1v-7.2h-7.2v7.2H82.3z"/>
	<path d="M67.9,68.1v-7.2h-7.2v7.2H67.9z"/>
	<path d="M75.1,68.1v-7.2h-7.2v7.2H75.1z"/>
	<polygon class="st5" points="112.8,66.3 116.4,66.3 116.4,66.3 116.4,62.7 116.4,62.7 112.8,62.7 112.8,62.7 112.8,62.7 	"/>
	<polygon class="st5" points="120,66.3 123.6,66.3 123.6,66.3 123.6,62.7 123.6,62.7 120,62.7 120,62.7 120,62.7 	"/>
	<polygon class="st5" points="127.2,66.3 130.8,66.3 130.8,66.3 130.8,62.7 130.8,62.7 127.2,62.7 127.2,62.7 127.2,62.7 	"/>
	<polygon class="st5" points="84.1,66.3 87.7,66.3 87.7,66.3 87.7,62.7 87.7,62.7 84.1,62.7 84.1,62.7 84.1,62.7 	"/>
	<polygon class="st5" points="66.1,66.3 66.1,62.7 66.1,62.7 62.5,62.7 62.5,62.7 62.5,66.3 62.5,66.3 62.5,66.3 	"/>
	<polygon class="st5" points="80.5,66.3 80.5,62.7 80.5,62.7 76.9,62.7 76.9,62.7 76.9,66.3 76.9,66.3 76.9,66.3 	"/>
	<polygon class="st5" points="94.9,66.3 94.9,62.7 94.9,62.7 91.3,62.7 91.3,62.7 91.3,66.3 91.3,66.3 91.3,66.3 	"/>
	<polygon class="st5" points="102,66.3 102,62.7 102,62.7 98.4,62.7 98.4,62.7 98.4,66.3 98.4,66.3 98.4,66.3 	"/>
	<polygon class="st5" points="109.2,66.3 109.2,62.7 109.2,62.7 105.6,62.7 105.6,62.7 105.6,66.3 105.6,66.3 105.6,66.3 	"/>
	<polygon class="st5" points="73.3,66.3 73.3,62.7 73.3,62.7 69.7,62.7 69.7,62.7 69.7,66.3 69.7,66.3 69.7,66.3 	"/>
	<rect x="46.3" y="60.9" class="st0" width="7.2" height="7.2"/>
	<path class="st0" d="M46.3,68.1v-7.2h-7.2v7.2H46.3z"/>
	<path class="st0" d="M39.1,68.1v-7.2h-7.2v7.2H39.1z"/>
	<path class="st0" d="M60.7,68.1v-7.2h-7.2v7.2H60.7z"/>
	<rect x="46.3" y="60.9" class="st10" width="7.2" height="7.2"/>
	<path class="st10" d="M46.3,68.1v-7.2h-7.2v7.2H46.3z"/>
	<path class="st10" d="M39.1,68.1v-7.2h-7.2v7.2H39.1z"/>
	<path class="st10" d="M60.7,68.1v-7.2h-7.2v7.2H60.7z"/>
	<rect x="46.3" y="60.9" width="7.2" height="7.2"/>
	<path d="M46.3,68.1v-7.2h-7.2v7.2H46.3z"/>
	<path d="M39.1,68.1v-7.2h-7.2v7.2H39.1z"/>
	<path d="M60.7,68.1v-7.2h-7.2v7.2H60.7z"/>
	<polygon class="st5" points="40.9,66.3 44.5,66.3 44.5,66.3 44.5,62.7 44.5,62.7 40.9,62.7 40.9,62.7 40.9,62.7 	"/>
	<polygon class="st5" points="48.1,66.3 51.7,66.3 51.7,66.3 51.7,62.7 51.7,62.7 48.1,62.7 48.1,62.7 48.1,62.7 	"/>
	<polygon class="st5" points="55.3,66.3 58.9,66.3 58.9,66.3 58.9,62.7 58.9,62.7 55.3,62.7 55.3,62.7 55.3,62.7 	"/>
	<polygon class="st5" points="37.3,66.3 37.3,62.7 37.3,62.7 33.7,62.7 33.7,62.7 33.7,66.3 33.7,66.3 33.7,66.3 	"/>
</g>
<g id="pin-2">
	<rect x="118.2" y="3" class="st0" width="7.2" height="7.2"/>
	<path class="st0" d="M118.2,10.2V3H111v7.2H118.2z"/>
	<path class="st0" d="M111,10.2V3h-7.2v7.2H111z"/>
	<path class="st0" d="M103.8,10.2V3h-7.2v7.2H103.8z"/>
	<path class="st0" d="M132.6,10.2V3h-7.2v7.2H132.6z"/>
	<path class="st0" d="M89.5,10.2V3h-7.2v7.2H89.5z"/>
	<path class="st0" d="M96.7,10.2V3h-7.2v7.2H96.7z"/>
	<path class="st0" d="M82.3,10.2V3h-7.2v7.2H82.3z"/>
	<path class="st0" d="M67.9,10.2V3h-7.2v7.2H67.9z"/>
	<path class="st0" d="M75.1,10.2V3h-7.2v7.2H75.1z"/>
	<rect x="118.2" y="3" class="st10" width="7.2" height="7.2"/>
	<path class="st10" d="M118.2,10.2V3H111v7.2H118.2z"/>
	<path class="st10" d="M111,10.2V3h-7.2v7.2H111z"/>
	<path class="st10" d="M103.8,10.2V3h-7.2v7.2H103.8z"/>
	<path class="st10" d="M132.6,10.2V3h-7.2v7.2H132.6z"/>
	<path class="st10" d="M89.5,10.2V3h-7.2v7.2H89.5z"/>
	<path class="st10" d="M96.7,10.2V3h-7.2v7.2H96.7z"/>
	<path class="st10" d="M82.3,10.2V3h-7.2v7.2H82.3z"/>
	<path class="st10" d="M67.9,10.2V3h-7.2v7.2H67.9z"/>
	<path class="st10" d="M75.1,10.2V3h-7.2v7.2H75.1z"/>
	<rect x="118.2" y="3" width="7.2" height="7.2"/>
	<path d="M118.2,10.2V3H111v7.2H118.2z"/>
	<path d="M111,10.2V3h-7.2v7.2H111z"/>
	<path d="M103.8,10.2V3h-7.2v7.2H103.8z"/>
	<path d="M132.6,10.2V3h-7.2v7.2H132.6z"/>
	<path d="M89.5,10.2V3h-7.2v7.2H89.5z"/>
	<path d="M96.7,10.2V3h-7.2v7.2H96.7z"/>
	<path d="M82.3,10.2V3h-7.2v7.2H82.3z"/>
	<path d="M67.9,10.2V3h-7.2v7.2H67.9z"/>
	<path d="M75.1,10.2V3h-7.2v7.2H75.1z"/>
	<polygon class="st5" points="112.8,8.4 116.4,8.4 116.4,8.4 116.4,4.8 116.4,4.8 112.8,4.8 112.8,4.8 112.8,4.8 	"/>
	<polygon class="st5" points="120,8.4 123.6,8.4 123.6,8.4 123.6,4.8 123.6,4.8 120,4.8 120,4.8 120,4.8 	"/>
	<polygon class="st5" points="127.2,8.4 130.8,8.4 130.8,8.4 130.8,4.8 130.8,4.8 127.2,4.8 127.2,4.8 127.2,4.8 	"/>
	<polygon class="st5" points="84.1,8.4 87.7,8.4 87.7,8.4 87.7,4.8 87.7,4.8 84.1,4.8 84.1,4.8 84.1,4.8 	"/>
	<polygon class="st5" points="66.1,8.4 66.1,4.8 66.1,4.8 62.5,4.8 62.5,4.8 62.5,8.4 62.5,8.4 62.5,8.4 	"/>
	<polygon class="st5" points="80.5,8.4 80.5,4.8 80.5,4.8 76.9,4.8 76.9,4.8 76.9,8.4 76.9,8.4 76.9,8.4 	"/>
	<polygon class="st5" points="94.9,8.4 94.9,4.8 94.9,4.8 91.3,4.8 91.3,4.8 91.3,8.4 91.3,8.4 91.3,8.4 	"/>
	<polygon class="st5" points="102,8.4 102,4.8 102,4.8 98.4,4.8 98.4,4.8 98.4,8.4 98.4,8.4 98.4,8.4 	"/>
	<polygon class="st5" points="109.2,8.4 109.2,4.8 109.2,4.8 105.6,4.8 105.6,4.8 105.6,8.4 105.6,8.4 105.6,8.4 	"/>
	<polygon class="st5" points="73.3,8.4 73.3,4.8 73.3,4.8 69.7,4.8 69.7,4.8 69.7,8.4 69.7,8.4 69.7,8.4 	"/>
	<rect x="46.3" y="3" class="st0" width="7.2" height="7.2"/>
	<path class="st0" d="M46.3,10.2V3h-7.2v7.2H46.3z"/>
	<path class="st0" d="M39.1,10.2V3h-7.2v7.2H39.1z"/>
	<path class="st0" d="M60.7,10.2V3h-7.2v7.2H60.7z"/>
	<rect x="46.3" y="3" class="st10" width="7.2" height="7.2"/>
	<path class="st10" d="M46.3,10.2V3h-7.2v7.2H46.3z"/>
	<path class="st10" d="M39.1,10.2V3h-7.2v7.2H39.1z"/>
	<path class="st10" d="M60.7,10.2V3h-7.2v7.2H60.7z"/>
	<rect x="46.3" y="3" width="7.2" height="7.2"/>
	<path d="M46.3,10.2V3h-7.2v7.2H46.3z"/>
	<path d="M39.1,10.2V3h-7.2v7.2H39.1z"/>
	<path d="M60.7,10.2V3h-7.2v7.2H60.7z"/>
	<polygon class="st5" points="40.9,8.4 44.5,8.4 44.5,8.4 44.5,4.8 44.5,4.8 40.9,4.8 40.9,4.8 40.9,4.8 	"/>
	<polygon class="st5" points="48.1,8.4 51.7,8.4 51.7,8.4 51.7,4.8 51.7,4.8 48.1,4.8 48.1,4.8 48.1,4.8 	"/>
	<polygon class="st5" points="55.3,8.4 58.9,8.4 58.9,8.4 58.9,4.8 58.9,4.8 55.3,4.8 55.3,4.8 55.3,4.8 	"/>
	<polygon class="st5" points="37.3,8.4 37.3,4.8 37.3,4.8 33.7,4.8 33.7,4.8 33.7,8.4 33.7,8.4 33.7,8.4 	"/>
</g>
<g id="Disegno_34">
	<rect x="123.4" y="12.8" class="st4" width="2.4" height="0.9"/>
	<rect x="127.6" y="12.8" class="st4" width="2.4" height="0.9"/>
	<rect x="125.4" y="21.8" class="st4" width="6.8" height="0.9"/>
	<rect x="125.4" y="22.7" class="st21" width="6.8" height="0.9"/>
	<rect x="125.4" y="23.6" class="st4" width="6.8" height="0.9"/>
	<rect x="131.7" y="12.8" class="st4" width="2.4" height="0.9"/>
	<rect x="123.4" y="11.9" class="st22" width="2.4" height="0.9"/>
	<rect x="127.6" y="11.9" class="st22" width="2.4" height="0.9"/>
	<rect x="131.7" y="11.9" class="st22" width="2.4" height="0.9"/>
	<rect x="123.4" y="11" class="st4" width="2.4" height="0.9"/>
	<rect x="127.6" y="11" class="st4" width="2.4" height="0.9"/>
	<rect x="131.7" y="11" class="st4" width="2.4" height="0.9"/>
	<rect x="121.9" y="13.7" class="st0" width="13.8" height="8.1"/>
	<rect x="121.9" y="13.7" class="st10" width="13.8" height="8.1"/>
	<rect x="121.9" y="13.7" width="13.8" height="8.1"/>
</g>
<g id="Disegno_7">
	<rect x="141.3" y="64.9" class="st5" width="4.5" height="2.6"/>
	<rect x="141.3" y="63.3" class="st11" width="1.6" height="1.6"/>
	<rect x="142.8" y="67.5" class="st11" width="1.6" height="1.6"/>
	<rect x="144.2" y="63.3" class="st11" width="1.6" height="1.6"/>
	<rect x="141.7" y="64.5" class="st4" width="0.8" height="0.8"/>
	<rect x="144.6" y="64.5" class="st4" width="0.8" height="0.8"/>
	<rect x="143.2" y="67.1" class="st4" width="0.8" height="0.8"/>
</g>
<g id="Disegno_5">
	<rect x="168" y="34.1" class="st0" width="7.5" height="4.9"/>
	<rect x="168" y="34.1" class="st10" width="7.5" height="4.9"/>
	<rect x="168" y="34.1" width="7.5" height="4.9"/>
	<rect x="173.6" y="31.3" class="st4" width="1.3" height="3.6"/>
	<rect x="168.7" y="31.3" class="st4" width="1.3" height="3.6"/>
	<rect x="173.6" y="37.7" class="st4" width="1.3" height="3.6"/>
	<rect x="168.7" y="37.7" class="st4" width="1.3" height="3.6"/>
</g>
<g id="Artwork_3">
	<path class="st4" d="M120.3,15.5v2.3c0,0,0,0,0,0l0,0H118c0,0,0,0,0,0v0v-2.3c0,0,0,0,0,0l0,0L120.3,15.5
		C120.3,15.4,120.3,15.4,120.3,15.5L120.3,15.5L120.3,15.5z"/>
	<path class="st4" d="M120.3,12.9v2.3c0,0,0,0,0,0l0,0H118c0,0,0,0,0,0c0,0,0,0,0,0v-2.3c0,0,0,0,0,0l0,0L120.3,12.9
		C120.3,12.9,120.3,12.9,120.3,12.9C120.3,12.9,120.3,12.9,120.3,12.9z"/>
	<path class="st11" d="M118.4,14.6L118.4,14.6l0,0.7v0.1l0,0.7h0c0,0.4,0.3,0.7,0.7,0.7c0.4,0,0.7-0.3,0.7-0.7h0l0-0.7v-0.1l0-0.7
		c0-0.4-0.3-0.7-0.7-0.7C118.7,13.9,118.4,14.2,118.4,14.6C118.4,14.6,118.4,14.6,118.4,14.6L118.4,14.6z"/>
	<rect x="118.4" y="14.8" class="st0" width="1.4" height="1.1"/>
	<rect x="118.4" y="14.8" class="st10" width="1.4" height="1.1"/>
	<rect x="118.4" y="14.8" width="1.4" height="1.1"/>
</g>
<g id="Artwork_3-2">
	<path class="st4" d="M117.4,15.5v2.3c0,0,0,0,0,0l0,0h-2.3c0,0,0,0,0,0v0v-2.3c0,0,0,0,0,0l0,0L117.4,15.5
		C117.4,15.4,117.4,15.4,117.4,15.5L117.4,15.5L117.4,15.5z"/>
	<path class="st4" d="M117.4,12.9v2.3c0,0,0,0,0,0l0,0h-2.3c0,0,0,0,0,0c0,0,0,0,0,0v-2.3c0,0,0,0,0,0l0,0L117.4,12.9
		C117.4,12.9,117.4,12.9,117.4,12.9C117.4,12.9,117.4,12.9,117.4,12.9z"/>
	<path class="st11" d="M115.5,14.6L115.5,14.6l0,0.7v0.1l0,0.7h0c0,0.4,0.3,0.7,0.7,0.7c0.4,0,0.7-0.3,0.7-0.7h0l0-0.7v-0.1l0-0.7
		c0-0.4-0.3-0.7-0.7-0.7C115.8,13.9,115.5,14.2,115.5,14.6z"/>
	<rect x="115.5" y="14.8" class="st0" width="1.4" height="1.1"/>
	<rect x="115.5" y="14.8" class="st10" width="1.4" height="1.1"/>
	<rect x="115.5" y="14.8" width="1.4" height="1.1"/>
</g>
<g id="Artwork_3-3">
	<path class="st4" d="M114.5,15.5v2.3c0,0,0,0,0,0l0,0h-2.3c0,0,0,0,0,0v0v-2.3c0,0,0,0,0,0l0,0L114.5,15.5
		C114.5,15.4,114.5,15.4,114.5,15.5C114.5,15.5,114.5,15.5,114.5,15.5z"/>
	<path class="st4" d="M114.5,12.9v2.3c0,0,0,0,0,0l0,0h-2.3c0,0,0,0,0,0c0,0,0,0,0,0v-2.3c0,0,0,0,0,0l0,0L114.5,12.9
		C114.5,12.9,114.5,12.9,114.5,12.9C114.5,12.9,114.5,12.9,114.5,12.9z"/>
	<path class="st11" d="M112.6,14.6L112.6,14.6l0,0.7v0.1l0,0.7h0c0,0.4,0.3,0.7,0.7,0.7c0.4,0,0.7-0.3,0.7-0.7h0l0-0.7v-0.1l0-0.7
		c0-0.4-0.3-0.7-0.7-0.7C113,13.9,112.6,14.2,112.6,14.6z"/>
	<rect x="112.6" y="14.8" class="st0" width="1.4" height="1.1"/>
	<rect x="112.6" y="14.8" class="st10" width="1.4" height="1.1"/>
	<rect x="112.6" y="14.8" width="1.4" height="1.1"/>
</g>
<g id="Artwork_3-4">
	<path class="st4" d="M118.5,21.1v2.3c0,0,0,0,0,0l0,0h-2.3c0,0,0,0,0,0v0v-2.3c0,0,0,0,0,0l0,0L118.5,21.1
		C118.5,21.1,118.5,21.1,118.5,21.1C118.5,21.1,118.5,21.1,118.5,21.1z"/>
	<path class="st4" d="M118.5,18.5v2.3c0,0,0,0,0,0l0,0h-2.3c0,0,0,0,0,0v0v-2.3c0,0,0,0,0,0l0,0L118.5,18.5
		C118.5,18.5,118.5,18.5,118.5,18.5C118.5,18.5,118.5,18.5,118.5,18.5z"/>
	<path class="st11" d="M116.6,20.2L116.6,20.2l0,0.7V21l0,0.7h0c0,0.4,0.3,0.7,0.7,0.7c0.4,0,0.7-0.3,0.7-0.7h0l0-0.7v-0.1l0-0.7
		c0-0.4-0.3-0.7-0.7-0.7S116.6,19.9,116.6,20.2z"/>
	<rect x="116.6" y="20.4" class="st0" width="1.4" height="1.1"/>
	<rect x="116.6" y="20.4" class="st10" width="1.4" height="1.1"/>
	<rect x="116.6" y="20.4" width="1.4" height="1.1"/>
</g>
<g id="Artwork_3-5">
	<path class="st4" d="M137.7,24.3v2.3c0,0,0,0,0,0h-2.3c0,0,0,0,0,0v-2.3c0,0,0,0,0,0L137.7,24.3C137.6,24.2,137.7,24.2,137.7,24.3
		L137.7,24.3z"/>
	<path class="st4" d="M135.1,24.3v2.3c0,0,0,0,0,0h-2.3c0,0,0,0,0,0v-2.3c0,0,0,0,0,0L135.1,24.3C135.1,24.2,135.1,24.2,135.1,24.3z
		"/>
	<path class="st11" d="M134.5,26.1L134.5,26.1l0.7,0h0.1l0.7,0v0c0.4,0,0.7-0.3,0.7-0.7c0-0.4-0.3-0.7-0.7-0.7v0l-0.7,0h-0.1l-0.7,0
		c-0.4,0-0.7,0.3-0.7,0.7S134.1,26.1,134.5,26.1C134.5,26.1,134.5,26.1,134.5,26.1L134.5,26.1z"/>
	<rect x="134.7" y="24.7" class="st0" width="1.1" height="1.4"/>
	<rect x="134.7" y="24.7" class="st10" width="1.1" height="1.4"/>
	<rect x="134.7" y="24.7" width="1.1" height="1.4"/>
</g>
<g id="Artwork_3-6">
	<path class="st4" d="M99.7,15.5v2.3c0,0,0,0,0,0l0,0h-2.3c0,0,0,0,0,0v0v-2.3c0,0,0,0,0,0l0,0L99.7,15.5
		C99.7,15.4,99.7,15.4,99.7,15.5C99.7,15.5,99.7,15.5,99.7,15.5z"/>
	<path class="st4" d="M99.7,12.9v2.3c0,0,0,0,0,0l0,0h-2.3c0,0,0,0,0,0c0,0,0,0,0,0v-2.3c0,0,0,0,0,0l0,0L99.7,12.9
		C99.7,12.9,99.7,12.9,99.7,12.9C99.7,12.9,99.7,12.9,99.7,12.9z"/>
	<path class="st11" d="M97.9,14.6L97.9,14.6l0,0.7v0.1l0,0.7h0c0,0.4,0.3,0.7,0.7,0.7c0.4,0,0.7-0.3,0.7-0.7h0l0-0.7v-0.1l0-0.7
		c0-0.4-0.3-0.7-0.7-0.7S97.9,14.2,97.9,14.6z"/>
	<rect x="97.9" y="14.8" class="st0" width="1.4" height="1.1"/>
	<rect x="97.9" y="14.8" class="st10" width="1.4" height="1.1"/>
	<rect x="97.9" y="14.8" width="1.4" height="1.1"/>
</g>
<g id="Artwork_3-7">
	<path class="st4" d="M99.7,21.8v2.3c0,0,0,0,0,0l0,0h-2.3c0,0,0,0,0,0v0v-2.3c0,0,0,0,0,0l0,0L99.7,21.8
		C99.7,21.8,99.7,21.8,99.7,21.8L99.7,21.8L99.7,21.8z"/>
	<path class="st4" d="M99.7,19.3v2.3c0,0,0,0,0,0l0,0h-2.3c0,0,0,0,0,0v0v-2.3c0,0,0,0,0,0l0,0L99.7,19.3
		C99.7,19.2,99.7,19.2,99.7,19.3C99.7,19.3,99.7,19.3,99.7,19.3z"/>
	<path class="st11" d="M97.9,21L97.9,21l0,0.7v0.1l0,0.7h0c0,0.4,0.3,0.7,0.7,0.7c0.4,0,0.7-0.3,0.7-0.7h0l0-0.7v-0.1l0-0.7
		c0-0.4-0.3-0.7-0.7-0.7S97.9,20.6,97.9,21z"/>
	<rect x="97.9" y="21.1" class="st0" width="1.4" height="1.1"/>
	<rect x="97.9" y="21.1" class="st10" width="1.4" height="1.1"/>
	<rect x="97.9" y="21.1" width="1.4" height="1.1"/>
</g>
<g id="Artwork_3-8">
	<path class="st4" d="M98.1,52.6v2.3c0,0,0,0,0,0l0,0h-2.3c0,0,0,0,0,0l0,0v-2.3c0,0,0,0,0,0l0,0L98.1,52.6
		C98.1,52.6,98.1,52.6,98.1,52.6L98.1,52.6L98.1,52.6z"/>
	<path class="st4" d="M98.1,50.1v2.3c0,0,0,0,0,0l0,0h-2.3c0,0,0,0,0,0l0,0v-2.3c0,0,0,0,0,0l0,0L98.1,50.1
		C98.1,50,98.1,50,98.1,50.1L98.1,50.1L98.1,50.1z"/>
	<path class="st11" d="M96.2,51.8L96.2,51.8l0,0.7v0.1l0,0.7h0c0,0.4,0.3,0.7,0.7,0.7c0.4,0,0.7-0.3,0.7-0.7h0l0-0.7v-0.1l0-0.7
		c0-0.4-0.3-0.7-0.7-0.7C96.6,51,96.2,51.4,96.2,51.8z"/>
	<rect x="96.2" y="51.9" class="st0" width="1.4" height="1.1"/>
	<rect x="96.2" y="51.9" class="st10" width="1.4" height="1.1"/>
	<rect x="96.2" y="51.9" width="1.4" height="1.1"/>
</g>
<g id="Artwork_3-9">
	<path class="st4" d="M101,52.6v2.3c0,0,0,0,0,0l0,0h-2.3c0,0,0,0,0,0l0,0v-2.3c0,0,0,0,0,0l0,0L101,52.6
		C100.9,52.6,101,52.6,101,52.6z"/>
	<path class="st4" d="M101,50.1v2.3c0,0,0,0,0,0l0,0h-2.3c0,0,0,0,0,0l0,0v-2.3c0,0,0,0,0,0l0,0L101,50.1C100.9,50,101,50,101,50.1
		L101,50.1z"/>
	<path class="st11" d="M99.1,51.8L99.1,51.8l0,0.7v0.1l0,0.7h0c0,0.4,0.3,0.7,0.7,0.7c0.4,0,0.7-0.3,0.7-0.7h0l0-0.7v-0.1l0-0.7
		c0-0.4-0.3-0.7-0.7-0.7C99.4,51,99.1,51.3,99.1,51.8C99.1,51.7,99.1,51.7,99.1,51.8z"/>
	<rect x="99.1" y="51.9" class="st0" width="1.4" height="1.1"/>
	<rect x="99.1" y="51.9" class="st10" width="1.4" height="1.1"/>
	<rect x="99.1" y="51.9" width="1.4" height="1.1"/>
</g>
<g id="Artwork_3-10">
	<path class="st4" d="M117.7,52.6v2.3c0,0,0,0,0,0l0,0h-2.3c0,0,0,0,0,0l0,0v-2.3c0,0,0,0,0,0l0,0L117.7,52.6
		C117.7,52.6,117.7,52.6,117.7,52.6C117.7,52.6,117.7,52.6,117.7,52.6z"/>
	<path class="st4" d="M117.7,50.1v2.3c0,0,0,0,0,0l0,0h-2.3c0,0,0,0,0,0l0,0v-2.3c0,0,0,0,0,0l0,0L117.7,50.1
		C117.7,50,117.7,50,117.7,50.1C117.7,50.1,117.7,50.1,117.7,50.1z"/>
	<path class="st11" d="M115.8,51.8L115.8,51.8l0,0.7v0.1l0,0.7h0c0,0.4,0.3,0.7,0.7,0.7c0.4,0,0.7-0.3,0.7-0.7h0l0-0.7v-0.1l0-0.7
		c0-0.4-0.3-0.7-0.7-0.7C116.1,51,115.8,51.3,115.8,51.8C115.8,51.7,115.8,51.7,115.8,51.8z"/>
	<rect x="115.8" y="51.9" class="st0" width="1.4" height="1.1"/>
	<rect x="115.8" y="51.9" class="st10" width="1.4" height="1.1"/>
	<rect x="115.8" y="51.9" width="1.4" height="1.1"/>
</g>
<g id="Artwork_3-11">
	<path class="st4" d="M112.6,54.4v2.3c0,0,0,0,0,0l0,0h-2.3c0,0,0,0,0,0l0,0v-2.3c0,0,0,0,0,0l0,0L112.6,54.4
		C112.6,54.4,112.6,54.4,112.6,54.4z"/>
	<path class="st4" d="M110.1,54.4v2.3c0,0,0,0,0,0l0,0h-2.3c0,0,0,0,0,0l0,0v-2.3c0,0,0,0,0,0l0,0L110.1,54.4
		C110,54.4,110.1,54.4,110.1,54.4L110.1,54.4z"/>
	<path class="st11" d="M109.5,56.3L109.5,56.3l0.7,0h0.1l0.7,0v0c0.4,0,0.7-0.3,0.7-0.7c0-0.4-0.3-0.7-0.7-0.7v0l-0.7,0h-0.1l-0.7,0
		c-0.4,0-0.7,0.3-0.7,0.7C108.8,56,109.1,56.3,109.5,56.3L109.5,56.3L109.5,56.3z"/>
	<rect x="109.6" y="54.9" class="st0" width="1.1" height="1.4"/>
	<rect x="109.6" y="54.9" class="st10" width="1.1" height="1.4"/>
	<rect x="109.6" y="54.9" width="1.1" height="1.4"/>
</g>
<g id="Artwork_3-12">
	<path class="st4" d="M106.6,54.4v2.3c0,0,0,0,0,0l0,0h-2.3c0,0,0,0,0,0l0,0v-2.3c0,0,0,0,0,0l0,0L106.6,54.4
		C106.6,54.4,106.6,54.4,106.6,54.4z"/>
	<path class="st4" d="M104,54.4v2.3c0,0,0,0,0,0l0,0h-2.3c0,0,0,0,0,0l0,0v-2.3c0,0,0,0,0,0l0,0L104,54.4
		C104,54.4,104,54.4,104,54.4L104,54.4z"/>
	<path class="st11" d="M103.5,56.3L103.5,56.3l0.7,0h0.1l0.7,0v0c0.4,0,0.7-0.3,0.7-0.7c0-0.4-0.3-0.7-0.7-0.7v0l-0.7,0h-0.1l-0.7,0
		c-0.4,0-0.7,0.3-0.7,0.7C102.7,56,103.1,56.3,103.5,56.3L103.5,56.3L103.5,56.3z"/>
	<rect x="103.6" y="54.9" class="st0" width="1.1" height="1.4"/>
	<rect x="103.6" y="54.9" class="st10" width="1.1" height="1.4"/>
	<rect x="103.6" y="54.9" width="1.1" height="1.4"/>
</g>
<g id="Artwork_3-13">
	<path class="st4" d="M112.6,57.3v2.3c0,0,0,0,0,0l0,0h-2.3c0,0,0,0,0,0l0,0v-2.3c0,0,0,0,0,0l0,0L112.6,57.3
		C112.6,57.2,112.6,57.3,112.6,57.3C112.6,57.3,112.6,57.3,112.6,57.3z"/>
	<path class="st4" d="M110.1,57.3v2.3c0,0,0,0,0,0l0,0h-2.3c0,0,0,0,0,0l0,0v-2.3c0,0,0,0,0,0l0,0L110.1,57.3
		C110,57.2,110.1,57.3,110.1,57.3L110.1,57.3z"/>
	<path class="st11" d="M109.5,59.1L109.5,59.1l0.7,0h0.1l0.7,0v0c0.4,0,0.7-0.3,0.7-0.7c0-0.4-0.3-0.7-0.7-0.7v0l-0.7,0h-0.1l-0.7,0
		c-0.4,0-0.7,0.3-0.7,0.7C108.8,58.8,109.1,59.1,109.5,59.1C109.5,59.1,109.5,59.1,109.5,59.1z"/>
	<rect x="109.6" y="57.7" class="st0" width="1.1" height="1.4"/>
	<rect x="109.6" y="57.7" class="st10" width="1.1" height="1.4"/>
	<rect x="109.6" y="57.7" width="1.1" height="1.4"/>
</g>
<g id="Artwork_3-14">
	<path class="st4" d="M106.6,57.3v2.3c0,0,0,0,0,0l0,0h-2.3c0,0,0,0,0,0l0,0v-2.3c0,0,0,0,0,0l0,0L106.6,57.3
		C106.6,57.2,106.6,57.3,106.6,57.3L106.6,57.3L106.6,57.3z"/>
	<path class="st4" d="M104,57.3v2.3c0,0,0,0,0,0l0,0h-2.3c0,0,0,0,0,0l0,0v-2.3c0,0,0,0,0,0l0,0L104,57.3
		C104,57.2,104,57.3,104,57.3L104,57.3z"/>
	<path class="st11" d="M103.5,59.1L103.5,59.1l0.7,0h0.1l0.7,0v0c0.4,0,0.7-0.3,0.7-0.7c0-0.4-0.3-0.7-0.7-0.7v0l-0.7,0h-0.1l-0.7,0
		c-0.4,0-0.7,0.3-0.7,0.7C102.7,58.8,103.1,59.1,103.5,59.1C103.5,59.1,103.5,59.1,103.5,59.1z"/>
	<rect x="103.6" y="57.7" class="st0" width="1.1" height="1.4"/>
	<rect x="103.6" y="57.7" class="st10" width="1.1" height="1.4"/>
	<rect x="103.6" y="57.7" width="1.1" height="1.4"/>
</g>
<g id="Artwork_3-15">
	<path class="st4" d="M105.9,46.8v2.3c0,0,0,0,0,0l0,0h-2.3c0,0,0,0,0,0l0,0v-2.3c0,0,0,0,0,0l0,0L105.9,46.8
		C105.9,46.8,105.9,46.8,105.9,46.8C105.9,46.8,105.9,46.8,105.9,46.8z"/>
	<path class="st4" d="M103.3,46.8v2.3c0,0,0,0,0,0l0,0H101c0,0,0,0,0,0l0,0v-2.3c0,0,0,0,0,0l0,0L103.3,46.8
		C103.3,46.8,103.3,46.8,103.3,46.8L103.3,46.8z"/>
	<path class="st11" d="M102.7,48.7L102.7,48.7l0.7,0h0.1l0.7,0v0c0.4,0,0.7-0.3,0.7-0.7c0-0.4-0.3-0.7-0.7-0.7v0l-0.7,0h-0.1l-0.7,0
		c-0.4,0-0.7,0.3-0.7,0.7C102,48.4,102.3,48.7,102.7,48.7C102.7,48.7,102.7,48.7,102.7,48.7z"/>
	<rect x="102.9" y="47.2" class="st0" width="1.1" height="1.4"/>
	<rect x="102.9" y="47.2" class="st10" width="1.1" height="1.4"/>
	<rect x="102.9" y="47.2" width="1.1" height="1.4"/>
</g>
<g id="Artwork_3-16">
	<path class="st11" d="M130,58.9L130,58.9l1.2,0h0.1l1.2,0v0c0.7,0,1.2-0.6,1.2-1.2c0-0.6-0.5-1.1-1.2-1.2v0l-1.2,0h-0.1l-1.2,0
		c-0.7,0-1.2,0.5-1.2,1.2C128.8,58.3,129.4,58.9,130,58.9C130,58.9,130,58.9,130,58.9L130,58.9z"/>
	<rect x="130.3" y="56.5" class="st0" width="1.8" height="2.4"/>
	<rect x="130.3" y="56.5" class="st10" width="1.8" height="2.4"/>
	<rect x="130.3" y="56.5" width="1.8" height="2.4"/>
</g>
<g id="Artwork_3-17">
	<path class="st4" d="M135.7,64.5v2.3c0,0,0,0,0,0l0,0h-2.3c0,0,0,0,0,0l0,0v-2.3c0,0,0,0,0,0l0,0L135.7,64.5
		C135.6,64.5,135.7,64.5,135.7,64.5z"/>
	<path class="st4" d="M135.7,61.9v2.3c0,0,0,0,0,0l0,0h-2.3c0,0,0,0,0,0l0,0v-2.3c0,0,0,0,0,0L135.7,61.9
		C135.6,61.9,135.7,61.9,135.7,61.9z"/>
	<path class="st11" d="M133.8,63.6L133.8,63.6l0,0.7v0.1l0,0.7h0c0,0.4,0.3,0.7,0.7,0.7c0.4,0,0.7-0.3,0.7-0.7h0l0-0.7v-0.1l0-0.7
		c0-0.4-0.3-0.7-0.7-0.7S133.8,63.2,133.8,63.6L133.8,63.6z"/>
	<rect x="133.8" y="63.8" class="st0" width="1.4" height="1.1"/>
	<rect x="133.8" y="63.8" class="st10" width="1.4" height="1.1"/>
	<rect x="133.8" y="63.8" width="1.4" height="1.1"/>
</g>
<g id="Artwork_3-18">
	<path class="st4" d="M149.4,64.5v2.3c0,0,0,0,0,0l0,0h-2.3c0,0,0,0,0,0l0,0v-2.3c0,0,0,0,0,0l0,0L149.4,64.5
		C149.4,64.5,149.4,64.5,149.4,64.5C149.4,64.5,149.4,64.5,149.4,64.5z"/>
	<path class="st4" d="M149.4,61.9v2.3c0,0,0,0,0,0l0,0h-2.3c0,0,0,0,0,0l0,0v-2.3c0,0,0,0,0,0L149.4,61.9
		C149.4,61.9,149.4,61.9,149.4,61.9z"/>
	<path class="st11" d="M147.5,63.6L147.5,63.6l0,0.7v0.1l0,0.7h0c0,0.4,0.3,0.7,0.7,0.7c0.4,0,0.7-0.3,0.7-0.7h0l0-0.7v-0.1l0-0.7
		c0-0.4-0.3-0.7-0.7-0.7C147.9,62.9,147.6,63.2,147.5,63.6C147.5,63.6,147.5,63.6,147.5,63.6L147.5,63.6z"/>
	<rect x="147.5" y="63.8" class="st0" width="1.4" height="1.1"/>
	<rect x="147.5" y="63.8" class="st10" width="1.4" height="1.1"/>
	<rect x="147.5" y="63.8" width="1.4" height="1.1"/>
</g>
<g id="Artwork_3-19">
	<path class="st4" d="M159.6,50.4v2.3c0,0,0,0,0,0l0,0h-2.3c0,0,0,0,0,0v-2.3c0,0,0,0,0,0L159.6,50.4
		C159.6,50.4,159.6,50.4,159.6,50.4z"/>
	<path class="st4" d="M159.6,47.9v2.3c0,0,0,0,0,0h-2.3c0,0,0,0,0,0v-2.3c0,0,0,0,0,0L159.6,47.9C159.6,47.9,159.6,47.9,159.6,47.9z
		"/>
	<path class="st11" d="M157.7,49.6L157.7,49.6l0,0.7v0.1l0,0.7h0c0,0.4,0.3,0.7,0.7,0.7c0.4,0,0.7-0.3,0.7-0.7h0l0-0.7v-0.1l0-0.7
		c0-0.4-0.3-0.7-0.7-0.7S157.7,49.2,157.7,49.6L157.7,49.6z"/>
	<rect x="157.7" y="49.8" class="st0" width="1.4" height="1.1"/>
	<rect x="157.7" y="49.8" class="st10" width="1.4" height="1.1"/>
	<rect x="157.7" y="49.8" width="1.4" height="1.1"/>
</g>
<g id="Artwork_3-20">
	<path class="st4" d="M172.4,28.5v2.3c0,0,0,0,0,0l0,0h-2.3c0,0,0,0,0,0l0,0v-2.3c0,0,0,0,0,0l0,0L172.4,28.5
		C172.4,28.4,172.4,28.5,172.4,28.5z"/>
	<path class="st4" d="M172.4,25.9v2.3c0,0,0,0,0,0l0,0h-2.3c0,0,0,0,0,0l0,0v-2.3c0,0,0,0,0,0l0,0L172.4,25.9
		C172.4,25.9,172.4,25.9,172.4,25.9C172.4,25.9,172.4,25.9,172.4,25.9z"/>
	<path class="st11" d="M170.5,27.6L170.5,27.6l0,0.7v0.1l0,0.7h0c0,0.4,0.3,0.7,0.7,0.7c0.4,0,0.7-0.3,0.7-0.7h0l0-0.7v-0.1l0-0.7
		c0-0.4-0.3-0.7-0.7-0.7C170.8,26.9,170.5,27.2,170.5,27.6z"/>
	<rect x="170.5" y="27.8" class="st0" width="1.4" height="1.1"/>
	<rect x="170.5" y="27.8" class="st10" width="1.4" height="1.1"/>
	<rect x="170.5" y="27.8" width="1.4" height="1.1"/>
</g>
<g id="Artwork_3-21">
	<path class="st4" d="M165.2,32.1v2.3c0,0,0,0,0,0h-2.3c0,0,0,0,0,0v-2.3c0,0,0,0,0,0L165.2,32.1C165.2,32,165.2,32,165.2,32.1
		L165.2,32.1L165.2,32.1z"/>
	<path class="st4" d="M162.6,32.1v2.3c0,0,0,0,0,0h-2.3c0,0,0,0,0,0v-2.3c0,0,0,0,0,0L162.6,32.1C162.6,32,162.6,32,162.6,32.1z"/>
	<path class="st11" d="M162.1,33.9L162.1,33.9l0.7,0h0.1l0.7,0v0c0.4,0,0.7-0.3,0.7-0.7c0-0.4-0.3-0.7-0.7-0.7v0l-0.7,0h-0.1l-0.7,0
		c-0.4,0-0.7,0.3-0.7,0.7C161.3,33.6,161.7,33.9,162.1,33.9L162.1,33.9L162.1,33.9z"/>
	<rect x="162.2" y="32.5" class="st0" width="1.1" height="1.4"/>
	<rect x="162.2" y="32.5" class="st10" width="1.1" height="1.4"/>
	<rect x="162.2" y="32.5" width="1.1" height="1.4"/>
</g>
<g id="Artwork_3-22">
	<path class="st4" d="M177.1,45.3v2.3c0,0,0,0,0,0l0,0h-2.3c0,0,0,0,0,0v-2.3c0,0,0,0,0,0L177.1,45.3
		C177,45.3,177.1,45.3,177.1,45.3L177.1,45.3L177.1,45.3z"/>
	<path class="st4" d="M174.5,45.3v2.3c0,0,0,0,0,0h-2.3c0,0,0,0,0,0v-2.3c0,0,0,0,0,0L174.5,45.3C174.5,45.3,174.5,45.3,174.5,45.3z
		"/>
	<path class="st11" d="M173.9,47.1L173.9,47.1l0.7,0h0.1l0.7,0v0c0.4,0,0.7-0.3,0.7-0.7c0-0.4-0.3-0.7-0.7-0.7v0l-0.7,0h-0.1l-0.7,0
		c-0.4,0-0.7,0.3-0.7,0.7C173.2,46.8,173.5,47.1,173.9,47.1L173.9,47.1z"/>
	<rect x="174.1" y="45.7" class="st0" width="1.1" height="1.4"/>
	<rect x="174.1" y="45.7" class="st10" width="1.1" height="1.4"/>
	<rect x="174.1" y="45.7" width="1.1" height="1.4"/>
</g>
<g id="Artwork_3-23">
	<path class="st4" d="M180.4,56.3v2.3c0,0,0,0,0,0l0,0h-2.3c0,0,0,0,0,0v-2.3c0,0,0,0,0,0L180.4,56.3
		C180.3,56.3,180.4,56.3,180.4,56.3z"/>
	<path class="st4" d="M177.8,56.3v2.3c0,0,0,0,0,0h-2.3c0,0,0,0,0,0v-2.3c0,0,0,0,0,0L177.8,56.3C177.8,56.3,177.8,56.3,177.8,56.3z
		"/>
	<path class="st11" d="M177.2,58.1L177.2,58.1l0.7,0h0.1l0.7,0v0c0.4,0,0.7-0.3,0.7-0.7c0-0.4-0.3-0.7-0.7-0.7v0l-0.7,0h-0.1l-0.7,0
		c-0.4,0-0.7,0.3-0.7,0.7C176.5,57.8,176.8,58.1,177.2,58.1C177.2,58.1,177.2,58.1,177.2,58.1z"/>
	<rect x="177.4" y="56.7" class="st0" width="1.1" height="1.4"/>
	<rect x="177.4" y="56.7" class="st10" width="1.1" height="1.4"/>
	<rect x="177.4" y="56.7" width="1.1" height="1.4"/>
</g>
<g id="Artwork_3-24">
	<path class="st4" d="M183.8,20.7v2.3c0,0,0,0,0,0l0,0h-2.3c0,0,0,0,0,0l0,0v-2.3c0,0,0,0,0,0l0,0L183.8,20.7
		C183.8,20.7,183.8,20.7,183.8,20.7C183.8,20.7,183.8,20.7,183.8,20.7z"/>
	<path class="st4" d="M181.3,20.7v2.3c0,0,0,0,0,0l0,0H179c0,0,0,0,0,0l0,0v-2.3c0,0,0,0,0,0l0,0L181.3,20.7
		C181.3,20.7,181.3,20.7,181.3,20.7L181.3,20.7z"/>
	<path class="st11" d="M180.7,22.5L180.7,22.5l0.7,0h0.1l0.7,0v0c0.4,0,0.7-0.3,0.7-0.7c0-0.4-0.3-0.7-0.7-0.7v0l-0.7,0h-0.1l-0.7,0
		c-0.4,0-0.7,0.3-0.7,0.7S180.3,22.5,180.7,22.5C180.7,22.5,180.7,22.5,180.7,22.5z"/>
	<rect x="180.9" y="21.1" class="st0" width="1.1" height="1.4"/>
	<rect x="180.9" y="21.1" class="st10" width="1.1" height="1.4"/>
	<rect x="180.9" y="21.1" width="1.1" height="1.4"/>
</g>
<g id="Artwork_3-25">
	<path class="st4" d="M177.2,23.2v2.3c0,0,0,0,0,0l0,0h-2.3c0,0,0,0,0,0l0,0v-2.3c0,0,0,0,0,0l0,0L177.2,23.2
		C177.2,23.1,177.2,23.1,177.2,23.2C177.2,23.2,177.2,23.2,177.2,23.2z"/>
	<path class="st4" d="M177.2,20.6v2.3c0,0,0,0,0,0l0,0h-2.3c0,0,0,0,0,0l0,0v-2.3c0,0,0,0,0,0l0,0L177.2,20.6
		C177.2,20.6,177.2,20.6,177.2,20.6L177.2,20.6z"/>
	<path class="st11" d="M175.3,22.3L175.3,22.3l0,0.7v0.1l0,0.7h0c0,0.4,0.3,0.7,0.7,0.7c0.4,0,0.7-0.3,0.7-0.7h0l0-0.7V23l0-0.7
		c0-0.4-0.3-0.7-0.7-0.7C175.7,21.6,175.3,21.9,175.3,22.3C175.3,22.3,175.3,22.3,175.3,22.3z"/>
	<rect x="175.3" y="22.5" class="st0" width="1.4" height="1.1"/>
	<rect x="175.3" y="22.5" class="st10" width="1.4" height="1.1"/>
	<rect x="175.3" y="22.5" width="1.4" height="1.1"/>
</g>
<g id="Artwork_3-26">
	<path class="st4" d="M162,19.8v2.3c0,0,0,0,0,0h-2.3c0,0,0,0,0,0v-2.3c0,0,0,0,0,0L162,19.8C162,19.8,162,19.8,162,19.8L162,19.8
		L162,19.8z"/>
	<path class="st4" d="M162,17.3v2.3c0,0,0,0,0,0h-2.3c0,0,0,0,0,0v-2.3c0,0,0,0,0,0L162,17.3C162,17.2,162,17.2,162,17.3
		C162,17.3,162,17.3,162,17.3z"/>
	<path class="st11" d="M160.2,19L160.2,19l0,0.7v0.1l0,0.7h0c0,0.4,0.3,0.7,0.7,0.7c0.4,0,0.7-0.3,0.7-0.7h0l0-0.7v-0.1l0-0.7
		c0-0.4-0.3-0.7-0.7-0.7S160.2,18.6,160.2,19L160.2,19z"/>
	<rect x="160.2" y="19.1" class="st0" width="1.4" height="1.1"/>
	<rect x="160.2" y="19.1" class="st10" width="1.4" height="1.1"/>
	<rect x="160.2" y="19.1" width="1.4" height="1.1"/>
</g>
<g id="Artwork_3-27">
	<path class="st4" d="M178.4,5.1v2.3c0,0,0,0,0,0l0,0h-2.3c0,0,0,0,0,0c0,0,0,0,0,0V5.1c0,0,0,0,0,0l0,0L178.4,5.1
		C178.4,5.1,178.4,5.1,178.4,5.1C178.4,5.1,178.4,5.1,178.4,5.1z"/>
	<path class="st4" d="M178.4,7.6v2.3c0,0,0,0,0,0l0,0h-2.3c0,0,0,0,0,0l0,0V7.6c0,0,0,0,0,0l0,0L178.4,7.6
		C178.4,7.6,178.4,7.6,178.4,7.6C178.4,7.6,178.4,7.6,178.4,7.6L178.4,7.6z"/>
	<path class="st11" d="M177.9,8.2L177.9,8.2l0-0.7V7.4l0-0.7h0c0-0.4-0.3-0.7-0.7-0.7c-0.4,0-0.7,0.3-0.7,0.7h0l0,0.7v0.1l0,0.7
		c0,0.4,0.3,0.7,0.7,0.7S177.9,8.6,177.9,8.2C177.9,8.2,177.9,8.2,177.9,8.2z"/>
	<rect x="176.5" y="7" class="st0" width="1.4" height="1.1"/>
	<rect x="176.5" y="7" class="st10" width="1.4" height="1.1"/>
	<rect x="176.5" y="7" width="1.4" height="1.1"/>
</g>
<g id="Artwork_3-28">
	<path class="st4" d="M174.5,1.2v2.3c0,0,0,0,0,0l0,0h-2.3c0,0,0,0,0,0v0V1.2c0,0,0,0,0,0l0,0L174.5,1.2
		C174.5,1.1,174.5,1.1,174.5,1.2C174.5,1.2,174.5,1.2,174.5,1.2L174.5,1.2z"/>
	<path class="st4" d="M171.9,1.2v2.3c0,0,0,0,0,0l0,0h-2.3c0,0,0,0,0,0v0V1.2c0,0,0,0,0,0l0,0L171.9,1.2
		C171.9,1.1,171.9,1.1,171.9,1.2C171.9,1.2,171.9,1.2,171.9,1.2z"/>
	<path class="st11" d="M171.3,3L171.3,3l0.7,0h0.1l0.7,0v0c0.4,0,0.7-0.3,0.7-0.7c0-0.4-0.3-0.7-0.7-0.7v0l-0.7,0H172l-0.7,0
		c-0.4,0-0.7,0.3-0.7,0.7S170.9,3,171.3,3C171.3,3,171.3,3,171.3,3L171.3,3z"/>
	<rect x="171.5" y="1.6" class="st0" width="1.1" height="1.4"/>
	<rect x="171.5" y="1.6" class="st10" width="1.1" height="1.4"/>
	<rect x="171.5" y="1.6" width="1.1" height="1.4"/>
</g>
<g id="Artwork_3-29">
	<path class="st4" d="M168.7,1.2v2.3c0,0,0,0,0,0l0,0h-2.3c0,0,0,0,0,0v0V1.2c0,0,0,0,0,0l0,0L168.7,1.2
		C168.7,1.1,168.7,1.1,168.7,1.2C168.7,1.2,168.7,1.2,168.7,1.2L168.7,1.2z"/>
	<path class="st4" d="M166.2,1.2v2.3c0,0,0,0,0,0l0,0h-2.3c0,0,0,0,0,0v0V1.2c0,0,0,0,0,0l0,0L166.2,1.2
		C166.2,1.1,166.2,1.1,166.2,1.2z"/>
	<path class="st11" d="M165.6,3L165.6,3l0.7,0h0.1l0.7,0v0c0.4,0,0.7-0.3,0.7-0.7c0-0.4-0.3-0.7-0.7-0.7v0l-0.7,0h-0.1l-0.7,0
		c-0.4,0-0.7,0.3-0.7,0.7S165.2,3,165.6,3C165.6,3,165.6,3,165.6,3L165.6,3z"/>
	<rect x="165.8" y="1.6" class="st0" width="1.1" height="1.4"/>
	<rect x="165.8" y="1.6" class="st10" width="1.1" height="1.4"/>
	<rect x="165.8" y="1.6" width="1.1" height="1.4"/>
</g>
<g id="Artwork_3-30">
	<path class="st4" d="M19.7,39.9v2.3c0,0,0,0,0,0l0,0h-2.3c0,0,0,0,0,0l0,0v-2.3c0,0,0,0,0,0L19.7,39.9
		C19.7,39.8,19.7,39.9,19.7,39.9C19.7,39.9,19.7,39.9,19.7,39.9z"/>
	<path class="st4" d="M19.7,37.3v2.3c0,0,0,0,0,0l0,0h-2.3c0,0,0,0,0,0l0,0v-2.3c0,0,0,0,0,0L19.7,37.3
		C19.7,37.3,19.7,37.3,19.7,37.3C19.7,37.3,19.7,37.3,19.7,37.3z"/>
	<path class="st11" d="M17.9,39L17.9,39l0,0.7v0.1l0,0.7h0c0,0.4,0.3,0.7,0.7,0.7c0.4,0,0.7-0.3,0.7-0.7h0l0-0.7v-0.1l0-0.7
		c0-0.4-0.3-0.7-0.7-0.7C18.2,38.3,17.9,38.6,17.9,39L17.9,39z"/>
	<rect x="17.9" y="39.2" class="st0" width="1.4" height="1.1"/>
	<rect x="17.9" y="39.2" class="st10" width="1.4" height="1.1"/>
	<rect x="17.9" y="39.2" width="1.4" height="1.1"/>
</g>
<g id="Artwork_3-31">
	<path class="st4" d="M19.7,34.3v2.3c0,0,0,0,0,0l0,0h-2.3c0,0,0,0,0,0l0,0v-2.3c0,0,0,0,0,0L19.7,34.3
		C19.7,34.3,19.7,34.3,19.7,34.3L19.7,34.3z"/>
	<path class="st4" d="M19.7,31.8V34c0,0,0,0,0,0l0,0h-2.3c0,0,0,0,0,0l0,0v-2.3c0,0,0,0,0,0L19.7,31.8
		C19.7,31.7,19.7,31.7,19.7,31.8C19.7,31.8,19.7,31.8,19.7,31.8z"/>
	<path class="st11" d="M17.9,33.5L17.9,33.5l0,0.7v0.1l0,0.7h0c0,0.4,0.3,0.7,0.7,0.7c0.4,0,0.7-0.3,0.7-0.7h0l0-0.7v-0.1l0-0.7
		c0-0.4-0.3-0.7-0.7-0.7C18.2,32.8,17.9,33.1,17.9,33.5L17.9,33.5z"/>
	<rect x="17.9" y="33.6" class="st0" width="1.4" height="1.1"/>
	<rect x="17.9" y="33.6" class="st10" width="1.4" height="1.1"/>
	<rect x="17.9" y="33.6" width="1.4" height="1.1"/>
</g>
<g id="Artwork_3-32">
	<path class="st4" d="M16.6,34.3v2.3c0,0,0,0,0,0l0,0h-2.3c0,0,0,0,0,0l0,0v-2.3c0,0,0,0,0,0L16.6,34.3
		C16.5,34.3,16.6,34.3,16.6,34.3C16.6,34.3,16.6,34.3,16.6,34.3z"/>
	<path class="st4" d="M14,34.3v2.3c0,0,0,0,0,0h-2.3c0,0,0,0,0,0l0,0v-2.3c0,0,0,0,0,0L14,34.3C14,34.3,14,34.3,14,34.3z"/>
	<path class="st11" d="M13.4,36.2L13.4,36.2l0.7,0h0.1l0.7,0v0c0.4,0,0.7-0.3,0.7-0.7c0-0.4-0.3-0.7-0.7-0.7v0l-0.7,0h-0.1l-0.7,0
		c-0.4,0-0.7,0.3-0.7,0.7C12.7,35.8,13,36.2,13.4,36.2L13.4,36.2z"/>
	<rect x="13.6" y="34.7" class="st0" width="1.1" height="1.4"/>
	<rect x="13.6" y="34.7" class="st10" width="1.1" height="1.4"/>
	<rect x="13.6" y="34.7" width="1.1" height="1.4"/>
</g>
<g id="Disegno_15">
	<rect x="4.8" y="39.1" class="st3" width="11.3" height="10.8"/>
	<path class="st4" d="M10.5,39.8c2.6,0,4.7,2.1,4.7,4.7s-2.1,4.7-4.7,4.7c-2.6,0-4.7-2.1-4.7-4.7C5.8,41.9,7.9,39.9,10.5,39.8z
		 M10.5,48.8c2.4,0,4.3-1.9,4.3-4.3s-1.9-4.3-4.3-4.3c-2.4,0-4.3,1.9-4.3,4.3C6.2,46.9,8.1,48.8,10.5,48.8L10.5,48.8z"/>
	<path class="st4" d="M10.5,43.4c0.6,0,1.1,0.5,1.1,1.1c0,0.6-0.5,1.1-1.1,1.1c-0.6,0-1.1-0.5-1.1-1.1C9.4,43.9,9.9,43.4,10.5,43.4z
		"/>
</g>
<g id="Disegno_4">
	<rect x="131.6" y="45.1" class="st4" width="3.4" height="3.4"/>
	<rect x="131.6" y="51.3" class="st4" width="3.4" height="3.4"/>
	<rect x="131.6" y="48.5" class="st0" width="3.4" height="2.8"/>
	<rect x="131.6" y="48.5" class="st10" width="3.4" height="2.8"/>
	<rect x="131.6" y="48.5" width="3.4" height="2.8"/>
	<polygon class="st5" points="134.9,47.4 133.2,45.7 131.6,47.4 131.6,47.4 131.6,48.5 134.9,48.5 	"/>
	<polygon class="st5" points="131.6,52.4 133.2,54 134.9,52.4 134.9,52.4 134.9,51.3 131.6,51.3 	"/>
</g>
<g id="Disegno_4-2">
	<rect x="136.7" y="45.1" class="st4" width="3.4" height="3.4"/>
	<rect x="136.7" y="51.3" class="st4" width="3.4" height="3.4"/>
	<rect x="136.7" y="48.5" class="st0" width="3.4" height="2.8"/>
	<rect x="136.7" y="48.5" class="st10" width="3.4" height="2.8"/>
	<rect x="136.7" y="48.5" width="3.4" height="2.8"/>
	<polygon class="st5" points="140,47.4 138.4,45.7 136.7,47.4 136.7,47.4 136.7,48.5 140,48.5 	"/>
	<polygon class="st5" points="136.7,52.4 138.4,54 140,52.4 140,52.4 140,51.3 136.7,51.3 	"/>
</g>
<g id="Disegno_4-3">
	<rect x="97" y="25.2" class="st4" width="3.4" height="3.4"/>
	<rect x="97" y="31.4" class="st4" width="3.4" height="3.4"/>
	<rect x="97" y="28.6" class="st0" width="3.4" height="2.8"/>
	<rect x="97" y="28.6" class="st10" width="3.4" height="2.8"/>
	<rect x="97" y="28.6" width="3.4" height="2.8"/>
	<polygon class="st5" points="100.3,27.5 98.7,25.8 97,27.5 97,27.5 97,28.6 100.3,28.6 	"/>
	<polygon class="st5" points="97,32.5 98.7,34.2 100.3,32.5 100.3,32.5 100.3,31.4 97,31.4 	"/>
</g>
<g id="Disegno_4-4">
	<rect x="155.5" y="39.3" class="st4" width="3.4" height="3.4"/>
	<rect x="161.7" y="39.3" class="st4" width="3.4" height="3.4"/>
	<rect x="158.9" y="39.3" class="st0" width="2.8" height="3.4"/>
	<rect x="158.9" y="39.3" class="st10" width="2.8" height="3.4"/>
	<rect x="158.9" y="39.3" width="2.8" height="3.4"/>
	<polygon class="st5" points="157.8,39.3 156.1,41 157.8,42.7 157.8,42.7 158.9,42.7 158.9,39.3 	"/>
	<polygon class="st5" points="162.8,42.7 164.5,41 162.8,39.3 162.8,39.4 161.7,39.4 161.7,42.7 	"/>
</g>
<g id="Disegno_4-5">
	<rect x="160.3" y="44.2" class="st4" width="3.4" height="3.4"/>
	<rect x="166.5" y="44.2" class="st4" width="3.4" height="3.4"/>
	<rect x="163.6" y="44.2" class="st0" width="2.8" height="3.4"/>
	<rect x="163.6" y="44.2" class="st10" width="2.8" height="3.4"/>
	<rect x="163.6" y="44.2" width="2.8" height="3.4"/>
	<polygon class="st5" points="162.6,44.2 160.9,45.9 162.6,47.6 162.6,47.6 163.6,47.6 163.6,44.2 	"/>
	<polygon class="st5" points="167.5,47.6 169.2,45.9 167.5,44.2 167.5,44.2 166.5,44.2 166.5,47.6 	"/>
</g>
<g id="Disegno_4-6">
	<rect x="13.9" y="13.4" class="st4" width="4.4" height="4.4"/>
	<rect x="13.9" y="21.6" class="st4" width="4.4" height="4.4"/>
	<rect x="13.9" y="17.8" class="st0" width="4.4" height="3.7"/>
	<rect x="13.9" y="17.8" class="st10" width="4.4" height="3.7"/>
	<rect x="13.9" y="17.8" width="4.4" height="3.7"/>
	<polygon class="st5" points="18.4,16.4 16.2,14.2 13.9,16.4 14,16.4 14,17.8 18.4,17.8 	"/>
	<polygon class="st5" points="13.9,23 16.2,25.2 18.4,23 18.4,23 18.4,21.6 13.9,21.6 	"/>
</g>
<g id="Disegno_4-7">
	<rect x="7.7" y="13.4" class="st4" width="4.4" height="4.4"/>
	<rect x="7.7" y="21.6" class="st4" width="4.4" height="4.4"/>
	<rect x="7.7" y="17.8" class="st0" width="4.4" height="3.7"/>
	<rect x="7.7" y="17.8" class="st10" width="4.4" height="3.7"/>
	<rect x="7.7" y="17.8" width="4.4" height="3.7"/>
	<polygon class="st5" points="12.1,16.4 9.9,14.2 7.7,16.4 7.7,16.4 7.7,17.8 12.1,17.8 	"/>
	<polygon class="st5" points="7.7,23 9.9,25.2 12.1,23 12.1,23 12.1,21.6 7.7,21.6 	"/>
</g>
<g id="Disegno_4-8">
	<rect x="1.5" y="13.4" class="st4" width="4.4" height="4.4"/>
	<rect x="1.5" y="21.6" class="st4" width="4.4" height="4.4"/>
	<rect x="1.5" y="17.8" class="st0" width="4.4" height="3.7"/>
	<rect x="1.5" y="17.8" class="st10" width="4.4" height="3.7"/>
	<rect x="1.5" y="17.8" width="4.4" height="3.7"/>
	<polygon class="st5" points="5.9,16.4 3.7,14.2 1.5,16.4 1.5,16.4 1.5,17.8 5.9,17.8 	"/>
	<polygon class="st5" points="1.5,23 3.7,25.2 5.9,23 5.9,23 5.9,21.6 1.5,21.6 	"/>
</g>
</svg>
