<svg xmlns="http://www.w3.org/2000/svg" xmlns:xlink="http://www.w3.org/1999/xlink" xml:space="preserve" id="Layer_1" x="0" y="0" viewBox="0 0 195.7 70.9"><style>.st0{fill:#017481}.st1,.st2{fill:none;stroke:#000;stroke-width:7.330000e-03;stroke-linecap:round;stroke-linejoin:round}.st2{stroke:#afd3d8;stroke-width:.3712}.st3{fill:#80b9c0}.st4{fill:#8b8f90}.st5{fill:#8a7867}.st6{fill:#9da0a1}.st8{fill:#929596}.st10{fill:#e5540f}.st11{fill:#c2c5c6}.st12{fill:#fff}.st13{opacity:.1}.st18{fill:#181e22}.st22{fill:#a19284}</style><path d="M6 70.9h179.3c3.5 0 6.4-2.9 6.4-6.4V6.4c0-3.5-2.9-6.4-6.4-6.4H6C2.6.1-.1 3 0 6.4v58.1c-.1 3.4 2.6 6.3 6 6.4M185.3 3c1.9 0 3.4 1.5 3.4 3.4s-1.5 3.4-3.4 3.4-3.4-1.5-3.4-3.4c-.1-1.9 1.5-3.4 3.4-3.4m0 58.1c1.9 0 3.4 1.5 3.4 3.4s-1.5 3.4-3.4 3.4-3.4-1.5-3.4-3.4c-.1-1.9 1.5-3.4 3.4-3.4M23.7 3c1.9 0 3.4 1.5 3.4 3.4s-1.5 3.4-3.4 3.4-3.4-1.5-3.4-3.4S21.8 3 23.7 3m0 58.1c1.9 0 3.4 1.5 3.4 3.4s-1.5 3.4-3.4 3.4-3.4-1.5-3.4-3.4 1.5-3.4 3.4-3.4" class="st0"/><path d="M6 0q0 0 0 0t0 0M191.6 64.5q0 0 0 0t0 0M191.6 6.4q0 0 0 0t0 0M6 70.9q0 0 0 0t0 0 0 0M191.6 6.4q0 0 0 0t0 0M185.3 0s-.1 0 0 0M185.3 70.9c-.1 0 0 0 0 0q0 0 0 0M191.6 64.5q0 0 0 0M0 6.4q0 0 0 0t0 0 0 0M0 6.4" class="st1"/><path d="M21.3 15.6q0 .3.3.3t.3-.3c0-.3-.1-.3-.3-.3q0 0 0 0-.3 0-.3.3M1.4 56.8q0 .3.3.3t.3-.3-.3-.3q0 0 0 0c-.1.1-.3.2-.3.3M5 56.8q0 .3.3.3t.3-.3-.3-.3q0 0 0 0c-.1.1-.3.2-.3.3M8.6 56.8q0 .3.3.3t.3-.3-.3-.3q0 0 0 0c-.1.1-.3.2-.3.3M15.8 56.8q0 .3.3.3t.3-.3-.3-.3q0 0 0 0c-.1.1-.3.2-.3.3M12.2 56.8q0 .3.3.3t.3-.3-.3-.3q0 0 0 0c-.1.1-.3.2-.3.3M19.4 56.8q0 .3.3.3t.3-.3-.3-.3q0 0 0 0c-.1.1-.3.2-.3.3M19.4 53.2q0 .3.3.3t.3-.3-.3-.3q0 0 0 0c-.1.1-.3.2-.3.3M19.4 49.6q0 .3.3.3c.3 0 .3-.1.3-.3q0-.3-.3-.3 0 0 0 0c-.1.1-.3.2-.3.3M19.4 46q0 .3.3.3c.3 0 .3-.1.3-.3s-.1-.3-.3-.3h0c-.1.1-.3.2-.3.3q0 0 0 0M15.8 49.6q0 .3.3.3t.3-.3-.3-.3q0 0 0 0c-.1.1-.3.2-.3.3M15.8 53.2q0 .3.3.3t.3-.3-.3-.3q0 0 0 0c-.1.1-.3.2-.3.3M12.2 53.2q0 .3.3.3t.3-.3-.3-.3q0 0 0 0c-.1.1-.3.2-.3.3M8.6 53.2q0 .3.3.3t.3-.3-.3-.3q0 0 0 0c-.1.1-.3.2-.3.3M5 53.2q0 .3.3.3t.3-.3-.3-.3q0 0 0 0c-.1.1-.3.2-.3.3M1.4 53.2q0 .3.3.3t.3-.3c0-.1-.1-.2-.3-.2q0 0 0 0c-.1 0-.3.1-.3.2M1.4 49.6q0 .3.3.3c.3 0 .3-.1.3-.2q0-.3-.3-.3 0 0 0 0c-.1 0-.3.1-.3.2M5 49.6q0 .3.3.3c.3 0 .3-.1.3-.3q0-.3-.3-.3 0 0 0 0c-.1.1-.3.2-.3.3M1.4 46q0 .3.3.3c.3 0 .3-.1.3-.3s-.1-.3-.3-.3h0c-.1.1-.3.2-.3.3q0 0 0 0M1.4 42.4q0 .3.3.3c.3 0 .3-.1.3-.3q0-.3-.3-.3c-.1.1-.3.2-.3.3q0 0 0 0M1.4 38.8q0 .3.3.3t.3-.3-.3-.3q0 0 0 0c-.1.1-.3.2-.3.3M1.4 35.2q0 .3.3.3t.3-.3c0-.1-.1-.2-.3-.2q0 0 0 0c-.1 0-.3.1-.3.2M1.4 31.6q0 .3.3.3c.3 0 .3-.1.3-.2q0-.3-.3-.3 0 0 0 0c-.1 0-.3.1-.3.2M5 31.6q0 .3.3.3c.3 0 .3-.1.3-.3q0-.3-.3-.3 0 0 0 0c-.1.1-.3.2-.3.3M8.6 31.6q0 .3.3.3c.3 0 .3-.1.3-.3q0-.3-.3-.3 0 0 0 0c-.1.1-.3.2-.3.3M15.8 31.6q0 .3.3.3t.3-.3-.3-.3q0 0 0 0c-.1.1-.3.2-.3.3M12.2 31.6q0 .3.3.3c.3 0 .3-.1.3-.3q0-.3-.3-.3 0 0 0 0c-.1.1-.3.2-.3.3M15.8 28q0 .3.3.3t.3-.3-.3-.3q0 0 0 0c-.1.1-.3.2-.3.3" class="st2"/><circle cx="12.5" cy="28" r=".3" class="st2"/><circle cx="8.9" cy="28" r=".3" class="st2"/><circle cx="5.3" cy="28" r=".3" class="st2"/><path d="M1.4 28q0 .3.3.3T2 28t-.3-.3h0c-.1.1-.3.2-.3.3q0 0 0 0M5 35.2q0 .3.3.3t.3-.3-.3-.3q0 0 0 0c-.1.1-.3.2-.3.3M8.6 35.2q0 .3.3.3t.3-.3-.3-.3q0 0 0 0c-.1.1-.3.2-.3.3M5 38.8q0 .3.3.3t.3-.3-.3-.3q0 0 0 0c-.1.1-.3.2-.3.3M15.8 38.8q0 .3.3.3t.3-.3-.3-.3q0 0 0 0c-.1.1-.3.2-.3.3M135.8 39.7q0 .3.3.3c.3 0 .3-.1.3-.3q0-.3-.3-.3t-.3.3" class="st2"/><path d="M180.4 48.7v4.6h-3.2v-4.6zc-.1-.1 0-.1 0 0M174.7 48.7v4.6h-3.2v-4.6zq0-.15 0 0M153.3 42.7v-3.1h-3.5v3.1zM153.3 30.5v3.1h-3.5v-3.1zM153.8 60.7v-3.5h-3.1v3.5zq0 .15 0 0M144.7 60.7v-3.5h-3.1v3.5zq0 .15 0 0M158.9 26.1v3.2h-3.3v-3.2zq0-.15 0 0M158.9 30.6v3.2h-3.3v-3.2zM126.4 9.6q0-.15 0 0M131.4 9.6s0-.1 0 0q0-.15 0 0" class="st3"/><path d="M106.1 20v3.6s0 .1-.1.1h-5.9s-.1 0-.1-.1V20s0-.1.1-.1zM106.1 12.9v3.6s0 .1-.1.1h-5.9s-.1 0-.1-.1v-3.6s0-.1.1-.1z" class="st4"/><path d="m101.3 15.4 1.8-2.1v2.1z" class="st3"/><path d="M101 13.4h4.2v9.3H101z" class="st5"/><path d="M101.4 22.1c-.1 0-.3-.2-.3-.4v-7.4c0-.2.1-.4.3-.4h3.4c.1 0 .3.2.3.4v7.4c0 .2-.1.4-.3.4z" class="st4"/><path d="M101 22.2h4.2v.4H101zM101 13.4h4.2v.4H101z" class="st6"/><path d="M174.5 49.2h2.8v3.5h-2.8z" style="fill:#8f7f6e"/><path d="M173.1 49.2h1.5v3.5h-1.5zM177.2 49.2h1.5v3.5h-1.5z" class="st8"/><defs><path id="SVGID_1_" d="M156 27.7h2.3v4.6H156z"/></defs><clipPath id="SVGID_2_"><use xlink:href="#SVGID_1_" style="overflow:visible"/></clipPath><g style="clip-path:url(#SVGID_2_)"><path d="M156 28.8v2.3c0 .6.5 1.1 1.2 1.1.6 0 1.1-.5 1.1-1.1v-2.3c0-.6-.5-1.1-1.1-1.1s-1.2.5-1.2 1.1" class="st4"/><path d="M156 29.2h2.3v1.7H156z"/><path d="M156 29.2h2.3v1.7H156z" class="st0"/><path d="M156 29.2h2.3v1.7H156z" class="st10"/><path d="M156 29.2h2.3v1.7H156z"/></g><path d="M135.3 38.6h2V41h-2zM135.3 29.9h2v2.3h-2zM143.4 38.6h2V41h-2zM143.4 29.9h2v2.3h-2z" class="st4"/><path d="M136.4 29h8v12.8h-8z" class="st11"/><path d="M140.4 32.8h.2l.3.1.3.1.3.1.2.1.2.2.2.1.2.3.2.2.2.2.1.3v.2l.1.3v.9l-.1.2-.1.3-.1.3-.2.2-.2.2-.2.2-.2.2-.2.1-.3.2h-.2l-.3.1h-.9l-.2-.1h-.3l-.3-.2-.2-.1-.2-.2-.2-.2-.2-.2-.2-.2-.1-.3-.1-.3-.1-.2V35l.1-.3.1-.2.1-.3.1-.2.2-.2.2-.3.2-.1.2-.2.3-.1.2-.1.3-.1.3-.1z" class="st0"/><path d="M152.5 30.6h-2.1c-.6 0-1 .5-1 1v.5h4.1v-.5c.1-.5-.4-1-1-1M150.5 42.3h2.1c.6 0 1-.5 1-1v-.5h-4.1v.5c0 .6.4 1 1 1" class="st4"/><path d="M153.7 40.7c0 .3-.2.5-.5.5h-3.4c-.3 0-.5-.2-.5-.5v-8.5c0-.3.2-.5.5-.5h3.4c.3 0 .5.2.5.5z" class="st0"/><path d="M153.7 40.7c0 .3-.2.5-.5.5h-3.4c-.3 0-.5-.2-.5-.5v-8.5c0-.3.2-.5.5-.5h3.4c.3 0 .5.2.5.5z" class="st10"/><path d="M153.7 40.7c0 .3-.2.5-.5.5h-3.4c-.3 0-.5-.2-.5-.5v-8.5c0-.3.2-.5.5-.5h3.4c.3 0 .5.2.5.5z"/><path d="M141.8 57.9V60c0 .6.5 1 1 1h.5v-4.1h-.5c-.5 0-1 .5-1 1M153.5 60v-2.1c0-.6-.5-1-1-1h-.5V61h.5c.6 0 1-.4 1-1" class="st4"/><path d="M152.4 57.3v3.4c0 .3-.2.5-.5.5h-8.5c-.3 0-.5-.2-.5-.5v-3.4c0-.3.2-.5.5-.5h8.5c.3 0 .5.2.5.5" class="st0"/><path d="M152.4 57.3v3.4c0 .3-.2.5-.5.5h-8.5c-.3 0-.5-.2-.5-.5v-3.4c0-.3.2-.5.5-.5h8.5c.3 0 .5.2.5.5" class="st10"/><path d="M152.4 57.3v3.4c0 .3-.2.5-.5.5h-8.5c-.3 0-.5-.2-.5-.5v-3.4c0-.3.2-.5.5-.5h8.5c.3 0 .5.2.5.5"/><path d="M173.9 59.8c0 .2-.2.4-.4.4s-.4-.2-.4-.4.2-.4.4-.4.4.2.4.4" class="st0"/><g id="Disegno_28"><path d="M158.6 56.9h.9v-2zM161.5 56.9h.8v-2zM164.3 56.9h.9v-2zM167.1 56.9h.9v-2zM170 56.9h.8v-2z" class="st4"/><path d="m158.6 56.9.9-2h-.9zM161.5 56.9l.8-2h-.8zM164.3 56.9l.9-2h-.9zM167.1 56.9l.9-2h-.9zM170 56.9l.8-2h-.8z" class="st4"/><path d="M154.8 56.9h19.8v12h-19.8z" class="st12"/><g class="st13"><defs><path id="SVGID_3_" d="M154.8 56.8h19.8v1.9h-19.8z"/></defs><clipPath id="SVGID_4_"><use xlink:href="#SVGID_3_" style="overflow:visible"/></clipPath><path d="M154.8 56.8h19.8v1.9h-19.8z" class="st0" style="clip-path:url(#SVGID_4_)"/></g><g class="st13"><defs><path id="SVGID_5_" d="M154.8 60.8h19.8v1.9h-19.8z"/></defs><clipPath id="SVGID_6_"><use xlink:href="#SVGID_5_" style="overflow:visible"/></clipPath><path d="M154.8 60.8h19.8v1.9h-19.8z" class="st0" style="clip-path:url(#SVGID_6_)"/></g><g class="st13"><defs><path id="SVGID_7_" d="M154.8 64.9h19.8v1.9h-19.8z"/></defs><clipPath id="SVGID_8_"><use xlink:href="#SVGID_7_" style="overflow:visible"/></clipPath><path d="M154.8 64.9h19.8v1.9h-19.8z" class="st0" style="clip-path:url(#SVGID_8_)"/></g></g><g id="Disegno_27"><path d="M136.8 1.9h22.4v17h-22.4z" class="st12"/><g class="st13"><path d="M136.8 16.8h22.4V19h-22.4z" class="st0"/></g><g class="st13"><path d="M136.8 12.4h22.4v2.2h-22.4z" class="st0"/></g><g class="st13"><path d="M136.8 8h22.4v2.2h-22.4z" class="st0"/></g><g class="st13"><path d="M136.8 3.6h22.4v2.2h-22.4z" class="st0"/></g><path id="LWPOLYLINE" d="M151.6 18.9v7.3h-1.5v-7.3" class="st4"/><path id="LWPOLYLINE-2" d="M145.9 18.9v7.3h-1.4v-7.3" class="st4"/></g><g id="USB"><path d="M181.2 38.7v1c0 .1-.1.2-.2.2h-3.7c-.1 0-.2-.1-.2-.2v-1c0-.1.1-.2.2-.2h3.7c.2 0 .2.1.2.2M181.2 36.8v1c0 .1-.1.2-.2.2h-3.7c-.1 0-.2-.1-.2-.2v-1c0-.1.1-.2.2-.2h3.7c.2 0 .2.1.2.2M181.2 34.9v1c0 .1-.1.2-.2.2h-3.7c-.1 0-.2-.1-.2-.2v-1c0-.1.1-.2.2-.2h3.7c.2 0 .2.1.2.2M181.2 33v1c0 .1-.1.2-.2.2h-3.7c-.1 0-.2-.1-.2-.2v-1c0-.1.1-.2.2-.2h3.7c.2 0 .2.1.2.2M181.2 31v1c0 .1-.1.2-.2.2h-3.7c-.1 0-.2-.1-.2-.2v-1c0-.1.1-.2.2-.2h3.7c.2.1.2.2.2.2" class="st11"/><path d="M179.3 24.9h16.4v21.4h-16.4z" class="st6"/><path d="M181 24.9h-1.7v21.3h1.7zM184.2 24.9h-1.6v21.3h1.6zM187.5 24.9h-1.6v21.3h1.6zM190.8 24.9h-1.7v21.3h1.7zM194.1 24.9h-1.7v21.3h1.7z" class="st4"/></g><path d="M21 12.7h73.3V58H21z" class="st5"/><path d="M21.7 13.4h71.8v43.9H21.7z" style="fill:#b8b9ba"/><g id="Disegno_33"><path d="M107.4 45.4V25.5H126l1.3 1.3v18.6z" class="st0"/><path d="M107.4 45.4V25.5H126l1.3 1.3v18.6z" class="st10"/><path d="M107.4 45.4V25.5H126l1.3 1.3v18.6z"/><path d="M124.7 44.8h1.2V46h-1.2zM123.3 44.8h1.2V46h-1.2zM121.8 44.8h1.2V46h-1.2zM120.4 44.8h1.2V46h-1.2zM118.9 44.8h1.2V46h-1.2zM117.5 44.8h1.2V46h-1.2zM116 44.8h1.2V46H116zM114.6 44.8h1.2V46h-1.2zM113.2 44.8h1.2V46h-1.2zM111.7 44.8h1.2V46h-1.2zM110.3 44.8h1.2V46h-1.2zM108.8 44.8h1.2V46h-1.2zM124.7 24.9h1.2v1.2h-1.2zM123.3 24.9h1.2v1.2h-1.2zM121.8 24.9h1.2v1.2h-1.2zM120.4 24.9h1.2v1.2h-1.2zM118.9 24.9h1.2v1.2h-1.2zM117.5 24.9h1.2v1.2h-1.2zM116 24.9h1.2v1.2H116zM114.6 24.9h1.2v1.2h-1.2zM113.2 24.9h1.2v1.2h-1.2zM111.7 24.9h1.2v1.2h-1.2zM110.3 24.9h1.2v1.2h-1.2zM108.8 24.9h1.2v1.2h-1.2zM126.7 27.6h1.2v1.2h-1.2zM126.7 29.1h1.2v1.2h-1.2zM126.7 30.5h1.2v1.2h-1.2zM126.7 31.9h1.2v1.2h-1.2zM126.7 33.4h1.2v1.2h-1.2zM126.7 34.8h1.2V36h-1.2zM126.7 36.3h1.2v1.2h-1.2zM126.7 37.7h1.2v1.2h-1.2zM126.7 39.2h1.2v1.2h-1.2zM126.7 40.6h1.2v1.2h-1.2zM126.7 42.1h1.2v1.2h-1.2zM106.8 27.6h1.2v1.2h-1.2zM106.8 29.1h1.2v1.2h-1.2zM106.8 30.5h1.2v1.2h-1.2zM106.8 31.9h1.2v1.2h-1.2zM106.8 33.4h1.2v1.2h-1.2zM106.8 34.8h1.2V36h-1.2zM106.8 36.3h1.2v1.2h-1.2zM106.8 37.7h1.2v1.2h-1.2zM106.8 39.2h1.2v1.2h-1.2zM106.8 40.6h1.2v1.2h-1.2zM106.8 42.1h1.2v1.2h-1.2z" class="st4"/></g><g id="Disegno_32"><path d="M145.7 55.7c-1.6 0-2.8-1.3-2.8-2.8v-6.4c0-1.6 1.3-2.8 2.8-2.8h7.3c1.6 0 2.8 1.3 2.8 2.8v6.4c0 1.6-1.3 2.8-2.8 2.8z" class="st18"/><path d="M145.7 55.7c-1.6 0-2.8-1.3-2.8-2.8v-6.4c0-1.6 1.3-2.8 2.8-2.8h7.3c1.6 0 2.8 1.3 2.8 2.8v6.4c0 1.6-1.3 2.8-2.8 2.8z" class="st18"/><path d="M145.7 55.7c-1.6 0-2.8-1.3-2.8-2.8v-6.4c0-1.6 1.3-2.8 2.8-2.8h7.3c1.6 0 2.8 1.3 2.8 2.8v6.4c0 1.6-1.3 2.8-2.8 2.8z" class="st0"/><path d="M145.7 55.7c-1.6 0-2.8-1.3-2.8-2.8v-6.4c0-1.6 1.3-2.8 2.8-2.8h7.3c1.6 0 2.8 1.3 2.8 2.8v6.4c0 1.6-1.3 2.8-2.8 2.8z" class="st0"/><path d="M145.7 55.7c-1.6 0-2.8-1.3-2.8-2.8v-6.4c0-1.6 1.3-2.8 2.8-2.8h7.3c1.6 0 2.8 1.3 2.8 2.8v6.4c0 1.6-1.3 2.8-2.8 2.8z" class="st10"/><path d="M145.7 55.7c-1.6 0-2.8-1.3-2.8-2.8v-6.4c0-1.6 1.3-2.8 2.8-2.8h7.3c1.6 0 2.8 1.3 2.8 2.8v6.4c0 1.6-1.3 2.8-2.8 2.8z" class="st10"/><path d="M145.7 55.7c-1.6 0-2.8-1.3-2.8-2.8v-6.4c0-1.6 1.3-2.8 2.8-2.8h7.3c1.6 0 2.8 1.3 2.8 2.8v6.4c0 1.6-1.3 2.8-2.8 2.8z"/><path d="M145.7 55.7c-1.6 0-2.8-1.3-2.8-2.8v-6.4c0-1.6 1.3-2.8 2.8-2.8h7.3c1.6 0 2.8 1.3 2.8 2.8v6.4c0 1.6-1.3 2.8-2.8 2.8z"/></g><g id="LED"><path d="M181.9 52.1h7.6v3h-7.6z" class="st4"/><path d="M188 53.6c0 1.3-1 2.3-2.3 2.3s-2.3-1-2.3-2.3 1-2.3 2.3-2.3 2.3 1 2.3 2.3" style="fill:#1a9f85"/></g><g id="LED-2"><path d="M136.9 61.6h3v7.6h-3z" class="st4"/><path d="M138.4 63c1.3 0 2.3 1 2.3 2.3s-1 2.3-2.3 2.3-2.3-1-2.3-2.3c-.1-1.2 1-2.3 2.3-2.3" style="fill:#eaa800"/></g><g id="LED-3"><path d="M181.9 15.7h7.6v3h-7.6z" class="st4"/><path d="M188 17.2c0 1.3-1 2.3-2.3 2.3s-2.3-1-2.3-2.3 1-2.3 2.3-2.3c1.3-.1 2.3 1 2.3 2.3" class="st10"/></g><g id="Disegno_11"><path d="M163.3 19.4V7.7H175v11.7z" class="st0"/><path d="M163.3 19.4V7.7H175v11.7z" class="st10"/><path d="M163.3 19.4V7.7H175v11.7z"/><path d="M172.9 6.9h.8v1.6h-.8zM171.7 6.9h.8v1.6h-.8zM170.5 6.9h.8v1.6h-.8zM169.4 6.9h.8v1.6h-.8zM168.2 6.9h.8v1.6h-.8zM167 6.9h.8v1.6h-.8zM165.9 6.9h.8v1.6h-.8zM164.7 6.9h.8v1.6h-.8zM162.6 17.2h1.6v.8h-1.6zM162.6 16.1h1.6v.8h-1.6zM162.6 14.9h1.6v.8h-1.6zM162.6 13.7h1.6v.8h-1.6zM162.6 12.6h1.6v.8h-1.6zM162.6 11.4h1.6v.8h-1.6zM162.6 10.3h1.6v.8h-1.6zM162.6 9.1h1.6v.8h-1.6zM174.2 17.2h1.6v.8h-1.6zM174.2 16.1h1.6v.8h-1.6zM174.2 14.9h1.6v.8h-1.6zM174.2 13.7h1.6v.8h-1.6zM174.2 12.6h1.6v.8h-1.6zM174.2 11.4h1.6v.8h-1.6zM174.2 10.3h1.6v.8h-1.6zM174.2 9.1h1.6v.8h-1.6zM172.9 18.6h.8v1.6h-.8zM171.7 18.6h.8v1.6h-.8zM170.5 18.6h.8v1.6h-.8zM169.4 18.6h.8v1.6h-.8zM168.2 18.6h.8v1.6h-.8zM167 18.6h.8v1.6h-.8zM165.9 18.6h.8v1.6h-.8zM164.7 18.6h.8v1.6h-.8z" class="st4"/></g><g id="Disegno_35"><path d="M160.5 25.1h5.7v4.4h-5.7z" class="st0"/><path d="M160.5 25.1h5.7v4.4h-5.7z" class="st10"/><path d="M160.5 25.1h5.7v4.4h-5.7z"/><path d="M165.2 30.5c.5 0 1-.4 1-1h-1.9c0 .5.4 1 .9 1" class="st4"/><path d="M163.3 30.5c.5 0 1-.4 1-1h-1.9c0 .5.4 1 .9 1M161.4 30.5c.5 0 1-.4 1-1h-1.9c0 .5.4 1 .9 1M165.2 24.2c.5 0 1 .4 1 1h-1.9c0-.6.4-1 .9-1" class="st4"/><path d="M163.3 24.2c.5 0 1 .4 1 1h-1.9c0-.6.4-1 .9-1M161.4 24.2c.5 0 1 .4 1 1h-1.9c0-.6.4-1 .9-1" class="st4"/></g><g id="Disegno_25"><path d="M96.8 36.6h5.7v8.6h-5.7z" class="st0"/><path d="M96.8 36.6h5.7v8.6h-5.7z" class="st10"/><path d="M96.8 36.6h5.7v8.6h-5.7z"/><path d="M101.8 45.9c.4 0 .7-.3.7-.7h-1.4c0 .3.3.7.7.7" class="st4"/><path d="M100.4 45.9c.4 0 .7-.3.7-.7h-1.4c-.1.3.3.7.7.7M98.9 45.9c.4 0 .7-.3.7-.7h-1.4c0 .3.3.7.7.7M98.9 35.9c-.4 0-.7.3-.7.7h1.4c0-.4-.3-.7-.7-.7M100.4 35.9c-.4 0-.7.3-.7.7h1.4c0-.4-.4-.7-.7-.7" class="st4"/><path d="M101.8 35.9c-.4 0-.7.3-.7.7h1.4c0-.4-.3-.7-.7-.7M97.5 45.9c.4 0 .7-.3.7-.7h-1.4c0 .3.3.7.7.7M97.5 35.9c-.4 0-.7.3-.7.7h1.4c0-.4-.3-.7-.7-.7" class="st4"/></g><g id="pin"><path d="M118.2 60.9h7.2v7.2h-7.2zM118.2 68.1v-7.2H111v7.2zM111 68.1v-7.2h-7.2v7.2zM103.8 68.1v-7.2h-7.2v7.2z" class="st0"/><path d="M132.6 68.1v-7.2h-7.2v7.2zM89.5 68.1v-7.2h-7.2v7.2zM96.7 68.1v-7.2h-7.2v7.2zM82.3 68.1v-7.2h-7.2v7.2zM67.9 68.1v-7.2h-7.2v7.2z" class="st0"/><path d="M75.1 68.1v-7.2h-7.2v7.2z" class="st0"/><path d="M118.2 60.9h7.2v7.2h-7.2zM118.2 68.1v-7.2H111v7.2zM111 68.1v-7.2h-7.2v7.2zM103.8 68.1v-7.2h-7.2v7.2z" class="st10"/><path d="M132.6 68.1v-7.2h-7.2v7.2zM89.5 68.1v-7.2h-7.2v7.2zM96.7 68.1v-7.2h-7.2v7.2zM82.3 68.1v-7.2h-7.2v7.2zM67.9 68.1v-7.2h-7.2v7.2z" class="st10"/><path d="M75.1 68.1v-7.2h-7.2v7.2z" class="st10"/><path d="M118.2 60.9h7.2v7.2h-7.2zM118.2 68.1v-7.2H111v7.2zM111 68.1v-7.2h-7.2v7.2zM103.8 68.1v-7.2h-7.2v7.2z"/><path d="M132.6 68.1v-7.2h-7.2v7.2zM89.5 68.1v-7.2h-7.2v7.2zM96.7 68.1v-7.2h-7.2v7.2zM82.3 68.1v-7.2h-7.2v7.2zM67.9 68.1v-7.2h-7.2v7.2z"/><path d="M75.1 68.1v-7.2h-7.2v7.2z"/><path d="M112.8 66.3h3.6v-3.6h-3.6zM120 66.3h3.6v-3.6H120zM127.2 66.3h3.6v-3.6h-3.6zM84.1 66.3h3.6v-3.6h-3.6zM66.1 66.3v-3.6h-3.6v3.6zM80.5 66.3v-3.6h-3.6v3.6zM94.9 66.3v-3.6h-3.6v3.6zM102 66.3v-3.6h-3.6v3.6zM109.2 66.3v-3.6h-3.6v3.6zM73.3 66.3v-3.6h-3.6v3.6z" class="st5"/><path d="M46.3 60.9h7.2v7.2h-7.2zM46.3 68.1v-7.2h-7.2v7.2z" class="st0"/><path d="M39.1 68.1v-7.2h-7.2v7.2zM60.7 68.1v-7.2h-7.2v7.2z" class="st0"/><path d="M46.3 60.9h7.2v7.2h-7.2zM46.3 68.1v-7.2h-7.2v7.2z" class="st10"/><path d="M39.1 68.1v-7.2h-7.2v7.2zM60.7 68.1v-7.2h-7.2v7.2z" class="st10"/><path d="M46.3 60.9h7.2v7.2h-7.2zM46.3 68.1v-7.2h-7.2v7.2z"/><path d="M39.1 68.1v-7.2h-7.2v7.2zM60.7 68.1v-7.2h-7.2v7.2z"/><path d="M40.9 66.3h3.6v-3.6h-3.6zM48.1 66.3h3.6v-3.6h-3.6zM55.3 66.3h3.6v-3.6h-3.6zM37.3 66.3v-3.6h-3.6v3.6z" class="st5"/></g><g id="pin-2"><path d="M118.2 3h7.2v7.2h-7.2zM118.2 10.2V3H111v7.2zM111 10.2V3h-7.2v7.2zM103.8 10.2V3h-7.2v7.2z" class="st0"/><path d="M132.6 10.2V3h-7.2v7.2zM89.5 10.2V3h-7.2v7.2zM96.7 10.2V3h-7.2v7.2zM82.3 10.2V3h-7.2v7.2zM67.9 10.2V3h-7.2v7.2z" class="st0"/><path d="M75.1 10.2V3h-7.2v7.2z" class="st0"/><path d="M118.2 3h7.2v7.2h-7.2zM118.2 10.2V3H111v7.2zM111 10.2V3h-7.2v7.2zM103.8 10.2V3h-7.2v7.2z" class="st10"/><path d="M132.6 10.2V3h-7.2v7.2zM89.5 10.2V3h-7.2v7.2zM96.7 10.2V3h-7.2v7.2zM82.3 10.2V3h-7.2v7.2zM67.9 10.2V3h-7.2v7.2z" class="st10"/><path d="M75.1 10.2V3h-7.2v7.2z" class="st10"/><path d="M118.2 3h7.2v7.2h-7.2zM118.2 10.2V3H111v7.2zM111 10.2V3h-7.2v7.2zM103.8 10.2V3h-7.2v7.2z"/><path d="M132.6 10.2V3h-7.2v7.2zM89.5 10.2V3h-7.2v7.2zM96.7 10.2V3h-7.2v7.2zM82.3 10.2V3h-7.2v7.2zM67.9 10.2V3h-7.2v7.2z"/><path d="M75.1 10.2V3h-7.2v7.2z"/><path d="M112.8 8.4h3.6V4.8h-3.6zM120 8.4h3.6V4.8H120zM127.2 8.4h3.6V4.8h-3.6zM84.1 8.4h3.6V4.8h-3.6zM66.1 8.4V4.8h-3.6v3.6zM80.5 8.4V4.8h-3.6v3.6zM94.9 8.4V4.8h-3.6v3.6zM102 8.4V4.8h-3.6v3.6zM109.2 8.4V4.8h-3.6v3.6zM73.3 8.4V4.8h-3.6v3.6z" class="st5"/><path d="M46.3 3h7.2v7.2h-7.2zM46.3 10.2V3h-7.2v7.2z" class="st0"/><path d="M39.1 10.2V3h-7.2v7.2zM60.7 10.2V3h-7.2v7.2z" class="st0"/><path d="M46.3 3h7.2v7.2h-7.2zM46.3 10.2V3h-7.2v7.2z" class="st10"/><path d="M39.1 10.2V3h-7.2v7.2zM60.7 10.2V3h-7.2v7.2z" class="st10"/><path d="M46.3 3h7.2v7.2h-7.2zM46.3 10.2V3h-7.2v7.2z"/><path d="M39.1 10.2V3h-7.2v7.2zM60.7 10.2V3h-7.2v7.2z"/><path d="M40.9 8.4h3.6V4.8h-3.6zM48.1 8.4h3.6V4.8h-3.6zM55.3 8.4h3.6V4.8h-3.6zM37.3 8.4V4.8h-3.6v3.6z" class="st5"/></g><g id="Disegno_34"><path d="M123.4 12.8h2.4v.9h-2.4zM127.6 12.8h2.4v.9h-2.4zM125.4 21.8h6.8v.9h-6.8z" class="st4"/><path d="M125.4 22.7h6.8v.9h-6.8z" style="fill:#adb0b1"/><path d="M125.4 23.6h6.8v.9h-6.8zM131.7 12.8h2.4v.9h-2.4z" class="st4"/><path d="M123.4 11.9h2.4v.9h-2.4zM127.6 11.9h2.4v.9h-2.4zM131.7 11.9h2.4v.9h-2.4z" class="st22"/><path d="M123.4 11h2.4v.9h-2.4zM127.6 11h2.4v.9h-2.4zM131.7 11h2.4v.9h-2.4z" class="st4"/><path d="M121.9 13.7h13.8v8.1h-13.8z" class="st0"/><path d="M121.9 13.7h13.8v8.1h-13.8z" class="st10"/><path d="M121.9 13.7h13.8v8.1h-13.8z"/></g><g id="Disegno_7"><path d="M141.3 64.9h4.5v2.6h-4.5z" class="st5"/><path d="M141.3 63.3h1.6v1.6h-1.6zM142.8 67.5h1.6v1.6h-1.6zM144.2 63.3h1.6v1.6h-1.6z" class="st11"/><path d="M141.7 64.5h.8v.8h-.8zM144.6 64.5h.8v.8h-.8zM143.2 67.1h.8v.8h-.8z" class="st4"/></g><g id="Disegno_5"><path d="M168 34.1h7.5V39H168z" class="st0"/><path d="M168 34.1h7.5V39H168z" class="st10"/><path d="M168 34.1h7.5V39H168z"/><path d="M173.6 31.3h1.3v3.6h-1.3zM168.7 31.3h1.3v3.6h-1.3zM173.6 37.7h1.3v3.6h-1.3zM168.7 37.7h1.3v3.6h-1.3z" class="st4"/></g><g id="Artwork_3"><path d="M120.3 15.5v2.3H118v-2.3zq0-.15 0 0M120.3 12.9v2.3H118v-2.3z" class="st4"/><path d="M118.4 14.6v1.5c0 .4.3.7.7.7s.7-.3.7-.7v-1.5c0-.4-.3-.7-.7-.7s-.7.3-.7.7" class="st11"/><path d="M118.4 14.8h1.4v1.1h-1.4z" class="st0"/><path d="M118.4 14.8h1.4v1.1h-1.4z" class="st10"/><path d="M118.4 14.8h1.4v1.1h-1.4z"/></g><g id="Artwork_3-2"><path d="M117.4 15.5v2.3h-2.3v-2.3zq0-.15 0 0M117.4 12.9v2.3h-2.3v-2.3z" class="st4"/><path d="M115.5 14.6v1.5c0 .4.3.7.7.7s.7-.3.7-.7v-1.5c0-.4-.3-.7-.7-.7s-.7.3-.7.7" class="st11"/><path d="M115.5 14.8h1.4v1.1h-1.4z" class="st0"/><path d="M115.5 14.8h1.4v1.1h-1.4z" class="st10"/><path d="M115.5 14.8h1.4v1.1h-1.4z"/></g><g id="Artwork_3-3"><path d="M114.5 15.5v2.3h-2.3v-2.3zq0-.15 0 0M114.5 12.9v2.3h-2.3v-2.3z" class="st4"/><path d="M112.6 14.6v1.5c0 .4.3.7.7.7s.7-.3.7-.7v-1.5c0-.4-.3-.7-.7-.7-.3 0-.7.3-.7.7" class="st11"/><path d="M112.6 14.8h1.4v1.1h-1.4z" class="st0"/><path d="M112.6 14.8h1.4v1.1h-1.4z" class="st10"/><path d="M112.6 14.8h1.4v1.1h-1.4z"/></g><g id="Artwork_3-4"><path d="M118.5 21.1v2.3h-2.3v-2.3zM118.5 18.5v2.3h-2.3v-2.3z" class="st4"/><path d="M116.6 20.2v1.5c0 .4.3.7.7.7s.7-.3.7-.7v-1.5c0-.4-.3-.7-.7-.7s-.7.4-.7.7" class="st11"/><path d="M116.6 20.4h1.4v1.1h-1.4z" class="st0"/><path d="M116.6 20.4h1.4v1.1h-1.4z" class="st10"/><path d="M116.6 20.4h1.4v1.1h-1.4z"/></g><g id="Artwork_3-5"><path d="M137.7 24.3v2.3h-2.3v-2.3zc-.1-.1 0-.1 0 0M135.1 24.3v2.3h-2.3v-2.3zq0-.15 0 0" class="st4"/><path d="M134.5 26.1h1.5c.4 0 .7-.3.7-.7s-.3-.7-.7-.7h-1.5c-.4 0-.7.3-.7.7s.3.7.7.7" class="st11"/><path d="M134.7 24.7h1.1v1.4h-1.1z" class="st0"/><path d="M134.7 24.7h1.1v1.4h-1.1z" class="st10"/><path d="M134.7 24.7h1.1v1.4h-1.1z"/></g><g id="Artwork_3-6"><path d="M99.7 15.5v2.3h-2.3v-2.3zq0-.15 0 0M99.7 12.9v2.3h-2.3v-2.3z" class="st4"/><path d="M97.9 14.6v1.5c0 .4.3.7.7.7s.7-.3.7-.7v-1.5c0-.4-.3-.7-.7-.7s-.7.3-.7.7" class="st11"/><path d="M97.9 14.8h1.4v1.1h-1.4z" class="st0"/><path d="M97.9 14.8h1.4v1.1h-1.4z" class="st10"/><path d="M97.9 14.8h1.4v1.1h-1.4z"/></g><g id="Artwork_3-7"><path d="M99.7 21.8v2.3h-2.3v-2.3zM99.7 19.3v2.3h-2.3v-2.3zq0-.15 0 0" class="st4"/><path d="M97.9 21v1.5c0 .4.3.7.7.7s.7-.3.7-.7V21c0-.4-.3-.7-.7-.7s-.7.3-.7.7" class="st11"/><path d="M97.9 21.1h1.4v1.1h-1.4z" class="st0"/><path d="M97.9 21.1h1.4v1.1h-1.4z" class="st10"/><path d="M97.9 21.1h1.4v1.1h-1.4z"/></g><g id="Artwork_3-8"><path d="M98.1 52.6v2.3h-2.3v-2.3zM98.1 50.1v2.3h-2.3v-2.3zq0-.15 0 0" class="st4"/><path d="M96.2 51.8v1.5c0 .4.3.7.7.7s.7-.3.7-.7v-1.5c0-.4-.3-.7-.7-.7-.3-.1-.7.3-.7.7" class="st11"/><path d="M96.2 51.9h1.4V53h-1.4z" class="st0"/><path d="M96.2 51.9h1.4V53h-1.4z" class="st10"/><path d="M96.2 51.9h1.4V53h-1.4z"/></g><g id="Artwork_3-9"><path d="M101 52.6v2.3h-2.3v-2.3zc-.1 0 0 0 0 0M101 50.1v2.3h-2.3v-2.3zc-.1-.1 0-.1 0 0" class="st4"/><path d="M99.1 51.8v1.5c0 .4.3.7.7.7s.7-.3.7-.7v-1.5c0-.4-.3-.7-.7-.7-.4-.1-.7.2-.7.7q0-.15 0 0" class="st11"/><path d="M99.1 51.9h1.4V53h-1.4z" class="st0"/><path d="M99.1 51.9h1.4V53h-1.4z" class="st10"/><path d="M99.1 51.9h1.4V53h-1.4z"/></g><g id="Artwork_3-10"><path d="M117.7 52.6v2.3h-2.3v-2.3zM117.7 50.1v2.3h-2.3v-2.3zq0-.15 0 0" class="st4"/><path d="M115.8 51.8v1.5c0 .4.3.7.7.7s.7-.3.7-.7v-1.5c0-.4-.3-.7-.7-.7-.4-.1-.7.2-.7.7q0-.15 0 0" class="st11"/><path d="M115.8 51.9h1.4V53h-1.4z" class="st0"/><path d="M115.8 51.9h1.4V53h-1.4z" class="st10"/><path d="M115.8 51.9h1.4V53h-1.4z"/></g><g id="Artwork_3-11"><path d="M112.6 54.4v2.3h-2.3v-2.3zM110.1 54.4v2.3h-2.3v-2.3zc-.1 0 0 0 0 0" class="st4"/><path d="M109.5 56.3h1.5c.4 0 .7-.3.7-.7s-.3-.7-.7-.7h-1.5c-.4 0-.7.3-.7.7s.3.7.7.7" class="st11"/><path d="M109.6 54.9h1.1v1.4h-1.1z" class="st0"/><path d="M109.6 54.9h1.1v1.4h-1.1z" class="st10"/><path d="M109.6 54.9h1.1v1.4h-1.1z"/></g><g id="Artwork_3-12"><path d="M106.6 54.4v2.3h-2.3v-2.3zM104 54.4v2.3h-2.3v-2.3z" class="st4"/><path d="M103.5 56.3h1.5c.4 0 .7-.3.7-.7s-.3-.7-.7-.7h-1.5c-.4 0-.7.3-.7.7-.1.4.3.7.7.7" class="st11"/><path d="M103.6 54.9h1.1v1.4h-1.1z" class="st0"/><path d="M103.6 54.9h1.1v1.4h-1.1z" class="st10"/><path d="M103.6 54.9h1.1v1.4h-1.1z"/></g><g id="Artwork_3-13"><path d="M112.6 57.3v2.3h-2.3v-2.3zc0-.1 0 0 0 0M110.1 57.3v2.3h-2.3v-2.3zc-.1-.1 0 0 0 0" class="st4"/><path d="M109.5 59.1h1.5c.4 0 .7-.3.7-.7s-.3-.7-.7-.7h-1.5c-.4 0-.7.3-.7.7s.3.7.7.7" class="st11"/><path d="M109.6 57.7h1.1v1.4h-1.1z" class="st0"/><path d="M109.6 57.7h1.1v1.4h-1.1z" class="st10"/><path d="M109.6 57.7h1.1v1.4h-1.1z"/></g><g id="Artwork_3-14"><path d="M106.6 57.3v2.3h-2.3v-2.3zc0-.1 0 0 0 0M104 57.3v2.3h-2.3v-2.3zc0-.1 0 0 0 0" class="st4"/><path d="M103.5 59.1h1.5c.4 0 .7-.3.7-.7s-.3-.7-.7-.7h-1.5c-.4 0-.7.3-.7.7-.1.4.3.7.7.7" class="st11"/><path d="M103.6 57.7h1.1v1.4h-1.1z" class="st0"/><path d="M103.6 57.7h1.1v1.4h-1.1z" class="st10"/><path d="M103.6 57.7h1.1v1.4h-1.1z"/></g><g id="Artwork_3-15"><path d="M105.9 46.8v2.3h-2.3v-2.3zM103.3 46.8v2.3H101v-2.3z" class="st4"/><path d="M102.7 48.7h1.5c.4 0 .7-.3.7-.7s-.3-.7-.7-.7h-1.5c-.4 0-.7.3-.7.7s.3.7.7.7" class="st11"/><path d="M102.9 47.2h1.1v1.4h-1.1z" class="st0"/><path d="M102.9 47.2h1.1v1.4h-1.1z" class="st10"/><path d="M102.9 47.2h1.1v1.4h-1.1z"/></g><g id="Artwork_3-16"><path d="M130 58.9h2.5c.7 0 1.2-.6 1.2-1.2s-.5-1.1-1.2-1.2H130c-.7 0-1.2.5-1.2 1.2 0 .6.6 1.2 1.2 1.2" class="st11"/><path d="M130.3 56.5h1.8v2.4h-1.8z" class="st0"/><path d="M130.3 56.5h1.8v2.4h-1.8z" class="st10"/><path d="M130.3 56.5h1.8v2.4h-1.8z"/></g><g id="Artwork_3-17"><path d="M135.7 64.5v2.3h-2.3v-2.3zc-.1 0 0 0 0 0M135.7 61.9v2.3h-2.3v-2.3zc-.1 0 0 0 0 0" class="st4"/><path d="M133.8 63.6v1.5c0 .4.3.7.7.7s.7-.3.7-.7v-1.5c0-.4-.3-.7-.7-.7s-.7.3-.7.7" class="st11"/><path d="M133.8 63.8h1.4v1.1h-1.4z" class="st0"/><path d="M133.8 63.8h1.4v1.1h-1.4z" class="st10"/><path d="M133.8 63.8h1.4v1.1h-1.4z"/></g><g id="Artwork_3-18"><path d="M149.4 64.5v2.3h-2.3v-2.3zM149.4 61.9v2.3h-2.3v-2.3z" class="st4"/><path d="M147.5 63.6v1.5c0 .4.3.7.7.7s.7-.3.7-.7v-1.5c0-.4-.3-.7-.7-.7-.3 0-.6.3-.7.7" class="st11"/><path d="M147.5 63.8h1.4v1.1h-1.4z" class="st0"/><path d="M147.5 63.8h1.4v1.1h-1.4z" class="st10"/><path d="M147.5 63.8h1.4v1.1h-1.4z"/></g><g id="Artwork_3-19"><path d="M159.6 50.4v2.3h-2.3v-2.3zM159.6 47.9v2.3h-2.3v-2.3z" class="st4"/><path d="M157.7 49.6v1.5c0 .4.3.7.7.7s.7-.3.7-.7v-1.5c0-.4-.3-.7-.7-.7s-.7.3-.7.7" class="st11"/><path d="M157.7 49.8h1.4v1.1h-1.4z" class="st0"/><path d="M157.7 49.8h1.4v1.1h-1.4z" class="st10"/><path d="M157.7 49.8h1.4v1.1h-1.4z"/></g><g id="Artwork_3-20"><path d="M172.4 28.5v2.3h-2.3v-2.3zc0-.1 0 0 0 0M172.4 25.9v2.3h-2.3v-2.3z" class="st4"/><path d="M170.5 27.6v1.5c0 .4.3.7.7.7s.7-.3.7-.7v-1.5c0-.4-.3-.7-.7-.7s-.7.3-.7.7" class="st11"/><path d="M170.5 27.8h1.4v1.1h-1.4z" class="st0"/><path d="M170.5 27.8h1.4v1.1h-1.4z" class="st10"/><path d="M170.5 27.8h1.4v1.1h-1.4z"/></g><g id="Artwork_3-21"><path d="M165.2 32.1v2.3h-2.3v-2.3zq0-.15 0 0M162.6 32.1v2.3h-2.3v-2.3zq0-.15 0 0" class="st4"/><path d="M162.1 33.9h1.5c.4 0 .7-.3.7-.7s-.3-.7-.7-.7h-1.5c-.4 0-.7.3-.7.7-.1.4.3.7.7.7" class="st11"/><path d="M162.2 32.5h1.1v1.4h-1.1z" class="st0"/><path d="M162.2 32.5h1.1v1.4h-1.1z" class="st10"/><path d="M162.2 32.5h1.1v1.4h-1.1z"/></g><g id="Artwork_3-22"><path d="M177.1 45.3v2.3h-2.3v-2.3zc-.1 0 0 0 0 0M174.5 45.3v2.3h-2.3v-2.3z" class="st4"/><path d="M173.9 47.1h1.5c.4 0 .7-.3.7-.7s-.3-.7-.7-.7h-1.5c-.4 0-.7.3-.7.7s.3.7.7.7" class="st11"/><path d="M174.1 45.7h1.1v1.4h-1.1z" class="st0"/><path d="M174.1 45.7h1.1v1.4h-1.1z" class="st10"/><path d="M174.1 45.7h1.1v1.4h-1.1z"/></g><g id="Artwork_3-23"><path d="M180.4 56.3v2.3h-2.3v-2.3zc-.1 0 0 0 0 0M177.8 56.3v2.3h-2.3v-2.3z" class="st4"/><path d="M177.2 58.1h1.5c.4 0 .7-.3.7-.7s-.3-.7-.7-.7h-1.5c-.4 0-.7.3-.7.7s.3.7.7.7" class="st11"/><path d="M177.4 56.7h1.1v1.4h-1.1z" class="st0"/><path d="M177.4 56.7h1.1v1.4h-1.1z" class="st10"/><path d="M177.4 56.7h1.1v1.4h-1.1z"/></g><g id="Artwork_3-24"><path d="M183.8 20.7V23h-2.3v-2.3zM181.3 20.7V23H179v-2.3z" class="st4"/><path d="M180.7 22.5h1.5c.4 0 .7-.3.7-.7s-.3-.7-.7-.7h-1.5c-.4 0-.7.3-.7.7s.3.7.7.7" class="st11"/><path d="M180.9 21.1h1.1v1.4h-1.1z" class="st0"/><path d="M180.9 21.1h1.1v1.4h-1.1z" class="st10"/><path d="M180.9 21.1h1.1v1.4h-1.1z"/></g><g id="Artwork_3-25"><path d="M177.2 23.2v2.3h-2.3v-2.3zq0-.15 0 0M177.2 20.6v2.3h-2.3v-2.3z" class="st4"/><path d="M175.3 22.3v1.5c0 .4.3.7.7.7s.7-.3.7-.7v-1.5c0-.4-.3-.7-.7-.7-.3 0-.7.3-.7.7" class="st11"/><path d="M175.3 22.5h1.4v1.1h-1.4z" class="st0"/><path d="M175.3 22.5h1.4v1.1h-1.4z" class="st10"/><path d="M175.3 22.5h1.4v1.1h-1.4z"/></g><g id="Artwork_3-26"><path d="M162 19.8v2.3h-2.3v-2.3zM162 17.3v2.3h-2.3v-2.3zq0-.15 0 0" class="st4"/><path d="M160.2 19v1.5c0 .4.3.7.7.7s.7-.3.7-.7V19c0-.4-.3-.7-.7-.7s-.7.3-.7.7" class="st11"/><path d="M160.2 19.1h1.4v1.1h-1.4z" class="st0"/><path d="M160.2 19.1h1.4v1.1h-1.4z" class="st10"/><path d="M160.2 19.1h1.4v1.1h-1.4z"/></g><g id="Artwork_3-27"><path d="M178.4 5.1v2.3h-2.3V5.1zM178.4 7.6v2.3h-2.3V7.6z" class="st4"/><path d="M177.9 8.2V6.7c0-.4-.3-.7-.7-.7s-.7.3-.7.7v1.5c0 .4.3.7.7.7s.7-.3.7-.7" class="st11"/><path d="M176.5 7h1.4v1.1h-1.4z" class="st0"/><path d="M176.5 7h1.4v1.1h-1.4z" class="st10"/><path d="M176.5 7h1.4v1.1h-1.4z"/></g><g id="Artwork_3-28"><path d="M174.5 1.2v2.3h-2.3V1.2zq0-.15 0 0M171.9 1.2v2.3h-2.3V1.2zq0-.15 0 0" class="st4"/><path d="M171.3 3h1.5c.4 0 .7-.3.7-.7s-.3-.7-.7-.7h-1.5c-.4 0-.7.3-.7.7s.3.7.7.7" class="st11"/><path d="M171.5 1.6h1.1V3h-1.1z" class="st0"/><path d="M171.5 1.6h1.1V3h-1.1z" class="st10"/><path d="M171.5 1.6h1.1V3h-1.1z"/></g><g id="Artwork_3-29"><path d="M168.7 1.2v2.3h-2.3V1.2zq0-.15 0 0M166.2 1.2v2.3h-2.3V1.2zq0-.15 0 0" class="st4"/><path d="M165.6 3h1.5c.4 0 .7-.3.7-.7s-.3-.7-.7-.7h-1.5c-.4 0-.7.3-.7.7s.3.7.7.7" class="st11"/><path d="M165.8 1.6h1.1V3h-1.1z" class="st0"/><path d="M165.8 1.6h1.1V3h-1.1z" class="st10"/><path d="M165.8 1.6h1.1V3h-1.1z"/></g><g id="Artwork_3-30"><path d="M19.7 39.9v2.3h-2.3v-2.3zc0-.1 0 0 0 0M19.7 37.3v2.3h-2.3v-2.3z" class="st4"/><path d="M17.9 39v1.5c0 .4.3.7.7.7s.7-.3.7-.7V39c0-.4-.3-.7-.7-.7s-.7.3-.7.7" class="st11"/><path d="M17.9 39.2h1.4v1.1h-1.4z" class="st0"/><path d="M17.9 39.2h1.4v1.1h-1.4z" class="st10"/><path d="M17.9 39.2h1.4v1.1h-1.4z"/></g><g id="Artwork_3-31"><path d="M19.7 34.3v2.3h-2.3v-2.3zM19.7 31.8V34h-2.3v-2.3zq0-.15 0 0" class="st4"/><path d="M17.9 33.5V35c0 .4.3.7.7.7s.7-.3.7-.7v-1.5c0-.4-.3-.7-.7-.7s-.7.3-.7.7" class="st11"/><path d="M17.9 33.6h1.4v1.1h-1.4z" class="st0"/><path d="M17.9 33.6h1.4v1.1h-1.4z" class="st10"/><path d="M17.9 33.6h1.4v1.1h-1.4z"/></g><g id="Artwork_3-32"><path d="M16.6 34.3v2.3h-2.3v-2.3zc-.1 0 0 0 0 0M14 34.3v2.3h-2.3v-2.3z" class="st4"/><path d="M13.4 36.2h1.5c.4 0 .7-.3.7-.7s-.3-.7-.7-.7h-1.5c-.4 0-.7.3-.7.7 0 .3.3.7.7.7" class="st11"/><path d="M13.6 34.7h1.1v1.4h-1.1z" class="st0"/><path d="M13.6 34.7h1.1v1.4h-1.1z" class="st10"/><path d="M13.6 34.7h1.1v1.4h-1.1z"/></g><g id="Disegno_15"><path d="M4.8 39.1h11.3v10.8H4.8z" class="st3"/><path d="M10.5 39.8c2.6 0 4.7 2.1 4.7 4.7s-2.1 4.7-4.7 4.7-4.7-2.1-4.7-4.7 2.1-4.6 4.7-4.7m0 9c2.4 0 4.3-1.9 4.3-4.3s-1.9-4.3-4.3-4.3-4.3 1.9-4.3 4.3 1.9 4.3 4.3 4.3" class="st4"/><path d="M10.5 43.4c.6 0 1.1.5 1.1 1.1s-.5 1.1-1.1 1.1-1.1-.5-1.1-1.1.5-1.1 1.1-1.1" class="st4"/></g><g id="Disegno_4"><path d="M131.6 45.1h3.4v3.4h-3.4zM131.6 51.3h3.4v3.4h-3.4z" class="st4"/><path d="M131.6 48.5h3.4v2.8h-3.4z" class="st0"/><path d="M131.6 48.5h3.4v2.8h-3.4z" class="st10"/><path d="M131.6 48.5h3.4v2.8h-3.4z"/><path d="m134.9 47.4-1.7-1.7-1.6 1.7v1.1h3.3zM131.6 52.4l1.6 1.6 1.7-1.6v-1.1h-3.3z" class="st5"/></g><g id="Disegno_4-2"><path d="M136.7 45.1h3.4v3.4h-3.4zM136.7 51.3h3.4v3.4h-3.4z" class="st4"/><path d="M136.7 48.5h3.4v2.8h-3.4z" class="st0"/><path d="M136.7 48.5h3.4v2.8h-3.4z" class="st10"/><path d="M136.7 48.5h3.4v2.8h-3.4z"/><path d="m140 47.4-1.6-1.7-1.7 1.7v1.1h3.3zM136.7 52.4l1.7 1.6 1.6-1.6v-1.1h-3.3z" class="st5"/></g><g id="Disegno_4-3"><path d="M97 25.2h3.4v3.4H97zM97 31.4h3.4v3.4H97z" class="st4"/><path d="M97 28.6h3.4v2.8H97z" class="st0"/><path d="M97 28.6h3.4v2.8H97z" class="st10"/><path d="M97 28.6h3.4v2.8H97z"/><path d="m100.3 27.5-1.6-1.7-1.7 1.7v1.1h3.3zM97 32.5l1.7 1.7 1.6-1.7v-1.1H97z" class="st5"/></g><g id="Disegno_4-4"><path d="M155.5 39.3h3.4v3.4h-3.4zM161.7 39.3h3.4v3.4h-3.4z" class="st4"/><path d="M158.9 39.3h2.8v3.4h-2.8z" class="st0"/><path d="M158.9 39.3h2.8v3.4h-2.8z" class="st10"/><path d="M158.9 39.3h2.8v3.4h-2.8z"/><path d="m157.8 39.3-1.7 1.7 1.7 1.7h1.1v-3.4zM162.8 42.7l1.7-1.7-1.7-1.7v.1h-1.1v3.3z" class="st5"/></g><g id="Disegno_4-5"><path d="M160.3 44.2h3.4v3.4h-3.4zM166.5 44.2h3.4v3.4h-3.4z" class="st4"/><path d="M163.6 44.2h2.8v3.4h-2.8z" class="st0"/><path d="M163.6 44.2h2.8v3.4h-2.8z" class="st10"/><path d="M163.6 44.2h2.8v3.4h-2.8z"/><path d="m162.6 44.2-1.7 1.7 1.7 1.7h1v-3.4zM167.5 47.6l1.7-1.7-1.7-1.7h-1v3.4z" class="st5"/></g><g id="Disegno_4-6"><path d="M13.9 13.4h4.4v4.4h-4.4zM13.9 21.6h4.4V26h-4.4z" class="st4"/><path d="M13.9 17.8h4.4v3.7h-4.4z" class="st0"/><path d="M13.9 17.8h4.4v3.7h-4.4z" class="st10"/><path d="M13.9 17.8h4.4v3.7h-4.4z"/><path d="m18.4 16.4-2.2-2.2-2.3 2.2h.1v1.4h4.4zM13.9 23l2.3 2.2 2.2-2.2v-1.4h-4.5z" class="st5"/></g><g id="Disegno_4-7"><path d="M7.7 13.4h4.4v4.4H7.7zM7.7 21.6h4.4V26H7.7z" class="st4"/><path d="M7.7 17.8h4.4v3.7H7.7z" class="st0"/><path d="M7.7 17.8h4.4v3.7H7.7z" class="st10"/><path d="M7.7 17.8h4.4v3.7H7.7z"/><path d="m12.1 16.4-2.2-2.2-2.2 2.2v1.4h4.4zM7.7 23l2.2 2.2 2.2-2.2v-1.4H7.7z" class="st5"/></g><g id="Disegno_4-8"><path d="M1.5 13.4h4.4v4.4H1.5zM1.5 21.6h4.4V26H1.5z" class="st4"/><path d="M1.5 17.8h4.4v3.7H1.5z" class="st0"/><path d="M1.5 17.8h4.4v3.7H1.5z" class="st10"/><path d="M1.5 17.8h4.4v3.7H1.5z"/><path d="m5.9 16.4-2.2-2.2-2.2 2.2v1.4h4.4zM1.5 23l2.2 2.2L5.9 23v-1.4H1.5z" class="st5"/></g></svg>