<svg xmlns="http://www.w3.org/2000/svg" width="526" height="526" fill="none" viewBox="0 0 526 526"><path fill="#ebaa01" d="M514.404.6H11.261A11.25 11.25 0 0 0 0 11.86v60.012h19.739c.265 0 .397 0 .662.133h.265c.53.132.928.265 1.325.397.133 0 .265.133.398.133.132 0 .264.132.397.132.132.133.397.132.53.265.53.265.927.53 1.325.927l.132.133.397.397c.133.133.265.133.265.265.133.133.265.265.265.398.133.132.265.397.398.53l.132.132c.133.133.265.265.265.398.133.132.265.397.265.53 0 0 0 .132.133.132 0 .132.132.132.132.265.133.132.133.265.133.397v.133c.132.265.264.53.264.794.133.266.133.398.133.663 0 .132 0 .265.133.397v.133c0 .132.132.397.132.53v2.384c0 .133 0 .265-.133.53-.132.53-.265 1.06-.53 1.457 0 .133-.132.265-.132.398-.132.132-.132.397-.265.53-.132.132-.265.397-.265.53-.132.265-.397.53-.662.794-.133.133-.133.266-.265.266-.265.397-.663.662-1.06 1.06l-.132.132c-.398.265-.795.662-1.325.927-.133 0-.133.133-.265.133a1 1 0 0 1-.663.264s-.132 0-.265.133c-.264.133-.397.133-.662.265-.265 0-.397.132-.662.132-.133 0-.265 0-.398.133-.265 0-.53.132-.794.132H0V514.74A11.25 11.25 0 0 0 11.26 526h503.144a11.25 11.25 0 0 0 11.261-11.26V11.86c0-6.226-5.034-11.26-11.261-11.26M22.521 29.745c-3.577 0-6.624-2.915-6.624-6.624 0-3.71 2.915-6.624 6.624-6.624 3.71 0 6.624 2.915 6.624 6.624 0 3.71-3.047 6.624-6.624 6.624m0 480.623c-3.577 0-6.624-2.915-6.624-6.624s2.915-6.624 6.624-6.624c3.71 0 6.624 2.915 6.624 6.624s-2.915 6.624-6.624 6.624m0-60.144c-3.577 0-6.624-2.915-6.624-6.624 0-3.577 2.915-6.624 6.624-6.624 3.71 0 6.624 2.915 6.624 6.624s-2.915 6.624-6.624 6.624m0-60.012c-3.577 0-6.624-2.914-6.624-6.624s2.915-6.623 6.624-6.623c3.71 0 6.624 2.914 6.624 6.623s-2.915 6.624-6.624 6.624m0-60.144c-3.577 0-6.624-2.914-6.624-6.624s2.915-6.624 6.624-6.624c3.71 0 6.624 2.915 6.624 6.624 0 3.71-2.915 6.624-6.624 6.624m0-60.012c-3.577 0-6.624-2.914-6.624-6.623 0-3.577 2.915-6.624 6.624-6.624 3.71 0 6.624 2.914 6.624 6.624s-2.915 6.623-6.624 6.623m60.144 240.312c-3.577 0-6.624-2.915-6.624-6.624s2.915-6.624 6.624-6.624c3.71 0 6.624 2.915 6.624 6.624s-3.047 6.624-6.624 6.624m0-60.144c-3.577 0-6.624-2.915-6.624-6.624 0-3.577 2.915-6.624 6.624-6.624 3.71 0 6.624 2.915 6.624 6.624-.133 3.709-3.047 6.624-6.624 6.624m0-60.012c-3.577 0-6.624-2.914-6.624-6.624s2.915-6.623 6.624-6.623c3.71 0 6.624 2.914 6.624 6.623s-3.047 6.624-6.624 6.624m0-60.144c-3.577 0-6.624-2.914-6.624-6.624s2.915-6.624 6.624-6.624c3.71 0 6.624 2.915 6.624 6.624 0 3.71-3.047 6.624-6.624 6.624m0-60.012c-3.577 0-6.624-2.914-6.624-6.623 0-3.577 2.915-6.624 6.624-6.624 3.71 0 6.624 2.914 6.624 6.624-.133 3.709-3.047 6.623-6.624 6.623m44.777-46.499c-3.577 0-6.624-2.914-6.624-6.623 0-3.577 2.915-6.624 6.624-6.624s6.624 2.914 6.624 6.624c-.133 3.709-3.047 6.623-6.624 6.623m0-184.804c-3.577 0-6.624-2.914-6.624-6.624s2.915-6.623 6.624-6.623 6.624 2.914 6.624 6.623-3.047 6.624-6.624 6.624m15.235 471.615c-3.577 0-6.624-2.915-6.624-6.624s2.914-6.624 6.624-6.624c3.577 0 6.623 2.915 6.623 6.624s-2.914 6.624-6.623 6.624m0-60.144c-3.577 0-6.624-2.915-6.624-6.624 0-3.577 2.914-6.624 6.624-6.624 3.577 0 6.623 2.915 6.623 6.624s-2.914 6.624-6.623 6.624m0-60.012c-3.577 0-6.624-2.914-6.624-6.624s2.914-6.623 6.624-6.623c3.577 0 6.623 2.914 6.623 6.623s-2.914 6.624-6.623 6.624m0-60.144c-3.577 0-6.624-2.914-6.624-6.624s2.914-6.624 6.624-6.624c3.577 0 6.623 2.915 6.623 6.624 0 3.71-2.914 6.624-6.623 6.624m0-60.012c-3.577 0-6.624-2.914-6.624-6.623 0-3.577 2.914-6.624 6.624-6.624 3.577 0 6.623 2.914 6.623 6.624s-2.914 6.623-6.623 6.623m60.144 240.312c-3.577 0-6.624-2.915-6.624-6.624s2.914-6.624 6.624-6.624 6.624 2.915 6.624 6.624-3.047 6.624-6.624 6.624m0-60.144c-3.577 0-6.624-2.915-6.624-6.624 0-3.577 2.914-6.624 6.624-6.624s6.624 2.915 6.624 6.624c-.133 3.709-3.047 6.624-6.624 6.624m0-60.012c-3.577 0-6.624-2.914-6.624-6.624s2.914-6.623 6.624-6.623 6.624 2.914 6.624 6.623-3.047 6.624-6.624 6.624m0-60.144c-3.577 0-6.624-2.914-6.624-6.624s2.914-6.624 6.624-6.624 6.624 2.915 6.624 6.624c0 3.71-3.047 6.624-6.624 6.624m0-60.012c-3.577 0-6.624-2.914-6.624-6.623 0-3.577 2.914-6.624 6.624-6.624s6.624 2.914 6.624 6.624c-.133 3.709-3.047 6.623-6.624 6.623m60.011 240.312c-3.576 0-6.623-2.915-6.623-6.624s2.914-6.624 6.623-6.624c3.577 0 6.624 2.915 6.624 6.624s-2.914 6.624-6.624 6.624m0-60.144c-3.576 0-6.623-2.915-6.623-6.624 0-3.577 2.914-6.624 6.623-6.624 3.577 0 6.624 2.915 6.624 6.624s-2.914 6.624-6.624 6.624m0-60.012c-3.576 0-6.623-2.914-6.623-6.624s2.914-6.623 6.623-6.623c3.577 0 6.624 2.914 6.624 6.623s-2.914 6.624-6.624 6.624m0-60.144c-3.576 0-6.623-2.914-6.623-6.624s2.914-6.624 6.623-6.624c3.577 0 6.624 2.915 6.624 6.624 0 3.71-2.914 6.624-6.624 6.624m0-60.012c-3.576 0-6.623-2.914-6.623-6.623 0-3.577 2.914-6.624 6.623-6.624 3.577 0 6.624 2.914 6.624 6.624s-2.914 6.623-6.624 6.623m60.145 240.312c-3.577 0-6.624-2.915-6.624-6.624s2.914-6.624 6.624-6.624c3.576 0 6.623 2.915 6.623 6.624s-3.047 6.624-6.623 6.624m0-60.144c-3.577 0-6.624-2.915-6.624-6.624 0-3.577 2.914-6.624 6.624-6.624 3.576 0 6.623 2.915 6.623 6.624-.132 3.709-3.047 6.624-6.623 6.624m0-60.012c-3.577 0-6.624-2.914-6.624-6.624s2.914-6.623 6.624-6.623c3.576 0 6.623 2.914 6.623 6.623s-3.047 6.624-6.623 6.624m0-60.144c-3.577 0-6.624-2.914-6.624-6.624s2.914-6.624 6.624-6.624c3.576 0 6.623 2.915 6.623 6.624 0 3.71-3.047 6.624-6.623 6.624m0-60.012c-3.577 0-6.624-2.914-6.624-6.623 0-3.577 2.914-6.624 6.624-6.624 3.576 0 6.623 2.914 6.623 6.624-.132 3.709-3.047 6.623-6.623 6.623m36.563-67.032c-3.577 0-6.624-2.915-6.624-6.624 0-3.71 2.915-6.624 6.624-6.624s6.624 2.914 6.624 6.624-3.047 6.624-6.624 6.624m0-143.604c-3.577 0-6.624-2.915-6.624-6.624 0-3.71 2.915-6.624 6.624-6.624s6.624 2.914 6.624 6.624-3.047 6.624-6.624 6.624m23.448 450.948c-3.577 0-6.624-2.915-6.624-6.624s2.915-6.624 6.624-6.624c3.71 0 6.624 2.915 6.624 6.624s-2.914 6.624-6.624 6.624m0-60.144c-3.577 0-6.624-2.915-6.624-6.624 0-3.577 2.915-6.624 6.624-6.624 3.71 0 6.624 2.915 6.624 6.624s-2.914 6.624-6.624 6.624m0-60.012c-3.577 0-6.624-2.914-6.624-6.624s2.915-6.623 6.624-6.623c3.71 0 6.624 2.914 6.624 6.623s-2.914 6.624-6.624 6.624m0-60.144c-3.577 0-6.624-2.914-6.624-6.624s2.915-6.624 6.624-6.624c3.71 0 6.624 2.915 6.624 6.624 0 3.71-2.914 6.624-6.624 6.624m0-60.012c-3.577 0-6.624-2.914-6.624-6.623 0-3.577 2.915-6.624 6.624-6.624 3.71 0 6.624 2.914 6.624 6.624s-2.914 6.623-6.624 6.623m60.144 240.312c-3.576 0-6.623-2.915-6.623-6.624s2.914-6.624 6.623-6.624 6.624 2.915 6.624 6.624-3.047 6.624-6.624 6.624m0-60.144c-3.576 0-6.623-2.915-6.623-6.624 0-3.577 2.914-6.624 6.623-6.624s6.624 2.915 6.624 6.624-3.047 6.624-6.624 6.624m0-60.012c-3.576 0-6.623-2.914-6.623-6.624s2.914-6.623 6.623-6.623 6.624 2.914 6.624 6.623-3.047 6.624-6.624 6.624m0-60.144c-3.576 0-6.623-2.914-6.623-6.624s2.914-6.624 6.623-6.624 6.624 2.915 6.624 6.624c0 3.71-3.047 6.624-6.624 6.624m0-60.012c-3.576 0-6.623-2.914-6.623-6.623 0-3.577 2.914-6.624 6.623-6.624s6.624 2.914 6.624 6.624-3.047 6.623-6.624 6.623m60.012 240.312c-3.577 0-6.624-2.915-6.624-6.624s2.915-6.624 6.624-6.624c3.577 0 6.624 2.915 6.624 6.624s-2.915 6.624-6.624 6.624m0-60.144c-3.577 0-6.624-2.915-6.624-6.624 0-3.577 2.915-6.624 6.624-6.624 3.577 0 6.624 2.915 6.624 6.624s-2.915 6.624-6.624 6.624m0-60.012c-3.577 0-6.624-2.914-6.624-6.624s2.915-6.623 6.624-6.623c3.577 0 6.624 2.914 6.624 6.623s-2.915 6.624-6.624 6.624m0-60.144c-3.577 0-6.624-2.914-6.624-6.624s2.915-6.624 6.624-6.624c3.577 0 6.624 2.915 6.624 6.624 0 3.71-2.915 6.624-6.624 6.624m0-60.012c-3.577 0-6.624-2.914-6.624-6.623 0-3.577 2.915-6.624 6.624-6.624 3.577 0 6.624 2.914 6.624 6.624s-2.915 6.623-6.624 6.623m0-240.311c-3.577 0-6.624-2.915-6.624-6.624 0-3.71 2.915-6.624 6.624-6.624 3.577 0 6.624 2.915 6.624 6.624 0 3.71-2.915 6.624-6.624 6.624m14.705 491.089a1.98 1.98 0 0 1-1.59-1.59v-.795a1.98 1.98 0 0 1 1.59-1.59h.795a1.97 1.97 0 0 1 1.589 1.59v.795a1.97 1.97 0 0 1-1.589 1.59h-.795"/><path fill="#dae3e3" fill-rule="evenodd" d="M22.521 494.471c-5.166 0-9.406 4.239-9.406 9.406 0 5.166 4.24 9.405 9.406 9.405s9.406-4.239 9.406-9.405c0-5.3-4.24-9.406-9.406-9.406m0 15.897c-3.577 0-6.624-2.915-6.624-6.624s2.915-6.624 6.624-6.624c3.71 0 6.624 2.915 6.624 6.624s-2.915 6.624-6.624 6.624M82.666 494.471c-5.167 0-9.406 4.239-9.406 9.406 0 5.166 4.239 9.405 9.406 9.405 5.166 0 9.405-4.239 9.405-9.405 0-5.3-4.239-9.406-9.405-9.406m0 15.897c-3.577 0-6.624-2.915-6.624-6.624s2.914-6.624 6.624-6.624 6.623 2.915 6.623 6.624-3.047 6.624-6.623 6.624M142.676 494.47c-5.166 0-9.405 4.239-9.405 9.406s4.239 9.406 9.405 9.406c5.167 0 9.406-4.239 9.406-9.406 0-5.299-4.239-9.406-9.406-9.406m0 15.897c-3.577 0-6.623-2.914-6.623-6.623s2.914-6.624 6.623-6.624c3.577 0 6.624 2.914 6.624 6.624s-2.914 6.623-6.624 6.623M202.821 494.47c-5.167 0-9.406 4.239-9.406 9.406s4.239 9.406 9.406 9.406c5.166 0 9.406-4.239 9.406-9.406 0-5.299-4.24-9.406-9.406-9.406m0 15.897c-3.577 0-6.624-2.914-6.624-6.623s2.915-6.624 6.624-6.624 6.624 2.914 6.624 6.624-3.047 6.623-6.624 6.623M262.833 494.47c-5.167 0-9.406 4.239-9.406 9.406s4.239 9.406 9.406 9.406c5.166 0 9.405-4.239 9.405-9.406 0-5.299-4.239-9.406-9.405-9.406m0 15.897c-3.577 0-6.624-2.914-6.624-6.623s2.914-6.624 6.624-6.624c3.576 0 6.623 2.914 6.623 6.624s-2.914 6.623-6.623 6.623M503.145 494.471c-5.167 0-9.406 4.239-9.406 9.406 0 5.166 4.239 9.405 9.406 9.405s9.406-4.239 9.406-9.405c0-5.3-4.107-9.406-9.406-9.406m0 15.897c-3.577 0-6.624-2.915-6.624-6.624s2.915-6.624 6.624-6.624c3.577 0 6.624 2.915 6.624 6.624s-2.915 6.624-6.624 6.624M443.132 494.471c-5.166 0-9.405 4.239-9.405 9.406 0 5.166 4.239 9.405 9.405 9.405 5.167 0 9.406-4.239 9.406-9.405 0-5.3-4.239-9.406-9.406-9.406m0 15.897c-3.576 0-6.623-2.915-6.623-6.624s2.914-6.624 6.623-6.624 6.624 2.915 6.624 6.624-3.047 6.624-6.624 6.624M382.988 494.471c-5.167 0-9.406 4.239-9.406 9.406 0 5.166 4.239 9.405 9.406 9.405 5.166 0 9.406-4.239 9.406-9.405 0-5.3-4.24-9.406-9.406-9.406m0 15.897c-3.577 0-6.624-2.915-6.624-6.624s2.915-6.624 6.624-6.624 6.624 2.915 6.624 6.624-2.915 6.624-6.624 6.624M322.977 494.47c-5.166 0-9.406 4.239-9.406 9.406s4.24 9.406 9.406 9.406 9.406-4.239 9.406-9.406c0-5.299-4.239-9.406-9.406-9.406m0 15.897c-3.577 0-6.624-2.914-6.624-6.623s2.915-6.624 6.624-6.624c3.577 0 6.624 2.914 6.624 6.624s-3.047 6.623-6.624 6.623M22.521 434.326c-5.166 0-9.406 4.239-9.406 9.406s4.24 9.406 9.406 9.406 9.406-4.239 9.406-9.406-4.24-9.406-9.406-9.406m0 15.897c-3.577 0-6.624-2.914-6.624-6.624 0-3.576 2.915-6.623 6.624-6.623 3.71 0 6.624 2.914 6.624 6.623s-2.915 6.624-6.624 6.624M82.666 434.326c-5.167 0-9.406 4.239-9.406 9.406s4.239 9.406 9.406 9.406c5.166 0 9.405-4.239 9.405-9.406s-4.239-9.406-9.405-9.406m0 15.897c-3.577 0-6.624-2.914-6.624-6.624 0-3.576 2.914-6.623 6.624-6.623s6.623 2.914 6.623 6.623c-.132 3.71-3.047 6.624-6.623 6.624M142.676 434.327c-5.166 0-9.405 4.239-9.405 9.405 0 5.167 4.239 9.406 9.405 9.406 5.167 0 9.406-4.239 9.406-9.406 0-5.166-4.239-9.405-9.406-9.405m0 15.897c-3.577 0-6.623-2.915-6.623-6.624 0-3.577 2.914-6.624 6.623-6.624 3.577 0 6.624 2.915 6.624 6.624s-2.914 6.624-6.624 6.624M202.821 434.327c-5.167 0-9.406 4.239-9.406 9.405 0 5.167 4.239 9.406 9.406 9.406 5.166 0 9.406-4.239 9.406-9.406 0-5.166-4.24-9.405-9.406-9.405m0 15.897c-3.577 0-6.624-2.915-6.624-6.624 0-3.577 2.915-6.624 6.624-6.624s6.624 2.915 6.624 6.624c-.133 3.709-3.047 6.624-6.624 6.624M262.833 434.327c-5.167 0-9.406 4.239-9.406 9.405 0 5.167 4.239 9.406 9.406 9.406 5.166 0 9.405-4.239 9.405-9.406 0-5.166-4.239-9.405-9.405-9.405m0 15.897c-3.577 0-6.624-2.915-6.624-6.624 0-3.577 2.914-6.624 6.624-6.624 3.576 0 6.623 2.915 6.623 6.624s-2.914 6.624-6.623 6.624M503.145 434.326c-5.167 0-9.406 4.239-9.406 9.406s4.239 9.406 9.406 9.406 9.406-4.239 9.406-9.406-4.107-9.406-9.406-9.406m0 15.897c-3.577 0-6.624-2.914-6.624-6.624 0-3.576 2.915-6.623 6.624-6.623 3.577 0 6.624 2.914 6.624 6.623s-2.915 6.624-6.624 6.624M443.132 434.326c-5.166 0-9.405 4.239-9.405 9.406s4.239 9.406 9.405 9.406c5.167 0 9.406-4.239 9.406-9.406s-4.239-9.406-9.406-9.406m0 15.897c-3.576 0-6.623-2.914-6.623-6.624 0-3.576 2.914-6.623 6.623-6.623s6.624 2.914 6.624 6.623-3.047 6.624-6.624 6.624M382.988 434.326c-5.167 0-9.406 4.239-9.406 9.406s4.239 9.406 9.406 9.406c5.166 0 9.406-4.239 9.406-9.406s-4.24-9.406-9.406-9.406m0 15.897c-3.577 0-6.624-2.914-6.624-6.624 0-3.576 2.915-6.623 6.624-6.623s6.624 2.914 6.624 6.623-2.915 6.624-6.624 6.624M322.977 434.327c-5.166 0-9.406 4.239-9.406 9.405 0 5.167 4.24 9.406 9.406 9.406s9.406-4.239 9.406-9.406c0-5.166-4.239-9.405-9.406-9.405m0 15.897c-3.577 0-6.624-2.915-6.624-6.624 0-3.577 2.915-6.624 6.624-6.624 3.577 0 6.624 2.915 6.624 6.624-.133 3.709-3.047 6.624-6.624 6.624M22.521 374.182c-5.166 0-9.406 4.239-9.406 9.406s4.24 9.406 9.406 9.406 9.406-4.239 9.406-9.406-4.24-9.406-9.406-9.406m0 16.03c-3.577 0-6.624-2.915-6.624-6.624s2.915-6.624 6.624-6.624c3.71 0 6.624 2.915 6.624 6.624s-2.915 6.624-6.624 6.624M82.666 374.182c-5.167 0-9.406 4.239-9.406 9.406s4.239 9.406 9.406 9.406c5.166 0 9.405-4.239 9.405-9.406s-4.239-9.406-9.405-9.406m0 16.03c-3.577 0-6.624-2.915-6.624-6.624s2.914-6.624 6.624-6.624 6.623 2.915 6.623 6.624-3.047 6.624-6.623 6.624M142.676 374.183c-5.166 0-9.405 4.239-9.405 9.405 0 5.167 4.239 9.406 9.405 9.406 5.167 0 9.406-4.239 9.406-9.406 0-5.166-4.239-9.405-9.406-9.405m0 16.029c-3.577 0-6.623-2.914-6.623-6.624s2.914-6.623 6.623-6.623c3.577 0 6.624 2.914 6.624 6.623s-2.914 6.624-6.624 6.624M202.821 374.183c-5.167 0-9.406 4.239-9.406 9.405 0 5.167 4.239 9.406 9.406 9.406 5.166 0 9.406-4.239 9.406-9.406 0-5.166-4.24-9.405-9.406-9.405m0 16.029c-3.577 0-6.624-2.914-6.624-6.624s2.915-6.623 6.624-6.623 6.624 2.914 6.624 6.623-3.047 6.624-6.624 6.624M262.833 374.183c-5.167 0-9.406 4.239-9.406 9.405 0 5.167 4.239 9.406 9.406 9.406 5.166 0 9.405-4.239 9.405-9.406 0-5.166-4.239-9.405-9.405-9.405m0 16.029c-3.577 0-6.624-2.914-6.624-6.624s2.914-6.623 6.624-6.623c3.576 0 6.623 2.914 6.623 6.623s-2.914 6.624-6.623 6.624M503.145 374.182c-5.167 0-9.406 4.239-9.406 9.406s4.239 9.406 9.406 9.406 9.406-4.239 9.406-9.406-4.107-9.406-9.406-9.406m0 16.03c-3.577 0-6.624-2.915-6.624-6.624s2.915-6.624 6.624-6.624c3.577 0 6.624 2.915 6.624 6.624s-2.915 6.624-6.624 6.624M443.132 374.182c-5.166 0-9.405 4.239-9.405 9.406s4.239 9.406 9.405 9.406c5.167 0 9.406-4.239 9.406-9.406s-4.239-9.406-9.406-9.406m0 16.03c-3.576 0-6.623-2.915-6.623-6.624s2.914-6.624 6.623-6.624 6.624 2.915 6.624 6.624-3.047 6.624-6.624 6.624M382.988 374.182c-5.167 0-9.406 4.239-9.406 9.406s4.239 9.406 9.406 9.406c5.166 0 9.406-4.239 9.406-9.406s-4.24-9.406-9.406-9.406m0 16.03c-3.577 0-6.624-2.915-6.624-6.624s2.915-6.624 6.624-6.624 6.624 2.915 6.624 6.624-2.915 6.624-6.624 6.624M322.977 374.183c-5.166 0-9.406 4.239-9.406 9.405 0 5.167 4.24 9.406 9.406 9.406s9.406-4.239 9.406-9.406c0-5.166-4.239-9.405-9.406-9.405m0 16.029c-3.577 0-6.624-2.914-6.624-6.624s2.915-6.623 6.624-6.623c3.577 0 6.624 2.914 6.624 6.623s-3.047 6.624-6.624 6.624M322.977 314.171c-5.166 0-9.406 4.239-9.406 9.406 0 5.166 4.24 9.405 9.406 9.405s9.406-4.239 9.406-9.405c0-5.167-4.239-9.406-9.406-9.406m0 15.897c-3.577 0-6.624-2.914-6.624-6.624s2.915-6.624 6.624-6.624c3.577 0 6.624 2.915 6.624 6.624 0 3.71-3.047 6.624-6.624 6.624M382.988 314.171c-5.167 0-9.406 4.24-9.406 9.406s4.239 9.406 9.406 9.406c5.166 0 9.406-4.239 9.406-9.406 0-5.166-4.24-9.406-9.406-9.406m0 15.898c-3.577 0-6.624-2.915-6.624-6.624 0-3.71 2.915-6.624 6.624-6.624s6.624 2.914 6.624 6.624-2.915 6.624-6.624 6.624M443.132 314.171c-5.166 0-9.405 4.24-9.405 9.406s4.239 9.406 9.405 9.406c5.167 0 9.406-4.239 9.406-9.406 0-5.166-4.239-9.406-9.406-9.406m0 15.898c-3.576 0-6.623-2.915-6.623-6.624 0-3.71 2.914-6.624 6.623-6.624s6.624 2.914 6.624 6.624-3.047 6.624-6.624 6.624M262.833 314.171c-5.167 0-9.406 4.239-9.406 9.406 0 5.166 4.239 9.405 9.406 9.405 5.166 0 9.405-4.239 9.405-9.405 0-5.167-4.239-9.406-9.405-9.406m0 15.897c-3.577 0-6.624-2.914-6.624-6.624s2.914-6.624 6.624-6.624c3.576 0 6.623 2.915 6.623 6.624 0 3.71-2.914 6.624-6.623 6.624M202.821 314.171c-5.167 0-9.406 4.239-9.406 9.406 0 5.166 4.239 9.405 9.406 9.405 5.166 0 9.406-4.239 9.406-9.405 0-5.167-4.24-9.406-9.406-9.406m0 15.897c-3.577 0-6.624-2.914-6.624-6.624s2.915-6.624 6.624-6.624 6.624 2.915 6.624 6.624c0 3.71-3.047 6.624-6.624 6.624M142.676 314.171c-5.166 0-9.405 4.239-9.405 9.406 0 5.166 4.239 9.405 9.405 9.405 5.167 0 9.406-4.239 9.406-9.405 0-5.167-4.239-9.406-9.406-9.406m0 15.897c-3.577 0-6.623-2.914-6.623-6.624s2.914-6.624 6.623-6.624c3.577 0 6.624 2.915 6.624 6.624 0 3.71-2.914 6.624-6.624 6.624M82.666 314.171c-5.167 0-9.406 4.24-9.406 9.406s4.239 9.406 9.406 9.406c5.166 0 9.405-4.239 9.405-9.406 0-5.166-4.239-9.406-9.405-9.406m0 15.898c-3.577 0-6.624-2.915-6.624-6.624 0-3.71 2.914-6.624 6.624-6.624s6.623 2.914 6.623 6.624-3.047 6.624-6.623 6.624M22.521 314.171c-5.166 0-9.406 4.24-9.406 9.406s4.24 9.406 9.406 9.406 9.406-4.239 9.406-9.406c0-5.166-4.24-9.406-9.406-9.406m0 15.898c-3.577 0-6.624-2.915-6.624-6.624 0-3.71 2.915-6.624 6.624-6.624 3.71 0 6.624 2.914 6.624 6.624s-2.915 6.624-6.624 6.624M503.145 254.026c-5.167 0-9.406 4.24-9.406 9.406s4.239 9.406 9.406 9.406 9.406-4.239 9.406-9.406c0-5.166-4.107-9.406-9.406-9.406m0 16.03c-3.577 0-6.624-2.915-6.624-6.624 0-3.577 2.915-6.624 6.624-6.624 3.577 0 6.624 2.915 6.624 6.624s-2.915 6.624-6.624 6.624M503.145 314.171c-5.167 0-9.406 4.24-9.406 9.406s4.239 9.406 9.406 9.406 9.406-4.239 9.406-9.406c0-5.166-4.107-9.406-9.406-9.406m0 15.898c-3.577 0-6.624-2.915-6.624-6.624 0-3.577 2.915-6.624 6.624-6.624 3.577 0 6.624 2.914 6.624 6.624s-2.915 6.624-6.624 6.624M443.132 254.026c-5.166 0-9.405 4.24-9.405 9.406s4.239 9.406 9.405 9.406c5.167 0 9.406-4.239 9.406-9.406 0-5.166-4.239-9.406-9.406-9.406m0 16.03c-3.576 0-6.623-2.915-6.623-6.624 0-3.577 2.914-6.624 6.623-6.624s6.624 2.915 6.624 6.624-3.047 6.624-6.624 6.624M382.988 254.026c-5.167 0-9.406 4.24-9.406 9.406s4.239 9.406 9.406 9.406c5.166 0 9.406-4.239 9.406-9.406 0-5.166-4.24-9.406-9.406-9.406m0 16.03c-3.577 0-6.624-2.915-6.624-6.624 0-3.577 2.915-6.624 6.624-6.624s6.624 2.915 6.624 6.624-2.915 6.624-6.624 6.624M322.977 254.026c-5.166 0-9.406 4.24-9.406 9.406s4.24 9.406 9.406 9.406 9.406-4.239 9.406-9.406c0-5.166-4.239-9.406-9.406-9.406m0 16.03c-3.577 0-6.624-2.915-6.624-6.624 0-3.577 2.915-6.624 6.624-6.624 3.577 0 6.624 2.915 6.624 6.624-.133 3.709-3.047 6.624-6.624 6.624M262.833 254.026c-5.167 0-9.406 4.24-9.406 9.406s4.239 9.406 9.406 9.406c5.166 0 9.405-4.239 9.405-9.406 0-5.166-4.239-9.406-9.405-9.406m0 16.03c-3.577 0-6.624-2.915-6.624-6.624 0-3.577 2.914-6.624 6.624-6.624 3.576 0 6.623 2.915 6.623 6.624s-2.914 6.624-6.623 6.624M202.821 254.026c-5.167 0-9.406 4.24-9.406 9.406s4.239 9.406 9.406 9.406c5.166 0 9.406-4.239 9.406-9.406 0-5.166-4.24-9.406-9.406-9.406m0 16.03c-3.577 0-6.624-2.915-6.624-6.624 0-3.577 2.915-6.624 6.624-6.624s6.624 2.915 6.624 6.624c-.133 3.709-3.047 6.624-6.624 6.624M142.676 254.026c-5.166 0-9.405 4.24-9.405 9.406s4.239 9.406 9.405 9.406c5.167 0 9.406-4.239 9.406-9.406 0-5.166-4.239-9.406-9.406-9.406m0 16.03c-3.577 0-6.623-2.915-6.623-6.624 0-3.577 2.914-6.624 6.623-6.624 3.577 0 6.624 2.915 6.624 6.624s-2.914 6.624-6.624 6.624M82.666 254.026c-5.167 0-9.406 4.24-9.406 9.406s4.239 9.406 9.406 9.406c5.166 0 9.405-4.239 9.405-9.406 0-5.166-4.239-9.406-9.405-9.406m0 16.03c-3.577 0-6.624-2.915-6.624-6.624 0-3.577 2.914-6.624 6.624-6.624s6.623 2.915 6.623 6.624c-.132 3.709-3.047 6.624-6.623 6.624M22.521 254.026c-5.166 0-9.406 4.24-9.406 9.406s4.24 9.406 9.406 9.406 9.406-4.239 9.406-9.406c0-5.166-4.24-9.406-9.406-9.406m0 16.03c-3.577 0-6.624-2.915-6.624-6.624 0-3.577 2.915-6.624 6.624-6.624 3.71 0 6.624 2.915 6.624 6.624s-2.915 6.624-6.624 6.624M359.541 187.126c-5.167 0-9.406 4.239-9.406 9.406 0 5.166 4.239 9.406 9.406 9.406 5.166 0 9.405-4.24 9.405-9.406s-4.239-9.406-9.405-9.406m0 15.897c-3.577 0-6.624-2.914-6.624-6.624s2.914-6.624 6.624-6.624 6.623 2.915 6.623 6.624c0 3.71-3.047 6.624-6.623 6.624M503.145 13.715c-5.167 0-9.406 4.24-9.406 9.406s4.239 9.406 9.406 9.406 9.406-4.24 9.406-9.406-4.107-9.406-9.406-9.406m0 16.03c-3.577 0-6.624-2.915-6.624-6.624 0-3.71 2.915-6.624 6.624-6.624 3.577 0 6.624 2.915 6.624 6.624 0 3.71-2.915 6.624-6.624 6.624M359.541 43.523c-5.167 0-9.406 4.239-9.406 9.405 0 5.167 4.239 9.406 9.406 9.406 5.166 0 9.405-4.24 9.405-9.406 0-5.299-4.239-9.405-9.405-9.405m0 15.897c-3.577 0-6.624-2.915-6.624-6.624 0-3.71 2.914-6.624 6.624-6.624s6.623 2.915 6.623 6.624c0 3.71-3.047 6.624-6.623 6.624M22.521 13.715c-5.166 0-9.406 4.24-9.406 9.406s4.24 9.406 9.406 9.406 9.406-4.24 9.406-9.406-4.24-9.406-9.406-9.406m0 16.03c-3.577 0-6.624-2.915-6.624-6.624 0-3.71 2.915-6.624 6.624-6.624 3.71 0 6.624 2.915 6.624 6.624 0 3.71-3.047 6.624-6.624 6.624M127.441 22.855c-5.167 0-9.406 4.24-9.406 9.406s4.239 9.406 9.406 9.406 9.406-4.24 9.406-9.406-4.239-9.406-9.406-9.406m0 15.897c-3.577 0-6.624-2.914-6.624-6.623s2.915-6.624 6.624-6.624 6.624 2.914 6.624 6.624-3.047 6.623-6.624 6.623M127.441 207.66c-5.167 0-9.406 4.239-9.406 9.406s4.239 9.406 9.406 9.406 9.406-4.239 9.406-9.406c0-5.299-4.239-9.406-9.406-9.406m0 15.897c-3.577 0-6.624-2.914-6.624-6.624 0-3.576 2.915-6.623 6.624-6.623s6.624 2.914 6.624 6.623c-.133 3.71-3.047 6.624-6.624 6.624" clip-rule="evenodd"/><path fill="#dae3e3" d="M145.724 71.872v18.811H25.701a11.6 11.6 0 0 0 4.77-9.405c0-3.842-1.855-7.287-4.77-9.406z"/><path fill="#ebaa01" d="M112.473 75.316H28.351v1.59h84.122zM112.472 80.35H29.675v1.59h82.797zM112.473 85.516H28.351v1.59h84.122zM123.733 78.23h1.457v3.975c0 1.722-1.325 2.12-2.385 2.12s-2.384-.398-2.384-2.12v-3.974h1.457v3.709c0 1.06.398 1.192.927 1.192.663 0 .928-.265.928-1.192zM126.647 79.82c0-1.06 1.06-1.722 2.385-1.722.662 0 1.192.133 1.987.53l-.398 1.325a2.2 2.2 0 0 0-1.589-.663c-.398 0-.795.133-.795.398 0 .927 2.914.662 2.914 2.65 0 1.324-1.192 1.854-2.649 1.854-.53 0-1.325-.132-1.987-.53l.53-1.325c.529.398 1.059.663 1.722.663.53 0 .927-.133.927-.53-.132-.927-3.047-.53-3.047-2.65M135.391 84.192h-2.65v-6.094h2.252c1.59 0 1.987.662 1.987 1.457 0 .398-.132 1.06-.927 1.325 1.192.133 1.457.795 1.457 1.457-.132 1.325-.927 1.855-2.119 1.855m-.795-4.77h-.398v1.06h.398c.53 0 .795-.132.795-.662-.133-.265-.265-.397-.795-.397m-.398 2.253V83h.795c.53 0 .795-.133.795-.663s-.265-.662-.927-.662z"/><path fill="#dae3e3" d="M288.931 89.491c-1.325 0-2.65.133-3.842.265-10.863 1.59-18.149 9.273-22.124 15.235-4.106-5.962-11.26-13.778-22.123-15.235-1.325-.132-2.65-.265-3.842-.265-13.91 0-25.303 10.863-25.303 24.376 0 13.512 11.261 24.375 25.303 24.375 1.325 0 2.65-.132 3.842-.265 10.863-1.589 18.017-9.405 22.123-15.367 4.107 5.962 11.261 13.778 22.124 15.367 1.325.133 2.65.265 3.842.265 13.91 0 25.303-10.863 25.303-24.375s-11.393-24.376-25.303-24.376m-49.414 39.875c-.927.133-1.722.133-2.649.133-9.141 0-16.692-7.021-16.692-15.765s7.418-15.764 16.692-15.764c.927 0 1.722.132 2.649.265 10.201 1.457 16.427 11.525 18.547 15.499-2.12 4.107-8.346 14.175-18.547 15.632m49.414.265c-.928 0-1.722 0-2.65-.132-10.2-1.457-16.427-11.525-18.546-15.5 2.119-3.974 8.346-14.042 18.546-15.5.928-.132 1.722-.264 2.65-.264 9.141 0 16.692 7.021 16.692 15.764 0 8.744-7.551 15.632-16.692 15.632"/><path fill="#dae3e3" d="M245.081 111.482h-15.234v4.902h15.234zM290.521 116.384h5.166v-4.901h-5.166v-5.167h-4.902v5.167h-5.034v4.901h5.034v5.167h4.902zM313.969 91.081c-.133-.265-.265-.53-.53-.795s-.53-.397-.795-.53a2.5 2.5 0 0 0-1.06-.264c-.397 0-.662.132-1.06.264-.265.133-.53.265-.795.53s-.397.53-.529.795a2.5 2.5 0 0 0-.265 1.06c0 .397 0 .662.265 1.06.132.265.264.662.529.795.265.265.53.397.795.53.265.132.663.264 1.06.264.398 0 .662 0 1.06-.265.265-.132.53-.264.795-.53.265-.264.397-.53.53-.794.132-.265.265-.663.265-1.06 0-.398-.133-.795-.265-1.06m-.53 1.722c-.133.265-.265.398-.398.663-.132.132-.397.265-.662.397-.265.133-.53.133-.795.133s-.53 0-.795-.133c-.265-.132-.397-.265-.662-.397-.133-.133-.265-.398-.398-.663-.132-.265-.132-.53-.132-.794 0-.266 0-.53.132-.795.133-.265.265-.398.398-.663.132-.132.397-.265.662-.397.265-.133.53-.133.795-.133s.53 0 .795.133c.265.132.397.265.662.397.133.133.265.398.398.663.132.265.132.53.132.794 0 .266 0 .53-.132.795"/><path fill="#dae3e3" d="M312.246 92.273c.132-.132.265-.132.265-.265.132-.132.132-.265.132-.397 0-.265-.132-.398-.265-.663-.132-.265-.397-.265-.927-.265h-.795V93.2h.663v-.794h.265l.397.794h.662zm-.662-.265h-.133v-.662h.265q.397 0 .397.397c0 .265-.264.265-.529.265M222.693 145.397h-3.974l-4.504 14.44h3.709l.795-2.915h4.107l.795 2.915h3.841zm-3.444 8.743 1.325-5.299 1.457 5.299zM238.192 154.537c1.59-.795 2.385-2.384 2.385-4.371 0-2.782-1.458-4.77-5.564-4.77h-5.829v14.44h3.576V155.2h1.723l2.119 4.636h4.239zm-3.444-2.119h-1.855v-4.107h1.855c1.722 0 2.119.662 2.119 1.987-.132 1.59-.927 2.12-2.119 2.12M247.863 145.396h-4.769v14.44h4.769c6.094 0 7.154-3.974 7.154-7.286 0-4.636-1.723-7.154-7.154-7.154m.132 11.526h-1.324v-8.611h1.059c3.18 0 3.445 1.457 3.445 4.372 0 2.384-.133 4.239-3.18 4.239M265.219 145.396v8.876c0 2.252-.663 2.915-2.252 2.915-1.325 0-2.252-.53-2.252-2.915v-8.743h-3.577v9.406c0 4.371 3.179 5.166 5.564 5.166 2.517 0 5.829-.927 5.829-5.166v-9.539zM282.704 148.311v-2.915h-11.128v2.915h3.71v8.478h-3.71v2.915h10.996v-2.782h-3.71v-8.479h3.842zM293.833 145.397v8.611l-4.637-8.611h-3.842v14.44h3.312v-9.274l4.902 9.274h3.577v-14.44zM305.226 145.264c-4.372 0-5.961 3.179-5.961 7.551 0 4.769 1.854 7.286 6.094 7.286 4.636 0 6.226-3.312 6.226-7.418-.133-5.564-2.252-7.419-6.359-7.419m0 11.923c-2.12 0-2.252-1.457-2.252-4.372 0-3.577.265-4.637 2.252-4.637 2.12 0 2.385.928 2.385 4.505 0 3.311-.265 4.504-2.385 4.504M62.132 464.796c-.53 0-.927 0-1.457.132-3.974.53-6.624 3.445-8.081 5.564-1.457-2.119-4.107-5.034-8.081-5.564-.53-.132-.927-.132-1.457-.132-5.034 0-9.274 3.974-9.274 8.876s4.107 8.876 9.274 8.876c.53 0 .927 0 1.457-.133 3.974-.53 6.624-3.444 8.08-5.564 1.458 2.12 4.108 5.034 8.082 5.564.53 0 .927.133 1.457.133 5.034 0 9.273-3.975 9.273-8.876-.132-4.769-4.239-8.876-9.273-8.876m-18.15 14.572c-.264 0-.661.133-.926.133-3.312 0-6.094-2.65-6.094-5.697 0-3.179 2.65-5.696 6.093-5.696h.928c3.71.53 5.961 4.239 6.756 5.696-.662 1.458-2.914 5.034-6.756 5.564m18.15.133c-.265 0-.662 0-.927-.133-3.71-.53-5.962-4.239-6.756-5.696.794-1.457 3.046-5.167 6.756-5.697h.927c3.312 0 6.094 2.65 6.094 5.697-.132 3.312-2.782 5.829-6.094 5.829"/><path fill="#dae3e3" d="M46.102 472.877h-5.564v1.722h5.564zM62.66 474.732h1.856v-1.855H62.66v-1.855h-1.722v1.855h-1.855v1.855h1.855v1.854h1.722zM72.995 464.134c-.133-.265-.265-.398-.398-.663-.132-.132-.397-.265-.662-.397-.265-.133-.53-.133-.662-.133-.265 0-.53 0-.795.133-.265.132-.398.265-.53.397-.133.133-.265.398-.398.663-.132.265-.132.53-.132.795 0 .264 0 .529.132.662.133.265.265.397.398.662.132.133.397.265.53.398.265.132.53.132.795.132s.53 0 .662-.132c.265-.133.397-.265.662-.398.133-.132.265-.397.398-.662.132-.265.132-.53.132-.662.133-.398 0-.663-.132-.795m-.398 1.324c-.132.133-.132.265-.265.398-.132.132-.264.265-.397.265-.133.132-.397.132-.53.132-.265 0-.397 0-.53-.132-.132-.133-.265-.133-.397-.265-.133-.133-.265-.265-.265-.398-.133-.132-.133-.397-.133-.529 0-.265 0-.398.133-.53.132-.133.132-.265.265-.398.132-.132.265-.265.397-.265.133-.132.398-.132.53-.132.133 0 .397 0 .53.132.132 0 .265.133.397.265.133.133.265.265.265.398.133.132.133.397.133.53 0 .132 0 .264-.133.529"/><path fill="#dae3e3" d="M71.802 465.061c.133 0 .133-.132.265-.265 0-.132.133-.264.133-.264 0-.133-.133-.265-.133-.398a1 1 0 0 0-.662-.265h-.53v1.855h.53v-.663h.132l.265.663h.53zm-.53-.265h-.132v-.529h.132c.265 0 .265.132.265.265 0 .132 0 .264-.265.264"/><path fill="#000" fill-rule="evenodd" d="m123.433 287.745 323.475-.001v-3.488H123.433z" clip-rule="evenodd"/><path fill="#c11f09" fill-rule="evenodd" d="M123.432 292.92h323.475v-3.488H123.432z" clip-rule="evenodd"/><path fill="#0072b2" fill-rule="evenodd" d="M123.433 298.094h323.475v-3.488H123.433z" clip-rule="evenodd"/><path fill="#f0e442" fill-rule="evenodd" d="M123.432 303.27h323.475v-3.489H123.432z" clip-rule="evenodd"/><path fill="#f0e442" fill-rule="evenodd" d="M455.582 303.27c28.35 0 51.332-22.982 51.332-51.332V220h-3.488v31.938c0 26.423-21.421 47.843-47.844 47.843h-112.15v3.489z" clip-rule="evenodd"/><path fill="#0072b2" fill-rule="evenodd" d="M455.583 298.094c28.35 0 51.332-22.982 51.332-51.332V220h-3.489v26.762c0 26.423-21.42 47.843-47.843 47.843h-112.15v3.489z" clip-rule="evenodd"/><path fill="#c11f09" fill-rule="evenodd" d="M455.582 292.92c28.35 0 51.332-22.982 51.332-51.332V220h-3.489l.001 21.588c0 26.423-21.421 47.843-47.844 47.843H343.433v3.489z" clip-rule="evenodd"/><path fill="#000" fill-rule="evenodd" d="M455.584 287.744c28.349 0 51.331-22.982 51.331-51.332V220h-3.489v16.412c.001 26.423-21.419 47.843-47.843 47.843l-112.15.001v3.488z" clip-rule="evenodd"/><path fill="#f0e442" fill-rule="evenodd" d="M70.022 284.256c-28.35 0-51.332 22.982-51.332 51.331v31.939h3.489v-31.939c0-26.423 21.42-47.843 47.843-47.843h112.15v-3.488z" clip-rule="evenodd"/><path fill="#0072b2" fill-rule="evenodd" d="M70.021 289.432c-28.35 0-51.332 22.982-51.332 51.331v26.763h3.489v-26.763c0-26.423 21.42-47.843 47.843-47.843h112.15v-3.488z" clip-rule="evenodd"/><path fill="#c11f09" fill-rule="evenodd" d="M70.022 294.605c-28.35 0-51.332 22.982-51.332 51.332v21.589h3.489v-21.589c0-26.423 21.42-47.843 47.843-47.843h112.15v-3.488z" clip-rule="evenodd"/><path fill="#000" fill-rule="evenodd" d="M70.021 299.781c-28.35 0-51.332 22.982-51.332 51.332v16.413h3.489v-16.413c0-26.423 21.42-47.843 47.843-47.843h112.15v-3.489z" clip-rule="evenodd"/><path fill="#f0e442" fill-rule="evenodd" d="M70.021 422.27c-28.35 0-51.332-22.982-51.332-51.332V350h3.489v20.938c0 26.423 21.42 47.843 47.843 47.843h119.412v3.489z" clip-rule="evenodd"/><path fill="#0072b2" fill-rule="evenodd" d="M70.02 417.094c-28.35 0-51.331-22.982-51.331-51.331V350.5h3.488v15.263c0 26.423 21.42 47.843 47.843 47.843h119.913v3.488z" clip-rule="evenodd"/><path fill="#c11f09" fill-rule="evenodd" d="M70.021 411.92c-28.35 0-51.332-22.982-51.332-51.331V350h3.489v10.589c0 26.423 21.42 47.843 47.843 47.843h121.912v3.488z" clip-rule="evenodd"/><path fill="#000" fill-rule="evenodd" d="M70.02 406.745c-28.35 0-51.331-22.982-51.331-51.332V349.5h3.488v5.913c0 26.423 21.42 47.843 47.843 47.843h123.913v3.488z" clip-rule="evenodd"/><g filter="url(#a)" opacity=".5"><path fill="#d9d9d9" d="M403.476 71.352V17H267.887l.569 7.496h-15.763l.583-7.496H138.412v214.355h114.93l-.649 5.645h15.763l-.583-5.645h135.603V220.13l9.436-11.291V80.752zm1.932 134.777-9.436 11.29v6.439H145.916V24.496h103.005l-.436 5.606h24.166l-.423-5.606h123.744v49.976l9.436 9.4z"/><path fill="#ededed" d="M395.971 74.473V24.496h-21.678v35.565c0 4.138-3.361 7.496-7.504 7.496h-15.061c-4.142 0-7.504-3.358-7.504-7.497V24.498h-71.996l.423 5.605h-24.166l.436-5.605H145.916v199.361h198.308V188.28c0-4.138 3.362-7.496 7.504-7.496h15.061c4.143 0 7.504 3.358 7.504 7.496v35.578h21.678v-6.438l9.437-11.291V83.873zM206.213 30.485a5.217 5.217 0 0 1 5.215 5.222c0 2.882-2.33 5.21-5.215 5.21s-5.228-2.328-5.228-5.21a5.23 5.23 0 0 1 5.228-5.222m-3.759 187.37c-2.885 0-5.227-2.327-5.227-5.209a5.23 5.23 0 0 1 5.227-5.223 5.217 5.217 0 0 1 5.215 5.223 5.205 5.205 0 0 1-5.215 5.209m41.041-27.156h-76.126a4.663 4.663 0 0 1-4.658-4.654 4.663 4.663 0 0 1 4.658-4.654h76.126a4.663 4.663 0 0 1 4.659 4.654 4.663 4.663 0 0 1-4.659 4.654m0-20.625h-76.126a4.655 4.655 0 0 1-4.658-4.654c0-2.565 2.091-4.641 4.658-4.641h76.126c2.568 0 4.659 2.076 4.659 4.641a4.655 4.655 0 0 1-4.659 4.654m0-20.612h-76.126a4.663 4.663 0 0 1-4.658-4.654 4.663 4.663 0 0 1 4.658-4.654h76.126a4.663 4.663 0 0 1 4.659 4.654 4.663 4.663 0 0 1-4.659 4.654m0-20.506h-76.126a4.663 4.663 0 0 1-4.658-4.654 4.663 4.663 0 0 1 4.658-4.654h76.126a4.663 4.663 0 0 1 4.659 4.654 4.663 4.663 0 0 1-4.659 4.654m0-20.797h-76.126a4.655 4.655 0 0 1-4.658-4.654c0-2.565 2.091-4.64 4.658-4.64h76.126c2.568 0 4.659 2.075 4.659 4.64a4.655 4.655 0 0 1-4.659 4.654m0-20.559h-76.126a4.663 4.663 0 0 1-4.658-4.654 4.663 4.663 0 0 1 4.658-4.654h76.126a4.663 4.663 0 0 1 4.659 4.654 4.663 4.663 0 0 1-4.659 4.654m0-20.638h-76.126a4.654 4.654 0 0 1-4.658-4.654c0-2.565 2.091-4.64 4.658-4.64h76.126c2.568 0 4.659 2.075 4.659 4.64a4.655 4.655 0 0 1-4.659 4.654m150.61 18.999a5.227 5.227 0 0 1 5.228 5.222c0 2.882-2.342 5.21-5.228 5.21a5.213 5.213 0 0 1-5.214-5.21 5.224 5.224 0 0 1 5.214-5.222m.093 113.12a5.23 5.23 0 0 1-5.228-5.222c0-2.883 2.343-5.21 5.228-5.21a5.205 5.205 0 0 1 5.214 5.21 5.216 5.216 0 0 1-5.214 5.222"/><path fill="#d9d9d9" d="M366.789 180.784h-15.061c-4.143 0-7.504 3.358-7.504 7.496v35.578h30.069V188.28c0-4.138-3.362-7.496-7.504-7.496m-1.588 15.297c0 .092-.014.198-.027.29 0 .053 0 .106-.013.172 0 .053-.013.106-.013.159-.014.132-.04.278-.08.423v.013c-.04.146-.079.278-.119.423-.066.185-.132.371-.212.542a4.5 4.5 0 0 1-.516.966 4.3 4.3 0 0 1-.437.568v.013a5 5 0 0 1-.436.45 3 3 0 0 1-.49.41c-.093.092-.199.158-.304.224-.067.053-.133.106-.212.133-.053.039-.119.066-.172.092a5.85 5.85 0 0 1-2.938.793 5.97 5.97 0 0 1-5.982-5.976c0-.846.172-1.639.503-2.366a5.7 5.7 0 0 1 1.244-1.864 6.02 6.02 0 0 1 4.235-1.745 5.973 5.973 0 0 1 5.982 5.975c0 .106 0 .199-.013.305"/><path fill="#ededed" d="M112.433 17v214.355h25.979V17zm15.021 205.364a5.97 5.97 0 0 1-5.982-5.976 5.973 5.973 0 0 1 5.982-5.976 5.973 5.973 0 0 1 5.982 5.976 5.97 5.97 0 0 1-5.982 5.976m0-184.422a5.98 5.98 0 0 1-5.982-5.976 5.973 5.973 0 0 1 5.982-5.976 5.973 5.973 0 0 1 5.982 5.976 5.98 5.98 0 0 1-5.982 5.976"/><path fill="#d9d9d9" d="M344.224 24.497v35.565c0 4.138 3.361 7.496 7.504 7.496h15.061c4.142 0 7.504-3.358 7.504-7.497V24.498zm15.008 34.057a5.984 5.984 0 0 1-5.982-5.989 5.98 5.98 0 0 1 5.982-5.976 5.98 5.98 0 0 1 5.982 5.976 5.984 5.984 0 0 1-5.982 5.99"/></g><path fill="#f0e442" fill-rule="evenodd" d="M455.582 160.256c28.35 0 51.332 22.982 51.332 51.331V238h-3.488v-26.413c0-26.423-21.421-47.843-47.844-47.843h-112.15v-3.488z" clip-rule="evenodd"/><path fill="#0072b2" fill-rule="evenodd" d="M455.583 165.431c28.35 0 51.332 22.982 51.332 51.332V237.5h-3.489v-20.737c0-26.423-21.42-47.843-47.843-47.843h-112.15v-3.489z" clip-rule="evenodd"/><path fill="#c11f09" fill-rule="evenodd" d="M455.582 170.605c28.35 0 51.332 22.982 51.332 51.332V237.5h-3.488v-15.563c0-26.423-21.421-47.843-47.844-47.843h-112.15v-3.489z" clip-rule="evenodd"/><path fill="#000" fill-rule="evenodd" d="M455.584 175.781c28.35 0 51.332 22.982 51.332 51.331V238h-3.489v-10.888c0-26.422-21.42-47.843-47.843-47.843h-112.15v-3.488z" clip-rule="evenodd"/><g filter="url(#b)"><path fill="#057582" fill-rule="evenodd" d="M403.974 82.254c0-1.09-.5-2.055-1.272-2.708l-7.119-7.124v-.02a3.55 3.55 0 0 1-1.068-2.4h-.015V27.976a3.56 3.56 0 0 0-3.558-3.56H151.871v-.008l-.366.017-.361.059-.35.084-.349.123-.333.162-.314.18-.291.218-.274.246-.249.275-.218.294-.179.313-.163.333-.123.35-.087.35-.056.362-.016.366v191.646l.016.369.056.361.087.35.123.353.163.33.179.314.218.294.249.275.274.249.291.215.314.182.333.16.349.123.35.084.361.056.366.02h238.893l.37-.02.361-.056.352-.084.35-.123.33-.16.314-.182.293-.215.277-.249.247-.275.215-.294.182-.314.159-.33.124-.353.084-.35.059-.361.019-.369v-5.746l8.398-8.403.062-.062a3.55 3.55 0 0 0 1.014-2.484zm-9.558 105.683c-3.931 0-7.135 3.206-7.135 7.142 0 3.931 3.204 7.137 7.135 7.137 3.934 0 7.132-3.206 7.132-7.137 0-3.936-3.198-7.142-7.132-7.142M196.544 33.894c0-3.934 3.204-7.137 7.138-7.137 3.931 0 7.132 3.203 7.132 7.137s-3.201 7.14-7.132 7.14c-3.934 0-7.138-3.206-7.138-7.14m3.713 172.92c-3.934 0-7.138 3.205-7.138 7.142 0 3.931 3.204 7.137 7.138 7.137 3.931 0 7.133-3.206 7.133-7.137 0-3.937-3.202-7.142-7.133-7.142m187.024-116.03c0-3.936 3.204-7.136 7.135-7.136 3.934 0 7.132 3.2 7.132 7.137 0 3.934-3.198 7.137-7.132 7.137-3.931 0-7.135-3.2-7.135-7.137" clip-rule="evenodd"/><path fill="#000" d="M225.643 114.464h-77.505V172.2h77.505zM191.107 179.873h-49.311v24.804h49.311zM208.042 187.677h-5.646v10.092h5.646zM248.837 104.105h-5.646v10.093h5.646zM197.037 72.97h-5.243v8.04h5.243zM197.037 83.525h-5.243v8.038h5.243zM258.536 179.449h-25.043v12.727h25.043zM255.337 135.529h-14.745v11.219h14.745zM224.787 95.572h-14.746v7.582h14.746zM389.712 29.148H213.26v9.486h176.452zM389.712 209.282H247.766v9.486h141.946zM187.271 79.733h-10.818v4.758h10.818zM199.886 56.813h-10.818v4.758h10.818zM389.494 146.586h-10.817v4.758h10.817zM402.034 146.586h-10.817v4.758h10.817zM231.239 57.677h-27.65V76.22h27.65zM363.109 71.287h-36.89v37.104h36.89zM399.368 105.413h-18.445v27.667h18.445z"/><path fill="#7f8c8d" d="M182.39 27.541h-22.382v22.396h22.382z"/><path fill="#eaeaeb" d="M177.32 38.738a6.125 6.125 0 0 1-6.122 6.129 6.126 6.126 0 0 1-6.123-6.129 6.126 6.126 0 0 1 6.123-6.126 6.124 6.124 0 0 1 6.122 6.126"/><path fill="#9e846d" d="M273.715 211.65h-4.737v4.751h4.737v-4.751M283.194 211.65h-4.737v4.751h4.737v-4.751M292.673 211.65h-4.737v4.751h4.737v-4.751M302.151 211.65h-4.737v4.751h4.737v-4.751M311.63 211.65h-4.737v4.751h4.737v-4.751M321.108 211.65h-4.737v4.751h4.737v-4.751M264.288 211.65h-4.737v4.751h4.737v-4.751M254.862 211.65h-4.737v4.751h4.737v-4.751M340.043 211.65h-4.737v4.751h4.737v-4.751M349.521 211.65h-4.737v4.751h4.737v-4.751M359.001 211.65h-4.737v4.751h4.737v-4.751M368.48 211.65h-4.738v4.751h4.738v-4.751M377.958 211.65h-4.737v4.751h4.737v-4.751M387.436 211.65h-4.737v4.751h4.737v-4.751M239.584 31.514h-4.74v4.752h4.74v-4.752M230.096 31.514h-4.74v4.752h4.74v-4.752M220.633 31.514h-4.74v4.752h4.74v-4.752M277.405 31.514h-4.737v4.752h4.737v-4.752M301.091 31.52l-.002 4.74h4.748l.001-4.739h-.012v-.004zM282.133 31.52l-.002 4.74h4.748l.001-4.739h-.012v-.004zM263.188 31.52l-.002 4.74h4.748v-4.739h-.012v-.004zM253.79 31.52l-.002 4.74h4.749v-4.739h-.012v-.004zM244.316 31.52l-.002 4.74h4.749v-4.739h-.012v-.004zM340.049 31.514h-4.74v4.752h4.74v-4.752M325.828 31.519l-.002 4.742.006.002 4.731-.002h.012v-4.74h-.012l-.002-.002zM316.353 31.519l-.001 4.742.005.002 4.731-.002h.012v-4.74h-.012l-.002-.002zM344.779 31.52v4.739h.008l4.727.002h.012v-4.74l-.01-.002-.002-.002zM354.176 31.52v4.739h.008l4.726.002h.012v-4.74l-.009-.002-.003-.002zM363.649 31.52l-.002 4.74h4.737l.014-.001v-4.74l-.014.002-.002-.002zM373.115 31.52l-.002 4.74h4.737l.014-.001v-4.74l-.014.002-.002-.002zM382.602 31.52v4.74l.005.002h4.741v-4.74l-.01-.002-.002-.002zM291.613 31.52l-.002 4.74h4.749v-4.739h-.012v-.004z"/><path fill="#7f8c8d" d="M266.738 150.171h-17.835v17.846h17.835zM188.061 93.024h-12.36v17.846h12.36zM223.848 116.771h-50.375v52.876h50.375z"/><path fill="#9e846d" d="M155.132 219.883a3.64 3.64 0 0 0 3.638-3.641 3.64 3.64 0 0 0-3.638-3.64 3.64 3.64 0 0 0-3.638 3.64 3.64 3.64 0 0 0 3.638 3.641"/><path fill="#ddd5cc" d="M155.131 218.234a1.99 1.99 0 1 0-.002-3.982 1.99 1.99 0 0 0 .002 3.982"/><path fill="#7f8c8d" d="M214.014 217.564a3.31 3.31 0 0 0 3.31-3.312 3.311 3.311 0 1 0-3.31 3.312"/><path fill="#cad2d2" d="M214.013 216.243a1.991 1.991 0 1 0-.002-3.982 1.991 1.991 0 0 0 .002 3.982"/><path fill="#7f8c8d" d="M223.509 217.564a3.31 3.31 0 0 0 3.31-3.312 3.311 3.311 0 1 0-3.31 3.312"/><path fill="#cad2d2" d="M223.509 216.243a1.99 1.99 0 0 0 1.989-1.992 1.99 1.99 0 1 0-3.979 0c0 1.1.89 1.992 1.99 1.992"/><path fill="#7f8c8d" d="M233.005 217.564a3.31 3.31 0 0 0 3.31-3.312 3.311 3.311 0 1 0-3.31 3.312"/><path fill="#cad2d2" d="M233.005 216.243a1.991 1.991 0 1 0-.002-3.982 1.991 1.991 0 0 0 .002 3.982"/><path fill="#eba900" d="M246.688 68.631a2.715 2.715 0 1 0 0-5.435 2.715 2.715 0 0 0 0 5.435M246.688 89.596a2.715 2.715 0 1 0 0-5.435 2.715 2.715 0 0 0 0 5.435M390.265 78.422a2.715 2.715 0 0 0 2.714-2.716 2.715 2.715 0 1 0-5.429 0c0 1.5 1.215 2.716 2.715 2.716M276.058 127.158a2.716 2.716 0 0 0 0-5.433 2.716 2.716 0 0 0 0 5.433M283.972 127.158a2.716 2.716 0 0 0 0-5.433 2.716 2.716 0 0 0 0 5.433M291.886 127.158a2.717 2.717 0 0 0 0-5.433 2.716 2.716 0 0 0 0 5.433M299.799 127.158a2.717 2.717 0 0 0 0-5.433 2.716 2.716 0 0 0 0 5.433M307.713 127.158a2.717 2.717 0 0 0 0-5.433 2.716 2.716 0 0 0 0 5.433M315.627 127.158a2.717 2.717 0 0 0 0-5.433 2.716 2.716 0 0 0 0 5.433M323.54 127.158a2.717 2.717 0 0 0 0-5.433 2.716 2.716 0 0 0 0 5.433M331.455 127.158a2.717 2.717 0 0 0 0-5.433 2.716 2.716 0 0 0 0 5.433M339.368 127.158a2.717 2.717 0 0 0 0-5.433 2.716 2.716 0 0 0 0 5.433M347.281 127.158a2.716 2.716 0 1 0-.002-5.432 2.716 2.716 0 0 0 .002 5.432M355.196 127.158a2.716 2.716 0 1 0-.002-5.432 2.716 2.716 0 0 0 .002 5.432M363.108 127.158a2.716 2.716 0 0 0 0-5.433 2.716 2.716 0 0 0 0 5.433M276.058 135.077a2.716 2.716 0 0 0 0-5.433 2.716 2.716 0 0 0 0 5.433M283.972 135.077a2.716 2.716 0 0 0 0-5.433 2.716 2.716 0 0 0 0 5.433M291.886 135.077a2.717 2.717 0 0 0 0-5.433 2.716 2.716 0 0 0 0 5.433M299.799 135.077a2.717 2.717 0 0 0 0-5.433 2.716 2.716 0 0 0 0 5.433M307.713 135.077a2.717 2.717 0 0 0 0-5.433 2.716 2.716 0 0 0 0 5.433M315.627 135.077a2.717 2.717 0 0 0 0-5.433 2.716 2.716 0 0 0 0 5.433M323.54 135.077a2.717 2.717 0 0 0 0-5.433 2.716 2.716 0 0 0 0 5.433M331.455 135.077a2.717 2.717 0 0 0 0-5.433 2.716 2.716 0 0 0 0 5.433M339.368 135.077a2.717 2.717 0 0 0 0-5.433 2.716 2.716 0 0 0 0 5.433M347.281 135.077a2.716 2.716 0 1 0-.002-5.432 2.716 2.716 0 0 0 .002 5.432M355.196 135.077a2.716 2.716 0 1 0-.002-5.432 2.716 2.716 0 0 0 .002 5.432M363.108 135.077a2.716 2.716 0 0 0 0-5.433 2.716 2.716 0 0 0 0 5.433M276.058 142.995a2.716 2.716 0 0 0 0-5.433 2.716 2.716 0 0 0 0 5.433M283.972 142.995a2.716 2.716 0 0 0 0-5.433 2.716 2.716 0 0 0 0 5.433M291.886 142.995a2.717 2.717 0 0 0 0-5.433 2.716 2.716 0 0 0 0 5.433M299.799 142.995a2.717 2.717 0 0 0 0-5.433 2.716 2.716 0 0 0 0 5.433M307.713 142.995a2.717 2.717 0 0 0 0-5.433 2.716 2.716 0 0 0 0 5.433M315.627 142.995a2.717 2.717 0 0 0 0-5.433 2.716 2.716 0 0 0 0 5.433M323.54 142.995a2.717 2.717 0 0 0 0-5.433 2.716 2.716 0 0 0 0 5.433M331.455 142.995a2.717 2.717 0 0 0 0-5.433 2.716 2.716 0 0 0 0 5.433M339.368 142.995a2.717 2.717 0 0 0 0-5.433 2.716 2.716 0 0 0 0 5.433M347.281 142.995a2.716 2.716 0 1 0-.002-5.432 2.716 2.716 0 0 0 .002 5.432M355.196 142.995a2.716 2.716 0 1 0-.002-5.432 2.716 2.716 0 0 0 .002 5.432M363.108 142.995a2.716 2.716 0 0 0 0-5.433 2.716 2.716 0 0 0 0 5.433M276.058 150.913a2.716 2.716 0 0 0 0-5.433 2.716 2.716 0 0 0 0 5.433M283.972 150.913a2.716 2.716 0 0 0 0-5.433 2.716 2.716 0 0 0 0 5.433M291.886 150.913a2.716 2.716 0 1 0-.002-5.432 2.716 2.716 0 0 0 .002 5.432M299.799 150.913a2.716 2.716 0 1 0-.002-5.432 2.716 2.716 0 0 0 .002 5.432M307.713 150.913a2.716 2.716 0 1 0-.002-5.432 2.716 2.716 0 0 0 .002 5.432M315.627 150.913a2.716 2.716 0 1 0-.002-5.432 2.716 2.716 0 0 0 .002 5.432M323.54 150.913a2.716 2.716 0 1 0-.002-5.432 2.716 2.716 0 0 0 .002 5.432M331.455 150.913a2.716 2.716 0 1 0-.002-5.432 2.716 2.716 0 0 0 .002 5.432M339.368 150.913a2.716 2.716 0 1 0-.002-5.432 2.716 2.716 0 0 0 .002 5.432M347.281 150.913a2.716 2.716 0 1 0-.002-5.434 2.716 2.716 0 0 0 .002 5.434M355.196 150.913a2.716 2.716 0 1 0-.002-5.434 2.716 2.716 0 0 0 .002 5.434M363.108 150.913a2.716 2.716 0 0 0 0-5.433 2.716 2.716 0 0 0 0 5.433M276.058 158.832a2.716 2.716 0 0 0 0-5.433 2.716 2.716 0 0 0 0 5.433M283.972 158.832a2.716 2.716 0 0 0 0-5.433 2.716 2.716 0 0 0 0 5.433M291.886 158.832a2.716 2.716 0 1 0-.002-5.432 2.716 2.716 0 0 0 .002 5.432M299.799 158.832a2.716 2.716 0 1 0-.002-5.432 2.716 2.716 0 0 0 .002 5.432M307.713 158.832a2.716 2.716 0 1 0-.002-5.432 2.716 2.716 0 0 0 .002 5.432M315.627 158.832a2.716 2.716 0 1 0-.002-5.432 2.716 2.716 0 0 0 .002 5.432M323.54 158.832a2.716 2.716 0 1 0-.002-5.432 2.716 2.716 0 0 0 .002 5.432M331.455 158.832a2.716 2.716 0 1 0-.002-5.432 2.716 2.716 0 0 0 .002 5.432M339.368 158.832a2.716 2.716 0 1 0-.002-5.432 2.716 2.716 0 0 0 .002 5.432M347.281 158.832a2.716 2.716 0 1 0-.002-5.434 2.716 2.716 0 0 0 .002 5.434M355.196 158.832a2.716 2.716 0 1 0-.002-5.434 2.716 2.716 0 0 0 .002 5.434M363.108 158.832a2.716 2.716 0 0 0 0-5.433 2.716 2.716 0 0 0 0 5.433M276.058 166.752a2.715 2.715 0 0 0 2.714-2.716 2.715 2.715 0 1 0-5.429 0c0 1.5 1.215 2.716 2.715 2.716M283.972 166.752a2.715 2.715 0 0 0 2.714-2.716 2.715 2.715 0 1 0-5.429 0c0 1.5 1.215 2.716 2.715 2.716M291.886 166.752a2.716 2.716 0 1 0-.002-5.432 2.716 2.716 0 0 0 .002 5.432M299.799 166.752a2.716 2.716 0 1 0-.002-5.432 2.716 2.716 0 0 0 .002 5.432M307.713 166.752a2.716 2.716 0 1 0-.002-5.432 2.716 2.716 0 0 0 .002 5.432M315.627 166.752a2.716 2.716 0 1 0-.002-5.432 2.716 2.716 0 0 0 .002 5.432M323.54 166.752a2.716 2.716 0 1 0-.002-5.432 2.716 2.716 0 0 0 .002 5.432M331.455 166.752a2.716 2.716 0 1 0-.002-5.432 2.716 2.716 0 0 0 .002 5.432M339.368 166.752a2.716 2.716 0 1 0-.002-5.432 2.716 2.716 0 0 0 .002 5.432M347.281 166.752c1.5 0 2.715-1.216 2.715-2.716a2.715 2.715 0 1 0-2.715 2.716M355.196 166.752c1.5 0 2.715-1.216 2.715-2.716a2.715 2.715 0 1 0-2.715 2.716M363.108 166.752c1.5 0 2.715-1.216 2.715-2.716a2.715 2.715 0 1 0-2.715 2.716M276.058 174.671a2.715 2.715 0 0 0 2.714-2.716 2.715 2.715 0 1 0-5.429 0c0 1.5 1.215 2.716 2.715 2.716M283.972 174.671a2.715 2.715 0 0 0 2.714-2.716 2.715 2.715 0 1 0-5.429 0c0 1.5 1.215 2.716 2.715 2.716M291.886 174.671a2.716 2.716 0 1 0-.002-5.432 2.716 2.716 0 0 0 .002 5.432M299.799 174.671a2.716 2.716 0 1 0-.002-5.432 2.716 2.716 0 0 0 .002 5.432M307.713 174.671a2.716 2.716 0 1 0-.002-5.432 2.716 2.716 0 0 0 .002 5.432M315.627 174.671a2.716 2.716 0 1 0-.002-5.432 2.716 2.716 0 0 0 .002 5.432M323.54 174.671a2.716 2.716 0 1 0-.002-5.432 2.716 2.716 0 0 0 .002 5.432M331.455 174.671a2.716 2.716 0 1 0-.002-5.432 2.716 2.716 0 0 0 .002 5.432M339.368 174.671a2.716 2.716 0 1 0-.002-5.432 2.716 2.716 0 0 0 .002 5.432M347.281 174.671c1.5 0 2.715-1.216 2.715-2.716a2.715 2.715 0 1 0-2.715 2.716M355.196 174.671c1.5 0 2.715-1.216 2.715-2.716a2.715 2.715 0 1 0-2.715 2.716M363.108 174.671c1.5 0 2.715-1.216 2.715-2.716a2.715 2.715 0 1 0-2.715 2.716M276.058 182.59a2.715 2.715 0 0 0 2.714-2.717 2.715 2.715 0 1 0-5.429 0 2.715 2.715 0 0 0 2.715 2.717M283.972 182.59a2.715 2.715 0 0 0 2.714-2.717 2.715 2.715 0 1 0-5.429 0 2.715 2.715 0 0 0 2.715 2.717M291.886 182.59a2.716 2.716 0 1 0-.002-5.432 2.716 2.716 0 0 0 .002 5.432M299.799 182.59a2.716 2.716 0 1 0-.002-5.432 2.716 2.716 0 0 0 .002 5.432M307.713 182.59a2.716 2.716 0 1 0-.002-5.432 2.716 2.716 0 0 0 .002 5.432M315.627 182.59a2.716 2.716 0 1 0-.002-5.432 2.716 2.716 0 0 0 .002 5.432M323.54 182.59a2.716 2.716 0 1 0-.002-5.432 2.716 2.716 0 0 0 .002 5.432M331.455 182.59a2.716 2.716 0 1 0-.002-5.432 2.716 2.716 0 0 0 .002 5.432M339.368 182.59a2.716 2.716 0 1 0-.002-5.432 2.716 2.716 0 0 0 .002 5.432M347.281 182.59c1.5 0 2.715-1.216 2.715-2.717a2.715 2.715 0 1 0-5.43 0 2.716 2.716 0 0 0 2.715 2.717M355.196 182.59c1.5 0 2.715-1.216 2.715-2.717a2.715 2.715 0 1 0-5.43 0 2.716 2.716 0 0 0 2.715 2.717M363.108 182.59c1.5 0 2.715-1.216 2.715-2.717a2.715 2.715 0 1 0-5.429 0 2.715 2.715 0 0 0 2.714 2.717M246.688 98.353a2.715 2.715 0 1 0 0-5.435 2.715 2.715 0 0 0 0 5.435"/><path fill="#7f8c8d" d="M168.534 65.184h-26.048v33.172h26.048zM402.328 158.444h-15.392v23.385h15.392z"/></g><g filter="url(#c)"><path fill="#057582" d="M203.393 246H82.446c-9.4 0-17.013 7.613-17.013 17v61.84c0 9.387 7.613 17 17.013 17h120.947c9.386 0 17-7.613 17-17V263c0-9.387-7.614-17-17-17m-46.08 1.133a3.58 3.58 0 0 1 3.586 3.587 3.58 3.58 0 0 1-3.586 3.587 3.58 3.58 0 0 1-3.587-3.587 3.58 3.58 0 0 1 3.587-3.587m-9.6 0a3.58 3.58 0 0 1 3.586 3.587 3.58 3.58 0 0 1-3.586 3.587 3.58 3.58 0 0 1-3.587-3.587 3.58 3.58 0 0 1 3.587-3.587m-9.6 0a3.58 3.58 0 0 1 3.586 3.587 3.58 3.58 0 0 1-3.586 3.587 3.58 3.58 0 0 1-3.587-3.587 3.58 3.58 0 0 1 3.587-3.587m-9.6 0a3.58 3.58 0 0 1 3.586 3.587 3.58 3.58 0 0 1-3.586 3.587 3.58 3.58 0 0 1-3.587-3.587 3.58 3.58 0 0 1 3.587-3.587m-46.067 87.6c-5.853 0-10.587-4.733-10.587-10.573a10.58 10.58 0 0 1 10.587-10.587c5.84 0 10.573 4.734 10.573 10.587 0 5.84-4.733 10.573-10.573 10.573m0-60.466c-5.853 0-10.587-4.747-10.587-10.587s4.734-10.587 10.587-10.587c5.84 0 10.573 4.747 10.573 10.587s-4.733 10.587-10.573 10.587m17.267 66.813c-2.187 0-3.974-1.773-3.974-3.96a3.974 3.974 0 0 1 7.947 0c0 2.187-1.787 3.96-3.973 3.96m9.6 0c-2.187 0-3.974-1.773-3.974-3.96a3.975 3.975 0 0 1 7.947 0c0 2.187-1.787 3.96-3.973 3.96m9.6 0c-2.187 0-3.974-1.773-3.974-3.96a3.975 3.975 0 0 1 7.947 0c0 2.187-1.787 3.96-3.973 3.96m9.6 0c-2.187 0-3.974-1.773-3.974-3.96a3.975 3.975 0 0 1 7.947 0c0 2.187-1.787 3.96-3.973 3.96m9.6 0c-2.187 0-3.974-1.773-3.974-3.96a3.975 3.975 0 0 1 7.947 0c0 2.187-1.787 3.96-3.973 3.96m9.6 0c-2.187 0-3.974-1.773-3.974-3.96a3.975 3.975 0 0 1 7.947 0c0 2.187-1.787 3.96-3.973 3.96m9.6 0c-2.187 0-3.974-1.773-3.974-3.96a3.975 3.975 0 0 1 7.947 0c0 2.187-1.787 3.96-3.973 3.96m9.6 0c-2.187 0-3.974-1.773-3.974-3.96a3.975 3.975 0 0 1 7.947 0c0 2.187-1.787 3.96-3.973 3.96m9.6 0c-2.187 0-3.974-1.773-3.974-3.96a3.975 3.975 0 0 1 7.947 0c0 2.187-1.787 3.96-3.973 3.96m9.6 0c-2.187 0-3.974-1.773-3.974-3.96a3.975 3.975 0 0 1 7.947 0c0 2.187-1.787 3.96-3.973 3.96m17.28-6.347c-5.854 0-10.587-4.733-10.587-10.573a10.58 10.58 0 0 1 10.587-10.587c5.84 0 10.573 4.734 10.573 10.587 0 5.84-4.733 10.573-10.573 10.573m0-60.466c-5.854 0-10.587-4.747-10.587-10.587s4.733-10.587 10.587-10.587c5.84 0 10.573 4.747 10.573 10.587s-4.733 10.587-10.573 10.587"/><path fill="#929d9e" d="M82.937 308.199H76.15v3.026h6.787z"/><path fill="#ebaa01" d="M79.544 311.889a2.177 2.177 0 1 0 0-4.354 2.177 2.177 0 0 0 0 4.354"/><path fill="#b7bfbf" fill-rule="evenodd" d="M186.113 333.146a3.975 3.975 0 0 0-3.973 3.974c0 2.187 1.786 3.96 3.973 3.96s3.973-1.773 3.973-3.96c0-2.2-1.786-3.974-3.973-3.974m0 5.854c-1.04 0-1.893-.84-1.893-1.88 0-1.054.853-1.894 1.893-1.894s1.893.84 1.893 1.894c0 1.04-.853 1.88-1.893 1.88M176.512 333.146a3.975 3.975 0 0 0-3.973 3.974c0 2.187 1.787 3.96 3.973 3.96s3.974-1.773 3.974-3.96c0-2.2-1.787-3.974-3.974-3.974m0 5.854c-1.04 0-1.893-.84-1.893-1.88a1.893 1.893 0 1 1 3.787 0 1.89 1.89 0 0 1-1.894 1.88M166.913 333.146a3.976 3.976 0 0 0-3.974 3.974c0 2.187 1.787 3.96 3.974 3.96 2.186 0 3.973-1.773 3.973-3.96 0-2.2-1.787-3.974-3.973-3.974m0 5.854a1.89 1.89 0 0 1-1.894-1.88 1.893 1.893 0 1 1 3.787 0c0 1.04-.853 1.88-1.893 1.88M157.313 333.146a3.975 3.975 0 0 0-3.973 3.974c0 2.187 1.787 3.96 3.973 3.96s3.974-1.773 3.974-3.96c0-2.2-1.787-3.974-3.974-3.974m0 5.854c-1.04 0-1.893-.84-1.893-1.88a1.893 1.893 0 1 1 3.787 0 1.89 1.89 0 0 1-1.894 1.88M147.713 333.146a3.976 3.976 0 0 0-3.974 3.974c0 2.187 1.787 3.96 3.974 3.96 2.186 0 3.973-1.773 3.973-3.96 0-2.2-1.787-3.974-3.973-3.974m0 5.854a1.89 1.89 0 0 1-1.894-1.88 1.893 1.893 0 1 1 3.787 0c0 1.04-.853 1.88-1.893 1.88M99.713 333.146a3.975 3.975 0 0 0-3.974 3.974c0 2.187 1.787 3.96 3.974 3.96 2.186 0 3.973-1.773 3.973-3.96 0-2.2-1.787-3.974-3.973-3.974m0 5.854a1.89 1.89 0 0 1-1.894-1.88c0-1.054.854-1.894 1.894-1.894s1.893.84 1.893 1.894c0 1.04-.853 1.88-1.893 1.88M109.313 333.146a3.975 3.975 0 0 0-3.973 3.974c0 2.187 1.787 3.96 3.973 3.96s3.974-1.773 3.974-3.96c0-2.2-1.787-3.974-3.974-3.974m0 5.854c-1.04 0-1.893-.84-1.893-1.88a1.893 1.893 0 1 1 3.787 0 1.89 1.89 0 0 1-1.894 1.88M118.913 333.146a3.976 3.976 0 0 0-3.974 3.974c0 2.187 1.787 3.96 3.974 3.96 2.186 0 3.973-1.773 3.973-3.96 0-2.2-1.787-3.974-3.973-3.974m0 5.854a1.89 1.89 0 0 1-1.894-1.88 1.893 1.893 0 1 1 3.787 0c0 1.04-.853 1.88-1.893 1.88M128.512 333.146a3.975 3.975 0 0 0-3.973 3.974c0 2.187 1.787 3.96 3.973 3.96s3.974-1.773 3.974-3.96c0-2.2-1.787-3.974-3.974-3.974m0 5.854c-1.04 0-1.893-.84-1.893-1.88a1.893 1.893 0 1 1 3.787 0 1.89 1.89 0 0 1-1.894 1.88M138.113 333.146a3.975 3.975 0 0 0-3.973 3.974c0 2.187 1.786 3.96 3.973 3.96s3.973-1.773 3.973-3.96c0-2.2-1.786-3.974-3.973-3.974m0 5.854c-1.04 0-1.893-.84-1.893-1.88 0-1.054.853-1.894 1.893-1.894s1.893.84 1.893 1.894c0 1.04-.853 1.88-1.893 1.88M82.446 313.572a10.58 10.58 0 0 0-10.587 10.586c0 5.84 4.734 10.574 10.587 10.574 5.84 0 10.573-4.734 10.573-10.574 0-5.853-4.733-10.586-10.573-10.586m0 16.626a6.046 6.046 0 1 1 0-12.093c3.333 0 6.04 2.707 6.04 6.053a6.043 6.043 0 0 1-6.04 6.04M82.446 253.092c-5.853 0-10.587 4.746-10.587 10.586s4.734 10.587 10.587 10.587c5.84 0 10.573-4.747 10.573-10.587s-4.733-10.586-10.573-10.586m0 16.64a6.05 6.05 0 0 1-6.053-6.054c0-3.333 2.706-6.039 6.053-6.039a6.04 6.04 0 0 1 6.04 6.039c0 3.347-2.707 6.054-6.04 6.054M203.392 253.092c-5.853 0-10.586 4.746-10.586 10.586s4.733 10.587 10.586 10.587c5.84 0 10.574-4.747 10.574-10.587s-4.734-10.586-10.574-10.586m0 16.64a6.05 6.05 0 0 1-6.053-6.054c0-3.333 2.707-6.039 6.053-6.039a6.04 6.04 0 0 1 6.04 6.039c0 3.347-2.706 6.054-6.04 6.054M203.392 313.572a10.58 10.58 0 0 0-10.586 10.586c0 5.84 4.733 10.574 10.586 10.574 5.84 0 10.574-4.734 10.574-10.574 0-5.853-4.734-10.586-10.574-10.586m0 16.626a6.046 6.046 0 1 1 0-12.093 6.046 6.046 0 0 1 6.04 6.053 6.04 6.04 0 0 1-6.04 6.04M128.512 247.132a3.58 3.58 0 0 0-3.586 3.587c0 1.986 1.6 3.586 3.586 3.586a3.58 3.58 0 0 0 3.587-3.586 3.58 3.58 0 0 0-3.587-3.587m0 5.48a1.9 1.9 0 0 1-1.893-1.893 1.9 1.9 0 0 1 1.893-1.894c1.04 0 1.894.853 1.894 1.894a1.9 1.9 0 0 1-1.894 1.893M138.113 247.132a3.58 3.58 0 0 0-3.587 3.587 3.58 3.58 0 0 0 3.587 3.586 3.58 3.58 0 0 0 3.587-3.586 3.58 3.58 0 0 0-3.587-3.587m0 5.48a1.9 1.9 0 0 1-1.893-1.893 1.9 1.9 0 0 1 1.893-1.894 1.9 1.9 0 0 1 1.893 1.894 1.9 1.9 0 0 1-1.893 1.893M147.713 247.132a3.58 3.58 0 0 0-3.587 3.587 3.58 3.58 0 0 0 3.587 3.586c1.986 0 3.586-1.6 3.586-3.586a3.58 3.58 0 0 0-3.586-3.587m0 5.48a1.9 1.9 0 0 1-1.894-1.893c0-1.041.854-1.894 1.894-1.894a1.9 1.9 0 0 1 1.893 1.894 1.9 1.9 0 0 1-1.893 1.893M157.313 247.132a3.58 3.58 0 0 0-3.586 3.587 3.58 3.58 0 0 0 3.586 3.586 3.58 3.58 0 0 0 3.587-3.586 3.58 3.58 0 0 0-3.587-3.587m0 5.48a1.9 1.9 0 0 1-1.893-1.893 1.9 1.9 0 0 1 1.893-1.894c1.04 0 1.894.853 1.894 1.894a1.9 1.9 0 0 1-1.894 1.893" clip-rule="evenodd"/><path fill="#b7bfbf" d="M103.046 290.137h-7.56v7.56h7.56zM115.521 290.137h-7.56v7.56h7.56zM127.996 290.137h-7.56v7.56h7.56zM140.471 290.137h-7.56v7.56h7.56zM152.946 290.137h-7.56v7.56h7.56zM165.421 290.137h-7.56v7.56h7.56zM177.896 290.137h-7.56v7.56h7.56zM190.371 290.137h-7.56v7.56h7.56z"/><path fill="#929d9e" d="M218.028 282.229h-15.394v23.374h15.394zM83.192 282.229H67.798v23.374h15.394z"/><path fill="#000" d="M187.805 253.489h-11.62v11.62h11.62z"/></g><g filter="url(#d)"><path fill="#057582" d="M323.393 365H202.446c-9.4 0-17.013 7.613-17.013 17v61.84c0 9.387 7.613 17 17.013 17h120.947c9.386 0 17-7.613 17-17V382c0-9.387-7.614-17-17-17m-46.08 1.133a3.58 3.58 0 0 1 3.586 3.587 3.58 3.58 0 0 1-3.586 3.587 3.58 3.58 0 0 1-3.587-3.587 3.58 3.58 0 0 1 3.587-3.587m-9.6 0a3.58 3.58 0 0 1 3.586 3.587 3.58 3.58 0 0 1-3.586 3.587 3.58 3.58 0 0 1-3.587-3.587 3.58 3.58 0 0 1 3.587-3.587m-9.6 0a3.58 3.58 0 0 1 3.586 3.587 3.58 3.58 0 0 1-3.586 3.587 3.58 3.58 0 0 1-3.587-3.587 3.58 3.58 0 0 1 3.587-3.587m-9.6 0a3.58 3.58 0 0 1 3.586 3.587 3.58 3.58 0 0 1-3.586 3.587 3.58 3.58 0 0 1-3.587-3.587 3.58 3.58 0 0 1 3.587-3.587m-46.067 87.6c-5.853 0-10.587-4.733-10.587-10.573a10.58 10.58 0 0 1 10.587-10.587c5.84 0 10.573 4.734 10.573 10.587 0 5.84-4.733 10.573-10.573 10.573m0-60.466c-5.853 0-10.587-4.747-10.587-10.587s4.734-10.587 10.587-10.587c5.84 0 10.573 4.747 10.573 10.587s-4.733 10.587-10.573 10.587m26.867 66.813c-2.187 0-3.974-1.773-3.974-3.96a3.975 3.975 0 0 1 7.947 0c0 2.187-1.787 3.96-3.973 3.96m9.6 0c-2.187 0-3.974-1.773-3.974-3.96a3.975 3.975 0 0 1 7.947 0c0 2.187-1.787 3.96-3.973 3.96m9.6 0c-2.187 0-3.974-1.773-3.974-3.96a3.975 3.975 0 0 1 7.947 0c0 2.187-1.787 3.96-3.973 3.96m9.6 0c-2.187 0-3.974-1.773-3.974-3.96a3.975 3.975 0 0 1 7.947 0c0 2.187-1.787 3.96-3.973 3.96m9.6 0c-2.187 0-3.974-1.773-3.974-3.96a3.975 3.975 0 0 1 7.947 0c0 2.187-1.787 3.96-3.973 3.96m9.6 0c-2.187 0-3.974-1.773-3.974-3.96a3.975 3.975 0 0 1 7.947 0c0 2.187-1.787 3.96-3.973 3.96m9.6 0c-2.187 0-3.974-1.773-3.974-3.96a3.975 3.975 0 0 1 7.947 0c0 2.187-1.787 3.96-3.973 3.96m9.6 0c-2.187 0-3.974-1.773-3.974-3.96a3.975 3.975 0 0 1 7.947 0c0 2.187-1.787 3.96-3.973 3.96m26.88-6.347c-5.854 0-10.587-4.733-10.587-10.573a10.58 10.58 0 0 1 10.587-10.587c5.84 0 10.573 4.734 10.573 10.587 0 5.84-4.733 10.573-10.573 10.573m0-60.466c-5.854 0-10.587-4.747-10.587-10.587s4.733-10.587 10.587-10.587c5.84 0 10.573 4.747 10.573 10.587s-4.733 10.587-10.573 10.587"/><path fill="#929d9e" d="M202.937 427.2h-6.787v3.026h6.787z"/><path fill="#ebaa01" d="M199.544 430.89a2.177 2.177 0 1 0 0-4.355 2.177 2.177 0 0 0 0 4.355"/><path fill="#b7bfbf" fill-rule="evenodd" d="M267.713 452.146a3.976 3.976 0 0 0-3.974 3.974c0 2.186 1.787 3.96 3.974 3.96 2.186 0 3.973-1.774 3.973-3.96 0-2.2-1.787-3.974-3.973-3.974m0 5.854a1.89 1.89 0 0 1-1.894-1.88 1.893 1.893 0 1 1 3.787 0c0 1.04-.853 1.88-1.893 1.88M258.113 452.146a3.975 3.975 0 0 0-3.973 3.974c0 2.186 1.786 3.96 3.973 3.96s3.973-1.774 3.973-3.96c0-2.2-1.786-3.974-3.973-3.974m0 5.854c-1.04 0-1.893-.84-1.893-1.88 0-1.054.853-1.894 1.893-1.894s1.893.84 1.893 1.894c0 1.04-.853 1.88-1.893 1.88M248.512 452.146a3.975 3.975 0 0 0-3.973 3.974c0 2.186 1.787 3.96 3.973 3.96s3.974-1.774 3.974-3.96c0-2.2-1.787-3.974-3.974-3.974m0 5.854c-1.04 0-1.893-.84-1.893-1.88a1.893 1.893 0 1 1 3.787 0 1.89 1.89 0 0 1-1.894 1.88M238.913 452.146a3.976 3.976 0 0 0-3.974 3.974c0 2.186 1.787 3.96 3.974 3.96 2.186 0 3.973-1.774 3.973-3.96 0-2.2-1.787-3.974-3.973-3.974m0 5.854a1.89 1.89 0 0 1-1.894-1.88 1.893 1.893 0 1 1 3.787 0c0 1.04-.853 1.88-1.893 1.88M229.313 452.146a3.975 3.975 0 0 0-3.973 3.974c0 2.186 1.787 3.96 3.973 3.96s3.974-1.774 3.974-3.96c0-2.2-1.787-3.974-3.974-3.974m0 5.854c-1.04 0-1.893-.84-1.893-1.88a1.893 1.893 0 1 1 3.787 0 1.89 1.89 0 0 1-1.894 1.88M277.313 452.146a3.975 3.975 0 0 0-3.973 3.974c0 2.186 1.787 3.96 3.973 3.96s3.974-1.774 3.974-3.96c0-2.2-1.787-3.974-3.974-3.974m0 5.854c-1.04 0-1.893-.84-1.893-1.88a1.893 1.893 0 1 1 3.787 0 1.89 1.89 0 0 1-1.894 1.88M286.913 452.146a3.976 3.976 0 0 0-3.974 3.974c0 2.186 1.787 3.96 3.974 3.96 2.186 0 3.973-1.774 3.973-3.96 0-2.2-1.787-3.974-3.973-3.974m0 5.854a1.89 1.89 0 0 1-1.894-1.88 1.893 1.893 0 1 1 3.787 0c0 1.04-.853 1.88-1.893 1.88M296.512 452.146a3.975 3.975 0 0 0-3.973 3.974c0 2.186 1.787 3.96 3.973 3.96s3.974-1.774 3.974-3.96c0-2.2-1.787-3.974-3.974-3.974m0 5.854c-1.04 0-1.893-.84-1.893-1.88a1.893 1.893 0 1 1 3.787 0 1.89 1.89 0 0 1-1.894 1.88M202.446 432.573a10.58 10.58 0 0 0-10.587 10.586c0 5.84 4.734 10.574 10.587 10.574 5.84 0 10.573-4.734 10.573-10.574 0-5.853-4.733-10.586-10.573-10.586m0 16.626a6.045 6.045 0 0 1-6.053-6.04 6.05 6.05 0 0 1 6.053-6.053c3.333 0 6.04 2.707 6.04 6.053a6.043 6.043 0 0 1-6.04 6.04M202.446 372.093c-5.853 0-10.587 4.746-10.587 10.586s4.734 10.587 10.587 10.587c5.84 0 10.573-4.747 10.573-10.587s-4.733-10.586-10.573-10.586m0 16.64a6.05 6.05 0 0 1-6.053-6.054 6.046 6.046 0 0 1 6.053-6.04 6.044 6.044 0 0 1 6.04 6.04c0 3.347-2.707 6.054-6.04 6.054M323.392 372.093c-5.853 0-10.586 4.746-10.586 10.586s4.733 10.587 10.586 10.587c5.84 0 10.574-4.747 10.574-10.587s-4.734-10.586-10.574-10.586m0 16.64a6.05 6.05 0 0 1-6.053-6.054c0-3.333 2.707-6.04 6.053-6.04a6.043 6.043 0 0 1 6.04 6.04c0 3.347-2.706 6.054-6.04 6.054M323.392 432.573a10.58 10.58 0 0 0-10.586 10.586c0 5.84 4.733 10.574 10.586 10.574 5.84 0 10.574-4.734 10.574-10.574 0-5.853-4.734-10.586-10.574-10.586m0 16.626a6.046 6.046 0 1 1 0-12.093 6.046 6.046 0 0 1 6.04 6.053 6.04 6.04 0 0 1-6.04 6.04M248.512 366.133a3.58 3.58 0 0 0-3.586 3.586 3.58 3.58 0 0 0 3.586 3.587 3.58 3.58 0 0 0 3.587-3.587 3.58 3.58 0 0 0-3.587-3.586m0 5.48a1.9 1.9 0 0 1-1.893-1.894 1.9 1.9 0 0 1 1.893-1.893 1.9 1.9 0 0 1 1.894 1.893c0 1.04-.854 1.894-1.894 1.894M258.113 366.133a3.58 3.58 0 0 0-3.587 3.586 3.58 3.58 0 0 0 3.587 3.587 3.58 3.58 0 0 0 3.587-3.587 3.58 3.58 0 0 0-3.587-3.586m0 5.48a1.9 1.9 0 0 1-1.893-1.894 1.9 1.9 0 0 1 1.893-1.893 1.9 1.9 0 0 1 1.893 1.893 1.9 1.9 0 0 1-1.893 1.894M267.713 366.133a3.58 3.58 0 0 0-3.587 3.586 3.58 3.58 0 0 0 3.587 3.587 3.58 3.58 0 0 0 3.586-3.587c0-1.986-1.6-3.586-3.586-3.586m0 5.48a1.9 1.9 0 0 1-1.894-1.894 1.9 1.9 0 0 1 1.894-1.893 1.9 1.9 0 0 1 1.893 1.893 1.9 1.9 0 0 1-1.893 1.894M277.313 366.133a3.58 3.58 0 0 0-3.586 3.586 3.58 3.58 0 0 0 3.586 3.587 3.58 3.58 0 0 0 3.587-3.587 3.58 3.58 0 0 0-3.587-3.586m0 5.48a1.9 1.9 0 0 1-1.893-1.894 1.9 1.9 0 0 1 1.893-1.893 1.9 1.9 0 0 1 1.894 1.893c0 1.04-.854 1.894-1.894 1.894" clip-rule="evenodd"/><path fill="#000" d="M285.607 390.437H240.22v45.387h45.387z"/><path fill="#929d9e" d="M338.028 401.23h-15.394v23.373h15.394zM203.192 401.23h-15.394v23.373h15.394z"/><path fill="#000" d="M307.805 372.489h-11.62v11.621h11.62z"/></g><g filter="url(#e)"><path fill="#057582" d="M443.393 246H322.446c-9.4 0-17.013 7.613-17.013 17v61.84c0 9.387 7.613 17 17.013 17h120.947c9.386 0 17-7.613 17-17V263c0-9.387-7.614-17-17-17m-46.08 1.133a3.58 3.58 0 0 1 3.586 3.587 3.58 3.58 0 0 1-3.586 3.587 3.58 3.58 0 0 1-3.587-3.587 3.58 3.58 0 0 1 3.587-3.587m-9.6 0a3.58 3.58 0 0 1 3.586 3.587 3.58 3.58 0 0 1-3.586 3.587 3.58 3.58 0 0 1-3.587-3.587 3.58 3.58 0 0 1 3.587-3.587m-9.6 0a3.58 3.58 0 0 1 3.586 3.587 3.58 3.58 0 0 1-3.586 3.587 3.58 3.58 0 0 1-3.587-3.587 3.58 3.58 0 0 1 3.587-3.587m-9.6 0a3.58 3.58 0 0 1 3.586 3.587 3.58 3.58 0 0 1-3.586 3.587 3.58 3.58 0 0 1-3.587-3.587 3.58 3.58 0 0 1 3.587-3.587m-46.067 87.6c-5.853 0-10.587-4.733-10.587-10.573a10.58 10.58 0 0 1 10.587-10.587c5.84 0 10.573 4.734 10.573 10.587 0 5.84-4.733 10.573-10.573 10.573m0-60.466c-5.853 0-10.587-4.747-10.587-10.587s4.734-10.587 10.587-10.587c5.84 0 10.573 4.747 10.573 10.587s-4.733 10.587-10.573 10.587m17.267 66.813c-2.187 0-3.974-1.773-3.974-3.96a3.975 3.975 0 0 1 7.947 0c0 2.187-1.787 3.96-3.973 3.96m9.6 0c-2.187 0-3.974-1.773-3.974-3.96a3.975 3.975 0 0 1 7.947 0c0 2.187-1.787 3.96-3.973 3.96m9.6 0c-2.187 0-3.974-1.773-3.974-3.96a3.975 3.975 0 0 1 7.947 0c0 2.187-1.787 3.96-3.973 3.96m9.6 0c-2.187 0-3.974-1.773-3.974-3.96a3.975 3.975 0 0 1 7.947 0c0 2.187-1.787 3.96-3.973 3.96m9.6 0c-2.187 0-3.974-1.773-3.974-3.96a3.975 3.975 0 0 1 7.947 0c0 2.187-1.787 3.96-3.973 3.96m9.6 0c-2.187 0-3.974-1.773-3.974-3.96a3.975 3.975 0 0 1 7.947 0c0 2.187-1.787 3.96-3.973 3.96m9.6 0c-2.187 0-3.974-1.773-3.974-3.96a3.975 3.975 0 0 1 7.947 0c0 2.187-1.787 3.96-3.973 3.96m9.6 0c-2.187 0-3.974-1.773-3.974-3.96a3.975 3.975 0 0 1 7.947 0c0 2.187-1.787 3.96-3.973 3.96m9.6 0c-2.187 0-3.974-1.773-3.974-3.96a3.975 3.975 0 0 1 7.947 0c0 2.187-1.787 3.96-3.973 3.96m9.6 0c-2.187 0-3.974-1.773-3.974-3.96a3.975 3.975 0 0 1 7.947 0c0 2.187-1.787 3.96-3.973 3.96m17.28-6.347c-5.854 0-10.587-4.733-10.587-10.573a10.58 10.58 0 0 1 10.587-10.587c5.84 0 10.573 4.734 10.573 10.587 0 5.84-4.733 10.573-10.573 10.573m0-60.466c-5.854 0-10.587-4.747-10.587-10.587s4.733-10.587 10.587-10.587c5.84 0 10.573 4.747 10.573 10.587s-4.733 10.587-10.573 10.587"/><path fill="#929d9e" d="M322.937 308.2h-6.787v3.026h6.787z"/><path fill="#ebaa01" d="M319.544 311.89a2.177 2.177 0 1 0 0-4.355 2.177 2.177 0 0 0 0 4.355"/><path fill="#b7bfbf" fill-rule="evenodd" d="M426.113 333.146a3.975 3.975 0 0 0-3.973 3.974c0 2.187 1.786 3.96 3.973 3.96s3.973-1.773 3.973-3.96c0-2.2-1.786-3.974-3.973-3.974m0 5.854c-1.04 0-1.893-.84-1.893-1.88 0-1.054.853-1.894 1.893-1.894s1.893.84 1.893 1.894c0 1.04-.853 1.88-1.893 1.88M416.512 333.146a3.975 3.975 0 0 0-3.973 3.974c0 2.187 1.787 3.96 3.973 3.96s3.974-1.773 3.974-3.96c0-2.2-1.787-3.974-3.974-3.974m0 5.854c-1.04 0-1.893-.84-1.893-1.88a1.893 1.893 0 1 1 3.787 0 1.89 1.89 0 0 1-1.894 1.88M406.913 333.146a3.976 3.976 0 0 0-3.974 3.974c0 2.187 1.787 3.96 3.974 3.96 2.186 0 3.973-1.773 3.973-3.96 0-2.2-1.787-3.974-3.973-3.974m0 5.854a1.89 1.89 0 0 1-1.894-1.88 1.893 1.893 0 1 1 3.787 0c0 1.04-.853 1.88-1.893 1.88M397.313 333.146a3.975 3.975 0 0 0-3.973 3.974c0 2.187 1.787 3.96 3.973 3.96s3.974-1.773 3.974-3.96c0-2.2-1.787-3.974-3.974-3.974m0 5.854c-1.04 0-1.893-.84-1.893-1.88a1.893 1.893 0 1 1 3.787 0 1.89 1.89 0 0 1-1.894 1.88M387.713 333.146a3.976 3.976 0 0 0-3.974 3.974c0 2.187 1.787 3.96 3.974 3.96 2.186 0 3.973-1.773 3.973-3.96 0-2.2-1.787-3.974-3.973-3.974m0 5.854a1.89 1.89 0 0 1-1.894-1.88 1.893 1.893 0 1 1 3.787 0c0 1.04-.853 1.88-1.893 1.88M339.713 333.146a3.976 3.976 0 0 0-3.974 3.974c0 2.187 1.787 3.96 3.974 3.96 2.186 0 3.973-1.773 3.973-3.96 0-2.2-1.787-3.974-3.973-3.974m0 5.854a1.89 1.89 0 0 1-1.894-1.88 1.893 1.893 0 1 1 3.787 0c0 1.04-.853 1.88-1.893 1.88M349.313 333.146a3.975 3.975 0 0 0-3.973 3.974c0 2.187 1.787 3.96 3.973 3.96s3.974-1.773 3.974-3.96c0-2.2-1.787-3.974-3.974-3.974m0 5.854c-1.04 0-1.893-.84-1.893-1.88a1.893 1.893 0 1 1 3.787 0 1.89 1.89 0 0 1-1.894 1.88M358.913 333.146a3.976 3.976 0 0 0-3.974 3.974c0 2.187 1.787 3.96 3.974 3.96 2.186 0 3.973-1.773 3.973-3.96 0-2.2-1.787-3.974-3.973-3.974m0 5.854a1.89 1.89 0 0 1-1.894-1.88 1.893 1.893 0 1 1 3.787 0c0 1.04-.853 1.88-1.893 1.88M368.512 333.146a3.975 3.975 0 0 0-3.973 3.974c0 2.187 1.787 3.96 3.973 3.96s3.974-1.773 3.974-3.96c0-2.2-1.787-3.974-3.974-3.974m0 5.854c-1.04 0-1.893-.84-1.893-1.88a1.893 1.893 0 1 1 3.787 0 1.89 1.89 0 0 1-1.894 1.88M378.113 333.146a3.975 3.975 0 0 0-3.973 3.974c0 2.187 1.786 3.96 3.973 3.96s3.973-1.773 3.973-3.96c0-2.2-1.786-3.974-3.973-3.974m0 5.854c-1.04 0-1.893-.84-1.893-1.88 0-1.054.853-1.894 1.893-1.894s1.893.84 1.893 1.894c0 1.04-.853 1.88-1.893 1.88M322.446 313.572a10.58 10.58 0 0 0-10.587 10.586c0 5.84 4.734 10.574 10.587 10.574 5.84 0 10.573-4.734 10.573-10.574 0-5.853-4.733-10.586-10.573-10.586m0 16.626a6.045 6.045 0 0 1-6.053-6.04 6.05 6.05 0 0 1 6.053-6.053c3.333 0 6.04 2.707 6.04 6.053a6.043 6.043 0 0 1-6.04 6.04M322.446 253.092c-5.853 0-10.587 4.746-10.587 10.586s4.734 10.587 10.587 10.587c5.84 0 10.573-4.747 10.573-10.587s-4.733-10.586-10.573-10.586m0 16.64a6.05 6.05 0 0 1-6.053-6.054c0-3.333 2.706-6.039 6.053-6.039a6.043 6.043 0 0 1 6.04 6.039c0 3.347-2.707 6.054-6.04 6.054M443.392 253.092c-5.853 0-10.586 4.746-10.586 10.586s4.733 10.587 10.586 10.587c5.84 0 10.574-4.747 10.574-10.587s-4.734-10.586-10.574-10.586m0 16.64a6.05 6.05 0 0 1-6.053-6.054c0-3.333 2.707-6.039 6.053-6.039a6.04 6.04 0 0 1 6.04 6.039c0 3.347-2.706 6.054-6.04 6.054M443.392 313.572a10.58 10.58 0 0 0-10.586 10.586c0 5.84 4.733 10.574 10.586 10.574 5.84 0 10.574-4.734 10.574-10.574 0-5.853-4.734-10.586-10.574-10.586m0 16.626a6.046 6.046 0 1 1 0-12.093 6.046 6.046 0 0 1 6.04 6.053 6.04 6.04 0 0 1-6.04 6.04M368.512 247.132a3.58 3.58 0 0 0-3.586 3.587c0 1.986 1.6 3.586 3.586 3.586a3.58 3.58 0 0 0 3.587-3.586 3.58 3.58 0 0 0-3.587-3.587m0 5.48a1.9 1.9 0 0 1-1.893-1.893 1.9 1.9 0 0 1 1.893-1.894c1.04 0 1.894.853 1.894 1.894a1.9 1.9 0 0 1-1.894 1.893M378.113 247.132a3.58 3.58 0 0 0-3.587 3.587 3.58 3.58 0 0 0 3.587 3.586 3.58 3.58 0 0 0 3.587-3.586 3.58 3.58 0 0 0-3.587-3.587m0 5.48a1.9 1.9 0 0 1-1.893-1.893 1.9 1.9 0 0 1 1.893-1.894 1.9 1.9 0 0 1 1.893 1.894 1.9 1.9 0 0 1-1.893 1.893M387.713 247.132a3.58 3.58 0 0 0-3.587 3.587 3.58 3.58 0 0 0 3.587 3.586c1.986 0 3.586-1.6 3.586-3.586a3.58 3.58 0 0 0-3.586-3.587m0 5.48a1.9 1.9 0 0 1-1.894-1.893c0-1.041.854-1.894 1.894-1.894a1.9 1.9 0 0 1 1.893 1.894 1.9 1.9 0 0 1-1.893 1.893M397.313 247.132a3.58 3.58 0 0 0-3.586 3.587 3.58 3.58 0 0 0 3.586 3.586 3.58 3.58 0 0 0 3.587-3.586 3.58 3.58 0 0 0-3.587-3.587m0 5.48a1.9 1.9 0 0 1-1.893-1.893 1.9 1.9 0 0 1 1.893-1.894c1.04 0 1.894.853 1.894 1.894a1.9 1.9 0 0 1-1.894 1.893" clip-rule="evenodd"/><path fill="#ecf1f1" d="M413.012 293.921a30 30 0 0 1-.384 4.746 20 20 0 0 1-.311 1.596 8.3 8.3 0 0 0-1.493 1.183c-1.848 1.789-2.897 4.287-2.853 6.844.015.636.089 1.287.222 1.922-.296.458-.591.902-.917 1.345a29.2 29.2 0 0 1-6.711 6.712c-.444.325-.887.636-1.345.931a9 9 0 0 0-1.893-.236 9.4 9.4 0 0 0-6.889 2.853 9 9 0 0 0-1.182 1.508c-.532.133-1.065.222-1.597.31-1.552.252-3.134.37-4.745.37s-3.193-.118-4.746-.37a20 20 0 0 1-1.596-.31 9 9 0 0 0-1.183-1.508 9.4 9.4 0 0 0-6.889-2.853 9 9 0 0 0-1.892.236 27 27 0 0 1-1.345-.931 29.2 29.2 0 0 1-6.712-6.712 27 27 0 0 1-.916-1.345 9.2 9.2 0 0 0 .236-1.892v-.148c0-2.528-1.049-4.967-2.868-6.741a10.4 10.4 0 0 0-1.493-1.168 20 20 0 0 1-.31-1.596 29.6 29.6 0 0 1-.385-4.746c0-1.611.133-3.193.385-4.745.088-.532.177-1.065.31-1.597a9.4 9.4 0 0 0 1.478-1.153c1.878-1.789 2.928-4.331 2.883-6.933a9 9 0 0 0-.236-1.878c.295-.458.591-.901.916-1.345a29.2 29.2 0 0 1 6.712-6.711c.443-.326.887-.636 1.345-.932a9 9 0 0 0 1.877.237 9.45 9.45 0 0 0 6.934-2.883 9.5 9.5 0 0 0 1.153-1.478c.532-.133 1.064-.222 1.596-.311a30 30 0 0 1 4.746-.369c1.611 0 3.193.118 4.745.369.532.089 1.065.178 1.597.311a9.4 9.4 0 0 0 1.153 1.478 9.44 9.44 0 0 0 6.933 2.883 9 9 0 0 0 1.878-.237c.458.296.901.606 1.345.932a29.2 29.2 0 0 1 6.711 6.711c.326.444.621.887.917 1.345a9 9 0 0 0-.237 1.878c-.044 2.602 1.006 5.144 2.883 6.933.444.429.946.813 1.478 1.153.133.532.222 1.065.311 1.597.251 1.552.384 3.134.384 4.745"/><path fill="#000" d="M384.126 264.863h-2.424v29.074h2.424z"/><path fill="#929d9e" d="M458.028 282.229h-15.394v23.374h15.394zM323.192 282.229h-15.394v23.374h15.394z"/><path fill="#000" d="M427.805 253.489h-11.62v11.62h11.62z"/></g><defs><filter id="a" width="319.002" height="238.522" x="103.172" y="11.443" color-interpolation-filters="sRGB" filterUnits="userSpaceOnUse"><feFlood flood-opacity="0" result="BackgroundImageFix"/><feColorMatrix in="SourceAlpha" result="hardAlpha" values="0 0 0 0 0 0 0 0 0 0 0 0 0 0 0 0 0 0 127 0"/><feOffset dy="3.704"/><feGaussianBlur stdDeviation="4.631"/><feComposite in2="hardAlpha" operator="out"/><feColorMatrix values="0 0 0 0 0 0 0 0 0 0 0 0 0 0 0 0 0 0 0.25 0"/><feBlend in2="BackgroundImageFix" result="effect1_dropShadow_2061_4297"/><feBlend in="SourceGraphic" in2="effect1_dropShadow_2061_4297" result="shape"/><feColorMatrix in="SourceAlpha" result="hardAlpha" values="0 0 0 0 0 0 0 0 0 0 0 0 0 0 0 0 0 0 127 0"/><feOffset dy="3.704"/><feGaussianBlur stdDeviation="1.852"/><feComposite in2="hardAlpha" k2="-1" k3="1" operator="arithmetic"/><feColorMatrix values="0 0 0 0 0 0 0 0 0 0 0 0 0 0 0 0 0 0 0.25 0"/><feBlend in2="shape" result="effect2_innerShadow_2061_4297"/></filter><filter id="b" width="280.701" height="217.634" x="132.535" y="18.852" color-interpolation-filters="sRGB" filterUnits="userSpaceOnUse"><feFlood flood-opacity="0" result="BackgroundImageFix"/><feColorMatrix in="SourceAlpha" result="hardAlpha" values="0 0 0 0 0 0 0 0 0 0 0 0 0 0 0 0 0 0 127 0"/><feOffset dy="3.704"/><feGaussianBlur stdDeviation="4.631"/><feComposite in2="hardAlpha" operator="out"/><feColorMatrix values="0 0 0 0 0 0 0 0 0 0 0 0 0 0 0 0 0 0 0.25 0"/><feBlend in2="BackgroundImageFix" result="effect1_dropShadow_2061_4297"/><feBlend in="SourceGraphic" in2="effect1_dropShadow_2061_4297" result="shape"/></filter><filter id="c" width="174.96" height="115.84" x="55.433" y="240" color-interpolation-filters="sRGB" filterUnits="userSpaceOnUse"><feFlood flood-opacity="0" result="BackgroundImageFix"/><feColorMatrix in="SourceAlpha" result="hardAlpha" values="0 0 0 0 0 0 0 0 0 0 0 0 0 0 0 0 0 0 127 0"/><feOffset dy="4"/><feGaussianBlur stdDeviation="5"/><feComposite in2="hardAlpha" operator="out"/><feColorMatrix values="0 0 0 0 0 0 0 0 0 0 0 0 0 0 0 0 0 0 0.25 0"/><feBlend in2="BackgroundImageFix" result="effect1_dropShadow_2061_4297"/><feBlend in="SourceGraphic" in2="effect1_dropShadow_2061_4297" result="shape"/></filter><filter id="d" width="174.96" height="115.84" x="175.433" y="359" color-interpolation-filters="sRGB" filterUnits="userSpaceOnUse"><feFlood flood-opacity="0" result="BackgroundImageFix"/><feColorMatrix in="SourceAlpha" result="hardAlpha" values="0 0 0 0 0 0 0 0 0 0 0 0 0 0 0 0 0 0 127 0"/><feOffset dy="4"/><feGaussianBlur stdDeviation="5"/><feComposite in2="hardAlpha" operator="out"/><feColorMatrix values="0 0 0 0 0 0 0 0 0 0 0 0 0 0 0 0 0 0 0.25 0"/><feBlend in2="BackgroundImageFix" result="effect1_dropShadow_2061_4297"/><feBlend in="SourceGraphic" in2="effect1_dropShadow_2061_4297" result="shape"/></filter><filter id="e" width="174.96" height="115.84" x="295.433" y="240" color-interpolation-filters="sRGB" filterUnits="userSpaceOnUse"><feFlood flood-opacity="0" result="BackgroundImageFix"/><feColorMatrix in="SourceAlpha" result="hardAlpha" values="0 0 0 0 0 0 0 0 0 0 0 0 0 0 0 0 0 0 127 0"/><feOffset dy="4"/><feGaussianBlur stdDeviation="5"/><feComposite in2="hardAlpha" operator="out"/><feColorMatrix values="0 0 0 0 0 0 0 0 0 0 0 0 0 0 0 0 0 0 0.25 0"/><feBlend in2="BackgroundImageFix" result="effect1_dropShadow_2061_4297"/><feBlend in="SourceGraphic" in2="effect1_dropShadow_2061_4297" result="shape"/></filter></defs></svg>