<svg xmlns="http://www.w3.org/2000/svg" fill="none" viewBox="0 0 126 51"><path fill="#057582" d="M2.923 0v49h118.999V0zM118.1 36.998c.681 0 1.236.554 1.236 1.235 0 .69-.555 1.235-1.236 1.235s-1.235-.544-1.235-1.235c0-.68.555-1.235 1.235-1.235m0-25.317c-.68 0-1.235-.554-1.235-1.235 0-.69.555-1.235 1.235-1.235.681 0 1.236.544 1.236 1.235 0 .68-.555 1.235-1.236 1.235M104.23 39.468a1.23 1.23 0 0 1-1.235-1.235c0-.68.554-1.235 1.235-1.235s1.235.554 1.235 1.235a1.23 1.23 0 0 1-1.235 1.235M6.425 47.775a2.26 2.26 0 0 1-2.267-2.267 2.264 2.264 0 0 1 2.267-2.276A2.267 2.267 0 0 1 8.7 45.508a2.264 2.264 0 0 1-2.276 2.267m0-41.998a2.26 2.26 0 0 1-2.267-2.266 2.264 2.264 0 0 1 2.267-2.276A2.266 2.266 0 0 1 8.7 3.511a2.264 2.264 0 0 1-2.276 2.266M118.42 47.775a2.263 2.263 0 0 1-2.266-2.267 2.265 2.265 0 0 1 2.266-2.276 2.266 2.266 0 0 1 2.276 2.276 2.264 2.264 0 0 1-2.276 2.267m0-41.998a2.26 2.26 0 0 1-2.266-2.266 2.265 2.265 0 0 1 2.266-2.276 2.266 2.266 0 0 1 2.276 2.276 2.264 2.264 0 0 1-2.276 2.266"/><path fill="#8c9091" d="m32.779 27.396-.25-.01-.248-.03-.241-.051-.24-.069-.233-.093-.229-.104-.216-.127-.201-.147-.192-.155-.177-.177-.165-.19-.15-.198-.13-.21-.113-.225-.091-.231-.075-.238-.055-.245-.038-.247-.015-.249.004-.248.026-.248.05-.248.06-.238.088-.235.105-.227.117-.216.14-.207.155-.2.17-.178.185-.167.2-.156.21-.133.224-.114.226-.103.234-.08.243-.06.25-.042.248-.019h.249l.247.02.249.04.24.062.236.08.228.102.22.114.214.133.197.156.186.167.171.178.154.2.14.207.12.216.103.227.087.235.063.238.046.248.026.247.006.25-.015.248-.036.247-.06.245-.07.238-.095.231-.114.224-.129.211-.15.198-.165.19-.175.177-.194.155-.2.147-.216.127-.228.104-.233.093-.24.069-.24.051-.252.03zM34.898 29.19h-4.345v1.663h4.345zM34.898 18.147h-4.345v1.666h4.345z"/><path fill="#aeafaf" d="M29.172 19.456v10.29h7.11v-10.29zm6.05 5.768-.079.194-.097.185-.107.185-.272.33-.146.147-.165.136-.175.116-.185.107-.185.098-.204.077-.204.059-.205.039-.204.029-.214.01-.214-.01-.214-.03-.204-.038-.204-.059-.195-.077-.194-.098-.185-.107-.166-.116-.165-.136-.146-.146-.146-.166-.126-.165-.107-.185-.097-.185-.078-.194-.068-.204-.04-.205-.038-.214-.01-.214v-.204l.03-.214.038-.214.049-.194.078-.204.087-.195.098-.175.126-.185.126-.165.146-.156.156-.136.165-.136.185-.107.185-.097.194-.088.204-.068.205-.049.204-.039.214-.02h.214l.204.02.214.04.204.048.205.068.184.088.195.097.175.107.175.136.156.136.146.156.126.165.117.185.107.175.087.195.068.204.059.194.039.214.02.214.009.204-.02.214-.029.214-.048.205z"/><path fill="#bcac99" d="M16.17 0v3.589a2.194 2.194 0 0 1-4.387 0V0z"/><path fill="#fff" d="M13.975 5.034a1.43 1.43 0 1 0 0-2.861 1.43 1.43 0 0 0 0 2.861M15.402 0c0 .788-.633 1.43-1.43 1.43-.788 0-1.43-.642-1.43-1.43z"/><path fill="#bcac99" d="M23.09 0v3.589a2.194 2.194 0 0 1-4.386 0V0z"/><path fill="#fff" d="M20.896 5.034a1.43 1.43 0 1 0 0-2.861 1.43 1.43 0 0 0 0 2.861M22.322 0c0 .788-.632 1.43-1.43 1.43-.787 0-1.43-.642-1.43-1.43z"/><path fill="#bcac99" d="M30.012 0v3.589a2.194 2.194 0 0 1-4.387 0V0z"/><path fill="#fff" d="M27.816 5.034a1.43 1.43 0 1 0 0-2.861 1.43 1.43 0 0 0 0 2.861M29.243 0c0 .788-.632 1.43-1.43 1.43-.787 0-1.43-.642-1.43-1.43z"/><path fill="#bcac99" d="M36.932 0v3.589a2.194 2.194 0 0 1-4.386 0V0z"/><path fill="#fff" d="M34.737 5.034a1.43 1.43 0 1 0 0-2.861 1.43 1.43 0 0 0 0 2.861M36.164 0c0 .788-.632 1.43-1.43 1.43-.788 0-1.43-.642-1.43-1.43z"/><path fill="#bcac99" d="M43.853 0v3.589a2.194 2.194 0 0 1-4.386 0V0z"/><path fill="#fff" d="M41.658 5.034a1.43 1.43 0 1 0 0-2.861 1.43 1.43 0 0 0 0 2.861M43.085 0c0 .788-.632 1.43-1.43 1.43-.788 0-1.43-.642-1.43-1.43z"/><path fill="#bcac99" d="M50.774 0v3.589a2.194 2.194 0 0 1-4.386 0V0z"/><path fill="#fff" d="M48.579 5.034a1.43 1.43 0 1 0 0-2.861 1.43 1.43 0 0 0 0 2.861M50.006 0c0 .788-.633 1.43-1.43 1.43-.788 0-1.43-.642-1.43-1.43z"/><path fill="#bcac99" d="M57.695 0v3.589a2.194 2.194 0 0 1-4.387 0V0z"/><path fill="#fff" d="M55.5 5.034a1.43 1.43 0 1 0 0-2.861 1.43 1.43 0 0 0 0 2.861M56.927 0c0 .788-.633 1.43-1.43 1.43-.788 0-1.43-.642-1.43-1.43z"/><path fill="#bcac99" d="M64.616 0v3.589a2.194 2.194 0 0 1-4.387 0V0z"/><path fill="#fff" d="M62.42 5.034a1.43 1.43 0 1 0 0-2.861 1.43 1.43 0 0 0 0 2.861M63.847 0c0 .788-.632 1.43-1.43 1.43-.787 0-1.43-.642-1.43-1.43z"/><path fill="#bcac99" d="M71.537 0v3.589a2.194 2.194 0 0 1-4.387 0V0z"/><path fill="#fff" d="M69.341 5.034a1.43 1.43 0 1 0 0-2.861 1.43 1.43 0 0 0 0 2.861M70.768 0c0 .788-.632 1.43-1.43 1.43-.787 0-1.43-.642-1.43-1.43z"/><path fill="#bcac99" d="M78.458 0v3.589a2.194 2.194 0 0 1-4.387 0V0z"/><path fill="#fff" d="M76.262 5.034a1.43 1.43 0 1 0 0-2.861 1.43 1.43 0 0 0 0 2.861M77.689 0c0 .788-.632 1.43-1.43 1.43-.787 0-1.43-.642-1.43-1.43z"/><path fill="#bcac99" d="M85.378 0v3.589a2.194 2.194 0 0 1-4.386 0V0z"/><path fill="#fff" d="M83.183 5.034a1.43 1.43 0 1 0 0-2.861 1.43 1.43 0 0 0 0 2.861M84.61 0c0 .788-.632 1.43-1.43 1.43-.788 0-1.43-.642-1.43-1.43z"/><path fill="#bcac99" d="M92.3 0v3.589a2.194 2.194 0 0 1-4.387 0V0z"/><path fill="#fff" d="M90.104 5.034a1.43 1.43 0 1 0 0-2.861 1.43 1.43 0 0 0 0 2.861M91.53 0c0 .788-.632 1.43-1.429 1.43-.788 0-1.43-.642-1.43-1.43z"/><path fill="#bcac99" d="M99.22 0v3.589a2.194 2.194 0 0 1-4.386 0V0z"/><path fill="#fff" d="M97.025 5.034a1.43 1.43 0 1 0 0-2.861 1.43 1.43 0 0 0 0 2.861M98.452 0c0 .788-.633 1.43-1.43 1.43-.788 0-1.43-.642-1.43-1.43z"/><path fill="#bcac99" d="M106.141 0v3.589a2.194 2.194 0 0 1-4.387 0V0z"/><path fill="#fff" d="M103.946 5.034a1.43 1.43 0 1 0 0-2.86 1.43 1.43 0 0 0 0 2.86M105.372 0c0 .788-.632 1.43-1.429 1.43-.788 0-1.43-.642-1.43-1.43z"/><path fill="#bcac99" d="M113.062 0v3.589a2.194 2.194 0 0 1-4.387 0V0z"/><path fill="#fff" d="M110.866 5.034a1.43 1.43 0 1 0 .001-2.86 1.43 1.43 0 0 0-.001 2.86M112.293 0c0 .788-.632 1.43-1.429 1.43-.788 0-1.43-.642-1.43-1.43z"/><path fill="#bcac99" d="M108.675 49v-3.589a2.194 2.194 0 0 1 4.387 0V49z"/><path fill="#fff" d="M110.87 46.827a1.43 1.43 0 1 0 .001-2.86 1.43 1.43 0 0 0-.001 2.86M109.444 49c0-.788.632-1.43 1.429-1.43.788 0 1.43.642 1.43 1.43z"/><path fill="#bcac99" d="M101.754 49v-3.589a2.194 2.194 0 0 1 4.387 0V49z"/><path fill="#fff" d="M103.95 46.827a1.43 1.43 0 1 0 0-2.86 1.43 1.43 0 0 0 0 2.86M102.523 49c0-.788.632-1.43 1.429-1.43.788 0 1.43.642 1.43 1.43z"/><path fill="#bcac99" d="M94.834 49v-3.589a2.194 2.194 0 0 1 4.386 0V49z"/><path fill="#fff" d="M97.029 46.827a1.43 1.43 0 1 0 0-2.861 1.43 1.43 0 0 0 0 2.861M95.602 49c0-.788.632-1.43 1.43-1.43.787 0 1.43.642 1.43 1.43z"/><path fill="#bcac99" d="M87.913 49v-3.589a2.194 2.194 0 0 1 4.386 0V49z"/><path fill="#fff" d="M90.108 46.827a1.43 1.43 0 1 0 0-2.861 1.43 1.43 0 0 0 0 2.861M88.681 49c0-.788.632-1.43 1.43-1.43.787 0 1.43.642 1.43 1.43z"/><path fill="#bcac99" d="M80.992 49v-3.589a2.194 2.194 0 0 1 4.386 0V49z"/><path fill="#fff" d="M83.187 46.827a1.43 1.43 0 1 0 0-2.861 1.43 1.43 0 0 0 0 2.861M81.76 49c0-.788.632-1.43 1.43-1.43.788 0 1.43.642 1.43 1.43z"/><path fill="#bcac99" d="M74.071 49v-3.589a2.194 2.194 0 0 1 4.386 0V49z"/><path fill="#fff" d="M76.266 46.827a1.43 1.43 0 1 0 0-2.861 1.43 1.43 0 0 0 0 2.861M74.84 49c0-.788.632-1.43 1.43-1.43.787 0 1.429.642 1.429 1.43z"/><path fill="#bcac99" d="M67.15 49v-3.589a2.194 2.194 0 0 1 4.387 0V49z"/><path fill="#fff" d="M69.345 46.827a1.43 1.43 0 1 0 0-2.861 1.43 1.43 0 0 0 0 2.861M67.919 49c0-.788.632-1.43 1.43-1.43.787 0 1.429.642 1.429 1.43z"/><path fill="#bcac99" d="M60.23 49v-3.589a2.194 2.194 0 0 1 4.386 0V49z"/><path fill="#fff" d="M62.425 46.827a1.43 1.43 0 1 0 0-2.861 1.43 1.43 0 0 0 0 2.861M60.998 49c0-.788.632-1.43 1.43-1.43.787 0 1.43.642 1.43 1.43z"/><path fill="#bcac99" d="M53.308 49v-3.589a2.194 2.194 0 0 1 4.387 0V49z"/><path fill="#fff" d="M55.504 46.827a1.43 1.43 0 1 0 0-2.861 1.43 1.43 0 0 0 0 2.861M54.077 49c0-.788.632-1.43 1.43-1.43.787 0 1.43.642 1.43 1.43z"/><path fill="#bcac99" d="M46.388 49v-3.589a2.194 2.194 0 0 1 4.386 0V49z"/><path fill="#fff" d="M48.583 46.827a1.43 1.43 0 1 0 0-2.861 1.43 1.43 0 0 0 0 2.861M47.156 49c0-.788.632-1.43 1.43-1.43.788 0 1.43.642 1.43 1.43z"/><path fill="#bcac99" d="M39.467 49v-3.589a2.194 2.194 0 0 1 4.386 0V49z"/><path fill="#fff" d="M41.662 46.827a1.43 1.43 0 1 0 0-2.861 1.43 1.43 0 0 0 0 2.861M40.235 49c0-.788.632-1.43 1.43-1.43.788 0 1.43.642 1.43 1.43z"/><path fill="#bcac99" d="M32.546 49v-3.589a2.194 2.194 0 0 1 4.386 0V49z"/><path fill="#fff" d="M34.741 46.827a1.43 1.43 0 1 0 0-2.861 1.43 1.43 0 0 0 0 2.861M33.314 49c0-.788.633-1.43 1.43-1.43.788 0 1.43.642 1.43 1.43z"/><path fill="#bcac99" d="M25.625 49v-3.589a2.194 2.194 0 0 1 4.387 0V49z"/><path fill="#fff" d="M27.82 46.827a1.43 1.43 0 1 0 0-2.861 1.43 1.43 0 0 0 0 2.861M26.394 49c0-.788.632-1.43 1.43-1.43.787 0 1.429.642 1.429 1.43z"/><path fill="#bcac99" d="M18.704 49v-3.589a2.194 2.194 0 0 1 4.387 0V49z"/><path fill="#fff" d="M20.9 46.827a1.43 1.43 0 1 0 0-2.861 1.43 1.43 0 0 0 0 2.861M19.473 49c0-.788.632-1.43 1.43-1.43.787 0 1.43.642 1.43 1.43z"/><path fill="#bcac99" d="M11.783 49v-3.589a2.194 2.194 0 0 1 4.387 0V49z"/><path fill="#fff" d="M13.979 46.827a1.43 1.43 0 1 0 0-2.861 1.43 1.43 0 0 0 0 2.861M12.552 49c0-.788.632-1.43 1.43-1.43.787 0 1.43.642 1.43 1.43z"/><path fill="#010202" d="M43.05 13.49h-5.356v7.77h5.357z"/><path fill="#aeafaf" d="M38.723 13.49h3.299V12.3h-3.299zM38.21 16.009h4.325v-2.032H38.21zM42.022 21.262h-3.299v1.19h3.299zM51.455 28.644h-5.971v-.037c0-.368.299-.668.667-.668h4.636c.369 0 .668.3.668.668zM45.484 34.64h5.97v.036c0 .369-.298.668-.667.668h-4.636a.67.67 0 0 1-.668-.668z"/><path fill="#010202" d="M51.455 28.644h-5.972v5.994h5.972z"/><path fill="#aeafaf" d="M49.8 20.854h-2.38v-1.662c0-.248.202-.449.45-.449h1.482c.247 0 .448.201.448.449zM44.777 24.762h2.38v1.662c0 .247-.202.448-.449.448h-1.483a.45.45 0 0 1-.448-.448zM49.993 24.762h2.379v1.662c0 .247-.201.448-.448.448H50.44a.45.45 0 0 1-.448-.448z"/><path fill="#010202" d="M52.793 20.854h-8.414v3.908h8.414z"/><path fill="#aeafaf" d="M103.602 9.527h-2.38V7.865c0-.248.201-.449.449-.449h1.482c.248 0 .449.201.449.449zM98.579 13.435h2.379v1.662a.45.45 0 0 1-.448.448h-1.483a.45.45 0 0 1-.448-.448zM103.794 13.435h2.379v1.662c0 .248-.2.448-.448.448h-1.483a.45.45 0 0 1-.448-.448z"/><path fill="#010202" d="M106.594 9.527H98.18v3.908h8.414z"/><path fill="#aeafaf" d="M112.363 9.527h-2.38V7.865c0-.248.201-.449.449-.449h1.482c.248 0 .449.201.449.449zM107.34 13.435h2.379v1.662a.45.45 0 0 1-.448.448h-1.483a.45.45 0 0 1-.448-.448zM112.555 13.435h2.379v1.662c0 .248-.2.448-.448.448h-1.483a.45.45 0 0 1-.448-.448z"/><path fill="#010202" d="M115.355 9.527h-8.414v3.908h8.414z"/><path fill="#aeafaf" d="M119.953 16.55h-10.41v15.805h10.41z"/><path fill="#8c9091" d="M111.03 16.55h-1.487v15.805h1.487V16.549M114.004 16.55h-1.487v15.805h1.487V16.549M116.979 16.55h-1.487v15.805h1.487V16.549M119.953 16.55h-1.487v15.805h1.487V16.549"/><path fill="#aeafaf" d="M109.543 20.005h-3.373v1.353h3.373zM109.543 27.534h-3.373v1.354h3.373zM109.543 25.025h-3.373v1.353h3.373zM109.543 22.515h-3.373v1.353h3.373zM103.794 18.6h-6.56v8.51h6.56zM26.344 19.127h-4.878v2.286h4.878zM26.344 22.54h-4.878v2.286h4.878zM26.344 27.502h-4.878v2.285h4.878z"/><path fill="#bcac99" d="M104.23 35.88a2.35 2.35 0 0 0-2.354 2.353 2.36 2.36 0 0 0 2.354 2.364 2.358 2.358 0 1 0 0-4.717m0 3.588a1.23 1.23 0 0 1-1.235-1.235c0-.68.554-1.235 1.235-1.235s1.235.554 1.235 1.235a1.23 1.23 0 0 1-1.235 1.235M118.099 35.88a2.358 2.358 0 1 0 0 4.717 2.358 2.358 0 1 0 0-4.717m0 3.588c-.68 0-1.235-.544-1.235-1.235 0-.68.555-1.235 1.235-1.235.681 0 1.236.554 1.236 1.235 0 .69-.555 1.235-1.236 1.235M118.099 8.082a2.36 2.36 0 1 0 0 4.718 2.358 2.358 0 1 0 0-4.718m0 3.599c-.68 0-1.235-.554-1.235-1.235 0-.69.555-1.235 1.235-1.235.681 0 1.236.544 1.236 1.235 0 .68-.555 1.235-1.236 1.235"/><path fill="#9d846d" d="M27.444 10.21c0 .574.08 1.133.232 1.646h-3.794c.15-.513.232-1.072.232-1.646 0-.59-.081-1.15-.244-1.662h3.817a5.5 5.5 0 0 0-.243 1.662"/><path fill="#aeafaf" d="M24.114 10.21c0 .574-.081 1.133-.232 1.646h-.627V8.548h.615c.163.512.244 1.071.244 1.662M28.29 8.548v3.308h-.614a5.9 5.9 0 0 1-.232-1.646c0-.59.08-1.15.243-1.662z"/><path fill="#9d846d" d="M54.997 22.538c0-.224-.042-.442-.121-.641h1.976a1.75 1.75 0 0 0 .006 1.287H54.87q.127-.301.127-.646"/><path fill="#aeafaf" d="M56.731 22.538c0-.224.042-.442.12-.641h.328v1.288h-.321a1.65 1.65 0 0 1-.127-.647M54.555 23.185v-1.288h.32a1.75 1.75 0 0 1-.005 1.288z"/><path fill="#9d846d" d="M49.205 39.86c0-.223-.042-.44-.12-.64h1.975a1.75 1.75 0 0 0 .006 1.288h-1.988q.127-.302.127-.647"/><path fill="#aeafaf" d="M50.94 39.861c0-.223.042-.441.12-.64h.327v1.287h-.32a1.65 1.65 0 0 1-.127-.647M48.764 40.508V39.22h.32a1.75 1.75 0 0 1-.006 1.288z"/><path fill="#9d846d" d="M53.976 37.37c.224 0 .441-.042.64-.121v1.976a1.75 1.75 0 0 0-1.286.006v-1.988q.301.127.646.127"/><path fill="#aeafaf" d="M53.977 39.104c.224 0 .441.042.64.121v.326H53.33v-.32q.301-.127.647-.127M53.33 36.929h1.288v.32a1.75 1.75 0 0 1-1.288-.006z"/><path fill="#9d846d" d="M97.88 30.185c.223 0 .44-.042.64-.121v1.976a1.75 1.75 0 0 0-1.287.006v-1.988q.301.127.647.127"/><path fill="#aeafaf" d="M97.88 31.919c.224 0 .442.042.641.121v.327h-1.288v-.321q.301-.127.647-.127M97.233 29.744h1.288v.32a1.75 1.75 0 0 1-1.288-.006z"/><path fill="#9d846d" d="M100.49 30.185c.223 0 .441-.042.64-.121v1.976a1.75 1.75 0 0 0-1.287.006v-1.988q.3.127.647.127"/><path fill="#aeafaf" d="M100.49 31.919c.224 0 .442.042.641.121v.327h-1.288v-.321q.301-.127.647-.127M99.843 29.744h1.288v.32a1.75 1.75 0 0 1-1.288-.006z"/><path fill="#9d846d" d="M92.628 8.851c.223 0 .44-.042.64-.12v1.976a1.75 1.75 0 0 0-1.287.006V8.725q.301.126.647.126"/><path fill="#aeafaf" d="M92.628 10.586c.224 0 .441.042.64.12v.327h-1.287v-.32q.301-.127.647-.127M91.98 8.41h1.289v.32a1.75 1.75 0 0 1-1.288-.005z"/><path fill="#9d846d" d="M95.237 8.851c.224 0 .442-.042.64-.12v1.976a1.75 1.75 0 0 0-1.286.006V8.725q.301.126.646.126"/><path fill="#aeafaf" d="M95.238 10.586c.224 0 .441.042.64.12v.327h-1.287v-.32q.301-.127.647-.127M94.59 8.41h1.289v.32a1.75 1.75 0 0 1-1.288-.005z"/><path fill="#9d846d" d="M103.099 30.185c.224 0 .442-.042.641-.121v1.976a1.75 1.75 0 0 0-1.287.006v-1.988c.199.085.417.127.646.127"/><path fill="#aeafaf" d="M103.1 31.919c.224 0 .441.042.641.121v.327h-1.288v-.321q.3-.127.647-.127M102.453 29.744h1.288v.32a1.75 1.75 0 0 1-1.288-.006z"/><path fill="#9d846d" d="M96.748 14.053c.223 0 .441-.042.64-.12v1.976a1.75 1.75 0 0 0-1.287.006v-1.989q.301.127.647.127"/><path fill="#aeafaf" d="M96.748 15.788c.224 0 .442.042.641.12v.327h-1.288v-.32q.301-.127.647-.127M96.101 13.612h1.288v.32a1.75 1.75 0 0 1-1.288-.006z"/><path fill="#9d846d" d="M33.468 34.576c.319 0 .629-.06.913-.173v2.818a2.5 2.5 0 0 0-.913-.172q-.494 0-.922.18v-2.834c.284.12.594.18.922.18"/><path fill="#aeafaf" d="M33.468 37.049c.319 0 .629.06.913.172v.465h-1.835v-.457c.284-.12.594-.18.922-.18M32.546 33.947h1.835v.456a2.5 2.5 0 0 1-.913.173q-.494 0-.922-.181z"/><path fill="#9d846d" d="M55.868 11.662c.319 0 .629-.06.913-.173v2.818a2.5 2.5 0 0 0-.913-.172c-.327 0-.638.06-.922.18v-2.834c.284.12.595.18.922.18"/><path fill="#aeafaf" d="M55.868 14.135c.319 0 .63.06.913.172v.465h-1.835v-.456c.285-.121.595-.181.922-.181M54.946 11.033h1.835v.457a2.5 2.5 0 0 1-.913.172c-.327 0-.638-.06-.922-.181z"/><path fill="#9d846d" d="M29.87 34.576c.318 0 .628-.06.913-.173v2.818a2.5 2.5 0 0 0-.914-.172c-.327 0-.637.06-.922.18v-2.834q.43.18.922.18"/><path fill="#aeafaf" d="M29.87 37.049c.318 0 .628.06.913.172v.465h-1.836v-.457q.43-.18.922-.18M28.947 33.947h1.836v.456a2.5 2.5 0 0 1-.914.173c-.327 0-.637-.06-.922-.181z"/><path fill="#9d846d" d="M41.707 29.2c0 .318.06.629.173.913h-2.818c.112-.284.172-.595.172-.913 0-.328-.06-.638-.18-.922h2.834c-.12.284-.18.594-.18.922"/><path fill="#aeafaf" d="M39.235 29.2c0 .318-.06.629-.173.913h-.465v-1.835h.457c.12.284.18.594.18.922M42.336 28.278v1.835h-.456a2.5 2.5 0 0 1-.173-.913c0-.328.06-.638.181-.922z"/><path fill="#9d846d" d="M41.707 25.601c0 .319.06.629.173.913h-2.818c.112-.284.172-.594.172-.913 0-.327-.06-.638-.18-.922h2.834c-.12.284-.18.595-.18.922"/><path fill="#aeafaf" d="M39.235 25.601c0 .319-.06.629-.173.913h-.465V24.68h.457c.12.284.18.595.18.922M42.336 24.68v1.834h-.456a2.5 2.5 0 0 1-.173-.913c0-.327.06-.638.181-.922z"/><path fill="#9d846d" d="M41.707 8.762c0 .319.06.63.173.914h-2.818c.112-.285.172-.595.172-.914 0-.327-.06-.637-.18-.922h2.834q-.18.43-.18.922"/><path fill="#aeafaf" d="M39.235 8.762c0 .319-.06.63-.173.914h-.465V7.84h.457q.18.43.18.922M42.336 7.84v1.836h-.456a2.5 2.5 0 0 1-.173-.914c0-.327.06-.637.181-.922z"/><path fill="#9d846d" d="M53.976 29.78c.224 0 .441-.042.64-.12v1.976a1.75 1.75 0 0 0-1.286.006v-1.988q.301.127.646.127"/><path fill="#aeafaf" d="M53.977 31.515c.224 0 .441.042.64.12v.327H53.33v-.32q.301-.127.647-.127M53.33 29.34h1.288v.32a1.75 1.75 0 0 1-1.288-.006z"/><path fill="#9d846d" d="M43.731 32.643c.224 0 .442-.042.641-.12v1.975a1.75 1.75 0 0 0-1.287.006v-1.988q.301.127.646.127"/><path fill="#aeafaf" d="M43.732 34.377c.224 0 .441.042.64.121v.327h-1.287v-.32q.301-.129.647-.128M43.085 32.202h1.288v.32a1.75 1.75 0 0 1-1.288-.006z"/><path fill="#9d846d" d="M26.727 35.737c.224 0 .441-.042.64-.12v1.976a1.75 1.75 0 0 0-1.286.006V35.61q.3.126.646.126"/><path fill="#aeafaf" d="M26.728 37.472c.223 0 .441.042.64.12v.327h-1.287v-.32q.301-.127.647-.127M26.08 35.296h1.289v.32a1.75 1.75 0 0 1-1.288-.005z"/><path fill="#9d846d" d="M37.557 39.86c0-.223-.042-.44-.121-.64h1.976a1.75 1.75 0 0 0 .006 1.288H37.43q.127-.302.127-.647"/><path fill="#aeafaf" d="M39.291 39.861c0-.223.042-.441.121-.64h.327v1.287h-.321a1.65 1.65 0 0 1-.127-.647M37.116 40.508V39.22h.32a1.75 1.75 0 0 1-.006 1.288z"/><path fill="#9d846d" d="M111.706 35.293a1.7 1.7 0 0 0-.121-.64h1.976a1.8 1.8 0 0 0-.121.64q0 .346.127.647h-1.988q.127-.301.127-.647"/><path fill="#aeafaf" d="M113.44 35.294c0-.224.043-.442.121-.641h.327v1.288h-.321a1.7 1.7 0 0 1-.127-.648M111.265 35.94v-1.287h.32a1.74 1.74 0 0 1-.006 1.288z"/><path fill="#8c9091" d="M18.493 18.033h-1.16v.71h1.16zM18.493 15.853h-1.16v.71h1.16zM18.493 19.127h-1.16v.71h1.16zM18.493 20.221h-1.16v.71h1.16zM18.493 21.315h-1.16v.86h1.16zM18.493 22.54h-1.16v.711h1.16zM18.493 23.634h-1.16v.711h1.16zM18.493 24.728h-1.16v.71h1.16zM18.493 25.822h-1.16v.71h1.16zM18.493 26.895h-1.16v.71h1.16zM18.493 27.99h-1.16v.71h1.16zM18.493 29.083h-1.16v.71h1.16zM18.493 30.177h-1.16v.71h1.16zM18.493 32.393h-1.16v.71h1.16z"/><path fill="#aeafaf" d="M17.616 12.16H0v24.584h17.616z"/><path fill="#8c9091" d="M4.444 12.16H2.791v24.584h1.653zM7.74 12.16H6.087v24.584H7.74zM11.046 12.16H9.393v24.584h1.653zM14.342 12.16H12.69v24.584h1.653zM17.616 12.16h-1.642v24.584h1.642z"/><path fill="#aeafaf" d="M46.474 16.18h-1.65c-.282 0-.51.111-.51.25v.85c0 .14.228.251.51.251h1.65zM46.474 10.648h-1.65c-.282 0-.51.112-.51.25v.852c0 .138.228.25.51.25h1.65zM50.425 12h1.65c.282 0 .51-.112.51-.25v-.852c0-.138-.228-.25-.51-.25h-1.65zM50.425 17.531h1.65c.282 0 .51-.112.51-.25v-.851c0-.139-.228-.25-.51-.25h-1.65zM46.474 13.377h-1.65c-.282 0-.51.112-.51.25v.852c0 .138.228.25.51.25h1.65z"/><path fill="#010202" d="M50.425 10.153h-3.95v7.8h3.95z"/><path fill="#aeafaf" d="M36.186 33.195c0-.216.13-.39.291-.39h.753v.78h-.753c-.161 0-.291-.173-.291-.39M36.186 35.914c0-.216.13-.39.291-.39h.753v.78h-.753c-.161 0-.291-.173-.291-.39M36.186 34.554c0-.216.13-.39.291-.39h.753v.78h-.753c-.161 0-.291-.173-.291-.39M36.186 37.273c0-.215.13-.39.291-.39h.753v.781h-.753c-.161 0-.291-.174-.291-.39M42.21 37.273c0 .216-.13.391-.29.391h-.754v-.781h.753c.162 0 .292.173.292.39M42.21 34.554c0 .216-.13.39-.29.39h-.754v-.78h.753c.162 0 .292.173.292.39M42.21 35.914c0 .216-.13.39-.29.39h-.754v-.78h.753c.162 0 .292.173.292.39M42.21 33.195c0 .215-.13.39-.29.39h-.754v-.78h.753c.162 0 .292.173.292.39"/><path fill="#010202" d="M41.18 32.064h-3.969v6.082h3.97z"/><path fill="#aeafaf" d="M38.079 33.333a.336.336 0 1 0 0-.671.336.336 0 0 0 0 .671"/><path fill="#008b9c" d="M27.867 13.667h-2.481v2.48h2.481z"/><path fill="#ee7402" d="M27.867 13.667h-2.481v2.48h2.481z"/><path fill="#eba900" d="M27.867 13.667h-2.481v2.48h2.481z"/><path fill="#010202" d="M90.74 13.646v21.533l-2.83 2.83H66.357l-2.918-2.917V13.733l3.025-3.025h21.339z"/><path fill="#aeafaf" d="M87.648 35.858a1.033 1.033 0 1 0 0-2.067 1.033 1.033 0 0 0 0 2.067M67.18 38.107h-.737v2.905h.738zM68.557 38.107h-.737v2.905h.737zM69.933 38.107h-.738v2.905h.738zM71.308 38.107h-.737v2.905h.737zM72.684 38.107h-.737v2.905h.737zM74.06 38.107h-.737v2.905h.737zM75.436 38.107H74.7v2.905h.737zM76.812 38.107h-.737v2.905h.737zM78.188 38.107h-.737v2.905h.737zM79.564 38.107h-.737v2.905h.737zM80.94 38.107h-.737v2.905h.737zM82.316 38.107h-.737v2.905h.737zM83.692 38.107h-.737v2.905h.737zM85.068 38.107h-.737v2.905h.737zM86.444 38.107h-.738v2.905h.737zM87.82 38.107h-.738v2.905h.737zM67.18 7.808h-.737v2.905h.738zM68.557 7.808h-.737v2.905h.737zM69.933 7.808h-.738v2.905h.738zM71.308 7.808h-.737v2.905h.737zM72.684 7.808h-.737v2.905h.737zM74.06 7.808h-.737v2.905h.737zM75.436 7.808H74.7v2.905h.737zM76.812 7.808h-.737v2.905h.737zM78.188 7.808h-.737v2.905h.737zM79.564 7.808h-.737v2.905h.737zM80.94 7.808h-.737v2.905h.737zM82.316 7.808h-.737v2.905h.737zM83.692 7.808h-.737v2.905h.737zM85.068 7.808h-.737v2.905h.737zM86.444 7.808h-.738v2.905h.737zM87.82 7.808h-.738v2.905h.737zM63.434 14.459v-.737H60.53v.737zM63.434 15.835v-.737H60.53v.737zM63.434 17.21v-.736H60.53v.737zM63.434 18.587v-.738H60.53v.738zM63.434 19.963v-.738H60.53v.738zM63.434 21.339V20.6H60.53v.738zM63.434 22.714v-.737H60.53v.737zM63.434 24.09v-.737H60.53v.737zM63.434 25.466v-.737H60.53v.737zM63.434 26.842v-.737H60.53v.737zM63.434 28.218v-.737H60.53v.737zM63.434 29.594v-.737H60.53v.737zM63.434 30.97v-.737H60.53v.737zM63.434 32.346v-.737H60.53v.737zM63.434 33.722v-.737H60.53v.737zM63.434 35.098v-.737H60.53v.737zM93.734 14.459v-.737h-2.905v.737zM93.734 15.835v-.737h-2.905v.737zM93.734 17.21v-.736h-2.905v.737zM93.734 18.587v-.738h-2.905v.738zM93.734 19.963v-.738h-2.905v.738zM93.734 21.339V20.6h-2.905v.738zM93.734 22.714v-.737h-2.905v.737zM93.734 24.09v-.737h-2.905v.737zM93.734 25.466v-.737h-2.905v.737zM93.734 26.842v-.737h-2.905v.737zM93.734 28.218v-.737h-2.905v.737zM93.734 29.594v-.737h-2.905v.737zM93.734 30.97v-.737h-2.905v.737zM93.734 32.346v-.737h-2.905v.737zM93.734 33.722v-.737h-2.905v.737zM93.734 35.098v-.737h-2.905v.737z"/><path fill="#ee7402" d="M27.082 13.984h-.958v.52h.957z"/><path fill="#aeafaf" d="M27.408 14.874h-.52v.957h.52z"/><path fill="#057582" d="M27.408 14.874h-.52v.957h.52z"/><path fill="#eba900" d="M27.408 14.874h-.52v.957h.52z"/><path fill="#057582" d="M26.366 15.831v-.957h-.521v.957z"/><path fill="#aeafaf" d="M4.08 39.228v2.698H9.58v-2.698z"/><path fill="#ebaa01" d="M6.83 42.272a1.695 1.695 0 1 0 0-3.39 1.695 1.695 0 0 0 0 3.39"/><path fill="#aeafaf" d="M4.08 6.977v2.699H9.58V6.977z"/><path fill="#ebaa01" d="M6.83 10.021a1.695 1.695 0 1 0 0-3.39 1.695 1.695 0 0 0 0 3.39"/><path fill="#aeafaf" d="M25.386 13.667v2.48h2.481v-2.48z"/><path fill="#ec672b" d="M26.626 16.124a1.217 1.217 0 1 0 0-2.433 1.217 1.217 0 0 0 0 2.433"/><path fill="#010101" d="M23.714 35.381c0 .23.044.455.124.66h-2.035a1.8 1.8 0 0 0-.006-1.326h2.048q-.13.31-.131.666"/><path fill="#aeafaf" d="M21.927 35.382c0 .23-.043.455-.124.66h-.337v-1.327h.33q.131.31.131.667M24.169 34.715v1.327h-.33a1.8 1.8 0 0 1 .006-1.327z"/><path fill="#010101" d="M23.714 37.994c0 .23.044.455.124.66h-2.035a1.8 1.8 0 0 0-.006-1.326h2.048c-.087.205-.131.43-.131.666"/><path fill="#aeafaf" d="M21.927 37.995c0 .23-.043.454-.124.66h-.337v-1.327h.33q.131.31.131.666M24.169 37.328v1.327h-.33a1.8 1.8 0 0 1 .006-1.327z"/><path fill="#010101" d="M13.988 40.58c0 .23.044.455.125.66h-2.036a1.8 1.8 0 0 0-.006-1.326h2.048q-.13.31-.13.666"/><path fill="#aeafaf" d="M12.202 40.58c0 .231-.044.456-.125.661h-.336v-1.327h.33q.13.31.13.667M14.443 39.914v1.327h-.33a1.8 1.8 0 0 1 .006-1.327z"/><path fill="#010101" d="M13.988 8.368c0 .23.044.455.125.66h-2.036a1.8 1.8 0 0 0-.006-1.326h2.048q-.13.31-.13.666"/><path fill="#aeafaf" d="M12.202 8.369c0 .23-.044.455-.125.66h-.336V7.702h.33q.13.31.13.667M14.443 7.702V9.03h-.33a1.8 1.8 0 0 1 .006-1.327z"/><path fill="#010101" d="M19.386 8.368c0 .23.044.455.124.66h-2.035a1.8 1.8 0 0 0-.007-1.326h2.049q-.13.31-.131.666"/><path fill="#aeafaf" d="M17.6 8.369c0 .23-.044.455-.125.66h-.337V7.702h.33q.132.31.131.667M19.84 7.702V9.03h-.33a1.8 1.8 0 0 1 .006-1.327z"/><path fill="#010101" d="M23.252 16.137c-.23 0-.454.044-.66.125v-2.036a1.8 1.8 0 0 0 1.326-.006v2.048a1.7 1.7 0 0 0-.666-.13"/><path fill="#aeafaf" d="M23.253 14.35c-.23 0-.455-.043-.66-.124v-.336h1.326v.33c-.205.087-.43.13-.666.13M23.92 16.592h-1.328v-.33a1.8 1.8 0 0 1 1.327.006z"/><path fill="#010101" d="M95.26 39.998c-.23 0-.454.043-.659.124v-2.035a1.8 1.8 0 0 0 1.326-.007v2.048a1.7 1.7 0 0 0-.666-.13"/><path fill="#aeafaf" d="M95.261 38.211c-.23 0-.454-.044-.66-.124v-.337h1.327v.33q-.31.13-.667.131M95.928 40.452H94.6v-.33a1.8 1.8 0 0 1 1.327.006z"/><path fill="#010101" d="M97.883 39.998c-.23 0-.454.043-.66.124v-2.035a1.8 1.8 0 0 0 1.326-.007v2.048a1.7 1.7 0 0 0-.666-.13"/><path fill="#aeafaf" d="M97.884 38.211c-.23 0-.455-.044-.66-.124v-.337h1.326v.33c-.205.087-.43.131-.666.131M98.55 40.452h-1.326v-.33a1.8 1.8 0 0 1 1.326.006z"/><path fill="#010101" d="M100.506 39.998c-.23 0-.454.043-.66.124v-2.035c.206.08.43.124.66.124q.357 0 .666-.13v2.047a1.7 1.7 0 0 0-.666-.13"/><path fill="#aeafaf" d="M100.506 38.211c-.23 0-.454-.044-.66-.124v-.337h1.327v.33a1.7 1.7 0 0 1-.667.131M101.173 40.452h-1.327v-.33a1.8 1.8 0 0 1 1.327.006z"/><path fill="#010101" d="M108.774 39.998c-.23 0-.454.043-.66.124v-2.035c.206.08.43.124.66.124q.357 0 .666-.13v2.047a1.7 1.7 0 0 0-.666-.13"/><path fill="#aeafaf" d="M108.775 38.211c-.231 0-.455-.044-.661-.124v-.337h1.327v.33c-.205.087-.43.131-.666.131M109.441 40.452h-1.327v-.33c.206-.08.43-.124.661-.124q.355 0 .666.13z"/><path fill="#010101" d="M111.397 39.998c-.231 0-.455.043-.66.124v-2.035a1.8 1.8 0 0 0 1.326-.007v2.048a1.7 1.7 0 0 0-.666-.13"/><path fill="#aeafaf" d="M111.397 38.211a1.8 1.8 0 0 1-.66-.124v-.337h1.327v.33a1.7 1.7 0 0 1-.667.131M112.064 40.452h-1.327v-.33a1.8 1.8 0 0 1 1.327.006z"/><path fill="#010101" d="M114.019 39.998c-.23 0-.454.043-.66.124v-2.035c.206.08.43.124.66.124q.357 0 .666-.13v2.047a1.7 1.7 0 0 0-.666-.13"/><path fill="#aeafaf" d="M114.02 38.211c-.231 0-.455-.044-.661-.124v-.337h1.327v.33c-.205.087-.43.131-.666.131M114.686 40.452h-1.327v-.33c.206-.08.43-.124.661-.124.236 0 .461.043.666.13z"/><path fill="#010101" d="M92.622 39.998c-.23 0-.455.043-.66.124v-2.035a1.8 1.8 0 0 0 1.326-.007v2.048a1.7 1.7 0 0 0-.666-.13"/><path fill="#aeafaf" d="M92.622 38.211c-.23 0-.455-.044-.66-.124v-.337h1.326v.33c-.205.087-.43.131-.666.131M93.288 40.452h-1.326v-.33a1.8 1.8 0 0 1 1.326.006z"/><path fill="#010101" d="M56.78 31.891c-.319 0-.629.06-.913.173v-2.818c.284.112.594.173.913.173q.494 0 .922-.181v2.834a2.35 2.35 0 0 0-.922-.18"/><path fill="#aeafaf" d="M56.78 29.419c-.319 0-.629-.06-.913-.173v-.465h1.835v.457c-.284.12-.594.18-.922.18M57.702 32.52h-1.835v-.456c.284-.112.594-.173.913-.173q.494 0 .922.181z"/><path fill="#010101" d="M56.78 39.476c-.319 0-.629.06-.913.173V36.83c.284.112.594.172.913.172q.494 0 .922-.18v2.834a2.35 2.35 0 0 0-.922-.18"/><path fill="#aeafaf" d="M56.78 37.003c-.319 0-.629-.06-.913-.172v-.465h1.835v.456c-.284.121-.594.181-.922.181M57.702 40.105h-1.835v-.456c.284-.112.594-.173.913-.173q.494 0 .922.181z"/><path fill="#010101" d="M46.1 39.937c0 .23.044.454.125.66H44.19a1.8 1.8 0 0 0-.007-1.326h2.049c-.088.205-.131.43-.131.666"/><path fill="#aeafaf" d="M44.314 39.937c0 .23-.043.455-.124.66h-.337v-1.326h.33c.088.205.131.43.131.666M46.555 39.27v1.328h-.33a1.8 1.8 0 0 1 .006-1.327z"/><path fill="#010101" d="M51.015 37.276c0 .23.043.455.124.66h-2.036a1.8 1.8 0 0 0-.006-1.326h2.048q-.13.31-.13.666"/><path fill="#aeafaf" d="M49.228 37.277c0 .23-.044.454-.125.66h-.336V36.61h.33q.13.31.13.667M51.47 36.61v1.327h-.331a1.8 1.8 0 0 1 .006-1.327z"/><path fill="#010101" d="M101.383 34.738c0 .23.044.454.125.66h-2.036a1.8 1.8 0 0 0-.006-1.326h2.048c-.087.205-.131.43-.131.666"/><path fill="#aeafaf" d="M99.597 34.738c0 .23-.044.455-.125.66h-.336v-1.326h.33c.087.205.13.43.13.666M101.838 34.072v1.326h-.33a1.8 1.8 0 0 1-.125-.66 1.7 1.7 0 0 1 .131-.666z"/><path fill="#010101" d="M56.76 25.156c0 .23.044.455.125.66h-2.036a1.8 1.8 0 0 0-.006-1.326h2.048q-.13.31-.13.666"/><path fill="#aeafaf" d="M54.974 25.157c0 .23-.044.455-.125.66h-.336V24.49h.33q.13.31.13.667M57.215 24.49v1.327h-.33a1.8 1.8 0 0 1 .006-1.327z"/><path fill="#010101" d="M56.76 19.966c0 .23.044.454.125.66h-2.036a1.8 1.8 0 0 0-.006-1.327h2.048q-.13.31-.13.667"/><path fill="#aeafaf" d="M54.974 19.966c0 .23-.044.455-.125.66h-.336V19.3h.33q.13.31.13.667M57.215 19.3v1.326h-.33a1.8 1.8 0 0 1 .006-1.327z"/><path fill="#010101" d="M63.598 8.33c0 .23.043.454.124.66h-2.036a1.8 1.8 0 0 0-.006-1.327h2.048q-.13.31-.13.667"/><path fill="#aeafaf" d="M61.81 8.33c0 .23-.043.455-.124.66h-.336V7.663h.33q.13.31.13.667M64.052 7.663V8.99h-.33a1.8 1.8 0 0 1 .006-1.327z"/><path fill="#010101" d="M33.725 10.156c0 .23.043.455.124.66h-2.036a1.8 1.8 0 0 0-.006-1.326h2.048q-.13.31-.13.666"/><path fill="#aeafaf" d="M31.938 10.157c0 .23-.044.454-.125.66h-.336V9.49h.33q.13.31.13.667M34.179 9.49v1.327h-.33a1.8 1.8 0 0 1 .006-1.327z"/><path fill="#010101" d="M33.725 12.806c0 .23.043.455.124.66h-2.036a1.8 1.8 0 0 0-.006-1.326h2.048c-.087.205-.13.43-.13.666"/><path fill="#aeafaf" d="M31.938 12.807c0 .23-.044.454-.125.66h-.336V12.14h.33c.087.205.13.43.13.666M34.179 12.14v1.327h-.33a1.8 1.8 0 0 1 .006-1.327z"/><path fill="#010101" d="M33.725 15.456c0 .23.043.454.124.66h-2.036a1.8 1.8 0 0 0-.006-1.326h2.048c-.087.205-.13.43-.13.666"/><path fill="#aeafaf" d="M31.938 15.456c0 .23-.044.455-.125.66h-.336V14.79h.33c.087.205.13.43.13.666M34.179 14.79v1.327h-.33a1.8 1.8 0 0 1 .006-1.327z"/></svg>