<svg viewBox="0 0 126 51" fill="none" xmlns="http://www.w3.org/2000/svg">
<path d="M2.92325 0V49H121.922V0H2.92325ZM118.099 36.998C118.78 36.998 119.335 37.5524 119.335 38.2333C119.335 38.9238 118.78 39.4684 118.099 39.4684C117.419 39.4684 116.864 38.9238 116.864 38.2333C116.864 37.5524 117.419 36.998 118.099 36.998ZM118.099 11.681C117.419 11.681 116.864 11.1266 116.864 10.4459C116.864 9.75529 117.419 9.21063 118.099 9.21063C118.78 9.21063 119.335 9.75529 119.335 10.4459C119.335 11.1266 118.78 11.681 118.099 11.681ZM104.23 39.4684C103.549 39.4684 102.995 38.9238 102.995 38.2333C102.995 37.5524 103.549 36.998 104.23 36.998C104.911 36.998 105.465 37.5524 105.465 38.2333C105.465 38.9238 104.911 39.4684 104.23 39.4684ZM6.42462 47.7746C5.16997 47.7746 4.15842 46.763 4.15842 45.5084C4.15842 44.244 5.16997 43.2324 6.42462 43.2324C7.689 43.2324 8.70055 44.244 8.70055 45.5084C8.70055 46.763 7.689 47.7746 6.42462 47.7746ZM6.42462 5.7773C5.16997 5.7773 4.15842 4.76581 4.15842 3.51116C4.15842 2.24678 5.16997 1.23523 6.42462 1.23523C7.689 1.23523 8.70055 2.24678 8.70055 3.51116C8.70055 4.76581 7.689 5.7773 6.42462 5.7773ZM118.42 47.7746C117.166 47.7746 116.154 46.763 116.154 45.5084C116.154 44.244 117.166 43.2324 118.42 43.2324C119.685 43.2324 120.696 44.244 120.696 45.5084C120.696 46.763 119.685 47.7746 118.42 47.7746ZM118.42 5.7773C117.166 5.7773 116.154 4.76581 116.154 3.51116C116.154 2.24678 117.166 1.23523 118.42 1.23523C119.685 1.23523 120.696 2.24678 120.696 3.51116C120.696 4.76581 119.685 5.7773 118.42 5.7773Z" fill="#057582"/>
<path d="M32.7785 27.396L32.5297 27.3865L32.2808 27.3561L32.0396 27.3049L31.8002 27.2364L31.5665 27.1433L31.3385 27.0389L31.122 26.9116L30.9207 26.7654L30.7288 26.6095L30.5522 26.4329L30.3868 26.243L30.2368 26.0453L30.1076 25.8345L29.9936 25.6104L29.9025 25.3786L29.8284 25.1411L29.7733 24.8961L29.7353 24.6492L29.7201 24.4003L29.7239 24.1515L29.7505 23.9045L29.7999 23.6556L29.8607 23.4182L29.9481 23.1827L30.0526 22.9565L30.1703 22.74L30.3109 22.533L30.4648 22.3335L30.6357 22.1549L30.82 21.9878L31.0194 21.832L31.2303 21.699L31.4545 21.585L31.6805 21.4824L31.9141 21.4027L32.1573 21.3419L32.4062 21.3001L32.6551 21.2811H32.9039L33.1508 21.3001L33.3997 21.3419L33.6409 21.4027L33.8765 21.4824L34.1044 21.585L34.3248 21.699L34.5375 21.832L34.7351 21.9878L34.9212 22.1549L35.0922 22.3335L35.2461 22.533L35.3867 22.74L35.5064 22.9565L35.609 23.1827L35.6963 23.4182L35.759 23.6556L35.8046 23.9045L35.8312 24.1515L35.8369 24.4003L35.8217 24.6492L35.7856 24.8961L35.7268 25.1411L35.6564 25.3786L35.5614 25.6104L35.4475 25.8345L35.3183 26.0453L35.1682 26.243L35.0029 26.4329L34.8282 26.6095L34.6344 26.7654L34.4349 26.9116L34.2184 27.0389L33.9905 27.1433L33.7568 27.2364L33.5175 27.3049L33.2762 27.3561L33.0254 27.3865L32.7785 27.396Z" fill="#8C9091"/>
<path d="M34.8975 29.1893H30.553V30.8533H34.8975V29.1893Z" fill="#8C9091"/>
<path d="M34.8975 18.1467H30.553V19.8127H34.8975V18.1467Z" fill="#8C9091"/>
<path d="M29.1716 19.4563V29.7465H36.2814V19.4563H29.1716ZM35.2212 25.2238L35.1434 25.4184L35.0462 25.6032L34.9392 25.788L34.6668 26.1186L34.521 26.2645L34.3556 26.4007L34.1805 26.5174L33.9957 26.6244L33.8109 26.7216L33.6067 26.7995L33.4025 26.8578L33.1982 26.8968L32.994 26.9259L32.78 26.9357L32.566 26.9259L32.352 26.8968L32.1478 26.8578L31.9436 26.7995L31.749 26.7216L31.5545 26.6244L31.3698 26.5174L31.2044 26.4007L31.0391 26.2645L30.8931 26.1186L30.7473 25.9533L30.6209 25.788L30.5139 25.6032L30.4166 25.4184L30.3388 25.2239L30.2707 25.0196L30.2318 24.8154L30.1929 24.6014L30.1832 24.3874V24.1832L30.2124 23.9692L30.2512 23.7552L30.2999 23.5607L30.3777 23.3565L30.4652 23.1619L30.5625 22.9869L30.6889 22.8021L30.8154 22.6368L30.9612 22.4811L31.1169 22.3449L31.2822 22.2088L31.467 22.1018L31.6518 22.0046L31.8463 21.917L32.0505 21.849L32.2548 21.8003L32.4591 21.7614L32.673 21.7419H32.887L33.0912 21.7614L33.3052 21.8003L33.5094 21.849L33.7137 21.917L33.8985 22.0046L34.093 22.1018L34.2681 22.2088L34.4431 22.3449L34.5987 22.4811L34.7446 22.6368L34.8711 22.8021L34.9878 22.9869L35.0948 23.1619L35.1823 23.3565L35.2504 23.5607L35.3088 23.7552L35.3477 23.9692L35.3671 24.1832L35.3769 24.3874L35.3574 24.6014L35.3282 24.8154L35.2796 25.0196L35.2212 25.2238Z" fill="#AEAFAF"/>
<path d="M16.1699 0V3.58892C16.1699 4.79501 15.1875 5.77729 13.9718 5.77729C12.7657 5.77729 11.7834 4.79501 11.7834 3.58892V0H16.1699Z" fill="#BCAC99"/>
<path d="M13.9747 5.03422C14.7649 5.03422 15.4055 4.39362 15.4055 3.60341C15.4055 2.81319 14.7649 2.17259 13.9747 2.17259C13.1845 2.17259 12.5439 2.81319 12.5439 3.60341C12.5439 4.39362 13.1845 5.03422 13.9747 5.03422Z" fill="white"/>
<path d="M15.4015 0C15.4015 0.787871 14.7693 1.42976 13.9718 1.42976C13.1839 1.42976 12.542 0.787871 12.542 0H15.4015Z" fill="white"/>
<path d="M23.0907 0V3.58892C23.0907 4.79501 22.1084 5.77729 20.8926 5.77729C19.6866 5.77729 18.7042 4.79501 18.7042 3.58892V0H23.0907Z" fill="#BCAC99"/>
<path d="M20.8955 5.03422C21.6857 5.03422 22.3263 4.39362 22.3263 3.60341C22.3263 2.81319 21.6857 2.17259 20.8955 2.17259C20.1053 2.17259 19.4647 2.81319 19.4647 3.60341C19.4647 4.39362 20.1053 5.03422 20.8955 5.03422Z" fill="white"/>
<path d="M22.3223 0C22.3223 0.787871 21.6901 1.42976 20.8926 1.42976C20.1048 1.42976 19.4628 0.787871 19.4628 0H22.3223Z" fill="white"/>
<path d="M30.0116 0V3.58892C30.0116 4.79501 29.0292 5.77729 27.8135 5.77729C26.6074 5.77729 25.6251 4.79501 25.6251 3.58892V0H30.0116Z" fill="#BCAC99"/>
<path d="M27.8164 5.03422C28.6066 5.03422 29.2472 4.39362 29.2472 3.60341C29.2472 2.81319 28.6066 2.17259 27.8164 2.17259C27.0262 2.17259 26.3856 2.81319 26.3856 3.60341C26.3856 4.39362 27.0262 5.03422 27.8164 5.03422Z" fill="white"/>
<path d="M29.2431 0C29.2431 0.787871 28.611 1.42976 27.8134 1.42976C27.0256 1.42976 26.3837 0.787871 26.3837 0H29.2431Z" fill="white"/>
<path d="M36.9324 0V3.58892C36.9324 4.79501 35.95 5.77729 34.7343 5.77729C33.5282 5.77729 32.5459 4.79501 32.5459 3.58892V0H36.9324Z" fill="#BCAC99"/>
<path d="M34.7372 5.03422C35.5274 5.03422 36.168 4.39362 36.168 3.60341C36.168 2.81319 35.5274 2.17259 34.7372 2.17259C33.947 2.17259 33.3064 2.81319 33.3064 3.60341C33.3064 4.39362 33.947 5.03422 34.7372 5.03422Z" fill="white"/>
<path d="M36.164 0C36.164 0.787871 35.5318 1.42976 34.7343 1.42976C33.9465 1.42976 33.3045 0.787871 33.3045 0H36.164Z" fill="white"/>
<path d="M43.8532 0V3.58892C43.8532 4.79501 42.8709 5.77729 41.6551 5.77729C40.4491 5.77729 39.4668 4.79501 39.4668 3.58892V0H43.8532Z" fill="#BCAC99"/>
<path d="M41.658 5.03422C42.4483 5.03422 43.0889 4.39362 43.0889 3.60341C43.0889 2.81319 42.4483 2.17259 41.658 2.17259C40.8678 2.17259 40.2272 2.81319 40.2272 3.60341C40.2272 4.39362 40.8678 5.03422 41.658 5.03422Z" fill="white"/>
<path d="M43.0848 0C43.0848 0.787871 42.4527 1.42976 41.6551 1.42976C40.8673 1.42976 40.2253 0.787871 40.2253 0H43.0848Z" fill="white"/>
<path d="M50.7741 0V3.58892C50.7741 4.79501 49.7917 5.77729 48.576 5.77729C47.3699 5.77729 46.3876 4.79501 46.3876 3.58892V0H50.7741Z" fill="#BCAC99"/>
<path d="M48.5789 5.03422C49.3691 5.03422 50.0097 4.39362 50.0097 3.60341C50.0097 2.81319 49.3691 2.17259 48.5789 2.17259C47.7887 2.17259 47.1481 2.81319 47.1481 3.60341C47.1481 4.39362 47.7887 5.03422 48.5789 5.03422Z" fill="white"/>
<path d="M50.0057 0C50.0057 0.787871 49.3735 1.42976 48.576 1.42976C47.7882 1.42976 47.1462 0.787871 47.1462 0H50.0057Z" fill="white"/>
<path d="M57.6949 0V3.58892C57.6949 4.79501 56.7126 5.77729 55.4968 5.77729C54.2908 5.77729 53.3084 4.79501 53.3084 3.58892V0H57.6949Z" fill="#BCAC99"/>
<path d="M55.4997 5.03422C56.2899 5.03422 56.9305 4.39362 56.9305 3.60341C56.9305 2.81319 56.2899 2.17259 55.4997 2.17259C54.7095 2.17259 54.0689 2.81319 54.0689 3.60341C54.0689 4.39362 54.7095 5.03422 55.4997 5.03422Z" fill="white"/>
<path d="M56.9265 0C56.9265 0.787871 56.2944 1.42976 55.4968 1.42976C54.709 1.42976 54.067 0.787871 54.067 0H56.9265Z" fill="white"/>
<path d="M64.6158 0V3.58892C64.6158 4.79501 63.6334 5.77729 62.4177 5.77729C61.2117 5.77729 60.2293 4.79501 60.2293 3.58892V0H64.6158Z" fill="#BCAC99"/>
<path d="M62.4206 5.03422C63.2108 5.03422 63.8514 4.39362 63.8514 3.60341C63.8514 2.81319 63.2108 2.17259 62.4206 2.17259C61.6303 2.17259 60.9897 2.81319 60.9897 3.60341C60.9897 4.39362 61.6303 5.03422 62.4206 5.03422Z" fill="white"/>
<path d="M63.8473 0C63.8473 0.787871 63.2152 1.42976 62.4176 1.42976C61.6298 1.42976 60.9879 0.787871 60.9879 0H63.8473Z" fill="white"/>
<path d="M71.5366 0V3.58892C71.5366 4.79501 70.5542 5.77729 69.3385 5.77729C68.1325 5.77729 67.1501 4.79501 67.1501 3.58892V0H71.5366Z" fill="#BCAC99"/>
<path d="M69.3414 5.03422C70.1316 5.03422 70.7722 4.39362 70.7722 3.60341C70.7722 2.81319 70.1316 2.17259 69.3414 2.17259C68.5512 2.17259 67.9106 2.81319 67.9106 3.60341C67.9106 4.39362 68.5512 5.03422 69.3414 5.03422Z" fill="white"/>
<path d="M70.7682 0C70.7682 0.787871 70.136 1.42976 69.3385 1.42976C68.5507 1.42976 67.9087 0.787871 67.9087 0H70.7682Z" fill="white"/>
<path d="M78.4575 0V3.58892C78.4575 4.79501 77.4751 5.77729 76.2594 5.77729C75.0533 5.77729 74.071 4.79501 74.071 3.58892V0H78.4575Z" fill="#BCAC99"/>
<path d="M76.2622 5.03422C77.0524 5.03422 77.693 4.39362 77.693 3.60341C77.693 2.81319 77.0524 2.17259 76.2622 2.17259C75.472 2.17259 74.8314 2.81319 74.8314 3.60341C74.8314 4.39362 75.472 5.03422 76.2622 5.03422Z" fill="white"/>
<path d="M77.689 0C77.689 0.787871 77.0569 1.42976 76.2593 1.42976C75.4715 1.42976 74.8296 0.787871 74.8296 0H77.689Z" fill="white"/>
<path d="M85.3783 0V3.58892C85.3783 4.79501 84.3959 5.77729 83.1802 5.77729C81.9742 5.77729 80.9918 4.79501 80.9918 3.58892V0H85.3783Z" fill="#BCAC99"/>
<path d="M83.1831 5.03422C83.9733 5.03422 84.6139 4.39362 84.6139 3.60341C84.6139 2.81319 83.9733 2.17259 83.1831 2.17259C82.3929 2.17259 81.7523 2.81319 81.7523 3.60341C81.7523 4.39362 82.3929 5.03422 83.1831 5.03422Z" fill="white"/>
<path d="M84.6099 0C84.6099 0.787871 83.9777 1.42976 83.1802 1.42976C82.3923 1.42976 81.7504 0.787871 81.7504 0H84.6099Z" fill="white"/>
<path d="M92.2991 0V3.58892C92.2991 4.79501 91.3168 5.77729 90.101 5.77729C88.895 5.77729 87.9127 4.79501 87.9127 3.58892V0H92.2991Z" fill="#BCAC99"/>
<path d="M90.1039 5.03422C90.8942 5.03422 91.5348 4.39362 91.5348 3.60341C91.5348 2.81319 90.8942 2.17259 90.1039 2.17259C89.3137 2.17259 88.6731 2.81319 88.6731 3.60341C88.6731 4.39362 89.3137 5.03422 90.1039 5.03422Z" fill="white"/>
<path d="M91.5307 0C91.5307 0.787871 90.8985 1.42976 90.101 1.42976C89.3132 1.42976 88.6712 0.787871 88.6712 0H91.5307Z" fill="white"/>
<path d="M99.22 0V3.58892C99.22 4.79501 98.2376 5.77729 97.0219 5.77729C95.8158 5.77729 94.8335 4.79501 94.8335 3.58892V0H99.22Z" fill="#BCAC99"/>
<path d="M97.0248 5.03422C97.815 5.03422 98.4556 4.39362 98.4556 3.60341C98.4556 2.81319 97.815 2.17259 97.0248 2.17259C96.2346 2.17259 95.594 2.81319 95.594 3.60341C95.594 4.39362 96.2346 5.03422 97.0248 5.03422Z" fill="white"/>
<path d="M98.4516 0C98.4516 0.787871 97.8194 1.42976 97.0219 1.42976C96.2341 1.42976 95.5921 0.787871 95.5921 0H98.4516Z" fill="white"/>
<path d="M106.141 0V3.58892C106.141 4.79501 105.158 5.77729 103.943 5.77729C102.737 5.77729 101.754 4.79501 101.754 3.58892V0H106.141Z" fill="#BCAC99"/>
<path d="M103.946 5.03422C104.736 5.03422 105.376 4.39362 105.376 3.60341C105.376 2.81319 104.736 2.17259 103.946 2.17259C103.155 2.17259 102.515 2.81319 102.515 3.60341C102.515 4.39362 103.155 5.03422 103.946 5.03422Z" fill="white"/>
<path d="M105.372 0C105.372 0.787871 104.74 1.42976 103.943 1.42976C103.155 1.42976 102.513 0.787871 102.513 0H105.372Z" fill="white"/>
<path d="M113.062 0V3.58892C113.062 4.79501 112.079 5.77729 110.864 5.77729C109.658 5.77729 108.675 4.79501 108.675 3.58892V0H113.062Z" fill="#BCAC99"/>
<path d="M110.866 5.03422C111.657 5.03422 112.297 4.39362 112.297 3.60341C112.297 2.81319 111.657 2.17259 110.866 2.17259C110.076 2.17259 109.436 2.81319 109.436 3.60341C109.436 4.39362 110.076 5.03422 110.866 5.03422Z" fill="white"/>
<path d="M112.293 0C112.293 0.787871 111.661 1.42976 110.864 1.42976C110.076 1.42976 109.434 0.787871 109.434 0H112.293Z" fill="white"/>
<path d="M108.675 49V45.4111C108.675 44.205 109.658 43.2227 110.873 43.2227C112.079 43.2227 113.062 44.205 113.062 45.4111V49H108.675Z" fill="#BCAC99"/>
<path d="M110.87 46.8274C111.661 46.8274 112.301 46.1868 112.301 45.3966C112.301 44.6064 111.661 43.9658 110.87 43.9658C110.08 43.9658 109.44 44.6064 109.44 45.3966C109.44 46.1868 110.08 46.8274 110.87 46.8274Z" fill="white"/>
<path d="M109.444 49C109.444 48.2121 110.076 47.5702 110.873 47.5702C111.661 47.5702 112.303 48.2121 112.303 49H109.444Z" fill="white"/>
<path d="M101.754 49V45.4111C101.754 44.205 102.737 43.2227 103.952 43.2227C105.158 43.2227 106.141 44.205 106.141 45.4111V49H101.754Z" fill="#BCAC99"/>
<path d="M103.95 46.8274C104.74 46.8274 105.38 46.1868 105.38 45.3966C105.38 44.6064 104.74 43.9658 103.95 43.9658C103.159 43.9658 102.519 44.6064 102.519 45.3966C102.519 46.1868 103.159 46.8274 103.95 46.8274Z" fill="white"/>
<path d="M102.523 49C102.523 48.2121 103.155 47.5702 103.952 47.5702C104.74 47.5702 105.382 48.2121 105.382 49H102.523Z" fill="white"/>
<path d="M94.8335 49V45.4111C94.8335 44.205 95.8158 43.2227 97.0316 43.2227C98.2376 43.2227 99.22 44.205 99.22 45.4111V49H94.8335Z" fill="#BCAC99"/>
<path d="M97.0287 46.8274C97.8189 46.8274 98.4595 46.1868 98.4595 45.3966C98.4595 44.6064 97.8189 43.9658 97.0287 43.9658C96.2385 43.9658 95.5979 44.6064 95.5979 45.3966C95.5979 46.1868 96.2385 46.8274 97.0287 46.8274Z" fill="white"/>
<path d="M95.6019 49C95.6019 48.2121 96.2341 47.5702 97.0316 47.5702C97.8194 47.5702 98.4614 48.2121 98.4614 49H95.6019Z" fill="white"/>
<path d="M87.9127 49V45.4111C87.9127 44.205 88.895 43.2227 90.1108 43.2227C91.3168 43.2227 92.2991 44.205 92.2991 45.4111V49H87.9127Z" fill="#BCAC99"/>
<path d="M90.1078 46.8274C90.898 46.8274 91.5386 46.1868 91.5386 45.3966C91.5386 44.6064 90.898 43.9658 90.1078 43.9658C89.3176 43.9658 88.677 44.6064 88.677 45.3966C88.677 46.1868 89.3176 46.8274 90.1078 46.8274Z" fill="white"/>
<path d="M88.681 49C88.681 48.2121 89.3132 47.5702 90.1107 47.5702C90.8985 47.5702 91.5405 48.2121 91.5405 49H88.681Z" fill="white"/>
<path d="M80.9918 49V45.4111C80.9918 44.205 81.9742 43.2227 83.1899 43.2227C84.3959 43.2227 85.3783 44.205 85.3783 45.4111V49H80.9918Z" fill="#BCAC99"/>
<path d="M83.187 46.8274C83.9772 46.8274 84.6178 46.1868 84.6178 45.3966C84.6178 44.6064 83.9772 43.9658 83.187 43.9658C82.3968 43.9658 81.7562 44.6064 81.7562 45.3966C81.7562 46.1868 82.3968 46.8274 83.187 46.8274Z" fill="white"/>
<path d="M81.7602 49C81.7602 48.2121 82.3923 47.5702 83.1899 47.5702C83.9777 47.5702 84.6197 48.2121 84.6197 49H81.7602Z" fill="white"/>
<path d="M74.071 49V45.4111C74.071 44.205 75.0533 43.2227 76.2691 43.2227C77.4751 43.2227 78.4575 44.205 78.4575 45.4111V49H74.071Z" fill="#BCAC99"/>
<path d="M76.2662 46.8274C77.0564 46.8274 77.697 46.1868 77.697 45.3966C77.697 44.6064 77.0564 43.9658 76.2662 43.9658C75.476 43.9658 74.8354 44.6064 74.8354 45.3966C74.8354 46.1868 75.476 46.8274 76.2662 46.8274Z" fill="white"/>
<path d="M74.8394 49C74.8394 48.2121 75.4715 47.5702 76.2691 47.5702C77.0569 47.5702 77.6988 48.2121 77.6988 49H74.8394Z" fill="white"/>
<path d="M67.1501 49V45.4111C67.1501 44.205 68.1325 43.2227 69.3482 43.2227C70.5542 43.2227 71.5366 44.205 71.5366 45.4111V49H67.1501Z" fill="#BCAC99"/>
<path d="M69.3453 46.8274C70.1355 46.8274 70.7761 46.1868 70.7761 45.3966C70.7761 44.6064 70.1355 43.9658 69.3453 43.9658C68.5551 43.9658 67.9145 44.6064 67.9145 45.3966C67.9145 46.1868 68.5551 46.8274 69.3453 46.8274Z" fill="white"/>
<path d="M67.9185 49C67.9185 48.2121 68.5507 47.5702 69.3482 47.5702C70.136 47.5702 70.778 48.2121 70.778 49H67.9185Z" fill="white"/>
<path d="M60.2293 49V45.4111C60.2293 44.205 61.2117 43.2227 62.4274 43.2227C63.6334 43.2227 64.6158 44.205 64.6158 45.4111V49H60.2293Z" fill="#BCAC99"/>
<path d="M62.4245 46.8274C63.2147 46.8274 63.8553 46.1868 63.8553 45.3966C63.8553 44.6064 63.2147 43.9658 62.4245 43.9658C61.6342 43.9658 60.9937 44.6064 60.9937 45.3966C60.9937 46.1868 61.6342 46.8274 62.4245 46.8274Z" fill="white"/>
<path d="M60.9977 49C60.9977 48.2121 61.6298 47.5702 62.4274 47.5702C63.2152 47.5702 63.8572 48.2121 63.8572 49H60.9977Z" fill="white"/>
<path d="M53.3084 49V45.4111C53.3084 44.205 54.2908 43.2227 55.5065 43.2227C56.7126 43.2227 57.6949 44.205 57.6949 45.4111V49H53.3084Z" fill="#BCAC99"/>
<path d="M55.5036 46.8274C56.2938 46.8274 56.9344 46.1868 56.9344 45.3966C56.9344 44.6064 56.2938 43.9658 55.5036 43.9658C54.7134 43.9658 54.0728 44.6064 54.0728 45.3966C54.0728 46.1868 54.7134 46.8274 55.5036 46.8274Z" fill="white"/>
<path d="M54.0768 49C54.0768 48.2121 54.709 47.5702 55.5065 47.5702C56.2944 47.5702 56.9363 48.2121 56.9363 49H54.0768Z" fill="white"/>
<path d="M46.3876 49V45.4111C46.3876 44.205 47.3699 43.2227 48.5857 43.2227C49.7917 43.2227 50.7741 44.205 50.7741 45.4111V49H46.3876Z" fill="#BCAC99"/>
<path d="M48.5828 46.8274C49.373 46.8274 50.0136 46.1868 50.0136 45.3966C50.0136 44.6064 49.373 43.9658 48.5828 43.9658C47.7925 43.9658 47.1519 44.6064 47.1519 45.3966C47.1519 46.1868 47.7925 46.8274 48.5828 46.8274Z" fill="white"/>
<path d="M47.156 49C47.156 48.2121 47.7882 47.5702 48.5857 47.5702C49.3735 47.5702 50.0155 48.2121 50.0155 49H47.156Z" fill="white"/>
<path d="M39.4668 49V45.4111C39.4668 44.205 40.4491 43.2227 41.6649 43.2227C42.8709 43.2227 43.8532 44.205 43.8532 45.4111V49H39.4668Z" fill="#BCAC99"/>
<path d="M41.6619 46.8274C42.4521 46.8274 43.0927 46.1868 43.0927 45.3966C43.0927 44.6064 42.4521 43.9658 41.6619 43.9658C40.8717 43.9658 40.2311 44.6064 40.2311 45.3966C40.2311 46.1868 40.8717 46.8274 41.6619 46.8274Z" fill="white"/>
<path d="M40.2351 49C40.2351 48.2121 40.8673 47.5702 41.6648 47.5702C42.4527 47.5702 43.0946 48.2121 43.0946 49H40.2351Z" fill="white"/>
<path d="M32.5459 49V45.4111C32.5459 44.205 33.5282 43.2227 34.744 43.2227C35.95 43.2227 36.9324 44.205 36.9324 45.4111V49H32.5459Z" fill="#BCAC99"/>
<path d="M34.7411 46.8274C35.5313 46.8274 36.1719 46.1868 36.1719 45.3966C36.1719 44.6064 35.5313 43.9658 34.7411 43.9658C33.9509 43.9658 33.3103 44.6064 33.3103 45.3966C33.3103 46.1868 33.9509 46.8274 34.7411 46.8274Z" fill="white"/>
<path d="M33.3143 49C33.3143 48.2121 33.9465 47.5702 34.744 47.5702C35.5318 47.5702 36.1738 48.2121 36.1738 49H33.3143Z" fill="white"/>
<path d="M25.6251 49V45.4111C25.6251 44.205 26.6074 43.2227 27.8232 43.2227C29.0292 43.2227 30.0116 44.205 30.0116 45.4111V49H25.6251Z" fill="#BCAC99"/>
<path d="M27.8202 46.8274C28.6105 46.8274 29.2511 46.1868 29.2511 45.3966C29.2511 44.6064 28.6105 43.9658 27.8202 43.9658C27.03 43.9658 26.3894 44.6064 26.3894 45.3966C26.3894 46.1868 27.03 46.8274 27.8202 46.8274Z" fill="white"/>
<path d="M26.3935 49C26.3935 48.2121 27.0256 47.5702 27.8232 47.5702C28.611 47.5702 29.2529 48.2121 29.2529 49H26.3935Z" fill="white"/>
<path d="M18.7042 49V45.4111C18.7042 44.205 19.6866 43.2227 20.9023 43.2227C22.1084 43.2227 23.0907 44.205 23.0907 45.4111V49H18.7042Z" fill="#BCAC99"/>
<path d="M20.8994 46.8274C21.6896 46.8274 22.3302 46.1868 22.3302 45.3966C22.3302 44.6064 21.6896 43.9658 20.8994 43.9658C20.1092 43.9658 19.4686 44.6064 19.4686 45.3966C19.4686 46.1868 20.1092 46.8274 20.8994 46.8274Z" fill="white"/>
<path d="M19.4726 49C19.4726 48.2121 20.1048 47.5702 20.9023 47.5702C21.6901 47.5702 22.3321 48.2121 22.3321 49H19.4726Z" fill="white"/>
<path d="M11.7834 49V45.4111C11.7834 44.205 12.7657 43.2227 13.9815 43.2227C15.1875 43.2227 16.1699 44.205 16.1699 45.4111V49H11.7834Z" fill="#BCAC99"/>
<path d="M13.9786 46.8274C14.7688 46.8274 15.4094 46.1868 15.4094 45.3966C15.4094 44.6064 14.7688 43.9658 13.9786 43.9658C13.1884 43.9658 12.5478 44.6064 12.5478 45.3966C12.5478 46.1868 13.1884 46.8274 13.9786 46.8274Z" fill="white"/>
<path d="M12.5518 49C12.5518 48.2121 13.1839 47.5702 13.9815 47.5702C14.7693 47.5702 15.4112 48.2121 15.4112 49H12.5518Z" fill="white"/>
<path d="M43.0509 13.4906H37.694V21.2609H43.0509V13.4906Z" fill="#010202"/>
<path d="M38.7232 13.4907H42.0219V12.3H38.7232V13.4907Z" fill="#AEAFAF"/>
<path d="M38.2103 16.0088H42.5346V13.9771H38.2103V16.0088Z" fill="#AEAFAF"/>
<path d="M42.0219 21.262H38.7231V22.4527H42.0219V21.262Z" fill="#AEAFAF"/>
<path d="M51.4549 28.6444H45.4835V28.6073C45.4835 28.2387 45.7828 27.9394 46.1514 27.9394H50.787C51.1556 27.9394 51.4549 28.2387 51.4549 28.6073L51.4549 28.6444Z" fill="#AEAFAF"/>
<path d="M45.4835 34.6391H51.4549V34.6762C51.4549 35.0448 51.1556 35.3441 50.787 35.3441H46.1514C45.7828 35.3441 45.4835 35.0448 45.4835 34.6762L45.4835 34.6391Z" fill="#AEAFAF"/>
<path d="M51.4549 28.6444H45.4834V34.6383H51.4549V28.6444Z" fill="#010202"/>
<path d="M49.8 20.8536H47.4209V19.1915C47.4209 18.9442 47.6217 18.7433 47.8691 18.7433H49.3518C49.5992 18.7433 49.8 18.9442 49.8 19.1915L49.8 20.8536Z" fill="#AEAFAF"/>
<path d="M44.7771 24.762H47.1563V26.424C47.1563 26.6714 46.9554 26.8722 46.708 26.8722H45.2254C44.978 26.8722 44.7771 26.6714 44.7771 26.424L44.7771 24.762Z" fill="#AEAFAF"/>
<path d="M49.9927 24.762H52.3718V26.424C52.3718 26.6714 52.171 26.8722 51.9236 26.8722H50.4409C50.1935 26.8722 49.9927 26.6714 49.9927 26.424L49.9927 24.762Z" fill="#AEAFAF"/>
<path d="M52.7928 20.8536H44.3787V24.7616H52.7928V20.8536Z" fill="#010202"/>
<path d="M103.602 9.52666H101.222V7.86463C101.222 7.61725 101.423 7.41641 101.671 7.41641H103.153C103.401 7.41641 103.602 7.61725 103.602 7.86463L103.602 9.52666Z" fill="#AEAFAF"/>
<path d="M98.5787 13.4351H100.958V15.0971C100.958 15.3445 100.757 15.5453 100.51 15.5453H99.0269C98.7796 15.5453 98.5787 15.3445 98.5787 15.0971L98.5787 13.4351Z" fill="#AEAFAF"/>
<path d="M103.794 13.4351H106.173V15.0971C106.173 15.3445 105.973 15.5453 105.725 15.5453H104.242C103.995 15.5453 103.794 15.3445 103.794 15.0971L103.794 13.4351Z" fill="#AEAFAF"/>
<path d="M106.594 9.52675H98.1802V13.4347H106.594V9.52675Z" fill="#010202"/>
<path d="M112.363 9.52666H109.983V7.86463C109.983 7.61725 110.184 7.41641 110.432 7.41641H111.914C112.162 7.41641 112.363 7.61725 112.363 7.86463L112.363 9.52666Z" fill="#AEAFAF"/>
<path d="M107.34 13.4351H109.719V15.0971C109.719 15.3445 109.518 15.5453 109.271 15.5453H107.788C107.541 15.5453 107.34 15.3445 107.34 15.0971L107.34 13.4351Z" fill="#AEAFAF"/>
<path d="M112.555 13.4351H114.934V15.0971C114.934 15.3445 114.734 15.5453 114.486 15.5453H113.003C112.756 15.5453 112.555 15.3445 112.555 15.0971L112.555 13.4351Z" fill="#AEAFAF"/>
<path d="M115.355 9.52675H106.941V13.4347H115.355V9.52675Z" fill="#010202"/>
<path d="M119.953 16.5491H109.543V32.3547H119.953V16.5491Z" fill="#AEAFAF"/>
<path d="M111.03 16.5491H109.543V16.5748V32.3114V32.3547H111.03V32.3114V16.5491Z" fill="#8C9091"/>
<path d="M114.004 16.5491H112.517V16.5748V32.3114V32.3547H114.004V32.3114V16.5491Z" fill="#8C9091"/>
<path d="M116.979 16.5491H115.492V16.5748V32.3114V32.3547H116.979V32.3114V16.5491Z" fill="#8C9091"/>
<path d="M119.953 16.5491H118.466V16.5748V32.3114V32.3547H119.953V32.3114V16.5491Z" fill="#8C9091"/>
<path d="M109.543 20.005H106.17V21.3582H109.543V20.005Z" fill="#AEAFAF"/>
<path d="M109.543 27.5343H106.17V28.8875H109.543V27.5343Z" fill="#AEAFAF"/>
<path d="M109.543 25.0246H106.17V26.3777H109.543V25.0246Z" fill="#AEAFAF"/>
<path d="M109.543 22.5148H106.17V23.868H109.543V22.5148Z" fill="#AEAFAF"/>
<path d="M103.794 18.5998H97.2332V27.11H103.794V18.5998Z" fill="#AEAFAF"/>
<path d="M26.3439 19.1271H21.4661V21.4126H26.3439V19.1271Z" fill="#AEAFAF"/>
<path d="M26.3439 22.5405H21.4661V24.8259H26.3439V22.5405Z" fill="#AEAFAF"/>
<path d="M26.3439 27.5017H21.4661V29.7871H26.3439V27.5017Z" fill="#AEAFAF"/>
<path d="M104.23 35.8795C102.927 35.8795 101.876 36.93 101.876 38.2333C101.876 39.5366 102.927 40.5967 104.23 40.5967C105.533 40.5967 106.593 39.5365 106.593 38.2333C106.593 36.93 105.533 35.8795 104.23 35.8795ZM104.23 39.4684C103.549 39.4684 102.995 38.9238 102.995 38.2333C102.995 37.5524 103.549 36.998 104.23 36.998C104.911 36.998 105.465 37.5524 105.465 38.2333C105.465 38.9238 104.911 39.4684 104.23 39.4684Z" fill="#BCAC99"/>
<path d="M118.099 35.8795C116.796 35.8795 115.736 36.93 115.736 38.2333C115.736 39.5366 116.796 40.5967 118.099 40.5967C119.403 40.5967 120.463 39.5365 120.463 38.2333C120.463 36.93 119.403 35.8795 118.099 35.8795ZM118.099 39.4684C117.419 39.4684 116.864 38.9238 116.864 38.2333C116.864 37.5524 117.419 36.998 118.099 36.998C118.78 36.998 119.335 37.5524 119.335 38.2333C119.335 38.9238 118.78 39.4684 118.099 39.4684Z" fill="#BCAC99"/>
<path d="M118.099 8.08243C116.796 8.08243 115.736 9.13281 115.736 10.4459C115.736 11.7491 116.796 12.7996 118.099 12.7996C119.403 12.7996 120.463 11.7491 120.463 10.4459C120.463 9.1328 119.403 8.08243 118.099 8.08243ZM118.099 11.681C117.419 11.681 116.864 11.1266 116.864 10.4459C116.864 9.75529 117.419 9.21063 118.099 9.21063C118.78 9.21063 119.335 9.75529 119.335 10.4459C119.335 11.1266 118.78 11.681 118.099 11.681Z" fill="#BCAC99"/>
<path d="M27.4436 10.2095C27.4436 10.7841 27.5247 11.3432 27.6756 11.8557H23.8818C24.0326 11.3432 24.1138 10.7841 24.1138 10.2095C24.1138 9.61943 24.0326 9.06029 23.8702 8.54789H27.6872C27.5247 9.06029 27.4436 9.61943 27.4436 10.2095Z" fill="#9D846D"/>
<path d="M24.1138 10.2095C24.1138 10.7841 24.0326 11.3432 23.8818 11.8557H23.2552V8.54788H23.8702C24.0326 9.06029 24.1138 9.61943 24.1138 10.2095Z" fill="#AEAFAF"/>
<path d="M28.2905 8.54789V11.8557H27.6756C27.5248 11.3432 27.4436 10.7841 27.4436 10.2095C27.4436 9.61944 27.5248 9.0603 27.6872 8.54789H28.2905Z" fill="#AEAFAF"/>
<path d="M54.9968 22.5375C54.9968 22.3139 54.9545 22.0964 54.8759 21.8969H56.852C56.7734 22.0964 56.7312 22.3139 56.7312 22.5375C56.7312 22.7671 56.7734 22.9847 56.8581 23.1841H54.8699C54.9545 22.9847 54.9968 22.7671 54.9968 22.5375Z" fill="#9D846D"/>
<path d="M56.731 22.5379C56.731 22.3142 56.7733 22.0965 56.8519 21.8969H57.1785V23.1849H56.858C56.7733 22.9854 56.731 22.7677 56.731 22.5379Z" fill="#AEAFAF"/>
<path d="M54.5554 23.1849V21.8969H54.8759C54.9546 22.0965 54.9968 22.3142 54.9968 22.5379C54.9968 22.7677 54.9546 22.9854 54.8699 23.1849H54.5554Z" fill="#AEAFAF"/>
<path d="M49.2052 39.8609C49.2052 39.6373 49.163 39.4197 49.0844 39.2203H51.0605C50.9819 39.4197 50.9396 39.6373 50.9396 39.8609C50.9396 40.0905 50.9819 40.3081 51.0665 40.5075H49.0783C49.163 40.3081 49.2052 40.0905 49.2052 39.8609Z" fill="#9D846D"/>
<path d="M50.9395 39.8613C50.9395 39.6375 50.9818 39.4198 51.0604 39.2203H51.387V40.5083H51.0665C50.9818 40.3088 50.9395 40.0911 50.9395 39.8613Z" fill="#AEAFAF"/>
<path d="M48.7639 40.5083V39.2203H49.0844C49.163 39.4198 49.2053 39.6375 49.2053 39.8613C49.2053 40.0911 49.163 40.3088 49.0784 40.5083H48.7639Z" fill="#AEAFAF"/>
<path d="M53.9763 37.3698C54.1999 37.3698 54.4175 37.3276 54.6169 37.249V39.2251C54.4175 39.1465 54.1999 39.1042 53.9763 39.1042C53.7467 39.1042 53.5291 39.1465 53.3297 39.2311V37.2429C53.5291 37.3276 53.7467 37.3698 53.9763 37.3698Z" fill="#9D846D"/>
<path d="M53.9767 39.104C54.2005 39.104 54.4182 39.1463 54.6177 39.225V39.5515H53.3297V39.231C53.5292 39.1463 53.747 39.104 53.9767 39.104Z" fill="#AEAFAF"/>
<path d="M53.3297 36.9285H54.6177V37.249C54.4182 37.3276 54.2005 37.3699 53.9767 37.3699C53.747 37.3699 53.5292 37.3276 53.3297 37.2429V36.9285Z" fill="#AEAFAF"/>
<path d="M97.8798 30.1848C98.1034 30.1848 98.3209 30.1426 98.5204 30.064V32.0401C98.3209 31.9615 98.1034 31.9192 97.8798 31.9192C97.6502 31.9192 97.4326 31.9615 97.2332 32.0461V30.0579C97.4326 30.1426 97.6502 30.1848 97.8798 30.1848Z" fill="#9D846D"/>
<path d="M97.8802 31.919C98.104 31.919 98.3217 31.9613 98.5212 32.04V32.3665H97.2332V32.046C97.4327 31.9613 97.6505 31.919 97.8802 31.919Z" fill="#AEAFAF"/>
<path d="M97.2332 29.7435H98.5212V30.064C98.3217 30.1426 98.104 30.1849 97.8802 30.1849C97.6505 30.1849 97.4327 30.1426 97.2332 30.0579V29.7435Z" fill="#AEAFAF"/>
<path d="M100.49 30.1848C100.713 30.1848 100.931 30.1426 101.13 30.064V32.0401C100.931 31.9615 100.713 31.9192 100.49 31.9192C100.26 31.9192 100.042 31.9615 99.843 32.0461V30.0579C100.042 30.1426 100.26 30.1848 100.49 30.1848Z" fill="#9D846D"/>
<path d="M100.49 31.919C100.714 31.919 100.932 31.9613 101.131 32.04V32.3665H99.843V32.046C100.043 31.9613 100.26 31.919 100.49 31.919Z" fill="#AEAFAF"/>
<path d="M99.8431 29.7435H101.131V30.064C100.932 30.1426 100.714 30.1849 100.49 30.1849C100.26 30.1849 100.043 30.1426 99.8431 30.0579V29.7435Z" fill="#AEAFAF"/>
<path d="M92.6275 8.8514C92.8511 8.8514 93.0687 8.80913 93.2681 8.73057V10.7067C93.0687 10.6281 92.8511 10.5858 92.6275 10.5858C92.3979 10.5858 92.1803 10.6281 91.9809 10.7127V8.72452C92.1803 8.80913 92.3979 8.8514 92.6275 8.8514Z" fill="#9D846D"/>
<path d="M92.6279 10.5856C92.8517 10.5856 93.0694 10.6279 93.2689 10.7065V11.0331H91.9809V10.7126C92.1804 10.6279 92.3981 10.5856 92.6279 10.5856Z" fill="#AEAFAF"/>
<path d="M91.9809 8.41007H93.2689V8.73058C93.0694 8.8092 92.8517 8.8515 92.6279 8.8515C92.3981 8.8515 92.1804 8.8092 91.9809 8.72453V8.41007Z" fill="#AEAFAF"/>
<path d="M95.2373 8.8514C95.461 8.8514 95.6785 8.80913 95.8779 8.73057V10.7067C95.6785 10.6281 95.461 10.5858 95.2373 10.5858C95.0077 10.5858 94.7901 10.6281 94.5907 10.7127V8.72452C94.7901 8.80913 95.0077 8.8514 95.2373 8.8514Z" fill="#9D846D"/>
<path d="M95.2377 10.5856C95.4615 10.5856 95.6792 10.6279 95.8788 10.7065V11.0331H94.5907V10.7126C94.7903 10.6279 95.008 10.5856 95.2377 10.5856Z" fill="#AEAFAF"/>
<path d="M94.5907 8.41007H95.8788V8.73058C95.6792 8.8092 95.4615 8.8515 95.2377 8.8515C95.008 8.8515 94.7903 8.8092 94.5907 8.72453V8.41007Z" fill="#AEAFAF"/>
<path d="M103.099 30.1848C103.323 30.1848 103.541 30.1426 103.74 30.064V32.0401C103.541 31.9615 103.323 31.9192 103.099 31.9192C102.87 31.9192 102.652 31.9615 102.453 32.0461V30.0579C102.652 30.1426 102.87 30.1848 103.099 30.1848Z" fill="#9D846D"/>
<path d="M103.1 31.919C103.324 31.919 103.541 31.9613 103.741 32.04V32.3665H102.453V32.046C102.652 31.9613 102.87 31.919 103.1 31.919Z" fill="#AEAFAF"/>
<path d="M102.453 29.7435H103.741V30.064C103.541 30.1426 103.324 30.1849 103.1 30.1849C102.87 30.1849 102.652 30.1426 102.453 30.0579V29.7435Z" fill="#AEAFAF"/>
<path d="M96.7478 14.0533C96.9714 14.0533 97.189 14.011 97.3884 13.9325V15.9086C97.189 15.83 96.9714 15.7877 96.7478 15.7877C96.5182 15.7877 96.3006 15.83 96.1012 15.9146V13.9264C96.3006 14.011 96.5182 14.0533 96.7478 14.0533Z" fill="#9D846D"/>
<path d="M96.7482 15.7875C96.972 15.7875 97.1897 15.8298 97.3892 15.9084V16.235H96.1012V15.9145C96.3007 15.8298 96.5184 15.7875 96.7482 15.7875Z" fill="#AEAFAF"/>
<path d="M96.1012 13.612H97.3892V13.9325C97.1897 14.0111 96.972 14.0534 96.7482 14.0534C96.5185 14.0534 96.3007 14.0111 96.1012 13.9264V13.612Z" fill="#AEAFAF"/>
<path d="M33.4678 34.5756C33.7867 34.5756 34.0968 34.5153 34.3812 34.4033V37.2208C34.0968 37.1087 33.7867 37.0485 33.4678 37.0485C33.1404 37.0485 32.8302 37.1087 32.5459 37.2294V34.3947C32.8302 34.5153 33.1404 34.5756 33.4678 34.5756Z" fill="#9D846D"/>
<path d="M33.4678 37.0485C33.7867 37.0485 34.0968 37.1087 34.3812 37.2208V37.6861H32.5459V37.2294C32.8302 37.1087 33.1404 37.0485 33.4678 37.0485Z" fill="#AEAFAF"/>
<path d="M32.5459 33.9466H34.3812V34.4033C34.0968 34.5153 33.7866 34.5756 33.4678 34.5756C33.1404 34.5756 32.8302 34.5153 32.5459 34.3947L32.5459 33.9466Z" fill="#AEAFAF"/>
<path d="M55.868 11.6618C56.1869 11.6618 56.497 11.6015 56.7814 11.4895V14.307C56.497 14.1949 56.1869 14.1347 55.868 14.1347C55.5407 14.1347 55.2304 14.1949 54.9461 14.3156V11.4809C55.2304 11.6015 55.5407 11.6618 55.868 11.6618Z" fill="#9D846D"/>
<path d="M55.868 14.1347C56.1869 14.1347 56.4971 14.1949 56.7814 14.3069V14.7723H54.9462V14.3156C55.2305 14.1949 55.5407 14.1347 55.868 14.1347Z" fill="#AEAFAF"/>
<path d="M54.9461 11.0328H56.7814V11.4895C56.497 11.6015 56.1869 11.6618 55.868 11.6618C55.5407 11.6618 55.2304 11.6015 54.9461 11.4809L54.9461 11.0328Z" fill="#AEAFAF"/>
<path d="M29.8692 34.5756C30.1881 34.5756 30.4983 34.5153 30.7826 34.4033V37.2208C30.4983 37.1087 30.1881 37.0485 29.8692 37.0485C29.5419 37.0485 29.2317 37.1087 28.9474 37.2294V34.3947C29.2317 34.5153 29.5419 34.5756 29.8692 34.5756Z" fill="#9D846D"/>
<path d="M29.8692 37.0485C30.1881 37.0485 30.4983 37.1087 30.7826 37.2208V37.6861H28.9474V37.2294C29.2317 37.1087 29.5419 37.0485 29.8692 37.0485Z" fill="#AEAFAF"/>
<path d="M28.9474 33.9466H30.7826V34.4033C30.4983 34.5153 30.1881 34.5756 29.8692 34.5756C29.5419 34.5756 29.2317 34.5153 28.9474 34.3947L28.9474 33.9466Z" fill="#AEAFAF"/>
<path d="M41.7074 29.1995C41.7074 29.5184 41.7677 29.8286 41.8797 30.1129H39.0622C39.1742 29.8286 39.2345 29.5184 39.2345 29.1995C39.2345 28.8722 39.1742 28.562 39.0536 28.2776H41.8883C41.7676 28.5619 41.7074 28.8722 41.7074 29.1995Z" fill="#9D846D"/>
<path d="M39.2345 29.1995C39.2345 29.5184 39.1742 29.8286 39.0622 30.1129H38.5969V28.2777H39.0536C39.1742 28.562 39.2345 28.8722 39.2345 29.1995Z" fill="#AEAFAF"/>
<path d="M42.3364 28.2776V30.1129H41.8797C41.7677 29.8285 41.7074 29.5184 41.7074 29.1995C41.7074 28.8722 41.7677 28.5619 41.8883 28.2776L42.3364 28.2776Z" fill="#AEAFAF"/>
<path d="M41.7074 25.601C41.7074 25.9198 41.7677 26.23 41.8797 26.5143H39.0622C39.1742 26.23 39.2345 25.9198 39.2345 25.601C39.2345 25.2736 39.1742 24.9634 39.0536 24.6791H41.8883C41.7676 24.9634 41.7074 25.2736 41.7074 25.601Z" fill="#9D846D"/>
<path d="M39.2345 25.601C39.2345 25.9198 39.1742 26.23 39.0622 26.5143H38.5969V24.6791H39.0536C39.1742 24.9634 39.2345 25.2736 39.2345 25.601Z" fill="#AEAFAF"/>
<path d="M42.3364 24.6791V26.5143H41.8797C41.7677 26.23 41.7074 25.9198 41.7074 25.601C41.7074 25.2736 41.7677 24.9634 41.8883 24.6791L42.3364 24.6791Z" fill="#AEAFAF"/>
<path d="M41.7074 8.76216C41.7074 9.08101 41.7677 9.39118 41.8797 9.67553H39.0622C39.1742 9.39118 39.2345 9.08101 39.2345 8.76216C39.2345 8.43479 39.1742 8.12458 39.0536 7.84027H41.8883C41.7676 8.12457 41.7074 8.43479 41.7074 8.76216Z" fill="#9D846D"/>
<path d="M39.2345 8.76217C39.2345 9.08102 39.1742 9.39118 39.0622 9.67553H38.5969V7.84029H39.0536C39.1742 8.12458 39.2345 8.4348 39.2345 8.76217Z" fill="#AEAFAF"/>
<path d="M42.3364 7.84027V9.67552H41.8797C41.7677 9.39116 41.7074 9.081 41.7074 8.76215C41.7074 8.43478 41.7677 8.12457 41.8883 7.84026L42.3364 7.84027Z" fill="#AEAFAF"/>
<path d="M53.9763 29.7807C54.1999 29.7807 54.4175 29.7384 54.6169 29.6598V31.6359C54.4175 31.5573 54.1999 31.5151 53.9763 31.5151C53.7467 31.5151 53.5291 31.5573 53.3297 31.642V29.6538C53.5291 29.7384 53.7467 29.7807 53.9763 29.7807Z" fill="#9D846D"/>
<path d="M53.9767 31.5149C54.2005 31.5149 54.4182 31.5572 54.6177 31.6358V31.9624H53.3297V31.6418C53.5292 31.5572 53.747 31.5149 53.9767 31.5149Z" fill="#AEAFAF"/>
<path d="M53.3297 29.3393H54.6177V29.6598C54.4182 29.7384 54.2005 29.7807 53.9767 29.7807C53.747 29.7807 53.5292 29.7384 53.3297 29.6538V29.3393Z" fill="#AEAFAF"/>
<path d="M43.7314 32.643C43.955 32.643 44.1726 32.6007 44.372 32.5221V34.4982C44.1726 34.4196 43.955 34.3774 43.7314 34.3774C43.5018 34.3774 43.2842 34.4196 43.0848 34.5043V32.5161C43.2842 32.6007 43.5018 32.643 43.7314 32.643Z" fill="#9D846D"/>
<path d="M43.7318 34.3772C43.9556 34.3772 44.1733 34.4195 44.3729 34.4981V34.8247H43.0848V34.5041C43.2844 34.4195 43.5021 34.3772 43.7318 34.3772Z" fill="#AEAFAF"/>
<path d="M43.0848 32.2016H44.3729V32.5221C44.1733 32.6007 43.9556 32.643 43.7318 32.643C43.5021 32.643 43.2844 32.6007 43.0848 32.5161V32.2016Z" fill="#AEAFAF"/>
<path d="M26.7272 35.7374C26.9508 35.7374 27.1684 35.6951 27.3678 35.6166V37.5926C27.1684 37.5141 26.9508 37.4718 26.7272 37.4718C26.4976 37.4718 26.28 37.5141 26.0806 37.5987V35.6105C26.28 35.6951 26.4976 35.7374 26.7272 35.7374Z" fill="#9D846D"/>
<path d="M26.7276 37.4716C26.9514 37.4716 27.1691 37.5139 27.3686 37.5925V37.9191H26.0806V37.5986C26.2801 37.5139 26.4978 37.4716 26.7276 37.4716Z" fill="#AEAFAF"/>
<path d="M26.0806 35.2961H27.3686V35.6166C27.1691 35.6952 26.9514 35.7375 26.7276 35.7375C26.4979 35.7375 26.2801 35.6952 26.0806 35.6105V35.2961Z" fill="#AEAFAF"/>
<path d="M37.5568 39.8609C37.5568 39.6373 37.5146 39.4197 37.436 39.2203H39.4121C39.3335 39.4197 39.2912 39.6373 39.2912 39.8609C39.2912 40.0905 39.3335 40.3081 39.4181 40.5075H37.4299C37.5145 40.3081 37.5568 40.0905 37.5568 39.8609Z" fill="#9D846D"/>
<path d="M39.291 39.8613C39.291 39.6375 39.3333 39.4198 39.412 39.2203H39.7385V40.5083H39.418C39.3333 40.3088 39.291 40.0911 39.291 39.8613Z" fill="#AEAFAF"/>
<path d="M37.1155 40.5083V39.2203H37.436C37.5146 39.4198 37.5569 39.6375 37.5569 39.8613C37.5569 40.0911 37.5146 40.3088 37.4299 40.5083H37.1155Z" fill="#AEAFAF"/>
<path d="M111.706 35.2931C111.706 35.0694 111.664 34.8519 111.585 34.6525H113.561C113.483 34.8519 113.44 35.0694 113.44 35.2931C113.44 35.5227 113.483 35.7403 113.567 35.9397H111.579C111.664 35.7403 111.706 35.5227 111.706 35.2931Z" fill="#9D846D"/>
<path d="M113.44 35.2935C113.44 35.0697 113.483 34.852 113.561 34.6525H113.888V35.9405H113.567C113.483 35.741 113.44 35.5232 113.44 35.2935Z" fill="#AEAFAF"/>
<path d="M111.265 35.9405V34.6525H111.585C111.664 34.852 111.706 35.0697 111.706 35.2935C111.706 35.5232 111.664 35.741 111.579 35.9405H111.265Z" fill="#AEAFAF"/>
<path d="M18.493 18.0332H17.3329V18.7438H18.493V18.0332Z" fill="#8C9091"/>
<path d="M18.493 15.8525H17.3329V16.563H18.493V15.8525Z" fill="#8C9091"/>
<path d="M18.493 19.1271H17.3329V19.8377H18.493V19.1271Z" fill="#8C9091"/>
<path d="M18.493 20.221H17.3329V20.9316H18.493V20.221Z" fill="#8C9091"/>
<path d="M18.493 21.3149H17.3329V22.175H18.493V21.3149Z" fill="#8C9091"/>
<path d="M18.493 22.5405H17.3329V23.2511H18.493V22.5405Z" fill="#8C9091"/>
<path d="M18.493 23.6344H17.3329V24.345H18.493V23.6344Z" fill="#8C9091"/>
<path d="M18.493 24.7283H17.3329V25.4389H18.493V24.7283Z" fill="#8C9091"/>
<path d="M18.493 25.8222H17.3329V26.5328H18.493V25.8222Z" fill="#8C9091"/>
<path d="M18.493 26.8952H17.3329V27.6058H18.493V26.8952Z" fill="#8C9091"/>
<path d="M18.493 27.9892H17.3329V28.6997H18.493V27.9892Z" fill="#8C9091"/>
<path d="M18.493 29.0831H17.3329V29.7936H18.493V29.0831Z" fill="#8C9091"/>
<path d="M18.493 30.177H17.3329V30.8875H18.493V30.177Z" fill="#8C9091"/>
<path d="M18.493 32.3926H17.3329V33.1031H18.493V32.3926Z" fill="#8C9091"/>
<path d="M17.6164 12.1594H0V36.7444H17.6164V12.1594Z" fill="#AEAFAF"/>
<path d="M4.44436 12.1594H2.79117V36.7444H4.44436V12.1594Z" fill="#8C9091"/>
<path d="M7.74004 12.1594H6.08679V36.7444H7.74004V12.1594Z" fill="#8C9091"/>
<path d="M11.0464 12.1594H9.39325V36.7444H11.0464V12.1594Z" fill="#8C9091"/>
<path d="M14.3421 12.1594H12.6889V36.7444H14.3421V12.1594Z" fill="#8C9091"/>
<path d="M17.6164 12.1594H15.9739V36.7444H17.6164V12.1594Z" fill="#8C9091"/>
<path d="M46.474 16.1791H44.8232C44.5424 16.1791 44.3148 16.2913 44.3148 16.4296V17.2808C44.3148 17.4191 44.5424 17.5312 44.8232 17.5312H46.474V16.1791Z" fill="#AEAFAF"/>
<path d="M46.474 10.648H44.8232C44.5424 10.648 44.3148 10.7601 44.3148 10.8984V11.7496C44.3148 11.8879 44.5424 12.0001 44.8232 12.0001H46.474V10.648Z" fill="#AEAFAF"/>
<path d="M50.4251 12.0001H52.0759C52.3567 12.0001 52.5844 11.8879 52.5844 11.7496V10.8984C52.5844 10.7601 52.3567 10.648 52.0759 10.648H50.4251V12.0001Z" fill="#AEAFAF"/>
<path d="M50.4251 17.5312H52.0759C52.3567 17.5312 52.5844 17.4191 52.5844 17.2808V16.4296C52.5844 16.2913 52.3567 16.1791 52.0759 16.1791H50.4251V17.5312Z" fill="#AEAFAF"/>
<path d="M46.474 13.3771H44.8232C44.5424 13.3771 44.3148 13.4892 44.3148 13.6276V14.4787C44.3148 14.6171 44.5424 14.7292 44.8232 14.7292H46.474V13.3771Z" fill="#AEAFAF"/>
<path d="M50.4251 10.1531H46.4744V17.9531H50.4251V10.1531Z" fill="#010202"/>
<path d="M36.1858 33.1947C36.1858 32.9789 36.3159 32.8041 36.4773 32.8041H37.2304V33.5853H36.4773C36.3159 33.5853 36.1858 33.4117 36.1858 33.1947Z" fill="#AEAFAF"/>
<path d="M36.1858 35.9139C36.1858 35.698 36.3159 35.5232 36.4773 35.5232H37.2304V36.3045H36.4773C36.3159 36.3045 36.1858 36.1309 36.1858 35.9139Z" fill="#AEAFAF"/>
<path d="M36.1858 34.5543C36.1858 34.3384 36.3159 34.1637 36.4773 34.1637H37.2304V34.9449H36.4773C36.3159 34.9449 36.1858 34.7713 36.1858 34.5543Z" fill="#AEAFAF"/>
<path d="M36.1858 37.2734C36.1858 37.0576 36.3159 36.8828 36.4773 36.8828H37.2304V37.664H36.4773C36.3159 37.664 36.1858 37.4905 36.1858 37.2734Z" fill="#AEAFAF"/>
<path d="M42.2107 37.2734C42.2107 37.4893 42.0806 37.664 41.9192 37.664H41.1661V36.8828H41.9192C42.0806 36.8828 42.2107 37.0564 42.2107 37.2734Z" fill="#AEAFAF"/>
<path d="M42.2107 34.5543C42.2107 34.7701 42.0806 34.9449 41.9192 34.9449H41.1661V34.1637H41.9192C42.0806 34.1637 42.2107 34.3372 42.2107 34.5543Z" fill="#AEAFAF"/>
<path d="M42.2107 35.9139C42.2107 36.1297 42.0806 36.3045 41.9192 36.3045H41.1661V35.5232H41.9192C42.0806 35.5232 42.2107 35.6968 42.2107 35.9139Z" fill="#AEAFAF"/>
<path d="M42.2107 33.1947C42.2107 33.4105 42.0806 33.5853 41.9192 33.5853H41.1661V32.8041H41.9192C42.0806 32.8041 42.2107 32.9777 42.2107 33.1947Z" fill="#AEAFAF"/>
<path d="M41.1807 32.0637H37.211V38.146H41.1807V32.0637Z" fill="#010202"/>
<path d="M38.0786 33.3334C38.2641 33.3334 38.4145 33.183 38.4145 32.9975C38.4145 32.812 38.2641 32.6616 38.0786 32.6616C37.8931 32.6616 37.7428 32.812 37.7428 32.9975C37.7428 33.183 37.8931 33.3334 38.0786 33.3334Z" fill="#AEAFAF"/>
<path d="M27.867 13.6666H25.3857V16.1479H27.867V13.6666Z" fill="#008B9C"/>
<path d="M27.867 13.6666H25.3857V16.1479H27.867V13.6666Z" fill="#EE7402"/>
<path d="M27.867 13.6666H25.3857V16.1479H27.867V13.6666Z" fill="#EBA900"/>
<path d="M90.74 13.6457V35.1793L87.9098 38.0095H66.3567L63.4389 35.0917V13.7333L66.4638 10.7084H87.8027L90.74 13.6457Z" fill="#010202"/>
<path d="M87.6479 35.8575C88.2185 35.8575 88.6811 35.395 88.6811 34.8244C88.6811 34.2537 88.2185 33.7912 87.6479 33.7912C87.0773 33.7912 86.6147 34.2537 86.6147 34.8244C86.6147 35.395 87.0773 35.8575 87.6479 35.8575Z" fill="#AEAFAF"/>
<path d="M67.1806 38.1069H66.4435V41.0118H67.1806V38.1069Z" fill="#AEAFAF"/>
<path d="M68.5566 38.1069H67.8195V41.0118H68.5566V38.1069Z" fill="#AEAFAF"/>
<path d="M69.9325 38.1069H69.1954V41.0118H69.9325V38.1069Z" fill="#AEAFAF"/>
<path d="M71.3084 38.1069H70.5713V41.0118H71.3084V38.1069Z" fill="#AEAFAF"/>
<path d="M72.6843 38.1069H71.9472V41.0118H72.6843V38.1069Z" fill="#AEAFAF"/>
<path d="M74.0602 38.1069H73.3231V41.0118H74.0602V38.1069Z" fill="#AEAFAF"/>
<path d="M75.4361 38.1069H74.699V41.0118H75.4361V38.1069Z" fill="#AEAFAF"/>
<path d="M76.8121 38.1069H76.075V41.0118H76.8121V38.1069Z" fill="#AEAFAF"/>
<path d="M78.188 38.1069H77.4509V41.0118H78.188V38.1069Z" fill="#AEAFAF"/>
<path d="M79.5639 38.1069H78.8268V41.0118H79.5639V38.1069Z" fill="#AEAFAF"/>
<path d="M80.9398 38.1069H80.2027V41.0118H80.9398V38.1069Z" fill="#AEAFAF"/>
<path d="M82.3157 38.1069H81.5786V41.0118H82.3157V38.1069Z" fill="#AEAFAF"/>
<path d="M83.6917 38.1069H82.9546V41.0118H83.6917V38.1069Z" fill="#AEAFAF"/>
<path d="M85.0676 38.1069H84.3305V41.0118H85.0676V38.1069Z" fill="#AEAFAF"/>
<path d="M86.4435 38.1069H85.7064V41.0118H86.4435V38.1069Z" fill="#AEAFAF"/>
<path d="M87.8194 38.1069H87.0823V41.0118H87.8194V38.1069Z" fill="#AEAFAF"/>
<path d="M67.1806 7.80766H66.4435V10.7125H67.1806V7.80766Z" fill="#AEAFAF"/>
<path d="M68.5566 7.80766H67.8195V10.7125H68.5566V7.80766Z" fill="#AEAFAF"/>
<path d="M69.9325 7.80766H69.1954V10.7125H69.9325V7.80766Z" fill="#AEAFAF"/>
<path d="M71.3084 7.80766H70.5713V10.7125H71.3084V7.80766Z" fill="#AEAFAF"/>
<path d="M72.6843 7.80766H71.9472V10.7125H72.6843V7.80766Z" fill="#AEAFAF"/>
<path d="M74.0602 7.80766H73.3231V10.7125H74.0602V7.80766Z" fill="#AEAFAF"/>
<path d="M75.4361 7.80766H74.699V10.7125H75.4361V7.80766Z" fill="#AEAFAF"/>
<path d="M76.8121 7.80766H76.075V10.7125H76.8121V7.80766Z" fill="#AEAFAF"/>
<path d="M78.188 7.80766H77.4509V10.7125H78.188V7.80766Z" fill="#AEAFAF"/>
<path d="M79.5639 7.80766H78.8268V10.7125H79.5639V7.80766Z" fill="#AEAFAF"/>
<path d="M80.9398 7.80766H80.2027V10.7125H80.9398V7.80766Z" fill="#AEAFAF"/>
<path d="M82.3157 7.80766H81.5786V10.7125H82.3157V7.80766Z" fill="#AEAFAF"/>
<path d="M83.6917 7.80766H82.9546V10.7125H83.6917V7.80766Z" fill="#AEAFAF"/>
<path d="M85.0676 7.80766H84.3305V10.7125H85.0676V7.80766Z" fill="#AEAFAF"/>
<path d="M86.4435 7.80766H85.7064V10.7125H86.4435V7.80766Z" fill="#AEAFAF"/>
<path d="M87.8194 7.80766H87.0823V10.7125H87.8194V7.80766Z" fill="#AEAFAF"/>
<path d="M63.4342 14.4589V13.7218H60.5294V14.4589H63.4342Z" fill="#AEAFAF"/>
<path d="M63.4342 15.8348V15.0977H60.5294V15.8348H63.4342Z" fill="#AEAFAF"/>
<path d="M63.4342 17.2107V16.4736H60.5294V17.2107H63.4342Z" fill="#AEAFAF"/>
<path d="M63.4342 18.5866V17.8495H60.5294V18.5866H63.4342Z" fill="#AEAFAF"/>
<path d="M63.4342 19.9626V19.2255H60.5294V19.9626H63.4342Z" fill="#AEAFAF"/>
<path d="M63.4342 21.3385V20.6014H60.5294V21.3385H63.4342Z" fill="#AEAFAF"/>
<path d="M63.4342 22.7144V21.9773H60.5294V22.7144H63.4342Z" fill="#AEAFAF"/>
<path d="M63.4342 24.0903V23.3532H60.5294V24.0903H63.4342Z" fill="#AEAFAF"/>
<path d="M63.4342 25.4662V24.7291H60.5294V25.4662H63.4342Z" fill="#AEAFAF"/>
<path d="M63.4342 26.8421V26.105H60.5294V26.8421H63.4342Z" fill="#AEAFAF"/>
<path d="M63.4342 28.2181V27.481H60.5294V28.2181H63.4342Z" fill="#AEAFAF"/>
<path d="M63.4342 29.594V28.8569H60.5294V29.594H63.4342Z" fill="#AEAFAF"/>
<path d="M63.4342 30.9699V30.2328H60.5294V30.9699H63.4342Z" fill="#AEAFAF"/>
<path d="M63.4342 32.3458V31.6087H60.5294V32.3458H63.4342Z" fill="#AEAFAF"/>
<path d="M63.4342 33.7217V32.9846H60.5294V33.7217H63.4342Z" fill="#AEAFAF"/>
<path d="M63.4342 35.0976V34.3605H60.5294V35.0976H63.4342Z" fill="#AEAFAF"/>
<path d="M93.7335 14.4589V13.7218H90.8287V14.4589H93.7335Z" fill="#AEAFAF"/>
<path d="M93.7335 15.8348V15.0977H90.8287V15.8348H93.7335Z" fill="#AEAFAF"/>
<path d="M93.7335 17.2107V16.4736H90.8287V17.2107H93.7335Z" fill="#AEAFAF"/>
<path d="M93.7335 18.5866V17.8495H90.8287V18.5866H93.7335Z" fill="#AEAFAF"/>
<path d="M93.7335 19.9626V19.2255H90.8287V19.9626H93.7335Z" fill="#AEAFAF"/>
<path d="M93.7335 21.3385V20.6014H90.8287V21.3385H93.7335Z" fill="#AEAFAF"/>
<path d="M93.7335 22.7144V21.9773H90.8287V22.7144H93.7335Z" fill="#AEAFAF"/>
<path d="M93.7335 24.0903V23.3532H90.8287V24.0903H93.7335Z" fill="#AEAFAF"/>
<path d="M93.7335 25.4662V24.7291H90.8287V25.4662H93.7335Z" fill="#AEAFAF"/>
<path d="M93.7335 26.8421V26.105H90.8287V26.8421H93.7335Z" fill="#AEAFAF"/>
<path d="M93.7335 28.2181V27.481H90.8287V28.2181H93.7335Z" fill="#AEAFAF"/>
<path d="M93.7335 29.594V28.8569H90.8287V29.594H93.7335Z" fill="#AEAFAF"/>
<path d="M93.7335 30.9699V30.2328H90.8287V30.9699H93.7335Z" fill="#AEAFAF"/>
<path d="M93.7335 32.3458V31.6087H90.8287V32.3458H93.7335Z" fill="#AEAFAF"/>
<path d="M93.7335 33.7217V32.9846H90.8287V33.7217H93.7335Z" fill="#AEAFAF"/>
<path d="M93.7335 35.0977V34.3605H90.8287V35.0977H93.7335Z" fill="#AEAFAF"/>
<path d="M27.0815 13.9838H26.1239V14.5045H27.0815V13.9838Z" fill="#EE7402"/>
<path d="M27.4079 14.8736H26.8872V15.8312H27.4079V14.8736Z" fill="#AEAFAF"/>
<path d="M27.4079 14.8736H26.8872V15.8312H27.4079V14.8736Z" fill="#057582"/>
<path d="M27.4079 14.8736H26.8872V15.8312H27.4079V14.8736Z" fill="#EBA900"/>
<path d="M26.3656 15.8312V14.8737H25.8449V15.8312H26.3656Z" fill="#057582"/>
<path d="M4.08093 39.2283V41.9264H9.57853V39.2283H4.08093Z" fill="#AEAFAF"/>
<path d="M6.82975 42.2721C7.76573 42.2721 8.52449 41.5133 8.52449 40.5774C8.52449 39.6414 7.76573 38.8826 6.82975 38.8826C5.89377 38.8826 5.13501 39.6414 5.13501 40.5774C5.13501 41.5133 5.89377 42.2721 6.82975 42.2721Z" fill="#EBAA01"/>
<path d="M4.08093 6.9774V9.67553H9.57853V6.9774H4.08093Z" fill="#AEAFAF"/>
<path d="M6.82975 10.0212C7.76573 10.0212 8.52449 9.26245 8.52449 8.32647C8.52449 7.39049 7.76573 6.63173 6.82975 6.63173C5.89377 6.63173 5.13501 7.39049 5.13501 8.32647C5.13501 9.26245 5.89377 10.0212 6.82975 10.0212Z" fill="#EBAA01"/>
<path d="M25.3857 13.6666V16.1479H27.867V13.6666H25.3857Z" fill="#AEAFAF"/>
<path d="M26.6264 16.124C27.2984 16.124 27.8431 15.5792 27.8431 14.9072C27.8431 14.2352 27.2984 13.6904 26.6264 13.6904C25.9543 13.6904 25.4096 14.2352 25.4096 14.9072C25.4096 15.5792 25.9543 16.124 26.6264 16.124Z" fill="#EC672B"/>
<path d="M23.7139 35.3813C23.7139 35.6117 23.7575 35.8358 23.8384 36.0412H21.8027C21.8836 35.8358 21.9272 35.6116 21.9272 35.3813C21.9272 35.1447 21.8836 34.9206 21.7965 34.7152H23.8446C23.7575 34.9206 23.7139 35.1447 23.7139 35.3813Z" fill="#010101"/>
<path d="M21.9273 35.3817C21.9273 35.6122 21.8837 35.8365 21.8027 36.0421H21.4663V34.7152H21.7965C21.8837 34.9207 21.9273 35.145 21.9273 35.3817Z" fill="#AEAFAF"/>
<path d="M24.1685 34.7152V36.0421H23.8383C23.7573 35.8365 23.7137 35.6122 23.7137 35.3817C23.7137 35.145 23.7573 34.9207 23.8445 34.7152L24.1685 34.7152Z" fill="#AEAFAF"/>
<path d="M23.7139 37.9941C23.7139 38.2245 23.7575 38.4486 23.8384 38.6541H21.8027C21.8836 38.4486 21.9272 38.2245 21.9272 37.9941C21.9272 37.7576 21.8836 37.5334 21.7965 37.328H23.8446C23.7575 37.5334 23.7139 37.7576 23.7139 37.9941Z" fill="#010101"/>
<path d="M21.9273 37.9945C21.9273 38.2251 21.8837 38.4493 21.8027 38.6549H21.4663V37.328H21.7965C21.8837 37.5336 21.9273 37.7579 21.9273 37.9945Z" fill="#AEAFAF"/>
<path d="M24.1685 37.328V38.6549H23.8383C23.7573 38.4493 23.7137 38.2251 23.7137 37.9946C23.7137 37.7579 23.7573 37.5336 23.8445 37.328L24.1685 37.328Z" fill="#AEAFAF"/>
<path d="M13.9884 40.5804C13.9884 40.8108 14.032 41.0349 14.1129 41.2404H12.0772C12.1581 41.0349 12.2017 40.8108 12.2017 40.5804C12.2017 40.3439 12.1581 40.1197 12.071 39.9143H14.1191C14.032 40.1197 13.9884 40.3439 13.9884 40.5804Z" fill="#010101"/>
<path d="M12.2018 40.5809C12.2018 40.8114 12.1582 41.0356 12.0772 41.2412H11.7408V39.9143H12.071C12.1582 40.1199 12.2018 40.3442 12.2018 40.5809Z" fill="#AEAFAF"/>
<path d="M14.443 39.9143V41.2412H14.1128C14.0318 41.0356 13.9882 40.8114 13.9882 40.5809C13.9882 40.3442 14.0318 40.1199 14.119 39.9143L14.443 39.9143Z" fill="#AEAFAF"/>
<path d="M13.9884 8.36849C13.9884 8.59887 14.032 8.82298 14.1129 9.02842H12.0772C12.1581 8.82297 12.2017 8.59886 12.2017 8.36848C12.2017 8.13195 12.1581 7.9078 12.071 7.70239H14.1191C14.032 7.9078 13.9884 8.13196 13.9884 8.36849Z" fill="#010101"/>
<path d="M12.2018 8.36891C12.2018 8.59944 12.1582 8.8237 12.0772 9.02927H11.7408V7.70239H12.071C12.1582 7.90793 12.2018 8.13223 12.2018 8.36891Z" fill="#AEAFAF"/>
<path d="M14.443 7.7024V9.02928H14.1128C14.0318 8.8237 13.9882 8.59944 13.9882 8.36892C13.9882 8.13224 14.0318 7.90795 14.119 7.70241L14.443 7.7024Z" fill="#AEAFAF"/>
<path d="M19.3859 8.36849C19.3859 8.59887 19.4295 8.82298 19.5104 9.02842H17.4747C17.5556 8.82297 17.5992 8.59886 17.5992 8.36848C17.5992 8.13195 17.5556 7.9078 17.4685 7.70239H19.5166C19.4295 7.9078 19.3859 8.13196 19.3859 8.36849Z" fill="#010101"/>
<path d="M17.5993 8.36891C17.5993 8.59944 17.5557 8.8237 17.4747 9.02927H17.1383V7.70239H17.4685C17.5557 7.90793 17.5993 8.13223 17.5993 8.36891Z" fill="#AEAFAF"/>
<path d="M19.8404 7.7024V9.02928H19.5103C19.4293 8.8237 19.3857 8.59944 19.3857 8.36892C19.3857 8.13224 19.4293 7.90795 19.5165 7.70241L19.8404 7.7024Z" fill="#AEAFAF"/>
<path d="M23.2522 16.1373C23.0218 16.1373 22.7977 16.1809 22.5922 16.2618V14.2261C22.7977 14.307 23.0218 14.3506 23.2522 14.3506C23.4887 14.3506 23.7128 14.307 23.9183 14.2199V16.268C23.7128 16.1809 23.4887 16.1373 23.2522 16.1373Z" fill="#010101"/>
<path d="M23.2526 14.3507C23.0221 14.3507 22.7978 14.3071 22.5922 14.2261V13.8897H23.9191V14.2198C23.7136 14.3071 23.4893 14.3507 23.2526 14.3507Z" fill="#AEAFAF"/>
<path d="M23.9191 16.5918H22.5922V16.2617C22.7978 16.1807 23.0221 16.1371 23.2526 16.1371C23.4893 16.1371 23.7136 16.1807 23.9191 16.2679L23.9191 16.5918Z" fill="#AEAFAF"/>
<path d="M95.2609 39.9977C95.0305 39.9977 94.8064 40.0413 94.601 40.1222V38.0865C94.8064 38.1674 95.0305 38.211 95.2609 38.211C95.4974 38.211 95.7216 38.1674 95.927 38.0803V40.1284C95.7216 40.0413 95.4974 39.9977 95.2609 39.9977Z" fill="#010101"/>
<path d="M95.2613 38.2111C95.0308 38.2111 94.8065 38.1675 94.601 38.0865V37.7501H95.9278V38.0803C95.7223 38.1675 95.498 38.2111 95.2613 38.2111Z" fill="#AEAFAF"/>
<path d="M95.9278 40.4523H94.601V40.1221C94.8065 40.0411 95.0308 39.9975 95.2613 39.9975C95.498 39.9975 95.7223 40.0411 95.9278 40.1283L95.9278 40.4523Z" fill="#AEAFAF"/>
<path d="M97.8834 39.9977C97.6531 39.9977 97.429 40.0413 97.2235 40.1222V38.0865C97.429 38.1674 97.6531 38.211 97.8835 38.211C98.12 38.211 98.3441 38.1674 98.5495 38.0803V40.1284C98.3441 40.0413 98.12 39.9977 97.8834 39.9977Z" fill="#010101"/>
<path d="M97.8839 38.2111C97.6533 38.2111 97.4291 38.1675 97.2235 38.0865V37.7501H98.5504V38.0803C98.3448 38.1675 98.1205 38.2111 97.8839 38.2111Z" fill="#AEAFAF"/>
<path d="M98.5504 40.4523H97.2235V40.1221C97.4291 40.0411 97.6533 39.9975 97.8839 39.9975C98.1205 39.9975 98.3448 40.0411 98.5504 40.1283L98.5504 40.4523Z" fill="#AEAFAF"/>
<path d="M100.506 39.9977C100.276 39.9977 100.052 40.0413 99.8461 40.1222V38.0865C100.052 38.1674 100.276 38.211 100.506 38.211C100.743 38.211 100.967 38.1674 101.172 38.0803V40.1284C100.967 40.0413 100.743 39.9977 100.506 39.9977Z" fill="#010101"/>
<path d="M100.506 38.2111C100.276 38.2111 100.052 38.1675 99.8461 38.0865V37.7501H101.173V38.0803C100.967 38.1675 100.743 38.2111 100.506 38.2111Z" fill="#AEAFAF"/>
<path d="M101.173 40.4523H99.8461V40.1221C100.052 40.0411 100.276 39.9975 100.506 39.9975C100.743 39.9975 100.967 40.0411 101.173 40.1283L101.173 40.4523Z" fill="#AEAFAF"/>
<path d="M108.774 39.9977C108.544 39.9977 108.32 40.0413 108.114 40.1222V38.0865C108.32 38.1674 108.544 38.211 108.774 38.211C109.011 38.211 109.235 38.1674 109.44 38.0803V40.1284C109.235 40.0413 109.011 39.9977 108.774 39.9977Z" fill="#010101"/>
<path d="M108.775 38.2111C108.544 38.2111 108.32 38.1675 108.114 38.0865V37.7501H109.441V38.0803C109.236 38.1675 109.011 38.2111 108.775 38.2111Z" fill="#AEAFAF"/>
<path d="M109.441 40.4523H108.114V40.1221C108.32 40.0411 108.544 39.9975 108.775 39.9975C109.011 39.9975 109.235 40.0411 109.441 40.1283L109.441 40.4523Z" fill="#AEAFAF"/>
<path d="M111.397 39.9977C111.166 39.9977 110.942 40.0413 110.737 40.1222V38.0865C110.942 38.1674 111.166 38.211 111.397 38.211C111.633 38.211 111.857 38.1674 112.063 38.0803V40.1284C111.857 40.0413 111.633 39.9977 111.397 39.9977Z" fill="#010101"/>
<path d="M111.397 38.2111C111.167 38.2111 110.942 38.1675 110.737 38.0865V37.7501H112.064V38.0803C111.858 38.1675 111.634 38.2111 111.397 38.2111Z" fill="#AEAFAF"/>
<path d="M112.064 40.4523H110.737V40.1221C110.942 40.0411 111.167 39.9975 111.397 39.9975C111.634 39.9975 111.858 40.0411 112.064 40.1283L112.064 40.4523Z" fill="#AEAFAF"/>
<path d="M114.019 39.9977C113.789 39.9977 113.565 40.0413 113.359 40.1222V38.0865C113.565 38.1674 113.789 38.211 114.019 38.211C114.256 38.211 114.48 38.1674 114.685 38.0803V40.1284C114.48 40.0413 114.256 39.9977 114.019 39.9977Z" fill="#010101"/>
<path d="M114.02 38.2111C113.789 38.2111 113.565 38.1675 113.359 38.0865V37.7501H114.686V38.0803C114.481 38.1675 114.256 38.2111 114.02 38.2111Z" fill="#AEAFAF"/>
<path d="M114.686 40.4523H113.359V40.1221C113.565 40.0411 113.789 39.9975 114.02 39.9975C114.256 39.9975 114.481 40.0411 114.686 40.1283L114.686 40.4523Z" fill="#AEAFAF"/>
<path d="M92.6215 39.9977C92.3911 39.9977 92.167 40.0413 91.9615 40.1222V38.0865C92.167 38.1674 92.3911 38.211 92.6215 38.211C92.858 38.211 93.0821 38.1674 93.2876 38.0803V40.1284C93.0821 40.0413 92.858 39.9977 92.6215 39.9977Z" fill="#010101"/>
<path d="M92.6219 38.2111C92.3913 38.2111 92.1671 38.1675 91.9615 38.0865V37.7501H93.2884V38.0803C93.0828 38.1675 92.8586 38.2111 92.6219 38.2111Z" fill="#AEAFAF"/>
<path d="M93.2884 40.4523H91.9615V40.1221C92.1671 40.0411 92.3913 39.9975 92.6218 39.9975C92.8585 39.9975 93.0828 40.0411 93.2884 40.1283L93.2884 40.4523Z" fill="#AEAFAF"/>
<path d="M56.7802 31.8914C56.4613 31.8914 56.1511 31.9517 55.8668 32.0637V29.2463C56.1511 29.3583 56.4613 29.4185 56.7802 29.4185C57.1075 29.4185 57.4177 29.3583 57.702 29.2376V32.0723C57.4177 31.9517 57.1075 31.8914 56.7802 31.8914Z" fill="#010101"/>
<path d="M56.7802 29.4186C56.4613 29.4186 56.1512 29.3583 55.8668 29.2463V28.781H57.7021V29.2377C57.4178 29.3583 57.1076 29.4186 56.7802 29.4186Z" fill="#AEAFAF"/>
<path d="M57.702 32.5204H55.8668V32.0637C56.1511 31.9517 56.4613 31.8914 56.7802 31.8914C57.1075 31.8914 57.4177 31.9517 57.702 32.0723L57.702 32.5204Z" fill="#AEAFAF"/>
<path d="M56.7802 39.4763C56.4613 39.4763 56.1511 39.5366 55.8668 39.6486V36.8311C56.1511 36.9431 56.4613 37.0034 56.7802 37.0034C57.1075 37.0034 57.4177 36.9431 57.702 36.8225V39.6572C57.4177 39.5366 57.1075 39.4763 56.7802 39.4763Z" fill="#010101"/>
<path d="M56.7802 37.0034C56.4613 37.0034 56.1512 36.9431 55.8668 36.8311V36.3658H57.7021V36.8225C57.4178 36.9432 57.1076 37.0034 56.7802 37.0034Z" fill="#AEAFAF"/>
<path d="M57.702 40.1053H55.8668V39.6486C56.1511 39.5366 56.4613 39.4763 56.7802 39.4763C57.1075 39.4763 57.4177 39.5366 57.702 39.6572L57.702 40.1053Z" fill="#AEAFAF"/>
<path d="M46.1009 39.9368C46.1009 40.1672 46.1444 40.3913 46.2253 40.5968H44.1896C44.2706 40.3913 44.3141 40.1672 44.3141 39.9368C44.3141 39.7003 44.2706 39.4761 44.1834 39.2707H46.2316C46.1444 39.4761 46.1009 39.7003 46.1009 39.9368Z" fill="#010101"/>
<path d="M44.3142 39.9372C44.3142 40.1678 44.2706 40.392 44.1896 40.5976H43.8532V39.2707H44.1834C44.2706 39.4763 44.3142 39.7006 44.3142 39.9372Z" fill="#AEAFAF"/>
<path d="M46.5554 39.2707V40.5976H46.2252C46.1442 40.392 46.1006 40.1678 46.1006 39.9373C46.1006 39.7006 46.1442 39.4763 46.2314 39.2707L46.5554 39.2707Z" fill="#AEAFAF"/>
<path d="M51.0146 37.2763C51.0146 37.5066 51.0581 37.7308 51.139 37.9362H49.1033C49.1843 37.7307 49.2278 37.5066 49.2278 37.2763C49.2278 37.0397 49.1843 36.8156 49.0971 36.6102H51.1453C51.0581 36.8156 51.0146 37.0397 51.0146 37.2763Z" fill="#010101"/>
<path d="M49.2279 37.2767C49.2279 37.5072 49.1843 37.7315 49.1033 37.937H48.7669V36.6102H49.0971C49.1843 36.8157 49.2279 37.04 49.2279 37.2767Z" fill="#AEAFAF"/>
<path d="M51.4691 36.6102V37.9371H51.1389C51.0579 37.7315 51.0144 37.5072 51.0144 37.2767C51.0144 37.04 51.0579 36.8157 51.1452 36.6102L51.4691 36.6102Z" fill="#AEAFAF"/>
<path d="M101.383 34.7377C101.383 34.9681 101.427 35.1922 101.508 35.3976H99.4721C99.553 35.1922 99.5966 34.9681 99.5966 34.7377C99.5966 34.5011 99.553 34.277 99.4659 34.0716H101.514C101.427 34.277 101.383 34.5012 101.383 34.7377Z" fill="#010101"/>
<path d="M99.5967 34.7381C99.5967 34.9686 99.5531 35.1929 99.4721 35.3985H99.1357V34.0716H99.4659C99.5531 34.2771 99.5967 34.5014 99.5967 34.7381Z" fill="#AEAFAF"/>
<path d="M101.838 34.0716V35.3985H101.508C101.427 35.1929 101.383 34.9686 101.383 34.7381C101.383 34.5014 101.427 34.2771 101.514 34.0716L101.838 34.0716Z" fill="#AEAFAF"/>
<path d="M56.7605 25.1564C56.7605 25.3868 56.804 25.6109 56.885 25.8164H54.8492C54.9302 25.6109 54.9737 25.3868 54.9737 25.1564C54.9737 24.9199 54.9302 24.6958 54.843 24.4903H56.8912C56.804 24.6958 56.7605 24.9199 56.7605 25.1564Z" fill="#010101"/>
<path d="M54.9738 25.1569C54.9738 25.3874 54.9302 25.6117 54.8492 25.8172H54.5128V24.4903H54.843C54.9302 24.6959 54.9738 24.9202 54.9738 25.1569Z" fill="#AEAFAF"/>
<path d="M57.215 24.4904V25.8172H56.8848C56.8038 25.6117 56.7603 25.3874 56.7603 25.1569C56.7603 24.9202 56.8038 24.6959 56.891 24.4904L57.215 24.4904Z" fill="#AEAFAF"/>
<path d="M56.7605 19.9656C56.7605 20.196 56.804 20.4201 56.885 20.6256H54.8492C54.9302 20.4201 54.9737 20.196 54.9737 19.9656C54.9737 19.7291 54.9302 19.5049 54.843 19.2995H56.8912C56.804 19.5049 56.7605 19.7291 56.7605 19.9656Z" fill="#010101"/>
<path d="M54.9738 19.9661C54.9738 20.1966 54.9302 20.4208 54.8492 20.6264H54.5128V19.2995H54.843C54.9302 19.5051 54.9738 19.7294 54.9738 19.9661Z" fill="#AEAFAF"/>
<path d="M57.215 19.2995V20.6264H56.8848C56.8038 20.4208 56.7603 20.1966 56.7603 19.9661C56.7603 19.7294 56.8038 19.5051 56.891 19.2995L57.215 19.2995Z" fill="#AEAFAF"/>
<path d="M63.5976 8.32954C63.5976 8.55993 63.6411 8.78403 63.7221 8.98948H61.6864C61.7673 8.78402 61.8109 8.55992 61.8109 8.32953C61.8109 8.09301 61.7673 7.86886 61.6801 7.66344H63.7283C63.6411 7.86886 63.5976 8.09302 63.5976 8.32954Z" fill="#010101"/>
<path d="M61.8109 8.32997C61.8109 8.5605 61.7674 8.78475 61.6864 8.99033H61.3499V7.66344H61.6801C61.7673 7.86899 61.8109 8.09329 61.8109 8.32997Z" fill="#AEAFAF"/>
<path d="M64.0521 7.66345V8.99034H63.7219C63.6409 8.78475 63.5974 8.5605 63.5974 8.32998C63.5974 8.0933 63.6409 7.86901 63.7282 7.66346L64.0521 7.66345Z" fill="#AEAFAF"/>
<path d="M33.7245 10.1562C33.7245 10.3866 33.768 10.6107 33.849 10.8161H31.8133C31.8942 10.6107 31.9377 10.3866 31.9377 10.1562C31.9377 9.91967 31.8942 9.69552 31.807 9.49011H33.8552C33.768 9.69552 33.7245 9.91968 33.7245 10.1562Z" fill="#010101"/>
<path d="M31.9378 10.1566C31.9378 10.3872 31.8943 10.6114 31.8133 10.817H31.4769V9.49011H31.807C31.8943 9.69566 31.9378 9.91996 31.9378 10.1566Z" fill="#AEAFAF"/>
<path d="M34.179 9.49012V10.817H33.8489C33.7679 10.6114 33.7243 10.3872 33.7243 10.1566C33.7243 9.91996 33.7679 9.69567 33.8551 9.49013L34.179 9.49012Z" fill="#AEAFAF"/>
<path d="M33.7245 12.8061C33.7245 13.0365 33.768 13.2606 33.849 13.466H31.8133C31.8942 13.2606 31.9377 13.0365 31.9377 12.8061C31.9377 12.5695 31.8942 12.3454 31.807 12.14H33.8552C33.768 12.3454 33.7245 12.5696 33.7245 12.8061Z" fill="#010101"/>
<path d="M31.9378 12.8065C31.9378 13.037 31.8943 13.2613 31.8133 13.4669H31.4769V12.14H31.807C31.8943 12.3455 31.9378 12.5698 31.9378 12.8065Z" fill="#AEAFAF"/>
<path d="M34.179 12.14V13.4669H33.8489C33.7679 13.2613 33.7243 13.037 33.7243 12.8065C33.7243 12.5698 33.7679 12.3455 33.8551 12.14L34.179 12.14Z" fill="#AEAFAF"/>
<path d="M33.7245 15.456C33.7245 15.6863 33.768 15.9104 33.849 16.1159H31.8133C31.8942 15.9104 31.9377 15.6863 31.9377 15.4559C31.9377 15.2194 31.8942 14.9953 31.807 14.7899H33.8552C33.768 14.9953 33.7245 15.2194 33.7245 15.456Z" fill="#010101"/>
<path d="M31.9378 15.4564C31.9378 15.6869 31.8943 15.9112 31.8133 16.1167H31.4769V14.7899H31.807C31.8943 14.9954 31.9378 15.2197 31.9378 15.4564Z" fill="#AEAFAF"/>
<path d="M34.179 14.7899V16.1167H33.8489C33.7679 15.9111 33.7243 15.6869 33.7243 15.4564C33.7243 15.2197 33.7679 14.9954 33.8551 14.7899L34.179 14.7899Z" fill="#AEAFAF"/>
</svg>
