<svg xmlns="http://www.w3.org/2000/svg" xmlns:xlink="http://www.w3.org/1999/xlink" width="521.857" height="511.936" viewBox="0 0 391.393 383.952"><defs><symbol id="c" overflow="visible"><path d="M5.125-2.906v-4.922H3.609L.313-2.625l.062.922h3.25V0h1.5v-1.703h.906v-1.203Zm-3.344 0 1.703-2.64.141-.266v2.906Zm0 0" style="stroke:none"/></symbol><symbol id="d" overflow="visible"><path d="M2.266-.86c0 .274.093.5.28.688q.282.282.75.281.483 0 .767-.28a.93.93 0 0 0 .28-.688.95.95 0 0 0-.28-.703c-.188-.196-.446-.297-.766-.297q-.485.002-.766.297a.97.97 0 0 0-.265.703m0 0" style="stroke:none"/></symbol><symbol id="e" overflow="visible"><path d="M2.266-4.562v1.156h.812q.294 0 .547.078.246.064.422.203.17.157.266.375.093.22.093.547 0 .253-.078.453a.9.9 0 0 1-.234.344.96.96 0 0 1-.39.234 1.6 1.6 0 0 1-.517.078c-.18 0-.34-.023-.484-.078a1.1 1.1 0 0 1-.36-.219.9.9 0 0 1-.25-.312 1.1 1.1 0 0 1-.077-.422h-1.5q-.002.563.218.984c.157.282.352.512.594.688q.375.28.844.422.48.14.984.14.574-.002 1.078-.156Q4.733-.2 5.11-.5q.358-.281.563-.703.218-.434.219-.984a2.3 2.3 0 0 0-.079-.594 2 2 0 0 0-.234-.516 1.7 1.7 0 0 0-.39-.406 2.2 2.2 0 0 0-.563-.313q.281-.124.484-.312a1.8 1.8 0 0 0 .36-.406q.153-.217.218-.47a1.7 1.7 0 0 0 .079-.5q0-.543-.188-.952a1.9 1.9 0 0 0-.531-.703 2.3 2.3 0 0 0-.828-.422 3.8 3.8 0 0 0-1.063-.14q-.549.002-1.015.155-.457.158-.797.422a2.3 2.3 0 0 0-.547.688 2 2 0 0 0-.188.86h1.485c0-.134.023-.259.078-.376q.092-.168.25-.297a1 1 0 0 1 .328-.187q.201-.062.438-.063.263.002.468.078.216.081.344.204.14.141.203.343.077.189.078.407 0 .236-.078.437A.8.8 0 0 1 4-4.906a1 1 0 0 1-.375.25q-.235.093-.547.093Zm0 0" style="stroke:none"/></symbol><symbol id="f" overflow="visible"><path d="M4.422 0v-7.828h-.094L.922-6.594v1.297L2.906-6v6Zm0 0" style="stroke:none"/></symbol><symbol id="g" overflow="visible"><path d="M1.688-5.812H.406V0h1.36v-4.344a.3.3 0 0 1 .046-.125c.032-.039.055-.078.079-.11q.059-.058.14-.093a.5.5 0 0 1 .172-.031q.075.001.156.031.077.02.141.078a.6.6 0 0 1 .078.172 1 1 0 0 1 .031.266V0h1.329v-4.437a.3.3 0 0 1 .046-.11 1 1 0 0 1 .094-.078.7.7 0 0 1 .125-.047.4.4 0 0 1 .156-.031q.075.001.157.031.075.02.14.078a.5.5 0 0 1 .094.172q.03.112.031.266V0h1.36v-4.14c0-.32-.032-.594-.094-.813a1.9 1.9 0 0 0-.25-.563 1.1 1.1 0 0 0-.406-.296c-.157-.07-.32-.11-.485-.11-.148 0-.281.024-.406.063a1 1 0 0 0-.312.14q-.111.082-.204.188-.094.093-.171.234a1 1 0 0 0-.11-.234.8.8 0 0 0-.156-.188.8.8 0 0 0-.281-.156 1.3 1.3 0 0 0-.36-.047q-.423 0-.719.219a1.36 1.36 0 0 0-.453.594Zm0 0" style="stroke:none"/></symbol><symbol id="h" overflow="visible"><path d="M4.422 0v-7.828h-.094L.922-6.594v1.297L2.906-6v6Zm0 0" style="stroke:none"/></symbol><symbol id="i" overflow="visible"><path d="M2.266-.86c0 .274.093.5.28.688q.282.282.75.281.483 0 .767-.28a.93.93 0 0 0 .28-.688.95.95 0 0 0-.28-.703c-.188-.196-.446-.297-.766-.297q-.485.002-.766.297a.97.97 0 0 0-.265.703m0 0" style="stroke:none"/></symbol><symbol id="j" overflow="visible"><path d="M5.672-5.734q0-.545-.188-.938-.187-.406-.515-.687a2.2 2.2 0 0 0-.782-.422 3.3 3.3 0 0 0-.984-.14q-.532 0-.984.14a2 2 0 0 0-.766.422q-.328.282-.516.687a2.16 2.16 0 0 0-.187.938c0 .187.023.37.078.547q.076.269.235.484.124.206.312.375.2.175.453.297-.281.14-.516.328c-.156.125-.289.265-.39.422a2.4 2.4 0 0 0-.25.547 1.9 1.9 0 0 0-.094.593q0 .563.203.985.199.408.563.687.358.284.828.438c.32.094.672.14 1.047.14q.545 0 1.031-.14.482-.154.828-.438.358-.279.547-.687.201-.423.203-.985a2 2 0 0 0-.14-.765 1.9 1.9 0 0 0-.407-.625 1.7 1.7 0 0 0-.312-.266 2.5 2.5 0 0 0-.375-.219 3 3 0 0 0 .39-.265q.188-.155.329-.344.17-.234.265-.516.094-.279.094-.593m-1.344 3.5q0 .269-.078.484a.977.977 0 0 1-.578.578c-.137.055-.29.078-.453.078q-.253 0-.453-.062a1.1 1.1 0 0 1-.36-.219 1 1 0 0 1-.25-.36 1.4 1.4 0 0 1-.078-.5 1.3 1.3 0 0 1 .078-.484q.094-.217.235-.375a.9.9 0 0 1 .343-.234q.217-.076.47-.078.262 0 .468.078.2.083.36.234.138.158.218.375.077.204.078.485m-.156-3.438c0 .156-.024.305-.063.438a1 1 0 0 1-.187.328.85.85 0 0 1-.313.218.9.9 0 0 1-.39.079q-.234.002-.422-.079a.7.7 0 0 1-.281-.218.8.8 0 0 1-.203-.328 1.4 1.4 0 0 1-.063-.438q0-.233.063-.437a.76.76 0 0 1 .187-.328.6.6 0 0 1 .281-.204 1.1 1.1 0 0 1 .813 0q.187.081.328.204.123.141.187.343.062.188.063.422m0 0" style="stroke:none"/></symbol><symbol id="k" overflow="visible"><path d="m.828-3.844 1.203.281q.078-.074.172-.156c.063-.05.133-.097.219-.14q.123-.059.281-.094.169-.03.39-.031c.22 0 .407.039.563.109q.247.094.406.281.17.189.25.453.078.252.079.563c0 .21-.024.406-.063.594q-.064.27-.203.468a.83.83 0 0 1-.344.313q-.204.11-.515.11-.487 0-.797-.282-.316-.279-.375-.781H.625c.008.367.086.687.234.969q.235.41.61.703.358.3.828.453.468.14.984.14.656-.002 1.14-.203.5-.216.829-.578.31-.358.469-.828c.101-.32.156-.656.156-1q-.001-.622-.172-1.11a2.5 2.5 0 0 0-.453-.828q-.3-.34-.75-.515a2.5 2.5 0 0 0-1-.188c-.273 0-.512.04-.719.11-.199.062-.351.133-.453.203l.188-1.719h3.109v-1.281H1.281Zm0 0" style="stroke:none"/></symbol><symbol id="l" overflow="visible"><path d="M1.688-5.812H.406V0h1.36v-4.344a.3.3 0 0 1 .046-.125c.032-.039.055-.078.079-.11q.059-.058.14-.093a.5.5 0 0 1 .172-.031q.075.001.156.031.077.02.141.078a.6.6 0 0 1 .078.172 1 1 0 0 1 .031.266V0h1.329v-4.437a.3.3 0 0 1 .046-.11 1 1 0 0 1 .094-.078.7.7 0 0 1 .125-.047.4.4 0 0 1 .156-.031q.075.001.157.031.075.02.14.078a.5.5 0 0 1 .094.172q.03.112.031.266V0h1.36v-4.14c0-.32-.032-.594-.094-.813a1.9 1.9 0 0 0-.25-.563 1.1 1.1 0 0 0-.406-.296c-.157-.07-.32-.11-.485-.11-.148 0-.281.024-.406.063a1 1 0 0 0-.312.14q-.111.082-.204.188-.094.093-.171.234a1 1 0 0 0-.11-.234.8.8 0 0 0-.156-.188.8.8 0 0 0-.281-.156 1.3 1.3 0 0 0-.36-.047q-.423 0-.719.219a1.36 1.36 0 0 0-.453.594Zm0 0" style="stroke:none"/></symbol><symbol id="m" overflow="visible"><path d="M4.422 0v-7.828h-.094L.922-6.594v1.297L2.906-6v6Zm0 0" style="stroke:none"/></symbol><symbol id="n" overflow="visible"><path d="M1.781-1.187h-.093v1.25h.109q1.03.002 1.781-.313.749-.328 1.235-.906c.32-.375.554-.82.703-1.344q.234-.78.234-1.719v-.515q0-.703-.187-1.282a2.9 2.9 0 0 0-.516-1.015q-.347-.422-.828-.657a2.5 2.5 0 0 0-1.094-.234q-.61 0-1.094.219a2.3 2.3 0 0 0-.812.594q-.345.376-.532.875a3.2 3.2 0 0 0-.171 1.062c0 .375.046.727.14 1.047q.154.47.453.828.282.363.704.563.42.204.984.203.263 0 .484-.047c.145-.031.274-.07.39-.125.114-.05.22-.11.313-.172q.14-.093.25-.203v.031a2.4 2.4 0 0 1-.218.781q-.16.344-.453.579a1.95 1.95 0 0 1-.735.375 3.8 3.8 0 0 1-1.047.125m1.375-2.5a1 1 0 0 1-.515-.126 1.1 1.1 0 0 1-.344-.328 1.5 1.5 0 0 1-.219-.468 2.6 2.6 0 0 1-.062-.578q0-.296.062-.579.077-.28.219-.484a1.1 1.1 0 0 1 .344-.344.94.94 0 0 1 .468-.125c.164 0 .317.04.454.11q.216.112.374.312c.102.149.18.328.235.547q.093.315.094.75v.531a1.2 1.2 0 0 1-.172.313 1.1 1.1 0 0 1-.25.234q-.142.112-.313.172a1.1 1.1 0 0 1-.375.063m0 0" style="stroke:none"/></symbol><symbol id="o" overflow="visible"><path d="M2.266-.86c0 .274.093.5.28.688q.282.282.75.281.483 0 .767-.28a.93.93 0 0 0 .28-.688.95.95 0 0 0-.28-.703c-.188-.196-.446-.297-.766-.297q-.485.002-.766.297a.97.97 0 0 0-.265.703m0 0" style="stroke:none"/></symbol><symbol id="p" overflow="visible"><path d="M5.672-5.734q0-.545-.188-.938-.187-.406-.515-.687a2.2 2.2 0 0 0-.782-.422 3.3 3.3 0 0 0-.984-.14q-.532 0-.984.14a2 2 0 0 0-.766.422q-.328.282-.516.687a2.16 2.16 0 0 0-.187.938c0 .187.023.37.078.547q.076.269.235.484.124.206.312.375.2.175.453.297-.281.14-.516.328c-.156.125-.289.265-.39.422a2.4 2.4 0 0 0-.25.547 1.9 1.9 0 0 0-.094.593q0 .563.203.985.199.408.563.687.358.284.828.438c.32.094.672.14 1.047.14q.545 0 1.031-.14.482-.154.828-.438.358-.279.547-.687.201-.423.203-.985a2 2 0 0 0-.14-.765 1.9 1.9 0 0 0-.407-.625 1.7 1.7 0 0 0-.312-.266 2.5 2.5 0 0 0-.375-.219 3 3 0 0 0 .39-.265q.188-.155.329-.344.17-.234.265-.516.094-.279.094-.593m-1.344 3.5q0 .269-.078.484a.977.977 0 0 1-.578.578c-.137.055-.29.078-.453.078q-.253 0-.453-.062a1.1 1.1 0 0 1-.36-.219 1 1 0 0 1-.25-.36 1.4 1.4 0 0 1-.078-.5 1.3 1.3 0 0 1 .078-.484q.094-.217.235-.375a.9.9 0 0 1 .343-.234q.217-.076.47-.078.262 0 .468.078.2.083.36.234.138.158.218.375.077.204.078.485m-.156-3.438c0 .156-.024.305-.063.438a1 1 0 0 1-.187.328.85.85 0 0 1-.313.218.9.9 0 0 1-.39.079q-.234.002-.422-.079a.7.7 0 0 1-.281-.218.8.8 0 0 1-.203-.328 1.4 1.4 0 0 1-.063-.438q0-.233.063-.437a.76.76 0 0 1 .187-.328.6.6 0 0 1 .281-.204 1.1 1.1 0 0 1 .813 0q.187.081.328.204.123.141.187.343.062.188.063.422m0 0" style="stroke:none"/></symbol><symbol id="q" overflow="visible"><path d="M1.688-5.812H.406V0h1.36v-4.344a.3.3 0 0 1 .046-.125c.032-.039.055-.078.079-.11q.059-.058.14-.093a.5.5 0 0 1 .172-.031q.075.001.156.031.077.02.141.078a.6.6 0 0 1 .078.172 1 1 0 0 1 .031.266V0h1.329v-4.437a.3.3 0 0 1 .046-.11 1 1 0 0 1 .094-.078.7.7 0 0 1 .125-.047.4.4 0 0 1 .156-.031q.075.001.157.031.075.02.14.078a.5.5 0 0 1 .094.172q.03.112.031.266V0h1.36v-4.14c0-.32-.032-.594-.094-.813a1.9 1.9 0 0 0-.25-.563 1.1 1.1 0 0 0-.406-.296c-.157-.07-.32-.11-.485-.11-.148 0-.281.024-.406.063a1 1 0 0 0-.312.14q-.111.082-.204.188-.094.093-.171.234a1 1 0 0 0-.11-.234.8.8 0 0 0-.156-.188.8.8 0 0 0-.281-.156 1.3 1.3 0 0 0-.36-.047q-.423 0-.719.219a1.36 1.36 0 0 0-.453.594Zm0 0" style="stroke:none"/></symbol><symbol id="r" overflow="visible"><path d="M2.266-4.562v1.156h.812q.294 0 .547.078.246.064.422.203.17.157.266.375.093.22.093.547 0 .253-.078.453a.9.9 0 0 1-.234.344.96.96 0 0 1-.39.234 1.6 1.6 0 0 1-.517.078c-.18 0-.34-.023-.484-.078a1.1 1.1 0 0 1-.36-.219.9.9 0 0 1-.25-.312 1.1 1.1 0 0 1-.077-.422h-1.5q-.002.563.218.984c.157.282.352.512.594.688q.375.28.844.422.48.14.984.14.574-.002 1.078-.156Q4.733-.2 5.11-.5q.358-.281.563-.703.218-.434.219-.984a2.3 2.3 0 0 0-.079-.594 2 2 0 0 0-.234-.516 1.7 1.7 0 0 0-.39-.406 2.2 2.2 0 0 0-.563-.313q.281-.124.484-.312a1.8 1.8 0 0 0 .36-.406q.153-.217.218-.47a1.7 1.7 0 0 0 .079-.5q0-.543-.188-.952a1.9 1.9 0 0 0-.531-.703 2.3 2.3 0 0 0-.828-.422 3.8 3.8 0 0 0-1.063-.14q-.549.002-1.015.155-.457.158-.797.422a2.3 2.3 0 0 0-.547.688 2 2 0 0 0-.188.86h1.485c0-.134.023-.259.078-.376q.092-.168.25-.297a1 1 0 0 1 .328-.187q.201-.062.438-.063.263.002.468.078.216.081.344.204.14.141.203.343.077.189.078.407 0 .236-.078.437A.8.8 0 0 1 4-4.906a1 1 0 0 1-.375.25q-.235.093-.547.093Zm0 0" style="stroke:none"/></symbol><symbol id="s" overflow="visible"><path d="M5.86-6.984v-.844H.374v1.234h3.922L1.25 0h1.563Zm0 0" style="stroke:none"/></symbol><symbol id="t" overflow="visible"><path d="M5.125-2.906v-4.922H3.609L.313-2.625l.062.922h3.25V0h1.5v-1.703h.906v-1.203Zm-3.344 0 1.703-2.64.141-.266v2.906Zm0 0" style="stroke:none"/></symbol><symbol id="E" overflow="visible"><path d="M6.188-3.328v-1.14q0-.75-.188-1.36a3.2 3.2 0 0 0-.562-1.094l.703-1.234h-.985l-.375.64c-.093-.05-.195-.101-.297-.156a2 2 0 0 0-.312-.125 3.5 3.5 0 0 0-.438-.094 3.4 3.4 0 0 0-.453-.03q-.69 0-1.219.265a2.5 2.5 0 0 0-.874.703A3.2 3.2 0 0 0 .64-5.86c-.125.43-.188.89-.188 1.39v1.14q-.002.345.031.673c.032.219.079.43.141.625q.075.298.188.562.123.269.28.485L.267.516h.968l.5-.86q.312.222.688.344c.258.07.547.11.86.11.445 0 .847-.087 1.202-.25q.545-.263.938-.72.375-.45.562-1.078c.133-.425.204-.89.204-1.39m-4.204 0v-1.156q0-.482.063-.875.06-.405.219-.703c.101-.188.234-.333.39-.438q.248-.17.625-.172.122.001.25.031.123.017.235.063.105.035.187.094c.063.043.117.09.172.14L2.031-2.625a.6.6 0 0 1-.015-.14A1 1 0 0 0 2-2.907c0-.07-.008-.14-.016-.203zm2.672-1.156v1.156q0 .469-.078.875a2.1 2.1 0 0 1-.25.687q-.158.3-.422.47-.268.156-.625.155-.298 0-.515-.093a1.05 1.05 0 0 1-.36-.313l2.172-3.828q.03.205.047.422.03.222.031.469m0 0" style="stroke:none"/></symbol><symbol id="F" overflow="visible"><path d="M5.875 0v-1.203H2.438L3.906-2.75q.387-.387.703-.75.31-.357.532-.703.215-.341.343-.688a2.489 2.489 0 0 0-.047-1.687 1.9 1.9 0 0 0-.468-.719 2.2 2.2 0 0 0-.766-.453 3 3 0 0 0-1.062-.172q-.61.002-1.125.203a2.4 2.4 0 0 0-.875.547q-.364.344-.563.813-.204.468-.203.984h1.5c0-.207.023-.395.078-.562q.076-.247.234-.422a1 1 0 0 1 .376-.235q.233-.093.53-.093.236 0 .423.078a.9.9 0 0 1 .328.218c.094.094.164.211.219.344q.077.205.078.469c0 .125-.024.25-.063.375a3 3 0 0 1-.172.39q-.142.223-.344.485c-.136.18-.304.375-.5.594L.533-1.016V0Zm0 0" style="stroke:none"/></symbol><symbol id="G" overflow="visible"><path d="m.828-3.844 1.203.281q.078-.074.172-.156c.063-.05.133-.097.219-.14q.123-.059.281-.094.169-.03.39-.031c.22 0 .407.039.563.109q.247.094.406.281.17.189.25.453.078.252.079.563c0 .21-.024.406-.063.594q-.064.27-.203.468a.83.83 0 0 1-.344.313q-.204.11-.515.11-.487 0-.797-.282-.316-.279-.375-.781H.625c.008.367.086.687.234.969q.235.41.61.703.358.3.828.453.468.14.984.14.656-.002 1.14-.203.5-.216.829-.578.31-.358.469-.828c.101-.32.156-.656.156-1q-.001-.622-.172-1.11a2.5 2.5 0 0 0-.453-.828q-.3-.34-.75-.515a2.5 2.5 0 0 0-1-.188c-.273 0-.512.04-.719.11-.199.062-.351.133-.453.203l.188-1.719h3.109v-1.281H1.281Zm0 0" style="stroke:none"/></symbol><symbol id="H" overflow="visible"><path d="M5.844-2.969v-1.875q-.001-.764-.172-1.328a2.9 2.9 0 0 0-.5-.984q-.344-.375-.813-.578a2.7 2.7 0 0 0-1.062-.203q-.581.002-1.063.203a2.2 2.2 0 0 0-.796.578q-.33.41-.516.984-.174.564-.172 1.328v1.875c0 .5.063.946.188 1.328q.187.581.515.97.328.392.797.593c.313.125.664.187 1.063.187q.593 0 1.062-.187.469-.2.797-.594.327-.388.5-.969c.113-.382.172-.828.172-1.328m-3.578-.656v-1.454q0-.432.062-.75.062-.327.203-.515a.9.9 0 0 1 .328-.281.96.96 0 0 1 .438-.094q.232.002.406.078A.6.6 0 0 1 4-6.42q.169.187.25.5.075.315.094.75Zm2.078.875c0 .293-.024.547-.063.766q-.064.315-.203.515a.8.8 0 0 1-.328.282 1 1 0 0 1-.437.093 1 1 0 0 1-.485-.11.8.8 0 0 1-.312-.327 1.1 1.1 0 0 1-.188-.438 3 3 0 0 1-.062-.64l2.078-1.547v.5Zm0 0" style="stroke:none"/></symbol><symbol id="u" overflow="visible"><path d="M-2.906-5.125h-4.922v1.516l5.203 3.297.922-.063v-3.25H0v-1.5h-1.703v-.906h-1.203Zm0 3.344-2.64-1.703-.266-.141h2.906Zm0 0" style="stroke:none"/></symbol><symbol id="v" overflow="visible"><path d="M-2.969-5.844h-1.875q-.764.001-1.328.172-.574.173-.984.5-.375.344-.578.813a2.7 2.7 0 0 0-.203 1.062q.002.581.203 1.063.204.468.578.797.41.327.984.515.564.174 1.328.172h1.875c.5 0 .946-.062 1.328-.187q.581-.187.97-.516.392-.328.593-.797.187-.466.187-1.062 0-.593-.187-1.063a2.1 2.1 0 0 0-.594-.797 2.7 2.7 0 0 0-.969-.5 4.7 4.7 0 0 0-1.328-.172m-.656 3.578h-1.454q-.432 0-.75-.062-.327-.062-.515-.203a.9.9 0 0 1-.281-.328.96.96 0 0 1-.094-.438q.002-.232.078-.406A.6.6 0 0 1-6.42-4q.187-.169.5-.25.315-.075.75-.094Zm.875-2.078c.293 0 .547.024.766.063q.315.064.515.203a.8.8 0 0 1 .282.328 1 1 0 0 1 .093.438 1 1 0 0 1-.11.484.8.8 0 0 1-.327.312 1.1 1.1 0 0 1-.438.188 3 3 0 0 1-.64.062l-1.547-2.078h.5Zm0 0" style="stroke:none"/></symbol><symbol id="w" overflow="visible"><path d="M-.86-2.266c.274 0 .5-.093.688-.28q.282-.282.281-.75 0-.483-.28-.767a.93.93 0 0 0-.688-.28.95.95 0 0 0-.703.28c-.196.188-.297.446-.297.766q.002.485.297.766c.187.18.421.265.703.265m0 0" style="stroke:none"/></symbol><symbol id="x" overflow="visible"><path d="M0-4.422h-7.828v.094l1.234 3.406h1.297L-6-2.906h6Zm0 0" style="stroke:none"/></symbol><symbol id="y" overflow="visible"><path d="M-5.812-1.687v1.28H0v-1.359h-4.344a.3.3 0 0 1-.125-.046c-.039-.032-.078-.055-.11-.079a.4.4 0 0 1-.093-.14.5.5 0 0 1-.031-.172q.001-.075.031-.156a.3.3 0 0 1 .078-.141.6.6 0 0 1 .172-.078 1 1 0 0 1 .266-.031H0v-1.328h-4.437a.3.3 0 0 1-.11-.047 1 1 0 0 1-.078-.094.7.7 0 0 1-.047-.125.4.4 0 0 1-.031-.156q.001-.075.031-.157a.3.3 0 0 1 .078-.14.5.5 0 0 1 .172-.094q.112-.03.266-.031H0v-1.36h-4.14c-.32 0-.594.032-.813.094a1.9 1.9 0 0 0-.563.25c-.132.117-.234.25-.296.406-.07.157-.11.32-.11.485 0 .148.024.281.063.406q.046.174.14.313.082.11.188.203.093.093.234.172c-.094.03-.172.07-.234.109a.8.8 0 0 0-.188.156.8.8 0 0 0-.156.281 1.3 1.3 0 0 0-.047.36q0 .423.219.719.22.3.594.453Zm0 0" style="stroke:none"/></symbol><symbol id="z" overflow="visible"><path d="M0-5.875h-1.203v3.438l-1.547-1.47a15 15 0 0 0-.75-.702 6 6 0 0 0-.703-.532 3.7 3.7 0 0 0-.688-.343 2.489 2.489 0 0 0-1.687.047q-.421.158-.719.468-.294.316-.453.766a3 3 0 0 0-.172 1.062q.002.61.203 1.125.189.517.547.875.344.364.813.563.468.204.984.203v-1.5c-.207 0-.395-.023-.562-.078a1.1 1.1 0 0 1-.422-.234 1 1 0 0 1-.235-.376 1.4 1.4 0 0 1-.093-.53q0-.236.078-.423a.9.9 0 0 1 .218-.328c.094-.094.211-.164.344-.219a1.3 1.3 0 0 1 .469-.078c.125 0 .25.024.375.063.125.043.258.101.39.172q.223.142.485.344c.18.136.375.304.594.5l2.718 2.53H0Zm0 0" style="stroke:none"/></symbol><symbol id="A" overflow="visible"><path d="M-5.734-5.672q-.545 0-.938.188-.406.188-.687.515-.282.329-.422.782-.14.456-.14.984 0 .532.14.984.14.457.422.766.282.328.687.516.393.187.938.187c.187 0 .37-.023.547-.078q.269-.076.484-.235.206-.124.375-.312.175-.2.297-.453.14.281.328.516c.125.156.265.289.422.39q.253.158.547.25.282.094.593.094.563 0 .985-.203.408-.199.687-.563.284-.358.438-.828c.094-.32.14-.672.14-1.047q0-.545-.14-1.031a2.5 2.5 0 0 0-.438-.828 1.84 1.84 0 0 0-.687-.547 2.3 2.3 0 0 0-.985-.203 2 2 0 0 0-.765.14q-.357.142-.625.407a1.7 1.7 0 0 0-.266.312 2.5 2.5 0 0 0-.219.375 3 3 0 0 0-.265-.39 2 2 0 0 0-.344-.328 1.854 1.854 0 0 0-1.11-.36m3.5 1.344q.269 0 .484.078.206.082.36.234.14.143.218.344c.055.137.078.29.078.453q0 .253-.062.453-.077.206-.219.36a1 1 0 0 1-.36.25 1.4 1.4 0 0 1-.5.078 1.3 1.3 0 0 1-.484-.078 1.4 1.4 0 0 1-.375-.235.9.9 0 0 1-.234-.343q-.076-.217-.078-.47 0-.262.078-.468.083-.2.234-.36.158-.138.375-.218.204-.077.485-.078m-3.438.156c.156 0 .305.024.438.063a1 1 0 0 1 .328.187.85.85 0 0 1 .218.313.9.9 0 0 1 .079.39q.002.234-.079.422a.7.7 0 0 1-.218.281.8.8 0 0 1-.328.204 1.4 1.4 0 0 1-.438.062q-.233 0-.437-.062a.76.76 0 0 1-.328-.188.6.6 0 0 1-.204-.281 1.1 1.1 0 0 1 0-.813q.081-.187.204-.328a1 1 0 0 1 .343-.187q.188-.062.422-.063m0 0" style="stroke:none"/></symbol><symbol id="B" overflow="visible"><path d="M-6.984-5.86h-.844v5.485h1.234v-3.922L0-1.25v-1.562Zm0 0" style="stroke:none"/></symbol><symbol id="C" overflow="visible"><path d="M-7.89-4.719v.203q0 .972.327 1.72.331.736.907 1.233.578.504 1.375.75.782.251 1.718.25h.579c.437 0 .851-.062 1.234-.187q.564-.2.969-.547.422-.356.656-.86A2.6 2.6 0 0 0 .109-3.28Q.107-3.89-.094-4.375a2.4 2.4 0 0 0-.578-.812 2.4 2.4 0 0 0-.844-.516 2.9 2.9 0 0 0-1.062-.188c-.352 0-.688.047-1 .141-.32.086-.61.219-.86.406A2 2 0 0 0-5-4.64a2.04 2.04 0 0 0-.219.97c0 .179.024.35.063.515q.065.234.172.422.11.204.25.375.128.158.25.28a2.6 2.6 0 0 1-.875-.233c-.27-.126-.5-.29-.688-.5a2.4 2.4 0 0 1-.437-.782 3.3 3.3 0 0 1-.157-1.047v-.078Zm3.874 1.485c0-.188.04-.352.11-.5q.11-.217.297-.375c.136-.094.293-.164.468-.22.18-.062.375-.093.594-.093q.315 0 .578.094c.18.055.328.125.453.219a1.06 1.06 0 0 1 .422.843q.001.269-.11.485a.94.94 0 0 1-.327.375 1.34 1.34 0 0 1-.516.265 3.2 3.2 0 0 1-.765.079h-.438a1.4 1.4 0 0 1-.281-.188 1.187 1.187 0 0 1-.422-.578 1.4 1.4 0 0 1-.063-.406m0 0" style="stroke:none"/></symbol><symbol id="D" overflow="visible"><path d="m-3.844-.828.281-1.203q-.074-.078-.156-.172a1.2 1.2 0 0 1-.14-.219 1.3 1.3 0 0 1-.094-.281 2.3 2.3 0 0 1-.031-.39c0-.22.039-.407.109-.563a1 1 0 0 1 .281-.406 1.2 1.2 0 0 1 .453-.25q.252-.078.563-.079c.21 0 .406.024.594.063q.27.064.468.203.207.129.313.344.11.204.11.515 0 .487-.282.797-.279.316-.781.375v1.469c.367-.008.687-.086.969-.234q.41-.235.703-.61.3-.358.453-.828.14-.468.14-.984-.002-.656-.203-1.14a2.4 2.4 0 0 0-.578-.829 2.4 2.4 0 0 0-.828-.469 3.3 3.3 0 0 0-1-.156q-.622.001-1.11.172-.48.159-.828.453-.34.3-.515.75a2.5 2.5 0 0 0-.188 1c0 .273.04.512.11.719.062.199.133.351.203.453l-1.719-.188v-3.109h-1.281v4.344Zm0 0" style="stroke:none"/></symbol><symbol id="I" overflow="visible"><path d="M5.281-5.39v-1.016H.125v1.015h1.938V0h1.25v-5.39Zm0 0" style="stroke:none"/></symbol><symbol id="J" overflow="visible"><path d="M5.047-2.734v-.922q0-.436-.094-.828a3 3 0 0 0-.234-.703 2.5 2.5 0 0 0-.344-.532 2.2 2.2 0 0 0-.437-.406 2.3 2.3 0 0 0-.594-.266 2.4 2.4 0 0 0-.688-.093q-.362 0-.672.093-.316.095-.562.266-.253.176-.453.422a2.6 2.6 0 0 0-.328.547q-.142.316-.22.703-.062.375-.062.797v.922q0 .409.063.765.058.346.187.657.123.328.329.593a2.4 2.4 0 0 0 .453.438q.262.175.578.281a2.5 2.5 0 0 0 1.344 0q.31-.076.562-.234.28-.17.5-.438a3 3 0 0 0 .375-.578c.094-.219.164-.445.219-.687q.077-.375.078-.797M3.78-3.672v.938q0 .252-.031.468a2 2 0 0 1-.062.391 1.8 1.8 0 0 1-.172.438.8.8 0 0 1-.235.296A1 1 0 0 1 3-.969a1.2 1.2 0 0 1-.344.047.9.9 0 0 1-.344-.062 1.2 1.2 0 0 1-.265-.157 1.1 1.1 0 0 1-.219-.312 1.7 1.7 0 0 1-.14-.422 2 2 0 0 1-.063-.406 6 6 0 0 1-.016-.453v-.938q-.001-.246.016-.469.014-.216.063-.406.06-.248.156-.437c.07-.125.156-.227.25-.313a.94.94 0 0 1 .562-.172c.125 0 .235.024.328.063a1 1 0 0 1 .266.125c.102.086.191.187.266.312q.106.188.172.422.044.189.062.406.03.223.031.47m0 0" style="stroke:none"/></symbol><symbol id="K" overflow="visible"><path d="M1.89-2.344h.954q.516 0 .937-.14.42-.153.735-.422.28-.263.437-.625.17-.374.172-.813-.001-.452-.172-.828a1.9 1.9 0 0 0-.437-.656 2.5 2.5 0 0 0-.735-.422 2.7 2.7 0 0 0-.937-.156H.656V0h1.235Zm0-1V-5.39h.954q.265.001.453.079a.84.84 0 0 1 .328.234q.123.142.188.344.06.188.062.406-.002.188-.062.375a1 1 0 0 1-.188.312.85.85 0 0 1-.328.22 1.1 1.1 0 0 1-.453.077Zm0 0" style="stroke:none"/></symbol><clipPath id="b"><path d="M0 0h391.395v383.953H0Zm0 0"/></clipPath><clipPath id="a"><path d="M0 0h392v384H0z"/></clipPath><g id="L" clip-path="url(#a)"><g clip-path="url(#b)"><path d="M7.5 7.5h1175.551v826.89H7.501Zm0 0" style="fill:none;stroke-width:.45;stroke-linecap:round;stroke-linejoin:miter;stroke:#000;stroke-opacity:1;stroke-miterlimit:10" transform="translate(-50.598 -378)"/></g><path d="M828.815 1122.703h.004l1.423-.055h.004l5.794-.504 5.762-.787 5.714-1.066 5.658-1.338.004-.004 5.578-1.607v-.004h.003l5.505-1.882 5.4-2.144h.005l5.29-2.404 5.174-2.662.003-.004 5.027-2.901h.007l4.883-3.147h.004l4.732-3.383 4.552-3.596 3.375-3.103.092-.081.095-.077.1-.074.103-.07.106-.062.11-.06.11-.054.111-.052.118-.044.004-.003.205-.188.61-.559.604-.566.6-.57.595-.574.595-.58.589-.581.584-.585 1.155-1.184.573-.6.567-.602.566-.607.559-.607.555-.614.551-.617.548-.622.54-.625.541-.629.048-.058.004-.008.055-.114.059-.106.066-.107.07-.103.073-.1.078-.095 1.025-1.213.011-.011v-.004l3.563-4.596 3.335-4.761h.004l3.1-4.92 2.856-5.06v-.003l2.61-5.195 2.358-5.317 2.092-5.423h.003l1.828-5.52v-.003l1.559-5.596 1.287-5.673 1.01-5.725v-.004l.733-5.762v-.003l.452-5.799.169-5.809-.114-5.813v-.007l-.393-5.791v-.008l-.673-5.769v-.003l-.956-5.736-1.228-5.68h-.004v-.005h.004-.004l-1.5-5.61-.004-.004-1.772-5.537-2.044-5.446-2.302-5.339v-.003l-2.555-5.214-.004-.004v-.003l-2.806-5.085h-.003v-.004l-3.052-4.949-3.287-4.795-3.478-4.577-1.71-1.754-.085-.088-.08-.096-.078-.096-.14-.205-.062-.107-.11-.22-.048-.115-.044-.114-.037-.117-.033-.122-.03-.121-.022-.121-.01-.07-.078-.092-.54-.629-.544-.621-.552-.622-.552-.614-.558-.61-.563-.607-.566-.606-.57-.6-.574-.595-.58-.592-.582-.589-.588-.584-.588-.577-.596-.578-.6-.57-.602-.57-.607-.562-.084-.077-.056-.019-.117-.044-.114-.048-.22-.11-.107-.062-.206-.14-.096-.077-.095-.081-2.799-2.49v-.003l-4.522-3.644v-.004h-.004l-4.695-3.426-.004-.004-4.85-3.188-.003-.004h-.004l-5-2.956h-.004l-5.144-2.71-5.269-2.456-.003-.003-5.38-2.195v-.004h-.003l-5.479-1.934h-.007l-5.563-1.666v-.003h-.004l-5.644-1.394h-.003l-5.696-1.121h-.003l-3.442-.504-.342.426-.018.023-.081.103-.11.11-1.504 1.507-.11.11-.104.082-.022.018-.945.757-.713.574-.022.015-.103.08-.11.07-.022.019-1.798 1.132-.026.015-.11.07-.14.07-1.916.93-.025.01-.118.056-.121.044-.026.011-2.004.71-.03.007-.12.044-.13.03-.025.007-2.07.482-.03.007-.125.03-.132.014-.026.004-2.114.25h-.026l-.128.018h-.158l-2.13.011h-.157l-.13-.01-.029-.004-2.114-.225-.025-.003-.133-.015-.125-.03-.03-.003-2.073-.46-.03-.007-.124-.026-.125-.044-.026-.007-2.015-.688-.026-.007-.121-.044-.121-.056-.023-.01-1.926-.909-.022-.01-.118-.056-.114-.07-.022-.014-1.813-1.115-.022-.014-.11-.07-.103-.081-.022-.015-.893-.698-.784-.61-.022-.019-.103-.08-.092-.093-.022-.018-1.518-1.49-.019-.018-.095-.092-.081-.103-.018-.018-.504-.621-3.486.51h-.007l-5.696 1.122h-.003l-5.644 1.394-.004.003-5.563 1.666h-.007l-5.479 1.934h-.003v.004l-5.38 2.195v.003l-5.272 2.456h-.004l-5.136 2.707-.004.003-5.004 2.956h-.004l-.004.004-4.85 3.188-.003.004-4.695 3.426h-.004v.004l-4.522 3.644v.004h-.004l-.004.003-.03.026-2.794 2.408-.095.077-.1.074-.102.074-.103.062-.11.063-.111.055-.11.051-.015.008-.265.239-.606.566-.603.566-.596.57-.596.577-.592.577-.584.585-.585.588-.577.592-.574.596-.57.6-.566.602-.562.61-.56.611-.554.614-.548.621-.545.622-.54.625-.051.062-.004.019-.037.117-.044.118-.044.114-.052.11-.058.11-.06.107-.065.107-.07.103-.155.191-1.945 2.243-3.515 4.625-3.287 4.795v.004h-.004l-3.044 4.941-.004.004v.004l-2.805 5.085-.004.003v.004l-2.559 5.214v.003l-2.302 5.34-2.04 5.445-1.776 5.537-.004.004-1.5 5.61v.004l-1.232 5.68-.952 5.737-.004.003-.673 5.77v.007l-.393 5.794v.004l-.114 5.813.173 5.81.448 5.798v.003l.732 5.766 1.011 5.724v.004l1.287 5.666v.004l1.56 5.596v.004l1.83 5.519 2.092 5.423 2.357 5.317v.003l2.607 5.188v.004h.004v.004l2.857 5.059 3.103 4.92 3.335 4.761 3.563 4.596v.004l.007.007.077.096.897 1.154.533.633.537.628.544.625.548.622.552.617.555.615.559.61.562.607.567.599.573.6.577.595 1.162 1.176.589.581.592.578.599.573.6.57.602.566.607.563.5.452.103.07.1.077.095.077 3.695 3.196.011.01 4.563 3.604 4.728 3.383h.004l.004.003 4.879 3.14.004.004 5.037 2.905 5.17 2.662 5.294 2.404h.004l5.394 2.144h.003l5.505 1.882h.003v.004l5.578 1.607.004.004 5.658 1.338 5.714 1.066h.004l5.761.787 5.791.504h.004l1.427.055h.003v-2.03l.008-.14.003-.021v-.022l.004-.04.004-.038v-.025l.003-.023.004-.036.007-.04.004-.023v-.022l.007-.037.008-.04.007-.044.063-.305.007-.033.004-.03.022-.088.007-.033.011-.03.015-.058.01-.03.008-.03.022-.058.008-.03.014-.029.008-.026.014-.03.011-.028.103-.258.015-.026.011-.029.015-.03.01-.025.016-.03.01-.029.015-.026.015-.03.03-.05.014-.03.03-.052.018-.029.03-.051.036-.052.15-.228.093-.129.018-.022.037-.051.022-.022.018-.026.019-.022.022-.022.022-.026.018-.022.066-.066.019-.022.198-.195.089-.088.022-.019.022-.022.025-.018.023-.022.025-.018.022-.022.026-.019.022-.018.103-.074.022-.014.026-.019.232-.154.025-.019.026-.014.026-.019.025-.014.03-.015.026-.019.051-.029.03-.015.025-.014.03-.015.025-.015.03-.01.026-.016.029-.01.03-.015.029-.011.026-.011.257-.107.03-.011.025-.011.118-.044.03-.008.029-.01.029-.008.03-.01.029-.008.03-.011.029-.008.033-.007.059-.015.029-.003.03-.008.305-.062.025-.004.022-.004.037-.007.04-.004.045-.007.04-.004.037-.007h.022l.026-.004.073-.007h.048l.14-.007h.014l.056-.004h3.768l.056.004h.014l.14.007h.048l.036.004.04.003.023.004h.022l.04.007.037.004.022.004.026.003.037.004.037.007.025.004.022.004.306.062.029.008.03.003.029.008.033.007.059.015.03.01.029.008.029.011.03.007.029.011.03.008.146.055.026.011.257.107.03.01.026.012.029.014.03.011.025.015.03.011.025.015.03.015.025.014.03.015.051.03.03.018.051.03.026.018.026.014.025.019.232.154.026.019.026.014.022.019.077.055.022.018.026.019.022.022.025.018.022.022.026.018.022.022.022.019.022.022.026.022.283.283.019.022.044.044.018.026.022.022.019.022.022.026.018.022.037.051.018.022.092.13.15.227.038.052.014.025.019.026.014.03.03.051.015.03.029.05.015.03.014.026.011.03.015.029.015.026.022.058.015.026.106.258.011.029.011.026.022.058.008.03.033.088.015.059.01.03.008.029.007.033.03.118.003.033.063.305.007.044.008.037.007.04.007.044.004.04.004.038.003.022v.025l.004.037.004.04v.023l.003.022.008.14v.07l.003.054v1.905m16.848-211.962-.57-.073-.497-.287-.349-.456-.147-.552.073-.566.144-.25.489-.621 1.154-1.081 1.298-.901 1.423-.699 1.508-.478 1.562-.25 1.581-.014 1.567.224 1.515.449 1.434.672 1.316.876 1.173 1.062.5.614.073.092.118.199.081.22.044.228.004.114.007.224-.125.427-.246.368-.35.275-.415.159-.445.018-.43-.114-.371-.243-.14-.173-.372-.419-.827-.757-.926-.629-1.008-.489-1.07-.338-1.107-.184-1.117-.018-1.114.143-1.078.298-1.026.452-.948.6-.853.724-.386.408-.144.246-.452.35-.551.15m-52.112.052-1.581-.015-1.563-.25-1.507-.478-1.42-.695-1.301-.9-1.155-1.085-.489-.622-.143-.246-.074-.57.148-.552.349-.452.496-.287.57-.073.552.147.452.35.143.246.386.408.853.728.949.595 1.026.453 1.08.301 1.111.14 1.122-.019 1.103-.18 1.07-.338 1.007-.489.927-.632.827-.754.371-.423.14-.173.375-.239.427-.117.444.022.416.154.35.276.25.367.12.43-.007.221-.003.118-.045.228-.08.217-.118.202-.074.088-.5.614-1.173 1.063-1.316.875-1.43.673-1.519.452Zm0 0" style="fill-rule:evenodd;fill:#fff;fill-opacity:1;stroke-width:1.334;stroke-linecap:round;stroke-linejoin:miter;stroke:#000;stroke-opacity:1;stroke-miterlimit:10" transform="translate(1071.918 1253.795)scale(-1.0624)"/><path d="M882.35 905.26a3.277 3.277 0 1 1-6.554-.003 3.277 3.277 0 0 1 6.554.002ZM882.35 1100.425a3.277 3.277 0 1 1-3.28-3.276 3.279 3.279 0 0 1 3.28 3.276ZM713.334 1002.842a3.277 3.277 0 1 1-6.557-.002 3.277 3.277 0 0 1 6.557.002Zm0 0" style="fill-rule:evenodd;fill:#fff;fill-opacity:1;stroke-width:.534;stroke-linecap:round;stroke-linejoin:miter;stroke:#000;stroke-opacity:1;stroke-miterlimit:10" transform="translate(1071.918 1253.795)scale(-1.0624)"/><path d="M241.981 437.907v-16.399m12.973 16.399v-16.399ZM288.442 422.641l-24.133.004M223.981 422.645h15.426" style="fill:none;stroke-width:.567;stroke-linecap:round;stroke-linejoin:miter;stroke:#007ac0;stroke-opacity:1;stroke-miterlimit:10" transform="translate(-50.598 -378)"/><path d="m191.383 44.645-9.352-1.56v3.118Zm0 0" style="stroke:none;fill-rule:evenodd;fill:#007ac0;fill-opacity:1"/><path d="M272.954 422.645h-15.422" style="fill:none;stroke-width:.567;stroke-linecap:round;stroke-linejoin:miter;stroke:#007ac0;stroke-opacity:1;stroke-miterlimit:10" transform="translate(-50.598 -378)"/><path d="m204.355 44.645 9.356 1.558v-3.117Zm0 0" style="stroke:none;fill-rule:evenodd;fill:#007ac0;fill-opacity:1"/><g style="fill:#c00000;fill-opacity:1"><use xlink:href="#c" x="243.514" y="48.721"/><use xlink:href="#d" x="249.814" y="48.721"/><use xlink:href="#e" x="256.114" y="48.721"/><use xlink:href="#f" x="262.414" y="48.721"/><use xlink:href="#g" x="268.714" y="48.721"/><use xlink:href="#g" x="275.014" y="48.721"/></g><path d="m266.286 693.54-.004 14.403m-35.676-14.41-.004 14.402ZM272.524 706.81h3.113M284.286 706.814l-15.426-.004" style="fill:none;stroke-width:.567;stroke-linecap:round;stroke-linejoin:miter;stroke:#007ac0;stroke-opacity:1;stroke-miterlimit:10" transform="translate(-50.598 -378)"/><path d="m215.688 328.809 9.351 1.558v-3.117Zm0 0" style="stroke:none;fill-rule:evenodd;fill:#007ac0;fill-opacity:1"/><path d="m212.602 706.798 15.426.004" style="fill:none;stroke-width:.567;stroke-linecap:round;stroke-linejoin:miter;stroke:#007ac0;stroke-opacity:1;stroke-miterlimit:10" transform="translate(-50.598 -378)"/><path d="m180.004 328.8-9.352-1.562-.004 3.121Zm0 0" style="stroke:none;fill-rule:evenodd;fill:#007ac0;fill-opacity:1"/><g style="fill:#c00000;fill-opacity:1"><use xlink:href="#h" x="227.595" y="332.889"/><use xlink:href="#h" x="233.895" y="332.89"/><use xlink:href="#i" x="240.195" y="332.891"/><use xlink:href="#j" x="246.495" y="332.892"/><use xlink:href="#k" x="252.795" y="332.894"/><use xlink:href="#l" x="259.095" y="332.895"/><use xlink:href="#l" x="265.395" y="332.896"/></g><path d="M188.594 463.84v61.048m59.875-78.15v78.15ZM190.04 523.755h1.128" style="fill:none;stroke-width:.567;stroke-linecap:round;stroke-linejoin:miter;stroke:#007ac0;stroke-opacity:1;stroke-miterlimit:10" transform="translate(-50.598 -378)"/><path d="m137.996 145.754 9.352 1.559v-3.118Zm0 0" style="stroke:none;fill-rule:evenodd;fill:#007ac0;fill-opacity:1"/><path d="M190.04 523.755h55.855" style="fill:none;stroke-width:.567;stroke-linecap:round;stroke-linejoin:miter;stroke:#007ac0;stroke-opacity:1;stroke-miterlimit:10" transform="translate(-50.598 -378)"/><path d="m197.871 145.754-9.351-1.559v3.118Zm0 0" style="stroke:none;fill-rule:evenodd;fill:#007ac0;fill-opacity:1"/><g style="fill:#c00000;fill-opacity:1"><use xlink:href="#m" x="89.674" y="149.832"/><use xlink:href="#n" x="95.974" y="149.832"/><use xlink:href="#o" x="102.274" y="149.832"/><use xlink:href="#p" x="108.574" y="149.832"/><use xlink:href="#p" x="114.874" y="149.832"/><use xlink:href="#q" x="121.174" y="149.832"/><use xlink:href="#q" x="127.474" y="149.832"/></g><path d="M368.153 567.513v12.324M248.469 446.739v133.098ZM335.376 578.704h30.203" style="fill:none;stroke-width:.567;stroke-linecap:round;stroke-linejoin:miter;stroke:#007ac0;stroke-opacity:1;stroke-miterlimit:10" transform="translate(-50.598 -378)"/><path d="m317.555 200.703-9.352-1.558v3.117Zm0 0" style="stroke:none;fill-rule:evenodd;fill:#007ac0;fill-opacity:1"/><path d="M279.934 578.704h-28.89" style="fill:none;stroke-width:.567;stroke-linecap:round;stroke-linejoin:miter;stroke:#007ac0;stroke-opacity:1;stroke-miterlimit:10" transform="translate(-50.598 -378)"/><path d="m197.871 200.703 9.356 1.559v-3.117Zm0 0" style="stroke:none;fill-rule:evenodd;fill:#007ac0;fill-opacity:1"/><g style="fill:#c00000;fill-opacity:1"><use xlink:href="#r" x="235.006" y="204.781"/><use xlink:href="#n" x="241.306" y="204.781"/><use xlink:href="#o" x="247.606" y="204.781"/><use xlink:href="#s" x="253.906" y="204.781"/><use xlink:href="#t" x="260.206" y="204.781"/><use xlink:href="#q" x="266.506" y="204.781"/><use xlink:href="#q" x="272.806" y="204.781"/></g><path d="M188.594 668.92v-93.193m59.875-128.988v131.258ZM189.254 576.86h1.914" style="fill:none;stroke-width:.567;stroke-linecap:round;stroke-linejoin:miter;stroke:#007ac0;stroke-opacity:1;stroke-miterlimit:10" transform="translate(-50.598 -378)"/><path d="m137.996 198.863 9.352 1.559V197.3Zm0 0" style="stroke:none;fill-rule:evenodd;fill:#007ac0;fill-opacity:1"/><path d="M189.254 576.86h56.64" style="fill:none;stroke-width:.567;stroke-linecap:round;stroke-linejoin:miter;stroke:#007ac0;stroke-opacity:1;stroke-miterlimit:10" transform="translate(-50.598 -378)"/><path d="m197.871 198.863-9.351-1.562v3.12Zm0 0" style="stroke:none;fill-rule:evenodd;fill:#007ac0;fill-opacity:1"/><g style="fill:#c00000;fill-opacity:1"><use xlink:href="#m" x="88.888" y="202.94"/><use xlink:href="#n" x="95.188" y="202.94"/><use xlink:href="#o" x="101.488" y="202.94"/><use xlink:href="#p" x="107.788" y="202.94"/><use xlink:href="#p" x="114.088" y="202.94"/><use xlink:href="#q" x="120.388" y="202.94"/><use xlink:href="#q" x="126.688" y="202.94"/></g><path d="M367.02 566.38H274.5m-24.894-120.778h27.16ZM275.633 527.02v36.786" style="fill:none;stroke-width:.567;stroke-linecap:round;stroke-linejoin:miter;stroke:#007ac0;stroke-opacity:1;stroke-miterlimit:10" transform="translate(-50.598 -378)"/><path d="m225.035 188.379 1.559-9.356h-3.117Zm0 0" style="stroke:none;fill-rule:evenodd;fill:#007ac0;fill-opacity:1"/><path d="M275.633 471.583v-23.407" style="fill:none;stroke-width:.567;stroke-linecap:round;stroke-linejoin:miter;stroke:#007ac0;stroke-opacity:1;stroke-miterlimit:10" transform="translate(-50.598 -378)"/><path d="m225.035 67.602-1.558 9.355h3.117Zm0 0" style="stroke:none;fill-rule:evenodd;fill:#007ac0;fill-opacity:1"/><g style="fill:#c00000;fill-opacity:1"><use xlink:href="#u" x="229.114" y="143.351"/><use xlink:href="#v" x="229.114" y="137.051"/><use xlink:href="#w" x="229.114" y="130.751"/><use xlink:href="#x" x="229.114" y="124.451"/><use xlink:href="#v" x="229.114" y="118.151"/><use xlink:href="#y" x="229.114" y="111.851"/><use xlink:href="#y" x="229.114" y="105.551"/></g><path d="M247.336 445.602h-41.238m47.727-6.562h-47.727ZM207.23 427.086v2.598M207.23 463.602v-15.426" style="fill:none;stroke-width:.567;stroke-linecap:round;stroke-linejoin:miter;stroke:#007ac0;stroke-opacity:1;stroke-miterlimit:10" transform="translate(-50.598 -378)"/><path d="m156.633 67.602-1.559 9.355h3.117Zm0 0" style="stroke:none;fill-rule:evenodd;fill:#007ac0;fill-opacity:1"/><path d="M207.23 421.04v15.425" style="fill:none;stroke-width:.567;stroke-linecap:round;stroke-linejoin:miter;stroke:#007ac0;stroke-opacity:1;stroke-miterlimit:10" transform="translate(-50.598 -378)"/><path d="m156.633 61.04 1.558-9.356h-3.117Zm0 0" style="stroke:none;fill-rule:evenodd;fill:#007ac0;fill-opacity:1"/><g style="fill:#c00000;fill-opacity:1"><use xlink:href="#z" x="160.713" y="43.417"/><use xlink:href="#w" x="160.713" y="37.117"/><use xlink:href="#x" x="160.713" y="30.817"/><use xlink:href="#A" x="160.713" y="24.517"/><use xlink:href="#y" x="160.713" y="18.217"/><use xlink:href="#y" x="160.713" y="11.917"/></g><path d="M249.45 684.068h88.703m-70.73 8.34h70.73ZM337.016 710.138v-8.375M337.016 666.068v15.426" style="fill:none;stroke-width:.567;stroke-linecap:round;stroke-linejoin:miter;stroke:#007ac0;stroke-opacity:1;stroke-miterlimit:10" transform="translate(-50.598 -378)"/><path d="m286.422 306.066 1.558-9.351h-3.12Zm0 0" style="stroke:none;fill-rule:evenodd;fill:#007ac0;fill-opacity:1"/><path d="M337.016 710.408v-15.426" style="fill:none;stroke-width:.567;stroke-linecap:round;stroke-linejoin:miter;stroke:#007ac0;stroke-opacity:1;stroke-miterlimit:10" transform="translate(-50.598 -378)"/><path d="m286.422 314.406-1.563 9.356h3.121Zm0 0" style="stroke:none;fill-rule:evenodd;fill:#007ac0;fill-opacity:1"/><g style="fill:#c00000;fill-opacity:1"><use xlink:href="#z" x="290.499" y="375.608"/><use xlink:href="#w" x="290.499" y="369.308"/><use xlink:href="#B" x="290.499" y="363.008"/><use xlink:href="#B" x="290.499" y="356.708"/><use xlink:href="#y" x="290.499" y="350.408"/><use xlink:href="#y" x="290.499" y="344.108"/></g><path d="M189.727 670.052h17.894m39.559 14.016h-41.828ZM206.485 647.153v13.543M206.485 652.052v15.426" style="fill:none;stroke-width:.567;stroke-linecap:round;stroke-linejoin:miter;stroke:#007ac0;stroke-opacity:1;stroke-miterlimit:10" transform="translate(-50.598 -378)"/><path d="m155.887 292.05 1.562-9.355h-3.12Zm0 0" style="stroke:none;fill-rule:evenodd;fill:#007ac0;fill-opacity:1"/><path d="M206.485 702.068v-15.422" style="fill:none;stroke-width:.567;stroke-linecap:round;stroke-linejoin:miter;stroke:#007ac0;stroke-opacity:1;stroke-miterlimit:10" transform="translate(-50.598 -378)"/><path d="m155.887 306.066-1.559 9.356h3.121Zm0 0" style="stroke:none;fill-rule:evenodd;fill:#007ac0;fill-opacity:1"/><g style="fill:#c00000;fill-opacity:1"><use xlink:href="#u" x="159.967" y="263.483"/><use xlink:href="#w" x="159.967" y="257.183"/><use xlink:href="#C" x="159.967" y="250.883"/><use xlink:href="#D" x="159.967" y="244.583"/><use xlink:href="#y" x="159.967" y="238.283"/><use xlink:href="#y" x="159.967" y="231.983"/></g><path d="M187.457 462.708h-8.613m68.492-17.106h-68.492ZM179.977 428.801v7.45M179.977 480.708v-15.426" style="fill:none;stroke-width:.567;stroke-linecap:round;stroke-linejoin:miter;stroke:#007ac0;stroke-opacity:1;stroke-miterlimit:10" transform="translate(-50.598 -378)"/><path d="m129.379 84.707-1.559 9.356h3.118Zm0 0" style="stroke:none;fill-rule:evenodd;fill:#007ac0;fill-opacity:1"/><path d="M179.977 427.602v15.426" style="fill:none;stroke-width:.567;stroke-linecap:round;stroke-linejoin:miter;stroke:#007ac0;stroke-opacity:1;stroke-miterlimit:10" transform="translate(-50.598 -378)"/><path d="m129.379 67.602 1.559-9.352h-3.118Zm0 0" style="stroke:none;fill-rule:evenodd;fill:#007ac0;fill-opacity:1"/><g style="fill:#c00000;fill-opacity:1"><use xlink:href="#D" x="133.458" y="45.13"/><use xlink:href="#w" x="133.458" y="38.83"/><use xlink:href="#C" x="133.458" y="32.53"/><use xlink:href="#A" x="133.458" y="26.23"/><use xlink:href="#y" x="133.458" y="19.93"/><use xlink:href="#y" x="133.458" y="13.63"/></g><path d="M384.856 554.849h46.938" style="fill:none;stroke-width:.567;stroke-linecap:round;stroke-linejoin:miter;stroke:#007ac0;stroke-opacity:1;stroke-miterlimit:10" transform="translate(-50.598 -378)"/><g style="fill:#c00000;fill-opacity:1"><use xlink:href="#E" x="337.094" y="174.001"/><use xlink:href="#F" x="343.394" y="174.001"/><use xlink:href="#o" x="349.694" y="174.001"/><use xlink:href="#G" x="355.994" y="174.001"/><use xlink:href="#H" x="362.294" y="174.001"/><use xlink:href="#q" x="368.594" y="174.001"/><use xlink:href="#q" x="374.894" y="174.001"/></g><path d="m368.153 566.38 3.098-2.14M386.063 554.013l-12.691 8.765" style="fill:none;stroke-width:.567;stroke-linecap:round;stroke-linejoin:miter;stroke:#007ac0;stroke-opacity:1;stroke-miterlimit:10" transform="translate(-50.598 -378)"/><path d="m320.652 186.238 8.586-4.031-1.773-2.566Zm0 0" style="stroke:none;fill-rule:evenodd;fill:#007ac0;fill-opacity:1"/><path d="m384.856 554.849-5.906 4.078M367.032 562.786a3.77 3.77 0 0 0-2.582 2.918 3.77 3.77 0 0 0 1.383 3.64M368.153 566.38l-3.098 2.137M350.243 578.747l12.695-8.766" style="fill:none;stroke-width:.567;stroke-linecap:round;stroke-linejoin:miter;stroke:#007ac0;stroke-opacity:1;stroke-miterlimit:10" transform="translate(-50.598 -378)"/><path d="m314.457 190.516-8.582 4.035 1.77 2.566Zm0 0" style="stroke:none;fill-rule:evenodd;fill:#007ac0;fill-opacity:1"/><g style="fill:#000;fill-opacity:1"><use xlink:href="#I" x="188.143" y="363.476"/><use xlink:href="#J" x="193.543" y="363.476"/><use xlink:href="#K" x="198.944" y="363.476"/></g></g></defs><use xlink:href="#L"/></svg>