<svg xmlns="http://www.w3.org/2000/svg" xmlns:xlink="http://www.w3.org/1999/xlink" width="412.724" height="261.921" viewBox="0 0 309.543 196.441"><defs><symbol id="c" overflow="visible"><path d="M-1.187-1.781v.093h1.25v-.109q.002-1.03-.313-1.781-.328-.749-.906-1.235A3.5 3.5 0 0 0-2.5-5.515a6 6 0 0 0-1.719-.234h-.515q-.703 0-1.282.188a2.9 2.9 0 0 0-1.015.515q-.422.347-.657.828a2.5 2.5 0 0 0-.234 1.094q0 .61.219 1.094c.137.312.336.586.594.812q.376.345.875.532a3.2 3.2 0 0 0 1.062.171c.375 0 .727-.046 1.047-.14q.47-.154.828-.453.363-.282.563-.703.204-.423.203-.985 0-.263-.047-.484a2 2 0 0 0-.125-.39 2 2 0 0 0-.172-.313 1.6 1.6 0 0 0-.203-.25h.031q.423.047.781.218.344.16.579.454.25.3.375.734.126.438.125 1.047m-2.5-1.375q.001.298-.126.515a1.1 1.1 0 0 1-.328.344q-.199.142-.468.219a2.6 2.6 0 0 1-.578.062q-.296 0-.579-.062a1.6 1.6 0 0 1-.484-.219 1.1 1.1 0 0 1-.344-.344.94.94 0 0 1-.125-.468c0-.164.04-.317.11-.453q.112-.217.312-.376c.149-.101.328-.18.547-.234q.315-.093.75-.094h.531q.174.066.313.172.14.11.234.25.112.142.172.313.064.175.063.375m0 0" style="stroke:none"/></symbol><symbol id="d" overflow="visible"><path d="M-.86-2.266c.274 0 .5-.093.688-.28q.282-.282.281-.75 0-.483-.28-.767a.93.93 0 0 0-.688-.28.95.95 0 0 0-.703.28c-.196.188-.297.446-.297.766q.002.485.297.766c.187.18.421.265.703.265m0 0" style="stroke:none"/></symbol><symbol id="e" overflow="visible"><path d="M-2.969-5.844h-1.875q-.764.001-1.328.172-.574.173-.984.5-.375.344-.578.813a2.7 2.7 0 0 0-.203 1.062q.002.581.203 1.063.204.468.578.797.41.327.984.515.564.174 1.328.172h1.875c.5 0 .946-.062 1.328-.187q.581-.187.97-.516.392-.328.593-.797.187-.466.187-1.062 0-.593-.187-1.063a2.1 2.1 0 0 0-.594-.797 2.7 2.7 0 0 0-.969-.5 4.7 4.7 0 0 0-1.328-.172m-.656 3.578h-1.454q-.432 0-.75-.062-.327-.062-.515-.203a.9.9 0 0 1-.281-.328.96.96 0 0 1-.094-.438q.002-.232.078-.406A.6.6 0 0 1-6.42-4q.187-.169.5-.25.315-.075.75-.094Zm.875-2.078c.293 0 .547.024.766.063q.315.064.515.203a.8.8 0 0 1 .282.328 1 1 0 0 1 .093.438 1 1 0 0 1-.11.484.8.8 0 0 1-.327.312 1.1 1.1 0 0 1-.438.188 3 3 0 0 1-.64.062l-1.547-2.078h.5Zm0 0" style="stroke:none"/></symbol><symbol id="f" overflow="visible"><path d="M-5.812-1.687v1.28H0v-1.359h-4.344a.3.3 0 0 1-.125-.046c-.039-.032-.078-.055-.11-.079a.4.4 0 0 1-.093-.14.5.5 0 0 1-.031-.172q.001-.075.031-.156a.3.3 0 0 1 .078-.141.6.6 0 0 1 .172-.078 1 1 0 0 1 .266-.031H0v-1.328h-4.437a.3.3 0 0 1-.11-.047 1 1 0 0 1-.078-.094.7.7 0 0 1-.047-.125.4.4 0 0 1-.031-.156q.001-.075.031-.157a.3.3 0 0 1 .078-.14.5.5 0 0 1 .172-.094q.112-.03.266-.031H0v-1.36h-4.14c-.32 0-.594.032-.813.094a1.9 1.9 0 0 0-.563.25c-.132.117-.234.25-.296.406-.07.157-.11.32-.11.485 0 .148.024.281.063.406q.046.174.14.313.082.11.188.203.093.093.234.172c-.094.03-.172.07-.234.109a.8.8 0 0 0-.188.156.8.8 0 0 0-.156.281 1.3 1.3 0 0 0-.047.36q0 .423.219.719.22.3.594.453Zm0 0" style="stroke:none"/></symbol><symbol id="g" overflow="visible"><path d="M5.672-5.734q0-.545-.188-.938-.187-.406-.515-.687a2.2 2.2 0 0 0-.782-.422 3.3 3.3 0 0 0-.984-.14q-.532 0-.984.14a2 2 0 0 0-.766.422q-.328.282-.516.687a2.16 2.16 0 0 0-.187.938c0 .187.023.37.078.547q.076.269.235.484.124.206.312.375.2.175.453.297-.281.14-.516.328c-.156.125-.289.265-.39.422a2.4 2.4 0 0 0-.25.547 1.9 1.9 0 0 0-.094.593q0 .563.203.985.199.408.563.687.358.284.828.438c.32.094.672.14 1.047.14q.545 0 1.031-.14.482-.154.828-.438.358-.279.547-.687.201-.423.203-.985a2 2 0 0 0-.14-.765 1.9 1.9 0 0 0-.407-.625 1.7 1.7 0 0 0-.312-.266 2.5 2.5 0 0 0-.375-.219 3 3 0 0 0 .39-.265q.188-.155.329-.344.17-.234.265-.516.094-.279.094-.593m-1.344 3.5q0 .269-.078.484a.977.977 0 0 1-.578.578c-.137.055-.29.078-.453.078q-.253 0-.453-.062a1.1 1.1 0 0 1-.36-.219 1 1 0 0 1-.25-.36 1.4 1.4 0 0 1-.078-.5 1.3 1.3 0 0 1 .078-.484q.094-.217.235-.375a.9.9 0 0 1 .343-.234q.217-.076.47-.078.262 0 .468.078.2.083.36.234.138.158.218.375.077.204.078.485m-.156-3.438c0 .156-.024.305-.063.438a1 1 0 0 1-.187.328.85.85 0 0 1-.313.218.9.9 0 0 1-.39.079q-.234.002-.422-.079a.7.7 0 0 1-.281-.218.8.8 0 0 1-.203-.328 1.4 1.4 0 0 1-.063-.438q0-.233.063-.437a.76.76 0 0 1 .187-.328.6.6 0 0 1 .281-.204 1.1 1.1 0 0 1 .813 0q.187.081.328.204.123.141.187.343.062.188.063.422m0 0" style="stroke:none"/></symbol><symbol id="h" overflow="visible"><path d="M2.266-.86c0 .274.093.5.28.688q.282.282.75.281.483 0 .767-.28a.93.93 0 0 0 .28-.688.95.95 0 0 0-.28-.703c-.188-.196-.446-.297-.766-.297q-.485.002-.766.297a.97.97 0 0 0-.265.703m0 0" style="stroke:none"/></symbol><symbol id="i" overflow="visible"><path d="M5.844-2.969v-1.875q-.001-.764-.172-1.328a2.9 2.9 0 0 0-.5-.984q-.344-.375-.813-.578a2.7 2.7 0 0 0-1.062-.203q-.581.002-1.063.203a2.2 2.2 0 0 0-.796.578q-.33.41-.516.984-.174.564-.172 1.328v1.875c0 .5.063.946.188 1.328q.187.581.515.97.328.392.797.593c.313.125.664.187 1.063.187q.593 0 1.062-.187.469-.2.797-.594.327-.388.5-.969c.113-.382.172-.828.172-1.328m-3.578-.656v-1.454q0-.432.062-.75.062-.327.203-.515a.9.9 0 0 1 .328-.281.96.96 0 0 1 .438-.094q.232.002.406.078A.6.6 0 0 1 4-6.42q.169.187.25.5.075.315.094.75Zm2.078.875c0 .293-.024.547-.063.766q-.064.315-.203.515a.8.8 0 0 1-.328.282 1 1 0 0 1-.437.093 1 1 0 0 1-.485-.11.8.8 0 0 1-.312-.327 1.1 1.1 0 0 1-.188-.438 3 3 0 0 1-.062-.64l2.078-1.547v.5Zm0 0" style="stroke:none"/></symbol><symbol id="j" overflow="visible"><path d="M1.688-5.812H.406V0h1.36v-4.344a.3.3 0 0 1 .046-.125c.032-.039.055-.078.079-.11q.059-.058.14-.093a.5.5 0 0 1 .172-.031q.075.001.156.031.077.02.141.078a.6.6 0 0 1 .078.172 1 1 0 0 1 .031.266V0h1.329v-4.437a.3.3 0 0 1 .046-.11 1 1 0 0 1 .094-.078.7.7 0 0 1 .125-.047.4.4 0 0 1 .156-.031q.075.001.157.031.075.02.14.078a.5.5 0 0 1 .094.172q.03.112.031.266V0h1.36v-4.14c0-.32-.032-.594-.094-.813a1.9 1.9 0 0 0-.25-.563 1.1 1.1 0 0 0-.406-.296c-.157-.07-.32-.11-.485-.11-.148 0-.281.024-.406.063a1 1 0 0 0-.312.14q-.111.082-.204.188-.094.093-.171.234a1 1 0 0 0-.11-.234.8.8 0 0 0-.156-.188.8.8 0 0 0-.281-.156 1.3 1.3 0 0 0-.36-.047q-.423 0-.719.219a1.36 1.36 0 0 0-.453.594Zm0 0" style="stroke:none"/></symbol><symbol id="k" overflow="visible"><path d="M5.125-2.906v-4.922H3.609L.313-2.625l.062.922h3.25V0h1.5v-1.703h.906v-1.203Zm-3.344 0 1.703-2.64.141-.266v2.906Zm0 0" style="stroke:none"/></symbol><symbol id="l" overflow="visible"><path d="M5.875 0v-1.203H2.438L3.906-2.75q.387-.387.703-.75.31-.357.532-.703.215-.341.343-.688a2.489 2.489 0 0 0-.047-1.687 1.9 1.9 0 0 0-.468-.719 2.2 2.2 0 0 0-.766-.453 3 3 0 0 0-1.062-.172q-.61.002-1.125.203a2.4 2.4 0 0 0-.875.547q-.364.344-.563.813-.204.468-.203.984h1.5c0-.207.023-.395.078-.562q.076-.247.234-.422a1 1 0 0 1 .376-.235q.233-.093.53-.093.236 0 .423.078a.9.9 0 0 1 .328.218c.094.094.164.211.219.344q.077.205.078.469c0 .125-.024.25-.063.375a3 3 0 0 1-.172.39q-.142.223-.344.485c-.136.18-.304.375-.5.594L.533-1.016V0Zm0 0" style="stroke:none"/></symbol><symbol id="m" overflow="visible"><path d="M2.266-4.562v1.156h.812q.294 0 .547.078.246.064.422.203.17.157.266.375.093.22.093.547 0 .253-.078.453a.9.9 0 0 1-.234.344.96.96 0 0 1-.39.234 1.6 1.6 0 0 1-.517.078c-.18 0-.34-.023-.484-.078a1.1 1.1 0 0 1-.36-.219.9.9 0 0 1-.25-.312 1.1 1.1 0 0 1-.077-.422h-1.5q-.002.563.218.984c.157.282.352.512.594.688q.375.28.844.422.48.14.984.14.574-.002 1.078-.156Q4.733-.2 5.11-.5q.358-.281.563-.703.218-.434.219-.984a2.3 2.3 0 0 0-.079-.594 2 2 0 0 0-.234-.516 1.7 1.7 0 0 0-.39-.406 2.2 2.2 0 0 0-.563-.313q.281-.124.484-.312a1.8 1.8 0 0 0 .36-.406q.153-.217.218-.47a1.7 1.7 0 0 0 .079-.5q0-.543-.188-.952a1.9 1.9 0 0 0-.531-.703 2.3 2.3 0 0 0-.828-.422 3.8 3.8 0 0 0-1.063-.14q-.549.002-1.015.155-.457.158-.797.422a2.3 2.3 0 0 0-.547.688 2 2 0 0 0-.188.86h1.485c0-.134.023-.259.078-.376q.092-.168.25-.297a1 1 0 0 1 .328-.187q.201-.062.438-.063.263.002.468.078.216.081.344.204.14.141.203.343.077.189.078.407 0 .236-.078.437A.8.8 0 0 1 4-4.906a1 1 0 0 1-.375.25q-.235.093-.547.093Zm0 0" style="stroke:none"/></symbol><symbol id="n" overflow="visible"><path d="M1.781-1.187h-.093v1.25h.109q1.03.002 1.781-.313.749-.328 1.235-.906c.32-.375.554-.82.703-1.344q.234-.78.234-1.719v-.515q0-.703-.187-1.282a2.9 2.9 0 0 0-.516-1.015q-.347-.422-.828-.657a2.5 2.5 0 0 0-1.094-.234q-.61 0-1.094.219a2.3 2.3 0 0 0-.812.594q-.345.376-.532.875a3.2 3.2 0 0 0-.171 1.062c0 .375.046.727.14 1.047q.154.47.453.828.282.363.704.563.42.204.984.203.263 0 .484-.047c.145-.031.274-.07.39-.125.114-.05.22-.11.313-.172q.14-.093.25-.203v.031a2.4 2.4 0 0 1-.218.781q-.16.344-.453.579a1.95 1.95 0 0 1-.735.375 3.8 3.8 0 0 1-1.047.125m1.375-2.5a1 1 0 0 1-.515-.126 1.1 1.1 0 0 1-.344-.328 1.5 1.5 0 0 1-.219-.468 2.6 2.6 0 0 1-.062-.578q0-.296.062-.579.077-.28.219-.484a1.1 1.1 0 0 1 .344-.344.94.94 0 0 1 .468-.125c.164 0 .317.04.454.11q.216.112.374.312c.102.149.18.328.235.547q.093.315.094.75v.531a1.2 1.2 0 0 1-.172.313 1.1 1.1 0 0 1-.25.234q-.142.112-.313.172a1.1 1.1 0 0 1-.375.063m0 0" style="stroke:none"/></symbol><symbol id="o" overflow="visible"><path d="M4.422 0v-7.828h-.094L.922-6.594v1.297L2.906-6v6Zm0 0" style="stroke:none"/></symbol><symbol id="p" overflow="visible"><path d="m.828-3.844 1.203.281q.078-.074.172-.156c.063-.05.133-.097.219-.14q.123-.059.281-.094.169-.03.39-.031c.22 0 .407.039.563.109q.247.094.406.281.17.189.25.453.078.252.079.563c0 .21-.024.406-.063.594q-.064.27-.203.468a.83.83 0 0 1-.344.313q-.204.11-.515.11-.487 0-.797-.282-.316-.279-.375-.781H.625c.008.367.086.687.234.969q.235.41.61.703.358.3.828.453.468.14.984.14.656-.002 1.14-.203.5-.216.829-.578.31-.358.469-.828c.101-.32.156-.656.156-1q-.001-.622-.172-1.11a2.5 2.5 0 0 0-.453-.828q-.3-.34-.75-.515a2.5 2.5 0 0 0-1-.188c-.273 0-.512.04-.719.11-.199.062-.351.133-.453.203l.188-1.719h3.109v-1.281H1.281Zm0 0" style="stroke:none"/></symbol><symbol id="q" overflow="visible"><path d="M4.719-7.89h-.203q-.972 0-1.72.327a3.5 3.5 0 0 0-1.233.907 3.8 3.8 0 0 0-.75 1.375 5.6 5.6 0 0 0-.25 1.718v.579c0 .437.062.851.187 1.234q.2.564.547.969.356.422.86.656A2.6 2.6 0 0 0 3.28.109Q3.89.107 4.375-.094a2.4 2.4 0 0 0 .813-.578q.34-.357.515-.844.188-.48.188-1.062c0-.352-.047-.688-.141-1a2.5 2.5 0 0 0-.406-.86A2 2 0 0 0 4.64-5a2.04 2.04 0 0 0-.97-.219c-.179 0-.35.024-.515.063a2.32 2.32 0 0 0-.797.422q-.158.128-.28.25.045-.482.233-.875c.126-.27.29-.5.5-.688.22-.187.477-.332.782-.437q.45-.155 1.047-.157h.078ZM3.234-4.017c.188 0 .352.04.5.11q.217.11.375.297c.094.136.164.293.22.468.062.18.093.375.093.594q0 .315-.094.578a1.4 1.4 0 0 1-.219.453 1.06 1.06 0 0 1-.843.422q-.269.001-.485-.11a.94.94 0 0 1-.375-.327 1.34 1.34 0 0 1-.265-.516 3.2 3.2 0 0 1-.079-.765v-.438q.077-.152.188-.281a1.187 1.187 0 0 1 .578-.422q.2-.062.406-.063m0 0" style="stroke:none"/></symbol><symbol id="r" overflow="visible"><path d="M5.86-6.984v-.844H.374v1.234h3.922L1.25 0h1.563Zm0 0" style="stroke:none"/></symbol><symbol id="s" overflow="visible"><path d="M2.328-1.219v-6.61H.813V0h5.171v-1.219Zm0 0" style="stroke:none"/></symbol><symbol id="t" overflow="visible"><path d="M5.516-3.422v-1.203h-3.22v-1.969h3.75v-1.234H.797V0h5.267v-1.219H2.297v-2.203Zm0 0" style="stroke:none"/></symbol><symbol id="u" overflow="visible"><path d="M5.672-3.234V-4.47h-3.36v-2.125h3.766v-1.234H.797V0h1.515v-3.234Zm0 0" style="stroke:none"/></symbol><symbol id="v" overflow="visible"><path d="M6.453-6.594v-1.234H.141v1.234h2.39V0h1.516v-6.594Zm0 0" style="stroke:none"/></symbol><clipPath id="w"><path d="M0 0h309.543v196.441H0Zm0 0"/></clipPath><clipPath id="b"><path d="M0 0h309.543v196.441H0Zm0 0"/></clipPath><clipPath id="a"><path d="M0 0h310v197H0z"/></clipPath><g id="x" clip-path="url(#a)"><g clip-path="url(#b)"><path d="M7.5 7.5h1175.552v826.89H7.5Zm0 0" style="fill:none;stroke-width:.45;stroke-linecap:round;stroke-linejoin:miter;stroke:#000;stroke-opacity:1;stroke-miterlimit:10" transform="translate(-845.29 -183.047)"/></g><path d="M-17.86.85V0h3.403l.316.04.3.101.27.168.223.224.171.27.102.302.036.313v1.418h1.702V0h22.675v2.836h1.701V1.417l.037-.313.105-.302.168-.27.223-.224.27-.168.3-.102.316-.04h3.399v.853h-3.4l-.124.013-.122.043-.109.069-.089.085-.065.11-.043.118-.017.128v1.418h1.419v8.503h-3.969v14.173h-22.675V11.338h-3.969V2.835h1.415V1.417l-.013-.129-.043-.118-.069-.109-.085-.085-.109-.07-.118-.042-.129-.013Zm0 0" style="fill-rule:evenodd;fill:#fff;fill-opacity:1;stroke-width:.478;stroke-linecap:round;stroke-linejoin:miter;stroke:#000;stroke-opacity:1;stroke-miterlimit:10" transform="translate(104.706 100.217)scale(-1.1871)"/><path d="M5.244-.001h3.685M8.206.85h.016M8.163.85h.043M8.097.85h.066M8.008.85h.089M7.9.85h.108M7.781.85h.118M7.653.85h.128M13.888 2.332v-.063M13.888 2.39v-.058M13.888 2.444V2.39M13.888 2.49v-.046M13.888 2.522V2.49M13.888 2.542v-.02M13.888 2.542v.01M1.134 1.983V1.7M5.968.85h2.238M13.888 2.27v-.853M14.458.85h3.399M14.458.85V0M17.857.85V0M14.458-.001h3.399" style="fill:none;stroke-width:.478;stroke-linecap:round;stroke-linejoin:miter;stroke:#000;stroke-opacity:1;stroke-miterlimit:10" transform="translate(104.706 100.217)scale(-1.1871)"/><path d="m13.04 1.417.036-.313M13.076 1.104l.105-.302M13.18.802l.169-.27M13.349.532l.223-.224M13.572.308l.27-.168M13.842.14l.3-.102M14.142.038l.316-.04" style="fill-rule:evenodd;fill:#fff;fill-opacity:1;stroke-width:.478;stroke-linecap:round;stroke-linejoin:miter;stroke:#000;stroke-opacity:1;stroke-miterlimit:10" transform="translate(104.706 100.217)scale(-1.1871)"/><path d="M13.04 2.27v-.853M13.04 2.332v-.063M13.04 2.39v-.058M13.04 2.444V2.39M13.04 2.49v-.046M13.04 2.522V2.49M13.04 2.542v-.02M13.04 2.542v.01M11.338 2.835h3.969M15.307 11.325v-5.89M15.307 5.435v-2.6M11.338 11.338h3.969M15.307 11.325v.013M15.307 11.325v-.043M15.307 11.282v-.07M15.307 11.213v-.086M15.307 11.127v-.108M15.307 11.019V10.9M15.307 10.9v-.128M15.307 10.772V6.754M15.307 6.646v.108M15.307 6.646v-.109M15.307 6.537v-.095M15.307 6.442v-.09M15.307 6.353v-.517M15.307 5.747v.09M15.307 5.747v-.095M15.307 5.652v-.109M15.307 5.543v-.108M8.222 1.512V1.7M8.222 1.512v-.18M8.222 1.331v-.16M8.222 1.17v-.135M8.222 1.035V.936M8.222.936V.874M8.222.874V.85M8.222.85V0M-.567.85H.568M13.04 2.552h.848M6.396.85h.125M6.274.85h.122M6.165.85h.109M6.077.85h.088M6.01.85h.067M5.968.85h.043M5.951.85h.017M13.888 2.773v.062M13.888 2.773v-.06M13.888 2.713v-.056M13.888 2.657v-.042M13.888 2.615v-.037M13.888 2.578v-.02M13.888 2.559v-.007M13.04 2.773v.062M13.04 2.773v-.06M13.04 2.713v-.056M13.04 2.657v-.042M13.04 2.615v-.037M13.04 2.578v-.02M13.04 2.559v-.007" style="fill:none;stroke-width:.478;stroke-linecap:round;stroke-linejoin:miter;stroke:#000;stroke-opacity:1;stroke-miterlimit:10" transform="translate(104.706 100.217)scale(-1.1871)"/><path d="m14.333.864.125-.013M14.21.907l.123-.043M14.102.976l.109-.07M14.013 1.061l.09-.085M13.948 1.17l.065-.109M13.905 1.289l.043-.119M13.888 1.417l.017-.128" style="fill-rule:evenodd;fill:#fff;fill-opacity:1;stroke-width:.478;stroke-linecap:round;stroke-linejoin:miter;stroke:#000;stroke-opacity:1;stroke-miterlimit:10" transform="translate(104.706 100.217)scale(-1.1871)"/><path d="M-8.205.85h2.238M-5.967.85h.013M-6.01.85h.043M-6.079.85h.07M-6.164.85h.085M-6.273.85h.109M-6.392.85h.119M-6.52.85h.128M-5.954 1.512V1.7M-5.954 1.512v-.18M-5.954 1.331V1.17M-5.954 1.17v-.135M-5.954 1.035V.936M-5.954.936V.874M-5.954.874V.85M-5.954.85V0M-5.967-.001h.013M-6.01-.001h.043M-6.079-.001h.07M-6.164-.001h.085M-6.273-.001h.109M-6.392-.001h.119M-6.52-.001h.128M-7.655.85h1.135M-7.655-.001h1.135M-5.954 1.983V1.7M8.206-.001h.016M8.163-.001h.043M8.097-.001h.066M8.008-.001h.089M7.9-.001h.108M7.781-.001h.118M7.653-.001h.128M6.396-.001h.125M6.274-.001h.122M6.165-.001h.109M6.077-.001h.088M6.01-.001h.067M5.968-.001h.043M5.951-.001h.017M5.951.85V0M5.951 1.512V1.7M5.951 1.512v-.18M5.951 1.331v-.16M5.951 1.17v-.135M5.951 1.035V.936M5.951.936V.874M5.951.874V.85M-8.432 1.983h2.692M-8.929-.001h3.686M-11.337-.001h2.408M-8.432 1.983h2.692" style="fill:none;stroke-width:.478;stroke-linecap:round;stroke-linejoin:miter;stroke:#000;stroke-opacity:1;stroke-miterlimit:10" transform="translate(104.706 100.217)scale(-1.1871)"/><path d="m-5.74 1.983.497-1.984" style="fill-rule:evenodd;fill:#fff;fill-opacity:1;stroke-width:.478;stroke-linecap:round;stroke-linejoin:miter;stroke:#000;stroke-opacity:1;stroke-miterlimit:10" transform="translate(104.706 100.217)scale(-1.1871)"/><path d="M-5.243-.001h3.4" style="fill:none;stroke-width:.478;stroke-linecap:round;stroke-linejoin:miter;stroke:#000;stroke-opacity:1;stroke-miterlimit:10" transform="translate(104.706 100.217)scale(-1.1871)"/><path d="m1.348 1.983.494-1.984" style="fill-rule:evenodd;fill:#fff;fill-opacity:1;stroke-width:.478;stroke-linecap:round;stroke-linejoin:miter;stroke:#000;stroke-opacity:1;stroke-miterlimit:10" transform="translate(104.706 100.217)scale(-1.1871)"/><path d="M1.842-.001h3.402" style="fill:none;stroke-width:.478;stroke-linecap:round;stroke-linejoin:miter;stroke:#000;stroke-opacity:1;stroke-miterlimit:10" transform="translate(104.706 100.217)scale(-1.1871)"/><path d="m5.244-.001.497 1.984M8.433 1.983l.496-1.984" style="fill-rule:evenodd;fill:#fff;fill-opacity:1;stroke-width:.478;stroke-linecap:round;stroke-linejoin:miter;stroke:#000;stroke-opacity:1;stroke-miterlimit:10" transform="translate(104.706 100.217)scale(-1.1871)"/><path d="M8.93-.001h2.408M11.338-.001V25.51M-11.337 25.51h22.675M1.134 1.512V1.7M1.134 1.331v.181M1.134 1.331V1.17M1.134 1.17v-.135M1.134 1.035V.936M1.134.936V.874M1.134.874V.85M-1.12.85h2.24M-.692.85h.125M-.814.85h.122M-.923.85h.109M-1.008.85h.085M-1.077.85h.069M-1.12.85h.043M-1.133.85h.013M6.52.85h1.133M6.52-.001h1.133M5.951 1.983V1.7M8.222 1.983V1.7M-8.221 1.512V1.7M-8.221 1.512v-.18M-8.221 1.331V1.17M-8.221 1.17v-.135M-8.221 1.035V.936M-8.221.936V.874M-8.221.874V.85M-8.221 1.983V1.7M-7.777.85h.122M-7.899.85h.122M-8.007.85h.108M-8.096.85h.089M-8.165.85h.069M-8.205.85h.04M-8.221.85h.016M-8.221.85V0M-7.777-.001h.122M-7.899-.001h.122M-8.007-.001h.108M-8.096-.001h.089M-8.165-.001h.069M-8.205-.001h.04M-8.221-.001h.016M-1.347 1.983h2.695M-17.86.85V0M-17.86-.001h3.403M-14.457.85V0M-17.86.85h3.403M-15.306 2.835h3.969M-15.306 11.338h3.969" style="fill:none;stroke-width:.478;stroke-linecap:round;stroke-linejoin:miter;stroke:#000;stroke-opacity:1;stroke-miterlimit:10" transform="translate(104.706 100.217)scale(-1.1871)"/><path d="m-8.929-.001.497 1.984" style="fill-rule:evenodd;fill:#fff;fill-opacity:1;stroke-width:.478;stroke-linecap:round;stroke-linejoin:miter;stroke:#000;stroke-opacity:1;stroke-miterlimit:10" transform="translate(104.706 100.217)scale(-1.1871)"/><path d="M-15.306 5.435v-2.6M-15.306 5.543v-.108M-15.306 5.652v-.109M-15.306 5.747v-.095M-15.306 5.747v.09M-15.306 6.353v-.517M-15.306 6.442v-.09M-15.306 6.537v-.095M-15.306 6.646v-.109M-15.306 6.646v.108M-15.306 10.772V6.754M-15.306 10.9v-.128M-15.306 11.019V10.9M-15.306 11.127v-.108M-15.306 11.213v-.086M-15.306 11.282v-.07M-15.306 11.325v-.043M-15.306 11.325v.013M-15.306 11.325v-5.89M5.74 1.983h2.693M5.74 1.983h2.693M-1.844-.001h3.686M-1.347 1.983h2.695" style="fill:none;stroke-width:.478;stroke-linecap:round;stroke-linejoin:miter;stroke:#000;stroke-opacity:1;stroke-miterlimit:10" transform="translate(104.706 100.217)scale(-1.1871)"/><path d="m-1.844-.001.497 1.984" style="fill-rule:evenodd;fill:#fff;fill-opacity:1;stroke-width:.478;stroke-linecap:round;stroke-linejoin:miter;stroke:#000;stroke-opacity:1;stroke-miterlimit:10" transform="translate(104.706 100.217)scale(-1.1871)"/><path d="M-1.133.85V0M-1.133 1.512V1.7M-1.133 1.331v.181M-1.133 1.331V1.17M-1.133 1.17v-.135M-1.133 1.035V.936M-1.133.936V.874M-1.133.874V.85M-1.133 1.983V1.7M-.567-.001H.568M-.692-.001h.125M-.814-.001h.122M-.923-.001h.109M-1.008-.001h.085M-1.077-.001h.069M-1.12-.001h.043M-1.133-.001h.013M-11.337 25.51V0M1.134.85V0M1.12.85h.014M1.078.85h.043M1.009.85h.07M.92.85h.089M.815.85H.92M.693.85h.122M.568.85h.125M1.12-.001h.014M1.078-.001h.043M1.009-.001h.07M.92-.001h.089M.815-.001H.92M.693-.001h.122M.568-.001h.125M-13.039 2.835v-.062M-13.039 2.773v-.06M-13.039 2.713v-.056M-13.039 2.657v-.042M-13.039 2.615v-.037M-13.039 2.578v-.02M-13.039 2.552v.007M-13.039 2.27v.062M-13.039 2.39v-.058M-13.039 2.443v-.052M-13.039 2.49v-.047M-13.039 2.522V2.49M-13.039 2.542v-.02M-13.039 2.552v-.01M-13.89 2.332v-.063M-13.89 2.39v-.058M-13.89 2.443v-.052M-13.89 2.49v-.047M-13.89 2.522V2.49M-13.89 2.542v-.02M-13.89 2.542v.01M-13.89 2.773v.062M-13.89 2.773v-.06M-13.89 2.713v-.056M-13.89 2.657v-.042M-13.89 2.615v-.037M-13.89 2.578v-.02M-13.89 2.559v-.007M-13.89 2.552h.851" style="fill:none;stroke-width:.478;stroke-linecap:round;stroke-linejoin:miter;stroke:#000;stroke-opacity:1;stroke-miterlimit:10" transform="translate(104.706 100.217)scale(-1.1871)"/><path d="m-14.457.85.129.014M-14.328.864l.118.043M-14.21.907l.109.069M-14.101.976l.085.085M-14.016 1.061l.07.109M-13.947 1.17l.043.118M-13.904 1.288l.013.129M-13.075 1.104l.036.313M-13.177.801l.102.303M-13.348.532l.171.27M-13.572.308l.224.224M-13.841.14l.27.168M-14.14.038l.299.102M-14.457-.001l.316.04" style="fill-rule:evenodd;fill:#fff;fill-opacity:1;stroke-width:.478;stroke-linecap:round;stroke-linejoin:miter;stroke:#000;stroke-opacity:1;stroke-miterlimit:10" transform="translate(104.706 100.217)scale(-1.1871)"/><path d="M-13.039 2.27v-.853M-13.89 2.27v-.853M13.04 2.27h.848M11.338 10.772h3.969M11.338 6.754h3.969M11.338 6.353h3.969M11.338 5.836h3.969M11.338 5.435h3.969M-6.52.85V0M-8.221 1.7h2.267M-1.133 1.7h2.267M-.567.85V0M7.653.85V0M6.52.85V0M5.951 1.7h2.271M-7.655.85V0M-15.306 5.435h3.969M-15.306 5.836h3.969M-15.306 6.353h3.969M-15.306 6.754h3.969M-15.306 10.772h3.969M.568.85V0M-13.89 2.27h.851" style="fill:none;stroke-width:.478;stroke-linecap:round;stroke-linejoin:miter;stroke:#000;stroke-opacity:1;stroke-miterlimit:10" transform="translate(104.706 100.217)scale(-1.1871)"/><path d="M-17.858.85V0h3.403l.312.039.3.102.27.168.223.224.172.27.105.302.033.313v1.418h1.701V0H11.34v2.836h1.701V1.417l.036-.313.106-.303.164-.27.224-.223.27-.168.302-.102.313-.04h3.402v.853h-3.402l-.125.013-.122.043-.105.069-.089.085-.07.109-.042.118-.013.129v1.418h1.418v8.503H11.34v14.173H-11.34V11.338h-3.968V2.835h1.418V1.417l-.013-.129-.043-.118-.07-.109-.088-.085-.109-.07-.118-.042-.125-.013Zm0 0" style="fill-rule:evenodd;fill:#fff;fill-opacity:1;stroke-width:.478;stroke-linecap:round;stroke-linejoin:miter;stroke:#000;stroke-opacity:1;stroke-miterlimit:10" transform="translate(150.739 100.217)scale(-1.1871)"/><path d="M5.246-.001h3.682M8.207.85h.013M8.164.85h.043M8.095.85h.07M8.006.85h.09M7.901.85h.105M7.783.85H7.9M7.654.85h.129M13.89 2.332v-.063M13.89 2.39v-.058M13.89 2.443v-.052M13.89 2.49v-.047M13.89 2.522V2.49M13.89 2.542v-.02M13.89 2.542v.01M1.132 1.983V1.7M5.966.85h2.241M13.89 2.27v-.853M14.456.85h3.402M14.456.85V0M17.858.85V0M14.456-.001h3.402" style="fill:none;stroke-width:.478;stroke-linecap:round;stroke-linejoin:miter;stroke:#000;stroke-opacity:1;stroke-miterlimit:10" transform="translate(150.739 100.217)scale(-1.1871)"/><path d="m13.041 1.417.036-.313M13.077 1.104l.106-.303M13.183.801l.164-.27M13.347.532l.224-.224M13.57.308l.27-.168M13.84.14l.303-.102M14.143.038l.313-.04" style="fill-rule:evenodd;fill:#fff;fill-opacity:1;stroke-width:.478;stroke-linecap:round;stroke-linejoin:miter;stroke:#000;stroke-opacity:1;stroke-miterlimit:10" transform="translate(150.739 100.217)scale(-1.1871)"/><path d="M13.041 2.27v-.853M13.041 2.332v-.063M13.041 2.39v-.058M13.041 2.443v-.052M13.041 2.49v-.047M13.041 2.522V2.49M13.041 2.542v-.02M13.041 2.542v.01M11.34 2.835h3.968M15.308 11.325v-5.89M15.308 5.435v-2.6M11.34 11.338h3.968M15.308 11.325v.013M15.308 11.325v-.043M15.308 11.282v-.07M15.308 11.213v-.086M15.308 11.127v-.108M15.308 11.019V10.9M15.308 10.9v-.128M15.308 10.772V6.754M15.308 6.646v.108M15.308 6.646v-.109M15.308 6.537v-.095M15.308 6.442v-.09M15.308 6.353v-.517M15.308 5.747v.09M15.308 5.747v-.095M15.308 5.652v-.109M15.308 5.543v-.108M8.22 1.512V1.7M8.22 1.512v-.18M8.22 1.331V1.17M8.22 1.17v-.135M8.22 1.035V.936M8.22.936V.874M8.22.874V.85M8.22.85V0M-.566.85H.566M13.041 2.552h.849M6.394.85h.125M6.272.85h.122M6.167.85h.105M6.078.85h.089M6.009.85h.07M5.966.85h.043M5.953.85h.013M13.89 2.773v.062M13.89 2.773v-.06M13.89 2.713v-.056M13.89 2.657v-.042M13.89 2.615v-.037M13.89 2.578v-.02M13.89 2.559v-.007M13.041 2.773v.062M13.041 2.773v-.06M13.041 2.713v-.056M13.041 2.657v-.042M13.041 2.615v-.037M13.041 2.578v-.02M13.041 2.559v-.007" style="fill:none;stroke-width:.478;stroke-linecap:round;stroke-linejoin:miter;stroke:#000;stroke-opacity:1;stroke-miterlimit:10" transform="translate(150.739 100.217)scale(-1.1871)"/><path d="m14.33.864.126-.013M14.21.907l.12-.043M14.104.976l.105-.07M14.015 1.061l.089-.085M13.946 1.17l.069-.109M13.903 1.288l.043-.118M13.89 1.417l.013-.129" style="fill-rule:evenodd;fill:#fff;fill-opacity:1;stroke-width:.478;stroke-linecap:round;stroke-linejoin:miter;stroke:#000;stroke-opacity:1;stroke-miterlimit:10" transform="translate(150.739 100.217)scale(-1.1871)"/><path d="M-8.206.85h2.24M-5.965.85h.013M-6.008.85h.043M-6.077.85h.069M-6.166.85h.089M-6.275.85h.109M-6.393.85h.118M-6.518.85h.125M-5.952 1.512V1.7M-5.952 1.512v-.18M-5.952 1.331V1.17M-5.952 1.17v-.135M-5.952 1.035V.936M-5.952.936V.874M-5.952.874V.85M-5.952.85V0M-5.965-.001h.013M-6.008-.001h.043M-6.077-.001h.069M-6.166-.001h.089M-6.275-.001h.109M-6.393-.001h.118M-6.518-.001h.125M-7.653.85h1.135M-7.653-.001h1.135M-5.952 1.983V1.7M8.207-.001h.013M8.164-.001h.043M8.095-.001h.07M8.006-.001h.09M7.901-.001h.105M7.783-.001H7.9M7.654-.001h.129M6.394-.001h.125M6.272-.001h.122M6.167-.001h.105M6.078-.001h.089M6.009-.001h.07M5.966-.001h.043M5.953-.001h.013M5.953.85V0M5.953 1.512V1.7M5.953 1.512v-.18M5.953 1.331V1.17M5.953 1.17v-.135M5.953 1.035V.936M5.953.936V.874M5.953.874V.85M-8.433 1.983h2.691M-8.93-.001h3.685M-11.339-.001h2.409M-8.433 1.983h2.691" style="fill:none;stroke-width:.478;stroke-linecap:round;stroke-linejoin:miter;stroke:#000;stroke-opacity:1;stroke-miterlimit:10" transform="translate(150.739 100.217)scale(-1.1871)"/><path d="m-5.742 1.983.497-1.984" style="fill-rule:evenodd;fill:#fff;fill-opacity:1;stroke-width:.478;stroke-linecap:round;stroke-linejoin:miter;stroke:#000;stroke-opacity:1;stroke-miterlimit:10" transform="translate(150.739 100.217)scale(-1.1871)"/><path d="M-5.245-.001h3.403" style="fill:none;stroke-width:.478;stroke-linecap:round;stroke-linejoin:miter;stroke:#000;stroke-opacity:1;stroke-miterlimit:10" transform="translate(150.739 100.217)scale(-1.1871)"/><path d="m1.346 1.983.497-1.984" style="fill-rule:evenodd;fill:#fff;fill-opacity:1;stroke-width:.478;stroke-linecap:round;stroke-linejoin:miter;stroke:#000;stroke-opacity:1;stroke-miterlimit:10" transform="translate(150.739 100.217)scale(-1.1871)"/><path d="M1.843-.001h3.403" style="fill:none;stroke-width:.478;stroke-linecap:round;stroke-linejoin:miter;stroke:#000;stroke-opacity:1;stroke-miterlimit:10" transform="translate(150.739 100.217)scale(-1.1871)"/><path d="m5.246-.001.493 1.984M8.434 1.983l.494-1.984" style="fill-rule:evenodd;fill:#fff;fill-opacity:1;stroke-width:.478;stroke-linecap:round;stroke-linejoin:miter;stroke:#000;stroke-opacity:1;stroke-miterlimit:10" transform="translate(150.739 100.217)scale(-1.1871)"/><path d="M8.928-.001h2.412M11.34-.001V25.51M-11.339 25.51H11.34M1.132 1.512V1.7M1.132 1.331v.181M1.132 1.331V1.17M1.132 1.17v-.135M1.132 1.035V.936M1.132.936V.874M1.132.874V.85M-1.118.85h2.237M-.69.85h.124M-.812.85h.121M-.92.85h.108M-1.01.85h.09M-1.076.85h.066M-1.118.85h.042M-1.135.85h.017M6.52.85h1.134M6.52-.001h1.134M5.953 1.983V1.7M8.22 1.983V1.7M-8.22 1.512V1.7M-8.22 1.512v-.18M-8.22 1.331V1.17M-8.22 1.17v-.135M-8.22 1.035V.936M-8.22.936V.874M-8.22.874V.85M-8.22 1.983V1.7M-7.779.85h.126M-7.9.85h.121M-8.009.85h.109M-8.094.85h.085M-8.164.85h.07M-8.206.85h.042M-8.22.85h.014M-8.22.85V0M-7.779-.001h.126M-7.9-.001h.121M-8.009-.001h.109M-8.094-.001h.085M-8.164-.001h.07M-8.206-.001h.042M-8.22-.001h.014M-1.345 1.983h2.691M-17.858.85V0M-17.858-.001h3.403M-14.455.85V0M-17.858.85h3.403M-15.307 2.835h3.968M-15.307 11.338h3.968" style="fill:none;stroke-width:.478;stroke-linecap:round;stroke-linejoin:miter;stroke:#000;stroke-opacity:1;stroke-miterlimit:10" transform="translate(150.739 100.217)scale(-1.1871)"/><path d="m-8.93-.001.497 1.984" style="fill-rule:evenodd;fill:#fff;fill-opacity:1;stroke-width:.478;stroke-linecap:round;stroke-linejoin:miter;stroke:#000;stroke-opacity:1;stroke-miterlimit:10" transform="translate(150.739 100.217)scale(-1.1871)"/><path d="M-15.307 5.435v-2.6M-15.307 5.543v-.108M-15.307 5.652v-.109M-15.307 5.747v-.095M-15.307 5.747v.09M-15.307 6.353v-.517M-15.307 6.442v-.09M-15.307 6.537v-.095M-15.307 6.646v-.109M-15.307 6.646v.108M-15.307 10.772V6.754M-15.307 10.9v-.128M-15.307 11.019V10.9M-15.307 11.127v-.108M-15.307 11.213v-.086M-15.307 11.282v-.07M-15.307 11.325v-.043M-15.307 11.325v.013M-15.307 11.325v-5.89M5.74 1.983h2.694M5.74 1.983h2.694M-1.842-.001h3.685M-1.345 1.983h2.691" style="fill:none;stroke-width:.478;stroke-linecap:round;stroke-linejoin:miter;stroke:#000;stroke-opacity:1;stroke-miterlimit:10" transform="translate(150.739 100.217)scale(-1.1871)"/><path d="m-1.842-.001.497 1.984" style="fill-rule:evenodd;fill:#fff;fill-opacity:1;stroke-width:.478;stroke-linecap:round;stroke-linejoin:miter;stroke:#000;stroke-opacity:1;stroke-miterlimit:10" transform="translate(150.739 100.217)scale(-1.1871)"/><path d="M-1.135.85V0M-1.135 1.512V1.7M-1.135 1.331v.181M-1.135 1.331V1.17M-1.135 1.17v-.135M-1.135 1.035V.936M-1.135.936V.874M-1.135.874V.85M-1.135 1.983V1.7M-.566-.001H.566M-.69-.001h.124M-.812-.001h.121M-.92-.001h.108M-1.01-.001h.09M-1.076-.001h.066M-1.118-.001h.042M-1.135-.001h.017M-11.339 25.51V0M1.132.85V0M1.12.85h.012M1.076.85h.043M1.01.85h.066M.922.85h.089M.813.85h.109M.695.85h.118M.566.85h.129M1.12-.001h.012M1.076-.001h.043M1.01-.001h.066M.922-.001h.089M.813-.001h.109M.695-.001h.118M.566-.001h.129M-13.04 2.835v-.062M-13.04 2.773v-.06M-13.04 2.713v-.056M-13.04 2.657v-.042M-13.04 2.615v-.037M-13.04 2.578v-.02M-13.04 2.552v.007M-13.04 2.27v.062M-13.04 2.39v-.058M-13.04 2.443v-.052M-13.04 2.49v-.047M-13.04 2.522V2.49M-13.04 2.542v-.02M-13.04 2.552v-.01M-13.89 2.332v-.063M-13.89 2.39v-.058M-13.89 2.443v-.052M-13.89 2.49v-.047M-13.89 2.522V2.49M-13.89 2.542v-.02M-13.89 2.542v.01M-13.89 2.773v.062M-13.89 2.773v-.06M-13.89 2.713v-.056M-13.89 2.657v-.042M-13.89 2.615v-.037M-13.89 2.578v-.02M-13.89 2.559v-.007M-13.89 2.552h.85" style="fill:none;stroke-width:.478;stroke-linecap:round;stroke-linejoin:miter;stroke:#000;stroke-opacity:1;stroke-miterlimit:10" transform="translate(150.739 100.217)scale(-1.1871)"/><path d="m-14.455.85.125.014M-14.33.864l.118.043M-14.212.907l.109.069M-14.103.976l.089.085M-14.014 1.061l.069.109M-13.945 1.17l.043.118M-13.902 1.288l.013.129M-13.073 1.104l.033.313M-13.178.801l.105.303M-13.35.532l.172.27M-13.573.308l.223.224M-13.843.14l.27.168M-14.143.038l.3.102M-14.455-.001l.312.039" style="fill-rule:evenodd;fill:#fff;fill-opacity:1;stroke-width:.478;stroke-linecap:round;stroke-linejoin:miter;stroke:#000;stroke-opacity:1;stroke-miterlimit:10" transform="translate(150.739 100.217)scale(-1.1871)"/><path d="M-13.04 2.27v-.853M-13.89 2.27v-.853M13.041 2.27h.849M11.34 10.772h3.968M11.34 6.754h3.968M11.34 6.353h3.968M11.34 5.836h3.968M11.34 5.435h3.968M-6.518.85V0M-8.22 1.7h2.268M-1.135 1.7h2.267M-.566.85V0M7.654.85V0M6.52.85V0M5.953 1.7H8.22M-7.653.85V0M-15.307 5.435h3.968M-15.307 5.836h3.968M-15.307 6.353h3.968M-15.307 6.754h3.968M-15.307 10.772h3.968M.566.85V0M-13.89 2.27h.85" style="fill:none;stroke-width:.478;stroke-linecap:round;stroke-linejoin:miter;stroke:#000;stroke-opacity:1;stroke-miterlimit:10" transform="translate(150.739 100.217)scale(-1.1871)"/><path d="M883.98-4.628h238.785V0H883.98Zm0 0" style="fill-rule:evenodd;fill:#fff;fill-opacity:1;stroke-width:1.194;stroke-linecap:round;stroke-linejoin:miter;stroke:#000;stroke-opacity:1;stroke-miterlimit:10" transform="translate(1345.433 100.216)scale(-1.1871)"/><path d="M948.865 252.98h-19.7m21.887 30.286h-21.887ZM930.298 235.563v8.062M930.298 234.98v15.427" style="fill:none;stroke-width:.567;stroke-linecap:round;stroke-linejoin:miter;stroke:#007ac0;stroke-opacity:1;stroke-miterlimit:10" transform="translate(-845.292 -183.047)"/><path d="m85.008 69.934 1.558-9.356H83.45Zm0 0" style="stroke:none;fill-rule:evenodd;fill:#007ac0;fill-opacity:1"/><path d="M930.298 301.266V285.84" style="fill:none;stroke-width:.567;stroke-linecap:round;stroke-linejoin:miter;stroke:#007ac0;stroke-opacity:1;stroke-miterlimit:10" transform="translate(-845.292 -183.047)"/><path d="m85.008 100.219-1.559 9.351h3.117Zm0 0" style="stroke:none;fill-rule:evenodd;fill:#007ac0;fill-opacity:1"/><g style="fill:#c00000;fill-opacity:1"><use xlink:href="#c" x="89.087" y="46.845"/><use xlink:href="#d" x="89.087" y="40.545"/><use xlink:href="#e" x="89.087" y="34.245"/><use xlink:href="#e" x="89.087" y="27.945"/><use xlink:href="#f" x="89.087" y="21.645"/><use xlink:href="#f" x="89.087" y="15.345"/></g><path d="M982.572 260.258v-25.746m26.917 25.746v-25.746ZM1030.13 235.645h-11.285M964.572 235.645h15.425" style="fill:none;stroke-width:.567;stroke-linecap:round;stroke-linejoin:miter;stroke:#007ac0;stroke-opacity:1;stroke-miterlimit:10" transform="translate(-845.292 -183.047)"/><path d="m137.281 52.598-9.355-1.559v3.121Zm0 0" style="stroke:none;fill-rule:evenodd;fill:#007ac0;fill-opacity:1"/><path d="M1027.49 235.645h-15.422" style="fill:none;stroke-width:.567;stroke-linecap:round;stroke-linejoin:miter;stroke:#007ac0;stroke-opacity:1;stroke-miterlimit:10" transform="translate(-845.292 -183.047)"/><path d="m164.2 52.598 9.355 1.562v-3.12Zm0 0" style="stroke:none;fill-rule:evenodd;fill:#007ac0;fill-opacity:1"/><g style="fill:#c00000;fill-opacity:1"><use xlink:href="#g" x="190.51" y="56.678"/><use xlink:href="#h" x="196.81" y="56.678"/><use xlink:href="#i" x="203.11" y="56.678"/><use xlink:href="#i" x="209.41" y="56.678"/><use xlink:href="#j" x="215.71" y="56.678"/><use xlink:href="#j" x="222.01" y="56.678"/></g><path d="M857.892 287.145v48.129m283.46-45.383v45.383ZM973.122 334.14H860.466" style="fill:none;stroke-width:.567;stroke-linecap:round;stroke-linejoin:miter;stroke:#007ac0;stroke-opacity:1;stroke-miterlimit:10" transform="translate(-845.292 -183.047)"/><path d="m12.602 151.094 9.355 1.558v-3.117Zm0 0" style="stroke:none;fill-rule:evenodd;fill:#007ac0;fill-opacity:1"/><path d="M1028.56 334.14h110.218" style="fill:none;stroke-width:.567;stroke-linecap:round;stroke-linejoin:miter;stroke:#007ac0;stroke-opacity:1;stroke-miterlimit:10" transform="translate(-845.292 -183.047)"/><path d="m296.063 151.094-9.352-1.559v3.117Zm0 0" style="stroke:none;fill-rule:evenodd;fill:#007ac0;fill-opacity:1"/><g style="fill:#c00000;fill-opacity:1"><use xlink:href="#g" x="133.502" y="155.173"/><use xlink:href="#k" x="139.802" y="155.173"/><use xlink:href="#h" x="146.102" y="155.173"/><use xlink:href="#l" x="152.402" y="155.173"/><use xlink:href="#k" x="158.702" y="155.173"/><use xlink:href="#j" x="165.002" y="155.173"/><use xlink:href="#j" x="171.302" y="155.173"/></g><path d="M1009.49 262.528v37.66m131.863-13.043v13.043ZM1053.435 299.055h-41.367" style="fill:none;stroke-width:.567;stroke-linecap:round;stroke-linejoin:miter;stroke:#007ac0;stroke-opacity:1;stroke-miterlimit:10" transform="translate(-845.292 -183.047)"/><path d="m164.2 116.008 9.355 1.558v-3.117Zm0 0" style="stroke:none;fill-rule:evenodd;fill:#007ac0;fill-opacity:1"/><path d="M1108.872 299.055h29.906" style="fill:none;stroke-width:.567;stroke-linecap:round;stroke-linejoin:miter;stroke:#007ac0;stroke-opacity:1;stroke-miterlimit:10" transform="translate(-845.292 -183.047)"/><path d="m296.063 116.008-9.352-1.559v3.117Zm0 0" style="stroke:none;fill-rule:evenodd;fill:#007ac0;fill-opacity:1"/><g style="fill:#c00000;fill-opacity:1"><use xlink:href="#m" x="213.813" y="120.086"/><use xlink:href="#n" x="220.113" y="120.086"/><use xlink:href="#h" x="226.413" y="120.086"/><use xlink:href="#o" x="232.713" y="120.086"/><use xlink:href="#n" x="239.013" y="120.086"/><use xlink:href="#j" x="245.313" y="120.086"/><use xlink:href="#j" x="251.613" y="120.086"/></g><path d="M982.572 262.528v43.34m-19.114-34.93v34.93ZM1003.032 304.73h-11.105M1000.571 304.73h-15.425" style="fill:none;stroke-width:.567;stroke-linecap:round;stroke-linejoin:miter;stroke:#007ac0;stroke-opacity:1;stroke-miterlimit:10" transform="translate(-845.292 -183.047)"/><path d="m137.281 121.684 9.356 1.558v-3.117Zm0 0" style="stroke:none;fill-rule:evenodd;fill:#007ac0;fill-opacity:1"/><path d="M945.458 304.73h15.426" style="fill:none;stroke-width:.567;stroke-linecap:round;stroke-linejoin:miter;stroke:#007ac0;stroke-opacity:1;stroke-miterlimit:10" transform="translate(-845.292 -183.047)"/><path d="m118.168 121.684-9.356-1.559v3.117Zm0 0" style="stroke:none;fill-rule:evenodd;fill:#007ac0;fill-opacity:1"/><g style="fill:#c00000;fill-opacity:1"><use xlink:href="#p" x="163.411" y="125.763"/><use xlink:href="#h" x="169.711" y="125.763"/><use xlink:href="#q" x="176.011" y="125.763"/><use xlink:href="#g" x="182.311" y="125.763"/><use xlink:href="#j" x="188.611" y="125.763"/><use xlink:href="#j" x="194.911" y="125.763"/></g><path d="M857.892 287.145v18.992m78.644-35.2v35.2ZM879.42 305.004h-18.954" style="fill:none;stroke-width:.567;stroke-linecap:round;stroke-linejoin:miter;stroke:#007ac0;stroke-opacity:1;stroke-miterlimit:10" transform="translate(-845.292 -183.047)"/><path d="m12.602 121.957 9.355 1.559v-3.118Zm0 0" style="stroke:none;fill-rule:evenodd;fill:#007ac0;fill-opacity:1"/><path d="M934.86 305.004h-.898" style="fill:none;stroke-width:.567;stroke-linecap:round;stroke-linejoin:miter;stroke:#007ac0;stroke-opacity:1;stroke-miterlimit:10" transform="translate(-845.292 -183.047)"/><path d="m91.246 121.957-9.351-1.559v3.118Zm0 0" style="stroke:none;fill-rule:evenodd;fill:#007ac0;fill-opacity:1"/><g style="fill:#c00000;fill-opacity:1"><use xlink:href="#l" x="39.799" y="126.035"/><use xlink:href="#m" x="46.099" y="126.035"/><use xlink:href="#h" x="52.399" y="126.035"/><use xlink:href="#m" x="58.699" y="126.035"/><use xlink:href="#r" x="64.999" y="126.035"/><use xlink:href="#j" x="71.299" y="126.035"/><use xlink:href="#j" x="77.599" y="126.035"/></g><g style="fill:#000;fill-opacity:1"><use xlink:href="#s" x="142.147" y="186.421"/><use xlink:href="#t" x="148.447" y="186.421"/><use xlink:href="#u" x="154.747" y="186.421"/><use xlink:href="#v" x="161.047" y="186.421"/></g></g></defs><g clip-path="url(#w)"><use xlink:href="#x"/></g></svg>