<svg xmlns="http://www.w3.org/2000/svg" xmlns:xlink="http://www.w3.org/1999/xlink" width="412.724" height="382.96" viewBox="0 0 309.543 287.22"><defs><symbol id="c" overflow="visible"><path d="M0-.484v-1.532q0-.375-.094-.703a2.4 2.4 0 0 0-.265-.625 2.3 2.3 0 0 0-.375-.437 2.3 2.3 0 0 0-.485-.344 2.8 2.8 0 0 0-.64-.234 3 3 0 0 0-.75-.094h-.47q-.403 0-.765.094a3.2 3.2 0 0 0-.672.25 3.4 3.4 0 0 0-.453.343 2.3 2.3 0 0 0-.36.438 2.5 2.5 0 0 0-.265.625q-.093.346-.093.734v1.485Zm-4.797-1.11v-.375a1.4 1.4 0 0 1 .172-.672 1.25 1.25 0 0 1 .672-.546 2 2 0 0 1 .406-.11q.223-.03.469-.031h.469c.18 0 .343.012.5.031q.221.035.39.11.224.08.375.203.16.127.266.265.094.14.14.328.047.177.047.375v.422Zm0 0" style="stroke:none"/></symbol><symbol id="d" overflow="visible"><path d="M-.89-1.687h-4.797v1.093H0v-3.765h-.89Zm0 0" style="stroke:none"/></symbol><symbol id="e" overflow="visible"><path d="M-3.328-1.64h.844v-.594q.002-.216.062-.391a.8.8 0 0 1 .156-.312A.6.6 0 0 1-2-3.125a.9.9 0 0 1 .39-.078q.19.002.344.062a.54.54 0 0 1 .235.157.8.8 0 0 1 .187.297q.047.158.047.374 0 .19-.047.344a.7.7 0 0 1-.172.266.6.6 0 0 1-.234.172.7.7 0 0 1-.297.062v1.094q.41.002.719-.156.3-.17.5-.438.206-.264.312-.61a2.8 2.8 0 0 0-.015-1.5c-.07-.25-.18-.46-.328-.64a1.4 1.4 0 0 0-.532-.406 1.6 1.6 0 0 0-.703-.156q-.233.002-.437.062a1.3 1.3 0 0 0-.375.157 1.2 1.2 0 0 0-.281.296c-.094.118-.172.25-.235.407a1.7 1.7 0 0 0-.219-.36 1.6 1.6 0 0 0-.312-.265 1 1 0 0 0-.328-.157 1.2 1.2 0 0 0-.36-.062q-.405 0-.703.14a1.4 1.4 0 0 0-.515.391 1.65 1.65 0 0 0-.297.61 2.6 2.6 0 0 0 0 1.5c.074.218.18.414.312.578q.221.252.5.406.284.14.625.14V-1.53a.6.6 0 0 1-.281-.063.54.54 0 0 1-.203-.172.7.7 0 0 1-.14-.25 1 1 0 0 1-.048-.296.9.9 0 0 1 .063-.344.8.8 0 0 1 .14-.266.8.8 0 0 1 .25-.14 1 1 0 0 1 .297-.047q.176 0 .329.046c.093.032.18.079.25.141a.7.7 0 0 1 .171.281c.043.118.063.25.063.407Zm0 0" style="stroke:none"/></symbol><symbol id="f" overflow="visible"><path d="M0-4.266h-.875v2.485L-2-2.844a18 18 0 0 0-.547-.5 4 4 0 0 0-.515-.39 2 2 0 0 0-.5-.25 1.6 1.6 0 0 0-.547-.094q-.357.001-.672.125a1.45 1.45 0 0 0-.532.328 1.55 1.55 0 0 0-.328.578 2.1 2.1 0 0 0-.125.75c0 .305.055.578.157.828.093.25.226.465.39.64.168.18.367.313.594.407q.33.14.719.14v-1.077q-.233 0-.406-.063a.9.9 0 0 1-.313-.172.8.8 0 0 1-.172-.265 1.2 1.2 0 0 1-.062-.391.8.8 0 0 1 .062-.312.6.6 0 0 1 .14-.235.7.7 0 0 1 .266-.156.885.885 0 0 1 .61-.016q.13.047.281.125.159.096.36.25.187.142.421.36L-.75-.391H0Zm0 0" style="stroke:none"/></symbol><symbol id="g" overflow="visible"><path d="M4.297-5.687H3.219l-.016 3.765q-.002.283-.062.5a.9.9 0 0 1-.157.344.53.53 0 0 1-.25.203 1 1 0 0 1-.359.063.8.8 0 0 1-.328-.063.55.55 0 0 1-.235-.187.84.84 0 0 1-.156-.36 3 3 0 0 1-.062-.5v-3.766H.5v3.766q-.001.486.125.86.14.362.39.625.234.25.579.39.358.124.781.125.45-.001.813-.125c.238-.094.44-.226.609-.406q.246-.246.375-.61.14-.374.14-.859Zm0 0" style="stroke:none"/></symbol><symbol id="h" overflow="visible"><path d="M3.219 0v-5.687h-.063l-2.484.89v.953l1.437-.515V0Zm0 0" style="stroke:none"/></symbol><symbol id="i" overflow="visible"><path d="M.234-.422 1-1.75a2.6 2.6 0 0 0 .281-.656c.063-.227.086-.446.078-.656a3 3 0 0 0-.125-.563A2.5 2.5 0 0 0 1-4.187a3 3 0 0 0-.437-.516 2.8 2.8 0 0 0-.61-.453l-.406-.235a2.8 2.8 0 0 0-.703-.296 3.3 3.3 0 0 0-.703-.125q-.294.018-.563.078-.28.063-.531.203a2.1 2.1 0 0 0-.547.39 2.8 2.8 0 0 0-.437.594l-.75 1.281Zm-3.593-3.344.187-.328q.095-.168.219-.297.127-.122.265-.203.19-.105.407-.14.22-.03.453 0 .189.032.406.125.207.08.406.203l.407.234c.156.086.297.172.422.266.117.094.21.187.296.281q.14.188.204.375.074.188.109.36 0 .173-.047.359-.035.174-.14.344l-.204.374Zm0 0" style="stroke:none"/></symbol><symbol id="j" overflow="visible"><path d="m.078-1.906-4.156-2.407-.547.954L.297-.516 2.172-3.78l-.766-.438Zm0 0" style="stroke:none"/></symbol><symbol id="k" overflow="visible"><path d="M-1.547-5.656a1.7 1.7 0 0 0-.672-.235 1.3 1.3 0 0 0-.625.094 1.5 1.5 0 0 0-.531.328 2.5 2.5 0 0 0-.469.578q-.186.345-.25.672-.074.316-.015.625.046.316.234.578c.125.18.305.336.531.47q.175.092.375.14.205.047.375.047.205-.013.39-.079a.9.9 0 0 0 .313-.187q.001.253.032.453c.023.137.062.274.125.406q.11.188.25.36.129.159.328.265.363.205.703.235.346.016.64-.125.294-.093.563-.344.281-.263.484-.625.2-.341.282-.687.077-.36.03-.688a1.46 1.46 0 0 0-.234-.594 1.55 1.55 0 0 0-.546-.5 1.4 1.4 0 0 0-.532-.172 1.7 1.7 0 0 0-.546.032.8.8 0 0 0-.282.093 3 3 0 0 0-.265.172 2 2 0 0 0-.032-.36 1.3 1.3 0 0 0-.093-.312 1.7 1.7 0 0 0-.22-.359 1.2 1.2 0 0 0-.343-.281m1.719 2.11q.152.093.266.233.105.129.14.282a.64.64 0 0 1 .016.312 1.1 1.1 0 0 1-.11.297 1 1 0 0 1-.218.266q-.128.094-.25.14a.8.8 0 0 1-.328.032.9.9 0 0 1-.344-.141 1 1 0 0 1-.281-.219 1 1 0 0 1-.157-.281 1 1 0 0 1-.015-.297A.8.8 0 0 1-1-3.25a1 1 0 0 1 .516-.422q.141-.013.312.016a.9.9 0 0 1 .344.11m-2.234-1.157a.9.9 0 0 1 .25.219c.062.074.117.152.156.234a.7.7 0 0 1 .015.266.7.7 0 0 1-.093.28.7.7 0 0 1-.203.235q-.105.063-.235.11a.64.64 0 0 1-.297 0 1 1 0 0 1-.297-.125 1 1 0 0 1-.25-.188.7.7 0 0 1-.14-.234.9.9 0 0 1-.016-.266.8.8 0 0 1 .094-.281.9.9 0 0 1 .203-.234q.111-.078.234-.125a1.1 1.1 0 0 1 .297.015.8.8 0 0 1 .281.094m0 0" style="stroke:none"/></symbol><symbol id="l" overflow="visible"><path d="m.25.422.766 1.328q.187.31.422.563.247.248.546.39.265.123.547.188.295.076.594.078.327-.034.672-.125.357-.096.703-.297l.406-.235a3.3 3.3 0 0 0 .61-.468q.279-.268.453-.547.138-.27.218-.531a1.7 1.7 0 0 0 .094-.563 2.2 2.2 0 0 0-.078-.656 3 3 0 0 0-.297-.688l-.734-1.28Zm4.703-1.453.188.328q.093.174.14.344.047.175.047.328 0 .216-.078.422a1.6 1.6 0 0 1-.234.39 1.2 1.2 0 0 1-.297.282 5 5 0 0 1-.375.265l-.407.234a3 3 0 0 1-.453.22 1.7 1.7 0 0 1-.406.124q-.222.03-.422 0a2.6 2.6 0 0 1-.36-.093 1.4 1.4 0 0 1-.28-.22 1.2 1.2 0 0 1-.235-.296L1.563.922Zm0 0" style="stroke:none"/></symbol><symbol id="m" overflow="visible"><path d="m1.61 1.016 4.156-2.391-.547-.953L.297.516l1.89 3.265.766-.453Zm0 0" style="stroke:none"/></symbol><symbol id="n" overflow="visible"><path d="m6.531 1.14.532-.296-2-3.453-.766.437L5.719.297.453.78l.578.985Zm0 0" style="stroke:none"/></symbol><symbol id="o" overflow="visible"><path d="M.484 0h1.532q.375 0 .703-.094.341-.091.625-.265a2.3 2.3 0 0 0 .437-.375q.201-.216.344-.485.153-.294.234-.64.094-.358.094-.75v-.47q0-.403-.094-.765a3.2 3.2 0 0 0-.25-.672 3.4 3.4 0 0 0-.343-.453 2.3 2.3 0 0 0-.438-.36 2.5 2.5 0 0 0-.625-.265 2.8 2.8 0 0 0-.734-.093H.484Zm1.11-4.797h.375a1.4 1.4 0 0 1 .672.172 1.25 1.25 0 0 1 .547.672q.074.189.109.406.03.223.031.469v.469c0 .18-.012.343-.031.5a1.5 1.5 0 0 1-.11.39 1.3 1.3 0 0 1-.203.375 1.6 1.6 0 0 1-.265.266q-.14.094-.328.14a1.5 1.5 0 0 1-.375.047h-.422Zm0 0" style="stroke:none"/></symbol><symbol id="p" overflow="visible"><path d="M1.688-.89v-4.797H.593V0h3.765v-.89Zm0 0" style="stroke:none"/></symbol><symbol id="q" overflow="visible"><path d="M3.438-5.734h-.141q-.72 0-1.266.234a2.4 2.4 0 0 0-.89.656 2.9 2.9 0 0 0-.547 1 4 4 0 0 0-.188 1.25v.422q0 .485.14.906c.095.274.227.508.407.704q.246.299.61.468c.25.114.523.172.828.172q.434 0 .78-.14a1.78 1.78 0 0 0 .985-1.032q.14-.358.14-.781-.001-.388-.109-.734a1.8 1.8 0 0 0-.296-.61 1.5 1.5 0 0 0-.516-.422 1.5 1.5 0 0 0-.703-.156 1.4 1.4 0 0 0-.688.172q-.14.08-.265.172-.11.094-.203.187.029-.341.156-.625a1.8 1.8 0 0 1 .375-.515q.234-.2.562-.313c.22-.07.473-.11.766-.11h.063ZM2.359-2.922q.2 0 .36.078a.8.8 0 0 1 .265.219c.07.094.13.21.172.344q.062.187.063.422c0 .156-.024.304-.063.437a1.2 1.2 0 0 1-.172.328.8.8 0 0 1-.265.219.7.7 0 0 1-.344.078.8.8 0 0 1-.36-.078.66.66 0 0 1-.265-.234.96.96 0 0 1-.187-.391 2 2 0 0 1-.063-.547v-.312a1 1 0 0 1 .14-.22c.051-.062.11-.116.173-.171a.94.94 0 0 1 .546-.172m0 0" style="stroke:none"/></symbol><symbol id="r" overflow="visible"><path d="M.234-.422 1-1.75a2.6 2.6 0 0 0 .281-.656c.063-.227.086-.446.078-.656a3 3 0 0 0-.125-.563A2.5 2.5 0 0 0 1-4.187a3 3 0 0 0-.437-.516 2.8 2.8 0 0 0-.61-.453l-.406-.235a2.8 2.8 0 0 0-.703-.296 3.3 3.3 0 0 0-.703-.125q-.294.018-.563.078-.28.063-.531.203a2.1 2.1 0 0 0-.547.39 2.8 2.8 0 0 0-.437.594l-.75 1.281Zm-3.593-3.344.187-.328q.095-.168.219-.297.127-.122.265-.203.19-.105.407-.14.22-.03.453 0 .189.032.406.125.207.08.406.203l.407.234c.156.086.297.172.422.266.117.094.21.187.296.281q.14.188.204.375.074.188.109.36 0 .173-.047.359-.035.174-.14.344l-.204.374Zm0 0" style="stroke:none"/></symbol><symbol id="s" overflow="visible"><path d="m.078-1.906-4.156-2.407-.547.954L.297-.516 2.172-3.78l-.766-.438Zm0 0" style="stroke:none"/></symbol><symbol id="t" overflow="visible"><path d="m-2.125-1.922.61-.64a2 2 0 0 0-.032-.172 2 2 0 0 1-.016-.203 1 1 0 0 1 .063-.204 1.3 1.3 0 0 1 .11-.265.9.9 0 0 1 .28-.313.8.8 0 0 1 .313-.156.95.95 0 0 1 .375.016c.125.03.258.086.39.156q.202.127.345.265c.101.094.18.196.234.297q.075.158.062.329c0 .117-.039.234-.109.359a.9.9 0 0 1-.469.406.83.83 0 0 1-.625-.062l-.547.937q.364.19.704.203c.23 0 .445-.039.656-.125q.31-.123.578-.375.265-.246.453-.562.246-.422.281-.797.048-.376-.047-.703a2 2 0 0 0-.359-.61 2 2 0 0 0-.562-.468 3 3 0 0 0-.75-.297 1.9 1.9 0 0 0-.704-.016 1.7 1.7 0 0 0-.593.297 1.8 1.8 0 0 0-.485.563 1.7 1.7 0 0 0-.187.484 2 2 0 0 0-.047.36l-1.016-.735 1.14-1.969-.796-.469-1.578 2.735Zm0 0" style="stroke:none"/></symbol><symbol id="u" overflow="visible"><path d="M.234.422 1 1.75q.187.31.438.563.247.247.546.406.248.123.532.187.293.075.609.063.327-.019.672-.125.34-.094.687-.281l.407-.235q.34-.204.609-.484a3.2 3.2 0 0 0 .453-.532c.094-.18.164-.355.219-.53a1.7 1.7 0 0 0 .094-.563 2.2 2.2 0 0 0-.079-.672 3.3 3.3 0 0 0-.28-.688l-.75-1.28Zm4.72-1.438.187.329q.093.175.14.343.046.174.032.313-.001.233-.079.437a1.8 1.8 0 0 1-.218.39 1.6 1.6 0 0 1-.313.282 5 5 0 0 1-.375.266l-.406.234a7 7 0 0 1-.453.219 1.2 1.2 0 0 1-.39.11c-.157.019-.306.019-.438 0a3 3 0 0 1-.344-.079A1.2 1.2 0 0 1 2 1.61a1.6 1.6 0 0 1-.234-.296L1.563.938Zm0 0" style="stroke:none"/></symbol><symbol id="v" overflow="visible"><path d="m1.61 1.031 4.156-2.406-.547-.953L.297.516 2.172 3.78l.765-.437Zm0 0" style="stroke:none"/></symbol><symbol id="w" overflow="visible"><path d="M3.688 2.172 6.78.375l-.547-.953L1.781-.75l-.578.39 1.172 2.032-1.062.61.546.937 1.063-.61.328.579.766-.438ZM2.468.078l2.298.094h.218L3.141 1.234Zm0 0" style="stroke:none"/></symbol><symbol id="x" overflow="visible"><path d="M4.297-5.687H3.219l-.016 3.765q-.002.283-.062.5a.9.9 0 0 1-.157.344.53.53 0 0 1-.25.203 1 1 0 0 1-.359.063.8.8 0 0 1-.328-.063.55.55 0 0 1-.235-.187.84.84 0 0 1-.156-.36 3 3 0 0 1-.062-.5v-3.766H.5v3.766q-.001.486.125.86.14.362.39.625.234.25.579.39.358.124.781.125.45-.001.813-.125c.238-.094.44-.226.609-.406q.246-.246.375-.61.14-.374.14-.859Zm0 0" style="stroke:none"/></symbol><symbol id="y" overflow="visible"><path d="M3.719-2.11v-3.577H2.625L.235-1.922l.046.688h2.36V0h1.078v-1.234h.672v-.875Zm-2.422 0L2.53-4.046l.11-.187v2.125Zm0 0" style="stroke:none"/></symbol><symbol id="z" overflow="visible"><path d="M3.203-5.687v3.937q-.002.205-.062.375a1 1 0 0 1-.172.297.85.85 0 0 1-.266.203.9.9 0 0 1-.344.063q-.235 0-.406-.063a.6.6 0 0 1-.266-.187.8.8 0 0 1-.125-.25 1.6 1.6 0 0 1-.03-.36H.437q0 .438.14.766.14.329.39.547.248.222.595.328c.238.07.503.11.796.11q.405-.002.75-.126.357-.14.625-.39Q4-.672 4.141-1c.101-.227.156-.477.156-.75v-3.937Zm0 0" style="stroke:none"/></symbol><symbol id="A" overflow="visible"><path d="M3.438-5.734h-.141q-.72 0-1.266.234a2.4 2.4 0 0 0-.89.656 2.9 2.9 0 0 0-.547 1 4 4 0 0 0-.188 1.25v.422q0 .485.14.906c.095.274.227.508.407.704q.246.299.61.468c.25.114.523.172.828.172q.434 0 .78-.14a1.78 1.78 0 0 0 .985-1.032q.14-.358.14-.781-.001-.388-.109-.734a1.8 1.8 0 0 0-.296-.61 1.5 1.5 0 0 0-.516-.422 1.5 1.5 0 0 0-.703-.156 1.4 1.4 0 0 0-.688.172q-.14.08-.265.172-.11.094-.203.187.029-.341.156-.625a1.8 1.8 0 0 1 .375-.515q.234-.2.562-.313c.22-.07.473-.11.766-.11h.063ZM2.359-2.922q.2 0 .36.078a.8.8 0 0 1 .265.219c.07.094.13.21.172.344q.062.187.063.422c0 .156-.024.304-.063.437a1.2 1.2 0 0 1-.172.328.8.8 0 0 1-.265.219.7.7 0 0 1-.344.078.8.8 0 0 1-.36-.078.66.66 0 0 1-.265-.234.96.96 0 0 1-.187-.391 2 2 0 0 1-.063-.547v-.312a1 1 0 0 1 .14-.22c.051-.062.11-.116.173-.171a.94.94 0 0 1 .546-.172m0 0" style="stroke:none"/></symbol><symbol id="B" overflow="visible"><path d="M4.266 0v-.875H1.78L2.844-2q.279-.294.5-.547a4 4 0 0 0 .39-.515q.17-.249.25-.5.094-.265.094-.547-.001-.357-.125-.672a1.45 1.45 0 0 0-.328-.532 1.55 1.55 0 0 0-.578-.328 2.1 2.1 0 0 0-.75-.125c-.305 0-.578.055-.828.157a1.9 1.9 0 0 0-.64.39c-.18.168-.313.367-.407.594q-.14.33-.14.719h1.077q0-.233.063-.406a.9.9 0 0 1 .172-.313.8.8 0 0 1 .265-.172q.17-.06.391-.062a.8.8 0 0 1 .313.062.6.6 0 0 1 .234.14c.07.075.125.165.156.266q.062.141.063.329a.9.9 0 0 1-.047.28 3 3 0 0 1-.125.282 4 4 0 0 1-.25.36 6 6 0 0 1-.36.421L.391-.75V0Zm0 0" style="stroke:none"/></symbol><symbol id="C" overflow="visible"><path d="M5.281-5.39v-1.016H.125v1.015h1.938V0h1.25v-5.39Zm0 0" style="stroke:none"/></symbol><symbol id="D" overflow="visible"><path d="M5.047-2.734v-.922q0-.436-.094-.828a3 3 0 0 0-.234-.703 2.5 2.5 0 0 0-.344-.532 2.2 2.2 0 0 0-.437-.406 2.3 2.3 0 0 0-.594-.266 2.4 2.4 0 0 0-.688-.093q-.362 0-.672.093-.316.095-.562.266-.253.176-.453.422a2.6 2.6 0 0 0-.328.547q-.142.316-.22.703-.062.375-.062.797v.922q0 .409.063.765.058.346.187.657.123.328.329.593a2.4 2.4 0 0 0 .453.438q.262.175.578.281a2.5 2.5 0 0 0 1.344 0q.31-.076.562-.234.28-.17.5-.438a3 3 0 0 0 .375-.578c.094-.219.164-.445.219-.687q.077-.375.078-.797M3.78-3.672v.938q0 .252-.031.468a2 2 0 0 1-.062.391 1.8 1.8 0 0 1-.172.438.8.8 0 0 1-.235.296A1 1 0 0 1 3-.969a1.2 1.2 0 0 1-.344.047.9.9 0 0 1-.344-.062 1.2 1.2 0 0 1-.265-.157 1.1 1.1 0 0 1-.219-.312 1.7 1.7 0 0 1-.14-.422 2 2 0 0 1-.063-.406 6 6 0 0 1-.016-.453v-.938q-.001-.246.016-.469.014-.216.063-.406.06-.248.156-.437c.07-.125.156-.227.25-.313a.94.94 0 0 1 .562-.172c.125 0 .235.024.328.063a1 1 0 0 1 .266.125c.102.086.191.187.266.312q.106.188.172.422.044.189.062.406.03.223.031.47m0 0" style="stroke:none"/></symbol><symbol id="E" overflow="visible"><path d="M1.89-2.344h.954q.516 0 .937-.14.42-.153.735-.422.28-.263.437-.625.17-.374.172-.813-.001-.452-.172-.828a1.9 1.9 0 0 0-.437-.656 2.5 2.5 0 0 0-.735-.422 2.7 2.7 0 0 0-.937-.156H.656V0h1.235Zm0-1V-5.39h.954q.265.001.453.079a.84.84 0 0 1 .328.234q.123.142.188.344.06.188.062.406-.002.188-.062.375a1 1 0 0 1-.188.312.85.85 0 0 1-.328.22 1.1 1.1 0 0 1-.453.077Zm0 0" style="stroke:none"/></symbol><clipPath id="F"><path d="M0 0h309.543v287.219H0Zm0 0"/></clipPath><clipPath id="b"><path d="M0 0h309.543v287.219H0Zm0 0"/></clipPath><clipPath id="a"><path d="M0 0h310v288H0z"/></clipPath><g id="G" clip-path="url(#a)"><g clip-path="url(#b)"><path d="M7.5 7.5h1175.55v826.891H7.5Zm0 0" style="fill:none;stroke-width:.45;stroke-linecap:round;stroke-linejoin:miter;stroke:#000;stroke-opacity:1;stroke-miterlimit:10" transform="translate(-65.48 -59.528)"/></g><path d="m15.209-29.124.298.103.272.169.224.224.17.272.102.298.037.316v9.284h.695V3.934h-1.133l-.062.007-.06.022-.05.03-.004.003-.004.008-.04.036-.033.056-.015.044-.007.014-.008.063v.566l.008.063.022.062.003.011.03.04.04.041.004.007h.003l.052.034.059.022.062.007h1.133v2.548h-1.133l-.062.011-.06.018-.05.033h-.004l-.004.008-.04.04-.033.052-.022.062-.008.063v.566l.008.063.022.058.003.011.03.044.04.037.004.008.003.003.052.03.059.022.062.007h1.133v1.982H16.3v3.405h-1.136v-3.405h-.71l-.062.011-.06.018-.05.033-.049.048-.033.052-.018.062-.011.063v.85l-.566.565v1.133h-2.269v-.247l-.298.037H9.355v.493H6.52v-.493h-.566v.493H-7.09l-.007-.011-.29-.29-.185-.18-.01-.012h-.538l-.036.037-.033.051-.023.06-.007.062v.57h-2.268l-.004-.008-.563-.562v-.21h-1.985v.21h-2.269v-1.133l-.566-.566V9.603h-1.132V8.471h1.132V6.486l-.004-.063-.022-.059-.037-.055-.044-.044-.051-.033-.063-.022-.062-.008h-.85V3.368h1.133l.062-.008.063-.022.048-.03.048-.047.036-.055.022-.059.004-.063v-.566l-.004-.062-.022-.06-.036-.054-.011-.015-.026-.026-.011-.007-.048-.033-.063-.019-.062-.007h-1.132v-20.693h2.136v-9.284l.037-.316.106-.298.166-.272.224-.224.268-.17.302-.102.316-.037h28.345Zm0 0" style="fill-rule:evenodd;fill:#fff;fill-opacity:1;stroke-width:.534;stroke-linecap:round;stroke-linejoin:miter;stroke:#000;stroke-opacity:1;stroke-miterlimit:10" transform="translate(154.627 234.132)scale(-1.0624)"/><path d="M-17.007 22.413V3.422l-.001-4.385v-.15l2.266-.001.002.152V3.42l5.754.002-.001-.993.003-.282-.002-.283.002-4.537-.002-.246v-.323l1.276.002-.001.566.001 4.534-.001.286.002.283.001.993 4.278-.001v-.99l.002-.286-.002-.283-.001-4.534.001-.566 1.276-.003.001.568-.002 4.537v.28l-.001.286.001.993 4.31-.003v-.99l-.002-.278v-.228l.002-.063-.002-4.534.003-.552-.001-.014 1.276-.003v.569L3.43 1.864v.28l-.001.285v.993l4.28.002.003-.995-.003-.278v-.006l.001-.22v-4.599l-.001-.55.002-.016 1.275.002-.001.566.001 4.534-.001.285.002.284-.001.99 5.755.002-.002-4.386.003-.146v-.005l2.266-.002v.154l-.001 4.382-.001 2.269.002 16.725h-2.837l.002 2.552-4.817-.002h-.993l-.425-.423-.003-2.41H-7.938l.002 2.41-.426.421-.993.001h-4.82l.002-2.548Zm0 0" style="fill-rule:evenodd;fill:#fff;fill-opacity:1;stroke-width:.534;stroke-linecap:round;stroke-linejoin:miter;stroke:#000;stroke-opacity:1;stroke-miterlimit:10" transform="rotate(218 117.584 -5.135)scale(1.0624)"/><path d="M-17.009 22.414V-.96l.002-.155h2.268l-.002.154v4.38l5.755.001-.001-.993.002-.565-.002-4.536v-.246l.003-.109v-.21h1.275l-.002.565.001 4.536v.283l.002.283-.003.992h4.283l-.001-.992-.002-.284v-.283l.002-4.535v-.566h1.275v5.101l.002.284-.002.283.001.992 4.306.002.002-.992v-.28l-.001-.007.001-.219v-.064l-.002-4.536.003-.55v-.016H3.43l.001.567L3.43 1.86v.57l-.001.988 4.282.004-.001-.993v-.279l.001-.003-.001-.223v-5.166h1.275l.002.566-.002 4.536.002.287-.002.283.001.992 5.756-.003v-4.528l-.003-.005h2.268v.15l.002 4.386-.003 2.267.003 16.725-2.837-.002v2.55l-4.82.001-.992.001-.422-.426-.003-2.408H-7.936l-.001 2.407-.427.426-.989.002h-4.819l-.002-2.554Zm0 0" style="fill-rule:evenodd;fill:#fff;fill-opacity:1;stroke-width:.534;stroke-linecap:round;stroke-linejoin:miter;stroke:#000;stroke-opacity:1;stroke-miterlimit:10" transform="rotate(167 64.08 30.539)scale(1.0624)"/><path d="M-17.008 22.415V-.962l-.001-.15 2.267-.003.002.154V3.42h5.754l.001-.993-.002-.565.002-4.536v-.246l-.003-.108v-.212h1.276l.002.566-.001 4.536.002.565-.001.993h4.28V2.146l.002-.283-.002-4.536.001-.566h1.275V1.86l-.002.284.002.283-.001.992 4.31.002V1.923l-.002-.06.002-4.536v-.554l.001-.012h1.276l-.002.566-.002 4.536.003.566-.001.993h4.279l.001-.992v-.28l-.001-.003.001-.223.001-.06-.001-4.536v-.566h1.276l-.001.566.002 4.535-.003.284.001.283v.992h5.754v-4.528l.002-.008h2.268l-.003.152.001 4.385.003 2.267-.003 16.725-2.834-.002v2.55h-4.82l-.991.003-.427-.426.003-2.408-15.876-.003.002 2.41-.426.427h-.993l-4.819-.001v-2.551Zm0 0" style="fill-rule:evenodd;fill:#fff;fill-opacity:1;stroke-width:.534;stroke-linecap:round;stroke-linejoin:miter;stroke:#000;stroke-opacity:1;stroke-miterlimit:10" transform="rotate(193 90.827 12.868)scale(1.0624)"/><path d="M1.702 14.174v-28.348h10.77v-12.189H40.82v52.726H12.472V14.174Zm0 0" style="fill-rule:evenodd;fill:#fff;fill-opacity:1;stroke-width:.534;stroke-linecap:round;stroke-linejoin:miter;stroke:#000;stroke-opacity:1;stroke-miterlimit:10" transform="translate(47.71 189.691)scale(1.0624)"/><path d="M1.7 14.174v-28.348h10.773v-12.19l28.345.001v52.726H12.473v-12.19Zm0 0" style="fill-rule:evenodd;fill:#fff;fill-opacity:1;stroke-width:.534;stroke-linecap:round;stroke-linejoin:miter;stroke:#000;stroke-opacity:1;stroke-miterlimit:10" transform="translate(261.53 189.691)scale(-1.0624)"/><path d="M828.813 1122.703h.004l1.427-.055h.003l5.791-.504 5.762-.787 5.714-1.066h.003l5.66-1.338.003-.004 5.577-1.61h.004l5.5-1.883 5.406-2.144h.003l5.288-2.404h.003l5.17-2.662h.004l.003-.004 5.026-2.9h.004v-.005l4.887-3.143h.003l4.729-3.383 4.552-3.596 3.375-3.103.095-.08.096-.078.1-.074.102-.07.107-.062.107-.059.11-.055.114-.051.114-.045.004-.003.21-.188.606-.562.603-.563.603-.57.595-.573.592-.581.589-.581.584-.585.581-.592.577-.592.57-.6.57-.602.563-.607.559-.606.559-.615.547-.617.548-.622.544-.625.537-.628.052-.06.003-.01.056-.11.058-.107.067-.107.066-.103.073-.099.081-.096 1.026-1.213.007-.011.004-.004 3.563-4.596 3.335-4.761 3.1-4.92h.003l2.857-5.06v-.003l2.61-5.195 2.354-5.317h.003l2.092-5.423 1.831-5.519v-.004l1.56-5.596v-.003l1.286-5.67 1.011-5.725v-.004l.729-5.761v-.004h.003-.003.003l.449-5.798.169-5.81-.11-5.816v-.004l-.394-5.79v-.008l-.676-5.77v-.003l-.953-5.736-1.231-5.684v-.004l-1.504-5.607v-.004l-1.776-5.537-2.04-5.445-2.302-5.339-.004-.004-2.555-5.213v-.004l-.004-.004-2.806-5.085v-.003l-3.051-4.95h-.004l-3.287-4.794-3.478-4.578-1.71-1.754-.085-.088-.154-.191-.074-.103-.066-.103-.062-.107-.06-.11-.05-.11-.052-.114-.04-.114-.04-.118-.034-.121-.051-.243-.008-.073-.08-.089-.541-.628-.544-.622-.548-.621-.555-.614-1.118-1.22-.566-.604-.574-.6-.574-.595-.577-.592-.584-.588-.585-.585-.592-.577-.596-.577-.595-.574-.603-.566-.607-.562-.088-.078-.055-.018-.114-.044-.114-.048-.114-.055-.107-.055-.213-.133-.1-.07-.099-.077-.092-.08-2.798-2.49v-.004h-.003l-4.52-3.647h-.003l-4.695-3.427h-.004l-.004-.003-4.85-3.192h-.003v-.004l-5.004-2.952h-.004l-5.144-2.71-5.269-2.46-5.382-2.198h-.004l-5.475-1.934h-.007v-.004l-5.563-1.662-.004-.004-5.644-1.393-.003-.004-5.7-1.118h-.003l-3.442-.503-.338.426-.018.022-.081.103-.11.11-1.504 1.508-.022.018-.092.092-.1.081-.022.018-.948.758-.714.57-.022.018-.099.081-.11.07-.026.015-1.798 1.136-.022.015-.11.07-.118.058-.026.011-1.912.93-.025.011-.118.056-.125.044-.026.01-2.004.71-.025.008-.125.044-.125.03-.026.007-2.074.481-.026.008-.128.03-.129.014-.03.003-2.11.25h-.026l-.132.015-.129.004h-.03l-2.124.01h-.158l-.133-.014h-.026l-2.114-.224-.03-.004-.128-.014-.129-.03-.025-.004-2.078-.46-.025-.007-.13-.025-.124-.044-.026-.008-2.011-.687-.026-.011-.125-.04-.117-.056-.026-.011-1.923-.908-.026-.011-.118-.055-.11-.07-.026-.015-1.809-1.114-.025-.015-.11-.07-.104-.08-.022-.015-.893-.699-.783-.614-.019-.014-.103-.081-.095-.092-.019-.019-1.518-1.489-.022-.018-.092-.092-.085-.103-.014-.022-.508-.618-3.485.511h-.004l-5.7 1.118-.003.004-5.644 1.393-.003.004-5.563 1.665h-.008l-5.475 1.934h-.003l-5.383 2.2-5.269 2.459h-.004l-5.136 2.706-.004.004h-.004l-5.004 2.952v.004h-.003l-4.85 3.191-.004.004h-.003l-4.696 3.427h-.003v.004l-4.52 3.643-.003.004-.007.004-.026.025-2.798 2.409-.096.077-.099.073-.1.07-.106.067-.106.062-.11.055-.115.052-.014.007-.262.239-.606.563-.603.57-.6.57-.595.577-.588.577-.589.584-.58.589-.582.592-.573.595-.57.6-.566.603-.563.61-.559.61-.551.614-.552.618-.544.625-.54.625-.052.063-.004.018-.036.118-.04.114-.049.117-.051.11-.055.111-.063.107-.066.106-.07.1-.073.099-.081.095-1.945 2.243-3.512 4.626-3.29 4.794v.004l-3.049 4.942v.003h-.003v.004l-2.806 5.085v.004h-.003v.003l-2.556 5.214v.004h-.003l-2.302 5.339-2.04 5.445-1.777 5.537v.004l-1.503 5.61-1.232 5.685-.952 5.736v.004l-.673 5.768v.004h-.004.004-.004v.004l-.393 5.79v.008l-.11 5.813.168 5.81.453 5.798v.004l.731 5.761v.004l1.008 5.725v.003l1.287 5.666v.004-.004.004l1.559 5.596v.004l1.83 5.519 2.096 5.423 2.354 5.317.003.003 2.607 5.188v.004l.004.004 2.853 5.059h.004l3.1 4.92 3.334 4.761 3.563 4.596.011.011.077.096.894 1.154.536.633.537.628.54.625.549.622.551.618.555.614.56.61.562.607 1.14 1.198.577.596.58.588.585.589.589.58.592.578.595.573.6.57.606.566.607.563.5.452.1.07.099.077.095.078 3.699 3.195.007.007v.004l4.563 3.603 4.732 3.383.004.003 4.88 3.14h.003v.004l5.037 2.905 5.17 2.662 5.294 2.404h.004l5.398 2.144h.003l5.5 1.883h.004v.003l5.578 1.607.004.004h.004l5.654 1.338h.004l5.714 1.066 5.761.787 5.791.504h.004l1.427.055h.003v-1.96l.004-.055v-.015l.007-.14v-.021l.004-.022.004-.04v-.038l.004-.025.003-.022.004-.037.004-.04.007-.045.007-.04.004-.037.007-.022.004-.022.059-.305.007-.033.03-.118.007-.033.015-.059.01-.03.008-.029.011-.03.007-.029.033-.088.012-.026.022-.058.106-.258.011-.026.015-.029.011-.03.011-.025.03-.059.014-.026.011-.03.03-.05.014-.03.019-.026.014-.025.015-.03.018-.026.015-.025.019-.026.014-.026.155-.228.018-.026.015-.025.055-.077.018-.023.022-.025.019-.026.018-.022.019-.026.022-.022.018-.022.022-.026.022-.022.018-.022.35-.35.026-.017.022-.023.022-.018.025-.022.022-.018.026-.022.022-.019.052-.037.022-.018.077-.055.026-.015.228-.154.03-.019.025-.014.026-.019.051-.03.026-.018.03-.014.05-.03.03-.014.026-.015.03-.015.025-.01.03-.015.029-.012.026-.014.058-.022.254-.107.118-.044.025-.011.03-.011.033-.011.026-.007.03-.012.032-.007.03-.007.029-.011.118-.03.033-.003.03-.008.304-.062.045-.008.04-.007.037-.004.022-.003.026-.004.036-.004.037-.007h.026l.022-.004.04-.003.037-.004h.048l.136-.007h.007l.008-.004h3.882l.008.004h.007l.14.007h.044l.04.004.037.003.022.004h.026l.037.007.04.004.044.007.037.004.04.007.045.008.305.062.033.008.03.003.117.03.033.01.059.015.03.012.029.007.088.033.026.011.088.033.254.107.058.022.03.014.026.012.029.014.026.011.03.015.025.015.03.014.025.015.03.015.025.014.026.019.026.015.03.014.025.019.026.014.025.019.228.154.026.015.103.073.022.019.051.037.023.022.025.018.022.022.022.018.026.023.022.018.372.371.018.022.022.026.018.022.022.022.019.026.018.022.022.026.019.025.018.023.055.077.015.025.018.026.155.228.018.026.015.026.018.025.015.026.015.03.018.025.015.026.014.03.03.05.015.03.01.026.03.059.011.026.015.03.01.028.012.026.106.258.011.029.011.026.045.117.007.03.01.03.008.029.011.03.015.058.007.033.011.03.004.029.015.059.007.033.059.305.007.022.004.022.004.037.007.04.007.044.004.04.007.038v.022l.004.025.004.037.003.04v.045l.008.14v.014l.003.055v1.96m16.848-211.961-.566-.077-.497-.284-.349-.455-.15-.552.076-.566.14-.25.49-.622 1.154-1.084 1.301-.897 1.42-.699 1.507-.478 1.563-.25 1.58-.015 1.57.22 1.516.453 1.434.673 1.316.875 1.173 1.063.5.614.073.088.114.202.081.22.048.229.004.114.003.224-.121.427-.246.367-.35.276-.419.158-.441.018-.43-.114-.375-.242-.14-.173-.368-.42-.827-.757-.93-.628-1.008-.49-1.066-.338-1.107-.183-1.121-.019-1.11.14-1.081.301-1.023.453-.952.595-.853.728-.382.408-.144.247-.456.35-.551.15m-52.108.051-1.585-.014-1.562-.25-1.508-.478-1.42-.695-1.3-.901-1.152-1.085-.492-.621-.14-.247-.077-.57.15-.551.35-.456.496-.283.566-.077.552.15.456.35.143.246.383.408.856.728.949.596 1.022.452 1.081.302 1.11.14 1.122-.019 1.107-.18 1.066-.342 1.011-.49.927-.628.827-.754.368-.422.143-.173.371-.243.43-.114.445.022.416.155.35.275.246.368.12.427-.003.224-.003.114-.048.231-.081.217-.114.203-.074.088-.5.614-1.173 1.062-1.316.876-1.434.672-1.515.453Zm0 0" style="fill-rule:evenodd;fill:#fff;fill-opacity:1;stroke-width:1.334;stroke-linecap:round;stroke-linejoin:miter;stroke:#000;stroke-opacity:1;stroke-miterlimit:10" transform="translate(1028.692 1203.766)scale(-1.0624)"/><path d="M925.72 954.514a2.357 2.357 0 1 1-4.714 0 2.357 2.357 0 0 1 4.714 0ZM880.363 954.514a2.354 2.354 0 1 1-4.71 0 2.357 2.357 0 0 1 4.022-1.665c.441.441.688 1.04.688 1.665ZM769.812 954.514a2.354 2.354 0 1 1-4.71 0 2.357 2.357 0 0 1 2.357-2.353 2.35 2.35 0 0 1 2.353 2.353ZM724.458 954.514a2.356 2.356 0 1 1-4.712.002 2.356 2.356 0 0 1 4.712-.002ZM882.348 905.26a3.276 3.276 0 1 1-6.553-.001 3.276 3.276 0 0 1 6.553 0ZM882.348 1100.425a3.276 3.276 0 1 1-6.553 0 3.276 3.276 0 0 1 6.553 0ZM713.332 1002.842a3.276 3.276 0 1 1-6.553 0 3.276 3.276 0 0 1 6.553 0Zm0 0" style="fill-rule:evenodd;fill:#fff;fill-opacity:1;stroke-width:.534;stroke-linecap:round;stroke-linejoin:miter;stroke:#000;stroke-opacity:1;stroke-miterlimit:10" transform="translate(1028.692 1203.766)scale(-1.0624)"/><path d="M-2.95 1.172v-.71l.103-.011.103-.04.088-.06.07-.08.048-.096.026-.103v-.106l-.026-.103-.048-.096-.07-.077-.088-.063-.103-.036-.103-.015v-.706h.088v-.136h5.67v.136h.088v.706L2.79-.41l-.1.036-.088.063-.07.077-.051.096-.026.103v.106l.026.103.051.096.07.08.088.06.1.04.106.011v.71h-.088v.132h-5.67v-.132Zm0 0" style="fill-rule:evenodd;fill:#fff;fill-opacity:1;stroke-width:.534;stroke-linecap:round;stroke-linejoin:miter;stroke:#000;stroke-opacity:1;stroke-miterlimit:10" transform="matrix(0 1.0624 1.0624 0 147.091 243.751)"/><g style="fill:#000;fill-opacity:1"><use xlink:href="#c" x="143.715" y="250.475"/><use xlink:href="#d" x="143.715" y="245.974"/><use xlink:href="#e" x="143.715" y="241.474"/></g><path d="M-2.95 1.169V.463l.103-.011.103-.04.088-.06.07-.08.048-.096.026-.103v-.106l-.026-.107-.048-.092-.07-.08-.088-.063-.103-.037-.103-.011v-.71h.088v-.132h5.67v.132h.088v.71l-.106.01-.1.038-.088.062-.07.081-.051.092-.026.107v.106l.026.103.051.096.07.08.088.06.1.04.106.01v.71h-.088v.133h-5.67v-.136Zm0 0" style="fill-rule:evenodd;fill:#fff;fill-opacity:1;stroke-width:.534;stroke-linecap:round;stroke-linejoin:miter;stroke:#000;stroke-opacity:1;stroke-miterlimit:10" transform="matrix(0 1.0624 1.0624 0 162.149 243.751)"/><g style="fill:#000;fill-opacity:1"><use xlink:href="#c" x="158.773" y="250.475"/><use xlink:href="#d" x="158.773" y="245.974"/><use xlink:href="#f" x="158.773" y="241.474"/></g><path d="M-4.393 3.686v-7.372h8.788v7.372Zm0 0" style="fill-rule:evenodd;fill:#fff;fill-opacity:1;stroke-width:.534;stroke-linecap:round;stroke-linejoin:miter;stroke:#000;stroke-opacity:1;stroke-miterlimit:10" transform="matrix(1.0624 0 0 -1.0624 154.62 143.467)"/><g style="fill:#000;fill-opacity:1"><use xlink:href="#g" x="140.94" y="146.381"/><use xlink:href="#h" x="145.441" y="146.381"/></g><path d="M-2.835 2.835v-5.668l5.668-.001h.36l.001 5.669h-5.668Zm0 0" style="fill-rule:evenodd;fill:#fff;fill-opacity:1;stroke-width:.534;stroke-linecap:round;stroke-linejoin:miter;stroke:#000;stroke-opacity:1;stroke-miterlimit:10" transform="rotate(120 57.324 148.8)scale(1.0624 -1.0624)"/><g style="fill:#000;fill-opacity:1"><use xlink:href="#i" x="207.01" y="177.047"/><use xlink:href="#j" x="209.26" y="173.15"/><use xlink:href="#k" x="211.511" y="169.252"/></g><path d="M-2.835 2.834v-5.669l5.669.001h.36v5.668h-5.669Zm0 0" style="fill-rule:evenodd;fill:#fff;fill-opacity:1;stroke-width:.534;stroke-linecap:round;stroke-linejoin:miter;stroke:#000;stroke-opacity:1;stroke-miterlimit:10" transform="rotate(60 19.049 235.004)scale(1.0624 -1.0624)"/><g style="fill:#000;fill-opacity:1"><use xlink:href="#l" x="214.131" y="92.8"/><use xlink:href="#m" x="216.381" y="96.698"/><use xlink:href="#n" x="218.631" y="100.595"/></g><path d="M-2.834 2.835v-5.67h6.03v5.67Zm0 0" style="fill-rule:evenodd;fill:#fff;fill-opacity:1;stroke-width:.534;stroke-linecap:round;stroke-linejoin:miter;stroke:#000;stroke-opacity:1;stroke-miterlimit:10" transform="matrix(1.0624 0 0 -1.0624 154.62 69.083)"/><g style="fill:#000;fill-opacity:1"><use xlink:href="#o" x="148.058" y="64.039"/><use xlink:href="#p" x="152.559" y="64.039"/><use xlink:href="#q" x="157.059" y="64.039"/></g><path d="m-2.834 2.835-.001-5.668 5.668-.001h.361v5.668l-5.668.001Zm0 0" style="fill-rule:evenodd;fill:#fff;fill-opacity:1;stroke-width:.534;stroke-linecap:round;stroke-linejoin:miter;stroke:#000;stroke-opacity:1;stroke-miterlimit:10" transform="rotate(120 16.791 79.811)scale(-1.0624 1.0624)"/><g style="fill:#000;fill-opacity:1"><use xlink:href="#r" x="86.656" y="108.336"/><use xlink:href="#s" x="88.907" y="104.439"/><use xlink:href="#t" x="91.157" y="100.541"/></g><path d="M-2.835 2.834v-5.668h6.03v5.669l-5.67-.001Zm0 0" style="fill-rule:evenodd;fill:#fff;fill-opacity:1;stroke-width:.534;stroke-linecap:round;stroke-linejoin:miter;stroke:#000;stroke-opacity:1;stroke-miterlimit:10" transform="rotate(-120 97.444 59.284)scale(1.0624 -1.0624)"/><g style="fill:#000;fill-opacity:1"><use xlink:href="#u" x="95.72" y="164.78"/><use xlink:href="#v" x="97.971" y="168.677"/><use xlink:href="#w" x="100.221" y="172.575"/></g><path d="M191.754 247.402h-9.035v9.036h9.035ZM183.324 256.129l.086.008M183.242 256.098l.082.03M183.168 256.055l.074.043M183.105 255.988l.063.067M183.059 255.914l.046.074M183.027 255.832l.032.082M183.02 255.746l.007.086M183.02 248.098l.007-.09M183.027 248.008l.032-.078M183.059 247.93l.046-.078M183.105 247.852l.063-.063M183.168 247.79l.074-.048M183.242 247.742l.082-.027M183.324 247.715l.086-.012M191.063 247.703l.085.012M191.148 247.715l.082.027M191.23 247.742l.075.047M191.305 247.79l.062.062M191.367 247.852l.047.078M191.414 247.93l.027.078M191.441 248.008l.012.09M191.441 255.832l.012-.086M191.414 255.914l.027-.082M191.367 255.988l.047-.074M191.305 256.055l.062-.067M191.23 256.098l.075-.043M191.148 256.129l.082-.031M191.063 256.137l.085-.008M184.3 249.043l.09.031M184.21 249.008l.09.035M184.031 248.945l.18.063M183.867 248.887l.164.058M183.723 248.836l.144.05M183.625 248.8l.098.036M183.566 248.781l.059.02M183.547 248.773l.02.008M184.09 248.23l.004.016M184.094 248.246l.02.055M184.113 248.3l.035.102M184.148 248.402l.051.141M184.2 248.543l.062.168M184.262 248.71l.066.185M184.328 248.895l.063.18M184.3 254.8l.09-.034M184.21 254.832l.09-.031M184.031 254.895l.18-.063M183.867 254.953l.164-.058M183.723 255.004l.144-.05M183.625 255.043l.098-.04M183.566 255.063l.059-.02M183.547 255.066l.02-.004M190.375 248.246l.008-.016M190.36 248.3l.015-.054M190.324 248.402l.035-.101M190.273 248.543l.051-.14M190.21 248.71l.063-.167M190.145 248.895l.066-.184M190.082 249.074l.063-.18M184.355 254.855l.036-.09M184.324 254.95l.031-.095M184.262 255.125l.062-.176M184.203 255.293l.059-.168M184.152 255.434l.051-.141M184.117 255.531l.035-.097M184.094 255.594l.023-.063M184.09 255.61l.004-.016M190.91 248.781l.016-.008M190.855 248.797l.055-.016M190.758 248.836l.097-.04M190.613 248.887l.145-.051M190.445 248.945l.168-.058M190.262 249.012l.183-.067M190.082 249.074l.18-.062M190.91 255.063l.016.003M190.855 255.043l.055.02M190.758 255.008l.097.035M190.613 254.957l.145.05M190.445 254.895l.168.062M190.262 254.832l.183.063M190.082 254.766l.18.066M190.082 254.766l.031.09M190.113 254.855l.035.094M190.148 254.95l.063.175M190.21 255.125l.06.168M190.27 255.293l.05.14M190.32 255.434l.035.097M190.355 255.531l.02.063M190.375 255.594l.008.015M189.555 250.242l.015-.129M189.508 250.36l.047-.118M189.438 250.465l.07-.106M189.34 250.547l.097-.082M189.23 250.61l.11-.063M189.105 250.637l.125-.028M188.855 250.61l.125.027M188.746 250.547l.11.062M188.648 250.465l.098.082M188.574 250.36l.074.105M188.531 250.242l.043.117M188.516 250.113l.015.13M183.969 248.246l.12-.016M183.855 248.285l.114-.039M183.75 248.348l.105-.063M183.664 248.438l.086-.09M183.602 248.54l.062-.102M183.563 248.652l.039-.113M183.547 248.773l.016-.12M190.91 248.652l.016.121M190.871 248.54l.04.112M190.809 248.438l.062.101M190.719 248.348l.09.09M190.617 248.285l.102.063M190.504 248.246l.113.04M190.383 248.23l.12.016M190.383 255.61l.12-.016M190.504 255.594l.113-.04M190.617 255.555l.102-.063M190.719 255.492l.09-.086M190.809 255.406l.062-.101M190.871 255.305l.04-.118M190.91 255.188l.016-.122M183.547 255.066l.016.121M183.563 255.188l.039.117M183.602 255.305l.062.101M183.664 255.406l.086.086M183.75 255.492l.105.063M183.855 255.555l.114.039M183.969 255.594l.12.015M183.246 248.773l.02-.187M183.266 248.586l.062-.176M183.328 248.41l.102-.164M183.43 248.246l.132-.133M183.563 248.113l.16-.097M183.723 248.016l.18-.063M183.902 247.953l.188-.023M190.383 247.93l.187.023M190.57 247.953l.176.063M190.746 248.016l.164.097M190.91 248.113l.133.133M191.043 248.246l.098.164M191.14 248.41l.067.176M191.207 248.586l.02.187M191.207 255.254l.02-.188M191.14 255.434l.067-.18M191.043 255.594l.098-.16M190.91 255.727l.133-.133M190.746 255.828l.164-.101M190.57 255.89l.176-.062M190.383 255.91l.187-.02M183.902 255.89l.188.02M183.723 255.828l.18.063M183.563 255.727l.16.101M183.43 255.594l.132.133M183.328 255.434l.102.16M183.266 255.254l.062.18M183.246 255.066l.02.188M188.516 250.113l.015-.125M188.531 249.988l.043-.117M188.574 249.871l.074-.105M188.648 249.766l.098-.086M188.746 249.68l.11-.059M188.855 249.621l.125-.031M189.105 249.59l.125.031M189.23 249.621l.11.059M189.34 249.68l.097.086M189.438 249.766l.07.105M189.508 249.871l.047.117M189.555 249.988l.015.125" style="stroke:none;fill-rule:evenodd;fill:#fff;fill-opacity:1"/><path d="M4.253 4.253h-8.505V-4.25h8.505ZM-3.601-3.968h7.203M-3.682-3.96l.08-.008M-3.76-3.931l.078-.03M-3.829-3.89l.07-.041M-3.888-3.828l.059-.063M-3.932-3.758l.044-.07M-3.961-3.681l.029-.077M-3.969-3.6l.008-.081M-3.969 3.599v-7.2M-3.969 3.599l.008.084M-3.961 3.683l.029.074M-3.932 3.757l.044.074M-3.888 3.83l.059.06M-3.829 3.89l.07.043M-3.76 3.933l.078.026M-3.682 3.96l.08.01M-3.601 3.97h7.203M3.602 3.97l.08-.01M3.683 3.96l.077-.027M3.76 3.933l.07-.044M3.83 3.89l.059-.06M3.889 3.83l.044-.073M3.933 3.757l.025-.074M3.958 3.683 3.97 3.6M3.97-3.6v7.199M3.958-3.681l.011.08M3.933-3.758l.025.077M3.889-3.828l.044.07M3.83-3.89l.059.062M3.76-3.931l.07.04M3.683-3.96l.077.029M3.602-3.968l.08.007M-2.763 2.71l.085-.03M-2.847 2.742l.084-.033M-3.016 2.801l.169-.059M-3.17 2.856l.154-.055M-3.307 2.904l.136-.048M-3.399 2.937l.092-.033M-3.454 2.955l.055-.018M-3.472 2.963l.018-.008M-2.961 3.474l.003-.015M-2.958 3.46l.019-.052M-2.94 3.408l.034-.096M-2.906 3.312l.048-.132M-2.858 3.18l.058-.158M-2.8 3.022l.063-.173M-2.737 2.849l.059-.17M-2.763-2.71l.085.033M-2.847-2.74l.084.03M-3.016-2.799l.169.06M-3.17-2.854l.154.055M-3.307-2.902l.136.048M-3.399-2.938l.092.036M-3.454-2.957l.055.019M-3.472-2.96l.018.003M2.955 3.46l.007.014M2.94 3.408l.015.051M2.907 3.312l.033.096M2.86 3.18l.047.132M2.8 3.022l.06.158M2.738 2.849l.062.173M2.679 2.68l.059.169M-2.711-2.762l.033.085M-2.74-2.85l.029.088M-2.8-3.016l.06.166M-2.855-3.174l.055.158M-2.902-3.306l.047.132M-2.936-3.398l.034.092M-2.958-3.457l.022.059M-2.961-3.472l.003.015M3.458 2.955l.015.008M3.407 2.94l.051.015M3.315 2.904l.092.037M3.179 2.856l.136.048M3.02 2.801l.159.055M2.848 2.739l.173.062M2.679 2.68l.17.059M3.458-2.957l.015-.004M3.407-2.938l.051-.019M3.315-2.905l.092-.033M3.179-2.858l.136-.047M3.02-2.799l.159-.059M2.848-2.74l.173-.059M2.679-2.677l.17-.063M2.679-2.677l.03-.085M2.708-2.762l.033-.088M2.741-2.85l.06-.166M2.8-3.016l.055-.158M2.855-3.174l.048-.132M2.903-3.306l.033-.092M2.936-3.398l.019-.059M2.955-3.457l.007-.015M2.183 1.58l.014.122M2.138 1.47l.045.11M2.072 1.37l.066.1M1.98 1.294l.092.077M1.877 1.235l.103.059M1.76 1.209l.117.026M1.642 1.209h.118M1.524 1.235l.118-.026M1.421 1.294l.103-.06M1.33 1.37l.091-.076M1.26 1.47l.07-.1M1.22 1.58l.04-.11M1.205 1.702l.014-.122M-3.472-2.96v5.923M-3.075 3.46l.114.014M-3.182 3.422l.107.037M-3.281 3.364l.1.058M-3.362 3.279l.08.085M-3.42 3.183l.058.096M-3.458 3.077l.037.106M-3.472 2.963l.014.114M-2.961 3.474h5.923M3.458 3.077l.015-.114M3.422 3.183l.036-.106M3.363 3.279l.059-.096M3.278 3.364l.085-.085M3.183 3.422l.095-.058M3.076 3.46l.107-.038M2.962 3.474l.114-.015M3.473-2.96v5.923M2.962-3.472l.114.015M3.076-3.457l.107.037M3.183-3.42l.095.059M3.278-3.361l.085.08M3.363-3.28l.059.095M3.422-3.185l.036.11M3.458-3.075l.015.114M-2.961-3.472h5.923M-3.472-2.96l.014-.115M-3.458-3.075l.037-.11M-3.42-3.185l.058-.095M-3.362-3.28l.08-.081M-3.281-3.361l.1-.06M-3.182-3.42l.107-.037M-3.075-3.457l.114-.015M-3.756-2.96v5.923M-3.756 2.963l.019.176M-3.737 3.14l.059.165M-3.678 3.305l.095.154M-3.583 3.46l.125.124M-3.458 3.584l.151.092M-3.307 3.676l.17.059M-3.138 3.735l.177.022M-2.961 3.757h5.923M2.962 3.757l.177-.022M3.139 3.735l.165-.059M3.304 3.676l.154-.092M3.458 3.584l.125-.125M3.583 3.46l.092-.155M3.675 3.305l.063-.166M3.738 3.14l.018-.177M3.756-2.96v5.923M3.738-3.137l.018.176M3.675-3.306l.063.169M3.583-3.457l.092.15M3.458-3.582l.125.125M3.304-3.678l.154.096M3.139-3.736l.165.058M2.962-3.755l.177.019M-2.961-3.755h5.923M-3.138-3.736l.177-.019M-3.307-3.678l.17-.058M-3.458-3.582l.151-.096M-3.583-3.457l.125-.125M-3.678-3.306l.095-.15M-3.737-3.137l.059-.17M-3.756-2.96l.019-.177M1.205 1.702l.014.117M1.22 1.82l.04.11M1.26 1.93l.07.099M1.33 2.029l.091.08M1.421 2.11l.103.055M1.524 2.165l.118.03M1.642 2.194h.118M1.76 2.194l.117-.03M1.877 2.165l.103-.055M1.98 2.11l.092-.081M2.072 2.029l.066-.1M2.138 1.93l.045-.11M2.183 1.82l.014-.118M4.253 4.253V-4.25M-4.252-4.251h8.505M-4.252 4.253V-4.25M-4.252 4.253h8.505M2.962 3.474v.007M2.962 3.5V3.48M2.962 3.536V3.5M2.962 3.58v-.044M2.962 3.636V3.58M2.962 3.695v-.06M2.962 3.757v-.062M3.694 2.963h.062M3.635 2.963h.059M3.58 2.963h.055M3.536 2.963h.044M3.503 2.963h.033M3.48 2.963h.023M3.473 2.963h.007M-2.961 3.481v-.007M-2.961 3.5V3.48M-2.961 3.536V3.5M-2.961 3.58v-.044M-2.961 3.636V3.58M-2.961 3.694v-.058M-2.961 3.694v.063M3.694-2.96h.062M3.635-2.96h.059M3.58-2.96h.055M3.536-2.96h.044M3.503-2.96h.033M3.48-2.96h.023M3.473-2.96h.007M-3.48 2.963h.008M-3.502 2.963h.022M-3.535 2.963h.033M-3.579 2.963h.044M-3.634 2.963h.055M-3.693 2.963h.059M-3.756 2.963h.063M2.962-3.755v.063M2.962-3.633v-.06M2.962-3.582v-.051M2.962-3.534v-.048M2.962-3.501v-.033M2.962-3.483V-3.5M2.962-3.472v-.01M-3.48-2.96h.008M-3.502-2.96h.022M-3.535-2.96h.033M-3.579-2.96h.044M-3.634-2.96h.055M-3.693-2.96h.059M-3.756-2.96h.063M-2.961-3.692v-.063M-2.961-3.633v-.06M-2.961-3.582v-.051M-2.961-3.534v-.048M-2.961-3.501v-.033M-2.961-3.483V-3.5M-2.961-3.472v-.01M-2.678-2.677h5.357M-2.678 2.68v-5.357M-2.678 2.68h5.357M2.679 2.68v-5.357" style="fill:none;stroke-width:.534;stroke-linecap:round;stroke-linejoin:miter;stroke:#000;stroke-opacity:1;stroke-miterlimit:10" transform="matrix(1.0624 0 0 -1.0624 187.236 251.921)"/><g style="fill:#000;fill-opacity:1"><use xlink:href="#x" x="191.761" y="254.835"/><use xlink:href="#y" x="196.261" y="254.835"/></g><path d="M-21.26 2.764v-4.677h.367l.173.17v-2.155h.338v.033l.081-.026.118-.007.117.022.052.022v-.044h.57v-.283h.566v-.144h.338v.144h.795v-.85h35.488v.85h.794v-.144h.342v.144h.567v.283h.566v.044l.055-.022.114-.022.121.007.078.026v-.033h.342v2.155l.169-.17h.367v4.677h-1.415V4.18H18.03v.71h-.342v-.71h-1.36v.71h-.342v-.71h-1.36v.71h-.339v-.71h-1.36v.71h-.342v-.71h-1.36v.71h-.339v-.71h-1.36v.71h-.342v-.71h-1.36v.71h-.34v-.71h-1.36v.71h-.341v-.71h-1.36v.71H4.08v-.71H2.72v.71H2.38v-.71h-1.36v.71H.68v-.71H-.68v.71h-.339v-.71h-1.36v.71h-.342v-.71h-1.36v.71h-.339v-.71h-1.36v.71h-.342v-.71h-1.36v.71h-.342v-.71h-1.36v.71h-.34v-.71h-1.36v.71h-.341v-.71h-1.36v.71h-.34v-.71h-1.36v.71h-.342v-.71h-1.36v.71h-.338v-.71h-1.36v.71h-.343v-.71h-1.812V2.764Zm0 0" style="fill-rule:evenodd;fill:#fff;fill-opacity:1;stroke-width:.534;stroke-linecap:round;stroke-linejoin:miter;stroke:#000;stroke-opacity:1;stroke-miterlimit:10" transform="matrix(-1.0624 0 0 1.0624 154.62 129.313)"/><g style="fill:#000;fill-opacity:1"><use xlink:href="#z" x="123.022" y="132.151"/><use xlink:href="#A" x="127.522" y="132.151"/></g><path d="m2.105-3.335.059.018.051.033.048.048.033.052.018.059.011.062.004-.062.022-.06.037-.05.044-.049.051-.033.063-.018.062-.011H5.3l.062.011.06.018.054.033.045.048.036.052.019.059.007.062v6.126l-.007.062-.019.063-.036.047-.045.048-.055.033-.059.022-.062.008H2.608l-.062-.008-.063-.022-.051-.033-.044-.048-.037-.047-.022-.063-.004-.062-.01.062-.02.063-.032.047-.048.048-.051.033-.06.022-.062.008H-5.3l-.063-.008-.062-.022-.052-.033-.044-.048-.033-.047-.026-.063-.003-.062v-6.126l.003-.062.026-.06.033-.05.044-.049.052-.033.062-.018.063-.011h7.342Zm0 0" style="fill-rule:evenodd;fill:#fff;fill-opacity:1;stroke-width:.534;stroke-linecap:round;stroke-linejoin:miter;stroke:#000;stroke-opacity:1;stroke-miterlimit:10" transform="matrix(-1.0624 0 0 1.0624 122.095 227.453)"/><g style="fill:#000;fill-opacity:1"><use xlink:href="#x" x="117.594" y="221.868"/><use xlink:href="#B" x="122.094" y="221.868"/></g><g style="fill:#000;fill-opacity:1"><use xlink:href="#C" x="146.928" y="283.846"/><use xlink:href="#D" x="152.328" y="283.846"/><use xlink:href="#E" x="157.728" y="283.846"/></g></g></defs><g clip-path="url(#F)"><use xlink:href="#G"/></g></svg>