<?xml version="1.0" encoding="UTF-8"?>
<svg id="Modulinos" xmlns="http://www.w3.org/2000/svg" width="41mm" height="25.36mm" viewBox="0 0 116.22047 71.88661">
  <defs>
    <style>
      .cls-1 {
        fill: #7f8c8d;
      }

      .cls-2 {
        fill: #ebaa01;
      }

      .cls-3 {
        fill: #c3bab0;
      }

      .cls-4, .cls-5 {
        fill: #b7bfbf;
      }

      .cls-6 {
        fill: #929d9e;
      }

      .cls-7 {
        fill: #8b7867;
      }

      .cls-5 {
        fill-rule: evenodd;
      }

      .cls-8 {
        fill: #057582;
      }

      .cls-9 {
        fill: #007481;
      }
    </style>
  </defs>
  <path class="cls-8" d="M103.46934.01109H12.75931C5.70933.01109-.0007,5.72105-.0007,12.76109v46.38c0,7.03998,5.71002,12.75,12.76001,12.75h90.71002c7.03998,0,12.75-5.71002,12.75-12.75V12.76109C116.21934,5.72105,110.50931.01109,103.46934.01109ZM68.90928.86106c1.49005,0,2.69,1.20001,2.69,2.69s-1.19995,2.69-2.69,2.69-2.68994-1.20001-2.68994-2.69,1.19995-2.69,2.68994-2.69ZM61.70933.86106c1.48999,0,2.69,1.20001,2.69,2.69s-1.20001,2.69-2.69,2.69-2.69-1.20001-2.69-2.69,1.20001-2.69,2.69-2.69ZM54.50931.86106c1.48999,0,2.69,1.20001,2.69,2.69s-1.20001,2.69-2.69,2.69-2.69-1.20001-2.69-2.69,1.20001-2.69,2.69-2.69ZM47.3093.86106c1.48999,0,2.69,1.20001,2.69,2.69s-1.20001,2.69-2.69,2.69-2.69-1.20001-2.69-2.69,1.20001-2.69,2.69-2.69ZM12.75931,66.56108c-4.39001,0-7.94-3.54999-7.94-7.92999,0-4.39001,3.54999-7.94,7.94-7.94,4.38,0,7.92999,3.54999,7.92999,7.94,0,4.38-3.54999,7.92999-7.92999,7.92999ZM12.75931,21.2111c-4.39001,0-7.94-3.56-7.94-7.94s3.54999-7.94,7.94-7.94c4.38,0,7.92999,3.56,7.92999,7.94s-3.54999,7.94-7.92999,7.94ZM32.90928,71.32108c-1.63995,0-2.97998-1.33002-2.97998-2.97003,0-1.64996,1.34003-2.97998,2.97998-2.97998s2.98004,1.33002,2.98004,2.97998c0,1.64001-1.34003,2.97003-2.98004,2.97003ZM40.10929,71.32108c-1.63995,0-2.97998-1.33002-2.97998-2.97003,0-1.64996,1.34003-2.97998,2.97998-2.97998s2.98004,1.33002,2.98004,2.97998c0,1.64001-1.34003,2.97003-2.98004,2.97003ZM47.3093,71.32108c-1.64001,0-2.97998-1.33002-2.97998-2.97003,0-1.64996,1.33997-2.97998,2.97998-2.97998s2.97998,1.33002,2.97998,2.97998c0,1.64001-1.33997,2.97003-2.97998,2.97003ZM54.50931,71.32108c-1.64001,0-2.97998-1.33002-2.97998-2.97003,0-1.64996,1.33997-2.97998,2.97998-2.97998s2.97998,1.33002,2.97998,2.97998c0,1.64001-1.33997,2.97003-2.97998,2.97003ZM61.70933,71.32108c-1.64001,0-2.98004-1.33002-2.98004-2.97003,0-1.64996,1.34003-2.97998,2.98004-2.97998s2.97998,1.33002,2.97998,2.97998c0,1.64001-1.34003,2.97003-2.97998,2.97003ZM64.79929,41.59104c0,1.36005-1.10999,2.47003-2.46997,2.47003h-5.79004c-1.35999,0-2.46997-1.10999-2.46997-2.47003v-11.29999c0-1.35999,1.10999-2.45996,2.46997-2.45996h5.79004c1.35999,0,2.46997,1.09998,2.46997,2.45996v11.29999ZM68.90928,71.32108c-1.63995,0-2.97998-1.33002-2.97998-2.97003,0-1.64996,1.34003-2.97998,2.97998-2.97998s2.98004,1.33002,2.98004,2.97998c0,1.64001-1.34003,2.97003-2.98004,2.97003ZM76.10929,71.32108c-1.63995,0-2.97998-1.33002-2.97998-2.97003,0-1.64996,1.34003-2.97998,2.97998-2.97998s2.98004,1.33002,2.98004,2.97998c0,1.64001-1.34003,2.97003-2.98004,2.97003ZM83.3093,71.32108c-1.64001,0-2.97998-1.33002-2.97998-2.97003,0-1.64996,1.33997-2.97998,2.97998-2.97998s2.97998,1.33002,2.97998,2.97998c0,1.64001-1.33997,2.97003-2.97998,2.97003ZM103.46934,66.56108c-4.39001,0-7.94-3.54999-7.94-7.92999,0-4.39001,3.54999-7.94,7.94-7.94,4.37994,0,7.92999,3.54999,7.92999,7.94,0,4.38-3.55005,7.92999-7.92999,7.92999ZM103.46934,21.2111c-4.39001,0-7.94-3.56-7.94-7.94s3.54999-7.94,7.94-7.94c4.37994,0,7.92999,3.56,7.92999,7.94s-3.55005,7.94-7.92999,7.94Z"/>
  <g>
    <path d="M92.07705,44.73111c.24663,0,.48655-.04662.70649-.13326v2.17931c-.21995-.08664-.45986-.13326-.70649-.13326-.25322,0-.49318.04662-.71308.13993v-2.19265c.21991.09331.45986.13993.71308.13993Z"/>
    <path class="cls-6" d="M92.07704,46.6439c.24663,0,.48655.04662.70649.13326v.35992h-1.41957v-.35325c.2199-.09331.45986-.13993.71308-.13993Z"/>
    <path class="cls-6" d="M91.36397,44.2446h1.41957v.35325c-.21994.08664-.45986.13326-.70649.13326-.25322,0-.49318-.04662-.71308-.13993v-.34657Z"/>
  </g>
  <g>
    <path d="M98.27334,25.34422c.24663,0,.48655-.04662.70649-.13326v2.17931c-.21995-.08664-.45986-.13326-.70649-.13326-.25322,0-.49318.04662-.71308.13993v-2.19265c.21991.09331.45986.13993.71308.13993Z"/>
    <path class="cls-6" d="M98.27334,27.25701c.24663,0,.48655.04662.70649.13326v.35992h-1.41957v-.35325c.2199-.09331.45986-.13993.71308-.13993Z"/>
    <path class="cls-6" d="M97.56026,24.85772h1.41957v.35325c-.21994.08664-.45986.13326-.70649.13326-.25322,0-.49318-.04662-.71308-.13993v-.34657Z"/>
  </g>
  <g>
    <path d="M79.40281,37.17351c.24663,0,.48655-.04662.70649-.13326v2.17931c-.21995-.08664-.45986-.13326-.70649-.13326-.25322,0-.49318.04662-.71308.13993v-2.19265c.21991.09331.45986.13993.71308.13993Z"/>
    <path class="cls-6" d="M79.40281,39.0863c.24663,0,.48655.04662.70649.13326v.35992h-1.41957v-.35325c.2199-.09331.45986-.13993.71308-.13993Z"/>
    <path class="cls-6" d="M78.68973,36.68701h1.41957v.35325c-.21994.08664-.45986.13326-.70649.13326-.25322,0-.49318-.04662-.71308-.13993v-.34657Z"/>
  </g>
  <g>
    <path d="M95.18367,44.73111c.24663,0,.48655-.04662.70649-.13326v2.17931c-.21995-.08664-.45986-.13326-.70649-.13326-.25322,0-.49318.04662-.71308.13993v-2.19265c.21991.09331.45986.13993.71308.13993Z"/>
    <path class="cls-6" d="M95.18367,46.6439c.24663,0,.48655.04662.70649.13326v.35992h-1.41957v-.35325c.2199-.09331.45986-.13993.71308-.13993Z"/>
    <path class="cls-6" d="M94.47059,44.2446h1.41957v.35325c-.21994.08664-.45986.13326-.70649.13326-.25322,0-.49318-.04662-.71308-.13993v-.34657Z"/>
  </g>
  <g>
    <path d="M98.2903,44.73111c.24663,0,.48655-.04662.70649-.13326v2.17931c-.21995-.08664-.45986-.13326-.70649-.13326-.25322,0-.49318.04662-.71308.13993v-2.19265c.21991.09331.45986.13993.71308.13993Z"/>
    <path class="cls-6" d="M98.29029,46.6439c.24663,0,.48655.04662.70649.13326v.35992h-1.41957v-.35325c.2199-.09331.45986-.13993.71308-.13993Z"/>
    <path class="cls-6" d="M97.57722,44.2446h1.41957v.35325c-.21994.08664-.45986.13326-.70649.13326-.25322,0-.49318-.04662-.71308-.13993v-.34657Z"/>
  </g>
  <rect class="cls-6" x="77.87831" y="17.40703" width="1.73228" height="2.2768"/>
  <rect class="cls-6" x="81.00063" y="17.40703" width="1.73228" height="2.2768"/>
  <rect class="cls-6" x="84.12294" y="17.40703" width="1.73228" height="2.2768"/>
  <rect class="cls-6" x="87.24525" y="17.40703" width="1.73228" height="2.2768"/>
  <rect class="cls-6" x="90.36757" y="17.40703" width="1.73228" height="2.2768"/>
  <g>
    <path class="cls-7" d="M79.5224,10.88402c-.24663,0-.48655.04662-.70649.13326v-2.17931c.21994.08664.45986.13326.70649.13326.25322,0,.49318-.04662.71308-.13993v2.19265c-.2199-.09331-.45986-.13993-.71308-.13993Z"/>
    <path class="cls-6" d="M79.5224,8.97124c-.24663,0-.48655-.04662-.70649-.13326v-.35992h1.41957v.35325c-.2199.09331-.45986.13993-.71308.13993Z"/>
    <path class="cls-6" d="M80.23548,11.37053h-1.41957v-.35325c.21994-.08664.45986-.13326.70649-.13326.25322,0,.49318.04662.71308.13993v.34657Z"/>
  </g>
  <g>
    <path class="cls-7" d="M69.70991,30.20654c0-.24663-.04662-.48655-.13326-.70649h2.17931c-.08664.21995-.13326.45987-.13326.70649,0,.25322.04662.49318.13993.71308h-2.19265c.09332-.21991.13993-.45987.13993-.71308Z"/>
    <path class="cls-6" d="M71.6227,30.20654c0-.24663.04662-.48655.13326-.70649h.35992v1.41957h-.35325c-.09331-.2199-.13993-.45986-.13993-.71308Z"/>
    <path class="cls-6" d="M69.2234,30.91961v-1.41957h.35325c.08664.21995.13326.45986.13326.70649,0,.25322-.04662.49318-.13993.71308h-.34657Z"/>
  </g>
  <g>
    <path class="cls-7" d="M76.11061,11.46691c-.39556,0-.78036.07477-1.13312.21373v-3.49533c.35276.13896.73756.21373,1.13312.21373.40613,0,.79099-.07477,1.14369-.22443v3.51672c-.3527-.14966-.73756-.22443-1.14369-.22443Z"/>
    <path class="cls-6" d="M76.11061,8.39905c-.39556,0-.78036-.07477-1.13312-.21373v-.57726h2.27681v.56656c-.3527.14966-.73756.22443-1.14369.22443Z"/>
    <path class="cls-6" d="M77.2543,12.2472h-2.27681v-.56656c.35276-.13896.73756-.21373,1.13312-.21373.40613,0,.79099.07477,1.14369.22443v.55586Z"/>
  </g>
  <g>
    <g id="HATCH">
      <circle class="cls-7" cx="3.68502" cy="49.77637" r="2.83464"/>
    </g>
    <g id="LWPOLYLINE">
      <circle class="cls-3" cx="3.68502" cy="49.77637" r="1.41732"/>
    </g>
  </g>
  <g>
    <g id="HATCH-2" data-name="HATCH">
      <circle class="cls-7" cx="3.68502" cy="22.11016" r="2.83464"/>
    </g>
    <g id="LWPOLYLINE-2" data-name="LWPOLYLINE">
      <circle class="cls-3" cx="3.68502" cy="22.11016" r="1.41732"/>
    </g>
  </g>
  <g>
    <g id="HATCH-3" data-name="HATCH">
      <circle class="cls-7" cx="112.53545" cy="22.11023" r="2.83464"/>
    </g>
    <g id="LWPOLYLINE-3" data-name="LWPOLYLINE">
      <circle class="cls-3" cx="112.53545" cy="22.11023" r="1.41732"/>
    </g>
  </g>
  <g id="HATCH-4" data-name="HATCH">
    <path class="cls-5" d="M83.3093,65.36791c-1.64001,0-2.97998,1.33002-2.97998,2.98004,0,1.64001,1.33997,2.96997,2.97998,2.96997s2.97998-1.32996,2.97998-2.96997c0-1.65002-1.33997-2.98004-2.97998-2.98004ZM83.3093,69.75793c-.77997,0-1.41998-.63-1.41998-1.40997,0-.79004.64001-1.42004,1.41998-1.42004.78003,0,1.41998.63,1.41998,1.42004,0,.77997-.63995,1.40997-1.41998,1.40997Z"/>
  </g>
  <g id="HATCH-5" data-name="HATCH">
    <path class="cls-5" d="M76.10929,65.36791c-1.63995,0-2.97998,1.33002-2.97998,2.98004,0,1.64001,1.34003,2.96997,2.97998,2.96997s2.98004-1.32996,2.98004-2.96997c0-1.65002-1.34003-2.98004-2.98004-2.98004ZM76.10929,69.75793c-.77997,0-1.41998-.63-1.41998-1.40997,0-.79004.64001-1.42004,1.41998-1.42004.78003,0,1.42004.63,1.42004,1.42004,0,.77997-.64001,1.40997-1.42004,1.40997Z"/>
  </g>
  <g id="HATCH-6" data-name="HATCH">
    <path class="cls-5" d="M68.90928,65.36791c-1.63995,0-2.97998,1.33002-2.97998,2.98004,0,1.64001,1.34003,2.96997,2.97998,2.96997s2.98004-1.32996,2.98004-2.96997c0-1.65002-1.34003-2.98004-2.98004-2.98004ZM68.90928,69.75793c-.77997,0-1.41998-.63-1.41998-1.40997,0-.79004.64001-1.42004,1.41998-1.42004.78003,0,1.42004.63,1.42004,1.42004,0,.77997-.64001,1.40997-1.42004,1.40997Z"/>
  </g>
  <g id="HATCH-7" data-name="HATCH">
    <path class="cls-5" d="M61.70933,65.36791c-1.64001,0-2.98004,1.33002-2.98004,2.98004,0,1.64001,1.34003,2.96997,2.98004,2.96997s2.97998-1.32996,2.97998-2.96997c0-1.65002-1.34003-2.98004-2.97998-2.98004ZM61.70933,69.75793c-.78003,0-1.42004-.63-1.42004-1.40997,0-.79004.64001-1.42004,1.42004-1.42004.77997,0,1.41998.63,1.41998,1.42004,0,.77997-.64001,1.40997-1.41998,1.40997Z"/>
  </g>
  <g id="HATCH-8" data-name="HATCH">
    <path class="cls-5" d="M32.90928,65.36791c-1.63995,0-2.97998,1.33002-2.97998,2.98004,0,1.64001,1.34003,2.96997,2.97998,2.96997s2.98004-1.32996,2.98004-2.96997c0-1.65002-1.34003-2.98004-2.98004-2.98004ZM32.90928,69.75793c-.77997,0-1.41998-.63-1.41998-1.40997,0-.79004.64001-1.42004,1.41998-1.42004.78003,0,1.42004.63,1.42004,1.42004,0,.77997-.64001,1.40997-1.42004,1.40997Z"/>
  </g>
  <g id="HATCH-9" data-name="HATCH">
    <path class="cls-5" d="M40.10929,65.36791c-1.63995,0-2.97998,1.33002-2.97998,2.98004,0,1.64001,1.34003,2.96997,2.97998,2.96997s2.98004-1.32996,2.98004-2.96997c0-1.65002-1.34003-2.98004-2.98004-2.98004ZM40.10929,69.75793c-.77997,0-1.41998-.63-1.41998-1.40997,0-.79004.64001-1.42004,1.41998-1.42004.78003,0,1.42004.63,1.42004,1.42004,0,.77997-.64001,1.40997-1.42004,1.40997Z"/>
  </g>
  <g id="HATCH-10" data-name="HATCH">
    <path class="cls-5" d="M47.3093,65.36791c-1.64001,0-2.97998,1.33002-2.97998,2.98004,0,1.64001,1.33997,2.96997,2.97998,2.96997s2.97998-1.32996,2.97998-2.96997c0-1.65002-1.33997-2.98004-2.97998-2.98004ZM47.3093,69.75793c-.77997,0-1.41998-.63-1.41998-1.40997,0-.79004.64001-1.42004,1.41998-1.42004.78003,0,1.41998.63,1.41998,1.42004,0,.77997-.63995,1.40997-1.41998,1.40997Z"/>
  </g>
  <g id="HATCH-11" data-name="HATCH">
    <path class="cls-5" d="M54.50931,65.36791c-1.64001,0-2.97998,1.33002-2.97998,2.98004,0,1.64001,1.33997,2.96997,2.97998,2.96997s2.97998-1.32996,2.97998-2.96997c0-1.65002-1.33997-2.98004-2.97998-2.98004ZM54.50931,69.75793c-.78003,0-1.41998-.63-1.41998-1.40997,0-.79004.63995-1.42004,1.41998-1.42004.77997,0,1.41998.63,1.41998,1.42004,0,.77997-.64001,1.40997-1.41998,1.40997Z"/>
  </g>
  <g>
    <g id="HATCH-12" data-name="HATCH">
      <path class="cls-5" d="M12.75931,50.6867c-4.39001,0-7.94,3.54999-7.94,7.94,0,4.37994,3.54999,7.92999,7.94,7.92999,4.38,0,7.92999-3.55005,7.92999-7.92999,0-4.39001-3.54999-7.94-7.92999-7.94ZM12.75931,63.15667c-2.51001,0-4.53998-2.02997-4.53998-4.52997,0-2.51001,2.02997-4.54004,4.53998-4.54004,2.5,0,4.52997,2.03003,4.52997,4.54004,0,2.5-2.02997,4.52997-4.52997,4.52997Z"/>
    </g>
    <g id="HATCH-13" data-name="HATCH">
      <path class="cls-5" d="M12.75931,5.32666c-4.39001,0-7.94,3.56-7.94,7.94s3.54999,7.94,7.94,7.94c4.38,0,7.92999-3.56,7.92999-7.94s-3.54999-7.94-7.92999-7.94ZM12.75931,17.8067c-2.51001,0-4.53998-2.03003-4.53998-4.54004,0-2.5,2.02997-4.52997,4.53998-4.52997,2.5,0,4.52997,2.02997,4.52997,4.52997,0,2.51001-2.02997,4.54004-4.52997,4.54004Z"/>
    </g>
    <g id="HATCH-14" data-name="HATCH">
      <path class="cls-5" d="M103.46934,5.32666c-4.39001,0-7.94,3.56-7.94,7.94s3.54999,7.94,7.94,7.94c4.37994,0,7.92999-3.56,7.92999-7.94s-3.55005-7.94-7.92999-7.94ZM103.46934,17.8067c-2.51001,0-4.54004-2.03003-4.54004-4.54004,0-2.5,2.03003-4.52997,4.54004-4.52997,2.5,0,4.52997,2.02997,4.52997,4.52997,0,2.51001-2.02997,4.54004-4.52997,4.54004Z"/>
    </g>
    <g id="HATCH-15" data-name="HATCH">
      <path class="cls-5" d="M103.46934,50.6867c-4.39001,0-7.94,3.54999-7.94,7.94,0,4.37994,3.54999,7.92999,7.94,7.92999,4.37994,0,7.92999-3.55005,7.92999-7.92999,0-4.39001-3.55005-7.94-7.92999-7.94ZM103.46934,63.15667c-2.51001,0-4.54004-2.02997-4.54004-4.52997,0-2.51001,2.03003-4.54004,4.54004-4.54004,2.5,0,4.52997,2.03003,4.52997,4.54004,0,2.5-2.02997,4.52997-4.52997,4.52997Z"/>
    </g>
    <g id="HATCH-16" data-name="HATCH">
      <path class="cls-5" d="M47.3093.85669c-1.48999,0-2.69,1.20001-2.69,2.69s1.20001,2.69,2.69,2.69,2.69-1.20001,2.69-2.69-1.20001-2.69-2.69-2.69ZM47.3093,4.96667c-.77997,0-1.41998-.64001-1.41998-1.41998,0-.78003.64001-1.41998,1.41998-1.41998.78003,0,1.41998.63995,1.41998,1.41998,0,.77997-.63995,1.41998-1.41998,1.41998Z"/>
    </g>
    <g id="HATCH-17" data-name="HATCH">
      <path class="cls-5" d="M54.50931.85669c-1.48999,0-2.69,1.20001-2.69,2.69s1.20001,2.69,2.69,2.69,2.69-1.20001,2.69-2.69-1.20001-2.69-2.69-2.69ZM54.50931,4.96667c-.78003,0-1.41998-.64001-1.41998-1.41998,0-.78003.63995-1.41998,1.41998-1.41998.77997,0,1.41998.63995,1.41998,1.41998,0,.77997-.64001,1.41998-1.41998,1.41998Z"/>
    </g>
    <g id="HATCH-18" data-name="HATCH">
      <path class="cls-5" d="M61.70933.85669c-1.48999,0-2.69,1.20001-2.69,2.69s1.20001,2.69,2.69,2.69,2.69-1.20001,2.69-2.69-1.20001-2.69-2.69-2.69ZM61.70933,4.96667c-.78003,0-1.42004-.64001-1.42004-1.41998,0-.78003.64001-1.41998,1.42004-1.41998.77997,0,1.41998.63995,1.41998,1.41998,0,.77997-.64001,1.41998-1.41998,1.41998Z"/>
    </g>
    <g id="HATCH-19" data-name="HATCH">
      <path class="cls-5" d="M68.90928.85669c-1.48999,0-2.68994,1.20001-2.68994,2.69s1.19995,2.69,2.68994,2.69,2.69-1.20001,2.69-2.69-1.19995-2.69-2.69-2.69ZM68.90928,4.96667c-.77997,0-1.41998-.64001-1.41998-1.41998,0-.78003.64001-1.41998,1.41998-1.41998.78003,0,1.42004.63995,1.42004,1.41998,0,.77997-.64001,1.41998-1.42004,1.41998Z"/>
    </g>
  </g>
  <g>
    <rect class="cls-6" x="19.70146" y="31.2257" width=".68934" height="1.41957" transform="translate(51.98161 11.88935) rotate(90)"/>
    <rect class="cls-6" x="19.70146" y="33.42025" width=".68934" height="1.41957" transform="translate(54.17616 14.0839) rotate(90)"/>
  </g>
  <g>
    <rect class="cls-6" x="19.70146" y="37.04972" width=".68934" height="1.41957" transform="translate(57.80563 17.71337) rotate(90)"/>
    <rect class="cls-6" x="19.70146" y="39.24427" width=".68934" height="1.41957" transform="translate(60.00018 19.90792) rotate(90)"/>
  </g>
  <g>
    <g>
      <rect class="cls-6" x="94.84667" y="24.51176" width=".68934" height="1.41957" transform="translate(120.41289 -69.9698) rotate(90)"/>
      <rect class="cls-6" x="94.84667" y="26.70631" width=".68934" height="1.41957" transform="translate(122.60744 -67.77525) rotate(90)"/>
    </g>
    <g>
      <rect class="cls-6" x="91.72908" y="24.51176" width=".68934" height="1.41957" transform="translate(117.2953 -66.8522) rotate(90)"/>
      <rect class="cls-6" x="91.72908" y="26.70631" width=".68934" height="1.41957" transform="translate(119.48985 -64.65765) rotate(90)"/>
    </g>
  </g>
  <g>
    <polygon points="72.10581 34.38962 70.48362 34.38962 70.48362 41.91165 72.10581 41.91165 73.728 41.91165 73.728 34.38962 72.10581 34.38962"/>
    <path class="cls-6" d="M73.72827,36.83163h1.62173c.27585,0,.49947-.18143.49947-.40523v-1.37714c0-.2238-.22362-.40523-.49947-.40523h-1.62173v2.1876Z"/>
    <path class="cls-6" d="M73.72827,41.66553h1.62173c.27585,0,.49947-.18143.49947-.40523v-1.37714c0-.2238-.22362-.40523-.49947-.40523h-1.62173v2.1876Z"/>
    <path class="cls-6" d="M70.50348,37.05683h-1.62173c-.27585,0-.49947.18143-.49947.40523v1.37714c0,.2238.22362.40523.49947.40523h1.62173s0-2.1876,0-2.1876Z"/>
  </g>
  <g>
    <rect class="cls-6" x="25.86211" y="30.86496" width="2.39099" height=".91861"/>
    <rect class="cls-6" x="25.86211" y="40.10305" width="2.39099" height=".91861"/>
    <polygon points="27.05761 31.78357 24.36443 31.78357 24.36443 40.10305 27.05761 40.10305 29.75079 40.10305 29.75079 31.78357 27.05761 31.78357"/>
    <rect class="cls-6" x="24.6681" y="37.86032" width="4.77902" height="1.66564"/>
  </g>
  <g>
    <rect class="cls-1" x="51.52933" y="32.35105" width="2.08997" height="7.19"/>
    <rect class="cls-6" x="33.0593" y="33.7111" width=".97998" height="4.46997"/>
    <rect class="cls-6" x="54.41929" y="31.33109" width="7.72003" height="2.52997"/>
    <rect class="cls-6" x="54.41929" y="38.0211" width="7.72003" height="2.52997"/>
    <rect class="cls-1" x="53.6193" y="34.99107" width=".79999" height="1.90002"/>
    <rect class="cls-4" x="34.03928" y="32.35105" width="17.49005" height="7.19"/>
    <polygon class="cls-1" points="51.52933 30.91105 51.52933 32.35105 34.03928 32.35105 34.03928 29.99107 36.79929 29.99107 36.79929 30.91105 51.52933 30.91105"/>
    <polygon class="cls-1" points="51.52933 39.54106 51.52933 40.98106 36.79929 40.98106 36.79929 41.9011 34.03928 41.9011 34.03928 39.54106 51.52933 39.54106"/>
    <rect class="cls-6" x="36.79929" y="29.99107" width="14.73004" height=".91998"/>
    <rect class="cls-6" x="36.79929" y="40.98106" width="14.73004" height=".92004"/>
    <path class="cls-6" d="M34.03928,30.59104v2.39001c-.98999.41003-1.97998.28003-2.22998-.29999-.25-.59003.35999-1.41998,1.37-1.84998.29004-.13.59003-.21002.85999-.24005Z"/>
    <path class="cls-6" d="M34.03928,38.91105v2.39001c-.26996-.02997-.56995-.10999-.85999-.23999-1.01001-.42999-1.62-1.26001-1.37-1.84998.25-.58002,1.23999-.71002,2.22998-.30005Z"/>
    <rect class="cls-1" x="54.41929" y="33.86106" width="7.72003" height="4.16003"/>
  </g>
  <g id="USB">
    <g>
      <rect class="cls-6" x="102.89982" y="27.17974" width="11.54569" height="17.53005"/>
      <polygon class="cls-1" points="104.54919 27.17974 102.89982 27.17974 102.89982 27.20828 102.89982 44.66178 102.89982 44.70979 104.54919 44.70979 104.54919 44.66178 104.54919 44.66178 104.54919 27.17974"/>
      <polygon class="cls-1" points="107.84793 27.17974 106.19856 27.17974 106.19856 27.20828 106.19856 44.66178 106.19856 44.70979 107.84793 44.70979 107.84793 44.66178 107.84793 44.66178 107.84793 27.17974"/>
      <polygon class="cls-1" points="111.14677 27.17974 109.4974 27.17974 109.4974 27.20828 109.4974 44.66178 109.4974 44.70979 111.14677 44.70979 111.14677 44.66178 111.14677 44.66178 111.14677 27.17974"/>
      <polygon class="cls-1" points="114.44551 27.17974 112.79614 27.17974 112.79614 27.20828 112.79614 44.66178 112.79614 44.70979 114.44551 44.70979 114.44551 44.66178 114.44551 44.66178 114.44551 27.17974"/>
    </g>
    <g>
      <rect class="cls-4" x="99.15921" y="31.01273" width="3.74061" height="1.50082"/>
      <rect class="cls-4" x="99.15921" y="39.36349" width="3.74061" height="1.50082"/>
      <rect class="cls-4" x="99.15921" y="36.5799" width="3.74061" height="1.50082"/>
      <rect class="cls-4" x="99.15921" y="33.79632" width="3.74061" height="1.50082"/>
    </g>
  </g>
  <g id="USB-2" data-name="USB">
    <g>
      <rect class="cls-6" x="1.77313" y="27.17974" width="11.54569" height="17.53005"/>
      <polygon class="cls-1" points="11.66945 44.70979 13.31883 44.70979 13.31883 44.68126 13.31883 27.22776 13.31883 27.17974 11.66946 27.17974 11.66946 27.22775 11.66946 27.22775 11.66945 44.70979"/>
      <polygon class="cls-1" points="8.37071 44.70979 10.02008 44.70979 10.02008 44.68125 10.02009 27.22775 10.02009 27.17974 8.37071 27.17974 8.37071 27.22775 8.37071 27.22775 8.37071 44.70979"/>
      <polygon class="cls-1" points="5.07187 44.70979 6.72124 44.70979 6.72124 44.68125 6.72125 27.22775 6.72125 27.17974 5.07188 27.17974 5.07188 27.22775 5.07188 27.22775 5.07187 44.70979"/>
      <polygon class="cls-1" points="1.77313 44.70979 3.4225 44.70979 3.4225 44.68125 3.42251 27.22775 3.42251 27.17974 1.77314 27.17974 1.77314 27.22775 1.77314 27.22775 1.77313 44.70979"/>
    </g>
    <g>
      <rect class="cls-4" x="13.31883" y="39.37598" width="3.74061" height="1.50082" transform="translate(30.37825 80.25279) rotate(-179.99998)"/>
      <rect class="cls-4" x="13.31883" y="31.02522" width="3.74061" height="1.50082" transform="translate(30.37825 63.55127) rotate(-179.99998)"/>
      <rect class="cls-4" x="13.31883" y="33.80881" width="3.74061" height="1.50082" transform="translate(30.37825 69.11844) rotate(-179.99998)"/>
      <rect class="cls-4" x="13.31883" y="36.59239" width="3.74061" height="1.50082" transform="translate(30.37825 74.68561) rotate(-179.99998)"/>
    </g>
  </g>
  <g>
    <g>
      <g>
        <path class="cls-6" d="M84.17314,5.19387h.82258v.22117c0,.11556-.09382.20938-.20938.20938h-.40383c-.11556,0-.20938-.09382-.20938-.20938v-.22117h0Z" transform="translate(169.16886 10.81828) rotate(180)"/>
        <path class="cls-6" d="M85.59144,5.19387h.82258v.22117c0,.11556-.09382.20938-.20938.20938h-.40383c-.11556,0-.20938-.09382-.20938-.20938v-.22117h0Z" transform="translate(172.00546 10.81828) rotate(180)"/>
        <path class="cls-6" d="M87.00973,5.19387h.82258v.22117c0,.11556-.09382.20938-.20938.20938h-.40383c-.11556,0-.20938-.09382-.20938-.20938v-.22117h0Z" transform="translate(174.84205 10.81828) rotate(180)"/>
        <path class="cls-6" d="M88.42803,5.19387h.82258v.22117c0,.11556-.09382.20938-.20938.20938h-.40383c-.11556,0-.20938-.09382-.20938-.20938v-.22117h0Z" transform="translate(177.67865 10.81828) rotate(180)"/>
        <path class="cls-6" d="M89.84633,5.19387h.82258v.22117c0,.11556-.09382.20938-.20938.20938h-.40383c-.11556,0-.20938-.09382-.20938-.20938v-.22117h0Z" transform="translate(180.51524 10.81828) rotate(180)"/>
      </g>
      <g>
        <path class="cls-6" d="M89.84633,14.33977h.82258v.22117c0,.11556-.09382.20938-.20938.20938h-.40383c-.11556,0-.20938-.09382-.20938-.20938v-.22117h0Z"/>
        <path class="cls-6" d="M88.42803,14.33977h.82258v.22117c0,.11556-.09382.20938-.20938.20938h-.40383c-.11556,0-.20938-.09382-.20938-.20938v-.22117h0Z"/>
        <path class="cls-6" d="M87.00973,14.33976h.82258v.22117c0,.11556-.09382.20938-.20938.20938h-.40383c-.11556,0-.20938-.09382-.20938-.20938v-.22117h0Z"/>
        <path class="cls-6" d="M85.59144,14.33976h.82258v.22117c0,.11556-.09382.20938-.20938.20938h-.40383c-.11556,0-.20938-.09382-.20938-.20938v-.22117h0Z"/>
        <path class="cls-6" d="M84.17314,14.33976h.82258v.22117c0,.11556-.09382.20938-.20938.20938h-.40383c-.11556,0-.20938-.09382-.20938-.20938v-.22117h0Z"/>
      </g>
      <g>
        <path class="cls-6" d="M91.58269,6.93022h.82258v.22117c0,.11556-.09382.20938-.20938.20938h-.40383c-.11556,0-.20938-.09382-.20938-.20938v-.22117h0Z" transform="translate(84.84836 99.13947) rotate(-89.99993)"/>
        <path class="cls-6" d="M91.58269,8.34852h.82258v.22117c0,.11556-.09382.20938-.20938.20938h-.40383c-.11556,0-.20938-.09382-.20938-.20938v-.22117h0Z" transform="translate(83.43007 100.55776) rotate(-89.99993)"/>
        <path class="cls-6" d="M91.58269,9.76682h.82258v.22117c0,.11556-.09382.20938-.20938.20938h-.40383c-.11556,0-.20938-.09382-.20938-.20938v-.22117h0Z" transform="translate(82.01177 101.97605) rotate(-89.99993)"/>
        <path class="cls-6" d="M91.58268,11.18511h.82258v.22117c0,.11556-.09382.20938-.20938.20938h-.40383c-.11556,0-.20938-.09382-.20938-.20938v-.22117h0Z" transform="translate(80.59347 103.39435) rotate(-89.99993)"/>
        <path class="cls-6" d="M91.58268,12.60341h.82258v.22117c0,.11556-.09382.20938-.20938.20938h-.40383c-.11556,0-.20938-.09382-.20938-.20938v-.22117h0Z" transform="translate(79.17517 104.81264) rotate(-89.99993)"/>
      </g>
      <g>
        <path class="cls-6" d="M82.43678,12.60341h.82258v.22117c0,.11556-.09382.20938-.20938.20938h-.40383c-.11556,0-.20938-.09382-.20938-.20938v-.22117h0Z" transform="translate(95.66694 -70.02935) rotate(90.00013)"/>
        <path class="cls-6" d="M82.43678,11.18511h.82258v.22117c0,.11556-.09382.20938-.20938.20938h-.40383c-.11556,0-.20938-.09382-.20938-.20938v-.22117h0Z" transform="translate(94.24865 -71.44766) rotate(90.00013)"/>
        <path class="cls-6" d="M82.43678,9.76682h.82258v.22117c0,.11556-.09382.20938-.20938.20938h-.40383c-.11556,0-.20938-.09382-.20938-.20938v-.22117h0Z" transform="translate(92.83035 -72.86596) rotate(90.00013)"/>
        <path class="cls-6" d="M82.43679,8.34852h.82258v.22117c0,.11556-.09382.20938-.20938.20938h-.40383c-.11556,0-.20938-.09382-.20938-.20938v-.22117h0Z" transform="translate(91.41206 -74.28427) rotate(90.00013)"/>
        <path class="cls-6" d="M82.43679,6.93022h.82258v.22117c0,.11556-.09382.20938-.20938.20938h-.40383c-.11556,0-.20938-.09382-.20938-.20938v-.22117h0Z" transform="translate(89.99377 -75.70257) rotate(90.00013)"/>
      </g>
      <rect x="83.06335" y="5.62442" width="8.71535" height="8.71535"/>
    </g>
    <circle class="cls-6" cx="84.35646" cy="7.00083" r=".57717"/>
  </g>
  <g>
    <rect class="cls-6" x="8.03785" y="46.65724" width="5.0902" height="2.26965"/>
    <circle class="cls-2" cx="10.58295" cy="47.79207" r="1.63272"/>
  </g>
  <g>
    <path class="cls-9" d="M16.20598,47.78878c0-.24663-.04662-.48654-.13326-.70649h2.17931c-.08665.21994-.13326.45986-.13326.70649,0,.25322.04662.49318.13993.71308h-2.19265c.09331-.21991.13993-.45986.13993-.71308h.00001Z"/>
    <path d="M16.20598,47.78878c0-.24663-.04662-.48654-.13326-.70649h2.17931c-.08665.21994-.13326.45986-.13326.70649,0,.25322.04662.49318.13993.71308h-2.19265c.09331-.21991.13993-.45986.13993-.71308h.00001Z"/>
    <path class="cls-6" d="M18.11876,47.78878c0-.24663.04662-.48654.13326-.70649h.35991v1.41958h-.35324c-.09331-.21991-.13993-.45986-.13993-.71308Z"/>
    <path class="cls-6" d="M15.71946,48.50186v-1.41958h.35324c.08665.21994.13326.45986.13326.70649,0,.25322-.04662.49318-.13993.71308h-.34657Z"/>
  </g>
</svg>