<svg xmlns="http://www.w3.org/2000/svg" id="Modulinos" width="41mm" height="95.849" viewBox="0 0 116.22 71.887"><defs><style>.cls-1{fill:#7f8c8d}.cls-3{fill:#c3bab0}.cls-4,.cls-5{fill:#b7bfbf}.cls-6{fill:#929d9e}.cls-7{fill:#8b7867}.cls-5{fill-rule:evenodd}</style></defs><path d="M103.47.011H12.76C5.71.011 0 5.721 0 12.761v46.38c0 7.04 5.71 12.75 12.76 12.75h90.71c7.04 0 12.75-5.71 12.75-12.75v-46.38c0-7.04-5.71-12.75-12.75-12.75m-34.56.85c1.49 0 2.69 1.2 2.69 2.69s-1.2 2.69-2.69 2.69-2.69-1.2-2.69-2.69 1.2-2.69 2.69-2.69m-7.2 0c1.49 0 2.69 1.2 2.69 2.69s-1.2 2.69-2.69 2.69-2.69-1.2-2.69-2.69 1.2-2.69 2.69-2.69m-7.2 0c1.49 0 2.69 1.2 2.69 2.69s-1.2 2.69-2.69 2.69-2.69-1.2-2.69-2.69 1.2-2.69 2.69-2.69m-7.2 0c1.49 0 2.69 1.2 2.69 2.69s-1.2 2.69-2.69 2.69-2.69-1.2-2.69-2.69 1.2-2.69 2.69-2.69m-34.55 65.7c-4.39 0-7.94-3.55-7.94-7.93 0-4.39 3.55-7.94 7.94-7.94 4.38 0 7.93 3.55 7.93 7.94a7.93 7.93 0 0 1-7.93 7.93m0-45.35a7.94 7.94 0 0 1 0-15.88c4.38 0 7.93 3.56 7.93 7.94s-3.55 7.94-7.93 7.94m20.15 50.11c-1.64 0-2.98-1.33-2.98-2.97a2.981 2.981 0 0 1 5.96 0c0 1.64-1.34 2.97-2.98 2.97m7.2 0c-1.64 0-2.98-1.33-2.98-2.97a2.981 2.981 0 0 1 5.96 0c0 1.64-1.34 2.97-2.98 2.97m7.2 0c-1.64 0-2.98-1.33-2.98-2.97a2.981 2.981 0 0 1 5.96 0c0 1.64-1.34 2.97-2.98 2.97m7.2 0c-1.64 0-2.98-1.33-2.98-2.97a2.981 2.981 0 0 1 5.96 0c0 1.64-1.34 2.97-2.98 2.97m7.2 0c-1.64 0-2.98-1.33-2.98-2.97a2.981 2.981 0 0 1 5.96 0c0 1.64-1.34 2.97-2.98 2.97m3.09-29.73c0 1.36-1.11 2.47-2.47 2.47h-5.79c-1.36 0-2.47-1.11-2.47-2.47v-11.3c0-1.36 1.11-2.46 2.47-2.46h5.79c1.36 0 2.47 1.1 2.47 2.46zm4.11 29.73c-1.64 0-2.98-1.33-2.98-2.97a2.981 2.981 0 0 1 5.96 0c0 1.64-1.34 2.97-2.98 2.97m7.2 0c-1.64 0-2.98-1.33-2.98-2.97a2.981 2.981 0 0 1 5.96 0c0 1.64-1.34 2.97-2.98 2.97m7.2 0c-1.64 0-2.98-1.33-2.98-2.97a2.981 2.981 0 0 1 5.96 0c0 1.64-1.34 2.97-2.98 2.97m20.16-4.76c-4.39 0-7.94-3.55-7.94-7.93 0-4.39 3.55-7.94 7.94-7.94 4.38 0 7.93 3.55 7.93 7.94a7.93 7.93 0 0 1-7.93 7.93m0-45.35a7.94 7.94 0 0 1 0-15.88c4.38 0 7.93 3.56 7.93 7.94s-3.55 7.94-7.93 7.94" style="fill:#057582"/><path d="M92.077 44.731c.247 0 .487-.047.707-.133v2.18a1.93 1.93 0 0 0-1.42.006V44.59q.332.14.713.14"/><path d="M92.077 46.644c.247 0 .487.047.707.133v.36h-1.42v-.353q.332-.14.713-.14M91.364 44.245h1.42v.353a1.93 1.93 0 0 1-1.42-.007z" class="cls-6"/><path d="M98.273 25.344c.247 0 .487-.046.707-.133v2.18a1.93 1.93 0 0 0-1.42.006v-2.193q.332.14.713.14"/><path d="M98.273 27.257c.247 0 .487.047.707.133v.36h-1.42v-.353q.332-.14.713-.14M97.56 24.858h1.42v.353a1.93 1.93 0 0 1-1.42-.007z" class="cls-6"/><path d="M79.403 37.174c.246 0 .486-.047.706-.134v2.18a1.93 1.93 0 0 0-1.42.006v-2.192q.332.14.714.14"/><path d="M79.403 39.086c.246 0 .486.047.706.134v.36h-1.42v-.354q.331-.14.714-.14M78.69 36.687h1.42v.353a1.93 1.93 0 0 1-1.42-.006z" class="cls-6"/><path d="M95.184 44.731c.246 0 .486-.047.706-.133v2.18a1.93 1.93 0 0 0-1.42.006V44.59q.331.14.714.14"/><path d="M95.184 46.644c.246 0 .486.047.706.133v.36h-1.42v-.353q.331-.14.714-.14M94.47 44.245h1.42v.353a1.93 1.93 0 0 1-1.42-.007z" class="cls-6"/><path d="M98.29 44.731c.247 0 .487-.047.707-.133v2.18a1.93 1.93 0 0 0-1.42.006V44.59q.332.14.713.14"/><path d="M98.29 46.644c.247 0 .487.047.707.133v.36h-1.42v-.353q.332-.14.713-.14M97.577 44.245h1.42v.353a1.93 1.93 0 0 1-1.42-.007zM77.878 17.407h1.732v2.277h-1.732zM81.001 17.407h1.732v2.277h-1.732zM84.123 17.407h1.732v2.277h-1.732zM87.245 17.407h1.732v2.277h-1.732zM90.368 17.407H92.1v2.277h-1.732z" class="cls-6"/><path d="M79.522 10.884a1.9 1.9 0 0 0-.706.133V8.838a1.93 1.93 0 0 0 1.42-.007v2.193q-.331-.14-.714-.14" class="cls-7"/><path d="M79.522 8.971a1.9 1.9 0 0 1-.706-.133v-.36h1.42v.353q-.332.14-.714.14M80.235 11.37h-1.42v-.353a1.93 1.93 0 0 1 1.42.007z" class="cls-6"/><path d="M69.71 30.207a1.9 1.9 0 0 0-.133-.707h2.179a1.93 1.93 0 0 0 .007 1.42H69.57q.14-.332.14-.713" class="cls-7"/><path d="M71.623 30.207c0-.247.046-.487.133-.707h.36v1.42h-.353q-.14-.332-.14-.713M69.223 30.92V29.5h.354a1.93 1.93 0 0 1-.007 1.42z" class="cls-6"/><path d="M76.11 11.467c-.395 0-.78.075-1.133.214V8.185c.353.14.738.214 1.134.214a2.9 2.9 0 0 0 1.143-.224v3.516a2.9 2.9 0 0 0-1.143-.224" class="cls-7"/><path d="M76.11 8.4c-.395 0-.78-.076-1.133-.215v-.577h2.277v.567a2.9 2.9 0 0 1-1.143.224M77.254 12.247h-2.277v-.566a3.1 3.1 0 0 1 1.134-.214c.406 0 .79.075 1.143.224z" class="cls-6"/><circle id="HATCH" cx="3.685" cy="49.776" r="2.835" class="cls-7"/><circle id="LWPOLYLINE" cx="3.685" cy="49.776" r="1.417" class="cls-3"/><circle id="HATCH-2" cx="3.685" cy="22.11" r="2.835" class="cls-7" data-name="HATCH"/><circle id="LWPOLYLINE-2" cx="3.685" cy="22.11" r="1.417" class="cls-3" data-name="LWPOLYLINE"/><circle id="HATCH-3" cx="112.535" cy="22.11" r="2.835" class="cls-7" data-name="HATCH"/><circle id="LWPOLYLINE-3" cx="112.535" cy="22.11" r="1.417" class="cls-3" data-name="LWPOLYLINE"/><path id="HATCH-4" d="M83.31 65.368c-1.64 0-2.98 1.33-2.98 2.98 0 1.64 1.34 2.97 2.98 2.97s2.98-1.33 2.98-2.97c0-1.65-1.34-2.98-2.98-2.98m0 4.39c-.78 0-1.42-.63-1.42-1.41a1.419 1.419 0 1 1 2.84 0c0 .78-.64 1.41-1.42 1.41" class="cls-5" data-name="HATCH"/><path id="HATCH-5" d="M76.11 65.368c-1.64 0-2.98 1.33-2.98 2.98 0 1.64 1.34 2.97 2.98 2.97s2.98-1.33 2.98-2.97c0-1.65-1.34-2.98-2.98-2.98m0 4.39c-.78 0-1.42-.63-1.42-1.41a1.419 1.419 0 1 1 2.84 0c0 .78-.64 1.41-1.42 1.41" class="cls-5" data-name="HATCH"/><path id="HATCH-6" d="M68.91 65.368c-1.64 0-2.98 1.33-2.98 2.98 0 1.64 1.34 2.97 2.98 2.97s2.98-1.33 2.98-2.97c0-1.65-1.34-2.98-2.98-2.98m0 4.39c-.78 0-1.42-.63-1.42-1.41a1.419 1.419 0 1 1 2.84 0c0 .78-.64 1.41-1.42 1.41" class="cls-5" data-name="HATCH"/><path id="HATCH-7" d="M61.71 65.368c-1.64 0-2.98 1.33-2.98 2.98 0 1.64 1.34 2.97 2.98 2.97s2.98-1.33 2.98-2.97c0-1.65-1.34-2.98-2.98-2.98m0 4.39c-.78 0-1.42-.63-1.42-1.41a1.42 1.42 0 1 1 2.84 0c0 .78-.64 1.41-1.42 1.41" class="cls-5" data-name="HATCH"/><path id="HATCH-8" d="M32.91 65.368c-1.64 0-2.98 1.33-2.98 2.98 0 1.64 1.34 2.97 2.98 2.97s2.98-1.33 2.98-2.97c0-1.65-1.34-2.98-2.98-2.98m0 4.39c-.78 0-1.42-.63-1.42-1.41a1.419 1.419 0 1 1 2.84 0c0 .78-.64 1.41-1.42 1.41" class="cls-5" data-name="HATCH"/><path id="HATCH-9" d="M40.11 65.368c-1.64 0-2.98 1.33-2.98 2.98 0 1.64 1.34 2.97 2.98 2.97s2.98-1.33 2.98-2.97c0-1.65-1.34-2.98-2.98-2.98m0 4.39c-.78 0-1.42-.63-1.42-1.41a1.419 1.419 0 1 1 2.84 0c0 .78-.64 1.41-1.42 1.41" class="cls-5" data-name="HATCH"/><path id="HATCH-10" d="M47.31 65.368c-1.64 0-2.98 1.33-2.98 2.98 0 1.64 1.34 2.97 2.98 2.97s2.98-1.33 2.98-2.97c0-1.65-1.34-2.98-2.98-2.98m0 4.39c-.78 0-1.42-.63-1.42-1.41a1.419 1.419 0 1 1 2.84 0c0 .78-.64 1.41-1.42 1.41" class="cls-5" data-name="HATCH"/><path id="HATCH-11" d="M54.51 65.368c-1.64 0-2.98 1.33-2.98 2.98 0 1.64 1.34 2.97 2.98 2.97s2.98-1.33 2.98-2.97c0-1.65-1.34-2.98-2.98-2.98m0 4.39c-.78 0-1.42-.63-1.42-1.41a1.419 1.419 0 1 1 2.84 0c0 .78-.64 1.41-1.42 1.41" class="cls-5" data-name="HATCH"/><path id="HATCH-12" d="M12.76 50.687c-4.39 0-7.94 3.55-7.94 7.94 0 4.38 3.55 7.93 7.94 7.93a7.93 7.93 0 0 0 7.93-7.93c0-4.39-3.55-7.94-7.93-7.94m0 12.47a4.534 4.534 0 1 1 0-9.07c2.5 0 4.53 2.03 4.53 4.54 0 2.5-2.03 4.53-4.53 4.53" class="cls-5" data-name="HATCH"/><path id="HATCH-13" d="M12.76 5.327a7.94 7.94 0 0 0 0 15.88c4.38 0 7.93-3.56 7.93-7.94s-3.55-7.94-7.93-7.94m0 12.48a4.534 4.534 0 1 1 0-9.07c2.5 0 4.53 2.03 4.53 4.53 0 2.51-2.03 4.54-4.53 4.54" class="cls-5" data-name="HATCH"/><path id="HATCH-14" d="M103.47 5.327a7.94 7.94 0 0 0 0 15.88c4.38 0 7.93-3.56 7.93-7.94s-3.55-7.94-7.93-7.94m0 12.48a4.535 4.535 0 1 1 0-9.07c2.5 0 4.53 2.03 4.53 4.53 0 2.51-2.03 4.54-4.53 4.54" class="cls-5" data-name="HATCH"/><path id="HATCH-15" d="M103.47 50.687c-4.39 0-7.94 3.55-7.94 7.94 0 4.38 3.55 7.93 7.94 7.93a7.93 7.93 0 0 0 7.93-7.93c0-4.39-3.55-7.94-7.93-7.94m0 12.47a4.535 4.535 0 1 1 0-9.07c2.5 0 4.53 2.03 4.53 4.54 0 2.5-2.03 4.53-4.53 4.53" class="cls-5" data-name="HATCH"/><path id="HATCH-16" d="M47.31.857c-1.49 0-2.69 1.2-2.69 2.69s1.2 2.69 2.69 2.69S50 5.037 50 3.547 48.8.857 47.31.857m0 4.11c-.78 0-1.42-.64-1.42-1.42s.64-1.42 1.42-1.42 1.42.64 1.42 1.42-.64 1.42-1.42 1.42" class="cls-5" data-name="HATCH"/><path id="HATCH-17" d="M54.51.857c-1.49 0-2.69 1.2-2.69 2.69s1.2 2.69 2.69 2.69 2.69-1.2 2.69-2.69S56 .857 54.51.857m0 4.11c-.78 0-1.42-.64-1.42-1.42s.64-1.42 1.42-1.42 1.42.64 1.42 1.42-.64 1.42-1.42 1.42" class="cls-5" data-name="HATCH"/><path id="HATCH-18" d="M61.71.857c-1.49 0-2.69 1.2-2.69 2.69s1.2 2.69 2.69 2.69 2.69-1.2 2.69-2.69-1.2-2.69-2.69-2.69m0 4.11c-.78 0-1.42-.64-1.42-1.42s.64-1.42 1.42-1.42 1.42.64 1.42 1.42-.64 1.42-1.42 1.42" class="cls-5" data-name="HATCH"/><path id="HATCH-19" d="M68.91.857c-1.49 0-2.69 1.2-2.69 2.69s1.2 2.69 2.69 2.69 2.69-1.2 2.69-2.69-1.2-2.69-2.69-2.69m0 4.11c-.78 0-1.42-.64-1.42-1.42s.64-1.42 1.42-1.42 1.42.64 1.42 1.42-.64 1.42-1.42 1.42" class="cls-5" data-name="HATCH"/><path d="M20.756 31.59v.69h-1.42v-.69zM20.756 33.785v.689h-1.42v-.69zM20.756 37.414v.69h-1.42v-.69zM20.756 39.609v.689h-1.42v-.69zM95.9 24.877v.69h-1.42v-.69zM95.901 27.072v.689h-1.42v-.69zM92.783 24.877v.689h-1.42v-.69zM92.784 27.071v.69h-1.42v-.69z" class="cls-6"/><path d="M72.106 34.39h-1.622v7.522h3.244V34.39z"/><path d="M73.728 36.832h1.622c.276 0 .5-.182.5-.406V35.05c0-.224-.224-.405-.5-.405h-1.622zM73.728 41.666h1.622c.276 0 .5-.182.5-.406v-1.377c0-.224-.224-.405-.5-.405h-1.622zM70.503 37.057h-1.621c-.276 0-.5.181-.5.405v1.377c0 .224.224.405.5.405h1.621zM25.862 30.865h2.391v.919h-2.391zM25.862 40.103h2.391v.919h-2.391z" class="cls-6"/><path d="M27.058 31.784h-2.694v8.32h5.387v-8.32z"/><path d="M24.668 37.86h4.779v1.666h-4.779z" class="cls-6"/><path d="M51.529 32.351h2.09v7.19h-2.09z" class="cls-1"/><path d="M33.059 33.711h.98v4.47h-.98zM54.419 31.331h7.72v2.53h-7.72zM54.419 38.021h7.72v2.53h-7.72z" class="cls-6"/><path d="M53.619 34.991h.8v1.9h-.8z" class="cls-1"/><path d="M34.039 32.351h17.49v7.19h-17.49z" class="cls-4"/><path d="M51.53 30.911v1.44H34.04v-2.36h2.76v.92zM51.53 39.541v1.44H36.8v.92h-2.76v-2.36z" class="cls-1"/><path d="M36.799 29.991h14.73v.92h-14.73zM36.799 40.981h14.73v.92h-14.73zM34.04 30.591v2.39c-.99.41-1.98.28-2.23-.3-.25-.59.36-1.42 1.37-1.85.29-.13.59-.21.86-.24M34.04 38.911v2.39c-.27-.03-.57-.11-.86-.24-1.01-.43-1.62-1.26-1.37-1.85.25-.58 1.24-.71 2.23-.3" class="cls-6"/><path d="M54.419 33.861h7.72v4.16h-7.72z" class="cls-1"/><g id="USB"><path d="M102.9 27.18h11.546v17.53H102.9z" class="cls-6"/><path d="M104.55 27.18h-1.65v17.53h1.65V27.18M107.848 27.18h-1.65v17.53h1.65V27.18M111.147 27.18h-1.65v17.53h1.65V27.18M114.446 27.18h-1.65v17.53h1.65V27.18" class="cls-1"/><path d="M99.159 31.013h3.741v1.501h-3.741zM99.159 39.363h3.741v1.501h-3.741zM99.159 36.58h3.741v1.501h-3.741zM99.159 33.796h3.741v1.501h-3.741z" class="cls-4"/></g><g id="USB-2" data-name="USB"><path d="M1.773 27.18h11.546v17.53H1.773z" class="cls-6"/><path d="M11.67 44.71h1.649V27.18h-1.65v17.53M8.37 44.71h1.65V27.18H8.37v17.53M5.072 44.71h1.65V27.18h-1.65v17.53M1.773 44.71h1.65V27.18h-1.65v17.53" class="cls-1"/><path d="M17.06 40.877h-3.742v-1.501h3.741zM17.06 32.526h-3.742v-1.5h3.741zM17.06 35.31h-3.742v-1.502h3.741zM17.06 38.094h-3.742v-1.501h3.741z" class="cls-4"/></g><path d="M84.996 5.624h-.823v-.22a.21.21 0 0 1 .21-.21h.403a.21.21 0 0 1 .21.21zM86.414 5.624h-.823v-.22a.21.21 0 0 1 .21-.21h.404a.21.21 0 0 1 .209.21zM87.832 5.624h-.822v-.22a.21.21 0 0 1 .21-.21h.403a.21.21 0 0 1 .21.21zM89.25 5.624h-.822v-.22a.21.21 0 0 1 .21-.21h.403a.21.21 0 0 1 .21.21zM90.669 5.624h-.823v-.22a.21.21 0 0 1 .21-.21h.404a.21.21 0 0 1 .209.21zM89.846 14.34h.823v.22a.21.21 0 0 1-.21.21h-.403a.21.21 0 0 1-.21-.21zM88.428 14.34h.823v.22a.21.21 0 0 1-.21.21h-.404a.21.21 0 0 1-.209-.21zM87.01 14.34h.822v.22a.21.21 0 0 1-.21.21h-.403a.21.21 0 0 1-.21-.21zM85.591 14.34h.823v.22a.21.21 0 0 1-.21.21h-.403a.21.21 0 0 1-.21-.21zM84.173 14.34h.823v.22a.21.21 0 0 1-.21.21h-.403a.21.21 0 0 1-.21-.21zM91.779 7.557v-.823h.22a.21.21 0 0 1 .21.21v.403a.21.21 0 0 1-.21.21zM91.779 8.975v-.822h.22a.21.21 0 0 1 .21.209v.404a.21.21 0 0 1-.21.21zM91.779 10.393v-.822h.22a.21.21 0 0 1 .21.21v.403a.21.21 0 0 1-.21.21zM91.779 11.812v-.823h.22a.21.21 0 0 1 .21.21v.403a.21.21 0 0 1-.21.21zM91.779 13.23v-.823h.22a.21.21 0 0 1 .21.21v.404a.21.21 0 0 1-.21.209zM83.063 12.407v.823h-.22a.21.21 0 0 1-.21-.21v-.403a.21.21 0 0 1 .21-.21zM83.063 10.99v.822h-.22a.21.21 0 0 1-.21-.21v-.404a.21.21 0 0 1 .21-.209zM83.063 9.57v.823h-.22a.21.21 0 0 1-.21-.209V9.78a.21.21 0 0 1 .21-.21zM83.063 8.153v.822h-.22a.21.21 0 0 1-.21-.21v-.403a.21.21 0 0 1 .21-.21zM83.063 6.734v.823h-.22a.21.21 0 0 1-.21-.21v-.403a.21.21 0 0 1 .21-.21z" class="cls-6"/><path d="M83.063 5.624h8.715v8.715h-8.715z"/><circle cx="84.356" cy="7.001" r=".577" class="cls-6"/><path d="M8.038 46.657h5.09v2.27h-5.09z" class="cls-6"/><circle cx="10.583" cy="47.792" r="1.633" style="fill:#ebaa01"/><path d="M16.206 47.789a1.9 1.9 0 0 0-.133-.707h2.179a1.93 1.93 0 0 0 .007 1.42h-2.193q.14-.332.14-.713" style="fill:#007481"/><path d="M16.206 47.789a1.9 1.9 0 0 0-.133-.707h2.179a1.93 1.93 0 0 0 .007 1.42h-2.193q.14-.332.14-.713"/><path d="M18.119 47.789c0-.247.046-.487.133-.707h.36v1.42h-.353q-.14-.332-.14-.713M15.72 48.502v-1.42h.353a1.93 1.93 0 0 1-.007 1.42z" class="cls-6"/></svg>