<svg xmlns="http://www.w3.org/2000/svg" width="1920" height="1080" fill="none" viewBox="0 0 1920 1080"><path fill="#000" d="M153 465.854q0-4.235 2.502-6.737h2.118q8.084.577 20.21.577 22.713 0 26.755-.577h1.924q1.155 1.155 1.155 1.732 0 .578-.385 3.465-.962 2.887-1.732 3.657h-4.042q-4.235.385-5.774.385-5.583.962-6.16 2.887 0 .386 5.582 48.312 5.581 47.928 5.775 48.313l14.051-22.52a7079 7079 0 0 0 28.102-45.426q14.05-22.904 14.436-23.675.77-1.347.769-2.887 0-4.619-8.469-5.389-3.464 0-3.464-2.117 0-.193.385-2.503.577-2.694 1.155-3.464.577-.77 2.502-.77h2.31q1.924 0 6.544.192 4.62.193 12.319.193 13.281 0 16.745-.385h1.348q1.347 1.347 1.347 2.117 0 3.272-1.732 6.159-.578.578-3.272.578-2.503.192-4.62.385a14.3 14.3 0 0 0-4.042.962q-1.925.77-3.08 1.348t-2.309 1.539q-1.155.963-1.925 1.348t-1.54 1.732-1.347 1.347l-37.149 59.669q-34.646 56.012-35.801 57.359a32 32 0 0 0-1.348.962l-3.464.193h-1.348q-3.464 0-3.464-1.347-.577-1.155-7.507-61.594-7.314-61.209-7.507-61.786-.962-2.117-11.933-2.117h-3.273q-1.347-.963-1.347-2.117M282.56 620.949q-10.207 0-16.467-6.668t-6.259-16.058q0-8.845 4.082-16.738t11.159-13.744q10.342-8.301 21.093-8.301 4.354 0 5.443.136 1.77.408 3.538.952 1.77.544 4.763 2.178 2.994 1.632 4.899 4.082 1.906 2.45 3.538 6.668 1.633 4.22 1.633 9.526 0 14.56-11.703 26.264t-25.719 11.703m-10.887-17.827q0 6.804 3.538 9.798t8.029 2.994q5.988 0 11.295-4.355 5.307-4.354 8.437-11.431 1.224-2.857 3.13-10.07 1.905-7.212 1.905-12.519 0-5.988-2.449-9.118-3.267-4.082-8.71-4.082-8.572 0-15.105 7.892-5.036 5.988-7.485 15.922t-2.585 14.969M324.065 580.396q0-1.088 1.225-4.218 1.224-3.13 3.402-7.076t5.987-6.805q3.811-2.858 8.029-2.993 6.26 0 9.39 3.402t3.13 8.029q0 2.45-4.627 15.241t-4.627 19.188q0 5.851 1.905 8.165t5.716 2.449q3.81.137 7.212-2.313t5.035-4.627l1.497-2.314q.273-.543 5.171-20.684 4.083-16.33 4.899-19.052.817-2.721 1.906-3.946 2.313-2.042 4.899-2.042 2.313 0 3.402 1.361t1.088 2.586l-10.342 43.274q-.136.681-.136 2.178 0 3.402.952 4.49.953 1.089 2.858 1.225 2.994-.408 4.763-4.218 1.77-3.81 4.083-11.976.271-1.089 2.721-1.088 2.586 0 2.586 1.224a23 23 0 0 0-.272 1.905q-.136 1.226-1.225 4.355a72 72 0 0 1-2.313 5.852q-1.225 2.721-3.403 5.171t-4.899 3.402q-1.088.272-3.266.272-8.98 0-12.383-7.621-.272.137-1.497 1.361a16.2 16.2 0 0 1-2.449 2.042q-1.225.816-2.994 2.041a10.1 10.1 0 0 1-3.947 1.633 63 63 0 0 1-4.627.68q-5.986 0-10.614-2.449-7.077-4.22-7.076-14.425 0-7.757 4.763-20.276 4.762-12.52 4.762-15.922v-1.905q0-.409-.544-.953-.545-.544-1.497-.544h-.544q-3.13 0-5.716 2.585-2.585 2.586-4.082 5.58t-2.314 5.715-1.088 2.994-2.178.272h-1.905q-.816-.816-.816-1.225M402.585 567.06q-.953-.952-.953-1.361 0-.543.408-2.177.409-1.634.681-1.905.272-.68 1.225-.68.952 0 6.94-.137h7.212l2.586-10.886q.409-1.497.952-3.947.545-2.45.953-3.538.408-1.089.817-2.721.408-1.633 1.088-2.314.68-.68 1.361-1.633.681-.952 1.905-1.225a11.3 11.3 0 0 1 2.45-.272q2.45.136 3.402 1.497.952 1.36.952 2.586 0 .953-1.224 6.396a207 207 0 0 1-2.722 10.75l-1.361 5.035q0 .273 6.804.272h6.94q.954.953.953 1.497 0 2.994-1.769 4.763h-14.561l-4.899 19.732q-5.307 21.774-5.307 23.407 0 5.715 3.674 5.715 4.763 0 9.254-4.627t7.212-11.431q.272-.816.681-.952.408-.137 2.041-.272h.544q2.041 0 2.041 1.088 0 .409-.408 1.633-.68 2.178-2.449 5.171-1.77 2.994-4.627 6.396-2.858 3.402-6.94 5.716t-8.301 2.313q-4.083 0-7.757-2.041-3.675-2.042-5.307-7.076-.273-1.089-.273-3.675v-2.449l4.763-19.052q4.764-19.188 4.899-19.324 0-.272-6.94-.272zM522.08 523.79q0-2.502 2.695-3.85h122.609q2.887 1.54 2.887 3.85 0 2.116-2.694 3.657l-61.209.192h-61.209q-3.08-.962-3.079-3.849m0 37.341q0-2.887 3.079-3.85h122.418q2.694 1.925 2.694 3.85 0 2.502-2.887 3.849H524.775q-2.695-1.347-2.695-3.849M766.856 335.737q0-4.235 2.502-6.737h2.118q8.084.578 20.21.578 22.713 0 26.755-.578h1.925q1.154 1.155 1.154 1.732 0 .578-.384 3.465-.963 2.888-1.733 3.657h-4.042q-4.235.385-5.774.385-5.583.963-6.16 2.887 0 .385 5.582 48.313 5.582 47.926 5.775 48.312l14.051-22.52a7078 7078 0 0 0 28.102-45.425q14.05-22.905 14.436-23.675.77-1.347.77-2.887 0-4.62-8.469-5.39-3.465 0-3.465-2.117 0-.193.385-2.502.577-2.696 1.155-3.465.578-.77 2.502-.77h2.31q1.924 0 6.544.193 4.62.192 12.319.192 13.281 0 16.745-.385h1.348q1.347 1.347 1.347 2.117 0 3.273-1.732 6.16-.578.577-3.272.577-2.502.192-4.62.385a14.3 14.3 0 0 0-4.042.962q-1.925.77-3.08 1.348-1.154.577-2.309 1.54-1.155.962-1.925 1.347t-1.54 1.732-1.347 1.348l-37.149 59.668q-34.646 56.012-35.801 57.359-.578.385-1.347.963l-3.465.192h-1.347q-3.465 0-3.465-1.347-.577-1.155-7.507-61.594-7.314-61.208-7.506-61.786-.963-2.117-11.934-2.117h-3.272q-1.348-.962-1.348-2.117M886.89 450.008q0-4.355 2.177-8.845t7.621-8.302q5.443-3.81 13.2-3.674 8.437 0 12.247 3.674t3.947 8.165q0 4.356-2.314 6.396-2.313 2.042-5.171 2.178-1.769 0-3.266-1.089t-1.633-3.538q0-2.178 1.225-3.81 1.225-1.634 2.313-2.45 1.09-.816 1.769-.816.137 0 .137-.137 0-.408-.953-1.224-.952-.817-3.402-1.497t-5.307-.817q-6.532 0-9.526 3.538t-3.13 7.213q0 3.402 2.586 4.763t7.484 2.313q4.9.953 7.076 2.041 8.982 3.947 8.982 13.064 0 3.811-1.497 7.621t-4.491 7.621q-2.993 3.81-8.573 5.987t-12.792 2.314q-10.478 0-14.833-3.947t-4.491-9.253q0-5.308 2.858-7.621t5.988-2.313q2.041 0 3.81 1.224 1.77 1.225 1.905 4.219 0 3.538-2.449 5.988-2.45 2.45-4.219 2.449-.272.136-.408.136t-.136.272q.136.409 1.089 1.089t4.218 1.769 7.485.953q4.899 0 8.437-1.497t5.171-3.811q1.634-2.313 2.313-4.218.681-1.905.681-3.402 0-3.81-2.858-5.716-2.857-1.905-6.532-2.313t-8.029-2.041q-4.355-1.634-6.396-4.763-2.313-3.402-2.313-7.893M960.239 490.833q-10.206 0-16.466-6.668t-6.26-16.058q0-8.845 4.082-16.738 4.083-7.893 11.159-13.745 10.343-8.301 21.093-8.301 4.355 0 5.443.137 1.77.408 3.539.952 1.769.545 4.762 2.177 2.994 1.634 4.899 4.083 1.906 2.45 3.539 6.668 1.632 4.219 1.633 9.526 0 14.56-11.704 26.264-11.703 11.703-25.719 11.703m-10.887-17.827q0 6.804 3.538 9.798t8.029 2.994q5.988 0 11.295-4.355 5.308-4.354 8.437-11.431 1.225-2.858 3.13-10.07t1.905-12.52q0-5.986-2.449-9.117-3.267-4.083-8.71-4.083-8.572 0-15.105 7.893-5.034 5.988-7.484 15.922t-2.586 14.969M1001.74 450.28q0-1.089 1.23-4.218c.82-2.087 1.95-4.446 3.4-7.077s3.45-4.899 5.99-6.804 5.22-2.903 8.03-2.994q6.255 0 9.39 3.402c2.08 2.268 3.13 4.945 3.13 8.029 0 1.633-1.55 6.714-4.63 15.242s-4.63 14.923-4.63 19.187c0 3.901.64 6.623 1.91 8.165 1.27 1.543 3.17 2.359 5.71 2.45s4.95-.681 7.22-2.314c2.26-1.633 3.94-3.175 5.03-4.626l1.5-2.314c.18-.363 1.9-7.258 5.17-20.684 2.72-10.887 4.35-17.238 4.9-19.052.54-1.815 1.18-3.13 1.9-3.946 1.55-1.361 3.18-2.042 4.9-2.042 1.55 0 2.68.454 3.4 1.361.73.907 1.09 1.769 1.09 2.586l-10.34 43.274c-.09.454-.13 1.179-.13 2.177 0 2.268.31 3.765.95 4.491.63.726 1.59 1.134 2.86 1.225 1.99-.272 3.58-1.678 4.76-4.219q1.77-3.81 4.08-11.975c.18-.726 1.09-1.089 2.72-1.089 1.73 0 2.59.409 2.59 1.225q-.135.681-.27 1.905-.135 1.225-1.23 4.355a72 72 0 0 1-2.31 5.852c-.82 1.814-1.95 3.538-3.4 5.171-1.46 1.633-3.09 2.767-4.9 3.402q-1.095.272-3.27.272c-5.99 0-10.11-2.54-12.38-7.621q-.27.137-1.5 1.361c-.82.817-1.63 1.497-2.45 2.041-.82.545-1.81 1.225-2.99 2.042a10.2 10.2 0 0 1-3.95 1.633c-1.45.272-2.99.499-4.63.68-3.99 0-7.53-.816-10.61-2.449q-7.08-4.22-7.08-14.425 0-7.757 4.77-20.277c3.17-8.346 4.76-13.653 4.76-15.921v-1.906c0-.272-.18-.589-.55-.952-.36-.363-.86-.544-1.49-.544h-.55c-2.08 0-3.99.861-5.71 2.585q-2.595 2.586-4.08 5.579c-1 1.996-1.77 3.902-2.32 5.716-.54 1.814-.91 2.812-1.09 2.994-.18.181-.9.272-2.17.272h-1.91c-.54-.544-.82-.953-.82-1.225M1079.58 450.28c.09-.272.19-.635.28-1.088s.31-1.452.68-2.994c.36-1.543.81-2.949 1.36-4.219q.81-1.905 2.04-4.491c.81-1.723 1.72-3.084 2.72-4.082q1.5-1.497 3.54-2.994c1.36-.998 2.86-1.406 4.49-1.225 2.63 0 4.94.545 6.94 1.633s3.4 2.087 4.22 2.994c.81.907 1.31 1.815 1.49 2.722.19.544.32.816.41.816s.46-.317 1.09-.952c4.36-4.718 9.39-7.077 15.11-7.077h.41c4.35 0 7.62 1.86 9.79 5.58.73 1.724 1.09 3.402 1.09 5.035q0 4.083-1.77 6.532-1.77 2.45-3.54 3.13c-1.17.453-2.31.635-3.4.544q-2.715 0-4.35-1.497c-1.09-.998-1.64-2.313-1.64-3.946 0-4.355 2.54-7.258 7.63-8.709-2-1.18-3.63-1.77-4.9-1.77-5.08 0-9.76 3.357-14.02 10.071a17.8 17.8 0 0 0-2.04 4.49c-.46 1.543-2 7.576-4.63 18.099q-4.62 19.051-5.31 20.277c-1.17 2.449-3.13 3.674-5.85 3.674q-1.77 0-2.85-.816-1.095-.817-1.5-1.633t-.27-1.361c0-1.18 1.81-8.982 5.44-23.407 3.63-14.424 5.44-22.453 5.44-24.086q0-5.308-3.54-5.308-2.85 0-4.89 3.811c-1.37 2.54-2.45 5.307-3.27 8.301q-1.23 4.491-1.5 4.899c-.18.181-.9.272-2.17.272h-1.91c-.54-.544-.82-.953-.82-1.225M1142.73 467.699q0-14.834 11.7-26.673c7.8-7.892 16.24-11.839 25.31-11.839 5.08 0 9.07 1.089 11.98 3.266 2.9 2.178 4.4 5.035 4.49 8.573 0 2.631-.86 4.854-2.59 6.668-1.72 1.815-3.9 2.768-6.53 2.858-1.72 0-3.09-.453-4.08-1.361q-1.5-1.36-1.5-4.082t1.5-4.627c.99-1.27 1.99-2.223 2.99-2.858s1.63-.907 1.91-.816h.13q0-.273-.81-.817c-.55-.363-1.5-.725-2.86-1.088s-2.91-.545-4.63-.545c-2.72 0-5.31.635-7.76 1.906q-2.85 1.224-5.85 4.218c-3.99 3.992-6.89 9.617-8.71 16.874q-2.715 10.887-2.85 15.786c0 4.173 1.17 7.303 3.53 9.39 2 2.177 4.63 3.266 7.9 3.266h.54c10.16 0 18.55-3.856 25.18-11.567.81-.908 1.36-1.361 1.63-1.361q.54 0 1.77 1.225c.81.816 1.27 1.451 1.36 1.905q.135.68-1.23 2.041c-.9.907-2.22 2.177-3.94 3.81-1.73 1.633-3.77 2.994-6.13 4.083-2.35 1.089-5.26 2.223-8.71 3.402-3.44 1.179-7.07 1.678-10.88 1.497-6.81 0-12.29-2.177-16.47-6.532q-6.255-6.533-6.39-16.602M1202.33 466.474c0-5.171.86-9.889 2.59-14.153q2.58-6.395 6.66-10.614c2.73-2.812 5.76-5.171 9.12-7.076s6.53-3.312 9.53-4.219c2.99-.907 5.85-1.315 8.57-1.225h.41c4.08 0 7.62.998 10.61 2.994 3 1.996 4.49 4.945 4.49 8.846 0 8.165-5.03 13.517-15.1 16.057-4.45 1.18-10.52 1.815-18.24 1.906-3.35 0-5.08.09-5.17.272q0 .272-.81 4.763-.825 4.49-.96 7.892c0 4.264.96 7.621 2.86 10.071 1.91 2.449 4.76 3.719 8.57 3.81q5.715.136 12.66-2.586c4.63-1.814 8.8-4.808 12.52-8.981.82-.907 1.36-1.361 1.63-1.361q.555 0 1.77 1.225c.82.816 1.27 1.451 1.36 1.905s-.31 1.179-1.22 2.177q-1.365 1.497-4.08 3.675c-1.82 1.451-3.91 2.857-6.26 4.218q-3.54 2.041-8.58 3.402c-3.35.907-6.8 1.361-10.34 1.361-7.17 0-12.7-2.404-16.6-7.212-3.9-4.809-5.9-10.524-5.99-17.147m45.45-25.175c-.54-4.718-3.63-7.077-9.25-7.077-3 0-5.76.635-8.3 1.906s-4.58 2.812-6.13 4.626a37 37 0 0 0-3.94 5.58c-1.09 1.905-1.82 3.538-2.18 4.899s-.59 2.223-.68 2.585c0 .091.91.136 2.72.136 10.25 0 17.42-1.088 21.5-3.266s6.17-5.307 6.26-9.389M1434.16 454.882c0 2.566-1.34 3.849-4.04 3.849q-.96 0-4.23-3.079c-2.18-2.053-8.22-8.02-18.1-17.901l-20.01-20.018-20.21 20.211c-13.61 13.345-20.6 20.146-20.98 20.402q-.78.385-1.35.385-1.545 0-2.7-1.154c-.77-.77-1.22-1.669-1.34-2.695 0-.898.89-2.31 2.69-4.235q2.7-2.887 18.09-18.285l20.02-20.018-20.02-20.018q-15.585-15.59-18.09-18.286c-1.67-1.796-2.57-3.208-2.69-4.234 0-1.155.38-2.053 1.15-2.695s1.73-.962 2.89-.962q.96 0 1.35.192c.38.257 7.37 7.058 20.98 20.403l20.21 20.21 20.01-20.017c9.88-9.881 15.92-15.848 18.1-17.901q3.27-3.08 4.23-3.08c2.7 0 4.04 1.283 4.04 3.85q0 1.347-1.92 3.464c-1.28 1.412-7.57 7.7-18.86 18.863l-20.02 20.211 20.02 20.21c10.77 10.779 16.93 17.003 18.47 18.671q2.31 2.502 2.31 3.657M1549.69 337.854c-3.46 0-5.52-.064-6.16-.192q-.96-.193-.96-2.118c0-3.464.7-5.581 2.12-6.351.25-.129 11.42-.193 33.49-.193 22.07.128 34 .321 35.8.578 7.18 1.026 13.22 2.823 18.09 5.389 4.88 2.566 8.34 5.518 10.4 8.854 2.05 3.336 3.4 6.095 4.04 8.277a29.4 29.4 0 0 1 1.15 6.544q0 8.661-5.58 16.168t-12.9 11.549c-4.87 2.695-9.17 4.876-12.89 6.544q-5.58 2.503-7.32 2.503l1.35.962q12.9 7.314 12.9 21.173 0 2.117-.96 11.741c-.65 6.416-.97 11.677-.97 15.783v1.733c0 2.309.07 4.106.2 5.389.12 1.283.83 2.438 2.11 3.465 1.29 1.026 2.95 1.604 5.01 1.732q5.385 0 8.85-4.234 3.465-4.235 5.01-9.047c.64-1.796 1.15-2.887 1.54-3.272q.57-.578 2.88-.578c2.57 0 3.85.77 3.85 2.31q0 3.465-4.62 10.972c-4.87 7.314-10.65 10.971-17.32 10.971h-1.73q-11.745 0-19.44-4.812c-5.14-3.208-7.96-8.213-8.47-15.014q0-5.196 2.88-16.168c1.93-7.314 2.89-11.998 2.89-14.051 0-6.544-2.76-11.292-8.27-14.243-1.93-.899-3.53-1.412-4.82-1.54-1.28-.129-5.84-.257-13.66-.385h-13.28l-6.16 25.022c-4.24 16.938-6.35 25.536-6.35 25.792 0 .514.06.835.19.963q.195.192 1.35.77c.76.385 1.86.513 3.27.385 1.41-.129 3.53 0 6.35.385h5.97c.77 1.026 1.15 1.604 1.15 1.732s-.19 1.283-.58 3.465q-.765 2.502-1.92 3.657h-2.89c-4.62-.257-13.02-.385-25.21-.385h-20.98c-2.19 0-3.53.064-4.05.192q-3.27 0-3.27-1.732c0-.257.19-1.155.58-2.695q.96-3.657 1.92-4.042c.52-.128 1.48-.192 2.89-.192h1.16q5.19 0 11.55-.578c1.79-.385 3.01-1.155 3.65-2.309q.585-.77 13.86-53.51c8.85-35.159 13.28-53.702 13.28-55.626 0-.899-3.66-1.476-10.97-1.733m76.99 15.976c0-4.106-1.35-7.571-4.04-10.394s-8.21-4.619-16.55-5.389h-4.43c-2.69 0-5.13-.064-7.31-.193h-4.24c-6.03 0-9.49.642-10.39 1.925-.13.385-2.31 8.918-6.55 25.6-4.23 16.681-6.35 25.215-6.35 25.6 0 .128 4.43.192 13.28.192 10.01-.128 16.68-.577 20.02-1.347 8.21-1.283 14.63-5.069 19.25-11.357 2.05-2.951 3.78-6.801 5.2-11.548 1.41-4.748 2.11-9.111 2.11-13.089M1672.49 377.89c-3.46 0-6.22-1.155-8.27-3.465-2.06-2.309-3.08-5.132-3.08-8.469q0-13.665 10.2-23.675c6.8-6.672 15.27-10.009 25.4-10.009 11.68 0 21.43 3.593 29.26 10.779q11.745 10.779 11.94 27.91c0 5.518-1.29 10.779-3.85 15.783q-3.855 7.507-9.24 13.089c-3.6 3.721-8.73 8.469-15.4 14.243-4.62 3.978-11.04 9.881-19.25 17.708l-11.36 10.779 14.63.193c20.15 0 30.86-.321 32.15-.963.9-.256 2.43-5.967 4.62-17.13v-.578h7.7v.578c-.13.385-.97 6.223-2.51 17.515q-2.31 16.938-2.88 17.708v.578h-71.41v-5.967c0-.898.38-1.861 1.15-2.887s2.7-3.272 5.78-6.737c3.72-4.106 6.92-7.699 9.62-10.779 1.15-1.283 3.34-3.657 6.54-7.122 3.21-3.464 5.39-5.838 6.55-7.121q1.725-1.926 5.58-6.352c2.57-2.952 4.36-5.133 5.39-6.544 1.03-1.412 2.5-3.337 4.43-5.775 1.92-2.438 3.27-4.491 4.04-6.159s1.73-3.529 2.89-5.582c1.15-2.053 1.98-4.106 2.5-6.159q.765-3.08 1.35-5.775.57-2.694.57-6.352 0-12.126-6.54-20.98c-4.36-5.903-10.59-8.854-18.67-8.854-4.24 0-7.96 1.091-11.17 3.272-3.2 2.182-5.45 4.299-6.73 6.352-1.29 2.053-1.93 3.272-1.93 3.657q0 .192.96.193c2.31 0 4.69.898 7.13 2.694 2.43 1.797 3.65 4.748 3.65 8.854 0 3.208-1.02 5.903-3.08 8.084-2.05 2.182-4.94 3.337-8.66 3.465M955.159 600.011q-5.197 0-6.159-.192-.963-.192-.963-2.117 0-5.197 2.118-6.352.384-.193 33.491-.193c22.074.129 34.004.321 35.804.578q10.77 1.54 18.09 5.389c4.88 2.567 8.34 5.518 10.39 8.854 2.06 3.337 3.4 6.096 4.05 8.277a29.4 29.4 0 0 1 1.15 6.544q0 8.662-5.58 16.169t-12.9 11.548c-4.87 2.695-9.17 4.876-12.89 6.545q-5.58 2.502-7.32 2.502l1.35.962q12.9 7.314 12.9 21.173c0 1.412-.32 5.325-.97 11.741q-.96 9.624-.96 15.784v1.732c0 2.31.07 4.106.19 5.389.13 1.284.84 2.438 2.12 3.465q1.92 1.54 5.01 1.732 5.385 0 8.85-4.234c2.31-2.823 3.98-5.839 5-9.047.65-1.796 1.16-2.887 1.54-3.272.39-.385 1.35-.577 2.89-.577 2.57 0 3.85.77 3.85 2.309q0 3.465-4.62 10.972c-4.87 7.314-10.65 10.971-17.32 10.971h-1.73q-11.745 0-19.44-4.812c-5.14-3.208-7.96-8.212-8.47-15.013q0-5.197 2.88-16.169c1.93-7.314 2.89-11.998 2.89-14.051q0-9.816-8.28-14.243-2.882-1.348-4.808-1.54-1.924-.192-13.666-.385h-13.281l-6.159 25.022q-6.352 25.408-6.352 25.793 0 .77.192.962.193.192 1.348.77 1.155.577 3.272.385t6.352.385h5.967q1.154 1.54 1.154 1.732 0 .193-.577 3.465-.77 2.502-1.925 3.657h-2.887q-6.928-.385-25.215-.385h-20.98q-3.273 0-4.042.193-3.273 0-3.272-1.733 0-.385.577-2.695.963-3.657 1.925-4.042.77-.192 2.887-.192h1.155q5.197 0 11.549-.577 2.694-.577 3.657-2.31.577-.77 13.858-53.51t13.282-55.626q0-1.347-10.972-1.733m76.991 15.976c0-4.106-1.35-7.571-4.04-10.394-2.7-2.823-8.21-4.619-16.55-5.389h-4.43c-2.7 0-5.13-.064-7.316-.193h-4.234q-9.047 0-10.394 1.925-.192.577-6.544 25.6t-6.352 25.6q0 .192 13.281.192c10.009-.128 16.679-.577 20.019-1.347 8.21-1.283 14.63-5.069 19.25-11.356q3.075-4.428 5.19-11.549c1.42-4.748 2.12-9.111 2.12-13.089M1085.97 672.837l-1.77.681c-1.27.453-3.09.907-5.45 1.36-2.35.454-4.99.771-7.89.953h-2.58v-6.26h2.58c4.27-.181 8.21-.862 11.84-2.041q5.445-1.77 7.62-3.266 2.175-1.497 3.81-2.994c.18-.272.73-.408 1.63-.408.82 0 1.59.272 2.32.816v40.689l.13 40.825c.64.635 1.18 1.043 1.64 1.225.45.181 1.54.363 3.26.544 1.73.182 4.54.272 8.44.272h3.54v6.26h-1.5c-1.9-.272-9.12-.408-21.64-.408-12.33 0-19.46.136-21.36.408h-1.63v-6.26h8.71c1.45 0 2.58-.045 3.4-.136.81-.09 1.54-.227 2.18-.408q.945-.272 1.08-.272c.09 0 .37-.227.82-.681.45-.453.73-.635.82-.544zM1188.21 677.004v-2.502q0-2.503 2.7-3.85h57.55V641.78l.19-28.872c1.29-1.668 2.5-2.502 3.66-2.502 1.67 0 2.95.962 3.85 2.887v57.359h57.36c1.92 1.026 2.89 2.31 2.89 3.85 0 1.539-.97 2.823-2.89 3.849h-57.36v57.359c-1.03 1.797-2.18 2.695-3.47 2.695h-.77c-1.54 0-2.69-.898-3.46-2.695v-57.359h-57.55q-2.7-1.347-2.7-3.849zM1414.22 600.011c-3.46 0-5.51-.064-6.16-.192q-.96-.192-.96-2.117c0-3.465.71-5.582 2.12-6.352.26-.128 11.42-.193 33.49-.193 22.07.129 34 .321 35.8.578q10.785 1.54 18.09 5.389c4.88 2.567 8.35 5.518 10.4 8.854 2.05 3.337 3.4 6.096 4.04 8.277a29.4 29.4 0 0 1 1.16 6.544c0 5.775-1.87 11.164-5.59 16.169-3.72 5.004-8.02 8.854-12.89 11.548q-7.32 4.042-12.9 6.545c-3.72 1.668-6.16 2.502-7.31 2.502l1.34.962q12.9 7.314 12.9 21.173 0 2.118-.96 11.741-.96 9.624-.96 15.784v1.732c0 2.31.06 4.106.19 5.389s.83 2.438 2.12 3.465c1.28 1.027 2.95 1.604 5 1.732q5.385 0 8.85-4.234 3.465-4.235 5.01-9.047c.64-1.796 1.15-2.887 1.54-3.272.38-.385 1.35-.577 2.89-.577 2.56 0 3.85.77 3.85 2.309q0 3.465-4.62 10.972c-4.88 7.314-10.65 10.971-17.33 10.971h-1.73q-11.745 0-19.44-4.812c-5.13-3.208-7.96-8.212-8.47-15.013 0-3.465.96-8.854 2.89-16.169q2.88-10.971 2.88-14.051c0-6.544-2.75-11.292-8.27-14.243-1.93-.898-3.53-1.412-4.81-1.54-1.29-.128-5.84-.257-13.67-.385h-13.28l-6.16 25.022c-4.23 16.939-6.35 25.536-6.35 25.793 0 .513.06.834.19.962q.195.192 1.35.77 1.155.577 3.27.385c1.41-.128 3.53 0 6.35.385h5.97c.77 1.027 1.15 1.604 1.15 1.732q0 .193-.57 3.465c-.52 1.668-1.16 2.887-1.93 3.657h-2.89c-4.62-.257-13.02-.385-25.21-.385h-20.98c-2.18 0-3.53.064-4.04.193-2.18 0-3.28-.578-3.28-1.733 0-.256.2-1.155.58-2.695.64-2.438 1.29-3.785 1.93-4.042q.765-.192 2.88-.192h1.16q5.19 0 11.55-.577c1.79-.385 3.01-1.155 3.65-2.31q.585-.77 13.86-53.51c8.86-35.159 13.28-53.701 13.28-55.626 0-.898-3.65-1.476-10.97-1.733m77 15.976q0-6.16-4.05-10.394c-2.69-2.823-8.21-4.619-16.55-5.389h-4.43c-2.69 0-5.13-.064-7.31-.193h-4.24c-6.03 0-9.49.642-10.39 1.925q-.195.577-6.54 25.6-6.36 25.023-6.36 25.6 0 .192 13.29.192c10-.128 16.68-.577 20.01-1.347 8.22-1.283 14.63-5.069 19.25-11.356 2.05-2.952 3.79-6.801 5.2-11.549s2.12-9.111 2.12-13.089M1530.88 693.113q-3.675 0-5.85-2.449c-1.46-1.633-2.18-3.629-2.18-5.988 0-6.441 2.4-12.02 7.21-16.738 4.81-4.717 10.8-7.076 17.96-7.076 8.26 0 15.16 2.54 20.69 7.62 5.53 5.081 8.35 11.658 8.44 19.733q0 5.851-2.73 11.158c-1.81 3.538-3.99 6.623-6.53 9.254s-6.17 5.988-10.88 10.07c-3.27 2.813-7.81 6.986-13.61 12.52l-8.03 7.62 10.34.137c14.24 0 21.82-.227 22.73-.681.63-.181 1.72-4.218 3.26-12.111v-.409h5.45v.409q-.135.408-1.77 12.383-1.635 11.976-2.04 12.52v.408h-50.49v-4.218c0-.635.27-1.316.82-2.042q.81-1.088 4.08-4.763a564 564 0 0 0 6.8-7.62 626 626 0 0 1 4.63-5.035c2.27-2.45 3.81-4.128 4.63-5.035.81-.908 2.13-2.405 3.94-4.491q2.73-3.13 3.81-4.627c.73-.998 1.77-2.359 3.13-4.082 1.36-1.724 2.32-3.176 2.86-4.355s1.23-2.495 2.04-3.947q1.23-2.177 1.77-4.354c.36-1.452.68-2.813.95-4.083.28-1.27.41-2.767.41-4.49 0-5.716-1.54-10.66-4.63-14.833q-4.62-6.26-13.2-6.26-4.485 0-7.89 2.313c-2.27 1.542-3.85 3.039-4.76 4.491s-1.36 2.313-1.36 2.585c0 .091.22.137.68.137 1.63 0 3.31.635 5.03 1.905 1.73 1.27 2.59 3.356 2.59 6.26 0 2.268-.73 4.173-2.18 5.715q-2.175 2.313-6.12 2.449M1767 548.234H737.599v-11.548H1767z"/></svg>