<?xml version="1.0" encoding="UTF-8"?>
<svg xmlns="http://www.w3.org/2000/svg" viewBox="0 0 428 488">
  <defs>
    <style>
      .cls-1, .cls-2, .cls-3, .cls-4, .cls-5, .cls-6, .cls-7 {
        fill: none;
      }

      .cls-1, .cls-2, .cls-4, .cls-5, .cls-6 {
        stroke-miterlimit: 3.864;
      }

      .cls-1, .cls-2, .cls-8, .cls-6, .cls-7 {
        stroke: #fff;
      }

      .cls-1, .cls-6, .cls-7 {
        stroke-width: .9299px;
      }

      .cls-2 {
        stroke-width: .9297px;
      }

      .cls-3 {
        stroke-miterlimit: 3.86369;
        stroke-width: .5px;
      }

      .cls-3, .cls-4, .cls-5 {
        stroke: #ecf1f1;
      }

      .cls-9, .cls-8 {
        fill: #fff;
      }

      .cls-10, .cls-11 {
        fill: #ecf1f1;
      }

      .cls-12 {
        fill: #7f8c8d;
      }

      .cls-13 {
        fill: #666b68;
      }

      .cls-14 {
        fill: #bcc3c4;
      }

      .cls-15 {
        fill: #d6dadb;
      }

      .cls-16 {
        fill: #373d3a;
      }

      .cls-17 {
        fill: #a3acad;
      }

      .cls-18 {
        fill: #464c48;
      }

      .cls-19 {
        fill: #2a312d;
      }

      .cls-20 {
        fill: #555a57;
      }

      .cls-21 {
        fill: #797d7b;
      }

      .cls-4 {
        stroke-width: .8px;
      }

      .cls-8 {
        stroke-miterlimit: 10;
        stroke-width: .83102px;
      }

      .cls-5 {
        stroke-width: .56298px;
      }

      .cls-11 {
        fill-rule: evenodd;
      }

      .cls-6 {
        stroke-linecap: round;
      }

      .cls-7 {
        stroke-linejoin: round;
      }
    </style>
  </defs>
  <g id="Illustration">
    <g>
      <path class="cls-17" d="M106.09998,438.97998v13.15002c0,2.28998,1.85004,4.14996,4.14001,4.14996h5.47003l9.65997,5.28003c1.97998,1.08002,4.21002,1.64996,6.47003,1.64996h164.31995c2.26001,0,4.49005-.56995,6.47003-1.64996l9.65997-5.28003h5.47003c2.28998,0,4.14001-1.85999,4.14001-4.14996v-13.15002H106.09998Zm138.32001,13.66998c0,.69-.56,1.25-1.25,1.25-2.72998,0-5.42999,.49005-8.01996,1.35004-6.65002,2.20001-13.76001,3.39996-21.15002,3.39996s-14.5-1.19995-21.15002-3.39996c-2.58997-.85999-5.28998-1.35004-8.01996-1.35004-.69,0-1.25-.56-1.25-1.25v-6.21997c0-.69,.56-1.25,1.25-1.25h58.33997c.69,0,1.25,.56,1.25,1.25v6.21997Z"/>
      <rect class="cls-20" x="51.10636" y="47.25827" width="325.78729" height="393.48346"/>
      <rect class="cls-18" x="51.10636" y="99.05822" width="325.78729" height="289.88356" transform="translate(428 488) rotate(-180)"/>
      <rect class="cls-20" x="51.10636" y="139.22544" width="325.78729" height="209.54911"/>
      <g>
        <rect class="cls-15" x="63.12974" y="65.80821" width="138.03712" height="21.14835" rx="10.57416" ry="10.57416" transform="translate(264.29661 152.76478) rotate(-180)"/>
        <g>
          <path class="cls-17" d="M82.34084,73.7664c.1998,.66044,.32012,1.33447,.37149,1.98759,.28345,4.11421-2.2869,8.01564-6.39314,9.25791-4.11576,1.24515-8.41773-.5772-10.45285-4.16147-.31934-.57205-.59278-1.19976-.79258-1.8602s-.31728-1.32487-.36859-1.97801c-.29301-4.11125,2.27444-8.02226,6.3902-9.26741,4.10624-1.24226,8.42069,.58676,10.45579,4.17098,.31929,.57207,.58988,1.19018,.78969,1.85062Z"/>
          <path class="cls-12" d="M82.34084,73.7664c.1998,.66044,.32012,1.33447,.37149,1.98759l-16.846,5.09643c-.31934-.57205-.59278-1.19976-.79258-1.8602s-.31728-1.32487-.36859-1.97801l16.846-5.09643c.31929,.57207,.58988,1.19018,.78969,1.85062Z"/>
        </g>
        <g>
          <path class="cls-17" d="M182.00584,73.61438c.21206-.65661,.49718-1.2791,.82706-1.84513,2.11098-3.54271,6.44611-5.2847,10.52853-3.96626,4.09188,1.3215,6.5892,5.27009,6.21973,9.37523-.06346,.65207-.19635,1.32373-.40841,1.98034s-.49405,1.26959-.82398,1.8356c-2.10144,3.54573-6.43964,5.29725-10.53153,3.97574-4.08242-1.31845-6.58619-5.27963-6.21673-9.38472,.06351-.65205,.19327-1.3142,.40533-1.97081Z"/>
          <path class="cls-12" d="M182.00584,73.61438c.21206-.65661,.49718-1.2791,.82706-1.84513l16.74826,5.40897c-.06346,.65207-.19635,1.32373-.40841,1.98034s-.49405,1.26959-.82398,1.8356l-16.74826-5.40897c.06351-.65205,.19327-1.3142,.40533-1.97081Z"/>
        </g>
        <g>
          <path class="cls-17" d="M159.52399,81.10244c-.36076-.58818-.64807-1.20966-.8634-1.82841-1.31754-3.90783,.17939-8.33356,3.83636-10.57655,3.66545-2.24819,8.28893-1.57639,11.16649,1.3746,.45398,.47236,.87766,1.01021,1.23842,1.59839s.64289,1.2011,.85816,1.81987c1.32604,3.90254-.16565,8.33681-3.83111,10.585-3.65697,2.24299-8.29422,1.56789-11.17174-1.38305-.45392-.4724-.87243-1.00168-1.23318-1.58986Z"/>
          <path class="cls-12" d="M159.52399,81.10244c-.36076-.58818-.64807-1.20966-.8634-1.82841l15.00285-9.20195c.45398,.47236,.87766,1.01021,1.23842,1.59839s.64289,1.2011,.85816,1.81987l-15.00285,9.20195c-.45392-.4724-.87243-1.00168-1.23318-1.58986Z"/>
        </g>
        <g>
          <path class="cls-17" d="M148.06297,84.35495c-.60957,.32331-1.24779,.57124-1.87877,.74749-3.9825,1.07084-8.30608-.69964-10.31624-4.48959-2.01482-3.79874-1.0555-8.37122,2.06949-11.05881,.4998-.42358,1.06306-.81284,1.67263-1.13615s1.23892-.5666,1.86993-.7428c3.97776-1.07966,8.31018,.68613,10.325,4.48487,2.01016,3.78995,1.04669,8.37596-2.07825,11.06352-.49983,.42353-1.05422,.80815-1.66379,1.13146Z"/>
          <path class="cls-12" d="M148.06297,84.35495c-.60957,.32331-1.24779,.57124-1.87877,.74749l-8.24674-15.54839c.4998-.42358,1.06306-.81284,1.67263-1.13615s1.23892-.5666,1.86993-.7428l8.24674,15.54839c-.49983,.42353-1.05422,.80815-1.66379,1.13146Z"/>
        </g>
        <g>
          <path class="cls-17" d="M118.79756,85.25188c-.67818-.12718-1.33177-.33117-1.93502-.58669-3.78156-1.64526-6.05861-5.72483-5.26786-9.94136,.79258-4.22631,4.39305-7.20365,8.51193-7.35711,.65486-.01965,1.33794,.0271,2.01612,.15429s1.32195,.32926,1.92519,.58484c3.78334,1.63541,6.07023,5.71683,5.27765,9.94314-.79075,4.21653-4.4029,7.20186-8.52172,7.35534-.65485,.01959-1.3281-.02526-2.00628-.15244Z"/>
          <path class="cls-12" d="M118.79756,85.25188c-.67818-.12718-1.33177-.33117-1.93502-.58669l3.24407-17.29848c.65486-.01965,1.33794,.0271,2.01612,.15429s1.32195,.32926,1.92519,.58484l-3.24407,17.29848c-.65485,.01959-1.3281-.02526-2.00628-.15244Z"/>
        </g>
        <g>
          <path class="cls-17" d="M89.30309,71.8233c.34907-.59519,.76209-1.14127,1.2066-1.62254,2.82733-3.00221,7.43664-3.76522,11.13721-1.59491,3.70915,2.17534,5.29322,6.57063,4.04451,10.49866-.203,.62291-.47804,1.24991-.82711,1.84511s-.75698,1.13267-1.20153,1.61391c-2.81866,3.00722-7.43304,3.77886-11.14219,1.60352-3.70057-2.1703-5.28821-6.5793-4.03953-10.50728,.20306-.62288,.47297-1.24128,.82204-1.83647Z"/>
          <path class="cls-12" d="M89.30309,71.8233c.34907-.59519,.76209-1.14127,1.2066-1.62254l15.18172,8.90375c-.203,.62291-.47804,1.24991-.82711,1.84511s-.75698,1.13267-1.20153,1.61391l-15.18172-8.90375c.20306-.62288,.47297-1.24128,.82204-1.83647Z"/>
        </g>
      </g>
      <g>
        <rect class="cls-15" x="226.83313" y="65.80821" width="138.03712" height="21.14835" rx="10.57416" ry="10.57416"/>
        <g>
          <path class="cls-17" d="M355.17436,67.40964c.6867,.06745,1.35561,.21355,1.97888,.41539,3.91083,1.30859,6.53559,5.17363,6.11624,9.44313-.42032,4.2794-3.74691,7.5599-7.83663,8.07262-.65064,.07678-1.33519,.08989-2.02189,.02244s-1.34566-.21251-1.96892-.41442c-3.91175-1.29862-6.54647-5.16464-6.12615-9.44404,.41935-4.26949,3.75687-7.55898,7.84654-8.07171,.65063-.07672,1.32523-.09087,2.01192-.02342Z"/>
          <path class="cls-12" d="M355.17436,67.40964c.6867,.06745,1.35561,.21355,1.97888,.41539l-1.72039,17.51575c-.65064,.07678-1.33519,.08989-2.02189,.02244s-1.34566-.21251-1.96892-.41442l1.72039-17.51575c.65063-.07672,1.32523-.09087,2.01192-.02342Z"/>
        </g>
        <g>
          <path class="cls-17" d="M243.75179,69.96346c.49072,.48508,.91806,1.02002,1.27484,1.56949,2.21217,3.48042,1.81483,8.13553-1.2011,11.18653-3.02292,3.05808-7.67312,3.50921-11.17185,1.33031-.5536-.35036-1.09341-.77154-1.58413-1.25661s-.91099-1.01294-1.26772-1.56245c-2.21916-3.47326-1.82894-8.1354,1.19398-11.19348,3.01593-3.051,7.68029-3.50222,11.17897-1.32336,.55356,.3504,1.08629,.7645,1.57701,1.24958Z"/>
          <path class="cls-12" d="M243.75179,69.96346c.49072,.48508,.91806,1.02002,1.27484,1.56949l-12.37295,12.51684c-.5536-.35036-1.09341-.77154-1.58413-1.25661s-.91099-1.01294-1.26772-1.56245l12.37295-12.51684c.55356,.3504,1.08629,.7645,1.57701,1.24958Z"/>
        </g>
        <g>
          <path class="cls-17" d="M267.22874,82.69225c-.483,.49276-1.01613,.92237-1.56409,1.28147-3.47104,2.22687-8.12778,1.84922-11.19151-1.15378-3.07083-3.00996-3.54163-7.65822-1.37754-11.16613,.34801-.55508,.7669-1.09666,1.2499-1.58942s1.00908-.91526,1.55708-1.27432c3.46384-2.23383,8.1276-1.86333,11.19843,1.14664,3.06373,3.003,3.53467,7.66541,1.37062,11.17327-.34806,.55503-.7599,1.08951-1.2429,1.58228Z"/>
          <path class="cls-12" d="M267.22874,82.69225c-.483,.49276-1.01613,.92237-1.56409,1.28147l-12.56905-12.31991c.34801-.55508,.7669-1.09666,1.2499-1.58942s1.00908-.91526,1.55708-1.27432l12.56905,12.31991c-.34806,.55503-.7599,1.08951-1.2429,1.58228Z"/>
        </g>
        <g>
          <path class="cls-17" d="M276.25346,80.71326c-.33161-.6051-.58823-1.23987-.77308-1.86839-1.12514-3.9675,.58611-8.31486,4.34824-10.3766,3.77086-2.06652,8.35602-1.16976,11.08605,1.91823,.43037,.49397,.82728,1.05186,1.15889,1.65696s.58348,1.23106,.76827,1.85961c1.13389,3.96264-.57255,8.31877-4.34341,10.3853-3.76213,2.06174-8.36088,1.16101-11.09088-1.92693-.43032-.494-.82247-1.04308-1.15408-1.64818Z"/>
          <path class="cls-12" d="M276.25346,80.71326c-.33161-.6051-.58823-1.23987-.77308-1.86839l15.43429-8.45837c.43037,.49397,.82728,1.05186,1.15889,1.65696s.58348,1.23106,.76827,1.85961l-15.43429,8.45837c-.43032-.494-.82247-1.04308-1.15408-1.64818Z"/>
        </g>
        <g>
          <path class="cls-17" d="M313.20135,69.35636c.53716,.43309,1.0163,.92218,1.4267,1.43285,2.55206,3.23944,2.62646,7.91089-.06622,11.25063-2.69893,3.34749-7.27987,4.26554-10.9806,2.45079-.58613-.29271-1.16568-.65727-1.70284-1.09036s-1.00855-.91585-1.41891-1.42656c-2.5583-3.23161-2.64049-7.90934,.05844-11.25683,2.69268-3.33975,7.2877-4.25931,10.98839-2.4446,.58609,.29276,1.15788,.65099,1.69504,1.08407Z"/>
          <path class="cls-12" d="M313.20135,69.35636c.53716,.43309,1.0163,.92218,1.4267,1.43285l-11.04682,13.70142c-.58613-.29271-1.16568-.65727-1.70284-1.09036s-1.00855-.91585-1.41891-1.42656l11.04682-13.70142c.58609,.29276,1.15788,.65099,1.69504,1.08407Z"/>
        </g>
        <g>
          <path class="cls-17" d="M339.92532,76.82285c-.03401,.68916-.14744,1.36439-.31876,1.99673-1.11705,3.96979-4.85001,6.77922-9.13483,6.56779-4.29476-.21192-7.73301-3.3752-8.44381-7.43519-.1083-.64614-.15465-1.32924-.12064-2.01841s.14688-1.35439,.31827-1.98673c1.10705-3.97022,4.8405-6.78965,9.13526-6.57773,4.28483,.21143,7.73258,3.3852,8.44338,7.44513,.10824,.64613,.15514,1.31925,.12114,2.00841Z"/>
          <path class="cls-12" d="M339.92532,76.82285c-.03401,.68916-.14744,1.36439-.31876,1.99673l-17.57865-.8674c-.1083-.64614-.15465-1.32924-.12064-2.01841s.14688-1.35439,.31827-1.98673l17.57865,.8674c.10824,.64613,.15514,1.31925,.12114,2.00841Z"/>
        </g>
      </g>
      <g>
        <rect class="cls-19" x="226.83313" y="115.3902" width="67.89955" height="21.14835" rx="10.57416" ry="10.57416"/>
        <g>
          <path class="cls-17" d="M245.99416,128.73238c-.21206,.65661-.49718,1.2791-.82706,1.84513-2.11098,3.54271-6.44611,5.2847-10.52853,3.96626-4.09188-1.3215-6.5892-5.27009-6.21973-9.37523,.06346-.65207,.19635-1.32373,.40841-1.98034s.49405-1.26959,.82398-1.8356c2.10144-3.54573,6.43964-5.29725,10.53153-3.97574,4.08242,1.31845,6.58619,5.27963,6.21673,9.38472-.06351,.65205-.19327,1.3142-.40533,1.97081Z"/>
          <path class="cls-12" d="M245.99416,128.73238c-.21206,.65661-.49718,1.2791-.82706,1.84513l-16.74826-5.40897c.06346-.65207,.19635-1.32373,.40841-1.98034s.49405-1.26959,.82398-1.8356l16.74826,5.40897c-.06351,.65205-.19327,1.3142-.40533,1.97081Z"/>
        </g>
        <g>
          <path class="cls-17" d="M268.47601,121.24431c.36076,.58818,.64807,1.20966,.8634,1.82841,1.31754,3.90783-.17939,8.33356-3.83636,10.57655-3.66545,2.24819-8.28893,1.57639-11.16649-1.3746-.45398-.47236-.87766-1.01021-1.23842-1.59839s-.64289-1.2011-.85816-1.81987c-1.32604-3.90254,.16565-8.33681,3.83111-10.585,3.65697-2.24299,8.29422-1.56789,11.17174,1.38305,.45392,.4724,.87243,1.00168,1.23318,1.58986Z"/>
          <path class="cls-12" d="M268.47601,121.24431c.36076,.58818,.64807,1.20966,.8634,1.82841l-15.00285,9.20195c-.45398-.47236-.87766-1.01021-1.23842-1.59839s-.64289-1.2011-.85816-1.81987l15.00285-9.20195c.45392,.4724,.87243,1.00168,1.23318,1.58986Z"/>
        </g>
        <g>
          <path class="cls-17" d="M279.93703,117.99181c.60957-.32331,1.24779-.57124,1.87877-.74749,3.9825-1.07084,8.30608,.69964,10.31624,4.48959,2.01482,3.79874,1.0555,8.37122-2.06949,11.05881-.4998,.42358-1.06306,.81284-1.67263,1.13615s-1.23892,.5666-1.86993,.7428c-3.97776,1.07966-8.31018-.68613-10.325-4.48487-2.01016-3.78995-1.04669-8.37596,2.07825-11.06352,.49983-.42353,1.05422-.80815,1.66379-1.13146Z"/>
          <path class="cls-12" d="M279.93703,117.99181c.60957-.32331,1.24779-.57124,1.87877-.74749l8.24674,15.54839c-.4998,.42358-1.06306,.81284-1.67263,1.13615s-1.23892,.5666-1.86993,.7428l-8.24674-15.54839c.49983-.42353,1.05422-.80815,1.66379-1.13146Z"/>
        </g>
      </g>
      <rect class="cls-19" x="211.76002" y="47.25827" width="4.47996" height="51.79995"/>
      <g>
        <rect class="cls-15" x="226.83313" y="401.04344" width="44.54428" height="21.14835" rx="10.57416" ry="10.57416"/>
        <g>
          <path class="cls-17" d="M245.76767,408.21928c.25965,.63928,.4414,1.29941,.55257,1.94504,.66033,4.07075-1.54062,8.19188-5.51532,9.80624-3.98392,1.6181-8.43516,.1988-10.79105-3.18328-.37056-.54028-.70053-1.14021-.96018-1.77949s-.43769-1.29011-.5488-1.93577c-.66958-4.06693,1.5276-8.19733,5.51152-9.81543,3.97471-1.61436,8.43898-.18955,10.79485,3.19248,.37051,.54031,.69676,1.13093,.95641,1.77022Z"/>
          <path class="cls-12" d="M245.76767,408.21928c.25965,.63928,.4414,1.29941,.55257,1.94504l-16.30637,6.62296c-.37056-.54028-.70053-1.14021-.96018-1.77949s-.43769-1.29011-.5488-1.93577l16.30637-6.62296c.37051,.54031,.69676,1.13093,.95641,1.77022Z"/>
        </g>
        <g>
          <path class="cls-17" d="M261.25355,420.62148c-.68908,.03568-1.3723-.00907-2.0187-.11574-4.06222-.71094-7.23384-4.14149-7.45568-8.42579-.22235-4.29424,2.578-8.03401,6.54559-9.1507,.63192-.17292,1.30687-.28793,1.99595-.32361s1.3623,.00952,2.0087,.11626c4.06164,.70095,7.24326,4.13098,7.46561,8.42522,.22184,4.2843-2.588,8.03459-6.55552,9.15128-.63192,.17286-1.29687,.28742-1.98595,.3231Z"/>
          <path class="cls-12" d="M261.25355,420.62148c-.68908,.03568-1.3723-.00907-2.0187-.11574l-.91009-17.57649c.63192-.17292,1.30687-.28793,1.99595-.32361s1.3623,.00952,2.0087,.11626l.91009,17.57649c-.63192,.17286-1.29687,.28742-1.98595,.3231Z"/>
        </g>
      </g>
      <g>
        <rect class="cls-15" x="250.22906" y="351.46146" width="21.14835" height="21.14835" rx="10.57416" ry="10.57416"/>
        <g>
          <path class="cls-17" d="M255.60392,369.40627c-.56383-.39774-1.07336-.85509-1.51568-1.33838-2.75461-3.06907-3.12851-7.72612-.6556-11.23171,2.47864-3.51372,6.99126-4.72373,10.80078-3.15011,.60369,.25451,1.20544,.58114,1.76927,.97888s1.06522,.84927,1.5075,1.33261c2.76033,3.06085,3.1424,7.72367,.66376,11.23739-2.4729,3.50559-6.99948,4.71801-10.80894,3.14442-.60366-.25456-1.19726-.57537-1.76109-.97311Z"/>
          <path class="cls-12" d="M255.60392,369.40627c-.56383-.39774-1.07336-.85509-1.51568-1.33838l10.14518-14.38182c.60369,.25451,1.20544,.58114,1.76927,.97888s1.06522,.84927,1.5075,1.33261l-10.14518,14.38182c-.60366-.25456-1.19726-.57537-1.76109-.97311Z"/>
        </g>
      </g>
      <g>
        <rect class="cls-15" x="320.32598" y="401.04344" width="44.54428" height="21.14835" rx="10.57416" ry="10.57416"/>
        <g>
          <path class="cls-17" d="M339.90033,412.26021c-.04947,.68823-.17803,1.36073-.36351,1.98907-1.20589,3.94371-5.00098,6.66863-9.27998,6.36106-4.28892-.30828-7.65529-3.54796-8.27477-7.62288-.09377-.64841-.12477-1.33238-.0753-2.02061s.17725-1.35075,.36279-1.97908c1.1959-3.94437,4.99171-6.67927,9.28063-6.37099,4.279,.30757,7.65463,3.55795,8.27411,7.6328,.09371,.6484,.12549,1.3224,.07602,2.01062Z"/>
          <path class="cls-12" d="M339.90033,412.26021c-.04947,.68823-.17803,1.36073-.36351,1.98907l-17.55475-1.26182c-.09377-.64841-.12477-1.33238-.0753-2.02061s.17725-1.35075,.36279-1.97908l17.55475,1.26182c.09371,.6484,.12549,1.3224,.07602,2.01062Z"/>
        </g>
        <g>
          <path class="cls-17" d="M363.13896,413.31007c-.12978,.67769-.33627,1.33049-.5941,1.93276-1.65973,3.77522-5.748,6.03663-9.96148,5.22973-4.22324-.80877-7.18676-4.42062-7.32444-8.54005-.01714-.65493,.03223-1.33782,.16201-2.01551s.33432-1.32067,.59222-1.92293c1.64989-3.77705,5.74004-6.04828,9.96329-5.23951,4.21347,.8069,7.18494,4.43046,7.32263,8.54984,.01708,.65492-.03035,1.32799-.16013,2.00568Z"/>
          <path class="cls-12" d="M363.13896,413.31007c-.12978,.67769-.33627,1.33049-.5941,1.93276l-17.28592-3.31032c-.01714-.65493,.03223-1.33782,.16201-2.01551s.33432-1.32067,.59222-1.92293l17.28592,3.31032c.01708,.65492-.03035,1.32799-.16013,2.00568Z"/>
        </g>
      </g>
      <g>
        <rect class="cls-15" x="63.12974" y="401.04344" width="44.54428" height="21.14835" rx="10.57416" ry="10.57416"/>
        <g>
          <path class="cls-17" d="M81.76332,415.67076c-.31037,.61626-.68769,1.18759-1.10057,1.69625-2.62993,3.17655-7.18114,4.23222-11.01269,2.30254-3.84044-1.93415-5.70183-6.21937-4.70639-10.2191,.16283-.63459,.39728-1.27788,.70765-1.89414s.68314-1.17868,1.09607-1.68731c2.62097-3.181,7.17667-4.2456,11.01711-2.31146,3.83155,1.92967,5.69738,6.22834,4.70197,10.22801-.16288,.63457-.39278,1.26894-.70314,1.8852Z"/>
          <path class="cls-12" d="M81.76332,415.67076c-.31037,.61626-.68769,1.18759-1.10057,1.69625l-15.71908-7.91655c.16283-.63459,.39728-1.27788,.70765-1.89414s.68314-1.17868,1.09607-1.68731l15.71908,7.91655c-.16288,.63457-.39278,1.26894-.70314,1.8852Z"/>
        </g>
        <g>
          <path class="cls-17" d="M104.60286,416.59578c-.38113,.57519-.82343,1.09784-1.29361,1.55406-2.98744,2.84293-7.6316,3.35248-11.20781,.98285-3.58451-2.37512-4.9256-6.85054-3.46373-10.70433,.2368-.61086,.54574-1.22187,.92687-1.79706s.81785-1.08953,1.28808-1.54572c2.97906-2.84841,7.62875-3.3663,11.21326-.99118,3.57621,2.36963,4.92012,6.85892,3.45828,10.71265-.23685,.61083-.54022,1.21353-.92134,1.78872Z"/>
          <path class="cls-12" d="M104.60286,416.59578c-.38113,.57519-.82343,1.09784-1.29361,1.55406l-14.67154-9.72148c.2368-.61086,.54574-1.22187,.92687-1.79706s.81785-1.08953,1.28808-1.54572l14.67154,9.72148c-.23685,.61083-.54022,1.21353-.92134,1.78872Z"/>
        </g>
      </g>
      <g>
        <rect class="cls-15" x="156.62259" y="401.04344" width="44.54428" height="21.14835" rx="10.57416" ry="10.57416"/>
        <g>
          <path class="cls-17" d="M175.74963,408.73838c.21994,.65401,.36085,1.32404,.4322,1.97528,.40934,4.10359-2.04029,8.08193-6.10656,9.4494-4.07569,1.37063-8.43146-.31908-10.57542-3.83933-.33672-.562-.62925-1.18104-.84919-1.83505s-.35771-1.31453-.42901-1.96579c-.41881-4.10034,2.02764-8.08817,6.10333-9.45881,4.06626-1.36746,8.43471,.32855,10.57865,3.84874,.33666,.56202,.62606,1.17155,.846,1.82556Z"/>
          <path class="cls-12" d="M175.74963,408.73838c.21994,.65401,.36085,1.32404,.4322,1.97528l-16.68198,5.61007c-.33672-.562-.62925-1.18104-.84919-1.83505s-.35771-1.31453-.42901-1.96579l16.68198-5.61007c.33666,.56202,.62606,1.17155,.846,1.82556Z"/>
        </g>
        <g>
          <path class="cls-17" d="M187.12384,419.94657c-.63745-.26412-1.23502-.59834-1.77272-.97262-3.36166-2.38878-4.74972-6.84986-3.10755-10.81315,1.64598-3.97248,5.78244-6.14449,9.84463-5.4464,.64486,.11564,1.30367,.30207,1.94112,.56619s1.2258,.59445,1.76347,.96879c3.36543,2.37951,4.76275,6.84442,3.11676,10.8169-1.64217,3.96329-5.79171,6.14072-9.85384,5.44265-.64484-.1157-1.29443-.29823-1.93187-.56236Z"/>
          <path class="cls-12" d="M187.12384,419.94657c-.63745-.26412-1.23502-.59834-1.77272-.97262l6.73708-16.25955c.64486,.11564,1.30367,.30207,1.94112,.56619s1.2258,.59445,1.76347,.96879l-6.73708,16.25955c-.64484-.1157-1.29443-.29823-1.93187-.56236Z"/>
        </g>
      </g>
      <rect class="cls-19" x="211.76002" y="388.94178" width="4.47996" height="51.79995" transform="translate(428 829.68351) rotate(180)"/>
      <rect class="cls-19" x="352.12386" y="110.70099" width="6.96961" height="23.44323"/>
      <rect class="cls-19" x="352.12386" y="353.85577" width="6.96961" height="23.44323"/>
      <g>
        <g>
          <rect class="cls-20" x="74.8362" y="155.16192" width="25.36554" height="51.16345"/>
          <polygon class="cls-16" points="104.8983 150.46834 100.19829 155.15834 74.83831 155.15834 70.1483 150.46834 104.8983 150.46834"/>
          <polygon class="cls-21" points="104.8983 211.01832 70.1483 211.01832 74.83831 206.32832 100.19829 206.32832 104.8983 211.01832"/>
          <polygon class="cls-13" points="104.8983 150.46834 104.8983 211.01832 100.19829 206.32832 100.19829 155.16835 104.8983 150.46834"/>
          <polygon class="cls-18" points="74.83831 155.15834 74.83831 206.32832 70.1483 211.01832 70.1483 150.46834 74.83831 155.15834"/>
        </g>
        <rect class="cls-14" x="82.87013" y="162.98622" width="9.29768" height="9.29768"/>
        <circle class="cls-19" cx="87.51897" cy="191.54401" r="4.99765"/>
      </g>
      <g>
        <g>
          <rect class="cls-20" x="270.46087" y="297.63097" width="25.36554" height="46.47051" transform="translate(604.00978 37.72248) rotate(89.99998)"/>
          <polygon class="cls-13" points="311.07249 338.24555 306.38248 333.54554 306.38248 308.18556 311.07248 303.49555 311.07249 338.24555"/>
          <polygon class="cls-18" points="255.21545 338.24557 255.21544 303.49557 259.90544 308.18557 259.90545 333.54556 255.21545 338.24557"/>
          <polygon class="cls-21" points="311.07249 338.24555 255.21545 338.24557 259.90545 333.54556 306.37247 333.54554 311.07249 338.24555"/>
          <polygon class="cls-16" points="306.38248 308.18556 259.90544 308.18557 255.21544 303.49557 311.07248 303.49555 306.38248 308.18556"/>
        </g>
        <rect class="cls-14" x="267.73332" y="316.22606" width="9.29768" height="9.29768" transform="translate(-48.49273 593.25706) rotate(-90)"/>
        <rect class="cls-14" x="289.25692" y="316.21739" width="9.29768" height="9.29768" transform="translate(614.77189 26.96036) rotate(89.99998)"/>
      </g>
      <g>
        <g>
          <rect class="cls-20" x="106.40352" y="276.65848" width="25.36554" height="88.42415" transform="translate(-201.78427 439.95685) rotate(-90)"/>
          <polygon class="cls-18" points="70.18062 303.49123 74.87063 308.19124 74.87063 333.55122 70.18062 338.24123 70.18062 303.49123"/>
          <polygon class="cls-13" points="167.99131 303.49123 167.99131 338.24123 163.30131 333.55122 163.30131 308.19124 167.99131 303.49123"/>
          <polygon class="cls-16" points="70.18062 303.49123 167.99131 303.49123 163.30131 308.19124 74.88064 308.19124 70.18062 303.49123"/>
          <polygon class="cls-21" points="74.87063 333.55122 163.30131 333.55122 167.99131 338.24123 70.18062 338.24123 74.87063 333.55122"/>
        </g>
        <rect class="cls-14" x="82.69851" y="316.22172" width="9.29768" height="9.29768" transform="translate(-233.52322 408.21791) rotate(-90)"/>
        <rect class="cls-14" x="146.17576" y="316.21305" width="9.29768" height="9.29768" transform="translate(471.68644 170.03719) rotate(89.99998)"/>
        <rect class="cls-14" x="125.01668" y="316.21305" width="9.29768" height="9.29768" transform="translate(450.52736 191.19627) rotate(89.99998)"/>
        <rect class="cls-14" x="103.85759" y="316.21305" width="9.29768" height="9.29768" transform="translate(429.36828 212.35535) rotate(89.99998)"/>
      </g>
      <g>
        <g>
          <rect class="cls-20" x="137.95297" y="155.16192" width="25.36554" height="51.16345"/>
          <polygon class="cls-16" points="168.01508 150.46834 163.31507 155.15834 137.95508 155.15834 133.26508 150.46834 168.01508 150.46834"/>
          <polygon class="cls-21" points="168.01508 211.01832 133.26508 211.01832 137.95508 206.32832 163.31507 206.32832 168.01508 211.01832"/>
          <polygon class="cls-13" points="168.01508 150.46834 168.01508 211.01832 163.31507 206.32832 163.31507 155.16835 168.01508 150.46834"/>
          <polygon class="cls-18" points="137.95508 155.15834 137.95508 206.32832 133.26508 211.01832 133.26508 150.46834 137.95508 155.15834"/>
        </g>
        <rect class="cls-14" x="145.98691" y="162.98622" width="9.29768" height="9.29768"/>
        <circle class="cls-19" cx="150.63574" cy="191.54401" r="8.907"/>
      </g>
      <rect class="cls-14" x="309.5431" y="147.93668" width="9.29768" height="9.29768"/>
      <rect class="cls-14" x="353.16233" y="147.93668" width="9.29768" height="9.29768"/>
      <rect class="cls-14" x="338.62259" y="147.93668" width="9.29768" height="9.29768"/>
      <rect class="cls-14" x="324.08284" y="147.93668" width="9.29768" height="9.29768"/>
    </g>
  </g>
  <g id="Engraving">
    <g>
      <g>
        <path class="cls-10" d="M164.69189,61.49658h-3.80078v-.72461l1.27197-.25879v-8.8291l-1.27197-.27393v-.72461h3.80078v.72461l-1.27197,.27393v8.8291l1.27197,.25879v.72461Z"/>
        <path class="cls-10" d="M170.6001,61.49658h-1.19775v-7.70508c0-.64111,.01953-1.24707,.05908-1.81934-.10352,.10352-.21924,.21191-.34766,.32568-.12842,.11328-.71484,.59375-1.75977,1.44189l-.65088-.84326,2.86182-2.21094h1.03516v10.81104Z"/>
      </g>
      <path class="cls-10" d="M97.40869,55.65674h4.90088v.92627h-4.90088v4.87793h-.92578v-4.87793h-4.87793v-.92627h4.87793v-4.90039h.92578v4.90039Z"/>
      <path class="cls-10" d="M74.02051,55.65674h4.90088v.92627h-4.90088v4.87793h-.92578v-4.87793h-4.87793v-.92627h4.87793v-4.90039h.92578v4.90039Z"/>
      <path class="cls-10" d="M117.76025,56.65918v-.92578h5.36328v.92578h-5.36328Z"/>
      <path class="cls-10" d="M141.14893,56.65918v-.92578h5.36328v.92578h-5.36328Z"/>
      <g>
        <path class="cls-10" d="M188.08154,61.49658h-3.80078v-.72461l1.27197-.25879v-8.8291l-1.27197-.27393v-.72461h3.80078v.72461l-1.27197,.27393v8.8291l1.27197,.25879v.72461Z"/>
        <path class="cls-10" d="M196.54834,61.49658h-7.10645v-1.05762l2.84717-2.86133c.86768-.87744,1.43945-1.50391,1.71533-1.87842,.27637-.37451,.4834-.73975,.62158-1.09424,.1377-.35498,.20703-.7373,.20703-1.14648,0-.57666-.17529-1.03369-.52539-1.37158-.3501-.3374-.83545-.50635-1.45654-.50635-.44873,0-.87402,.07373-1.27539,.22168-.40186,.14795-.84961,.4165-1.34229,.80615l-.65088-.83594c.99561-.82812,2.08057-1.24219,3.25391-1.24219,1.01514,0,1.81152,.26025,2.38818,.78027s.86523,1.21875,.86523,2.09619c0,.68555-.19238,1.36328-.57666,2.03369-.38477,.67041-1.10449,1.51855-2.15918,2.54346l-2.36621,2.31494v.05908h5.56055v1.13867Z"/>
      </g>
      <g>
        <path class="cls-10" d="M234.95947,61.49658h-3.80078v-.72461l1.27197-.25879v-8.8291l-1.27197-.27393v-.72461h3.80078v.72461l-1.27197,.27393v8.8291l1.27197,.25879v.72461Z"/>
        <path class="cls-10" d="M243.01953,53.22949c0,.68994-.19336,1.25439-.58057,1.69336-.38672,.43848-.93506,.73193-1.64502,.87988v.05908c.86768,.1084,1.51074,.38477,1.92969,.82812,.41895,.44385,.62891,1.02539,.62891,1.74512,0,1.03076-.35791,1.82275-1.07227,2.37744-.71484,.55469-1.73047,.83203-3.04688,.83203-.57178,0-1.0957-.04346-1.57129-.12939-.47559-.08643-.93799-.23779-1.38623-.45508v-1.16797c.46826,.23145,.96729,.40771,1.49707,.52881,.52979,.12061,1.03174,.18115,1.50488,.18115,1.86816,0,2.80273-.73242,2.80273-2.19629,0-1.31152-1.03027-1.96729-3.09131-1.96729h-1.06445v-1.05713h1.07959c.84277,0,1.51074-.18604,2.00391-.55859,.49268-.37207,.73926-.88818,.73926-1.54883,0-.52783-.18115-.94189-.54346-1.24268-.3623-.30029-.854-.45068-1.4751-.45068-.47314,0-.91943,.06396-1.33838,.19189-.41895,.12842-.89746,.36523-1.43457,.70996l-.62109-.82812c.44336-.3501,.95508-.625,1.53418-.82471,.5791-.19922,1.18945-.29932,1.83008-.29932,1.05029,0,1.86621,.24023,2.44775,.72119,.58154,.48047,.87256,1.13965,.87256,1.97803Z"/>
      </g>
      <g>
        <path class="cls-10" d="M62.19092,113.85498h-1.19775v-7.70508c0-.64111,.01953-1.24707,.05908-1.81934-.10352,.10352-.21924,.21191-.34766,.32568-.12842,.11328-.71484,.59375-1.75977,1.44189l-.65088-.84326,2.86182-2.21094h1.03516v10.81104Z"/>
        <path class="cls-10" d="M73.40869,113.85498h-7.10645v-1.05762l2.84717-2.86133c.86768-.87744,1.43945-1.50391,1.71533-1.87842,.27637-.37451,.4834-.73975,.62158-1.09424,.1377-.35498,.20703-.7373,.20703-1.14648,0-.57666-.17529-1.03369-.52539-1.37158-.3501-.3374-.83545-.50635-1.45654-.50635-.44873,0-.87402,.07373-1.27539,.22168-.40186,.14795-.84961,.4165-1.34229,.80615l-.65088-.83594c.99561-.82812,2.08057-1.24219,3.25391-1.24219,1.01514,0,1.81152,.26025,2.38818,.78027s.86523,1.21875,.86523,2.09619c0,.68555-.19238,1.36328-.57666,2.03369-.38477,.67041-1.10449,1.51855-2.15918,2.54346l-2.36621,2.31494v.05908h5.56055v1.13867Z"/>
        <path class="cls-10" d="M75.34619,113.07129c0-.33057,.0752-.58057,.22559-.75049,.15039-.17041,.36572-.25537,.64697-.25537,.28564,0,.50879,.08496,.66943,.25537,.15967,.16992,.24023,.41992,.24023,.75049,0,.32031-.08154,.56689-.24414,.73926s-.38477,.25879-.66553,.25879c-.25146,0-.45996-.07764-.625-.23291s-.24756-.41016-.24756-.76514Zm3.91895,0c0-.33057,.0752-.58057,.22559-.75049,.15039-.17041,.36621-.25537,.64697-.25537,.28613,0,.50928,.08496,.66943,.25537,.16016,.16992,.24023,.41992,.24023,.75049,0,.32031-.08105,.56689-.24414,.73926-.1626,.17236-.38428,.25879-.66553,.25879-.25146,0-.45947-.07764-.62451-.23291-.16553-.15527-.24805-.41016-.24805-.76514Zm3.92676,0c0-.33057,.0752-.58057,.22559-.75049,.15039-.17041,.36621-.25537,.64697-.25537,.28564,0,.50879,.08496,.66943,.25537,.16016,.16992,.24023,.41992,.24023,.75049,0,.32031-.08154,.56689-.24414,.73926s-.38477,.25879-.66553,.25879c-.25146,0-.45996-.07764-.625-.23291s-.24756-.41016-.24756-.76514Z"/>
        <path class="cls-10" d="M93.94385,113.85498h-7.10645v-1.05762l2.84717-2.86133c.86768-.87744,1.43945-1.50391,1.71533-1.87842,.27637-.37451,.4834-.73975,.62158-1.09424,.1377-.35498,.20703-.7373,.20703-1.14648,0-.57666-.17529-1.03369-.52539-1.37158-.3501-.3374-.83545-.50635-1.45654-.50635-.44873,0-.87402,.07373-1.27539,.22168-.40186,.14795-.84961,.4165-1.34229,.80615l-.65088-.83594c.99561-.82812,2.08057-1.24219,3.25391-1.24219,1.01514,0,1.81152,.26025,2.38818,.78027s.86523,1.21875,.86523,2.09619c0,.68555-.19238,1.36328-.57666,2.03369-.38477,.67041-1.10449,1.51855-2.15918,2.54346l-2.36621,2.31494v.05908h5.56055v1.13867Z"/>
        <path class="cls-10" d="M103.11328,111.37061h-1.60449v2.48438h-1.17578v-2.48438h-5.25781v-1.07227l5.13184-7.31348h1.30176v7.26904h1.60449v1.1167Zm-2.78027-1.1167v-3.59375c0-.70508,.02441-1.50146,.07373-2.38867h-.05908c-.23682,.47314-.4585,.86523-.66553,1.17578l-3.37939,4.80664h4.03027Z"/>
        <path class="cls-10" d="M115.01123,103.04395h1.35352l-3.89697,10.81104h-1.24219l-3.875-10.81104h1.33105l2.48438,6.99561c.28613,.80322,.5127,1.58496,.68066,2.34375,.17725-.79834,.40918-1.59473,.69482-2.38818l2.46973-6.95117Z"/>
        <path class="cls-10" d="M130.41455,108.34619c0,1.78467-.48438,3.14893-1.45312,4.09277-.96826,.94385-2.3623,1.41602-4.18164,1.41602h-2.99463v-10.81104h3.31299c1.68066,0,2.9873,.46582,3.91895,1.39746,.93164,.93213,1.39746,2.2334,1.39746,3.90479Zm-1.33105,.04395c0-1.40967-.35352-2.47217-1.06104-3.18701s-1.75879-1.07227-3.15381-1.07227h-1.82617v8.63721h1.53027c1.49854,0,2.62549-.36865,3.37939-1.10547,.75439-.73682,1.13135-1.82764,1.13135-3.27246Z"/>
        <path class="cls-10" d="M137.4541,104.0127c-1.18799,0-2.12598,.39551-2.81348,1.18701-.68799,.79102-1.03174,1.87451-1.03174,3.25,0,1.41455,.33154,2.50781,.99463,3.2793s1.6084,1.15723,2.83594,1.15723c.75439,0,1.61426-.13525,2.58057-.40674v1.10205c-.74902,.28076-1.67334,.42139-2.77295,.42139-1.59229,0-2.8208-.48291-3.68604-1.44922s-1.29785-2.33936-1.29785-4.11914c0-1.11377,.20801-2.08984,.625-2.92822,.4165-.83789,1.01758-1.48389,1.8042-1.9375,.78613-.45312,1.71191-.68018,2.77686-.68018,1.13379,0,2.12451,.20703,2.97266,.62109l-.53271,1.07959c-.81836-.38428-1.63672-.57666-2.45508-.57666Z"/>
      </g>
      <g>
        <path class="cls-10" d="M57.96631,131.71045v-8.04395h1.31494v8.04395h-1.31494Z"/>
        <path class="cls-10" d="M68.66992,131.71045h-1.61182l-3.95605-6.40967h-.04395l.02734,.35742c.05127,.68213,.07715,1.30566,.07715,1.87061v4.18164h-1.19385v-8.04395h1.5957l3.94482,6.37695h.03271c-.00732-.08447-.02197-.3916-.04395-.92188-.02197-.52979-.03271-.94336-.03271-1.24072v-4.21436h1.20459v8.04395Z"/>
        <path class="cls-10" d="M76.68311,126.09814c0,.84033-.2749,1.48389-.8252,1.93164-.55029,.44727-1.3335,.6709-2.34912,.6709h-.83643v3.00977h-1.31494v-8.04395h2.31641c1.00488,0,1.75781,.20557,2.2583,.61621,.50098,.41064,.75098,1.01611,.75098,1.81543Zm-4.01074,1.49658h.69873c.6748,0,1.16992-.11719,1.48535-.35205,.31543-.23438,.47314-.60156,.47314-1.1001,0-.4624-.14111-.80713-.42334-1.03467-.28271-.22705-.72266-.34082-1.3208-.34082h-.91309v2.82764Z"/>
        <path class="cls-10" d="M85.15869,123.6665v5.20508c0,.59424-.12744,1.11377-.38232,1.55957s-.62354,.78857-1.10596,1.02881-1.05908,.36035-1.73047,.36035c-.99756,0-1.77344-.26416-2.32715-.79199-.5542-.52832-.83105-1.25439-.83105-2.17871v-5.18311h1.3208v5.08936c0,.66406,.15381,1.15381,.46191,1.46924s.78125,.47314,1.41943,.47314c1.23975,0,1.85986-.65137,1.85986-1.95361v-5.07812h1.31494Z"/>
        <path class="cls-10" d="M90.55811,131.71045h-1.31494v-6.91602h-2.36572v-1.12793h6.04639v1.12793h-2.36572v6.91602Z"/>
        <path class="cls-10" d="M100.80225,131.71045h-3.24609v-.75391l.96826-.31885v-5.89258l-.96826-.32471v-.75391h3.24609v.75391l-.96289,.32471v5.89258l.96289,.31885v.75391Z"/>
        <path class="cls-10" d="M106.06982,131.71045h-1.29297v-5.19385c0-.62012,.01465-1.11133,.04395-1.47461-.08447,.08789-.18799,.18506-.31055,.2915-.12305,.10645-.53467,.44385-1.23535,1.0127l-.64941-.81982,2.36621-1.85986h1.07812v8.04395Z"/>
        <path class="cls-10" d="M109.50537,131.02246c0-.26758,.06934-.47314,.20898-.61621,.13916-.14307,.34082-.21436,.60498-.21436,.26807,0,.47168,.07422,.61084,.22266,.13965,.14893,.20898,.35156,.20898,.60791,0,.26074-.07031,.46729-.21191,.61914-.14111,.15234-.34375,.22852-.60791,.22852s-.46582-.0752-.60498-.22559c-.13965-.15039-.20898-.35791-.20898-.62207Zm3.06445,0c0-.26758,.06982-.47314,.20898-.61621,.13965-.14307,.34131-.21436,.60547-.21436,.26758,0,.47119,.07422,.61035,.22266,.13965,.14893,.20947,.35156,.20947,.60791,0,.26074-.0708,.46729-.21191,.61914-.14111,.15234-.34375,.22852-.60791,.22852s-.46582-.0752-.60547-.22559c-.13916-.15039-.20898-.35791-.20898-.62207Zm3.06445,0c0-.26758,.06982-.47314,.20947-.61621,.13916-.14307,.34082-.21436,.60498-.21436,.26758,0,.47119,.07422,.61084,.22266,.13916,.14893,.20898,.35156,.20898,.60791,0,.26074-.0708,.46729-.21191,.61914-.14111,.15234-.34375,.22852-.60791,.22852s-.46582-.0752-.60498-.22559c-.13965-.15039-.20947-.35791-.20947-.62207Z"/>
        <path class="cls-10" d="M122.21729,131.71045h-3.24609v-.75391l.96826-.31885v-5.89258l-.96826-.32471v-.75391h3.24609v.75391l-.96289,.32471v5.89258l.96289,.31885v.75391Z"/>
        <path class="cls-10" d="M126.40674,123.56201c.7627,0,1.36621,.17529,1.81006,.52539s.66553,.81885,.66553,1.40576c0,.8252-.49512,1.48193-1.48535,1.96973,.63086,.31543,1.0791,.64746,1.34521,.99609,.26562,.34814,.39893,.73682,.39893,1.16602,0,.66406-.24414,1.1958-.73193,1.5957s-1.14795,.59961-1.98047,.59961c-.87305,0-1.5498-.18701-2.03027-.56104s-.7207-.9043-.7207-1.58984c0-.44775,.12549-.8501,.37646-1.20801,.25146-.35742,.66309-.67578,1.23535-.95459-.4917-.29346-.8418-.60303-1.05078-.92969s-.31348-.69336-.31348-1.10059c0-.58301,.229-1.04785,.6875-1.39453s1.05664-.52002,1.79395-.52002Zm-1.49121,6.06299c0,.38184,.13379,.67773,.40186,.88867,.26758,.21094,.63037,.31641,1.08936,.31641,.47314,0,.84082-.10889,1.10303-.32715s.39355-.51465,.39355-.88867c0-.29736-.12109-.56836-.36328-.81445-.24219-.24561-.60889-.47314-1.10059-.68213l-.15967-.07178c-.48389,.21289-.83252,.44678-1.04541,.70166-.2124,.25488-.31885,.54736-.31885,.87744Zm1.47998-5.06738c-.3667,0-.66211,.09082-.88574,.27246s-.33545,.42822-.33545,.74023c0,.19043,.04004,.36133,.12061,.51172,.08105,.15039,.19824,.28711,.35254,.40967,.15381,.12305,.41406,.27051,.78125,.44287,.43994-.19434,.75098-.39893,.93262-.61328,.18115-.21484,.27197-.46484,.27197-.75098,0-.31201-.11279-.55859-.33838-.74023s-.52539-.27246-.89941-.27246Z"/>
        <path class="cls-10" d="M134.12988,128.62402c0-.97217,.14209-1.88184,.42627-2.729,.28418-.84766,.69434-1.59033,1.22998-2.22852h1.12793c-.51025,.68945-.90088,1.46289-1.17188,2.31885-.27148,.85693-.40723,1.73242-.40723,2.62744s.13574,1.7627,.40723,2.60254c.271,.83984,.6582,1.59912,1.16064,2.27783h-1.1167c-.53955-.62354-.9502-1.35156-1.23242-2.18457-.28271-.83252-.42383-1.72754-.42383-2.68457Z"/>
        <path class="cls-10" d="M145.41699,127.61133c0,1.32812-.36865,2.34326-1.10596,3.04541-.7373,.70264-1.79932,1.05371-3.18604,1.05371h-2.25v-8.04395h2.48682c1.28027,0,2.27588,.34473,2.98779,1.03418,.71143,.68994,1.06738,1.66016,1.06738,2.91064Zm-1.38672,.04395c0-1.92529-.90039-2.88818-2.70166-2.88818h-1.13867v5.8374h.93506c1.93701,0,2.90527-.98291,2.90527-2.94922Z"/>
        <path class="cls-10" d="M150.99805,127.34717h2.95996v4.03857c-.48389,.15771-.94873,.26953-1.39453,.33594-.4458,.06592-.92725,.09863-1.44434,.09863-1.21777,0-2.15674-.36035-2.81689-1.08105s-.99072-1.73779-.99072-3.05078c0-1.29492,.37256-2.30811,1.11719-3.04004,.74463-.73145,1.76953-1.09766,3.07568-1.09766,.83984,0,1.63574,.16162,2.3877,.48438l-.46191,1.09473c-.65332-.30078-1.30615-.45117-1.95898-.45117-.8584,0-1.53711,.26953-2.03564,.80908-.49902,.53906-.74854,1.27637-.74854,2.21191,0,.98291,.2251,1.72998,.67432,2.2417s1.0957,.76758,1.93945,.76758c.42529,0,.88037-.05322,1.36426-.15967v-2.07422h-1.66699v-1.12793Z"/>
        <path class="cls-10" d="M159.23145,131.71045h-1.31494v-6.91602h-2.36572v-1.12793h6.04639v1.12793h-2.36572v6.91602Z"/>
        <path class="cls-10" d="M166.63428,123.6665l-2.99316,8.04395h-1.22168l2.99854-8.04395h1.21631Z"/>
        <path class="cls-10" d="M173.23877,127.68848c0,1.39746-.22461,2.43555-.67383,3.11426-.44971,.67871-1.13623,1.01758-2.06055,1.01758-.89502,0-1.57373-.3501-2.03613-1.05078-.46191-.70068-.69287-1.72754-.69287-3.08105,0-1.41943,.22461-2.46582,.67383-3.13867,.44922-.67334,1.13428-1.00977,2.05518-1.00977,.89844,0,1.5791,.35205,2.04102,1.05615,.4624,.70459,.69336,1.73535,.69336,3.09229Zm-4.1543,0c0,1.09668,.11279,1.87988,.33838,2.34912,.22559,.46973,.58594,.70459,1.08154,.70459,.49512,0,.85693-.23828,1.08643-.71533,.229-.47705,.34375-1.25635,.34375-2.33838,0-1.07861-.11475-1.85889-.34375-2.34131-.22949-.48193-.59131-.72314-1.08643-.72314-.49561,0-.85596,.23633-1.08154,.70947s-.33838,1.2583-.33838,2.35498Z"/>
        <path class="cls-10" d="M175.01807,131.02246c0-.26758,.06934-.47314,.20898-.61621,.13916-.14307,.34082-.21436,.60498-.21436,.26807,0,.47168,.07422,.61084,.22266,.13965,.14893,.20898,.35156,.20898,.60791,0,.26074-.07031,.46729-.21191,.61914-.14111,.15234-.34375,.22852-.60791,.22852s-.46582-.0752-.60498-.22559c-.13965-.15039-.20898-.35791-.20898-.62207Zm3.06445,0c0-.26758,.06982-.47314,.20898-.61621,.13965-.14307,.34131-.21436,.60547-.21436,.26758,0,.47119,.07422,.61035,.22266,.13965,.14893,.20947,.35156,.20947,.60791,0,.26074-.0708,.46729-.21191,.61914-.14111,.15234-.34375,.22852-.60791,.22852s-.46582-.0752-.60547-.22559c-.13916-.15039-.20898-.35791-.20898-.62207Zm3.06445,0c0-.26758,.06982-.47314,.20947-.61621,.13916-.14307,.34082-.21436,.60498-.21436,.26758,0,.47119,.07422,.61084,.22266,.13916,.14893,.20898,.35156,.20898,.60791,0,.26074-.0708,.46729-.21191,.61914-.14111,.15234-.34375,.22852-.60791,.22852s-.46582-.0752-.60498-.22559c-.13965-.15039-.20947-.35791-.20947-.62207Z"/>
        <path class="cls-10" d="M188.36768,131.71045h-1.29297v-5.19385c0-.62012,.01465-1.11133,.04395-1.47461-.08447,.08789-.18799,.18506-.31055,.2915-.12305,.10645-.53467,.44385-1.23535,1.0127l-.64941-.81982,2.36621-1.85986h1.07812v8.04395Z"/>
        <path class="cls-10" d="M197.01904,127.68848c0,1.39746-.22461,2.43555-.67383,3.11426-.44971,.67871-1.13623,1.01758-2.06055,1.01758-.89502,0-1.57373-.3501-2.03613-1.05078-.46191-.70068-.69287-1.72754-.69287-3.08105,0-1.41943,.22461-2.46582,.67383-3.13867,.44922-.67334,1.13428-1.00977,2.05518-1.00977,.89844,0,1.5791,.35205,2.04102,1.05615,.4624,.70459,.69336,1.73535,.69336,3.09229Zm-4.1543,0c0,1.09668,.11279,1.87988,.33838,2.34912,.22559,.46973,.58594,.70459,1.08154,.70459,.49512,0,.85693-.23828,1.08643-.71533,.229-.47705,.34375-1.25635,.34375-2.33838,0-1.07861-.11475-1.85889-.34375-2.34131-.22949-.48193-.59131-.72314-1.08643-.72314-.49561,0-.85596,.23633-1.08154,.70947s-.33838,1.2583-.33838,2.35498Z"/>
        <path class="cls-10" d="M203.71143,123.6665h1.36475l-2.81738,8.04395h-1.38623l-2.80615-8.04395h1.35352l1.67822,5.00146c.08789,.23828,.18164,.54541,.28027,.92139,.09912,.37598,.16357,.65576,.19287,.83936,.04736-.27881,.12109-.60156,.22021-.96875,.09863-.3667,.17969-.63818,.2417-.81396l1.67822-4.97949Z"/>
        <path class="cls-10" d="M208.75928,128.62402c0,.96436-.14209,1.86328-.42627,2.6958s-.69434,1.55713-1.22998,2.17334h-1.1167c.50635-.68604,.89404-1.44727,1.16357-2.2832,.26953-.83643,.4043-1.70215,.4043-2.59717,0-.89844-.13574-1.77441-.40723-2.62744-.27148-.85254-.66211-1.62549-1.17188-2.31885h1.12793c.53955,.64209,.9502,1.38721,1.23242,2.23633,.28271,.84961,.42383,1.75635,.42383,2.72119Z"/>
      </g>
      <g>
        <path class="cls-10" d="M72.7373,219.85254v3.58105h-1.00098v-8.61133h2.36182c1.05615,0,1.83691,.20215,2.34131,.60645,.50439,.40479,.75684,1.01318,.75684,1.82617,0,1.13867-.57715,1.9082-1.73145,2.30908l2.33838,3.86963h-1.18408l-2.08496-3.58105h-1.79688Zm0-.86035h1.37256c.70703,0,1.2251-.14014,1.55518-.4209,.32959-.28076,.49463-.70166,.49463-1.26367,0-.56934-.16797-.97949-.50342-1.23096-.33594-.25098-.875-.37695-1.61719-.37695h-1.30176v3.29248Z"/>
        <path class="cls-10" d="M83.99365,223.43359h-4.80029v-8.61133h4.80029v.88916h-3.79932v2.77441h3.56982v.8833h-3.56982v3.16895h3.79932v.89551Z"/>
        <path class="cls-10" d="M90.76172,221.14209c0,.7583-.2749,1.34912-.82471,1.77295-.5498,.42432-1.2959,.63623-2.23828,.63623-1.021,0-1.80615-.13135-2.35596-.39453v-.96582c.35303,.14893,.73828,.26709,1.1543,.35303,.41602,.08643,.82861,.12988,1.23682,.12988,.66748,0,1.17041-.12646,1.50781-.37988,.33789-.25342,.50684-.60596,.50684-1.05762,0-.29834-.06006-.54248-.17969-.73291s-.32031-.36621-.60059-.52734c-.28125-.16113-.70801-.34375-1.28125-.54785-.80127-.28662-1.37354-.62646-1.71729-1.01904-.34326-.39258-.51514-.90479-.51514-1.53711,0-.66357,.24902-1.19189,.74805-1.58447,.49854-.39258,1.1582-.58936,1.979-.58936,.85596,0,1.64355,.15723,2.36182,.47119l-.31201,.87207c-.71094-.29834-1.40186-.44775-2.07324-.44775-.53027,0-.94434,.11377-1.24268,.3418-.29883,.22754-.44775,.54395-.44775,.94824,0,.29834,.05469,.54297,.16504,.7334,.10986,.19043,.29541,.36523,.55615,.52393,.26123,.15918,.66064,.33496,1.19873,.52734,.90332,.32178,1.5249,.66748,1.86426,1.03662,.33984,.36914,.50977,.84814,.50977,1.43701Z"/>
        <path class="cls-10" d="M97.32324,223.43359h-4.80029v-8.61133h4.80029v.88916h-3.79932v2.77441h3.56982v.8833h-3.56982v3.16895h3.79932v.89551Z"/>
        <path class="cls-10" d="M101.88232,223.43359h-1.00146v-7.72217h-2.72705v-.88916h6.45557v.88916h-2.72705v7.72217Z"/>
      </g>
      <g>
        <path class="cls-10" d="M103.69482,283.3501c0,.7583-.2749,1.34912-.82471,1.77295-.5498,.42432-1.2959,.63623-2.23828,.63623-1.021,0-1.80615-.13135-2.35596-.39453v-.96582c.35303,.14893,.73828,.26709,1.1543,.35303,.41602,.08643,.82861,.12988,1.23682,.12988,.66748,0,1.17041-.12646,1.50781-.37988,.33789-.25342,.50684-.60596,.50684-1.05762,0-.29834-.06006-.54248-.17969-.73291s-.32031-.36621-.60059-.52734c-.28125-.16113-.70801-.34375-1.28125-.54785-.80127-.28662-1.37354-.62646-1.71729-1.01904-.34326-.39258-.51514-.90479-.51514-1.53711,0-.66357,.24902-1.19189,.74805-1.58447,.49854-.39258,1.1582-.58936,1.979-.58936,.85596,0,1.64355,.15723,2.36182,.47119l-.31201,.87207c-.71094-.29834-1.40186-.44775-2.07324-.44775-.53027,0-.94434,.11377-1.24268,.3418-.29883,.22754-.44775,.54395-.44775,.94824,0,.29834,.05469,.54297,.16504,.7334,.10986,.19043,.29541,.36523,.55615,.52393,.26123,.15918,.66064,.33496,1.19873,.52734,.90332,.32178,1.5249,.66748,1.86426,1.03662,.33984,.36914,.50977,.84814,.50977,1.43701Z"/>
        <path class="cls-10" d="M108.10645,285.6416h-1.00146v-7.72217h-2.72705v-.88916h6.45557v.88916h-2.72705v7.72217Z"/>
        <path class="cls-10" d="M117.54248,285.6416l-1.07227-2.73877h-3.45166l-1.06006,2.73877h-1.01318l3.4043-8.64697h.84229l3.38721,8.64697h-1.03662Zm-1.38428-3.64014l-1.00146-2.66846c-.12939-.3374-.26318-.75146-.40039-1.24268-.08643,.37695-.21045,.7915-.37109,1.24268l-1.01318,2.66846h2.78613Z"/>
        <path class="cls-10" d="M122.41357,285.6416h-1.00146v-7.72217h-2.72705v-.88916h6.45557v.88916h-2.72705v7.72217Z"/>
        <path class="cls-10" d="M132.93896,277.03027v5.57178c0,.98193-.29639,1.75342-.88916,2.31494-.59326,.56152-1.40771,.84229-2.44434,.84229s-1.83887-.28271-2.40625-.84814-.85107-1.34277-.85107-2.33252v-5.54834h1.00098v5.61914c0,.71875,.19629,1.27051,.58936,1.65527,.39258,.38477,.96973,.57715,1.73145,.57715,.72656,0,1.28613-.19336,1.67871-.58008s.58936-.94141,.58936-1.66406v-5.60742h1.00098Z"/>
        <path class="cls-10" d="M140.07812,283.3501c0,.7583-.2749,1.34912-.82471,1.77295-.5498,.42432-1.2959,.63623-2.23828,.63623-1.021,0-1.80615-.13135-2.35596-.39453v-.96582c.35303,.14893,.73828,.26709,1.1543,.35303,.41602,.08643,.82861,.12988,1.23682,.12988,.66748,0,1.17041-.12646,1.50781-.37988,.33789-.25342,.50684-.60596,.50684-1.05762,0-.29834-.06006-.54248-.17969-.73291s-.32031-.36621-.60059-.52734c-.28125-.16113-.70801-.34375-1.28125-.54785-.80127-.28662-1.37354-.62646-1.71729-1.01904-.34326-.39258-.51514-.90479-.51514-1.53711,0-.66357,.24902-1.19189,.74805-1.58447,.49854-.39258,1.1582-.58936,1.979-.58936,.85596,0,1.64355,.15723,2.36182,.47119l-.31201,.87207c-.71094-.29834-1.40186-.44775-2.07324-.44775-.53027,0-.94434,.11377-1.24268,.3418-.29883,.22754-.44775,.54395-.44775,.94824,0,.29834,.05469,.54297,.16504,.7334,.10986,.19043,.29541,.36523,.55615,.52393,.26123,.15918,.66064,.33496,1.19873,.52734,.90332,.32178,1.5249,.66748,1.86426,1.03662,.33984,.36914,.50977,.84814,.50977,1.43701Z"/>
      </g>
      <g>
        <path class="cls-10" d="M78.6875,352.39893v13.5083c0,2.39893-.69482,4.27441-2.08496,5.62598-1.38965,1.35205-3.32666,2.02783-5.81152,2.02783-2.41797,0-4.30518-.67822-5.66162-2.03467-1.35693-1.35693-2.03516-3.24854-2.03516-5.67627v-13.45117h1.47119v13.5083c0,2.00879,.55664,3.57227,1.67041,4.69092s2.68945,1.67773,4.72656,1.67773c1.98926,0,3.53174-.5498,4.62646-1.64941s1.64209-2.625,1.64209-4.57666v-13.65088h1.45654Z"/>
        <path class="cls-10" d="M94.43213,367.89209c0,1.74219-.64062,3.12256-1.9209,4.14111s-2.98193,1.52783-5.10498,1.52783c-2.55127,0-4.50732-.28076-5.86865-.84277v-1.45605c1.50391,.6377,3.42236,.95654,5.75488,.95654,1.71338,0,3.07227-.39258,4.07666-1.17822,1.00391-.78516,1.50635-1.81543,1.50635-3.09131,0-.79004-.1665-1.44434-.5-1.96338-.33301-.51904-.87598-.99268-1.62744-1.4209-.75244-.42822-1.85645-.89014-3.31299-1.38525-2.13232-.73291-3.60547-1.52539-4.41943-2.37744-.81396-.85156-1.2207-1.98682-1.2207-3.40576,0-1.56104,.61133-2.83447,1.83447-3.81934,1.22314-.98535,2.79639-1.47803,4.71973-1.47803,1.96094,0,3.80273,.37109,5.52588,1.11377l-.52832,1.25635c-1.73291-.72314-3.38916-1.08496-4.96924-1.08496-1.54199,0-2.77002,.35693-3.68408,1.0708s-1.37061,1.68506-1.37061,2.91309c0,.771,.14014,1.4043,.4209,1.89893,.28076,.49512,.74023,.94043,1.37793,1.33545s1.73291,.86865,3.28467,1.4209c1.62744,.56152,2.85059,1.10645,3.66943,1.63477s1.41602,1.12793,1.79199,1.79932c.37598,.6709,.56445,1.48291,.56445,2.43457Z"/>
        <path class="cls-10" d="M97.38232,352.39893h5.72559c2.58008,0,4.47412,.43799,5.68359,1.31348,1.2085,.87598,1.81348,2.19922,1.81348,3.96973,0,1.20947-.36914,2.21582-1.10693,3.02002-.73779,.80469-1.81592,1.32129-3.23438,1.54932v.08594c1.66602,.24756,2.8916,.77344,3.67725,1.57764,.78516,.80469,1.17773,1.92578,1.17773,3.36279,0,1.92334-.6377,3.40381-1.91309,4.44092-1.27588,1.03809-3.08447,1.55664-5.42627,1.55664h-6.39697v-20.87646Zm1.45605,9.2959h4.59814c1.96094,0,3.38672-.32617,4.27686-.97803,.88965-.65186,1.33496-1.67285,1.33496-3.06299,0-1.38965-.50244-2.39893-1.50635-3.02734-1.00439-.62842-2.50146-.94238-4.49121-.94238h-4.2124v8.01074Zm0,1.28516v9.01025h4.91211c3.86523,0,5.79785-1.5708,5.79785-4.7124,0-2.86523-2.0376-4.29785-6.11182-4.29785h-4.59814Z"/>
      </g>
      <g>
        <g>
          <path class="cls-10" d="M310.24707,373.27539h-11.40918v-20.87646h11.40918v1.34229h-9.95312v7.89648h9.396v1.34229h-9.396v8.95312h9.95312v1.34229Z"/>
          <path class="cls-10" d="M320.41406,373.27539h-1.47119v-19.50586h-6.78271v-1.37061h15.03662v1.37061h-6.78271v19.50586Z"/>
          <path class="cls-10" d="M345.41699,373.27539h-1.4707v-10.26709h-12.19482v10.26709h-1.45605v-20.87646h1.45605v9.26709h12.19482v-9.26709h1.4707v20.87646Z"/>
        </g>
        <g>
          <path class="cls-10" d="M311.94287,381.2832v3.21338h-1.31494v-8.04395h2.27197c1.03809,0,1.80664,.19434,2.30566,.58301,.49854,.38916,.74805,.97607,.74805,1.76074,0,1.00146-.52051,1.71484-1.5625,2.14062l2.27246,3.55957h-1.49658l-1.92578-3.21338h-1.29834Zm0-1.08936h.91309c.61279,0,1.05664-.11328,1.33154-.34082,.27539-.22754,.4126-.56494,.4126-1.0127,0-.45459-.14844-.78125-.44531-.979-.29736-.19824-.74463-.29736-1.34277-.29736h-.86914v2.62988Z"/>
          <path class="cls-10" d="M317.37549,386.74121c-.35938,0-.66016-.0459-.90234-.13721v-1.10596c.30811,.07715,.57617,.11523,.80322,.11523,.71924,0,1.07861-.45459,1.07861-1.36426v-7.79639h1.32031v7.75244c0,.82129-.19531,1.44971-.58594,1.88428s-.96191,.65186-1.71387,.65186Z"/>
          <path class="cls-10" d="M327.49609,382.74121h-1.08398v1.75537h-1.25977v-1.75537h-3.67578v-.99561l3.67578-5.31494h1.25977v5.23779h1.08398v1.07275Zm-2.34375-1.07275v-2.01904c0-.71875,.01807-1.30762,.05469-1.76611h-.04395c-.10254,.2417-.26416,.53564-.48389,.88037l-1.99756,2.90479h2.4707Z"/>
          <path class="cls-10" d="M331.48145,379.47314c.81055,0,1.45264,.21484,1.92578,.64404,.47314,.42871,.70996,1.01416,.70996,1.75488,0,.8584-.26904,1.52881-.80615,2.01123-.5376,.48242-1.30127,.72314-2.2915,.72314-.89893,0-1.60498-.14453-2.11865-.43457v-1.17188c.29736,.16895,.63818,.29883,1.02344,.39062s.74268,.1377,1.07324,.1377c.58301,0,1.02686-.13037,1.33105-.39062,.30469-.26074,.45703-.64209,.45703-1.14453,0-.96094-.61279-1.44141-1.83789-1.44141-.17236,0-.38525,.01709-.63818,.05225-.25293,.03467-.4751,.07422-.66553,.11816l-.57812-.34131,.30811-3.92822h4.18164v1.1499h-3.04248l-.18164,1.9917c.12842-.02197,.28516-.04736,.4707-.07715,.18506-.0293,.41162-.04395,.6792-.04395Z"/>
        </g>
      </g>
      <path class="cls-10" d="M88.2998,298.22607h-.9541v-6.1377c0-.51025,.01562-.99316,.04688-1.44873-.08203,.08252-.1748,.16895-.27686,.25928s-.56934,.47314-1.40186,1.14844l-.51807-.67139,2.2793-1.76123h.82471v8.61133Z"/>
      <path class="cls-10" d="M111.44824,298.22607h-5.66064v-.84229l2.26807-2.2793c.69092-.69922,1.14648-1.19775,1.36621-1.49609,.22021-.29883,.38477-.58936,.49512-.87207,.10986-.28271,.16455-.58691,.16455-.91309,0-.45898-.13916-.82324-.41797-1.09229s-.66553-.40381-1.16064-.40381c-.35742,0-.6958,.05908-1.01562,.17676-.32031,.11816-.67676,.33203-1.06934,.64209l-.51807-.66553c.79297-.65967,1.65674-.98975,2.59131-.98975,.80908,0,1.44336,.20752,1.90283,.62158,.45947,.41455,.68896,.97119,.68896,1.66992,0,.5459-.15332,1.08594-.45947,1.61963-.30615,.53418-.87939,1.20947-1.71973,2.02637l-1.88525,1.84375v.04688h4.42969v.90723Z"/>
      <path class="cls-10" d="M132.23438,291.64062c0,.5498-.15381,.99951-.46191,1.34912-.30859,.34961-.74512,.58301-1.31104,.70068v.04736c.69141,.08643,1.20361,.30615,1.5376,.65967,.3335,.35352,.50049,.81689,.50049,1.39014,0,.8208-.28467,1.45166-.854,1.89355s-1.37842,.6626-2.42676,.6626c-.45557,0-.87256-.03418-1.25146-.10303-.37891-.06836-.74707-.18945-1.10449-.3623v-.93066c.37305,.18457,.77051,.3252,1.19287,.42139,.42188,.09619,.82178,.14404,1.19873,.14404,1.48779,0,2.23193-.58301,2.23193-1.74902,0-1.04443-.82031-1.56689-2.46191-1.56689h-.84814v-.84229h.85986c.67139,0,1.20361-.14844,1.59619-.44482s.58936-.70752,.58936-1.23389c0-.42041-.14453-.75-.43311-.98975-.28857-.23926-.68018-.35938-1.17529-.35938-.37695,0-.73242,.05127-1.06592,.15332-.33398,.10205-.71484,.29053-1.14258,.56543l-.49512-.65967c.35352-.27881,.76074-.49756,1.22266-.65674,.46094-.15918,.94727-.23877,1.45752-.23877,.83643,0,1.48633,.19189,1.94971,.57471s.69482,.90771,.69482,1.5752Z"/>
      <path class="cls-10" d="M154.0752,296.24707h-1.27783v1.979h-.93652v-1.979h-4.18799v-.854l4.0874-5.82568h1.03711v5.79004h1.27783v.88965Zm-2.21436-.88965v-2.8623c0-.56152,.01953-1.1958,.05859-1.90283h-.04688c-.18848,.37695-.36523,.68945-.53027,.93652l-2.69189,3.82861h3.21045Z"/>
      <g>
        <path class="cls-10" d="M272.76709,298.22607v-8.61133h1.00098v7.7041h3.79932v.90723h-4.80029Z"/>
        <path class="cls-10" d="M284.44141,298.22607l-1.07227-2.73877h-3.45166l-1.06006,2.73877h-1.01318l3.4043-8.64697h.84229l3.38721,8.64697h-1.03662Zm-1.38428-3.64014l-1.00146-2.66846c-.12939-.3374-.26318-.75146-.40039-1.24268-.08643,.37695-.21045,.7915-.37109,1.24268l-1.01318,2.66846h2.78613Z"/>
        <path class="cls-10" d="M293.38867,298.22607h-1.14307l-4.70605-7.22705h-.04688c.0625,.84814,.09424,1.62549,.09424,2.33252v4.89453h-.9248v-8.61133h1.13086l4.69434,7.19775h.04736c-.0083-.10596-.02588-.44678-.05322-1.02197s-.0376-.98682-.0293-1.23389v-4.94189h.93652v8.61133Z"/>
      </g>
      <g>
        <path class="cls-10" d="M143.76953,214.82227v5.57178c0,.98193-.29639,1.75342-.88916,2.31494-.59326,.56152-1.40771,.84229-2.44434,.84229s-1.83887-.28271-2.40625-.84814-.85107-1.34277-.85107-2.33252v-5.54834h1.00098v5.61914c0,.71875,.19629,1.27051,.58936,1.65527,.39258,.38477,.96973,.57715,1.73145,.57715,.72656,0,1.28613-.19336,1.67871-.58008s.58936-.94141,.58936-1.66406v-5.60742h1.00098Z"/>
        <path class="cls-10" d="M150.90869,221.14209c0,.7583-.2749,1.34912-.82471,1.77295-.5498,.42432-1.2959,.63623-2.23828,.63623-1.021,0-1.80615-.13135-2.35596-.39453v-.96582c.35303,.14893,.73828,.26709,1.1543,.35303,.41602,.08643,.82861,.12988,1.23682,.12988,.66748,0,1.17041-.12646,1.50781-.37988,.33789-.25342,.50684-.60596,.50684-1.05762,0-.29834-.06006-.54248-.17969-.73291s-.32031-.36621-.60059-.52734c-.28125-.16113-.70801-.34375-1.28125-.54785-.80127-.28662-1.37354-.62646-1.71729-1.01904-.34326-.39258-.51514-.90479-.51514-1.53711,0-.66357,.24902-1.19189,.74805-1.58447,.49854-.39258,1.1582-.58936,1.979-.58936,.85596,0,1.64355,.15723,2.36182,.47119l-.31201,.87207c-.71094-.29834-1.40186-.44775-2.07324-.44775-.53027,0-.94434,.11377-1.24268,.3418-.29883,.22754-.44775,.54395-.44775,.94824,0,.29834,.05469,.54297,.16504,.7334,.10986,.19043,.29541,.36523,.55615,.52393,.26123,.15918,.66064,.33496,1.19873,.52734,.90332,.32178,1.5249,.66748,1.86426,1.03662,.33984,.36914,.50977,.84814,.50977,1.43701Z"/>
        <path class="cls-10" d="M157.47021,223.43359h-4.80029v-8.61133h4.80029v.88916h-3.79932v2.77441h3.56982v.8833h-3.56982v3.16895h3.79932v.89551Z"/>
        <path class="cls-10" d="M160.37988,219.85254v3.58105h-1.00098v-8.61133h2.36182c1.05615,0,1.83691,.20215,2.34131,.60645,.50439,.40479,.75684,1.01318,.75684,1.82617,0,1.13867-.57715,1.9082-1.73145,2.30908l2.33838,3.86963h-1.18408l-2.08496-3.58105h-1.79688Zm0-.86035h1.37256c.70703,0,1.2251-.14014,1.55518-.4209,.32959-.28076,.49463-.70166,.49463-1.26367,0-.56934-.16797-.97949-.50342-1.23096-.33594-.25098-.875-.37695-1.61719-.37695h-1.30176v3.29248Z"/>
      </g>
      <g>
        <path class="cls-10" d="M258.36963,61.49658h-3.80078v-.72461l1.27197-.25879v-8.8291l-1.27197-.27393v-.72461h3.80078v.72461l-1.27197,.27393v8.8291l1.27197,.25879v.72461Z"/>
        <path class="cls-10" d="M267.34668,59.01221h-1.60449v2.48438h-1.17578v-2.48438h-5.25781v-1.07227l5.13184-7.31348h1.30176v7.26904h1.60449v1.1167Zm-2.78027-1.1167v-3.59375c0-.70508,.02441-1.50146,.07373-2.38867h-.05908c-.23682,.47314-.4585,.86523-.66553,1.17578l-3.37939,4.80664h4.03027Z"/>
      </g>
      <g>
        <path class="cls-10" d="M281.77832,61.49658h-3.80078v-.72461l1.27197-.25879v-8.8291l-1.27197-.27393v-.72461h3.80078v.72461l-1.27197,.27393v8.8291l1.27197,.25879v.72461Z"/>
        <path class="cls-10" d="M286.51807,54.89307c1.13916,0,2.03467,.28223,2.68799,.84668s.97998,1.3374,.97998,2.31836c0,1.11914-.35645,1.99658-1.06836,2.63232-.71289,.63623-1.69482,.9541-2.94678,.9541-1.21777,0-2.14697-.19482-2.78809-.58447v-1.18311c.34521,.22217,.77393,.396,1.28662,.52148,.5127,.12598,1.01807,.18848,1.51611,.18848,.86768,0,1.5415-.20459,2.02246-.61377,.48047-.40918,.7207-1.00049,.7207-1.77441,0-1.50879-.92432-2.2627-2.77295-2.2627-.46826,0-1.09424,.07129-1.87793,.21436l-.63623-.40674,.40674-5.05811h5.37598v1.13135h-4.32568l-.27393,3.24658c.56689-.11377,1.13135-.17041,1.69336-.17041Z"/>
      </g>
      <g>
        <path class="cls-10" d="M305.18848,61.49658h-3.80078v-.72461l1.27197-.25879v-8.8291l-1.27197-.27393v-.72461h3.80078v.72461l-1.27197,.27393v8.8291l1.27197,.25879v.72461Z"/>
        <path class="cls-10" d="M306.6748,56.875c0-2.125,.4126-3.71338,1.23877-4.76611,.8252-1.05225,2.04688-1.57861,3.66406-1.57861,.55664,0,.99561,.04688,1.31592,.14062v1.05713c-.37939-.12305-.81348-.18457-1.30127-.18457-1.15869,0-2.04346,.36133-2.65479,1.08301-.61133,.72266-.94629,1.85742-1.00586,3.40527h.08887c.54248-.84766,1.3999-1.27148,2.57324-1.27148,.97119,0,1.73682,.29297,2.29639,.87988,.55908,.58643,.83887,1.38281,.83887,2.38818,0,1.12402-.30664,2.00781-.92041,2.65137-.61377,.64307-1.44336,.96484-2.48828,.96484-1.11914,0-2.00635-.42041-2.66211-1.26074s-.9834-2.01025-.9834-3.50879Zm3.63086,3.72705c.69971,0,1.24316-.2207,1.63037-.66211,.38672-.44092,.58057-1.07812,.58057-1.91162,0-.71436-.18018-1.27637-.54004-1.68604-.35986-.40869-.89697-.61377-1.61182-.61377-.44385,0-.85059,.09131-1.22021,.27393-.36963,.18213-.66455,.43359-.88379,.75439-.21924,.32031-.3291,.65283-.3291,.99805,0,.50781,.09863,.98096,.2959,1.41992,.19727,.43848,.47705,.78613,.83936,1.04248s.77539,.38477,1.23877,.38477Z"/>
      </g>
      <g>
        <path class="cls-10" d="M328.59717,61.49658h-3.80078v-.72461l1.27197-.25879v-8.8291l-1.27197-.27393v-.72461h3.80078v.72461l-1.27197,.27393v8.8291l1.27197,.25879v.72461Z"/>
        <path class="cls-10" d="M331.32568,61.49658l4.48145-9.67969h-5.89355v-1.13135h7.19482v.9834l-4.42188,9.82764h-1.36084Z"/>
      </g>
      <g>
        <path class="cls-10" d="M352.00635,61.49658h-3.80078v-.72461l1.27197-.25879v-8.8291l-1.27197-.27393v-.72461h3.80078v.72461l-1.27197,.27393v8.8291l1.27197,.25879v.72461Z"/>
        <path class="cls-10" d="M356.9458,50.53027c.98584,0,1.76758,.22949,2.34424,.6875,.57666,.4585,.86523,1.09229,.86523,1.90088,0,.53223-.16553,1.01807-.49561,1.45654-.33008,.43896-.85791,.83789-1.58252,1.19775,.87744,.41943,1.50146,.85938,1.87109,1.32031s.55469,.99463,.55469,1.60059c0,.89746-.31348,1.61328-.93945,2.14844-.62598,.53467-1.48389,.80225-2.57324,.80225-1.15332,0-2.04102-.25244-2.66211-.75781s-.93164-1.22168-.93164-2.14844c0-1.2373,.75439-2.20117,2.2627-2.89111-.68018-.38477-1.16846-.7998-1.46387-1.24609-.2959-.44629-.44385-.94531-.44385-1.49756,0-.78369,.28955-1.40869,.86865-1.87451,.57959-.46582,1.35449-.69873,2.32568-.69873Zm-2.33643,8.23779c0,.59131,.20557,1.05225,.61719,1.38281,.41162,.33008,.98975,.49512,1.73438,.49512,.73438,0,1.30615-.17236,1.71533-.51758,.40918-.34473,.61377-.81787,.61377-1.41943,0-.47852-.19238-.90332-.57666-1.27588-.38477-.37207-1.05518-.73291-2.01172-1.08301-.73438,.31543-1.2666,.66406-1.59717,1.04639-.33008,.38184-.49512,.83887-.49512,1.37158Zm2.32178-7.23926c-.61621,0-1.09961,.14746-1.44922,.44336-.3501,.2959-.52539,.69043-.52539,1.18311,0,.45361,.14551,.84326,.43652,1.16846s.82812,.65088,1.61182,.97607c.70508-.2959,1.2041-.61377,1.49756-.95361,.29346-.34033,.43994-.7373,.43994-1.19092,0-.49756-.17871-.89355-.53613-1.18652-.35742-.29346-.84912-.43994-1.4751-.43994Z"/>
      </g>
      <g>
        <path class="cls-10" d="M117.01025,405.79932c0,1.37842-.34863,2.46191-1.04541,3.25146-.69727,.78906-1.66602,1.18359-2.90723,1.18359-1.26807,0-2.24707-.3877-2.93604-1.16309s-1.03369-1.87012-1.03369-3.28369c0-1.40186,.34521-2.48877,1.03662-3.26025,.69092-.77197,1.67285-1.15771,2.94531-1.15771,1.23682,0,2.20264,.39307,2.89795,1.17822,.69482,.78516,1.04248,1.86914,1.04248,3.25146Zm-6.8623,0c0,1.16602,.24854,2.05078,.74512,2.65332,.49658,.60303,1.21826,.9043,2.16455,.9043,.95459,0,1.6748-.30029,2.16211-.90137,.48682-.60059,.72998-1.48633,.72998-2.65625,0-1.15869-.24219-2.03711-.72705-2.63574-.48535-.59912-1.20264-.89844-2.15283-.89844-.95459,0-1.68018,.30127-2.17676,.9043-.49658,.60254-.74512,1.47949-.74512,2.62988Z"/>
        <path class="cls-10" d="M125.43311,401.50537v5.57178c0,.98193-.29639,1.75342-.88916,2.31494-.59326,.56152-1.40771,.84229-2.44434,.84229s-1.83887-.28271-2.40625-.84814-.85107-1.34277-.85107-2.33252v-5.54834h1.00098v5.61914c0,.71875,.19629,1.27051,.58936,1.65527,.39258,.38477,.96973,.57715,1.73145,.57715,.72656,0,1.28613-.19336,1.67871-.58008s.58936-.94141,.58936-1.66406v-5.60742h1.00098Z"/>
        <path class="cls-10" d="M130.36328,410.1167h-1.00146v-7.72217h-2.72705v-.88916h6.45557v.88916h-2.72705v7.72217Z"/>
        <path class="cls-10" d="M139.84619,404.01465c0,.87158-.29736,1.54199-.89209,2.01123-.59521,.46924-1.44629,.7041-2.55371,.7041h-1.01318v3.38672h-1.00098v-8.61133h2.23242c2.15186,0,3.22754,.83643,3.22754,2.50928Zm-4.45898,1.85547h.90137c.88721,0,1.5293-.14355,1.92627-.43018,.39648-.28662,.59473-.74609,.59473-1.37842,0-.56934-.18652-.99316-.55957-1.27197s-.9541-.41846-1.74365-.41846h-1.11914v3.49902Z"/>
        <path class="cls-10" d="M148.15137,401.50537v5.57178c0,.98193-.29639,1.75342-.88916,2.31494-.59326,.56152-1.40771,.84229-2.44434,.84229s-1.83887-.28271-2.40625-.84814-.85107-1.34277-.85107-2.33252v-5.54834h1.00098v5.61914c0,.71875,.19629,1.27051,.58936,1.65527,.39258,.38477,.96973,.57715,1.73145,.57715,.72656,0,1.28613-.19336,1.67871-.58008s.58936-.94141,.58936-1.66406v-5.60742h1.00098Z"/>
        <path class="cls-10" d="M153.08154,410.1167h-1.00146v-7.72217h-2.72705v-.88916h6.45557v.88916h-2.72705v7.72217Z"/>
        <path class="cls-10" d="M125.6333,421.6792h-.9541v-6.1377c0-.51025,.01562-.99316,.04688-1.44873-.08203,.08252-.1748,.16895-.27686,.25928s-.56934,.47314-1.40186,1.14844l-.51807-.67139,2.2793-1.76123h.82471v8.61133Z"/>
        <path class="cls-10" d="M134.61572,417.36182c0,1.48828-.23438,2.59961-.70361,3.3335-.46924,.73438-1.18701,1.10156-2.15283,1.10156-.92676,0-1.63184-.37598-2.11475-1.12793s-.72461-1.85449-.72461-3.30713c0-1.5,.23389-2.61328,.70117-3.33984s1.18018-1.08984,2.13818-1.08984c.93457,0,1.64404,.37939,2.12939,1.13721,.48486,.75781,.72705,1.85498,.72705,3.29248Zm-4.70605,0c0,1.25244,.14746,2.16455,.44189,2.73584s.76367,.85693,1.40771,.85693c.65186,0,1.12402-.28955,1.4165-.86865s.43896-1.4873,.43896-2.72412-.14648-2.14307-.43896-2.71826-.76465-.86328-1.4165-.86328c-.64404,0-1.11328,.28418-1.40771,.85156s-.44189,1.47705-.44189,2.72998Z"/>
        <path class="cls-10" d="M141.81396,421.6792l-1.07227-2.73877h-3.45166l-1.06006,2.73877h-1.01318l3.4043-8.64697h.84229l3.38721,8.64697h-1.03662Zm-1.38428-3.64014l-1.00146-2.66846c-.12939-.3374-.26318-.75146-.40039-1.24268-.08643,.37695-.21045,.7915-.37109,1.24268l-1.01318,2.66846h2.78613Z"/>
      </g>
      <path class="cls-10" d="M65.60449,432.41602h-.9541v-6.1377c0-.51025,.01562-.99316,.04688-1.44873-.08203,.08252-.1748,.16895-.27686,.25928s-.56934,.47314-1.40186,1.14844l-.51807-.67139,2.2793-1.76123h.82471v8.61133Z"/>
      <polyline class="cls-4" points="73.56351 425.05099 73.56351 431.69992 79.41091 431.69992 87.08054 435.74417"/>
      <polyline class="cls-4" points="96.95308 425.05099 96.95308 431.69992 91.10569 431.69992"/>
      <path class="cls-10" d="M202.13281,432.41602h-5.66064v-.84229l2.26807-2.2793c.69092-.69922,1.14648-1.19775,1.36621-1.49609,.22021-.29883,.38477-.58936,.49512-.87207,.10986-.28271,.16455-.58691,.16455-.91309,0-.45898-.13916-.82324-.41797-1.09229s-.66553-.40381-1.16064-.40381c-.35742,0-.6958,.05908-1.01562,.17676-.32031,.11816-.67676,.33203-1.06934,.64209l-.51807-.66553c.79297-.65967,1.65674-.98975,2.59131-.98975,.80908,0,1.44336,.20752,1.90283,.62158,.45947,.41455,.68896,.97119,.68896,1.66992,0,.5459-.15332,1.08594-.45947,1.61963-.30615,.53418-.87939,1.20947-1.71973,2.02637l-1.88525,1.84375v.04688h4.42969v.90723Z"/>
      <polyline class="cls-4" points="167.22086 425.05099 167.22086 431.69992 173.06826 431.69992 180.73789 435.74417"/>
      <polyline class="cls-4" points="190.61043 425.05099 190.61043 431.69992 184.76304 431.69992"/>
      <g>
        <path class="cls-10" d="M280.93506,405.79932c0,1.37842-.34863,2.46191-1.04541,3.25146-.69727,.78906-1.66602,1.18359-2.90723,1.18359-1.26807,0-2.24707-.3877-2.93604-1.16309s-1.03369-1.87012-1.03369-3.28369c0-1.40186,.34521-2.48877,1.03662-3.26025,.69092-.77197,1.67285-1.15771,2.94531-1.15771,1.23682,0,2.20264,.39307,2.89795,1.17822,.69482,.78516,1.04248,1.86914,1.04248,3.25146Zm-6.8623,0c0,1.16602,.24854,2.05078,.74512,2.65332,.49658,.60303,1.21826,.9043,2.16455,.9043,.95459,0,1.6748-.30029,2.16211-.90137,.48682-.60059,.72998-1.48633,.72998-2.65625,0-1.15869-.24219-2.03711-.72705-2.63574-.48535-.59912-1.20264-.89844-2.15283-.89844-.95459,0-1.68018,.30127-2.17676,.9043-.49658,.60254-.74512,1.47949-.74512,2.62988Z"/>
        <path class="cls-10" d="M289.35791,401.50537v5.57178c0,.98193-.29639,1.75342-.88916,2.31494-.59326,.56152-1.40771,.84229-2.44434,.84229s-1.83887-.28271-2.40625-.84814-.85107-1.34277-.85107-2.33252v-5.54834h1.00098v5.61914c0,.71875,.19629,1.27051,.58936,1.65527,.39258,.38477,.96973,.57715,1.73145,.57715,.72656,0,1.28613-.19336,1.67871-.58008s.58936-.94141,.58936-1.66406v-5.60742h1.00098Z"/>
        <path class="cls-10" d="M294.28809,410.1167h-1.00146v-7.72217h-2.72705v-.88916h6.45557v.88916h-2.72705v7.72217Z"/>
        <path class="cls-10" d="M303.771,404.01465c0,.87158-.29736,1.54199-.89209,2.01123-.59521,.46924-1.44629,.7041-2.55371,.7041h-1.01318v3.38672h-1.00098v-8.61133h2.23242c2.15186,0,3.22754,.83643,3.22754,2.50928Zm-4.45898,1.85547h.90137c.88721,0,1.5293-.14355,1.92627-.43018,.39648-.28662,.59473-.74609,.59473-1.37842,0-.56934-.18652-.99316-.55957-1.27197s-.9541-.41846-1.74365-.41846h-1.11914v3.49902Z"/>
        <path class="cls-10" d="M312.07617,401.50537v5.57178c0,.98193-.29639,1.75342-.88916,2.31494-.59326,.56152-1.40771,.84229-2.44434,.84229s-1.83887-.28271-2.40625-.84814-.85107-1.34277-.85107-2.33252v-5.54834h1.00098v5.61914c0,.71875,.19629,1.27051,.58936,1.65527,.39258,.38477,.96973,.57715,1.73145,.57715,.72656,0,1.28613-.19336,1.67871-.58008s.58936-.94141,.58936-1.66406v-5.60742h1.00098Z"/>
        <path class="cls-10" d="M317.00635,410.1167h-1.00146v-7.72217h-2.72705v-.88916h6.45557v.88916h-2.72705v7.72217Z"/>
        <path class="cls-10" d="M289.55811,421.6792h-.9541v-6.1377c0-.51025,.01562-.99316,.04688-1.44873-.08203,.08252-.1748,.16895-.27686,.25928s-.56934,.47314-1.40186,1.14844l-.51807-.67139,2.2793-1.76123h.82471v8.61133Z"/>
        <path class="cls-10" d="M298.54053,417.36182c0,1.48828-.23438,2.59961-.70361,3.3335-.46924,.73438-1.18701,1.10156-2.15283,1.10156-.92676,0-1.63184-.37598-2.11475-1.12793s-.72461-1.85449-.72461-3.30713c0-1.5,.23389-2.61328,.70117-3.33984s1.18018-1.08984,2.13818-1.08984c.93457,0,1.64404,.37939,2.12939,1.13721,.48486,.75781,.72705,1.85498,.72705,3.29248Zm-4.70605,0c0,1.25244,.14746,2.16455,.44189,2.73584s.76367,.85693,1.40771,.85693c.65186,0,1.12402-.28955,1.4165-.86865s.43896-1.4873,.43896-2.72412-.14648-2.14307-.43896-2.71826-.76465-.86328-1.4165-.86328c-.64404,0-1.11328,.28418-1.40771,.85156s-.44189,1.47705-.44189,2.72998Z"/>
        <path class="cls-10" d="M305.73877,421.6792l-1.07227-2.73877h-3.45166l-1.06006,2.73877h-1.01318l3.4043-8.64697h.84229l3.38721,8.64697h-1.03662Zm-1.38428-3.64014l-1.00146-2.66846c-.12939-.3374-.26318-.75146-.40039-1.24268-.08643,.37695-.21045,.7915-.37109,1.24268l-1.01318,2.66846h2.78613Z"/>
      </g>
      <path class="cls-10" d="M231.24316,425.83057c0,.5498-.15381,.99951-.46191,1.34912-.30859,.34961-.74512,.58301-1.31104,.70068v.04736c.69141,.08643,1.20361,.30615,1.5376,.65967,.3335,.35352,.50049,.81689,.50049,1.39014,0,.8208-.28467,1.45166-.854,1.89355s-1.37842,.6626-2.42676,.6626c-.45557,0-.87256-.03418-1.25146-.10303-.37891-.06836-.74707-.18945-1.10449-.3623v-.93066c.37305,.18457,.77051,.3252,1.19287,.42139,.42188,.09619,.82178,.14404,1.19873,.14404,1.48779,0,2.23193-.58301,2.23193-1.74902,0-1.04443-.82031-1.56689-2.46191-1.56689h-.84814v-.84229h.85986c.67139,0,1.20361-.14844,1.59619-.44482s.58936-.70752,.58936-1.23389c0-.42041-.14453-.75-.43311-.98975-.28857-.23926-.68018-.35938-1.17529-.35938-.37695,0-.73242,.05127-1.06592,.15332-.33398,.10205-.71484,.29053-1.14258,.56543l-.49512-.65967c.35352-.27881,.76074-.49756,1.22266-.65674,.46094-.15918,.94727-.23877,1.45752-.23877,.83643,0,1.48633,.19189,1.94971,.57471s.69482,.90771,.69482,1.5752Z"/>
      <polyline class="cls-4" points="237.48865 425.05099 237.48865 431.69992 243.33604 431.69992 251.00567 435.74417"/>
      <polyline class="cls-4" points="260.87821 425.05099 260.87821 431.69992 255.03082 431.69992"/>
      <path class="cls-10" d="M366.46436,430.43701h-1.27783v1.979h-.93652v-1.979h-4.18799v-.854l4.0874-5.82568h1.03711v5.79004h1.27783v.88965Zm-2.21436-.88965v-2.8623c0-.56152,.01953-1.1958,.05859-1.90283h-.04688c-.18848,.37695-.36523,.68945-.53027,.93652l-2.69189,3.82861h3.21045Z"/>
      <polyline class="cls-4" points="331.146 425.05099 331.146 431.69992 336.99339 431.69992 344.66302 435.74417"/>
      <polyline class="cls-4" points="354.53556 425.05099 354.53556 431.69992 348.68817 431.69992"/>
      <g>
        <line class="cls-1" x1="238.07521" y1="372.92956" x2="238.07521" y2="358.34512"/>
        <line class="cls-1" x1="241.58786" y1="379.75759" x2="234.56249" y2="379.75759"/>
        <line class="cls-1" x1="247.15863" y1="372.92958" x2="228.99172" y2="372.92958"/>
        <line class="cls-1" x1="244.37324" y1="376.34359" x2="231.7771" y2="376.34359"/>
      </g>
      <g>
        <polygon class="cls-7" points="189.91075 358.34512 179.03175 379.75759 200.78975 379.75759 189.91075 358.34512"/>
        <circle class="cls-8" cx="189.91075" cy="376.73436" r=".68203"/>
        <line class="cls-6" x1="189.91075" y1="373.6304" x2="189.91075" y2="364.40188"/>
      </g>
    </g>
  </g>
  <g id="Modbus">
    <g>
      <path class="cls-10" d="M253.13867,108.50195h2.92773v4.18799c-.45557,.14502-.91895,.25488-1.39014,.32959s-1.01709,.11182-1.6377,.11182c-1.30371,0-2.31885-.3877-3.04492-1.16309-.72656-.77539-1.08984-1.8623-1.08984-3.26025,0-.89551,.17969-1.67969,.53906-2.35303s.87646-1.18799,1.55176-1.54346,1.4668-.5332,2.37402-.5332c.91895,0,1.7749,.16895,2.56787,.50684l-.38867,.8833c-.77734-.32959-1.52539-.49463-2.24414-.49463-1.04834,0-1.86719,.31201-2.45605,.93652-.58936,.62451-.88379,1.49023-.88379,2.59766,0,1.16211,.28369,2.04395,.85107,2.64453,.56738,.60107,1.40088,.90137,2.50049,.90137,.59668,0,1.18018-.06885,1.74951-.20605v-2.65088h-1.92627v-.89502Z"/>
      <path class="cls-10" d="M264.13672,113.01367h-1.14307l-4.70605-7.22705h-.04688c.0625,.84814,.09424,1.62549,.09424,2.33252v4.89453h-.9248v-8.61133h1.13086l4.69434,7.19775h.04736c-.0083-.10596-.02588-.44678-.05322-1.02197s-.0376-.98682-.0293-1.23389v-4.94189h.93652v8.61133Z"/>
      <path class="cls-10" d="M272.65381,108.62549c0,1.42139-.38574,2.5083-1.15723,3.26025s-1.88184,1.12793-3.33105,1.12793h-2.38525v-8.61133h2.63867c1.33887,0,2.37939,.37109,3.12158,1.11328s1.11328,1.77881,1.11328,3.10986Zm-1.06006,.03516c0-1.12305-.28174-1.96924-.84521-2.53857s-1.40088-.854-2.51221-.854h-1.45508v6.87988h1.21924c1.19385,0,2.09131-.29346,2.69189-.88086,.60107-.58691,.90137-1.45557,.90137-2.60645Z"/>
    </g>
    <g>
      <g>
        <path class="cls-10" d="M308.08398,130.45752v3.34521h-.93506v-8.04395h2.20605c.98682,0,1.71582,.18896,2.1875,.56689,.47119,.37744,.70654,.94629,.70654,1.70557,0,1.06348-.53906,1.78271-1.61719,2.15674l2.18408,3.61475h-1.10596l-1.94775-3.34521h-1.67822Zm0-.80322h1.28223c.66016,0,1.14453-.13135,1.45264-.39355s.46191-.65576,.46191-1.18018c0-.53174-.15674-.91504-.47021-1.1499s-.81689-.35205-1.51025-.35205h-1.21631v3.07568Z"/>
        <path class="cls-10" d="M319.2168,131.6626c0,.70801-.25684,1.25977-.77002,1.65576-.51367,.39648-1.21045,.59424-2.09082,.59424-.9541,0-1.6875-.12256-2.20117-.36865v-.90234c.33057,.13965,.68994,.24951,1.07861,.33057,.38867,.08057,.77393,.12061,1.15527,.12061,.62354,0,1.09326-.11816,1.40869-.35449,.31543-.23682,.47314-.56592,.47314-.98779,0-.27881-.05615-.50684-.16797-.68506-.11182-.17773-.29883-.3418-.56104-.49219s-.66113-.32129-1.19678-.51172c-.74805-.26807-1.28271-.58496-1.604-.95215-.3208-.3667-.48096-.84521-.48096-1.43604,0-.61963,.23242-1.11328,.69873-1.47998,.46533-.3667,1.08203-.55029,1.84863-.55029,.79932,0,1.53467,.14697,2.20605,.44043l-.2915,.81396c-.66406-.27832-1.30957-.41797-1.93652-.41797-.49561,0-.88232,.10645-1.16113,.31934-.27881,.2124-.41797,.50781-.41797,.88574,0,.27881,.05127,.50684,.15381,.68506,.10254,.17773,.27588,.34082,.52002,.48975,.24365,.14844,.61719,.3125,1.11963,.49219,.84375,.30078,1.42432,.62354,1.74121,.96826,.31738,.34473,.47607,.79248,.47607,1.34277Z"/>
        <path class="cls-10" d="M326.53662,131.9541h-1.19385v1.84863h-.875v-1.84863h-3.91162v-.79785l3.81836-5.44141h.96826v5.4082h1.19385v.83105Zm-2.06885-.83105v-2.67383c0-.52441,.01855-1.1167,.05518-1.77734h-.04395c-.17627,.35254-.34131,.64404-.49512,.875l-2.51465,3.57617h2.99854Z"/>
        <path class="cls-10" d="M330.53906,125.64307c.7334,0,1.31494,.1709,1.74414,.51172,.4292,.34131,.64355,.8125,.64355,1.41406,0,.396-.12305,.75732-.36865,1.08398s-.63818,.62354-1.17725,.89111c.65283,.31201,1.1167,.63916,1.3916,.98242,.27539,.34277,.41309,.73975,.41309,1.19092,0,.66797-.2334,1.20068-.69873,1.59863-.46631,.39795-1.10449,.59668-1.91504,.59668-.8584,0-1.51855-.18799-1.98047-.56396-.4624-.37598-.69336-.90869-.69336-1.59814,0-.92041,.56104-1.6377,1.68359-2.15137-.50635-.28613-.86914-.59521-1.08936-.92725-.22021-.33154-.33008-.70312-.33008-1.11377,0-.5835,.21533-1.04834,.64648-1.39502,.43066-.34668,1.00781-.52002,1.73047-.52002Zm-1.73877,6.12939c0,.44043,.15283,.7832,.45947,1.02881,.30615,.24609,.73633,.36865,1.29004,.36865,.54639,0,.97217-.12842,1.27637-.38525,.30469-.25635,.45703-.6084,.45703-1.05615,0-.35596-.14307-.67236-.4292-.94922s-.78516-.54541-1.49658-.80615c-.54688,.23486-.94287,.49463-1.18848,.77881-.24609,.28418-.36865,.62451-.36865,1.02051Zm1.72754-5.38623c-.4585,0-.81787,.10986-1.07812,.33008-.26074,.21973-.39111,.51318-.39111,.88037,0,.3374,.1084,.62695,.32471,.86914s.61621,.48389,1.19971,.72607c.52441-.21973,.896-.45654,1.11426-.70947,.21777-.25342,.32715-.54834,.32715-.88574,0-.37061-.13281-.66504-.39893-.8833s-.63184-.32715-1.09766-.32715Z"/>
        <path class="cls-10" d="M337.396,128.88965c.84766,0,1.51416,.20996,2,.62988,.48633,.41992,.729,.99512,.729,1.72461,0,.83301-.26465,1.48584-.79492,1.95898s-1.26074,.70947-2.19238,.70947c-.90625,0-1.59766-.14453-2.07422-.43457v-.88037c.25635,.16504,.57568,.29443,.95703,.38818,.38184,.09326,.75732,.14014,1.12793,.14014,.64551,0,1.14746-.15234,1.50488-.45654,.35791-.30469,.53662-.74463,.53662-1.3208,0-1.12207-.68799-1.68359-2.06348-1.68359-.34863,0-.81396,.05322-1.39746,.15967l-.47314-.30273,.30273-3.76318h4v.8418h-3.21875l-.20361,2.41553c.42188-.08447,.8418-.12646,1.25977-.12646Z"/>
      </g>
      <g>
        <polygon class="cls-3" points="297.89257 123.75995 299.36431 116.43236 302.72236 116.43236 304.23555 120.8372 307.52105 116.43236 310.88947 116.43236 309.397 123.75995 307.32413 123.75995 308.33984 118.57778 304.49466 123.75995 302.86746 123.75995 301.03297 118.58814 300.01726 123.75995 297.89257 123.75995"/>
        <path class="cls-3" d="M317.63666,118.9198c-.2902-.2902-1.30591-.41457-2.48744-.41457-1.84485,0-2.75692,.30057-3.30623,.84988-.54931,.54931-.81878,2.62218-.81878,2.8502,0,.21765-.08292,.80842,.3213,1.21263,.40421,.40421,1.37846,.4353,2.88129,.4353s2.33198-.25911,2.89165-.64259c.55967-.37312,.89133-2.35271,.95352-2.9642,.05182-.62186-.1451-1.0468-.4353-1.32664m-1.47174,2.31125c-.15547,.54931-.21765,.77733-.40421,.91206s-1.14008,.22802-1.34737,.22802-1.22299-.02073-1.43028-.22802,.10364-1.75157,.40421-1.9174,.92243-.21765,1.3681-.20729c.68405,.01036,1.20227,.03109,1.34737,.1762,.1451,.16583,.21765,.48712,.06218,1.03644"/>
        <path class="cls-3" d="M324.7777,116.43236l-.57004,2.91238c-.26947-.64259-.77733-.83951-1.86558-.83951-1.84485,0-2.16615,.30057-2.71546,.84988s-.81878,2.62218-.81878,2.8502c0,.21765-.08291,.80842,.3213,1.21263,.40421,.40421,.7255,.4353,2.18688,.4353,1.40955,0,1.9174-.47676,2.16615-.79806l-.13474,.70477h1.84485l1.43028-7.3276h-1.84485Zm-1.34737,5.72112c-.18656,.13474-1.14008,.22802-1.35773,.22802s-1.22299-.02073-1.43028-.22802,.10364-1.75157,.40421-1.9174,.92243-.21765,1.3681-.20729c.68405,.01036,1.20227,.03109,1.35773,.1762,.09328,.09328,.15547,.26947,.1451,.52858l-.12437,.6115c-.12437,.47676-.18656,.68404-.36275,.80842"/>
        <path class="cls-3" d="M333.4112,118.81616c-.22802-.19692-.80842-.31093-1.90704-.31093-1.37846,0-1.9485,.27984-2.3838,.8706l.57004-2.93311h-1.8034l-1.45101,7.31723h1.83449l.1451-.74623c.21765,.50785,.54931,.83951,2.07287,.83951,1.50283,0,1.90704-.07255,2.3838-.55967,.50785-.50785,.9017-2.42526,.95352-3.04712,.05182-.6115-.03109-1.10899-.41458-1.43028m-1.44064,2.4149c-.15547,.54931-.21765,.77733-.40421,.91206s-1.14008,.22802-1.34737,.22802-1.22299-.02073-1.43028-.22802,.10364-1.75157,.40421-1.9174,.92243-.21765,1.3681-.20729c.68405,.01036,1.20227,.03109,1.34737,.1762,.15546,.16583,.21765,.48712,.06218,1.03644"/>
        <path class="cls-3" d="M340.03402,118.56741h-.07255s-.48713,2.8502-.93279,3.29586-1.09862,.47676-1.32664,.47676c-.21765,0-.84988-.09328-1.07789-.3213-.27984-.2902,.33166-2.97457,.44567-3.45133h-1.79303s-.7255,3.2855-.7255,3.79335c0,.40421,.04146,1.15044,1.16081,1.40955,.25911,.06219,.57004,.09328,.95352,.09328,.30057,0,.5804-.03109,.82915-.09328,.8706-.20729,1.41991-.70477,1.72048-1.07789l-.20729,1.07789h1.71012l1.01571-5.19254h-1.69976v-.01036Z"/>
        <path class="cls-3" d="M347.22688,120.18425h1.66866s.03109-.40421,.03109-.57004c0-.1762,.03109-.40421-.32129-.7566-.35239-.35239-2.25943-.34202-2.58073-.34202s-2.05214-.03109-2.53927,.37312c-.41457,.33166-.7566,.76696-.7566,1.61684,0,.86024,.57004,1.1919,1.69976,1.1919h2.02105c.27984,0,.63222,.08291,.63222,.34202s-.19693,.6115-.9017,.6115h-1.337c-.32129,0-.9017-.05182-.9017-.41457v-.16583h-1.66866s-.08291,.2902-.08291,.53895,.04146,.57004,.32129,.84988c.27984,.27984,1.45101,.40421,2.65327,.40421s2.49781-.05182,2.93311-.49749c.44567-.44567,.64259-1.27481,.64259-1.71012s-.1451-.64259-.2902-.78769c-.13474-.13474-.54931-.38348-2.3838-.38348-1.63757,0-1.68939-.15547-1.68939-.31093,0-.12437,.02073-.4353,1.31627-.4353,1.29555-.01036,1.53393,.05182,1.53393,.44567"/>
      </g>
    </g>
    <g>
      <path class="cls-9" d="M276.04883,104.39941h2.4375c1.14453,0,1.97314,.1709,2.48438,.51318,.51172,.34229,.76758,.8833,.76758,1.62305,0,.51172-.14307,.93359-.42822,1.26611s-.70117,.54785-1.24805,.646v.05908c1.31006,.22461,1.96533,.91309,1.96533,2.06592,0,.771-.26074,1.37305-.78223,1.80566-.52148,.43311-1.25,.64941-2.18652,.64941h-3.00977v-8.62842Zm1.00293,3.69434h1.65283c.70801,0,1.21777-.11084,1.52832-.3335,.31104-.22217,.46631-.59717,.46631-1.12402,0-.48438-.17285-.8335-.51904-1.04785-.34668-.21436-.89746-.32178-1.65283-.32178h-1.47559v2.82715Zm0,.8501v3.22803h1.80029c.69629,0,1.2207-.13477,1.57275-.4043,.35205-.26904,.52832-.69141,.52832-1.26562,0-.53516-.18018-.92871-.54004-1.18066-.35986-.25146-.9082-.37744-1.64355-.37744h-1.71777Z"/>
      <path class="cls-9" d="M283.17822,108.72021c0-1.04248,.15234-2.01855,.45752-2.92725,.30469-.90918,.74463-1.70557,1.31885-2.39014h.95654c-.56689,.75928-.99268,1.59326-1.27783,2.50195-.28564,.90918-.42822,1.84375-.42822,2.80371,0,.94434,.14551,1.86719,.43701,2.76807,.29102,.90088,.70996,1.72314,1.25684,2.4668h-.94434c-.57812-.66895-1.01904-1.44971-1.32178-2.34277-.30322-.89307-.45459-1.85352-.45459-2.88037Z"/>
      <path class="cls-9" d="M289.52051,108.35938h2.43164v.81445h-2.43164v2.51416h-.82031v-2.51416h-2.41992v-.81445h2.41992v-2.52588h.82031v2.52588Z"/>
      <path class="cls-9" d="M295.06592,108.72021c0,1.03467-.15283,1.99902-.45752,2.89209-.30518,.89307-.74463,1.66992-1.31934,2.33105h-.94434c.54688-.73975,.96631-1.56104,1.25732-2.46387s.43701-1.82666,.43701-2.771c0-.95996-.14307-1.89453-.42822-2.80371-.28516-.90869-.71094-1.74268-1.27783-2.50195h.95605c.57861,.68848,1.01904,1.48828,1.32227,2.39893,.30273,.91113,.45459,1.88379,.45459,2.91846Z"/>
    </g>
    <g>
      <path class="cls-9" d="M232.16064,113.0249l-1.07422-2.74463h-3.4585l-1.0625,2.74463h-1.01514l3.41113-8.66406h.84424l3.39355,8.66406h-1.03857Zm-1.38721-3.64746l-1.00342-2.67334c-.12988-.33838-.26367-.75342-.40137-1.24561-.08643,.37793-.21045,.79297-.37158,1.24561l-1.01514,2.67334h2.7915Z"/>
      <path class="cls-9" d="M233.68311,108.7207c0-1.04248,.15234-2.01855,.45752-2.92725,.30469-.90918,.74463-1.70557,1.31885-2.39014h.95654c-.56689,.75928-.99268,1.59326-1.27783,2.50195-.28564,.90918-.42822,1.84375-.42822,2.80371,0,.94434,.14551,1.86719,.43701,2.76807,.29102,.90088,.70996,1.72314,1.25684,2.4668h-.94434c-.57812-.66895-1.01904-1.44971-1.32178-2.34277-.30322-.89307-.45459-1.85352-.45459-2.88037Z"/>
      <path class="cls-9" d="M236.78516,109.1709v-.81445h5.67188v.81445h-5.67188Z"/>
      <path class="cls-9" d="M245.57129,108.7207c0,1.03467-.15283,1.99902-.45752,2.89209-.30518,.89307-.74463,1.66992-1.31934,2.33105h-.94434c.54688-.73975,.96631-1.56104,1.25732-2.46387s.43701-1.82666,.43701-2.771c0-.95996-.14307-1.89453-.42822-2.80371-.28516-.90869-.71094-1.74268-1.27783-2.50195h.95605c.57861,.68848,1.01904,1.48828,1.32227,2.39893,.30273,.91113,.45459,1.88379,.45459,2.91846Z"/>
    </g>
  </g>
  <g id="Branding">
    <g>
      <path class="cls-10" d="M217.18867,197.53643c.07976-5.08085,4.21441-9.14127,9.29604-9.1297,5.11177,.01092,9.26734,4.1681,9.25576,9.27987-.01078,5.10019-4.15478,9.21311-9.25576,9.23959-5.12652,.02632-9.31618-4.11307-9.35107-9.23959h-2.44361c.02252,6.50404,5.29143,11.76915,11.79468,11.7877,6.5226,.01855,11.89379-5.26511,11.86366-11.7877-.03028-6.49233-5.37135-11.69716-11.86366-11.67861-6.47296,.01871-11.71175,5.20628-11.79468,11.67861h2.49864s0-.15017,0-.15017h0Z"/>
      <path class="cls-11" d="M264.65458,199.71681c.31445,.01395,.75102,.08198,.9562,.17728,.19061,.09514,.31287,.17728,.43671,.29954,.08214,.08212,.2044,.3005,.27259,.3958,.08214,.1091,.15017,.68123,.15017,.68123v4.57849s4.39644,0,4.39644,0v-6.34991s.04028-.40896-.06819-.87184c-.05566-.2997-.19203-.60022-.38248-.84567-.12385-.2044-.26022-.36773-.43671-.54502-.27401-.25863-.51869-.46303-.91513-.62636-.46462-.21836-1.39227-.36852-2.04718-.39566-3.27676-.20438-5.02439,1.14429-5.02439,1.14429v-1.04914s-4.45052,0-4.45052,0v9.53932s4.45052,0,4.45052,0v-4.2509c0-.04184,.08214-.31363,.12305-.43669,.05423-.13621,1.00979-1.54006,2.53892-1.44476h0Z"/>
      <polygon class="cls-10" points="285.90324 205.86153 281.48063 205.86153 281.48063 193.03707 285.90324 193.03707 285.90324 205.86153 285.90324 205.86153"/>
      <path class="cls-10" d="M302.49778,196.30984h4.27244s-.01395,.81779-.01395,.81779c0,0,1.78855-1.4852,4.60085-.87199,3.04446,.70851,2.38938,4.78286,2.38938,4.78286h-4.49238s.04186-.27256,0-.59941c-.05423-.53104-.31429-1.18531-1.37816-1.11728-1.11969,.19061-1.11969,1.21261-1.11969,1.21261v5.31474h-4.2461l-.01238-9.53932h0Z"/>
      <path class="cls-10" d="M281.46049,200.62956l.39485-3.59724c-.43671-.39485-.99584-.72248-1.84278-.87184-.83314-.25943-1.97915-.21836-2.67591-.21836-2.77045,0-5.18774,2.34371-5.18774,5.08323,0,2.73935,2.26712,4.96001,5.0374,4.96001,.66902,0,1.8986,.02791,2.6496-.14938,1.56877-.38184,2.36163-1.06323,2.89285-2.24857l-1.26827-2.64421c-.08214,1.022-1.14759,1.83977-2.42982,1.83977-1.32551,0-2.40334-.87184-2.40334-1.93507,0-1.06308,1.07782-1.94887,2.40334-1.94887,1.24195,0,2.30581,.76353,2.42982,1.73051h0Z"/>
      <path class="cls-10" d="M288.68144,197.37294c.90117-.98093,3.01654-1.64916,5.47411-1.64916,2.25317,0,4.17809,.54502,5.20168,1.36278,1.18771,.91354,1.95124,2.34451,1.95124,3.9388,0,.43592,.0138,.4088-.09451,.8176,0,0-5.28366,.01316-7.76771,.01316v-2.05733c1.2421,0,3.26296,0,3.18083,0,.02631-.60004-.84711-1.70342-2.34912-1.66232-1.32409-.17728-2.53811,1.03517-2.53811,1.66232h1.96503v2.05733c-.53265,0-1.99295,0-1.96503,0,.1362,1.14522,1.62441,1.75842,2.74394,1.75842,.7093,0,1.48821-.17728,2.14329-.76355h4.36852c-.21836,.53204-.20439,.79067-.58688,1.22659-.91529,1.43081-3.52302,2.24841-6.19895,2.24841-1.92492,0-3.64386-.44908-4.74943-1.10335,0,0-2.34925-1.45792-2.34925-4.19728,0-1.4178,.58687-2.73951,1.53006-3.63846l.04028-.01395h0Z"/>
      <path class="cls-10" d="M249.16038,195.23363v-2.2075s-2.49864-.01395-3.71347-.01395c-1.21483,0-2.22526,1.02214-2.22526,2.23461v1.04991h-1.29697s-.01316,2.7116-.01316,2.7116h1.31013v6.84085s4.45052,0,4.45052,0v-6.84085h1.48821s0-2.7116,0-2.7116h-1.63838c0-.62636,.15017-1.04991,.77812-1.04991,.53281,0,.86026-.01316,.86026-.01316h0Z"/>
      <polygon class="cls-10" points="250.94829 205.836 250.94829 196.28275 255.42593 196.28275 255.42593 205.836 250.94829 205.836 250.94829 205.836"/>
      <polygon class="cls-10" points="250.94893 195.23759 250.94893 193.01693 255.42672 193.01693 255.42672 195.23759 250.94893 195.23759 250.94893 195.23759"/>
      <path class="cls-10" d="M227.35037,187.71234v14.95061s-3.50669-3.80338-3.50669-3.80338c.39865,.07675,.71548-.02854,.9887-.32983,.25705-.28178,.28955-.49937,.25007-.94684v-9.60732s-2.26712,.69677-2.26712,.69677v7.7785h-7.05366s0,2.40873,0,2.40873h4.45607s5.77461,5.63221,5.77461,5.63221c.88341,.96095,1.60888,1.55481,2.59695,1.07941,.60845-.29193,.9229-.68377,1.04215-1.38212v-7.9488h2.67591c.59387-.04884,1.03136-.48555,1.08084-1.07862,.05423-.65047-.43053-1.22419-1.08084-1.27763h-2.67591v-5.21167s-2.28109-.96-2.28109-.96h0Z"/>
    </g>
    <g>
      <g>
        <g>
          <path class="cls-10" d="M254.0836,221.4743c-.65294,0-1.31931,.04324-1.97973,.13867-5.51585,.7886-9.20848,4.75703-11.27618,7.79968-2.07217-3.04265-5.7633-7.01107-11.28064-7.79968-.65894-.09543-1.32531-.13867-1.97975-.13867-7.10204,0-12.87728,5.57102-12.87728,12.41811,0,6.8486,5.77524,12.41662,12.8728,12.41662,.65891,0,1.32528-.04323,1.98422-.13566,5.51734-.79309,9.20846-4.76301,11.28064-7.80866,2.0677,3.04565,5.76033,7.01557,11.27618,7.80866,.66042,.09243,1.32679,.13566,1.9857,.13566,7.09607,0,12.87131-5.56802,12.87131-12.41662,0-6.84709-5.77673-12.41811-12.87728-12.41811Zm-25.15969,20.33859c-.45171,.06409-.91086,.09689-1.36107,.09689-4.67059,0-8.47056-3.59872-8.47056-8.01736,0-4.42012,3.79997-8.02182,8.47504-8.02182,.44723,0,.90489,.03727,1.35807,.0984,5.19684,.7424,8.37962,5.86914,9.45745,7.92044-1.07932,2.05578-4.26061,7.18104-9.45892,7.92346Zm25.16566,.09689c-.44723,0-.90787-.03279-1.36255-.09689-5.19833-.74242-8.37962-5.86917-9.45596-7.92047,1.07932-2.05428,4.25763-7.18102,9.45596-7.92342,.45022-.06113,.91084-.0984,1.35658-.0984,4.67208,0,8.47354,3.6017,8.47354,8.02182,0,4.41864-3.79848,8.01736-8.46758,8.01736Z"/>
          <rect class="cls-10" x="224.01908" y="232.67834" width="7.73146" height="2.49219"/>
          <polygon class="cls-10" points="254.94253 235.17052 257.5563 235.17052 257.5563 232.67834 254.94253 232.67834 254.94253 230.05665 252.44359 230.05665 252.44359 232.67834 249.82631 232.67834 249.82631 235.17052 252.44359 235.17052 252.44359 237.79308 254.94253 237.79308 254.94253 235.17052"/>
          <path class="cls-10" d="M266.9266,222.22715c-.07305-.16993-.17146-.31602-.2937-.43828-.12224-.12375-.26684-.22063-.43233-.29368-.16545-.07305-.34436-.11032-.53667-.11032-.1908,0-.36971,.03727-.53369,.11032-.16697,.07305-.31009,.16993-.43382,.29368-.12224,.12225-.22063,.26835-.29368,.43828-.07305,.16848-.10884,.35333-.10884,.55307,0,.19232,.0358,.37418,.10884,.54714,.07305,.17292,.17144,.3205,.29368,.44275,.12373,.12373,.26685,.22212,.43382,.29368,.16398,.07454,.34288,.11032,.53369,.11032,.19232,0,.37122-.03578,.53667-.11032,.16549-.07155,.31009-.16995,.43233-.29368,.12224-.12225,.22065-.26984,.2937-.44275,.07305-.17295,.11032-.35482,.11032-.54714,0-.19974-.03727-.38459-.11032-.55307Zm-.30114,.97497c-.05518,.13119-.13121,.24449-.22809,.34139-.0984,.09838-.20871,.1759-.33095,.23404-.12375,.05814-.25641,.08646-.40252,.08646-.14311,0-.27877-.02832-.40548-.08646s-.23703-.13567-.32947-.23404c-.09539-.0969-.16993-.2102-.22362-.34139-.05365-.1297-.08198-.27133-.08198-.4219,0-.15204,.02833-.29517,.08198-.42932,.05368-.13268,.12822-.24896,.22362-.34587,.09245-.09689,.20276-.17441,.32947-.22809,.12671-.05365,.26238-.08198,.40548-.08198,.14611,0,.27877,.02833,.40252,.08198,.12224,.05368,.23255,.13121,.33095,.22809,.09689,.0969,.17292,.21319,.22809,.34587,.05365,.13415,.08051,.27728,.08051,.42932,0,.15057-.02686,.2922-.08051,.4219Z"/>
          <path class="cls-10" d="M265.96504,222.91441c.07603-.03876,.13567-.09245,.17741-.16251,.04322-.06857,.06409-.14609,.06409-.22958,0-.12968-.04622-.24298-.13863-.3399-.09095-.09539-.24896-.1446-.47109-.1446-.08497,0-.161,.00298-.2266,.00597-.06411,.00448-.1282,.00895-.18933,.01789v1.37152h.34585v-.45022h.13716l.243,.45022h.39207l-.33393-.51878Zm-.34585-.18485c-.04771,0-.082-.00298-.10436-.01045v-.36971c.02237-.00746,.06113-.01194,.11479-.01194,.14609,0,.22063,.0656,.22063,.19679s-.0775,.1953-.23106,.1953Z"/>
        </g>
        <g>
          <path class="cls-10" d="M220.35943,249.96142h-2.04533l-2.30323,7.34204h1.86346l.37269-1.5027h2.11241l.40548,1.5027h1.93205l-2.33753-7.34204Zm-1.76208,4.42759l.66637-2.68786,.72302,2.68786h-1.38939Z"/>
          <path class="cls-10" d="M228.25307,254.6156c.80203-.42933,1.20901-1.19708,1.20901-2.20335,0-1.41176-.76775-2.45082-2.80116-2.45082h-2.95917v7.34204h1.81875v-2.32709h.91532l1.10616,2.32709h2.14671l-1.43561-2.68786Zm-1.77253-1.09571h-.96005v-2.07813h.92576c.84675,0,1.08528,.32797,1.08528,.98242,0,.81246-.41891,1.09571-1.051,1.09571Z"/>
          <path class="cls-10" d="M233.17855,249.96142h-2.40609v7.34204h2.41653c3.11718,0,3.6494-1.99912,3.6494-3.73885,0-2.30324-.91533-3.60319-3.65985-3.60319Zm.10138,5.83934h-.68873v-4.35901h.53072c1.62642,0,1.774,.76775,1.774,2.20187,0,1.2433-.1133,2.15714-1.61599,2.15714Z"/>
          <path class="cls-10" d="M242.05609,249.96142v4.48424c0,1.11808-.30561,1.49077-1.13001,1.49077-.68872,0-1.11808-.28176-1.11808-1.5027v-4.47231h-1.81724v4.81221c0,2.22422,1.60258,2.64313,2.85632,2.64313,1.29995,0,2.95917-.46363,2.95917-2.6327v-4.82263h-1.75016Z"/>
          <path class="cls-10" d="M250.89934,251.46412v-1.5027h-5.62467v1.5027h1.89775v4.33664h-1.89775v1.5027h5.62467v-1.5027h-1.90819v-4.33664h1.90819Z"/>
          <path class="cls-10" d="M256.60452,249.96142v4.40522l-2.38374-4.40522h-1.97676v7.34204h1.71735l-.01192-4.69891,2.50748,4.69891h1.84108v-7.34204h-1.69349Z"/>
          <path class="cls-10" d="M262.42001,249.86005c-2.22425,0-3.071,1.63835-3.071,3.85214,0,2.42698,.97049,3.70457,3.0829,3.70457,2.3599,0,3.13957-1.66072,3.13957-3.78357,0-2.80115-1.06143-3.77314-3.15147-3.77314Zm.0119,6.07638c-1.04949,0-1.15236-.74538-1.15236-2.22423,0-1.79637,.16997-2.37181,1.14046-2.37181,1.07335,0,1.22093,.49643,1.22093,2.2928,0,1.69351-.14758,2.30324-1.20903,2.30324Z"/>
        </g>
      </g>
      <path class="cls-5" d="M274.71587,226.1121v15.36387h34.34879v-15.36387h-34.34879Z"/>
      <path class="cls-10" d="M283.82694,230.03h-3.0063v7.51569h1.86655v-2.21336h.99104c2.01525,0,3.02283-1.12322,3.02283-2.72552,0-1.4536-.79283-2.57681-2.87412-2.57681Zm-.18167,3.76616h-.95808v-2.24653h.90847c.95808,0,1.12322,.52859,1.12322,1.12332,0,.8259-.34681,1.12322-1.07361,1.12322Zm9.77866,.99104c.80937-.42949,1.23885-1.22232,1.23885-2.24643,0-1.4536-.79283-2.51078-2.87412-2.51078h-3.03937v7.51569h1.86655v-2.3786h.94154l1.13975,2.3786h2.19693l-1.47013-2.75849Zm-1.81695-1.12322h-.99114v-2.11436h.95808c.85897,0,1.10668,.33038,1.10668,1.00768,0,.8259-.42949,1.10668-1.07361,1.10668Zm8.12685-3.74963c-2.2795,0-3.155,1.68487-3.155,3.94784,0,2.49424,.99114,3.79913,3.155,3.79913,2.42811,0,3.22104-1.70131,3.22104-3.86517,0-2.87412-1.09025-3.8818-3.22104-3.8818Zm0,6.22734c-1.07371,0-1.17282-.75987-1.17282-2.2795,0-1.83348,.16524-2.42811,1.17282-2.42811,1.09015,0,1.23885,.51206,1.23885,2.36207,0,1.73438-.14871,2.34554-1.23885,2.34554Z"/>
      <g>
        <path class="cls-10" d="M312.17509,226.39031h-.53315v1.41211h-.33547v-1.41211h-.53303v-.27821h1.40165v.27821Z"/>
        <path class="cls-10" d="M313.53019,226.63479l-.28867,.58257h-.23925l-.31207-.60597v1.19103h-.2705v-1.69032h.29651l.40568,.77502,.39523-.77502h.28867v1.69032h-.2756v-1.16763Z"/>
      </g>
    </g>
    <g>
      <rect class="cls-2" x="82.43171" y="236.06558" width="73.90149" height="28.1847"/>
      <g>
        <path class="cls-9" d="M105.39502,250.35107c0,2.50879-.62256,4.4375-1.8667,5.78516s-3.02734,2.02197-5.34961,2.02197c-2.32275,0-4.10596-.67432-5.3501-2.02197s-1.86621-3.2832-1.86621-5.80615,.62354-4.44971,1.87158-5.78027c1.24756-1.33057,3.03564-1.99561,5.36523-1.99561,2.3291,0,4.11084,.67041,5.34473,2.01123s1.85107,3.26953,1.85107,5.78564Zm-11.06299,0c0,1.69336,.32129,2.96875,.96436,3.82568,.64258,.85693,1.60352,1.28564,2.88232,1.28564,2.56396,0,3.84619-1.70361,3.84619-5.11133,0-3.41455-1.2749-5.12207-3.82568-5.12207-1.27881,0-2.24316,.43018-2.89258,1.29102-.6499,.86035-.97461,2.13721-.97461,3.83105Z"/>
        <path class="cls-9" d="M119.00781,247.52051c0,1.63135-.50977,2.87891-1.5293,3.74268-1.01953,.86426-2.46924,1.2959-4.34912,1.2959h-1.37891v5.3916h-3.21436v-15.1582h4.8418c1.83887,0,3.23682,.39551,4.19385,1.18701,.95752,.7915,1.43604,1.97168,1.43604,3.54102Zm-7.25732,2.40527h1.05713c.98877,0,1.72803-.19531,2.21924-.58594,.49023-.39014,.73584-.95898,.73584-1.70557,0-.75342-.20557-1.30957-.6167-1.66895-.41162-.35938-1.05615-.53955-1.93359-.53955h-1.46191v4.5Z"/>
        <path class="cls-9" d="M127.71729,257.95068h-3.21436v-12.4834h-4.11572v-2.6748h11.44629v2.6748h-4.11621v12.4834Z"/>
        <path class="cls-9" d="M143.44531,257.95068l-1.09863-3.60791h-5.52637l-1.09912,3.60791h-3.46289l5.3501-15.22021h3.9292l5.37109,15.22021h-3.46338Zm-1.86621-6.30371c-1.01611-3.26953-1.58789-5.11865-1.71582-5.54688-.12793-.42871-.21924-.76758-.2749-1.01611-.22803,.88477-.88086,3.07227-1.95947,6.56299h3.9502Z"/>
      </g>
    </g>
    <g>
      <path class="cls-10" d="M360.97363,210.80322l2.55859-1.00098v-3.22461l-2.55859-.99023v-.94629l8.07715,3.18018v.78662l-8.07715,3.16406v-.96875Zm3.40039-1.29297l2.49219-.93506c.31543-.12109,.70264-.24609,1.16113-.37451-.35205-.08057-.73926-.1958-1.16113-.34619l-2.49219-.94678v2.60254Z"/>
      <path class="cls-10" d="M360.97363,214.37646v-.93506h8.04395v4.48389h-.83057v-3.54883h-2.94385v3.33447h-.83057v-3.33447h-3.43896Z"/>
      <path class="cls-10" d="M360.97363,225.17383v-1.06201l3.5376-2.16211-3.5376-2.20117v-.99023l4.20361,2.67383,3.84033-2.49219v1.03418l-3.18555,1.99756,3.18555,2.01367v.99561l-3.80762-2.49219-4.23633,2.68506Z"/>
      <path class="cls-10" d="M365.00684,231.66309c-1.39062,0-2.42871-.21924-3.11426-.65771-.68604-.43848-1.02881-1.1084-1.02881-2.01074,0-.86572,.35107-1.52441,1.05322-1.97559,.70264-.45117,1.73242-.67676,3.08984-.67676,1.40088,0,2.44092,.21826,3.11963,.65479,.67822,.43652,1.01758,1.10254,1.01758,1.99756,0,.87256-.354,1.53564-1.06201,1.98877-.70752,.45312-1.73291,.67969-3.0752,.67969Zm0-4.39648c-1.17041,0-2.02197,.1377-2.55615,.41309-.53369,.2749-.80029,.71289-.80029,1.31494,0,.6084,.27051,1.0498,.81152,1.32324,.54102,.27295,1.38916,.40967,2.54492,.40967,1.15527,0,2.00146-.13672,2.53906-.40967,.53711-.27344,.80615-.71484,.80615-1.32324,0-.60205-.26514-1.04004-.79541-1.31494-.52979-.27539-1.37988-.41309-2.5498-.41309Z"/>
      <path class="cls-10" d="M365.00684,238.66895c-1.39062,0-2.42871-.21924-3.11426-.65771-.68604-.43848-1.02881-1.1084-1.02881-2.01074,0-.86572,.35107-1.52441,1.05322-1.97559,.70264-.45117,1.73242-.67676,3.08984-.67676,1.40088,0,2.44092,.21826,3.11963,.65479,.67822,.43652,1.01758,1.10254,1.01758,1.99756,0,.87256-.354,1.53564-1.06201,1.98877-.70752,.45312-1.73291,.67969-3.0752,.67969Zm0-4.39648c-1.17041,0-2.02197,.1377-2.55615,.41309-.53369,.2749-.80029,.71289-.80029,1.31494,0,.6084,.27051,1.0498,.81152,1.32324,.54102,.27295,1.38916,.40967,2.54492,.40967,1.15527,0,2.00146-.13672,2.53906-.40967,.53711-.27344,.80615-.71484,.80615-1.32324,0-.60205-.26514-1.04004-.79541-1.31494-.52979-.27539-1.37988-.41309-2.5498-.41309Z"/>
      <path class="cls-10" d="M365.00684,245.67529c-1.39062,0-2.42871-.21924-3.11426-.65771-.68604-.43848-1.02881-1.1084-1.02881-2.01074,0-.86572,.35107-1.52441,1.05322-1.97559,.70264-.45117,1.73242-.67676,3.08984-.67676,1.40088,0,2.44092,.21826,3.11963,.65479,.67822,.43652,1.01758,1.10254,1.01758,1.99756,0,.87256-.354,1.53564-1.06201,1.98877-.70752,.45312-1.73291,.67969-3.0752,.67969Zm0-4.39648c-1.17041,0-2.02197,.1377-2.55615,.41309-.53369,.2749-.80029,.71289-.80029,1.31494,0,.6084,.27051,1.0498,.81152,1.32324,.54102,.27295,1.38916,.40967,2.54492,.40967,1.15527,0,2.00146-.13672,2.53906-.40967,.53711-.27344,.80615-.71484,.80615-1.32324,0-.60205-.26514-1.04004-.79541-1.31494-.52979-.27539-1.37988-.41309-2.5498-.41309Z"/>
      <path class="cls-10" d="M365.00684,252.68164c-1.39062,0-2.42871-.21924-3.11426-.65771-.68604-.43848-1.02881-1.1084-1.02881-2.01074,0-.86572,.35107-1.52441,1.05322-1.97559,.70264-.45117,1.73242-.67676,3.08984-.67676,1.40088,0,2.44092,.21826,3.11963,.65479,.67822,.43652,1.01758,1.10254,1.01758,1.99756,0,.87256-.354,1.53564-1.06201,1.98877-.70752,.45312-1.73291,.67969-3.0752,.67969Zm0-4.39648c-1.17041,0-2.02197,.1377-2.55615,.41309-.53369,.2749-.80029,.71289-.80029,1.31494,0,.6084,.27051,1.0498,.81152,1.32324,.54102,.27295,1.38916,.40967,2.54492,.40967,1.15527,0,2.00146-.13672,2.53906-.40967,.53711-.27344,.80615-.71484,.80615-1.32324,0-.60205-.26514-1.04004-.79541-1.31494-.52979-.27539-1.37988-.41309-2.5498-.41309Z"/>
      <path class="cls-10" d="M360.97363,259.64404v-5.2876h.78662l2.12939,2.11816c.65283,.64551,1.11865,1.0708,1.39746,1.27637s.55029,.35938,.81445,.4624c.26416,.10254,.54834,.15381,.85254,.15381,.4292,0,.76953-.12988,1.021-.39062,.25098-.26025,.37695-.62158,.37695-1.08398,0-.3335-.05518-.6499-.16504-.94873-.11035-.29932-.31006-.63184-.6001-.99854l.62207-.48438c.61621,.74072,.92432,1.54785,.92432,2.4209,0,.75537-.19385,1.34814-.58057,1.77734-.38721,.42871-.90723,.64355-1.56006,.64355-.50977,0-1.01416-.14307-1.5127-.4292-.49902-.28613-1.12988-.82178-1.89307-1.60645l-1.72217-1.76074h-.04395v4.1377h-.84717Z"/>
    </g>
  </g>
</svg>