<svg xmlns="http://www.w3.org/2000/svg" width="189" height="145" fill="none" viewBox="0 0 189 145"><path fill="#465156" d="M141.773 4.57a8.05 8.05 0 0 1 8.051 8.051v111.076a4.1 4.1 0 0 1-1.083 2.773l-4.632 5.03a4.1 4.1 0 0 1-3.011 1.32h-13.629a8.05 8.05 0 0 1-8.051-8.051V12.621a8.05 8.05 0 0 1 8.051-8.051z"/><path fill="#374146" d="M141.833 129.507a.39.39 0 0 1-.39.39h-11.695a.39.39 0 0 1-.389-.39v-1.949h12.474zm0-4.288a1.169 1.169 0 1 1 0 2.339h-12.474a1.17 1.17 0 0 1 0-2.339z"/><path fill="#fff" fill-rule="evenodd" d="M127.911 7.7h13.42c3.076 0 5.592 2.517 5.592 5.593v102.333c0 3.076-2.523 5.592-5.592 5.592h-13.42c-3.069 0-5.592-2.523-5.592-5.592V13.293c0-3.07 2.516-5.592 5.592-5.592" clip-rule="evenodd"/><path fill="#008184" d="m131.56 12.59 6.29 1.975v1.752l-6.29 2.003v-1.655l1.287-.348v-1.81l-1.287-.32zm4.8 2.788-2.303-.57v1.19zM137.85 19.316v2.535c0 1.742-.89 2.4-2.1 2.4-.861 0-1.519-.348-1.887-1.035l-2.303 1.229v-1.839l1.993-.948v-.784h-1.993v-1.558zm-2.11 3.28c.562 0 .843-.203.843-.929v-.793h-1.781v.823c0 .542.242.9.938.9M137.85 25.51v2.06c0 2.352-1.113 3.136-3.087 3.136-1.49 0-3.203-.455-3.203-3.126v-2.07zm-1.267 1.557h-3.736v.59c0 1.287.784 1.385 1.848 1.385 1.229 0 1.888-.127 1.888-1.52zM137.85 35.311v1.5h-4.132c-1.858 0-2.255-1.423-2.255-2.535 0-1.074.358-2.449 2.265-2.449h4.122v1.559h-3.832c-1.045 0-1.287.367-1.287.957 0 .707.319.968 1.277.968zM132.847 38.204v1.626h3.716v-1.626h1.287v4.82h-1.287v-1.636h-3.716v1.636h-1.287v-4.82zM131.56 45.78v-1.47h6.29v1.693l-3.774 2.042h3.774v1.452h-6.29V47.92l4.026-2.148zM134.705 55.864c-1.819 0-3.242-.667-3.242-2.69 0-1.81 1.094-2.642 3.174-2.642 1.897 0 3.301.726 3.301 2.632 0 1.79-.833 2.7-3.233 2.7m0-1.655c1.539 0 1.965-.126 1.965-1.045 0-.832-.494-.977-2.033-.977-1.267 0-1.906.087-1.906.987 0 .91.522 1.035 1.974 1.035M137.113 56.912c.768 0 1.389.61 1.389 1.349 0 .756-.621 1.366-1.389 1.366-.807 0-1.383-.61-1.383-1.366 0-.74.621-1.349 1.383-1.349m0 2.46c.604 0 1.157-.45 1.157-1.111 0-.644-.474-1.096-1.157-1.096-.717 0-1.157.531-1.157 1.096 0 .66.451 1.111 1.157 1.111m.847-1.806v.734c0 .547-.238.746-.57.746a.53.53 0 0 1-.491-.294l-.627.288v-.57l.53-.181v-.204h-.53v-.519zm-.802.689c0 .152.057.248.232.248.141 0 .209-.05.209-.254v-.164h-.441zM131.56 67.852v-.745h6.29v.861l-5.042 3.068h5.042v.735h-6.29v-.803l5.139-3.116zM137.85 77.916h-.677v-3.484h-2.052v3.154h-.668v-3.154h-2.206v3.484h-.687v-4.268h6.29zM136.292 80.005c.977 0 1.646.93 1.646 2.178 0 .706-.194 1.394-.426 1.79l-.765-.242a2.43 2.43 0 0 0 .513-1.52c0-.841-.281-1.383-.91-1.383-1.471 0-.871 3.358-3.135 3.358-1.2 0-1.752-1.055-1.752-2.284 0-.842.262-1.567.542-2.032l.765.27a2.8 2.8 0 0 0-.649 1.84c0 .774.3 1.374.997 1.374 1.752 0 1.064-3.349 3.174-3.349M136.292 86.294c.977 0 1.646.93 1.646 2.178 0 .706-.194 1.394-.426 1.79l-.765-.242c.31-.387.513-.919.513-1.52 0-.841-.281-1.383-.91-1.383-1.471 0-.871 3.359-3.135 3.359-1.2 0-1.752-1.056-1.752-2.284 0-.843.262-1.568.542-2.033l.765.27a2.8 2.8 0 0 0-.649 1.84c0 .774.3 1.374.997 1.374 1.752 0 1.064-3.349 3.174-3.349M134.695 97.23c-1.868 0-3.232-.9-3.232-2.662 0-1.858 1.239-2.603 3.223-2.603 1.945 0 3.252.842 3.252 2.642 0 1.839-1.133 2.623-3.243 2.623m0-.832c1.645 0 2.565-.397 2.565-1.791 0-1.384-.871-1.81-2.574-1.81-1.597 0-2.545.349-2.545 1.771 0 1.365 1.026 1.83 2.554 1.83M131.56 105.589v-.745h6.29v.861l-5.042 3.068h5.042v.735h-6.29v-.803l5.139-3.116zM132.227 111.366v1.771h4.801l-.32-1.606h.629l.591 2.371h-5.701v1.858h-.667v-4.394z"/><path fill="#778186" d="M96.78 4.57H46.065a8.39 8.39 0 0 0-8.391 8.392v118.216a8.39 8.39 0 0 0 8.391 8.392h50.717a8.39 8.39 0 0 0 8.391-8.392V12.962a8.39 8.39 0 0 0-8.391-8.392"/><path fill="#000" d="M101.814 12.96v118.22a5.04 5.04 0 0 1-5.04 5.04H46.072a5.04 5.04 0 0 1-5.04-5.04V12.96c0-.982.287-1.914.783-2.688a5 5 0 0 1 4.256-2.352h50.701a5.04 5.04 0 0 1 5.041 5.04"/><path fill="#374146" d="M92.6 22.54H50.245v70.62h42.357z"/><path fill="#dedd00" d="M85.52 106.804H57.325a3.2 3.2 0 0 0 0 6.399H85.52a3.2 3.2 0 1 0 0-6.399"/><g fill="#fff" opacity=".2"><path d="M101.804 58.502v20.2l-59.988-68.43a5 5 0 0 1 4.256-2.352h11.38zM101.814 12.96v8.166L90.234 7.92h6.54a5.04 5.04 0 0 1 5.04 5.04M101.814 84.706v9.366L41.032 24.758V15.39zM41.032 81.154l48.29 55.066h2.222L41.033 78.614zM53.96 136.22h-7.887a5.04 5.04 0 0 1-5.04-5.04v-9.704z"/></g></svg>