<svg xmlns="http://www.w3.org/2000/svg" xml:space="preserve" id="Layer_1" x="0" y="0" viewBox="0 0 194 138.3"><style>.st0{fill:#017481}.st1{fill:#b3b6b7}.st2{fill:#a1cbcf}.st3{fill:#8b8f90}.st4{fill:#adb0b1}.st5{fill:#fff}.st6{fill:#c2c5c6}.st7{fill:#a19284}.st8{fill:#8a7867}.st9{fill:#9da0a1}.st11{fill:#b8b9ba}.st12{fill:#eaa800}.st13{fill:#bcc6c6}</style><path d="M0 98.1c0 .7.3 1.4.9 1.9l4.9 4.9c.5.4.7 1 .7 1.7v29.2c0 1.4 1.1 2.5 2.5 2.5h166.8l.2-.1.2-.1.2-.1.2-.1.2-.2.2-.2.2-.2.2-.2.1-.2.1-.2.1-.2.1-.2V2l-.1-.2-.1-.2-.1-.2-.1-.2-.2-.2-.2-.2-.2-.2-.2-.1-.2-.1-.2-.1-.2-.2-.2-.1H8.6l-.2.1-.2.1-.2.1-.3.1-.2.2-.2.2-.1.1-.2.3-.1.2-.1.2-.1.2-.1.3v4.6L.8 12.5c-.5.4-.8 1-.8 1.7z" class="st0"/><path d="M175.7.1h.3l.2.1.3.1.2.1.2.2.2.2.1.1.2.3.1.2.1.2.1.2.1.3v134.1l-.1.3-.1.2-.1.2-.1.3-.2.2-.1.2-.2.1-.2.2-.2.1-.3.1-.2.1-.3.1h-.5.5l.3-.1.2-.1.3-.1.2-.1.2-.2.2-.1.1-.2.2-.2.1-.3.1-.2.1-.2.1-.3V2.1l-.1-.3-.1-.2-.1-.2-.1-.2-.2-.3-.1-.1-.2-.2-.2-.2-.2-.1-.3-.1-.2-.1zl-.2-.1h-.3.3zM175.2 138.3" class="st0"/><path d="M109.7 30.1h3.9V34h-3.9z" class="st1"/><path d="M24.4 82.7c0 .4-.3.6-.6.6-.4 0-.6-.3-.6-.6 0-.4.3-.6.6-.6.3-.1.6.2.6.6M24.4 84.7c0 .4-.3.6-.6.6-.4 0-.6-.3-.6-.6s.3-.6.6-.6.6.3.6.6M24.4 86.8c0 .4-.3.6-.6.6s-.6-.3-.6-.6.3-.6.6-.6.6.2.6.6M24.4 88.9c0 .4-.3.6-.6.6s-.6-.3-.6-.6.3-.6.6-.6c.3-.1.6.2.6.6M29.6 82.7c0 .4-.3.6-.6.6s-.6-.3-.6-.6c0-.4.3-.6.6-.6.3-.1.6.2.6.6M29.6 84.7c0 .4-.3.6-.6.6-.4 0-.6-.3-.6-.6 0-.4.3-.6.6-.6s.6.3.6.6M29.6 86.8c0 .4-.3.6-.6.6s-.6-.3-.6-.6c0-.4.3-.6.6-.6s.6.2.6.6M29.6 88.9c0 .4-.3.6-.6.6s-.6-.3-.6-.6c0-.4.3-.6.6-.6.3-.1.6.2.6.6" class="st2"/><path d="M26.3 89.5h1.3V82H25v7.5z"/><path d="M26.3 89.5h1.3V82H25v7.5z"/><path d="M26.3 89.5h1.3V82H25v7.5z"/><path d="M27.6 88.2h1.3v1.3h-1.3zM27.6 86.2h1.3v1.3h-1.3zM27.6 84.1h1.3v1.3h-1.3zM27.6 82h1.3v1.3h-1.3zM23.8 88.2h1.3v1.3h-1.3zM23.8 86.2h1.3v1.3h-1.3zM23.8 84.1h1.3v1.3h-1.3zM23.8 82h1.3v1.3h-1.3zM122.6 99.3l-1.4 1.3v1.9l1.4 1.4h1.9l1.4-1.4v-1.9l-1.4-1.3zM129.2 99.3l-1.4 1.3v1.9l1.4 1.4h1.9l1.3-1.4v-1.9l-1.3-1.3zM129.2 105.9l-1.4 1.3v1.9l1.4 1.4h1.9l1.3-1.4v-1.9l-1.3-1.3zM122.6 105.9l-1.4 1.3v1.9l1.4 1.4h1.9l1.4-1.4v-1.9l-1.4-1.3z" class="st3"/><path d="M122.3 101.6c0 .7.6 1.2 1.2 1.2.7 0 1.2-.6 1.2-1.2 0-.7-.6-1.2-1.2-1.2-.6-.1-1.2.5-1.2 1.2M128.9 101.6c0 .7.6 1.2 1.2 1.2s1.2-.6 1.2-1.2c0-.7-.6-1.2-1.2-1.2-.6-.1-1.2.5-1.2 1.2M128.9 108.2c0 .7.6 1.2 1.2 1.2.7 0 1.2-.6 1.2-1.2s-.6-1.2-1.2-1.2c-.6-.1-1.2.5-1.2 1.2M122.3 108.2c0 .7.6 1.2 1.2 1.2.7 0 1.2-.6 1.2-1.2 0-.7-.6-1.2-1.2-1.2-.6-.1-1.2.5-1.2 1.2" class="st4"/><path d="M6.6 24.7c2.7 0 5-2.2 5-5 0-2.7-2.2-5-5-5-2.7 0-5 2.2-5 5 .1 2.8 2.3 5 5 5M139.2 136.7c2.7 0 5-2.2 5-5 0-2.7-2.2-5-5-5-2.7 0-5 2.2-5 5 .1 2.8 2.3 5 5 5M141.6 11.6c2.7 0 5-2.2 5-5s-2.2-5-5-5c-2.7 0-5 2.2-5 5s2.3 5 5 5" class="st5"/><path d="M138.1 23.7v-8h-8c4.4 0 8 3.6 8 8M130.1 15.7h-8v8c0-4.4 3.5-8 8-8"/><path d="M110.4 31.8c0 .7.6 1.3 1.3 1.3s1.3-.6 1.3-1.3-.6-1.3-1.3-1.3c-.8 0-1.3.5-1.3 1.3" class="st3"/><circle cx="111.7" cy="23.7" r="8" class="st6"/><path d="M119.7 23.7v-8h-8c4.4 0 8 3.6 8 8M111.7 15.7h-8v8c-.1-4.4 3.5-8 8-8-.1 0 0 0 0 0"/><path d="M112.9 23.7c0 .7-.6 1.3-1.3 1.3s-1.3-.6-1.3-1.3.6-1.3 1.3-1.3c.8 0 1.3.6 1.3 1.3" class="st3"/><path d="M128.1 30.1h3.9V34h-3.9z" class="st1"/><path d="M128.8 31.8c0 .7.6 1.3 1.3 1.3s1.3-.6 1.3-1.3-.6-1.3-1.3-1.3-1.3.5-1.3 1.3" class="st3"/><circle cx="130.1" cy="23.7" r="8" class="st6"/><path d="M131.4 23.7c0 .7-.6 1.3-1.3 1.3s-1.3-.6-1.3-1.3.6-1.3 1.3-1.3 1.3.6 1.3 1.3M164 71.5h6.6v5.4H164zM164 60.5h6.6v5.4H164z" class="st3"/><path d="M119.6 96.4v-13h13v13z"/><path d="M119.6 96.4v-13h13v13z"/><path d="M119.6 96.4v-13h13v13z"/><path d="M130.2 82.5h.9v1.7h-.9zM128.9 82.5h.9v1.7h-.9zM127.6 82.5h.9v1.7h-.9zM126.3 82.5h.9v1.7h-.9zM125 82.5h.9v1.7h-.9zM123.7 82.5h.9v1.7h-.9zM122.5 82.5h.9v1.7h-.9zM121.2 82.5h.9v1.7h-.9zM118.8 94h1.7v.9h-1.7zM118.8 92.7h1.7v.9h-1.7zM118.8 91.4h1.7v.9h-1.7zM118.8 90.1h1.7v.9h-1.7zM118.8 88.8h1.7v.9h-1.7zM118.8 87.5h1.7v.9h-1.7zM118.8 86.2h1.7v.9h-1.7zM118.8 84.9h1.7v.9h-1.7zM131.7 94h1.7v.9h-1.7zM131.7 92.7h1.7v.9h-1.7zM131.7 91.4h1.7v.9h-1.7zM131.7 90.1h1.7v.9h-1.7zM131.7 88.8h1.7v.9h-1.7zM131.7 87.5h1.7v.9h-1.7zM131.7 86.2h1.7v.9h-1.7zM131.7 84.9h1.7v.9h-1.7zM130.2 95.5h.9v1.7h-.9zM128.9 95.5h.9v1.7h-.9zM127.6 95.5h.9v1.7h-.9zM126.3 95.5h.9v1.7h-.9zM125 95.5h.9v1.7h-.9zM123.7 95.5h.9v1.7h-.9zM122.5 95.5h.9v1.7h-.9zM121.2 95.5h.9v1.7h-.9zM146.2 112.7c-.7 0-1.3.6-1.3 1.3h2.6c0-.7-.6-1.3-1.3-1.3M146.2 125.3c.7 0 1.3-.6 1.3-1.3h-2.6c0 .7.6 1.3 1.3 1.3M143.6 112.7c-.7 0-1.3.6-1.3 1.3h2.6c0-.7-.6-1.3-1.3-1.3M143.6 125.3c.7 0 1.3-.6 1.3-1.3h-2.6c0 .7.6 1.3 1.3 1.3" class="st3"/><path d="M144.9 124h2.6v-10h-5.2v10z"/><path d="M144.9 124h2.6v-10h-5.2v10z"/><path d="M144.9 124h2.6v-10h-5.2v10zM118.1 36.8h4.9v7.5h-4.9z"/><path d="M118.1 36.8h4.9v7.5h-4.9z"/><path d="M118.1 36.8h4.9v7.5h-4.9z"/><path d="M122.3 42.3h3.6v1.3h-3.6zM122.3 37.4h3.6v1.3h-3.6zM122.3 39.9h3.6v1.3h-3.6zM115.9 42.3h3.6v1.3h-3.6zM115.9 37.4h3.6v1.3h-3.6zM150.1 49.3h1.3v3.4h-1.3zM150.1 43.3h1.3v3.4h-1.3zM163.1 40.1h1.3v9.8h-1.3z" class="st3"/><path d="M164.4 40.1h1.3v9.8h-1.3z" class="st4"/><path d="M165.7 40.1h1.3v9.8h-1.3zM150.1 37.4h1.3v3.4h-1.3z" class="st3"/><path d="M148.8 49.3h1.3v3.4h-1.3zM148.8 43.3h1.3v3.4h-1.3zM148.8 37.4h1.3v3.4h-1.3z" class="st7"/><path d="M147.5 49.3h1.3v3.4h-1.3zM147.5 43.3h1.3v3.4h-1.3zM147.5 37.4h1.3v3.4h-1.3z" class="st3"/><path d="M121.9 48.5h8.4v8.4h-8.4z"/><path d="M121.9 48.5h8.4v8.4h-8.4z"/><path d="M121.9 48.5h8.4v8.4h-8.4z"/><path d="M118.9 51.5h3.8v.9h-3.8zM118.9 53.2h3.8v.9h-3.8zM118.9 54.9h3.8v.9h-3.8zM118.9 49.8h3.8v.9h-3.8zM129.5 53.2h3.8v.9h-3.8zM129.5 51.5h3.8v.9h-3.8zM129.5 49.8h3.8v.9h-3.8zM129.5 54.9h3.8v.9h-3.8z" class="st3"/><path d="M133.7 55.3c0-.2-.2-.4-.4-.4s-.4.2-.4.4.2.4.4.4.4-.2.4-.4M133.7 53.6c0-.2-.2-.4-.4-.4s-.4.2-.4.4.2.4.4.4.4-.2.4-.4M133.7 51.9c0-.2-.2-.4-.4-.4s-.4.2-.4.4.2.4.4.4.4-.2.4-.4M133.7 50.2c0-.2-.2-.4-.4-.4s-.4.2-.4.4.2.4.4.4.4-.1.4-.4M119.3 55.3c0-.2-.2-.4-.4-.4s-.4.2-.4.4.2.4.4.4c.3 0 .4-.2.4-.4M119.3 53.6c0-.2-.2-.4-.4-.4s-.4.2-.4.4.2.4.4.4c.3 0 .4-.2.4-.4M119.3 51.9c0-.2-.2-.4-.4-.4s-.4.2-.4.4.2.4.4.4c.3 0 .4-.2.4-.4M119.3 50.2c0-.2-.2-.4-.4-.4s-.4.2-.4.4.2.4.4.4c.3 0 .4-.1.4-.4" class="st6"/><path d="M153.9 65.1h4.2v7.2h-4.2z" class="st8"/><path d="M151.3 69.8h2.6v2.6h-2.6zM158 67.5h2.6v2.6H158zM151.3 65.1h2.6v2.6h-2.6z" class="st6"/><path d="M153.2 70.4h1.3v1.3h-1.3zM153.2 65.8h1.3v1.3h-1.3zM157.4 68.1h1.3v1.3h-1.3zM72.8 63.7h2.7v5.4h-2.7zM66.1 63.7h2.7v5.4h-2.7z" class="st3"/><path d="M68.4 64.3c-.6 0-1 .5-1 1v2.1c0 .6.5 1 1 1h.3v-4.2h-.3zM73.1 68.4c.6 0 1-.5 1-1v-2.1c0-.6-.5-1-1-1h-.3v4.2h.3z" class="st8"/><path d="M146.2 75.9h3.1V79h-3.1zM140.5 75.9h3.1V79h-3.1z" class="st3"/><path d="m147.2 78.9 1.5-1.5-1.5-1.5h-1v3zM142.6 75.9l-1.5 1.5 1.5 1.5h1v-3z" class="st8"/><path d="M143.6 75.9h2.6V79h-2.6z"/><path d="M143.6 75.9h2.6V79h-2.6z"/><path d="M143.6 75.9h2.6V79h-2.6z"/><path d="M146.2 84.4h3.1v3.1h-3.1zM140.5 84.4h3.1v3.1h-3.1z" class="st3"/><path d="M143.6 84.4h2.6v3.1h-2.6z"/><path d="M143.6 84.4h2.6v3.1h-2.6z"/><path d="M143.6 84.4h2.6v3.1h-2.6z"/><path d="m147.2 87.5 1.5-1.5-1.5-1.6h-1v3.1zM142.6 84.4l-1.5 1.6 1.5 1.5h1v-3.1z" class="st8"/><path d="M145.3 100.5h3.1v3.1h-3.1zM141.5 100.5h3.1v3.1h-3.1z" class="st3"/><path d="M145 103.4h1.3c.7 0 1.3-.6 1.2-1.3 0-.7-.6-1.2-1.2-1.2H145zM143.6 100.8c-.7 0-1.3.6-1.3 1.3s.6 1.3 1.3 1.3h1.3v-2.6z" class="st8"/><path d="M143.6 100.8h2.6v2.6h-2.6z"/><path d="M143.6 100.8h2.6v2.6h-2.6z"/><path d="M143.6 100.8h2.6v2.6h-2.6z"/><path d="M145.3 107.1h3.1v3.1h-3.1zM141.5 107.1h3.1v3.1h-3.1z" class="st3"/><path d="M145 109.9h1.3c.7 0 1.3-.6 1.2-1.3 0-.7-.6-1.2-1.2-1.2H145zM143.6 107.3c-.7 0-1.3.6-1.3 1.3s.6 1.3 1.3 1.3h1.3v-2.6z" class="st8"/><path d="M143.6 107.3h2.6v2.6h-2.6z"/><path d="M143.6 107.3h2.6v2.6h-2.6z"/><path d="M143.6 107.3h2.6v2.6h-2.6z"/><path d="M159.9 115.8h3.1v3.1h-3.1zM154.2 115.8h3.1v3.1h-3.1z" class="st3"/><path d="m160.9 118.9 1.5-1.5-1.5-1.6h-1v3.1zM156.3 115.8l-1.5 1.6 1.5 1.5h1v-3.1z" class="st8"/><path d="M157.3 115.8h2.6v3.1h-2.6z"/><path d="M157.3 115.8h2.6v3.1h-2.6z"/><path d="M157.3 115.8h2.6v3.1h-2.6z"/><path d="M105.7 116h3.1v3.1h-3.1zM101.8 116h3.1v3.1h-3.1z" class="st3"/><path d="M105.3 118.8h1.3c.7 0 1.3-.6 1.2-1.3 0-.7-.6-1.2-1.2-1.2h-1.3zM104 116.2c-.7 0-1.3.6-1.3 1.3s.6 1.3 1.3 1.3h1.3v-2.6z" class="st8"/><path d="M104 116.2h2.6v2.6H104z"/><path d="M104 116.2h2.6v2.6H104z"/><path d="M104 116.2h2.6v2.6H104z"/><path d="M106.1 75.8h3.1v3.1h-3.1zM101.6 75.8h3.1v3.1h-3.1z" class="st3"/><path d="M105.5 78.7h1.3c.7 0 1.3-.6 1.2-1.3 0-.7-.6-1.2-1.2-1.2h-1.3zM104.1 76.1c-.7 0-1.3.6-1.3 1.3s.6 1.3 1.3 1.3h1.3v-2.6z" class="st8"/><path d="M104.1 76.1h2.6v2.6h-2.6z"/><path d="M104.1 76.1h2.6v2.6h-2.6z"/><path d="M104.1 76.1h2.6v2.6h-2.6z"/><path d="M71.2 58.2h3.1v3.1h-3.1zM67.3 58.2h3.1v3.1h-3.1z" class="st3"/><path d="M70.8 61.1h1.3c.7 0 1.3-.6 1.2-1.3 0-.7-.6-1.2-1.2-1.2h-1.3zM69.5 58.5c-.7 0-1.3.6-1.3 1.3s.6 1.3 1.3 1.3h1.3v-2.6z" class="st8"/><path d="M69.5 58.5h2.6v2.6h-2.6z"/><path d="M69.5 58.5h2.6v2.6h-2.6z"/><path d="M69.5 58.5h2.6v2.6h-2.6z"/><path d="M110.1 37.1h3.1v3.1h-3.1zM110.1 40.9h3.1V44h-3.1z" class="st3"/><path d="M112.9 40.5v-1.3c0-.7-.6-1.3-1.3-1.2-.7 0-1.2.6-1.2 1.2v1.3zM110.3 41.8c0 .7.6 1.3 1.3 1.3s1.3-.6 1.3-1.3v-1.3h-2.6z" class="st8"/><path d="M110.3 39.2h2.6v2.6h-2.6z"/><path d="M110.3 39.2h2.6v2.6h-2.6z"/><path d="M110.3 39.2h2.6v2.6h-2.6z"/><path d="M128.5 37.1h3.1v3.1h-3.1zM128.5 40.9h3.1V44h-3.1z" class="st3"/><path d="M131.4 40.5v-1.3c0-.7-.6-1.3-1.3-1.2-.7 0-1.2.6-1.2 1.2v1.3zM128.8 41.8c0 .7.6 1.3 1.3 1.3s1.3-.6 1.3-1.3v-1.3h-2.6z" class="st8"/><path d="M128.8 39.2h2.6v2.6h-2.6z"/><path d="M128.8 39.2h2.6v2.6h-2.6z"/><path d="M128.8 39.2h2.6v2.6h-2.6z"/><path d="M105.8 81.1h3.1v3.1h-3.1zM101.9 81.1h3.1v3.1h-3.1z" class="st3"/><path d="M105.5 84h1.3c.7 0 1.3-.6 1.2-1.3 0-.7-.6-1.2-1.2-1.2h-1.3zM104.1 81.4c-.7 0-1.3.6-1.3 1.3s.6 1.3 1.3 1.3h1.3v-2.6z" class="st8"/><path d="M104.1 81.4h2.6V84h-2.6z"/><path d="M104.1 81.4h2.6V84h-2.6z"/><path d="M104.1 81.4h2.6V84h-2.6zM122.3 125.3h2.5l1.8-1.8h.5l1.8 1.8h2.5l1.8-1.8h.5l1.8 1.8h2.5l1.8-1.8v-9.1l-1.8-1.8h-2.5l-1.8 1.8h-.5l-1.8-1.8h-2.5l-1.8 1.8h-.5l-1.8-1.8h-2.5l-1.8 1.8v9.1z"/><path d="M124.7 115.7c0 .6-.5 1.1-1.1 1.1s-1.1-.5-1.1-1.1.5-1.1 1.1-1.1c.6-.1 1.1.4 1.1 1.1M137.8 122.2c0 .6-.5 1.1-1.1 1.1s-1.1-.5-1.1-1.1.5-1.1 1.1-1.1 1.1.5 1.1 1.1M131.3 122.2c0 .6-.5 1.1-1.1 1.1s-1.1-.5-1.1-1.1.5-1.1 1.1-1.1 1.1.5 1.1 1.1M124.7 122.2c0 .6-.5 1.1-1.1 1.1s-1.1-.5-1.1-1.1.5-1.1 1.1-1.1 1.1.5 1.1 1.1M137.8 115.7c0 .6-.5 1.1-1.1 1.1s-1.1-.5-1.1-1.1.5-1.1 1.1-1.1c.6-.1 1.1.4 1.1 1.1M131.3 115.7c0 .6-.5 1.1-1.1 1.1s-1.1-.5-1.1-1.1.5-1.1 1.1-1.1c.6-.1 1.1.4 1.1 1.1M91.7 30.2h4.4v2.5h-4.4zM98.8 30.2h3.5v2.5h-3.5zM85.1 30.2h4.4v2.5h-4.4zM78.5 30.2h4.4v2.5h-4.4zM71.9 30.2h4.4v2.5h-4.4zM65.3 30.2h4.4v2.5h-4.4zM58.7 30.2h4.4v2.5h-4.4zM52.2 30.2h4.4v2.5h-4.4zM45.6 30.2H50v2.5h-4.4zM39 30.2h4.4v2.5H39zM32.4 30.2h4.4v2.5h-4.4zM25.8 30.2h4.4v2.5h-4.4zM19.2 30.2h4.4v2.5h-4.4zM13 30.2h3.5v2.5H13zM91.7 52.3h4.4v2.6h-4.4zM98.8 52.3h3.5v2.6h-3.5zM85.1 52.3h4.4v2.6h-4.4zM78.5 52.3h4.4v2.6h-4.4zM71.9 52.3h4.4v2.6h-4.4zM65.3 52.3h4.4v2.6h-4.4zM58.7 52.3h4.4v2.6h-4.4zM52.2 52.3h4.4v2.6h-4.4zM45.6 52.3H50v2.6h-4.4zM39 52.3h4.4v2.6H39zM32.4 52.3h4.4v2.6h-4.4zM25.8 52.3h4.4v2.6h-4.4zM19.2 52.3h4.4v2.6h-4.4zM13 52.3h3.5v2.6H13z" class="st3"/><path d="M91.7 52.3h4.4v1.3h-4.4zM98.8 52.3h3.5v1.3h-3.5zM85.1 52.3h4.4v1.3h-4.4zM78.5 52.3h4.4v1.3h-4.4zM71.9 52.3h4.4v1.3h-4.4zM65.3 52.3h4.4v1.3h-4.4zM58.7 52.3h4.4v1.3h-4.4zM52.2 52.3h4.4v1.3h-4.4zM45.6 52.3H50v1.3h-4.4zM39 52.3h4.4v1.3H39zM32.4 52.3h4.4v1.3h-4.4zM25.8 52.3h4.4v1.3h-4.4zM19.2 52.3h4.4v1.3h-4.4zM13 52.3h3.5v1.3H13zM91.7 31.4h4.4v1.3h-4.4zM98.8 31.4h3.5v1.3h-3.5zM85.1 31.4h4.4v1.3h-4.4zM78.5 31.4h4.4v1.3h-4.4zM71.9 31.4h4.4v1.3h-4.4zM65.3 31.4h4.4v1.3h-4.4zM58.7 31.4h4.4v1.3h-4.4zM52.2 31.4h4.4v1.3h-4.4zM45.6 31.4H50v1.3h-4.4zM39 31.4h4.4v1.3H39zM32.4 31.4h4.4v1.3h-4.4zM25.8 31.4h4.4v1.3h-4.4zM19.2 31.4h4.4v1.3h-4.4zM13 31.4h3.5v1.3H13z" class="st8"/><path d="M135.6 75.8h3.1v3.1h-3.1zM131.8 75.8h3.1v3.1h-3.1z" class="st3"/><path d="M135.3 78.7h1.3c.7 0 1.3-.6 1.2-1.3 0-.7-.6-1.2-1.2-1.2h-1.3zM133.9 76.1c-.7 0-1.3.6-1.3 1.3s.6 1.3 1.3 1.3h1.3v-2.6z" class="st8"/><path d="M126.5 75.8h3.1v3.1h-3.1zM122.6 75.8h3.1v3.1h-3.1z" class="st3"/><path d="M126.2 78.7h1.3c.7 0 1.3-.6 1.2-1.3 0-.7-.6-1.2-1.2-1.2h-1.3zM124.8 76.1c-.7 0-1.3.6-1.3 1.3s.6 1.3 1.3 1.3h1.3v-2.6z" class="st8"/><path d="M117.4 75.8h3.1v3.1h-3.1zM113.5 75.8h3.1v3.1h-3.1z" class="st3"/><path d="M117 78.7h1.3c.7 0 1.3-.6 1.2-1.3 0-.7-.6-1.2-1.2-1.2H117zM115.7 76.1c-.7 0-1.3.6-1.3 1.3s.6 1.3 1.3 1.3h1.3v-2.6z" class="st8"/><path d="M128.3 8.6c0 .7.6 1.3 1.3 1.3s1.3-.6 1.3-1.3-.6-1.3-1.3-1.3-1.3.6-1.3 1.3M112.8 8.6c0 .7.6 1.3 1.3 1.3s1.3-.6 1.3-1.3-.6-1.3-1.3-1.3-1.3.6-1.3 1.3M128.3 4.7c0 .7.6 1.3 1.3 1.3s1.3-.6 1.3-1.3-.6-1.3-1.3-1.3-1.3.6-1.3 1.3M112.8 4.7c0 .7.6 1.3 1.3 1.3s1.3-.6 1.3-1.3-.6-1.3-1.3-1.3-1.3.6-1.3 1.3" class="st3"/><path d="M121.1 6.7c0 .4.4.8.8.8s.8-.4.8-.8-.4-.8-.8-.8c-.5 0-.8.4-.8.8" class="st5"/><path d="M115.2 9.9h14.4V3.4h-15.5v6.5zM56 128.4h6.6v6.6H56zM119.2 128.4h6.6v6.6h-6.6zM119.2 135v-6.6h-6.6v6.6zM112.6 135v-6.6H106v6.6zM106 135v-6.6h-6.6v6.6zM132.4 135v-6.6h-6.6v6.6zM92.9 135v-6.6h-6.6v6.6z"/><path d="M99.5 135v-6.6h-6.6v6.6zM86.3 135v-6.6h-6.6v6.6zM73.2 135v-6.6h-6.6v6.6z"/><path d="M79.7 135v-6.6h-6.6v6.6zM49.4 135v-6.6h-6.6v6.6zM56 135v-6.6h-6.6v6.6z"/><path d="M36.2 128.4v6.6h6.6v-6.6M29.7 135v-6.6h-6.6v6.6zM16.5 135v-6.6H9.9v6.6z"/><path d="M36.3 135v-6.6h-6.6v6.6zM16.5 128.4h6.6v6.6h-6.6zM56 128.4h6.6v6.6H56zM119.2 128.4h6.6v6.6h-6.6zM119.2 135v-6.6h-6.6v6.6zM112.6 135v-6.6H106v6.6zM106 135v-6.6h-6.6v6.6zM132.4 135v-6.6h-6.6v6.6zM92.9 135v-6.6h-6.6v6.6z"/><path d="M99.5 135v-6.6h-6.6v6.6zM86.3 135v-6.6h-6.6v6.6zM73.2 135v-6.6h-6.6v6.6z"/><path d="M79.7 135v-6.6h-6.6v6.6zM49.4 135v-6.6h-6.6v6.6zM56 135v-6.6h-6.6v6.6z"/><path d="M36.2 128.4v6.6h6.6v-6.6M29.7 135v-6.6h-6.6v6.6zM16.5 135v-6.6H9.9v6.6z"/><path d="M36.3 135v-6.6h-6.6v6.6zM16.5 128.4h6.6v6.6h-6.6zM56 128.4h6.6v6.6H56zM119.2 128.4h6.6v6.6h-6.6zM119.2 135v-6.6h-6.6v6.6zM112.6 135v-6.6H106v6.6zM106 135v-6.6h-6.6v6.6zM132.4 135v-6.6h-6.6v6.6zM92.9 135v-6.6h-6.6v6.6z"/><path d="M99.5 135v-6.6h-6.6v6.6zM86.3 135v-6.6h-6.6v6.6zM73.2 135v-6.6h-6.6v6.6z"/><path d="M79.7 135v-6.6h-6.6v6.6zM49.4 135v-6.6h-6.6v6.6zM56 135v-6.6h-6.6v6.6z"/><path d="M36.2 128.4v6.6h6.6v-6.6M29.7 135v-6.6h-6.6v6.6zM16.5 135v-6.6H9.9v6.6z"/><path d="M36.3 135v-6.6h-6.6v6.6zM16.5 128.4h6.6v6.6h-6.6z"/><path d="M164 76.8h6.6v1.3H164zM164 59.2h6.6v1.3H164zM166.3 75c0-.5.4-.9.9-.9s.9.4.9.9-.4.9-.9.9c-.5.1-.9-.3-.9-.9M166.3 62.7c0-.5.4-.9.9-.9s.9.4.9.9-.4.9-.9.9-.9-.4-.9-.9" class="st6"/><path d="M164.1 75.1h2.2c0-.5.4-.9 1-.9.5 0 .9.4.9.9h3.2V62.7h-3.2c0 .5-.4.9-.9.9s-.9-.4-.9-.9h-3.1v12.4z" class="st8"/><path d="M15.9 80.3v-2.5L14.1 76v-.5l1.8-1.8v-2.5l-1.8-1.8v-.5l1.8-1.8v-2.5l-1.8-1.8H5l-1.8 1.8v2.5L5 68.9v.5l-1.8 1.8v2.5L5 75.5v.5l-1.8 1.8v2.5L5 82.1h9.1z"/><path d="M6.2 77.9c.6 0 1.1.5 1.1 1.1s-.5 1.1-1.1 1.1-1.1-.5-1.1-1.1.5-1.1 1.1-1.1M12.8 64.7c.6 0 1.1.5 1.1 1.1s-.5 1.2-1.1 1.2-1.1-.5-1.1-1.1c0-.7.5-1.2 1.1-1.2M12.8 71.3c.6 0 1.1.5 1.1 1.1s-.5 1.1-1.1 1.1-1.1-.5-1.1-1.1.5-1.1 1.1-1.1M12.8 77.9c.6 0 1.1.5 1.1 1.1s-.5 1.1-1.1 1.1-1.1-.5-1.1-1.1.5-1.1 1.1-1.1M6.2 64.7c.6 0 1.1.5 1.1 1.1S6.9 67 6.2 67s-1.1-.5-1.1-1.1c0-.7.5-1.2 1.1-1.2M6.2 71.3c.6 0 1.1.5 1.1 1.1s-.5 1.1-1.1 1.1-1.1-.5-1.1-1.1.5-1.1 1.1-1.1" class="st3"/><path d="M154.5 84.4H194v29.7h-39.5z" class="st9"/><path d="M192.4 114.1h1.6V84.4h-1.6v.1zM189.1 114.1h1.6V84.4h-1.6v.1z" class="st9"/><path d="M185.8 114.1h1.6V84.4h-1.6v.1zM182.5 114.1h1.6V84.4h-1.6v.1zM179.2 114.1h1.6V84.4h-1.6v.1zM175.9 114.1h1.6V84.4h-1.6v.1zM172.6 114.1h1.6V84.4h-1.6v.1zM169.3 114.1h1.6V84.4h-1.6v.1zM166 114.1h1.7V84.4H166v.1zM162.7 114.1h1.7V84.4h-1.7v.1zM159.4 114.1h1.7V84.4h-1.7v.1z" class="st3"/><path d="M156.1 114.1h1.7V84.4h-1.7v.1z" class="st9"/><path d="M12.7 42.4c0 .8-.7 1.5-1.5 1.5v8.4h93.2V32.7H11.2v8.1c.8.1 1.5.7 1.5 1.6"/><path d="M12.7 42.4c0 .8-.7 1.5-1.5 1.5v8.4h93.2V32.7H11.2v8.1c.8.1 1.5.7 1.5 1.6"/><path d="M12.7 42.4c0 .8-.7 1.5-1.5 1.5v8.4h93.2V32.7H11.2v8.1c.8.1 1.5.7 1.5 1.6M68.7 64.3h4.1v4.2h-4.1z"/><path d="M68.7 64.3h4.1v4.2h-4.1z"/><path d="M68.7 64.3h4.1v4.2h-4.1zM115.7 76.1h2.6v2.6h-2.6z"/><path d="M115.7 76.1h2.6v2.6h-2.6z"/><path d="M115.7 76.1h2.6v2.6h-2.6zM124.8 76.1h2.6v2.6h-2.6z"/><path d="M124.8 76.1h2.6v2.6h-2.6z"/><path d="M124.8 76.1h2.6v2.6h-2.6zM133.9 76.1h2.6v2.6h-2.6z"/><path d="M133.9 76.1h2.6v2.6h-2.6z"/><path d="M133.9 76.1h2.6v2.6h-2.6zM163.2 65.9h8.1v5.5h-8.1z"/><path d="M163.2 65.9h8.1v5.5h-8.1z"/><path d="M163.2 65.9h8.1v5.5h-8.1zM151.4 36.6H163v17h-11.6z"/><path d="M151.4 36.6H163v17h-11.6z"/><path d="M151.4 36.6H163v17h-11.6z"/><path d="M154 121.6h15.6v15.6H154z" class="st3"/><path d="M149.7 133.8h3.3v3.3h-3.3z" class="st9"/><path d="M153.5 134.8h-2.2v1.3h4.5v-1.3z" class="st8"/><path d="M170.6 133.8h3.3v3.3h-3.3z" class="st9"/><path d="M170 136.2h2.3v-1.3h-4.5v1.3z" class="st8"/><path d="M149.7 121.6h3.3v3.3h-3.3z" class="st9"/><path d="M153.5 122.6h-2.2v1.3h4.5v-1.3z" class="st8"/><path d="M170.6 121.6h3.3v3.3h-3.3z" class="st9"/><path d="M170 123.9h2.3v-1.3h-4.5v1.3z" class="st8"/><path d="M170.6 127.7h3.3v3.3h-3.3z" class="st9"/><path d="M170 130h2.3v-1.3h-4.5v1.3z" class="st8"/><path d="M166 129.4c0 2.4-1.9 4.3-4.3 4.3s-4.3-1.9-4.3-4.3 1.9-4.3 4.3-4.3 4.3 1.9 4.3 4.3" style="fill:#dddede"/><path id="LWPOLYLINE" d="M117.2 62.1h18.6l.4.1.3.1.4.1.4.1.3.2.4.2.3.2.3.2.3.3.3.2.3.3.2.3.2.3.2.3.2.4.2.3.1.4.1.4.1.3.1.4v1.6l-.1.4-.1.3-.1.4-.1.4-.2.3-.2.4-.2.3-.2.3-.2.3-.3.3-.3.3-.3.2-.3.2-.3.2-.4.2-.3.2-.4.1-.4.1-.3.1-.4.1h-19.3l-.4-.1-.4-.1-.4-.1-.3-.1-.4-.2-.3-.2-.4-.2-.3-.2-.3-.2-.3-.3-.2-.3-.3-.3-.2-.3-.2-.3-.2-.4-.1-.3-.2-.4-.1-.4-.1-.3v-.4l-.1-.4v-.8l.1-.4v-.4l.1-.3.1-.4.2-.4.1-.3.2-.4.2-.3.2-.3.3-.3.2-.3.3-.2.3-.3.3-.2.4-.2.3-.2.4-.2.3-.1.4-.1.4-.1.4-.1h.7" class="st11"/><path d="M140.9 68.1v-.9l-.1-.4-.1-.3-.1-.4-.1-.4-.2-.3-.2-.4-.2-.3-.2-.3-.2-.3-.3-.3-.3-.2-.3-.3-.3-.2-.3-.2-.4-.2-.3-.2-.4-.1-.4-.1-.3-.1-.4-.1h-19.3l-.4.1-.4.1-.4.1-.3.1-.4.2-.3.2-.4.2-.3.2-.3.3-.3.2-.2.3-.3.3-.2.3-.2.3-.2.4-.1.3-.2.4-.1.4-.1.3v.4l-.1.4v.5z" class="st11"/><path id="LWPOLYLINE-2" d="M117.2 63.4h18.5l.3.1.3.1.4.1.3.1.3.2.3.2.2.2.3.2.2.2.3.3.2.2.2.3.1.3.2.3.1.3.1.3v.4l.1.3v1l-.1.3v.4l-.1.3-.1.3-.2.3-.1.3-.2.3-.2.3-.3.2-.2.2-.3.3-.2.2-.3.1-.3.2-.3.1-.4.1-.3.1-.3.1h-19.1l-.4-.1-.3-.1-.3-.1-.3-.1-.3-.2-.3-.1-.3-.2-.2-.3-.3-.2-.2-.2-.2-.3-.2-.3-.2-.3-.1-.3-.1-.3-.1-.3-.1-.4-.1-.3v-1l.1-.3.1-.4.1-.3.1-.3.1-.3.2-.3.2-.3.2-.2.2-.3.3-.2.2-.2.3-.2.3-.2.3-.2.3-.1.3-.1.3-.1.4-.1h.6" class="st4"/><path d="M22.1 93.1h8.5v3.4h-8.5z" class="st3"/><path d="M28.9 94.8c0 1.4-1.2 2.6-2.6 2.6s-2.6-1.2-2.6-2.6 1.2-2.6 2.6-2.6c1.5 0 2.6 1.2 2.6 2.6" class="st12"/><path d="M101.1 86.7h8.5v3.4h-8.5z" class="st3"/><path d="M108 88.4c0 1.4-1.2 2.6-2.6 2.6s-2.6-1.2-2.6-2.6 1.2-2.6 2.6-2.6 2.6 1.1 2.6 2.6" class="st12"/><path d="M101.1 93.7h8.5v3.4h-8.5z" class="st3"/><path d="M108 95.4c0 1.4-1.2 2.6-2.6 2.6s-2.6-1.2-2.6-2.6 1.2-2.6 2.6-2.6 2.6 1.2 2.6 2.6" class="st12"/><path d="M101.1 110.1h8.5v3.4h-8.5z" class="st3"/><path d="M108 111.8c0 1.4-1.2 2.6-2.6 2.6s-2.6-1.2-2.6-2.6 1.2-2.6 2.6-2.6 2.6 1.2 2.6 2.6" class="st12"/><path d="M95.5 9.9V3.3h-6.6v6.6zM88.9 9.9V3.3h-6.6v6.6zM82.3 9.9V3.3h-6.6v6.6zM75.7 9.9V3.3h-6.6v6.6zM69.1 9.9V3.3h-6.6v6.6z"/><path d="M62.5 9.9V3.3h-6.6v6.6zM102 9.9V3.3h-6.6v6.6zM108.6 9.9V3.3H102v6.6zM49.4 9.9V3.3h-6.6v6.6zM42.8 9.9V3.3h-6.6v6.6z"/><path d="M36.2 9.9V3.3h-6.6v6.6zM29.6 9.9V3.3H23v6.6zM23 9.9V3.3h-6.6v6.6zM16.4 9.9V3.3H9.8v6.6zM95.5 9.9V3.3h-6.6v6.6zM88.9 9.9V3.3h-6.6v6.6zM82.3 9.9V3.3h-6.6v6.6zM75.7 9.9V3.3h-6.6v6.6zM69.1 9.9V3.3h-6.6v6.6z"/><path d="M62.5 9.9V3.3h-6.6v6.6zM102 9.9V3.3h-6.6v6.6zM108.6 9.9V3.3H102v6.6zM49.4 9.9V3.3h-6.6v6.6zM42.8 9.9V3.3h-6.6v6.6z"/><path d="M36.2 9.9V3.3h-6.6v6.6zM29.6 9.9V3.3H23v6.6zM23 9.9V3.3h-6.6v6.6zM16.4 9.9V3.3H9.8v6.6zM95.5 9.9V3.3h-6.6v6.6zM88.9 9.9V3.3h-6.6v6.6zM82.3 9.9V3.3h-6.6v6.6zM75.7 9.9V3.3h-6.6v6.6zM69.1 9.9V3.3h-6.6v6.6z"/><path d="M62.5 9.9V3.3h-6.6v6.6zM102 9.9V3.3h-6.6v6.6zM108.6 9.9V3.3H102v6.6zM49.4 9.9V3.3h-6.6v6.6zM42.8 9.9V3.3h-6.6v6.6z"/><path d="M36.2 9.9V3.3h-6.6v6.6zM29.6 9.9V3.3H23v6.6zM23 9.9V3.3h-6.6v6.6zM16.4 9.9V3.3H9.8v6.6z"/><path d="M90.5 8.2h3.3V4.9h-3.3V5zM84 8.2h3.2V4.9H84V5zM77.4 8.2h3.3V4.9h-3.3V5zM70.8 8.2h3.3V4.9h-3.3V5zM64.2 8.2h3.3V4.9h-3.3V5zM57.6 8.2h3.3V4.9h-3.3V5zM97.1 8.2h3.3V4.9h-3.3V5zM103.6 8.2h3.3V4.9h-3.3V5zM44.4 8.2h3.3V4.9h-3.3V5zM37.8 8.2h3.3V4.9h-3.3V5zM31.3 8.2h3.3V4.9h-3.3V5zM24.7 8.2H28V4.9h-3.3V5zM18.1 8.2h3.3V4.9h-3.3V5zM11.5 8.2h3.3V4.9h-3.3V5zM114.3 133.4h3.3v-3.3h-3.3zM120.9 133.4h3.3v-3.3h-3.3zM127.4 133.4h3.3v-3.3h-3.3zM88 133.4h3.3v-3.3H88zM71.5 133.4v-3.3h-3.3v3.3zM84.7 133.4v-3.3h-3.3v3.3zM97.9 133.4v-3.3h-3.3v3.3zM104.4 133.4v-3.3h-3.3v3.3zM111 133.4v-3.3h-3.3v3.3zM44.4 133.4h3.3v-3.3h-3.3zM54.3 133.4v-3.3H51v3.3zM60.9 133.4v-3.3h-3.3v3.3zM41.1 133.4v-3.3h-3.3v3.3h.1zM34.6 133.4v-3.3h-3.3v3.3zM28 133.4v-3.3h-3.3v3.3zM21.5 133.4v-3.3h-3.4v3.3h.1zM14.9 133.4v-3.3h-3.3v3.3zM78.1 133.4v-3.3h-3.3v3.3z" class="st8"/><path d="M25.2 65.7c-.7 0-1.3.6-1.3 1.3h2.6c0-.7-.6-1.3-1.3-1.3M25.2 78.2c.7 0 1.3-.6 1.3-1.3h-2.6c0 .8.5 1.3 1.3 1.3" class="st3"/><path d="M22.6 65.7c-.7 0-1.3.6-1.3 1.3h2.6c0-.7-.6-1.3-1.3-1.3M22.6 78.2c.7 0 1.3-.6 1.3-1.3h-2.6c0 .8.5 1.3 1.3 1.3" class="st3"/><path d="M23.9 77h2.6V67h-5.2v10z"/><path d="M23.9 77h2.6V67h-5.2v10z"/><path d="M23.9 77h2.6V67h-5.2v10z"/><path d="M103.4 100.5c0 .4-.3.6-.6.6-.4 0-.6-.3-.6-.6 0-.4.3-.6.6-.6.3-.1.6.2.6.6M103.4 102.6c0 .4-.3.6-.6.6s-.6-.3-.6-.6c0-.4.3-.6.6-.6.3-.1.6.2.6.6M103.4 104.6c0 .4-.3.6-.6.6s-.6-.3-.6-.6c0-.4.3-.6.6-.6s.6.3.6.6M103.4 106.7c0 .4-.3.6-.6.6-.4 0-.6-.3-.6-.6 0-.4.3-.6.6-.6s.6.3.6.6M108.6 100.5c0 .4-.3.6-.6.6-.4 0-.6-.3-.6-.6 0-.4.3-.6.6-.6.3-.1.6.2.6.6M108.6 102.6c0 .4-.3.6-.6.6s-.6-.3-.6-.6c0-.4.3-.6.6-.6.3-.1.6.2.6.6M108.6 104.6c0 .4-.3.6-.6.6s-.6-.3-.6-.6c0-.4.3-.6.6-.6s.6.3.6.6M108.6 106.7c0 .4-.3.6-.6.6-.4 0-.6-.3-.6-.6 0-.4.3-.6.6-.6s.6.3.6.6" class="st2"/><path d="M105.4 107.4h1.3v-7.6h-2.6v7.6z"/><path d="M105.4 107.4h1.3v-7.6h-2.6v7.6z"/><path d="M105.4 107.4h1.3v-7.6h-2.6v7.6z"/><path d="M106.7 106.1h1.3v1.3h-1.3zM106.7 104h1.3v1.3h-1.3zM106.7 101.9h1.3v1.3h-1.3zM106.7 99.8h1.3v1.3h-1.3zM102.8 106.1h1.3v1.3h-1.3zM102.8 104h1.3v1.3h-1.3zM102.8 101.9h1.3v1.3h-1.3zM102.8 99.8h1.3v1.3h-1.3z" class="st3"/><path d="M103.4 58.9c0 .4-.3.6-.6.6-.4 0-.6-.3-.6-.6 0-.4.3-.6.6-.6.3-.1.6.2.6.6M103.4 60.9c0 .4-.3.6-.6.6-.4 0-.6-.3-.6-.6 0-.4.3-.6.6-.6s.6.3.6.6M103.4 63c0 .4-.3.6-.6.6s-.6-.3-.6-.6c0-.4.3-.6.6-.6s.6.2.6.6M103.4 65.1c0 .4-.3.6-.6.6s-.6-.3-.6-.6c0-.4.3-.6.6-.6.3-.1.6.2.6.6M108.6 58.9c0 .4-.3.6-.6.6-.4 0-.6-.3-.6-.6 0-.4.3-.6.6-.6.3-.1.6.2.6.6M108.6 60.9c0 .4-.3.6-.6.6-.4 0-.6-.3-.6-.6 0-.4.3-.6.6-.6s.6.3.6.6M108.6 63c0 .4-.3.6-.6.6s-.6-.3-.6-.6c0-.4.3-.6.6-.6s.6.2.6.6M108.6 65.1c0 .4-.3.6-.6.6s-.6-.3-.6-.6c0-.4.3-.6.6-.6.3-.1.6.2.6.6" class="st2"/><path d="M105.4 65.7h1.3v-7.5h-2.6v7.5z"/><path d="M105.4 65.7h1.3v-7.5h-2.6v7.5z"/><path d="M105.4 65.7h1.3v-7.5h-2.6v7.5z"/><path d="M106.7 64.4h1.3v1.3h-1.3zM106.7 62.4h1.3v1.3h-1.3zM106.7 60.3h1.3v1.3h-1.3zM106.7 58.2h1.3v1.3h-1.3zM102.8 64.4h1.3v1.3h-1.3zM102.8 62.4h1.3v1.3h-1.3zM102.8 60.3h1.3v1.3h-1.3zM102.8 58.2h1.3v1.3h-1.3z" class="st3"/><path d="M143 90.7c0 .4-.3.6-.6.6-.4 0-.6-.3-.6-.6 0-.4.3-.6.6-.6.3-.1.6.2.6.6M143 92.7c0 .4-.3.6-.6.6-.4 0-.6-.3-.6-.6 0-.4.3-.6.6-.6s.6.3.6.6M143 94.8c0 .4-.3.6-.6.6s-.6-.3-.6-.6c0-.4.3-.6.6-.6s.6.2.6.6M143 96.9c0 .4-.3.6-.6.6s-.6-.3-.6-.6c0-.4.3-.6.6-.6.3-.1.6.2.6.6M148.2 90.7c0 .4-.3.6-.6.6-.4 0-.6-.3-.6-.6 0-.4.3-.6.6-.6.3-.1.6.2.6.6M148.2 92.7c0 .4-.3.6-.6.6-.4 0-.6-.3-.6-.6 0-.4.3-.6.6-.6s.6.3.6.6M148.2 94.8c0 .4-.3.6-.6.6s-.6-.3-.6-.6c0-.4.3-.6.6-.6s.6.2.6.6M148.2 96.9c0 .4-.3.6-.6.6s-.6-.3-.6-.6c0-.4.3-.6.6-.6.3-.1.6.2.6.6" class="st2"/><path d="M144.9 97.5h1.3V90h-2.6v7.5z"/><path d="M144.9 97.5h1.3V90h-2.6v7.5z"/><path d="M144.9 97.5h1.3V90h-2.6v7.5z"/><path d="M146.2 96.2h1.3v1.3h-1.3zM146.2 94.2h1.3v1.3h-1.3zM146.2 92.1h1.3v1.3h-1.3zM146.2 90h1.3v1.3h-1.3zM142.3 96.2h1.3v1.3h-1.3zM142.3 94.2h1.3v1.3h-1.3zM142.3 92.1h1.3v1.3h-1.3zM142.3 90h1.3v1.3h-1.3zM155.3 5.9c-1.7 0-3.1 1.4-3.1 3.1h6.2c0-1.7-1.4-3.1-3.1-3.1M147.5 24.6q.15 0 0 0l.1-6.2h-.1c-1.7 0-3.1 1.4-3.1 3.1 0 1.8 1.4 3.1 3.1 3.1" class="st3"/><path d="M174.5 29.8v2.6h7.4V6.6h-7.4v2.5h-26.9v20.7z"/><path d="M174.5 29.8v2.6h7.4V6.6h-7.4v2.5h-26.9v20.7z"/><path d="M174.5 29.8v2.6h7.4V6.6h-7.4v2.5h-26.9v20.7z"/><path d="M181.9 6.6h1.8v25.8h-1.8z" class="st8"/><path d="M6.6 97.2c2.7 0 5-2.2 5-5 0-2.7-2.2-5-5-5-2.7 0-5 2.2-5 5 .1 2.7 2.3 5 5 5" class="st5"/><path d="M105.9 68.6h3v4.5h-3zM101.9 68.6h3v4.5h-3z" class="st13"/><path d="M103.9 70.1h3v1.6h-3z" class="st13"/><path d="M48.7 3.3h7.9v6.6h-7.9zM62 128.4h5.1v6.6H62z"/></svg>