<?xml version="1.0" encoding="UTF-8" standalone="no"?>
<svg
   xmlns:dc="http://purl.org/dc/elements/1.1/"
   xmlns:cc="http://creativecommons.org/ns#"
   xmlns:rdf="http://www.w3.org/1999/02/22-rdf-syntax-ns#"
   xmlns:svg="http://www.w3.org/2000/svg"
   xmlns="http://www.w3.org/2000/svg"
   xmlns:sodipodi="http://sodipodi.sourceforge.net/DTD/sodipodi-0.dtd"
   xmlns:inkscape="http://www.inkscape.org/namespaces/inkscape"
   version="1.0"
   width="3150.2002pt"
   height="1278.05pt"
   viewBox="0 0 3150.2002 1278.05"
   preserveAspectRatio="xMidYMid meet"
   id="svg128"
   sodipodi:docname="m8MountingHoles.svg"
   inkscape:version="1.0.2-2 (e86c870879, 2021-01-15)">
  <defs
     id="defs132" />
  <sodipodi:namedview
     pagecolor="#ffffff"
     bordercolor="#666666"
     borderopacity="1"
     objecttolerance="10"
     gridtolerance="10"
     guidetolerance="10"
     inkscape:pageopacity="0"
     inkscape:pageshadow="2"
     inkscape:window-width="2400"
     inkscape:window-height="1271"
     id="namedview130"
     showgrid="false"
     fit-margin-top="0"
     fit-margin-left="0"
     fit-margin-right="0"
     fit-margin-bottom="0"
     inkscape:zoom="0.25100806"
     inkscape:cx="2134.6667"
     inkscape:cy="706.66664"
     inkscape:window-x="-9"
     inkscape:window-y="-9"
     inkscape:window-maximized="1"
     inkscape:current-layer="svg128" />
  <metadata
     id="metadata2">
Created by potrace 1.16, written by Peter Selinger 2001-2019
<rdf:RDF>
  <cc:Work
     rdf:about="">
    <dc:format>image/svg+xml</dc:format>
    <dc:type
       rdf:resource="http://purl.org/dc/dcmitype/StillImage" />
    <dc:title></dc:title>
  </cc:Work>
</rdf:RDF>
</metadata>
  <path
     d="M 595,18.5 V 37 h -2.6 c -2.4,0 -2.6,0.3 -2.1,2.7 0.3,1.6 1.6,9.2 2.8,17 1.3,7.9 2.6,14.3 2.9,14.3 0.3,0 1.6,-6.4 2.9,-14.3 1.2,-7.8 2.5,-15.4 2.8,-17 0.5,-2.4 0.3,-2.7 -2.1,-2.7 H 597 V 18.5 C 597,6.8 596.6,0 596,0 c -0.6,0 -1,6.8 -1,18.5 z"
     id="path6"
     style="fill:#000000;stroke:none;stroke-width:0.1" />
  <path
     d="m 106,73 c -3.6,0.4 -10.6,2 -15.5,3.5 -29.4,9 -52,31.7 -61.9,62.3 L 25.5,148.5 25.2,302.7 24.9,457 H 12.5 0 V 669.5 882 h 12.5 12.4 l 0.3,157.2 0.3,157.3 3.6,11 c 4.6,13.7 10.7,25 18.8,34.6 16.3,19.4 39.6,32 64.6,34.9 12.6,1.4 2937.4,1.4 2950,0 39.1,-4.5 70.7,-30.8 83.7,-69.5 l 3.3,-10 0.5,-514.2 c 0.4,-376.6 0.2,-516.9 -0.6,-524 -2.2,-18.9 -10,-36.9 -22.6,-52 -3.7,-4.5 -6.8,-8.4 -6.8,-8.6 0,-0.3 4.3,-5.2 9.5,-10.9 5.2,-5.6 9.5,-10.6 9.5,-11 0,-2 -2.2,0 -11,9.7 -5.2,5.8 -9.9,10.5 -10.3,10.5 -0.5,0 -3.2,-2 -6.2,-4.4 C 3099.7,83.1 3079.6,75 3062.5,73 3051.8,71.8 116.4,71.8 106,73 Z m 1172.6,6.2 c 0.3,0.4 -3.9,27 -5.1,32.5 -0.5,1.9 -0.1,2.3 2,2.3 h 2.5 v 166.9 c 0,109.9 0.3,167.2 1,167.6 0.7,0.4 1.1,-55.8 1.2,-166.7 l 0.3,-167.3 2.6,-0.3 2.6,-0.3 -2.9,-17.1 c -1.6,-9.4 -2.7,-17.2 -2.6,-17.4 0.7,-0.6 1780.5,-0.6 1784.8,0.1 13,2 33.9,10.6 41.3,17.1 l 2.9,2.5 -10.1,15.5 c -5.6,8.6 -9.6,15.2 -8.9,14.8 1.8,-1 22.8,-17.3 25.5,-19.7 2.2,-1.9 2.2,-2.2 0.6,-3.9 -0.9,-1 -1.4,-1.8 -1,-1.8 0.3,0 3.4,3.5 6.9,7.7 8.1,9.8 14,20.6 18.1,33.1 l 3.2,9.7 0.3,410.8 0.2,410.7 -2.2,-0.5 c -2.6,-0.6 -32.3,-5.5 -33.2,-5.5 -0.3,0 -0.6,1.1 -0.6,2.5 v 2.5 h -424.5 c -282.3,0 -424.5,0.3 -424.5,1 0,0.7 142.2,1 424.5,1 H 3108 v 2.5 c 0,3.1 -0.2,3.1 18,0 8,-1.4 15.3,-2.5 16.3,-2.5 1.7,0 1.8,4.8 1.5,109.2 l -0.3,109.3 -3.2,9.7 c -8.1,24.7 -23.9,43.9 -45.6,55.3 -8.8,4.6 -21.8,8.9 -30.7,10 -5.2,0.7 -1783.1,0.7 -1783.8,0.1 -0.1,-0.2 1,-8 2.6,-17.4 l 2.9,-17.1 -2.6,-0.3 -2.6,-0.3 v -129 -129 l 310.3,-0.3 c 205.6,-0.1 310.2,-0.5 310.2,-1.2 0,-0.7 -104.5,-1 -310.5,-1 H 1280 v -84 c 0,-55.3 -0.3,-84 -1,-84 -0.7,0 -1,28.7 -1,84 v 84 H 672.5 67 v -2.5 c 0,-1.4 -0.3,-2.5 -0.6,-2.5 -0.9,0 -30.6,4.9 -33.1,5.5 L 31,976 V 929 882 H 209.5 388 V 669.5 457 H 209.5 30.9 l 0.3,-153.3 0.3,-153.2 2.8,-9 c 11,-35 40.5,-59.4 75.4,-62.3 8.6,-0.7 1168.1,-0.7 1168.9,0 z M 385,470.8 c 0,10.2 -0.2,11.1 -2.8,15.3 -1.6,2.4 -6.8,8.1 -11.5,12.6 -8.7,8.3 -9.6,9.8 -8.8,16 0.2,1 -36.3,1.3 -179.4,1.3 H 3 v -28 -28 h 191 191 z m 0,31.2 v 12 h -3 -3 v -9.1 c 0,-8.5 0.2,-9.2 2.8,-11.9 1.5,-1.6 2.8,-2.9 3,-3 0.1,0 0.2,5.4 0.2,12 z m -9,4.5 c 0,4.3 -0.4,7.5 -1,7.5 -1.1,0 -1.4,-13.3 -0.3,-14.3 1.2,-1.3 1.3,-0.7 1.3,6.8 z m -5,5.7 v 8.3 l -2,-3 c -2.4,-3.7 -2.6,-9.2 -0.3,-11.7 0.9,-1 1.8,-1.8 2,-1.8 0.1,0 0.3,3.7 0.3,8.2 z m 5,5.3 c 0,0.8 -0.4,1.5 -1,1.5 -0.5,0 -1,-0.7 -1,-1.5 0,-0.8 0.5,-1.5 1,-1.5 0.6,0 1,0.7 1,1.5 z m 9,0 c 0,1 -1,1.5 -3,1.5 -2,0 -3,-0.5 -3,-1.5 0,-1 1,-1.5 3,-1.5 2,0 3,0.5 3,1.5 z m -23,3.5 c 0,1.1 0.9,2.9 2,4 1.7,1.7 2,3.3 2,12 0,8.9 -0.2,10 -2,11 -1.9,1 -2,2.1 -2,20 0,11.5 0.4,19.1 1,19.5 0.6,0.4 1,6 1,13.5 0,7.5 -0.4,13.1 -1,13.5 -0.6,0.4 -1,8 -1,19.5 0,11.5 0.4,19.1 1,19.5 1.3,0.8 1.3,31.2 0,32 -0.6,0.4 -1,8 -1,19.5 0,11.5 0.4,19.1 1,19.5 0.6,0.4 1,6 1,13.5 0,7.5 -0.4,13.1 -1,13.5 -0.6,0.4 -1,8 -1,19.5 0,17.9 0.1,19 2,20 1.8,1 2,2.1 2,11 0,8.7 -0.3,10.3 -2,12 -1.1,1.1 -2,2.9 -2,4 0,2 -0.7,2 -179.5,2 H 3 V 669.5 519 h 179.5 c 178.8,0 179.5,0 179.5,2 z m 6.5,1 c 0.3,0.5 0.1,1 -0.4,1 -0.6,0 -1.1,-0.5 -1.1,-1 0,-0.6 0.2,-1 0.4,-1 0.3,0 0.8,0.4 1.1,1 z m 15.3,0.7 c -1,0.2 -2.6,0.2 -3.5,0 -1,-0.3 -0.2,-0.5 1.7,-0.5 1.9,0 2.7,0.2 1.8,0.5 z m 1,13.7 c 0.2,5.7 -0.1,10.2 -0.7,10.5 -0.5,0.4 -4,0.6 -7.8,0.6 h -6.8 l -0.3,-9.4 c -0.1,-5.2 -0.1,-10 0.2,-10.7 0.3,-0.8 2.8,-1.1 7.8,-1 l 7.3,0.1 z M 369,567.5 c 0,11 -0.4,17.5 -1,17.5 -0.6,0 -1,-6.3 -1,-16.8 0,-14.8 0.3,-18.2 1.7,-18.2 0.2,0 0.3,7.9 0.3,17.5 z m 16,0.5 v 15 h -5.5 -5.5 v -15 -15 h 5.5 5.5 z m -9,32.9 v 12.9 H 372.5 369 V 600.9 588 h 3.5 3.5 z m 8.8,-0.2 -0.3,12.8 -2.7,0.2 -2.8,0.2 v -13 -12.9 h 3 3.1 z M 369,634 c 0,10.7 -0.4,17 -1,17 -0.6,0 -1,-6.3 -1,-17 0,-10.7 0.4,-17 1,-17 0.6,0 1,6.3 1,17 z m 16,0 v 15 h -5.5 -5.5 v -15 -15 h 5.5 5.5 z m -9,35.5 v 15.3 l -3.2,-0.2 -3.3,-0.2 -0.3,-15.1 -0.3,-15.1 h 3.6 3.5 z m 8.8,-0.2 c 0.1,8.1 -0.1,14.7 -0.5,14.8 -0.5,0 -1.8,0.2 -3,0.3 -2.3,0.3 -2.3,0.2 -2.3,-15 v -15.3 l 2.8,0.2 2.7,0.2 z M 369,704.5 c 0,11 -0.4,17.5 -1,17.5 -0.6,0 -1,-6.3 -1,-16.8 0,-14.8 0.3,-18.2 1.7,-18.2 0.2,0 0.3,7.9 0.3,17.5 z m 16,0.5 v 15 h -5.5 -5.5 v -15 -15 h 5.5 5.5 z m -9,32.9 v 12.9 H 372.5 369 V 737.9 725 h 3.5 3.5 z m 8.8,-0.2 -0.3,12.8 -2.7,0.2 -2.8,0.2 v -13 -12.9 h 3 3.1 z M 369,771.6 c 0,11.4 -0.3,17.3 -1,16.9 -0.6,-0.4 -1,-7.3 -1,-17.6 0,-10.6 0.4,-16.9 1,-16.9 0.6,0 1,6.5 1,17.6 z m 16,-0.6 v 15 h -5.5 -5.5 v -15 -15 h 5.5 5.5 z m -0.2,30.8 c 0.1,5.6 -0.1,10.3 -0.5,10.3 -2.3,0.5 -13,0.5 -14,0.1 -0.9,-0.3 -1.3,-3.4 -1.3,-10.7 v -10.3 l 7.8,0.1 7.7,0.2 z m -16.6,15.4 c -0.7,0.7 -1.2,0.8 -1.2,0.2 0,-1.4 1.2,-2.6 1.9,-1.9 0.2,0.3 -0.1,1.1 -0.7,1.7 z M 376,816 c 0,0.5 -0.4,1 -1,1 -0.5,0 -1,-0.5 -1,-1 0,-0.6 0.5,-1 1,-1 0.6,0 1,0.4 1,1 z m 8.8,0.5 c 0.3,0.3 -0.9,0.5 -2.6,0.5 -1.8,0 -3.2,-0.5 -3.2,-1 0,-1 4.7,-0.6 5.8,0.5 z M 371,827.2 c 0,8 0,8.1 -2,6.3 -2.5,-2.2 -2.7,-8.5 -0.4,-12 0.9,-1.4 1.8,-2.5 2,-2.5 0.2,0 0.4,3.7 0.4,8.2 z m 5,-5.7 c 0,0.8 -0.4,1.5 -1,1.5 -0.5,0 -1,-0.7 -1,-1.5 0,-0.8 0.5,-1.5 1,-1.5 0.6,0 1,0.7 1,1.5 z m 9,0 c 0,1 -1,1.5 -3,1.5 -2,0 -3,-0.5 -3,-1.5 0,-1 1,-1.5 3,-1.5 2,0 3,0.5 3,1.5 z m -23,5.9 c 0,4.3 0.3,4.8 8.6,12.8 4.8,4.6 10,10.3 11.5,12.7 2.7,4.2 2.9,5.1 2.9,15.3 V 879 H 194 3 V 851 823 H 182.5 362 Z m 14,5.2 c 0,4.7 -0.4,7.3 -1,6.9 -0.5,-0.3 -1,-3.7 -1,-7.6 0,-3.9 0.4,-6.9 1,-6.9 0.6,0 1,3.2 1,7.6 z m 9,4.5 v 12.2 l -3,-3.4 c -2.8,-3.2 -3,-3.9 -3,-12.2 V 825 h 3 3 z M 49,979.5 c 18.2,3.1 18,3.1 18,0 V 977 H 672.5 1278 v 129.5 129.5 h -2.5 c -2.1,0 -2.5,0.4 -2,2.2 0.9,4.3 5.4,32.2 5.2,32.4 -0.6,0.7 -1162,0.6 -1167.2,0 -15.6,-1.9 -33.8,-9.9 -46.7,-20.5 -17.8,-14.5 -30.2,-37.3 -32.8,-60.4 -0.6,-4.6 -1,-53.2 -1,-110.5 0,-96.7 0.1,-102.2 1.8,-102.2 0.9,0 8.2,1.1 16.2,2.5 z"
     id="path8"
     style="fill:#000000;stroke:none;stroke-width:0.1" />
  <path
     d="m 109,119.9 c -23.6,7.6 -38.4,27.3 -38.4,51.1 0,48.1 59.1,71.2 91.8,35.9 7.9,-8.5 12.5,-18.4 14.2,-30.2 l 0.6,-4.7 h 212.4 c 140.9,0 212.4,-0.3 212.4,-1 0,-0.7 -71.5,-1 -212.4,-1 H 177.2 l -0.6,-4.8 c -1.7,-11.7 -6.3,-21.6 -14.2,-30.1 -10.4,-11.3 -23.9,-17.1 -39.3,-17 -5.4,0 -10.6,0.7 -14.1,1.8 z m 28.3,2.6 c 12.3,3.6 24,12.8 30.2,24 3.2,5.7 6.5,16.3 6.5,21.2 v 2.3 h -23.5 c -15,0 -23.5,0.4 -23.5,1 0,0.6 8.5,1 23.5,1 H 174 v 2.2 c 0,5 -3.3,15.6 -6.5,21.3 -15.9,28.4 -53.8,34.5 -77.9,12.4 -10.8,-9.8 -16.1,-22 -16.1,-36.9 0,-14.9 5.3,-27.1 16.1,-36.9 13.4,-12.2 30.8,-16.5 47.7,-11.6 z"
     id="path10"
     style="fill:#000000;stroke:none;stroke-width:0.1" />
  <path
     d="m 3037,119.9 c -23.6,7.6 -38.4,27.3 -38.4,51.1 0,11.5 2.8,20.2 9.9,30.9 3.1,4.6 5.4,8.8 5.3,9.2 -0.2,0.4 -6.7,5.8 -14.6,11.9 -13.8,10.8 -14.3,11.3 -12.6,13.1 1.6,1.8 1.3,2.3 -7.2,11.5 -4.9,5.3 -12.5,13.7 -16.9,18.6 -4.4,4.9 -46,50.2 -92.5,100.8 l -84.5,91.9 h -170.7 c -112.6,0.1 -170.9,0.4 -171.3,1.1 -0.4,0.7 56.8,1 170.9,1 h 171.5 l 4.9,-5.3 c 2.7,-2.8 42,-45.5 87.3,-94.7 45.2,-49.2 88.4,-96 95.8,-104 7.4,-8 14,-15.1 14.7,-15.9 1.1,-1.2 1.6,-1.2 2.8,-0.2 0.9,0.7 2,1.1 2.5,0.9 0.5,-0.1 5.5,-7.2 11.1,-15.6 l 10,-15.3 3.8,2.9 c 17.3,13.6 43.7,14.7 62,2.6 11.1,-7.3 19.1,-18.2 22.7,-30.9 3.2,-10.8 1,-27.8 -5,-39.6 -2.5,-4.8 -9.7,-14.4 -11.6,-15.5 -1,-0.5 -4.4,-2.6 -7.8,-4.6 -12.5,-7.6 -29.5,-10 -42.1,-5.9 z m 28.3,2.6 c 5.6,1.6 15.9,7 18.1,9.4 1.5,1.6 -1.2,4.9 -26.4,31.6 -3.1,3.3 -10.7,11.6 -16.9,18.5 -6.3,6.9 -14.1,15.3 -17.4,18.8 l -6,6.3 -2.4,-2.3 c -3.4,-3.1 -8.6,-12.2 -10.9,-18.9 -1.3,-3.8 -1.9,-8.2 -1.9,-14.9 0,-14.9 5.3,-27.1 16.1,-36.9 13.4,-12.2 30.8,-16.5 47.7,-11.6 z m 24.9,15.7 c 13.6,17.8 15.4,39.2 5.1,57.8 -8.8,15.6 -25.6,25.3 -43.8,25.3 -11,0 -23.5,-4.3 -30.7,-10.5 l -2.6,-2.3 34,-36.8 c 18.7,-20.2 34.3,-36.7 34.8,-36.7 0.4,0 1.9,1.5 3.2,3.2 z"
     id="path12"
     style="fill:#000000;stroke:none;stroke-width:0.1" />
  <path
     d="m 595.7,176 c -0.5,1.3 -5.7,31.8 -5.7,33.4 0,0.3 1.1,0.6 2.5,0.6 h 2.5 v 13.4 13.3 l -4.1,0.6 c -5,0.7 -7.6,2.9 -8.9,7.6 -1.2,4.6 0.2,10 3.4,13.1 l 2.5,2.3 -2.4,1.9 c -5,3.9 -5.2,13.3 -0.3,18.5 l 2.1,2.3 h -2.6 c -2.3,0 -2.7,0.4 -2.7,3 v 3 h 19.5 19.5 v -2.9 -2.9 l -13.2,-0.4 c -17.1,-0.5 -20.7,-2.3 -20.8,-10 0,-6.1 2,-6.8 19.2,-6.8 H 621 v -3 -3 h -11.7 c -13.3,0 -18.5,-1.1 -20.8,-4.3 -3.3,-4.8 -0.6,-12.7 4.5,-12.7 1.3,0 2,0.7 2,2 0,1.1 0.5,2 1,2 0.6,0 1,-0.9 1,-2 0,-1.9 0.7,-2 12,-2 h 12 v -3 -3 H 609 597 V 223.5 210 h 2.5 c 1.7,0 2.5,-0.5 2.4,-1.8 -0.1,-4.7 -5.7,-33.5 -6.2,-32.2 z"
     id="path14"
     style="fill:#000000;stroke:none;stroke-width:0.1" />
  <path
     d="m 587.5,301 c -6.9,2.7 -8,14.3 -2.1,20 l 2.5,2.3 -2.4,1.9 c -5,3.9 -5.2,13.3 -0.3,18.5 l 2.1,2.3 h -2.6 c -2.3,0 -2.7,0.4 -2.7,3 v 3 h 19.5 19.5 v -2.9 -2.9 l -13.2,-0.4 c -17.1,-0.5 -20.7,-2.3 -20.8,-10 0,-6.1 2,-6.8 19.2,-6.8 H 621 v -3 -3 h -11.7 c -13.3,0 -18.5,-1.1 -20.8,-4.3 -2.1,-3 -1.9,-8.3 0.5,-10.7 1.8,-1.8 3.3,-2 17,-2 h 15 v -3 -3 l -15.7,0.1 c -8.7,0 -16.7,0.4 -17.8,0.9 z"
     id="path16"
     style="fill:#000000;stroke:none;stroke-width:0.1" />
  <path
     d="m 575,363.9 c -5.1,2.7 -7.5,7.4 -7.5,14.6 0.1,3.7 0.7,7.2 1.8,9.3 2.1,3.9 7.1,7.2 11,7.2 2.3,0 2.7,-0.4 2.7,-2.9 0,-2.4 -0.5,-3 -2.9,-3.4 -6,-1.2 -9.7,-8.7 -6.9,-14.3 2.2,-4.6 6,-6.8 10.5,-6 3.2,0.6 5.7,2.8 15.9,13.2 10.8,11 16.5,15.4 20.4,15.4 0.6,0 1,-6.1 1,-17.5 V 362 h -3 -3 v 13 c 0,10.9 -0.2,12.8 -1.5,12.4 -0.8,-0.3 -5.4,-5.2 -10.4,-10.9 -12.2,-14 -19.4,-17.3 -28.1,-12.6 z"
     id="path18"
     style="fill:#000000;stroke:none;stroke-width:0.1" />
  <path
     d="m 2468.5,387.6 c -13.4,3.3 -19.5,11.4 -20.3,26.4 -0.3,7.9 -0.2,8.9 2.6,14.3 l 3,5.9 -3,3.4 c -2.5,2.9 -2.8,3.7 -1.8,5 1.2,1.3 1.8,1 5,-2.1 3.2,-3.2 3.8,-3.4 5,-2 2,2.4 11.7,4.8 17.1,4.2 9.8,-1.2 18.4,-8.3 21,-17.5 2.3,-7.7 1.7,-17.8 -1.3,-23.7 l -2.6,-5 3,-3.7 c 4.6,-5.8 1.5,-8.3 -3.6,-2.9 l -2.8,2.9 -4.2,-2.4 c -4.1,-2.3 -13.1,-3.8 -17.1,-2.8 z m 12.5,7.2 c 1.8,1.1 3.5,2.3 3.7,2.9 0.3,0.9 -24.2,29.4 -26.2,30.3 -1.9,0.9 -3.7,-7.3 -3.3,-15.2 0.4,-6.3 1,-8.5 3.2,-11.8 4.8,-7.3 15.2,-10.1 22.6,-6.2 z m 10.4,20.7 c 0,8.7 -1.2,12.1 -6.1,16.7 -5.5,5.2 -13.5,6.3 -20.4,2.7 l -4,-2 3.2,-3.7 c 1.8,-2 8,-9 13.8,-15.5 l 10.5,-11.8 1.5,2.8 c 0.9,1.8 1.5,5.7 1.5,10.8 z"
     id="path20"
     style="fill:#000000;stroke:none;stroke-width:0.1" />
  <path
     d="m 2515.7,389.4 c -4.9,1.8 -6.7,3.4 -8.4,7.3 -2.2,5.4 -1.8,7.3 1.7,7.3 2.3,0 3,-0.4 3,-2 0,-3.1 5,-7.8 9,-8.5 6.7,-1.1 12.9,5.2 11.5,11.6 -0.9,3.9 -4.6,8.2 -15.1,17.7 -8.4,7.4 -13.4,14.2 -13.4,18 0,0.9 4.7,1.2 17.5,1.2 h 17.5 v -3 -3 h -13 c -10.8,0 -12.8,-0.2 -12.4,-1.4 0.3,-0.8 4.8,-5.1 10,-9.6 5.2,-4.5 10.6,-9.9 12.1,-12.1 5.2,-7.9 3.6,-18 -3.5,-22.2 -4.1,-2.4 -11.8,-3.1 -16.5,-1.3 z"
     id="path22"
     style="fill:#000000;stroke:none;stroke-width:0.1" />
  <path
     d="m 2578.7,389.4 c -4.9,1.8 -6.7,3.4 -8.4,7.3 -2.2,5.4 -1.8,7.3 1.7,7.3 2.3,0 3,-0.4 3,-2 0,-3.1 5,-7.8 9,-8.5 6.7,-1.1 12.9,5.2 11.5,11.6 -0.9,3.9 -4.6,8.2 -15.1,17.7 -8.4,7.4 -13.4,14.2 -13.4,18 0,0.9 4.7,1.2 17.5,1.2 h 17.5 v -3 -3 h -13 c -10.8,0 -12.8,-0.2 -12.4,-1.4 0.3,-0.8 4.8,-5.1 10,-9.6 5.2,-4.5 10.6,-9.9 12.1,-12.1 5.2,-7.9 3.6,-18 -3.5,-22.2 -4.1,-2.4 -11.8,-3.1 -16.5,-1.3 z"
     id="path24"
     style="fill:#000000;stroke:none;stroke-width:0.1" />
  <path
     d="m 2617,389.2 c 0,0.2 -1.1,6.1 -2.5,13.1 -1.4,7.1 -2.3,13.3 -2,13.8 1.1,1.7 4.7,0.9 7.7,-1.6 2.2,-1.9 4.1,-2.5 7.5,-2.5 3.8,0 5,0.5 7.9,3.4 2.9,2.9 3.4,4.1 3.4,8.1 0,4.9 -1,7.7 -4.3,11.2 -4.6,5.1 -13.5,3.3 -16.3,-3.3 -1.2,-2.8 -1.9,-3.4 -4.5,-3.4 -3,0 -3.1,0.1 -2.5,3.2 0.9,4.4 6.2,9.6 11,10.9 11.2,3 21.3,-3.9 23.2,-15.9 2,-12.3 -9.9,-22.7 -21.4,-18.8 -2.5,0.9 -4.7,1.5 -4.8,1.3 -0.3,-0.2 0.5,-4.4 2.1,-11.5 0.5,-2.1 1,-2.2 11,-2.2 h 10.5 v -3 -3 h -13 c -7.1,0 -13,0.1 -13,0.2 z"
     id="path26"
     style="fill:#000000;stroke:none;stroke-width:0.1" />
  <path
     d="m 586,402.6 c -10.8,2.1 -17.3,7 -18.6,14 -1.4,7.8 4,16 12.3,18.4 10.8,3.1 26.8,2.1 34.5,-2.3 4.1,-2.3 7.8,-8.4 7.8,-13 0,-6.8 -5.6,-13.7 -12.8,-15.7 -4.3,-1.2 -19.5,-2.1 -23.2,-1.4 z m 22.1,7.4 c 4.3,1.2 7.7,4.6 8.5,8.6 0.7,3.6 -2.4,8 -7.2,10 -4,1.7 -23.1,1.9 -28.6,0.4 -4.3,-1.2 -8.8,-6.1 -8.8,-9.5 0,-3.2 4.5,-8.3 8.3,-9.4 4.4,-1.3 23.4,-1.3 27.8,-0.1 z"
     id="path28"
     style="fill:#000000;stroke:none;stroke-width:0.1" />
  <path
     d="m 2667,403.3 c -1.9,0.5 -4.5,1.8 -5.7,3 l -2.3,2 v -2.6 c 0,-2.3 -0.4,-2.7 -3,-2.7 h -3 v 19.5 19.5 h 3 3 v -10.8 c 0.1,-12.6 1,-17.5 4.1,-20.8 2.8,-3 8.1,-3.2 10.9,-0.4 1.8,1.8 2,3.3 2,17 v 15 h 3 3 v -11.8 c 0,-13.2 1.1,-18.4 4.3,-20.7 3,-2.1 8.3,-1.9 10.7,0.5 1.8,1.8 2,3.3 2,17 v 15 h 3.1 3 l -0.3,-17 c -0.3,-15.7 -0.5,-17.1 -2.4,-19 -4.5,-4.6 -14,-4.2 -18.5,0.6 l -2.1,2.3 -2.2,-2.5 c -2.6,-3 -7.9,-4.4 -12.6,-3.1 z"
     id="path30"
     style="fill:#000000;stroke:none;stroke-width:0.1" />
  <path
     d="m 2730,403.3 c -1.9,0.5 -4.5,1.8 -5.7,3 l -2.3,2 v -2.6 c 0,-2.3 -0.4,-2.7 -3,-2.7 h -3 v 19.5 19.5 h 3 3 v -10.8 c 0.1,-12.6 1,-17.5 4.1,-20.8 2.8,-3 8.1,-3.2 10.9,-0.4 1.8,1.8 2,3.3 2,17 v 15 h 3 3 v -11.8 c 0,-13.2 1.1,-18.4 4.3,-20.7 3,-2.1 8.3,-1.9 10.7,0.5 1.8,1.8 2,3.3 2,17 v 15 h 3.1 3 l -0.3,-17 c -0.3,-15.7 -0.5,-17.1 -2.4,-19 -4.5,-4.6 -14,-4.2 -18.5,0.6 l -2.1,2.3 -2.2,-2.5 c -2.6,-3 -7.9,-4.4 -12.6,-3.1 z"
     id="path32"
     style="fill:#000000;stroke:none;stroke-width:0.1" />
  <path
     d="m 2551,438.5 c 0,3.3 0.2,3.5 3.5,3.5 3.3,0 3.5,-0.2 3.5,-3.5 0,-3.3 -0.2,-3.5 -3.5,-3.5 -3.3,0 -3.5,0.2 -3.5,3.5 z"
     id="path34"
     style="fill:#000000;stroke:none;stroke-width:0.1" />
  <path
     d="m 614,450.5 c 0,3.3 0.2,3.5 3.5,3.5 3.3,0 3.5,-0.2 3.5,-3.5 0,-3.3 -0.2,-3.5 -3.5,-3.5 -3.3,0 -3.5,0.2 -3.5,3.5 z"
     id="path36"
     style="fill:#000000;stroke:none;stroke-width:0.1" />
  <path
     d="m 575,467.9 c -5.1,2.7 -7.5,7.4 -7.5,14.6 0.1,3.7 0.7,7.2 1.8,9.3 2.1,3.9 7.1,7.2 11,7.2 2.3,0 2.7,-0.4 2.7,-2.9 0,-2.4 -0.5,-3 -2.9,-3.4 -6,-1.2 -9.7,-8.7 -6.9,-14.3 2.2,-4.6 6,-6.8 10.5,-6 3.2,0.6 5.7,2.8 15.9,13.2 10.8,11 16.5,15.4 20.4,15.4 0.6,0 1,-6.1 1,-17.5 V 466 h -3 -3 v 13 c 0,10.9 -0.2,12.8 -1.5,12.4 -0.8,-0.3 -5.4,-5.2 -10.4,-10.9 -12.2,-14 -19.4,-17.3 -28.1,-12.6 z"
     id="path38"
     style="fill:#000000;stroke:none;stroke-width:0.1" />
  <path
     d="m 1270.5,478 c -6.9,2.7 -8,14.3 -2.1,20 l 2.5,2.3 -2.4,1.9 c -5,3.9 -5.2,13.3 -0.3,18.5 l 2.1,2.3 h -2.6 c -2.3,0 -2.7,0.4 -2.7,3 v 3 h 19.5 19.5 v -2.9 -2.9 l -13.2,-0.4 c -17.1,-0.5 -20.7,-2.3 -20.8,-10 0,-6.1 2,-6.8 19.2,-6.8 h 14.8 v -3 -3 h -11.7 c -13.3,0 -18.5,-1.1 -20.8,-4.3 -2.1,-3 -1.9,-8.3 0.5,-10.7 1.8,-1.8 3.3,-2 17,-2 h 15 v -3 -3 l -15.7,0.1 c -8.7,0 -16.7,0.4 -17.8,0.9 z"
     id="path40"
     style="fill:#000000;stroke:none;stroke-width:0.1" />
  <path
     d="m 1270.5,541 c -6.9,2.7 -8,14.3 -2.1,20 l 2.5,2.3 -2.4,1.9 c -5,3.9 -5.2,13.3 -0.3,18.5 l 2.1,2.3 h -2.6 c -2.3,0 -2.7,0.4 -2.7,3 v 3 h 19.5 19.5 v -2.9 -2.9 l -13.2,-0.4 c -17.1,-0.5 -20.7,-2.3 -20.8,-10 0,-6.1 2,-6.8 19.2,-6.8 h 14.8 v -3 -3 h -11.7 c -13.3,0 -18.5,-1.1 -20.8,-4.3 -2.1,-3 -1.9,-8.3 0.5,-10.7 1.8,-1.8 3.3,-2 17,-2 h 15 v -3 -3 l -15.7,0.1 c -8.7,0 -16.7,0.4 -17.8,0.9 z"
     id="path42"
     style="fill:#000000;stroke:none;stroke-width:0.1" />
  <path
     d="m 1282.3,601.4 c -1.7,0.8 -3.9,2.7 -4.9,4.3 -1,1.5 -1.9,3 -2,3.1 -0.2,0.2 -1.6,-1.1 -3.2,-2.9 -2.6,-2.9 -3.5,-3.3 -7.9,-3.3 -6.2,0 -10.5,2.8 -12.7,8.4 -2.1,5.2 -2,8.5 0.3,13.7 3,6.6 9.1,9.4 15.6,7.3 2.2,-0.7 4.4,-2.4 5.5,-4.2 l 1.8,-3 1.3,2.8 c 4.7,9.5 19.4,9.6 25.7,0.1 2.2,-3.3 2.7,-5.2 2.7,-10.1 -0.1,-7.1 -2,-11.4 -6.6,-14.7 -3.9,-2.7 -11.2,-3.5 -15.6,-1.5 z m 11.4,6.3 c 4.3,2 6.8,7.1 5.8,11.9 -1.5,8.1 -12.7,11.4 -18.6,5.5 -5.3,-5.4 -3.5,-14.6 3.5,-17.7 4.1,-1.7 5.1,-1.7 9.3,0.3 z M 1270,611 c 2.7,2.7 3.5,6.5 2,10.1 -4,9.5 -19.1,4.4 -16.6,-5.6 1.5,-6.1 10.3,-8.8 14.6,-4.5 z"
     id="path44"
     style="fill:#000000;stroke:none;stroke-width:0.1" />
  <path
     d="m 1281.4,643.6 c -1.7,0.8 -3.7,2.7 -4.5,4.2 -0.7,1.5 -1.5,2.9 -1.6,3.1 -0.2,0.2 -1.2,-0.8 -2.3,-2.2 -1.2,-1.5 -3.6,-3.1 -5.5,-3.6 -14.2,-3.9 -23.6,16.3 -12.4,26.6 2.2,2 7.9,4.7 8.4,4.1 0.1,-0.2 0.5,-1.5 0.9,-3 0.6,-2.4 0.2,-2.9 -2.8,-4.2 -6.7,-2.8 -8.5,-9.2 -4,-14.5 2,-2.4 3.4,-3.1 6.1,-3.1 4.6,0 9.3,4.5 9.3,8.9 0,2.6 0.4,3.1 2.5,3.1 2.2,0 2.5,-0.4 2.5,-3.9 0,-7.6 7.4,-12.6 14.3,-9.7 4.5,1.8 7.2,5.9 7.2,10.9 0,3.1 -0.7,4.5 -3.3,6.8 -1.8,1.6 -4.1,2.9 -5.2,2.9 -1.7,0 -1.9,0.4 -1.4,2.7 0.9,3.7 0.8,3.6 4.3,2.8 4.5,-1 9.8,-7.4 10.6,-12.8 0.7,-4.7 -0.5,-10.3 -3.3,-14.5 -3.5,-5.4 -13.5,-7.7 -19.8,-4.6 z"
     id="path46"
     style="fill:#000000;stroke:none;stroke-width:0.1" />
  <path
     d="m 1297,690.5 c 0,3.3 0.2,3.5 3.5,3.5 3.3,0 3.5,-0.2 3.5,-3.5 0,-3.3 -0.2,-3.5 -3.5,-3.5 -3.3,0 -3.5,0.2 -3.5,3.5 z"
     id="path48"
     style="fill:#000000;stroke:none;stroke-width:0.1" />
  <path
     d="m 1279,704.5 c -8.6,3.9 -12.5,12.2 -9.6,20.5 0.8,2.4 1.4,4.5 1.3,4.7 -0.2,0.2 -4.7,-0.7 -11.4,-2.2 -2.2,-0.5 -2.3,-1 -2.3,-11 V 706 h -3 -3 v 13 c 0,7.1 0.1,13 0.3,13 0.1,0 6,1.1 13,2.5 7.1,1.4 13.3,2.3 13.8,2 1.7,-1.1 0.9,-4.7 -1.6,-7.7 -1.9,-2.2 -2.5,-4.1 -2.5,-7.5 0,-3.8 0.5,-5 3.4,-7.9 2.9,-2.9 4.1,-3.4 8.1,-3.4 4.9,0 7.7,1 11.2,4.3 5.1,4.6 3.3,13.5 -3.3,16.3 -2.8,1.2 -3.4,1.9 -3.4,4.5 0,3 0.1,3.1 3.2,2.5 1.8,-0.3 4.7,-2.1 6.5,-3.8 8.4,-8.1 5.9,-22.8 -4.7,-28.3 -4.4,-2.3 -12,-2.7 -16,-1 z"
     id="path50"
     style="fill:#000000;stroke:none;stroke-width:0.1" />
  <path
     d="m 1258,748.9 c -5.1,2.7 -7.5,7.4 -7.5,14.6 0.1,3.7 0.7,7.2 1.8,9.3 2.1,3.9 7.1,7.2 11,7.2 2.3,0 2.7,-0.4 2.7,-2.9 0,-2.4 -0.5,-3 -2.9,-3.4 -6,-1.2 -9.7,-8.7 -6.9,-14.3 2.2,-4.6 6,-6.8 10.5,-6 3.2,0.6 5.7,2.8 15.9,13.2 10.8,11 16.5,15.4 20.4,15.4 0.6,0 1,-6.1 1,-17.5 V 747 h -3 -3 v 13 c 0,10.9 -0.2,12.8 -1.5,12.4 -0.8,-0.3 -5.4,-5.2 -10.4,-10.9 -12.2,-14 -19.4,-17.3 -28.1,-12.6 z"
     id="path52"
     style="fill:#000000;stroke:none;stroke-width:0.1" />
  <path
     d="m 1939.5,948.2 c -4.7,1.6 -9.3,6.7 -11.2,12.2 -2.5,7.2 -2.5,23.4 0,29.8 5.4,14.1 24.2,15.6 30.9,2.6 2.4,-4.7 2.6,-13.3 0.4,-17.5 -4.7,-9.3 -16.5,-11.5 -24.6,-4.7 l -3.1,2.6 0.7,-4.3 c 1.4,-9.9 4.9,-15.3 10.9,-16.4 3.8,-0.7 9.2,2.5 10.1,6 0.6,2.5 2.7,3.2 5.3,1.6 3.4,-2.2 -2.4,-10.3 -8.6,-12 -4.6,-1.3 -6.8,-1.3 -10.8,0.1 z m 12.1,27.2 c 2.9,2.9 3.4,4.1 3.4,8.2 0,14.7 -16.7,18.2 -20.9,4.5 -2.5,-8.5 2.3,-16 10.3,-16.1 3,0 4.5,0.7 7.2,3.4 z"
     id="path54"
     style="fill:#000000;stroke:none;stroke-width:0.1" />
  <path
     d="m 1981.5,948.2 c -4.7,1.6 -9.3,6.7 -11.2,12.2 -2.5,7.2 -2.5,23.4 0,29.8 5.4,14.1 24.2,15.6 30.9,2.6 2.4,-4.7 2.6,-13.3 0.4,-17.5 -4.7,-9.3 -16.5,-11.5 -24.6,-4.7 l -3.1,2.6 0.7,-4.3 c 1.4,-9.9 4.9,-15.3 10.9,-16.4 3.8,-0.7 9.2,2.5 10.1,6 0.6,2.5 2.7,3.2 5.3,1.6 3.4,-2.2 -2.4,-10.3 -8.6,-12 -4.6,-1.3 -6.8,-1.3 -10.8,0.1 z m 12.1,27.2 c 2.9,2.9 3.4,4.1 3.4,8.2 0,14.7 -16.7,18.2 -20.9,4.5 -2.5,-8.5 2.3,-16 10.3,-16.1 3,0 4.5,0.7 7.2,3.4 z"
     id="path56"
     style="fill:#000000;stroke:none;stroke-width:0.1" />
  <path
     d="m 2042.5,948.4 c -4.1,1.8 -8.2,6.7 -9.7,11.9 -0.7,2.3 -1.3,9.1 -1.3,15.2 0,10 0.3,11.5 2.8,16.7 2.2,4.5 3.6,6.1 7.1,7.7 2.3,1.2 5.5,2.1 6.9,2.1 7,0 13.7,-5.6 15.8,-13.3 1.9,-6.6 1.7,-23.3 -0.4,-29.3 -3.5,-10 -12.6,-14.7 -21.2,-11 z m 12.3,6.8 c 3.1,3 4.2,7.8 4.2,19.3 0,12.2 -1.1,16.6 -5.1,19.9 -5.2,4.4 -10.7,2.8 -14,-4.1 -1.9,-3.9 -2.1,-5.7 -1.7,-17.2 0.3,-11.3 0.6,-13.3 2.4,-15.8 4.2,-5.6 9.5,-6.4 14.2,-2.1 z"
     id="path58"
     style="fill:#000000;stroke:none;stroke-width:0.1" />
  <path
     d="m 2082.7,948.4 c -4.9,1.8 -6.7,3.4 -8.4,7.3 -2.2,5.4 -1.8,7.3 1.7,7.3 2.3,0 3,-0.4 3,-2 0,-3.1 5,-7.8 9,-8.5 6.7,-1.1 12.9,5.2 11.5,11.6 -0.9,3.9 -4.6,8.2 -15.1,17.7 -8.4,7.4 -13.4,14.2 -13.4,18 0,0.9 4.7,1.2 17.5,1.2 h 17.5 v -3 -3 h -13 c -10.8,0 -12.8,-0.2 -12.4,-1.4 0.3,-0.8 4.8,-5.1 10,-9.6 5.2,-4.5 10.6,-9.9 12.1,-12.1 5.2,-7.9 3.6,-18 -3.5,-22.2 -4.1,-2.4 -11.8,-3.1 -16.5,-1.3 z"
     id="path60"
     style="fill:#000000;stroke:none;stroke-width:0.1" />
  <path
     d="m 2130,962.3 c -1.9,0.5 -4.5,1.8 -5.7,3 l -2.3,2 v -2.6 c 0,-2.3 -0.4,-2.7 -3,-2.7 h -3 v 19.5 19.5 h 3 3 v -10.8 c 0.1,-12.6 1,-17.5 4.1,-20.8 2.8,-3 8.1,-3.2 10.9,-0.4 1.8,1.8 2,3.3 2,17 v 15 h 3 3 v -11.8 c 0,-13.2 1.1,-18.4 4.3,-20.7 3,-2.1 8.3,-1.9 10.7,0.5 1.8,1.8 2,3.3 2,17 v 15 h 3.1 3 l -0.3,-17 c -0.3,-15.7 -0.5,-17.1 -2.4,-19 -4.5,-4.6 -14,-4.2 -18.5,0.6 l -2.1,2.3 -2.2,-2.5 c -2.6,-3 -7.9,-4.4 -12.6,-3.1 z"
     id="path62"
     style="fill:#000000;stroke:none;stroke-width:0.1" />
  <path
     d="m 2193,962.3 c -1.9,0.5 -4.5,1.8 -5.7,3 l -2.3,2 v -2.6 c 0,-2.3 -0.4,-2.7 -3,-2.7 h -3 v 19.5 19.5 h 3 3 v -10.8 c 0.1,-12.6 1,-17.5 4.1,-20.8 2.8,-3 8.1,-3.2 10.9,-0.4 1.8,1.8 2,3.3 2,17 v 15 h 3 3 v -11.8 c 0,-13.2 1.1,-18.4 4.3,-20.7 3,-2.1 8.3,-1.9 10.7,0.5 1.8,1.8 2,3.3 2,17 v 15 h 3.1 3 l -0.3,-17 c -0.3,-15.7 -0.5,-17.1 -2.4,-19 -4.5,-4.6 -14,-4.2 -18.5,0.6 l -2.1,2.3 -2.2,-2.5 c -2.6,-3 -7.9,-4.4 -12.6,-3.1 z"
     id="path64"
     style="fill:#000000;stroke:none;stroke-width:0.1" />
  <path
     d="m 2014,997.5 c 0,3.3 0.2,3.5 3.5,3.5 3.3,0 3.5,-0.2 3.5,-3.5 0,-3.3 -0.2,-3.5 -3.5,-3.5 -3.3,0 -3.5,0.2 -3.5,3.5 z"
     id="path66"
     style="fill:#000000;stroke:none;stroke-width:0.1" />
  <path
     d="m 3037,1127.9 c -23.6,7.6 -38.4,27.3 -38.4,51.1 0,41.4 44.6,66.4 80.7,45.3 15.8,-9.3 25.2,-26.1 25.2,-45.3 0,-24.2 -14.6,-43.7 -38.1,-51 -8.5,-2.6 -21.6,-2.6 -29.4,-0.1 z m 28.3,2.6 c 26.2,7.6 41.4,33.8 35.1,60.5 -5.2,22.4 -25.6,38.3 -48.9,38.3 -21.8,0 -40.7,-14 -48.1,-35.4 -1.3,-3.8 -1.9,-8.2 -1.9,-14.9 0,-14.9 5.3,-27.1 16.1,-36.9 13.4,-12.2 30.8,-16.5 47.7,-11.6 z"
     id="path68"
     style="fill:#000000;stroke:none;stroke-width:0.1" />
  <path
     d="m 25.9,541.6 c -4.1,1.7 -6.9,5.9 -6.9,10.4 0,5 5.5,10 11,10 3.4,0 4.8,-0.6 7.6,-3.4 5.7,-5.7 3.9,-14 -3.8,-17.1 -2.1,-0.8 -3.9,-1.5 -4.1,-1.4 -0.1,0 -1.8,0.7 -3.8,1.5 z m 7.6,8.4 c 1.4,4.3 -4.4,6.7 -6.8,2.8 -0.8,-1.2 -0.7,-2.1 0.2,-3.2 1.9,-2.3 5.8,-2 6.6,0.4 z"
     id="path70"
     style="fill:#000000;stroke:none;stroke-width:0.1" />
  <path
     d="m 290.5,543.4 -2.5,2.5 v 27.7 c 0,26.7 0.1,27.8 2.2,31.6 4,7 6.6,7.9 23.5,7.9 15.8,0 18.6,-0.5 21.9,-4.2 4.3,-4.8 4.4,-5.8 4.4,-35.2 0,-28.3 0,-28.4 -2.3,-30.5 -1.8,-1.7 -3.6,-2.2 -7.8,-2.2 -3,0 -6,0.5 -6.6,1.1 -1,1 -9.4,0.8 -24,-0.7 -5.7,-0.5 -6.4,-0.4 -8.8,2 z M 302,560.5 V 577 h -5.5 -5.5 v -7 c 0,-4.9 0.5,-7.9 1.7,-9.6 1.5,-2.3 1.5,-2.8 0,-6 -3.2,-6.7 -1.3,-10.4 5.4,-10.4 H 302 Z M 331,546 c 0,1.6 -0.7,2 -3.5,2 -2.3,0 -3.5,-0.5 -3.5,-1.3 0,-2 1,-2.7 4.2,-2.7 2.1,0 2.8,0.5 2.8,2 z m -10.2,23.2 -0.3,23.3 -5.5,0.3 c -4.3,0.3 -5.7,-0.1 -6.7,-1.4 -1,-1.3 -1.3,-7.3 -1.3,-22.9 0,-11.7 0.3,-21.5 0.7,-21.8 0.3,-0.4 3.5,-0.7 7,-0.7 h 6.3 z m 17,4.8 c 0,13.5 -0.4,25.6 -0.8,27 -0.4,1.4 -0.8,-10.5 -0.8,-26.5 0,-17 0.3,-28.2 0.8,-27 0.5,1.1 0.8,13 0.8,26.5 z M 331,557 v 6 h -3.5 -3.5 v -6 -6 h 3.5 3.5 z m 0,12 c 0,2.8 -0.3,3 -3.5,3 -3.2,0 -3.5,-0.2 -3.5,-3 0,-2.8 0.3,-3 3.5,-3 3.2,0 3.5,0.2 3.5,3 z m 0,12 v 6 h -3.5 -3.5 v -6 -6 h 3.5 3.5 z m -29,15 c 0,15.3 -0.2,15.8 -5.7,12.3 -3.9,-2.6 -5.3,-7.1 -5.3,-17.3 v -9 h 5.5 5.5 z m 29,-3 c 0,2.9 -0.1,3 -5,3 h -4.9 l 1.7,-3 c 1.3,-2.4 2.4,-3 5,-3 2.9,0 3.2,0.3 3.2,3 z m -0.2,10.7 c -0.3,5.3 -0.5,5.7 -3.3,6.5 -1.6,0.5 -4.7,0.6 -6.7,0.2 l -3.8,-0.6 v -5.3 c 0,-6 0.1,-6.1 9.3,-6.4 l 4.8,-0.1 z m -16.8,0.8 c 0,2 -0.5,2.5 -2.5,2.5 -2,0 -2.5,-0.5 -2.5,-2.5 0,-2 0.5,-2.5 2.5,-2.5 2,0 2.5,0.5 2.5,2.5 z"
     id="path72"
     style="fill:#000000;stroke:none;stroke-width:0.1" />
  <path
     d="m 222.4,551.3 c -0.2,0.7 -0.3,11.8 -0.2,24.7 l 0.3,23.5 10.8,0.3 10.7,0.3 V 575 550 h -10.5 c -7.6,0 -10.7,0.4 -11.1,1.3 z M 241,557 v 4 h -8 -8 v -4 -4 h 8 8 z m 0,9 c 0,1.8 -0.7,2 -8,2 -7.3,0 -8,-0.2 -8,-2 0,-1.8 0.7,-2 8,-2 7.3,0 8,0.2 8,2 z m -3.7,5.7 c -2.4,0.2 -6.2,0.2 -8.5,0 -2.4,-0.2 -0.5,-0.4 4.2,-0.4 4.7,0 6.6,0.2 4.3,0.4 z m 3.7,3.3 c 0,0.6 -3.3,1 -8,1 -4.7,0 -8,-0.4 -8,-1 0,-0.6 3.3,-1 8,-1 4.7,0 8,0.4 8,1 z m -3.7,3.7 c -2.4,0.2 -6.2,0.2 -8.5,0 -2.4,-0.2 -0.5,-0.4 4.2,-0.4 4.7,0 6.6,0.2 4.3,0.4 z m 3.7,5.3 c 0,1.8 -0.7,2 -8,2 -7.3,0 -8,-0.2 -8,-2 0,-1.8 0.7,-2 8,-2 7.3,0 8,0.2 8,2 z m 0,9 v 4 h -8 -8 v -4 -4 h 8 8 z"
     id="path74"
     style="fill:#000000;stroke:none;stroke-width:0.1" />
  <path
     d="m 198.1,635.4 c -3.2,1.1 -6.4,4.1 -7.4,6.9 -0.3,0.8 -1.3,0.3 -2.9,-1.4 -4.6,-4.9 -12.5,-5 -17.1,-0.1 -7.1,7.4 -6,19.5 2.2,24.9 4.7,3.2 6.8,3 7.3,-0.7 0.4,-2.4 0,-3.1 -1.6,-3.6 -5.4,-1.7 -8.3,-6.9 -6.5,-12.1 1.5,-4.7 6.2,-6.6 11.4,-4.7 2,0.8 4.5,5.6 4.5,8.9 0,2.1 0.5,2.5 2.8,2.5 2.6,0 2.7,-0.2 2.4,-3.8 -0.7,-7.5 7,-12.8 14.3,-9.8 7.2,3 9.1,11.9 3.6,16.8 -1.7,1.5 -4,2.8 -5.1,2.8 -2.1,0 -2.4,1 -1.4,4.8 0.6,1.9 1.1,2.2 3.3,1.7 4,-1 9.2,-5.4 10.7,-9.1 2.8,-6.8 0.9,-15.9 -4.4,-20.7 -2.2,-2 -8.7,-4.6 -11.2,-4.6 -0.8,0 -3,0.6 -4.9,1.3 z"
     id="path76"
     style="fill:#000000;stroke:none;stroke-width:0.1" />
  <path
     d="m 307,653.5 v 4.5 h 5 c 3.8,0 5,0.4 5,1.5 0,1.1 -1.2,1.5 -5,1.5 h -5 v 4.5 c 0,4.5 0,4.5 3.5,4.5 1.9,0 3.5,-0.5 3.5,-1 0,-0.6 0.8,-1 1.7,-1 1.2,0 0.1,1.7 -3.5,5.3 -5,5.1 -5.2,5.4 -5.2,11 0,7.3 2.1,9.7 8.3,9.7 4.7,0 6.8,-1.5 8.6,-6 0.9,-2.2 1,-2.1 1,1.8 0.1,4.3 0.1,4.3 3.4,4 3.2,-0.3 3.2,-0.4 3.5,-5.9 0.3,-5 0,-5.9 -2.1,-7.6 l -2.4,-1.8 2.4,-1.8 c 2,-1.6 2.3,-2.6 2.3,-8.7 v -7 h -4 c -2.9,0 -4,-0.4 -4,-1.5 0,-1.1 1.1,-1.5 4,-1.5 h 4 v -4.5 c 0,-4.5 0,-4.5 -3.5,-4.5 -1.9,0 -3.5,0.4 -3.5,1 0,0.5 -2.5,1 -5.5,1 -3,0 -5.5,-0.5 -5.5,-1 0,-0.6 -1.6,-1 -3.5,-1 -3.5,0 -3.5,0 -3.5,4.5 z m 11.9,0.5 c 4.7,0 8.2,-0.5 8.9,-1.2 0.9,-0.9 1.2,-0.7 1.2,1 0,1.9 -0.5,2.2 -4.1,2.2 h -4 l 0.3,3.7 c 0.3,3.6 0.5,3.8 4.1,4.1 l 3.8,0.3 -0.3,5.2 -0.3,5.2 -3.9,0.3 c -2.1,0.2 -4.3,-0.1 -4.9,-0.7 -0.8,-0.8 -2.2,0 -4.9,2.6 -3.2,3.2 -3.8,4.3 -3.8,8 v 4.3 h 4 c 3.6,0 4,-0.3 4,-2.4 0,-3.1 2.4,-5.6 5.4,-5.6 3.3,0 4.6,1.9 4.5,6.4 l -0.2,4.1 -0.6,-4 c -0.5,-3.6 -0.9,-4 -3.8,-4.3 -3,-0.3 -3.3,-0.1 -3.3,2.5 0,3.7 -1.6,5.3 -5.5,5.3 -4.2,0 -5.5,-1.6 -5.5,-7 0,-4.1 0.5,-5 4.3,-8.8 4.5,-4.4 6.7,-5.3 6.7,-2.6 0,1.1 0.8,1.4 3.3,1.2 3,-0.3 3.2,-0.5 3.2,-4.3 v -4 l -7.3,-0.3 c -4.6,-0.2 -7.9,0.2 -8.8,0.9 -1.1,0.9 -1.4,0.8 -1.4,-0.4 0,-1.1 1.2,-1.7 4.3,-1.9 4.1,-0.3 4.2,-0.4 4.5,-4.1 l 0.3,-3.7 h -4.5 c -4.1,0 -4.6,-0.2 -4.5,-2.3 0,-1.2 0.3,-1.6 0.6,-1 0.3,0.9 2.9,1.3 8.2,1.3 z m 6.1,15.5 c 0,0.8 -0.2,1.5 -0.4,1.5 -0.2,0 -0.6,-0.7 -1,-1.5 -0.3,-0.8 -0.1,-1.5 0.4,-1.5 0.6,0 1,0.7 1,1.5 z m -6.6,11 c -1.3,1.3 -2.4,3.3 -2.4,4.5 0,1.1 -0.4,2 -1,2 -0.5,0 -1,-1.2 -1,-2.7 0,-3.1 3.6,-7.4 5.5,-6.7 0.9,0.4 0.6,1.2 -1.1,2.9 z"
     id="path78"
     style="fill:#000000;stroke:none;stroke-width:0.1" />
  <path
     d="m 166,680.4 v 3.6 h 20.8 c 23,0 25,0.5 26.6,5.8 1.2,4.4 -1.6,8.5 -6.5,9.2 -1.9,0.3 -3.4,1.1 -3.3,1.7 0.1,0.7 0.2,2.3 0.3,3.4 0.1,1.9 0.5,2.1 4.1,1.6 5.4,-0.7 8.8,-3.1 10.6,-7.2 3,-7.3 0.9,-15.5 -4.9,-19 -2.9,-1.8 -5.5,-2 -25.4,-2.3 L 166,676.9 Z"
     id="path80"
     style="fill:#000000;stroke:none;stroke-width:0.1" />
  <path
     d="m 300.5,725.9 c -4.7,1.2 -8.4,4 -10.6,8.2 -1.7,3.5 -1.9,6.1 -1.9,31.4 v 27.6 l 2.5,2.4 c 2,2.1 3.4,2.5 7.9,2.5 3.5,0 6,-0.5 7,-1.5 1,-1.1 3.6,-1.5 8.9,-1.5 5.4,0 7.8,0.4 8.7,1.5 0.8,1 3.1,1.5 6.9,1.5 4.7,0 6.1,-0.4 8,-2.4 2.2,-2.3 2.2,-2.5 1.9,-31.9 l -0.3,-29.6 -3.4,-3.5 c -2,-2.1 -5,-3.8 -7.7,-4.5 -4.7,-1.2 -23.1,-1.3 -27.9,-0.2 z m 23.2,2.7 c -0.3,0.3 -1.2,0.4 -1.9,0.1 -0.8,-0.3 -0.5,-0.6 0.6,-0.6 1.1,-0.1 1.7,0.2 1.3,0.5 z M 302,737 v 8 h -5.5 c -5.4,0 -5.5,0 -5.5,-2.9 0,-6.3 4.8,-13.1 9.3,-13.1 1.5,0 1.7,1 1.7,8 z m 19.8,-5.4 c 8.6,0.7 9.2,0.8 9.2,2.9 0,2.1 -0.5,2.2 -11,2.9 -6.1,0.4 -11.5,0.4 -12,0.1 -0.6,-0.3 -1,-1.9 -1,-3.6 0,-3.3 -0.2,-3.3 14.8,-2.3 z m 16,33.4 c 0,13.5 -0.3,25.4 -0.8,26.5 -0.5,1.2 -0.8,-10 -0.8,-27 0,-16 0.4,-27.9 0.8,-26.5 0.4,1.4 0.8,13.5 0.8,27 z M 331,746 v 6 h -3.5 c -3.1,0 -3.5,-0.3 -3.5,-2.7 0,-3.1 -2.6,-6.3 -5.2,-6.3 -2.3,0 -2.4,-1.7 0,-2.3 0.9,-0.3 4.1,-0.5 7,-0.6 L 331,740 Z m -10.2,23.8 0.2,23.3 -6.7,-0.3 -6.8,-0.3 -0.3,-21.3 c -0.1,-13.8 0.1,-22 0.8,-23.3 1,-1.7 2,-2 6.8,-1.7 l 5.7,0.3 z M 302,770 v 20 h -5.5 -5.5 v -7.9 c 0,-5.6 0.5,-8.8 1.7,-10.9 1.6,-2.8 1.6,-3.1 0,-5.5 -1.2,-1.8 -1.7,-4.7 -1.7,-9.2 V 750 h 5.5 5.5 z m 29,-12 c 0,2.8 -0.3,3 -3.5,3 -3.2,0 -3.5,-0.2 -3.5,-3 0,-2.8 0.3,-3 3.5,-3 3.2,0 3.5,0.2 3.5,3 z m 0,12 v 6 h -3.5 -3.5 v -6 -6 h 3.5 3.5 z m 0,11.5 c 0,2.2 -0.4,2.5 -3.5,2.5 -3.1,0 -3.5,-0.3 -3.5,-2.5 0,-2.2 0.4,-2.5 3.5,-2.5 3.1,0 3.5,0.3 3.5,2.5 z m 0,9.6 c 0,3.9 -0.1,4 -3.2,3.7 -3,-0.3 -3.3,-0.6 -3.6,-4.1 -0.3,-3.6 -0.3,-3.7 3.2,-3.7 3.5,0 3.6,0.1 3.6,4.1 z"
     id="path82"
     style="fill:#000000;stroke:none;stroke-width:0.1" />
  <path
     d="m 222.4,740.3 c -0.2,0.7 -0.3,11.8 -0.2,24.7 l 0.3,23.5 10.8,0.3 10.7,0.3 V 764 739 h -10.5 c -7.6,0 -10.7,0.4 -11.1,1.3 z M 241,746 v 4 h -8 -8 v -4 -4 h 8 8 z m 0,9 c 0,1.8 -0.7,2 -8,2 -7.3,0 -8,-0.2 -8,-2 0,-1.8 0.7,-2 8,-2 7.3,0 8,0.2 8,2 z m 0,9 c 0,0.6 -3.3,1 -8,1 -4.7,0 -8,-0.4 -8,-1 0,-0.6 3.3,-1 8,-1 4.7,0 8,0.4 8,1 z m -3.7,3.7 c -2.4,0.2 -6.2,0.2 -8.5,0 -2.4,-0.2 -0.5,-0.4 4.2,-0.4 4.7,0 6.6,0.2 4.3,0.4 z m 3.7,5.3 c 0,1.8 -0.7,2 -8,2 -7.3,0 -8,-0.2 -8,-2 0,-1.8 0.7,-2 8,-2 7.3,0 8,0.2 8,2 z m 0,9 v 4 h -8 -8 v -4 -4 h 8 8 z"
     id="path84"
     style="fill:#000000;stroke:none;stroke-width:0.1" />
  <path
     d="m 27.3,777.7 c -1.2,0.2 -3.4,1.8 -4.8,3.4 -4.1,5 -3,12 2.5,15.2 8.8,5.2 18.2,-4.1 13.9,-13.6 -1.6,-3.6 -6.9,-5.9 -11.6,-5 z m 4.5,7.5 c 1.7,1.7 1.5,4.5 -0.4,5.2 -1.8,0.7 -4.4,-1 -4.4,-2.8 0,-1.3 2,-3.6 3,-3.6 0.3,0 1.1,0.5 1.8,1.2 z"
     id="path86"
     style="fill:#000000;stroke:none;stroke-width:0.1" />
  <path
     d="m 109,1127.9 c -13.5,4.3 -24.3,12.7 -30.9,24 -5.3,9 -7.5,16.8 -7.5,27.1 0,41.4 44.6,66.4 80.7,45.3 15.8,-9.3 25.2,-26.1 25.2,-45.3 0,-24.2 -14.6,-43.7 -38.1,-51 -8.3,-2.5 -21.5,-2.6 -29.4,-0.1 z m 28.3,2.6 c 26.2,7.6 41.4,33.8 35.1,60.5 -5.2,22.4 -25.6,38.3 -48.9,38.3 -21.8,0 -40.7,-14 -48.1,-35.4 -2.6,-7.4 -2.6,-22.4 0,-29.8 5.7,-16.5 17.5,-28.1 34.1,-33.4 9,-2.9 18.2,-2.9 27.8,-0.2 z"
     id="path88"
     style="fill:#000000;stroke:none;stroke-width:0.1" />
</svg>
