<svg xmlns="http://www.w3.org/2000/svg" xml:space="preserve" id="Illustration" x="0" y="0" viewBox="0 0 226.8 141.7"><style>.st1{fill:#7f8c8d}.st2{fill:#008184}.st3{fill:#f26727}.st4{fill:#171e21}.st5{fill:#f1c40f}.st6{fill:#bcc3c4}.st7{fill:#9e846d}.st8{fill:#b5a290}.st9{fill:#d1c5ba}.st10{fill:#a38a74}.st13{fill:#fdf7dd}.st14{fill:#a9b2b3}.st15{fill:#acb4b5}.st16{fill:none}.st17{fill:#055963}.st18{fill:#02474f}.st19{fill:#80c0c2}</style><path d="M7.3 141.7h211.3c4.5 0 8.2-3.7 8.2-8.2V7.7c0-4.3-3.5-7.7-7.7-7.7H7.3C3.3 0 0 3.3 0 7.3v127.1c0 4.1 3.3 7.3 7.3 7.3M219.4 3.1c2.3 0 4.3 1.9 4.3 4.3s-1.9 4.3-4.3 4.3c-2.3 0-4.3-1.9-4.3-4.3.1-2.4 2-4.3 4.3-4.3m1 41.9c-1.8 0-3.2-1.4-3.2-3.2s1.4-3.2 3.2-3.2 3.2 1.4 3.2 3.2-1.4 3.2-3.2 3.2m3.2 54.9c0 1.8-1.4 3.2-3.2 3.2s-3.2-1.4-3.2-3.2 1.4-3.2 3.2-3.2 3.2 1.5 3.2 3.2m-4.2 29.8c2.3 0 4.3 1.9 4.3 4.3s-1.9 4.3-4.3 4.3-4.3-1.9-4.3-4.3 1.9-4.3 4.3-4.3M58.8 38.6c1.8 0 3.2 1.4 3.2 3.2S60.6 45 58.8 45s-3.2-1.4-3.2-3.2 1.5-3.2 3.2-3.2m0 58.1c1.8 0 3.2 1.4 3.2 3.2s-1.4 3.2-3.2 3.2-3.2-1.4-3.2-3.2c0-1.7 1.5-3.2 3.2-3.2M7.5 3.1c2.3 0 4.3 1.9 4.3 4.3s-1.9 4.3-4.3 4.3c-2.3 0-4.3-1.9-4.3-4.3.1-2.4 2-4.3 4.3-4.3m0 126.6c2.3 0 4.3 1.9 4.3 4.3s-1.9 4.3-4.3 4.3-4.3-1.9-4.3-4.3 1.9-4.3 4.3-4.3" style="fill:#007481"/><path d="M141.1 80.9v2.3h-2.3v-2.3zM143.6 80.9v2.3h-2.3v-2.3zM133.5 32h7.4v5.1h-7.4zM133.5 23.5h7.4v5.1h-7.4zM123.6 32h7.4v5.1h-7.4zM123.6 23.5h7.4v5.1h-7.4zM201.9 89.8V92h-2.3v-2.3zc0-.1 0 0 0 0M199.4 89.8V92h-2.3v-2.3zc-.1-.1 0 0 0 0M75.3 23.8h8.5v5.1h-8.5zM87.5 23.8H96v5.1h-8.5zM172.4 46.9v2.3h-2.3v-2.3zM172.4 49.5v2.3h-2.3v-2.3zc0-.1 0 0 0 0M169.6 46.9v2.3h-2.3v-2.3zM169.6 49.5v2.3h-2.3v-2.3zc0-.1 0 0 0 0M205.9 95.8v2.3h-2.3v-2.3zc-.1 0 0 0 0 0M205.9 98.4v2.3h-2.3v-2.3zc-.1-.1 0-.1 0 0M170.7 92.7V95h-2.3v-2.3zM168.2 92.7V95h-2.3v-2.3zM196 58.6v2.3h-2.3v-2.3zM193.5 58.6v2.3h-2.3v-2.3zc-.1 0 0 0 0 0M169.4 85.9v2.3h-2.3v-2.3zM169.4 83.4v2.3h-2.3v-2.3zc0-.1 0 0 0 0M183.3 83.9v2.3H181v-2.3zM180.7 83.9v2.3h-2.3v-2.3zM75.3 112.9h8.5v5.1h-8.5zM87.5 112.9H96v5.1h-8.5zM166.3 118.1v2.3H164v-2.3zq0-.15 0 0M166.3 115.5v2.3H164v-2.3zM145 115.6v2.3h-2.3v-2.3zc0-.1 0 0 0 0M145 118.1v2.3h-2.3v-2.3zM145.1 21v2.3h-2.3V21zq0-.15 0 0M145.1 23.5v2.3h-2.3v-2.3zM155.1 23.7V26h-2.3v-2.3zc0-.1 0 0 0 0M155.1 21.1v2.3h-2.3v-2.3zM187.8 55.6v2.3h-2.3v-2.3zq0-.15 0 0M190.4 55.6v2.3h-2.3v-2.3zq0-.15 0 0M105.2 79.9v2.3h-2.3v-2.3zc-.1 0 0 0 0 0M102.6 79.9v2.3h-2.3v-2.3zM119.7 82v2.3h-2.3V82zc0-.1 0 0 0 0M122.3 82v2.3H120V82zc0-.1 0 0 0 0M146.7 80.8V83h-2.3v-2.3zM149.3 80.8V83H147v-2.3zM13.2 92.5v2.3h-2.3v-2.3zM10.7 92.5v2.3H8.4v-2.3zM100.7 23.8h8.5v5.1h-8.5zM112.8 23.8h8.5v5.1h-8.5zM220.4 48.2v2.3h-2.3v-2.3zM220.4 50.8V53h-2.3v-2.3zc0-.1 0 0 0 0M159.7 114.7v3.7c0 .3-.2.5-.5.5h-4.7c-.3 0-.5-.2-.5-.5v-3.7c0-.3.2-.5.5-.5h4.7c.3 0 .5.2.5.5M159.7 106.8v3.7c0 .3-.2.5-.5.5h-4.7c-.3 0-.5-.2-.5-.5v-3.7c0-.3.2-.5.5-.5h4.7c.3 0 .5.2.5.5M153.5 114.7v3.7c0 .3-.2.5-.5.5h-4.7c-.3 0-.5-.2-.5-.5v-3.7c0-.3.2-.5.5-.5h4.7c.3 0 .5.3.5.5M153.5 106.8v3.7c0 .3-.2.5-.5.5h-4.7c-.3 0-.5-.2-.5-.5v-3.7c0-.3.2-.5.5-.5h4.7c.3 0 .5.2.5.5M99.7 112.9h8.5v5.1h-8.5zM111.9 112.9h8.5v5.1h-8.5zM30.4 68.6v2.3h-2.3v-2.3zM33 68.6v2.3h-2.3v-2.3zM31.1 38.9v3.7c0 .3-.2.5-.5.5h-4.7c-.3 0-.5-.2-.5-.5v-3.7c0-.3.2-.5.5-.5h4.7c.3 0 .5.2.5.5M31.1 46.8v3.7c0 .3-.2.5-.5.5h-4.7c-.3 0-.5-.2-.5-.5v-3.7c0-.3.2-.5.5-.5h4.7c.3 0 .5.2.5.5M47.5 47.3v4.6h-3.2v-4.6zM53.2 47.3v4.6H50v-4.6zM53.1 41.2v4.6h-3.2v-4.6zc0-.1 0 0 0 0M47.5 41.2v4.6h-3.2v-4.6zc-.1-.1 0 0 0 0M33.8 48.2h6v4h-6zM33.8 35.7h6v4h-6zM65.4 12.5c1.3 0 2.4-1.1 2.4-2.4s-1.1-2.4-2.4-2.4c-1.4-.1-2.4 1-2.4 2.4 0 1.3 1 2.4 2.4 2.4M58.2 12.5c1.3 0 2.4-1.1 2.4-2.4s-1.1-2.4-2.4-2.4-2.4 1.1-2.4 2.4 1 2.4 2.4 2.4M51 12.5c1.3 0 2.4-1.1 2.4-2.4S52.3 7.6 51 7.6s-2.4 1.1-2.4 2.4c0 1.4 1 2.5 2.4 2.5M50.9 129.3c-1.3 0-2.4 1.1-2.4 2.4s1.1 2.4 2.4 2.4 2.4-1.1 2.4-2.4c.1-1.3-1-2.4-2.4-2.4" class="st1"/><circle cx="58.1" cy="131.7" r="2.4" class="st1"/><path d="M65.3 129.3c-1.3 0-2.4 1.1-2.4 2.4s1.1 2.4 2.4 2.4 2.4-1.1 2.4-2.4c.1-1.3-1-2.4-2.4-2.4M35.6 12.5c1.3 0 2.4-1.1 2.4-2.4s-1.1-2.4-2.4-2.4-2.4 1.1-2.4 2.4c-.1 1.3 1 2.3 2.4 2.4M28.4 12.5c1.3 0 2.4-1.1 2.4-2.4s-1.1-2.4-2.4-2.4S26 8.8 26 10.1c-.1 1.3 1 2.3 2.4 2.4M21.2 12.5c1.3 0 2.4-1.1 2.4-2.4s-1.1-2.4-2.4-2.4-2.4 1.1-2.4 2.4c-.1 1.3 1 2.3 2.4 2.4M21.2 129.3c-1.3 0-2.4 1.1-2.4 2.4s1.1 2.4 2.4 2.4 2.4-1.1 2.4-2.4-1.1-2.4-2.4-2.4M28.4 129.3c-1.3 0-2.4 1.1-2.4 2.4s1.1 2.4 2.4 2.4 2.4-1.1 2.4-2.4-1.1-2.4-2.4-2.4M35.6 129.3c-1.3 0-2.4 1.1-2.4 2.4s1.1 2.4 2.4 2.4 2.4-1.1 2.4-2.4-1.1-2.4-2.4-2.4M34.7 13.3H39v4.3h-4.3zM29.1 15.5c0 1.2 1 2.1 2.1 2.1 1.2 0 2.1-1 2.1-2.1 0-1.2-1-2.1-2.1-2.1-1.2-.1-2.1.9-2.1 2.1M25.5 17.6c1.2 0 2.1-1 2.1-2.1s-1-2.1-2.1-2.1-2.1 1-2.1 2.1c0 1.2 1 2.1 2.1 2.1M19.9 17.6c1.2 0 2.1-1 2.1-2.1s-1-2.1-2.1-2.1c-1.2 0-2.1 1-2.1 2.1-.1 1.2.9 2.1 2.1 2.1M64.6 13.3h4.3v4.3h-4.3zM58.9 15.5c0 1.2 1 2.1 2.1 2.1s2.1-1 2.1-2.1c0-1.2-1-2.1-2.1-2.1-1.2-.1-2.1.9-2.1 2.1M55.4 17.6c1.2 0 2.1-1 2.1-2.1s-1-2.1-2.1-2.1-2.1 1-2.1 2.1c-.1 1.2.9 2.1 2.1 2.1M49.7 17.6c1.2 0 2.1-1 2.1-2.1s-1-2.1-2.1-2.1-2.1 1-2.1 2.1c0 1.2.9 2.1 2.1 2.1M17.7 124.2H22v4.3h-4.3zM27.7 126.4c0-1.2-1-2.1-2.1-2.1-1.2 0-2.1 1-2.1 2.1 0 1.2 1 2.1 2.1 2.1s2.1-1 2.1-2.1M31.2 124.2c-1.2 0-2.1 1-2.1 2.1s1 2.1 2.1 2.1 2.1-1 2.1-2.1-.9-2.1-2.1-2.1M36.9 124.2c-1.2 0-2.1 1-2.1 2.1s1 2.1 2.1 2.1 2.1-1 2.1-2.1-.9-2.1-2.1-2.1M47.5 124.2h4.3v4.3h-4.3zM57.4 126.3c0-1.2-1-2.1-2.1-2.1s-2.1 1-2.1 2.1c0 1.2 1 2.1 2.1 2.1 1.2.1 2.1-.9 2.1-2.1M61 124.2c-1.2 0-2.1 1-2.1 2.1s1 2.1 2.1 2.1 2.1-1 2.1-2.1-.9-2.1-2.1-2.1M66.6 124.2c-1.2 0-2.1 1-2.1 2.1s1 2.1 2.1 2.1 2.1-1 2.1-2.1c.1-1.1-.9-2.1-2.1-2.1M6.4 23c.3.3.7.4 1 .4h1.2c.4 0 .8-.2 1-.4l.9-.9c.3-.3.4-.7.4-1v-1.2c0-.4-.2-.8-.4-1l-.8-.9c-.3-.3-.7-.4-1-.4H7.5c-.4 0-.8.2-1 .4l-.9.9c-.3.3-.4.6-.4 1v1.2c0 .4.2.8.4 1zM5.6 29.4l.9.9c.3.3.7.4 1 .4h1.2c.4 0 .8-.2 1-.4l.9-.9c.3-.3.4-.7.4-1v-1.2c0-.4-.2-.8-.4-1l-.9-.9c-.3-.3-.7-.4-1-.4H7.5c-.4 0-.8.2-1 .4l-.9.9c-.3.3-.4.6-.4 1v1.2c-.1.3.1.7.4 1M36.6 54.4h6v15h-6zM48.5 54.4h6v15h-6zM34.5 30.8h.3v1.6h-.3zM34.5 29h.3v1.6h-.3zM34.5 27.1h.3v1.6h-.3zM34.5 25.3h.3v1.6h-.3zM29 32.9h1.8v.7H29zM29 23.9h1.8v.5H29zM24.9 25h.5v7.5h-.5z" class="st1"/><path d="M25.4 32.9v-8.5h8.5l.6.6v7.9z" class="st2"/><path d="M25.4 32.9v-8.5h8.5l.6.6v7.9z" class="st3"/><path d="M25.4 32.9v-8.5h8.5l.6.6v7.9z" class="st4"/><path d="M14 25.2h.6v1.6H14zM14 27h.6v1.6H14zM14 28.8h.6v1.6H14zM14 30.7h.6v1.6H14zM23.7 25h.3v7.5h-.3zM18.1 32.9h1.8v.7h-1.8zM18.1 23.9h1.8v.5h-1.8z" class="st1"/><path d="M14.6 32.9v-8.5h8.5l.6.6v7.9z" class="st2"/><path d="M14.6 32.9v-8.5h8.5l.6.6v7.9z" class="st3"/><path d="M14.6 32.9v-8.5h8.5l.6.6v7.9z" class="st4"/><path d="M19.9 107.5v2.3h-2.3v-2.3zM19.9 105v2.3h-2.3V105zc0-.1 0 0 0 0M128.5 76.1v2.3h-2.3v-2.3zM128.5 78.7V81h-2.3v-2.3zM149.4 83.8V86h-2.3v-2.3zc0-.1 0 0 0 0M149.4 86.3v2.3h-2.3v-2.3zM163.5 115.5v2.3h-2.3v-2.3zM163.5 118.1v2.3h-2.3v-2.3zq0-.15 0 0M142.2 115.6v2.3h-2.3v-2.3zM142.2 118.2v2.3h-2.3v-2.3zq0-.15 0 0M148.1 23.5v2.3h-2.3v-2.3zM148.1 21v2.3h-2.3V21zc0-.1 0 0 0 0M157.9 23.7V26h-2.3v-2.3zc0-.1 0 0 0 0M157.9 21.1v2.3h-2.3v-2.3zM146.6 86.3v2.3h-2.3v-2.3zM146.6 83.8V86h-2.3v-2.3zc0-.1 0 0 0 0M105.2 82.7V85h-2.3v-2.3zc-.1 0 0 0 0 0M102.6 82.7V85h-2.3v-2.3zM221.7 25.8v2.3h-2.3v-2.3zM219.1 25.8v2.3h-2.3v-2.3zM164.5 88.4v2.3h-2.3v-2.3zq0-.15 0 0M164.5 90.9v2.3h-2.3v-2.3zM202.1 77.4v2.3h-2.3v-2.3zq0-.15 0 0M202.1 74.8v2.3h-2.3v-2.3zM220.4 65.6v2.3h-2.3v-2.3zM220.4 63.1v2.3h-2.3v-2.3zc0-.1 0 0 0 0M156.3 88.4v2.3H154v-2.3zq0-.15 0 0M158.8 88.4v2.3h-2.3v-2.3zq0-.15 0 0M169.2 105.1v2.3h-2.3v-2.3zM171.7 105.1v2.3h-2.3v-2.3zM198.9 30.4v2.3h-2.3v-2.3zq0-.15 0 0M198.9 32.9v2.3h-2.3v-2.3zM71.6 91.5v2.3h-2.3v-2.3zM74.1 91.5v2.3h-2.3v-2.3zM172.1 85.9v2.3h-2.3v-2.3zM172.1 83.4v2.3h-2.3v-2.3zc0-.1 0 0 0 0M196 55.8v2.3h-2.3v-2.3zM193.5 55.8v2.3h-2.3v-2.3zc-.1 0 0 0 0 0M19.9 111.8v2.3h-2.3v-2.3zM19.9 114.4v2.3h-2.3v-2.3zc0-.1 0 0 0 0M138.2 89.3v2.3h-2.3v-2.3zM135.7 89.3v2.3h-2.3v-2.3zM221.1 23.1v-.4l.1-.1h.1l.1-.1h.1l.1-.1v-.6h.9v2h-.9v-.2h-.1l-.1-.1h-.1l-.1-.1-.1-.1v-.1zM221.1 20.8v-.3l.1-.1.1-.1.1-.1h.2v-.6h.9v1.9h-.9v-.2h-.2l-.1-.1-.1-.1-.1-.1v-.1zM221.1 18.5v-.3l.1-.1.1-.1.1-.1h.2v-.6h.9v2h-.9V19h-.2l-.1-.1-.1-.1h-.1v-.2zM220.1 15.2V15h2.4v2h-.9v-.2l-.1-.1h-.1l-.1-.1h-.1l-.1-.1v-.6l.1-.1.1-.1h.1l.1-.1h.1v-.4zM216.3 17v-2h2.4v.2h-1.3v.4h.1l.1.1h.1l.1.1.1.1v.6l-.1.1h-.1l-.1.1h-.1l-.1.1v.2zM216.3 19.3v-2h1.1v.6h.2l.1.1.1.1.1.1v.6h-.1l-.1.1-.1.1h-.2v.3zM216.3 21.5v-1.9h1.1v.6h.2l.1.1.1.1.1.1v.5l-.1.1-.1.1-.1.1h-.2v.2zM216.3 23.8v-2h1.1v.6l.1.1h.1l.1.1h.1l.1.1v.6l-.1.1-.1.1h-.1l-.1.1h-.1v.2z" class="st1"/><g id="LWPOLYLINE"><path d="M217.4 15.2h4.2v.4h-.1l-.1.1h-.1l-.1.1-.1.1v.6l.1.1.1.1h.2l.1.1v1.1h-.2l-.1.1-.1.1-.1.1v.6h.1l.1.1.1.1h.2v1.2h-.2l-.1.1-.1.1-.1.1v.5l.1.1.1.1.1.1h.2v1.1l-.1.1h-.1l-.1.1h-.1l-.1.1v.6l.1.1.1.1h.1l.1.1h.1v.4h-4.2v-.4h.1l.1-.1h.1l.1-.1.1-.1v-.6l-.1-.1h-.1l-.1-.1h-.1l-.1-.1v-1.1h.2l.1-.1.1-.1.1-.1v-.5l-.1-.1-.1-.1-.1-.1h-.2V19h.2l.1-.1.1-.1h.1v-.6l-.1-.1-.1-.1-.1-.1h-.2v-1.1l.1-.1h.2l.1-.1.1-.1v-.6l-.1-.1-.1-.1h-.1l-.1-.1h-.1z" class="st5"/><path d="M217.4 15.2h4.2v.4h-.1l-.1.1h-.1l-.1.1-.1.1v.6l.1.1.1.1h.2l.1.1v1.1h-.2l-.1.1-.1.1-.1.1v.6h.1l.1.1.1.1h.2v1.2h-.2l-.1.1-.1.1-.1.1v.5l.1.1.1.1.1.1h.2v1.1l-.1.1h-.1l-.1.1h-.1l-.1.1v.6l.1.1.1.1h.1l.1.1h.1v.4h-4.2v-.4h.1l.1-.1h.1l.1-.1.1-.1v-.6l-.1-.1h-.1l-.1-.1h-.1l-.1-.1v-1.1h.2l.1-.1.1-.1.1-.1v-.5l-.1-.1-.1-.1-.1-.1h-.2V19h.2l.1-.1.1-.1h.1v-.6l-.1-.1-.1-.1-.1-.1h-.2v-1.1l.1-.1h.2l.1-.1.1-.1v-.6l-.1-.1-.1-.1h-.1l-.1-.1h-.1z" class="st2"/><path d="M217.4 15.2h4.2v.4h-.1l-.1.1h-.1l-.1.1-.1.1v.6l.1.1.1.1h.2l.1.1v1.1h-.2l-.1.1-.1.1-.1.1v.6h.1l.1.1.1.1h.2v1.2h-.2l-.1.1-.1.1-.1.1v.5l.1.1.1.1.1.1h.2v1.1l-.1.1h-.1l-.1.1h-.1l-.1.1v.6l.1.1.1.1h.1l.1.1h.1v.4h-4.2v-.4h.1l.1-.1h.1l.1-.1.1-.1v-.6l-.1-.1h-.1l-.1-.1h-.1l-.1-.1v-1.1h.2l.1-.1.1-.1.1-.1v-.5l-.1-.1-.1-.1-.1-.1h-.2V19h.2l.1-.1.1-.1h.1v-.6l-.1-.1-.1-.1-.1-.1h-.2v-1.1l.1-.1h.2l.1-.1.1-.1v-.6l-.1-.1-.1-.1h-.1l-.1-.1h-.1z" class="st3"/><path d="M217.4 15.2h4.2v.4h-.1l-.1.1h-.1l-.1.1-.1.1v.6l.1.1.1.1h.2l.1.1v1.1h-.2l-.1.1-.1.1-.1.1v.6h.1l.1.1.1.1h.2v1.2h-.2l-.1.1-.1.1-.1.1v.5l.1.1.1.1.1.1h.2v1.1l-.1.1h-.1l-.1.1h-.1l-.1.1v.6l.1.1.1.1h.1l.1.1h.1v.4h-4.2v-.4h.1l.1-.1h.1l.1-.1.1-.1v-.6l-.1-.1h-.1l-.1-.1h-.1l-.1-.1v-1.1h.2l.1-.1.1-.1.1-.1v-.5l-.1-.1-.1-.1-.1-.1h-.2V19h.2l.1-.1.1-.1h.1v-.6l-.1-.1-.1-.1-.1-.1h-.2v-1.1l.1-.1h.2l.1-.1.1-.1v-.6l-.1-.1-.1-.1h-.1l-.1-.1h-.1z" class="st4"/></g><path d="M121.8 12.5c1.3 0 2.4-1.1 2.4-2.4s-1.1-2.4-2.4-2.4-2.4 1.1-2.4 2.4c-.1 1.3 1 2.3 2.4 2.4M114.6 12.5c1.3 0 2.4-1.1 2.4-2.4s-1.1-2.4-2.4-2.4-2.4 1.1-2.4 2.4c-.1 1.3 1 2.3 2.4 2.4M107.4 12.5c1.3 0 2.4-1.1 2.4-2.4s-1.1-2.4-2.4-2.4-2.4 1.1-2.4 2.4c-.1 1.3 1 2.3 2.4 2.4M107.3 129.3c-1.3 0-2.4 1.1-2.4 2.4s1.1 2.4 2.4 2.4 2.4-1.1 2.4-2.4c.1-1.3-1-2.4-2.4-2.4M114.5 129.3c-1.3 0-2.4 1.1-2.4 2.4s1.1 2.4 2.4 2.4 2.4-1.1 2.4-2.4c.1-1.3-1-2.4-2.4-2.4M121.7 129.3c-1.3 0-2.4 1.1-2.4 2.4s1.1 2.4 2.4 2.4 2.4-1.1 2.4-2.4c.1-1.3-1-2.4-2.4-2.4M93.7 12.5c1.3 0 2.4-1.1 2.4-2.4S95 7.7 93.7 7.7s-2.4 1.1-2.4 2.4 1.1 2.4 2.4 2.4M86.5 12.5c1.3 0 2.4-1.1 2.4-2.4s-1.1-2.4-2.4-2.4-2.4 1.1-2.4 2.4 1.1 2.4 2.4 2.4M79.3 12.5c1.3 0 2.4-1.1 2.4-2.4s-1.1-2.4-2.4-2.4-2.4 1.1-2.4 2.4 1.1 2.4 2.4 2.4" class="st1"/><circle cx="79.3" cy="131.7" r="2.4" class="st1"/><circle cx="86.5" cy="131.7" r="2.4" class="st1"/><circle cx="93.7" cy="131.7" r="2.4" class="st1"/><path d="M38.7 75.6h-4.9c-1.3 0-2.4 1.1-2.4 2.4s1.1 2.4 2.4 2.4h4.9c1.3 0 2.4-1.1 2.4-2.4s-1.1-2.4-2.4-2.4M39.5 82.9c-.3-.1-.5-.2-.8-.2h-4.9c-.3 0-.6.1-.8.2-1.3.4-1.9 1.8-1.5 3.1.3 1 1.3 1.6 2.3 1.6h4.9c1.3 0 2.4-1.1 2.4-2.4 0-1-.6-1.9-1.6-2.3M38.7 90h-4.9c-1.3 0-2.4 1.1-2.4 2.4s1.1 2.4 2.4 2.4h4.9c1.3 0 2.4-1.1 2.4-2.4S40 90 38.7 90M38.7 97.2h-4.9c-1.3 0-2.4 1.1-2.4 2.4s1.1 2.4 2.4 2.4h4.9c1.3 0 2.4-1.1 2.4-2.4s-1.1-2.4-2.4-2.4M106.4 39.6c-1.3 0-2.4 1.1-2.4 2.4s1.1 2.4 2.4 2.4 2.4-1.1 2.4-2.4c.1-1.3-1-2.4-2.4-2.4M99.2 44.5c1.3 0 2.4-1.1 2.4-2.4s-1.1-2.4-2.4-2.4-2.4 1.1-2.4 2.4 1.1 2.4 2.4 2.4M92 39.6c-1.3 0-2.4 1.1-2.4 2.4s1.1 2.4 2.4 2.4 2.4-1.1 2.4-2.4c.1-1.3-1-2.4-2.4-2.4M84.8 39.6c-1.3 0-2.4 1.1-2.4 2.4s1.1 2.4 2.4 2.4 2.4-1.1 2.4-2.4c.1-1.3-1-2.4-2.4-2.4M77.6 44.5c1.3 0 2.4-1.1 2.4-2.4s-1.1-2.4-2.4-2.4-2.4 1.1-2.4 2.4 1.1 2.4 2.4 2.4M68 42.1c0 1.3 1.1 2.4 2.4 2.4s2.4-1.1 2.4-2.4-1.1-2.4-2.4-2.4c-1.3-.1-2.4 1-2.4 2.4M164 102.1c1.3 0 2.4-1.1 2.4-2.4s-1.1-2.4-2.4-2.4-2.4 1.1-2.4 2.4 1.1 2.4 2.4 2.4M68 97.2h4.9v4.9H68zM77.6 102.1c1.3 0 2.4-1.1 2.4-2.4s-1.1-2.4-2.4-2.4-2.4 1.1-2.4 2.4 1.1 2.4 2.4 2.4M87.3 99.7c0-1.3-1.1-2.4-2.4-2.4s-2.4 1.1-2.4 2.4 1.1 2.4 2.4 2.4 2.4-1.1 2.4-2.4M92 97.2c-1.3 0-2.4 1.1-2.4 2.4s1.1 2.4 2.4 2.4 2.4-1.1 2.4-2.4c.1-1.3-1-2.4-2.4-2.4M99.2 102.1c1.3 0 2.4-1.1 2.4-2.4s-1.1-2.4-2.4-2.4-2.4 1.1-2.4 2.4 1.1 2.4 2.4 2.4M106.4 102.1c1.3 0 2.4-1.1 2.4-2.4s-1.1-2.4-2.4-2.4-2.4 1.1-2.4 2.4 1.1 2.4 2.4 2.4M113.6 102.1c1.3 0 2.4-1.1 2.4-2.4s-1.1-2.4-2.4-2.4-2.4 1.1-2.4 2.4 1.1 2.4 2.4 2.4M120.8 102.1c1.3 0 2.4-1.1 2.4-2.4s-1.1-2.4-2.4-2.4-2.4 1.1-2.4 2.4 1.1 2.4 2.4 2.4M128 97.2c-1.3 0-2.4 1.1-2.4 2.4s1.1 2.4 2.4 2.4 2.4-1.1 2.4-2.4c.1-1.3-1-2.4-2.4-2.4M154.4 42.1c0 1.3 1.1 2.4 2.4 2.4s2.4-1.1 2.4-2.4-1.1-2.4-2.4-2.4c-1.3-.1-2.4 1-2.4 2.4M147.2 42.1c0 1.3 1.1 2.4 2.4 2.4s2.4-1.1 2.4-2.4-1.1-2.4-2.4-2.4c-1.3-.1-2.4 1-2.4 2.4M140 42.1c0 1.3 1.1 2.4 2.4 2.4s2.4-1.1 2.4-2.4-1.1-2.4-2.4-2.4c-1.3-.1-2.4 1-2.4 2.4M135.2 44.5c1.3 0 2.4-1.1 2.4-2.4s-1.1-2.4-2.4-2.4-2.4 1.1-2.4 2.4 1.1 2.4 2.4 2.4M130.5 42.1c0-1.3-1.1-2.4-2.4-2.4s-2.4 1.1-2.4 2.4 1.1 2.4 2.4 2.4 2.4-1.1 2.4-2.4M120.8 39.6c-1.3 0-2.4 1.1-2.4 2.4s1.1 2.4 2.4 2.4 2.4-1.1 2.4-2.4c.1-1.3-1-2.4-2.4-2.4M113.6 44.5c1.3 0 2.4-1.1 2.4-2.4s-1.1-2.4-2.4-2.4-2.4 1.1-2.4 2.4 1.1 2.4 2.4 2.4M140 99.7c0 1.3 1.1 2.4 2.4 2.4s2.4-1.1 2.4-2.4-1.1-2.4-2.4-2.4c-1.3-.1-2.4 1-2.4 2.4M137.7 99.7c0-1.3-1.1-2.4-2.4-2.4s-2.4 1.1-2.4 2.4 1.1 2.4 2.4 2.4 2.4-1.1 2.4-2.4M149.6 102.1c1.3 0 2.4-1.1 2.4-2.4s-1.1-2.4-2.4-2.4-2.4 1.1-2.4 2.4 1.1 2.4 2.4 2.4M154.4 99.7c0 1.3 1.1 2.4 2.4 2.4s2.4-1.1 2.4-2.4-1.1-2.4-2.4-2.4c-1.3-.1-2.4 1-2.4 2.4M11 110.9h5.1v4H11zM11 103.8h5.1v4H11zM11 96.7h5.1v4H11zM3.7 110.9h5.1v4H3.7zM3.7 103.8h5.1v4H3.7zM3.7 96.7h5.1v4H3.7zM116.6 77.2h3.4v1.4h-3.4zM116.6 75.4h3.4v1.4h-3.4zM116.6 73.5h3.4v1.4h-3.4zM116.6 71.7h3.4v1.4h-3.4zM116.6 69.9h3.4v1.4h-3.4zM116.6 68h3.4v1.4h-3.4zM116.6 66.2h3.4v1.4h-3.4zM116.6 64.3h3.4v1.4h-3.4zM116.6 62.5h3.4v1.4h-3.4zM116.6 60.6h3.4V62h-3.4zM100 60.6h3.4V62H100zM100 62.5h3.4v1.4H100zM100 64.3h3.4v1.4H100zM100 66.2h3.4v1.4H100zM100 68h3.4v1.4H100zM100 69.9h3.4v1.4H100zM100 71.7h3.4v1.4H100zM100 73.5h3.4v1.4H100zM100 75.4h3.4v1.4H100zM100 77.2h3.4v1.4H100zM34.9 61.3h.4v1.1h-.4zM34.9 59.9h.4V61h-.4zM34.9 58.5h.4v1.1h-.4zM34.9 57.1h.4v1.1h-.4zM31.5 64.8h1.1v.4h-1.1zM31.5 54.4h1.1v.4h-1.1zM30.1 64.8h1.1v.4h-1.1zM30.1 54.4h1.1v.4h-1.1zM28.7 64.8h1.1v.4h-1.1zM28.7 54.4h1.1v.4h-1.1zM27.3 64.8h1.1v.4h-1.1zM27.3 54.4h1.1v.4h-1.1zM24.6 61.3h.4v1.1h-.4zM24.6 59.9h.4V61h-.4zM24.6 58.5h.4v1.1h-.4zM24.6 57.1h.4v1.1h-.4z" class="st1"/><path d="M25 64.8v-10h9.3l.6.7v9.3z" class="st2"/><path d="M25 64.8v-10h9.3l.6.7v9.3z" class="st3"/><path d="M25 64.8v-10h9.3l.6.7v9.3z" class="st4"/><path d="M21.2 46.2c.9 0 1.7-.8 1.7-1.7s-.8-1.7-1.7-1.7-1.7.8-1.7 1.7.7 1.7 1.7 1.7" class="st1"/><circle cx="37.1" cy="30" r="1.7" class="st1"/><path d="M155.7 117.4h2.4c.7 0 1.2-.6 1.2-1.3v-.6h-4.9v.6c0 .6.6 1.2 1.3 1.3M159.3 109.4c0-.7-.5-1.3-1.2-1.3h-2.4c-.7 0-1.2.6-1.2 1.3v.4h4.9v-.4z" class="st6"/><path d="M154.5 109.8h4.9v5.6h-4.9z" class="st5"/><path d="M154.5 109.8h4.9v5.6h-4.9z" class="st3"/><path d="M154.5 109.8h4.9v5.6h-4.9z" class="st4"/><path d="M149.4 117.4h2.4c.7 0 1.2-.6 1.2-1.3v-.6h-4.9v.6c.1.6.6 1.2 1.3 1.3M153.1 109.4c0-.7-.5-1.3-1.2-1.3h-2.4c-.7 0-1.2.6-1.2 1.3v.4h4.9v-.4z" class="st6"/><path d="M148.2 109.8h4.9v5.6h-4.9z" class="st5"/><path d="M148.2 109.8h4.9v5.6h-4.9z" class="st3"/><path d="M148.2 109.8h4.9v5.6h-4.9z" class="st4"/><path d="M27 49.1h2.4c.7 0 1.2-.6 1.2-1.3v-.6h-4.9v.6c.1.7.6 1.3 1.3 1.3M30.7 41.2c0-.7-.5-1.3-1.2-1.3H27c-.7 0-1.2.6-1.2 1.3v.4h4.9z" class="st6"/><path d="M25.8 41.5h4.9v5.6h-4.9z" class="st2"/><path d="M25.8 41.5h4.9v5.6h-4.9z" class="st3"/><path d="M25.8 41.5h4.9v5.6h-4.9z" class="st4"/><path d="M44.8 48.5v2.1c0 .6.5 1.1 1.1 1h.5v-4.1h-.5c-.6-.1-1.1.4-1.1 1M51.5 51.6c.6 0 1.1-.4 1.1-1v-2.1c0-.6-.5-1.1-1.1-1h-.3v4.1z" class="st6"/><path d="M46.5 47.5h4.8v4.1h-4.8z" class="st2"/><path d="M46.5 47.5h4.8v4.1h-4.8z" class="st3"/><path d="M46.5 47.5h4.8v4.1h-4.8z" class="st4"/><path d="M44.8 42.4v2.1c0 .6.5 1.1 1.1 1h.5v-4.1h-.5c-.6-.1-1.1.4-1.1 1M51.5 45.5c.6 0 1.1-.4 1.1-1v-2.1c0-.6-.5-1.1-1.1-1h-.3v4.1z" class="st6"/><path d="M46.5 41.4h4.8v4.1h-4.8z" class="st2"/><path d="M46.5 41.4h4.8v4.1h-4.8z" class="st3"/><path d="M46.5 41.4h4.8v4.1h-4.8z" class="st4"/><path d="M10.2 17.2q-.15 0 0 0L6 17.1v.1l-1.2 1.2q-.3.3-.3.6v3c0 .2.1.5.3.6L6 23.9c.1.1.1.4 0 .5l-1.2 1.2q-.3.3-.3.6V29c0 .2.1.5.3.6L6 31q.3.3.6.3h2.9c.2 0 .5-.1.6-.3l1.2-1.2q.3-.3.3-.6v-2.8c0-.2-.1-.5-.3-.6l-1.2-1.2c-.1-.1-.1-.4 0-.5l1.2-1.2q.3-.3.3-.6v-2.8c0-.2-.1-.5-.3-.6z" class="st2"/><path d="M10.2 17.2q-.15 0 0 0L6 17.1v.1l-1.2 1.2q-.3.3-.3.6v3c0 .2.1.5.3.6L6 23.9c.1.1.1.4 0 .5l-1.2 1.2q-.3.3-.3.6V29c0 .2.1.5.3.6L6 31q.3.3.6.3h2.9c.2 0 .5-.1.6-.3l1.2-1.2q.3-.3.3-.6v-2.8c0-.2-.1-.5-.3-.6l-1.2-1.2c-.1-.1-.1-.4 0-.5l1.2-1.2q.3-.3.3-.6v-2.8c0-.2-.1-.5-.3-.6z" class="st3"/><path d="M10.2 17.2q-.15 0 0 0L6 17.1v.1l-1.2 1.2q-.3.3-.3.6v3c0 .2.1.5.3.6L6 23.9c.1.1.1.4 0 .5l-1.2 1.2q-.3.3-.3.6V29c0 .2.1.5.3.6L6 31q.3.3.6.3h2.9c.2 0 .5-.1.6-.3l1.2-1.2q.3-.3.3-.6v-2.8c0-.2-.1-.5-.3-.6l-1.2-1.2c-.1-.1-.1-.4 0-.5l1.2-1.2q.3-.3.3-.6v-2.8c0-.2-.1-.5-.3-.6z" class="st4"/><path d="M9.6 26.3H6.9l1.3 1.4z" class="st7"/><path d="m6.9 29 1.3-1.3-1.3-1.4z" class="st8"/><path d="M6.9 29h2.7l-1.4-1.3z" class="st9"/><path d="M9.6 29v-2.7l-1.4 1.4z" class="st8"/><path d="M7.5 27h1.4v1.4H7.5z" class="st10"/><path d="M9.6 19.2H6.9l1.3 1.3z" class="st7"/><path d="m6.9 21.9 1.3-1.4-1.3-1.3z" class="st8"/><path d="M6.9 21.9h2.7l-1.4-1.4z" class="st9"/><path d="M9.6 21.9v-2.7l-1.4 1.3z" class="st8"/><path d="M7.5 19.8h1.4v1.4H7.5z" class="st10"/><path d="M35.5 51.8h2.7c.8 0 1.4-.6 1.4-1.4v-.7h-5.5v.7c0 .8.6 1.4 1.4 1.4M38.2 36.1h-2.7c-.8 0-1.4.6-1.4 1.4v.7h5.5v-.7c0-.7-.6-1.4-1.4-1.4" class="st6"/><path d="M39.8 38.3v11.3c0 .4-.3.7-.7.7h-4.5c-.4 0-.7-.3-.7-.7V38.3c0-.4.3-.7.7-.7h4.5c.4 0 .7.3.7.7" class="st2"/><path d="M39.8 38.3v11.3c0 .4-.3.7-.7.7h-4.5c-.4 0-.7-.3-.7-.7V38.3c0-.4.3-.7.7-.7h4.5c.4 0 .7.3.7.7" class="st3"/><path d="M39.8 38.3v11.3c0 .4-.3.7-.7.7h-4.5c-.4 0-.7-.3-.7-.7V38.3c0-.4.3-.7.7-.7h4.5c.4 0 .7.3.7.7" class="st4"/><path d="M172.8 54.8v-3.5h1.4v2.1h2.1v1.4zM176.5 53.4h2.1v1.5h-2.1zM178.8 53.4h2.1v1.5h-2.1zM181 53.4h2.1v1.5H181zM183.3 53.4h2.1v1.5h-2.1zM185.6 53.4h2.1v1.5h-2.1zM187.9 53.4h2.1v1.5h-2.1zM190.1 53.4h2.1v1.5h-2.1zM192.4 54.9v-1.5h2.1v-2.1h1.4v3.6zM194.5 49.1h1.4v2.1h-1.4zM194.5 46.8h1.4v2.1h-1.4zM194.5 44.5h1.4v2.1h-1.4zM194.5 42.3h1.4v2.1h-1.4zM194.5 40h1.4v2.1h-1.4zM194.5 37.7h1.4v2.1h-1.4zM194.5 35.5h1.4v2.1h-1.4zM192.4 33.1v-1.4h3.5v3.6h-1.4v-2.2zM190.1 31.7h2.1v1.4h-2.1zM187.9 31.7h2.1v1.4h-2.1zM185.6 31.7h2.1v1.4h-2.1zM183.3 31.7h2.1v1.4h-2.1zM181 31.7h2.1v1.4H181zM178.8 31.7h2.1v1.4h-2.1zM176.5 31.7h2.1v1.4h-2.1zM172.8 35.3v-3.6h3.5v1.4h-2.1v2.2zM172.8 35.5h1.4v2.1h-1.4zM172.8 37.7h1.4v2.1h-1.4zM172.8 40h1.4v2.1h-1.4zM172.8 42.3h1.4v2.1h-1.4zM172.8 44.5h1.4v2.1h-1.4zM172.8 46.8h1.4v2.1h-1.4zM172.8 49.1h1.4v2.1h-1.4z" class="st1"/><path d="M190.5 54.4v-.9h1.4v.9c0 .3-.3.5-.6.5h-.3c-.3 0-.5-.2-.5-.5M188.2 54.4v-.9h1.3v.9c0 .3-.3.5-.5.5h-.2c-.3 0-.6-.2-.6-.5M186 54.4v-.9h1.3v.9c0 .3-.3.5-.5.5h-.2c-.4 0-.6-.2-.6-.5M183.7 54.4v-.9h1.3v.9c0 .3-.3.5-.5.5h-.2c-.3 0-.6-.2-.6-.5M181.5 54.4v-.9h1.3v.9c0 .3-.3.5-.5.5h-.3c-.3 0-.5-.2-.5-.5M179.2 54.4v-.9h1.3v.9c0 .3-.3.5-.5.5h-.2c-.3 0-.6-.2-.6-.5M176.9 54.4v-.9h1.3v.9c0 .3-.3.5-.6.5h-.2c-.2 0-.4-.2-.5-.5M190.5 33.1v-.8c0-.3.3-.5.6-.5h.2c.3 0 .5.2.6.5v.8zM188.2 33.1v-.8c0-.3.3-.5.6-.5h.2c.3 0 .5.2.5.5v.8zM186 33.1v-.8c0-.3.3-.5.6-.5h.2c.3 0 .5.2.6.5v.8zM183.7 33.1v-.8c0-.3.3-.5.6-.5h.2c.3 0 .5.2.5.5v.8zM181.5 33.1v-.8c0-.3.3-.5.6-.5h.2c.3 0 .5.2.6.5v.8zM179.2 33.1v-.8c0-.3.3-.5.6-.5h.2c.3 0 .5.2.5.5v.8zM176.9 33.1v-.8c0-.3.3-.5.6-.5h.2c.3 0 .5.2.6.5v.8zM194.5 50.8v-1.3h1c.3 0 .5.3.5.6v.2c0 .3-.2.5-.5.6zM194.5 48.5v-1.3h1c.3 0 .5.3.5.6v.2c0 .3-.2.5-.5.6zM194.5 46.3V45h1c.3 0 .5.3.5.6v.2c0 .3-.2.5-.5.6zM194.5 44v-1.3h1c.3 0 .5.3.5.6v.4c-.1.2-.2.4-.5.4zM194.5 41.8v-1.3h1c.3 0 .5.3.5.6v.2c0 .3-.2.5-.5.6zM194.5 39.5v-1.3h1c.3 0 .5.3.5.6v.4c-.1.2-.2.4-.5.4zM194.5 37.3V36h1c.3 0 .5.3.5.6v.2c0 .3-.2.5-.5.6zM172.9 50.2V50c0-.3.2-.5.5-.6h.8v1.3h-.8c-.3.1-.5-.2-.5-.5M172.9 48v-.2c0-.3.2-.5.5-.6h.8v1.3h-.8c-.3 0-.5-.2-.5-.5M172.9 45.7v-.2c0-.3.2-.5.5-.6h.8v1.3h-.8c-.3.1-.5-.2-.5-.5M172.9 43.5v-.2c0-.3.2-.5.5-.6h.8V44h-.8c-.3 0-.6-.2-.5-.5M172.9 41.2V41c0-.3.2-.5.5-.6h.8v1.3h-.8c-.3.1-.5-.2-.5-.5M172.9 39v-.2c0-.3.2-.5.5-.6h.8v1.3h-.8c-.3 0-.6-.3-.5-.5M172.9 36.7v-.2c0-.3.2-.5.5-.6h.8v1.3h-.8c-.3 0-.5-.2-.5-.5" class="st6"/><g id="LWPOLYLINE-2"><path d="M174.2 33.1h20.3v20.3h-20.3z" class="st2"/><path d="M174.2 33.1h20.3v20.3h-20.3z" class="st3"/><path d="M174.2 33.1h20.3v20.3h-20.3z" class="st4"/></g><path d="M116.6 78c0 .2.2.4.4.4h2.2c.2 0 .4-.2.4-.4v-.2c0-.2-.2-.4-.4-.4H117c-.2 0-.4.2-.4.4zM116.6 76.2c0 .2.2.4.4.4h2.2c.2 0 .4-.2.4-.4V76c0-.2-.2-.4-.4-.4H117c-.2 0-.4.2-.4.4zM116.6 74.3c0 .2.2.4.4.4h2.2c.2 0 .4-.2.4-.4v-.2c0-.2-.2-.4-.4-.4H117c-.2 0-.4.2-.4.4zM116.6 72.4c0 .2.2.4.4.4h2.2c.2 0 .4-.2.4-.4v-.2c0-.2-.2-.4-.4-.4H117c-.2 0-.4.2-.4.4zM116.6 70.6c0 .2.2.4.4.4h2.2c.2 0 .4-.2.4-.4v-.2c0-.2-.2-.4-.4-.4H117c-.2 0-.4.2-.4.4zM116.6 68.7c0 .2.2.4.4.4h2.2c.2 0 .4-.2.4-.4v-.2c0-.2-.2-.4-.4-.4H117c-.2 0-.4.2-.4.4zM116.6 67c0 .2.2.4.4.4h2.2c.2 0 .4-.2.4-.4v-.2c0-.2-.2-.4-.4-.4H117c-.2 0-.4.2-.4.4zM116.6 65.1c0 .2.2.4.4.4h2.2c.2 0 .4-.2.4-.4V65c0-.2-.2-.4-.4-.4H117c-.2 0-.4.2-.4.4zM116.6 63.3c0 .2.2.4.4.4h2.2c.2 0 .4-.2.4-.4v-.2c0-.2-.2-.4-.4-.4H117c-.2 0-.4.2-.4.4zM116.6 61.5c0 .2.2.4.4.4h2.2c.2 0 .4-.2.4-.4v-.2c0-.2-.2-.4-.4-.4H117c-.2 0-.4.2-.4.4zM100.3 78c0 .2.2.4.4.4h2.2c.2 0 .4-.2.4-.4v-.2c0-.2-.2-.4-.4-.4h-2.2c-.2 0-.4.2-.4.4zM100.3 76.2c0 .2.2.4.4.4h2.2c.2 0 .4-.2.4-.4V76c0-.2-.2-.4-.4-.4h-2.2c-.2 0-.4.2-.4.4zM100.3 74.3c0 .2.2.4.4.4h2.2c.2 0 .4-.2.4-.4v-.2c0-.2-.2-.4-.4-.4h-2.2c-.2 0-.4.2-.4.4zM100.3 72.4c0 .2.2.4.4.4h2.2c.2 0 .4-.2.4-.4v-.2c0-.2-.2-.4-.4-.4h-2.2c-.2 0-.4.2-.4.4zM100.3 70.6c0 .2.2.4.4.4h2.2c.2 0 .4-.2.4-.4v-.2c0-.2-.2-.4-.4-.4h-2.2c-.2 0-.4.2-.4.4zM100.3 68.7c0 .2.2.4.4.4h2.2c.2 0 .4-.2.4-.4v-.2c0-.2-.2-.4-.4-.4h-2.2c-.2 0-.4.2-.4.4zM100.3 66.9c0 .2.2.4.4.4h2.2c.2 0 .4-.2.4-.4v-.2c0-.2-.2-.4-.4-.4h-2.2c-.2 0-.4.2-.4.4zM100.3 65.1c0 .2.2.4.4.4h2.2c.2 0 .4-.2.4-.4V65c0-.2-.2-.4-.4-.4h-2.2c-.2 0-.4.2-.4.4zM100.3 63.3c0 .2.2.4.4.4h2.2c.2 0 .4-.2.4-.4v-.2c0-.2-.2-.4-.4-.4h-2.2c-.2 0-.4.2-.4.4zM100.3 61.4c0 .2.2.4.4.4h2.2c.2 0 .4-.2.4-.4v-.2c0-.2-.2-.4-.4-.4h-2.2c-.2 0-.4.2-.4.4z" class="st6"/><g id="LWPOLYLINE-3"><path d="M103.1 60.6h14.1v18.2h-14.1z" class="st2"/><path d="M103.1 60.6h14.1v18.2h-14.1z" class="st3"/><path d="M103.1 60.6h14.1v18.2h-14.1z" class="st4"/></g><path id="LWPOLYLINE-4" d="M133.4 25.7h7.7v9.1h-7.7z" class="st5"/><g id="INSERT"><g id="SOLID"><path d="M141 34.8V33h-7.6z" class="st3"/><path d="m141 34.8-7.6-1.8v1.8z" class="st3"/></g></g><path id="LWPOLYLINE-5" d="M123.5 25.7h7.7v9.1h-7.7z" class="st5"/><g id="INSERT-2"><g id="SOLID-2"><path d="M131.1 34.8V33h-7.6z" class="st3"/><path d="m131.1 34.8-7.6-1.8v1.8z" class="st3"/></g></g><path d="M7.9 101.1H12v9.1H7.9z" style="fill:#fae9a6"/><path d="M14.9 115.7V95.9h-10v19.8zM8 101.3h3.7v8.6H8z" class="st6"/><path d="M8 106.6h3.8v3.3H8z" style="fill:#fcf4d1"/><g id="Artwork_1"><path d="M17.9 126.3h21.2v13.1H17.9z" class="st13"/><path d="M22.5 132.7v-2.3h-2.3z" class="st6"/><path d="M20.2 132.7h2.3l-2.3-2.3zM29.5 132.7v-2.3h-2.3z" class="st6"/><path d="M27.2 132.7h2.3l-2.3-2.3zM36.4 132.7v-2.3h-2.3z" class="st6"/><path d="M34.1 132.7h2.3l-2.3-2.3z" class="st6"/><path d="M21.8 126.3h14v1.8h-14z" class="st14"/></g><g id="Artwork_1-2"><path d="M48.2 126.3h21.2v13.1H48.2z" class="st13"/><path d="M52.9 132.7v-2.3h-2.3z" class="st6"/><path d="M50.6 132.7h2.3l-2.3-2.3zM59.8 132.7v-2.3h-2.3z" class="st6"/><path d="M57.5 132.7h2.3l-2.3-2.3zM66.7 132.7v-2.3h-2.2z" class="st6"/><path d="M64.5 132.7h2.2l-2.2-2.3z" class="st6"/><path d="M52.1 126.3h14v1.8h-14z" class="st14"/></g><g id="Artwork_1-3"><path d="M76.4 126.3h21.2v13.1H76.4z" class="st13"/><path d="M81 132.7v-2.3h-2.3z" class="st6"/><path d="M78.7 132.7H81l-2.3-2.3zM88 132.7v-2.3h-2.3z" class="st6"/><path d="M85.7 132.7H88l-2.3-2.3zM94.9 132.7v-2.3h-2.3zM92.6 132.7h2.3l-2.3-2.3z" class="st6"/><path d="M80.3 126.3h14v1.8h-14z" class="st14"/></g><g id="Artwork_1-4"><path d="M103.9 126.3h21.2v13.1h-21.2z" class="st13"/><path d="M108.5 132.7v-2.3h-2.3z" class="st6"/><path d="M106.2 132.7h2.3l-2.3-2.3zM115.4 132.7v-2.3h-2.2z" class="st6"/><path d="M113.2 132.7h2.2l-2.2-2.3zM122.4 132.7v-2.3h-2.3zM120.1 132.7h2.3l-2.3-2.3z" class="st6"/><path d="M107.8 126.3h14v1.8h-14z" class="st14"/></g><g id="Artwork_1-5"><path d="M17.9 2.3h21.2v13.1H17.9z" class="st13"/><path d="M34.5 9v2.3h2.2z" class="st6"/><path d="M36.7 9h-2.2l2.2 2.3zM27.5 9v2.3h2.3z" class="st6"/><path d="M29.8 9h-2.3l2.3 2.3zM20.6 9v2.3h2.3z" class="st6"/><path d="M22.9 9h-2.3l2.3 2.3z" class="st6"/><path d="M21.2 13.6h14v1.8h-14z" class="st14"/></g><g id="Artwork_1-6"><path d="M47.9 2.3h21.2v13.1H47.9z" class="st13"/><path d="M64.5 9v2.3h2.3z" class="st6"/><path d="M66.8 9h-2.3l2.3 2.3zM57.5 9v2.3h2.3z" class="st6"/><path d="M59.8 9h-2.3l2.3 2.3zM50.6 9v2.3h2.3z" class="st6"/><path d="M52.9 9h-2.3l2.3 2.3z" class="st6"/><path d="M51.2 13.6h14v1.8h-14z" class="st14"/></g><g id="Artwork_1-7"><path d="M76 2.3h21.2v13.1H76z" class="st13"/><path d="M92.5 9v2.3h2.3z" class="st6"/><path d="M94.8 9h-2.3l2.3 2.3zM85.6 9v2.3h2.2z" class="st6"/><path d="M87.8 9h-2.2l2.2 2.3zM78.6 9v2.3h2.3zM80.9 9h-2.3l2.3 2.3z" class="st6"/><path d="M79.3 13.6h14v1.8h-14z" class="st14"/></g><g id="Artwork_1-8"><path d="M103.9 2.3h21.2v13.1h-21.2z" class="st13"/><path d="M120.4 9v2.3h2.3z" class="st6"/><path d="M122.7 9h-2.3l2.3 2.3zM113.5 9v2.3h2.2z" class="st6"/><path d="M115.7 9h-2.2l2.2 2.3zM106.5 9v2.3h2.3z" class="st6"/><path d="M108.8 9h-2.3l2.3 2.3z" class="st6"/><path d="M107.2 13.6h14v1.8h-14z" class="st14"/></g><g id="Artwork_2"><path d="M85.6 34.2h7.9v-7.9c.1 4.4-3.5 7.9-7.9 7.9q.15 0 0 0M93.6 26.3v-7.9h-7.9c4.3 0 7.9 3.5 7.9 7.9" class="st4"/><path d="M75.5 24.4h3.8v3.8h-3.8z" class="st15"/><path d="M77.7 25c-.7 0-1.3.6-1.3 1.3s.6 1.3 1.3 1.3S79 27 79 26.3s-.6-1.3-1.3-1.3" class="st6"/><circle cx="85.6" cy="26.3" r="7.9" class="st6"/><path d="M85.6 27.6c-.7 0-1.3-.6-1.3-1.3s.6-1.3 1.3-1.3 1.3.6 1.3 1.3-.6 1.3-1.3 1.3q.15 0 0 0" class="st1"/></g><g id="Artwork_2-2"><path d="M110.5 34.2h7.9v-7.9c0 4.4-3.6 7.9-7.9 7.9M118.4 26.3v-7.9h-7.9c4.3 0 7.9 3.5 7.9 7.9" class="st4"/><path d="M100.4 24.4h3.8v3.8h-3.8z" class="st15"/><path d="M102.5 25c-.7 0-1.3.6-1.3 1.3s.6 1.3 1.3 1.3 1.3-.6 1.3-1.3-.6-1.3-1.3-1.3" class="st6"/><circle cx="110.5" cy="26.3" r="7.9" class="st6"/><path d="M110.5 27.6c-.7 0-1.3-.6-1.3-1.3s.6-1.3 1.3-1.3 1.3.6 1.3 1.3c-.1.7-.6 1.3-1.3 1.3" class="st1"/></g><g id="Artwork_2-3"><path d="M85.6 123.7h7.9v-7.9c.1 4.3-3.5 7.9-7.9 7.9q.15 0 0 0M93.6 115.7v-7.9h-7.9c4.3 0 7.9 3.6 7.9 7.9" class="st4"/><path d="M75.5 113.8h3.8v3.8h-3.8z" class="st15"/><path d="M77.7 114.4c-.7 0-1.3.6-1.3 1.3s.6 1.3 1.3 1.3 1.3-.6 1.3-1.3-.6-1.2-1.3-1.3" class="st6"/><circle cx="85.6" cy="115.7" r="7.9" class="st6"/><path d="M85.6 117c-.7 0-1.3-.6-1.3-1.3s.6-1.3 1.3-1.3 1.3.6 1.3 1.3-.6 1.3-1.3 1.3q.15 0 0 0" class="st1"/></g><g id="Artwork_2-4"><path d="M110.5 123.7h7.9v-7.9c0 4.3-3.6 7.9-7.9 7.9M118.4 115.7v-7.9h-7.9c4.3 0 7.9 3.6 7.9 7.9" class="st4"/><path d="M100.4 113.8h3.8v3.8h-3.8z" class="st15"/><path d="M102.5 114.4c-.7 0-1.3.6-1.3 1.3s.6 1.3 1.3 1.3 1.3-.6 1.3-1.3-.6-1.2-1.3-1.3" class="st6"/><circle cx="110.5" cy="115.7" r="7.9" class="st6"/><path d="M110.5 117c-.7 0-1.3-.6-1.3-1.3s.6-1.3 1.3-1.3 1.3.6 1.3 1.3c-.1.7-.6 1.3-1.3 1.3" class="st1"/></g><path d="M134.8 91.4h1.9c.5 0 1-.5.9-1 0-.5-.4-.9-.9-.9h-1.9c-.5 0-1 .4-1 1s.5.9 1 .9M145.9 88.4h1.9c.5 0 1-.5.9-1 0-.5-.4-.9-.9-.9h-1.9c-.5 0-1 .4-1 1s.5.9 1 .9M145.9 85.9h1.9c.5 0 1-.5.9-1 0-.5-.4-.9-.9-.9h-1.9c-.5 0-1 .4-1 1s.5.9 1 .9M145.9 82.9h1.9c.5 0 1-.5.9-1 0-.5-.4-.9-.9-.9h-1.9c-.5 0-1 .4-1 1 0 .4.4.9 1 .9M140.3 83h1.9c.5 0 1-.5.9-1 0-.5-.4-.9-.9-.9h-1.9c-.5 0-1 .4-1 1 .1.5.5.9 1 .9M155.5 90.5h1.9c.5 0 1-.5.9-1 0-.5-.4-.9-.9-.9h-1.9c-.5 0-1 .4-1 1 .1.5.5.9 1 .9M119 84.1h1.9c.5 0 1-.5.9-1 0-.5-.4-.9-.9-.9H119c-.5 0-1 .4-1 1 0 .4.5.9 1 .9M128.3 79.6v-1.9c0-.5-.5-1-1-.9-.5 0-.9.4-.9.9v1.9c0 .5.4 1 1 1 .4 0 .9-.4.9-1M101.8 84.8h1.9c.5 0 1-.5.9-1 0-.5-.4-.9-.9-.9h-1.9c-.5 0-1 .4-1 1 .1.5.5.9 1 .9M101.8 82.1h1.9c.5 0 1-.5.9-1 0-.5-.4-.9-.9-.9h-1.9c-.5 0-1 .4-1 1 .1.4.5.9 1 .9M70.8 93.7h1.9c.5 0 1-.5.9-1 0-.5-.4-.9-.9-.9h-1.9c-.5 0-1 .4-1 1 .1.4.5.9 1 .9M19.7 115.1v-1.9c0-.5-.5-.9-1-.9s-.9.4-.9.9v1.9c0 .5.4 1 .9 1 .6 0 1-.4 1-1M19.7 108.2v-1.9c0-.5-.5-1-1-.9-.5 0-.9.4-.9.9v1.9c0 .5.4 1 .9 1 .6 0 1-.4 1-1 0 .1 0 0 0 0M11.8 92.7H9.9c-.5 0-1 .5-.9 1 0 .5.4.9.9.9h1.9c.5 0 1-.4 1-1 0-.5-.4-.9-1-.9M31.6 68.8h-1.9c-.5 0-1 .5-.9 1 0 .5.4.9.9.9h1.9c.5 0 1-.4 1-1 0-.5-.4-.9-1-.9M144.9 24.4v-1.9c0-.5-.5-1-1-.9-.5 0-.9.4-.9.9v1.9c0 .5.4 1 1 1 .5 0 .9-.5.9-1M147.9 24.4v-1.9c0-.5-.5-1-1-.9-.5 0-.9.4-.9.9v1.9c0 .5.4 1 1 1s.9-.5.9-1M154.9 24.4v-1.9c0-.5-.5-1-1-.9-.5 0-.9.4-.9.9v1.9c0 .5.4 1 1 1 .5 0 .9-.5.9-1M157.7 24.4v-1.9c0-.5-.5-1-1-.9-.5 0-.9.4-.9.9v1.9c0 .5.4 1 1 1 .5 0 .9-.5.9-1M198.8 33.6v-1.9c0-.5-.5-1-1-.9-.5 0-.9.4-.9.9v1.9c0 .5.4 1 1 1 .5 0 .9-.4.9-1M169.4 50.3v-1.9c0-.5-.5-1-1-.9-.5 0-.9.4-.9.9v1.9c0 .5.4 1 1 1 .5 0 .9-.5.9-1M172.2 50.3v-1.9c0-.5-.5-1-1-.9-.5 0-.9.4-.9.9v1.9c0 .5.4 1 1 1 .5 0 .9-.5.9-1M187 57.6h1.9c.5 0 1-.5.9-1 0-.5-.4-.9-.9-.9h-1.8c-.5 0-1 .4-1 1 0 .5.4.9.9.9M192.6 57.9h1.9c.5 0 1-.5.9-1 0-.5-.4-.9-.9-.9h-1.9c-.5 0-1 .4-1 1 0 .5.4.9 1 .9M192.6 60.7h1.9c.5 0 1-.5.9-1 0-.5-.4-.9-.9-.9h-1.9c-.5 0-1 .4-1 1 0 .5.4.9 1 .9M218.5 27.9h1.9c.5 0 1-.5.9-1 0-.5-.4-.9-.9-.9h-1.9c-.5 0-1 .4-1 1s.4.9 1 .9c-.1 0 0 0 0 0" class="st6"/><path d="M218.7 25.9h1.4v1.9h-1.4z" class="st6"/><path d="M218.7 25.9h1.4v1.9h-1.4z" class="st2"/><path d="M218.7 25.9h1.4v1.9h-1.4z" class="st3"/><path d="M218.7 25.9h1.4v1.9h-1.4z" class="st4"/><path d="M220.3 51.5v-1.9c0-.5-.5-1-1-.9-.5 0-.9.4-.9.9v1.9c0 .5.4 1 1 1 .5 0 .9-.5.9-1M220.3 66.5v-1.9c0-.5-.5-1-1-.9-.5 0-.9.4-.9.9v1.9c0 .5.4 1 1 1 .5-.1.9-.5.9-1M201.9 78.3v-1.9c0-.5-.5-1-1-.9-.5 0-.9.4-.9.9v1.9c0 .5.4 1 1 1s.9-.5.9-1M180 86h1.9c.5 0 1-.5.9-1 0-.5-.4-.9-.9-.9H180c-.5 0-1 .4-1 1s.5.9 1 .9M198.6 92h1.9c.5 0 1-.5.9-1 0-.5-.4-.9-.9-.9h-1.9c-.5 0-1 .4-1 1s.5.9 1 .9M172 86.6v-1.9c0-.5-.5-1-1-.9-.5 0-.9.4-.9.9v1.9c0 .5.4 1 1 1 .4 0 .9-.4.9-1M169.2 86.6v-1.9c0-.5-.5-1-1-.9-.5 0-.9.4-.9.9v1.9c0 .5.4 1 1 1 .5 0 .9-.4.9-1M164.3 91.7v-1.9c0-.5-.5-1-1-.9-.5 0-.9.4-.9.9v1.9c0 .5.4 1 1 1 .5-.1.9-.5.9-1M167.4 94.8h1.9c.5 0 1-.5.9-1 0-.5-.4-.9-.9-.9h-1.9c-.5 0-1 .4-1 1s.5.9 1 .9M168.5 107.3h1.9c.5 0 1-.5.9-1 0-.5-.4-.9-.9-.9h-1.9c-.5 0-1 .4-1 1 0 .4.4.9 1 .9M205.7 99.3v-1.9c0-.5-.5-1-1-.9-.5 0-.9.4-.9.9v1.9c0 .5.4 1 1 1s.9-.4.9-1M166.1 119v-1.9c0-.5-.5-1-1-.9-.5 0-.9.4-.9.9v1.9c0 .5.4 1 1 1 .5 0 .9-.5.9-1M163.4 119v-1.9c0-.5-.5-1-1-.9-.5 0-.9.4-.9.9v1.9c0 .5.4 1 1 1 .4 0 .9-.5.9-1M144.8 119v-1.9c0-.5-.5-1-1-.9-.5 0-.9.4-.9.9v1.9c0 .5.4 1 1 1 .5 0 .9-.5.9-1M142 119v-1.9c0-.5-.5-1-1-.9-.5 0-.9.4-.9.9v1.9c0 .5.4 1 1 1 .5 0 .9-.4.9-1" class="st6"/><g id="Artwork_1-9"><path d="M27.2 74.8h16.4v28.5H27.2z" class="st13"/><path d="M36.2 86.7h2.3v-2.3z" class="st6"/><path d="M36.2 84.4v2.3l2.3-2.3zM36.2 80.1h2.3v-2.3z" class="st6"/><path d="M36.2 77.8v2.3l2.3-2.3zM36.2 93.4h2.3v-2.2z" class="st6"/><path d="M36.2 91.2v2.2l2.3-2.2zM36.2 100.2h2.3V98z" class="st6"/><path d="M36.2 98v2.2l2.3-2.2z" class="st6"/><path d="M41.3 80.2h2.3v17.6h-2.3z" class="st14"/></g><g id="LED"><path d="M5 123h7.6v3H5z" class="st1"/><path d="M6.5 124.5c0-1.3 1-2.3 2.3-2.3s2.3 1 2.3 2.3-1 2.3-2.3 2.3c-1.3.1-2.3-1-2.3-2.3" class="st5"/></g><g id="LED-2"><path d="M5 117.8h7.6v3H5z" class="st1"/><path d="M6.5 119.3c0-1.3 1-2.3 2.3-2.3s2.3 1 2.3 2.3-1 2.3-2.3 2.3c-1.3.1-2.3-1-2.3-2.3" class="st5"/></g><g id="LED-3"><path d="M172.9 22.1h7.6v3h-7.6z" class="st1"/><path d="M174.4 23.6c0-1.3 1-2.3 2.3-2.3s2.3 1 2.3 2.3-1 2.3-2.3 2.3c-1.3.1-2.3-1-2.3-2.3" class="st5"/></g><g id="LED-4"><path d="M182.9 22.1h7.6v3h-7.6z" class="st1"/><path d="M184.3 23.6c0-1.3 1-2.3 2.3-2.3s2.3 1 2.3 2.3-1 2.3-2.3 2.3c-1.2.1-2.3-1-2.3-2.3" class="st5"/></g><g id="LED-5"><path d="M192.8 22.1h7.6v3h-7.6z" class="st1"/><path d="M194.2 23.6c0-1.3 1-2.3 2.3-2.3s2.3 1 2.3 2.3-1 2.3-2.3 2.3c-1.2.1-2.3-1-2.3-2.3" class="st5"/></g><g id="LED-6"><path d="M202.7 22.1h7.6v3h-7.6z" class="st1"/><path d="M204.2 23.6c0-1.3 1-2.3 2.3-2.3s2.3 1 2.3 2.3-1 2.3-2.3 2.3c-1.3.1-2.3-1-2.3-2.3" class="st5"/></g><g id="LED-7"><path d="M172.9 116.3h7.6v3h-7.6z" class="st1"/><path d="M174.4 117.8c0-1.3 1-2.3 2.3-2.3s2.3 1 2.3 2.3-1 2.3-2.3 2.3-2.3-1-2.3-2.3" class="st5"/></g><g id="LED-8"><path d="M182.9 116.3h7.6v3h-7.6z" class="st1"/><path d="M184.3 117.8c0-1.3 1-2.3 2.3-2.3s2.3 1 2.3 2.3-1 2.3-2.3 2.3c-1.2 0-2.3-1-2.3-2.3" class="st5"/></g><g id="LED-9"><path d="M192.8 116.3h7.6v3h-7.6z" class="st1"/><path d="M194.2 117.8c0-1.3 1-2.3 2.3-2.3s2.3 1 2.3 2.3-1 2.3-2.3 2.3c-1.2 0-2.3-1-2.3-2.3" class="st5"/></g><g id="LED-10"><path d="M202.7 116.3h7.6v3h-7.6z" class="st1"/><path d="M204.2 117.8c0-1.3 1-2.3 2.3-2.3s2.3 1 2.3 2.3-1 2.3-2.3 2.3-2.3-1-2.3-2.3" class="st5"/></g><g id="LED-11"><path d="M216.5 30.1h7.6v3h-7.6z" class="st1"/><path d="M218 31.6c0-1.3 1-2.3 2.3-2.3s2.3 1 2.3 2.3-1 2.3-2.3 2.3-2.3-1-2.3-2.3" class="st5"/></g><path d="M142.1 68h1.4v8.5h-1.4zM132.2 65.2h8.5v1.4h-8.5zM129.4 68h1.4v8.5h-1.4zM132.2 77.9h8.5v1.4h-8.5z" class="st1"/><path d="M142.1 69.1v-.9h1.1c.1 0 .2.1.3.2s.1.1.1.2v.2c0 .1 0 .2-.1.2-.1.1-.2.1-.3.1zM142.1 70.5v-.9h1.1c.1 0 .2.1.3.1.1.1.1.2.1.2v.2c0 .1 0 .2-.1.2-.1.1-.2.1-.3.1h-1.1zM142.1 72v-.9h1.1c.1 0 .2.1.3.1.1.1.1.2.1.2v.2c0 .1 0 .2-.1.2-.1.1-.2.1-.3.1h-1.1zM142.1 73.4v-.9h1.1c.1 0 .2.1.3.1.1.1.1.1.1.2v.2c0 .1 0 .2-.1.2-.1.1-.2.1-.3.1h-1.1zM142.1 74.8v-.9h1.1c.1 0 .2.1.3.1.1.1.1.2.1.2v.2c0 .1 0 .2-.1.2-.1.1-.2.1-.3.1h-1.1zM142.1 76.2v-.9h1.1c.1 0 .2.1.3.1.1.1.1.1.1.2v.2c0 .1 0 .2-.1.2-.1.1-.2.1-.3.1h-1.1zM129.3 68.8v-.2c0-.2.2-.4.4-.4h1.1v.9h-1.1c-.1 0-.2 0-.3-.1s-.1-.1-.1-.2M129.3 70.2V70c0-.1 0-.2.1-.2.1-.1.2-.1.3-.1h1.1v.9h-1.1c-.1 0-.2 0-.3-.1-.1-.2-.1-.2-.1-.3M129.3 71.6v-.2c0-.1 0-.2.1-.2.1-.1.2-.1.3-.1h1.1v.9h-1.1c-.1 0-.2 0-.3-.1s-.1-.2-.1-.3M129.3 73v-.2c0-.1 0-.2.1-.2.1-.1.2-.1.3-.1h1.1v.9h-1.1c-.1 0-.2 0-.3-.1s-.1-.2-.1-.3M129.3 74.4v-.2c0-.1 0-.2.1-.2.1-.1.2-.1.3-.1h1.1v.9h-1.1c-.1 0-.2 0-.3-.1s-.1-.2-.1-.3M129.3 75.8v-.2c0-.1 0-.2.1-.2.1-.1.2-.1.3-.1h1.1v.9h-1.1c-.1 0-.2 0-.3-.1s-.1-.2-.1-.3M139.6 66.6v-1.1c0-.1.1-.3.2-.3h.6c.1.1.2.2.2.3v1.1zM138.2 66.6v-1.1c0-.1.1-.3.2-.3h.6c.1.1.2.2.2.3v1.1zM136.7 66.6v-1.1c0-.1.1-.3.2-.3h.6c.1.1.2.2.2.3v1.1zM135.3 66.6v-1.1c0-.1.1-.3.2-.3h.6c.1.1.2.2.2.3v1.1zM133.9 66.6v-1.1c0-.1.1-.3.2-.3h.6c.1.1.2.2.2.3v1.1zM132.5 66.6v-1.1c0-.1.1-.3.2-.3h.5c.1.1.2.2.2.3v1.1zM139.6 79v-1.1h.9V79c0 .2-.1.3-.3.4h-.4c-.1-.1-.2-.3-.2-.4M136.7 79v-1.1h.9V79c0 .2-.1.3-.3.4h-.4c-.1-.1-.2-.3-.2-.4M138.1 79v-1.1h.9V79c0 .2-.1.3-.3.4h-.4c-.1-.1-.2-.3-.2-.4M135.3 79v-1.1h.9V79c0 .2-.1.3-.3.4h-.4c-.1-.1-.2-.3-.2-.4M133.9 79v-1.1h.9V79c0 .2-.1.3-.3.4h-.4c-.1-.1-.2-.3-.2-.4M132.5 79v-1.1h.9V79c0 .2-.1.3-.3.4h-.4c-.1-.1-.2-.3-.2-.4" class="st6"/><g id="LWPOLYLINE-6"><path d="M130.8 66.6h11.3v11.3h-11.3z" class="st2"/><path d="M130.8 66.6h11.3v11.3h-11.3z" class="st3"/><path d="M130.8 66.6h11.3v11.3h-11.3z" class="st4"/></g><path d="M68.4 75.9h19v8h-19z" class="st4"/><path d="M84 80.9h1.5v1.5H84zM84 77.3h1.5v1.5H84zM80.4 80.9h1.5v1.5h-1.5zM80.4 77.3h1.5v1.5h-1.5zM76.8 80.9h1.5v1.5h-1.5zM76.8 77.3h1.5v1.5h-1.5zM73.3 80.9h1.5v1.5h-1.5zM73.3 77.3h1.5v1.5h-1.5zM69.7 80.9h1.5v1.5h-1.5zM69.7 77.3h1.5v1.5h-1.5z" class="st10"/><path d="M192.4 87.9v-1.1h3.5v3.6h-1.1v-2.5zM190.1 86.8h2.1v1.1h-2.1zM187.8 86.8h2.1v1.1h-2.1zM185.6 86.8h2.1v1.1h-2.1zM183.3 86.8h2.1v1.1h-2.1zM181 86.8h2.1v1.1H181zM178.8 86.8h2.1v1.1h-2.1zM176.5 86.8h2.1v1.1h-2.1zM172.8 90.3v-3.5h3.5v1.1h-2.4v2.4zM172.8 90.5h1.1v2.1h-1.1zM172.8 92.8h1.1v2.1h-1.1zM172.8 95h1.1v2.1h-1.1zM172.8 97.3h1.1v2.1h-1.1zM172.8 99.6h1.1v2.1h-1.1zM172.8 101.8h1.1v2.1h-1.1zM172.8 104.1h1.1v2.1h-1.1zM172.8 109.9v-3.5h1.1v2.4h2.4v1.1zM176.5 108.8h2.1v1.1h-2.1zM178.8 108.8h2.1v1.1h-2.1zM181 108.8h2.1v1.1H181zM183.3 108.8h2.1v1.1h-2.1zM185.6 108.8h2.1v1.1h-2.1zM187.8 108.8h2.1v1.1h-2.1zM190.1 108.8h2.1v1.1h-2.1zM192.4 109.9v-1.1h2.4v-2.4h1.1v3.5zM194.8 104.1h1.1v2.1h-1.1zM194.8 101.8h1.1v2.1h-1.1zM194.8 99.6h1.1v2.1h-1.1zM194.8 97.3h1.1v2.1h-1.1zM194.8 95h1.1v2.1h-1.1zM194.8 92.8h1.1v2.1h-1.1zM194.8 90.5h1.1v2.1h-1.1z" class="st1"/><path d="M190.4 109.4v-.6h1.3v.6c0 .3-.3.5-.5.5h-.2c-.4 0-.6-.2-.6-.5M188.1 109.4v-.6h1.3v.6c0 .3-.3.5-.6.5h-.2c-.2 0-.5-.2-.5-.5M185.9 109.4v-.6h1.3v.6c0 .3-.3.5-.5.5h-.2c-.4 0-.6-.2-.6-.5M183.6 109.4v-.6h1.3v.6c0 .3-.3.5-.6.5h-.2c-.2 0-.5-.2-.5-.5M181.3 109.4v-.6h1.3v.6c0 .3-.3.5-.5.5h-.2c-.3 0-.5-.2-.6-.5M179.1 109.4v-.6h1.3v.6c0 .3-.3.5-.6.5h-.2c-.2 0-.5-.2-.5-.5M176.8 109.4v-.6h1.3v.6c0 .3-.3.5-.5.5h-.2c-.3 0-.5-.2-.6-.5M190.4 87.9v-.5c0-.3.3-.5.6-.5h.2c.3 0 .5.2.6.5v.5zM188.1 87.9v-.5c0-.3.3-.5.6-.5h.2c.3 0 .5.2.6.5v.5zM185.9 87.9v-.5c0-.3.3-.5.6-.5h.2c.3 0 .5.2.6.5v.5zM183.6 87.9v-.5c0-.3.3-.5.6-.5h.2c.3 0 .5.2.6.5v.5zM181.3 87.9v-.5c0-.3.3-.5.6-.5h.2c.3 0 .5.2.6.5v.5zM179.1 87.9v-.5c0-.3.3-.5.6-.5h.2c.3 0 .5.2.6.5v.5zM176.8 87.9v-.5c0-.3.3-.5.6-.5h.2c.3 0 .5.2.6.5v.5zM194.8 105.8v-1.3h.6c.3 0 .5.3.5.6v.2c0 .3-.2.5-.5.6zM194.8 103.6v-1.3h.6c.3 0 .5.3.5.6v.2c0 .3-.2.5-.5.6zM194.8 101.3V100h.6c.3 0 .5.3.5.6v.2c0 .3-.2.5-.5.6zM194.8 99.1v-1.3h.6c.3 0 .5.3.5.6v.2c0 .3-.2.5-.5.6zM194.8 96.8v-1.4h.6c.3 0 .5.3.5.6v.2c0 .3-.2.5-.5.6zM194.8 94.6v-1.3h.6c.3 0 .5.3.5.6v.1c0 .3-.2.5-.5.6zM194.8 92.3V91h.6c.3 0 .5.3.5.6v.2c0 .3-.2.5-.5.6zM172.8 105.3v-.2c0-.3.2-.5.5-.6h.6v1.3h-.6c-.3 0-.6-.2-.5-.5M172.8 103v-.2c0-.3.2-.5.5-.6h.6v1.3h-.6c-.3.1-.5-.2-.5-.5M172.8 100.8v-.2c0-.3.2-.5.5-.6h.6v1.3h-.6c-.3 0-.6-.2-.5-.5M172.8 98.5v-.2c0-.3.2-.5.5-.6h.6V99h-.6c-.3.1-.5-.2-.5-.5M172.8 96.3V96c0-.3.2-.5.5-.6h.6v1.4h-.6c-.3 0-.5-.2-.5-.5M172.8 94v-.2c0-.3.2-.5.5-.6h.6v1.3h-.6c-.3.1-.5-.2-.5-.5M172.8 91.8v-.2c0-.3.2-.5.5-.6h.6v1.3h-.6c-.3 0-.5-.2-.5-.5" class="st6"/><g id="LWPOLYLINE-7"><path d="M173.9 87.9h20.9v20.9h-20.9z" class="st2"/><path d="M173.9 87.9h20.9v20.9h-20.9z" class="st3"/><path d="M173.9 87.9h20.9v20.9h-20.9z" class="st4"/></g><path d="M204.1 78.5h1.8v-3.9q0-.3-.3-.3h-1.7q-.3 0-.3.3v4c.2-.1.3-.1.5-.1m5.4 0v-3.9q0-.3-.3-.3h-1.7q-.3 0-.3.3v3.9zm3.6 0v-3.9q0-.3-.3-.3h-1.7q-.3 0-.3.3v3.9zm2.7 0c.1 0 .2 0 .4.1.2 0 .3.1.5.2v-4.2q0-.3-.3-.3h-1.7q-.3 0-.3.3v3.9zM203.6 94.2v-4.5c.2.1.3.1.5.1h1.8v4.4q0 .3-.3.3h-1.7q-.3 0-.3-.3M207.2 94.2v-4.4h2.3v4.4q0 .3-.3.3h-1.7q-.3 0-.3-.3M211.1 94.5h1.7q.3 0 .3-.3v-4.4h-2.3v4.4q0 .3.3.3M214.4 94.2v-4.4h1.4c.1 0 .2 0 .4-.1.2 0 .3-.1.5-.2v4.7q0 .3-.3.3h-1.7q-.3 0-.3-.3" class="st1"/><path d="M214.8 91.5v-1.7h1c.1 0 .2 0 .4-.1v1.8c0 .4-.2.7-.5.7h-.2c-.4.1-.7-.3-.7-.7M211.3 91.5v-1.7h1.3v1.7c0 .4-.2.7-.6.7h-.2c-.3.1-.5-.3-.5-.7M207.7 91.5v-1.7h1.3v1.7c0 .4-.2.7-.6.7h-.2c-.3.1-.5-.3-.5-.7M204.1 91.5v-1.7h1.4v1.7c0 .4-.2.7-.6.7h-.2c-.4.1-.6-.3-.6-.7M214.8 78.5v-1.6c0-.4.2-.7.6-.7h.2c.3 0 .5.3.5.7v1.7c-.1 0-.2 0-.4-.1zM211.3 78.5v-1.6c0-.4.2-.7.6-.7h.2c.3 0 .6.3.6.7v1.6zM207.7 78.5v-1.6c0-.4.2-.7.6-.7h.2c.3 0 .6.3.6.7v1.6zM204.1 78.5v-1.7c0-.4.2-.7.6-.7h.2c.3 0 .6.3.6.7v1.6h-1.2c-.1.1-.2.1-.2.1" class="st6"/><path d="M215.8 78.5c.6-.1 1.2.4 1.3 1v9.2c-.1.6-.7 1.1-1.3 1h-11.6c-.6.1-1.2-.4-1.3-1v-9.2c.1-.6.7-1.1 1.3-1z" class="st2"/><path d="M215.8 78.5c.6-.1 1.2.4 1.3 1v9.2c-.1.6-.7 1.1-1.3 1h-11.6c-.6.1-1.2-.4-1.3-1v-9.2c.1-.6.7-1.1 1.3-1z" class="st3"/><path d="M215.8 78.5c.6-.1 1.2.4 1.3 1v9.2c-.1.6-.7 1.1-1.3 1h-11.6c-.6.1-1.2-.4-1.3-1v-9.2c.1-.6.7-1.1 1.3-1z" class="st4"/><path d="M203.9 67.3h1.7q.3 0 .3-.3v-4h-1.7c-.2 0-.4-.1-.5-.2V67c-.1.2 0 .3.2.3m.3-15.6h1.6v-4.3q0-.3-.3-.3h-1.7q-.3 0-.3.3v4.5c.2-.1.3-.1.5-.2zm3.3 15.6h1.7q.3 0 .3-.3v-4h-2.3v4q0 .3.3.3m1.9-15.6v-4.3q0-.3-.3-.3h-1.7q-.3 0-.3.3v4.3zm1.7 15.6h1.7q.3 0 .3-.3v-4h-2.3v4q0 .3.3.3m1.9-15.6v-4.3q0-.3-.3-.3H211q-.3 0-.3.3v4.3zm1.7 15.6h1.7q.3 0 .3-.3v-4.2c-.1.1-.3.2-.5.2-.1 0-.2 0-.4.1h-1.4v4c0 .1.1.2.3.2m1.1-15.6c.1 0 .2 0 .4.1.2 0 .3.1.5.2v-4.6q0-.3-.3-.3h-1.7q-.3 0-.3.3v4.3z" class="st1"/><path d="M214.8 64.8V63h1c.1 0 .2 0 .4-.1v1.8c0 .4-.2.7-.5.7h-.2c-.4.1-.7-.2-.7-.6M211.3 64.8V63h1.3v1.7c0 .4-.2.7-.6.7h-.2c-.3.1-.5-.2-.5-.6M207.7 64.8V63h1.3v1.7c0 .4-.2.7-.6.7h-.2c-.3.1-.5-.2-.5-.6M204.1 64.8V63h1.4v1.7c0 .4-.2.7-.6.7h-.2c-.4.1-.6-.2-.6-.6M214.8 51.7v-1.6c0-.4.2-.7.6-.7h.2c.3 0 .5.3.5.7v1.7c-.1 0-.2 0-.4-.1zM211.3 51.7v-1.6c0-.4.2-.7.6-.7h.2c.3 0 .6.3.6.7v1.6zM207.7 51.7v-1.6c0-.4.2-.7.6-.7h.2c.3 0 .6.3.6.7v1.6zM204.1 51.7V50c0-.4.2-.7.6-.7h.2c.3 0 .6.3.6.7v1.6h-1.2c-.1.1-.2.1-.2.1" class="st6"/><path d="M215.8 51.7c.6-.1 1.2.4 1.3 1V62c-.1.6-.7 1.1-1.3 1h-11.6c-.6.1-1.2-.4-1.3-1v-9.2c.1-.6.7-1.1 1.3-1h11.6z" class="st2"/><path d="M215.8 51.7c.6-.1 1.2.4 1.3 1V62c-.1.6-.7 1.1-1.3 1h-11.6c-.6.1-1.2-.4-1.3-1v-9.2c.1-.6.7-1.1 1.3-1h11.6z" class="st3"/><path d="M215.8 51.7c.6-.1 1.2.4 1.3 1V62c-.1.6-.7 1.1-1.3 1h-11.6c-.6.1-1.2-.4-1.3-1v-9.2c.1-.6.7-1.1 1.3-1h11.6z" class="st4"/><path d="M221.5 126.6v-.5h-.2l-.1-.1-.1-.1-.1-.1v-.1l-.1-.1v-.1l.1-.1v-.1l.1-.1.1-.1.1-.1h.2v-.4h1v2h-2.4zM220.9 123.3v-.1l.1-.1v-.1l.1-.1.1-.1h.1l.1-.1h.1v-.3h1v2h-1v-.5l-.1-.1h-.1l-.1-.1h-.1l-.1-.1v-.1zM220.9 121.1v-.2l.1-.1v-.1l.1-.1.1-.1h.1l.1-.1h.1v-.3h1v2h-1v-.5h-.1l-.1-.1h-.1l-.1-.1-.1-.1v-.1zM220.9 118.8v-.1l.1-.1v-.2l.1-.1h.1l.1-.1h.2v-.4h1v2h-1v-.5h-.1l-.1-.1h-.1l-.1-.1-.1-.1v-.1zM216.3 119.8v-2h.9v.4h.3l.1.1h.1v.1l.1.2v.3l-.1.1v.1l-.1.1h-.1l-.1.1h-.2v.5zM216.3 122.1v-2h.9v.3h.2l.1.1h.1l.1.1v.1l.1.1v.4l-.1.1v.1l-.1.1h-.1l-.1.1h-.2v.5zM216.3 124.4v-2h.9v.3h.2l.1.1h.1l.1.1v.1l.1.1v.4l-.1.1v.1h-.1l-.1.1h-.1l-.2.1v.5zM216.3 126.6v-2h.9v.4h.3l.1.1.1.1v.1l.1.1v.3l-.1.1v.1l-.1.1-.1.1h-.3v.5h1.5z" class="st1"/><g id="LWPOLYLINE-8"><path d="M217.2 117.7h4.3v.5h-.2l-.1.1h-.1l-.1.2v.1l-.1.1v.1l.1.1v.1l.1.1.1.1.1.1h.2v1.1l-.1.1h-.2l-.1.1-.1.1v.1l-.1.2v.1l.1.1v.1l.1.1.1.1h.1l.1.1h.1v1.1h-.1l-.1.1h-.1l-.1.1-.1.1v.1l-.1.1v.1l.1.2v.1l.1.1h.1l.1.1h.1l.1.1v1.1h-.2l-.1.1-.1.1-.1.1v.1l-.1.1v.1l.1.1v.2h.1l.1.1.1.1h.2v.5h-4.3v-.5h.3l.1-.1.1-.1.1-.2v-.3l-.1-.1v-.1l-.1-.1-.1-.1h-.3v-1.1l.2-.1h.1l.1-.1h.1v-.1l.1-.1v-.4l-.1-.1v-.1l-.1-.1h-.1l-.1-.1h-.2v-1.1h.2l.1-.1h.1l.1-.1v-.1l.1-.1v-.4l-.1-.1v-.1l-.1-.1h-.2l-.2-.1v-1.1h.3l.1-.1.1-.1v-.1l.1-.1v-.3l-.1-.1v-.2h-.1l-.1-.1h-.3z" class="st5"/><path d="M217.2 117.7h4.3v.5h-.2l-.1.1h-.1l-.1.2v.1l-.1.1v.1l.1.1v.1l.1.1.1.1.1.1h.2v1.1l-.1.1h-.2l-.1.1-.1.1v.1l-.1.2v.1l.1.1v.1l.1.1.1.1h.1l.1.1h.1v1.1h-.1l-.1.1h-.1l-.1.1-.1.1v.1l-.1.1v.1l.1.2v.1l.1.1h.1l.1.1h.1l.1.1v1.1h-.2l-.1.1-.1.1-.1.1v.1l-.1.1v.1l.1.1v.2h.1l.1.1.1.1h.2v.5h-4.3v-.5h.3l.1-.1.1-.1.1-.2v-.3l-.1-.1v-.1l-.1-.1-.1-.1h-.3v-1.1l.2-.1h.1l.1-.1h.1v-.1l.1-.1v-.4l-.1-.1v-.1l-.1-.1h-.1l-.1-.1h-.2v-1.1h.2l.1-.1h.1l.1-.1v-.1l.1-.1v-.4l-.1-.1v-.1l-.1-.1h-.2l-.2-.1v-1.1h.3l.1-.1.1-.1v-.1l.1-.1v-.3l-.1-.1v-.2h-.1l-.1-.1h-.3z" class="st2"/><path d="M217.2 117.7h4.3v.5h-.2l-.1.1h-.1l-.1.2v.1l-.1.1v.1l.1.1v.1l.1.1.1.1.1.1h.2v1.1l-.1.1h-.2l-.1.1-.1.1v.1l-.1.2v.1l.1.1v.1l.1.1.1.1h.1l.1.1h.1v1.1h-.1l-.1.1h-.1l-.1.1-.1.1v.1l-.1.1v.1l.1.2v.1l.1.1h.1l.1.1h.1l.1.1v1.1h-.2l-.1.1-.1.1-.1.1v.1l-.1.1v.1l.1.1v.2h.1l.1.1.1.1h.2v.5h-4.3v-.5h.3l.1-.1.1-.1.1-.2v-.3l-.1-.1v-.1l-.1-.1-.1-.1h-.3v-1.1l.2-.1h.1l.1-.1h.1v-.1l.1-.1v-.4l-.1-.1v-.1l-.1-.1h-.1l-.1-.1h-.2v-1.1h.2l.1-.1h.1l.1-.1v-.1l.1-.1v-.4l-.1-.1v-.1l-.1-.1h-.2l-.2-.1v-1.1h.3l.1-.1.1-.1v-.1l.1-.1v-.3l-.1-.1v-.2h-.1l-.1-.1h-.3z" class="st3"/><path d="M217.2 117.7h4.3v.5h-.2l-.1.1h-.1l-.1.2v.1l-.1.1v.1l.1.1v.1l.1.1.1.1.1.1h.2v1.1l-.1.1h-.2l-.1.1-.1.1v.1l-.1.2v.1l.1.1v.1l.1.1.1.1h.1l.1.1h.1v1.1h-.1l-.1.1h-.1l-.1.1-.1.1v.1l-.1.1v.1l.1.2v.1l.1.1h.1l.1.1h.1l.1.1v1.1h-.2l-.1.1-.1.1-.1.1v.1l-.1.1v.1l.1.1v.2h.1l.1.1.1.1h.2v.5h-4.3v-.5h.3l.1-.1.1-.1.1-.2v-.3l-.1-.1v-.1l-.1-.1-.1-.1h-.3v-1.1l.2-.1h.1l.1-.1h.1v-.1l.1-.1v-.4l-.1-.1v-.1l-.1-.1h-.1l-.1-.1h-.2v-1.1h.2l.1-.1h.1l.1-.1v-.1l.1-.1v-.4l-.1-.1v-.1l-.1-.1h-.2l-.2-.1v-1.1h.3l.1-.1.1-.1v-.1l.1-.1v-.3l-.1-.1v-.2h-.1l-.1-.1h-.3z" class="st4"/></g><path d="M137.4 105.5V104h2.4v1.6zM137.4 109.2v-1.6h2.4v1.6zM143.5 107.4v-1.6h2.2v1.6zM143.5 104.3v1.3h2.2V104h-2.3zM137.4 107.4v-1.6h2.4v1.6zM143.5 109.2c0-.1 0-.1.1-.2v-1.4h2.2v1.6z" class="st1"/><path d="M143.5 107v-.9h.9c.2 0 .4.2.4.4s-.2.4-.4.4zM143.5 108.8v-.9h.9c.2 0 .4.2.4.4s-.2.4-.4.4h-.9zM143.5 105.1v-.9h.9c.2 0 .4.2.4.4s-.2.4-.4.4h-.9zM138.5 106.5c0-.2.2-.4.4-.4h.9v.9h-.9c-.2 0-.4-.2-.4-.5M138.5 104.7c0-.2.2-.4.4-.4h.9v.9h-.9c-.2-.1-.4-.3-.4-.5M138.5 108.4c0-.2.2-.4.4-.4h.9v.9h-.9c-.2-.1-.4-.3-.4-.5" class="st6"/><path d="M143.5 104.3c0-.2 0-.3-.1-.3" class="st16"/><path d="M143.5 104.3c0-.2 0-.3-.1-.3" class="st16"/><path d="M143.5 104.3c0-.2 0-.3-.1-.3" class="st16"/><path d="M139.8 103.8h3.3c.2 0 .4.2.4.4v4.8c0 .2-.2.4-.4.4h-2.9c-.2 0-.4-.2-.4-.4z" class="st5"/><path d="M139.8 103.8h3.3c.2 0 .4.2.4.4v4.8c0 .2-.2.4-.4.4h-2.9c-.2 0-.4-.2-.4-.4z" class="st3"/><path d="M139.8 103.8h3.3c.2 0 .4.2.4.4v4.8c0 .2-.2.4-.4.4h-2.9c-.2 0-.4-.2-.4-.4zM39.5 53.6h12.2l2.3 2.3V68l-2.3 2.3H39.5L37.3 68V55.8z" class="st4"/><path d="M176.7 128.4c-1.6 0-2.8 1.3-2.8 2.8s1.3 2.8 2.8 2.8c1.6 0 2.8-1.3 2.8-2.8 0-1.6-1.3-2.8-2.8-2.8M186.6 128.4c-1.6 0-2.8 1.3-2.8 2.8 0 1.6 1.3 2.8 2.8 2.8 1.6 0 2.8-1.3 2.8-2.8 0-1.6-1.3-2.8-2.8-2.8M196.5 128.4c-1.6 0-2.8 1.3-2.8 2.8 0 1.6 1.3 2.8 2.8 2.8 1.6 0 2.8-1.3 2.8-2.8 0-1.6-1.2-2.8-2.8-2.8M206.4 128.4c-1.6 0-2.8 1.3-2.8 2.8 0 1.6 1.3 2.8 2.8 2.8 1.6 0 2.8-1.3 2.8-2.8.1-1.6-1.2-2.8-2.8-2.8M136.9 128.4c-1.6 0-2.8 1.3-2.8 2.8 0 1.6 1.3 2.8 2.8 2.8 1.6 0 2.8-1.3 2.8-2.8.1-1.6-1.2-2.8-2.8-2.8M146.9 128.4c-1.6 0-2.8 1.3-2.8 2.8 0 1.6 1.3 2.8 2.8 2.8 1.6 0 2.8-1.3 2.8-2.8 0-1.6-1.3-2.8-2.8-2.8M156.8 128.4c-1.6 0-2.8 1.3-2.8 2.8 0 1.6 1.3 2.8 2.8 2.8 1.6 0 2.8-1.3 2.8-2.8 0-1.6-1.3-2.8-2.8-2.8M166.7 128.4c-1.6 0-2.8 1.3-2.8 2.8 0 1.6 1.3 2.8 2.8 2.8 1.6 0 2.8-1.3 2.8-2.8 0-1.6-1.2-2.8-2.8-2.8" class="st1"/><path d="M171.6 121.2v19.9h39.7v-19.9z" class="st2"/><path d="M171.6 121.2v19.9h39.7v-19.9z" class="st17"/><path d="M176.5 135.1c2.3 0 4.3-1.9 4.3-4.3 0-2.3-1.9-4.3-4.3-4.3s-4.3 1.9-4.3 4.3c.1 2.4 2 4.3 4.3 4.3" class="st6"/><path id="LWPOLYLINE-9" d="M186.5 135.1c2.3 0 4.3-1.9 4.3-4.3s-1.9-4.3-4.3-4.3c-2.3 0-4.3 1.9-4.3 4.3s1.9 4.3 4.3 4.3" class="st6"/><path id="LWPOLYLINE-10" d="M196.4 135.1c2.3 0 4.3-1.9 4.3-4.3s-1.9-4.3-4.3-4.3c-2.3 0-4.3 1.9-4.3 4.3s1.9 4.3 4.3 4.3" class="st6"/><path id="LWPOLYLINE-11" d="M206.3 135.1c2.3 0 4.3-1.9 4.3-4.3s-1.9-4.3-4.3-4.3-4.3 1.9-4.3 4.3c.1 2.4 2 4.3 4.3 4.3" class="st6"/><path d="m172.497 131.42 7.75-1.984.248.969-7.75 1.984z" class="st1"/><path id="LWPOLYLINE-12" d="M182.5 130.4h8v1h-8z" class="st1" transform="rotate(-45 186.468 130.864)"/><path id="LWPOLYLINE-13" d="M195.9 126.9h1v8h-1z" class="st1" transform="rotate(-68.28 196.382 130.865)"/><path id="LWPOLYLINE-14" d="M202.3 130.4h8v1h-8z" class="st1" transform="rotate(-45 206.311 130.864)"/><path d="M131.6 121.2v19.9h39.7v-19.9z" class="st2"/><path d="M131.6 121.2v19.9h39.7v-19.9z" class="st17"/><path d="M136.5 135.1c2.3 0 4.3-1.9 4.3-4.3s-1.9-4.3-4.3-4.3c-2.3 0-4.3 1.9-4.3 4.3.1 2.4 2 4.3 4.3 4.3" class="st6"/><path id="LWPOLYLINE-15" d="M146.5 135.1c2.3 0 4.3-1.9 4.3-4.3s-1.9-4.3-4.3-4.3c-2.3 0-4.3 1.9-4.3 4.3s1.9 4.3 4.3 4.3" class="st6"/><path id="LWPOLYLINE-16" d="M156.4 135.1c2.3 0 4.3-1.9 4.3-4.3s-1.9-4.3-4.3-4.3c-2.3 0-4.3 1.9-4.3 4.3s1.9 4.3 4.3 4.3" class="st6"/><path id="LWPOLYLINE-17" d="M166.3 135.1c2.3 0 4.3-1.9 4.3-4.3s-1.9-4.3-4.3-4.3c-2.3 0-4.3 1.9-4.3 4.3.1 2.4 2 4.3 4.3 4.3" class="st6"/><path d="m132.499 131.416 7.75-1.984.247.97-7.75 1.983z" class="st1"/><path id="LWPOLYLINE-18" d="M142.5 130.4h8v1h-8z" class="st1" transform="rotate(-45 146.46 130.864)"/><path id="LWPOLYLINE-19" d="M155.9 126.9h1v8h-1z" class="st1" transform="rotate(-68.28 156.375 130.864)"/><path id="LWPOLYLINE-20" d="M162.3 130.4h8v1h-8z" class="st1" transform="rotate(-45 166.303 130.864)"/><path d="M131.7 138.5h39.6v2.5h-39.6zM171.6 138.5h39.6v2.5h-39.6z" class="st18"/><path id="LWPOLYLINE-21" d="M202.1 124.1h8.2v1.4h-8.2z" class="st4"/><path id="LWPOLYLINE-22" d="M192.3 124.1h8.2v1.4h-8.2z" class="st4"/><path id="LWPOLYLINE-23" d="M182.3 124.1h8.2v1.4h-8.2z" class="st4"/><path id="LWPOLYLINE-24" d="M173.1 124.1h7.7v1.4h-7.7z" class="st4"/><path id="LWPOLYLINE-25" d="M201.4 136.6c.4 0 .8-.4.8-.8s-.4-.8-.8-.8-.8.4-.8.8c-.1.5.3.8.8.8" class="st4"/><path id="LWPOLYLINE-26" d="M181.5 136.5c.4 0 .8-.4.8-.8s-.4-.8-.8-.8-.8.4-.8.8c0 .5.4.8.8.8" class="st4"/><path id="LWPOLYLINE-27" d="M162.1 124.1h8.2v1.4h-8.2z" class="st4"/><path id="LWPOLYLINE-28" d="M152.3 124.1h8.2v1.4h-8.2z" class="st4"/><path id="LWPOLYLINE-29" d="M142.3 124.1h8.2v1.4h-8.2z" class="st4"/><path id="LWPOLYLINE-30" d="M133.1 124.1h7.7v1.4h-7.7z" class="st4"/><path id="LWPOLYLINE-31" d="M161.3 136.6c.4 0 .8-.4.8-.8s-.4-.8-.8-.8-.8.4-.8.8c0 .5.4.8.8.8" class="st4"/><path id="LWPOLYLINE-32" d="M141.5 136.5c.4 0 .8-.4.8-.8s-.4-.8-.8-.8-.8.4-.8.8c0 .5.4.8.8.8" class="st4"/><path d="M166.2 13.2c1.6 0 2.8-1.3 2.8-2.8s-1.3-2.8-2.8-2.8-2.8 1.3-2.8 2.8 1.2 2.8 2.8 2.8M156.3 13.2c1.6 0 2.8-1.3 2.8-2.8s-1.3-2.8-2.8-2.8c-1.6 0-2.8 1.3-2.8 2.8-.1 1.5 1.2 2.8 2.8 2.8M146.4 13.2c1.6 0 2.8-1.3 2.8-2.8 0-1.6-1.3-2.8-2.8-2.8s-2.8 1.3-2.8 2.8c-.1 1.5 1.2 2.8 2.8 2.8M136.4 13.2c1.6 0 2.8-1.3 2.8-2.8 0-1.6-1.3-2.8-2.8-2.8-1.6 0-2.8 1.3-2.8 2.8s1.3 2.8 2.8 2.8M205.9 13.2c1.6 0 2.8-1.3 2.8-2.8 0-1.6-1.3-2.8-2.8-2.8-1.6 0-2.8 1.3-2.8 2.8s1.2 2.8 2.8 2.8M196 13.2c1.6 0 2.8-1.3 2.8-2.8 0-1.6-1.3-2.8-2.8-2.8s-2.8 1.3-2.8 2.8 1.2 2.8 2.8 2.8M186.1 13.2c1.6 0 2.8-1.3 2.8-2.8 0-1.6-1.3-2.8-2.8-2.8s-2.8 1.3-2.8 2.8c-.1 1.5 1.2 2.8 2.8 2.8M176.1 13.2c1.6 0 2.8-1.3 2.8-2.8 0-1.6-1.3-2.8-2.8-2.8-1.6 0-2.8 1.3-2.8 2.8s1.3 2.8 2.8 2.8" class="st1"/><path d="M171.3 20.3V.5h-39.7v19.8z" class="st2"/><path d="M171.3 20.3V.5h-39.7v19.8z" class="st17"/><path d="M166.3 6.4c-2.3 0-4.3 1.9-4.3 4.3 0 2.3 1.9 4.3 4.3 4.3 2.3 0 4.3-1.9 4.3-4.3s-1.9-4.3-4.3-4.3" class="st6"/><path id="LWPOLYLINE-33" d="M156.4 6.4c-2.3 0-4.3 1.9-4.3 4.3s1.9 4.3 4.3 4.3c2.3 0 4.3-1.9 4.3-4.3-.1-2.4-2-4.3-4.3-4.3" class="st6"/><path id="LWPOLYLINE-34" d="M146.5 6.4c-2.3 0-4.3 1.9-4.3 4.3s1.9 4.3 4.3 4.3c2.3 0 4.3-1.9 4.3-4.3-.1-2.4-2-4.3-4.3-4.3" class="st6"/><path id="LWPOLYLINE-35" d="M136.5 6.4c-2.3 0-4.3 1.9-4.3 4.3s1.9 4.3 4.3 4.3c2.3 0 4.3-1.9 4.3-4.3s-1.9-4.3-4.3-4.3" class="st6"/><path d="m162.3 11.215 7.749-1.984.248.968-7.75 1.984z" class="st1"/><path id="LWPOLYLINE-36" d="M152.4 10.2h8v1h-8z" class="st1" transform="rotate(-45 156.382 10.674)"/><path id="LWPOLYLINE-37" d="M146 6.7h1v8h-1z" class="st1" transform="rotate(-68.28 146.456 10.675)"/><path id="LWPOLYLINE-38" d="M132.5 10.2h8v1h-8z" class="st1" transform="rotate(-45 136.539 10.674)"/><path d="M211.3 20.3V.5h-39.7v19.8z" class="st2"/><path d="M211.3 20.3V.5h-39.7v19.8z" class="st17"/><path d="M206.3 6.4c-2.3 0-4.3 1.9-4.3 4.3 0 2.3 1.9 4.3 4.3 4.3 2.3 0 4.3-1.9 4.3-4.3s-1.9-4.3-4.3-4.3" class="st6"/><path id="LWPOLYLINE-39" d="M196.4 6.4c-2.3 0-4.3 1.9-4.3 4.3s1.9 4.3 4.3 4.3c2.3 0 4.3-1.9 4.3-4.3-.1-2.4-2-4.3-4.3-4.3" class="st6"/><path id="LWPOLYLINE-40" d="M186.5 6.4c-2.3 0-4.3 1.9-4.3 4.3s1.9 4.3 4.3 4.3c2.3 0 4.3-1.9 4.3-4.3-.1-2.4-2-4.3-4.3-4.3" class="st6"/><path id="LWPOLYLINE-41" d="M176.5 6.4c-2.3 0-4.3 1.9-4.3 4.3s1.9 4.3 4.3 4.3c2.3 0 4.3-1.9 4.3-4.3s-1.9-4.3-4.3-4.3" class="st6"/><path d="m202.298 11.219 7.75-1.984.247.968-7.75 1.984z" class="st1"/><path id="LWPOLYLINE-42" d="M192.4 10.2h8v1h-8z" class="st1" transform="rotate(-45 196.39 10.674)"/><path id="LWPOLYLINE-43" d="M186 6.7h1v8h-1z" class="st1" transform="rotate(-68.28 186.463 10.676)"/><path id="LWPOLYLINE-44" d="M172.5 10.2h8v1h-8z" class="st1" transform="rotate(-45 176.547 10.674)"/><path d="M171.6.5h39.6V3h-39.6zM131.6.5h39.6V3h-39.6z" class="st18"/><path id="LWPOLYLINE-45" d="M132.6 16.1h8.2v1.4h-8.2z" class="st4"/><path id="LWPOLYLINE-46" d="M142.4 16.1h8.2v1.4h-8.2z" class="st4"/><path id="LWPOLYLINE-47" d="M152.3 16.1h8.2v1.4h-8.2z" class="st4"/><path id="LWPOLYLINE-48" d="M162 16.1h7.7v1.4H162z" class="st4"/><path id="LWPOLYLINE-49" d="M141.5 4.9c-.4 0-.8.4-.8.8s.4.8.8.8.8-.4.8-.8-.4-.8-.8-.8" class="st4"/><path id="LWPOLYLINE-50" d="M161.3 5c-.4 0-.8.4-.8.8s.4.8.8.8.8-.4.8-.8-.3-.8-.8-.8" class="st4"/><path id="LWPOLYLINE-51" d="M172.6 16.1h8.2v1.4h-8.2z" class="st4"/><path id="LWPOLYLINE-52" d="M182.4 16.1h8.2v1.4h-8.2z" class="st4"/><path id="LWPOLYLINE-53" d="M192.3 16.1h8.2v1.4h-8.2z" class="st4"/><path id="LWPOLYLINE-54" d="M202 16.1h7.7v1.4H202z" class="st4"/><path id="LWPOLYLINE-55" d="M181.5 4.9c-.4 0-.8.4-.8.8s.4.8.8.8.8-.4.8-.8-.3-.8-.8-.8" class="st4"/><path id="LWPOLYLINE-56" d="M201.3 5c-.4 0-.8.4-.8.8s.4.8.8.8.8-.4.8-.8-.3-.8-.8-.8" class="st4"/><path d="M13.7 56.1c0-1.6-1.3-2.8-2.8-2.8-1.6 0-2.8 1.3-2.8 2.8 0 1.6 1.3 2.8 2.8 2.8s2.8-1.3 2.8-2.8M13.7 66c0-1.6-1.3-2.8-2.8-2.8C9.3 63.2 8 64.4 8 66s1.3 2.8 2.8 2.8c1.6 0 2.9-1.3 2.9-2.8M13.7 75.9c0-1.6-1.3-2.8-2.8-2.8-1.6 0-2.8 1.3-2.8 2.8 0 1.6 1.3 2.8 2.8 2.8s2.8-1.2 2.8-2.8M13.7 85.8c0-1.6-1.3-2.8-2.8-2.8C9.3 83 8 84.3 8 85.8c0 1.6 1.3 2.8 2.8 2.8 1.6.1 2.9-1.2 2.9-2.8" class="st1"/><path d="M20.8 51H1v39.7h19.8z" class="st2"/><path d="M20.8 51H1v39.7h19.8z" class="st17"/><path d="M6.9 56c0 2.3 1.9 4.3 4.3 4.3 2.3 0 4.3-1.9 4.3-4.3 0-2.3-1.9-4.3-4.3-4.3S6.9 53.6 6.9 56" class="st6"/><path id="LWPOLYLINE-57" d="M6.9 65.9c0 2.3 1.9 4.3 4.3 4.3s4.3-1.9 4.3-4.3c0-2.3-1.9-4.3-4.3-4.3s-4.3 1.9-4.3 4.3" class="st6"/><path id="LWPOLYLINE-58" d="M6.9 75.8c0 2.3 1.9 4.3 4.3 4.3s4.3-1.9 4.3-4.3c0-2.3-1.9-4.3-4.3-4.3s-4.3 1.9-4.3 4.3" class="st6"/><path id="LWPOLYLINE-59" d="M6.9 85.7c0 2.3 1.9 4.3 4.3 4.3s4.3-1.9 4.3-4.3c0-2.3-1.9-4.3-4.3-4.3-2.4.1-4.3 2-4.3 4.3" class="st6"/><path d="m9.707 52.142.968-.249 1.988 7.75-.968.248z" class="st1"/><path id="LWPOLYLINE-60" d="M10.7 61.9h1v8h-1z" class="st1" transform="rotate(-44.992 11.168 65.874)"/><path id="LWPOLYLINE-61" d="M7.2 75.3h8v1h-8z" class="st1" transform="rotate(-68.291 11.169 75.8)"/><path id="LWPOLYLINE-62" d="M10.7 81.7h1v8h-1z" class="st1" transform="rotate(-44.992 11.172 85.725)"/><path d="M1 51h2.5v39.6H1z" class="st18"/><path id="LWPOLYLINE-63" d="M16.6 81.5H18v8.2h-1.4z" class="st4"/><path id="LWPOLYLINE-64" d="M16.6 71.7H18v8.2h-1.4z" class="st4"/><path id="LWPOLYLINE-65" d="M16.6 61.7H18v8.2h-1.4z" class="st4"/><path id="LWPOLYLINE-66" d="M16.6 52.5H18v7.7h-1.4z" class="st4"/><path id="LWPOLYLINE-67" d="M5.4 80.8c0 .4.4.8.8.8s.8-.4.8-.8-.3-.8-.8-.8c-.4 0-.8.3-.8.8" class="st4"/><path id="LWPOLYLINE-68" d="M5.5 60.9c0 .4.4.8.8.8s.8-.4.8-.8-.4-.8-.8-.8-.8.4-.8.8" class="st4"/><path d="M135 89.5h1.4v1.9H135z" class="st4"/><path d="M135 89.5h1.4v1.9H135z" class="st2"/><path d="M135 89.5h1.4v1.9H135z" class="st3"/><path d="M135 89.5h1.4v1.9H135zM140.6 81.1h1.4v2h-1.4z" class="st4"/><path d="M140.6 81.1h1.4v2h-1.4z" class="st2"/><path d="M140.6 81.1h1.4v2h-1.4z" class="st3"/><path d="M140.6 81.1h1.4v2h-1.4zM218.4 49.8h2v1.4h-2z" class="st4"/><path d="M218.4 49.8h2v1.4h-2z" class="st2"/><path d="M218.4 49.8h2v1.4h-2z" class="st3"/><path d="M218.4 49.8h2v1.4h-2zM162.4 90h2v1.4h-2z" class="st4"/><path d="M162.4 90h2v1.4h-2z" class="st2"/><path d="M162.4 90h2v1.4h-2z" class="st3"/><path d="M162.4 90h2v1.4h-2zM17.8 113.4h1.9v1.4h-1.9z" class="st4"/><path d="M17.8 113.4h1.9v1.4h-1.9z" class="st2"/><path d="M17.8 113.4h1.9v1.4h-1.9z" class="st3"/><path d="M17.8 113.4h1.9v1.4h-1.9zM71.1 91.7h1.4v1.9h-1.4z" class="st4"/><path d="M71.1 91.7h1.4v1.9h-1.4z" class="st2"/><path d="M71.1 91.7h1.4v1.9h-1.4z" class="st3"/><path d="M71.1 91.7h1.4v1.9h-1.4zM196.9 32h2v1.4h-2z" class="st4"/><path d="M196.9 32h2v1.4h-2z" class="st2"/><path d="M196.9 32h2v1.4h-2z" class="st3"/><path d="M196.9 32h2v1.4h-2zM146.1 80.9h1.4v1.9h-1.4z" class="st4"/><path d="M146.1 80.9h1.4v1.9h-1.4z" class="st2"/><path d="M146.1 80.9h1.4v1.9h-1.4z" class="st3"/><path d="M146.1 80.9h1.4v1.9h-1.4zM203.7 97.7h2v1.4h-2z" class="st4"/><path d="M203.7 97.7h2v1.4h-2z" class="st2"/><path d="M203.7 97.7h2v1.4h-2z" class="st3"/><path d="M203.7 97.7h2v1.4h-2zM161.4 117.3h1.9v1.4h-1.9z" class="st4"/><path d="M161.4 117.3h1.9v1.4h-1.9z" class="st2"/><path d="M161.4 117.3h1.9v1.4h-1.9z" class="st3"/><path d="M161.4 117.3h1.9v1.4h-1.9zM170 85h1.9v1.4H170z" class="st4"/><path d="M170 85h1.9v1.4H170z" class="st2"/><path d="M170 85h1.9v1.4H170z" class="st3"/><path d="M170 85h1.9v1.4H170zM167.7 92.9h1.4v1.9h-1.4z" class="st4"/><path d="M167.7 92.9h1.4v1.9h-1.4z" class="st2"/><path d="M167.7 92.9h1.4v1.9h-1.4z" class="st3"/><path d="M167.7 92.9h1.4v1.9h-1.4zM146.1 86.5h1.5v1.9h-1.5z" class="st4"/><path d="M146.1 86.5h1.5v1.9h-1.5z" class="st2"/><path d="M146.1 86.5h1.5v1.9h-1.5z" class="st3"/><path d="M146.1 86.5h1.5v1.9h-1.5zM31.4 70.7H30v-1.9h1.4z" class="st4"/><path d="M31.4 70.7H30v-1.9h1.4z" class="st2"/><path d="M31.4 70.7H30v-1.9h1.4z" class="st3"/><path d="M31.4 70.7H30v-1.9h1.4zM146.1 83.9h1.5v2h-1.5z" class="st4"/><path d="M146.1 83.9h1.5v2h-1.5z" class="st2"/><path d="M146.1 83.9h1.5v2h-1.5z" class="st3"/><path d="M146.1 83.9h1.5v2h-1.5zM102.1 82.8h1.4v1.9h-1.4z" class="st4"/><path d="M102.1 82.8h1.4v1.9h-1.4z" class="st2"/><path d="M102.1 82.8h1.4v1.9h-1.4z" class="st3"/><path d="M102.1 82.8h1.4v1.9h-1.4zM128.3 79.4h-2V78h2z" class="st4"/><path d="M128.3 79.4h-2V78h2z" class="st2"/><path d="M128.3 79.4h-2V78h2z" class="st3"/><path d="M128.3 79.4h-2V78h2zM164.2 117.3h1.9v1.4h-1.9z" class="st4"/><path d="M164.2 117.3h1.9v1.4h-1.9z" class="st2"/><path d="M164.2 117.3h1.9v1.4h-1.9z" class="st3"/><path d="M164.2 117.3h1.9v1.4h-1.9zM102.1 80.1h1.4v2h-1.4z" class="st4"/><path d="M102.1 80.1h1.4v2h-1.4z" class="st2"/><path d="M102.1 80.1h1.4v2h-1.4z" class="st3"/><path d="M102.1 80.1h1.4v2h-1.4zM155.8 88.6h1.4v2h-1.4z" class="st4"/><path d="M155.8 88.6h1.4v2h-1.4z" class="st2"/><path d="M155.8 88.6h1.4v2h-1.4z" class="st3"/><path d="M155.8 88.6h1.4v2h-1.4zM170.3 48.6h2V50h-2z" class="st4"/><path d="M170.3 48.6h2V50h-2z" class="st2"/><path d="M170.3 48.6h2V50h-2z" class="st3"/><path d="M170.3 48.6h2V50h-2zM180.2 84.1h1.4V86h-1.4z" class="st4"/><path d="M180.2 84.1h1.4V86h-1.4z" class="st2"/><path d="M180.2 84.1h1.4V86h-1.4z" class="st3"/><path d="M180.2 84.1h1.4V86h-1.4zM168.7 105.3h1.4v2h-1.4z" class="st4"/><path d="M168.7 105.3h1.4v2h-1.4z" class="st2"/><path d="M168.7 105.3h1.4v2h-1.4z" class="st3"/><path d="M168.7 105.3h1.4v2h-1.4zM17.8 106.6h1.9v1.4h-1.9z" class="st4"/><path d="M17.8 106.6h1.9v1.4h-1.9z" class="st2"/><path d="M17.8 106.6h1.9v1.4h-1.9z" class="st3"/><path d="M17.8 106.6h1.9v1.4h-1.9zM192.8 58.8h1.4v1.9h-1.4z" class="st4"/><path d="M192.8 58.8h1.4v1.9h-1.4z" class="st2"/><path d="M192.8 58.8h1.4v1.9h-1.4z" class="st3"/><path d="M192.8 58.8h1.4v1.9h-1.4zM187.3 55.7h1.4v2h-1.4z" class="st4"/><path d="M187.3 55.7h1.4v2h-1.4z" class="st2"/><path d="M187.3 55.7h1.4v2h-1.4z" class="st3"/><path d="M187.3 55.7h1.4v2h-1.4zM142.8 117.3h1.9v1.4h-1.9z" class="st4"/><path d="M142.8 117.3h1.9v1.4h-1.9z" class="st2"/><path d="M142.8 117.3h1.9v1.4h-1.9z" class="st3"/><path d="M142.8 117.3h1.9v1.4h-1.9zM167.3 85h1.9v1.4h-1.9z" class="st4"/><path d="M167.3 85h1.9v1.4h-1.9z" class="st2"/><path d="M167.3 85h1.9v1.4h-1.9z" class="st3"/><path d="M167.3 85h1.9v1.4h-1.9zM192.8 56h1.4v1.9h-1.4z" class="st4"/><path d="M192.8 56h1.4v1.9h-1.4z" class="st2"/><path d="M192.8 56h1.4v1.9h-1.4z" class="st3"/><path d="M192.8 56h1.4v1.9h-1.4zM140.1 117.3h2v1.4h-2z" class="st4"/><path d="M140.1 117.3h2v1.4h-2z" class="st2"/><path d="M140.1 117.3h2v1.4h-2z" class="st3"/><path d="M140.1 117.3h2v1.4h-2zM200 76.6h1.9V78H200z" class="st4"/><path d="M200 76.6h1.9V78H200z" class="st2"/><path d="M200 76.6h1.9V78H200z" class="st3"/><path d="M200 76.6h1.9V78H200zM152.9 22.7h2v1.4h-2z" class="st4"/><path d="M152.9 22.7h2v1.4h-2z" class="st2"/><path d="M152.9 22.7h2v1.4h-2z" class="st3"/><path d="M152.9 22.7h2v1.4h-2zM155.8 22.7h1.9v1.4h-1.9z" class="st4"/><path d="M155.8 22.7h1.9v1.4h-1.9z" class="st2"/><path d="M155.8 22.7h1.9v1.4h-1.9z" class="st3"/><path d="M155.8 22.7h1.9v1.4h-1.9zM119.2 82.1h1.4v2h-1.4z" class="st4"/><path d="M119.2 82.1h1.4v2h-1.4z" class="st2"/><path d="M119.2 82.1h1.4v2h-1.4z" class="st3"/><path d="M119.2 82.1h1.4v2h-1.4zM10.2 92.7h1.4v1.9h-1.4z" class="st4"/><path d="M10.2 92.7h1.4v1.9h-1.4z" class="st2"/><path d="M10.2 92.7h1.4v1.9h-1.4z" class="st3"/><path d="M10.2 92.7h1.4v1.9h-1.4zM218.4 64.8h2v1.4h-2z" class="st4"/><path d="M218.4 64.8h2v1.4h-2z" class="st2"/><path d="M218.4 64.8h2v1.4h-2z" class="st3"/><path d="M218.4 64.8h2v1.4h-2zM198.8 90h1.4v2h-1.4z" class="st4"/><path d="M198.8 90h1.4v2h-1.4z" class="st2"/><path d="M198.8 90h1.4v2h-1.4z" class="st3"/><path d="M198.8 90h1.4v2h-1.4zM142.9 22.7h1.9v1.4h-1.9z" class="st4"/><path d="M142.9 22.7h1.9v1.4h-1.9z" class="st2"/><path d="M142.9 22.7h1.9v1.4h-1.9z" class="st3"/><path d="M142.9 22.7h1.9v1.4h-1.9zM167.5 48.6h1.9V50h-1.9z" class="st4"/><path d="M167.5 48.6h1.9V50h-1.9z" class="st2"/><path d="M167.5 48.6h1.9V50h-1.9z" class="st3"/><path d="M167.5 48.6h1.9V50h-1.9zM145.9 22.7h2v1.4h-2z" class="st4"/><path d="M145.9 22.7h2v1.4h-2z" class="st2"/><path d="M145.9 22.7h2v1.4h-2z" class="st3"/><path d="M145.9 22.7h2v1.4h-2z" class="st4"/><path d="M154.4 39.6h4.9v4.9h-4.9z" class="st1"/><path d="M106.4 39.6c-1.3 0-2.4 1.1-2.4 2.4s1.1 2.4 2.4 2.4 2.4-1.1 2.4-2.4c.1-1.3-1-2.4-2.4-2.4M99.2 44.5c1.3 0 2.4-1.1 2.4-2.4s-1.1-2.4-2.4-2.4-2.4 1.1-2.4 2.4 1.1 2.4 2.4 2.4M92 39.6c-1.3 0-2.4 1.1-2.4 2.4s1.1 2.4 2.4 2.4 2.4-1.1 2.4-2.4c.1-1.3-1-2.4-2.4-2.4M84.8 39.6c-1.3 0-2.4 1.1-2.4 2.4s1.1 2.4 2.4 2.4 2.4-1.1 2.4-2.4c.1-1.3-1-2.4-2.4-2.4M77.6 44.5c1.3 0 2.4-1.1 2.4-2.4s-1.1-2.4-2.4-2.4-2.4 1.1-2.4 2.4 1.1 2.4 2.4 2.4M68 42.1c0 1.3 1.1 2.4 2.4 2.4s2.4-1.1 2.4-2.4-1.1-2.4-2.4-2.4c-1.3-.1-2.4 1-2.4 2.4M154.4 42.1c0 1.3 1.1 2.4 2.4 2.4s2.4-1.1 2.4-2.4-1.1-2.4-2.4-2.4c-1.3-.1-2.4 1-2.4 2.4M147.2 42.1c0 1.3 1.1 2.4 2.4 2.4s2.4-1.1 2.4-2.4-1.1-2.4-2.4-2.4c-1.3-.1-2.4 1-2.4 2.4M140 42.1c0 1.3 1.1 2.4 2.4 2.4s2.4-1.1 2.4-2.4-1.1-2.4-2.4-2.4c-1.3-.1-2.4 1-2.4 2.4M135.2 44.5c1.3 0 2.4-1.1 2.4-2.4s-1.1-2.4-2.4-2.4-2.4 1.1-2.4 2.4 1.1 2.4 2.4 2.4M130.5 42.1c0-1.3-1.1-2.4-2.4-2.4s-2.4 1.1-2.4 2.4 1.1 2.4 2.4 2.4 2.4-1.1 2.4-2.4M120.8 39.6c-1.3 0-2.4 1.1-2.4 2.4s1.1 2.4 2.4 2.4 2.4-1.1 2.4-2.4c.1-1.3-1-2.4-2.4-2.4M113.6 44.5c1.3 0 2.4-1.1 2.4-2.4s-1.1-2.4-2.4-2.4-2.4 1.1-2.4 2.4 1.1 2.4 2.4 2.4M154.4 99.7c0 1.3 1.1 2.4 2.4 2.4s2.4-1.1 2.4-2.4-1.1-2.4-2.4-2.4c-1.3-.1-2.4 1-2.4 2.4M106.4 97.2c-1.3 0-2.4 1.1-2.4 2.4s1.1 2.4 2.4 2.4 2.4-1.1 2.4-2.4c.1-1.3-1-2.4-2.4-2.4M99.2 102.1c1.3 0 2.4-1.1 2.4-2.4s-1.1-2.4-2.4-2.4-2.4 1.1-2.4 2.4 1.1 2.4 2.4 2.4M92 97.2c-1.3 0-2.4 1.1-2.4 2.4s1.1 2.4 2.4 2.4 2.4-1.1 2.4-2.4c.1-1.3-1-2.4-2.4-2.4M84.8 97.2c-1.3 0-2.4 1.1-2.4 2.4s1.1 2.4 2.4 2.4 2.4-1.1 2.4-2.4c.1-1.3-1-2.4-2.4-2.4M77.6 102.1c1.3 0 2.4-1.1 2.4-2.4s-1.1-2.4-2.4-2.4-2.4 1.1-2.4 2.4 1.1 2.4 2.4 2.4M68 99.7c0 1.3 1.1 2.4 2.4 2.4s2.4-1.1 2.4-2.4-1.1-2.4-2.4-2.4c-1.3-.1-2.4 1-2.4 2.4M147.2 99.7c0 1.3 1.1 2.4 2.4 2.4s2.4-1.1 2.4-2.4-1.1-2.4-2.4-2.4c-1.3-.1-2.4 1-2.4 2.4M140 99.7c0 1.3 1.1 2.4 2.4 2.4s2.4-1.1 2.4-2.4-1.1-2.4-2.4-2.4c-1.3-.1-2.4 1-2.4 2.4M135.2 102.1c1.3 0 2.4-1.1 2.4-2.4s-1.1-2.4-2.4-2.4-2.4 1.1-2.4 2.4 1.1 2.4 2.4 2.4M130.5 99.7c0-1.3-1.1-2.4-2.4-2.4s-2.4 1.1-2.4 2.4 1.1 2.4 2.4 2.4 2.4-1.1 2.4-2.4M120.8 97.2c-1.3 0-2.4 1.1-2.4 2.4s1.1 2.4 2.4 2.4 2.4-1.1 2.4-2.4c.1-1.3-1-2.4-2.4-2.4M113.6 102.1c1.3 0 2.4-1.1 2.4-2.4s-1.1-2.4-2.4-2.4-2.4 1.1-2.4 2.4 1.1 2.4 2.4 2.4" class="st19"/></svg>