<svg xmlns="http://www.w3.org/2000/svg" width="1920" height="1072" fill="none" viewBox="0 0 1920 1072"><path fill="#363636" d="M0 0h1920v1072H0z"/><rect width="339" height="672" x="790" y="235" fill="#fff" fill-opacity=".1" rx="4"/><g clip-path="url(#a)"><rect width="283" height="608" x="818" y="268" fill="#8c9091" rx="6"/><path fill="#fff" d="M902.993 343v-19.906h-.205l-8.668 3.131v3.308l5.031-1.804V343zm20.746-7.574v-4.758q0-1.927-.451-3.391-.451-1.476-1.285-2.474a5.5 5.5 0 0 0-2.051-1.491q-1.203-.505-2.707-.505-1.49 0-2.693.505a5.4 5.4 0 0 0-2.023 1.491q-.849.998-1.299 2.474-.451 1.464-.451 3.391v4.758q0 1.928.451 3.404.465 1.463 1.312 2.447a5.3 5.3 0 0 0 2.037 1.504q1.203.506 2.694.506 1.503 0 2.707-.506a5.3 5.3 0 0 0 2.037-1.504q.834-.984 1.271-2.447.451-1.476.451-3.404m-9.132-1.641v-3.719q0-1.107.164-1.914.177-.806.533-1.312.329-.478.807-.711a2.5 2.5 0 0 1 1.134-.246q.575 0 1.026.191.464.179.779.561.41.478.615 1.285.219.793.246 1.914zm5.304 2.215q0 1.107-.177 1.928-.164.806-.506 1.326a2.1 2.1 0 0 1-.821.738 2.6 2.6 0 0 1-1.134.233q-.698 0-1.203-.274a2.14 2.14 0 0 1-.834-.834q-.288-.465-.452-1.162a9 9 0 0 1-.177-1.6l5.304-3.937zm20.925-.574v-4.758q0-1.927-.451-3.391-.451-1.476-1.285-2.474a5.5 5.5 0 0 0-2.051-1.491q-1.204-.505-2.707-.505-1.491 0-2.694.505a5.4 5.4 0 0 0-2.023 1.491q-.848.998-1.299 2.474-.451 1.464-.451 3.391v4.758q0 1.928.451 3.404.464 1.463 1.313 2.447a5.3 5.3 0 0 0 2.037 1.504q1.203.506 2.693.506 1.504 0 2.707-.506a5.3 5.3 0 0 0 2.037-1.504q.834-.984 1.272-2.447.45-1.476.451-3.404m-9.133-1.641v-3.719q0-1.107.164-1.914.178-.806.533-1.312.329-.478.807-.711a2.5 2.5 0 0 1 1.135-.246q.574 0 1.025.191.465.179.779.561.41.478.616 1.285.218.793.246 1.914zm5.305 2.215q0 1.107-.178 1.928-.164.806-.506 1.326a2.1 2.1 0 0 1-.82.738 2.6 2.6 0 0 1-1.135.233q-.698 0-1.203-.274a2.15 2.15 0 0 1-.834-.834q-.287-.465-.451-1.162-.15-.697-.178-1.6l5.305-3.937zm17.274 7v-19.906h-.205l-8.668 3.131v3.308l5.031-1.804V343zm17.096 0v-19.906h-.205l-8.668 3.131v3.308l5.031-1.804V343zm20.747-7.574v-4.758q0-1.927-.451-3.391-.451-1.476-1.285-2.474a5.5 5.5 0 0 0-2.051-1.491q-1.203-.505-2.707-.505-1.49 0-2.693.505a5.4 5.4 0 0 0-2.024 1.491q-.848.998-1.299 2.474-.45 1.464-.451 3.391v4.758q0 1.928.451 3.404.465 1.463 1.313 2.447a5.3 5.3 0 0 0 2.037 1.504q1.203.506 2.693.506 1.504 0 2.707-.506a5.3 5.3 0 0 0 2.037-1.504q.834-.984 1.272-2.447.451-1.476.451-3.404m-9.133-1.641v-3.719q0-1.107.164-1.914.178-.806.534-1.312.327-.478.806-.711a2.5 2.5 0 0 1 1.135-.246q.575 0 1.025.191.465.179.78.561.41.478.615 1.285.219.793.246 1.914zm5.305 2.215q0 1.107-.178 1.928-.164.806-.506 1.326a2.1 2.1 0 0 1-.82.738 2.6 2.6 0 0 1-1.135.233q-.697 0-1.203-.274a2.15 2.15 0 0 1-.834-.834q-.287-.465-.451-1.162-.15-.697-.178-1.6l5.305-3.937zm17.273 7v-19.906h-.2l-8.672 3.131v3.308l5.032-1.804V343zm17.1 0v-19.906h-.21l-8.67 3.131v3.308l5.04-1.804V343zm-119.677 48v-19.906h-.205l-8.668 3.131v3.308l5.031-1.804V391zm17.096 0v-19.906h-.205l-8.668 3.131v3.308l5.031-1.804V391zm20.747-7.574v-4.758q0-1.927-.451-3.391-.451-1.476-1.285-2.474a5.5 5.5 0 0 0-2.051-1.491q-1.204-.505-2.707-.505-1.491 0-2.694.505a5.4 5.4 0 0 0-2.023 1.491q-.848.998-1.299 2.474-.451 1.464-.451 3.391v4.758q0 1.928.451 3.404.464 1.463 1.313 2.447a5.3 5.3 0 0 0 2.037 1.504q1.203.506 2.693.506 1.504 0 2.707-.506a5.3 5.3 0 0 0 2.037-1.504q.834-.984 1.272-2.447.45-1.476.451-3.404m-9.133-1.641v-3.719q0-1.107.164-1.914.178-.806.533-1.312.329-.478.807-.711a2.5 2.5 0 0 1 1.135-.246q.574 0 1.025.191.465.178.779.561.41.478.616 1.285.218.793.246 1.914zm5.305 2.215q0 1.107-.178 1.928-.164.806-.506 1.326a2.1 2.1 0 0 1-.82.738 2.6 2.6 0 0 1-1.135.233q-.698 0-1.203-.274a2.15 2.15 0 0 1-.834-.834q-.287-.465-.451-1.162-.15-.697-.178-1.6l5.305-3.937zm17.274 7v-19.906h-.205l-8.668 3.131v3.308l5.031-1.804V391zm17.096 0v-19.906h-.205l-8.668 3.131v3.308l5.031-1.804V391zm20.747-7.574v-4.758q0-1.927-.451-3.391-.451-1.476-1.285-2.474a5.5 5.5 0 0 0-2.051-1.491q-1.203-.505-2.707-.505-1.49 0-2.693.505a5.4 5.4 0 0 0-2.024 1.491q-.848.998-1.299 2.474-.45 1.464-.451 3.391v4.758q0 1.928.451 3.404.465 1.463 1.313 2.447a5.3 5.3 0 0 0 2.037 1.504q1.203.506 2.693.506 1.504 0 2.707-.506a5.3 5.3 0 0 0 2.037-1.504q.834-.984 1.272-2.447.451-1.476.451-3.404m-9.133-1.641v-3.719q0-1.107.164-1.914.178-.806.534-1.312.327-.478.806-.711a2.5 2.5 0 0 1 1.135-.246q.575 0 1.025.191.465.178.78.561.41.478.615 1.285.219.793.246 1.914zm5.305 2.215q0 1.107-.178 1.928-.164.806-.506 1.326a2.1 2.1 0 0 1-.82.738 2.6 2.6 0 0 1-1.135.233q-.697 0-1.203-.274a2.15 2.15 0 0 1-.834-.834q-.287-.465-.451-1.162-.15-.697-.178-1.6l5.305-3.937zm17.273 7v-19.906h-.2l-8.672 3.131v3.308l5.032-1.804V391zm20.75-7.574v-4.758q0-1.927-.45-3.391-.45-1.476-1.29-2.474a5.44 5.44 0 0 0-2.05-1.491c-.8-.337-1.7-.505-2.71-.505-.99 0-1.89.168-2.69.505-.79.338-1.47.834-2.02 1.491-.57.665-1 1.49-1.3 2.474q-.45 1.464-.45 3.391v4.758q0 1.928.45 3.404c.31.975.75 1.791 1.31 2.447a5.3 5.3 0 0 0 2.04 1.504c.8.337 1.7.506 2.69.506 1 0 1.91-.169 2.71-.506q1.2-.505 2.04-1.504c.55-.656.98-1.472 1.27-2.447q.45-1.476.45-3.404m-9.13-1.641v-3.719c0-.738.05-1.376.16-1.914.12-.537.3-.975.53-1.312q.33-.478.81-.711c.33-.164.71-.246 1.13-.246.39 0 .73.064 1.03.191q.465.178.78.561c.27.319.48.747.61 1.285.15.529.23 1.167.25 1.914zm5.3 2.215q0 1.107-.18 1.928c-.11.537-.28.98-.5 1.326-.22.328-.5.574-.82.738q-.495.233-1.14.233-.69 0-1.2-.274-.51-.273-.84-.834-.285-.465-.45-1.162a8.3 8.3 0 0 1-.17-1.6l5.3-3.937zm-119.497 55v-19.906h-.205l-8.668 3.131v3.308l5.031-1.804V439zm20.746-7.574v-4.758q0-1.927-.451-3.391-.451-1.476-1.285-2.474a5.5 5.5 0 0 0-2.051-1.491q-1.203-.505-2.707-.505-1.49 0-2.693.505a5.4 5.4 0 0 0-2.023 1.491q-.849.998-1.299 2.474-.451 1.464-.451 3.391v4.758q0 1.928.451 3.404.465 1.463 1.312 2.447a5.3 5.3 0 0 0 2.037 1.504q1.203.506 2.694.506 1.503 0 2.707-.506a5.3 5.3 0 0 0 2.037-1.504q.834-.984 1.271-2.447.451-1.476.451-3.404m-9.132-1.641v-3.719q0-1.107.164-1.914.177-.806.533-1.312.329-.478.807-.711a2.5 2.5 0 0 1 1.134-.246q.575 0 1.026.191.464.178.779.561.41.478.615 1.285.219.793.246 1.914zm5.304 2.215q0 1.107-.177 1.928-.164.806-.506 1.326a2.1 2.1 0 0 1-.821.738 2.6 2.6 0 0 1-1.134.233q-.698 0-1.203-.274a2.14 2.14 0 0 1-.834-.834q-.288-.465-.452-1.162a9 9 0 0 1-.177-1.6l5.304-3.937zm17.274 7v-19.906h-.205l-8.668 3.131v3.308l5.032-1.804V439zm20.747-7.574v-4.758q0-1.927-.451-3.391-.451-1.476-1.285-2.474a5.5 5.5 0 0 0-2.051-1.491q-1.203-.505-2.707-.505-1.49 0-2.693.505a5.4 5.4 0 0 0-2.024 1.491q-.848.998-1.298 2.474-.452 1.464-.452 3.391v4.758q0 1.928.452 3.404.464 1.463 1.312 2.447a5.3 5.3 0 0 0 2.037 1.504q1.203.506 2.693.506 1.504 0 2.708-.506a5.3 5.3 0 0 0 2.037-1.504q.833-.984 1.271-2.447.451-1.476.451-3.404m-9.133-1.641v-3.719q0-1.107.165-1.914.177-.806.533-1.312.327-.478.806-.711a2.5 2.5 0 0 1 1.135-.246q.575 0 1.026.191.464.178.779.561.41.478.615 1.285.219.793.246 1.914zm5.305 2.215q0 1.107-.178 1.928-.164.806-.505 1.326a2.1 2.1 0 0 1-.821.738 2.6 2.6 0 0 1-1.135.233q-.696 0-1.203-.274a2.15 2.15 0 0 1-.834-.834q-.286-.465-.451-1.162a9 9 0 0 1-.178-1.6l5.305-3.937zm17.274 7v-19.906h-.205l-8.668 3.131v3.308l5.031-1.804V439zm20.747-7.574v-4.758q0-1.927-.451-3.391-.451-1.476-1.285-2.474a5.5 5.5 0 0 0-2.051-1.491q-1.203-.505-2.707-.505-1.49 0-2.693.505a5.4 5.4 0 0 0-2.024 1.491q-.848.998-1.299 2.474-.45 1.464-.451 3.391v4.758q0 1.928.451 3.404.465 1.463 1.313 2.447a5.3 5.3 0 0 0 2.037 1.504q1.203.506 2.693.506 1.504 0 2.707-.506a5.3 5.3 0 0 0 2.037-1.504q.834-.984 1.272-2.447.451-1.476.451-3.404m-9.133-1.641v-3.719q0-1.107.164-1.914.178-.806.534-1.312.327-.478.806-.711a2.5 2.5 0 0 1 1.135-.246q.575 0 1.025.191.465.178.78.561.41.478.615 1.285.219.793.246 1.914zm5.305 2.215q0 1.107-.178 1.928-.164.806-.506 1.326a2.1 2.1 0 0 1-.82.738 2.6 2.6 0 0 1-1.135.233q-.697 0-1.203-.274a2.15 2.15 0 0 1-.834-.834q-.287-.465-.451-1.162-.15-.697-.178-1.6l5.305-3.937zm20.923-.574v-4.758q0-1.927-.45-3.391c-.3-.984-.73-1.809-1.28-2.474a5.5 5.5 0 0 0-2.06-1.491q-1.2-.505-2.7-.505c-1 0-1.89.168-2.7.505a5.4 5.4 0 0 0-2.019 1.491q-.849.998-1.299 2.474-.451 1.464-.451 3.391v4.758q0 1.928.451 3.404.465 1.463 1.312 2.447a5.3 5.3 0 0 0 2.036 1.504c.8.337 1.7.506 2.69.506 1.01 0 1.91-.169 2.71-.506q1.2-.505 2.04-1.504c.55-.656.98-1.472 1.27-2.447q.45-1.476.45-3.404m-9.13-1.641v-3.719c0-.738.05-1.376.16-1.914q.18-.806.54-1.312c.21-.319.48-.556.8-.711a2.5 2.5 0 0 1 1.14-.246q.57 0 1.02.191.465.178.78.561c.28.319.48.747.62 1.285.14.529.23 1.167.24 1.914zm5.3 2.215c0 .738-.06 1.381-.17 1.928q-.165.806-.51 1.326c-.22.328-.49.574-.82.738q-.495.233-1.14.233-.69 0-1.2-.274c-.34-.182-.61-.46-.83-.834q-.285-.465-.45-1.162a9 9 0 0 1-.18-1.6l5.3-3.937zm20.93-.574v-4.758q0-1.927-.45-3.391-.45-1.476-1.29-2.474a5.44 5.44 0 0 0-2.05-1.491c-.8-.337-1.7-.505-2.71-.505-.99 0-1.89.168-2.69.505-.79.338-1.47.834-2.02 1.491-.57.665-1 1.49-1.3 2.474q-.45 1.464-.45 3.391v4.758q0 1.928.45 3.404c.31.975.75 1.791 1.31 2.447a5.3 5.3 0 0 0 2.04 1.504c.8.337 1.7.506 2.69.506 1 0 1.91-.169 2.71-.506q1.2-.505 2.04-1.504c.55-.656.98-1.472 1.27-2.447q.45-1.476.45-3.404m-9.13-1.641v-3.719c0-.738.05-1.376.16-1.914.12-.537.3-.975.53-1.312q.33-.478.81-.711c.33-.164.71-.246 1.13-.246.39 0 .73.064 1.03.191q.465.178.78.561c.27.319.48.747.61 1.285.15.529.23 1.167.25 1.914zm5.3 2.215q0 1.107-.18 1.928c-.11.537-.28.98-.5 1.326-.22.328-.5.574-.82.738q-.495.233-1.14.233-.69 0-1.2-.274-.51-.273-.84-.834-.285-.465-.45-1.162a8.3 8.3 0 0 1-.17-1.6l5.3-3.937zm-119.497 55v-19.906h-.205l-8.668 3.131v3.308l5.031-1.804V487zm20.746-7.574v-4.758q0-1.927-.451-3.391-.451-1.476-1.285-2.474a5.5 5.5 0 0 0-2.051-1.491q-1.203-.505-2.707-.505-1.49 0-2.693.505a5.4 5.4 0 0 0-2.023 1.491q-.849.998-1.299 2.474-.451 1.464-.451 3.391v4.758q0 1.928.451 3.404.465 1.463 1.312 2.447a5.3 5.3 0 0 0 2.037 1.504q1.203.506 2.694.506 1.503 0 2.707-.506a5.3 5.3 0 0 0 2.037-1.504q.834-.984 1.271-2.447.451-1.476.451-3.404m-9.132-1.641v-3.719q0-1.107.164-1.914.177-.806.533-1.312.329-.478.807-.711a2.5 2.5 0 0 1 1.134-.246q.575 0 1.026.191.464.178.779.561.41.478.615 1.285.219.793.246 1.914zm5.304 2.215q0 1.107-.177 1.928-.164.806-.506 1.326a2.1 2.1 0 0 1-.821.738 2.6 2.6 0 0 1-1.134.233q-.698 0-1.203-.274a2.14 2.14 0 0 1-.834-.834q-.288-.465-.452-1.162a9 9 0 0 1-.177-1.6l5.304-3.937zm20.925-.574v-4.758q0-1.927-.451-3.391-.451-1.476-1.285-2.474a5.5 5.5 0 0 0-2.051-1.491q-1.204-.505-2.707-.505-1.491 0-2.694.505a5.4 5.4 0 0 0-2.023 1.491q-.848.998-1.299 2.474-.451 1.464-.451 3.391v4.758q0 1.928.451 3.404.464 1.463 1.313 2.447a5.3 5.3 0 0 0 2.037 1.504q1.203.506 2.693.506 1.504 0 2.707-.506a5.3 5.3 0 0 0 2.037-1.504q.834-.984 1.272-2.447.45-1.476.451-3.404m-9.133-1.641v-3.719q0-1.107.164-1.914.178-.806.533-1.312.329-.478.807-.711a2.5 2.5 0 0 1 1.135-.246q.574 0 1.025.191.465.178.779.561.41.478.616 1.285.218.793.246 1.914zm5.305 2.215q0 1.107-.178 1.928-.164.806-.506 1.326a2.1 2.1 0 0 1-.82.738 2.6 2.6 0 0 1-1.135.233q-.698 0-1.203-.274a2.15 2.15 0 0 1-.834-.834q-.287-.465-.451-1.162-.15-.697-.178-1.6l5.305-3.937zm17.274 7v-19.906h-.205l-8.668 3.131v3.308l5.031-1.804V487zm17.096 0v-19.906h-.205l-8.668 3.131v3.308l5.031-1.804V487zm20.747-7.574v-4.758q0-1.927-.451-3.391-.451-1.476-1.285-2.474a5.5 5.5 0 0 0-2.051-1.491q-1.203-.505-2.707-.505-1.49 0-2.693.505a5.4 5.4 0 0 0-2.024 1.491q-.848.998-1.299 2.474-.45 1.464-.451 3.391v4.758q0 1.928.451 3.404.465 1.463 1.313 2.447a5.3 5.3 0 0 0 2.037 1.504q1.203.506 2.693.506 1.504 0 2.707-.506a5.3 5.3 0 0 0 2.037-1.504q.834-.984 1.272-2.447.451-1.476.451-3.404m-9.133-1.641v-3.719q0-1.107.164-1.914.178-.806.534-1.312.327-.478.806-.711a2.5 2.5 0 0 1 1.135-.246q.575 0 1.025.191.465.178.78.561.41.478.615 1.285.219.793.246 1.914zm5.305 2.215q0 1.107-.178 1.928-.164.806-.506 1.326a2.1 2.1 0 0 1-.82.738 2.6 2.6 0 0 1-1.135.233q-.697 0-1.203-.274a2.15 2.15 0 0 1-.834-.834q-.287-.465-.451-1.162-.15-.697-.178-1.6l5.305-3.937zm17.273 7v-19.906h-.2l-8.672 3.131v3.308l5.032-1.804V487zm17.1 0v-19.906h-.21l-8.67 3.131v3.308l5.04-1.804V487zm-119.677 48v-19.906h-.205l-8.668 3.131v3.308l5.031-1.804V535zm17.096 0v-19.906h-.205l-8.668 3.131v3.308l5.031-1.804V535zm20.747-7.574v-4.758q0-1.927-.451-3.391-.451-1.476-1.285-2.474a5.5 5.5 0 0 0-2.051-1.491q-1.204-.505-2.707-.505-1.491 0-2.694.505a5.4 5.4 0 0 0-2.023 1.491q-.848.998-1.299 2.474-.451 1.464-.451 3.391v4.758q0 1.928.451 3.404.464 1.463 1.313 2.447a5.3 5.3 0 0 0 2.037 1.504q1.203.506 2.693.506 1.504 0 2.707-.506a5.3 5.3 0 0 0 2.037-1.504q.834-.984 1.272-2.447.45-1.476.451-3.404m-9.133-1.641v-3.719q0-1.107.164-1.914.178-.806.533-1.312.329-.479.807-.711a2.5 2.5 0 0 1 1.135-.246q.574 0 1.025.191.465.179.779.561.41.478.616 1.285.218.793.246 1.914zm5.305 2.215q0 1.107-.178 1.928-.164.806-.506 1.326a2.1 2.1 0 0 1-.82.738 2.6 2.6 0 0 1-1.135.233q-.698 0-1.203-.274a2.15 2.15 0 0 1-.834-.834q-.287-.465-.451-1.162-.15-.697-.178-1.6l5.305-3.937zm17.274 7v-19.906h-.205l-8.668 3.131v3.308l5.031-1.804V535zm17.096 0v-19.906h-.205l-8.668 3.131v3.308l5.031-1.804V535zm20.747-7.574v-4.758q0-1.927-.451-3.391-.451-1.476-1.285-2.474a5.5 5.5 0 0 0-2.051-1.491q-1.203-.505-2.707-.505-1.49 0-2.693.505a5.4 5.4 0 0 0-2.024 1.491q-.848.998-1.299 2.474-.45 1.464-.451 3.391v4.758q0 1.928.451 3.404.465 1.463 1.313 2.447a5.3 5.3 0 0 0 2.037 1.504q1.203.506 2.693.506 1.504 0 2.707-.506a5.3 5.3 0 0 0 2.037-1.504q.834-.984 1.272-2.447.451-1.476.451-3.404m-9.133-1.641v-3.719q0-1.107.164-1.914.178-.806.534-1.312.327-.479.806-.711a2.5 2.5 0 0 1 1.135-.246q.575 0 1.025.191.465.179.78.561.41.478.615 1.285.219.793.246 1.914zm5.305 2.215q0 1.107-.178 1.928-.164.806-.506 1.326a2.1 2.1 0 0 1-.82.738 2.6 2.6 0 0 1-1.135.233q-.697 0-1.203-.274a2.15 2.15 0 0 1-.834-.834q-.287-.465-.451-1.162-.15-.697-.178-1.6l5.305-3.937zm17.273 7v-19.906h-.2l-8.672 3.131v3.308l5.032-1.804V535zm20.75-7.574v-4.758q0-1.927-.45-3.391-.45-1.476-1.29-2.474a5.44 5.44 0 0 0-2.05-1.491c-.8-.337-1.7-.505-2.71-.505-.99 0-1.89.168-2.69.505-.79.338-1.47.834-2.02 1.491-.57.665-1 1.49-1.3 2.474q-.45 1.464-.45 3.391v4.758q0 1.928.45 3.404c.31.975.75 1.791 1.31 2.447a5.3 5.3 0 0 0 2.04 1.504c.8.337 1.7.506 2.69.506 1 0 1.91-.169 2.71-.506q1.2-.505 2.04-1.504c.55-.656.98-1.472 1.27-2.447q.45-1.476.45-3.404m-9.13-1.641v-3.719c0-.738.05-1.376.16-1.914.12-.537.3-.975.53-1.312q.33-.479.81-.711c.33-.164.71-.246 1.13-.246.39 0 .73.064 1.03.191q.465.179.78.561c.27.319.48.747.61 1.285.15.529.23 1.167.25 1.914zm5.3 2.215q0 1.107-.18 1.928c-.11.537-.28.98-.5 1.326-.22.328-.5.574-.82.738q-.495.233-1.14.233-.69 0-1.2-.274-.51-.273-.84-.834-.285-.465-.45-1.162a8.3 8.3 0 0 1-.17-1.6l5.3-3.937zm-119.497 55v-19.906h-.205l-8.668 3.131v3.308l5.031-1.804V583zm20.746-7.574v-4.758q0-1.927-.451-3.391-.451-1.476-1.285-2.474a5.5 5.5 0 0 0-2.051-1.491q-1.203-.505-2.707-.505-1.49 0-2.693.505a5.4 5.4 0 0 0-2.023 1.491q-.849.998-1.299 2.474-.451 1.464-.451 3.391v4.758q0 1.928.451 3.404.465 1.463 1.312 2.447a5.3 5.3 0 0 0 2.037 1.504q1.203.506 2.694.506 1.503 0 2.707-.506a5.3 5.3 0 0 0 2.037-1.504q.834-.984 1.271-2.447.451-1.476.451-3.404m-9.132-1.641v-3.719q0-1.107.164-1.914.177-.806.533-1.312.329-.479.807-.711a2.5 2.5 0 0 1 1.134-.246q.575 0 1.026.191.464.179.779.561.41.478.615 1.285.219.793.246 1.914zm5.304 2.215q0 1.107-.177 1.928-.164.806-.506 1.326a2.1 2.1 0 0 1-.821.738 2.6 2.6 0 0 1-1.134.233q-.698 0-1.203-.274a2.14 2.14 0 0 1-.834-.834q-.288-.465-.452-1.162a9 9 0 0 1-.177-1.6l5.304-3.937zm17.274 7v-19.906h-.205l-8.668 3.131v3.308l5.032-1.804V583zm20.747-7.574v-4.758q0-1.927-.451-3.391-.451-1.476-1.285-2.474a5.5 5.5 0 0 0-2.051-1.491q-1.203-.505-2.707-.505-1.49 0-2.693.505a5.4 5.4 0 0 0-2.024 1.491q-.848.998-1.298 2.474-.452 1.464-.452 3.391v4.758q0 1.928.452 3.404.464 1.463 1.312 2.447a5.3 5.3 0 0 0 2.037 1.504q1.203.506 2.693.506 1.504 0 2.708-.506a5.3 5.3 0 0 0 2.037-1.504q.833-.984 1.271-2.447.451-1.476.451-3.404m-9.133-1.641v-3.719q0-1.107.165-1.914.177-.806.533-1.312.327-.479.806-.711a2.5 2.5 0 0 1 1.135-.246q.575 0 1.026.191.464.179.779.561.41.478.615 1.285.219.793.246 1.914zm5.305 2.215q0 1.107-.178 1.928-.164.806-.505 1.326a2.1 2.1 0 0 1-.821.738 2.6 2.6 0 0 1-1.135.233q-.696 0-1.203-.274a2.15 2.15 0 0 1-.834-.834q-.286-.465-.451-1.162a9 9 0 0 1-.178-1.6l5.305-3.937zm17.274 7v-19.906h-.205l-8.668 3.131v3.308l5.031-1.804V583zm20.747-7.574v-4.758q0-1.927-.451-3.391-.451-1.476-1.285-2.474a5.5 5.5 0 0 0-2.051-1.491q-1.203-.505-2.707-.505-1.49 0-2.693.505a5.4 5.4 0 0 0-2.024 1.491q-.848.998-1.299 2.474-.45 1.464-.451 3.391v4.758q0 1.928.451 3.404.465 1.463 1.313 2.447a5.3 5.3 0 0 0 2.037 1.504q1.203.506 2.693.506 1.504 0 2.707-.506a5.3 5.3 0 0 0 2.037-1.504q.834-.984 1.272-2.447.451-1.476.451-3.404m-9.133-1.641v-3.719q0-1.107.164-1.914.178-.806.534-1.312.327-.479.806-.711a2.5 2.5 0 0 1 1.135-.246q.575 0 1.025.191.465.179.78.561.41.478.615 1.285.219.793.246 1.914zm5.305 2.215q0 1.107-.178 1.928-.164.806-.506 1.326a2.1 2.1 0 0 1-.82.738 2.6 2.6 0 0 1-1.135.233q-.697 0-1.203-.274a2.15 2.15 0 0 1-.834-.834q-.287-.465-.451-1.162-.15-.697-.178-1.6l5.305-3.937zm20.923-.574v-4.758q0-1.927-.45-3.391c-.3-.984-.73-1.809-1.28-2.474a5.5 5.5 0 0 0-2.06-1.491q-1.2-.505-2.7-.505c-1 0-1.89.168-2.7.505a5.4 5.4 0 0 0-2.019 1.491q-.849.998-1.299 2.474-.451 1.464-.451 3.391v4.758q0 1.928.451 3.404.465 1.463 1.312 2.447a5.3 5.3 0 0 0 2.036 1.504c.8.337 1.7.506 2.69.506 1.01 0 1.91-.169 2.71-.506q1.2-.505 2.04-1.504c.55-.656.98-1.472 1.27-2.447q.45-1.476.45-3.404m-9.13-1.641v-3.719c0-.738.05-1.376.16-1.914q.18-.806.54-1.312c.21-.319.48-.556.8-.711a2.5 2.5 0 0 1 1.14-.246q.57 0 1.02.191.465.179.78.561c.28.319.48.747.62 1.285.14.529.23 1.167.24 1.914zm5.3 2.215c0 .738-.06 1.381-.17 1.928q-.165.806-.51 1.326c-.22.328-.49.574-.82.738q-.495.233-1.14.233-.69 0-1.2-.274c-.34-.182-.61-.46-.83-.834q-.285-.465-.45-1.162a9 9 0 0 1-.18-1.6l5.3-3.937zm20.93-.574v-4.758q0-1.927-.45-3.391-.45-1.476-1.29-2.474a5.44 5.44 0 0 0-2.05-1.491c-.8-.337-1.7-.505-2.71-.505-.99 0-1.89.168-2.69.505-.79.338-1.47.834-2.02 1.491-.57.665-1 1.49-1.3 2.474q-.45 1.464-.45 3.391v4.758q0 1.928.45 3.404c.31.975.75 1.791 1.31 2.447a5.3 5.3 0 0 0 2.04 1.504c.8.337 1.7.506 2.69.506 1 0 1.91-.169 2.71-.506q1.2-.505 2.04-1.504c.55-.656.98-1.472 1.27-2.447q.45-1.476.45-3.404m-9.13-1.641v-3.719c0-.738.05-1.376.16-1.914.12-.537.3-.975.53-1.312q.33-.479.81-.711c.33-.164.71-.246 1.13-.246.39 0 .73.064 1.03.191q.465.179.78.561c.27.319.48.747.61 1.285.15.529.23 1.167.25 1.914zm5.3 2.215q0 1.107-.18 1.928c-.11.537-.28.98-.5 1.326-.22.328-.5.574-.82.738q-.495.233-1.14.233-.69 0-1.2-.274-.51-.273-.84-.834-.285-.465-.45-1.162a8.3 8.3 0 0 1-.17-1.6l5.3-3.937zm-119.497 55v-19.906h-.205l-8.668 3.131v3.308l5.031-1.804V631zm20.746-7.574v-4.758q0-1.927-.451-3.391-.451-1.476-1.285-2.474a5.5 5.5 0 0 0-2.051-1.491q-1.203-.505-2.707-.505-1.49 0-2.693.505a5.4 5.4 0 0 0-2.023 1.491q-.849.998-1.299 2.474-.451 1.464-.451 3.391v4.758q0 1.928.451 3.404.465 1.463 1.312 2.447a5.3 5.3 0 0 0 2.037 1.504q1.203.506 2.694.506 1.503 0 2.707-.506a5.3 5.3 0 0 0 2.037-1.504q.834-.984 1.271-2.447.451-1.476.451-3.404m-9.132-1.641v-3.719q0-1.107.164-1.914.177-.806.533-1.312.329-.479.807-.711a2.5 2.5 0 0 1 1.134-.246q.575 0 1.026.191.464.179.779.561.41.478.615 1.285.219.793.246 1.914zm5.304 2.215q0 1.107-.177 1.928-.164.806-.506 1.326a2.1 2.1 0 0 1-.821.738 2.6 2.6 0 0 1-1.134.233q-.698 0-1.203-.274a2.14 2.14 0 0 1-.834-.834q-.288-.465-.452-1.162a9 9 0 0 1-.177-1.6l5.304-3.937zm20.925-.574v-4.758q0-1.927-.451-3.391-.451-1.476-1.285-2.474a5.5 5.5 0 0 0-2.051-1.491q-1.204-.505-2.707-.505-1.491 0-2.694.505a5.4 5.4 0 0 0-2.023 1.491q-.848.998-1.299 2.474-.451 1.464-.451 3.391v4.758q0 1.928.451 3.404.464 1.463 1.313 2.447a5.3 5.3 0 0 0 2.037 1.504q1.203.506 2.693.506 1.504 0 2.707-.506a5.3 5.3 0 0 0 2.037-1.504q.834-.984 1.272-2.447.45-1.476.451-3.404m-9.133-1.641v-3.719q0-1.107.164-1.914.178-.806.533-1.312.329-.479.807-.711a2.5 2.5 0 0 1 1.135-.246q.574 0 1.025.191.465.179.779.561.41.478.616 1.285.218.793.246 1.914zm5.305 2.215q0 1.107-.178 1.928-.164.806-.506 1.326a2.1 2.1 0 0 1-.82.738 2.6 2.6 0 0 1-1.135.233q-.698 0-1.203-.274a2.15 2.15 0 0 1-.834-.834q-.287-.465-.451-1.162-.15-.697-.178-1.6l5.305-3.937zm17.274 7v-19.906h-.205l-8.668 3.131v3.308l5.031-1.804V631zm17.096 0v-19.906h-.205l-8.668 3.131v3.308l5.031-1.804V631zm20.747-7.574v-4.758q0-1.927-.451-3.391-.451-1.476-1.285-2.474a5.5 5.5 0 0 0-2.051-1.491q-1.203-.505-2.707-.505-1.49 0-2.693.505a5.4 5.4 0 0 0-2.024 1.491q-.848.998-1.299 2.474-.45 1.464-.451 3.391v4.758q0 1.928.451 3.404.465 1.463 1.313 2.447a5.3 5.3 0 0 0 2.037 1.504q1.203.506 2.693.506 1.504 0 2.707-.506a5.3 5.3 0 0 0 2.037-1.504q.834-.984 1.272-2.447.451-1.476.451-3.404m-9.133-1.641v-3.719q0-1.107.164-1.914.178-.806.534-1.312.327-.479.806-.711a2.5 2.5 0 0 1 1.135-.246q.575 0 1.025.191.465.179.78.561.41.478.615 1.285.219.793.246 1.914zm5.305 2.215q0 1.107-.178 1.928-.164.806-.506 1.326a2.1 2.1 0 0 1-.82.738 2.6 2.6 0 0 1-1.135.233q-.697 0-1.203-.274a2.15 2.15 0 0 1-.834-.834q-.287-.465-.451-1.162-.15-.697-.178-1.6l5.305-3.937zm17.273 7v-19.906h-.2l-8.672 3.131v3.308l5.032-1.804V631zm17.1 0v-19.906h-.21l-8.67 3.131v3.308l5.04-1.804V631zm-119.677 48v-19.906h-.205l-8.668 3.131v3.308l5.031-1.804V679zm17.096 0v-19.906h-.205l-8.668 3.131v3.308l5.031-1.804V679zm20.747-7.574v-4.758q0-1.927-.451-3.391-.451-1.476-1.285-2.474a5.5 5.5 0 0 0-2.051-1.491q-1.204-.505-2.707-.505-1.491 0-2.694.505a5.4 5.4 0 0 0-2.023 1.491q-.848.998-1.299 2.474-.451 1.464-.451 3.391v4.758q0 1.928.451 3.404.464 1.463 1.313 2.447a5.3 5.3 0 0 0 2.037 1.504q1.203.506 2.693.506 1.504 0 2.707-.506a5.3 5.3 0 0 0 2.037-1.504q.834-.984 1.272-2.447.45-1.476.451-3.404m-9.133-1.641v-3.719q0-1.107.164-1.914.178-.806.533-1.312.329-.479.807-.711a2.5 2.5 0 0 1 1.135-.246q.574 0 1.025.191.465.179.779.561.41.478.616 1.285.218.793.246 1.914zm5.305 2.215q0 1.107-.178 1.928-.164.806-.506 1.326a2.1 2.1 0 0 1-.82.738 2.6 2.6 0 0 1-1.135.233q-.698 0-1.203-.274a2.15 2.15 0 0 1-.834-.834q-.287-.465-.451-1.162-.15-.697-.178-1.6l5.305-3.937zm17.274 7v-19.906h-.205l-8.668 3.131v3.308l5.031-1.804V679zm17.096 0v-19.906h-.205l-8.668 3.131v3.308l5.031-1.804V679zm20.747-7.574v-4.758q0-1.927-.451-3.391-.451-1.476-1.285-2.474a5.5 5.5 0 0 0-2.051-1.491q-1.203-.505-2.707-.505-1.49 0-2.693.505a5.4 5.4 0 0 0-2.024 1.491q-.848.998-1.299 2.474-.45 1.464-.451 3.391v4.758q0 1.928.451 3.404.465 1.463 1.313 2.447a5.3 5.3 0 0 0 2.037 1.504q1.203.506 2.693.506 1.504 0 2.707-.506a5.3 5.3 0 0 0 2.037-1.504q.834-.984 1.272-2.447.451-1.476.451-3.404m-9.133-1.641v-3.719q0-1.107.164-1.914.178-.806.534-1.312.327-.479.806-.711a2.5 2.5 0 0 1 1.135-.246q.575 0 1.025.191.465.179.78.561.41.478.615 1.285.219.793.246 1.914zm5.305 2.215q0 1.107-.178 1.928-.164.806-.506 1.326a2.1 2.1 0 0 1-.82.738 2.6 2.6 0 0 1-1.135.233q-.697 0-1.203-.274a2.15 2.15 0 0 1-.834-.834q-.287-.465-.451-1.162-.15-.697-.178-1.6l5.305-3.937zm17.273 7v-19.906h-.2l-8.672 3.131v3.308l5.032-1.804V679zm20.75-7.574v-4.758q0-1.927-.45-3.391-.45-1.476-1.29-2.474a5.44 5.44 0 0 0-2.05-1.491c-.8-.337-1.7-.505-2.71-.505-.99 0-1.89.168-2.69.505-.79.338-1.47.834-2.02 1.491-.57.665-1 1.49-1.3 2.474q-.45 1.464-.45 3.391v4.758q0 1.928.45 3.404c.31.975.75 1.791 1.31 2.447a5.3 5.3 0 0 0 2.04 1.504c.8.337 1.7.506 2.69.506 1 0 1.91-.169 2.71-.506q1.2-.505 2.04-1.504c.55-.656.98-1.472 1.27-2.447q.45-1.476.45-3.404m-9.13-1.641v-3.719c0-.738.05-1.376.16-1.914.12-.537.3-.975.53-1.312q.33-.479.81-.711c.33-.164.71-.246 1.13-.246.39 0 .73.064 1.03.191q.465.179.78.561c.27.319.48.747.61 1.285.15.529.23 1.167.25 1.914zm5.3 2.215q0 1.107-.18 1.928c-.11.537-.28.98-.5 1.326-.22.328-.5.574-.82.738q-.495.233-1.14.233-.69 0-1.2-.274-.51-.273-.84-.834-.285-.465-.45-1.162a8.3 8.3 0 0 1-.17-1.6l5.3-3.937zM902.993 788v-19.906h-.205l-8.668 3.131v3.308l5.031-1.804V788zm20.746-7.574v-4.758q0-1.927-.451-3.391-.451-1.476-1.285-2.474a5.5 5.5 0 0 0-2.051-1.491q-1.203-.505-2.707-.505-1.49 0-2.693.505a5.4 5.4 0 0 0-2.023 1.491q-.849.998-1.299 2.474-.451 1.464-.451 3.391v4.758q0 1.928.451 3.404.465 1.463 1.312 2.447a5.3 5.3 0 0 0 2.037 1.504q1.203.506 2.694.506 1.503 0 2.707-.506a5.3 5.3 0 0 0 2.037-1.504q.834-.984 1.271-2.447.451-1.476.451-3.404m-9.132-1.641v-3.719q0-1.107.164-1.914.177-.806.533-1.312.329-.479.807-.711a2.5 2.5 0 0 1 1.134-.246q.575 0 1.026.191.464.178.779.561.41.478.615 1.285.219.793.246 1.914zm5.304 2.215q0 1.107-.177 1.928-.164.806-.506 1.326a2.1 2.1 0 0 1-.821.738 2.6 2.6 0 0 1-1.134.233q-.698 0-1.203-.274a2.14 2.14 0 0 1-.834-.834q-.288-.465-.452-1.162a9 9 0 0 1-.177-1.6l5.304-3.937zm20.925-.574v-4.758q0-1.927-.451-3.391-.451-1.476-1.285-2.474a5.5 5.5 0 0 0-2.051-1.491q-1.204-.505-2.707-.505-1.491 0-2.694.505a5.4 5.4 0 0 0-2.023 1.491q-.848.998-1.299 2.474-.451 1.464-.451 3.391v4.758q0 1.928.451 3.404.464 1.463 1.313 2.447a5.3 5.3 0 0 0 2.037 1.504q1.203.506 2.693.506 1.504 0 2.707-.506a5.3 5.3 0 0 0 2.037-1.504q.834-.984 1.272-2.447.45-1.476.451-3.404m-9.133-1.641v-3.719q0-1.107.164-1.914.178-.806.533-1.312.329-.479.807-.711a2.5 2.5 0 0 1 1.135-.246q.574 0 1.025.191.465.178.779.561.41.478.616 1.285.218.793.246 1.914zm5.305 2.215q0 1.107-.178 1.928-.164.806-.506 1.326a2.1 2.1 0 0 1-.82.738 2.6 2.6 0 0 1-1.135.233q-.698 0-1.203-.274a2.15 2.15 0 0 1-.834-.834q-.287-.465-.451-1.162-.15-.697-.178-1.6l5.305-3.937zm17.274 7v-19.906h-.205l-8.668 3.131v3.308l5.031-1.804V788zm17.096 0v-19.906h-.205l-8.668 3.131v3.308l5.031-1.804V788zm20.747-7.574v-4.758q0-1.927-.451-3.391-.451-1.476-1.285-2.474a5.5 5.5 0 0 0-2.051-1.491q-1.203-.505-2.707-.505-1.49 0-2.693.505a5.4 5.4 0 0 0-2.024 1.491q-.848.998-1.299 2.474-.45 1.464-.451 3.391v4.758q0 1.928.451 3.404.465 1.463 1.313 2.447a5.3 5.3 0 0 0 2.037 1.504q1.203.506 2.693.506 1.504 0 2.707-.506a5.3 5.3 0 0 0 2.037-1.504q.834-.984 1.272-2.447.451-1.476.451-3.404m-9.133-1.641v-3.719q0-1.107.164-1.914.178-.806.534-1.312.327-.479.806-.711a2.5 2.5 0 0 1 1.135-.246q.575 0 1.025.191.465.178.78.561.41.478.615 1.285.219.793.246 1.914zm5.305 2.215q0 1.107-.178 1.928-.164.806-.506 1.326a2.1 2.1 0 0 1-.82.738 2.6 2.6 0 0 1-1.135.233q-.697 0-1.203-.274a2.15 2.15 0 0 1-.834-.834q-.287-.465-.451-1.162-.15-.697-.178-1.6l5.305-3.937zm17.273 7v-19.906h-.2l-8.672 3.131v3.308l5.032-1.804V788zm17.1 0v-19.906h-.21l-8.67 3.131v3.308l5.04-1.804V788zm-119.677 48v-19.906h-.205l-8.668 3.131v3.308l5.031-1.804V836zm17.096 0v-19.906h-.205l-8.668 3.131v3.308l5.031-1.804V836zm20.747-7.574v-4.758q0-1.927-.451-3.391-.451-1.476-1.285-2.474a5.5 5.5 0 0 0-2.051-1.491q-1.204-.505-2.707-.505-1.491 0-2.694.505a5.4 5.4 0 0 0-2.023 1.491q-.848.998-1.299 2.474-.451 1.464-.451 3.391v4.758q0 1.928.451 3.404.464 1.463 1.313 2.447a5.3 5.3 0 0 0 2.037 1.504q1.203.506 2.693.506 1.504 0 2.707-.506a5.3 5.3 0 0 0 2.037-1.504q.834-.984 1.272-2.447.45-1.476.451-3.404m-9.133-1.641v-3.719q0-1.107.164-1.914.178-.806.533-1.312.329-.479.807-.711a2.5 2.5 0 0 1 1.135-.246q.574 0 1.025.191.465.178.779.561.41.478.616 1.285.218.793.246 1.914zm5.305 2.215q0 1.107-.178 1.928-.164.806-.506 1.326a2.1 2.1 0 0 1-.82.738 2.6 2.6 0 0 1-1.135.233q-.698 0-1.203-.274a2.15 2.15 0 0 1-.834-.834q-.287-.465-.451-1.162-.15-.697-.178-1.6l5.305-3.937zm17.274 7v-19.906h-.205l-8.668 3.131v3.308l5.031-1.804V836zm17.096 0v-19.906h-.205l-8.668 3.131v3.308l5.031-1.804V836zm20.747-7.574v-4.758q0-1.927-.451-3.391-.451-1.476-1.285-2.474a5.5 5.5 0 0 0-2.051-1.491q-1.203-.505-2.707-.505-1.49 0-2.693.505a5.4 5.4 0 0 0-2.024 1.491q-.848.998-1.299 2.474-.45 1.464-.451 3.391v4.758q0 1.928.451 3.404.465 1.463 1.313 2.447a5.3 5.3 0 0 0 2.037 1.504q1.203.506 2.693.506 1.504 0 2.707-.506a5.3 5.3 0 0 0 2.037-1.504q.834-.984 1.272-2.447.451-1.476.451-3.404m-9.133-1.641v-3.719q0-1.107.164-1.914.178-.806.534-1.312.327-.479.806-.711a2.5 2.5 0 0 1 1.135-.246q.575 0 1.025.191.465.178.78.561.41.478.615 1.285.219.793.246 1.914zm5.305 2.215q0 1.107-.178 1.928-.164.806-.506 1.326a2.1 2.1 0 0 1-.82.738 2.6 2.6 0 0 1-1.135.233q-.697 0-1.203-.274a2.15 2.15 0 0 1-.834-.834q-.287-.465-.451-1.162-.15-.697-.178-1.6l5.305-3.937zm17.273 7v-19.906h-.2l-8.672 3.131v3.308l5.032-1.804V836zm20.75-7.574v-4.758q0-1.927-.45-3.391-.45-1.476-1.29-2.474a5.44 5.44 0 0 0-2.05-1.491c-.8-.337-1.7-.505-2.71-.505-.99 0-1.89.168-2.69.505-.79.338-1.47.834-2.02 1.491-.57.665-1 1.49-1.3 2.474q-.45 1.464-.45 3.391v4.758q0 1.928.45 3.404c.31.975.75 1.791 1.31 2.447a5.3 5.3 0 0 0 2.04 1.504c.8.337 1.7.506 2.69.506 1 0 1.91-.169 2.71-.506q1.2-.505 2.04-1.504c.55-.656.98-1.472 1.27-2.447q.45-1.476.45-3.404m-9.13-1.641v-3.719c0-.738.05-1.376.16-1.914.12-.537.3-.975.53-1.312q.33-.479.81-.711c.33-.164.71-.246 1.13-.246.39 0 .73.064 1.03.191q.465.178.78.561c.27.319.48.747.61 1.285.15.529.23 1.167.25 1.914zm5.3 2.215q0 1.107-.18 1.928c-.11.537-.28.98-.5 1.326-.22.328-.5.574-.82.738q-.495.233-1.14.233-.69 0-1.2-.274-.51-.273-.84-.834-.285-.465-.45-1.162a8.3 8.3 0 0 1-.17-1.6l5.3-3.937zm-119.497 55v-19.906h-.205l-8.668 3.131v3.308l5.031-1.804V884zm20.746-7.574v-4.758q0-1.927-.451-3.391-.451-1.476-1.285-2.474a5.5 5.5 0 0 0-2.051-1.491q-1.203-.505-2.707-.505-1.49 0-2.693.505a5.4 5.4 0 0 0-2.023 1.491q-.849.998-1.299 2.474-.451 1.464-.451 3.391v4.758q0 1.928.451 3.404.465 1.463 1.312 2.447a5.3 5.3 0 0 0 2.037 1.504q1.203.506 2.694.506 1.503 0 2.707-.506a5.3 5.3 0 0 0 2.037-1.504q.834-.984 1.271-2.447.451-1.476.451-3.404m-9.132-1.641v-3.719q0-1.107.164-1.914.177-.806.533-1.312.329-.479.807-.711a2.5 2.5 0 0 1 1.134-.246q.575 0 1.026.191.464.178.779.561.41.478.615 1.285.219.793.246 1.914zm5.304 2.215q0 1.107-.177 1.928-.164.806-.506 1.326a2.1 2.1 0 0 1-.821.738 2.6 2.6 0 0 1-1.134.233q-.698 0-1.203-.274a2.14 2.14 0 0 1-.834-.834q-.288-.465-.452-1.162a9 9 0 0 1-.177-1.6l5.304-3.937zm20.925-.574v-4.758q0-1.927-.451-3.391-.451-1.476-1.285-2.474a5.5 5.5 0 0 0-2.051-1.491q-1.204-.505-2.707-.505-1.491 0-2.694.505a5.4 5.4 0 0 0-2.023 1.491q-.848.998-1.299 2.474-.451 1.464-.451 3.391v4.758q0 1.928.451 3.404.464 1.463 1.313 2.447a5.3 5.3 0 0 0 2.037 1.504q1.203.506 2.693.506 1.504 0 2.707-.506a5.3 5.3 0 0 0 2.037-1.504q.834-.984 1.272-2.447.45-1.476.451-3.404m-9.133-1.641v-3.719q0-1.107.164-1.914.178-.806.533-1.312.329-.479.807-.711a2.5 2.5 0 0 1 1.135-.246q.574 0 1.025.191.465.178.779.561.41.478.616 1.285.218.793.246 1.914zm5.305 2.215q0 1.107-.178 1.928-.164.806-.506 1.326a2.1 2.1 0 0 1-.82.738 2.6 2.6 0 0 1-1.135.233q-.698 0-1.203-.274a2.15 2.15 0 0 1-.834-.834q-.287-.465-.451-1.162-.15-.697-.178-1.6l5.305-3.937zm17.274 7v-19.906h-.205l-8.668 3.131v3.308l5.031-1.804V884zm17.096 0v-19.906h-.205l-8.668 3.131v3.308l5.031-1.804V884zm20.747-7.574v-4.758q0-1.927-.451-3.391-.451-1.476-1.285-2.474a5.5 5.5 0 0 0-2.051-1.491q-1.203-.505-2.707-.505-1.49 0-2.693.505a5.4 5.4 0 0 0-2.024 1.491q-.848.998-1.299 2.474-.45 1.464-.451 3.391v4.758q0 1.928.451 3.404.465 1.463 1.313 2.447a5.3 5.3 0 0 0 2.037 1.504q1.203.506 2.693.506 1.504 0 2.707-.506a5.3 5.3 0 0 0 2.037-1.504q.834-.984 1.272-2.447.451-1.476.451-3.404m-9.133-1.641v-3.719q0-1.107.164-1.914.178-.806.534-1.312.327-.479.806-.711a2.5 2.5 0 0 1 1.135-.246q.575 0 1.025.191.465.178.78.561.41.478.615 1.285.219.793.246 1.914zm5.305 2.215q0 1.107-.178 1.928-.164.806-.506 1.326a2.1 2.1 0 0 1-.82.738 2.6 2.6 0 0 1-1.135.233q-.697 0-1.203-.274a2.15 2.15 0 0 1-.834-.834q-.287-.465-.451-1.162-.15-.697-.178-1.6l5.305-3.937zm17.273 7v-19.906h-.2l-8.672 3.131v3.308l5.032-1.804V884zm17.1 0v-19.906h-.21l-8.67 3.131v3.308l5.04-1.804V884zm-119.677 48v-19.906h-.205l-8.668 3.131v3.308l5.031-1.804V932zm20.746-7.574v-4.758q0-1.927-.451-3.391-.451-1.476-1.285-2.474a5.5 5.5 0 0 0-2.051-1.491q-1.203-.505-2.707-.505-1.49 0-2.693.505a5.4 5.4 0 0 0-2.023 1.491q-.849.998-1.299 2.474-.451 1.464-.451 3.391v4.758q0 1.928.451 3.404.465 1.463 1.312 2.447a5.3 5.3 0 0 0 2.037 1.504q1.203.506 2.694.506 1.503 0 2.707-.506a5.3 5.3 0 0 0 2.037-1.504q.834-.984 1.271-2.447.451-1.476.451-3.404m-9.132-1.641v-3.719q0-1.107.164-1.914.177-.806.533-1.312.329-.479.807-.711a2.5 2.5 0 0 1 1.134-.246q.575 0 1.026.191.464.178.779.561.41.478.615 1.285.219.793.246 1.914zm5.304 2.215q0 1.107-.177 1.928-.164.806-.506 1.326a2.1 2.1 0 0 1-.821.738 2.6 2.6 0 0 1-1.134.233q-.698 0-1.203-.274a2.14 2.14 0 0 1-.834-.834q-.288-.465-.452-1.162a9 9 0 0 1-.177-1.6l5.304-3.937zm20.925-.574v-4.758q0-1.927-.451-3.391-.451-1.476-1.285-2.474a5.5 5.5 0 0 0-2.051-1.491q-1.204-.505-2.707-.505-1.491 0-2.694.505a5.4 5.4 0 0 0-2.023 1.491q-.848.998-1.299 2.474-.451 1.464-.451 3.391v4.758q0 1.928.451 3.404.464 1.463 1.313 2.447a5.3 5.3 0 0 0 2.037 1.504q1.203.506 2.693.506 1.504 0 2.707-.506a5.3 5.3 0 0 0 2.037-1.504q.834-.984 1.272-2.447.45-1.476.451-3.404m-9.133-1.641v-3.719q0-1.107.164-1.914.178-.806.533-1.312.329-.479.807-.711a2.5 2.5 0 0 1 1.135-.246q.574 0 1.025.191.465.178.779.561.41.478.616 1.285.218.793.246 1.914zm5.305 2.215q0 1.107-.178 1.928-.164.806-.506 1.326a2.1 2.1 0 0 1-.82.738 2.6 2.6 0 0 1-1.135.233q-.698 0-1.203-.274a2.15 2.15 0 0 1-.834-.834q-.287-.465-.451-1.162-.15-.697-.178-1.6l5.305-3.937zm17.274 7v-19.906h-.205l-8.668 3.131v3.308l5.031-1.804V932zm17.096 0v-19.906h-.205l-8.668 3.131v3.308l5.031-1.804V932zm20.747-7.574v-4.758q0-1.927-.451-3.391-.451-1.476-1.285-2.474a5.5 5.5 0 0 0-2.051-1.491q-1.203-.505-2.707-.505-1.49 0-2.693.505a5.4 5.4 0 0 0-2.024 1.491q-.848.998-1.299 2.474-.45 1.464-.451 3.391v4.758q0 1.928.451 3.404.465 1.463 1.313 2.447a5.3 5.3 0 0 0 2.037 1.504q1.203.506 2.693.506 1.504 0 2.707-.506a5.3 5.3 0 0 0 2.037-1.504q.834-.984 1.272-2.447.451-1.476.451-3.404m-9.133-1.641v-3.719q0-1.107.164-1.914.178-.806.534-1.312.327-.479.806-.711a2.5 2.5 0 0 1 1.135-.246q.575 0 1.025.191.465.178.78.561.41.478.615 1.285.219.793.246 1.914zm5.305 2.215q0 1.107-.178 1.928-.164.806-.506 1.326a2.1 2.1 0 0 1-.82.738 2.6 2.6 0 0 1-1.135.233q-.697 0-1.203-.274a2.15 2.15 0 0 1-.834-.834q-.287-.465-.451-1.162-.15-.697-.178-1.6l5.305-3.937zm17.273 7v-19.906h-.2l-8.672 3.131v3.308l5.032-1.804V932zm17.1 0v-19.906h-.21l-8.67 3.131v3.308l5.04-1.804V932zm-119.677 48v-19.906h-.205l-8.668 3.131v3.308l5.031-1.804V980zm20.746-7.574v-4.758q0-1.927-.451-3.391-.451-1.476-1.285-2.474a5.5 5.5 0 0 0-2.051-1.491q-1.203-.505-2.707-.505-1.49 0-2.693.505a5.4 5.4 0 0 0-2.023 1.491q-.849.998-1.299 2.474-.451 1.464-.451 3.391v4.758q0 1.928.451 3.404.465 1.463 1.312 2.447a5.3 5.3 0 0 0 2.037 1.504q1.203.506 2.694.506 1.503 0 2.707-.506a5.3 5.3 0 0 0 2.037-1.504q.834-.984 1.271-2.447.451-1.476.451-3.404m-9.132-1.641v-3.719q0-1.107.164-1.914.177-.806.533-1.312.329-.479.807-.711a2.5 2.5 0 0 1 1.134-.246q.575 0 1.026.191.464.178.779.561.41.478.615 1.285.219.793.246 1.914zm5.304 2.215q0 1.107-.177 1.928-.164.806-.506 1.326a2.1 2.1 0 0 1-.821.738 2.6 2.6 0 0 1-1.134.233q-.698 0-1.203-.274a2.14 2.14 0 0 1-.834-.834q-.288-.465-.452-1.162a9 9 0 0 1-.177-1.6l5.304-3.937zm20.925-.574v-4.758q0-1.927-.451-3.391-.451-1.476-1.285-2.474a5.5 5.5 0 0 0-2.051-1.491q-1.204-.505-2.707-.505-1.491 0-2.694.505a5.4 5.4 0 0 0-2.023 1.491q-.848.998-1.299 2.474-.451 1.464-.451 3.391v4.758q0 1.928.451 3.404.464 1.463 1.313 2.447a5.3 5.3 0 0 0 2.037 1.504q1.203.506 2.693.506 1.504 0 2.707-.506a5.3 5.3 0 0 0 2.037-1.504q.834-.984 1.272-2.447.45-1.476.451-3.404m-9.133-1.641v-3.719q0-1.107.164-1.914.178-.806.533-1.312.329-.479.807-.711a2.5 2.5 0 0 1 1.135-.246q.574 0 1.025.191.465.178.779.561.41.478.616 1.285.218.793.246 1.914zm5.305 2.215q0 1.107-.178 1.928-.164.806-.506 1.326a2.1 2.1 0 0 1-.82.738 2.6 2.6 0 0 1-1.135.233q-.698 0-1.203-.274a2.15 2.15 0 0 1-.834-.834q-.287-.465-.451-1.162-.15-.697-.178-1.6l5.305-3.937zm17.274 7v-19.906h-.205l-8.668 3.131v3.308l5.031-1.804V980zm17.096 0v-19.906h-.205l-8.668 3.131v3.308l5.031-1.804V980zm20.747-7.574v-4.758q0-1.927-.451-3.391-.451-1.476-1.285-2.474a5.5 5.5 0 0 0-2.051-1.491q-1.203-.505-2.707-.505-1.49 0-2.693.505a5.4 5.4 0 0 0-2.024 1.491q-.848.998-1.299 2.474-.45 1.464-.451 3.391v4.758q0 1.928.451 3.404.465 1.463 1.313 2.447a5.3 5.3 0 0 0 2.037 1.504q1.203.506 2.693.506 1.504 0 2.707-.506a5.3 5.3 0 0 0 2.037-1.504q.834-.984 1.272-2.447.451-1.476.451-3.404m-9.133-1.641v-3.719q0-1.107.164-1.914.178-.806.534-1.312.327-.479.806-.711a2.5 2.5 0 0 1 1.135-.246q.575 0 1.025.191.465.178.78.561.41.478.615 1.285.219.793.246 1.914zm5.305 2.215q0 1.107-.178 1.928-.164.806-.506 1.326a2.1 2.1 0 0 1-.82.738 2.6 2.6 0 0 1-1.135.233q-.697 0-1.203-.274a2.15 2.15 0 0 1-.834-.834q-.287-.465-.451-1.162-.15-.697-.178-1.6l5.305-3.937zm17.273 7v-19.906h-.2l-8.672 3.131v3.308l5.032-1.804V980zm17.1 0v-19.906h-.21l-8.67 3.131v3.308l5.04-1.804V980zm-119.677 48v-19.91h-.205l-8.668 3.13v3.31l5.031-1.8V1028zm20.746-7.57v-4.76q0-1.935-.451-3.39c-.301-.99-.729-1.81-1.285-2.48a5.6 5.6 0 0 0-2.051-1.49c-.802-.33-1.704-.5-2.707-.5-.993 0-1.891.17-2.693.5-.793.34-1.467.84-2.023 1.49-.566.67-.999 1.49-1.299 2.48q-.451 1.455-.451 3.39v4.76c0 1.28.15 2.42.451 3.4.31.98.747 1.79 1.312 2.45a5.36 5.36 0 0 0 2.037 1.5q1.203.51 2.694.51 1.503 0 2.707-.51a5.36 5.36 0 0 0 2.037-1.5c.556-.66.98-1.47 1.271-2.45.301-.98.451-2.12.451-3.4m-9.132-1.64v-3.72q0-1.11.164-1.92c.118-.54.296-.97.533-1.31.219-.32.488-.56.807-.71.328-.17.706-.25 1.134-.25.383 0 .725.07 1.026.19.31.12.569.31.779.56q.41.48.615 1.29c.146.53.228 1.17.246 1.91zm5.304 2.21c0 .74-.059 1.38-.177 1.93q-.164.81-.506 1.32c-.219.33-.492.58-.821.74s-.706.23-1.134.23q-.698 0-1.203-.27a2.14 2.14 0 0 1-.834-.83c-.192-.31-.342-.7-.452-1.16-.1-.47-.159-1-.177-1.6l5.304-3.94zm20.925-.57v-4.76q0-1.935-.451-3.39c-.301-.99-.729-1.81-1.285-2.48a5.6 5.6 0 0 0-2.051-1.49c-.802-.33-1.705-.5-2.707-.5-.994 0-1.892.17-2.694.5-.793.34-1.467.84-2.023 1.49-.565.67-.998 1.49-1.299 2.48q-.451 1.455-.451 3.39v4.76c0 1.28.15 2.42.451 3.4.31.98.747 1.79 1.313 2.45a5.36 5.36 0 0 0 2.037 1.5q1.203.51 2.693.51 1.504 0 2.707-.51a5.36 5.36 0 0 0 2.037-1.5c.556-.66.98-1.47 1.272-2.45.3-.98.451-2.12.451-3.4m-9.133-1.64v-3.72q0-1.11.164-1.92c.119-.54.296-.97.533-1.31.219-.32.488-.56.807-.71.328-.17.706-.25 1.135-.25.383 0 .724.07 1.025.19.31.12.57.31.779.56q.41.48.616 1.29c.145.53.228 1.17.246 1.91zm5.305 2.21c0 .74-.06 1.38-.178 1.93q-.164.81-.506 1.32c-.219.33-.492.58-.82.74s-.707.23-1.135.23q-.698 0-1.203-.27c-.337-.18-.615-.46-.834-.83-.191-.31-.342-.7-.451-1.16a9 9 0 0 1-.178-1.6l5.305-3.94zm17.274 7v-19.91h-.205l-8.668 3.13v3.31l5.031-1.8V1028zm17.096 0v-19.91h-.205l-8.668 3.13v3.31l5.031-1.8V1028zm20.747-7.57v-4.76q0-1.935-.451-3.39c-.301-.99-.729-1.81-1.285-2.48a5.6 5.6 0 0 0-2.051-1.49c-.802-.33-1.704-.5-2.707-.5-.994 0-1.891.17-2.693.5a5.5 5.5 0 0 0-2.024 1.49c-.565.67-.998 1.49-1.299 2.48q-.45 1.455-.451 3.39v4.76c0 1.28.151 2.42.451 3.4.31.98.748 1.79 1.313 2.45a5.36 5.36 0 0 0 2.037 1.5q1.203.51 2.693.51 1.504 0 2.707-.51a5.36 5.36 0 0 0 2.037-1.5c.556-.66.98-1.47 1.272-2.45.301-.98.451-2.12.451-3.4m-9.133-1.64v-3.72q0-1.11.164-1.92c.119-.54.297-.97.534-1.31.218-.32.487-.56.806-.71.328-.17.707-.25 1.135-.25.383 0 .725.07 1.025.19.31.12.57.31.78.56q.41.48.615 1.29c.146.53.228 1.17.246 1.91zm5.305 2.21c0 .74-.059 1.38-.178 1.93q-.164.81-.506 1.32a2.07 2.07 0 0 1-.82.74c-.328.16-.706.23-1.135.23q-.697 0-1.203-.27c-.337-.18-.615-.46-.834-.83-.191-.31-.342-.7-.451-1.16a9 9 0 0 1-.178-1.6l5.305-3.94zm17.273 7v-19.91h-.2l-8.672 3.13v3.31l5.032-1.8V1028zm17.1 0v-19.91h-.21l-8.67 3.13v3.31l5.04-1.8V1028zm-119.677 48v-19.91h-.205l-8.668 3.13v3.31l5.031-1.8V1076zm20.746-7.57v-4.76q0-1.935-.451-3.39c-.301-.99-.729-1.81-1.285-2.48a5.6 5.6 0 0 0-2.051-1.49c-.802-.33-1.704-.5-2.707-.5-.993 0-1.891.17-2.693.5-.793.34-1.467.84-2.023 1.49-.566.67-.999 1.49-1.299 2.48q-.451 1.455-.451 3.39v4.76c0 1.28.15 2.42.451 3.4.31.98.747 1.79 1.312 2.45a5.36 5.36 0 0 0 2.037 1.5q1.203.51 2.694.51 1.503 0 2.707-.51a5.36 5.36 0 0 0 2.037-1.5c.556-.66.98-1.47 1.271-2.45.301-.98.451-2.12.451-3.4m-9.132-1.64v-3.72q0-1.11.164-1.92c.118-.54.296-.97.533-1.31.219-.32.488-.56.807-.71.328-.17.706-.25 1.134-.25.383 0 .725.07 1.026.19.31.12.569.31.779.56q.41.48.615 1.29c.146.53.228 1.17.246 1.91zm5.304 2.21c0 .74-.059 1.38-.177 1.93q-.164.81-.506 1.32c-.219.33-.492.58-.821.74s-.706.23-1.134.23q-.698 0-1.203-.27a2.14 2.14 0 0 1-.834-.83c-.192-.31-.342-.7-.452-1.16-.1-.47-.159-1-.177-1.6l5.304-3.94zm20.925-.57v-4.76q0-1.935-.451-3.39c-.301-.99-.729-1.81-1.285-2.48a5.6 5.6 0 0 0-2.051-1.49c-.802-.33-1.705-.5-2.707-.5-.994 0-1.892.17-2.694.5-.793.34-1.467.84-2.023 1.49-.565.67-.998 1.49-1.299 2.48q-.451 1.455-.451 3.39v4.76c0 1.28.15 2.42.451 3.4.31.98.747 1.79 1.313 2.45a5.36 5.36 0 0 0 2.037 1.5q1.203.51 2.693.51 1.504 0 2.707-.51a5.36 5.36 0 0 0 2.037-1.5c.556-.66.98-1.47 1.272-2.45.3-.98.451-2.12.451-3.4m-9.133-1.64v-3.72q0-1.11.164-1.92c.119-.54.296-.97.533-1.31.219-.32.488-.56.807-.71.328-.17.706-.25 1.135-.25.383 0 .724.07 1.025.19.31.12.57.31.779.56q.41.48.616 1.29c.145.53.228 1.17.246 1.91zm5.305 2.21c0 .74-.06 1.38-.178 1.93q-.164.81-.506 1.32c-.219.33-.492.58-.82.74s-.707.23-1.135.23q-.698 0-1.203-.27c-.337-.18-.615-.46-.834-.83-.191-.31-.342-.7-.451-1.16a9 9 0 0 1-.178-1.6l5.305-3.94zm17.274 7v-19.91h-.205l-8.668 3.13v3.31l5.031-1.8V1076zm17.096 0v-19.91h-.205l-8.668 3.13v3.31l5.031-1.8V1076zm20.747-7.57v-4.76q0-1.935-.451-3.39c-.301-.99-.729-1.81-1.285-2.48a5.6 5.6 0 0 0-2.051-1.49c-.802-.33-1.704-.5-2.707-.5-.994 0-1.891.17-2.693.5a5.5 5.5 0 0 0-2.024 1.49c-.565.67-.998 1.49-1.299 2.48q-.45 1.455-.451 3.39v4.76c0 1.28.151 2.42.451 3.4.31.98.748 1.79 1.313 2.45a5.36 5.36 0 0 0 2.037 1.5q1.203.51 2.693.51 1.504 0 2.707-.51a5.36 5.36 0 0 0 2.037-1.5c.556-.66.98-1.47 1.272-2.45.301-.98.451-2.12.451-3.4m-9.133-1.64v-3.72q0-1.11.164-1.92c.119-.54.297-.97.534-1.31.218-.32.487-.56.806-.71.328-.17.707-.25 1.135-.25.383 0 .725.07 1.025.19.31.12.57.31.78.56q.41.48.615 1.29c.146.53.228 1.17.246 1.91zm5.305 2.21c0 .74-.059 1.38-.178 1.93q-.164.81-.506 1.32a2.07 2.07 0 0 1-.82.74c-.328.16-.706.23-1.135.23q-.697 0-1.203-.27c-.337-.18-.615-.46-.834-.83-.191-.31-.342-.7-.451-1.16a9 9 0 0 1-.178-1.6l5.305-3.94zm17.273 7v-19.91h-.2l-8.672 3.13v3.31l5.032-1.8V1076zm17.1 0v-19.91h-.21l-8.67 3.13v3.31l5.04-1.8V1076zm-119.677 48v-19.91h-.205l-8.668 3.13v3.31l5.031-1.8V1124zm20.746-7.57v-4.76q0-1.935-.451-3.39c-.301-.99-.729-1.81-1.285-2.48a5.6 5.6 0 0 0-2.051-1.49c-.802-.33-1.704-.5-2.707-.5-.993 0-1.891.17-2.693.5-.793.34-1.467.84-2.023 1.49-.566.67-.999 1.49-1.299 2.48q-.451 1.455-.451 3.39v4.76c0 1.28.15 2.42.451 3.4.31.98.747 1.79 1.312 2.45a5.36 5.36 0 0 0 2.037 1.5q1.203.51 2.694.51 1.503 0 2.707-.51a5.36 5.36 0 0 0 2.037-1.5c.556-.66.98-1.47 1.271-2.45.301-.98.451-2.12.451-3.4m-9.132-1.64v-3.72q0-1.11.164-1.92c.118-.54.296-.97.533-1.31.219-.32.488-.56.807-.71.328-.17.706-.25 1.134-.25.383 0 .725.07 1.026.19.31.12.569.31.779.56q.41.48.615 1.29c.146.53.228 1.17.246 1.91zm5.304 2.21c0 .74-.059 1.38-.177 1.93q-.164.81-.506 1.32c-.219.33-.492.58-.821.74s-.706.23-1.134.23q-.698 0-1.203-.27a2.14 2.14 0 0 1-.834-.83c-.192-.31-.342-.7-.452-1.16-.1-.47-.159-1-.177-1.6l5.304-3.94zm20.925-.57v-4.76q0-1.935-.451-3.39c-.301-.99-.729-1.81-1.285-2.48a5.6 5.6 0 0 0-2.051-1.49c-.802-.33-1.705-.5-2.707-.5-.994 0-1.892.17-2.694.5-.793.34-1.467.84-2.023 1.49-.565.67-.998 1.49-1.299 2.48q-.451 1.455-.451 3.39v4.76c0 1.28.15 2.42.451 3.4.31.98.747 1.79 1.313 2.45a5.36 5.36 0 0 0 2.037 1.5q1.203.51 2.693.51 1.504 0 2.707-.51a5.36 5.36 0 0 0 2.037-1.5c.556-.66.98-1.47 1.272-2.45.3-.98.451-2.12.451-3.4m-9.133-1.64v-3.72q0-1.11.164-1.92c.119-.54.296-.97.533-1.31.219-.32.488-.56.807-.71.328-.17.706-.25 1.135-.25.383 0 .724.07 1.025.19.31.12.57.31.779.56q.41.48.616 1.29c.145.53.228 1.17.246 1.91zm5.305 2.21c0 .74-.06 1.38-.178 1.93q-.164.81-.506 1.32c-.219.33-.492.58-.82.74s-.707.23-1.135.23q-.698 0-1.203-.27c-.337-.18-.615-.46-.834-.83-.191-.31-.342-.7-.451-1.16a9 9 0 0 1-.178-1.6l5.305-3.94zm17.274 7v-19.91h-.205l-8.668 3.13v3.31l5.031-1.8V1124zm17.096 0v-19.91h-.205l-8.668 3.13v3.31l5.031-1.8V1124zm20.747-7.57v-4.76q0-1.935-.451-3.39c-.301-.99-.729-1.81-1.285-2.48a5.6 5.6 0 0 0-2.051-1.49c-.802-.33-1.704-.5-2.707-.5-.994 0-1.891.17-2.693.5a5.5 5.5 0 0 0-2.024 1.49c-.565.67-.998 1.49-1.299 2.48q-.45 1.455-.451 3.39v4.76c0 1.28.151 2.42.451 3.4.31.98.748 1.79 1.313 2.45a5.36 5.36 0 0 0 2.037 1.5q1.203.51 2.693.51 1.504 0 2.707-.51a5.36 5.36 0 0 0 2.037-1.5c.556-.66.98-1.47 1.272-2.45.301-.98.451-2.12.451-3.4m-9.133-1.64v-3.72q0-1.11.164-1.92c.119-.54.297-.97.534-1.31.218-.32.487-.56.806-.71.328-.17.707-.25 1.135-.25.383 0 .725.07 1.025.19.31.12.57.31.78.56q.41.48.615 1.29c.146.53.228 1.17.246 1.91zm5.305 2.21c0 .74-.059 1.38-.178 1.93q-.164.81-.506 1.32a2.07 2.07 0 0 1-.82.74c-.328.16-.706.23-1.135.23q-.697 0-1.203-.27c-.337-.18-.615-.46-.834-.83-.191-.31-.342-.7-.451-1.16a9 9 0 0 1-.178-1.6l5.305-3.94zm17.273 7v-19.91h-.2l-8.672 3.13v3.31l5.032-1.8V1124zm17.1 0v-19.91h-.21l-8.67 3.13v3.31l5.04-1.8V1124z"/><path stroke="#fff" stroke-width="3" d="M886 720.5h150"/></g><rect width="339" height="672" x="790" y="235" stroke="#eee824" stroke-width="4" rx="4"/><path fill="#fff" d="M848.291 179.102v-3.481h-10.828v-7.717h12.375v-3.498h-16.629V190h4.254v-10.898zm10.828 7.418v-22.114h-4.236V190h16.453v-3.48zm29.443-2.409 1.723 5.889h4.377l-8.191-25.594h-3.744L874.395 190h4.394l1.74-5.889zm-6.96-3.621 2.988-10.125 2.935 10.125zm29.496 2.918q0 .844-.369 1.494a3.3 3.3 0 0 1-.95 1.09q-.615.457-1.459.686a6.7 6.7 0 0 1-1.793.228 7.5 7.5 0 0 1-2.109-.281 4.6 4.6 0 0 1-1.652-.861 4 4 0 0 1-1.143-1.424q-.404-.88-.492-2.057h-4.219q.018 1.863.738 3.287a8.2 8.2 0 0 0 1.987 2.461q1.354 1.125 3.181 1.723 1.828.58 3.709.58a12.7 12.7 0 0 0 3.375-.439q1.6-.457 2.813-1.354a6.35 6.35 0 0 0 1.898-2.162q.721-1.3.721-3.006 0-1.845-.826-3.252a8 8 0 0 0-2.162-2.443 12 12 0 0 0-2.391-1.371 19 19 0 0 0-2.637-.967q-1.072-.317-2.056-.686a9 9 0 0 1-1.723-.861 4.2 4.2 0 0 1-1.178-1.143q-.44-.668-.457-1.546 0-.826.334-1.495.334-.668.932-1.142a4.4 4.4 0 0 1 1.406-.703 5.9 5.9 0 0 1 1.793-.264q1.108 0 1.951.334a4.2 4.2 0 0 1 1.459.879q.58.58.897 1.389.333.79.422 1.757h4.183q0-1.74-.703-3.164a7.5 7.5 0 0 0-1.881-2.478q-1.195-1.02-2.812-1.582-1.6-.58-3.463-.58-1.758 0-3.358.492-1.581.474-2.777 1.389a7 7 0 0 0-1.898 2.25q-.703 1.3-.703 2.935 0 1.512.597 2.725.615 1.195 1.688 2.144 1.072.932 2.584 1.67a21.6 21.6 0 0 0 3.34 1.266q1.178.333 2.126.756a8.2 8.2 0 0 1 1.67.914q.668.544 1.038 1.23.369.686.369 1.582m24.82 6.592v-25.594h-4.131v10.705h-8.613v-10.705h-4.113V190h4.113v-11.408h8.613V190zm31.711-25.594h-5.238V190h3.955v-8.684l-.229-11.004 3.569 11.795h2.197l3.937-12.216-.246 11.425V190h3.973v-25.594h-5.256l-3.498 10.951zm31.658 14.115v-3.41h-10.582v-7.207h12.265v-3.498h-16.501V190h16.591v-3.48h-12.355v-7.999zm11.583-14.115h-5.24V190h3.96v-8.684l-.23-11.004 3.57 11.795h2.19l3.94-12.216-.24 11.425V190h3.97v-25.594h-5.26l-3.49 10.951zm33.96 14.502v-3.375c0-1.066-.09-2.092-.28-3.076q-.285-1.494-.84-2.795a10.4 10.4 0 0 0-1.27-2.232 8.4 8.4 0 0 0-1.77-1.776 8 8 0 0 0-2.31-1.177c-.85-.282-1.79-.422-2.81-.422-1.01 0-1.93.14-2.78.422-.83.269-1.57.656-2.23 1.16a8.4 8.4 0 0 0-1.77 1.828c-.5.691-.91 1.453-1.25 2.285a13.6 13.6 0 0 0-.79 2.76q-.27 1.458-.27 3.023v3.375c0 .996.08 1.969.25 2.918q.24 1.406.72 2.654c.34.868.77 1.665 1.28 2.391a8.6 8.6 0 0 0 1.8 1.863 8.1 8.1 0 0 0 2.26 1.196q1.29.422 2.82.422c.98 0 1.89-.135 2.72-.405a8.4 8.4 0 0 0 2.25-1.107 9 9 0 0 0 1.86-1.846c.54-.726.99-1.517 1.36-2.373.34-.855.6-1.764.77-2.725.19-.96.28-1.957.28-2.988m-4.25-3.41v3.41c0 .621-.04 1.242-.11 1.863a11 11 0 0 1-.31 1.776 8.6 8.6 0 0 1-.67 1.775q-.405.792-1.02 1.371c-.35.34-.77.61-1.27.809a4.2 4.2 0 0 1-1.61.299c-.63 0-1.18-.1-1.66-.299a4.2 4.2 0 0 1-1.24-.844c-.38-.375-.7-.832-.97-1.371a9.7 9.7 0 0 1-.62-1.775q-.21-.845-.3-1.758a23 23 0 0 1-.08-1.846v-3.41c0-.633.03-1.26.08-1.881.08-.633.18-1.23.32-1.793.15-.656.37-1.248.65-1.775.28-.539.63-.996 1.04-1.371.34-.328.74-.58 1.19-.756.46-.188.98-.281 1.55-.281.6 0 1.13.093 1.6.281.47.187.89.445 1.25.773.41.375.75.832 1.04 1.371.29.528.52 1.114.7 1.758q.225.844.33 1.776c.07.621.11 1.254.11 1.898m17.12 4.57 4.9 9.932h4.52v-.229l-5.47-10.705a9.6 9.6 0 0 0 1.92-1.125 7 7 0 0 0 1.48-1.511c.41-.575.72-1.219.95-1.934a7.8 7.8 0 0 0 .35-2.391c0-1.277-.23-2.39-.67-3.339a6.6 6.6 0 0 0-1.88-2.409c-.8-.632-1.75-1.113-2.87-1.441-1.11-.328-2.33-.498-3.65-.51h-8.12V190h4.22v-9.932zm-4.32-3.445v-8.771h3.9c.72 0 1.38.093 1.97.281a4.3 4.3 0 0 1 1.49.808c.45.375.78.844 1 1.407.24.55.35 1.195.35 1.933 0 .657-.1 1.242-.31 1.758s-.51.949-.88 1.301c-.42.41-.94.726-1.55.949-.6.211-1.27.322-2.02.334zm25.59.018-5.38-12.235h-4.69l7.94 16.33.02 9.264h4.13l.04-9.141 8.01-16.453h-4.71zM520.859 482h-14.326v-25.699h14.326v2.654h-11.338v8.279h10.653v2.637h-10.653v9.457h11.338zm14.423-19.617q1.283 0 2.303.211l-.405 2.707q-1.195-.264-2.109-.264-2.338 0-4.008 1.899-1.652 1.897-1.652 4.728V482h-2.918v-19.266h2.408l.334 3.569h.141q1.072-1.881 2.584-2.901a5.8 5.8 0 0 1 3.322-1.019M553.396 482l-.58-2.742h-.141q-1.442 1.81-2.883 2.461-1.423.633-3.568.633-2.865 0-4.5-1.477-1.617-1.476-1.617-4.201 0-5.837 9.334-6.117l3.269-.106v-1.195q0-2.268-.984-3.34-.968-1.09-3.111-1.09-2.409 0-5.45 1.477l-.896-2.233q1.423-.773 3.111-1.213a13.6 13.6 0 0 1 3.41-.439q3.445 0 5.098 1.529 1.67 1.53 1.67 4.905V482zm-6.592-2.057q2.724 0 4.271-1.494 1.565-1.494 1.565-4.183v-1.741l-2.918.123q-3.48.124-5.027 1.09-1.53.95-1.53 2.971 0 1.582.95 2.408.966.826 2.689.826m27.571-3.199q0 2.69-2.004 4.149t-5.625 1.459q-3.832 0-5.977-1.213v-2.707q1.389.703 2.971 1.107 1.6.404 3.076.404 2.286 0 3.516-.72 1.23-.74 1.23-2.233 0-1.125-.984-1.916-.966-.809-3.797-1.898-2.69-1.002-3.832-1.74-1.125-.756-1.687-1.706-.546-.948-.545-2.267 0-2.355 1.916-3.709 1.916-1.371 5.256-1.371 3.11 0 6.082 1.265l-1.037 2.373q-2.901-1.194-5.256-1.195-2.075 0-3.129.651-1.055.65-1.055 1.793 0 .773.387 1.318.404.545 1.283 1.037t3.375 1.424q3.428 1.248 4.623 2.513 1.213 1.266 1.213 3.182m13.262 5.608q-4.27 0-6.75-2.602-2.46-2.601-2.461-7.225 0-4.658 2.285-7.4 2.303-2.742 6.17-2.742 3.621 0 5.731 2.39 2.109 2.373 2.109 6.276v1.846H581.45q.087 3.392 1.705 5.15 1.635 1.758 4.588 1.758 3.111 0 6.152-1.301v2.602q-1.547.667-2.935.949-1.372.299-3.323.299m-.791-17.526q-2.32 0-3.709 1.512-1.371 1.512-1.617 4.183h10.072q0-2.76-1.23-4.218-1.23-1.477-3.516-1.477m-68.325 65.918q0 2.69-2.003 4.149-2.004 1.458-5.625 1.459-3.832 0-5.977-1.213v-2.707q1.389.703 2.971 1.107 1.6.404 3.076.404 2.285 0 3.516-.72 1.23-.74 1.23-2.233 0-1.125-.984-1.916-.968-.809-3.797-1.898-2.69-1.002-3.832-1.74-1.125-.756-1.688-1.706-.545-.948-.545-2.267 0-2.356 1.916-3.709 1.917-1.371 5.256-1.371 3.111 0 6.082 1.265l-1.037 2.373q-2.9-1.195-5.256-1.195-2.075 0-3.129.651-1.054.65-1.054 1.793 0 .773.386 1.318.405.545 1.284 1.037.877.492 3.375 1.424 3.427 1.248 4.623 2.513 1.212 1.266 1.212 3.182m8.042 5.256h-2.918v-19.266h2.918zm-3.164-24.486q0-1.002.492-1.459.492-.475 1.231-.475.702 0 1.213.475.509.474.509 1.459 0 .984-.509 1.476-.51.475-1.213.475-.739 0-1.231-.475-.492-.492-.492-1.476M545.433 536h-13.975v-1.986l10.512-15.012h-9.861v-2.268h13.06v2.268l-10.371 14.73h10.635zm13.016.352q-4.272 0-6.75-2.602-2.46-2.602-2.461-7.225 0-4.658 2.285-7.4 2.303-2.742 6.17-2.742 3.621 0 5.731 2.39 2.109 2.373 2.109 6.276v1.846h-13.271q.087 3.392 1.705 5.15 1.635 1.758 4.588 1.758 3.111 0 6.152-1.301v2.602q-1.547.667-2.936.949-1.37.299-3.322.299m-.791-17.526q-2.32 0-3.709 1.512-1.371 1.512-1.617 4.183h10.072q0-2.76-1.23-4.218-1.23-1.477-3.516-1.477m784.172-117.037q0 3.903-2.67 6.012-2.655 2.091-7.62 2.092h-3.02V420h-2.99v-25.699h6.67q9.63 0 9.63 7.488m-13.31 5.537h2.69c2.65 0 4.57-.428 5.75-1.283q1.77-1.283 1.77-4.113c0-1.7-.55-2.965-1.67-3.797-1.11-.832-2.84-1.248-5.2-1.248h-3.34zm27.41-6.943q1.29 0 2.31.211l-.41 2.707c-.79-.176-1.5-.264-2.11-.264-1.56 0-2.89.633-4 1.899-1.11 1.265-1.66 2.841-1.66 4.728V420h-2.91v-19.266h2.4l.34 3.569h.14q1.065-1.881 2.58-2.901a5.84 5.84 0 0 1 3.32-1.019m22.9 9.967q0 4.71-2.37 7.365c-1.59 1.758-3.77 2.637-6.56 2.637q-2.58 0-4.59-1.213c-1.33-.809-2.37-1.969-3.09-3.481-.73-1.512-1.09-3.281-1.09-5.308 0-3.141.78-5.584 2.35-7.33q2.355-2.637 6.54-2.637 4.05 0 6.42 2.689c1.59 1.793 2.39 4.219 2.39 7.278m-14.68 0c0 2.461.49 4.336 1.48 5.625.98 1.289 2.43 1.933 4.34 1.933s3.36-.638 4.34-1.916q1.5-1.934 1.5-5.642 0-3.675-1.5-5.573-1.47-1.916-4.38-1.916-2.865 0-4.32 1.881c-.97 1.254-1.46 3.123-1.46 5.608m35.94-9.616v1.846l-3.57.422c.33.41.62.949.88 1.617q.39.985.39 2.233c0 1.886-.65 3.392-1.94 4.517q-1.935 1.688-5.31 1.688a8.7 8.7 0 0 1-1.61-.141c-1.24.656-1.87 1.482-1.87 2.479 0 .527.22.919.65 1.177.44.246 1.18.369 2.24.369h3.41q3.12 0 4.8 1.319t1.68 3.832c0 2.133-.85 3.756-2.56 4.869-1.71 1.125-4.21 1.687-7.49 1.687-2.52 0-4.47-.468-5.84-1.406q-2.04-1.406-2.04-3.972c0-1.172.38-2.186 1.13-3.041.75-.856 1.8-1.436 3.16-1.741a3.04 3.04 0 0 1-1.24-1.037 2.77 2.77 0 0 1-.5-1.635q0-1.055.57-1.845.555-.791 1.77-1.53c-1-.41-1.81-1.107-2.44-2.091q-.93-1.478-.93-3.375 0-3.165 1.89-4.87c1.27-1.148 3.06-1.722 5.38-1.722q1.515 0 2.73.351zm-15.36 22.5c0 1.043.44 1.834 1.31 2.373q1.32.809 3.78.809c2.45 0 4.26-.369 5.44-1.107q1.77-1.09 1.77-2.971c0-1.043-.32-1.77-.97-2.18q-.96-.597-3.63-.597h-3.5c-1.33 0-2.36.316-3.1.949-.73.633-1.1 1.541-1.1 2.724m1.58-16.33q0 2.022 1.14 3.059t3.18 1.037c2.85 0 4.27-1.383 4.27-4.148q0-4.342-4.32-4.342c-1.37 0-2.43.369-3.16 1.107q-1.11 1.107-1.11 3.287m26.88-6.521q1.29 0 2.31.211l-.41 2.707c-.79-.176-1.5-.264-2.11-.264-1.56 0-2.89.633-4 1.899-1.11 1.265-1.66 2.841-1.66 4.728V420h-2.92v-19.266h2.41l.34 3.569h.14q1.065-1.881 2.58-2.901a5.84 5.84 0 0 1 3.32-1.019M1431.31 420l-.58-2.742h-.14c-.96 1.207-1.92 2.027-2.89 2.461-.94.422-2.13.633-3.56.633q-2.865 0-4.5-1.477-1.62-1.476-1.62-4.201 0-5.837 9.33-6.117l3.27-.106v-1.195c0-1.512-.33-2.625-.98-3.34-.65-.727-1.68-1.09-3.11-1.09-1.61 0-3.43.492-5.45 1.477l-.9-2.233c.95-.515 1.99-.92 3.11-1.213 1.14-.293 2.28-.439 3.41-.439q3.45 0 5.1 1.529c1.11 1.02 1.67 2.655 1.67 4.905V420zm-6.59-2.057c1.81 0 3.24-.498 4.27-1.494q1.56-1.494 1.56-4.183v-1.741l-2.92.123c-2.32.082-3.99.446-5.02 1.09q-1.53.95-1.53 2.971c0 1.055.31 1.857.95 2.408s1.54.826 2.69.826m39.7 2.057v-12.533q0-2.303-.99-3.446-.975-1.16-3.06-1.16c-1.81 0-3.16.522-4.02 1.565-.87 1.043-1.3 2.648-1.3 4.816V420h-2.92v-12.533q0-2.303-.99-3.446c-.65-.773-1.68-1.16-3.07-1.16-1.83 0-3.17.551-4.03 1.653q-1.26 1.634-1.26 5.379V420h-2.92v-19.266h2.37l.48 2.637h.14a5.7 5.7 0 0 1 2.32-2.197c1.01-.528 2.13-.791 3.37-.791q4.515 0 5.91 3.269h.14c.57-1.007 1.41-1.804 2.5-2.39q1.635-.879 3.72-.879 3.27 0 4.89 1.687c1.09 1.114 1.63 2.901 1.63 5.362V420zm-126.9 48.744c0 1.793-.67 3.176-2 4.149-1.34.972-3.21 1.459-5.63 1.459q-3.825 0-5.97-1.213v-2.707q1.38.703 2.97 1.107c1.06.27 2.09.404 3.07.404 1.53 0 2.7-.24 3.52-.72q1.23-.74 1.23-2.233 0-1.125-.99-1.916c-.64-.539-1.91-1.172-3.79-1.898-1.8-.668-3.07-1.248-3.83-1.74-.75-.504-1.32-1.073-1.69-1.706-.37-.632-.55-1.388-.55-2.267q0-2.355 1.92-3.709c1.28-.914 3.03-1.371 5.26-1.371 2.07 0 4.1.422 6.08 1.265l-1.04 2.373c-1.93-.796-3.69-1.195-5.26-1.195q-2.07 0-3.12.651c-.71.433-1.06 1.031-1.06 1.793q0 .773.39 1.318c.27.363.69.709 1.28 1.037s1.71.803 3.38 1.424q3.42 1.248 4.62 2.513c.81.844 1.21 1.905 1.21 3.182m8.04 5.256h-2.91v-19.266h2.91zm-3.16-24.486c0-.668.16-1.155.49-1.459q.495-.475 1.23-.475c.47 0 .87.158 1.21.475q.51.474.51 1.459 0 .984-.51 1.476c-.34.317-.74.475-1.21.475q-.735 0-1.23-.475c-.33-.328-.49-.82-.49-1.476M1364.43 474h-13.97v-1.986l10.51-15.012h-9.86v-2.268h13.06v2.268l-10.37 14.73h10.63zm13.02.352q-4.275 0-6.75-2.602-2.46-2.601-2.46-7.225 0-4.658 2.28-7.4c1.54-1.828 3.6-2.742 6.17-2.742q3.63 0 5.73 2.39c1.41 1.582 2.11 3.674 2.11 6.276v1.846h-13.27q.09 3.392 1.71 5.15c1.09 1.172 2.62 1.758 4.58 1.758 2.08 0 4.13-.434 6.16-1.301v2.602q-1.545.667-2.94.949c-.91.199-2.02.299-3.32.299m-.79-17.526c-1.55 0-2.79.504-3.71 1.512q-1.365 1.512-1.62 4.183h10.07q0-2.76-1.23-4.218-1.23-1.477-3.51-1.477m-48.14 205.486V673h-2.99v-25.699h7.05c3.15 0 5.48.603 6.98 1.81 1.51 1.207 2.27 3.024 2.27 5.45 0 3.398-1.72 5.695-5.17 6.89l6.98 11.549h-3.53l-6.23-10.688zm0-2.566h4.1c2.11 0 3.65-.416 4.64-1.248q1.47-1.265 1.47-3.779c0-1.699-.5-2.924-1.51-3.674-.99-.75-2.6-1.125-4.81-1.125h-3.89zm27.33 13.606q-4.275 0-6.75-2.602-2.46-2.602-2.46-7.225 0-4.658 2.28-7.4c1.54-1.828 3.59-2.742 6.17-2.742q3.615 0 5.73 2.39c1.41 1.582 2.11 3.674 2.11 6.276v1.846h-13.27c.06 2.261.63 3.978 1.7 5.15q1.635 1.758 4.59 1.758 3.12 0 6.15-1.301v2.602c-1.03.445-2.01.761-2.93.949-.92.199-2.02.299-3.32.299m-.79-17.526c-1.55 0-2.79.504-3.71 1.512q-1.38 1.512-1.62 4.183h10.07q0-2.76-1.23-4.218-1.23-1.477-3.51-1.477M1380.13 673l-.58-2.742h-.14q-1.44 1.81-2.88 2.461-1.425.633-3.57.633-2.865 0-4.5-1.477-1.62-1.476-1.62-4.201c0-3.891 3.11-5.93 9.34-6.117l3.26-.106v-1.195c0-1.512-.32-2.625-.98-3.34-.64-.727-1.68-1.09-3.11-1.09-1.61 0-3.42.492-5.45 1.477l-.9-2.233c.95-.515 1.99-.92 3.11-1.213 1.14-.293 2.28-.439 3.41-.439q3.45 0 5.1 1.529c1.12 1.02 1.67 2.655 1.67 4.905V673zm-6.59-2.057c1.81 0 3.24-.498 4.27-1.494q1.56-1.494 1.56-4.183v-1.741l-2.91.123c-2.32.082-4 .446-5.03 1.09q-1.53.95-1.53 2.971c0 1.055.32 1.857.95 2.408.64.551 1.54.826 2.69.826m28.25-.527h-.15c-1.35 1.957-3.37 2.936-6.05 2.936-2.52 0-4.48-.862-5.89-2.584-1.39-1.723-2.09-4.172-2.09-7.348s.7-5.643 2.11-7.4c1.4-1.758 3.36-2.637 5.87-2.637 2.61 0 4.62.949 6.01 2.847h.23l-.12-1.388-.07-1.354v-7.84h2.91V673h-2.37zm-5.83.492q2.985 0 4.32-1.617c.91-1.09 1.36-2.842 1.36-5.256v-.615c0-2.731-.46-4.676-1.37-5.836-.91-1.172-2.35-1.758-4.35-1.758q-2.565 0-3.93 2.004c-.91 1.324-1.36 3.199-1.36 5.625 0 2.461.45 4.318 1.36 5.572.9 1.254 2.22 1.881 3.97 1.881m37.3-3.164c0 1.793-.67 3.176-2 4.149-1.34.972-3.22 1.459-5.63 1.459-2.55 0-4.55-.405-5.98-1.213v-2.707q1.395.703 2.97 1.107c1.07.27 2.1.404 3.08.404 1.52 0 2.7-.24 3.52-.72q1.23-.74 1.23-2.233 0-1.125-.99-1.916c-.64-.539-1.91-1.172-3.79-1.898q-2.7-1.002-3.84-1.74-1.125-.756-1.68-1.706c-.37-.632-.55-1.388-.55-2.267q0-2.356 1.92-3.709c1.27-.914 3.03-1.371 5.25-1.371 2.08 0 4.1.422 6.08 1.265l-1.03 2.373c-1.94-.796-3.69-1.195-5.26-1.195-1.38 0-2.42.217-3.13.651q-1.05.65-1.05 1.793c0 .515.13.955.38 1.318q.405.545 1.29 1.037c.58.328 1.71.803 3.37 1.424 2.29.832 3.83 1.67 4.63 2.513.8.844 1.21 1.905 1.21 3.182m8.04 5.256h-2.92v-19.266h2.92zm-3.16-24.486c0-.668.16-1.155.49-1.459q.495-.475 1.23-.475c.47 0 .87.158 1.21.475q.51.474.51 1.459 0 .984-.51 1.476c-.34.317-.74.475-1.21.475q-.735 0-1.23-.475c-.33-.328-.49-.82-.49-1.476M1460.17 673h-13.97v-1.986l10.51-15.012h-9.86v-2.268h13.06v2.268l-10.37 14.73h10.63zm13.02.352q-4.275 0-6.75-2.602-2.46-2.602-2.46-7.225 0-4.658 2.28-7.4c1.54-1.828 3.59-2.742 6.17-2.742 2.41 0 4.33.797 5.73 2.39 1.41 1.582 2.11 3.674 2.11 6.276v1.846H1467c.06 2.261.63 3.978 1.7 5.15q1.635 1.758 4.59 1.758 3.12 0 6.15-1.301v2.602c-1.03.445-2.01.761-2.93.949-.92.199-2.02.299-3.32.299m-.79-17.526c-1.55 0-2.79.504-3.71 1.512q-1.38 1.512-1.62 4.183h10.07q0-2.76-1.23-4.218-1.23-1.477-3.51-1.477"/><path stroke="#eee824" stroke-dasharray="10 10" stroke-width="5" d="M625 499.942h47.791m0 0V326h56.849m-56.849 173.942V679H731m543-271.333h-60.94m0 0V487H1167m46.06-79.333V326h-45.61M1265 661.261h-58.91m0 0V679h-43.77m43.77-17.739V643H1162"/><defs><clipPath id="a"><rect width="283" height="608" x="818" y="268" fill="#fff" rx="6"/></clipPath></defs></svg>