<svg width="1229" height="722" viewBox="0 0 1229 722" fill="none" xmlns="http://www.w3.org/2000/svg">
<rect width="1229" height="722" fill="#363636"/>
<g filter="url(#filter0_d)">
<path d="M124 124.5H146H161.5H177H192.5H208H223.5H239H259V259.5H124V124.5Z" fill="#555A57"/>
</g>
<rect x="139.08" y="140.58" width="105.84" height="105.84" stroke="white" stroke-width="0.16"/>
<line x1="139.5" y1="114.5" x2="139.5" y2="124.5" stroke="#8C9091" stroke-width="3"/>
<line x1="156.5" y1="114.5" x2="156.5" y2="124.5" stroke="#8C9091" stroke-width="3"/>
<line x1="173.5" y1="114.5" x2="173.5" y2="124.5" stroke="#8C9091" stroke-width="3"/>
<line x1="190.5" y1="114.5" x2="190.5" y2="124.5" stroke="#8C9091" stroke-width="3"/>
<line x1="207.5" y1="114.5" x2="207.5" y2="124.5" stroke="#8C9091" stroke-width="3"/>
<line x1="224.5" y1="114.5" x2="224.5" y2="124.5" stroke="#8C9091" stroke-width="3"/>
<line x1="241.5" y1="114.5" x2="241.5" y2="124.5" stroke="#8C9091" stroke-width="3"/>
<line x1="269" y1="139" x2="259" y2="139" stroke="#8C9091" stroke-width="3"/>
<line x1="269" y1="156" x2="259" y2="156" stroke="#8C9091" stroke-width="3"/>
<line x1="269" y1="173" x2="259" y2="173" stroke="#8C9091" stroke-width="3"/>
<line x1="269" y1="190" x2="259" y2="190" stroke="#8C9091" stroke-width="3"/>
<line x1="269" y1="207" x2="259" y2="207" stroke="#8C9091" stroke-width="3"/>
<line x1="269" y1="224" x2="259" y2="224" stroke="#8C9091" stroke-width="3"/>
<line x1="269" y1="241" x2="259" y2="241" stroke="#8C9091" stroke-width="3"/>
<line x1="138.5" y1="259.5" x2="138.5" y2="269.5" stroke="#8C9091" stroke-width="3"/>
<line x1="155.5" y1="259.5" x2="155.5" y2="269.5" stroke="#8C9091" stroke-width="3"/>
<line x1="172.5" y1="259.5" x2="172.5" y2="269.5" stroke="#8C9091" stroke-width="3"/>
<line x1="189.5" y1="259.5" x2="189.5" y2="269.5" stroke="#8C9091" stroke-width="3"/>
<line x1="206.5" y1="259.5" x2="206.5" y2="269.5" stroke="#8C9091" stroke-width="3"/>
<line x1="223.5" y1="259.5" x2="223.5" y2="269.5" stroke="#8C9091" stroke-width="3"/>
<line x1="240.5" y1="259.5" x2="240.5" y2="269.5" stroke="#8C9091" stroke-width="3"/>
<line x1="115" y1="243" x2="125" y2="243" stroke="#8C9091" stroke-width="3"/>
<line x1="115" y1="226" x2="125" y2="226" stroke="#8C9091" stroke-width="3"/>
<line x1="115" y1="209" x2="125" y2="209" stroke="#8C9091" stroke-width="3"/>
<line x1="115" y1="192" x2="125" y2="192" stroke="#8C9091" stroke-width="3"/>
<line x1="115" y1="175" x2="125" y2="175" stroke="#8C9091" stroke-width="3"/>
<line x1="115" y1="158" x2="125" y2="158" stroke="#8C9091" stroke-width="3"/>
<line x1="115" y1="141" x2="125" y2="141" stroke="#8C9091" stroke-width="3"/>
<path d="M177.99 179.906L181.172 190.963L184.688 179.906H189.926V205.5H185.953V196.711L186.199 185.496L182.262 197.766H180.047L176.479 185.918L176.725 196.711V205.5H172.752V179.906H177.99ZM211.266 182.244L201.018 205.5H196.588L206.836 183.404H193.564V179.906H211.266V182.244Z" fill="white"/>
<path d="M189.232 383.768C190.209 384.744 191.791 384.744 192.768 383.768L208.678 367.858C209.654 366.882 209.654 365.299 208.678 364.322C207.701 363.346 206.118 363.346 205.142 364.322L191 378.464L176.858 364.322C175.882 363.346 174.299 363.346 173.322 364.322C172.346 365.299 172.346 366.882 173.322 367.858L189.232 383.768ZM188.5 334L188.5 382L193.5 382L193.5 334L188.5 334Z" fill="#EEE824"/>
<path d="M116.604 612.143C116.486 613.373 116.193 614.498 115.725 615.518C115.256 616.525 114.635 617.393 113.861 618.119C113.088 618.834 112.174 619.391 111.119 619.789C110.076 620.176 108.91 620.369 107.621 620.369C106.062 620.369 104.703 620.07 103.543 619.473C102.383 618.863 101.416 618.043 100.643 617.012C99.8691 615.98 99.2891 614.773 98.9023 613.391C98.5156 612.008 98.3164 610.531 98.3047 608.961V605.463C98.3164 603.904 98.5215 602.434 98.9199 601.051C99.3184 599.656 99.9043 598.443 100.678 597.412C101.463 596.369 102.436 595.549 103.596 594.951C104.756 594.342 106.104 594.037 107.639 594.037C108.986 594.037 110.188 594.236 111.242 594.635C112.297 595.033 113.199 595.596 113.949 596.322C114.699 597.049 115.297 597.934 115.742 598.977C116.188 600.02 116.475 601.18 116.604 602.457H112.385C112.314 601.707 112.168 601.027 111.945 600.418C111.734 599.797 111.441 599.27 111.066 598.836C110.691 598.391 110.217 598.051 109.643 597.816C109.08 597.582 108.412 597.465 107.639 597.465C106.689 597.465 105.893 597.682 105.248 598.115C104.604 598.549 104.082 599.135 103.684 599.873C103.285 600.6 102.998 601.443 102.822 602.404C102.658 603.365 102.576 604.373 102.576 605.428V608.961C102.576 610.062 102.658 611.1 102.822 612.072C102.998 613.033 103.279 613.877 103.666 614.604C104.053 615.33 104.568 615.904 105.213 616.326C105.857 616.748 106.66 616.959 107.621 616.959C109.098 616.959 110.223 616.543 110.996 615.711C111.77 614.867 112.227 613.678 112.367 612.143H116.604ZM125.48 610.191V620H121.262V594.406H129.822C131.1 594.418 132.277 594.611 133.355 594.986C134.445 595.35 135.383 595.877 136.168 596.568C136.953 597.248 137.562 598.08 137.996 599.064C138.441 600.037 138.664 601.139 138.664 602.369C138.664 603.564 138.441 604.643 137.996 605.604C137.562 606.564 136.953 607.385 136.168 608.064C135.383 608.744 134.445 609.266 133.355 609.629C132.277 609.992 131.1 610.18 129.822 610.191H125.48ZM125.48 606.781H129.822C130.537 606.781 131.176 606.676 131.738 606.465C132.301 606.242 132.781 605.938 133.18 605.551C133.578 605.164 133.883 604.701 134.094 604.162C134.305 603.623 134.41 603.037 134.41 602.404C134.41 601.736 134.305 601.121 134.094 600.559C133.883 599.996 133.578 599.516 133.18 599.117C132.781 598.707 132.301 598.391 131.738 598.168C131.176 597.945 130.537 597.828 129.822 597.816H125.48V606.781ZM159.213 594.406L159.248 611.545C159.236 612.857 159.025 614.059 158.615 615.148C158.205 616.227 157.631 617.152 156.893 617.926C156.154 618.699 155.258 619.297 154.203 619.719C153.16 620.141 151.988 620.352 150.688 620.352C149.422 620.352 148.273 620.141 147.242 619.719C146.211 619.297 145.326 618.705 144.588 617.943C143.85 617.17 143.275 616.244 142.865 615.166C142.455 614.076 142.244 612.869 142.232 611.545L142.268 594.406H146.416L146.451 611.545C146.463 612.33 146.562 613.051 146.75 613.707C146.938 614.363 147.207 614.932 147.559 615.412C147.91 615.881 148.344 616.25 148.859 616.52C149.387 616.777 149.996 616.906 150.688 616.906C151.391 616.906 152.012 616.777 152.551 616.52C153.09 616.25 153.541 615.881 153.904 615.412C154.268 614.932 154.543 614.363 154.73 613.707C154.918 613.051 155.018 612.33 155.029 611.545L155.064 594.406H159.213ZM203.088 612.143C202.971 613.373 202.678 614.498 202.209 615.518C201.74 616.525 201.119 617.393 200.346 618.119C199.572 618.834 198.658 619.391 197.604 619.789C196.561 620.176 195.395 620.369 194.105 620.369C192.547 620.369 191.188 620.07 190.027 619.473C188.867 618.863 187.9 618.043 187.127 617.012C186.354 615.98 185.773 614.773 185.387 613.391C185 612.008 184.801 610.531 184.789 608.961V605.463C184.801 603.904 185.006 602.434 185.404 601.051C185.803 599.656 186.389 598.443 187.162 597.412C187.947 596.369 188.92 595.549 190.08 594.951C191.24 594.342 192.588 594.037 194.123 594.037C195.471 594.037 196.672 594.236 197.727 594.635C198.781 595.033 199.684 595.596 200.434 596.322C201.184 597.049 201.781 597.934 202.227 598.977C202.672 600.02 202.959 601.18 203.088 602.457H198.869C198.799 601.707 198.652 601.027 198.43 600.418C198.219 599.797 197.926 599.27 197.551 598.836C197.176 598.391 196.701 598.051 196.127 597.816C195.564 597.582 194.896 597.465 194.123 597.465C193.174 597.465 192.377 597.682 191.732 598.115C191.088 598.549 190.566 599.135 190.168 599.873C189.77 600.6 189.482 601.443 189.307 602.404C189.143 603.365 189.061 604.373 189.061 605.428V608.961C189.061 610.062 189.143 611.1 189.307 612.072C189.482 613.033 189.764 613.877 190.15 614.604C190.537 615.33 191.053 615.904 191.697 616.326C192.342 616.748 193.145 616.959 194.105 616.959C195.582 616.959 196.707 616.543 197.48 615.711C198.254 614.867 198.711 613.678 198.852 612.143H203.088ZM224.779 608.855C224.779 610.367 224.586 611.82 224.199 613.215C223.812 614.598 223.232 615.822 222.459 616.889C221.697 617.943 220.736 618.787 219.576 619.42C218.428 620.041 217.08 620.352 215.533 620.352C213.998 620.352 212.662 620.035 211.525 619.402C210.389 618.77 209.439 617.926 208.678 616.871C207.928 615.805 207.359 614.58 206.973 613.197C206.598 611.814 206.41 610.367 206.41 608.855V605.586C206.41 604.578 206.492 603.594 206.656 602.633C206.832 601.672 207.084 600.77 207.412 599.926C207.752 599.07 208.168 598.285 208.66 597.57C209.164 596.844 209.75 596.223 210.418 595.707C211.098 595.191 211.859 594.787 212.703 594.494C213.559 594.201 214.496 594.055 215.516 594.055C217.062 594.055 218.41 594.371 219.559 595.004C220.719 595.637 221.686 596.486 222.459 597.553C223.232 598.607 223.812 599.832 224.199 601.227C224.586 602.621 224.779 604.074 224.779 605.586V608.855ZM220.543 605.551C220.531 604.59 220.443 603.635 220.279 602.686C220.115 601.736 219.84 600.893 219.453 600.154C219.066 599.404 218.551 598.801 217.906 598.344C217.273 597.875 216.477 597.641 215.516 597.641C214.566 597.641 213.775 597.875 213.143 598.344C212.521 598.801 212.023 599.404 211.648 600.154C211.285 600.904 211.027 601.754 210.875 602.703C210.734 603.641 210.658 604.59 210.646 605.551V608.855C210.658 609.816 210.74 610.771 210.893 611.721C211.045 612.658 211.303 613.508 211.666 614.27C212.041 615.02 212.539 615.629 213.16 616.098C213.793 616.566 214.584 616.801 215.533 616.801C216.494 616.801 217.291 616.566 217.924 616.098C218.568 615.629 219.084 615.02 219.471 614.27C219.857 613.52 220.127 612.67 220.279 611.721C220.443 610.771 220.531 609.816 220.543 608.855V605.551ZM237.629 610.016H233.34V620H229.121V594.406H237.207C238.52 594.418 239.727 594.588 240.828 594.916C241.941 595.232 242.902 595.713 243.711 596.357C244.52 596.99 245.146 597.787 245.592 598.748C246.037 599.709 246.26 600.834 246.26 602.123C246.26 602.99 246.143 603.781 245.908 604.496C245.686 605.199 245.369 605.838 244.959 606.412C244.549 606.986 244.057 607.49 243.482 607.924C242.908 608.357 242.275 608.727 241.584 609.031L246.998 619.789V620H242.498L237.629 610.016ZM233.34 606.605H237.225C237.928 606.605 238.572 606.506 239.158 606.307C239.744 606.107 240.248 605.826 240.67 605.463C241.104 605.088 241.438 604.637 241.672 604.109C241.906 603.57 242.023 602.955 242.023 602.264C242.023 601.549 241.912 600.916 241.689 600.365C241.467 599.814 241.145 599.352 240.723 598.977C240.312 598.602 239.809 598.32 239.211 598.133C238.613 597.934 237.945 597.828 237.207 597.816H233.34V606.605ZM265.666 608.521H255.137V616.555H267.459V620H250.9V594.406H267.336V597.887H255.137V605.111H265.666V608.521ZM285.582 613.408C285.582 612.799 285.453 612.266 285.195 611.809C284.949 611.34 284.592 610.93 284.123 610.578C283.666 610.227 283.115 609.922 282.471 609.664C281.838 609.395 281.146 609.148 280.396 608.926C279.389 608.633 278.393 608.27 277.408 607.836C276.436 607.402 275.562 606.875 274.789 606.254C274.027 605.621 273.406 604.889 272.926 604.057C272.457 603.213 272.223 602.24 272.223 601.139C272.223 600.037 272.457 599.053 272.926 598.186C273.406 597.307 274.045 596.562 274.842 595.953C275.639 595.344 276.564 594.875 277.619 594.547C278.674 594.219 279.775 594.055 280.924 594.055C282.154 594.055 283.303 594.248 284.369 594.635C285.447 595.01 286.385 595.543 287.182 596.234C287.99 596.914 288.629 597.734 289.098 598.695C289.566 599.645 289.807 600.699 289.818 601.859H285.6C285.541 601.215 285.4 600.629 285.178 600.102C284.967 599.562 284.662 599.1 284.264 598.713C283.877 598.326 283.402 598.027 282.84 597.816C282.277 597.605 281.627 597.5 280.889 597.5C280.256 597.5 279.67 597.582 279.131 597.746C278.592 597.91 278.123 598.15 277.725 598.467C277.338 598.783 277.033 599.164 276.811 599.609C276.588 600.055 276.477 600.559 276.477 601.121C276.477 601.719 276.629 602.24 276.934 602.686C277.238 603.119 277.637 603.5 278.129 603.828C278.621 604.156 279.184 604.443 279.816 604.689C280.461 604.924 281.129 605.141 281.82 605.34C282.887 605.656 283.906 606.049 284.879 606.518C285.852 606.975 286.707 607.531 287.445 608.188C288.184 608.832 288.77 609.582 289.203 610.438C289.637 611.293 289.854 612.271 289.854 613.373C289.854 614.51 289.613 615.512 289.133 616.379C288.652 617.246 288.008 617.973 287.199 618.559C286.391 619.145 285.453 619.59 284.387 619.895C283.32 620.188 282.207 620.334 281.047 620.334C280.262 620.334 279.482 620.258 278.709 620.105C277.936 619.953 277.191 619.725 276.477 619.42C275.773 619.115 275.117 618.74 274.508 618.295C273.898 617.838 273.365 617.316 272.908 616.73C272.463 616.133 272.111 615.471 271.854 614.744C271.596 614.006 271.461 613.197 271.449 612.318H275.686C275.744 613.092 275.914 613.766 276.195 614.34C276.477 614.914 276.852 615.395 277.32 615.781C277.789 616.156 278.334 616.443 278.955 616.643C279.588 616.83 280.285 616.924 281.047 616.924C281.68 616.924 282.271 616.848 282.822 616.695C283.373 616.543 283.854 616.32 284.264 616.027C284.674 615.723 284.996 615.354 285.23 614.92C285.465 614.475 285.582 613.971 285.582 613.408Z" fill="white"/>
<path d="M374.949 446H372.125V432.395L367.766 433.988V431.527L374.773 428.938H374.949V446ZM392.738 439.508C392.738 440.609 392.609 441.582 392.352 442.426C392.102 443.262 391.738 443.965 391.262 444.535C390.785 445.098 390.203 445.523 389.516 445.812C388.828 446.102 388.055 446.246 387.195 446.246C386.344 446.246 385.574 446.102 384.887 445.812C384.199 445.523 383.613 445.098 383.129 444.535C382.652 443.965 382.281 443.262 382.016 442.426C381.758 441.582 381.629 440.609 381.629 439.508V435.43C381.629 434.328 381.758 433.359 382.016 432.523C382.273 431.68 382.641 430.977 383.117 430.414C383.602 429.844 384.184 429.414 384.863 429.125C385.551 428.836 386.32 428.691 387.172 428.691C388.031 428.691 388.805 428.836 389.492 429.125C390.18 429.414 390.762 429.844 391.238 430.414C391.723 430.977 392.094 431.68 392.352 432.523C392.609 433.359 392.738 434.328 392.738 435.43V439.508ZM384.441 438.441L389.902 434.375C389.84 433.211 389.582 432.352 389.129 431.797C388.684 431.234 388.031 430.953 387.172 430.953C386.258 430.953 385.574 431.277 385.121 431.926C384.668 432.574 384.441 433.57 384.441 434.914V438.441ZM389.926 436.578L384.465 440.645C384.605 442.879 385.516 443.996 387.195 443.996C389.016 443.996 389.926 442.664 389.926 440V436.578ZM407.152 439.508C407.152 440.609 407.023 441.582 406.766 442.426C406.516 443.262 406.152 443.965 405.676 444.535C405.199 445.098 404.617 445.523 403.93 445.812C403.242 446.102 402.469 446.246 401.609 446.246C400.758 446.246 399.988 446.102 399.301 445.812C398.613 445.523 398.027 445.098 397.543 444.535C397.066 443.965 396.695 443.262 396.43 442.426C396.172 441.582 396.043 440.609 396.043 439.508V435.43C396.043 434.328 396.172 433.359 396.43 432.523C396.688 431.68 397.055 430.977 397.531 430.414C398.016 429.844 398.598 429.414 399.277 429.125C399.965 428.836 400.734 428.691 401.586 428.691C402.445 428.691 403.219 428.836 403.906 429.125C404.594 429.414 405.176 429.844 405.652 430.414C406.137 430.977 406.508 431.68 406.766 432.523C407.023 433.359 407.152 434.328 407.152 435.43V439.508ZM398.855 438.441L404.316 434.375C404.254 433.211 403.996 432.352 403.543 431.797C403.098 431.234 402.445 430.953 401.586 430.953C400.672 430.953 399.988 431.277 399.535 431.926C399.082 432.574 398.855 433.57 398.855 434.914V438.441ZM404.34 436.578L398.879 440.645C399.02 442.879 399.93 443.996 401.609 443.996C403.43 443.996 404.34 442.664 404.34 440V436.578ZM418.191 446H415.367V432.395L411.008 433.988V431.527L418.016 428.938H418.191V446ZM435.98 439.508C435.98 440.609 435.852 441.582 435.594 442.426C435.344 443.262 434.98 443.965 434.504 444.535C434.027 445.098 433.445 445.523 432.758 445.812C432.07 446.102 431.297 446.246 430.438 446.246C429.586 446.246 428.816 446.102 428.129 445.812C427.441 445.523 426.855 445.098 426.371 444.535C425.895 443.965 425.523 443.262 425.258 442.426C425 441.582 424.871 440.609 424.871 439.508V435.43C424.871 434.328 425 433.359 425.258 432.523C425.516 431.68 425.883 430.977 426.359 430.414C426.844 429.844 427.426 429.414 428.105 429.125C428.793 428.836 429.562 428.691 430.414 428.691C431.273 428.691 432.047 428.836 432.734 429.125C433.422 429.414 434.004 429.844 434.48 430.414C434.965 430.977 435.336 431.68 435.594 432.523C435.852 433.359 435.98 434.328 435.98 435.43V439.508ZM427.684 438.441L433.145 434.375C433.082 433.211 432.824 432.352 432.371 431.797C431.926 431.234 431.273 430.953 430.414 430.953C429.5 430.953 428.816 431.277 428.363 431.926C427.91 432.574 427.684 433.57 427.684 434.914V438.441ZM433.168 436.578L427.707 440.645C427.848 442.879 428.758 443.996 430.438 443.996C432.258 443.996 433.168 442.664 433.168 440V436.578ZM447.02 446H444.195V432.395L439.836 433.988V431.527L446.844 428.938H447.02V446ZM464.809 439.508C464.809 440.609 464.68 441.582 464.422 442.426C464.172 443.262 463.809 443.965 463.332 444.535C462.855 445.098 462.273 445.523 461.586 445.812C460.898 446.102 460.125 446.246 459.266 446.246C458.414 446.246 457.645 446.102 456.957 445.812C456.27 445.523 455.684 445.098 455.199 444.535C454.723 443.965 454.352 443.262 454.086 442.426C453.828 441.582 453.699 440.609 453.699 439.508V435.43C453.699 434.328 453.828 433.359 454.086 432.523C454.344 431.68 454.711 430.977 455.188 430.414C455.672 429.844 456.254 429.414 456.934 429.125C457.621 428.836 458.391 428.691 459.242 428.691C460.102 428.691 460.875 428.836 461.562 429.125C462.25 429.414 462.832 429.844 463.309 430.414C463.793 430.977 464.164 431.68 464.422 432.523C464.68 433.359 464.809 434.328 464.809 435.43V439.508ZM456.512 438.441L461.973 434.375C461.91 433.211 461.652 432.352 461.199 431.797C460.754 431.234 460.102 430.953 459.242 430.953C458.328 430.953 457.645 431.277 457.191 431.926C456.738 432.574 456.512 433.57 456.512 434.914V438.441ZM461.996 436.578L456.535 440.645C456.676 442.879 457.586 443.996 459.266 443.996C461.086 443.996 461.996 442.664 461.996 440V436.578Z" fill="white"/>
<path d="M165.406 318V300.938H170.855C171.676 300.945 172.441 301.039 173.152 301.219C173.871 301.398 174.496 301.676 175.027 302.051C175.566 302.426 175.988 302.906 176.293 303.492C176.598 304.07 176.746 304.758 176.738 305.555C176.73 306.398 176.496 307.121 176.035 307.723C175.574 308.316 174.953 308.777 174.172 309.105C174.648 309.238 175.07 309.43 175.438 309.68C175.812 309.922 176.125 310.215 176.375 310.559C176.625 310.902 176.816 311.285 176.949 311.707C177.082 312.121 177.148 312.562 177.148 313.031C177.148 313.844 177 314.559 176.703 315.176C176.406 315.793 175.992 316.309 175.461 316.723C174.938 317.137 174.312 317.453 173.586 317.672C172.867 317.883 172.09 317.992 171.254 318H165.406ZM168.23 310.266V315.703H171.301C171.746 315.695 172.152 315.629 172.52 315.504C172.887 315.371 173.203 315.191 173.469 314.965C173.734 314.738 173.941 314.461 174.09 314.133C174.246 313.805 174.324 313.438 174.324 313.031C174.324 312.602 174.258 312.219 174.125 311.883C173.992 311.539 173.801 311.25 173.551 311.016C173.301 310.781 172.996 310.602 172.637 310.477C172.277 310.344 171.875 310.273 171.43 310.266H168.23ZM168.23 308.121H170.926C171.348 308.113 171.738 308.059 172.098 307.957C172.465 307.848 172.781 307.691 173.047 307.488C173.312 307.277 173.523 307.023 173.68 306.727C173.836 306.422 173.914 306.074 173.914 305.684C173.914 305.254 173.84 304.887 173.691 304.582C173.543 304.277 173.332 304.027 173.059 303.832C172.793 303.637 172.477 303.496 172.109 303.41C171.742 303.316 171.34 303.266 170.902 303.258H168.23V308.121ZM191.398 310.57C191.398 311.578 191.27 312.547 191.012 313.477C190.754 314.398 190.367 315.215 189.852 315.926C189.344 316.629 188.703 317.191 187.93 317.613C187.164 318.027 186.266 318.234 185.234 318.234C184.211 318.234 183.32 318.023 182.562 317.602C181.805 317.18 181.172 316.617 180.664 315.914C180.164 315.203 179.785 314.387 179.527 313.465C179.277 312.543 179.152 311.578 179.152 310.57V308.391C179.152 307.719 179.207 307.062 179.316 306.422C179.434 305.781 179.602 305.18 179.82 304.617C180.047 304.047 180.324 303.523 180.652 303.047C180.988 302.562 181.379 302.148 181.824 301.805C182.277 301.461 182.785 301.191 183.348 300.996C183.918 300.801 184.543 300.703 185.223 300.703C186.254 300.703 187.152 300.914 187.918 301.336C188.691 301.758 189.336 302.324 189.852 303.035C190.367 303.738 190.754 304.555 191.012 305.484C191.27 306.414 191.398 307.383 191.398 308.391V310.57ZM188.574 308.367C188.566 307.727 188.508 307.09 188.398 306.457C188.289 305.824 188.105 305.262 187.848 304.77C187.59 304.27 187.246 303.867 186.816 303.562C186.395 303.25 185.863 303.094 185.223 303.094C184.59 303.094 184.062 303.25 183.641 303.562C183.227 303.867 182.895 304.27 182.645 304.77C182.402 305.27 182.23 305.836 182.129 306.469C182.035 307.094 181.984 307.727 181.977 308.367V310.57C181.984 311.211 182.039 311.848 182.141 312.48C182.242 313.105 182.414 313.672 182.656 314.18C182.906 314.68 183.238 315.086 183.652 315.398C184.074 315.711 184.602 315.867 185.234 315.867C185.875 315.867 186.406 315.711 186.828 315.398C187.258 315.086 187.602 314.68 187.859 314.18C188.117 313.68 188.297 313.113 188.398 312.48C188.508 311.848 188.566 311.211 188.574 310.57V308.367ZM205.812 310.57C205.812 311.578 205.684 312.547 205.426 313.477C205.168 314.398 204.781 315.215 204.266 315.926C203.758 316.629 203.117 317.191 202.344 317.613C201.578 318.027 200.68 318.234 199.648 318.234C198.625 318.234 197.734 318.023 196.977 317.602C196.219 317.18 195.586 316.617 195.078 315.914C194.578 315.203 194.199 314.387 193.941 313.465C193.691 312.543 193.566 311.578 193.566 310.57V308.391C193.566 307.719 193.621 307.062 193.73 306.422C193.848 305.781 194.016 305.18 194.234 304.617C194.461 304.047 194.738 303.523 195.066 303.047C195.402 302.562 195.793 302.148 196.238 301.805C196.691 301.461 197.199 301.191 197.762 300.996C198.332 300.801 198.957 300.703 199.637 300.703C200.668 300.703 201.566 300.914 202.332 301.336C203.105 301.758 203.75 302.324 204.266 303.035C204.781 303.738 205.168 304.555 205.426 305.484C205.684 306.414 205.812 307.383 205.812 308.391V310.57ZM202.988 308.367C202.98 307.727 202.922 307.09 202.812 306.457C202.703 305.824 202.52 305.262 202.262 304.77C202.004 304.27 201.66 303.867 201.23 303.562C200.809 303.25 200.277 303.094 199.637 303.094C199.004 303.094 198.477 303.25 198.055 303.562C197.641 303.867 197.309 304.27 197.059 304.77C196.816 305.27 196.645 305.836 196.543 306.469C196.449 307.094 196.398 307.727 196.391 308.367V310.57C196.398 311.211 196.453 311.848 196.555 312.48C196.656 313.105 196.828 313.672 197.07 314.18C197.32 314.68 197.652 315.086 198.066 315.398C198.488 315.711 199.016 315.867 199.648 315.867C200.289 315.867 200.82 315.711 201.242 315.398C201.672 315.086 202.016 314.68 202.273 314.18C202.531 313.68 202.711 313.113 202.812 312.48C202.922 311.848 202.98 311.211 202.988 310.57V308.367ZM220.742 303.258H215.504V318H212.703V303.258H207.5V300.938H220.742V303.258Z" fill="white"/>
<path d="M374.949 168H372.125V154.395L367.766 155.988V153.527L374.773 150.938H374.949V168ZM389.363 168H386.539V154.395L382.18 155.988V153.527L389.188 150.938H389.363V168ZM407.152 161.508C407.152 162.609 407.023 163.582 406.766 164.426C406.516 165.262 406.152 165.965 405.676 166.535C405.199 167.098 404.617 167.523 403.93 167.812C403.242 168.102 402.469 168.246 401.609 168.246C400.758 168.246 399.988 168.102 399.301 167.812C398.613 167.523 398.027 167.098 397.543 166.535C397.066 165.965 396.695 165.262 396.43 164.426C396.172 163.582 396.043 162.609 396.043 161.508V157.43C396.043 156.328 396.172 155.359 396.43 154.523C396.688 153.68 397.055 152.977 397.531 152.414C398.016 151.844 398.598 151.414 399.277 151.125C399.965 150.836 400.734 150.691 401.586 150.691C402.445 150.691 403.219 150.836 403.906 151.125C404.594 151.414 405.176 151.844 405.652 152.414C406.137 152.977 406.508 153.68 406.766 154.523C407.023 155.359 407.152 156.328 407.152 157.43V161.508ZM398.855 160.441L404.316 156.375C404.254 155.211 403.996 154.352 403.543 153.797C403.098 153.234 402.445 152.953 401.586 152.953C400.672 152.953 399.988 153.277 399.535 153.926C399.082 154.574 398.855 155.57 398.855 156.914V160.441ZM404.34 158.578L398.879 162.645C399.02 164.879 399.93 165.996 401.609 165.996C403.43 165.996 404.34 164.664 404.34 162V158.578ZM418.191 168H415.367V154.395L411.008 155.988V153.527L418.016 150.938H418.191V168ZM435.98 161.508C435.98 162.609 435.852 163.582 435.594 164.426C435.344 165.262 434.98 165.965 434.504 166.535C434.027 167.098 433.445 167.523 432.758 167.812C432.07 168.102 431.297 168.246 430.438 168.246C429.586 168.246 428.816 168.102 428.129 167.812C427.441 167.523 426.855 167.098 426.371 166.535C425.895 165.965 425.523 165.262 425.258 164.426C425 163.582 424.871 162.609 424.871 161.508V157.43C424.871 156.328 425 155.359 425.258 154.523C425.516 153.68 425.883 152.977 426.359 152.414C426.844 151.844 427.426 151.414 428.105 151.125C428.793 150.836 429.562 150.691 430.414 150.691C431.273 150.691 432.047 150.836 432.734 151.125C433.422 151.414 434.004 151.844 434.48 152.414C434.965 152.977 435.336 153.68 435.594 154.523C435.852 155.359 435.98 156.328 435.98 157.43V161.508ZM427.684 160.441L433.145 156.375C433.082 155.211 432.824 154.352 432.371 153.797C431.926 153.234 431.273 152.953 430.414 152.953C429.5 152.953 428.816 153.277 428.363 153.926C427.91 154.574 427.684 155.57 427.684 156.914V160.441ZM433.168 158.578L427.707 162.645C427.848 164.879 428.758 165.996 430.438 165.996C432.258 165.996 433.168 164.664 433.168 162V158.578ZM447.02 168H444.195V154.395L439.836 155.988V153.527L446.844 150.938H447.02V168ZM461.434 168H458.609V154.395L454.25 155.988V153.527L461.258 150.938H461.434V168Z" fill="white"/>
<path d="M583.221 609.102H572.48V620H568.227V594.406H584.803V597.887H572.48V605.639H583.221V609.102ZM594.137 616.555H606.336V620H589.918V594.406H594.137V616.555ZM623.545 614.059H615.547L613.789 620H609.43L617.744 594.406H621.453L629.609 620H625.268L623.545 614.059ZM616.619 610.455H622.49L619.59 600.418L616.619 610.455ZM646.045 613.408C646.045 612.799 645.916 612.266 645.658 611.809C645.412 611.34 645.055 610.93 644.586 610.578C644.129 610.227 643.578 609.922 642.934 609.664C642.301 609.395 641.609 609.148 640.859 608.926C639.852 608.633 638.855 608.27 637.871 607.836C636.898 607.402 636.025 606.875 635.252 606.254C634.49 605.621 633.869 604.889 633.389 604.057C632.92 603.213 632.686 602.24 632.686 601.139C632.686 600.037 632.92 599.053 633.389 598.186C633.869 597.307 634.508 596.562 635.305 595.953C636.102 595.344 637.027 594.875 638.082 594.547C639.137 594.219 640.238 594.055 641.387 594.055C642.617 594.055 643.766 594.248 644.832 594.635C645.91 595.01 646.848 595.543 647.645 596.234C648.453 596.914 649.092 597.734 649.561 598.695C650.029 599.645 650.27 600.699 650.281 601.859H646.062C646.004 601.215 645.863 600.629 645.641 600.102C645.43 599.562 645.125 599.1 644.727 598.713C644.34 598.326 643.865 598.027 643.303 597.816C642.74 597.605 642.09 597.5 641.352 597.5C640.719 597.5 640.133 597.582 639.594 597.746C639.055 597.91 638.586 598.15 638.188 598.467C637.801 598.783 637.496 599.164 637.273 599.609C637.051 600.055 636.939 600.559 636.939 601.121C636.939 601.719 637.092 602.24 637.396 602.686C637.701 603.119 638.1 603.5 638.592 603.828C639.084 604.156 639.646 604.443 640.279 604.689C640.924 604.924 641.592 605.141 642.283 605.34C643.35 605.656 644.369 606.049 645.342 606.518C646.314 606.975 647.17 607.531 647.908 608.188C648.646 608.832 649.232 609.582 649.666 610.438C650.1 611.293 650.316 612.271 650.316 613.373C650.316 614.51 650.076 615.512 649.596 616.379C649.115 617.246 648.471 617.973 647.662 618.559C646.854 619.145 645.916 619.59 644.85 619.895C643.783 620.188 642.67 620.334 641.51 620.334C640.725 620.334 639.945 620.258 639.172 620.105C638.398 619.953 637.654 619.725 636.939 619.42C636.236 619.115 635.58 618.74 634.971 618.295C634.361 617.838 633.828 617.316 633.371 616.73C632.926 616.133 632.574 615.471 632.316 614.744C632.059 614.006 631.924 613.197 631.912 612.318H636.148C636.207 613.092 636.377 613.766 636.658 614.34C636.939 614.914 637.314 615.395 637.783 615.781C638.252 616.156 638.797 616.443 639.418 616.643C640.051 616.83 640.748 616.924 641.51 616.924C642.143 616.924 642.734 616.848 643.285 616.695C643.836 616.543 644.316 616.32 644.727 616.027C645.137 615.723 645.459 615.354 645.693 614.92C645.928 614.475 646.045 613.971 646.045 613.408ZM670.953 620H666.84V608.574H658.139V620H654.043V594.406H658.139V605.111H666.84V594.406H670.953V620ZM702.611 594.406L705.793 605.463L709.309 594.406H714.547V620H710.574V611.211L710.82 599.996L706.883 612.266H704.668L701.1 600.418L701.346 611.211V620H697.373V594.406H702.611ZM734.234 608.521H723.705V616.555H736.027V620H719.469V594.406H735.904V597.887H723.705V605.111H734.234V608.521ZM745.854 594.406L749.035 605.463L752.551 594.406H757.789V620H753.816V611.211L754.062 599.996L750.125 612.266H747.91L744.342 600.418L744.588 611.211V620H740.615V594.406H745.854ZM779.832 608.855C779.832 610.367 779.639 611.82 779.252 613.215C778.865 614.598 778.285 615.822 777.512 616.889C776.75 617.943 775.789 618.787 774.629 619.42C773.48 620.041 772.133 620.352 770.586 620.352C769.051 620.352 767.715 620.035 766.578 619.402C765.441 618.77 764.492 617.926 763.73 616.871C762.98 615.805 762.412 614.58 762.025 613.197C761.65 611.814 761.463 610.367 761.463 608.855V605.586C761.463 604.578 761.545 603.594 761.709 602.633C761.885 601.672 762.137 600.77 762.465 599.926C762.805 599.07 763.221 598.285 763.713 597.57C764.217 596.844 764.803 596.223 765.471 595.707C766.15 595.191 766.912 594.787 767.756 594.494C768.611 594.201 769.549 594.055 770.568 594.055C772.115 594.055 773.463 594.371 774.611 595.004C775.771 595.637 776.738 596.486 777.512 597.553C778.285 598.607 778.865 599.832 779.252 601.227C779.639 602.621 779.832 604.074 779.832 605.586V608.855ZM775.596 605.551C775.584 604.59 775.496 603.635 775.332 602.686C775.168 601.736 774.893 600.893 774.506 600.154C774.119 599.404 773.604 598.801 772.959 598.344C772.326 597.875 771.529 597.641 770.568 597.641C769.619 597.641 768.828 597.875 768.195 598.344C767.574 598.801 767.076 599.404 766.701 600.154C766.338 600.904 766.08 601.754 765.928 602.703C765.787 603.641 765.711 604.59 765.699 605.551V608.855C765.711 609.816 765.793 610.771 765.945 611.721C766.098 612.658 766.355 613.508 766.719 614.27C767.094 615.02 767.592 615.629 768.213 616.098C768.846 616.566 769.637 616.801 770.586 616.801C771.547 616.801 772.344 616.566 772.977 616.098C773.621 615.629 774.137 615.02 774.523 614.27C774.91 613.52 775.18 612.67 775.332 611.721C775.496 610.771 775.584 609.816 775.596 608.855V605.551ZM792.682 610.016H788.393V620H784.174V594.406H792.26C793.572 594.418 794.779 594.588 795.881 594.916C796.994 595.232 797.955 595.713 798.764 596.357C799.572 596.99 800.199 597.787 800.645 598.748C801.09 599.709 801.312 600.834 801.312 602.123C801.312 602.99 801.195 603.781 800.961 604.496C800.738 605.199 800.422 605.838 800.012 606.412C799.602 606.986 799.109 607.49 798.535 607.924C797.961 608.357 797.328 608.727 796.637 609.031L802.051 619.789V620H797.551L792.682 610.016ZM788.393 606.605H792.277C792.98 606.605 793.625 606.506 794.211 606.307C794.797 606.107 795.301 605.826 795.723 605.463C796.156 605.088 796.49 604.637 796.725 604.109C796.959 603.57 797.076 602.955 797.076 602.264C797.076 601.549 796.965 600.916 796.742 600.365C796.52 599.814 796.197 599.352 795.775 598.977C795.365 598.602 794.861 598.32 794.264 598.133C793.666 597.934 792.998 597.828 792.26 597.816H788.393V606.605ZM813.934 606.641L819.26 594.406H823.971L815.99 610.807L815.955 620H811.859L811.824 610.701L803.896 594.406H808.607L813.934 606.641Z" fill="white"/>
<g filter="url(#filter1_d)">
<path d="M141.124 417.227H158.538H170.807H183.076H195.344H207.613H219.882H232.151H247.982V524.085H141.124V417.227Z" fill="#555A57"/>
<rect x="153.077" y="429.971" width="83.7433" height="83.7433" stroke="white" stroke-width="0.16"/>
<line x1="153.705" y1="409.311" x2="153.705" y2="417.226" stroke="#8C9091" stroke-width="3"/>
<line x1="167.162" y1="409.311" x2="167.162" y2="417.226" stroke="#8C9091" stroke-width="3"/>
<line x1="180.618" y1="409.311" x2="180.618" y2="417.226" stroke="#8C9091" stroke-width="3"/>
<line x1="194.074" y1="409.311" x2="194.074" y2="417.226" stroke="#8C9091" stroke-width="3"/>
<line x1="207.53" y1="409.311" x2="207.53" y2="417.226" stroke="#8C9091" stroke-width="3"/>
<line x1="220.986" y1="409.311" x2="220.986" y2="417.226" stroke="#8C9091" stroke-width="3"/>
<line x1="234.443" y1="409.311" x2="234.443" y2="417.226" stroke="#8C9091" stroke-width="3"/>
<line x1="255.897" y1="429.017" x2="247.982" y2="429.017" stroke="#8C9091" stroke-width="3"/>
<line x1="255.897" y1="442.473" x2="247.982" y2="442.473" stroke="#8C9091" stroke-width="3"/>
<line x1="255.897" y1="455.929" x2="247.982" y2="455.929" stroke="#8C9091" stroke-width="3"/>
<line x1="255.897" y1="469.385" x2="247.982" y2="469.385" stroke="#8C9091" stroke-width="3"/>
<line x1="255.897" y1="482.841" x2="247.982" y2="482.841" stroke="#8C9091" stroke-width="3"/>
<line x1="255.897" y1="496.297" x2="247.982" y2="496.297" stroke="#8C9091" stroke-width="3"/>
<line x1="255.897" y1="509.754" x2="247.982" y2="509.754" stroke="#8C9091" stroke-width="3"/>
<line x1="152.914" y1="524.084" x2="152.914" y2="532" stroke="#8C9091" stroke-width="3"/>
<line x1="166.37" y1="524.084" x2="166.37" y2="532" stroke="#8C9091" stroke-width="3"/>
<line x1="179.826" y1="524.084" x2="179.826" y2="532" stroke="#8C9091" stroke-width="3"/>
<line x1="193.282" y1="524.084" x2="193.282" y2="532" stroke="#8C9091" stroke-width="3"/>
<line x1="206.739" y1="524.084" x2="206.739" y2="532" stroke="#8C9091" stroke-width="3"/>
<line x1="220.195" y1="524.084" x2="220.195" y2="532" stroke="#8C9091" stroke-width="3"/>
<line x1="233.651" y1="524.084" x2="233.651" y2="532" stroke="#8C9091" stroke-width="3"/>
<line x1="134" y1="510.711" x2="141.915" y2="510.711" stroke="#8C9091" stroke-width="3"/>
<line x1="134" y1="497.255" x2="141.915" y2="497.255" stroke="#8C9091" stroke-width="3"/>
<line x1="134" y1="483.799" x2="141.915" y2="483.799" stroke="#8C9091" stroke-width="3"/>
<line x1="134" y1="470.343" x2="141.915" y2="470.343" stroke="#8C9091" stroke-width="3"/>
<line x1="134" y1="456.887" x2="141.915" y2="456.887" stroke="#8C9091" stroke-width="3"/>
<line x1="134" y1="443.431" x2="141.915" y2="443.431" stroke="#8C9091" stroke-width="3"/>
<line x1="134" y1="429.974" x2="141.915" y2="429.974" stroke="#8C9091" stroke-width="3"/>
<path d="M180.99 458.406L184.172 469.463L187.688 458.406H192.926V484H188.953V475.211L189.199 463.996L185.262 476.266H183.047L179.479 464.418L179.725 475.211V484H175.752V458.406H180.99ZM211.576 474.912H214.793V478.305H211.576V484H207.375V478.305H196.266L196.16 475.756L207.234 458.406H211.576V474.912ZM200.484 474.912H207.375V464.014L206.918 464.84L200.484 474.912Z" fill="white"/>
</g>
<path d="M317 189H515" stroke="#EEE824" stroke-width="5" stroke-dasharray="10 10"/>
<path d="M317 468H515" stroke="#EEE824" stroke-width="5" stroke-dasharray="10 10"/>
<rect x="590" y="117" width="210" height="413" rx="4" fill="white" fill-opacity="0.1" stroke="#EEE824" stroke-width="4"/>
<rect x="621" y="408" width="148" height="85.7383" rx="6" fill="#8C9091"/>
<path d="M662.363 457.605C662.363 457.199 662.277 456.844 662.105 456.539C661.941 456.227 661.703 455.953 661.391 455.719C661.086 455.484 660.719 455.281 660.289 455.109C659.867 454.93 659.406 454.766 658.906 454.617C658.234 454.422 657.57 454.18 656.914 453.891C656.266 453.602 655.684 453.25 655.168 452.836C654.66 452.414 654.246 451.926 653.926 451.371C653.613 450.809 653.457 450.16 653.457 449.426C653.457 448.691 653.613 448.035 653.926 447.457C654.246 446.871 654.672 446.375 655.203 445.969C655.734 445.562 656.352 445.25 657.055 445.031C657.758 444.812 658.492 444.703 659.258 444.703C660.078 444.703 660.844 444.832 661.555 445.09C662.273 445.34 662.898 445.695 663.43 446.156C663.969 446.609 664.395 447.156 664.707 447.797C665.02 448.43 665.18 449.133 665.188 449.906H662.375C662.336 449.477 662.242 449.086 662.094 448.734C661.953 448.375 661.75 448.066 661.484 447.809C661.227 447.551 660.91 447.352 660.535 447.211C660.16 447.07 659.727 447 659.234 447C658.812 447 658.422 447.055 658.062 447.164C657.703 447.273 657.391 447.434 657.125 447.645C656.867 447.855 656.664 448.109 656.516 448.406C656.367 448.703 656.293 449.039 656.293 449.414C656.293 449.812 656.395 450.16 656.598 450.457C656.801 450.746 657.066 451 657.395 451.219C657.723 451.438 658.098 451.629 658.52 451.793C658.949 451.949 659.395 452.094 659.855 452.227C660.566 452.438 661.246 452.699 661.895 453.012C662.543 453.316 663.113 453.688 663.605 454.125C664.098 454.555 664.488 455.055 664.777 455.625C665.066 456.195 665.211 456.848 665.211 457.582C665.211 458.34 665.051 459.008 664.73 459.586C664.41 460.164 663.98 460.648 663.441 461.039C662.902 461.43 662.277 461.727 661.566 461.93C660.855 462.125 660.113 462.223 659.34 462.223C658.816 462.223 658.297 462.172 657.781 462.07C657.266 461.969 656.77 461.816 656.293 461.613C655.824 461.41 655.387 461.16 654.98 460.863C654.574 460.559 654.219 460.211 653.914 459.82C653.617 459.422 653.383 458.98 653.211 458.496C653.039 458.004 652.949 457.465 652.941 456.879H655.766C655.805 457.395 655.918 457.844 656.105 458.227C656.293 458.609 656.543 458.93 656.855 459.188C657.168 459.438 657.531 459.629 657.945 459.762C658.367 459.887 658.832 459.949 659.34 459.949C659.762 459.949 660.156 459.898 660.523 459.797C660.891 459.695 661.211 459.547 661.484 459.352C661.758 459.148 661.973 458.902 662.129 458.613C662.285 458.316 662.363 457.98 662.363 457.605ZM672.57 454.582L670.742 456.633V462H667.895V444.938H670.742V452.93L672.301 450.902L676.789 444.938H680.223L674.422 452.426L680.516 462H677.141L672.57 454.582ZM692.328 454.348H685.309V459.703H693.523V462H682.484V444.938H693.441V447.258H685.309V452.074H692.328V454.348ZM708.828 447.258H703.59V462H700.789V447.258H695.586V444.938H708.828V447.258ZM722.68 456.762C722.602 457.582 722.406 458.332 722.094 459.012C721.781 459.684 721.367 460.262 720.852 460.746C720.336 461.223 719.727 461.594 719.023 461.859C718.328 462.117 717.551 462.246 716.691 462.246C715.652 462.246 714.746 462.047 713.973 461.648C713.199 461.242 712.555 460.695 712.039 460.008C711.523 459.32 711.137 458.516 710.879 457.594C710.621 456.672 710.488 455.688 710.48 454.641V452.309C710.488 451.27 710.625 450.289 710.891 449.367C711.156 448.438 711.547 447.629 712.062 446.941C712.586 446.246 713.234 445.699 714.008 445.301C714.781 444.895 715.68 444.691 716.703 444.691C717.602 444.691 718.402 444.824 719.105 445.09C719.809 445.355 720.41 445.73 720.91 446.215C721.41 446.699 721.809 447.289 722.105 447.984C722.402 448.68 722.594 449.453 722.68 450.305H719.867C719.82 449.805 719.723 449.352 719.574 448.945C719.434 448.531 719.238 448.18 718.988 447.891C718.738 447.594 718.422 447.367 718.039 447.211C717.664 447.055 717.219 446.977 716.703 446.977C716.07 446.977 715.539 447.121 715.109 447.41C714.68 447.699 714.332 448.09 714.066 448.582C713.801 449.066 713.609 449.629 713.492 450.27C713.383 450.91 713.328 451.582 713.328 452.285V454.641C713.328 455.375 713.383 456.066 713.492 456.715C713.609 457.355 713.797 457.918 714.055 458.402C714.312 458.887 714.656 459.27 715.086 459.551C715.516 459.832 716.051 459.973 716.691 459.973C717.676 459.973 718.426 459.695 718.941 459.141C719.457 458.578 719.762 457.785 719.855 456.762H722.68ZM736.625 462H733.883V454.383H728.082V462H725.352V444.938H728.082V452.074H733.883V444.938H736.625V462Z" fill="white"/>
<rect x="621" y="150.923" width="148" height="85.7383" rx="6" fill="#8C9091"/>
<path d="M662.363 197.605C662.363 197.199 662.277 196.844 662.105 196.539C661.941 196.227 661.703 195.953 661.391 195.719C661.086 195.484 660.719 195.281 660.289 195.109C659.867 194.93 659.406 194.766 658.906 194.617C658.234 194.422 657.57 194.18 656.914 193.891C656.266 193.602 655.684 193.25 655.168 192.836C654.66 192.414 654.246 191.926 653.926 191.371C653.613 190.809 653.457 190.16 653.457 189.426C653.457 188.691 653.613 188.035 653.926 187.457C654.246 186.871 654.672 186.375 655.203 185.969C655.734 185.562 656.352 185.25 657.055 185.031C657.758 184.812 658.492 184.703 659.258 184.703C660.078 184.703 660.844 184.832 661.555 185.09C662.273 185.34 662.898 185.695 663.43 186.156C663.969 186.609 664.395 187.156 664.707 187.797C665.02 188.43 665.18 189.133 665.188 189.906H662.375C662.336 189.477 662.242 189.086 662.094 188.734C661.953 188.375 661.75 188.066 661.484 187.809C661.227 187.551 660.91 187.352 660.535 187.211C660.16 187.07 659.727 187 659.234 187C658.812 187 658.422 187.055 658.062 187.164C657.703 187.273 657.391 187.434 657.125 187.645C656.867 187.855 656.664 188.109 656.516 188.406C656.367 188.703 656.293 189.039 656.293 189.414C656.293 189.812 656.395 190.16 656.598 190.457C656.801 190.746 657.066 191 657.395 191.219C657.723 191.438 658.098 191.629 658.52 191.793C658.949 191.949 659.395 192.094 659.855 192.227C660.566 192.438 661.246 192.699 661.895 193.012C662.543 193.316 663.113 193.688 663.605 194.125C664.098 194.555 664.488 195.055 664.777 195.625C665.066 196.195 665.211 196.848 665.211 197.582C665.211 198.34 665.051 199.008 664.73 199.586C664.41 200.164 663.98 200.648 663.441 201.039C662.902 201.43 662.277 201.727 661.566 201.93C660.855 202.125 660.113 202.223 659.34 202.223C658.816 202.223 658.297 202.172 657.781 202.07C657.266 201.969 656.77 201.816 656.293 201.613C655.824 201.41 655.387 201.16 654.98 200.863C654.574 200.559 654.219 200.211 653.914 199.82C653.617 199.422 653.383 198.98 653.211 198.496C653.039 198.004 652.949 197.465 652.941 196.879H655.766C655.805 197.395 655.918 197.844 656.105 198.227C656.293 198.609 656.543 198.93 656.855 199.188C657.168 199.438 657.531 199.629 657.945 199.762C658.367 199.887 658.832 199.949 659.34 199.949C659.762 199.949 660.156 199.898 660.523 199.797C660.891 199.695 661.211 199.547 661.484 199.352C661.758 199.148 661.973 198.902 662.129 198.613C662.285 198.316 662.363 197.98 662.363 197.605ZM672.57 194.582L670.742 196.633V202H667.895V184.938H670.742V192.93L672.301 190.902L676.789 184.938H680.223L674.422 192.426L680.516 202H677.141L672.57 194.582ZM692.328 194.348H685.309V199.703H693.523V202H682.484V184.938H693.441V187.258H685.309V192.074H692.328V194.348ZM708.828 187.258H703.59V202H700.789V187.258H695.586V184.938H708.828V187.258ZM722.68 196.762C722.602 197.582 722.406 198.332 722.094 199.012C721.781 199.684 721.367 200.262 720.852 200.746C720.336 201.223 719.727 201.594 719.023 201.859C718.328 202.117 717.551 202.246 716.691 202.246C715.652 202.246 714.746 202.047 713.973 201.648C713.199 201.242 712.555 200.695 712.039 200.008C711.523 199.32 711.137 198.516 710.879 197.594C710.621 196.672 710.488 195.688 710.48 194.641V192.309C710.488 191.27 710.625 190.289 710.891 189.367C711.156 188.438 711.547 187.629 712.062 186.941C712.586 186.246 713.234 185.699 714.008 185.301C714.781 184.895 715.68 184.691 716.703 184.691C717.602 184.691 718.402 184.824 719.105 185.09C719.809 185.355 720.41 185.73 720.91 186.215C721.41 186.699 721.809 187.289 722.105 187.984C722.402 188.68 722.594 189.453 722.68 190.305H719.867C719.82 189.805 719.723 189.352 719.574 188.945C719.434 188.531 719.238 188.18 718.988 187.891C718.738 187.594 718.422 187.367 718.039 187.211C717.664 187.055 717.219 186.977 716.703 186.977C716.07 186.977 715.539 187.121 715.109 187.41C714.68 187.699 714.332 188.09 714.066 188.582C713.801 189.066 713.609 189.629 713.492 190.27C713.383 190.91 713.328 191.582 713.328 192.285V194.641C713.328 195.375 713.383 196.066 713.492 196.715C713.609 197.355 713.797 197.918 714.055 198.402C714.312 198.887 714.656 199.27 715.086 199.551C715.516 199.832 716.051 199.973 716.691 199.973C717.676 199.973 718.426 199.695 718.941 199.141C719.457 198.578 719.762 197.785 719.855 196.762H722.68ZM736.625 202H733.883V194.383H728.082V202H725.352V184.938H728.082V192.074H733.883V184.938H736.625V202Z" fill="white"/>
<path d="M860.961 452.801C860.961 453.738 860.852 454.602 860.633 455.391C860.422 456.172 860.105 456.848 859.684 457.418C859.262 457.988 858.742 458.434 858.125 458.754C857.508 459.074 856.797 459.234 855.992 459.234C855.219 459.234 854.547 459.098 853.977 458.824C853.414 458.551 852.93 458.156 852.523 457.641L852.395 459H849.852V441H852.652V447.527C853.051 447.066 853.52 446.711 854.059 446.461C854.598 446.211 855.234 446.086 855.969 446.086C856.781 446.086 857.496 446.246 858.113 446.566C858.738 446.879 859.262 447.32 859.684 447.891C860.105 448.461 860.422 449.145 860.633 449.941C860.852 450.73 860.961 451.602 860.961 452.555V452.801ZM858.16 452.555C858.16 451.992 858.109 451.461 858.008 450.961C857.914 450.453 857.754 450.008 857.527 449.625C857.309 449.242 857.012 448.941 856.637 448.723C856.262 448.496 855.801 448.383 855.254 448.383C854.59 448.383 854.047 448.535 853.625 448.84C853.203 449.145 852.879 449.543 852.652 450.035V455.273C852.879 455.766 853.203 456.168 853.625 456.48C854.055 456.793 854.605 456.949 855.277 456.949C855.809 456.949 856.258 456.844 856.625 456.633C856.992 456.414 857.289 456.117 857.516 455.742C857.742 455.367 857.906 454.93 858.008 454.43C858.109 453.922 858.16 453.379 858.16 452.801V452.555ZM864.746 441H871.602V456.68H875.469V459H864.746V456.68H868.777V443.332H864.746V441ZM879.254 446.32H886.016V456.68H889.777V459H879.254V456.68H883.191V448.652H879.254V446.32ZM882.957 443.039C882.957 442.602 883.098 442.242 883.379 441.961C883.66 441.672 884.055 441.527 884.562 441.527C885.078 441.527 885.477 441.672 885.758 441.961C886.047 442.242 886.191 442.602 886.191 443.039C886.191 443.477 886.047 443.84 885.758 444.129C885.477 444.41 885.078 444.551 884.562 444.551C884.055 444.551 883.66 444.41 883.379 444.129C883.098 443.84 882.957 443.477 882.957 443.039ZM895.59 446.32L895.766 448.078C896.227 447.445 896.781 446.957 897.43 446.613C898.086 446.262 898.812 446.086 899.609 446.086C900.258 446.086 900.848 446.18 901.379 446.367C901.918 446.555 902.379 446.848 902.762 447.246C903.152 447.645 903.453 448.16 903.664 448.793C903.883 449.426 903.992 450.188 903.992 451.078V459H901.191V451.125C901.191 450.602 901.129 450.164 901.004 449.812C900.887 449.461 900.715 449.18 900.488 448.969C900.27 448.758 900 448.609 899.68 448.523C899.359 448.43 898.996 448.383 898.59 448.383C897.973 448.383 897.434 448.52 896.973 448.793C896.52 449.066 896.152 449.438 895.871 449.906V459H893.059V446.32H895.59ZM911.809 453.457L910.285 454.91V459H907.484V441H910.285V451.605L911.469 450.281L915.195 446.32H918.57L913.672 451.594L919.32 459H915.828L911.809 453.457ZM932.586 461.203H921.828V459H932.586V461.203ZM947.68 456.867C947.391 457.211 947.051 457.527 946.66 457.816C946.27 458.105 945.832 458.355 945.348 458.566C944.863 458.777 944.336 458.941 943.766 459.059C943.203 459.176 942.602 459.234 941.961 459.234C940.938 459.234 940.031 459.035 939.242 458.637C938.453 458.238 937.785 457.695 937.238 457.008C936.699 456.312 936.285 455.496 935.996 454.559C935.715 453.621 935.57 452.613 935.562 451.535V449.426C935.562 448.348 935.703 447.34 935.984 446.402C936.266 445.465 936.668 444.648 937.191 443.953C937.723 443.258 938.371 442.711 939.137 442.312C939.902 441.906 940.777 441.703 941.762 441.703C942.645 441.703 943.434 441.824 944.129 442.066C944.824 442.309 945.422 442.66 945.922 443.121C946.422 443.574 946.816 444.129 947.105 444.785C947.402 445.441 947.59 446.176 947.668 446.988H944.902C944.832 446.527 944.723 446.113 944.574 445.746C944.426 445.379 944.227 445.066 943.977 444.809C943.727 444.551 943.422 444.355 943.062 444.223C942.711 444.082 942.293 444.012 941.809 444.012C941.215 444.012 940.703 444.16 940.273 444.457C939.852 444.746 939.5 445.141 939.219 445.641C938.938 446.133 938.73 446.707 938.598 447.363C938.465 448.012 938.395 448.691 938.387 449.402V451.535C938.395 452.246 938.465 452.926 938.598 453.574C938.738 454.223 938.953 454.797 939.242 455.297C939.539 455.789 939.918 456.184 940.379 456.48C940.84 456.777 941.395 456.93 942.043 456.938C942.309 456.938 942.582 456.922 942.863 456.891C943.145 456.852 943.41 456.793 943.66 456.715C943.918 456.637 944.152 456.539 944.363 456.422C944.574 456.297 944.746 456.145 944.879 455.965L944.902 452.555H941.82V450.363H947.656L947.68 456.867ZM959.422 446.086C959.648 446.086 959.875 446.094 960.102 446.109C960.328 446.125 960.543 446.148 960.746 446.18C960.957 446.211 961.148 446.246 961.32 446.285C961.492 446.316 961.637 446.355 961.754 446.402L961.355 449.156C960.496 448.961 959.648 448.863 958.812 448.863C957.875 448.863 957.117 449.059 956.539 449.449C955.969 449.84 955.547 450.383 955.273 451.078V459H952.473V446.32H955.098L955.227 448.301C955.742 447.613 956.352 447.074 957.055 446.684C957.766 446.285 958.555 446.086 959.422 446.086ZM971.035 459.234C970.098 459.234 969.242 459.078 968.469 458.766C967.695 458.453 967.031 458.023 966.477 457.477C965.93 456.93 965.504 456.285 965.199 455.543C964.895 454.793 964.742 453.984 964.742 453.117V452.637C964.742 451.629 964.902 450.723 965.223 449.918C965.551 449.113 965.984 448.426 966.523 447.855C967.07 447.285 967.703 446.848 968.422 446.543C969.148 446.238 969.91 446.086 970.707 446.086C971.629 446.086 972.441 446.242 973.145 446.555C973.848 446.859 974.434 447.293 974.902 447.855C975.379 448.41 975.738 449.07 975.98 449.836C976.223 450.602 976.344 451.441 976.344 452.355V453.539H967.555C967.602 454.031 967.723 454.488 967.918 454.91C968.113 455.332 968.367 455.699 968.68 456.012C969 456.316 969.371 456.559 969.793 456.738C970.223 456.91 970.691 456.996 971.199 456.996C971.91 456.996 972.562 456.855 973.156 456.574C973.758 456.293 974.246 455.906 974.621 455.414L976.145 456.844C975.941 457.148 975.68 457.445 975.359 457.734C975.039 458.016 974.664 458.27 974.234 458.496C973.805 458.715 973.32 458.891 972.781 459.023C972.25 459.164 971.668 459.234 971.035 459.234ZM970.695 448.348C970.305 448.348 969.941 448.418 969.605 448.559C969.27 448.699 968.969 448.906 968.703 449.18C968.438 449.445 968.211 449.773 968.023 450.164C967.844 450.547 967.715 450.984 967.637 451.477H973.578V451.266C973.555 450.891 973.48 450.531 973.355 450.188C973.238 449.836 973.062 449.523 972.828 449.25C972.594 448.977 972.297 448.758 971.938 448.594C971.586 448.43 971.172 448.348 970.695 448.348ZM985.449 459.234C984.512 459.234 983.656 459.078 982.883 458.766C982.109 458.453 981.445 458.023 980.891 457.477C980.344 456.93 979.918 456.285 979.613 455.543C979.309 454.793 979.156 453.984 979.156 453.117V452.637C979.156 451.629 979.316 450.723 979.637 449.918C979.965 449.113 980.398 448.426 980.938 447.855C981.484 447.285 982.117 446.848 982.836 446.543C983.562 446.238 984.324 446.086 985.121 446.086C986.043 446.086 986.855 446.242 987.559 446.555C988.262 446.859 988.848 447.293 989.316 447.855C989.793 448.41 990.152 449.07 990.395 449.836C990.637 450.602 990.758 451.441 990.758 452.355V453.539H981.969C982.016 454.031 982.137 454.488 982.332 454.91C982.527 455.332 982.781 455.699 983.094 456.012C983.414 456.316 983.785 456.559 984.207 456.738C984.637 456.91 985.105 456.996 985.613 456.996C986.324 456.996 986.977 456.855 987.57 456.574C988.172 456.293 988.66 455.906 989.035 455.414L990.559 456.844C990.355 457.148 990.094 457.445 989.773 457.734C989.453 458.016 989.078 458.27 988.648 458.496C988.219 458.715 987.734 458.891 987.195 459.023C986.664 459.164 986.082 459.234 985.449 459.234ZM985.109 448.348C984.719 448.348 984.355 448.418 984.02 448.559C983.684 448.699 983.383 448.906 983.117 449.18C982.852 449.445 982.625 449.773 982.438 450.164C982.258 450.547 982.129 450.984 982.051 451.477H987.992V451.266C987.969 450.891 987.895 450.531 987.77 450.188C987.652 449.836 987.477 449.523 987.242 449.25C987.008 448.977 986.711 448.758 986.352 448.594C986 448.43 985.586 448.348 985.109 448.348ZM996.488 446.32L996.664 448.078C997.125 447.445 997.68 446.957 998.328 446.613C998.984 446.262 999.711 446.086 1000.51 446.086C1001.16 446.086 1001.75 446.18 1002.28 446.367C1002.82 446.555 1003.28 446.848 1003.66 447.246C1004.05 447.645 1004.35 448.16 1004.56 448.793C1004.78 449.426 1004.89 450.188 1004.89 451.078V459H1002.09V451.125C1002.09 450.602 1002.03 450.164 1001.9 449.812C1001.79 449.461 1001.61 449.18 1001.39 448.969C1001.17 448.758 1000.9 448.609 1000.58 448.523C1000.26 448.43 999.895 448.383 999.488 448.383C998.871 448.383 998.332 448.52 997.871 448.793C997.418 449.066 997.051 449.438 996.77 449.906V459H993.957V446.32H996.488ZM1011.38 456.703H1019.52V459H1008.57V441.938H1011.38V456.703ZM1028.69 459.234C1027.75 459.234 1026.9 459.078 1026.12 458.766C1025.35 458.453 1024.69 458.023 1024.13 457.477C1023.59 456.93 1023.16 456.285 1022.86 455.543C1022.55 454.793 1022.4 453.984 1022.4 453.117V452.637C1022.4 451.629 1022.56 450.723 1022.88 449.918C1023.21 449.113 1023.64 448.426 1024.18 447.855C1024.73 447.285 1025.36 446.848 1026.08 446.543C1026.8 446.238 1027.57 446.086 1028.36 446.086C1029.29 446.086 1030.1 446.242 1030.8 446.555C1031.5 446.859 1032.09 447.293 1032.56 447.855C1033.04 448.41 1033.39 449.07 1033.64 449.836C1033.88 450.602 1034 451.441 1034 452.355V453.539H1025.21C1025.26 454.031 1025.38 454.488 1025.57 454.91C1025.77 455.332 1026.02 455.699 1026.34 456.012C1026.66 456.316 1027.03 456.559 1027.45 456.738C1027.88 456.91 1028.35 456.996 1028.86 456.996C1029.57 456.996 1030.22 456.855 1030.81 456.574C1031.41 456.293 1031.9 455.906 1032.28 455.414L1033.8 456.844C1033.6 457.148 1033.34 457.445 1033.02 457.734C1032.7 458.016 1032.32 458.27 1031.89 458.496C1031.46 458.715 1030.98 458.891 1030.44 459.023C1029.91 459.164 1029.32 459.234 1028.69 459.234ZM1028.35 448.348C1027.96 448.348 1027.6 448.418 1027.26 448.559C1026.93 448.699 1026.62 448.906 1026.36 449.18C1026.09 449.445 1025.87 449.773 1025.68 450.164C1025.5 450.547 1025.37 450.984 1025.29 451.477H1031.23V451.266C1031.21 450.891 1031.14 450.531 1031.01 450.188C1030.89 449.836 1030.72 449.523 1030.48 449.25C1030.25 448.977 1029.95 448.758 1029.59 448.594C1029.24 448.43 1028.83 448.348 1028.35 448.348ZM1036.82 452.566C1036.82 451.605 1036.94 450.727 1037.18 449.93C1037.41 449.133 1037.75 448.449 1038.18 447.879C1038.62 447.309 1039.15 446.867 1039.77 446.555C1040.39 446.242 1041.09 446.086 1041.86 446.086C1042.56 446.086 1043.17 446.207 1043.7 446.449C1044.23 446.684 1044.7 447.023 1045.1 447.469V441H1047.91V459H1045.37L1045.23 457.711C1044.83 458.203 1044.35 458.582 1043.79 458.848C1043.23 459.105 1042.58 459.234 1041.84 459.234C1041.07 459.234 1040.38 459.074 1039.77 458.754C1039.15 458.426 1038.62 457.977 1038.18 457.406C1037.75 456.836 1037.42 456.16 1037.18 455.379C1036.94 454.59 1036.82 453.734 1036.82 452.812V452.566ZM1039.62 452.812C1039.62 453.383 1039.68 453.918 1039.79 454.418C1039.9 454.918 1040.07 455.355 1040.3 455.73C1040.55 456.105 1040.85 456.402 1041.22 456.621C1041.59 456.832 1042.04 456.938 1042.55 456.938C1043.2 456.938 1043.72 456.801 1044.12 456.527C1044.53 456.246 1044.86 455.871 1045.1 455.402V449.895C1044.86 449.434 1044.53 449.066 1044.11 448.793C1043.71 448.52 1043.2 448.383 1042.58 448.383C1042.05 448.383 1041.61 448.492 1041.23 448.711C1040.86 448.93 1040.56 449.23 1040.32 449.613C1040.08 449.996 1039.91 450.441 1039.79 450.949C1039.68 451.457 1039.62 451.996 1039.62 452.566V452.812ZM1062.31 461.203H1051.55V459H1062.31V461.203ZM1069.29 441.938L1071.41 449.309L1073.75 441.938H1077.24V459H1074.59V453.141L1074.76 445.664L1072.13 453.844H1070.66L1068.28 445.945L1068.44 453.141V459H1065.79V441.938H1069.29ZM1089.68 452.941H1091.82V455.203H1089.68V459H1086.88V455.203H1079.47L1079.4 453.504L1086.78 441.938H1089.68V452.941ZM1082.28 452.941H1086.88V445.676L1086.57 446.227L1082.28 452.941ZM1098.36 457.324C1098.36 457.051 1098.4 456.793 1098.49 456.551C1098.58 456.309 1098.71 456.102 1098.89 455.93C1099.06 455.75 1099.27 455.609 1099.52 455.508C1099.78 455.406 1100.07 455.355 1100.4 455.355C1100.73 455.355 1101.02 455.406 1101.27 455.508C1101.52 455.609 1101.74 455.75 1101.91 455.93C1102.09 456.102 1102.22 456.309 1102.31 456.551C1102.4 456.793 1102.45 457.051 1102.45 457.324C1102.45 457.598 1102.4 457.852 1102.31 458.086C1102.22 458.312 1102.09 458.512 1101.91 458.684C1101.74 458.855 1101.52 458.988 1101.27 459.082C1101.02 459.184 1100.73 459.234 1100.4 459.234C1100.07 459.234 1099.78 459.184 1099.52 459.082C1099.27 458.988 1099.06 458.855 1098.89 458.684C1098.71 458.512 1098.58 458.312 1098.49 458.086C1098.4 457.852 1098.36 457.598 1098.36 457.324ZM1109.88 446.32H1116.64V456.68H1120.4V459H1109.88V456.68H1113.82V448.652H1109.88V446.32ZM1113.58 443.039C1113.58 442.602 1113.72 442.242 1114 441.961C1114.29 441.672 1114.68 441.527 1115.19 441.527C1115.7 441.527 1116.1 441.672 1116.38 441.961C1116.67 442.242 1116.82 442.602 1116.82 443.039C1116.82 443.477 1116.67 443.84 1116.38 444.129C1116.1 444.41 1115.7 444.551 1115.19 444.551C1114.68 444.551 1114.29 444.41 1114 444.129C1113.72 443.84 1113.58 443.477 1113.58 443.039ZM1126.21 446.32L1126.39 448.078C1126.85 447.445 1127.41 446.957 1128.05 446.613C1128.71 446.262 1129.44 446.086 1130.23 446.086C1130.88 446.086 1131.47 446.18 1132 446.367C1132.54 446.555 1133 446.848 1133.39 447.246C1133.78 447.645 1134.08 448.16 1134.29 448.793C1134.51 449.426 1134.62 450.188 1134.62 451.078V459H1131.82V451.125C1131.82 450.602 1131.75 450.164 1131.63 449.812C1131.51 449.461 1131.34 449.18 1131.11 448.969C1130.89 448.758 1130.62 448.609 1130.3 448.523C1129.98 448.43 1129.62 448.383 1129.21 448.383C1128.6 448.383 1128.06 448.52 1127.6 448.793C1127.14 449.066 1126.78 449.438 1126.5 449.906V459H1123.68V446.32H1126.21ZM1137.58 452.543C1137.58 451.629 1137.71 450.777 1137.98 449.988C1138.25 449.199 1138.64 448.516 1139.14 447.938C1139.65 447.359 1140.27 446.906 1140.99 446.578C1141.72 446.25 1142.54 446.086 1143.46 446.086C1144.39 446.086 1145.22 446.25 1145.95 446.578C1146.68 446.906 1147.3 447.359 1147.8 447.938C1148.31 448.516 1148.7 449.199 1148.96 449.988C1149.23 450.777 1149.36 451.629 1149.36 452.543V452.789C1149.36 453.711 1149.23 454.566 1148.96 455.355C1148.7 456.145 1148.31 456.828 1147.8 457.406C1147.3 457.977 1146.69 458.426 1145.96 458.754C1145.23 459.082 1144.41 459.246 1143.49 459.246C1142.56 459.246 1141.73 459.082 1140.99 458.754C1140.27 458.426 1139.65 457.977 1139.14 457.406C1138.64 456.828 1138.25 456.145 1137.98 455.355C1137.71 454.566 1137.58 453.711 1137.58 452.789V452.543ZM1140.38 452.789C1140.38 453.367 1140.44 453.91 1140.56 454.418C1140.68 454.926 1140.87 455.375 1141.12 455.766C1141.38 456.148 1141.7 456.453 1142.09 456.68C1142.48 456.898 1142.95 457.008 1143.49 457.008C1144.01 457.008 1144.46 456.898 1144.85 456.68C1145.24 456.453 1145.56 456.148 1145.81 455.766C1146.07 455.375 1146.25 454.926 1146.37 454.418C1146.5 453.91 1146.56 453.367 1146.56 452.789V452.543C1146.56 451.98 1146.5 451.445 1146.37 450.938C1146.25 450.43 1146.07 449.984 1145.81 449.602C1145.56 449.219 1145.24 448.914 1144.85 448.688C1144.46 448.461 1144 448.348 1143.46 448.348C1142.93 448.348 1142.47 448.461 1142.08 448.688C1141.69 448.914 1141.37 449.219 1141.12 449.602C1140.87 449.984 1140.68 450.43 1140.56 450.938C1140.44 451.445 1140.38 451.98 1140.38 452.543V452.789Z" fill="white"/>
<path d="M860.961 194.801C860.961 195.738 860.852 196.602 860.633 197.391C860.422 198.172 860.105 198.848 859.684 199.418C859.262 199.988 858.742 200.434 858.125 200.754C857.508 201.074 856.797 201.234 855.992 201.234C855.219 201.234 854.547 201.098 853.977 200.824C853.414 200.551 852.93 200.156 852.523 199.641L852.395 201H849.852V183H852.652V189.527C853.051 189.066 853.52 188.711 854.059 188.461C854.598 188.211 855.234 188.086 855.969 188.086C856.781 188.086 857.496 188.246 858.113 188.566C858.738 188.879 859.262 189.32 859.684 189.891C860.105 190.461 860.422 191.145 860.633 191.941C860.852 192.73 860.961 193.602 860.961 194.555V194.801ZM858.16 194.555C858.16 193.992 858.109 193.461 858.008 192.961C857.914 192.453 857.754 192.008 857.527 191.625C857.309 191.242 857.012 190.941 856.637 190.723C856.262 190.496 855.801 190.383 855.254 190.383C854.59 190.383 854.047 190.535 853.625 190.84C853.203 191.145 852.879 191.543 852.652 192.035V197.273C852.879 197.766 853.203 198.168 853.625 198.48C854.055 198.793 854.605 198.949 855.277 198.949C855.809 198.949 856.258 198.844 856.625 198.633C856.992 198.414 857.289 198.117 857.516 197.742C857.742 197.367 857.906 196.93 858.008 196.43C858.109 195.922 858.16 195.379 858.16 194.801V194.555ZM864.746 183H871.602V198.68H875.469V201H864.746V198.68H868.777V185.332H864.746V183ZM879.254 188.32H886.016V198.68H889.777V201H879.254V198.68H883.191V190.652H879.254V188.32ZM882.957 185.039C882.957 184.602 883.098 184.242 883.379 183.961C883.66 183.672 884.055 183.527 884.562 183.527C885.078 183.527 885.477 183.672 885.758 183.961C886.047 184.242 886.191 184.602 886.191 185.039C886.191 185.477 886.047 185.84 885.758 186.129C885.477 186.41 885.078 186.551 884.562 186.551C884.055 186.551 883.66 186.41 883.379 186.129C883.098 185.84 882.957 185.477 882.957 185.039ZM895.59 188.32L895.766 190.078C896.227 189.445 896.781 188.957 897.43 188.613C898.086 188.262 898.812 188.086 899.609 188.086C900.258 188.086 900.848 188.18 901.379 188.367C901.918 188.555 902.379 188.848 902.762 189.246C903.152 189.645 903.453 190.16 903.664 190.793C903.883 191.426 903.992 192.188 903.992 193.078V201H901.191V193.125C901.191 192.602 901.129 192.164 901.004 191.812C900.887 191.461 900.715 191.18 900.488 190.969C900.27 190.758 900 190.609 899.68 190.523C899.359 190.43 898.996 190.383 898.59 190.383C897.973 190.383 897.434 190.52 896.973 190.793C896.52 191.066 896.152 191.438 895.871 191.906V201H893.059V188.32H895.59ZM911.809 195.457L910.285 196.91V201H907.484V183H910.285V193.605L911.469 192.281L915.195 188.32H918.57L913.672 193.594L919.32 201H915.828L911.809 195.457ZM932.586 203.203H921.828V201H932.586V203.203ZM941.949 194.344H939.09V201H936.277V183.938H941.668C942.543 183.945 943.348 184.059 944.082 184.277C944.824 184.488 945.465 184.809 946.004 185.238C946.543 185.66 946.961 186.191 947.258 186.832C947.555 187.473 947.703 188.223 947.703 189.082C947.703 189.66 947.625 190.188 947.469 190.664C947.32 191.133 947.109 191.559 946.836 191.941C946.562 192.324 946.234 192.66 945.852 192.949C945.469 193.238 945.047 193.484 944.586 193.688L948.195 200.859V201H945.195L941.949 194.344ZM939.09 192.07H941.68C942.148 192.07 942.578 192.004 942.969 191.871C943.359 191.738 943.695 191.551 943.977 191.309C944.266 191.059 944.488 190.758 944.645 190.406C944.801 190.047 944.879 189.637 944.879 189.176C944.879 188.699 944.805 188.277 944.656 187.91C944.508 187.543 944.293 187.234 944.012 186.984C943.738 186.734 943.402 186.547 943.004 186.422C942.605 186.289 942.16 186.219 941.668 186.211H939.09V192.07ZM956.621 201.234C955.684 201.234 954.828 201.078 954.055 200.766C953.281 200.453 952.617 200.023 952.062 199.477C951.516 198.93 951.09 198.285 950.785 197.543C950.48 196.793 950.328 195.984 950.328 195.117V194.637C950.328 193.629 950.488 192.723 950.809 191.918C951.137 191.113 951.57 190.426 952.109 189.855C952.656 189.285 953.289 188.848 954.008 188.543C954.734 188.238 955.496 188.086 956.293 188.086C957.215 188.086 958.027 188.242 958.73 188.555C959.434 188.859 960.02 189.293 960.488 189.855C960.965 190.41 961.324 191.07 961.566 191.836C961.809 192.602 961.93 193.441 961.93 194.355V195.539H953.141C953.188 196.031 953.309 196.488 953.504 196.91C953.699 197.332 953.953 197.699 954.266 198.012C954.586 198.316 954.957 198.559 955.379 198.738C955.809 198.91 956.277 198.996 956.785 198.996C957.496 198.996 958.148 198.855 958.742 198.574C959.344 198.293 959.832 197.906 960.207 197.414L961.73 198.844C961.527 199.148 961.266 199.445 960.945 199.734C960.625 200.016 960.25 200.27 959.82 200.496C959.391 200.715 958.906 200.891 958.367 201.023C957.836 201.164 957.254 201.234 956.621 201.234ZM956.281 190.348C955.891 190.348 955.527 190.418 955.191 190.559C954.855 190.699 954.555 190.906 954.289 191.18C954.023 191.445 953.797 191.773 953.609 192.164C953.43 192.547 953.301 192.984 953.223 193.477H959.164V193.266C959.141 192.891 959.066 192.531 958.941 192.188C958.824 191.836 958.648 191.523 958.414 191.25C958.18 190.977 957.883 190.758 957.523 190.594C957.172 190.43 956.758 190.348 956.281 190.348ZM964.754 194.566C964.754 193.605 964.871 192.727 965.105 191.93C965.34 191.133 965.676 190.449 966.113 189.879C966.551 189.309 967.078 188.867 967.695 188.555C968.32 188.242 969.02 188.086 969.793 188.086C970.488 188.086 971.102 188.207 971.633 188.449C972.164 188.684 972.629 189.023 973.027 189.469V183H975.84V201H973.297L973.156 199.711C972.758 200.203 972.277 200.582 971.715 200.848C971.16 201.105 970.512 201.234 969.77 201.234C969.004 201.234 968.312 201.074 967.695 200.754C967.078 200.426 966.551 199.977 966.113 199.406C965.684 198.836 965.348 198.16 965.105 197.379C964.871 196.59 964.754 195.734 964.754 194.812V194.566ZM967.555 194.812C967.555 195.383 967.609 195.918 967.719 196.418C967.828 196.918 968 197.355 968.234 197.73C968.477 198.105 968.781 198.402 969.148 198.621C969.523 198.832 969.969 198.938 970.484 198.938C971.125 198.938 971.648 198.801 972.055 198.527C972.461 198.246 972.785 197.871 973.027 197.402V191.895C972.785 191.434 972.457 191.066 972.043 190.793C971.637 190.52 971.125 190.383 970.508 190.383C969.984 190.383 969.535 190.492 969.16 190.711C968.793 190.93 968.488 191.23 968.246 191.613C968.012 191.996 967.836 192.441 967.719 192.949C967.609 193.457 967.555 193.996 967.555 194.566V194.812ZM982.555 198.703H990.688V201H979.742V183.938H982.555V198.703ZM999.863 201.234C998.926 201.234 998.07 201.078 997.297 200.766C996.523 200.453 995.859 200.023 995.305 199.477C994.758 198.93 994.332 198.285 994.027 197.543C993.723 196.793 993.57 195.984 993.57 195.117V194.637C993.57 193.629 993.73 192.723 994.051 191.918C994.379 191.113 994.812 190.426 995.352 189.855C995.898 189.285 996.531 188.848 997.25 188.543C997.977 188.238 998.738 188.086 999.535 188.086C1000.46 188.086 1001.27 188.242 1001.97 188.555C1002.68 188.859 1003.26 189.293 1003.73 189.855C1004.21 190.41 1004.57 191.07 1004.81 191.836C1005.05 192.602 1005.17 193.441 1005.17 194.355V195.539H996.383C996.43 196.031 996.551 196.488 996.746 196.91C996.941 197.332 997.195 197.699 997.508 198.012C997.828 198.316 998.199 198.559 998.621 198.738C999.051 198.91 999.52 198.996 1000.03 198.996C1000.74 198.996 1001.39 198.855 1001.98 198.574C1002.59 198.293 1003.07 197.906 1003.45 197.414L1004.97 198.844C1004.77 199.148 1004.51 199.445 1004.19 199.734C1003.87 200.016 1003.49 200.27 1003.06 200.496C1002.63 200.715 1002.15 200.891 1001.61 201.023C1001.08 201.164 1000.5 201.234 999.863 201.234ZM999.523 190.348C999.133 190.348 998.77 190.418 998.434 190.559C998.098 190.699 997.797 190.906 997.531 191.18C997.266 191.445 997.039 191.773 996.852 192.164C996.672 192.547 996.543 192.984 996.465 193.477H1002.41V193.266C1002.38 192.891 1002.31 192.531 1002.18 192.188C1002.07 191.836 1001.89 191.523 1001.66 191.25C1001.42 190.977 1001.12 190.758 1000.77 190.594C1000.41 190.43 1000 190.348 999.523 190.348ZM1008 194.566C1008 193.605 1008.11 192.727 1008.35 191.93C1008.58 191.133 1008.92 190.449 1009.36 189.879C1009.79 189.309 1010.32 188.867 1010.94 188.555C1011.56 188.242 1012.26 188.086 1013.04 188.086C1013.73 188.086 1014.34 188.207 1014.88 188.449C1015.41 188.684 1015.87 189.023 1016.27 189.469V183H1019.08V201H1016.54L1016.4 199.711C1016 200.203 1015.52 200.582 1014.96 200.848C1014.4 201.105 1013.75 201.234 1013.01 201.234C1012.25 201.234 1011.55 201.074 1010.94 200.754C1010.32 200.426 1009.79 199.977 1009.36 199.406C1008.93 198.836 1008.59 198.16 1008.35 197.379C1008.11 196.59 1008 195.734 1008 194.812V194.566ZM1010.8 194.812C1010.8 195.383 1010.85 195.918 1010.96 196.418C1011.07 196.918 1011.24 197.355 1011.48 197.73C1011.72 198.105 1012.02 198.402 1012.39 198.621C1012.77 198.832 1013.21 198.938 1013.73 198.938C1014.37 198.938 1014.89 198.801 1015.3 198.527C1015.7 198.246 1016.03 197.871 1016.27 197.402V191.895C1016.03 191.434 1015.7 191.066 1015.29 190.793C1014.88 190.52 1014.37 190.383 1013.75 190.383C1013.23 190.383 1012.78 190.492 1012.4 190.711C1012.04 190.93 1011.73 191.23 1011.49 191.613C1011.25 191.996 1011.08 192.441 1010.96 192.949C1010.85 193.457 1010.8 193.996 1010.8 194.566V194.812ZM1033.48 203.203H1022.73V201H1033.48V203.203ZM1038.82 188.32L1038.89 189.656C1039.14 189.164 1039.47 188.781 1039.89 188.508C1040.32 188.227 1040.82 188.086 1041.42 188.086C1041.96 188.086 1042.4 188.195 1042.75 188.414C1043.11 188.625 1043.38 188.957 1043.56 189.41C1043.81 189.004 1044.13 188.684 1044.52 188.449C1044.91 188.207 1045.39 188.086 1045.94 188.086C1046.36 188.086 1046.73 188.156 1047.08 188.297C1047.43 188.43 1047.73 188.645 1047.97 188.941C1048.22 189.238 1048.41 189.617 1048.54 190.078C1048.68 190.539 1048.75 191.094 1048.75 191.742V201H1046.15V191.719C1046.15 191.211 1046.04 190.863 1045.82 190.676C1045.61 190.48 1045.34 190.383 1045 190.383C1044.68 190.383 1044.43 190.461 1044.24 190.617C1044.05 190.766 1043.92 190.965 1043.83 191.215V201H1041.29V191.719C1041.29 191.227 1041.19 190.883 1040.98 190.688C1040.79 190.484 1040.52 190.383 1040.18 190.383C1039.85 190.383 1039.59 190.453 1039.4 190.594C1039.21 190.734 1039.07 190.926 1038.97 191.168V201H1036.37V188.32H1038.82ZM1062.64 185.496L1055.81 201H1052.86L1059.69 186.27H1050.84V183.938H1062.64V185.496ZM1069.53 199.324C1069.53 199.051 1069.57 198.793 1069.66 198.551C1069.75 198.309 1069.89 198.102 1070.06 197.93C1070.23 197.75 1070.44 197.609 1070.69 197.508C1070.95 197.406 1071.24 197.355 1071.57 197.355C1071.9 197.355 1072.19 197.406 1072.44 197.508C1072.7 197.609 1072.91 197.75 1073.08 197.93C1073.26 198.102 1073.39 198.309 1073.48 198.551C1073.57 198.793 1073.62 199.051 1073.62 199.324C1073.62 199.598 1073.57 199.852 1073.48 200.086C1073.39 200.312 1073.26 200.512 1073.08 200.684C1072.91 200.855 1072.7 200.988 1072.44 201.082C1072.19 201.184 1071.9 201.234 1071.57 201.234C1071.24 201.234 1070.95 201.184 1070.69 201.082C1070.44 200.988 1070.23 200.855 1070.06 200.684C1069.89 200.512 1069.75 200.312 1069.66 200.086C1069.57 199.852 1069.53 199.598 1069.53 199.324ZM1081.05 188.32H1087.81V198.68H1091.57V201H1081.05V198.68H1084.99V190.652H1081.05V188.32ZM1084.75 185.039C1084.75 184.602 1084.89 184.242 1085.18 183.961C1085.46 183.672 1085.85 183.527 1086.36 183.527C1086.88 183.527 1087.27 183.672 1087.55 183.961C1087.84 184.242 1087.99 184.602 1087.99 185.039C1087.99 185.477 1087.84 185.84 1087.55 186.129C1087.27 186.41 1086.88 186.551 1086.36 186.551C1085.85 186.551 1085.46 186.41 1085.18 186.129C1084.89 185.84 1084.75 185.477 1084.75 185.039ZM1097.39 188.32L1097.56 190.078C1098.02 189.445 1098.58 188.957 1099.23 188.613C1099.88 188.262 1100.61 188.086 1101.41 188.086C1102.05 188.086 1102.64 188.18 1103.18 188.367C1103.71 188.555 1104.18 188.848 1104.56 189.246C1104.95 189.645 1105.25 190.16 1105.46 190.793C1105.68 191.426 1105.79 192.188 1105.79 193.078V201H1102.99V193.125C1102.99 192.602 1102.93 192.164 1102.8 191.812C1102.68 191.461 1102.51 191.18 1102.29 190.969C1102.07 190.758 1101.8 190.609 1101.48 190.523C1101.16 190.43 1100.79 190.383 1100.39 190.383C1099.77 190.383 1099.23 190.52 1098.77 190.793C1098.32 191.066 1097.95 191.438 1097.67 191.906V201H1094.86V188.32H1097.39ZM1108.75 194.543C1108.75 193.629 1108.89 192.777 1109.15 191.988C1109.43 191.199 1109.81 190.516 1110.31 189.938C1110.82 189.359 1111.44 188.906 1112.16 188.578C1112.89 188.25 1113.71 188.086 1114.64 188.086C1115.57 188.086 1116.39 188.25 1117.12 188.578C1117.86 188.906 1118.47 189.359 1118.97 189.938C1119.48 190.516 1119.87 191.199 1120.13 191.988C1120.4 192.777 1120.53 193.629 1120.53 194.543V194.789C1120.53 195.711 1120.4 196.566 1120.13 197.355C1119.87 198.145 1119.48 198.828 1118.97 199.406C1118.47 199.977 1117.86 200.426 1117.13 200.754C1116.41 201.082 1115.58 201.246 1114.66 201.246C1113.73 201.246 1112.9 201.082 1112.16 200.754C1111.44 200.426 1110.82 199.977 1110.31 199.406C1109.81 198.828 1109.43 198.145 1109.15 197.355C1108.89 196.566 1108.75 195.711 1108.75 194.789V194.543ZM1111.55 194.789C1111.55 195.367 1111.61 195.91 1111.73 196.418C1111.86 196.926 1112.04 197.375 1112.29 197.766C1112.55 198.148 1112.88 198.453 1113.27 198.68C1113.66 198.898 1114.12 199.008 1114.66 199.008C1115.18 199.008 1115.64 198.898 1116.02 198.68C1116.41 198.453 1116.73 198.148 1116.98 197.766C1117.24 197.375 1117.43 196.926 1117.54 196.418C1117.67 195.91 1117.73 195.367 1117.73 194.789V194.543C1117.73 193.98 1117.67 193.445 1117.54 192.938C1117.43 192.43 1117.24 191.984 1116.98 191.602C1116.73 191.219 1116.41 190.914 1116.02 190.688C1115.64 190.461 1115.18 190.348 1114.64 190.348C1114.11 190.348 1113.64 190.461 1113.25 190.688C1112.86 190.914 1112.54 191.219 1112.29 191.602C1112.04 191.984 1111.86 192.43 1111.73 192.938C1111.61 193.445 1111.55 193.98 1111.55 194.543V194.789Z" fill="white"/>
<defs>
<filter id="filter0_d" x="104" y="88" width="175" height="195.5" filterUnits="userSpaceOnUse" color-interpolation-filters="sRGB">
<feFlood flood-opacity="0" result="BackgroundImageFix"/>
<feColorMatrix in="SourceAlpha" type="matrix" values="0 0 0 0 0 0 0 0 0 0 0 0 0 0 0 0 0 0 127 0"/>
<feOffset dy="4"/>
<feGaussianBlur stdDeviation="10"/>
<feColorMatrix type="matrix" values="0 0 0 0 0 0 0 0 0 0 0 0 0 0 0 0 0 0 0.25 0"/>
<feBlend mode="normal" in2="BackgroundImageFix" result="effect1_dropShadow"/>
<feBlend mode="normal" in="SourceGraphic" in2="effect1_dropShadow" result="shape"/>
</filter>
<filter id="filter1_d" x="114" y="385" width="161.897" height="171" filterUnits="userSpaceOnUse" color-interpolation-filters="sRGB">
<feFlood flood-opacity="0" result="BackgroundImageFix"/>
<feColorMatrix in="SourceAlpha" type="matrix" values="0 0 0 0 0 0 0 0 0 0 0 0 0 0 0 0 0 0 127 0"/>
<feOffset dy="4"/>
<feGaussianBlur stdDeviation="10"/>
<feColorMatrix type="matrix" values="0 0 0 0 0 0 0 0 0 0 0 0 0 0 0 0 0 0 0.25 0"/>
<feBlend mode="normal" in2="BackgroundImageFix" result="effect1_dropShadow"/>
<feBlend mode="normal" in="SourceGraphic" in2="effect1_dropShadow" result="shape"/>
</filter>
</defs>
</svg>
