<svg xmlns="http://www.w3.org/2000/svg" xmlns:xlink="http://www.w3.org/1999/xlink" xml:space="preserve" id="Layer_1" x="0" y="0" viewBox="0 0 354 134.8"><style>.st0{display:none}.st1{display:inline}.st10,.st11,.st12,.st13,.st2,.st3,.st4,.st5,.st6,.st7,.st8,.st9{fill:none;stroke:#7a217d;stroke-width:.2835;stroke-linecap:round;stroke-linejoin:round;stroke-miterlimit:10}.st10,.st11,.st12,.st13,.st3,.st4,.st5,.st6,.st7,.st8,.st9{stroke-width:.1417}.st10,.st11,.st12,.st13,.st4,.st5,.st6,.st7,.st8,.st9{stroke:#16417a;stroke-width:3.1889}.st10,.st11,.st12,.st13,.st5,.st6,.st7,.st8,.st9{stroke-width:1.5024}.st10,.st11,.st12,.st13,.st6,.st7,.st8,.st9{stroke-width:1.474}.st10,.st11,.st12,.st13,.st7,.st8,.st9{stroke-width:.3543}.st10,.st11,.st12,.st13,.st8,.st9{stroke-width:.4252}.st10,.st11,.st12,.st13,.st9{stroke:#7f8022;stroke-width:.1417}.st10,.st11,.st12,.st13{stroke-width:7.086240e-02}.st11,.st12,.st13{stroke-width:.144}.st12,.st13{stroke-width:7.200000e-02}.st13{stroke-width:.2835}.st19{fill:#a1a3a4}.st20{fill:#8b7866}.st21{fill:#8c9091}.st22{fill:#c1c3c3}.st23{fill:#32352f}.st24{fill:#d8d9da}.st25{fill:#252726}.st26{fill:#b6b8b9}.st27{fill:#41423c}.st32{fill:#98999a}.st35{fill:#8c8f90}.st36,.st37{display:inline;fill:#32352f}.st37{fill:#41423c}</style><g id="Livello_7"><path d="M354 124.1V10.6C354 4.7 349.3 0 343.4 0h-43.7c0 1.5-1.3 2.8-2.8 2.8s-2.8-1.3-2.8-2.8H286c0 1.5-1.3 2.8-2.8 2.8s-2.8-1.1-2.8-2.8h-7.6c0 1.5-1.3 2.8-2.8 2.8s-3-1.1-3-2.8h-7.9c0 1.5-1.3 2.8-2.8 2.8s-2.8-1.3-2.8-2.8h-7.9c0 1.5-1.3 2.8-2.8 2.8S240 1.5 240 0h-7.9c0 1.5-1.3 2.8-2.8 2.8s-2.8-1.3-2.8-2.8h-7.9c0 1.5-1.3 2.8-2.8 2.8S213 1.5 213 0h-7.9c0 1.5-1.3 2.8-2.8 2.8s-2.8-1.3-2.8-2.8H191c0 1.5-1.3 2.8-2.8 2.8s-2.8-1.3-2.8-2.8h-7.9c0 1.5-1.3 2.8-2.8 2.8s-2.8-1.3-2.8-2.8H164c0 1.5-1.3 2.8-2.8 2.8s-2.8-1.3-2.8-2.8h-7.9c0 1.5-1.3 2.8-2.8 2.8s-2.8-1.3-2.8-2.8H137c0 1.5-1.3 2.8-2.8 2.8s-2.8-1.3-2.8-2.8h-7.9c0 1.5-1.3 2.8-2.8 2.8s-2.8-1.3-2.8-2.8h-105C7 0 2.3 4.7 2.3 10.6v113.5c0 5.9 4.7 10.6 10.6 10.6h104.4c0-1.5 1.3-2.8 2.8-2.8s2.8 1.3 2.8 2.8h7.9c0-1.5 1.3-2.8 2.8-2.8s2.8 1.3 2.8 2.8h7.9c0-1.5 1.3-2.8 2.8-2.8s2.8 1.3 2.8 2.8h7.9c0-1.5 1.3-2.8 2.8-2.8s2.8 1.3 2.8 2.8h7.9c0-1.5 1.3-2.8 2.8-2.8s2.8 1.3 2.8 2.8h7.9c0-1.5 1.3-2.8 2.8-2.8s2.8 1.3 2.8 2.8h7.9c0-1.5 1.3-2.8 2.8-2.8s2.8 1.3 2.8 2.8h7.9c0-1.5 1.3-2.8 2.8-2.8s2.8 1.3 2.8 2.8h7.9c0-1.5 1.3-2.8 2.8-2.8s2.8 1.3 2.8 2.8h7.9c0-1.5 1.3-2.8 2.8-2.8s2.8 1.3 2.8 2.8h7.9c0-1.5 1.3-2.8 2.8-2.8s2.8 1.3 2.8 2.8h7.9c0-1.5 1.3-2.8 2.8-2.8s2.8 1.3 2.8 2.8h7.6c0-1.5 1.3-2.8 2.8-2.8s2.8 1.3 2.8 2.8h8.1c0-1.5 1.3-2.8 2.8-2.8s2.8 1.3 2.8 2.8H342c7.3-.1 12-4.8 12-10.6M121 16.3c-.2 0-.4 0-.4-.2-.2 0-.2-.2-.4-.2l-.2-.2c-.2 0-.2-.2-.4-.4s-.4-.4-.4-.8c0-.2-.2-.2-.2-.4-.2-.2-.2-.6-.2-.8 0-1.5 1.3-2.8 2.8-2.8s2.8 1.3 2.8 2.8v.8c0 .2 0 .2-.2.4s-.4.6-.4.8l-.2.2s-.2.2-.4.2-.2.2-.4.2-.4.2-.4.2h-.6c.2 0-.6.2-.8.2m27.6-5.5c1.5 0 2.8 1.3 2.8 2.8v.8c0 .2 0 .2-.2.4 0 .2-.2.4-.4.6l-.6.6c-.2 0-.2.2-.4.2s-.4.2-.4.2h-1.2c-.2 0-.4 0-.4-.2-.2 0-.2-.2-.4-.2l-.2-.2c-.2 0-.2-.2-.4-.4s-.4-.4-.4-.8c0-.2-.2-.2-.2-.4-.2-.2-.2-.6-.2-.8-.2-1.5 1.1-2.6 2.6-2.6m13.5 0c1.5 0 2.8 1.3 2.8 2.8v.8c0 .2 0 .2-.2.4s-.4.6-.4.8l-.4.4s-.2 0-.2.2c-.2 0-.2.2-.4.2s-.2.2-.4.2h-1.4c-.2 0-.4 0-.4-.2-.2 0-.2-.2-.4-.2l-.2-.2c-.2 0-.2-.2-.4-.4s-.4-.4-.4-.8c0-.2-.2-.2-.2-.4s-.2-.6-.2-.8c.1-1.7 1.2-2.8 2.8-2.8m13.6 0c1.5 0 2.8 1.3 2.8 2.8v.8c0 .2 0 .2-.2.4s-.2.6-.4.8l-.4.4s-.2 0-.2.2c-.2 0-.2.2-.4.2s-.2.2-.4.2h-1.4c-.2 0-.4 0-.4-.2-.2 0-.2-.2-.4-.2l-.2-.2c-.2 0-.2-.2-.4-.4s-.4-.4-.4-.8c0-.2-.2-.2-.2-.4s-.2-.6-.2-.8c-.1-1.7 1.1-2.8 2.8-2.8m13.4 0c1.5 0 2.8 1.3 2.8 2.8v.8c0 .2 0 .2-.2.4s-.2.6-.4.8l-.4.4s-.2 0-.2.2c-.2 0-.2.2-.4.2s-.2.2-.4.2h-1.4c-.2 0-.4 0-.4-.2-.2 0-.2-.2-.4-.2l-.2-.2c-.2 0-.2-.2-.4-.4s-.4-.4-.4-.8c0-.2-.2-.2-.2-.4s-.2-.6-.2-.8c0-1.7 1.3-2.8 2.8-2.8m13.4 0c1.5 0 2.8 1.3 2.8 2.8v.8c0 .2 0 .2-.2.4s-.2.6-.4.8l-.4.4s-.2 0-.2.2c-.2 0-.2.2-.4.2s-.2.2-.4.2h-1.4c-.2 0-.4 0-.4-.2-.2 0-.4-.2-.4-.2l-.6-.6c-.2-.2-.4-.4-.4-.6s-.2-.2-.2-.4-.2-.6-.2-.8c0-1.9 1.3-3 2.8-3m27.1 0c1.5 0 2.8 1.3 2.8 2.8v.8c0 .2 0 .2-.2.4s-.2.6-.4.8l-.2.2s-.2.2-.4.2-.2.2-.4.2-.2.2-.4.2h-1.2c-.2 0-.4 0-.4-.2-.2 0-.2-.2-.4-.2l-.2-.2c-.2 0-.2-.2-.4-.4s-.4-.4-.4-.8c0-.2-.2-.2-.2-.4s-.2-.6-.2-.8c-.3-1.5.9-2.6 2.6-2.6m13.4 0c1.5 0 2.8 1.3 2.8 2.8v.8c0 .2 0 .2-.2.4 0 .2-.2.4-.4.6l-.6.6c-.2 0-.4.2-.4.2-.2 0-.2.2-.4.2h-1.4c-.2 0-.2 0-.4-.2-.2 0-.2-.2-.4-.2l-.2-.2c-.2 0-.2-.2-.4-.4-.6 0-.8-.4-.8-.6s-.2-.2-.2-.4-.2-.6-.2-.8c.4-1.7 1.7-2.8 3.2-2.8m13.4 0c1.5 0 2.8 1.3 2.8 2.8v.8c0 .2 0 .2-.2.4 0 .2-.2.4-.4.6l-.6.6c-.2 0-.4.2-.4.2-.2 0-.2.2-.4.2h-1.4c-.2 0-.2 0-.4-.2-.2 0-.2-.2-.4-.2l-.2-.2c-.2 0-.2-.2-.4-.4s-.4-.4-.4-.8c0-.2-.2-.2-.2-.4s-.2-.6-.2-.8c0-1.5 1.3-2.6 2.8-2.6m13.4 0c1.5 0 2.8 1.3 2.8 2.8v.8c0 .2 0 .2-.2.4s-.4.6-.4.8l-.4.4s-.2 0-.2.2c-.2 0-.2.2-.4.2s-.2.2-.4.2h-1.4c-.2 0-.2 0-.4-.2-.2 0-.2-.2-.4-.2l-.2-.2c-.2 0-.2-.2-.4-.4s-.4-.4-.4-.8c0-.2-.2-.2-.2-.4s-.2-.6-.2-.8c0-1.7 1.3-2.8 2.8-2.8m13.3 0c1.5 0 2.8 1.3 2.8 2.8v.8c0 .2 0 .2-.2.4s-.4.6-.4.8l-.4.4s-.2 0-.2.2c-.2 0-.2.2-.4.2s-.2.2-.4.2h-1.4c-.2 0-.2 0-.4-.2-.2 0-.2-.2-.4-.2l-.2-.2c-.2 0-.2-.2-.4-.4s-.4-.4-.4-.8c0-.2-.2-.2-.2-.4s-.2-.6-.2-.8c-.1-1.7 1.3-2.8 2.8-2.8m13.8 0c1.5 0 2.8 1.3 2.8 2.8v.8c0 .2 0 .2-.2.4s-.4.6-.4.8l-.4.4s-.2 0-.2.2c-.2 0-.2.2-.4.2s-.2.2-.4.2h-1.4c-.2 0-.2 0-.4-.2-.2 0-.2-.2-.4-.2l-.2-.2c-.2 0-.2-.2-.4-.4s-.4-.4-.4-.8c0-.2-.2-.2-.2-.4s-.2-.6-.2-.8c0-1.7 1.1-2.8 2.8-2.8M218.8 14v.4c0 .2 0 .2-.2.4s-.2.6-.4.8l-.4.4s-.2 0-.2.2c-.2 0-.2.2-.4.2s-.2.2-.4.2h-1.2c-.2 0-.4 0-.4-.2-.2 0-.4-.2-.4-.2l-.6-.6c-.2-.2-.4-.4-.4-.6s-.2-.2-.2-.4-.2-.6-.2-.8c0-1.5 1.3-2.8 2.8-2.8s2.8 1.3 2.8 2.8c-.2-.2-.2 0-.2.2m-83.6-3.2c1.5 0 2.8 1.3 2.8 2.8v.4c0 .2 0 .2-.2.4 0 .2 0 .2-.2.4 0 .2-.2.4-.4.6l-.6.6c-.2 0-.4.2-.4.2-.2 0-.4.2-.4.2h-1.2c-.2 0-.4 0-.4-.2-.2 0-.2-.2-.4-.2l-.2-.2c-.2 0-.2-.2-.4-.4s-.4-.4-.4-.8c0-.2-.2-.2-.2-.4-.2-.2-.2-.6-.2-.8 0-1.5 1.3-2.6 2.8-2.6m214.1-.2c0 3.2-2.6 5.9-5.9 5.9-3.2 0-5.9-2.6-5.9-5.9s2.6-5.9 5.9-5.9c3.2 0 5.9 2.7 5.9 5.9m-340.6 0c0-3.2 2.6-5.9 5.9-5.9s5.9 2.6 5.9 5.9-2.6 5.9-5.9 5.9-5.9-2.7-5.9-5.9m340.6 113.5c0 3.2-2.6 5.9-5.9 5.9-3.2 0-5.9-2.6-5.9-5.9 0-3.2 2.6-5.9 5.9-5.9 3.2-.2 5.9 2.4 5.9 5.9m-52.4 0c-1.5 0-2.8-1.3-2.8-2.8 0-.2 0-.6.2-.8 0-.2 0-.2.2-.4s.2-.6.4-.8l.4-.4s.2 0 .2-.2c.2 0 .2-.2.4-.2s.2-.2.4-.2h1.4c.2 0 .4 0 .4.2.2 0 .2.2.4.2l.2.2c.2 0 .2.2.4.4s.4.4.4.8c0 .2.2.2.2.4v.8c-.2 1.4-1.3 2.8-2.8 2.8m-13.8 0c-1.5 0-2.8-1.3-2.8-2.8 0-.2 0-.6.2-.8 0-.2 0-.2.2-.4s.2-.6.4-.8l.4-.4s.2 0 .2-.2c.2 0 .2-.2.4-.2s.2-.2.4-.2h1.4c.2 0 .4 0 .4.2.2 0 .2.2.4.2l.2.2c.2 0 .2.2.4.4s.4.4.4.8c0 .2.2.2.2.4v.8c0 1.4-1.3 2.8-2.8 2.8m-13.3 0c-1.5 0-2.8-1.3-2.8-2.8 0-.2 0-.6.2-.8 0-.2 0-.2.2-.4s.2-.6.4-.8l.4-.4s.2 0 .2-.2c.2 0 .2-.2.4-.2s.2-.2.4-.2h1.4c.2 0 .4 0 .4.2.2 0 .2.2.4.2l.2.2c.2 0 .2.2.4.4s.4.4.4.8c0 .2.2.2.2.4v.8c.1 1.4-1.2 2.8-2.8 2.8m-13.4 0c-1.5 0-2.8-1.3-2.8-2.8 0-.2 0-.6.2-.8 0-.2 0-.2.2-.4s.2-.6.4-.8l.4-.4s.2 0 .2-.2c.2 0 .2-.2.4-.2s.2-.2.4-.2h1.4c.2 0 .4 0 .4.2.2 0 .4.2.4.2l.6.6c.2.2.4.4.4.6s.2.2.2.4v.8c.1 1.6-1.3 3-2.8 3m-13.4 0c-1.5 0-2.8-1.3-2.8-2.8 0-.2 0-.6.2-.8 0-.2 0-.2.2-.4s.2-.6.4-.8l.4-.4s.2 0 .2-.2c.2 0 .2-.2.4-.2s.2-.2.4-.2h1.4c.2 0 .4 0 .4.2.2 0 .4.2.4.2l.6.6c.2.2.4.4.4.6s.2.2.2.4v.8c0 1.6-1.3 3-2.8 3m-13.4 0c-1.5 0-2.8-1.3-2.8-2.8 0-.2 0-.6.2-.8 0-.2 0-.2.2-.4s.2-.6.4-.8l.4-.4s.2 0 .2-.2c.2 0 .2-.2.4-.2s.2-.2.4-.2h1.2c.2 0 .4 0 .4.2.2 0 .4.2.4.2.2 0 .2.2.4.2l.2.2c.2.2.4.4.4.8 0 .2.2.2.2.4v.8c0 1.6-1.1 3-2.6 3m-27.1 0c-1.5 0-2.8-1.3-2.8-2.8 0-.2 0-.6.2-.8 0-.2 0-.2.2-.4 0-.2.2-.4.4-.6l.6-.6c.2 0 .4-.2.4-.2.2 0 .2-.2.4-.2h1.4c.2 0 .2 0 .4.2.2 0 .2.2.4.2l.2.2c.2 0 .2.2.4.4s.4.4.4.8c0 .2.2.2.2.4v.8c.1 1.2-1.3 2.6-2.8 2.6m-13.4 0c-1.5 0-2.8-1.3-2.8-2.8 0-.2 0-.6.2-.8 0-.2 0-.2.2-.4s.2-.6.4-.8l.4-.4s.2 0 .2-.2c.2 0 .2-.2.4-.2s.2-.2.4-.2h1.4c.2 0 .2 0 .4.2.2 0 .2.2.4.2l.2.2c.2 0 .2.2.4.4s.4.4.4.8c0 .2.2.2.2.4v.8c0 1.4-1.3 2.8-2.8 2.8m-13.4 0c-1.5 0-2.8-1.3-2.8-2.8 0-.2 0-.6.2-.8 0-.2 0-.2.2-.4s.2-.6.4-.8l.4-.4s.2 0 .2-.2c.2 0 .2-.2.4-.2s.2-.2.4-.2h1.4c.2 0 .2 0 .4.2.2 0 .2.2.4.2l.2.2c.2 0 .2.2.4.4s.4.4.4.8c0 .2.2.2.2.4v.8c-.2 1.4-1.3 2.8-2.8 2.8m-13.6 0c-1.5 0-2.8-1.3-2.8-2.8 0-.2 0-.6.2-.8 0-.2 0-.2.2-.4s.2-.6.4-.8l.4-.4s.2 0 .2-.2c.2 0 .2-.2.4-.2s.2-.2.4-.2h1.4c.2 0 .2 0 .4.2.2 0 .2.2.4.2l.2.2c.2 0 .2.2.4.4s.4.4.4.8c0 .2.2.2.2.4v.8c0 1.4-1.1 2.8-2.8 2.8m-13.5 0c-1.5 0-2.8-1.3-2.8-2.8 0-.2 0-.6.2-.8 0-.2 0-.2.2-.4s.2-.6.4-.8l.4-.4s.2 0 .2-.2c.2 0 .2-.2.4-.2s.2-.2.4-.2h1.2c.2 0 .4 0 .4.2.2 0 .4.2.4.2l.6.6c.2.2.4.4.4.6s.2.2.2.4v.8c.3 1.6-1.1 3-2.6 3m-26.8 0c-1.5 0-2.8-1.3-2.8-2.8 0-.2 0-.6.2-.8 0-.2 0-.2.2-.4s.2-.6.4-.8l.4-.4s.2 0 .2-.2c.2 0 .2-.2.4-.2s.2-.2.4-.2h1.2c.2 0 .4 0 .4.2.2 0 .2.2.4.2s.2.2.4.2l.2.2c.2.2.4.4.4.8 0 .2.2.2.2.4v.8c.2 1.6-1.1 3-2.6 3m11-4c.2-.4.4-.6.6-.8l.4-.4s.2 0 .2-.2c.2 0 .2-.2.4-.2s.2-.2.4-.2h1.2c.2 0 .4 0 .4.2.2 0 .4.2.4.2l.6.6c.2.2.4.4.4.6s.2.2.2.4 0 .2.2.4v.4c0 1.5-1.3 2.8-2.8 2.8s-2.8-1.3-2.8-2.8c0-.2 0-.6.2-.8-.2 0-.2 0 0-.2m83.2 4c-1.5 0-2.8-1.3-2.8-2.8 0-.2 0-.6.2-.8 0-.2 0-.2.2-.4 0-.2.2-.4.4-.6l.6-.6c.2 0 .4-.2.4-.2.2 0 .2-.2.4-.2h1.2c.2 0 .4 0 .4.2.2 0 .2.2.4.2l.2.2c.2 0 .2.2.4.4s.4.4.4.8c0 .2.2.2.2.4v.8c.2 1.2-1.1 2.6-2.6 2.6m-207.3 0c0-3.2 2.6-5.9 5.9-5.9s5.9 2.6 5.9 5.9c0 3.2-2.6 5.9-5.9 5.9-3.3-.1-5.9-2.7-5.9-5.9" style="fill:#63615c"/><path d="M96.8 129.7h-5.3l-2.2 3H80v-22.1h28.2v22.1h-9.1z" style="fill:#e4e5e5"/><path d="M105.7 132.7h2.5v-22.1H80v22.1h2.6v-19.4h23.1z" style="fill:#fcfdfd"/><path d="M88.1 113.3h2.1v6.4h-2.1zM93 113.3h2.1v6.4H93zM98 113.3h2.1v6.4H98z" class="st19"/><path d="M301.4 121.2v-.8c0-.2-.2-.6-.2-.8-.2-.6-.6-1.1-.9-1.5-.2-.2-.2-.4-.4-.4-.2-.2-.6-.4-.8-.6-.2 0-.2-.2-.4-.2-.6-.2-1.1-.4-1.9-.4-.6 0-1.3.2-1.9.4-.2 0-.2.2-.4.2-.9.6-1.9 1.5-2.3 2.5 0 .2-.2.6-.2.8v.8c0 2.6 2.1 4.7 4.7 4.7s4.7-2 4.7-4.7m-7.3 0c0-.2 0-.6.2-.8 0-.2 0-.2.2-.4s.2-.6.4-.8l.4-.4s.2 0 .2-.2c.2 0 .2-.2.4-.2s.2-.2.4-.2h1.4c.2 0 .4 0 .4.2.2 0 .2.2.4.2l.2.2c.2 0 .2.2.4.4s.4.4.4.8c0 .2.2.2.2.4v.8c0 1.5-1.3 2.8-2.8 2.8-1.7.1-2.8-1.3-2.8-2.8M287.8 121.2v-.8c0-.2-.2-.6-.2-.8-.2-.6-.6-1.1-.9-1.5-.2-.2-.2-.4-.4-.4-.2-.2-.6-.4-.8-.6-.2 0-.2-.2-.4-.2-.6-.2-1.1-.4-1.9-.4-.6 0-1.3.2-1.9.4-.2 0-.2.2-.4.2-.9.6-1.7 1.5-2.3 2.5 0 .2-.2.6-.2.8v.8c0 2.6 2.1 4.7 4.7 4.7s4.7-2 4.7-4.7m-7.6 0c0-.2 0-.6.2-.8 0-.2 0-.2.2-.4s.2-.6.4-.8l.4-.4s.2 0 .2-.2c.2 0 .2-.2.4-.2s.2-.2.4-.2h1.4c.2 0 .4 0 .4.2.2 0 .2.2.4.2l.2.2c.2 0 .2.2.4.4s.4.4.4.8c0 .2.2.2.2.4v.8c0 1.5-1.3 2.8-2.8 2.8-1.8.1-2.8-1.3-2.8-2.8M274.6 121.2v-.8c0-.2-.2-.6-.2-.8-.2-.6-.6-1.1-.9-1.5-.2-.2-.2-.4-.4-.4-.2-.2-.6-.4-.8-.6-.2 0-.2-.2-.4-.2-.6-.2-1.1-.4-1.9-.4-.6 0-1.3.2-1.9.4-.2 0-.2.2-.4.2-.9.6-1.7 1.5-2.3 2.5 0 .2-.2.6-.2.8v.8c0 2.6 2.1 4.7 4.7 4.7s4.7-2 4.7-4.7m-7.6 0c0-.2 0-.6.2-.8 0-.2 0-.2.2-.4s.2-.6.4-.8l.4-.4s.2 0 .2-.2c.2 0 .2-.2.4-.2s.2-.2.4-.2h1.4c.2 0 .4 0 .4.2.2 0 .2.2.4.2l.2.2c.2 0 .2.2.4.4s.4.4.4.8c0 .2.2.2.2.4v.8c0 1.5-1.3 2.8-2.8 2.8-1.8.1-2.8-1.3-2.8-2.8M261.2 121.2v-.8c0-.2-.2-.6-.2-.8-.2-.6-.6-1.1-.9-1.5-.2-.2-.2-.4-.4-.4-.2-.2-.6-.4-.8-.6-.2 0-.2-.2-.4-.2-.6-.2-1.1-.4-1.9-.4-.6 0-1.3.2-1.9.4-.2 0-.2.2-.4.2-.9.6-1.7 1.5-2.3 2.5 0 .2-.2.6-.2.8v.8c0 2.6 2.1 4.7 4.7 4.7s4.7-2 4.7-4.7m-7.6 0c0-.2 0-.6.2-.8 0-.2 0-.2.2-.4s.2-.6.4-.8l.4-.4s.2 0 .2-.2c.2 0 .2-.2.4-.2s.2-.2.4-.2h1.4c.2 0 .4 0 .4.2.2 0 .4.2.4.2l.6.6c.2.2.4.4.4.6s.2.2.2.4v.8c0 1.5-1.3 2.8-2.8 2.8-1.5.3-2.8-1.1-2.8-2.6M247.5 121.2v-.8c0-.2-.2-.6-.2-.8s-.2-.6-.4-.8-.2-.4-.4-.6l-.6-.6c-.2-.2-.6-.4-.8-.6-.2 0-.2-.2-.4-.2-.6-.2-1.1-.4-1.9-.4-.6 0-1.3.2-1.9.4-.2 0-.2.2-.4.2-.9.6-1.9 1.5-2.3 2.5 0 .2-.2.6-.2.8v.8c0 2.6 2.1 4.7 4.7 4.7 2.8.1 4.8-1.9 4.8-4.6m-7.3 0c0-.2 0-.6.2-.8 0-.2 0-.2.2-.4s.2-.6.4-.8l.4-.4s.2 0 .2-.2c.2 0 .2-.2.4-.2s.2-.2.4-.2h1.4c.2 0 .4 0 .4.2.2 0 .4.2.4.2l.6.6c.2.2.4.4.4.6s.2.2.2.4v.8c0 1.5-1.3 2.8-2.8 2.8-1.5.3-2.8-1.1-2.8-2.6M234.1 121.2v-.8c0-.2-.2-.6-.2-.8s-.2-.6-.4-.8-.2-.4-.4-.6l-.6-.6c-.2-.2-.6-.4-.8-.6-.2 0-.2-.2-.4-.2-.6-.2-1.1-.4-1.9-.4-.4 0-.9 0-1.3.2-.2 0-.4 0-.4.2-.2 0-.4.2-.4.2-.2.2-.6.4-.8.6l-.6.6c-.2.2-.4.4-.6.8-.2.2-.2.4-.4.8-.2.2-.2.6-.2.8v.8c0 2.6 2.1 4.7 4.7 4.7 2.6-.2 4.7-2.2 4.7-4.9m-7.4 0c0-.2 0-.6.2-.8 0-.2 0-.2.2-.4s.2-.6.4-.8l.4-.4s.2 0 .2-.2c.2 0 .2-.2.4-.2s.2-.2.4-.2h1.2c.2 0 .4 0 .4.2.2 0 .4.2.4.2.2 0 .2.2.4.2l.2.2c.2.2.4.4.4.8 0 .2.2.2.2.4v.8c0 1.5-1.3 2.8-2.8 2.8-1.4.3-2.6-1.1-2.6-2.6M220.7 121.2v-.8c0-.2-.2-.6-.2-.8s-.2-.6-.4-.8-.2-.4-.4-.6-.4-.4-.4-.6c-.2-.2-.4-.4-.6-.4s-.2-.2-.4-.2-.2-.2-.4-.2h-.2c-.2 0-.2 0-.4-.2-.4-.2-.8-.2-1.3-.2s-1.3.2-1.9.4c-.2 0-.2.2-.4.2-.8.4-1.3.9-1.9 1.9-.2.2-.2.4-.4.8 0 .2-.2.6-.2.8v.8c0 2.6 2.1 4.7 4.7 4.7 2.7-.1 4.8-2.1 4.8-4.8m-7.6 0c0-.2 0-.6.2-.8 0-.2 0-.2.2-.4 0-.2.2-.4.4-.6l.6-.6c.2 0 .4-.2.4-.2.2 0 .2-.2.4-.2h1.2c.2 0 .4 0 .4.2.2 0 .2.2.4.2l.2.2c.2 0 .2.2.4.4s.4.4.4.8c0 .2.2.2.2.4v.8c0 1.5-1.3 2.8-2.8 2.8-1.3-.1-2.6-1.5-2.6-3M207.3 121.2v-.8c0-.2-.2-.6-.2-.8-.2-.2-.2-.6-.4-.8s-.2-.4-.4-.6l-.6-.6c-.2-.2-.6-.4-.8-.6-.2 0-.2-.2-.4-.2-.6-.2-1.1-.4-1.9-.4-.6 0-1.3.2-1.9.4-.2 0-.2.2-.4.2-.2.2-.6.4-.8.6l-.6.6c-.2.2-.4.4-.4.6-.2.2-.2.6-.4.8 0 .2-.2.6-.2.8v.8c0 2.6 2.1 4.7 4.7 4.7s4.7-2 4.7-4.7m-7.6 0c0-.2 0-.6.2-.8 0-.2 0-.2.2-.4 0-.2.2-.4.4-.6l.6-.6c.2 0 .4-.2.4-.2.2 0 .2-.2.4-.2h1.4c.2 0 .2 0 .4.2.2 0 .2.2.4.2l.2.2c.2 0 .2.2.4.4s.4.4.4.8c0 .2.2.2.2.4v.8c0 1.5-1.3 2.8-2.8 2.8-1.5-.1-2.8-1.5-2.8-3M193.8 121.2v-.8c0-.2-.2-.6-.2-.8-.2-.2-.2-.6-.4-.8s-.2-.4-.4-.6l-.6-.6c-.2-.2-.6-.4-.8-.6-.2 0-.2-.2-.4-.2-.6-.2-1.1-.4-1.9-.4-.6 0-1.3.2-1.9.4-.2 0-.2.2-.4.2-.4.2-.6.4-.8.6l-.6.6c-.2.2-.4.4-.4.6-.2.2-.2.6-.4.8 0 .2-.2.6-.2.8v.8c0 2.6 2.1 4.7 4.7 4.7 2.5 0 4.7-2 4.7-4.7m-7.5 0c0-.2 0-.6.2-.8 0-.2 0-.2.2-.4s.2-.6.4-.8l.4-.4s.2 0 .2-.2c.2 0 .2-.2.4-.2s.2-.2.4-.2h1.4c.2 0 .2 0 .4.2.2 0 .2.2.4.2l.2.2c.2 0 .2.2.4.4s.4.4.4.8c0 .2.2.2.2.4v.8c0 1.5-1.3 2.8-2.8 2.8s-2.8-1.3-2.8-2.8M180.2 121.2v-.8c0-.2-.2-.6-.2-.8-.2-.2-.2-.6-.4-.8s-.4-.4-.4-.6l-.6-.6c-.2-.2-.6-.4-.8-.6-.2 0-.2-.2-.4-.2-.6-.2-1.1-.4-1.9-.4-.6 0-1.3.2-1.9.4-.2 0-.2.2-.4.2-.4.2-.6.4-.8.6l-.6.6c-.2.2-.4.4-.4.6-.2.2-.2.6-.4.8 0 .2-.2.6-.2.8v.8c0 2.6 2.1 4.7 4.7 4.7s4.7-2 4.7-4.7m-7.4 0c0-.2 0-.6.2-.8 0-.2 0-.2.2-.4s.2-.6.4-.8l.4-.4s.2 0 .2-.2c.2 0 .2-.2.4-.2s.2-.2.4-.2h1.4c.2 0 .2 0 .4.2.2 0 .2.2.4.2l.2.2c.2 0 .2.2.4.4s.4.4.4.8c0 .2.2.2.2.4v.8c0 1.5-1.3 2.8-2.8 2.8-1.6.1-2.8-1.3-2.8-2.8M166.8 121.2v-.8c0-.2-.2-.6-.2-.8-.2-.2-.2-.6-.4-.8s-.4-.4-.4-.6l-.6-.6c-.2-.2-.6-.4-.8-.6-.2 0-.2-.2-.4-.2-.6-.2-1.1-.4-1.9-.4-.6 0-1.3.2-1.9.4-.2 0-.2.2-.4.2-.4.2-.6.4-.8.6l-.6.6c-.2.2-.4.4-.4.6-.2.2-.2.6-.4.8 0 .2-.2.6-.2.8v.8c0 2.6 2.1 4.7 4.7 4.7 3 0 4.7-2 4.7-4.7m-7.4 0c0-.2 0-.6.2-.8 0-.2 0-.2.2-.4s.2-.6.4-.8l.4-.4s.2 0 .2-.2c.2 0 .2-.2.4-.2s.2-.2.4-.2h1.4c.2 0 .2 0 .4.2.2 0 .2.2.4.2l.2.2c.2 0 .2.2.4.4s.4.4.4.8c0 .2.2.2.2.4v.8c0 1.5-1.3 2.8-2.8 2.8-1.8.1-2.8-1.3-2.8-2.8M153.4 121.2v-.8c0-.2-.2-.6-.2-.8-.2-.2-.2-.6-.4-.8s-.4-.4-.4-.6l-.6-.6c-.2-.2-.6-.4-.8-.6-.2 0-.2-.2-.4-.2-.6-.2-1.1-.4-1.9-.4-.6 0-1.3.2-1.9.4-.2 0-.2.2-.4.2-.4.2-.6.4-.8.6l-.6.6c-.2.2-.4.4-.4.6-.2.2-.2.6-.4.8 0 .2-.2.6-.2.8v.8c0 2.6 2.1 4.7 4.7 4.7 3 0 4.7-2 4.7-4.7m-7.6 0c0-.2 0-.6.2-.8 0-.2 0-.2.2-.4s.2-.6.4-.8l.4-.4s.2 0 .2-.2c.2 0 .2-.2.4-.2s.2-.2.4-.2h1.2c.2 0 .4 0 .4.2.2 0 .4.2.4.2l.6.6c.2.2.4.4.4.6s.2.2.2.4v.8c0 1.5-1.3 2.8-2.8 2.8-1.3.3-2.6-1.1-2.6-2.6M139.9 121.2v-.8c0-.4-.2-.6-.2-.8s-.2-.6-.4-.8c-.2-.4-.4-.6-.6-.8 0-.2-.2-.2-.4-.4s-.4-.4-.6-.4-.2-.2-.4-.2-.2-.2-.4-.2c-.6-.2-1.1-.4-1.9-.4s-1.3.2-1.9.4c-.2 0-.2.2-.4.2-.4.2-.6.4-.8.6l-.6.6c-.2.2-.4.4-.4.6-.2.2-.2.6-.4.8 0 .2-.2.6-.2.8v.8c0 2.6 2.1 4.7 4.7 4.7 3 0 4.9-2 4.9-4.7m-7.5 0c0-.2 0-.6.2-.8 0-.2 0-.2.2-.4s.2-.6.4-.8l.4-.4s.2 0 .2-.2c.2 0 .2-.2.4-.2s.2-.2.4-.2h1.2c.2 0 .4 0 .4.2.2 0 .4.2.4.2l.6.6c.2.2.4.4.4.6s.2.2.2.4 0 .2.2.4v.4c0 1.5-1.3 2.8-2.8 2.8-1.5.3-2.8-1.1-2.8-2.6M126.3 121.2v-.8c0-.4-.2-.6-.2-.8s-.2-.6-.4-.8c-.2-.4-.4-.6-.6-.8 0-.2-.2-.2-.4-.4s-.4-.4-.6-.4-.2-.2-.4-.2-.2-.2-.4-.2c-.6-.2-1.1-.4-1.9-.4-.6 0-1.3.2-1.9.4-.2 0-.2.2-.4.2-.4.2-.6.4-.9.6-.2.2-.4.4-.4.6-.2.2-.4.4-.4.6-.2.2-.2.6-.4.8 0 .2-.2.6-.2.8v.8c0 2.6 2.1 4.7 4.7 4.7 2.7 0 4.8-2 4.8-4.7m-7.4 0c0-.2 0-.6.2-.8 0-.2 0-.2.2-.4s.2-.6.4-.8l.4-.4s.2 0 .2-.2c.2 0 .2-.2.4-.2s.2-.2.4-.2h1.2c.2 0 .4 0 .4.2.2 0 .2.2.4.2s.2.2.4.2l.2.2c.2.2.4.4.4.8 0 .2.2.2.2.4v.8c0 1.5-1.3 2.8-2.8 2.8-1.2.3-2.6-1.1-2.6-2.6M298.6 17.8c.2 0 .2-.2.4-.2.9-.6 1.9-1.5 2.3-2.6 0-.2.2-.6.2-.8v-.8c0-2.6-2.1-4.7-4.7-4.7s-4.7 2.1-4.7 4.7v.8c0 .2.2.6.2.8.4 1.1 1.1 2.1 2.3 2.6.2 0 .2.2.4.2.6.2 1.1.4 1.9.4.6 0 1.1 0 1.7-.4m-2.5-1.5c-.2 0-.2 0-.4-.2-.2 0-.2-.2-.4-.2l-.2-.2c-.2 0-.2-.2-.4-.4s-.4-.4-.4-.8c0-.2-.2-.2-.2-.4s-.2-.6-.2-.8c0-1.5 1.3-2.8 2.8-2.8s2.8 1.3 2.8 2.8v.8c0 .2 0 .2-.2.4s-.4.6-.4.8l-.4.4s-.2 0-.2.2c-.2 0-.2.2-.4.2s-.2.2-.4.2h-1.4M285 17.8c.2 0 .2-.2.4-.2.9-.6 1.9-1.5 2.3-2.6 0-.2.2-.6.2-.8v-.8c0-2.6-2.1-4.7-4.7-4.7s-4.7 2.1-4.7 4.7v.8c0 .2.2.6.2.8.4 1.1 1.1 2.1 2.3 2.6.2 0 .2.2.4.2.6.2 1.1.4 1.9.4.5 0 1.1 0 1.7-.4m-2.5-1.5c-.2 0-.2 0-.4-.2-.2 0-.2-.2-.4-.2l-.2-.2c-.2 0-.2-.2-.4-.4s-.4-.4-.4-.8c0-.2-.2-.2-.2-.4s-.2-.6-.2-.8c0-1.5 1.3-2.8 2.8-2.8s2.8 1.3 2.8 2.8v.8c0 .2 0 .2-.2.4s-.4.6-.4.8l-.4.4s-.2 0-.2.2c-.2 0-.2.2-.4.2s-.2.2-.4.2h-1.4M271.7 17.8c.2 0 .2-.2.4-.2.9-.6 1.9-1.5 2.3-2.6 0-.2.2-.6.2-.8v-.8c0-2.6-2.1-4.7-4.7-4.7s-4.7 2.1-4.7 4.7v.8c0 .2.2.6.2.8.4 1.1 1.1 2.1 2.3 2.6.2 0 .2.2.4.2.6.2 1.1.4 1.9.4.6 0 1.2 0 1.7-.4m-2.4-1.5c-.2 0-.2 0-.4-.2-.2 0-.2-.2-.4-.2l-.2-.2c-.2 0-.2-.2-.4-.4s-.4-.4-.4-.8c0-.2-.2-.2-.2-.4s-.2-.6-.2-.8c0-1.5 1.3-2.8 2.8-2.8s2.8 1.3 2.8 2.8v.8c0 .2 0 .2-.2.4s-.4.6-.4.8l-.4.4s-.2 0-.2.2c-.2 0-.2.2-.4.2s-.2.2-.4.2h-1.4M258.3 17.8c.2 0 .2-.2.4-.2.9-.6 1.9-1.5 2.3-2.6 0-.2.2-.6.2-.8v-.8c0-2.6-2.1-4.7-4.7-4.7s-4.7 2.1-4.7 4.7v.8c0 .2.2.6.2.8.4 1.1 1.1 2.1 2.3 2.6.2 0 .2.2.4.2.6.2 1.1.4 1.9.4.4 0 1.1 0 1.7-.4m-2.6-1.5c-.2 0-.2 0-.4-.2-.2 0-.2-.2-.4-.2l-.2-.2c-.2 0-.2-.2-.4-.4s-.4-.4-.4-.8c0-.2-.2-.2-.2-.4s-.2-.6-.2-.8c0-1.5 1.3-2.8 2.8-2.8s2.8 1.3 2.8 2.8v.8c0 .2 0 .2-.2.4 0 .2-.2.4-.4.6l-.6.6c-.2 0-.4.2-.4.2-.2 0-.2.2-.4.2h-.6c-.2 0-.5.2-.8.2M244.7 17.8c.2 0 .2-.2.4-.2.6-.4.9-.8 1.3-1.1.2-.2.4-.4.4-.6.2-.2.2-.6.4-.8 0-.2.2-.6.2-.8v-.8c0-2.6-2.1-4.7-4.7-4.7s-4.7 2.1-4.7 4.7v.8c0 .2.2.6.2.8.4 1.1 1.1 2.1 2.3 2.6.2 0 .2.2.4.2.6.2 1.1.4 1.9.4.8-.1 1.3-.1 1.9-.5m-2.5-1.5c-.2 0-.2 0-.4-.2-.2 0-.2-.2-.4-.2l-.2-.2c-.2 0-.2-.2-.4-.4-.2 0-.4-.4-.4-.6s-.2-.2-.2-.4-.2-.6-.2-.8c0-1.5 1.3-2.8 2.8-2.8s2.8 1.3 2.8 2.8v.8c0 .2 0 .2-.2.4 0 .2-.2.4-.4.6l-.6.6c-.2 0-.4.2-.4.2-.2 0-.2.2-.4.2h-1.4M231.3 17.8c.2 0 .2-.2.4-.2.6-.4.9-.8 1.3-1.1.2-.2.4-.4.4-.6.2-.2.2-.6.4-.8 0-.2.2-.6.2-.8v-.8c0-2.6-2.1-4.7-4.7-4.7s-4.7 2.1-4.7 4.7v.8c0 .2.2.6.2.8s.2.6.4.8c.4.6.6.9 1.1 1.3.2.2.4.4.8.6.2 0 .2.2.4.2s.2.2.4.2c.4.2.9.2 1.3.2.9-.2 1.5-.2 2.1-.6m-2.5-1.5c-.2 0-.4 0-.4-.2-.2 0-.2-.2-.4-.2l-.2-.2c-.2 0-.2-.2-.4-.4s-.4-.4-.4-.8c0-.2-.2-.2-.2-.4s-.2-.6-.2-.8c0-1.5 1.3-2.8 2.8-2.8s2.8 1.3 2.8 2.8v.8c0 .2 0 .2-.2.4s-.2.6-.4.8l-.2.2s-.2.2-.4.2-.2.2-.4.2-.2.2-.4.2h-.6c-.4.2-.6.2-.8.2M217.3 18c.2 0 .2 0 .4-.2h.2c.2 0 .2-.2.4-.2.4-.2.8-.4.9-.8l.4-.4c.2-.2.4-.4.4-.6.2-.2.2-.6.4-.8 0-.2.2-.6.2-.8v-.8c0-2.6-2.1-4.7-4.7-4.7s-4.7 2.1-4.7 4.7v.8c0 .2.2.6.2.8s.2.6.4.8c.2.4.4.8.8.9.4.4.8.6 1.1.8.2 0 .2.2.4.2.6.2 1.1.4 1.9.4.5.1.9.1 1.3-.1m-1.9-1.7c-.2 0-.4 0-.4-.2-.2 0-.4-.2-.4-.2l-.6-.6c-.2-.2-.4-.4-.4-.6s-.2-.2-.2-.4-.2-.6-.2-.8c0-1.5 1.3-2.8 2.8-2.8s2.8 1.3 2.8 2.8v.8c0 .2 0 .2-.2.4s-.2.6-.4.8l-.4.4s-.2 0-.2.2c-.2 0-.2.2-.4.2s-.2.2-.4.2h-.6c-.4-.2-.6-.2-.8-.2M204.4 17.8c.2 0 .2-.2.4-.2.4-.2.6-.4.9-.8l.4-.4c.2-.2.4-.4.4-.6.2-.2.2-.6.4-.8 0-.2.2-.6.2-.8v-.8c0-2.6-2.1-4.7-4.7-4.7s-4.7 2.1-4.7 4.7v.8c0 .2.2.6.2.8.2.2.2.6.4.8s.2.4.4.6c.4.4.9.9 1.3 1.1.2 0 .2.2.4.2.6.2 1.1.4 1.9.4.8.1 1.6.1 2.1-.3m-2.4-1.5c-.2 0-.4 0-.4-.2-.2 0-.4-.2-.4-.2l-.6-.6c-.2-.2-.4-.4-.4-.6s-.2-.2-.2-.4-.2-.6-.2-.8c0-1.5 1.3-2.8 2.8-2.8s2.8 1.3 2.8 2.8v.8c0 .2 0 .2-.2.4s-.2.6-.4.8l-.4.4s-.2 0-.2.2c-.2 0-.2.2-.4.2s-.2.2-.4.2h-.8c-.3-.2-.4-.2-.6-.2M190.8 17.8c.2 0 .2-.2.4-.2.4-.2.6-.4.9-.8l.4-.4c.2-.2.4-.4.4-.6.2-.2.2-.6.4-.8 0-.2.2-.6.2-.8v-.8c0-2.6-2.1-4.7-4.7-4.7s-4.7 2.1-4.7 4.7v.8c0 .2.2.6.2.8.2.2.2.6.4.8s.2.4.4.6c.4.4.9.9 1.3 1.1.2 0 .2.2.4.2.6.2 1.1.4 1.9.4 1 .1 1.5.1 2.1-.3m-2.5-1.5c-.2 0-.4 0-.4-.2-.2 0-.2-.2-.4-.2l-.2-.2c-.2 0-.2-.2-.4-.4s-.4-.4-.4-.8c0-.2-.2-.2-.2-.4s-.2-.6-.2-.8c0-1.5 1.3-2.8 2.8-2.8s2.8 1.3 2.8 2.8v.8c0 .2 0 .2-.2.4s-.2.6-.4.8l-.4.4s-.2 0-.2.2c-.2 0-.2.2-.4.2s-.2.2-.4.2h-1.4M177.4 17.8c.2 0 .2-.2.4-.2.4-.2.6-.4.9-.8l.4-.4c.2-.2.4-.4.4-.6.2-.2.2-.6.4-.8 0-.2.2-.6.2-.8v-.8c0-2.6-2.1-4.7-4.7-4.7s-4.7 2.1-4.7 4.7v.8c0 .2.2.6.2.8.2.2.2.6.4.8s.2.4.4.6c.4.4.9.9 1.3 1.1.2 0 .2.2.4.2.6.2 1.1.4 1.9.4.9.1 1.5.1 2.1-.3m-2.5-1.5c-.2 0-.4 0-.4-.2-.2 0-.2-.2-.4-.2l-.2-.2c-.2 0-.2-.2-.4-.4s-.4-.4-.4-.8c0-.2-.2-.2-.2-.4s-.2-.6-.2-.8c0-1.5 1.3-2.8 2.8-2.8s2.8 1.3 2.8 2.8v.8c0 .2 0 .2-.2.4s-.2.6-.4.8l-.4.4s-.2 0-.2.2c-.2 0-.2.2-.4.2s-.2.2-.4.2h-1.4M164 17.8c.2 0 .2-.2.4-.2.4-.2.6-.4.9-.8l.4-.4c.2-.2.4-.4.4-.6.2-.2.2-.6.4-.8 0-.2.2-.6.2-.8v-.8c0-2.6-2.1-4.7-4.7-4.7s-4.7 2.1-4.7 4.7v.8c0 .2.2.6.2.8.2.2.2.6.4.8s.4.4.4.6c.4.4.9.9 1.3 1.1.2 0 .2.2.4.2.6.2 1.1.4 1.9.4.9.1 1.5.1 2.1-.3m-2.5-1.5c-.2 0-.4 0-.4-.2-.2 0-.2-.2-.4-.2l-.2-.2c-.2 0-.2-.2-.4-.4s-.4-.4-.4-.8c0-.2-.2-.2-.2-.4s-.2-.6-.2-.8c0-1.5 1.3-2.8 2.8-2.8s2.8 1.3 2.8 2.8v.8c0 .2 0 .2-.2.4s-.4.6-.4.8l-.4.4s-.2 0-.2.2c-.2 0-.2.2-.4.2s-.2.2-.4.2h-1.4M150.5 17.8c.2 0 .2-.2.4-.2.4-.2.6-.4.9-.8l.4-.4c.2-.2.4-.4.4-.6.2-.2.2-.6.4-.8 0-.2.2-.6.2-.8v-.8c0-2.6-2.1-4.7-4.7-4.7s-4.7 2.1-4.7 4.7v.8c0 .2.2.6.2.8.2.2.2.6.4.8s.4.4.4.6c.4.4.9.9 1.3 1.1.2 0 .2.2.4.2.6.2 1.1.4 1.9.4 1 .1 1.6.1 2.1-.3m-2.4-1.5c-.2 0-.4 0-.4-.2-.2 0-.2-.2-.4-.2l-.2-.2c-.2 0-.2-.2-.4-.4s-.4-.4-.4-.8c0-.2-.2-.2-.2-.4-.2-.2-.2-.6-.2-.8 0-1.5 1.3-2.8 2.8-2.8s2.8 1.3 2.8 2.8v.8c0 .2 0 .2-.2.4 0 .2-.2.4-.4.6l-.6.6c-.2 0-.2.2-.4.2s-.4.2-.4.2h-.6c-.2 0-.6.2-.8.2M137.1 17.8c.2 0 .2-.2.4-.2.4-.2.8-.6 1.1-.8.4-.4.6-.6.8-.9.2-.2.2-.4.4-.8 0-.2.2-.6.2-.8v-.8c0-2.6-2.1-4.7-4.7-4.7s-4.7 2.1-4.7 4.7v.8c0 .2.2.6.2.8.2.2.2.6.4.8s.4.4.4.6c.4.4.9.9 1.3 1.1.2 0 .2.2.4.2.6.2 1.1.4 1.9.4.6 0 1.3 0 1.9-.4m-2.5-1.5c-.2 0-.4 0-.4-.2-.2 0-.2-.2-.4-.2l-.2-.2c-.2 0-.2-.2-.4-.4s-.4-.4-.4-.8c0-.2-.2-.2-.2-.4-.2-.2-.2-.6-.2-.8 0-1.5 1.3-2.8 2.8-2.8s2.8 1.3 2.8 2.8v.4c0 .2 0 .2-.2.4 0 .2 0 .2-.2.4 0 .2-.2.4-.4.6l-.6.6c-.2 0-.4.2-.4.2-.2 0-.4.2-.4.2h-.6c.2 0-.4.2-.6.2M123.5 17.8c.2 0 .2-.2.4-.2.4-.2.8-.6 1.1-.8.4-.4.6-.6.8-.9.2-.2.2-.4.4-.8 0-.2.2-.6.2-.8v-.8c0-2.6-2.1-4.7-4.7-4.7s-4.7 2.1-4.7 4.7v.8c0 .2.2.6.2.8s.2.6.4.8.4.4.4.6l.4.4c.4.2.6.6.9.8.2 0 .2.2.4.2.6.2 1.1.4 1.9.4.7-.1 1.3-.1 1.9-.5m-2.5-1.5c-.2 0-.4 0-.4-.2-.2 0-.2-.2-.4-.2l-.2-.2c-.2 0-.2-.2-.4-.4s-.4-.4-.4-.8c0-.2-.2-.2-.2-.4-.2-.2-.2-.6-.2-.8 0-1.5 1.3-2.8 2.8-2.8s2.8 1.3 2.8 2.8v.8c0 .2 0 .2-.2.4s-.4.6-.4.8l-.2.2s-.2.2-.4.2-.2.2-.4.2-.4.2-.4.2h-.6c.2 0-.6.2-.8.2" class="st20"/><path d="M299.5 134.6h1.9v-14.2c0-.2-.2-.6-.2-.8-.2-.6-.6-1.1-.9-1.5-.2-.2-.2-.4-.4-.4-.2-.2-.6-.4-.8-.6-.2 0-.2-.2-.4-.2-.6-.2-1.1-.4-1.9-.4-.6 0-1.3.2-1.9.4-.2 0-.2.2-.4.2-.9.6-1.9 1.5-2.3 2.5 0 .2-.2.6-.2.8v14.2h1.9c0-1.5 1.3-2.8 2.8-2.8 1.7.2 2.8 1.3 2.8 2.8m-5.4-14.1c0-.2.2-.2.2-.4.2-.2.2-.6.4-.8l.4-.4s.2 0 .2-.2c.2 0 .2-.2.4-.2s.2-.2.4-.2h1.4c.2 0 .4 0 .4.2.2 0 .2.2.4.2l.2.2c.2 0 .2.2.4.4s.4.4.4.8c0 .2.2.2.2.4v.8c0 1.5-1.3 2.8-2.8 2.8s-2.8-1.3-2.8-2.8c.2-.3.2-.7.2-.8M292.2 120.5v.8zM301.4 121.2v-.8zM285.9 134.6h1.9v-14.2c0-.2-.2-.6-.2-.8-.2-.6-.6-1.1-.9-1.5-.2-.2-.2-.4-.4-.4-.2-.2-.6-.4-.8-.6-.2 0-.2-.2-.4-.2-.6-.2-1.1-.4-1.9-.4-.6 0-1.3.2-1.9.4-.2 0-.2.2-.4.2-.9.6-1.7 1.5-2.3 2.5 0 .2-.2.6-.2.8v14.2h1.9c0-1.5 1.3-2.8 2.8-2.8 1.7 0 2.8 1.3 2.8 2.8m-5.5-14.1c0-.2 0-.2.2-.4s.2-.6.4-.8l.4-.4s.2 0 .2-.2c.2 0 .2-.2.4-.2s.2-.2.4-.2h1.4c.2 0 .4 0 .4.2.2 0 .2.2.4.2l.2.2c.2 0 .2.2.4.4s.4.4.4.8c0 .2.2.2.2.4v.8c0 1.5-1.3 2.8-2.8 2.8s-2.5-1.3-2.5-2.8c-.3-.3-.1-.7-.1-.8M278.5 120.5v.8zM287.8 121.2v-.8zM272.7 134.6h1.9v-14.2c0-.2-.2-.6-.2-.8-.2-.6-.6-1.1-.9-1.5-.2-.2-.2-.4-.4-.4-.2-.2-.6-.4-.8-.6-.2 0-.2-.2-.4-.2-.6-.2-1.1-.4-1.9-.4-.6 0-1.3.2-1.9.4-.2 0-.2.2-.4.2-.9.6-1.7 1.5-2.3 2.5 0 .2-.2.6-.2.8v14.2h1.9c0-1.5 1.3-2.8 2.8-2.8 1.7 0 2.8 1.3 2.8 2.8m-5.5-14.1c0-.2 0-.2.2-.4s.2-.6.4-.8l.4-.4s.2 0 .2-.2c.2 0 .2-.2.4-.2s.2-.2.4-.2h1.4c.2 0 .4 0 .4.2.2 0 .2.2.4.2l.2.2c.2 0 .2.2.4.4s.4.4.4.8c0 .2.2.2.2.4v.8c0 1.5-1.3 2.8-2.8 2.8s-2.5-1.3-2.5-2.8c-.3-.3-.1-.7-.1-.8M265.3 120.5v.8zM274.6 121.2v-.8zM259.3 134.6h1.9v-14.2c0-.2-.2-.6-.2-.8-.2-.6-.6-1.1-.9-1.5-.2-.2-.2-.4-.4-.4-.2-.2-.6-.4-.8-.6-.2 0-.2-.2-.4-.2-.6-.2-1.1-.4-1.9-.4-.6 0-1.3.2-1.9.4-.2 0-.2.2-.4.2-.9.6-1.7 1.5-2.3 2.5 0 .2-.2.6-.2.8v14.2h1.9c0-1.5 1.3-2.8 2.8-2.8 1.4.2 2.8 1.3 2.8 2.8m-5.5-14.1c0-.2 0-.2.2-.4s.2-.6.4-.8l.4-.4s.2 0 .2-.2c.2 0 .2-.2.4-.2s.2-.2.4-.2h1.4c.2 0 .4 0 .4.2.2 0 .4.2.4.2l.6.6c.2.2.4.4.4.6s.2.2.2.4v.8c0 1.5-1.3 2.8-2.8 2.8s-2.8-1.3-2.8-2.8c0-.1 0-.5.2-.6M251.9 120.5v.8zM261.2 121.2v-.8zM245.8 134.6h1.9v-14.2c0-.2-.2-.6-.2-.8s-.2-.6-.4-.8-.2-.4-.4-.6l-.6-.6c-.2-.2-.6-.4-.8-.6-.2 0-.2-.2-.4-.2-.6-.2-1.1-.4-1.9-.4-.6 0-1.3.2-1.9.4-.2 0-.2.2-.4.2-.9.6-1.9 1.5-2.3 2.5 0 .2-.2.6-.2.8v14.2h1.9c0-1.5 1.3-2.8 2.8-2.8 1.6.3 2.9 1.4 2.9 2.9m-5.5-14.1c0-.2 0-.2.2-.4s.2-.6.4-.8l.4-.4s.2 0 .2-.2c.2 0 .2-.2.4-.2s.2-.2.4-.2h1.4c.2 0 .4 0 .4.2.2 0 .4.2.4.2l.6.6c.2.2.4.4.4.6s.2.2.2.4v.8c0 1.5-1.3 2.8-2.8 2.8s-2.8-1.3-2.8-2.8c.1-.1.1-.5.2-.6M238.3 120.5v.8zM247.5 121.2v-.8zM232.2 134.6h1.9v-14.2c0-.2-.2-.6-.2-.8s-.2-.6-.4-.8-.2-.4-.4-.6l-.6-.6c-.2-.2-.6-.4-.8-.6-.2 0-.2-.2-.4-.2-.6-.2-1.1-.4-1.9-.4-.4 0-.9 0-1.3.2-.2 0-.4 0-.4.2-.2 0-.4.2-.4.2-.2.2-.6.4-.8.6l-.6.6c-.2.2-.4.4-.6.8-.2.2-.2.4-.4.8-.2.2-.2.6-.2.8v14.2h1.9c0-1.5 1.3-2.8 2.8-2.8 1.7 0 2.8 1.1 2.8 2.6m-5.5-14.1c0-.2 0-.2.2-.4s.2-.6.4-.8l.4-.4s.2 0 .2-.2c.2 0 .2-.2.4-.2s.2-.2.4-.2h1.2c.2 0 .4 0 .4.2.2 0 .4.2.4.2.2 0 .2.2.4.2l.2.2c.2.2.4.4.4.8 0 .2.2.2.2.4v.8c0 1.5-1.3 2.8-2.8 2.8s-2.8-1.3-2.8-2.8c.4-.1.4-.5.4-.6M224.8 120.5v.8zM234.1 121.2v-.8zM218.8 134.6h1.9v-14.2c0-.2-.2-.6-.2-.8s-.2-.6-.4-.8-.2-.4-.4-.6-.4-.4-.4-.6c-.2-.2-.4-.4-.6-.4s-.2-.2-.4-.2-.2-.2-.4-.2h-.2c-.2 0-.2 0-.4-.2-.4-.2-.8-.2-1.3-.2s-1.3.2-1.9.4c-.2 0-.2.2-.4.2-.8.4-1.3.9-1.9 1.9-.2.2-.2.4-.4.8 0 .2-.2.6-.2.8v14.2h1.9c0-1.5 1.3-2.8 2.8-2.8 1.6.1 2.9 1.2 2.9 2.7m-5.3-14.5c.2-.2.2-.4.4-.6l.6-.6c.2 0 .4-.2.4-.2.2 0 .2-.2.4-.2h1.2c.2 0 .4 0 .4.2.2 0 .2.2.4.2l.2.2c.2 0 .2.2.4.4s.4.4.4.8c0 .2.2.2.2.4v.8c0 1.5-1.3 2.8-2.8 2.8s-2.8-1.3-2.8-2.8c0-.2 0-.6.2-.8.2-.4.4-.4.4-.6M220.7 121.2v-.8zM205.4 134.6h1.9v-14.2c0-.2-.2-.6-.2-.8-.2-.2-.2-.6-.4-.8s-.2-.4-.4-.6l-.6-.6c-.2-.2-.6-.4-.8-.6-.2 0-.2-.2-.4-.2-.6-.2-1.1-.4-1.9-.4-.6 0-1.3.2-1.9.4-.2 0-.2.2-.4.2-.2.2-.6.4-.8.6l-.6.6c-.2.2-.4.4-.4.6-.2.2-.2.6-.4.8 0 .2-.2.6-.2.8v14.2h1.9c0-1.5 1.3-2.8 2.8-2.8 1.4.2 2.8 1.3 2.8 2.8m-5.5-14.1c0-.2 0-.2.2-.4 0-.2.2-.4.4-.6l.6-.6c.2 0 .4-.2.4-.2.2 0 .2-.2.4-.2h1.4c.2 0 .2 0 .4.2.2 0 .2.2.4.2l.2.2c.2 0 .2.2.4.4s.4.4.4.8c0 .2.2.2.2.4v.8c0 1.5-1.3 2.8-2.8 2.8s-2.8-1.3-2.8-2.8c0-.5 0-.9.2-1M198 120.5v.8zM207.3 121.2v-.8zM191.9 134.6h1.9v-14.2c0-.2-.2-.6-.2-.8-.2-.2-.2-.6-.4-.8s-.2-.4-.4-.6l-.6-.6c-.2-.2-.6-.4-.8-.6-.2 0-.2-.2-.4-.2-.6-.2-1.1-.4-1.9-.4-.6 0-1.3.2-1.9.4-.2 0-.2.2-.4.2-.4.2-.6.4-.8.6l-.6.6c-.2.2-.4.4-.4.6-.2.2-.2.6-.4.8 0 .2-.2.6-.2.8v14.2h1.9c0-1.5 1.3-2.8 2.8-2.8s2.8 1.3 2.8 2.8m-5.4-14.1c0-.2 0-.2.2-.4s.2-.6.4-.8l.4-.4s.2 0 .2-.2c.2 0 .2-.2.4-.2s.2-.2.4-.2h1.4c.2 0 .2 0 .4.2.2 0 .2.2.4.2l.2.2c.2 0 .2.2.4.4s.4.4.4.8c0 .2.2.2.2.4v.8c0 1.5-1.3 2.8-2.8 2.8s-2.8-1.3-2.8-2.8c0-.3 0-.7.2-.8M184.6 120.5v.8zM193.8 121.2v-.8zM178.3 134.6h1.9v-14.2c0-.2-.2-.6-.2-.8-.2-.2-.2-.6-.4-.8s-.4-.4-.4-.6l-.6-.6c-.2-.2-.6-.4-.8-.6-.2 0-.2-.2-.4-.2-.6-.2-1.1-.4-1.9-.4-.6 0-1.3.2-1.9.4-.2 0-.2.2-.4.2-.4.2-.6.4-.8.6l-.6.6c-.2.2-.4.4-.4.6-.2.2-.2.6-.4.8 0 .2-.2.6-.2.8v14.2h1.9c0-1.5 1.3-2.8 2.8-2.8 1.7.2 2.8 1.3 2.8 2.8m-5.3-14.1c0-.2 0-.2.2-.4s.2-.6.4-.8l.4-.4s.2 0 .2-.2c.2 0 .2-.2.4-.2s.2-.2.4-.2h1.4c.2 0 .2 0 .4.2.2 0 .2.2.4.2l.2.2c.2 0 .2.2.4.4s.4.4.4.8c0 .2.2.2.2.4v.8c0 1.5-1.3 2.8-2.8 2.8s-2.8-1.3-2.8-2.8c0-.3 0-.7.2-.8M170.9 120.5v.8zM180.2 121.2v-.8zM164.9 134.6h1.9v-14.2c0-.2-.2-.6-.2-.8-.2-.2-.2-.6-.4-.8s-.4-.4-.4-.6l-.6-.6c-.2-.2-.6-.4-.8-.6-.2 0-.2-.2-.4-.2-.6-.2-1.1-.4-1.9-.4-.6 0-1.3.2-1.9.4-.2 0-.2.2-.4.2-.4.2-.6.4-.8.6l-.6.6c-.2.2-.4.4-.4.6-.2.2-.2.6-.4.8 0 .2-.2.6-.2.8v14.2h1.9c0-1.5 1.3-2.8 2.8-2.8 1.9 0 2.8 1.3 2.8 2.8m-5.5-14.1c0-.2 0-.2.2-.4s.2-.6.4-.8l.4-.4s.2 0 .2-.2c.2 0 .2-.2.4-.2s.2-.2.4-.2h1.4c.2 0 .2 0 .4.2.2 0 .2.2.4.2l.2.2c.2 0 .2.2.4.4s.4.4.4.8c0 .2.2.2.2.4v.8c0 1.5-1.3 2.8-2.8 2.8s-2.8-1.3-2.8-2.8c.2-.3.2-.7.2-.8M166.8 121.2v-.8zM151.5 134.6h1.9v-14.2c0-.2-.2-.6-.2-.8-.2-.2-.2-.6-.4-.8s-.4-.4-.4-.6l-.6-.6c-.2-.2-.6-.4-.8-.6-.2 0-.2-.2-.4-.2-.6-.2-1.1-.4-1.9-.4-.6 0-1.3.2-1.9.4-.2 0-.2.2-.4.2-.4.2-.6.4-.8.6l-.6.6c-.2.2-.4.4-.4.6-.2.2-.2.6-.4.8 0 .2-.2.6-.2.8v14.2h1.9c0-1.5 1.3-2.8 2.8-2.8 1.4.2 2.8 1.3 2.8 2.8m-5.5-14.1c0-.2 0-.2.2-.4s.2-.6.4-.8l.4-.4s.2 0 .2-.2c.2 0 .2-.2.4-.2s.2-.2.4-.2h1.2c.2 0 .4 0 .4.2.2 0 .4.2.4.2l.6.6c.2.2.4.4.4.6s.2.2.2.4v.8c0 1.5-1.3 2.8-2.8 2.8s-2.8-1.3-2.8-2.8c.2-.1.4-.5.4-.6M144.1 120.5v.8zM153.4 121.2v-.8zM139.9 120.5c-.2-.4-.2-.6-.4-.8 0-.2-.2-.6-.4-.8-.2-.4-.4-.6-.6-.8 0-.2-.2-.2-.4-.4s-.4-.4-.6-.4-.2-.2-.4-.2-.2-.2-.4-.2c-.6-.2-1.1-.4-1.9-.4s-1.3.2-1.9.4c-.2 0-.2.2-.4.2-.4.2-.6.4-.8.6l-.6.6c-.2.2-.4.4-.4.6-.2.2-.2.6-.4.8 0 .2-.2.6-.2.8v14.2h1.9c0-1.5 1.3-2.8 2.8-2.8s2.8 1.3 2.8 2.8h1.9zm-7.3 0c0-.2 0-.2.2-.4s.2-.6.4-.8l.4-.4s.2 0 .2-.2c.2 0 .2-.2.4-.2s.2-.2.4-.2h1.2c.2 0 .4 0 .4.2.2 0 .4.2.4.2l.6.6c.2.2.4.4.4.6s.2.2.2.4 0 .2.2.4v.4c0 1.5-1.3 2.8-2.8 2.8s-2.8-1.3-2.8-2.8c0-.1 0-.5.2-.6M130.7 120.5v.8zM124.6 134.6h1.9v-14.2c0-.4-.2-.6-.2-.8s-.2-.6-.4-.8c-.2-.4-.4-.6-.6-.8 0-.2-.2-.2-.4-.4s-.4-.4-.6-.4-.2-.2-.4-.2-.2-.2-.4-.2c-.6-.2-1.1-.4-1.9-.4-.6 0-1.3.2-1.9.4-.2 0-.2.2-.4.2-.4.2-.6.4-.9.6-.2.2-.4.4-.4.6-.2.2-.4.4-.4.6-.2.2-.2.6-.4.8 0 .2-.2.6-.2.8v14.2h1.9c0-1.5 1.3-2.8 2.8-2.8 1.6.2 2.9 1.3 2.9 2.8m-5.5-14.1c0-.2 0-.2.2-.4s.2-.6.4-.8l.4-.4s.2 0 .2-.2c.2 0 .2-.2.4-.2s.2-.2.4-.2h1.2c.2 0 .4 0 .4.2.2 0 .2.2.4.2s.2.2.4.2l.2.2c.2.2.4.4.4.8 0 .2.2.2.2.4v.8c0 1.5-1.3 2.8-2.8 2.8s-2.8-1.3-2.8-2.8c.2-.1.2-.5.4-.6M117.2 120.5v.8zM126.3 121.2v-.8zM190.8 17.8c.2 0 .2-.2.4-.2.4-.2.6-.4.9-.8l.4-.4c.2-.2.4-.4.4-.6.2-.2.2-.6.4-.8 0-.2.2-.6.2-.8V.2h-1.9c0 1.5-1.3 2.8-2.8 2.8S186 1.7 186 .2h-2v14.2c0 .2.2.6.2.8.2.2.2.6.4.8s.2.4.4.6c.4.4.9.9 1.3 1.1.2 0 .2.2.4.2.6.2 1.1.4 1.9.4 1.1-.1 1.6-.1 2.2-.5m-2.5-1.5c-.2 0-.4 0-.4-.2-.2 0-.2-.2-.4-.2l-.2-.2c-.2 0-.2-.2-.4-.4s-.4-.4-.4-.8c0-.2-.2-.2-.2-.4s-.2-.6-.2-.8c0-1.5 1.3-2.8 2.8-2.8s2.8 1.3 2.8 2.8v.8c0 .2 0 .2-.2.4s-.2.6-.4.8l-.4.4s-.2 0-.2.2c-.2 0-.2.2-.4.2s-.2.2-.4.2h-1.4M177.4 17.8c.2 0 .2-.2.4-.2.4-.2.6-.4.9-.8l.4-.4c.2-.2.4-.4.4-.6.2-.2.2-.6.4-.8 0-.2.2-.6.2-.8V.2h-1.9c0 1.5-1.3 2.8-2.8 2.8s-2.8-1.3-2.8-2.8h-1.9v14.2c0 .2.2.6.2.8.2.2.2.6.4.8s.2.4.4.6c.4.4.9.9 1.3 1.1.2 0 .2.2.4.2.6.2 1.1.4 1.9.4.9-.1 1.5-.1 2.1-.5m-2.5-1.5c-.2 0-.4 0-.4-.2-.2 0-.2-.2-.4-.2l-.2-.2c-.2 0-.2-.2-.4-.4s-.4-.4-.4-.8c0-.2-.2-.2-.2-.4s-.2-.6-.2-.8c0-1.5 1.3-2.8 2.8-2.8s2.8 1.3 2.8 2.8v.8c0 .2 0 .2-.2.4s-.2.6-.4.8l-.4.4s-.2 0-.2.2c-.2 0-.2.2-.4.2s-.2.2-.4.2h-1.4M164 17.8c.2 0 .2-.2.4-.2.4-.2.6-.4.9-.8l.4-.4c.2-.2.4-.4.4-.6.2-.2.2-.6.4-.8 0-.2.2-.6.2-.8V.2h-1.9c0 1.5-1.3 2.8-2.8 2.8s-2.8-1.3-2.8-2.8h-1.9v14.2c0 .2.2.6.2.8.2.2.2.6.4.8s.4.4.4.6c.4.4.9.9 1.3 1.1.2 0 .2.2.4.2.6.2 1.1.4 1.9.4.9-.1 1.5-.1 2.1-.5m-2.5-1.5c-.2 0-.4 0-.4-.2-.2 0-.2-.2-.4-.2l-.2-.2c-.2 0-.2-.2-.4-.4s-.4-.4-.4-.8c0-.2-.2-.2-.2-.4s-.2-.6-.2-.8c0-1.5 1.3-2.8 2.8-2.8s2.8 1.3 2.8 2.8v.8c0 .2-.2.2-.2.4-.2.2-.4.6-.4.8l-.4.4s-.2 0-.2.2c-.2 0-.2.2-.4.2s-.2.2-.4.2h-1.4M150.5 17.8c.2 0 .2-.2.4-.2.4-.2.6-.4.9-.8l.4-.4c.2-.2.4-.4.4-.6.2-.2.2-.6.4-.8 0-.2.2-.6.2-.8V.2h-1.9c0 1.5-1.3 2.8-2.8 2.8s-2.8-1.3-2.8-2.8h-1.9v14.2c0 .2.2.6.2.8.2.2.2.6.4.8s.4.4.4.6c.4.4.9.9 1.3 1.1.2 0 .2.2.4.2.6.2 1.1.4 1.9.4 1-.1 1.6-.1 2.1-.5m-2.4-1.5c-.2 0-.4 0-.4-.2-.2 0-.2-.2-.4-.2l-.2-.2c-.2 0-.2-.2-.4-.4s-.4-.4-.4-.8c0-.2-.2-.2-.2-.4-.2-.2-.2-.6-.2-.8 0-1.5 1.3-2.8 2.8-2.8s2.8 1.3 2.8 2.8v.8c0 .2-.2.2-.2.4s-.2.4-.4.6l-.6.6c-.2 0-.2.2-.4.2s-.4.2-.4.2h-.6c-.2 0-.6.2-.8.2M137.1 17.8c.2 0 .2-.2.4-.2.4-.2.8-.6 1.1-.8.4-.4.6-.6.8-.9.2-.2.2-.4.4-.8 0-.2.2-.6.2-.8h.2V.2h-1.9c0 1.5-1.3 2.8-2.8 2.8s-2.8-1.3-2.8-2.8h-1.9v14.2c0 .2.2.6.2.8.2.2.2.6.4.8s.4.4.4.6c.4.4.9.9 1.3 1.1.2 0 .2.2.4.2.6.2 1.1.4 1.9.4.6-.1 1.1-.1 1.7-.5m-2.5-1.5c-.2 0-.4 0-.4-.2-.2 0-.2-.2-.4-.2l-.2-.2c-.2 0-.2-.2-.4-.4s-.4-.4-.4-.8c0-.2-.2-.2-.2-.4-.2-.2-.2-.6-.2-.8 0-1.5 1.3-2.8 2.8-2.8s2.8 1.3 2.8 2.8v.4c0 .2 0 .2-.2.4 0 .2 0 .2-.2.4 0 .2-.2.4-.4.6l-.6.6c-.2 0-.4.2-.4.2-.2 0-.4.2-.4.2h-.6c.2 0-.4.2-.6.2M123.5 17.8c.2 0 .2-.2.4-.2.4-.2.8-.6 1.1-.8.4-.4.6-.6.8-.9.2-.2.2-.4.4-.8 0-.2.2-.6.2-.8V.2h-1.9c0 1.5-1.3 2.8-2.8 2.8s-2.8-1.3-2.8-2.8H117v14.2c0 .2.2.6.2.8s.2.6.4.8.4.4.4.6l.4.4c.4.4.6.6.9.8.2 0 .2.2.4.2.6.2 1.1.4 1.9.4.7-.2 1.3-.2 1.9-.6m-2.5-1.5c-.2 0-.4 0-.4-.2-.2 0-.2-.2-.4-.2l-.2-.2c-.2 0-.2-.2-.4-.4s-.4-.4-.4-.8c0-.2-.2-.2-.2-.4-.2-.2-.2-.6-.2-.8 0-1.5 1.3-2.8 2.8-2.8s2.8 1.3 2.8 2.8v.8c0 .2-.2.2-.2.4-.2.2-.4.6-.4.8l-.2.2s-.2.2-.4.2-.2.2-.4.2-.4.2-.4.2h-.6c.2 0-.6.2-.8.2M298.6 17.8c.2 0 .2-.2.4-.2.9-.6 1.9-1.5 2.3-2.6 0-.2.2-.6.2-.8V0h-1.9c0 1.5-1.3 2.8-2.8 2.8S294 1.5 294 0h-2v14.2c0 .2.2.6.2.8.4 1.1 1.1 2.1 2.3 2.6.2 0 .2.2.4.2.6.2 1.1.4 1.9.4.7 0 1.2 0 1.8-.4m-2.5-1.5c-.2 0-.2 0-.4-.2-.2 0-.2-.2-.4-.2l-.2-.2c-.2 0-.2-.2-.4-.4s-.4-.4-.4-.8c0-.2-.2-.2-.2-.4s-.2-.6-.2-.8c0-1.5 1.3-2.8 2.8-2.8s2.8 1.3 2.8 2.8v.8c0 .2 0 .2-.2.4s-.4.6-.4.8l-.4.4s-.2 0-.2.2c-.2 0-.2.2-.4.2s-.2.2-.4.2h-1.4M301.4 14.4v-.8zM292.2 13.6v.8zM285 17.8c.2 0 .2-.2.4-.2.9-.6 1.9-1.5 2.3-2.6 0-.2.2-.6.2-.8V0H286c0 1.5-1.3 2.8-2.8 2.8s-2.8-1.1-2.8-2.8h-1.9v14.2c0 .2.2.6.2.8.4 1.1 1.1 2.1 2.3 2.6.2 0 .2.2.4.2.6.2 1.1.4 1.9.4.5 0 1.1 0 1.7-.4m-2.5-1.5c-.2 0-.2 0-.4-.2-.2 0-.2-.2-.4-.2l-.2-.2c-.2 0-.2-.2-.4-.4s-.4-.4-.4-.8c0-.2-.2-.2-.2-.4s-.2-.6-.2-.8c0-1.5 1.3-2.8 2.8-2.8s2.8 1.3 2.8 2.8v.8c0 .2 0 .2-.2.4s-.4.6-.4.8l-.4.4s-.2 0-.2.2c-.2 0-.2.2-.4.2s-.2.2-.4.2h-1.4M287.8 14.4v-.8zM278.4 13.6v.8zM271.7 17.8c.2 0 .2-.2.4-.2.9-.6 1.9-1.5 2.3-2.6 0-.2.2-.6.2-.8V0h-1.9c0 1.5-1.3 2.8-2.8 2.8S267 1.7 267 0h-1.9v14.2c0 .2.2.6.2.8.4 1.1 1.1 2.1 2.3 2.6.2 0 .2.2.4.2.6.2 1.1.4 1.9.4.7 0 1.3 0 1.8-.4m-2.4-1.5c-.2 0-.2 0-.4-.2-.2 0-.2-.2-.4-.2l-.2-.2c-.2 0-.2-.2-.4-.4s-.4-.4-.4-.8c0-.2-.2-.2-.2-.4s-.2-.6-.2-.8c0-1.5 1.3-2.8 2.8-2.8s2.8 1.3 2.8 2.8v.8c0 .2 0 .2-.2.4s-.4.6-.4.8l-.4.4s-.2 0-.2.2c-.2 0-.2.2-.4.2s-.2.2-.4.2h-1.4M274.6 14.4v-.8zM265.1 13.6v.8zM258.3 17.8c.2 0 .2-.2.4-.2.9-.6 1.9-1.5 2.3-2.6 0-.2.2-.6.2-.8V0h-1.9c0 1.5-1.3 2.8-2.8 2.8s-2.8-1.3-2.8-2.8h-1.9v14.2c0 .2.2.6.2.8.4 1.1 1.1 2.1 2.3 2.6.2 0 .2.2.4.2.6.2 1.1.4 1.9.4.4 0 1.1 0 1.7-.4m-2.6-1.5c-.2 0-.2 0-.4-.2-.2 0-.2-.2-.4-.2l-.2-.2c-.2 0-.2-.2-.4-.4s-.4-.4-.4-.8c0-.2-.2-.2-.2-.4s-.2-.6-.2-.8c0-1.5 1.3-2.8 2.8-2.8s2.8 1.3 2.8 2.8v.8c0 .2 0 .2-.2.4 0 .2-.2.4-.4.6l-.6.6c-.2 0-.4.2-.4.2-.2 0-.2.2-.4.2h-.6c-.2 0-.5.2-.8.2M261.2 14.4v-.8zM251.7 13.6v.8zM244.7 17.8c.2 0 .2-.2.4-.2.6-.4.9-.8 1.3-1.1.2-.2.4-.4.4-.6.2-.2.2-.6.4-.8 0-.2.2-.6.2-.8V.2h-1.9c0 1.5-1.3 2.8-2.8 2.8s-2.8-1.3-2.8-2.8H238v14.2c0 .2.2.6.2.8.4 1.1 1.1 2.1 2.3 2.6.2 0 .2.2.4.2.6.2 1.1.4 1.9.4.8-.2 1.3-.2 1.9-.6m-2.5-1.5c-.2 0-.2 0-.4-.2-.2 0-.2-.2-.4-.2l-.2-.2c-.2 0-.2-.2-.4-.4-.2 0-.4-.4-.4-.6s-.2-.2-.2-.4-.2-.6-.2-.8c0-1.5 1.3-2.8 2.8-2.8s2.8 1.3 2.8 2.8v.8c0 .2 0 .2-.2.4 0 .2-.2.4-.4.6l-.6.6c-.2 0-.4.2-.4.2-.2 0-.2.2-.4.2h-1.4M247.5 14.4v-.8zM238.3 14.4v-.8zM231.3 17.8c.2 0 .2-.2.4-.2.6-.4.9-.8 1.3-1.1.2-.2.4-.4.4-.6.2-.2.2-.6.4-.8 0-.2.2-.6.2-.8V.2h-2c0 1.5-1.3 2.8-2.8 2.8s-2.8-1.3-2.8-2.8h-1.9v14.2c0 .2.2.6.2.8s.2.6.4.8c.4.6.6.9 1.1 1.3.2.2.4.4.8.6.2 0 .2.2.4.2s.2.2.4.2c.4.2.9.2 1.3.2 1-.3 1.6-.3 2.2-.7m-2.5-1.5c-.2 0-.4 0-.4-.2-.2 0-.2-.2-.4-.2l-.2-.2c-.2 0-.2-.2-.4-.4s-.4-.4-.4-.8c0-.2-.2-.2-.2-.4s-.2-.6-.2-.8c0-1.5 1.3-2.8 2.8-2.8s2.8 1.3 2.8 2.8v.8c0 .2 0 .2-.2.4s-.2.6-.4.8l-.2.2s-.2.2-.4.2-.2.2-.4.2-.2.2-.4.2h-.6c-.4.2-.6.2-.8.2M234.1 14.4v-.8zM224.8 13.6v.8zM217.3 18c.2 0 .2 0 .4-.2h.2c.2 0 .2-.2.4-.2.4-.2.8-.4.9-.8l.4-.4c.2-.2.4-.4.4-.6.2-.2.2-.6.4-.8 0-.2.2-.6.2-.8V.2h-1.9c0 1.5-1.3 2.8-2.8 2.8s-2.8-1.3-2.8-2.8H211v14.2c0 .2.2.6.2.8s.2.6.4.8c.2.4.4.8.8.9.4.4.8.6 1.1.8.2 0 .2.2.4.2.6.2 1.1.4 1.9.4.7-.1 1.1-.1 1.5-.3m-1.9-1.7c-.2 0-.4 0-.4-.2-.2 0-.4-.2-.4-.2l-.6-.6c-.2-.2-.2-.4-.4-.6 0-.2-.2-.2-.2-.4s-.2-.6-.2-.8c0-1.5 1.3-2.8 2.8-2.8s2.8 1.3 2.8 2.8v.8c0 .2 0 .2-.2.4s-.2.6-.4.8l-.4.4s-.2 0-.2.2c-.2 0-.2.2-.4.2s-.2.2-.4.2h-.6c-.4-.2-.6-.2-.8-.2M220.7 14.4v-.8zM204.4 17.8c.2 0 .2-.2.4-.2.4-.2.6-.4.9-.8l.4-.4c.2-.2.4-.4.4-.6.2-.2.2-.6.4-.8 0-.2.2-.6.2-.8V.2h-1.9c0 1.5-1.3 2.8-2.8 2.8s-2.8-1.3-2.8-2.8h-1.9v14.2c0 .2.2.6.2.8.2.2.2.6.4.8s.2.4.4.6c.4.4.9.9 1.3 1.1.2 0 .2.2.4.2.6.2 1.1.4 1.9.4.8-.1 1.6-.1 2.1-.5m-2.4-1.5c-.2 0-.4 0-.4-.2-.2 0-.4-.2-.4-.2l-.6-.6c-.2-.2-.2-.4-.4-.6 0-.2-.2-.2-.2-.4s-.2-.6-.2-.8c0-1.5 1.3-2.8 2.8-2.8s2.8 1.3 2.8 2.8v.8c0 .2 0 .2-.2.4s-.2.6-.4.8l-.4.4s-.2 0-.2.2c-.2 0-.2.2-.4.2s-.2.2-.4.2h-.8c-.3-.2-.4-.2-.6-.2M207.3 14.4v-.8zM197.8 13.6v.8zM193.8 14.4v-.8zM184.4 13.6v.8zM180.2 14.4v-.8zM170.9 13.6v.8zM166.8 14.4v-.8zM157.5 13.6v.8zM153.4 14.4v-.8zM144.1 13.6v.8zM130.5 13.6v.8zM126.3 14.4v-.8z" class="st20"/><path d="M117.2 14.4v-.8c-.1.2-.1.4 0 .8" class="st20"/><path d="M105.9 56.7h3.6V61h-3.6zM105.9 73h3.6v4.3h-3.6zM91 56.7h3.6V61H91zM91 73h3.6v4.3H91zM98 77.2h4.3v3.6H98zM98 53.3h4.3v3.6H98z" class="st21"/><path d="M93.6 56.4H107V78H93.6z" class="st22"/><path d="M100.2 71.5h-.5l-.4-.2-.4-.2-.6-.2-.3-.2-.4-.2-.4-.3-.4-.4-.2-.4-.2-.4-.1-.4-.2-.3-.2-.6v-.9l.2-.4v-.6l.2-.4.1-.3.4-.6.2-.4.4-.2.4-.4.3-.2.4-.1.6-.2.4-.2h1.5l.4.2.5.2.4.1.4.2.4.4.3.2.2.4.4.6.2.3.2.4v.6l.2.4v.9l-.2.6-.2.3-.2.4-.2.4-.2.4-.4.4-.3.3-.4.2-.4.2-.6.2-.3.2-.6.2z" class="st19"/><g id="Artwork_3_65_"><path d="M12.3 108.7v-2.6H9.6v2.6zM9.5 108.7v-2.6H6.8v2.6z" class="st21"/><path d="M8.5 108.5h2.2c.6 0 1.1-.6 1.1-1.1s-.6-1.1-1.1-1.1H8.5c-.6 0-1.1.6-1.1 1.1s.5 1.1 1.1 1.1" class="st22"/><path d="M8.7 106.3h1.7v2.3H8.7z" class="st23"/></g><path d="M8.9 101.9c0-.9-.2-1.7-.6-2.5h7.9c-.4.8-.6 1.7-.6 2.5 0 .9.2 1.7.6 2.6H8.3c.4-.9.6-1.8.6-2.6" class="st24"/><path d="M15.9 101.9c0-.9.2-1.7.6-2.5h1.3v5.1h-1.3c-.6-.9-.6-1.8-.6-2.6M7.2 104.4v-5.1h1.3c.4.8.6 1.7.6 2.5 0 .9-.2 1.7-.6 2.6z" class="st24"/><path d="M47.8 45c.9 0 1.7-.2 2.5-.6v7.9c-.8-.4-1.7-.6-2.5-.6-.9 0-1.7.2-2.6.6v-7.9c.9.4 1.9.6 2.6.6" class="st23"/><path d="M47.8 52c.9 0 1.7.2 2.5.6v1.3h-5.1v-1.3c.9-.4 1.9-.6 2.6-.6M45.4 43.3h5.1v1.3c-.8.4-1.7.6-2.5.6-.9 0-1.7-.2-2.6-.6z" class="st24"/><path d="M25.7 25.5c1.5 0 2.8-.2 4.2-.6v9.3c-1.3-.4-2.6-.6-4.2-.6s-2.8.2-4.2.6v-9.5c1.4.6 2.9.8 4.2.8" class="st20"/><path d="M25.7 33.8c1.5 0 2.8.2 4.2.6v1.5h-8.1v-1.5c1.1-.4 2.6-.6 3.9-.6M21.7 23.4h8.1V25c-1.3.4-2.6.6-4.2.6s-2.8-.2-4.2-.6z" class="st24"/><path d="M115.7 98c0 .9.2 1.7.6 2.5h-7.9c.4-.8.6-1.7.6-2.5 0-.9-.2-1.7-.6-2.6h7.9c-.4.7-.6 1.6-.6 2.6" class="st23"/><path d="M108.9 98c0 .9-.2 1.7-.6 2.5H107v-5.1h1.3c.4.7.6 1.6.6 2.6M117.6 95.3v5.1h-1.3c-.4-.8-.6-1.7-.6-2.5 0-.9.2-1.7.6-2.6z" class="st24"/><path d="M165.8 92.5c0 .9.2 1.7.6 2.5h-7.9c.4-.8.6-1.7.6-2.5 0-.9-.2-1.7-.6-2.6h7.9c-.4.9-.6 1.6-.6 2.6" class="st23"/><path d="M159 92.5c0 .9-.2 1.7-.6 2.5h-1.3v-5.1h1.3c.4.9.6 1.6.6 2.6M167.5 90v5.1h-1.3c-.4-.8-.6-1.7-.6-2.5 0-.9.2-1.7.6-2.6z" class="st24"/><path d="M165.8 99.8c0 .9.2 1.7.6 2.5h-7.9c.4-.8.6-1.7.6-2.5 0-.9-.2-1.7-.6-2.6h7.9c-.4.9-.6 1.7-.6 2.6" class="st23"/><path d="M159 99.8c0 .9-.2 1.7-.6 2.5h-1.3v-5.1h1.3c.4.9.6 1.7.6 2.6M167.5 97.2v5.1h-1.3c-.4-.8-.6-1.7-.6-2.5 0-.9.2-1.7.6-2.6z" class="st24"/><g id="Artwork_3_15_"><path d="M75.5 111.9v-2.6h-2.6v2.6zM72.4 111.9v-2.6h-2.6v2.6z" class="st21"/><path d="M71.5 111.8h2.2c.6 0 1.1-.6 1.1-1.1 0-.6-.6-1.1-1.1-1.1h-2.2c-.6 0-1.1.6-1.1 1.1-.1.5.5 1.1 1.1 1.1" class="st22"/><path d="M71.7 109.5h1.7v2.3h-1.7z" class="st20"/></g><g id="Artwork_3_00000072961569590121970880000006428658517445217924_"><path d="M75.5 108.9v-2.6h-2.6v2.6zM72.4 108.9v-2.6h-2.6v2.6z" class="st21"/><path d="M71.5 108.7h2.2c.6 0 1.1-.6 1.1-1.1s-.6-1.1-1.1-1.1h-2.2c-.6 0-1.1.6-1.1 1.1s.5 1.1 1.1 1.1" class="st22"/><path d="M71.7 106.5h1.7v2.3h-1.7z" class="st20"/></g><g id="Artwork_3_00000158027025817191329610000013424536093254892215_"><path d="M75.5 104.8v-2.5h-2.6v2.6zc0 .2 0 0 0 0M72.4 104.8v-2.5h-2.6v2.6zc0 .2 0 0 0 0" class="st21"/><path d="M71.5 104.6h2.2c.6 0 1.1-.6 1.1-1.1s-.6-1.1-1.1-1.1h-2.2c-.6 0-1.1.6-1.1 1.1-.1.7.5 1.1 1.1 1.1" class="st22"/><path d="M71.7 102.5h1.7v2.3h-1.7z" class="st20"/></g><g id="Artwork_3_00000026874325362128799470000016198595195036026795_"><path d="M75.5 101.7v-2.6h-2.6v2.6zM72.4 101.7v-2.6h-2.6v2.6z" class="st21"/><path d="M71.5 101.5h2.2c.6 0 1.1-.6 1.1-1.1 0-.6-.6-1.1-1.1-1.1h-2.2c-.6 0-1.1.6-1.1 1.1-.1.6.5 1.1 1.1 1.1" class="st22"/><path d="M71.7 99.3h1.7v2.3h-1.7z" class="st20"/></g><g id="Artwork_3_00000146494271704411501530000001637084771317164718_"><path d="M82.6 108.9v-2.6H80v2.6zM79.6 108.9v-2.6H77v2.6z" class="st21"/><path d="M78.7 108.7h2.2c.6 0 1.1-.6 1.1-1.1s-.6-1.1-1.1-1.1h-2.2c-.6 0-1.1.6-1.1 1.1s.5 1.1 1.1 1.1" class="st22"/><path d="M78.9 106.5h1.7v2.3h-1.7z" class="st20"/></g><g id="Artwork_3_00000179628170255951370620000007347281941397442184_"><path d="M133.5 38.4v-2.6h-2.6v2.6zM130.5 38.4v-2.6h-2.6v2.6z" class="st21"/><path d="M129.5 38.2h2.2c.6 0 1.1-.6 1.1-1.1s-.6-1.1-1.1-1.1h-2.2c-.6 0-1.1.6-1.1 1.1.2.5.6 1.1 1.1 1.1" class="st22"/><path d="M129.7 35.9h1.7v2.3h-1.7z" class="st20"/></g><g id="Artwork_3_00000159458791403949821990000018254699413411736973_"><path d="M142.8 38.4v-2.6h-2.6v2.6zM139.9 38.4v-2.6h-2.6v2.6zc-.2 0 0 0 0 0" class="st21"/><path d="M139 38.2h2.2c.6 0 1.1-.6 1.1-1.1s-.6-1.1-1.1-1.1H139c-.6 0-1.1.6-1.1 1.1s.3 1.1 1.1 1.1" class="st22"/><path d="M139.2 35.9h1.7v2.3h-1.7z" class="st20"/></g><g id="Artwork_3_00000139264411512120796970000017699373441836973705_"><path d="M168.5 43.3v-2.6h-2.6v2.6zM165.5 43.3v-2.6h-2.6v2.6z" class="st21"/><path d="M164.5 43.1h2.2c.6 0 1.1-.6 1.1-1.1 0-.6-.6-1.1-1.1-1.1h-2.2c-.6 0-1.1.6-1.1 1.1 0 .7.6 1.1 1.1 1.1" class="st22"/><path d="M164.7 40.8h1.7v2.3h-1.7z" class="st20"/></g><g id="Artwork_3_00000181050094288949706750000012344225388387878809_"><path d="M168.5 47.7V45h-2.6v2.6h2.6zM165.5 47.7V45h-2.6v2.6h2.6z" class="st21"/><path d="M164.5 47.5h2.2c.6 0 1.1-.6 1.1-1.1s-.6-1.1-1.1-1.1h-2.2c-.6 0-1.1.6-1.1 1.1s.6 1.1 1.1 1.1" class="st22"/><path d="M164.7 45.2h1.7v2.3h-1.7z" class="st20"/></g><g id="Artwork_3_00000124123141702524759090000009123721096475938443_"><path d="M168.5 51.8v-2.5h-2.6V52zM165.5 51.8v-2.5h-2.6V52z" class="st21"/><path d="M164.5 51.6h2.2c.6 0 1.1-.6 1.1-1.1s-.6-1.1-1.1-1.1h-2.2c-.6 0-1.1.6-1.1 1.1s.6 1.1 1.1 1.1" class="st22"/><path d="M164.7 49.5h1.7v2.3h-1.7z" class="st20"/></g><g id="Artwork_3_00000148640826064698194410000009442478139811527569_"><path d="M168.5 56.2v-2.6h-2.6v2.6zM165.5 56.2v-2.6h-2.6v2.6z" class="st21"/><path d="M164.5 56h2.2c.6 0 1.1-.6 1.1-1.1s-.6-1.1-1.1-1.1h-2.2c-.6 0-1.1.6-1.1 1.1s.6 1.1 1.1 1.1" class="st22"/><path d="M164.7 53.7h1.7V56h-1.7z" class="st20"/></g><g id="Artwork_3_00000041259448619153961120000009821981742766436266_"><path d="M168.5 60.3v-2.6h-2.6v2.6zM165.5 60.3v-2.6h-2.6v2.6z" class="st21"/><path d="M164.5 60.1h2.2c.6 0 1.1-.6 1.1-1.1 0-.6-.6-1.1-1.1-1.1h-2.2c-.6 0-1.1.6-1.1 1.1s.6 1.1 1.1 1.1" class="st22"/><path d="M164.7 58.1h1.7v2.3h-1.7z" class="st20"/></g><g id="Artwork_3_00000147218813804018575670000010474111005113101497_"><path d="M168.5 70.7v-2.6h-2.6v2.6zM165.5 70.7v-2.6h-2.6v2.6z" class="st21"/><path d="M164.5 70.5h2.2c.6 0 1.1-.6 1.1-1.1s-.6-1.1-1.1-1.1h-2.2c-.6 0-1.1.6-1.1 1.1s.6 1.1 1.1 1.1" class="st22"/><path d="M164.7 68.3h1.7v2.3h-1.7z" class="st20"/></g><g id="Artwork_3_00000057836716821078179650000015460369984177847170_"><path d="M168.5 74.9v-2.6h-2.6v2.6zM165.5 74.9v-2.6h-2.6v2.6z" class="st21"/><path d="M164.5 74.7h2.2c.6 0 1.1-.6 1.1-1.1s-.6-1.1-1.1-1.1h-2.2c-.6 0-1.1.6-1.1 1.1s.6 1.1 1.1 1.1" class="st22"/><path d="M164.7 72.4h1.7v2.3h-1.7z" class="st20"/></g><g id="Artwork_3_00000124844866774045545460000011115695909076595082_"><path d="M168.5 79.2v-2.6h-2.6v2.6zM165.5 79.2v-2.6h-2.6v2.6z" class="st21"/><path d="M164.5 79h2.2c.6 0 1.1-.6 1.1-1.1s-.6-1.1-1.1-1.1h-2.2c-.6 0-1.1.6-1.1 1.1s.6 1.1 1.1 1.1" class="st22"/><path d="M164.7 76.8h1.7v2.3h-1.7z" class="st20"/></g><g id="Artwork_3_00000000916653878254563100000016166273546887925687_"><path d="M161.7 79.2v-2.6H159v2.6zM158.8 79.2v-2.6h-2.6v2.6zc-.1 0 0 0 0 0" class="st21"/><path d="M157.9 79h2.2c.6 0 1.1-.6 1.1-1.1s-.6-1.1-1.1-1.1h-2.2c-.6 0-1.1.6-1.1 1.1s.3 1.1 1.1 1.1" class="st22"/><path d="M158.1 76.8h1.7v2.3h-1.7z" class="st20"/></g><g id="Artwork_3_00000080170680534073784680000011306150003173683858_"><path d="M168.5 83.4v-2.6h-2.6v2.6zM165.5 83.4v-2.6h-2.6v2.6z" class="st21"/><path d="M164.5 83.2h2.2c.6 0 1.1-.6 1.1-1.1s-.6-1.1-1.1-1.1h-2.2c-.6 0-1.1.6-1.1 1.1s.6 1.1 1.1 1.1" class="st22"/><path d="M164.7 81.1h1.7v2.3h-1.7z" class="st25"/></g><g id="Artwork_3_00000176044254177801653510000005823642868645034154_"><path d="M263.2 98.5v-2.6h-2.6v2.6zM260.4 98.5v-2.6h-2.6v2.6z" class="st21"/><path d="M259.4 98.3h2.2c.6 0 1.1-.6 1.1-1.1s-.6-1.1-1.1-1.1h-2.2c-.6 0-1.1.6-1.1 1.1s.4 1.1 1.1 1.1" class="st22"/><path d="M259.6 96.1h1.7v2.3h-1.7z" class="st25"/></g><g id="Artwork_3_00000000914098881900759760000007671551848051495308_"><path d="M247.3 50.9v-2.6h-2.6v2.6zc-.1 0 0 0 0 0M244.3 50.9v-2.6h-2.6v2.6z" class="st21"/><path d="M243.4 50.7h2.2c.6 0 1.1-.6 1.1-1.1 0-.6-.6-1.1-1.1-1.1h-2.2c-.6 0-1.1.6-1.1 1.1s.5 1.1 1.1 1.1" class="st22"/><path d="M243.6 48.4h1.7v2.3h-1.7z" class="st25"/></g><g id="Artwork_3_00000083087347990115125010000015232405068355099570_"><path d="M247.3 54.5v-2.6h-2.6v2.6zc-.1 0 0 0 0 0M244.3 54.5v-2.6h-2.6v2.6z" class="st21"/><path d="M243.4 54.3h2.2c.6 0 1.1-.6 1.1-1.1 0-.6-.6-1.1-1.1-1.1h-2.2c-.6 0-1.1.6-1.1 1.1-.1.5.5 1.1 1.1 1.1" class="st22"/><path d="M243.6 52h1.7v2.3h-1.7z" class="st25"/></g><g id="Artwork_3_00000158733421695409461640000005799275482712982200_"><path d="M304.6 107.2v-2.6H302v2.6zM301.8 107.2v-2.6h-2.6v2.6z" class="st21"/><path d="M300.9 107h2.2c.6 0 1.1-.6 1.1-1.1s-.6-1.1-1.1-1.1h-2.2c-.6 0-1.1.6-1.1 1.1s.5 1.1 1.1 1.1" class="st22"/><path d="M301.1 104.8h1.7v2.3h-1.7z" class="st25"/></g><g id="Artwork_3_00000039128913133380953390000011285471428038708152_"><path d="M304.6 111v-2.6H302v2.6zM301.8 111v-2.6h-2.6v2.6z" class="st21"/><path d="M300.9 110.8h2.2c.6 0 1.1-.6 1.1-1.1s-.6-1.1-1.1-1.1h-2.2c-.6 0-1.1.6-1.1 1.1s.5 1.1 1.1 1.1" class="st22"/><path d="M301.1 108.5h1.7v2.3h-1.7z" class="st25"/></g><g id="Artwork_3_00000048497179496034239430000004526525663245445787_"><path d="M161.7 74.9v-2.6H159v2.6zM158.8 74.9v-2.6h-2.6v2.6z" class="st21"/><path d="M157.9 74.7h2.2c.6 0 1.1-.6 1.1-1.1s-.6-1.1-1.1-1.1h-2.2c-.6 0-1.1.6-1.1 1.1s.3 1.1 1.1 1.1" class="st22"/><path d="M158.1 72.4h1.7v2.3h-1.7z" class="st25"/></g><g id="Artwork_3_00000021824285749880938600000013989348589387917489_"><path d="M161.7 87.7v-2.6H159v2.6zM158.8 87.7v-2.6h-2.6v2.6z" class="st21"/><path d="M157.9 87.6h2.2c.6 0 1.1-.6 1.1-1.1s-.6-1.1-1.1-1.1h-2.2c-.6 0-1.1.6-1.1 1.1s.3 1.1 1.1 1.1" class="st22"/><path d="M158.1 85.3h1.7v2.3h-1.7z" class="st25"/></g><g id="Artwork_3_00000183228030797650218130000015623642432051596939_"><path d="M168.5 87.7v-2.6h-2.6v2.6zM165.5 87.7v-2.6h-2.6v2.6z" class="st21"/><path d="M164.5 87.6h2.2c.6 0 1.1-.6 1.1-1.1s-.6-1.1-1.1-1.1h-2.2c-.6 0-1.1.6-1.1 1.1s.6 1.1 1.1 1.1" class="st22"/><path d="M164.7 85.3h1.7v2.3h-1.7z" class="st20"/></g><g id="Artwork_3_00000157295446158511260870000012672990011721740194_"><path d="M185.7 112.1v-2.6h-2.6v2.6zM182.9 112.1v-2.6h-2.6v2.6z" class="st21"/><path d="M181.9 111.9h2.2c.6 0 1.1-.6 1.1-1.1s-.6-1.1-1.1-1.1h-2.2c-.6 0-1.1.6-1.1 1.1s.5 1.1 1.1 1.1" class="st22"/><path d="M182.1 109.7h1.7v2.3h-1.7z" class="st20"/></g><g id="Artwork_3_00000026845779318377112090000012317478954015307665_"><path d="M210.8 107.2v-2.6h-2.6v2.6zM208 107.2v-2.6h-2.6v2.6z" class="st21"/><path d="M207.1 107h2.2c.6 0 1.1-.6 1.1-1.1s-.6-1.1-1.1-1.1h-2.2c-.6 0-1.1.6-1.1 1.1s.5 1.1 1.1 1.1" class="st22"/><path d="M207.3 104.8h1.7v2.3h-1.7z" class="st20"/></g><g id="Artwork_3_00000132087097700377327760000017379436272466075055_"><path d="M247.3 35v-2.6h-2.6V35zM244.3 35v-2.6h-2.6V35z" class="st21"/><path d="M243.4 34.8h2.2c.6 0 1.1-.6 1.1-1.1 0-.6-.6-1.1-1.1-1.1h-2.2c-.6 0-1.1.6-1.1 1.1s.5 1.1 1.1 1.1" class="st22"/><path d="M243.6 32.5h1.7v2.3h-1.7z" class="st20"/></g><g id="Artwork_3_00000060728406070815637380000014351236919824989590_"><path d="M247.3 38.6V36h-2.6v2.6zM244.3 38.6V36h-2.6v2.6z" class="st21"/><path d="M243.4 38.4h2.2c.6 0 1.1-.6 1.1-1.1 0-.6-.6-1.1-1.1-1.1h-2.2c-.6 0-1.1.6-1.1 1.1s.5 1.1 1.1 1.1" class="st22"/><path d="M243.6 36.1h1.7v2.3h-1.7z" class="st20"/></g><g id="Artwork_3_00000132805401227491750390000011757441298962025132_"><path d="M247.3 42.4v-2.6h-2.6v2.6zM244.3 42.4v-2.6h-2.6v2.6z" class="st21"/><path d="M243.4 42.2h2.2c.6 0 1.1-.6 1.1-1.1 0-.6-.6-1.1-1.1-1.1h-2.2c-.6 0-1.1.6-1.1 1.1s.5 1.1 1.1 1.1" class="st22"/><path d="M243.6 39.9h1.7v2.3h-1.7z" class="st20"/></g><g id="Artwork_3_00000012449002164302355550000002651601814338720649_"><path d="M144.3 31v-2.6h-2.6V31zM141.3 31v-2.6h-2.6V31z" class="st21"/></g><g id="Artwork_3_00000093143797906043544910000016726443562267884472_"><path d="M259.3 81.1v-2.6h-2.6v2.6zM256.2 81.1v-2.6h-2.6v2.6z" class="st21"/></g><g id="Artwork_3_00000041999891867196284980000001822756572696025526_"><path d="M251.9 81.1v-2.6h-2.6v2.6zM248.9 81.1v-2.6h-2.6v2.6z" class="st21"/></g><g id="Artwork_3_00000154416587543154046840000002871928002169944509_"><path d="M241.7 69.6h2.6V67h-2.6zM241.7 66.8h2.6v-2.6h-2.6z" class="st21"/></g><g id="Artwork_3_00000011750640062931731640000014528056615790477759_"><path d="M241.7 63.5h2.6v-2.6h-2.6zc0-.2 0 0 0 0M241.7 60.5h2.6v-2.6h-2.6z" class="st21"/></g><g id="Artwork_3_00000181083850145763036210000001433146400958178433_"><path d="M144.3 26.7V24h-2.6v2.6h2.6zM141.3 26.7V24h-2.6v2.6h2.6z" class="st21"/></g><g id="Artwork_3_00000126323108818827389390000000732931590101235365_"><path d="M75.1 88.1h2.6v-2.6h-2.6zM75.1 85.1h2.6v-2.6h-2.6z" class="st21"/><path d="M75.3 84.2v2.2c0 .6.6 1.1 1.1 1.1.6 0 1.1-.6 1.1-1.1v-2.2c0-.6-.6-1.1-1.1-1.1-.6-.1-1.1.5-1.1 1.1" class="st22"/><path d="M75.3 84.5h2.3v1.7h-2.3z" class="st20"/></g><g id="Artwork_3_00000152234891069300887530000013328454899524216497_"><path d="M71.3 88.1h2.6v-2.6h-2.6zM71.3 85.1h2.6v-2.6h-2.6z" class="st21"/><path d="M71.5 84.2v2.2c0 .6.6 1.1 1.1 1.1.6 0 1.1-.6 1.1-1.1v-2.2c0-.6-.6-1.1-1.1-1.1-.6-.1-1.1.5-1.1 1.1" class="st22"/><path d="M71.5 84.5h2.3v1.7h-2.3z" class="st20"/></g><g id="Artwork_3_00000159435999970550986240000016981711758651591848_"><path d="M76.2 80.4h2.6v-2.6h-2.6zM76.2 77.5h2.6v-2.6h-2.6z" class="st21"/><path d="M76.4 76.6v2.2c0 .6.6 1.1 1.1 1.1.6 0 1.1-.6 1.1-1.1v-2.2c0-.6-.6-1.1-1.1-1.1-.7 0-1.1.3-1.1 1.1" class="st22"/><path d="M76.2 76.8h2.3v1.7h-2.3z" class="st20"/></g><g id="Artwork_3_00000149379468629594230720000011783248456071934622_"><path d="M112.3 46.7h2.6v-2.6h-2.6zM112.3 43.9h2.6v-2.6h-2.6z" class="st21"/><path d="M112.5 42.9v2.2c0 .6.6 1.1 1.1 1.1s1.1-.6 1.1-1.1v-2.2c0-.6-.6-1.1-1.1-1.1-.7 0-1.1.6-1.1 1.1" class="st22"/><path d="M112.3 43.1h2.3v1.7h-2.3z" class="st20"/></g><g id="Artwork_3_00000130612703455171813030000002867160649542455738_"><path d="M221.4 30.6h2.6V28h-2.6zc0-.2 0 0 0 0M221.4 27.6h2.6V25h-2.6z" class="st21"/><path d="M221.6 26.7v2.2c0 .6.6 1.1 1.1 1.1.6 0 1.1-.6 1.1-1.1v-2.2c0-.6-.6-1.1-1.1-1.1-.7-.1-1.1.5-1.1 1.1" class="st22"/><path d="M221.6 26.9h2.3v1.7h-2.3z" class="st20"/></g><g id="Artwork_3_00000020358623541814876000000005334406247795237796_"><path d="M302.2 30.4h2.6v-2.6h-2.6zM302.2 27.6h2.6V25h-2.6z" class="st21"/><path d="M302.4 26.7v2.2c0 .6.6 1.1 1.1 1.1.6 0 1.1-.6 1.1-1.1v-2.2c0-.6-.6-1.1-1.1-1.1-.7-.1-1.1.5-1.1 1.1" class="st22"/><path d="M302.4 26.9h2.3v1.7h-2.3z" class="st20"/></g><g id="Artwork_3_00000036253085340814568760000007654191269438628522_"><path d="M241.5 78.5h2.6v-2.6h-2.6zq-.3 0 0 0M241.5 75.6h2.6V73h-2.6zq-.3 0 0 0" class="st21"/><path d="M241.5 74.7V77c0 .6.6 1.1 1.1 1.1.6 0 1.1-.6 1.1-1.1v-2.2c0-.6-.6-1.1-1.1-1.1-.5-.1-1.1.2-1.1 1" class="st22"/><path d="M241.5 74.9h2.3v1.7h-2.3z" class="st20"/></g><g id="Artwork_3_00000157287126787104422760000017492394579850229427_"><path d="M124.2 99.7h2.6V97h-2.6zc-.1 0 0 0 0 0M124.2 96.6h2.6V94h-2.6zc-.1 0 0 0 0 0" class="st21"/><path d="M124.4 95.7V98c0 .6.6 1.1 1.1 1.1s1.1-.6 1.1-1.1v-2.2c0-.6-.6-1.1-1.1-1.1-.7-.1-1.1.4-1.1 1" class="st22"/><path d="M124.2 96.1h2.3v1.7h-2.3z" class="st20"/></g><g id="Artwork_3_00000098207484158071906470000006922665844330407086_"><path d="M125.4 66.4h2.6v-2.6h-2.6zq-.3 0 0 0M125.4 63.5h2.6v-2.6h-2.6zq-.3 0 0 0" class="st21"/><path d="M125.6 62.6v2.2c0 .6.6 1.1 1.1 1.1s1.1-.6 1.1-1.1v-2.2c0-.6-.6-1.1-1.1-1.1-.8 0-1.1.3-1.1 1.1" class="st22"/><path d="M125.4 62.8h2.3v1.7h-2.3z" class="st20"/></g><g id="Artwork_3_00000077287202445477001670000003052801782745535928_"><path d="M135.6 99.7h2.6V97h-2.6zM135.6 96.6h2.6V94h-2.6z" class="st21"/><path d="M135.8 95.7V98c0 .6.6 1.1 1.1 1.1s1.1-.6 1.1-1.1v-2.2c0-.6-.6-1.1-1.1-1.1s-1.1.4-1.1 1" class="st22"/><path d="M135.8 96.1h2.3v1.7h-2.3z" class="st20"/></g><g id="Artwork_3_00000075129395119203544250000000143147584750104761_"><path d="M143.3 99.7h2.6V97h-2.6zM143.3 96.6h2.6V94h-2.6z" class="st21"/><path d="M143.5 95.7V98c0 .6.6 1.1 1.1 1.1s1.1-.6 1.1-1.1v-2.2c0-.6-.6-1.1-1.1-1.1-.7-.1-1.1.4-1.1 1" class="st22"/><path d="M143.3 96.1h2.3v1.7h-2.3z" class="st20"/></g><g id="Artwork_3_00000049932669287653579460000013671946232050877831_"><path d="M147.1 99.7h2.6V97h-2.6zM147.1 96.6h2.6V94h-2.6z" class="st21"/><path d="M147.3 95.7V98c0 .6.6 1.1 1.1 1.1s1.1-.6 1.1-1.1v-2.2c0-.6-.6-1.1-1.1-1.1s-1.1.4-1.1 1" class="st22"/><path d="M147.3 96.1h2.3v1.7h-2.3z" class="st20"/></g><g id="Artwork_3_00000045606225845344229370000009259628395210901173_"><path d="M72.4 80.4H75v-2.6h-2.6zM72.4 77.5H75v-2.6h-2.6z" class="st21"/><path d="M72.6 76.6v2.2c0 .6.6 1.1 1.1 1.1.6 0 1.1-.6 1.1-1.1v-2.2c0-.6-.6-1.1-1.1-1.1-.7 0-1.1.3-1.1 1.1" class="st22"/><path d="M72.6 76.8h2.3v1.7h-2.3z" class="st20"/></g><g id="Artwork_3_00000093169634041845384390000009408042427539077054_"><path d="M72.4 61.8H75v-2.6h-2.6zM72.4 59H75v-2.6h-2.6z" class="st21"/><path d="M72.6 58.1v2.2c0 .6.6 1.1 1.1 1.1.6 0 1.1-.6 1.1-1.1v-2.2c0-.6-.6-1.1-1.1-1.1-.7-.1-1.1.5-1.1 1.1" class="st22"/><path d="M72.6 58.2h2.3v1.7h-2.3z" class="st20"/></g><g id="Artwork_3_00000147910521260387626050000014573768320574345662_"><path d="M58.2 61.8h2.6v-2.6h-2.6zM58.2 59h2.6v-2.6h-2.6z" class="st21"/><path d="M58.4 58.1v2.2c0 .6.6 1.1 1.1 1.1.6 0 1.1-.6 1.1-1.1v-2.2c0-.6-.6-1.1-1.1-1.1-.7-.1-1.1.5-1.1 1.1" class="st22"/><path d="M58.4 58.2h2.3v1.7h-2.3z" class="st20"/></g><g id="Artwork_3_00000092452523058489842540000018342087749881942912_"><path d="M58.2 67.9h2.6v-2.6h-2.6zM58.2 65.1h2.6v-2.6h-2.6z" class="st21"/><path d="M58.4 64.1v2.2c0 .6.6 1.1 1.1 1.1.6 0 1.1-.6 1.1-1.1v-2.2c0-.6-.6-1.1-1.1-1.1-.7 0-1.1.3-1.1 1.1" class="st22"/><path d="M58.4 64.3h2.3V66h-2.3z" class="st20"/></g><g id="Artwork_3_00000166666365287795778180000009298422923361340559_"><path d="M68.8 80.4h2.6v-2.6h-2.6zM68.8 77.5h2.6v-2.6h-2.6z" class="st21"/><path d="M69 76.6v2.2c0 .6.6 1.1 1.1 1.1s1.1-.6 1.1-1.1v-2.2c0-.6-.6-1.1-1.1-1.1s-1.1.3-1.1 1.1" class="st22"/><path d="M69 76.8h2.3v1.7H69z" class="st20"/></g><g id="Artwork_3_00000093146980326960837960000006048014076698108073_"><path d="M44.2 81.3h2.6v-2.6h-2.6zM44.2 78.5h2.6v-2.6h-2.6zc0-.2 0 0 0 0" class="st21"/><path d="M44.4 77.5v2.2c0 .6.6 1.1 1.1 1.1.6 0 1.1-.6 1.1-1.1v-2.2c0-.6-.6-1.1-1.1-1.1s-1.1.4-1.1 1.1" class="st22"/><path d="M44.4 77.7h2.3v1.7h-2.3z" class="st20"/></g><g id="Artwork_3_00000072970333577142660500000010887570902761893295_"><path d="M40.8 81.3h2.6v-2.6h-2.6zq-.15 0 0 0M40.8 78.5h2.6v-2.6h-2.6zc-.1-.2-.1 0 0 0" class="st21"/><path d="M40.8 77.5v2.2c0 .6.6 1.1 1.1 1.1.6 0 1.1-.6 1.1-1.1v-2.2c0-.6-.6-1.1-1.1-1.1s-1.1.4-1.1 1.1" class="st22"/><path d="M40.8 77.7h2.3v1.7h-2.3z" class="st20"/></g><g id="Artwork_3_00000050620637403696090010000000843842826147452048_"><path d="M37.4 109.1v-2.6h-2.6v2.6zM34.4 109.1v-2.6h-2.6v2.6z" class="st21"/><path d="M33.5 108.9h2.2c.6 0 1.1-.6 1.1-1.1s-.6-1.1-1.1-1.1h-2.2c-.6 0-1.1.6-1.1 1.1.1.6.5 1.1 1.1 1.1" class="st22"/><path d="M33.7 106.7h1.7v2.3h-1.7z" class="st20"/></g><g id="Artwork_3_00000005969847202352508130000003312025863003321263_"><path d="M37.4 112.5v-2.6h-2.6v2.6zM34.4 112.5v-2.6h-2.6v2.6z" class="st21"/><path d="M33.5 112.3h2.2c.6 0 1.1-.6 1.1-1.1s-.6-1.1-1.1-1.1h-2.2c-.6 0-1.1.6-1.1 1.1s.5 1.1 1.1 1.1" class="st22"/><path d="M33.7 110.1h1.7v2.3h-1.7z" class="st20"/></g><g id="Artwork_3_63_"><path d="M8.9 22.3H6.2v2.5h2.6v-2.5zM8.9 25.2H6.2v2.6h2.6v-2.6z" class="st21"/><path d="M8.7 26.1v-2.2c0-.6-.6-1.1-1.1-1.1s-1.1.6-1.1 1.1v2.2c0 .6.6 1.1 1.1 1.1.7 0 1.1-.5 1.1-1.1" class="st22"/><path d="M6.4 24.2h2.3v1.7H6.4z" class="st23"/></g><g id="Artwork_3_00000142855248761796394820000017852839441384592527_"><path d="M13.4 22.3h-2.6v2.5h2.6zM13.4 25.2h-2.6v2.6h2.6z" class="st21"/><path d="M13.2 26.1v-2.2c0-.6-.6-1.1-1.1-1.1s-1.1.5-1.1 1v2.3c0 .6.6 1.1 1.1 1.1s1.1-.5 1.1-1.1" class="st22"/><path d="M11 24.2h2.3v1.7H11z" class="st23"/></g><g id="Artwork_3_00000051361166857797656720000009218074968393480609_"><path d="M17.6 22.3H15v2.5h2.6zM17.6 25.2H15v2.6h2.6z" class="st21"/><path d="M17.4 26.1v-2.2c0-.6-.6-1.1-1.1-1.1s-1.1.6-1.1 1.1v2.2c0 .6.6 1.1 1.1 1.1s1.1-.5 1.1-1.1" class="st22"/><path d="M15.1 24.2h2.3v1.7h-2.3z" class="st23"/></g><g id="Artwork_3_00000163793211950088465170000005785742634601924280_"><path d="M78.7 56.4H76V59h2.6v-2.6zM78.7 59.2H76v2.6h2.6v-2.6c.3.2.3 0 .1 0" class="st21"/><path d="M78.5 60.3v-2.2c0-.6-.6-1.1-1.1-1.1-.6 0-1.1.6-1.1 1.1v2.2c0 .6.6 1.1 1.1 1.1.7-.1 1.1-.5 1.1-1.1" class="st22"/><path d="M76.2 58.4h2.3v1.7h-2.3z" class="st23"/></g><g id="Artwork_3_00000047782334261993423520000014164556133559145879_"><path d="M114.8 35h-2.6v2.6h2.6zc.2 0 0 0 0 0M114.8 38h-2.6v2.6h2.6zc.2 0 0 0 0 0" class="st21"/><path d="M114.6 39v-2.2c0-.6-.6-1.1-1.1-1.1s-1.1.6-1.1 1.1V39c0 .6.6 1.1 1.1 1.1s1.1-.6 1.1-1.1" class="st22"/><path d="M112.3 37.1h2.3v1.7h-2.3z" class="st23"/></g><g id="Artwork_3_00000080170993986078281330000014919447754802710437_"><path d="M130.7 94H128v2.6h2.6V94zM130.7 96.8H128v2.6h2.6v-2.6c.1.2.1 0 .1 0" class="st21"/><path d="M130.5 97.8v-2.2c0-.6-.6-1.1-1.1-1.1s-1.1.6-1.1 1.1v2.2c0 .6.6 1.1 1.1 1.1s1.1-.4 1.1-1.1" class="st22"/><path d="M128.2 95.9h2.3v1.7h-2.3z" class="st23"/></g><g id="Artwork_3_00000165226124832708804650000012033381077122833564_"><path d="M134.5 94h-2.6v2.6h2.6zM134.5 96.8h-2.6v2.6h2.6zc0 .2 0 0 0 0" class="st21"/><path d="M134.3 97.8v-2.2c0-.6-.6-1.1-1.1-1.1s-1.1.6-1.1 1.1v2.2c0 .6.6 1.1 1.1 1.1s1.1-.4 1.1-1.1" class="st22"/><path d="M132 95.9h2.3v1.7H132z" class="st23"/></g><g id="Artwork_3_00000008111282657832031790000001883256027466466954_"><path d="M142 94h-2.6v2.6h2.6zM142 96.8h-2.6v2.6h2.6zc0 .2 0 0 0 0" class="st21"/><path d="M141.8 97.8v-2.2c0-.6-.6-1.1-1.1-1.1s-1.1.6-1.1 1.1v2.2c0 .6.6 1.1 1.1 1.1.7 0 1.1-.4 1.1-1.1" class="st22"/><path d="M139.6 95.9h2.3v1.7h-2.3z" class="st23"/></g><g id="Artwork_3_00000018923584848496518810000014833394379526490260_"><path d="M142.6 60.9H140v2.6h2.6zM142.6 63.7H140v2.6h2.6z" class="st21"/><path d="M142.4 64.7v-2.2c0-.6-.6-1.1-1.1-1.1s-1.1.6-1.1 1.1v2.2c0 .6.6 1.1 1.1 1.1s1.1-.6 1.1-1.1" class="st22"/><path d="M140.1 62.8h2.3v1.7h-2.3z" class="st23"/></g><g id="Artwork_3_00000047776193147474991050000002513960045843043223_"><path d="M207.6 25H205v2.6h2.6zM207.6 28H205v2.6h2.6z" class="st21"/><path d="M207.4 28.9v-2.2c0-.6-.6-1.1-1.1-1.1-.6 0-1.1.6-1.1 1.1v2.2c0 .6.6 1.1 1.1 1.1.8-.1 1.1-.5 1.1-1.1" class="st22"/><path d="M205.2 27h2.3v1.7h-2.3z" class="st23"/></g><g id="Artwork_3_00000075123430550133543700000017115452553857033645_"><path d="M211.2 25h-2.6v2.6h2.6zq.3 0 0 0M211.2 28h-2.6v2.5h2.6zq.3 0 0 0" class="st21"/><path d="M211.2 28.9v-2.2c0-.6-.6-1.1-1.1-1.1s-1.1.6-1.1 1.1v2.2c0 .6.6 1.1 1.1 1.1.6.1 1.1-.5 1.1-1.1" class="st22"/><path d="M209 27h2.3v1.7H209z" class="st23"/></g><g id="Artwork_3_00000041979257907767831880000015903319768604359327_"><path d="M292.2 24.8h-2.6v2.6h2.6zc0 .2 0 0 0 0M292.2 27.8h-2.6v2.6h2.6z" class="st21"/><path d="M292 28.7v-2.2c0-.6-.6-1.1-1.1-1.1s-1.1.6-1.1 1.1v2.2c0 .6.6 1.1 1.1 1.1.7.1 1.1-.5 1.1-1.1" class="st22"/><path d="M289.7 26.9h2.3v1.7h-2.3z" class="st23"/></g><g id="Artwork_3_00000126291050077018788080000017351143431783810695_"><path d="M300.5 24.8h-2.6v2.6h2.6zc0 .2 0 0 0 0M300.5 27.8h-2.6v2.6h2.6z" class="st21"/><path d="M300.3 28.7v-2.2c0-.6-.6-1.1-1.1-1.1-.6 0-1.1.6-1.1 1.1v2.2c0 .6.6 1.1 1.1 1.1.7.1 1.1-.5 1.1-1.1" class="st22"/><path d="M298 26.9h2.3v1.7H298z" class="st23"/></g><g id="Artwork_3_00000175304000676178256560000015019574317387652794_"><path d="M139 60.9h-2.6v2.6h2.6zM139 63.7h-2.6v2.6h2.6z" class="st21"/><path d="M138.8 64.7v-2.2c0-.6-.6-1.1-1.1-1.1-.6 0-1.1.6-1.1 1.1v2.2c0 .6.6 1.1 1.1 1.1s1.1-.6 1.1-1.1" class="st22"/><path d="M136.5 62.8h2.3v1.7h-2.3z" class="st23"/></g><g id="Artwork_3_00000077319058455850278230000006803673070212454319_"><path d="M129.5 104.2h-2.6v2.6h2.6zM129.5 107h-2.6v2.6h2.6z" class="st21"/><path d="M129.3 108v-2.2c0-.6-.6-1.1-1.1-1.1-.6 0-1.1.6-1.1 1.1v2.2c0 .6.6 1.1 1.1 1.1.6 0 1.1-.4 1.1-1.1" class="st22"/><path d="M127.1 106.1h2.3v1.7h-2.3z" class="st23"/></g><g id="Artwork_3_00000018207505010937580320000005992328321808499886_"><path d="M67.7 74.9h-2.6v2.6h2.6zM67.7 77.7h-2.6v2.6h2.6z" class="st21"/><path d="M67.5 78.7v-2.2c0-.6-.6-1.1-1.1-1.1s-1.1.6-1.1 1.1v2.2c0 .6.6 1.1 1.1 1.1s1.1-.6 1.1-1.1" class="st22"/><path d="M65.2 76.8h2.3v1.7h-2.3z" class="st23"/></g><g id="Artwork_3_00000039118387120866877560000001187653454141621926_"><path d="M63.9 74.9h-2.6v2.6h2.6zM63.9 77.7h-2.6v2.6h2.6z" class="st21"/><path d="M63.7 78.7v-2.2c0-.6-.6-1.1-1.1-1.1-.6 0-1.1.6-1.1 1.1v2.2c0 .6.6 1.1 1.1 1.1.6 0 1.1-.6 1.1-1.1" class="st22"/><path d="M61.5 76.8h2.3v1.7h-2.3z" class="st23"/></g><g id="Artwork_3_00000085231437425554199770000012882592822160154552_"><path d="M39.5 75.6h-2.6v2.6h2.6zc0 .2 0 0 0 0M39.5 78.7h-2.6v2.6h2.6z" class="st21"/><path d="M39.3 79.6v-2.2c0-.6-.6-1.1-1.1-1.1-.6 0-1.1.6-1.1 1.1v2.2c0 .6.6 1.1 1.1 1.1.6 0 1.1-.5 1.1-1.1" class="st22"/><path d="M37.1 77.7h2.3v1.7h-2.3z" class="st23"/></g><g id="Artwork_3_00000061464415555206079460000009474357843466834607_"><path d="M28.7 98.5v-2.6h-2.6v2.6zc-.1 0 0 0 0 0M25.7 98.5v-2.6h-2.6v2.6z" class="st21"/><path d="M24.8 98.3H27c.6 0 1.1-.6 1.1-1.1s-.6-1.1-1.1-1.1h-2.2c-.6 0-1.1.6-1.1 1.1s.5 1.1 1.1 1.1" class="st22"/><path d="M25 96.1h1.7v2.3H25z" class="st23"/></g><g id="Artwork_3_00000035506889426986632170000011926209053547346827_"><path d="M47.8 32.9v-2.6h-2.6v2.6zM45 32.9v-2.6h-2.6v2.6z" class="st21"/><path d="M44.1 32.7h2.2c.6 0 1.1-.6 1.1-1.1 0-.6-.6-1.1-1.1-1.1h-2.2c-.6 0-1.1.6-1.1 1.1s.5 1.1 1.1 1.1" class="st22"/><path d="M44.2 30.4h1.7v2.3h-1.7z" class="st23"/></g><g id="Artwork_3_00000116205553091468642470000017380593442816909725_"><path d="M47.8 36.5v-2.6h-2.6v2.6zM45 36.5v-2.6h-2.6v2.6z" class="st21"/><path d="M44.1 36.3h2.2c.6 0 1.1-.6 1.1-1.1s-.5-1.2-1.1-1.2h-2.2c-.6 0-1.1.6-1.1 1.1-.1.8.5 1.2 1.1 1.2" class="st22"/><path d="M44.2 34.2h1.7v2.3h-1.7z" class="st23"/></g><g id="Artwork_3_00000045598083757488531560000014532825643308728478_"><path d="M118.6 88.7V86H116v2.6h2.6zM115.7 88.7V86h-2.6v2.6h2.6z" class="st21"/><path d="M114.8 88.5h2.2c.6 0 1.1-.6 1.1-1.1 0-.6-.6-1.1-1.1-1.1h-2.2c-.6 0-1.1.6-1.1 1.1s.5 1.1 1.1 1.1" class="st22"/><path d="M115 86.4h1.7v2.3H115z" class="st23"/></g><g id="Artwork_3_00000134951883928544702550000005637257059015433148_"><path d="M108.9 108.2v-2.6h-2.6v2.6zq0 .3 0 0M105.9 108.2v-2.6h-2.6v2.6zq0 .3 0 0" class="st21"/><path d="M105 108.2h2.2c.6 0 1.1-.6 1.1-1.1s-.6-1.1-1.1-1.1H105c-.6 0-1.1.6-1.1 1.1-.1.5.5 1.1 1.1 1.1" class="st22"/><path d="M105.1 105.9h1.7v2.3h-1.7z" class="st23"/></g><g id="Artwork_3_00000028298634562867803860000011267826235457541041_"><path d="M108.9 104.4v-2.6h-2.6v2.6zM105.9 104.4v-2.6h-2.6v2.6z" class="st21"/><path d="M105 104.2h2.2c.6 0 1.1-.6 1.1-1.1 0-.6-.6-1.1-1.1-1.1H105c-.6 0-1.1.6-1.1 1.1-.1.5.5 1.1 1.1 1.1" class="st22"/><path d="M105.1 101.9h1.7v2.3h-1.7z" class="st23"/></g><g id="Artwork_3_00000000912204443450077850000005749735200556918951_"><path d="M118.6 85.1v-2.6H116v2.6zM115.7 85.1v-2.6h-2.6v2.6z" class="st21"/><path d="M114.8 84.9h2.2c.6 0 1.1-.6 1.1-1.1s-.6-1.1-1.1-1.1h-2.2c-.6 0-1.1.6-1.1 1.1s.5 1.1 1.1 1.1" class="st22"/><path d="M115 82.6h1.7v2.3H115z" class="st23"/></g><g id="Artwork_3_00000018217273857571398030000006495731596961422479_"><path d="M118.6 81.3v-2.6H116v2.6zM115.7 81.3v-2.6h-2.6v2.6z" class="st21"/><path d="M114.8 81.1h2.2c.6 0 1.1-.6 1.1-1.1s-.6-1.1-1.1-1.1h-2.2c-.6 0-1.1.6-1.1 1.1s.5 1.1 1.1 1.1" class="st22"/><path d="M115 78.9h1.7v2.3H115z" class="st23"/></g><g id="Artwork_3_00000152228574243495609350000016465789075228957090_"><path d="M118.6 77.5v-2.6H116v2.6zM115.7 77.5v-2.6h-2.6v2.6z" class="st21"/><path d="M114.8 77.3h2.2c.6 0 1.1-.6 1.1-1.1s-.6-1.1-1.1-1.1h-2.2c-.6 0-1.1.6-1.1 1.1s.5 1.1 1.1 1.1" class="st22"/><path d="M115 75.1h1.7v2.3H115z" class="st23"/></g><g id="Artwork_3_00000062879244585285992500000008128984948614738613_"><path d="M118.6 73.8v-2.6H116v2.6zM115.7 73.8v-2.6h-2.6v2.6z" class="st21"/><path d="M114.8 73.6h2.2c.6 0 1.1-.6 1.1-1.1s-.6-1.1-1.1-1.1h-2.2c-.6 0-1.1.6-1.1 1.1s.5 1.1 1.1 1.1" class="st22"/><path d="M115 71.3h1.7v2.3H115z" class="st23"/></g><g id="Artwork_3_00000069388575205832153580000003313866978359074227_"><path d="M118.6 70v-2.6H116V70zM115.7 70v-2.6h-2.6V70z" class="st21"/><path d="M114.8 69.8h2.2c.6 0 1.1-.6 1.1-1.1 0-.6-.6-1.1-1.1-1.1h-2.2c-.6 0-1.1.6-1.1 1.1s.5 1.1 1.1 1.1" class="st22"/><path d="M115 67.5h1.7v2.3H115z" class="st23"/></g><g id="Artwork_3_00000039106026875999985220000005776467826101122946_"><path d="M118.6 66.2v-2.6H116v2.6zM115.7 66.2v-2.6h-2.6v2.6z" class="st21"/><path d="M114.8 66h2.2c.6 0 1.1-.6 1.1-1.1 0-.6-.6-1.1-1.1-1.1h-2.2c-.6 0-1.1.6-1.1 1.1s.5 1.1 1.1 1.1" class="st22"/><path d="M115 63.9h1.7v2.3H115z" class="st23"/></g><g id="Artwork_3_00000176759086863315439370000012902578790664627587_"><path d="M118.6 62.4v-2.6H116v2.6zc0 .2 0 0 0 0M115.7 62.4v-2.6h-2.6v2.6zc0 .2 0 0 0 0" class="st21"/><path d="M114.8 62.2h2.2c.6 0 1.1-.6 1.1-1.1 0-.6-.6-1.1-1.1-1.1h-2.2c-.6 0-1.1.6-1.1 1.1 0 .7.5 1.1 1.1 1.1" class="st22"/><path d="M115 60.1h1.7v2.3H115z" class="st23"/></g><g id="Artwork_3_00000091704180082012770670000008220313353493242015_"><path d="M102.7 52v-2.6H100V52zc-.2 0 0 0 0 0M99.7 52v-2.6H97V52z" class="st21"/><path d="M98.7 51.8h2.2c.6 0 1.1-.6 1.1-1.1 0-.6-.6-1.1-1.1-1.1h-2.2c-.6 0-1.1.6-1.1 1.1s.5 1.1 1.1 1.1" class="st22"/><path d="M98.9 49.5h1.7v2.3h-1.7z" class="st23"/></g><g id="Artwork_3_00000140010387484185346000000001999545085762121356_"><path d="M28.7 101.9v-2.6h-2.6v2.6zc-.1 0 0 0 0 0M25.7 101.9v-2.6h-2.6v2.6z" class="st21"/><path d="M24.8 101.7H27c.6 0 1.1-.6 1.1-1.1s-.6-1.1-1.1-1.1h-2.2c-.6 0-1.1.6-1.1 1.1s.5 1.1 1.1 1.1" class="st22"/><path d="M25 99.5h1.7v2.3H25z" class="st23"/></g><g id="Artwork_3_00000072242467300643355250000009768767149106744217_"><path d="M28.7 106.1v-2.6h-2.6v2.6zc-.1 0 0 0 0 0M25.7 106.1v-2.6h-2.6v2.6z" class="st21"/><path d="M24.8 105.9H27c.6 0 1.1-.6 1.1-1.1 0-.6-.6-1.1-1.1-1.1h-2.2c-.6 0-1.1.6-1.1 1.1-.1.5.5 1.1 1.1 1.1" class="st22"/><path d="M25 103.6h1.7v2.3H25z" class="st23"/></g><g id="Artwork_3_00000104678300046492036780000013322816418016294784_"><path d="M28.7 108.9v-2.6h-2.6v2.6zc-.1 0 0 0 0 0M25.7 108.9v-2.6h-2.6v2.6z" class="st21"/><path d="M24.8 108.7H27c.6 0 1.1-.6 1.1-1.1s-.6-1.1-1.1-1.1h-2.2c-.6 0-1.1.6-1.1 1.1s.5 1.1 1.1 1.1" class="st22"/><path d="M25 106.5h1.7v2.3H25z" class="st23"/></g><g id="Artwork_3_00000070120272997909871010000010376327846477093049_"><path d="M28.7 112.7v-2.6h-2.6v2.6zc-.1.2 0 .2 0 0M25.7 112.7v-2.6h-2.6v2.6zq0 .3 0 0" class="st21"/><path d="M24.8 112.7H27c.6 0 1.1-.6 1.1-1.1s-.6-1.1-1.1-1.1h-2.2c-.6 0-1.1.6-1.1 1.1s.5 1.1 1.1 1.1" class="st22"/><path d="M25 110.4h1.7v2.3H25z" class="st23"/></g><g id="Artwork_3_00000143577693466327582710000016681338490937353612_"><path d="M37.4 105.3v-2.6h-2.6v2.6zq0 .3 0 0M34.4 105.3v-2.6h-2.6v2.6zq0 .3 0 0" class="st21"/><path d="M33.5 105.3h2.2c.6 0 1.1-.6 1.1-1.1 0-.6-.6-1.1-1.1-1.1h-2.2c-.6 0-1.1.6-1.1 1.1.1.6.5 1.1 1.1 1.1" class="st22"/><path d="M33.7 103.1h1.7v2.3h-1.7z" class="st23"/></g><g id="Artwork_3_00000090986050340747898810000012893725697163162279_"><path d="M37.4 101.9v-2.6h-2.6v2.6zM34.4 101.9v-2.6h-2.6v2.6z" class="st21"/><path d="M33.5 101.7h2.2c.6 0 1.1-.6 1.1-1.1s-.6-1.1-1.1-1.1h-2.2c-.6 0-1.1.6-1.1 1.1.1.6.5 1.1 1.1 1.1" class="st22"/><path d="M33.7 99.5h1.7v2.3h-1.7z" class="st23"/></g><g id="Artwork_3_00000183960976154515640750000003832760698358644137_"><path d="M26.5 132.2h3.6v-3.6h-3.6zM26.5 128h3.6v-3.6h-3.6z" class="st21"/><path d="M26.7 126.7v3.2c0 .8.8 1.5 1.5 1.5.9 0 1.5-.8 1.5-1.5v-3.2c0-.9-.8-1.5-1.5-1.5s-1.5.7-1.5 1.5" class="st22"/><path d="M26.7 127.1h3.2v2.3h-3.2z" class="st23"/></g><g id="Artwork_3_00000110437538719687499870000016608951175943022496_"><path d="M32.1 34.8h3.6v-3.6h-3.6zc-.1 0 0 0 0 0M32.1 30.8h3.6v-3.6h-3.6zc-.1-.2 0 0 0 0" class="st21"/><path d="M32.3 29.3v3.2c0 .8.8 1.5 1.5 1.5.9 0 1.5-.8 1.5-1.5v-3.2c0-.9-.8-1.5-1.5-1.5s-1.5.8-1.5 1.5" class="st22"/><path d="M32.3 29.7h3.2V32h-3.2z" class="st23"/></g><g id="Artwork_3_00000004545577692741330780000008142022528696234122_"><path d="M73.4 132.2H77v-3.6h-3.6zM73.4 128H77v-3.6h-3.6z" class="st21"/><path d="M73.8 126.7v3.2c0 .8.8 1.5 1.5 1.5.9 0 1.5-.8 1.5-1.5v-3.2c0-.9-.8-1.5-1.5-1.5s-1.5.7-1.5 1.5" class="st22"/><path d="M73.8 127.1H77v2.3h-3.2z" class="st23"/></g><g id="Artwork_3_00000135688837678120099280000014493004625946628029_"><path d="M99.5 92.7h3.6v-3.6h-3.6zM99.5 88.5h3.6v-3.6h-3.6z" class="st21"/><path d="M99.8 87.2v3.2c0 .8.8 1.5 1.5 1.5s1.5-.8 1.5-1.5v-3.2c0-.9-.8-1.5-1.5-1.5-.7-.2-1.5.5-1.5 1.5" class="st22"/><path d="M99.8 87.6h3.2v2.3h-3.2z" class="st23"/></g><g id="Artwork_3_00000096769292243764444380000010311813708002805400_"><path d="M151.5 110.6h3.6V107h-3.6zM151.5 106.5h3.6v-3.6h-3.6z" class="st21"/><path d="M151.7 105.1v3.2c0 .8.8 1.5 1.5 1.5s1.5-.8 1.5-1.5v-3.2c0-.9-.8-1.5-1.5-1.5-.8-.2-1.5.6-1.5 1.5" class="st22"/><path d="M151.7 105.3h3.2v2.3h-3.2z" class="st23"/></g><g id="Artwork_3_00000133514878256596626850000007504359268802301071_"><path d="M250.7 50.3v3.6h3.6v-3.6zq0-.3 0 0M254.9 50.3v3.6h3.6v-3.6zq0-.3 0 0" class="st21"/><path d="M256.2 50.5H253c-.8 0-1.5.8-1.5 1.5 0 .9.8 1.5 1.5 1.5h3.2c.9 0 1.5-.8 1.5-1.5s-.5-1.5-1.5-1.5" class="st22"/><path d="M253.6 50.5h2.3v3.2h-2.3z" class="st23"/></g><g id="Artwork_3_00000068659398974378055190000004780119886771864250_"><path d="M63.7 124.1v3.6h3.6v-3.6zq0-.3 0 0M67.9 124.1v3.6h3.6v-3.6zq0-.3 0 0" class="st21"/><path d="M69.2 124.2H66c-.8 0-1.5.8-1.5 1.5 0 .9.8 1.5 1.5 1.5h3.2c.9 0 1.5-.8 1.5-1.5s-.5-1.5-1.5-1.5" class="st22"/><path d="M66.6 124.2h2.3v3.2h-2.3z" class="st20"/></g><g id="Artwork_3_00000005948849128749668890000008670739925743573902_"><path d="M63.7 128.6v3.6h3.6v-3.6zc0-.2 0 0 0 0M67.9 128.6v3.6h3.6v-3.6zc0-.2 0 0 0 0" class="st21"/><path d="M69.2 128.8H66c-.8 0-1.5.8-1.5 1.5 0 .9.8 1.5 1.5 1.5h3.2c.9 0 1.5-.8 1.5-1.5 0-.8-.5-1.5-1.5-1.5" class="st22"/><path d="M66.6 128.8h2.3v3.2h-2.3z" class="st20"/></g><g id="Artwork_3_00000048497250491575775200000008529815893994977945_"><path d="M52.8 128.6v3.6h3.6v-3.6zc0-.2 0 0 0 0M56.9 128.6v3.6h3.6v-3.6zc0-.2 0 0 0 0" class="st21"/><path d="M58.2 128.8H55c-.8 0-1.5.8-1.5 1.5 0 .9.8 1.5 1.5 1.5h3.2c.9 0 1.5-.8 1.5-1.5.1-.8-.7-1.5-1.5-1.5" class="st22"/><path d="M55.6 128.8h2.3v3.2h-2.3z" class="st20"/></g><g id="Artwork_3_00000086686367584234860420000012409155016133535123_"><path d="M52.8 124.1v3.6h3.6v-3.6zq0-.3 0 0M56.9 124.1v3.6h3.6v-3.6zq0-.3 0 0" class="st21"/><path d="M58.2 124.2H55c-.8 0-1.5.8-1.5 1.5 0 .9.8 1.5 1.5 1.5h3.2c.9 0 1.5-.8 1.5-1.5.1-.7-.7-1.5-1.5-1.5" class="st22"/><path d="M55.6 124.2h2.3v3.2h-2.3z" class="st20"/></g><g id="Artwork_3_00000028310772839433337990000016577413030219900344_"><path d="M42.9 124.1v3.6h3.6v-3.6zc.2-.2 0-.2 0 0M47.1 124.1v3.6h3.6v-3.6zq0-.3 0 0" class="st21"/><path d="M48.6 124.2h-3.2c-.8 0-1.5.8-1.5 1.5 0 .9.8 1.5 1.5 1.5h3.2c.9 0 1.5-.8 1.5-1.5s-.7-1.5-1.5-1.5" class="st22"/><path d="M46 124.2h2.3v3.2H46z" class="st20"/></g><g id="Artwork_3_00000091016414860276718470000014432901789318852779_"><path d="M42.9 128.6v3.6h3.6v-3.6zc.2-.2 0 0 0 0M47.1 128.6v3.6h3.6v-3.6zc0-.2 0 0 0 0" class="st21"/><path d="M48.6 128.8h-3.2c-.8 0-1.5.8-1.5 1.5 0 .9.8 1.5 1.5 1.5h3.2c.9 0 1.5-.8 1.5-1.5 0-.8-.7-1.5-1.5-1.5" class="st22"/><path d="M46 128.8h2.3v3.2H46z" class="st20"/></g><g id="Artwork_3_00000001653158504502245110000006132627276826405790_"><path d="M32.1 124.1v3.6h3.6v-3.6zq0-.3 0 0M36.3 124.1v3.6h3.8v-3.6zq0-.3 0 0" class="st21"/><path d="M37.6 124.2h-3.2c-.8 0-1.5.8-1.5 1.5 0 .9.8 1.5 1.5 1.5h3.2c.9 0 1.5-.8 1.5-1.5s-.5-1.5-1.5-1.5" class="st22"/><path d="M35 124.2h2.3v3.2H35z" class="st20"/></g><g id="Artwork_3_00000033343690099998354440000005715251802229578632_"><path d="M32.1 128.6v3.6h3.6v-3.6zc0-.2 0 0 0 0M36.3 128.6v3.6h3.8v-3.6zc0-.2 0 0 0 0" class="st21"/><path d="M37.6 128.8h-3.2c-.8 0-1.5.8-1.5 1.5 0 .9.8 1.5 1.5 1.5h3.2c.9 0 1.5-.8 1.5-1.5 0-.8-.5-1.5-1.5-1.5" class="st22"/><path d="M35 128.8h2.3v3.2H35z" class="st20"/></g><g id="Artwork_3_00000135678022661647525690000002200093459694263448_"><path d="M40.8 37.6v3.6h3.6v-3.6zc.2 0 0 0 0 0M45 37.6v3.6h3.6v-3.6zc.2 0 0 0 0 0" class="st21"/><path d="M46.5 37.8h-3.2c-.8 0-1.5.8-1.5 1.5 0 .9.8 1.5 1.5 1.5h3.2c.9 0 1.5-.8 1.5-1.5s-.7-1.5-1.5-1.5" class="st22"/><path d="M43.9 37.8h2.3V41h-2.3z" class="st20"/></g><g id="Artwork_3_00000090262044630072466410000004031562229832901009_"><path d="M51.6 76.6v3.6h3.6v-3.6zM55.8 76.6v3.6h3.6v-3.6z" class="st21"/><path d="M57.1 76.8h-3.2c-.8 0-1.5.8-1.5 1.5 0 .9.8 1.5 1.5 1.5h3.2c.9 0 1.5-.8 1.5-1.5 0-.8-.7-1.5-1.5-1.5" class="st22"/><path d="M54.5 76.8h2.3V80h-2.3z" class="st20"/></g><g id="Artwork_3_00000163788667539318555460000011172719042515633027_"><path d="M61.8 67.9v3.6h3.6v-3.6zM66 67.9v3.6h3.6v-3.6z" class="st21"/><path d="M67.3 68.3h-3.2c-.8 0-1.5.8-1.5 1.5s.8 1.5 1.5 1.5h3.2c.9 0 1.5-.8 1.5-1.5 0-.8-.5-1.5-1.5-1.5" class="st22"/><path d="M64.9 68.3h2.3v3.2h-2.3z" class="st20"/></g><g id="Artwork_3_00000026142965387475519690000010239220931087893379_"><path d="M90 84.3v3.6h3.6v-3.6zq0-.15 0 0M94.2 84.3v3.6h3.6v-3.6zq0-.15 0 0" class="st21"/><path d="M95.5 84.5h-3.2c-.8 0-1.5.8-1.5 1.5 0 .8.8 1.5 1.5 1.5h3.2c.9 0 1.5-.8 1.5-1.5s-.7-1.5-1.5-1.5" class="st22"/><path d="M92.8 84.5h2.3v3.2h-2.3z" class="st20"/></g><g id="Artwork_3_00000178907786897166130350000006686479198279067534_"><path d="M90 89.4V93h3.6v-3.6zM94.2 89.4V93h3.6v-3.6z" class="st21"/><path d="M95.5 89.6h-3.2c-.8 0-1.5.8-1.5 1.5 0 .9.8 1.5 1.5 1.5h3.2c.9 0 1.5-.8 1.5-1.5s-.7-1.5-1.5-1.5" class="st22"/><path d="M92.8 89.6h2.3v3.2h-2.3z" class="st20"/></g><g id="Artwork_3_00000041282579328603775690000006550615886170742426_"><path d="M110.4 101.9v3.6h3.6v-3.6zM114.6 101.9v3.6h3.6v-3.6z" class="st21"/><path d="M115.9 102.3h-3.2c-.8 0-1.5.8-1.5 1.5 0 .8.8 1.5 1.5 1.5h3.2c.9 0 1.5-.8 1.5-1.5s-.5-1.5-1.5-1.5" class="st22"/><path d="M113.3 102.3h2.3v3.2h-2.3z" class="st20"/></g><g id="Artwork_3_00000063620925930423889640000002782942620915315636_"><path d="M143.7 102.7h-3.6v3.6h3.6zM143.7 106.8h-3.6v3.6h3.6z" class="st21"/><path d="M143.5 108.2V105c0-.8-.8-1.5-1.5-1.5s-1.5.8-1.5 1.5v3.2c0 .9.8 1.5 1.5 1.5s1.5-.6 1.5-1.5" class="st22"/><path d="M140.3 105.5h3.2v2.3h-3.2z" class="st20"/></g><g id="Artwork_3_00000059991165148597307210000018344021864264930443_"><path d="M110.4 90.4V94h3.6v-3.6zq0-.3 0 0M114.6 90.4V94h3.6v-3.6zq0-.3 0 0" class="st21"/><path d="M115.9 90.6h-3.2c-.8 0-1.5.8-1.5 1.5 0 .9.8 1.5 1.5 1.5h3.2c.9 0 1.5-.8 1.5-1.5 0-.8-.5-1.5-1.5-1.5" class="st22"/><path d="M113.3 90.6h2.3v3.2h-2.3z" class="st20"/></g><g id="Artwork_3_00000142856881968704437080000012976048735764253857_"><path d="M113.7 54.5v3.6h3.6v-3.6zM117.6 54.5v3.6h3.6v-3.6zc.2 0 0 0 0 0" class="st21"/><path d="M119.1 54.8h-3.2c-.8 0-1.5.8-1.5 1.5 0 .8.8 1.5 1.5 1.5h3.2c.9 0 1.5-.8 1.5-1.5s-.7-1.5-1.5-1.5" class="st22"/><path d="M116.5 54.8h2.3V58h-2.3z" class="st20"/></g><g id="Artwork_3_00000104678083494704878860000007206881976358913179_"><path d="M160.5 62.2v3.6h3.6v-3.6zM164.7 62.2v3.6h3.6v-3.6z" class="st21"/><path d="M166 62.6h-3.2c-.8 0-1.5.8-1.5 1.5 0 .9.8 1.5 1.5 1.5h3.2c.9 0 1.5-.8 1.5-1.5 0-.8-.5-1.5-1.5-1.5" class="st22"/><path d="M163.4 62.6h2.3v3.2h-2.3z" class="st20"/></g><g id="Artwork_3_00000079467900966542380320000017420684571035658146_"><path d="M178.3 105v3.6h3.6V105zM182.5 105v3.6h3.6V105z" class="st21"/><path d="M183.8 105.3h-3.2c-.8 0-1.5.8-1.5 1.5 0 .8.8 1.5 1.5 1.5h3.2c.9 0 1.5-.8 1.5-1.5.2-.9-.5-1.5-1.5-1.5" class="st22"/><path d="M181.2 105.3h2.3v3.2h-2.3z" class="st20"/></g><g id="Artwork_3_00000145769099255897198530000007671842960142913921_"><path d="M241.7 43.5v3.6h3.6v-3.6zc0-.2 0 0 0 0M245.8 43.5v3.6h3.6v-3.6zc0-.2 0 0 0 0" class="st21"/><path d="M247.2 43.7H244c-.8 0-1.5.8-1.5 1.5 0 .9.8 1.5 1.5 1.5h3.2c.9 0 1.5-.8 1.5-1.5.2-.8-.6-1.5-1.5-1.5" class="st22"/><path d="M244.5 43.7h2.3v3.2h-2.3z" class="st20"/></g><g id="Artwork_3_00000075843660507702969470000000737864398123817360_"><path d="M191.8 105v3.6h3.6V105zM195.9 105v3.6h3.6V105z" class="st21"/><path d="M197.2 105.3H194c-.8 0-1.5.8-1.5 1.5 0 .8.8 1.5 1.5 1.5h3.2c.9 0 1.5-.8 1.5-1.5.2-.9-.5-1.5-1.5-1.5" class="st22"/><path d="M194.8 105.3h2.3v3.2h-2.3z" class="st20"/></g><g id="Artwork_3_00000028296889356373697020000015696126161016562094_"><path d="M82.4 84.9h-3.6v3.6h3.6zM82.4 89.1h-3.6v3.8h3.6z" class="st21"/><path d="M82.3 90.4v-3.2c0-.8-.8-1.5-1.5-1.5-.9 0-1.5.8-1.5 1.5v3.2c0 .9.8 1.5 1.5 1.5s1.5-.6 1.5-1.5" class="st22"/><path d="M79 87.7h3.2V90H79z" class="st20"/></g><g id="Artwork_3_00000144318454103854259560000009348490659800933055_"><path d="M43.1 44.6h-3.6v3.6h3.6zM43.1 48.8h-3.6v3.6h3.6z" class="st21"/><path d="M42.9 50.1v-3.2c0-.8-.8-1.5-1.5-1.5-.9 0-1.5.8-1.5 1.5v3.2c0 .9.8 1.5 1.5 1.5.8 0 1.5-.7 1.5-1.5" class="st22"/><path d="M39.7 47.3h3.2v2.3h-3.2z" class="st20"/></g><g id="Artwork_3_00000132779496171010631450000002453808127913163687_"><path d="M88.1 84.9h-3.6v3.6h3.6zM88.1 89.1h-3.6v3.8h3.6z" class="st21"/><path d="M87.7 90.4v-3.2c0-.8-.8-1.5-1.5-1.5-.9 0-1.5.8-1.5 1.5v3.2c0 .9.8 1.5 1.5 1.5 1 0 1.5-.6 1.5-1.5" class="st22"/><path d="M84.5 87.7h3.2V90h-3.2z" class="st20"/></g><g id="Artwork_3_00000043449439697105224240000013069882948388373139_"><path d="M61.8 63.2v3.6h3.6v-3.6zM66 63.2v3.6h3.6v-3.6z" class="st21"/></g><g id="Artwork_3_00000145033651734556332290000007039074664010184836_"><path d="M73 50.7v3.6h3.6v-3.6zc.2-.2 0 0 0 0M77.2 50.7v3.6h3.6v-3.6zc0-.2 0 0 0 0" class="st21"/></g><path d="M126.5 53.1h1.9v.8h-1.9zM126.5 51.1h1.9v.8h-1.9zM126.5 49h1.9v.8h-1.9zM126.5 46.7h1.9v.8h-1.9zM126.5 44.8h1.9v.8h-1.9zM144.5 53.1h1.9v.8h-1.9zM144.5 51.1h1.9v.8h-1.9zM144.5 49h1.9v.8h-1.9zM144.5 46.7h1.9v.8h-1.9zM144.5 44.8h1.9v.8h-1.9zM131.8 39.3h.8v1.9h-.8zM133.9 39.3h.8v1.9h-.8zM136 39.3h.8v1.9h-.8zM138 39.3h.8v1.9h-.8zM140.3 39.3h.8v1.9h-.8zM131.8 57.3h.8v1.9h-.8zM133.9 57.5h.8v1.9h-.8zM136 57.5h.8v1.9h-.8zM138.2 57.5h.8v1.9h-.8zM140.3 57.3h.8v1.9h-.8z" class="st26"/><path d="M128.2 41.2h16.3v16.3h-16.3z" class="st27"/><path d="M89.1 94.4H91V105h-1.9zM76.6 94.4h1.9V105h-1.9z" class="st21"/><path d="M78.5 94.2h10.6v10.6H78.5z" class="st23"/><path d="M72.2 112.7h1.9v10.6h-1.9zM59.8 112.9h1.9v10.6h-1.9z" class="st21"/><path d="M61.5 112.7h10.6v10.6H61.5z" class="st23"/><path d="M39.3 112.7h1.9v10.6h-1.9zM26.9 112.9h1.9v10.6h-1.9z" class="st21"/><path d="M28.6 112.7h10.6v10.6H28.6z" class="st23"/><g id="Artwork_3_00000039123894994659466540000015437210276764139654_"><path d="M262.7 62.4v-6.2s0-.2-.2-.2h-6.2s-.2 0-.2.2v6.2s0 .2.2.2zq0 .3 0 0M253.6 62.4v-6.2s0-.2-.2-.2h-6.2s-.2 0-.2.2v6.2s0 .2.2.2zq0 .3 0 0" class="st21"/></g><g id="Artwork_3_00000150063340478743217400000014864441385074384820_"><path d="M262.7 74.9v-6.2s0-.2-.2-.2h-6.2s-.2 0-.2.2v6.2s0 .2.2.2zM253.6 74.9v-6.2s0-.2-.2-.2h-6.2s-.2 0-.2.2v6.2s0 .2.2.2z" class="st21"/></g><path d="M248.5 57.5h12.9v16.3h-12.9z" class="st19"/><path d="M65.6 24.6h-1.5v3.6zM60.3 24.6h-1.5v3.6zM55 24.6h-1.5v3.6zM49.7 24.6h-1.5v3.6zM44.4 24.6h-1.5v3.6zM65.6 24.6l-1.5 3.6h1.5zM60.3 24.6l-1.5 3.6h1.5zM55 24.6l-1.5 3.6H55zM49.7 24.6l-1.5 3.6h1.5zM44.4 24.6l-1.5 3.6h1.5z" class="st21"/><path d="M35.7 1.9h37.1v22.5H35.7z" style="fill:#fff"/><path id="SVGID_1_" d="M35.7 21h37.1v3.4H35.7z" class="st24"/><defs><path id="SVGID_2_" d="M35.7 21h37.1v3.4H35.7z"/></defs><clipPath id="SVGID_4_"><use xlink:href="#SVGID_2_" style="overflow:visible"/></clipPath><path d="M35.7 21h37.1v3.4H35.7z" style="clip-path:url(#SVGID_4_);fill:#d8d9da"/><path id="SVGID_3_" d="M35.7 13.4h37.1V17H35.7z" class="st24"/><defs><path id="SVGID_6_" d="M35.7 13.4h37.1V17H35.7z"/></defs><clipPath id="SVGID_7_"><use xlink:href="#SVGID_6_" style="overflow:visible"/></clipPath><path d="M35.7 13.4h37.1V17H35.7z" style="clip-path:url(#SVGID_7_);fill:#d8d9da"/><path id="SVGID_5_" d="M35.7 5.9h37.1v3.6H35.7z" class="st24"/><defs><path id="SVGID_8_" d="M35.7 5.9h37.1v3.6H35.7z"/></defs><clipPath id="SVGID_9_"><use xlink:href="#SVGID_8_" style="overflow:visible"/></clipPath><path d="M35.7 5.9h37.1v3.6H35.7z" style="clip-path:url(#SVGID_9_);fill:#d8d9da"/><path d="M265.3 32.3h66.2v70.3h-66.2z" class="st19"/><path d="M170.8 32.9H240v69.2h-69.2z" class="st23"/><circle cx="182.3" cy="44.2" r="4.2" class="st32"/><path d="M130.9 68.8H129c0-.6.4-.9.9-.9.4 0 1 .4 1 .9M133.5 68.8h-1.9c0-.6.4-.9.9-.9.4 0 1 .4 1 .9M136.2 68.8h-1.9c0-.6.4-.9.9-.9.4 0 1 .4 1 .9M138.8 68.8h-1.9c0-.6.4-.9.9-.9s1 .4 1 .9M141.4 68.8h-1.9c0-.6.4-.9.9-.9s1 .4 1 .9M144.1 68.8h-1.9c0-.6.4-.9.9-.9s1 .4 1 .9M142.2 90.4h1.9c0 .6-.4.9-.9.9s-1-.3-1-.9M139.6 90.4h1.9c0 .6-.4.9-.9.9s-1-.3-1-.9M136.9 90.4h1.9c0 .6-.4.9-.9.9s-1-.3-1-.9M134.3 90.4h1.9c0 .6-.4.9-.9.9s-1-.3-1-.9M131.4 90.4h1.9c0 .6-.4.9-.9.9-.4 0-1-.3-1-.9M128.8 90.4h1.9c0 .6-.4.9-.9.9s-1-.3-1-.9M125.6 85.3v1.9c-.6 0-.9-.4-.9-.9-.3-.6.3-1 .9-1M125.6 82.6v1.9c-.6 0-.9-.4-.9-.9-.3-.6.3-1 .9-1M125.6 80v1.9c-.6 0-.9-.4-.9-.9-.3-.6.3-1 .9-1M125.6 77.3v1.9c-.6 0-.9-.4-.9-.9-.3-.6.3-1 .9-1M125.6 74.5v1.9c-.6 0-.9-.4-.9-.9-.3-.4.3-1 .9-1M125.6 71.9v1.9c-.6 0-.9-.4-.9-.9-.3-.5.3-1 .9-1M147.3 73.9V72c.6 0 .9.4.9.9.1.5-.3 1-.9 1M147.3 76.6v-1.9c.6 0 .9.4.9.9.1.4-.3 1-.9 1M147.3 79.2v-1.9c.6 0 .9.4.9.9s-.3 1-.9 1M147.3 81.9V80c.6 0 .9.4.9.9s-.3 1-.9 1M147.3 84.5v-1.9c.6 0 .9.4.9.9.1.7-.3 1-.9 1M147.3 87.2v-1.9c.6 0 .9.4.9.9.1.6-.3 1-.9 1" class="st21"/><path d="M125.8 68.8h21.6v21.6h-21.6z" class="st23"/><circle cx="129.2" cy="86.8" r="1.3" class="st32"/><circle cx="276.5" cy="27.4" r="2.3" class="st20"/><circle cx="263" cy="107.4" r="2.3" class="st20"/><circle cx="276.5" cy="107.4" r="2.3" class="st20"/><circle cx="289.9" cy="107.4" r="2.3" class="st20"/><path d="M41.4 84.2h26.3v26.3H41.4z" class="st23"/><path d="M67.7 107.6v-1.9h.4c.6 0 .9.4.9.9s-.4.9-.9.9c-.2.1-.4.1-.4.1M67.7 105.5v-1.9h.4c.6 0 .9.4.9.9s-.4.9-.9.9c-.2.1-.4.1-.4.1M67.7 103.4v-1.9h.4c.6 0 .9.4.9.9 0 .6-.4.9-.9.9-.2.1-.4.1-.4.1M67.7 101.4v-1.9h.4c.6 0 .9.4.9.9s-.4.9-.9.9c-.2.1-.4.1-.4.1M67.7 99.3v-1.9h.4c.6 0 .9.4.9.9s-.4.9-.9.9c-.2.1-.4.1-.4.1M67.7 97.2v-1.9h.4c.6 0 .9.4.9.9s-.4.9-.9.9c-.2.1-.4.1-.4.1M67.7 95.1v-1.9h.4c.6 0 .9.4.9.9s-.4.9-.9.9c-.2.1-.4.1-.4.1M67.7 93v-1.9h.4c.6 0 .9.4.9.9s-.4 1-.9 1zM67.7 91v-1.9h.4c.6 0 .9.4.9.9 0 .6-.4.9-.9.9-.2.1-.4.1-.4.1M67.7 88.9V87h.4c.6 0 .9.4.9.9 0 .6-.4.9-.9.9-.2.1-.4.1-.4.1M41.2 86.8v1.9h-.4c-.6 0-.9-.4-.9-.9s.4-.9.9-.9c.2-.1.4-.1.4-.1M41.2 88.9v1.9h-.4c-.6 0-.9-.4-.9-.9s.4-.9.9-.9c.2-.1.4-.1.4-.1M41.2 91v1.9h-.4c-.6 0-.9-.4-.9-.9s.4-.9.9-.9c.2-.1.4-.1.4-.1M41.2 93.2v1.9h-.4c-.6 0-.9-.4-.9-.9s.4-.9.9-.9c.2-.1.4-.1.4-.1M41.2 95.3v1.9h-.4c-.6 0-.9-.4-.9-.9s.4-.9.9-.9c.2-.1.4-.1.4-.1M41.2 97.4v1.9h-.4c-.6 0-.9-.4-.9-.9s.4-.9.9-.9c.2-.1.4-.1.4-.1M41.2 99.5v1.9h-.4c-.6 0-.9-.4-.9-.9s.4-.9.9-.9c.2-.1.4-.1.4-.1M41.2 101.5v1.9h-.4c-.6 0-.9-.4-.9-.9 0-.6.4-.9.9-.9.2-.1.4-.1.4-.1M41.2 103.6v1.9h-.4c-.6 0-.9-.4-.9-.9s.4-.9.9-.9c.2-.1.4-.1.4-.1M41.2 105.7v1.9h-.4c-.6 0-.9-.4-.9-.9s.4-.9.9-.9c.2-.1.4-.1.4-.1M64.7 84.2h-1.9v-.4c0-.6.4-.9.9-.9s.9.4.9.9v.4zM62.6 84.2h-1.9v-.4c0-.6.4-.9.9-.9s.9.4.9.9v.4zM60.5 84.2h-1.9v-.4c0-.6.4-.9.9-.9.6 0 .9.4.9.9v.4zM58.4 84.2h-1.9v-.4c0-.6.4-.9.9-.9s.9.4.9.9v.4zM56.4 84.2h-1.9v-.4c0-.6.4-.9.9-.9.6 0 .9.4.9.9v.4zM54.3 84.2h-1.9v-.4c0-.6.4-.9.9-.9.6 0 .9.4.9.9v.4zM52.2 84.2h-1.9v-.4c0-.6.4-.9.9-.9.6 0 .9.4.9.9v.4zM50.1 84.2h-1.9v-.4c0-.6.4-.9.9-.9.6 0 .9.4.9.9v.4zM48 84.2h-1.9v-.4c0-.6.4-.9.9-.9.6 0 .9.4.9.9v.4zM46 84.2h-1.9v-.4c0-.6.4-.9.9-.9s.9.4.9.9v.4zM43.9 110.4h1.9v.4c0 .6-.4.9-.9.9s-.9-.4-.9-.9c-.1-.2-.1-.4-.1-.4M46.1 110.4H48v.4c0 .6-.4.9-.9.9-.6 0-.9-.4-.9-.9-.1-.2-.1-.4-.1-.4M48.2 110.4h1.9v.4c0 .6-.4.9-.9.9-.6 0-.9-.4-.9-.9-.1-.2-.1-.4-.1-.4M50.3 110.4h1.9v.4c0 .6-.4.9-.9.9-.6 0-.9-.4-.9-.9-.1-.2-.1-.4-.1-.4M52.4 110.4h1.9v.4c0 .6-.4.9-.9.9-.6 0-.9-.4-.9-.9-.1-.2-.1-.4-.1-.4M54.5 110.4h1.9v.4c0 .6-.4.9-.9.9-.6 0-.9-.4-.9-.9-.1-.2-.1-.4-.1-.4M56.5 110.4h1.9v.4c0 .6-.4.9-.9.9s-.9-.4-.9-.9c-.1-.2-.1-.4-.1-.4M58.6 110.4h1.9v.4c0 .6-.4.9-.9.9-.6 0-.9-.4-.9-.9-.1-.2-.1-.4-.1-.4M60.7 110.4h1.9v.4c0 .6-.4.9-.9.9s-.9-.4-.9-.9c-.1-.2-.1-.4-.1-.4M62.8 110.4h1.9v.4c0 .6-.4.9-.9.9s-.9-.4-.9-.9c-.1-.2-.1-.4-.1-.4" class="st21"/><circle cx="44.2" cy="87.2" r=".8" class="st21" transform="rotate(-89.862 44.25 87.176)"/><path d="M78.3 3.4h31.2v42.4H78.3z" class="st23"/><path d="M102.7 3.4v-.6c0-.2.2-.6.6-.6h1.9c.2 0 .6.2.6.6v.6zM95.9 3.4v-.6c0-.2.2-.6.6-.6h1.9c.2 0 .6.2.6.6v.6zM89.1 3.4v-.6c0-.2.2-.6.6-.6h1.9c.2 0 .6.2.6.6v.6zM82.3 3.4v-.6c0-.2.2-.6.6-.6h1.9c.2 0 .6.2.6.6v.6zM85.1 45.8v.6c0 .2-.2.6-.6.6h-1.9c-.2 0-.6-.2-.6-.6v-.6zM91.9 45.8v.6c0 .2-.2.6-.6.6h-1.9c-.2 0-.6-.2-.6-.6v-.6zM98.7 45.8v.6c0 .2-.2.6-.6.6h-1.9c-.2 0-.6-.2-.6-.6v-.6zM105.5 45.8v.6c0 .2-.2.6-.6.6H103c-.2 0-.6-.2-.6-.6v-.6z" class="st21"/><g id="Artwork_3_00000089546954982036446960000015966601882465635744_"><path d="M8.1 32.5v3.6h3.6v-3.6zM12.3 32.5v3.6h3.6v-3.6z" class="st21"/></g><g id="Artwork_3_00000012435365468917741410000002183231597922213811_"><path d="M8.1 28.4V32h3.6v-3.6zq0-.3 0 0M12.3 28.4V32h3.6v-3.6zq0-.3 0 0" class="st21"/></g><path d="M9.6 34.2V30c0-.2.2-.6.6-.6h4.2c.2 0 .6.2.6.6v4.2c0 .2-.2.6-.6.6h-4.2q-.6 0-.6-.6" style="fill:#dadbdc"/><path d="M62.4 53.7h7.8v7.8h-7.8z" class="st27"/><circle cx="69.2" cy="54.7" r=".8" style="fill:#7b7c7c"/><path d="M55.4 41.4h14.8v8.3H55.4z" class="st24"/><path d="M38.8 60.5h15.3v6.6H38.8z" class="st23"/><path d="M39.7 70.7v-3.6h3.2v3.6q0 .6-.6.6h-2.1c-.1 0-.5-.2-.5-.6M42.9 57.1v3.6h-3.2v-3.6q0-.6.6-.6h2.1c.1 0 .5.2.5.6M52.9 57.3v3.4h-5.5v-3.4c0-.4.4-.8.8-.8h4c.4 0 .7.4.7.8M49.9 70.7v-3.6h3.2v3.6q0 .6-.6.6h-2.1c-.3 0-.5-.2-.5-.6" class="st21"/><path d="M313.2 15.9h15.9v7.4h-15.9z" class="st23"/><path d="M319 15.9v-3c0-.6.4-.9.9-.9h2.8c.6 0 .9.4.9.9v3zM318.4 23.3v3c0 .6-.4.9-.9.9h-2.8c-.6 0-.9-.4-.9-.9v-3zM328.3 23.3v3c0 .6-.4.9-.9.9h-2.8c-.6 0-.9-.4-.9-.9v-3z" class="st32"/><path d="M243 83.4h18.2v9.1H243z" class="st20"/><path d="M32.5 45.8h2.6v1.1h-2.6zM32.5 48.2h2.6v1.1h-2.6zM32.5 50.7h2.6v1.1h-2.6zM32.5 53.1h2.6v1.1h-2.6zM32.5 55.6h2.6v1.1h-2.6zM32.5 58.1h2.6v1.1h-2.6zM32.5 60.5h2.6v1.1h-2.6zM32.5 63.2h2.6v1.1h-2.6zM32.5 65.6h2.6v1.1h-2.6zM32.5 68.1h2.6v1.1h-2.6zM32.5 70.5h2.6v1.1h-2.6zM32.5 73h2.6v1.1h-2.6zM32.5 75.5h2.6v1.1h-2.6zM32.5 77.9h2.6V79h-2.6zM32.5 80.4h2.6v1.1h-2.6zM32.5 82.8h2.6v1.1h-2.6zM32.5 85.5h2.6v1.1h-2.6zM32.5 87.9h2.6V89h-2.6z" class="st35"/><path d="M33.1 89.1h-.8V88h.8v-1.3h-.8v-1.1h.8v-1.3h-.8V83h.8v-1.3h-.8v-1.1h.8v-1.3h-.8v-1.1h.8v-1.3h-.8v-1.1h.8v-1.3h-.8v-1.1h.8v-1.3h-.8V71h.8v-1.3h-.8v-1.1h.8v-1.3h-.8v-1.1h.8v-1.3h-.8v-1.1h.8V62h-.8v-1.1h.8v-1.3h-.8v-1.1h.8V57h-.8v-1.1h.8v-1.3h-.8v-1.3h.8V52h-.8v-1.1h.8v-1.3h-.8v-1.1h.8v-1.3h-.8v-1.1h.8V44H0v47.5h33.1zm-8.5-33.9c-.9 0-1.9-.9-1.9-2.3v-5.7c0-1.3.8-2.3 1.9-2.3h.6v4.7c0 .6.4.9.9.9s.8-.4.8-.9V45h.4c.9 0 1.9.9 1.9 2.3V53c0 1.3-.8 2.3-1.9 2.3h-2.7zm-1.9 32.2v-5.7c0-1.3.8-2.3 1.9-2.3h2.6c.9 0 1.9.9 1.9 2.3v5.7c0 1.3-.8 2.3-1.9 2.3h-.4V85c0-.6-.4-1.1-.8-1.1s-.9.4-.9 1.1v4.7h-.6c-.9-.1-1.8-1.2-1.8-2.3" class="st21"/><path d="M34.8 45h-1.5v-1.3H24c-.2-.2-.2-.6-.2-.9 0-1.3.9-2.3 2.3-2.3h8.7c1.3 0 2.3.9 2.3 2.3S35.9 45 34.8 45M34.8 94.4h-8.7c-1.3 0-2.3-.9-2.3-2.3 0-.4 0-.6.2-.9h9.3v-1.5h1.5c1.3 0 2.3 1.1 2.3 2.3 0 1-1.2 2.4-2.3 2.4M17.6 43.7H6.1v-.6c0-1.1.9-2.1 2-2.1h7.4c1.1 0 2.1.9 2.1 2.1zc0-.2 0 0 0 0M15.5 93.6H8.1C7 93.6 6 92.7 6 91.5V91h11.5v.6c.1 1.2-.9 2-2 2" class="st24"/></g></svg>