<?xml version="1.0" encoding="utf-8"?>
<!-- Generator: Adobe Illustrator 26.4.1, SVG Export Plug-In . SVG Version: 6.00 Build 0)  -->
<svg version="1.1" id="Main_Content" xmlns="http://www.w3.org/2000/svg" xmlns:xlink="http://www.w3.org/1999/xlink" x="0px"
	 y="0px" viewBox="0 0 64.8 67.8" style="enable-background:new 0 0 64.8 67.8;" xml:space="preserve">
<style type="text/css">
	.st0{fill:#3A3F3C;}
	.st1{fill:#C4B4A6;}
	.st2{fill:#FFFFFF;}
	.st3{fill:#9E846D;}
	.st4{fill:#2B322D;}
	.st5{fill:#C0BFBE;}
	.st6{fill:#BDC4C5;}
	.st7{fill:#97A2A3;}
	.st8{fill:#7F8C8D;}
	.st9{fill:#5F605D;}
	.st10{fill:#B1B8B8;}
	.st11{fill:#C9CFCF;}
	.st12{fill:none;stroke:#DCD2CA;stroke-width:0.2835;stroke-miterlimit:10;}
	.st13{fill:#D7DBDC;}
	.st14{fill:#A8907D;}
	.st15{fill:#4E514E;}
	.st16{fill:#E6E7E7;}
	.st17{fill:#F4F3F4;}
</style>
<g>
	<path class="st0" d="M6,0C2.7,0,0,2.7,0,6v58.8h64.8V0H6z"/>
	<g>
		<g>
			<path class="st1" d="M44.6,0v3.6c0,1.2,1,2.2,2.2,2.2c1.2,0,2.2-1,2.2-2.2V0H44.6z"/>
			<circle class="st2" cx="46.8" cy="3.6" r="1.4"/>
			<path class="st2" d="M45.4,0c0,0.8,0.6,1.4,1.4,1.4c0.8,0,1.4-0.6,1.4-1.4H45.4L45.4,0z"/>
		</g>
		<g>
			<path class="st1" d="M51.8,0v3.6c0,1.2,1,2.2,2.2,2.2c1.2,0,2.2-1,2.2-2.2V0H51.8z"/>
			<circle class="st2" cx="54" cy="3.6" r="1.4"/>
			<path class="st2" d="M52.5,0c0,0.8,0.6,1.4,1.4,1.4c0.8,0,1.4-0.6,1.4-1.4H52.5L52.5,0z"/>
		</g>
	</g>
	<g>
		<g>
			<path class="st1" d="M0,13h3.6c1.2,0,2.2-1,2.2-2.2c0-1.2-1-2.2-2.2-2.2H0V13z"/>
			<circle class="st2" cx="3.6" cy="10.8" r="1.4"/>
			<path class="st2" d="M0,12.2c0.8,0,1.4-0.6,1.4-1.4C1.4,10,0.8,9.3,0,9.3C0,9.3,0,12.2,0,12.2z"/>
		</g>
		<g>
			<path class="st1" d="M0,20.2h3.6c1.2,0,2.2-1,2.2-2.2c0-1.2-1-2.2-2.2-2.2H0V20.2z"/>
			<circle class="st2" cx="3.6" cy="18" r="1.4"/>
			<path class="st2" d="M0,19.4c0.8,0,1.4-0.6,1.4-1.4c0-0.8-0.6-1.4-1.4-1.4C0,16.6,0,19.4,0,19.4z"/>
		</g>
		<g>
			<path class="st1" d="M0,27.4h3.6c1.2,0,2.2-1,2.2-2.2c0-1.2-1-2.2-2.2-2.2H0C0,23,0,27.4,0,27.4z"/>
			<circle class="st2" cx="3.6" cy="25.2" r="1.4"/>
			<path class="st2" d="M0,26.6c0.8,0,1.4-0.6,1.4-1.4c0-0.8-0.6-1.4-1.4-1.4C0,23.8,0,26.6,0,26.6z"/>
		</g>
		<g>
			<path class="st1" d="M0,34.6h3.6c1.2,0,2.2-1,2.2-2.2c0-1.2-1-2.2-2.2-2.2H0V34.6z"/>
			<circle class="st2" cx="3.6" cy="32.4" r="1.4"/>
			<path class="st2" d="M0,33.8c0.8,0,1.4-0.6,1.4-1.4C1.4,31.6,0.8,31,0,31V33.8L0,33.8z"/>
		</g>
		<g>
			<path class="st1" d="M0,41.8h3.6c1.2,0,2.2-1,2.2-2.2c0-1.2-1-2.2-2.2-2.2H0V41.8z"/>
			<circle class="st2" cx="3.6" cy="39.6" r="1.4"/>
			<path class="st2" d="M0,41c0.8,0,1.4-0.6,1.4-1.4c0-0.8-0.6-1.4-1.4-1.4V41L0,41z"/>
		</g>
		<g>
			<path class="st1" d="M0,49h3.6c1.2,0,2.2-1,2.2-2.2c0-1.2-1-2.2-2.2-2.2H0V49z"/>
			<circle class="st2" cx="3.6" cy="46.8" r="1.4"/>
			<path class="st2" d="M0,48.2c0.8,0,1.4-0.6,1.4-1.4c0-0.8-0.6-1.4-1.4-1.4V48.2L0,48.2z"/>
		</g>
		<g>
			<path class="st1" d="M0,56.2h3.6c1.2,0,2.2-1,2.2-2.2c0-1.2-1-2.2-2.2-2.2H0V56.2z"/>
			<circle class="st2" cx="3.6" cy="54" r="1.4"/>
			<path class="st2" d="M0,55.4c0.8,0,1.4-0.6,1.4-1.4c0-0.8-0.6-1.4-1.4-1.4V55.4L0,55.4z"/>
		</g>
		<g>
			<path class="st1" d="M0,63.4h3.6c1.2,0,2.2-1,2.2-2.2c0-1.2-1-2.2-2.2-2.2H0V63.4z"/>
			<circle class="st2" cx="3.6" cy="61.2" r="1.4"/>
			<path class="st2" d="M0,62.6c0.8,0,1.4-0.6,1.4-1.4c0-0.8-0.6-1.4-1.4-1.4V62.6L0,62.6z"/>
		</g>
	</g>
	<g>
		<g>
			<path class="st1" d="M64.8,1.4h-3.6c-1.2,0-2.2,1-2.2,2.2c0,1.2,1,2.2,2.2,2.2h3.6V1.4z"/>
			<circle class="st2" cx="61.2" cy="3.6" r="1.4"/>
			<path class="st2" d="M64.8,2.2c-0.8,0-1.4,0.6-1.4,1.4c0,0.8,0.6,1.4,1.4,1.4V2.2z"/>
		</g>
		<g>
			<path class="st1" d="M64.8,8.6h-3.6c-1.2,0-2.2,1-2.2,2.2c0,1.2,1,2.2,2.2,2.2h3.6V8.6z"/>
			<circle class="st2" cx="61.2" cy="10.8" r="1.4"/>
			<path class="st2" d="M64.8,9.4c-0.8,0-1.4,0.6-1.4,1.4c0,0.8,0.6,1.4,1.4,1.4C64.8,12.2,64.8,9.4,64.8,9.4z"/>
		</g>
		<g>
			<path class="st1" d="M64.8,15.8h-3.6c-1.2,0-2.2,1-2.2,2.2c0,1.2,1,2.2,2.2,2.2h3.6C64.8,20.2,64.8,15.8,64.8,15.8z"/>
			<circle class="st2" cx="61.2" cy="18" r="1.4"/>
			<path class="st2" d="M64.8,16.6c-0.8,0-1.4,0.6-1.4,1.4c0,0.8,0.6,1.4,1.4,1.4C64.8,19.4,64.8,16.6,64.8,16.6z"/>
		</g>
		<g>
			<path class="st1" d="M64.8,23h-3.6C60,23,59,24,59,25.2c0,1.2,1,2.2,2.2,2.2h3.6C64.8,27.4,64.8,23,64.8,23z"/>
			<circle class="st2" cx="61.2" cy="25.2" r="1.4"/>
			<path class="st2" d="M64.8,23.8c-0.8,0-1.4,0.6-1.4,1.4c0,0.8,0.6,1.4,1.4,1.4V23.8L64.8,23.8z"/>
		</g>
		<g>
			<path class="st1" d="M64.8,30.2h-3.6c-1.2,0-2.2,1-2.2,2.2c0,1.2,1,2.2,2.2,2.2h3.6C64.8,34.6,64.8,30.2,64.8,30.2z"/>
			<circle class="st2" cx="61.2" cy="32.4" r="1.4"/>
			<path class="st2" d="M64.8,30.9c-0.8,0-1.4,0.6-1.4,1.4c0,0.8,0.6,1.4,1.4,1.4C64.8,33.8,64.8,30.9,64.8,30.9z"/>
		</g>
		<g>
			<path class="st1" d="M64.8,37.4h-3.6c-1.2,0-2.2,1-2.2,2.2c0,1.2,1,2.2,2.2,2.2h3.6V37.4z"/>
			<circle class="st2" cx="61.2" cy="39.6" r="1.4"/>
			<path class="st2" d="M64.8,38.1c-0.8,0-1.4,0.6-1.4,1.4c0,0.8,0.6,1.4,1.4,1.4V38.1L64.8,38.1z"/>
		</g>
		<g>
			<path class="st1" d="M64.8,44.6h-3.6c-1.2,0-2.2,1-2.2,2.2s1,2.2,2.2,2.2h3.6V44.6z"/>
			<circle class="st2" cx="61.2" cy="46.7" r="1.4"/>
			<path class="st2" d="M64.8,45.3c-0.8,0-1.4,0.6-1.4,1.4c0,0.8,0.6,1.4,1.4,1.4V45.3L64.8,45.3z"/>
		</g>
		<g>
			<path class="st1" d="M64.8,51.7h-3.6c-1.2,0-2.2,1-2.2,2.2c0,1.2,1,2.2,2.2,2.2h3.6V51.7z"/>
			<circle class="st2" cx="61.2" cy="53.9" r="1.4"/>
			<path class="st2" d="M64.8,52.5c-0.8,0-1.4,0.6-1.4,1.4c0,0.8,0.6,1.4,1.4,1.4V52.5L64.8,52.5z"/>
		</g>
		<g>
			<path class="st1" d="M64.8,58.9h-3.6c-1.2,0-2.2,1-2.2,2.2c0,1.2,1,2.2,2.2,2.2h3.6V58.9z"/>
			<circle class="st2" cx="61.2" cy="61.1" r="1.4"/>
			<path class="st2" d="M64.8,59.7c-0.8,0-1.4,0.6-1.4,1.4s0.6,1.4,1.4,1.4V59.7L64.8,59.7z"/>
		</g>
	</g>
</g>
<g>
	<circle cx="41.5" cy="61.5" r="2.7"/>
	<circle class="st3" cx="41.5" cy="61.5" r="1.4"/>
</g>
<g>
	<circle cx="9.6" cy="33.9" r="2.7"/>
	<circle class="st3" cx="9.6" cy="33.9" r="1.4"/>
</g>
<g>
	<rect x="37.1" y="18.9" class="st4" width="1.8" height="4.3"/>
	<rect x="36.9" y="21.4" class="st5" width="0.2" height="1.1"/>
	<rect x="38.9" y="21.4" class="st5" width="0.2" height="1.1"/>
	<rect x="36.9" y="19.5" class="st5" width="0.2" height="0.6"/>
	<rect x="38.9" y="19.5" class="st5" width="0.2" height="0.6"/>
</g>
<g>
	<g>
		<rect x="7.1" y="5.7" class="st6" width="7.9" height="8.5"/>
		<polygon class="st7" points="11.1,7.4 11.4,7.4 11.6,7.4 11.9,7.5 12.2,7.6 12.4,7.7 12.6,7.9 12.8,8.1 13,8.3 13.2,8.5 13.3,8.8 
			13.5,9 13.5,9.3 13.6,9.6 13.6,9.8 13.6,10.1 13.6,10.4 13.5,10.7 13.4,10.9 13.3,11.2 13.1,11.4 12.9,11.6 12.7,11.8 12.5,12 
			12.3,12.1 12,12.3 11.8,12.4 11.5,12.4 11.2,12.4 10.9,12.4 10.7,12.4 10.4,12.4 10.1,12.3 9.9,12.1 9.6,12 9.4,11.8 9.2,11.6 
			9,11.4 8.9,11.2 8.8,10.9 8.7,10.7 8.6,10.4 8.5,10.1 8.5,9.8 8.6,9.6 8.6,9.3 8.7,9 8.8,8.8 9,8.5 9.1,8.3 9.3,8.1 9.5,7.9 
			9.7,7.7 10,7.6 10.3,7.5 10.5,7.4 10.8,7.4 		"/>
	</g>
	<g>
		<rect x="8" y="4.8" class="st8" width="1.5" height="0.8"/>
		<rect x="12.7" y="4.8" class="st8" width="1.5" height="0.8"/>
	</g>
	<g>
		<rect x="8" y="14.1" class="st8" width="1.5" height="0.8"/>
		<rect x="12.7" y="14.1" class="st8" width="1.5" height="0.8"/>
	</g>
</g>
<g>
	<rect x="29.4" y="3.5" class="st9" width="4.2" height="18.4"/>
	<rect x="28.2" y="3.5" class="st10" width="1.2" height="18.4"/>
	<rect x="15.3" y="3.5" class="st10" width="11.8" height="18.4"/>
	<rect x="27.1" y="3.5" class="st11" width="1.2" height="18.4"/>
</g>
<path class="st8" d="M9.5,64.8v3l20.8,0v-3L9.5,64.8z"/>
<circle class="st3" cx="9" cy="46.2" r="1"/>
<circle class="st3" cx="12" cy="46.2" r="1"/>
<circle class="st3" cx="9" cy="27.4" r="1"/>
<circle class="st3" cx="12" cy="27.4" r="1"/>
<circle class="st3" cx="15.1" cy="27.4" r="1"/>
<circle class="st3" cx="13.6" cy="24.4" r="1"/>
<circle class="st3" cx="13.6" cy="17.3" r="1"/>
<circle class="st3" cx="9" cy="49.4" r="1"/>
<circle class="st3" cx="12" cy="49.4" r="1"/>
<g>
	<path class="st8" d="M5.3,3.2H3.5L3,3.7v1.8L3.5,6h1.9l0.5-0.5V3.7C5.8,3.7,5.3,3.2,5.3,3.2z"/>
	<g>
		<polyline class="st12" points="3.7,4.3 3.3,4.3 3.3,3.4 		"/>
		<path class="st12" d="M3.4,3.2c0,0,0,0.4-0.4,0.4"/>
	</g>
	<g>
		<polyline class="st12" points="3.7,4.8 3.3,4.8 3.3,5.7 		"/>
		<path class="st12" d="M3.4,6c0,0,0-0.4-0.4-0.4"/>
	</g>
	<g>
		<polyline class="st12" points="5.1,4.3 5.5,4.3 5.5,3.4 		"/>
		<path class="st12" d="M5.4,3.2c0,0,0,0.4,0.4,0.4"/>
	</g>
	<g>
		<polyline class="st12" points="5.1,4.8 5.5,4.8 5.5,5.7 		"/>
		<path class="st12" d="M5.4,6c0,0,0-0.4,0.4-0.4"/>
	</g>
	<rect x="3.7" y="3.2" class="st10" width="1.4" height="2.8"/>
</g>
<rect x="48.1" y="11" class="st4" width="6.9" height="6.9"/>
<g>
	<path class="st4" d="M53.5,20.5c0,0.4,0.1,0.8,0.2,1.1h-3.4c0.1-0.3,0.2-0.7,0.2-1.1c0-0.4-0.1-0.8-0.2-1.1h3.4
		C53.5,19.7,53.5,20.1,53.5,20.5"/>
	<path class="st13" d="M50.5,20.5c0,0.4-0.1,0.8-0.2,1.1h-0.6v-2.2h0.5C50.4,19.7,50.5,20.1,50.5,20.5"/>
	<path class="st13" d="M54.2,19.4v2.2h-0.5c-0.1-0.3-0.2-0.7-0.2-1.1c0-0.4,0.1-0.8,0.2-1.1H54.2z"/>
</g>
<g>
	<path class="st4" d="M35.6,61.3c0,0.4,0.1,0.8,0.2,1.1h-3.4c0.1-0.3,0.2-0.7,0.2-1.1c0-0.4-0.1-0.8-0.2-1.1h3.4
		C35.7,60.6,35.6,60.9,35.6,61.3"/>
	<path class="st13" d="M32.7,61.3c0,0.4-0.1,0.8-0.2,1.1h-0.6v-2.2h0.5C32.6,60.6,32.7,60.9,32.7,61.3"/>
	<path class="st13" d="M36.4,60.2v2.2h-0.5c-0.1-0.3-0.2-0.7-0.2-1.1c0-0.4,0.1-0.8,0.2-1.1C35.8,60.2,36.4,60.2,36.4,60.2z"/>
</g>
<g>
	<path class="st4" d="M55.9,27.3c0.4,0,0.8-0.1,1.1-0.2l0,3.4c-0.3-0.1-0.7-0.2-1.1-0.2c-0.4,0-0.8,0.1-1.1,0.2l0-3.4
		C55.1,27.2,55.5,27.3,55.9,27.3"/>
	<path class="st13" d="M55.9,30.2c0.4,0,0.8,0.1,1.1,0.2V31h-2.2v-0.5C55.1,30.3,55.5,30.2,55.9,30.2"/>
	<path class="st13" d="M54.8,26.5H57v0.5c-0.3,0.1-0.7,0.2-1.1,0.2c-0.4,0-0.8-0.1-1.1-0.2V26.5z"/>
</g>
<g>
	<path class="st4" d="M55.9,43c0.4,0,0.8-0.1,1.1-0.2l0,3.4C56.7,46,56.3,46,55.9,46c-0.4,0-0.8,0.1-1.1,0.2l0-3.4
		C55.1,42.9,55.5,43,55.9,43"/>
	<path class="st13" d="M55.9,46c0.4,0,0.8,0.1,1.1,0.2v0.6h-2.2v-0.5C55.1,46,55.5,46,55.9,46"/>
	<path class="st13" d="M54.8,42.3H57v0.5c-0.3,0.1-0.7,0.2-1.1,0.2c-0.4,0-0.8-0.1-1.1-0.2V42.3z"/>
</g>
<g>
	<path class="st4" d="M55.9,51.2c0.4,0,0.8-0.1,1.1-0.2l0,3.4c-0.3-0.1-0.7-0.2-1.1-0.2c-0.4,0-0.8,0.1-1.1,0.2l0-3.4
		C55.1,51.1,55.5,51.2,55.9,51.2"/>
	<path class="st13" d="M55.9,54.1c0.4,0,0.8,0.1,1.1,0.2v0.6h-2.2v-0.5C55.1,54.2,55.5,54.1,55.9,54.1"/>
	<path class="st13" d="M54.8,50.4H57V51c-0.3,0.1-0.7,0.2-1.1,0.2c-0.4,0-0.8-0.1-1.1-0.2V50.4z"/>
</g>
<g>
	<path class="st4" d="M42.2,16c0,0.4,0.1,0.8,0.2,1.1h-3.4c0.1-0.3,0.2-0.7,0.2-1.1c0-0.4-0.1-0.8-0.2-1.1h3.4
		C42.3,15.3,42.2,15.6,42.2,16"/>
	<path class="st13" d="M39.3,16c0,0.4-0.1,0.8-0.2,1.1h-0.6v-2.2h0.5C39.2,15.3,39.3,15.6,39.3,16"/>
	<path class="st13" d="M43,14.9v2.2h-0.5c-0.1-0.3-0.2-0.7-0.2-1.1c0-0.4,0.1-0.8,0.2-1.1H43z"/>
</g>
<g>
	<path class="st4" d="M45.6,20.5c0,0.4,0.1,0.8,0.2,1.1h-3.4c0.1-0.3,0.2-0.7,0.2-1.1c0-0.4-0.1-0.8-0.2-1.1h3.4
		C45.6,19.7,45.6,20.1,45.6,20.5"/>
	<path class="st13" d="M42.6,20.5c0,0.4-0.1,0.8-0.2,1.1h-0.6v-2.2h0.5C42.5,19.7,42.6,20.1,42.6,20.5"/>
	<path class="st13" d="M46.3,19.4v2.2h-0.5c-0.1-0.3-0.2-0.7-0.2-1.1c0-0.4,0.1-0.8,0.2-1.1H46.3z"/>
</g>
<g>
	<path class="st4" d="M56.8,8.8c0.3,0,0.5,0,0.7-0.1l0,2.3c-0.2-0.1-0.5-0.1-0.7-0.1c-0.3,0-0.5,0-0.7,0.1l0-2.3
		C56.3,8.8,56.5,8.8,56.8,8.8"/>
	<path class="st13" d="M56.8,10.8c0.3,0,0.5,0,0.7,0.1v0.4l-1.5,0V11C56.3,10.9,56.5,10.8,56.8,10.8"/>
	<path class="st13" d="M56,8.3l1.5,0v0.4c-0.2,0.1-0.5,0.1-0.7,0.1c-0.3,0-0.5,0-0.7-0.1V8.3L56,8.3z"/>
</g>
<g>
	<path class="st4" d="M40.5,25.1c0,0.3,0,0.5,0.1,0.7l-2.3,0c0.1-0.2,0.1-0.5,0.1-0.7c0-0.3,0-0.5-0.1-0.7l2.3,0
		C40.5,24.6,40.5,24.9,40.5,25.1"/>
	<path class="st13" d="M38.5,25.1c0,0.3,0,0.5-0.1,0.7h-0.4l0-1.5h0.4C38.4,24.6,38.5,24.9,38.5,25.1"/>
	<path class="st13" d="M41,24.4l0,1.5h-0.4c-0.1-0.2-0.1-0.5-0.1-0.7c0-0.3,0-0.5,0.1-0.7C40.6,24.4,41,24.4,41,24.4z"/>
</g>
<g>
	<path class="st4" d="M28.2,31.8c0.3,0,0.5,0,0.7-0.1l0,2.3c-0.2-0.1-0.5-0.1-0.7-0.1c-0.3,0-0.5,0-0.7,0.1l0-2.3
		C27.7,31.8,28,31.8,28.2,31.8"/>
	<path class="st13" d="M28.2,33.8c0.3,0,0.5,0,0.7,0.1v0.4l-1.5,0V34C27.7,33.9,28,33.8,28.2,33.8"/>
	<path class="st13" d="M27.5,31.3l1.5,0v0.4c-0.2,0.1-0.5,0.1-0.7,0.1c-0.3,0-0.5,0-0.7-0.1C27.5,31.7,27.5,31.3,27.5,31.3z"/>
</g>
<g>
	<path class="st4" d="M23.5,34.1c0,0.3,0,0.5,0.1,0.7l-2.3,0c0.1-0.2,0.1-0.5,0.1-0.7c0-0.3,0-0.5-0.1-0.7l2.3,0
		C23.6,33.6,23.5,33.8,23.5,34.1"/>
	<path class="st13" d="M21.5,34.1c0,0.3,0,0.5-0.1,0.7H21l0-1.5h0.4C21.5,33.6,21.5,33.8,21.5,34.1"/>
	<path class="st13" d="M24,33.3l0,1.5h-0.4c-0.1-0.2-0.1-0.5-0.1-0.7c0-0.3,0-0.5,0.1-0.7L24,33.3L24,33.3z"/>
</g>
<g>
	<path class="st4" d="M50.4,8.3c0.1,0,0.3,0,0.4-0.1v1.2c-0.1,0-0.2-0.1-0.4-0.1c-0.1,0-0.3,0-0.4,0.1V8.3
		C50.2,8.3,50.3,8.3,50.4,8.3"/>
	<path class="st13" d="M50.4,9.4c0.1,0,0.3,0,0.4,0.1v0.2h-0.8V9.5C50.2,9.4,50.3,9.4,50.4,9.4"/>
	<path class="st13" d="M50.1,8.1h0.8v0.2c-0.1,0-0.2,0.1-0.4,0.1c-0.1,0-0.3,0-0.4-0.1C50.1,8.3,50.1,8.1,50.1,8.1z"/>
</g>
<g>
	<path class="st4" d="M52.3,8.3c0.1,0,0.3,0,0.4-0.1v1.2c-0.1,0-0.2-0.1-0.4-0.1c-0.1,0-0.3,0-0.4,0.1V8.3C52,8.3,52.1,8.3,52.3,8.3
		"/>
	<path class="st13" d="M52.3,9.4c0.1,0,0.3,0,0.4,0.1v0.2h-0.8V9.5C52,9.4,52.1,9.4,52.3,9.4"/>
	<path class="st13" d="M51.9,8.1h0.8v0.2c-0.1,0-0.2,0.1-0.4,0.1c-0.1,0-0.3,0-0.4-0.1C51.9,8.3,51.9,8.1,51.9,8.1z"/>
</g>
<g>
	<path class="st4" d="M54.1,8.3c0.1,0,0.3,0,0.4-0.1v1.2c-0.1,0-0.2-0.1-0.4-0.1c-0.1,0-0.3,0-0.4,0.1V8.3
		C53.8,8.3,53.9,8.3,54.1,8.3"/>
	<path class="st13" d="M54.1,9.4c0.1,0,0.3,0,0.4,0.1v0.2h-0.8V9.5C53.8,9.4,53.9,9.4,54.1,9.4"/>
	<path class="st13" d="M53.7,8.1h0.8v0.2c-0.1,0-0.2,0.1-0.4,0.1c-0.1,0-0.3,0-0.4-0.1C53.7,8.3,53.7,8.1,53.7,8.1z"/>
</g>
<g>
	<path class="st4" d="M49.5,25.8c0.1,0,0.3,0,0.4-0.1v1.2c-0.1,0-0.2-0.1-0.4-0.1c-0.1,0-0.3,0-0.4,0.1v-1.2
		C49.2,25.8,49.4,25.8,49.5,25.8"/>
	<path class="st13" d="M49.5,26.8c0.1,0,0.3,0,0.4,0.1v0.2h-0.8v-0.2C49.2,26.9,49.4,26.8,49.5,26.8"/>
	<path class="st13" d="M49.1,25.5h0.8v0.2c-0.1,0-0.2,0.1-0.4,0.1c-0.1,0-0.3,0-0.4-0.1V25.5z"/>
</g>
<g>
	<path class="st4" d="M44.3,25.8c0.1,0,0.3,0,0.4-0.1v1.2c-0.1,0-0.2-0.1-0.4-0.1c-0.1,0-0.3,0-0.4,0.1v-1.2
		C44,25.8,44.2,25.8,44.3,25.8"/>
	<path class="st13" d="M44.3,26.8c0.1,0,0.3,0,0.4,0.1v0.2h-0.8v-0.2C44,26.9,44.2,26.8,44.3,26.8"/>
	<path class="st13" d="M43.9,25.5h0.8v0.2c-0.1,0-0.2,0.1-0.4,0.1c-0.1,0-0.3,0-0.4-0.1V25.5z"/>
</g>
<g>
	<path class="st4" d="M51.3,25.8c0.1,0,0.3,0,0.4-0.1v1.2c-0.1,0-0.2-0.1-0.4-0.1c-0.1,0-0.3,0-0.4,0.1v-1.2
		C51,25.8,51.2,25.8,51.3,25.8"/>
	<path class="st13" d="M51.3,26.8c0.1,0,0.3,0,0.4,0.1v0.2h-0.8v-0.2C51,26.9,51.2,26.8,51.3,26.8"/>
	<path class="st13" d="M50.9,25.5h0.8v0.2c-0.1,0-0.2,0.1-0.4,0.1c-0.1,0-0.3,0-0.4-0.1V25.5z"/>
</g>
<g>
	<path class="st4" d="M53.1,25.8c0.1,0,0.3,0,0.4-0.1v1.2c-0.1,0-0.2-0.1-0.4-0.1c-0.1,0-0.3,0-0.4,0.1v-1.2
		C52.8,25.8,53,25.8,53.1,25.8"/>
	<path class="st13" d="M53.1,26.8c0.1,0,0.3,0,0.4,0.1v0.2h-0.8v-0.2C52.8,26.9,53,26.8,53.1,26.8"/>
	<path class="st13" d="M52.7,25.5h0.8v0.2c-0.1,0-0.2,0.1-0.4,0.1c-0.1,0-0.3,0-0.4-0.1V25.5z"/>
</g>
<g>
	<path class="st4" d="M35.5,16.1c0.1,0,0.3,0,0.4-0.1v1.2c-0.1,0-0.2-0.1-0.4-0.1c-0.1,0-0.3,0-0.4,0.1V16
		C35.2,16.1,35.3,16.1,35.5,16.1"/>
	<path class="st13" d="M35.5,17.1c0.1,0,0.3,0,0.4,0.1v0.2h-0.8v-0.2C35.2,17.2,35.3,17.1,35.5,17.1"/>
	<path class="st13" d="M35.1,15.8h0.8V16c-0.1,0-0.2,0.1-0.4,0.1c-0.1,0-0.3,0-0.4-0.1V15.8z"/>
</g>
<g>
	<path class="st4" d="M35.5,19.5c0.1,0,0.3,0,0.4-0.1v1.2c-0.1,0-0.2-0.1-0.4-0.1c-0.1,0-0.3,0-0.4,0.1v-1.2
		C35.2,19.5,35.3,19.5,35.5,19.5"/>
	<path class="st13" d="M35.5,20.5c0.1,0,0.3,0,0.4,0.1v0.2h-0.8v-0.2C35.2,20.6,35.3,20.5,35.5,20.5"/>
	<path class="st13" d="M35.1,19.2h0.8v0.2c-0.1,0-0.2,0.1-0.4,0.1c-0.1,0-0.3,0-0.4-0.1V19.2z"/>
</g>
<g>
	<path class="st4" d="M46.6,10.3c0,0.1,0,0.3,0.1,0.4h-1.2c0-0.1,0.1-0.2,0.1-0.4c0-0.1,0-0.3-0.1-0.4h1.2
		C46.6,10,46.6,10.2,46.6,10.3"/>
	<path class="st13" d="M45.5,10.3c0,0.1,0,0.3-0.1,0.4h-0.2V9.9h0.2C45.5,10,45.5,10.2,45.5,10.3"/>
	<path class="st13" d="M46.9,9.9v0.8h-0.2c0-0.1-0.1-0.2-0.1-0.4c0-0.1,0-0.3,0.1-0.4H46.9z"/>
</g>
<g>
	<path class="st4" d="M46.6,12.3c0,0.1,0,0.3,0.1,0.4h-1.2c0-0.1,0.1-0.2,0.1-0.4c0-0.1,0-0.3-0.1-0.4h1.2
		C46.6,12,46.6,12.2,46.6,12.3"/>
	<path class="st13" d="M45.5,12.3c0,0.1,0,0.3-0.1,0.4h-0.2v-0.8h0.2C45.5,12,45.5,12.2,45.5,12.3"/>
	<path class="st13" d="M46.9,11.9v0.8h-0.2c0-0.1-0.1-0.2-0.1-0.4c0-0.1,0-0.3,0.1-0.4H46.9z"/>
</g>
<g>
	<path class="st4" d="M46.6,14.1c0,0.1,0,0.3,0.1,0.4h-1.2c0-0.1,0.1-0.2,0.1-0.4c0-0.1,0-0.3-0.1-0.4h1.2
		C46.6,13.8,46.6,13.9,46.6,14.1"/>
	<path class="st13" d="M45.5,14.1c0,0.1,0,0.3-0.1,0.4h-0.2v-0.8h0.2C45.5,13.8,45.5,13.9,45.5,14.1"/>
	<path class="st13" d="M46.9,13.7v0.8h-0.2c0-0.1-0.1-0.2-0.1-0.4c0-0.1,0-0.3,0.1-0.4H46.9z"/>
</g>
<g>
	<path class="st4" d="M46.6,15.8c0,0.1,0,0.3,0.1,0.4h-1.2c0-0.1,0.1-0.2,0.1-0.4c0-0.1,0-0.3-0.1-0.4h1.2
		C46.6,15.6,46.6,15.7,46.6,15.8"/>
	<path class="st13" d="M45.5,15.8c0,0.1,0,0.3-0.1,0.4h-0.2v-0.8h0.2C45.5,15.6,45.5,15.7,45.5,15.8"/>
	<path class="st13" d="M46.9,15.4v0.8h-0.2c0-0.1-0.1-0.2-0.1-0.4c0-0.1,0-0.3,0.1-0.4C46.7,15.4,46.9,15.4,46.9,15.4z"/>
</g>
<g>
	<path class="st4" d="M20,1.8c0,0.1,0,0.3,0.1,0.4h-1.2c0-0.1,0.1-0.2,0.1-0.4c0-0.1,0-0.3-0.1-0.4h1.2C20,1.5,20,1.7,20,1.8"/>
	<path class="st13" d="M18.9,1.8c0,0.1,0,0.3-0.1,0.4h-0.2V1.4h0.2C18.9,1.5,18.9,1.7,18.9,1.8"/>
	<path class="st13" d="M20.3,1.4v0.8h-0.2C20,2.1,20,1.9,20,1.8c0-0.1,0-0.3,0.1-0.4H20.3z"/>
</g>
<g>
	<path class="st4" d="M13.9,1.9c0.1,0,0.3,0,0.4-0.1v1.2C14.1,3,14,3,13.9,3c-0.1,0-0.3,0-0.4,0.1V1.9C13.6,1.9,13.7,1.9,13.9,1.9"
		/>
	<path class="st13" d="M13.9,3c0.1,0,0.3,0,0.4,0.1v0.2h-0.8V3.1C13.6,3,13.7,3,13.9,3"/>
	<path class="st13" d="M13.5,1.7h0.8v0.2c-0.1,0-0.2,0.1-0.4,0.1c-0.1,0-0.3,0-0.4-0.1C13.5,1.9,13.5,1.7,13.5,1.7z"/>
</g>
<g>
	<path class="st4" d="M13.6,19.6c0.1,0,0.3,0,0.4-0.1v1.2c-0.1,0-0.2-0.1-0.4-0.1c-0.1,0-0.3,0-0.4,0.1v-1.2
		C13.4,19.6,13.5,19.6,13.6,19.6"/>
	<path class="st13" d="M13.6,20.7c0.1,0,0.3,0,0.4,0.1v0.2h-0.8v-0.2C13.4,20.7,13.5,20.7,13.6,20.7"/>
	<path class="st13" d="M13.2,19.3H14v0.2c-0.1,0-0.2,0.1-0.4,0.1c-0.1,0-0.3,0-0.4-0.1C13.2,19.5,13.2,19.3,13.2,19.3z"/>
</g>
<g>
	<path class="st4" d="M37,30.2c0,0.1,0,0.3,0.1,0.4h-1.2c0-0.1,0.1-0.2,0.1-0.4c0-0.1,0-0.3-0.1-0.4h1.2C37,29.9,37,30.1,37,30.2"/>
	<path class="st13" d="M36,30.2c0,0.1,0,0.3-0.1,0.4h-0.2v-0.8h0.2C35.9,29.9,36,30.1,36,30.2"/>
	<path class="st13" d="M37.3,29.8v0.8h-0.2c0-0.1-0.1-0.2-0.1-0.4c0-0.1,0-0.3,0.1-0.4H37.3z"/>
</g>
<g>
	<path class="st4" d="M37,32.2c0,0.1,0,0.3,0.1,0.4h-1.2c0-0.1,0.1-0.2,0.1-0.4c0-0.1,0-0.3-0.1-0.4h1.2C37,31.9,37,32.1,37,32.2"/>
	<path class="st13" d="M36,32.2c0,0.1,0,0.3-0.1,0.4h-0.2v-0.8h0.2C35.9,31.9,36,32.1,36,32.2"/>
	<path class="st13" d="M37.3,31.8v0.8h-0.2c0-0.1-0.1-0.2-0.1-0.4c0-0.1,0-0.3,0.1-0.4C37.1,31.8,37.3,31.8,37.3,31.8z"/>
</g>
<g>
	<path class="st4" d="M9.5,22.5c0,0.1,0,0.3,0.1,0.4H8.4c0-0.1,0.1-0.2,0.1-0.4c0-0.1,0-0.3-0.1-0.4h1.2C9.5,22.2,9.5,22.3,9.5,22.5
		"/>
	<path class="st13" d="M8.4,22.5c0,0.1,0,0.3-0.1,0.4H8.2v-0.8h0.2C8.4,22.2,8.4,22.3,8.4,22.5"/>
	<path class="st13" d="M9.8,22.1v0.8H9.6c0-0.1-0.1-0.2-0.1-0.4c0-0.1,0-0.3,0.1-0.4C9.6,22.1,9.8,22.1,9.8,22.1z"/>
</g>
<g>
	<path class="st4" d="M9.5,24.5c0,0.1,0,0.3,0.1,0.4H8.4c0-0.1,0.1-0.2,0.1-0.4c0-0.1,0-0.3-0.1-0.4h1.2C9.5,24.2,9.5,24.3,9.5,24.5
		"/>
	<path class="st13" d="M8.4,24.5c0,0.1,0,0.3-0.1,0.4H8.2v-0.8h0.2C8.4,24.2,8.4,24.3,8.4,24.5"/>
	<path class="st13" d="M9.8,24.1v0.8H9.6c0-0.1-0.1-0.2-0.1-0.4c0-0.1,0-0.3,0.1-0.4C9.6,24.1,9.8,24.1,9.8,24.1z"/>
</g>
<g>
	<path class="st4" d="M37,34c0,0.1,0,0.3,0.1,0.4h-1.2c0-0.1,0.1-0.2,0.1-0.4c0-0.1,0-0.3-0.1-0.4h1.2C37,33.7,37,33.8,37,34"/>
	<path class="st13" d="M36,34c0,0.1,0,0.3-0.1,0.4h-0.2v-0.8h0.2C35.9,33.7,36,33.8,36,34"/>
	<path class="st13" d="M37.3,33.6v0.8h-0.2c0-0.1-0.1-0.2-0.1-0.4c0-0.1,0-0.3,0.1-0.4H37.3z"/>
</g>
<g>
	<path class="st4" d="M37,35.7c0,0.1,0,0.3,0.1,0.4h-1.2c0-0.1,0.1-0.2,0.1-0.4c0-0.1,0-0.3-0.1-0.4h1.2C37,35.5,37,35.6,37,35.7"/>
	<path class="st13" d="M36,35.7c0,0.1,0,0.3-0.1,0.4h-0.2v-0.8h0.2C35.9,35.5,36,35.6,36,35.7"/>
	<path class="st13" d="M37.3,35.3v0.8h-0.2c0-0.1-0.1-0.2-0.1-0.4c0-0.1,0-0.3,0.1-0.4H37.3z"/>
</g>
<g>
	<path class="st4" d="M41.6,37.9c0,0.2,0,0.3,0.1,0.4h-1.4c0.1-0.1,0.1-0.3,0.1-0.4c0-0.2,0-0.3-0.1-0.4h1.4
		C41.7,37.6,41.6,37.7,41.6,37.9"/>
	<path class="st13" d="M40.4,37.9c0,0.2,0,0.3-0.1,0.4h-0.2v-0.9h0.2C40.4,37.6,40.4,37.7,40.4,37.9"/>
	<path class="st13" d="M42,37.5v0.9h-0.2c-0.1-0.1-0.1-0.3-0.1-0.4c0-0.2,0-0.3,0.1-0.4C41.7,37.5,42,37.5,42,37.5z"/>
</g>
<g>
	<path class="st4" d="M19.4,39.4c0.2,0,0.3,0,0.4-0.1v1.4c-0.1-0.1-0.3-0.1-0.4-0.1c-0.2,0-0.3,0-0.4,0.1v-1.4
		C19.1,39.4,19.3,39.4,19.4,39.4"/>
	<path class="st13" d="M19.4,40.7c0.2,0,0.3,0,0.4,0.1V41H19v-0.2C19.1,40.7,19.3,40.7,19.4,40.7"/>
	<path class="st13" d="M19,39.1h0.9v0.2c-0.1,0.1-0.3,0.1-0.4,0.1c-0.2,0-0.3,0-0.4-0.1C19,39.3,19,39.1,19,39.1z"/>
</g>
<g>
	<path class="st4" d="M41.6,39.9c0,0.2,0,0.3,0.1,0.4h-1.4c0.1-0.1,0.1-0.3,0.1-0.4c0-0.2,0-0.3-0.1-0.4h1.4
		C41.7,39.6,41.6,39.8,41.6,39.9"/>
	<path class="st13" d="M40.4,39.9c0,0.2,0,0.3-0.1,0.4h-0.2v-0.9h0.2C40.4,39.6,40.4,39.8,40.4,39.9"/>
	<path class="st13" d="M42,39.5v0.9h-0.2c-0.1-0.1-0.1-0.3-0.1-0.4c0-0.2,0-0.3,0.1-0.4C41.7,39.5,42,39.5,42,39.5z"/>
</g>
<g>
	<path class="st4" d="M46.6,17.5c0,0.1,0,0.3,0.1,0.4h-1.2c0-0.1,0.1-0.2,0.1-0.4c0-0.1,0-0.3-0.1-0.4h1.2
		C46.6,17.2,46.6,17.4,46.6,17.5"/>
	<path class="st13" d="M45.5,17.5c0,0.1,0,0.3-0.1,0.4h-0.2v-0.8h0.2C45.5,17.2,45.5,17.4,45.5,17.5"/>
	<path class="st13" d="M46.9,17.1v0.8h-0.2c0-0.1-0.1-0.2-0.1-0.4c0-0.1,0-0.3,0.1-0.4H46.9z"/>
</g>
<g>
	<path class="st8" d="M48.5,9.4c-0.1,0-0.3,0-0.4,0.1V8.3c0.1,0,0.2,0.1,0.4,0.1c0.1,0,0.3,0,0.4-0.1v1.2
		C48.8,9.4,48.6,9.4,48.5,9.4"/>
	<path class="st13" d="M48.5,8.3c-0.1,0-0.3,0-0.4-0.1V8.1h0.8v0.2C48.8,8.3,48.6,8.3,48.5,8.3"/>
	<path class="st13" d="M48.9,9.7h-0.8V9.5c0.1,0,0.2-0.1,0.4-0.1c0.1,0,0.3,0,0.4,0.1C48.9,9.5,48.9,9.7,48.9,9.7z"/>
</g>
<g>
	<path class="st8" d="M51.3,29.4c0-0.1,0-0.3-0.1-0.4h1.2c0,0.1-0.1,0.2-0.1,0.4c0,0.1,0,0.3,0.1,0.4h-1.2
		C51.3,29.7,51.3,29.6,51.3,29.4"/>
	<path class="st13" d="M52.4,29.4c0-0.1,0-0.3,0.1-0.4h0.2v0.8h-0.2C52.4,29.7,52.4,29.6,52.4,29.4"/>
	<path class="st13" d="M51.1,29.8v-0.8h0.2c0,0.1,0.1,0.2,0.1,0.4c0,0.1,0,0.3-0.1,0.4C51.2,29.8,51.1,29.8,51.1,29.8z"/>
</g>
<g>
	<path class="st8" d="M15.8,1.8c0-0.1,0-0.3-0.1-0.4h1.2c0,0.1-0.1,0.2-0.1,0.4c0,0.1,0,0.3,0.1,0.4h-1.2
		C15.8,2.1,15.8,1.9,15.8,1.8"/>
	<path class="st13" d="M16.9,1.8c0-0.1,0-0.3,0.1-0.4h0.2v0.8h-0.2C16.9,2.1,16.9,1.9,16.9,1.8"/>
	<path class="st13" d="M15.5,2.2V1.4h0.2c0,0.1,0.1,0.2,0.1,0.4c0,0.1,0,0.3-0.1,0.4L15.5,2.2L15.5,2.2z"/>
</g>
<g>
	<path class="st8" d="M8.1,18.8c-0.1,0-0.3,0-0.4,0.1v-1.2c0.1,0,0.2,0.1,0.4,0.1c0.1,0,0.3,0,0.4-0.1v1.2
		C8.4,18.8,8.2,18.8,8.1,18.8"/>
	<path class="st13" d="M8.1,17.7c-0.1,0-0.3,0-0.4-0.1v-0.2h0.8v0.2C8.4,17.7,8.2,17.7,8.1,17.7"/>
	<path class="st13" d="M8.5,19.1H7.7v-0.2c0.1,0,0.2-0.1,0.4-0.1c0.1,0,0.3,0,0.4,0.1L8.5,19.1L8.5,19.1z"/>
</g>
<g>
	<path class="st8" d="M26,34.2c-0.1,0-0.3,0-0.4,0.1v-1.2c0.1,0,0.2,0.1,0.4,0.1c0.1,0,0.3,0,0.4-0.1v1.2
		C26.3,34.3,26.1,34.2,26,34.2"/>
	<path class="st13" d="M26,33.2c-0.1,0-0.3,0-0.4-0.1v-0.2h0.8v0.2C26.3,33.2,26.1,33.2,26,33.2"/>
	<path class="st13" d="M26.4,34.5h-0.8v-0.2c0.1,0,0.2-0.1,0.4-0.1c0.1,0,0.3,0,0.4,0.1C26.4,34.3,26.4,34.5,26.4,34.5z"/>
</g>
<g>
	<path class="st8" d="M48.9,54.3c-0.1,0-0.3,0-0.4,0.1v-1.2c0.1,0,0.2,0.1,0.4,0.1c0.1,0,0.3,0,0.4-0.1v1.2
		C49.2,54.4,49,54.3,48.9,54.3"/>
	<path class="st13" d="M48.9,53.3c-0.1,0-0.3,0-0.4-0.1V53h0.8v0.2C49.2,53.2,49,53.3,48.9,53.3"/>
	<path class="st13" d="M49.3,54.6h-0.8v-0.2c0.1,0,0.2-0.1,0.4-0.1c0.1,0,0.3,0,0.4,0.1L49.3,54.6L49.3,54.6z"/>
</g>
<g>
	<path class="st8" d="M51.3,31.4c0-0.1,0-0.3-0.1-0.4h1.2c0,0.1-0.1,0.2-0.1,0.4c0,0.1,0,0.3,0.1,0.4h-1.2
		C51.3,31.7,51.3,31.6,51.3,31.4"/>
	<path class="st13" d="M52.4,31.4c0-0.1,0-0.3,0.1-0.4h0.2v0.8h-0.2C52.4,31.7,52.4,31.6,52.4,31.4"/>
	<path class="st13" d="M51.1,31.8v-0.8h0.2c0,0.1,0.1,0.2,0.1,0.4c0,0.1,0,0.3-0.1,0.4C51.2,31.8,51.1,31.8,51.1,31.8z"/>
</g>
<g>
	<path class="st8" d="M31.6,35.5c0-0.1,0-0.3-0.1-0.4h1.2c0,0.1-0.1,0.2-0.1,0.4c0,0.1,0,0.3,0.1,0.4h-1.2
		C31.6,35.8,31.6,35.7,31.6,35.5"/>
	<path class="st13" d="M32.7,35.5c0-0.1,0-0.3,0.1-0.4h0.2v0.8h-0.2C32.7,35.8,32.7,35.7,32.7,35.5"/>
	<path class="st13" d="M31.3,35.9v-0.8h0.2c0,0.1,0.1,0.2,0.1,0.4c0,0.1,0,0.3-0.1,0.4L31.3,35.9L31.3,35.9z"/>
</g>
<g>
	<path class="st8" d="M31.9,44.1c0-0.1,0-0.3-0.1-0.4H33c0,0.1-0.1,0.2-0.1,0.4c0,0.1,0,0.3,0.1,0.4h-1.2
		C31.8,44.4,31.9,44.2,31.9,44.1"/>
	<path class="st13" d="M32.9,44.1c0-0.1,0-0.3,0.1-0.4h0.2v0.8H33C33,44.4,32.9,44.2,32.9,44.1"/>
	<path class="st13" d="M31.6,44.5v-0.8h0.2c0,0.1,0.1,0.2,0.1,0.4c0,0.1,0,0.3-0.1,0.4L31.6,44.5L31.6,44.5z"/>
</g>
<g>
	<path class="st8" d="M28.5,44.1c0-0.1,0-0.3-0.1-0.4h1.2c0,0.1-0.1,0.2-0.1,0.4c0,0.1,0,0.3,0.1,0.4h-1.2
		C28.4,44.4,28.5,44.2,28.5,44.1"/>
	<path class="st13" d="M29.5,44.1c0-0.1,0-0.3,0.1-0.4h0.2v0.8h-0.2C29.5,44.4,29.5,44.2,29.5,44.1"/>
	<path class="st13" d="M28.2,44.5v-0.8h0.2c0,0.1,0.1,0.2,0.1,0.4c0,0.1,0,0.3-0.1,0.4L28.2,44.5L28.2,44.5z"/>
</g>
<g>
	<path class="st8" d="M28.5,45.9c0-0.1,0-0.3-0.1-0.4h1.2c0,0.1-0.1,0.2-0.1,0.4c0,0.1,0,0.3,0.1,0.4h-1.2
		C28.4,46.2,28.5,46.1,28.5,45.9"/>
	<path class="st13" d="M29.5,45.9c0-0.1,0-0.3,0.1-0.4h0.2v0.8h-0.2C29.5,46.2,29.5,46.1,29.5,45.9"/>
	<path class="st13" d="M28.2,46.3v-0.8h0.2c0,0.1,0.1,0.2,0.1,0.4c0,0.1,0,0.3-0.1,0.4L28.2,46.3L28.2,46.3z"/>
</g>
<g>
	<path class="st8" d="M28.2,47.9c0.1,0,0.3,0,0.4-0.1V49c-0.1,0-0.2-0.1-0.4-0.1c-0.1,0-0.3,0-0.4,0.1v-1.2
		C28,47.8,28.1,47.9,28.2,47.9"/>
	<path class="st13" d="M28.2,48.9c0.1,0,0.3,0,0.4,0.1v0.2h-0.8V49C28,48.9,28.1,48.9,28.2,48.9"/>
	<path class="st13" d="M27.9,47.6h0.8v0.2c-0.1,0-0.2,0.1-0.4,0.1c-0.1,0-0.3,0-0.4-0.1C27.9,47.8,27.9,47.6,27.9,47.6z"/>
</g>
<g>
	<path class="st8" d="M19.9,56.5c0.1,0,0.3,0,0.4-0.1v1.2c-0.1,0-0.2-0.1-0.4-0.1c-0.1,0-0.3,0-0.4,0.1v-1.2
		C19.6,56.4,19.8,56.5,19.9,56.5"/>
	<path class="st13" d="M19.9,57.5c0.1,0,0.3,0,0.4,0.1v0.2h-0.8v-0.2C19.6,57.5,19.8,57.5,19.9,57.5"/>
	<path class="st13" d="M19.5,56.2h0.8v0.2c-0.1,0-0.2,0.1-0.4,0.1c-0.1,0-0.3,0-0.4-0.1C19.5,56.4,19.5,56.2,19.5,56.2z"/>
</g>
<g>
	<path class="st8" d="M29.9,56.8c0.1,0,0.3,0,0.4-0.1v1.2c-0.1,0-0.2-0.1-0.4-0.1c-0.1,0-0.3,0-0.4,0.1v-1.2
		C29.6,56.8,29.7,56.8,29.9,56.8"/>
	<path class="st13" d="M29.9,57.8c0.1,0,0.3,0,0.4,0.1v0.2h-0.8v-0.2C29.6,57.9,29.7,57.8,29.9,57.8"/>
	<path class="st13" d="M29.5,56.5h0.8v0.2c-0.1,0-0.2,0.1-0.4,0.1c-0.1,0-0.3,0-0.4-0.1C29.5,56.7,29.5,56.5,29.5,56.5z"/>
</g>
<g>
	<path class="st8" d="M36.9,56.8c0.1,0,0.3,0,0.4-0.1v1.2c-0.1,0-0.2-0.1-0.4-0.1c-0.1,0-0.3,0-0.4,0.1v-1.2
		C36.7,56.8,36.8,56.8,36.9,56.8"/>
	<path class="st13" d="M36.9,57.8c0.1,0,0.3,0,0.4,0.1v0.2h-0.8v-0.2C36.7,57.9,36.8,57.8,36.9,57.8"/>
	<path class="st13" d="M36.5,56.5h0.8v0.2c-0.1,0-0.2,0.1-0.4,0.1c-0.1,0-0.3,0-0.4-0.1L36.5,56.5L36.5,56.5z"/>
</g>
<g>
	<path class="st8" d="M19.9,59.9c0.1,0,0.3,0,0.4-0.1v1.2C20.2,61,20,61,19.9,61c-0.1,0-0.3,0-0.4,0.1v-1.2
		C19.6,59.9,19.8,59.9,19.9,59.9"/>
	<path class="st13" d="M19.9,61c0.1,0,0.3,0,0.4,0.1v0.2h-0.8v-0.2C19.6,61,19.8,61,19.9,61"/>
	<path class="st13" d="M19.5,59.7h0.8v0.2c-0.1,0-0.2,0.1-0.4,0.1c-0.1,0-0.3,0-0.4-0.1C19.5,59.9,19.5,59.7,19.5,59.7z"/>
</g>
<g>
	<path class="st8" d="M51.3,33.4c0-0.1,0-0.3-0.1-0.4h1.2c0,0.1-0.1,0.2-0.1,0.4c0,0.1,0,0.3,0.1,0.4h-1.2
		C51.3,33.7,51.3,33.6,51.3,33.4"/>
	<path class="st13" d="M52.4,33.4c0-0.1,0-0.3,0.1-0.4h0.2v0.8h-0.2C52.4,33.7,52.4,33.6,52.4,33.4"/>
	<path class="st13" d="M51.1,33.8v-0.8h0.2c0,0.1,0.1,0.2,0.1,0.4c0,0.1,0,0.3-0.1,0.4L51.1,33.8L51.1,33.8z"/>
</g>
<g>
	<path class="st8" d="M51.3,35.5c0-0.1,0-0.3-0.1-0.4h1.2c0,0.1-0.1,0.2-0.1,0.4c0,0.1,0,0.3,0.1,0.4h-1.2
		C51.3,35.7,51.3,35.6,51.3,35.5"/>
	<path class="st13" d="M52.4,35.5c0-0.1,0-0.3,0.1-0.4h0.2v0.8h-0.2C52.4,35.7,52.4,35.6,52.4,35.5"/>
	<path class="st13" d="M51.1,35.8v-0.8h0.2c0,0.1,0.1,0.2,0.1,0.4c0,0.1,0,0.3-0.1,0.4L51.1,35.8L51.1,35.8z"/>
</g>
<g>
	<path class="st8" d="M56.8,14.6c-0.1,0-0.3,0-0.4,0.1v-1.2c0.1,0,0.2,0.1,0.4,0.1c0.1,0,0.3,0,0.4-0.1v1.2
		C57,14.6,56.9,14.6,56.8,14.6"/>
	<path class="st13" d="M56.8,13.5c-0.1,0-0.3,0-0.4-0.1v-0.2h0.8v0.2C57,13.5,56.9,13.5,56.8,13.5"/>
	<path class="st13" d="M57.2,14.9h-0.8v-0.2c0.1,0,0.2-0.1,0.4-0.1c0.1,0,0.3,0,0.4,0.1C57.2,14.7,57.2,14.9,57.2,14.9z"/>
</g>
<g>
	<path class="st8" d="M56.8,17.7c-0.1,0-0.3,0-0.4,0.1v-1.2c0.1,0,0.2,0.1,0.4,0.1c0.1,0,0.3,0,0.4-0.1v1.2
		C57,17.7,56.9,17.7,56.8,17.7"/>
	<path class="st13" d="M56.8,16.6c-0.1,0-0.3,0-0.4-0.1v-0.2h0.8v0.2C57,16.6,56.9,16.6,56.8,16.6"/>
	<path class="st13" d="M57.2,17.9h-0.8v-0.2c0.1,0,0.2-0.1,0.4-0.1c0.1,0,0.3,0,0.4,0.1V17.9z"/>
</g>
<g>
	<path class="st8" d="M56.8,20.7c-0.1,0-0.3,0-0.4,0.1v-1.2c0.1,0,0.2,0.1,0.4,0.1c0.1,0,0.3,0,0.4-0.1v1.2
		C57,20.8,56.9,20.7,56.8,20.7"/>
	<path class="st13" d="M56.8,19.7c-0.1,0-0.3,0-0.4-0.1v-0.2h0.8v0.2C57,19.7,56.9,19.7,56.8,19.7"/>
	<path class="st13" d="M57.2,21h-0.8v-0.2c0.1,0,0.2-0.1,0.4-0.1c0.1,0,0.3,0,0.4,0.1V21z"/>
</g>
<g>
	<path class="st8" d="M51.5,23.5c0-0.2,0-0.5-0.1-0.7h2.1c-0.1,0.2-0.1,0.4-0.1,0.7c0,0.2,0,0.5,0.1,0.7h-2.1
		C51.5,23.9,51.5,23.7,51.5,23.5"/>
	<path class="st13" d="M53.4,23.5c0-0.2,0-0.5,0.1-0.7h0.3v1.3h-0.3C53.4,23.9,53.4,23.7,53.4,23.5"/>
	<path class="st13" d="M51.1,24.1v-1.3h0.3c0.1,0.2,0.1,0.4,0.1,0.7c0,0.2,0,0.5-0.1,0.7C51.4,24.1,51.1,24.1,51.1,24.1z"/>
</g>
<rect x="40" y="29.1" class="st4" width="8.5" height="7"/>
<rect x="30.2" y="47.3" class="st4" width="5.4" height="3.9"/>
<circle class="st2" cx="48.3" cy="41.1" r="1.2"/>
<g>
	<rect x="20.9" y="38.3" class="st4" width="5.6" height="3.4"/>
	<rect x="25.3" y="41.8" class="st8" width="0.6" height="1.3"/>
	<rect x="23.4" y="41.8" class="st8" width="0.6" height="1.3"/>
	<rect x="21.5" y="41.8" class="st8" width="0.6" height="1.3"/>
	<rect x="25.3" y="37.1" class="st8" width="0.6" height="1.3"/>
	<rect x="23.4" y="37.1" class="st8" width="0.6" height="1.3"/>
	<rect x="21.5" y="37.1" class="st8" width="0.6" height="1.3"/>
	<circle class="st2" cx="25.8" cy="39" r="0.2"/>
</g>
<rect x="7.8" y="0.9" class="st4" width="4.5" height="2.7"/>
<rect x="9.6" y="16.7" class="st4" width="2.4" height="4.3"/>
<rect x="26.1" y="1.3" class="st3" width="1.9" height="1.7"/>
<g>
	<rect x="21.9" y="1.2" class="st1" width="3.1" height="1.9"/>
	<polygon class="st14" points="24.9,3.1 23.9,3.1 23.9,2.7 23.7,2.5 23.3,2.5 23.1,2.7 23.1,3.1 22.1,3.1 22.1,2.3 22.9,1.5 
		24.1,1.5 24.9,2.3 	"/>
</g>
<g>
	<polygon class="st8" points="47.6,61.6 47.3,61.6 47.2,61.6 46.1,61.6 46.1,62.1 47.3,62.1 47.3,62 47.6,62 	"/>
	<polygon class="st8" points="54.3,61.6 54.7,61.6 54.8,61.6 55.9,61.6 55.9,62.1 54.7,62.1 54.7,62 54.3,62 	"/>
	<polygon class="st10" points="45.4,56.9 45.4,61.6 45.4,62.2 45.8,62.2 46,61.9 46.5,61.9 46.5,61.6 55.4,61.6 55.4,61.9 
		55.9,61.9 56.1,62.2 56.5,62.2 56.5,61.6 56.5,56.9 	"/>
	<rect x="47.6" y="61.6" class="st11" width="6.7" height="1.2"/>
	<rect x="47.6" y="62.8" class="st10" width="6.7" height="1.7"/>
	<rect x="46.1" y="62.1" class="st11" width="1.3" height="0.7"/>
	<polygon class="st10" points="47.4,62.9 46.1,62.9 46.3,63.2 47.1,63.2 	"/>
	<rect x="54.6" y="62.1" class="st11" width="1.3" height="0.7"/>
	<polygon class="st10" points="55.9,62.9 54.6,62.9 54.8,63.2 55.7,63.2 	"/>
	<g>
		<rect x="48.6" y="56" class="st11" width="0.4" height="0.9"/>
		<rect x="50" y="56" class="st11" width="0.4" height="0.9"/>
		<rect x="51.5" y="56" class="st11" width="0.4" height="0.9"/>
		<rect x="52.9" y="56" class="st11" width="0.4" height="0.9"/>
	</g>
</g>
<g>
	<rect x="28" y="37.3" class="st4" width="6.7" height="5.3"/>
	<circle class="st15" cx="28.8" cy="41.8" r="0.3"/>
</g>
<rect x="31.2" y="54.5" class="st16" width="4.3" height="4.3"/>
<g>
	<rect x="21.6" y="54.2" class="st4" width="7.2" height="8"/>
	<circle class="st17" cx="27.8" cy="55.2" r="0.4"/>
</g>
</svg>
