<svg xmlns="http://www.w3.org/2000/svg" width="65" height="68" fill="none" viewBox="0 0 65 68"><g clip-path="url(#a)"><path fill="#3f4642" d="M6.03 0A6.024 6.024 0 0 0 .003 6.027v58.78H64.8V0zm26.372 2.234a.737.737 0 1 1 0-1.475.737.737 0 0 1 0 1.475"/><path fill="#b8ada2" d="M44.584.004v3.58a2.187 2.187 0 0 0 4.375 0V.004z"/><path fill="#fff" d="M46.774 5.025a1.427 1.427 0 1 0 0-2.854 1.427 1.427 0 0 0 0 2.854M45.35.004a1.425 1.425 0 1 0 2.852 0z"/><path fill="#b8ada2" d="M51.782.004v3.58a2.188 2.188 0 0 0 4.375 0V.004z"/><path fill="#fff" d="M53.972 5.025a1.427 1.427 0 1 0 0-2.854 1.427 1.427 0 0 0 0 2.854M52.548.004a1.427 1.427 0 1 0 2.852 0z"/><path fill="#b8ada2" d="M0 12.968h3.58a2.188 2.188 0 0 0 0-4.375H0z"/><path fill="#fff" d="M3.594 12.206a1.427 1.427 0 1 0 0-2.854 1.427 1.427 0 0 0 0 2.854M0 12.202A1.427 1.427 0 1 0 0 9.35z"/><path fill="#b8ada2" d="M0 20.171h3.58a2.188 2.188 0 0 0 0-4.375H0z"/><path fill="#fff" d="M3.594 19.409a1.427 1.427 0 1 0 0-2.854 1.427 1.427 0 0 0 0 2.854M0 19.405a1.427 1.427 0 1 0 0-2.852z"/><path fill="#b8ada2" d="M0 27.374h3.58a2.187 2.187 0 0 0 0-4.375H0z"/><path fill="#fff" d="M3.594 26.612a1.427 1.427 0 1 0 0-2.855 1.427 1.427 0 0 0 0 2.854M0 26.608a1.425 1.425 0 1 0 0-2.853z"/><path fill="#b8ada2" d="M0 34.577h3.58a2.187 2.187 0 0 0 0-4.375H0z"/><path fill="#fff" d="M3.594 33.814a1.427 1.427 0 1 0 0-2.854 1.427 1.427 0 0 0 0 2.854M0 33.81a1.427 1.427 0 1 0 0-2.852z"/><path fill="#b8ada2" d="M0 41.78h3.58a2.188 2.188 0 0 0 0-4.376H0z"/><path fill="#fff" d="M3.594 41.017a1.427 1.427 0 1 0 0-2.854 1.427 1.427 0 0 0 0 2.854M0 41.013a1.425 1.425 0 1 0 0-2.852z"/><path fill="#b8ada2" d="M0 48.982h3.58a2.187 2.187 0 0 0 0-4.375H0z"/><path fill="#fff" d="M3.594 48.22a1.427 1.427 0 1 0 0-2.854 1.427 1.427 0 0 0 0 2.854M0 48.216a1.425 1.425 0 1 0 0-2.852z"/><path fill="#b8ada2" d="M0 56.185h3.58a2.187 2.187 0 0 0 0-4.375H0z"/><path fill="#fff" d="M3.594 55.423a1.427 1.427 0 1 0 0-2.855 1.427 1.427 0 0 0 0 2.855M0 55.419a1.426 1.426 0 1 0 0-2.852z"/><path fill="#b8ada2" d="M0 63.388h3.58a2.188 2.188 0 0 0 0-4.375H0z"/><path fill="#fff" d="M3.594 62.626a1.427 1.427 0 1 0 0-2.855 1.427 1.427 0 0 0 0 2.855M0 62.622a1.425 1.425 0 1 0 0-2.853z"/><path fill="#b8ada2" d="M64.799 1.438h-3.58a2.188 2.188 0 0 0 0 4.375h3.58z"/><path fill="#fff" d="M61.205 5.055a1.427 1.427 0 1 0 0-2.855 1.427 1.427 0 0 0 0 2.855M64.799 2.204a1.426 1.426 0 1 0 0 2.852z"/><path fill="#b8ada2" d="M64.799 8.623h-3.58a2.188 2.188 0 0 0 0 4.376h3.58z"/><path fill="#fff" d="M61.205 12.24a1.427 1.427 0 1 0 0-2.854 1.427 1.427 0 0 0 0 2.854M64.799 9.39a1.426 1.426 0 1 0 0 2.852z"/><path fill="#b8ada2" d="M64.799 15.809h-3.58a2.187 2.187 0 0 0 0 4.375h3.58z"/><path fill="#fff" d="M61.205 19.426a1.427 1.427 0 1 0 0-2.855 1.427 1.427 0 0 0 0 2.855M64.799 16.575a1.425 1.425 0 1 0 0 2.852z"/><path fill="#b8ada2" d="M64.799 22.994h-3.58a2.188 2.188 0 0 0 0 4.376h3.58z"/><path fill="#fff" d="M61.205 26.611a1.427 1.427 0 1 0 0-2.854 1.427 1.427 0 0 0 0 2.854M64.799 23.76a1.426 1.426 0 1 0 0 2.853z"/><path fill="#b8ada2" d="M64.799 30.18h-3.58a2.187 2.187 0 0 0 0 4.375h3.58z"/><path fill="#fff" d="M61.205 33.797a1.427 1.427 0 1 0 0-2.855 1.427 1.427 0 0 0 0 2.855M64.799 30.946a1.425 1.425 0 1 0 0 2.852z"/><path fill="#b8ada2" d="M64.799 37.366h-3.58a2.188 2.188 0 0 0 0 4.375h3.58z"/><path fill="#fff" d="M61.205 40.982a1.427 1.427 0 1 0 0-2.854 1.427 1.427 0 0 0 0 2.854M64.799 38.132a1.425 1.425 0 1 0 0 2.852z"/><path fill="#b8ada2" d="M64.799 44.551h-3.58a2.188 2.188 0 0 0 0 4.375h3.58z"/><path fill="#fff" d="M61.205 48.168a1.427 1.427 0 1 0 0-2.854 1.427 1.427 0 0 0 0 2.854M64.799 45.317a1.43 1.43 0 0 0-1.43 1.426 1.426 1.426 0 0 0 1.43 1.427z"/><path fill="#b8ada2" d="M64.799 51.737h-3.58a2.187 2.187 0 0 0 0 4.375h3.58z"/><path fill="#fff" d="M61.205 55.353a1.427 1.427 0 1 0 0-2.854 1.427 1.427 0 0 0 0 2.854M64.799 52.503a1.426 1.426 0 1 0 0 2.852z"/><path fill="#b8ada2" d="M64.799 58.922h-3.58a2.187 2.187 0 0 0 0 4.375h3.58z"/><path fill="#fff" d="M61.205 62.539a1.427 1.427 0 1 0 0-2.854 1.427 1.427 0 0 0 0 2.854M64.799 59.689a1.427 1.427 0 1 0 0 2.852z"/><path fill="#8c9091" d="M9.522 64.807v3.033h20.754v-3.033z"/><path fill="#8b7866" fill-opacity=".7" d="M9.57 63.879a2.681 2.681 0 1 0 0-5.363 2.681 2.681 0 0 0 0 5.363"/><path fill="#8b7866" d="M9.57 62.552a1.355 1.355 0 1 0 0-2.71 1.355 1.355 0 0 0 0 2.71"/><path fill="#8b7866" fill-opacity=".7" d="M42.19 36.06a2.681 2.681 0 1 0 0-5.363 2.681 2.681 0 0 0 0 5.362"/><path fill="#8b7866" d="M42.19 34.733a1.355 1.355 0 1 0 .001-2.71 1.355 1.355 0 0 0 0 2.71M53.609 46.923a1.044 1.044 0 1 0 0-2.088 1.044 1.044 0 0 0 0 2.088M56.09 44.962a1.044 1.044 0 1 0 0-2.088 1.044 1.044 0 0 0 0 2.088M50.961 48.99a1.044 1.044 0 1 0 0-2.087 1.044 1.044 0 0 0 0 2.088M40.868 40.405a1.044 1.044 0 1 0 0-2.088 1.044 1.044 0 0 0 0 2.088M40.868 44.533a1.044 1.044 0 1 0 0-2.088 1.044 1.044 0 0 0 0 2.088M37.362 44.533a1.044 1.044 0 1 0 0-2.088 1.044 1.044 0 0 0 0 2.088M11.063 40.304a1.044 1.044 0 1 0 0-2.087 1.044 1.044 0 0 0 0 2.087M11.063 44.437a1.044 1.044 0 1 0 0-2.088 1.044 1.044 0 0 0 0 2.088M11.063 48.752a1.044 1.044 0 1 0 0-2.087 1.044 1.044 0 0 0 0 2.087M11.063 53.144a1.044 1.044 0 1 0 0-2.087 1.044 1.044 0 0 0 0 2.087M11.063 57.277a1.044 1.044 0 1 0 0-2.088 1.044 1.044 0 0 0 0 2.088M23.965 62.671a1.044 1.044 0 1 0 0-2.088 1.044 1.044 0 0 0 0 2.088"/><path fill="#c3c5c6" d="M15.039 5.67H7.11v8.478h7.928z"/><path fill="#a2a5a6" d="m11.074 7.376.279.013.276.049.273.071.258.111.248.125.23.16.206.191.187.206.166.222.145.246.111.254.078.26.057.277.023.28-.01.273-.039.281-.068.276-.098.261-.125.246-.15.239-.182.213-.199.189-.223.174-.236.144-.252.122-.264.093-.269.061-.279.033h-.286l-.275-.033-.269-.061-.262-.093-.254-.122-.236-.144-.223-.174-.197-.189-.184-.213-.15-.239-.127-.246-.094-.261-.072-.276-.043-.281-.004-.273.023-.28.055-.277.076-.26.113-.254.143-.246.168-.222.187-.206.207-.191.231-.16.246-.125.262-.111.267-.071.278-.049z"/><path fill="#8c9091" d="M9.47 4.84H7.955v.83H9.47zM14.196 4.84H12.68v.83h1.515zM9.47 14.148H7.955v.83H9.47zM14.196 14.148H12.68v.83h1.515zM5.329 3.152H3.474l-.51.51v1.78l.51.51h1.855l.51-.51v-1.78z"/><path stroke="#d4cdc6" stroke-miterlimit="10" stroke-width=".283" d="M3.69 4.305h-.436v-.861"/><path stroke="#d4cdc6" stroke-miterlimit="10" stroke-width=".283" d="M3.369 3.152a.39.39 0 0 1-.405.4M3.69 4.8h-.436v.861"/><path stroke="#d4cdc6" stroke-miterlimit="10" stroke-width=".283" d="M3.369 5.953a.39.39 0 0 0-.405-.4M5.112 4.305h.437v-.861"/><path stroke="#d4cdc6" stroke-miterlimit="10" stroke-width=".283" d="M5.434 3.152a.39.39 0 0 0 .404.4M5.112 4.8h.437v.861"/><path stroke="#d4cdc6" stroke-miterlimit="10" stroke-width=".283" d="M5.434 5.953a.39.39 0 0 1 .404-.4"/><path fill="#b8babb" d="M5.112 3.152H3.69v2.8h1.422z"/><path fill="#6c716e" d="M33.646 3.488h-4.205v18.366h4.205z"/><path fill="#b8babb" d="M29.44 3.488h-1.195v18.366h1.196zM27.05 3.488H15.256v18.366H27.05z"/><path fill="#cfd0d1" d="M28.246 3.488H27.05v18.366h1.195z"/><path fill="#e6e7e7" d="M30.828 46.193h-4.312v4.312h4.312z"/><path fill="#2a312d" d="M12.376 25.554a1 1 0 0 0-.074-.374h1.209a.98.98 0 0 0 .004.752h-1.216a.9.9 0 0 0 .077-.378"/><path fill="#dadbdc" d="M13.437 25.554a1 1 0 0 1 .074-.374h.2v.752h-.197a.9.9 0 0 1-.077-.378M12.106 25.932v-.752h.196a1 1 0 0 1 .074.374.9.9 0 0 1-.078.378z"/><path fill="#2a312d" d="M12.376 23.828a1 1 0 0 0-.074-.375h1.209a.98.98 0 0 0 .004.752h-1.216a.9.9 0 0 0 .077-.377"/><path fill="#dadbdc" d="M13.437 23.828a1 1 0 0 1 .074-.375h.2v.752h-.197a.9.9 0 0 1-.077-.377M12.106 24.205v-.751h.196a1 1 0 0 1 .074.374.9.9 0 0 1-.078.377z"/><path fill="#8c9091" d="M21.433 23.22a1 1 0 0 0-.075-.375h1.209a.98.98 0 0 0 .004.752h-1.216a.9.9 0 0 0 .078-.378"/><path fill="#dadbdc" d="M22.493 23.22q0-.196.074-.375h.2v.752h-.197a.9.9 0 0 1-.077-.378M21.163 23.597v-.752h.195a1 1 0 0 1 .075.374.9.9 0 0 1-.078.378z"/><path fill="#2a312d" d="M12.376 22.101a1 1 0 0 0-.074-.374h1.209a.98.98 0 0 0 .004.752h-1.216a.9.9 0 0 0 .077-.378"/><path fill="#dadbdc" d="M13.437 22.101a1 1 0 0 1 .074-.374h.2v.752h-.197a.9.9 0 0 1-.077-.378M12.106 22.479v-.752h.196a1 1 0 0 1 .074.374.9.9 0 0 1-.078.378z"/><path fill="#2a312d" d="M12.376 20.24a1 1 0 0 0-.074-.374h1.209a.98.98 0 0 0 .004.751h-1.216a.9.9 0 0 0 .077-.377"/><path fill="#dadbdc" d="M13.437 20.24a1 1 0 0 1 .074-.374h.2v.751h-.197a.9.9 0 0 1-.077-.377M12.106 20.617v-.751h.196a1 1 0 0 1 .074.374.9.9 0 0 1-.078.377z"/><path fill="#2a312d" d="M9.734 21.302a1 1 0 0 0-.375.074v-1.209a.98.98 0 0 0 .752-.003v1.215a.9.9 0 0 0-.377-.077"/><path fill="#dadbdc" d="M9.734 20.242a1 1 0 0 1-.375-.075v-.2h.752v.197a.9.9 0 0 1-.377.077M10.111 21.572H9.36v-.196a1 1 0 0 1 .375-.074.9.9 0 0 1 .377.078z"/><path fill="#2a312d" d="M8.099 21.302a1 1 0 0 0-.374.074v-1.209a.98.98 0 0 0 .751-.003v1.215a.9.9 0 0 0-.377-.077"/><path fill="#dadbdc" d="M8.099 20.242a1 1 0 0 1-.374-.075v-.2h.751v.197a.9.9 0 0 1-.377.077M8.476 21.572h-.751v-.196a1 1 0 0 1 .374-.074.9.9 0 0 1 .377.078z"/><path fill="#2a312d" d="M12.376 18.35a1 1 0 0 0-.074-.373h1.209a.98.98 0 0 0 .004.751h-1.216a.9.9 0 0 0 .077-.377"/><path fill="#dadbdc" d="M13.437 18.35a1 1 0 0 1 .074-.373h.2v.751h-.197a.9.9 0 0 1-.077-.377M12.106 18.728v-.751h.196a1 1 0 0 1 .074.374.9.9 0 0 1-.078.377z"/><path fill="#2a312d" d="M12.376 16.625a1 1 0 0 0-.074-.375h1.209a.98.98 0 0 0 .004.752h-1.216a.9.9 0 0 0 .077-.377"/><path fill="#dadbdc" d="M13.437 16.625a1 1 0 0 1 .074-.375h.2v.752h-.197a.9.9 0 0 1-.077-.377M12.106 17.002v-.752h.196a1 1 0 0 1 .074.375.9.9 0 0 1-.078.377z"/><path fill="#2a312d" d="M13.779 27.356h-2.207v4.226h2.207zM29.08 25.549a1 1 0 0 0-.375.074v-1.209a.98.98 0 0 0 .752-.004v1.216a.9.9 0 0 0-.378-.077"/><path fill="#dadbdc" d="M29.08 24.488a1 1 0 0 1-.375-.074v-.2h.752v.197a.9.9 0 0 1-.378.077M29.457 25.819h-.752v-.196a1 1 0 0 1 .374-.074.9.9 0 0 1 .378.078z"/><path fill="#8c9091" d="M29.08 28.746a1 1 0 0 0-.375.074V27.61a.98.98 0 0 0 .752-.003v1.215a.9.9 0 0 0-.378-.077"/><path fill="#dadbdc" d="M29.08 27.685a1 1 0 0 1-.375-.074v-.2h.752v.197a.9.9 0 0 1-.378.077M29.457 29.016h-.752v-.196a1 1 0 0 1 .374-.074.9.9 0 0 1 .378.078z"/><path fill="#8c9091" d="M41.437 25.432a1 1 0 0 0-.374.074v-1.209a.98.98 0 0 0 .752-.003v1.215a.9.9 0 0 0-.378-.077"/><path fill="#dadbdc" d="M41.437 24.371a1 1 0 0 1-.374-.074v-.2h.752v.197a.9.9 0 0 1-.378.077M41.815 25.702h-.752v-.196a1 1 0 0 1 .374-.074.9.9 0 0 1 .378.078z"/><path fill="#2a312d" d="M41.437 28.629a1 1 0 0 0-.374.074v-1.209a.98.98 0 0 0 .752-.003v1.215a.9.9 0 0 0-.378-.077"/><path fill="#dadbdc" d="M41.437 27.568a1 1 0 0 1-.374-.074v-.2h.752v.197a.9.9 0 0 1-.378.077M41.815 28.899h-.752v-.196a1 1 0 0 1 .374-.074.9.9 0 0 1 .378.078zM26.305 36.435h-.751v.442h.751zM26.305 37.6h-.751v.442h.751z"/><path fill="#2a312d" d="M14.977 41.432a1 1 0 0 0-.374.075v-1.209a.98.98 0 0 0 .751-.004v1.216a.9.9 0 0 0-.377-.078"/><path fill="#dadbdc" d="M14.977 40.372a1 1 0 0 1-.374-.074v-.2h.751v.196a.9.9 0 0 1-.377.078M15.354 41.703h-.751v-.197a1 1 0 0 1 .374-.074.9.9 0 0 1 .377.078z"/><path fill="#2a312d" d="M33.776 50.375a1 1 0 0 0-.375.074v-1.208a.98.98 0 0 0 .752-.004v1.216a.9.9 0 0 0-.377-.078"/><path fill="#dadbdc" d="M33.776 49.315a1 1 0 0 1-.375-.074v-.2h.752v.196a.9.9 0 0 1-.377.078M34.153 50.645H33.4v-.196a1 1 0 0 1 .374-.074.9.9 0 0 1 .378.078z"/><path fill="#8c9091" d="M38.906 48.771a1 1 0 0 0-.374.074v-1.208a.98.98 0 0 0 .751-.004v1.216a.9.9 0 0 0-.377-.078"/><path fill="#dadbdc" d="M38.906 47.71a1 1 0 0 1-.374-.073v-.2h.751v.196a.9.9 0 0 1-.377.078M39.283 49.041h-.751v-.196a1 1 0 0 1 .374-.074.9.9 0 0 1 .377.078z"/><path fill="#8c9091" d="M34.433 58.83a1 1 0 0 0-.375.074v-1.208a.98.98 0 0 0 .752-.004v1.215a.9.9 0 0 0-.377-.077"/><path fill="#dadbdc" d="M34.433 57.77a1 1 0 0 1-.375-.075v-.199h.752v.196a.9.9 0 0 1-.377.078M34.81 59.1h-.752v-.196a1 1 0 0 1 .375-.074.9.9 0 0 1 .377.078z"/><path fill="#8c9091" d="M36.132 58.83a1 1 0 0 0-.374.074v-1.208a.98.98 0 0 0 .751-.004v1.215a.9.9 0 0 0-.377-.077"/><path fill="#dadbdc" d="M36.132 57.77a1 1 0 0 1-.374-.075v-.199h.751v.196a.9.9 0 0 1-.377.078M36.51 59.1h-.752v-.196a1 1 0 0 1 .374-.074.9.9 0 0 1 .377.078z"/><path fill="#8c9091" d="M37.831 58.83a1 1 0 0 0-.374.074v-1.208a.98.98 0 0 0 .752-.004v1.215a.9.9 0 0 0-.378-.077"/><path fill="#dadbdc" d="M37.831 57.77a1 1 0 0 1-.374-.075v-.199h.752v.196a.9.9 0 0 1-.378.078M38.209 59.1h-.752v-.196a1 1 0 0 1 .374-.074.9.9 0 0 1 .377.078z"/><path fill="#8c9091" d="M40.64 48.771a1 1 0 0 0-.374.074v-1.208a.98.98 0 0 0 .752-.004v1.216a.9.9 0 0 0-.378-.078"/><path fill="#dadbdc" d="M40.64 47.71a1 1 0 0 1-.374-.073v-.2h.752v.196a.9.9 0 0 1-.378.078M41.018 49.041h-.752v-.196a1 1 0 0 1 .374-.074.9.9 0 0 1 .378.078z"/><path fill="#2a312d" d="M55.044 61.116a1 1 0 0 0-.374.074V59.98a.98.98 0 0 0 .752-.004v1.216a.9.9 0 0 0-.378-.078"/><path fill="#dadbdc" d="M55.044 60.055a1 1 0 0 1-.374-.074v-.2h.752v.197a.9.9 0 0 1-.378.077M55.422 61.386h-.752v-.197a1 1 0 0 1 .374-.074.9.9 0 0 1 .378.078z"/><path fill="#2a312d" d="M46.996 48.347a1 1 0 0 0-.074-.374h1.209a.98.98 0 0 0 .004.752h-1.216a.9.9 0 0 0 .077-.378"/><path fill="#dadbdc" d="M48.057 48.347a1 1 0 0 1 .074-.374h.2v.752h-.197a.9.9 0 0 1-.077-.378M46.726 48.725v-.752h.196a1 1 0 0 1 .074.374.9.9 0 0 1-.078.378z"/><path fill="#2a312d" d="M54.12 48.347a1 1 0 0 0-.073-.374h1.208a.98.98 0 0 0 .004.752h-1.216a.9.9 0 0 0 .078-.378"/><path fill="#dadbdc" d="M55.181 48.347q0-.194.074-.374h.2v.752h-.196a.9.9 0 0 1-.078-.378M53.85 48.725v-.752h.197a1 1 0 0 1 .074.374.9.9 0 0 1-.078.378z"/><path fill="#8c9091" d="M20.939 46.876a1 1 0 0 0-.075-.374h1.21a.98.98 0 0 0 .003.751H20.86a.9.9 0 0 0 .078-.377"/><path fill="#dadbdc" d="M22 46.876q0-.194.073-.374h.2v.751h-.196a.9.9 0 0 1-.078-.377M20.669 47.253v-.751h.196a1 1 0 0 1 .074.374.9.9 0 0 1-.078.377z"/><path fill="#8c9091" d="M28.142 52.26a1 1 0 0 0-.075-.373h1.209a.98.98 0 0 0 .004.751h-1.216a.9.9 0 0 0 .078-.377"/><path fill="#dadbdc" d="M29.202 52.26c0-.127.025-.255.074-.373h.2v.751h-.197a.9.9 0 0 1-.077-.377M27.872 52.638v-.751h.196a1 1 0 0 1 .074.374.9.9 0 0 1-.078.377z"/><path fill="#8c9091" d="M25.345 52.26a1 1 0 0 0-.074-.373h1.209a.98.98 0 0 0 .003.751h-1.215a.9.9 0 0 0 .077-.377"/><path fill="#dadbdc" d="M26.406 52.26c0-.127.025-.255.074-.373h.2v.751h-.197a.9.9 0 0 1-.077-.377M25.075 52.638v-.751h.196a1 1 0 0 1 .074.374.9.9 0 0 1-.078.377z"/><path fill="#8c9091" d="M23.191 57.342a1 1 0 0 0-.074-.374h1.209a.98.98 0 0 0 .004.751h-1.216a.9.9 0 0 0 .077-.377"/><path fill="#dadbdc" d="M24.252 57.342q0-.195.074-.374h.2v.751h-.197a.9.9 0 0 1-.077-.377M22.921 57.72v-.752h.196a1 1 0 0 1 .074.374.9.9 0 0 1-.078.377z"/><path fill="#8c9091" d="M23.191 59.01a1 1 0 0 0-.074-.374h1.209a.98.98 0 0 0 .004.751h-1.216a.9.9 0 0 0 .077-.377"/><path fill="#dadbdc" d="M24.252 59.01q0-.195.074-.374h.2v.751h-.197a.9.9 0 0 1-.077-.377M22.921 59.387v-.751h.196a1 1 0 0 1 .074.374.9.9 0 0 1-.078.377z"/><path fill="#8c9091" d="M23.832 31.378q0 .194.074.374h-1.208a.98.98 0 0 0-.004-.751h1.215a.9.9 0 0 0-.077.377"/><path fill="#dadbdc" d="M22.772 31.378a1 1 0 0 1-.075.374h-.2v-.751h.197a.9.9 0 0 1 .077.377M24.102 31v.752h-.196a1 1 0 0 1-.074-.374.9.9 0 0 1 .078-.378z"/><path fill="#8c9091" d="M21.2 44.858q0 .194.075.374h-1.209a.98.98 0 0 0-.003-.752h1.215a.9.9 0 0 0-.077.378"/><path fill="#dadbdc" d="M20.14 44.858a1 1 0 0 1-.074.374h-.2v-.752h.197a.9.9 0 0 1 .077.378M21.47 44.48v.752h-.195a1 1 0 0 1-.074-.374.9.9 0 0 1 .078-.378z"/><path fill="#8c9091" d="M20.655 31.378q0 .194.074.374H19.52a.98.98 0 0 0-.004-.751h1.216a.9.9 0 0 0-.078.377"/><path fill="#dadbdc" d="M19.594 31.378a1 1 0 0 1-.074.374h-.2v-.751h.197a.9.9 0 0 1 .077.377M20.925 31v.752h-.196a1 1 0 0 1-.074-.374.9.9 0 0 1 .078-.378z"/><path fill="#2a312d" d="M39.348 23.914h-8.245v5.511h8.245zM24.623 24.672h-6.55v5.245h6.55zM52.89 51.887H41.5v9.86h11.39zM51.718 40.192h-8.172v5.365h8.172zM55.483 27.436c.375 0 .746-.07 1.095-.207v3.373a3 3 0 0 0-1.095-.206 2.8 2.8 0 0 0-1.104.216V27.22c.35.145.725.219 1.104.216"/><path fill="#dadbdc" d="M55.483 30.395c.375 0 .746.07 1.095.207v.557h-2.199v-.547c.35-.146.725-.22 1.104-.217M54.379 26.683h2.199v.547c-.349.136-.72.206-1.095.206a2.8 2.8 0 0 1-1.104-.218z"/><path fill="#2a312d" d="M54.394 19.896c0 .375.07.746.207 1.095h-3.373c.137-.349.206-.72.206-1.095a2.8 2.8 0 0 0-.216-1.104h3.392c-.145.35-.219.725-.216 1.104"/><path fill="#dadbdc" d="M51.435 19.896c0 .375-.07.746-.207 1.095h-.557v-2.199h.547c.146.35.22.725.217 1.104M55.148 18.792v2.199H54.6a3 3 0 0 1-.206-1.095 2.8 2.8 0 0 1 .218-1.104zM56.578 34.93h-2.199v1.13h2.199zM56.578 38.294h-2.199v1.13h2.199z"/><path fill="#8c9091" d="M51.989 22.65c0-.225-.044-.448-.13-.656h2.1a1.74 1.74 0 0 0 .006 1.318h-2.111c.09-.21.136-.435.135-.662"/><path fill="#dadbdc" d="M53.83 22.65c0-.225.044-.448.129-.656h.346v1.318h-.34a1.6 1.6 0 0 1-.135-.662M51.52 23.312v-1.318h.34c.085.208.128.43.129.656s-.045.453-.136.662z"/><path fill="#8c9091" d="M46.995 19.315a1 1 0 0 0-.075-.374h1.21a.98.98 0 0 0 .003.751h-1.216a.9.9 0 0 0 .078-.377"/><path fill="#dadbdc" d="M48.055 19.315a1 1 0 0 1 .074-.374h.2v.751h-.196a.9.9 0 0 1-.078-.377M46.725 19.692v-.751h.196a1 1 0 0 1 .074.374.9.9 0 0 1-.078.377z"/><path fill="#2a312d" d="M44.543 16.276a1 1 0 0 0-.074-.374h1.209a.98.98 0 0 0 .003.752h-1.215a.9.9 0 0 0 .077-.378"/><path fill="#dadbdc" d="M45.604 16.276a1 1 0 0 1 .074-.374h.2v.752h-.197a.9.9 0 0 1-.078-.378M44.273 16.654v-.752h.196a1 1 0 0 1 .074.374.9.9 0 0 1-.078.378z"/><path fill="#2a312d" d="M41.427 16.276a1 1 0 0 0-.074-.374h1.208a.98.98 0 0 0 .004.752h-1.216a.9.9 0 0 0 .078-.378"/><path fill="#dadbdc" d="M42.487 16.276c0-.128.025-.256.074-.374h.2v.752h-.196a.9.9 0 0 1-.078-.378M41.157 16.654v-.752h.196a1 1 0 0 1 .074.374.9.9 0 0 1-.078.378z"/><path fill="#2a312d" d="M39.346 17.612a1 1 0 0 0-.374.074v-1.209a.98.98 0 0 0 .751-.004v1.216a.9.9 0 0 0-.377-.077"/><path fill="#dadbdc" d="M39.346 16.551a1 1 0 0 1-.374-.074v-.2h.751v.197a.9.9 0 0 1-.377.077M39.723 17.882h-.751v-.196a1 1 0 0 1 .374-.074.9.9 0 0 1 .377.078z"/><path fill="#8c9091" d="M44.098 28.926a1 1 0 0 0-.074-.374h1.209a.98.98 0 0 0 .003.752h-1.215a.9.9 0 0 0 .077-.378"/><path fill="#dadbdc" d="M45.159 28.926q0-.194.074-.374h.2v.752h-.197a.9.9 0 0 1-.077-.378M43.828 29.304v-.752h.196a1 1 0 0 1 .074.374.9.9 0 0 1-.078.378z"/><path fill="#2a312d" d="M44.543 14.245a1 1 0 0 0-.074-.374h1.209a.98.98 0 0 0 .003.751h-1.215a.9.9 0 0 0 .077-.377"/><path fill="#dadbdc" d="M45.604 14.245a1 1 0 0 1 .074-.374h.2v.751h-.197a.9.9 0 0 1-.078-.377M44.273 14.622v-.751h.196a1 1 0 0 1 .074.374.9.9 0 0 1-.078.377z"/><path fill="#2a312d" d="M45.879 10.986a1 1 0 0 0 .374-.075v1.209a.98.98 0 0 0-.752.004v-1.216a.9.9 0 0 0 .378.078"/><path fill="#dadbdc" d="M45.879 12.046a1 1 0 0 1 .374.074v.2H45.5v-.196a.9.9 0 0 1 .378-.078M45.501 10.716h.752v.196a1 1 0 0 1-.374.074.9.9 0 0 1-.378-.078z"/><path fill="#2a312d" d="M46.368 9.355a1 1 0 0 0-.074-.374h1.209a.98.98 0 0 0 .003.751h-1.215a.9.9 0 0 0 .077-.377"/><path fill="#dadbdc" d="M47.429 9.355a1 1 0 0 1 .074-.374h.2v.751h-.197a.9.9 0 0 1-.077-.377M46.098 9.732v-.751h.196a1 1 0 0 1 .074.374.9.9 0 0 1-.078.377z"/><path fill="#2a312d" d="M49.42 9.406a1 1 0 0 0-.074-.374h1.208a.98.98 0 0 0 .004.752h-1.216a.9.9 0 0 0 .078-.378"/><path fill="#dadbdc" d="M50.48 9.406q0-.194.075-.374h.199v.752h-.196a.9.9 0 0 1-.078-.378M49.15 9.784v-.752h.196a1 1 0 0 1 .074.374.9.9 0 0 1-.078.378z"/><path fill="#2a312d" d="M49.42 7.786a1 1 0 0 0-.074-.374h1.208a.98.98 0 0 0 .004.752h-1.216a.9.9 0 0 0 .078-.378"/><path fill="#dadbdc" d="M50.48 7.786q0-.194.075-.374h.199v.752h-.196a.9.9 0 0 1-.078-.378M49.15 8.164v-.752h.196a1 1 0 0 1 .074.374.9.9 0 0 1-.078.378z"/><path fill="#8c9091" d="M52.53 9.406a1 1 0 0 0-.074-.374h1.209a.98.98 0 0 0 .004.752h-1.216a.9.9 0 0 0 .078-.378"/><path fill="#dadbdc" d="M53.59 9.406q.002-.194.075-.374h.2v.752h-.197a.9.9 0 0 1-.077-.378M52.26 9.784v-.752h.197a1 1 0 0 1 .074.374.9.9 0 0 1-.078.378z"/><path fill="#8c9091" d="M56.014 9.482a1 1 0 0 0 .374-.074v1.208a.98.98 0 0 0-.752.004V9.404a.9.9 0 0 0 .378.078"/><path fill="#dadbdc" d="M56.014 10.542q.194 0 .374.075v.199h-.752v-.196a.9.9 0 0 1 .378-.078M55.636 9.212h.752v.196a1 1 0 0 1-.374.074.9.9 0 0 1-.378-.078z"/><path fill="#8c9091" d="M56.014 12.59a1 1 0 0 0 .374-.075v1.209a.98.98 0 0 0-.752.004v-1.216a.9.9 0 0 0 .378.078"/><path fill="#dadbdc" d="M56.014 13.65a1 1 0 0 1 .374.074v.2h-.752v-.196a.9.9 0 0 1 .378-.078M55.636 12.32h.752v.196a1 1 0 0 1-.374.074.9.9 0 0 1-.378-.078z"/><path fill="#2a312d" d="M54.43 10.795h-6.903v6.902h6.902zM48.63 23.07h-5.479v3.926h5.48zM22.918 33.795h-4.26v1.79h4.26z"/><path fill="#cccecd" d="M19.316 33.555v.24h1.097v-.24zM19.316 35.586v.24h1.097v-.24zM21.71 33.555v.24h.594v-.24zM21.709 35.586v.24h.595v-.24z"/><path fill="#2a312d" d="M49.226 31.665h-1.791v4.26h1.791z"/><path fill="#cccecd" d="M49.466 32.323h-.24v1.097h.24zM47.435 32.323h-.24v1.097h.24zM49.466 34.716h-.24v.595h.24zM47.435 34.716h-.24v.595h.24z"/><path fill="#2a312d" d="M7.678.617v2.827h4.48V.617zM13.61 2.756a1 1 0 0 0-.375.074V1.622a.98.98 0 0 0 .752-.004v1.215a.9.9 0 0 0-.377-.077"/><path fill="#dadbdc" d="M13.61 1.696a1 1 0 0 1-.375-.075v-.2h.752v.197a.9.9 0 0 1-.377.077M13.987 3.026h-.752V2.83a1 1 0 0 1 .375-.074.9.9 0 0 1 .377.078z"/><path fill="#e6e7e7" d="M21.677 53.854h-8.504v8.504h8.504zM19.554 45.651h-5.551v5.552h5.551z"/><path fill="#2a312d" d="M22.147 37.094h-3.779v5.683h3.78z"/><path fill="#8c9091" d="M23.49 37.821h-1.343v.791h1.343zM23.49 39.54h-1.343v.791h1.343zM18.368 39.54h-1.343v.791h1.343zM23.49 41.26h-1.343v.79h1.343zM18.368 37.821h-1.343v.791h1.343zM18.368 41.26h-1.343v.79h1.343z"/><path fill="#dadbdc" d="M45.349 48.725v-.752h-.442v.752zM44.183 48.725v-.752h-.442v.752z"/></g><defs><clipPath id="a"><path fill="#fff" d="M0 0h64.8v67.84H0z"/></clipPath></defs></svg>