<svg xmlns="http://www.w3.org/2000/svg" width="300" height="188" fill="none" viewBox="0 0 300 188"><g clip-path="url(#a)"><path fill="#7f9097" d="M297.949 40.527c.856 0 1.551-.694 1.551-1.55v-2.403c0-.856-.695-1.55-1.551-1.55h-2.852V.5H4.903v34.523H2.051a1.55 1.55 0 0 0-1.55 1.55v2.404c0 .856.693 1.55 1.55 1.55h2.852v4.972H2.051a1.55 1.55 0 0 0-1.55 1.55v93.195c0 .856.693 1.551 1.55 1.551h2.852v45.63h290.194v-45.63h2.852c.856 0 1.551-.695 1.551-1.551V47.049c0-.856-.695-1.55-1.551-1.55h-2.852v-4.972z"/><path fill="#41423c" stroke="#51504b" stroke-miterlimit="10" stroke-width="2.988" d="M295.097 45.499h2.852c.856 0 1.551.695 1.551 1.55v93.195a1.55 1.55 0 0 1-1.551 1.55h-2.852z"/><path fill="#51504b" stroke="#51504b" stroke-miterlimit="10" stroke-width="2.988" d="M295.097 35.023h2.852c.856 0 1.551.695 1.551 1.55v2.403c0 .856-.695 1.551-1.551 1.551h-2.852v-5.504Z"/><path fill="#41423c" stroke="#51504b" stroke-miterlimit="10" stroke-width="2.988" d="M4.903 141.794H2.051a1.55 1.55 0 0 1-1.55-1.55V47.049c0-.855.694-1.55 1.55-1.55h2.852z"/><path fill="#51504b" stroke="#51504b" stroke-miterlimit="10" stroke-width="2.988" d="M4.903 40.527H2.051c-.856 0-1.55-.695-1.55-1.55v-2.403c0-.856.694-1.55 1.55-1.55h2.852v5.503Z"/><path fill="#41423c" stroke="#51504b" stroke-miterlimit="10" stroke-width="2.988" d="M295.097 156.504H4.903v30.921h290.194zM295.097.5H4.903v30.92h290.194z"/><path fill="#41423c" stroke="#41423c" stroke-linecap="round" stroke-linejoin="round" stroke-width="2.965" d="M278.771 84.176h-16.474c-.882 0-1.596.714-1.596 1.595v16.475c0 .881.714 1.595 1.596 1.595h16.474c.881 0 1.596-.714 1.596-1.595V85.771c0-.88-.715-1.595-1.596-1.595"/><path fill="#41423c" stroke="#63615b" stroke-linecap="round" stroke-linejoin="round" stroke-width="2.988" d="m230.268 115.452-12.256 5.021v-52.93l12.256 5.022a5.52 5.52 0 0 1 3.427 5.107v32.674a5.52 5.52 0 0 1-3.427 5.106"/><path fill="#41423c" stroke="#63615b" stroke-linecap="round" stroke-linejoin="round" stroke-width="2.988" d="M29.39 59.201H212.62a5.395 5.395 0 0 1 5.393 5.393v58.829a5.395 5.395 0 0 1-5.393 5.393H29.391a5.395 5.395 0 0 1-5.393-5.392v-58.83a5.395 5.395 0 0 1 5.393-5.393"/><path fill="#7f9097" d="M210.496 70.914H31.514v46.189h178.982z"/><path fill="#32352f" stroke="#32352f" stroke-linecap="round" stroke-linejoin="round" stroke-width="2.965" d="M210.496 61.605H35.82v1.973h174.676zM210.496 124.439H35.82v1.974h174.676z"/><path fill="#a4b0b5" d="M44.664 94.752h-8.821v15.311h8.821zM44.664 77.955h-8.821v15.31h8.821zM55.431 94.752H46.61v15.311h8.821zM55.431 77.955H46.61v15.31h8.821zM66.198 94.752h-8.822v15.311h8.822zM66.198 77.955h-8.822v15.31h8.822zM76.965 94.752h-8.822v15.311h8.822zM76.965 77.955h-8.822v15.31h8.822zM87.732 94.752H78.91v15.311h8.822zM87.732 77.955H78.91v15.31h8.822zM98.499 94.752h-8.822v15.311H98.5zM98.499 77.955h-8.822v15.31H98.5zM109.266 94.752h-8.822v15.311h8.822zM109.266 77.955h-8.822v15.31h8.822zM120.032 94.752h-8.821v15.311h8.821zM120.032 77.955h-8.821v15.31h8.821zM130.799 94.752h-8.821v15.311h8.821zM130.799 77.955h-8.821v15.31h8.821zM141.566 94.752h-8.821v15.311h8.821zM141.566 77.955h-8.821v15.31h8.821zM152.333 94.752h-8.822v15.311h8.822zM152.333 77.955h-8.822v15.31h8.822zM163.1 94.752h-8.822v15.311h8.822zM163.1 77.955h-8.822v15.31h8.822zM173.867 94.752h-8.822v15.311h8.822zM173.867 77.955h-8.822v15.31h8.822zM184.634 94.752h-8.822v15.311h8.822zM184.634 77.955h-8.822v15.31h8.822zM195.4 94.752h-8.821v15.311h8.821zM195.4 77.955h-8.821v15.31h8.821zM206.167 94.752h-8.821v15.311h8.821zM206.167 77.955h-8.821v15.31h8.821z"/><path fill="#51504b" stroke="#51504b" stroke-miterlimit="10" stroke-width="2.988" d="M295.097 156.504H4.903v15.461h290.194z"/><path stroke="#63615b" stroke-linecap="square" stroke-miterlimit="10" stroke-width="2.988" d="M295.097 174.547H4.903"/><path fill="#51504b" stroke="#51504b" stroke-miterlimit="10" stroke-width="2.988" d="M4.903 30.992h290.194v-15.46H4.903z"/><path stroke="#63615b" stroke-linecap="square" stroke-miterlimit="10" stroke-width="2.988" d="M4.903 12.95h290.194"/><path fill="#63615b" stroke="#63615b" stroke-miterlimit="10" stroke-width="2.988" d="m220.645 54.132.9.2 1.001.6.7 1.001.201 1h-.101v6.505l14.91 6.304.1-.1.801.6.7 1.001.201 1.001v43.329l-.1.8-.601 1.001-1.001.801h-.1l-14.91 6.204v6.504h.101l-.201.901-.6 1-1.001.701-1 .2H21.512l-.9-.2-1.001-.601-.7-1-.201-1.001v-73.95l.2-.9.6-1 1.001-.7 1-.201v.1h199.034zm74.452-22.711H4.903v125.083h290.194V31.421ZM284.59 104.97l-.2.901-.601 1-1 .701-1.001.2-.1.1h-22.215v-.1l-.901-.2-1-.601-.701-1-.2-1.001V82.755l.2-.9.601-1.001 1-.7 1.001-.2v.1h22.215l.1-.1.9.2 1.001.6.701 1 .2 1.001-.1.1v22.215z"/><path fill="#898681" stroke="#898681" stroke-linecap="round" stroke-linejoin="round" stroke-width="2.965" d="M292.583 152.196H7.916c-.57 0-1.032.462-1.032 1.032v.855c0 .569.462 1.031 1.032 1.031h284.667c.57 0 1.032-.462 1.032-1.031v-.855c0-.57-.462-1.032-1.032-1.032M296.666 137.962h2.174v2.134a.91.91 0 0 1-.908.908h-1.266zM1.294 137.907h2.174v3.042H2.006a.71.71 0 0 1-.712-.712zM296.666 38.104h2.174v.708a.813.813 0 0 1-.813.813h-1.361zM1.294 38.104h2.174v1.52H2.126a.833.833 0 0 1-.832-.832z"/><path fill="#fff" d="M43.293 81.883v7.805H42.02v-3.422h-3.302v3.422h-1.273v-7.805h1.273v3.254h3.302v-3.254zM53.932 81.883v1.069h-4.143v2.21h3.758v1.056H49.79v2.378h4.13v1.092h-5.403v-7.805zM60.8 81.883v6.713h4.01v1.092h-5.283v-7.805zM71.607 81.883v6.713h4.011v1.092h-5.283v-7.805zM86.87 85.786c0 2.305-1.021 4.022-3.315 4.022-2.281 0-3.242-1.477-3.242-3.986 0-2.39.997-4.047 3.278-4.047 2.27 0 3.279 1.285 3.279 4.01m-1.345 0c0-1.994-.385-2.942-1.934-2.942-1.5 0-1.921.937-1.921 2.978 0 1.861.336 2.918 1.885 2.918 1.525 0 1.97-1.081 1.97-2.954M42.152 105.271l.456-6.377h1.225l-.96 7.806H41.6l-1.19-4.239-1.044 4.239H38.07l-1.165-7.806h1.31l.612 6.365 1.08-4.407h1.033zM54.448 102.797c0 2.305-1.02 4.023-3.314 4.023-2.282 0-3.242-1.477-3.242-3.987 0-2.389.996-4.047 3.278-4.047 2.27 0 3.278 1.285 3.278 4.011m-1.345 0c0-1.993-.384-2.942-1.933-2.942-1.501 0-1.921.937-1.921 2.978 0 1.861.336 2.918 1.885 2.918 1.525 0 1.97-1.081 1.97-2.954M59.227 98.895h2.714c2.041 0 2.81.912 2.81 2.449 0 1.081-.517 1.861-1.393 2.234l1.741 3.122h-1.501l-1.513-2.858H60.5v2.858h-1.273zm4.179 2.485c0-1.009-.432-1.417-1.55-1.417H60.5v2.822h1.405c.852 0 1.5-.336 1.5-1.405M71.607 98.895v6.712h4.011v1.093h-5.283v-7.806zM80.661 98.895h2.594c2.798 0 3.639 1.669 3.639 3.842 0 2.029-.625 3.963-3.687 3.963h-2.546zm1.273 1.068v5.644h1.381c1.981 0 2.222-1.237 2.222-2.81 0-1.561-.36-2.834-2.306-2.834zM94.386 105.367c.445 0 .793.228.793.72 0 .481-.3.745-.793.745-.504 0-.768-.264-.768-.745 0-.456.3-.72.768-.72m.589-6.473v2.678l-.12 2.534h-.925l-.132-2.546v-2.666z"/><path fill="#fff" d="M43.293 81.883v7.805H42.02v-3.422h-3.302v3.422h-1.273v-7.805h1.273v3.254h3.302v-3.254zM53.932 81.883v1.069h-4.143v2.21h3.758v1.056H49.79v2.378h4.13v1.092h-5.403v-7.805zM60.8 81.883v6.713h4.01v1.092h-5.283v-7.805zM71.607 81.883v6.713h4.011v1.092h-5.283v-7.805zM86.87 85.786c0 2.305-1.021 4.022-3.315 4.022-2.281 0-3.242-1.477-3.242-3.986 0-2.39.997-4.047 3.278-4.047 2.27 0 3.279 1.285 3.279 4.01m-1.345 0c0-1.994-.385-2.942-1.934-2.942-1.5 0-1.921.937-1.921 2.978 0 1.861.336 2.918 1.885 2.918 1.525 0 1.97-1.081 1.97-2.954M42.152 105.271l.456-6.377h1.225l-.96 7.806H41.6l-1.19-4.239-1.044 4.239H38.07l-1.165-7.806h1.31l.612 6.365 1.08-4.407h1.033zM54.448 102.797c0 2.305-1.02 4.023-3.314 4.023-2.282 0-3.242-1.477-3.242-3.987 0-2.389.996-4.047 3.278-4.047 2.27 0 3.278 1.285 3.278 4.011m-1.345 0c0-1.993-.384-2.942-1.933-2.942-1.501 0-1.921.937-1.921 2.978 0 1.861.336 2.918 1.885 2.918 1.525 0 1.97-1.081 1.97-2.954M59.227 98.895h2.714c2.041 0 2.81.912 2.81 2.449 0 1.081-.517 1.861-1.393 2.234l1.741 3.122h-1.501l-1.513-2.858H60.5v2.858h-1.273zm4.179 2.485c0-1.009-.432-1.417-1.55-1.417H60.5v2.822h1.405c.852 0 1.5-.336 1.5-1.405M71.607 98.895v6.712h4.011v1.093h-5.283v-7.806zM80.661 98.895h2.594c2.798 0 3.639 1.669 3.639 3.842 0 2.029-.625 3.963-3.687 3.963h-2.546zm1.273 1.068v5.644h1.381c1.981 0 2.222-1.237 2.222-2.81 0-1.561-.36-2.834-2.306-2.834zM94.386 105.367c.445 0 .793.228.793.72 0 .481-.3.745-.793.745-.504 0-.768-.264-.768-.745 0-.456.3-.72.768-.72m.589-6.473v2.678l-.12 2.534h-.925l-.132-2.546v-2.666z"/></g><defs><clipPath id="a"><path fill="#fff" d="M0 0h300v187.925H0z"/></clipPath></defs></svg>