<svg xmlns="http://www.w3.org/2000/svg" xml:space="preserve" id="Layer_1" x="0" y="0" viewBox="0 0 129.3 50.4"><style>.st0{fill:#017481}.st1{fill:#c2c5c6}.st2{fill:#9da0a1}.st3{fill:#8b8f90}.st4{fill:#80b9c0}.st7{fill:#8a7867}.st11{fill:#6c972e}.st12{fill:#c2b9af}.st13{fill:#fff}.st14{fill:#81b8bd}.st17{fill:#9fa1a2}</style><path d="M122.3 0H0v50.4h122.3zm-1.2 46.8c0 1.3-1 2.3-2.3 2.3s-2.3-1-2.3-2.3 1-2.3 2.3-2.3c1.2-.1 2.3 1 2.3 2.3M11.4 45.2c.8 0 1.5.7 1.5 1.5s-.7 1.5-1.5 1.5-1.5-.7-1.5-1.5.7-1.5 1.5-1.5m7.1 0c.8 0 1.5.7 1.5 1.5s-.7 1.5-1.5 1.5-1.5-.7-1.5-1.5.7-1.5 1.5-1.5m7.1 0c.8 0 1.5.7 1.5 1.5s-.7 1.5-1.5 1.5-1.5-.7-1.5-1.5.7-1.5 1.5-1.5m7.1 0c.8 0 1.5.7 1.5 1.5s-.7 1.5-1.5 1.5-1.5-.7-1.5-1.5.7-1.5 1.5-1.5m7.1 0c.8 0 1.5.7 1.5 1.5s-.7 1.5-1.5 1.5-1.5-.7-1.5-1.5c.1-.8.7-1.5 1.5-1.5m7.1 0c.8 0 1.5.7 1.5 1.5s-.7 1.5-1.5 1.5-1.5-.7-1.5-1.5c.1-.8.7-1.5 1.5-1.5m7.2 0c.8 0 1.5.7 1.5 1.5s-.7 1.5-1.5 1.5-1.5-.7-1.5-1.5.6-1.5 1.5-1.5m7.1 0c.8 0 1.5.7 1.5 1.5s-.7 1.5-1.5 1.5-1.5-.7-1.5-1.5.7-1.5 1.5-1.5m7.1 0c.8 0 1.5.7 1.5 1.5s-.7 1.5-1.5 1.5-1.5-.7-1.5-1.5.7-1.5 1.5-1.5m7.1 0c.8 0 1.5.7 1.5 1.5s-.7 1.5-1.5 1.5-1.5-.7-1.5-1.5.7-1.5 1.5-1.5m7.1 0c.8 0 1.5.7 1.5 1.5s-.7 1.5-1.5 1.5-1.5-.7-1.5-1.5c.1-.8.7-1.5 1.5-1.5m7.1 0c.8 0 1.5.7 1.5 1.5s-.7 1.5-1.5 1.5-1.5-.7-1.5-1.5c.1-.8.7-1.5 1.5-1.5m7.2 0c.8 0 1.5.7 1.5 1.5s-.7 1.5-1.5 1.5-1.5-.7-1.5-1.5.6-1.5 1.5-1.5m7.1 0c.8 0 1.5.7 1.5 1.5s-.7 1.5-1.5 1.5-1.5-.7-1.5-1.5.7-1.5 1.5-1.5m7.1 0c.8 0 1.5.7 1.5 1.5s-.7 1.5-1.5 1.5-1.5-.7-1.5-1.5.7-1.5 1.5-1.5M89.3 26.4l-.1-.2v-1.4l.1-.2.1-.2.1-.2.1-.2.3-.3.2-.2.2-.1.2-.1.2-.1.2-.1.2-.1.2-.1h1.2l.2.1.2.1.1-.1.2.1.2.1.2.1.2.2.2.2.1.2.1.2.1.2.1.2.1.2v1.4l-.1.2-.1.2-.3.2-.1.2-.1.2-.2.2-.2.1-.2.1-.2.1-.2.1-.2.1-.2.1-.1.1h-1l-.3-.1-.2-.1-.2-.1-.2-.1-.2-.1-.2-.1-.2-.1-.2-.2-.1-.2-.1-.2-.1-.2zm31.8-22.8c0 1.3-1 2.3-2.3 2.3s-2.3-1-2.3-2.3 1-2.3 2.3-2.3c1.2 0 2.3 1 2.3 2.3M11.4 5.2c-.8 0-1.5-.7-1.5-1.5s.7-1.5 1.5-1.5 1.5.7 1.5 1.5c-.1.8-.7 1.5-1.5 1.5m7.1 0c-.8 0-1.5-.7-1.5-1.5s.7-1.5 1.5-1.5 1.5.7 1.5 1.5c-.1.8-.7 1.5-1.5 1.5m7.1 0c-.8 0-1.5-.7-1.5-1.5s.7-1.5 1.5-1.5 1.5.7 1.5 1.5-.7 1.5-1.5 1.5m7.1 0c-.8 0-1.5-.7-1.5-1.5s.7-1.5 1.5-1.5 1.5.7 1.5 1.5-.7 1.5-1.5 1.5m7.1 0c-.8 0-1.5-.7-1.5-1.5s.7-1.5 1.5-1.5 1.5.7 1.5 1.5-.7 1.5-1.5 1.5m7.1 0c-.8 0-1.5-.7-1.5-1.5s.7-1.5 1.5-1.5 1.5.7 1.5 1.5-.6 1.5-1.5 1.5m7.2 0c-.8 0-1.5-.7-1.5-1.5s.7-1.5 1.5-1.5 1.5.7 1.5 1.5c-.1.8-.7 1.5-1.5 1.5m7.1 0c-.8 0-1.5-.7-1.5-1.5s.7-1.5 1.5-1.5 1.5.7 1.5 1.5c-.1.8-.7 1.5-1.5 1.5m7.1 0c-.8 0-1.5-.7-1.5-1.5s.7-1.5 1.5-1.5 1.5.7 1.5 1.5-.7 1.5-1.5 1.5m7.1 0c-.8 0-1.5-.7-1.5-1.5s.7-1.5 1.5-1.5 1.5.7 1.5 1.5-.7 1.5-1.5 1.5m7.1 0c-.8 0-1.5-.7-1.5-1.5s.7-1.5 1.5-1.5 1.5.7 1.5 1.5-.7 1.5-1.5 1.5m7.1 0c-.8 0-1.5-.7-1.5-1.5s.7-1.5 1.5-1.5 1.5.7 1.5 1.5-.7 1.5-1.5 1.5m7.1 0c-.8 0-1.5-.7-1.5-1.5s.7-1.5 1.5-1.5 1.5.7 1.5 1.5-.6 1.5-1.5 1.5m7.2 0c-.8 0-1.5-.7-1.5-1.5s.7-1.5 1.5-1.5 1.5.7 1.5 1.5c-.1.8-.7 1.5-1.5 1.5m7.1 0c-.8 0-1.5-.7-1.5-1.5s.7-1.5 1.5-1.5 1.5.7 1.5 1.5c-.1.8-.7 1.5-1.5 1.5M1.3 3.6c0-1.3 1-2.3 2.3-2.3s2.3 1 2.3 2.3-1 2.3-2.3 2.3-2.3-1-2.3-2.3m0 43.2c0-1.3 1-2.3 2.3-2.3s2.3 1 2.3 2.3-1 2.3-2.3 2.3-2.3-1-2.3-2.3" class="st0"/><g id="USB"><path d="M113.1 28.7v1.1c0 .1-.1.2-.2.2h-4.1c-.1 0-.2-.1-.2-.2v-1.1c0-.1.1-.2.2-.2h4.1c.2 0 .2.1.2.2M113.1 26.5v1.1c0 .1-.1.2-.2.2h-4.1c-.1 0-.2-.1-.2-.2v-1.1c0-.1.1-.2.2-.2h4.1c.2.1.2.1.2.2M113.1 24.4v1.1c0 .1-.1.2-.2.2h-4.1c-.1 0-.2-.1-.2-.2v-1.1c0-.1.1-.2.2-.2h4.1c.2 0 .2.1.2.2M113.1 22.3v1.1c0 .1-.1.2-.2.2h-4.1c-.1 0-.2-.1-.2-.2v-1.1c0-.1.1-.2.2-.2h4.1c.2 0 .2.1.2.2M113.1 20.2v1.1c0 .1-.1.2-.2.2h-4.1c-.1 0-.2-.1-.2-.2v-1.1c0-.1.1-.2.2-.2h4.1c.2 0 .2.1.2.2" class="st1"/><path d="M111 13.3h18.3v23.8H111z" class="st2"/><path d="M112.8 13.3H111v23.8h1.8V37zM116.5 13.3h-1.9v23.8h1.9V37zM120.1 13.3h-1.8v23.8h1.8V37zM123.8 13.3h-1.9v23.8h1.9V37zM127.4 13.3h-1.8v23.8h1.8V37z" class="st3"/></g><path d="M72.7 19.4h10.2v1H72.7zM80.3 21.5h1v1.9h-1zM78.3 21.5h1v1.9h-1zM76.4 21.5h1v1.9h-1zM74.4 21.5h1v1.9h-1zM72.7 17.5h10.2v1H72.7zM72.7 15.6h10.2v1H72.7zM72.7 13.8h10.2v1H72.7zM72.7 11.9h10.2v1H72.7zM72.7 10h10.2v1H72.7z" class="st4"/><path d="M73.7 22.5h8.2V8.3h-8.2z"/><g id="LED"><path d="M113.6 7.5h6.3V10h-6.3z" class="st3"/><path d="M114.9 8.8c0-1.1.9-1.9 1.9-1.9 1.1 0 1.9.9 1.9 1.9 0 1.1-.9 1.9-1.9 1.9-1.1 0-1.9-.9-1.9-1.9" style="fill:#eaa800"/></g><g id="LED-2"><path d="M113.6 40.3h6.3v2.5h-6.3z" class="st3"/><path d="M114.9 41.6c0-1.1.9-1.9 1.9-1.9 1.1 0 1.9.9 1.9 1.9 0 1.1-.9 1.9-1.9 1.9-1.1 0-1.9-.8-1.9-1.9" style="fill:#1a9f85"/></g><g id="Artwork_12"><path d="M83.5 35.1h2.2v4.5h-2.2zM77.8 35.1H80v4.5h-2.2z" class="st3"/><path d="M79.8 35.6c-.5 0-.9.4-.9.9v1.7c0 .5.4.9.9.9h.2v-3.5zM83.8 39.1c.5 0 .9-.4.9-.9v-1.7c0-.5-.4-.9-.9-.9h-.2v3.5z" class="st7"/><path d="M80.1 35.6h3.5v3.5h-3.5z"/></g><g id="Artwork_12-2"><path d="M104 16.3h2.2v4.5H104zM98.3 16.3h2.2v4.5h-2.2z" class="st3"/><path d="M100.3 16.8c-.5 0-.9.4-.9.9v1.7c0 .5.4.9.9.9h.2v-3.5zM104.3 20.3c.5 0 .9-.4.9-.9v-1.7c0-.5-.4-.9-.9-.9h-.3v3.5z" class="st7"/><path d="M100.6 16.8h3.5v3.5h-3.5z"/></g><g id="Disegno_5"><path d="M98.3 24.3h6.6v4.4h-6.6z" class="st0"/><path d="M98.3 24.3h6.6v4.4h-6.6z"/><path d="M103.2 21.8h1.1V25h-1.1zM98.9 21.8h1.1V25h-1.1zM103.2 27.5h1.1v3.2h-1.1zM98.9 27.5h1.1v3.2h-1.1z" class="st3"/></g><g id="Disegno_8"><path d="M78.7 29.8h-1.8c-.5 0-.9.4-.9.9s.4.9.9.9h1.8c.5 0 .9-.4.9-.9s-.4-.9-.9-.9" class="st3"/><path d="M77.1 29.8h1.3v1.8h-1.3z" class="st7"/><path d="M77.1 29.8h1.3v1.8h-1.3z" class="st7"/><path d="M77.1 29.8h1.3v1.8h-1.3z" class="st7"/><path d="M77.1 29.8h1.3v1.8h-1.3z" class="st7"/></g><g id="Disegno_8-2"><path d="M75.1 33.5h-1.8c-.5 0-.9.4-.9.9s.4.9.9.9h1.8c.5 0 .9-.4.9-.9s-.4-.9-.9-.9" class="st3"/><path d="M73.5 33.5h1.3v1.8h-1.3z" class="st7"/><path d="M73.5 33.5h1.3v1.8h-1.3z" class="st7"/><path d="M73.5 33.5h1.3v1.8h-1.3z" class="st7"/><path d="M73.5 33.5h1.3v1.8h-1.3z" class="st7"/></g><g id="Disegno_8-3"><path d="M71.9 37.1h-1.8c-.5 0-.9.4-.9.9s.4.9.9.9h1.8c.5 0 .9-.4.9-.9s-.4-.9-.9-.9" class="st3"/><path d="M70.3 37.1h1.3v1.8h-1.3z" class="st7"/><path d="M70.3 37.1h1.3v1.8h-1.3z" class="st7"/><path d="M70.3 37.1h1.3v1.8h-1.3z" class="st7"/><path d="M70.3 37.1h1.3v1.8h-1.3z" class="st7"/></g><g id="Disegno_8-4"><path d="M66.4 41h-1.8c-.5 0-.9.4-.9.9s.4.9.9.9h1.8c.5 0 .9-.4.9-.9s-.4-.9-.9-.9" class="st3"/><path d="M64.8 41h1.3v1.8h-1.3z" class="st7"/><path d="M64.8 41h1.3v1.8h-1.3z" class="st7"/><path d="M64.8 41h1.3v1.8h-1.3z" class="st7"/><path d="M64.8 41h1.3v1.8h-1.3z" class="st7"/></g><g id="Disegno_8-5"><path d="M75.7 24.8h-1.8c-.5 0-.9.4-.9.9s.4.9.9.9h1.8c.5 0 .9-.4.9-.9.1-.5-.3-.9-.9-.9" class="st3"/><path d="M74.2 24.8h1.3v1.8h-1.3z" class="st7"/><path d="M74.2 24.8h1.3v1.8h-1.3z" class="st7"/><path d="M74.2 24.8h1.3v1.8h-1.3z" class="st7"/><path d="M74.2 24.8h1.3v1.8h-1.3z" class="st7"/></g><g id="Disegno_8-6"><path d="M60.1 41h-1.8c-.5 0-.9.4-.9.9s.4.9.9.9h1.8c.5 0 .9-.4.9-.9s-.4-.9-.9-.9" class="st3"/><path d="M58.5 41h1.3v1.8h-1.3z" class="st7"/><path d="M58.5 41h1.3v1.8h-1.3z" class="st7"/><path d="M58.5 41h1.3v1.8h-1.3z" class="st7"/><path d="M58.5 41h1.3v1.8h-1.3z" class="st7"/></g><g id="Disegno_8-7"><path d="M107.9 41.2h-1.8c-.5 0-.9.4-.9.9s.4.9.9.9h1.8c.5 0 .9-.4.9-.9s-.4-.9-.9-.9" class="st3"/><path d="M106.3 41.2h1.3V43h-1.3z" class="st7"/><path d="M106.3 41.2h1.3V43h-1.3z" class="st7"/><path d="M106.3 41.2h1.3V43h-1.3z" class="st7"/><path d="M106.3 41.2h1.3V43h-1.3z" class="st7"/></g><g id="Disegno_8-8"><path d="M103.5 13.8h-1.8c-.5 0-.9.4-.9.9s.4.9.9.9h1.8c.5 0 .9-.4.9-.9s-.4-.9-.9-.9" class="st3"/><path d="M101.9 13.8h1.3v1.8h-1.3z" class="st7"/><path d="M101.9 13.8h1.3v1.8h-1.3z" class="st7"/><path d="M101.9 13.8h1.3v1.8h-1.3z" class="st7"/><path d="M101.9 13.8h1.3v1.8h-1.3z" class="st7"/></g><g id="Disegno_8-9"><path d="M109.5 8.1h-1.8c-.5 0-.9.4-.9.9s.4.9.9.9h1.8c.5 0 .9-.4.9-.9s-.4-.9-.9-.9" class="st3"/><path d="M107.9 8.1h1.3v1.8h-1.3z" class="st7"/><path d="M107.9 8.1h1.3v1.8h-1.3z" class="st7"/><path d="M107.9 8.1h1.3v1.8h-1.3z" class="st7"/><path d="M107.9 8.1h1.3v1.8h-1.3z" class="st7"/></g><g id="Disegno_8-10"><path d="M76.4 41.2h-1.8c-.5 0-.9.4-.9.9s.4.9.9.9h1.8c.5 0 .9-.4.9-.9s-.4-.9-.9-.9" class="st3"/><path d="M74.8 41.2h1.3V43h-1.3z" class="st7"/><path d="M74.8 41.2h1.3V43h-1.3z" class="st7"/><path d="M74.8 41.2h1.3V43h-1.3z" class="st7"/><path d="M74.8 41.2h1.3V43h-1.3z" class="st7"/></g><g id="Disegno_8-11"><path d="M91.3 34.3h-1.8c-.5 0-.9.4-.9.9s.4.9.9.9h1.8c.5 0 .9-.4.9-.9.1-.5-.3-.9-.9-.9" class="st3"/><path d="M89.8 34.3h1.3v1.8h-1.3z" class="st7"/><path d="M89.8 34.3h1.3v1.8h-1.3z" class="st7"/><path d="M89.8 34.3h1.3v1.8h-1.3z" class="st7"/><path d="M89.8 34.3h1.3v1.8h-1.3z" class="st7"/></g><g id="Disegno_8-12"><path d="M91.3 37.5h-1.8c-.5 0-.9.4-.9.9s.4.9.9.9h1.8c.5 0 .9-.4.9-.9.1-.5-.3-.9-.9-.9" class="st3"/><path d="M89.8 37.5h1.3v1.8h-1.3z" class="st7"/><path d="M89.8 37.5h1.3v1.8h-1.3z" class="st7"/><path d="M89.8 37.5h1.3v1.8h-1.3z" class="st7"/><path d="M89.8 37.5h1.3v1.8h-1.3z" class="st7"/></g><g id="Disegno_23"><path d="M81.8 29.5h2.1v4.2h-2.1z" class="st7"/><path d="M81.8 33.4h2.1v.2h-2.1zM81.8 29.5h2.1v.2h-2.1z" class="st2"/></g><g id="Disegno_26"><path d="M96 35.6h7.5v3.5H96z" class="st0"/><path d="M96 35.6h7.5v3.5H96z"/><path d="M102.9 36.8h2.8v1h-2.8zM94.3 36.8h2.8v1h-2.8z" class="st3"/></g><g id="Artwork_12-3"><path d="M66.5 13.5H71v2.2h-4.5zM66.5 19.3H71v2.2h-4.5z" class="st3"/><path d="M67 19.5c0 .5.4.9.9.9h1.7c.5 0 .9-.4.9-.9v-.2H67zM70.5 15.5c0-.5-.4-.9-.9-.9h-1.7c-.5 0-.9.4-.9.9v.2h3.5z" class="st7"/><path d="M67 15.8h3.5v3.5H67z"/></g><g id="Disegno_8-13"><path d="M10.7 7.3H8.9c-.6 0-.9.4-.9.9s.4.9.9.9h1.8c.5 0 .9-.4.9-.9s-.4-.9-.9-.9" class="st3"/><path d="M9.1 7.3h1.3v1.8H9.1z" class="st7"/><path d="M9.1 7.3h1.3v1.8H9.1z" class="st7"/><path d="M9.1 7.3h1.3v1.8H9.1z" class="st7"/><path d="M9.1 7.3h1.3v1.8H9.1z" class="st7"/></g><g id="Disegno_8-14"><path d="M4.7 7.3H2.9c-.5 0-.9.4-.9.9s.4.9.9.9h1.8c.5 0 .9-.4.9-.9s-.4-.9-.9-.9" class="st3"/><path d="M3.1 7.3h1.3v1.8H3.1z" class="st7"/><path d="M3.1 7.3h1.3v1.8H3.1z" class="st7"/><path d="M3.1 7.3h1.3v1.8H3.1z" class="st7"/><path d="M3.1 7.3h1.3v1.8H3.1z" class="st7"/></g><g id="Disegno_8-15"><path d="M47.1 28.8h-1.8c-.5 0-.9.4-.9.9s.4.9.9.9h1.8c.5 0 .9-.4.9-.9s-.4-.9-.9-.9" class="st3"/><path d="M45.5 28.8h1.3v1.8h-1.3z" class="st7"/><path d="M45.5 28.8h1.3v1.8h-1.3z" class="st7"/><path d="M45.5 28.8h1.3v1.8h-1.3z" class="st7"/><path d="M45.5 28.8h1.3v1.8h-1.3z" class="st7"/></g><g id="Disegno_8-16"><path d="M47.1 38.7h-1.8c-.5 0-.9.4-.9.9s.4.9.9.9h1.8c.5 0 .9-.4.9-.9s-.4-.9-.9-.9" class="st3"/><path d="M45.5 38.7h1.3v1.8h-1.3z" class="st7"/><path d="M45.5 38.7h1.3v1.8h-1.3z" class="st7"/><path d="M45.5 38.7h1.3v1.8h-1.3z" class="st7"/><path d="M45.5 38.7h1.3v1.8h-1.3z" class="st7"/></g><g id="Disegno_8-17"><path d="M21.6 40.8h-1.8c-.5 0-.9.4-.9.9s.4.9.9.9h1.8c.5 0 .9-.4.9-.9 0-.4-.4-.9-.9-.9" class="st3"/><path d="M20 40.8h1.3v1.8H20z" class="st7"/><path d="M20 40.8h1.3v1.8H20z" class="st7"/><path d="M20 40.8h1.3v1.8H20z" class="st7"/><path d="M20 40.8h1.3v1.8H20z" class="st7"/></g><g id="Disegno_8-18"><path d="M86.6 11.2V13c0 .5.4.9.9.9s.9-.4.9-.9v-1.8c0-.5-.4-.9-.9-.9s-.9.4-.9.9" class="st3"/><path d="M86.6 11.4h1.8v1.3h-1.8z" class="st7"/><path d="M86.6 11.4h1.8v1.3h-1.8z" class="st7"/><path d="M86.6 11.4h1.8v1.3h-1.8z" class="st7"/><path d="M86.6 11.4h1.8v1.3h-1.8z" class="st7"/></g><g id="Disegno_8-19"><path d="M68.3 24.8v1.8c0 .5.4.9.9.9s.9-.4.9-.9v-1.8c0-.5-.4-.9-.9-.9s-.9.4-.9.9" class="st3"/><path d="M68.3 25.1h1.8v1.3h-1.8z" class="st7"/><path d="M68.3 25.1h1.8v1.3h-1.8z" class="st7"/><path d="M68.3 25.1h1.8v1.3h-1.8z" class="st7"/><path d="M68.3 25.1h1.8v1.3h-1.8z" class="st7"/></g><g id="Disegno_8-20"><path d="M51 35.4v1.8c0 .5.4.9.9.9s.9-.4.9-.9v-1.8c0-.5-.4-.9-.9-.9s-.9.4-.9.9" class="st3"/><path d="M51 35.6h1.8v1.3H51z" class="st7"/><path d="M51 35.6h1.8v1.3H51z" class="st7"/><path d="M51 35.6h1.8v1.3H51z" class="st7"/><path d="M51 35.6h1.8v1.3H51z" class="st7"/></g><g id="Disegno_23-2"><path d="M83.9 9.8H86V14h-2.1z" class="st7"/><path d="M83.9 13.7H86v.2h-2.1zM83.9 9.8H86v.2h-2.1z" class="st2"/></g><g id="Disegno_23-3"><path d="M26.2 7.2h4.2v2.1h-4.2z" class="st7"/><path d="M30.1 7.2h.2v2.1h-.2zM26.2 7.2h.2v2.1h-.2z" class="st2"/></g><g id="Disegno_23-4"><path d="M104.8 10.3h1.6v3.2h-1.6z" class="st7"/><path d="M104.8 13.4h1.6v.2h-1.6zM104.8 10.3h1.6v.2h-1.6z" class="st2"/></g><g id="Disegno_23-5"><path d="M60.8 13.5H64v1.6h-3.2z" class="st7"/><path d="M63.8 13.5h.2v1.6h-.2zM60.8 13.5h.2v1.6h-.2z" class="st2"/></g><g id="Disegno_23-6"><path d="M60.8 16.4H64V18h-3.2z" class="st7"/><path d="M63.8 16.4h.2V18h-.2zM60.8 16.4h.2V18h-.2z" class="st2"/></g><g id="Disegno_23-7"><path d="M55.2 18.6h3.2v1.6h-3.2z" class="st7"/><path d="M58.3 18.6h.2v1.6h-.2zM55.2 18.6h.2v1.6h-.2z" class="st2"/></g><path id="Disegno_13" d="M93.3 7.3h9.1v5.9h-9.1z"/><path id="Disegno_13-2" d="M55.8 29.5h9.9v8.6h-9.9z"/><path d="m91.5 22.2-.2.1H91l-.2.1-.3.1-.2.1-.2.1-.2.2-.2.1-.2.2-.2.2-.1.2-.2.2-.1.2-.1.3-.1.2v.3l-.1.2v.5l.1.3v.3l.1.2.1.2.1.3.1.2.1.2.2.2.2.2.2.2.2.1.2.2.2.1.2.1.3.1h.2l.3.1h.8l.2-.1h.3l.2-.1.2-.1.3-.1.2-.2.2-.1.2-.2.2-.2.1-.2.2-.2.1-.2.1-.3.1-.2v-.2l.1-.3v-1l-.1-.3-.1-.2-.1-.3-.1-.2-.1-.2-.2-.2-.1-.2-.2-.2-.2-.1-.2-.2-.3-.1-.2-.1-.2-.1-.3-.1h-.2l-.3-.1h-.2z" style="fill:none"/><path d="M89.6 18.7h4.5v1.7h-4.5zM89.6 30h4.5v1.7h-4.5z" class="st3"/><path d="M95.5 19.8h-7.3v10.6h7.3zM91.7 28h-.4l-.3-.1-.2-.1-.2-.1-.2-.1-.2-.1-.2-.1-.2-.1-.2-.2-.1-.2-.1-.2-.1-.2-.1-.2-.1-.2.1-.1v-1.2l.1-.2.1-.2.1-.2.1-.2.3-.3.2-.2.2-.1.2-.1.2-.1.2-.1.2-.1.2-.1h1.2l.2.1.2.1.1-.1.2.1.2.1.2.1.2.2.2.2.1.2.1.2.1.2.1.2.1.2v1.4l-.1.2-.1.2-.3.2-.1.2-.1.2-.2.2-.2.1-.2.1-.2.1-.2.1-.2.1-.2.1-.1.1h-.6" class="st1"/><path d="M91.9 28h-.7l-.2-.1-.2-.1h-.2l-.2-.1-.2-.2-.1-.1-.2-.1-.2-.2-.1-.2-.1-.2-.1-.1-.1-.2-.1-.2V26l-.1-.3v-.6l.1-.2v-.2l.1-.3v-.2l.1-.1.2-.2.2-.4.2-.1.2-.2.1-.1.2-.1.2-.1.2-.1h.2l.2-.1h.9l.2.1h.2l.2.1.2.1.2.1.2.1.2.2.1.1.2.2.1.2.1.2.1.1.1.2v.3l.1.2V26l-.1.2-.1.2v.2l-.2.1-.1.2-.1.2-.2.2-.1.1-.2.1-.2.2-.2.1h-.2l-.2.1-.2.1h-.2z" style="fill:#f7f9f9"/><g id="Disegno_8-21"><path d="M59.9 9.2V11c0 .5.4.9.9.9s.9-.4.9-.9V9.2c0-.5-.4-.9-.9-.9-.4 0-.9.4-.9.9" class="st3"/><path d="M59.9 9.5h1.8v1.3h-1.8z" class="st7"/><path d="M59.9 9.5h1.8v1.3h-1.8z" class="st7"/><path d="M59.9 9.5h1.8v1.3h-1.8z" class="st7"/><path d="M59.9 9.5h1.8v1.3h-1.8z" class="st7"/></g><g id="Disegno_8-22"><path d="M49.2 9.2V11c0 .5.4.9.9.9s.9-.4.9-.9V9.2c0-.5-.4-.9-.9-.9s-.9.4-.9.9" class="st3"/><path d="M49.2 9.5H51v1.3h-1.8z" class="st7"/><path d="M49.2 9.5H51v1.3h-1.8z" class="st7"/><path d="M49.2 9.5H51v1.3h-1.8z" class="st7"/><path d="M49.2 9.5H51v1.3h-1.8z" class="st7"/></g><g id="Disegno_8-23"><path d="M63 9.2V11c0 .5.4.9.9.9s.9-.4.9-.9V9.2c0-.5-.4-.9-.9-.9s-.9.4-.9.9" class="st3"/><path d="M63 9.5h1.8v1.3H63z" class="st7"/><path d="M63 9.5h1.8v1.3H63z" class="st7"/><path d="M63 9.5h1.8v1.3H63z" class="st7"/><path d="M63 9.5h1.8v1.3H63z" class="st7"/></g><g id="Artwork_24"><path d="M10.1 10.2h30.7v30H10.1z" class="st3"/><path d="M11.4 11.5h-.1v27.4h28.1V11.5h-.1z" style="fill:#b8b9ba"/></g><path d="M0 10.2h10.1v30H0z" class="st11"/><path d="M0 10.2h10.1v30H0z" class="st11"/><path d="m5.6 16.7 2.3-3.1H9v23.2H7.9l-2.3-3.2zM1.1 22.4l3-3.9v13.2l-3-3.9z" class="st0"/><path d="M113.2 46.7c0-1.2-1-2.3-2.3-2.3-1.2 0-2.2 1-2.3 2.3v3.7h4.5v-3.7zm-3.7 0c0-.8.7-1.5 1.5-1.5s1.5.7 1.5 1.5-.7 1.5-1.5 1.5c-.8-.1-1.5-.7-1.5-1.5" class="st12"/><path d="M111 48.1c-.8 0-1.5-.7-1.5-1.5s.7-1.5 1.5-1.5 1.5.7 1.5 1.5c0 .9-.7 1.5-1.5 1.5" class="st7"/><path d="M109.5 50.4c0-.8.7-1.5 1.5-1.5s1.5.7 1.5 1.5z" class="st13"/><path d="M106.1 46.7c0-1.2-1-2.3-2.3-2.2-1.2 0-2.2 1-2.2 2.2v3.7h4.5zm-3.7 0c0-.8.7-1.5 1.5-1.5s1.5.7 1.5 1.5-.7 1.5-1.5 1.5c-.8-.1-1.5-.7-1.5-1.5" class="st12"/><path d="M103.9 48.1c-.8 0-1.5-.7-1.5-1.5s.7-1.5 1.5-1.5 1.5.7 1.5 1.5c-.1.9-.7 1.5-1.5 1.5" class="st7"/><path d="M102.4 50.4c0-.8.7-1.5 1.5-1.5s1.5.7 1.5 1.5z" class="st13"/><path d="M99 46.7c0-1.2-1-2.3-2.3-2.3-1.2 0-2.2 1-2.3 2.3v3.7H99zm-3.7 0c0-.8.7-1.5 1.5-1.5s1.5.7 1.5 1.5-.7 1.5-1.5 1.5c-.9-.1-1.5-.7-1.5-1.5" class="st12"/><path d="M96.8 48.1c-.8 0-1.5-.7-1.5-1.5s.7-1.5 1.5-1.5 1.5.7 1.5 1.5c-.1.9-.7 1.5-1.5 1.5" class="st7"/><path d="M95.3 50.4c0-.8.7-1.5 1.5-1.5s1.5.7 1.5 1.5z" class="st13"/><path d="M91.9 46.7c0-1.2-1-2.3-2.3-2.3-1.2 0-2.2 1-2.3 2.3v3.7h4.5v-3.7zm-3.7 0c0-.8.7-1.5 1.5-1.5s1.5.7 1.5 1.5-.7 1.5-1.5 1.5c-.9-.1-1.5-.7-1.5-1.5" class="st12"/><path d="M89.6 48.1c-.8 0-1.5-.7-1.5-1.5s.7-1.5 1.5-1.5 1.5.7 1.5 1.5c0 .9-.7 1.5-1.5 1.5" class="st7"/><path d="M88.2 50.4c0-.8.7-1.5 1.5-1.5s1.5.7 1.5 1.5z" class="st13"/><path d="M84.8 46.7c0-1.2-1-2.3-2.3-2.2-1.2 0-2.2 1-2.2 2.2v3.7h4.5zm-3.7 0c0-.8.7-1.5 1.5-1.5s1.5.7 1.5 1.5-.7 1.5-1.5 1.5c-.9-.1-1.5-.7-1.5-1.5" class="st12"/><path d="M82.5 48.1c-.8 0-1.5-.7-1.5-1.5s.7-1.5 1.5-1.5 1.5.7 1.5 1.5c0 .9-.7 1.5-1.5 1.5" class="st7"/><path d="M81.1 50.4c0-.8.7-1.5 1.5-1.5s1.5.7 1.5 1.5z" class="st13"/><path d="M77.7 46.7c0-1.2-1-2.3-2.3-2.3-1.2 0-2.2 1-2.3 2.3v3.7h4.5v-3.7zm-3.8 0c0-.8.7-1.5 1.5-1.5s1.5.7 1.5 1.5-.7 1.5-1.5 1.5c-.8-.1-1.5-.7-1.5-1.5" class="st12"/><path d="M75.4 48.1c-.8 0-1.5-.7-1.5-1.5s.7-1.5 1.5-1.5 1.5.7 1.5 1.5c0 .9-.7 1.5-1.5 1.5" class="st7"/><path d="M73.9 50.4c0-.8.7-1.5 1.5-1.5s1.5.7 1.5 1.5z" class="st13"/><path d="M70.5 46.7c0-1.2-1-2.3-2.3-2.2-1.2 0-2.2 1-2.2 2.2v3.7h4.5zm-3.7 0c0-.8.7-1.5 1.5-1.5s1.5.7 1.5 1.5-.7 1.5-1.5 1.5c-.8-.1-1.5-.7-1.5-1.5" class="st12"/><path d="M68.3 48.1c-.8 0-1.5-.7-1.5-1.5s.7-1.5 1.5-1.5 1.5.7 1.5 1.5c0 .9-.7 1.5-1.5 1.5" class="st7"/><path d="M66.8 50.4c0-.8.7-1.5 1.5-1.5s1.5.7 1.5 1.5z" class="st13"/><path d="M63.4 46.7c0-1.2-1-2.3-2.3-2.3-1.2 0-2.2 1-2.3 2.3v3.7h4.5v-3.7zm-3.7 0c0-.8.7-1.5 1.5-1.5s1.5.7 1.5 1.5-.7 1.5-1.5 1.5c-.8-.1-1.5-.7-1.5-1.5" class="st12"/><path d="M61.2 48.1c-.8 0-1.5-.7-1.5-1.5s.7-1.5 1.5-1.5 1.5.7 1.5 1.5c-.1.9-.7 1.5-1.5 1.5" class="st7"/><path d="M59.7 50.4c0-.8.7-1.5 1.5-1.5s1.5.7 1.5 1.5z" class="st13"/><path d="M56.3 46.7c0-1.2-1-2.3-2.3-2.2-1.2 0-2.2 1-2.2 2.2v3.7h4.5zm-3.7 0c0-.8.7-1.5 1.5-1.5s1.5.7 1.5 1.5-.7 1.5-1.5 1.5c-.9-.1-1.5-.7-1.5-1.5" class="st12"/><path d="M54.1 48.1c-.8 0-1.5-.7-1.5-1.5s.7-1.5 1.5-1.5 1.5.7 1.5 1.5c-.1.9-.7 1.5-1.5 1.5" class="st7"/><path d="M52.6 50.4c0-.8.7-1.5 1.5-1.5s1.5.7 1.5 1.5z" class="st13"/><path d="M49.2 46.7c0-1.2-1-2.3-2.3-2.3-1.2 0-2.2 1-2.3 2.3v3.7h4.5v-3.7zm-3.7 0c0-.8.7-1.5 1.5-1.5s1.5.7 1.5 1.5-.7 1.5-1.5 1.5c-.9-.1-1.5-.7-1.5-1.5" class="st12"/><path d="M46.9 48.1c-.8 0-1.5-.7-1.5-1.5s.7-1.5 1.5-1.5 1.5.7 1.5 1.5c0 .9-.6 1.5-1.5 1.5" class="st7"/><path d="M45.5 50.4c0-.8.7-1.5 1.5-1.5s1.5.7 1.5 1.5z" class="st13"/><path d="M42.1 46.7c0-1.2-1-2.3-2.3-2.3-1.2 0-2.2 1-2.3 2.3v3.7H42v-3.7zm-3.7 0c0-.8.7-1.5 1.5-1.5s1.5.7 1.5 1.5-.7 1.5-1.5 1.5c-.9-.1-1.5-.7-1.5-1.5" class="st12"/><path d="M39.8 48.1c-.8 0-1.5-.7-1.5-1.5s.7-1.5 1.5-1.5 1.5.7 1.5 1.5c0 .9-.7 1.5-1.5 1.5" class="st7"/><path d="M38.4 50.4c0-.8.7-1.5 1.5-1.5s1.5.7 1.5 1.5z" class="st13"/><path d="M35 46.7c0-1.2-1-2.3-2.3-2.2-1.2 0-2.2 1-2.2 2.2v3.7H35zm-3.8 0c0-.8.7-1.5 1.5-1.5s1.5.7 1.5 1.5-.7 1.5-1.5 1.5c-.8-.1-1.5-.7-1.5-1.5" class="st12"/><path d="M32.7 48.1c-.8 0-1.5-.7-1.5-1.5s.7-1.5 1.5-1.5 1.5.7 1.5 1.5c0 .9-.7 1.5-1.5 1.5" class="st7"/><path d="M31.2 50.4c0-.8.7-1.5 1.5-1.5s1.5.7 1.5 1.5z" class="st13"/><path d="M27.8 46.7c0-1.2-1-2.3-2.3-2.3-1.2 0-2.2 1-2.3 2.3v3.7h4.5v-3.7zm-3.7 0c0-.8.7-1.5 1.5-1.5s1.5.7 1.5 1.5-.7 1.5-1.5 1.5c-.8-.1-1.5-.7-1.5-1.5" class="st12"/><path d="M25.6 48.1c-.8 0-1.5-.7-1.5-1.5s.7-1.5 1.5-1.5 1.5.7 1.5 1.5c0 .9-.7 1.5-1.5 1.5" class="st7"/><path d="M24.1 50.4c0-.8.7-1.5 1.5-1.5s1.5.7 1.5 1.5z" class="st13"/><path d="M20.7 46.7c0-1.2-1-2.3-2.3-2.2-1.2 0-2.2 1-2.2 2.2v3.7h4.5zm-3.7 0c0-.8.7-1.5 1.5-1.5s1.5.7 1.5 1.5-.7 1.5-1.5 1.5c-.8-.1-1.5-.7-1.5-1.5" class="st12"/><path d="M18.5 48.1c-.8 0-1.5-.7-1.5-1.5s.7-1.5 1.5-1.5 1.5.7 1.5 1.5c-.1.9-.7 1.5-1.5 1.5" class="st7"/><path d="M17 50.4c0-.8.7-1.5 1.5-1.5s1.5.7 1.5 1.5z" class="st13"/><path d="M13.6 46.7c0-1.2-1-2.3-2.3-2.3-1.2 0-2.2 1-2.3 2.3v3.7h4.5v-3.7zm-3.7 0c0-.8.7-1.5 1.5-1.5s1.5.7 1.5 1.5-.7 1.5-1.5 1.5c-.8-.1-1.5-.7-1.5-1.5" class="st12"/><path d="M11.4 48.1c-.8 0-1.5-.7-1.5-1.5s.7-1.5 1.5-1.5 1.5.7 1.5 1.5c-.1.9-.7 1.5-1.5 1.5" class="st7"/><path d="M9.9 50.4c0-.8.7-1.5 1.5-1.5s1.5.7 1.5 1.5z" class="st13"/><path d="M13.6 3.7V0H9.1v3.7c0 1.2 1 2.3 2.3 2.3 1.2-.1 2.2-1.1 2.2-2.3m-3.7 0c0-.8.7-1.5 1.5-1.5s1.5.7 1.5 1.5-.7 1.5-1.5 1.5c-.9 0-1.5-.7-1.5-1.5" class="st12"/><path d="M11.4 5.2c-.8 0-1.5-.7-1.5-1.5s.7-1.5 1.5-1.5 1.5.7 1.5 1.5c-.1.8-.7 1.5-1.5 1.5" class="st7"/><path d="M12.8 0c0 .8-.7 1.5-1.5 1.5S9.9.8 9.9 0z" class="st13"/><path d="M20.7 3.7V0h-4.5v3.7c0 1.2 1 2.3 2.3 2.2 1.2 0 2.2-1 2.2-2.2m-3.7 0c0-.8.7-1.5 1.5-1.5s1.5.7 1.5 1.5-.7 1.5-1.5 1.5S17 4.5 17 3.7" class="st12"/><path d="M18.5 5.2c-.8 0-1.5-.7-1.5-1.5s.7-1.5 1.5-1.5 1.5.7 1.5 1.5c-.1.8-.7 1.5-1.5 1.5" class="st7"/><path d="M19.9 0c0 .8-.7 1.5-1.5 1.5S17 .8 17 0z" class="st13"/><path d="M27.8 3.7V0h-4.5v3.7c0 1.2 1 2.3 2.3 2.3 1.2-.1 2.2-1.1 2.2-2.3m-3.7 0c0-.8.7-1.5 1.5-1.5s1.5.7 1.5 1.5-.7 1.5-1.5 1.5-1.5-.7-1.5-1.5" class="st12"/><path d="M25.6 5.2c-.8 0-1.5-.7-1.5-1.5s.7-1.5 1.5-1.5 1.5.7 1.5 1.5-.7 1.5-1.5 1.5" class="st7"/><path d="M27.1 0c0 .8-.7 1.5-1.5 1.5S24.1.8 24.1 0z" class="st13"/><path d="M35 3.7V0h-4.5v3.7c0 1.2 1 2.3 2.3 2.2 1.2 0 2.2-1 2.2-2.2m-3.8 0c0-.8.7-1.5 1.5-1.5s1.5.7 1.5 1.5-.7 1.5-1.5 1.5-1.5-.7-1.5-1.5" class="st12"/><path d="M32.7 5.2c-.8 0-1.5-.7-1.5-1.5s.7-1.5 1.5-1.5 1.5.7 1.5 1.5-.7 1.5-1.5 1.5" class="st7"/><path d="M34.2 0c0 .8-.7 1.5-1.5 1.5S31.2.8 31.2 0z" class="st13"/><path d="M42.1 3.7V0h-4.5v3.7c0 1.2 1 2.3 2.3 2.3 1.2-.1 2.2-1.1 2.2-2.3m-3.8 0c0-.8.7-1.5 1.5-1.5s1.5.7 1.5 1.5-.7 1.5-1.5 1.5-1.4-.7-1.5-1.5" class="st12"/><path d="M39.8 5.2c-.8 0-1.5-.7-1.5-1.5s.7-1.5 1.5-1.5 1.5.7 1.5 1.5-.7 1.5-1.5 1.5" class="st7"/><path d="M41.3 0c0 .8-.7 1.5-1.5 1.5S38.3.8 38.3 0z" class="st13"/><path d="M49.2 3.7V0h-4.5v3.7c0 1.2 1 2.3 2.3 2.3 1.2-.1 2.2-1.1 2.2-2.3m-3.7 0c0-.8.7-1.5 1.5-1.5s1.5.7 1.5 1.5-.7 1.5-1.5 1.5c-.9 0-1.5-.7-1.5-1.5" class="st12"/><path d="M46.9 5.2c-.8 0-1.5-.7-1.5-1.5s.7-1.5 1.5-1.5 1.5.7 1.5 1.5-.6 1.5-1.5 1.5" class="st7"/><path d="M48.4 0c0 .8-.7 1.5-1.5 1.5S45.5.8 45.5 0z" class="st13"/><path d="M56.3 3.7V0h-4.5v3.7c0 1.2 1 2.3 2.3 2.2 1.2 0 2.2-1 2.2-2.2m-3.7 0c0-.8.7-1.5 1.5-1.5s1.5.7 1.5 1.5-.7 1.5-1.5 1.5c-.9 0-1.5-.7-1.5-1.5" class="st12"/><path d="M54.1 5.2c-.8 0-1.5-.7-1.5-1.5s.7-1.5 1.5-1.5 1.5.7 1.5 1.5c-.1.8-.7 1.5-1.5 1.5" class="st7"/><path d="M55.5 0c0 .8-.7 1.5-1.5 1.5S52.6.8 52.6 0z" class="st13"/><path d="M63.4 3.7V0h-4.5v3.7c0 1.2 1 2.3 2.3 2.3 1.2-.1 2.2-1.1 2.2-2.3m-3.7 0c0-.8.7-1.5 1.5-1.5s1.5.7 1.5 1.5-.7 1.5-1.5 1.5-1.5-.7-1.5-1.5" class="st12"/><path d="M61.2 5.2c-.8 0-1.5-.7-1.5-1.5s.7-1.5 1.5-1.5 1.5.7 1.5 1.5c-.1.8-.7 1.5-1.5 1.5" class="st7"/><path d="M62.6 0c0 .8-.7 1.5-1.5 1.5S59.7.8 59.7 0z" class="st13"/><path d="M70.5 3.7V0H66v3.7c0 1.2 1 2.3 2.3 2.2 1.2 0 2.2-1 2.2-2.2m-3.7 0c0-.8.7-1.5 1.5-1.5s1.5.7 1.5 1.5-.7 1.5-1.5 1.5-1.5-.7-1.5-1.5" class="st12"/><path d="M68.3 5.2c-.8 0-1.5-.7-1.5-1.5s.7-1.5 1.5-1.5 1.5.7 1.5 1.5-.7 1.5-1.5 1.5" class="st7"/><path d="M69.8 0c0 .8-.7 1.5-1.5 1.5S66.8.8 66.8 0z" class="st13"/><path d="M77.7 3.7V0h-4.5v3.7c0 1.2 1 2.3 2.3 2.3 1.1-.1 2.2-1.1 2.2-2.3m-3.8 0c0-.8.7-1.5 1.5-1.5s1.5.7 1.5 1.5-.7 1.5-1.5 1.5-1.5-.7-1.5-1.5" class="st12"/><path d="M75.4 5.2c-.8 0-1.5-.7-1.5-1.5s.7-1.5 1.5-1.5 1.5.7 1.5 1.5-.7 1.5-1.5 1.5" class="st7"/><path d="M76.9 0c0 .8-.7 1.5-1.5 1.5S73.9.8 73.9 0z" class="st13"/><path d="M84.8 3.7V0h-4.5v3.7c0 1.2 1 2.3 2.3 2.2 1.2 0 2.2-1 2.2-2.2m-3.8 0c0-.8.7-1.5 1.5-1.5s1.5.7 1.5 1.5-.7 1.5-1.5 1.5S81 4.5 81 3.7" class="st12"/><path d="M82.5 5.2c-.8 0-1.5-.7-1.5-1.5s.7-1.5 1.5-1.5 1.5.7 1.5 1.5-.7 1.5-1.5 1.5" class="st7"/><path d="M84 0c0 .8-.7 1.5-1.5 1.5S81 .8 81 0z" class="st13"/><path d="M91.9 3.7V0h-4.5v3.7c0 1.2 1 2.3 2.3 2.3 1.2-.1 2.2-1.1 2.2-2.3m-3.7 0c0-.8.7-1.5 1.5-1.5s1.5.7 1.5 1.5-.7 1.5-1.5 1.5c-.9 0-1.5-.7-1.5-1.5" class="st12"/><path d="M89.6 5.2c-.8 0-1.5-.7-1.5-1.5s.7-1.5 1.5-1.5 1.5.7 1.5 1.5-.7 1.5-1.5 1.5" class="st7"/><path d="M91.1 0c0 .8-.7 1.5-1.5 1.5S88.2.8 88.2 0z" class="st13"/><path d="M99 3.7V0h-4.5v3.7c0 1.2 1 2.3 2.3 2.3C98 5.9 99 4.9 99 3.7m-3.7 0c0-.8.7-1.5 1.5-1.5s1.5.7 1.5 1.5-.7 1.5-1.5 1.5c-.9 0-1.5-.7-1.5-1.5" class="st12"/><path d="M96.7 5.2c-.8 0-1.5-.7-1.5-1.5s.7-1.5 1.5-1.5 1.5.7 1.5 1.5-.6 1.5-1.5 1.5" class="st7"/><path d="M98.2 0c0 .8-.7 1.5-1.5 1.5S95.3.8 95.3 0z" class="st13"/><path d="M106.1 3.7V0h-4.5v3.7c0 1.2 1 2.3 2.3 2.2 1.2 0 2.2-1 2.2-2.2m-3.7 0c0-.8.7-1.5 1.5-1.5s1.5.7 1.5 1.5-.7 1.5-1.5 1.5-1.5-.7-1.5-1.5" class="st12"/><path d="M103.9 5.2c-.8 0-1.5-.7-1.5-1.5s.7-1.5 1.5-1.5 1.5.7 1.5 1.5c-.1.8-.7 1.5-1.5 1.5" class="st7"/><path d="M105.3 0c0 .8-.7 1.5-1.5 1.5s-1.5-.7-1.5-1.5z" class="st13"/><path d="M113.2 3.7V0h-4.5v3.7c0 1.2 1 2.3 2.3 2.3 1.2-.1 2.2-1.1 2.2-2.3m-3.7 0c0-.8.7-1.5 1.5-1.5s1.5.7 1.5 1.5-.7 1.5-1.5 1.5-1.5-.7-1.5-1.5" class="st12"/><path d="M111 5.2c-.8 0-1.5-.7-1.5-1.5s.7-1.5 1.5-1.5 1.5.7 1.5 1.5c-.1.8-.7 1.5-1.5 1.5" class="st7"/><path d="M112.4 0c0 .8-.7 1.5-1.5 1.5s-1.5-.7-1.5-1.5z" class="st13"/><path d="M48.6 35v2h-2v-2zM45.8 35v2h-2v-2zM48.6 32.3v2h-2v-2zc0-.1 0 0 0 0M45.8 32.3v2h-2v-2zc0-.1 0 0 0 0" class="st14"/><path d="M44.6 33h3.3v3.2h-3.3z" style="fill:#8b7866"/><path d="M44.8 33.3c0-.1.1-.2.1-.2h2.6c.1 0 .1.1.1.2V36c0 .1-.1.2-.1.2h-2.6c-.1 0-.1-.1-.1-.2z" style="fill:#8c9091"/><path d="M44.6 33h.2v3.2h-.2zM47.7 33h.2v3.2h-.2z" class="st17"/><path d="M45 34.6c0-.7.5-1.2 1.2-1.2s1.2.5 1.2 1.2-.5 1.2-1.2 1.2c-.7.1-1.2-.5-1.2-1.2" class="st13"/></svg>