<?xml version="1.0" encoding="utf-8"?>
<!-- Generator: Adobe Illustrator 24.0.2, SVG Export Plug-In . SVG Version: 6.00 Build 0)  -->
<svg version="1.1" id="Layer_1" xmlns="http://www.w3.org/2000/svg" xmlns:xlink="http://www.w3.org/1999/xlink" x="0px" y="0px"
	 viewBox="0 0 325.8 416" style="enable-background:new 0 0 325.8 416;" xml:space="preserve">
<style type="text/css">
	.st0{fill:#A3ACAD;}
	.st1{fill:#555A57;}
	.st2{fill:#464C48;}
	.st3{fill:#D6DADB;}
	.st4{fill:#7F8C8D;}
	.st5{fill:#2A312D;}
	.st6{fill:#373D3A;}
	.st7{fill:#797D7B;}
	.st8{fill:#666B68;}
	.st9{fill:#BCC3C4;}
	.st10{fill:#ECF1F1;}
	.st11{fill:none;stroke:#ECF1F1;stroke-width:0.8;stroke-miterlimit:3.864;}
	.st12{fill:none;stroke:#FFFFFF;stroke-width:0.9299;stroke-miterlimit:3.864;}
	.st13{fill:none;stroke:#FFFFFF;stroke-width:0.9299;stroke-linejoin:round;}
	.st14{fill:#FFFFFF;stroke:#FFFFFF;stroke-width:0.831;stroke-miterlimit:10;}
	.st15{fill:none;stroke:#FFFFFF;stroke-width:0.9299;stroke-linecap:round;stroke-miterlimit:3.864;}
	.st16{fill:none;stroke:#ECF1F1;stroke-width:0.5;stroke-miterlimit:3.8637;}
	.st17{fill:#FFFFFF;}
	.st18{fill-rule:evenodd;clip-rule:evenodd;fill:#ECF1F1;}
	.st19{fill:none;stroke:#ECF1F1;stroke-width:0.563;stroke-miterlimit:3.864;}
	.st20{fill:none;stroke:#FFFFFF;stroke-width:0.9297;stroke-miterlimit:3.864;}
</style>
<g>
	<g id="Illustration">
		<g>
			<path class="st0" d="M55,391.7v13.2c0,2.3,1.9,4.1,4.1,4.1h5.5l9.7,5.3c2,1.1,4.2,1.6,6.5,1.6h164.3c2.3,0,4.5-0.6,6.5-1.6
				l9.7-5.3h5.5c2.3,0,4.1-1.9,4.1-4.1v-13.2H55z M193.3,405.4c0,0.7-0.6,1.2-1.2,1.2c-2.7,0-5.4,0.5-8,1.4
				c-6.7,2.2-13.8,3.4-21.2,3.4s-14.5-1.2-21.2-3.4c-2.6-0.9-5.3-1.4-8-1.4c-0.7,0-1.2-0.6-1.2-1.2v-6.2c0-0.7,0.6-1.2,1.2-1.2h58.3
				c0.7,0,1.2,0.6,1.2,1.2V405.4z"/>
			<rect x="0" class="st1" width="325.8" height="393.5"/>
			<rect y="51.8" class="st2" width="325.8" height="289.9"/>
			<rect x="0" y="92" class="st1" width="325.8" height="209.5"/>
			<g>
				<path class="st3" d="M139.5,39.7H22.6C16.8,39.7,12,35,12,29.1v0c0-5.8,4.7-10.6,10.6-10.6h116.9c5.8,0,10.6,4.7,10.6,10.6v0
					C150.1,35,145.3,39.7,139.5,39.7z"/>
				<g>
					<path class="st0" d="M31.2,26.5c0.2,0.7,0.3,1.3,0.4,2c0.3,4.1-2.3,8-6.4,9.3c-4.1,1.2-8.4-0.6-10.5-4.2
						c-0.3-0.6-0.6-1.2-0.8-1.9s-0.3-1.3-0.4-2c-0.3-4.1,2.3-8,6.4-9.3c4.1-1.2,8.4,0.6,10.5,4.2C30.8,25.2,31,25.8,31.2,26.5z"/>
					<path class="st4" d="M31.2,26.5c0.2,0.7,0.3,1.3,0.4,2l-16.8,5.1c-0.3-0.6-0.6-1.2-0.8-1.9s-0.3-1.3-0.4-2l16.8-5.1
						C30.8,25.2,31,25.8,31.2,26.5z"/>
				</g>
				<g>
					<path class="st0" d="M130.9,26.4c0.2-0.7,0.5-1.3,0.8-1.8c2.1-3.5,6.4-5.3,10.5-4c4.1,1.3,6.6,5.3,6.2,9.4
						c-0.1,0.7-0.2,1.3-0.4,2s-0.5,1.3-0.8,1.8c-2.1,3.5-6.4,5.3-10.5,4c-4.1-1.3-6.6-5.3-6.2-9.4C130.6,27.7,130.7,27,130.9,26.4
						L130.9,26.4z"/>
					<path class="st4" d="M130.9,26.4c0.2-0.7,0.5-1.3,0.8-1.8l16.7,5.4c-0.1,0.7-0.2,1.3-0.4,2s-0.5,1.3-0.8,1.8l-16.7-5.4
						C130.6,27.7,130.7,27,130.9,26.4z"/>
				</g>
				<g>
					<path class="st0" d="M108.4,33.8c-0.4-0.6-0.6-1.2-0.9-1.8c-1.3-3.9,0.2-8.3,3.8-10.6c3.7-2.2,8.3-1.6,11.2,1.4
						c0.5,0.5,0.9,1,1.2,1.6s0.6,1.2,0.9,1.8c1.3,3.9-0.2,8.3-3.8,10.6c-3.7,2.2-8.3,1.6-11.2-1.4C109.2,35,108.8,34.4,108.4,33.8
						L108.4,33.8z"/>
					<path class="st4" d="M108.4,33.8c-0.4-0.6-0.6-1.2-0.9-1.8l15-9.2c0.5,0.5,0.9,1,1.2,1.6s0.6,1.2,0.9,1.8l-15,9.2
						C109.2,35,108.8,34.4,108.4,33.8L108.4,33.8z"/>
				</g>
				<g>
					<path class="st0" d="M97,37.1c-0.6,0.3-1.2,0.6-1.9,0.7c-4,1.1-8.3-0.7-10.3-4.5c-2-3.8-1.1-8.4,2.1-11.1
						c0.5-0.4,1.1-0.8,1.7-1.1s1.2-0.6,1.9-0.7c4-1.1,8.3,0.7,10.3,4.5c2,3.8,1,8.4-2.1,11.1C98.1,36.4,97.6,36.8,97,37.1z"/>
					<path class="st4" d="M97,37.1c-0.6,0.3-1.2,0.6-1.9,0.7l-8.2-15.5c0.5-0.4,1.1-0.8,1.7-1.1s1.2-0.6,1.9-0.7L98.6,36
						C98.1,36.4,97.6,36.8,97,37.1z"/>
				</g>
				<g>
					<path class="st0" d="M67.7,38c-0.7-0.1-1.3-0.3-1.9-0.6c-3.8-1.6-6.1-5.7-5.3-9.9c0.8-4.2,4.4-7.2,8.5-7.4c0.7,0,1.3,0,2,0.2
						s1.3,0.3,1.9,0.6c3.8,1.6,6.1,5.7,5.3,9.9c-0.8,4.2-4.4,7.2-8.5,7.4C69,38.2,68.4,38.1,67.7,38L67.7,38z"/>
					<path class="st4" d="M67.7,38c-0.7-0.1-1.3-0.3-1.9-0.6L69,20.1c0.7,0,1.3,0,2,0.2s1.3,0.3,1.9,0.6l-3.2,17.3
						C69,38.2,68.4,38.1,67.7,38L67.7,38z"/>
				</g>
				<g>
					<path class="st0" d="M38.2,24.6c0.3-0.6,0.8-1.1,1.2-1.6c2.8-3,7.4-3.8,11.1-1.6c3.7,2.2,5.3,6.6,4,10.5
						c-0.2,0.6-0.5,1.2-0.8,1.8s-0.8,1.1-1.2,1.6c-2.8,3-7.4,3.8-11.1,1.6c-3.7-2.2-5.3-6.6-4-10.5C37.6,25.8,37.8,25.2,38.2,24.6z"
						/>
					<path class="st4" d="M38.2,24.6c0.3-0.6,0.8-1.1,1.2-1.6l15.2,8.9c-0.2,0.6-0.5,1.2-0.8,1.8s-0.8,1.1-1.2,1.6l-15.2-8.9
						C37.6,25.8,37.8,25.2,38.2,24.6z"/>
				</g>
			</g>
			<g>
				<path class="st3" d="M186.3,18.5h116.9c5.8,0,10.6,4.7,10.6,10.6v0c0,5.8-4.7,10.6-10.6,10.6H186.3c-5.8,0-10.6-4.7-10.6-10.6v0
					C175.7,23.3,180.5,18.5,186.3,18.5z"/>
				<g>
					<path class="st0" d="M304.1,20.2c0.7,0.1,1.4,0.2,2,0.4c3.9,1.3,6.5,5.2,6.1,9.4c-0.4,4.3-3.7,7.6-7.8,8.1
						c-0.7,0.1-1.3,0.1-2,0s-1.3-0.2-2-0.4c-3.9-1.3-6.5-5.2-6.1-9.4c0.4-4.3,3.8-7.6,7.8-8.1C302.7,20.1,303.4,20.1,304.1,20.2
						L304.1,20.2z"/>
					<path class="st4" d="M304.1,20.2c0.7,0.1,1.4,0.2,2,0.4l-1.7,17.5c-0.7,0.1-1.3,0.1-2,0s-1.3-0.2-2-0.4l1.7-17.5
						C302.7,20.1,303.4,20.1,304.1,20.2L304.1,20.2z"/>
				</g>
				<g>
					<path class="st0" d="M192.6,22.7c0.5,0.5,0.9,1,1.3,1.6c2.2,3.5,1.8,8.1-1.2,11.2c-3,3.1-7.7,3.5-11.2,1.3
						c-0.6-0.4-1.1-0.8-1.6-1.3s-0.9-1-1.3-1.6c-2.2-3.5-1.8-8.1,1.2-11.2c3-3.1,7.7-3.5,11.2-1.3C191.6,21.8,192.2,22.2,192.6,22.7
						L192.6,22.7z"/>
					<path class="st4" d="M192.6,22.7c0.5,0.5,0.9,1,1.3,1.6l-12.4,12.5c-0.6-0.4-1.1-0.8-1.6-1.3s-0.9-1-1.3-1.6l12.4-12.5
						C191.6,21.8,192.2,22.2,192.6,22.7L192.6,22.7z"/>
				</g>
				<g>
					<path class="st0" d="M216.1,35.4c-0.5,0.5-1,0.9-1.6,1.3c-3.5,2.2-8.1,1.8-11.2-1.2c-3.1-3-3.5-7.7-1.4-11.2
						c0.3-0.6,0.8-1.1,1.2-1.6s1-0.9,1.6-1.3c3.5-2.2,8.1-1.9,11.2,1.1c3.1,3,3.5,7.7,1.4,11.2C217,34.4,216.6,34.9,216.1,35.4
						L216.1,35.4z"/>
					<path class="st4" d="M216.1,35.4c-0.5,0.5-1,0.9-1.6,1.3L202,24.4c0.3-0.6,0.8-1.1,1.2-1.6s1-0.9,1.6-1.3l12.6,12.3
						C217,34.4,216.6,34.9,216.1,35.4L216.1,35.4z"/>
				</g>
				<g>
					<path class="st0" d="M225.1,33.5c-0.3-0.6-0.6-1.2-0.8-1.9c-1.1-4,0.6-8.3,4.3-10.4c3.8-2.1,8.4-1.2,11.1,1.9
						c0.4,0.5,0.8,1.1,1.2,1.7s0.6,1.2,0.8,1.9c1.1,4-0.6,8.3-4.3,10.4c-3.8,2.1-8.4,1.2-11.1-1.9C225.9,34.6,225.5,34.1,225.1,33.5
						L225.1,33.5z"/>
					<path class="st4" d="M225.1,33.5c-0.3-0.6-0.6-1.2-0.8-1.9l15.4-8.5c0.4,0.5,0.8,1.1,1.2,1.7s0.6,1.2,0.8,1.9l-15.4,8.5
						C225.9,34.6,225.5,34.1,225.1,33.5L225.1,33.5z"/>
				</g>
				<g>
					<path class="st0" d="M262.1,22.1c0.5,0.4,1,0.9,1.4,1.4c2.6,3.2,2.6,7.9-0.1,11.3c-2.7,3.3-7.3,4.3-11,2.5
						c-0.6-0.3-1.2-0.7-1.7-1.1s-1-0.9-1.4-1.4c-2.6-3.2-2.6-7.9,0.1-11.3c2.7-3.3,7.3-4.3,11-2.4C261,21.3,261.6,21.7,262.1,22.1z"
						/>
					<path class="st4" d="M262.1,22.1c0.5,0.4,1,0.9,1.4,1.4l-11,13.7c-0.6-0.3-1.2-0.7-1.7-1.1s-1-0.9-1.4-1.4l11-13.7
						C261,21.3,261.6,21.7,262.1,22.1L262.1,22.1z"/>
				</g>
				<g>
					<path class="st0" d="M288.8,29.6c0,0.7-0.1,1.4-0.3,2c-1.1,4-4.9,6.8-9.1,6.6c-4.3-0.2-7.7-3.4-8.4-7.4c-0.1-0.6-0.2-1.3-0.1-2
						s0.1-1.4,0.3-2c1.1-4,4.8-6.8,9.1-6.6c4.3,0.2,7.7,3.4,8.4,7.4C288.8,28.2,288.9,28.9,288.8,29.6L288.8,29.6z"/>
					<path class="st4" d="M288.8,29.6c0,0.7-0.1,1.4-0.3,2l-17.6-0.9c-0.1-0.6-0.2-1.3-0.1-2s0.1-1.4,0.3-2l17.6,0.9
						C288.8,28.2,288.9,28.9,288.8,29.6L288.8,29.6z"/>
				</g>
			</g>
			<g>
				<path class="st5" d="M186.3,68.1h46.8c5.8,0,10.6,4.7,10.6,10.6v0c0,5.8-4.7,10.6-10.6,10.6h-46.8c-5.8,0-10.6-4.7-10.6-10.6v0
					C175.7,72.9,180.5,68.1,186.3,68.1z"/>
				<g>
					<path class="st0" d="M194.9,81.5c-0.2,0.7-0.5,1.3-0.8,1.8c-2.1,3.5-6.4,5.3-10.5,4c-4.1-1.3-6.6-5.3-6.2-9.4
						c0.1-0.7,0.2-1.3,0.4-2s0.5-1.3,0.8-1.8c2.1-3.5,6.4-5.3,10.5-4c4.1,1.3,6.6,5.3,6.2,9.4C195.2,80.2,195.1,80.8,194.9,81.5
						L194.9,81.5z"/>
					<path class="st4" d="M194.9,81.5c-0.2,0.7-0.5,1.3-0.8,1.8l-16.7-5.4c0.1-0.7,0.2-1.3,0.4-2s0.5-1.3,0.8-1.8l16.7,5.4
						C195.2,80.2,195.1,80.8,194.9,81.5z"/>
				</g>
				<g>
					<path class="st0" d="M217.4,74c0.4,0.6,0.6,1.2,0.9,1.8c1.3,3.9-0.2,8.3-3.8,10.6c-3.7,2.2-8.3,1.6-11.2-1.4
						c-0.5-0.5-0.9-1-1.2-1.6s-0.6-1.2-0.9-1.8c-1.3-3.9,0.2-8.3,3.8-10.6c3.7-2.2,8.3-1.6,11.2,1.4C216.6,72.9,217,73.4,217.4,74
						L217.4,74z"/>
					<path class="st4" d="M217.4,74c0.4,0.6,0.6,1.2,0.9,1.8l-15,9.2c-0.5-0.5-0.9-1-1.2-1.6s-0.6-1.2-0.9-1.8l15-9.2
						C216.6,72.9,217,73.4,217.4,74z"/>
				</g>
				<g>
					<path class="st0" d="M228.8,70.7c0.6-0.3,1.2-0.6,1.9-0.7c4-1.1,8.3,0.7,10.3,4.5c2,3.8,1.1,8.4-2.1,11.1
						c-0.5,0.4-1.1,0.8-1.7,1.1s-1.2,0.6-1.9,0.7c-4,1.1-8.3-0.7-10.3-4.5c-2-3.8-1-8.4,2.1-11.1C227.7,71.4,228.2,71.1,228.8,70.7
						L228.8,70.7z"/>
					<path class="st4" d="M228.8,70.7c0.6-0.3,1.2-0.6,1.9-0.7l8.2,15.5c-0.5,0.4-1.1,0.8-1.7,1.1s-1.2,0.6-1.9,0.7l-8.2-15.5
						C227.7,71.4,228.2,71.1,228.8,70.7z"/>
				</g>
			</g>
			<rect x="160.7" class="st5" width="4.5" height="51.8"/>
			<g>
				<path class="st3" d="M186.3,353.8h23.4c5.8,0,10.6,4.7,10.6,10.6v0c0,5.8-4.7,10.6-10.6,10.6h-23.4c-5.8,0-10.6-4.7-10.6-10.6v0
					C175.7,358.5,180.5,353.8,186.3,353.8z"/>
				<g>
					<path class="st0" d="M194.7,361c0.3,0.6,0.4,1.3,0.6,1.9c0.7,4.1-1.5,8.2-5.5,9.8c-4,1.6-8.4,0.2-10.8-3.2
						c-0.4-0.5-0.7-1.1-1-1.8s-0.4-1.3-0.5-1.9c-0.7-4.1,1.5-8.2,5.5-9.8c4-1.6,8.4-0.2,10.8,3.2C194.1,359.7,194.4,360.3,194.7,361
						L194.7,361z"/>
					<path class="st4" d="M194.7,361c0.3,0.6,0.4,1.3,0.6,1.9l-16.3,6.6c-0.4-0.5-0.7-1.1-1-1.8s-0.4-1.3-0.5-1.9l16.3-6.6
						C194.1,359.7,194.4,360.3,194.7,361L194.7,361z"/>
				</g>
				<g>
					<path class="st0" d="M210.1,373.4c-0.7,0-1.4,0-2-0.1c-4.1-0.7-7.2-4.1-7.5-8.4c-0.2-4.3,2.6-8,6.5-9.2c0.6-0.2,1.3-0.3,2-0.3
						s1.4,0,2,0.1c4.1,0.7,7.2,4.1,7.5,8.4c0.2,4.3-2.6,8-6.6,9.2C211.5,373.2,210.8,373.3,210.1,373.4L210.1,373.4z"/>
					<path class="st4" d="M210.1,373.4c-0.7,0-1.4,0-2-0.1l-0.9-17.6c0.6-0.2,1.3-0.3,2-0.3s1.4,0,2,0.1l0.9,17.6
						C211.5,373.2,210.8,373.3,210.1,373.4L210.1,373.4z"/>
				</g>
			</g>
			<g>
				<path class="st3" d="M209.7,304.2L209.7,304.2c5.8,0,10.6,4.7,10.6,10.6v0c0,5.8-4.7,10.6-10.6,10.6h0
					c-5.8,0-10.6-4.7-10.6-10.6v0C199.1,308.9,203.9,304.2,209.7,304.2z"/>
				<g>
					<path class="st0" d="M204.5,322.1c-0.6-0.4-1.1-0.9-1.5-1.3c-2.8-3.1-3.1-7.7-0.7-11.2c2.5-3.5,7-4.7,10.8-3.2
						c0.6,0.3,1.2,0.6,1.8,1s1.1,0.8,1.5,1.3c2.8,3.1,3.1,7.7,0.7,11.2c-2.5,3.5-7,4.7-10.8,3.1
						C205.7,322.9,205.1,322.5,204.5,322.1L204.5,322.1z"/>
					<path class="st4" d="M204.5,322.1c-0.6-0.4-1.1-0.9-1.5-1.3l10.1-14.4c0.6,0.3,1.2,0.6,1.8,1s1.1,0.8,1.5,1.3l-10.1,14.4
						C205.7,322.9,205.1,322.5,204.5,322.1z"/>
				</g>
			</g>
			<g>
				<path class="st3" d="M279.8,353.8h23.4c5.8,0,10.6,4.7,10.6,10.6v0c0,5.8-4.7,10.6-10.6,10.6h-23.4c-5.8,0-10.6-4.7-10.6-10.6v0
					C269.2,358.5,274,353.8,279.8,353.8z"/>
				<g>
					<path class="st0" d="M288.8,365c0,0.7-0.2,1.4-0.4,2c-1.2,3.9-5,6.7-9.3,6.4c-4.3-0.3-7.7-3.5-8.3-7.6c-0.1-0.6-0.1-1.3-0.1-2
						s0.2-1.4,0.4-2c1.2-3.9,5-6.7,9.3-6.4c4.3,0.3,7.7,3.6,8.3,7.6C288.8,363.6,288.8,364.3,288.8,365L288.8,365z"/>
					<path class="st4" d="M288.8,365c0,0.7-0.2,1.4-0.4,2l-17.6-1.3c-0.1-0.6-0.1-1.3-0.1-2s0.2-1.4,0.4-2l17.6,1.3
						C288.8,363.6,288.8,364.3,288.8,365L288.8,365z"/>
				</g>
				<g>
					<path class="st0" d="M312,366.1c-0.1,0.7-0.3,1.3-0.6,1.9c-1.7,3.8-5.7,6-10,5.2c-4.2-0.8-7.2-4.4-7.3-8.5c0-0.7,0-1.3,0.2-2
						s0.3-1.3,0.6-1.9c1.6-3.8,5.7-6,10-5.2c4.2,0.8,7.2,4.4,7.3,8.5C312.2,364.7,312.2,365.4,312,366.1L312,366.1z"/>
					<path class="st4" d="M312,366.1c-0.1,0.7-0.3,1.3-0.6,1.9l-17.3-3.3c0-0.7,0-1.3,0.2-2s0.3-1.3,0.6-1.9l17.3,3.3
						C312.2,364.7,312.2,365.4,312,366.1L312,366.1z"/>
				</g>
			</g>
			<g>
				<path class="st3" d="M22.6,353.8H46c5.8,0,10.6,4.7,10.6,10.6v0c0,5.8-4.7,10.6-10.6,10.6H22.6c-5.8,0-10.6-4.7-10.6-10.6v0
					C12,358.5,16.8,353.8,22.6,353.8z"/>
				<g>
					<path class="st0" d="M30.7,368.4c-0.3,0.6-0.7,1.2-1.1,1.7c-2.6,3.2-7.2,4.2-11,2.3c-3.8-1.9-5.7-6.2-4.7-10.2
						c0.2-0.6,0.4-1.3,0.7-1.9s0.7-1.2,1.1-1.7c2.6-3.2,7.2-4.2,11-2.3c3.8,1.9,5.7,6.2,4.7,10.2C31.2,367.2,31,367.8,30.7,368.4
						L30.7,368.4z"/>
					<path class="st4" d="M30.7,368.4c-0.3,0.6-0.7,1.2-1.1,1.7l-15.7-7.9c0.2-0.6,0.4-1.3,0.7-1.9s0.7-1.2,1.1-1.7l15.7,7.9
						C31.2,367.2,31,367.8,30.7,368.4z"/>
				</g>
				<g>
					<path class="st0" d="M53.5,369.3c-0.4,0.6-0.8,1.1-1.3,1.6c-3,2.8-7.6,3.4-11.2,1c-3.6-2.4-4.9-6.9-3.5-10.7
						c0.2-0.6,0.5-1.2,0.9-1.8s0.8-1.1,1.3-1.5c3-2.8,7.6-3.4,11.2-1c3.6,2.4,4.9,6.9,3.5,10.7C54.2,368.2,53.9,368.8,53.5,369.3
						L53.5,369.3z"/>
					<path class="st4" d="M53.5,369.3c-0.4,0.6-0.8,1.1-1.3,1.6l-14.7-9.7c0.2-0.6,0.5-1.2,0.9-1.8s0.8-1.1,1.3-1.5l14.7,9.7
						C54.2,368.2,53.9,368.8,53.5,369.3z"/>
				</g>
			</g>
			<g>
				<path class="st3" d="M116.1,353.8h23.4c5.8,0,10.6,4.7,10.6,10.6v0c0,5.8-4.7,10.6-10.6,10.6h-23.4c-5.8,0-10.6-4.7-10.6-10.6v0
					C105.5,358.5,110.3,353.8,116.1,353.8z"/>
				<g>
					<path class="st0" d="M124.6,361.5c0.2,0.7,0.4,1.3,0.4,2c0.4,4.1-2,8.1-6.1,9.4c-4.1,1.4-8.4-0.3-10.6-3.8
						c-0.3-0.6-0.6-1.2-0.8-1.8s-0.4-1.3-0.4-2c-0.4-4.1,2-8.1,6.1-9.5c4.1-1.4,8.4,0.3,10.6,3.8
						C124.1,360.2,124.4,360.8,124.6,361.5L124.6,361.5z"/>
					<path class="st4" d="M124.6,361.5c0.2,0.7,0.4,1.3,0.4,2l-16.7,5.6c-0.3-0.6-0.6-1.2-0.8-1.8s-0.4-1.3-0.4-2l16.7-5.6
						C124.1,360.2,124.4,360.8,124.6,361.5L124.6,361.5z"/>
				</g>
				<g>
					<path class="st0" d="M136,372.7c-0.6-0.3-1.2-0.6-1.8-1c-3.4-2.4-4.7-6.8-3.1-10.8c1.6-4,5.8-6.1,9.8-5.4
						c0.6,0.1,1.3,0.3,1.9,0.6s1.2,0.6,1.8,1c3.4,2.4,4.8,6.8,3.1,10.8c-1.6,4-5.8,6.1-9.9,5.4C137.3,373.1,136.7,373,136,372.7
						L136,372.7z"/>
					<path class="st4" d="M136,372.7c-0.6-0.3-1.2-0.6-1.8-1l6.7-16.3c0.6,0.1,1.3,0.3,1.9,0.6s1.2,0.6,1.8,1l-6.7,16.3
						C137.3,373.1,136.7,373,136,372.7z"/>
				</g>
			</g>
			<rect x="160.7" y="341.7" class="st5" width="4.5" height="51.8"/>
			<rect x="301" y="63.4" class="st5" width="7" height="23.4"/>
			<rect x="301" y="306.6" class="st5" width="7" height="23.4"/>
			<g>
				<g>
					<rect x="23.7" y="107.9" class="st1" width="25.4" height="51.2"/>
					<polygon class="st6" points="53.8,103.2 49.1,107.9 23.7,107.9 19,103.2 					"/>
					<polygon class="st7" points="53.8,163.8 19,163.8 23.7,159.1 49.1,159.1 					"/>
					<polygon class="st8" points="53.8,103.2 53.8,163.8 49.1,159.1 49.1,107.9 					"/>
					<polygon class="st2" points="23.7,107.9 23.7,159.1 19,163.8 19,103.2 					"/>
				</g>
				<rect x="31.8" y="115.7" class="st9" width="9.3" height="9.3"/>
				<circle class="st5" cx="36.4" cy="144.3" r="5"/>
			</g>
			<g>
				<g>
					<rect x="208.8" y="260.9" class="st1" width="46.5" height="25.4"/>
					<polygon class="st8" points="260,291 255.3,286.3 255.3,260.9 260,256.2 					"/>
					<polygon class="st2" points="204.1,291 204.1,256.2 208.8,260.9 208.8,286.3 					"/>
					<polygon class="st7" points="260,291 204.1,291 208.8,286.3 255.3,286.3 					"/>
					<polygon class="st6" points="255.3,260.9 208.8,260.9 204.1,256.2 260,256.2 					"/>
				</g>
				<rect x="216.6" y="269" class="st9" width="9.3" height="9.3"/>
				<rect x="238.2" y="269" class="st9" width="9.3" height="9.3"/>
			</g>
			<g>
				<g>
					<rect x="23.8" y="260.9" class="st1" width="88.4" height="25.4"/>
					<polygon class="st2" points="19.1,256.2 23.8,260.9 23.8,286.3 19.1,291 					"/>
					<polygon class="st8" points="116.9,256.2 116.9,291 112.2,286.3 112.2,260.9 					"/>
					<polygon class="st6" points="19.1,256.2 116.9,256.2 112.2,260.9 23.8,260.9 					"/>
					<polygon class="st7" points="23.8,286.3 112.2,286.3 116.9,291 19.1,291 					"/>
				</g>
				<rect x="31.6" y="269" class="st9" width="9.3" height="9.3"/>
				<rect x="95.1" y="269" class="st9" width="9.3" height="9.3"/>
				<rect x="73.9" y="269" class="st9" width="9.3" height="9.3"/>
				<rect x="52.8" y="269" class="st9" width="9.3" height="9.3"/>
			</g>
			<g>
				<g>
					<rect x="86.8" y="107.9" class="st1" width="25.4" height="51.2"/>
					<polygon class="st6" points="116.9,103.2 112.2,107.9 86.8,107.9 82.2,103.2 					"/>
					<polygon class="st7" points="116.9,163.8 82.2,163.8 86.8,159.1 112.2,159.1 					"/>
					<polygon class="st8" points="116.9,103.2 116.9,163.8 112.2,159.1 112.2,107.9 					"/>
					<polygon class="st2" points="86.8,107.9 86.8,159.1 82.2,163.8 82.2,103.2 					"/>
				</g>
				<rect x="94.9" y="115.7" class="st9" width="9.3" height="9.3"/>
				<circle class="st5" cx="99.5" cy="144.3" r="8.9"/>
			</g>
			<rect x="258.4" y="100.7" class="st9" width="9.3" height="9.3"/>
			<rect x="302.1" y="100.7" class="st9" width="9.3" height="9.3"/>
			<rect x="287.5" y="100.7" class="st9" width="9.3" height="9.3"/>
			<rect x="273" y="100.7" class="st9" width="9.3" height="9.3"/>
		</g>
	</g>
	<g id="Engraving">
		<g>
			<g>
				<path class="st10" d="M113.6,14.2h-3.8v-0.7l1.3-0.3V4.4l-1.3-0.3V3.4h3.8v0.7l-1.3,0.3v8.8l1.3,0.3
					C113.6,13.5,113.6,14.2,113.6,14.2z"/>
				<path class="st10" d="M119.5,14.2h-1.2V6.5c0-0.6,0-1.2,0.1-1.8c-0.1,0.1-0.2,0.2-0.3,0.3c-0.1,0.1-0.7,0.6-1.8,1.4l-0.7-0.8
					l2.9-2.2h1V14.2L119.5,14.2z"/>
			</g>
			<path class="st10" d="M46.3,8.4h4.9v0.9h-4.9v4.9h-0.9V9.3h-4.9V8.4h4.9V3.5h0.9V8.4z"/>
			<path class="st10" d="M22.9,8.4h4.9v0.9h-4.9v4.9H22V9.3h-4.9V8.4H22V3.5h0.9V8.4z"/>
			<path class="st10" d="M66.7,9.4V8.5H72v0.9H66.7z"/>
			<path class="st10" d="M90,9.4V8.5h5.4v0.9H90z"/>
			<g>
				<path class="st10" d="M137,14.2h-3.8v-0.7l1.3-0.3V4.4l-1.3-0.3V3.4h3.8v0.7l-1.3,0.3v8.8l1.3,0.3C137,13.5,137,14.2,137,14.2z"
					/>
				<path class="st10" d="M145.4,14.2h-7.1v-1.1l2.8-2.9c0.9-0.9,1.4-1.5,1.7-1.9c0.3-0.4,0.5-0.7,0.6-1.1c0.1-0.4,0.2-0.7,0.2-1.1
					c0-0.6-0.2-1-0.5-1.4c-0.4-0.3-0.8-0.5-1.5-0.5c-0.4,0-0.9,0.1-1.3,0.2c-0.4,0.1-0.8,0.4-1.3,0.8l-0.7-0.8
					c1-0.8,2.1-1.2,3.3-1.2c1,0,1.8,0.3,2.4,0.8s0.9,1.2,0.9,2.1c0,0.7-0.2,1.4-0.6,2c-0.4,0.7-1.1,1.5-2.2,2.5l-2.4,2.3v0.1h5.6
					V14.2L145.4,14.2z"/>
			</g>
			<g>
				<path class="st10" d="M183.9,14.2h-3.8v-0.7l1.3-0.3V4.4l-1.3-0.3V3.4h3.8v0.7l-1.3,0.3v8.8l1.3,0.3
					C183.9,13.5,183.9,14.2,183.9,14.2z"/>
				<path class="st10" d="M191.9,6c0,0.7-0.2,1.3-0.6,1.7c-0.4,0.4-0.9,0.7-1.6,0.9v0.1c0.9,0.1,1.5,0.4,1.9,0.8
					c0.4,0.4,0.6,1,0.6,1.7c0,1-0.4,1.8-1.1,2.4c-0.7,0.6-1.7,0.8-3,0.8c-0.6,0-1.1,0-1.6-0.1c-0.5-0.1-0.9-0.2-1.4-0.5v-1.2
					c0.5,0.2,1,0.4,1.5,0.5c0.5,0.1,1,0.2,1.5,0.2c1.9,0,2.8-0.7,2.8-2.2c0-1.3-1-2-3.1-2h-1.1V8.1h1.1c0.8,0,1.5-0.2,2-0.6
					c0.5-0.4,0.7-0.9,0.7-1.5c0-0.5-0.2-0.9-0.5-1.2c-0.4-0.3-0.9-0.5-1.5-0.5c-0.5,0-0.9,0.1-1.3,0.2c-0.4,0.1-0.9,0.4-1.4,0.7
					l-0.6-0.8c0.4-0.4,1-0.6,1.5-0.8c0.6-0.2,1.2-0.3,1.8-0.3c1.1,0,1.9,0.2,2.4,0.7C191.6,4.5,191.9,5.1,191.9,6L191.9,6z"/>
			</g>
			<g>
				<path class="st10" d="M11.1,66.6H9.9v-7.7c0-0.6,0-1.2,0.1-1.8c-0.1,0.1-0.2,0.2-0.3,0.3c-0.1,0.1-0.7,0.6-1.8,1.4L7.2,58
					l2.9-2.2h1C11.1,55.8,11.1,66.6,11.1,66.6z"/>
				<path class="st10" d="M22.3,66.6h-7.1v-1.1l2.8-2.9c0.9-0.9,1.4-1.5,1.7-1.9c0.3-0.4,0.5-0.7,0.6-1.1c0.1-0.4,0.2-0.7,0.2-1.1
					c0-0.6-0.2-1-0.5-1.4c-0.4-0.3-0.8-0.5-1.5-0.5c-0.4,0-0.9,0.1-1.3,0.2c-0.4,0.1-0.8,0.4-1.3,0.8l-0.7-0.8
					c1-0.8,2.1-1.2,3.3-1.2c1,0,1.8,0.3,2.4,0.8s0.9,1.2,0.9,2.1c0,0.7-0.2,1.4-0.6,2c-0.4,0.7-1.1,1.5-2.2,2.5l-2.4,2.3v0.1h5.6
					L22.3,66.6L22.3,66.6z"/>
				<path class="st10" d="M24.2,65.8c0-0.3,0.1-0.6,0.2-0.8c0.2-0.2,0.4-0.3,0.6-0.3c0.3,0,0.5,0.1,0.7,0.3c0.2,0.2,0.2,0.4,0.2,0.8
					c0,0.3-0.1,0.6-0.2,0.7s-0.4,0.3-0.7,0.3c-0.3,0-0.5-0.1-0.6-0.2S24.2,66.2,24.2,65.8z M28.2,65.8c0-0.3,0.1-0.6,0.2-0.8
					c0.2-0.2,0.4-0.3,0.6-0.3c0.3,0,0.5,0.1,0.7,0.3c0.2,0.2,0.2,0.4,0.2,0.8c0,0.3-0.1,0.6-0.2,0.7c-0.2,0.2-0.4,0.3-0.7,0.3
					c-0.3,0-0.5-0.1-0.6-0.2C28.2,66.4,28.2,66.2,28.2,65.8z M32.1,65.8c0-0.3,0.1-0.6,0.2-0.8c0.2-0.2,0.4-0.3,0.6-0.3
					c0.3,0,0.5,0.1,0.7,0.3c0.2,0.2,0.2,0.4,0.2,0.8c0,0.3-0.1,0.6-0.2,0.7s-0.4,0.3-0.7,0.3c-0.3,0-0.5-0.1-0.6-0.2
					S32.1,66.2,32.1,65.8z"/>
				<path class="st10" d="M42.8,66.6h-7.1v-1.1l2.8-2.9c0.9-0.9,1.4-1.5,1.7-1.9c0.3-0.4,0.5-0.7,0.6-1.1c0.1-0.4,0.2-0.7,0.2-1.1
					c0-0.6-0.2-1-0.5-1.4c-0.4-0.3-0.8-0.5-1.5-0.5c-0.4,0-0.9,0.1-1.3,0.2c-0.4,0.1-0.8,0.4-1.3,0.8l-0.7-0.8
					c1-0.8,2.1-1.2,3.3-1.2c1,0,1.8,0.3,2.4,0.8s0.9,1.2,0.9,2.1c0,0.7-0.2,1.4-0.6,2c-0.4,0.7-1.1,1.5-2.2,2.5l-2.4,2.3v0.1h5.6
					L42.8,66.6L42.8,66.6z"/>
				<path class="st10" d="M52,64.1h-1.6v2.5h-1.2v-2.5H44V63l5.1-7.3h1.3V63H52C52,63,52,64.1,52,64.1z M49.2,63v-3.6
					c0-0.7,0-1.5,0.1-2.4h-0.1c-0.2,0.5-0.5,0.9-0.7,1.2L45.2,63C45.2,63,49.2,63,49.2,63z"/>
				<path class="st10" d="M63.9,55.8h1.4l-3.9,10.8h-1.2l-3.9-10.8h1.3l2.5,7c0.3,0.8,0.5,1.6,0.7,2.3c0.2-0.8,0.4-1.6,0.7-2.4
					C61.4,62.7,63.9,55.8,63.9,55.8z"/>
				<path class="st10" d="M79.3,61.1c0,1.8-0.5,3.1-1.5,4.1c-1,0.9-2.4,1.4-4.2,1.4h-3V55.8H74c1.7,0,3,0.5,3.9,1.4
					C78.8,58.1,79.3,59.4,79.3,61.1z M78,61.1c0-1.4-0.4-2.5-1.1-3.2s-1.8-1.1-3.2-1.1h-1.8v8.6h1.5c1.5,0,2.6-0.4,3.4-1.1
					C77.6,63.7,78,62.6,78,61.1z"/>
				<path class="st10" d="M86.3,56.8c-1.2,0-2.1,0.4-2.8,1.2c-0.7,0.8-1,1.9-1,3.2c0,1.4,0.3,2.5,1,3.3s1.6,1.2,2.8,1.2
					c0.8,0,1.6-0.1,2.6-0.4v1.1c-0.7,0.3-1.7,0.4-2.8,0.4c-1.6,0-2.8-0.5-3.7-1.4s-1.3-2.3-1.3-4.1c0-1.1,0.2-2.1,0.6-2.9
					c0.4-0.8,1-1.5,1.8-1.9c0.8-0.5,1.7-0.7,2.8-0.7c1.1,0,2.1,0.2,3,0.6l-0.5,1.1C88,56.9,87.2,56.8,86.3,56.8z"/>
			</g>
			<g>
				<path class="st10" d="M6.9,84.5v-8h1.3v8H6.9z"/>
				<path class="st10" d="M17.6,84.5H16L12,78h0l0,0.4c0.1,0.7,0.1,1.3,0.1,1.9v4.2h-1.2v-8h1.6l3.9,6.4h0c0-0.1,0-0.4,0-0.9
					c0-0.5,0-0.9,0-1.2v-4.2h1.2L17.6,84.5L17.6,84.5z"/>
				<path class="st10" d="M25.6,78.8c0,0.8-0.3,1.5-0.8,1.9c-0.6,0.4-1.3,0.7-2.3,0.7h-0.8v3h-1.3v-8h2.3c1,0,1.8,0.2,2.3,0.6
					C25.3,77.4,25.6,78,25.6,78.8L25.6,78.8z M21.6,80.3h0.7c0.7,0,1.2-0.1,1.5-0.4c0.3-0.2,0.5-0.6,0.5-1.1c0-0.5-0.1-0.8-0.4-1
					c-0.3-0.2-0.7-0.3-1.3-0.3h-0.9L21.6,80.3L21.6,80.3z"/>
				<path class="st10" d="M34.1,76.4v5.2c0,0.6-0.1,1.1-0.4,1.6s-0.6,0.8-1.1,1s-1.1,0.4-1.7,0.4c-1,0-1.8-0.3-2.3-0.8
					c-0.6-0.5-0.8-1.3-0.8-2.2v-5.2H29v5.1c0,0.7,0.2,1.2,0.5,1.5s0.8,0.5,1.4,0.5c1.2,0,1.9-0.7,1.9-2v-5.1L34.1,76.4L34.1,76.4z"
					/>
				<path class="st10" d="M39.5,84.5h-1.3v-6.9h-2.4v-1.1h6v1.1h-2.4V84.5z"/>
				<path class="st10" d="M49.7,84.5h-3.2v-0.8l1-0.3v-5.9l-1-0.3v-0.8h3.2v0.8l-1,0.3v5.9l1,0.3C49.7,83.7,49.7,84.5,49.7,84.5z"/>
				<path class="st10" d="M55,84.5h-1.3v-5.2c0-0.6,0-1.1,0-1.5c-0.1,0.1-0.2,0.2-0.3,0.3c-0.1,0.1-0.5,0.4-1.2,1l-0.6-0.8l2.4-1.9
					H55L55,84.5L55,84.5z"/>
				<path class="st10" d="M58.4,83.8c0-0.3,0.1-0.5,0.2-0.6c0.1-0.1,0.3-0.2,0.6-0.2c0.3,0,0.5,0.1,0.6,0.2c0.1,0.1,0.2,0.4,0.2,0.6
					c0,0.3-0.1,0.5-0.2,0.6c-0.1,0.2-0.3,0.2-0.6,0.2s-0.5-0.1-0.6-0.2C58.5,84.2,58.4,84,58.4,83.8z M61.5,83.8
					c0-0.3,0.1-0.5,0.2-0.6c0.1-0.1,0.3-0.2,0.6-0.2c0.3,0,0.5,0.1,0.6,0.2c0.1,0.1,0.2,0.4,0.2,0.6c0,0.3-0.1,0.5-0.2,0.6
					c-0.1,0.2-0.3,0.2-0.6,0.2s-0.5-0.1-0.6-0.2C61.5,84.2,61.5,84,61.5,83.8z M64.5,83.8c0-0.3,0.1-0.5,0.2-0.6
					c0.1-0.1,0.3-0.2,0.6-0.2c0.3,0,0.5,0.1,0.6,0.2c0.1,0.1,0.2,0.4,0.2,0.6c0,0.3-0.1,0.5-0.2,0.6c-0.1,0.2-0.3,0.2-0.6,0.2
					s-0.5-0.1-0.6-0.2C64.6,84.2,64.5,84,64.5,83.8z"/>
				<path class="st10" d="M71.1,84.5h-3.2v-0.8l1-0.3v-5.9l-1-0.3v-0.8h3.2v0.8l-1,0.3v5.9l1,0.3C71.1,83.7,71.1,84.5,71.1,84.5z"/>
				<path class="st10" d="M75.3,76.3c0.8,0,1.4,0.2,1.8,0.5s0.7,0.8,0.7,1.4c0,0.8-0.5,1.5-1.5,2c0.6,0.3,1.1,0.6,1.3,1
					c0.3,0.3,0.4,0.7,0.4,1.2c0,0.7-0.2,1.2-0.7,1.6s-1.1,0.6-2,0.6c-0.9,0-1.5-0.2-2-0.6s-0.7-0.9-0.7-1.6c0-0.4,0.1-0.9,0.4-1.2
					c0.3-0.4,0.7-0.7,1.2-1c-0.5-0.3-0.8-0.6-1.1-0.9s-0.3-0.7-0.3-1.1c0-0.6,0.2-1,0.7-1.4S74.6,76.3,75.3,76.3z M73.8,82.4
					c0,0.4,0.1,0.7,0.4,0.9c0.3,0.2,0.6,0.3,1.1,0.3c0.5,0,0.8-0.1,1.1-0.3s0.4-0.5,0.4-0.9c0-0.3-0.1-0.6-0.4-0.8
					c-0.2-0.2-0.6-0.5-1.1-0.7l-0.2-0.1c-0.5,0.2-0.8,0.4-1,0.7C73.9,81.7,73.8,82,73.8,82.4z M75.3,77.3c-0.4,0-0.7,0.1-0.9,0.3
					s-0.3,0.4-0.3,0.7c0,0.2,0,0.4,0.1,0.5c0.1,0.2,0.2,0.3,0.4,0.4c0.2,0.1,0.4,0.3,0.8,0.4c0.4-0.2,0.8-0.4,0.9-0.6
					c0.2-0.2,0.3-0.5,0.3-0.8c0-0.3-0.1-0.6-0.3-0.7S75.7,77.3,75.3,77.3L75.3,77.3z"/>
				<path class="st10" d="M83,81.4c0-1,0.1-1.9,0.4-2.7c0.3-0.8,0.7-1.6,1.2-2.2h1.1c-0.5,0.7-0.9,1.5-1.2,2.3
					c-0.3,0.9-0.4,1.7-0.4,2.6c0,0.9,0.1,1.8,0.4,2.6c0.3,0.8,0.7,1.6,1.2,2.3h-1.1c-0.5-0.6-1-1.4-1.2-2.2
					C83.2,83.2,83,82.3,83,81.4L83,81.4z"/>
				<path class="st10" d="M94.3,80.4c0,1.3-0.4,2.3-1.1,3c-0.7,0.7-1.8,1.1-3.2,1.1h-2.2v-8h2.5c1.3,0,2.3,0.3,3,1
					C94,78.1,94.3,79.1,94.3,80.4L94.3,80.4z M92.9,80.4c0-1.9-0.9-2.9-2.7-2.9h-1.1v5.8H90C92,83.3,92.9,82.4,92.9,80.4z"/>
				<path class="st10" d="M99.9,80.1h3v4c-0.5,0.2-0.9,0.3-1.4,0.3c-0.4,0.1-0.9,0.1-1.4,0.1c-1.2,0-2.2-0.4-2.8-1.1s-1-1.7-1-3.1
					c0-1.3,0.4-2.3,1.1-3c0.7-0.7,1.8-1.1,3.1-1.1c0.8,0,1.6,0.2,2.4,0.5l-0.5,1.1c-0.7-0.3-1.3-0.5-2-0.5c-0.9,0-1.5,0.3-2,0.8
					c-0.5,0.5-0.7,1.3-0.7,2.2c0,1,0.2,1.7,0.7,2.2s1.1,0.8,1.9,0.8c0.4,0,0.9-0.1,1.4-0.2v-2.1h-1.7V80.1z"/>
				<path class="st10" d="M108.1,84.5h-1.3v-6.9h-2.4v-1.1h6v1.1h-2.4V84.5z"/>
				<path class="st10" d="M115.5,76.4l-3,8h-1.2l3-8H115.5z"/>
				<path class="st10" d="M122.1,80.4c0,1.4-0.2,2.4-0.7,3.1c-0.4,0.7-1.1,1-2.1,1c-0.9,0-1.6-0.4-2-1.1c-0.5-0.7-0.7-1.7-0.7-3.1
					c0-1.4,0.2-2.5,0.7-3.1c0.4-0.7,1.1-1,2.1-1c0.9,0,1.6,0.4,2,1.1C121.9,78,122.1,79.1,122.1,80.4z M118,80.4
					c0,1.1,0.1,1.9,0.3,2.3c0.2,0.5,0.6,0.7,1.1,0.7c0.5,0,0.9-0.2,1.1-0.7c0.2-0.5,0.3-1.3,0.3-2.3c0-1.1-0.1-1.9-0.3-2.3
					c-0.2-0.5-0.6-0.7-1.1-0.7c-0.5,0-0.9,0.2-1.1,0.7S118,79.3,118,80.4z"/>
				<path class="st10" d="M123.9,83.8c0-0.3,0.1-0.5,0.2-0.6c0.1-0.1,0.3-0.2,0.6-0.2c0.3,0,0.5,0.1,0.6,0.2
					c0.1,0.1,0.2,0.4,0.2,0.6c0,0.3-0.1,0.5-0.2,0.6c-0.1,0.2-0.3,0.2-0.6,0.2s-0.5-0.1-0.6-0.2C124,84.2,123.9,84,123.9,83.8z
					 M127,83.8c0-0.3,0.1-0.5,0.2-0.6c0.1-0.1,0.3-0.2,0.6-0.2c0.3,0,0.5,0.1,0.6,0.2c0.1,0.1,0.2,0.4,0.2,0.6
					c0,0.3-0.1,0.5-0.2,0.6c-0.1,0.2-0.3,0.2-0.6,0.2s-0.5-0.1-0.6-0.2C127,84.2,127,84,127,83.8z M130,83.8c0-0.3,0.1-0.5,0.2-0.6
					c0.1-0.1,0.3-0.2,0.6-0.2c0.3,0,0.5,0.1,0.6,0.2c0.1,0.1,0.2,0.4,0.2,0.6c0,0.3-0.1,0.5-0.2,0.6c-0.1,0.2-0.3,0.2-0.6,0.2
					s-0.5-0.1-0.6-0.2C130.1,84.2,130,84,130,83.8z"/>
				<path class="st10" d="M137.3,84.5H136v-5.2c0-0.6,0-1.1,0-1.5c-0.1,0.1-0.2,0.2-0.3,0.3c-0.1,0.1-0.5,0.4-1.2,1l-0.6-0.8
					l2.4-1.9h1.1V84.5L137.3,84.5z"/>
				<path class="st10" d="M145.9,80.4c0,1.4-0.2,2.4-0.7,3.1c-0.4,0.7-1.1,1-2.1,1c-0.9,0-1.6-0.4-2-1.1c-0.5-0.7-0.7-1.7-0.7-3.1
					c0-1.4,0.2-2.5,0.7-3.1c0.4-0.7,1.1-1,2.1-1c0.9,0,1.6,0.4,2,1.1C145.7,78,145.9,79.1,145.9,80.4z M141.8,80.4
					c0,1.1,0.1,1.9,0.3,2.3c0.2,0.5,0.6,0.7,1.1,0.7c0.5,0,0.9-0.2,1.1-0.7c0.2-0.5,0.3-1.3,0.3-2.3c0-1.1-0.1-1.9-0.3-2.3
					c-0.2-0.5-0.6-0.7-1.1-0.7c-0.5,0-0.9,0.2-1.1,0.7S141.8,79.3,141.8,80.4z"/>
				<path class="st10" d="M152.6,76.4h1.4l-2.8,8h-1.4l-2.8-8h1.4l1.7,5c0.1,0.2,0.2,0.5,0.3,0.9c0.1,0.4,0.2,0.7,0.2,0.8
					c0-0.3,0.1-0.6,0.2-1c0.1-0.4,0.2-0.6,0.2-0.8C150.9,81.4,152.6,76.4,152.6,76.4z"/>
				<path class="st10" d="M157.7,81.4c0,1-0.1,1.9-0.4,2.7s-0.7,1.6-1.2,2.2h-1.1c0.5-0.7,0.9-1.4,1.2-2.3c0.3-0.8,0.4-1.7,0.4-2.6
					c0-0.9-0.1-1.8-0.4-2.6c-0.3-0.9-0.7-1.6-1.2-2.3h1.1c0.5,0.6,1,1.4,1.2,2.2C157.5,79.5,157.7,80.4,157.7,81.4z"/>
			</g>
			<g>
				<path class="st10" d="M21.6,172.6v3.6h-1v-8.6H23c1.1,0,1.8,0.2,2.3,0.6c0.5,0.4,0.8,1,0.8,1.8c0,1.1-0.6,1.9-1.7,2.3l2.3,3.9
					h-1.2l-2.1-3.6C23.4,172.6,21.6,172.6,21.6,172.6z M21.6,171.7H23c0.7,0,1.2-0.1,1.6-0.4c0.3-0.3,0.5-0.7,0.5-1.3
					c0-0.6-0.2-1-0.5-1.2c-0.3-0.3-0.9-0.4-1.6-0.4h-1.3C21.6,168.4,21.6,171.7,21.6,171.7z"/>
				<path class="st10" d="M32.9,176.2h-4.8v-8.6h4.8v0.9h-3.8v2.8h3.6v0.9h-3.6v3.2h3.8V176.2z"/>
				<path class="st10" d="M39.7,173.9c0,0.8-0.3,1.3-0.8,1.8c-0.5,0.4-1.3,0.6-2.2,0.6c-1,0-1.8-0.1-2.4-0.4v-1
					c0.4,0.1,0.7,0.3,1.2,0.4c0.4,0.1,0.8,0.1,1.2,0.1c0.7,0,1.2-0.1,1.5-0.4c0.3-0.3,0.5-0.6,0.5-1.1c0-0.3-0.1-0.5-0.2-0.7
					s-0.3-0.4-0.6-0.5c-0.3-0.2-0.7-0.3-1.3-0.5c-0.8-0.3-1.4-0.6-1.7-1c-0.3-0.4-0.5-0.9-0.5-1.5c0-0.7,0.2-1.2,0.7-1.6
					c0.5-0.4,1.2-0.6,2-0.6c0.9,0,1.6,0.2,2.4,0.5l-0.3,0.9c-0.7-0.3-1.4-0.4-2.1-0.4c-0.5,0-0.9,0.1-1.2,0.3
					c-0.3,0.2-0.4,0.5-0.4,0.9c0,0.3,0.1,0.5,0.2,0.7c0.1,0.2,0.3,0.4,0.6,0.5c0.3,0.2,0.7,0.3,1.2,0.5c0.9,0.3,1.5,0.7,1.9,1
					C39.5,172.8,39.7,173.3,39.7,173.9z"/>
				<path class="st10" d="M46.2,176.2h-4.8v-8.6h4.8v0.9h-3.8v2.8H46v0.9h-3.6v3.2h3.8V176.2z"/>
				<path class="st10" d="M50.8,176.2h-1v-7.7H47v-0.9h6.5v0.9h-2.7C50.8,168.5,50.8,176.2,50.8,176.2z"/>
			</g>
			<g>
				<path class="st10" d="M52.6,236.1c0,0.8-0.3,1.3-0.8,1.8c-0.5,0.4-1.3,0.6-2.2,0.6c-1,0-1.8-0.1-2.4-0.4v-1
					c0.4,0.1,0.7,0.3,1.2,0.4c0.4,0.1,0.8,0.1,1.2,0.1c0.7,0,1.2-0.1,1.5-0.4c0.3-0.3,0.5-0.6,0.5-1.1c0-0.3-0.1-0.5-0.2-0.7
					s-0.3-0.4-0.6-0.5c-0.3-0.2-0.7-0.3-1.3-0.5c-0.8-0.3-1.4-0.6-1.7-1c-0.3-0.4-0.5-0.9-0.5-1.5c0-0.7,0.2-1.2,0.7-1.6
					c0.5-0.4,1.2-0.6,2-0.6c0.9,0,1.6,0.2,2.4,0.5l-0.3,0.9c-0.7-0.3-1.4-0.4-2.1-0.4c-0.5,0-0.9,0.1-1.2,0.3
					c-0.3,0.2-0.4,0.5-0.4,0.9c0,0.3,0.1,0.5,0.2,0.7c0.1,0.2,0.3,0.4,0.6,0.5c0.3,0.2,0.7,0.3,1.2,0.5c0.9,0.3,1.5,0.7,1.9,1
					C52.4,235,52.6,235.5,52.6,236.1z"/>
				<path class="st10" d="M57,238.4h-1v-7.7h-2.7v-0.9h6.5v0.9H57C57,230.7,57,238.4,57,238.4z"/>
				<path class="st10" d="M66.4,238.4l-1.1-2.7h-3.5l-1.1,2.7h-1l3.4-8.6h0.8l3.4,8.6H66.4z M65.1,234.7l-1-2.7
					c-0.1-0.3-0.3-0.8-0.4-1.2c-0.1,0.4-0.2,0.8-0.4,1.2l-1,2.7C62.3,234.7,65.1,234.7,65.1,234.7z"/>
				<path class="st10" d="M71.3,238.4h-1v-7.7h-2.7v-0.9H74v0.9h-2.7C71.3,230.7,71.3,238.4,71.3,238.4z"/>
				<path class="st10" d="M81.8,229.8v5.6c0,1-0.3,1.8-0.9,2.3c-0.6,0.6-1.4,0.8-2.4,0.8s-1.8-0.3-2.4-0.8s-0.9-1.3-0.9-2.3v-5.5h1
					v5.6c0,0.7,0.2,1.3,0.6,1.7c0.4,0.4,1,0.6,1.7,0.6c0.7,0,1.3-0.2,1.7-0.6s0.6-0.9,0.6-1.7v-5.6H81.8L81.8,229.8z"/>
				<path class="st10" d="M89,236.1c0,0.8-0.3,1.3-0.8,1.8c-0.5,0.4-1.3,0.6-2.2,0.6c-1,0-1.8-0.1-2.4-0.4v-1
					c0.4,0.1,0.7,0.3,1.2,0.4c0.4,0.1,0.8,0.1,1.2,0.1c0.7,0,1.2-0.1,1.5-0.4c0.3-0.3,0.5-0.6,0.5-1.1c0-0.3-0.1-0.5-0.2-0.7
					s-0.3-0.4-0.6-0.5c-0.3-0.2-0.7-0.3-1.3-0.5c-0.8-0.3-1.4-0.6-1.7-1c-0.3-0.4-0.5-0.9-0.5-1.5c0-0.7,0.2-1.2,0.7-1.6
					c0.5-0.4,1.2-0.6,2-0.6c0.9,0,1.6,0.2,2.4,0.5l-0.3,0.9c-0.7-0.3-1.4-0.4-2.1-0.4c-0.5,0-0.9,0.1-1.2,0.3
					c-0.3,0.2-0.4,0.5-0.4,0.9c0,0.3,0.1,0.5,0.2,0.7c0.1,0.2,0.3,0.4,0.6,0.5c0.3,0.2,0.7,0.3,1.2,0.5c0.9,0.3,1.5,0.7,1.9,1
					C88.8,235,89,235.5,89,236.1z"/>
			</g>
			<g>
				<path class="st10" d="M27.6,305.1v13.5c0,2.4-0.7,4.3-2.1,5.6c-1.4,1.4-3.3,2-5.8,2c-2.4,0-4.3-0.7-5.7-2c-1.4-1.4-2-3.2-2-5.7
					v-13.5h1.5v13.5c0,2,0.6,3.6,1.7,4.7s2.7,1.7,4.7,1.7c2,0,3.5-0.5,4.6-1.6s1.6-2.6,1.6-4.6v-13.7H27.6L27.6,305.1z"/>
				<path class="st10" d="M43.3,320.6c0,1.7-0.6,3.1-1.9,4.1s-3,1.5-5.1,1.5c-2.6,0-4.5-0.3-5.9-0.8V324c1.5,0.6,3.4,1,5.8,1
					c1.7,0,3.1-0.4,4.1-1.2c1-0.8,1.5-1.8,1.5-3.1c0-0.8-0.2-1.4-0.5-2c-0.3-0.5-0.9-1-1.6-1.4c-0.8-0.4-1.9-0.9-3.3-1.4
					c-2.1-0.7-3.6-1.5-4.4-2.4c-0.8-0.9-1.2-2-1.2-3.4c0-1.6,0.6-2.8,1.8-3.8c1.2-1,2.8-1.5,4.7-1.5c2,0,3.8,0.4,5.5,1.1l-0.5,1.3
					c-1.7-0.7-3.4-1.1-5-1.1c-1.5,0-2.8,0.4-3.7,1.1s-1.4,1.7-1.4,2.9c0,0.8,0.1,1.4,0.4,1.9c0.3,0.5,0.7,0.9,1.4,1.3
					s1.7,0.9,3.3,1.4c1.6,0.6,2.9,1.1,3.7,1.6s1.4,1.1,1.8,1.8C43.1,318.9,43.3,319.7,43.3,320.6z"/>
				<path class="st10" d="M46.3,305.1H52c2.6,0,4.5,0.4,5.7,1.3c1.2,0.9,1.8,2.2,1.8,4c0,1.2-0.4,2.2-1.1,3
					c-0.7,0.8-1.8,1.3-3.2,1.5v0.1c1.7,0.2,2.9,0.8,3.7,1.6c0.8,0.8,1.2,1.9,1.2,3.4c0,1.9-0.6,3.4-1.9,4.4c-1.3,1-3.1,1.6-5.4,1.6
					h-6.4C46.3,326,46.3,305.1,46.3,305.1z M47.7,314.4h4.6c2,0,3.4-0.3,4.3-1c0.9-0.7,1.3-1.7,1.3-3.1c0-1.4-0.5-2.4-1.5-3
					c-1-0.6-2.5-0.9-4.5-0.9h-4.2V314.4z M47.7,315.7v9h4.9c3.9,0,5.8-1.6,5.8-4.7c0-2.9-2-4.3-6.1-4.3
					C52.3,315.7,47.7,315.7,47.7,315.7z"/>
			</g>
			<g>
				<g>
					<path class="st10" d="M259.1,326h-11.4v-20.9h11.4v1.3h-10v7.9h9.4v1.3h-9.4v9h10V326z"/>
					<path class="st10" d="M269.3,326h-1.5v-19.5h-6.8v-1.4h15v1.4h-6.8V326z"/>
					<path class="st10" d="M294.3,326h-1.5v-10.3h-12.2V326h-1.5v-20.9h1.5v9.3h12.2v-9.3h1.5V326z"/>
				</g>
				<g>
					<path class="st10" d="M260.8,334v3.2h-1.3v-8h2.3c1,0,1.8,0.2,2.3,0.6c0.5,0.4,0.7,1,0.7,1.8c0,1-0.5,1.7-1.6,2.1l2.3,3.6h-1.5
						l-1.9-3.2H260.8z M260.8,332.9h0.9c0.6,0,1.1-0.1,1.3-0.3c0.3-0.2,0.4-0.6,0.4-1c0-0.5-0.1-0.8-0.4-1c-0.3-0.2-0.7-0.3-1.3-0.3
						h-0.9V332.9z"/>
					<path class="st10" d="M266.3,339.5c-0.4,0-0.7,0-0.9-0.1v-1.1c0.3,0.1,0.6,0.1,0.8,0.1c0.7,0,1.1-0.5,1.1-1.4v-7.8h1.3v7.8
						c0,0.8-0.2,1.4-0.6,1.9S267,339.5,266.3,339.5z"/>
					<path class="st10" d="M276.4,335.5h-1.1v1.8H274v-1.8h-3.7v-1l3.7-5.3h1.3v5.2h1.1V335.5z M274,334.4v-2c0-0.7,0-1.3,0.1-1.8h0
						c-0.1,0.2-0.3,0.5-0.5,0.9l-2,2.9H274z"/>
					<path class="st10" d="M280.4,332.2c0.8,0,1.5,0.2,1.9,0.6c0.5,0.4,0.7,1,0.7,1.8c0,0.9-0.3,1.5-0.8,2c-0.5,0.5-1.3,0.7-2.3,0.7
						c-0.9,0-1.6-0.1-2.1-0.4v-1.2c0.3,0.2,0.6,0.3,1,0.4s0.7,0.1,1.1,0.1c0.6,0,1-0.1,1.3-0.4c0.3-0.3,0.5-0.6,0.5-1.1
						c0-1-0.6-1.4-1.8-1.4c-0.2,0-0.4,0-0.6,0.1c-0.3,0-0.5,0.1-0.7,0.1l-0.6-0.3l0.3-3.9h4.2v1.1h-3l-0.2,2c0.1,0,0.3,0,0.5-0.1
						C279.9,332.2,280.1,332.2,280.4,332.2z"/>
				</g>
			</g>
			<path class="st10" d="M37.2,251h-1v-6.1c0-0.5,0-1,0-1.4c-0.1,0.1-0.2,0.2-0.3,0.3s-0.6,0.5-1.4,1.1l-0.5-0.7l2.3-1.8h0.8
				C37.2,242.4,37.2,251,37.2,251z"/>
			<path class="st10" d="M60.3,251h-5.7v-0.8l2.3-2.3c0.7-0.7,1.1-1.2,1.4-1.5c0.2-0.3,0.4-0.6,0.5-0.9c0.1-0.3,0.2-0.6,0.2-0.9
				c0-0.5-0.1-0.8-0.4-1.1s-0.7-0.4-1.2-0.4c-0.4,0-0.7,0.1-1,0.2c-0.3,0.1-0.7,0.3-1.1,0.6l-0.5-0.7c0.8-0.7,1.7-1,2.6-1
				c0.8,0,1.4,0.2,1.9,0.6c0.5,0.4,0.7,1,0.7,1.7c0,0.5-0.2,1.1-0.5,1.6c-0.3,0.5-0.9,1.2-1.7,2l-1.9,1.8v0h4.4L60.3,251L60.3,251z"
				/>
			<path class="st10" d="M81.1,244.4c0,0.5-0.2,1-0.5,1.3c-0.3,0.3-0.7,0.6-1.3,0.7v0c0.7,0.1,1.2,0.3,1.5,0.7
				c0.3,0.4,0.5,0.8,0.5,1.4c0,0.8-0.3,1.5-0.9,1.9s-1.4,0.7-2.4,0.7c-0.5,0-0.9,0-1.3-0.1c-0.4-0.1-0.7-0.2-1.1-0.4v-0.9
				c0.4,0.2,0.8,0.3,1.2,0.4c0.4,0.1,0.8,0.1,1.2,0.1c1.5,0,2.2-0.6,2.2-1.7c0-1-0.8-1.6-2.5-1.6h-0.8v-0.8h0.9
				c0.7,0,1.2-0.1,1.6-0.4s0.6-0.7,0.6-1.2c0-0.4-0.1-0.8-0.4-1c-0.3-0.2-0.7-0.4-1.2-0.4c-0.4,0-0.7,0.1-1.1,0.2
				c-0.3,0.1-0.7,0.3-1.1,0.6l-0.5-0.7c0.4-0.3,0.8-0.5,1.2-0.7c0.5-0.2,0.9-0.2,1.5-0.2c0.8,0,1.5,0.2,1.9,0.6
				S81.1,243.7,81.1,244.4z"/>
			<path class="st10" d="M103,249h-1.3v2h-0.9v-2h-4.2v-0.9l4.1-5.8h1v5.8h1.3V249z M100.8,248.1v-2.9c0-0.6,0-1.2,0.1-1.9h0
				c-0.2,0.4-0.4,0.7-0.5,0.9l-2.7,3.8H100.8z"/>
			<g>
				<path class="st10" d="M221.7,251v-8.6h1v7.7h3.8v0.9H221.7z"/>
				<path class="st10" d="M233.3,251l-1.1-2.7h-3.5l-1.1,2.7h-1l3.4-8.6h0.8l3.4,8.6H233.3z M232,247.3l-1-2.7
					c-0.1-0.3-0.3-0.8-0.4-1.2c-0.1,0.4-0.2,0.8-0.4,1.2l-1,2.7H232z"/>
				<path class="st10" d="M242.3,251h-1.1l-4.7-7.2h0c0.1,0.8,0.1,1.6,0.1,2.3v4.9h-0.9v-8.6h1.1l4.7,7.2h0c0-0.1,0-0.4-0.1-1
					s0-1,0-1.2v-4.9h0.9V251z"/>
			</g>
			<g>
				<path class="st10" d="M92.7,167.6v5.6c0,1-0.3,1.8-0.9,2.3c-0.6,0.6-1.4,0.8-2.4,0.8s-1.8-0.3-2.4-0.8s-0.9-1.3-0.9-2.3v-5.5h1
					v5.6c0,0.7,0.2,1.3,0.6,1.7c0.4,0.4,1,0.6,1.7,0.6c0.7,0,1.3-0.2,1.7-0.6s0.6-0.9,0.6-1.7v-5.6H92.7z"/>
				<path class="st10" d="M99.8,173.9c0,0.8-0.3,1.3-0.8,1.8c-0.5,0.4-1.3,0.6-2.2,0.6c-1,0-1.8-0.1-2.4-0.4v-1
					c0.4,0.1,0.7,0.3,1.2,0.4c0.4,0.1,0.8,0.1,1.2,0.1c0.7,0,1.2-0.1,1.5-0.4c0.3-0.3,0.5-0.6,0.5-1.1c0-0.3-0.1-0.5-0.2-0.7
					s-0.3-0.4-0.6-0.5c-0.3-0.2-0.7-0.3-1.3-0.5c-0.8-0.3-1.4-0.6-1.7-1c-0.3-0.4-0.5-0.9-0.5-1.5c0-0.7,0.2-1.2,0.7-1.6
					c0.5-0.4,1.2-0.6,2-0.6c0.9,0,1.6,0.2,2.4,0.5l-0.3,0.9c-0.7-0.3-1.4-0.4-2.1-0.4c-0.5,0-0.9,0.1-1.2,0.3
					c-0.3,0.2-0.4,0.5-0.4,0.9c0,0.3,0.1,0.5,0.2,0.7c0.1,0.2,0.3,0.4,0.6,0.5c0.3,0.2,0.7,0.3,1.2,0.5c0.9,0.3,1.5,0.7,1.9,1
					C99.6,172.8,99.8,173.3,99.8,173.9z"/>
				<path class="st10" d="M106.4,176.2h-4.8v-8.6h4.8v0.9h-3.8v2.8h3.6v0.9h-3.6v3.2h3.8V176.2z"/>
				<path class="st10" d="M109.3,172.6v3.6h-1v-8.6h2.4c1.1,0,1.8,0.2,2.3,0.6c0.5,0.4,0.8,1,0.8,1.8c0,1.1-0.6,1.9-1.7,2.3l2.3,3.9
					h-1.2l-2.1-3.6H109.3z M109.3,171.7h1.4c0.7,0,1.2-0.1,1.6-0.4c0.3-0.3,0.5-0.7,0.5-1.3c0-0.6-0.2-1-0.5-1.2
					c-0.3-0.3-0.9-0.4-1.6-0.4h-1.3V171.7z"/>
			</g>
			<g>
				<path class="st10" d="M207.3,14.2h-3.8v-0.7l1.3-0.3V4.4l-1.3-0.3V3.4h3.8v0.7L206,4.4v8.8l1.3,0.3
					C207.3,13.5,207.3,14.2,207.3,14.2z"/>
				<path class="st10" d="M216.2,11.8h-1.6v2.5h-1.2v-2.5h-5.3v-1.1l5.1-7.3h1.3v7.3h1.6V11.8L216.2,11.8z M213.5,10.6V7
					c0-0.7,0-1.5,0.1-2.4h-0.1c-0.2,0.5-0.5,0.9-0.7,1.2l-3.4,4.8C209.4,10.6,213.5,10.6,213.5,10.6z"/>
			</g>
			<g>
				<path class="st10" d="M230.7,14.2h-3.8v-0.7l1.3-0.3V4.4l-1.3-0.3V3.4h3.8v0.7l-1.3,0.3v8.8l1.3,0.3
					C230.7,13.5,230.7,14.2,230.7,14.2z"/>
				<path class="st10" d="M235.4,7.6c1.1,0,2,0.3,2.7,0.8s1,1.3,1,2.3c0,1.1-0.4,2-1.1,2.6c-0.7,0.6-1.7,1-2.9,1
					c-1.2,0-2.1-0.2-2.8-0.6v-1.2c0.3,0.2,0.8,0.4,1.3,0.5c0.5,0.1,1,0.2,1.5,0.2c0.9,0,1.5-0.2,2-0.6c0.5-0.4,0.7-1,0.7-1.8
					c0-1.5-0.9-2.3-2.8-2.3c-0.5,0-1.1,0.1-1.9,0.2l-0.6-0.4l0.4-5.1h5.4v1.1H234l-0.3,3.2C234.3,7.7,234.8,7.6,235.4,7.6z"/>
			</g>
			<g>
				<path class="st10" d="M254.1,14.2h-3.8v-0.7l1.3-0.3V4.4l-1.3-0.3V3.4h3.8v0.7l-1.3,0.3v8.8l1.3,0.3
					C254.1,13.5,254.1,14.2,254.1,14.2z"/>
				<path class="st10" d="M255.6,9.6c0-2.1,0.4-3.7,1.2-4.8c0.8-1.1,2-1.6,3.7-1.6c0.6,0,1,0,1.3,0.1v1.1c-0.4-0.1-0.8-0.2-1.3-0.2
					c-1.2,0-2,0.4-2.7,1.1c-0.6,0.7-0.9,1.9-1,3.4h0.1c0.5-0.8,1.4-1.3,2.6-1.3c1,0,1.7,0.3,2.3,0.9c0.6,0.6,0.8,1.4,0.8,2.4
					c0,1.1-0.3,2-0.9,2.7c-0.6,0.6-1.4,1-2.5,1c-1.1,0-2-0.4-2.7-1.3S255.6,11.1,255.6,9.6z M259.2,13.3c0.7,0,1.2-0.2,1.6-0.7
					c0.4-0.4,0.6-1.1,0.6-1.9c0-0.7-0.2-1.3-0.5-1.7c-0.4-0.4-0.9-0.6-1.6-0.6c-0.4,0-0.9,0.1-1.2,0.3c-0.4,0.2-0.7,0.4-0.9,0.8
					c-0.2,0.3-0.3,0.7-0.3,1c0,0.5,0.1,1,0.3,1.4c0.2,0.4,0.5,0.8,0.8,1S258.7,13.3,259.2,13.3z"/>
			</g>
			<g>
				<path class="st10" d="M277.5,14.2h-3.8v-0.7l1.3-0.3V4.4l-1.3-0.3V3.4h3.8v0.7l-1.3,0.3v8.8l1.3,0.3
					C277.5,13.5,277.5,14.2,277.5,14.2z"/>
				<path class="st10" d="M280.2,14.2l4.5-9.7h-5.9V3.4h7.2v1l-4.4,9.8C281.6,14.2,280.2,14.2,280.2,14.2z"/>
			</g>
			<g>
				<path class="st10" d="M300.9,14.2h-3.8v-0.7l1.3-0.3V4.4l-1.3-0.3V3.4h3.8v0.7l-1.3,0.3v8.8l1.3,0.3
					C300.9,13.5,300.9,14.2,300.9,14.2z"/>
				<path class="st10" d="M305.8,3.3c1,0,1.8,0.2,2.3,0.7c0.6,0.5,0.9,1.1,0.9,1.9c0,0.5-0.2,1-0.5,1.5c-0.3,0.4-0.9,0.8-1.6,1.2
					c0.9,0.4,1.5,0.9,1.9,1.3s0.6,1,0.6,1.6c0,0.9-0.3,1.6-0.9,2.1c-0.6,0.5-1.5,0.8-2.6,0.8c-1.2,0-2-0.3-2.7-0.8s-0.9-1.2-0.9-2.1
					c0-1.2,0.8-2.2,2.3-2.9c-0.7-0.4-1.2-0.8-1.5-1.2c-0.3-0.4-0.4-0.9-0.4-1.5c0-0.8,0.3-1.4,0.9-1.9
					C304.1,3.5,304.9,3.3,305.8,3.3z M303.5,11.5c0,0.6,0.2,1.1,0.6,1.4c0.4,0.3,1,0.5,1.7,0.5c0.7,0,1.3-0.2,1.7-0.5
					c0.4-0.3,0.6-0.8,0.6-1.4c0-0.5-0.2-0.9-0.6-1.3c-0.4-0.4-1.1-0.7-2-1.1c-0.7,0.3-1.3,0.7-1.6,1C303.7,10.5,303.5,11,303.5,11.5
					z M305.8,4.3c-0.6,0-1.1,0.1-1.4,0.4c-0.4,0.3-0.5,0.7-0.5,1.2c0,0.5,0.1,0.8,0.4,1.2s0.8,0.7,1.6,1c0.7-0.3,1.2-0.6,1.5-1
					c0.3-0.3,0.4-0.7,0.4-1.2c0-0.5-0.2-0.9-0.5-1.2C306.9,4.4,306.5,4.3,305.8,4.3z"/>
			</g>
			<g>
				<path class="st10" d="M65.9,358.5c0,1.4-0.3,2.5-1,3.3c-0.7,0.8-1.7,1.2-2.9,1.2c-1.3,0-2.2-0.4-2.9-1.2s-1-1.9-1-3.3
					c0-1.4,0.3-2.5,1-3.3c0.7-0.8,1.7-1.2,2.9-1.2c1.2,0,2.2,0.4,2.9,1.2C65.6,356.1,65.9,357.2,65.9,358.5z M59,358.5
					c0,1.2,0.2,2.1,0.7,2.7c0.5,0.6,1.2,0.9,2.2,0.9c1,0,1.7-0.3,2.2-0.9c0.5-0.6,0.7-1.5,0.7-2.7c0-1.2-0.2-2-0.7-2.6
					c-0.5-0.6-1.2-0.9-2.2-0.9c-1,0-1.7,0.3-2.2,0.9C59.3,356.5,59,357.4,59,358.5z"/>
				<path class="st10" d="M74.3,354.2v5.6c0,1-0.3,1.8-0.9,2.3c-0.6,0.6-1.4,0.8-2.4,0.8s-1.8-0.3-2.4-0.8s-0.9-1.3-0.9-2.3v-5.5h1
					v5.6c0,0.7,0.2,1.3,0.6,1.7c0.4,0.4,1,0.6,1.7,0.6c0.7,0,1.3-0.2,1.7-0.6s0.6-0.9,0.6-1.7v-5.6H74.3L74.3,354.2z"/>
				<path class="st10" d="M79.3,362.9h-1v-7.7h-2.7v-0.9H82v0.9h-2.7V362.9z"/>
				<path class="st10" d="M88.7,356.8c0,0.9-0.3,1.5-0.9,2c-0.6,0.5-1.4,0.7-2.6,0.7h-1v3.4h-1v-8.6h2.2
					C87.7,354.2,88.7,355.1,88.7,356.8z M84.3,358.6h0.9c0.9,0,1.5-0.1,1.9-0.4c0.4-0.3,0.6-0.7,0.6-1.4c0-0.6-0.2-1-0.6-1.3
					s-1-0.4-1.7-0.4h-1.1V358.6z"/>
				<path class="st10" d="M97,354.2v5.6c0,1-0.3,1.8-0.9,2.3c-0.6,0.6-1.4,0.8-2.4,0.8s-1.8-0.3-2.4-0.8s-0.9-1.3-0.9-2.3v-5.5h1
					v5.6c0,0.7,0.2,1.3,0.6,1.7c0.4,0.4,1,0.6,1.7,0.6c0.7,0,1.3-0.2,1.7-0.6s0.6-0.9,0.6-1.7v-5.6H97z"/>
				<path class="st10" d="M102,362.9h-1v-7.7h-2.7v-0.9h6.5v0.9H102V362.9z"/>
				<path class="st10" d="M74.5,374.4h-1v-6.1c0-0.5,0-1,0-1.4c-0.1,0.1-0.2,0.2-0.3,0.3s-0.6,0.5-1.4,1.1l-0.5-0.7l2.3-1.8h0.8
					C74.5,365.8,74.5,374.4,74.5,374.4z"/>
				<path class="st10" d="M83.5,370.1c0,1.5-0.2,2.6-0.7,3.3c-0.5,0.7-1.2,1.1-2.2,1.1c-0.9,0-1.6-0.4-2.1-1.1s-0.7-1.9-0.7-3.3
					c0-1.5,0.2-2.6,0.7-3.3s1.2-1.1,2.1-1.1c0.9,0,1.6,0.4,2.1,1.1C83.3,367.6,83.5,368.7,83.5,370.1z M78.8,370.1
					c0,1.3,0.1,2.2,0.4,2.7s0.8,0.9,1.4,0.9c0.7,0,1.1-0.3,1.4-0.9s0.4-1.5,0.4-2.7s-0.1-2.1-0.4-2.7s-0.8-0.9-1.4-0.9
					c-0.6,0-1.1,0.3-1.4,0.9S78.8,368.9,78.8,370.1z"/>
				<path class="st10" d="M90.7,374.4l-1.1-2.7h-3.5l-1.1,2.7h-1l3.4-8.6h0.8l3.4,8.6H90.7z M89.3,370.8l-1-2.7
					c-0.1-0.3-0.3-0.8-0.4-1.2c-0.1,0.4-0.2,0.8-0.4,1.2l-1,2.7H89.3z"/>
			</g>
			<path class="st10" d="M14.5,385.2h-1V379c0-0.5,0-1,0-1.4c-0.1,0.1-0.2,0.2-0.3,0.3s-0.6,0.5-1.4,1.1l-0.5-0.7l2.3-1.8h0.8
				C14.5,376.5,14.5,385.2,14.5,385.2z"/>
			<polyline class="st11" points="22.5,377.8 22.5,384.4 28.3,384.4 36,388.5 			"/>
			<polyline class="st11" points="45.8,377.8 45.8,384.4 40,384.4 			"/>
			<path class="st10" d="M151,385.2h-5.7v-0.8l2.3-2.3c0.7-0.7,1.1-1.2,1.4-1.5c0.2-0.3,0.4-0.6,0.5-0.9c0.1-0.3,0.2-0.6,0.2-0.9
				c0-0.5-0.1-0.8-0.4-1.1s-0.7-0.4-1.2-0.4c-0.4,0-0.7,0.1-1,0.2c-0.3,0.1-0.7,0.3-1.1,0.6l-0.5-0.7c0.8-0.7,1.7-1,2.6-1
				c0.8,0,1.4,0.2,1.9,0.6c0.5,0.4,0.7,1,0.7,1.7c0,0.5-0.2,1.1-0.5,1.6c-0.3,0.5-0.9,1.2-1.7,2l-1.9,1.8v0h4.4V385.2z"/>
			<polyline class="st11" points="116.1,377.8 116.1,384.4 122,384.4 129.6,388.5 			"/>
			<polyline class="st11" points="139.5,377.8 139.5,384.4 133.7,384.4 			"/>
			<g>
				<path class="st10" d="M229.8,358.5c0,1.4-0.3,2.5-1,3.3c-0.7,0.8-1.7,1.2-2.9,1.2c-1.3,0-2.2-0.4-2.9-1.2s-1-1.9-1-3.3
					c0-1.4,0.3-2.5,1-3.3c0.7-0.8,1.7-1.2,2.9-1.2c1.2,0,2.2,0.4,2.9,1.2C229.5,356.1,229.8,357.2,229.8,358.5z M223,358.5
					c0,1.2,0.2,2.1,0.7,2.7c0.5,0.6,1.2,0.9,2.2,0.9c1,0,1.7-0.3,2.2-0.9c0.5-0.6,0.7-1.5,0.7-2.7c0-1.2-0.2-2-0.7-2.6
					c-0.5-0.6-1.2-0.9-2.2-0.9c-1,0-1.7,0.3-2.2,0.9C223.2,356.5,223,357.4,223,358.5z"/>
				<path class="st10" d="M238.3,354.2v5.6c0,1-0.3,1.8-0.9,2.3c-0.6,0.6-1.4,0.8-2.4,0.8s-1.8-0.3-2.4-0.8s-0.9-1.3-0.9-2.3v-5.5h1
					v5.6c0,0.7,0.2,1.3,0.6,1.7c0.4,0.4,1,0.6,1.7,0.6c0.7,0,1.3-0.2,1.7-0.6s0.6-0.9,0.6-1.7v-5.6H238.3z"/>
				<path class="st10" d="M243.2,362.9h-1v-7.7h-2.7v-0.9h6.5v0.9h-2.7V362.9z"/>
				<path class="st10" d="M252.7,356.8c0,0.9-0.3,1.5-0.9,2c-0.6,0.5-1.4,0.7-2.6,0.7h-1v3.4h-1v-8.6h2.2
					C251.6,354.2,252.7,355.1,252.7,356.8z M248.2,358.6h0.9c0.9,0,1.5-0.1,1.9-0.4c0.4-0.3,0.6-0.7,0.6-1.4c0-0.6-0.2-1-0.6-1.3
					s-1-0.4-1.7-0.4h-1.1V358.6z"/>
				<path class="st10" d="M261,354.2v5.6c0,1-0.3,1.8-0.9,2.3c-0.6,0.6-1.4,0.8-2.4,0.8s-1.8-0.3-2.4-0.8s-0.9-1.3-0.9-2.3v-5.5h1
					v5.6c0,0.7,0.2,1.3,0.6,1.7c0.4,0.4,1,0.6,1.7,0.6c0.7,0,1.3-0.2,1.7-0.6s0.6-0.9,0.6-1.7v-5.6H261z"/>
				<path class="st10" d="M265.9,362.9h-1v-7.7h-2.7v-0.9h6.5v0.9h-2.7V362.9z"/>
				<path class="st10" d="M238.5,374.4h-1v-6.1c0-0.5,0-1,0-1.4c-0.1,0.1-0.2,0.2-0.3,0.3s-0.6,0.5-1.4,1.1l-0.5-0.7l2.3-1.8h0.8
					V374.4z"/>
				<path class="st10" d="M247.4,370.1c0,1.5-0.2,2.6-0.7,3.3c-0.5,0.7-1.2,1.1-2.2,1.1c-0.9,0-1.6-0.4-2.1-1.1s-0.7-1.9-0.7-3.3
					c0-1.5,0.2-2.6,0.7-3.3s1.2-1.1,2.1-1.1c0.9,0,1.6,0.4,2.1,1.1C247.2,367.6,247.4,368.7,247.4,370.1z M242.7,370.1
					c0,1.3,0.1,2.2,0.4,2.7s0.8,0.9,1.4,0.9c0.7,0,1.1-0.3,1.4-0.9s0.4-1.5,0.4-2.7s-0.1-2.1-0.4-2.7s-0.8-0.9-1.4-0.9
					c-0.6,0-1.1,0.3-1.4,0.9S242.7,368.9,242.7,370.1z"/>
				<path class="st10" d="M254.6,374.4l-1.1-2.7h-3.5l-1.1,2.7h-1l3.4-8.6h0.8l3.4,8.6H254.6z M253.2,370.8l-1-2.7
					c-0.1-0.3-0.3-0.8-0.4-1.2c-0.1,0.4-0.2,0.8-0.4,1.2l-1,2.7H253.2z"/>
			</g>
			<path class="st10" d="M180.1,378.6c0,0.5-0.2,1-0.5,1.3c-0.3,0.3-0.7,0.6-1.3,0.7v0c0.7,0.1,1.2,0.3,1.5,0.7
				c0.3,0.4,0.5,0.8,0.5,1.4c0,0.8-0.3,1.5-0.9,1.9s-1.4,0.7-2.4,0.7c-0.5,0-0.9,0-1.3-0.1c-0.4-0.1-0.7-0.2-1.1-0.4v-0.9
				c0.4,0.2,0.8,0.3,1.2,0.4c0.4,0.1,0.8,0.1,1.2,0.1c1.5,0,2.2-0.6,2.2-1.7c0-1-0.8-1.6-2.5-1.6h-0.8v-0.8h0.9
				c0.7,0,1.2-0.1,1.6-0.4s0.6-0.7,0.6-1.2c0-0.4-0.1-0.8-0.4-1c-0.3-0.2-0.7-0.4-1.2-0.4c-0.4,0-0.7,0.1-1.1,0.2
				c-0.3,0.1-0.7,0.3-1.1,0.6l-0.5-0.7c0.4-0.3,0.8-0.5,1.2-0.7c0.5-0.2,0.9-0.2,1.5-0.2c0.8,0,1.5,0.2,1.9,0.6
				S180.1,377.9,180.1,378.6z"/>
			<polyline class="st11" points="186.4,377.8 186.4,384.4 192.2,384.4 199.9,388.5 			"/>
			<polyline class="st11" points="209.8,377.8 209.8,384.4 203.9,384.4 			"/>
			<path class="st10" d="M315.4,383.2h-1.3v2h-0.9v-2H309v-0.9l4.1-5.8h1v5.8h1.3V383.2z M313.1,382.3v-2.9c0-0.6,0-1.2,0.1-1.9h0
				c-0.2,0.4-0.4,0.7-0.5,0.9l-2.7,3.8H313.1z"/>
			<polyline class="st11" points="280,377.8 280,384.4 285.9,384.4 293.6,388.5 			"/>
			<polyline class="st11" points="303.4,377.8 303.4,384.4 297.6,384.4 			"/>
			<g>
				<line class="st12" x1="187" y1="325.7" x2="187" y2="311.1"/>
				<line class="st12" x1="190.5" y1="332.5" x2="183.5" y2="332.5"/>
				<line class="st12" x1="196.1" y1="325.7" x2="177.9" y2="325.7"/>
				<line class="st12" x1="193.3" y1="329.1" x2="180.7" y2="329.1"/>
			</g>
			<g>
				<polygon class="st13" points="138.8,311.1 127.9,332.5 149.7,332.5 				"/>
				<circle class="st14" cx="138.8" cy="329.5" r="0.7"/>
				<line class="st15" x1="138.8" y1="326.4" x2="138.8" y2="317.1"/>
			</g>
		</g>
	</g>
	<g id="Modbus">
		<g>
			<path class="st10" d="M202,61.2h2.9v4.2c-0.5,0.1-0.9,0.3-1.4,0.3s-1,0.1-1.6,0.1c-1.3,0-2.3-0.4-3-1.2c-0.7-0.8-1.1-1.9-1.1-3.3
				c0-0.9,0.2-1.7,0.5-2.4s0.9-1.2,1.6-1.5s1.5-0.5,2.4-0.5c0.9,0,1.8,0.2,2.6,0.5l-0.4,0.9c-0.8-0.3-1.5-0.5-2.2-0.5
				c-1,0-1.9,0.3-2.5,0.9c-0.6,0.6-0.9,1.5-0.9,2.6c0,1.2,0.3,2,0.9,2.6c0.6,0.6,1.4,0.9,2.5,0.9c0.6,0,1.2-0.1,1.7-0.2v-2.7H202
				V61.2L202,61.2z"/>
			<path class="st10" d="M213,65.8h-1.1l-4.7-7.2h0c0.1,0.8,0.1,1.6,0.1,2.3v4.9h-0.9v-8.6h1.1l4.7,7.2h0c0-0.1,0-0.4-0.1-1
				s0-1,0-1.2v-4.9h0.9C213,57.1,213,65.8,213,65.8z"/>
			<path class="st10" d="M221.5,61.4c0,1.4-0.4,2.5-1.2,3.3s-1.9,1.1-3.3,1.1h-2.4v-8.6h2.6c1.3,0,2.4,0.4,3.1,1.1
				S221.5,60,221.5,61.4z M220.5,61.4c0-1.1-0.3-2-0.8-2.5s-1.4-0.9-2.5-0.9h-1.5v6.9h1.2c1.2,0,2.1-0.3,2.7-0.9
				C220.2,63.4,220.5,62.6,220.5,61.4z"/>
		</g>
		<g>
			<g>
				<path class="st10" d="M257,83.2v3.3H256v-8h2.2c1,0,1.7,0.2,2.2,0.6c0.5,0.4,0.7,0.9,0.7,1.7c0,1.1-0.5,1.8-1.6,2.2l2.2,3.6
					h-1.1l-1.9-3.3L257,83.2L257,83.2z M257,82.4h1.3c0.7,0,1.1-0.1,1.5-0.4s0.5-0.7,0.5-1.2c0-0.5-0.2-0.9-0.5-1.1
					s-0.8-0.4-1.5-0.4H257V82.4z"/>
				<path class="st10" d="M268.1,84.4c0,0.7-0.3,1.3-0.8,1.7c-0.5,0.4-1.2,0.6-2.1,0.6c-1,0-1.7-0.1-2.2-0.4v-0.9
					c0.3,0.1,0.7,0.2,1.1,0.3c0.4,0.1,0.8,0.1,1.2,0.1c0.6,0,1.1-0.1,1.4-0.4c0.3-0.2,0.5-0.6,0.5-1c0-0.3-0.1-0.5-0.2-0.7
					c-0.1-0.2-0.3-0.3-0.6-0.5s-0.7-0.3-1.2-0.5c-0.7-0.3-1.3-0.6-1.6-1c-0.3-0.4-0.5-0.8-0.5-1.4c0-0.6,0.2-1.1,0.7-1.5
					c0.5-0.4,1.1-0.6,1.8-0.6c0.8,0,1.5,0.1,2.2,0.4l-0.3,0.8c-0.7-0.3-1.3-0.4-1.9-0.4c-0.5,0-0.9,0.1-1.2,0.3
					c-0.3,0.2-0.4,0.5-0.4,0.9c0,0.3,0.1,0.5,0.2,0.7c0.1,0.2,0.3,0.3,0.5,0.5c0.2,0.1,0.6,0.3,1.1,0.5c0.8,0.3,1.4,0.6,1.7,1
					C268,83.4,268.1,83.9,268.1,84.4z"/>
				<path class="st10" d="M275.4,84.7h-1.2v1.8h-0.9v-1.8h-3.9v-0.8l3.8-5.4h1v5.4h1.2V84.7z M273.4,83.9v-2.7c0-0.5,0-1.1,0.1-1.8
					h0c-0.2,0.4-0.3,0.6-0.5,0.9l-2.5,3.6H273.4z"/>
				<path class="st10" d="M279.4,78.4c0.7,0,1.3,0.2,1.7,0.5c0.4,0.3,0.6,0.8,0.6,1.4c0,0.4-0.1,0.8-0.4,1.1s-0.6,0.6-1.2,0.9
					c0.7,0.3,1.1,0.6,1.4,1c0.3,0.3,0.4,0.7,0.4,1.2c0,0.7-0.2,1.2-0.7,1.6c-0.5,0.4-1.1,0.6-1.9,0.6c-0.9,0-1.5-0.2-2-0.6
					c-0.5-0.4-0.7-0.9-0.7-1.6c0-0.9,0.6-1.6,1.7-2.2c-0.5-0.3-0.9-0.6-1.1-0.9c-0.2-0.3-0.3-0.7-0.3-1.1c0-0.6,0.2-1,0.6-1.4
					C278.1,78.6,278.7,78.4,279.4,78.4z M277.7,84.5c0,0.4,0.2,0.8,0.5,1c0.3,0.2,0.7,0.4,1.3,0.4c0.5,0,1-0.1,1.3-0.4
					c0.3-0.3,0.5-0.6,0.5-1.1c0-0.4-0.1-0.7-0.4-0.9s-0.8-0.5-1.5-0.8c-0.5,0.2-0.9,0.5-1.2,0.8C277.8,83.8,277.7,84.1,277.7,84.5z
					 M279.4,79.1c-0.5,0-0.8,0.1-1.1,0.3c-0.3,0.2-0.4,0.5-0.4,0.9c0,0.3,0.1,0.6,0.3,0.9s0.6,0.5,1.2,0.7c0.5-0.2,0.9-0.5,1.1-0.7
					c0.2-0.3,0.3-0.5,0.3-0.9c0-0.4-0.1-0.7-0.4-0.9S279.9,79.1,279.4,79.1z"/>
				<path class="st10" d="M286.3,81.6c0.8,0,1.5,0.2,2,0.6c0.5,0.4,0.7,1,0.7,1.7c0,0.8-0.3,1.5-0.8,2s-1.3,0.7-2.2,0.7
					c-0.9,0-1.6-0.1-2.1-0.4v-0.9c0.3,0.2,0.6,0.3,1,0.4c0.4,0.1,0.8,0.1,1.1,0.1c0.6,0,1.1-0.2,1.5-0.5c0.4-0.3,0.5-0.7,0.5-1.3
					c0-1.1-0.7-1.7-2.1-1.7c-0.3,0-0.8,0.1-1.4,0.2l-0.5-0.3l0.3-3.8h4v0.8h-3.2l-0.2,2.4C285.5,81.7,285.9,81.6,286.3,81.6z"/>
			</g>
			<g>
				<polygon class="st16" points="246.8,76.5 248.3,69.2 251.6,69.2 253.1,73.6 256.4,69.2 259.8,69.2 258.3,76.5 256.2,76.5 
					257.2,71.3 253.4,76.5 251.8,76.5 249.9,71.3 248.9,76.5 				"/>
				<path class="st16" d="M266.5,71.7c-0.3-0.3-1.3-0.4-2.5-0.4c-1.8,0-2.8,0.3-3.3,0.8s-0.8,2.6-0.8,2.9c0,0.2-0.1,0.8,0.3,1.2
					s1.4,0.4,2.9,0.4s2.3-0.3,2.9-0.6c0.6-0.4,0.9-2.4,1-3C267,72.4,266.8,71.9,266.5,71.7 M265.1,74c-0.2,0.5-0.2,0.8-0.4,0.9
					s-1.1,0.2-1.3,0.2s-1.2,0-1.4-0.2s0.1-1.8,0.4-1.9s0.9-0.2,1.4-0.2c0.7,0,1.2,0,1.3,0.2C265.1,73.1,265.2,73.4,265.1,74"/>
				<path class="st16" d="M273.7,69.2l-0.6,2.9c-0.3-0.6-0.8-0.8-1.9-0.8c-1.8,0-2.2,0.3-2.7,0.8s-0.8,2.6-0.8,2.9
					c0,0.2-0.1,0.8,0.3,1.2s0.7,0.4,2.2,0.4c1.4,0,1.9-0.5,2.2-0.8l-0.1,0.7h1.8l1.4-7.3C275.5,69.2,273.7,69.2,273.7,69.2z
					 M272.3,74.9c-0.2,0.1-1.1,0.2-1.4,0.2s-1.2,0-1.4-0.2s0.1-1.8,0.4-1.9s0.9-0.2,1.4-0.2c0.7,0,1.2,0,1.4,0.2
					c0.1,0.1,0.2,0.3,0.1,0.5l-0.1,0.6C272.6,74.6,272.5,74.8,272.3,74.9"/>
				<path class="st16" d="M282.3,71.6c-0.2-0.2-0.8-0.3-1.9-0.3c-1.4,0-1.9,0.3-2.4,0.9l0.6-2.9h-1.8l-1.5,7.3h1.8l0.1-0.7
					c0.2,0.5,0.5,0.8,2.1,0.8c1.5,0,1.9-0.1,2.4-0.6c0.5-0.5,0.9-2.4,1-3C282.8,72.4,282.7,71.9,282.3,71.6 M280.9,74
					c-0.2,0.5-0.2,0.8-0.4,0.9s-1.1,0.2-1.3,0.2s-1.2,0-1.4-0.2s0.1-1.8,0.4-1.9s0.9-0.2,1.4-0.2c0.7,0,1.2,0,1.3,0.2
					C281,73.1,281,73.4,280.9,74"/>
				<path class="st16" d="M288.9,71.3L288.9,71.3c-0.1,0-0.6,2.9-1,3.3s-1.1,0.5-1.3,0.5c-0.2,0-0.8-0.1-1.1-0.3
					c-0.3-0.3,0.3-3,0.4-3.5h-1.8c0,0-0.7,3.3-0.7,3.8c0,0.4,0,1.2,1.2,1.4c0.3,0.1,0.6,0.1,1,0.1c0.3,0,0.6,0,0.8-0.1
					c0.9-0.2,1.4-0.7,1.7-1.1l-0.2,1.1h1.7l1-5.2L288.9,71.3L288.9,71.3L288.9,71.3z"/>
				<path class="st16" d="M296.1,72.9h1.7c0,0,0-0.4,0-0.6c0-0.2,0-0.4-0.3-0.8s-2.3-0.3-2.6-0.3s-2.1,0-2.5,0.4
					c-0.4,0.3-0.8,0.8-0.8,1.6c0,0.9,0.6,1.2,1.7,1.2h2c0.3,0,0.6,0.1,0.6,0.3s-0.2,0.6-0.9,0.6h-1.3c-0.3,0-0.9-0.1-0.9-0.4v-0.2
					h-1.7c0,0-0.1,0.3-0.1,0.5s0,0.6,0.3,0.8c0.3,0.3,1.5,0.4,2.7,0.4s2.5-0.1,2.9-0.5c0.4-0.4,0.6-1.3,0.6-1.7s-0.1-0.6-0.3-0.8
					c-0.1-0.1-0.5-0.4-2.4-0.4c-1.6,0-1.7-0.2-1.7-0.3c0-0.1,0-0.4,1.3-0.4C295.9,72.5,296.1,72.5,296.1,72.9"/>
			</g>
		</g>
		<g>
			<path class="st17" d="M224.9,57.1h2.4c1.1,0,2,0.2,2.5,0.5c0.5,0.3,0.8,0.9,0.8,1.6c0,0.5-0.1,0.9-0.4,1.3s-0.7,0.5-1.2,0.6v0.1
				c1.3,0.2,2,0.9,2,2.1c0,0.8-0.3,1.4-0.8,1.8c-0.5,0.4-1.2,0.6-2.2,0.6h-3C224.9,65.8,224.9,57.1,224.9,57.1z M225.9,60.8h1.7
				c0.7,0,1.2-0.1,1.5-0.3c0.3-0.2,0.5-0.6,0.5-1.1c0-0.5-0.2-0.8-0.5-1c-0.3-0.2-0.9-0.3-1.7-0.3h-1.5
				C225.9,58,225.9,60.8,225.9,60.8z M225.9,61.7v3.2h1.8c0.7,0,1.2-0.1,1.6-0.4c0.4-0.3,0.5-0.7,0.5-1.3c0-0.5-0.2-0.9-0.5-1.2
				c-0.4-0.3-0.9-0.4-1.6-0.4L225.9,61.7L225.9,61.7z"/>
			<path class="st17" d="M232.1,61.5c0-1,0.2-2,0.5-2.9c0.3-0.9,0.7-1.7,1.3-2.4h1c-0.6,0.8-1,1.6-1.3,2.5c-0.3,0.9-0.4,1.8-0.4,2.8
				c0,0.9,0.1,1.9,0.4,2.8c0.3,0.9,0.7,1.7,1.3,2.5h-0.9c-0.6-0.7-1-1.4-1.3-2.3C232.2,63.4,232.1,62.5,232.1,61.5z"/>
			<path class="st17" d="M238.4,61.1h2.4v0.8h-2.4v2.5h-0.8v-2.5h-2.4v-0.8h2.4v-2.5h0.8V61.1z"/>
			<path class="st17" d="M244,61.5c0,1-0.2,2-0.5,2.9c-0.3,0.9-0.7,1.7-1.3,2.3h-0.9c0.5-0.7,1-1.6,1.3-2.5s0.4-1.8,0.4-2.8
				c0-1-0.1-1.9-0.4-2.8c-0.3-0.9-0.7-1.7-1.3-2.5h1c0.6,0.7,1,1.5,1.3,2.4C243.8,59.5,244,60.4,244,61.5z"/>
		</g>
		<g>
			<path class="st17" d="M181.1,65.8L180,63h-3.5l-1.1,2.7h-1l3.4-8.7h0.8l3.4,8.7H181.1z M179.7,62.1l-1-2.7
				c-0.1-0.3-0.3-0.8-0.4-1.2c-0.1,0.4-0.2,0.8-0.4,1.2l-1,2.7H179.7z"/>
			<path class="st17" d="M182.6,61.5c0-1,0.2-2,0.5-2.9c0.3-0.9,0.7-1.7,1.3-2.4h1c-0.6,0.8-1,1.6-1.3,2.5c-0.3,0.9-0.4,1.8-0.4,2.8
				c0,0.9,0.1,1.9,0.4,2.8c0.3,0.9,0.7,1.7,1.3,2.5h-0.9c-0.6-0.7-1-1.4-1.3-2.3C182.7,63.4,182.6,62.5,182.6,61.5z"/>
			<path class="st17" d="M185.7,61.9v-0.8h5.7v0.8H185.7z"/>
			<path class="st17" d="M194.5,61.5c0,1-0.2,2-0.5,2.9c-0.3,0.9-0.7,1.7-1.3,2.3h-0.9c0.5-0.7,1-1.6,1.3-2.5s0.4-1.8,0.4-2.8
				c0-1-0.1-1.9-0.4-2.8c-0.3-0.9-0.7-1.7-1.3-2.5h1c0.6,0.7,1,1.5,1.3,2.4C194.3,59.5,194.5,60.4,194.5,61.5z"/>
		</g>
	</g>
	<g id="Branding">
		<g>
			<path class="st10" d="M166.1,150.3c0.1-5.1,4.2-9.1,9.3-9.1c5.1,0,9.3,4.2,9.3,9.3c0,5.1-4.2,9.2-9.3,9.2c-5.1,0-9.3-4.1-9.4-9.2
				h-2.4c0,6.5,5.3,11.8,11.8,11.8c6.5,0,11.9-5.3,11.9-11.8c0-6.5-5.4-11.7-11.9-11.7c-6.5,0-11.7,5.2-11.8,11.7h2.5V150.3
				L166.1,150.3z"/>
			<path class="st18" d="M213.5,152.5c0.3,0,0.8,0.1,1,0.2c0.2,0.1,0.3,0.2,0.4,0.3c0.1,0.1,0.2,0.3,0.3,0.4
				c0.1,0.1,0.2,0.7,0.2,0.7v4.6h4.4v-6.3c0,0,0-0.4-0.1-0.9c-0.1-0.3-0.2-0.6-0.4-0.8c-0.1-0.2-0.3-0.4-0.4-0.5
				c-0.3-0.3-0.5-0.5-0.9-0.6c-0.5-0.2-1.4-0.4-2-0.4c-3.3-0.2-5,1.1-5,1.1v-1h-4.5v9.5h4.5v-4.3c0,0,0.1-0.3,0.1-0.4
				C211.1,153.8,212,152.4,213.5,152.5L213.5,152.5L213.5,152.5z"/>
			<polygon class="st10" points="234.8,158.6 230.4,158.6 230.4,145.8 234.8,145.8 234.8,158.6 			"/>
			<path class="st10" d="M251.4,149.1h4.3l0,0.8c0,0,1.8-1.5,4.6-0.9c3,0.7,2.4,4.8,2.4,4.8h-4.5c0,0,0-0.3,0-0.6
				c-0.1-0.5-0.3-1.2-1.4-1.1c-1.1,0.2-1.1,1.2-1.1,1.2v5.3h-4.2L251.4,149.1L251.4,149.1L251.4,149.1z"/>
			<path class="st10" d="M230.4,153.4l0.4-3.6c-0.4-0.4-1-0.7-1.8-0.9c-0.8-0.3-2-0.2-2.7-0.2c-2.8,0-5.2,2.3-5.2,5.1
				c0,2.7,2.3,5,5,5c0.7,0,1.9,0,2.6-0.1c1.6-0.4,2.4-1.1,2.9-2.2l-1.3-2.6c-0.1,1-1.1,1.8-2.4,1.8c-1.3,0-2.4-0.9-2.4-1.9
				c0-1.1,1.1-1.9,2.4-1.9C229.2,151.6,230.2,152.4,230.4,153.4L230.4,153.4L230.4,153.4z"/>
			<path class="st10" d="M237.6,150.1c0.9-1,3-1.6,5.5-1.6c2.3,0,4.2,0.5,5.2,1.4c1.2,0.9,2,2.3,2,3.9c0,0.4,0,0.4-0.1,0.8
				c0,0-5.3,0-7.8,0v-2.1c1.2,0,3.3,0,3.2,0c0-0.6-0.8-1.7-2.3-1.7c-1.3-0.2-2.5,1-2.5,1.7h2v2.1c-0.5,0-2,0-2,0
				c0.1,1.1,1.6,1.8,2.7,1.8c0.7,0,1.5-0.2,2.1-0.8h4.4c-0.2,0.5-0.2,0.8-0.6,1.2c-0.9,1.4-3.5,2.2-6.2,2.2c-1.9,0-3.6-0.4-4.7-1.1
				c0,0-2.3-1.5-2.3-4.2C236,152.3,236.6,151,237.6,150.1L237.6,150.1L237.6,150.1L237.6,150.1z"/>
			<path class="st10" d="M198.1,148v-2.2c0,0-2.5,0-3.7,0s-2.2,1-2.2,2.2v1h-1.3l0,2.7h1.3v6.8h4.5v-6.8h1.5V149h-1.6
				c0-0.6,0.2-1,0.8-1C197.7,148,198.1,148,198.1,148L198.1,148z"/>
			<polygon class="st10" points="199.8,158.6 199.8,149 204.3,149 204.3,158.6 199.8,158.6 			"/>
			<polygon class="st10" points="199.8,148 199.8,145.8 204.3,145.8 204.3,148 199.8,148 			"/>
			<path class="st10" d="M176.2,140.5v15l-3.5-3.8c0.4,0.1,0.7,0,1-0.3c0.3-0.3,0.3-0.5,0.3-0.9v-9.6l-2.3,0.7v7.8h-7.1v2.4h4.5
				l5.8,5.6c0.9,1,1.6,1.6,2.6,1.1c0.6-0.3,0.9-0.7,1-1.4V149h2.7c0.6,0,1-0.5,1.1-1.1c0.1-0.7-0.4-1.2-1.1-1.3h-2.7v-5.2
				L176.2,140.5L176.2,140.5L176.2,140.5z"/>
		</g>
		<g>
			<g>
				<g>
					<path class="st10" d="M203,174.2c-0.7,0-1.3,0-2,0.1c-5.5,0.8-9.2,4.8-11.3,7.8c-2.1-3-5.8-7-11.3-7.8c-0.7-0.1-1.3-0.1-2-0.1
						c-7.1,0-12.9,5.6-12.9,12.4c0,6.8,5.8,12.4,12.9,12.4c0.7,0,1.3,0,2-0.1c5.5-0.8,9.2-4.8,11.3-7.8c2.1,3,5.8,7,11.3,7.8
						c0.7,0.1,1.3,0.1,2,0.1c7.1,0,12.9-5.6,12.9-12.4C215.9,179.8,210.1,174.2,203,174.2z M177.8,194.6c-0.5,0.1-0.9,0.1-1.4,0.1
						c-4.7,0-8.5-3.6-8.5-8c0-4.4,3.8-8,8.5-8c0.4,0,0.9,0,1.4,0.1c5.2,0.7,8.4,5.9,9.5,7.9C186.2,188.7,183,193.8,177.8,194.6
						L177.8,194.6z M203,194.7c-0.4,0-0.9,0-1.4-0.1c-5.2-0.7-8.4-5.9-9.5-7.9c1.1-2.1,4.3-7.2,9.5-7.9c0.5-0.1,0.9-0.1,1.4-0.1
						c4.7,0,8.5,3.6,8.5,8C211.5,191.1,207.7,194.7,203,194.7z"/>
					<rect x="172.9" y="185.4" class="st10" width="7.7" height="2.5"/>
					<polygon class="st10" points="203.8,187.9 206.4,187.9 206.4,185.4 203.8,185.4 203.8,182.8 201.3,182.8 201.3,185.4 
						198.7,185.4 198.7,187.9 201.3,187.9 201.3,190.5 203.8,190.5 					"/>
					<path class="st10" d="M215.8,175c-0.1-0.2-0.2-0.3-0.3-0.4c-0.1-0.1-0.3-0.2-0.4-0.3c-0.2-0.1-0.3-0.1-0.5-0.1
						c-0.2,0-0.4,0-0.5,0.1c-0.2,0.1-0.3,0.2-0.4,0.3c-0.1,0.1-0.2,0.3-0.3,0.4c-0.1,0.2-0.1,0.4-0.1,0.6c0,0.2,0,0.4,0.1,0.5
						c0.1,0.2,0.2,0.3,0.3,0.4c0.1,0.1,0.3,0.2,0.4,0.3c0.2,0.1,0.3,0.1,0.5,0.1c0.2,0,0.4,0,0.5-0.1c0.2-0.1,0.3-0.2,0.4-0.3
						c0.1-0.1,0.2-0.3,0.3-0.4c0.1-0.2,0.1-0.4,0.1-0.5C215.9,175.3,215.9,175.1,215.8,175z M215.5,175.9c-0.1,0.1-0.1,0.2-0.2,0.3
						c-0.1,0.1-0.2,0.2-0.3,0.2c-0.1,0.1-0.3,0.1-0.4,0.1c-0.1,0-0.3,0-0.4-0.1s-0.2-0.1-0.3-0.2c-0.1-0.1-0.2-0.2-0.2-0.3
						c-0.1-0.1-0.1-0.3-0.1-0.4c0-0.2,0-0.3,0.1-0.4c0.1-0.1,0.1-0.2,0.2-0.3c0.1-0.1,0.2-0.2,0.3-0.2c0.1-0.1,0.3-0.1,0.4-0.1
						c0.1,0,0.3,0,0.4,0.1c0.1,0.1,0.2,0.1,0.3,0.2c0.1,0.1,0.2,0.2,0.2,0.3c0.1,0.1,0.1,0.3,0.1,0.4
						C215.6,175.7,215.6,175.8,215.5,175.9z"/>
					<path class="st10" d="M214.9,175.7c0.1,0,0.1-0.1,0.2-0.2c0-0.1,0.1-0.1,0.1-0.2c0-0.1,0-0.2-0.1-0.3c-0.1-0.1-0.2-0.1-0.5-0.1
						c-0.1,0-0.2,0-0.2,0c-0.1,0-0.1,0-0.2,0v1.4h0.3v-0.5h0.1l0.2,0.5h0.4L214.9,175.7L214.9,175.7z M214.5,175.5c0,0-0.1,0-0.1,0
						v-0.4c0,0,0.1,0,0.1,0c0.1,0,0.2,0.1,0.2,0.2S214.7,175.5,214.5,175.5z"/>
				</g>
				<g>
					<path class="st10" d="M169.3,202.7h-2l-2.3,7.3h1.9l0.4-1.5h2.1l0.4,1.5h1.9L169.3,202.7L169.3,202.7z M167.5,207.1l0.7-2.7
						l0.7,2.7H167.5z"/>
					<path class="st10" d="M177.1,207.4c0.8-0.4,1.2-1.2,1.2-2.2c0-1.4-0.8-2.5-2.8-2.5h-3v7.3h1.8v-2.3h0.9l1.1,2.3h2.1
						L177.1,207.4L177.1,207.4z M175.4,206.3h-1v-2.1h0.9c0.8,0,1.1,0.3,1.1,1C176.4,206,176,206.3,175.4,206.3z"/>
					<path class="st10" d="M182.1,202.7h-2.4v7.3h2.4c3.1,0,3.6-2,3.6-3.7C185.7,204,184.8,202.7,182.1,202.7L182.1,202.7z
						 M182.2,208.5h-0.7v-4.4h0.5c1.6,0,1.8,0.8,1.8,2.2C183.8,207.6,183.7,208.5,182.2,208.5L182.2,208.5z"/>
					<path class="st10" d="M190.9,202.7v4.5c0,1.1-0.3,1.5-1.1,1.5c-0.7,0-1.1-0.3-1.1-1.5v-4.5h-1.8v4.8c0,2.2,1.6,2.6,2.9,2.6
						c1.3,0,3-0.5,3-2.6v-4.8L190.9,202.7L190.9,202.7z"/>
					<path class="st10" d="M199.8,204.2v-1.5h-5.6v1.5h1.9v4.3h-1.9v1.5h5.6v-1.5h-1.9v-4.3H199.8z"/>
					<path class="st10" d="M205.5,202.7v4.4l-2.4-4.4h-2v7.3h1.7l0-4.7l2.5,4.7h1.8v-7.3H205.5L205.5,202.7z"/>
					<path class="st10" d="M211.3,202.6c-2.2,0-3.1,1.6-3.1,3.9c0,2.4,1,3.7,3.1,3.7c2.4,0,3.1-1.7,3.1-3.8
						C214.5,203.6,213.4,202.6,211.3,202.6L211.3,202.6z M211.3,208.7c-1,0-1.2-0.7-1.2-2.2c0-1.8,0.2-2.4,1.1-2.4
						c1.1,0,1.2,0.5,1.2,2.3C212.5,208.1,212.4,208.7,211.3,208.7z"/>
				</g>
			</g>
			<path class="st19" d="M223.6,178.9v15.4H258v-15.4H223.6z"/>
			<path class="st10" d="M232.7,182.8h-3v7.5h1.9v-2.2h1c2,0,3-1.1,3-2.7C235.6,183.9,234.8,182.8,232.7,182.8L232.7,182.8z
				 M232.5,186.5h-1v-2.2h0.9c1,0,1.1,0.5,1.1,1.1C233.6,186.2,233.3,186.5,232.5,186.5L232.5,186.5z M242.3,187.5
				c0.8-0.4,1.2-1.2,1.2-2.2c0-1.5-0.8-2.5-2.9-2.5h-3v7.5h1.9v-2.4h0.9l1.1,2.4h2.2L242.3,187.5z M240.5,186.4h-1v-2.1h1
				c0.9,0,1.1,0.3,1.1,1C241.6,186.1,241.1,186.4,240.5,186.4L240.5,186.4z M248.6,182.7c-2.3,0-3.2,1.7-3.2,3.9
				c0,2.5,1,3.8,3.2,3.8c2.4,0,3.2-1.7,3.2-3.9C251.8,183.7,250.8,182.7,248.6,182.7z M248.6,188.9c-1.1,0-1.2-0.8-1.2-2.3
				c0-1.8,0.2-2.4,1.2-2.4c1.1,0,1.2,0.5,1.2,2.4C249.9,188.3,249.7,188.9,248.6,188.9z"/>
			<g>
				<path class="st10" d="M261.1,179.1h-0.5v1.4h-0.3v-1.4h-0.5v-0.3h1.4V179.1z"/>
				<path class="st10" d="M262.4,179.4l-0.3,0.6h-0.2l-0.3-0.6v1.2h-0.3v-1.7h0.3l0.4,0.8l0.4-0.8h0.3v1.7h-0.3L262.4,179.4
					L262.4,179.4z"/>
			</g>
		</g>
		<g>
			<rect x="31.3" y="188.8" class="st20" width="73.9" height="28.2"/>
			<g>
				<path class="st17" d="M54.3,203.1c0,2.5-0.6,4.4-1.9,5.8s-3,2-5.3,2c-2.3,0-4.1-0.7-5.4-2s-1.9-3.3-1.9-5.8s0.6-4.4,1.9-5.8
					c1.2-1.3,3-2,5.4-2c2.3,0,4.1,0.7,5.3,2S54.3,200.6,54.3,203.1L54.3,203.1z M43.2,203.1c0,1.7,0.3,3,1,3.8
					c0.6,0.9,1.6,1.3,2.9,1.3c2.6,0,3.8-1.7,3.8-5.1c0-3.4-1.3-5.1-3.8-5.1c-1.3,0-2.2,0.4-2.9,1.3
					C43.6,200.1,43.2,201.4,43.2,203.1z"/>
				<path class="st17" d="M67.9,200.3c0,1.6-0.5,2.9-1.5,3.7c-1,0.9-2.5,1.3-4.3,1.3h-1.4v5.4h-3.2v-15.2h4.8c1.8,0,3.2,0.4,4.2,1.2
					C67.4,197.5,67.9,198.7,67.9,200.3z M60.6,202.7h1.1c1,0,1.7-0.2,2.2-0.6c0.5-0.4,0.7-1,0.7-1.7c0-0.8-0.2-1.3-0.6-1.7
					c-0.4-0.4-1.1-0.5-1.9-0.5h-1.5C60.6,198.2,60.6,202.7,60.6,202.7z"/>
				<path class="st17" d="M76.6,210.7h-3.2v-12.5h-4.1v-2.7h11.4v2.7h-4.1C76.6,198.2,76.6,210.7,76.6,210.7z"/>
				<path class="st17" d="M92.3,210.7l-1.1-3.6h-5.5l-1.1,3.6h-3.5l5.4-15.2h3.9l5.4,15.2H92.3z M90.5,204.4c-1-3.3-1.6-5.1-1.7-5.5
					c-0.1-0.4-0.2-0.8-0.3-1c-0.2,0.9-0.9,3.1-2,6.6H90.5z"/>
			</g>
		</g>
		<g>
			<path class="st10" d="M309.9,163.5l2.6-1v-3.2l-2.6-1v-0.9l8.1,3.2v0.8l-8.1,3.2V163.5z M313.3,162.3l2.5-0.9
				c0.3-0.1,0.7-0.2,1.2-0.4c-0.4-0.1-0.7-0.2-1.2-0.3l-2.5-0.9V162.3z"/>
			<path class="st10" d="M309.9,167.1v-0.9h8v4.5h-0.8v-3.5h-2.9v3.3h-0.8v-3.3H309.9z"/>
			<path class="st10" d="M309.9,177.9v-1.1l3.5-2.2l-3.5-2.2v-1l4.2,2.7l3.8-2.5v1l-3.2,2l3.2,2v1l-3.8-2.5L309.9,177.9z"/>
			<path class="st10" d="M313.9,184.4c-1.4,0-2.4-0.2-3.1-0.7c-0.7-0.4-1-1.1-1-2c0-0.9,0.4-1.5,1.1-2c0.7-0.5,1.7-0.7,3.1-0.7
				c1.4,0,2.4,0.2,3.1,0.7c0.7,0.4,1,1.1,1,2c0,0.9-0.4,1.5-1.1,2C316.3,184.2,315.2,184.4,313.9,184.4z M313.9,180
				c-1.2,0-2,0.1-2.6,0.4c-0.5,0.3-0.8,0.7-0.8,1.3c0,0.6,0.3,1,0.8,1.3c0.5,0.3,1.4,0.4,2.5,0.4c1.2,0,2-0.1,2.5-0.4
				c0.5-0.3,0.8-0.7,0.8-1.3c0-0.6-0.3-1-0.8-1.3C315.9,180.1,315.1,180,313.9,180z"/>
			<path class="st10" d="M313.9,191.4c-1.4,0-2.4-0.2-3.1-0.7c-0.7-0.4-1-1.1-1-2c0-0.9,0.4-1.5,1.1-2c0.7-0.5,1.7-0.7,3.1-0.7
				c1.4,0,2.4,0.2,3.1,0.7c0.7,0.4,1,1.1,1,2c0,0.9-0.4,1.5-1.1,2C316.3,191.2,315.2,191.4,313.9,191.4z M313.9,187
				c-1.2,0-2,0.1-2.6,0.4c-0.5,0.3-0.8,0.7-0.8,1.3c0,0.6,0.3,1,0.8,1.3c0.5,0.3,1.4,0.4,2.5,0.4c1.2,0,2-0.1,2.5-0.4
				c0.5-0.3,0.8-0.7,0.8-1.3c0-0.6-0.3-1-0.8-1.3C315.9,187.2,315.1,187,313.9,187z"/>
			<path class="st10" d="M313.9,198.4c-1.4,0-2.4-0.2-3.1-0.7c-0.7-0.4-1-1.1-1-2c0-0.9,0.4-1.5,1.1-2c0.7-0.5,1.7-0.7,3.1-0.7
				c1.4,0,2.4,0.2,3.1,0.7c0.7,0.4,1,1.1,1,2c0,0.9-0.4,1.5-1.1,2C316.3,198.2,315.2,198.4,313.9,198.4z M313.9,194
				c-1.2,0-2,0.1-2.6,0.4c-0.5,0.3-0.8,0.7-0.8,1.3c0,0.6,0.3,1,0.8,1.3c0.5,0.3,1.4,0.4,2.5,0.4c1.2,0,2-0.1,2.5-0.4
				c0.5-0.3,0.8-0.7,0.8-1.3c0-0.6-0.3-1-0.8-1.3C315.9,194.2,315.1,194,313.9,194z"/>
			<path class="st10" d="M313.9,205.4c-1.4,0-2.4-0.2-3.1-0.7c-0.7-0.4-1-1.1-1-2c0-0.9,0.4-1.5,1.1-2c0.7-0.5,1.7-0.7,3.1-0.7
				c1.4,0,2.4,0.2,3.1,0.7c0.7,0.4,1,1.1,1,2c0,0.9-0.4,1.5-1.1,2C316.3,205.2,315.2,205.4,313.9,205.4z M313.9,201
				c-1.2,0-2,0.1-2.6,0.4c-0.5,0.3-0.8,0.7-0.8,1.3c0,0.6,0.3,1,0.8,1.3c0.5,0.3,1.4,0.4,2.5,0.4c1.2,0,2-0.1,2.5-0.4
				c0.5-0.3,0.8-0.7,0.8-1.3c0-0.6-0.3-1-0.8-1.3C315.9,201.2,315.1,201,313.9,201z"/>
			<path class="st10" d="M309.9,212.4v-5.3h0.8l2.1,2.1c0.7,0.6,1.1,1.1,1.4,1.3s0.6,0.4,0.8,0.5c0.3,0.1,0.5,0.2,0.9,0.2
				c0.4,0,0.8-0.1,1-0.4c0.3-0.3,0.4-0.6,0.4-1.1c0-0.3-0.1-0.6-0.2-0.9c-0.1-0.3-0.3-0.6-0.6-1l0.6-0.5c0.6,0.7,0.9,1.5,0.9,2.4
				c0,0.8-0.2,1.3-0.6,1.8c-0.4,0.4-0.9,0.6-1.6,0.6c-0.5,0-1-0.1-1.5-0.4c-0.5-0.3-1.1-0.8-1.9-1.6l-1.7-1.8h0v4.1H309.9z"/>
		</g>
	</g>
</g>
</svg>
