<svg xmlns="http://www.w3.org/2000/svg" width="70" height="95" fill="none" viewBox="0 0 70 95"><path fill="#bdc7c7" d="M15.37 94.59c-1.89 0-3.42-1.53-3.42-3.42V23.79c0-1.89 1.53-3.42 3.42-3.42s3.42 1.53 3.42 3.42v67.38c-.01 1.89-1.54 3.42-3.42 3.42M53.9 94.59c-1.89 0-3.42-1.53-3.42-3.42V23.79c0-1.89 1.53-3.42 3.42-3.42s3.42 1.53 3.42 3.42v67.38c0 1.89-1.53 3.42-3.42 3.42"/><path fill="#58595b" d="M63.63.01c3.11 0 5.65 2.54 5.65 5.64v57.97c0 3.11-2.54 5.65-5.65 5.65H5.65C2.54 69.27 0 66.73 0 63.62V5.65C0 2.54 2.53 0 5.65 0z"/><path fill="#171e21" d="M6.02 59.32a4.2 4.2 0 1 1 8.399-.001 4.2 4.2 0 0 1-8.399.001M6.12 10.07a4.2 4.2 0 1 1 4.2 4.2c-2.31-.01-4.2-1.89-4.2-4.2M55.39 10.17a4.2 4.2 0 1 1 8.399-.001 4.2 4.2 0 0 1-8.399.001M55.14 59.29a4.2 4.2 0 1 1 8.399-.001 4.2 4.2 0 0 1-8.399.001"/><path fill="#7f8c8d" d="M11.31 34.76c0-13.05 10.59-23.64 23.64-23.64 13.07 0 23.65 10.59 23.65 23.64 0 13.07-10.59 23.66-23.65 23.66-13.05-.01-23.64-10.6-23.64-23.66"/><path fill="#bdc7c7" d="M25.18 34.76c0-5.4 4.38-9.78 9.77-9.78 5.4 0 9.78 4.38 9.78 9.78s-4.38 9.78-9.78 9.78c-5.39 0-9.77-4.38-9.77-9.78"/></svg>