<svg xmlns="http://www.w3.org/2000/svg" id="Layer_2" data-name="Layer 2" viewBox="0 0 272.84 105.68"><defs><style>.cls-1{fill:#f6f7f7;stroke:#95a5a6;stroke-width:.71px}.cls-1,.cls-4{stroke-linecap:round;stroke-linejoin:round}.cls-10,.cls-11,.cls-6,.cls-7,.cls-8,.cls-9{stroke-width:0}.cls-4,.cls-6{fill:#2c353a}.cls-7{fill:#dbe1e1}.cls-8{fill:#bdc7c7}.cls-9{fill:#f1c40f}.cls-10{fill:#00979d}.cls-4{stroke:#2c353a;stroke-width:.71px}.cls-11{fill:#f26727}</style></defs><g id="Layer_1-2" data-name="Layer 1"><path d="m227.75.91-.08 4.55h-31.44c-.02-.1-.02-.08-.02 0H76.58c-.04-.07-.05-.06-.05 0H45.17L45.09.91z" class="cls-10"/><path d="M45.21 8.03V.91l-.12-.55H.36l1.56 91.3A2.277 2.277 0 0 0 4.2 93.9h264.46c1.24 0 2.26-1 2.28-2.24L272.5.36h-44.81v5.1" class="cls-1"/><path d="M148.64 95.69c-2.21 4.76-6.98 7.81-12.22 7.81s-10.02-3.05-12.22-7.81c.17.01.35.01.54.01h23.35c.19 0 .37 0 .55-.01" style="stroke:#95a5a6;stroke-width:.71px;stroke-linecap:round;stroke-linejoin:round;fill:#95a5a6"/><path d="M212.81 5.46v2.57H45.21l.49 28.21c0 .14 0 .28.01.42.5 13.32 11.36 23.75 24.66 23.82h132.09c13.32-.04 24.13-10.53 24.66-23.82 0-.14.01-.28.01-.42l.49-28.21.05-2.57zm-66.96 13.47v1.68c0 .15-.07.21-.22.21h-3.81c-.06 0-.1 0-.15-.06l-.04-.04c-.05-.05-.09-.07-.15-.07h-9.41c-.06 0-.1.02-.15.07l-.04.04c-.05.05-.09.06-.15.06h-3.81c-.15 0-.22-.06-.22-.21v-8.16c0-.15.07-.21.22-.21h3.81c.06 0 .1 0 .15.06l.04.04s.09.07.15.07h9.41c.06 0 .1-.02.15-.07l.04-.04c.05-.05.09-.06.15-.06h3.81c.15 0 .22.06.22.21v2.25" style="fill:#fefefe;stroke-width:0"/><path d="M212.81 5.46v2.57H45.21l.49 28.21c0 .14 0 .28.01.42.5 13.32 11.36 23.75 24.66 23.82h132.09c13.32-.04 24.13-10.53 24.66-23.82 0-.14.01-.28.01-.42l.49-28.21.05-2.57zm-66.96 13.47v1.68c0 .15-.07.21-.22.21h-3.81c-.06 0-.1 0-.15-.06l-.04-.04c-.05-.05-.09-.07-.15-.07h-9.41c-.06 0-.1.02-.15.07l-.04.04c-.05.05-.09.06-.15.06h-3.81c-.15 0-.22-.06-.22-.21v-8.16c0-.15.07-.21.22-.21h3.81c.06 0 .1 0 .15.06l.04.04s.09.07.15.07h9.41c.06 0 .1-.02.15-.07l.04-.04c.05-.05.09-.06.15-.06h3.81c.15 0 .22.06.22.21v2.25" style="stroke:#95a5a6;stroke-width:.71px;stroke-linecap:round;stroke-linejoin:round;fill:none"/><path d="M151.98 93.9c-.86 1.42-1.93 1.74-3.34 1.79-.18.01-.36.01-.55.01h-23.35c-.19 0-.37 0-.54-.01-1.41-.05-2.49-.37-3.35-1.79z" class="cls-1"/><path d="M18.78 93.9v9.92c-6.39 2.01-12.04 2.01-18.43 0V10.85l.18-.06 1.42 80.88a2.264 2.264 0 0 0 2.26 2.23zM272.48 10.85v92.97c-6.39 2.01-12.04 2.01-18.43 0V93.9h14.57c1.23 0 2.24-.99 2.26-2.23l.32-18.22v-.07l1.1-62.59z" class="cls-4"/><path d="M35.01 36.69 34.38.35M202.4 71.5H70.44M236.16 46.97a35.28 35.28 0 0 1-25.12 23.5M238.46.35l-.63 36.34" class="cls-1"/><path d="M237.83 36.84c-.4 19.22-16.06 34.6-35.28 34.66M70.29 71.5c-19.22-.06-34.88-15.45-35.28-34.66" class="cls-1"/><path d="M185.04 38.89c4.28 4.31 11.26 4.31 15.56 0 4.29-4.26 4.29-11.23 0-15.55-4.33-4.29-11.28-4.29-15.56 0-4.3 4.32-4.33 11.25 0 15.55m2.26-7.76 5.51-5.48 5.5 5.48-5.5 5.52zM73.26 38.89c4.28 4.31 11.24 4.31 15.56 0 4.27-4.26 4.27-11.23 0-15.55-4.34-4.29-11.28-4.29-15.56 0-4.3 4.32-4.33 11.25 0 15.55m2.26-7.76 5.5-5.48 5.49 5.48-5.49 5.52zM147.9 31.14c.04 6.07-4.91 10.96-10.97 10.99-6.11-.02-11-4.93-11-11" class="cls-10"/><g id="LED"><path d="M121.66 20.55v-4.09h1.63v4.09z" class="cls-8"/><path d="M122.47 19.77c-.7 0-1.26-.56-1.26-1.26s.56-1.26 1.26-1.26 1.26.56 1.26 1.26c0 .69-.56 1.26-1.26 1.26" class="cls-9"/></g><g id="LED-2" data-name="LED"><path d="M149.01 20.56v-4.09h1.63v4.09z" class="cls-8"/><path d="M149.82 19.77c-.7 0-1.26-.56-1.26-1.26s.56-1.26 1.26-1.26 1.26.56 1.26 1.26c0 .69-.56 1.26-1.26 1.26" class="cls-9"/></g><g id="LED-3" data-name="LED"><path d="M151.84 20.55v-4.09h1.63v4.09z" class="cls-8"/><path d="M152.65 19.77c-.7 0-1.26-.56-1.26-1.26s.56-1.26 1.26-1.26 1.26.56 1.26 1.26c0 .69-.56 1.26-1.26 1.26" class="cls-9"/></g><path d="M144.37 26.24c-.24 0-.47.04-.68.13v-2.09c.21.08.44.13.68.13s.47-.04.68-.13v2.11c-.21-.09-.44-.13-.68-.13Z" class="cls-10"/><path d="M144.37 26.24c-.24 0-.47.04-.68.13v-2.09c.21.08.44.13.68.13s.47-.04.68-.13v2.11c-.21-.09-.44-.13-.68-.13Z" class="cls-11"/><path d="M144.37 26.24c-.24 0-.47.04-.68.13v-2.09c.21.08.44.13.68.13s.47-.04.68-.13v2.11c-.21-.09-.44-.13-.68-.13Z" class="cls-6"/><path d="M144.37 24.4c-.24 0-.47-.04-.68-.13v-.35h1.36v.34c-.21.09-.44.13-.68.13ZM145.06 26.7h-1.36v-.34c.21-.08.44-.13.68-.13s.47.04.68.13v.33Z" class="cls-7"/><path d="M149.82 13.16c-.24 0-.47.04-.68.13V11.2c.21.08.44.13.68.13s.47-.04.68-.13v2.11c-.21-.09-.44-.13-.68-.13Z" class="cls-10"/><path d="M149.82 13.16c-.24 0-.47.04-.68.13V11.2c.21.08.44.13.68.13s.47-.04.68-.13v2.11c-.21-.09-.44-.13-.68-.13Z" class="cls-11"/><path d="M149.82 13.16c-.24 0-.47.04-.68.13V11.2c.21.08.44.13.68.13s.47-.04.68-.13v2.11c-.21-.09-.44-.13-.68-.13Z" class="cls-6"/><path d="M149.82 11.32c-.24 0-.47-.04-.68-.13v-.35h1.36v.34c-.21.09-.44.13-.68.13ZM150.5 13.63h-1.36v-.34c.21-.08.44-.13.68-.13s.47.04.68.13v.33Z" class="cls-7"/><path d="M135.75 30.19c0-.24-.04-.47-.13-.68h2.09c-.08.21-.13.44-.13.68s.04.47.13.68h-2.11c.09-.21.13-.44.13-.68Z" class="cls-10"/><path d="M135.75 30.19c0-.24-.04-.47-.13-.68h2.09c-.08.21-.13.44-.13.68s.04.47.13.68h-2.11c.09-.21.13-.44.13-.68Z" class="cls-11"/><path d="M135.75 30.19c0-.24-.04-.47-.13-.68h2.09c-.08.21-.13.44-.13.68s.04.47.13.68h-2.11c.09-.21.13-.44.13-.68Z" class="cls-6"/><path d="M137.58 30.19c0-.24.04-.47.13-.68h.35v1.36h-.34c-.09-.21-.13-.44-.13-.68ZM135.28 30.88v-1.36h.34c.08.21.13.44.13.68s-.04.47-.13.68h-.33Z" class="cls-7"/><path d="M131.9 25.31c0-.24-.04-.47-.13-.68h2.09c-.08.21-.13.44-.13.68s.04.47.13.68h-2.11c.09-.21.13-.44.13-.68Z" class="cls-10"/><path d="M131.9 25.31c0-.24-.04-.47-.13-.68h2.09c-.08.21-.13.44-.13.68s.04.47.13.68h-2.11c.09-.21.13-.44.13-.68Z" class="cls-11"/><path d="M131.9 25.31c0-.24-.04-.47-.13-.68h2.09c-.08.21-.13.44-.13.68s.04.47.13.68h-2.11c.09-.21.13-.44.13-.68Z" class="cls-6"/><path d="M133.74 25.31c0-.24.04-.47.13-.68h.35v1.36h-.34c-.09-.21-.13-.44-.13-.68ZM131.43 26v-1.36h.34c.08.21.13.44.13.68s-.04.47-.13.68h-.33Z" class="cls-7"/><rect width="17.81" height="8.45" x="127.82" y="12.37" class="cls-10" rx=".52" ry=".52"/><rect width="17.81" height="8.45" x="127.82" y="12.37" class="cls-11" rx=".52" ry=".52"/><rect width="17.81" height="8.45" x="127.82" y="12.37" class="cls-6" rx=".52" ry=".52"/><path d="M142.01 15.67h2.11v2.23h-2.11zM130.94 15.86h1.76v1.85h-1.76z" class="cls-7"/></g></svg>