<svg xmlns="http://www.w3.org/2000/svg" width="86.403" height="86.4"><defs><clipPath id="a" clipPathUnits="userSpaceOnUse"><path d="M-74.675 64.258H38.71V-49.128H-74.675Z"/></clipPath><clipPath id="b" clipPathUnits="userSpaceOnUse"><path d="M-24.293 37.164H89.093V-76.222H-24.293Z"/></clipPath><clipPath id="c" clipPathUnits="userSpaceOnUse"><path d="M-27.887 36.402H85.499V-76.984H-27.887Z"/></clipPath><clipPath id="d" clipPathUnits="userSpaceOnUse"><path d="M-24.293 36.398H89.093V-76.988H-24.293Z"/></clipPath><clipPath id="e" clipPathUnits="userSpaceOnUse"><path d="M-24.293 44.367H89.093V-69.02H-24.293Z"/></clipPath><clipPath id="f" clipPathUnits="userSpaceOnUse"><path d="M-27.887 43.604H85.499V-69.782H-27.887Z"/></clipPath><clipPath id="g" clipPathUnits="userSpaceOnUse"><path d="M-24.293 43.6H89.093V-69.786H-24.293Z"/></clipPath><clipPath id="h" clipPathUnits="userSpaceOnUse"><path d="M-24.293 51.57H89.093V-61.816H-24.293Z"/></clipPath><clipPath id="i" clipPathUnits="userSpaceOnUse"><path d="M-27.887 50.807H85.499V-62.579H-27.887Z"/></clipPath><clipPath id="j" clipPathUnits="userSpaceOnUse"><path d="M-24.293 50.803H89.093V-62.583H-24.293Z"/></clipPath><clipPath id="k" clipPathUnits="userSpaceOnUse"><path d="M-24.293 58.772H89.093V-54.614H-24.293Z"/></clipPath><clipPath id="l" clipPathUnits="userSpaceOnUse"><path d="M-27.887 58.01H85.499V-55.376H-27.887Z"/></clipPath><clipPath id="m" clipPathUnits="userSpaceOnUse"><path d="M-24.293 58.006H89.093V-55.38H-24.293Z"/></clipPath><clipPath id="n" clipPathUnits="userSpaceOnUse"><path d="M-24.293 65.975H89.093V-47.41H-24.293Z"/></clipPath><clipPath id="o" clipPathUnits="userSpaceOnUse"><path d="M-27.887 65.213H85.499V-48.173H-27.887Z"/></clipPath><clipPath id="p" clipPathUnits="userSpaceOnUse"><path d="M-24.293 65.209H89.093V-48.177H-24.293Z"/></clipPath><clipPath id="q" clipPathUnits="userSpaceOnUse"><path d="M-24.293 73.178H89.093V-40.208H-24.293Z"/></clipPath><clipPath id="r" clipPathUnits="userSpaceOnUse"><path d="M-27.887 72.416H85.499V-40.97H-27.887Z"/></clipPath><clipPath id="s" clipPathUnits="userSpaceOnUse"><path d="M-24.293 72.412H89.093V-40.974H-24.293Z"/></clipPath><clipPath id="t" clipPathUnits="userSpaceOnUse"><path d="M-24.293 80.38H89.093V-33.004H-24.293Z"/></clipPath><clipPath id="u" clipPathUnits="userSpaceOnUse"><path d="M-27.887 79.618H85.499V-33.768H-27.887Z"/></clipPath><clipPath id="v" clipPathUnits="userSpaceOnUse"><path d="M-24.293 79.615H89.093V-33.771H-24.293Z"/></clipPath><clipPath id="w" clipPathUnits="userSpaceOnUse"><path d="M-24.293 87.584H89.093V-25.802H-24.293Z"/></clipPath><clipPath id="x" clipPathUnits="userSpaceOnUse"><path d="M-27.887 86.821H85.499V-26.565H-27.887Z"/></clipPath><clipPath id="y" clipPathUnits="userSpaceOnUse"><path d="M-24.293 86.817H89.093V-26.569H-24.293Z"/></clipPath><clipPath id="z" clipPathUnits="userSpaceOnUse"><path d="M-89.092 25.634H24.294V-87.752H-89.092Z"/></clipPath><clipPath id="A" clipPathUnits="userSpaceOnUse"><path d="M-85.498 26.396H27.888V-86.99H-85.498Z"/></clipPath><clipPath id="B" clipPathUnits="userSpaceOnUse"><path d="M-89.092 26.4H24.294V-86.986H-89.092Z"/></clipPath><clipPath id="C" clipPathUnits="userSpaceOnUse"><path d="M-89.092 32.82H24.294V-80.568H-89.092Z"/></clipPath><clipPath id="D" clipPathUnits="userSpaceOnUse"><path d="M-85.498 33.582H27.888V-79.804H-85.498Z"/></clipPath><clipPath id="E" clipPathUnits="userSpaceOnUse"><path d="M-89.092 33.586H24.294V-79.8H-89.092Z"/></clipPath><clipPath id="F" clipPathUnits="userSpaceOnUse"><path d="M-89.092 40.005H24.294V-73.381H-89.092Z"/></clipPath><clipPath id="G" clipPathUnits="userSpaceOnUse"><path d="M-85.498 40.767H27.888V-72.619H-85.498Z"/></clipPath><clipPath id="H" clipPathUnits="userSpaceOnUse"><path d="M-89.092 40.771H24.294V-72.615H-89.092Z"/></clipPath><clipPath id="I" clipPathUnits="userSpaceOnUse"><path d="M-89.092 47.19H24.294V-66.196H-89.092Z"/></clipPath><clipPath id="J" clipPathUnits="userSpaceOnUse"><path d="M-85.498 47.953H27.888V-65.433H-85.498Z"/></clipPath><clipPath id="K" clipPathUnits="userSpaceOnUse"><path d="M-89.092 47.957H24.294V-65.43H-89.092Z"/></clipPath><clipPath id="L" clipPathUnits="userSpaceOnUse"><path d="M-89.092 54.376H24.294V-59.01H-89.092Z"/></clipPath><clipPath id="M" clipPathUnits="userSpaceOnUse"><path d="M-85.498 55.138H27.888V-58.248H-85.498Z"/></clipPath><clipPath id="N" clipPathUnits="userSpaceOnUse"><path d="M-89.092 55.142H24.294V-58.244H-89.092Z"/></clipPath><clipPath id="O" clipPathUnits="userSpaceOnUse"><path d="M-89.092 61.561H24.294V-51.825H-89.092Z"/></clipPath><clipPath id="P" clipPathUnits="userSpaceOnUse"><path d="M-85.498 62.324H27.888V-51.062H-85.498Z"/></clipPath><clipPath id="Q" clipPathUnits="userSpaceOnUse"><path d="M-89.092 62.328H24.294V-51.058H-89.092Z"/></clipPath><clipPath id="R" clipPathUnits="userSpaceOnUse"><path d="M-89.092 68.747H24.294V-44.64H-89.092Z"/></clipPath><clipPath id="S" clipPathUnits="userSpaceOnUse"><path d="M-85.498 69.51H27.888V-43.878H-85.498Z"/></clipPath><clipPath id="T" clipPathUnits="userSpaceOnUse"><path d="M-89.092 69.513H24.294V-43.873H-89.092Z"/></clipPath><clipPath id="U" clipPathUnits="userSpaceOnUse"><path d="M-89.092 75.932H24.294V-37.454H-89.092Z"/></clipPath><clipPath id="V" clipPathUnits="userSpaceOnUse"><path d="M-85.498 76.695H27.888V-36.691H-85.498Z"/></clipPath><clipPath id="W" clipPathUnits="userSpaceOnUse"><path d="M-89.092 76.699H24.294V-36.687H-89.092Z"/></clipPath><clipPath id="X" clipPathUnits="userSpaceOnUse"><path d="M-89.092 83.118H24.294V-30.268H-89.092Z"/></clipPath><clipPath id="Y" clipPathUnits="userSpaceOnUse"><path d="M-85.498 83.88H27.888V-29.506H-85.498Z"/></clipPath><clipPath id="Z" clipPathUnits="userSpaceOnUse"><path d="M-89.092 83.884H24.294V-29.502H-89.092Z"/></clipPath><clipPath id="aa" clipPathUnits="userSpaceOnUse"><path d="M0 113.386h113.386V0H0Z"/></clipPath><clipPath id="ab" clipPathUnits="userSpaceOnUse"><path d="M-35.367 31.571H78.019V-81.815H-35.367Z"/></clipPath><clipPath id="ac" clipPathUnits="userSpaceOnUse"><path d="M0 113.386h113.386V0H0Z"/></clipPath><clipPath id="ad" clipPathUnits="userSpaceOnUse"><path d="M0 113.386h113.386V0H0Z"/></clipPath><clipPath id="ae" clipPathUnits="userSpaceOnUse"><path d="M0 113.386h113.386V0H0Z"/></clipPath><clipPath id="af" clipPathUnits="userSpaceOnUse"><path d="M0 113.386h113.386V0H0Z"/></clipPath><clipPath id="ag" clipPathUnits="userSpaceOnUse"><path d="M-29.618 27.348H83.768V-86.038H-29.618Z"/></clipPath><clipPath id="ah" clipPathUnits="userSpaceOnUse"><path d="M-27.98 28.5H85.406V-84.884H-27.98Z"/></clipPath><clipPath id="ai" clipPathUnits="userSpaceOnUse"><path d="M-27.658 27.348H85.728V-86.038H-27.658Z"/></clipPath><clipPath id="aj" clipPathUnits="userSpaceOnUse"><path d="M-27.98 28.996H85.406V-84.39H-27.98Z"/></clipPath><clipPath id="ak" clipPathUnits="userSpaceOnUse"><path d="M-27.658 30.148H85.728V-83.238H-27.658Z"/></clipPath><clipPath id="al" clipPathUnits="userSpaceOnUse"><path d="M-29.401 28.5H83.985V-84.884H-29.401Z"/></clipPath><clipPath id="am" clipPathUnits="userSpaceOnUse"><path d="M-29.723 27.348H83.663V-86.038H-29.723Z"/></clipPath><clipPath id="an" clipPathUnits="userSpaceOnUse"><path d="M-29.401 28.996H83.985V-84.39H-29.401Z"/></clipPath><clipPath id="ao" clipPathUnits="userSpaceOnUse"><path d="M-29.723 30.148H83.663V-83.238H-29.723Z"/></clipPath><clipPath id="ap" clipPathUnits="userSpaceOnUse"><path d="M0 113.386h113.386V0H0Z"/></clipPath><clipPath id="aq" clipPathUnits="userSpaceOnUse"><path d="M-80.544 66.175H32.842V-47.211H-80.544Z"/></clipPath><clipPath id="ar" clipPathUnits="userSpaceOnUse"><path d="M-80.544 69.134H32.842V-44.252H-80.544Z"/></clipPath><clipPath id="as" clipPathUnits="userSpaceOnUse"><path d="M-79.44 65.421H33.946V-47.965H-79.44Z"/></clipPath><clipPath id="at" clipPathUnits="userSpaceOnUse"><path d="M-44.835 42.41H68.55V-70.976H-44.835Z"/></clipPath><clipPath id="au" clipPathUnits="userSpaceOnUse"><path d="M-44.835 44.35H68.55V-69.036H-44.835Z"/></clipPath><clipPath id="av" clipPathUnits="userSpaceOnUse"><path d="M-44.112 41.917H69.274V-71.47H-44.112Z"/></clipPath><clipPath id="aw" clipPathUnits="userSpaceOnUse"><path d="M-32.733 66.27H80.653V-47.116H-32.733Z"/></clipPath><clipPath id="ax" clipPathUnits="userSpaceOnUse"><path d="M-32.733 68.209H80.653V-45.177H-32.733Z"/></clipPath><clipPath id="ay" clipPathUnits="userSpaceOnUse"><path d="M-32.009 65.776H81.377V-47.61H-32.009Z"/></clipPath><clipPath id="az" clipPathUnits="userSpaceOnUse"><path d="M-80.542 72.874H32.844V-40.512H-80.542Z"/></clipPath><clipPath id="aA" clipPathUnits="userSpaceOnUse"><path d="M-80.542 74.813H32.844V-38.573H-80.542Z"/></clipPath><clipPath id="aB" clipPathUnits="userSpaceOnUse"><path d="M-79.819 72.38H33.567V-41.006H-79.819Z"/></clipPath><clipPath id="aC" clipPathUnits="userSpaceOnUse"><path d="M-80.542 78.16H32.844V-35.224H-80.542Z"/></clipPath><clipPath id="aD" clipPathUnits="userSpaceOnUse"><path d="M-80.542 80.1H32.844V-33.286H-80.542Z"/></clipPath><clipPath id="aE" clipPathUnits="userSpaceOnUse"><path d="M-79.819 77.667H33.567V-35.719H-79.819Z"/></clipPath><clipPath id="aF" clipPathUnits="userSpaceOnUse"><path d="M-80.542 83.448H32.844V-29.938H-80.542Z"/></clipPath><clipPath id="aG" clipPathUnits="userSpaceOnUse"><path d="M-80.542 85.387H32.844V-28H-80.542Z"/></clipPath><clipPath id="aH" clipPathUnits="userSpaceOnUse"><path d="M-79.819 82.954H33.567V-30.432H-79.819Z"/></clipPath><clipPath id="aI" clipPathUnits="userSpaceOnUse"><path d="M-32.733 74.097H80.653V-39.289H-32.733Z"/></clipPath><clipPath id="aJ" clipPathUnits="userSpaceOnUse"><path d="M-32.733 76.036H80.653V-37.35H-32.733Z"/></clipPath><clipPath id="aK" clipPathUnits="userSpaceOnUse"><path d="M-32.009 73.603H81.377V-39.783H-32.009Z"/></clipPath><clipPath id="aL" clipPathUnits="userSpaceOnUse"><path d="M-32.733 82.171H80.653V-31.215H-32.733Z"/></clipPath><clipPath id="aM" clipPathUnits="userSpaceOnUse"><path d="M-32.733 84.11H80.653V-29.276H-32.733Z"/></clipPath><clipPath id="aN" clipPathUnits="userSpaceOnUse"><path d="M-32.009 81.677H81.377V-31.709H-32.009Z"/></clipPath><clipPath id="aO" clipPathUnits="userSpaceOnUse"><path d="M-42.415 42.41H70.971V-70.976H-42.415Z"/></clipPath><clipPath id="aP" clipPathUnits="userSpaceOnUse"><path d="M-42.415 44.35H70.971V-69.036H-42.415Z"/></clipPath><clipPath id="aQ" clipPathUnits="userSpaceOnUse"><path d="M-41.691 41.917H71.695V-71.47H-41.691Z"/></clipPath><clipPath id="aR" clipPathUnits="userSpaceOnUse"><path d="M-50.097 39.925H63.289V-73.461H-50.097Z"/></clipPath><clipPath id="aS" clipPathUnits="userSpaceOnUse"><path d="M-50.097 41.864H63.289V-71.522H-50.097Z"/></clipPath><clipPath id="aT" clipPathUnits="userSpaceOnUse"><path d="M-49.374 39.431H64.012V-73.955H-49.374Z"/></clipPath><clipPath id="aU" clipPathUnits="userSpaceOnUse"><path d="M-47.677 39.925H65.71V-73.461H-47.677Z"/></clipPath><clipPath id="aV" clipPathUnits="userSpaceOnUse"><path d="M-47.677 41.864H65.71V-71.522H-47.677Z"/></clipPath><clipPath id="aW" clipPathUnits="userSpaceOnUse"><path d="M-46.953 39.431H66.433V-73.955H-46.953Z"/></clipPath><clipPath id="aX" clipPathUnits="userSpaceOnUse"><path d="M-56.676 52.097H56.71V-61.289H-56.676Z"/></clipPath><clipPath id="aY" clipPathUnits="userSpaceOnUse"><path d="M-54.737 52.097H58.649V-61.289H-54.737Z"/></clipPath><clipPath id="aZ" clipPathUnits="userSpaceOnUse"><path d="M-57.17 51.374H56.216V-62.012H-57.17Z"/></clipPath><clipPath id="ba" clipPathUnits="userSpaceOnUse"><path d="M-56.676 49.677H56.71V-63.709H-56.676Z"/></clipPath><clipPath id="bb" clipPathUnits="userSpaceOnUse"><path d="M-54.737 49.677H58.649V-63.709H-54.737Z"/></clipPath><clipPath id="bc" clipPathUnits="userSpaceOnUse"><path d="M-57.17 48.953H56.216V-64.433H-57.17Z"/></clipPath><clipPath id="bd" clipPathUnits="userSpaceOnUse"><path d="M-39.994 42.41H73.392V-70.976H-39.994Z"/></clipPath><clipPath id="be" clipPathUnits="userSpaceOnUse"><path d="M-39.994 44.35H73.392V-69.036H-39.994Z"/></clipPath><clipPath id="bf" clipPathUnits="userSpaceOnUse"><path d="M-39.27 41.917H74.114V-71.47H-39.27Z"/></clipPath><clipPath id="bg" clipPathUnits="userSpaceOnUse"><path d="M-60.682 39.928H52.704V-73.458H-60.682Z"/></clipPath><clipPath id="bh" clipPathUnits="userSpaceOnUse"><path d="M-60.682 41.867H52.704V-71.519H-60.682Z"/></clipPath><clipPath id="bi" clipPathUnits="userSpaceOnUse"><path d="M-59.958 39.434H53.428V-73.952H-59.958Z"/></clipPath><clipPath id="bj" clipPathUnits="userSpaceOnUse"><path d="M-42.415 32.707H70.971V-80.679H-42.415Z"/></clipPath><clipPath id="bk" clipPathUnits="userSpaceOnUse"><path d="M-42.415 34.646H70.971V-78.74H-42.415Z"/></clipPath><clipPath id="bl" clipPathUnits="userSpaceOnUse"><path d="M-41.691 32.213H71.695V-81.173H-41.691Z"/></clipPath><clipPath id="bm" clipPathUnits="userSpaceOnUse"><path d="M-37.574 42.41H75.812V-70.976H-37.574Z"/></clipPath><clipPath id="bn" clipPathUnits="userSpaceOnUse"><path d="M-37.574 44.35H75.812V-69.036H-37.574Z"/></clipPath><clipPath id="bo" clipPathUnits="userSpaceOnUse"><path d="M-36.85 41.917H76.536V-71.47H-36.85Z"/></clipPath><clipPath id="bp" clipPathUnits="userSpaceOnUse"><path d="M-35.153 42.41H78.233V-70.976H-35.153Z"/></clipPath><clipPath id="bq" clipPathUnits="userSpaceOnUse"><path d="M-35.153 44.35H78.233V-69.036H-35.153Z"/></clipPath><clipPath id="br" clipPathUnits="userSpaceOnUse"><path d="M-34.43 41.917H78.956V-71.47H-34.43Z"/></clipPath><clipPath id="bs" clipPathUnits="userSpaceOnUse"><path d="M-32.733 42.41H80.653V-70.976H-32.733Z"/></clipPath><clipPath id="bt" clipPathUnits="userSpaceOnUse"><path d="M-32.733 44.35H80.653V-69.036H-32.733Z"/></clipPath><clipPath id="bu" clipPathUnits="userSpaceOnUse"><path d="M-32.009 41.917H81.377V-71.47H-32.009Z"/></clipPath><clipPath id="bv" clipPathUnits="userSpaceOnUse"><path d="M-32.733 48.811H80.653V-64.575H-32.733Z"/></clipPath><clipPath id="bw" clipPathUnits="userSpaceOnUse"><path d="M-32.733 50.75H80.653V-62.636H-32.733Z"/></clipPath><clipPath id="bx" clipPathUnits="userSpaceOnUse"><path d="M-32.009 48.317H81.377V-65.069H-32.009Z"/></clipPath><clipPath id="by" clipPathUnits="userSpaceOnUse"><path d="M-59.816 65.089H53.57V-48.297H-59.816Z"/></clipPath><clipPath id="bz" clipPathUnits="userSpaceOnUse"><path d="M-57.877 65.089H55.509V-48.297H-57.877Z"/></clipPath><clipPath id="bA" clipPathUnits="userSpaceOnUse"><path d="M-60.31 64.365H53.076V-49.02H-60.31Z"/></clipPath><clipPath id="bB" clipPathUnits="userSpaceOnUse"><path d="M-56.673 55.554H56.713V-57.832H-56.673Z"/></clipPath><clipPath id="bC" clipPathUnits="userSpaceOnUse"><path d="M-54.734 55.554H58.652V-57.832H-54.734Z"/></clipPath><clipPath id="bD" clipPathUnits="userSpaceOnUse"><path d="M-57.167 54.83H56.219V-58.556H-57.167Z"/></clipPath><clipPath id="bE" clipPathUnits="userSpaceOnUse"><path d="M-70.517 59.686H42.87V-53.7H-70.517Z"/></clipPath><clipPath id="bF" clipPathUnits="userSpaceOnUse"><path d="M-68.578 59.686H44.808V-53.7H-68.578Z"/></clipPath><clipPath id="bG" clipPathUnits="userSpaceOnUse"><path d="M-71.01 58.962H42.376V-54.424H-71.01Z"/></clipPath><clipPath id="bH" clipPathUnits="userSpaceOnUse"><path d="M-32.733 59.961H80.653V-53.425H-32.733Z"/></clipPath><clipPath id="bI" clipPathUnits="userSpaceOnUse"><path d="M-32.733 61.9H80.653V-51.484H-32.733Z"/></clipPath><clipPath id="bJ" clipPathUnits="userSpaceOnUse"><path d="M-32.009 59.468H81.377V-53.918H-32.009Z"/></clipPath><clipPath id="bK" clipPathUnits="userSpaceOnUse"><path d="M0 113.386h113.386V0H0Z"/></clipPath><clipPath id="bL" clipPathUnits="userSpaceOnUse"><path d="M0 113.386h113.386V0H0Z"/></clipPath><clipPath id="bM" clipPathUnits="userSpaceOnUse"><path d="M0 113.386h113.386V0H0Z"/></clipPath><clipPath id="bN" clipPathUnits="userSpaceOnUse"><path d="M0 113.386h113.386V0H0Z"/></clipPath><clipPath id="bO" clipPathUnits="userSpaceOnUse"><path d="M0 113.386h113.386V0H0Z"/></clipPath><clipPath id="bP" clipPathUnits="userSpaceOnUse"><path d="M0 113.386h113.386V0H0Z"/></clipPath><clipPath id="bQ" clipPathUnits="userSpaceOnUse"><path d="M0 113.386h113.386V0H0Z"/></clipPath><clipPath id="bR" clipPathUnits="userSpaceOnUse"><path d="M0 113.386h113.386V0H0Z"/></clipPath><clipPath id="bS" clipPathUnits="userSpaceOnUse"><path d="M0 113.386h113.386V0H0Z"/></clipPath><clipPath id="bT" clipPathUnits="userSpaceOnUse"><path d="M0 113.386h113.386V0H0Z"/></clipPath><clipPath id="bU" clipPathUnits="userSpaceOnUse"><path d="M0 113.386h113.386V0H0Z"/></clipPath><clipPath id="bV" clipPathUnits="userSpaceOnUse"><path d="M0 113.386h113.386V0H0Z"/></clipPath><clipPath id="bW" clipPathUnits="userSpaceOnUse"><path d="M0 113.386h113.386V0H0Z"/></clipPath><clipPath id="bX" clipPathUnits="userSpaceOnUse"><path d="M0 113.386h113.386V0H0Z"/></clipPath><clipPath id="bY" clipPathUnits="userSpaceOnUse"><path d="M0 113.386h113.386V0H0Z"/></clipPath><clipPath id="bZ" clipPathUnits="userSpaceOnUse"><path d="M0 113.386h113.386V0H0Z"/></clipPath><clipPath id="ca" clipPathUnits="userSpaceOnUse"><path d="M0 113.386h113.386V0H0Z"/></clipPath><clipPath id="cb" clipPathUnits="userSpaceOnUse"><path d="M0 113.386h113.386V0H0Z"/></clipPath><clipPath id="cc" clipPathUnits="userSpaceOnUse"><path d="M0 113.386h113.386V0H0Z"/></clipPath><clipPath id="cd" clipPathUnits="userSpaceOnUse"><path d="M0 113.386h113.386V0H0Z"/></clipPath><clipPath id="ce" clipPathUnits="userSpaceOnUse"><path d="M0 113.386h113.386V0H0Z"/></clipPath><clipPath id="cf" clipPathUnits="userSpaceOnUse"><path d="M0 113.386h113.386V0H0Z"/></clipPath><clipPath id="cg" clipPathUnits="userSpaceOnUse"><path d="M0 113.386h113.386V0H0Z"/></clipPath><clipPath id="ch" clipPathUnits="userSpaceOnUse"><path d="M0 113.386h113.386V0H0Z"/></clipPath><clipPath id="ci" clipPathUnits="userSpaceOnUse"><path d="M0 113.386h113.386V0H0Z"/></clipPath><clipPath id="cj" clipPathUnits="userSpaceOnUse"><path d="M0 113.386h113.386V0H0Z"/></clipPath><clipPath id="ck" clipPathUnits="userSpaceOnUse"><path d="M0 113.386h113.386V0H0Z"/></clipPath><clipPath id="cl" clipPathUnits="userSpaceOnUse"><path d="M0 113.386h113.386V0H0Z"/></clipPath><clipPath id="cm" clipPathUnits="userSpaceOnUse"><path d="M0 113.386h113.386V0H0Z"/></clipPath><clipPath id="cn" clipPathUnits="userSpaceOnUse"><path d="M0 113.386h113.386V0H0Z"/></clipPath><clipPath id="co" clipPathUnits="userSpaceOnUse"><path d="M0 113.386h113.386V0H0Z"/></clipPath><clipPath id="cp" clipPathUnits="userSpaceOnUse"><path d="M0 113.386h113.386V0H0Z"/></clipPath><clipPath id="cq" clipPathUnits="userSpaceOnUse"><path d="M0 113.386h113.386V0H0Z"/></clipPath><clipPath id="cr" clipPathUnits="userSpaceOnUse"><path d="M-38.418 51.58H74.968V-61.808H-38.418Z"/></clipPath><clipPath id="cs" clipPathUnits="userSpaceOnUse"><path d="M0 113.386h113.386V0H0Z"/></clipPath><clipPath id="ct" clipPathUnits="userSpaceOnUse"><path d="M0 113.386h113.386V0H0Z"/></clipPath><clipPath id="cu" clipPathUnits="userSpaceOnUse"><path d="M0 113.386h113.386V0H0Z"/></clipPath><clipPath id="cv" clipPathUnits="userSpaceOnUse"><path d="M0 113.386h113.386V0H0Z"/></clipPath><clipPath id="cw" clipPathUnits="userSpaceOnUse"><path d="M0 113.386h113.386V0H0Z"/></clipPath><clipPath id="cx" clipPathUnits="userSpaceOnUse"><path d="M0 113.386h113.386V0H0Z"/></clipPath><clipPath id="cy" clipPathUnits="userSpaceOnUse"><path d="M0 113.386h113.386V0H0Z"/></clipPath><clipPath id="cz" clipPathUnits="userSpaceOnUse"><path d="M0 113.386h113.386V0H0Z"/></clipPath><clipPath id="cA" clipPathUnits="userSpaceOnUse"><path d="M0 113.386h113.386V0H0Z"/></clipPath><clipPath id="cB" clipPathUnits="userSpaceOnUse"><path d="M0 113.386h113.386V0H0Z"/></clipPath><clipPath id="cC" clipPathUnits="userSpaceOnUse"><path d="M0 113.386h113.386V0H0Z"/></clipPath><clipPath id="cD" clipPathUnits="userSpaceOnUse"><path d="M0 113.386h113.386V0H0Z"/></clipPath><clipPath id="cE" clipPathUnits="userSpaceOnUse"><path d="M0 113.386h113.386V0H0Z"/></clipPath><clipPath id="cF" clipPathUnits="userSpaceOnUse"><path d="M0 113.386h113.386V0H0Z"/></clipPath><clipPath id="cG" clipPathUnits="userSpaceOnUse"><path d="M0 113.386h113.386V0H0Z"/></clipPath><clipPath id="cH" clipPathUnits="userSpaceOnUse"><path d="M0 113.386h113.386V0H0Z"/></clipPath><clipPath id="cI" clipPathUnits="userSpaceOnUse"><path d="M0 113.386h113.386V0H0Z"/></clipPath><clipPath id="cJ" clipPathUnits="userSpaceOnUse"><path d="M0 113.386h113.386V0H0Z"/></clipPath><clipPath id="cK" clipPathUnits="userSpaceOnUse"><path d="M0 113.386h113.386V0H0Z"/></clipPath><clipPath id="cL" clipPathUnits="userSpaceOnUse"><path d="M0 113.386h113.386V0H0Z"/></clipPath><clipPath id="cM" clipPathUnits="userSpaceOnUse"><path d="M0 113.386h113.386V0H0Z"/></clipPath><clipPath id="cN" clipPathUnits="userSpaceOnUse"><path d="M0 113.386h113.386V0H0Z"/></clipPath><clipPath id="cO" clipPathUnits="userSpaceOnUse"><path d="M0 113.386h113.386V0H0Z"/></clipPath><clipPath id="cP" clipPathUnits="userSpaceOnUse"><path d="M0 113.386h113.386V0H0Z"/></clipPath><clipPath id="cQ" clipPathUnits="userSpaceOnUse"><path d="M0 113.386h113.386V0H0Z"/></clipPath><clipPath id="cR" clipPathUnits="userSpaceOnUse"><path d="M0 113.386h113.386V0H0Z"/></clipPath><clipPath id="cS" clipPathUnits="userSpaceOnUse"><path d="M0 113.386h113.386V0H0Z"/></clipPath><clipPath id="cT" clipPathUnits="userSpaceOnUse"><path d="M0 113.386h113.386V0H0Z"/></clipPath><clipPath id="cU" clipPathUnits="userSpaceOnUse"><path d="M0 113.386h113.386V0H0Z"/></clipPath><clipPath id="cV" clipPathUnits="userSpaceOnUse"><path d="M0 113.386h113.386V0H0Z"/></clipPath><clipPath id="cW" clipPathUnits="userSpaceOnUse"><path d="M0 113.386h113.386V0H0Z"/></clipPath><clipPath id="cX" clipPathUnits="userSpaceOnUse"><path d="M0 113.386h113.386V0H0Z"/></clipPath><clipPath id="cY" clipPathUnits="userSpaceOnUse"><path d="M0 113.386h113.386V0H0Z"/></clipPath><clipPath id="cZ" clipPathUnits="userSpaceOnUse"><path d="M-57.876 58.903H55.51V-54.483H-57.876Z"/></clipPath><clipPath id="da" clipPathUnits="userSpaceOnUse"><path d="M0 113.386h113.386V0H0Z"/></clipPath><clipPath id="db" clipPathUnits="userSpaceOnUse"><path d="M0 113.386h113.386V0H0Z"/></clipPath><clipPath id="dc" clipPathUnits="userSpaceOnUse"><path d="M0 113.386h113.386V0H0Z"/></clipPath><clipPath id="dd" clipPathUnits="userSpaceOnUse"><path d="M0 113.386h113.386V0H0Z"/></clipPath><clipPath id="de" clipPathUnits="userSpaceOnUse"><path d="M0 113.386h113.386V0H0Z"/></clipPath><clipPath id="df" clipPathUnits="userSpaceOnUse"><path d="M0 113.386h113.386V0H0Z"/></clipPath><clipPath id="dg" clipPathUnits="userSpaceOnUse"><path d="M0 113.386h113.386V0H0Z"/></clipPath><clipPath id="dh" clipPathUnits="userSpaceOnUse"><path d="M0 113.386h113.386V0H0Z"/></clipPath><clipPath id="di" clipPathUnits="userSpaceOnUse"><path d="M0 113.386h113.386V0H0Z"/></clipPath><clipPath id="dj" clipPathUnits="userSpaceOnUse"><path d="M-72.216 56.474H41.17V-56.912H-72.216Z"/></clipPath><clipPath id="dk" clipPathUnits="userSpaceOnUse"><path d="M0 113.386h113.386V0H0Z"/></clipPath><clipPath id="dl" clipPathUnits="userSpaceOnUse"><path d="M0 113.386h113.386V0H0Z"/></clipPath><clipPath id="dm" clipPathUnits="userSpaceOnUse"><path d="M0 113.386h113.386V0H0Z"/></clipPath><clipPath id="dn" clipPathUnits="userSpaceOnUse"><path d="M0 113.386h113.386V0H0Z"/></clipPath><clipPath id="do" clipPathUnits="userSpaceOnUse"><path d="M0 113.386h113.386V0H0Z"/></clipPath><clipPath id="dp" clipPathUnits="userSpaceOnUse"><path d="M0 113.386h113.386V0H0Z"/></clipPath><clipPath id="dq" clipPathUnits="userSpaceOnUse"><path d="M0 113.386h113.386V0H0Z"/></clipPath><clipPath id="dr" clipPathUnits="userSpaceOnUse"><path d="M0 113.386h113.386V0H0Z"/></clipPath><clipPath id="ds" clipPathUnits="userSpaceOnUse"><path d="M0 113.386h113.386V0H0Z"/></clipPath><clipPath id="dt" clipPathUnits="userSpaceOnUse"><path d="M0 113.386h113.386V0H0Z"/></clipPath><clipPath id="du" clipPathUnits="userSpaceOnUse"><path d="M0 113.386h113.386V0H0Z"/></clipPath><clipPath id="dv" clipPathUnits="userSpaceOnUse"><path d="M0 113.386h113.386V0H0Z"/></clipPath></defs><path d="M0 0a2.152 2.152 0 0 0-3.18 1.87c0 .77.43 1.51 1.13 1.89a6.46 6.46 0 0 1 3.25 6.82c-.45 2.58-2.49 4.68-5.05 5.19-.45.09-.89.13-1.33.13a6.483 6.483 0 0 1-6.47-6.48c0-2.42 1.34-4.54 3.32-5.65.87-.48 1.32-1.46 1.08-2.42A2.148 2.148 0 0 0-10.37.01a10.72 10.72 0 0 0-5.56 9.41c0 2.43.81 4.68 2.17 6.48h-12.42c-.59 0-1.13.24-1.51.63-.39.38-.63.92-.63 1.51 0 1.18.96 2.14 2.14 2.14h21c.39 0 .79-.02 1.19-.06 4.95-.53 8.97-4.57 9.5-9.53C5.99 6.05 3.64 2 0 0m-19.99 34.31c0 .6.24 1.13.63 1.52.38.38.92.62 1.51.62 1.18 0 2.14-.95 2.14-2.14V25.5c0-.59-.24-1.13-.63-1.51-.38-.39-.92-.63-1.51-.63-1.18 0-2.14.96-2.14 2.14zm2.01 4.99c.4 0 .74-.33.74-.73 0-.41-.34-.74-.74-.74-.41 0-.74.33-.74.74 0 .4.33.73.74.73m-26.37.76c-3.34 0-6.03-2.7-6.03-6.02v-58.78h64.8v64.8z" clip-path="url(#a)" style="fill:#63615c;fill-opacity:1;fill-rule:nonzero;stroke:none" transform="matrix(1.33333 0 0 -1.33333 67.176 53.413)"/><path d="M0 0h3.58a2.187 2.187 0 0 1 0 4.375H0Z" clip-path="url(#b)" style="fill:#b9ada0;fill-opacity:1;fill-rule:nonzero;stroke:none" transform="matrix(1.33333 0 0 -1.33333 0 17.288)"/><path d="M0 0a1.427 1.427 0 1 1 0 2.854A1.427 1.427 0 0 1 0 0" clip-path="url(#c)" style="fill:#fff;fill-opacity:1;fill-rule:nonzero;stroke:none" transform="matrix(1.33333 0 0 -1.33333 4.792 16.271)"/><path d="M0 0c.786 0 1.426.631 1.426 1.426 0 .786-.64 1.426-1.426 1.426Z" clip-path="url(#d)" style="fill:#fff;fill-opacity:1;fill-rule:nonzero;stroke:none" transform="matrix(1.33333 0 0 -1.33333 0 16.266)"/><path d="M0 0h3.58a2.187 2.187 0 0 1 0 4.375H0Z" clip-path="url(#e)" style="fill:#b9ada0;fill-opacity:1;fill-rule:nonzero;stroke:none" transform="matrix(1.33333 0 0 -1.33333 0 26.892)"/><path d="M0 0a1.427 1.427 0 1 1 0 2.854A1.427 1.427 0 0 1 0 0" clip-path="url(#f)" style="fill:#fff;fill-opacity:1;fill-rule:nonzero;stroke:none" transform="matrix(1.33333 0 0 -1.33333 4.792 25.875)"/><path d="M0 0c.786 0 1.426.631 1.426 1.426 0 .786-.64 1.426-1.426 1.426Z" clip-path="url(#g)" style="fill:#fff;fill-opacity:1;fill-rule:nonzero;stroke:none" transform="matrix(1.33333 0 0 -1.33333 0 25.87)"/><path d="M0 0h3.58a2.187 2.187 0 0 1 0 4.375H0Z" clip-path="url(#h)" style="fill:#b9ada0;fill-opacity:1;fill-rule:nonzero;stroke:none" transform="matrix(1.33333 0 0 -1.33333 0 36.495)"/><path d="M0 0a1.427 1.427 0 1 1 0 2.854A1.427 1.427 0 0 1 0 0" clip-path="url(#i)" style="fill:#fff;fill-opacity:1;fill-rule:nonzero;stroke:none" transform="matrix(1.33333 0 0 -1.33333 4.792 35.479)"/><path d="M0 0c.786 0 1.426.631 1.426 1.426 0 .786-.64 1.426-1.426 1.426Z" clip-path="url(#j)" style="fill:#fff;fill-opacity:1;fill-rule:nonzero;stroke:none" transform="matrix(1.33333 0 0 -1.33333 0 35.473)"/><path d="M0 0h3.58a2.187 2.187 0 0 1 0 4.375H0Z" clip-path="url(#k)" style="fill:#b9ada0;fill-opacity:1;fill-rule:nonzero;stroke:none" transform="matrix(1.33333 0 0 -1.33333 0 46.1)"/><path d="M0 0a1.427 1.427 0 1 1 0 2.854A1.427 1.427 0 0 1 0 0" clip-path="url(#l)" style="fill:#fff;fill-opacity:1;fill-rule:nonzero;stroke:none" transform="matrix(1.33333 0 0 -1.33333 4.792 45.083)"/><path d="M0 0c.786 0 1.426.631 1.426 1.426 0 .786-.64 1.426-1.426 1.426Z" clip-path="url(#m)" style="fill:#fff;fill-opacity:1;fill-rule:nonzero;stroke:none" transform="matrix(1.33333 0 0 -1.33333 0 45.077)"/><path d="M0 0h3.58a2.187 2.187 0 0 1 0 4.375H0Z" clip-path="url(#n)" style="fill:#b9ada0;fill-opacity:1;fill-rule:nonzero;stroke:none" transform="matrix(1.33333 0 0 -1.33333 0 55.703)"/><path d="M0 0a1.427 1.427 0 1 1 0 2.854A1.427 1.427 0 0 1 0 0" clip-path="url(#o)" style="fill:#fff;fill-opacity:1;fill-rule:nonzero;stroke:none" transform="matrix(1.33333 0 0 -1.33333 4.792 54.686)"/><path d="M0 0c.786 0 1.426.631 1.426 1.426 0 .786-.64 1.426-1.426 1.426Z" clip-path="url(#p)" style="fill:#fff;fill-opacity:1;fill-rule:nonzero;stroke:none" transform="matrix(1.33333 0 0 -1.33333 0 54.68)"/><path d="M0 0h3.58a2.187 2.187 0 0 1 0 4.375H0Z" clip-path="url(#q)" style="fill:#b9ada0;fill-opacity:1;fill-rule:nonzero;stroke:none" transform="matrix(1.33333 0 0 -1.33333 0 65.307)"/><path d="M0 0a1.427 1.427 0 1 1 0 2.854A1.427 1.427 0 0 1 0 0" clip-path="url(#r)" style="fill:#fff;fill-opacity:1;fill-rule:nonzero;stroke:none" transform="matrix(1.33333 0 0 -1.33333 4.792 64.29)"/><path d="M0 0c.786 0 1.426.631 1.426 1.426 0 .786-.64 1.426-1.426 1.426Z" clip-path="url(#s)" style="fill:#fff;fill-opacity:1;fill-rule:nonzero;stroke:none" transform="matrix(1.33333 0 0 -1.33333 0 64.285)"/><path d="M0 0h3.58a2.187 2.187 0 0 1 0 4.375H0Z" clip-path="url(#t)" style="fill:#b9ada0;fill-opacity:1;fill-rule:nonzero;stroke:none" transform="matrix(1.33333 0 0 -1.33333 0 74.91)"/><path d="M0 0a1.427 1.427 0 1 1 0 2.854A1.427 1.427 0 0 1 0 0" clip-path="url(#u)" style="fill:#fff;fill-opacity:1;fill-rule:nonzero;stroke:none" transform="matrix(1.33333 0 0 -1.33333 4.792 73.894)"/><path d="M0 0c.786 0 1.426.631 1.426 1.426 0 .786-.64 1.426-1.426 1.426Z" clip-path="url(#v)" style="fill:#fff;fill-opacity:1;fill-rule:nonzero;stroke:none" transform="matrix(1.33333 0 0 -1.33333 0 73.888)"/><path d="M0 0h3.58a2.187 2.187 0 0 1 0 4.375H0Z" clip-path="url(#w)" style="fill:#b9ada0;fill-opacity:1;fill-rule:nonzero;stroke:none" transform="matrix(1.33333 0 0 -1.33333 0 84.514)"/><path d="M0 0a1.427 1.427 0 1 1 0 2.854A1.427 1.427 0 0 1 0 0" clip-path="url(#x)" style="fill:#fff;fill-opacity:1;fill-rule:nonzero;stroke:none" transform="matrix(1.33333 0 0 -1.33333 4.792 83.497)"/><path d="M0 0c.786 0 1.426.631 1.426 1.426 0 .786-.64 1.426-1.426 1.426Z" clip-path="url(#y)" style="fill:#fff;fill-opacity:1;fill-rule:nonzero;stroke:none" transform="matrix(1.33333 0 0 -1.33333 0 83.492)"/><path d="M0 0h-3.58a2.187 2.187 0 0 1 0-4.375H0Z" clip-path="url(#z)" style="fill:#b9ada0;fill-opacity:1;fill-rule:nonzero;stroke:none" transform="matrix(1.33333 0 0 -1.33333 86.399 1.914)"/><path d="M0 0a1.427 1.427 0 1 1 0-2.854A1.427 1.427 0 0 1 0 0" clip-path="url(#A)" style="fill:#fff;fill-opacity:1;fill-rule:nonzero;stroke:none" transform="matrix(1.33333 0 0 -1.33333 81.606 2.93)"/><path d="M0 0a1.42 1.42 0 0 1-1.426-1.426c0-.786.64-1.426 1.426-1.426z" clip-path="url(#B)" style="fill:#fff;fill-opacity:1;fill-rule:nonzero;stroke:none" transform="matrix(1.33333 0 0 -1.33333 86.399 2.936)"/><path d="M0 0h-3.58a2.187 2.187 0 0 1 0-4.375H0Z" clip-path="url(#C)" style="fill:#b9ada0;fill-opacity:1;fill-rule:nonzero;stroke:none" transform="matrix(1.33333 0 0 -1.33333 86.399 11.495)"/><path d="M0 0a1.427 1.427 0 1 1 0-2.854A1.427 1.427 0 0 1 0 0" clip-path="url(#D)" style="fill:#fff;fill-opacity:1;fill-rule:nonzero;stroke:none" transform="matrix(1.33333 0 0 -1.33333 81.606 12.511)"/><path d="M0 0a1.42 1.42 0 0 1-1.426-1.426c0-.786.64-1.426 1.426-1.426z" clip-path="url(#E)" style="fill:#fff;fill-opacity:1;fill-rule:nonzero;stroke:none" transform="matrix(1.33333 0 0 -1.33333 86.399 12.517)"/><path d="M0 0h-3.58a2.187 2.187 0 0 1 0-4.375H0Z" clip-path="url(#F)" style="fill:#b9ada0;fill-opacity:1;fill-rule:nonzero;stroke:none" transform="matrix(1.33333 0 0 -1.33333 86.399 21.075)"/><path d="M0 0a1.427 1.427 0 1 1 0-2.854A1.427 1.427 0 0 1 0 0" clip-path="url(#G)" style="fill:#fff;fill-opacity:1;fill-rule:nonzero;stroke:none" transform="matrix(1.33333 0 0 -1.33333 81.606 22.092)"/><path d="M0 0a1.42 1.42 0 0 1-1.426-1.426c0-.786.64-1.426 1.426-1.426z" clip-path="url(#H)" style="fill:#fff;fill-opacity:1;fill-rule:nonzero;stroke:none" transform="matrix(1.33333 0 0 -1.33333 86.399 22.097)"/><path d="M0 0h-3.58a2.187 2.187 0 0 1 0-4.375H0Z" clip-path="url(#I)" style="fill:#b9ada0;fill-opacity:1;fill-rule:nonzero;stroke:none" transform="matrix(1.33333 0 0 -1.33333 86.399 30.656)"/><path d="M0 0a1.427 1.427 0 1 1 0-2.854A1.427 1.427 0 0 1 0 0" clip-path="url(#J)" style="fill:#fff;fill-opacity:1;fill-rule:nonzero;stroke:none" transform="matrix(1.33333 0 0 -1.33333 81.606 31.673)"/><path d="M0 0a1.42 1.42 0 0 1-1.426-1.426c0-.786.64-1.426 1.426-1.426z" clip-path="url(#K)" style="fill:#fff;fill-opacity:1;fill-rule:nonzero;stroke:none" transform="matrix(1.33333 0 0 -1.33333 86.399 31.678)"/><path d="M0 0h-3.58a2.187 2.187 0 0 1 0-4.375H0Z" clip-path="url(#L)" style="fill:#b9ada0;fill-opacity:1;fill-rule:nonzero;stroke:none" transform="matrix(1.33333 0 0 -1.33333 86.399 40.237)"/><path d="M0 0a1.427 1.427 0 1 1 0-2.854A1.427 1.427 0 0 1 0 0" clip-path="url(#M)" style="fill:#fff;fill-opacity:1;fill-rule:nonzero;stroke:none" transform="matrix(1.33333 0 0 -1.33333 81.606 41.253)"/><path d="M0 0a1.42 1.42 0 0 1-1.426-1.426c0-.786.64-1.426 1.426-1.426z" clip-path="url(#N)" style="fill:#fff;fill-opacity:1;fill-rule:nonzero;stroke:none" transform="matrix(1.33333 0 0 -1.33333 86.399 41.259)"/><path d="M0 0h-3.58a2.187 2.187 0 0 1 0-4.375H0Z" clip-path="url(#O)" style="fill:#b9ada0;fill-opacity:1;fill-rule:nonzero;stroke:none" transform="matrix(1.33333 0 0 -1.33333 86.399 49.817)"/><path d="M0 0a1.427 1.427 0 1 1 0-2.854A1.427 1.427 0 0 1 0 0" clip-path="url(#P)" style="fill:#fff;fill-opacity:1;fill-rule:nonzero;stroke:none" transform="matrix(1.33333 0 0 -1.33333 81.606 50.834)"/><path d="M0 0a1.42 1.42 0 0 1-1.426-1.426c0-.786.64-1.426 1.426-1.426z" clip-path="url(#Q)" style="fill:#fff;fill-opacity:1;fill-rule:nonzero;stroke:none" transform="matrix(1.33333 0 0 -1.33333 86.399 50.84)"/><path d="M0 0h-3.58a2.187 2.187 0 0 1 0-4.375H0Z" clip-path="url(#R)" style="fill:#b9ada0;fill-opacity:1;fill-rule:nonzero;stroke:none" transform="matrix(1.33333 0 0 -1.33333 86.399 59.398)"/><path d="M0 0a1.427 1.427 0 1 1 0-2.854A1.427 1.427 0 0 1 0 0" clip-path="url(#S)" style="fill:#fff;fill-opacity:1;fill-rule:nonzero;stroke:none" transform="matrix(1.33333 0 0 -1.33333 81.606 60.415)"/><path d="M0 0a1.42 1.42 0 0 1-1.426-1.426c0-.786.64-1.426 1.426-1.426z" clip-path="url(#T)" style="fill:#fff;fill-opacity:1;fill-rule:nonzero;stroke:none" transform="matrix(1.33333 0 0 -1.33333 86.399 60.42)"/><path d="M0 0h-3.58a2.187 2.187 0 0 1 0-4.375H0Z" clip-path="url(#U)" style="fill:#b9ada0;fill-opacity:1;fill-rule:nonzero;stroke:none" transform="matrix(1.33333 0 0 -1.33333 86.399 68.979)"/><path d="M0 0a1.427 1.427 0 1 1 0-2.854A1.427 1.427 0 0 1 0 0" clip-path="url(#V)" style="fill:#fff;fill-opacity:1;fill-rule:nonzero;stroke:none" transform="matrix(1.33333 0 0 -1.33333 81.606 69.995)"/><path d="M0 0a1.42 1.42 0 0 1-1.426-1.426c0-.786.64-1.426 1.426-1.426z" clip-path="url(#W)" style="fill:#fff;fill-opacity:1;fill-rule:nonzero;stroke:none" transform="matrix(1.33333 0 0 -1.33333 86.399 70)"/><path d="M0 0h-3.58a2.187 2.187 0 0 1 0-4.375H0Z" clip-path="url(#X)" style="fill:#b9ada0;fill-opacity:1;fill-rule:nonzero;stroke:none" transform="matrix(1.33333 0 0 -1.33333 86.399 78.56)"/><path d="M0 0a1.427 1.427 0 1 1 0-2.854A1.427 1.427 0 0 1 0 0" clip-path="url(#Y)" style="fill:#fff;fill-opacity:1;fill-rule:nonzero;stroke:none" transform="matrix(1.33333 0 0 -1.33333 81.606 79.576)"/><path d="M0 0a1.42 1.42 0 0 1-1.426-1.426c0-.786.64-1.426 1.426-1.426z" clip-path="url(#Z)" style="fill:#fff;fill-opacity:1;fill-rule:nonzero;stroke:none" transform="matrix(1.33333 0 0 -1.33333 86.399 79.581)"/><path d="M31.404 75.042h7.928v8.479h-7.928z" clip-path="url(#aa)" style="fill:#c5c5c5;fill-opacity:1;fill-rule:nonzero;stroke:none" transform="matrix(1.33333 0 0 -1.33333 -32.39 118.917)"/><path d="m0 0 .279-.014.276-.048.273-.071.258-.111.248-.125.23-.16.206-.192.187-.205.166-.222.145-.247.111-.253.078-.26.057-.278.023-.279-.01-.273-.039-.282-.068-.275-.098-.262-.125-.246-.15-.238-.182-.213-.199-.189-.223-.174-.236-.145-.252-.121-.264-.094-.269-.06-.279-.033h-.286l-.275.033-.269.06-.262.094-.254.121-.236.145-.223.174-.197.189-.184.213-.15.238-.127.246-.094.262-.072.275-.043.282-.004.273.023.279.055.278.076.26.113.253.143.247.168.222.187.205.207.192.231.16.246.125.262.111.267.071.278.048z" clip-path="url(#ab)" style="fill:#a3a6a7;fill-opacity:1;fill-rule:nonzero;stroke:none" transform="matrix(1.33333 0 0 -1.33333 14.765 9.831)"/><path d="M32.248 84.35h1.516v-.83h-1.516z" clip-path="url(#ac)" style="fill:#8d9091;fill-opacity:1;fill-rule:nonzero;stroke:none" transform="matrix(1.33333 0 0 -1.33333 -32.39 118.917)"/><path d="M36.973 84.35h1.516v-.83h-1.516z" clip-path="url(#ad)" style="fill:#8d9091;fill-opacity:1;fill-rule:nonzero;stroke:none" transform="matrix(1.33333 0 0 -1.33333 -32.39 118.917)"/><path d="M32.248 75.042h1.516v-.83h-1.516z" clip-path="url(#ae)" style="fill:#8d9091;fill-opacity:1;fill-rule:nonzero;stroke:none" transform="matrix(1.33333 0 0 -1.33333 -32.39 118.917)"/><path d="M36.973 75.042h1.516v-.83h-1.516z" clip-path="url(#af)" style="fill:#8d9091;fill-opacity:1;fill-rule:nonzero;stroke:none" transform="matrix(1.33333 0 0 -1.33333 -32.39 118.917)"/><path d="M0 0h-1.855l-.51-.51v-1.781l.51-.509H0l.51.509V-.51z" clip-path="url(#ag)" style="fill:#8d9091;fill-opacity:1;fill-rule:nonzero;stroke:none" transform="matrix(1.33333 0 0 -1.33333 7.1 4.2)"/><path d="M0 0h-.437v.861" clip-path="url(#ah)" style="fill:none;stroke:#d6cec6;stroke-width:.283;stroke-linecap:butt;stroke-linejoin:miter;stroke-miterlimit:10;stroke-dasharray:none;stroke-opacity:1" transform="matrix(1.33333 0 0 -1.33333 4.916 5.737)"/><path d="M0 0s.003-.399-.405-.399" clip-path="url(#ai)" style="fill:none;stroke:#d6cec6;stroke-width:.283;stroke-linecap:butt;stroke-linejoin:miter;stroke-miterlimit:10;stroke-dasharray:none;stroke-opacity:1" transform="matrix(1.33333 0 0 -1.33333 4.487 4.2)"/><path d="M0 0h-.437v-.861" clip-path="url(#aj)" style="fill:none;stroke:#d6cec6;stroke-width:.283;stroke-linecap:butt;stroke-linejoin:miter;stroke-miterlimit:10;stroke-dasharray:none;stroke-opacity:1" transform="matrix(1.33333 0 0 -1.33333 4.916 6.397)"/><path d="M0 0s.003.399-.405.399" clip-path="url(#ak)" style="fill:none;stroke:#d6cec6;stroke-width:.283;stroke-linecap:butt;stroke-linejoin:miter;stroke-miterlimit:10;stroke-dasharray:none;stroke-opacity:1" transform="matrix(1.33333 0 0 -1.33333 4.487 7.933)"/><path d="M0 0h.437v.861" clip-path="url(#al)" style="fill:none;stroke:#d6cec6;stroke-width:.283;stroke-linecap:butt;stroke-linejoin:miter;stroke-miterlimit:10;stroke-dasharray:none;stroke-opacity:1" transform="matrix(1.33333 0 0 -1.33333 6.811 5.737)"/><path d="M0 0s-.003-.399.405-.399" clip-path="url(#am)" style="fill:none;stroke:#d6cec6;stroke-width:.283;stroke-linecap:butt;stroke-linejoin:miter;stroke-miterlimit:10;stroke-dasharray:none;stroke-opacity:1" transform="matrix(1.33333 0 0 -1.33333 7.24 4.2)"/><path d="M0 0h.437v-.861" clip-path="url(#an)" style="fill:none;stroke:#d6cec6;stroke-width:.283;stroke-linecap:butt;stroke-linejoin:miter;stroke-miterlimit:10;stroke-dasharray:none;stroke-opacity:1" transform="matrix(1.33333 0 0 -1.33333 6.811 6.397)"/><path d="M0 0s-.003.399.405.399" clip-path="url(#ao)" style="fill:none;stroke:#d6cec6;stroke-width:.283;stroke-linecap:butt;stroke-linejoin:miter;stroke-miterlimit:10;stroke-dasharray:none;stroke-opacity:1" transform="matrix(1.33333 0 0 -1.33333 7.24 7.933)"/><path d="M29.401 86.038h-1.422v-2.8h1.422z" clip-path="url(#ap)" style="fill:#b8bbbc;fill-opacity:1;fill-rule:nonzero;stroke:none" transform="matrix(1.33333 0 0 -1.33333 -32.39 118.917)"/><path d="M0 0c.382 0 .753.073 1.095.207v-3.373A3 3 0 0 1 0-2.96c-.392 0-.765-.072-1.104-.216V.217A2.8 2.8 0 0 1 0 0" clip-path="url(#aq)" style="fill:#fff;fill-opacity:1;fill-rule:nonzero;stroke:none" transform="matrix(1.33333 0 0 -1.33333 75.001 55.969)"/><path d="M0 0c.382 0 .753-.073 1.095-.207v-.557h-2.199v.547C-.765-.073-.392 0 0 0" clip-path="url(#ar)" style="fill:#dcdcdc;fill-opacity:1;fill-rule:nonzero;stroke:none" transform="matrix(1.33333 0 0 -1.33333 75.001 59.915)"/><path d="M0 0h2.199v-.547a3 3 0 0 0-1.095-.207Q.512-.754 0-.536Z" clip-path="url(#as)" style="fill:#dcdcdc;fill-opacity:1;fill-rule:nonzero;stroke:none" transform="matrix(1.33333 0 0 -1.33333 73.53 54.964)"/><path d="M0 0c.251 0 .493.048.717.136v-2.21A2 2 0 0 1 0-1.94c-.257 0-.501-.047-.724-.141V.142C-.501.048-.257 0 0 0" clip-path="url(#at)" style="fill:#32352f;fill-opacity:1;fill-rule:nonzero;stroke:none" transform="matrix(1.33333 0 0 -1.33333 27.39 24.283)"/><path d="M0 0c.251 0 .493-.048.717-.136V-.5H-.724v.358C-.501-.048-.257 0 0 0" clip-path="url(#au)" style="fill:#dcdcdc;fill-opacity:1;fill-rule:nonzero;stroke:none" transform="matrix(1.33333 0 0 -1.33333 27.39 26.869)"/><path d="M0 0h1.441v-.359a2 2 0 0 0-.717-.135A1.8 1.8 0 0 0 0-.351Z" clip-path="url(#av)" style="fill:#dcdcdc;fill-opacity:1;fill-rule:nonzero;stroke:none" transform="matrix(1.33333 0 0 -1.33333 26.425 23.625)"/><path d="M0 0c.251 0 .493.048.717.136v-2.21A2 2 0 0 1 0-1.94c-.257 0-.501-.047-.724-.141V.142C-.501.048-.257 0 0 0" clip-path="url(#aw)" style="fill:#32352f;fill-opacity:1;fill-rule:nonzero;stroke:none" transform="matrix(1.33333 0 0 -1.33333 11.253 56.096)"/><path d="M0 0c.251 0 .493-.048.717-.136V-.5H-.724v.358C-.501-.048-.257 0 0 0" clip-path="url(#ax)" style="fill:#dcdcdc;fill-opacity:1;fill-rule:nonzero;stroke:none" transform="matrix(1.33333 0 0 -1.33333 11.253 58.681)"/><path d="M0 0h1.441v-.359a2 2 0 0 0-.717-.135A1.8 1.8 0 0 0 0-.351Z" clip-path="url(#ay)" style="fill:#dcdcdc;fill-opacity:1;fill-rule:nonzero;stroke:none" transform="matrix(1.33333 0 0 -1.33333 10.288 55.437)"/><path d="M0 0c.251 0 .493.048.717.136v-2.21A2 2 0 0 1 0-1.94c-.257 0-.501-.047-.724-.141V.142C-.501.048-.257 0 0 0" clip-path="url(#az)" style="fill:#32352f;fill-opacity:1;fill-rule:nonzero;stroke:none" transform="matrix(1.33333 0 0 -1.33333 75 64.901)"/><path d="M0 0c.251 0 .493-.048.717-.136V-.5H-.724v.358C-.501-.048-.257 0 0 0" clip-path="url(#aA)" style="fill:#dcdcdc;fill-opacity:1;fill-rule:nonzero;stroke:none" transform="matrix(1.33333 0 0 -1.33333 75 67.487)"/><path d="M0 0h1.441v-.359a2 2 0 0 0-.717-.135A1.8 1.8 0 0 0 0-.351Z" clip-path="url(#aB)" style="fill:#dcdcdc;fill-opacity:1;fill-rule:nonzero;stroke:none" transform="matrix(1.33333 0 0 -1.33333 74.035 64.243)"/><path d="M0 0c.251 0 .493.048.717.136v-2.21A2 2 0 0 1 0-1.94c-.257 0-.501-.047-.724-.141V.142C-.501.048-.257 0 0 0" clip-path="url(#aC)" style="fill:#32352f;fill-opacity:1;fill-rule:nonzero;stroke:none" transform="matrix(1.33333 0 0 -1.33333 75 71.95)"/><path d="M0 0c.251 0 .493-.048.717-.136V-.5H-.724v.358C-.501-.048-.257 0 0 0" clip-path="url(#aD)" style="fill:#dcdcdc;fill-opacity:1;fill-rule:nonzero;stroke:none" transform="matrix(1.33333 0 0 -1.33333 75 74.536)"/><path d="M0 0h1.441v-.359a2 2 0 0 0-.717-.135A1.8 1.8 0 0 0 0-.351Z" clip-path="url(#aE)" style="fill:#dcdcdc;fill-opacity:1;fill-rule:nonzero;stroke:none" transform="matrix(1.33333 0 0 -1.33333 74.035 71.292)"/><path d="M0 0c.251 0 .493.048.717.136v-2.21A2 2 0 0 1 0-1.94c-.257 0-.501-.047-.724-.141V.142C-.501.048-.257 0 0 0" clip-path="url(#aF)" style="fill:#32352f;fill-opacity:1;fill-rule:nonzero;stroke:none" transform="matrix(1.33333 0 0 -1.33333 75 79)"/><path d="M0 0c.251 0 .493-.048.717-.136V-.5H-.724v.358C-.501-.048-.257 0 0 0" clip-path="url(#aG)" style="fill:#dcdcdc;fill-opacity:1;fill-rule:nonzero;stroke:none" transform="matrix(1.33333 0 0 -1.33333 75 81.585)"/><path d="M0 0h1.441v-.359a2 2 0 0 0-.717-.135A1.8 1.8 0 0 0 0-.351Z" clip-path="url(#aH)" style="fill:#dcdcdc;fill-opacity:1;fill-rule:nonzero;stroke:none" transform="matrix(1.33333 0 0 -1.33333 74.035 78.34)"/><path d="M0 0c.251 0 .493.048.717.136v-2.21A2 2 0 0 1 0-1.94c-.257 0-.501-.047-.724-.141V.142C-.501.048-.257 0 0 0" clip-path="url(#aI)" style="fill:#32352f;fill-opacity:1;fill-rule:nonzero;stroke:none" transform="matrix(1.33333 0 0 -1.33333 11.253 66.532)"/><path d="M0 0c.251 0 .493-.048.717-.136V-.5H-.724v.358C-.501-.048-.257 0 0 0" clip-path="url(#aJ)" style="fill:#dcdcdc;fill-opacity:1;fill-rule:nonzero;stroke:none" transform="matrix(1.33333 0 0 -1.33333 11.253 69.117)"/><path d="M0 0h1.441v-.359a2 2 0 0 0-.717-.135A1.8 1.8 0 0 0 0-.351Z" clip-path="url(#aK)" style="fill:#dcdcdc;fill-opacity:1;fill-rule:nonzero;stroke:none" transform="matrix(1.33333 0 0 -1.33333 10.288 65.874)"/><path d="M0 0c.251 0 .493.048.717.136v-2.21A2 2 0 0 1 0-1.94c-.257 0-.501-.047-.724-.141V.142C-.501.048-.257 0 0 0" clip-path="url(#aL)" style="fill:#32352f;fill-opacity:1;fill-rule:nonzero;stroke:none" transform="matrix(1.33333 0 0 -1.33333 11.253 77.298)"/><path d="M0 0c.251 0 .493-.048.717-.136V-.5H-.724v.358C-.501-.048-.257 0 0 0" clip-path="url(#aM)" style="fill:#dcdcdc;fill-opacity:1;fill-rule:nonzero;stroke:none" transform="matrix(1.33333 0 0 -1.33333 11.253 79.883)"/><path d="M0 0h1.441v-.359a2 2 0 0 0-.717-.135A1.8 1.8 0 0 0 0-.351Z" clip-path="url(#aN)" style="fill:#dcdcdc;fill-opacity:1;fill-rule:nonzero;stroke:none" transform="matrix(1.33333 0 0 -1.33333 10.288 76.64)"/><path d="M0 0c.251 0 .493.048.717.136v-2.21A2 2 0 0 1 0-1.94c-.257 0-.501-.047-.724-.141V.142C-.501.048-.257 0 0 0" clip-path="url(#aO)" style="fill:#32352f;fill-opacity:1;fill-rule:nonzero;stroke:none" transform="matrix(1.33333 0 0 -1.33333 24.162 24.283)"/><path d="M0 0c.251 0 .493-.048.717-.136V-.5H-.724v.358C-.501-.048-.257 0 0 0" clip-path="url(#aP)" style="fill:#dcdcdc;fill-opacity:1;fill-rule:nonzero;stroke:none" transform="matrix(1.33333 0 0 -1.33333 24.162 26.869)"/><path d="M0 0h1.441v-.359a2 2 0 0 0-.717-.135A1.8 1.8 0 0 0 0-.351Z" clip-path="url(#aQ)" style="fill:#dcdcdc;fill-opacity:1;fill-rule:nonzero;stroke:none" transform="matrix(1.33333 0 0 -1.33333 23.197 23.625)"/><path d="M0 0c.251 0 .493.048.717.136v-2.21A2 2 0 0 1 0-1.94c-.257 0-.501-.047-.724-.141V.142C-.501.048-.257 0 0 0" clip-path="url(#aR)" style="fill:#32352f;fill-opacity:1;fill-rule:nonzero;stroke:none" transform="matrix(1.33333 0 0 -1.33333 34.405 20.969)"/><path d="M0 0c.251 0 .493-.048.717-.136V-.5H-.724v.358C-.501-.048-.257 0 0 0" clip-path="url(#aS)" style="fill:#dcdcdc;fill-opacity:1;fill-rule:nonzero;stroke:none" transform="matrix(1.33333 0 0 -1.33333 34.405 23.555)"/><path d="M0 0h1.441v-.359a2 2 0 0 0-.717-.135A1.8 1.8 0 0 0 0-.351Z" clip-path="url(#aT)" style="fill:#dcdcdc;fill-opacity:1;fill-rule:nonzero;stroke:none" transform="matrix(1.33333 0 0 -1.33333 33.44 20.31)"/><path d="M0 0c.251 0 .493.048.717.136v-2.21A2 2 0 0 1 0-1.94c-.257 0-.501-.047-.724-.141V.142C-.501.048-.257 0 0 0" clip-path="url(#aU)" style="fill:#32352f;fill-opacity:1;fill-rule:nonzero;stroke:none" transform="matrix(1.33333 0 0 -1.33333 31.178 20.969)"/><path d="M0 0c.251 0 .493-.048.717-.136V-.5H-.724v.358C-.501-.048-.257 0 0 0" clip-path="url(#aV)" style="fill:#dcdcdc;fill-opacity:1;fill-rule:nonzero;stroke:none" transform="matrix(1.33333 0 0 -1.33333 31.178 23.555)"/><path d="M0 0h1.441v-.359a2 2 0 0 0-.717-.135A1.8 1.8 0 0 0 0-.351Z" clip-path="url(#aW)" style="fill:#dcdcdc;fill-opacity:1;fill-rule:nonzero;stroke:none" transform="matrix(1.33333 0 0 -1.33333 30.213 20.31)"/><path d="M0 0c0-.251.048-.493.136-.717h-2.21c.087.224.134.466.134.717 0 .257-.047.501-.141.724H.142A1.9 1.9 0 0 1 0 0" clip-path="url(#aX)" style="fill:#32352f;fill-opacity:1;fill-rule:nonzero;stroke:none" transform="matrix(1.33333 0 0 -1.33333 43.178 37.2)"/><path d="M0 0c0-.251-.048-.493-.136-.717H-.5V.724h.358C-.048.501 0 .257 0 0" clip-path="url(#aY)" style="fill:#dcdcdc;fill-opacity:1;fill-rule:nonzero;stroke:none" transform="matrix(1.33333 0 0 -1.33333 40.592 37.2)"/><path d="M0 0v-1.441h-.359a2 2 0 0 0-.135.717q0 .389.143.724z" clip-path="url(#aZ)" style="fill:#dcdcdc;fill-opacity:1;fill-rule:nonzero;stroke:none" transform="matrix(1.33333 0 0 -1.33333 43.836 36.234)"/><path d="M0 0c0-.251.048-.493.136-.717h-2.21c.087.224.134.466.134.717 0 .257-.047.501-.141.724H.142A1.9 1.9 0 0 1 0 0" clip-path="url(#ba)" style="fill:#32352f;fill-opacity:1;fill-rule:nonzero;stroke:none" transform="matrix(1.33333 0 0 -1.33333 43.178 33.972)"/><path d="M0 0c0-.251-.048-.493-.136-.717H-.5V.724h.358C-.048.501 0 .257 0 0" clip-path="url(#bb)" style="fill:#dcdcdc;fill-opacity:1;fill-rule:nonzero;stroke:none" transform="matrix(1.33333 0 0 -1.33333 40.592 33.972)"/><path d="M0 0v-1.441h-.359a2 2 0 0 0-.135.717q0 .389.143.724z" clip-path="url(#bc)" style="fill:#dcdcdc;fill-opacity:1;fill-rule:nonzero;stroke:none" transform="matrix(1.33333 0 0 -1.33333 43.836 33.007)"/><path d="M0 0c.251 0 .493.048.717.136v-2.21A2 2 0 0 1 0-1.94c-.257 0-.501-.047-.724-.141V.142C-.501.048-.257 0 0 0" clip-path="url(#bd)" style="fill:#8d9091;fill-opacity:1;fill-rule:nonzero;stroke:none" transform="matrix(1.33333 0 0 -1.33333 20.935 24.283)"/><path d="M0 0c.251 0 .493-.048.717-.136V-.5H-.724v.358C-.501-.048-.257 0 0 0" clip-path="url(#be)" style="fill:#dcdcdc;fill-opacity:1;fill-rule:nonzero;stroke:none" transform="matrix(1.33333 0 0 -1.33333 20.935 26.869)"/><path d="M0 0h1.441v-.359a2 2 0 0 0-.717-.135A1.8 1.8 0 0 0 0-.351Z" clip-path="url(#bf)" style="fill:#dcdcdc;fill-opacity:1;fill-rule:nonzero;stroke:none" transform="matrix(1.33333 0 0 -1.33333 19.97 23.625)"/><path d="M0 0c.251 0 .493.048.717.136v-2.21A2 2 0 0 1 0-1.94c-.257 0-.501-.047-.724-.141V.142C-.501.048-.257 0 0 0" clip-path="url(#bg)" style="fill:#8d9091;fill-opacity:1;fill-rule:nonzero;stroke:none" transform="matrix(1.33333 0 0 -1.33333 48.518 20.973)"/><path d="M0 0c.251 0 .493-.048.717-.136V-.5H-.724v.358C-.501-.048-.257 0 0 0" clip-path="url(#bh)" style="fill:#dcdcdc;fill-opacity:1;fill-rule:nonzero;stroke:none" transform="matrix(1.33333 0 0 -1.33333 48.518 23.559)"/><path d="M0 0h1.441v-.359a2 2 0 0 0-.717-.135A1.8 1.8 0 0 0 0-.351Z" clip-path="url(#bi)" style="fill:#dcdcdc;fill-opacity:1;fill-rule:nonzero;stroke:none" transform="matrix(1.33333 0 0 -1.33333 47.554 20.315)"/><path d="M0 0c.251 0 .493.048.717.136v-2.21A2 2 0 0 1 0-1.94c-.257 0-.501-.047-.724-.141V.142C-.501.048-.257 0 0 0" clip-path="url(#bj)" style="fill:#8d9091;fill-opacity:1;fill-rule:nonzero;stroke:none" transform="matrix(1.33333 0 0 -1.33333 24.162 11.345)"/><path d="M0 0c.251 0 .493-.048.717-.136V-.5H-.724v.358C-.501-.048-.257 0 0 0" clip-path="url(#bk)" style="fill:#dcdcdc;fill-opacity:1;fill-rule:nonzero;stroke:none" transform="matrix(1.33333 0 0 -1.33333 24.162 13.93)"/><path d="M0 0h1.441v-.359a2 2 0 0 0-.717-.135A1.8 1.8 0 0 0 0-.351Z" clip-path="url(#bl)" style="fill:#dcdcdc;fill-opacity:1;fill-rule:nonzero;stroke:none" transform="matrix(1.33333 0 0 -1.33333 23.197 10.687)"/><path d="M0 0c.251 0 .493.048.717.136v-2.21A2 2 0 0 1 0-1.94c-.257 0-.501-.047-.724-.141V.142C-.501.048-.257 0 0 0" clip-path="url(#bm)" style="fill:#8d9091;fill-opacity:1;fill-rule:nonzero;stroke:none" transform="matrix(1.33333 0 0 -1.33333 17.707 24.283)"/><path d="M0 0c.251 0 .493-.048.717-.136V-.5H-.724v.358C-.501-.048-.257 0 0 0" clip-path="url(#bn)" style="fill:#dcdcdc;fill-opacity:1;fill-rule:nonzero;stroke:none" transform="matrix(1.33333 0 0 -1.33333 17.707 26.869)"/><path d="M0 0h1.441v-.359a2 2 0 0 0-.717-.135A1.8 1.8 0 0 0 0-.351Z" clip-path="url(#bo)" style="fill:#dcdcdc;fill-opacity:1;fill-rule:nonzero;stroke:none" transform="matrix(1.33333 0 0 -1.33333 16.743 23.625)"/><path d="M0 0c.251 0 .493.048.717.136v-2.21A2 2 0 0 1 0-1.94c-.257 0-.501-.047-.724-.141V.142C-.501.048-.257 0 0 0" clip-path="url(#bp)" style="fill:#32352f;fill-opacity:1;fill-rule:nonzero;stroke:none" transform="matrix(1.33333 0 0 -1.33333 14.48 24.283)"/><path d="M0 0c.251 0 .493-.048.717-.136V-.5H-.724v.358C-.501-.048-.257 0 0 0" clip-path="url(#bq)" style="fill:#dcdcdc;fill-opacity:1;fill-rule:nonzero;stroke:none" transform="matrix(1.33333 0 0 -1.33333 14.48 26.869)"/><path d="M0 0h1.441v-.359a2 2 0 0 0-.717-.135A1.8 1.8 0 0 0 0-.351Z" clip-path="url(#br)" style="fill:#dcdcdc;fill-opacity:1;fill-rule:nonzero;stroke:none" transform="matrix(1.33333 0 0 -1.33333 13.515 23.625)"/><path d="M0 0c.251 0 .493.048.717.136v-2.21A2 2 0 0 1 0-1.94c-.257 0-.501-.047-.724-.141V.142C-.501.048-.257 0 0 0" clip-path="url(#bs)" style="fill:#8d9091;fill-opacity:1;fill-rule:nonzero;stroke:none" transform="matrix(1.33333 0 0 -1.33333 11.253 24.283)"/><path d="M0 0c.251 0 .493-.048.717-.136V-.5H-.724v.358C-.501-.048-.257 0 0 0" clip-path="url(#bt)" style="fill:#dcdcdc;fill-opacity:1;fill-rule:nonzero;stroke:none" transform="matrix(1.33333 0 0 -1.33333 11.253 26.869)"/><path d="M0 0h1.441v-.359a2 2 0 0 0-.717-.135A1.8 1.8 0 0 0 0-.351Z" clip-path="url(#bu)" style="fill:#dcdcdc;fill-opacity:1;fill-rule:nonzero;stroke:none" transform="matrix(1.33333 0 0 -1.33333 10.288 23.625)"/><path d="M0 0c.251 0 .493.048.717.136v-2.21A2 2 0 0 1 0-1.94c-.257 0-.501-.047-.724-.141V.142C-.501.048-.257 0 0 0" clip-path="url(#bv)" style="fill:#8d9091;fill-opacity:1;fill-rule:nonzero;stroke:none" transform="matrix(1.33333 0 0 -1.33333 11.253 32.817)"/><path d="M0 0c.251 0 .493-.048.717-.136V-.5H-.724v.358C-.501-.048-.257 0 0 0" clip-path="url(#bw)" style="fill:#dcdcdc;fill-opacity:1;fill-rule:nonzero;stroke:none" transform="matrix(1.33333 0 0 -1.33333 11.253 35.403)"/><path d="M0 0h1.441v-.359a2 2 0 0 0-.717-.135A1.8 1.8 0 0 0 0-.351Z" clip-path="url(#bx)" style="fill:#dcdcdc;fill-opacity:1;fill-rule:nonzero;stroke:none" transform="matrix(1.33333 0 0 -1.33333 10.288 32.159)"/><path d="M0 0c0-.251.048-.493.136-.717h-2.21c.087.224.134.466.134.717 0 .257-.047.501-.141.724H.142A1.9 1.9 0 0 1 0 0" clip-path="url(#by)" style="fill:#8d9091;fill-opacity:1;fill-rule:nonzero;stroke:none" transform="matrix(1.33333 0 0 -1.33333 47.364 54.521)"/><path d="M0 0c0-.251-.048-.493-.136-.717H-.5V.724h.358C-.048.501 0 .257 0 0" clip-path="url(#bz)" style="fill:#dcdcdc;fill-opacity:1;fill-rule:nonzero;stroke:none" transform="matrix(1.33333 0 0 -1.33333 44.779 54.521)"/><path d="M0 0v-1.441h-.359a2 2 0 0 0-.135.717q0 .389.143.724z" clip-path="url(#bA)" style="fill:#dcdcdc;fill-opacity:1;fill-rule:nonzero;stroke:none" transform="matrix(1.33333 0 0 -1.33333 48.023 53.556)"/><path d="M0 0c0-.251.048-.493.136-.717h-2.21c.087.224.134.466.134.717 0 .257-.047.501-.141.724H.142A1.9 1.9 0 0 1 0 0" clip-path="url(#bB)" style="fill:#8d9091;fill-opacity:1;fill-rule:nonzero;stroke:none" transform="matrix(1.33333 0 0 -1.33333 43.174 41.808)"/><path d="M0 0c0-.251-.048-.493-.136-.717H-.5V.724h.358C-.048.501 0 .257 0 0" clip-path="url(#bC)" style="fill:#dcdcdc;fill-opacity:1;fill-rule:nonzero;stroke:none" transform="matrix(1.33333 0 0 -1.33333 40.588 41.808)"/><path d="M0 0v-1.441h-.359a2 2 0 0 0-.135.717q0 .389.143.724z" clip-path="url(#bD)" style="fill:#dcdcdc;fill-opacity:1;fill-rule:nonzero;stroke:none" transform="matrix(1.33333 0 0 -1.33333 43.832 40.843)"/><path d="M0 0c0-.251.048-.493.136-.717h-2.21c.087.224.134.466.134.717 0 .257-.047.501-.141.724H.142A1.9 1.9 0 0 1 0 0" clip-path="url(#bE)" style="fill:#8d9091;fill-opacity:1;fill-rule:nonzero;stroke:none" transform="matrix(1.33333 0 0 -1.33333 61.632 47.317)"/><path d="M0 0c0-.251-.048-.493-.136-.717H-.5V.724h.358C-.048.501 0 .257 0 0" clip-path="url(#bF)" style="fill:#dcdcdc;fill-opacity:1;fill-rule:nonzero;stroke:none" transform="matrix(1.33333 0 0 -1.33333 59.046 47.317)"/><path d="M0 0v-1.441h-.359a2 2 0 0 0-.135.717q0 .389.143.724z" clip-path="url(#bG)" style="fill:#dcdcdc;fill-opacity:1;fill-rule:nonzero;stroke:none" transform="matrix(1.33333 0 0 -1.33333 62.29 46.352)"/><path d="M0 0c.251 0 .493.048.717.136v-2.21A2 2 0 0 1 0-1.94c-.257 0-.501-.047-.724-.141V.142C-.501.048-.257 0 0 0" clip-path="url(#bH)" style="fill:#8d9091;fill-opacity:1;fill-rule:nonzero;stroke:none" transform="matrix(1.33333 0 0 -1.33333 11.253 47.684)"/><path d="M0 0c.251 0 .493-.048.717-.136V-.5H-.724v.358C-.501-.048-.257 0 0 0" clip-path="url(#bI)" style="fill:#dcdcdc;fill-opacity:1;fill-rule:nonzero;stroke:none" transform="matrix(1.33333 0 0 -1.33333 11.253 50.27)"/><path d="M0 0h1.441v-.359a2 2 0 0 0-.717-.135A1.8 1.8 0 0 0 0-.351Z" clip-path="url(#bJ)" style="fill:#dcdcdc;fill-opacity:1;fill-rule:nonzero;stroke:none" transform="matrix(1.33333 0 0 -1.33333 10.288 47.026)"/><path d="M49.571 49.681H35.392V63.86h14.179z" clip-path="url(#bK)" style="fill:#32352f;fill-opacity:1;fill-rule:nonzero;stroke:none" transform="matrix(1.33333 0 0 -1.33333 -32.39 118.917)"/><path d="M38.038 63.86h-1.039v.715h1.039z" clip-path="url(#bL)" style="fill:#817e79;fill-opacity:1;fill-rule:nonzero;stroke:none" transform="matrix(1.33333 0 0 -1.33333 -32.39 118.917)"/><path d="M39.456 63.86h-1.039v.715h1.039z" clip-path="url(#bM)" style="fill:#817e79;fill-opacity:1;fill-rule:nonzero;stroke:none" transform="matrix(1.33333 0 0 -1.33333 -32.39 118.917)"/><path d="M40.874 63.86h-1.039v.715h1.039z" clip-path="url(#bN)" style="fill:#817e79;fill-opacity:1;fill-rule:nonzero;stroke:none" transform="matrix(1.33333 0 0 -1.33333 -32.39 118.917)"/><path d="M42.292 63.86h-1.039v.715h1.039z" clip-path="url(#bO)" style="fill:#817e79;fill-opacity:1;fill-rule:nonzero;stroke:none" transform="matrix(1.33333 0 0 -1.33333 -32.39 118.917)"/><path d="M43.71 63.86h-1.039v.715h1.039z" clip-path="url(#bP)" style="fill:#817e79;fill-opacity:1;fill-rule:nonzero;stroke:none" transform="matrix(1.33333 0 0 -1.33333 -32.39 118.917)"/><path d="M45.128 63.86h-1.039v.715h1.039z" clip-path="url(#bQ)" style="fill:#817e79;fill-opacity:1;fill-rule:nonzero;stroke:none" transform="matrix(1.33333 0 0 -1.33333 -32.39 118.917)"/><path d="M46.546 63.86h-1.039v.715h1.039z" clip-path="url(#bR)" style="fill:#817e79;fill-opacity:1;fill-rule:nonzero;stroke:none" transform="matrix(1.33333 0 0 -1.33333 -32.39 118.917)"/><path d="M47.963 63.86h-1.039v.715h1.039z" clip-path="url(#bS)" style="fill:#817e79;fill-opacity:1;fill-rule:nonzero;stroke:none" transform="matrix(1.33333 0 0 -1.33333 -32.39 118.917)"/><path d="M38.038 48.965h-1.039v.715h1.039z" clip-path="url(#bT)" style="fill:#817e79;fill-opacity:1;fill-rule:nonzero;stroke:none" transform="matrix(1.33333 0 0 -1.33333 -32.39 118.917)"/><path d="M39.456 48.965h-1.039v.715h1.039z" clip-path="url(#bU)" style="fill:#817e79;fill-opacity:1;fill-rule:nonzero;stroke:none" transform="matrix(1.33333 0 0 -1.33333 -32.39 118.917)"/><path d="M40.874 48.965h-1.039v.715h1.039z" clip-path="url(#bV)" style="fill:#817e79;fill-opacity:1;fill-rule:nonzero;stroke:none" transform="matrix(1.33333 0 0 -1.33333 -32.39 118.917)"/><path d="M42.292 48.965h-1.039v.715h1.039z" clip-path="url(#bW)" style="fill:#817e79;fill-opacity:1;fill-rule:nonzero;stroke:none" transform="matrix(1.33333 0 0 -1.33333 -32.39 118.917)"/><path d="M43.71 48.965h-1.039v.715h1.039Z" clip-path="url(#bX)" style="fill:#817e79;fill-opacity:1;fill-rule:nonzero;stroke:none" transform="matrix(1.33333 0 0 -1.33333 -32.39 118.917)"/><path d="M45.128 48.965h-1.039v.715h1.039z" clip-path="url(#bY)" style="fill:#817e79;fill-opacity:1;fill-rule:nonzero;stroke:none" transform="matrix(1.33333 0 0 -1.33333 -32.39 118.917)"/><path d="M46.546 48.965h-1.039v.715h1.039z" clip-path="url(#bZ)" style="fill:#817e79;fill-opacity:1;fill-rule:nonzero;stroke:none" transform="matrix(1.33333 0 0 -1.33333 -32.39 118.917)"/><path d="M47.963 48.965h-1.039v.715h1.039z" clip-path="url(#ca)" style="fill:#817e79;fill-opacity:1;fill-rule:nonzero;stroke:none" transform="matrix(1.33333 0 0 -1.33333 -32.39 118.917)"/><path d="M34.677 62.252h.715v-1.039h-.715z" clip-path="url(#cb)" style="fill:#817e79;fill-opacity:1;fill-rule:nonzero;stroke:none" transform="matrix(1.33333 0 0 -1.33333 -32.39 118.917)"/><path d="M34.677 60.834h.715v-1.039h-.715z" clip-path="url(#cc)" style="fill:#817e79;fill-opacity:1;fill-rule:nonzero;stroke:none" transform="matrix(1.33333 0 0 -1.33333 -32.39 118.917)"/><path d="M34.677 59.416h.715v-1.039h-.715z" clip-path="url(#cd)" style="fill:#817e79;fill-opacity:1;fill-rule:nonzero;stroke:none" transform="matrix(1.33333 0 0 -1.33333 -32.39 118.917)"/><path d="M34.677 57.998h.715v-1.039h-.715z" clip-path="url(#ce)" style="fill:#817e79;fill-opacity:1;fill-rule:nonzero;stroke:none" transform="matrix(1.33333 0 0 -1.33333 -32.39 118.917)"/><path d="M34.677 56.58h.715v-1.039h-.715z" clip-path="url(#cf)" style="fill:#817e79;fill-opacity:1;fill-rule:nonzero;stroke:none" transform="matrix(1.33333 0 0 -1.33333 -32.39 118.917)"/><path d="M34.677 55.163h.715v-1.039h-.715z" clip-path="url(#cg)" style="fill:#817e79;fill-opacity:1;fill-rule:nonzero;stroke:none" transform="matrix(1.33333 0 0 -1.33333 -32.39 118.917)"/><path d="M34.677 53.745h.715v-1.039h-.715z" clip-path="url(#ch)" style="fill:#817e79;fill-opacity:1;fill-rule:nonzero;stroke:none" transform="matrix(1.33333 0 0 -1.33333 -32.39 118.917)"/><path d="M34.677 52.327h.715v-1.039h-.715z" clip-path="url(#ci)" style="fill:#817e79;fill-opacity:1;fill-rule:nonzero;stroke:none" transform="matrix(1.33333 0 0 -1.33333 -32.39 118.917)"/><path d="M49.571 62.252h.715v-1.039h-.715z" clip-path="url(#cj)" style="fill:#817e79;fill-opacity:1;fill-rule:nonzero;stroke:none" transform="matrix(1.33333 0 0 -1.33333 -32.39 118.917)"/><path d="M49.571 60.834h.715v-1.039h-.715z" clip-path="url(#ck)" style="fill:#817e79;fill-opacity:1;fill-rule:nonzero;stroke:none" transform="matrix(1.33333 0 0 -1.33333 -32.39 118.917)"/><path d="M49.571 59.416h.715v-1.039h-.715z" clip-path="url(#cl)" style="fill:#817e79;fill-opacity:1;fill-rule:nonzero;stroke:none" transform="matrix(1.33333 0 0 -1.33333 -32.39 118.917)"/><path d="M49.571 57.998h.715v-1.039h-.715z" clip-path="url(#cm)" style="fill:#817e79;fill-opacity:1;fill-rule:nonzero;stroke:none" transform="matrix(1.33333 0 0 -1.33333 -32.39 118.917)"/><path d="M49.571 56.58h.715v-1.039h-.715z" clip-path="url(#cn)" style="fill:#817e79;fill-opacity:1;fill-rule:nonzero;stroke:none" transform="matrix(1.33333 0 0 -1.33333 -32.39 118.917)"/><path d="M49.571 55.163h.715v-1.039h-.715z" clip-path="url(#co)" style="fill:#817e79;fill-opacity:1;fill-rule:nonzero;stroke:none" transform="matrix(1.33333 0 0 -1.33333 -32.39 118.917)"/><path d="M49.571 53.745h.715v-1.039h-.715z" clip-path="url(#cp)" style="fill:#817e79;fill-opacity:1;fill-rule:nonzero;stroke:none" transform="matrix(1.33333 0 0 -1.33333 -32.39 118.917)"/><path d="M49.571 52.327h.715v-1.039h-.715z" clip-path="url(#cq)" style="fill:#817e79;fill-opacity:1;fill-rule:nonzero;stroke:none" transform="matrix(1.33333 0 0 -1.33333 -32.39 118.917)"/><path d="M0 0a.973.973 0 1 0-1.947.001A.973.973 0 0 0 0 0" clip-path="url(#cr)" style="fill:#817e79;fill-opacity:1;fill-rule:nonzero;stroke:none" transform="matrix(1.33333 0 0 -1.33333 18.833 36.508)"/><path d="M53.015 77.245h-8.183v8.183h8.183z" clip-path="url(#cs)" style="fill:#c5c5c5;fill-opacity:1;fill-rule:nonzero;stroke:none" transform="matrix(1.33333 0 0 -1.33333 -32.39 118.917)"/><path d="M53.015 83.541h.481v1.122h-.481z" clip-path="url(#ct)" style="fill:#8d9091;fill-opacity:1;fill-rule:nonzero;stroke:none" transform="matrix(1.33333 0 0 -1.33333 -32.39 118.917)"/><path d="M53.015 80.775h.481v1.122h-.481z" clip-path="url(#cu)" style="fill:#8d9091;fill-opacity:1;fill-rule:nonzero;stroke:none" transform="matrix(1.33333 0 0 -1.33333 -32.39 118.917)"/><path d="M53.015 78.009h.481v1.122h-.481z" clip-path="url(#cv)" style="fill:#8d9091;fill-opacity:1;fill-rule:nonzero;stroke:none" transform="matrix(1.33333 0 0 -1.33333 -32.39 118.917)"/><path d="M44.351 83.541h.481v1.122h-.481z" clip-path="url(#cw)" style="fill:#8d9091;fill-opacity:1;fill-rule:nonzero;stroke:none" transform="matrix(1.33333 0 0 -1.33333 -32.39 118.917)"/><path d="M44.351 80.775h.481v1.122h-.481z" clip-path="url(#cx)" style="fill:#8d9091;fill-opacity:1;fill-rule:nonzero;stroke:none" transform="matrix(1.33333 0 0 -1.33333 -32.39 118.917)"/><path d="M44.351 78.009h.481v1.122h-.481z" clip-path="url(#cy)" style="fill:#8d9091;fill-opacity:1;fill-rule:nonzero;stroke:none" transform="matrix(1.33333 0 0 -1.33333 -32.39 118.917)"/><path d="M49.792 76.764h1.122v.481h-1.122z" clip-path="url(#cz)" style="fill:#8d9091;fill-opacity:1;fill-rule:nonzero;stroke:none" transform="matrix(1.33333 0 0 -1.33333 -32.39 118.917)"/><path d="M48.362 76.764h1.122v.481h-1.122z" clip-path="url(#cA)" style="fill:#8d9091;fill-opacity:1;fill-rule:nonzero;stroke:none" transform="matrix(1.33333 0 0 -1.33333 -32.39 118.917)"/><path d="M46.932 76.764h1.122v.481h-1.122z" clip-path="url(#cB)" style="fill:#8d9091;fill-opacity:1;fill-rule:nonzero;stroke:none" transform="matrix(1.33333 0 0 -1.33333 -32.39 118.917)"/><path d="M49.792 85.428h1.122v.481h-1.122z" clip-path="url(#cC)" style="fill:#8d9091;fill-opacity:1;fill-rule:nonzero;stroke:none" transform="matrix(1.33333 0 0 -1.33333 -32.39 118.917)"/><path d="M48.362 85.428h1.122v.481h-1.122z" clip-path="url(#cD)" style="fill:#8d9091;fill-opacity:1;fill-rule:nonzero;stroke:none" transform="matrix(1.33333 0 0 -1.33333 -32.39 118.917)"/><path d="M46.932 85.428h1.122v.481h-1.122z" clip-path="url(#cE)" style="fill:#8d9091;fill-opacity:1;fill-rule:nonzero;stroke:none" transform="matrix(1.33333 0 0 -1.33333 -32.39 118.917)"/><path d="M68.943 77.245H60.76v8.183h8.183z" clip-path="url(#cF)" style="fill:#c5c5c5;fill-opacity:1;fill-rule:nonzero;stroke:none" transform="matrix(1.33333 0 0 -1.33333 -32.39 118.917)"/><path d="M68.943 83.541h.481v1.122h-.481z" clip-path="url(#cG)" style="fill:#8d9091;fill-opacity:1;fill-rule:nonzero;stroke:none" transform="matrix(1.33333 0 0 -1.33333 -32.39 118.917)"/><path d="M68.943 80.775h.481v1.122h-.481z" clip-path="url(#cH)" style="fill:#8d9091;fill-opacity:1;fill-rule:nonzero;stroke:none" transform="matrix(1.33333 0 0 -1.33333 -32.39 118.917)"/><path d="M68.943 78.009h.481v1.122h-.481z" clip-path="url(#cI)" style="fill:#8d9091;fill-opacity:1;fill-rule:nonzero;stroke:none" transform="matrix(1.33333 0 0 -1.33333 -32.39 118.917)"/><path d="M60.279 83.541h.481v1.122h-.481z" clip-path="url(#cJ)" style="fill:#8d9091;fill-opacity:1;fill-rule:nonzero;stroke:none" transform="matrix(1.33333 0 0 -1.33333 -32.39 118.917)"/><path d="M60.279 80.775h.481v1.122h-.481z" clip-path="url(#cK)" style="fill:#8d9091;fill-opacity:1;fill-rule:nonzero;stroke:none" transform="matrix(1.33333 0 0 -1.33333 -32.39 118.917)"/><path d="M60.279 78.009h.481v1.122h-.481z" clip-path="url(#cL)" style="fill:#8d9091;fill-opacity:1;fill-rule:nonzero;stroke:none" transform="matrix(1.33333 0 0 -1.33333 -32.39 118.917)"/><path d="M65.72 76.764h1.122v.481H65.72Z" clip-path="url(#cM)" style="fill:#8d9091;fill-opacity:1;fill-rule:nonzero;stroke:none" transform="matrix(1.33333 0 0 -1.33333 -32.39 118.917)"/><path d="M64.29 76.764h1.122v.481H64.29Z" clip-path="url(#cN)" style="fill:#8d9091;fill-opacity:1;fill-rule:nonzero;stroke:none" transform="matrix(1.33333 0 0 -1.33333 -32.39 118.917)"/><path d="M62.86 76.764h1.122v.481H62.86Z" clip-path="url(#cO)" style="fill:#8d9091;fill-opacity:1;fill-rule:nonzero;stroke:none" transform="matrix(1.33333 0 0 -1.33333 -32.39 118.917)"/><path d="M65.72 85.428h1.122v.481H65.72Z" clip-path="url(#cP)" style="fill:#8d9091;fill-opacity:1;fill-rule:nonzero;stroke:none" transform="matrix(1.33333 0 0 -1.33333 -32.39 118.917)"/><path d="M64.29 85.428h1.122v.481H64.29Z" clip-path="url(#cQ)" style="fill:#8d9091;fill-opacity:1;fill-rule:nonzero;stroke:none" transform="matrix(1.33333 0 0 -1.33333 -32.39 118.917)"/><path d="M62.86 85.428h1.122v.481H62.86Z" clip-path="url(#cR)" style="fill:#8d9091;fill-opacity:1;fill-rule:nonzero;stroke:none" transform="matrix(1.33333 0 0 -1.33333 -32.39 118.917)"/><path d="M58.274 50.681h-4.701v4.701h4.701z" clip-path="url(#cS)" style="fill:#32352f;fill-opacity:1;fill-rule:nonzero;stroke:none" transform="matrix(1.33333 0 0 -1.33333 -32.39 118.917)"/><path d="M54.94 55.383h-.968v.491h.968z" clip-path="url(#cT)" style="fill:#817e79;fill-opacity:1;fill-rule:nonzero;stroke:none" transform="matrix(1.33333 0 0 -1.33333 -32.39 118.917)"/><path d="M56.408 55.383h-.968v.491h.968z" clip-path="url(#cU)" style="fill:#817e79;fill-opacity:1;fill-rule:nonzero;stroke:none" transform="matrix(1.33333 0 0 -1.33333 -32.39 118.917)"/><path d="M57.876 55.383h-.968v.491h.968z" clip-path="url(#cV)" style="fill:#817e79;fill-opacity:1;fill-rule:nonzero;stroke:none" transform="matrix(1.33333 0 0 -1.33333 -32.39 118.917)"/><path d="M54.94 50.19h-.968v.491h.968z" clip-path="url(#cW)" style="fill:#817e79;fill-opacity:1;fill-rule:nonzero;stroke:none" transform="matrix(1.33333 0 0 -1.33333 -32.39 118.917)"/><path d="M56.408 50.19h-.968v.491h.968z" clip-path="url(#cX)" style="fill:#817e79;fill-opacity:1;fill-rule:nonzero;stroke:none" transform="matrix(1.33333 0 0 -1.33333 -32.39 118.917)"/><path d="M57.876 50.19h-.968v.491h.968z" clip-path="url(#cY)" style="fill:#817e79;fill-opacity:1;fill-rule:nonzero;stroke:none" transform="matrix(1.33333 0 0 -1.33333 -32.39 118.917)"/><path d="M0 0a.466.466 0 1 0-.933 0A.466.466 0 0 0 0 0" clip-path="url(#cZ)" style="fill:#817e79;fill-opacity:1;fill-rule:nonzero;stroke:none" transform="matrix(1.33333 0 0 -1.33333 44.777 46.273)"/><path d="M72.833 55.815h-7.107v7.107h7.107z" clip-path="url(#da)" style="fill:#32352f;fill-opacity:1;fill-rule:nonzero;stroke:none" transform="matrix(1.33333 0 0 -1.33333 -32.39 118.917)"/><path d="M67.609 62.922h-1.021v.307h1.021z" clip-path="url(#db)" style="fill:#817e79;fill-opacity:1;fill-rule:nonzero;stroke:none" transform="matrix(1.33333 0 0 -1.33333 -32.39 118.917)"/><path d="M69.063 62.922h-1.021v.307h1.021z" clip-path="url(#dc)" style="fill:#817e79;fill-opacity:1;fill-rule:nonzero;stroke:none" transform="matrix(1.33333 0 0 -1.33333 -32.39 118.917)"/><path d="M70.517 62.922h-1.021v.307h1.021z" clip-path="url(#dd)" style="fill:#817e79;fill-opacity:1;fill-rule:nonzero;stroke:none" transform="matrix(1.33333 0 0 -1.33333 -32.39 118.917)"/><path d="M71.971 62.922H70.95v.307h1.021z" clip-path="url(#de)" style="fill:#817e79;fill-opacity:1;fill-rule:nonzero;stroke:none" transform="matrix(1.33333 0 0 -1.33333 -32.39 118.917)"/><path d="M67.609 55.508h-1.021v.307h1.021z" clip-path="url(#df)" style="fill:#817e79;fill-opacity:1;fill-rule:nonzero;stroke:none" transform="matrix(1.33333 0 0 -1.33333 -32.39 118.917)"/><path d="M69.063 55.508h-1.021v.307h1.021z" clip-path="url(#dg)" style="fill:#817e79;fill-opacity:1;fill-rule:nonzero;stroke:none" transform="matrix(1.33333 0 0 -1.33333 -32.39 118.917)"/><path d="M70.517 55.508h-1.021v.307h1.021z" clip-path="url(#dh)" style="fill:#817e79;fill-opacity:1;fill-rule:nonzero;stroke:none" transform="matrix(1.33333 0 0 -1.33333 -32.39 118.917)"/><path d="M71.971 55.508H70.95v.307h1.021z" clip-path="url(#di)" style="fill:#817e79;fill-opacity:1;fill-rule:nonzero;stroke:none" transform="matrix(1.33333 0 0 -1.33333 -32.39 118.917)"/><path d="M0 0a.463.463 0 1 0-.925 0A.463.463 0 0 0 0 0" clip-path="url(#dj)" style="fill:#817e79;fill-opacity:1;fill-rule:nonzero;stroke:none" transform="matrix(1.33333 0 0 -1.33333 63.898 43.035)"/><path d="M40.874 37.258H37v9.291h3.874z" clip-path="url(#dk)" style="fill:#b9ada0;fill-opacity:1;fill-rule:nonzero;stroke:none" transform="matrix(1.33333 0 0 -1.33333 -32.39 118.917)"/><path d="M48.041 37.258h-3.874v9.291h3.874z" clip-path="url(#dl)" style="fill:#b9ada0;fill-opacity:1;fill-rule:nonzero;stroke:none" transform="matrix(1.33333 0 0 -1.33333 -32.39 118.917)"/><path d="M55.207 37.258h-3.874v9.291h3.874z" clip-path="url(#dm)" style="fill:#b9ada0;fill-opacity:1;fill-rule:nonzero;stroke:none" transform="matrix(1.33333 0 0 -1.33333 -32.39 118.917)"/><path d="M62.374 37.258H58.5v9.291h3.874z" clip-path="url(#dn)" style="fill:#b9ada0;fill-opacity:1;fill-rule:nonzero;stroke:none" transform="matrix(1.33333 0 0 -1.33333 -32.39 118.917)"/><path d="M69.541 37.258h-3.874v9.291h3.874z" clip-path="url(#do)" style="fill:#b9ada0;fill-opacity:1;fill-rule:nonzero;stroke:none" transform="matrix(1.33333 0 0 -1.33333 -32.39 118.917)"/><path d="M76.707 37.258h-3.874v9.291h3.874z" clip-path="url(#dp)" style="fill:#b9ada0;fill-opacity:1;fill-rule:nonzero;stroke:none" transform="matrix(1.33333 0 0 -1.33333 -32.39 118.917)"/><path d="M40.874 24.396H37v9.291h3.874z" clip-path="url(#dq)" style="fill:#b9ada0;fill-opacity:1;fill-rule:nonzero;stroke:none" transform="matrix(1.33333 0 0 -1.33333 -32.39 118.917)"/><path d="M48.041 24.396h-3.874v9.291h3.874z" clip-path="url(#dr)" style="fill:#b9ada0;fill-opacity:1;fill-rule:nonzero;stroke:none" transform="matrix(1.33333 0 0 -1.33333 -32.39 118.917)"/><path d="M55.207 24.396h-3.874v9.291h3.874z" clip-path="url(#ds)" style="fill:#b9ada0;fill-opacity:1;fill-rule:nonzero;stroke:none" transform="matrix(1.33333 0 0 -1.33333 -32.39 118.917)"/><path d="M62.374 24.396H58.5v9.291h3.874z" clip-path="url(#dt)" style="fill:#b9ada0;fill-opacity:1;fill-rule:nonzero;stroke:none" transform="matrix(1.33333 0 0 -1.33333 -32.39 118.917)"/><path d="M69.541 24.396h-3.874v9.291h3.874z" clip-path="url(#du)" style="fill:#b9ada0;fill-opacity:1;fill-rule:nonzero;stroke:none" transform="matrix(1.33333 0 0 -1.33333 -32.39 118.917)"/><path d="M76.707 24.396h-3.874v9.291h3.874z" clip-path="url(#dv)" style="fill:#b9ada0;fill-opacity:1;fill-rule:nonzero;stroke:none" transform="matrix(1.33333 0 0 -1.33333 -32.39 118.917)"/></svg>