<?xml version="1.0" encoding="utf-8"?>
<!-- Generator: Adobe Illustrator 25.0.1, SVG Export Plug-In . SVG Version: 6.00 Build 0)  -->
<svg version="1.1" id="Layer_1" xmlns="http://www.w3.org/2000/svg" xmlns:xlink="http://www.w3.org/1999/xlink" x="0px" y="0px"
	 viewBox="0 0 179.1 63.8" style="enable-background:new 0 0 179.1 63.8;" xml:space="preserve">
<style type="text/css">
	.st0{fill:#007481;}
	.st1{fill:#FFFFFF;}
	.st2{fill:#8C9091;}
	.st3{fill:#8B7866;}
	.st4{fill:none;}
	.st5{fill:#C3C5C6;}
	.st6{fill:#9EA2A3;}
	.st7{fill:#EBA900;}
	.st8{fill:#E65300;}
	.st9{fill:#ADB0B1;}
</style>
<g id="LWPOLYLINE">
	<path class="st0" d="M173,0.7V63c0,0.4-0.3,0.7-0.7,0.7H0.7C0.3,63.8,0,63.4,0,63V0.7C0,0.3,0.3,0,0.7,0h171.6
		C172.7,0,173,0.3,173,0.7C173,0.7,173,0.7,173,0.7z"/>
</g>
<path class="st1" d="M168.5,55.8c-1.9,0-3.4,1.5-3.4,3.4s1.5,3.4,3.4,3.4c1.9,0,3.4-1.5,3.4-3.4C171.9,57.3,170.4,55.8,168.5,55.8z"
	/>
<g id="CIRCLE">
	<path class="st1" d="M168.5,1.1c-1.9,0-3.4,1.5-3.4,3.4c0,1.9,1.5,3.4,3.4,3.4c1.9,0,3.4-1.5,3.4-3.4
		C171.9,2.7,170.4,1.1,168.5,1.1C168.5,1.1,168.5,1.1,168.5,1.1z"/>
</g>
<g id="CIRCLE-2">
	<path class="st1" d="M4.6,1.1c-1.9,0-3.4,1.5-3.4,3.4S2.7,8,4.6,8C6.4,8,8,6.4,8,4.6C8,2.7,6.4,1.1,4.6,1.1
		C4.6,1.1,4.6,1.1,4.6,1.1z"/>
</g>
<path class="st1" d="M4.6,55.8c-1.9,0-3.4,1.5-3.4,3.4c0,1.9,1.5,3.4,3.4,3.4c1.9,0,3.4-1.5,3.4-3.4C8,57.3,6.4,55.8,4.6,55.8
	C4.6,55.8,4.6,55.8,4.6,55.8z"/>
<path class="st2" d="M28.4,36.2c-0.1,0-0.2-0.2-0.2-0.4v-2.1c0-0.2,0.1-0.4,0.2-0.4h6.1c0.1,0,0.2,0.2,0.2,0.4v2.1
	c0,0.2-0.1,0.4-0.2,0.4H28.4z"/>
<path class="st2" d="M28.4,49.5c-0.1,0-0.2-0.2-0.2-0.4v-2.1c0-0.2,0.1-0.4,0.2-0.4h6.1c0.1,0,0.2,0.2,0.2,0.4v2.1
	c0,0.2-0.1,0.4-0.2,0.4L28.4,49.5z"/>
<path class="st2" d="M2.8,47.3c-0.1,0-0.2-0.2-0.2-0.4v-2.1c0-0.2,0.1-0.4,0.2-0.4h6.1c0.1,0,0.2,0.2,0.2,0.4V47
	c0,0.2-0.1,0.4-0.2,0.4L2.8,47.3z"/>
<path class="st2" d="M2.8,42.8c-0.1,0-0.2-0.2-0.2-0.4v-2.1c0-0.2,0.1-0.4,0.2-0.4h6.1c0.1,0,0.2,0.2,0.2,0.4v2.1
	c0,0.2-0.1,0.4-0.2,0.4L2.8,42.8z"/>
<path class="st2" d="M2.8,38.4c-0.1,0-0.2-0.2-0.2-0.4v-2.1c0-0.2,0.1-0.4,0.2-0.4h6.1c0.1,0,0.2,0.2,0.2,0.4V38
	c0,0.2-0.1,0.4-0.2,0.4H2.8z"/>
<g id="Disegno_8">
	<path class="st2" d="M55.6,49.7L55.6,49.7l0,2.6h0c0,0.7,0.6,1.2,1.3,1.2c0.7,0,1.2-0.6,1.2-1.2h0v-2.6c0-0.7-0.6-1.3-1.3-1.3
		C56.2,48.5,55.6,49,55.6,49.7C55.6,49.7,55.6,49.7,55.6,49.7L55.6,49.7z"/>
	<rect x="55.6" y="50.1" class="st3" width="2.5" height="1.9"/>
	<rect x="55.6" y="50.1" class="st3" width="2.5" height="1.9"/>
	<rect x="55.6" y="50.1" class="st3" width="2.5" height="1.9"/>
	<rect x="55.6" y="50.1" class="st3" width="2.5" height="1.9"/>
</g>
<polygon class="st4" points="18.1,36.3 17.7,36.3 17.3,36.4 16.9,36.5 16.5,36.7 16.1,36.9 15.8,37.1 15.4,37.3 15.1,37.6 
	14.8,37.9 14.6,38.2 14.3,38.5 14.1,38.9 13.9,39.2 13.7,39.6 13.6,40 13.5,40.4 13.5,40.8 13.4,41.2 13.5,41.7 13.5,42.1 
	13.6,42.5 13.7,42.9 13.8,43.3 14,43.7 14.2,44 14.4,44.4 14.7,44.7 15,45 15.3,45.3 15.6,45.5 16,45.7 16.3,45.9 16.7,46.1 
	17.1,46.2 17.5,46.3 17.9,46.4 18.3,46.4 18.7,46.4 19.1,46.4 19.6,46.3 20,46.2 20.4,46.1 20.7,45.9 21.1,45.7 21.4,45.5 
	21.8,45.3 22.1,45 22.4,44.7 22.6,44.4 22.9,44 23.1,43.7 23.2,43.3 23.4,42.9 23.5,42.5 23.6,42.1 23.6,41.7 23.6,41.2 23.6,40.8 
	23.5,40.4 23.4,40 23.3,39.6 23.2,39.2 23,38.9 22.8,38.5 22.5,38.2 22.2,37.9 21.9,37.6 21.6,37.3 21.3,37.1 20.9,36.9 20.5,36.7 
	20.1,36.5 19.8,36.4 19.4,36.3 18.9,36.3 18.5,36.3 "/>
<rect x="60.1" y="43.9" class="st2" width="11.9" height="9.1"/>
<rect x="61.1" y="45" class="st2" width="9.8" height="6.9"/>
<polygon class="st5" points="70.9,51.9 60.1,51.9 60.1,53 70.9,53 72,53 72,51.9 72,45 72,43.9 70.9,43.9 61.2,43.9 60.1,43.9 
	60.1,45 60.1,51.9 61.2,51.9 61.2,45 70.9,45 "/>
<g id="USB">
	<path class="st5" d="M160.8,36.2v1.3c0,0.1-0.1,0.2-0.2,0.2l0,0h-4.7c-0.1,0-0.2-0.1-0.2-0.2l0,0v-1.3c0-0.1,0.1-0.2,0.2-0.2h4.7
		C160.7,36,160.8,36.1,160.8,36.2L160.8,36.2z"/>
	<path class="st5" d="M155.9,35.3h4.7c0.1,0,0.2-0.1,0.2-0.2v-1.3c0-0.1-0.1-0.2-0.2-0.2h-4.7c-0.1,0-0.2,0.1-0.2,0.2c0,0,0,0,0,0
		v1.3C155.7,35.2,155.8,35.3,155.9,35.3C155.9,35.3,155.9,35.3,155.9,35.3z"/>
	<path class="st5" d="M160.8,31.4v1.3c0,0.1-0.1,0.2-0.2,0.2l0,0h-4.7c-0.1,0-0.2-0.1-0.2-0.2v-1.3c0-0.1,0.1-0.2,0.2-0.2h4.7
		C160.7,31.2,160.8,31.3,160.8,31.4z"/>
	<path class="st5" d="M160.8,29v1.3c0,0.1-0.1,0.2-0.2,0.2h-4.7c-0.1,0-0.2-0.1-0.2-0.2v0V29c0-0.1,0.1-0.2,0.2-0.2h4.7
		C160.7,28.8,160.8,28.9,160.8,29L160.8,29z"/>
	<path class="st5" d="M160.8,26.6v1.3c0,0.1-0.1,0.2-0.2,0.2h-4.7c-0.1,0-0.2-0.1-0.2-0.2v0v-1.3c0-0.1,0.1-0.2,0.2-0.2h4.7
		C160.7,26.3,160.8,26.4,160.8,26.6z"/>
	<rect x="158.4" y="18.7" class="st6" width="20.8" height="27.1"/>
	<polygon class="st2" points="160.5,18.7 158.4,18.7 158.4,18.8 158.4,45.8 158.4,45.8 160.5,45.8 160.5,45.8 160.5,45.8 	"/>
	<polygon class="st2" points="164.6,18.7 162.5,18.7 162.5,18.8 162.5,45.8 162.5,45.8 164.6,45.8 164.6,45.8 164.6,45.8 	"/>
	<polygon class="st2" points="168.8,18.7 166.7,18.7 166.7,18.8 166.7,45.8 166.7,45.8 168.8,45.8 168.8,45.8 168.8,45.8 	"/>
	<polygon class="st2" points="172.9,18.7 170.8,18.7 170.8,18.8 170.8,45.8 170.8,45.8 172.9,45.8 172.9,45.8 172.9,45.8 	"/>
	<polygon class="st2" points="177.1,18.7 175,18.7 175,18.8 175,45.8 175,45.8 177.1,45.8 177.1,45.8 177.1,45.8 	"/>
</g>
<g id="LED">
	<rect x="121" y="27.2" class="st2" width="3.8" height="9.6"/>
	<path class="st7" d="M123,29.1c1.6,0,2.9,1.3,2.9,2.9c0,1.6-1.3,2.9-2.9,2.9c-1.6,0-2.9-1.3-2.9-2.9C120,30.4,121.3,29.1,123,29.1z
		"/>
</g>
<g id="LED-2">
	<rect x="50.5" y="42.6" class="st2" width="3.8" height="9.6"/>
	<path class="st7" d="M52.4,44.4c1.6,0,2.9,1.3,2.9,2.9s-1.3,2.9-2.9,2.9s-2.9-1.3-2.9-2.9l0,0C49.4,45.7,50.7,44.4,52.4,44.4z"/>
</g>
<g id="LED-3">
	<rect x="43.6" y="42.6" class="st2" width="3.8" height="9.6"/>
	<path class="st7" d="M45.5,44.4c1.6,0,2.9,1.3,2.9,2.9s-1.3,2.9-2.9,2.9s-2.9-1.3-2.9-2.9l0,0C42.6,45.7,43.9,44.4,45.5,44.4z"/>
</g>
<g id="Disegno_21">
	<polygon points="29.5,9.5 25.9,9.5 23.4,12 22.6,12 20.1,9.5 16.5,9.5 14,12 13.2,12 10.7,9.5 7.1,9.5 4.6,12 4.6,15.6 4.6,21.4 
		4.6,25 7.1,27.6 10.7,27.6 13.2,25 14,25 16.5,27.6 20.1,27.6 22.6,25 23.4,25 25.9,27.6 29.5,27.6 32,25 32,21.4 32,15.6 32,12 	
		"/>
	<path class="st2" d="M26.1,23.2c0-0.9,0.7-1.6,1.6-1.6c0.9,0,1.6,0.7,1.6,1.6c0,0.9-0.7,1.6-1.6,1.6c0,0,0,0,0,0
		C26.8,24.8,26.1,24.1,26.1,23.2z"/>
	<path class="st2" d="M7.3,13.8c0-0.9,0.7-1.6,1.6-1.6c0.9,0,1.6,0.7,1.6,1.6c0,0.9-0.7,1.6-1.6,1.6c0,0,0,0,0,0
		C8,15.4,7.3,14.7,7.3,13.8C7.3,13.8,7.3,13.8,7.3,13.8z"/>
	<path class="st2" d="M16.7,13.8c0-0.9,0.7-1.6,1.6-1.6c0.9,0,1.6,0.7,1.6,1.6c0,0.9-0.7,1.6-1.6,1.6c0,0,0,0,0,0
		C17.4,15.4,16.7,14.7,16.7,13.8C16.7,13.8,16.7,13.8,16.7,13.8z"/>
	<path class="st2" d="M26.1,13.8c0-0.9,0.7-1.6,1.6-1.6c0.9,0,1.6,0.7,1.6,1.6c0,0.9-0.7,1.6-1.6,1.6c0,0,0,0,0,0
		C26.8,15.4,26.1,14.7,26.1,13.8C26.1,13.8,26.1,13.8,26.1,13.8z"/>
	<path class="st2" d="M7.3,23.2c0-0.9,0.7-1.6,1.6-1.6c0.9,0,1.6,0.7,1.6,1.6c0,0.9-0.7,1.6-1.6,1.6C8,24.8,7.3,24.1,7.3,23.2z"/>
	<path class="st2" d="M16.7,23.2c0-0.9,0.7-1.6,1.6-1.6c0.9,0,1.6,0.7,1.6,1.6s-0.7,1.6-1.6,1.6c0,0,0,0,0,0
		C17.4,24.8,16.7,24.1,16.7,23.2z"/>
</g>
<g id="Artwork_8">
	<polygon class="st0" points="47.4,18.7 47.4,18.7 47.4,22.3 49,22.3 49.1,22.3 50.5,22.3 50.6,22.3 52,22.3 52.1,22.3 52.5,22.3 
		52.7,22.3 53.1,22.3 53.2,22.3 53.6,22.3 53.7,22.3 55.1,22.3 55.2,22.3 56.6,22.3 56.8,22.3 58.3,22.3 58.3,18.7 58.3,18.7 
		58.3,15.1 56.8,15.1 56.6,15.1 55.2,15.1 55.1,15.1 53.7,15.1 53.6,15.1 53.2,15.1 53.1,15.1 52.7,15.1 52.5,15.1 52.1,15.1 
		52,15.1 50.6,15.1 50.5,15.1 49.1,15.1 49,15.1 47.4,15.1 	"/>
	<polygon class="st8" points="47.4,18.7 47.4,18.7 47.4,22.3 49,22.3 49.1,22.3 50.5,22.3 50.6,22.3 52,22.3 52.1,22.3 52.5,22.3 
		52.7,22.3 53.1,22.3 53.2,22.3 53.6,22.3 53.7,22.3 55.1,22.3 55.2,22.3 56.6,22.3 56.8,22.3 58.3,22.3 58.3,18.7 58.3,18.7 
		58.3,15.1 56.8,15.1 56.6,15.1 55.2,15.1 55.1,15.1 53.7,15.1 53.6,15.1 53.2,15.1 53.1,15.1 52.7,15.1 52.5,15.1 52.1,15.1 
		52,15.1 50.6,15.1 50.5,15.1 49.1,15.1 49,15.1 47.4,15.1 	"/>
	<polygon class="st3" points="47.4,18.7 47.4,18.7 47.4,22.3 49,22.3 49.1,22.3 50.5,22.3 50.6,22.3 52,22.3 52.1,22.3 52.5,22.3 
		52.7,22.3 53.1,22.3 53.2,22.3 53.6,22.3 53.7,22.3 55.1,22.3 55.2,22.3 56.6,22.3 56.8,22.3 58.3,22.3 58.3,18.7 58.3,18.7 
		58.3,15.1 56.8,15.1 56.6,15.1 55.2,15.1 55.1,15.1 53.7,15.1 53.6,15.1 53.2,15.1 53.1,15.1 52.7,15.1 52.5,15.1 52.1,15.1 
		52,15.1 50.6,15.1 50.5,15.1 49.1,15.1 49,15.1 47.4,15.1 	"/>
	<rect x="46.6" y="15.1" class="st2" width="0.9" height="7.2"/>
	<rect x="58.3" y="15.1" class="st2" width="0.9" height="7.2"/>
</g>
<path class="st5" d="M29.4,51.2V31.7H7.6v19.6L29.4,51.2z M13.5,40.8l0.1-0.4l0.1-0.4l0.1-0.4l0.2-0.4l0.2-0.4l0.2-0.3l0.3-0.3
	l0.3-0.3l0.3-0.3l0.3-0.3l0.3-0.2l0.4-0.2l0.4-0.2l0.4-0.2l0.4-0.1l0.4-0.1l0.4-0.1l0.4,0l0.4,0l0.4,0.1l0.4,0.1l0.4,0.1l0.4,0.2
	l0.4,0.2l0.4,0.2l0.3,0.2l0.3,0.3l0.3,0.3l0.3,0.3l0.3,0.3l0.2,0.3l0.2,0.4l0.2,0.4l0.1,0.4l0.1,0.4l0.1,0.4l0,0.4l0,0.4l0,0.4
	l-0.1,0.4l-0.1,0.4l-0.1,0.4l-0.2,0.4L22.9,44l-0.2,0.3l-0.3,0.3L22.1,45l-0.3,0.3l-0.3,0.3l-0.3,0.2l-0.4,0.2l-0.4,0.2L20,46.2
	l-0.4,0.1l-0.4,0.1l-0.4,0h-0.4l-0.4,0l-0.4-0.1l-0.4-0.1l-0.4-0.1l-0.4-0.2L16,45.7l-0.4-0.2l-0.3-0.3L15,45l-0.3-0.3l-0.3-0.3
	L14.2,44L14,43.7l-0.2-0.4l-0.2-0.4l-0.1-0.4l-0.1-0.4l0-0.4l0-0.4L13.5,40.8z"/>
<g id="Disegno_8-2">
	<path class="st2" d="M121.6,42L121.6,42l0,2.9h0c0,0.8,0.7,1.4,1.4,1.4c0.7,0,1.3-0.6,1.4-1.4h0V42c0-0.8-0.6-1.4-1.4-1.4
		S121.6,41.2,121.6,42L121.6,42z"/>
	<rect x="121.6" y="42.4" class="st3" width="2.8" height="2.1"/>
	<rect x="121.6" y="42.4" class="st3" width="2.8" height="2.1"/>
	<rect x="121.6" y="42.4" class="st3" width="2.8" height="2.1"/>
	<rect x="121.6" y="42.4" class="st3" width="2.8" height="2.1"/>
</g>
<g id="Disegno_8-3">
	<path class="st2" d="M121.6,19.2L121.6,19.2l0,2.9h0c0,0.8,0.7,1.4,1.4,1.4c0.7,0,1.3-0.6,1.4-1.4h0v-2.9c0-0.8-0.6-1.4-1.4-1.4
		S121.6,18.4,121.6,19.2L121.6,19.2z"/>
	<rect x="121.6" y="19.6" class="st3" width="2.8" height="2.1"/>
	<rect x="121.6" y="19.6" class="st3" width="2.8" height="2.1"/>
	<rect x="121.6" y="19.6" class="st3" width="2.8" height="2.1"/>
	<rect x="121.6" y="19.6" class="st3" width="2.8" height="2.1"/>
</g>
<g id="Disegno_8-4">
	<path class="st2" d="M69.8,17.6L69.8,17.6l0,2.6h0c0,0.7,0.6,1.2,1.3,1.2c0.7,0,1.2-0.6,1.2-1.2h0v-2.6c0-0.7-0.6-1.3-1.3-1.3
		C70.3,16.3,69.8,16.9,69.8,17.6C69.8,17.6,69.8,17.6,69.8,17.6z"/>
	<rect x="69.8" y="18" class="st3" width="2.5" height="1.9"/>
	<rect x="69.8" y="18" class="st3" width="2.5" height="1.9"/>
	<rect x="69.8" y="18" class="st3" width="2.5" height="1.9"/>
	<rect x="69.8" y="18" class="st3" width="2.5" height="1.9"/>
</g>
<g id="Disegno_8-5">
	<path class="st2" d="M63.4,17.6L63.4,17.6l0,2.6h0c0,0.7,0.6,1.2,1.3,1.2c0.7,0,1.2-0.6,1.2-1.2h0v-2.6c0-0.7-0.6-1.3-1.3-1.3
		S63.4,16.9,63.4,17.6C63.4,17.6,63.4,17.6,63.4,17.6L63.4,17.6z"/>
	<rect x="63.4" y="18" class="st3" width="2.5" height="1.9"/>
	<rect x="63.4" y="18" class="st3" width="2.5" height="1.9"/>
	<rect x="63.4" y="18" class="st3" width="2.5" height="1.9"/>
	<rect x="63.4" y="18" class="st3" width="2.5" height="1.9"/>
</g>
<g id="Artwork_3">
	<path class="st2" d="M68,8.6v3.7c0,0,0,0.1-0.1,0.1h-3.7c0,0-0.1,0-0.1-0.1c0,0,0,0,0,0V8.6c0,0,0-0.1,0.1-0.1L68,8.6
		C68,8.6,68,8.6,68,8.6z"/>
	<path class="st2" d="M63.8,8.6v3.7c0,0,0,0.1-0.1,0.1h-3.7c0,0-0.1,0-0.1-0.1V8.6c0,0,0-0.1,0.1-0.1L63.8,8.6
		C63.8,8.6,63.8,8.6,63.8,8.6z"/>
	<path class="st5" d="M62.5,12L62.5,12l1.5,0h0.1l1.5,0v0c0.9,0,1.6-0.8,1.5-1.6c0-0.8-0.7-1.5-1.5-1.5v0l-1.5,0H64l-1.5,0
		c-0.9,0-1.6,0.7-1.6,1.6C60.9,11.3,61.6,12,62.5,12C62.5,12,62.5,12,62.5,12z"/>
	<rect x="62.8" y="8.9" class="st0" width="2.3" height="3.2"/>
	<rect x="62.8" y="8.9" class="st8" width="2.3" height="3.2"/>
	<rect x="62.8" y="8.9" width="2.3" height="3.2"/>
</g>
<g id="Disegno_8-6">
	<path class="st2" d="M52,11.7L52,11.7l2.6,0v0c0.7,0,1.2-0.6,1.2-1.3c0-0.7-0.6-1.2-1.2-1.2v0H52c-0.7,0-1.3,0.6-1.3,1.3
		S51.3,11.7,52,11.7L52,11.7z"/>
	<rect x="52.3" y="9.2" class="st3" width="1.9" height="2.5"/>
	<rect x="52.3" y="9.2" class="st3" width="1.9" height="2.5"/>
	<rect x="52.3" y="9.2" class="st3" width="1.9" height="2.5"/>
	<rect x="52.3" y="9.2" class="st3" width="1.9" height="2.5"/>
</g>
<g id="Disegno_8-7">
	<path class="st2" d="M50.9,39.9L50.9,39.9l2.6,0v0c0.7,0,1.2-0.6,1.2-1.3c0-0.7-0.6-1.2-1.2-1.2v0h-2.6c-0.7,0-1.3,0.6-1.3,1.3
		C49.7,39.3,50.2,39.9,50.9,39.9z"/>
	<rect x="51.3" y="37.4" class="st3" width="1.9" height="2.5"/>
	<rect x="51.3" y="37.4" class="st3" width="1.9" height="2.5"/>
	<rect x="51.3" y="37.4" class="st3" width="1.9" height="2.5"/>
	<rect x="51.3" y="37.4" class="st3" width="1.9" height="2.5"/>
</g>
<g id="Disegno_8-8">
	<path class="st2" d="M44.3,39.9L44.3,39.9l2.6,0v0c0.7,0,1.2-0.6,1.2-1.3c0-0.7-0.6-1.2-1.2-1.2v0h-2.6c-0.7,0-1.3,0.6-1.3,1.3
		C43,39.3,43.6,39.9,44.3,39.9z"/>
	<rect x="44.6" y="37.4" class="st3" width="1.9" height="2.5"/>
	<rect x="44.6" y="37.4" class="st3" width="1.9" height="2.5"/>
	<rect x="44.6" y="37.4" class="st3" width="1.9" height="2.5"/>
	<rect x="44.6" y="37.4" class="st3" width="1.9" height="2.5"/>
</g>
<g id="Disegno_8-9">
	<path class="st2" d="M65.2,38.9L65.2,38.9l0,2.6h0c0,0.7,0.6,1.2,1.3,1.2c0.7,0,1.2-0.6,1.2-1.2h0v-2.6c0-0.7-0.6-1.3-1.3-1.3
		C65.8,37.6,65.2,38.2,65.2,38.9C65.2,38.9,65.2,38.9,65.2,38.9z"/>
	<rect x="65.2" y="39.2" class="st3" width="2.5" height="1.9"/>
	<rect x="65.2" y="39.2" class="st3" width="2.5" height="1.9"/>
	<rect x="65.2" y="39.2" class="st3" width="2.5" height="1.9"/>
	<rect x="65.2" y="39.2" class="st3" width="2.5" height="1.9"/>
</g>
<g id="Disegno_8-10">
	<path class="st2" d="M55.6,49.7L55.6,49.7l0,2.6h0c0,0.7,0.6,1.2,1.3,1.2c0.7,0,1.2-0.6,1.2-1.2h0v-2.6c0-0.7-0.6-1.3-1.3-1.3
		C56.2,48.5,55.6,49,55.6,49.7C55.6,49.7,55.6,49.7,55.6,49.7L55.6,49.7z"/>
	<rect x="55.6" y="50.1" class="st3" width="2.5" height="1.9"/>
	<rect x="55.6" y="50.1" class="st3" width="2.5" height="1.9"/>
	<rect x="55.6" y="50.1" class="st3" width="2.5" height="1.9"/>
	<rect x="55.6" y="50.1" class="st3" width="2.5" height="1.9"/>
</g>
<g id="Disegno_33">
	<polyline class="st0" points="95.6,49 79.1,32.5 79.1,32.5 94.6,17 94.6,17 96.7,17 96.7,17 112.2,32.5 112.2,32.5 95.6,49 
		95.6,49 	"/>
	<polyline class="st8" points="95.6,49 79.1,32.5 79.1,32.5 94.6,17 94.6,17 96.7,17 96.7,17 112.2,32.5 112.2,32.5 95.6,49 
		95.6,49 	"/>
	<polyline points="95.6,49 79.1,32.5 79.1,32.5 94.6,17 94.6,17 96.7,17 96.7,17 112.2,32.5 112.2,32.5 95.6,49 95.6,49 	"/>
	<rect x="109.8" y="33.4" transform="matrix(0.7071 -0.7071 0.7071 0.7071 8.2394 88.1611)" class="st2" width="1.4" height="1.4"/>
	<rect x="108.6" y="34.6" transform="matrix(0.7071 -0.7071 0.7071 0.7071 7.0343 87.662)" class="st2" width="1.4" height="1.4"/>
	<rect x="107.4" y="35.8" transform="matrix(0.7071 -0.7071 0.7071 0.7071 5.8291 87.1627)" class="st2" width="1.4" height="1.4"/>
	<rect x="106.2" y="37" transform="matrix(0.7071 -0.7071 0.7071 0.7071 4.624 86.6636)" class="st2" width="1.4" height="1.4"/>
	<rect x="105" y="38.2" transform="matrix(0.7071 -0.7071 0.7071 0.7071 3.4188 86.1644)" class="st2" width="1.4" height="1.4"/>
	<rect x="103.8" y="39.4" transform="matrix(0.7071 -0.7071 0.7071 0.7071 2.2136 85.6652)" class="st2" width="1.4" height="1.4"/>
	<rect x="102.6" y="40.7" transform="matrix(0.7071 -0.7071 0.7071 0.7071 1.0085 85.166)" class="st2" width="1.4" height="1.4"/>
	
		<rect x="101.4" y="41.9" transform="matrix(0.7071 -0.7071 0.7071 0.7071 -0.1967 84.6668)" class="st2" width="1.4" height="1.4"/>
	
		<rect x="100.2" y="43.1" transform="matrix(0.7071 -0.7071 0.7071 0.7071 -1.4019 84.1676)" class="st2" width="1.4" height="1.4"/>
	<rect x="99" y="44.3" transform="matrix(0.7071 -0.7071 0.7071 0.7071 -2.607 83.6684)" class="st2" width="1.4" height="1.4"/>
	<rect x="97.8" y="45.5" transform="matrix(0.7071 -0.7071 0.7071 0.7071 -3.8122 83.1692)" class="st2" width="1.4" height="1.4"/>
	<rect x="96.6" y="46.7" transform="matrix(0.7071 -0.7071 0.7071 0.7071 -5.0173 82.67)" class="st2" width="1.4" height="1.4"/>
	<rect x="93.3" y="16.9" transform="matrix(0.7071 -0.7071 0.7071 0.7071 15.1032 71.6009)" class="st2" width="1.4" height="1.4"/>
	<rect x="92.1" y="18.1" transform="matrix(0.7071 -0.7071 0.7071 0.7071 13.8954 71.0978)" class="st2" width="1.4" height="1.4"/>
	<rect x="90.8" y="19.3" transform="matrix(0.7071 -0.7071 0.7071 0.7071 12.6877 70.5947)" class="st2" width="1.4" height="1.4"/>
	<rect x="89.6" y="20.5" transform="matrix(0.7071 -0.7071 0.7071 0.7071 11.4851 70.0994)" class="st2" width="1.4" height="1.4"/>
	<rect x="88.4" y="21.7" transform="matrix(0.7071 -0.7071 0.7071 0.7071 10.2799 69.6002)" class="st2" width="1.4" height="1.4"/>
	<rect x="87.2" y="22.9" transform="matrix(0.7071 -0.7071 0.7071 0.7071 9.0747 69.101)" class="st2" width="1.4" height="1.4"/>
	<rect x="86" y="24.1" transform="matrix(0.7071 -0.7071 0.7071 0.7071 7.8696 68.6018)" class="st2" width="1.4" height="1.4"/>
	<rect x="84.8" y="25.3" transform="matrix(0.7071 -0.7071 0.7071 0.7071 6.6644 68.1027)" class="st2" width="1.4" height="1.4"/>
	<rect x="83.6" y="26.5" transform="matrix(0.7071 -0.7071 0.7071 0.7071 5.4593 67.6034)" class="st2" width="1.4" height="1.4"/>
	<rect x="82.4" y="27.7" transform="matrix(0.7071 -0.7071 0.7071 0.7071 4.2541 67.1042)" class="st2" width="1.4" height="1.4"/>
	<rect x="81.2" y="28.9" transform="matrix(0.7071 -0.7071 0.7071 0.7071 3.0489 66.6051)" class="st2" width="1.4" height="1.4"/>
	<rect x="80" y="30.1" transform="matrix(0.7071 -0.7071 0.7071 0.7071 1.8438 66.1058)" class="st2" width="1.4" height="1.4"/>
	<rect x="97.2" y="17.5" transform="matrix(0.7071 -0.7071 0.7071 0.7071 15.806 74.5326)" class="st2" width="1.4" height="1.4"/>
	<rect x="98.4" y="18.7" transform="matrix(0.7071 -0.7071 0.7071 0.7071 15.3068 75.7378)" class="st2" width="1.4" height="1.4"/>
	<rect x="99.6" y="19.9" transform="matrix(0.7071 -0.7071 0.7071 0.7071 14.8076 76.9429)" class="st2" width="1.4" height="1.4"/>
	
		<rect x="100.8" y="21.1" transform="matrix(0.7071 -0.7071 0.7071 0.7071 14.3084 78.1481)" class="st2" width="1.4" height="1.4"/>
	<rect x="102" y="22.3" transform="matrix(0.7071 -0.7071 0.7071 0.7071 13.8092 79.3532)" class="st2" width="1.4" height="1.4"/>
	<rect x="103.2" y="23.5" transform="matrix(0.7071 -0.7071 0.7071 0.7071 13.31 80.5584)" class="st2" width="1.4" height="1.4"/>
	
		<rect x="104.4" y="24.7" transform="matrix(0.7071 -0.7071 0.7071 0.7071 12.8108 81.7635)" class="st2" width="1.4" height="1.4"/>
	
		<rect x="105.6" y="25.9" transform="matrix(0.7071 -0.7071 0.7071 0.7071 12.3116 82.9687)" class="st2" width="1.4" height="1.4"/>
	
		<rect x="106.8" y="27.1" transform="matrix(0.7071 -0.7071 0.7071 0.7071 11.8124 84.1739)" class="st2" width="1.4" height="1.4"/>
	<rect x="108" y="28.3" transform="matrix(0.7071 -0.7071 0.7071 0.7071 11.3132 85.379)" class="st2" width="1.4" height="1.4"/>
	<rect x="109.2" y="29.5" transform="matrix(0.7071 -0.7071 0.7071 0.7071 10.814 86.5842)" class="st2" width="1.4" height="1.4"/>
	<rect x="80.6" y="34" transform="matrix(0.7071 -0.7071 0.7071 0.7071 -0.7441 67.6773)" class="st2" width="1.4" height="1.4"/>
	<rect x="81.8" y="35.2" transform="matrix(0.7071 -0.7071 0.7071 0.7071 -1.2434 68.8825)" class="st2" width="1.4" height="1.4"/>
	<rect x="83" y="36.4" transform="matrix(0.7071 -0.7071 0.7071 0.7071 -1.7425 70.0876)" class="st2" width="1.4" height="1.4"/>
	<rect x="84.2" y="37.6" transform="matrix(0.7071 -0.7071 0.7071 0.7071 -2.2417 71.2928)" class="st2" width="1.4" height="1.4"/>
	<rect x="85.4" y="38.8" transform="matrix(0.7071 -0.7071 0.7071 0.7071 -2.7409 72.4979)" class="st2" width="1.4" height="1.4"/>
	<rect x="86.6" y="40" transform="matrix(0.7071 -0.7071 0.7071 0.7071 -3.2401 73.7031)" class="st2" width="1.4" height="1.4"/>
	<rect x="87.8" y="41.3" transform="matrix(0.7071 -0.7071 0.7071 0.7071 -3.7393 74.9083)" class="st2" width="1.4" height="1.4"/>
	<rect x="89" y="42.5" transform="matrix(0.7071 -0.7071 0.7071 0.7071 -4.2385 76.1134)" class="st2" width="1.4" height="1.4"/>
	<rect x="90.2" y="43.7" transform="matrix(0.7071 -0.7071 0.7071 0.7071 -4.7362 77.323)" class="st2" width="1.4" height="1.4"/>
	<rect x="91.5" y="44.9" transform="matrix(0.7071 -0.7071 0.7071 0.7071 -5.2385 78.5189)" class="st2" width="1.4" height="1.4"/>
	<rect x="92.7" y="46.1" transform="matrix(0.7071 -0.7071 0.7071 0.7071 -5.7361 79.7289)" class="st2" width="1.4" height="1.4"/>
</g>
<g id="INSERT">
	<g id="CIRCLE-3">
		<path class="st1" d="M159.4,56.6c1.4,0,2.6,1.2,2.6,2.6s-1.2,2.6-2.6,2.6c-1.4,0-2.6-1.2-2.6-2.6C156.8,57.8,158,56.6,159.4,56.6z
			"/>
		<path class="st9" d="M159.4,61.1c-1,0-1.9-0.8-1.9-1.9c0-1,0.8-1.9,1.9-1.9c1,0,1.9,0.8,1.9,1.9c0,0,0,0,0,0
			C161.3,60.3,160.4,61.1,159.4,61.1z M159.4,62.6c1.9,0,3.4-1.5,3.4-3.4s-1.5-3.4-3.4-3.4s-3.4,1.5-3.4,3.4c0,0,0,0,0,0
			C156,61.1,157.5,62.6,159.4,62.6z"/>
	</g>
</g>
<g id="INSERT-2">
	<g id="CIRCLE-4">
		<path class="st1" d="M150.3,56.6c1.4,0,2.6,1.2,2.6,2.6c0,1.4-1.2,2.6-2.6,2.6c-1.4,0-2.6-1.2-2.6-2.6
			C147.7,57.8,148.9,56.6,150.3,56.6z"/>
		<path class="st9" d="M150.3,61.1c-1,0-1.9-0.8-1.9-1.9s0.8-1.9,1.9-1.9c1,0,1.9,0.8,1.9,1.9c0,0,0,0,0,0
			C152.2,60.3,151.3,61.1,150.3,61.1z M150.3,62.6c1.9,0,3.4-1.5,3.4-3.4s-1.5-3.4-3.4-3.4c-1.9,0-3.4,1.5-3.4,3.4c0,0,0,0,0,0
			C146.9,61.1,148.4,62.6,150.3,62.6z"/>
	</g>
</g>
<g id="INSERT-3">
	<g id="CIRCLE-5">
		<path class="st1" d="M141.2,56.6c1.4,0,2.6,1.2,2.6,2.6s-1.2,2.6-2.6,2.6c-1.4,0-2.6-1.2-2.6-2.6
			C138.6,57.8,139.7,56.6,141.2,56.6z"/>
		<path class="st9" d="M141.2,61.1c-1,0-1.9-0.8-1.9-1.9c0-1,0.8-1.9,1.9-1.9c1,0,1.9,0.8,1.9,1.9c0,0,0,0,0,0
			C143,60.3,142.2,61.1,141.2,61.1z M141.2,62.6c1.9,0,3.4-1.5,3.4-3.4s-1.5-3.4-3.4-3.4c-1.9,0-3.4,1.5-3.4,3.4c0,0,0,0,0,0
			C137.8,61.1,139.3,62.6,141.2,62.6z"/>
	</g>
</g>
<g id="INSERT-4">
	<g id="CIRCLE-6">
		<path class="st1" d="M132.1,56.6c1.4,0,2.6,1.2,2.6,2.6c0,1.4-1.2,2.6-2.6,2.6c-1.4,0-2.6-1.2-2.6-2.6
			C129.5,57.8,130.6,56.6,132.1,56.6z"/>
		<path class="st9" d="M132.1,61.1c-1,0-1.9-0.8-1.9-1.9c0-1,0.8-1.9,1.9-1.9c1,0,1.9,0.8,1.9,1.9c0,0,0,0,0,0
			C133.9,60.3,133.1,61.1,132.1,61.1z M132.1,62.6c1.9,0,3.4-1.5,3.4-3.4c0-1.9-1.5-3.4-3.4-3.4c-1.9,0-3.4,1.5-3.4,3.4c0,0,0,0,0,0
			C128.7,61.1,130.2,62.6,132.1,62.6z"/>
	</g>
</g>
<g id="INSERT-5">
	<g id="CIRCLE-7">
		<path class="st1" d="M123,56.6c1.4,0,2.6,1.2,2.6,2.6c0,1.4-1.2,2.6-2.6,2.6c-1.4,0-2.6-1.2-2.6-2.6
			C120.4,57.8,121.5,56.6,123,56.6z"/>
		<path class="st9" d="M123,61.1c-1,0-1.9-0.8-1.9-1.9c0-1,0.8-1.9,1.9-1.9c1,0,1.9,0.8,1.9,1.9c0,0,0,0,0,0
			C124.8,60.3,124,61.1,123,61.1z M123,62.6c1.9,0,3.4-1.5,3.4-3.4c0-1.9-1.5-3.4-3.4-3.4c-1.9,0-3.4,1.5-3.4,3.4c0,0,0,0,0,0
			C119.6,61.1,121.1,62.6,123,62.6z"/>
	</g>
</g>
<g id="INSERT-6">
	<g id="CIRCLE-8">
		<path class="st1" d="M113.9,56.6c1.4,0,2.6,1.2,2.6,2.6c0,1.4-1.2,2.6-2.6,2.6c-1.4,0-2.6-1.2-2.6-2.6
			C111.3,57.8,112.4,56.6,113.9,56.6z"/>
		<path class="st9" d="M113.9,61.1c-1,0-1.9-0.8-1.9-1.9c0-1,0.8-1.9,1.9-1.9c1,0,1.9,0.8,1.9,1.9c0,0,0,0,0,0
			C115.7,60.3,114.9,61.1,113.9,61.1z M113.9,62.6c1.9,0,3.4-1.5,3.4-3.4c0-1.9-1.5-3.4-3.4-3.4c-1.9,0-3.4,1.5-3.4,3.4c0,0,0,0,0,0
			C110.5,61.1,112,62.6,113.9,62.6z"/>
	</g>
</g>
<g id="INSERT-7">
	<g id="CIRCLE-9">
		<path class="st1" d="M104.8,56.6c1.4,0,2.6,1.2,2.6,2.6c0,1.4-1.2,2.6-2.6,2.6c-1.4,0-2.6-1.2-2.6-2.6
			C102.1,57.8,103.3,56.6,104.8,56.6z"/>
		<path class="st9" d="M104.8,61.1c-1,0-1.9-0.8-1.9-1.9c0-1,0.8-1.9,1.9-1.9c1,0,1.9,0.8,1.9,1.9c0,0,0,0,0,0
			C106.6,60.3,105.8,61.1,104.8,61.1z M104.8,62.6c1.9,0,3.4-1.5,3.4-3.4c0-1.9-1.5-3.4-3.4-3.4c-1.9,0-3.4,1.5-3.4,3.4c0,0,0,0,0,0
			C101.4,61.1,102.9,62.6,104.8,62.6z"/>
	</g>
</g>
<g id="INSERT-8">
	<g id="CIRCLE-10">
		<path class="st1" d="M95.7,56.6c1.4,0,2.6,1.2,2.6,2.6s-1.2,2.6-2.6,2.6c-1.4,0-2.6-1.2-2.6-2.6C93,57.8,94.2,56.6,95.7,56.6z"/>
		<path class="st9" d="M95.7,61.1c-1,0-1.9-0.8-1.9-1.9c0-1,0.8-1.9,1.9-1.9c1,0,1.9,0.8,1.9,1.9c0,0,0,0,0,0
			C97.5,60.3,96.7,61.1,95.7,61.1z M95.7,62.6c1.9,0,3.4-1.5,3.4-3.4c0-1.9-1.5-3.4-3.4-3.4c-1.9,0-3.4,1.5-3.4,3.4c0,0,0,0,0,0
			C92.3,61.1,93.8,62.6,95.7,62.6z"/>
	</g>
</g>
<g id="INSERT-9">
	<g id="CIRCLE-11">
		<path class="st1" d="M86.6,56.6c1.4,0,2.6,1.2,2.6,2.6s-1.2,2.6-2.6,2.6c-1.4,0-2.6-1.2-2.6-2.6C83.9,57.8,85.1,56.6,86.6,56.6z"
			/>
		<path class="st9" d="M86.6,61.1c-1,0-1.9-0.8-1.9-1.9c0-1,0.8-1.9,1.9-1.9c1,0,1.9,0.8,1.9,1.9c0,0,0,0,0,0
			C88.4,60.3,87.6,61.1,86.6,61.1z M86.6,62.6c1.9,0,3.4-1.5,3.4-3.4c0-1.9-1.5-3.4-3.4-3.4c-1.9,0-3.4,1.5-3.4,3.4c0,0,0,0,0,0
			C83.2,61.1,84.7,62.6,86.6,62.6z"/>
	</g>
</g>
<g id="INSERT-10">
	<g id="CIRCLE-12">
		<path class="st1" d="M77.4,56.6c1.4,0,2.6,1.2,2.6,2.6c0,1.4-1.2,2.6-2.6,2.6c-1.4,0-2.6-1.2-2.6-2.6C74.8,57.8,76,56.6,77.4,56.6
			z"/>
		<path class="st9" d="M77.4,61.1c-1,0-1.9-0.8-1.9-1.9c0-1,0.8-1.9,1.9-1.9c1,0,1.9,0.8,1.9,1.9c0,0,0,0,0,0
			C79.3,60.3,78.5,61.1,77.4,61.1z M77.4,62.6c1.9,0,3.4-1.5,3.4-3.4c0-1.9-1.5-3.4-3.4-3.4c-1.9,0-3.4,1.5-3.4,3.4c0,0,0,0,0,0
			C74.1,61.1,75.6,62.6,77.4,62.6z"/>
	</g>
</g>
<g id="INSERT-11">
	<g id="CIRCLE-13">
		<path class="st1" d="M68.3,56.6c1.4,0,2.6,1.2,2.6,2.6c0,1.4-1.2,2.6-2.6,2.6c-1.4,0-2.6-1.2-2.6-2.6
			C65.7,57.8,66.9,56.6,68.3,56.6z"/>
		<path class="st9" d="M68.3,61.1c-1,0-1.9-0.8-1.9-1.9c0-1,0.8-1.9,1.9-1.9c1,0,1.9,0.8,1.9,1.9c0,0,0,0,0,0
			C70.2,60.3,69.4,61.1,68.3,61.1z M68.3,62.6c1.9,0,3.4-1.5,3.4-3.4c0-1.9-1.5-3.4-3.4-3.4c-1.9,0-3.4,1.5-3.4,3.4c0,0,0,0,0,0
			C65,61.1,66.5,62.6,68.3,62.6z"/>
	</g>
</g>
<g id="INSERT-12">
	<g id="CIRCLE-14">
		<path class="st1" d="M59.2,56.6c1.4,0,2.6,1.2,2.6,2.6c0,1.4-1.2,2.6-2.6,2.6c-1.4,0-2.6-1.2-2.6-2.6
			C56.6,57.8,57.8,56.6,59.2,56.6z"/>
		<path class="st9" d="M59.2,61.1c-1,0-1.9-0.8-1.9-1.9c0-1,0.8-1.9,1.9-1.9c1,0,1.9,0.8,1.9,1.9c0,0,0,0,0,0
			C61.1,60.3,60.3,61.1,59.2,61.1z M59.2,62.6c1.9,0,3.4-1.5,3.4-3.4c0-1.9-1.5-3.4-3.4-3.4c-1.9,0-3.4,1.5-3.4,3.4c0,0,0,0,0,0
			C55.8,61.1,57.4,62.6,59.2,62.6z"/>
	</g>
</g>
<g id="INSERT-13">
	<g id="CIRCLE-15">
		<path class="st1" d="M50.1,56.6c1.4,0,2.6,1.2,2.6,2.6c0,1.4-1.2,2.6-2.6,2.6c-1.4,0-2.6-1.2-2.6-2.6
			C47.5,57.8,48.7,56.6,50.1,56.6z"/>
		<path class="st9" d="M50.1,61.1c-1,0-1.9-0.8-1.9-1.9c0-1,0.8-1.9,1.9-1.9c1,0,1.9,0.8,1.9,1.9c0,0,0,0,0,0
			C52,60.3,51.1,61.1,50.1,61.1z M50.1,62.6c1.9,0,3.4-1.5,3.4-3.4c0-1.9-1.5-3.4-3.4-3.4c-1.9,0-3.4,1.5-3.4,3.4c0,0,0,0,0,0
			C46.7,61.1,48.3,62.6,50.1,62.6z"/>
	</g>
</g>
<g id="INSERT-14">
	<g id="CIRCLE-16">
		<path class="st1" d="M41,56.6c1.4,0,2.6,1.2,2.6,2.6s-1.2,2.6-2.6,2.6c-1.4,0-2.6-1.2-2.6-2.6C38.4,57.8,39.6,56.6,41,56.6z"/>
		<path class="st9" d="M41,61.1c-1,0-1.9-0.8-1.9-1.9c0-1,0.8-1.9,1.9-1.9c1,0,1.9,0.8,1.9,1.9c0,0,0,0,0,0
			C42.9,60.3,42,61.1,41,61.1z M41,62.6c1.9,0,3.4-1.5,3.4-3.4c0-1.9-1.5-3.4-3.4-3.4c-1.9,0-3.4,1.5-3.4,3.4c0,0,0,0,0,0
			C37.6,61.1,39.1,62.6,41,62.6z"/>
	</g>
</g>
<g id="INSERT-15">
	<g id="CIRCLE-17">
		<path class="st1" d="M31.9,56.6c1.4,0,2.6,1.2,2.6,2.6s-1.2,2.6-2.6,2.6c-1.4,0-2.6-1.2-2.6-2.6C29.3,57.8,30.5,56.6,31.9,56.6z"
			/>
		<path class="st9" d="M31.9,61.1c-1,0-1.9-0.8-1.9-1.9c0-1,0.8-1.9,1.9-1.9c1,0,1.9,0.8,1.9,1.9c0,0,0,0,0,0
			C33.8,60.3,32.9,61.1,31.9,61.1z M31.9,62.6c1.9,0,3.4-1.5,3.4-3.4c0-1.9-1.5-3.4-3.4-3.4c-1.9,0-3.4,1.5-3.4,3.4c0,0,0,0,0,0
			C28.5,61.1,30,62.6,31.9,62.6z"/>
	</g>
</g>
<g id="INSERT-16">
	<g id="CIRCLE-18">
		<path class="st1" d="M22.8,56.6c1.4,0,2.6,1.2,2.6,2.6c0,1.4-1.2,2.6-2.6,2.6c-1.4,0-2.6-1.2-2.6-2.6
			C20.2,57.8,21.4,56.6,22.8,56.6z"/>
		<path class="st9" d="M22.8,61.1c-1,0-1.9-0.8-1.9-1.9c0-1,0.8-1.9,1.9-1.9c1,0,1.9,0.8,1.9,1.9c0,0,0,0,0,0
			C24.7,60.3,23.8,61.1,22.8,61.1z M22.8,62.6c1.9,0,3.4-1.5,3.4-3.4c0-1.9-1.5-3.4-3.4-3.4c-1.9,0-3.4,1.5-3.4,3.4c0,0,0,0,0,0
			C19.4,61.1,20.9,62.6,22.8,62.6z"/>
	</g>
</g>
<g id="INSERT-17">
	<rect x="10.3" y="55.9" class="st9" width="6.8" height="6.8"/>
	<g id="CIRCLE-19">
		<path class="st1" d="M13.7,56.6c1.4,0,2.6,1.2,2.6,2.6c0,1.4-1.2,2.6-2.6,2.6c-1.4,0-2.6-1.2-2.6-2.6
			C11.1,57.8,12.3,56.6,13.7,56.6z"/>
		<path class="st9" d="M13.7,61.1c-1,0-1.9-0.8-1.9-1.9c0-1,0.8-1.9,1.9-1.9s1.9,0.8,1.9,1.9c0,0,0,0,0,0
			C15.5,60.3,14.7,61.1,13.7,61.1z M13.7,62.6c1.9,0,3.4-1.5,3.4-3.4c0-1.9-1.5-3.4-3.4-3.4c-1.9,0-3.4,1.5-3.4,3.4c0,0,0,0,0,0
			C10.3,61.1,11.8,62.6,13.7,62.6z"/>
	</g>
</g>
<g id="INSERT-18">
	<g id="CIRCLE-20">
		<path class="st1" d="M159.4,1.9c1.4,0,2.6,1.2,2.6,2.6s-1.2,2.6-2.6,2.6c-1.4,0-2.6-1.2-2.6-2.6C156.8,3.1,158,1.9,159.4,1.9z"/>
		<path class="st9" d="M159.4,6.4c-1,0-1.9-0.8-1.9-1.9c0-1,0.8-1.9,1.9-1.9c1,0,1.9,0.8,1.9,1.9c0,0,0,0,0,0
			C161.3,5.6,160.4,6.4,159.4,6.4z M159.4,7.9c1.9,0,3.4-1.5,3.4-3.4s-1.5-3.4-3.4-3.4S156,2.7,156,4.6c0,0,0,0,0,0
			C156,6.4,157.5,7.9,159.4,7.9z"/>
	</g>
</g>
<g id="INSERT-19">
	<g id="CIRCLE-21">
		<path class="st1" d="M150.3,1.9c1.4,0,2.6,1.2,2.6,2.6c0,1.4-1.2,2.6-2.6,2.6c-1.4,0-2.6-1.2-2.6-2.6
			C147.7,3.1,148.9,1.9,150.3,1.9z"/>
		<path class="st9" d="M150.3,6.4c-1,0-1.9-0.8-1.9-1.9s0.8-1.9,1.9-1.9c1,0,1.9,0.8,1.9,1.9c0,0,0,0,0,0
			C152.2,5.6,151.3,6.4,150.3,6.4z M150.3,7.9c1.9,0,3.4-1.5,3.4-3.4s-1.5-3.4-3.4-3.4c-1.9,0-3.4,1.5-3.4,3.4c0,0,0,0,0,0
			C146.9,6.4,148.4,7.9,150.3,7.9z"/>
	</g>
</g>
<g id="INSERT-20">
	<g id="CIRCLE-22">
		<path class="st1" d="M141.2,1.9c1.4,0,2.6,1.2,2.6,2.6s-1.2,2.6-2.6,2.6c-1.4,0-2.6-1.2-2.6-2.6C138.6,3.1,139.7,1.9,141.2,1.9z"
			/>
		<path class="st9" d="M141.2,6.4c-1,0-1.9-0.8-1.9-1.9c0-1,0.8-1.9,1.9-1.9c1,0,1.9,0.8,1.9,1.9c0,0,0,0,0,0
			C143,5.6,142.2,6.4,141.2,6.4z M141.2,7.9c1.9,0,3.4-1.5,3.4-3.4s-1.5-3.4-3.4-3.4c-1.9,0-3.4,1.5-3.4,3.4c0,0,0,0,0,0
			C137.8,6.4,139.3,7.9,141.2,7.9z"/>
	</g>
</g>
<g id="INSERT-21">
	<g id="CIRCLE-23">
		<path class="st1" d="M132.1,1.9c1.4,0,2.6,1.2,2.6,2.6c0,1.4-1.2,2.6-2.6,2.6c-1.4,0-2.6-1.2-2.6-2.6
			C129.5,3.1,130.6,1.9,132.1,1.9z"/>
		<path class="st9" d="M132.1,6.4c-1,0-1.9-0.8-1.9-1.9c0-1,0.8-1.9,1.9-1.9c1,0,1.9,0.8,1.9,1.9c0,0,0,0,0,0
			C133.9,5.6,133.1,6.4,132.1,6.4z M132.1,7.9c1.9,0,3.4-1.5,3.4-3.4c0-1.9-1.5-3.4-3.4-3.4c-1.9,0-3.4,1.5-3.4,3.4c0,0,0,0,0,0
			C128.7,6.4,130.2,7.9,132.1,7.9z"/>
	</g>
</g>
<g id="INSERT-22">
	<g id="CIRCLE-24">
		<path class="st1" d="M123,1.9c1.4,0,2.6,1.2,2.6,2.6c0,1.4-1.2,2.6-2.6,2.6c-1.4,0-2.6-1.2-2.6-2.6C120.4,3.1,121.5,1.9,123,1.9z"
			/>
		<path class="st9" d="M123,6.4c-1,0-1.9-0.8-1.9-1.9c0-1,0.8-1.9,1.9-1.9c1,0,1.9,0.8,1.9,1.9c0,0,0,0,0,0
			C124.8,5.6,124,6.4,123,6.4z M123,7.9c1.9,0,3.4-1.5,3.4-3.4c0-1.9-1.5-3.4-3.4-3.4c-1.9,0-3.4,1.5-3.4,3.4c0,0,0,0,0,0
			C119.6,6.4,121.1,7.9,123,7.9z"/>
	</g>
</g>
<g id="INSERT-23">
	<g id="CIRCLE-25">
		<path class="st1" d="M113.9,1.9c1.4,0,2.6,1.2,2.6,2.6c0,1.4-1.2,2.6-2.6,2.6c-1.4,0-2.6-1.2-2.6-2.6
			C111.3,3.1,112.4,1.9,113.9,1.9z"/>
		<path class="st9" d="M113.9,6.4c-1,0-1.9-0.8-1.9-1.9c0-1,0.8-1.9,1.9-1.9c1,0,1.9,0.8,1.9,1.9c0,0,0,0,0,0
			C115.7,5.6,114.9,6.4,113.9,6.4z M113.9,7.9c1.9,0,3.4-1.5,3.4-3.4c0-1.9-1.5-3.4-3.4-3.4c-1.9,0-3.4,1.5-3.4,3.4c0,0,0,0,0,0
			C110.5,6.4,112,7.9,113.9,7.9z"/>
	</g>
</g>
<g id="INSERT-24">
	<g id="CIRCLE-26">
		<path class="st1" d="M104.8,1.9c1.4,0,2.6,1.2,2.6,2.6c0,1.4-1.2,2.6-2.6,2.6c-1.4,0-2.6-1.2-2.6-2.6
			C102.1,3.1,103.3,1.9,104.8,1.9z"/>
		<path class="st9" d="M104.8,6.4c-1,0-1.9-0.8-1.9-1.9c0-1,0.8-1.9,1.9-1.9c1,0,1.9,0.8,1.9,1.9c0,0,0,0,0,0
			C106.6,5.6,105.8,6.4,104.8,6.4z M104.8,7.9c1.9,0,3.4-1.5,3.4-3.4c0-1.9-1.5-3.4-3.4-3.4c-1.9,0-3.4,1.5-3.4,3.4c0,0,0,0,0,0
			C101.4,6.4,102.9,7.9,104.8,7.9z"/>
	</g>
</g>
<g id="INSERT-25">
	<g id="CIRCLE-27">
		<path class="st1" d="M95.7,1.9c1.4,0,2.6,1.2,2.6,2.6s-1.2,2.6-2.6,2.6C94.2,7.2,93,6,93,4.6C93,3.1,94.2,1.9,95.7,1.9z"/>
		<path class="st9" d="M95.7,6.4c-1,0-1.9-0.8-1.9-1.9c0-1,0.8-1.9,1.9-1.9c1,0,1.9,0.8,1.9,1.9c0,0,0,0,0,0
			C97.5,5.6,96.7,6.4,95.7,6.4z M95.7,7.9c1.9,0,3.4-1.5,3.4-3.4c0-1.9-1.5-3.4-3.4-3.4c-1.9,0-3.4,1.5-3.4,3.4c0,0,0,0,0,0
			C92.3,6.4,93.8,7.9,95.7,7.9z"/>
	</g>
</g>
<g id="INSERT-26">
	<g id="CIRCLE-28">
		<path class="st1" d="M86.6,1.9c1.4,0,2.6,1.2,2.6,2.6S88,7.2,86.6,7.2c-1.4,0-2.6-1.2-2.6-2.6C83.9,3.1,85.1,1.9,86.6,1.9z"/>
		<path class="st9" d="M86.6,6.4c-1,0-1.9-0.8-1.9-1.9c0-1,0.8-1.9,1.9-1.9c1,0,1.9,0.8,1.9,1.9c0,0,0,0,0,0
			C88.4,5.6,87.6,6.4,86.6,6.4L86.6,6.4z M86.6,7.9c1.9,0,3.4-1.5,3.4-3.4c0-1.9-1.5-3.4-3.4-3.4c-1.9,0-3.4,1.5-3.4,3.4
			c0,0,0,0,0,0C83.2,6.4,84.7,7.9,86.6,7.9z"/>
	</g>
</g>
<g id="INSERT-27">
	<g id="CIRCLE-29">
		<path class="st1" d="M77.4,1.9c1.4,0,2.6,1.2,2.6,2.6c0,1.4-1.2,2.6-2.6,2.6c-1.4,0-2.6-1.2-2.6-2.6C74.8,3.1,76,1.9,77.4,1.9z"/>
		<path class="st9" d="M77.4,6.4c-1,0-1.9-0.8-1.9-1.9c0-1,0.8-1.9,1.9-1.9c1,0,1.9,0.8,1.9,1.9c0,0,0,0,0,0
			C79.3,5.6,78.5,6.4,77.4,6.4z M77.4,7.9c1.9,0,3.4-1.5,3.4-3.4c0-1.9-1.5-3.4-3.4-3.4c-1.9,0-3.4,1.5-3.4,3.4c0,0,0,0,0,0
			C74.1,6.4,75.6,7.9,77.4,7.9z"/>
	</g>
</g>
<g id="INSERT-28">
	<g id="CIRCLE-30">
		<path class="st1" d="M68.3,1.9c1.4,0,2.6,1.2,2.6,2.6c0,1.4-1.2,2.6-2.6,2.6c-1.4,0-2.6-1.2-2.6-2.6C65.7,3.1,66.9,1.9,68.3,1.9z"
			/>
		<path class="st9" d="M68.3,6.4c-1,0-1.9-0.8-1.9-1.9c0-1,0.8-1.9,1.9-1.9c1,0,1.9,0.8,1.9,1.9c0,0,0,0,0,0
			C70.2,5.6,69.4,6.4,68.3,6.4z M68.3,7.9c1.9,0,3.4-1.5,3.4-3.4c0-1.9-1.5-3.4-3.4-3.4c-1.9,0-3.4,1.5-3.4,3.4c0,0,0,0,0,0
			C65,6.4,66.5,7.9,68.3,7.9z"/>
	</g>
</g>
<g id="INSERT-29">
	<g id="CIRCLE-31">
		<path class="st1" d="M59.2,1.9c1.4,0,2.6,1.2,2.6,2.6c0,1.4-1.2,2.6-2.6,2.6c-1.4,0-2.6-1.2-2.6-2.6C56.6,3.1,57.8,1.9,59.2,1.9z"
			/>
		<path class="st9" d="M59.2,6.4c-1,0-1.9-0.8-1.9-1.9c0-1,0.8-1.9,1.9-1.9c1,0,1.9,0.8,1.9,1.9c0,0,0,0,0,0
			C61.1,5.6,60.3,6.4,59.2,6.4z M59.2,7.9c1.9,0,3.4-1.5,3.4-3.4c0-1.9-1.5-3.4-3.4-3.4c-1.9,0-3.4,1.5-3.4,3.4c0,0,0,0,0,0
			C55.8,6.4,57.4,7.9,59.2,7.9z"/>
	</g>
</g>
<g id="INSERT-30">
	<g id="CIRCLE-32">
		<path class="st1" d="M50.1,1.9c1.4,0,2.6,1.2,2.6,2.6c0,1.4-1.2,2.6-2.6,2.6c-1.4,0-2.6-1.2-2.6-2.6C47.5,3.1,48.7,1.9,50.1,1.9z"
			/>
		<path class="st9" d="M50.1,6.4c-1,0-1.9-0.8-1.9-1.9c0-1,0.8-1.9,1.9-1.9c1,0,1.9,0.8,1.9,1.9c0,0,0,0,0,0
			C52,5.6,51.1,6.4,50.1,6.4z M50.1,7.9c1.9,0,3.4-1.5,3.4-3.4c0-1.9-1.5-3.4-3.4-3.4c-1.9,0-3.4,1.5-3.4,3.4c0,0,0,0,0,0
			C46.7,6.4,48.3,7.9,50.1,7.9z"/>
	</g>
</g>
<g id="INSERT-31">
	<g id="CIRCLE-33">
		<path class="st1" d="M41,1.9c1.4,0,2.6,1.2,2.6,2.6S42.5,7.2,41,7.2c-1.4,0-2.6-1.2-2.6-2.6C38.4,3.1,39.6,1.9,41,1.9z"/>
		<path class="st9" d="M41,6.4c-1,0-1.9-0.8-1.9-1.9c0-1,0.8-1.9,1.9-1.9c1,0,1.9,0.8,1.9,1.9c0,0,0,0,0,0C42.9,5.6,42,6.4,41,6.4z
			 M41,7.9c1.9,0,3.4-1.5,3.4-3.4c0-1.9-1.5-3.4-3.4-3.4c-1.9,0-3.4,1.5-3.4,3.4c0,0,0,0,0,0C37.6,6.4,39.1,7.9,41,7.9z"/>
	</g>
</g>
<g id="INSERT-32">
	<g id="CIRCLE-34">
		<path class="st1" d="M31.9,1.9c1.4,0,2.6,1.2,2.6,2.6s-1.2,2.6-2.6,2.6c-1.4,0-2.6-1.2-2.6-2.6C29.3,3.1,30.5,1.9,31.9,1.9z"/>
		<path class="st9" d="M31.9,6.4c-1,0-1.9-0.8-1.9-1.9c0-1,0.8-1.9,1.9-1.9c1,0,1.9,0.8,1.9,1.9c0,0,0,0,0,0
			C33.8,5.6,32.9,6.4,31.9,6.4z M31.9,7.9c1.9,0,3.4-1.5,3.4-3.4c0-1.9-1.5-3.4-3.4-3.4c-1.9,0-3.4,1.5-3.4,3.4c0,0,0,0,0,0
			C28.5,6.4,30,7.9,31.9,7.9z"/>
	</g>
</g>
<g id="INSERT-33">
	<g id="CIRCLE-35">
		<path class="st1" d="M22.8,1.9c1.4,0,2.6,1.2,2.6,2.6c0,1.4-1.2,2.6-2.6,2.6c-1.4,0-2.6-1.2-2.6-2.6C20.2,3.1,21.4,1.9,22.8,1.9z"
			/>
		<path class="st9" d="M22.8,6.4c-1,0-1.9-0.8-1.9-1.9c0-1,0.8-1.9,1.9-1.9c1,0,1.9,0.8,1.9,1.9c0,0,0,0,0,0
			C24.7,5.6,23.8,6.4,22.8,6.4z M22.8,7.9c1.9,0,3.4-1.5,3.4-3.4c0-1.9-1.5-3.4-3.4-3.4c-1.9,0-3.4,1.5-3.4,3.4c0,0,0,0,0,0
			C19.4,6.4,20.9,7.9,22.8,7.9z"/>
	</g>
</g>
<g id="INSERT-34">
	<g id="CIRCLE-36">
		<path class="st1" d="M13.7,1.9c1.4,0,2.6,1.2,2.6,2.6c0,1.4-1.2,2.6-2.6,2.6c-1.4,0-2.6-1.2-2.6-2.6C11.1,3.1,12.3,1.9,13.7,1.9z"
			/>
		<path class="st9" d="M13.7,6.4c-1,0-1.9-0.8-1.9-1.9c0-1,0.8-1.9,1.9-1.9c1,0,1.9,0.8,1.9,1.9c0,0,0,0,0,0
			C15.5,5.6,14.7,6.4,13.7,6.4z M13.7,7.9c1.9,0,3.4-1.5,3.4-3.4c0-1.9-1.5-3.4-3.4-3.4c-1.9,0-3.4,1.5-3.4,3.4c0,0,0,0,0,0
			C10.3,6.4,11.8,7.9,13.7,7.9z"/>
	</g>
</g>
</svg>
