<?xml version="1.0" encoding="UTF-8"?>
<svg id="_2018_Version" data-name="2018 Version" xmlns="http://www.w3.org/2000/svg" width="63.19523mm" height="22.49089mm" viewBox="0 0 179.1361 63.7537">
  <defs>
    <style>
      .cls-1 {
        fill: none;
      }

      .cls-2 {
        fill: #8c9091;
      }

      .cls-3 {
        fill: #9ea2a3;
      }

      .cls-4 {
        fill: #fff;
      }

      .cls-5 {
        fill: #c3c5c6;
      }

      .cls-6 {
        fill: #8b7866;
      }

      .cls-7 {
        fill: #e65300;
      }

      .cls-8 {
        fill: #adb0b1;
      }

      .cls-9 {
        fill: #eba900;
      }

      .cls-10 {
        fill: #007481;
      }

      .cls-11 {
        fill: #dae3e3;
      }
    </style>
  </defs>
  <g>
    <g id="LWPOLYLINE">
      <rect class="cls-10" width="173.0411" height="63.7537" rx=".7191" ry=".7191"/>
    </g>
    <path class="cls-4" d="M168.4876,55.7846c-1.8865,0-3.4156,1.5292-3.4156,3.4151,0,1.8858,1.5291,3.415,3.4156,3.415s3.4157-1.5292,3.4157-3.415c0-1.8859-1.5292-3.4151-3.4157-3.4151h0Z"/>
    <g id="CIRCLE">
      <path class="cls-4" d="M168.4876,1.13889c-1.8865,0-3.4156,1.52921-3.4156,3.41571,0,1.8858,1.5291,3.4144,3.4156,3.4144s3.4157-1.5286,3.4157-3.4144c0-1.8865-1.5292-3.41571-3.4157-3.41571h0Z"/>
    </g>
    <g id="CIRCLE-2" data-name="CIRCLE">
      <path class="cls-4" d="M4.5521,1.1383c-1.88519,0-3.415,1.5291-3.415,3.4163,0,1.8858,1.52981,3.415,3.415,3.415,1.8865,0,3.4164-1.5292,3.4164-3.415,0-1.8872-1.5299-3.4163-3.4164-3.4163h0Z"/>
    </g>
    <path class="cls-4" d="M4.5521,55.7841c-1.88519,0-3.415,1.5291-3.415,3.4156s1.52981,3.4156,3.415,3.4156c1.8865,0,3.4164-1.5291,3.4164-3.4156s-1.5299-3.4156-3.4164-3.4156h0Z"/>
    <g>
      <path class="cls-2" d="M28.4362,36.1784c-.13129,0-.2404-.1611-.2404-.3592v-2.091c0-.1981.10911-.3592.2404-.3592h6.1166c.1313,0,.2402.1611.2402.3592v2.091c0,.1981-.1089.3592-.2402.3592h-6.1166Z"/>
      <path class="cls-2" d="M28.4362,49.5084c-.13129,0-.2404-.1611-.2404-.3593v-2.0908c0-.1982.10911-.3592.2404-.3592h6.1166c.1313,0,.2402.161.2402.3592v2.0908c0,.1982-.1089.3593-.2402.3593h-6.1166Z"/>
    </g>
    <g>
      <path class="cls-2" d="M2.7883,47.31c-.1338,0-.2453-.16111-.2453-.3592v-2.09091c0-.19819.1115-.35919.2453-.35919h6.0645c.1363,0,.2453.161.2453.35919v2.09091c0,.19809-.109.3592-.2453.3592H2.7883Z"/>
      <path class="cls-2" d="M2.7883,42.8433c-.1338,0-.2453-.1611-.2453-.3592v-2.0908c0-.1983.1115-.3592.2453-.3592h6.0645c.1363,0,.2453.1609.2453.3592v2.0908c0,.1981-.109.3592-.2453.3592H2.7883Z"/>
      <path class="cls-2" d="M2.7883,38.3766c-.1338,0-.2453-.161-.2453-.3592v-2.0908c0-.1982.1115-.3592.2453-.3592h6.0645c.1363,0,.2453.161.2453.3592v2.0908c0,.1982-.109.3592-.2453.3592H2.7883Z"/>
    </g>
    <g id="Disegno_8" data-name="Disegno 8">
      <path class="cls-2" d="M55.6238,49.7392h-.00089v2.5752h.01019c.0267.6779.5757,1.2223,1.2603,1.2223.68451,0,1.23451-.5444,1.2611-1.2223h.0093v-2.5752c0-.7019-.5694-1.2702-1.2704-1.2702-.7011,0-1.2696.5683-1.2696,1.2702Z"/>
      <g>
        <rect class="cls-6" x="55.62291" y="50.07989" width="2.54089" height="1.879"/>
        <rect class="cls-6" x="55.62291" y="50.07989" width="2.54089" height="1.879"/>
        <rect class="cls-6" x="55.62291" y="50.07989" width="2.54089" height="1.879"/>
        <rect class="cls-6" x="55.62291" y="50.07989" width="2.54089" height="1.879"/>
      </g>
    </g>
    <polygon class="cls-1" points="18.1074 36.289 17.7015 36.3397 17.2956 36.4285 16.9024 36.5427 16.5092 36.69489 16.1287 36.8598 15.7735 37.0754 15.4438 37.3164 15.114 37.5827 14.8222 37.8745 14.55591 38.1916 14.3022 38.5214 14.0866 38.8638 13.8963 39.2444 13.7441 39.62489 13.6173 40.0181 13.5285 40.424 13.4651 40.8425 13.4397 41.2484 13.4524 41.667 13.4904 42.07289 13.5665 42.4914 13.668 42.8847 13.8202 43.27789 13.9851 43.6584 14.188 44.0135 14.4164 44.356 14.6827 44.6858 14.9618 44.9902 15.2662 45.2566 15.596 45.52289 15.9511 45.7385 16.31891 45.9288 16.6995 46.1064 17.0927 46.2332 17.48591 46.3347 17.9044 46.3981 18.3103 46.4362 18.72891 46.4362 19.1475 46.3981 19.5534 46.3347 19.9593 46.2332 20.3525 46.1064 20.7203 45.9288 21.1008 45.7385 21.4433 45.52289 21.7731 45.2566 22.0902 44.9902 22.3692 44.6858 22.62291 44.356 22.86391 44.0135 23.0541 43.6584 23.2317 43.27789 23.3712 42.8847 23.4854 42.4914 23.5615 42.07289 23.5996 41.667 23.6122 41.2484 23.58691 40.8425 23.5234 40.424 23.4347 40.0181 23.3078 39.62489 23.1556 39.2444 22.9654 38.8638 22.7497 38.5214 22.496 38.1916 22.217 37.8745 21.9253 37.5827 21.6082 37.3164 21.2784 37.0754 20.9105 36.8598 20.5427 36.69489 20.1495 36.5427 19.7563 36.4285 19.3504 36.3397 18.9318 36.289 18.526 36.2763 18.1074 36.289"/>
    <rect class="cls-2" x="60.1053" y="43.91889" width="11.9061" height="9.07071"/>
    <rect class="cls-2" x="61.1432" y="44.9755" width="9.793" height="6.9186"/>
    <polygon class="cls-5" points="70.9362 51.91389 60.1053 51.91389 60.1053 52.9896 70.9362 52.9896 72.0114 52.9896 72.0114 51.91389 72.0114 44.9946 72.0114 43.91889 70.9362 43.91889 61.1804 43.91889 60.1053 43.91889 60.1053 44.9946 60.1053 51.8941 61.1804 51.8941 61.1804 44.9946 70.9362 44.9946 70.9362 51.91389"/>
    <g id="USB">
      <g>
        <path class="cls-5" d="M155.89829,36.034h4.71452c.11551,0,.20929.09378.20929.20929v1.2659c0,.11629-.09441.2107-.2107.2107h-4.7143c-.11485,0-.2081-.09325-.2081-.2081v-1.2685c0-.11551.09378-.20929.20929-.20929Z"/>
        <path class="cls-5" d="M155.8971,35.2984h4.7144c.1165,0,.2106-.0942.2106-.2082v-1.2658c0-.11651-.0941-.2131-.2106-.2131h-4.7144c-.1164,0-.2081.09659-.2081.2131v1.2658c0,.114.0917.2082.2081.2082Z"/>
        <path class="cls-5" d="M155.8996,31.1933h4.7119c.11623,0,.2106.09437.2106.2106v1.2671c0,.11491-.09329.2082-.2082.2082h-4.7168c-.11485,0-.2081-.09325-.2081-.2081v-1.2672c0-.11623.09437-.2106.2106-.2106Z"/>
        <path class="cls-5" d="M155.8971,28.7706h4.7169c.11485,0,.2081.09325.2081.2081v1.2659c0,.11618-.09432.2105-.2105.2105h-4.7145c-.11485,0-.2081-.09325-.2081-.2081v-1.2683c0-.11485.09325-.2081.2081-.2081Z"/>
        <path class="cls-5" d="M155.8996,26.3477h4.7119c.11623,0,.2106.09437.2106.2106v1.266c0,.11618-.09432.2105-.2105.2105h-4.7145c-.11485,0-.2081-.09325-.2081-.2081v-1.2684c0-.11623.09437-.2106.2106-.2106Z"/>
        <g>
          <rect class="cls-3" x="158.38191" y="18.7215" width="20.75419" height="27.1138"/>
          <polygon class="cls-2" points="160.4596 18.7215 158.38191 18.7215 158.38191 18.7657 158.38191 45.7611 158.38191 45.8353 160.4596 45.8353 160.4596 45.7611 160.4596 45.7611 160.4596 18.7215"/>
          <polygon class="cls-2" points="164.615 18.7215 162.5373 18.7215 162.5373 18.7657 162.5373 45.7611 162.5373 45.8353 164.615 45.8353 164.615 45.7611 164.615 45.7611 164.615 18.7215"/>
          <polygon class="cls-2" points="168.7704 18.7215 166.6927 18.7215 166.6927 18.7657 166.6927 45.7611 166.6927 45.8353 168.7704 45.8353 168.7704 45.7611 168.7704 45.7611 168.7704 18.7215"/>
          <polygon class="cls-2" points="172.9256 18.7215 170.848 18.7215 170.848 18.7657 170.848 45.7611 170.848 45.8353 172.9256 45.8353 172.9256 45.7611 172.9256 45.7611 172.9256 18.7215"/>
          <polygon class="cls-2" points="177.08091 18.7215 175.0033 18.7215 175.0033 18.7657 175.0033 45.7611 175.0033 45.8353 177.08091 45.8353 177.08091 45.7611 177.08091 45.7611 177.08091 18.7215"/>
        </g>
      </g>
    </g>
    <g id="LED">
      <g>
        <rect class="cls-2" x="118.1612" y="30.1279" width="9.5819" height="3.8167" transform="translate(154.9884 -90.9159) rotate(90)"/>
        <path class="cls-9" d="M122.951,29.0953c1.6281,0,2.9465,1.3205,2.9465,2.9465,0,1.6279-1.3184,2.9463-2.9465,2.9463-1.6258,0-2.9464-1.3184-2.9464-2.9463,0-1.626,1.3206-2.9465,2.9464-2.9465Z"/>
      </g>
    </g>
    <g id="LED-2" data-name="LED">
      <g>
        <rect class="cls-2" x="47.57685" y="45.45174" width="9.58179" height="3.8165" transform="translate(99.72774 -5.00775) rotate(90)"/>
        <path class="cls-9" d="M52.3667,44.419c1.6281,0,2.9464,1.3206,2.9464,2.9465,0,1.628-1.3183,2.94639-2.9464,2.94639-1.626,0-2.9464-1.31839-2.9464-2.94639,0-1.6259,1.3204-2.9465,2.9464-2.9465Z"/>
      </g>
    </g>
    <g id="LED-3" data-name="LED">
      <g>
        <rect class="cls-2" x="40.74615" y="45.45174" width="9.58179" height="3.8165" transform="translate(92.89704 1.82294) rotate(90)"/>
        <path class="cls-9" d="M45.536,44.419c1.6281,0,2.9465,1.3206,2.9465,2.9465,0,1.628-1.3184,2.94639-2.9465,2.94639-1.626,0-2.9464-1.31839-2.9464-2.94639,0-1.6259,1.3204-2.9465,2.9464-2.9465Z"/>
      </g>
    </g>
    <g id="Artwork_8" data-name="Artwork 8">
      <g>
        <polygon class="cls-10" points="47.4475 18.68389 47.4475 18.6892 47.4475 22.284 48.9711 22.284 49.087 22.284 50.49491 22.284 50.6107 22.284 52.0185 22.284 52.1344 22.284 52.5421 22.284 52.6582 22.284 53.0658 22.284 53.1819 22.284 53.5896 22.284 53.7055 22.284 55.1132 22.284 55.2291 22.284 56.637 22.284 56.7528 22.284 58.2767 22.284 58.2767 18.6892 58.2767 18.68389 58.2767 15.0891 56.7528 15.0891 56.637 15.0891 55.2291 15.0891 55.1132 15.0891 53.7055 15.0891 53.5896 15.0891 53.1819 15.0891 53.0658 15.0891 52.6582 15.0891 52.5421 15.0891 52.1344 15.0891 52.0185 15.0891 50.6107 15.0891 50.49491 15.0891 49.087 15.0891 48.9711 15.0891 47.4475 15.0891 47.4475 18.68389"/>
        <polygon class="cls-7" points="47.4475 18.68389 47.4475 18.6892 47.4475 22.284 48.9711 22.284 49.087 22.284 50.49491 22.284 50.6107 22.284 52.0185 22.284 52.1344 22.284 52.5421 22.284 52.6582 22.284 53.0658 22.284 53.1819 22.284 53.5896 22.284 53.7055 22.284 55.1132 22.284 55.2291 22.284 56.637 22.284 56.7528 22.284 58.2767 22.284 58.2767 18.6892 58.2767 18.68389 58.2767 15.0891 56.7528 15.0891 56.637 15.0891 55.2291 15.0891 55.1132 15.0891 53.7055 15.0891 53.5896 15.0891 53.1819 15.0891 53.0658 15.0891 52.6582 15.0891 52.5421 15.0891 52.1344 15.0891 52.0185 15.0891 50.6107 15.0891 50.49491 15.0891 49.087 15.0891 48.9711 15.0891 47.4475 15.0891 47.4475 18.68389"/>
        <polygon class="cls-6" points="47.4475 18.68389 47.4475 18.6892 47.4475 22.284 48.9711 22.284 49.087 22.284 50.49491 22.284 50.6107 22.284 52.0185 22.284 52.1344 22.284 52.5421 22.284 52.6582 22.284 53.0658 22.284 53.1819 22.284 53.5896 22.284 53.7055 22.284 55.1132 22.284 55.2291 22.284 56.637 22.284 56.7528 22.284 58.2767 22.284 58.2767 18.6892 58.2767 18.68389 58.2767 15.0891 56.7528 15.0891 56.637 15.0891 55.2291 15.0891 55.1132 15.0891 53.7055 15.0891 53.5896 15.0891 53.1819 15.0891 53.0658 15.0891 52.6582 15.0891 52.5421 15.0891 52.1344 15.0891 52.0185 15.0891 50.6107 15.0891 50.49491 15.0891 49.087 15.0891 48.9711 15.0891 47.4475 15.0891 47.4475 18.68389"/>
      </g>
      <rect class="cls-2" x="46.5567" y="15.0891" width=".8908" height="7.1949"/>
      <rect class="cls-2" x="58.28385" y="15.0891" width=".8908" height="7.1949"/>
    </g>
    <path class="cls-5" d="M29.35847,31.65629H7.56843v19.56h21.79004v-19.56ZM18.30842,46.43632l-.39996-.04004-.42004-.06-.39996-.09998-.39001-.13-.38-.17999-.37-.19-.34998-.21002-.33002-.26996-.31-.27002-.28003-.29999-.25995-.33002-.23004-.34003-.20001-.35999-.16998-.38-.14996-.38995-.10004-.39001-.08002-.42004-.03998-.40997-.01001-.41998.03003-.40002.06-.41998.08997-.41003.13-.38995.15002-.38.19-.38.20996-.34003.26001-.32996.26001-.32001.29999-.29004.33002-.26996.33002-.24005.34998-.21997.38-.15997.39001-.15002.39996-.12.40002-.09003.41003-.04999.41998-.01001.39996.01001.42004.04999.40997.09003.39001.12.39001.15002.37.15997.37.21997.33002.24005.31995.26996.29004.29004.27997.32001.25.32996.22003.34003.19.38.14996.38.13.38995.08002.41003.07001.41998.02002.40002-.01001.41998-.04004.40997-.07001.42004-.12.39001-.13995.38995-.17004.38-.19.35999-.25.34003-.25.33002-.27997.29999-.32001.27002-.33002.26996-.33997.21002-.38.19-.37.17999-.39001.13-.41003.09998-.39996.06-.41998.04004h-.42004Z"/>
    <polygon class="cls-11" points="18.72846 46.43632 18.30842 46.43632 17.90846 46.39628 17.48841 46.33628 17.08845 46.23631 16.69843 46.1063 16.31843 45.92631 15.94843 45.73631 15.59846 45.52628 15.26844 45.25632 14.95844 44.98631 14.67841 44.68632 14.41847 44.3563 14.18842 44.01627 13.98841 43.65629 13.81843 43.27628 13.66847 42.88633 13.56843 42.49631 13.48841 42.07627 13.44843 41.6663 13.43842 41.24631 13.46845 40.84629 13.52845 40.42631 13.61842 40.01627 13.74842 39.62632 13.89845 39.24631 14.08845 38.86631 14.29841 38.52628 14.55842 38.19633 14.81843 37.87632 15.11842 37.58628 15.44843 37.31632 15.77845 37.07627 16.12843 36.8563 16.50843 36.69633 16.89845 36.5463 17.29841 36.42631 17.69843 36.33628 18.10847 36.28629 18.52845 36.27628 18.92841 36.28629 19.34846 36.33628 19.75843 36.42631 20.14845 36.5463 20.53846 36.69633 20.90846 36.8563 21.27845 37.07627 21.60847 37.31632 21.92841 37.58628 22.21845 37.87632 22.49842 38.19633 22.74842 38.52628 22.96845 38.86631 23.15846 39.24631 23.30842 39.62632 23.43842 40.01627 23.51844 40.42631 23.58845 40.84629 23.60847 41.24631 23.59846 41.6663 23.55842 42.07627 23.48841 42.49631 23.36842 42.88633 23.22846 43.27628 23.05842 43.65629 22.86842 44.01627 22.61842 44.3563 22.36842 44.68632 22.08845 44.98631 21.76844 45.25632 21.43842 45.52628 21.09846 45.73631 20.71845 45.92631 20.34846 46.1063 19.95844 46.23631 19.54841 46.33628 19.14845 46.39628 18.72846 46.43632"/>
    <g id="Disegno_8-2" data-name="Disegno 8">
      <path class="cls-2" d="M121.5975,42.0224h-.001v2.8614h.0111c.0297.7533.6398,1.358,1.4005,1.358.7605,0,1.3716-.6047,1.4013-1.358h.0103v-2.8614c0-.7798-.6327-1.4112-1.4116-1.4112-.7791,0-1.4106.6314-1.4106,1.4112Z"/>
      <g>
        <rect class="cls-6" x="121.5965" y="42.401" width="2.8232" height="2.0878"/>
        <rect class="cls-6" x="121.5965" y="42.401" width="2.8232" height="2.0878"/>
        <rect class="cls-6" x="121.5965" y="42.401" width="2.8232" height="2.0878"/>
        <rect class="cls-6" x="121.5965" y="42.401" width="2.8232" height="2.0878"/>
      </g>
    </g>
    <g id="Disegno_8-3" data-name="Disegno 8">
      <path class="cls-2" d="M121.5975,19.2037h-.001v2.8613h.0111c.0297.7532.6398,1.358,1.4005,1.358.7605,0,1.3716-.6048,1.4013-1.358h.0103v-2.8613c0-.77981-.6327-1.4114-1.4116-1.4114-.7791,0-1.4106.63159-1.4106,1.4114Z"/>
      <g>
        <rect class="cls-6" x="121.5965" y="19.5823" width="2.8232" height="2.08759"/>
        <rect class="cls-6" x="121.5965" y="19.5823" width="2.8232" height="2.08759"/>
        <rect class="cls-6" x="121.5965" y="19.5823" width="2.8232" height="2.08759"/>
        <rect class="cls-6" x="121.5965" y="19.5823" width="2.8232" height="2.08759"/>
      </g>
    </g>
    <g id="Disegno_8-4" data-name="Disegno 8">
      <path class="cls-2" d="M69.7684,17.6347h-.0009v2.57519h.01c.0267.67791.5758,1.22221,1.26041,1.22221.68439,0,1.23439-.5443,1.26119-1.22221h.0092v-2.57519c0-.70181-.56939-1.2702-1.27039-1.2702-.70121,0-1.26951.56839-1.26951,1.2702Z"/>
      <g>
        <rect class="cls-6" x="69.7675" y="17.9755" width="2.5408" height="1.8789"/>
        <rect class="cls-6" x="69.7675" y="17.9755" width="2.5408" height="1.8789"/>
        <rect class="cls-6" x="69.7675" y="17.9755" width="2.5408" height="1.8789"/>
        <rect class="cls-6" x="69.7675" y="17.9755" width="2.5408" height="1.8789"/>
      </g>
    </g>
    <g id="Disegno_8-5" data-name="Disegno 8">
      <path class="cls-2" d="M63.3922,17.6347h-.0008v2.57519h.01c.0267.67791.5758,1.22221,1.2604,1.22221.6844,0,1.2344-.5443,1.26111-1.22221h.00929v-2.57519c0-.70181-.5694-1.2702-1.2704-1.2702-.7012,0-1.2696.56839-1.2696,1.2702Z"/>
      <g>
        <rect class="cls-6" x="63.3914" y="17.9755" width="2.5408" height="1.8789"/>
        <rect class="cls-6" x="63.3914" y="17.9755" width="2.5408" height="1.8789"/>
        <rect class="cls-6" x="63.3914" y="17.9755" width="2.5408" height="1.8789"/>
        <rect class="cls-6" x="63.3914" y="17.9755" width="2.5408" height="1.8789"/>
      </g>
    </g>
    <g id="Artwork_3" data-name="Artwork 3">
      <rect class="cls-2" x="64.2041" y="8.5727" width="3.7856" height="3.7848" rx=".0571" ry=".0571"/>
      <rect class="cls-2" x="60.0504" y="8.5727" width="3.7857" height="3.7848" rx=".0573" ry=".0573"/>
      <path class="cls-5" d="M62.47491,12.04789v.00111l1.54369.0003h.12631l1.54139.0002v-.0127c.8452-.0332,1.5242-.7178,1.5243-1.5713.0002-.8533-.6786-1.5393-1.524-1.57261v-.01159l-1.5413-.0002h-.1263l-1.5437-.0003c-.8752,0-1.584.7098-1.5841,1.584-.0001.874.7085,1.5829,1.58371,1.58309Z"/>
      <g>
        <rect class="cls-10" x="62.83305" y="8.88104" width="2.343" height="3.16816"/>
        <rect class="cls-7" x="62.83305" y="8.88104" width="2.343" height="3.16816"/>
        <rect x="62.83305" y="8.88104" width="2.343" height="3.16816"/>
      </g>
    </g>
    <g id="Disegno_8-6" data-name="Disegno 8">
      <path class="cls-2" d="M51.98991,11.7431v.0009h2.57519v-.0102c.6779-.0267,1.2222-.5757,1.2222-1.2603,0-.6845-.5443-1.2345-1.2222-1.2613v-.0091h-2.57519c-.70191,0-1.27021.5694-1.27021,1.2704,0,.7011.5683,1.2696,1.27021,1.2696Z"/>
      <g>
        <rect class="cls-6" x="52.3307" y="9.2031" width="1.8788" height="2.5409"/>
        <rect class="cls-6" x="52.3307" y="9.2031" width="1.8788" height="2.5409"/>
        <rect class="cls-6" x="52.3307" y="9.2031" width="1.8788" height="2.5409"/>
        <rect class="cls-6" x="52.3307" y="9.2031" width="1.8788" height="2.5409"/>
      </g>
    </g>
    <g id="Disegno_8-7" data-name="Disegno 8">
      <path class="cls-2" d="M50.9253,39.9037v.0009h2.5752v-.0102c.678-.0268,1.2222-.5757,1.2222-1.2603,0-.6845-.5442-1.2345-1.2222-1.2613v-.0091h-2.5752c-.7018,0-1.2702.5694-1.2702,1.2704,0,.7011.5684,1.2696,1.2702,1.2696Z"/>
      <g>
        <rect class="cls-6" x="51.2661" y="37.3637" width="1.8789" height="2.5409"/>
        <rect class="cls-6" x="51.2661" y="37.3637" width="1.8789" height="2.5409"/>
        <rect class="cls-6" x="51.2661" y="37.3637" width="1.8789" height="2.5409"/>
        <rect class="cls-6" x="51.2661" y="37.3637" width="1.8789" height="2.5409"/>
      </g>
    </g>
    <g id="Disegno_8-8" data-name="Disegno 8">
      <path class="cls-2" d="M44.2723,39.9037v.0009h2.5753v-.0102c.6779-.0268,1.22231-.5757,1.22231-1.2603,0-.6845-.54441-1.2345-1.22231-1.2613v-.0091h-2.5753c-.7018,0-1.2701.5694-1.2701,1.2704,0,.7011.5683,1.2696,1.2701,1.2696Z"/>
      <g>
        <rect class="cls-6" x="44.6131" y="37.3637" width="1.879" height="2.5409"/>
        <rect class="cls-6" x="44.6131" y="37.3637" width="1.879" height="2.5409"/>
        <rect class="cls-6" x="44.6131" y="37.3637" width="1.879" height="2.5409"/>
        <rect class="cls-6" x="44.6131" y="37.3637" width="1.879" height="2.5409"/>
      </g>
    </g>
    <g id="Disegno_8-9" data-name="Disegno 8">
      <path class="cls-2" d="M65.2143,38.8784h-.0009v2.5752h.01c.0268.678.5759,1.22229,1.2604,1.22229s1.2344-.54429,1.2612-1.22229h.0093v-2.5752c0-.7018-.56939-1.2702-1.2705-1.2702s-1.2695.5684-1.2695,1.2702Z"/>
      <g>
        <rect class="cls-6" x="65.2134" y="39.2192" width="2.5409" height="1.8789"/>
        <rect class="cls-6" x="65.2134" y="39.2192" width="2.5409" height="1.8789"/>
        <rect class="cls-6" x="65.2134" y="39.2192" width="2.5409" height="1.8789"/>
        <rect class="cls-6" x="65.2134" y="39.2192" width="2.5409" height="1.8789"/>
      </g>
    </g>
    <g id="Disegno_8-10" data-name="Disegno 8">
      <path class="cls-2" d="M55.6238,49.7392h-.00089v2.5752h.01019c.0267.6779.5757,1.2223,1.2603,1.2223.68451,0,1.23451-.5444,1.2611-1.2223h.0093v-2.5752c0-.7019-.5694-1.2702-1.2704-1.2702-.7011,0-1.2696.5683-1.2696,1.2702Z"/>
      <g>
        <rect class="cls-6" x="55.62291" y="50.07989" width="2.54089" height="1.879"/>
        <rect class="cls-6" x="55.62291" y="50.07989" width="2.54089" height="1.879"/>
        <rect class="cls-6" x="55.62291" y="50.07989" width="2.54089" height="1.879"/>
        <rect class="cls-6" x="55.62291" y="50.07989" width="2.54089" height="1.879"/>
      </g>
    </g>
    <g id="Disegno_33" data-name="Disegno 33">
      <g>
        <g>
          <polyline class="cls-10" points="95.6312 49.0431 79.0654 32.4806 79.0654 32.4806 94.57391 16.9721 94.57391 16.9721 96.6795 16.9713 96.6795 16.9713 112.193 32.4814 112.193 32.4814 95.6312 49.0431 95.6312 49.0431"/>
          <polyline class="cls-7" points="95.6312 49.0431 79.0654 32.4806 79.0654 32.4806 94.57391 16.9721 94.57391 16.9721 96.6795 16.9713 96.6795 16.9713 112.193 32.4814 112.193 32.4814 95.6312 49.0431 95.6312 49.0431"/>
          <polyline points="95.6312 49.0431 79.0654 32.4806 79.0654 32.4806 94.57391 16.9721 94.57391 16.9721 96.6795 16.9713 96.6795 16.9713 112.193 32.4814 112.193 32.4814 95.6312 49.0431 95.6312 49.0431"/>
        </g>
        <g>
          <rect class="cls-2" x="109.82401" y="33.41911" width="1.43118" height="1.43118" transform="translate(212.83977 -19.89172) rotate(135)"/>
          <rect class="cls-2" x="108.61891" y="34.6243" width="1.43118" height="1.43118" transform="translate(211.63474 -16.9822) rotate(135)"/>
          <rect class="cls-2" x="107.41371" y="35.82941" width="1.43118" height="1.43118" transform="translate(210.42947 -14.07274) rotate(135)"/>
          <rect class="cls-2" x="106.20861" y="37.03461" width="1.43118" height="1.43118" transform="translate(209.22444 -11.1632) rotate(135)"/>
          <rect class="cls-2" x="105.00339" y="38.23971" width="1.43122" height="1.43122" transform="translate(208.01919 -8.25372) rotate(135)"/>
          <rect class="cls-2" x="103.79821" y="39.44491" width="1.43118" height="1.43118" transform="translate(206.81397 -5.34415) rotate(135)"/>
          <rect class="cls-2" x="102.59311" y="40.65011" width="1.43118" height="1.43118" transform="translate(205.60894 -2.43462) rotate(135)"/>
          <rect class="cls-2" x="101.38791" y="41.85521" width="1.43118" height="1.43118" transform="translate(204.40367 .47482) rotate(135)"/>
          <rect class="cls-2" x="100.18281" y="43.06041" width="1.43118" height="1.43118" transform="translate(203.19864 3.38436) rotate(135)"/>
          <rect class="cls-2" x="98.97759" y="44.26551" width="1.43122" height="1.43122" transform="translate(201.99339 6.29385) rotate(135)"/>
          <rect class="cls-2" x="97.77241" y="45.47069" width="1.43122" height="1.43122" transform="translate(200.78822 9.2034) rotate(135)"/>
          <rect class="cls-2" x="96.56731" y="46.67591" width="1.43118" height="1.43118" transform="translate(199.58316 12.11295) rotate(135)"/>
        </g>
        <g>
          <rect class="cls-2" x="93.25989" y="16.85496" width="1.43122" height="1.43122" transform="translate(172.84781 -36.45976) rotate(134.99717)"/>
          <rect class="cls-2" x="92.05471" y="18.06011" width="1.43118" height="1.43118" transform="translate(171.64523 -33.54638) rotate(135)"/>
          <rect class="cls-2" x="90.84956" y="19.26528" width="1.43122" height="1.43122" transform="translate(170.44265 -30.63295) rotate(135.00283)"/>
          <rect class="cls-2" x="89.64441" y="20.47041" width="1.43118" height="1.43118" transform="translate(169.23493 -27.7274) rotate(135)"/>
          <rect class="cls-2" x="88.43921" y="21.67561" width="1.43118" height="1.43118" transform="translate(168.02973 -24.81779) rotate(135)"/>
          <rect class="cls-2" x="87.23409" y="22.88071" width="1.43122" height="1.43122" transform="translate(166.82465 -21.90838) rotate(135)"/>
          <rect class="cls-2" x="86.02891" y="24.08591" width="1.43118" height="1.43118" transform="translate(165.61943 -18.99881) rotate(135)"/>
          <rect class="cls-2" x="84.82381" y="25.29111" width="1.43118" height="1.43118" transform="translate(164.4144 -16.08928) rotate(135)"/>
          <rect class="cls-2" x="83.61861" y="26.49621" width="1.43118" height="1.43118" transform="translate(163.20913 -13.17984) rotate(135)"/>
          <rect class="cls-2" x="82.41341" y="27.70139" width="1.43122" height="1.43122" transform="translate(162.00397 -10.27024) rotate(135)"/>
          <rect class="cls-2" x="81.2083" y="28.90651" width="1.43122" height="1.43122" transform="translate(160.79886 -7.36082) rotate(135)"/>
          <rect class="cls-2" x="80.00311" y="30.11171" width="1.43118" height="1.43118" transform="translate(159.59363 -4.45125) rotate(135)"/>
        </g>
        <g>
          <rect class="cls-2" x="97.15621" y="17.47121" width="1.43118" height="1.43118" transform="translate(41.526 -63.87902) rotate(45)"/>
          <rect class="cls-2" x="98.36139" y="18.67636" width="1.43122" height="1.43122" transform="translate(42.73118 -64.37824) rotate(45)"/>
          <rect class="cls-2" x="99.56651" y="19.88151" width="1.43118" height="1.43118" transform="translate(43.9363 -64.8774) rotate(45)"/>
          <rect class="cls-2" x="100.77171" y="21.08671" width="1.43118" height="1.43118" transform="translate(45.1415 -65.37661) rotate(45)"/>
          <rect class="cls-2" x="101.97681" y="22.29181" width="1.43118" height="1.43118" transform="translate(46.34659 -65.87578) rotate(45)"/>
          <rect class="cls-2" x="103.18201" y="23.49701" width="1.43118" height="1.43118" transform="translate(47.55179 -66.37499) rotate(45)"/>
          <rect class="cls-2" x="104.38714" y="24.7021" width="1.43125" height="1.43125" transform="translate(48.75693 -66.8742) rotate(45)"/>
          <rect class="cls-2" x="105.59231" y="25.9073" width="1.43118" height="1.43118" transform="translate(49.96209 -67.37338) rotate(45)"/>
          <rect class="cls-2" x="106.79751" y="27.11251" width="1.43118" height="1.43118" transform="translate(51.16729 -67.87258) rotate(45)"/>
          <rect class="cls-2" x="108.00261" y="28.31761" width="1.43118" height="1.43118" transform="translate(52.37239 -68.37175) rotate(45)"/>
          <rect class="cls-2" x="109.20781" y="29.52281" width="1.43118" height="1.43118" transform="translate(53.57759 -68.87096) rotate(45)"/>
        </g>
        <g>
          <rect class="cls-2" x="80.60611" y="34.0213" width="1.43118" height="1.43118" transform="translate(48.38126 -47.32893) rotate(45)"/>
          <rect class="cls-2" x="81.81121" y="35.22651" width="1.43118" height="1.43118" transform="translate(49.58644 -47.82806) rotate(45)"/>
          <rect class="cls-2" x="83.01641" y="36.43161" width="1.43118" height="1.43118" transform="translate(50.79157 -48.3273) rotate(45)"/>
          <rect class="cls-2" x="84.22161" y="37.63681" width="1.43118" height="1.43118" transform="translate(51.99677 -48.82651) rotate(45)"/>
          <rect class="cls-2" x="85.42669" y="38.84196" width="1.43122" height="1.43122" transform="translate(53.20192 -49.32566) rotate(45)"/>
          <rect class="cls-2" x="86.63191" y="40.04711" width="1.43118" height="1.43118" transform="translate(54.40707 -49.82489) rotate(45)"/>
          <rect class="cls-2" x="87.83701" y="41.2523" width="1.43118" height="1.43118" transform="translate(55.61224 -50.32403) rotate(45)"/>
          <rect class="cls-2" x="89.04221" y="42.45741" width="1.43118" height="1.43118" transform="translate(56.81737 -50.82327) rotate(45)"/>
          <rect class="cls-2" x="90.24737" y="43.66259" width="1.43122" height="1.43122" transform="translate(58.01819 -51.32096) rotate(44.99738)"/>
          <rect class="cls-2" x="91.45249" y="44.86771" width="1.43122" height="1.43122" transform="translate(59.2325 -51.82327) rotate(45.00283)"/>
          <rect class="cls-2" x="92.65771" y="46.07291" width="1.43118" height="1.43118" transform="translate(60.43287 -52.32086) rotate(45)"/>
        </g>
      </g>
    </g>
    <g>
      <g id="INSERT">
        <g id="CIRCLE-3" data-name="CIRCLE">
          <g>
            <path class="cls-4" d="M159.40636,56.63935c1.44466,0,2.61929,1.17613,2.61929,2.62079s-1.17463,2.61929-2.61929,2.61929-2.62079-1.17463-2.62079-2.61929,1.17613-2.62079,2.62079-2.62079Z"/>
            <path class="cls-8" d="M159.40608,61.11134c-1.02306,0-1.85261-.82954-1.85261-1.85186,0-1.02325.82954-1.8528,1.85261-1.8528s1.85125.82954,1.85125,1.8528c0,1.02231-.82818,1.85186-1.85125,1.85186h0ZM159.40608,62.64751c1.86784,0,3.38742-1.51985,3.38742-3.38803,0-1.86869-1.51957-3.38896-3.38742-3.38896-1.86859,0-3.38878,1.52028-3.38878,3.38896,0,1.86817,1.52018,3.38803,3.38878,3.38803h0Z"/>
          </g>
        </g>
      </g>
      <g id="INSERT-2" data-name="INSERT">
        <g id="CIRCLE-4" data-name="CIRCLE">
          <g>
            <path class="cls-4" d="M150.29959,56.63935c1.44466,0,2.61929,1.17613,2.61929,2.62079s-1.17463,2.61929-2.61929,2.61929-2.62079-1.17463-2.62079-2.61929,1.17613-2.62079,2.62079-2.62079Z"/>
            <path class="cls-8" d="M150.29931,61.11134c-1.02306,0-1.85261-.82954-1.85261-1.85186,0-1.02325.82954-1.8528,1.85261-1.8528s1.85125.82954,1.85125,1.8528c0,1.02231-.82818,1.85186-1.85125,1.85186h0ZM150.29931,62.64751c1.86784,0,3.38742-1.51985,3.38742-3.38803,0-1.86869-1.51957-3.38896-3.38742-3.38896-1.86859,0-3.38878,1.52028-3.38878,3.38896,0,1.86817,1.52018,3.38803,3.38878,3.38803h0Z"/>
          </g>
        </g>
      </g>
      <g id="INSERT-3" data-name="INSERT">
        <g id="CIRCLE-5" data-name="CIRCLE">
          <g>
            <path class="cls-4" d="M141.19282,56.63935c1.44466,0,2.61929,1.17613,2.61929,2.62079s-1.17463,2.61929-2.61929,2.61929-2.62079-1.17463-2.62079-2.61929,1.17613-2.62079,2.62079-2.62079Z"/>
            <path class="cls-8" d="M141.19254,61.11134c-1.02306,0-1.85261-.82954-1.85261-1.85186,0-1.02325.82954-1.8528,1.85261-1.8528s1.85125.82954,1.85125,1.8528c0,1.02231-.82818,1.85186-1.85125,1.85186h0ZM141.19254,62.64751c1.86784,0,3.38742-1.51985,3.38742-3.38803,0-1.86869-1.51957-3.38896-3.38742-3.38896-1.86859,0-3.38878,1.52028-3.38878,3.38896,0,1.86817,1.52018,3.38803,3.38878,3.38803h0Z"/>
          </g>
        </g>
      </g>
      <g id="INSERT-4" data-name="INSERT">
        <g id="CIRCLE-6" data-name="CIRCLE">
          <g>
            <path class="cls-4" d="M132.08605,56.63935c1.44466,0,2.61929,1.17613,2.61929,2.62079s-1.17463,2.61929-2.61929,2.61929-2.62079-1.17463-2.62079-2.61929,1.17613-2.62079,2.62079-2.62079Z"/>
            <path class="cls-8" d="M132.08576,61.11134c-1.02306,0-1.85261-.82954-1.85261-1.85186,0-1.02325.82954-1.8528,1.85261-1.8528s1.85125.82954,1.85125,1.8528c0,1.02231-.82818,1.85186-1.85125,1.85186h0ZM132.08576,62.64751c1.86784,0,3.38742-1.51985,3.38742-3.38803,0-1.86869-1.51957-3.38896-3.38742-3.38896-1.86859,0-3.38878,1.52028-3.38878,3.38896,0,1.86817,1.52018,3.38803,3.38878,3.38803h0Z"/>
          </g>
        </g>
      </g>
      <g id="INSERT-5" data-name="INSERT">
        <g id="CIRCLE-7" data-name="CIRCLE">
          <g>
            <path class="cls-4" d="M122.97927,56.63935c1.44466,0,2.61929,1.17613,2.61929,2.62079s-1.17463,2.61929-2.61929,2.61929-2.62079-1.17463-2.62079-2.61929,1.17613-2.62079,2.62079-2.62079Z"/>
            <path class="cls-8" d="M122.97899,61.11134c-1.02306,0-1.85261-.82954-1.85261-1.85186,0-1.02325.82954-1.8528,1.85261-1.8528s1.85125.82954,1.85125,1.8528c0,1.02231-.82818,1.85186-1.85125,1.85186h0ZM122.97899,62.64751c1.86784,0,3.38742-1.51985,3.38742-3.38803,0-1.86869-1.51957-3.38896-3.38742-3.38896-1.86859,0-3.38878,1.52028-3.38878,3.38896,0,1.86817,1.52018,3.38803,3.38878,3.38803h0Z"/>
          </g>
        </g>
      </g>
      <g id="INSERT-6" data-name="INSERT">
        <g id="CIRCLE-8" data-name="CIRCLE">
          <g>
            <path class="cls-4" d="M113.8725,56.63935c1.44466,0,2.61929,1.17613,2.61929,2.62079s-1.17463,2.61929-2.61929,2.61929-2.62079-1.17463-2.62079-2.61929,1.17613-2.62079,2.62079-2.62079Z"/>
            <path class="cls-8" d="M113.87222,61.11134c-1.02306,0-1.85261-.82954-1.85261-1.85186,0-1.02325.82954-1.8528,1.85261-1.8528s1.85125.82954,1.85125,1.8528c0,1.02231-.82818,1.85186-1.85125,1.85186h0ZM113.87222,62.64751c1.86784,0,3.38742-1.51985,3.38742-3.38803,0-1.86869-1.51957-3.38896-3.38742-3.38896-1.86859,0-3.38878,1.52028-3.38878,3.38896,0,1.86817,1.52018,3.38803,3.38878,3.38803h0Z"/>
          </g>
        </g>
      </g>
      <g id="INSERT-7" data-name="INSERT">
        <g id="CIRCLE-9" data-name="CIRCLE">
          <g>
            <path class="cls-4" d="M104.76573,56.63935c1.44466,0,2.61929,1.17613,2.61929,2.62079s-1.17463,2.61929-2.61929,2.61929-2.62079-1.17463-2.62079-2.61929,1.17613-2.62079,2.62079-2.62079Z"/>
            <path class="cls-8" d="M104.76545,61.11134c-1.02306,0-1.85261-.82954-1.85261-1.85186,0-1.02325.82954-1.8528,1.85261-1.8528s1.85125.82954,1.85125,1.8528c0,1.02231-.82818,1.85186-1.85125,1.85186h0ZM104.76545,62.64751c1.86784,0,3.38742-1.51985,3.38742-3.38803,0-1.86869-1.51957-3.38896-3.38742-3.38896-1.86859,0-3.38878,1.52028-3.38878,3.38896,0,1.86817,1.52018,3.38803,3.38878,3.38803h0Z"/>
          </g>
        </g>
      </g>
      <g id="INSERT-8" data-name="INSERT">
        <g id="CIRCLE-10" data-name="CIRCLE">
          <g>
            <path class="cls-4" d="M95.65896,56.63935c1.44466,0,2.61929,1.17613,2.61929,2.62079s-1.17463,2.61929-2.61929,2.61929-2.62079-1.17463-2.62079-2.61929,1.17613-2.62079,2.62079-2.62079Z"/>
            <path class="cls-8" d="M95.65868,61.11134c-1.02306,0-1.85261-.82954-1.85261-1.85186,0-1.02325.82954-1.8528,1.85261-1.8528s1.85125.82954,1.85125,1.8528c0,1.02231-.82818,1.85186-1.85125,1.85186h0ZM95.65868,62.64751c1.86784,0,3.38742-1.51985,3.38742-3.38803,0-1.86869-1.51957-3.38896-3.38742-3.38896-1.86859,0-3.38878,1.52028-3.38878,3.38896,0,1.86817,1.52018,3.38803,3.38878,3.38803h0Z"/>
          </g>
        </g>
      </g>
      <g id="INSERT-9" data-name="INSERT">
        <g id="CIRCLE-11" data-name="CIRCLE">
          <g>
            <path class="cls-4" d="M86.55219,56.63935c1.44466,0,2.61929,1.17613,2.61929,2.62079s-1.17463,2.61929-2.61929,2.61929-2.62079-1.17463-2.62079-2.61929,1.17613-2.62079,2.62079-2.62079Z"/>
            <path class="cls-8" d="M86.55191,61.11134c-1.02306,0-1.85261-.82954-1.85261-1.85186,0-1.02325.82954-1.8528,1.85261-1.8528s1.85125.82954,1.85125,1.8528c0,1.02231-.82818,1.85186-1.85125,1.85186h0ZM86.55191,62.64751c1.86784,0,3.38742-1.51985,3.38742-3.38803,0-1.86869-1.51957-3.38896-3.38742-3.38896-1.86859,0-3.38878,1.52028-3.38878,3.38896,0,1.86817,1.52018,3.38803,3.38878,3.38803h0Z"/>
          </g>
        </g>
      </g>
      <g id="INSERT-10" data-name="INSERT">
        <g id="CIRCLE-12" data-name="CIRCLE">
          <g>
            <path class="cls-4" d="M77.44542,56.63935c1.44466,0,2.61929,1.17613,2.61929,2.62079s-1.17463,2.61929-2.61929,2.61929-2.62079-1.17463-2.62079-2.61929,1.17613-2.62079,2.62079-2.62079Z"/>
            <path class="cls-8" d="M77.44513,61.11134c-1.02306,0-1.85261-.82954-1.85261-1.85186,0-1.02325.82954-1.8528,1.85261-1.8528s1.85125.82954,1.85125,1.8528c0,1.02231-.82818,1.85186-1.85125,1.85186h0ZM77.44513,62.64751c1.86784,0,3.38742-1.51985,3.38742-3.38803,0-1.86869-1.51957-3.38896-3.38742-3.38896-1.86859,0-3.38878,1.52028-3.38878,3.38896,0,1.86817,1.52018,3.38803,3.38878,3.38803h0Z"/>
          </g>
        </g>
      </g>
      <g id="INSERT-11" data-name="INSERT">
        <g id="CIRCLE-13" data-name="CIRCLE">
          <g>
            <path class="cls-4" d="M68.33864,56.63935c1.44466,0,2.61929,1.17613,2.61929,2.62079s-1.17463,2.61929-2.61929,2.61929-2.62079-1.17463-2.62079-2.61929,1.17613-2.62079,2.62079-2.62079Z"/>
            <path class="cls-8" d="M68.33836,61.11134c-1.02306,0-1.85261-.82954-1.85261-1.85186,0-1.02325.82954-1.8528,1.85261-1.8528s1.85125.82954,1.85125,1.8528c0,1.02231-.82818,1.85186-1.85125,1.85186h0ZM68.33836,62.64751c1.86784,0,3.38742-1.51985,3.38742-3.38803,0-1.86869-1.51957-3.38896-3.38742-3.38896-1.86859,0-3.38878,1.52028-3.38878,3.38896,0,1.86817,1.52018,3.38803,3.38878,3.38803h0Z"/>
          </g>
        </g>
      </g>
      <g id="INSERT-12" data-name="INSERT">
        <g id="CIRCLE-14" data-name="CIRCLE">
          <g>
            <path class="cls-4" d="M59.23187,56.63935c1.44466,0,2.61929,1.17613,2.61929,2.62079s-1.17463,2.61929-2.61929,2.61929-2.62079-1.17463-2.62079-2.61929,1.17613-2.62079,2.62079-2.62079Z"/>
            <path class="cls-8" d="M59.23159,61.11134c-1.02306,0-1.85261-.82954-1.85261-1.85186,0-1.02325.82954-1.8528,1.85261-1.8528s1.85125.82954,1.85125,1.8528c0,1.02231-.82818,1.85186-1.85125,1.85186h0ZM59.23159,62.64751c1.86784,0,3.38742-1.51985,3.38742-3.38803,0-1.86869-1.51957-3.38896-3.38742-3.38896-1.86859,0-3.38878,1.52028-3.38878,3.38896,0,1.86817,1.52018,3.38803,3.38878,3.38803h0Z"/>
          </g>
        </g>
      </g>
      <g id="INSERT-13" data-name="INSERT">
        <g id="CIRCLE-15" data-name="CIRCLE">
          <g>
            <path class="cls-4" d="M50.1251,56.63935c1.44466,0,2.61929,1.17613,2.61929,2.62079s-1.17463,2.61929-2.61929,2.61929-2.62079-1.17463-2.62079-2.61929,1.17613-2.62079,2.62079-2.62079Z"/>
            <path class="cls-8" d="M50.12482,61.11134c-1.02306,0-1.85261-.82954-1.85261-1.85186,0-1.02325.82954-1.8528,1.85261-1.8528s1.85125.82954,1.85125,1.8528c0,1.02231-.82818,1.85186-1.85125,1.85186h0ZM50.12482,62.64751c1.86784,0,3.38742-1.51985,3.38742-3.38803,0-1.86869-1.51957-3.38896-3.38742-3.38896-1.86859,0-3.38878,1.52028-3.38878,3.38896,0,1.86817,1.52018,3.38803,3.38878,3.38803h0Z"/>
          </g>
        </g>
      </g>
      <g id="INSERT-14" data-name="INSERT">
        <g id="CIRCLE-16" data-name="CIRCLE">
          <g>
            <path class="cls-4" d="M41.01833,56.63935c1.44466,0,2.61929,1.17613,2.61929,2.62079s-1.17463,2.61929-2.61929,2.61929-2.62079-1.17463-2.62079-2.61929,1.17613-2.62079,2.62079-2.62079Z"/>
            <path class="cls-8" d="M41.01805,61.11134c-1.02306,0-1.85261-.82954-1.85261-1.85186,0-1.02325.82954-1.8528,1.85261-1.8528s1.85125.82954,1.85125,1.8528c0,1.02231-.82818,1.85186-1.85125,1.85186h0ZM41.01805,62.64751c1.86784,0,3.38742-1.51985,3.38742-3.38803,0-1.86869-1.51957-3.38896-3.38742-3.38896-1.86859,0-3.38878,1.52028-3.38878,3.38896,0,1.86817,1.52018,3.38803,3.38878,3.38803h0Z"/>
          </g>
        </g>
      </g>
      <g id="INSERT-15" data-name="INSERT">
        <g id="CIRCLE-17" data-name="CIRCLE">
          <g>
            <path class="cls-4" d="M31.91156,56.63935c1.44466,0,2.61929,1.17613,2.61929,2.62079s-1.17463,2.61929-2.61929,2.61929-2.62079-1.17463-2.62079-2.61929,1.17613-2.62079,2.62079-2.62079Z"/>
            <path class="cls-8" d="M31.91128,61.11134c-1.02306,0-1.85261-.82954-1.85261-1.85186,0-1.02325.82954-1.8528,1.85261-1.8528s1.85125.82954,1.85125,1.8528c0,1.02231-.82818,1.85186-1.85125,1.85186h0ZM31.91128,62.64751c1.86784,0,3.38742-1.51985,3.38742-3.38803,0-1.86869-1.51957-3.38896-3.38742-3.38896-1.86859,0-3.38878,1.52028-3.38878,3.38896,0,1.86817,1.52018,3.38803,3.38878,3.38803h0Z"/>
          </g>
        </g>
      </g>
      <g id="INSERT-16" data-name="INSERT">
        <g id="CIRCLE-18" data-name="CIRCLE">
          <g>
            <path class="cls-4" d="M22.80479,56.63935c1.44466,0,2.61929,1.17613,2.61929,2.62079s-1.17463,2.61929-2.61929,2.61929-2.62079-1.17463-2.62079-2.61929,1.17613-2.62079,2.62079-2.62079Z"/>
            <path class="cls-8" d="M22.8045,61.11134c-1.02306,0-1.85261-.82954-1.85261-1.85186,0-1.02325.82954-1.8528,1.85261-1.8528s1.85125.82954,1.85125,1.8528c0,1.02231-.82818,1.85186-1.85125,1.85186h0ZM22.8045,62.64751c1.86784,0,3.38742-1.51985,3.38742-3.38803,0-1.86869-1.51957-3.38896-3.38742-3.38896-1.86859,0-3.38878,1.52028-3.38878,3.38896,0,1.86817,1.52018,3.38803,3.38878,3.38803h0Z"/>
          </g>
        </g>
      </g>
      <g id="INSERT-17" data-name="INSERT">
        <rect class="cls-8" x="10.30896" y="55.87089" width="6.77619" height="6.77619" transform="translate(72.95604 45.56193) rotate(90)"/>
        <g id="CIRCLE-19" data-name="CIRCLE">
          <g>
            <path class="cls-4" d="M13.69801,56.63972c1.44466,0,2.61929,1.17613,2.61929,2.62079s-1.17463,2.61929-2.61929,2.61929-2.62079-1.17463-2.62079-2.61929,1.17613-2.62079,2.62079-2.62079Z"/>
            <path class="cls-8" d="M13.69773,61.11171c-1.02306,0-1.85261-.82954-1.85261-1.85186,0-1.02325.82954-1.8528,1.85261-1.8528s1.85125.82954,1.85125,1.8528c0,1.02231-.82818,1.85186-1.85125,1.85186h0ZM13.69773,62.64788c1.86784,0,3.38742-1.51985,3.38742-3.38803,0-1.86869-1.51957-3.38896-3.38742-3.38896-1.86859,0-3.38878,1.52028-3.38878,3.38896,0,1.86817,1.52018,3.38803,3.38878,3.38803h0Z"/>
          </g>
        </g>
      </g>
    </g>
    <g>
      <g id="INSERT-18" data-name="INSERT">
        <g id="CIRCLE-20" data-name="CIRCLE">
          <g>
            <path class="cls-4" d="M159.40636,1.93385c1.44466,0,2.61929,1.17613,2.61929,2.62079s-1.17463,2.61929-2.61929,2.61929-2.62079-1.17463-2.62079-2.61929,1.17613-2.62079,2.62079-2.62079Z"/>
            <path class="cls-8" d="M159.40608,6.40584c-1.02306,0-1.85261-.82954-1.85261-1.85186,0-1.02325.82954-1.8528,1.85261-1.8528s1.85125.82954,1.85125,1.8528c0,1.02231-.82818,1.85186-1.85125,1.85186h0ZM159.40608,7.94201c1.86784,0,3.38742-1.51985,3.38742-3.38803,0-1.86869-1.51957-3.38896-3.38742-3.38896-1.86859,0-3.38878,1.52028-3.38878,3.38896,0,1.86817,1.52018,3.38803,3.38878,3.38803h0Z"/>
          </g>
        </g>
      </g>
      <g id="INSERT-19" data-name="INSERT">
        <g id="CIRCLE-21" data-name="CIRCLE">
          <g>
            <path class="cls-4" d="M150.29959,1.93385c1.44466,0,2.61929,1.17613,2.61929,2.62079s-1.17463,2.61929-2.61929,2.61929-2.62079-1.17463-2.62079-2.61929,1.17613-2.62079,2.62079-2.62079Z"/>
            <path class="cls-8" d="M150.29931,6.40584c-1.02306,0-1.85261-.82954-1.85261-1.85186,0-1.02325.82954-1.8528,1.85261-1.8528s1.85125.82954,1.85125,1.8528c0,1.02231-.82818,1.85186-1.85125,1.85186h0ZM150.29931,7.94201c1.86784,0,3.38742-1.51985,3.38742-3.38803,0-1.86869-1.51957-3.38896-3.38742-3.38896-1.86859,0-3.38878,1.52028-3.38878,3.38896,0,1.86817,1.52018,3.38803,3.38878,3.38803h0Z"/>
          </g>
        </g>
      </g>
      <g id="INSERT-20" data-name="INSERT">
        <g id="CIRCLE-22" data-name="CIRCLE">
          <g>
            <path class="cls-4" d="M141.19282,1.93385c1.44466,0,2.61929,1.17613,2.61929,2.62079s-1.17463,2.61929-2.61929,2.61929-2.62079-1.17463-2.62079-2.61929,1.17613-2.62079,2.62079-2.62079Z"/>
            <path class="cls-8" d="M141.19254,6.40584c-1.02306,0-1.85261-.82954-1.85261-1.85186,0-1.02325.82954-1.8528,1.85261-1.8528s1.85125.82954,1.85125,1.8528c0,1.02231-.82818,1.85186-1.85125,1.85186h0ZM141.19254,7.94201c1.86784,0,3.38742-1.51985,3.38742-3.38803,0-1.86869-1.51957-3.38896-3.38742-3.38896-1.86859,0-3.38878,1.52028-3.38878,3.38896,0,1.86817,1.52018,3.38803,3.38878,3.38803h0Z"/>
          </g>
        </g>
      </g>
      <g id="INSERT-21" data-name="INSERT">
        <g id="CIRCLE-23" data-name="CIRCLE">
          <g>
            <path class="cls-4" d="M132.08605,1.93385c1.44466,0,2.61929,1.17613,2.61929,2.62079s-1.17463,2.61929-2.61929,2.61929-2.62079-1.17463-2.62079-2.61929,1.17613-2.62079,2.62079-2.62079Z"/>
            <path class="cls-8" d="M132.08576,6.40584c-1.02306,0-1.85261-.82954-1.85261-1.85186,0-1.02325.82954-1.8528,1.85261-1.8528s1.85125.82954,1.85125,1.8528c0,1.02231-.82818,1.85186-1.85125,1.85186h0ZM132.08576,7.94201c1.86784,0,3.38742-1.51985,3.38742-3.38803,0-1.86869-1.51957-3.38896-3.38742-3.38896-1.86859,0-3.38878,1.52028-3.38878,3.38896,0,1.86817,1.52018,3.38803,3.38878,3.38803h0Z"/>
          </g>
        </g>
      </g>
      <g id="INSERT-22" data-name="INSERT">
        <g id="CIRCLE-24" data-name="CIRCLE">
          <g>
            <path class="cls-4" d="M122.97927,1.93385c1.44466,0,2.61929,1.17613,2.61929,2.62079s-1.17463,2.61929-2.61929,2.61929-2.62079-1.17463-2.62079-2.61929,1.17613-2.62079,2.62079-2.62079Z"/>
            <path class="cls-8" d="M122.97899,6.40584c-1.02306,0-1.85261-.82954-1.85261-1.85186,0-1.02325.82954-1.8528,1.85261-1.8528s1.85125.82954,1.85125,1.8528c0,1.02231-.82818,1.85186-1.85125,1.85186h0ZM122.97899,7.94201c1.86784,0,3.38742-1.51985,3.38742-3.38803,0-1.86869-1.51957-3.38896-3.38742-3.38896-1.86859,0-3.38878,1.52028-3.38878,3.38896,0,1.86817,1.52018,3.38803,3.38878,3.38803h0Z"/>
          </g>
        </g>
      </g>
      <g id="INSERT-23" data-name="INSERT">
        <g id="CIRCLE-25" data-name="CIRCLE">
          <g>
            <path class="cls-4" d="M113.8725,1.93385c1.44466,0,2.61929,1.17613,2.61929,2.62079s-1.17463,2.61929-2.61929,2.61929-2.62079-1.17463-2.62079-2.61929,1.17613-2.62079,2.62079-2.62079Z"/>
            <path class="cls-8" d="M113.87222,6.40584c-1.02306,0-1.85261-.82954-1.85261-1.85186,0-1.02325.82954-1.8528,1.85261-1.8528s1.85125.82954,1.85125,1.8528c0,1.02231-.82818,1.85186-1.85125,1.85186h0ZM113.87222,7.94201c1.86784,0,3.38742-1.51985,3.38742-3.38803,0-1.86869-1.51957-3.38896-3.38742-3.38896-1.86859,0-3.38878,1.52028-3.38878,3.38896,0,1.86817,1.52018,3.38803,3.38878,3.38803h0Z"/>
          </g>
        </g>
      </g>
      <g id="INSERT-24" data-name="INSERT">
        <g id="CIRCLE-26" data-name="CIRCLE">
          <g>
            <path class="cls-4" d="M104.76573,1.93385c1.44466,0,2.61929,1.17613,2.61929,2.62079s-1.17463,2.61929-2.61929,2.61929-2.62079-1.17463-2.62079-2.61929,1.17613-2.62079,2.62079-2.62079Z"/>
            <path class="cls-8" d="M104.76545,6.40584c-1.02306,0-1.85261-.82954-1.85261-1.85186,0-1.02325.82954-1.8528,1.85261-1.8528s1.85125.82954,1.85125,1.8528c0,1.02231-.82818,1.85186-1.85125,1.85186h0ZM104.76545,7.94201c1.86784,0,3.38742-1.51985,3.38742-3.38803,0-1.86869-1.51957-3.38896-3.38742-3.38896-1.86859,0-3.38878,1.52028-3.38878,3.38896,0,1.86817,1.52018,3.38803,3.38878,3.38803h0Z"/>
          </g>
        </g>
      </g>
      <g id="INSERT-25" data-name="INSERT">
        <g id="CIRCLE-27" data-name="CIRCLE">
          <g>
            <path class="cls-4" d="M95.65896,1.93385c1.44466,0,2.61929,1.17613,2.61929,2.62079s-1.17463,2.61929-2.61929,2.61929-2.62079-1.17463-2.62079-2.61929,1.17613-2.62079,2.62079-2.62079Z"/>
            <path class="cls-8" d="M95.65868,6.40584c-1.02306,0-1.85261-.82954-1.85261-1.85186,0-1.02325.82954-1.8528,1.85261-1.8528s1.85125.82954,1.85125,1.8528c0,1.02231-.82818,1.85186-1.85125,1.85186h0ZM95.65868,7.94201c1.86784,0,3.38742-1.51985,3.38742-3.38803,0-1.86869-1.51957-3.38896-3.38742-3.38896-1.86859,0-3.38878,1.52028-3.38878,3.38896,0,1.86817,1.52018,3.38803,3.38878,3.38803h0Z"/>
          </g>
        </g>
      </g>
      <g id="INSERT-26" data-name="INSERT">
        <g id="CIRCLE-28" data-name="CIRCLE">
          <g>
            <path class="cls-4" d="M86.55219,1.93385c1.44466,0,2.61929,1.17613,2.61929,2.62079s-1.17463,2.61929-2.61929,2.61929-2.62079-1.17463-2.62079-2.61929,1.17613-2.62079,2.62079-2.62079Z"/>
            <path class="cls-8" d="M86.55191,6.40584c-1.02306,0-1.85261-.82954-1.85261-1.85186,0-1.02325.82954-1.8528,1.85261-1.8528s1.85125.82954,1.85125,1.8528c0,1.02231-.82818,1.85186-1.85125,1.85186h0ZM86.55191,7.94201c1.86784,0,3.38742-1.51985,3.38742-3.38803,0-1.86869-1.51957-3.38896-3.38742-3.38896-1.86859,0-3.38878,1.52028-3.38878,3.38896,0,1.86817,1.52018,3.38803,3.38878,3.38803h0Z"/>
          </g>
        </g>
      </g>
      <g id="INSERT-27" data-name="INSERT">
        <g id="CIRCLE-29" data-name="CIRCLE">
          <g>
            <path class="cls-4" d="M77.44542,1.93385c1.44466,0,2.61929,1.17613,2.61929,2.62079s-1.17463,2.61929-2.61929,2.61929-2.62079-1.17463-2.62079-2.61929,1.17613-2.62079,2.62079-2.62079Z"/>
            <path class="cls-8" d="M77.44513,6.40584c-1.02306,0-1.85261-.82954-1.85261-1.85186,0-1.02325.82954-1.8528,1.85261-1.8528s1.85125.82954,1.85125,1.8528c0,1.02231-.82818,1.85186-1.85125,1.85186h0ZM77.44513,7.94201c1.86784,0,3.38742-1.51985,3.38742-3.38803,0-1.86869-1.51957-3.38896-3.38742-3.38896-1.86859,0-3.38878,1.52028-3.38878,3.38896,0,1.86817,1.52018,3.38803,3.38878,3.38803h0Z"/>
          </g>
        </g>
      </g>
      <g id="INSERT-28" data-name="INSERT">
        <g id="CIRCLE-30" data-name="CIRCLE">
          <g>
            <path class="cls-4" d="M68.33864,1.93385c1.44466,0,2.61929,1.17613,2.61929,2.62079s-1.17463,2.61929-2.61929,2.61929-2.62079-1.17463-2.62079-2.61929,1.17613-2.62079,2.62079-2.62079Z"/>
            <path class="cls-8" d="M68.33836,6.40584c-1.02306,0-1.85261-.82954-1.85261-1.85186,0-1.02325.82954-1.8528,1.85261-1.8528s1.85125.82954,1.85125,1.8528c0,1.02231-.82818,1.85186-1.85125,1.85186h0ZM68.33836,7.94201c1.86784,0,3.38742-1.51985,3.38742-3.38803,0-1.86869-1.51957-3.38896-3.38742-3.38896-1.86859,0-3.38878,1.52028-3.38878,3.38896,0,1.86817,1.52018,3.38803,3.38878,3.38803h0Z"/>
          </g>
        </g>
      </g>
      <g id="INSERT-29" data-name="INSERT">
        <g id="CIRCLE-31" data-name="CIRCLE">
          <g>
            <path class="cls-4" d="M59.23187,1.93385c1.44466,0,2.61929,1.17613,2.61929,2.62079s-1.17463,2.61929-2.61929,2.61929-2.62079-1.17463-2.62079-2.61929,1.17613-2.62079,2.62079-2.62079Z"/>
            <path class="cls-8" d="M59.23159,6.40584c-1.02306,0-1.85261-.82954-1.85261-1.85186,0-1.02325.82954-1.8528,1.85261-1.8528s1.85125.82954,1.85125,1.8528c0,1.02231-.82818,1.85186-1.85125,1.85186h0ZM59.23159,7.94201c1.86784,0,3.38742-1.51985,3.38742-3.38803,0-1.86869-1.51957-3.38896-3.38742-3.38896-1.86859,0-3.38878,1.52028-3.38878,3.38896,0,1.86817,1.52018,3.38803,3.38878,3.38803h0Z"/>
          </g>
        </g>
      </g>
      <g id="INSERT-30" data-name="INSERT">
        <g id="CIRCLE-32" data-name="CIRCLE">
          <g>
            <path class="cls-4" d="M50.1251,1.93385c1.44466,0,2.61929,1.17613,2.61929,2.62079s-1.17463,2.61929-2.61929,2.61929-2.62079-1.17463-2.62079-2.61929,1.17613-2.62079,2.62079-2.62079Z"/>
            <path class="cls-8" d="M50.12482,6.40584c-1.02306,0-1.85261-.82954-1.85261-1.85186,0-1.02325.82954-1.8528,1.85261-1.8528s1.85125.82954,1.85125,1.8528c0,1.02231-.82818,1.85186-1.85125,1.85186h0ZM50.12482,7.94201c1.86784,0,3.38742-1.51985,3.38742-3.38803,0-1.86869-1.51957-3.38896-3.38742-3.38896-1.86859,0-3.38878,1.52028-3.38878,3.38896,0,1.86817,1.52018,3.38803,3.38878,3.38803h0Z"/>
          </g>
        </g>
      </g>
      <g id="INSERT-31" data-name="INSERT">
        <g id="CIRCLE-33" data-name="CIRCLE">
          <g>
            <path class="cls-4" d="M41.01833,1.93385c1.44466,0,2.61929,1.17613,2.61929,2.62079s-1.17463,2.61929-2.61929,2.61929-2.62079-1.17463-2.62079-2.61929,1.17613-2.62079,2.62079-2.62079Z"/>
            <path class="cls-8" d="M41.01805,6.40584c-1.02306,0-1.85261-.82954-1.85261-1.85186,0-1.02325.82954-1.8528,1.85261-1.8528s1.85125.82954,1.85125,1.8528c0,1.02231-.82818,1.85186-1.85125,1.85186h0ZM41.01805,7.94201c1.86784,0,3.38742-1.51985,3.38742-3.38803,0-1.86869-1.51957-3.38896-3.38742-3.38896-1.86859,0-3.38878,1.52028-3.38878,3.38896,0,1.86817,1.52018,3.38803,3.38878,3.38803h0Z"/>
          </g>
        </g>
      </g>
      <g id="INSERT-32" data-name="INSERT">
        <g id="CIRCLE-34" data-name="CIRCLE">
          <g>
            <path class="cls-4" d="M31.91156,1.93385c1.44466,0,2.61929,1.17613,2.61929,2.62079s-1.17463,2.61929-2.61929,2.61929-2.62079-1.17463-2.62079-2.61929,1.17613-2.62079,2.62079-2.62079Z"/>
            <path class="cls-8" d="M31.91128,6.40584c-1.02306,0-1.85261-.82954-1.85261-1.85186,0-1.02325.82954-1.8528,1.85261-1.8528s1.85125.82954,1.85125,1.8528c0,1.02231-.82818,1.85186-1.85125,1.85186h0ZM31.91128,7.94201c1.86784,0,3.38742-1.51985,3.38742-3.38803,0-1.86869-1.51957-3.38896-3.38742-3.38896-1.86859,0-3.38878,1.52028-3.38878,3.38896,0,1.86817,1.52018,3.38803,3.38878,3.38803h0Z"/>
          </g>
        </g>
      </g>
      <g id="INSERT-33" data-name="INSERT">
        <g id="CIRCLE-35" data-name="CIRCLE">
          <g>
            <path class="cls-4" d="M22.80479,1.93385c1.44466,0,2.61929,1.17613,2.61929,2.62079s-1.17463,2.61929-2.61929,2.61929-2.62079-1.17463-2.62079-2.61929,1.17613-2.62079,2.62079-2.62079Z"/>
            <path class="cls-8" d="M22.8045,6.40584c-1.02306,0-1.85261-.82954-1.85261-1.85186,0-1.02325.82954-1.8528,1.85261-1.8528s1.85125.82954,1.85125,1.8528c0,1.02231-.82818,1.85186-1.85125,1.85186h0ZM22.8045,7.94201c1.86784,0,3.38742-1.51985,3.38742-3.38803,0-1.86869-1.51957-3.38896-3.38742-3.38896-1.86859,0-3.38878,1.52028-3.38878,3.38896,0,1.86817,1.52018,3.38803,3.38878,3.38803h0Z"/>
          </g>
        </g>
      </g>
      <g id="INSERT-34" data-name="INSERT">
        <g id="CIRCLE-36" data-name="CIRCLE">
          <g>
            <path class="cls-4" d="M13.69801,1.93423c1.44466,0,2.61929,1.17613,2.61929,2.62079s-1.17463,2.61929-2.61929,2.61929-2.62079-1.17463-2.62079-2.61929,1.17613-2.62079,2.62079-2.62079Z"/>
            <path class="cls-8" d="M13.69773,6.40621c-1.02306,0-1.85261-.82954-1.85261-1.85186,0-1.02325.82954-1.8528,1.85261-1.8528s1.85125.82954,1.85125,1.8528c0,1.02231-.82818,1.85186-1.85125,1.85186h0ZM13.69773,7.94238c1.86784,0,3.38742-1.51985,3.38742-3.38803,0-1.86869-1.51957-3.38896-3.38742-3.38896-1.86859,0-3.38878,1.52028-3.38878,3.38896,0,1.86817,1.52018,3.38803,3.38878,3.38803h0Z"/>
          </g>
        </g>
      </g>
    </g>
  </g>
  <g>
    <g id="INSERT-35" data-name="INSERT">
      <g id="CIRCLE-37" data-name="CIRCLE">
        <g>
          <path class="cls-4" d="M12.13651,22.82647c0,1.33799-1.08929,2.42589-2.42728,2.42589-1.33799,0-2.42589-1.0879-2.42589-2.42589,0-1.33799,1.0879-2.42728,2.42589-2.42728s2.42728,1.08929,2.42728,2.42728Z"/>
          <path class="cls-8" d="M7.99471,22.82621c0-.94753.76829-1.71582,1.71512-1.71582.9477,0,1.71599.76829,1.71599,1.71582,0,.94753-.76829,1.71456-1.71599,1.71456-.94683,0-1.71512-.76703-1.71512-1.71456h0ZM6.57197,22.82621c0,1.72993,1.40763,3.1373,3.13787,3.1373,1.73071,0,3.13874-1.40737,3.13874-3.1373,0-1.73062-1.40802-3.13856-3.13874-3.13856-1.73023,0-3.13787,1.40794-3.13787,3.13856h0Z"/>
        </g>
      </g>
    </g>
    <g id="INSERT-36" data-name="INSERT">
      <g id="CIRCLE-38" data-name="CIRCLE">
        <g>
          <path class="cls-4" d="M20.72834,22.82647c0,1.33799-1.08929,2.42589-2.42728,2.42589s-2.42589-1.0879-2.42589-2.42589c0-1.33799,1.0879-2.42728,2.42589-2.42728s2.42728,1.08929,2.42728,2.42728Z"/>
          <path class="cls-8" d="M16.58654,22.82621c0-.94753.76829-1.71582,1.71512-1.71582.9477,0,1.71599.76829,1.71599,1.71582,0,.94753-.76829,1.71456-1.71599,1.71456-.94683,0-1.71512-.76703-1.71512-1.71456h0ZM15.1638,22.82621c0,1.72993,1.40763,3.1373,3.13787,3.1373,1.73071,0,3.13874-1.40737,3.13874-3.1373s-1.40802-3.13856-3.13874-3.13856c-1.73023,0-3.13787,1.40794-3.13787,3.13856h0Z"/>
        </g>
      </g>
    </g>
    <g id="INSERT-37" data-name="INSERT">
      <g id="CIRCLE-39" data-name="CIRCLE">
        <g>
          <path class="cls-4" d="M29.32017,22.82647c0,1.33799-1.08929,2.42589-2.42728,2.42589-1.33799,0-2.42589-1.0879-2.42589-2.42589s1.0879-2.42728,2.42589-2.42728,2.42728,1.08929,2.42728,2.42728Z"/>
          <path class="cls-8" d="M25.17838,22.82621c0-.94753.76829-1.71582,1.71512-1.71582.9477,0,1.71599.76829,1.71599,1.71582,0,.94753-.76829,1.71456-1.71599,1.71456-.94683,0-1.71512-.76703-1.71512-1.71456h0ZM23.75563,22.82621c0,1.72993,1.40763,3.1373,3.13787,3.1373,1.73071,0,3.13874-1.40737,3.13874-3.1373,0-1.73062-1.40802-3.13856-3.13874-3.13856-1.73023,0-3.13787,1.40794-3.13787,3.13856h0Z"/>
        </g>
      </g>
    </g>
    <g id="INSERT-38" data-name="INSERT">
      <g id="CIRCLE-40" data-name="CIRCLE">
        <g>
          <path class="cls-4" d="M12.13651,14.23511c0,1.33799-1.08929,2.42589-2.42728,2.42589s-2.42589-1.0879-2.42589-2.42589c0-1.33799,1.0879-2.42728,2.42589-2.42728,1.33799,0,2.42728,1.08929,2.42728,2.42728Z"/>
          <path class="cls-8" d="M7.99471,14.23485c0-.94753.76829-1.71582,1.71512-1.71582.9477,0,1.71599.76829,1.71599,1.71582,0,.94753-.76829,1.71456-1.71599,1.71456-.94683,0-1.71512-.76703-1.71512-1.71456h0ZM6.57197,14.23485c0,1.72993,1.40763,3.1373,3.13787,3.1373,1.73071,0,3.13874-1.40737,3.13874-3.1373,0-1.73062-1.40802-3.13856-3.13874-3.13856-1.73023,0-3.13787,1.40794-3.13787,3.13856h0Z"/>
        </g>
      </g>
    </g>
    <g id="INSERT-39" data-name="INSERT">
      <g id="CIRCLE-41" data-name="CIRCLE">
        <g>
          <path class="cls-4" d="M20.72834,14.23511c0,1.33799-1.08929,2.42589-2.42728,2.42589s-2.42589-1.0879-2.42589-2.42589c0-1.33799,1.0879-2.42728,2.42589-2.42728s2.42728,1.08929,2.42728,2.42728Z"/>
          <path class="cls-8" d="M16.58654,14.23485c0-.94753.76829-1.71582,1.71512-1.71582.9477,0,1.71599.76829,1.71599,1.71582s-.76829,1.71456-1.71599,1.71456c-.94683,0-1.71512-.76703-1.71512-1.71456h0ZM15.1638,14.23485c0,1.72993,1.40763,3.1373,3.13787,3.1373,1.73071,0,3.13874-1.40737,3.13874-3.1373,0-1.73062-1.40802-3.13856-3.13874-3.13856-1.73023,0-3.13787,1.40794-3.13787,3.13856h0Z"/>
        </g>
      </g>
    </g>
    <g id="INSERT-40" data-name="INSERT">
      <g id="CIRCLE-42" data-name="CIRCLE">
        <g>
          <path class="cls-4" d="M29.32017,14.23511c0,1.33799-1.08929,2.42589-2.42728,2.42589s-2.42589-1.0879-2.42589-2.42589c0-1.33799,1.0879-2.42728,2.42589-2.42728,1.33799,0,2.42728,1.08929,2.42728,2.42728Z"/>
          <path class="cls-8" d="M25.17838,14.23485c0-.94753.76829-1.71582,1.71512-1.71582.9477,0,1.71599.76829,1.71599,1.71582,0,.94753-.76829,1.71456-1.71599,1.71456-.94683,0-1.71512-.76703-1.71512-1.71456h0ZM23.75563,14.23485c0,1.72993,1.40763,3.1373,3.13787,3.1373,1.73071,0,3.13874-1.40737,3.13874-3.1373,0-1.73062-1.40802-3.13856-3.13874-3.13856-1.73023,0-3.13787,1.40794-3.13787,3.13856h0Z"/>
        </g>
      </g>
    </g>
  </g>
</svg>