<svg width="1920" height="1072" viewBox="0 0 1920 1072" fill="none" xmlns="http://www.w3.org/2000/svg">
<rect width="1920" height="1072" fill="#363636"/>
<rect x="791" y="240" width="339" height="663" rx="4" fill="white" fill-opacity="0.1"/>
<rect x="819" y="273" width="283" height="200" rx="6" fill="#8C9091"/>
<path d="M873.618 381.094H868.846V401H872.373V395.107L872.209 386.166L874.547 394.438H876.448L879.059 385.797L878.895 395.107V401H882.422V381.094H877.651L875.504 388.572L873.618 381.094ZM897.235 393.604V381.094H893.38L885.013 394.301L885.163 396.68H893.435V401H897.235V396.68H899.546V393.604H897.235ZM888.745 393.604L893.066 386.863L893.435 386.207V393.604H888.745ZM932.823 392.756V389.639H924.292V384.225H933.889V381.094H920.436V401H924.292V392.756H932.823ZM938.435 386.207V389.311H942.646V397.91H938.435V401H950.493V397.91H946.488V386.207H938.435ZM942.372 382.42C942.372 382.712 942.422 382.985 942.523 383.24C942.632 383.486 942.783 383.696 942.974 383.869C943.165 384.051 943.393 384.193 943.658 384.293C943.931 384.393 944.232 384.443 944.56 384.443C945.234 384.443 945.768 384.257 946.159 383.883C946.56 383.5 946.761 383.012 946.761 382.42C946.761 381.827 946.56 381.344 946.159 380.971C945.768 380.588 945.234 380.396 944.56 380.396C944.232 380.396 943.931 380.447 943.658 380.547C943.393 380.647 943.165 380.784 942.974 380.957C942.783 381.139 942.632 381.358 942.523 381.613C942.422 381.859 942.372 382.128 942.372 382.42ZM965.143 385.934C964.149 385.934 963.233 386.175 962.395 386.658C961.556 387.132 960.836 387.788 960.234 388.627L960.207 388.299L960.057 386.207H956.516V401H960.316V392.113C960.49 391.694 960.708 391.329 960.973 391.02C961.237 390.71 961.556 390.454 961.93 390.254C962.24 390.081 962.59 389.953 962.982 389.871C963.383 389.78 963.83 389.734 964.322 389.734C964.796 389.734 965.293 389.766 965.812 389.83C966.341 389.885 966.856 389.971 967.357 390.09L967.918 386.303C967.617 386.212 967.221 386.13 966.729 386.057C966.245 385.975 965.717 385.934 965.143 385.934ZM973.981 386.207H970.714V401H974.173V389.926C974.218 389.807 974.268 389.698 974.323 389.598C974.378 389.497 974.441 389.411 974.514 389.338C974.615 389.238 974.729 389.16 974.856 389.105C974.984 389.051 975.13 389.023 975.294 389.023C975.44 389.023 975.576 389.046 975.704 389.092C975.831 389.128 975.945 389.197 976.046 389.297C976.137 389.397 976.21 389.538 976.264 389.721C976.319 389.903 976.346 390.135 976.346 390.418V401H979.696V390.09C979.696 389.98 979.696 389.894 979.696 389.83C979.696 389.766 979.696 389.725 979.696 389.707C979.742 389.607 979.796 389.52 979.86 389.447C979.924 389.365 979.997 389.292 980.079 389.229C980.179 389.165 980.284 389.115 980.393 389.078C980.512 389.042 980.644 389.023 980.79 389.023C980.926 389.023 981.059 389.046 981.186 389.092C981.323 389.128 981.441 389.197 981.542 389.297C981.642 389.406 981.719 389.552 981.774 389.734C981.838 389.917 981.87 390.149 981.87 390.432V401H985.329V390.445C985.329 389.625 985.247 388.932 985.083 388.367C984.928 387.793 984.709 387.324 984.426 386.959C984.135 386.604 983.793 386.344 983.401 386.18C983.018 386.016 982.604 385.934 982.157 385.934C981.801 385.934 981.473 385.979 981.173 386.07C980.872 386.161 980.603 386.289 980.366 386.453C980.175 386.581 979.997 386.736 979.833 386.918C979.678 387.091 979.537 387.287 979.409 387.506C979.327 387.278 979.227 387.077 979.108 386.904C978.999 386.722 978.867 386.567 978.712 386.439C978.511 386.266 978.274 386.139 978.001 386.057C977.727 385.975 977.417 385.934 977.071 385.934C976.36 385.934 975.754 386.12 975.253 386.494C974.76 386.859 974.373 387.36 974.091 387.998L973.981 386.207ZM989.806 401H993.142L994.714 393.098L995.015 391.594L995.33 393.098L996.956 401H1000.29L1002.94 386.207H999.458L998.365 394.93L998.173 396.365L997.914 394.957L996.314 386.207H993.771L992.171 394.998L991.912 396.406L991.734 394.998L990.626 386.207H987.154L989.806 401ZM1015.05 401H1018.91V400.768C1018.71 400.394 1018.57 399.947 1018.47 399.428C1018.37 398.908 1018.32 398.252 1018.32 397.459V391.115C1018.32 390.258 1018.16 389.507 1017.84 388.859C1017.52 388.203 1017.08 387.661 1016.51 387.232C1015.95 386.804 1015.28 386.48 1014.5 386.262C1013.74 386.043 1012.91 385.934 1012.02 385.934C1011.02 385.934 1010.14 386.061 1009.36 386.316C1008.6 386.562 1007.95 386.9 1007.42 387.328C1006.88 387.757 1006.47 388.253 1006.19 388.818C1005.92 389.383 1005.78 389.98 1005.78 390.609H1009.58C1009.58 390.345 1009.62 390.104 1009.69 389.885C1009.77 389.666 1009.9 389.479 1010.06 389.324C1010.24 389.151 1010.48 389.019 1010.77 388.928C1011.06 388.827 1011.41 388.777 1011.81 388.777C1012.27 388.777 1012.66 388.837 1013 388.955C1013.35 389.064 1013.63 389.224 1013.86 389.434C1014.08 389.634 1014.24 389.876 1014.35 390.158C1014.46 390.432 1014.52 390.742 1014.52 391.088V391.963H1012.4C1011.3 391.963 1010.33 392.063 1009.49 392.264C1008.65 392.455 1007.94 392.738 1007.37 393.111C1006.73 393.521 1006.25 394.046 1005.93 394.684C1005.61 395.312 1005.45 396.037 1005.45 396.857C1005.45 397.495 1005.58 398.088 1005.84 398.635C1006.09 399.173 1006.45 399.637 1006.9 400.029C1007.36 400.421 1007.9 400.727 1008.53 400.945C1009.17 401.164 1009.86 401.273 1010.62 401.273C1011.09 401.273 1011.52 401.228 1011.92 401.137C1012.32 401.055 1012.69 400.936 1013.03 400.781C1013.36 400.635 1013.66 400.462 1013.93 400.262C1014.2 400.061 1014.44 399.847 1014.65 399.619C1014.7 399.883 1014.75 400.134 1014.82 400.371C1014.88 400.608 1014.96 400.818 1015.05 401ZM1011.43 398.334C1011.07 398.334 1010.76 398.293 1010.48 398.211C1010.22 398.12 1010 398.001 1009.81 397.855C1009.63 397.701 1009.49 397.514 1009.39 397.295C1009.3 397.067 1009.25 396.821 1009.25 396.557C1009.25 396.219 1009.32 395.91 1009.45 395.627C1009.57 395.335 1009.77 395.085 1010.03 394.875C1010.3 394.674 1010.64 394.52 1011.06 394.41C1011.48 394.292 1011.98 394.232 1012.58 394.232H1014.52V396.775C1014.41 396.967 1014.26 397.158 1014.07 397.35C1013.88 397.532 1013.65 397.696 1013.38 397.842C1013.12 397.988 1012.82 398.106 1012.49 398.197C1012.17 398.288 1011.81 398.334 1011.43 398.334ZM1033.53 385.934C1032.53 385.934 1031.62 386.175 1030.78 386.658C1029.94 387.132 1029.22 387.788 1028.62 388.627L1028.59 388.299L1028.44 386.207H1024.9V401H1028.7V392.113C1028.88 391.694 1029.09 391.329 1029.36 391.02C1029.62 390.71 1029.94 390.454 1030.32 390.254C1030.63 390.081 1030.98 389.953 1031.37 389.871C1031.77 389.78 1032.22 389.734 1032.71 389.734C1033.18 389.734 1033.68 389.766 1034.2 389.83C1034.73 389.885 1035.24 389.971 1035.74 390.09L1036.3 386.303C1036 386.212 1035.61 386.13 1035.11 386.057C1034.63 385.975 1034.1 385.934 1033.53 385.934ZM1047.18 401.273C1048.61 401.273 1049.85 400.995 1050.9 400.439C1051.95 399.883 1052.71 399.264 1053.19 398.58L1051.29 396.529C1050.86 397.094 1050.29 397.518 1049.59 397.801C1048.88 398.083 1048.16 398.225 1047.41 398.225C1046.88 398.225 1046.4 398.143 1045.95 397.979C1045.5 397.814 1045.11 397.582 1044.76 397.281C1044.42 396.99 1044.15 396.666 1043.95 396.311C1043.75 395.946 1043.59 395.467 1043.46 394.875V394.834H1053.5V393.221C1053.5 392.136 1053.35 391.147 1053.04 390.254C1052.74 389.352 1052.31 388.581 1051.73 387.943C1051.15 387.305 1050.44 386.813 1049.6 386.467C1048.77 386.111 1047.82 385.934 1046.76 385.934C1045.73 385.934 1044.77 386.12 1043.9 386.494C1043.02 386.868 1042.27 387.392 1041.63 388.066C1040.99 388.741 1040.49 389.548 1040.14 390.486C1039.78 391.416 1039.61 392.446 1039.61 393.576V394.123C1039.61 395.117 1039.78 396.051 1040.14 396.926C1040.5 397.792 1041.02 398.544 1041.68 399.182C1042.35 399.829 1043.15 400.339 1044.08 400.713C1045.01 401.087 1046.04 401.273 1047.18 401.273ZM1046.73 389.01C1047.21 389.01 1047.64 389.087 1048 389.242C1048.37 389.388 1048.69 389.589 1048.94 389.844C1049.2 390.108 1049.4 390.418 1049.54 390.773C1049.69 391.129 1049.76 391.507 1049.76 391.908V392.209H1043.53C1043.62 391.726 1043.76 391.288 1043.94 390.896C1044.12 390.505 1044.35 390.167 1044.62 389.885C1044.89 389.602 1045.2 389.388 1045.55 389.242C1045.91 389.087 1046.3 389.01 1046.73 389.01Z" fill="white"/>
<path d="M890.547 350.426V345.668C890.547 344.383 890.396 343.253 890.095 342.277C889.795 341.293 889.366 340.468 888.81 339.803C888.245 339.146 887.562 338.65 886.76 338.312C885.957 337.975 885.055 337.807 884.052 337.807C883.059 337.807 882.161 337.975 881.359 338.312C880.566 338.65 879.892 339.146 879.336 339.803C878.771 340.468 878.338 341.293 878.037 342.277C877.736 343.253 877.586 344.383 877.586 345.668V350.426C877.586 351.711 877.736 352.846 878.037 353.83C878.347 354.805 878.784 355.621 879.349 356.277C879.905 356.943 880.584 357.444 881.386 357.781C882.189 358.118 883.086 358.287 884.08 358.287C885.082 358.287 885.985 358.118 886.787 357.781C887.589 357.444 888.268 356.943 888.824 356.277C889.38 355.621 889.804 354.805 890.095 353.83C890.396 352.846 890.547 351.711 890.547 350.426ZM881.414 348.785C881.414 348.503 881.414 348.288 881.414 348.143C881.414 347.997 881.414 347.705 881.414 347.268V345.066C881.414 344.328 881.469 343.69 881.578 343.152C881.696 342.615 881.874 342.177 882.111 341.84C882.33 341.521 882.599 341.284 882.918 341.129C883.246 340.965 883.624 340.883 884.052 340.883C884.435 340.883 884.777 340.947 885.078 341.074C885.388 341.193 885.648 341.38 885.857 341.635C886.131 341.954 886.336 342.382 886.472 342.92C886.618 343.449 886.7 344.087 886.719 344.834L881.414 348.785ZM886.719 351C886.719 351.738 886.659 352.381 886.541 352.928C886.431 353.465 886.263 353.908 886.035 354.254C885.816 354.582 885.543 354.828 885.215 354.992C884.886 355.147 884.508 355.225 884.08 355.225C883.615 355.225 883.214 355.133 882.877 354.951C882.539 354.769 882.261 354.491 882.043 354.117C881.851 353.807 881.701 353.42 881.592 352.955C881.491 352.49 881.432 351.957 881.414 351.355L886.719 347.418C886.719 347.682 886.719 347.887 886.719 348.033C886.719 348.17 886.719 348.389 886.719 348.689V351ZM901.45 347.828L898.25 343.207H894.163L899.112 350.467L893.971 358H898.086L901.463 353.16L904.868 358H908.969L903.829 350.467L908.791 343.207H904.704L901.45 347.828ZM924.739 350.426V345.668C924.739 344.383 924.589 343.253 924.288 342.277C923.987 341.293 923.559 340.468 923.003 339.803C922.438 339.146 921.754 338.65 920.952 338.312C920.15 337.975 919.248 337.807 918.245 337.807C917.252 337.807 916.354 337.975 915.552 338.312C914.759 338.65 914.085 339.146 913.529 339.803C912.963 340.468 912.53 341.293 912.23 342.277C911.929 343.253 911.779 344.383 911.779 345.668V350.426C911.779 351.711 911.929 352.846 912.23 353.83C912.54 354.805 912.977 355.621 913.542 356.277C914.098 356.943 914.777 357.444 915.579 357.781C916.381 358.118 917.279 358.287 918.273 358.287C919.275 358.287 920.178 358.118 920.98 357.781C921.782 357.444 922.461 356.943 923.017 356.277C923.573 355.621 923.997 354.805 924.288 353.83C924.589 352.846 924.739 351.711 924.739 350.426ZM915.607 348.785C915.607 348.503 915.607 348.288 915.607 348.143C915.607 347.997 915.607 347.705 915.607 347.268V345.066C915.607 344.328 915.661 343.69 915.771 343.152C915.889 342.615 916.067 342.177 916.304 341.84C916.523 341.521 916.792 341.284 917.111 341.129C917.439 340.965 917.817 340.883 918.245 340.883C918.628 340.883 918.97 340.947 919.271 341.074C919.581 341.193 919.84 341.38 920.05 341.635C920.323 341.954 920.529 342.382 920.665 342.92C920.811 343.449 920.893 344.087 920.911 344.834L915.607 348.785ZM920.911 351C920.911 351.738 920.852 352.381 920.734 352.928C920.624 353.465 920.456 353.908 920.228 354.254C920.009 354.582 919.736 354.828 919.407 354.992C919.079 355.147 918.701 355.225 918.273 355.225C917.808 355.225 917.407 355.133 917.07 354.951C916.732 354.769 916.454 354.491 916.236 354.117C916.044 353.807 915.894 353.42 915.784 352.955C915.684 352.49 915.625 351.957 915.607 351.355L920.911 347.418C920.911 347.682 920.911 347.887 920.911 348.033C920.911 348.17 920.911 348.389 920.911 348.689V351ZM941.371 343.385C941.371 342.482 941.212 341.689 940.893 341.006C940.583 340.313 940.15 339.73 939.594 339.256C939.029 338.782 938.363 338.426 937.598 338.189C936.832 337.943 935.998 337.82 935.096 337.82C934.193 337.82 933.359 337.943 932.594 338.189C931.837 338.426 931.185 338.782 930.639 339.256C930.083 339.73 929.65 340.313 929.34 341.006C929.03 341.689 928.875 342.482 928.875 343.385C928.875 343.877 928.939 344.346 929.066 344.793C929.203 345.24 929.394 345.65 929.641 346.023C929.868 346.379 930.146 346.702 930.475 346.994C930.812 347.286 931.185 347.536 931.596 347.746C931.113 347.974 930.675 348.252 930.283 348.58C929.9 348.899 929.572 349.259 929.299 349.66C929.025 350.07 928.811 350.521 928.656 351.014C928.51 351.497 928.437 352.012 928.437 352.559C928.437 353.497 928.606 354.322 928.943 355.033C929.29 355.744 929.764 356.337 930.365 356.811C930.967 357.294 931.673 357.658 932.484 357.904C933.305 358.15 934.189 358.273 935.137 358.273C936.075 358.273 936.95 358.15 937.762 357.904C938.573 357.658 939.279 357.294 939.881 356.811C940.473 356.337 940.938 355.744 941.275 355.033C941.622 354.322 941.795 353.497 941.795 352.559C941.795 351.848 941.672 351.191 941.426 350.59C941.18 349.988 940.838 349.46 940.4 349.004C940.163 348.749 939.894 348.521 939.594 348.32C939.293 348.111 938.974 347.924 938.637 347.76C939.01 347.568 939.348 347.345 939.648 347.09C939.958 346.826 940.227 346.543 940.455 346.242C940.747 345.841 940.97 345.404 941.125 344.93C941.289 344.447 941.371 343.932 941.371 343.385ZM937.98 352.299C937.98 352.755 937.907 353.165 937.762 353.529C937.625 353.885 937.434 354.19 937.187 354.445C936.932 354.701 936.631 354.896 936.285 355.033C935.939 355.161 935.556 355.225 935.137 355.225C934.708 355.225 934.321 355.165 933.975 355.047C933.628 354.919 933.332 354.737 933.086 354.5C932.822 354.254 932.616 353.944 932.471 353.57C932.325 353.197 932.252 352.773 932.252 352.299C932.252 351.843 932.32 351.433 932.457 351.068C932.594 350.704 932.785 350.389 933.031 350.125C933.277 349.87 933.573 349.674 933.92 349.537C934.275 349.4 934.672 349.332 935.109 349.332C935.547 349.332 935.939 349.4 936.285 349.537C936.641 349.674 936.946 349.87 937.201 350.125C937.447 350.389 937.639 350.704 937.775 351.068C937.912 351.433 937.98 351.843 937.98 352.299ZM937.584 343.562C937.584 343.964 937.525 344.333 937.406 344.67C937.297 344.998 937.137 345.281 936.928 345.518C936.718 345.755 936.463 345.941 936.162 346.078C935.861 346.206 935.519 346.27 935.137 346.27C934.754 346.27 934.407 346.206 934.098 346.078C933.797 345.941 933.542 345.755 933.332 345.518C933.113 345.281 932.949 344.998 932.84 344.67C932.73 344.333 932.676 343.964 932.676 343.562C932.676 343.152 932.726 342.783 932.826 342.455C932.935 342.118 933.095 341.835 933.305 341.607C933.505 341.38 933.756 341.206 934.057 341.088C934.357 340.96 934.704 340.896 935.096 340.896C935.478 340.896 935.82 340.96 936.121 341.088C936.431 341.215 936.695 341.393 936.914 341.621C937.124 341.858 937.288 342.141 937.406 342.469C937.525 342.797 937.584 343.161 937.584 343.562ZM955.282 358V338.094H955.077L946.409 341.225V344.533L951.44 342.729V358H955.282ZM976.029 350.426V345.668C976.029 344.383 975.878 343.253 975.577 342.277C975.277 341.293 974.848 340.468 974.292 339.803C973.727 339.146 973.044 338.65 972.242 338.312C971.439 337.975 970.537 337.807 969.535 337.807C968.541 337.807 967.643 337.975 966.841 338.312C966.048 338.65 965.374 339.146 964.818 339.803C964.253 340.468 963.82 341.293 963.519 342.277C963.218 343.253 963.068 344.383 963.068 345.668V350.426C963.068 351.711 963.218 352.846 963.519 353.83C963.829 354.805 964.266 355.621 964.831 356.277C965.387 356.943 966.066 357.444 966.869 357.781C967.671 358.118 968.568 358.287 969.562 358.287C970.564 358.287 971.467 358.118 972.269 357.781C973.071 357.444 973.75 356.943 974.306 356.277C974.862 355.621 975.286 354.805 975.577 353.83C975.878 352.846 976.029 351.711 976.029 350.426ZM966.896 348.785C966.896 348.503 966.896 348.288 966.896 348.143C966.896 347.997 966.896 347.705 966.896 347.268V345.066C966.896 344.328 966.951 343.69 967.06 343.152C967.178 342.615 967.356 342.177 967.593 341.84C967.812 341.521 968.081 341.284 968.4 341.129C968.728 340.965 969.106 340.883 969.535 340.883C969.917 340.883 970.259 340.947 970.56 341.074C970.87 341.193 971.13 341.38 971.339 341.635C971.613 341.954 971.818 342.382 971.954 342.92C972.1 343.449 972.182 344.087 972.201 344.834L966.896 348.785ZM972.201 351C972.201 351.738 972.141 352.381 972.023 352.928C971.913 353.465 971.745 353.908 971.517 354.254C971.298 354.582 971.025 354.828 970.697 354.992C970.369 355.147 969.99 355.225 969.562 355.225C969.097 355.225 968.696 355.133 968.359 354.951C968.022 354.769 967.744 354.491 967.525 354.117C967.333 353.807 967.183 353.42 967.074 352.955C966.973 352.49 966.914 351.957 966.896 351.355L972.201 347.418C972.201 347.682 972.201 347.887 972.201 348.033C972.201 348.17 972.201 348.389 972.201 348.689V351ZM993.125 350.426V345.668C993.125 344.383 992.975 343.253 992.674 342.277C992.373 341.293 991.945 340.468 991.389 339.803C990.824 339.146 990.14 338.65 989.338 338.312C988.536 337.975 987.634 337.807 986.631 337.807C985.637 337.807 984.74 337.975 983.938 338.312C983.145 338.65 982.47 339.146 981.914 339.803C981.349 340.468 980.916 341.293 980.615 342.277C980.315 343.253 980.164 344.383 980.164 345.668V350.426C980.164 351.711 980.315 352.846 980.615 353.83C980.925 354.805 981.363 355.621 981.928 356.277C982.484 356.943 983.163 357.444 983.965 357.781C984.767 358.118 985.665 358.287 986.658 358.287C987.661 358.287 988.563 358.118 989.365 357.781C990.167 357.444 990.846 356.943 991.402 356.277C991.958 355.621 992.382 354.805 992.674 353.83C992.975 352.846 993.125 351.711 993.125 350.426ZM983.992 348.785C983.992 348.503 983.992 348.288 983.992 348.143C983.992 347.997 983.992 347.705 983.992 347.268V345.066C983.992 344.328 984.047 343.69 984.156 343.152C984.275 342.615 984.453 342.177 984.69 341.84C984.908 341.521 985.177 341.284 985.496 341.129C985.824 340.965 986.203 340.883 986.631 340.883C987.014 340.883 987.356 340.947 987.656 341.074C987.966 341.193 988.226 341.38 988.436 341.635C988.709 341.954 988.914 342.382 989.051 342.92C989.197 343.449 989.279 344.087 989.297 344.834L983.992 348.785ZM989.297 351C989.297 351.738 989.238 352.381 989.119 352.928C989.01 353.465 988.841 353.908 988.613 354.254C988.395 354.582 988.121 354.828 987.793 354.992C987.465 355.147 987.087 355.225 986.658 355.225C986.193 355.225 985.792 355.133 985.455 354.951C985.118 354.769 984.84 354.491 984.621 354.117C984.43 353.807 984.279 353.42 984.17 352.955C984.07 352.49 984.01 351.957 983.992 351.355L989.297 347.418C989.297 347.682 989.297 347.887 989.297 348.033C989.297 348.17 989.297 348.389 989.297 348.689V351ZM1010.22 350.426V345.668C1010.22 344.383 1010.07 343.253 1009.77 342.277C1009.47 341.293 1009.04 340.468 1008.49 339.803C1007.92 339.146 1007.24 338.65 1006.43 338.312C1005.63 337.975 1004.73 337.807 1003.73 337.807C1002.73 337.807 1001.84 337.975 1001.03 338.312C1000.24 338.65 999.567 339.146 999.011 339.803C998.445 340.468 998.012 341.293 997.712 342.277C997.411 343.253 997.261 344.383 997.261 345.668V350.426C997.261 351.711 997.411 352.846 997.712 353.83C998.022 354.805 998.459 355.621 999.024 356.277C999.58 356.943 1000.26 357.444 1001.06 357.781C1001.86 358.118 1002.76 358.287 1003.75 358.287C1004.76 358.287 1005.66 358.118 1006.46 357.781C1007.26 357.444 1007.94 356.943 1008.5 356.277C1009.05 355.621 1009.48 354.805 1009.77 353.83C1010.07 352.846 1010.22 351.711 1010.22 350.426ZM1001.09 348.785C1001.09 348.503 1001.09 348.288 1001.09 348.143C1001.09 347.997 1001.09 347.705 1001.09 347.268V345.066C1001.09 344.328 1001.14 343.69 1001.25 343.152C1001.37 342.615 1001.55 342.177 1001.79 341.84C1002 341.521 1002.27 341.284 1002.59 341.129C1002.92 340.965 1003.3 340.883 1003.73 340.883C1004.11 340.883 1004.45 340.947 1004.75 341.074C1005.06 341.193 1005.32 341.38 1005.53 341.635C1005.81 341.954 1006.01 342.382 1006.15 342.92C1006.29 343.449 1006.38 344.087 1006.39 344.834L1001.09 348.785ZM1006.39 351C1006.39 351.738 1006.33 352.381 1006.22 352.928C1006.11 353.465 1005.94 353.908 1005.71 354.254C1005.49 354.582 1005.22 354.828 1004.89 354.992C1004.56 355.147 1004.18 355.225 1003.75 355.225C1003.29 355.225 1002.89 355.133 1002.55 354.951C1002.21 354.769 1001.94 354.491 1001.72 354.117C1001.53 353.807 1001.38 353.42 1001.27 352.955C1001.17 352.49 1001.11 351.957 1001.09 351.355L1006.39 347.418C1006.39 347.682 1006.39 347.887 1006.39 348.033C1006.39 348.17 1006.39 348.389 1006.39 348.689V351ZM1027.32 350.426V345.668C1027.32 344.383 1027.17 343.253 1026.87 342.277C1026.57 341.293 1026.14 340.468 1025.58 339.803C1025.02 339.146 1024.33 338.65 1023.53 338.312C1022.73 337.975 1021.83 337.807 1020.82 337.807C1019.83 337.807 1018.93 337.975 1018.13 338.312C1017.34 338.65 1016.66 339.146 1016.11 339.803C1015.54 340.468 1015.11 341.293 1014.81 342.277C1014.51 343.253 1014.36 344.383 1014.36 345.668V350.426C1014.36 351.711 1014.51 352.846 1014.81 353.83C1015.12 354.805 1015.56 355.621 1016.12 356.277C1016.68 356.943 1017.36 357.444 1018.16 357.781C1018.96 358.118 1019.86 358.287 1020.85 358.287C1021.85 358.287 1022.76 358.118 1023.56 357.781C1024.36 357.444 1025.04 356.943 1025.6 356.277C1026.15 355.621 1026.58 354.805 1026.87 353.83C1027.17 352.846 1027.32 351.711 1027.32 350.426ZM1018.19 348.785C1018.19 348.503 1018.19 348.288 1018.19 348.143C1018.19 347.997 1018.19 347.705 1018.19 347.268V345.066C1018.19 344.328 1018.24 343.69 1018.35 343.152C1018.47 342.615 1018.65 342.177 1018.88 341.84C1019.1 341.521 1019.37 341.284 1019.69 341.129C1020.02 340.965 1020.4 340.883 1020.82 340.883C1021.21 340.883 1021.55 340.947 1021.85 341.074C1022.16 341.193 1022.42 341.38 1022.63 341.635C1022.9 341.954 1023.11 342.382 1023.24 342.92C1023.39 343.449 1023.47 344.087 1023.49 344.834L1018.19 348.785ZM1023.49 351C1023.49 351.738 1023.43 352.381 1023.31 352.928C1023.2 353.465 1023.03 353.908 1022.81 354.254C1022.59 354.582 1022.31 354.828 1021.99 354.992C1021.66 355.147 1021.28 355.225 1020.85 355.225C1020.39 355.225 1019.99 355.133 1019.65 354.951C1019.31 354.769 1019.03 354.491 1018.81 354.117C1018.62 353.807 1018.47 353.42 1018.36 352.955C1018.26 352.49 1018.2 351.957 1018.19 351.355L1023.49 347.418C1023.49 347.682 1023.49 347.887 1023.49 348.033C1023.49 348.17 1023.49 348.389 1023.49 348.689V351ZM1044.41 350.426V345.668C1044.41 344.383 1044.26 343.253 1043.96 342.277C1043.66 341.293 1043.23 340.468 1042.68 339.803C1042.11 339.146 1041.43 338.65 1040.63 338.312C1039.83 337.975 1038.92 337.807 1037.92 337.807C1036.93 337.807 1036.03 337.975 1035.23 338.312C1034.43 338.65 1033.76 339.146 1033.2 339.803C1032.64 340.468 1032.21 341.293 1031.9 342.277C1031.6 343.253 1031.45 344.383 1031.45 345.668V350.426C1031.45 351.711 1031.6 352.846 1031.9 353.83C1032.21 354.805 1032.65 355.621 1033.22 356.277C1033.77 356.943 1034.45 357.444 1035.25 357.781C1036.06 358.118 1036.95 358.287 1037.95 358.287C1038.95 358.287 1039.85 358.118 1040.65 357.781C1041.46 357.444 1042.14 356.943 1042.69 356.277C1043.25 355.621 1043.67 354.805 1043.96 353.83C1044.26 352.846 1044.41 351.711 1044.41 350.426ZM1035.28 348.785C1035.28 348.503 1035.28 348.288 1035.28 348.143C1035.28 347.997 1035.28 347.705 1035.28 347.268V345.066C1035.28 344.328 1035.34 343.69 1035.45 343.152C1035.56 342.615 1035.74 342.177 1035.98 341.84C1036.2 341.521 1036.47 341.284 1036.79 341.129C1037.11 340.965 1037.49 340.883 1037.92 340.883C1038.3 340.883 1038.64 340.947 1038.95 341.074C1039.26 341.193 1039.52 341.38 1039.72 341.635C1040 341.954 1040.2 342.382 1040.34 342.92C1040.49 343.449 1040.57 344.087 1040.59 344.834L1035.28 348.785ZM1040.59 351C1040.59 351.738 1040.53 352.381 1040.41 352.928C1040.3 353.465 1040.13 353.908 1039.9 354.254C1039.68 354.582 1039.41 354.828 1039.08 354.992C1038.75 355.147 1038.38 355.225 1037.95 355.225C1037.48 355.225 1037.08 355.133 1036.74 354.951C1036.41 354.769 1036.13 354.491 1035.91 354.117C1035.72 353.807 1035.57 353.42 1035.46 352.955C1035.36 352.49 1035.3 351.957 1035.28 351.355L1040.59 347.418C1040.59 347.682 1040.59 347.887 1040.59 348.033C1040.59 348.17 1040.59 348.389 1040.59 348.689V351Z" fill="white"/>
<rect x="819" y="498" width="283" height="200" rx="6" fill="#8C9091"/>
<path d="M873.618 606.094H868.846V626H872.373V620.107L872.209 611.166L874.547 619.438H876.448L879.059 610.797L878.895 620.107V626H882.422V606.094H877.651L875.504 613.572L873.618 606.094ZM899.136 608.213V606.094H885.15V609.197H895.144L887.378 626H891.384L899.136 608.213ZM932.823 617.756V614.639H924.292V609.225H933.889V606.094H920.436V626H924.292V617.756H932.823ZM938.435 611.207V614.311H942.646V622.91H938.435V626H950.493V622.91H946.488V611.207H938.435ZM942.372 607.42C942.372 607.712 942.422 607.985 942.523 608.24C942.632 608.486 942.783 608.696 942.974 608.869C943.165 609.051 943.393 609.193 943.658 609.293C943.931 609.393 944.232 609.443 944.56 609.443C945.234 609.443 945.768 609.257 946.159 608.883C946.56 608.5 946.761 608.012 946.761 607.42C946.761 606.827 946.56 606.344 946.159 605.971C945.768 605.588 945.234 605.396 944.56 605.396C944.232 605.396 943.931 605.447 943.658 605.547C943.393 605.647 943.165 605.784 942.974 605.957C942.783 606.139 942.632 606.358 942.523 606.613C942.422 606.859 942.372 607.128 942.372 607.42ZM965.143 610.934C964.149 610.934 963.233 611.175 962.395 611.658C961.556 612.132 960.836 612.788 960.234 613.627L960.207 613.299L960.057 611.207H956.516V626H960.316V617.113C960.49 616.694 960.708 616.329 960.973 616.02C961.237 615.71 961.556 615.454 961.93 615.254C962.24 615.081 962.59 614.953 962.982 614.871C963.383 614.78 963.83 614.734 964.322 614.734C964.796 614.734 965.293 614.766 965.812 614.83C966.341 614.885 966.856 614.971 967.357 615.09L967.918 611.303C967.617 611.212 967.221 611.13 966.729 611.057C966.245 610.975 965.717 610.934 965.143 610.934ZM973.981 611.207H970.714V626H974.173V614.926C974.218 614.807 974.268 614.698 974.323 614.598C974.378 614.497 974.441 614.411 974.514 614.338C974.615 614.238 974.729 614.16 974.856 614.105C974.984 614.051 975.13 614.023 975.294 614.023C975.44 614.023 975.576 614.046 975.704 614.092C975.831 614.128 975.945 614.197 976.046 614.297C976.137 614.397 976.21 614.538 976.264 614.721C976.319 614.903 976.346 615.135 976.346 615.418V626H979.696V615.09C979.696 614.98 979.696 614.894 979.696 614.83C979.696 614.766 979.696 614.725 979.696 614.707C979.742 614.607 979.796 614.52 979.86 614.447C979.924 614.365 979.997 614.292 980.079 614.229C980.179 614.165 980.284 614.115 980.393 614.078C980.512 614.042 980.644 614.023 980.79 614.023C980.926 614.023 981.059 614.046 981.186 614.092C981.323 614.128 981.441 614.197 981.542 614.297C981.642 614.406 981.719 614.552 981.774 614.734C981.838 614.917 981.87 615.149 981.87 615.432V626H985.329V615.445C985.329 614.625 985.247 613.932 985.083 613.367C984.928 612.793 984.709 612.324 984.426 611.959C984.135 611.604 983.793 611.344 983.401 611.18C983.018 611.016 982.604 610.934 982.157 610.934C981.801 610.934 981.473 610.979 981.173 611.07C980.872 611.161 980.603 611.289 980.366 611.453C980.175 611.581 979.997 611.736 979.833 611.918C979.678 612.091 979.537 612.287 979.409 612.506C979.327 612.278 979.227 612.077 979.108 611.904C978.999 611.722 978.867 611.567 978.712 611.439C978.511 611.266 978.274 611.139 978.001 611.057C977.727 610.975 977.417 610.934 977.071 610.934C976.36 610.934 975.754 611.12 975.253 611.494C974.76 611.859 974.373 612.36 974.091 612.998L973.981 611.207ZM989.806 626H993.142L994.714 618.098L995.015 616.594L995.33 618.098L996.956 626H1000.29L1002.94 611.207H999.458L998.365 619.93L998.173 621.365L997.914 619.957L996.314 611.207H993.771L992.171 619.998L991.912 621.406L991.734 619.998L990.626 611.207H987.154L989.806 626ZM1015.05 626H1018.91V625.768C1018.71 625.394 1018.57 624.947 1018.47 624.428C1018.37 623.908 1018.32 623.252 1018.32 622.459V616.115C1018.32 615.258 1018.16 614.507 1017.84 613.859C1017.52 613.203 1017.08 612.661 1016.51 612.232C1015.95 611.804 1015.28 611.48 1014.5 611.262C1013.74 611.043 1012.91 610.934 1012.02 610.934C1011.02 610.934 1010.14 611.061 1009.36 611.316C1008.6 611.562 1007.95 611.9 1007.42 612.328C1006.88 612.757 1006.47 613.253 1006.19 613.818C1005.92 614.383 1005.78 614.98 1005.78 615.609H1009.58C1009.58 615.345 1009.62 615.104 1009.69 614.885C1009.77 614.666 1009.9 614.479 1010.06 614.324C1010.24 614.151 1010.48 614.019 1010.77 613.928C1011.06 613.827 1011.41 613.777 1011.81 613.777C1012.27 613.777 1012.66 613.837 1013 613.955C1013.35 614.064 1013.63 614.224 1013.86 614.434C1014.08 614.634 1014.24 614.876 1014.35 615.158C1014.46 615.432 1014.52 615.742 1014.52 616.088V616.963H1012.4C1011.3 616.963 1010.33 617.063 1009.49 617.264C1008.65 617.455 1007.94 617.738 1007.37 618.111C1006.73 618.521 1006.25 619.046 1005.93 619.684C1005.61 620.312 1005.45 621.037 1005.45 621.857C1005.45 622.495 1005.58 623.088 1005.84 623.635C1006.09 624.173 1006.45 624.637 1006.9 625.029C1007.36 625.421 1007.9 625.727 1008.53 625.945C1009.17 626.164 1009.86 626.273 1010.62 626.273C1011.09 626.273 1011.52 626.228 1011.92 626.137C1012.32 626.055 1012.69 625.936 1013.03 625.781C1013.36 625.635 1013.66 625.462 1013.93 625.262C1014.2 625.061 1014.44 624.847 1014.65 624.619C1014.7 624.883 1014.75 625.134 1014.82 625.371C1014.88 625.608 1014.96 625.818 1015.05 626ZM1011.43 623.334C1011.07 623.334 1010.76 623.293 1010.48 623.211C1010.22 623.12 1010 623.001 1009.81 622.855C1009.63 622.701 1009.49 622.514 1009.39 622.295C1009.3 622.067 1009.25 621.821 1009.25 621.557C1009.25 621.219 1009.32 620.91 1009.45 620.627C1009.57 620.335 1009.77 620.085 1010.03 619.875C1010.3 619.674 1010.64 619.52 1011.06 619.41C1011.48 619.292 1011.98 619.232 1012.58 619.232H1014.52V621.775C1014.41 621.967 1014.26 622.158 1014.07 622.35C1013.88 622.532 1013.65 622.696 1013.38 622.842C1013.12 622.988 1012.82 623.106 1012.49 623.197C1012.17 623.288 1011.81 623.334 1011.43 623.334ZM1033.53 610.934C1032.53 610.934 1031.62 611.175 1030.78 611.658C1029.94 612.132 1029.22 612.788 1028.62 613.627L1028.59 613.299L1028.44 611.207H1024.9V626H1028.7V617.113C1028.88 616.694 1029.09 616.329 1029.36 616.02C1029.62 615.71 1029.94 615.454 1030.32 615.254C1030.63 615.081 1030.98 614.953 1031.37 614.871C1031.77 614.78 1032.22 614.734 1032.71 614.734C1033.18 614.734 1033.68 614.766 1034.2 614.83C1034.73 614.885 1035.24 614.971 1035.74 615.09L1036.3 611.303C1036 611.212 1035.61 611.13 1035.11 611.057C1034.63 610.975 1034.1 610.934 1033.53 610.934ZM1047.18 626.273C1048.61 626.273 1049.85 625.995 1050.9 625.439C1051.95 624.883 1052.71 624.264 1053.19 623.58L1051.29 621.529C1050.86 622.094 1050.29 622.518 1049.59 622.801C1048.88 623.083 1048.16 623.225 1047.41 623.225C1046.88 623.225 1046.4 623.143 1045.95 622.979C1045.5 622.814 1045.11 622.582 1044.76 622.281C1044.42 621.99 1044.15 621.666 1043.95 621.311C1043.75 620.946 1043.59 620.467 1043.46 619.875V619.834H1053.5V618.221C1053.5 617.136 1053.35 616.147 1053.04 615.254C1052.74 614.352 1052.31 613.581 1051.73 612.943C1051.15 612.305 1050.44 611.813 1049.6 611.467C1048.77 611.111 1047.82 610.934 1046.76 610.934C1045.73 610.934 1044.77 611.12 1043.9 611.494C1043.02 611.868 1042.27 612.392 1041.63 613.066C1040.99 613.741 1040.49 614.548 1040.14 615.486C1039.78 616.416 1039.61 617.446 1039.61 618.576V619.123C1039.61 620.117 1039.78 621.051 1040.14 621.926C1040.5 622.792 1041.02 623.544 1041.68 624.182C1042.35 624.829 1043.15 625.339 1044.08 625.713C1045.01 626.087 1046.04 626.273 1047.18 626.273ZM1046.73 614.01C1047.21 614.01 1047.64 614.087 1048 614.242C1048.37 614.388 1048.69 614.589 1048.94 614.844C1049.2 615.108 1049.4 615.418 1049.54 615.773C1049.69 616.129 1049.76 616.507 1049.76 616.908V617.209H1043.53C1043.62 616.726 1043.76 616.288 1043.94 615.896C1044.12 615.505 1044.35 615.167 1044.62 614.885C1044.89 614.602 1045.2 614.388 1045.55 614.242C1045.91 614.087 1046.3 614.01 1046.73 614.01Z" fill="white"/>
<path d="M890.547 575.426V570.668C890.547 569.383 890.396 568.253 890.095 567.277C889.795 566.293 889.366 565.468 888.81 564.803C888.245 564.146 887.562 563.65 886.76 563.312C885.957 562.975 885.055 562.807 884.052 562.807C883.059 562.807 882.161 562.975 881.359 563.312C880.566 563.65 879.892 564.146 879.336 564.803C878.771 565.468 878.338 566.293 878.037 567.277C877.736 568.253 877.586 569.383 877.586 570.668V575.426C877.586 576.711 877.736 577.846 878.037 578.83C878.347 579.805 878.784 580.621 879.349 581.277C879.905 581.943 880.584 582.444 881.386 582.781C882.189 583.118 883.086 583.287 884.08 583.287C885.082 583.287 885.985 583.118 886.787 582.781C887.589 582.444 888.268 581.943 888.824 581.277C889.38 580.621 889.804 579.805 890.095 578.83C890.396 577.846 890.547 576.711 890.547 575.426ZM881.414 573.785C881.414 573.503 881.414 573.288 881.414 573.143C881.414 572.997 881.414 572.705 881.414 572.268V570.066C881.414 569.328 881.469 568.69 881.578 568.152C881.696 567.615 881.874 567.177 882.111 566.84C882.33 566.521 882.599 566.284 882.918 566.129C883.246 565.965 883.624 565.883 884.052 565.883C884.435 565.883 884.777 565.947 885.078 566.074C885.388 566.193 885.648 566.38 885.857 566.635C886.131 566.954 886.336 567.382 886.472 567.92C886.618 568.449 886.7 569.087 886.719 569.834L881.414 573.785ZM886.719 576C886.719 576.738 886.659 577.381 886.541 577.928C886.431 578.465 886.263 578.908 886.035 579.254C885.816 579.582 885.543 579.828 885.215 579.992C884.886 580.147 884.508 580.225 884.08 580.225C883.615 580.225 883.214 580.133 882.877 579.951C882.539 579.769 882.261 579.491 882.043 579.117C881.851 578.807 881.701 578.42 881.592 577.955C881.491 577.49 881.432 576.957 881.414 576.355L886.719 572.418C886.719 572.682 886.719 572.887 886.719 573.033C886.719 573.17 886.719 573.389 886.719 573.689V576ZM901.45 572.828L898.25 568.207H894.163L899.112 575.467L893.971 583H898.086L901.463 578.16L904.868 583H908.969L903.829 575.467L908.791 568.207H904.704L901.45 572.828ZM924.739 575.426V570.668C924.739 569.383 924.589 568.253 924.288 567.277C923.987 566.293 923.559 565.468 923.003 564.803C922.438 564.146 921.754 563.65 920.952 563.312C920.15 562.975 919.248 562.807 918.245 562.807C917.252 562.807 916.354 562.975 915.552 563.312C914.759 563.65 914.085 564.146 913.529 564.803C912.963 565.468 912.53 566.293 912.23 567.277C911.929 568.253 911.779 569.383 911.779 570.668V575.426C911.779 576.711 911.929 577.846 912.23 578.83C912.54 579.805 912.977 580.621 913.542 581.277C914.098 581.943 914.777 582.444 915.579 582.781C916.381 583.118 917.279 583.287 918.273 583.287C919.275 583.287 920.178 583.118 920.98 582.781C921.782 582.444 922.461 581.943 923.017 581.277C923.573 580.621 923.997 579.805 924.288 578.83C924.589 577.846 924.739 576.711 924.739 575.426ZM915.607 573.785C915.607 573.503 915.607 573.288 915.607 573.143C915.607 572.997 915.607 572.705 915.607 572.268V570.066C915.607 569.328 915.661 568.69 915.771 568.152C915.889 567.615 916.067 567.177 916.304 566.84C916.523 566.521 916.792 566.284 917.111 566.129C917.439 565.965 917.817 565.883 918.245 565.883C918.628 565.883 918.97 565.947 919.271 566.074C919.581 566.193 919.84 566.38 920.05 566.635C920.323 566.954 920.529 567.382 920.665 567.92C920.811 568.449 920.893 569.087 920.911 569.834L915.607 573.785ZM920.911 576C920.911 576.738 920.852 577.381 920.734 577.928C920.624 578.465 920.456 578.908 920.228 579.254C920.009 579.582 919.736 579.828 919.407 579.992C919.079 580.147 918.701 580.225 918.273 580.225C917.808 580.225 917.407 580.133 917.07 579.951C916.732 579.769 916.454 579.491 916.236 579.117C916.044 578.807 915.894 578.42 915.784 577.955C915.684 577.49 915.625 576.957 915.607 576.355L920.911 572.418C920.911 572.682 920.911 572.887 920.911 573.033C920.911 573.17 920.911 573.389 920.911 573.689V576ZM941.371 568.385C941.371 567.482 941.212 566.689 940.893 566.006C940.583 565.313 940.15 564.73 939.594 564.256C939.029 563.782 938.363 563.426 937.598 563.189C936.832 562.943 935.998 562.82 935.096 562.82C934.193 562.82 933.359 562.943 932.594 563.189C931.837 563.426 931.185 563.782 930.639 564.256C930.083 564.73 929.65 565.313 929.34 566.006C929.03 566.689 928.875 567.482 928.875 568.385C928.875 568.877 928.939 569.346 929.066 569.793C929.203 570.24 929.394 570.65 929.641 571.023C929.868 571.379 930.146 571.702 930.475 571.994C930.812 572.286 931.185 572.536 931.596 572.746C931.113 572.974 930.675 573.252 930.283 573.58C929.9 573.899 929.572 574.259 929.299 574.66C929.025 575.07 928.811 575.521 928.656 576.014C928.51 576.497 928.437 577.012 928.437 577.559C928.437 578.497 928.606 579.322 928.943 580.033C929.29 580.744 929.764 581.337 930.365 581.811C930.967 582.294 931.673 582.658 932.484 582.904C933.305 583.15 934.189 583.273 935.137 583.273C936.075 583.273 936.95 583.15 937.762 582.904C938.573 582.658 939.279 582.294 939.881 581.811C940.473 581.337 940.938 580.744 941.275 580.033C941.622 579.322 941.795 578.497 941.795 577.559C941.795 576.848 941.672 576.191 941.426 575.59C941.18 574.988 940.838 574.46 940.4 574.004C940.163 573.749 939.894 573.521 939.594 573.32C939.293 573.111 938.974 572.924 938.637 572.76C939.01 572.568 939.348 572.345 939.648 572.09C939.958 571.826 940.227 571.543 940.455 571.242C940.747 570.841 940.97 570.404 941.125 569.93C941.289 569.447 941.371 568.932 941.371 568.385ZM937.98 577.299C937.98 577.755 937.907 578.165 937.762 578.529C937.625 578.885 937.434 579.19 937.187 579.445C936.932 579.701 936.631 579.896 936.285 580.033C935.939 580.161 935.556 580.225 935.137 580.225C934.708 580.225 934.321 580.165 933.975 580.047C933.628 579.919 933.332 579.737 933.086 579.5C932.822 579.254 932.616 578.944 932.471 578.57C932.325 578.197 932.252 577.773 932.252 577.299C932.252 576.843 932.32 576.433 932.457 576.068C932.594 575.704 932.785 575.389 933.031 575.125C933.277 574.87 933.573 574.674 933.92 574.537C934.275 574.4 934.672 574.332 935.109 574.332C935.547 574.332 935.939 574.4 936.285 574.537C936.641 574.674 936.946 574.87 937.201 575.125C937.447 575.389 937.639 575.704 937.775 576.068C937.912 576.433 937.98 576.843 937.98 577.299ZM937.584 568.562C937.584 568.964 937.525 569.333 937.406 569.67C937.297 569.998 937.137 570.281 936.928 570.518C936.718 570.755 936.463 570.941 936.162 571.078C935.861 571.206 935.519 571.27 935.137 571.27C934.754 571.27 934.407 571.206 934.098 571.078C933.797 570.941 933.542 570.755 933.332 570.518C933.113 570.281 932.949 569.998 932.84 569.67C932.73 569.333 932.676 568.964 932.676 568.562C932.676 568.152 932.726 567.783 932.826 567.455C932.935 567.118 933.095 566.835 933.305 566.607C933.505 566.38 933.756 566.206 934.057 566.088C934.357 565.96 934.704 565.896 935.096 565.896C935.478 565.896 935.82 565.96 936.121 566.088C936.431 566.215 936.695 566.393 936.914 566.621C937.124 566.858 937.288 567.141 937.406 567.469C937.525 567.797 937.584 568.161 937.584 568.562ZM958.932 575.426V570.668C958.932 569.383 958.782 568.253 958.481 567.277C958.18 566.293 957.752 565.468 957.196 564.803C956.631 564.146 955.947 563.65 955.145 563.312C954.343 562.975 953.441 562.807 952.438 562.807C951.445 562.807 950.547 562.975 949.745 563.312C948.952 563.65 948.277 564.146 947.721 564.803C947.156 565.468 946.723 566.293 946.423 567.277C946.122 568.253 945.971 569.383 945.971 570.668V575.426C945.971 576.711 946.122 577.846 946.423 578.83C946.732 579.805 947.17 580.621 947.735 581.277C948.291 581.943 948.97 582.444 949.772 582.781C950.574 583.118 951.472 583.287 952.465 583.287C953.468 583.287 954.37 583.118 955.173 582.781C955.975 582.444 956.654 581.943 957.21 581.277C957.766 580.621 958.189 579.805 958.481 578.83C958.782 577.846 958.932 576.711 958.932 575.426ZM949.799 573.785C949.799 573.503 949.799 573.288 949.799 573.143C949.799 572.997 949.799 572.705 949.799 572.268V570.066C949.799 569.328 949.854 568.69 949.964 568.152C950.082 567.615 950.26 567.177 950.497 566.84C950.715 566.521 950.984 566.284 951.303 566.129C951.631 565.965 952.01 565.883 952.438 565.883C952.821 565.883 953.163 565.947 953.464 566.074C953.773 566.193 954.033 566.38 954.243 566.635C954.516 566.954 954.721 567.382 954.858 567.92C955.004 568.449 955.086 569.087 955.104 569.834L949.799 573.785ZM955.104 576C955.104 576.738 955.045 577.381 954.926 577.928C954.817 578.465 954.648 578.908 954.421 579.254C954.202 579.582 953.928 579.828 953.6 579.992C953.272 580.147 952.894 580.225 952.465 580.225C952.001 580.225 951.6 580.133 951.262 579.951C950.925 579.769 950.647 579.491 950.428 579.117C950.237 578.807 950.087 578.42 949.977 577.955C949.877 577.49 949.818 576.957 949.799 576.355L955.104 572.418C955.104 572.682 955.104 572.887 955.104 573.033C955.104 573.17 955.104 573.389 955.104 573.689V576ZM974.169 575.604V563.094H970.314L961.947 576.301L962.097 578.68H970.369V583H974.169V578.68H976.48V575.604H974.169ZM965.679 575.604L969.999 568.863L970.369 568.207V575.604H965.679ZM993.125 575.426V570.668C993.125 569.383 992.975 568.253 992.674 567.277C992.373 566.293 991.945 565.468 991.389 564.803C990.824 564.146 990.14 563.65 989.338 563.312C988.536 562.975 987.634 562.807 986.631 562.807C985.637 562.807 984.74 562.975 983.938 563.312C983.145 563.65 982.47 564.146 981.914 564.803C981.349 565.468 980.916 566.293 980.615 567.277C980.315 568.253 980.164 569.383 980.164 570.668V575.426C980.164 576.711 980.315 577.846 980.615 578.83C980.925 579.805 981.363 580.621 981.928 581.277C982.484 581.943 983.163 582.444 983.965 582.781C984.767 583.118 985.665 583.287 986.658 583.287C987.661 583.287 988.563 583.118 989.365 582.781C990.167 582.444 990.846 581.943 991.402 581.277C991.958 580.621 992.382 579.805 992.674 578.83C992.975 577.846 993.125 576.711 993.125 575.426ZM983.992 573.785C983.992 573.503 983.992 573.288 983.992 573.143C983.992 572.997 983.992 572.705 983.992 572.268V570.066C983.992 569.328 984.047 568.69 984.156 568.152C984.275 567.615 984.453 567.177 984.69 566.84C984.908 566.521 985.177 566.284 985.496 566.129C985.824 565.965 986.203 565.883 986.631 565.883C987.014 565.883 987.356 565.947 987.656 566.074C987.966 566.193 988.226 566.38 988.436 566.635C988.709 566.954 988.914 567.382 989.051 567.92C989.197 568.449 989.279 569.087 989.297 569.834L983.992 573.785ZM989.297 576C989.297 576.738 989.238 577.381 989.119 577.928C989.01 578.465 988.841 578.908 988.613 579.254C988.395 579.582 988.121 579.828 987.793 579.992C987.465 580.147 987.087 580.225 986.658 580.225C986.193 580.225 985.792 580.133 985.455 579.951C985.118 579.769 984.84 579.491 984.621 579.117C984.43 578.807 984.279 578.42 984.17 577.955C984.07 577.49 984.01 576.957 983.992 576.355L989.297 572.418C989.297 572.682 989.297 572.887 989.297 573.033C989.297 573.17 989.297 573.389 989.297 573.689V576ZM1010.22 575.426V570.668C1010.22 569.383 1010.07 568.253 1009.77 567.277C1009.47 566.293 1009.04 565.468 1008.49 564.803C1007.92 564.146 1007.24 563.65 1006.43 563.312C1005.63 562.975 1004.73 562.807 1003.73 562.807C1002.73 562.807 1001.84 562.975 1001.03 563.312C1000.24 563.65 999.567 564.146 999.011 564.803C998.445 565.468 998.012 566.293 997.712 567.277C997.411 568.253 997.261 569.383 997.261 570.668V575.426C997.261 576.711 997.411 577.846 997.712 578.83C998.022 579.805 998.459 580.621 999.024 581.277C999.58 581.943 1000.26 582.444 1001.06 582.781C1001.86 583.118 1002.76 583.287 1003.75 583.287C1004.76 583.287 1005.66 583.118 1006.46 582.781C1007.26 582.444 1007.94 581.943 1008.5 581.277C1009.05 580.621 1009.48 579.805 1009.77 578.83C1010.07 577.846 1010.22 576.711 1010.22 575.426ZM1001.09 573.785C1001.09 573.503 1001.09 573.288 1001.09 573.143C1001.09 572.997 1001.09 572.705 1001.09 572.268V570.066C1001.09 569.328 1001.14 568.69 1001.25 568.152C1001.37 567.615 1001.55 567.177 1001.79 566.84C1002 566.521 1002.27 566.284 1002.59 566.129C1002.92 565.965 1003.3 565.883 1003.73 565.883C1004.11 565.883 1004.45 565.947 1004.75 566.074C1005.06 566.193 1005.32 566.38 1005.53 566.635C1005.81 566.954 1006.01 567.382 1006.15 567.92C1006.29 568.449 1006.38 569.087 1006.39 569.834L1001.09 573.785ZM1006.39 576C1006.39 576.738 1006.33 577.381 1006.22 577.928C1006.11 578.465 1005.94 578.908 1005.71 579.254C1005.49 579.582 1005.22 579.828 1004.89 579.992C1004.56 580.147 1004.18 580.225 1003.75 580.225C1003.29 580.225 1002.89 580.133 1002.55 579.951C1002.21 579.769 1001.94 579.491 1001.72 579.117C1001.53 578.807 1001.38 578.42 1001.27 577.955C1001.17 577.49 1001.11 576.957 1001.09 576.355L1006.39 572.418C1006.39 572.682 1006.39 572.887 1006.39 573.033C1006.39 573.17 1006.39 573.389 1006.39 573.689V576ZM1027.32 575.426V570.668C1027.32 569.383 1027.17 568.253 1026.87 567.277C1026.57 566.293 1026.14 565.468 1025.58 564.803C1025.02 564.146 1024.33 563.65 1023.53 563.312C1022.73 562.975 1021.83 562.807 1020.82 562.807C1019.83 562.807 1018.93 562.975 1018.13 563.312C1017.34 563.65 1016.66 564.146 1016.11 564.803C1015.54 565.468 1015.11 566.293 1014.81 567.277C1014.51 568.253 1014.36 569.383 1014.36 570.668V575.426C1014.36 576.711 1014.51 577.846 1014.81 578.83C1015.12 579.805 1015.56 580.621 1016.12 581.277C1016.68 581.943 1017.36 582.444 1018.16 582.781C1018.96 583.118 1019.86 583.287 1020.85 583.287C1021.85 583.287 1022.76 583.118 1023.56 582.781C1024.36 582.444 1025.04 581.943 1025.6 581.277C1026.15 580.621 1026.58 579.805 1026.87 578.83C1027.17 577.846 1027.32 576.711 1027.32 575.426ZM1018.19 573.785C1018.19 573.503 1018.19 573.288 1018.19 573.143C1018.19 572.997 1018.19 572.705 1018.19 572.268V570.066C1018.19 569.328 1018.24 568.69 1018.35 568.152C1018.47 567.615 1018.65 567.177 1018.88 566.84C1019.1 566.521 1019.37 566.284 1019.69 566.129C1020.02 565.965 1020.4 565.883 1020.82 565.883C1021.21 565.883 1021.55 565.947 1021.85 566.074C1022.16 566.193 1022.42 566.38 1022.63 566.635C1022.9 566.954 1023.11 567.382 1023.24 567.92C1023.39 568.449 1023.47 569.087 1023.49 569.834L1018.19 573.785ZM1023.49 576C1023.49 576.738 1023.43 577.381 1023.31 577.928C1023.2 578.465 1023.03 578.908 1022.81 579.254C1022.59 579.582 1022.31 579.828 1021.99 579.992C1021.66 580.147 1021.28 580.225 1020.85 580.225C1020.39 580.225 1019.99 580.133 1019.65 579.951C1019.31 579.769 1019.03 579.491 1018.81 579.117C1018.62 578.807 1018.47 578.42 1018.36 577.955C1018.26 577.49 1018.2 576.957 1018.19 576.355L1023.49 572.418C1023.49 572.682 1023.49 572.887 1023.49 573.033C1023.49 573.17 1023.49 573.389 1023.49 573.689V576ZM1044.41 575.426V570.668C1044.41 569.383 1044.26 568.253 1043.96 567.277C1043.66 566.293 1043.23 565.468 1042.68 564.803C1042.11 564.146 1041.43 563.65 1040.63 563.312C1039.83 562.975 1038.92 562.807 1037.92 562.807C1036.93 562.807 1036.03 562.975 1035.23 563.312C1034.43 563.65 1033.76 564.146 1033.2 564.803C1032.64 565.468 1032.21 566.293 1031.9 567.277C1031.6 568.253 1031.45 569.383 1031.45 570.668V575.426C1031.45 576.711 1031.6 577.846 1031.9 578.83C1032.21 579.805 1032.65 580.621 1033.22 581.277C1033.77 581.943 1034.45 582.444 1035.25 582.781C1036.06 583.118 1036.95 583.287 1037.95 583.287C1038.95 583.287 1039.85 583.118 1040.65 582.781C1041.46 582.444 1042.14 581.943 1042.69 581.277C1043.25 580.621 1043.67 579.805 1043.96 578.83C1044.26 577.846 1044.41 576.711 1044.41 575.426ZM1035.28 573.785C1035.28 573.503 1035.28 573.288 1035.28 573.143C1035.28 572.997 1035.28 572.705 1035.28 572.268V570.066C1035.28 569.328 1035.34 568.69 1035.45 568.152C1035.56 567.615 1035.74 567.177 1035.98 566.84C1036.2 566.521 1036.47 566.284 1036.79 566.129C1037.11 565.965 1037.49 565.883 1037.92 565.883C1038.3 565.883 1038.64 565.947 1038.95 566.074C1039.26 566.193 1039.52 566.38 1039.72 566.635C1040 566.954 1040.2 567.382 1040.34 567.92C1040.49 568.449 1040.57 569.087 1040.59 569.834L1035.28 573.785ZM1040.59 576C1040.59 576.738 1040.53 577.381 1040.41 577.928C1040.3 578.465 1040.13 578.908 1039.9 579.254C1039.68 579.582 1039.41 579.828 1039.08 579.992C1038.75 580.147 1038.38 580.225 1037.95 580.225C1037.48 580.225 1037.08 580.133 1036.74 579.951C1036.41 579.769 1036.13 579.491 1035.91 579.117C1035.72 578.807 1035.57 578.42 1035.46 577.955C1035.36 577.49 1035.3 576.957 1035.28 576.355L1040.59 572.418C1040.59 572.682 1040.59 572.887 1040.59 573.033C1040.59 573.17 1040.59 573.389 1040.59 573.689V576Z" fill="white"/>
<rect x="819" y="723" width="283" height="147" rx="6" fill="#8C9091"/>
<path d="M877.422 830H884.681C885.775 830 886.76 829.877 887.635 829.631C888.51 829.385 889.252 829.016 889.863 828.523C890.474 828.031 890.943 827.421 891.271 826.691C891.599 825.962 891.763 825.119 891.763 824.162C891.763 823.661 891.695 823.178 891.558 822.713C891.431 822.239 891.23 821.801 890.957 821.4C890.692 821.027 890.364 820.699 889.972 820.416C889.59 820.133 889.07 819.901 888.414 819.719V819.705C888.751 819.577 889.056 819.423 889.33 819.24C889.612 819.058 889.863 818.857 890.082 818.639C890.483 818.238 890.784 817.773 890.984 817.244C891.194 816.706 891.303 816.137 891.312 815.535C891.312 814.605 891.139 813.799 890.793 813.115C890.455 812.432 889.972 811.867 889.344 811.42C888.715 810.973 887.954 810.641 887.06 810.422C886.176 810.203 885.192 810.094 884.107 810.094H877.422V830ZM881.277 821.223H884.859C885.397 821.232 885.862 821.305 886.254 821.441C886.646 821.578 886.965 821.774 887.211 822.029C887.457 822.275 887.635 822.576 887.744 822.932C887.862 823.287 887.922 823.688 887.922 824.135C887.922 824.563 887.844 824.951 887.689 825.297C887.543 825.643 887.325 825.939 887.033 826.186C886.769 826.404 886.436 826.577 886.035 826.705C885.643 826.833 885.196 826.896 884.695 826.896H881.277V821.223ZM881.277 818.447V813.225H884.121C884.741 813.234 885.278 813.302 885.734 813.43C886.199 813.557 886.568 813.762 886.842 814.045C887.051 814.245 887.206 814.496 887.306 814.797C887.416 815.098 887.47 815.449 887.47 815.85C887.47 816.232 887.407 816.574 887.279 816.875C887.161 817.176 886.987 817.431 886.76 817.641C886.486 817.905 886.126 818.105 885.679 818.242C885.233 818.37 884.718 818.438 884.135 818.447H881.277ZM894.163 822.467V822.754C894.163 823.839 894.318 824.841 894.627 825.762C894.937 826.673 895.393 827.466 895.995 828.141C896.587 828.815 897.316 829.344 898.182 829.727C899.057 830.1 900.051 830.287 901.163 830.287C902.265 830.287 903.25 830.1 904.116 829.727C904.982 829.344 905.711 828.815 906.303 828.141C906.896 827.466 907.347 826.673 907.657 825.762C907.967 824.841 908.122 823.839 908.122 822.754V822.467C908.122 821.391 907.967 820.398 907.657 819.486C907.347 818.566 906.896 817.768 906.303 817.094C905.702 816.419 904.968 815.891 904.102 815.508C903.236 815.125 902.247 814.934 901.135 814.934C900.023 814.934 899.034 815.125 898.168 815.508C897.312 815.891 896.587 816.419 895.995 817.094C895.393 817.768 894.937 818.566 894.627 819.486C894.318 820.398 894.163 821.391 894.163 822.467ZM897.963 822.754V822.467C897.963 821.865 898.023 821.296 898.141 820.758C898.26 820.22 898.446 819.746 898.702 819.336C898.957 818.926 899.285 818.602 899.686 818.365C900.087 818.128 900.57 818.01 901.135 818.01C901.709 818.01 902.197 818.128 902.598 818.365C902.999 818.602 903.327 818.926 903.582 819.336C903.829 819.746 904.011 820.22 904.129 820.758C904.248 821.296 904.307 821.865 904.307 822.467V822.754C904.307 823.374 904.248 823.957 904.129 824.504C904.011 825.042 903.829 825.511 903.582 825.912C903.327 826.322 902.999 826.646 902.598 826.883C902.197 827.12 901.719 827.238 901.163 827.238C900.588 827.238 900.096 827.12 899.686 826.883C899.285 826.646 898.957 826.322 898.702 825.912C898.446 825.511 898.26 825.042 898.141 824.504C898.023 823.957 897.963 823.374 897.963 822.754ZM911.259 822.467V822.754C911.259 823.839 911.414 824.841 911.724 825.762C912.034 826.673 912.489 827.466 913.091 828.141C913.683 828.815 914.413 829.344 915.279 829.727C916.154 830.1 917.147 830.287 918.259 830.287C919.362 830.287 920.346 830.1 921.212 829.727C922.078 829.344 922.807 828.815 923.4 828.141C923.992 827.466 924.443 826.673 924.753 825.762C925.063 824.841 925.218 823.839 925.218 822.754V822.467C925.218 821.391 925.063 820.398 924.753 819.486C924.443 818.566 923.992 817.768 923.4 817.094C922.798 816.419 922.064 815.891 921.198 815.508C920.333 815.125 919.344 814.934 918.232 814.934C917.12 814.934 916.131 815.125 915.265 815.508C914.408 815.891 913.683 816.419 913.091 817.094C912.489 817.768 912.034 818.566 911.724 819.486C911.414 820.398 911.259 821.391 911.259 822.467ZM915.06 822.754V822.467C915.06 821.865 915.119 821.296 915.238 820.758C915.356 820.22 915.543 819.746 915.798 819.336C916.053 818.926 916.381 818.602 916.782 818.365C917.183 818.128 917.667 818.01 918.232 818.01C918.806 818.01 919.293 818.128 919.695 818.365C920.096 818.602 920.424 818.926 920.679 819.336C920.925 819.746 921.107 820.22 921.226 820.758C921.344 821.296 921.404 821.865 921.404 822.467V822.754C921.404 823.374 921.344 823.957 921.226 824.504C921.107 825.042 920.925 825.511 920.679 825.912C920.424 826.322 920.096 826.646 919.695 826.883C919.293 827.12 918.815 827.238 918.259 827.238C917.685 827.238 917.193 827.12 916.782 826.883C916.381 826.646 916.053 826.322 915.798 825.912C915.543 825.511 915.356 825.042 915.238 824.504C915.119 823.957 915.06 823.374 915.06 822.754ZM935.848 811.584H932.047V815.207H928.67V818.01H932.047V824.736C932.047 825.712 932.174 826.55 932.43 827.252C932.685 827.945 933.049 828.514 933.523 828.961C933.988 829.417 934.549 829.754 935.205 829.973C935.87 830.182 936.609 830.287 937.42 830.287C937.839 830.287 938.263 830.264 938.691 830.219C939.129 830.182 939.548 830.128 939.949 830.055C940.35 829.982 940.728 829.891 941.084 829.781C941.439 829.663 941.749 829.526 942.014 829.371L941.644 826.76C941.471 826.805 941.262 826.851 941.016 826.896C940.779 826.942 940.523 826.983 940.25 827.02C939.967 827.065 939.671 827.102 939.361 827.129C939.06 827.156 938.764 827.17 938.473 827.17C938.072 827.17 937.707 827.124 937.379 827.033C937.06 826.942 936.786 826.787 936.559 826.568C936.331 826.359 936.153 826.076 936.025 825.721C935.907 825.356 935.848 824.905 935.848 824.367V818.01H941.371V815.207H935.848V811.584ZM946.764 809V812.104H951.194V826.91H946.764V830H959.274V826.91H955.036V809H946.764ZM962.548 822.467V822.754C962.548 823.839 962.703 824.841 963.013 825.762C963.323 826.673 963.779 827.466 964.38 828.141C964.973 828.815 965.702 829.344 966.568 829.727C967.443 830.1 968.436 830.287 969.548 830.287C970.651 830.287 971.635 830.1 972.501 829.727C973.367 829.344 974.096 828.815 974.689 828.141C975.281 827.466 975.732 826.673 976.042 825.762C976.352 824.841 976.507 823.839 976.507 822.754V822.467C976.507 821.391 976.352 820.398 976.042 819.486C975.732 818.566 975.281 817.768 974.689 817.094C974.087 816.419 973.354 815.891 972.488 815.508C971.622 815.125 970.633 814.934 969.521 814.934C968.409 814.934 967.42 815.125 966.554 815.508C965.697 815.891 964.973 816.419 964.38 817.094C963.779 817.768 963.323 818.566 963.013 819.486C962.703 820.398 962.548 821.391 962.548 822.467ZM966.349 822.754V822.467C966.349 821.865 966.408 821.296 966.527 820.758C966.645 820.22 966.832 819.746 967.087 819.336C967.342 818.926 967.671 818.602 968.072 818.365C968.473 818.128 968.956 818.01 969.521 818.01C970.095 818.01 970.583 818.128 970.984 818.365C971.385 818.602 971.713 818.926 971.968 819.336C972.214 819.746 972.397 820.22 972.515 820.758C972.633 821.296 972.693 821.865 972.693 822.467V822.754C972.693 823.374 972.633 823.957 972.515 824.504C972.397 825.042 972.214 825.511 971.968 825.912C971.713 826.322 971.385 826.646 970.984 826.883C970.583 827.12 970.104 827.238 969.548 827.238C968.974 827.238 968.482 827.12 968.072 826.883C967.671 826.646 967.342 826.322 967.087 825.912C966.832 825.511 966.645 825.042 966.527 824.504C966.408 823.957 966.349 823.374 966.349 822.754ZM989.406 830H993.262V829.768C993.07 829.394 992.925 828.947 992.824 828.428C992.724 827.908 992.674 827.252 992.674 826.459V820.115C992.674 819.258 992.514 818.507 992.195 817.859C991.876 817.203 991.434 816.661 990.869 816.232C990.304 815.804 989.634 815.48 988.859 815.262C988.094 815.043 987.264 814.934 986.371 814.934C985.378 814.934 984.494 815.061 983.719 815.316C982.953 815.562 982.306 815.9 981.777 816.328C981.24 816.757 980.83 817.253 980.547 817.818C980.274 818.383 980.137 818.98 980.137 819.609H983.938C983.938 819.345 983.974 819.104 984.047 818.885C984.129 818.666 984.252 818.479 984.416 818.324C984.598 818.151 984.835 818.019 985.127 817.928C985.419 817.827 985.765 817.777 986.166 817.777C986.622 817.777 987.018 817.837 987.356 817.955C987.702 818.064 987.989 818.224 988.217 818.434C988.436 818.634 988.6 818.876 988.709 819.158C988.818 819.432 988.873 819.742 988.873 820.088V820.963H986.754C985.66 820.963 984.69 821.063 983.842 821.264C983.003 821.455 982.297 821.738 981.723 822.111C981.085 822.521 980.606 823.046 980.287 823.684C979.968 824.312 979.809 825.037 979.809 825.857C979.809 826.495 979.936 827.088 980.191 827.635C980.447 828.173 980.802 828.637 981.258 829.029C981.714 829.421 982.256 829.727 982.885 829.945C983.523 830.164 984.22 830.273 984.977 830.273C985.441 830.273 985.874 830.228 986.275 830.137C986.677 830.055 987.046 829.936 987.383 829.781C987.711 829.635 988.012 829.462 988.285 829.262C988.559 829.061 988.8 828.847 989.01 828.619C989.055 828.883 989.11 829.134 989.174 829.371C989.238 829.608 989.315 829.818 989.406 830ZM985.783 827.334C985.428 827.334 985.113 827.293 984.84 827.211C984.576 827.12 984.352 827.001 984.17 826.855C983.988 826.701 983.846 826.514 983.746 826.295C983.655 826.067 983.609 825.821 983.609 825.557C983.609 825.219 983.673 824.91 983.801 824.627C983.928 824.335 984.124 824.085 984.389 823.875C984.653 823.674 984.995 823.52 985.414 823.41C985.833 823.292 986.339 823.232 986.932 823.232H988.873V825.775C988.764 825.967 988.613 826.158 988.422 826.35C988.231 826.532 988.003 826.696 987.738 826.842C987.474 826.988 987.178 827.106 986.85 827.197C986.522 827.288 986.166 827.334 985.783 827.334ZM996.864 822.494V822.781C996.864 823.857 996.996 824.855 997.261 825.775C997.525 826.687 997.908 827.475 998.409 828.141C998.901 828.806 999.503 829.33 1000.21 829.713C1000.93 830.087 1001.74 830.273 1002.65 830.273C1003.48 830.273 1004.21 830.114 1004.83 829.795C1005.46 829.476 1006.01 829.029 1006.48 828.455L1006.67 830H1010.1V809H1006.28V816.533C1005.83 816.023 1005.3 815.631 1004.71 815.357C1004.13 815.075 1003.45 814.934 1002.67 814.934C1001.75 814.934 1000.93 815.116 1000.21 815.48C999.503 815.845 998.897 816.36 998.395 817.025C997.894 817.691 997.511 818.488 997.247 819.418C996.992 820.348 996.864 821.373 996.864 822.494ZM1000.66 822.781V822.494C1000.66 821.874 1000.72 821.296 1000.83 820.758C1000.94 820.211 1001.11 819.732 1001.35 819.322C1001.59 818.921 1001.89 818.607 1002.26 818.379C1002.65 818.142 1003.11 818.023 1003.65 818.023C1004.29 818.023 1004.83 818.165 1005.26 818.447C1005.69 818.721 1006.03 819.108 1006.28 819.609V825.598C1006.03 826.09 1005.68 826.477 1005.24 826.76C1004.82 827.042 1004.27 827.184 1003.62 827.184C1003.08 827.184 1002.62 827.07 1002.25 826.842C1001.88 826.614 1001.57 826.299 1001.33 825.898C1001.1 825.507 1000.92 825.046 1000.82 824.518C1000.71 823.98 1000.66 823.401 1000.66 822.781ZM1021.53 830.273C1022.97 830.273 1024.21 829.995 1025.25 829.439C1026.3 828.883 1027.07 828.264 1027.55 827.58L1025.65 825.529C1025.21 826.094 1024.64 826.518 1023.94 826.801C1023.24 827.083 1022.51 827.225 1021.77 827.225C1021.24 827.225 1020.75 827.143 1020.3 826.979C1019.86 826.814 1019.46 826.582 1019.11 826.281C1018.78 825.99 1018.51 825.666 1018.31 825.311C1018.11 824.946 1017.94 824.467 1017.82 823.875V823.834H1027.85V822.221C1027.85 821.136 1027.7 820.147 1027.4 819.254C1027.1 818.352 1026.66 817.581 1026.09 816.943C1025.5 816.305 1024.79 815.813 1023.95 815.467C1023.13 815.111 1022.18 814.934 1021.11 814.934C1020.08 814.934 1019.13 815.12 1018.25 815.494C1017.38 815.868 1016.62 816.392 1015.98 817.066C1015.35 817.741 1014.85 818.548 1014.49 819.486C1014.14 820.416 1013.96 821.446 1013.96 822.576V823.123C1013.96 824.117 1014.14 825.051 1014.49 825.926C1014.86 826.792 1015.37 827.544 1016.04 828.182C1016.7 828.829 1017.5 829.339 1018.43 829.713C1019.36 830.087 1020.4 830.273 1021.53 830.273ZM1021.08 818.01C1021.57 818.01 1021.99 818.087 1022.36 818.242C1022.73 818.388 1023.04 818.589 1023.3 818.844C1023.55 819.108 1023.75 819.418 1023.9 819.773C1024.05 820.129 1024.12 820.507 1024.12 820.908V821.209H1017.88C1017.98 820.726 1018.11 820.288 1018.29 819.896C1018.48 819.505 1018.7 819.167 1018.98 818.885C1019.24 818.602 1019.55 818.388 1019.91 818.242C1020.26 818.087 1020.66 818.01 1021.08 818.01ZM1042.08 814.934C1041.08 814.934 1040.17 815.175 1039.33 815.658C1038.49 816.132 1037.77 816.788 1037.17 817.627L1037.14 817.299L1036.99 815.207H1033.45V830H1037.25V821.113C1037.42 820.694 1037.64 820.329 1037.91 820.02C1038.17 819.71 1038.49 819.454 1038.86 819.254C1039.17 819.081 1039.52 818.953 1039.92 818.871C1040.32 818.78 1040.76 818.734 1041.26 818.734C1041.73 818.734 1042.23 818.766 1042.75 818.83C1043.27 818.885 1043.79 818.971 1044.29 819.09L1044.85 815.303C1044.55 815.212 1044.15 815.13 1043.66 815.057C1043.18 814.975 1042.65 814.934 1042.08 814.934Z" fill="white"/>
<path d="M890.547 772.426V767.668C890.547 766.383 890.396 765.253 890.095 764.277C889.795 763.293 889.366 762.468 888.81 761.803C888.245 761.146 887.562 760.65 886.76 760.312C885.957 759.975 885.055 759.807 884.052 759.807C883.059 759.807 882.161 759.975 881.359 760.312C880.566 760.65 879.892 761.146 879.336 761.803C878.771 762.468 878.338 763.293 878.037 764.277C877.736 765.253 877.586 766.383 877.586 767.668V772.426C877.586 773.711 877.736 774.846 878.037 775.83C878.347 776.805 878.784 777.621 879.349 778.277C879.905 778.943 880.584 779.444 881.386 779.781C882.189 780.118 883.086 780.287 884.08 780.287C885.082 780.287 885.985 780.118 886.787 779.781C887.589 779.444 888.268 778.943 888.824 778.277C889.38 777.621 889.804 776.805 890.095 775.83C890.396 774.846 890.547 773.711 890.547 772.426ZM881.414 770.785C881.414 770.503 881.414 770.288 881.414 770.143C881.414 769.997 881.414 769.705 881.414 769.268V767.066C881.414 766.328 881.469 765.69 881.578 765.152C881.696 764.615 881.874 764.177 882.111 763.84C882.33 763.521 882.599 763.284 882.918 763.129C883.246 762.965 883.624 762.883 884.052 762.883C884.435 762.883 884.777 762.947 885.078 763.074C885.388 763.193 885.648 763.38 885.857 763.635C886.131 763.954 886.336 764.382 886.472 764.92C886.618 765.449 886.7 766.087 886.719 766.834L881.414 770.785ZM886.719 773C886.719 773.738 886.659 774.381 886.541 774.928C886.431 775.465 886.263 775.908 886.035 776.254C885.816 776.582 885.543 776.828 885.215 776.992C884.886 777.147 884.508 777.225 884.08 777.225C883.615 777.225 883.214 777.133 882.877 776.951C882.539 776.769 882.261 776.491 882.043 776.117C881.851 775.807 881.701 775.42 881.592 774.955C881.491 774.49 881.432 773.957 881.414 773.355L886.719 769.418C886.719 769.682 886.719 769.887 886.719 770.033C886.719 770.17 886.719 770.389 886.719 770.689V773ZM901.45 769.828L898.25 765.207H894.163L899.112 772.467L893.971 780H898.086L901.463 775.16L904.868 780H908.969L903.829 772.467L908.791 765.207H904.704L901.45 769.828ZM924.739 772.426V767.668C924.739 766.383 924.589 765.253 924.288 764.277C923.987 763.293 923.559 762.468 923.003 761.803C922.438 761.146 921.754 760.65 920.952 760.312C920.15 759.975 919.248 759.807 918.245 759.807C917.252 759.807 916.354 759.975 915.552 760.312C914.759 760.65 914.085 761.146 913.529 761.803C912.963 762.468 912.53 763.293 912.23 764.277C911.929 765.253 911.779 766.383 911.779 767.668V772.426C911.779 773.711 911.929 774.846 912.23 775.83C912.54 776.805 912.977 777.621 913.542 778.277C914.098 778.943 914.777 779.444 915.579 779.781C916.381 780.118 917.279 780.287 918.273 780.287C919.275 780.287 920.178 780.118 920.98 779.781C921.782 779.444 922.461 778.943 923.017 778.277C923.573 777.621 923.997 776.805 924.288 775.83C924.589 774.846 924.739 773.711 924.739 772.426ZM915.607 770.785C915.607 770.503 915.607 770.288 915.607 770.143C915.607 769.997 915.607 769.705 915.607 769.268V767.066C915.607 766.328 915.661 765.69 915.771 765.152C915.889 764.615 916.067 764.177 916.304 763.84C916.523 763.521 916.792 763.284 917.111 763.129C917.439 762.965 917.817 762.883 918.245 762.883C918.628 762.883 918.97 762.947 919.271 763.074C919.581 763.193 919.84 763.38 920.05 763.635C920.323 763.954 920.529 764.382 920.665 764.92C920.811 765.449 920.893 766.087 920.911 766.834L915.607 770.785ZM920.911 773C920.911 773.738 920.852 774.381 920.734 774.928C920.624 775.465 920.456 775.908 920.228 776.254C920.009 776.582 919.736 776.828 919.407 776.992C919.079 777.147 918.701 777.225 918.273 777.225C917.808 777.225 917.407 777.133 917.07 776.951C916.732 776.769 916.454 776.491 916.236 776.117C916.044 775.807 915.894 775.42 915.784 774.955C915.684 774.49 915.625 773.957 915.607 773.355L920.911 769.418C920.911 769.682 920.911 769.887 920.911 770.033C920.911 770.17 920.911 770.389 920.911 770.689V773ZM941.371 765.385C941.371 764.482 941.212 763.689 940.893 763.006C940.583 762.313 940.15 761.73 939.594 761.256C939.029 760.782 938.363 760.426 937.598 760.189C936.832 759.943 935.998 759.82 935.096 759.82C934.193 759.82 933.359 759.943 932.594 760.189C931.837 760.426 931.185 760.782 930.639 761.256C930.083 761.73 929.65 762.313 929.34 763.006C929.03 763.689 928.875 764.482 928.875 765.385C928.875 765.877 928.939 766.346 929.066 766.793C929.203 767.24 929.394 767.65 929.641 768.023C929.868 768.379 930.146 768.702 930.475 768.994C930.812 769.286 931.185 769.536 931.596 769.746C931.113 769.974 930.675 770.252 930.283 770.58C929.9 770.899 929.572 771.259 929.299 771.66C929.025 772.07 928.811 772.521 928.656 773.014C928.51 773.497 928.437 774.012 928.437 774.559C928.437 775.497 928.606 776.322 928.943 777.033C929.29 777.744 929.764 778.337 930.365 778.811C930.967 779.294 931.673 779.658 932.484 779.904C933.305 780.15 934.189 780.273 935.137 780.273C936.075 780.273 936.95 780.15 937.762 779.904C938.573 779.658 939.279 779.294 939.881 778.811C940.473 778.337 940.938 777.744 941.275 777.033C941.622 776.322 941.795 775.497 941.795 774.559C941.795 773.848 941.672 773.191 941.426 772.59C941.18 771.988 940.838 771.46 940.4 771.004C940.163 770.749 939.894 770.521 939.594 770.32C939.293 770.111 938.974 769.924 938.637 769.76C939.01 769.568 939.348 769.345 939.648 769.09C939.958 768.826 940.227 768.543 940.455 768.242C940.747 767.841 940.97 767.404 941.125 766.93C941.289 766.447 941.371 765.932 941.371 765.385ZM937.98 774.299C937.98 774.755 937.907 775.165 937.762 775.529C937.625 775.885 937.434 776.19 937.187 776.445C936.932 776.701 936.631 776.896 936.285 777.033C935.939 777.161 935.556 777.225 935.137 777.225C934.708 777.225 934.321 777.165 933.975 777.047C933.628 776.919 933.332 776.737 933.086 776.5C932.822 776.254 932.616 775.944 932.471 775.57C932.325 775.197 932.252 774.773 932.252 774.299C932.252 773.843 932.32 773.433 932.457 773.068C932.594 772.704 932.785 772.389 933.031 772.125C933.277 771.87 933.573 771.674 933.92 771.537C934.275 771.4 934.672 771.332 935.109 771.332C935.547 771.332 935.939 771.4 936.285 771.537C936.641 771.674 936.946 771.87 937.201 772.125C937.447 772.389 937.639 772.704 937.775 773.068C937.912 773.433 937.98 773.843 937.98 774.299ZM937.584 765.562C937.584 765.964 937.525 766.333 937.406 766.67C937.297 766.998 937.137 767.281 936.928 767.518C936.718 767.755 936.463 767.941 936.162 768.078C935.861 768.206 935.519 768.27 935.137 768.27C934.754 768.27 934.407 768.206 934.098 768.078C933.797 767.941 933.542 767.755 933.332 767.518C933.113 767.281 932.949 766.998 932.84 766.67C932.73 766.333 932.676 765.964 932.676 765.562C932.676 765.152 932.726 764.783 932.826 764.455C932.935 764.118 933.095 763.835 933.305 763.607C933.505 763.38 933.756 763.206 934.057 763.088C934.357 762.96 934.704 762.896 935.096 762.896C935.478 762.896 935.82 762.96 936.121 763.088C936.431 763.215 936.695 763.393 936.914 763.621C937.124 763.858 937.288 764.141 937.406 764.469C937.525 764.797 937.584 765.161 937.584 765.562ZM958.932 772.426V767.668C958.932 766.383 958.782 765.253 958.481 764.277C958.18 763.293 957.752 762.468 957.196 761.803C956.631 761.146 955.947 760.65 955.145 760.312C954.343 759.975 953.441 759.807 952.438 759.807C951.445 759.807 950.547 759.975 949.745 760.312C948.952 760.65 948.277 761.146 947.721 761.803C947.156 762.468 946.723 763.293 946.423 764.277C946.122 765.253 945.971 766.383 945.971 767.668V772.426C945.971 773.711 946.122 774.846 946.423 775.83C946.732 776.805 947.17 777.621 947.735 778.277C948.291 778.943 948.97 779.444 949.772 779.781C950.574 780.118 951.472 780.287 952.465 780.287C953.468 780.287 954.37 780.118 955.173 779.781C955.975 779.444 956.654 778.943 957.21 778.277C957.766 777.621 958.189 776.805 958.481 775.83C958.782 774.846 958.932 773.711 958.932 772.426ZM949.799 770.785C949.799 770.503 949.799 770.288 949.799 770.143C949.799 769.997 949.799 769.705 949.799 769.268V767.066C949.799 766.328 949.854 765.69 949.964 765.152C950.082 764.615 950.26 764.177 950.497 763.84C950.715 763.521 950.984 763.284 951.303 763.129C951.631 762.965 952.01 762.883 952.438 762.883C952.821 762.883 953.163 762.947 953.464 763.074C953.773 763.193 954.033 763.38 954.243 763.635C954.516 763.954 954.721 764.382 954.858 764.92C955.004 765.449 955.086 766.087 955.104 766.834L949.799 770.785ZM955.104 773C955.104 773.738 955.045 774.381 954.926 774.928C954.817 775.465 954.648 775.908 954.421 776.254C954.202 776.582 953.928 776.828 953.6 776.992C953.272 777.147 952.894 777.225 952.465 777.225C952.001 777.225 951.6 777.133 951.262 776.951C950.925 776.769 950.647 776.491 950.428 776.117C950.237 775.807 950.087 775.42 949.977 774.955C949.877 774.49 949.818 773.957 949.799 773.355L955.104 769.418C955.104 769.682 955.104 769.887 955.104 770.033C955.104 770.17 955.104 770.389 955.104 770.689V773ZM976.029 772.426V767.668C976.029 766.383 975.878 765.253 975.577 764.277C975.277 763.293 974.848 762.468 974.292 761.803C973.727 761.146 973.044 760.65 972.242 760.312C971.439 759.975 970.537 759.807 969.535 759.807C968.541 759.807 967.643 759.975 966.841 760.312C966.048 760.65 965.374 761.146 964.818 761.803C964.253 762.468 963.82 763.293 963.519 764.277C963.218 765.253 963.068 766.383 963.068 767.668V772.426C963.068 773.711 963.218 774.846 963.519 775.83C963.829 776.805 964.266 777.621 964.831 778.277C965.387 778.943 966.066 779.444 966.869 779.781C967.671 780.118 968.568 780.287 969.562 780.287C970.564 780.287 971.467 780.118 972.269 779.781C973.071 779.444 973.75 778.943 974.306 778.277C974.862 777.621 975.286 776.805 975.577 775.83C975.878 774.846 976.029 773.711 976.029 772.426ZM966.896 770.785C966.896 770.503 966.896 770.288 966.896 770.143C966.896 769.997 966.896 769.705 966.896 769.268V767.066C966.896 766.328 966.951 765.69 967.06 765.152C967.178 764.615 967.356 764.177 967.593 763.84C967.812 763.521 968.081 763.284 968.4 763.129C968.728 762.965 969.106 762.883 969.535 762.883C969.917 762.883 970.259 762.947 970.56 763.074C970.87 763.193 971.13 763.38 971.339 763.635C971.613 763.954 971.818 764.382 971.954 764.92C972.1 765.449 972.182 766.087 972.201 766.834L966.896 770.785ZM972.201 773C972.201 773.738 972.141 774.381 972.023 774.928C971.913 775.465 971.745 775.908 971.517 776.254C971.298 776.582 971.025 776.828 970.697 776.992C970.369 777.147 969.99 777.225 969.562 777.225C969.097 777.225 968.696 777.133 968.359 776.951C968.022 776.769 967.744 776.491 967.525 776.117C967.333 775.807 967.183 775.42 967.074 774.955C966.973 774.49 966.914 773.957 966.896 773.355L972.201 769.418C972.201 769.682 972.201 769.887 972.201 770.033C972.201 770.17 972.201 770.389 972.201 770.689V773ZM993.125 772.426V767.668C993.125 766.383 992.975 765.253 992.674 764.277C992.373 763.293 991.945 762.468 991.389 761.803C990.824 761.146 990.14 760.65 989.338 760.312C988.536 759.975 987.634 759.807 986.631 759.807C985.637 759.807 984.74 759.975 983.938 760.312C983.145 760.65 982.47 761.146 981.914 761.803C981.349 762.468 980.916 763.293 980.615 764.277C980.315 765.253 980.164 766.383 980.164 767.668V772.426C980.164 773.711 980.315 774.846 980.615 775.83C980.925 776.805 981.363 777.621 981.928 778.277C982.484 778.943 983.163 779.444 983.965 779.781C984.767 780.118 985.665 780.287 986.658 780.287C987.661 780.287 988.563 780.118 989.365 779.781C990.167 779.444 990.846 778.943 991.402 778.277C991.958 777.621 992.382 776.805 992.674 775.83C992.975 774.846 993.125 773.711 993.125 772.426ZM983.992 770.785C983.992 770.503 983.992 770.288 983.992 770.143C983.992 769.997 983.992 769.705 983.992 769.268V767.066C983.992 766.328 984.047 765.69 984.156 765.152C984.275 764.615 984.453 764.177 984.69 763.84C984.908 763.521 985.177 763.284 985.496 763.129C985.824 762.965 986.203 762.883 986.631 762.883C987.014 762.883 987.356 762.947 987.656 763.074C987.966 763.193 988.226 763.38 988.436 763.635C988.709 763.954 988.914 764.382 989.051 764.92C989.197 765.449 989.279 766.087 989.297 766.834L983.992 770.785ZM989.297 773C989.297 773.738 989.238 774.381 989.119 774.928C989.01 775.465 988.841 775.908 988.613 776.254C988.395 776.582 988.121 776.828 987.793 776.992C987.465 777.147 987.087 777.225 986.658 777.225C986.193 777.225 985.792 777.133 985.455 776.951C985.118 776.769 984.84 776.491 984.621 776.117C984.43 775.807 984.279 775.42 984.17 774.955C984.07 774.49 984.01 773.957 983.992 773.355L989.297 769.418C989.297 769.682 989.297 769.887 989.297 770.033C989.297 770.17 989.297 770.389 989.297 770.689V773ZM1010.22 772.426V767.668C1010.22 766.383 1010.07 765.253 1009.77 764.277C1009.47 763.293 1009.04 762.468 1008.49 761.803C1007.92 761.146 1007.24 760.65 1006.43 760.312C1005.63 759.975 1004.73 759.807 1003.73 759.807C1002.73 759.807 1001.84 759.975 1001.03 760.312C1000.24 760.65 999.567 761.146 999.011 761.803C998.445 762.468 998.012 763.293 997.712 764.277C997.411 765.253 997.261 766.383 997.261 767.668V772.426C997.261 773.711 997.411 774.846 997.712 775.83C998.022 776.805 998.459 777.621 999.024 778.277C999.58 778.943 1000.26 779.444 1001.06 779.781C1001.86 780.118 1002.76 780.287 1003.75 780.287C1004.76 780.287 1005.66 780.118 1006.46 779.781C1007.26 779.444 1007.94 778.943 1008.5 778.277C1009.05 777.621 1009.48 776.805 1009.77 775.83C1010.07 774.846 1010.22 773.711 1010.22 772.426ZM1001.09 770.785C1001.09 770.503 1001.09 770.288 1001.09 770.143C1001.09 769.997 1001.09 769.705 1001.09 769.268V767.066C1001.09 766.328 1001.14 765.69 1001.25 765.152C1001.37 764.615 1001.55 764.177 1001.79 763.84C1002 763.521 1002.27 763.284 1002.59 763.129C1002.92 762.965 1003.3 762.883 1003.73 762.883C1004.11 762.883 1004.45 762.947 1004.75 763.074C1005.06 763.193 1005.32 763.38 1005.53 763.635C1005.81 763.954 1006.01 764.382 1006.15 764.92C1006.29 765.449 1006.38 766.087 1006.39 766.834L1001.09 770.785ZM1006.39 773C1006.39 773.738 1006.33 774.381 1006.22 774.928C1006.11 775.465 1005.94 775.908 1005.71 776.254C1005.49 776.582 1005.22 776.828 1004.89 776.992C1004.56 777.147 1004.18 777.225 1003.75 777.225C1003.29 777.225 1002.89 777.133 1002.55 776.951C1002.21 776.769 1001.94 776.491 1001.72 776.117C1001.53 775.807 1001.38 775.42 1001.27 774.955C1001.17 774.49 1001.11 773.957 1001.09 773.355L1006.39 769.418C1006.39 769.682 1006.39 769.887 1006.39 770.033C1006.39 770.17 1006.39 770.389 1006.39 770.689V773ZM1027.32 772.426V767.668C1027.32 766.383 1027.17 765.253 1026.87 764.277C1026.57 763.293 1026.14 762.468 1025.58 761.803C1025.02 761.146 1024.33 760.65 1023.53 760.312C1022.73 759.975 1021.83 759.807 1020.82 759.807C1019.83 759.807 1018.93 759.975 1018.13 760.312C1017.34 760.65 1016.66 761.146 1016.11 761.803C1015.54 762.468 1015.11 763.293 1014.81 764.277C1014.51 765.253 1014.36 766.383 1014.36 767.668V772.426C1014.36 773.711 1014.51 774.846 1014.81 775.83C1015.12 776.805 1015.56 777.621 1016.12 778.277C1016.68 778.943 1017.36 779.444 1018.16 779.781C1018.96 780.118 1019.86 780.287 1020.85 780.287C1021.85 780.287 1022.76 780.118 1023.56 779.781C1024.36 779.444 1025.04 778.943 1025.6 778.277C1026.15 777.621 1026.58 776.805 1026.87 775.83C1027.17 774.846 1027.32 773.711 1027.32 772.426ZM1018.19 770.785C1018.19 770.503 1018.19 770.288 1018.19 770.143C1018.19 769.997 1018.19 769.705 1018.19 769.268V767.066C1018.19 766.328 1018.24 765.69 1018.35 765.152C1018.47 764.615 1018.65 764.177 1018.88 763.84C1019.1 763.521 1019.37 763.284 1019.69 763.129C1020.02 762.965 1020.4 762.883 1020.82 762.883C1021.21 762.883 1021.55 762.947 1021.85 763.074C1022.16 763.193 1022.42 763.38 1022.63 763.635C1022.9 763.954 1023.11 764.382 1023.24 764.92C1023.39 765.449 1023.47 766.087 1023.49 766.834L1018.19 770.785ZM1023.49 773C1023.49 773.738 1023.43 774.381 1023.31 774.928C1023.2 775.465 1023.03 775.908 1022.81 776.254C1022.59 776.582 1022.31 776.828 1021.99 776.992C1021.66 777.147 1021.28 777.225 1020.85 777.225C1020.39 777.225 1019.99 777.133 1019.65 776.951C1019.31 776.769 1019.03 776.491 1018.81 776.117C1018.62 775.807 1018.47 775.42 1018.36 774.955C1018.26 774.49 1018.2 773.957 1018.19 773.355L1023.49 769.418C1023.49 769.682 1023.49 769.887 1023.49 770.033C1023.49 770.17 1023.49 770.389 1023.49 770.689V773ZM1044.41 772.426V767.668C1044.41 766.383 1044.26 765.253 1043.96 764.277C1043.66 763.293 1043.23 762.468 1042.68 761.803C1042.11 761.146 1041.43 760.65 1040.63 760.312C1039.83 759.975 1038.92 759.807 1037.92 759.807C1036.93 759.807 1036.03 759.975 1035.23 760.312C1034.43 760.65 1033.76 761.146 1033.2 761.803C1032.64 762.468 1032.21 763.293 1031.9 764.277C1031.6 765.253 1031.45 766.383 1031.45 767.668V772.426C1031.45 773.711 1031.6 774.846 1031.9 775.83C1032.21 776.805 1032.65 777.621 1033.22 778.277C1033.77 778.943 1034.45 779.444 1035.25 779.781C1036.06 780.118 1036.95 780.287 1037.95 780.287C1038.95 780.287 1039.85 780.118 1040.65 779.781C1041.46 779.444 1042.14 778.943 1042.69 778.277C1043.25 777.621 1043.67 776.805 1043.96 775.83C1044.26 774.846 1044.41 773.711 1044.41 772.426ZM1035.28 770.785C1035.28 770.503 1035.28 770.288 1035.28 770.143C1035.28 769.997 1035.28 769.705 1035.28 769.268V767.066C1035.28 766.328 1035.34 765.69 1035.45 765.152C1035.56 764.615 1035.74 764.177 1035.98 763.84C1036.2 763.521 1036.47 763.284 1036.79 763.129C1037.11 762.965 1037.49 762.883 1037.92 762.883C1038.3 762.883 1038.64 762.947 1038.95 763.074C1039.26 763.193 1039.52 763.38 1039.72 763.635C1040 763.954 1040.2 764.382 1040.34 764.92C1040.49 765.449 1040.57 766.087 1040.59 766.834L1035.28 770.785ZM1040.59 773C1040.59 773.738 1040.53 774.381 1040.41 774.928C1040.3 775.465 1040.13 775.908 1039.9 776.254C1039.68 776.582 1039.41 776.828 1039.08 776.992C1038.75 777.147 1038.38 777.225 1037.95 777.225C1037.48 777.225 1037.08 777.133 1036.74 776.951C1036.41 776.769 1036.13 776.491 1035.91 776.117C1035.72 775.807 1035.57 775.42 1035.46 774.955C1035.36 774.49 1035.3 773.957 1035.28 773.355L1040.59 769.418C1040.59 769.682 1040.59 769.887 1040.59 770.033C1040.59 770.17 1040.59 770.389 1040.59 770.689V773Z" fill="white"/>
<rect x="791" y="240" width="339" height="663" rx="4" stroke="#EEE824" stroke-width="4"/>
<path d="M849.291 196.102V192.621H838.463V184.904H850.838V181.406H834.209V207H838.463V196.102H849.291ZM860.119 203.52V181.406H855.883V207H872.336V203.52H860.119ZM889.562 201.111L891.285 207H895.662L887.471 181.406H883.727L875.395 207H879.789L881.529 201.111H889.562ZM882.602 197.49L885.59 187.365L888.525 197.49H882.602ZM912.098 200.408C912.098 200.971 911.975 201.469 911.729 201.902C911.494 202.336 911.178 202.699 910.779 202.992C910.369 203.297 909.883 203.525 909.32 203.678C908.77 203.83 908.172 203.906 907.527 203.906C906.766 203.906 906.062 203.812 905.418 203.625C904.785 203.438 904.234 203.15 903.766 202.764C903.285 202.389 902.904 201.914 902.623 201.34C902.354 200.754 902.189 200.068 902.131 199.283H897.912C897.924 200.525 898.17 201.621 898.65 202.57C899.143 203.508 899.805 204.328 900.637 205.031C901.539 205.781 902.6 206.355 903.818 206.754C905.037 207.141 906.273 207.334 907.527 207.334C908.711 207.334 909.836 207.188 910.902 206.895C911.969 206.59 912.906 206.139 913.715 205.541C914.512 204.967 915.145 204.246 915.613 203.379C916.094 202.512 916.334 201.51 916.334 200.373C916.334 199.143 916.059 198.059 915.508 197.121C914.969 196.172 914.248 195.357 913.346 194.678C912.619 194.139 911.822 193.682 910.955 193.307C910.1 192.92 909.221 192.598 908.318 192.34C907.604 192.129 906.918 191.9 906.262 191.654C905.617 191.408 905.043 191.121 904.539 190.793C904.047 190.465 903.654 190.084 903.361 189.65C903.068 189.205 902.916 188.689 902.904 188.104C902.904 187.553 903.016 187.055 903.238 186.609C903.461 186.164 903.771 185.783 904.17 185.467C904.568 185.162 905.037 184.928 905.576 184.764C906.127 184.588 906.725 184.5 907.369 184.5C908.107 184.5 908.758 184.611 909.32 184.834C909.895 185.045 910.381 185.338 910.779 185.713C911.166 186.1 911.465 186.562 911.676 187.102C911.898 187.629 912.039 188.215 912.098 188.859H916.281C916.281 187.699 916.047 186.645 915.578 185.695C915.121 184.734 914.494 183.908 913.697 183.217C912.9 182.537 911.963 182.01 910.885 181.635C909.818 181.248 908.664 181.055 907.422 181.055C906.25 181.055 905.131 181.219 904.064 181.547C903.01 181.863 902.084 182.326 901.287 182.936C900.49 183.557 899.857 184.307 899.389 185.186C898.92 186.053 898.686 187.031 898.686 188.121C898.686 189.129 898.885 190.037 899.283 190.846C899.693 191.643 900.256 192.357 900.971 192.99C901.686 193.611 902.547 194.168 903.555 194.66C904.574 195.152 905.688 195.574 906.895 195.926C907.68 196.148 908.389 196.4 909.021 196.682C909.666 196.951 910.223 197.256 910.691 197.596C911.137 197.959 911.482 198.369 911.729 198.826C911.975 199.283 912.098 199.811 912.098 200.408ZM936.918 207V181.406H932.787V192.111H924.174V181.406H920.061V207H924.174V195.592H932.787V207H936.918ZM968.629 181.406H963.391V207H967.346V198.316L967.117 187.312L970.686 199.107H972.883L976.82 186.891L976.574 198.316V207H980.547V181.406H975.291L971.793 192.357L968.629 181.406ZM1000.29 195.521V192.111H989.705V184.904H1001.97V181.406H985.469V207H1002.06V203.52H989.705V195.521H1000.29ZM1011.87 181.406H1006.63V207H1010.59V198.316L1010.36 187.312L1013.93 199.107H1016.12L1020.06 186.891L1019.82 198.316V207H1023.79V181.406H1018.53L1015.04 192.357L1011.87 181.406ZM1045.83 195.908V192.533C1045.83 191.467 1045.74 190.441 1045.55 189.457C1045.36 188.461 1045.08 187.529 1044.71 186.662C1044.37 185.854 1043.95 185.109 1043.44 184.43C1042.94 183.75 1042.35 183.158 1041.67 182.654C1040.99 182.15 1040.22 181.758 1039.36 181.477C1038.51 181.195 1037.57 181.055 1036.55 181.055C1035.54 181.055 1034.62 181.195 1033.77 181.477C1032.94 181.746 1032.2 182.133 1031.54 182.637C1030.86 183.152 1030.27 183.762 1029.77 184.465C1029.27 185.156 1028.86 185.918 1028.52 186.75C1028.17 187.617 1027.9 188.537 1027.73 189.51C1027.55 190.482 1027.46 191.49 1027.46 192.533V195.908C1027.46 196.904 1027.54 197.877 1027.71 198.826C1027.87 199.764 1028.11 200.648 1028.43 201.48C1028.77 202.348 1029.2 203.145 1029.71 203.871C1030.23 204.598 1030.83 205.219 1031.51 205.734C1032.17 206.238 1032.93 206.637 1033.77 206.93C1034.63 207.211 1035.57 207.352 1036.59 207.352C1037.57 207.352 1038.48 207.217 1039.31 206.947C1040.14 206.678 1040.89 206.309 1041.56 205.84C1042.26 205.324 1042.88 204.709 1043.42 203.994C1043.96 203.268 1044.41 202.477 1044.78 201.621C1045.12 200.766 1045.38 199.857 1045.55 198.896C1045.74 197.936 1045.83 196.939 1045.83 195.908ZM1041.58 192.498V195.908C1041.58 196.529 1041.54 197.15 1041.47 197.771C1041.41 198.393 1041.31 198.984 1041.16 199.547C1040.99 200.191 1040.77 200.783 1040.49 201.322C1040.22 201.85 1039.88 202.307 1039.47 202.693C1039.12 203.033 1038.7 203.303 1038.2 203.502C1037.72 203.701 1037.18 203.801 1036.59 203.801C1035.96 203.801 1035.41 203.701 1034.93 203.502C1034.46 203.291 1034.05 203.01 1033.69 202.658C1033.31 202.283 1032.99 201.826 1032.72 201.287C1032.46 200.736 1032.26 200.145 1032.1 199.512C1031.96 198.949 1031.86 198.363 1031.8 197.754C1031.75 197.133 1031.72 196.518 1031.72 195.908V192.498C1031.72 191.865 1031.75 191.238 1031.8 190.617C1031.88 189.984 1031.98 189.387 1032.12 188.824C1032.27 188.168 1032.49 187.576 1032.77 187.049C1033.05 186.51 1033.4 186.053 1033.81 185.678C1034.15 185.35 1034.55 185.098 1035 184.922C1035.46 184.734 1035.98 184.641 1036.55 184.641C1037.15 184.641 1037.68 184.734 1038.15 184.922C1038.62 185.109 1039.04 185.367 1039.4 185.695C1039.81 186.07 1040.15 186.527 1040.44 187.066C1040.73 187.594 1040.96 188.18 1041.14 188.824C1041.29 189.387 1041.4 189.979 1041.47 190.6C1041.54 191.221 1041.58 191.854 1041.58 192.498ZM1058.7 197.068L1063.6 207H1068.12V206.771L1062.65 196.066C1063.36 195.75 1064 195.375 1064.57 194.941C1065.14 194.508 1065.64 194.004 1066.05 193.43C1066.46 192.855 1066.77 192.211 1067 191.496C1067.23 190.781 1067.35 189.984 1067.35 189.105C1067.35 187.828 1067.12 186.715 1066.68 185.766C1066.23 184.805 1065.61 184.002 1064.8 183.357C1064 182.725 1063.05 182.244 1061.93 181.916C1060.82 181.588 1059.6 181.418 1058.28 181.406H1050.16V207H1054.38V197.068H1058.7ZM1054.38 193.623V184.852H1058.28C1059 184.852 1059.66 184.945 1060.25 185.133C1060.83 185.32 1061.33 185.59 1061.74 185.941C1062.19 186.316 1062.52 186.785 1062.74 187.348C1062.98 187.898 1063.09 188.543 1063.09 189.281C1063.09 189.938 1062.99 190.523 1062.78 191.039C1062.57 191.555 1062.27 191.988 1061.9 192.34C1061.48 192.75 1060.96 193.066 1060.35 193.289C1059.75 193.5 1059.08 193.611 1058.33 193.623H1054.38ZM1079.97 193.641L1074.59 181.406H1069.9L1077.84 197.736L1077.86 207H1081.99L1082.03 197.859L1090.04 181.406H1085.33L1079.97 193.641Z" fill="white"/>
</svg>
