<svg xmlns="http://www.w3.org/2000/svg" xml:space="preserve" id="Layer_1" x="0" y="0" viewBox="0 0 880 968"><style>.st0{fill:#fff}.st1{fill:none}.st2{fill:#7f8c8d}.st4{fill:#c11f09}.st5{fill:#f1c40f}.st8{fill:#202020}.st9{fill:none;stroke:#111;stroke-width:2}</style><path d="M0 0h880v968H0z" class="st0"/><path d="M294.5 462.5c-.3.3-.3.8 0 1.1l4.8 4.8c.3.3.8.3 1.1 0s.3-.8 0-1.1l-4.2-4.2 4.2-4.2c.3-.3.3-.8 0-1.1s-.8-.3-1.1 0zm111-250c.3-.3.3-.8 0-1.1l-4.8-4.8c-.3-.3-.8-.3-1.1 0s-.3.8 0 1.1l4.2 4.2-4.2 4.2c-.3.3-.3.8 0 1.1s.8.3 1.1 0zM295 463.8h51.3v-1.5H295zm57-5.8V217h-1.5v241zm4.3-245.2H405v-1.5h-48.7zM352 217c0-2.3 1.9-4.2 4.2-4.2v-1.5c-3.2 0-5.8 2.6-5.8 5.8h1.6zm-5.7 246.8c3.2 0 5.8-2.6 5.8-5.8h-1.5c0 2.3-1.9 4.2-4.2 4.2v1.6zM460.5 462.5c-.3.3-.3.8 0 1.1l4.8 4.8c.3.3.8.3 1.1 0s.3-.8 0-1.1l-4.2-4.2 4.2-4.2c.3-.3.3-.8 0-1.1s-.8-.3-1.1 0zm130-136c.3-.3.3-.8 0-1.1l-4.8-4.8c-.3-.3-.8-.3-1.1 0s-.3.8 0 1.1l4.2 4.2-4.2 4.2c-.3.3-.3.8 0 1.1s.8.3 1.1 0zM461 463.8h61v-1.5h-61zm66.8-5.8V331h-1.5v127zm4.2-131.2h58v-1.5h-58zm-4.2 4.2c0-2.3 1.9-4.2 4.2-4.2v-1.5c-3.2 0-5.8 2.6-5.8 5.8h1.6zM522 463.8c3.2 0 5.8-2.6 5.8-5.8h-1.5c0 2.3-1.9 4.2-4.2 4.2v1.6zM294.5 478.5c-.3-.3-.3-.8 0-1.1l4.8-4.8c.3-.3.8-.3 1.1 0s.3.8 0 1.1l-4.2 4.2 4.2 4.2c.3.3.3.8 0 1.1s-.8.3-1.1 0zm112 252c.3.3.3.8 0 1.1l-4.8 4.8c-.3.3-.8.3-1.1 0s-.3-.8 0-1.1l4.2-4.2-4.2-4.2c-.3-.3-.3-.8 0-1.1s.8-.3 1.1 0zM295 477.2h51.3v1.5H295zm57 5.8v243h-1.5V483zm4.3 247.2H406v1.5h-49.7zM352 726c0 2.3 1.9 4.2 4.2 4.2v1.5c-3.2 0-5.8-2.6-5.8-5.8h1.6zm-5.7-248.8c3.2 0 5.8 2.6 5.8 5.8h-1.5c0-2.3-1.9-4.2-4.2-4.2v-1.6zM460.5 478.5c-.3-.3-.3-.8 0-1.1l4.8-4.8c.3-.3.8-.3 1.1 0s.3.8 0 1.1l-4.2 4.2 4.2 4.2c.3.3.3.8 0 1.1s-.8.3-1.1 0zm130 108c.3.3.3.8 0 1.1l-4.8 4.8c-.3.3-.8.3-1.1 0s-.3-.8 0-1.1l4.2-4.2-4.2-4.2c-.3-.3-.3-.8 0-1.1s.8-.3 1.1 0zM461 477.2h61v1.5h-61zm66.8 5.8v99h-1.5v-99zm4.2 103.2h58v1.5h-58zm-4.2-4.2c0 2.3 1.9 4.2 4.2 4.2v1.5c-3.2 0-5.8-2.6-5.8-5.8h1.6zM522 477.2c3.2 0 5.8 2.6 5.8 5.8h-1.5c0-2.3-1.9-4.2-4.2-4.2v-1.6zM468.5 199.5c-.3.3-.3.8 0 1.1l4.8 4.8c.3.3.8.3 1.1 0s.3-.8 0-1.1l-4.2-4.2 4.2-4.2c.3-.3.3-.8 0-1.1s-.8-.3-1.1 0zm122-128c.3-.3.3-.8 0-1.1l-4.8-4.8c-.3-.3-.8-.3-1.1 0s-.3.8 0 1.1l4.2 4.2-4.2 4.2c-.3.3-.3.8 0 1.1s.8.3 1.1 0zM469 200.8h60.5v-1.5H469zm66.2-5.8V76h-1.5v119zm4.3-123.2H590v-1.5h-50.5zm-4.3 4.2c0-2.3 1.9-4.2 4.2-4.2v-1.5c-3.2 0-5.8 2.6-5.8 5.8h1.6zm-5.7 124.8c3.2 0 5.8-2.6 5.8-5.8h-1.5c0 2.3-1.9 4.2-4.2 4.2v1.6z"/><path d="M1 1h1L1 2zM-1-1h-1l1-1z" class="st1"/><path d="M213.8 471.3c.3-.3.3-.8 0-1.1l-4.8-4.8c-.3-.3-.8-.3-1.1 0s-.3.8 0 1.1l4.2 4.2-4.2 4.2c-.3.3-.3.8 0 1.1s.8.3 1.1 0zm-106.6-1.1c-.3.3-.3.8 0 1.1l4.8 4.8c.3.3.8.3 1.1 0s.3-.8 0-1.1l-4.2-4.2 4.2-4.2c.3-.3.3-.8 0-1.1s-.8-.3-1.1 0zm106-.2H107.8v1.5h105.5V470z"/><path d="M1 1h1L1 2zM-1-1h-1l1-1z" class="st1"/><path d="M84.7 451.8c.3.3.8.3 1.1 0l4.8-4.8c.3-.3.3-.8 0-1.1s-.8-.3-1.1 0l-4.2 4.2-4.2-4.2c-.3-.3-.8-.3-1.1 0s-.3.8 0 1.1zm1.1-126.6c-.3-.3-.8-.3-1.1 0l-4.8 4.8c-.3.3-.3.8 0 1.1s.8.3 1.1 0l4.2-4.2 4.2 4.2c.3.3.8.3 1.1 0s.3-.8 0-1.1zm.2 126V325.8h-1.5v125.5H86z"/><path d="M1 1h1L1 2zM-1-1h-1l1-1z" class="st1"/><path d="M410.8 471.3c.3-.3.3-.8 0-1.1l-4.8-4.8c-.3-.3-.8-.3-1.1 0s-.3.8 0 1.1l4.2 4.2-4.2 4.2c-.3.3-.3.8 0 1.1s.8.3 1.1 0zm-111.6-1.1c-.3.3-.3.8 0 1.1l4.8 4.8c.3.3.8.3 1.1 0s.3-.8 0-1.1l-4.2-4.2 4.2-4.2c.3-.3.3-.8 0-1.1s-.8-.3-1.1 0zm111-.2H299.8v1.5h110.5V470z"/><path d="M1 1h1L1 2zM-1-1h-1l1-1z" class="st1"/><path d="M590.8 471.3c.3-.3.3-.8 0-1.1l-4.8-4.8c-.3-.3-.8-.3-1.1 0s-.3.8 0 1.1l4.2 4.2-4.2 4.2c-.3.3-.3.8 0 1.1s.8.3 1.1 0zm-124.6-1.1c-.3.3-.3.8 0 1.1l4.8 4.8c.3.3.8.3 1.1 0s.3-.8 0-1.1l-4.2-4.2 4.2-4.2c.3-.3.3-.8 0-1.1s-.8-.3-1.1 0zm124-.2H466.8v1.5h123.5V470z"/><path d="M1 1h1L1 2zM-1-1h-1l1-1z" class="st1"/><path d="M405.8 199.3c.3-.3.3-.8 0-1.1l-4.8-4.8c-.3-.3-.8-.3-1.1 0s-.3.8 0 1.1l4.2 4.2-4.2 4.2c-.3.3-.3.8 0 1.1s.8.3 1.1 0zm-294.6-1.1c-.3.3-.3.8 0 1.1l4.8 4.8c.3.3.8.3 1.1 0s.3-.8 0-1.1l-4.2-4.2 4.2-4.2c.3-.3.3-.8 0-1.1s-.8-.3-1.1 0zm294-.2H111.8v1.5h293.5V198z"/><path d="M1 1h1L1 2zM-1-1h-1l1-1z" class="st1"/><path d="M411.8 65.3c.3-.3.3-.8 0-1.1l-4.8-4.8c-.3-.3-.8-.3-1.1 0s-.3.8 0 1.1l4.2 4.2-4.2 4.2c-.3.3-.3.8 0 1.1s.8.3 1.1 0zm-300.6-1.1c-.3.3-.3.8 0 1.1l4.8 4.8c.3.3.8.3 1.1 0s.3-.8 0-1.1l-4.2-4.2 4.2-4.2c.3-.3.3-.8 0-1.1s-.8-.3-1.1 0zm300-.2H111.8v1.5h299.5V64z"/><path d="M1 1h1L1 2zM-1-1h-1l1-1z" class="st1"/><path d="M590.8 732.3c.3-.3.3-.8 0-1.1l-4.8-4.8c-.3-.3-.8-.3-1.1 0s-.3.8 0 1.1l4.2 4.2-4.2 4.2c-.3.3-.3.8 0 1.1s.8.3 1.1 0zm-127.6-1.1c-.3.3-.3.8 0 1.1l4.8 4.8c.3.3.8.3 1.1 0s.3-.8 0-1.1l-4.2-4.2 4.2-4.2c.3-.3.3-.8 0-1.1s-.8-.3-1.1 0zm127-.2H463.8v1.5h126.5V731z"/><path d="M1 1h1L1 2zM-1-1h-1l1-1z" class="st1"/><path d="M590.8 210.3c.3-.3.3-.8 0-1.1l-4.8-4.8c-.3-.3-.8-.3-1.1 0s-.3.8 0 1.1l4.2 4.2-4.2 4.2c-.3.3-.3.8 0 1.1s.8.3 1.1 0zm-133.6-1.1c-.3.3-.3.8 0 1.1l4.8 4.8c.3.3.8.3 1.1 0s.3-.8 0-1.1l-4.2-4.2 4.2-4.2c.3-.3.3-.8 0-1.1s-.8-.3-1.1 0zm133-.2H457.8v1.5h132.5V209z"/><path d="M1 1h1L1 2zM-1-1h-1l1-1z" class="st1"/><path d="M590.8 60.3c.3-.3.3-.8 0-1.1l-4.8-4.8c-.3-.3-.8-.3-1.1 0s-.3.8 0 1.1l4.2 4.2-4.2 4.2c-.3.3-.3.8 0 1.1s.8.3 1.1 0zm-127.6-1.1c-.3.3-.3.8 0 1.1l4.8 4.8c.3.3.8.3 1.1 0s.3-.8 0-1.1l-4.2-4.2 4.2-4.2c.3-.3.3-.8 0-1.1s-.8-.3-1.1 0zm127-.2H463.8v1.5h126.5V59z"/><path d="M46 457c0-2.8 2.2-5 5-5h71c2.8 0 5 2.2 5 5v26c0 2.8-2.2 5-5 5H51c-2.8 0-5-2.2-5-5z" class="st2"/><path d="M68 475v-10h3.3c.5 0 1 .1 1.5.2.4.1.8.3 1.1.5s.6.5.7.8q.3.45.3 1.2c0 .5-.1.9-.4 1.3-.2.4-.6.6-1.1.8.3.1.5.2.7.3s.4.3.5.5l.3.6c.1.2.1.5.1.7 0 .5-.1.9-.2 1.3-.2.4-.4.7-.7.9s-.7.4-1.1.6c-.4.1-.9.2-1.5.2H68zm2-4.4v2.8h1.7c.5 0 .9-.1 1.2-.4s.4-.6.4-1c0-.5-.1-.8-.4-1.1s-.6-.4-1.2-.4H70zm0-1.4h1.4q.75 0 1.2-.3c.3-.2.4-.5.4-1s-.1-.8-.4-1q-.45-.3-1.2-.3H70zm13 3.7h-3l-.6 2.1h-2l3.3-10h1.7l3.2 10h-2zm-2.5-1.6h2.1l-1-3.7zm15.1-4.7h-3.1v8.4h-1.9v-8.4h-3V465h8zm10 0h-3.1v8.4h-1.9v-8.4h-3V465h8z" class="st0"/><path d="M46 185c0-2.8 2.2-5 5-5h71c2.8 0 5 2.2 5 5v26c0 2.8-2.2 5-5 5H51c-2.8 0-5-2.2-5-5z" class="st2"/><path d="m66.3 200.2 1.9-7.2h2.1l-3 10h-2l-3-10h2.1zm23.5-7.2v6.6c0 .6-.1 1.1-.2 1.5-.2.4-.4.8-.7 1.1s-.6.5-1.1.7c-.4.2-.9.2-1.4.2s-1-.1-1.4-.2c-.4-.2-.7-.4-1-.7s-.5-.7-.7-1.1-.2-.9-.2-1.5V193H85v6.6q0 .9.3 1.5c.2.3.6.5 1 .5.5 0 .8-.2 1.1-.5s.4-.8.4-1.5V193zm8.6 7.4c0-.2 0-.3-.1-.5s-.2-.3-.3-.4-.3-.3-.6-.4q-.3-.15-.9-.3c-.4-.1-.8-.3-1.2-.4-.4-.2-.7-.4-1-.6-.3-.3-.5-.5-.7-.9-.2-.3-.3-.7-.3-1.1s.1-.8.3-1.1.4-.6.7-.9c.3-.2.7-.4 1.1-.6.4-.1.9-.2 1.4-.2s1 .1 1.4.2.8.4 1.1.6c.3.3.6.6.7 1q.3.6.3 1.2h-1.9c0-.2-.1-.4-.1-.6-.1-.2-.2-.3-.3-.5-.1-.1-.3-.2-.5-.3s-.4-.1-.7-.1-.5 0-.7.1-.4.1-.5.3c-.1.1-.2.2-.3.4s-.1.3-.1.5 0 .4.1.5c.1.2.2.3.4.4l.6.3c.3.1.5.2.9.3.5.1.9.3 1.3.5s.7.4 1 .7q.45.45.6.9c.2.3.2.7.2 1.1q0 .6-.3 1.2c-.2.3-.4.6-.7.9-.3.2-.7.4-1.1.5s-.9.2-1.4.2c-.3 0-.6 0-.9-.1s-.6-.1-.9-.3c-.3-.1-.5-.3-.8-.4-.2-.2-.5-.4-.6-.6-.2-.2-.3-.5-.4-.8s-.2-.6-.2-1h1.9c0 .3.1.6.2.8s.2.4.4.5l.6.3c.2.1.5.1.8.1s.5 0 .7-.1.4-.1.5-.2.2-.2.3-.4zm5 2.6v-10h3.3c.5 0 1 .1 1.5.2.4.1.8.3 1.1.5s.6.5.7.8q.3.45.3 1.2c0 .5-.1.9-.4 1.3-.2.4-.6.6-1.1.8.3.1.5.2.7.3s.4.3.5.5l.3.6c.1.2.1.5.1.7 0 .5-.1.9-.2 1.3-.2.4-.4.7-.7.9s-.7.4-1.1.6c-.4.1-.9.2-1.5.2h-3.5zm1.9-4.4v2.8h1.7c.5 0 .9-.1 1.2-.4s.4-.6.4-1c0-.5-.1-.8-.4-1.1s-.6-.4-1.2-.4h-1.7zm0-1.4h1.4q.75 0 1.2-.3c.3-.2.4-.5.4-1s-.1-.8-.4-1q-.45-.3-1.2-.3h-1.4z" class="st0"/><path d="M46 51c0-2.8 2.2-5 5-5h81c2.8 0 5 2.2 5 5v26c0 2.8-2.2 5-5 5H51c-2.8 0-5-2.2-5-5z" class="st2"/><path d="M69.9 65.9c0 .5-.1 1-.3 1.4s-.4.7-.7 1-.7.5-1.1.7-.9.2-1.4.2c-.6 0-1.1-.1-1.6-.3s-.8-.5-1.1-.9-.5-.9-.7-1.4-.2-1.1-.2-1.8v-1.3q0-1.05.3-1.8c.2-.5.4-1 .7-1.4q.45-.6 1.2-.9t1.5-.3c.5 0 1 .1 1.5.2.4.2.8.4 1.1.7s.5.6.7 1.1c.2.4.3.9.3 1.4H68c0-.3-.1-.6-.1-.8l-.3-.6c-.1-.2-.3-.3-.5-.3-.2-.1-.4-.1-.7-.1s-.6.1-.8.2-.4.3-.5.6q-.15.3-.3.9c-.1.4-.1.8-.1 1.2V65c0 1 .1 1.7.4 2.2s.7.7 1.3.7c.5 0 .9-.1 1.2-.4s.5-.7.5-1.3h1.8zm6.5-.6H75V69h-1.9V59h3.3c.6 0 1.1.1 1.5.2s.8.3 1.1.6.6.6.7.9c.2.4.3.8.3 1.3 0 .4 0 .7-.1 1s-.2.5-.4.8c-.2.2-.3.4-.6.6-.2.2-.5.3-.7.4l2.1 4.1v.1h-2.1zM75 63.7h1.4c.5 0 1-.1 1.3-.4s.4-.7.4-1.1c0-.5-.1-.9-.4-1.2s-.7-.4-1.3-.4H75zM89.7 69h-6.8v-1.3l3.2-3.5c.3-.3.5-.5.6-.7.2-.2.3-.4.4-.6s.2-.4.2-.5c.1-.2.1-.3.1-.5s0-.4-.1-.6-.2-.3-.3-.4-.3-.2-.4-.3c-.2-.1-.3-.1-.5-.1-.5 0-.9.1-1.2.4s-.4.7-.4 1.2h-1.9c0-.4.1-.9.3-1.3s.4-.7.7-1 .7-.5 1.1-.7.9-.3 1.4-.3 1 .1 1.3.2c.4.1.7.3 1 .6q.45.45.6.9c.1.4.2.7.2 1.2 0 .3-.1.6-.2.9s-.2.6-.4.9-.4.6-.7.9-.6.6-.9 1l-1.9 2h4.4V69zm10.1-3.8c0 .6-.1 1.2-.2 1.7s-.4.9-.6 1.2c-.3.3-.6.6-1 .7-.4.2-.9.3-1.4.3s-.9-.1-1.3-.3-.7-.4-1-.7q-.45-.45-.6-1.2c-.2-.5-.2-1.1-.2-1.7v-2.4c0-.6.1-1.2.2-1.7q.3-.75.6-1.2c.3-.3.6-.6 1-.8s.8-.3 1.3-.3 1 .1 1.4.3.7.4 1 .8q.45.45.6 1.2c.2.5.2 1.1.2 1.7zm-4.6-.8 2.7-2q0-1.05-.3-1.5c-.2-.3-.5-.5-1-.5-.4 0-.8.2-1 .5s-.3.9-.3 1.6v1.9zm2.7-.7-2.7 2c0 .7.1 1.1.4 1.5.2.3.5.5 1 .5.4 0 .8-.2 1-.5s.3-.9.3-1.6zm7.4-.5h1c.5 0 .9-.1 1.2-.4.2-.3.4-.6.4-1 0-.2 0-.4-.1-.5-.1-.2-.1-.3-.3-.4-.1-.1-.3-.2-.4-.3-.2-.1-.4-.1-.6-.1s-.4 0-.5.1c-.2.1-.3.1-.4.2s-.2.2-.3.4c-.1.1-.1.3-.1.5h-1.9c0-.4.1-.8.2-1.1.2-.3.4-.6.7-.9.3-.2.6-.4 1-.6.4-.1.8-.2 1.3-.2s.9.1 1.4.2c.4.1.8.3 1.1.5s.5.5.7.9.2.8.2 1.2c0 .2 0 .4-.1.6l-.3.6c-.1.2-.3.4-.5.5-.2.2-.4.3-.6.4.3.1.5.2.7.4s.4.3.5.5l.3.6c.1.2.1.5.1.8q0 .75-.3 1.2c-.3.45-.4.7-.7.9s-.7.4-1.1.6c-.4.1-.9.2-1.4.2-.4 0-.8-.1-1.2-.2s-.8-.3-1.1-.5-.6-.5-.8-.9-.3-.8-.3-1.3h1.9c0 .2 0 .4.1.5.1.2.2.3.3.4s.3.2.5.3.4.1.6.1c.5 0 .9-.1 1.1-.4.3-.3.4-.6.4-1 0-.3 0-.5-.1-.7s-.2-.3-.3-.5c-.1-.1-.3-.2-.5-.3s-.4-.1-.7-.1h-1v-1.2zM120 69h-6.8v-1.3l3.2-3.5c.2-.3.5-.5.6-.7.2-.2.3-.4.4-.6s.2-.4.2-.5c0-.2.1-.3.1-.5s0-.4-.1-.6-.2-.3-.3-.4-.3-.2-.4-.3c-.2-.1-.3-.1-.5-.1-.5 0-.9.1-1.2.4s-.4.7-.4 1.2H113c0-.4.1-.9.3-1.3s.4-.7.7-1 .7-.5 1.1-.7.9-.3 1.4-.3 1 .1 1.3.2c.4.1.7.3 1 .6q.45.45.6.9c.1.4.2.7.2 1.2 0 .3-.1.6-.2.9s-.2.6-.4.9-.4.6-.7.9-.6.6-.9 1l-1.9 2h4.4V69z" class="st0"/><path d="M49 843.4V835h-2v10h6.6v-1.6zm11.6 1.7c.7 0 1.3-.1 1.9-.4.5-.3.9-.6 1.1-.9l-1-1q-.3.45-.9.6c-.4.1-.7.2-1.1.2-.3 0-.5 0-.7-.1l-.6-.3c-.2-.1-.3-.3-.4-.5s-.2-.4-.2-.7h5v-.8c0-.5-.1-1-.2-1.5-.2-.5-.4-.8-.7-1.2-.3-.3-.6-.6-1.1-.7-.4-.2-.9-.3-1.4-.3s-1 .1-1.4.3-.8.4-1.1.8c-.3.3-.6.7-.7 1.2q-.3.75-.3 1.5v.3c0 .5.1 1 .3 1.4s.4.8.8 1.1c.3.3.7.6 1.2.8.5.1 1 .2 1.5.2m-.2-6.1c.2 0 .5 0 .6.1.2.1.3.2.5.3.1.1.2.3.3.5s.1.4.1.6v.2h-3.1c0-.2.1-.5.2-.7s.2-.4.3-.5.3-.2.5-.3c.2-.2.4-.2.6-.2m6.5 2.2v.1c0 .5.1 1 .2 1.5s.3.8.6 1.2c.3.3.6.6.9.8q.6.3 1.2.3c.2 0 .4 0 .6-.1s.4-.1.6-.2c.1-.1.2-.1.3-.2l.3-.3v.4c0 .3 0 .5-.1.7s-.2.4-.3.5c-.1.2-.3.3-.5.3-.2.1-.5.1-.7.1s-.3 0-.5-.1c-.2 0-.3-.1-.5-.2s-.3-.2-.4-.3-.3-.2-.4-.4l-.9 1.2c.2.2.4.4.6.5.2.2.5.3.7.4.3.1.5.2.8.2s.5.1.7.1c.5 0 1-.1 1.4-.2s.8-.3 1.1-.6.5-.6.7-1 .3-.8.3-1.3v-7.2h-1.7l-.1.7-.3-.3c-.1-.1-.2-.2-.4-.2-.2-.1-.4-.2-.6-.2s-.4-.1-.7-.1c-.5 0-.9.1-1.3.3s-.7.4-.9.8q-.45.45-.6 1.2c0 .6-.1 1.1-.1 1.6m2 .2v-.1c0-.3 0-.6.1-.9s.2-.5.3-.7.3-.4.5-.5.4-.2.7-.2h.4c.1 0 .2.1.3.1.1.1.2.1.3.2s.2.2.2.3v3.1c-.1.1-.1.2-.2.3s-.2.2-.3.2c-.1.1-.2.1-.4.1h-.4c-.3 0-.5-.1-.7-.2s-.4-.3-.5-.5-.2-.4-.3-.7zm11.9 3.7c.7 0 1.3-.1 1.9-.4.5-.3.9-.6 1.1-.9l-1-1q-.3.45-.9.6c-.4.1-.7.2-1.1.2-.3 0-.5 0-.7-.1l-.6-.3c-.2-.1-.3-.3-.4-.5s-.2-.4-.2-.7h5v-.8c0-.5-.1-1-.2-1.5-.2-.5-.4-.8-.7-1.2-.3-.3-.6-.6-1.1-.7-.4-.2-.9-.3-1.4-.3s-1 .1-1.4.3-.8.4-1.1.8c-.3.3-.6.7-.7 1.2q-.3.75-.3 1.5v.3c0 .5.1 1 .3 1.4s.4.8.8 1.1c.3.3.7.6 1.2.8.4.1.9.2 1.5.2m-.2-6.1c.2 0 .5 0 .6.1.2.1.3.2.5.3.1.1.2.3.3.5s.1.4.1.6v.2H79c0-.2.1-.5.2-.7s.2-.4.3-.5.3-.2.5-.3c.2-.2.4-.2.6-.2m6.7 6h1.9v-5.3c.1-.1.1-.2.2-.3s.2-.2.3-.2c.1-.1.3-.1.4-.2.2 0 .3-.1.5-.1s.4 0 .6.1c.2 0 .3.1.4.2s.2.3.3.5.1.4.1.7v4.5h1.9v-4.6c0-.5-.1-1-.2-1.4s-.3-.7-.5-.9-.5-.4-.8-.5-.7-.2-1-.2-.6 0-.8.1c-.3.1-.5.2-.7.4-.1.1-.2.2-.4.3s-.2.2-.3.4l-.1-1h-1.7v7.5zm9.9-3.8v.1c0 .5.1 1 .2 1.5s.3.8.6 1.2c.2.3.5.6.9.8q.6.3 1.2.3c.4 0 .8-.1 1.1-.2.3-.2.6-.4.8-.7l.1.8h1.7v-10.5h-1.9v3.8c-.2-.3-.5-.5-.8-.6s-.6-.2-1-.2q-.75 0-1.2.3c-.4.2-.7.4-.9.8-.3.3-.4.7-.6 1.2-.1.4-.2.9-.2 1.4m1.9.2v-.1c0-.3 0-.6.1-.9s.1-.5.3-.7c.1-.2.3-.4.5-.5s.4-.2.7-.2.6.1.8.2.4.3.5.6v3c-.1.2-.3.4-.5.6-.2.1-.5.2-.8.2s-.5-.1-.7-.2-.3-.3-.5-.5c-.1-.2-.2-.4-.3-.7-.1-.2-.1-.5-.1-.8m10.4 2.5c0 .4.1.6.4.9s.6.4 1 .4.7-.1 1-.3c.2-.2.4-.5.4-.9s-.1-.7-.4-.9c-.2-.2-.6-.4-1-.4s-.7.1-1 .4c-.3.2-.4.4-.4.8m0-5.6c0 .4.1.6.4.9s.6.4 1 .4.7-.1 1-.3c.2-.2.4-.5.4-.9s-.1-.7-.4-.9c-.2-.2-.6-.4-1-.4s-.7.1-1 .4c-.3.1-.4.4-.4.8"/><path d="M51 863h15c2.2 0 4 1.8 4 4v15c0 2.2-1.8 4-4 4H51c-2.2 0-4-1.8-4-4v-15c0-2.2 1.8-4 4-4z" style="fill:#fff;stroke:#000;stroke-width:2"/><path d="M88.8 875.9c0 .5-.1 1-.3 1.4s-.4.7-.7 1-.7.5-1.1.7c-.4.1-.9.2-1.4.2-.6 0-1.1-.1-1.6-.3s-.8-.5-1.1-.9-.5-.9-.7-1.4-.2-1.1-.2-1.8v-1.3q0-1.05.3-1.8c.2-.5.4-1 .7-1.4q.45-.6 1.2-.9t1.5-.3c.5 0 1 .1 1.5.2.4.2.8.4 1.1.7s.5.6.7 1.1c.2.4.3.9.3 1.4h-1.9c0-.3-.1-.6-.1-.8l-.3-.6c-.1-.1-.3-.3-.5-.3-.2-.1-.4-.1-.7-.1s-.6.1-.8.2-.4.3-.5.6q-.15.3-.3.9c-.1.4-.1.8-.1 1.2v1.4c0 1 .1 1.7.4 2.2s.7.7 1.3.7c.5 0 .9-.1 1.2-.4s.5-.7.5-1.3h1.6zm3-.7c0-.5.1-1 .2-1.5.2-.5.4-.9.7-1.2s.7-.6 1.1-.8q.6-.3 1.5-.3c.9 0 1.1.1 1.5.3s.8.5 1.1.8.5.7.7 1.2.2 1 .2 1.5v.1c0 .5-.1 1-.2 1.5-.2.5-.4.9-.7 1.2s-.7.6-1.1.8q-.6.3-1.5.3t-1.5-.3c-.4-.2-.8-.5-1.1-.8s-.5-.7-.7-1.2-.2-1-.2-1.5zm1.9.2c0 .3 0 .6.1.9s.2.5.3.7.3.4.5.5.5.2.7.2c.3 0 .5-.1.7-.2s.4-.3.5-.5.2-.4.3-.7.1-.6.1-.9v-.1c0-.3 0-.6-.1-.9s-.2-.5-.3-.7-.3-.4-.5-.5-.4-.2-.7-.2-.5.1-.7.2-.4.3-.5.5-.2.4-.3.7-.1.6-.1.9zm9.6-3.8.1.9c.1-.3.3-.6.6-.8.2-.2.6-.3.9-.3.6 0 1 .3 1.2.8q.15-.3.6-.6c.2-.1.5-.2.8-.2.2 0 .4 0 .6.1s.4.2.5.4.3.4.3.7c.1.3.1.6.1 1v5.3h-1.7v-5.6c0-.1-.1-.2-.1-.2 0-.1-.1-.1-.2-.1h-.2c-.1 0-.2 0-.3.1s-.2.1-.2.2v5.6h-1.7v-5.6c0-.1-.1-.2-.1-.2s-.1-.1-.2-.1h-.2c-.1 0-.3 0-.4.1s-.2.2-.2.3v5.5h-1.7v-7.4h1.5zm15.6 3.8c0 .5-.1 1-.2 1.5q-.15.75-.6 1.2c-.2.3-.5.6-.9.8q-.6.3-1.2.3c-.4 0-.7-.1-1-.2s-.6-.3-.8-.6v3.5h-1.9v-10.2h1.8l.1.7c.2-.3.5-.5.8-.6.3-.2.7-.2 1.1-.2q.75 0 1.2.3c.4.2.7.4.9.8q.3.45.6 1.2c.1.5.2 1 .2 1.5zm-1.9-.2c0-.3 0-.6-.1-.9s-.1-.5-.3-.7c-.1-.2-.3-.4-.5-.5s-.4-.2-.7-.2-.6.1-.8.2-.4.3-.5.5v3.1c.1.2.3.4.5.6.2.1.5.2.8.2s.5-.1.7-.2.3-.3.5-.5c.1-.2.2-.4.3-.7s.1-.6.1-.9m5.1 0c0-.5.1-1 .2-1.5.2-.5.4-.9.7-1.2s.7-.6 1.1-.8q.6-.3 1.5-.3c.9 0 1.1.1 1.5.3s.8.5 1.1.8.5.7.7 1.2.2 1 .2 1.5v.1c0 .5-.1 1-.2 1.5-.2.5-.4.9-.7 1.2s-.7.6-1.1.8q-.6.3-1.5.3t-1.5-.3c-.4-.2-.8-.5-1.1-.8s-.5-.7-.7-1.2-.2-1-.2-1.5zm1.9.2c0 .3 0 .6.1.9s.2.5.3.7.3.4.5.5.5.2.7.2c.3 0 .5-.1.7-.2s.4-.3.5-.5.2-.4.3-.7.1-.6.1-.9v-.1c0-.3 0-.6-.1-.9s-.2-.5-.3-.7-.3-.4-.5-.5-.4-.2-.7-.2-.5.1-.7.2-.4.3-.5.5-.2.4-.3.7-.1.6-.1.9zm10.1-3.8.1 1c.3-.4.6-.7 1-.9s.8-.3 1.3-.3c.4 0 .7.1 1 .2s.6.3.8.5.4.5.5.9.2.8.2 1.4v4.6h-1.9v-4.5c0-.3 0-.5-.1-.7s-.2-.3-.3-.5c-.1-.1-.3-.2-.4-.2-.2 0-.4-.1-.6-.1-.3 0-.6.1-.8.2s-.4.3-.6.5v5.3h-1.9v-7.4zm12 7.5c-.6 0-1.1-.1-1.6-.3s-.9-.4-1.2-.8c-.3-.3-.6-.7-.8-1.1s-.3-.9-.3-1.4v-.3q0-.9.3-1.5c.2-.5.4-.9.7-1.2s.7-.6 1.1-.8.9-.3 1.4-.3 1 .1 1.4.3.8.4 1.1.7.5.7.7 1.2c.1.4.2.9.2 1.5v.8h-5c0 .3.1.5.2.7s.3.4.4.5q.3.3.6.3c.2.1.5.1.7.1s.4 0 .6-.1c.2 0 .4-.1.5-.2.2-.1.3-.2.5-.3.1-.1.3-.2.4-.4l.9 1c-.1.2-.3.3-.5.5s-.4.3-.7.4-.5.2-.9.3c0 .4-.4.4-.7.4m-.2-6.1c-.2 0-.4 0-.6.1s-.3.2-.5.3c-.1.1-.2.3-.3.5s-.2.4-.2.7h3.1v-.2c0-.2 0-.4-.1-.6s-.2-.3-.3-.5c-.1-.1-.3-.2-.5-.3zm8.4-1.4.1 1c.3-.4.6-.7 1-.9s.8-.3 1.3-.3c.4 0 .7.1 1 .2s.6.3.8.5.4.5.5.9.2.8.2 1.4v4.6h-1.9v-4.5c0-.3 0-.5-.1-.7s-.2-.3-.3-.5c-.1-.1-.3-.2-.4-.2-.2 0-.4-.1-.6-.1-.3 0-.6.1-.8.2s-.4.3-.6.5v5.3h-1.9v-7.4zm11.9-1.8v1.8h2.8v1.4h-2.8v3.2c0 .3 0 .5.1.7s.2.3.3.4.3.2.4.2c.2 0 .3.1.5.1h.8c.1 0 .3 0 .4-.1.1 0 .2 0 .3-.1l.2 1.3c-.1.1-.3.1-.5.2s-.4.1-.6.1-.4.1-.6.1h-.6c-.4 0-.8-.1-1.1-.2s-.6-.3-.8-.5-.4-.5-.5-.9-.2-.8-.2-1.3V873h-1.7v-1.4h1.7v-1.8z"/><path d="M233.5 862c6.9 0 12.5 5.6 12.5 12.5s-5.6 12.5-12.5 12.5-12.5-5.6-12.5-12.5 5.6-12.5 12.5-12.5" class="st2"/><path d="M258.9 875.3v3.7H257v-10h3.4c.5 0 1 .1 1.5.2.4.2.8.4 1.1.7s.5.6.7 1 .3.8.3 1.3c0 .4-.1.9-.3 1.2-.2.4-.4.7-.7 1s-.7.5-1.1.6c-.4.2-.9.2-1.5.2h-1.5zm0-1.5h1.5c.3 0 .5 0 .7-.1s.4-.2.5-.3.2-.3.3-.5.1-.4.1-.6 0-.4-.1-.7c-.1-.2-.2-.4-.3-.5-.1-.2-.3-.3-.5-.4s-.4-.1-.7-.1h-1.5zm7.9 1.4c0-.5.1-1 .2-1.5.2-.5.4-.9.7-1.2s.7-.6 1.1-.8q.6-.3 1.5-.3c.9 0 1.1.1 1.5.3s.8.5 1.1.8.5.7.7 1.2.2 1 .2 1.5v.1c0 .5-.1 1-.2 1.5-.2.5-.4.9-.7 1.2s-.7.6-1.1.8q-.6.3-1.5.3t-1.5-.3c-.4-.2-.8-.5-1.1-.8s-.5-.7-.7-1.2-.2-1-.2-1.5zm1.9.2c0 .3 0 .6.1.9s.2.5.3.7.3.4.5.5.5.2.7.2c.3 0 .5-.1.7-.2s.4-.3.5-.5.2-.4.3-.7.1-.6.1-.9v-.1c0-.3 0-.6-.1-.9s-.2-.5-.3-.7-.3-.4-.5-.5-.4-.2-.7-.2-.5.1-.7.2-.4.3-.5.5-.2.4-.3.7-.1.6-.1.9zm13.2 1.3.6-5.1h1.7l-1.3 7.4h-1.7l-1-4.7-.9 4.7h-1.7l-1.3-7.4h1.7l.6 5.1.9-5.1h1.3zm8.9 2.4c-.6 0-1.1-.1-1.6-.3s-.9-.4-1.2-.8c-.3-.3-.6-.7-.8-1.1s-.3-.9-.3-1.4v-.3q0-.9.3-1.5c.2-.5.4-.9.7-1.2s.7-.6 1.1-.8.9-.3 1.4-.3 1 .1 1.4.3.8.4 1.1.7.5.7.7 1.2c.1.4.2.9.2 1.5v.8h-5c0 .3.1.5.2.7s.3.4.4.5q.3.3.6.3c.2.1.5.1.7.1s.4 0 .6-.1c.2 0 .4-.1.5-.2.2-.1.3-.2.5-.3.1-.1.3-.2.4-.4l1 1c-.1.2-.3.3-.5.5s-.4.3-.7.4-.5.2-.9.3c-.1.4-.4.4-.8.4m-.2-6.1c-.2 0-.4 0-.6.1s-.3.2-.5.3c-.1.1-.2.3-.3.5s-.2.4-.2.7h3.1v-.2c0-.2 0-.4-.1-.6s-.2-.3-.3-.5c-.1-.1-.3-.2-.5-.3zm12-1.5c.3 0 .6 0 .8.1.2 0 .4.1.6.1l-.3 1.9c-.3-.1-.5-.1-.8-.1h-.7c-.5 0-1 .1-1.3.3s-.6.5-.7.9v4.4h-1.9v-7.4h1.8l.1 1.2c.3-.4.7-.7 1.1-1s.8-.4 1.3-.4m15.2-2.5h5.8v1.6h-1.9v6.9h1.9v1.5h-5.8v-1.5h1.9v-6.9h-1.9zm12.1 10.9h-1.8l3.7-10.8h1.8zm14.6-5.1q0 .9-.3 1.8c-.2.5-.4 1-.7 1.4q-.45.6-1.2.9t-1.5.3c-.75 0-1.1-.1-1.5-.3s-.8-.5-1.1-.9-.5-.9-.7-1.4-.2-1.1-.2-1.8v-1.4c0-.6.1-1.2.2-1.8.2-.5.4-1 .7-1.4s.7-.7 1.1-.9 1-.3 1.5-.3c.6 0 1.1.1 1.6.3q.75.3 1.2.9c.3.4.6.9.7 1.4q.3.75.3 1.8v1.4zm-1.9-1.5c0-.4 0-.8-.1-1.1l-.3-.9c-.1-.2-.3-.4-.5-.6-.2-.1-.5-.2-.8-.2s-.6.1-.8.2-.4.3-.5.6q-.15.3-.3.9c-.1.3-.1.7-.1 1.1v1.5c0 .4 0 .8.1 1.1s.1.6.3.9c.1.2.3.4.5.6.2.1.5.2.8.2s.6-.1.8-.2.4-.3.5-.6.2-.5.3-.9c.1-.3.1-.7.1-1.1z"/><path d="M233.5 897c6.9 0 12.5 5.6 12.5 12.5s-5.6 12.5-12.5 12.5-12.5-5.6-12.5-12.5 5.6-12.5 12.5-12.5" class="st4"/><path d="m259.3 904 .9 3.7 1.1-3.7h2.4v10h-1.8v-2.9l.1-4.7-1.3 4.3h-1l-1.2-4.1.1 4.5v2.9h-1.8v-10zm12.4 10c0-.1-.1-.2-.1-.3s-.1-.2-.1-.4c-.1.1-.2.2-.4.3-.1.1-.3.2-.5.3s-.3.1-.5.2c-.2 0-.4.1-.6.1-.4 0-.7-.1-1-.2s-.6-.3-.8-.5-.4-.4-.5-.7-.2-.6-.2-.9q0-1.2.9-1.8c.6-.4 1.5-.6 2.6-.6h1.1v-.5c0-.4-.1-.6-.3-.8s-.6-.3-1-.3-.7.1-.8.3c-.2.2-.3.4-.3.7H267c0-.3.1-.6.2-.9s.3-.5.6-.7.6-.4 1-.5.8-.2 1.3-.2c.4 0 .9.1 1.2.2.4.1.7.3 1 .5s.5.5.7.8.2.7.2 1.1v3.2c0 .4 0 .7.1 1s.1.5.2.7v.1h-1.8zm-1.8-1.3c.2 0 .4 0 .5-.1.2 0 .3-.1.4-.2s.2-.2.3-.2c.1-.1.2-.2.2-.3v-1.3h-1c-.3 0-.5 0-.8.1-.2.1-.4.1-.5.2s-.2.2-.3.4c-.1.1-.1.3-.1.5q0 .45.3.6c.3.2.6.3 1 .3m10.6-3.8 1.6-2.3h2l-2.5 3.6 2.6 3.8h-2.1l-1.7-2.4-1.7 2.4h-2.1l2.6-3.8-2.5-3.6h2zm23.7 2c0 .5-.1 1-.3 1.4s-.4.7-.7 1-.7.5-1.1.7c-.4.1-.9.2-1.4.2-.6 0-1.1-.1-1.6-.3s-.8-.5-1.1-.9-.5-.9-.7-1.4-.2-1.1-.2-1.8v-1.3q0-1.05.3-1.8c.2-.5.4-1 .7-1.4q.45-.6 1.2-.9t1.5-.3c.5 0 1 .1 1.5.2.4.2.8.4 1.1.7s.5.6.7 1.1c.2.4.3.9.3 1.4h-1.9c0-.3-.1-.6-.1-.8l-.3-.6c-.1-.1-.3-.3-.5-.3-.2-.1-.4-.1-.7-.1s-.6.1-.8.2-.4.3-.5.6q-.15.3-.3.9c-.1.4-.1.8-.1 1.2v1.4c0 1 .1 1.7.4 2.2s.7.7 1.3.7c.5 0 .9-.1 1.2-.4s.5-.7.5-1.3h1.6zm7.9 2.1q-.45.6-.9.9c-.4.2-.7.3-1.2.3-.4 0-.7-.1-1.1-.2-.3-.1-.6-.3-.8-.6s-.4-.6-.5-1-.2-.9-.2-1.4v-4.4h1.9v4.4c0 .3 0 .6.1.8 0 .2.1.4.2.5s.2.2.4.3.3.1.6.1c.4 0 .7-.1.9-.2s.4-.3.5-.6v-5.2h1.9v7.4h-1.7zm10.7-6.5c.3 0 .6 0 .8.1.2 0 .4.1.6.1l-.3 1.9c-.3-.1-.5-.1-.8-.1h-.7c-.5 0-1 .1-1.3.3s-.6.5-.7.9v4.4h-1.9v-7.4h1.8l.1 1.2c.3-.4.7-.7 1.1-1s.8-.4 1.3-.4m10.1 0c.3 0 .6 0 .8.1.2 0 .4.1.6.1l-.3 1.9c-.2-.1-.5-.1-.8-.1h-.7c-.5 0-1 .1-1.3.3s-.6.5-.7.9v4.4h-1.9v-7.4h1.8l.1 1.2c.3-.4.7-.7 1.1-1 .3-.3.8-.4 1.3-.4m8.4 7.6c-.6 0-1.1-.1-1.6-.3s-.9-.4-1.2-.8c-.3-.3-.6-.7-.8-1.1s-.3-.9-.3-1.4v-.3q0-.9.3-1.5c.2-.5.4-.9.7-1.2s.7-.6 1.1-.8.9-.3 1.4-.3 1 .1 1.4.3.8.4 1.1.7.5.7.7 1.2c.1.4.2.9.2 1.5v.8h-5c0 .3.1.5.2.7s.3.4.4.5q.3.3.6.3c.2.1.5.1.7.1s.4 0 .6-.1c.2 0 .4-.1.5-.2.2-.1.3-.2.5-.3.1-.1.3-.2.4-.4l.9 1c-.1.2-.3.3-.5.5s-.4.3-.7.4-.5.2-.9.3c0 .4-.4.4-.7.4m-.3-6.1c-.2 0-.4 0-.6.1s-.3.2-.5.3c-.1.1-.2.3-.3.5s-.2.4-.2.7h3.1v-.2c0-.2 0-.4-.1-.6s-.2-.3-.3-.5c-.1-.1-.3-.2-.5-.3zm8.5-1.4.1 1c.3-.4.6-.7 1-.9s.8-.3 1.3-.3c.4 0 .7.1 1 .2s.6.3.8.5.4.5.5.9.2.8.2 1.4v4.6h-1.9v-4.5c0-.3 0-.5-.1-.7s-.2-.3-.3-.5c-.1-.1-.3-.2-.4-.2-.2 0-.4-.1-.6-.1-.3 0-.6.1-.8.2s-.4.3-.6.5v5.3h-1.9v-7.4zm11.8-1.8v1.8h2.8v1.4h-2.8v3.2c0 .3 0 .5.1.7s.2.3.3.4.2.2.4.2.3.1.5.1h.8c.1 0 .3 0 .4-.1.1 0 .2 0 .3-.1l.2 1.3c-.1.1-.3.1-.5.2s-.4.1-.6.1-.4.1-.6.1h-.6c-.4 0-.8-.1-1.1-.2s-.6-.3-.8-.5-.4-.5-.5-.9-.2-.8-.2-1.3V908h-1.7v-1.4h1.7v-1.8z"/><path d="M428.5 862c6.9 0 12.5 5.6 12.5 12.5s-5.6 12.5-12.5 12.5-12.5-5.6-12.5-12.5 5.6-12.5 12.5-12.5" class="st5"/><path d="M458.8 875.9c0 .5-.1 1-.3 1.4s-.4.7-.7 1-.7.5-1.1.7c-.4.1-.9.2-1.4.2-.6 0-1.1-.1-1.6-.3s-.8-.5-1.1-.9-.5-.9-.7-1.4-.2-1.1-.2-1.8v-1.3q0-1.05.3-1.8c.2-.5.4-1 .7-1.4q.45-.6 1.2-.9t1.5-.3c.5 0 1 .1 1.5.2.4.2.8.4 1.1.7s.5.6.7 1.1c.2.4.3.9.3 1.4h-1.9c0-.3-.1-.6-.1-.8l-.3-.6c-.1-.1-.3-.3-.5-.3-.2-.1-.4-.1-.7-.1s-.6.1-.8.2-.4.3-.5.6q-.15.3-.3.9c-.1.4-.1.8-.1 1.2v1.4c0 1 .1 1.7.4 2.2s.7.7 1.3.7c.5 0 .9-.1 1.2-.4s.5-.7.5-1.3h1.6zm3-.7c0-.5.1-1 .2-1.5.2-.5.4-.9.7-1.2s.7-.6 1.1-.8q.6-.3 1.5-.3c.9 0 1.1.1 1.5.3s.8.5 1.1.8.5.7.7 1.2.2 1 .2 1.5v.1c0 .5-.1 1-.2 1.5-.2.5-.4.9-.7 1.2s-.7.6-1.1.8q-.6.3-1.5.3t-1.5-.3c-.4-.2-.8-.5-1.1-.8s-.5-.7-.7-1.2-.2-1-.2-1.5zm1.9.2c0 .3 0 .6.1.9s.2.5.3.7.3.4.5.5.5.2.7.2c.3 0 .5-.1.7-.2s.4-.3.5-.5.2-.4.3-.7.1-.6.1-.9v-.1c0-.3 0-.6-.1-.9s-.2-.5-.3-.7-.3-.4-.5-.5-.4-.2-.7-.2-.5.1-.7.2-.4.3-.5.5-.2.4-.3.7-.1.6-.1.9zm10.2-3.8.1 1c.3-.4.6-.7 1-.9s.8-.3 1.3-.3c.4 0 .7.1 1 .2s.6.3.8.5.4.5.5.9.2.8.2 1.4v4.6h-1.9v-4.5c0-.3 0-.5-.1-.7s-.2-.3-.3-.5c-.1-.1-.3-.2-.4-.2-.2 0-.4-.1-.6-.1-.3 0-.6.1-.8.2s-.4.3-.6.5v5.3h-1.9v-7.4zm11.5 5.2.1.5.1-.5 1.6-5.2h2l-2.8 7.4h-1.8l-2.8-7.4h2zm10.5 2.3c-.6 0-1.1-.1-1.6-.3s-.9-.4-1.2-.8c-.3-.3-.6-.7-.8-1.1s-.3-.9-.3-1.4v-.3q0-.9.3-1.5c.2-.5.4-.9.7-1.2s.7-.6 1.1-.8.9-.3 1.4-.3 1 .1 1.4.3.8.4 1.1.7.5.7.7 1.2c.2.4.2.9.2 1.5v.8h-5c0 .3.1.5.2.7s.3.4.4.5q.3.3.6.3c.2.1.5.1.7.1s.4 0 .6-.1c.2 0 .4-.1.5-.2.2-.1.3-.2.5-.3.1-.1.3-.2.4-.4l.9 1c-.1.2-.3.3-.5.5s-.4.3-.7.4-.5.2-.9.3c0 .4-.3.4-.7.4m-.2-6.1c-.2 0-.4 0-.6.1s-.3.2-.5.3c-.1.1-.2.3-.3.5s-.2.4-.2.7h3.1v-.2c0-.2 0-.4-.1-.6s-.2-.3-.3-.5c-.1-.1-.3-.2-.5-.3zm12-1.5c.3 0 .6 0 .8.1.2 0 .4.1.6.1l-.3 1.9c-.3-.1-.5-.1-.8-.1h-.7c-.5 0-1 .1-1.3.3s-.6.5-.7.9v4.4h-1.9v-7.4h1.8l.1 1.2c.3-.4.7-.7 1.1-1s.8-.4 1.3-.4m9.6 5.5c0-.1 0-.2-.1-.3s-.1-.2-.3-.2c-.1-.1-.3-.1-.5-.2s-.5-.1-.8-.2l-1.2-.3c-.4-.1-.7-.3-.9-.5q-.45-.3-.6-.6c-.1-.2-.2-.5-.2-.8s.1-.6.2-.9.4-.5.6-.7c.3-.2.6-.4 1-.5s.8-.2 1.3-.2 1 .1 1.4.2.8.3 1 .5c.3.2.5.5.7.8s.2.6.2 1h-1.9c0-.3-.1-.5-.3-.7s-.6-.3-1.1-.3c-.4 0-.8.1-1 .2q-.3.3-.3.6c0 .1 0 .2.1.3 0 .1.1.2.2.3s.3.1.5.2.5.1.8.2c.4.1.9.2 1.2.3.4.1.7.3 1 .4.3.2.5.4.6.7.2.3.2.6.2.9s-.1.6-.2.9c-.2.3-.4.5-.7.7s-.6.4-1 .5-.9.2-1.4.2c-.6 0-1-.1-1.5-.2-.4-.1-.8-.3-1.1-.6-.3-.2-.5-.5-.7-.8-.1-.3-.2-.6-.2-.9h1.8c0 .2.1.4.2.5s.2.3.4.3c.1.1.3.2.5.2s.4.1.6.1c.5 0 .8-.1 1.1-.2.2-.5.4-.7.4-.9m5.8-5.4h4v5.9h2v1.5h-6v-1.5h2.1v-4.3h-2.1zm2-1.9c0-.1 0-.3.1-.4s.1-.2.2-.3.2-.2.3-.2.3-.1.5-.1c.3 0 .6.1.8.3s.3.4.3.7-.1.5-.3.7-.5.3-.8.3c-.2 0-.3 0-.5-.1-.1 0-.2-.1-.3-.2s-.2-.2-.2-.3c-.1-.1-.1-.2-.1-.4m7.3 5.5c0-.5.1-1 .2-1.5.2-.5.4-.9.7-1.2s.7-.6 1.1-.8q.6-.3 1.5-.3t1.5.3c.4.2.8.5 1.1.8s.5.7.7 1.2.2 1 .2 1.5v.1c0 .5-.1 1-.2 1.5-.2.5-.4.9-.7 1.2s-.7.6-1.1.8q-.6.3-1.5.3t-1.5-.3c-.4-.2-.8-.5-1.1-.8s-.5-.7-.7-1.2-.2-1-.2-1.5zm1.9.2c0 .3 0 .6.1.9s.2.5.3.7.3.4.5.5.5.2.7.2c.3 0 .5-.1.7-.2s.4-.3.5-.5.2-.4.3-.7.1-.6.1-.9v-.1c0-.3 0-.6-.1-.9s-.2-.5-.3-.7-.3-.4-.5-.5-.4-.2-.7-.2-.5.1-.7.2-.4.3-.5.5-.2.4-.3.7-.1.6-.1.9zm10.2-3.8.1 1c.3-.4.6-.7 1-.9s.8-.3 1.3-.3c.4 0 .7.1 1 .2s.6.3.8.5.4.5.5.9.2.8.2 1.4v4.6h-1.9v-4.5c0-.3 0-.5-.1-.7s-.2-.3-.3-.5c-.1-.1-.3-.2-.4-.2-.2 0-.4-.1-.6-.1-.3 0-.6.1-.8.2s-.4.3-.6.5v5.3h-1.9v-7.4zm25.7-1h-3.1v8.4h-1.9v-8.4h-3V869h8zm6 5.3.2.8 2-5.1h2.1l-3.8 8.5-.3.6c-.1.2-.3.4-.5.6s-.4.3-.7.5c-.3.1-.6.2-1 .2h-.7c-.1 0-.1 0-.2-.1l.2-1.5h.6c.2 0 .3 0 .4-.1l.3-.3c.1-.1.1-.2.2-.3 0-.1.1-.1.1-.1l.5-.9-3.1-7.1h2.1zm13.6-.5c0 .5-.1 1-.2 1.5q-.15.75-.6 1.2c-.2.3-.5.6-.9.8q-.6.3-1.2.3c-.4 0-.7-.1-1-.2s-.6-.3-.8-.6v3.5h-1.9v-10.2h1.8l.1.7c.2-.3.5-.5.8-.6.3-.2.7-.2 1.1-.2q.75 0 1.2.3c.4.2.7.4.9.8q.3.45.6 1.2c.1.5.2 1 .2 1.5zm-1.9-.2c0-.3 0-.6-.1-.9s-.1-.5-.3-.7c-.1-.2-.3-.4-.5-.5s-.4-.2-.7-.2-.6.1-.8.2-.4.3-.5.5v3.1c.1.2.3.4.5.6.2.1.5.2.8.2s.5-.1.7-.2.3-.3.5-.5c.1-.2.2-.4.3-.7s.1-.6.1-.9m8.9 3.9c-.6 0-1.1-.1-1.6-.3s-.9-.4-1.2-.8c-.3-.3-.6-.7-.8-1.1s-.3-.9-.3-1.4v-.3q0-.9.3-1.5c.2-.5.4-.9.7-1.2s.7-.6 1.1-.8.9-.3 1.4-.3 1 .1 1.4.3.8.4 1.1.7.5.7.7 1.2c.2.4.2.9.2 1.5v.8h-5c0 .3.1.5.2.7s.3.4.4.5q.3.3.6.3c.2.1.5.1.7.1s.4 0 .6-.1c.2 0 .4-.1.5-.2.2-.1.3-.2.5-.3.1-.1.3-.2.4-.4l1 1c-.1.2-.3.3-.5.5s-.4.3-.7.4-.5.2-.9.3c-.1.4-.4.4-.8.4m-.2-6.1c-.2 0-.4 0-.6.1s-.3.2-.5.3c-.1.1-.2.3-.3.5s-.2.4-.2.7h3.1v-.2c0-.2 0-.4-.1-.6s-.2-.3-.3-.5c-.1-.1-.3-.2-.5-.3z"/><path d="M428.5 897c6.9 0 12.5 5.6 12.5 12.5s-5.6 12.5-12.5 12.5-12.5-5.6-12.5-12.5 5.6-12.5 12.5-12.5" style="fill:#1da086"/><path d="M454.2 914h2l3-10h-2.1l-1.7 6.5-.2.7-.2-.7-1.7-6.5h-2.1zm7.6-3.8v.1c0 .5.1 1 .2 1.5.2.5.4.9.7 1.2s.7.6 1.1.8q.6.3 1.5.3c.6 0 1-.1 1.5-.3.4-.2.8-.5 1.1-.8s.5-.7.7-1.2.2-1 .2-1.5v-.1c0-.5-.1-1-.2-1.5-.2-.5-.4-.9-.7-1.2s-.7-.6-1.1-.8q-.6-.3-1.5-.3c-.9 0-1.1.1-1.5.3s-.8.5-1.1.8-.5.7-.7 1.2c-.1.5-.2 1-.2 1.5m1.9.2v-.1c0-.3 0-.6.1-.9s.2-.5.3-.7.3-.4.5-.5.4-.2.7-.2.5.1.7.2.4.3.5.5.2.4.3.7.1.6.1.9v.1c0 .3 0 .6-.1.9s-.2.5-.3.7-.3.4-.5.5-.4.2-.7.2-.5-.1-.7-.2-.4-.3-.5-.5-.2-.4-.3-.7-.1-.6-.1-.9m8.8-6.9v1.6h2.2v7.4h-2.2v1.5h6.3v-1.5h-2.1v-9zm13.2 1.3h-1.9v1.8h-1.7v1.4h1.7v3.4c0 .5.1.9.2 1.3.1.3.3.6.5.9.2.2.5.4.8.5s.7.2 1.1.2h.6c.2 0 .4 0 .6-.1.2 0 .4-.1.6-.1.2-.1.3-.1.5-.2l-.2-1.3c-.1 0-.2 0-.3.1-.1 0-.2 0-.4.1-.1 0-.3 0-.4.1h-.4c-.2 0-.4 0-.5-.1-.2 0-.3-.1-.4-.2s-.2-.2-.3-.4-.1-.4-.1-.7V908h2.8v-1.4h-2.8zm11.2 9.2h1.9v-.1c-.1-.2-.2-.4-.2-.7-.1-.3-.1-.6-.1-1V909c0-.4-.1-.8-.2-1.1-.2-.3-.4-.6-.7-.8s-.6-.4-1-.5-.8-.2-1.2-.2c-.5 0-.9.1-1.3.2s-.7.3-1 .5-.5.5-.6.7c-.1.3-.2.6-.2.9h1.9c0-.1 0-.3.1-.4 0-.1.1-.2.2-.3s.2-.2.4-.2c.1 0 .3-.1.5-.1s.4 0 .6.1.3.1.4.2.2.2.2.4c.1.1.1.3.1.5v.4h-1.1c-.5 0-1 .1-1.5.2-.4.1-.8.2-1.1.4s-.6.5-.7.8c-.2.3-.2.7-.2 1.1 0 .3.1.6.2.9s.3.5.5.7.5.3.8.5c.3.1.7.2 1 .2.2 0 .4 0 .6-.1.2 0 .4-.1.6-.2s.3-.2.5-.3c.1-.1.3-.2.4-.3 0 .1.1.3.1.4.1.2.1.3.1.4m-1.8-1.3c-.2 0-.3 0-.5-.1-.1 0-.2-.1-.3-.2s-.2-.2-.2-.3-.1-.2-.1-.4 0-.3.1-.5c.1-.1.2-.3.3-.4s.3-.2.5-.2c.2-.1.5-.1.8-.1h1v1.3c-.1.1-.1.2-.2.3s-.2.2-.3.2c-.1.1-.3.1-.4.2-.3.1-.5.2-.7.2m7.1-2.5v.1c0 .5.1 1 .2 1.5s.3.8.6 1.2c.3.3.6.6.9.8q.6.3 1.2.3c.2 0 .4 0 .6-.1s.4-.1.6-.2c.1-.1.2-.1.3-.2l.3-.3v.4c0 .3 0 .5-.1.7s-.2.4-.3.5c-.1.2-.3.3-.5.3-.2.1-.5.1-.7.1s-.3 0-.5-.1c-.2 0-.3-.1-.5-.2s-.3-.2-.4-.3-.3-.2-.4-.4l-.9 1.2c.2.2.4.4.6.5.2.2.5.3.7.4s.5.2.8.2.5.1.7.1c.5 0 1-.1 1.4-.2s.8-.3 1.1-.6.5-.6.7-1 .3-.8.3-1.3v-7.2h-1.7l-.1.7-.3-.3c-.1-.1-.2-.2-.4-.2-.2-.1-.4-.2-.6-.2s-.4-.1-.7-.1c-.5 0-.9.1-1.3.3s-.7.4-.9.8q-.45.45-.6 1.2c0 .6-.1 1.1-.1 1.6m1.9.2v-.1c0-.3 0-.6.1-.9s.2-.5.3-.7.3-.4.5-.5.4-.2.7-.2h.4c.1 0 .2.1.3.1.1.1.2.1.3.2s.2.2.2.3v3.1c-.1.1-.1.2-.2.3s-.2.2-.3.2c-.1.1-.2.1-.4.1h-.4c-.3 0-.5-.1-.7-.2s-.4-.3-.5-.5-.2-.4-.3-.7zm12 3.7c.7 0 1.3-.1 1.9-.4.5-.3.9-.6 1.1-.9l-1-1q-.3.45-.9.6c-.4.1-.7.2-1.1.2-.3 0-.5 0-.7-.1l-.6-.3c-.2-.1-.3-.3-.4-.5s-.2-.4-.2-.7h5v-.8c0-.5-.1-1-.2-1.5-.2-.5-.4-.8-.7-1.2-.3-.3-.6-.6-1.1-.7-.4-.2-.9-.3-1.4-.3s-1 .1-1.4.3-.8.4-1.1.8c-.3.3-.6.7-.7 1.2q-.3.75-.3 1.5v.3c0 .5.1 1 .3 1.4s.4.8.8 1.1c.3.3.7.6 1.2.8.4.1.9.2 1.5.2m-.2-6.1c.2 0 .5 0 .6.1.2.1.3.2.5.3.1.1.2.3.3.5s.1.4.1.6v.2h-3.1c0-.2.1-.5.2-.7s.2-.4.3-.5.3-.2.5-.3c.1-.2.3-.2.6-.2m20.1 2.3 1.9 3.7h2.1v-.1l-2.1-4.1c.3-.1.5-.3.7-.4l.6-.6c.2-.2.3-.5.4-.8s.1-.6.1-1c0-.5-.1-.9-.3-1.3s-.4-.7-.7-.9-.7-.4-1.1-.6c-.4-.1-.9-.2-1.5-.2h-3.3v10h1.9v-3.7zm-1.5-1.6v-3.1h1.4c.3 0 .5 0 .7.1s.4.2.5.3c.2.1.3.3.4.5s.1.4.1.7c0 .2 0 .4-.1.6s-.1.3-.3.5c-.1.2-.3.3-.6.4-.2.1-.5.1-.8.1h-1.3zm12.9 5.3h1.9v-.1c-.1-.2-.2-.4-.2-.7s-.1-.6-.1-1V909c0-.4-.1-.8-.2-1.1-.2-.3-.4-.6-.7-.8s-.6-.4-1-.5-.8-.2-1.2-.2c-.5 0-.9.1-1.3.2s-.7.3-1 .5-.5.5-.6.7c-.1.3-.2.6-.2.9h1.9c0-.1 0-.3.1-.4 0-.1.1-.2.2-.3s.2-.2.4-.2c.1 0 .3-.1.5-.1s.4 0 .6.1.3.1.4.2.2.2.2.4c.1.1.1.3.1.5v.4h-1.1c-.5 0-1 .1-1.5.2-.4.1-.8.2-1.1.4s-.6.5-.7.8c-.2.3-.2.7-.2 1.1 0 .3.1.6.2.9s.3.5.5.7.5.3.8.5c.3.1.7.2 1 .2.2 0 .4 0 .6-.1.2 0 .4-.1.6-.2s.3-.2.5-.3c.1-.1.3-.2.4-.3 0 .1 0 .3.1.4 0 .2 0 .3.1.4m-1.8-1.3c-.2 0-.3 0-.5-.1-.1 0-.2-.1-.3-.2s-.2-.2-.2-.3-.1-.2-.1-.4 0-.3.1-.5c.1-.1.2-.3.3-.4s.3-.2.5-.2c.2-.1.5-.1.8-.1h1v1.3c-.1.1-.1.2-.2.3s-.2.2-.3.2c-.1.1-.3.1-.4.2-.4.1-.5.2-.7.2m7.2 1.3h1.9v-5.3c.1-.1.1-.2.2-.3s.2-.2.3-.2c.1-.1.3-.1.4-.2.2 0 .3-.1.5-.1s.4 0 .6.1c.2 0 .3.1.4.2s.2.3.3.5.1.4.1.7v4.5h1.9v-4.6c0-.5-.1-1-.2-1.4s-.3-.7-.5-.9-.5-.4-.8-.5-.7-.2-1-.2-.6 0-.8.1c-.3.1-.5.2-.7.4-.1.1-.2.2-.4.3-.1.1-.2.2-.3.4l-.1-1h-1.7v7.5zm9.9-3.8v.1c0 .5.1 1 .2 1.5s.3.8.6 1.2c.3.3.6.6.9.8q.6.3 1.2.3c.2 0 .4 0 .6-.1s.4-.1.6-.2c.1-.1.2-.1.3-.2l.3-.3v.4c0 .3 0 .5-.1.7s-.2.4-.3.5c-.1.2-.3.3-.5.3-.2.1-.5.1-.7.1s-.3 0-.5-.1c-.2 0-.3-.1-.5-.2s-.3-.2-.4-.3-.3-.2-.4-.4l-.9 1.2c.2.2.4.4.6.5.2.2.5.3.7.4.3.1.5.2.8.2s.5.1.7.1c.5 0 1-.1 1.4-.2s.8-.3 1.1-.6.5-.6.7-1 .3-.8.3-1.3v-7.2h-1.7l-.1.7-.3-.3c-.1-.1-.2-.2-.4-.2-.2-.1-.4-.2-.6-.2s-.4-.1-.7-.1c-.5 0-.9.1-1.3.3s-.7.4-.9.8q-.45.45-.6 1.2c0 .6-.1 1.1-.1 1.6m2 .2v-.1c0-.3 0-.6.1-.9s.2-.5.3-.7.3-.4.5-.5.4-.2.7-.2h.4c.1 0 .2.1.3.1.1.1.2.1.3.2s.2.2.2.3v3.1c-.1.1-.1.2-.2.3s-.2.2-.3.2c-.1.1-.2.1-.4.1h-.4c-.3 0-.5-.1-.7-.2s-.4-.3-.5-.5-.2-.4-.3-.7zm11.9 3.7c.7 0 1.3-.1 1.9-.4.5-.3.9-.6 1.1-.9l-1-1q-.3.45-.9.6c-.4.1-.7.2-1.1.2-.3 0-.5 0-.7-.1l-.6-.3c-.2-.1-.3-.3-.4-.5s-.2-.4-.2-.7h5v-.8c0-.5-.1-1-.2-1.5-.2-.5-.4-.8-.7-1.2-.3-.3-.6-.6-1.1-.7-.4-.2-.9-.3-1.4-.3s-1 .1-1.4.3-.8.4-1.1.8c-.3.3-.6.7-.7 1.2q-.3.75-.3 1.5v.3c0 .5.1 1 .3 1.4s.4.8.8 1.1c.3.3.7.6 1.2.8.4.1.9.2 1.5.2m-.2-6.1c.2 0 .5 0 .6.1.2.1.3.2.5.3.1.1.2.3.3.5s.1.4.1.6v.2h-3.1c0-.2.1-.5.2-.7s.2-.4.3-.5.3-.2.5-.3c.2-.2.4-.2.6-.2"/><path d="M49 325.5c0-20.7 16.8-37.5 37.5-37.5s37.5 16.8 37.5 37.5S107.2 363 86.5 363 49 346.2 49 325.5" class="st2"/><path d="M68.2 327.9c0-.2 0-.3-.1-.5s-.2-.3-.3-.4-.3-.3-.6-.4q-.3-.15-.9-.3c-.4-.1-.8-.3-1.2-.4-.4-.2-.7-.4-1-.6-.3-.3-.5-.5-.7-.9-.2-.3-.3-.7-.3-1.1s.1-.8.3-1.1.4-.6.7-.9c.3-.2.7-.4 1.1-.6.4-.1.9-.2 1.4-.2s1 .1 1.4.2c.4.2.8.4 1.1.6.3.3.6.6.7 1q.3.6.3 1.2h-1.9c0-.2-.1-.4-.1-.6-.1-.2-.2-.3-.3-.5-.1-.1-.3-.2-.5-.3s-.4-.1-.7-.1-.5 0-.7.1-.4.1-.5.3c-.1.1-.2.2-.3.4s-.1.3-.1.5 0 .4.1.5c.1.2.2.3.4.4l.6.3c.3.1.5.2.9.3.5.1.9.3 1.3.5s.7.4 1 .7q.45.45.6.9c.2.3.2.7.2 1.1q0 .6-.3 1.2c-.2.3-.4.6-.7.9-.3.2-.7.4-1.1.5s-.9.2-1.4.2c-.3 0-.6 0-.9-.1s-.6-.1-.9-.3c-.3-.1-.5-.3-.8-.4-.2-.2-.5-.4-.6-.6-.2-.2-.3-.5-.4-.8s-.2-.6-.2-1h1.9c0 .3.1.6.2.8s.2.4.4.5l.6.3c.2.1.5.1.8.1s.5 0 .7-.1.4-.1.5-.2.2-.2.3-.4c-.1-.4 0-.5 0-.7m11.8-1.6q0 .9-.3 1.8c-.2.5-.4 1-.7 1.4q-.45.6-1.2.9t-1.5.3q-.9 0-1.5-.3c-.4-.2-.8-.5-1.1-.9s-.5-.9-.7-1.4-.2-1.1-.2-1.8v-1.4c0-.6.1-1.2.2-1.8s.4-1 .7-1.4.7-.7 1.1-.9 1-.3 1.5-.3c.6 0 1.1.1 1.6.3s.8.5 1.2.9c.3.4.6.9.7 1.4s.3 1.1.3 1.8v1.4zm-1.9-1.5c0-.4 0-.8-.1-1.1l-.3-.9c-.1-.2-.3-.4-.5-.6-.2-.1-.5-.2-.8-.2s-.6.1-.8.2-.4.3-.5.6q-.15.3-.3.9c-.1.3-.1.7-.1 1.1v1.5c0 .4 0 .8.1 1.1s.1.6.3.9c.1.2.3.4.5.6.2.1.5.2.8.2s.6-.1.8-.2.4-.3.5-.6.2-.5.3-.9c.1-.3.1-.7.1-1.1zm7.1 4.1h4.7v1.6h-6.6v-10h1.9zm13-.5h-3l-.6 2.1h-2l3.3-10h1.7l3.2 10h-2zm-2.5-1.6h2.1l-1-3.7zm11 0h-1.5v3.7h-1.9v-10h3.3c.6 0 1 .1 1.5.2.4.1.8.3 1.1.6s.6.6.7.9c.2.4.3.8.3 1.3 0 .4 0 .7-.1 1s-.2.5-.4.8c-.2.2-.3.4-.6.6-.2.2-.5.3-.7.4l2.1 4.1v.1h-2.1zm-1.4-1.6h1.4c.5 0 1-.1 1.3-.4s.4-.7.4-1.1c0-.5-.1-.9-.4-1.2s-.7-.4-1.3-.4h-1.4z" class="st0"/><path d="M219.5 452h81c2.8 0 5 2.2 5 5v26c0 2.8-2.2 5-5 5h-81c-2.8 0-5-2.2-5-5v-26c0-2.8 2.2-5 5-5" class="st2"/><path d="m234.8 472.2 1.9-7.2h2.1l-3 10h-2l-3-10h2.1zm16.8 2.8v-10h3.3c.5 0 1 .1 1.5.2.4.1.8.3 1.1.5s.6.5.7.8q.3.45.3 1.2c0 .5-.1.9-.4 1.3-.2.4-.6.6-1.1.8.3.1.5.2.7.3s.4.3.5.5l.3.6c.1.2.1.5.1.7 0 .5-.1.9-.2 1.3-.2.4-.4.7-.7.9s-.7.4-1.1.6c-.4.1-.9.2-1.5.2h-3.5zm2-4.4v2.8h1.7c.5 0 .9-.1 1.2-.4s.4-.6.4-1c0-.5-.1-.8-.4-1.1-.2-.3-.6-.4-1.2-.4h-1.7zm0-1.4h1.4q.75 0 1.2-.3c.3-.2.4-.5.4-1s-.1-.8-.4-1q-.45-.3-1.2-.3h-1.4zm13 3.7h-3l-.6 2.1h-2l3.3-10h1.7l3.2 10h-2zm-2.5-1.6h2.1l-1-3.7zm15-4.7H276v8.4h-1.9v-8.4h-3V465h8zm10.1 0h-3.1v8.4h-1.9v-8.4h-3V465h8z" class="st0"/><path d="M216 493h88c6.6 0 12 5.4 12 12s-5.4 12-12 12h-88c-6.6 0-12-5.4-12-12s5.4-12 12-12" class="st5"/><path d="M216.3 510v-10h3.3c.5 0 1 .1 1.5.2.4.1.8.3 1.1.5s.6.5.7.8q.3.45.3 1.2c0 .5-.1.9-.4 1.3-.2.4-.6.6-1.1.8.3.1.5.2.7.3s.4.3.5.5l.3.6c.1.2.1.5.1.7 0 .5-.1.9-.2 1.3-.2.4-.4.7-.7.9s-.7.4-1.1.6c-.4.1-.9.2-1.5.2h-3.5zm2-4.4v2.8h1.7c.5 0 .9-.1 1.2-.4s.4-.6.4-1c0-.5-.1-.8-.4-1.1s-.6-.4-1.2-.4h-1.7zm0-1.4h1.4q.75 0 1.2-.3c.3-.2.4-.5.4-1s-.1-.8-.4-1q-.45-.3-1.2-.3h-1.4zm13 3.7h-3l-.6 2.1h-2l3.3-10h1.7l3.2 10h-2zm-2.5-1.6h2.1l-1-3.7zm15-4.7h-3.1v8.4h-1.9v-8.4h-3V500h8zm10.1 0h-3.1v8.4h-1.9v-8.4h-3V500h8zm19.8 5.3c0 .5-.1 1-.3 1.4s-.4.7-.7 1-.7.5-1.1.7c-.4.1-.9.2-1.4.2-.6 0-1.1-.1-1.6-.3s-.8-.5-1.1-.9-.5-.9-.7-1.4-.2-1.1-.2-1.8v-1.3q0-1.05.3-1.8c.3-.75.4-1 .7-1.4s.7-.7 1.2-.9q.75-.3 1.5-.3c.5 0 1 .1 1.5.2.4.2.8.4 1.1.7s.5.6.7 1.1c.2.4.3.9.3 1.4H272c0-.3-.1-.6-.1-.8l-.3-.6c-.1-.2-.3-.3-.5-.3-.2-.1-.4-.1-.7-.1s-.6.1-.8.2-.4.3-.5.6q-.15.3-.3.9c-.1.4-.1.8-.1 1.2v1.4c0 1 .1 1.7.4 2.2s.7.7 1.3.7c.5 0 .9-.1 1.2-.4s.5-.7.5-1.3h1.6zm9.7 3.1h-1.9v-4.3h-2.8v4.3h-1.9v-10h1.9v4.1h2.8V500h1.9zm6.9-3.7h-1.5v3.7H287v-10h3.3c.6 0 1.1.1 1.5.2s.8.3 1.1.6.6.6.7.9c.2.4.3.8.3 1.3 0 .4 0 .7-.1 1s-.2.5-.4.8c-.2.2-.3.4-.6.6-.2.2-.5.3-.7.4l2.1 4.1v.1h-2.1zm-1.4-1.6h1.4c.5 0 1-.1 1.3-.4s.4-.7.4-1.1c0-.5-.1-.9-.4-1.2s-.7-.4-1.3-.4h-1.4zm15 4.1-.5.5c-.2.2-.5.3-.8.4s-.6.2-1 .3-.8.1-1.2.1q-.9 0-1.5-.3c-.5-.2-.8-.5-1.2-.9-.3-.4-.6-.8-.8-1.4s-.3-1.2-.3-1.9v-1.4c0-.7.1-1.3.3-1.9s.4-1 .8-1.4c.3-.4.7-.7 1.1-.9s.9-.3 1.4-.3c.6 0 1 .1 1.5.2.4.1.8.3 1.1.6s.5.6.7 1 .3.8.3 1.3H302c-.1-.5-.2-.9-.5-1.1-.2-.3-.6-.4-1.1-.4-.2 0-.5.1-.7.2s-.4.3-.5.5c-.2.2-.3.5-.4.9s-.1.8-.1 1.2v1.4c0 .9.2 1.6.5 2.1s.8.7 1.4.7h.4c.1 0 .3-.1.4-.1s.2-.1.3-.1c.1-.1.2-.1.2-.2v-1.8h-1.6v-1.4h3.6z" style="fill:#171e21"/><path d="M411.5 187h61c2.8 0 5 2.2 5 5v26c0 2.8-2.2 5-5 5h-61c-2.8 0-5-2.2-5-5v-26c0-2.8 2.2-5 5-5" class="st2"/><path d="M427.7 204.4h2.5v1.7h-2.5v2.8h-1.8v-2.8h-2.5v-1.7h2.5v-2.7h1.8zm7.9-.2h1c.5 0 .9-.1 1.2-.4s.4-.6.4-1c0-.2 0-.4-.1-.5-.1-.2-.1-.3-.3-.4-.1-.1-.3-.2-.4-.3-.2-.1-.4-.1-.6-.1s-.4 0-.5.1c-.2.1-.3.1-.4.2s-.2.2-.3.4c-.1.1-.1.3-.1.5h-1.9c0-.4.1-.8.2-1.1.2-.3.4-.6.7-.9.3-.2.6-.4 1-.6.4-.1.8-.2 1.3-.2s.9.1 1.4.2c.4.1.8.3 1.1.5s.5.5.7.9.2.8.2 1.2c0 .2 0 .4-.1.6l-.3.6c-.1.2-.3.4-.5.5-.2.2-.4.3-.6.4.3.1.5.2.7.4s.4.3.5.5l.3.6c.1.2.1.5.1.8q0 .75-.3 1.2c-.2.4-.4.7-.7.9s-.7.4-1.1.6c-.4.1-.9.2-1.4.2-.4 0-.8-.1-1.2-.2s-.8-.3-1.1-.5-.6-.5-.8-.9-.3-.8-.3-1.3h1.9c0 .2 0 .4.1.5.1.2.2.3.3.4s.3.2.5.3.4.1.6.1c.5 0 .9-.1 1.1-.4.3-.3.4-.6.4-1 0-.3 0-.5-.1-.7s-.2-.3-.3-.5c-.1-.1-.3-.2-.5-.3s-.4-.1-.7-.1h-1v-1.2zm11.4 3 1.9-7.2h2.1l-3 10h-2l-3-10h2.1zm8.8-3h1c.5 0 .9-.1 1.2-.4.2-.3.4-.6.4-1 0-.2 0-.4-.1-.5-.1-.2-.1-.3-.3-.4-.1-.1-.3-.2-.4-.3-.2-.1-.4-.1-.6-.1s-.4 0-.5.1c-.2.1-.3.1-.4.2s-.2.2-.3.4c-.1.1-.1.3-.1.5h-1.9c0-.4.1-.8.2-1.1.2-.3.4-.6.7-.9.3-.2.6-.4 1-.6.4-.1.8-.2 1.3-.2s.9.1 1.4.2c.4.1.8.3 1.1.5s.5.5.7.9.2.8.2 1.2c0 .2 0 .4-.1.6l-.3.6c-.1.2-.3.4-.5.5-.2.2-.4.3-.6.4.3.1.5.2.7.4s.4.3.5.5l.3.6c.1.2.1.5.1.8q0 .75-.3 1.2c-.2.4-.4.7-.7.9s-.7.4-1.1.6c-.4.1-.9.2-1.4.2-.4 0-.8-.1-1.2-.2s-.8-.3-1.1-.5-.6-.5-.8-.9-.3-.8-.3-1.3h1.9c0 .2 0 .4.1.5.1.2.2.3.3.4s.3.2.5.3.4.1.6.1c.5 0 .9-.1 1.1-.4.3-.3.4-.6.4-1 0-.3 0-.5-.1-.7s-.2-.3-.3-.5c-.1-.1-.3-.2-.5-.3s-.4-.1-.7-.1h-1v-1.2z" class="st0"/><path d="M404 228h48v24h-48c-6.6 0-12-5.4-12-12s5.4-12 12-12" class="st5"/><path d="M404 245v-10h2.6q1.05 0 1.8.3c.5.2 1 .5 1.4.9s.7.9.9 1.4q.3.9.3 1.8v.8q0 1.05-.3 1.8c-.2.6-.5 1-.9 1.4s-.8.7-1.3.9-1.1.3-1.7.3H404zm2-8.4v6.9h.7c.4 0 .7-.1 1-.2s.5-.3.7-.6.4-.6.5-.9c.1-.4.2-.8.2-1.3v-.8c0-.4-.1-.9-.2-1.2-.1-.4-.3-.7-.5-1s-.5-.5-.8-.6-.6-.2-1-.2h-.6zm15.1 5.3c0 .5-.1 1-.3 1.4s-.4.7-.7 1-.7.5-1.1.7c-.4.1-.9.2-1.4.2-.6 0-1.1-.1-1.6-.3s-.8-.5-1.1-.9-.5-.9-.7-1.4-.2-1.1-.2-1.8v-1.3q0-1.05.3-1.8c.2-.5.4-1 .7-1.4q.45-.6 1.2-.9t1.5-.3c.5 0 1 .1 1.5.2.4.2.8.4 1.1.7s.5.6.7 1.1c.2.4.3.9.3 1.4h-1.9c0-.3-.1-.6-.1-.8l-.3-.6c-.1-.1-.3-.3-.5-.3-.2-.1-.4-.1-.7-.1s-.6.1-.8.2-.4.3-.5.6q-.15.3-.3.9c-.1.4-.1.8-.1 1.2v1.4c0 1 .1 1.7.4 2.2s.7.7 1.3.7c.5 0 .9-.1 1.2-.4s.5-.7.5-1.3h1.6zm3.1 3.1v-10h2.6q1.05 0 1.8.3c.5.2 1 .5 1.4.9s.7.9.9 1.4q.3.9.3 1.8v.8q0 1.05-.3 1.8c-.2.6-.5 1-.9 1.4s-.8.7-1.3.9-1.1.3-1.7.3h-2.8zm1.9-8.4v6.9h.7c.4 0 .7-.1 1-.2s.5-.3.7-.6.4-.6.5-.9c.1-.4.2-.8.2-1.3v-.8c0-.4-.1-.9-.2-1.2-.1-.4-.3-.7-.5-1s-.5-.5-.8-.6-.6-.2-1-.2h-.6zm15.1 5.3c0 .5-.1 1-.3 1.4s-.4.7-.7 1-.7.5-1.1.7c-.4.1-.9.2-1.4.2-.6 0-1.1-.1-1.6-.3s-.8-.5-1.1-.9-.5-.9-.7-1.4-.2-1.1-.2-1.8v-1.3q0-1.05.3-1.8c.3-.75.4-1 .7-1.4q.45-.6 1.2-.9t1.5-.3c.5 0 1 .1 1.5.2.4.2.8.4 1.1.7s.5.6.7 1.1c.2.4.3.9.3 1.4h-1.9c0-.3-.1-.6-.1-.8l-.3-.6c-.1-.1-.3-.3-.5-.3-.2-.1-.4-.1-.7-.1s-.6.1-.8.2-.4.3-.5.6q-.15.3-.3.9c-.1.4-.1.8-.1 1.2v1.4c0 1 .1 1.7.4 2.2s.7.7 1.3.7c.5 0 .9-.1 1.2-.4s.5-.7.5-1.3h1.6z" class="st8"/><path d="M452 228h28c6.6 0 12 5.4 12 12s-5.4 12-12 12h-28z" class="st4"/><path d="M467.9 245H466v-7.6l-2.5.9v-1.7l4.3-1.6h.1zm10.2-2.1h-3l-.6 2.1h-2l3.3-10h1.7l3.2 10h-2zm-2.5-1.6h2.1l-1-3.7z" class="st0"/><path d="M404 493h48v24h-48c-6.6 0-12-5.4-12-12s5.4-12 12-12" class="st5"/><path d="M404 510v-10h2.6q1.05 0 1.8.3c.5.2 1 .5 1.4.9s.7.9.9 1.4q.3.9.3 1.8v.8q0 1.05-.3 1.8c-.2.6-.5 1-.9 1.4s-.8.7-1.3.9-1.1.3-1.7.3H404zm2-8.4v6.8h.7c.4 0 .7-.1 1-.2s.5-.3.7-.6.4-.6.5-.9c.1-.4.2-.8.2-1.3v-.8c0-.4-.1-.9-.2-1.2-.1-.4-.3-.7-.5-1s-.5-.5-.8-.6-.6-.2-1-.2zm15.1 5.3c0 .5-.1 1-.3 1.4s-.4.7-.7 1-.7.5-1.1.7c-.4.1-.9.2-1.4.2-.6 0-1.1-.1-1.6-.3s-.8-.5-1.1-.9-.5-.9-.7-1.4-.2-1.1-.2-1.8v-1.3q0-1.05.3-1.8c.2-.5.4-1 .7-1.4s.7-.7 1.2-.9q.75-.3 1.5-.3c.5 0 1 .1 1.5.2.4.2.8.4 1.1.7s.5.6.7 1.1c.2.4.3.9.3 1.4h-1.9c0-.3-.1-.6-.1-.8l-.3-.6c-.1-.2-.3-.3-.5-.3-.2-.1-.4-.1-.7-.1s-.6.1-.8.2-.4.3-.5.6q-.15.3-.3.9c-.1.4-.1.8-.1 1.2v1.4c0 1 .1 1.7.4 2.2s.7.7 1.3.7c.5 0 .9-.1 1.2-.4s.5-.7.5-1.3h1.6zm3.1 3.1v-10h2.6q1.05 0 1.8.3c.5.2 1 .5 1.4.9s.7.9.9 1.4q.3.9.3 1.8v.8q0 1.05-.3 1.8c-.2.6-.5 1-.9 1.4s-.8.7-1.3.9-1.1.3-1.7.3h-2.8zm1.9-8.4v6.8h.7c.4 0 .7-.1 1-.2s.5-.3.7-.6.4-.6.5-.9c.1-.4.2-.8.2-1.3v-.8c0-.4-.1-.9-.2-1.2-.1-.4-.3-.7-.5-1s-.5-.5-.8-.6-.6-.2-1-.2zm15.1 5.3c0 .5-.1 1-.3 1.4s-.4.7-.7 1-.7.5-1.1.7c-.4.1-.9.2-1.4.2-.6 0-1.1-.1-1.6-.3s-.8-.5-1.1-.9-.5-.9-.7-1.4-.2-1.1-.2-1.8v-1.3q0-1.05.3-1.8c.3-.75.4-1 .7-1.4s.7-.7 1.2-.9q.75-.3 1.5-.3c.5 0 1 .1 1.5.2.4.2.8.4 1.1.7s.5.6.7 1.1c.2.4.3.9.3 1.4h-1.9c0-.3-.1-.6-.1-.8l-.3-.6c-.1-.2-.3-.3-.5-.3-.2-.1-.4-.1-.7-.1s-.6.1-.8.2-.4.3-.5.6q-.15.3-.3.9c-.1.4-.1.8-.1 1.2v1.4c0 1 .1 1.7.4 2.2s.7.7 1.3.7c.5 0 .9-.1 1.2-.4s.5-.7.5-1.3h1.6z" class="st8"/><path d="M452 493h28c6.6 0 12 5.4 12 12s-5.4 12-12 12h-28z" class="st4"/><path d="M468.8 506.3h1.2v1.5h-1.2v2.2h-1.9v-2.2h-4.1l-.1-1.2 4.2-6.6h1.9zm-4.3 0h2.3v-3.7l-.2.3zm13.6 1.6h-3l-.6 2.1h-2l3.3-10h1.7l3.2 10h-2zm-2.5-1.6h2.1l-1-3.7z" class="st0"/><path d="M411.5 713h61c2.8 0 5 2.2 5 5v26c0 2.8-2.2 5-5 5h-61c-2.8 0-5-2.2-5-5v-26c0-2.8 2.2-5 5-5" class="st2"/><path d="M427.7 730.4h2.5v1.7h-2.5v2.8h-1.8v-2.8h-2.5v-1.7h2.5v-2.7h1.8zm10.7 5.6h-1.9v-7.6l-2.5.9v-1.7l4.3-1.6h.1zm6.7-1.5c.5 0 1-.1 1.3-.2.4-.1.7-.3.9-.5.3-.2.5-.5.6-.8s.2-.6.3-1c-.2.2-.4.4-.7.5s-.7.2-1.1.2c-.5 0-.9-.1-1.3-.3s-.7-.4-.9-.7-.4-.7-.6-1.1c-.1-.4-.2-.8-.2-1.3s.1-.9.2-1.4c.2-.4.4-.8.7-1.1s.6-.6 1-.8.9-.3 1.4-.3 1 .1 1.4.3.8.5 1.1.8c.3.4.5.8.7 1.3s.2 1 .2 1.6v.7c0 .8-.1 1.5-.3 2.2s-.5 1.2-.9 1.7-.9.9-1.6 1.1c-.6.3-1.4.4-2.3.4v-1.6h.1zm1.8-3.2c.2 0 .3 0 .5-.1s.3-.1.4-.2l.3-.3c.1-.1.2-.3.2-.4v-.7c0-.4 0-.7-.1-1s-.2-.5-.3-.7-.3-.3-.5-.4-.4-.1-.6-.1-.4.1-.6.2-.3.2-.4.4l-.3.6c-.1.2-.1.5-.1.7 0 .3 0 .5.1.7s.1.4.3.6c.1.2.3.3.5.4.1.3.3.3.6.3m10.2 1.9 1.9-7.2h2.1l-3 10h-2l-3-10h2.1z" class="st0"/><path d="M389 754h48v24h-48c-6.6 0-12-5.4-12-12s5.4-12 12-12" class="st5"/><path d="M389 771v-10h2.6q1.05 0 1.8.3c.5.2 1 .5 1.4.9s.7.9.9 1.4q.3.9.3 1.8v.8q0 1.05-.3 1.8c-.2.6-.5 1-.9 1.4s-.8.7-1.3.9-1.1.3-1.7.3H389zm2-8.4v6.9h.7c.4 0 .7-.1 1-.2s.5-.3.7-.6.4-.6.5-.9c.1-.4.2-.8.2-1.3v-.8c0-.4-.1-.9-.2-1.2-.1-.4-.3-.7-.5-1s-.5-.5-.8-.6-.6-.2-1-.2h-.6zm15.1 5.3c0 .5-.1 1-.3 1.4s-.4.7-.7 1-.7.5-1.1.7c-.4.1-.9.2-1.4.2-.6 0-1.1-.1-1.6-.3s-.8-.5-1.1-.9-.5-.9-.7-1.4-.2-1.1-.2-1.8v-1.3q0-1.05.3-1.8c.2-.5.4-1 .7-1.4q.45-.6 1.2-.9t1.5-.3c.5 0 1 .1 1.5.2.4.2.8.4 1.1.7s.5.6.7 1.1c.2.4.3.9.3 1.4h-1.9c0-.3-.1-.6-.1-.8l-.3-.6c-.1-.1-.3-.3-.5-.3-.2-.1-.4-.1-.7-.1s-.6.1-.8.2-.4.3-.5.6q-.15.3-.3.9c-.1.4-.1.8-.1 1.2v1.4c0 1 .1 1.7.4 2.2s.7.7 1.3.7c.5 0 .9-.1 1.2-.4s.5-.7.5-1.3h1.6zm3.1 3.1v-10h2.6q1.05 0 1.8.3c.5.2 1 .5 1.4.9s.7.9.9 1.4q.3.9.3 1.8v.8q0 1.05-.3 1.8c-.2.6-.5 1-.9 1.4s-.8.7-1.3.9-1.1.3-1.7.3h-2.8zm1.9-8.4v6.9h.7c.4 0 .7-.1 1-.2s.5-.3.7-.6.4-.6.5-.9c.1-.4.2-.8.2-1.3v-.8c0-.4-.1-.9-.2-1.2-.1-.4-.3-.7-.5-1s-.5-.5-.8-.6-.6-.2-1-.2h-.6zm15.1 5.3c0 .5-.1 1-.3 1.4s-.4.7-.7 1-.7.5-1.1.7c-.4.1-.9.2-1.4.2-.6 0-1.1-.1-1.6-.3s-.8-.5-1.1-.9-.5-.9-.7-1.4-.2-1.1-.2-1.8v-1.3q0-1.05.3-1.8c.3-.75.4-1 .7-1.4q.45-.6 1.2-.9t1.5-.3c.5 0 1 .1 1.5.2.4.2.8.4 1.1.7s.5.6.7 1.1c.2.4.3.9.3 1.4h-1.9c0-.3-.1-.6-.1-.8l-.3-.6c-.1-.1-.3-.3-.5-.3-.2-.1-.4-.1-.7-.1s-.6.1-.8.2-.4.3-.5.6q-.15.3-.3.9c-.1.4-.1.8-.1 1.2v1.4c0 1 .1 1.7.4 2.2s.7.7 1.3.7c.5 0 .9-.1 1.2-.4s.5-.7.5-1.3h1.6z" class="st8"/><path d="M437 754h58c6.6 0 12 5.4 12 12s-5.4 12-12 12h-58z" class="st4"/><path d="M452.7 771h-1.9v-7.6l-2.5.9v-1.7l4.3-1.6h.1zm12-3.8c0 .6-.1 1.2-.2 1.7s-.4.9-.6 1.2c-.3.3-.6.6-1 .7-.4.2-.9.3-1.4.3s-.9-.1-1.3-.3-.7-.4-1-.7q-.45-.45-.6-1.2c-.1-.5-.2-1.1-.2-1.7v-2.4c0-.6.1-1.2.2-1.7q.3-.75.6-1.2c.3-.3.6-.6 1-.8s.8-.3 1.3-.3 1 .1 1.4.3.7.4 1 .8q.45.45.6 1.2c.2.5.2 1.1.2 1.7zm-4.6-.8 2.7-2q0-1.05-.3-1.5c-.2-.3-.5-.5-1-.5-.4 0-.8.2-1 .5s-.3.9-.3 1.6v1.9zm2.6-.7-2.7 2c0 .7.1 1.1.4 1.5.2.3.5.5 1 .5.4 0 .8-.2 1-.5s.3-.9.3-1.6zm12 1.5c0 .6-.1 1.2-.2 1.7s-.4.9-.6 1.2c-.3.3-.6.6-1 .7-.4.2-.9.3-1.4.3s-.9-.1-1.3-.3-.7-.4-1-.7-.5-.7-.7-1.2c-.1-.5-.2-1.1-.2-1.7v-2.4c0-.6.1-1.2.2-1.7q.3-.75.6-1.2c.3-.3.6-.6 1-.8s.9-.3 1.3-.3c.5 0 1 .1 1.4.3s.7.4 1 .8c.3.3.5.7.7 1.2.1.5.2 1.1.2 1.7zm-4.5-.8 2.7-2q0-1.05-.3-1.5c-.2-.3-.5-.5-1-.5-.4 0-.8.2-1 .5s-.3.9-.3 1.6v1.9zm2.6-.7-2.7 2c0 .7.1 1.1.4 1.5.2.3.5.5 1 .5.4 0 .8-.2 1-.5s.3-.9.3-1.6zm6.7-2.1.1.9c.1-.3.3-.6.6-.8q.45-.3.9-.3c.6 0 1 .3 1.2.8q.15-.3.6-.6c.2-.1.5-.2.8-.2.2 0 .4 0 .6.1s.4.2.5.4.3.4.3.7c.1.3.1.6.1 1v5.3h-1.7v-5.6c0-.1-.1-.2-.1-.2-.1-.1-.1-.1-.2-.1h-.2c-.1 0-.2 0-.3.1s-.2.1-.2.2v5.6h-1.7v-5.6c0-.1-.1-.2-.1-.2s-.1-.1-.2-.1h-.2c-.1 0-.3 0-.4.1s-.2.2-.2.3v5.5H478v-7.4h1.5zm13.8 5.3h-3l-.6 2.1h-2l3.3-10h1.7l3.2 10h-2zm-2.6-1.6h2.1l-1-3.7z" class="st0"/><path d="M417 46h51c2.8 0 5 2.2 5 5v26c0 2.8-2.2 5-5 5h-51c-2.8 0-5-2.2-5-5V51c0-2.8 2.2-5 5-5" class="st2"/><path d="M433.2 63.4h2.5v1.7h-2.5V68h-1.8v-2.8h-2.5v-1.7h2.5v-2.7h1.8zm8-.2h1c.5 0 .9-.1 1.2-.4s.4-.6.4-1c0-.2 0-.4-.1-.5-.1-.2-.1-.3-.3-.4-.1-.1-.3-.2-.4-.3-.2-.1-.4-.1-.6-.1s-.4 0-.5.1c-.2.1-.3.1-.4.2s-.2.2-.3.4c-.1.1-.1.3-.1.5h-1.9c0-.4.1-.8.2-1.1.2-.3.4-.6.7-.9.3-.2.6-.4 1-.6.4-.1.8-.2 1.3-.2s.9.1 1.4.2c.4.1.8.3 1.1.5s.5.5.7.9.2.8.2 1.2c0 .2 0 .4-.1.6l-.3.6c-.1.2-.3.4-.5.5-.2.2-.4.3-.6.4.3.1.5.2.7.4s.4.3.5.5l.3.6c.1.2.1.5.1.8q0 .75-.3 1.2c-.2.4-.4.7-.7.9s-.7.4-1.1.6c-.4.1-.9.2-1.4.2-.4 0-.8-.1-1.2-.2s-.8-.3-1.1-.5-.6-.5-.8-.9-.3-.8-.3-1.3h1.9c0 .2 0 .4.1.5.1.2.2.3.3.4s.3.2.5.3.4.1.6.1c.5 0 .9-.1 1.1-.4.3-.3.4-.6.4-1 0-.3 0-.5-.1-.7s-.2-.3-.3-.5c-.1-.1-.3-.2-.5-.3s-.4-.1-.7-.1h-1v-1.2zm11.4 3 1.9-7.2h2.1l-3 10h-2l-3-10h2.1zM596 47h112c2.2 0 4 1.8 4 4v26c0 2.2-1.8 4-4 4H596c-2.2 0-4-1.8-4-4V51c0-2.2 1.8-4 4-4" class="st0"/><path d="M614.9 69H613l-2.8-6.4V69h-1.9V59h1.9l2.7 6.4V59h1.9v10zm4.1-7.4h4v5.9h2V69h-6v-1.5h2.1v-4.3H619zm2-1.9c0-.1 0-.3.1-.4s.1-.2.2-.3.2-.2.3-.2c.1-.1.3-.1.5-.1.3 0 .6.1.8.3s.3.4.3.7-.1.5-.3.7-.5.3-.8.3c-.2 0-.3 0-.5-.1-.1-.1-.2-.1-.3-.2s-.2-.2-.2-.3c-.1-.1-.1-.2-.1-.4m9.3 1.9.1 1c.3-.4.6-.7 1-.9s.8-.3 1.3-.3c.4 0 .7.1 1 .2s.6.3.8.5.4.5.5.9.2.8.2 1.4V69h-1.9v-4.5c0-.3 0-.5-.1-.7s-.2-.3-.3-.5c-.1-.1-.3-.2-.4-.2-.2 0-.4-.1-.6-.1-.3 0-.6.1-.8.2s-.4.3-.6.5V69h-1.9v-7.4zm13 7.4c0-.1-.1-.2-.1-.3s-.1-.2-.1-.4c-.1.1-.2.2-.4.3-.1.1-.3.2-.5.3s-.3.1-.5.2c-.2 0-.4.1-.6.1-.4 0-.7-.1-1-.2s-.6-.3-.8-.5-.4-.4-.5-.7-.2-.6-.2-.9q0-1.2.9-1.8c.6-.4 1.5-.6 2.6-.6h1.1V64c0-.4-.1-.6-.3-.8s-.6-.3-1-.3-.7.1-.8.3c-.2.2-.3.4-.3.7h-1.9c0-.3.1-.6.2-.9s.3-.5.6-.7.6-.4 1-.5.8-.2 1.3-.2c.4 0 .9.1 1.2.2.4.1.7.3 1 .5s.5.5.7.8.2.7.2 1.1v3.2c0 .4 0 .7.1 1 0 .3.1.5.2.7V69zm-1.8-1.3c.2 0 .4 0 .5-.1.2 0 .3-.1.4-.2s.2-.2.3-.2c.1-.1.2-.2.2-.3v-1.3h-1c-.3 0-.5 0-.8.1-.2.1-.4.1-.5.2s-.2.2-.3.4c-.1.1-.1.3-.1.5q0 .45.3.6c.3.2.6.3 1 .3m17.3 1.3V59h3.3c.5 0 1 .1 1.5.2.4.1.8.3 1.1.5s.6.5.7.8q.3.45.3 1.2c0 .5-.1.9-.4 1.3-.2.4-.6.6-1.1.8.3.1.5.2.7.3s.4.3.5.5l.3.6c.1.2.1.5.1.7 0 .5-.1.9-.2 1.3-.2.4-.4.7-.7.9s-.7.4-1.1.6c-.4.1-.9.2-1.5.2h-3.5zm1.9-4.4v2.8h1.7c.5 0 .9-.1 1.2-.4s.4-.6.4-1c0-.5-.1-.8-.4-1.1s-.6-.4-1.2-.4h-1.7zm0-1.4h1.4q.75 0 1.2-.3c.3-.2.4-.5.4-1s-.1-.8-.4-1q-.45-.3-1.2-.3h-1.4zm10.1 0h1c.5 0 .9-.1 1.2-.4.2-.3.4-.6.4-1 0-.2 0-.4-.1-.5-.1-.2-.1-.3-.3-.4-.1-.1-.3-.2-.4-.3-.2-.1-.4-.1-.6-.1s-.4 0-.5.1c-.2.1-.3.1-.4.2s-.2.2-.3.4c-.1.1-.1.3-.1.5h-1.9c0-.4.1-.8.2-1.1.2-.3.4-.6.7-.9.3-.2.6-.4 1-.6.4-.1.8-.2 1.3-.2s.9.1 1.4.2c.4.1.8.3 1.1.5s.5.5.7.9.2.8.2 1.2c0 .2 0 .4-.1.6l-.3.6c-.1.2-.3.4-.5.5-.2.2-.4.3-.6.4.3.1.5.2.7.4s.4.3.5.5l.3.6c.1.2.1.5.1.8q0 .75-.3 1.2c-.3.45-.4.7-.7.9s-.7.4-1.1.6c-.4.1-.9.2-1.4.2-.4 0-.8-.1-1.2-.2s-.8-.3-1.1-.5-.6-.5-.8-.9-.3-.8-.3-1.3h1.9c0 .2 0 .4.1.5.1.2.2.3.3.4s.3.2.5.3.4.1.6.1c.5 0 .9-.1 1.1-.4.3-.3.4-.6.4-1 0-.3 0-.5-.1-.7s-.2-.3-.3-.5c-.1-.1-.3-.2-.5-.3s-.4-.1-.7-.1h-1v-1.2zm14.7 2c0 .6-.1 1.2-.2 1.7s-.4.9-.6 1.2c-.3.3-.6.6-1 .7-.4.2-.9.3-1.4.3s-.9-.1-1.3-.3-.7-.4-1-.7q-.45-.45-.6-1.2c-.2-.5-.2-1.1-.2-1.7v-2.4c0-.6.1-1.2.2-1.7q.3-.75.6-1.2c.3-.3.6-.6 1-.8s.8-.3 1.3-.3 1 .1 1.4.3.7.4 1 .8q.45.45.6 1.2c.2.5.2 1.1.2 1.7zm-4.6-.8 2.7-2q0-1.05-.3-1.5c-.2-.3-.5-.5-1-.5-.4 0-.8.2-1 .5s-.3.9-.3 1.6v1.9zm2.7-.7-2.7 2c0 .7.1 1.1.4 1.5.2.3.5.5 1 .5.4 0 .8-.2 1-.5s.3-.9.3-1.6zm10.6-4.7v1.6h-.2c-.5 0-.9.1-1.3.2s-.7.3-1 .6q-.45.3-.6.9c-.2.3-.3.7-.3 1.1.1-.1.2-.2.4-.3.1-.1.3-.2.5-.3s.4-.2.6-.2c.2-.1.4-.1.6-.1q.75 0 1.2.3c.4.2.7.4.9.7s.4.7.5 1.1.2.8.2 1.3-.1.9-.2 1.3c-.2.4-.4.8-.7 1.1s-.6.5-1 .7-.9.3-1.4.3-1-.1-1.4-.3-.8-.5-1.1-.8c-.3-.4-.5-.8-.7-1.2-.2-.5-.2-1-.2-1.6v-.7c0-.8.1-1.5.3-2.2s.5-1.3 1-1.7c.4-.5.9-.9 1.6-1.1.6-.3 1.4-.4 2.2-.4h.1zm-1.9 4.9q-.45 0-.9.3c-.3.2-.5.4-.6.7v.6c0 .4 0 .7.1 1s.2.5.3.7.3.3.5.4.4.1.6.1.4 0 .6-.1.3-.2.5-.4l.3-.6c.1-.2.1-.5.1-.7s0-.5-.1-.7l-.3-.6c-.1-.2-.3-.3-.5-.4-.2-.3-.4-.3-.6-.3"/><path d="M596 47h112c2.2 0 4 1.8 4 4v26c0 2.2-1.8 4-4 4H596c-2.2 0-4-1.8-4-4V51c0-2.2 1.8-4 4-4z" class="st9"/><path d="M633.5 87h37c6.6 0 12 5.4 12 12s-5.4 12-12 12h-37c-6.6 0-12-5.4-12-12s5.4-12 12-12" class="st4"/><path d="M638.3 104h-1.9v-7.6l-2.5.9v-1.7l4.3-1.6h.1zm5.5-4.9.6-5.1h5.5v1.6h-4l-.2 2.2q.15-.15.6-.3c.3-.1.6-.1.9-.1.5 0 .9.1 1.3.2.4.2.7.4 1 .7s.5.6.6 1.1c.1.4.2.9.2 1.4 0 .4-.1.9-.2 1.3s-.3.8-.6 1.1-.6.5-1 .7q-.6.3-1.5.3c-.4 0-.8-.1-1.2-.2s-.8-.3-1.1-.6c-.3-.2-.6-.5-.8-.9q-.3-.6-.3-1.2h1.9c0 .4.2.8.5 1s.6.4 1 .4c.3 0 .5 0 .6-.1.2-.1.3-.2.4-.4s.2-.4.2-.6c.1-.2.1-.5.1-.8s0-.5-.1-.7l-.3-.6c-.1-.2-.3-.3-.5-.4s-.4-.1-.7-.1h-.5c-.1 0-.3.1-.4.1-.1.1-.2.1-.3.2s-.2.1-.2.2zm11.2-2.5.1.9c.1-.3.3-.6.6-.8q.45-.3.9-.3c.6 0 1 .3 1.2.8q.15-.3.6-.6c.2-.1.5-.2.8-.2.2 0 .4 0 .6.1s.4.2.5.4.3.4.3.7c.1.3.1.6.1 1v5.3H659v-5.6c0-.1-.1-.2-.1-.2-.1-.1-.1-.1-.2-.1h-.2c-.1 0-.2 0-.3.1s-.2.1-.2.2v5.6h-1.7v-5.6c0-.1-.1-.2-.1-.2 0-.1-.1-.1-.2-.1h-.2c-.1 0-.3 0-.4.1s-.2.2-.2.3v5.5h-1.7v-7.4h1.5zm13.7 5.3h-3l-.6 2.1h-2l3.3-10h1.7l3.2 10h-2zm-2.5-1.6h2.1l-1-3.7zM596 308h112c2.2 0 4 1.8 4 4v26c0 2.2-1.8 4-4 4H596c-2.2 0-4-1.8-4-4v-26c0-2.2 1.8-4 4-4" class="st0"/><path d="m610.7 320 .9 3.7 1.1-3.7h2.4v10h-1.8v-2.9l.1-4.7-1.3 4.3h-1l-1.2-4.1.1 4.5v2.9h-1.8v-10zm10.7 5.9-1.1 1.2v2.9h-1.9v-10h1.9v4.6l.9-1.2 2.4-3.3h2.4l-3.4 4.4 3.5 5.6h-2.3zm10.5.4h-1.5v3.7h-1.9v-10h3.3c.6 0 1 .1 1.5.2.4.1.8.3 1.1.6s.6.6.7.9c.2.4.3.8.3 1.3 0 .4 0 .7-.1 1s-.2.5-.4.8c-.2.2-.3.4-.6.6-.2.2-.5.3-.7.4l2.1 4.1v.1h-2.1zm-1.5-1.6h1.4c.5 0 1-.1 1.3-.4s.4-.7.4-1.1c0-.5-.1-.9-.4-1.2s-.7-.4-1.3-.4h-1.4zm23.5 2.7c0-.2 0-.3-.1-.5s-.2-.3-.3-.4-.3-.3-.6-.4q-.3-.15-.9-.3c-.4-.1-.8-.3-1.2-.4-.4-.2-.7-.4-1-.6-.3-.3-.5-.5-.7-.9-.2-.3-.3-.7-.3-1.1s.1-.8.3-1.1.4-.6.7-.9c.3-.2.7-.4 1.1-.6.4-.1.9-.2 1.4-.2s1 .1 1.4.2c.4.2.8.4 1.1.6.3.3.6.6.7 1q.3.6.3 1.2h-1.9c0-.2-.1-.4-.1-.6-.1-.2-.2-.3-.3-.5-.1-.1-.3-.2-.5-.3s-.4-.1-.7-.1-.5 0-.7.1-.4.1-.5.3c-.1.1-.2.2-.3.4s-.1.3-.1.5 0 .4.1.5c.1.2.2.3.4.4l.6.3c.3.1.5.2.9.3.5.1.9.3 1.3.5s.7.4 1 .7q.45.45.6.9c.2.3.2.7.2 1.1q0 .6-.3 1.2c-.2.3-.4.6-.7.9-.3.2-.7.4-1.1.5s-.9.2-1.4.2c-.3 0-.6 0-.9-.1s-.6-.1-.9-.3c-.3-.1-.5-.3-.8-.4-.2-.2-.5-.4-.6-.6-.2-.2-.3-.5-.4-.8s-.2-.6-.2-1h1.9c0 .3.1.6.2.8s.2.4.4.5l.6.3c.2.1.5.1.8.1s.5 0 .7-.1.4-.1.5-.2.2-.2.3-.4c-.1-.4 0-.5 0-.7m5.3-7.9h4.1v9h2.1v1.5h-6.3v-1.5h2.2v-7.4h-2.2v-1.6zm9.5 6.7c0-.5.1-1 .2-1.5.2-.5.4-.9.7-1.2s.7-.6 1.1-.8q.6-.3 1.5-.3c.6 0 1 .1 1.5.3.4.2.8.5 1.1.8s.5.7.7 1.2.2 1 .2 1.5v.1c0 .5-.1 1-.2 1.5-.2.5-.4.9-.7 1.2s-.7.6-1.1.8q-.6.3-1.5.3t-1.5-.3c-.4-.2-.8-.5-1.1-.8s-.5-.7-.7-1.2-.2-1-.2-1.5zm1.9.2c0 .3 0 .6.1.9s.2.5.3.7.3.4.5.5.5.2.7.2c.3 0 .5-.1.7-.2s.4-.3.5-.5.2-.4.3-.7.1-.6.1-.9v-.1c0-.3 0-.6-.1-.9s-.2-.5-.3-.7-.3-.4-.5-.5-.4-.2-.7-.2-.5.1-.7.2-.4.3-.5.5-.2.4-.3.7-.1.6-.1.9zm11.9-5.6v1.8h2.8v1.4h-2.8v3.2c0 .3 0 .5.1.7s.2.3.3.4.3.2.4.2c.2 0 .3.1.5.1h.8c.1 0 .3 0 .4-.1.1 0 .2 0 .3-.1l.2 1.3c-.1.1-.3.1-.5.2s-.4.1-.6.1-.4.1-.6.1h-.6c-.4 0-.8-.1-1.1-.2s-.6-.3-.8-.5-.4-.5-.5-.9-.2-.8-.2-1.3V324h-1.7v-1.4h1.7v-1.8zm11.4 7.2c0-.1 0-.2-.1-.3 0-.1-.1-.2-.3-.2-.1-.1-.3-.1-.5-.2s-.5-.1-.8-.2l-1.2-.3c-.4-.1-.7-.3-.9-.5q-.45-.3-.6-.6c-.1-.2-.2-.5-.2-.8s.1-.6.2-.9.4-.5.6-.7c.3-.2.6-.4 1-.5s.8-.2 1.3-.2 1 .1 1.4.2.8.3 1 .5c.3.2.5.5.7.8s.2.6.2 1h-1.9c0-.3-.1-.5-.3-.7s-.6-.3-1.1-.3c-.4 0-.8.1-1 .2q-.3.3-.3.6c0 .1 0 .2.1.3 0 .1.1.2.2.3s.3.1.5.2.5.1.8.2c.4.1.9.2 1.2.3.4.1.7.3 1 .4.3.2.5.4.7.7s.2.6.2.9-.1.6-.2.9c-.2.3-.4.5-.7.7s-.6.4-1 .5-.9.2-1.4.2c-.6 0-1-.1-1.5-.2-.4-.1-.8-.3-1.1-.6-.3-.2-.5-.5-.7-.8-.1-.3-.2-.6-.2-.9h1.8c0 .2.1.4.2.5s.2.3.4.3c.2.1.3.2.5.2s.4.1.6.1c.5 0 .8-.1 1.1-.2.2-.5.3-.7.3-.9"/><path d="M596 308h112c2.2 0 4 1.8 4 4v26c0 2.2-1.8 4-4 4H596c-2.2 0-4-1.8-4-4v-26c0-2.2 1.8-4 4-4z" class="st9"/><path d="M643.5 348h17c6.6 0 12 5.4 12 12s-5.4 12-12 12h-17c-6.6 0-12-5.4-12-12s5.4-12 12-12" class="st4"/><path d="M645.6 359.2h1c.5 0 .9-.1 1.2-.4s.4-.6.4-1c0-.2 0-.4-.1-.5-.1-.2-.1-.3-.3-.4-.1-.1-.3-.2-.4-.3-.2-.1-.4-.1-.6-.1s-.4 0-.5.1c-.2.1-.3.1-.4.2s-.2.2-.3.4-.1.3-.1.5h-1.9c0-.4.1-.8.2-1.1.2-.3.4-.6.7-.9.3-.2.6-.4 1-.6.4-.1.8-.2 1.3-.2s.9.1 1.4.2c.4.1.8.3 1.1.5s.5.5.7.9.2.8.2 1.2c0 .2 0 .4-.1.6l-.3.6c-.1.2-.3.4-.5.5-.2.2-.4.3-.6.4.3.1.5.2.7.4s.4.3.5.5l.3.6c.1.2.1.5.1.8q0 .75-.3 1.2c-.2.4-.4.7-.7.9s-.7.4-1.1.6c-.4.1-.9.2-1.4.2-.4 0-.8-.1-1.2-.2s-.8-.3-1.1-.5-.6-.5-.8-.9-.3-.8-.3-1.3h1.9c0 .2 0 .4.1.5.1.2.2.3.3.4s.3.2.5.3.4.1.6.1c.5 0 .9-.1 1.1-.4.3-.3.4-.6.4-1 0-.3 0-.5-.1-.7s-.2-.3-.3-.5c-.1-.1-.3-.2-.5-.3s-.4-.1-.7-.1h-1v-1.2zm13 3.7h-3l-.6 2.1h-2l3.3-10h1.7l3.2 10h-2zm-2.5-1.6h2.1l-1-3.7zM596 569h132c2.2 0 4 1.8 4 4v26c0 2.2-1.8 4-4 4H596c-2.2 0-4-1.8-4-4v-26c0-2.2 1.8-4 4-4" class="st0"/><path d="M614.8 591H608v-1.3l3.2-3.5c.3-.3.5-.5.6-.7.2-.2.3-.4.4-.6s.2-.4.2-.5c0-.2.1-.3.1-.5s0-.4-.1-.6-.2-.3-.3-.4-.3-.2-.4-.3c-.2-.1-.3-.1-.5-.1-.5 0-.9.1-1.2.4s-.4.7-.4 1.2h-1.9c0-.4.1-.9.3-1.3s.4-.7.7-1 .7-.5 1.1-.7.9-.3 1.4-.3 1 .1 1.3.2c.4.1.7.3 1 .6q.45.45.6.9c.1.4.2.7.2 1.2 0 .3-.1.6-.2.9s-.2.6-.4.9-.4.6-.7.9l-.9.9-1.9 2h4.4v1.7zm5.5-1.1c0-.2 0-.3.1-.5s.1-.3.3-.4c.1-.1.3-.2.4-.3.2-.1.3-.1.6-.1.2 0 .4 0 .6.1s.3.2.4.3.2.2.3.4.1.3.1.5 0 .3-.1.5c-.1.1-.1.3-.3.4-.1.1-.2.2-.4.3s-.3.1-.6.1c-.2 0-.4 0-.6-.1s-.3-.2-.4-.3-.2-.2-.3-.4c0-.2-.1-.3-.1-.5m14.7-2.7c0 .6-.1 1.2-.2 1.7s-.4.9-.6 1.2c-.3.3-.6.6-1 .7-.4.2-.9.3-1.4.3s-.9-.1-1.3-.3-.7-.4-1-.7q-.45-.45-.6-1.2c-.2-.5-.2-1.1-.2-1.7v-2.4c0-.6.1-1.2.2-1.7s.4-.9.6-1.2c.3-.3.6-.6 1-.8s.8-.3 1.3-.3 1 .1 1.4.3.7.4 1 .8q.45.45.6 1.2c.2.5.2 1.1.2 1.7zm-4.6-.8 2.7-2q0-1.05-.3-1.5c-.2-.3-.5-.5-1-.5-.4 0-.8.2-1 .5s-.3.9-.3 1.6v1.9zm2.7-.7-2.7 2c0 .7.1 1.1.4 1.5.2.3.5.5 1 .5.4 0 .8-.2 1-.5s.3-.9.3-1.6zm11 1.6h1.2v1.5h-1.2v2.2h-1.9v-2.2h-4.1l-.1-1.2 4.2-6.6h1.9zm-4.2 0h2.3v-3.7l-.2.3zm15-3.6c0 .5-.1.9-.4 1.3-.2.4-.6.7-1 .9.5.2.9.5 1.1 1 .3.4.4.9.4 1.4q0 .75-.3 1.2c-.2.4-.4.7-.7.9s-.6.4-1.1.5c-.4.1-.8.2-1.3.2s-.9-.1-1.3-.2-.8-.3-1.1-.5-.5-.5-.7-.9q-.3-.6-.3-1.2c0-.3 0-.5.1-.8.1-.2.2-.5.3-.7s.3-.4.5-.5c.2-.2.4-.3.7-.4-.4-.2-.8-.5-1-.9s-.4-.8-.4-1.3.1-.8.2-1.2l.6-.9c.3-.2.6-.4 1-.5s.8-.2 1.3-.2.9.1 1.3.2.7.3 1 .5.5.5.7.9c.3.3.4.7.4 1.2m-1.7 4.4c0-.2 0-.4-.1-.6s-.2-.3-.3-.5c-.1-.1-.3-.2-.5-.3s-.4-.1-.6-.1-.4 0-.6.1-.3.2-.4.3-.2.3-.3.5-.1.4-.1.6c0 .5.1.8.4 1.1s.6.4 1.1.4c.2 0 .4 0 .6-.1s.3-.2.4-.3.2-.3.3-.5c.1-.1.1-.3.1-.6m-.2-4.3c0-.2 0-.4-.1-.5-.1-.2-.1-.3-.3-.4-.1-.1-.2-.2-.4-.3s-.3-.1-.5-.1c-.4 0-.7.1-.9.4-.2.2-.3.6-.3 1 0 .2 0 .4.1.6s.1.3.2.4.2.2.4.3.3.1.5.1.4 0 .5-.1c.2-.1.3-.2.4-.3s.2-.3.2-.4c.2-.3.2-.5.2-.7m9 4.4 1.9-7.2h2.1l-3 10h-2l-3-10h2.1zm20.2 0 1.9-7.2h2.1l-3 10h-2l-3-10h2.1zm12.1-4.7c.3 0 .6 0 .8.1.2 0 .4.1.6.1l-.3 1.9c-.2-.1-.5-.1-.8-.1h-.7c-.5 0-1 .1-1.3.3s-.6.5-.7.9v4.4H690v-7.4h1.8l.1 1.2c.3-.4.7-.7 1.1-1s.8-.4 1.3-.4m8.4 7.6c-.6 0-1.1-.1-1.6-.3s-.9-.4-1.2-.8c-.3-.3-.6-.7-.8-1.1s-.3-.9-.3-1.4v-.3q0-.9.3-1.5c.2-.5.4-.9.7-1.2s.7-.6 1.1-.8.9-.3 1.4-.3 1 .1 1.4.3.8.4 1.1.7.5.7.7 1.2c.2.4.2.9.2 1.5v.8h-5c0 .3.1.5.2.7s.3.4.4.5q.3.3.6.3c.2.1.5.1.7.1s.4 0 .6-.1c.2 0 .4-.1.5-.2.2-.1.3-.2.5-.3.1-.1.3-.2.4-.4l1 1c-.1.2-.3.3-.5.5s-.4.3-.7.4-.5.2-.9.3c-.1.4-.4.4-.8.4m-.2-6.1c-.2 0-.4 0-.6.1s-.3.2-.5.3c-.1.1-.2.3-.3.5s-.2.4-.2.7h3.1v-.2c0-.2 0-.4-.1-.6s-.2-.3-.3-.5c-.1-.1-.3-.2-.5-.3zm8.5 6v-6h-1.9v-1.4h1.9v-.4c0-.5.1-.9.2-1.3.2-.4.4-.7.7-.9.3-.3.6-.4 1-.6.4-.1.9-.2 1.4-.2h.9c.1 0 .3 0 .4.1.1 0 .3 0 .5.1l-.1 1.5c-.2 0-.4-.1-.6-.1h-.8c-.6 0-1 .1-1.3.4s-.4.6-.4 1.1v.4h2.7v1.4h-2.7v6H711z"/><path d="M596 569h132c2.2 0 4 1.8 4 4v26c0 2.2-1.8 4-4 4H596c-2.2 0-4-1.8-4-4v-26c0-2.2 1.8-4 4-4z" class="st9"/><path d="M648.5 609h27c6.6 0 12 5.4 12 12s-5.4 12-12 12h-27c-6.6 0-12-5.4-12-12s5.4-12 12-12" class="st4"/><path d="m648.8 621.1.6-5.1h5.5v1.6h-4l-.2 2.2q.15-.15.6-.3c.3-.1.6-.1.9-.1.5 0 .9.1 1.3.2.4.2.7.4 1 .7s.5.6.6 1.1c.1.4.2.9.2 1.4 0 .4-.1.9-.2 1.3s-.3.8-.6 1.1-.6.5-1 .7q-.6.3-1.5.3c-.4 0-.8-.1-1.2-.2s-.7-.3-1.1-.6c-.3-.2-.6-.5-.8-.9q-.3-.6-.3-1.2h1.9c0 .4.2.8.5 1s.6.4 1 .4c.3 0 .5 0 .6-.1.2-.1.3-.2.4-.4s.2-.4.2-.6c.1-.2.1-.5.1-.8s0-.5-.1-.7l-.3-.6c-.1-.2-.3-.3-.5-.4s-.4-.1-.7-.1h-.5c-.1 0-.3.1-.4.1-.1.1-.2.1-.3.2s-.2.1-.2.2zm11.1-2.5.1.9c.1-.3.3-.6.6-.8q.45-.3.9-.3c.6 0 1 .3 1.2.8q.15-.3.6-.6c.2-.1.5-.2.8-.2.2 0 .4 0 .6.1s.4.2.5.4.3.4.3.7c.1.3.1.6.1 1v5.3h-1.7v-5.6c0-.1-.1-.2-.1-.2-.1-.1-.1-.1-.2-.1h-.2c-.1 0-.2 0-.3.1s-.2.1-.2.2v5.6h-1.7v-5.6c0-.1-.1-.2-.1-.2s-.1-.1-.2-.1h-.2c-.1 0-.3 0-.4.1s-.2.2-.2.3v5.5h-1.7v-7.4h1.5zm13.8 5.3h-3l-.6 2.1h-2l3.3-10h1.7l3.2 10h-2zm-2.5-1.6h2.1l-1-3.7zM596 192h152c2.2 0 4 1.8 4 4v26c0 2.2-1.8 4-4 4H596c-2.2 0-4-1.8-4-4v-26c0-2.2 1.8-4 4-4" class="st0"/><path d="M615.1 210.9c0 .5-.1 1-.3 1.4s-.4.7-.7 1-.7.5-1.1.7c-.4.1-.9.2-1.4.2-.6 0-1.1-.1-1.6-.3s-.8-.5-1.1-.9-.5-.9-.7-1.4-.2-1.1-.2-1.8v-1.3q0-1.05.3-1.8c.2-.5.4-1 .7-1.4q.45-.6 1.2-.9t1.5-.3c.5 0 1 .1 1.5.2.4.2.8.4 1.1.7s.5.6.7 1.1c.2.4.3.9.3 1.4h-1.9c0-.3-.1-.6-.1-.8l-.3-.6c-.1-.1-.3-.3-.5-.3-.2-.1-.4-.1-.7-.1s-.6.1-.8.2-.4.3-.5.6q-.15.3-.3.9c-.1.4-.1.8-.1 1.2v1.4c0 1 .1 1.7.4 2.2s.7.7 1.3.7c.5 0 .9-.1 1.2-.4s.5-.7.5-1.3h1.6zm3-.7c0-.5.1-1 .2-1.5.2-.5.4-.9.7-1.2s.7-.6 1.1-.8q.6-.3 1.5-.3t1.5.3c.4.2.8.5 1.1.8s.5.7.7 1.2.2 1 .2 1.5v.1c0 .5-.1 1-.2 1.5-.2.5-.4.9-.7 1.2s-.7.6-1.1.8q-.6.3-1.5.3t-1.5-.3c-.4-.2-.8-.5-1.1-.8s-.5-.7-.7-1.2-.2-1-.2-1.5zm1.9.2c0 .3 0 .6.1.9s.2.5.3.7.3.4.5.5.5.2.7.2c.3 0 .5-.1.7-.2s.4-.3.5-.5.2-.4.3-.7.1-.6.1-.9v-.1c0-.3 0-.6-.1-.9s-.2-.5-.3-.7-.3-.4-.5-.5-.4-.2-.7-.2-.5.1-.7.2-.4.3-.5.5-.2.4-.3.7-.1.6-.1.9zm10.1-3.8.1 1c.3-.4.6-.7 1-.9s.8-.3 1.3-.3c.4 0 .7.1 1 .2s.6.3.8.5.4.5.5.9.2.8.2 1.4v4.6h-1.9v-4.5c0-.3 0-.5-.1-.7s-.2-.3-.3-.5c-.1-.1-.3-.2-.4-.2-.2 0-.4-.1-.6-.1-.3 0-.6.1-.8.2s-.4.3-.6.5v5.3h-1.9v-7.4zm11.9-1.8v1.8h2.8v1.4H642v3.2c0 .3 0 .5.1.7s.2.3.3.4.3.2.4.2c.2 0 .3.1.5.1h.8c.1 0 .3 0 .4-.1.1 0 .2 0 .3-.1l.2 1.3c-.1.1-.3.1-.5.2s-.4.1-.6.1-.4.1-.6.1h-.6c-.4 0-.8-.1-1.1-.2s-.6-.3-.8-.5-.4-.5-.5-.9-.2-.8-.2-1.3V208h-1.7v-1.4h1.7v-1.8zm11.9 1.7c.3 0 .6 0 .8.1.2 0 .4.1.6.1l-.3 1.9c-.2-.1-.5-.1-.8-.1h-.7c-.5 0-1 .1-1.3.3s-.6.5-.7.9v4.4h-1.9v-7.4h1.8l.1 1.2c.3-.4.7-.7 1.1-1 .3-.3.8-.4 1.3-.4m4.5 3.7c0-.5.1-1 .2-1.5.2-.5.4-.9.7-1.2s.7-.6 1.1-.8q.6-.3 1.5-.3t1.5.3c.4.2.8.5 1.1.8s.5.7.7 1.2.2 1 .2 1.5v.1c0 .5-.1 1-.2 1.5-.2.5-.4.9-.7 1.2s-.7.6-1.1.8q-.6.3-1.5.3t-1.5-.3c-.4-.2-.8-.5-1.1-.8s-.5-.7-.7-1.2-.2-1-.2-1.5zm1.9.2c0 .3 0 .6.1.9s.2.5.3.7.3.4.5.5.5.2.7.2c.3 0 .5-.1.7-.2s.4-.3.5-.5.2-.4.3-.7.1-.6.1-.9v-.1c0-.3 0-.6-.1-.9s-.2-.5-.3-.7-.3-.4-.5-.5-.4-.2-.7-.2-.5.1-.7.2-.4.3-.5.5-.2.4-.3.7-.1.6-.1.9zm8.9-6.9h4.1v9h2.1v1.5h-6.3v-1.5h2.2v-7.4h-2.2v-1.6zm20.1 0h4.1v9h2.1v1.5h-6.3v-1.5h2.2v-7.4h-2.2v-1.6zm9.5 6.7c0-.5.1-1 .2-1.5.2-.5.4-.9.7-1.2s.7-.6 1.1-.8q.6-.3 1.5-.3t1.5.3c.4.2.8.5 1.1.8s.5.7.7 1.2.2 1 .2 1.5v.1c0 .5-.1 1-.2 1.5-.2.5-.4.9-.7 1.2s-.7.6-1.1.8q-.6.3-1.5.3t-1.5-.3c-.4-.2-.8-.5-1.1-.8s-.5-.7-.7-1.2-.2-1-.2-1.5zm1.9.2c0 .3 0 .6.1.9s.2.5.3.7.3.4.5.5.5.2.7.2c.3 0 .5-.1.7-.2s.4-.3.5-.5.2-.4.3-.7.1-.6.1-.9v-.1c0-.3 0-.6-.1-.9s-.2-.5-.3-.7-.3-.4-.5-.5-.4-.2-.7-.2-.5.1-.7.2-.4.3-.5.5-.2.4-.3.7-.1.6-.1.9zm8.2-.2c0-.6.1-1.1.2-1.5q.15-.75.6-1.2c.3-.3.6-.6.9-.8.4-.2.8-.3 1.3-.3.4 0 .8.1 1.1.2s.6.4.8.6l.1-.7h1.7v7.2c0 .5-.1.9-.3 1.3s-.4.7-.7 1-.7.5-1.1.6-.9.2-1.4.2c-.2 0-.5 0-.7-.1-.3 0-.5-.1-.8-.2s-.5-.2-.7-.4c-.2-.1-.4-.3-.6-.5l.9-1.2c.2.3.5.5.8.6s.6.2 1 .2c.5 0 .9-.1 1.2-.4s.5-.7.5-1.2v-.4c-.2.2-.5.4-.8.6-.3.1-.6.2-1 .2q-.75 0-1.2-.3c-.4-.2-.7-.5-.9-.8q-.45-.45-.6-1.2c-.1-.5-.2-1-.2-1.5zm1.9.2c0 .3 0 .6.1.9s.2.5.3.7.3.4.5.5.4.2.7.2.6-.1.8-.2.4-.3.5-.5v-3.1c-.1-.2-.3-.4-.5-.5s-.5-.2-.8-.2-.5.1-.7.2-.4.3-.5.5-.2.4-.3.7-.1.6-.1.9zm8.9-3.8h4v5.9h2v1.5h-6v-1.5h2.1v-4.3h-2.1zm2-1.9c0-.1 0-.3.1-.4s.1-.2.2-.3.2-.2.3-.2.3-.1.5-.1c.3 0 .6.1.8.3s.3.4.3.7-.1.5-.3.7-.5.3-.8.3c-.2 0-.3 0-.5-.1-.1-.1-.2-.1-.3-.2s-.2-.2-.2-.3c-.1-.1-.1-.2-.1-.4m10.9 7.9c.2 0 .4 0 .5-.1.2-.1.3-.1.4-.2s.2-.2.3-.4c.1-.1.1-.3.1-.5h1.8c0 .4-.1.7-.2 1.1-.2.3-.4.6-.7.8s-.6.4-1 .6c-.4.1-.8.2-1.2.2q-.9 0-1.5-.3c-.4-.2-.8-.5-1.1-.8s-.5-.7-.7-1.2c-.1-.5-.2-.9-.2-1.5v-.2c0-.5.1-1 .2-1.5s.4-.9.7-1.2.7-.6 1.1-.8q.6-.3 1.5-.3c.5 0 .9.1 1.3.2s.7.3 1 .6c.3.2.5.5.7.9s.2.7.2 1.2H734c0-.2 0-.4-.1-.5-.1-.2-.2-.3-.3-.4s-.3-.2-.4-.3c-.2-.1-.4-.1-.6-.1-.3 0-.5.1-.7.2s-.4.3-.5.5-.2.4-.2.7-.1.5-.1.8v.2c0 .3 0 .6.1.8 0 .3.1.5.2.7s.3.4.5.5c.1.3.4.3.7.3"/><path d="M596 192h152c2.2 0 4 1.8 4 4v26c0 2.2-1.8 4-4 4H596c-2.2 0-4-1.8-4-4v-26c0-2.2 1.8-4 4-4z" class="st9"/><path d="M596 453h233c2.2 0 4 1.8 4 4v26c0 2.2-1.8 4-4 4H596c-2.2 0-4-1.8-4-4v-26c0-2.2 1.8-4 4-4" class="st0"/><path d="M614.9 471.2c0 .6-.1 1.2-.2 1.7s-.4.9-.6 1.2c-.3.3-.6.6-1 .7-.4.2-.9.3-1.4.3s-.9-.1-1.3-.3-.7-.4-1-.7q-.45-.45-.6-1.2c-.2-.5-.2-1.1-.2-1.7v-2.4c0-.6.1-1.2.2-1.7q.3-.75.6-1.2c.3-.3.6-.6 1-.8s.9-.3 1.3-.3c.5 0 1 .1 1.4.3s.7.4 1 .8c.3.3.5.7.7 1.2s.2 1.1.2 1.7v2.4zm-4.6-.8 2.7-2q0-1.05-.3-1.5c-.2-.3-.5-.5-1-.5-.4 0-.8.2-1 .5s-.3.9-.3 1.6v1.9zm2.6-.7-2.7 2c0 .7.1 1.1.4 1.5.2.3.5.5 1 .5.4 0 .8-.2 1-.5s.3-.9.3-1.6zm12.2 1.7h-5.7v-1.5h5.7zm3.6-1.3.6-5.1h5.5v1.6h-4l-.2 2.2q.15-.15.6-.3c.3-.1.6-.1.9-.1.5 0 .9.1 1.3.2.4.2.7.4 1 .7s.5.6.6 1.1c.1.4.2.9.2 1.4 0 .4-.1.9-.2 1.3s-.3.8-.6 1.1-.6.5-1 .7q-.6.3-1.5.3c-.4 0-.8-.1-1.2-.2s-.8-.3-1.1-.6c-.3-.2-.6-.5-.8-.9q-.3-.6-.3-1.2h1.9c0 .4.2.8.5 1s.6.4 1 .4c.3 0 .5 0 .7-.1s.3-.2.4-.4.2-.4.2-.6c.1-.2.1-.5.1-.8s0-.5-.1-.7l-.3-.6c-.1-.2-.3-.3-.5-.4s-.4-.1-.7-.1h-.5c-.1 0-.3.1-.4.1s-.2.1-.3.2-.2.1-.2.2zm13.2 2.1 1.9-7.2h2.1l-3 10h-2l-3-10h2.1zm17.4-4.6h4v5.9h2v1.5h-6v-1.5h2.1v-4.3h-2.1zm2-1.9c0-.1 0-.3.1-.4s.1-.2.2-.3.2-.2.3-.2c.1-.1.3-.1.5-.1.3 0 .6.1.8.3s.3.4.3.7-.1.5-.3.7-.5.3-.8.3c-.2 0-.3 0-.5-.1-.1 0-.2-.1-.3-.2s-.2-.2-.2-.3c-.1-.1-.1-.2-.1-.4m9.3 1.9.1 1c.3-.4.6-.7 1-.9s.8-.3 1.3-.3c.4 0 .7.1 1 .2s.6.3.8.5.4.5.5.9.2.8.2 1.4v4.6h-1.9v-4.5c0-.3 0-.5-.1-.7s-.2-.3-.3-.5c-.1-.1-.3-.2-.4-.2-.2 0-.4-.1-.6-.1-.3 0-.6.1-.8.2s-.4.3-.6.5v5.3h-1.9v-7.4zm15 3.8c0 .5-.1 1-.2 1.5q-.15.75-.6 1.2c-.2.3-.5.6-.9.8q-.6.3-1.2.3c-.4 0-.7-.1-1-.2s-.6-.3-.8-.6v3.5H679v-10.2h1.8l.1.7c.2-.3.5-.5.8-.6s.7-.2 1.1-.2q.75 0 1.2.3c.4.2.7.4.9.8q.3.45.6 1.2c.1.5.2 1 .2 1.5zm-1.9-.2c0-.3 0-.6-.1-.9s-.1-.5-.3-.7c-.1-.2-.3-.4-.5-.5s-.4-.2-.7-.2-.6.1-.8.2-.4.3-.5.5v3.1c.1.2.3.4.5.6.2.1.5.2.8.2s.5-.1.7-.2.3-.3.5-.5c.1-.2.2-.4.3-.7s.1-.6.1-.9m10.1 2.8c-.2.4-.6.7-.9.9-.4.2-.7.3-1.2.3-.4 0-.7-.1-1.1-.2-.3-.1-.6-.3-.8-.6s-.4-.6-.5-1-.2-.9-.2-1.4v-4.4h1.9v4.4c0 .3 0 .6.1.8 0 .2.1.4.2.5s.2.2.4.3.3.1.6.1c.4 0 .7-.1.9-.2s.4-.3.5-.6v-5.2h1.9v7.4h-1.7zm8.9-8.2v1.8h2.8v1.4h-2.8v3.2c0 .3 0 .5.1.7s.2.3.3.4.3.2.4.2c.2 0 .3.1.5.1h.8c.1 0 .3 0 .4-.1.1 0 .2 0 .3-.1l.2 1.3c-.1.1-.3.1-.5.2s-.4.1-.6.1-.4.1-.6.1h-.6c-.4 0-.8-.1-1.1-.2s-.6-.3-.8-.5-.4-.5-.5-.9-.2-.8-.2-1.3V469h-1.7v-1.4h1.7v-1.8zm22 1.7c.3 0 .6 0 .8.1.2 0 .4.1.6.1l-.3 1.9c-.3-.1-.5-.1-.8-.1h-.7c-.5 0-1 .1-1.3.3s-.6.5-.7.9v4.4h-1.9v-7.4h1.8l.1 1.2c.3-.4.7-.7 1.1-1 .3-.3.8-.4 1.3-.4m8.3 7.6c-.6 0-1.1-.1-1.6-.3s-.9-.4-1.2-.8c-.3-.3-.6-.7-.8-1.1s-.3-.9-.3-1.4v-.3q0-.9.3-1.5c.2-.5.4-.9.7-1.2s.7-.6 1.1-.8.9-.3 1.4-.3 1 .1 1.4.3.8.4 1.1.7.5.7.7 1.2c.1.4.2.9.2 1.5v.8h-5c0 .3.1.5.2.7s.3.4.4.5c.2.1.4.3.6.3.2.1.5.1.7.1s.4 0 .6-.1c.2 0 .4-.1.5-.2.2-.1.3-.2.5-.3s.3-.2.4-.4l1 1c-.1.2-.3.3-.5.5s-.4.3-.7.4-.5.2-.9.3c-.1.4-.4.4-.8.4m-.2-6.1c-.2 0-.4 0-.6.1s-.3.2-.5.3c-.1.1-.2.3-.3.5s-.2.4-.2.7h3.1v-.1c0-.2 0-.4-.1-.6s-.2-.3-.3-.5c-.1-.1-.3-.2-.5-.3-.1-.1-.4-.1-.6-.1m8.6 6v-6h-1.9v-1.4h1.9v-.4c0-.5.1-.9.2-1.3.2-.4.4-.7.7-.9.3-.3.6-.4 1-.6.4-.1.9-.2 1.4-.2h.9c.1 0 .3 0 .4.1.1 0 .3 0 .5.1l-.1 1.5c-.2 0-.4-.1-.6-.1h-.8c-.6 0-1 .1-1.3.4s-.4.6-.4 1.1v.4h2.7v1.4h-2.7v6h-1.9zm11.8.1c-.6 0-1.1-.1-1.6-.3s-.9-.4-1.2-.8c-.3-.3-.6-.7-.8-1.1s-.3-.9-.3-1.4v-.3q0-.9.3-1.5c.2-.5.4-.9.7-1.2s.7-.6 1.1-.8.9-.3 1.4-.3 1 .1 1.4.3.8.4 1.1.7.5.7.7 1.2c.2.4.2.9.2 1.5v.8h-5c0 .3.1.5.2.7s.3.4.4.5c.2.1.4.3.6.3.2.1.5.1.7.1s.4 0 .6-.1c.2 0 .4-.1.5-.2.2-.1.3-.2.5-.3s.3-.2.4-.4l1 1c-.1.2-.3.3-.5.5s-.4.3-.7.4-.5.2-.9.3c-.1.4-.4.4-.8.4m-.2-6.1c-.2 0-.4 0-.6.1s-.3.2-.5.3c-.1.1-.2.3-.3.5s-.2.4-.2.7h3.1v-.1c0-.2 0-.4-.1-.6s-.2-.3-.3-.5c-.1-.1-.3-.2-.5-.3s-.4-.1-.6-.1m12-1.5c.3 0 .6 0 .8.1.2 0 .4.1.6.1l-.3 1.9c-.3-.1-.5-.1-.8-.1h-.7c-.5 0-1 .1-1.3.3s-.6.5-.7.9v4.4h-1.9v-7.4h1.8l.1 1.2c.3-.4.7-.7 1.1-1s.8-.4 1.3-.4m8.4 7.6c-.6 0-1.1-.1-1.6-.3s-.9-.4-1.2-.8c-.3-.3-.6-.7-.8-1.1s-.3-.9-.3-1.4v-.3q0-.9.3-1.5c.2-.5.4-.9.7-1.2s.7-.6 1.1-.8.9-.3 1.4-.3 1 .1 1.4.3.8.4 1.1.7.5.7.7 1.2c.2.4.2.9.2 1.5v.8h-5c0 .3.1.5.2.7s.3.4.4.5c.2.1.4.3.6.3.2.1.5.1.7.1s.4 0 .6-.1c.2 0 .4-.1.5-.2.2-.1.3-.2.5-.3.1-.1.3-.2.4-.4l1 1c-.1.2-.3.3-.5.5s-.4.3-.7.4-.5.2-.9.3c-.1.4-.5.4-.8.4m-.2-6.1c-.2 0-.4 0-.6.1s-.3.2-.5.3c-.1.1-.2.3-.3.5s-.2.4-.2.7h3.1v-.1c0-.2 0-.4-.1-.6s-.2-.3-.3-.5c-.1-.1-.3-.2-.5-.3s-.4-.1-.6-.1m8.4-1.4.1 1c.3-.4.6-.7 1-.9s.8-.3 1.3-.3c.4 0 .7.1 1 .2s.6.3.8.5.4.5.5.9.2.8.2 1.4v4.6h-1.9v-4.5c0-.3 0-.5-.1-.7s-.2-.3-.3-.5c-.1-.1-.3-.2-.4-.2-.2 0-.4-.1-.6-.1-.3 0-.6.1-.8.2s-.4.3-.6.5v5.3h-1.9v-7.4zm11.6 6c.2 0 .4 0 .5-.1.2-.1.3-.1.4-.2s.2-.2.3-.4c.1-.1.1-.3.1-.5h1.8c0 .4-.1.7-.2 1.1-.2.3-.4.6-.7.8s-.6.4-1 .6c-.4.1-.8.2-1.2.2q-.9 0-1.5-.3c-.4-.2-.8-.5-1.1-.8s-.5-.7-.7-1.2c-.1-.5-.2-.9-.2-1.5v-.2c0-.5.1-1 .2-1.5s.4-.9.7-1.2.7-.6 1.1-.8q.6-.3 1.5-.3c.5 0 .9.1 1.3.2s.7.3 1 .6c.3.2.5.5.7.9s.2.7.2 1.2h-1.8c0-.2 0-.4-.1-.5-.1-.2-.2-.3-.3-.4s-.3-.2-.4-.3c-.2-.1-.4-.1-.6-.1-.3 0-.5.1-.7.2s-.4.3-.5.5-.2.4-.2.7-.1.5-.1.8v.2c0 .3 0 .6.1.8 0 .3.1.5.2.7s.3.4.5.5c.2.3.4.3.7.3m10.4 1.5c-.6 0-1.1-.1-1.6-.3s-.9-.4-1.2-.8c-.3-.3-.6-.7-.8-1.1s-.3-.9-.3-1.4v-.3q0-.9.3-1.5c.2-.5.4-.9.7-1.2s.7-.6 1.1-.8.9-.3 1.4-.3 1 .1 1.4.3.8.4 1.1.7.5.7.7 1.2c.1.4.2.9.2 1.5v.8h-5c0 .3.1.5.2.7s.3.4.4.5c.2.1.4.3.6.3.2.1.5.1.7.1s.4 0 .6-.1c.2 0 .4-.1.5-.2.2-.1.3-.2.5-.3s.3-.2.4-.4l1 1c-.1.2-.3.3-.5.5s-.4.3-.7.4-.5.2-.9.3c-.1.4-.4.4-.8.4m-.2-6.1c-.2 0-.4 0-.6.1s-.3.2-.5.3c-.1.1-.2.3-.3.5s-.2.4-.2.7h3.1v-.1c0-.2 0-.4-.1-.6s-.2-.3-.3-.5c-.1-.1-.3-.2-.5-.3-.1-.1-.3-.1-.6-.1m11.5 4c0-.1 0-.2-.1-.3 0-.1-.1-.2-.3-.2-.1-.1-.3-.1-.5-.2s-.5-.1-.8-.2l-1.2-.3c-.4-.1-.7-.3-.9-.5q-.45-.3-.6-.6c-.1-.2-.2-.5-.2-.8s.1-.6.2-.9.4-.5.6-.7c.3-.2.6-.4 1-.5s.8-.2 1.3-.2 1 .1 1.4.2.8.3 1 .5c.3.2.5.5.7.8s.2.6.2 1h-1.9c0-.3-.1-.5-.3-.7s-.6-.3-1.1-.3c-.4 0-.8.1-1 .2q-.3.3-.3.6c0 .1 0 .2.1.3 0 .1.1.2.2.3s.3.1.5.2.5.1.8.2c.4.1.9.2 1.2.3.4.1.7.3 1 .4.3.2.5.4.7.7s.2.6.2.9-.1.6-.2.9c-.2.3-.4.5-.7.7s-.6.4-1 .5-.9.2-1.4.2c-.6 0-1-.1-1.5-.2-.4-.1-.8-.3-1.1-.6-.3-.2-.5-.5-.7-.8-.1-.3-.2-.6-.2-.9h1.8c0 .2.1.4.2.5s.2.3.4.3c.2.1.3.2.5.2s.4.1.6.1c.5 0 .8-.1 1.1-.2.2-.5.3-.7.3-.9"/><path d="M596 453h233c2.2 0 4 1.8 4 4v26c0 2.2-1.8 4-4 4H596c-2.2 0-4-1.8-4-4v-26c0-2.2 1.8-4 4-4z" class="st9"/><path d="M596 714h182c2.2 0 4 1.8 4 4v26c0 2.2-1.8 4-4 4H596c-2.2 0-4-1.8-4-4v-26c0-2.2 1.8-4 4-4" class="st0"/><path d="M613.6 732.3h1.2v1.5h-1.2v2.2h-1.9v-2.2h-4.1l-.1-1.2 4.2-6.6h1.9zm-4.2 0h2.3v-3.7l-.2.3zm15.4.1h-5.7v-1.5h5.7zm10 3.6H628v-1.3l3.2-3.5c.3-.3.5-.5.6-.7.2-.2.3-.4.4-.6s.2-.4.2-.5c0-.2.1-.3.1-.5s0-.4-.1-.6-.2-.3-.3-.4-.3-.2-.4-.3c-.2-.1-.3-.1-.5-.1-.5 0-.9.1-1.2.4s-.4.7-.4 1.2h-1.9c0-.4.1-.9.3-1.3s.4-.7.7-1 .7-.5 1.1-.7q.6-.3 1.5-.3c.5 0 1 .1 1.3.2.4.1.7.3 1 .6q.45.45.6.9c.1.4.2.7.2 1.2 0 .3-.1.6-.2.9s-.2.6-.4.9-.4.6-.7.9l-.9.9-1.9 2h4.4v1.7zm10-3.8c0 .6-.1 1.2-.2 1.7s-.4.9-.6 1.2c-.3.3-.6.6-1 .7-.4.2-.9.3-1.4.3s-.9-.1-1.3-.3-.7-.4-1-.7q-.45-.45-.6-1.2c-.2-.5-.2-1.1-.2-1.7v-2.4c0-.6.1-1.2.2-1.7q.3-.75.6-1.2c.3-.3.6-.6 1-.8s.8-.3 1.3-.3 1 .1 1.4.3.7.4 1 .8q.45.45.6 1.2c.2.5.2 1.1.2 1.7zm-4.5-.8 2.7-2q0-1.05-.3-1.5c-.2-.3-.5-.5-1-.5-.4 0-.8.2-1 .5s-.3.9-.3 1.6v1.9zm2.6-.7-2.7 2c0 .7.1 1.1.4 1.5.2.3.5.5 1 .5.4 0 .8-.2 1-.5s.3-.9.3-1.6zm6.7-2.1.1.9c.1-.3.3-.6.6-.8q.45-.3.9-.3c.6 0 1 .3 1.2.8q.15-.3.6-.6c.2-.1.5-.2.8-.2.2 0 .4 0 .6.1s.4.2.5.4.3.4.3.7c.1.3.1.6.1 1v5.3h-1.7v-5.6c0-.1-.1-.2-.1-.2 0-.1-.1-.1-.2-.1h-.2c-.1 0-.2 0-.3.1s-.2.1-.2.2v5.6h-1.7v-5.6c0-.1-.1-.2-.1-.2s-.1-.1-.2-.1h-.2c-.1 0-.3 0-.4.1s-.2.2-.2.3v5.5H648v-7.4h1.6zm13.8 5.3h-3l-.6 2.1h-2l3.3-10h1.7l3.2 10h-2zm-2.6-1.6h2.1l-1-3.7zm23.2-3.8c.3 0 .6 0 .8.1.2 0 .4.1.6.1l-.3 1.9c-.3-.1-.5-.1-.8-.1h-.7c-.5 0-1 .1-1.3.3s-.6.5-.7.9v4.4h-1.9v-7.4h1.8l.1 1.2c.3-.4.7-.7 1.1-1s.8-.4 1.3-.4m8.4 7.6c-.6 0-1.1-.1-1.6-.3s-.9-.4-1.2-.8c-.3-.3-.6-.7-.8-1.1s-.3-.9-.3-1.4v-.3q0-.9.3-1.5c.2-.5.4-.9.7-1.2s.7-.6 1.1-.8.9-.3 1.4-.3 1 .1 1.4.3.8.4 1.1.7.5.7.7 1.2c.2.4.2.9.2 1.5v.8h-5c0 .3.1.5.2.7s.3.4.4.5q.3.3.6.3c.2.1.5.1.7.1s.4 0 .6-.1c.2 0 .4-.1.5-.2.2-.1.3-.2.5-.3.1-.1.3-.2.4-.4l1 1c-.1.2-.3.3-.5.5s-.4.3-.7.4-.5.2-.9.3c-.1.4-.4.4-.8.4m-.2-6.1c-.2 0-.4 0-.6.1s-.3.2-.5.3c-.1.1-.2.3-.3.5s-.2.4-.2.7h3.1v-.2c0-.2 0-.4-.1-.6s-.2-.3-.3-.5c-.1-.1-.3-.2-.5-.3zm8.5 6v-6h-1.9v-1.4h1.9v-.4c0-.5.1-.9.2-1.3.2-.4.4-.7.7-.9.3-.3.6-.4 1-.6.4-.1.9-.2 1.4-.2h.9c.1 0 .3 0 .4.1.1 0 .3 0 .5.1l-.1 1.5c-.2 0-.4-.1-.6-.1h-.8c-.6 0-1 .1-1.3.4s-.4.6-.4 1.1v.4h2.7v1.4h-2.7v6h-1.9zm11.9.1c-.6 0-1.1-.1-1.6-.3s-.9-.4-1.2-.8c-.3-.3-.6-.7-.8-1.1s-.3-.9-.3-1.4v-.3q0-.9.3-1.5c.2-.5.4-.9.7-1.2s.7-.6 1.1-.8.9-.3 1.4-.3 1 .1 1.4.3.8.4 1.1.7.5.7.7 1.2c.1.4.2.9.2 1.5v.8h-5c0 .3.1.5.2.7s.3.4.4.5q.3.3.6.3c.2.1.5.1.7.1s.4 0 .6-.1c.2 0 .4-.1.5-.2.2-.1.3-.2.5-.3.1-.1.3-.2.4-.4l1 1c-.1.2-.3.3-.5.5s-.4.3-.7.4-.5.2-.9.3c-.1.4-.5.4-.8.4m-.3-6.1c-.2 0-.4 0-.6.1s-.3.2-.5.3c-.1.1-.2.3-.3.5s-.2.4-.2.7h3.1v-.2c0-.2 0-.4-.1-.6s-.2-.3-.3-.5c-.1-.1-.3-.2-.5-.3zm12.1-1.5c.3 0 .6 0 .8.1.2 0 .4.1.6.1l-.3 1.9c-.2-.1-.5-.1-.8-.1h-.7c-.5 0-1 .1-1.3.3s-.6.5-.7.9v4.4h-1.9v-7.4h1.8l.1 1.2c.3-.4.7-.7 1.1-1 .3-.3.8-.4 1.3-.4m8.3 7.6c-.6 0-1.1-.1-1.6-.3s-.9-.4-1.2-.8c-.3-.3-.6-.7-.8-1.1s-.3-.9-.3-1.4v-.3q0-.9.3-1.5c.2-.5.4-.9.7-1.2s.7-.6 1.1-.8.9-.3 1.4-.3 1 .1 1.4.3.8.4 1.1.7.5.7.7 1.2c.2.4.2.9.2 1.5v.8h-5c0 .3.1.5.2.7s.3.4.4.5q.3.3.6.3c.2.1.5.1.7.1s.4 0 .6-.1c.2 0 .4-.1.5-.2.2-.1.3-.2.5-.3.1-.1.3-.2.4-.4l1 1c-.1.2-.3.3-.5.5s-.4.3-.7.4-.5.2-.9.3c0 .4-.4.4-.8.4m-.2-6.1c-.2 0-.4 0-.6.1s-.3.2-.5.3c-.1.1-.2.3-.3.5s-.2.4-.2.7h3.1v-.2c0-.2 0-.4-.1-.6s-.2-.3-.3-.5c-.1-.1-.3-.2-.5-.3zm8.5-1.4.1 1c.3-.4.6-.7 1-.9s.8-.3 1.3-.3c.4 0 .7.1 1 .2s.6.3.8.5.4.5.5.9.2.8.2 1.4v4.6H744v-4.5c0-.3 0-.5-.1-.7s-.2-.3-.3-.5c-.1-.1-.3-.2-.4-.2-.2 0-.4-.1-.6-.1-.3 0-.6.1-.8.2s-.4.3-.6.5v5.3h-1.9v-7.4zm11.6 6c.2 0 .4 0 .5-.1.2-.1.3-.1.4-.2s.2-.2.3-.4c.1-.1.1-.3.1-.5h1.8c0 .4-.1.7-.2 1.1-.2.3-.4.6-.7.8s-.6.4-1 .6c-.4.1-.8.2-1.2.2q-.9 0-1.5-.3c-.4-.2-.8-.5-1.1-.8s-.5-.7-.7-1.2c-.1-.5-.2-.9-.2-1.5v-.2c0-.5.1-1 .2-1.5s.4-.9.7-1.2.7-.6 1.1-.8q.6-.3 1.5-.3c.5 0 .9.1 1.3.2s.7.3 1 .6c.3.2.5.5.7.9s.2.7.2 1.2H754c0-.2 0-.4-.1-.5-.1-.2-.2-.3-.3-.4s-.3-.2-.4-.3c-.2-.1-.4-.1-.6-.1-.3 0-.5.1-.7.2s-.4.3-.5.5-.2.4-.2.7-.1.5-.1.8v.2c0 .3 0 .6.1.8 0 .3.1.5.2.7s.3.4.5.5c.1.3.4.3.7.3m10.4 1.5c-.6 0-1.1-.1-1.6-.3s-.9-.4-1.2-.8c-.3-.3-.6-.7-.8-1.1s-.3-.9-.3-1.4v-.3q0-.9.3-1.5c.2-.5.4-.9.7-1.2s.7-.6 1.1-.8.9-.3 1.4-.3 1 .1 1.4.3.8.4 1.1.7.5.7.7 1.2c.2.4.2.9.2 1.5v.8h-5c0 .3.1.5.2.7s.3.4.4.5q.3.3.6.3c.2.1.5.1.7.1s.4 0 .6-.1c.2 0 .4-.1.5-.2.2-.1.3-.2.5-.3.1-.1.3-.2.4-.4l1 1c-.1.2-.3.3-.5.5s-.4.3-.7.4-.5.2-.9.3c-.1.4-.4.4-.8.4m-.2-6.1c-.2 0-.4 0-.6.1s-.3.2-.5.3c-.1.1-.2.3-.3.5s-.2.4-.2.7h3.1v-.2c0-.2 0-.4-.1-.6s-.2-.3-.3-.5c-.1-.1-.3-.2-.5-.3z"/><path d="M596 714h182c2.2 0 4 1.8 4 4v26c0 2.2-1.8 4-4 4H596c-2.2 0-4-1.8-4-4v-26c0-2.2 1.8-4 4-4z" class="st9"/><path d="M416.5 452h51c2.8 0 5 2.2 5 5v26c0 2.8-2.2 5-5 5h-51c-2.8 0-5-2.2-5-5v-26c0-2.8 2.2-5 5-5" class="st2"/><path d="M432.7 469.4h2.5v1.7h-2.5v2.8h-1.8v-2.8h-2.5v-1.7h2.5v-2.7h1.8zm6.2.7.6-5.1h5.5v1.6h-4l-.2 2.2q.15-.15.6-.3c.3-.1.6-.1.9-.1.5 0 .9.1 1.3.2.4.2.7.4 1 .7s.5.6.6 1.1c.1.4.2.9.2 1.4 0 .4-.1.9-.2 1.3s-.3.8-.6 1.1-.6.5-1 .7q-.6.3-1.5.3c-.4 0-.8-.1-1.2-.2s-.8-.3-1.1-.6-.6-.5-.8-.9q-.3-.6-.3-1.2h1.9c0 .4.2.8.5 1s.6.4 1 .4c.3 0 .5 0 .6-.1.2-.1.3-.2.4-.4s.2-.4.2-.6c.1-.2.1-.5.1-.8s0-.5-.1-.7l-.3-.6c-.1-.2-.3-.3-.5-.4s-.4-.1-.7-.1h-.5c-.1 0-.3.1-.4.1s-.2.1-.3.2-.2.1-.2.2zm13.2 2.1 1.9-7.2h2.1l-3 10h-2l-3-10h2.1z" class="st0"/></svg>