<?xml version="1.0" encoding="UTF-8"?>
<svg id="Layer_2" data-name="Layer 2" xmlns="http://www.w3.org/2000/svg" viewBox="0 0 272.84 105.68">
  <defs>
    <style>
      .cls-1 {
        fill: #f6f7f7;
      }

      .cls-1, .cls-2, .cls-3 {
        stroke: #95a5a6;
        stroke-width: .71px;
      }

      .cls-1, .cls-2, .cls-3, .cls-4 {
        stroke-linecap: round;
        stroke-linejoin: round;
      }

      .cls-5 {
        fill: #fefefe;
      }

      .cls-5, .cls-6, .cls-7, .cls-8, .cls-9, .cls-10, .cls-11 {
        stroke-width: 0px;
      }

      .cls-6, .cls-4 {
        fill: #2c353a;
      }

      .cls-7 {
        fill: #dbe1e1;
      }

      .cls-2 {
        fill: #95a5a6;
      }

      .cls-3 {
        fill: none;
      }

      .cls-8 {
        fill: #bdc7c7;
      }

      .cls-9 {
        fill: #f1c40f;
      }

      .cls-10 {
        fill: #00979d;
      }

      .cls-4 {
        stroke: #2c353a;
        stroke-width: .71px;
      }

      .cls-11 {
        fill: #f26727;
      }
    </style>
  </defs>
  <g id="Layer_1-2" data-name="Layer 1">
    <g>
      <path class="cls-10" d="M227.75.91l-.08,4.55h-31.44c-.02-.1-.02-.08-.02,0h-119.63c-.04-.07-.05-.06-.05,0h-31.36l-.08-4.55h182.66Z"/>
      <path class="cls-1" d="M45.21,8.03V.91l-.12-.55H.36l1.56,91.3c.02,1.24,1.03,2.24,2.28,2.24h264.46c1.24,0,2.26-1,2.28-2.24l1.56-91.3h-44.81v5.1"/>
      <path class="cls-2" d="M148.64,95.69c-2.21,4.76-6.98,7.81-12.22,7.81s-10.02-3.05-12.22-7.81c.17.01.35.01.54.01h23.35c.19,0,.37,0,.55-.01Z"/>
      <g>
        <path class="cls-5" d="M212.81,5.46v2.57H45.21l.49,28.21c0,.14,0,.28.01.42.5,13.32,11.36,23.75,24.66,23.82h132.09c13.32-.04,24.13-10.53,24.66-23.82,0-.14.01-.28.01-.42l.49-28.21.05-2.57h-14.86ZM145.85,18.93v1.68c0,.15-.07.21-.22.21h-3.81c-.06,0-.1,0-.15-.06l-.04-.04c-.05-.05-.09-.07-.15-.07h-9.41c-.06,0-.1.02-.15.07l-.04.04c-.05.05-.09.06-.15.06h-3.81c-.15,0-.22-.06-.22-.21v-8.16c0-.15.07-.21.22-.21h3.81c.06,0,.1,0,.15.06l.04.04s.09.07.15.07h9.41c.06,0,.1-.02.15-.07l.04-.04c.05-.05.09-.06.15-.06h3.81c.15,0,.22.06.22.21v2.25"/>
        <path class="cls-3" d="M212.81,5.46v2.57H45.21l.49,28.21c0,.14,0,.28.01.42.5,13.32,11.36,23.75,24.66,23.82h132.09c13.32-.04,24.13-10.53,24.66-23.82,0-.14.01-.28.01-.42l.49-28.21.05-2.57h-14.86ZM145.85,18.93v1.68c0,.15-.07.21-.22.21h-3.81c-.06,0-.1,0-.15-.06l-.04-.04c-.05-.05-.09-.07-.15-.07h-9.41c-.06,0-.1.02-.15.07l-.04.04c-.05.05-.09.06-.15.06h-3.81c-.15,0-.22-.06-.22-.21v-8.16c0-.15.07-.21.22-.21h3.81c.06,0,.1,0,.15.06l.04.04s.09.07.15.07h9.41c.06,0,.1-.02.15-.07l.04-.04c.05-.05.09-.06.15-.06h3.81c.15,0,.22.06.22.21v2.25"/>
      </g>
      <path class="cls-1" d="M151.98,93.9c-.86,1.42-1.93,1.74-3.34,1.79-.18.01-.36.01-.55.01h-23.35c-.19,0-.37,0-.54-.01-1.41-.05-2.49-.37-3.35-1.79h31.13Z"/>
      <path class="cls-4" d="M18.78,93.9v9.92c-6.39,2.01-12.04,2.01-18.43,0V10.85c.06-.02.12-.04.18-.06l1.42,80.88c.02,1.24,1.03,2.23,2.26,2.23h14.57Z"/>
      <path class="cls-4" d="M272.48,10.85v92.97c-6.39,2.01-12.04,2.01-18.43,0v-9.92h14.57c1.23,0,2.24-.99,2.26-2.23l.32-18.22v-.07l1.1-62.59c.06.02.12.04.18.06Z"/>
      <g>
        <line class="cls-1" x1="35.01" y1="36.69" x2="34.38" y2=".35"/>
        <line class="cls-1" x1="202.4" y1="71.5" x2="70.44" y2="71.5"/>
        <path class="cls-1" d="M236.16,46.97c-3.73,11.66-13.24,20.56-25.12,23.5"/>
        <line class="cls-1" x1="238.46" y1=".35" x2="237.83" y2="36.69"/>
        <path class="cls-1" d="M237.83,36.84c-.4,19.22-16.06,34.6-35.28,34.66"/>
        <path class="cls-1" d="M70.29,71.5c-19.22-.06-34.88-15.45-35.28-34.66"/>
      </g>
      <g>
        <path class="cls-10" d="M185.04,38.89c4.28,4.31,11.26,4.31,15.56,0,4.29-4.26,4.29-11.23,0-15.55-4.33-4.29-11.28-4.29-15.56,0-4.3,4.32-4.33,11.25,0,15.55ZM187.3,31.13l5.51-5.48,5.5,5.48-5.5,5.52-5.51-5.52Z"/>
        <path class="cls-10" d="M73.26,38.89c4.28,4.31,11.24,4.31,15.56,0,4.27-4.26,4.27-11.23,0-15.55-4.34-4.29-11.28-4.29-15.56,0-4.3,4.32-4.33,11.25,0,15.55ZM75.52,31.13l5.5-5.48,5.49,5.48-5.49,5.52-5.5-5.52Z"/>
        <path class="cls-10" d="M147.9,31.14c.04,6.07-4.91,10.96-10.97,10.99-6.11-.02-11-4.93-11-11"/>
      </g>
      <g id="LED">
        <g>
          <rect class="cls-8" x="120.43" y="17.7" width="4.09" height="1.63" transform="translate(103.96 140.98) rotate(-90)"/>
          <path class="cls-9" d="M122.47,19.77c-.7,0-1.26-.56-1.26-1.26,0-.7.56-1.26,1.26-1.26s1.26.56,1.26,1.26c0,.69-.56,1.26-1.26,1.26Z"/>
        </g>
      </g>
      <g id="LED-2" data-name="LED">
        <g>
          <rect class="cls-8" x="147.77" y="17.7" width="4.09" height="1.63" transform="translate(131.31 168.33) rotate(-90)"/>
          <path class="cls-9" d="M149.82,19.77c-.7,0-1.26-.56-1.26-1.26s.56-1.26,1.26-1.26,1.26.56,1.26,1.26c0,.69-.56,1.26-1.26,1.26Z"/>
        </g>
      </g>
      <g id="LED-3" data-name="LED">
        <g>
          <rect class="cls-8" x="150.61" y="17.7" width="4.09" height="1.63" transform="translate(134.14 171.16) rotate(-90)"/>
          <path class="cls-9" d="M152.65,19.77c-.7,0-1.26-.56-1.26-1.26s.56-1.26,1.26-1.26,1.26.56,1.26,1.26c0,.69-.56,1.26-1.26,1.26Z"/>
        </g>
      </g>
      <g>
        <path class="cls-10" d="M144.37,26.24c-.24,0-.47.04-.68.13v-2.09c.21.08.44.13.68.13s.47-.04.68-.13v2.11c-.21-.09-.44-.13-.68-.13Z"/>
        <path class="cls-11" d="M144.37,26.24c-.24,0-.47.04-.68.13v-2.09c.21.08.44.13.68.13s.47-.04.68-.13v2.11c-.21-.09-.44-.13-.68-.13Z"/>
        <path class="cls-6" d="M144.37,26.24c-.24,0-.47.04-.68.13v-2.09c.21.08.44.13.68.13s.47-.04.68-.13v2.11c-.21-.09-.44-.13-.68-.13Z"/>
        <path class="cls-7" d="M144.37,24.4c-.24,0-.47-.04-.68-.13v-.35h1.36v.34c-.21.09-.44.13-.68.13Z"/>
        <path class="cls-7" d="M145.06,26.7h-1.36v-.34c.21-.08.44-.13.68-.13s.47.04.68.13v.33Z"/>
      </g>
      <g>
        <path class="cls-10" d="M149.82,13.16c-.24,0-.47.04-.68.13v-2.09c.21.08.44.13.68.13s.47-.04.68-.13v2.11c-.21-.09-.44-.13-.68-.13Z"/>
        <path class="cls-11" d="M149.82,13.16c-.24,0-.47.04-.68.13v-2.09c.21.08.44.13.68.13s.47-.04.68-.13v2.11c-.21-.09-.44-.13-.68-.13Z"/>
        <path class="cls-6" d="M149.82,13.16c-.24,0-.47.04-.68.13v-2.09c.21.08.44.13.68.13s.47-.04.68-.13v2.11c-.21-.09-.44-.13-.68-.13Z"/>
        <path class="cls-7" d="M149.82,11.32c-.24,0-.47-.04-.68-.13v-.35h1.36v.34c-.21.09-.44.13-.68.13Z"/>
        <path class="cls-7" d="M150.5,13.63h-1.36v-.34c.21-.08.44-.13.68-.13s.47.04.68.13v.33Z"/>
      </g>
      <g>
        <path class="cls-10" d="M135.75,30.19c0-.24-.04-.47-.13-.68h2.09c-.08.21-.13.44-.13.68s.04.47.13.68h-2.11c.09-.21.13-.44.13-.68Z"/>
        <path class="cls-11" d="M135.75,30.19c0-.24-.04-.47-.13-.68h2.09c-.08.21-.13.44-.13.68s.04.47.13.68h-2.11c.09-.21.13-.44.13-.68Z"/>
        <path class="cls-6" d="M135.75,30.19c0-.24-.04-.47-.13-.68h2.09c-.08.21-.13.44-.13.68s.04.47.13.68h-2.11c.09-.21.13-.44.13-.68Z"/>
        <path class="cls-7" d="M137.58,30.19c0-.24.04-.47.13-.68h.35v1.36h-.34c-.09-.21-.13-.44-.13-.68Z"/>
        <path class="cls-7" d="M135.28,30.88v-1.36h.34c.08.21.13.44.13.68s-.04.47-.13.68h-.33Z"/>
      </g>
      <g>
        <path class="cls-10" d="M131.9,25.31c0-.24-.04-.47-.13-.68h2.09c-.08.21-.13.44-.13.68s.04.47.13.68h-2.11c.09-.21.13-.44.13-.68Z"/>
        <path class="cls-11" d="M131.9,25.31c0-.24-.04-.47-.13-.68h2.09c-.08.21-.13.44-.13.68s.04.47.13.68h-2.11c.09-.21.13-.44.13-.68Z"/>
        <path class="cls-6" d="M131.9,25.31c0-.24-.04-.47-.13-.68h2.09c-.08.21-.13.44-.13.68s.04.47.13.68h-2.11c.09-.21.13-.44.13-.68Z"/>
        <path class="cls-7" d="M133.74,25.31c0-.24.04-.47.13-.68h.35v1.36h-.34c-.09-.21-.13-.44-.13-.68Z"/>
        <path class="cls-7" d="M131.43,26v-1.36h.34c.08.21.13.44.13.68s-.04.47-.13.68h-.33Z"/>
      </g>
      <g>
        <g>
          <rect class="cls-10" x="127.82" y="12.37" width="17.81" height="8.45" rx=".52" ry=".52"/>
          <rect class="cls-11" x="127.82" y="12.37" width="17.81" height="8.45" rx=".52" ry=".52"/>
          <rect class="cls-6" x="127.82" y="12.37" width="17.81" height="8.45" rx=".52" ry=".52"/>
        </g>
        <rect class="cls-7" x="142.01" y="15.67" width="2.11" height="2.23"/>
        <rect class="cls-7" x="130.94" y="15.86" width="1.76" height="1.85"/>
      </g>
    </g>
  </g>
</svg>