<?xml version="1.0" encoding="UTF-8"?>
<svg xmlns="http://www.w3.org/2000/svg" viewBox="0 0 129.3 50.4">
  <defs>
    <style>
      .cls-1 {
        fill: none;
      }

      .cls-2 {
        fill: #f7dc96;
      }

      .cls-3 {
        fill: #f9e7b8;
      }

      .cls-4 {
        fill: #010101;
      }

      .cls-5 {
        fill: #66aab1;
      }

      .cls-6 {
        fill: #eba900;
      }

      .cls-7 {
        fill: #ebaa01;
      }

      .cls-8 {
        fill: #fff;
      }

      .cls-9 {
        fill: #979a9b;
      }

      .cls-10 {
        fill: #8b7866;
      }

      .cls-11 {
        fill: #8b7867;
      }

      .cls-12 {
        fill: #9ea2a2;
      }

      .cls-13 {
        fill: #b8babb;
      }

      .cls-14 {
        fill: #9e846d;
      }

      .cls-15 {
        fill: #8c9091;
      }

      .cls-16 {
        fill: #b9bbbb;
      }

      .cls-17 {
        fill: #cfd0d1;
      }

      .cls-18 {
        fill: #c3bab0;
      }

      .cls-19 {
        fill: #c4c6c7;
      }

      .cls-20 {
        fill: #1da086;
      }

      .cls-21 {
        fill: #057582;
      }

      .cls-22 {
        fill: #81bbc1;
      }

      .cls-23 {
        isolation: isolate;
      }

      .cls-24 {
        mix-blend-mode: multiply;
        opacity: .6;
      }
    </style>
  </defs>
  <g class="cls-23">
    <g id="Layer_1" data-name="Layer 1">
      <path class="cls-21" d="M9.89,50.39c0-.81,.65-1.47,1.47-1.47s1.47,.66,1.47,1.47h4.18c0-.81,.65-1.47,1.47-1.47s1.47,.66,1.47,1.47h4.18c0-.81,.65-1.47,1.47-1.47s1.47,.66,1.47,1.47h4.17c0-.81,.65-1.47,1.47-1.47s1.47,.66,1.47,1.47h4.18c0-.81,.65-1.47,1.47-1.47s1.47,.66,1.47,1.47h4.17c0-.81,.65-1.47,1.47-1.47s1.47,.66,1.47,1.47h4.18c0-.81,.65-1.47,1.47-1.47s1.47,.66,1.47,1.47h4.17c0-.81,.65-1.47,1.47-1.47s1.47,.66,1.47,1.47h4.18c0-.81,.65-1.47,1.47-1.47s1.47,.66,1.47,1.47h4.18c0-.81,.65-1.47,1.47-1.47s1.47,.66,1.47,1.47h4.17c0-.81,.65-1.47,1.47-1.47s1.47,.66,1.47,1.47h4.18c0-.81,.65-1.47,1.47-1.47s1.47,.66,1.47,1.47h4.17c0-.81,.65-1.47,1.47-1.47s1.47,.66,1.47,1.47h4.18c0-.81,.65-1.47,1.47-1.47s1.47,.66,1.47,1.47h4.18c0-.81,.65-1.47,1.47-1.47s1.47,.66,1.47,1.47h9.89V0h-9.9c0,.81-.65,1.47-1.47,1.47s-1.47-.66-1.47-1.47h-4.18c0,.81-.65,1.47-1.47,1.47s-1.47-.66-1.47-1.47h-4.18c0,.81-.65,1.47-1.47,1.47s-1.47-.66-1.47-1.47h-4.17c0,.81-.65,1.47-1.47,1.47s-1.47-.66-1.47-1.47h-4.18c0,.81-.65,1.47-1.47,1.47s-1.47-.66-1.47-1.47h-4.17c0,.81-.65,1.47-1.47,1.47s-1.47-.66-1.47-1.47h-4.18c0,.81-.65,1.47-1.47,1.47s-1.47-.66-1.47-1.47h-4.18c0,.81-.65,1.47-1.47,1.47s-1.47-.66-1.47-1.47h-4.17c0,.81-.65,1.47-1.47,1.47s-1.47-.66-1.47-1.47h-4.18c0,.81-.65,1.47-1.47,1.47s-1.47-.66-1.47-1.47h-4.17c0,.81-.65,1.47-1.47,1.47s-1.47-.66-1.47-1.47h-4.18c0,.81-.65,1.47-1.47,1.47s-1.47-.66-1.47-1.47h-4.17c0,.81-.65,1.47-1.47,1.47s-1.47-.66-1.47-1.47h-4.18c0,.81-.65,1.47-1.47,1.47s-1.47-.66-1.47-1.47h-4.18c0,.81-.65,1.47-1.47,1.47S9.88,.82,9.88,0H0V50.39H9.89ZM118.74,1.26c1.29,0,2.34,1.05,2.34,2.34s-1.05,2.34-2.34,2.34-2.34-1.05-2.34-2.34,1.05-2.34,2.34-2.34Zm0,43.18c1.29,0,2.34,1.05,2.34,2.34s-1.05,2.34-2.34,2.34-2.34-1.05-2.34-2.34,1.05-2.34,2.34-2.34ZM3.59,1.26c1.29,0,2.34,1.05,2.34,2.34s-1.05,2.34-2.34,2.34S1.25,4.89,1.25,3.6,2.3,1.26,3.59,1.26Zm0,43.18c1.29,0,2.34,1.05,2.34,2.34s-1.05,2.34-2.34,2.34-2.34-1.05-2.34-2.34,1.05-2.34,2.34-2.34Z"/>
      <g>
        <g>
          <path class="cls-18" d="M108.73,50.39v-3.69c0-1.24,1.01-2.25,2.26-2.25s2.25,1.01,2.25,2.25v3.69s-.78,0-.78,0c0-.81-.66-1.47-1.47-1.47s-1.47,.66-1.47,1.47h-.79Z"/>
          <circle class="cls-11" cx="110.98" cy="46.68" r="1.47"/>
        </g>
        <g>
          <path class="cls-18" d="M101.61,50.39v-3.69c0-1.24,1.01-2.25,2.26-2.25s2.25,1.01,2.25,2.25v3.69s-.78,0-.78,0c0-.81-.66-1.47-1.47-1.47s-1.47,.66-1.47,1.47h-.79Z"/>
          <circle class="cls-11" cx="103.87" cy="46.68" r="1.47"/>
        </g>
        <g>
          <path class="cls-18" d="M94.49,50.39v-3.69c0-1.24,1.01-2.25,2.26-2.25s2.25,1.01,2.25,2.25v3.69s-.78,0-.78,0c0-.81-.66-1.47-1.47-1.47s-1.47,.66-1.47,1.47h-.79Z"/>
          <circle class="cls-11" cx="96.75" cy="46.68" r="1.47"/>
        </g>
        <g>
          <path class="cls-18" d="M87.38,50.39v-3.69c0-1.24,1.01-2.25,2.26-2.25s2.25,1.01,2.25,2.25v3.69s-.78,0-.78,0c0-.81-.66-1.47-1.47-1.47s-1.47,.66-1.47,1.47h-.79Z"/>
          <circle class="cls-11" cx="89.63" cy="46.68" r="1.47"/>
        </g>
        <g>
          <path class="cls-18" d="M80.26,50.39v-3.69c0-1.24,1.01-2.25,2.26-2.25s2.25,1.01,2.25,2.25v3.69s-.78,0-.78,0c0-.81-.66-1.47-1.47-1.47s-1.47,.66-1.47,1.47h-.79Z"/>
          <circle class="cls-11" cx="82.52" cy="46.68" r="1.47"/>
        </g>
        <g>
          <path class="cls-18" d="M73.15,50.39v-3.69c0-1.24,1.01-2.25,2.26-2.25s2.25,1.01,2.25,2.25v3.69s-.78,0-.78,0c0-.81-.66-1.47-1.47-1.47s-1.47,.66-1.47,1.47h-.79Z"/>
          <circle class="cls-11" cx="75.4" cy="46.68" r="1.47"/>
        </g>
        <g>
          <path class="cls-18" d="M66.03,50.39v-3.69c0-1.24,1.01-2.25,2.26-2.25s2.25,1.01,2.25,2.25v3.69s-.78,0-.78,0c0-.81-.66-1.47-1.47-1.47s-1.47,.66-1.47,1.47h-.79Z"/>
          <circle class="cls-11" cx="68.29" cy="46.68" r="1.47"/>
        </g>
        <g>
          <path class="cls-18" d="M58.91,50.39v-3.69c0-1.24,1.01-2.25,2.26-2.25s2.25,1.01,2.25,2.25v3.69s-.78,0-.78,0c0-.81-.66-1.47-1.47-1.47s-1.47,.66-1.47,1.47h-.79Z"/>
          <circle class="cls-11" cx="61.17" cy="46.68" r="1.47"/>
        </g>
        <g>
          <path class="cls-18" d="M51.8,50.39v-3.69c0-1.24,1.01-2.25,2.26-2.25s2.25,1.01,2.25,2.25v3.69s-.78,0-.78,0c0-.81-.66-1.47-1.47-1.47s-1.47,.66-1.47,1.47h-.79Z"/>
          <circle class="cls-11" cx="54.06" cy="46.68" r="1.47"/>
        </g>
        <g>
          <path class="cls-18" d="M44.68,50.39v-3.69c0-1.24,1.01-2.25,2.26-2.25s2.25,1.01,2.25,2.25v3.69s-.78,0-.78,0c0-.81-.66-1.47-1.47-1.47s-1.47,.66-1.47,1.47h-.79Z"/>
          <circle class="cls-11" cx="46.94" cy="46.68" r="1.47"/>
        </g>
        <g>
          <path class="cls-18" d="M37.57,50.39v-3.69c0-1.24,1.01-2.25,2.26-2.25s2.25,1.01,2.25,2.25v3.69s-.78,0-.78,0c0-.81-.66-1.47-1.47-1.47s-1.47,.66-1.47,1.47h-.79Z"/>
          <circle class="cls-11" cx="39.82" cy="46.68" r="1.47"/>
        </g>
        <g>
          <path class="cls-18" d="M30.45,50.39v-3.69c0-1.24,1.01-2.25,2.26-2.25s2.25,1.01,2.25,2.25v3.69s-.78,0-.78,0c0-.81-.66-1.47-1.47-1.47s-1.47,.66-1.47,1.47h-.79Z"/>
          <circle class="cls-11" cx="32.71" cy="46.68" r="1.47"/>
        </g>
        <g>
          <path class="cls-18" d="M23.34,50.39v-3.69c0-1.24,1.01-2.25,2.26-2.25s2.25,1.01,2.25,2.25v3.69s-.78,0-.78,0c0-.81-.66-1.47-1.47-1.47s-1.47,.66-1.47,1.47h-.79Z"/>
          <circle class="cls-11" cx="25.59" cy="46.68" r="1.47"/>
        </g>
        <g>
          <path class="cls-18" d="M16.22,50.39v-3.69c0-1.24,1.01-2.25,2.26-2.25s2.25,1.01,2.25,2.25v3.69s-.78,0-.78,0c0-.81-.66-1.47-1.47-1.47s-1.47,.66-1.47,1.47h-.79Z"/>
          <circle class="cls-11" cx="18.48" cy="46.68" r="1.47"/>
        </g>
        <g>
          <path class="cls-18" d="M9.1,50.39v-3.69c0-1.24,1.01-2.25,2.26-2.25s2.25,1.01,2.25,2.25v3.69s-.78,0-.78,0c0-.81-.66-1.47-1.47-1.47s-1.47,.66-1.47,1.47h-.79Z"/>
          <circle class="cls-11" cx="11.36" cy="46.68" r="1.47"/>
        </g>
      </g>
      <g>
        <g>
          <path class="cls-18" d="M9.1,3.7V0s.78,0,.78,0c0,.81,.66,1.47,1.47,1.47S12.82,.82,12.82,0h.79s0,3.69,0,3.69c0,1.24-1.01,2.25-2.26,2.25s-2.25-1.01-2.25-2.25Z"/>
          <circle class="cls-11" cx="11.36" cy="3.71" r="1.47"/>
        </g>
        <g>
          <path class="cls-18" d="M16.22,3.7V0s.78,0,.78,0c0,.81,.66,1.47,1.47,1.47s1.47-.66,1.47-1.47h.79s0,3.69,0,3.69c0,1.24-1.01,2.25-2.26,2.25s-2.25-1.01-2.25-2.25Z"/>
          <circle class="cls-11" cx="18.47" cy="3.71" r="1.47"/>
        </g>
        <g>
          <path class="cls-18" d="M23.34,3.7V0s.78,0,.78,0c0,.81,.66,1.47,1.47,1.47s1.47-.66,1.47-1.47h.79s0,3.69,0,3.69c0,1.24-1.01,2.25-2.26,2.25s-2.25-1.01-2.25-2.25Z"/>
          <circle class="cls-11" cx="25.59" cy="3.71" r="1.47"/>
        </g>
        <g>
          <path class="cls-18" d="M30.45,3.7V0s.78,0,.78,0c0,.81,.66,1.47,1.47,1.47s1.47-.66,1.47-1.47h.79s0,3.69,0,3.69c0,1.24-1.01,2.25-2.26,2.25s-2.25-1.01-2.25-2.25Z"/>
          <circle class="cls-11" cx="32.7" cy="3.71" r="1.47"/>
        </g>
        <g>
          <path class="cls-18" d="M37.57,3.7V0s.78,0,.78,0c0,.81,.66,1.47,1.47,1.47s1.47-.66,1.47-1.47h.79s0,3.69,0,3.69c0,1.24-1.01,2.25-2.26,2.25s-2.25-1.01-2.25-2.25Z"/>
          <path class="cls-11" d="M41.29,3.71c0,.81-.66,1.47-1.47,1.47s-1.47-.66-1.47-1.47,.66-1.47,1.47-1.47,1.47,.66,1.47,1.47Z"/>
        </g>
        <g>
          <path class="cls-18" d="M44.68,3.7V0s.78,0,.78,0c0,.81,.66,1.47,1.47,1.47s1.47-.66,1.47-1.47h.79s0,3.69,0,3.69c0,1.24-1.01,2.25-2.26,2.25s-2.25-1.01-2.25-2.25Z"/>
          <circle class="cls-11" cx="46.94" cy="3.71" r="1.47"/>
        </g>
        <g>
          <path class="cls-18" d="M51.8,3.7V0s.78,0,.78,0c0,.81,.66,1.47,1.47,1.47s1.47-.66,1.47-1.47h.79s0,3.69,0,3.69c0,1.24-1.01,2.25-2.26,2.25s-2.25-1.01-2.25-2.25Z"/>
          <circle class="cls-11" cx="54.05" cy="3.71" r="1.47"/>
        </g>
        <g>
          <path class="cls-18" d="M58.91,3.7V0s.78,0,.78,0c0,.81,.66,1.47,1.47,1.47s1.47-.66,1.47-1.47h.79s0,3.69,0,3.69c0,1.24-1.01,2.25-2.26,2.25s-2.25-1.01-2.25-2.25Z"/>
          <path class="cls-11" d="M62.64,3.71c0,.81-.66,1.47-1.47,1.47s-1.47-.66-1.47-1.47,.66-1.47,1.47-1.47,1.47,.66,1.47,1.47Z"/>
        </g>
        <g>
          <path class="cls-18" d="M66.03,3.7V0s.78,0,.78,0c0,.81,.66,1.47,1.47,1.47s1.47-.66,1.47-1.47h.79s0,3.69,0,3.69c0,1.24-1.01,2.25-2.26,2.25s-2.25-1.01-2.25-2.25Z"/>
          <circle class="cls-11" cx="68.28" cy="3.71" r="1.47"/>
        </g>
        <g>
          <path class="cls-18" d="M73.15,3.7V0s.78,0,.78,0c0,.81,.66,1.47,1.47,1.47s1.47-.66,1.47-1.47h.79s0,3.69,0,3.69c0,1.24-1.01,2.25-2.26,2.25s-2.25-1.01-2.25-2.25Z"/>
          <circle class="cls-11" cx="75.4" cy="3.71" r="1.47"/>
        </g>
        <g>
          <path class="cls-18" d="M80.26,3.7V0s.78,0,.78,0c0,.81,.66,1.47,1.47,1.47s1.47-.66,1.47-1.47h.79s0,3.69,0,3.69c0,1.24-1.01,2.25-2.26,2.25s-2.25-1.01-2.25-2.25Z"/>
          <path class="cls-11" d="M83.99,3.71c0,.81-.66,1.47-1.47,1.47s-1.47-.66-1.47-1.47,.66-1.47,1.47-1.47,1.47,.66,1.47,1.47Z"/>
        </g>
        <g>
          <path class="cls-18" d="M87.38,3.7V0s.78,0,.78,0c0,.81,.66,1.47,1.47,1.47s1.47-.66,1.47-1.47h.79s0,3.69,0,3.69c0,1.24-1.01,2.25-2.26,2.25s-2.25-1.01-2.25-2.25Z"/>
          <circle class="cls-11" cx="89.63" cy="3.71" r="1.47"/>
        </g>
        <g>
          <path class="cls-18" d="M94.49,3.7V0s.78,0,.78,0c0,.81,.66,1.47,1.47,1.47s1.47-.66,1.47-1.47h.79s0,3.69,0,3.69c0,1.24-1.01,2.25-2.26,2.25s-2.25-1.01-2.25-2.25Z"/>
          <circle class="cls-11" cx="96.75" cy="3.71" r="1.47"/>
        </g>
        <g>
          <path class="cls-18" d="M101.61,3.7V0s.78,0,.78,0c0,.81,.66,1.47,1.47,1.47s1.47-.66,1.47-1.47h.79s0,3.69,0,3.69c0,1.24-1.01,2.25-2.26,2.25s-2.25-1.01-2.25-2.25Z"/>
          <circle class="cls-11" cx="103.86" cy="3.71" r="1.47"/>
        </g>
        <g>
          <path class="cls-18" d="M108.73,3.7V0s.78,0,.78,0c0,.81,.66,1.47,1.47,1.47s1.47-.66,1.47-1.47h.79s0,3.69,0,3.69c0,1.24-1.01,2.25-2.26,2.25s-2.25-1.01-2.25-2.25Z"/>
          <circle class="cls-11" cx="110.98" cy="3.71" r="1.47"/>
        </g>
      </g>
      <g>
        <rect class="cls-22" x="72.1" y="21.16" width=".82" height="8.41"/>
        <g>
          <rect class="cls-22" x="65.82" y="22.51" width="10.26" height=".82"/>
          <rect class="cls-22" x="65.82" y="24.13" width="10.26" height=".82"/>
          <rect class="cls-22" x="65.82" y="25.75" width="10.26" height=".82"/>
          <rect class="cls-22" x="65.82" y="27.36" width="10.26" height=".82"/>
        </g>
        <rect class="cls-22" x="70.56" y="21.16" width=".82" height="8.41"/>
        <rect class="cls-22" x="69.02" y="21.16" width=".82" height="8.41"/>
        <polygon class="cls-4" points="75.31 29.03 75.31 28.16 75.31 28.16 75.3 21.69 74.25 21.69 74.25 21.69 66.58 21.67 66.59 29.01 75.31 29.03"/>
      </g>
      <g id="Disegno_5" data-name="Disegno 5">
        <g>
          <rect class="cls-15" x="104.89" y="21.3" width="1.15" height="3.16"/>
          <rect class="cls-15" x="100.54" y="21.3" width="1.15" height="3.16"/>
          <rect class="cls-15" x="104.89" y="26.98" width="1.15" height="3.17"/>
          <rect class="cls-15" x="100.54" y="26.98" width="1.15" height="3.17"/>
          <g>
            <rect class="cls-21" x="99.97" y="23.8" width="6.64" height="4.38"/>
            <rect class="cls-4" x="99.97" y="23.8" width="6.64" height="4.38"/>
          </g>
        </g>
      </g>
      <g id="Disegno_5-2" data-name="Disegno 5">
        <g>
          <rect class="cls-15" x="104.24" y="15.87" width="2.06" height=".75"/>
          <rect class="cls-15" x="100.54" y="17.3" width="2.06" height=".75"/>
          <rect class="cls-15" x="100.54" y="14.45" width="2.06" height=".75"/>
          <g>
            <rect class="cls-21" x="101.82" y="14.08" width="2.85" height="4.33"/>
            <rect class="cls-4" x="101.82" y="14.08" width="2.85" height="4.33"/>
          </g>
        </g>
      </g>
      <g id="Disegno_26" data-name="Disegno 26">
        <rect class="cls-15" x="104.02" y="10.25" width="2.79" height="1.01"/>
        <rect class="cls-15" x="95.41" y="10.23" width="2.79" height="1.01"/>
        <g>
          <rect class="cls-21" x="97.12" y="9.02" width="7.48" height="3.45"/>
          <rect class="cls-4" x="97.12" y="9.02" width="7.48" height="3.45"/>
        </g>
      </g>
      <g id="Artwork_12" data-name="Artwork 12">
        <rect class="cls-15" x="99.3" y="34.34" width="2.24" height="4.53"/>
        <rect class="cls-15" x="105.03" y="34.34" width="2.24" height="4.53"/>
        <path class="cls-13" d="M105.27,38.35c.48,0,.87-.39,.87-.87v-1.75c0-.48-.39-.88-.87-.88h-.24v3.5h.24Z"/>
        <path class="cls-13" d="M101.3,34.86c-.48,0-.88,.39-.88,.88v1.75c0,.48,.4,.87,.88,.87h.24v-3.5h-.24Z"/>
        <rect class="cls-10" x="101.55" y="34.86" width="3.48" height="3.5"/>
      </g>
      <g id="Disegno_8" data-name="Disegno 8">
        <path class="cls-15" d="M85.96,8.29h0s-.89,0-.89,0h-.96c-.49,.03-.88,.42-.88,.91s.39,.88,.88,.9h0s.89,0,.89,0h.96c.5,0,.91-.41,.91-.91,0-.5-.41-.91-.91-.91Z"/>
        <g>
          <rect class="cls-11" x="84.37" y="8.29" width="1.35" height="1.82"/>
          <rect class="cls-11" x="84.37" y="8.29" width="1.35" height="1.82"/>
          <rect class="cls-11" x="84.37" y="8.29" width="1.35" height="1.82"/>
          <rect class="cls-11" x="84.37" y="8.29" width="1.35" height="1.82"/>
        </g>
      </g>
      <g id="Disegno_8-2" data-name="Disegno 8">
        <path class="cls-15" d="M77.59,14.2h0v.96s0,.89,0,.89h0c.02,.49,.41,.88,.9,.88s.88-.39,.9-.88h0v-.96s0-.89,0-.89c0-.5-.41-.91-.91-.91s-.91,.41-.91,.91Z"/>
        <g>
          <rect class="cls-11" x="77.59" y="14.45" width="1.82" height="1.35"/>
          <rect class="cls-11" x="77.59" y="14.45" width="1.82" height="1.35"/>
          <rect class="cls-11" x="77.59" y="14.45" width="1.82" height="1.35"/>
          <rect class="cls-11" x="77.59" y="14.45" width="1.82" height="1.35"/>
        </g>
      </g>
      <g id="Disegno_8-3" data-name="Disegno 8">
        <path class="cls-15" d="M75.86,8.29h0s-.89,0-.89,0h-.96c-.49,.03-.88,.42-.88,.91s.39,.88,.88,.9h0s.89,0,.89,0h.96c.5,0,.91-.41,.91-.91s-.41-.91-.91-.91Z"/>
        <g>
          <rect class="cls-11" x="74.27" y="8.29" width="1.35" height="1.82"/>
          <rect class="cls-11" x="74.27" y="8.29" width="1.35" height="1.82"/>
          <rect class="cls-11" x="74.27" y="8.29" width="1.35" height="1.82"/>
          <rect class="cls-11" x="74.27" y="8.29" width="1.35" height="1.82"/>
        </g>
      </g>
      <g id="Disegno_8-4" data-name="Disegno 8">
        <path class="cls-15" d="M69.43,8.29h0s-.89,0-.89,0h-.96c-.49,.03-.88,.42-.88,.91s.39,.88,.88,.9h0s.89,0,.89,0h.96c.5,0,.91-.41,.91-.91s-.41-.91-.91-.91Z"/>
        <g>
          <rect class="cls-11" x="67.84" y="8.29" width="1.35" height="1.82"/>
          <rect class="cls-11" x="67.84" y="8.29" width="1.35" height="1.82"/>
          <rect class="cls-11" x="67.84" y="8.29" width="1.35" height="1.82"/>
          <rect class="cls-11" x="67.84" y="8.29" width="1.35" height="1.82"/>
        </g>
      </g>
      <g id="Disegno_8-5" data-name="Disegno 8">
        <path class="cls-15" d="M68.11,18.6h0s-.89,0-.89,0h-.96c-.49,.03-.88,.42-.88,.91s.39,.88,.88,.9h0s.89,0,.89,0h.96c.5,0,.91-.41,.91-.91,0-.5-.41-.91-.91-.91Z"/>
        <g>
          <rect class="cls-11" x="66.52" y="18.6" width="1.35" height="1.82"/>
          <rect class="cls-11" x="66.52" y="18.6" width="1.35" height="1.82"/>
          <rect class="cls-11" x="66.52" y="18.6" width="1.35" height="1.82"/>
          <rect class="cls-11" x="66.52" y="18.6" width="1.35" height="1.82"/>
        </g>
      </g>
      <g id="Disegno_8-6" data-name="Disegno 8">
        <path class="cls-15" d="M68.1,18.6h0s-.89,0-.89,0h-.96c-.49,.03-.88,.42-.88,.91s.39,.88,.88,.9h0s.89,0,.89,0h.96c.5,0,.91-.41,.91-.91,0-.5-.41-.91-.91-.91Z"/>
        <g>
          <rect class="cls-11" x="66.51" y="18.6" width="1.35" height="1.82"/>
          <rect class="cls-11" x="66.51" y="18.6" width="1.35" height="1.82"/>
          <rect class="cls-11" x="66.51" y="18.6" width="1.35" height="1.82"/>
          <rect class="cls-11" x="66.51" y="18.6" width="1.35" height="1.82"/>
        </g>
      </g>
      <g id="Disegno_8-7" data-name="Disegno 8">
        <path class="cls-15" d="M56.74,18.97h0s0-.89,0-.89v-.07s0-.89,0-.89h0c-.02-.49-.41-.88-.9-.88s-.88,.39-.9,.88h0s0,.89,0,.89v.07s0,.89,0,.89c0,.5,.41,.91,.91,.91s.91-.41,.91-.91Z"/>
        <g>
          <rect class="cls-11" x="54.92" y="17.37" width="1.82" height="1.35"/>
          <rect class="cls-11" x="54.92" y="17.37" width="1.82" height="1.35"/>
          <rect class="cls-11" x="54.92" y="17.37" width="1.82" height="1.35"/>
          <rect class="cls-11" x="54.92" y="17.37" width="1.82" height="1.35"/>
        </g>
      </g>
      <g id="Disegno_8-8" data-name="Disegno 8">
        <path class="cls-15" d="M55.99,32.61h0s0-.89,0-.89v-.07s0-.89,0-.89h0c-.02-.49-.41-.88-.9-.88s-.88,.39-.9,.88h0s0,.89,0,.89v.07s0,.89,0,.89c0,.5,.41,.91,.91,.91s.91-.41,.91-.91Z"/>
        <g>
          <rect class="cls-11" x="54.17" y="31.02" width="1.82" height="1.35"/>
          <rect class="cls-11" x="54.17" y="31.02" width="1.82" height="1.35"/>
          <rect class="cls-11" x="54.17" y="31.02" width="1.82" height="1.35"/>
          <rect class="cls-11" x="54.17" y="31.02" width="1.82" height="1.35"/>
        </g>
      </g>
      <g id="Disegno_8-9" data-name="Disegno 8">
        <path class="cls-15" d="M63.8,8.29h0s-.89,0-.89,0h-.96c-.49,.03-.88,.42-.88,.91s.39,.88,.88,.9h0s.89,0,.89,0h.96c.5,0,.91-.41,.91-.91s-.41-.91-.91-.91Z"/>
        <g>
          <rect class="cls-11" x="62.21" y="8.29" width="1.35" height="1.82"/>
          <rect class="cls-11" x="62.21" y="8.29" width="1.35" height="1.82"/>
          <rect class="cls-11" x="62.21" y="8.29" width="1.35" height="1.82"/>
          <rect class="cls-11" x="62.21" y="8.29" width="1.35" height="1.82"/>
        </g>
      </g>
      <g id="Disegno_8-10" data-name="Disegno 8">
        <path class="cls-15" d="M75.86,10.63h0s-.89,0-.89,0h-.96c-.49,.03-.88,.42-.88,.91s.39,.88,.88,.9h0s.89,0,.89,0h.96c.5,0,.91-.41,.91-.91,0-.5-.41-.91-.91-.91Z"/>
        <g>
          <rect class="cls-11" x="74.27" y="10.63" width="1.35" height="1.82"/>
          <rect class="cls-11" x="74.27" y="10.63" width="1.35" height="1.82"/>
          <rect class="cls-11" x="74.27" y="10.63" width="1.35" height="1.82"/>
          <rect class="cls-4" x="74.27" y="10.63" width="1.35" height="1.82"/>
        </g>
      </g>
      <g id="Disegno_8-11" data-name="Disegno 8">
        <path class="cls-15" d="M94.73,14.98h0v.96s0,.89,0,.89h0c.02,.49,.41,.88,.9,.88s.88-.39,.9-.88h0s0-.89,0-.89v-.96c0-.5-.41-.91-.91-.91s-.91,.41-.91,.91Z"/>
        <g>
          <rect class="cls-11" x="94.73" y="15.22" width="1.82" height="1.35"/>
          <rect class="cls-11" x="94.73" y="15.22" width="1.82" height="1.35"/>
          <rect class="cls-11" x="94.73" y="15.22" width="1.82" height="1.35"/>
          <rect class="cls-11" x="94.73" y="15.22" width="1.82" height="1.35"/>
        </g>
      </g>
      <g id="Disegno_8-12" data-name="Disegno 8">
        <path class="cls-15" d="M97.06,14.98h0v.96s0,.89,0,.89h0c.02,.49,.41,.88,.9,.88s.88-.39,.9-.88h0v-.96s0-.89,0-.89c0-.5-.41-.91-.91-.91s-.91,.41-.91,.91Z"/>
        <g>
          <rect class="cls-11" x="97.06" y="15.22" width="1.82" height="1.35"/>
          <rect class="cls-11" x="97.06" y="15.22" width="1.82" height="1.35"/>
          <rect class="cls-11" x="97.06" y="15.22" width="1.82" height="1.35"/>
          <rect class="cls-4" x="97.06" y="15.22" width="1.82" height="1.35"/>
        </g>
      </g>
      <g id="Disegno_8-13" data-name="Disegno 8">
        <path class="cls-15" d="M58.98,19.89h0s.89,0,.89,0h.96c.49-.03,.88-.42,.88-.91s-.39-.88-.88-.9h0s-.89,0-.89,0h-.96c-.5,0-.91,.41-.91,.91s.41,.91,.91,.91Z"/>
        <g>
          <rect class="cls-11" x="59.23" y="18.07" width="1.35" height="1.82"/>
          <rect class="cls-11" x="59.23" y="18.07" width="1.35" height="1.82"/>
          <rect class="cls-11" x="59.23" y="18.07" width="1.35" height="1.82"/>
          <rect class="cls-11" x="59.23" y="18.07" width="1.35" height="1.82"/>
        </g>
      </g>
      <g id="Disegno_8-14" data-name="Disegno 8">
        <path class="cls-15" d="M33.68,9.95h0s.89,0,.89,0h.96c.49-.03,.88-.42,.88-.91s-.39-.88-.88-.9h0s-.89,0-.89,0h-.96c-.5,0-.91,.41-.91,.91,0,.5,.41,.91,.91,.91Z"/>
        <g>
          <rect class="cls-11" x="33.93" y="8.13" width="1.35" height="1.82"/>
          <rect class="cls-11" x="33.93" y="8.13" width="1.35" height="1.82"/>
          <rect class="cls-11" x="33.93" y="8.13" width="1.35" height="1.82"/>
          <rect class="cls-11" x="33.93" y="8.13" width="1.35" height="1.82"/>
        </g>
      </g>
      <g id="Disegno_8-15" data-name="Disegno 8">
        <path class="cls-15" d="M21.72,9.95h0s.89,0,.89,0h.96c.49-.03,.88-.42,.88-.91s-.39-.88-.88-.9h0s-.89,0-.89,0h-.96c-.5,0-.91,.41-.91,.91,0,.5,.41,.91,.91,.91Z"/>
        <g>
          <rect class="cls-11" x="21.96" y="8.13" width="1.35" height="1.82"/>
          <rect class="cls-11" x="21.96" y="8.13" width="1.35" height="1.82"/>
          <rect class="cls-11" x="21.96" y="8.13" width="1.35" height="1.82"/>
          <rect class="cls-11" x="21.96" y="8.13" width="1.35" height="1.82"/>
        </g>
      </g>
      <g id="Disegno_8-16" data-name="Disegno 8">
        <path class="cls-15" d="M16.8,9.95h0s.89,0,.89,0h.96c.49-.03,.88-.42,.88-.91s-.39-.88-.88-.9h0s-.89,0-.89,0h-.96c-.5,0-.91,.41-.91,.91,0,.5,.41,.91,.91,.91Z"/>
        <g>
          <rect class="cls-11" x="17.04" y="8.13" width="1.35" height="1.82"/>
          <rect class="cls-11" x="17.04" y="8.13" width="1.35" height="1.82"/>
          <rect class="cls-11" x="17.04" y="8.13" width="1.35" height="1.82"/>
          <rect class="cls-11" x="17.04" y="8.13" width="1.35" height="1.82"/>
        </g>
      </g>
      <g id="Disegno_8-17" data-name="Disegno 8">
        <path class="cls-15" d="M11.87,9.95h0s.89,0,.89,0h.96c.49-.03,.88-.42,.88-.91s-.39-.88-.88-.9h0s-.89,0-.89,0h-.96c-.5,0-.91,.41-.91,.91,0,.5,.41,.91,.91,.91Z"/>
        <g>
          <rect class="cls-11" x="12.12" y="8.13" width="1.35" height="1.82"/>
          <rect class="cls-11" x="12.12" y="8.13" width="1.35" height="1.82"/>
          <rect class="cls-11" x="12.12" y="8.13" width="1.35" height="1.82"/>
          <rect class="cls-11" x="12.12" y="8.13" width="1.35" height="1.82"/>
        </g>
      </g>
      <g id="Disegno_8-18" data-name="Disegno 8">
        <path class="cls-15" d="M66.71,42h0s.89,0,.89,0h.96c.49-.03,.88-.42,.88-.91,0-.49-.39-.88-.88-.9h0s-.89,0-.89,0h-.96c-.5,0-.91,.41-.91,.91s.41,.91,.91,.91Z"/>
        <g>
          <rect class="cls-11" x="66.95" y="40.18" width="1.35" height="1.82"/>
          <rect class="cls-11" x="66.95" y="40.18" width="1.35" height="1.82"/>
          <rect class="cls-11" x="66.95" y="40.18" width="1.35" height="1.82"/>
          <rect class="cls-11" x="66.95" y="40.18" width="1.35" height="1.82"/>
        </g>
      </g>
      <g id="Disegno_8-19" data-name="Disegno 8">
        <path class="cls-15" d="M72.29,42h0s.89,0,.89,0h.96c.49-.03,.88-.42,.88-.91,0-.49-.39-.88-.88-.9h0s-.89,0-.89,0h-.96c-.5,0-.91,.41-.91,.91,0,.5,.41,.91,.91,.91Z"/>
        <g>
          <rect class="cls-11" x="72.54" y="40.18" width="1.35" height="1.82"/>
          <rect class="cls-11" x="72.54" y="40.18" width="1.35" height="1.82"/>
          <rect class="cls-11" x="72.54" y="40.18" width="1.35" height="1.82"/>
          <rect class="cls-11" x="72.54" y="40.18" width="1.35" height="1.82"/>
        </g>
      </g>
      <g id="Disegno_8-20" data-name="Disegno 8">
        <path class="cls-15" d="M90.07,35.48h0s.89,0,.89,0h.96c.49-.03,.88-.42,.88-.91s-.39-.88-.88-.9h0s-.89,0-.89,0h-.96c-.5,0-.91,.41-.91,.91,0,.5,.41,.91,.91,.91Z"/>
        <g>
          <rect class="cls-11" x="90.32" y="33.66" width="1.35" height="1.82"/>
          <rect class="cls-11" x="90.32" y="33.66" width="1.35" height="1.82"/>
          <rect class="cls-11" x="90.32" y="33.66" width="1.35" height="1.82"/>
          <rect class="cls-11" x="90.32" y="33.66" width="1.35" height="1.82"/>
        </g>
      </g>
      <g id="Disegno_8-21" data-name="Disegno 8">
        <path class="cls-15" d="M58.98,17.56h0s.89,0,.89,0h.96c.49-.03,.88-.42,.88-.91s-.39-.88-.88-.9h0s-.89,0-.89,0h-.96c-.5,0-.91,.41-.91,.91s.41,.91,.91,.91Z"/>
        <g>
          <rect class="cls-11" x="59.23" y="15.74" width="1.35" height="1.82"/>
          <rect class="cls-11" x="59.23" y="15.74" width="1.35" height="1.82"/>
          <rect class="cls-11" x="59.23" y="15.74" width="1.35" height="1.82"/>
          <rect class="cls-4" x="59.23" y="15.74" width="1.35" height="1.82"/>
        </g>
      </g>
      <g id="Disegno_8-22" data-name="Disegno 8">
        <path class="cls-15" d="M49.7,19.89h0s.89,0,.89,0h.96c.49-.03,.88-.42,.88-.91s-.39-.88-.88-.9h0s-.89,0-.89,0h-.96c-.5,0-.91,.41-.91,.91s.41,.91,.91,.91Z"/>
        <g>
          <rect class="cls-11" x="49.95" y="18.07" width="1.35" height="1.82"/>
          <rect class="cls-11" x="49.95" y="18.07" width="1.35" height="1.82"/>
          <rect class="cls-11" x="49.95" y="18.07" width="1.35" height="1.82"/>
          <rect class="cls-4" x="49.95" y="18.07" width="1.35" height="1.82"/>
        </g>
      </g>
      <g id="Disegno_8-23" data-name="Disegno 8">
        <path class="cls-15" d="M49.7,17.56h0s.89,0,.89,0h.96c.49-.03,.88-.42,.88-.91s-.39-.88-.88-.9h0s-.89,0-.89,0h-.96c-.5,0-.91,.41-.91,.91s.41,.91,.91,.91Z"/>
        <g>
          <rect class="cls-11" x="49.95" y="15.74" width="1.35" height="1.82"/>
          <rect class="cls-11" x="49.95" y="15.74" width="1.35" height="1.82"/>
          <rect class="cls-11" x="49.95" y="15.74" width="1.35" height="1.82"/>
          <rect class="cls-4" x="49.95" y="15.74" width="1.35" height="1.82"/>
        </g>
      </g>
      <g id="Disegno_8-24" data-name="Disegno 8">
        <path class="cls-15" d="M51.67,41.66h0s.89,0,.89,0h.96c.49-.03,.88-.42,.88-.91s-.39-.88-.88-.9h0s-.89,0-.89,0h-.96c-.5,0-.91,.41-.91,.91s.41,.91,.91,.91Z"/>
        <g>
          <rect class="cls-11" x="51.91" y="39.84" width="1.35" height="1.82"/>
          <rect class="cls-11" x="51.91" y="39.84" width="1.35" height="1.82"/>
          <rect class="cls-11" x="51.91" y="39.84" width="1.35" height="1.82"/>
          <rect class="cls-4" x="51.91" y="39.84" width="1.35" height="1.82"/>
        </g>
      </g>
      <g id="Disegno_8-25" data-name="Disegno 8">
        <path class="cls-15" d="M45.68,41.66h0s.89,0,.89,0h.96c.49-.03,.88-.42,.88-.91s-.39-.88-.88-.9h0s-.89,0-.89,0h-.96c-.5,0-.91,.41-.91,.91s.41,.91,.91,.91Z"/>
        <g>
          <rect class="cls-11" x="45.92" y="39.84" width="1.35" height="1.82"/>
          <rect class="cls-11" x="45.92" y="39.84" width="1.35" height="1.82"/>
          <rect class="cls-11" x="45.92" y="39.84" width="1.35" height="1.82"/>
          <rect class="cls-4" x="45.92" y="39.84" width="1.35" height="1.82"/>
        </g>
      </g>
      <g id="Disegno_8-26" data-name="Disegno 8">
        <path class="cls-15" d="M51.67,38.56h0s.89,0,.89,0h.96c.49-.03,.88-.42,.88-.91s-.39-.88-.88-.9h0s-.89,0-.89,0h-.96c-.5,0-.91,.41-.91,.91s.41,.91,.91,.91Z"/>
        <g>
          <rect class="cls-11" x="51.91" y="36.74" width="1.35" height="1.82"/>
          <rect class="cls-11" x="51.91" y="36.74" width="1.35" height="1.82"/>
          <rect class="cls-11" x="51.91" y="36.74" width="1.35" height="1.82"/>
          <rect class="cls-4" x="51.91" y="36.74" width="1.35" height="1.82"/>
        </g>
      </g>
      <g id="Disegno_8-27" data-name="Disegno 8">
        <path class="cls-15" d="M81.22,8.29h0s-.89,0-.89,0h-.96c-.49,.03-.88,.42-.88,.91s.39,.88,.88,.9h0s.89,0,.89,0h.96c.5,0,.91-.41,.91-.91s-.41-.91-.91-.91Z"/>
        <g>
          <rect class="cls-11" x="79.63" y="8.29" width="1.35" height="1.82"/>
          <rect class="cls-11" x="79.63" y="8.29" width="1.35" height="1.82"/>
          <rect class="cls-11" x="79.63" y="8.29" width="1.35" height="1.82"/>
          <rect class="cls-4" x="79.63" y="8.29" width="1.35" height="1.82"/>
        </g>
      </g>
      <g id="Disegno_8-28" data-name="Disegno 8">
        <path class="cls-15" d="M110.64,8.82h0s-.89,0-.89,0h-.96c-.49,.03-.88,.42-.88,.91s.39,.88,.88,.9h0s.89,0,.89,0h.96c.5,0,.91-.41,.91-.91,0-.5-.41-.91-.91-.91Z"/>
        <g>
          <rect class="cls-11" x="109.05" y="8.82" width="1.35" height="1.82"/>
          <rect class="cls-11" x="109.05" y="8.82" width="1.35" height="1.82"/>
          <rect class="cls-11" x="109.05" y="8.82" width="1.35" height="1.82"/>
          <rect class="cls-4" x="109.05" y="8.82" width="1.35" height="1.82"/>
        </g>
      </g>
      <g id="Disegno_8-29" data-name="Disegno 8">
        <path class="cls-15" d="M110.64,40.28h0s-.89,0-.89,0h-.96c-.49,.03-.88,.42-.88,.91s.39,.88,.88,.9h0s.89,0,.89,0h.96c.5,0,.91-.41,.91-.91s-.41-.91-.91-.91Z"/>
        <g>
          <rect class="cls-11" x="109.05" y="40.27" width="1.35" height="1.82"/>
          <rect class="cls-11" x="109.05" y="40.27" width="1.35" height="1.82"/>
          <rect class="cls-11" x="109.05" y="40.27" width="1.35" height="1.82"/>
          <rect class="cls-4" x="109.05" y="40.27" width="1.35" height="1.82"/>
        </g>
      </g>
      <g id="Disegno_8-30" data-name="Disegno 8">
        <path class="cls-15" d="M104.19,40.28h0s-.89,0-.89,0h-.96c-.49,.03-.88,.42-.88,.91s.39,.88,.88,.9h0s.89,0,.89,0h.96c.5,0,.91-.41,.91-.91,0-.5-.41-.91-.91-.91Z"/>
        <g>
          <rect class="cls-11" x="102.6" y="40.27" width="1.35" height="1.82"/>
          <rect class="cls-11" x="102.6" y="40.27" width="1.35" height="1.82"/>
          <rect class="cls-11" x="102.6" y="40.27" width="1.35" height="1.82"/>
          <rect class="cls-4" x="102.6" y="40.27" width="1.35" height="1.82"/>
        </g>
      </g>
      <g id="Disegno_23" data-name="Disegno 23">
        <g>
          <rect class="cls-11" x="87.08" y="11.73" width="2.07" height="4.16"/>
          <rect class="cls-12" x="87.08" y="15.67" width="2.07" height=".22"/>
          <rect class="cls-12" x="87.08" y="11.73" width="2.07" height=".22"/>
        </g>
      </g>
      <g id="Disegno_23-2" data-name="Disegno 23">
        <g>
          <rect class="cls-11" x="79.08" y="18.48" width="4.16" height="2.07"/>
          <rect class="cls-12" x="83.02" y="18.48" width=".22" height="2.07"/>
          <rect class="cls-12" x="79.08" y="18.48" width=".22" height="2.07"/>
        </g>
      </g>
      <g id="Disegno_23-3" data-name="Disegno 23">
        <g>
          <rect class="cls-11" x="79.08" y="22.06" width="4.16" height="2.07"/>
          <rect class="cls-12" x="83.02" y="22.06" width=".22" height="2.07"/>
          <rect class="cls-12" x="79.08" y="22.06" width=".22" height="2.07"/>
        </g>
      </g>
      <g id="Disegno_23-4" data-name="Disegno 23">
        <g>
          <rect class="cls-4" x="26.78" y="8.13" width="4.16" height="2.07"/>
          <rect class="cls-12" x="30.72" y="8.13" width=".22" height="2.07"/>
          <rect class="cls-12" x="26.78" y="8.13" width=".22" height="2.07"/>
        </g>
      </g>
      <g id="Disegno_23-5" data-name="Disegno 23">
        <g>
          <rect class="cls-11" x="90.92" y="11.73" width="2.07" height="4.16"/>
          <rect class="cls-12" x="90.92" y="15.67" width="2.07" height=".22"/>
          <rect class="cls-12" x="90.92" y="11.73" width="2.07" height=".22"/>
        </g>
      </g>
      <g>
        <g id="Artwork_24" data-name="Artwork 24">
          <rect class="cls-15" x="10" y="11.32" width="32.76" height="27.96"/>
          <polygon class="cls-16" points="11.17 12.53 11.17 12.55 11.13 12.55 11.13 38.11 11.17 38.07 11.17 38.08 11.17 38.12 41.36 38.12 41.36 38.04 41.4 38.04 41.4 12.55 41.35 12.55 41.36 12.53 11.17 12.53"/>
        </g>
        <g>
          <rect class="cls-20" x=".55" y="11.32" width="9.44" height="27.96"/>
          <g class="cls-24">
            <polygon class="cls-21" points="5.74 17.41 7.89 14.47 8.93 14.47 8.93 36.12 7.89 36.12 5.74 33.18 5.74 17.41"/>
            <polygon class="cls-21" points="1.62 22.72 4.38 19.04 4.38 31.37 1.62 27.69 1.62 22.72"/>
          </g>
        </g>
      </g>
      <g>
        <path class="cls-22" d="M47.26,35.62h1.98s.03,.01,.03,.03v1.98s-.01,.03-.03,.03h-1.99s-.03-.01-.03-.03v-1.98s.01-.03,.03-.03Z"/>
        <rect class="cls-22" x="44.36" y="35.62" width="2.05" height="2.04" rx=".03" ry=".03"/>
        <path class="cls-22" d="M47.26,32.86h1.99s.03,.01,.03,.03v1.98s-.01,.03-.03,.03h-1.98s-.03-.01-.03-.03v-1.98s.01-.03,.03-.03Z"/>
        <path class="cls-22" d="M44.39,32.86h1.98s.03,.01,.03,.03v1.98s-.01,.03-.03,.03h-1.98s-.03-.01-.03-.03v-1.98s.01-.03,.03-.03Z"/>
        <g>
          <rect class="cls-11" x="45.19" y="33.78" width="3.29" height="3.19"/>
          <path class="cls-15" d="M45.4,34.06c0-.11,.06-.2,.13-.2h2.61c.07,0,.13,.09,.13,.2v2.63c0,.11-.06,.2-.13,.2h-2.61c-.07,0-.13-.09-.13-.2v-2.63Z"/>
          <rect class="cls-12" x="45.19" y="33.78" width=".16" height="3.19"/>
          <rect class="cls-12" x="48.32" y="33.78" width=".15" height="3.19"/>
        </g>
      </g>
      <g>
        <rect class="cls-4" x="44.36" y="21.12" width="8.49" height="11.02"/>
        <circle class="cls-3" cx="48.61" cy="29.14" r="1.55"/>
        <path class="cls-7" d="M49.7,29.14c0-.6-.49-1.09-1.09-1.09s-1.09,.49-1.09,1.09,.49,1.09,1.09,1.09,1.09-.49,1.09-1.09Zm-1.84,0c0-.42,.34-.75,.75-.75s.74,.34,.74,.75c0,.42-.32,.75-.74,.75s-.75-.34-.75-.75Z"/>
      </g>
      <g>
        <rect class="cls-4" x="57.24" y="22.45" width="7.48" height="5.68"/>
        <circle class="cls-2" cx="62.89" cy="25.29" r="1.34"/>
      </g>
      <g>
        <rect class="cls-4" x="53.53" y="22.45" width="3.49" height="5.68"/>
        <circle class="cls-2" cx="55.28" cy="25.29" r="1.34"/>
      </g>
      <g id="LED">
        <g>
          <rect class="cls-15" x="113.4" y="8.47" width="6.32" height="2.52"/>
          <path class="cls-7" d="M114.62,9.73c0-1.07,.87-1.94,1.94-1.94s1.94,.87,1.94,1.94-.87,1.94-1.94,1.94-1.94-.87-1.94-1.94Z"/>
        </g>
      </g>
      <g id="LED-2" data-name="LED">
        <g>
          <rect class="cls-15" x="113.76" y="39.93" width="6.32" height="2.52"/>
          <g>
            <path class="cls-8" d="M114.98,41.19c0-1.07,.87-1.94,1.94-1.94s1.94,.87,1.94,1.94-.87,1.94-1.94,1.94-1.94-.87-1.94-1.94Z"/>
            <path class="cls-5" d="M114.98,41.19c0-1.07,.87-1.94,1.94-1.94s1.94,.87,1.94,1.94-.87,1.94-1.94,1.94-1.94-.87-1.94-1.94Z"/>
            <path class="cls-6" d="M114.98,41.19c0-1.07,.87-1.94,1.94-1.94s1.94,.87,1.94,1.94-.87,1.94-1.94,1.94-1.94-.87-1.94-1.94Z"/>
          </g>
        </g>
      </g>
      <g id="USB">
        <g>
          <path class="cls-19" d="M108.11,28.5h4.14c.1,0,.19,.08,.19,.19v1.11c0,.1-.08,.19-.19,.19h-4.14c-.1,0-.18-.08-.18-.18v-1.12c0-.1,.08-.18,.18-.18Z"/>
          <path class="cls-19" d="M108.11,26.37h4.14c.1,0,.19,.08,.19,.19v1.11c0,.1-.08,.19-.19,.19h-4.14c-.1,0-.19-.08-.19-.19v-1.11c0-.1,.08-.18,.18-.18Z"/>
          <path class="cls-19" d="M108.11,24.24h4.14c.1,0,.19,.08,.19,.19v1.11c0,.1-.08,.18-.18,.18h-4.15c-.1,0-.18-.08-.18-.18v-1.11c0-.1,.08-.19,.19-.19Z"/>
          <path class="cls-19" d="M108.11,22.11h4.14c.1,0,.19,.08,.19,.19v1.11c0,.1-.08,.19-.19,.19h-4.14c-.1,0-.19-.08-.19-.19v-1.11c0-.1,.08-.18,.18-.18Z"/>
          <rect class="cls-19" x="107.92" y="19.98" width="4.51" height="1.48" rx=".19" ry=".19"/>
          <g>
            <rect class="cls-12" x="110.29" y="13.28" width="16.44" height="23.83"/>
            <polygon class="cls-15" points="112.12 13.28 110.29 13.28 110.29 13.32 110.29 37.05 110.29 37.11 112.12 37.11 112.12 37.05 112.12 37.05 112.12 13.28"/>
            <polygon class="cls-15" points="115.77 13.28 113.94 13.28 113.94 13.32 113.94 37.05 113.94 37.11 115.77 37.11 115.77 37.05 115.77 37.05 115.77 13.28"/>
            <polygon class="cls-15" points="119.42 13.28 117.6 13.28 117.6 13.32 117.6 37.05 117.6 37.11 119.42 37.11 119.42 37.05 119.42 37.05 119.42 13.28"/>
            <polygon class="cls-15" points="123.08 13.28 121.25 13.28 121.25 13.32 121.25 37.05 121.25 37.11 123.08 37.11 123.08 37.05 123.08 37.05 123.08 13.28"/>
            <polygon class="cls-15" points="126.73 13.28 124.9 13.28 124.9 13.32 124.9 37.05 124.9 37.11 126.73 37.11 126.73 37.05 126.73 37.05 126.73 13.28"/>
          </g>
        </g>
      </g>
      <g>
        <g>
          <polyline class="cls-8" points="90.92 22.39 91.18 22.4 91.18 22.4 91.43 22.43 91.43 22.43 91.68 22.48 91.68 22.48 91.93 22.55 91.93 22.55 92.17 22.65 92.17 22.65 92.4 22.76 92.4 22.76 92.63 22.89 92.63 22.89 92.83 23.04 92.83 23.04 93.03 23.2 93.03 23.2 93.21 23.38 93.21 23.38 93.38 23.57 93.38 23.57 93.54 23.78 93.54 23.78 93.67 23.99 93.67 23.99 93.79 24.23 93.79 24.23 93.88 24.46 93.88 24.46 93.96 24.71 93.96 24.71 94.01 24.96 94.01 24.96 94.05 25.21 94.05 25.21 94.07 25.47 94.07 25.47 94.06 25.73 94.06 25.73 94.04 25.98 94.04 25.98 93.98 26.23 93.98 26.23 93.92 26.48 93.92 26.48 93.83 26.72 93.83 26.72 93.72 26.95 93.72 26.95 93.6 27.18 93.6 27.18 93.46 27.39 93.46 27.39 93.3 27.59 93.3 27.59 93.13 27.78 93.13 27.78 92.94 27.95 92.94 27.95 92.73 28.11 92.73 28.11 92.51 28.25 92.51 28.25 92.28 28.36 92.28 28.36 92.05 28.47 92.05 28.47 91.81 28.55 91.81 28.55 91.56 28.61 91.56 28.61 91.31 28.66 91.31 28.66 91.05 28.68 91.05 28.68 90.79 28.68 90.79 28.68 90.54 28.66 90.54 28.66 90.28 28.61 90.28 28.61 90.04 28.55 90.04 28.55 89.79 28.47 89.79 28.47 89.56 28.36 89.56 28.36 89.33 28.25 89.33 28.25 89.11 28.11 89.11 28.11 88.91 27.95 88.91 27.95 88.72 27.78 88.72 27.78 88.54 27.59 88.54 27.59 88.39 27.39 88.39 27.39 88.24 27.18 88.24 27.18 88.12 26.95 88.12 26.95 88.01 26.72 88.01 26.72 87.92 26.48 87.92 26.48 87.86 26.23 87.86 26.23 87.81 25.98 87.81 25.98 87.78 25.73 87.78 25.73 87.78 25.47 87.78 25.47 87.79 25.21 87.79 25.21 87.83 24.96 87.83 24.96 87.89 24.71 87.89 24.71 87.96 24.46 87.96 24.46 88.06 24.23 88.06 24.23 88.18 23.99 88.18 23.99 88.31 23.78 88.31 23.78 88.47 23.57 88.47 23.57 88.64 23.38 88.64 23.38 88.81 23.2 88.81 23.2 89.01 23.04 89.01 23.04 89.22 22.89 89.22 22.89 89.44 22.76 89.44 22.76 89.68 22.65 89.68 22.65 89.92 22.55 89.92 22.55 90.16 22.48 90.16 22.48 90.41 22.43 90.41 22.43 90.67 22.4 90.67 22.4 90.92 22.39 90.92 22.39"/>
          <polygon class="cls-1" points="90.7 22.87 90.49 22.9 90.28 22.94 90.07 23 89.86 23.08 89.67 23.18 89.48 23.29 89.3 23.41 89.13 23.55 88.98 23.7 88.84 23.87 88.7 24.04 88.59 24.23 88.49 24.42 88.41 24.62 88.35 24.83 88.3 25.04 88.27 25.26 88.25 25.48 88.26 25.69 88.28 25.91 88.32 26.13 88.38 26.33 88.45 26.54 88.54 26.74 88.65 26.92 88.77 27.11 88.9 27.28 89.05 27.44 89.21 27.58 89.39 27.72 89.57 27.83 89.77 27.93 89.96 28.02 90.17 28.09 90.38 28.14 90.6 28.18 90.81 28.2 91.03 28.2 91.25 28.18 91.46 28.14 91.67 28.09 91.88 28.02 92.08 27.93 92.27 27.83 92.46 27.72 92.63 27.58 92.79 27.44 92.94 27.28 93.07 27.11 93.2 26.92 93.3 26.74 93.39 26.54 93.47 26.33 93.52 26.13 93.56 25.91 93.59 25.69 93.59 25.48 93.58 25.26 93.54 25.04 93.5 24.83 93.43 24.62 93.35 24.42 93.25 24.23 93.14 24.04 93.01 23.87 92.86 23.7 92.71 23.55 92.54 23.41 92.37 23.29 92.18 23.18 91.98 23.08 91.78 23 91.57 22.94 91.36 22.9 91.14 22.87 90.92 22.86 90.7 22.87"/>
        </g>
        <rect class="cls-15" x="88.74" y="18.83" width="4.47" height="1.71"/>
        <rect class="cls-15" x="88.74" y="30.19" width="4.47" height="1.71"/>
        <path class="cls-19" d="M94.63,30.55v-10.58h-7.31v10.58h7.31Zm-6.22-5.93l.08-.2,.1-.19,.11-.19,.28-.34,.15-.15,.17-.14,.18-.12,.19-.11,.19-.1,.21-.08,.21-.06,.21-.04,.21-.03h.22s.22,0,.22,0l.22,.03,.21,.04,.21,.06,.2,.08,.2,.1,.19,.11,.17,.12,.17,.14,.15,.15,.15,.17,.13,.17,.11,.19,.1,.19,.08,.2,.07,.21,.04,.21,.04,.22v.22s.01,.21,.01,.21l-.03,.22-.04,.22-.05,.2-.08,.21-.09,.2-.1,.18-.13,.19-.13,.17-.15,.16-.16,.14-.17,.14-.19,.11-.19,.1-.2,.09-.21,.07-.21,.05-.21,.04-.22,.02h-.22s-.21-.02-.21-.02l-.22-.04-.21-.05-.21-.07-.19-.09-.2-.1-.18-.11-.18-.14-.16-.14-.15-.16-.13-.17-.12-.19-.11-.18-.09-.2-.07-.21-.06-.2-.04-.22-.02-.22v-.21s.01-.22,.01-.22l.03-.22,.05-.21,.06-.21Z"/>
      </g>
      <g>
        <rect class="cls-17" x="66.16" y="31.5" width="8.51" height="6.93" transform="translate(105.38 -35.46) rotate(90)"/>
        <rect class="cls-9" x="66.65" y="31.9" width="7.53" height="6.13" rx=".92" ry=".92" transform="translate(105.38 -35.46) rotate(90)"/>
        <g>
          <rect class="cls-9" x="73.53" y="31.9" width="1.17" height=".46" transform="translate(106.24 -41.98) rotate(90)"/>
          <rect class="cls-9" x="66.14" y="31.9" width="1.17" height=".46" transform="translate(98.85 -34.59) rotate(90)"/>
        </g>
        <g>
          <rect class="cls-9" x="73.53" y="34.73" width="1.17" height=".46" transform="translate(109.07 -39.15) rotate(90)"/>
          <rect class="cls-9" x="66.14" y="34.73" width="1.17" height=".46" transform="translate(101.68 -31.76) rotate(90)"/>
        </g>
        <g>
          <rect class="cls-9" x="73.53" y="37.56" width="1.17" height=".46" transform="translate(111.9 -36.32) rotate(90)"/>
          <rect class="cls-9" x="66.14" y="37.56" width="1.17" height=".46" transform="translate(104.52 -28.93) rotate(90)"/>
        </g>
      </g>
      <g>
        <g>
          <rect class="cls-4" x="79.87" y="11.75" width="5.9" height="4.44" transform="translate(96.79 -68.85) rotate(90)"/>
          <circle class="cls-8" cx="84.55" cy="16.47" r=".19"/>
        </g>
        <g>
          <g>
            <rect class="cls-15" x="84.86" y="11.54" width="1.05" height=".66" transform="translate(97.26 -73.51) rotate(90)"/>
            <rect class="cls-15" x="79.74" y="11.54" width="1.05" height=".66" transform="translate(92.14 -68.39) rotate(90)"/>
          </g>
          <g>
            <rect class="cls-15" x="84.86" y="12.94" width="1.05" height=".66" transform="translate(98.65 -72.11) rotate(90)"/>
            <rect class="cls-15" x="79.74" y="12.94" width="1.05" height=".66" transform="translate(93.54 -66.99) rotate(90)"/>
          </g>
          <g>
            <rect class="cls-15" x="84.86" y="14.34" width="1.05" height=".66" transform="translate(100.05 -70.71) rotate(90)"/>
            <rect class="cls-15" x="79.74" y="14.34" width="1.05" height=".66" transform="translate(94.93 -65.6) rotate(90)"/>
          </g>
          <g>
            <rect class="cls-15" x="84.86" y="15.74" width="1.05" height=".66" transform="translate(101.45 -69.31) rotate(90)"/>
            <rect class="cls-15" x="79.74" y="15.74" width="1.05" height=".66" transform="translate(96.33 -64.2) rotate(90)"/>
          </g>
        </g>
      </g>
      <g>
        <rect class="cls-8" x="57.1" y="30.51" width="4.45" height="4.45" transform="translate(92.07 -26.59) rotate(90)"/>
        <circle class="cls-15" cx="60.98" cy="34.46" r=".24"/>
      </g>
      <g>
        <rect class="cls-4" x="64.63" y="11.72" width="5.65" height="5.65" transform="translate(82 -52.9) rotate(90)"/>
        <circle class="cls-15" cx="69.53" cy="12.48" r=".28"/>
        <rect class="cls-8" x="65.18" y="13.92" width="2.9" height="2.9" transform="translate(82 -51.26) rotate(90)"/>
      </g>
      <g>
        <rect class="cls-14" x="1.51" y="7.15" width="3.49" height="3.77" rx=".65" ry=".65" transform="translate(12.29 5.79) rotate(90)"/>
        <rect class="cls-14" x="1.51" y="39.48" width="3.49" height="3.77" rx=".65" ry=".65" transform="translate(44.61 38.11) rotate(90)"/>
      </g>
      <g>
        <rect class="cls-14" x="54.6" y="8.29" width="3.49" height="4.52" rx=".65" ry=".65" transform="translate(112.69 21.11) rotate(180)"/>
        <rect class="cls-14" x="50.26" y="8.29" width="3.49" height="4.52" rx=".65" ry=".65" transform="translate(104.01 21.11) rotate(180)"/>
      </g>
      <g>
        <rect class="cls-4" x="70.94" y="14.24" width="5.97" height="4.7" transform="translate(90.52 -57.33) rotate(90)"/>
        <g>
          <polygon class="cls-14" points="76.28 13.61 71.57 13.61 71.57 15.42 71.09 15.42 71.09 13.25 76.76 13.25 76.76 15.42 76.28 15.42 76.28 13.61"/>
          <polygon class="cls-14" points="76.76 19.93 71.09 19.93 71.09 17.77 71.57 17.77 71.57 19.58 76.28 19.58 76.28 17.77 76.76 17.77 76.76 19.93"/>
        </g>
      </g>
    </g>
  </g>
</svg>