<svg xmlns="http://www.w3.org/2000/svg" id="Layer_1" viewBox="0 0 257.95 77.81"><defs><style>.st0{fill:#7f8c8d}.st2{fill:#c3bab0}.st3,.st4{fill:#b7bfbf}.st5{fill:#929d9e}.st6{fill:#fff}.st7{fill:#8b7867}.st4{fill-rule:evenodd}.st8{fill:#057582}.st9{fill:#007481}</style></defs><g id="Modulinos"><path d="M141.73 15.99v46.38c0 7.04 5.71 12.75 12.75 12.75h90.71c7.05 0 12.76-5.71 12.76-12.75V15.99c0-7.04-5.71-12.75-12.76-12.75h-90.71c-7.04 0-12.75 5.71-12.75 12.75m31.77 16.17c0 1.64-1.33 2.98-2.97 2.98s-2.98-1.34-2.98-2.98 1.33-2.98 2.98-2.98 2.97 1.34 2.97 2.98m0 7.01c0 1.64-1.33 2.98-2.97 2.98s-2.98-1.34-2.98-2.98 1.33-2.98 2.98-2.98 2.97 1.34 2.97 2.98m9.93-21.89c0 2.14-1.76 3.88-3.9 3.88s-3.89-1.74-3.89-3.88 1.75-3.9 3.89-3.9 3.9 1.74 3.9 3.9m0 43.8c0 2.14-1.76 3.88-3.9 3.88s-3.89-1.74-3.89-3.88 1.75-3.89 3.89-3.89 3.9 1.74 3.9 3.89m40.98-31.11c0 1.64-1.34 2.97-2.98 2.97s-2.98-1.33-2.98-2.97 1.34-2.98 2.98-2.98 2.98 1.33 2.98 2.98m12.72 0c0 1.64-1.34 2.97-2.98 2.97s-2.98-1.33-2.98-2.97 1.34-2.98 2.98-2.98 2.98 1.33 2.98 2.98m16-13.47c0 4.38-3.55 7.94-7.94 7.94s-7.93-3.56-7.93-7.94 3.55-7.94 7.93-7.94 7.94 3.56 7.94 7.94m-7.94 53.29c-4.38 0-7.93-3.55-7.93-7.93s3.55-7.94 7.93-7.94 7.94 3.55 7.94 7.94-3.55 7.93-7.94 7.93m-8.73 1.79a2.981 2.981 0 0 1 5.96 0c0 1.65-1.34 2.97-2.98 2.97s-2.98-1.33-2.98-2.97m-2.31-20.22c-1.64 0-2.98-1.33-2.98-2.97s1.34-2.98 2.98-2.98 2.98 1.33 2.98 2.98-1.34 2.97-2.98 2.97m-4.89 20.22a2.981 2.981 0 0 1 5.96 0c0 1.65-1.34 2.97-2.98 2.97s-2.98-1.33-2.98-2.97m-7.2 0a2.981 2.981 0 0 1 5.96 0c0 1.65-1.34 2.97-2.98 2.97s-2.98-1.33-2.98-2.97m-.63-20.22c-1.64 0-2.98-1.33-2.98-2.97s1.34-2.98 2.98-2.98 2.98 1.33 2.98 2.98-1.34 2.97-2.98 2.97m-6.57 20.22a2.981 2.981 0 0 1 5.96 0c0 1.65-1.34 2.97-2.98 2.97s-2.98-1.33-2.98-2.97m-1.71-10.5c0-2.15 1.76-3.89 3.9-3.89s3.89 1.74 3.89 3.89-1.75 3.88-3.89 3.88-3.9-1.74-3.9-3.88m0-43.8c0-2.16 1.76-3.9 3.9-3.9s3.89 1.74 3.89 3.9-1.75 3.88-3.89 3.88-3.9-1.74-3.9-3.88m-5.2-10.5c0-1.49 1.2-2.69 2.69-2.69s2.69 1.2 2.69 2.69-1.2 2.69-2.69 2.69-2.69-1.2-2.69-2.69m-5.72 60.04a2.981 2.981 0 0 1 5.96 0c0 1.65-1.34 2.97-2.98 2.97s-2.98-1.33-2.98-2.97m-1.48-60.04c0-1.49 1.2-2.69 2.69-2.69s2.69 1.2 2.69 2.69-1.2 2.69-2.69 2.69-2.69-1.2-2.69-2.69m-5.54 60.04a2.981 2.981 0 0 1 5.96 0c0 1.65-1.34 2.97-2.98 2.97s-2.98-1.33-2.98-2.97m-1.66-60.04c0-1.49 1.2-2.69 2.69-2.69s2.69 1.2 2.69 2.69-1.2 2.69-2.69 2.69-2.69-1.2-2.69-2.69m-5.35 60.04a2.981 2.981 0 0 1 5.96 0c0 1.65-1.34 2.97-2.98 2.97s-2.98-1.33-2.98-2.97m-1.85-60.04c0-1.49 1.2-2.69 2.69-2.69s2.69 1.2 2.69 2.69-1.2 2.69-2.69 2.69-2.69-1.2-2.69-2.69m-7.49 64.8a2.981 2.981 0 0 1 5.96 0c0 1.65-1.34 2.97-2.98 2.97s-2.98-1.33-2.98-2.97m-7.2 0a2.981 2.981 0 0 1 5.96 0c0 1.65-1.34 2.97-2.98 2.97s-2.98-1.33-2.98-2.97m-1.13-22.41a2.981 2.981 0 0 1 0-5.96c1.65 0 2.97 1.34 2.97 2.98s-1.33 2.98-2.97 2.98m-6.07 22.41a2.981 2.981 0 0 1 5.96 0c0 1.65-1.34 2.97-2.98 2.97s-2.98-1.33-2.98-2.97m-7.2 0a2.981 2.981 0 0 1 5.96 0c0 1.65-1.34 2.97-2.98 2.97s-2.98-1.33-2.98-2.97m-10.71-9.72c0-4.39 3.55-7.94 7.93-7.94s7.94 3.55 7.94 7.94-3.55 7.93-7.94 7.93-7.93-3.55-7.93-7.93m0-45.36c0-4.38 3.55-7.94 7.93-7.94s7.94 3.56 7.94 7.94-3.55 7.94-7.94 7.94-7.93-3.56-7.93-7.94" class="st8"/><path d="M213.15 61.08c0 2.14 1.76 3.88 3.9 3.88s3.89-1.74 3.89-3.88-1.75-3.89-3.89-3.89-3.9 1.74-3.9 3.89m1.55 0c0-1.3 1.06-2.34 2.35-2.34s2.34 1.04 2.34 2.34-1.05 2.33-2.34 2.33-2.35-1.04-2.35-2.33M202.23 66.82c0 1.64 1.34 2.97 2.98 2.97s2.98-1.33 2.98-2.97-1.34-2.98-2.98-2.98-2.98 1.33-2.98 2.98m1.56 0a1.419 1.419 0 1 1 2.84 0c0 .79-.64 1.41-1.42 1.41s-1.42-.63-1.42-1.41M195.21 66.82c0 1.64 1.34 2.97 2.98 2.97s2.98-1.33 2.98-2.97-1.34-2.98-2.98-2.98-2.98 1.33-2.98 2.98m1.56 0a1.419 1.419 0 1 1 2.84 0c0 .79-.64 1.41-1.42 1.41s-1.42-.63-1.42-1.41M188.2 66.82c0 1.64 1.34 2.97 2.98 2.97s2.98-1.33 2.98-2.97-1.34-2.98-2.98-2.98-2.98 1.33-2.98 2.98m1.56 0a1.419 1.419 0 1 1 2.84 0c0 .79-.64 1.41-1.42 1.41s-1.42-.63-1.42-1.41M175.64 61.08c0 2.14 1.75 3.88 3.89 3.88s3.9-1.74 3.9-3.88-1.76-3.89-3.9-3.89-3.89 1.74-3.89 3.89m1.55 0c0-1.3 1.05-2.34 2.34-2.34s2.35 1.04 2.35 2.34-1.06 2.33-2.35 2.33-2.34-1.04-2.34-2.33M167.55 46.19c0 1.64 1.33 2.98 2.98 2.98s2.97-1.34 2.97-2.98-1.33-2.98-2.97-2.98-2.98 1.34-2.98 2.98m1.56 0c0-.78.63-1.42 1.42-1.42s1.41.64 1.41 1.42-.63 1.42-1.41 1.42-1.42-.64-1.42-1.42M167.55 39.17c0 1.64 1.33 2.98 2.98 2.98s2.97-1.34 2.97-2.98-1.33-2.98-2.97-2.98-2.98 1.34-2.98 2.98m1.56 0c0-.78.63-1.42 1.42-1.42s1.41.64 1.41 1.42-.63 1.42-1.41 1.42-1.42-.64-1.42-1.42M167.55 32.16c0 1.64 1.33 2.98 2.98 2.98s2.97-1.34 2.97-2.98-1.33-2.98-2.97-2.98-2.98 1.34-2.98 2.98m1.56 0c0-.78.63-1.42 1.42-1.42s1.41.64 1.41 1.42-.63 1.42-1.41 1.42-1.42-.64-1.42-1.42M175.64 17.28c0 2.14 1.75 3.88 3.89 3.88s3.9-1.74 3.9-3.88-1.76-3.9-3.9-3.9-3.89 1.74-3.89 3.9m1.55 0c0-1.3 1.05-2.34 2.34-2.34s2.35 1.04 2.35 2.34-1.06 2.33-2.35 2.33-2.34-1.04-2.34-2.33M213.15 17.28c0 2.14 1.76 3.88 3.9 3.88s3.89-1.74 3.89-3.88-1.75-3.9-3.89-3.9-3.9 1.74-3.9 3.9m1.55 0c0-1.3 1.06-2.34 2.35-2.34s2.34 1.04 2.34 2.34-1.05 2.33-2.34 2.33-2.35-1.04-2.35-2.33M218.45 48.39c0 1.64 1.34 2.97 2.98 2.97s2.98-1.33 2.98-2.97-1.34-2.98-2.98-2.98-2.98 1.33-2.98 2.98m1.56 0a1.419 1.419 0 1 1 2.84 0c0 .79-.64 1.41-1.42 1.41s-1.42-.63-1.42-1.41M218.45 29.97c0 1.64 1.34 2.97 2.98 2.97s2.98-1.33 2.98-2.97-1.34-2.98-2.98-2.98-2.98 1.33-2.98 2.98m1.56 0a1.419 1.419 0 1 1 2.84 0c0 .79-.64 1.41-1.42 1.41s-1.42-.63-1.42-1.41M231.17 29.97c0 1.64 1.34 2.97 2.98 2.97s2.98-1.33 2.98-2.97-1.34-2.98-2.98-2.98-2.98 1.33-2.98 2.98m1.56 0a1.419 1.419 0 1 1 2.84 0c0 .79-.64 1.41-1.42 1.41s-1.42-.63-1.42-1.41M157.26 71.58c0 1.64 1.34 2.97 2.98 2.97s2.98-1.33 2.98-2.97-1.34-2.98-2.98-2.98-2.98 1.33-2.98 2.98m1.56 0a1.419 1.419 0 1 1 2.84 0c0 .79-.64 1.41-1.42 1.41s-1.42-.63-1.42-1.41M164.46 71.58c0 1.64 1.34 2.97 2.98 2.97s2.98-1.33 2.98-2.97-1.34-2.98-2.98-2.98-2.98 1.33-2.98 2.98m1.56 0a1.419 1.419 0 1 1 2.84 0c0 .79-.64 1.41-1.42 1.41s-1.42-.63-1.42-1.41M229.26 71.58c0 1.64 1.34 2.97 2.98 2.97s2.98-1.33 2.98-2.97-1.34-2.98-2.98-2.98-2.98 1.33-2.98 2.98m1.56 0a1.419 1.419 0 1 1 2.84 0c0 .79-.64 1.41-1.42 1.41s-1.42-.63-1.42-1.41M236.46 71.58c0 1.64 1.34 2.97 2.98 2.97s2.98-1.33 2.98-2.97-1.34-2.98-2.98-2.98-2.98 1.33-2.98 2.98m1.56 0a1.419 1.419 0 1 1 2.84 0c0 .79-.64 1.41-1.42 1.41s-1.42-.63-1.42-1.41" class="st3"/><path id="HATCH" d="M214.86 71.57c0 1.64 1.34 2.97 2.98 2.97s2.98-1.33 2.98-2.97-1.34-2.98-2.98-2.98-2.98 1.33-2.98 2.98m1.56 0a1.419 1.419 0 1 1 2.84 0c0 .79-.64 1.41-1.42 1.41s-1.42-.63-1.42-1.41" class="st4"/><path id="HATCH-2" d="M231.17 48.39c0 1.64 1.34 2.97 2.98 2.97s2.98-1.33 2.98-2.97-1.34-2.98-2.98-2.98-2.98 1.33-2.98 2.98m1.56 0a1.419 1.419 0 1 1 2.84 0c0 .79-.64 1.41-1.42 1.41s-1.42-.63-1.42-1.41" class="st4"/><path id="HATCH-3" d="M222.06 71.57c0 1.64 1.34 2.97 2.98 2.97s2.98-1.33 2.98-2.97-1.34-2.98-2.98-2.98-2.98 1.33-2.98 2.98m1.56 0a1.419 1.419 0 1 1 2.84 0c0 .79-.64 1.41-1.42 1.41s-1.42-.63-1.42-1.41" class="st4"/><path id="HATCH-4" d="M178.86 71.57c0 1.64 1.34 2.97 2.98 2.97s2.98-1.33 2.98-2.97-1.34-2.98-2.98-2.98-2.98 1.33-2.98 2.98m1.56 0a1.419 1.419 0 1 1 2.84 0c0 .79-.64 1.41-1.42 1.41s-1.42-.63-1.42-1.41" class="st4"/><path id="HATCH-5" d="M171.66 71.57c0 1.64 1.34 2.97 2.98 2.97s2.98-1.33 2.98-2.97-1.34-2.98-2.98-2.98-2.98 1.33-2.98 2.98m1.56 0a1.419 1.419 0 1 1 2.84 0c0 .79-.64 1.41-1.42 1.41s-1.42-.63-1.42-1.41" class="st4"/><path id="HATCH-6" d="M237.26 61.85c0 4.38 3.55 7.93 7.93 7.93s7.94-3.55 7.94-7.93-3.55-7.94-7.94-7.94-7.93 3.55-7.93 7.94m3.4 0c0-2.51 2.03-4.54 4.53-4.54s4.54 2.03 4.54 4.54-2.03 4.53-4.54 4.53-4.53-2.03-4.53-4.53" class="st4"/><path id="HATCH-7" d="M237.26 16.49c0 4.38 3.55 7.94 7.93 7.94s7.94-3.56 7.94-7.94-3.55-7.94-7.94-7.94-7.93 3.56-7.93 7.94m3.4 0c0-2.5 2.03-4.53 4.53-4.53s4.54 2.03 4.54 4.53-2.03 4.54-4.54 4.54-4.53-2.03-4.53-4.54" class="st4"/><path id="HATCH-8" d="M146.55 16.49c0 4.38 3.55 7.94 7.93 7.94s7.94-3.56 7.94-7.94-3.55-7.94-7.94-7.94-7.93 3.56-7.93 7.94m3.4 0c0-2.5 2.03-4.53 4.53-4.53s4.54 2.03 4.54 4.53-2.03 4.54-4.54 4.54-4.53-2.03-4.53-4.54" class="st4"/><path id="HATCH-9" d="M146.55 61.85c0 4.38 3.55 7.93 7.93 7.93s7.94-3.55 7.94-7.93-3.55-7.94-7.94-7.94-7.93 3.55-7.93 7.94m3.4 0c0-2.51 2.03-4.54 4.53-4.54s4.54 2.03 4.54 4.54-2.03 4.53-4.54 4.53-4.53-2.03-4.53-4.53" class="st4"/><path id="HATCH-10" d="M207.95 6.77c0 1.49 1.2 2.69 2.69 2.69s2.69-1.2 2.69-2.69-1.2-2.69-2.69-2.69-2.69 1.2-2.69 2.69m1.27 0c0-.78.64-1.42 1.42-1.42s1.42.64 1.42 1.42-.64 1.42-1.42 1.42-1.42-.64-1.42-1.42" class="st4"/><path id="HATCH-11" d="M200.75 6.77c0 1.49 1.2 2.69 2.69 2.69s2.69-1.2 2.69-2.69-1.2-2.69-2.69-2.69-2.69 1.2-2.69 2.69m1.27 0c0-.78.64-1.42 1.42-1.42s1.42.64 1.42 1.42-.64 1.42-1.42 1.42-1.42-.64-1.42-1.42" class="st4"/><path id="HATCH-12" d="M193.55 6.77c0 1.49 1.2 2.69 2.69 2.69s2.69-1.2 2.69-2.69-1.2-2.69-2.69-2.69-2.69 1.2-2.69 2.69m1.27 0c0-.78.64-1.42 1.42-1.42s1.42.64 1.42 1.42-.64 1.42-1.42 1.42-1.42-.64-1.42-1.42" class="st4"/><path id="HATCH-13" d="M186.35 6.77c0 1.49 1.2 2.69 2.69 2.69s2.69-1.2 2.69-2.69-1.2-2.69-2.69-2.69-2.69 1.2-2.69 2.69m1.27 0c0-.78.64-1.42 1.42-1.42s1.42.64 1.42 1.42-.64 1.42-1.42 1.42-1.42-.64-1.42-1.42" class="st4"/><path d="M103.47 3.24H12.76C5.71 3.24 0 8.95 0 15.99v46.38c0 7.04 5.71 12.75 12.76 12.75h90.71c7.04 0 12.75-5.71 12.75-12.75V15.99c0-7.04-5.71-12.75-12.75-12.75M87.42 29.18a2.981 2.981 0 0 1 0 5.96c-1.65 0-2.97-1.34-2.97-2.98s1.33-2.98 2.97-2.98m0 7.01a2.981 2.981 0 0 1 0 5.96c-1.65 0-2.97-1.34-2.97-2.98s1.33-2.98 2.97-2.98m-9-22.81c2.14 0 3.89 1.74 3.89 3.9s-1.75 3.88-3.89 3.88-3.9-1.74-3.9-3.88 1.76-3.9 3.9-3.9m0 43.81c2.14 0 3.89 1.74 3.89 3.89s-1.75 3.88-3.89 3.88-3.9-1.74-3.9-3.88 1.76-3.89 3.9-3.89m-41.9-30.2c1.64 0 2.98 1.33 2.98 2.98s-1.34 2.97-2.98 2.97-2.98-1.33-2.98-2.97 1.34-2.98 2.98-2.98m-12.72 0c1.64 0 2.98 1.33 2.98 2.98s-1.34 2.97-2.98 2.97-2.98-1.33-2.98-2.97 1.34-2.98 2.98-2.98M12.76 8.56c4.38 0 7.93 3.56 7.93 7.94s-3.55 7.94-7.93 7.94-7.94-3.56-7.94-7.94 3.55-7.94 7.94-7.94m-7.94 53.3c0-4.39 3.55-7.94 7.94-7.94s7.93 3.55 7.93 7.94-3.55 7.93-7.93 7.93-7.94-3.55-7.94-7.93m13.69 12.69c-1.64 0-2.98-1.33-2.98-2.97s1.34-2.98 2.98-2.98 2.98 1.33 2.98 2.98-1.34 2.97-2.98 2.97m2.31-26.16a2.981 2.981 0 0 1 5.96 0c0 1.65-1.34 2.97-2.98 2.97s-2.98-1.33-2.98-2.97m4.89 26.16c-1.64 0-2.98-1.33-2.98-2.97s1.34-2.98 2.98-2.98 2.98 1.33 2.98 2.98-1.34 2.97-2.98 2.97m7.2 0c-1.64 0-2.98-1.33-2.98-2.97s1.34-2.98 2.98-2.98 2.98 1.33 2.98 2.98-1.34 2.97-2.98 2.97m.63-26.16a2.981 2.981 0 0 1 5.96 0c0 1.65-1.34 2.97-2.98 2.97s-2.98-1.33-2.98-2.97m6.57 26.16c-1.64 0-2.98-1.33-2.98-2.97s1.34-2.98 2.98-2.98 2.98 1.33 2.98 2.98-1.34 2.97-2.98 2.97m.79-9.59c-2.14 0-3.89-1.74-3.89-3.88s1.75-3.89 3.89-3.89 3.9 1.74 3.9 3.89-1.76 3.88-3.9 3.88m0-43.8c-2.14 0-3.89-1.74-3.89-3.88s1.75-3.9 3.89-3.9 3.9 1.74 3.9 3.9-1.76 3.88-3.9 3.88m6.41-11.69c-1.49 0-2.69-1.2-2.69-2.69s1.2-2.69 2.69-2.69S50 5.29 50 6.78s-1.2 2.69-2.69 2.69m5.43 60.32c-1.64 0-2.98-1.33-2.98-2.97s1.34-2.98 2.98-2.98 2.98 1.33 2.98 2.98-1.34 2.97-2.98 2.97m1.77-60.32c-1.49 0-2.69-1.2-2.69-2.69s1.2-2.69 2.69-2.69 2.69 1.2 2.69 2.69-1.2 2.69-2.69 2.69m5.25 60.32c-1.64 0-2.98-1.33-2.98-2.97s1.34-2.98 2.98-2.98 2.98 1.33 2.98 2.98-1.34 2.97-2.98 2.97m1.95-60.32c-1.49 0-2.69-1.2-2.69-2.69s1.2-2.69 2.69-2.69 2.69 1.2 2.69 2.69-1.2 2.69-2.69 2.69m5.06 60.32c-1.64 0-2.98-1.33-2.98-2.97s1.34-2.98 2.98-2.98 2.98 1.33 2.98 2.98-1.34 2.97-2.98 2.97m2.14-60.32c-1.49 0-2.69-1.2-2.69-2.69s1.2-2.69 2.69-2.69 2.69 1.2 2.69 2.69-1.2 2.69-2.69 2.69m7.2 65.08c-1.64 0-2.98-1.33-2.98-2.97s1.34-2.98 2.98-2.98 2.98 1.33 2.98 2.98-1.34 2.97-2.98 2.97m7.2 0c-1.64 0-2.98-1.33-2.98-2.97s1.34-2.98 2.98-2.98 2.98 1.33 2.98 2.98-1.34 2.97-2.98 2.97m1.14-28.36c0-1.64 1.33-2.98 2.97-2.98s2.98 1.34 2.98 2.98-1.33 2.98-2.98 2.98-2.97-1.34-2.97-2.98m6.06 28.36c-1.64 0-2.98-1.33-2.98-2.97s1.34-2.98 2.98-2.98 2.98 1.33 2.98 2.98-1.34 2.97-2.98 2.97m7.2 0c-1.64 0-2.98-1.33-2.98-2.97s1.34-2.98 2.98-2.98 2.98 1.33 2.98 2.98-1.34 2.97-2.98 2.97m5.76-4.76c-4.39 0-7.94-3.55-7.94-7.93s3.55-7.94 7.94-7.94 7.93 3.55 7.93 7.94-3.55 7.93-7.93 7.93m0-45.35a7.94 7.94 0 0 1 0-15.88c4.39 0 7.93 3.56 7.93 7.94s-3.55 7.94-7.93 7.94" class="st8"/><path d="M8.04 49.88h5.09v2.27H8.04z" class="st5"/><circle cx="10.58" cy="51.02" r="1.63" style="fill:#ebaa01"/><g id="USB"><path d="M102.9 30.41h11.55v17.53H102.9z" class="st5"/><path d="M104.55 30.41h-1.65v17.53h1.65V30.41M107.85 30.41h-1.65v17.53h1.65V30.41M111.15 30.41h-1.65v17.53h1.65V30.41M114.45 30.41h-1.65v17.53h1.65V30.41" class="st0"/><path d="M99.16 34.24h3.74v1.5h-3.74zM99.16 42.59h3.74v1.5h-3.74zM99.16 39.81h3.74v1.5h-3.74zM99.16 37.02h3.74v1.5h-3.74z" class="st3"/></g><g id="USB-2"><path d="M1.77 30.41h11.55v17.53H1.77z" class="st5"/><path d="M11.67 47.94h1.65V30.41h-1.65v17.53M8.37 47.94h1.65V30.41H8.37v17.53M5.07 47.94h1.65V30.41H5.07v17.53M1.77 47.94h1.65V30.41H1.77v17.53" class="st0"/><path d="M13.32 42.6h3.74v1.5h-3.74zM13.32 34.25h3.74v1.5h-3.74zM13.32 37.03h3.74v1.5h-3.74zM13.32 39.82h3.74v1.5h-3.74z" class="st3"/></g><path d="M40.9 57.19c-2.14 0-3.89 1.74-3.89 3.89s1.75 3.88 3.89 3.88 3.9-1.74 3.9-3.88-1.76-3.89-3.9-3.89m0 6.22c-1.29 0-2.34-1.04-2.34-2.33s1.05-2.34 2.34-2.34 2.35 1.04 2.35 2.34-1.06 2.33-2.35 2.33M52.74 63.84c-1.64 0-2.98 1.33-2.98 2.98s1.34 2.97 2.98 2.97 2.98-1.33 2.98-2.97-1.34-2.98-2.98-2.98m0 4.39c-.78 0-1.42-.63-1.42-1.41s.64-1.42 1.42-1.42 1.42.63 1.42 1.42-.64 1.41-1.42 1.41M59.76 63.84c-1.64 0-2.98 1.33-2.98 2.98s1.34 2.97 2.98 2.97 2.98-1.33 2.98-2.97-1.34-2.98-2.98-2.98m0 4.39c-.78 0-1.42-.63-1.42-1.41s.64-1.42 1.42-1.42 1.42.63 1.42 1.42-.64 1.41-1.42 1.41M66.77 63.84c-1.64 0-2.98 1.33-2.98 2.98s1.34 2.97 2.98 2.97 2.98-1.33 2.98-2.97-1.34-2.98-2.98-2.98m0 4.39c-.78 0-1.42-.63-1.42-1.41s.64-1.42 1.42-1.42 1.42.63 1.42 1.42-.64 1.41-1.42 1.41M78.42 57.19c-2.14 0-3.9 1.74-3.9 3.89s1.76 3.88 3.9 3.88 3.89-1.74 3.89-3.88-1.75-3.89-3.89-3.89m0 6.22c-1.29 0-2.35-1.04-2.35-2.33s1.06-2.34 2.35-2.34 2.34 1.04 2.34 2.34-1.05 2.33-2.34 2.33M87.42 43.21c-1.64 0-2.97 1.34-2.97 2.98s1.33 2.98 2.97 2.98 2.98-1.34 2.98-2.98-1.33-2.98-2.98-2.98m0 4.4c-.78 0-1.41-.64-1.41-1.42s.63-1.42 1.41-1.42 1.42.64 1.42 1.42-.63 1.42-1.42 1.42M87.42 36.19c-1.64 0-2.97 1.34-2.97 2.98s1.33 2.98 2.97 2.98 2.98-1.34 2.98-2.98-1.33-2.98-2.98-2.98m0 4.4c-.78 0-1.41-.64-1.41-1.42s.63-1.42 1.41-1.42 1.42.64 1.42 1.42-.63 1.42-1.42 1.42M87.42 29.18c-1.64 0-2.97 1.34-2.97 2.98s1.33 2.98 2.97 2.98 2.98-1.34 2.98-2.98-1.33-2.98-2.98-2.98m0 4.4c-.78 0-1.41-.64-1.41-1.42s.63-1.42 1.41-1.42 1.42.64 1.42 1.42-.63 1.42-1.42 1.42M78.42 13.38c-2.14 0-3.9 1.74-3.9 3.9s1.76 3.88 3.9 3.88 3.89-1.74 3.89-3.88-1.75-3.9-3.89-3.9m0 6.23c-1.29 0-2.35-1.04-2.35-2.33s1.06-2.34 2.35-2.34 2.34 1.04 2.34 2.34-1.05 2.33-2.34 2.33M40.9 13.38c-2.14 0-3.89 1.74-3.89 3.9s1.75 3.88 3.89 3.88 3.9-1.74 3.9-3.88-1.76-3.9-3.9-3.9m0 6.23c-1.29 0-2.34-1.04-2.34-2.33s1.05-2.34 2.34-2.34 2.35 1.04 2.35 2.34-1.06 2.33-2.35 2.33M36.52 45.41c-1.64 0-2.98 1.33-2.98 2.98s1.34 2.97 2.98 2.97 2.98-1.33 2.98-2.97-1.34-2.98-2.98-2.98m0 4.39c-.78 0-1.42-.63-1.42-1.41s.64-1.42 1.42-1.42 1.42.63 1.42 1.42-.64 1.41-1.42 1.41M36.52 26.99c-1.64 0-2.98 1.33-2.98 2.98s1.34 2.97 2.98 2.97 2.98-1.33 2.98-2.97-1.34-2.98-2.98-2.98m0 4.39c-.78 0-1.42-.63-1.42-1.41s.64-1.42 1.42-1.42 1.42.63 1.42 1.42-.64 1.41-1.42 1.41M23.8 26.99c-1.64 0-2.98 1.33-2.98 2.98s1.34 2.97 2.98 2.97 2.98-1.33 2.98-2.97-1.34-2.98-2.98-2.98m0 4.39c-.78 0-1.42-.63-1.42-1.41s.64-1.42 1.42-1.42 1.42.63 1.42 1.42-.64 1.41-1.42 1.41M97.71 68.6c-1.64 0-2.98 1.33-2.98 2.98s1.34 2.97 2.98 2.97 2.98-1.33 2.98-2.97-1.34-2.98-2.98-2.98m0 4.39c-.78 0-1.42-.63-1.42-1.41s.64-1.42 1.42-1.42 1.42.63 1.42 1.42-.64 1.41-1.42 1.41M90.51 68.6c-1.64 0-2.98 1.33-2.98 2.98s1.34 2.97 2.98 2.97 2.98-1.33 2.98-2.97-1.34-2.98-2.98-2.98m0 4.39c-.78 0-1.42-.63-1.42-1.41s.64-1.42 1.42-1.42 1.42.63 1.42 1.42-.64 1.41-1.42 1.41M25.71 68.6c-1.64 0-2.98 1.33-2.98 2.98s1.34 2.97 2.98 2.97 2.98-1.33 2.98-2.97-1.34-2.98-2.98-2.98m0 4.39c-.78 0-1.42-.63-1.42-1.41s.64-1.42 1.42-1.42 1.42.63 1.42 1.42-.64 1.41-1.42 1.41M18.51 68.6c-1.64 0-2.98 1.33-2.98 2.98s1.34 2.97 2.98 2.97 2.98-1.33 2.98-2.97-1.34-2.98-2.98-2.98m0 4.39c-.78 0-1.42-.63-1.42-1.41s.64-1.42 1.42-1.42 1.42.63 1.42 1.42-.64 1.41-1.42 1.41" class="st3"/><path d="M95.91 49.67h1.42v.69h-1.42zM95.91 47.47h1.42v.69h-1.42zM95.91 30.3h1.42v.69h-1.42zM95.91 28.1h1.42v.69h-1.42zM23.52 18.9h.69v1.42h-.69zM25.71 18.9h.69v1.42h-.69zM30.84 18.9h.69v1.42h-.69zM33.03 18.9h.69v1.42h-.69z" class="st5"/><path d="M77.85 7.16c0 .25.05.49.13.71H75.8c.09-.22.13-.46.13-.71s-.05-.49-.14-.71h2.19c-.09.22-.14.46-.14.71Z" class="st7"/><path d="M75.94 7.16c0 .25-.05.49-.13.71h-.36V6.45h.35c.09.22.14.46.14.71M78.34 6.45v1.42h-.35c-.09-.22-.13-.46-.13-.71s.05-.49.14-.71h.35Z" class="st5"/><path d="M78.44 10.57c0 .4.07.78.21 1.13h-3.5c.14-.35.21-.74.21-1.13s-.07-.79-.22-1.14h3.52c-.15.35-.22.74-.22 1.14" class="st7"/><path d="M75.37 10.57c0 .4-.07.78-.21 1.13h-.58V9.42h.57c.15.35.22.74.22 1.14ZM79.22 9.43v2.28h-.57c-.14-.35-.21-.74-.21-1.13s.07-.79.22-1.14h.56Z" class="st5"/><circle id="HATCH-14" cx="3.69" cy="53" r="2.83" class="st7"/><circle id="LWPOLYLINE" cx="3.69" cy="53" r="1.42" class="st2"/><circle id="HATCH-15" cx="3.69" cy="25.34" r="2.83" class="st7"/><circle id="LWPOLYLINE-2" cx="3.69" cy="25.34" r="1.42" class="st2"/><circle id="HATCH-16" cx="112.54" cy="25.34" r="2.83" class="st7"/><circle id="LWPOLYLINE-3" cx="112.54" cy="25.34" r="1.42" class="st2"/><path id="HATCH-17" d="M40.11 68.59c-1.64 0-2.98 1.33-2.98 2.98s1.34 2.97 2.98 2.97 2.98-1.33 2.98-2.97-1.34-2.98-2.98-2.98m0 4.39c-.78 0-1.42-.63-1.42-1.41s.64-1.42 1.42-1.42 1.42.63 1.42 1.42-.64 1.41-1.42 1.41" class="st4"/><path id="HATCH-18" d="M23.8 45.41c-1.64 0-2.98 1.33-2.98 2.98s1.34 2.97 2.98 2.97 2.98-1.33 2.98-2.97-1.34-2.98-2.98-2.98m0 4.39c-.78 0-1.42-.63-1.42-1.41s.64-1.42 1.42-1.42 1.42.63 1.42 1.42-.64 1.41-1.42 1.41" class="st4"/><path id="HATCH-19" d="M32.91 68.59c-1.64 0-2.98 1.33-2.98 2.98s1.34 2.97 2.98 2.97 2.98-1.33 2.98-2.97-1.34-2.98-2.98-2.98m0 4.39c-.78 0-1.42-.63-1.42-1.41s.64-1.42 1.42-1.42 1.42.63 1.42 1.42-.64 1.41-1.42 1.41" class="st4"/><path id="HATCH-20" d="M76.11 68.59c-1.64 0-2.98 1.33-2.98 2.98s1.34 2.97 2.98 2.97 2.98-1.33 2.98-2.97-1.34-2.98-2.98-2.98m0 4.39c-.78 0-1.42-.63-1.42-1.41s.64-1.42 1.42-1.42 1.42.63 1.42 1.42-.64 1.41-1.42 1.41" class="st4"/><path id="HATCH-21" d="M83.31 68.59c-1.64 0-2.98 1.33-2.98 2.98s1.34 2.97 2.98 2.97 2.98-1.33 2.98-2.97-1.34-2.98-2.98-2.98m0 4.39c-.78 0-1.42-.63-1.42-1.41s.64-1.42 1.42-1.42 1.42.63 1.42 1.42-.64 1.41-1.42 1.41" class="st4"/><path id="HATCH-22" d="M12.76 53.91c-4.39 0-7.94 3.55-7.94 7.94s3.55 7.93 7.94 7.93 7.93-3.55 7.93-7.93-3.55-7.94-7.93-7.94m0 12.47c-2.51 0-4.54-2.03-4.54-4.53s2.03-4.54 4.54-4.54 4.53 2.03 4.53 4.54-2.03 4.53-4.53 4.53" class="st4"/><path id="HATCH-23" d="M12.76 8.55a7.94 7.94 0 0 0 0 15.88c4.39 0 7.93-3.56 7.93-7.94s-3.55-7.94-7.93-7.94m0 12.48c-2.51 0-4.54-2.03-4.54-4.54s2.03-4.53 4.54-4.53 4.53 2.03 4.53 4.53-2.03 4.54-4.53 4.54" class="st4"/><path id="HATCH-24" d="M103.47 8.55a7.94 7.94 0 0 0 0 15.88c4.39 0 7.93-3.56 7.93-7.94s-3.55-7.94-7.93-7.94m0 12.48c-2.51 0-4.54-2.03-4.54-4.54s2.03-4.53 4.54-4.53 4.53 2.03 4.53 4.53-2.03 4.54-4.53 4.54" class="st4"/><path id="HATCH-25" d="M103.47 53.91c-4.39 0-7.94 3.55-7.94 7.94s3.55 7.93 7.94 7.93 7.93-3.55 7.93-7.93-3.55-7.94-7.93-7.94m0 12.47c-2.51 0-4.54-2.03-4.54-4.53s2.03-4.54 4.54-4.54 4.53 2.03 4.53 4.54-2.03 4.53-4.53 4.53" class="st4"/><path id="HATCH-26" d="M47.31 4.08c-1.49 0-2.69 1.2-2.69 2.69s1.2 2.69 2.69 2.69S50 8.26 50 6.77s-1.2-2.69-2.69-2.69m0 4.11c-.78 0-1.42-.64-1.42-1.42s.64-1.42 1.42-1.42 1.42.64 1.42 1.42-.64 1.42-1.42 1.42" class="st4"/><path id="HATCH-27" d="M54.51 4.08c-1.49 0-2.69 1.2-2.69 2.69s1.2 2.69 2.69 2.69 2.69-1.2 2.69-2.69-1.2-2.69-2.69-2.69m0 4.11c-.78 0-1.42-.64-1.42-1.42s.64-1.42 1.42-1.42 1.42.64 1.42 1.42-.64 1.42-1.42 1.42" class="st4"/><path id="HATCH-28" d="M61.71 4.08c-1.49 0-2.69 1.2-2.69 2.69s1.2 2.69 2.69 2.69 2.69-1.2 2.69-2.69-1.2-2.69-2.69-2.69m0 4.11c-.78 0-1.42-.64-1.42-1.42s.64-1.42 1.42-1.42 1.42.64 1.42 1.42-.64 1.42-1.42 1.42" class="st4"/><path id="HATCH-29" d="M68.91 4.08c-1.49 0-2.69 1.2-2.69 2.69s1.2 2.69 2.69 2.69 2.69-1.2 2.69-2.69-1.2-2.69-2.69-2.69m0 4.11c-.78 0-1.42-.64-1.42-1.42s.64-1.42 1.42-1.42 1.42.64 1.42 1.42-.64 1.42-1.42 1.42" class="st4"/><circle id="HATCH-30" cx="151.65" cy="42.77" r="1.56" class="st5"/><circle id="HATCH-31" cx="151.65" cy="49.97" r="1.56" class="st5"/><circle id="HATCH-32" cx="157.32" cy="28.37" r="1.56" class="st5"/><circle id="HATCH-33" cx="151.65" cy="35.57" r="1.56" class="st5"/><circle id="HATCH-34" cx="157.32" cy="35.57" r="1.56" class="st5"/><circle id="HATCH-35" cx="157.32" cy="42.77" r="1.56" class="st5"/><circle id="HATCH-36" cx="157.32" cy="49.97" r="1.56" class="st5"/><circle id="HATCH-37" cx="242.36" cy="42.77" r="1.56" class="st5"/><circle id="HATCH-38" cx="242.36" cy="35.57" r="1.56" class="st5"/><circle id="HATCH-39" cx="242.36" cy="49.97" r="1.56" class="st5"/><circle id="HATCH-40" cx="242.36" cy="28.37" r="1.56" class="st5"/><circle id="HATCH-41" cx="248.03" cy="35.57" r="1.56" class="st5"/><circle id="HATCH-42" cx="248.03" cy="42.77" r="1.56" class="st5"/><circle id="HATCH-43" cx="248.03" cy="49.97" r="1.56" class="st5"/><circle id="HATCH-44" cx="248.03" cy="28.37" r="1.56" class="st5"/><path d="M82.31 25.41h9.04v26.98h-9.04zM46.17 61.63h26.98v9.04H46.17z" class="st6"/><path d="M82.31 25.41h9.04v26.98h-9.04zM46.17 61.63h26.98v9.04H46.17z"/><path d="M82.31 22.2h3.22v3.22h-3.22zM82.31 52.4h3.22v3.22h-3.22zM73.15 61.63h3.22v3.22h-3.22z" class="st3"/><path d="M42.95 61.63h3.22v3.22h-3.22z" class="st5"/><path d="M22.83 27.74h1.95v3.63h-1.95zM35.55 27.74h1.95v3.63h-1.95zM22.83 46.97h1.95v3.63h-1.95zM35.55 46.97h1.95v3.63h-1.95z" class="st0"/><path d="M21.49 30.41h16.98v16.98H21.49z" class="st5"/><circle cx="29.98" cy="38.91" r="4.88" class="st6"/><path d="M26.94 34.58h10.07v8.66H26.94z" class="st0"/><path d="M37.01 16.18h45.3v45.46h-45.3z" class="st5"/><path d="M77.13 34.71v8.4h.78v8.17l-5.94 5.94H47.35l-5.94-5.94V26.54l5.94-5.94h24.62l5.94 5.94v8.17z" class="st0"/><circle cx="59.66" cy="38.9" r="3.08" class="st6"/><circle cx="59.66" cy="38.9" r="3.08"/><path d="M79.53 16.18h2.78v2.78h-1.39c-.76 0-1.39-.62-1.39-1.39z"/><path d="M80.92 18.26h1.39v.69h-1.39z" class="st3"/><path d="M80.92 17.57h1.39v.69h-1.39z" class="st5"/><path d="M79.53 16.18h2.78v1.39h-2.78z" class="st3"/><path d="M80.92 58.85h1.39v2.78h-2.78v-1.39c0-.76.62-1.39 1.39-1.39"/><path d="M80.92 58.85h1.39v.69h-1.39z" class="st3"/><path d="M80.92 59.55h1.39v.69h-1.39z" class="st5"/><path d="M79.53 60.24h2.78v1.39h-2.78z" class="st3"/><path d="M38.4 18.95h-1.39v-2.78h2.78v1.39c0 .76-.62 1.39-1.39 1.39"/><path d="M37.01 18.26h1.39v.69h-1.39z" class="st3"/><path d="M37.01 17.57h1.39v.69h-1.39z" class="st5"/><path d="M37.01 16.18h2.78v1.39h-2.78z" class="st3"/><path d="M39.79 61.63h-2.78v-2.78h1.39c.76 0 1.39.62 1.39 1.39z"/><path d="M37.01 58.85h1.39v.69h-1.39z" class="st3"/><path d="M37.01 59.55h1.39v.69h-1.39z" class="st5"/><path d="M37.01 60.24h2.78v1.39h-2.78z" class="st3"/><path d="m82.31 52.4-.7-1V26.41l.7-1zM46.17 61.63l1-.7h24.98l1 .7z" class="st5"/><path d="M19.21 34.62h2.28v8.57h-2.28z" class="st3"/><path d="M19.21 35.58h1.47v6.66h-1.47z" class="st5"/><path d="m21.49 43.19-.81-.95v-6.66l.81-.96z" class="st0"/><path d="M27.02 29.83h9.99v2.84h-9.99z" class="st3"/><path d="M37.01 23.37v2.24h-1.87c-.36.35-.56.55-.91.9v3.33h-7.21v-6.47z" class="st5"/><path d="M27.02 45.13h9.99v2.84h-9.99z" class="st3"/><path d="M37.01 54.45v-2.24h-1.87c-.36-.35-.56-.55-.91-.9v-3.33h-7.21v6.47z" class="st5"/><path d="M48.7 11.84h4.33v4.33H48.7zM66.29 11.84h4.33v4.33h-4.33z" class="st3"/><path d="m48.7 16.18.81-1.05h20.3l.81 1.05z" class="st0"/><path d="M49.51 12.66h20.3v2.47h-20.3z" class="st5"/><path d="M29.57 58.78c0-.25-.05-.49-.13-.71h2.18c-.09.22-.13.46-.13.71s.05.49.14.71h-2.19c.09-.22.14-.46.14-.71Z" class="st9"/><path d="M29.57 58.78c0-.25-.05-.49-.13-.71h2.18c-.09.22-.13.46-.13.71s.05.49.14.71h-2.19c.09-.22.14-.46.14-.71Z"/><path d="M31.49 58.78c0-.25.05-.49.13-.71h.36v1.42h-.35c-.09-.22-.14-.46-.14-.71M29.09 59.49v-1.42h.35c.09.22.13.46.13.71s-.05.49-.14.71h-.35Z" class="st5"/><path d="M93.58 47.87c.25 0 .49-.05.71-.13v2.18c-.22-.09-.46-.13-.71-.13s-.49.05-.71.14v-2.19c.22.09.46.14.71.14Z" class="st9"/><path d="M93.58 47.87c.25 0 .49-.05.71-.13v2.18c-.22-.09-.46-.13-.71-.13s-.49.05-.71.14v-2.19c.22.09.46.14.71.14Z"/><path d="M93.58 49.78c.25 0 .49.05.71.13v.36h-1.42v-.35c.22-.09.46-.14.71-.14M92.87 47.38h1.42v.35c-.22.09-.46.13-.71.13s-.49-.05-.71-.14v-.35Z" class="st5"/><path d="M99.62 47.87c.25 0 .49-.05.71-.13v2.18c-.22-.09-.46-.13-.71-.13s-.49.05-.71.14v-2.19c.22.09.46.14.71.14Z" class="st9"/><path d="M99.62 47.87c.25 0 .49-.05.71-.13v2.18c-.22-.09-.46-.13-.71-.13s-.49.05-.71.14v-2.19c.22.09.46.14.71.14Z"/><path d="M99.62 49.78c.25 0 .49.05.71.13v.36h-1.42v-.35c.22-.09.46-.14.71-.14M98.91 47.38h1.42v.35c-.22.09-.46.13-.71.13s-.49-.05-.71-.14v-.35Z" class="st5"/><path d="M93.58 28.59c.25 0 .49-.05.71-.13v2.18c-.22-.09-.46-.13-.71-.13s-.49.05-.71.14v-2.19c.22.09.46.14.71.14Z" class="st9"/><path d="M93.58 28.59c.25 0 .49-.05.71-.13v2.18c-.22-.09-.46-.13-.71-.13s-.49.05-.71.14v-2.19c.22.09.46.14.71.14Z"/><path d="M93.58 30.5c.25 0 .49.05.71.13v.36h-1.42v-.35c.22-.09.46-.14.71-.14M92.87 28.1h1.42v.35c-.22.09-.46.13-.71.13s-.49-.05-.71-.14v-.35Z" class="st5"/><path d="M99.62 28.59c.25 0 .49-.05.71-.13v2.18c-.22-.09-.46-.13-.71-.13s-.49.05-.71.14v-2.19c.22.09.46.14.71.14Z" class="st9"/><path d="M99.62 28.59c.25 0 .49-.05.71-.13v2.18c-.22-.09-.46-.13-.71-.13s-.49.05-.71.14v-2.19c.22.09.46.14.71.14Z"/><path d="M99.62 30.5c.25 0 .49.05.71.13v.36h-1.42v-.35c.22-.09.46-.14.71-.14M98.91 28.1h1.42v.35c-.22.09-.46.13-.71.13s-.49-.05-.71-.14v-.35ZM85 8.85h-.82v-.22c0-.12.09-.21.21-.21h.4c.12 0 .21.09.21.21zM86.41 8.85h-.82v-.22c0-.12.09-.21.21-.21h.4c.12 0 .21.09.21.21zM87.83 8.85h-.82v-.22c0-.12.09-.21.21-.21h.4c.12 0 .21.09.21.21zM89.25 8.85h-.82v-.22c0-.12.09-.21.21-.21h.4c.12 0 .21.09.21.21zM90.67 8.85h-.82v-.22c0-.12.09-.21.21-.21h.4c.12 0 .21.09.21.21zM89.85 17.57h.82v.22c0 .12-.09.21-.21.21h-.4c-.12 0-.21-.09-.21-.21zM88.43 17.57h.82v.22c0 .12-.09.21-.21.21h-.4c-.12 0-.21-.09-.21-.21zM87.01 17.57h.82v.22c0 .12-.09.21-.21.21h-.4c-.12 0-.21-.09-.21-.21zM85.59 17.57h.82v.22c0 .12-.09.21-.21.21h-.4c-.12 0-.21-.09-.21-.21zM84.17 17.57h.82v.22c0 .12-.09.21-.21.21h-.4c-.12 0-.21-.09-.21-.21zM91.78 10.78v-.82H92c.12 0 .21.09.21.21v.4c0 .12-.09.21-.21.21zM91.78 12.2v-.82H92c.12 0 .21.09.21.21v.4c0 .12-.09.21-.21.21zM91.78 13.62v-.82H92c.12 0 .21.09.21.21v.4c0 .12-.09.21-.21.21zM91.78 15.04v-.82H92c.12 0 .21.09.21.21v.4c0 .12-.09.21-.21.21zM91.78 16.46v-.82H92c.12 0 .21.09.21.21v.4c0 .12-.09.21-.21.21zM83.06 15.63v.82h-.22c-.12 0-.21-.09-.21-.21v-.4c0-.12.09-.21.21-.21zM83.06 14.21v.82h-.22c-.12 0-.21-.09-.21-.21v-.4c0-.12.09-.21.21-.21zM83.06 12.8v.82h-.22c-.12 0-.21-.09-.21-.21v-.4c0-.12.09-.21.21-.21zM83.06 11.38v.82h-.22c-.12 0-.21-.09-.21-.21v-.4c0-.12.09-.21.21-.21zM83.06 9.96v.82h-.22c-.12 0-.21-.09-.21-.21v-.4c0-.12.09-.21.21-.21z" class="st5"/><path d="M83.06 8.85h8.72v8.72h-8.72z"/><circle cx="84.36" cy="10.23" r=".58" class="st5"/></g></svg>