<?xml version="1.0" encoding="UTF-8"?>
<svg id="Layer_1" xmlns="http://www.w3.org/2000/svg" version="1.1" viewBox="0 0 257.95 77.81">
  <!-- Generator: Adobe Illustrator 29.8.1, SVG Export Plug-In . SVG Version: 2.1.1 Build 2)  -->
  <defs>
    <style>
      .st0 {
        fill: #7f8c8d;
      }

      .st1 {
        fill: #ebaa01;
      }

      .st2 {
        fill: #c3bab0;
      }

      .st3, .st4 {
        fill: #b7bfbf;
      }

      .st5 {
        fill: #929d9e;
      }

      .st6 {
        fill: #fff;
      }

      .st7 {
        fill: #8b7867;
      }

      .st4 {
        fill-rule: evenodd;
      }

      .st8 {
        fill: #057582;
      }

      .st9 {
        fill: #007481;
      }
    </style>
  </defs>
  <g id="Modulinos">
    <path class="st8" d="M141.73,15.99v46.38c0,7.04,5.71,12.75,12.75,12.75h90.71c7.05,0,12.76-5.71,12.76-12.75V15.99c0-7.04-5.71-12.75-12.76-12.75h-90.71c-7.04,0-12.75,5.71-12.75,12.75h0ZM173.5,32.16c0,1.64-1.33,2.98-2.97,2.98s-2.98-1.34-2.98-2.98,1.33-2.98,2.98-2.98,2.97,1.34,2.97,2.98ZM173.5,39.17c0,1.64-1.33,2.98-2.97,2.98s-2.98-1.34-2.98-2.98,1.33-2.98,2.98-2.98,2.97,1.34,2.97,2.98ZM183.43,17.28c0,2.14-1.76,3.88-3.9,3.88s-3.89-1.74-3.89-3.88,1.75-3.9,3.89-3.9,3.9,1.74,3.9,3.9ZM183.43,61.08c0,2.14-1.76,3.88-3.9,3.88s-3.89-1.74-3.89-3.88,1.75-3.89,3.89-3.89,3.9,1.74,3.9,3.89ZM224.41,29.97c0,1.64-1.34,2.97-2.98,2.97s-2.98-1.33-2.98-2.97,1.34-2.98,2.98-2.98,2.98,1.33,2.98,2.98ZM237.13,29.97c0,1.64-1.34,2.97-2.98,2.97s-2.98-1.33-2.98-2.97,1.34-2.98,2.98-2.98,2.98,1.33,2.98,2.98ZM253.13,16.5c0,4.38-3.55,7.94-7.94,7.94s-7.93-3.56-7.93-7.94,3.55-7.94,7.93-7.94,7.94,3.56,7.94,7.94ZM245.19,69.79c-4.38,0-7.93-3.55-7.93-7.93s3.55-7.94,7.93-7.94,7.94,3.55,7.94,7.94-3.55,7.93-7.94,7.93ZM236.46,71.58c0-1.65,1.34-2.98,2.98-2.98s2.98,1.33,2.98,2.98-1.34,2.97-2.98,2.97-2.98-1.33-2.98-2.97ZM234.15,51.36c-1.64,0-2.98-1.33-2.98-2.97s1.34-2.98,2.98-2.98,2.98,1.33,2.98,2.98-1.34,2.97-2.98,2.97ZM229.26,71.58c0-1.65,1.34-2.98,2.98-2.98s2.98,1.33,2.98,2.98-1.34,2.97-2.98,2.97-2.98-1.33-2.98-2.97ZM222.06,71.58c0-1.65,1.34-2.98,2.98-2.98s2.98,1.33,2.98,2.98-1.34,2.97-2.98,2.97-2.98-1.33-2.98-2.97ZM221.43,51.36c-1.64,0-2.98-1.33-2.98-2.97s1.34-2.98,2.98-2.98,2.98,1.33,2.98,2.98-1.34,2.97-2.98,2.97ZM214.86,71.58c0-1.65,1.34-2.98,2.98-2.98s2.98,1.33,2.98,2.98-1.34,2.97-2.98,2.97-2.98-1.33-2.98-2.97ZM213.15,61.08c0-2.15,1.76-3.89,3.9-3.89s3.89,1.74,3.89,3.89-1.75,3.88-3.89,3.88-3.9-1.74-3.9-3.88ZM213.15,17.28c0-2.16,1.76-3.9,3.9-3.9s3.89,1.74,3.89,3.9-1.75,3.88-3.89,3.88-3.9-1.74-3.9-3.88ZM207.95,6.78c0-1.49,1.2-2.69,2.69-2.69s2.69,1.2,2.69,2.69-1.2,2.69-2.69,2.69-2.69-1.2-2.69-2.69ZM202.23,66.82c0-1.65,1.34-2.98,2.98-2.98s2.98,1.33,2.98,2.98-1.34,2.97-2.98,2.97-2.98-1.33-2.98-2.97ZM200.75,6.78c0-1.49,1.2-2.69,2.69-2.69s2.69,1.2,2.69,2.69-1.2,2.69-2.69,2.69-2.69-1.2-2.69-2.69ZM195.21,66.82c0-1.65,1.34-2.98,2.98-2.98s2.98,1.33,2.98,2.98-1.34,2.97-2.98,2.97-2.98-1.33-2.98-2.97ZM193.55,6.78c0-1.49,1.2-2.69,2.69-2.69s2.69,1.2,2.69,2.69-1.2,2.69-2.69,2.69-2.69-1.2-2.69-2.69ZM188.2,66.82c0-1.65,1.34-2.98,2.98-2.98s2.98,1.33,2.98,2.98-1.34,2.97-2.98,2.97-2.98-1.33-2.98-2.97ZM186.35,6.78c0-1.49,1.2-2.69,2.69-2.69s2.69,1.2,2.69,2.69-1.2,2.69-2.69,2.69-2.69-1.2-2.69-2.69ZM178.86,71.58c0-1.65,1.34-2.98,2.98-2.98s2.98,1.33,2.98,2.98-1.34,2.97-2.98,2.97-2.98-1.33-2.98-2.97ZM171.66,71.58c0-1.65,1.34-2.98,2.98-2.98s2.98,1.33,2.98,2.98-1.34,2.97-2.98,2.97-2.98-1.33-2.98-2.97ZM170.53,49.17c-1.65,0-2.98-1.34-2.98-2.98s1.33-2.98,2.98-2.98,2.97,1.34,2.97,2.98-1.33,2.98-2.97,2.98ZM164.46,71.58c0-1.65,1.34-2.98,2.98-2.98s2.98,1.33,2.98,2.98-1.34,2.97-2.98,2.97-2.98-1.33-2.98-2.97ZM157.26,71.58c0-1.65,1.34-2.98,2.98-2.98s2.98,1.33,2.98,2.98-1.34,2.97-2.98,2.97-2.98-1.33-2.98-2.97ZM146.55,61.86c0-4.39,3.55-7.94,7.93-7.94s7.94,3.55,7.94,7.94-3.55,7.93-7.94,7.93-7.93-3.55-7.93-7.93ZM146.55,16.5c0-4.38,3.55-7.94,7.93-7.94s7.94,3.56,7.94,7.94-3.55,7.94-7.94,7.94-7.93-3.56-7.93-7.94Z"/>
    <path class="st3" d="M213.15,61.08c0,2.14,1.76,3.88,3.9,3.88s3.89-1.74,3.89-3.88-1.75-3.89-3.89-3.89-3.9,1.74-3.9,3.89ZM214.7,61.08c0-1.3,1.06-2.34,2.35-2.34s2.34,1.04,2.34,2.34-1.05,2.33-2.34,2.33-2.35-1.04-2.35-2.33Z"/>
    <path class="st3" d="M202.23,66.82c0,1.64,1.34,2.97,2.98,2.97s2.98-1.33,2.98-2.97-1.34-2.98-2.98-2.98-2.98,1.33-2.98,2.98ZM203.79,66.82c0-.79.64-1.42,1.42-1.42s1.42.63,1.42,1.42-.64,1.41-1.42,1.41-1.42-.63-1.42-1.41Z"/>
    <path class="st3" d="M195.21,66.82c0,1.64,1.34,2.97,2.98,2.97s2.98-1.33,2.98-2.97-1.34-2.98-2.98-2.98-2.98,1.33-2.98,2.98ZM196.77,66.82c0-.79.64-1.42,1.42-1.42s1.42.63,1.42,1.42-.64,1.41-1.42,1.41-1.42-.63-1.42-1.41Z"/>
    <path class="st3" d="M188.2,66.82c0,1.64,1.34,2.97,2.98,2.97s2.98-1.33,2.98-2.97-1.34-2.98-2.98-2.98-2.98,1.33-2.98,2.98ZM189.76,66.82c0-.79.64-1.42,1.42-1.42s1.42.63,1.42,1.42-.64,1.41-1.42,1.41-1.42-.63-1.42-1.41Z"/>
    <path class="st3" d="M175.64,61.08c0,2.14,1.75,3.88,3.89,3.88s3.9-1.74,3.9-3.88-1.76-3.89-3.9-3.89-3.89,1.74-3.89,3.89ZM177.19,61.08c0-1.3,1.05-2.34,2.34-2.34s2.35,1.04,2.35,2.34-1.06,2.33-2.35,2.33-2.34-1.04-2.34-2.33Z"/>
    <path class="st3" d="M167.55,46.19c0,1.64,1.33,2.98,2.98,2.98s2.97-1.34,2.97-2.98-1.33-2.98-2.97-2.98-2.98,1.34-2.98,2.98ZM169.11,46.19c0-.78.63-1.42,1.42-1.42s1.41.64,1.41,1.42-.63,1.42-1.41,1.42-1.42-.64-1.42-1.42Z"/>
    <path class="st3" d="M167.55,39.17c0,1.64,1.33,2.98,2.98,2.98s2.97-1.34,2.97-2.98-1.33-2.98-2.97-2.98-2.98,1.34-2.98,2.98ZM169.11,39.17c0-.78.63-1.42,1.42-1.42s1.41.64,1.41,1.42-.63,1.42-1.41,1.42-1.42-.64-1.42-1.42Z"/>
    <path class="st3" d="M167.55,32.16c0,1.64,1.33,2.98,2.98,2.98s2.97-1.34,2.97-2.98-1.33-2.98-2.97-2.98-2.98,1.34-2.98,2.98ZM169.11,32.16c0-.78.63-1.42,1.42-1.42s1.41.64,1.41,1.42-.63,1.42-1.41,1.42-1.42-.64-1.42-1.42Z"/>
    <path class="st3" d="M175.64,17.28c0,2.14,1.75,3.88,3.89,3.88s3.9-1.74,3.9-3.88-1.76-3.9-3.9-3.9-3.89,1.74-3.89,3.9ZM177.19,17.28c0-1.3,1.05-2.34,2.34-2.34s2.35,1.04,2.35,2.34-1.06,2.33-2.35,2.33-2.34-1.04-2.34-2.33Z"/>
    <path class="st3" d="M213.15,17.28c0,2.14,1.76,3.88,3.9,3.88s3.89-1.74,3.89-3.88-1.75-3.9-3.89-3.9-3.9,1.74-3.9,3.9ZM214.7,17.28c0-1.3,1.06-2.34,2.35-2.34s2.34,1.04,2.34,2.34-1.05,2.33-2.34,2.33-2.35-1.04-2.35-2.33Z"/>
    <path class="st3" d="M218.45,48.39c0,1.64,1.34,2.97,2.98,2.97s2.98-1.33,2.98-2.97-1.34-2.98-2.98-2.98-2.98,1.33-2.98,2.98ZM220.01,48.39c0-.79.64-1.42,1.42-1.42s1.42.63,1.42,1.42-.64,1.41-1.42,1.41-1.42-.63-1.42-1.41Z"/>
    <path class="st3" d="M218.45,29.97c0,1.64,1.34,2.97,2.98,2.97s2.98-1.33,2.98-2.97-1.34-2.98-2.98-2.98-2.98,1.33-2.98,2.98ZM220.01,29.97c0-.79.64-1.42,1.42-1.42s1.42.63,1.42,1.42-.64,1.41-1.42,1.41-1.42-.63-1.42-1.41Z"/>
    <path class="st3" d="M231.17,29.97c0,1.64,1.34,2.97,2.98,2.97s2.98-1.33,2.98-2.97-1.34-2.98-2.98-2.98-2.98,1.33-2.98,2.98ZM232.73,29.97c0-.79.64-1.42,1.42-1.42s1.42.63,1.42,1.42-.64,1.41-1.42,1.41-1.42-.63-1.42-1.41Z"/>
    <path class="st3" d="M157.26,71.58c0,1.64,1.34,2.97,2.98,2.97s2.98-1.33,2.98-2.97-1.34-2.98-2.98-2.98-2.98,1.33-2.98,2.98ZM158.82,71.58c0-.79.64-1.42,1.42-1.42s1.42.63,1.42,1.42-.64,1.41-1.42,1.41-1.42-.63-1.42-1.41Z"/>
    <path class="st3" d="M164.46,71.58c0,1.64,1.34,2.97,2.98,2.97s2.98-1.33,2.98-2.97-1.34-2.98-2.98-2.98-2.98,1.33-2.98,2.98ZM166.02,71.58c0-.79.64-1.42,1.42-1.42s1.42.63,1.42,1.42-.64,1.41-1.42,1.41-1.42-.63-1.42-1.41Z"/>
    <path class="st3" d="M229.26,71.58c0,1.64,1.34,2.97,2.98,2.97s2.98-1.33,2.98-2.97-1.34-2.98-2.98-2.98-2.98,1.33-2.98,2.98ZM230.82,71.58c0-.79.64-1.42,1.42-1.42s1.42.63,1.42,1.42-.64,1.41-1.42,1.41-1.42-.63-1.42-1.41Z"/>
    <path class="st3" d="M236.46,71.58c0,1.64,1.34,2.97,2.98,2.97s2.98-1.33,2.98-2.97-1.34-2.98-2.98-2.98-2.98,1.33-2.98,2.98ZM238.02,71.58c0-.79.64-1.42,1.42-1.42s1.42.63,1.42,1.42-.64,1.41-1.42,1.41-1.42-.63-1.42-1.41Z"/>
    <g id="HATCH">
      <path class="st4" d="M214.86,71.57c0,1.64,1.34,2.97,2.98,2.97s2.98-1.33,2.98-2.97-1.34-2.98-2.98-2.98-2.98,1.33-2.98,2.98ZM216.42,71.57c0-.79.64-1.42,1.42-1.42s1.42.63,1.42,1.42-.64,1.41-1.42,1.41-1.42-.63-1.42-1.41Z"/>
    </g>
    <g id="HATCH-2">
      <path class="st4" d="M231.17,48.39c0,1.64,1.34,2.97,2.98,2.97s2.98-1.33,2.98-2.97-1.34-2.98-2.98-2.98-2.98,1.33-2.98,2.98ZM232.73,48.39c0-.79.64-1.42,1.42-1.42s1.42.63,1.42,1.42-.64,1.41-1.42,1.41-1.42-.63-1.42-1.41Z"/>
    </g>
    <g id="HATCH-3">
      <path class="st4" d="M222.06,71.57c0,1.64,1.34,2.97,2.98,2.97s2.98-1.33,2.98-2.97-1.34-2.98-2.98-2.98-2.98,1.33-2.98,2.98ZM223.62,71.57c0-.79.64-1.42,1.42-1.42s1.42.63,1.42,1.42-.64,1.41-1.42,1.41-1.42-.63-1.42-1.41Z"/>
    </g>
    <g id="HATCH-4">
      <path class="st4" d="M178.86,71.57c0,1.64,1.34,2.97,2.98,2.97s2.98-1.33,2.98-2.97-1.34-2.98-2.98-2.98-2.98,1.33-2.98,2.98ZM180.42,71.57c0-.79.64-1.42,1.42-1.42s1.42.63,1.42,1.42-.64,1.41-1.42,1.41-1.42-.63-1.42-1.41Z"/>
    </g>
    <g id="HATCH-5">
      <path class="st4" d="M171.66,71.57c0,1.64,1.34,2.97,2.98,2.97s2.98-1.33,2.98-2.97-1.34-2.98-2.98-2.98-2.98,1.33-2.98,2.98ZM173.22,71.57c0-.79.64-1.42,1.42-1.42s1.42.63,1.42,1.42-.64,1.41-1.42,1.41-1.42-.63-1.42-1.41Z"/>
    </g>
    <g>
      <g id="HATCH-6">
        <path class="st4" d="M237.26,61.85c0,4.38,3.55,7.93,7.93,7.93s7.94-3.55,7.94-7.93-3.55-7.94-7.94-7.94-7.93,3.55-7.93,7.94ZM240.66,61.85c0-2.51,2.03-4.54,4.53-4.54s4.54,2.03,4.54,4.54-2.03,4.53-4.54,4.53-4.53-2.03-4.53-4.53Z"/>
      </g>
      <g id="HATCH-7">
        <path class="st4" d="M237.26,16.49c0,4.38,3.55,7.94,7.93,7.94s7.94-3.56,7.94-7.94-3.55-7.94-7.94-7.94-7.93,3.56-7.93,7.94ZM240.66,16.49c0-2.5,2.03-4.53,4.53-4.53s4.54,2.03,4.54,4.53-2.03,4.54-4.54,4.54-4.53-2.03-4.53-4.54Z"/>
      </g>
      <g id="HATCH-8">
        <path class="st4" d="M146.55,16.49c0,4.38,3.55,7.94,7.93,7.94s7.94-3.56,7.94-7.94-3.55-7.94-7.94-7.94-7.93,3.56-7.93,7.94ZM149.95,16.49c0-2.5,2.03-4.53,4.53-4.53s4.54,2.03,4.54,4.53-2.03,4.54-4.54,4.54-4.53-2.03-4.53-4.54Z"/>
      </g>
      <g id="HATCH-9">
        <path class="st4" d="M146.55,61.85c0,4.38,3.55,7.93,7.93,7.93s7.94-3.55,7.94-7.93-3.55-7.94-7.94-7.94-7.93,3.55-7.93,7.94ZM149.95,61.85c0-2.51,2.03-4.54,4.53-4.54s4.54,2.03,4.54,4.54-2.03,4.53-4.54,4.53-4.53-2.03-4.53-4.53Z"/>
      </g>
      <g id="HATCH-10">
        <path class="st4" d="M207.95,6.77c0,1.49,1.2,2.69,2.69,2.69s2.69-1.2,2.69-2.69-1.2-2.69-2.69-2.69-2.69,1.2-2.69,2.69ZM209.22,6.77c0-.78.64-1.42,1.42-1.42s1.42.64,1.42,1.42-.64,1.42-1.42,1.42-1.42-.64-1.42-1.42Z"/>
      </g>
      <g id="HATCH-11">
        <path class="st4" d="M200.75,6.77c0,1.49,1.2,2.69,2.69,2.69s2.69-1.2,2.69-2.69-1.2-2.69-2.69-2.69-2.69,1.2-2.69,2.69ZM202.02,6.77c0-.78.64-1.42,1.42-1.42s1.42.64,1.42,1.42-.64,1.42-1.42,1.42-1.42-.64-1.42-1.42Z"/>
      </g>
      <g id="HATCH-12">
        <path class="st4" d="M193.55,6.77c0,1.49,1.2,2.69,2.69,2.69s2.69-1.2,2.69-2.69-1.2-2.69-2.69-2.69-2.69,1.2-2.69,2.69ZM194.82,6.77c0-.78.64-1.42,1.42-1.42s1.42.64,1.42,1.42-.64,1.42-1.42,1.42-1.42-.64-1.42-1.42Z"/>
      </g>
      <g id="HATCH-13">
        <path class="st4" d="M186.35,6.77c0,1.49,1.2,2.69,2.69,2.69s2.69-1.2,2.69-2.69-1.2-2.69-2.69-2.69-2.69,1.2-2.69,2.69ZM187.62,6.77c0-.78.64-1.42,1.42-1.42s1.42.64,1.42,1.42-.64,1.42-1.42,1.42-1.42-.64-1.42-1.42Z"/>
      </g>
    </g>
    <path class="st8" d="M103.47,3.24H12.76C5.71,3.24,0,8.95,0,15.99v46.38c0,7.04,5.71,12.75,12.76,12.75h90.71c7.04,0,12.75-5.71,12.75-12.75V15.99c0-7.04-5.71-12.75-12.75-12.75ZM87.42,29.18c1.65,0,2.98,1.34,2.98,2.98s-1.33,2.98-2.98,2.98-2.97-1.34-2.97-2.98,1.33-2.98,2.97-2.98ZM87.42,36.19c1.65,0,2.98,1.34,2.98,2.98s-1.33,2.98-2.98,2.98-2.97-1.34-2.97-2.98,1.33-2.98,2.97-2.98ZM78.42,13.38c2.14,0,3.89,1.74,3.89,3.9s-1.75,3.88-3.89,3.88-3.9-1.74-3.9-3.88,1.76-3.9,3.9-3.9ZM78.42,57.19c2.14,0,3.89,1.74,3.89,3.89s-1.75,3.88-3.89,3.88-3.9-1.74-3.9-3.88,1.76-3.89,3.9-3.89ZM36.52,26.99c1.64,0,2.98,1.33,2.98,2.98s-1.34,2.97-2.98,2.97-2.98-1.33-2.98-2.97,1.34-2.98,2.98-2.98ZM23.8,26.99c1.64,0,2.98,1.33,2.98,2.98s-1.34,2.97-2.98,2.97-2.98-1.33-2.98-2.97,1.34-2.98,2.98-2.98ZM12.76,8.56c4.38,0,7.93,3.56,7.93,7.94s-3.55,7.94-7.93,7.94-7.94-3.56-7.94-7.94,3.55-7.94,7.94-7.94ZM4.82,61.86c0-4.39,3.55-7.94,7.94-7.94s7.93,3.55,7.93,7.94-3.55,7.93-7.93,7.93-7.94-3.55-7.94-7.93ZM18.51,74.55c-1.64,0-2.98-1.33-2.98-2.97s1.34-2.98,2.98-2.98,2.98,1.33,2.98,2.98-1.34,2.97-2.98,2.97ZM20.82,48.39c0-1.65,1.34-2.98,2.98-2.98s2.98,1.33,2.98,2.98-1.34,2.97-2.98,2.97-2.98-1.33-2.98-2.97ZM25.71,74.55c-1.64,0-2.98-1.33-2.98-2.97s1.34-2.98,2.98-2.98,2.98,1.33,2.98,2.98-1.34,2.97-2.98,2.97ZM32.91,74.55c-1.64,0-2.98-1.33-2.98-2.97s1.34-2.98,2.98-2.98,2.98,1.33,2.98,2.98-1.34,2.97-2.98,2.97ZM33.54,48.39c0-1.65,1.34-2.98,2.98-2.98s2.98,1.33,2.98,2.98-1.34,2.97-2.98,2.97-2.98-1.33-2.98-2.97ZM40.11,74.55c-1.64,0-2.98-1.33-2.98-2.97s1.34-2.98,2.98-2.98,2.98,1.33,2.98,2.98-1.34,2.97-2.98,2.97ZM40.9,64.96c-2.14,0-3.89-1.74-3.89-3.88s1.75-3.89,3.89-3.89,3.9,1.74,3.9,3.89-1.76,3.88-3.9,3.88ZM40.9,21.16c-2.14,0-3.89-1.74-3.89-3.88s1.75-3.9,3.89-3.9,3.9,1.74,3.9,3.9-1.76,3.88-3.9,3.88ZM47.31,9.47c-1.49,0-2.69-1.2-2.69-2.69s1.2-2.69,2.69-2.69,2.69,1.2,2.69,2.69-1.2,2.69-2.69,2.69ZM52.74,69.79c-1.64,0-2.98-1.33-2.98-2.97s1.34-2.98,2.98-2.98,2.98,1.33,2.98,2.98-1.34,2.97-2.98,2.97ZM54.51,9.47c-1.49,0-2.69-1.2-2.69-2.69s1.2-2.69,2.69-2.69,2.69,1.2,2.69,2.69-1.2,2.69-2.69,2.69ZM59.76,69.79c-1.64,0-2.98-1.33-2.98-2.97s1.34-2.98,2.98-2.98,2.98,1.33,2.98,2.98-1.34,2.97-2.98,2.97ZM61.71,9.47c-1.49,0-2.69-1.2-2.69-2.69s1.2-2.69,2.69-2.69,2.69,1.2,2.69,2.69-1.2,2.69-2.69,2.69ZM66.77,69.79c-1.64,0-2.98-1.33-2.98-2.97s1.34-2.98,2.98-2.98,2.98,1.33,2.98,2.98-1.34,2.97-2.98,2.97ZM68.91,9.47c-1.49,0-2.69-1.2-2.69-2.69s1.2-2.69,2.69-2.69,2.69,1.2,2.69,2.69-1.2,2.69-2.69,2.69ZM76.11,74.55c-1.64,0-2.98-1.33-2.98-2.97s1.34-2.98,2.98-2.98,2.98,1.33,2.98,2.98-1.34,2.97-2.98,2.97ZM83.31,74.55c-1.64,0-2.98-1.33-2.98-2.97s1.34-2.98,2.98-2.98,2.98,1.33,2.98,2.98-1.34,2.97-2.98,2.97ZM84.45,46.19c0-1.64,1.33-2.98,2.97-2.98s2.98,1.34,2.98,2.98-1.33,2.98-2.98,2.98-2.97-1.34-2.97-2.98ZM90.51,74.55c-1.64,0-2.98-1.33-2.98-2.97s1.34-2.98,2.98-2.98,2.98,1.33,2.98,2.98-1.34,2.97-2.98,2.97ZM97.71,74.55c-1.64,0-2.98-1.33-2.98-2.97s1.34-2.98,2.98-2.98,2.98,1.33,2.98,2.98-1.34,2.97-2.98,2.97ZM103.47,69.79c-4.39,0-7.94-3.55-7.94-7.93s3.55-7.94,7.94-7.94,7.93,3.55,7.93,7.94-3.55,7.93-7.93,7.93ZM103.47,24.44c-4.39,0-7.94-3.56-7.94-7.94s3.55-7.94,7.94-7.94,7.93,3.56,7.93,7.94-3.55,7.94-7.93,7.94Z"/>
    <g>
      <rect class="st5" x="8.04" y="49.88" width="5.09" height="2.27"/>
      <circle class="st1" cx="10.58" cy="51.02" r="1.63"/>
    </g>
    <g id="USB">
      <g>
        <rect class="st5" x="102.9" y="30.41" width="11.55" height="17.53"/>
        <polygon class="st0" points="104.55 30.41 102.9 30.41 102.9 30.43 102.9 47.89 102.9 47.94 104.55 47.94 104.55 47.89 104.55 47.89 104.55 30.41"/>
        <polygon class="st0" points="107.85 30.41 106.2 30.41 106.2 30.43 106.2 47.89 106.2 47.94 107.85 47.94 107.85 47.89 107.85 47.89 107.85 30.41"/>
        <polygon class="st0" points="111.15 30.41 109.5 30.41 109.5 30.43 109.5 47.89 109.5 47.94 111.15 47.94 111.15 47.89 111.15 47.89 111.15 30.41"/>
        <polygon class="st0" points="114.45 30.41 112.8 30.41 112.8 30.43 112.8 47.89 112.8 47.94 114.45 47.94 114.45 47.89 114.45 47.89 114.45 30.41"/>
      </g>
      <g>
        <rect class="st3" x="99.16" y="34.24" width="3.74" height="1.5"/>
        <rect class="st3" x="99.16" y="42.59" width="3.74" height="1.5"/>
        <rect class="st3" x="99.16" y="39.81" width="3.74" height="1.5"/>
        <rect class="st3" x="99.16" y="37.02" width="3.74" height="1.5"/>
      </g>
    </g>
    <g id="USB-2">
      <g>
        <rect class="st5" x="1.77" y="30.41" width="11.55" height="17.53"/>
        <polygon class="st0" points="11.67 47.94 13.32 47.94 13.32 47.91 13.32 30.45 13.32 30.41 11.67 30.41 11.67 30.45 11.67 30.45 11.67 47.94"/>
        <polygon class="st0" points="8.37 47.94 10.02 47.94 10.02 47.91 10.02 30.45 10.02 30.41 8.37 30.41 8.37 30.45 8.37 30.45 8.37 47.94"/>
        <polygon class="st0" points="5.07 47.94 6.72 47.94 6.72 47.91 6.72 30.45 6.72 30.41 5.07 30.41 5.07 30.45 5.07 30.45 5.07 47.94"/>
        <polygon class="st0" points="1.77 47.94 3.42 47.94 3.42 47.91 3.42 30.45 3.42 30.41 1.77 30.41 1.77 30.45 1.77 30.45 1.77 47.94"/>
      </g>
      <g>
        <rect class="st3" x="13.32" y="42.6" width="3.74" height="1.5"/>
        <rect class="st3" x="13.32" y="34.25" width="3.74" height="1.5"/>
        <rect class="st3" x="13.32" y="37.03" width="3.74" height="1.5"/>
        <rect class="st3" x="13.32" y="39.82" width="3.74" height="1.5"/>
      </g>
    </g>
    <path class="st3" d="M40.9,57.19c-2.14,0-3.89,1.74-3.89,3.89s1.75,3.88,3.89,3.88,3.9-1.74,3.9-3.88-1.76-3.89-3.9-3.89ZM40.9,63.41c-1.29,0-2.34-1.04-2.34-2.33s1.05-2.34,2.34-2.34,2.35,1.04,2.35,2.34-1.06,2.33-2.35,2.33Z"/>
    <path class="st3" d="M52.74,63.84c-1.64,0-2.98,1.33-2.98,2.98s1.34,2.97,2.98,2.97,2.98-1.33,2.98-2.97-1.34-2.98-2.98-2.98ZM52.74,68.23c-.78,0-1.42-.63-1.42-1.41s.64-1.42,1.42-1.42,1.42.63,1.42,1.42-.64,1.41-1.42,1.41Z"/>
    <path class="st3" d="M59.76,63.84c-1.64,0-2.98,1.33-2.98,2.98s1.34,2.97,2.98,2.97,2.98-1.33,2.98-2.97-1.34-2.98-2.98-2.98ZM59.76,68.23c-.78,0-1.42-.63-1.42-1.41s.64-1.42,1.42-1.42,1.42.63,1.42,1.42-.64,1.41-1.42,1.41Z"/>
    <path class="st3" d="M66.77,63.84c-1.64,0-2.98,1.33-2.98,2.98s1.34,2.97,2.98,2.97,2.98-1.33,2.98-2.97-1.34-2.98-2.98-2.98ZM66.77,68.23c-.78,0-1.42-.63-1.42-1.41s.64-1.42,1.42-1.42,1.42.63,1.42,1.42-.64,1.41-1.42,1.41Z"/>
    <path class="st3" d="M78.42,57.19c-2.14,0-3.9,1.74-3.9,3.89s1.76,3.88,3.9,3.88,3.89-1.74,3.89-3.88-1.75-3.89-3.89-3.89ZM78.42,63.41c-1.29,0-2.35-1.04-2.35-2.33s1.06-2.34,2.35-2.34,2.34,1.04,2.34,2.34-1.05,2.33-2.34,2.33Z"/>
    <path class="st3" d="M87.42,43.21c-1.64,0-2.97,1.34-2.97,2.98s1.33,2.98,2.97,2.98,2.98-1.34,2.98-2.98-1.33-2.98-2.98-2.98ZM87.42,47.61c-.78,0-1.41-.64-1.41-1.42s.63-1.42,1.41-1.42,1.42.64,1.42,1.42-.63,1.42-1.42,1.42Z"/>
    <path class="st3" d="M87.42,36.19c-1.64,0-2.97,1.34-2.97,2.98s1.33,2.98,2.97,2.98,2.98-1.34,2.98-2.98-1.33-2.98-2.98-2.98ZM87.42,40.59c-.78,0-1.41-.64-1.41-1.42s.63-1.42,1.41-1.42,1.42.64,1.42,1.42-.63,1.42-1.42,1.42Z"/>
    <path class="st3" d="M87.42,29.18c-1.64,0-2.97,1.34-2.97,2.98s1.33,2.98,2.97,2.98,2.98-1.34,2.98-2.98-1.33-2.98-2.98-2.98ZM87.42,33.58c-.78,0-1.41-.64-1.41-1.42s.63-1.42,1.41-1.42,1.42.64,1.42,1.42-.63,1.42-1.42,1.42Z"/>
    <path class="st3" d="M78.42,13.38c-2.14,0-3.9,1.74-3.9,3.9s1.76,3.88,3.9,3.88,3.89-1.74,3.89-3.88-1.75-3.9-3.89-3.9ZM78.42,19.61c-1.29,0-2.35-1.04-2.35-2.33s1.06-2.34,2.35-2.34,2.34,1.04,2.34,2.34-1.05,2.33-2.34,2.33Z"/>
    <path class="st3" d="M40.9,13.38c-2.14,0-3.89,1.74-3.89,3.9s1.75,3.88,3.89,3.88,3.9-1.74,3.9-3.88-1.76-3.9-3.9-3.9ZM40.9,19.61c-1.29,0-2.34-1.04-2.34-2.33s1.05-2.34,2.34-2.34,2.35,1.04,2.35,2.34-1.06,2.33-2.35,2.33Z"/>
    <path class="st3" d="M36.52,45.41c-1.64,0-2.98,1.33-2.98,2.98s1.34,2.97,2.98,2.97,2.98-1.33,2.98-2.97-1.34-2.98-2.98-2.98ZM36.52,49.8c-.78,0-1.42-.63-1.42-1.41s.64-1.42,1.42-1.42,1.42.63,1.42,1.42-.64,1.41-1.42,1.41Z"/>
    <path class="st3" d="M36.52,26.99c-1.64,0-2.98,1.33-2.98,2.98s1.34,2.97,2.98,2.97,2.98-1.33,2.98-2.97-1.34-2.98-2.98-2.98ZM36.52,31.38c-.78,0-1.42-.63-1.42-1.41s.64-1.42,1.42-1.42,1.42.63,1.42,1.42-.64,1.41-1.42,1.41Z"/>
    <path class="st3" d="M23.8,26.99c-1.64,0-2.98,1.33-2.98,2.98s1.34,2.97,2.98,2.97,2.98-1.33,2.98-2.97-1.34-2.98-2.98-2.98ZM23.8,31.38c-.78,0-1.42-.63-1.42-1.41s.64-1.42,1.42-1.42,1.42.63,1.42,1.42-.64,1.41-1.42,1.41Z"/>
    <path class="st3" d="M97.71,68.6c-1.64,0-2.98,1.33-2.98,2.98s1.34,2.97,2.98,2.97,2.98-1.33,2.98-2.97-1.34-2.98-2.98-2.98ZM97.71,72.99c-.78,0-1.42-.63-1.42-1.41s.64-1.42,1.42-1.42,1.42.63,1.42,1.42-.64,1.41-1.42,1.41Z"/>
    <path class="st3" d="M90.51,68.6c-1.64,0-2.98,1.33-2.98,2.98s1.34,2.97,2.98,2.97,2.98-1.33,2.98-2.97-1.34-2.98-2.98-2.98ZM90.51,72.99c-.78,0-1.42-.63-1.42-1.41s.64-1.42,1.42-1.42,1.42.63,1.42,1.42-.64,1.41-1.42,1.41Z"/>
    <path class="st3" d="M25.71,68.6c-1.64,0-2.98,1.33-2.98,2.98s1.34,2.97,2.98,2.97,2.98-1.33,2.98-2.97-1.34-2.98-2.98-2.98ZM25.71,72.99c-.78,0-1.42-.63-1.42-1.41s.64-1.42,1.42-1.42,1.42.63,1.42,1.42-.64,1.41-1.42,1.41Z"/>
    <path class="st3" d="M18.51,68.6c-1.64,0-2.98,1.33-2.98,2.98s1.34,2.97,2.98,2.97,2.98-1.33,2.98-2.97-1.34-2.98-2.98-2.98ZM18.51,72.99c-.78,0-1.42-.63-1.42-1.41s.64-1.42,1.42-1.42,1.42.63,1.42,1.42-.64,1.41-1.42,1.41Z"/>
    <g>
      <rect class="st5" x="95.91" y="49.67" width="1.42" height=".69"/>
      <rect class="st5" x="95.91" y="47.47" width="1.42" height=".69"/>
    </g>
    <g>
      <rect class="st5" x="95.91" y="30.3" width="1.42" height=".69"/>
      <rect class="st5" x="95.91" y="28.1" width="1.42" height=".69"/>
    </g>
    <g>
      <rect class="st5" x="23.52" y="18.9" width=".69" height="1.42"/>
      <rect class="st5" x="25.71" y="18.9" width=".69" height="1.42"/>
    </g>
    <g>
      <rect class="st5" x="30.84" y="18.9" width=".69" height="1.42"/>
      <rect class="st5" x="33.03" y="18.9" width=".69" height="1.42"/>
    </g>
    <g>
      <path class="st7" d="M77.85,7.16c0,.25.05.49.13.71h-2.18c.09-.22.13-.46.13-.71s-.05-.49-.14-.71h2.19c-.09.22-.14.46-.14.71Z"/>
      <path class="st5" d="M75.94,7.16c0,.25-.05.49-.13.71h-.36v-1.42h.35c.09.22.14.46.14.71Z"/>
      <path class="st5" d="M78.34,6.45v1.42h-.35c-.09-.22-.13-.46-.13-.71s.05-.49.14-.71h.35Z"/>
    </g>
    <g>
      <path class="st7" d="M78.44,10.57c0,.4.07.78.21,1.13h-3.5c.14-.35.21-.74.21-1.13s-.07-.79-.22-1.14h3.52c-.15.35-.22.74-.22,1.14h0Z"/>
      <path class="st5" d="M75.37,10.57c0,.4-.07.78-.21,1.13h-.58v-2.28h.57c.15.35.22.74.22,1.14Z"/>
      <path class="st5" d="M79.22,9.43v2.28h-.57c-.14-.35-.21-.74-.21-1.13s.07-.79.22-1.14h.56Z"/>
    </g>
    <g>
      <g id="HATCH-14">
        <circle class="st7" cx="3.69" cy="53" r="2.83"/>
      </g>
      <g id="LWPOLYLINE">
        <circle class="st2" cx="3.69" cy="53" r="1.42"/>
      </g>
    </g>
    <g>
      <g id="HATCH-15">
        <circle class="st7" cx="3.69" cy="25.34" r="2.83"/>
      </g>
      <g id="LWPOLYLINE-2">
        <circle class="st2" cx="3.69" cy="25.34" r="1.42"/>
      </g>
    </g>
    <g>
      <g id="HATCH-16">
        <circle class="st7" cx="112.54" cy="25.34" r="2.83"/>
      </g>
      <g id="LWPOLYLINE-3">
        <circle class="st2" cx="112.54" cy="25.34" r="1.42"/>
      </g>
    </g>
    <g id="HATCH-17">
      <path class="st4" d="M40.11,68.59c-1.64,0-2.98,1.33-2.98,2.98s1.34,2.97,2.98,2.97,2.98-1.33,2.98-2.97-1.34-2.98-2.98-2.98ZM40.11,72.98c-.78,0-1.42-.63-1.42-1.41s.64-1.42,1.42-1.42,1.42.63,1.42,1.42-.64,1.41-1.42,1.41Z"/>
    </g>
    <g id="HATCH-18">
      <path class="st4" d="M23.8,45.41c-1.64,0-2.98,1.33-2.98,2.98s1.34,2.97,2.98,2.97,2.98-1.33,2.98-2.97-1.34-2.98-2.98-2.98ZM23.8,49.8c-.78,0-1.42-.63-1.42-1.41s.64-1.42,1.42-1.42,1.42.63,1.42,1.42-.64,1.41-1.42,1.41Z"/>
    </g>
    <g id="HATCH-19">
      <path class="st4" d="M32.91,68.59c-1.64,0-2.98,1.33-2.98,2.98s1.34,2.97,2.98,2.97,2.98-1.33,2.98-2.97-1.34-2.98-2.98-2.98ZM32.91,72.98c-.78,0-1.42-.63-1.42-1.41s.64-1.42,1.42-1.42,1.42.63,1.42,1.42-.64,1.41-1.42,1.41Z"/>
    </g>
    <g id="HATCH-20">
      <path class="st4" d="M76.11,68.59c-1.64,0-2.98,1.33-2.98,2.98s1.34,2.97,2.98,2.97,2.98-1.33,2.98-2.97-1.34-2.98-2.98-2.98ZM76.11,72.98c-.78,0-1.42-.63-1.42-1.41s.64-1.42,1.42-1.42,1.42.63,1.42,1.42-.64,1.41-1.42,1.41Z"/>
    </g>
    <g id="HATCH-21">
      <path class="st4" d="M83.31,68.59c-1.64,0-2.98,1.33-2.98,2.98s1.34,2.97,2.98,2.97,2.98-1.33,2.98-2.97-1.34-2.98-2.98-2.98ZM83.31,72.98c-.78,0-1.42-.63-1.42-1.41s.64-1.42,1.42-1.42,1.42.63,1.42,1.42-.64,1.41-1.42,1.41Z"/>
    </g>
    <g>
      <g id="HATCH-22">
        <path class="st4" d="M12.76,53.91c-4.39,0-7.94,3.55-7.94,7.94s3.55,7.93,7.94,7.93,7.93-3.55,7.93-7.93-3.55-7.94-7.93-7.94ZM12.76,66.38c-2.51,0-4.54-2.03-4.54-4.53s2.03-4.54,4.54-4.54,4.53,2.03,4.53,4.54-2.03,4.53-4.53,4.53Z"/>
      </g>
      <g id="HATCH-23">
        <path class="st4" d="M12.76,8.55c-4.39,0-7.94,3.56-7.94,7.94s3.55,7.94,7.94,7.94,7.93-3.56,7.93-7.94-3.55-7.94-7.93-7.94ZM12.76,21.03c-2.51,0-4.54-2.03-4.54-4.54s2.03-4.53,4.54-4.53,4.53,2.03,4.53,4.53-2.03,4.54-4.53,4.54Z"/>
      </g>
      <g id="HATCH-24">
        <path class="st4" d="M103.47,8.55c-4.39,0-7.94,3.56-7.94,7.94s3.55,7.94,7.94,7.94,7.93-3.56,7.93-7.94-3.55-7.94-7.93-7.94ZM103.47,21.03c-2.51,0-4.54-2.03-4.54-4.54s2.03-4.53,4.54-4.53,4.53,2.03,4.53,4.53-2.03,4.54-4.53,4.54Z"/>
      </g>
      <g id="HATCH-25">
        <path class="st4" d="M103.47,53.91c-4.39,0-7.94,3.55-7.94,7.94s3.55,7.93,7.94,7.93,7.93-3.55,7.93-7.93-3.55-7.94-7.93-7.94ZM103.47,66.38c-2.51,0-4.54-2.03-4.54-4.53s2.03-4.54,4.54-4.54,4.53,2.03,4.53,4.54-2.03,4.53-4.53,4.53Z"/>
      </g>
      <g id="HATCH-26">
        <path class="st4" d="M47.31,4.08c-1.49,0-2.69,1.2-2.69,2.69s1.2,2.69,2.69,2.69,2.69-1.2,2.69-2.69-1.2-2.69-2.69-2.69ZM47.31,8.19c-.78,0-1.42-.64-1.42-1.42s.64-1.42,1.42-1.42,1.42.64,1.42,1.42-.64,1.42-1.42,1.42Z"/>
      </g>
      <g id="HATCH-27">
        <path class="st4" d="M54.51,4.08c-1.49,0-2.69,1.2-2.69,2.69s1.2,2.69,2.69,2.69,2.69-1.2,2.69-2.69-1.2-2.69-2.69-2.69ZM54.51,8.19c-.78,0-1.42-.64-1.42-1.42s.64-1.42,1.42-1.42,1.42.64,1.42,1.42-.64,1.42-1.42,1.42Z"/>
      </g>
      <g id="HATCH-28">
        <path class="st4" d="M61.71,4.08c-1.49,0-2.69,1.2-2.69,2.69s1.2,2.69,2.69,2.69,2.69-1.2,2.69-2.69-1.2-2.69-2.69-2.69ZM61.71,8.19c-.78,0-1.42-.64-1.42-1.42s.64-1.42,1.42-1.42,1.42.64,1.42,1.42-.64,1.42-1.42,1.42Z"/>
      </g>
      <g id="HATCH-29">
        <path class="st4" d="M68.91,4.08c-1.49,0-2.69,1.2-2.69,2.69s1.2,2.69,2.69,2.69,2.69-1.2,2.69-2.69-1.2-2.69-2.69-2.69ZM68.91,8.19c-.78,0-1.42-.64-1.42-1.42s.64-1.42,1.42-1.42,1.42.64,1.42,1.42-.64,1.42-1.42,1.42Z"/>
      </g>
    </g>
    <g id="HATCH-30">
      <circle class="st5" cx="151.65" cy="42.77" r="1.56"/>
    </g>
    <g id="HATCH-31">
      <circle class="st5" cx="151.65" cy="49.97" r="1.56"/>
    </g>
    <g id="HATCH-32">
      <circle class="st5" cx="157.32" cy="28.37" r="1.56"/>
    </g>
    <g id="HATCH-33">
      <circle class="st5" cx="151.65" cy="35.57" r="1.56"/>
    </g>
    <g id="HATCH-34">
      <circle class="st5" cx="157.32" cy="35.57" r="1.56"/>
    </g>
    <g id="HATCH-35">
      <circle class="st5" cx="157.32" cy="42.77" r="1.56"/>
    </g>
    <g id="HATCH-36">
      <circle class="st5" cx="157.32" cy="49.97" r="1.56"/>
    </g>
    <g id="HATCH-37">
      <circle class="st5" cx="242.36" cy="42.77" r="1.56"/>
    </g>
    <g id="HATCH-38">
      <circle class="st5" cx="242.36" cy="35.57" r="1.56"/>
    </g>
    <g id="HATCH-39">
      <circle class="st5" cx="242.36" cy="49.97" r="1.56"/>
    </g>
    <g id="HATCH-40">
      <circle class="st5" cx="242.36" cy="28.37" r="1.56"/>
    </g>
    <g id="HATCH-41">
      <circle class="st5" cx="248.03" cy="35.57" r="1.56"/>
    </g>
    <g id="HATCH-42">
      <circle class="st5" cx="248.03" cy="42.77" r="1.56"/>
    </g>
    <g id="HATCH-43">
      <circle class="st5" cx="248.03" cy="49.97" r="1.56"/>
    </g>
    <g id="HATCH-44">
      <circle class="st5" cx="248.03" cy="28.37" r="1.56"/>
    </g>
    <g>
      <rect class="st6" x="82.31" y="25.41" width="9.04" height="26.98"/>
      <rect class="st6" x="46.17" y="61.63" width="26.98" height="9.04"/>
      <rect x="82.31" y="25.41" width="9.04" height="26.98"/>
      <rect x="46.17" y="61.63" width="26.98" height="9.04"/>
      <rect class="st3" x="82.31" y="22.2" width="3.22" height="3.22"/>
      <rect class="st3" x="82.31" y="52.4" width="3.22" height="3.22"/>
      <rect class="st3" x="73.15" y="61.63" width="3.22" height="3.22"/>
      <rect class="st5" x="42.95" y="61.63" width="3.22" height="3.22"/>
      <rect class="st0" x="22.83" y="27.74" width="1.95" height="3.63"/>
      <rect class="st0" x="35.55" y="27.74" width="1.95" height="3.63"/>
      <rect class="st0" x="22.83" y="46.97" width="1.95" height="3.63"/>
      <rect class="st0" x="35.55" y="46.97" width="1.95" height="3.63"/>
      <g>
        <rect class="st5" x="21.49" y="30.41" width="16.98" height="16.98"/>
        <circle class="st6" cx="29.98" cy="38.91" r="4.88"/>
      </g>
      <rect class="st0" x="26.94" y="34.58" width="10.07" height="8.66"/>
      <g>
        <rect class="st5" x="37.01" y="16.18" width="45.3" height="45.46"/>
        <path class="st0" d="M77.13,34.71v8.4h.78v8.17c-2.32,2.32-3.62,3.62-5.94,5.94h-24.62c-2.32-2.32-3.62-3.62-5.94-5.94v-24.74c2.32-2.32,3.62-3.62,5.94-5.94h24.62l5.94,5.94v8.17s-.78,0-.78,0Z"/>
        <circle class="st6" cx="59.66" cy="38.9" r="3.08"/>
        <circle cx="59.66" cy="38.9" r="3.08"/>
        <g>
          <path d="M79.53,16.18h2.78v2.78h-1.39c-.76,0-1.39-.62-1.39-1.39v-1.39h0Z"/>
          <rect class="st3" x="80.92" y="18.26" width="1.39" height=".69"/>
          <rect class="st5" x="80.92" y="17.57" width="1.39" height=".69"/>
          <rect class="st3" x="79.53" y="16.18" width="2.78" height="1.39"/>
        </g>
        <g>
          <path d="M80.92,58.85h1.39v2.78h-2.78v-1.39c0-.76.62-1.39,1.39-1.39Z"/>
          <rect class="st3" x="80.92" y="58.85" width="1.39" height=".69"/>
          <rect class="st5" x="80.92" y="59.55" width="1.39" height=".69"/>
          <rect class="st3" x="79.53" y="60.24" width="2.78" height="1.39"/>
        </g>
        <g>
          <path d="M38.4,18.95h-1.39v-2.78h2.78v1.39c0,.76-.62,1.39-1.39,1.39Z"/>
          <rect class="st3" x="37.01" y="18.26" width="1.39" height=".69"/>
          <rect class="st5" x="37.01" y="17.57" width="1.39" height=".69"/>
          <rect class="st3" x="37.01" y="16.18" width="2.78" height="1.39"/>
        </g>
        <g>
          <path d="M39.79,61.63h-2.78v-2.78h1.39c.76,0,1.39.62,1.39,1.39v1.39h0Z"/>
          <rect class="st3" x="37.01" y="58.85" width="1.39" height=".69"/>
          <rect class="st5" x="37.01" y="59.55" width="1.39" height=".69"/>
          <rect class="st3" x="37.01" y="60.24" width="2.78" height="1.39"/>
        </g>
        <polygon class="st5" points="82.31 52.4 81.61 51.4 81.61 26.41 82.31 25.41 82.31 52.4"/>
        <polygon class="st5" points="46.17 61.63 47.17 60.93 72.15 60.93 73.15 61.63 46.17 61.63"/>
      </g>
      <rect class="st3" x="19.21" y="34.62" width="2.28" height="8.57"/>
      <rect class="st5" x="19.21" y="35.58" width="1.47" height="6.66"/>
      <polygon class="st0" points="21.49 43.19 20.68 42.24 20.68 35.58 21.49 34.62 21.49 43.19"/>
      <g>
        <rect class="st3" x="27.02" y="29.83" width="9.99" height="2.84"/>
        <path class="st5" d="M37.01,23.37v2.24h-1.87c-.36.35-.56.55-.91.9v3.33h-7.21v-6.47s9.99,0,9.99,0Z"/>
      </g>
      <g>
        <rect class="st3" x="27.02" y="45.13" width="9.99" height="2.84"/>
        <path class="st5" d="M37.01,54.45v-2.24h-1.87c-.36-.35-.56-.55-.91-.9v-3.33h-7.21v6.47h9.99Z"/>
      </g>
      <rect class="st3" x="48.7" y="11.84" width="4.33" height="4.33"/>
      <rect class="st3" x="66.29" y="11.84" width="4.33" height="4.33"/>
      <polygon class="st0" points="48.7 16.18 49.51 15.13 69.81 15.13 70.62 16.18 48.7 16.18"/>
      <rect class="st5" x="49.51" y="12.66" width="20.3" height="2.47"/>
    </g>
    <g>
      <path class="st9" d="M29.57,58.78c0-.25-.05-.49-.13-.71h2.18c-.09.22-.13.46-.13.71s.05.49.14.71h-2.19c.09-.22.14-.46.14-.71,0,0,0,0,0,0Z"/>
      <path d="M29.57,58.78c0-.25-.05-.49-.13-.71h2.18c-.09.22-.13.46-.13.71s.05.49.14.71h-2.19c.09-.22.14-.46.14-.71,0,0,0,0,0,0Z"/>
      <path class="st5" d="M31.49,58.78c0-.25.05-.49.13-.71h.36v1.42h-.35c-.09-.22-.14-.46-.14-.71Z"/>
      <path class="st5" d="M29.09,59.49v-1.42h.35c.09.22.13.46.13.71s-.05.49-.14.71c0,0-.35,0-.35,0Z"/>
    </g>
    <g>
      <path class="st9" d="M93.58,47.87c.25,0,.49-.05.71-.13v2.18c-.22-.09-.46-.13-.71-.13s-.49.05-.71.14v-2.19c.22.09.46.14.71.14h0Z"/>
      <path d="M93.58,47.87c.25,0,.49-.05.71-.13v2.18c-.22-.09-.46-.13-.71-.13s-.49.05-.71.14v-2.19c.22.09.46.14.71.14h0Z"/>
      <path class="st5" d="M93.58,49.78c.25,0,.49.05.71.13v.36h-1.42v-.35c.22-.09.46-.14.71-.14Z"/>
      <path class="st5" d="M92.87,47.38h1.42v.35c-.22.09-.46.13-.71.13s-.49-.05-.71-.14c0,0,0-.35,0-.35Z"/>
    </g>
    <g>
      <path class="st9" d="M99.62,47.87c.25,0,.49-.05.71-.13v2.18c-.22-.09-.46-.13-.71-.13s-.49.05-.71.14v-2.19c.22.09.46.14.71.14h0Z"/>
      <path d="M99.62,47.87c.25,0,.49-.05.71-.13v2.18c-.22-.09-.46-.13-.71-.13s-.49.05-.71.14v-2.19c.22.09.46.14.71.14h0Z"/>
      <path class="st5" d="M99.62,49.78c.25,0,.49.05.71.13v.36h-1.42v-.35c.22-.09.46-.14.71-.14Z"/>
      <path class="st5" d="M98.91,47.38h1.42v.35c-.22.09-.46.13-.71.13s-.49-.05-.71-.14c0,0,0-.35,0-.35Z"/>
    </g>
    <g>
      <path class="st9" d="M93.58,28.59c.25,0,.49-.05.71-.13v2.18c-.22-.09-.46-.13-.71-.13s-.49.05-.71.14v-2.19c.22.09.46.14.71.14h0Z"/>
      <path d="M93.58,28.59c.25,0,.49-.05.71-.13v2.18c-.22-.09-.46-.13-.71-.13s-.49.05-.71.14v-2.19c.22.09.46.14.71.14h0Z"/>
      <path class="st5" d="M93.58,30.5c.25,0,.49.05.71.13v.36h-1.42v-.35c.22-.09.46-.14.71-.14Z"/>
      <path class="st5" d="M92.87,28.1h1.42v.35c-.22.09-.46.13-.71.13s-.49-.05-.71-.14c0,0,0-.35,0-.35Z"/>
    </g>
    <g>
      <path class="st9" d="M99.62,28.59c.25,0,.49-.05.71-.13v2.18c-.22-.09-.46-.13-.71-.13s-.49.05-.71.14v-2.19c.22.09.46.14.71.14h0Z"/>
      <path d="M99.62,28.59c.25,0,.49-.05.71-.13v2.18c-.22-.09-.46-.13-.71-.13s-.49.05-.71.14v-2.19c.22.09.46.14.71.14h0Z"/>
      <path class="st5" d="M99.62,30.5c.25,0,.49.05.71.13v.36h-1.42v-.35c.22-.09.46-.14.71-.14Z"/>
      <path class="st5" d="M98.91,28.1h1.42v.35c-.22.09-.46.13-.71.13s-.49-.05-.71-.14c0,0,0-.35,0-.35Z"/>
    </g>
    <g>
      <g>
        <g>
          <path class="st5" d="M85,8.85h-.82v-.22c0-.12.09-.21.21-.21h.4c.12,0,.21.09.21.21v.22h0Z"/>
          <path class="st5" d="M86.41,8.85h-.82v-.22c0-.12.09-.21.21-.21h.4c.12,0,.21.09.21.21v.22h0Z"/>
          <path class="st5" d="M87.83,8.85h-.82v-.22c0-.12.09-.21.21-.21h.4c.12,0,.21.09.21.21v.22h0Z"/>
          <path class="st5" d="M89.25,8.85h-.82v-.22c0-.12.09-.21.21-.21h.4c.12,0,.21.09.21.21v.22h0Z"/>
          <path class="st5" d="M90.67,8.85h-.82v-.22c0-.12.09-.21.21-.21h.4c.12,0,.21.09.21.21v.22h0Z"/>
        </g>
        <g>
          <path class="st5" d="M89.85,17.57h.82v.22c0,.12-.09.21-.21.21h-.4c-.12,0-.21-.09-.21-.21v-.22h0Z"/>
          <path class="st5" d="M88.43,17.57h.82v.22c0,.12-.09.21-.21.21h-.4c-.12,0-.21-.09-.21-.21v-.22h0Z"/>
          <path class="st5" d="M87.01,17.57h.82v.22c0,.12-.09.21-.21.21h-.4c-.12,0-.21-.09-.21-.21v-.22h0Z"/>
          <path class="st5" d="M85.59,17.57h.82v.22c0,.12-.09.21-.21.21h-.4c-.12,0-.21-.09-.21-.21v-.22h0Z"/>
          <path class="st5" d="M84.17,17.57h.82v.22c0,.12-.09.21-.21.21h-.4c-.12,0-.21-.09-.21-.21v-.22h0Z"/>
        </g>
        <g>
          <path class="st5" d="M91.78,10.78v-.82h.22c.12,0,.21.09.21.21v.4c0,.12-.09.21-.21.21h-.22,0Z"/>
          <path class="st5" d="M91.78,12.2v-.82h.22c.12,0,.21.09.21.21v.4c0,.12-.09.21-.21.21h-.22,0Z"/>
          <path class="st5" d="M91.78,13.62v-.82h.22c.12,0,.21.09.21.21v.4c0,.12-.09.21-.21.21h-.22,0Z"/>
          <path class="st5" d="M91.78,15.04v-.82h.22c.12,0,.21.09.21.21v.4c0,.12-.09.21-.21.21h-.22,0Z"/>
          <path class="st5" d="M91.78,16.46v-.82h.22c.12,0,.21.09.21.21v.4c0,.12-.09.21-.21.21h-.22,0Z"/>
        </g>
        <g>
          <path class="st5" d="M83.06,15.63v.82h-.22c-.12,0-.21-.09-.21-.21v-.4c0-.12.09-.21.21-.21h.22,0Z"/>
          <path class="st5" d="M83.06,14.21v.82h-.22c-.12,0-.21-.09-.21-.21v-.4c0-.12.09-.21.21-.21h.22,0Z"/>
          <path class="st5" d="M83.06,12.8v.82h-.22c-.12,0-.21-.09-.21-.21v-.4c0-.12.09-.21.21-.21h.22,0Z"/>
          <path class="st5" d="M83.06,11.38v.82h-.22c-.12,0-.21-.09-.21-.21v-.4c0-.12.09-.21.21-.21h.22,0Z"/>
          <path class="st5" d="M83.06,9.96v.82h-.22c-.12,0-.21-.09-.21-.21v-.4c0-.12.09-.21.21-.21h.22,0Z"/>
        </g>
        <rect x="83.06" y="8.85" width="8.72" height="8.72"/>
      </g>
      <circle class="st5" cx="84.36" cy="10.23" r=".58"/>
    </g>
  </g>
</svg>