<?xml version="1.0" encoding="utf-8"?>
<!-- Generator: Adobe Illustrator 27.1.1, SVG Export Plug-In . SVG Version: 6.00 Build 0)  -->
<svg version="1.1" id="Layer_1" xmlns="http://www.w3.org/2000/svg" xmlns:xlink="http://www.w3.org/1999/xlink" x="0px" y="0px"
	 viewBox="0 0 237.3 236" style="enable-background:new 0 0 237.3 236;" xml:space="preserve">
<style type="text/css">
	.st0{fill:#3F4642;}
	.st1{fill:#555A57;}
	.st2{fill:#7F8C8D;}
	.st3{fill:#D6DADB;}
	.st4{fill:#9E846D;}
	.st5{fill:#BDAB9C;}
	.st6{fill:#FFFFFF;}
	.st7{fill:#BCC3C4;}
	.st8{fill:#2A312D;}
	.st9{fill:#EBA900;}
	.st10{fill:#F8E6B7;}
	.st11{fill:#EAA800;}
</style>
<g id="Carrier">
	<path class="st0" d="M125.1,0v1.3c0,2.3-1.9,4.2-4.2,4.2h-4.5c-2.3,0-4.2-1.9-4.2-4.2V0C49.7,3.4,0,55.2,0,118.5
		c0,59.7,44.2,109.2,101.6,117.4c4.1-4.8,10.2-7.9,17-7.9s13,3.1,17,7.9c57.5-8.3,101.6-57.7,101.6-117.4
		C237.3,55.2,187.6,3.4,125.1,0z M66,216.7c-1,1.7-3.1,2.3-4.8,1.3c-1.7-1-2.3-3.1-1.3-4.8c1-1.7,3.1-2.3,4.8-1.3
		C66.4,212.8,67,215,66,216.7z M64.8,25.2c-1.7,1-3.9,0.4-4.8-1.3c-1-1.7-0.4-3.8,1.3-4.8c1.7-1,3.8-0.4,4.8,1.3
		C67,22,66.4,24.2,64.8,25.2z M97.1,211c-1.6,2.9-4.7,4.8-8,4.8c-3.4,0-6.4-1.8-8-4.8c-0.4-0.7-0.1-1.5,0.5-1.9
		c0.7-0.4,1.5-0.1,1.9,0.5c1.1,2,3.2,3.3,5.6,3.3c2.3,0,4.5-1.3,5.6-3.3c0.4-0.7,1.2-0.9,1.9-0.5C97.3,209.5,97.5,210.3,97.1,211
		L97.1,211z M155.6,215.6c-0.7,0.4-1.5,0.1-1.9-0.6c-1.1-2-3.2-3.3-5.6-3.3c-2.3,0-4.5,1.3-5.6,3.3c-0.4,0.7-1.2,0.9-1.9,0.5
		c-0.7-0.4-0.9-1.2-0.5-1.9c1.6-2.9,4.7-4.8,8-4.8s6.4,1.8,8,4.8C156.5,214.4,156.3,215.2,155.6,215.6z M229.9,122
		c-1.9,0-3.5-1.6-3.5-3.5s1.6-3.5,3.5-3.5s3.5,1.6,3.5,3.5S231.9,122,229.9,122z"/>
	<path class="st1" d="M52.3,20.2C22.9,40,2.9,72.7,0.3,110.2L54,114c0.4-6.7,2-13.4,4.6-19.9c-0.2-0.1-0.4-0.2-0.5-0.3
		c-4.3-2.5-5.8-8-3.3-12.3c2.5-4.3,8-5.8,12.3-3.3c0.2,0.1,0.4,0.2,0.5,0.3c4.2-5.5,9.3-10.1,14.8-13.8
		C82.4,64.8,52.3,20.2,52.3,20.2z"/>
	<path class="st1" d="M237,110.2c-2.5-35.4-20.8-69.1-52-90.1l-30.1,44.6c5.6,3.7,10.6,8.4,14.9,13.9c0.2-0.1,0.3-0.2,0.5-0.3
		c4.3-2.5,9.8-1,12.3,3.3c2.5,4.3,1,9.8-3.3,12.3c-0.2,0.1-0.4,0.2-0.6,0.3c2.6,6.4,4.1,13.1,4.6,19.7L237,110.2L237,110.2z"/>
	<path class="st1" d="M185,216.9c29.4-19.9,49.4-52.6,52-90.1l-53.7-3.8c-0.4,6.7-2,13.4-4.6,19.9c0.2,0.1,0.4,0.2,0.5,0.3
		c4.3,2.5,5.8,8,3.3,12.3c-2.5,4.3-8,5.8-12.3,3.3c-0.2-0.1-0.4-0.2-0.5-0.3c-4.2,5.5-9.3,10.1-14.8,13.8L185,216.9z"/>
	<path class="st1" d="M0.3,126.8c2.5,35.4,20.8,69.1,52,90.1l30.1-44.6c-5.6-3.7-10.6-8.4-14.9-13.9c-0.2,0.1-0.3,0.2-0.5,0.3
		c-4.3,2.5-9.8,1-12.3-3.3c-2.5-4.3-1-9.8,3.3-12.3c0.2-0.1,0.4-0.2,0.6-0.3c-2.6-6.4-4.1-13.1-4.6-19.7L0.3,126.8z"/>
	<path class="st1" d="M170.7,11.9L147,60.3c-6-2.9-12.5-5-19.4-5.9c0-0.2,0-0.4,0-0.6c0-5-4-9-9-9s-9,4-9,9c0,0.2,0,0.4,0,0.6
		c-6.9,1-13.5,3-19.5,5.9L66.6,11.9C80.5,5.1,95.9,0.9,112.2,0v1.3c0,2.3,1.9,4.2,4.2,4.2h4.5c2.3,0,4.2-1.9,4.2-4.2V0
		C141.4,0.9,156.8,5.1,170.7,11.9z"/>
	<g>
		<path class="st2" d="M117.7,60.3c0-0.3,0-0.5-0.1-0.7h2.2c-0.1,0.2-0.1,0.5-0.1,0.7c0,0.3,0,0.5,0.1,0.7h-2.2
			C117.6,60.8,117.7,60.5,117.7,60.3L117.7,60.3z"/>
		<path class="st3" d="M119.6,60.3c0-0.3,0-0.5,0.1-0.7h0.4V61h-0.4C119.7,60.8,119.6,60.5,119.6,60.3z"/>
		<path class="st3" d="M117.2,61v-1.4h0.4c0.1,0.2,0.1,0.5,0.1,0.7c0,0.3,0,0.5-0.1,0.7H117.2z"/>
	</g>
	<g>
		<rect x="115.2" y="53.1" class="st3" width="1.8" height="1.3"/>
		<rect x="115.2" y="50.5" class="st3" width="1.8" height="1.3"/>
		<rect x="115.2" y="55.6" class="st3" width="1.8" height="1.3"/>
		<rect x="120.3" y="53.1" class="st3" width="1.8" height="1.3"/>
		<rect x="120.3" y="50.5" class="st3" width="1.8" height="1.3"/>
		<rect x="120.3" y="55.6" class="st3" width="1.8" height="1.3"/>
		<rect x="116.1" y="51.2" class="st4" width="5.1" height="5.1"/>
		<rect x="117" y="52.1" class="st5" width="3.2" height="3.2"/>
		<circle class="st6" cx="118.6" cy="53.7" r="1.8"/>
	</g>
	<g>
		<path class="st2" d="M168.6,88.5c0.2-0.1,0.4-0.3,0.6-0.5l1.1,1.9c-0.2,0-0.5,0.1-0.7,0.2c-0.2,0.1-0.4,0.3-0.6,0.5l-1.1-1.9
			C168.1,88.8,168.4,88.7,168.6,88.5z"/>
		<path class="st3" d="M169.6,90.2c0.2-0.1,0.5-0.2,0.7-0.2l0.2,0.3l-1.2,0.7l-0.2-0.3C169.2,90.5,169.4,90.4,169.6,90.2L169.6,90.2
			z"/>
		<path class="st3" d="M167.7,88.5l1.2-0.7l0.2,0.3c-0.1,0.2-0.3,0.4-0.6,0.5c-0.2,0.1-0.5,0.2-0.7,0.2L167.7,88.5L167.7,88.5z"/>
	</g>
	<g>
		<rect x="172.8" y="83" transform="matrix(0.866 -0.5 0.5 0.866 -18.7212 97.9815)" class="st3" width="1.3" height="1.8"/>
		<rect x="175" y="81.7" transform="matrix(0.866 -0.5 0.5 0.866 -17.7926 98.9101)" class="st3" width="1.3" height="1.8"/>
		<rect x="170.6" y="84.3" transform="matrix(0.866 -0.5 0.5 0.866 -19.6497 97.053)" class="st3" width="1.3" height="1.8"/>
		<rect x="175.4" y="87.4" transform="matrix(0.866 -0.5 0.5 0.866 -20.5782 99.8386)" class="st3" width="1.3" height="1.8"/>
		<rect x="177.6" y="86.1" transform="matrix(0.866 -0.5 0.5 0.866 -19.6497 100.7671)" class="st3" width="1.3" height="1.8"/>
		<rect x="173.2" y="88.7" transform="matrix(0.866 -0.5 0.5 0.866 -21.5067 98.9101)" class="st3" width="1.3" height="1.8"/>
		<rect x="172.2" y="83.6" transform="matrix(0.866 -0.5 0.5 0.866 -19.6497 98.9101)" class="st4" width="5.1" height="5.1"/>
		<rect x="173.1" y="84.5" transform="matrix(0.866 -0.5 0.5 0.866 -19.6497 98.9101)" class="st5" width="3.2" height="3.2"/>
		<circle class="st6" cx="174.7" cy="86.1" r="1.8"/>
	</g>
	<g>
		<path class="st2" d="M169.6,146.8c0.2,0.1,0.5,0.2,0.7,0.2l-1.1,1.9c-0.1-0.2-0.3-0.4-0.6-0.5c-0.2-0.1-0.5-0.2-0.7-0.2l1.1-1.9
			C169.2,146.5,169.4,146.7,169.6,146.8z"/>
		<path class="st3" d="M168.6,148.5c0.2,0.1,0.4,0.3,0.6,0.5l-0.2,0.3l-1.2-0.7l0.2-0.3C168.1,148.3,168.4,148.3,168.6,148.5
			L168.6,148.5z"/>
		<path class="st3" d="M169.2,146l1.2,0.7l-0.2,0.3c-0.2,0-0.5-0.1-0.7-0.2c-0.2-0.1-0.4-0.3-0.6-0.5L169.2,146L169.2,146z"/>
	</g>
	<g>
		<rect x="175.1" y="148" transform="matrix(0.5 -0.866 0.866 0.5 -40.7767 226.7853)" class="st3" width="1.8" height="1.3"/>
		<rect x="177.3" y="149.3" transform="matrix(0.5 -0.866 0.866 0.5 -40.7767 229.3221)" class="st3" width="1.8" height="1.3"/>
		<rect x="172.9" y="146.8" transform="matrix(0.5 -0.866 0.866 0.5 -40.7767 224.2485)" class="st3" width="1.8" height="1.3"/>
		<rect x="172.6" y="152.4" transform="matrix(0.5 -0.866 0.866 0.5 -45.8502 226.7853)" class="st3" width="1.8" height="1.3"/>
		<rect x="174.8" y="153.7" transform="matrix(0.5 -0.866 0.866 0.5 -45.8502 229.3221)" class="st3" width="1.8" height="1.3"/>
		<rect x="170.4" y="151.2" transform="matrix(0.5 -0.866 0.866 0.5 -45.8502 224.2485)" class="st3" width="1.8" height="1.3"/>
		<rect x="172.2" y="148.4" transform="matrix(0.5 -0.866 0.866 0.5 -43.3135 226.7853)" class="st4" width="5.1" height="5.1"/>
		<rect x="173.1" y="149.3" transform="matrix(0.5 -0.866 0.866 0.5 -43.3135 226.7853)" class="st5" width="3.2" height="3.2"/>
		<circle class="st6" cx="174.7" cy="150.9" r="1.8"/>
	</g>
	<g>
		<path class="st2" d="M67.7,90.2C67.5,90.1,67.3,90,67,90l1.1-1.9c0.1,0.2,0.3,0.4,0.6,0.5c0.2,0.1,0.5,0.2,0.7,0.2l-1.1,1.9
			C68.1,90.5,67.9,90.4,67.7,90.2z"/>
		<path class="st3" d="M68.7,88.5c-0.2-0.1-0.4-0.3-0.6-0.5l0.2-0.3l1.2,0.7l-0.2,0.3C69.1,88.8,68.9,88.7,68.7,88.5z"/>
		<path class="st3" d="M68.1,91l-1.2-0.7L67,90c0.2,0,0.5,0.1,0.7,0.2c0.2,0.1,0.4,0.3,0.6,0.5L68.1,91z"/>
	</g>
	<g>
		<rect x="60.4" y="87.7" transform="matrix(0.5 -0.866 0.866 0.5 -45.8509 97.2219)" class="st3" width="1.8" height="1.3"/>
		<rect x="58.2" y="86.4" transform="matrix(0.5 -0.866 0.866 0.5 -45.8509 94.6851)" class="st3" width="1.8" height="1.3"/>
		<rect x="62.5" y="88.9" transform="matrix(0.5 -0.866 0.866 0.5 -45.8509 99.7587)" class="st3" width="1.8" height="1.3"/>
		<rect x="62.9" y="83.3" transform="matrix(0.5 -0.866 0.866 0.5 -40.7773 97.2219)" class="st3" width="1.8" height="1.3"/>
		<rect x="60.7" y="82" transform="matrix(0.5 -0.866 0.866 0.5 -40.7773 94.6851)" class="st3" width="1.8" height="1.3"/>
		<rect x="65.1" y="84.5" transform="matrix(0.5 -0.866 0.866 0.5 -40.7773 99.7587)" class="st3" width="1.8" height="1.3"/>
		<rect x="60" y="83.6" transform="matrix(0.5 -0.866 0.866 0.5 -43.3141 97.2219)" class="st4" width="5.1" height="5.1"/>
		<rect x="60.9" y="84.5" transform="matrix(0.5 -0.866 0.866 0.5 -43.3141 97.2219)" class="st5" width="3.2" height="3.2"/>
		<circle class="st6" cx="62.5" cy="86.1" r="1.8"/>
	</g>
	<g>
		<path class="st2" d="M68.7,148.5c-0.2,0.1-0.4,0.3-0.6,0.5L67,147c0.2,0,0.5-0.1,0.7-0.2c0.2-0.1,0.4-0.3,0.6-0.5l1.1,1.9
			C69.1,148.3,68.9,148.4,68.7,148.5z"/>
		<path class="st3" d="M67.7,146.8c-0.2,0.1-0.5,0.2-0.7,0.2l-0.2-0.3l1.2-0.7l0.2,0.3C68.1,146.5,67.9,146.7,67.7,146.8L67.7,146.8
			z"/>
		<path class="st3" d="M69.6,148.6l-1.2,0.7l-0.2-0.3c0.1-0.2,0.3-0.4,0.6-0.5c0.2-0.1,0.5-0.2,0.7-0.2L69.6,148.6L69.6,148.6z"/>
	</g>
	<g>
		<rect x="63.2" y="152.2" transform="matrix(0.866 -0.5 0.5 0.866 -68.002 52.4161)" class="st3" width="1.3" height="1.8"/>
		<rect x="61" y="153.5" transform="matrix(0.866 -0.5 0.5 0.866 -68.9305 51.4876)" class="st3" width="1.3" height="1.8"/>
		<rect x="65.3" y="150.9" transform="matrix(0.866 -0.5 0.5 0.866 -67.0735 53.3446)" class="st3" width="1.3" height="1.8"/>
		<rect x="60.6" y="147.8" transform="matrix(0.866 -0.5 0.5 0.866 -66.145 50.559)" class="st3" width="1.3" height="1.8"/>
		<rect x="58.4" y="149.1" transform="matrix(0.866 -0.5 0.5 0.866 -67.0735 49.6305)" class="st3" width="1.3" height="1.8"/>
		<rect x="62.8" y="146.5" transform="matrix(0.866 -0.5 0.5 0.866 -65.2164 51.4876)" class="st3" width="1.3" height="1.8"/>
		<rect x="60" y="148.4" transform="matrix(0.866 -0.5 0.5 0.866 -67.0735 51.4876)" class="st4" width="5.1" height="5.1"/>
		<rect x="60.9" y="149.3" transform="matrix(0.866 -0.5 0.5 0.866 -67.0735 51.4876)" class="st5" width="3.2" height="3.2"/>
		<circle class="st6" cx="62.5" cy="150.9" r="1.8"/>
	</g>
	<circle class="st4" cx="62.8" cy="165.8" r="3.3"/>
	<circle class="st4" cx="18.7" cy="165.8" r="3.3"/>
	<circle class="st4" cx="174.5" cy="165.8" r="3.3"/>
	<circle class="st4" cx="218.6" cy="165.8" r="3.3"/>
	<g id="Artwork_3">
		<path class="st2" d="M104.2,218h1.4c0,0,0,0,0,0v1.4c0,0,0,0,0,0h-1.4c0,0,0,0,0,0L104.2,218C104.1,218,104.2,218,104.2,218z"/>
		<path class="st2" d="M104.2,216.4h1.4c0,0,0,0,0,0v1.4c0,0,0,0,0,0h-1.4c0,0,0,0,0,0L104.2,216.4
			C104.1,216.5,104.2,216.4,104.2,216.4z"/>
		<path class="st7" d="M104.3,217.3L104.3,217.3l0,0.6v0l0,0.6h0c0,0.3,0.3,0.6,0.6,0.6s0.6-0.3,0.6-0.6h0l0-0.6v0l0-0.6
			c0-0.3-0.3-0.6-0.6-0.6S104.3,217,104.3,217.3L104.3,217.3z"/>
		<rect x="104.3" y="217.5" class="st8" width="1.2" height="0.9"/>
	</g>
	<g id="Artwork_3-2">
		<path class="st2" d="M98.4,198.9h1.4c0,0,0,0,0,0v1.4c0,0,0,0,0,0h-1.4c0,0,0,0,0,0L98.4,198.9C98.4,198.9,98.4,198.9,98.4,198.9z
			"/>
		<path class="st2" d="M99.9,198.9h1.4c0,0,0,0,0,0v1.4c0,0,0,0,0,0h-1.4c0,0,0,0,0,0L99.9,198.9C99.9,198.9,99.9,198.9,99.9,198.9z
			"/>
		<path class="st7" d="M100.4,199L100.4,199l-0.6,0h0l-0.6,0v0c-0.3,0-0.6,0.3-0.6,0.6s0.3,0.6,0.6,0.6v0l0.6,0h0l0.6,0
			c0.3,0,0.6-0.3,0.6-0.6S100.7,199,100.4,199z"/>
		<rect x="99.4" y="199" class="st8" width="0.9" height="1.2"/>
	</g>
	<g id="Artwork_3-3">
		<path class="st2" d="M84.1,193.8h1.4c0,0,0,0,0,0v1.4c0,0,0,0,0,0h-1.4c0,0,0,0,0,0L84.1,193.8C84.1,193.8,84.1,193.8,84.1,193.8z
			"/>
		<path class="st2" d="M85.7,193.8H87c0,0,0,0,0,0v1.4c0,0,0,0,0,0h-1.4c0,0,0,0,0,0L85.7,193.8C85.7,193.8,85.7,193.8,85.7,193.8z"
			/>
		<path class="st7" d="M86.2,193.9L86.2,193.9l-0.6,0h0l-0.6,0v0c-0.3,0-0.6,0.3-0.6,0.6s0.3,0.6,0.6,0.6v0l0.6,0h0l0.6,0
			c0.3,0,0.6-0.3,0.6-0.6S86.5,193.9,86.2,193.9z"/>
		<rect x="85.2" y="193.9" class="st8" width="0.9" height="1.2"/>
	</g>
	<g id="Artwork_3-4">
		<path class="st2" d="M98.4,202.1h1.4c0,0,0,0,0,0v1.4c0,0,0,0,0,0h-1.4c0,0,0,0,0,0L98.4,202.1C98.4,202.1,98.4,202.1,98.4,202.1z
			"/>
		<path class="st2" d="M99.9,202.1h1.4c0,0,0,0,0,0v1.4c0,0,0,0,0,0h-1.4c0,0,0,0,0,0L99.9,202.1C99.9,202.1,99.9,202.1,99.9,202.1z
			"/>
		<path class="st7" d="M100.4,202.2L100.4,202.2l-0.6,0h0l-0.6,0v0c-0.3,0-0.6,0.3-0.6,0.6s0.3,0.6,0.6,0.6v0l0.6,0h0l0.6,0
			c0.3,0,0.6-0.3,0.6-0.6S100.7,202.2,100.4,202.2z"/>
		<rect x="99.4" y="202.2" class="st8" width="0.9" height="1.2"/>
	</g>
	<g id="Artwork_3-5">
		<path class="st2" d="M106.8,218h1.4c0,0,0,0,0,0v1.4c0,0,0,0,0,0h-1.4c0,0,0,0,0,0L106.8,218C106.7,218,106.7,218,106.8,218z"/>
		<path class="st2" d="M106.8,216.4h1.4c0,0,0,0,0,0v1.4c0,0,0,0,0,0h-1.4c0,0,0,0,0,0L106.8,216.4
			C106.7,216.5,106.7,216.4,106.8,216.4z"/>
		<path class="st7" d="M106.9,217.3L106.9,217.3l0,0.6v0l0,0.6h0c0,0.3,0.3,0.6,0.6,0.6s0.6-0.3,0.6-0.6h0l0-0.6v0l0-0.6
			c0-0.3-0.3-0.6-0.6-0.6S106.9,217,106.9,217.3L106.9,217.3z"/>
		<rect x="106.9" y="217.5" class="st8" width="1.2" height="0.9"/>
	</g>
	<g>
		<rect x="109.9" y="212.1" class="st3" width="3.6" height="9.2"/>
		<circle class="st9" cx="111.7" cy="216.7" r="2.7"/>
	</g>
	<g>
		<rect x="123.8" y="212.1" class="st3" width="3.6" height="9.2"/>
		<circle class="st9" cx="125.6" cy="216.7" r="2.7"/>
	</g>
	<g id="Artwork_3-6">
		<path class="st2" d="M131.8,218h1.4c0,0,0,0,0,0v1.4c0,0,0,0,0,0h-1.4c0,0,0,0,0,0L131.8,218C131.7,218,131.7,218,131.8,218z"/>
		<path class="st2" d="M131.8,216.4h1.4c0,0,0,0,0,0v1.4c0,0,0,0,0,0h-1.4c0,0,0,0,0,0L131.8,216.4
			C131.7,216.5,131.7,216.4,131.8,216.4z"/>
		<path class="st7" d="M133,217.3L133,217.3l0,0.6v0l0,0.6h0c0,0.3-0.3,0.6-0.6,0.6s-0.6-0.3-0.6-0.6h0l0-0.6v0l0-0.6
			c0-0.3,0.3-0.6,0.6-0.6S133,217,133,217.3L133,217.3z"/>
		<rect x="131.9" y="217.5" class="st8" width="1.2" height="0.9"/>
	</g>
	<g id="Artwork_3-7">
		<path class="st2" d="M139.1,226.8h1.4c0,0,0,0,0,0v1.4c0,0,0,0,0,0h-1.4c0,0,0,0,0,0L139.1,226.8
			C139,226.9,139.1,226.8,139.1,226.8z"/>
		<path class="st2" d="M139.1,225.3h1.4c0,0,0,0,0,0v1.4c0,0,0,0,0,0h-1.4c0,0,0,0,0,0L139.1,225.3
			C139,225.3,139.1,225.3,139.1,225.3z"/>
		<path class="st7" d="M140.3,226.2L140.3,226.2l0,0.6v0l0,0.6h0c0,0.3-0.3,0.6-0.6,0.6s-0.6-0.3-0.6-0.6h0l0-0.6v0l0-0.6
			c0-0.3,0.3-0.6,0.6-0.6S140.3,225.9,140.3,226.2L140.3,226.2z"/>
		<rect x="139.2" y="226.3" class="st8" width="1.2" height="0.9"/>
	</g>
	<g id="Artwork_3-8">
		<path class="st2" d="M156.9,226.8h1.4c0,0,0,0,0,0v1.4c0,0,0,0,0,0h-1.4c0,0,0,0,0,0L156.9,226.8
			C156.9,226.9,156.9,226.8,156.9,226.8z"/>
		<path class="st2" d="M156.9,225.3h1.4c0,0,0,0,0,0v1.4c0,0,0,0,0,0h-1.4c0,0,0,0,0,0L156.9,225.3
			C156.9,225.3,156.9,225.3,156.9,225.3z"/>
		<path class="st7" d="M158.1,226.2L158.1,226.2l0,0.6v0l0,0.6h0c0,0.3-0.3,0.6-0.6,0.6s-0.6-0.3-0.6-0.6h0l0-0.6v0l0-0.6
			c0-0.3,0.3-0.6,0.6-0.6S158.1,225.9,158.1,226.2L158.1,226.2z"/>
		<rect x="157" y="226.3" class="st8" width="1.2" height="0.9"/>
	</g>
	<g id="Artwork_3-9">
		<path class="st2" d="M154.5,222h1.4c0,0,0,0,0,0v1.4c0,0,0,0,0,0h-1.4c0,0,0,0,0,0L154.5,222C154.5,222,154.5,222,154.5,222z"/>
		<path class="st2" d="M154.5,220.5h1.4c0,0,0,0,0,0v1.4c0,0,0,0,0,0h-1.4c0,0,0,0,0,0L154.5,220.5
			C154.5,220.5,154.5,220.5,154.5,220.5z"/>
		<path class="st7" d="M155.7,221.4L155.7,221.4l0,0.6v0l0,0.6h0c0,0.3-0.3,0.6-0.6,0.6s-0.6-0.3-0.6-0.6h0l0-0.6v0l0-0.6
			c0-0.3,0.3-0.6,0.6-0.6S155.7,221.1,155.7,221.4L155.7,221.4z"/>
		<rect x="154.6" y="221.5" class="st8" width="1.2" height="0.9"/>
	</g>
	<g id="Artwork_3-10">
		<path class="st2" d="M129.2,218h1.4c0,0,0,0,0,0v1.4c0,0,0,0,0,0h-1.4c0,0,0,0,0,0L129.2,218C129.1,218,129.2,218,129.2,218z"/>
		<path class="st2" d="M129.2,216.4h1.4c0,0,0,0,0,0v1.4c0,0,0,0,0,0h-1.4c0,0,0,0,0,0L129.2,216.4
			C129.1,216.5,129.2,216.4,129.2,216.4z"/>
		<path class="st7" d="M130.4,217.3L130.4,217.3l0,0.6v0l0,0.6h0c0,0.3-0.3,0.6-0.6,0.6s-0.6-0.3-0.6-0.6h0l0-0.6v0l0-0.6
			c0-0.3,0.3-0.6,0.6-0.6S130.4,217,130.4,217.3L130.4,217.3z"/>
		<rect x="129.3" y="217.5" class="st8" width="1.2" height="0.9"/>
	</g>
	<g>
		<rect x="86.7" y="198.4" class="st8" width="7.2" height="5.9"/>
		<rect x="83.1" y="198.4" class="st8" width="2.8" height="5.9"/>
		<g>
			<circle class="st10" cx="91.8" cy="201.4" r="1.1"/>
			<path class="st11" d="M91.8,200.6c-0.4,0-0.8,0.3-0.8,0.8s0.3,0.8,0.8,0.8c0.4,0,0.8-0.3,0.8-0.8S92.2,200.6,91.8,200.6z
				 M91.8,201.9c-0.3,0-0.5-0.2-0.5-0.5s0.2-0.5,0.5-0.5c0.3,0,0.5,0.2,0.5,0.5S92.1,201.9,91.8,201.9z"/>
		</g>
		<g>
			<circle class="st10" cx="84.5" cy="201.4" r="1.1"/>
			<path class="st11" d="M84.5,200.6c-0.4,0-0.8,0.3-0.8,0.8s0.3,0.8,0.8,0.8c0.4,0,0.8-0.3,0.8-0.8S84.9,200.6,84.5,200.6z
				 M84.5,201.9c-0.3,0-0.5-0.2-0.5-0.5s0.2-0.5,0.5-0.5c0.3,0,0.5,0.2,0.5,0.5S84.8,201.9,84.5,201.9z"/>
		</g>
	</g>
	<circle class="st4" cx="151.2" cy="96.9" r="3.2"/>
	<circle class="st4" cx="101.8" cy="87.1" r="3.2"/>
	<circle class="st4" cx="92.6" cy="136.9" r="3.2"/>
	<g id="Artwork_3-11">
		<path class="st2" d="M86.9,102.4h1.4c0,0,0,0,0,0v1.4c0,0,0,0,0,0h-1.4c0,0,0,0,0,0L86.9,102.4C86.8,102.4,86.8,102.4,86.9,102.4z
			"/>
		<path class="st2" d="M88.4,102.4h1.4c0,0,0,0,0,0v1.4c0,0,0,0,0,0h-1.4c0,0,0,0,0,0L88.4,102.4C88.4,102.4,88.4,102.4,88.4,102.4z
			"/>
		<path class="st7" d="M88.9,103.7L88.9,103.7l-0.6,0h0l-0.6,0v0c-0.3,0-0.6-0.3-0.6-0.6s0.3-0.6,0.6-0.6v0l0.6,0h0l0.6,0
			c0.3,0,0.6,0.3,0.6,0.6S89.2,103.7,88.9,103.7z"/>
		<rect x="87.9" y="102.5" class="st8" width="0.9" height="1.2"/>
	</g>
	<g id="Artwork_3-12">
		<path class="st2" d="M137.5,124.7h1.4c0,0,0,0,0,0v1.4c0,0,0,0,0,0h-1.4c0,0,0,0,0,0L137.5,124.7
			C137.4,124.7,137.4,124.7,137.5,124.7z"/>
		<path class="st2" d="M137.5,126.3h1.4c0,0,0,0,0,0v1.4c0,0,0,0,0,0h-1.4c0,0,0,0,0,0L137.5,126.3
			C137.4,126.3,137.4,126.3,137.5,126.3z"/>
		<path class="st7" d="M137.5,126.8L137.5,126.8l0-0.6v0l0-0.6h0c0-0.3,0.3-0.6,0.6-0.6s0.6,0.3,0.6,0.6h0l0,0.6v0l0,0.6
			c0,0.3-0.3,0.6-0.6,0.6S137.5,127.1,137.5,126.8z"/>
		<rect x="137.5" y="125.8" class="st8" width="1.2" height="0.9"/>
	</g>
	<g id="Artwork_3-13">
		<path class="st2" d="M133.8,124.7h1.4c0,0,0,0,0,0v1.4c0,0,0,0,0,0h-1.4c0,0,0,0,0,0L133.8,124.7
			C133.8,124.7,133.8,124.7,133.8,124.7z"/>
		<path class="st2" d="M133.8,126.3h1.4c0,0,0,0,0,0v1.4c0,0,0,0,0,0h-1.4c0,0,0,0,0,0L133.8,126.3
			C133.8,126.3,133.8,126.3,133.8,126.3z"/>
		<path class="st7" d="M133.9,126.8L133.9,126.8l0-0.6v0l0-0.6h0c0-0.3,0.3-0.6,0.6-0.6s0.6,0.3,0.6,0.6h0l0,0.6v0l0,0.6
			c0,0.3-0.3,0.6-0.6,0.6S133.9,127.1,133.9,126.8z"/>
		<rect x="133.9" y="125.8" class="st8" width="1.2" height="0.9"/>
	</g>
	<g id="Artwork_3-14">
		<path class="st2" d="M109.3,127.7h1.4c0,0,0,0,0,0v1.4c0,0,0,0,0,0h-1.4c0,0,0,0,0,0L109.3,127.7
			C109.3,127.7,109.3,127.7,109.3,127.7z"/>
		<path class="st2" d="M110.8,127.7h1.4c0,0,0,0,0,0v1.4c0,0,0,0,0,0h-1.4c0,0,0,0,0,0L110.8,127.7
			C110.8,127.7,110.8,127.7,110.8,127.7z"/>
		<path class="st7" d="M111.3,129L111.3,129l-0.6,0h0l-0.6,0v0c-0.3,0-0.6-0.3-0.6-0.6s0.3-0.6,0.6-0.6v0l0.6,0h0l0.6,0
			c0.3,0,0.6,0.3,0.6,0.6S111.6,129,111.3,129L111.3,129z"/>
		<rect x="110.3" y="127.8" class="st8" width="0.9" height="1.2"/>
	</g>
	<g id="Artwork_3-15">
		<path class="st2" d="M127.3,119.4h1.4c0,0,0,0,0,0v1.4c0,0,0,0,0,0h-1.4c0,0,0,0,0,0L127.3,119.4
			C127.3,119.4,127.3,119.4,127.3,119.4z"/>
		<path class="st2" d="M128.8,119.4h1.4c0,0,0,0,0,0v1.4c0,0,0,0,0,0h-1.4c0,0,0,0,0,0L128.8,119.4
			C128.8,119.4,128.8,119.4,128.8,119.4z"/>
		<path class="st7" d="M129.3,120.6L129.3,120.6l-0.6,0h0l-0.6,0v0c-0.3,0-0.6-0.3-0.6-0.6s0.3-0.6,0.6-0.6v0l0.6,0h0l0.6,0
			c0.3,0,0.6,0.3,0.6,0.6S129.6,120.6,129.3,120.6z"/>
		<rect x="128.3" y="119.5" class="st8" width="0.9" height="1.2"/>
	</g>
	<g id="Artwork_3-16">
		<path class="st2" d="M86.9,105h1.4c0,0,0,0,0,0v1.4c0,0,0,0,0,0h-1.4c0,0,0,0,0,0L86.9,105C86.8,105,86.8,105,86.9,105z"/>
		<path class="st2" d="M88.4,105h1.4c0,0,0,0,0,0v1.4c0,0,0,0,0,0h-1.4c0,0,0,0,0,0L88.4,105C88.4,105,88.4,105,88.4,105z"/>
		<path class="st7" d="M88.9,106.2L88.9,106.2l-0.6,0h0l-0.6,0v0c-0.3,0-0.6-0.3-0.6-0.6s0.3-0.6,0.6-0.6v0l0.6,0h0l0.6,0
			c0.3,0,0.6,0.3,0.6,0.6S89.2,106.2,88.9,106.2z"/>
		<rect x="87.9" y="105.1" class="st8" width="0.9" height="1.2"/>
	</g>
	<g id="Artwork_3-17">
		<path class="st2" d="M86.9,107.5h1.4c0,0,0,0,0,0v1.4c0,0,0,0,0,0h-1.4c0,0,0,0,0,0L86.9,107.5C86.8,107.6,86.8,107.5,86.9,107.5z
			"/>
		<path class="st2" d="M88.4,107.5h1.4c0,0,0,0,0,0v1.4c0,0,0,0,0,0h-1.4c0,0,0,0,0,0L88.4,107.5C88.4,107.6,88.4,107.5,88.4,107.5z
			"/>
		<path class="st7" d="M88.9,108.8L88.9,108.8l-0.6,0h0l-0.6,0v0c-0.3,0-0.6-0.3-0.6-0.6s0.3-0.6,0.6-0.6v0l0.6,0h0l0.6,0
			c0.3,0,0.6,0.3,0.6,0.6S89.2,108.8,88.9,108.8z"/>
		<rect x="87.9" y="107.7" class="st8" width="0.9" height="1.2"/>
	</g>
	<g id="Artwork_3-18">
		<path class="st2" d="M86.9,110.1h1.4c0,0,0,0,0,0v1.4c0,0,0,0,0,0h-1.4c0,0,0,0,0,0L86.9,110.1C86.8,110.1,86.8,110.1,86.9,110.1z
			"/>
		<path class="st2" d="M88.4,110.1h1.4c0,0,0,0,0,0v1.4c0,0,0,0,0,0h-1.4c0,0,0,0,0,0L88.4,110.1C88.4,110.1,88.4,110.1,88.4,110.1z
			"/>
		<path class="st7" d="M88.9,111.4L88.9,111.4l-0.6,0h0l-0.6,0v0c-0.3,0-0.6-0.3-0.6-0.6s0.3-0.6,0.6-0.6v0l0.6,0h0l0.6,0
			c0.3,0,0.6,0.3,0.6,0.6S89.2,111.4,88.9,111.4z"/>
		<rect x="87.9" y="110.2" class="st8" width="0.9" height="1.2"/>
	</g>
	<g id="Artwork_3-19">
		<path class="st2" d="M86.9,112.7h1.4c0,0,0,0,0,0v1.4c0,0,0,0,0,0h-1.4c0,0,0,0,0,0L86.9,112.7C86.8,112.7,86.8,112.7,86.9,112.7z
			"/>
		<path class="st2" d="M88.4,112.7h1.4c0,0,0,0,0,0v1.4c0,0,0,0,0,0h-1.4c0,0,0,0,0,0L88.4,112.7C88.4,112.7,88.4,112.7,88.4,112.7z
			"/>
		<path class="st7" d="M88.9,114L88.9,114l-0.6,0h0l-0.6,0v0c-0.3,0-0.6-0.3-0.6-0.6s0.3-0.6,0.6-0.6v0l0.6,0h0l0.6,0
			c0.3,0,0.6,0.3,0.6,0.6S89.2,114,88.9,114z"/>
		<rect x="87.9" y="112.8" class="st8" width="0.9" height="1.2"/>
	</g>
	<g id="Artwork_3-20">
		<path class="st2" d="M86.9,115.3h1.4c0,0,0,0,0,0v1.4c0,0,0,0,0,0h-1.4c0,0,0,0,0,0L86.9,115.3C86.8,115.3,86.8,115.3,86.9,115.3z
			"/>
		<path class="st2" d="M88.4,115.3h1.4c0,0,0,0,0,0v1.4c0,0,0,0,0,0h-1.4c0,0,0,0,0,0L88.4,115.3C88.4,115.3,88.4,115.3,88.4,115.3z
			"/>
		<path class="st7" d="M88.9,116.6L88.9,116.6l-0.6,0h0l-0.6,0v0c-0.3,0-0.6-0.3-0.6-0.6s0.3-0.6,0.6-0.6v0l0.6,0h0l0.6,0
			c0.3,0,0.6,0.3,0.6,0.6S89.2,116.6,88.9,116.6z"/>
		<rect x="87.9" y="115.4" class="st8" width="0.9" height="1.2"/>
	</g>
	<g>
		<g>
			<rect x="100.5" y="113.6" class="st2" width="0.8" height="2.1"/>
			<rect x="102.2" y="113.6" class="st2" width="0.8" height="2.1"/>
			<rect x="103.8" y="113.6" class="st2" width="0.8" height="2.1"/>
			<rect x="105.5" y="113.6" class="st2" width="0.8" height="2.1"/>
			<rect x="107.2" y="113.6" class="st2" width="0.8" height="2.1"/>
			<rect x="108.9" y="113.6" class="st2" width="0.8" height="2.1"/>
			<rect x="110.6" y="113.6" class="st2" width="0.8" height="2.1"/>
			<rect x="112.2" y="113.6" class="st2" width="0.8" height="2.1"/>
			<rect x="113.9" y="113.6" class="st2" width="0.8" height="2.1"/>
			<rect x="115.6" y="113.6" class="st2" width="0.8" height="2.1"/>
			<rect x="117.3" y="113.6" class="st2" width="0.8" height="2.1"/>
			<rect x="119" y="113.6" class="st2" width="0.8" height="2.1"/>
			<rect x="120.6" y="113.6" class="st2" width="0.8" height="2.1"/>
			<rect x="122.3" y="113.6" class="st2" width="0.8" height="2.1"/>
			<rect x="124" y="113.6" class="st2" width="0.8" height="2.1"/>
			<rect x="125.7" y="113.6" class="st2" width="0.8" height="2.1"/>
			<rect x="127.4" y="113.6" class="st2" width="0.8" height="2.1"/>
			<rect x="129" y="113.6" class="st2" width="0.8" height="2.1"/>
			<rect x="130.7" y="113.6" class="st2" width="0.8" height="2.1"/>
			<rect x="132.4" y="113.6" class="st2" width="0.8" height="2.1"/>
			<rect x="134.1" y="113.6" class="st2" width="0.8" height="2.1"/>
			<rect x="135.8" y="113.6" class="st2" width="0.8" height="2.1"/>
		</g>
		<g>
			<rect x="99.3" y="105.1" class="st2" width="1.1" height="2.8"/>
			<rect x="97.6" y="105.9" class="st2" width="1.1" height="2.8"/>
			<rect x="101" y="105.1" class="st2" width="1.1" height="2.8"/>
			<rect x="102.7" y="105.1" class="st2" width="1.1" height="2.8"/>
			<rect x="104.4" y="105.1" class="st2" width="1.1" height="2.8"/>
			<rect x="106.1" y="105.1" class="st2" width="1.1" height="2.8"/>
			<rect x="107.8" y="105.1" class="st2" width="1.1" height="2.8"/>
			<rect x="109.5" y="105.1" class="st2" width="1.1" height="2.8"/>
			<rect x="111.2" y="105.1" class="st2" width="1.1" height="2.8"/>
			<rect x="112.9" y="105.1" class="st2" width="1.1" height="2.8"/>
			<rect x="114.6" y="105.1" class="st2" width="1.1" height="2.8"/>
			<rect x="116.3" y="105.1" class="st2" width="1.1" height="2.8"/>
			<rect x="118" y="105.1" class="st2" width="1.1" height="2.8"/>
			<rect x="119.7" y="105.1" class="st2" width="1.1" height="2.8"/>
			<rect x="121.4" y="105.1" class="st2" width="1.1" height="2.8"/>
			<rect x="123.1" y="105.1" class="st2" width="1.1" height="2.8"/>
			<rect x="124.8" y="105.1" class="st2" width="1.1" height="2.8"/>
			<rect x="126.5" y="105.1" class="st2" width="1.1" height="2.8"/>
			<rect x="128.2" y="105.1" class="st2" width="1.1" height="2.8"/>
			<rect x="129.9" y="105.1" class="st2" width="1.1" height="2.8"/>
			<rect x="131.6" y="105.1" class="st2" width="1.1" height="2.8"/>
			<rect x="133.3" y="105.1" class="st2" width="1.1" height="2.8"/>
			<rect x="135" y="105.1" class="st2" width="1.1" height="2.8"/>
			<rect x="136.7" y="105.1" class="st2" width="1.1" height="2.8"/>
			<rect x="138.4" y="105.9" class="st2" width="1.1" height="2.8"/>
		</g>
		<rect x="98.1" y="106.5" class="st8" width="40.8" height="8.1"/>
	</g>
	<g>
		<g>
			<rect x="110.1" y="130.6" class="st2" width="0.8" height="4.1"/>
			<rect x="111.5" y="130.6" class="st2" width="0.8" height="4.1"/>
			<rect x="112.9" y="130.6" class="st2" width="0.8" height="4.1"/>
			<rect x="114.3" y="130.6" class="st2" width="0.8" height="4.1"/>
			<rect x="115.7" y="130.6" class="st2" width="0.8" height="4.1"/>
			<rect x="117.1" y="130.6" class="st2" width="0.8" height="4.1"/>
			<rect x="118.5" y="130.6" class="st2" width="0.8" height="4.1"/>
			<rect x="119.9" y="130.6" class="st2" width="0.8" height="4.1"/>
			<rect x="121.3" y="130.6" class="st2" width="0.8" height="4.1"/>
			<rect x="122.7" y="130.6" class="st2" width="0.8" height="4.1"/>
			<rect x="124.1" y="130.6" class="st2" width="0.8" height="4.1"/>
			<rect x="125.5" y="130.6" class="st2" width="0.8" height="4.1"/>
			<rect x="126.9" y="130.6" class="st2" width="0.8" height="4.1"/>
			<rect x="128.3" y="130.6" class="st2" width="0.8" height="4.1"/>
			<rect x="129.7" y="130.6" class="st2" width="0.8" height="4.1"/>
			<rect x="131.1" y="130.6" class="st2" width="0.8" height="4.1"/>
			<rect x="132.5" y="130.6" class="st2" width="0.8" height="4.1"/>
			<rect x="133.9" y="130.6" class="st2" width="0.8" height="4.1"/>
			<rect x="135.3" y="130.6" class="st2" width="0.8" height="4.1"/>
			<rect x="136.7" y="130.6" class="st2" width="0.8" height="4.1"/>
			<rect x="138.1" y="130.6" class="st2" width="0.8" height="4.1"/>
			<rect x="139.5" y="130.6" class="st2" width="0.8" height="4.1"/>
			<rect x="140.9" y="130.6" class="st2" width="0.8" height="4.1"/>
			<rect x="142.3" y="130.6" class="st2" width="0.8" height="4.1"/>
		</g>
		<g>
			<polygon class="st2" points="109,132.5 109,138.5 105.8,138.5 105.8,136.5 101.9,136.5 101.9,133.8 103.8,133.8 103.8,132.5 			
				"/>
			<polygon class="st2" points="144.3,132.5 144.3,138.5 147.4,138.5 147.4,136.5 151.4,136.5 151.4,133.8 149.4,133.8 149.4,132.5 
							"/>
		</g>
		<rect x="102.2" y="139.4" class="st3" width="48.8" height="4.9"/>
		<rect x="103.4" y="133.4" class="st6" width="46.4" height="8.9"/>
		<rect x="103.4" y="133.4" class="st3" width="3.4" height="4.4"/>
		<rect x="146.5" y="133.4" class="st3" width="3.4" height="4.4"/>
	</g>
	<g>
		<rect x="114.4" y="119.8" class="st8" width="8.6" height="7.1"/>
		<circle class="st0" cx="115.5" cy="121" r="0.4"/>
	</g>
	<rect x="144.9" y="220.2" class="st2" width="1.5" height="1.5"/>
	<rect x="144.9" y="222.4" class="st2" width="1.5" height="1.5"/>
	<rect x="144.9" y="224.6" class="st2" width="1.5" height="1.5"/>
	<rect x="144.9" y="226.8" class="st2" width="1.5" height="1.5"/>
	<rect x="151.6" y="220.2" class="st2" width="1.5" height="1.5"/>
	<rect x="151.6" y="222.4" class="st2" width="1.5" height="1.5"/>
	<rect x="151.6" y="224.6" class="st2" width="1.5" height="1.5"/>
	<rect x="151.6" y="226.8" class="st2" width="1.5" height="1.5"/>
</g>
<g id="Lcd1">
	<g>
		<path d="M80.3,79.5c0,0-6,17.8-8,23.7c-2,6.1-3.7,11.6-3.7,25.3c0,27.6,22.4,50,50,50s50-22.4,50-50c0-13.8-1.7-19.3-3.7-25.3
			c-1.9-6-8-23.7-8-23.7H80.3z"/>
		<rect x="141.3" y="65" class="st3" width="11.7" height="6.8"/>
		<rect x="150.4" y="63.4" class="st4" width="1.7" height="2.9"/>
		<rect x="148.2" y="63.4" class="st4" width="1.7" height="2.9"/>
		<rect x="145.9" y="63.4" class="st4" width="1.7" height="2.9"/>
		<polygon class="st8" points="80.3,79.5 83.3,70.6 84.3,67.7 85,65.6 96.3,65.6 96.3,67.7 153,67.7 157,79.5 		"/>
		<path class="st4" d="M144.8,67.7H95.1v-4.3h45.4C142.8,63.4,144.8,65.4,144.8,67.7C144.8,67.7,144.8,67.7,144.8,67.7z"/>
	</g>
</g>
<g id="Silk1">
	<g>
		<g>
			<g>
				<path class="st6" d="M118.6,29.1c-0.6,0-1-0.4-1-1c0-4.8,3.9-8.7,8.7-8.7c0.4,0,0.7,0,1.1,0.1c0.5,0.1,0.9,0.6,0.9,1.1
					c-0.1,0.5-0.6,0.9-1.1,0.9c-0.3,0-0.6-0.1-0.8-0.1c-3.7,0-6.7,3-6.7,6.7C119.6,28.6,119.2,29.1,118.6,29.1z"/>
				<path class="st6" d="M131.2,28.1c0,6.9-5.6,12.6-12.6,12.6s-12.6-5.6-12.6-12.6c0-1.4,0.1-2.7,0.4-4c0.1-0.5,0.6-0.9,1.2-0.8
					c0.5,0.1,0.9,0.6,0.8,1.2c-0.2,1.2-0.4,2.4-0.4,3.6c0,5.8,4.7,10.6,10.6,10.6s10.6-4.7,10.6-10.6c0-1.6-1.3-2.8-2.9-2.8
					c-1.6,0-2.8,1.3-2.8,2.8c0,2.7-2.2,4.9-4.9,4.9s-4.9-2.2-4.9-4.9c0-5.3,3.4-10.1,8.4-11.8c0.5-0.2,1.1,0.1,1.3,0.6
					s-0.1,1.1-0.6,1.3c-4.2,1.5-7,5.5-7,10c0,1.6,1.3,2.9,2.9,2.9s2.9-1.3,2.9-2.9c0-2.7,2.2-4.8,4.8-4.8
					C129,23.2,131.2,25.4,131.2,28.1L131.2,28.1z"/>
				<path class="st6" d="M127.4,28.1c0,4.8-3.9,8.7-8.7,8.7s-8.7-3.9-8.7-8.7c0-4.6,1.8-8.8,5.1-11.9c0.4-0.4,1-0.4,1.4,0
					c0.4,0.4,0.4,1,0,1.4c-2.9,2.8-4.5,6.5-4.5,10.5c0,3.7,3,6.7,6.7,6.7s6.7-3,6.7-6.7c0-0.5,0.5-1,1-1S127.4,27.5,127.4,28.1z"/>
			</g>
			<path class="st6" d="M139.7,1.7v26.3c0,11.7-9.5,21.1-21.1,21.1c-11.7,0-21.1-9.5-21.1-21.1V1.8c0.4-0.1,0.8-0.1,1.2-0.2v26.5
				c0,11,8.9,19.9,19.9,19.9s19.9-8.9,19.9-19.9V1.5C138.9,1.6,139.3,1.7,139.7,1.7z"/>
		</g>
		<g>
			<path class="st6" d="M118.9,11.9c0-0.9,0.2-1.6,1.2-1.6c0.8,0,1.2,0.4,1.2,1.5c0,1-0.3,1.6-1.2,1.6
				C119.2,13.5,118.9,12.9,118.9,11.9L118.9,11.9z M119.6,11.9c0,0.2,0,0.4,0,0.5l0.5-1.5c0,0-0.1,0-0.1,0
				C119.7,10.9,119.6,11.2,119.6,11.9z M120.5,11.3l-0.5,1.5c0,0,0.1,0,0.1,0c0.3,0,0.4-0.4,0.4-0.9
				C120.5,11.7,120.5,11.5,120.5,11.3z"/>
			<path class="st6" d="M117.1,12.5c0,0.2,0.1,0.4,0.3,0.4c0.2,0,0.4-0.1,0.6-0.3l0.3,0.5c0,0-0.4,0.4-1.1,0.4
				c-0.6,0-0.9-0.4-0.9-0.9c0-0.6,0.6-1.2,1.1-1.6h-1.2v-0.6h2.2v0.4C117.8,11.1,117.1,11.9,117.1,12.5L117.1,12.5z"/>
		</g>
	</g>
	<g>
		<g>
			<g>
				<path class="st6" d="M41.2,73.8c-0.3,0.5-0.9,0.6-1.4,0.4c-4.2-2.4-5.6-7.7-3.2-11.9c0.2-0.3,0.4-0.6,0.6-0.9
					c0.3-0.4,1-0.5,1.4-0.2c0.4,0.3,0.5,1,0.2,1.4c-0.2,0.2-0.3,0.5-0.5,0.7c-1.9,3.2-0.7,7.3,2.5,9.2
					C41.3,72.7,41.5,73.3,41.2,73.8z"/>
				<path class="st6" d="M46.6,62.4c6,3.5,8.1,11.2,4.6,17.2S40,87.7,34,84.2c-1.2-0.7-2.3-1.5-3.3-2.4c-0.4-0.4-0.5-1-0.1-1.4
					c0.4-0.4,1-0.5,1.4-0.1c0.9,0.8,1.9,1.5,3,2.1c5,2.9,11.5,1.2,14.4-3.9s1.2-11.5-3.9-14.4c-1.4-0.8-3.1-0.3-3.9,1.1
					c-0.8,1.4-0.3,3.1,1,3.9c2.3,1.3,3.1,4.3,1.8,6.6s-4.3,3.1-6.6,1.8c-4.6-2.7-7-8-6.1-13.2c0.1-0.5,0.6-0.9,1.2-0.8
					s0.9,0.6,0.8,1.2c-0.8,4.4,1.2,8.8,5.1,11.1c1.4,0.8,3.1,0.3,3.9-1s0.3-3.1-1-3.9c-2.3-1.3-3.1-4.3-1.8-6.6S44.3,61.1,46.6,62.4
					L46.6,62.4z"/>
				<path class="st6" d="M44.7,65.8c4.2,2.4,5.6,7.7,3.2,11.9s-7.7,5.6-11.9,3.2c-3.9-2.3-6.7-6-7.8-10.4c-0.1-0.5,0.2-1.1,0.7-1.2
					c0.5-0.1,1.1,0.2,1.2,0.7c0.9,3.9,3.3,7.1,6.8,9.1c3.2,1.9,7.3,0.8,9.2-2.5s0.7-7.3-2.5-9.2c-0.5-0.3-0.6-0.9-0.4-1.4
					S44.2,65.5,44.7,65.8z"/>
			</g>
			<path class="st6" d="M28,41.9l22.8,13.2c10.1,5.8,13.6,18.8,7.7,28.9C52.8,94,39.8,97.5,29.7,91.7L6.9,78.5
				c0.1-0.4,0.3-0.8,0.4-1.1l23,13.3c9.5,5.5,21.7,2.2,27.2-7.3s2.2-21.7-7.3-27.2l-23-13.3C27.5,42.5,27.8,42.2,28,41.9L28,41.9z"
				/>
		</g>
		<g>
			<path class="st6" d="M25.6,64.5c-0.8-0.5-1.3-1-0.8-1.9c0.4-0.7,1-0.8,1.9-0.3c0.9,0.5,1.2,1.1,0.8,1.9
				C27.1,65,26.4,65,25.6,64.5z M25.9,63.9c0.2,0.1,0.3,0.2,0.4,0.2l-1-1.2c0,0,0,0.1-0.1,0.1C25.1,63.3,25.3,63.5,25.9,63.9
				L25.9,63.9z M25.8,62.8l1.1,1.2c0,0,0.1-0.1,0.1-0.1c0.2-0.3-0.1-0.6-0.6-0.9C26.2,63,26,62.9,25.8,62.8L25.8,62.8z"/>
			<path class="st6" d="M24.5,64.5l-0.4,0.6l1.6,0.9l0.3-0.5l0.5,0.3L25.9,67l-2.1-1.2l-0.3,0.6l-0.5-0.3l1.1-1.8L24.5,64.5z"/>
		</g>
	</g>
	<g>
		<g>
			<g>
				<path class="st6" d="M41.2,163.2c0.3,0.5,0.1,1.1-0.4,1.4c-4.2,2.4-9.5,1-11.9-3.2c-0.2-0.3-0.3-0.6-0.5-1
					c-0.2-0.5,0-1.1,0.5-1.3c0.5-0.2,1.1,0,1.3,0.5c0.1,0.3,0.2,0.5,0.4,0.8c1.9,3.2,6,4.3,9.2,2.5
					C40.3,162.6,40.9,162.7,41.2,163.2L41.2,163.2z"/>
				<path class="st6" d="M34,152.8c6-3.5,13.7-1.4,17.2,4.6c3.5,6,1.4,13.7-4.6,17.2c-1.2,0.7-2.4,1.2-3.7,1.7
					c-0.5,0.2-1.1-0.1-1.3-0.6c-0.2-0.5,0.1-1.1,0.6-1.3c1.2-0.4,2.3-0.9,3.3-1.5c5-2.9,6.8-9.4,3.9-14.4s-9.4-6.8-14.4-3.9
					c-1.4,0.8-1.8,2.5-1,3.9c0.8,1.4,2.5,1.8,3.9,1c2.3-1.3,5.3-0.5,6.6,1.8s0.5,5.3-1.8,6.6c-4.6,2.7-10.4,2.1-14.4-1.3
					c-0.4-0.4-0.5-1-0.1-1.4s1-0.5,1.4-0.1c3.4,2.9,8.3,3.4,12.1,1.1c1.4-0.8,1.8-2.5,1-3.9s-2.5-1.8-3.9-1
					c-2.3,1.3-5.3,0.5-6.6-1.8S31.7,154.2,34,152.8L34,152.8z"/>
				<path class="st6" d="M36,156.2c4.2-2.4,9.5-1,11.9,3.2s1,9.5-3.2,11.9c-3.9,2.3-8.5,2.8-12.9,1.5c-0.5-0.2-0.8-0.7-0.7-1.2
					c0.2-0.5,0.7-0.8,1.2-0.7c3.8,1.1,7.8,0.7,11.3-1.3c3.2-1.9,4.3-6,2.5-9.2c-1.9-3.2-6-4.3-9.2-2.5c-0.5,0.3-1.1,0.1-1.4-0.4
					S35.5,156.5,36,156.2z"/>
			</g>
			<path class="st6" d="M59.8,168.4c0.3,0.3,0.6,0.6,1,0.8c-1.4,5.2-4.8,9.9-9.8,12.8l-22.8,13.2c-0.3-0.3-0.5-0.6-0.8-0.9l23-13.3
				C55.3,178.2,58.5,173.6,59.8,168.4z"/>
			<path class="st6" d="M30.4,146.5l-23,13.3c-0.1-0.4-0.3-0.8-0.4-1.1l22.8-13.2c10.1-5.8,23-2.4,28.9,7.7c1.6,2.8,2.5,5.7,2.8,8.7
				c-0.4,0.2-0.8,0.4-1.2,0.7c-0.2-3-1-6-2.6-8.7C52.1,144.3,39.9,141,30.4,146.5L30.4,146.5z"/>
		</g>
		<g>
			<path class="st6" d="M25.4,172.1c-0.8,0.5-1.5,0.6-2-0.2c-0.4-0.7-0.2-1.2,0.7-1.8c0.9-0.5,1.6-0.5,2,0.2
				C26.5,171.1,26.2,171.6,25.4,172.1z M25,171.5c0.2-0.1,0.3-0.2,0.4-0.3l-1.5,0.3c0,0,0,0.1,0,0.1C24.1,171.9,24.4,171.8,25,171.5
				z M24,171.1l1.6-0.3c0,0,0-0.1-0.1-0.1c-0.2-0.3-0.5-0.2-1,0.1C24.3,170.8,24.1,170.9,24,171.1L24,171.1z"/>
			<path class="st6" d="M26.8,174.5c-0.8,0.5-1.5,0.6-2-0.2c-0.4-0.7-0.2-1.2,0.7-1.8c0.9-0.5,1.6-0.5,2,0.2
				C27.9,173.5,27.6,174.1,26.8,174.5z M26.4,173.9c0.2-0.1,0.3-0.2,0.4-0.3l-1.5,0.3c0,0,0,0.1,0,0.1
				C25.5,174.3,25.8,174.2,26.4,173.9z M25.4,173.5l1.6-0.3c0,0,0-0.1-0.1-0.1c-0.2-0.3-0.5-0.2-1,0.1
				C25.7,173.3,25.5,173.4,25.4,173.5L25.4,173.5z"/>
		</g>
	</g>
	<g>
		<g>
			<g>
				<path class="st6" d="M196.1,73.8c-0.3-0.5-0.1-1.1,0.4-1.4c4.2-2.4,9.5-1,11.9,3.2c0.2,0.3,0.3,0.6,0.5,1c0.2,0.5,0,1.1-0.5,1.3
					c-0.5,0.2-1.1,0-1.3-0.5c-0.1-0.3-0.2-0.5-0.4-0.8c-1.9-3.2-6-4.3-9.2-2.5C197,74.4,196.4,74.3,196.1,73.8L196.1,73.8z"/>
				<path class="st6" d="M203.2,84.2c-6,3.5-13.7,1.4-17.2-4.6s-1.4-13.7,4.6-17.2c1.2-0.7,2.4-1.2,3.7-1.7c0.5-0.2,1.1,0.1,1.3,0.6
					c0.2,0.5-0.1,1.1-0.6,1.3c-1.2,0.4-2.3,0.9-3.3,1.5c-5,2.9-6.8,9.4-3.9,14.4s9.4,6.8,14.4,3.9c1.4-0.8,1.8-2.5,1-3.9
					c-0.8-1.4-2.5-1.8-3.9-1c-2.3,1.3-5.3,0.5-6.6-1.8s-0.5-5.3,1.8-6.6c4.6-2.7,10.4-2.1,14.4,1.3c0.4,0.4,0.5,1,0.1,1.4
					s-1,0.5-1.4,0.1c-3.4-2.9-8.3-3.4-12.1-1.1c-1.4,0.8-1.8,2.5-1,3.9s2.5,1.8,3.9,1c2.3-1.3,5.3-0.5,6.6,1.8
					S205.5,82.9,203.2,84.2z"/>
				<path class="st6" d="M201.3,80.8c-4.2,2.4-9.5,1-11.9-3.2s-1-9.5,3.2-11.9c3.9-2.3,8.5-2.8,12.9-1.5c0.5,0.2,0.8,0.7,0.7,1.2
					c-0.2,0.5-0.7,0.8-1.2,0.7c-3.8-1.1-7.8-0.7-11.3,1.3c-3.2,1.9-4.3,6-2.5,9.2s6,4.3,9.2,2.5c0.5-0.3,1.1-0.1,1.4,0.4
					S201.8,80.6,201.3,80.8L201.3,80.8z"/>
			</g>
			<path class="st6" d="M230.3,78.4l-22.8,13.2c-10.1,5.8-23,2.4-28.9-7.7c-5.8-10.1-2.4-23,7.7-28.9l22.8-13.2
				c0.3,0.3,0.5,0.6,0.8,0.9l-23,13.3c-9.5,5.5-12.8,17.7-7.3,27.2c5.5,9.5,17.7,12.8,27.2,7.3l23-13.3
				C230,77.6,230.2,78,230.3,78.4L230.3,78.4z"/>
		</g>
		<g>
			<path class="st6" d="M211.9,64.9c0.8-0.5,1.5-0.6,2,0.2c0.4,0.7,0.2,1.2-0.7,1.8c-0.9,0.5-1.6,0.5-2-0.2
				C210.8,66,211.1,65.4,211.9,64.9z M213.3,66l-1.6,0.3c0,0,0,0.1,0.1,0.1c0.2,0.3,0.5,0.2,1-0.1C213,66.2,213.1,66.1,213.3,66z
				 M212.3,65.5c-0.2,0.1-0.3,0.2-0.4,0.3l1.5-0.3c0,0,0-0.1,0-0.1C213.2,65.1,212.9,65.2,212.3,65.5L212.3,65.5z"/>
			<path class="st6" d="M210.8,63.2c-0.1-0.4,0-0.8,0.4-1c0.3-0.2,0.9-0.2,1.3,0.5c0.3,0.4,0.3,0.9,0.2,1.1l-0.7,0
				c0-0.2,0.1-0.5-0.1-0.8c-0.1-0.2-0.3-0.3-0.4-0.2c-0.3,0.2-0.2,0.6,0,1l-0.4,0.2c-0.2-0.4-0.6-0.6-0.8-0.5
				c-0.2,0.1-0.2,0.3-0.1,0.4c0.1,0.2,0.3,0.3,0.5,0.3l-0.3,0.5c0,0-0.5-0.1-0.9-0.7c-0.3-0.5-0.2-0.9,0.2-1.2
				C210.2,62.9,210.6,63,210.8,63.2L210.8,63.2z"/>
		</g>
	</g>
	<g>
		<g>
			<g>
				<path class="st6" d="M196.1,163.2c0.3-0.5,0.9-0.6,1.4-0.4c4.2,2.4,5.6,7.7,3.2,11.9c-0.2,0.3-0.4,0.6-0.6,0.9
					c-0.3,0.4-1,0.5-1.4,0.2c-0.4-0.3-0.5-1-0.2-1.4c0.2-0.2,0.3-0.5,0.5-0.7c1.9-3.2,0.7-7.3-2.5-9.2
					C196,164.3,195.8,163.7,196.1,163.2L196.1,163.2z"/>
				<path class="st6" d="M190.7,174.6c-6-3.5-8.1-11.2-4.6-17.2c3.5-6,11.2-8.1,17.2-4.6c1.2,0.7,2.3,1.5,3.3,2.4
					c0.4,0.4,0.5,1,0.1,1.4c-0.4,0.4-1,0.5-1.4,0.1c-0.9-0.8-1.9-1.5-3-2.1c-5-2.9-11.5-1.2-14.4,3.9s-1.2,11.5,3.9,14.4
					c1.4,0.8,3.1,0.3,3.9-1.1c0.8-1.4,0.3-3.1-1-3.9c-2.3-1.3-3.1-4.3-1.8-6.6s4.3-3.1,6.6-1.8c4.6,2.7,7,8,6.1,13.2
					c-0.1,0.5-0.6,0.9-1.2,0.8s-0.9-0.6-0.8-1.2c0.8-4.4-1.2-8.8-5.1-11.1c-1.4-0.8-3.1-0.3-3.9,1s-0.3,3.1,1,3.9
					c2.3,1.3,3.1,4.3,1.8,6.6S193,175.9,190.7,174.6L190.7,174.6z"/>
				<path class="st6" d="M192.6,171.3c-4.2-2.4-5.6-7.7-3.2-11.9s7.7-5.6,11.9-3.2c3.9,2.3,6.7,6,7.8,10.4c0.1,0.5-0.2,1.1-0.7,1.2
					c-0.5,0.1-1.1-0.2-1.2-0.7c-0.9-3.9-3.3-7.1-6.8-9.1c-3.2-1.9-7.3-0.8-9.2,2.5s-0.7,7.3,2.5,9.2c0.5,0.3,0.6,0.9,0.4,1.4
					S193.1,171.5,192.6,171.3L192.6,171.3z"/>
			</g>
			<path class="st6" d="M187,180.9l23,13.3c-0.3,0.3-0.5,0.6-0.8,0.9L186.4,182c-5-2.9-8.4-7.5-9.8-12.7c0.4-0.2,0.7-0.5,1-0.9
				C178.9,173.4,182.1,178.1,187,180.9z"/>
			<path class="st6" d="M230.4,158.5c-0.1,0.4-0.3,0.8-0.4,1.1l-23-13.3c-9.5-5.5-21.7-2.2-27.2,7.3c-1.6,2.8-2.5,5.9-2.6,9
				c-0.3-0.3-0.7-0.5-1.2-0.7c0.2-3,1.1-6.1,2.8-8.9c5.8-10.1,18.8-13.6,28.9-7.7L230.4,158.5z"/>
		</g>
		<g>
			<path class="st6" d="M211.7,172.5c0.8,0.5,1.3,1,0.8,1.9c-0.4,0.7-1,0.8-1.9,0.3c-0.9-0.5-1.2-1.1-0.8-1.9
				C210.2,172,210.9,172,211.7,172.5z M211.5,174.2l-1.1-1.2c0,0-0.1,0.1-0.1,0.1c-0.2,0.3,0.1,0.6,0.6,0.9
				C211.1,174,211.3,174.1,211.5,174.2z M211.3,173.1c-0.2-0.1-0.3-0.2-0.4-0.2l1,1.2c0,0,0-0.1,0.1-0.1
				C212.2,173.7,211.9,173.5,211.3,173.1z"/>
			<path class="st6" d="M214.3,171.2l-0.4,0.6l-0.5-0.3l-0.6,1.1l-0.4-0.2l-1.1-2.1l0.4-0.6l1.6,0.9l0.2-0.3l0.5,0.3l-0.2,0.3
				L214.3,171.2z M212.9,171.2l-0.8-0.5l0.6,1L212.9,171.2L212.9,171.2z"/>
		</g>
	</g>
</g>
</svg>
