<?xml version="1.0" encoding="UTF-8"?>
<svg id="Layer_2" data-name="Layer 2" xmlns="http://www.w3.org/2000/svg" viewBox="0 0 237.28 235.89">
  <defs>
    <style>
      .cls-1 {
        fill: #f8e6b7;
      }

      .cls-2 {
        fill: #eba900;
      }

      .cls-3 {
        fill: #eaa800;
      }

      .cls-4 {
        fill: #fff;
      }

      .cls-5 {
        fill: #7f8c8d;
      }

      .cls-6 {
        fill: #8b7866;
      }

      .cls-7 {
        fill: #9e846d;
      }

      .cls-8 {
        fill: #bcc3c4;
      }

      .cls-9 {
        fill: #bdab9c;
      }

      .cls-10 {
        fill: #d6dadb;
      }

      .cls-11 {
        fill: #3f4642;
      }

      .cls-12 {
        fill: #2a312d;
      }

      .cls-13 {
        fill: #555a57;
      }
    </style>
  </defs>
  <g id="Carrier">
    <path class="cls-11" d="M125.07,0V1.34c0,2.29-1.86,4.15-4.16,4.15h-4.54c-2.3,0-4.16-1.86-4.16-4.15V0C49.68,3.34,0,55.11,0,118.47c0,59.74,44.16,109.17,101.61,117.42,4.09-4.83,10.2-7.89,17.03-7.89s12.95,3.06,17.04,7.89c57.45-8.26,101.6-57.69,101.6-117.42C237.28,55.11,187.6,3.34,125.07,0Zm-59.02,216.63c-.98,1.69-3.14,2.27-4.83,1.29-1.69-.97-2.27-3.13-1.29-4.82,.97-1.69,3.13-2.27,4.82-1.3,1.69,.98,2.27,3.14,1.3,4.83Zm-1.3-191.5c-1.69,.98-3.85,.4-4.82-1.29-.98-1.69-.4-3.85,1.29-4.83,1.69-.97,3.85-.39,4.83,1.3,.97,1.69,.39,3.85-1.3,4.82Zm32.38,185.81c-1.6,2.94-4.67,4.76-8.01,4.76s-6.42-1.82-8.01-4.77c-.36-.66-.11-1.49,.55-1.86,.67-.37,1.5-.12,1.87,.55,1.11,2.05,3.25,3.33,5.59,3.33s4.47-1.28,5.59-3.33c.37-.67,1.21-.92,1.87-.55,.67,.37,.91,1.2,.55,1.87Zm58.51,4.59c-.67,.37-1.51,.12-1.87-.56-1.12-2.04-3.25-3.32-5.59-3.32s-4.48,1.28-5.6,3.33c-.37,.67-1.2,.92-1.86,.55-.67-.37-.91-1.2-.55-1.87,1.6-2.94,4.67-4.76,8.01-4.76s6.42,1.82,8.01,4.77c.36,.66,.11,1.49-.55,1.86Zm74.31-93.53c-1.95,0-3.53-1.58-3.53-3.53s1.58-3.53,3.53-3.53,3.53,1.58,3.53,3.53-1.58,3.53-3.53,3.53Z"/>
    <path class="cls-13" d="M52.29,20.12C22.89,39.98,2.87,72.68,.29,110.18l53.72,3.76c.45-6.7,1.97-13.4,4.6-19.85-.18-.09-.36-.18-.54-.28-4.3-2.49-5.78-7.99-3.29-12.3,2.48-4.3,7.99-5.78,12.29-3.29,.18,.1,.36,.22,.53,.34,4.25-5.47,9.27-10.09,14.81-13.81L52.29,20.12Z"/>
    <path class="cls-13" d="M236.98,110.18c-2.5-35.39-20.81-69.08-51.99-90.06l-30.12,44.64c5.58,3.74,10.62,8.41,14.89,13.91,.17-.11,.34-.22,.51-.33,4.31-2.48,9.81-1.01,12.3,3.3,2.48,4.3,1.01,9.81-3.3,12.29-.18,.11-.37,.2-.56,.29,2.61,6.42,4.1,13.07,4.55,19.73l53.71-3.77Z"/>
    <path class="cls-13" d="M184.99,216.81c29.4-19.86,49.42-52.56,52-90.06l-53.72-3.76c-.45,6.7-1.97,13.4-4.6,19.85,.18,.09,.36,.18,.54,.28,4.3,2.49,5.78,7.99,3.29,12.3-2.48,4.3-7.99,5.78-12.29,3.29-.18-.1-.36-.22-.53-.34-4.25,5.47-9.27,10.09-14.81,13.81l30.12,44.63Z"/>
    <path class="cls-13" d="M.3,126.75c2.5,35.39,20.81,69.08,51.99,90.06l30.12-44.64c-5.58-3.74-10.62-8.41-14.89-13.91-.17,.11-.34,.22-.51,.33-4.31,2.48-9.81,1.01-12.3-3.3-2.48-4.3-1.01-9.81,3.3-12.29,.18-.11,.37-.2,.56-.29-2.61-6.42-4.1-13.07-4.55-19.73L.3,126.75Z"/>
    <path class="cls-13" d="M170.65,11.81l-23.61,48.42c-5.99-2.94-12.5-4.97-19.36-5.92,.02-.21,.03-.42,.03-.63,0-4.97-4.03-9-9-9s-9,4.03-9,9c0,.21,.01,.41,.02,.61-6.9,.95-13.46,2.98-19.49,5.94L66.63,11.81C80.52,5.02,95.93,.87,112.21,0V1.34c0,2.29,1.86,4.15,4.16,4.15h4.54c2.3,0,4.16-1.86,4.16-4.15V0c16.28,.87,31.69,5.02,45.58,11.81Z"/>
    <g>
      <path class="cls-5" d="M117.67,60.21c0-.25-.05-.49-.14-.72h2.22c-.09,.22-.14,.47-.14,.72s.05,.5,.14,.73h-2.23c.09-.22,.14-.47,.14-.73Z"/>
      <path class="cls-10" d="M119.61,60.21c0-.25,.05-.49,.14-.72h.37v1.44h-.36c-.09-.22-.14-.47-.14-.73Z"/>
      <path class="cls-10" d="M117.17,60.94v-1.44h.36c.09,.22,.14,.47,.14,.72s-.05,.5-.14,.73h-.35Z"/>
    </g>
    <g>
      <rect class="cls-10" x="115.19" y="53.02" width="1.84" height="1.32"/>
      <rect class="cls-10" x="115.19" y="50.49" width="1.84" height="1.32"/>
      <rect class="cls-10" x="115.19" y="55.56" width="1.84" height="1.32"/>
      <rect class="cls-10" x="120.26" y="53.02" width="1.84" height="1.32"/>
      <rect class="cls-10" x="120.26" y="50.49" width="1.84" height="1.32"/>
      <rect class="cls-10" x="120.26" y="55.56" width="1.84" height="1.32"/>
      <rect class="cls-7" x="116.11" y="51.15" width="5.07" height="5.07"/>
      <rect class="cls-9" x="117.02" y="52.07" width="3.24" height="3.24"/>
      <circle class="cls-4" cx="118.64" cy="53.68" r="1.83"/>
    </g>
    <g>
      <path class="cls-5" d="M168.6,88.49c.22-.13,.4-.29,.55-.48l1.11,1.92c-.24,.04-.47,.12-.69,.24s-.41,.29-.56,.49l-1.11-1.93c.24-.03,.48-.11,.7-.24Z"/>
      <path class="cls-10" d="M169.57,90.18c.22-.13,.45-.21,.69-.24l.18,.32-1.25,.72-.18-.31c.15-.19,.33-.36,.56-.49Z"/>
      <path class="cls-10" d="M167.73,88.43l1.25-.72,.18,.31c-.15,.19-.34,.35-.55,.48s-.46,.21-.7,.24l-.18-.31Z"/>
    </g>
    <g>
      <rect class="cls-10" x="172.56" y="83.22" width="1.84" height="1.32" transform="translate(159.38 -108.3) rotate(60)"/>
      <rect class="cls-10" x="174.75" y="81.95" width="1.84" height="1.32" transform="translate(159.38 -110.83) rotate(60)"/>
      <rect class="cls-10" x="170.36" y="84.49" width="1.84" height="1.32" transform="translate(159.38 -105.76) rotate(60)"/>
      <rect class="cls-10" x="175.09" y="87.61" width="1.84" height="1.32" transform="translate(164.45 -108.3) rotate(60)"/>
      <rect class="cls-10" x="177.29" y="86.34" width="1.84" height="1.32" transform="translate(164.45 -110.83) rotate(60)"/>
      <rect class="cls-10" x="172.9" y="88.88" width="1.84" height="1.32" transform="translate(164.45 -105.76) rotate(60)"/>
      <rect class="cls-7" x="172.21" y="83.54" width="5.07" height="5.07" transform="translate(161.91 -108.3) rotate(60)"/>
      <rect class="cls-9" x="173.13" y="84.46" width="3.24" height="3.24" transform="translate(161.91 -108.3) rotate(60)"/>
      <circle class="cls-4" cx="174.74" cy="86.07" r="1.83"/>
    </g>
    <g>
      <path class="cls-5" d="M169.58,146.75c.22,.13,.45,.21,.69,.24l-1.11,1.92c-.15-.19-.34-.35-.55-.48s-.46-.21-.7-.24l1.11-1.93c.15,.19,.33,.36,.56,.49Z"/>
      <path class="cls-10" d="M168.61,148.43c.22,.13,.4,.29,.55,.48l-.18,.32-1.25-.72,.18-.31c.24,.03,.48,.11,.7,.24Z"/>
      <path class="cls-10" d="M169.2,145.95l1.25,.72-.18,.31c-.24-.04-.47-.12-.69-.24s-.41-.29-.56-.49l.18-.31Z"/>
    </g>
    <g>
      <rect class="cls-10" x="175.09" y="148" width="1.84" height="1.32" transform="translate(392.76 70.56) rotate(120)"/>
      <rect class="cls-10" x="177.29" y="149.27" width="1.84" height="1.32" transform="translate(397.16 70.56) rotate(120)"/>
      <rect class="cls-10" x="172.9" y="146.73" width="1.84" height="1.32" transform="translate(388.37 70.56) rotate(120)"/>
      <rect class="cls-10" x="172.56" y="152.39" width="1.84" height="1.32" transform="translate(392.76 79.34) rotate(120)"/>
      <rect class="cls-10" x="174.75" y="153.66" width="1.84" height="1.32" transform="translate(397.16 79.34) rotate(120)"/>
      <rect class="cls-10" x="170.36" y="151.13" width="1.84" height="1.32" transform="translate(388.37 79.34) rotate(120)"/>
      <rect class="cls-7" x="172.21" y="148.32" width="5.07" height="5.07" transform="translate(392.76 74.95) rotate(120)"/>
      <rect class="cls-9" x="173.13" y="149.24" width="3.24" height="3.24" transform="translate(392.76 74.95) rotate(120)"/>
      <circle class="cls-4" cx="174.75" cy="150.86" r="1.83"/>
    </g>
    <g>
      <path class="cls-5" d="M67.71,90.18c-.22-.13-.45-.21-.69-.24l1.11-1.92c.15,.19,.34,.35,.55,.48s.46,.21,.7,.24l-1.11,1.93c-.15-.19-.33-.36-.56-.49Z"/>
      <path class="cls-10" d="M68.68,88.5c-.22-.13-.4-.29-.55-.48l.18-.32,1.25,.72-.18,.31c-.24-.03-.48-.11-.7-.24Z"/>
      <path class="cls-10" d="M68.09,90.97l-1.25-.72,.18-.31c.24,.04,.47,.12,.69,.24s.41,.29,.56,.49l-.18,.31Z"/>
    </g>
    <g>
      <rect class="cls-10" x="60.35" y="87.61" width="1.84" height="1.32" transform="translate(-45.81 97.2) rotate(-60)"/>
      <rect class="cls-10" x="58.16" y="86.34" width="1.84" height="1.32" transform="translate(-45.81 94.66) rotate(-60)"/>
      <rect class="cls-10" x="62.55" y="88.88" width="1.84" height="1.32" transform="translate(-45.81 99.73) rotate(-60)"/>
      <rect class="cls-10" x="62.89" y="83.22" width="1.84" height="1.32" transform="translate(-40.74 97.2) rotate(-60)"/>
      <rect class="cls-10" x="60.69" y="81.95" width="1.84" height="1.32" transform="translate(-40.74 94.66) rotate(-60)"/>
      <rect class="cls-10" x="65.09" y="84.49" width="1.84" height="1.32" transform="translate(-40.74 99.73) rotate(-60)"/>
      <rect class="cls-7" x="60" y="83.54" width="5.07" height="5.07" transform="translate(-43.27 97.2) rotate(-60)"/>
      <rect class="cls-9" x="60.92" y="84.46" width="3.24" height="3.24" transform="translate(-43.27 97.2) rotate(-60)"/>
      <circle class="cls-4" cx="62.54" cy="86.07" r="1.83"/>
    </g>
    <g>
      <path class="cls-5" d="M68.68,148.44c-.22,.13-.4,.29-.55,.48l-1.11-1.92c.24-.04,.47-.12,.69-.24s.41-.29,.56-.49l1.11,1.93c-.24,.03-.48,.11-.7,.24Z"/>
      <path class="cls-10" d="M67.71,146.75c-.22,.13-.45,.21-.69,.24l-.18-.32,1.25-.72,.18,.31c-.15,.19-.33,.36-.56,.49Z"/>
      <path class="cls-10" d="M69.56,148.5l-1.25,.72-.18-.31c.15-.19,.34-.35,.55-.48s.46-.21,.7-.24l.18,.31Z"/>
    </g>
    <g>
      <rect class="cls-10" x="62.89" y="152.4" width="1.84" height="1.32" transform="translate(-36.84 284.84) rotate(-120)"/>
      <rect class="cls-10" x="60.69" y="153.66" width="1.84" height="1.32" transform="translate(-41.23 284.84) rotate(-120)"/>
      <rect class="cls-10" x="65.09" y="151.13" width="1.84" height="1.32" transform="translate(-32.44 284.84) rotate(-120)"/>
      <rect class="cls-10" x="60.35" y="148" width="1.84" height="1.32" transform="translate(-36.84 276.05) rotate(-120)"/>
      <rect class="cls-10" x="58.16" y="149.27" width="1.84" height="1.32" transform="translate(-41.23 276.05) rotate(-120)"/>
      <rect class="cls-10" x="62.55" y="146.73" width="1.84" height="1.32" transform="translate(-32.44 276.05) rotate(-120)"/>
      <rect class="cls-7" x="60" y="148.32" width="5.07" height="5.07" transform="translate(-36.84 280.45) rotate(-120)"/>
      <rect class="cls-9" x="60.92" y="149.24" width="3.24" height="3.24" transform="translate(-36.84 280.45) rotate(-120)"/>
      <circle class="cls-4" cx="62.54" cy="150.86" r="1.83"/>
    </g>
    <circle class="cls-7" cx="62.81" cy="165.71" r="3.27"/>
    <circle class="cls-7" cx="18.73" cy="165.71" r="3.27"/>
    <circle class="cls-7" cx="174.47" cy="165.71" r="3.27"/>
    <circle class="cls-7" cx="218.56" cy="165.71" r="3.27"/>
    <g id="Artwork_3" data-name="Artwork 3">
      <rect class="cls-5" x="104.15" y="217.94" width="1.4" height="1.4" rx=".02" ry=".02"/>
      <rect class="cls-5" x="104.15" y="216.4" width="1.4" height="1.4" rx=".02" ry=".02"/>
      <path class="cls-8" d="M104.26,217.3h0s0,.57,0,.57v.05s0,.57,0,.57h0c.01,.31,.27,.56,.58,.56s.57-.25,.58-.56h0s0-.57,0-.57v-.05s0-.57,0-.57c0-.32-.26-.59-.59-.59s-.59,.26-.59,.59Z"/>
      <rect class="cls-12" x="104.26" y="217.43" width="1.17" height=".87"/>
    </g>
    <g id="Artwork_3-2" data-name="Artwork 3">
      <rect class="cls-5" x="98.37" y="198.83" width="1.4" height="1.4" rx=".02" ry=".02"/>
      <rect class="cls-5" x="99.91" y="198.83" width="1.4" height="1.4" rx=".02" ry=".02"/>
      <path class="cls-8" d="M100.41,198.94h0s-.57,0-.57,0h-.05s-.57,0-.57,0h0c-.31,.02-.56,.27-.56,.59s.25,.57,.56,.58h0s.57,0,.57,0h.05s.57,0,.57,0c.32,0,.59-.26,.59-.59s-.26-.59-.59-.59Z"/>
      <rect class="cls-12" x="99.41" y="198.94" width=".87" height="1.17"/>
    </g>
    <g id="Artwork_3-3" data-name="Artwork 3">
      <rect class="cls-5" x="84.12" y="193.77" width="1.4" height="1.4" rx=".02" ry=".02"/>
      <rect class="cls-5" x="85.66" y="193.77" width="1.4" height="1.4" rx=".02" ry=".02"/>
      <path class="cls-8" d="M86.16,193.89h0s-.57,0-.57,0h-.05s-.57,0-.57,0h0c-.31,.02-.56,.27-.56,.59s.25,.57,.56,.58h0s.57,0,.57,0h.05s.57,0,.57,0c.32,0,.59-.26,.59-.59s-.26-.59-.59-.59Z"/>
      <rect class="cls-12" x="85.16" y="193.89" width=".87" height="1.17"/>
    </g>
    <g id="Artwork_3-4" data-name="Artwork 3">
      <rect class="cls-5" x="98.37" y="202.05" width="1.4" height="1.4" rx=".02" ry=".02"/>
      <rect class="cls-5" x="99.91" y="202.05" width="1.4" height="1.4" rx=".02" ry=".02"/>
      <path class="cls-8" d="M100.41,202.17h0s-.57,0-.57,0h-.05s-.57,0-.57,0h0c-.31,.02-.56,.27-.56,.59s.25,.57,.56,.58h0s.57,0,.57,0h.05s.57,0,.57,0c.32,0,.59-.26,.59-.59s-.26-.59-.59-.59Z"/>
      <rect class="cls-12" x="99.41" y="202.17" width=".87" height="1.17"/>
    </g>
    <g id="Artwork_3-5" data-name="Artwork 3">
      <rect class="cls-5" x="106.74" y="217.94" width="1.4" height="1.4" rx=".02" ry=".02"/>
      <rect class="cls-5" x="106.74" y="216.4" width="1.4" height="1.4" rx=".02" ry=".02"/>
      <path class="cls-8" d="M106.85,217.3h0s0,.57,0,.57v.05s0,.57,0,.57h0c.01,.31,.27,.56,.58,.56s.57-.25,.58-.56h0s0-.57,0-.57v-.05s0-.57,0-.57c0-.32-.26-.59-.59-.59s-.59,.26-.59,.59Z"/>
      <rect class="cls-12" x="106.85" y="217.43" width="1.17" height=".87"/>
    </g>
    <g>
      <rect class="cls-10" x="109.9" y="212.05" width="3.6" height="9.2" transform="translate(223.4 433.29) rotate(180)"/>
      <circle class="cls-2" cx="111.7" cy="216.65" r="2.69"/>
    </g>
    <g>
      <rect class="cls-10" x="123.79" y="212.05" width="3.6" height="9.2"/>
      <circle class="cls-2" cx="125.59" cy="216.65" r="2.69"/>
    </g>
    <g id="Artwork_3-6" data-name="Artwork 3">
      <rect class="cls-5" x="131.74" y="217.94" width="1.4" height="1.4" rx=".02" ry=".02"/>
      <rect class="cls-5" x="131.74" y="216.4" width="1.4" height="1.4" rx=".02" ry=".02"/>
      <path class="cls-8" d="M133.02,217.3h0s0,.57,0,.57v.05s0,.57,0,.57h0c-.01,.31-.27,.56-.58,.56s-.57-.25-.58-.56h0s0-.57,0-.57v-.05s0-.57,0-.57c0-.32,.26-.59,.59-.59s.59,.26,.59,.59Z"/>
      <rect class="cls-12" x="131.85" y="217.43" width="1.17" height=".87"/>
    </g>
    <g id="Artwork_3-7" data-name="Artwork 3">
      <rect class="cls-5" x="139.05" y="226.8" width="1.4" height="1.4" rx=".02" ry=".02"/>
      <rect class="cls-5" x="139.05" y="225.26" width="1.4" height="1.4" rx=".02" ry=".02"/>
      <path class="cls-8" d="M140.34,226.16h0s0,.57,0,.57v.05s0,.57,0,.57h0c-.01,.31-.27,.56-.58,.56s-.57-.25-.58-.56h0s0-.57,0-.57v-.05s0-.57,0-.57c0-.32,.26-.59,.59-.59s.59,.26,.59,.59Z"/>
      <rect class="cls-12" x="139.16" y="226.29" width="1.17" height=".87"/>
    </g>
    <g id="Artwork_3-8" data-name="Artwork 3">
      <rect class="cls-5" x="156.85" y="226.8" width="1.4" height="1.4" rx=".02" ry=".02"/>
      <rect class="cls-5" x="156.85" y="225.26" width="1.4" height="1.4" rx=".02" ry=".02"/>
      <path class="cls-8" d="M158.14,226.16h0s0,.57,0,.57v.05s0,.57,0,.57h0c-.01,.31-.27,.56-.58,.56s-.57-.25-.58-.56h0s0-.57,0-.57v-.05s0-.57,0-.57c0-.32,.26-.59,.59-.59s.59,.26,.59,.59Z"/>
      <rect class="cls-12" x="156.97" y="226.29" width="1.17" height=".87"/>
    </g>
    <g id="Artwork_3-9" data-name="Artwork 3">
      <rect class="cls-5" x="154.46" y="221.98" width="1.4" height="1.4" rx=".02" ry=".02"/>
      <rect class="cls-5" x="154.46" y="220.44" width="1.4" height="1.4" rx=".02" ry=".02"/>
      <path class="cls-8" d="M155.74,221.34h0s0,.57,0,.57v.05s0,.57,0,.57h0c-.01,.31-.27,.56-.58,.56s-.57-.25-.58-.56h0s0-.57,0-.57v-.05s0-.57,0-.57c0-.32,.26-.59,.59-.59s.59,.26,.59,.59Z"/>
      <rect class="cls-12" x="154.57" y="221.47" width="1.17" height=".87"/>
    </g>
    <g id="Artwork_3-10" data-name="Artwork 3">
      <rect class="cls-5" x="129.14" y="217.94" width="1.4" height="1.4" rx=".02" ry=".02"/>
      <rect class="cls-5" x="129.14" y="216.4" width="1.4" height="1.4" rx=".02" ry=".02"/>
      <path class="cls-8" d="M130.43,217.3h0s0,.57,0,.57v.05s0,.57,0,.57h0c-.01,.31-.27,.56-.58,.56s-.57-.25-.58-.56h0s0-.57,0-.57v-.05s0-.57,0-.57c0-.32,.26-.59,.59-.59s.59,.26,.59,.59Z"/>
      <rect class="cls-12" x="129.26" y="217.43" width="1.17" height=".87"/>
    </g>
    <g>
      <rect class="cls-12" x="86.72" y="198.35" width="7.17" height="5.91"/>
      <rect class="cls-12" x="83.14" y="198.35" width="2.75" height="5.91"/>
      <g>
        <circle class="cls-1" cx="91.8" cy="201.3" r="1.08"/>
        <path class="cls-3" d="M91.8,200.55c-.42,0-.76,.34-.76,.76s.34,.76,.76,.76,.76-.34,.76-.76-.34-.76-.76-.76Zm0,1.28c-.29,0-.52-.23-.52-.52s.23-.51,.52-.51,.52,.23,.52,.51-.23,.52-.52,.52Z"/>
      </g>
      <g>
        <circle class="cls-1" cx="84.51" cy="201.3" r="1.08"/>
        <path class="cls-3" d="M84.51,200.55c-.42,0-.76,.34-.76,.76s.34,.76,.76,.76,.76-.34,.76-.76-.34-.76-.76-.76Zm0,1.28c-.29,0-.52-.23-.52-.52s.23-.51,.52-.51,.52,.23,.52,.51-.23,.52-.52,.52Z"/>
      </g>
    </g>
    <circle class="cls-7" cx="151.17" cy="96.89" r="3.23"/>
    <circle class="cls-7" cx="101.8" cy="87" r="3.23"/>
    <circle class="cls-7" cx="92.64" cy="136.88" r="3.23"/>
    <g id="Artwork_3-11" data-name="Artwork 3">
      <rect class="cls-5" x="86.83" y="102.33" width="1.4" height="1.4" rx=".02" ry=".02"/>
      <rect class="cls-5" x="88.37" y="102.33" width="1.4" height="1.4" rx=".02" ry=".02"/>
      <path class="cls-8" d="M88.88,103.61h0s-.57,0-.57,0h-.05s-.57,0-.57,0h0c-.31-.02-.56-.27-.56-.59s.25-.57,.56-.58h0s.57,0,.57,0h.05s.57,0,.57,0c.32,0,.59,.26,.59,.59s-.26,.59-.59,.59Z"/>
      <rect class="cls-12" x="87.87" y="102.44" width=".87" height="1.17"/>
    </g>
    <g id="Artwork_3-12" data-name="Artwork 3">
      <rect class="cls-5" x="137.43" y="124.69" width="1.4" height="1.4" rx=".02" ry=".02"/>
      <rect class="cls-5" x="137.43" y="126.22" width="1.4" height="1.4" rx=".02" ry=".02"/>
      <path class="cls-8" d="M137.54,126.73h0s0-.57,0-.57v-.05s0-.57,0-.57h0c.01-.31,.27-.56,.58-.56s.57,.25,.58,.56h0s0,.57,0,.57v.05s0,.57,0,.57c0,.32-.26,.59-.59,.59s-.59-.26-.59-.59Z"/>
      <rect class="cls-12" x="137.54" y="125.73" width="1.17" height=".87"/>
    </g>
    <g id="Artwork_3-13" data-name="Artwork 3">
      <rect class="cls-5" x="133.79" y="124.69" width="1.4" height="1.4" rx=".02" ry=".02"/>
      <rect class="cls-5" x="133.79" y="126.22" width="1.4" height="1.4" rx=".02" ry=".02"/>
      <path class="cls-8" d="M133.9,126.73h0s0-.57,0-.57v-.05s0-.57,0-.57h0c.01-.31,.27-.56,.58-.56s.57,.25,.58,.56h0s0,.57,0,.57v.05s0,.57,0,.57c0,.32-.26,.59-.59,.59s-.59-.26-.59-.59Z"/>
      <rect class="cls-12" x="133.9" y="125.73" width="1.17" height=".87"/>
    </g>
    <g id="Artwork_3-14" data-name="Artwork 3">
      <rect class="cls-5" x="109.26" y="127.66" width="1.4" height="1.4" rx=".02" ry=".02"/>
      <rect class="cls-5" x="110.8" y="127.66" width="1.4" height="1.4" rx=".02" ry=".02"/>
      <path class="cls-8" d="M111.3,128.95h0s-.57,0-.57,0h-.05s-.57,0-.57,0h0c-.31-.02-.56-.27-.56-.59s.25-.57,.56-.58h0s.57,0,.57,0h.05s.57,0,.57,0c.32,0,.59,.26,.59,.59s-.26,.59-.59,.59Z"/>
      <rect class="cls-12" x="110.3" y="127.78" width=".87" height="1.17"/>
    </g>
    <g id="Artwork_3-15" data-name="Artwork 3">
      <rect class="cls-5" x="127.26" y="119.31" width="1.4" height="1.4" rx=".02" ry=".02"/>
      <rect class="cls-5" x="128.8" y="119.31" width="1.4" height="1.4" rx=".02" ry=".02"/>
      <path class="cls-8" d="M129.3,120.59h0s-.57,0-.57,0h-.05s-.57,0-.57,0h0c-.31-.02-.56-.27-.56-.59s.25-.57,.56-.58h0s.57,0,.57,0h.05s.57,0,.57,0c.32,0,.59,.26,.59,.59s-.26,.59-.59,.59Z"/>
      <rect class="cls-12" x="128.3" y="119.42" width=".87" height="1.17"/>
    </g>
    <g id="Artwork_3-16" data-name="Artwork 3">
      <rect class="cls-5" x="86.83" y="104.91" width="1.4" height="1.4" rx=".02" ry=".02"/>
      <rect class="cls-5" x="88.37" y="104.91" width="1.4" height="1.4" rx=".02" ry=".02"/>
      <path class="cls-8" d="M88.88,106.2h0s-.57,0-.57,0h-.05s-.57,0-.57,0h0c-.31-.02-.56-.27-.56-.59s.25-.57,.56-.58h0s.57,0,.57,0h.05s.57,0,.57,0c.32,0,.59,.26,.59,.59s-.26,.59-.59,.59Z"/>
      <rect class="cls-12" x="87.87" y="105.03" width=".87" height="1.17"/>
    </g>
    <g id="Artwork_3-17" data-name="Artwork 3">
      <rect class="cls-5" x="86.83" y="107.5" width="1.4" height="1.4" rx=".02" ry=".02"/>
      <rect class="cls-5" x="88.37" y="107.5" width="1.4" height="1.4" rx=".02" ry=".02"/>
      <path class="cls-8" d="M88.88,108.78h0s-.57,0-.57,0h-.05s-.57,0-.57,0h0c-.31-.02-.56-.27-.56-.59s.25-.57,.56-.58h0s.57,0,.57,0h.05s.57,0,.57,0c.32,0,.59,.26,.59,.59s-.26,.59-.59,.59Z"/>
      <rect class="cls-12" x="87.87" y="107.61" width=".87" height="1.17"/>
    </g>
    <g id="Artwork_3-18" data-name="Artwork 3">
      <rect class="cls-5" x="86.83" y="110.08" width="1.4" height="1.4" rx=".02" ry=".02"/>
      <rect class="cls-5" x="88.37" y="110.08" width="1.4" height="1.4" rx=".02" ry=".02"/>
      <path class="cls-8" d="M88.88,111.37h0s-.57,0-.57,0h-.05s-.57,0-.57,0h0c-.31-.02-.56-.27-.56-.59s.25-.57,.56-.58h0s.57,0,.57,0h.05s.57,0,.57,0c.32,0,.59,.26,.59,.59s-.26,.59-.59,.59Z"/>
      <rect class="cls-12" x="87.87" y="110.2" width=".87" height="1.17"/>
    </g>
    <g id="Artwork_3-19" data-name="Artwork 3">
      <rect class="cls-5" x="86.83" y="112.67" width="1.4" height="1.4" rx=".02" ry=".02"/>
      <rect class="cls-5" x="88.37" y="112.67" width="1.4" height="1.4" rx=".02" ry=".02"/>
      <path class="cls-8" d="M88.88,113.96h0s-.57,0-.57,0h-.05s-.57,0-.57,0h0c-.31-.02-.56-.27-.56-.59s.25-.57,.56-.58h0s.57,0,.57,0h.05s.57,0,.57,0c.32,0,.59,.26,.59,.59s-.26,.59-.59,.59Z"/>
      <rect class="cls-12" x="87.87" y="112.78" width=".87" height="1.17"/>
    </g>
    <g id="Artwork_3-20" data-name="Artwork 3">
      <rect class="cls-5" x="86.83" y="115.25" width="1.4" height="1.4" rx=".02" ry=".02"/>
      <rect class="cls-5" x="88.37" y="115.25" width="1.4" height="1.4" rx=".02" ry=".02"/>
      <path class="cls-8" d="M88.88,116.54h0s-.57,0-.57,0h-.05s-.57,0-.57,0h0c-.31-.02-.56-.27-.56-.59s.25-.57,.56-.58h0s.57,0,.57,0h.05s.57,0,.57,0c.32,0,.59,.26,.59,.59s-.26,.59-.59,.59Z"/>
      <rect class="cls-12" x="87.87" y="115.37" width=".87" height="1.17"/>
    </g>
    <g>
      <g>
        <rect class="cls-5" x="100.48" y="113.56" width=".8" height="2.06"/>
        <rect class="cls-5" x="102.16" y="113.56" width=".8" height="2.06"/>
        <rect class="cls-5" x="103.84" y="113.56" width=".8" height="2.06"/>
        <rect class="cls-5" x="105.52" y="113.56" width=".8" height="2.06"/>
        <rect class="cls-5" x="107.2" y="113.56" width=".8" height="2.06"/>
        <rect class="cls-5" x="108.88" y="113.56" width=".8" height="2.06"/>
        <rect class="cls-5" x="110.56" y="113.56" width=".8" height="2.06"/>
        <rect class="cls-5" x="112.24" y="113.56" width=".8" height="2.06"/>
        <rect class="cls-5" x="113.92" y="113.56" width=".8" height="2.06"/>
        <rect class="cls-5" x="115.6" y="113.56" width=".8" height="2.06"/>
        <rect class="cls-5" x="117.28" y="113.56" width=".8" height="2.06"/>
        <rect class="cls-5" x="118.96" y="113.56" width=".8" height="2.06"/>
        <rect class="cls-5" x="120.64" y="113.56" width=".8" height="2.06"/>
        <rect class="cls-5" x="122.33" y="113.56" width=".8" height="2.06"/>
        <rect class="cls-5" x="124.01" y="113.56" width=".8" height="2.06"/>
        <rect class="cls-5" x="125.69" y="113.56" width=".8" height="2.06"/>
        <rect class="cls-5" x="127.37" y="113.56" width=".8" height="2.06"/>
        <rect class="cls-5" x="129.05" y="113.56" width=".8" height="2.06"/>
        <rect class="cls-5" x="130.73" y="113.56" width=".8" height="2.06"/>
        <rect class="cls-5" x="132.41" y="113.56" width=".8" height="2.06"/>
        <rect class="cls-5" x="134.09" y="113.56" width=".8" height="2.06"/>
        <rect class="cls-5" x="135.77" y="113.56" width=".8" height="2.06"/>
      </g>
      <g>
        <rect class="cls-5" x="99.25" y="105.03" width="1.1" height="2.84"/>
        <rect class="cls-5" x="97.55" y="105.88" width="1.1" height="2.84"/>
        <rect class="cls-5" x="100.96" y="105.03" width="1.1" height="2.84"/>
        <rect class="cls-5" x="102.66" y="105.03" width="1.1" height="2.84"/>
        <rect class="cls-5" x="104.36" y="105.03" width="1.1" height="2.84"/>
        <rect class="cls-5" x="106.06" y="105.03" width="1.1" height="2.84"/>
        <rect class="cls-5" x="107.76" y="105.03" width="1.1" height="2.84"/>
        <rect class="cls-5" x="109.46" y="105.03" width="1.1" height="2.84"/>
        <rect class="cls-5" x="111.17" y="105.03" width="1.1" height="2.84"/>
        <rect class="cls-5" x="112.87" y="105.03" width="1.1" height="2.84"/>
        <rect class="cls-5" x="114.57" y="105.03" width="1.1" height="2.84"/>
        <rect class="cls-5" x="116.27" y="105.03" width="1.1" height="2.84"/>
        <rect class="cls-5" x="117.97" y="105.03" width="1.1" height="2.84"/>
        <rect class="cls-5" x="119.67" y="105.03" width="1.1" height="2.84"/>
        <rect class="cls-5" x="121.38" y="105.03" width="1.1" height="2.84"/>
        <rect class="cls-5" x="123.08" y="105.03" width="1.1" height="2.84"/>
        <rect class="cls-5" x="124.78" y="105.03" width="1.1" height="2.84"/>
        <rect class="cls-5" x="126.48" y="105.03" width="1.1" height="2.84"/>
        <rect class="cls-5" x="128.18" y="105.03" width="1.1" height="2.84"/>
        <rect class="cls-5" x="129.89" y="105.03" width="1.1" height="2.84"/>
        <rect class="cls-5" x="131.59" y="105.03" width="1.1" height="2.84"/>
        <rect class="cls-5" x="133.29" y="105.03" width="1.1" height="2.84"/>
        <rect class="cls-5" x="134.99" y="105.03" width="1.1" height="2.84"/>
        <rect class="cls-5" x="136.69" y="105.03" width="1.1" height="2.84"/>
        <rect class="cls-5" x="138.39" y="105.88" width="1.1" height="2.84"/>
      </g>
      <rect class="cls-12" x="98.1" y="106.44" width="40.84" height="8.14"/>
    </g>
    <g>
      <g>
        <rect class="cls-5" x="110.13" y="130.57" width=".8" height="4.05"/>
        <rect class="cls-5" x="111.53" y="130.57" width=".8" height="4.05"/>
        <rect class="cls-5" x="112.93" y="130.57" width=".8" height="4.05"/>
        <rect class="cls-5" x="114.33" y="130.57" width=".8" height="4.05"/>
        <rect class="cls-5" x="115.73" y="130.57" width=".8" height="4.05"/>
        <rect class="cls-5" x="117.13" y="130.57" width=".8" height="4.05"/>
        <rect class="cls-5" x="118.53" y="130.57" width=".8" height="4.05"/>
        <rect class="cls-5" x="119.93" y="130.57" width=".8" height="4.05"/>
        <rect class="cls-5" x="121.33" y="130.57" width=".8" height="4.05"/>
        <rect class="cls-5" x="122.73" y="130.57" width=".8" height="4.05"/>
        <rect class="cls-5" x="124.13" y="130.57" width=".8" height="4.05"/>
        <rect class="cls-5" x="125.53" y="130.57" width=".8" height="4.05"/>
        <rect class="cls-5" x="126.93" y="130.57" width=".8" height="4.05"/>
        <rect class="cls-5" x="128.33" y="130.57" width=".8" height="4.05"/>
        <rect class="cls-5" x="129.73" y="130.57" width=".8" height="4.05"/>
        <rect class="cls-5" x="131.13" y="130.57" width=".8" height="4.05"/>
        <rect class="cls-5" x="132.53" y="130.57" width=".8" height="4.05"/>
        <rect class="cls-5" x="133.93" y="130.57" width=".8" height="4.05"/>
        <rect class="cls-5" x="135.33" y="130.57" width=".8" height="4.05"/>
        <rect class="cls-5" x="136.73" y="130.57" width=".8" height="4.05"/>
        <rect class="cls-5" x="138.13" y="130.57" width=".8" height="4.05"/>
        <rect class="cls-5" x="139.53" y="130.57" width=".8" height="4.05"/>
        <rect class="cls-5" x="140.93" y="130.57" width=".8" height="4.05"/>
        <rect class="cls-5" x="142.33" y="130.57" width=".8" height="4.05"/>
      </g>
      <g>
        <polygon class="cls-5" points="108.96 132.48 108.96 138.47 105.85 138.47 105.85 136.43 101.89 136.43 101.89 133.75 103.83 133.75 103.83 132.48 108.96 132.48"/>
        <polygon class="cls-5" points="144.3 132.48 144.3 138.47 147.41 138.47 147.41 136.43 151.37 136.43 151.37 133.75 149.43 133.75 149.43 132.48 144.3 132.48"/>
      </g>
      <rect class="cls-10" x="102.22" y="139.38" width="48.83" height="4.95"/>
      <rect class="cls-4" x="103.43" y="133.38" width="46.41" height="8.86"/>
      <rect class="cls-10" x="103.43" y="133.38" width="3.37" height="4.43"/>
      <rect class="cls-10" x="146.46" y="133.38" width="3.37" height="4.43"/>
    </g>
    <g>
      <rect class="cls-12" x="114.38" y="119.8" width="8.56" height="7.09"/>
      <circle class="cls-11" cx="115.49" cy="120.91" r=".43"/>
    </g>
    <rect class="cls-5" x="144.86" y="220.11" width="1.55" height="1.55"/>
    <rect class="cls-5" x="144.86" y="222.32" width="1.55" height="1.55"/>
    <rect class="cls-5" x="144.86" y="224.54" width="1.55" height="1.55"/>
    <rect class="cls-5" x="144.86" y="226.75" width="1.55" height="1.55"/>
    <rect class="cls-5" x="151.64" y="220.11" width="1.55" height="1.55"/>
    <rect class="cls-5" x="151.64" y="222.32" width="1.55" height="1.55"/>
    <rect class="cls-5" x="151.64" y="224.54" width="1.55" height="1.55"/>
    <rect class="cls-5" x="151.64" y="226.75" width="1.55" height="1.55"/>
  </g>
  <g id="Lcd1">
    <g>
      <path d="M80.28,79.45s-6.04,17.79-7.98,23.74-3.65,11.57-3.65,25.34c0,27.61,22.38,49.99,49.99,49.99,27.61,0,49.99-22.38,49.99-49.99,0-13.76-1.67-19.25-3.65-25.34s-7.98-23.74-7.98-23.74H80.28Z"/>
      <rect class="cls-10" x="141.28" y="64.92" width="11.74" height="6.84" transform="translate(294.3 136.68) rotate(180)"/>
      <rect class="cls-7" x="150.41" y="63.36" width="1.7" height="2.86" transform="translate(302.52 129.58) rotate(180)"/>
      <rect class="cls-7" x="148.17" y="63.36" width="1.7" height="2.86" transform="translate(298.03 129.58) rotate(180)"/>
      <rect class="cls-7" x="145.92" y="63.36" width="1.7" height="2.86" transform="translate(293.54 129.58) rotate(180)"/>
      <polygon class="cls-12" points="80.29 79.45 83.3 70.54 84.26 67.7 84.99 65.53 96.27 65.53 96.27 67.7 153.02 67.7 157 79.45 80.29 79.45"/>
      <path class="cls-7" d="M95.09,63.36h49.7v4.34h-45.36c-2.39,0-4.34-1.94-4.34-4.34h0Z" transform="translate(239.87 131.07) rotate(180)"/>
    </g>
  </g>
  <g id="Silk1">
    <g>
      <g>
        <g>
          <path class="cls-4" d="M118.64,29.04c-.55,0-1-.45-1-1,0-4.8,3.91-8.71,8.71-8.71,.37,0,.73,.02,1.08,.07,.55,.07,.94,.56,.87,1.11-.07,.55-.56,.94-1.11,.87-.28-.03-.56-.05-.84-.05-3.7,0-6.71,3.01-6.71,6.71,0,.55-.45,1-1,1Z"/>
          <path class="cls-4" d="M131.21,28.04c0,6.93-5.64,12.57-12.57,12.57s-12.57-5.64-12.57-12.57c0-1.36,.14-2.72,.41-4.05,.11-.54,.63-.9,1.18-.78,.54,.11,.89,.64,.78,1.18-.24,1.19-.37,2.42-.37,3.65,0,5.83,4.74,10.57,10.57,10.57s10.57-4.74,10.57-10.57c0-1.57-1.28-2.85-2.86-2.85s-2.85,1.28-2.85,2.85c0,2.68-2.18,4.86-4.86,4.86s-4.86-2.18-4.86-4.86c0-5.32,3.37-10.08,8.38-11.84,.53-.18,1.1,.09,1.28,.61s-.09,1.09-.61,1.28c-4.22,1.48-7.05,5.48-7.05,9.95,0,1.58,1.29,2.86,2.86,2.86s2.86-1.28,2.86-2.86c0-2.67,2.17-4.85,4.85-4.85s4.86,2.18,4.86,4.85Z"/>
          <path class="cls-4" d="M127.35,28.04c0,4.81-3.91,8.72-8.71,8.72s-8.71-3.91-8.71-8.72c0-4.56,1.82-8.8,5.13-11.92,.4-.38,1.04-.37,1.42,.04,.38,.4,.36,1.03-.04,1.41-2.91,2.75-4.51,6.46-4.51,10.47,0,3.7,3.01,6.72,6.71,6.72s6.71-3.02,6.71-6.72c0-.55,.45-1,1-1s1,.45,1,1Z"/>
        </g>
        <path class="cls-4" d="M139.69,1.69V28.04c0,11.66-9.48,21.14-21.14,21.14s-21.13-9.48-21.13-21.14V1.72c.4-.07,.8-.14,1.2-.2V28.04c0,10.99,8.94,19.93,19.93,19.93s19.94-8.94,19.94-19.93V1.49c.41,.06,.81,.13,1.2,.2Z"/>
      </g>
      <g>
        <path class="cls-4" d="M118.85,11.9c0-.92,.23-1.62,1.21-1.62,.78,0,1.17,.42,1.17,1.5,0,1.01-.32,1.62-1.22,1.62-.83,0-1.16-.55-1.16-1.5Zm.75-.04c0,.18,0,.35,.02,.49l.51-1.47s-.07,0-.1,0c-.37,0-.43,.31-.43,.99Zm.85-.61l-.54,1.55s.09,.02,.14,.02c.35,0,.43-.37,.43-.95,0-.25,0-.46-.04-.62Z"/>
        <path class="cls-4" d="M117.05,12.45c0,.21,.1,.37,.34,.37,.21,0,.41-.14,.56-.32l.34,.49s-.37,.42-1.06,.42c-.59,0-.95-.35-.95-.87,0-.61,.57-1.21,1.12-1.59h-1.24v-.62h2.15v.45c-.51,.3-1.27,1.1-1.27,1.67Z"/>
      </g>
    </g>
    <g>
      <g>
        <g>
          <path class="cls-4" d="M41.2,73.75c-.28,.48-.89,.64-1.37,.37-4.16-2.4-5.59-7.74-3.19-11.9,.18-.32,.38-.62,.6-.91,.33-.44,.96-.53,1.4-.2,.44,.33,.53,.95,.2,1.4-.17,.22-.32,.46-.47,.7-1.85,3.2-.75,7.32,2.46,9.17,.48,.28,.64,.89,.37,1.37Z"/>
          <path class="cls-4" d="M46.62,62.37c6,3.46,8.07,11.17,4.6,17.17s-11.17,8.07-17.17,4.6c-1.18-.68-2.29-1.48-3.3-2.38-.41-.37-.46-1-.09-1.41,.37-.41,1-.45,1.41-.09,.91,.8,1.91,1.53,2.98,2.15,5.05,2.92,11.52,1.18,14.44-3.87s1.18-11.52-3.87-14.44c-1.36-.79-3.11-.32-3.9,1.05s-.32,3.11,1.04,3.89c2.32,1.34,3.12,4.32,1.78,6.64s-4.32,3.12-6.64,1.78c-4.61-2.66-7.04-7.96-6.06-13.18,.11-.55,.63-.91,1.17-.8s.9,.62,.8,1.17c-.83,4.39,1.22,8.85,5.09,11.08,1.37,.79,3.12,.31,3.91-1.05s.32-3.12-1.05-3.91c-2.31-1.33-3.12-4.3-1.78-6.63s4.32-3.12,6.63-1.78Z"/>
          <path class="cls-4" d="M44.69,65.71c4.17,2.4,5.6,7.75,3.2,11.9s-7.74,5.59-11.91,3.18c-3.95-2.28-6.71-5.98-7.76-10.4-.13-.54,.2-1.09,.74-1.21,.54-.13,1.07,.2,1.2,.74,.93,3.9,3.34,7.14,6.81,9.14,3.2,1.85,7.32,.75,9.17-2.45s.74-7.32-2.46-9.17c-.48-.27-.64-.89-.37-1.37s.89-.64,1.37-.37Z"/>
        </g>
        <path class="cls-4" d="M28.04,41.85l22.82,13.17c10.1,5.83,13.57,18.78,7.74,28.88s-18.77,13.56-28.87,7.73l-22.79-13.16c.14-.38,.28-.76,.43-1.14l22.97,13.26c9.52,5.49,21.73,2.22,27.22-7.29s2.23-21.74-7.29-27.23l-22.99-13.27c.26-.33,.52-.64,.77-.94Z"/>
      </g>
      <g>
        <path class="cls-4" d="M25.59,64.5c-.79-.46-1.29-1.01-.8-1.86,.39-.68,.95-.81,1.88-.27,.88,.51,1.25,1.09,.8,1.87-.41,.72-1.05,.73-1.88,.26Zm.34-.67c.16,.09,.31,.17,.44,.22l-1.02-1.18s-.04,.05-.06,.09c-.18,.32,.05,.53,.64,.87Zm-.1-1.04l1.07,1.24s.06-.07,.09-.11c.17-.3-.1-.56-.6-.85-.22-.13-.4-.22-.55-.28Z"/>
        <path class="cls-4" d="M24.49,64.49l-.35,.61,1.58,.91,.26-.51,.52,.3-.6,1.16-2.13-1.23-.34,.59-.53-.31,1.06-1.84,.53,.31Z"/>
      </g>
    </g>
    <g>
      <g>
        <g>
          <path class="cls-4" d="M41.2,163.18c.28,.48,.11,1.09-.37,1.37-4.16,2.4-9.5,.97-11.9-3.19-.18-.32-.34-.64-.49-.97-.22-.51,.02-1.1,.53-1.31,.51-.22,1.09,.02,1.31,.53,.11,.26,.23,.51,.38,.76,1.85,3.2,5.96,4.31,9.17,2.46,.48-.28,1.09-.11,1.37,.37Z"/>
          <path class="cls-4" d="M34.05,152.79c6-3.46,13.71-1.4,17.17,4.6,3.46,6,1.4,13.71-4.6,17.17-1.18,.68-2.43,1.24-3.71,1.67-.52,.17-1.09-.1-1.27-.63-.17-.52,.11-1.09,.63-1.27,1.15-.39,2.28-.89,3.35-1.5,5.05-2.92,6.78-9.39,3.87-14.44s-9.39-6.78-14.44-3.87c-1.36,.79-1.83,2.53-1.04,3.9s2.53,1.83,3.89,1.04c2.32-1.34,5.3-.54,6.64,1.78s.54,5.3-1.78,6.64c-4.61,2.66-10.41,2.12-14.44-1.34-.42-.37-.47-1-.11-1.41s.99-.47,1.41-.11c3.39,2.91,8.27,3.37,12.14,1.13,1.37-.79,1.83-2.55,1.05-3.91s-2.54-1.84-3.91-1.05c-2.31,1.33-5.29,.55-6.63-1.78s-.54-5.3,1.77-6.63Z"/>
          <path class="cls-4" d="M35.98,156.14c4.17-2.4,9.51-.97,11.91,3.18s.97,9.5-3.2,11.9c-3.95,2.28-8.53,2.82-12.89,1.52-.53-.16-.84-.72-.68-1.25,.16-.53,.71-.83,1.24-.67,3.84,1.15,7.85,.68,11.32-1.33,3.2-1.85,4.31-5.97,2.46-9.17-1.85-3.2-5.97-4.3-9.17-2.45-.48,.27-1.09,.11-1.37-.37s-.11-1.09,.37-1.37Z"/>
        </g>
        <path class="cls-4" d="M59.75,168.4c.29,.34,.64,.63,1.03,.84-1.4,5.22-4.79,9.91-9.84,12.82l-22.79,13.16c-.26-.32-.52-.63-.78-.94l22.97-13.26c4.92-2.84,8.17-7.49,9.41-12.62Z"/>
        <path class="cls-4" d="M30.41,146.49l-23,13.27c-.15-.38-.29-.76-.42-1.14l22.82-13.17c10.09-5.83,23.04-2.36,28.87,7.74,1.59,2.75,2.49,5.71,2.75,8.68-.43,.15-.82,.37-1.17,.65-.17-2.98-1.02-5.97-2.62-8.73-5.5-9.52-17.72-12.8-27.23-7.3Z"/>
      </g>
      <g>
        <path class="cls-4" d="M25.38,172.06c-.79,.46-1.52,.61-2.01-.24-.39-.68-.22-1.23,.71-1.76,.88-.51,1.57-.54,2.02,.25,.41,.71,.11,1.28-.72,1.76Zm-.41-.63c.16-.09,.3-.18,.41-.27l-1.53,.29s.03,.06,.05,.09c.18,.32,.49,.22,1.07-.12Zm-.95-.43l1.61-.31s-.03-.08-.05-.13c-.17-.3-.54-.19-1.04,.1-.22,.13-.39,.23-.52,.34Z"/>
        <path class="cls-4" d="M26.78,174.49c-.79,.46-1.52,.61-2.01-.24-.39-.68-.22-1.22,.71-1.76,.88-.51,1.57-.54,2.02,.25,.41,.72,.11,1.28-.72,1.76Zm-.41-.63c.16-.09,.3-.18,.41-.27l-1.53,.29s.03,.06,.05,.09c.18,.32,.49,.22,1.07-.12Zm-.95-.43l1.61-.31s-.03-.09-.05-.13c-.17-.3-.54-.19-1.04,.1-.22,.13-.39,.23-.52,.34Z"/>
      </g>
    </g>
    <g>
      <g>
        <g>
          <path class="cls-4" d="M196.08,73.75c-.28-.48-.11-1.09,.37-1.37,4.16-2.4,9.5-.97,11.9,3.19,.18,.32,.34,.64,.49,.97,.22,.51-.02,1.1-.53,1.31-.51,.22-1.09-.02-1.31-.53-.11-.26-.23-.51-.38-.76-1.85-3.2-5.96-4.31-9.17-2.46-.48,.28-1.09,.11-1.37-.37Z"/>
          <path class="cls-4" d="M203.24,84.14c-6,3.46-13.71,1.4-17.17-4.6s-1.4-13.71,4.6-17.17c1.18-.68,2.43-1.24,3.71-1.67,.52-.17,1.09,.1,1.27,.63,.17,.52-.11,1.09-.63,1.27-1.15,.39-2.28,.89-3.35,1.5-5.05,2.92-6.78,9.39-3.87,14.44s9.39,6.78,14.44,3.87c1.36-.79,1.83-2.53,1.04-3.9s-2.53-1.83-3.89-1.04c-2.32,1.34-5.3,.54-6.64-1.78s-.54-5.3,1.78-6.64c4.61-2.66,10.41-2.12,14.44,1.34,.42,.37,.47,1,.11,1.41s-.99,.47-1.41,.11c-3.39-2.91-8.27-3.37-12.14-1.13-1.37,.79-1.83,2.55-1.05,3.91s2.54,1.84,3.91,1.05c2.31-1.33,5.29-.55,6.63,1.78s.54,5.3-1.77,6.63Z"/>
          <path class="cls-4" d="M201.31,80.8c-4.17,2.4-9.51,.97-11.91-3.18s-.97-9.5,3.2-11.9c3.95-2.28,8.53-2.82,12.89-1.52,.53,.16,.84,.72,.68,1.25-.16,.53-.71,.83-1.24,.67-3.84-1.15-7.85-.68-11.32,1.33-3.2,1.85-4.31,5.97-2.46,9.17s5.97,4.3,9.17,2.45c.48-.27,1.09-.11,1.37,.37s.11,1.09-.37,1.37Z"/>
        </g>
        <path class="cls-4" d="M230.3,78.31l-22.82,13.17c-10.1,5.83-23.05,2.36-28.88-7.74s-2.36-23.04,7.74-28.87l22.79-13.16c.26,.31,.52,.62,.77,.94l-22.97,13.26c-9.52,5.49-12.79,17.71-7.29,27.22,5.49,9.52,17.71,12.8,27.23,7.3l22.99-13.27c.15,.39,.29,.77,.43,1.14Z"/>
      </g>
      <g>
        <path class="cls-4" d="M211.9,64.86c.79-.46,1.52-.61,2.01,.24,.39,.68,.22,1.23-.71,1.76-.88,.51-1.57,.54-2.02-.25-.41-.71-.11-1.28,.72-1.76Zm1.36,1.06l-1.61,.31s.03,.08,.05,.13c.17,.3,.54,.19,1.04-.1,.22-.13,.39-.23,.52-.34Zm-.95-.43c-.16,.09-.3,.18-.41,.27l1.53-.29s-.03-.06-.05-.09c-.18-.32-.49-.22-1.07,.12Z"/>
        <path class="cls-4" d="M210.84,63.18c-.12-.41-.02-.8,.36-1.02,.34-.2,.91-.18,1.33,.54,.26,.45,.26,.85,.22,1.06h-.68c.05-.26,.08-.5-.08-.78-.1-.18-.26-.27-.44-.17-.28,.16-.2,.58,.05,1.02l-.39,.22c-.24-.37-.58-.57-.78-.46-.17,.1-.16,.27-.07,.42,.12,.21,.32,.3,.51,.34l-.25,.51s-.51-.11-.86-.71c-.27-.47-.17-.95,.21-1.17,.27-.15,.6-.07,.86,.18Z"/>
      </g>
    </g>
    <g>
      <g>
        <g>
          <path class="cls-4" d="M196.08,163.18c.28-.48,.89-.64,1.37-.37,4.16,2.4,5.59,7.74,3.19,11.9-.18,.32-.38,.62-.6,.91-.33,.44-.96,.53-1.4,.2-.44-.33-.53-.95-.2-1.4,.17-.22,.32-.46,.47-.7,1.85-3.2,.75-7.32-2.46-9.17-.48-.28-.64-.89-.37-1.37Z"/>
          <path class="cls-4" d="M190.67,174.56c-6-3.46-8.07-11.17-4.6-17.17,3.46-6,11.17-8.07,17.17-4.6,1.18,.68,2.29,1.48,3.3,2.38,.41,.37,.46,1,.09,1.41-.37,.41-1,.45-1.41,.09-.91-.8-1.91-1.53-2.98-2.15-5.05-2.92-11.52-1.18-14.44,3.87s-1.18,11.52,3.87,14.44c1.36,.79,3.11,.32,3.9-1.05s.32-3.11-1.04-3.89c-2.32-1.34-3.12-4.32-1.78-6.64s4.32-3.12,6.64-1.78c4.61,2.66,7.04,7.96,6.06,13.18-.11,.55-.63,.91-1.17,.8s-.9-.62-.8-1.17c.83-4.39-1.22-8.85-5.09-11.08-1.37-.79-3.12-.31-3.91,1.05s-.32,3.12,1.05,3.91c2.31,1.33,3.12,4.3,1.78,6.63s-4.32,3.12-6.63,1.78Z"/>
          <path class="cls-4" d="M192.6,171.22c-4.17-2.4-5.6-7.75-3.2-11.9s7.74-5.59,11.91-3.18c3.95,2.28,6.71,5.98,7.76,10.4,.13,.54-.2,1.09-.74,1.21-.54,.13-1.07-.2-1.2-.74-.93-3.9-3.34-7.14-6.81-9.14-3.2-1.85-7.32-.75-9.17,2.45s-.74,7.32,2.46,9.17c.48,.27,.64,.89,.37,1.37s-.89,.64-1.37,.37Z"/>
        </g>
        <path class="cls-4" d="M187.03,180.87l22.99,13.27c-.26,.33-.52,.64-.77,.94l-22.82-13.17c-5.02-2.9-8.4-7.55-9.81-12.74,.39-.23,.73-.53,1.01-.89,1.24,5.12,4.48,9.75,9.4,12.59Z"/>
        <path class="cls-4" d="M230.35,158.46c-.13,.38-.27,.76-.42,1.14l-22.97-13.26c-9.52-5.5-21.73-2.22-27.22,7.29-1.63,2.82-2.49,5.89-2.64,8.95-.34-.28-.74-.52-1.17-.68,.24-3.04,1.14-6.06,2.76-8.87,5.82-10.09,18.77-13.56,28.87-7.73l22.79,13.16Z"/>
      </g>
      <g>
        <path class="cls-4" d="M211.69,172.43c.79,.46,1.29,1.01,.8,1.86-.39,.68-.95,.81-1.88,.27-.88-.51-1.25-1.09-.8-1.87,.41-.72,1.05-.73,1.88-.26Zm-.24,1.71l-1.07-1.24s-.06,.07-.09,.11c-.17,.3,.1,.56,.6,.85,.22,.13,.4,.22,.55,.28Zm-.1-1.04c-.16-.09-.31-.17-.44-.22l1.02,1.18s.04-.05,.06-.09c.18-.32-.05-.53-.64-.87Z"/>
        <path class="cls-4" d="M214.26,171.13l-.36,.63-.5-.29-.63,1.1-.36-.21-1.14-2.12,.37-.63,1.63,.94,.2-.34,.5,.29-.2,.34,.5,.29Zm-1.36,.05l-.84-.49,.56,.98,.28-.49Z"/>
      </g>
    </g>
  </g>
  <g id="Silk2">
    <g>
      <path class="cls-4" d="M192.96,38.45l1.07-.42,.48,.45-.4,1.22,1.7-1.8,.55,.52-2.67,2.84-.61-.57,.52-1.73-1.69,.62-.58-.54,2.67-2.84,.57,.53-1.62,1.72Z"/>
      <path class="cls-4" d="M190.19,38.01l1.04-1.18-.23-.1-1.55,.63-.81-.71,1.98-.72,.5-2.29,.88,.78-.44,1.73,.18,.09,1.02-1.16,.73,.64-2.58,2.93-.73-.64Z"/>
      <path class="cls-4" d="M188.17,36.24l-1.21-1c-.83-.69-.8-1.37-.32-1.95,.34-.41,.77-.59,1.24-.49l.32-1.59,.88,.72-.33,1.33,.37,.31,.78-.95,.75,.61-2.48,3.01Zm-.74-2.3c-.22,.27-.23,.48,.11,.77l.38,.31,.7-.85-.39-.32c-.26-.21-.53-.24-.8,.1Z"/>
      <path class="cls-4" d="M184.19,29.16l-.82-.58-1.33,1.88,.82,.58-.46,.65-2.44-1.73,.46-.65,.83,.59,1.33-1.88-.83-.59,.46-.65,2.43,1.73-.46,.65Z"/>
      <path class="cls-4" d="M177.85,26.21c.62-.94,1.46-1.45,2.5-.76,.94,.62,.99,1.47,.28,2.55-.65,.98-1.51,1.46-2.49,.81-.93-.61-1.11-1.36-.29-2.6Zm.86,.57c-.53,.8-.61,1.06-.13,1.37,.43,.28,.68,.08,1.2-.72,.44-.66,.61-1.02,.14-1.32-.47-.31-.71-.08-1.21,.67Z"/>
      <path class="cls-4" d="M174.1,25.26l.98,.6,1.63-2.66,.82,.51-1.63,2.66,.98,.6-.41,.67-2.79-1.71,.41-.67Z"/>
      <path class="cls-4" d="M169.02,19.25c.52,0,.89,.08,1.3,.29,1.02,.54,1.2,1.45,.61,2.59-.59,1.13-1.57,1.43-2.58,.9-.36-.19-.63-.45-.85-.81l.65-.56c.17,.37,.33,.55,.61,.7,.45,.24,.87,.04,1.25-.69,.38-.72,.37-1.22-.14-1.49-.32-.17-.63-.2-1-.16l.15-.77Z"/>
      <path class="cls-4" d="M168.73,18.77l-2.79,2.98-.98-.47,.57-4.05,.92,.45-.15,.81,1.01,.49,.52-.63,.89,.43Zm-2.85,1.93l.94-1.13-.66-.32-.27,1.45Z"/>
      <path class="cls-4" d="M163.48,20.59l-1.44-.64c-.99-.44-1.14-1.11-.83-1.79,.22-.49,.58-.77,1.06-.81l-.12-1.61,1.04,.46,.04,1.37,.44,.2,.5-1.13,.88,.39-1.58,3.57Zm-1.33-2.02c-.14,.32-.1,.53,.32,.71l.45,.2,.45-1.01-.47-.21c-.31-.14-.57-.09-.75,.31Z"/>
      <path class="cls-4" d="M160.13,19.13l-1.46-.59c-1-.4-1.18-1.07-.9-1.76,.2-.5,.55-.79,1.03-.85l-.18-1.61,1.06,.43,.09,1.37,.45,.18,.46-1.15,.9,.36-1.45,3.62Zm-1.4-1.97c-.13,.32-.08,.53,.34,.7l.46,.18,.41-1.02-.47-.19c-.31-.12-.57-.07-.74,.33Z"/>
      <path class="cls-4" d="M157.75,14.85l-.95-.34-.78,2.17,.95,.34-.27,.75-2.81-1.02,.27-.75,.96,.35,.78-2.17-.96-.35,.27-.75,2.81,1.02-.27,.75Z"/>
      <path class="cls-4" d="M150.46,15.63l.24-.75,1.78,.57,.23-.7-1.62-.52,.24-.74,1.62,.52,.25-.76-1.77-.57,.25-.76,2.69,.87-1.2,3.71-2.7-.87Z"/>
      <path class="cls-4" d="M149.77,15.42l-1.51-.43c-1.04-.3-1.28-.94-1.07-1.66,.15-.51,.47-.85,.94-.95l-.34-1.58,1.1,.31,.23,1.35,.47,.13,.34-1.19,.93,.27-1.07,3.75Zm-1.6-1.82c-.1,.33-.02,.54,.41,.66l.47,.14,.3-1.06-.49-.14c-.32-.09-.58,0-.7,.41Z"/>
    </g>
    <path class="cls-4" d="M140.56,204.21c0,1.31-1.06,2.38-2.38,2.38s-2.38-1.06-2.38-2.38,2.38-5.29,2.38-5.29c0,0,2.38,3.97,2.38,5.29Z"/>
    <g>
      <path class="cls-4" d="M148.18,206.94c-2.11,0-3.83-1.72-3.83-3.83s1.72-3.83,3.83-3.83,3.83,1.72,3.83,3.83-1.72,3.83-3.83,3.83Zm0-6.93c-1.71,0-3.1,1.39-3.1,3.1s1.39,3.1,3.1,3.1,3.1-1.39,3.1-3.1-1.39-3.1-3.1-3.1Z"/>
      <path class="cls-4" d="M148.18,201.19c-.19,0-.35-.15-.35-.35v-.37c0-.19,.15-.35,.35-.35s.35,.15,.35,.35v.37c0,.19-.15,.35-.35,.35Z"/>
      <path class="cls-4" d="M147.05,201.49c-.12,0-.24-.06-.3-.17l-.18-.32c-.1-.17-.04-.38,.13-.47,.16-.1,.38-.04,.47,.13l.18,.32c.1,.17,.04,.38-.13,.47-.06,.03-.11,.05-.17,.05Z"/>
      <path class="cls-4" d="M146.22,202.32c-.06,0-.12-.01-.17-.05l-.32-.18c-.17-.09-.22-.31-.13-.47,.09-.17,.31-.22,.47-.13l.32,.18c.17,.09,.22,.31,.13,.47-.06,.11-.18,.17-.3,.17Z"/>
      <path class="cls-4" d="M145.92,203.45h-.36c-.19,0-.35-.15-.35-.35s.15-.35,.35-.35h.36c.19,0,.35,.15,.35,.35s-.15,.35-.35,.35Z"/>
      <path class="cls-4" d="M145.91,204.76c-.12,0-.24-.06-.3-.17-.1-.17-.04-.38,.13-.47l.32-.18c.16-.1,.38-.04,.47,.13,.1,.17,.04,.38-.13,.47l-.32,.18c-.06,.03-.11,.05-.17,.05Z"/>
      <path class="cls-4" d="M150.45,204.76c-.06,0-.12-.01-.18-.05l-.31-.18c-.16-.1-.22-.31-.12-.48,.1-.17,.31-.22,.48-.12l.31,.18c.16,.1,.22,.31,.12,.48-.06,.11-.18,.17-.3,.17Z"/>
      <path class="cls-4" d="M150.81,203.45h-.37c-.19,0-.35-.15-.35-.35s.15-.35,.35-.35h.37c.19,0,.35,.15,.35,.35s-.15,.35-.35,.35Z"/>
      <path class="cls-4" d="M149.31,201.49c-.06,0-.12-.01-.17-.05-.17-.09-.22-.31-.13-.47l.18-.32c.1-.17,.31-.23,.47-.13,.17,.09,.22,.31,.13,.47l-.18,.32c-.06,.11-.18,.17-.3,.17Z"/>
      <path class="cls-4" d="M148.18,203.45c-.12,0-.25-.07-.31-.18-.09-.17-.03-.38,.15-.47l2.31-1.22c.16-.09,.38-.03,.47,.15,.09,.17,.03,.38-.15,.47l-2.31,1.22c-.05,.03-.11,.04-.16,.04Z"/>
    </g>
    <g>
      <path class="cls-4" d="M90.94,220.51c0,.39-.56,1.19-.82,1.75h-1.98c-.26-.56-.8-1.36-.8-1.75,0-.99,.8-1.79,1.81-1.79s1.79,.8,1.79,1.79Z"/>
      <g>
        <path class="cls-4" d="M89.12,217.94c-.18,0-.33-.15-.33-.33v-.35c0-.18,.15-.33,.33-.33s.33,.15,.33,.33v.35c0,.18-.15,.33-.33,.33Z"/>
        <path class="cls-4" d="M88.04,218.23c-.12,0-.23-.06-.29-.16l-.18-.3c-.09-.16-.04-.36,.12-.46,.16-.1,.36-.04,.46,.12l.18,.3c.09,.16,.04,.36-.12,.46-.05,.03-.11,.04-.17,.04Z"/>
        <path class="cls-4" d="M87.24,219.03c-.06,0-.11-.01-.16-.04l-.3-.17c-.16-.09-.22-.3-.13-.46,.09-.16,.3-.22,.46-.13l.3,.17c.16,.09,.22,.3,.13,.46-.06,.11-.18,.17-.29,.17Z"/>
        <path class="cls-4" d="M91,219.03c-.12,0-.23-.06-.29-.17-.09-.16-.04-.36,.12-.46l.3-.17c.16-.1,.36-.04,.46,.12,.09,.16,.04,.36-.12,.46l-.3,.17c-.05,.03-.11,.04-.17,.04Z"/>
        <path class="cls-4" d="M90.21,218.23c-.06,0-.12-.01-.17-.04-.16-.09-.21-.3-.12-.46l.18-.3c.09-.16,.3-.22,.46-.12,.16,.09,.21,.3,.12,.46l-.18,.3c-.06,.11-.17,.16-.29,.16Z"/>
      </g>
      <rect class="cls-4" x="88.18" y="222.47" width="1.95" height=".88"/>
      <rect class="cls-4" x="88.49" y="223.57" width="1.32" height=".49"/>
    </g>
    <g>
      <path class="cls-4" d="M8.37,101.41l4.31,2.03-.17,1.25-4.7,.81,.16-1.19,.96-.12,.18-1.3-.89-.36,.16-1.14Zm3.16,2.47l-1.59-.64-.12,.85,1.71-.22Z"/>
      <path class="cls-4" d="M12.25,106.77l-.17,1.82c-.12,1.25-.8,1.67-1.67,1.58-.62-.06-1.07-.35-1.29-.87l-1.74,.73,.12-1.32,1.5-.55,.05-.56-1.43-.13,.11-1.12,4.53,.43Zm-1.74,2.22c.4,.04,.62-.09,.67-.61l.05-.57-1.28-.12-.06,.59c-.04,.39,.11,.66,.61,.71Z"/>
      <path class="cls-4" d="M11.85,111.13l-.08,1.49c-.09,1.7-.92,2.22-2.34,2.15-1.08-.06-2.29-.45-2.19-2.38l.08-1.49,4.54,.24Zm-.97,1.08l-2.7-.14-.02,.43c-.05,.93,.51,1.03,1.28,1.07,.89,.05,1.37-.02,1.42-1.03l.02-.33Z"/>
      <path class="cls-4" d="M11.62,118.13v1.09s-3-.03-3-.03c-1.34-.01-1.62-1.04-1.61-1.85,0-.78,.28-1.77,1.66-1.75l2.98,.03v1.13s-2.78-.03-2.78-.03c-.76,0-.93,.26-.94,.68,0,.51,.22,.7,.92,.71l2.78,.03Z"/>
      <path class="cls-4" d="M8.01,120.25l.04,1.18,2.69-.09-.04-1.18,.93-.03,.11,3.49-.93,.03-.04-1.18-2.69,.09,.04,1.18-.93,.03-.11-3.49,.93-.03Z"/>
      <path class="cls-4" d="M7.32,125.86l-.08-1.06,4.53-.34,.09,1.22-2.61,1.67,2.72-.2,.08,1.05-4.53,.34-.08-1.14,2.79-1.76-2.9,.22Z"/>
      <path class="cls-4" d="M10.3,132.97c-1.31,.15-2.38-.21-2.55-1.66-.15-1.3,.56-1.99,2.06-2.16,1.36-.16,2.43,.24,2.59,1.61,.15,1.29-.37,2.01-2.09,2.21Zm-.14-1.19c1.1-.13,1.4-.25,1.32-.91-.07-.6-.44-.66-1.54-.53-.91,.11-1.36,.22-1.29,.87,.08,.65,.46,.7,1.5,.58Z"/>
      <path class="cls-4" d="M11.05,133.77c.94-.15,1.82,.48,1.97,1.38,.15,.93-.49,1.8-1.43,1.95-.99,.16-1.81-.48-1.96-1.4-.15-.91,.5-1.77,1.43-1.92Zm.48,3.02c.74-.12,1.33-.78,1.2-1.59-.13-.79-.8-1.25-1.63-1.11-.88,.14-1.31,.88-1.2,1.57,.13,.81,.77,1.27,1.64,1.14Zm.68-2.38l.14,.9c.11,.67-.14,.96-.55,1.02-.26,.04-.5-.04-.66-.26l-.71,.47-.11-.7,.61-.33-.04-.25-.65,.1-.1-.64,2.07-.33Zm-.85,1c.03,.19,.12,.29,.33,.26,.17-.03,.25-.1,.21-.35l-.03-.2-.54,.09,.03,.21Z"/>
    </g>
    <g>
      <g id="traccia-loop">
        <path class="cls-6" d="M197.83,201.09c-.19,.17-.39,.32-.6,.46-1.32,.86-3.01,1.09-4.88,.67-.02,0-.04,0-.05-.01,.14,1.4,.01,3.3-1.28,4.81-.16,.19-.34,.37-.53,.54-2.03,1.78-5.08,1.64-6.8-.32-1.72-1.96-1.47-5,.56-6.78,.19-.17,.39-.32,.6-.46,1.27-.83,2.89-1.08,4.69-.71,.08,.02,.16,.03,.24,.05-.14-1.4-.01-3.3,1.28-4.81,.16-.18,.33-.37,.53-.54,2.03-1.78,5.08-1.64,6.8,.32s1.47,5-.55,6.78Zm-5.98-1.04l.6,.22c.1,.04,.21,.07,.32,.1,.95,.22,2.31,.32,3.41-.4,.13-.09,.26-.19,.39-.3,1.24-1.09,1.41-2.93,.38-4.1s-2.87-1.23-4.12-.14c-.12,.11-.24,.22-.34,.34-.9,1.05-.95,2.48-.82,3.51l.17,.78Zm-6.35,1.83c-1.24,1.09-1.41,2.93-.38,4.1s2.87,1.24,4.11,.15c.13-.11,.24-.23,.34-.35,.89-1.05,.94-2.48,.82-3.51l-.17-.78-.5-.18c-.2-.07-.38-.12-.56-.16-1.32-.27-2.42-.12-3.27,.44-.13,.09-.26,.18-.38,.29Z"/>
      </g>
      <rect class="cls-6" x="185.66" y="203.44" width="3.46" height="1.11" transform="translate(-88.04 174.57) rotate(-41.33)"/>
      <polygon class="cls-6" points="195.4 197.69 196.28 196.92 195.54 196.08 194.67 196.85 193.89 195.97 193.05 196.71 193.83 197.59 192.95 198.36 193.68 199.2 194.56 198.43 195.34 199.31 196.18 198.57 195.4 197.69"/>
    </g>
    <g>
      <path class="cls-4" d="M158.45,203.24v-3.06c0-.5-.41-.91-.91-.91s-.91,.41-.91,.91v3.06c-.62,.33-1.06,.97-1.06,1.72,0,1.09,.88,1.97,1.97,1.97s1.97-.88,1.97-1.97c0-.76-.44-1.39-1.06-1.72Z"/>
      <path class="cls-4" d="M160.42,202.47h-1.03c-.2,0-.36,.16-.36,.36s.16,.36,.36,.36h1.03c.2,0,.36-.16,.36-.36s-.16-.36-.36-.36Z"/>
      <path class="cls-4" d="M160.42,201.22h-1.03c-.2,0-.36,.16-.36,.36s.16,.36,.36,.36h1.03c.2,0,.36-.16,.36-.36s-.16-.36-.36-.36Z"/>
      <path class="cls-4" d="M159.39,200.69h1.03c.2,0,.36-.16,.36-.36s-.16-.36-.36-.36h-1.03c-.2,0-.36,.16-.36,.36s.16,.36,.36,.36Z"/>
    </g>
  </g>
</svg>