<svg id="Layer_1" data-name="Layer 1" xmlns="http://www.w3.org/2000/svg" viewBox="0 0 237.27997 235.89001"><defs><style>.cls-1{fill:#3f4642;}.cls-2{fill:#555a57;}.cls-3{fill:#8b7866;}.cls-4{fill:#7f8c8d;}.cls-5{fill:#d6dadb;}.cls-6{fill:#9e846d;}.cls-7{fill:#bdab9c;}.cls-8{fill:#fff;}.cls-9{fill:#eba900;}.cls-10{fill:#bcc3c4;}.cls-11{fill:#2a312d;}.cls-12{fill:#f8e6b7;}.cls-13{fill:#eaa800;}</style></defs><path class="cls-1" d="M102.19748,5.628v1.34a4.15471,4.15471,0,0,1-4.16,4.15h-4.54a4.15471,4.15471,0,0,1-4.16-4.15V5.628a118.64719,118.64719,0,0,0-10.6,235.89,22.33477,22.33477,0,0,1,34.07,0,118.648,118.648,0,0,0-10.61-235.89Zm-59.02,216.63a3.53255,3.53255,0,1,1-1.3-4.83A3.53348,3.53348,0,0,1,43.17746,222.258Zm-1.3-191.5a3.53255,3.53255,0,1,1,1.3-4.82A3.51952,3.51952,0,0,1,41.87747,30.758Zm35,182.6a10.59728,10.59728,0,0,1-18.62-.01,1.59738,1.59738,0,1,1,2.81-1.52,7.39823,7.39823,0,0,0,13-.01,1.60217,1.60217,0,0,1,2.81,1.54Zm-.64-7.97a1.6068,1.6068,0,0,1-2.17-.65,7.40281,7.40281,0,0,0-13,0,1.5974,1.5974,0,1,1-2.81-1.52,10.59276,10.59276,0,0,1,18.62,0A1.59942,1.59942,0,0,1,76.23746,205.388Zm38.42-2.17a10.59276,10.59276,0,0,1,18.62,0,1.6081,1.6081,0,0,1-.63995,2.17,1.65364,1.65364,0,0,1-.77.19,1.58852,1.58852,0,0,1-1.4-.84,7.4028,7.4028,0,0,0-13,0,1.5974,1.5974,0,1,1-2.81-1.52Zm18.62,10.14a10.59727,10.59727,0,0,1-18.62-.01,1.59739,1.59739,0,1,1,2.81-1.52,7.39822,7.39822,0,0,0,13-.01,1.60217,1.60217,0,0,1,2.81,1.54Zm73.8-85.73a3.53,3.53,0,1,1,3.53-3.53A3.52947,3.52947,0,0,1,207.07742,127.628Z" transform="translate(22.87253 -5.62801)"/><path class="cls-2" d="M29.41745,25.748a118.47988,118.47988,0,0,0-52,90.06l53.72,3.76a63.88089,63.88089,0,0,1,4.6-19.85c-.18-.09-.36-.18-.54-.28a9.00068,9.00068,0,0,1,9-15.59,5.9575,5.9575,0,0,1,.53.34,63.68871,63.68871,0,0,1,14.81-13.81Z" transform="translate(22.87253 -5.62801)"/><path class="cls-2" d="M214.11025,115.80646A118.4799,118.4799,0,0,0,162.116,25.74314L131.99972,70.38605a63.881,63.881,0,0,1,14.89065,13.90872c.16791-.1109.33587-.22176.51245-.32765a9.00068,9.00068,0,0,1,9.00136,15.58924,5.95589,5.95589,0,0,1-.55946.28895,63.68845,63.68845,0,0,1,4.55481,19.73083Z" transform="translate(22.87253 -5.62801)"/><path class="cls-2" d="M162.11537,222.43788a118.47994,118.47994,0,0,0,52-90.06l-53.72-3.76a63.881,63.881,0,0,1-4.6,19.85c.18.09.36.18.54.28a9.00068,9.00068,0,0,1-9,15.59,5.95595,5.95595,0,0,1-.53-.34,63.68851,63.68851,0,0,1-14.81,13.81Z" transform="translate(22.87253 -5.62801)"/><path class="cls-2" d="M-22.57838,132.3811a118.47992,118.47992,0,0,0,51.99424,90.06332l30.11628-44.64291A63.88118,63.88118,0,0,1,44.64149,163.8928c-.16791.1109-.33587.22176-.51245.32765a9.00068,9.00068,0,0,1-9.00135-15.58924,5.95572,5.95572,0,0,1,.55945-.28895,63.68851,63.68851,0,0,1-4.55481-19.73084Z" transform="translate(22.87253 -5.62801)"/><path class="cls-2" d="M147.77743,17.438l-23.61,48.42a63.72429,63.72429,0,0,0-19.36-5.92q.02994-.315.03-.63a9,9,0,0,0-18,0c0,.21.01.41.02.61a63.98875,63.98875,0,0,0-19.49,5.94l-23.61-48.42A117.90923,117.90923,0,0,1,89.33743,5.628v1.34a4.15471,4.15471,0,0,0,4.16,4.15h4.54a4.15471,4.15471,0,0,0,4.16-4.15V5.628A117.90923,117.90923,0,0,1,147.77743,17.438Z" transform="translate(22.87253 -5.62801)"/><path class="cls-3" d="M46.14862,224.037l3.24219-3.49219,1.14355.54394-.64648,4.72852-1.08008-.51465.17285-.94824-1.18164-.5625-.6084.74121Zm3.31055-2.26758-1.08887,1.32617.77734.37012Z" transform="translate(22.87253 -5.62801)"/><path class="cls-3" d="M52.42987,221.96175l1.6875.71582c1.1582.49121,1.3457,1.26953,1.00391,2.07422a1.44266,1.44266,0,0,1-1.22168.96387l.168,1.8789-1.22363-.51855-.06836-1.59375-.52148-.22168-.5625,1.32617-1.03711-.43945Zm1.58789,2.33008c.1582-.374.10156-.61816-.38086-.82227l-.52832-.22461-.502,1.18457.54687.23243A.58394.58394,0,0,0,54.01776,224.29183Z" transform="translate(22.87253 -5.62801)"/><path class="cls-3" d="M56.46307,223.65609l1.39356.52343c1.59082.59668,1.83886,1.54883,1.33789,2.88379a2.01593,2.01593,0,0,1-2.92774,1.37305l-1.40136-.52539Zm.73145,1.25293-.94824,2.52734.39941.14941c.87109.32715,1.13477-.17871,1.40527-.89941.3125-.83105.39453-1.30762-.54883-1.66211Z" transform="translate(22.87253 -5.62801)"/><path class="cls-3" d="M63.06463,225.995l1.03125.3379-.93164,2.84082a1.5872,1.5872,0,0,1-2.252.97851,1.53756,1.53756,0,0,1-1.17187-2.1084l.92871-2.834,1.07129.35058-.86426,2.63477c-.23535.71875-.03711.96777.36914,1.10059.48535.16015.7373-.001.95312-.65918Z" transform="translate(22.87253 -5.62801)"/><path class="cls-3" d="M63.9953,230.08382l1.13281.32031.73242-2.58984-1.13281-.32031.25391-.89649,3.3584.94922-.25391.89746-1.13965-.32226-.73242,2.58984,1.13965.32227-.25293.89649-3.35938-.94923Z" transform="translate(22.87253 -5.62801)"/><path class="cls-3" d="M69.133,232.43734l-1.03418-.2461,1.05176-4.42382,1.19043.2832.80567,2.99512.63086-2.65332,1.0205.24218-1.05175,4.42383-1.10938-.26367-.83789-3.19043Z" transform="translate(22.87253 -5.62801)"/><path class="cls-3" d="M76.80682,231.7391c-.25,1.291-.91894,2.209-2.35351,1.93066-1.28418-.24805-1.72461-1.1377-1.43946-2.61425.25977-1.34571.96778-2.2422,2.32032-1.98048C76.60467,229.32113,77.13592,230.036,76.80682,231.7391Zm-1.1748-.22754c.21191-1.0918.18066-1.41114-.47168-1.53711-.59082-.11426-.76074.21679-.97266,1.30761-.17383.90039-.19922,1.36524.43945,1.48829C75.27264,232.89535,75.43378,232.54183,75.632,231.51156Z" transform="translate(22.87253 -5.62801)"/><path class="cls-3" d="M77.8,231.27523a1.685,1.685,0,1,1,3.332.499,1.67089,1.67089,0,0,1-1.93067,1.44629A1.70172,1.70172,0,0,1,77.8,231.27523Zm3.0205.45215a1.39755,1.39755,0,0,0-1.15136-1.624,1.33742,1.33742,0,0,0-1.55664,1.21875,1.36942,1.36942,0,0,0,1.13086,1.6211A1.328,1.328,0,0,0,80.82049,231.72738ZM78.76,230.35628l.90039.13477c.67187.10058.87109.42773.80957.83691a.65612.65612,0,0,1-.4502.54883l.23731.82129-.69922-.10449-.124-.68457-.25-.03711-.09668.65136-.6377-.0957Zm.69726,1.11035c.1875.02832.31543-.02343.34766-.23828.02539-.17284-.02441-.26562-.27344-.30273l-.20117-.03027-.081.54Z" transform="translate(22.87253 -5.62801)"/><path class="cls-4" d="M94.79164,65.84068a1.96145,1.96145,0,0,0-.1355-.71833H96.872a1.96145,1.96145,0,0,0-.1355.71833,1.84481,1.84481,0,0,0,.14228.725H94.64936A1.84481,1.84481,0,0,0,94.79164,65.84068Z" transform="translate(22.87253 -5.62801)"/><path class="cls-5" d="M96.73649,65.84068a1.96145,1.96145,0,0,1,.1355-.71833h.36595v1.44337h-.35917A1.84481,1.84481,0,0,1,96.73649,65.84068Z" transform="translate(22.87253 -5.62801)"/><path class="cls-5" d="M94.297,66.56572V65.12235h.35917a1.96145,1.96145,0,0,1,.1355.71833,1.84481,1.84481,0,0,1-.14228.725Z" transform="translate(22.87253 -5.62801)"/><rect class="cls-5" x="115.18408" y="53.02491" width="1.83825" height="1.31704"/><rect class="cls-5" x="115.18408" y="50.48814" width="1.83825" height="1.31704"/><rect class="cls-5" x="115.18408" y="55.56169" width="1.83825" height="1.31704"/><rect class="cls-5" x="120.25763" y="53.02491" width="1.83825" height="1.31704"/><rect class="cls-5" x="120.25763" y="50.48814" width="1.83825" height="1.31704"/><rect class="cls-5" x="120.25763" y="55.56169" width="1.83825" height="1.31704"/><rect class="cls-6" x="116.10321" y="51.14666" width="5.07355" height="5.07355"/><rect class="cls-7" x="117.02234" y="52.06578" width="3.2353" height="3.2353"/><circle class="cls-8" cx="118.63998" cy="53.68343" r="1.83331"/><path class="cls-4" d="M145.72685,94.12155a1.96144,1.96144,0,0,0,.55435-.47651l1.10792,1.919a1.96151,1.96151,0,0,0-.68984.24182,1.84505,1.84505,0,0,0-.55676.48574l-1.11471-1.93073A1.84488,1.84488,0,0,0,145.72685,94.12155Z" transform="translate(22.87253 -5.62801)"/><path class="cls-5" d="M146.69928,95.80584a1.96151,1.96151,0,0,1,.68984-.24182l.183.31692-1.25.72169-.17958-.31105A1.84505,1.84505,0,0,1,146.69928,95.80584Z" transform="translate(22.87253 -5.62801)"/><path class="cls-5" d="M144.85162,94.05568l1.25-.72169.17958.311a1.96144,1.96144,0,0,1-.55435.47651,1.84488,1.84488,0,0,1-.699.2393Z" transform="translate(22.87253 -5.62801)"/><rect class="cls-5" x="149.68173" y="88.84658" width="1.83825" height="1.31704" transform="translate(175.68665 -91.29963) rotate(60)"/><rect class="cls-5" x="151.87865" y="87.57819" width="1.83825" height="1.31704" transform="translate(175.68665 -93.83641) rotate(60)"/><rect class="cls-5" x="147.48482" y="90.11497" width="1.83825" height="1.31704" transform="translate(175.68665 -88.76286) rotate(60)"/><rect class="cls-5" x="152.21851" y="93.24041" width="1.83825" height="1.31704" transform="translate(180.7602 -91.29963) rotate(60)"/><rect class="cls-5" x="154.41542" y="91.97202" width="1.83825" height="1.31704" transform="translate(180.7602 -93.83641) rotate(60)"/><rect class="cls-5" x="150.0216" y="94.50879" width="1.83825" height="1.31704" transform="translate(180.7602 -88.76286) rotate(60)"/><rect class="cls-6" x="149.33247" y="89.16524" width="5.07355" height="5.07355" transform="translate(178.22343 -91.29963) rotate(60)"/><rect class="cls-7" x="150.2516" y="90.08437" width="3.2353" height="3.2353" transform="matrix(0.5, 0.86603, -0.86603, 0.5, 178.22343, -91.29963)"/><circle class="cls-8" cx="174.74178" cy="86.074" r="1.83331"/><path class="cls-4" d="M146.70392,152.37368a1.96151,1.96151,0,0,0,.68984.24182l-1.10792,1.919a1.96144,1.96144,0,0,0-.55435-.47651,1.84488,1.84488,0,0,0-.699-.2393l1.11471-1.93073A1.84478,1.84478,0,0,0,146.70392,152.37368Z" transform="translate(22.87253 -5.62801)"/><path class="cls-5" d="M145.73149,154.058a1.96144,1.96144,0,0,1,.55435.47651l-.183.31692-1.25-.72168.17958-.311A1.84488,1.84488,0,0,1,145.73149,154.058Z" transform="translate(22.87253 -5.62801)"/><path class="cls-5" d="M146.32335,151.58277l1.25.72169-.17959.311a1.96151,1.96151,0,0,1-.68984-.24182,1.84478,1.84478,0,0,1-.55676-.48574Z" transform="translate(22.87253 -5.62801)"/><rect class="cls-5" x="152.21976" y="153.62795" width="1.83825" height="1.31704" transform="translate(386.19686 93.17953) rotate(120)"/><rect class="cls-5" x="154.41667" y="154.89634" width="1.83825" height="1.31704" transform="translate(390.59069 93.17953) rotate(120)"/><rect class="cls-5" x="150.02285" y="152.35956" width="1.83825" height="1.31704" transform="translate(381.80304 93.17953) rotate(120)"/><rect class="cls-5" x="149.68298" y="158.02177" width="1.83825" height="1.31704" transform="translate(386.19686 101.96718) rotate(120)"/><rect class="cls-5" x="151.8799" y="159.29016" width="1.83825" height="1.31704" transform="translate(390.59069 101.96718) rotate(120)"/><rect class="cls-5" x="147.48607" y="156.75339" width="1.83825" height="1.31704" transform="translate(381.80304 101.96718) rotate(120)"/><rect class="cls-6" x="149.33372" y="153.94661" width="5.07355" height="5.07355" transform="translate(386.19686 97.57335) rotate(120)"/><rect class="cls-7" x="150.25285" y="154.86573" width="3.2353" height="3.2353" transform="translate(386.19686 97.57335) rotate(120)"/><circle class="cls-8" cx="174.74303" cy="150.85537" r="1.83331"/><path class="cls-4" d="M44.83155,95.81193a1.96166,1.96166,0,0,0-.68984-.24183l1.10792-1.919a1.96174,1.96174,0,0,0,.55435.47651,1.84493,1.84493,0,0,0,.699.2393l-1.11471,1.93072A1.84477,1.84477,0,0,0,44.83155,95.81193Z" transform="translate(22.87253 -5.62801)"/><path class="cls-5" d="M45.804,94.12764a1.96174,1.96174,0,0,1-.55435-.47651l.183-.31693,1.25.72169-.17958.311A1.84493,1.84493,0,0,1,45.804,94.12764Z" transform="translate(22.87253 -5.62801)"/><path class="cls-5" d="M45.21212,96.60284l-1.25-.72169.17958-.31105a1.96166,1.96166,0,0,1,.68984.24183,1.84477,1.84477,0,0,1,.55676.48573Z" transform="translate(22.87253 -5.62801)"/><rect class="cls-5" x="37.47746" y="93.24062" width="1.83825" height="1.31704" transform="matrix(0.5, -0.86603, 0.86603, 0.5, -39.24822, 74.57398)"/><rect class="cls-5" x="35.28055" y="91.97223" width="1.83825" height="1.31704" transform="translate(-39.24822 72.0372) rotate(-60)"/><rect class="cls-5" x="39.67437" y="94.50901" width="1.83825" height="1.31704" transform="matrix(0.5, -0.86603, 0.86603, 0.5, -39.24822, 77.11076)"/><rect class="cls-5" x="40.01424" y="88.84679" width="1.83825" height="1.31704" transform="matrix(0.5, -0.86603, 0.86603, 0.5, -34.17466, 74.57398)"/><rect class="cls-5" x="37.81732" y="87.5784" width="1.83825" height="1.31704" transform="matrix(0.5, -0.86603, 0.86603, 0.5, -34.17466, 72.0372)"/><rect class="cls-5" x="42.21115" y="90.11518" width="1.83825" height="1.31704" transform="translate(-34.17466 77.11076) rotate(-60)"/><rect class="cls-6" x="37.1282" y="89.16545" width="5.07355" height="5.07355" transform="matrix(0.5, -0.86603, 0.86603, 0.5, -36.71144, 74.57398)"/><rect class="cls-7" x="38.04733" y="90.08458" width="3.2353" height="3.2353" transform="translate(-36.71144 74.57398) rotate(-60)"/><circle class="cls-8" cx="62.5375" cy="86.07421" r="1.83331"/><path class="cls-4" d="M45.80817,154.06524a1.96144,1.96144,0,0,0-.55435.47651l-1.10792-1.919a1.9616,1.9616,0,0,0,.68984-.24183,1.84488,1.84488,0,0,0,.55676-.48573l1.1147,1.93073A1.84454,1.84454,0,0,0,45.80817,154.06524Z" transform="translate(22.87253 -5.62801)"/><path class="cls-5" d="M44.83574,152.38094a1.9616,1.9616,0,0,1-.68984.24183l-.183-.31692,1.25-.72169.17958.311A1.84488,1.84488,0,0,1,44.83574,152.38094Z" transform="translate(22.87253 -5.62801)"/><path class="cls-5" d="M46.6834,154.13111l-1.25.72168-.17958-.311a1.96144,1.96144,0,0,1,.55435-.47651,1.84454,1.84454,0,0,1,.699-.2393Z" transform="translate(22.87253 -5.62801)"/><rect class="cls-5" x="40.01503" y="158.02316" width="1.83825" height="1.31704" transform="translate(-53.14861 267.84454) rotate(-120)"/><rect class="cls-5" x="37.81812" y="159.29155" width="1.83825" height="1.31704" transform="translate(-57.54243 267.84454) rotate(-120)"/><rect class="cls-5" x="42.21194" y="156.75478" width="1.83825" height="1.31704" transform="translate(-48.75478 267.84454) rotate(-120)"/><rect class="cls-5" x="37.47825" y="153.62934" width="1.83825" height="1.31704" transform="translate(-53.14861 259.05689) rotate(-120)"/><rect class="cls-5" x="35.28134" y="154.89773" width="1.83825" height="1.31704" transform="translate(-57.54243 259.05689) rotate(-120)"/><rect class="cls-5" x="39.67517" y="152.36095" width="1.83825" height="1.31704" transform="translate(-48.75478 259.05689) rotate(-120)"/><rect class="cls-6" x="37.12899" y="153.948" width="5.07355" height="5.07355" transform="translate(-53.14861 263.45071) rotate(-120)"/><rect class="cls-7" x="38.04812" y="154.86712" width="3.2353" height="3.2353" transform="translate(-53.14861 263.45071) rotate(-120)"/><circle class="cls-8" cx="62.5383" cy="150.85676" r="1.83331"/><circle class="cls-6" cx="62.80669" cy="165.70812" r="3.26967"/><circle class="cls-6" cx="18.72469" cy="165.70812" r="3.26967"/><circle class="cls-6" cx="174.47191" cy="165.70812" r="3.26967"/><circle class="cls-6" cx="218.55391" cy="165.70812" r="3.26967"/><rect class="cls-5" x="87.82497" y="217.67356" width="3.5978" height="9.20301" transform="translate(202.12027 438.92213) rotate(180)"/><circle class="cls-9" cx="112.4964" cy="216.64704" r="2.69128"/><g id="Artwork_3" data-name="Artwork 3"><path class="cls-4" d="M104.16459,217.936h1.35959a.02123.02123,0,0,1,.02123.02123v1.35983a.02123.02123,0,0,1-.02123.02123h-1.35959a.02117.02117,0,0,1-.02117-.02117V217.9572A.02117.02117,0,0,1,104.16459,217.936Z"/><path class="cls-4" d="M104.16458,216.39739h1.35959a.02123.02123,0,0,1,.02123.02123v1.35983a.02123.02123,0,0,1-.02123.02123h-1.35959a.02117.02117,0,0,1-.02117-.02117v-1.35995A.02117.02117,0,0,1,104.16458,216.39739Z"/><path class="cls-10" d="M81.38561,222.92348l-.00043,0-.00008.57181,0,.0468-.00008.571h.00468a.58259.58259,0,0,0,1.16463.00016h.00426l.00008-.571,0-.0468.00008-.57181a.58657.58657,0,1,0-1.17314-.00016Z" transform="translate(22.87253 -5.62801)"/><rect class="cls-11" x="104.25763" y="217.42813" width="1.17357" height="0.86793"/></g><g id="Artwork_3-2" data-name="Artwork 3"><path class="cls-4" d="M106.75651,217.936h1.35958a.02123.02123,0,0,1,.02123.02123v1.35983a.02123.02123,0,0,1-.02123.02123h-1.35959a.02117.02117,0,0,1-.02117-.02117V217.9572A.02117.02117,0,0,1,106.75651,217.936Z"/><path class="cls-4" d="M106.75651,216.39739h1.35959a.02123.02123,0,0,1,.02123.02123v1.35983a.02123.02123,0,0,1-.02123.02123h-1.35959a.02117.02117,0,0,1-.02117-.02117v-1.35995a.02117.02117,0,0,1,.02117-.02117Z"/><path class="cls-10" d="M83.97753,222.92348l-.00043,0-.00008.57181,0,.0468-.00007.571h.00468a.58259.58259,0,0,0,1.16463.00016h.00425l.00008-.571,0-.0468.00008-.57181a.58657.58657,0,1,0-1.17314-.00016Z" transform="translate(22.87253 -5.62801)"/><rect class="cls-11" x="106.84955" y="217.42813" width="1.17357" height="0.86793"/></g><rect class="cls-5" x="122.98405" y="212.04555" width="3.5978" height="9.20301"/><circle class="cls-9" cx="124.78295" cy="216.64704" r="2.69128"/><g id="Artwork_3-3" data-name="Artwork 3"><path class="cls-4" d="M131.75512,217.936h1.35964a.02117.02117,0,0,1,.02117.02117v1.35988a.02123.02123,0,0,1-.02123.02123h-1.35959a.02117.02117,0,0,1-.02117-.02117V217.9572a.02117.02117,0,0,1,.02117-.02117Z"/><path class="cls-4" d="M131.75512,216.39739h1.35959a.02123.02123,0,0,1,.02123.02123v1.35983a.02123.02123,0,0,1-.02123.02123h-1.35959a.02117.02117,0,0,1-.02117-.02117v-1.35995A.02117.02117,0,0,1,131.75512,216.39739Z"/><path class="cls-10" d="M110.14869,222.92348l.00043,0,.00007.57181,0,.0468.00008.571h-.00468a.58259.58259,0,0,1-1.16463.00016h-.00426l-.00008-.571v-.0468l-.00008-.57181a.58657.58657,0,1,1,1.17314-.00016Z" transform="translate(22.87253 -5.62801)"/><rect class="cls-11" x="131.84816" y="217.42813" width="1.17357" height="0.86793"/></g><g id="Artwork_3-4" data-name="Artwork 3"><path class="cls-4" d="M129.1632,217.936h1.35959a.02123.02123,0,0,1,.02123.02123v1.35983a.02123.02123,0,0,1-.02123.02123h-1.35953a.02123.02123,0,0,1-.02123-.02123V217.9572a.02117.02117,0,0,1,.02117-.02117Z"/><path class="cls-4" d="M129.1632,216.39739h1.35965a.02117.02117,0,0,1,.02117.02117v1.35989a.02123.02123,0,0,1-.02123.02123H129.1632a.02117.02117,0,0,1-.02117-.02117v-1.35995a.02117.02117,0,0,1,.02117-.02117Z"/><path class="cls-10" d="M107.55677,222.92348l.00042,0,.00008.57181,0,.0468.00008.571h-.00468a.58259.58259,0,0,1-1.16463.00016h-.00426l-.00008-.571v-.0468l-.00008-.57181a.58657.58657,0,1,1,1.17314-.00016Z" transform="translate(22.87253 -5.62801)"/><rect class="cls-11" x="129.25624" y="217.42813" width="1.17357" height="0.86793"/></g><g id="Artwork_3-5" data-name="Artwork 3"><path class="cls-4" d="M124.98529,202.19976h1.35988a.02123.02123,0,0,1,.02123.02123v1.35953a.02123.02123,0,0,1-.02123.02123h-1.35989a.02117.02117,0,0,1-.02117-.02117v-1.35964A.02117.02117,0,0,1,124.98529,202.19976Z"/><path class="cls-4" d="M126.52392,202.19977h1.35989a.02123.02123,0,0,1,.02123.02123v1.35953a.02123.02123,0,0,1-.02123.02123H126.524a.02123.02123,0,0,1-.02123-.02123v-1.35959a.02117.02117,0,0,1,.02117-.02117Z"/><path class="cls-10" d="M104.13444,209.115v.00043l-.57181.00008-.0468,0-.571.00007V209.111a.58259.58259,0,0,1-.00016-1.16463v-.00425l.571-.00008.0468,0,.5718-.00008a.58657.58657,0,1,1,.00017,1.17314Z" transform="translate(22.87253 -5.62801)"/><rect class="cls-11" x="126.00637" y="202.31397" width="0.86793" height="1.17357"/></g><rect class="cls-11" x="116.84855" y="199.94713" width="7.16575" height="5.90726"/><rect class="cls-11" x="113.26567" y="199.94713" width="2.75343" height="5.90726"/><circle class="cls-12" cx="121.92829" cy="202.90076" r="1.07789"/><path class="cls-13" d="M99.05524,207.77125a.75623.75623,0,1,0,.75622.75622A.75532.75532,0,0,0,99.05524,207.77125Zm0,1.27916a.52189.52189,0,0,1-.52294-.52294.523.523,0,0,1,1.04583,0A.52189.52189,0,0,1,99.05524,209.05041Z" transform="translate(22.87253 -5.62801)"/><circle class="cls-12" cx="114.64238" cy="202.90076" r="1.07789"/><path class="cls-13" d="M91.76934,207.77125a.75623.75623,0,1,0,.75622.75622A.75533.75533,0,0,0,91.76934,207.77125Zm0,1.27916a.52189.52189,0,0,1-.52294-.52294.523.523,0,0,1,1.04583,0A.52189.52189,0,0,1,91.76934,209.05041Z" transform="translate(22.87253 -5.62801)"/><path class="cls-4" d="M102.3973,203.21554a1.96145,1.96145,0,0,0,.71833-.1355v2.21585a1.96145,1.96145,0,0,0-.71833-.1355,1.84481,1.84481,0,0,0-.725.14228v-2.22941A1.84481,1.84481,0,0,0,102.3973,203.21554Z" transform="translate(22.87253 -5.62801)"/><path class="cls-5" d="M102.3973,205.16039a1.96145,1.96145,0,0,1,.71833.1355v.36595h-1.44337v-.35917A1.84481,1.84481,0,0,1,102.3973,205.16039Z" transform="translate(22.87253 -5.62801)"/><path class="cls-5" d="M101.67226,202.72087h1.44337V203.08a1.96145,1.96145,0,0,1-.71833.1355,1.84481,1.84481,0,0,1-.725-.14228Z" transform="translate(22.87253 -5.62801)"/><path class="cls-4" d="M104.7335,203.21554a1.96145,1.96145,0,0,0,.71833-.1355v2.21585a1.96145,1.96145,0,0,0-.71833-.1355,1.84481,1.84481,0,0,0-.725.14228v-2.22941A1.84481,1.84481,0,0,0,104.7335,203.21554Z" transform="translate(22.87253 -5.62801)"/><path class="cls-5" d="M104.7335,205.16039a1.96145,1.96145,0,0,1,.71833.1355v.36595h-1.44337v-.35917A1.84481,1.84481,0,0,1,104.7335,205.16039Z" transform="translate(22.87253 -5.62801)"/><path class="cls-5" d="M104.00846,202.72087h1.44337V203.08a1.96145,1.96145,0,0,1-.71833.1355,1.84481,1.84481,0,0,1-.725-.14228Z" transform="translate(22.87253 -5.62801)"/><rect class="cls-11" x="87.67616" y="199.88965" width="5.53076" height="5.53076"/><rect x="89.66358" y="202.03786" width="2.89887" height="2.89887"/><rect class="cls-11" x="121.20048" y="205.51766" width="5.53076" height="5.53076" transform="translate(270.80425 410.93807) rotate(-180)"/><rect x="121.84495" y="207.66587" width="2.89887" height="2.89887" transform="translate(269.46129 412.60259) rotate(-180)"/><g id="traccia-loop"><path class="cls-3" d="M28.66815,216.806a5.43208,5.43208,0,0,1-.55772-.50695,6.21391,6.21391,0,0,1-1.5322-4.68082c.00068-.01857.00156-.0374.00291-.05629a6.31888,6.31888,0,0,1-4.962-.39742,5.46978,5.46978,0,0,1-.62306-.427,4.73088,4.73088,0,1,1,5.86809-7.41489,5.245,5.245,0,0,1,.55589.50765,6.15794,6.15794,0,0,1,1.54,4.49q-.00252.12156-.01071.24543a6.30265,6.30265,0,0,1,4.96144.39914,5.17164,5.17164,0,0,1,.62174.42386,4.7307,4.7307,0,1,1-5.86448,7.4173Zm-.04919-6.06885-.10438.63116a2.76392,2.76392,0,0,0-.03613.33232,4.46822,4.46822,0,0,0,1.00918,3.28674,3.52562,3.52562,0,0,0,.36054.3268,2.83043,2.83043,0,1,0,3.50443-4.43364,3.28244,3.28244,0,0,0-.39643-.27069,4.54678,4.54678,0,0,0-3.59937-.18069Zm-2.93477-5.9227a2.83061,2.83061,0,1,0-3.508,4.43121,3.55769,3.55769,0,0,0,.40208.27644,4.56371,4.56371,0,0,0,3.59809.17585l.73789-.30966.08707-.52555a4.05389,4.05389,0,0,0,.05727-.5818,4.26055,4.26055,0,0,0-1.01862-3.14222A3.34349,3.34349,0,0,0,25.68419,204.81442Z" transform="translate(22.87253 -5.62801)"/></g><rect class="cls-3" x="23.38696" y="205.3284" width="1.11489" height="3.45885" transform="translate(-130.43373 91.75538) rotate(-51.65626)"/><polygon class="cls-3" points="54.456 208.183 55.373 208.908 56.065 208.034 55.147 207.308 55.875 206.388 54.999 205.695 54.271 206.615 53.352 205.889 52.661 206.763 53.579 207.49 52.851 208.41 53.728 209.103 54.456 208.183"/><circle class="cls-6" cx="151.16992" cy="96.88684" r="3.23272"/><circle class="cls-6" cx="101.79595" cy="87.00274" r="3.23272"/><circle class="cls-6" cx="92.64248" cy="136.87962" r="3.23272"/><g id="Artwork_3-6" data-name="Artwork 3"><path class="cls-4" d="M86.85131,102.32685h1.35989a.02123.02123,0,0,1,.02123.02123v1.35953a.02123.02123,0,0,1-.02123.02123H86.85131a.02117.02117,0,0,1-.02117-.02117V102.348A.02117.02117,0,0,1,86.85131,102.32685Z"/><path class="cls-4" d="M88.38995,102.32686h1.35989a.02123.02123,0,0,1,.02123.02123v1.35953a.02123.02123,0,0,1-.02123.02123H88.39a.02123.02123,0,0,1-.02123-.02123V102.348A.02117.02117,0,0,1,88.38995,102.32686Z"/><path class="cls-10" d="M66.00046,109.24213v.00043l-.57181.00008h-.0468l-.571.00008V109.238a.58259.58259,0,0,1-.00016-1.16463v-.00425l.571-.00008.0468,0,.57181-.00008a.58657.58657,0,1,1,.00016,1.17314Z" transform="translate(22.87253 -5.62801)"/><rect class="cls-11" x="87.8724" y="102.44106" width="0.86793" height="1.17357"/></g><g id="Artwork_3-7" data-name="Artwork 3"><path class="cls-4" d="M134.35968,124.13536h1.35989a.02123.02123,0,0,1,.02123.02123v1.35953a.02123.02123,0,0,1-.02123.02123h-1.35989a.02117.02117,0,0,1-.02117-.02117v-1.35965A.02117.02117,0,0,1,134.35968,124.13536Z"/><path class="cls-4" d="M135.89832,124.13536h1.35995a.02117.02117,0,0,1,.02117.02117v1.35959a.02123.02123,0,0,1-.02123.02123h-1.35989a.02117.02117,0,0,1-.02117-.02117v-1.35965a.02117.02117,0,0,1,.02117-.02117Z"/><path class="cls-10" d="M113.50883,131.05064v.00043l-.5718.00007-.0468,0-.571.00008v-.00468a.58259.58259,0,0,1-.00016-1.16463v-.00426l.571-.00008h.0468l.5718-.00008a.58657.58657,0,1,1,.00016,1.17314Z" transform="translate(22.87253 -5.62801)"/><rect class="cls-11" x="135.38077" y="124.24957" width="0.86793" height="1.17357"/></g><g id="Artwork_3-8" data-name="Artwork 3"><path class="cls-4" d="M134.35968,126.77524h1.35988a.02123.02123,0,0,1,.02123.02123V128.156a.02123.02123,0,0,1-.02123.02123h-1.35989a.02117.02117,0,0,1-.02117-.02117v-1.35964a.02117.02117,0,0,1,.02117-.02117Z"/><path class="cls-4" d="M135.89832,126.77524h1.35995a.02117.02117,0,0,1,.02117.02117V128.156a.02123.02123,0,0,1-.02123.02123h-1.35989a.02117.02117,0,0,1-.02117-.02117v-1.35965a.02117.02117,0,0,1,.02117-.02117Z"/><path class="cls-10" d="M113.50883,133.69051v.00043l-.5718.00008-.0468,0-.571.00007v-.00468a.58259.58259,0,0,1-.00016-1.16463v-.00425l.571-.00008.0468,0,.5718-.00008a.58657.58657,0,1,1,.00016,1.17314Z" transform="translate(22.87253 -5.62801)"/><rect class="cls-11" x="135.38077" y="126.88944" width="0.86793" height="1.17357"/></g><g id="Artwork_3-9" data-name="Artwork 3"><path class="cls-4" d="M116.52087,128.06307h1.35988a.02123.02123,0,0,1,.02123.02123v1.35953a.02123.02123,0,0,1-.02123.02123h-1.35989a.02117.02117,0,0,1-.02117-.02117v-1.35964A.02117.02117,0,0,1,116.52087,128.06307Z"/><path class="cls-4" d="M118.05951,128.06307h1.35995a.02117.02117,0,0,1,.02117.02117v1.35959a.02123.02123,0,0,1-.02123.02123h-1.35983a.02123.02123,0,0,1-.02123-.02123v-1.35959a.02117.02117,0,0,1,.02117-.02117Z"/><path class="cls-10" d="M95.67,134.97835v.00043l-.57181.00008h-.0468l-.571.00008v-.00468a.58259.58259,0,0,1-.00016-1.16463v-.00426l.571-.00008h.0468l.57181-.00008a.58657.58657,0,1,1,.00016,1.17314Z" transform="translate(22.87253 -5.62801)"/><rect class="cls-11" x="117.54196" y="128.17728" width="0.86793" height="1.17357"/></g><g id="Artwork_3-10" data-name="Artwork 3"><path class="cls-4" d="M86.85131,104.91216h1.35989a.02123.02123,0,0,1,.02123.02123v1.35953a.02123.02123,0,0,1-.02123.02123H86.85131a.02117.02117,0,0,1-.02117-.02117v-1.35965A.02117.02117,0,0,1,86.85131,104.91216Z"/><path class="cls-4" d="M88.38995,104.91217h1.35989a.02123.02123,0,0,1,.02123.02123v1.35953a.02123.02123,0,0,1-.02123.02123H88.39a.02123.02123,0,0,1-.02123-.02123v-1.35959A.02117.02117,0,0,1,88.38995,104.91217Z"/><path class="cls-10" d="M66.00046,111.82744v.00043l-.57181.00008h-.0468l-.571.00008v-.00468a.58259.58259,0,0,1-.00016-1.16463v-.00425l.571-.00008.0468,0,.57181-.00008a.58657.58657,0,1,1,.00016,1.17314Z" transform="translate(22.87253 -5.62801)"/><rect class="cls-11" x="87.8724" y="105.02637" width="0.86793" height="1.17357"/></g><g id="Artwork_3-11" data-name="Artwork 3"><path class="cls-4" d="M86.85131,107.49747h1.35989a.02123.02123,0,0,1,.02123.02123v1.35953a.02123.02123,0,0,1-.02123.02123H86.85131a.02117.02117,0,0,1-.02117-.02117v-1.35965a.02117.02117,0,0,1,.02117-.02117Z"/><path class="cls-4" d="M88.38995,107.49748h1.35995a.02117.02117,0,0,1,.02117.02117v1.35959a.02123.02123,0,0,1-.02123.02123H88.38995a.02117.02117,0,0,1-.02117-.02117v-1.35965A.02117.02117,0,0,1,88.38995,107.49748Z"/><path class="cls-10" d="M66.00046,114.41275v.00043l-.57181.00008h-.0468l-.571.00008v-.00468a.58259.58259,0,0,1-.00016-1.16463v-.00426l.571-.00007.0468,0,.57181-.00008a.58657.58657,0,1,1,.00016,1.17314Z" transform="translate(22.87253 -5.62801)"/><rect class="cls-11" x="87.8724" y="107.61168" width="0.86793" height="1.17357"/></g><g id="Artwork_3-12" data-name="Artwork 3"><path class="cls-4" d="M86.85131,110.08278h1.35989a.02123.02123,0,0,1,.02123.02123v1.35953a.02123.02123,0,0,1-.02123.02123H86.85131a.02117.02117,0,0,1-.02117-.02117V110.104a.02117.02117,0,0,1,.02117-.02117Z"/><path class="cls-4" d="M88.38995,110.08279h1.35989a.02123.02123,0,0,1,.02123.02123v1.35953a.02123.02123,0,0,1-.02123.02123H88.39a.02123.02123,0,0,1-.02123-.02123V110.104A.02117.02117,0,0,1,88.38995,110.08279Z"/><path class="cls-10" d="M66.00046,116.99806v.00043l-.57181.00008h-.0468l-.571.00008V116.994a.58259.58259,0,0,1-.00016-1.16463v-.00426l.571-.00007.0468,0,.57181-.00008a.58657.58657,0,1,1,.00016,1.17314Z" transform="translate(22.87253 -5.62801)"/><rect class="cls-11" x="87.8724" y="110.19699" width="0.86793" height="1.17357"/></g><g id="Artwork_3-13" data-name="Artwork 3"><path class="cls-4" d="M86.85131,112.66809h1.35989a.02123.02123,0,0,1,.02123.02123v1.35953a.02123.02123,0,0,1-.02123.02123H86.85131a.02117.02117,0,0,1-.02117-.02117v-1.35965a.02117.02117,0,0,1,.02117-.02117Z"/><path class="cls-4" d="M88.38995,112.6681h1.35995a.02117.02117,0,0,1,.02117.02117v1.35959a.02123.02123,0,0,1-.02123.02123H88.39a.02123.02123,0,0,1-.02123-.02123v-1.35959A.02117.02117,0,0,1,88.38995,112.6681Z"/><path class="cls-10" d="M66.00046,119.58337v.00043l-.57181.00008h-.0468l-.571.00008v-.00468a.58259.58259,0,0,1-.00016-1.16463v-.00426l.571-.00007.0468,0,.57181-.00008a.58657.58657,0,1,1,.00016,1.17314Z" transform="translate(22.87253 -5.62801)"/><rect class="cls-11" x="87.8724" y="112.7823" width="0.86793" height="1.17357"/></g><g id="Artwork_3-14" data-name="Artwork 3"><path class="cls-4" d="M86.85131,115.2534h1.35989a.02123.02123,0,0,1,.02123.02123v1.35953a.02123.02123,0,0,1-.02123.02123H86.85137a.02123.02123,0,0,1-.02123-.02123v-1.35959A.02117.02117,0,0,1,86.85131,115.2534Z"/><path class="cls-4" d="M88.38995,115.2534h1.35989a.02123.02123,0,0,1,.02123.02123v1.35953a.02123.02123,0,0,1-.02123.02123H88.39a.02123.02123,0,0,1-.02123-.02123v-1.35959a.02117.02117,0,0,1,.02117-.02117Z"/><path class="cls-10" d="M66.00046,122.16868v.00043l-.57181.00008h-.0468l-.571.00008v-.00468A.58259.58259,0,0,1,64.81073,121v-.00426l.571-.00007.0468,0,.57181-.00008a.58657.58657,0,1,1,.00016,1.17314Z" transform="translate(22.87253 -5.62801)"/><rect class="cls-11" x="87.8724" y="115.36761" width="0.86793" height="1.17357"/></g><rect class="cls-11" x="114.37463" y="119.79502" width="8.56257" height="7.09436"/><rect class="cls-4" x="100.47426" y="113.55726" width="0.79941" height="2.06182"/><rect class="cls-4" x="102.15494" y="113.55726" width="0.79941" height="2.06182"/><rect class="cls-4" x="103.83563" y="113.55726" width="0.79941" height="2.06182"/><rect class="cls-4" x="105.51632" y="113.55726" width="0.79941" height="2.06182"/><rect class="cls-4" x="107.197" y="113.55726" width="0.79941" height="2.06182"/><rect class="cls-4" x="108.87769" y="113.55726" width="0.79941" height="2.06182"/><rect class="cls-4" x="110.55838" y="113.55726" width="0.79941" height="2.06182"/><rect class="cls-4" x="112.23906" y="113.55726" width="0.79941" height="2.06182"/><rect class="cls-4" x="113.91975" y="113.55726" width="0.79941" height="2.06182"/><rect class="cls-4" x="115.60044" y="113.55726" width="0.79941" height="2.06182"/><rect class="cls-4" x="117.28112" y="113.55726" width="0.79941" height="2.06182"/><rect class="cls-4" x="118.96181" y="113.55726" width="0.79941" height="2.06182"/><rect class="cls-4" x="120.64249" y="113.55726" width="0.79941" height="2.06182"/><rect class="cls-4" x="122.32318" y="113.55726" width="0.79941" height="2.06182"/><rect class="cls-4" x="124.00387" y="113.55726" width="0.79941" height="2.06182"/><rect class="cls-4" x="125.68455" y="113.55726" width="0.79941" height="2.06182"/><rect class="cls-4" x="127.36524" y="113.55726" width="0.79941" height="2.06182"/><rect class="cls-4" x="129.04593" y="113.55726" width="0.79941" height="2.06182"/><rect class="cls-4" x="130.72661" y="113.55726" width="0.79941" height="2.06182"/><rect class="cls-4" x="132.4073" y="113.55726" width="0.79941" height="2.06182"/><rect class="cls-4" x="134.08798" y="113.55726" width="0.79941" height="2.06182"/><rect class="cls-4" x="135.76867" y="113.55726" width="0.79941" height="2.06182"/><rect class="cls-4" x="99.25268" y="105.02631" width="1.0999" height="2.83684"/><rect class="cls-4" x="97.551" y="105.88348" width="1.0999" height="2.83684"/><rect class="cls-4" x="100.95437" y="105.02631" width="1.0999" height="2.83684"/><rect class="cls-4" x="102.65605" y="105.02631" width="1.0999" height="2.83684"/><rect class="cls-4" x="104.35774" y="105.02631" width="1.0999" height="2.83684"/><rect class="cls-4" x="106.05942" y="105.02631" width="1.0999" height="2.83684"/><rect class="cls-4" x="107.76111" y="105.02631" width="1.0999" height="2.83684"/><rect class="cls-4" x="109.46279" y="105.02631" width="1.0999" height="2.83684"/><rect class="cls-4" x="111.16448" y="105.02631" width="1.0999" height="2.83684"/><rect class="cls-4" x="112.86616" y="105.02631" width="1.0999" height="2.83684"/><rect class="cls-4" x="114.56785" y="105.02631" width="1.0999" height="2.83684"/><rect class="cls-4" x="116.26953" y="105.02631" width="1.0999" height="2.83684"/><rect class="cls-4" x="117.97122" y="105.02631" width="1.0999" height="2.83684"/><rect class="cls-4" x="119.67291" y="105.02631" width="1.0999" height="2.83684"/><rect class="cls-4" x="121.37459" y="105.02631" width="1.0999" height="2.83684"/><rect class="cls-4" x="123.07628" y="105.02631" width="1.0999" height="2.83684"/><rect class="cls-4" x="124.77796" y="105.02631" width="1.0999" height="2.83684"/><rect class="cls-4" x="126.47965" y="105.02631" width="1.0999" height="2.83684"/><rect class="cls-4" x="128.18133" y="105.02631" width="1.0999" height="2.83684"/><rect class="cls-4" x="129.88302" y="105.02631" width="1.0999" height="2.83684"/><rect class="cls-4" x="131.5847" y="105.02631" width="1.0999" height="2.83684"/><rect class="cls-4" x="133.28639" y="105.02631" width="1.0999" height="2.83684"/><rect class="cls-4" x="134.98807" y="105.02631" width="1.0999" height="2.83684"/><rect class="cls-4" x="136.68976" y="105.02631" width="1.0999" height="2.83684"/><rect class="cls-4" x="138.39144" y="105.88348" width="1.0999" height="2.83684"/><rect class="cls-11" x="98.10095" y="106.44473" width="40.84044" height="8.14344"/><rect class="cls-4" x="110.13233" y="130.57444" width="0.79941" height="4.05165"/><rect class="cls-4" x="111.53213" y="130.57444" width="0.79941" height="4.05165"/><rect class="cls-4" x="112.93193" y="130.57444" width="0.79941" height="4.05165"/><rect class="cls-4" x="114.33173" y="130.57444" width="0.79941" height="4.05165"/><rect class="cls-4" x="115.73153" y="130.57444" width="0.79941" height="4.05165"/><rect class="cls-4" x="117.13133" y="130.57444" width="0.79941" height="4.05165"/><rect class="cls-4" x="118.53114" y="130.57444" width="0.79941" height="4.05165"/><rect class="cls-4" x="119.93094" y="130.57444" width="0.79941" height="4.05165"/><rect class="cls-4" x="121.33074" y="130.57444" width="0.79941" height="4.05165"/><rect class="cls-4" x="122.73054" y="130.57444" width="0.79941" height="4.05165"/><rect class="cls-4" x="124.13034" y="130.57444" width="0.79941" height="4.05165"/><rect class="cls-4" x="125.53014" y="130.57444" width="0.79941" height="4.05165"/><rect class="cls-4" x="126.92994" y="130.57444" width="0.79941" height="4.05165"/><rect class="cls-4" x="128.32974" y="130.57444" width="0.79941" height="4.05165"/><rect class="cls-4" x="129.72954" y="130.57444" width="0.79941" height="4.05165"/><rect class="cls-4" x="131.12934" y="130.57444" width="0.79941" height="4.05165"/><rect class="cls-4" x="132.52914" y="130.57444" width="0.79941" height="4.05165"/><rect class="cls-4" x="133.92894" y="130.57444" width="0.79941" height="4.05165"/><rect class="cls-4" x="135.32874" y="130.57444" width="0.79941" height="4.05165"/><rect class="cls-4" x="136.72854" y="130.57444" width="0.79941" height="4.05165"/><rect class="cls-4" x="138.12834" y="130.57444" width="0.79941" height="4.05165"/><rect class="cls-4" x="139.52814" y="130.57444" width="0.79941" height="4.05165"/><rect class="cls-4" x="140.92794" y="130.57444" width="0.79941" height="4.05165"/><rect class="cls-4" x="142.32774" y="130.57444" width="0.79941" height="4.05165"/><polygon class="cls-4" points="108.958 132.484 108.958 138.474 105.848 138.474 105.848 136.434 101.888 136.434 101.888 133.754 103.828 133.754 103.828 132.484 108.958 132.484"/><polygon class="cls-4" points="144.302 132.484 144.302 138.474 147.412 138.474 147.412 136.434 151.372 136.434 151.372 133.754 149.432 133.754 149.432 132.484 144.302 132.484"/><rect class="cls-5" x="102.21419" y="139.38386" width="48.8311" height="4.94866"/><rect class="cls-8" x="103.42622" y="133.38037" width="46.40704" height="8.86122"/><rect class="cls-5" x="103.42622" y="133.38037" width="3.37465" height="4.43061"/><rect class="cls-5" x="146.45861" y="133.38037" width="3.37465" height="4.43061"/><path d="M57.40634,85.07941s-6.04182,17.79015-7.98145,23.7448c-1.98216,6.0852-3.65012,11.57309-3.65012,25.338a49.99065,49.99065,0,1,0,99.9813,0c0-13.76494-1.668-19.25283-3.65013-25.338-1.93963-5.95465-7.98144-23.7448-7.98144-23.7448Z" transform="translate(22.87253 -5.62801)"/><rect class="cls-5" x="118.40405" y="70.55072" width="11.7393" height="6.83598" transform="translate(271.41993 142.30941) rotate(180)"/><rect class="cls-6" x="127.53533" y="68.99288" width="1.69652" height="2.85518" transform="translate(279.6397 135.21293) rotate(180)"/><rect class="cls-6" x="125.29134" y="68.99288" width="1.69652" height="2.85518" transform="translate(275.15174 135.21293) rotate(180)"/><rect class="cls-6" x="123.04736" y="68.99288" width="1.69652" height="2.85518" transform="translate(270.66377 135.21293) rotate(180)"/><polygon class="cls-11" points="80.286 79.451 83.296 70.541 84.256 67.701 84.986 65.531 96.266 65.531 96.266 67.701 153.016 67.701 156.996 79.451 80.286 79.451"/><path class="cls-6" d="M72.21211,68.99288H121.9097a0,0,0,0,1,0,0v4.33623a0,0,0,0,1,0,0H76.54834a4.33623,4.33623,0,0,1-4.33623-4.33623v0a0,0,0,0,1,0,0Z" transform="translate(216.99435 136.69398) rotate(180)"/><path class="cls-8" d="M95.76761,34.67171a.99973.99973,0,0,1-1-1,8.72059,8.72059,0,0,1,8.71094-8.71142,8.94058,8.94058,0,0,1,1.085.06543,1,1,0,1,1-.24219,1.98535,6.95059,6.95059,0,0,0-.84277-.05078,6.71893,6.71893,0,0,0-6.71094,6.71142A.99974.99974,0,0,1,95.76761,34.67171Z" transform="translate(22.87253 -5.62801)"/><path class="cls-8" d="M108.33743,33.668a12.57,12.57,0,1,1-25.13995,0,20.38292,20.38292,0,0,1,.41-4.05.98956.98956,0,0,1,1.18-.78,1.002,1.002,0,0,1,.78,1.18006,18.51855,18.51855,0,0,0-.37,3.65,10.57,10.57,0,1,0,21.14,0,2.855,2.855,0,0,0-5.71,0,4.86,4.86,0,0,1-9.72,0,12.564,12.564,0,0,1,8.38-11.84,1.0026,1.0026,0,1,1,.67,1.89,10.554,10.554,0,0,0-7.05,9.95,2.86,2.86,0,0,0,5.72,0,4.855,4.855,0,0,1,9.71,0Z" transform="translate(22.87253 -5.62801)"/><path class="cls-8" d="M104.47745,33.668a8.71,8.71,0,1,1-17.42,0,16.228,16.228,0,0,1,5.13-11.92,1.00087,1.00087,0,1,1,1.38,1.45,14.25551,14.25551,0,0,0-4.51,10.47,6.71,6.71,0,1,0,13.42,0,1,1,0,0,1,2,0Z" transform="translate(22.87253 -5.62801)"/><path class="cls-8" d="M116.81747,7.318v26.35a21.135,21.135,0,1,1-42.27,0V7.348c.4-.07.8-.13995,1.2-.19995v26.52a19.935,19.935,0,0,0,39.87,0V7.118C116.02743,7.178,116.42746,7.248,116.81747,7.318Z" transform="translate(22.87253 -5.62801)"/><path class="cls-8" d="M95.97674,17.52816c0-.91553.2295-1.62061,1.21485-1.62061.78418,0,1.17187.42041,1.17187,1.499,0,1.01318-.31738,1.625-1.22363,1.625C96.31366,19.03158,95.97674,18.48519,95.97674,17.52816Zm.752-.042a3.90357,3.90357,0,0,0,.02343.49023l.51368-1.47119a.73369.73369,0,0,0-.10254-.0044C96.79413,16.50081,96.7287,16.81331,96.7287,17.48617Zm.84961-.60743-.53614,1.5459a.63165.63165,0,0,0,.13965.01856c.34571,0,.43457-.36914.43457-.94776A3.24018,3.24018,0,0,0,97.57831,16.87874Z" transform="translate(22.87253 -5.62801)"/><path class="cls-8" d="M94.17889,18.07406c0,.21045.09864.36914.34082.36914a.7676.7676,0,0,0,.56055-.32227l.34082.49024a1.46542,1.46542,0,0,1-1.05957.42041.85085.85085,0,0,1-.94824-.87354,2.24457,2.24457,0,0,1,1.12109-1.5874H93.29217v-.61621h2.15235v.44824C94.93573,16.7015,94.17889,17.50472,94.17889,18.07406Z" transform="translate(22.87253 -5.62801)"/><path class="cls-8" d="M18.32642,79.38223a.99974.99974,0,0,1-1.366.366,8.72059,8.72059,0,0,1-3.18884-11.8996,8.94,8.94,0,0,1,.59914-.90689A1,1,0,1,1,15.969,68.14417a6.94983,6.94983,0,0,0-.46536.70448,6.71893,6.71893,0,0,0,2.45679,9.16755A.99974.99974,0,0,1,18.32642,79.38223Z" transform="translate(22.87253 -5.62801)"/><path class="cls-8" d="M23.74208,67.99458a12.57,12.57,0,1,1-12.57,21.77184,20.38361,20.38361,0,0,1-3.3024-2.38.98956.98956,0,0,1-.08553-1.41192,1.002,1.002,0,0,1,1.412-.0855,18.51892,18.51892,0,0,0,2.976,2.14541,10.57,10.57,0,1,0,10.57-18.30774,2.855,2.855,0,0,0-2.855,4.945,4.86,4.86,0,0,1-4.86,8.4178,12.564,12.564,0,0,1-6.0637-13.17728,1.0026,1.0026,0,1,1,1.97174.36475,10.554,10.554,0,0,0,5.092,11.08047,2.86,2.86,0,0,0,2.86-4.95369,4.855,4.855,0,0,1,4.855-8.40907Z" transform="translate(22.87253 -5.62801)"/><path class="cls-8" d="M21.81209,71.33742a8.71,8.71,0,1,1-8.71,15.08615,16.228,16.228,0,0,1-7.758-10.4027,1.00087,1.00087,0,1,1,1.94575-.47012,14.25547,14.25547,0,0,0,6.81226,9.14077,6.71,6.71,0,1,0,6.71-11.622,1,1,0,0,1,1-1.73206Z" transform="translate(22.87253 -5.62801)"/><path class="cls-8" d="M5.16235,47.47566l22.81975,13.175a21.135,21.135,0,1,1-21.135,36.60691l-22.79379-13.16c.13938-.38143.27879-.76278.42684-1.13921l22.967,13.26a19.935,19.935,0,0,0,19.935-34.52843l-22.993-13.275C4.64608,48.08985,4.90672,47.77842,5.16235,47.47566Z" transform="translate(22.87253 -5.62801)"/><path class="cls-8" d="M2.71844,70.12826c-.793-.45752-1.28906-1.00928-.79589-1.86182.3916-.67969.95019-.80518,1.88378-.26563.87793.50635,1.249,1.08692.7959,1.87207C4.18915,70.5887,3.54755,70.60677,2.71844,70.12826Zm.33985-.67188a3.98723,3.98723,0,0,0,.43554.22461l-1.0166-1.18018a.743.743,0,0,0-.05566.08643C2.238,68.90706,2.47528,69.12,3.05829,69.45638Zm-.10157-1.03955L4.027,69.65413a.613.613,0,0,0,.08593-.11181c.17383-.29932-.10156-.561-.60351-.8501A3.227,3.227,0,0,0,2.95672,68.41683Z" transform="translate(22.87253 -5.62801)"/><path class="cls-8" d="M1.61688,70.12288l-.35351.61036,1.582.91259.26269-.51123.52051.30127L3.029,72.59847.89715,71.368l-.34277.59473L.0202,71.65511l1.0625-1.84082Z" transform="translate(22.87253 -5.62801)"/><path class="cls-8" d="M18.32706,168.80451a.99973.99973,0,0,1-.366,1.366,8.72059,8.72059,0,0,1-11.89978-3.18818,8.941,8.941,0,0,1-.48582-.97232,1,1,0,1,1,1.84046-.78293,6.952,6.952,0,0,0,.37741.75525,6.71894,6.71894,0,0,0,9.16773,2.45613A.99974.99974,0,0,1,18.32706,168.80451Z" transform="translate(22.87253 -5.62801)"/><path class="cls-8" d="M11.1729,158.42058a12.57,12.57,0,1,1,12.57,21.77184,20.38362,20.38362,0,0,1-3.71237,1.67.98956.98956,0,0,1-1.26553-.63189,1.002,1.002,0,0,1,.63195-1.26555,18.51922,18.51922,0,0,0,3.34595-1.50456,10.57,10.57,0,1,0-10.57-18.30774,2.855,2.855,0,0,0,2.855,4.945,4.86,4.86,0,0,1,4.86,8.4178,12.564,12.564,0,0,1-14.44371-1.33732,1.0026,1.0026,0,1,1,1.30176-1.5252,10.554,10.554,0,0,0,12.14195,1.13047,2.86,2.86,0,0,0-2.86-4.9537,4.855,4.855,0,0,1-4.855-8.40907Z" transform="translate(22.87253 -5.62801)"/><path class="cls-8" d="M13.10289,161.76343a8.71,8.71,0,1,1,8.71,15.08614,16.228,16.228,0,0,1-12.888,1.51728,1.00087,1.00087,0,1,1,.56575-1.92012,14.25548,14.25548,0,0,0,11.32226-1.32921,6.71,6.71,0,1,0-6.71-11.622,1,1,0,1,1-1-1.732Z" transform="translate(22.87253 -5.62801)"/><path class="cls-8" d="M36.87747,174.028a3.62161,3.62161,0,0,0,1.03.84,21.03785,21.03785,0,0,1-9.84,12.82l-22.79,13.16c-.26-.32-.51995-.63-.78-.94l22.97-13.26A19.93019,19.93019,0,0,0,36.87747,174.028Z" transform="translate(22.87253 -5.62801)"/><path class="cls-8" d="M7.53744,152.118l-23,13.27q-.22494-.57-.42-1.14l22.82-13.17a21.15116,21.15116,0,0,1,28.87,7.74,20.95621,20.95621,0,0,1,2.75,8.68,3.944,3.944,0,0,0-1.17.65,19.59,19.59,0,0,0-2.62006-8.73A19.95592,19.95592,0,0,0,7.53744,152.118Z" transform="translate(22.87253 -5.62801)"/><path class="cls-8" d="M2.50751,177.69222c-.793.458-1.51807.6123-2.01075-.24121-.39209-.67871-.22216-1.22559.71241-1.76465.87744-.50585,1.56591-.53711,2.019.24805C3.6413,176.64925,3.33661,177.2137,2.50751,177.69222Zm-.41211-.62891a4.06945,4.06945,0,0,0,.41259-.26562l-1.53076.29a.684.684,0,0,0,.04737.09082C1.20917,177.49886,1.51239,177.39925,2.0954,177.06331Zm-.95118-.43261,1.60694-.3086a.61691.61691,0,0,0-.05371-.12988c-.17285-.2998-.53711-.19238-1.03809.09668A3.22893,3.22893,0,0,0,1.14422,176.6307Z" transform="translate(22.87253 -5.62801)"/><path class="cls-8" d="M3.90838,180.12c-.793.457-1.51806.61133-2.01074-.24218-.39209-.67969-.22217-1.22461.71241-1.76465.87744-.50684,1.5664-.53711,2.019.24707C5.04217,179.076,4.73749,179.64144,3.90838,180.12Zm-.4121-.63085a3.90962,3.90962,0,0,0,.41259-.26563l-1.53076.291a.68561.68561,0,0,0,.04736.09082C2.61005,179.92464,2.91327,179.825,3.49628,179.4891Zm-.95118-.43165,1.60694-.30859a.62357.62357,0,0,0-.05371-.13086c-.17286-.29883-.53711-.1914-1.03809.09766A3.229,3.229,0,0,0,2.5451,179.05745Z" transform="translate(22.87253 -5.62801)"/><path class="cls-8" d="M173.208,79.38228a.99973.99973,0,0,1,.366-1.366,8.72059,8.72059,0,0,1,11.89978,3.18818,8.94176,8.94176,0,0,1,.48582.97231,1,1,0,1,1-1.84046.78294,6.952,6.952,0,0,0-.37741-.75525,6.71892,6.71892,0,0,0-9.16773-2.45613A.99975.99975,0,0,1,173.208,79.38228Z" transform="translate(22.87253 -5.62801)"/><path class="cls-8" d="M180.36212,89.76621a12.57,12.57,0,1,1-12.57-21.77184,20.38294,20.38294,0,0,1,3.71237-1.66995.98956.98956,0,0,1,1.26553.63189,1.002,1.002,0,0,1-.63195,1.26555,18.51852,18.51852,0,0,0-3.346,1.50456,10.57,10.57,0,1,0,10.57,18.30774,2.855,2.855,0,0,0-2.855-4.945,4.86,4.86,0,0,1-4.86-8.41779,12.564,12.564,0,0,1,14.44371,1.33731,1.0026,1.0026,0,1,1-1.30176,1.5252,10.554,10.554,0,0,0-12.142-1.13046,2.86,2.86,0,0,0,2.86,4.95369,4.855,4.855,0,0,1,4.855,8.40908Z" transform="translate(22.87253 -5.62801)"/><path class="cls-8" d="M178.43213,86.42336a8.71,8.71,0,1,1-8.71-15.08615,16.228,16.228,0,0,1,12.888-1.51727,1.00087,1.00087,0,1,1-.56575,1.92012,14.25552,14.25552,0,0,0-11.32226,1.3292,6.71,6.71,0,1,0,6.71,11.62205,1,1,0,0,1,1,1.73205Z" transform="translate(22.87253 -5.62801)"/><path class="cls-8" d="M207.42189,83.93515l-22.81975,13.175a21.135,21.135,0,1,1-21.135-36.60691l22.7938-13.16c.26064.31143.5212.62284.77317.93927l-22.967,13.26a19.935,19.935,0,0,0,19.935,34.52843l22.993-13.275C207.14813,83.181,207.28751,83.56238,207.42189,83.93515Z" transform="translate(22.87253 -5.62801)"/><path class="cls-8" d="M189.02557,70.493c.793-.458,1.51807-.6123,2.01074.24121.39209.67871.22217,1.22559-.7124,1.76465-.87744.50586-1.56592.53711-2.019-.248C187.89178,71.536,188.19647,70.97152,189.02557,70.493Zm1.36328,1.06152-1.60693.3086a.61691.61691,0,0,0,.05371.12988c.17285.29981.53711.19238,1.03809-.09668A3.22763,3.22763,0,0,0,190.38885,71.55452Zm-.95117-.43261a4.07255,4.07255,0,0,0-.4126.26562l1.53077-.29a.68458.68458,0,0,0-.04737-.09082C190.32391,70.68636,190.02069,70.786,189.43768,71.12191Z" transform="translate(22.87253 -5.62801)"/><path class="cls-8" d="M187.964,68.80355a.82686.82686,0,0,1,.35742-1.01563c.33936-.19629.91211-.17578,1.32764.543a1.63776,1.63776,0,0,1,.22461,1.0625l-.67676-.01367a.99729.99729,0,0,0-.08154-.76758c-.10254-.17773-.25879-.27051-.43653-.168-.27881.16114-.20361.582.04737,1.02442l-.38819.22461c-.24219-.37207-.585-.57422-.77929-.46192-.16944.09766-.15723.26758-.06836.42188a.73869.73869,0,0,0,.50927.34179l-.25341.5127a1.45924,1.45924,0,0,1-.85889-.71191.81285.81285,0,0,1,.21484-1.16895A.72991.72991,0,0,1,187.964,68.80355Z" transform="translate(22.87253 -5.62801)"/><path class="cls-8" d="M173.20906,168.80338a.99972.99972,0,0,1,1.366-.366,8.72059,8.72059,0,0,1,3.18885,11.8996,8.94009,8.94009,0,0,1-.59915.90689,1,1,0,1,1-1.59827-1.20242,6.95033,6.95033,0,0,0,.46537-.70447,6.71892,6.71892,0,0,0-2.4568-9.16755A.99974.99974,0,0,1,173.20906,168.80338Z" transform="translate(22.87253 -5.62801)"/><path class="cls-8" d="M167.79339,180.191a12.57,12.57,0,1,1,12.57-21.77184,20.38309,20.38309,0,0,1,3.30241,2.38.98956.98956,0,0,1,.08553,1.41192,1.002,1.002,0,0,1-1.412.0855,18.518,18.518,0,0,0-2.976-2.14541,10.57,10.57,0,1,0-10.57,18.30774,2.855,2.855,0,0,0,2.855-4.945,4.86,4.86,0,0,1,4.86-8.4178,12.564,12.564,0,0,1,6.06371,13.17728,1.0026,1.0026,0,1,1-1.97174-.36475,10.554,10.554,0,0,0-5.092-11.08048,2.86,2.86,0,0,0-2.86,4.9537,4.855,4.855,0,0,1-4.855,8.40907Z" transform="translate(22.87253 -5.62801)"/><path class="cls-8" d="M169.72339,176.84818a8.71,8.71,0,1,1,8.71-15.08614,16.228,16.228,0,0,1,7.758,10.4027,1.00087,1.00087,0,1,1-1.94575.47012,14.25545,14.25545,0,0,0-6.81225-9.14077,6.71,6.71,0,1,0-6.71,11.622,1,1,0,0,1-1,1.73205Z" transform="translate(22.87253 -5.62801)"/><path class="cls-8" d="M164.15744,186.498l22.99,13.27c-.26.32995-.52.63995-.77.94l-22.82-13.17005a21.03438,21.03438,0,0,1-9.81-12.74,3.57909,3.57909,0,0,0,1.01-.89A19.88335,19.88335,0,0,0,164.15744,186.498Z" transform="translate(22.87253 -5.62801)"/><path class="cls-8" d="M207.47745,164.088q-.195.57-.42,1.14l-22.97-13.26a19.91714,19.91714,0,0,0-29.86,16.24,4.12507,4.12507,0,0,0-1.17-.68006,21.12421,21.12421,0,0,1,31.63-16.6Z" transform="translate(22.87253 -5.62801)"/><path class="cls-8" d="M188.81463,178.05745c.793.458,1.28907,1.00977.7959,1.86231-.3916.67969-.95019.80566-1.88379.26562-.87793-.50683-1.249-1.08691-.79589-1.87207C187.34393,177.59749,187.98553,177.57894,188.81463,178.05745Zm-.23828,1.71192-1.07031-1.23731a.60874.60874,0,0,0-.08594.11133c-.17382.29981.10157.56153.60352.85059A3.26409,3.26409,0,0,0,188.57635,179.76937Zm-.10156-1.04a4.26577,4.26577,0,0,0-.43555-.22461l1.01661,1.18066a.7123.7123,0,0,0,.05566-.08691C189.2951,179.27913,189.0578,179.06624,188.47479,178.72933Z" transform="translate(22.87253 -5.62801)"/><path class="cls-8" d="M191.382,176.75863l-.36426.63086-.49707-.28711-.63281,1.0957-.35645-.20606-1.14258-2.12011.36524-.63086,1.6289.94043.19629-.33985.502.28907-.19629.34082Zm-1.36328.05371-.84473-.48731.56055.98048Z" transform="translate(22.87253 -5.62801)"/></svg>