<svg xmlns="http://www.w3.org/2000/svg" xml:space="preserve" id="Layer_1" x="0" y="0" viewBox="0 0 237.3 236"><style>.st0{fill:#3f4642}.st1{fill:#555a57}.st2{fill:#7f8c8d}.st3{fill:#d6dadb}.st4{fill:#9e846d}.st5{fill:#bdab9c}.st6{fill:#fff}.st7{fill:#bcc3c4}.st8{fill:#2a312d}.st9{fill:#eba900}.st10{fill:#f8e6b7}.st11{fill:#eaa800}</style><g id="Carrier"><path d="M125.1 0v1.3c0 2.3-1.9 4.2-4.2 4.2h-4.5c-2.3 0-4.2-1.9-4.2-4.2V0C49.7 3.4 0 55.2 0 118.5c0 59.7 44.2 109.2 101.6 117.4 4.1-4.8 10.2-7.9 17-7.9s13 3.1 17 7.9c57.5-8.3 101.6-57.7 101.6-117.4C237.3 55.2 187.6 3.4 125.1 0M66 216.7c-1 1.7-3.1 2.3-4.8 1.3s-2.3-3.1-1.3-4.8 3.1-2.3 4.8-1.3c1.7.9 2.3 3.1 1.3 4.8M64.8 25.2c-1.7 1-3.9.4-4.8-1.3-1-1.7-.4-3.8 1.3-4.8s3.8-.4 4.8 1.3c.9 1.6.3 3.8-1.3 4.8M97.1 211c-1.6 2.9-4.7 4.8-8 4.8-3.4 0-6.4-1.8-8-4.8-.4-.7-.1-1.5.5-1.9.7-.4 1.5-.1 1.9.5 1.1 2 3.2 3.3 5.6 3.3 2.3 0 4.5-1.3 5.6-3.3.4-.7 1.2-.9 1.9-.5s.9 1.2.5 1.9m58.5 4.6c-.7.4-1.5.1-1.9-.6-1.1-2-3.2-3.3-5.6-3.3-2.3 0-4.5 1.3-5.6 3.3-.4.7-1.2.9-1.9.5s-.9-1.2-.5-1.9c1.6-2.9 4.7-4.8 8-4.8s6.4 1.8 8 4.8c.4.8.2 1.6-.5 2m74.3-93.6c-1.9 0-3.5-1.6-3.5-3.5s1.6-3.5 3.5-3.5 3.5 1.6 3.5 3.5-1.5 3.5-3.5 3.5" class="st0"/><path d="M52.3 20.2C22.9 40 2.9 72.7.3 110.2L54 114c.4-6.7 2-13.4 4.6-19.9-.2-.1-.4-.2-.5-.3-4.3-2.5-5.8-8-3.3-12.3s8-5.8 12.3-3.3c.2.1.4.2.5.3 4.2-5.5 9.3-10.1 14.8-13.8 0 .1-30.1-44.5-30.1-44.5M237 110.2c-2.5-35.4-20.8-69.1-52-90.1l-30.1 44.6c5.6 3.7 10.6 8.4 14.9 13.9.2-.1.3-.2.5-.3 4.3-2.5 9.8-1 12.3 3.3s1 9.8-3.3 12.3l-.6.3c2.6 6.4 4.1 13.1 4.6 19.7zM185 216.9c29.4-19.9 49.4-52.6 52-90.1l-53.7-3.8c-.4 6.7-2 13.4-4.6 19.9.2.1.4.2.5.3 4.3 2.5 5.8 8 3.3 12.3s-8 5.8-12.3 3.3c-.2-.1-.4-.2-.5-.3-4.2 5.5-9.3 10.1-14.8 13.8zM.3 126.8c2.5 35.4 20.8 69.1 52 90.1l30.1-44.6c-5.6-3.7-10.6-8.4-14.9-13.9-.2.1-.3.2-.5.3-4.3 2.5-9.8 1-12.3-3.3s-1-9.8 3.3-12.3l.6-.3c-2.6-6.4-4.1-13.1-4.6-19.7zM170.7 11.9 147 60.3c-6-2.9-12.5-5-19.4-5.9v-.6c0-5-4-9-9-9s-9 4-9 9v.6c-6.9 1-13.5 3-19.5 5.9L66.6 11.9C80.5 5.1 95.9.9 112.2 0v1.3c0 2.3 1.9 4.2 4.2 4.2h4.5c2.3 0 4.2-1.9 4.2-4.2V0c16.3.9 31.7 5.1 45.6 11.9" class="st1"/><path d="M117.7 60.3c0-.3 0-.5-.1-.7h2.2c-.1.2-.1.5-.1.7 0 .3 0 .5.1.7h-2.2c0-.2.1-.5.1-.7" class="st2"/><path d="M119.6 60.3c0-.3 0-.5.1-.7h.4V61h-.4c0-.2-.1-.5-.1-.7M117.2 61v-1.4h.4c.1.2.1.5.1.7 0 .3 0 .5-.1.7zM115.2 53.1h1.8v1.3h-1.8zM115.2 50.5h1.8v1.3h-1.8zM115.2 55.6h1.8v1.3h-1.8zM120.3 53.1h1.8v1.3h-1.8zM120.3 50.5h1.8v1.3h-1.8zM120.3 55.6h1.8v1.3h-1.8z" class="st3"/><path d="M116.1 51.2h5.1v5.1h-5.1z" class="st4"/><path d="M117 52.1h3.2v3.2H117z" class="st5"/><circle cx="118.6" cy="53.7" r="1.8" class="st6"/><path d="M168.6 88.5c.2-.1.4-.3.6-.5l1.1 1.9c-.2 0-.5.1-.7.2s-.4.3-.6.5l-1.1-1.9c.2.1.5 0 .7-.2" class="st2"/><path d="M169.6 90.2c.2-.1.5-.2.7-.2l.2.3-1.2.7-.2-.3c.1-.2.3-.3.5-.5M167.7 88.5l1.2-.7.2.3c-.1.2-.3.4-.6.5-.2.1-.5.2-.7.2zM172.424 83.46l1.125-.65.9 1.558-1.125.65zM174.607 82.162l1.126-.65.9 1.56-1.126.65zM170.24 84.757l1.126-.65.9 1.559-1.126.65zM175.018 87.827l1.126-.65.9 1.559-1.126.65zM177.202 86.53l1.126-.65.9 1.558-1.126.65zM172.835 89.124l1.125-.65.9 1.56-1.126.65z" class="st3"/><path d="m171.275 85.208 4.417-2.55 2.55 4.416-4.417 2.55z" class="st4"/><path d="m172.505 85.537 2.771-1.6 1.6 2.771-2.771 1.6z" class="st5"/><circle cx="174.7" cy="86.1" r="1.8" class="st6"/><path d="M169.6 146.8c.2.1.5.2.7.2l-1.1 1.9c-.1-.2-.3-.4-.6-.5-.2-.1-.5-.2-.7-.2l1.1-1.9c.2.2.4.4.6.5" class="st2"/><path d="M168.6 148.5c.2.1.4.3.6.5l-.2.3-1.2-.7.2-.3c.1 0 .4 0 .6.2M169.2 146l1.2.7-.2.3c-.2 0-.5-.1-.7-.2s-.4-.3-.6-.5zM174.941 149.149l.9-1.56 1.126.65-.9 1.56zM177.167 150.43l.9-1.559 1.126.65-.9 1.56zM172.802 147.917l.9-1.559 1.126.65-.9 1.56zM172.428 153.514l.9-1.56 1.126.65-.9 1.56zM174.654 154.795l.9-1.559 1.126.65-.9 1.56zM170.289 152.282l.9-1.559 1.126.65-.9 1.56z" class="st3"/><path d="m171.3 151.86 2.55-4.416 4.418 2.55-2.55 4.416z" class="st4"/><path d="m172.53 151.53 1.6-2.77 2.771 1.6-1.6 2.77z" class="st5"/><circle cx="174.7" cy="150.9" r="1.8" class="st6"/><path d="M67.7 90.2c-.2-.1-.4-.2-.7-.2l1.1-1.9c.1.2.3.4.6.5.2.1.5.2.7.2l-1.1 1.9c-.2-.2-.4-.3-.6-.5" class="st2"/><path d="M68.7 88.5c-.2-.1-.4-.3-.6-.5l.2-.3 1.2.7-.2.3c-.2.1-.4 0-.6-.2M68.1 91l-1.2-.7.1-.3c.2 0 .5.1.7.2s.4.3.6.5zM60.297 88.766l.9-1.56 1.126.65-.9 1.56zM58.072 87.484l.9-1.559 1.125.65-.9 1.559zM62.387 90.084l.9-1.56 1.125.65-.9 1.56zM62.81 84.4l.9-1.558 1.126.65-.9 1.558zM60.585 83.119l.9-1.559 1.126.65-.9 1.559zM64.95 85.632l.9-1.559 1.125.65-.9 1.56z" class="st3"/><path d="m59.083 87.062 2.55-4.417 4.417 2.55-2.55 4.417z" class="st4"/><path d="m60.313 86.733 1.6-2.772 2.771 1.6-1.6 2.772z" class="st5"/><circle cx="62.5" cy="86.1" r="1.8" class="st6"/><path d="M68.7 148.5c-.2.1-.4.3-.6.5l-1.1-2c.2 0 .5-.1.7-.2s.4-.3.6-.5l1.1 1.9c-.3.1-.5.2-.7.3" class="st2"/><path d="M67.7 146.8c-.2.1-.5.2-.7.2l-.2-.3 1.2-.7.2.3c-.1.2-.3.4-.5.5M69.6 148.6l-1.2.7-.2-.3c.1-.2.3-.4.6-.5.2-.1.5-.2.7-.2zM62.83 152.621l1.125-.65.9 1.56-1.126.65zM60.646 153.919l1.125-.65.9 1.558-1.125.65zM64.926 151.374l1.126-.65.9 1.559-1.126.65zM60.235 148.254l1.125-.65.9 1.559-1.125.65zM58.05 149.551l1.127-.65.9 1.559-1.126.65zM62.418 146.957l1.126-.65.9 1.558-1.126.65z" class="st3"/><path d="m59.087 150.002 4.416-2.55 2.55 4.417-4.416 2.55z" class="st4"/><path d="m60.316 150.331 2.771-1.6 1.6 2.772-2.771 1.6z" class="st5"/><circle cx="62.5" cy="150.9" r="1.8" class="st6"/><circle cx="62.8" cy="165.8" r="3.3" class="st4"/><circle cx="18.7" cy="165.8" r="3.3" class="st4"/><circle cx="174.5" cy="165.8" r="3.3" class="st4"/><circle cx="218.6" cy="165.8" r="3.3" class="st4"/><g id="Artwork_3"><path d="M104.2 218h1.4v1.4h-1.4zc-.1 0 0 0 0 0M104.2 216.4h1.4v1.4h-1.4zc-.1.1 0 0 0 0" class="st2"/><path d="M104.3 217.3v1.2c0 .3.3.6.6.6s.6-.3.6-.6v-1.2c0-.3-.3-.6-.6-.6s-.6.3-.6.6" class="st7"/><path d="M104.3 217.5h1.2v.9h-1.2z" class="st8"/></g><g id="Artwork_3-2"><path d="M98.4 198.9h1.4v1.4h-1.4zM99.9 198.9h1.4v1.4h-1.4z" class="st2"/><path d="M100.4 199h-1.2c-.3 0-.6.3-.6.6s.3.6.6.6h1.2c.3 0 .6-.3.6-.6s-.3-.6-.6-.6" class="st7"/><path d="M99.4 199h.9v1.2h-.9z" class="st8"/></g><g id="Artwork_3-3"><path d="M84.1 193.8h1.4v1.4h-1.4zM85.7 193.8H87v1.4h-1.4z" class="st2"/><path d="M86.2 193.9H85c-.3 0-.6.3-.6.6s.3.6.6.6h1.2c.3 0 .6-.3.6-.6s-.3-.6-.6-.6" class="st7"/><path d="M85.2 193.9h.9v1.2h-.9z" class="st8"/></g><g id="Artwork_3-4"><path d="M98.4 202.1h1.4v1.4h-1.4zM99.9 202.1h1.4v1.4h-1.4z" class="st2"/><path d="M100.4 202.2h-1.2c-.3 0-.6.3-.6.6s.3.6.6.6h1.2c.3 0 .6-.3.6-.6s-.3-.6-.6-.6" class="st7"/><path d="M99.4 202.2h.9v1.2h-.9z" class="st8"/></g><g id="Artwork_3-5"><path d="M106.8 218h1.4v1.4h-1.4zq-.15 0 0 0M106.8 216.4h1.4v1.4h-1.4zc-.1.1-.1 0 0 0" class="st2"/><path d="M106.9 217.3v1.2c0 .3.3.6.6.6s.6-.3.6-.6v-1.2c0-.3-.3-.6-.6-.6s-.6.3-.6.6" class="st7"/><path d="M106.9 217.5h1.2v.9h-1.2z" class="st8"/></g><path d="M109.9 212.1h3.6v9.2h-3.6z" class="st3"/><circle cx="111.7" cy="216.7" r="2.7" class="st9"/><path d="M123.8 212.1h3.6v9.2h-3.6z" class="st3"/><circle cx="125.6" cy="216.7" r="2.7" class="st9"/><g id="Artwork_3-6"><path d="M131.8 218h1.4v1.4h-1.4zq-.15 0 0 0M131.8 216.4h1.4v1.4h-1.4zc-.1.1-.1 0 0 0" class="st2"/><path d="M133 217.3v1.2c0 .3-.3.6-.6.6s-.6-.3-.6-.6v-1.2c0-.3.3-.6.6-.6s.6.3.6.6" class="st7"/><path d="M131.9 217.5h1.2v.9h-1.2z" class="st8"/></g><g id="Artwork_3-7"><path d="M139.1 226.8h1.4v1.4h-1.4zc-.1.1 0 0 0 0M139.1 225.3h1.4v1.4h-1.4zc-.1 0 0 0 0 0" class="st2"/><path d="M140.3 226.2v1.2c0 .3-.3.6-.6.6s-.6-.3-.6-.6v-1.2c0-.3.3-.6.6-.6s.6.3.6.6" class="st7"/><path d="M139.2 226.3h1.2v.9h-1.2z" class="st8"/></g><g id="Artwork_3-8"><path d="M156.9 226.8h1.4v1.4h-1.4zc0 .1 0 0 0 0M156.9 225.3h1.4v1.4h-1.4z" class="st2"/><path d="M158.1 226.2v1.2c0 .3-.3.6-.6.6s-.6-.3-.6-.6v-1.2c0-.3.3-.6.6-.6s.6.3.6.6" class="st7"/><path d="M157 226.3h1.2v.9H157z" class="st8"/></g><g id="Artwork_3-9"><path d="M154.5 222h1.4v1.4h-1.4zM154.5 220.5h1.4v1.4h-1.4z" class="st2"/><path d="M155.7 221.4v1.2c0 .3-.3.6-.6.6s-.6-.3-.6-.6v-1.2c0-.3.3-.6.6-.6s.6.3.6.6" class="st7"/><path d="M154.6 221.5h1.2v.9h-1.2z" class="st8"/></g><g id="Artwork_3-10"><path d="M129.2 218h1.4v1.4h-1.4zc-.1 0 0 0 0 0M129.2 216.4h1.4v1.4h-1.4zc-.1.1 0 0 0 0" class="st2"/><path d="M130.4 217.3v1.2c0 .3-.3.6-.6.6s-.6-.3-.6-.6v-1.2c0-.3.3-.6.6-.6s.6.3.6.6" class="st7"/><path d="M129.3 217.5h1.2v.9h-1.2z" class="st8"/></g><path d="M86.7 198.4h7.2v5.9h-7.2zM83.1 198.4h2.8v5.9h-2.8z" class="st8"/><circle cx="91.8" cy="201.4" r="1.1" class="st10"/><path d="M91.8 200.6c-.4 0-.8.3-.8.8s.3.8.8.8c.4 0 .8-.3.8-.8s-.4-.8-.8-.8m0 1.3c-.3 0-.5-.2-.5-.5s.2-.5.5-.5.5.2.5.5-.2.5-.5.5" class="st11"/><circle cx="84.5" cy="201.4" r="1.1" class="st10"/><path d="M84.5 200.6c-.4 0-.8.3-.8.8s.3.8.8.8c.4 0 .8-.3.8-.8s-.4-.8-.8-.8m0 1.3c-.3 0-.5-.2-.5-.5s.2-.5.5-.5.5.2.5.5-.2.5-.5.5" class="st11"/><circle cx="151.2" cy="96.9" r="3.2" class="st4"/><circle cx="101.8" cy="87.1" r="3.2" class="st4"/><circle cx="92.6" cy="136.9" r="3.2" class="st4"/><g id="Artwork_3-11"><path d="M86.9 102.4h1.4v1.4h-1.4zq-.15 0 0 0M88.4 102.4h1.4v1.4h-1.4z" class="st2"/><path d="M88.9 103.7h-1.2c-.3 0-.6-.3-.6-.6s.3-.6.6-.6h1.2c.3 0 .6.3.6.6s-.3.6-.6.6" class="st7"/><path d="M87.9 102.5h.9v1.2h-.9z" class="st8"/></g><g id="Artwork_3-12"><path d="M137.5 124.7h1.4v1.4h-1.4zq-.15 0 0 0M137.5 126.3h1.4v1.4h-1.4zq-.15 0 0 0" class="st2"/><path d="M137.5 126.8v-1.2c0-.3.3-.6.6-.6s.6.3.6.6v1.2c0 .3-.3.6-.6.6s-.6-.3-.6-.6" class="st7"/><path d="M137.5 125.8h1.2v.9h-1.2z" class="st8"/></g><g id="Artwork_3-13"><path d="M133.8 124.7h1.4v1.4h-1.4zM133.8 126.3h1.4v1.4h-1.4z" class="st2"/><path d="M133.9 126.8v-1.2c0-.3.3-.6.6-.6s.6.3.6.6v1.2c0 .3-.3.6-.6.6s-.6-.3-.6-.6" class="st7"/><path d="M133.9 125.8h1.2v.9h-1.2z" class="st8"/></g><g id="Artwork_3-14"><path d="M109.3 127.7h1.4v1.4h-1.4zM110.8 127.7h1.4v1.4h-1.4z" class="st2"/><path d="M111.3 129h-1.2c-.3 0-.6-.3-.6-.6s.3-.6.6-.6h1.2c.3 0 .6.3.6.6s-.3.6-.6.6" class="st7"/><path d="M110.3 127.8h.9v1.2h-.9z" class="st8"/></g><g id="Artwork_3-15"><path d="M127.3 119.4h1.4v1.4h-1.4zM128.8 119.4h1.4v1.4h-1.4z" class="st2"/><path d="M129.3 120.6h-1.2c-.3 0-.6-.3-.6-.6s.3-.6.6-.6h1.2c.3 0 .6.3.6.6s-.3.6-.6.6" class="st7"/><path d="M128.3 119.5h.9v1.2h-.9z" class="st8"/></g><g id="Artwork_3-16"><path d="M86.9 105h1.4v1.4h-1.4zq-.15 0 0 0M88.4 105h1.4v1.4h-1.4z" class="st2"/><path d="M88.9 106.2h-1.2c-.3 0-.6-.3-.6-.6s.3-.6.6-.6h1.2c.3 0 .6.3.6.6s-.3.6-.6.6" class="st7"/><path d="M87.9 105.1h.9v1.2h-.9z" class="st8"/></g><g id="Artwork_3-17"><path d="M86.9 107.5h1.4v1.4h-1.4zc-.1.1-.1 0 0 0M88.4 107.5h1.4v1.4h-1.4zc0 .1 0 0 0 0" class="st2"/><path d="M88.9 108.8h-1.2c-.3 0-.6-.3-.6-.6s.3-.6.6-.6h1.2c.3 0 .6.3.6.6s-.3.6-.6.6" class="st7"/><path d="M87.9 107.7h.9v1.2h-.9z" class="st8"/></g><g id="Artwork_3-18"><path d="M86.9 110.1h1.4v1.4h-1.4zq-.15 0 0 0M88.4 110.1h1.4v1.4h-1.4z" class="st2"/><path d="M88.9 111.4h-1.2c-.3 0-.6-.3-.6-.6s.3-.6.6-.6h1.2c.3 0 .6.3.6.6s-.3.6-.6.6" class="st7"/><path d="M87.9 110.2h.9v1.2h-.9z" class="st8"/></g><g id="Artwork_3-19"><path d="M86.9 112.7h1.4v1.4h-1.4zq-.15 0 0 0M88.4 112.7h1.4v1.4h-1.4z" class="st2"/><path d="M88.9 114h-1.2c-.3 0-.6-.3-.6-.6s.3-.6.6-.6h1.2c.3 0 .6.3.6.6s-.3.6-.6.6" class="st7"/><path d="M87.9 112.8h.9v1.2h-.9z" class="st8"/></g><g id="Artwork_3-20"><path d="M86.9 115.3h1.4v1.4h-1.4zq-.15 0 0 0M88.4 115.3h1.4v1.4h-1.4z" class="st2"/><path d="M88.9 116.6h-1.2c-.3 0-.6-.3-.6-.6s.3-.6.6-.6h1.2c.3 0 .6.3.6.6s-.3.6-.6.6" class="st7"/><path d="M87.9 115.4h.9v1.2h-.9z" class="st8"/></g><path d="M100.5 113.6h.8v2.1h-.8zM102.2 113.6h.8v2.1h-.8zM103.8 113.6h.8v2.1h-.8zM105.5 113.6h.8v2.1h-.8zM107.2 113.6h.8v2.1h-.8zM108.9 113.6h.8v2.1h-.8zM110.6 113.6h.8v2.1h-.8zM112.2 113.6h.8v2.1h-.8zM113.9 113.6h.8v2.1h-.8zM115.6 113.6h.8v2.1h-.8zM117.3 113.6h.8v2.1h-.8zM119 113.6h.8v2.1h-.8zM120.6 113.6h.8v2.1h-.8zM122.3 113.6h.8v2.1h-.8zM124 113.6h.8v2.1h-.8zM125.7 113.6h.8v2.1h-.8zM127.4 113.6h.8v2.1h-.8zM129 113.6h.8v2.1h-.8zM130.7 113.6h.8v2.1h-.8zM132.4 113.6h.8v2.1h-.8zM134.1 113.6h.8v2.1h-.8zM135.8 113.6h.8v2.1h-.8zM99.3 105.1h1.1v2.8h-1.1zM97.6 105.9h1.1v2.8h-1.1zM101 105.1h1.1v2.8H101zM102.7 105.1h1.1v2.8h-1.1zM104.4 105.1h1.1v2.8h-1.1zM106.1 105.1h1.1v2.8h-1.1zM107.8 105.1h1.1v2.8h-1.1zM109.5 105.1h1.1v2.8h-1.1zM111.2 105.1h1.1v2.8h-1.1zM112.9 105.1h1.1v2.8h-1.1zM114.6 105.1h1.1v2.8h-1.1zM116.3 105.1h1.1v2.8h-1.1zM118 105.1h1.1v2.8H118zM119.7 105.1h1.1v2.8h-1.1zM121.4 105.1h1.1v2.8h-1.1zM123.1 105.1h1.1v2.8h-1.1zM124.8 105.1h1.1v2.8h-1.1zM126.5 105.1h1.1v2.8h-1.1zM128.2 105.1h1.1v2.8h-1.1zM129.9 105.1h1.1v2.8h-1.1zM131.6 105.1h1.1v2.8h-1.1zM133.3 105.1h1.1v2.8h-1.1zM135 105.1h1.1v2.8H135zM136.7 105.1h1.1v2.8h-1.1zM138.4 105.9h1.1v2.8h-1.1z" class="st2"/><path d="M98.1 106.5h40.8v8.1H98.1z" class="st8"/><path d="M110.1 130.6h.8v4.1h-.8zM111.5 130.6h.8v4.1h-.8zM112.9 130.6h.8v4.1h-.8zM114.3 130.6h.8v4.1h-.8zM115.7 130.6h.8v4.1h-.8zM117.1 130.6h.8v4.1h-.8zM118.5 130.6h.8v4.1h-.8zM119.9 130.6h.8v4.1h-.8zM121.3 130.6h.8v4.1h-.8zM122.7 130.6h.8v4.1h-.8zM124.1 130.6h.8v4.1h-.8zM125.5 130.6h.8v4.1h-.8zM126.9 130.6h.8v4.1h-.8zM128.3 130.6h.8v4.1h-.8zM129.7 130.6h.8v4.1h-.8zM131.1 130.6h.8v4.1h-.8zM132.5 130.6h.8v4.1h-.8zM133.9 130.6h.8v4.1h-.8zM135.3 130.6h.8v4.1h-.8zM136.7 130.6h.8v4.1h-.8zM138.1 130.6h.8v4.1h-.8zM139.5 130.6h.8v4.1h-.8zM140.9 130.6h.8v4.1h-.8zM142.3 130.6h.8v4.1h-.8zM109 132.5v6h-3.2v-2h-3.9v-2.7h1.9v-1.3zM144.3 132.5v6h3.1v-2h4v-2.7h-2v-1.3z" class="st2"/><path d="M102.2 139.4H151v4.9h-48.8z" class="st3"/><path d="M103.4 133.4h46.4v8.9h-46.4z" class="st6"/><path d="M103.4 133.4h3.4v4.4h-3.4zM146.5 133.4h3.4v4.4h-3.4z" class="st3"/><path d="M114.4 119.8h8.6v7.1h-8.6z" class="st8"/><circle cx="115.5" cy="121" r=".4" class="st0"/><path d="M144.9 220.2h1.5v1.5h-1.5zM144.9 222.4h1.5v1.5h-1.5zM144.9 224.6h1.5v1.5h-1.5zM144.9 226.8h1.5v1.5h-1.5zM151.6 220.2h1.5v1.5h-1.5zM151.6 222.4h1.5v1.5h-1.5zM151.6 224.6h1.5v1.5h-1.5zM151.6 226.8h1.5v1.5h-1.5z" class="st2"/></g><g id="Lcd1"><path d="M80.3 79.5s-6 17.8-8 23.7c-2 6.1-3.7 11.6-3.7 25.3 0 27.6 22.4 50 50 50s50-22.4 50-50c0-13.8-1.7-19.3-3.7-25.3-1.9-6-8-23.7-8-23.7z"/><path d="M141.3 65H153v6.8h-11.7z" class="st3"/><path d="M150.4 63.4h1.7v2.9h-1.7zM148.2 63.4h1.7v2.9h-1.7zM145.9 63.4h1.7v2.9h-1.7z" class="st4"/><path d="m80.3 79.5 3-8.9 1-2.9.7-2.1h11.3v2.1H153l4 11.8z" class="st8"/><path d="M144.8 67.7H95.1v-4.3h45.4c2.3 0 4.3 2 4.3 4.3" class="st4"/></g><g id="Silk1"><path d="M118.6 29.1c-.6 0-1-.4-1-1 0-4.8 3.9-8.7 8.7-8.7.4 0 .7 0 1.1.1.5.1.9.6.9 1.1-.1.5-.6.9-1.1.9-.3 0-.6-.1-.8-.1-3.7 0-6.7 3-6.7 6.7-.1.5-.5 1-1.1 1" class="st6"/><path d="M131.2 28.1c0 6.9-5.6 12.6-12.6 12.6S106 35.1 106 28.1c0-1.4.1-2.7.4-4 .1-.5.6-.9 1.2-.8.5.1.9.6.8 1.2-.2 1.2-.4 2.4-.4 3.6 0 5.8 4.7 10.6 10.6 10.6s10.6-4.7 10.6-10.6c0-1.6-1.3-2.8-2.9-2.8s-2.8 1.3-2.8 2.8c0 2.7-2.2 4.9-4.9 4.9s-4.9-2.2-4.9-4.9c0-5.3 3.4-10.1 8.4-11.8.5-.2 1.1.1 1.3.6s-.1 1.1-.6 1.3c-4.2 1.5-7 5.5-7 10 0 1.6 1.3 2.9 2.9 2.9s2.9-1.3 2.9-2.9c0-2.7 2.2-4.8 4.8-4.8 2.6-.2 4.8 2 4.8 4.7" class="st6"/><path d="M127.4 28.1c0 4.8-3.9 8.7-8.7 8.7s-8.7-3.9-8.7-8.7c0-4.6 1.8-8.8 5.1-11.9.4-.4 1-.4 1.4 0s.4 1 0 1.4c-2.9 2.8-4.5 6.5-4.5 10.5a6.7 6.7 0 0 0 13.4 0c0-.5.5-1 1-1s1 .4 1 1" class="st6"/><path d="M139.7 1.7V28c0 11.7-9.5 21.1-21.1 21.1-11.7 0-21.1-9.5-21.1-21.1V1.8c.4-.1.8-.1 1.2-.2v26.5c0 11 8.9 19.9 19.9 19.9s19.9-8.9 19.9-19.9V1.5c.4.1.8.2 1.2.2" class="st6"/><path d="M118.9 11.9c0-.9.2-1.6 1.2-1.6.8 0 1.2.4 1.2 1.5 0 1-.3 1.6-1.2 1.6-.9.1-1.2-.5-1.2-1.5m.7 0v.5l.5-1.5h-.1c-.3 0-.4.3-.4 1m.9-.6-.5 1.5h.1c.3 0 .4-.4.4-.9zM117.1 12.5c0 .2.1.4.3.4q.3 0 .6-.3l.3.5s-.4.4-1.1.4c-.6 0-.9-.4-.9-.9 0-.6.6-1.2 1.1-1.6h-1.2v-.6h2.2v.4c-.6.3-1.3 1.1-1.3 1.7M41.2 73.8c-.3.5-.9.6-1.4.4-4.2-2.4-5.6-7.7-3.2-11.9l.6-.9c.3-.4 1-.5 1.4-.2s.5 1 .2 1.4c-.2.2-.3.5-.5.7-1.9 3.2-.7 7.3 2.5 9.2.5.2.7.8.4 1.3" class="st6"/><path d="M46.6 62.4c6 3.5 8.1 11.2 4.6 17.2S40 87.7 34 84.2q-1.8-1.05-3.3-2.4c-.4-.4-.5-1-.1-1.4s1-.5 1.4-.1q1.35 1.2 3 2.1c5 2.9 11.5 1.2 14.4-3.9s1.2-11.5-3.9-14.4c-1.4-.8-3.1-.3-3.9 1.1s-.3 3.1 1 3.9c2.3 1.3 3.1 4.3 1.8 6.6s-4.3 3.1-6.6 1.8c-4.6-2.7-7-8-6.1-13.2.1-.5.6-.9 1.2-.8s.9.6.8 1.2c-.8 4.4 1.2 8.8 5.1 11.1 1.4.8 3.1.3 3.9-1s.3-3.1-1-3.9c-2.3-1.3-3.1-4.3-1.8-6.6s4.4-3.2 6.7-1.9" class="st6"/><path d="M44.7 65.8c4.2 2.4 5.6 7.7 3.2 11.9s-7.7 5.6-11.9 3.2c-3.9-2.3-6.7-6-7.8-10.4-.1-.5.2-1.1.7-1.2s1.1.2 1.2.7c.9 3.9 3.3 7.1 6.8 9.1 3.2 1.9 7.3.8 9.2-2.5s.7-7.3-2.5-9.2c-.5-.3-.6-.9-.4-1.4s1-.5 1.5-.2" class="st6"/><path d="m28 41.9 22.8 13.2c10.1 5.8 13.6 18.8 7.7 28.9-5.7 10-18.7 13.5-28.8 7.7L6.9 78.5c.1-.4.3-.8.4-1.1l23 13.3c9.5 5.5 21.7 2.2 27.2-7.3s2.2-21.7-7.3-27.2l-23-13.3c.3-.4.6-.7.8-1" class="st6"/><path d="M25.6 64.5c-.8-.5-1.3-1-.8-1.9.4-.7 1-.8 1.9-.3s1.2 1.1.8 1.9-1.1.8-1.9.3m.3-.6c.2.1.3.2.4.2l-1-1.2s0 .1-.1.1c-.1.3.1.5.7.9m-.1-1.1 1.1 1.2.1-.1c.2-.3-.1-.6-.6-.9-.2 0-.4-.1-.6-.2M24.5 64.5l-.4.6 1.6.9.3-.5.5.3-.6 1.2-2.1-1.2-.3.6-.5-.3 1.1-1.8zM41.2 163.2c.3.5.1 1.1-.4 1.4-4.2 2.4-9.5 1-11.9-3.2-.2-.3-.3-.6-.5-1-.2-.5 0-1.1.5-1.3s1.1 0 1.3.5c.1.3.2.5.4.8 1.9 3.2 6 4.3 9.2 2.5.5-.3 1.1-.2 1.4.3" class="st6"/><path d="M34 152.8c6-3.5 13.7-1.4 17.2 4.6s1.4 13.7-4.6 17.2c-1.2.7-2.4 1.2-3.7 1.7-.5.2-1.1-.1-1.3-.6s.1-1.1.6-1.3q1.8-.6 3.3-1.5c5-2.9 6.8-9.4 3.9-14.4s-9.4-6.8-14.4-3.9c-1.4.8-1.8 2.5-1 3.9s2.5 1.8 3.9 1c2.3-1.3 5.3-.5 6.6 1.8s.5 5.3-1.8 6.6c-4.6 2.7-10.4 2.1-14.4-1.3-.4-.4-.5-1-.1-1.4s1-.5 1.4-.1c3.4 2.9 8.3 3.4 12.1 1.1 1.4-.8 1.8-2.5 1-3.9s-2.5-1.8-3.9-1c-2.3 1.3-5.3.5-6.6-1.8s-.5-5.3 1.8-6.7" class="st6"/><path d="M36 156.2c4.2-2.4 9.5-1 11.9 3.2s1 9.5-3.2 11.9c-3.9 2.3-8.5 2.8-12.9 1.5-.5-.2-.8-.7-.7-1.2.2-.5.7-.8 1.2-.7 3.8 1.1 7.8.7 11.3-1.3 3.2-1.9 4.3-6 2.5-9.2-1.9-3.2-6-4.3-9.2-2.5-.5.3-1.1.1-1.4-.4s0-1 .5-1.3M59.8 168.4c.3.3.6.6 1 .8-1.4 5.2-4.8 9.9-9.8 12.8l-22.8 13.2c-.3-.3-.5-.6-.8-.9l23-13.3c4.9-2.8 8.1-7.4 9.4-12.6" class="st6"/><path d="m30.4 146.5-23 13.3c-.1-.4-.3-.8-.4-1.1l22.8-13.2c10.1-5.8 23-2.4 28.9 7.7 1.6 2.8 2.5 5.7 2.8 8.7-.4.2-.8.4-1.2.7-.2-3-1-6-2.6-8.7-5.6-9.6-17.8-12.9-27.3-7.4M25.4 172.1c-.8.5-1.5.6-2-.2-.4-.7-.2-1.2.7-1.8.9-.5 1.6-.5 2 .2.4.8.1 1.3-.7 1.8m-.4-.6c.2-.1.3-.2.4-.3l-1.5.3v.1c.2.3.5.2 1.1-.1m-1-.4 1.6-.3s0-.1-.1-.1c-.2-.3-.5-.2-1 .1-.2 0-.4.1-.5.3M26.8 174.5c-.8.5-1.5.6-2-.2-.4-.7-.2-1.2.7-1.8.9-.5 1.6-.5 2 .2.4.8.1 1.4-.7 1.8m-.4-.6c.2-.1.3-.2.4-.3l-1.5.3v.1c.2.3.5.2 1.1-.1m-1-.4 1.6-.3s0-.1-.1-.1c-.2-.3-.5-.2-1 .1-.2.1-.4.2-.5.3M196.1 73.8c-.3-.5-.1-1.1.4-1.4 4.2-2.4 9.5-1 11.9 3.2.2.3.3.6.5 1 .2.5 0 1.1-.5 1.3s-1.1 0-1.3-.5c-.1-.3-.2-.5-.4-.8-1.9-3.2-6-4.3-9.2-2.5-.5.3-1.1.2-1.4-.3" class="st6"/><path d="M203.2 84.2c-6 3.5-13.7 1.4-17.2-4.6s-1.4-13.7 4.6-17.2c1.2-.7 2.4-1.2 3.7-1.7.5-.2 1.1.1 1.3.6s-.1 1.1-.6 1.3q-1.8.6-3.3 1.5c-5 2.9-6.8 9.4-3.9 14.4s9.4 6.8 14.4 3.9c1.4-.8 1.8-2.5 1-3.9s-2.5-1.8-3.9-1c-2.3 1.3-5.3.5-6.6-1.8s-.5-5.3 1.8-6.6c4.6-2.7 10.4-2.1 14.4 1.3.4.4.5 1 .1 1.4s-1 .5-1.4.1c-3.4-2.9-8.3-3.4-12.1-1.1-1.4.8-1.8 2.5-1 3.9s2.5 1.8 3.9 1c2.3-1.3 5.3-.5 6.6 1.8s.5 5.4-1.8 6.7" class="st6"/><path d="M201.3 80.8c-4.2 2.4-9.5 1-11.9-3.2s-1-9.5 3.2-11.9c3.9-2.3 8.5-2.8 12.9-1.5.5.2.8.7.7 1.2-.2.5-.7.8-1.2.7-3.8-1.1-7.8-.7-11.3 1.3-3.2 1.9-4.3 6-2.5 9.2s6 4.3 9.2 2.5c.5-.3 1.1-.1 1.4.4s0 1.1-.5 1.3" class="st6"/><path d="m230.3 78.4-22.8 13.2c-10.1 5.8-23 2.4-28.9-7.7-5.8-10.1-2.4-23 7.7-28.9l22.8-13.2c.3.3.5.6.8.9l-23 13.3c-9.5 5.5-12.8 17.7-7.3 27.2s17.7 12.8 27.2 7.3l23-13.3c.2.4.4.8.5 1.2" class="st6"/><path d="M211.9 64.9c.8-.5 1.5-.6 2 .2.4.7.2 1.2-.7 1.8-.9.5-1.6.5-2-.2s-.1-1.3.7-1.8m1.4 1.1-1.6.3s0 .1.1.1c.2.3.5.2 1-.1.2-.1.3-.2.5-.3m-1-.5c-.2.1-.3.2-.4.3l1.5-.3v-.1c-.2-.3-.5-.2-1.1.1M210.8 63.2c-.1-.4 0-.8.4-1 .3-.2.9-.2 1.3.5.3.4.3.9.2 1.1h-.7c0-.2.1-.5-.1-.8-.1-.2-.3-.3-.4-.2-.3.2-.2.6 0 1l-.4.2c-.2-.4-.6-.6-.8-.5s-.2.3-.1.4c.1.2.3.3.5.3l-.3.5s-.5-.1-.9-.7c-.3-.5-.2-.9.2-1.2.5.1.9.2 1.1.4M196.1 163.2c.3-.5.9-.6 1.4-.4 4.2 2.4 5.6 7.7 3.2 11.9l-.6.9c-.3.4-1 .5-1.4.2s-.5-1-.2-1.4c.2-.2.3-.5.5-.7 1.9-3.2.7-7.3-2.5-9.2-.5-.2-.7-.8-.4-1.3" class="st6"/><path d="M190.7 174.6c-6-3.5-8.1-11.2-4.6-17.2s11.2-8.1 17.2-4.6q1.8 1.05 3.3 2.4c.4.4.5 1 .1 1.4s-1 .5-1.4.1q-1.35-1.2-3-2.1c-5-2.9-11.5-1.2-14.4 3.9s-1.2 11.5 3.9 14.4c1.4.8 3.1.3 3.9-1.1s.3-3.1-1-3.9c-2.3-1.3-3.1-4.3-1.8-6.6s4.3-3.1 6.6-1.8c4.6 2.7 7 8 6.1 13.2-.1.5-.6.9-1.2.8s-.9-.6-.8-1.2c.8-4.4-1.2-8.8-5.1-11.1-1.4-.8-3.1-.3-3.9 1s-.3 3.1 1 3.9c2.3 1.3 3.1 4.3 1.8 6.6s-4.4 3.2-6.7 1.9" class="st6"/><path d="M192.6 171.3c-4.2-2.4-5.6-7.7-3.2-11.9s7.7-5.6 11.9-3.2c3.9 2.3 6.7 6 7.8 10.4.1.5-.2 1.1-.7 1.2s-1.1-.2-1.2-.7c-.9-3.9-3.3-7.1-6.8-9.1-3.2-1.9-7.3-.8-9.2 2.5s-.7 7.3 2.5 9.2c.5.3.6.9.4 1.4s-1 .4-1.5.2M187 180.9l23 13.3c-.3.3-.5.6-.8.9L186.4 182c-5-2.9-8.4-7.5-9.8-12.7.4-.2.7-.5 1-.9 1.3 5 4.5 9.7 9.4 12.5" class="st6"/><path d="M230.4 158.5c-.1.4-.3.8-.4 1.1l-23-13.3c-9.5-5.5-21.7-2.2-27.2 7.3-1.6 2.8-2.5 5.9-2.6 9-.3-.3-.7-.5-1.2-.7.2-3 1.1-6.1 2.8-8.9 5.8-10.1 18.8-13.6 28.9-7.7zM211.7 172.5c.8.5 1.3 1 .8 1.9-.4.7-1 .8-1.9.3s-1.2-1.1-.8-1.9 1.1-.8 1.9-.3m-.2 1.7-1.1-1.2-.1.1c-.2.3.1.6.6.9.2 0 .4.1.6.2m-.2-1.1c-.2-.1-.3-.2-.4-.2l1 1.2s0-.1.1-.1c.2-.3-.1-.5-.7-.9M214.3 171.2l-.4.6-.5-.3-.6 1.1-.4-.2-1.1-2.1.4-.6 1.6.9.2-.3.5.3-.2.3zm-1.4 0-.8-.5.6 1z" class="st6"/></g></svg>