<svg xmlns="http://www.w3.org/2000/svg" id="Layer_1" data-name="Layer 1" viewBox="0 0 237.28 235.89"><defs><style>.cls-2{fill:#555a57}.cls-3{fill:#8b7866}.cls-4{fill:#7f8c8d}.cls-5{fill:#d6dadb}.cls-6{fill:#9e846d}.cls-7{fill:#bdab9c}.cls-8{fill:#fff}.cls-9{fill:#eba900}.cls-10{fill:#bcc3c4}.cls-11{fill:#2a312d}.cls-12{fill:#f8e6b7}.cls-13{fill:#eaa800}</style></defs><path d="M102.197 5.628v1.34a4.155 4.155 0 0 1-4.16 4.15h-4.54a4.155 4.155 0 0 1-4.16-4.15v-1.34a118.647 118.647 0 0 0-10.6 235.89 22.335 22.335 0 0 1 34.07 0 118.648 118.648 0 0 0-10.61-235.89m-59.02 216.63a3.533 3.533 0 1 1-1.3-4.83 3.533 3.533 0 0 1 1.3 4.83m-1.3-191.5a3.533 3.533 0 1 1 1.3-4.82 3.52 3.52 0 0 1-1.3 4.82m35 182.6a10.597 10.597 0 0 1-18.62-.01 1.597 1.597 0 1 1 2.81-1.52 7.398 7.398 0 0 0 13-.01 1.602 1.602 0 0 1 2.81 1.54m-.64-7.97a1.607 1.607 0 0 1-2.17-.65 7.403 7.403 0 0 0-13 0 1.597 1.597 0 1 1-2.81-1.52 10.593 10.593 0 0 1 18.62 0 1.6 1.6 0 0 1-.64 2.17m38.42-2.17a10.593 10.593 0 0 1 18.62 0 1.61 1.61 0 0 1-.64 2.17 1.65 1.65 0 0 1-.77.19 1.59 1.59 0 0 1-1.4-.84 7.403 7.403 0 0 0-13 0 1.597 1.597 0 1 1-2.81-1.52m18.62 10.14a10.597 10.597 0 0 1-18.62-.01 1.597 1.597 0 1 1 2.81-1.52 7.398 7.398 0 0 0 13-.01 1.602 1.602 0 0 1 2.81 1.54m73.8-85.73a3.53 3.53 0 1 1 3.53-3.53 3.53 3.53 0 0 1-3.53 3.53" style="fill:#3f4642" transform="translate(22.873 -5.628)"/><path d="M52.29 20.12a118.48 118.48 0 0 0-52 90.06l53.72 3.76a63.9 63.9 0 0 1 4.6-19.85c-.18-.09-.36-.18-.54-.28a9 9 0 0 1 9-15.59 6 6 0 0 1 .53.34 63.7 63.7 0 0 1 14.81-13.81ZM236.983 110.178a118.48 118.48 0 0 0-51.994-90.063l-30.117 44.643a63.9 63.9 0 0 1 14.89 13.909c.169-.111.337-.222.513-.328a9 9 0 0 1 9.002 15.59 6 6 0 0 1-.56.288 63.7 63.7 0 0 1 4.555 19.731ZM184.988 216.81a118.48 118.48 0 0 0 52-90.06l-53.72-3.76a63.9 63.9 0 0 1-4.6 19.85c.18.09.36.18.54.28a9 9 0 0 1-9 15.59 6 6 0 0 1-.53-.34 63.7 63.7 0 0 1-14.81 13.81ZM.294 126.753a118.48 118.48 0 0 0 51.994 90.063l30.117-44.642a63.9 63.9 0 0 1-14.891-13.91c-.168.112-.336.223-.512.328A9 9 0 0 1 58 143.003a6 6 0 0 1 .56-.289 63.7 63.7 0 0 1-4.555-19.73ZM170.65 11.81l-23.61 48.42a63.7 63.7 0 0 0-19.36-5.92q.03-.315.03-.63a9 9 0 0 0-18 0c0 .21.01.41.02.61a64 64 0 0 0-19.49 5.94L66.63 11.81A117.9 117.9 0 0 1 112.21 0v1.34a4.155 4.155 0 0 0 4.16 4.15h4.54a4.155 4.155 0 0 0 4.16-4.15V0a117.9 117.9 0 0 1 45.58 11.81" class="cls-2"/><path d="m69.021 218.409 3.242-3.492 1.144.544-.647 4.728-1.08-.514.173-.949-1.181-.562-.609.741Zm3.31-2.268-1.088 1.327.777.37ZM75.302 216.334l1.688.716c1.158.49 1.346 1.27 1.004 2.074a1.44 1.44 0 0 1-1.222.964l.168 1.879-1.223-.519-.069-1.594-.521-.221-.563 1.326-1.037-.44Zm1.588 2.33c.158-.374.102-.618-.38-.822l-.529-.225-.502 1.185.547.232a.584.584 0 0 0 .864-.37M79.336 218.028l1.393.524c1.591.596 1.839 1.548 1.338 2.883a2.016 2.016 0 0 1-2.928 1.373l-1.401-.525Zm.731 1.253-.948 2.527.4.15c.87.327 1.134-.179 1.404-.9.313-.83.395-1.307-.548-1.662ZM85.937 220.367l1.031.338-.931 2.84a1.587 1.587 0 0 1-2.252.98 1.538 1.538 0 0 1-1.172-2.11l.929-2.833 1.07.35-.863 2.635c-.236.719-.037.968.369 1.1.485.16.737 0 .953-.658ZM86.868 224.456l1.133.32.732-2.59-1.133-.32.254-.897 3.359.95-.254.897-1.14-.322-.732 2.59 1.14.322-.254.897-3.36-.95ZM92.006 226.81l-1.035-.247 1.052-4.424 1.19.284.806 2.995.631-2.654 1.02.243-1.051 4.423-1.11-.263-.837-3.19ZM99.68 226.111c-.25 1.291-.92 2.21-2.354 1.93-1.284-.247-1.725-1.137-1.44-2.613.26-1.346.968-2.243 2.32-1.981 1.271.246 1.802.961 1.473 2.664m-1.175-.227c.211-1.092.18-1.412-.472-1.538-.591-.114-.76.217-.973 1.308-.174.9-.199 1.365.44 1.488.645.125.806-.228 1.005-1.258M100.673 225.647a1.685 1.685 0 1 1 3.332.5 1.67 1.67 0 0 1-1.931 1.446 1.7 1.7 0 0 1-1.401-1.946m3.02.452a1.4 1.4 0 0 0-1.151-1.624 1.337 1.337 0 0 0-1.557 1.22 1.37 1.37 0 0 0 1.13 1.62 1.328 1.328 0 0 0 1.578-1.216m-2.06-1.37.9.134c.672.1.871.428.81.837a.66.66 0 0 1-.45.549l.237.821-.7-.104-.124-.685-.25-.037-.096.651-.638-.095Zm.697 1.11c.187.028.315-.024.347-.239.026-.172-.024-.265-.273-.302l-.201-.03-.081.54Z" class="cls-3"/><path d="M117.664 60.213a2 2 0 0 0-.135-.719h2.216a2 2 0 0 0-.136.719 1.85 1.85 0 0 0 .142.725h-2.23a1.85 1.85 0 0 0 .143-.725" class="cls-4"/><path d="M119.609 60.213a2 2 0 0 1 .136-.719h.365v1.444h-.359a1.85 1.85 0 0 1-.142-.725M117.17 60.938v-1.444h.359a2 2 0 0 1 .135.719 1.85 1.85 0 0 1-.142.725ZM115.184 53.025h1.838v1.317h-1.838zM115.184 50.488h1.838v1.317h-1.838zM115.184 55.562h1.838v1.317h-1.838zM120.258 53.025h1.838v1.317h-1.838zM120.258 50.488h1.838v1.317h-1.838zM120.258 55.562h1.838v1.317h-1.838z" class="cls-5"/><path d="M116.103 51.147h5.074v5.074h-5.074z" class="cls-6"/><path d="M117.022 52.066h3.235v3.235h-3.235z" class="cls-7"/><circle cx="118.64" cy="53.683" r="1.833" class="cls-8"/><path d="M168.6 88.494a2 2 0 0 0 .554-.477l1.108 1.919a2 2 0 0 0-.69.242 1.85 1.85 0 0 0-.557.486l-1.115-1.931a1.85 1.85 0 0 0 .7-.24" class="cls-4"/><path d="M169.572 90.178a2 2 0 0 1 .69-.242l.183.317-1.25.722-.18-.311a1.85 1.85 0 0 1 .557-.486M167.724 88.428l1.25-.722.18.311a2 2 0 0 1-.555.476 1.85 1.85 0 0 1-.699.24ZM173.584 82.752l.919 1.592-1.14.659-.92-1.592zM175.781 81.484l.92 1.591-1.141.659-.92-1.592zM171.387 84.02l.92 1.592-1.141.659-.92-1.592zM176.121 87.146l.92 1.592-1.141.658-.92-1.592zM178.318 85.877l.919 1.592-1.14.658-.92-1.592zM173.924 88.415l.919 1.591-1.14.659-.92-1.592z" class="cls-5"/><path d="m175.67 82.608 2.537 4.394-4.394 2.537-2.537-4.394z" class="cls-6"/><path d="m175.334 83.865 1.617 2.802-2.801 1.617-1.618-2.801z" class="cls-7"/><circle cx="174.742" cy="86.074" r="1.833" class="cls-8"/><path d="M169.576 146.746a2 2 0 0 0 .69.241l-1.108 1.92a2 2 0 0 0-.554-.477 1.85 1.85 0 0 0-.699-.24l1.115-1.93a1.85 1.85 0 0 0 .556.486" class="cls-4"/><path d="M168.604 148.43a2 2 0 0 1 .554.476l-.183.317-1.25-.721.18-.311a1.85 1.85 0 0 1 .699.239M169.196 145.955l1.25.721-.18.311a2 2 0 0 1-.69-.241 1.85 1.85 0 0 1-.556-.486ZM177.041 148.192l-.919 1.592-1.14-.659.919-1.592zM179.238 149.46l-.919 1.592-1.14-.658.919-1.592zM174.844 146.923l-.92 1.592-1.14-.658.92-1.592zM174.504 152.585l-.919 1.592-1.14-.658.919-1.592zM176.702 153.854l-.92 1.592-1.14-.659.919-1.591zM172.308 151.317l-.919 1.592-1.14-.658.918-1.592z" class="cls-5"/><path d="m178.208 149.927-2.537 4.394-4.394-2.537 2.537-4.394z" class="cls-6"/><path d="m176.952 150.263-1.617 2.802-2.802-1.618 1.618-2.801z" class="cls-7"/><circle cx="174.743" cy="150.855" r="1.833" class="cls-8"/><path d="M67.704 90.184a2 2 0 0 0-.69-.242l1.108-1.919a2 2 0 0 0 .555.477 1.85 1.85 0 0 0 .699.239l-1.115 1.93a1.85 1.85 0 0 0-.557-.485" class="cls-4"/><path d="M68.677 88.5a2 2 0 0 1-.555-.477l.183-.317 1.25.722-.18.31a1.85 1.85 0 0 1-.698-.238M68.085 90.975l-1.25-.722.18-.31a2 2 0 0 1 .69.24 1.85 1.85 0 0 1 .556.487ZM60.24 88.738l.919-1.591 1.14.658-.919 1.592zM58.042 87.469l.92-1.592 1.14.659-.92 1.591zM62.436 90.006l.92-1.591 1.14.658-.919 1.592zM62.777 84.344l.919-1.592 1.14.659-.919 1.592zM60.579 83.076l.919-1.592 1.14.658-.918 1.592zM64.973 85.612l.919-1.591 1.14.658-.919 1.592z" class="cls-5"/><path d="m59.072 87.003 2.537-4.395 4.394 2.537-2.537 4.395z" class="cls-6"/><path d="m60.328 86.667 1.617-2.802 2.802 1.618-1.617 2.801z" class="cls-7"/><circle cx="62.538" cy="86.074" r="1.833" class="cls-8"/><path d="M68.68 148.437a2 2 0 0 0-.554.477l-1.108-1.92a2 2 0 0 0 .69-.241 1.85 1.85 0 0 0 .557-.486l1.115 1.93a1.85 1.85 0 0 0-.7.24" class="cls-4"/><path d="M67.708 146.753a2 2 0 0 1-.69.242l-.183-.317 1.25-.722.18.311a1.85 1.85 0 0 1-.557.486M69.556 148.503l-1.25.722-.18-.311a2 2 0 0 1 .555-.477 1.85 1.85 0 0 1 .699-.239ZM63.696 154.179l-.92-1.592 1.141-.658.92 1.592zM61.5 155.447l-.92-1.592 1.141-.658.919 1.592zM65.893 152.91l-.919-1.591 1.14-.659.92 1.592zM61.159 149.785l-.919-1.591 1.14-.659.92 1.592zM58.963 151.054l-.92-1.592 1.141-.659.92 1.592zM63.356 148.517l-.919-1.592 1.14-.658.92 1.591z" class="cls-5"/><path d="m61.61 154.322-2.537-4.394 4.394-2.537 2.537 4.394z" class="cls-6"/><path d="m61.946 153.067-1.617-2.802 2.801-1.617 1.618 2.801z" class="cls-7"/><circle cx="62.538" cy="150.857" r="1.833" class="cls-8"/><circle cx="62.807" cy="165.708" r="3.27" class="cls-6"/><circle cx="18.725" cy="165.708" r="3.27" class="cls-6"/><circle cx="174.472" cy="165.708" r="3.27" class="cls-6"/><circle cx="218.554" cy="165.708" r="3.27" class="cls-6"/><path d="M114.295 221.248h-3.598v-9.203h3.598z" class="cls-5"/><circle cx="112.496" cy="216.647" r="2.691" class="cls-9"/><g id="Artwork_3" data-name="Artwork 3"><path d="M104.165 217.936h1.36a.02.02 0 0 1 .02.021v1.36a.02.02 0 0 1-.02.021h-1.36a.02.02 0 0 1-.022-.02v-1.36a.02.02 0 0 1 .022-.022M104.165 216.397h1.36a.02.02 0 0 1 .02.022v1.36a.02.02 0 0 1-.02.02h-1.36a.02.02 0 0 1-.022-.02v-1.36a.02.02 0 0 1 .022-.022" class="cls-4"/><path d="M104.258 217.295v1.19h.004a.583.583 0 0 0 1.165 0h.004v-1.189a.587.587 0 1 0-1.173 0" class="cls-10"/><path d="M104.258 217.428h1.174v.868h-1.174z" class="cls-11"/></g><g id="Artwork_3-2" data-name="Artwork 3"><path d="M106.757 217.936h1.36a.02.02 0 0 1 .02.021v1.36a.02.02 0 0 1-.02.021h-1.36a.02.02 0 0 1-.022-.02v-1.36a.02.02 0 0 1 .022-.022M106.757 216.397h1.36a.02.02 0 0 1 .02.022v1.36a.02.02 0 0 1-.02.02h-1.36a.02.02 0 0 1-.022-.02v-1.36a.02.02 0 0 1 .022-.022" class="cls-4"/><path d="M106.85 217.295v1.19h.004a.583.583 0 0 0 1.165 0h.004v-1.189a.587.587 0 1 0-1.173 0" class="cls-10"/><path d="M106.85 217.428h1.174v.868h-1.174z" class="cls-11"/></g><path d="M122.984 212.046h3.598v9.203h-3.598z" class="cls-5"/><circle cx="124.783" cy="216.647" r="2.691" class="cls-9"/><g id="Artwork_3-3" data-name="Artwork 3"><path d="M131.755 217.936h1.36a.02.02 0 0 1 .02.021v1.36a.02.02 0 0 1-.02.021h-1.36a.02.02 0 0 1-.021-.02v-1.36a.02.02 0 0 1 .021-.022M131.755 216.397h1.36a.02.02 0 0 1 .02.022v1.36a.02.02 0 0 1-.02.02h-1.36a.02.02 0 0 1-.021-.02v-1.36a.02.02 0 0 1 .021-.022" class="cls-4"/><path d="M133.021 217.295v1.19h-.004a.583.583 0 0 1-1.165 0h-.004v-1.189a.587.587 0 1 1 1.173 0" class="cls-10"/><path d="M131.848 217.428h1.174v.868h-1.174z" class="cls-11"/></g><g id="Artwork_3-4" data-name="Artwork 3"><path d="M129.163 217.936h1.36a.02.02 0 0 1 .021.021v1.36a.02.02 0 0 1-.021.021h-1.36a.02.02 0 0 1-.021-.02v-1.36a.02.02 0 0 1 .021-.022M129.163 216.397h1.36a.02.02 0 0 1 .021.022v1.36a.02.02 0 0 1-.021.02h-1.36a.02.02 0 0 1-.021-.02v-1.36a.02.02 0 0 1 .021-.022" class="cls-4"/><path d="M130.43 217.295v1.19h-.005a.583.583 0 0 1-1.164 0h-.005v-1.189a.587.587 0 1 1 1.173 0" class="cls-10"/><path d="M129.256 217.428h1.174v.868h-1.174z" class="cls-11"/></g><g id="Artwork_3-5" data-name="Artwork 3"><path d="M124.985 202.2h1.36a.02.02 0 0 1 .021.021v1.36a.02.02 0 0 1-.02.02h-1.36a.02.02 0 0 1-.022-.02v-1.36a.02.02 0 0 1 .021-.021M126.524 202.2h1.36a.02.02 0 0 1 .021.021v1.36a.02.02 0 0 1-.021.02h-1.36a.02.02 0 0 1-.021-.02v-1.36a.02.02 0 0 1 .02-.021" class="cls-4"/><path d="M127.007 203.487h-1.189v-.004a.583.583 0 0 1 0-1.165v-.004h1.189a.587.587 0 1 1 0 1.173" class="cls-10"/><path d="M126.006 202.314h.868v1.174h-.868z" class="cls-11"/></g><path d="M116.849 199.947h7.166v5.907h-7.166zM113.266 199.947h2.753v5.907h-2.753z" class="cls-11"/><circle cx="121.928" cy="202.901" r="1.078" class="cls-12"/><path d="M121.928 202.143a.756.756 0 1 0 .756.756.755.755 0 0 0-.756-.756m0 1.28a.52.52 0 0 1-.523-.524.523.523 0 0 1 1.046 0 .52.52 0 0 1-.523.523" class="cls-13"/><circle cx="114.642" cy="202.901" r="1.078" class="cls-12"/><path d="M114.642 202.143a.756.756 0 1 0 .756.756.755.755 0 0 0-.756-.756m0 1.28a.52.52 0 0 1-.523-.524.523.523 0 0 1 1.046 0 .52.52 0 0 1-.523.523" class="cls-13"/><path d="M125.27 197.588a2 2 0 0 0 .718-.136v2.216a2 2 0 0 0-.718-.136 1.85 1.85 0 0 0-.725.143v-2.23a1.85 1.85 0 0 0 .725.143" class="cls-4"/><path d="M125.27 199.532a2 2 0 0 1 .718.136v.366h-1.443v-.36a1.85 1.85 0 0 1 .725-.142M124.545 197.093h1.443v.359a2 2 0 0 1-.718.135 1.85 1.85 0 0 1-.725-.142Z" class="cls-5"/><path d="M127.606 197.588a2 2 0 0 0 .718-.136v2.216a2 2 0 0 0-.718-.136 1.85 1.85 0 0 0-.725.143v-2.23a1.85 1.85 0 0 0 .725.143" class="cls-4"/><path d="M127.606 199.532a2 2 0 0 1 .718.136v.366h-1.443v-.36a1.85 1.85 0 0 1 .725-.142M126.881 197.093h1.443v.359a2 2 0 0 1-.718.135 1.85 1.85 0 0 1-.725-.142Z" class="cls-5"/><path d="M87.676 199.89h5.531v5.531h-5.531z" class="cls-11"/><path d="M89.664 202.038h2.899v2.899h-2.899z"/><path d="M149.604 205.42h-5.53v-5.53h5.53z" class="cls-11"/><path d="M147.616 204.937h-2.899v-2.9h2.9z"/><path id="traccia-loop" d="M28.668 216.806a5.4 5.4 0 0 1-.558-.507 6.21 6.21 0 0 1-1.532-4.68q0-.03.003-.057a6.32 6.32 0 0 1-4.962-.397 5.5 5.5 0 0 1-.623-.427 4.73 4.73 0 1 1 5.868-7.415 5 5 0 0 1 .556.507 6.16 6.16 0 0 1 1.54 4.49q-.002.122-.01.246a6.3 6.3 0 0 1 4.96.399 5 5 0 0 1 .623.424 4.73 4.73 0 1 1-5.865 7.417m-.049-6.069-.104.631a3 3 0 0 0-.037.333 4.47 4.47 0 0 0 1.01 3.286 4 4 0 0 0 .36.327 2.83 2.83 0 1 0 3.505-4.433 3 3 0 0 0-.397-.271 4.55 4.55 0 0 0-3.6-.18Zm-2.935-5.923a2.83 2.83 0 1 0-3.508 4.432 4 4 0 0 0 .402.276 4.56 4.56 0 0 0 3.598.176l.738-.31.087-.525a4 4 0 0 0 .058-.582 4.26 4.26 0 0 0-1.019-3.142 3 3 0 0 0-.356-.325" class="cls-3" transform="translate(22.873 -5.628)"/><path d="m45.114 200.794.692-.875 2.713 2.146-.692.875zM54.456 208.183l.917.725.692-.874-.918-.726.728-.92-.876-.693-.728.92-.919-.726-.691.874.918.727-.728.92.877.693z" class="cls-3"/><circle cx="151.17" cy="96.887" r="3.233" class="cls-6"/><circle cx="101.796" cy="87.003" r="3.233" class="cls-6"/><circle cx="92.642" cy="136.88" r="3.233" class="cls-6"/><g id="Artwork_3-6" data-name="Artwork 3"><path d="M86.851 102.327h1.36a.02.02 0 0 1 .021.021v1.36a.02.02 0 0 1-.02.02h-1.36a.02.02 0 0 1-.022-.02v-1.36a.02.02 0 0 1 .021-.021M88.39 102.327h1.36a.02.02 0 0 1 .021.021v1.36a.02.02 0 0 1-.021.02h-1.36a.02.02 0 0 1-.021-.02v-1.36a.02.02 0 0 1 .02-.021" class="cls-4"/><path d="M88.873 103.614h-1.189v-.004a.583.583 0 0 1 0-1.165v-.004h1.189a.587.587 0 1 1 0 1.173" class="cls-10"/><path d="M87.872 102.441h.868v1.174h-.868z" class="cls-11"/></g><g id="Artwork_3-7" data-name="Artwork 3"><path d="M134.36 124.135h1.36a.02.02 0 0 1 .02.022v1.36a.02.02 0 0 1-.02.02h-1.36a.02.02 0 0 1-.021-.02v-1.36a.02.02 0 0 1 .02-.022M135.898 124.135h1.36a.02.02 0 0 1 .021.022v1.36a.02.02 0 0 1-.02.02h-1.36a.02.02 0 0 1-.022-.02v-1.36a.02.02 0 0 1 .021-.022" class="cls-4"/><path d="M136.381 125.423h-1.189v-.004a.583.583 0 0 1 0-1.165v-.004h1.189a.587.587 0 1 1 0 1.173" class="cls-10"/><path d="M135.381 124.25h.868v1.174h-.868z" class="cls-11"/></g><g id="Artwork_3-8" data-name="Artwork 3"><path d="M134.36 126.775h1.36a.02.02 0 0 1 .02.021v1.36a.02.02 0 0 1-.02.021h-1.36a.02.02 0 0 1-.022-.02v-1.36a.02.02 0 0 1 .022-.022M135.898 126.775h1.36a.02.02 0 0 1 .021.021v1.36a.02.02 0 0 1-.02.021h-1.36a.02.02 0 0 1-.022-.02v-1.36a.02.02 0 0 1 .021-.022" class="cls-4"/><path d="M136.381 128.063h-1.189v-.005a.583.583 0 0 1 0-1.164v-.004h1.189a.587.587 0 1 1 0 1.172" class="cls-10"/><path d="M135.381 126.889h.868v1.174h-.868z" class="cls-11"/></g><g id="Artwork_3-9" data-name="Artwork 3"><path d="M116.52 128.063h1.36a.02.02 0 0 1 .022.021v1.36a.02.02 0 0 1-.021.021h-1.36a.02.02 0 0 1-.021-.021v-1.36a.02.02 0 0 1 .02-.02M118.06 128.063h1.36a.02.02 0 0 1 .02.021v1.36a.02.02 0 0 1-.02.021h-1.36a.02.02 0 0 1-.022-.021v-1.36a.02.02 0 0 1 .022-.02" class="cls-4"/><path d="M118.543 129.35h-1.19v-.004a.583.583 0 0 1 0-1.164v-.005h1.189a.587.587 0 1 1 0 1.173" class="cls-10"/><path d="M117.542 128.177h.868v1.174h-.868z" class="cls-11"/></g><g id="Artwork_3-10" data-name="Artwork 3"><path d="M86.851 104.912h1.36a.02.02 0 0 1 .021.021v1.36a.02.02 0 0 1-.02.021h-1.36a.02.02 0 0 1-.022-.021v-1.36a.02.02 0 0 1 .021-.02M88.39 104.912h1.36a.02.02 0 0 1 .021.021v1.36a.02.02 0 0 1-.021.021h-1.36a.02.02 0 0 1-.021-.021v-1.36a.02.02 0 0 1 .02-.02" class="cls-4"/><path d="M88.873 106.2h-1.189v-.005a.583.583 0 0 1 0-1.164v-.005h1.189a.587.587 0 1 1 0 1.173" class="cls-10"/><path d="M87.872 105.026h.868v1.174h-.868z" class="cls-11"/></g><g id="Artwork_3-11" data-name="Artwork 3"><path d="M86.851 107.497h1.36a.02.02 0 0 1 .021.022v1.36a.02.02 0 0 1-.02.02h-1.36a.02.02 0 0 1-.022-.02v-1.36a.02.02 0 0 1 .021-.022M88.39 107.497h1.36a.02.02 0 0 1 .021.022v1.36a.02.02 0 0 1-.021.02h-1.36a.02.02 0 0 1-.021-.02v-1.36a.02.02 0 0 1 .02-.022" class="cls-4"/><path d="M88.873 108.785h-1.189v-.004a.583.583 0 0 1 0-1.165v-.004h1.189a.587.587 0 1 1 0 1.173" class="cls-10"/><path d="M87.872 107.612h.868v1.174h-.868z" class="cls-11"/></g><g id="Artwork_3-12" data-name="Artwork 3"><path d="M86.851 110.083h1.36a.02.02 0 0 1 .021.021v1.36a.02.02 0 0 1-.02.02h-1.36a.02.02 0 0 1-.022-.02v-1.36a.02.02 0 0 1 .021-.021M88.39 110.083h1.36a.02.02 0 0 1 .021.021v1.36a.02.02 0 0 1-.021.02h-1.36a.02.02 0 0 1-.021-.02v-1.36a.02.02 0 0 1 .02-.021" class="cls-4"/><path d="M88.873 111.37h-1.189v-.004a.583.583 0 0 1 0-1.165v-.004h1.189a.587.587 0 1 1 0 1.173" class="cls-10"/><path d="M87.872 110.197h.868v1.174h-.868z" class="cls-11"/></g><g id="Artwork_3-13" data-name="Artwork 3"><path d="M86.851 112.668h1.36a.02.02 0 0 1 .021.021v1.36a.02.02 0 0 1-.02.021h-1.36a.02.02 0 0 1-.022-.021v-1.36a.02.02 0 0 1 .021-.02M88.39 112.668h1.36a.02.02 0 0 1 .021.021v1.36a.02.02 0 0 1-.021.021h-1.36a.02.02 0 0 1-.021-.021v-1.36a.02.02 0 0 1 .02-.02" class="cls-4"/><path d="M88.873 113.955h-1.189v-.004a.583.583 0 0 1 0-1.164v-.005h1.189a.587.587 0 1 1 0 1.173" class="cls-10"/><path d="M87.872 112.782h.868v1.174h-.868z" class="cls-11"/></g><g id="Artwork_3-14" data-name="Artwork 3"><path d="M86.851 115.253h1.36a.02.02 0 0 1 .021.022v1.36a.02.02 0 0 1-.02.02h-1.36a.02.02 0 0 1-.022-.02v-1.36a.02.02 0 0 1 .021-.022M88.39 115.253h1.36a.02.02 0 0 1 .021.022v1.36a.02.02 0 0 1-.021.02h-1.36a.02.02 0 0 1-.021-.02v-1.36a.02.02 0 0 1 .02-.022" class="cls-4"/><path d="M88.873 116.54v.001h-1.189v-.004a.583.583 0 0 1 0-1.165v-.004h1.189a.587.587 0 1 1 0 1.173" class="cls-10"/><path d="M87.872 115.368h.868v1.174h-.868z" class="cls-11"/></g><path d="M114.375 119.795h8.563v7.094h-8.563z" class="cls-11"/><path d="M100.474 113.557h.799v2.062h-.799zM102.155 113.557h.799v2.062h-.799zM103.836 113.557h.799v2.062h-.799zM105.516 113.557h.799v2.062h-.799zM107.197 113.557h.799v2.062h-.799zM108.878 113.557h.799v2.062h-.799zM110.558 113.557h.799v2.062h-.799zM112.239 113.557h.799v2.062h-.799zM113.92 113.557h.799v2.062h-.799zM115.6 113.557h.799v2.062h-.799zM117.281 113.557h.799v2.062h-.799zM118.962 113.557h.799v2.062h-.799zM120.642 113.557h.799v2.062h-.799zM122.323 113.557h.799v2.062h-.799zM124.004 113.557h.799v2.062h-.799zM125.685 113.557h.799v2.062h-.799zM127.365 113.557h.799v2.062h-.799zM129.046 113.557h.799v2.062h-.799zM130.727 113.557h.799v2.062h-.799zM132.407 113.557h.799v2.062h-.799zM134.088 113.557h.799v2.062h-.799zM135.769 113.557h.799v2.062h-.799zM99.253 105.026h1.1v2.837h-1.1zM97.551 105.883h1.1v2.837h-1.1zM100.954 105.026h1.1v2.837h-1.1zM102.656 105.026h1.1v2.837h-1.1zM104.358 105.026h1.1v2.837h-1.1zM106.059 105.026h1.1v2.837h-1.1zM107.761 105.026h1.1v2.837h-1.1zM109.463 105.026h1.1v2.837h-1.1zM111.164 105.026h1.1v2.837h-1.1zM112.866 105.026h1.1v2.837h-1.1zM114.568 105.026h1.1v2.837h-1.1zM116.27 105.026h1.1v2.837h-1.1zM117.971 105.026h1.1v2.837h-1.1zM119.673 105.026h1.1v2.837h-1.1zM121.375 105.026h1.1v2.837h-1.1zM123.076 105.026h1.1v2.837h-1.1zM124.778 105.026h1.1v2.837h-1.1zM126.48 105.026h1.1v2.837h-1.1zM128.181 105.026h1.1v2.837h-1.1zM129.883 105.026h1.1v2.837h-1.1zM131.585 105.026h1.1v2.837h-1.1zM133.286 105.026h1.1v2.837h-1.1zM134.988 105.026h1.1v2.837h-1.1zM136.69 105.026h1.1v2.837h-1.1zM138.391 105.883h1.1v2.837h-1.1z" class="cls-4"/><path d="M98.101 106.445h40.84v8.143h-40.84z" class="cls-11"/><path d="M110.132 130.574h.799v4.052h-.799zM111.532 130.574h.799v4.052h-.799zM112.932 130.574h.799v4.052h-.799zM114.332 130.574h.799v4.052h-.799zM115.732 130.574h.799v4.052h-.799zM117.131 130.574h.799v4.052h-.799zM118.531 130.574h.799v4.052h-.799zM119.931 130.574h.799v4.052h-.799zM121.331 130.574h.799v4.052h-.799zM122.731 130.574h.799v4.052h-.799zM124.13 130.574h.799v4.052h-.799zM125.53 130.574h.799v4.052h-.799zM126.93 130.574h.799v4.052h-.799zM128.33 130.574h.799v4.052h-.799zM129.73 130.574h.799v4.052h-.799zM131.129 130.574h.799v4.052h-.799zM132.529 130.574h.799v4.052h-.799zM133.929 130.574h.799v4.052h-.799zM135.329 130.574h.799v4.052h-.799zM136.729 130.574h.799v4.052h-.799zM138.128 130.574h.799v4.052h-.799zM139.528 130.574h.799v4.052h-.799zM140.928 130.574h.799v4.052h-.799zM142.328 130.574h.799v4.052h-.799zM108.958 132.484v5.99h-3.11v-2.04h-3.96v-2.68h1.94v-1.27zM144.302 132.484v5.99h3.11v-2.04h3.96v-2.68h-1.94v-1.27z" class="cls-4"/><path d="M102.214 139.384h48.831v4.949h-48.831z" class="cls-5"/><path d="M103.426 133.38h46.407v8.861h-46.407z" class="cls-8"/><path d="M103.426 133.38h3.375v4.431h-3.375zM146.459 133.38h3.375v4.431h-3.375z" class="cls-5"/><path d="M80.279 79.451s-6.042 17.79-7.982 23.745c-1.982 6.085-3.65 11.573-3.65 25.338a49.99 49.99 0 1 0 99.982 0c0-13.765-1.668-19.253-3.65-25.338-1.94-5.954-7.982-23.745-7.982-23.745Z"/><path d="M153.016 71.758h-11.74v-6.836h11.74z" class="cls-5"/><path d="M152.105 66.22h-1.697v-2.855h1.697zM149.86 66.22h-1.696v-2.855h1.697zM147.617 66.22h-1.697v-2.855h1.697z" class="cls-6"/><path d="m80.286 79.451 3.01-8.91.96-2.84.73-2.17h11.28v2.17h56.75l3.98 11.75z" class="cls-11"/><path d="M144.782 67.701H95.085v-4.336h45.361a4.336 4.336 0 0 1 4.336 4.336" class="cls-6"/><path d="M118.64 29.044a1 1 0 0 1-1-1 8.72 8.72 0 0 1 8.711-8.712 9 9 0 0 1 1.085.066 1 1 0 1 1-.242 1.985 7 7 0 0 0-.843-.05 6.72 6.72 0 0 0-6.71 6.71 1 1 0 0 1-1 1" class="cls-8"/><path d="M131.21 28.04a12.57 12.57 0 1 1-25.14 0 20.4 20.4 0 0 1 .41-4.05.99.99 0 0 1 1.18-.78 1 1 0 0 1 .78 1.18 18.5 18.5 0 0 0-.37 3.65 10.57 10.57 0 1 0 21.14 0 2.855 2.855 0 0 0-5.71 0 4.86 4.86 0 0 1-9.72 0 12.56 12.56 0 0 1 8.38-11.84 1.003 1.003 0 1 1 .67 1.89 10.55 10.55 0 0 0-7.05 9.95 2.86 2.86 0 0 0 5.72 0 4.855 4.855 0 0 1 9.71 0" class="cls-8"/><path d="M127.35 28.04a8.71 8.71 0 1 1-17.42 0 16.23 16.23 0 0 1 5.13-11.92 1 1 0 1 1 1.38 1.45 14.26 14.26 0 0 0-4.51 10.47 6.71 6.71 0 1 0 13.42 0 1 1 0 0 1 2 0" class="cls-8"/><path d="M139.69 1.69v26.35a21.135 21.135 0 1 1-42.27 0V1.72c.4-.07.8-.14 1.2-.2v26.52a19.935 19.935 0 0 0 39.87 0V1.49c.41.06.81.13 1.2.2" class="cls-8"/><path d="M118.85 11.9c0-.915.229-1.62 1.214-1.62.784 0 1.172.42 1.172 1.499 0 1.013-.317 1.625-1.224 1.625-.826 0-1.163-.547-1.163-1.504m.751-.042a4 4 0 0 0 .024.49l.513-1.47a1 1 0 0 0-.102-.005c-.37 0-.435.312-.435.985m.85-.607-.536 1.546a.6.6 0 0 0 .14.018c.345 0 .434-.369.434-.948a3.2 3.2 0 0 0-.038-.616M117.051 12.446c0 .21.1.37.341.37a.77.77 0 0 0 .56-.323l.342.49a1.47 1.47 0 0 1-1.06.42.85.85 0 0 1-.948-.873 2.25 2.25 0 0 1 1.12-1.587h-1.241v-.617h2.152v.449c-.509.298-1.266 1.102-1.266 1.671M41.199 73.754a1 1 0 0 1-1.366.366 8.72 8.72 0 0 1-3.189-11.9 9 9 0 0 1 .6-.906 1 1 0 1 1 1.598 1.202 7 7 0 0 0-.466.705 6.72 6.72 0 0 0 2.457 9.167 1 1 0 0 1 .366 1.366" class="cls-8"/><path d="M46.615 62.367a12.57 12.57 0 1 1-12.57 21.771 20.4 20.4 0 0 1-3.303-2.38.99.99 0 0 1-.085-1.412 1 1 0 0 1 1.412-.085 18.5 18.5 0 0 0 2.976 2.145A10.57 10.57 0 1 0 45.615 64.1a2.855 2.855 0 0 0-2.855 4.945 4.86 4.86 0 0 1-4.86 8.417 12.56 12.56 0 0 1-6.064-13.177 1.003 1.003 0 1 1 1.972.365 10.55 10.55 0 0 0 5.092 11.08 2.86 2.86 0 0 0 2.86-4.953 4.855 4.855 0 0 1 4.855-8.41Z" class="cls-8"/><path d="M44.685 65.71a8.71 8.71 0 1 1-8.71 15.086 16.23 16.23 0 0 1-7.758-10.403 1 1 0 1 1 1.945-.47 14.26 14.26 0 0 0 6.813 9.14 6.71 6.71 0 1 0 6.71-11.621 1 1 0 0 1 1-1.733" class="cls-8"/><path d="m28.035 41.848 22.82 13.175A21.135 21.135 0 1 1 29.72 91.63L6.926 78.47c.14-.382.279-.763.427-1.14L30.32 90.59a19.935 19.935 0 0 0 19.935-34.528L27.262 42.787q.387-.487.773-.94" class="cls-8"/><path d="M25.591 64.5c-.793-.457-1.29-1.009-.796-1.862.392-.68.95-.805 1.884-.265.878.506 1.249 1.087.796 1.872-.413.716-1.055.734-1.884.255m.34-.672a4 4 0 0 0 .435.225l-1.016-1.18a1 1 0 0 0-.056.086c-.183.32.054.533.637.87m-.102-1.04 1.07 1.238a.6.6 0 0 0 .086-.112c.174-.299-.101-.56-.603-.85a3.2 3.2 0 0 0-.553-.275M24.49 64.495l-.354.61 1.582.913.263-.511.52.3-.6 1.163-2.131-1.23-.343.595-.534-.308 1.062-1.84ZM41.2 163.177a1 1 0 0 1-.366 1.366 8.72 8.72 0 0 1-11.9-3.189 9 9 0 0 1-.486-.972 1 1 0 1 1 1.84-.783 7 7 0 0 0 .378.755 6.72 6.72 0 0 0 9.168 2.456 1 1 0 0 1 1.366.367" class="cls-8"/><path d="M34.045 152.793a12.57 12.57 0 1 1 12.57 21.771 20.4 20.4 0 0 1-3.712 1.67.99.99 0 0 1-1.265-.631 1 1 0 0 1 .631-1.266 18.5 18.5 0 0 0 3.346-1.505 10.57 10.57 0 1 0-10.57-18.307 2.855 2.855 0 0 0 2.855 4.945 4.86 4.86 0 0 1 4.86 8.417 12.56 12.56 0 0 1-14.443-1.337 1.003 1.003 0 1 1 1.301-1.525 10.55 10.55 0 0 0 12.142 1.13 2.86 2.86 0 0 0-2.86-4.953 4.855 4.855 0 0 1-4.855-8.41" class="cls-8"/><path d="M35.975 156.135a8.71 8.71 0 1 1 8.71 15.087 16.23 16.23 0 0 1-12.888 1.517 1 1 0 1 1 .566-1.92 14.26 14.26 0 0 0 11.322-1.33 6.71 6.71 0 1 0-6.71-11.621 1 1 0 1 1-1-1.732M59.75 168.4a3.6 3.6 0 0 0 1.03.84 21.04 21.04 0 0 1-9.84 12.82l-22.79 13.16c-.26-.32-.52-.63-.78-.94l22.97-13.26a19.93 19.93 0 0 0 9.41-12.62" class="cls-8"/><path d="m30.41 146.49-23 13.27q-.225-.57-.42-1.14l22.82-13.17a21.15 21.15 0 0 1 28.87 7.74 20.96 20.96 0 0 1 2.75 8.68 4 4 0 0 0-1.17.65 19.6 19.6 0 0 0-2.62-8.73 19.956 19.956 0 0 0-27.23-7.3M25.38 172.064c-.793.458-1.518.613-2.01-.241-.393-.679-.223-1.226.712-1.765.877-.505 1.566-.537 2.019.248.413.715.108 1.28-.721 1.758m-.412-.629a4 4 0 0 0 .413-.265l-1.531.29a1 1 0 0 0 .047.09c.185.32.488.221 1.07-.115m-.951-.432 1.607-.309a.6.6 0 0 0-.054-.13c-.173-.3-.537-.192-1.038.097a3.2 3.2 0 0 0-.515.342M26.78 174.492c-.792.457-1.517.611-2.01-.242-.392-.68-.222-1.225.713-1.765.877-.507 1.566-.537 2.019.247.413.716.108 1.281-.721 1.76m-.411-.63a4 4 0 0 0 .412-.266l-1.53.29a1 1 0 0 0 .047.091c.185.32.488.22 1.07-.116m-.951-.433 1.607-.308a.6.6 0 0 0-.054-.131c-.173-.299-.537-.191-1.038.098a3.2 3.2 0 0 0-.515.341M196.08 73.754a1 1 0 0 1 .367-1.366 8.72 8.72 0 0 1 11.9 3.188 9 9 0 0 1 .485.973 1 1 0 1 1-1.84.783 7 7 0 0 0-.378-.756 6.72 6.72 0 0 0-9.167-2.456 1 1 0 0 1-1.366-.366" class="cls-8"/><path d="M203.235 84.138a12.57 12.57 0 1 1-12.57-21.772 20.4 20.4 0 0 1 3.712-1.67.99.99 0 0 1 1.266.632 1 1 0 0 1-.632 1.266 18.5 18.5 0 0 0-3.346 1.504 10.57 10.57 0 1 0 10.57 18.308 2.855 2.855 0 0 0-2.855-4.945 4.86 4.86 0 0 1-4.86-8.418 12.56 12.56 0 0 1 14.443 1.338 1.003 1.003 0 1 1-1.301 1.525 10.55 10.55 0 0 0-12.142-1.13 2.86 2.86 0 0 0 2.86 4.953 4.855 4.855 0 0 1 4.855 8.41" class="cls-8"/><path d="M201.305 80.795a8.71 8.71 0 1 1-8.71-15.086 16.23 16.23 0 0 1 12.888-1.517 1 1 0 1 1-.566 1.92 14.26 14.26 0 0 0-11.322 1.33 6.71 6.71 0 1 0 6.71 11.621 1 1 0 0 1 1 1.732" class="cls-8"/><path d="m230.294 78.307-22.82 13.175a21.135 21.135 0 1 1-21.134-36.607l22.793-13.16c.261.312.522.623.774.94l-22.967 13.26a19.935 19.935 0 0 0 19.935 34.528l22.993-13.275c.153.385.292.766.426 1.14" class="cls-8"/><path d="M211.898 64.865c.793-.458 1.518-.612 2.01.241.393.679.223 1.226-.712 1.765-.877.506-1.565.537-2.019-.248-.413-.715-.108-1.28.721-1.758m1.363 1.062-1.607.308a.6.6 0 0 0 .054.13c.173.3.537.192 1.038-.097a3.2 3.2 0 0 0 .515-.341m-.95-.433a4 4 0 0 0-.413.266l1.53-.29a1 1 0 0 0-.047-.091c-.185-.32-.488-.221-1.07.115M210.837 63.176a.83.83 0 0 1 .357-1.016c.34-.196.912-.176 1.328.543a1.64 1.64 0 0 1 .224 1.062l-.677-.013a1 1 0 0 0-.081-.768c-.103-.178-.259-.27-.437-.168-.278.161-.203.582.048 1.025l-.388.224c-.243-.372-.585-.574-.78-.462-.17.098-.157.268-.068.422a.74.74 0 0 0 .51.342l-.254.513a1.46 1.46 0 0 1-.86-.712.813.813 0 0 1 .216-1.17.73.73 0 0 1 .862.178M196.082 163.175a1 1 0 0 1 1.366-.366 8.72 8.72 0 0 1 3.188 11.9 9 9 0 0 1-.599.907 1 1 0 1 1-1.598-1.203 7 7 0 0 0 .465-.704 6.72 6.72 0 0 0-2.456-9.168 1 1 0 0 1-.366-1.366" class="cls-8"/><path d="M190.666 174.563a12.57 12.57 0 1 1 12.57-21.772 20.4 20.4 0 0 1 3.302 2.38.99.99 0 0 1 .086 1.412 1 1 0 0 1-1.412.086 18.5 18.5 0 0 0-2.976-2.146 10.57 10.57 0 1 0-10.57 18.308 2.855 2.855 0 0 0 2.855-4.945 4.86 4.86 0 0 1 4.86-8.418 12.56 12.56 0 0 1 6.064 13.177 1.003 1.003 0 1 1-1.972-.364 10.55 10.55 0 0 0-5.092-11.08 2.86 2.86 0 0 0-2.86 4.953 4.855 4.855 0 0 1-4.855 8.409" class="cls-8"/><path d="M192.596 171.22a8.71 8.71 0 1 1 8.71-15.086 16.23 16.23 0 0 1 7.758 10.403 1 1 0 1 1-1.946.47 14.26 14.26 0 0 0-6.812-9.14 6.71 6.71 0 1 0-6.71 11.621 1 1 0 0 1-1 1.732M187.03 180.87l22.99 13.27c-.26.33-.52.64-.77.94l-22.82-13.17a21.03 21.03 0 0 1-9.81-12.74 3.6 3.6 0 0 0 1.01-.89 19.88 19.88 0 0 0 9.4 12.59" class="cls-8"/><path d="M230.35 158.46q-.195.57-.42 1.14l-22.97-13.26a19.917 19.917 0 0 0-29.86 16.24 4.1 4.1 0 0 0-1.17-.68 21.124 21.124 0 0 1 31.63-16.6ZM211.687 172.43c.793.457 1.29 1.01.796 1.862-.392.68-.95.805-1.884.265-.878-.506-1.249-1.087-.796-1.872.413-.716 1.055-.734 1.884-.256m-.238 1.711-1.07-1.237a.6.6 0 0 0-.086.111c-.174.3.101.562.603.851a3.3 3.3 0 0 0 .553.275m-.102-1.04a4 4 0 0 0-.435-.224l1.016 1.18a1 1 0 0 0 .056-.087c.184-.319-.054-.532-.637-.869M214.255 171.13l-.365.631-.497-.287-.633 1.096-.356-.206-1.143-2.12.366-.631 1.628.94.197-.34.502.29-.197.34Zm-1.364.054-.844-.487.56.98Z" class="cls-8"/></svg>