<svg xmlns="http://www.w3.org/2000/svg" width="1060" height="496" fill="none" viewBox="0 0 1060 496"><g clip-path="url(#a)"><path fill="#fff" d="M0 0h1060v496H0z"/><path stroke="#000" stroke-width="1.5" d="M0 99.651h791.411"/><path stroke="#000" stroke-linecap="round" stroke-width="1.5" d="M790.583 138.573H424.854a5 5 0 0 0-5 5v110.109M-62.937 446.083h477.791a5 5 0 0 0 5-5V274.937"/><path stroke="#000" stroke-width="1.5" d="M791.411 179.979H605.302a5 5 0 0 0-5 5v74.469a5 5 0 0 1-5 5H308.094a5 5 0 0 1-5-5v-91.615"/><path stroke="#000" stroke-linecap="round" stroke-width="1.5" d="M279.552 168.188h48.188M279.906 157.896h23.493m23.986 0h-23.986m0-58.521v58.521"/><circle cx="303.5" cy="99.5" r="4.5" fill="#000"/><circle cx="514.5" cy="264.5" r="4.5" fill="#000"/><rect width="80.76" height="122.167" x="791.333" y="78.042" fill="#fff" rx="4.25"/><path fill="#000" d="M828.647 133.885v7.631q0 .415-.136.793-.128.37-.362.641a1.8 1.8 0 0 1-.581.43 1.8 1.8 0 0 1-.762.159 2.2 2.2 0 0 1-.808-.136 1.44 1.44 0 0 1-.581-.407 1.7 1.7 0 0 1-.317-.567 2.5 2.5 0 0 1-.121-.762h-1.827q.03.815.302 1.442.28.626.755 1.049t1.132.649q.664.219 1.465.219.777 0 1.441-.257a3.4 3.4 0 0 0 1.163-.724q.498-.468.777-1.11.287-.65.294-1.419v-7.631zm10.247 7.073v-7.073h-1.857l-4.748 7.427.045 1.11h4.756v2.453h1.804v-2.453h1.381v-1.464zm-4.763 0 2.747-4.265.212-.393v4.658z"/><rect width="80.76" height="122.167" x="791.333" y="78.042" stroke="#c11f09" stroke-width="1.5" rx="4.25"/><rect width="141.885" height="34.781" x="41.406" y="49.688" fill="#7f8c8d" rx="17.391"/><path fill="#fff" d="M68.305 68.639h1.864q.83 0 1.525-.242.702-.241 1.208-.686.506-.438.785-1.05.28-.619.28-1.38 0-.794-.28-1.428a3.1 3.1 0 0 0-.785-1.079 3.6 3.6 0 0 0-1.208-.687 4.8 4.8 0 0 0-1.525-.249h-3.675v10.99h1.811zm0-1.48v-3.841h1.864q.461.008.823.15.37.144.627.408.256.264.385.627.135.354.135.792 0 .4-.135.74a1.6 1.6 0 0 1-.385.589q-.257.25-.627.392a2.5 2.5 0 0 1-.823.144zm9.643-5.32h-2.25v10.99h1.699v-3.73l-.099-4.725 1.533 5.065h.943l1.69-5.246-.105 4.906v3.73h1.706v-10.99h-2.257l-1.502 4.702zm7.559 0v1.501H87.8v7.994h-2.294v1.494h6.476v-1.494h-2.348V63.34h2.348v-1.502zm16.586 7.608h-1.819q-.045.498-.196.883-.15.384-.4.641-.256.264-.619.4t-.83.136q-.393 0-.702-.105a1.7 1.7 0 0 1-.536-.325 2 2 0 0 1-.393-.468 3 3 0 0 1-.264-.604 5 5 0 0 1-.204-.883 8 8 0 0 1-.06-1.034v-1.517q0-.445.045-.868.054-.43.151-.808a3.8 3.8 0 0 1 .325-.777q.203-.355.506-.574.219-.18.498-.28.287-.097.641-.097.506 0 .868.15.363.144.612.423.241.28.377.68.144.392.189.883h1.811a5 5 0 0 0-.369-1.495 3.4 3.4 0 0 0-.77-1.147 3.3 3.3 0 0 0-1.17-.725q-.68-.255-1.548-.256-.64 0-1.185.173a3.7 3.7 0 0 0-.981.483q-.468.34-.83.823-.355.476-.581 1.064-.212.53-.317 1.125a7 7 0 0 0-.106 1.238v1.502q0 .672.106 1.29.113.62.332 1.148.218.536.536.989.325.445.754.762.445.34 1.012.528.573.182 1.253.182.83 0 1.51-.25a3.5 3.5 0 0 0 1.184-.724q.491-.46.793-1.11.302-.656.377-1.456m14.077 3.381h1.766l3.382-10.99h-1.978l-2.106 7.601-.188.664-.181-.656-2.091-7.609h-1.985zm6.804 0h3.805q.815 0 1.509-.204.702-.21 1.208-.619a2.8 2.8 0 0 0 .793-.996q.286-.596.279-1.381 0-.445-.129-.846a2.4 2.4 0 0 0-.362-.74 2.6 2.6 0 0 0-.581-.55 2.5 2.5 0 0 0-.838-.378V67.1q.333-.135.581-.302.257-.173.461-.4a2.2 2.2 0 0 0 .438-.71q.158-.407.166-.875 0-.77-.295-1.328a2.5 2.5 0 0 0-.8-.929 3.6 3.6 0 0 0-1.215-.536 6 6 0 0 0-1.502-.18h-3.518zm1.827-4.966h2.083q.445.007.793.135.347.12.589.348.241.225.362.55.12.318.121.733 0 .391-.151.717-.144.317-.415.536-.25.21-.604.332-.355.12-.785.12h-1.993zm0-1.382v-3.14h1.714q.467.008.852.113.385.099.642.325.227.18.347.468.129.28.129.664 0 .363-.136.642a1.4 1.4 0 0 1-.37.475 1.7 1.7 0 0 1-.634.332 3 3 0 0 1-.815.121zm12.964 3.82.739 2.528h1.88l-3.518-10.99h-1.607l-3.578 10.99h1.887l.747-2.529zm-2.989-1.555 1.283-4.348 1.26 4.348zm14.888-5.405v-1.502h-8.559v1.502h3.366v9.488h1.804V63.34zm9.439 0v-1.502h-8.56v1.502h3.367v9.488h1.804V63.34z"/><rect width="277.146" height="34.781" x="693.417" y="220.281" fill="#0ca1a6" rx="17.391"/><path fill="#fff" d="M710.474 243.422h3.804q.816 0 1.51-.204.702-.211 1.208-.619.505-.4.792-.996.286-.597.279-1.381 0-.445-.128-.846a2.4 2.4 0 0 0-.362-.74 2.55 2.55 0 0 0-1.419-.928v-.015q.332-.136.581-.302.256-.174.46-.4a2.1 2.1 0 0 0 .438-.71q.159-.407.166-.875 0-.77-.294-1.329a2.5 2.5 0 0 0-.8-.928 3.6 3.6 0 0 0-1.216-.536 6 6 0 0 0-1.502-.181h-3.517zm1.827-4.967h2.083q.446.008.792.136.348.121.589.347.241.227.363.551.12.318.12.733 0 .392-.151.717a1.4 1.4 0 0 1-.415.535 1.8 1.8 0 0 1-.604.333q-.354.12-.785.12h-1.992zm0-1.381v-3.14h1.713q.468.008.853.113.385.099.642.325.226.181.347.468.128.279.128.664 0 .362-.136.642-.136.279-.37.475a1.7 1.7 0 0 1-.634.332 3 3 0 0 1-.815.121zm9.778-4.642h-2.249v10.99h1.698v-3.729l-.098-4.725 1.532 5.065h.944l1.69-5.246-.105 4.906v3.729h1.706v-10.99h-2.257l-1.502 4.702zm14.383 6.801v-2.604q0-1.057-.25-1.865-.25-.815-.701-1.373a3 3 0 0 0-1.133-.831q-.656-.287-1.494-.287a3.7 3.7 0 0 0-1.495.287q-.656.279-1.117.831-.46.558-.709 1.373-.242.808-.242 1.865v2.604q0 1.056.242 1.872.249.807.717 1.351.46.558 1.124.845.664.279 1.495.279.838 0 1.494-.279a2.9 2.9 0 0 0 1.118-.845q.46-.544.701-1.351.25-.816.25-1.872m-5.329-.642v-2.287q0-.68.12-1.177.121-.507.37-.823.211-.279.529-.423.317-.143.732-.143.384 0 .687.121.31.12.52.362.243.272.37.702.136.43.166 1.019zm3.509.944q0 .694-.128 1.207-.12.514-.37.831a1.5 1.5 0 0 1-.528.415q-.309.135-.717.136-.415 0-.732-.144a1.33 1.33 0 0 1-.521-.43 2.1 2.1 0 0 1-.34-.664 4.3 4.3 0 0 1-.158-.921l3.494-2.634v2.204m6.118-2.423v1.419h1.079q.468 0 .846.113.384.106.656.325.273.226.416.566a2.1 2.1 0 0 1 .143.815q0 .422-.128.755a1.4 1.4 0 0 1-.355.543q-.242.234-.596.355a2.6 2.6 0 0 1-.785.113 2.2 2.2 0 0 1-.748-.121 1.7 1.7 0 0 1-.573-.339 1.4 1.4 0 0 1-.385-.514 1.7 1.7 0 0 1-.129-.671h-1.804q0 .77.295 1.351.302.573.8.966t1.155.589q.657.195 1.366.196.785 0 1.457-.212a3.5 3.5 0 0 0 1.177-.634q.49-.407.77-1.003a3.2 3.2 0 0 0 .287-1.374 3.2 3.2 0 0 0-.098-.8 2.4 2.4 0 0 0-.317-.732 2.4 2.4 0 0 0-.566-.597 2.7 2.7 0 0 0-.831-.437 2.93 2.93 0 0 0 1.238-1.042 2.5 2.5 0 0 0 .302-.657q.106-.34.106-.679 0-.77-.257-1.351a2.7 2.7 0 0 0-.724-.981 3 3 0 0 0-1.117-.589 4.8 4.8 0 0 0-1.427-.204q-.762 0-1.404.226-.634.227-1.102.627a2.95 2.95 0 0 0-.732.959 2.75 2.75 0 0 0-.264 1.207h1.804q0-.354.128-.641.136-.287.37-.491.226-.204.536-.309.317-.114.687-.114.414 0 .732.114.324.113.536.317a1.4 1.4 0 0 1 .317.528q.113.309.113.702 0 .362-.121.679-.113.31-.332.521a1.6 1.6 0 0 1-.596.377 2.5 2.5 0 0 1-.846.129zm7.469 6.31h3.804q.815 0 1.509-.204a3.5 3.5 0 0 0 1.208-.619q.505-.4.793-.996.286-.597.279-1.381 0-.445-.128-.846a2.4 2.4 0 0 0-.363-.74 2.5 2.5 0 0 0-.581-.551 2.5 2.5 0 0 0-.838-.377v-.015q.332-.136.581-.302.258-.174.461-.4.286-.31.438-.71.158-.407.166-.875 0-.77-.295-1.329a2.5 2.5 0 0 0-.8-.928 3.6 3.6 0 0 0-1.215-.536 6 6 0 0 0-1.502-.181h-3.517zm1.826-4.967h2.083q.446.008.793.136.348.121.589.347.242.227.362.551.121.318.121.733 0 .392-.151.717a1.44 1.44 0 0 1-.415.535 1.9 1.9 0 0 1-.604.333 2.4 2.4 0 0 1-.785.12h-1.993zm0-1.381v-3.14h1.714q.468.008.853.113.384.099.641.325.227.181.347.468.129.279.129.664 0 .362-.136.642a1.4 1.4 0 0 1-.37.475 1.7 1.7 0 0 1-.634.332 3 3 0 0 1-.815.121zm14.504 2.249v-1.464h-6.077v1.464zm7.898 1.57.74 2.529h1.88l-3.518-10.99h-1.607l-3.578 10.99h1.887l.747-2.529zm-2.989-1.555 1.284-4.347 1.26 4.347zm14.511.702h-1.819q-.045.499-.196.883a1.9 1.9 0 0 1-.4.642q-.256.264-.619.4a2.3 2.3 0 0 1-.83.136q-.393 0-.702-.106a1.7 1.7 0 0 1-.536-.324 2 2 0 0 1-.393-.468 3 3 0 0 1-.264-.604 5 5 0 0 1-.204-.883 8 8 0 0 1-.06-1.034v-1.517q0-.446.045-.868.054-.43.151-.808.129-.43.325-.778.203-.354.506-.573a1.6 1.6 0 0 1 .498-.279q.287-.099.641-.099.506 0 .868.151.363.144.612.423.242.28.377.679.144.393.189.884h1.811a5 5 0 0 0-.37-1.495 3.4 3.4 0 0 0-.769-1.147 3.3 3.3 0 0 0-1.17-.725q-.68-.257-1.548-.257-.64 0-1.185.174a3.7 3.7 0 0 0-.981.483 3.9 3.9 0 0 0-.83.823q-.355.476-.581 1.064a5.7 5.7 0 0 0-.317 1.125q-.106.596-.106 1.238v1.502q0 .672.106 1.29.113.619.332 1.148.218.536.536.989.325.445.754.762.445.339 1.012.528.573.181 1.253.181.83 0 1.509-.249a3.5 3.5 0 0 0 1.185-.724q.491-.46.793-1.11.302-.656.377-1.457m9.122 3.382v-10.99h-1.774v4.597h-3.698v-4.597h-1.767v10.99h1.767v-4.899h3.698v4.899zm8.065-2.831q0 .363-.159.642-.15.279-.407.468a1.8 1.8 0 0 1-.627.294 2.9 2.9 0 0 1-.77.098q-.49 0-.905-.12a2 2 0 0 1-.71-.37 1.7 1.7 0 0 1-.491-.612 2.6 2.6 0 0 1-.211-.883h-1.811q.007.794.317 1.404.316.612.853 1.064a4.1 4.1 0 0 0 1.366.74 5.2 5.2 0 0 0 1.592.249q.763 0 1.45-.188a3.7 3.7 0 0 0 1.207-.582q.513-.37.815-.928.31-.559.31-1.291 0-.792-.355-1.396a3.4 3.4 0 0 0-.928-1.049 5 5 0 0 0-1.027-.589 8 8 0 0 0-1.132-.415 13 13 0 0 1-.883-.295 4 4 0 0 1-.74-.369 1.8 1.8 0 0 1-.505-.491 1.23 1.23 0 0 1-.197-.664 1.41 1.41 0 0 1 .544-1.132q.256-.197.604-.302a2.5 2.5 0 0 1 .769-.114q.476 0 .838.144.37.135.627.377.249.249.385.597.143.34.181.754h1.796q0-.747-.302-1.358a3.2 3.2 0 0 0-.807-1.065 3.7 3.7 0 0 0-1.208-.679 4.3 4.3 0 0 0-1.487-.249q-.755 0-1.442.211-.678.204-1.192.597a3 3 0 0 0-.815.966 2.6 2.6 0 0 0-.302 1.26q0 .65.256 1.17.264.513.725.921a5.3 5.3 0 0 0 1.11.725q.656.317 1.434.536.505.143.913.324.416.174.717.393.287.234.445.528t.159.679m9.439 0q0 .363-.159.642a1.4 1.4 0 0 1-.408.468 1.8 1.8 0 0 1-.626.294 2.9 2.9 0 0 1-.77.098q-.49 0-.906-.12a2 2 0 0 1-.709-.37 1.7 1.7 0 0 1-.491-.612 2.6 2.6 0 0 1-.211-.883h-1.812q.008.794.317 1.404.318.612.853 1.064a4.1 4.1 0 0 0 1.366.74 5.3 5.3 0 0 0 1.593.249 5.5 5.5 0 0 0 1.449-.188 3.7 3.7 0 0 0 1.208-.582q.513-.37.815-.928.31-.559.31-1.291 0-.792-.355-1.396a3.4 3.4 0 0 0-.929-1.049 5 5 0 0 0-1.026-.589 8 8 0 0 0-1.132-.415 13 13 0 0 1-.883-.295 4 4 0 0 1-.74-.369 1.8 1.8 0 0 1-.506-.491 1.23 1.23 0 0 1-.196-.664q0-.356.143-.642.144-.287.4-.49.257-.197.604-.302.355-.114.77-.114.475 0 .838.144.37.135.626.377.25.249.385.597.143.34.182.754h1.796q0-.747-.302-1.358a3.2 3.2 0 0 0-.808-1.065 3.7 3.7 0 0 0-1.207-.679 4.3 4.3 0 0 0-1.487-.249q-.755 0-1.442.211-.679.204-1.193.597a3 3 0 0 0-.815.966 2.6 2.6 0 0 0-.302 1.26q0 .65.257 1.17.264.513.725.921.46.4 1.109.725.657.317 1.434.536.506.143.914.324.414.174.717.393.286.234.445.528t.159.679m10.585-1.268v-1.464h-6.076v1.464zm9.93 2.748-.015-4.204h-3.774v1.411h1.992l-.007 2.196a1.1 1.1 0 0 1-.325.28 2.4 2.4 0 0 1-.445.188 3.3 3.3 0 0 1-.521.114q-.272.03-.536.03a2.2 2.2 0 0 1-.8-.151 1.9 1.9 0 0 1-.611-.408 2.3 2.3 0 0 1-.37-.468 4 4 0 0 1-.264-.566 5 5 0 0 1-.219-.868 7 7 0 0 1-.068-.989v-1.419q0-.445.053-.868a4.6 4.6 0 0 1 .166-.792q.128-.423.324-.763.204-.347.476-.581.234-.203.528-.317.294-.12.642-.12.476 0 .822.135.356.137.597.393.226.242.362.596.137.348.204.778h1.781a4.5 4.5 0 0 0-.355-1.412 3.2 3.2 0 0 0-.762-1.079 3.2 3.2 0 0 0-1.147-.672q-.672-.234-1.54-.234-.642 0-1.193.181a3.6 3.6 0 0 0-.996.513 3.9 3.9 0 0 0-.74.748 5 5 0 0 0-.558.951 5.7 5.7 0 0 0-.37 1.2 8 8 0 0 0-.128 1.359v1.403q.007.733.143 1.397.136.665.4 1.215.234.528.581.959.355.43.8.732t.997.468q.55.166 1.185.166.687 0 1.29-.144.604-.135 1.118-.385.406-.195.732-.445.324-.257.551-.528m7.408-1.178.74 2.529h1.879l-3.517-10.99h-1.608l-3.578 10.99h1.887l.747-2.529zm-2.989-1.555 1.283-4.347 1.261 4.347zm14.186 4.084v-10.99h-1.826l-.015 7.533-3.548-7.533h-1.842v10.99h1.834l.008-7.563 3.57 7.563zm9.22-4.099v-1.464h-6.076v1.464zm10.36-5.389v-1.502h-8.56v1.502h3.366v9.488h1.804v-9.488zm8.253 4.808v-1.494h-4.649v-3.314h5.313v-1.502h-7.14v10.99h1.827v-4.68zm4.344.211v.129q0 1.079.166 2.023.166.935.445 1.736.28.807.649 1.464.378.664.793 1.177.415.514.845.869.43.362.831.558l.362-1.011a4.3 4.3 0 0 1-.604-.582 6 6 0 0 1-.581-.8 8 8 0 0 1-.506-1.026 11 11 0 0 1-.415-1.261 12 12 0 0 1-.249-1.373 14 14 0 0 1-.106-1.759v-.159q0-.966.106-1.796.113-.83.302-1.517.204-.732.483-1.351.287-.62.611-1.08.234-.324.476-.581t.483-.438l-.362-1.049a4.1 4.1 0 0 0-.831.559 5.8 5.8 0 0 0-.838.868q-.414.513-.792 1.177a10 10 0 0 0-.657 1.457 11.547 11.547 0 0 0-.611 3.766m9.899 2.974v-9.495h-1.819v10.99h7.065v-1.495zm14.073-3.185v-1.494h-4.65v-3.314h5.314v-1.502h-7.14v10.99h1.826v-4.68zm8.254.34v-.129q0-1.079-.174-2a12 12 0 0 0-.453-1.728 8.5 8.5 0 0 0-.657-1.465 8.6 8.6 0 0 0-.807-1.192 6 6 0 0 0-.861-.876 4 4 0 0 0-.845-.566l-.355 1.012q.234.18.476.452.249.265.475.604.325.476.619 1.125.302.65.513 1.464a12.7 12.7 0 0 1 .37 3.155v.159q0 .914-.098 1.698-.09.785-.256 1.449-.174.718-.431 1.306a7.6 7.6 0 0 1-.536 1.064 6 6 0 0 1-.558.748 3.8 3.8 0 0 1-.574.536l.355 1.011q.408-.197.845-.558.438-.363.861-.891.423-.513.8-1.178.378-.663.664-1.472.287-.8.453-1.736.174-.936.174-1.992m5.528-.129v.129q0 1.079.166 2.023.167.935.446 1.736.279.807.649 1.464.378.664.792 1.177.416.514.846.869.43.362.83.558l.362-1.011a4.3 4.3 0 0 1-.603-.582 6 6 0 0 1-.582-.8 8 8 0 0 1-.505-1.026 11 11 0 0 1-.415-1.261 12 12 0 0 1-.25-1.373 14 14 0 0 1-.105-1.759v-.159q0-.966.105-1.796.114-.83.302-1.517.204-.732.483-1.351.287-.62.612-1.08.234-.324.475-.581t.483-.438l-.362-1.049a4 4 0 0 0-.83.559 5.8 5.8 0 0 0-.838.868 9 9 0 0 0-.793 1.177q-.37.665-.656 1.457a11.646 11.646 0 0 0-.612 3.766m13.651 1.638q0 .363-.159.642-.15.279-.407.468a1.8 1.8 0 0 1-.627.294 2.9 2.9 0 0 1-.77.098q-.49 0-.905-.12a2 2 0 0 1-.71-.37 1.7 1.7 0 0 1-.491-.612 2.6 2.6 0 0 1-.211-.883h-1.811q.007.794.317 1.404.316.612.853 1.064a4.1 4.1 0 0 0 1.366.74 5.2 5.2 0 0 0 1.592.249q.763 0 1.45-.188a3.7 3.7 0 0 0 1.207-.582q.513-.37.815-.928.31-.559.31-1.291 0-.792-.355-1.396a3.4 3.4 0 0 0-.928-1.049 5 5 0 0 0-1.027-.589 8 8 0 0 0-1.132-.415 13 13 0 0 1-.883-.295 4 4 0 0 1-.74-.369 1.8 1.8 0 0 1-.506-.491 1.23 1.23 0 0 1-.196-.664 1.41 1.41 0 0 1 .544-1.132q.256-.197.604-.302a2.5 2.5 0 0 1 .769-.114q.476 0 .838.144.37.135.627.377.249.249.385.597.143.34.181.754h1.796q0-.747-.302-1.358a3.2 3.2 0 0 0-.807-1.065 3.7 3.7 0 0 0-1.208-.679 4.3 4.3 0 0 0-1.487-.249q-.755 0-1.442.211-.678.204-1.192.597a3 3 0 0 0-.815.966 2.6 2.6 0 0 0-.302 1.26q0 .65.256 1.17.264.513.725.921a5.3 5.3 0 0 0 1.11.725q.655.317 1.434.536.505.143.913.324.416.174.717.393.287.234.445.528t.159.679m10.805 2.831v-10.99h-1.827l-.015 7.533-3.548-7.533h-1.841v10.99h1.834l.007-7.563 3.571 7.563zm7.77-4.34v-.129q0-1.079-.173-2a12 12 0 0 0-.453-1.728 8.706 8.706 0 0 0-1.465-2.657 6 6 0 0 0-.86-.876 4 4 0 0 0-.845-.566l-.355 1.012q.234.18.475.452.25.265.476.604.324.476.619 1.125.302.65.513 1.464.159.627.264 1.419.106.793.106 1.736v.159a14 14 0 0 1-.098 1.698 11 11 0 0 1-.257 1.449 8 8 0 0 1-.43 1.306 8 8 0 0 1-.536 1.064 6 6 0 0 1-.559.748 3.8 3.8 0 0 1-.573.536l.355 1.011q.407-.197.845-.558.438-.363.86-.891a8 8 0 0 0 .8-1.178q.378-.663.665-1.472.287-.8.453-1.736.173-.936.173-1.992"/><rect width="144.094" height="30.917" x="41.406" y="398.604" fill="#7f8c8d" rx="15.458"/><path fill="#fff" d="M89.417 410.325v-1.502h-8.56v1.502h3.367v9.487h1.804v-9.487zm8.744 9.487v-10.989h-1.774v4.596H92.69v-4.596h-1.766v10.989h1.766v-4.898h3.698v4.898zm4.487-10.989h-2.249v10.989h1.698v-3.728l-.098-4.725 1.532 5.064h.944l1.691-5.245-.106 4.906v3.728h1.706v-10.989h-2.257l-1.502 4.702zm16.711 10.989h3.805q.815 0 1.509-.203a3.5 3.5 0 0 0 1.208-.619q.506-.4.792-.997.288-.596.28-1.381 0-.446-.129-.845a2.4 2.4 0 0 0-.362-.74 2.55 2.55 0 0 0-1.419-.928v-.015q.332-.137.581-.302.257-.174.461-.4.287-.31.437-.71.159-.408.166-.875 0-.771-.294-1.329a2.5 2.5 0 0 0-.8-.928 3.6 3.6 0 0 0-1.215-.536 6 6 0 0 0-1.502-.181h-3.518zm1.827-4.966h2.083q.445.007.793.136.346.12.588.347t.363.551q.12.317.121.732 0 .393-.151.717-.144.317-.416.536a1.8 1.8 0 0 1-.603.332 2.4 2.4 0 0 1-.785.121h-1.993zm0-1.381v-3.14h1.713q.468.007.853.113.385.098.642.324.227.181.347.468.128.28.128.665 0 .362-.135.641a1.4 1.4 0 0 1-.37.476 1.7 1.7 0 0 1-.634.332 3 3 0 0 1-.816.121zm12.964 3.819.739 2.528h1.88l-3.518-10.989h-1.607l-3.578 10.989h1.887l.747-2.528zm-2.99-1.555 1.284-4.348 1.26 4.348zm14.889-5.404v-1.502h-8.56v1.502h3.367v9.487h1.804v-9.487z"/><g clip-path="url(#b)"><path fill="#0ca1a6" d="M232.427 203.167h70.115v33.677h-70.115z"/><path fill="#fff" d="M257.505 222.374h-1.819q-.045.498-.197.883a1.9 1.9 0 0 1-.4.641q-.256.265-.619.4a2.3 2.3 0 0 1-.83.136q-.392 0-.702-.105a1.7 1.7 0 0 1-.536-.325 2 2 0 0 1-.392-.468 3 3 0 0 1-.264-.604 5 5 0 0 1-.204-.883 8 8 0 0 1-.061-1.034v-1.517q0-.445.046-.868.052-.43.151-.808a3.7 3.7 0 0 1 .324-.777q.204-.355.506-.574a1.6 1.6 0 0 1 .498-.279q.286-.099.642-.098.505 0 .868.151.362.143.611.422.242.28.378.68.143.392.188.883h1.812a5.1 5.1 0 0 0-.37-1.495 3.4 3.4 0 0 0-.77-1.147 3.35 3.35 0 0 0-1.17-.725q-.68-.256-1.547-.256-.642 0-1.185.173a3.7 3.7 0 0 0-.982.483 4 4 0 0 0-.83.823q-.354.476-.581 1.064a5.7 5.7 0 0 0-.317 1.125 7 7 0 0 0-.106 1.238v1.502q0 .672.106 1.291.113.618.332 1.147.22.536.536.989.324.445.755.762.446.34 1.011.529.574.18 1.253.181a4.4 4.4 0 0 0 1.51-.249 3.5 3.5 0 0 0 1.185-.725q.49-.46.792-1.11.302-.656.378-1.456m6.948 3.381v-10.99h-.114l-4.521 1.676v1.593l2.816-1.034v8.755zm11.552 0v-1.457h-5.118l2.446-2.611q.483-.513.89-.996.416-.484.717-.959a4.8 4.8 0 0 0 .461-.959q.173-.49.173-1.011 0-.695-.226-1.268a2.75 2.75 0 0 0-.657-.997 3.1 3.1 0 0 0-1.079-.649 4.2 4.2 0 0 0-1.442-.234q-.86 0-1.562.28a3.5 3.5 0 0 0-1.178.754q-.49.476-.754 1.118a3.5 3.5 0 0 0-.265 1.351h1.812q0-.475.121-.846a1.7 1.7 0 0 1 .362-.641q.234-.25.589-.385.354-.136.838-.136.377 0 .679.128.309.129.528.355.22.227.332.543.114.318.114.702 0 .288-.083.574a2.8 2.8 0 0 1-.257.604 7 7 0 0 1-.491.717q-.301.385-.747.875l-3.578 3.895v1.253zm4.351-6.31v1.419h1.079q.468 0 .846.113.384.106.656.325.272.227.416.566a2.1 2.1 0 0 1 .143.815q0 .423-.128.755a1.4 1.4 0 0 1-.355.543q-.242.235-.596.355a2.5 2.5 0 0 1-.785.113q-.408 0-.748-.12a1.7 1.7 0 0 1-.573-.34 1.4 1.4 0 0 1-.385-.513 1.7 1.7 0 0 1-.129-.672h-1.804q0 .77.295 1.351.302.574.8.966.498.393 1.155.589a4.7 4.7 0 0 0 1.366.196q.785 0 1.457-.211a3.5 3.5 0 0 0 1.177-.634q.49-.408.77-1.004a3.2 3.2 0 0 0 .287-1.374q0-.415-.098-.8a2.4 2.4 0 0 0-.317-.732 2.5 2.5 0 0 0-.566-.596 2.7 2.7 0 0 0-.831-.438 2.9 2.9 0 0 0 1.238-1.042 2.5 2.5 0 0 0 .302-.656q.106-.34.106-.68 0-.77-.257-1.351a2.7 2.7 0 0 0-.724-.981 3 3 0 0 0-1.117-.589 4.8 4.8 0 0 0-1.427-.204q-.762 0-1.404.227-.634.227-1.102.626a3 3 0 0 0-.732.959q-.264.55-.264 1.208h1.804q0-.355.128-.642.136-.287.37-.491.226-.204.536-.309.317-.113.687-.113.414 0 .732.113.324.113.536.317.211.219.317.528.113.31.113.702 0 .362-.121.68a1.36 1.36 0 0 1-.332.52 1.6 1.6 0 0 1-.596.378 2.6 2.6 0 0 1-.846.128z"/><path fill="#c11f09" d="M302.542 203.167h71.771v33.677h-71.771z"/><path fill="#fff" d="M321.734 221.838v-7.073h-1.856l-4.748 7.428.045 1.109h4.755v2.453h1.804v-2.453h1.382v-1.464zm-4.762 0 2.747-4.265.211-.392v4.657zm10.518 2.83q0 .522.339.883.348.355.966.355.612 0 .959-.355.355-.354.355-.883 0-.528-.347-.89-.348-.37-.967-.37-.634 0-.973.37a1.28 1.28 0 0 0-.332.89m14.277-8.891v-1.012h-7.601v1.51h5.698l-4.392 9.48h1.902zm4.336 1.811h-1.804v11.307h1.804v-3.427q.286.219.664.333.377.113.845.113.363 0 .672-.083.317-.083.581-.242.166-.098.31-.226.143-.136.272-.287l.052.679h1.661v-8.167h-1.812v5.903q-.082.174-.196.324-.105.144-.264.265a1.6 1.6 0 0 1-.543.271 2.7 2.7 0 0 1-.74.091q-.332 0-.612-.083a1 1 0 0 1-.468-.332q-.203-.242-.317-.665-.105-.422-.105-1.086zm14.02 3.487v-1.494h-4.65v-3.314h5.314v-1.502h-7.14v10.99h1.826v-4.68z"/></g><path stroke="#000" stroke-width="1.5" d="M514.74 264.448v70.114"/><path fill="#000" d="M780.677 91.875v-10.99h-.113l-4.521 1.676v1.592l2.815-1.034v8.756zM782.791 131.625v-1.457h-5.118l2.446-2.611q.483-.514.89-.997.415-.483.717-.958a4.8 4.8 0 0 0 .461-.959q.173-.49.173-1.011 0-.695-.226-1.268a2.75 2.75 0 0 0-.657-.997 3.1 3.1 0 0 0-1.079-.649 4.2 4.2 0 0 0-1.442-.234q-.86 0-1.562.279a3.6 3.6 0 0 0-1.178.755q-.49.476-.754 1.117a3.5 3.5 0 0 0-.265 1.351h1.812q0-.475.121-.845.12-.377.362-.642.234-.249.589-.384.354-.136.837-.136.378 0 .68.128.309.128.528.355t.332.543q.114.318.114.702 0 .287-.084.574-.075.279-.256.604a7 7 0 0 1-.491.717q-.302.384-.747.875l-3.578 3.895v1.253zM777.703 166.169v1.419h1.08q.467 0 .845.113.385.106.657.325.271.227.415.566a2.1 2.1 0 0 1 .143.815q0 .423-.128.755a1.4 1.4 0 0 1-.355.543q-.242.234-.596.355a2.5 2.5 0 0 1-.785.113q-.408 0-.747-.12a1.7 1.7 0 0 1-.574-.34 1.45 1.45 0 0 1-.385-.513 1.7 1.7 0 0 1-.128-.672h-1.804q0 .77.294 1.351.302.573.8.966t1.155.589a4.7 4.7 0 0 0 1.366.196q.785 0 1.457-.211a3.5 3.5 0 0 0 1.177-.634q.491-.408.77-1.004.288-.604.287-1.374a3.2 3.2 0 0 0-.098-.8 2.4 2.4 0 0 0-.317-.732 2.4 2.4 0 0 0-.566-.596 2.7 2.7 0 0 0-.83-.438 2.9 2.9 0 0 0 1.238-1.042q.203-.317.301-.656.106-.34.106-.68 0-.77-.256-1.351a2.7 2.7 0 0 0-.725-.981 3 3 0 0 0-1.117-.589 4.7 4.7 0 0 0-1.427-.204q-.762 0-1.404.227-.634.227-1.102.626a3 3 0 0 0-.732.959q-.264.55-.264 1.208h1.804q0-.356.128-.642.136-.287.37-.491.227-.204.536-.309.317-.113.687-.113.415 0 .732.113.324.113.536.317.212.219.317.528.113.31.113.702 0 .362-.121.68a1.36 1.36 0 0 1-.332.52 1.6 1.6 0 0 1-.596.378 2.6 2.6 0 0 1-.845.128z"/><path stroke="#000" stroke-linecap="round" stroke-width="1.5" d="m485.479 333.813 58.677-.001M492.104 344.854h45.427M500.385 355.896h28.865"/><path fill="#000" d="m508.746 385.813-.02-5.605h-5.032v1.881h2.656l-.01 2.929a1.5 1.5 0 0 1-.432.372 3 3 0 0 1-.594.252 4.6 4.6 0 0 1-.695.151q-.361.04-.714.04a3 3 0 0 1-1.067-.201 2.5 2.5 0 0 1-.815-.543 3 3 0 0 1-.493-.624 5 5 0 0 1-.352-.755 6.5 6.5 0 0 1-.292-1.158 9 9 0 0 1-.091-1.318v-1.892a9 9 0 0 1 .071-1.157q.07-.564.221-1.057.17-.564.433-1.017.271-.462.634-.774.312-.273.704-.423.393-.161.856-.161.633 0 1.097.181.472.181.795.523.302.322.483.795.181.464.271 1.037h2.376a6 6 0 0 0-.473-1.882 4.3 4.3 0 0 0-1.017-1.439 4.3 4.3 0 0 0-1.53-.896q-.895-.312-2.053-.312-.855 0-1.59.242a4.8 4.8 0 0 0-1.328.684 5.2 5.2 0 0 0-.987.996 6.6 6.6 0 0 0-.744 1.268 7.7 7.7 0 0 0-.493 1.601q-.162.865-.171 1.811v1.872q.01.976.191 1.862.18.885.533 1.62.312.705.775 1.278.473.574 1.067.977.594.402 1.328.623a5.4 5.4 0 0 0 1.58.222q.917 0 1.721-.191a6.8 6.8 0 0 0 1.49-.514 5.6 5.6 0 0 0 .976-.593 5 5 0 0 0 .735-.705m12.222 1.802v-14.654h-2.435l-.02 10.044-4.731-10.044h-2.455v14.654h2.445l.01-10.085 4.761 10.085zm3.014 0h3.704q1.006 0 1.882-.242a6 6 0 0 0 1.61-.694 5.7 5.7 0 0 0 1.167-.997q.534-.584.906-1.298.383-.735.584-1.62a8.2 8.2 0 0 0 .211-1.892v-1.148a8.3 8.3 0 0 0-.221-1.952 7.3 7.3 0 0 0-.624-1.681 5.8 5.8 0 0 0-.976-1.328 5.2 5.2 0 0 0-1.319-.986 6.2 6.2 0 0 0-1.519-.594 7 7 0 0 0-1.782-.222h-3.623zm2.446-12.681h1.177q.584.01 1.087.141.504.12.906.352.554.312.956.815.402.493.644 1.107.192.504.292 1.097.1.594.101 1.258v1.168q0 .674-.101 1.268a5.8 5.8 0 0 1-.292 1.097 4 4 0 0 1-.574 1.056 3.3 3.3 0 0 1-.785.755 3.5 3.5 0 0 1-.976.453 4.3 4.3 0 0 1-1.177.151h-1.258z"/><path stroke="#000" stroke-linecap="round" stroke-width="1.5" d="M420.135 274.937c5.794 0 10.49-4.696 10.49-10.489s-4.696-10.49-10.49-10.49"/></g><defs><clipPath id="a"><path fill="#fff" d="M0 0h1060v496H0z"/></clipPath><clipPath id="b"><rect width="141.885" height="33.677" x="232.427" y="203.167" fill="#fff" rx="16.838"/></clipPath></defs></svg>