<svg width="1920" height="1080" viewBox="0 0 1920 1080" fill="none" xmlns="http://www.w3.org/2000/svg">
<rect width="1920" height="1080" fill="white"/>
<path fill-rule="evenodd" clip-rule="evenodd" d="M1731.34 515.478L1731.38 515.823V640.076L1731.34 640.42V843.504H382.295V288.026H1731.34V515.478Z" fill="white" stroke="black" stroke-width="1.88933" stroke-miterlimit="10" stroke-linecap="round"/>
<path fill-rule="evenodd" clip-rule="evenodd" d="M444.636 327.678C444.636 321.694 442.268 315.925 438.006 311.662C433.743 307.4 427.974 305.032 421.99 305.032C415.962 305.032 410.193 307.4 405.974 311.662C401.711 315.925 399.3 321.694 399.3 327.678C399.3 333.706 401.711 339.475 405.974 343.737C410.193 347.957 415.962 350.368 421.99 350.368C427.974 350.368 433.743 347.957 438.006 343.737C442.268 339.475 444.636 333.706 444.636 327.678Z" fill="white" stroke="black" stroke-width="0.756" stroke-miterlimit="10" stroke-linecap="round"/>
<path fill-rule="evenodd" clip-rule="evenodd" d="M444.636 803.852C444.636 797.825 442.268 792.055 438.006 787.793C433.743 783.574 427.974 781.163 421.99 781.163C415.962 781.163 410.193 783.574 405.974 787.793C401.711 792.055 399.3 797.825 399.3 803.852C399.3 809.837 401.711 815.606 405.974 819.868C410.193 824.13 415.962 826.498 421.99 826.498C427.974 826.498 433.743 824.13 438.006 819.868C442.268 815.606 444.636 809.837 444.636 803.852Z" fill="white" stroke="black" stroke-width="0.756" stroke-miterlimit="10" stroke-linecap="round"/>
<path fill-rule="evenodd" clip-rule="evenodd" d="M1714.33 803.852C1714.33 791.323 1704.21 781.163 1691.69 781.163C1679.16 781.163 1669.04 791.323 1669.04 803.852C1669.04 816.338 1679.16 826.498 1691.69 826.498C1704.21 826.498 1714.33 816.338 1714.33 803.852Z" fill="white" stroke="black" stroke-width="0.756" stroke-miterlimit="10" stroke-linecap="round"/>
<path fill-rule="evenodd" clip-rule="evenodd" d="M1714.33 327.678C1714.33 315.193 1704.21 305.032 1691.69 305.032C1679.16 305.032 1669.04 315.193 1669.04 327.678C1669.04 340.207 1679.16 350.368 1691.69 350.368C1704.21 350.368 1714.33 340.207 1714.33 327.678Z" fill="white" stroke="black" stroke-width="0.756" stroke-miterlimit="10" stroke-linecap="round"/>
<path d="M407.103 267.789L382.649 204.586H391.776L408.136 250.568C409.514 254.27 410.59 257.714 411.409 260.9C412.442 257.456 413.561 254.012 414.853 250.568L431.902 204.586H440.513L415.714 267.789H407.103Z" fill="black"/>
<path d="M443.213 213.541V204.586H450.963V213.541H443.213ZM443.213 267.789V221.98H450.963V267.789H443.213Z" fill="black"/>
<path d="M492.907 252.978L500.829 254.012C499.537 258.747 497.212 262.407 493.768 265.033C490.41 267.573 486.061 268.822 480.68 268.822C474.006 268.822 468.711 266.755 464.836 262.622C460.918 258.489 458.981 252.72 458.981 245.229C458.981 237.565 460.918 231.581 464.836 227.318C468.84 223.099 474.006 220.946 480.335 220.946C486.406 220.946 491.4 223.099 495.318 227.318C499.193 231.451 501.173 237.307 501.173 244.884C501.173 245.358 501.087 246.047 501.001 246.951H466.903C467.247 251.902 468.668 255.734 471.208 258.489C473.705 261.158 476.934 262.45 480.852 262.45C483.607 262.45 485.932 261.718 487.913 260.211C489.979 258.747 491.615 256.336 492.907 252.978ZM467.419 240.579H492.907C492.563 236.704 491.572 233.776 489.979 231.796C487.568 228.825 484.339 227.318 480.335 227.318C476.762 227.318 473.791 228.524 471.38 230.935C468.969 233.346 467.634 236.575 467.419 240.579Z" fill="black"/>
<path d="M515.963 267.789L502.014 221.98H509.936L517.169 248.501L519.924 258.317C520.01 257.757 520.828 254.614 522.335 248.845L529.568 221.98H537.49L544.378 248.501L546.617 257.284L549.373 248.501L557.122 221.98H564.7L550.406 267.789H542.312L535.079 240.407L533.357 232.657L524.057 267.789H515.963Z" fill="black"/>
<path d="M591.999 267.789V228.008H585.11V221.98H591.999V217.158C591.999 214.058 592.214 211.776 592.688 210.269C593.463 208.332 594.797 206.739 596.649 205.447C598.586 204.199 601.212 203.553 604.571 203.553C606.723 203.553 609.134 203.854 611.804 204.414L610.598 211.13C608.962 210.786 607.498 210.614 606.121 210.614C603.71 210.614 601.987 211.13 600.954 212.164C600.007 213.197 599.576 215.091 599.576 217.847V221.98H608.532V228.008H599.576V267.789H591.999Z" fill="black"/>
<path d="M612.832 267.789V221.98H619.892V229.04C621.614 225.725 623.207 223.53 624.714 222.496C626.307 221.463 627.986 220.946 629.709 220.946C632.335 220.946 635.047 221.807 637.803 223.53L635.047 230.763C633.196 229.643 631.302 229.04 629.364 229.04C627.642 229.04 626.092 229.557 624.714 230.59C623.423 231.624 622.519 233.001 621.959 234.724C621.012 237.479 620.581 240.536 620.581 243.851V267.789H612.832Z" fill="black"/>
<path d="M637.602 244.884C637.602 236.403 639.927 230.16 644.663 226.113C648.538 222.668 653.36 220.946 659.129 220.946C665.329 220.946 670.409 223.013 674.456 227.146C678.46 231.279 680.484 236.962 680.484 244.195C680.484 250.18 679.537 254.83 677.728 258.145C676.006 261.503 673.423 264.129 669.979 266.067C666.62 267.875 663.004 268.822 659.129 268.822C652.671 268.822 647.462 266.755 643.458 262.622C639.54 258.489 637.602 252.591 637.602 244.884ZM645.524 244.884C645.524 250.739 646.773 255.174 649.313 258.145C651.939 261.029 655.211 262.45 659.129 262.45C662.918 262.45 666.061 261.029 668.601 258.145C671.227 255.174 672.562 250.696 672.562 244.712C672.562 238.986 671.227 234.68 668.601 231.796C666.061 228.954 662.918 227.491 659.129 227.491C655.211 227.491 651.939 228.954 649.313 231.796C646.773 234.68 645.524 239.029 645.524 244.884Z" fill="black"/>
<path d="M686.49 267.789V221.98H693.378V228.524C694.842 226.242 696.737 224.391 699.061 223.013C701.472 221.635 704.228 220.946 707.328 220.946C710.643 220.946 713.398 221.721 715.594 223.185C717.747 224.563 719.297 226.543 720.244 229.04C723.774 223.659 728.51 220.946 734.365 220.946C738.843 220.946 742.287 222.238 744.698 224.735C747.195 227.275 748.487 231.193 748.487 236.446V267.789H740.737V239.029C740.737 235.929 740.436 233.69 739.876 232.313C739.403 230.935 738.499 229.858 737.121 229.04C735.829 228.136 734.365 227.663 732.643 227.663C729.414 227.663 726.702 228.782 724.549 230.935C722.483 233.131 721.449 236.575 721.449 241.268V267.789H713.7V237.996C713.7 234.551 713.054 231.968 711.805 230.246C710.514 228.524 708.447 227.663 705.606 227.663C703.41 227.663 701.343 228.265 699.406 229.385C697.555 230.547 696.22 232.269 695.445 234.551C694.627 236.747 694.239 239.89 694.239 244.023V267.789H686.49Z" fill="black"/>
<path d="M795.294 267.789V212.164H774.456V204.586H824.571V212.164H803.561V267.789H795.294Z" fill="black"/>
<path d="M825.743 244.884C825.743 236.403 828.068 230.16 832.804 226.113C836.679 222.668 841.501 220.946 847.27 220.946C853.47 220.946 858.55 223.013 862.597 227.146C866.601 231.279 868.625 236.962 868.625 244.195C868.625 250.18 867.678 254.83 865.869 258.145C864.147 261.503 861.564 264.129 858.12 266.067C854.762 267.875 851.145 268.822 847.27 268.822C840.812 268.822 835.603 266.755 831.599 262.622C827.681 258.489 825.743 252.591 825.743 244.884ZM833.665 244.884C833.665 250.739 834.914 255.174 837.454 258.145C840.08 261.029 843.352 262.45 847.27 262.45C851.059 262.45 854.202 261.029 856.742 258.145C859.368 255.174 860.703 250.696 860.703 244.712C860.703 238.986 859.368 234.68 856.742 231.796C854.202 228.954 851.059 227.491 847.27 227.491C843.352 227.491 840.08 228.954 837.454 231.796C834.914 234.68 833.665 239.029 833.665 244.884Z" fill="black"/>
<path d="M874.631 285.355V221.98H881.692V228.007C883.285 225.725 885.136 224.003 887.203 222.841C889.355 221.592 891.938 220.946 894.952 220.946C898.827 220.946 902.271 221.98 905.285 224.046C908.256 226.027 910.495 228.825 912.001 232.485C913.465 236.187 914.24 240.191 914.24 244.54C914.24 249.276 913.379 253.495 911.657 257.284C910.021 260.986 907.61 263.828 904.424 265.894C901.195 267.832 897.88 268.822 894.436 268.822C891.766 268.822 889.441 268.305 887.375 267.272C885.308 266.153 883.629 264.689 882.381 262.967V285.355H874.631ZM881.692 245.229C881.692 251.084 882.811 255.475 885.136 258.317C887.547 261.072 890.475 262.45 893.919 262.45C897.363 262.45 900.291 261.029 902.702 258.145C905.113 255.174 906.318 250.653 906.318 244.54C906.318 238.684 905.113 234.336 902.702 231.451C900.377 228.61 897.578 227.146 894.263 227.146C890.905 227.146 887.977 228.696 885.48 231.796C882.94 234.81 881.692 239.287 881.692 245.229Z" fill="black"/>
<path d="M940.39 254.184L947.967 252.978C948.398 255.992 949.603 258.317 951.584 260.039C953.521 261.675 956.277 262.45 959.85 262.45C963.381 262.45 966.05 261.761 967.772 260.383C969.494 258.92 970.355 257.198 970.355 255.217C970.355 253.409 969.58 252.031 968.116 251.084C967.083 250.395 964.414 249.491 960.195 248.328C954.425 246.951 950.464 245.745 948.312 244.712C946.116 243.679 944.437 242.258 943.318 240.407C942.155 238.469 941.595 236.403 941.595 234.207C941.595 232.14 942.026 230.246 942.973 228.524C944.006 226.802 945.298 225.381 946.934 224.218C948.053 223.314 949.689 222.582 951.756 221.98C953.823 221.291 956.061 220.946 958.472 220.946C962.003 220.946 965.189 221.463 967.944 222.496C970.7 223.53 972.68 224.993 973.972 226.802C975.22 228.524 976.081 230.892 976.555 233.862L968.978 234.896C968.633 232.485 967.643 230.676 966.05 229.385C964.414 228.007 962.089 227.318 958.989 227.318C955.416 227.318 952.875 227.964 951.412 229.213C949.905 230.375 949.173 231.753 949.173 233.346C949.173 234.293 949.431 235.154 950.034 235.929C950.723 236.876 951.756 237.565 953.134 237.996C953.823 238.34 956.061 239.029 959.85 240.062C965.361 241.569 969.193 242.775 971.389 243.679C973.541 244.626 975.22 246.004 976.383 247.812C977.631 249.534 978.277 251.73 978.277 254.356C978.277 256.896 977.502 259.307 976.038 261.589C974.531 263.914 972.336 265.679 969.494 266.928C966.739 268.176 963.51 268.822 959.85 268.822C953.995 268.822 949.431 267.617 946.245 265.206C943.145 262.708 941.165 259.006 940.39 254.184Z" fill="black"/>
<path d="M984.821 213.541V204.586H992.571V213.541H984.821ZM984.821 267.789V221.98H992.571V267.789H984.821Z" fill="black"/>
<path d="M1032.79 267.789V261.934C1029.91 266.541 1025.65 268.822 1020.05 268.822C1016.35 268.822 1012.99 267.832 1009.89 265.895C1006.88 263.828 1004.55 261.03 1002.83 257.456C1001.19 253.797 1000.42 249.62 1000.42 244.885C1000.42 240.407 1001.15 236.36 1002.66 232.657C1004.12 228.869 1006.36 226.027 1009.37 224.047C1012.47 221.98 1015.92 220.947 1019.71 220.947C1022.46 220.947 1024.87 221.592 1026.94 222.841C1029.09 224.004 1030.9 225.51 1032.28 227.319V204.586H1040.03V267.789H1032.79ZM1008.34 244.885C1008.34 250.74 1009.54 255.174 1011.96 258.145C1014.45 261.03 1017.38 262.45 1020.74 262.45C1024.18 262.45 1027.02 261.073 1029.35 258.317C1031.76 255.562 1032.97 251.343 1032.97 245.573C1032.97 239.374 1031.76 234.853 1029.35 231.968C1026.94 228.998 1023.92 227.491 1020.39 227.491C1016.95 227.491 1014.07 228.955 1011.78 231.796C1009.46 234.552 1008.34 238.943 1008.34 244.885Z" fill="black"/>
<path d="M1080.48 252.978L1088.4 254.012C1087.11 258.747 1084.78 262.407 1081.34 265.033C1077.98 267.573 1073.63 268.822 1068.25 268.822C1061.58 268.822 1056.28 266.755 1052.41 262.622C1048.49 258.489 1046.55 252.72 1046.55 245.229C1046.55 237.565 1048.49 231.581 1052.41 227.318C1056.41 223.099 1061.58 220.946 1067.9 220.946C1073.98 220.946 1078.97 223.099 1082.89 227.318C1086.76 231.451 1088.74 237.307 1088.74 244.884C1088.74 245.358 1088.66 246.047 1088.57 246.951H1054.47C1054.82 251.902 1056.24 255.734 1058.78 258.489C1061.27 261.158 1064.5 262.45 1068.42 262.45C1071.18 262.45 1073.5 261.718 1075.48 260.211C1077.55 258.747 1079.18 256.336 1080.48 252.978ZM1054.99 240.579H1080.48C1080.13 236.704 1079.14 233.776 1077.55 231.796C1075.14 228.825 1071.91 227.318 1067.9 227.318C1064.33 227.318 1061.36 228.524 1058.95 230.935C1056.54 233.346 1055.2 236.575 1054.99 240.579Z" fill="black"/>
<path d="M1731.38 565.464V112.453M382.295 424.85V112.453" stroke="#007AC0" stroke-width="0.756" stroke-miterlimit="10" stroke-linecap="round"/>
<path d="M1230.67 124.938H1703.01" stroke="#007AC0" stroke-width="0.756" stroke-miterlimit="10" stroke-linecap="round"/>
<path fill-rule="evenodd" clip-rule="evenodd" d="M1731.38 124.938L1628.27 107.76V142.117L1731.38 124.938Z" fill="#007AC0"/>
<path d="M933.382 124.938H410.711" stroke="#007AC0" stroke-width="0.756" stroke-miterlimit="10" stroke-linecap="round"/>
<path fill-rule="evenodd" clip-rule="evenodd" d="M382.295 124.938L485.409 142.117V107.76L382.295 124.938Z" fill="#007AC0"/>
<path d="M1010.16 138.583V131.006H996.383V127.389L1010.85 107.068H1013.95V127.389H1018.25V131.006H1013.95V138.583H1010.16ZM1010.16 127.389V113.268L1000.17 127.389H1010.16Z" fill="#C00000"/>
<path d="M1020.74 130.317L1024.53 129.801C1024.96 131.997 1025.74 133.59 1026.77 134.623C1027.89 135.57 1029.22 136.001 1030.73 136.001C1032.54 136.001 1034.09 135.398 1035.38 134.106C1036.63 132.858 1037.27 131.265 1037.27 129.284C1037.27 127.562 1036.67 126.141 1035.55 124.979C1034.39 123.859 1032.88 123.257 1031.07 123.257C1030.39 123.257 1029.44 123.386 1028.32 123.601L1028.84 120.157C1029.05 120.286 1029.22 120.329 1029.35 120.329C1031.07 120.329 1032.54 119.941 1033.83 119.123C1035.21 118.219 1035.9 116.842 1035.9 114.99C1035.9 113.613 1035.38 112.493 1034.35 111.546C1033.4 110.513 1032.19 109.996 1030.73 109.996C1029.22 109.996 1027.97 110.513 1026.94 111.546C1025.91 112.493 1025.26 113.871 1025.05 115.679L1021.09 114.99C1021.52 112.493 1022.55 110.513 1024.19 109.135C1025.91 107.671 1028.02 106.896 1030.56 106.896C1032.28 106.896 1033.83 107.327 1035.21 108.102C1036.67 108.791 1037.83 109.781 1038.65 111.029C1039.43 112.321 1039.86 113.699 1039.86 115.163C1039.86 116.454 1039.43 117.66 1038.65 118.779C1037.96 119.941 1036.93 120.846 1035.55 121.534C1037.36 121.879 1038.82 122.74 1039.86 124.118C1040.89 125.495 1041.41 127.218 1041.41 129.284C1041.41 132.04 1040.37 134.408 1038.31 136.345C1036.33 138.196 1033.83 139.1 1030.73 139.1C1027.97 139.1 1025.65 138.325 1023.84 136.689C1021.99 134.967 1020.96 132.858 1020.74 130.317Z" fill="#C00000"/>
<path d="M1045.79 138.583V134.106H1050.26V138.583H1045.79Z" fill="#C00000"/>
<path d="M1069.64 138.584H1065.85V113.957C1064.9 114.775 1063.65 115.636 1062.06 116.54C1060.55 117.487 1059.22 118.176 1058.1 118.607V114.818C1060.25 113.785 1062.14 112.579 1063.78 111.202C1065.37 109.738 1066.54 108.274 1067.23 106.896H1069.64V138.584Z" fill="#C00000"/>
<path d="M1084.01 121.534C1082.37 120.846 1081.16 119.985 1080.39 118.951C1079.7 117.832 1079.36 116.497 1079.36 114.99C1079.36 112.708 1080.13 110.814 1081.77 109.307C1083.49 107.714 1085.64 106.896 1088.31 106.896C1091.07 106.896 1093.31 107.714 1095.03 109.307C1096.75 110.943 1097.61 112.881 1097.61 115.163C1097.61 116.669 1097.18 117.918 1096.41 118.951C1095.59 119.985 1094.43 120.846 1092.96 121.534C1094.9 122.137 1096.32 123.171 1097.27 124.634C1098.3 126.012 1098.82 127.691 1098.82 129.629C1098.82 132.298 1097.83 134.537 1095.89 136.345C1094.04 138.196 1091.58 139.1 1088.48 139.1C1085.38 139.1 1082.84 138.196 1080.91 136.345C1078.93 134.537 1077.98 132.212 1077.98 129.456C1077.98 127.39 1078.5 125.668 1079.53 124.29C1080.65 122.912 1082.15 122.008 1084.01 121.534ZM1083.32 114.818C1083.32 116.325 1083.75 117.574 1084.69 118.607C1085.73 119.554 1086.98 119.985 1088.48 119.985C1089.95 119.985 1091.15 119.554 1092.1 118.607C1093.13 117.703 1093.65 116.54 1093.65 115.163C1093.65 113.699 1093.13 112.493 1092.1 111.546C1091.07 110.513 1089.86 109.996 1088.48 109.996C1086.98 109.996 1085.73 110.513 1084.69 111.546C1083.75 112.493 1083.32 113.57 1083.32 114.818ZM1082.11 129.456C1082.11 130.619 1082.33 131.695 1082.8 132.728C1083.36 133.762 1084.18 134.58 1085.21 135.139C1086.24 135.742 1087.32 136.001 1088.48 136.001C1090.29 136.001 1091.8 135.441 1092.96 134.278C1094.21 133.03 1094.86 131.48 1094.86 129.629C1094.86 127.82 1094.21 126.27 1092.96 124.979C1091.8 123.73 1090.25 123.084 1088.31 123.084C1086.46 123.084 1084.95 123.73 1083.83 124.979C1082.67 126.141 1082.11 127.648 1082.11 129.456Z" fill="#C00000"/>
<path d="M1102.16 138.584V115.679H1105.61V118.951C1106.3 117.832 1107.2 116.885 1108.36 116.196C1109.61 115.507 1110.99 115.163 1112.5 115.163C1114.22 115.163 1115.6 115.507 1116.63 116.196C1117.75 116.885 1118.57 117.875 1119.04 119.123C1120.85 116.497 1123.22 115.163 1126.1 115.163C1128.38 115.163 1130.11 115.808 1131.27 117.057C1132.52 118.349 1133.16 120.286 1133.16 122.912V138.584H1129.2V124.118C1129.2 122.654 1129.07 121.534 1128.86 120.846C1128.6 120.157 1128.17 119.64 1127.48 119.296C1126.88 118.865 1126.14 118.607 1125.24 118.607C1123.6 118.607 1122.23 119.123 1121.11 120.157C1120.07 121.19 1119.56 122.912 1119.56 125.323V138.584H1115.77V123.773C1115.77 122.051 1115.42 120.803 1114.74 119.985C1114.13 119.08 1113.1 118.607 1111.64 118.607C1110.6 118.607 1109.61 118.908 1108.71 119.468C1107.76 120.071 1107.07 120.932 1106.64 122.051C1106.17 123.084 1105.95 124.634 1105.95 126.701V138.584H1102.16Z" fill="#C00000"/>
<path d="M1136.59 138.584V115.679H1140.04V118.951C1140.73 117.832 1141.63 116.885 1142.79 116.196C1144.04 115.507 1145.42 115.163 1146.93 115.163C1148.65 115.163 1150.03 115.507 1151.06 116.196C1152.18 116.885 1153 117.875 1153.47 119.123C1155.28 116.497 1157.65 115.163 1160.53 115.163C1162.81 115.163 1164.54 115.808 1165.7 117.057C1166.95 118.349 1167.59 120.286 1167.59 122.912V138.584H1163.63V124.118C1163.63 122.654 1163.5 121.534 1163.29 120.846C1163.03 120.157 1162.6 119.64 1161.91 119.296C1161.31 118.865 1160.57 118.607 1159.67 118.607C1158.03 118.607 1156.66 119.123 1155.54 120.157C1154.5 121.19 1153.99 122.912 1153.99 125.323V138.584H1150.2V123.773C1150.2 122.051 1149.85 120.803 1149.16 119.985C1148.56 119.08 1147.53 118.607 1146.07 118.607C1145.03 118.607 1144.04 118.908 1143.14 119.468C1142.19 120.071 1141.5 120.932 1141.07 122.051C1140.6 123.084 1140.38 124.634 1140.38 126.701V138.584H1136.59Z" fill="#C00000"/>
<path d="M1488.17 437.379H1277.77" stroke="#007AC0" stroke-width="0.756" stroke-miterlimit="10" stroke-linecap="round"/>
<path d="M1281.22 427.246V395.73H1295.16C1298.01 395.73 1300.16 396.032 1301.54 396.591C1303 397.194 1304.21 398.227 1305.15 399.691C1306.06 401.069 1306.53 402.619 1306.53 404.341C1306.53 406.537 1305.76 408.431 1304.29 410.024C1302.79 411.531 1300.55 412.521 1297.58 412.952C1298.7 413.425 1299.56 413.942 1300.16 414.502C1301.28 415.535 1302.44 416.913 1303.6 418.635L1309.11 427.246H1303.78L1299.64 420.701C1298.35 418.764 1297.32 417.343 1296.54 416.396C1295.85 415.363 1295.16 414.674 1294.48 414.33C1293.87 413.899 1293.27 413.555 1292.58 413.296C1292.11 413.296 1291.38 413.296 1290.34 413.296H1285.35V427.246H1281.22ZM1285.35 409.68H1294.48C1296.28 409.68 1297.75 409.508 1298.78 409.163C1299.9 408.733 1300.76 408.087 1301.36 407.269C1301.92 406.365 1302.23 405.374 1302.23 404.341C1302.23 402.877 1301.62 401.672 1300.5 400.725C1299.47 399.691 1297.75 399.175 1295.34 399.175H1285.35V409.68Z" fill="#C00000"/>
<path d="M1309.51 411.746C1309.51 407.957 1309.85 404.944 1310.54 402.619C1311.31 400.337 1312.48 398.615 1313.98 397.452C1315.45 396.204 1317.34 395.558 1319.67 395.558C1321.39 395.558 1322.85 395.902 1324.14 396.591C1325.39 397.28 1326.43 398.27 1327.24 399.519C1328.15 400.81 1328.84 402.36 1329.31 404.169C1329.74 406.02 1330 408.56 1330 411.746C1330 415.449 1329.57 418.419 1328.79 420.701C1328.1 422.897 1326.99 424.619 1325.52 425.868C1324.01 427.159 1322.08 427.762 1319.67 427.762C1316.65 427.762 1314.33 426.686 1312.61 424.49C1310.54 421.864 1309.51 417.601 1309.51 411.746ZM1313.47 411.746C1313.47 416.912 1314.03 420.357 1315.19 422.079C1316.44 423.801 1317.94 424.662 1319.67 424.662C1321.47 424.662 1322.98 423.801 1324.14 422.079C1325.39 420.357 1326.04 416.912 1326.04 411.746C1326.04 406.493 1325.39 403.049 1324.14 401.413C1322.98 399.691 1321.47 398.83 1319.67 398.83C1317.94 398.83 1316.48 399.605 1315.36 401.069C1314.07 402.92 1313.47 406.493 1313.47 411.746Z" fill="#C00000"/>
<path d="M1334.55 427.245V422.767H1339.03V427.245H1334.55Z" fill="#C00000"/>
<path d="M1349.79 410.196C1348.15 409.507 1346.95 408.646 1346.17 407.613C1345.49 406.493 1345.14 405.159 1345.14 403.652C1345.14 401.37 1345.92 399.476 1347.55 397.969C1349.27 396.376 1351.43 395.558 1354.1 395.558C1356.85 395.558 1359.09 396.376 1360.81 397.969C1362.53 399.605 1363.4 401.542 1363.4 403.824C1363.4 405.331 1362.97 406.58 1362.19 407.613C1361.37 408.646 1360.21 409.507 1358.75 410.196C1360.68 410.799 1362.1 411.832 1363.05 413.296C1364.08 414.674 1364.6 416.353 1364.6 418.29C1364.6 420.96 1363.61 423.198 1361.67 425.007C1359.82 426.858 1357.37 427.762 1354.27 427.762C1351.17 427.762 1348.63 426.858 1346.69 425.007C1344.71 423.198 1343.76 420.873 1343.76 418.118C1343.76 416.051 1344.28 414.329 1345.31 412.952C1346.43 411.574 1347.94 410.67 1349.79 410.196ZM1349.1 403.48C1349.1 404.987 1349.53 406.235 1350.48 407.268C1351.51 408.216 1352.76 408.646 1354.27 408.646C1355.73 408.646 1356.94 408.216 1357.89 407.268C1358.92 406.364 1359.43 405.202 1359.43 403.824C1359.43 402.36 1358.92 401.155 1357.89 400.208C1356.85 399.174 1355.65 398.658 1354.27 398.658C1352.76 398.658 1351.51 399.174 1350.48 400.208C1349.53 401.155 1349.1 402.231 1349.1 403.48ZM1347.9 418.118C1347.9 419.28 1348.11 420.357 1348.59 421.39C1349.15 422.423 1349.96 423.241 1351 423.801C1352.03 424.404 1353.11 424.662 1354.27 424.662C1356.08 424.662 1357.58 424.102 1358.75 422.94C1359.99 421.691 1360.64 420.141 1360.64 418.29C1360.64 416.482 1359.99 414.932 1358.75 413.64C1357.58 412.392 1356.03 411.746 1354.1 411.746C1352.24 411.746 1350.74 412.392 1349.62 413.64C1348.46 414.803 1347.9 416.31 1347.9 418.118Z" fill="#C00000"/>
<path d="M1366.92 418.979L1370.7 418.462C1371.13 420.658 1371.91 422.251 1372.94 423.284C1374.06 424.232 1375.4 424.662 1376.9 424.662C1378.71 424.662 1380.26 424.059 1381.55 422.768C1382.8 421.519 1383.45 419.926 1383.45 417.946C1383.45 416.224 1382.85 414.803 1381.73 413.64C1380.56 412.521 1379.06 411.918 1377.25 411.918C1376.56 411.918 1375.61 412.047 1374.49 412.263L1375.01 408.818C1375.22 408.948 1375.4 408.991 1375.53 408.991C1377.25 408.991 1378.71 408.603 1380 407.785C1381.38 406.881 1382.07 405.503 1382.07 403.652C1382.07 402.274 1381.55 401.155 1380.52 400.208C1379.57 399.174 1378.37 398.658 1376.9 398.658C1375.4 398.658 1374.15 399.174 1373.12 400.208C1372.08 401.155 1371.44 402.533 1371.22 404.341L1367.26 403.652C1367.69 401.155 1368.72 399.174 1370.36 397.797C1372.08 396.333 1374.19 395.558 1376.73 395.558C1378.45 395.558 1380 395.988 1381.38 396.763C1382.85 397.452 1384.01 398.442 1384.83 399.691C1385.6 400.983 1386.03 402.36 1386.03 403.824C1386.03 405.116 1385.6 406.321 1384.83 407.441C1384.14 408.603 1383.1 409.507 1381.73 410.196C1383.53 410.541 1385 411.402 1386.03 412.779C1387.06 414.157 1387.58 415.879 1387.58 417.946C1387.58 420.701 1386.55 423.069 1384.48 425.007C1382.5 426.858 1380 427.762 1376.9 427.762C1374.15 427.762 1371.82 426.987 1370.02 425.351C1368.16 423.629 1367.13 421.519 1366.92 418.979Z" fill="#C00000"/>
<path d="M1390.93 427.245V404.341H1394.37V407.613C1395.06 406.493 1395.97 405.546 1397.13 404.857C1398.38 404.169 1399.76 403.824 1401.26 403.824C1402.98 403.824 1404.36 404.169 1405.4 404.857C1406.51 405.546 1407.33 406.536 1407.81 407.785C1409.61 405.159 1411.98 403.824 1414.87 403.824C1417.15 403.824 1418.87 404.47 1420.03 405.718C1421.28 407.01 1421.93 408.947 1421.93 411.574V427.245H1417.97V412.779C1417.97 411.315 1417.84 410.196 1417.62 409.507C1417.36 408.818 1416.93 408.302 1416.24 407.957C1415.64 407.527 1414.91 407.268 1414.01 407.268C1412.37 407.268 1410.99 407.785 1409.87 408.818C1408.84 409.852 1408.32 411.574 1408.32 413.985V427.245H1404.53V412.435C1404.53 410.713 1404.19 409.464 1403.5 408.646C1402.9 407.742 1401.87 407.268 1400.4 407.268C1399.37 407.268 1398.38 407.57 1397.47 408.129C1396.53 408.732 1395.84 409.593 1395.41 410.713C1394.93 411.746 1394.72 413.296 1394.72 415.362V427.245H1390.93Z" fill="#C00000"/>
<path d="M1425.36 427.245V404.341H1428.8V407.613C1429.49 406.493 1430.4 405.546 1431.56 404.857C1432.81 404.169 1434.18 403.824 1435.69 403.824C1437.41 403.824 1438.79 404.169 1439.82 404.857C1440.94 405.546 1441.76 406.536 1442.24 407.785C1444.04 405.159 1446.41 403.824 1449.3 403.824C1451.58 403.824 1453.3 404.47 1454.46 405.718C1455.71 407.01 1456.36 408.947 1456.36 411.574V427.245H1452.4V412.779C1452.4 411.315 1452.27 410.196 1452.05 409.507C1451.79 408.818 1451.36 408.302 1450.67 407.957C1450.07 407.527 1449.34 407.268 1448.44 407.268C1446.8 407.268 1445.42 407.785 1444.3 408.818C1443.27 409.852 1442.75 411.574 1442.75 413.985V427.245H1438.96V412.435C1438.96 410.713 1438.62 409.464 1437.93 408.646C1437.33 407.742 1436.29 407.268 1434.83 407.268C1433.8 407.268 1432.81 407.57 1431.9 408.129C1430.96 408.732 1430.27 409.593 1429.84 410.713C1429.36 411.746 1429.15 413.296 1429.15 415.362V427.245H1425.36Z" fill="#C00000"/>
<path d="M1691.69 327.679L1669 339.949" stroke="#007AC0" stroke-width="0.756" stroke-miterlimit="10" stroke-linecap="round"/>
<path d="M1494.33 434.064L1643.98 353.382" stroke="#007AC0" stroke-width="0.756" stroke-miterlimit="10" stroke-linecap="round"/>
<path fill-rule="evenodd" clip-rule="evenodd" d="M1669 339.949L1570.06 373.703L1586.38 403.97L1669 339.949Z" fill="#007AC0"/>
<path d="M1488.17 437.379L1578.24 388.814" stroke="#007AC0" stroke-width="0.756" stroke-miterlimit="10" stroke-linecap="round"/>
<path d="M369.809 288.026H194.709M369.809 843.505H194.709" stroke="#007AC0" stroke-width="0.756" stroke-miterlimit="10" stroke-linecap="round"/>
<path d="M207.238 413.7V316.398" stroke="#007AC0" stroke-width="0.756" stroke-miterlimit="10" stroke-linecap="round"/>
<path fill-rule="evenodd" clip-rule="evenodd" d="M207.239 288.026L190.017 391.14H224.417L207.239 288.026Z" fill="#007AC0"/>
<path d="M207.238 710.985V815.132" stroke="#007AC0" stroke-width="0.756" stroke-miterlimit="10" stroke-linecap="round"/>
<path fill-rule="evenodd" clip-rule="evenodd" d="M207.239 843.504L224.417 740.39H190.017L207.239 843.504Z" fill="#007AC0"/>
<path d="M220.871 632.117V635.906H196.245C197.063 636.853 197.924 638.102 198.828 639.695C199.775 641.201 200.464 642.536 200.894 643.655H197.106C196.072 641.503 194.867 639.608 193.489 637.972C192.025 636.379 190.562 635.217 189.184 634.528V632.117H220.871Z" fill="#C00000"/>
<path d="M193.489 623.43H189.7V602.937H192.8C194.867 605.003 197.708 607.027 201.239 608.964C204.812 610.945 208.472 612.409 212.261 613.442C214.93 614.26 217.771 614.777 220.871 614.992V618.953C218.374 618.953 215.36 618.522 211.916 617.575C208.386 616.671 204.984 615.336 201.755 613.614C198.44 611.806 195.685 609.911 193.489 607.931V623.43Z" fill="#C00000"/>
<path d="M220.872 598.556H216.394V594.078H220.872V598.556Z" fill="#C00000"/>
<path d="M193.489 589.001H189.7V568.507H192.8C194.867 570.574 197.708 572.597 201.239 574.535C204.812 576.515 208.472 577.979 212.261 579.012C214.93 579.83 217.771 580.347 220.871 580.562V584.523C218.374 584.523 215.36 584.093 211.916 583.146C208.386 582.241 204.984 580.907 201.755 579.185C198.44 577.376 195.685 575.482 193.489 573.502V589.001Z" fill="#C00000"/>
<path d="M203.822 560.337C203.133 561.973 202.272 563.179 201.239 563.954C200.119 564.643 198.785 564.987 197.278 564.987C194.996 564.987 193.102 564.212 191.595 562.576C190.002 560.854 189.184 558.701 189.184 556.032C189.184 553.276 190.002 551.038 191.595 549.315C193.231 547.593 195.168 546.732 197.45 546.732C198.957 546.732 200.206 547.163 201.239 547.938C202.272 548.756 203.133 549.918 203.822 551.382C204.425 549.445 205.458 548.024 206.922 547.077C208.3 546.043 209.979 545.527 211.916 545.527C214.585 545.527 216.824 546.517 218.633 548.454C220.484 550.306 221.388 552.76 221.388 555.86C221.388 558.959 220.484 561.5 218.633 563.437C216.824 565.418 214.499 566.365 211.744 566.365C209.677 566.365 207.955 565.848 206.578 564.815C205.2 563.695 204.296 562.188 203.822 560.337ZM197.106 561.026C198.613 561.026 199.861 560.596 200.894 559.648C201.842 558.615 202.272 557.366 202.272 555.86C202.272 554.396 201.842 553.19 200.894 552.243C199.99 551.21 198.828 550.693 197.45 550.693C195.986 550.693 194.781 551.21 193.834 552.243C192.8 553.276 192.284 554.482 192.284 555.86C192.284 557.366 192.8 558.615 193.834 559.648C194.781 560.596 195.857 561.026 197.106 561.026ZM211.744 562.232C212.906 562.232 213.983 562.016 215.016 561.543C216.049 560.983 216.867 560.165 217.427 559.132C218.03 558.098 218.288 557.022 218.288 555.86C218.288 554.051 217.728 552.544 216.566 551.382C215.317 550.133 213.767 549.488 211.916 549.488C210.108 549.488 208.558 550.133 207.266 551.382C206.018 552.544 205.372 554.094 205.372 556.032C205.372 557.883 206.018 559.39 207.266 560.509C208.429 561.672 209.936 562.232 211.744 562.232Z" fill="#C00000"/>
<path d="M220.871 542.179H197.967V538.734H201.239C200.119 538.046 199.172 537.141 198.483 535.979C197.794 534.73 197.45 533.353 197.45 531.846C197.45 530.124 197.794 528.746 198.483 527.713C199.172 526.593 200.162 525.775 201.411 525.302C198.785 523.493 197.45 521.125 197.45 518.241C197.45 515.959 198.096 514.237 199.344 513.074C200.636 511.826 202.573 511.18 205.2 511.18H220.871V515.141H206.405C204.941 515.141 203.822 515.27 203.133 515.485C202.444 515.744 201.928 516.174 201.583 516.863C201.153 517.466 200.894 518.198 200.894 519.102C200.894 520.738 201.411 522.116 202.444 523.235C203.477 524.268 205.2 524.785 207.611 524.785H220.871V528.574H206.061C204.339 528.574 203.09 528.918 202.272 529.607C201.368 530.21 200.894 531.243 200.894 532.707C200.894 533.74 201.196 534.73 201.755 535.635C202.358 536.582 203.219 537.271 204.339 537.701C205.372 538.175 206.922 538.39 208.988 538.39H220.871V542.179Z" fill="#C00000"/>
<path d="M220.871 507.75H197.967V504.306H201.239C200.119 503.617 199.172 502.713 198.483 501.55C197.794 500.302 197.45 498.924 197.45 497.417C197.45 495.695 197.794 494.317 198.483 493.284C199.172 492.165 200.162 491.347 201.411 490.873C198.785 489.065 197.45 486.697 197.45 483.812C197.45 481.531 198.096 479.808 199.344 478.646C200.636 477.397 202.573 476.752 205.2 476.752H220.871V480.713H206.405C204.941 480.713 203.822 480.842 203.133 481.057C202.444 481.315 201.928 481.746 201.583 482.435C201.153 483.037 200.894 483.769 200.894 484.673C200.894 486.309 201.411 487.687 202.444 488.807C203.477 489.84 205.2 490.357 207.611 490.357H220.871V494.145H206.061C204.339 494.145 203.09 494.49 202.272 495.179C201.368 495.781 200.894 496.815 200.894 498.278C200.894 499.312 201.196 500.302 201.755 501.206C202.358 502.153 203.219 502.842 204.339 503.273C205.372 503.746 206.922 503.961 208.988 503.961H220.871V507.75Z" fill="#C00000"/>
<path d="M434.477 327.679H525.191M434.477 803.852H525.191" stroke="#007AC0" stroke-width="0.756" stroke-miterlimit="10" stroke-linecap="round"/>
<path d="M512.704 424.463V356.094" stroke="#007AC0" stroke-width="0.756" stroke-miterlimit="10" stroke-linecap="round"/>
<path fill-rule="evenodd" clip-rule="evenodd" d="M512.704 327.679L495.525 430.792H529.882L512.704 327.679Z" fill="#007AC0"/>
<path d="M512.704 721.705V775.436" stroke="#007AC0" stroke-width="0.756" stroke-miterlimit="10" stroke-linecap="round"/>
<path fill-rule="evenodd" clip-rule="evenodd" d="M512.704 803.851L529.882 700.738H495.525L512.704 803.851Z" fill="#007AC0"/>
<path d="M526.351 642.869V646.657H501.724C502.542 647.605 503.403 648.853 504.308 650.446C505.255 651.953 505.944 653.288 506.374 654.407H502.585C501.552 652.254 500.347 650.36 498.969 648.724C497.505 647.131 496.041 645.969 494.664 645.28V642.869H526.351Z" fill="#C00000"/>
<path d="M518.085 634.354L517.74 630.393C519.721 630.048 521.185 629.36 522.218 628.326C523.251 627.207 523.768 625.829 523.768 624.193C523.768 622.385 523.079 620.835 521.701 619.543C520.237 618.295 518.343 617.649 516.018 617.649C513.865 617.649 512.143 618.295 510.852 619.543C509.474 620.706 508.785 622.299 508.785 624.365C508.785 625.657 509.087 626.776 509.646 627.81C510.249 628.757 510.981 629.489 511.885 630.048L511.368 633.665L495.18 630.737V614.894H498.969V627.637L507.407 629.187C506.03 627.379 505.341 625.399 505.341 623.332C505.341 620.577 506.331 618.295 508.268 616.444C510.249 614.506 512.703 613.516 515.674 613.516C518.558 613.516 521.012 614.334 523.079 615.927C525.619 617.993 526.868 620.749 526.868 624.193C526.868 627.078 526.093 629.446 524.457 631.254C522.864 633.105 520.754 634.139 518.085 634.354Z" fill="#C00000"/>
<path d="M526.352 609.307H521.874V604.83H526.352V609.307Z" fill="#C00000"/>
<path d="M522.562 579.604H526.351V600.442C525.447 600.442 524.543 600.356 523.596 600.098C522.218 599.538 520.84 598.677 519.462 597.514C518.085 596.395 516.492 594.673 514.64 592.348C511.885 588.904 509.732 586.622 508.096 585.459C506.374 584.211 504.781 583.565 503.274 583.565C501.81 583.565 500.519 584.168 499.486 585.287C498.452 586.45 497.936 587.87 497.936 589.592C497.936 591.444 498.538 592.951 499.658 594.07C500.691 595.232 502.198 595.792 504.135 595.792L503.791 599.753C500.82 599.538 498.581 598.548 497.075 596.825C495.482 595.017 494.664 592.52 494.664 589.42C494.664 586.45 495.525 584.082 497.247 582.359C498.883 580.551 500.949 579.604 503.447 579.604C504.738 579.604 505.987 579.905 507.235 580.465C508.398 580.939 509.646 581.8 511.024 583.048C512.402 584.211 514.253 586.148 516.535 588.904C518.515 591.315 519.807 592.865 520.496 593.553C521.185 594.156 521.873 594.673 522.562 595.103V579.604Z" fill="#C00000"/>
<path d="M526.35 564.545H518.773V578.322H515.156L494.835 563.856V560.756H515.156V556.451H518.773V560.756H526.35V564.545ZM515.156 564.545H501.035L515.156 574.533V564.545Z" fill="#C00000"/>
<path d="M526.351 552.931H503.446V549.487H506.718C505.599 548.798 504.652 547.894 503.963 546.732C503.274 545.483 502.93 544.105 502.93 542.598C502.93 540.876 503.274 539.499 503.963 538.465C504.652 537.346 505.642 536.528 506.891 536.054C504.264 534.246 502.93 531.878 502.93 528.994C502.93 526.712 503.575 524.99 504.824 523.827C506.116 522.579 508.053 521.933 510.679 521.933H526.351V525.894H511.885C510.421 525.894 509.302 526.023 508.613 526.238C507.924 526.496 507.407 526.927 507.063 527.616C506.632 528.219 506.374 528.95 506.374 529.855C506.374 531.491 506.891 532.868 507.924 533.988C508.957 535.021 510.679 535.538 513.09 535.538H526.351V539.326H511.54C509.818 539.326 508.57 539.671 507.752 540.36C506.848 540.962 506.374 541.996 506.374 543.46C506.374 544.493 506.675 545.483 507.235 546.387C507.838 547.334 508.699 548.023 509.818 548.454C510.852 548.927 512.401 549.143 514.468 549.143H526.351V552.931Z" fill="#C00000"/>
<path d="M526.351 518.502H503.446V515.058H506.718C505.599 514.369 504.652 513.465 503.963 512.302C503.274 511.054 502.93 509.676 502.93 508.169C502.93 506.447 503.274 505.069 503.963 504.036C504.652 502.916 505.642 502.098 506.891 501.625C504.264 499.817 502.93 497.449 502.93 494.564C502.93 492.282 503.575 490.56 504.824 489.398C506.116 488.149 508.053 487.503 510.679 487.503H526.351V491.464H511.885C510.421 491.464 509.302 491.593 508.613 491.809C507.924 492.067 507.407 492.498 507.063 493.186C506.632 493.789 506.374 494.521 506.374 495.425C506.374 497.061 506.891 498.439 507.924 499.558C508.957 500.592 510.679 501.108 513.09 501.108H526.351V504.897H511.54C509.818 504.897 508.57 505.241 507.752 505.93C506.848 506.533 506.374 507.566 506.374 509.03C506.374 510.063 506.675 511.054 507.235 511.958C507.838 512.905 508.699 513.594 509.818 514.024C510.852 514.498 512.401 514.713 514.468 514.713H526.351V518.502Z" fill="#C00000"/>
<path d="M421.99 816.337V969.306M1691.69 816.337V969.306" stroke="#007AC0" stroke-width="0.756" stroke-miterlimit="10" stroke-linecap="round"/>
<path d="M862.688 956.822H450.363" stroke="#007AC0" stroke-width="0.756" stroke-miterlimit="10" stroke-linecap="round"/>
<path fill-rule="evenodd" clip-rule="evenodd" d="M421.99 956.822L525.104 974V939.643L421.99 956.822Z" fill="#007AC0"/>
<path d="M1159.93 956.822H1663.31" stroke="#007AC0" stroke-width="0.756" stroke-miterlimit="10" stroke-linecap="round"/>
<path fill-rule="evenodd" clip-rule="evenodd" d="M1691.69 956.822L1588.57 939.643V974L1691.69 956.822Z" fill="#007AC0"/>
<path d="M939.453 970.476V962.899H925.676V959.282L940.142 938.961H943.241V959.282H947.547V962.899H943.241V970.476H939.453ZM939.453 959.282V945.161L929.464 959.282H939.453Z" fill="#C00000"/>
<path d="M950.034 954.977C950.034 951.188 950.379 948.174 951.068 945.849C951.843 943.567 953.005 941.845 954.512 940.683C955.976 939.434 957.87 938.788 960.195 938.788C961.917 938.788 963.381 939.133 964.673 939.822C965.921 940.511 966.955 941.501 967.773 942.749C968.677 944.041 969.366 945.591 969.839 947.399C970.27 949.25 970.528 951.791 970.528 954.977C970.528 958.679 970.097 961.65 969.322 963.932C968.634 966.128 967.514 967.85 966.05 969.098C964.543 970.39 962.606 970.993 960.195 970.993C957.181 970.993 954.856 969.916 953.134 967.721C951.068 965.094 950.034 960.832 950.034 954.977ZM953.995 954.977C953.995 960.143 954.555 963.587 955.718 965.309C956.966 967.032 958.473 967.893 960.195 967.893C962.003 967.893 963.51 967.032 964.673 965.309C965.921 963.587 966.567 960.143 966.567 954.977C966.567 949.724 965.921 946.28 964.673 944.644C963.51 942.922 962.003 942.061 960.195 942.061C958.473 942.061 957.009 942.835 955.89 944.299C954.598 946.151 953.995 949.724 953.995 954.977Z" fill="#C00000"/>
<path d="M975.08 970.476V965.998H979.557V970.476H975.08Z" fill="#C00000"/>
<path d="M1004.44 946.71L1000.65 946.883C1000.31 945.419 999.833 944.299 999.273 943.61C998.111 942.491 996.776 941.888 995.312 941.888C994.02 941.888 992.944 942.233 992.04 942.922C990.877 943.869 989.887 945.16 989.112 946.883C988.423 948.605 988.079 951.016 988.079 954.116C988.983 952.738 990.146 951.705 991.523 951.016C992.901 950.327 994.322 949.982 995.829 949.982C998.326 949.982 1000.52 950.973 1002.37 952.91C1004.18 954.761 1005.13 957.172 1005.13 960.143C1005.13 962.21 1004.65 964.104 1003.75 965.826C1002.93 967.462 1001.77 968.711 1000.31 969.615C998.799 970.519 997.077 970.993 995.14 970.993C991.911 970.993 989.285 969.873 987.218 967.548C985.237 965.137 984.29 961.176 984.29 955.665C984.29 949.595 985.367 945.16 987.562 942.405C989.5 939.994 992.126 938.788 995.484 938.788C997.981 938.788 1000.05 939.477 1001.68 940.855C1003.28 942.233 1004.18 944.213 1004.44 946.71ZM988.768 960.315C988.768 961.607 988.983 962.855 989.457 964.104C990.016 965.266 990.834 966.171 991.868 966.859C992.901 967.548 993.977 967.893 995.14 967.893C996.733 967.893 998.111 967.29 999.273 965.998C1000.52 964.621 1001.17 962.812 1001.17 960.487C1001.17 958.335 1000.52 956.613 999.273 955.321C998.111 954.072 996.69 953.427 994.968 953.427C993.245 953.427 991.739 954.072 990.49 955.321C989.328 956.613 988.768 958.249 988.768 960.315Z" fill="#C00000"/>
<path d="M1019.84 970.476V962.899H1006.07V959.282L1020.53 938.961H1023.63V959.282H1027.94V962.899H1023.63V970.476H1019.84ZM1019.84 959.282V945.161L1009.85 959.282H1019.84Z" fill="#C00000"/>
<path d="M1031.46 970.476V947.571H1034.9V950.844C1035.59 949.724 1036.49 948.777 1037.66 948.088C1038.9 947.399 1040.28 947.055 1041.79 947.055C1043.51 947.055 1044.89 947.399 1045.92 948.088C1047.04 948.777 1047.86 949.767 1048.33 951.016C1050.14 948.389 1052.51 947.055 1055.39 947.055C1057.68 947.055 1059.4 947.701 1060.56 948.949C1061.81 950.241 1062.45 952.178 1062.45 954.804V970.476H1058.49V956.01C1058.49 954.546 1058.36 953.427 1058.15 952.738C1057.89 952.049 1057.46 951.532 1056.77 951.188C1056.17 950.757 1055.44 950.499 1054.53 950.499C1052.9 950.499 1051.52 951.016 1050.4 952.049C1049.37 953.082 1048.85 954.804 1048.85 957.215V970.476H1045.06V955.666C1045.06 953.943 1044.72 952.695 1044.03 951.877C1043.43 950.973 1042.39 950.499 1040.93 950.499C1039.89 950.499 1038.9 950.8 1038 951.36C1037.05 951.963 1036.36 952.824 1035.93 953.943C1035.46 954.977 1035.25 956.527 1035.25 958.593V970.476H1031.46Z" fill="#C00000"/>
<path d="M1065.89 970.476V947.571H1069.33V950.844C1070.02 949.724 1070.92 948.777 1072.09 948.088C1073.33 947.399 1074.71 947.055 1076.22 947.055C1077.94 947.055 1079.32 947.399 1080.35 948.088C1081.47 948.777 1082.29 949.767 1082.76 951.016C1084.57 948.389 1086.94 947.055 1089.82 947.055C1092.11 947.055 1093.83 947.701 1094.99 948.949C1096.24 950.241 1096.88 952.178 1096.88 954.804V970.476H1092.92V956.01C1092.92 954.546 1092.79 953.427 1092.58 952.738C1092.32 952.049 1091.89 951.532 1091.2 951.188C1090.6 950.757 1089.87 950.499 1088.96 950.499C1087.33 950.499 1085.95 951.016 1084.83 952.049C1083.8 953.082 1083.28 954.804 1083.28 957.215V970.476H1079.49V955.666C1079.49 953.943 1079.15 952.695 1078.46 951.877C1077.85 950.973 1076.82 950.499 1075.36 950.499C1074.32 950.499 1073.33 950.8 1072.43 951.36C1071.48 951.963 1070.79 952.824 1070.36 953.943C1069.89 954.977 1069.67 956.527 1069.67 958.593V970.476H1065.89Z" fill="#C00000"/>
</svg>
