<svg id="block_diagram" data-name="block diagram" xmlns="http://www.w3.org/2000/svg" xmlns:xlink="http://www.w3.org/1999/xlink" viewBox="0 0 1061.9151 631.68003"><defs><style>.cls-1,.cls-16,.cls-17,.cls-19,.cls-26{fill:none;}.cls-2{fill:#d35400;}.cls-22,.cls-25,.cls-3{fill:#fff;}.cls-3{opacity:0.25;}.cls-4{fill:#f29c12;}.cls-5{fill:#00969e;}.cls-12,.cls-6,.cls-8{font-size:11.47447px;fill:#241f21;}.cls-12,.cls-18,.cls-20,.cls-22,.cls-6,.cls-8{font-family:RobotoMono-Bold, Roboto Mono;font-weight:700;}.cls-6,.cls-9{letter-spacing:0.09902em;}.cls-7{letter-spacing:0.00004em;}.cls-10,.cls-12{letter-spacing:0.09898em;}.cls-11{fill:url(#Pattern_pumkin);}.cls-13{fill:#1ca187;}.cls-14{fill:#94a3a6;}.cls-15{fill:#c21f0a;}.cls-16{stroke:#cceaeb;}.cls-16,.cls-17,.cls-19,.cls-26{stroke-miterlimit:10;}.cls-16,.cls-17{stroke-width:5px;}.cls-17{stroke:#fff;}.cls-18,.cls-20,.cls-22{font-size:13.05247px;letter-spacing:0.04998em;}.cls-18,.cls-21{fill:#c11f09;}.cls-19{stroke:#c11f09;}.cls-20{fill:#171e21;}.cls-23{fill:#f39c12;}.cls-24{fill:#95a5a6;}.cls-26{stroke:#00979d;}.cls-27{fill:url(#Pattern_pumkin-3);}.cls-28{fill:#cceaeb;}</style><pattern id="Pattern_pumkin" data-name="Pattern $pumkin" width="9.29999" height="9.29999" patternTransform="translate(0.63842 27.18937)" patternUnits="userSpaceOnUse" viewBox="0 0 9.3 9.3"><rect class="cls-1" width="9.29999" height="9.29999"/><rect class="cls-2" width="9.29999" height="9.29999"/><polygon class="cls-3" points="9.3 0 9.3 2.12 2.12 9.3 0 9.3 0 7.18 7.17 0 9.3 0"/><polygon class="cls-3" points="9.3 7.18 9.3 9.3 7.18 9.3 9.3 7.18"/><polygon class="cls-3" points="0 2.12 0 0 2.12 0 0 2.12"/><rect class="cls-1" width="9.29999" height="9.29999"/></pattern><pattern id="Pattern_pumkin-3" data-name="Pattern $pumkin" width="9.29999" height="9.29999" patternTransform="translate(-26.98424 38.91062) scale(2)" patternUnits="userSpaceOnUse" viewBox="0 0 9.3 9.3"><rect class="cls-1" width="9.29999" height="9.29999"/><rect class="cls-2" width="9.29999" height="9.29999"/><polygon class="cls-3" points="9.3 0 9.3 2.12 2.12 9.3 0 9.3 0 7.18 7.17 0 9.3 0"/><polygon class="cls-3" points="9.3 7.18 9.3 9.3 7.18 9.3 9.3 7.18"/><polygon class="cls-3" points="0 2.12 0 0 2.12 0 0 2.12"/><rect class="cls-1" width="9.29999" height="9.29999"/></pattern></defs><rect class="cls-4" x="269.90993" y="529.11128" width="15.90361" height="15.90362"/><rect class="cls-5" x="269.90993" y="556.62132" width="15.90361" height="15.90362"/><text class="cls-6" transform="translate(83.27341 541.13294)">Powe<tspan class="cls-7" x="32.08691" y="0">r</tspan></text><text class="cls-8" transform="translate(83.27341 568.67201)"><tspan class="cls-9">LE</tspan><tspan x="16.04346" y="0">D</tspan></text><text class="cls-8" transform="translate(83.27341 596.21107)"><tspan class="cls-9">Internal Part</tspan><tspan x="104.28271" y="0">s</tspan></text><text class="cls-8" transform="translate(298.20746 541.13294)"><tspan class="cls-10">Microcontrolle</tspan><tspan x="112.30469" y="0">r</tspan></text><rect class="cls-11" x="269.90993" y="584.13854" width="15.90361" height="15.90362"/><text class="cls-12" transform="translate(298.20746 596.1602)">Connectors</text><text class="cls-8" transform="translate(298.20746 568.67201)"><tspan class="cls-10">Data Communicatio</tspan><tspan x="136.37012" y="0">n</tspan></text><rect class="cls-13" x="54.97588" y="556.62706" width="15.90362" height="15.90362"/><rect class="cls-14" x="54.97588" y="584.13854" width="15.90362" height="15.90362"/><rect class="cls-15" x="54.97588" y="529.10984" width="15.90362" height="15.90505"/><rect class="cls-16" x="54.97588" y="59.827" width="986.17409" height="420.42063"/><line class="cls-17" x1="605.74112" y1="100.03731" x2="605.74112" y2="46.49177"/><text class="cls-18" transform="translate(588.76982 41.4919)">VBAT</text><line class="cls-19" x1="605.74112" y1="100.03731" x2="605.74112" y2="46.49177"/><line class="cls-17" x1="352.78054" y1="100.03731" x2="352.78054" y2="46.49177"/><text class="cls-18" transform="translate(340.0524 41.4919)">VIN</text><line class="cls-19" x1="352.78054" y1="100.03731" x2="352.78054" y2="46.49177"/><line class="cls-17" x1="412.78054" y1="100.03731" x2="412.78054" y2="46.49177"/><text class="cls-18" transform="translate(395.80924 41.4919)">VUSB</text><line class="cls-19" x1="412.78054" y1="100.03731" x2="412.78054" y2="46.49177"/><text class="cls-20" transform="translate(331.56718 418.82704)">27MHz</text><rect class="cls-21" x="302.77316" y="74.827" width="160.01476" height="50.42063" rx="6.52736"/><text class="cls-22" transform="translate(365.80939 96.02036)">PMIC<tspan x="-42.42676" y="15.66309">MC34PF1550A0EP</tspan></text><rect class="cls-21" x="525.57045" y="74.827" width="160.01476" height="50.42063" rx="6.52736"/><text class="cls-22" transform="translate(546.17992 96.02036)">Fuel Gauge Bat<tspan x="29.69922" y="15.66309">MAX1726</tspan></text><rect class="cls-23" x="302.77316" y="154.827" width="160.01476" height="50.42063" rx="6.52736"/><text class="cls-22" transform="translate(319.13946 176.02035)">Microcontroller<tspan x="8.48633" y="15.66309">STM32H747XIH6</tspan></text><rect class="cls-24" x="79.97588" y="154.827" width="160.01476" height="50.42063" rx="6.52736"/><text class="cls-22" transform="translate(143.0121 176.02035)">WiFi<tspan x="-42.42676" y="15.66309">LBEE5KL1DX-883</tspan></text><rect class="cls-24" x="79.97588" y="234.827" width="160.01476" height="50.42063" rx="6.52736"/><path class="cls-25" d="M141.80532,253.11427a3.543,3.543,0,0,1-.30274,1.26172,2.93119,2.93119,0,0,1-.6914.95605,3.01413,3.01413,0,0,1-1.03223.60889,3.93517,3.93517,0,0,1-1.32617.21338,3.36352,3.36352,0,0,1-1.459-.30273,2.98819,2.98819,0,0,1-1.07129-.84766,3.84669,3.84669,0,0,1-.66211-1.30957,5.82508,5.82508,0,0,1-.22949-1.68262v-1.249a5.55283,5.55283,0,0,1,.24219-1.689,3.94038,3.94038,0,0,1,.6875-1.313,3.10969,3.10969,0,0,1,1.08105-.85107,3.26334,3.26334,0,0,1,1.42383-.30225,3.9823,3.9823,0,0,1,1.36133.21631,2.782,2.782,0,0,1,1.67871,1.59961,4.33225,4.33225,0,0,1,.30567,1.30664H140.027a3.046,3.046,0,0,0-.124-.72656,1.39432,1.39432,0,0,0-.28711-.51953,1.17334,1.17334,0,0,0-.47168-.312,1.94751,1.94751,0,0,0-.67871-.105,1.33427,1.33427,0,0,0-1.22656.70068,2.68321,2.68321,0,0,0-.29687.84473,6.12676,6.12676,0,0,0-.09473,1.13769v1.26172a4.12921,4.12921,0,0,0,.38476,2.02686,1.31313,1.31313,0,0,0,1.22071.65625,1.58228,1.58228,0,0,0,1.10937-.37256,1.69849,1.69849,0,0,0,.45215-1.208Z"/><path class="cls-25" d="M146.99575,252.55324h-1.35743v3.46728h-1.791v-9.2793h3.11035a4.9911,4.9911,0,0,1,1.39551.18164,3.09274,3.09274,0,0,1,1.06738.53174,2.3374,2.3374,0,0,1,.68164.87354,2.87079,2.87079,0,0,1,.23926,1.21094,3.13669,3.13669,0,0,1-.11816.8955,2.4086,2.4086,0,0,1-.86622,1.26465,3.50922,3.50922,0,0,1-.6914.4082l1.99414,3.83008v.083h-1.918Zm-1.35743-1.45313h1.3252a1.64726,1.64726,0,0,0,1.16992-.38525,1.379,1.379,0,0,0,.41113-1.05469,1.42818,1.42818,0,0,0-.40136-1.08057,1.6498,1.6498,0,0,0-1.18555-.38525h-1.31934Z"/><path class="cls-25" d="M155.49965,251.01759l1.83008-4.27637h1.96875l-2.91894,6.06739-.00586,3.21191h-1.78516l-.00586-3.28857-2.875-5.99073h1.96289Z"/><path class="cls-25" d="M162.72329,252.6172v3.40332h-1.791v-9.2793h3.17383a4.03863,4.03863,0,0,1,1.37109.21973,3.07368,3.07368,0,0,1,1.042.61182,2.659,2.659,0,0,1,.66211.93994,3.08446,3.08446,0,0,1,.2334,1.21728,2.83131,2.83131,0,0,1-.2334,1.15381,2.64323,2.64323,0,0,1-.66211.91455,3.095,3.095,0,0,1-1.042.602,4.08818,4.08818,0,0,1-1.37109.2168Zm0-1.45312h1.38281a1.73781,1.73781,0,0,0,.66308-.11475,1.34137,1.34137,0,0,0,.46875-.312,1.28266,1.28266,0,0,0,.28028-.45606,1.58709,1.58709,0,0,0,.09277-.53857,1.92793,1.92793,0,0,0-.09277-.60547,1.37714,1.37714,0,0,0-.28028-.49072,1.31969,1.31969,0,0,0-.46875-.33106,1.65435,1.65435,0,0,0-.66308-.12109h-1.38281Z"/><path class="cls-25" d="M176.1227,248.2007h-2.86133v7.81982h-1.79785V248.2007h-2.82324v-1.45948h7.48242Z"/><path class="cls-25" d="M184.2643,252.06251a5.47171,5.47171,0,0,1-.23633,1.64453,3.80683,3.80683,0,0,1-.68164,1.29395,3.12141,3.12141,0,0,1-1.08691.84424,3.33879,3.33879,0,0,1-1.44336.30273,3.23555,3.23555,0,0,1-1.42774-.30273,2.96384,2.96384,0,0,1-1.05175-.84766,3.86038,3.86038,0,0,1-.64942-1.29394,5.70233,5.70233,0,0,1-.22363-1.64112v-1.35107a5.73718,5.73718,0,0,1,.22363-1.644,3.857,3.857,0,0,1,.64942-1.29688,3.00726,3.00726,0,0,1,1.04882-.85107,3.17968,3.17968,0,0,1,1.42383-.30567,3.32,3.32,0,0,1,1.4502.30567,3.14,3.14,0,0,1,1.08691.85107,3.8396,3.8396,0,0,1,.68164,1.29688,5.47074,5.47074,0,0,1,.23633,1.644Zm-1.81641-1.36377a5.51655,5.51655,0,0,0-.09277-1.04492,2.64945,2.64945,0,0,0-.29-.82226,1.50874,1.50874,0,0,0-.50683-.53858,1.37918,1.37918,0,0,0-.749-.19433,1.28764,1.28764,0,0,0-.72656.19433,1.40838,1.40838,0,0,0-.47168.53858,2.75634,2.75634,0,0,0-.25488.82226,6.65508,6.65508,0,0,0-.07617,1.04492v1.36377a6.61855,6.61855,0,0,0,.07617,1.03907,2.84123,2.84123,0,0,0,.25488.82861,1.42362,1.42362,0,0,0,.47168.54785,1.28377,1.28377,0,0,0,.7334.19775,1.3472,1.3472,0,0,0,.74219-.19775,1.50084,1.50084,0,0,0,.5039-.54492,2.84925,2.84925,0,0,0,.29-.8252,5.35631,5.35631,0,0,0,.0957-1.04541Z"/><path class="cls-25" d="M93.51039,269.26173a1.24542,1.24542,0,0,0-.08593-.46533,1.11062,1.11062,0,0,0-.293-.40479,2.19094,2.19094,0,0,0-.542-.34375,5.07264,5.07264,0,0,0-.832-.29,7.79727,7.79727,0,0,1-1.15625-.41456,4.18028,4.18028,0,0,1-.97168-.59912,2.76136,2.76136,0,0,1-.67286-.81543,2.21265,2.21265,0,0,1-.252-1.0708,2.26893,2.26893,0,0,1,.249-1.06445,2.42412,2.42412,0,0,1,.68848-.81592,3.216,3.216,0,0,1,1.03809-.519,4.4648,4.4648,0,0,1,1.30078-.18164,4.005,4.005,0,0,1,1.32812.21,3.1023,3.1023,0,0,1,1.03614.58984,2.66391,2.66391,0,0,1,.918,2.04883H93.51723a1.81849,1.81849,0,0,0-.1123-.57373,1.20765,1.20765,0,0,0-.293-.44922,1.34781,1.34781,0,0,0-.48438-.293,1.98567,1.98567,0,0,0-.67871-.10547,2.12561,2.12561,0,0,0-.63379.08643,1.36478,1.36478,0,0,0-.46875.24219,1.04321,1.04321,0,0,0-.29.36963,1.09065,1.09065,0,0,0-.09863.46191.87711.87711,0,0,0,.13086.47168,1.27676,1.27676,0,0,0,.37891.37891,3.08827,3.08827,0,0,0,.60254.30908,7.48194,7.48194,0,0,0,.7998.26172,6.964,6.964,0,0,1,1.17285.45215,3.74936,3.74936,0,0,1,.91992.63427,2.66369,2.66369,0,0,1,.59961.835,2.47952,2.47952,0,0,1,.21485,1.042,2.32648,2.32648,0,0,1-.2461,1.08642,2.35336,2.35336,0,0,1-.67968.80322,3.06631,3.06631,0,0,1-1.03223.49707,4.79433,4.79433,0,0,1-1.30664.169,4.85953,4.85953,0,0,1-.876-.07959,4.05528,4.05528,0,0,1-.835-.24561,3.67209,3.67209,0,0,1-.74219-.41406,2.77565,2.77565,0,0,1-.5957-.58008,2.6409,2.6409,0,0,1-.39551-.752,2.86518,2.86518,0,0,1-.14355-.93066h1.75879a1.91267,1.91267,0,0,0,.14648.72021,1.29828,1.29828,0,0,0,.37305.49072,1.54025,1.54025,0,0,0,.57422.28077,2.84207,2.84207,0,0,0,.73535.08886,2.22546,2.22546,0,0,0,.63476-.08252,1.4334,1.4334,0,0,0,.46778-.22949.9973.9973,0,0,0,.29394-.354A1.024,1.024,0,0,0,93.51039,269.26173Z"/><path class="cls-25" d="M102.88832,267.61769H99.07778v2.61914h4.45508v1.44678H97.27993v-9.2793h6.23339v1.45947H99.07778v2.33887h3.81054Z"/><path class="cls-25" d="M111.76918,268.15284a5.49457,5.49457,0,0,1-.207,1.5835,3.1909,3.1909,0,0,1-.5957,1.14746,2.4834,2.4834,0,0,1-.9502.69776,3.47726,3.47726,0,0,1-2.51757,0,2.50481,2.50481,0,0,1-.95215-.69776,3.23524,3.23524,0,0,1-.60547-1.14746,5.31932,5.31932,0,0,1-.21387-1.5835v-2.21777a5.39391,5.39391,0,0,1,.21094-1.584,3.20083,3.20083,0,0,1,.60156-1.147,2.51459,2.51459,0,0,1,.9502-.69824,3.19129,3.19129,0,0,1,1.25195-.23535,3.23384,3.23384,0,0,1,1.26172.23535,2.50938,2.50938,0,0,1,.95312.69824,3.202,3.202,0,0,1,.60254,1.147,5.42848,5.42848,0,0,1,.21,1.584Zm-4.25683-.76464,2.47265-1.84229a2.60816,2.60816,0,0,0-.32519-1.38916,1.03407,1.03407,0,0,0-.918-.45264,1.02356,1.02356,0,0,0-.92383.478,2.78615,2.78615,0,0,0-.30566,1.47217Zm2.47265-.6377-2.47265,1.83545a2.58185,2.58185,0,0,0,.33691,1.36084,1.0289,1.0289,0,0,0,.90528.44287,1.0176,1.0176,0,0,0,.92773-.48437,2.86883,2.86883,0,0,0,.30273-1.48487Z"/><path class="cls-25" d="M114.30239,267.11378l.52832-4.70947h5.14941v1.50391h-3.68945l-.22363,2.03955a3.1155,3.1155,0,0,1,.56152-.23584,2.64275,2.64275,0,0,1,.835-.1211,3.1584,3.1584,0,0,1,1.19434.21338,2.35823,2.35823,0,0,1,.88574.61524,2.73031,2.73031,0,0,1,.55176.98144,4.1989,4.1989,0,0,1,.1914,1.313,3.73844,3.73844,0,0,1-.18554,1.18506,2.74689,2.74689,0,0,1-.56641.98779,2.68707,2.68707,0,0,1-.96289.67578,3.46548,3.46548,0,0,1-1.37012.24854,3.786,3.786,0,0,1-1.15723-.17822,3.09109,3.09109,0,0,1-.99023-.523,2.703,2.703,0,0,1-.7041-.84424,2.52407,2.52407,0,0,1-.29-1.144h1.74609a1.31048,1.31048,0,0,0,1.38868,1.26807,1.28238,1.28238,0,0,0,.60937-.13379,1.09091,1.09091,0,0,0,.40723-.36963,1.666,1.666,0,0,0,.22949-.56054,3.18885,3.18885,0,0,0,.07324-.70118,2.36419,2.36419,0,0,0-.0918-.67871,1.43456,1.43456,0,0,0-.28418-.53222,1.25734,1.25734,0,0,0-.47753-.34424,1.73458,1.73458,0,0,0-.67579-.1211,2.03467,2.03467,0,0,0-.45214.04444,1.66825,1.66825,0,0,0-.33789.11474,1.36386,1.36386,0,0,0-.26172.1626,2.84437,2.84437,0,0,0-.2168.19434Z"/><path class="cls-25" d="M128.73989,268.15284a5.49492,5.49492,0,0,1-.207,1.5835,3.19107,3.19107,0,0,1-.59571,1.14746,2.48337,2.48337,0,0,1-.95019.69776,3.47728,3.47728,0,0,1-2.51758,0,2.50481,2.50481,0,0,1-.95215-.69776,3.23524,3.23524,0,0,1-.60547-1.14746,5.31932,5.31932,0,0,1-.21387-1.5835v-2.21777a5.39425,5.39425,0,0,1,.21094-1.584,3.20083,3.20083,0,0,1,.60156-1.147,2.51459,2.51459,0,0,1,.9502-.69824,3.19129,3.19129,0,0,1,1.252-.23535,3.23381,3.23381,0,0,1,1.26172.23535,2.50941,2.50941,0,0,1,.95313.69824,3.20218,3.20218,0,0,1,.60254,1.147,5.42882,5.42882,0,0,1,.21,1.584Zm-4.25684-.76464,2.47266-1.84229a2.60825,2.60825,0,0,0-.3252-1.38916,1.03406,1.03406,0,0,0-.918-.45264,1.02355,1.02355,0,0,0-.92382.478,2.786,2.786,0,0,0-.30567,1.47217Zm2.47266-.6377-2.47266,1.83545a2.58174,2.58174,0,0,0,.33692,1.36084,1.02888,1.02888,0,0,0,.90527.44287,1.0176,1.0176,0,0,0,.92773-.48437,2.86882,2.86882,0,0,0,.30274-1.48487Z"/><path class="cls-25" d="M137.56313,268.77736a3.54288,3.54288,0,0,1-.30274,1.26172,2.93119,2.93119,0,0,1-.6914.95605,3.0141,3.0141,0,0,1-1.03223.60889,3.93513,3.93513,0,0,1-1.32617.21338,3.36345,3.36345,0,0,1-1.459-.30274,2.98791,2.98791,0,0,1-1.07129-.84766,3.84624,3.84624,0,0,1-.66211-1.30957,5.825,5.825,0,0,1-.22949-1.68261v-1.249a5.55272,5.55272,0,0,1,.24218-1.689,3.94046,3.94046,0,0,1,.6875-1.313,3.10972,3.10972,0,0,1,1.08106-.85107,3.26327,3.26327,0,0,1,1.42383-.30225,3.98228,3.98228,0,0,1,1.36132.21631,2.782,2.782,0,0,1,1.67871,1.59961,4.33188,4.33188,0,0,1,.30567,1.30664h-1.78418a3.04546,3.04546,0,0,0-.124-.72656,1.39446,1.39446,0,0,0-.28711-.51953,1.17353,1.17353,0,0,0-.47168-.312,1.94754,1.94754,0,0,0-.67871-.105,1.33431,1.33431,0,0,0-1.22657.70069,2.68324,2.68324,0,0,0-.29687.84472,6.12687,6.12687,0,0,0-.09473,1.1377v1.26172a4.12907,4.12907,0,0,0,.38477,2.02685,1.3131,1.3131,0,0,0,1.2207.65625,1.58228,1.58228,0,0,0,1.10938-.37256,1.69845,1.69845,0,0,0,.45214-1.208Z"/><path class="cls-25" d="M145.736,271.68361h-6.32812v-1.21094l3.001-3.2251q.35157-.38232.59278-.69433a5.13522,5.13522,0,0,0,.39257-.57032,2.30787,2.30787,0,0,0,.2168-.48144,1.524,1.524,0,0,0,.06641-.43311,1.59686,1.59686,0,0,0-.08887-.55469,1.16608,1.16608,0,0,0-.25195-.41113,1.09341,1.09341,0,0,0-.38868-.2583,1.36157,1.36157,0,0,0-.5-.08887,1.38328,1.38328,0,0,0-1.09375.40772,1.67014,1.67014,0,0,0-.35937,1.14062h-1.77832a2.93818,2.93818,0,0,1,.90137-2.13476,3.12654,3.12654,0,0,1,1.03906-.65332,3.99561,3.99561,0,0,1,2.60059-.04151,2.51383,2.51383,0,0,1,.91113.55469,2.34433,2.34433,0,0,1,.55762.85693,3.06691,3.06691,0,0,1,.1914,1.106,2.6779,2.6779,0,0,1-.14355.87647,3.75579,3.75579,0,0,1-.40821.82519,7.3302,7.3302,0,0,1-.63379.83155q-.36913.42406-.82226.88916l-1.74609,1.84814H145.736Z"/><path class="cls-25" d="M154.21547,271.68361H152.443v-4.02149h-2.625v4.02149h-1.77832v-9.2793H149.818V266.209h2.625v-3.80469h1.77246Z"/><path class="cls-25" d="M163.10805,268.00636a4.53584,4.53584,0,0,1-.2959,1.60889,3.49338,3.49338,0,0,1-.85058,1.291l1.53515,1.38916-1.15332,1.02588L160.57778,271.69a4.0733,4.0733,0,0,1-.45508.08936,3.58569,3.58569,0,0,1-.48145.03174,3.10071,3.10071,0,0,1-2.48242-1.14405,3.68773,3.68773,0,0,1-.65332-1.21386,4.67317,4.67317,0,0,1-.22265-1.44678v-1.606a5.83493,5.83493,0,0,1,.22265-1.65429,3.84655,3.84655,0,0,1,.65332-1.30323,3.04364,3.04364,0,0,1,1.05469-.85693,3.18033,3.18033,0,0,1,1.42773-.30908,3.31271,3.31271,0,0,1,1.45313.30908,3.14853,3.14853,0,0,1,1.08984.85693,3.91839,3.91839,0,0,1,.68555,1.30323,5.46776,5.46776,0,0,1,.23828,1.65429Zm-1.81641-1.61914a5.61144,5.61144,0,0,0-.09179-1.05469,2.73237,2.73237,0,0,0-.29-.83154,1.48423,1.48423,0,0,0-.50977-.54492,1.41147,1.41147,0,0,0-.75879-.19434,1.30393,1.30393,0,0,0-.73632.19727,1.42234,1.42234,0,0,0-.47461.54492,2.74782,2.74782,0,0,0-.25489.82861,6.766,6.766,0,0,0-.07617,1.05469v1.61914a4.72669,4.72669,0,0,0,.07617.85059,2.47861,2.47861,0,0,0,.25489.7456,1.50958,1.50958,0,0,0,.47461.53223,1.26877,1.26877,0,0,0,.73632.2041,1.3757,1.3757,0,0,0,.75879-.20068,1.594,1.594,0,0,0,.50977-.53223,2.50455,2.50455,0,0,0,.29-.749,3.92671,3.92671,0,0,0,.09179-.85059Z"/><path class="cls-25" d="M169.46547,271.68361h-1.791v-7.11914l-2.34571.8413v-1.542l4.041-1.45947h.0957Z"/><path class="cls-25" d="M175.7643,272.48048h-1.65039l3.47363-10.07617h1.65039Z"/><path class="cls-25" d="M183.944,270.23683h4.60156v1.44678H181.7643v-1.09619l4.499-6.72364H181.777v-1.45947h6.65332l.00683,1.064Z"/><path class="cls-25" d="M196.6227,268.15284a5.49492,5.49492,0,0,1-.207,1.5835,3.19122,3.19122,0,0,1-.5957,1.14746,2.48348,2.48348,0,0,1-.9502.69776,3.47728,3.47728,0,0,1-2.51758,0,2.50488,2.50488,0,0,1-.95215-.69776,3.23524,3.23524,0,0,1-.60547-1.14746,5.31966,5.31966,0,0,1-.21386-1.5835v-2.21777a5.39426,5.39426,0,0,1,.21093-1.584,3.20084,3.20084,0,0,1,.60157-1.147,2.51455,2.51455,0,0,1,.95019-.69824,3.19137,3.19137,0,0,1,1.252-.23535,3.23379,3.23379,0,0,1,1.26171.23535,2.50941,2.50941,0,0,1,.95313.69824,3.20218,3.20218,0,0,1,.60254,1.147,5.42848,5.42848,0,0,1,.21,1.584Zm-4.25684-.76464,2.47266-1.84229a2.60815,2.60815,0,0,0-.3252-1.38916,1.03405,1.03405,0,0,0-.918-.45264,1.02356,1.02356,0,0,0-.92383.478,2.78614,2.78614,0,0,0-.30567,1.47217Zm2.47266-.6377-2.47266,1.83545a2.58174,2.58174,0,0,0,.33692,1.36084,1.0289,1.0289,0,0,0,.90527.44287,1.01762,1.01762,0,0,0,.92774-.48437,2.86883,2.86883,0,0,0,.30273-1.48487Z"/><path class="cls-25" d="M203.40688,271.68361h-1.791v-7.11914l-2.3457.8413v-1.542l4.041-1.45947h.0957Z"/><path class="cls-25" d="M212.30629,269.26173a1.265,1.265,0,0,0-.08593-.46533,1.10252,1.10252,0,0,0-.29395-.40479,2.16529,2.16529,0,0,0-.541-.34375,5.13835,5.13835,0,0,0-.832-.29,7.79809,7.79809,0,0,1-1.15625-.41456,4.1872,4.1872,0,0,1-.97265-.59912,2.77294,2.77294,0,0,1-.67188-.81543,2.21253,2.21253,0,0,1-.25195-1.0708,2.26893,2.26893,0,0,1,.249-1.06445,2.43227,2.43227,0,0,1,.6875-.81592,3.23124,3.23124,0,0,1,1.03907-.519,4.46283,4.46283,0,0,1,1.2998-.18164,4.011,4.011,0,0,1,1.3291.21,3.11185,3.11185,0,0,1,1.03613.58984,2.66745,2.66745,0,0,1,.917,2.04883h-1.7461a1.81807,1.81807,0,0,0-.11133-.57373,1.20762,1.20762,0,0,0-.293-.44922,1.34781,1.34781,0,0,0-.48438-.293,1.98567,1.98567,0,0,0-.67871-.10547,2.13694,2.13694,0,0,0-.63477.08643,1.35975,1.35975,0,0,0-.46777.24219,1.0217,1.0217,0,0,0-.29.36963,1.07622,1.07622,0,0,0-.09863.46191.87635.87635,0,0,0,.12988.47168,1.29258,1.29258,0,0,0,.37988.37891,3.061,3.061,0,0,0,.60254.30908,7.48291,7.48291,0,0,0,.79981.26172,6.92046,6.92046,0,0,1,1.17187.45215,3.77386,3.77386,0,0,1,.9209.63427,2.66384,2.66384,0,0,1,.59961.835,2.47917,2.47917,0,0,1,.21387,1.042,2.28315,2.28315,0,0,1-.92481,1.88964,3.06617,3.06617,0,0,1-1.03222.49707,4.79433,4.79433,0,0,1-1.30664.169,4.85953,4.85953,0,0,1-.876-.07959,4.05491,4.05491,0,0,1-.835-.24561,3.64552,3.64552,0,0,1-.74219-.41406,2.80317,2.80317,0,0,1-.59668-.58008,2.63838,2.63838,0,0,1-.39453-.752,2.86518,2.86518,0,0,1-.14355-.93066h1.75878a1.91267,1.91267,0,0,0,.14649.72021,1.29828,1.29828,0,0,0,.37305.49072,1.54313,1.54313,0,0,0,.57324.28077,2.85514,2.85514,0,0,0,.73633.08886,2.21376,2.21376,0,0,0,.63379-.08252,1.42915,1.42915,0,0,0,.46875-.22949.98438.98438,0,0,0,.293-.354A1.01168,1.01168,0,0,0,212.30629,269.26173Z"/><path class="cls-25" d="M215.9352,271.68361v-9.2793h2.40234a4.26527,4.26527,0,0,1,1.67285.31543,3.72178,3.72178,0,0,1,1.28125.87939,3.921,3.921,0,0,1,.82227,1.34815,4.9231,4.9231,0,0,1,.29,1.7207v.76465a4.89867,4.89867,0,0,1-.29,1.71777,4,4,0,0,1-.8125,1.34473,3.631,3.631,0,0,1-1.25586.876,4.08147,4.08147,0,0,1-1.61816.3125Zm1.80371-7.82618v6.38575h.68848a2.05893,2.05893,0,0,0,.90136-.19092,1.84444,1.84444,0,0,0,.67579-.55469,2.60505,2.60505,0,0,0,.42382-.88281,4.36019,4.36019,0,0,0,.14649-1.18213v-.77734a4.2148,4.2148,0,0,0-.14356-1.1377,2.58075,2.58075,0,0,0-.42675-.88281,1.95778,1.95778,0,0,0-.70118-.57373,2.17858,2.17858,0,0,0-.96582-.20362Z"/><path class="cls-25" d="M226.37075,270.23683h4.60156v1.44678h-6.78125v-1.09619l4.499-6.72364h-4.48633v-1.45947h6.65332l.00684,1.064Z"/><rect class="cls-24" x="79.97588" y="314.827" width="160.01476" height="50.42063" rx="6.52736"/><text class="cls-22" transform="translate(121.79921 343.85179)">ATECC608A</text><rect class="cls-24" x="79.97588" y="394.827" width="160.01476" height="50.42063" rx="6.52736"/><text class="cls-22" transform="translate(138.76992 416.02037)">FLASH<tspan x="-38.18457" y="15.66309">MX25L12833FZ2I</tspan></text><rect class="cls-24" x="302.77316" y="314.827" width="160.01476" height="50.42063" rx="6.52736"/><text class="cls-22" transform="translate(348.83869 343.85196)">USB3320C</text><rect class="cls-24" x="525.57045" y="154.827" width="160.01476" height="50.42063" rx="6.52736"/><text class="cls-22" transform="translate(592.84984 176.02035)">ETH<tspan x="-25.45605" y="15.66309">LAN8742AI</tspan></text><rect class="cls-24" x="525.57045" y="234.827" width="160.01476" height="50.42063" rx="6.52736"/><text class="cls-22" transform="translate(541.93676 256.02035)">MIPI-DSI bridge<tspan x="33.94238" y="15.66309">ANX7625</tspan></text><rect class="cls-24" x="525.57045" y="324.827" width="140.01476" height="50.42063" rx="6.52736"/><text class="cls-22" transform="translate(553.15018 346.02037)">EMI Filter<tspan x="-12.72754" y="15.66309">PCMF2USB3B/CZ</tspan></text><rect class="cls-24" x="685.15719" y="324.827" width="140.01476" height="50.42063" rx="6.52736"/><text class="cls-22" transform="translate(712.73775 346.02037)">EMI Filter<tspan x="-12.72754" y="15.66309">PCMF2USB3B/CZ</tspan></text><rect class="cls-24" x="844.74394" y="324.827" width="140.01476" height="50.42063" rx="6.52736"/><text class="cls-22" transform="translate(872.3243 346.02037)">EMI Filter<tspan x="-12.72754" y="15.66309">PCMF2USB3B/CZ</tspan></text><rect class="cls-24" x="784.74394" y="234.827" width="200.01476" height="50.42063" rx="6.52736"/><text class="cls-22" transform="translate(842.32412 256.02037)">PWR SWITCH<tspan x="-8.48535" y="15.66309">NX18P3001UKZ</tspan></text><line class="cls-19" x1="462.78792" y1="100.03731" x2="525.57045" y2="100.03731"/><line class="cls-26" x1="418.86165" y1="133.9562" x2="406.69943" y2="146.11843"/><line class="cls-26" x1="500.2603" y1="173.9562" x2="488.09807" y2="186.11843"/><line class="cls-26" x1="501.2603" y1="252.9562" x2="489.09807" y2="265.11843"/><polyline class="cls-26" points="984.759 260.037 1016.15 260.037 1016.15 430.037 984.759 430.037"/><line class="cls-26" x1="685.58521" y1="260.03731" x2="784.74394" y2="260.03731"/><polyline class="cls-26" points="525.57 260.037 494.179 260.037 494.179 179.951 462.788 179.951"/><line class="cls-26" x1="277.46301" y1="173.9562" x2="265.30079" y2="186.11843"/><line class="cls-26" x1="239.99064" y1="180.03731" x2="302.77316" y2="180.03731"/><line class="cls-26" x1="277.46301" y1="253.9562" x2="265.30079" y2="266.11843"/><line class="cls-26" x1="239.99064" y1="260.03731" x2="271.3819" y2="260.03731"/><line class="cls-26" x1="277.46301" y1="333.9562" x2="265.30079" y2="346.11843"/><line class="cls-26" x1="239.99064" y1="340.03731" x2="271.3819" y2="340.03731"/><polyline class="cls-26" points="239.991 420.037 271.382 420.037 271.382 180.037"/><line class="cls-19" x1="352.78054" y1="125.24763" x2="352.78054" y2="154.827"/><line class="cls-26" x1="412.78054" y1="125.24763" x2="412.78054" y2="154.827"/><line class="cls-26" x1="418.86165" y1="253.9562" x2="406.69943" y2="266.11843"/><line class="cls-26" x1="412.78054" y1="205.24763" x2="412.78054" y2="314.827"/><line class="cls-26" x1="352.78054" y1="365.24763" x2="352.78054" y2="404.827"/><text class="cls-20" transform="translate(331.56718 258.82704)">32KHz</text><line class="cls-26" x1="352.78054" y1="205.24763" x2="352.78054" y2="244.827"/><text class="cls-20" transform="translate(729.91219 184.58911)">25MHz</text><line class="cls-26" x1="725.16457" y1="179.95146" x2="685.58521" y2="179.95146"/><line class="cls-17" x1="79.97588" y1="180.03731" x2="28.97593" y2="180.03731"/><polyline class="cls-26" points="79.976 180.037 28.976 180.037 28.976 154.827"/><polygon class="cls-26" points="28.976 169.048 37.187 154.827 20.765 154.827 28.976 169.048"/><rect class="cls-27" x="525.57045" y="404.827" width="459.18825" height="50.42063" rx="5"/><text class="cls-22" transform="translate(731.22264 433.85212)">J3 USB-C</text><line class="cls-26" x1="595.57783" y1="324.827" x2="595.57783" y2="285.24763"/><polyline class="cls-26" points="755.165 324.827 755.165 305.037 595.578 305.037"/><polyline class="cls-26" points="914.751 324.827 914.751 305.037 595.578 305.037"/><line class="cls-26" x1="595.57783" y1="375.24763" x2="595.57783" y2="404.827"/><line class="cls-26" x1="755.16457" y1="375.24763" x2="755.16457" y2="404.827"/><line class="cls-26" x1="914.75132" y1="375.24763" x2="914.75132" y2="404.827"/><path class="cls-28" d="M487.79238,480.24763H608.33346a0,0,0,0,1,0,0v15.61463a6.18491,6.18491,0,0,1-6.18491,6.18491H493.9773a6.18491,6.18491,0,0,1-6.18491-6.18491V480.24763A0,0,0,0,1,487.79238,480.24763Z"/><text class="cls-20" transform="translate(501.39381 494.99058)">Portenta H7</text><polyline class="cls-26" points="525.57 430.037 412.781 430.037 412.781 365.248"/><line class="cls-26" x1="494.17918" y1="179.95146" x2="525.57045" y2="179.95146"/></svg>