<?xml version="1.0" encoding="UTF-8"?>
<svg xmlns="http://www.w3.org/2000/svg" viewBox="0 0 277.75 137.26">
  <defs>
    <style>
      .cls-1 {
        fill: #007e8a;
      }

      .cls-2 {
        fill: #007481;
      }

      .cls-3 {
        fill: #e65300;
      }

      .cls-4 {
        fill: #ea611b;
      }

      .cls-5 {
        fill: #fff;
      }

      .cls-6 {
        fill: #f37c42;
      }

      .cls-7 {
        fill: #e4e5e5;
      }

      .cls-8 {
        fill: #96999a;
      }

      .cls-9 {
        fill: #8b7866;
      }

      .cls-10 {
        fill: #9fa1a2;
      }

      .cls-11 {
        fill: #9d8d7d;
      }

      .cls-12 {
        fill: #a1a3a4;
      }

      .cls-13 {
        fill: #8c9091;
      }

      .cls-14 {
        fill: #c1c3c3;
      }

      .cls-15 {
        fill: #a6a9aa;
      }

      .cls-16 {
        fill: #c3b9af;
      }

      .cls-17 {
        fill: #c3c5c6;
      }

      .cls-18 {
        fill: #acaeaf;
      }

      .cls-19 {
        fill: #171e20;
      }

      .cls-20 {
        fill: #057582;
      }

      .cls-21 {
        fill: #2b929b;
      }
    </style>
  </defs>
  <g id="Livello_4" data-name="Livello 4">
    <path class="cls-20" d="M271.21,32.69V6.54L264.67,0H18.89S18.64,0,18.64,0l-.25,.04-.24,.06-.25,.09-.23,.11-.21,.12-.2,.15-.19,.17-.17,.19-.15,.2-.13,.22-.11,.23-.08,.24-.06,.24-.04,.25-.02,.25V134.68l.02,.26,.04,.24,.06,.25,.08,.24,.11,.23,.13,.21,.15,.2,.17,.19,.19,.17,.2,.15,.21,.13,.23,.11,.25,.09,.24,.05,.25,.04,.25,.02h249.74l.26-.02,.25-.04,.24-.05,.24-.09,.23-.11,.21-.13,.21-.15,.19-.17,.17-.19,.15-.2,.12-.21,.11-.23,.09-.24,.06-.25,.04-.24v-.26s.01-.69,.01-.69l6.54-6.54V39.22l-6.54-6.53ZM75.19,132.17c-.69,0-1.25-.56-1.25-1.24s.56-1.25,1.25-1.25,1.24,.56,1.24,1.25-.55,1.24-1.24,1.24Zm-6.57,0c-.69,0-1.24-.56-1.24-1.24s.55-1.25,1.24-1.25,1.25,.56,1.25,1.25-.56,1.24-1.25,1.24Zm-6.55,0c-.69,0-1.25-.56-1.25-1.24s.56-1.25,1.25-1.25,1.24,.56,1.24,1.25-.55,1.24-1.24,1.24Z"/>
    <g>
      <g>
        <path class="cls-13" d="M84.93,127.45v6.54h52.28v-6.54h-52.28Zm4.9,4.91h-3.27v-3.28h3.27v3.28Zm6.54,0h-3.27v-3.28h3.27v3.28Zm6.54,0h-3.27v-3.28h3.27v3.28Zm6.53,0h-3.27v-3.28h3.27v3.28Zm6.54,0h-3.27v-3.28h3.27v3.28Zm6.53,0h-3.27v-3.28h3.27v3.28Zm6.54,0h-3.27v-3.28h3.27v3.28Zm6.53,0h-3.27v-3.28h3.27v3.28Z"/>
        <g>
          <polygon class="cls-9" points="89.83 129.08 86.56 129.08 86.56 129.09 86.56 132.35 86.56 132.36 89.83 132.36 89.83 132.35 89.83 132.35 89.83 129.08"/>
          <polygon class="cls-9" points="96.37 129.08 93.1 129.08 93.1 129.09 93.1 132.35 93.1 132.36 96.37 132.36 96.37 132.35 96.37 132.35 96.37 129.08"/>
          <polygon class="cls-9" points="102.9 129.08 99.63 129.08 99.63 129.09 99.63 132.35 99.63 132.36 102.9 132.36 102.9 132.35 102.9 132.35 102.9 129.08"/>
          <polygon class="cls-9" points="109.44 129.08 106.17 129.08 106.17 129.09 106.17 132.35 106.17 132.36 109.44 132.36 109.44 132.35 109.44 132.35 109.44 129.08"/>
          <polygon class="cls-9" points="115.97 129.08 112.7 129.08 112.7 129.09 112.7 132.35 112.7 132.36 115.97 132.36 115.97 132.35 115.97 132.35 115.97 129.08"/>
          <polygon class="cls-9" points="122.51 129.08 119.24 129.08 119.24 129.09 119.24 132.35 119.24 132.36 122.51 132.36 122.51 132.35 122.51 132.35 122.51 129.08"/>
          <polygon class="cls-9" points="129.04 129.08 125.77 129.08 125.77 129.09 125.77 132.35 125.77 132.36 129.04 132.36 129.04 132.35 129.04 132.35 129.04 129.08"/>
          <polygon class="cls-9" points="135.58 129.08 132.31 129.08 132.31 129.09 132.31 132.35 132.31 132.36 135.58 132.36 135.58 132.35 135.58 132.35 135.58 129.08"/>
        </g>
      </g>
      <g>
        <path class="cls-13" d="M74.49,3.28v6.54h52.28V3.28h-52.28Zm4.9,4.91h-3.27v-3.28h3.27v3.28Zm6.54,0h-3.27v-3.28h3.27v3.28Zm6.54,0h-3.27v-3.28h3.27v3.28Zm6.53,0h-3.27v-3.28h3.27v3.28Zm6.54,0h-3.27v-3.28h3.27v3.28Zm6.53,0h-3.27v-3.28h3.27v3.28Zm6.54,0h-3.27v-3.28h3.27v3.28Zm6.53,0h-3.27v-3.28h3.27v3.28Z"/>
        <g>
          <polygon class="cls-9" points="79.39 4.91 76.13 4.91 76.13 4.92 76.13 8.18 76.13 8.19 79.39 8.19 79.39 8.18 79.39 8.18 79.39 4.91"/>
          <polygon class="cls-9" points="85.93 4.91 82.66 4.91 82.66 4.92 82.66 8.18 82.66 8.19 85.93 8.19 85.93 8.18 85.93 8.18 85.93 4.91"/>
          <polygon class="cls-9" points="92.47 4.91 89.2 4.91 89.2 4.92 89.2 8.18 89.2 8.19 92.47 8.19 92.47 8.18 92.47 8.18 92.47 4.91"/>
          <polygon class="cls-9" points="99 4.91 95.73 4.91 95.73 4.92 95.73 8.18 95.73 8.19 99 8.19 99 8.18 99 8.18 99 4.91"/>
          <polygon class="cls-9" points="105.54 4.91 102.27 4.91 102.27 4.92 102.27 8.18 102.27 8.19 105.54 8.19 105.54 8.18 105.54 8.18 105.54 4.91"/>
          <polygon class="cls-9" points="112.07 4.91 108.8 4.91 108.8 4.92 108.8 8.18 108.8 8.19 112.07 8.19 112.07 8.18 112.07 8.18 112.07 4.91"/>
          <polygon class="cls-9" points="118.61 4.91 115.34 4.91 115.34 4.92 115.34 8.18 115.34 8.19 118.61 8.19 118.61 8.18 118.61 8.18 118.61 4.91"/>
          <polygon class="cls-9" points="125.14 4.91 121.87 4.91 121.87 4.92 121.87 8.18 121.87 8.19 125.14 8.19 125.14 8.18 125.14 8.18 125.14 4.91"/>
        </g>
      </g>
      <g>
        <path class="cls-13" d="M130.58,3.28v6.54h52.28V3.28h-52.28Zm4.9,4.91h-3.27v-3.28h3.27v3.28Zm6.54,0h-3.27v-3.28h3.27v3.28Zm6.54,0h-3.27v-3.28h3.27v3.28Zm6.53,0h-3.27v-3.28h3.27v3.28Zm6.54,0h-3.27v-3.28h3.27v3.28Zm6.53,0h-3.27v-3.28h3.27v3.28Zm6.54,0h-3.27v-3.28h3.27v3.28Zm6.53,0h-3.27v-3.28h3.27v3.28Z"/>
        <g>
          <polygon class="cls-9" points="135.48 4.91 132.21 4.91 132.21 4.92 132.21 8.18 132.21 8.19 135.48 8.19 135.48 8.18 135.48 8.18 135.48 4.91"/>
          <polygon class="cls-9" points="142.02 4.91 138.75 4.91 138.75 4.92 138.75 8.18 138.75 8.19 142.02 8.19 142.02 8.18 142.02 8.18 142.02 4.91"/>
          <polygon class="cls-9" points="148.56 4.91 145.29 4.91 145.29 4.92 145.29 8.18 145.29 8.19 148.56 8.19 148.56 8.18 148.56 8.18 148.56 4.91"/>
          <polygon class="cls-9" points="155.09 4.91 151.82 4.91 151.82 4.92 151.82 8.18 151.82 8.19 155.09 8.19 155.09 8.18 155.09 8.18 155.09 4.91"/>
          <polygon class="cls-9" points="161.63 4.91 158.36 4.91 158.36 4.92 158.36 8.18 158.36 8.19 161.63 8.19 161.63 8.18 161.63 8.18 161.63 4.91"/>
          <polygon class="cls-9" points="168.16 4.91 164.89 4.91 164.89 4.92 164.89 8.18 164.89 8.19 168.16 8.19 168.16 8.18 168.16 8.18 168.16 4.91"/>
          <polygon class="cls-9" points="174.7 4.91 171.43 4.91 171.43 4.92 171.43 8.18 171.43 8.19 174.7 8.19 174.7 8.18 174.7 8.18 174.7 4.91"/>
          <polygon class="cls-9" points="181.23 4.91 177.96 4.91 177.96 4.92 177.96 8.18 177.96 8.19 181.23 8.19 181.23 8.18 181.23 8.18 181.23 4.91"/>
        </g>
      </g>
      <g>
        <path class="cls-13" d="M189.51,3.28v6.54h52.28V3.28h-52.28Zm4.9,4.91h-3.27v-3.28h3.27v3.28Zm6.54,0h-3.27v-3.28h3.27v3.28Zm6.54,0h-3.27v-3.28h3.27v3.28Zm6.53,0h-3.27v-3.28h3.27v3.28Zm6.54,0h-3.27v-3.28h3.27v3.28Zm6.53,0h-3.27v-3.28h3.27v3.28Zm6.54,0h-3.27v-3.28h3.27v3.28Zm6.53,0h-3.27v-3.28h3.27v3.28Z"/>
        <g>
          <polygon class="cls-9" points="194.41 4.91 191.14 4.91 191.14 4.92 191.14 8.18 191.14 8.19 194.41 8.19 194.41 8.18 194.41 8.18 194.41 4.91"/>
          <polygon class="cls-9" points="200.95 4.91 197.68 4.91 197.68 4.92 197.68 8.18 197.68 8.19 200.95 8.19 200.95 8.18 200.95 8.18 200.95 4.91"/>
          <polygon class="cls-9" points="207.49 4.91 204.22 4.91 204.22 4.92 204.22 8.18 204.22 8.19 207.49 8.19 207.49 8.18 207.49 8.18 207.49 4.91"/>
          <polygon class="cls-9" points="214.02 4.91 210.75 4.91 210.75 4.92 210.75 8.18 210.75 8.19 214.02 8.19 214.02 8.18 214.02 8.18 214.02 4.91"/>
          <polygon class="cls-9" points="220.56 4.91 217.29 4.91 217.29 4.92 217.29 8.18 217.29 8.19 220.56 8.19 220.56 8.18 220.56 8.18 220.56 4.91"/>
          <polygon class="cls-9" points="227.09 4.91 223.82 4.91 223.82 4.92 223.82 8.18 223.82 8.19 227.09 8.19 227.09 8.18 227.09 8.18 227.09 4.91"/>
          <polygon class="cls-9" points="233.63 4.91 230.36 4.91 230.36 4.92 230.36 8.18 230.36 8.19 233.63 8.19 233.63 8.18 233.63 8.18 233.63 4.91"/>
          <polygon class="cls-9" points="240.16 4.91 236.89 4.91 236.89 4.92 236.89 8.18 236.89 8.19 240.16 8.19 240.16 8.18 240.16 8.18 240.16 4.91"/>
        </g>
      </g>
      <g>
        <path class="cls-13" d="M61.38,3.28v6.54h13.11V3.28h-13.11Zm4.95,4.91h-3.27v-3.28h3.27v3.28Zm6.53,0h-3.27v-3.28h3.27v3.28Z"/>
        <g>
          <polygon class="cls-9" points="66.33 4.91 63.06 4.91 63.06 4.92 63.06 8.18 63.06 8.19 66.33 8.19 66.33 8.18 66.33 8.18 66.33 4.91"/>
          <polygon class="cls-9" points="72.86 4.91 69.59 4.91 69.59 4.92 69.59 8.18 69.59 8.19 72.86 8.19 72.86 8.18 72.86 8.18 72.86 4.91"/>
        </g>
      </g>
      <g>
        <path class="cls-13" d="M143.79,127.45v6.54h52.28v-6.54h-52.28Zm4.9,4.91h-3.27v-3.28h3.27v3.28Zm6.54,0h-3.27v-3.28h3.27v3.28Zm6.54,0h-3.27v-3.28h3.27v3.28Zm6.53,0h-3.27v-3.28h3.27v3.28Zm6.54,0h-3.27v-3.28h3.27v3.28Zm6.53,0h-3.27v-3.28h3.27v3.28Zm6.54,0h-3.27v-3.28h3.27v3.28Zm6.53,0h-3.27v-3.28h3.27v3.28Z"/>
        <g>
          <polygon class="cls-9" points="148.7 129.08 145.43 129.08 145.43 129.09 145.43 132.35 145.43 132.36 148.7 132.36 148.7 132.35 148.7 132.35 148.7 129.08"/>
          <polygon class="cls-9" points="155.23 129.08 151.96 129.08 151.96 129.09 151.96 132.35 151.96 132.36 155.23 132.36 155.23 132.35 155.23 132.35 155.23 129.08"/>
          <polygon class="cls-9" points="161.77 129.08 158.5 129.08 158.5 129.09 158.5 132.35 158.5 132.36 161.77 132.36 161.77 132.35 161.77 132.35 161.77 129.08"/>
          <polygon class="cls-9" points="168.3 129.08 165.03 129.08 165.03 129.09 165.03 132.35 165.03 132.36 168.3 132.36 168.3 132.35 168.3 132.35 168.3 129.08"/>
          <polygon class="cls-9" points="174.84 129.08 171.57 129.08 171.57 129.09 171.57 132.35 171.57 132.36 174.84 132.36 174.84 132.35 174.84 132.35 174.84 129.08"/>
          <polygon class="cls-9" points="181.37 129.08 178.1 129.08 178.1 129.09 178.1 132.35 178.1 132.36 181.37 132.36 181.37 132.35 181.37 132.35 181.37 129.08"/>
          <polygon class="cls-9" points="187.91 129.08 184.64 129.08 184.64 129.09 184.64 132.35 184.64 132.36 187.91 132.36 187.91 132.35 187.91 132.35 187.91 129.08"/>
          <polygon class="cls-9" points="194.44 129.08 191.17 129.08 191.17 129.09 191.17 132.35 191.17 132.36 194.44 132.36 194.44 132.35 194.44 132.35 194.44 129.08"/>
        </g>
      </g>
      <g>
        <path class="cls-13" d="M202.6,127.45v6.54h52.28v-6.54h-52.28Zm4.9,4.91h-3.27v-3.28h3.27v3.28Zm6.54,0h-3.27v-3.28h3.27v3.28Zm6.54,0h-3.27v-3.28h3.27v3.28Zm6.53,0h-3.27v-3.28h3.27v3.28Zm6.54,0h-3.27v-3.28h3.27v3.28Zm6.53,0h-3.27v-3.28h3.27v3.28Zm6.54,0h-3.27v-3.28h3.27v3.28Zm6.53,0h-3.27v-3.28h3.27v3.28Z"/>
        <g>
          <polygon class="cls-9" points="207.5 129.08 204.23 129.08 204.23 129.09 204.23 132.35 204.23 132.36 207.5 132.36 207.5 132.35 207.5 132.35 207.5 129.08"/>
          <polygon class="cls-9" points="214.04 129.08 210.77 129.08 210.77 129.09 210.77 132.35 210.77 132.36 214.04 132.36 214.04 132.35 214.04 132.35 214.04 129.08"/>
          <polygon class="cls-9" points="220.58 129.08 217.31 129.08 217.31 129.09 217.31 132.35 217.31 132.36 220.58 132.36 220.58 132.35 220.58 132.35 220.58 129.08"/>
          <polygon class="cls-9" points="227.11 129.08 223.84 129.08 223.84 129.09 223.84 132.35 223.84 132.36 227.11 132.36 227.11 132.35 227.11 132.35 227.11 129.08"/>
          <polygon class="cls-9" points="233.65 129.08 230.38 129.08 230.38 129.09 230.38 132.35 230.38 132.36 233.65 132.36 233.65 132.35 233.65 132.35 233.65 129.08"/>
          <polygon class="cls-9" points="240.18 129.08 236.91 129.08 236.91 129.09 236.91 132.35 236.91 132.36 240.18 132.36 240.18 132.35 240.18 132.35 240.18 129.08"/>
          <polygon class="cls-9" points="246.72 129.08 243.45 129.08 243.45 129.09 243.45 132.35 243.45 132.36 246.72 132.36 246.72 132.35 246.72 132.35 246.72 129.08"/>
          <polygon class="cls-9" points="253.25 129.08 249.98 129.08 249.98 129.09 249.98 132.35 249.98 132.36 253.25 132.36 253.25 132.35 253.25 132.35 253.25 129.08"/>
        </g>
      </g>
      <path class="cls-13" d="M254.86,3.3V120.92h13.08V3.3h-13.08Zm4.9,115.98h-3.27v-3.27h3.27v3.27Zm0-6.53h-3.27v-3.28h3.27v3.28Zm0-6.54h-3.27v-3.27h3.27v3.27Zm0-6.53h-3.27v-3.28h3.27v3.28Zm0-6.53h-3.27v-3.28h3.27v3.28Zm0-6.54h-3.27v-3.27h3.27v3.27Zm0-6.53h-3.27v-3.28h3.27v3.28Zm0-6.54h-3.27v-3.27h3.27v3.27Zm0-6.53h-3.27v-3.28h3.27v3.28Zm0-6.54h-3.27v-3.27h3.27v3.27Zm0-6.53h-3.27v-3.27h3.27v3.27Zm0-6.53h-3.27v-3.28h3.27v3.28Zm0-6.54h-3.27v-3.27h3.27v3.27Zm0-6.53h-3.27v-3.28h3.27v3.28Zm0-6.54h-3.27v-3.27h3.27v3.27Zm0-6.53h-3.27v-3.28h3.27v3.28Zm0-6.53h-3.27v-3.28h3.27v3.28Zm0-6.54h-3.27v-3.27h3.27v3.27Zm6.55,111.08h-3.27v-3.27h3.27v3.27Zm0-6.53h-3.27v-3.28h3.27v3.28Zm0-6.54h-3.27v-3.27h3.27v3.27Zm0-6.53h-3.27v-3.28h3.27v3.28Zm0-6.53h-3.27v-3.28h3.27v3.28Zm0-6.54h-3.27v-3.27h3.27v3.27Zm0-6.53h-3.27v-3.28h3.27v3.28Zm0-6.54h-3.27v-3.27h3.27v3.27Zm0-6.53h-3.27v-3.28h3.27v3.28Zm0-6.54h-3.27v-3.27h3.27v3.27Zm0-6.53h-3.27v-3.27h3.27v3.27Zm0-6.53h-3.27v-3.28h3.27v3.28Zm0-6.54h-3.27v-3.27h3.27v3.27Zm0-6.53h-3.27v-3.28h3.27v3.28Zm0-6.54h-3.27v-3.27h3.27v3.27Zm0-6.53h-3.27v-3.28h3.27v3.28Zm0-6.53h-3.27v-3.28h3.27v3.28Zm0-6.54h-3.27v-3.27h3.27v3.27Z"/>
      <g>
        <polygon class="cls-9" points="259.76 116.01 256.49 116.01 256.49 116.01 256.49 119.27 256.49 119.28 259.76 119.28 259.76 119.27 259.76 119.27 259.76 116.01"/>
        <polygon class="cls-9" points="266.31 116.01 263.04 116.01 263.04 116.01 263.04 119.27 263.04 119.28 266.31 119.28 266.31 119.27 266.31 119.27 266.31 116.01"/>
        <polygon class="cls-9" points="259.76 109.47 256.49 109.47 256.49 109.48 256.49 112.74 256.49 112.75 259.76 112.75 259.76 112.74 259.76 112.74 259.76 109.47"/>
        <polygon class="cls-9" points="266.31 109.47 263.04 109.47 263.04 109.48 263.04 112.74 263.04 112.75 266.31 112.75 266.31 112.74 266.31 112.74 266.31 109.47"/>
        <polygon class="cls-9" points="259.76 102.94 256.49 102.94 256.49 102.94 256.49 106.2 256.49 106.21 259.76 106.21 259.76 106.2 259.76 106.2 259.76 102.94"/>
        <polygon class="cls-9" points="266.31 102.94 263.04 102.94 263.04 102.94 263.04 106.2 263.04 106.21 266.31 106.21 266.31 106.2 266.31 106.2 266.31 102.94"/>
        <polygon class="cls-9" points="259.76 96.4 256.49 96.4 256.49 96.41 256.49 99.67 256.49 99.68 259.76 99.68 259.76 99.67 259.76 99.67 259.76 96.4"/>
        <polygon class="cls-9" points="266.31 96.4 263.04 96.4 263.04 96.41 263.04 99.67 263.04 99.68 266.31 99.68 266.31 99.67 266.31 99.67 266.31 96.4"/>
        <polygon class="cls-9" points="259.76 89.87 256.49 89.87 256.49 89.88 256.49 93.14 256.49 93.15 259.76 93.15 259.76 93.14 259.76 93.14 259.76 89.87"/>
        <polygon class="cls-9" points="266.31 89.87 263.04 89.87 263.04 89.88 263.04 93.14 263.04 93.15 266.31 93.15 266.31 93.14 266.31 93.14 266.31 89.87"/>
        <polygon class="cls-9" points="259.76 83.34 256.49 83.34 256.49 83.34 256.49 86.6 256.49 86.61 259.76 86.61 259.76 86.6 259.76 86.6 259.76 83.34"/>
        <polygon class="cls-9" points="266.31 83.34 263.04 83.34 263.04 83.34 263.04 86.6 263.04 86.61 266.31 86.61 266.31 86.6 266.31 86.6 266.31 83.34"/>
        <polygon class="cls-9" points="259.76 76.8 256.49 76.8 256.49 76.81 256.49 80.07 256.49 80.08 259.76 80.08 259.76 80.07 259.76 80.07 259.76 76.8"/>
        <polygon class="cls-9" points="266.31 76.8 263.04 76.8 263.04 76.81 263.04 80.07 263.04 80.08 266.31 80.08 266.31 80.07 266.31 80.07 266.31 76.8"/>
        <polygon class="cls-9" points="259.76 70.27 256.49 70.27 256.49 70.27 256.49 73.53 256.49 73.54 259.76 73.54 259.76 73.53 259.76 73.53 259.76 70.27"/>
        <polygon class="cls-9" points="266.31 70.27 263.04 70.27 263.04 70.27 263.04 73.53 263.04 73.54 266.31 73.54 266.31 73.53 266.31 73.53 266.31 70.27"/>
        <polygon class="cls-9" points="259.76 63.73 256.49 63.73 256.49 63.74 256.49 67 256.49 67.01 259.76 67.01 259.76 67 259.76 67 259.76 63.73"/>
        <polygon class="cls-9" points="266.31 63.73 263.04 63.73 263.04 63.74 263.04 67 263.04 67.01 266.31 67.01 266.31 67 266.31 67 266.31 63.73"/>
        <polygon class="cls-9" points="259.76 57.2 256.49 57.2 256.49 57.21 256.49 60.47 256.49 60.47 259.76 60.47 259.76 60.47 259.76 60.47 259.76 57.2"/>
        <polygon class="cls-9" points="266.31 57.2 263.04 57.2 263.04 57.21 263.04 60.47 263.04 60.47 266.31 60.47 266.31 60.47 266.31 60.47 266.31 57.2"/>
        <polygon class="cls-9" points="259.76 50.67 256.49 50.67 256.49 50.67 256.49 53.93 256.49 53.94 259.76 53.94 259.76 53.93 259.76 53.93 259.76 50.67"/>
        <polygon class="cls-9" points="266.31 50.67 263.04 50.67 263.04 50.67 263.04 53.93 263.04 53.94 266.31 53.94 266.31 53.93 266.31 53.93 266.31 50.67"/>
        <polygon class="cls-9" points="259.76 44.13 256.49 44.13 256.49 44.14 256.49 47.4 256.49 47.41 259.76 47.41 259.76 47.4 259.76 47.4 259.76 44.13"/>
        <polygon class="cls-9" points="266.31 44.13 263.04 44.13 263.04 44.14 263.04 47.4 263.04 47.41 266.31 47.41 266.31 47.4 266.31 47.4 266.31 44.13"/>
        <polygon class="cls-9" points="259.76 37.6 256.49 37.6 256.49 37.6 256.49 40.86 256.49 40.87 259.76 40.87 259.76 40.86 259.76 40.86 259.76 37.6"/>
        <polygon class="cls-9" points="266.31 37.6 263.04 37.6 263.04 37.6 263.04 40.86 263.04 40.87 266.31 40.87 266.31 40.86 266.31 40.86 266.31 37.6"/>
        <polygon class="cls-9" points="259.76 31.06 256.49 31.06 256.49 31.07 256.49 34.33 256.49 34.34 259.76 34.34 259.76 34.33 259.76 34.33 259.76 31.06"/>
        <polygon class="cls-9" points="266.31 31.06 263.04 31.06 263.04 31.07 263.04 34.33 263.04 34.34 266.31 34.34 266.31 34.33 266.31 34.33 266.31 31.06"/>
        <polygon class="cls-9" points="259.76 24.53 256.49 24.53 256.49 24.53 256.49 27.79 256.49 27.8 259.76 27.8 259.76 27.79 259.76 27.79 259.76 24.53"/>
        <polygon class="cls-9" points="266.31 24.53 263.04 24.53 263.04 24.53 263.04 27.79 263.04 27.8 266.31 27.8 266.31 27.79 266.31 27.79 266.31 24.53"/>
        <polygon class="cls-9" points="259.76 17.99 256.49 17.99 256.49 18 256.49 21.26 256.49 21.27 259.76 21.27 259.76 21.26 259.76 21.26 259.76 17.99"/>
        <polygon class="cls-9" points="266.31 17.99 263.04 17.99 263.04 18 263.04 21.26 263.04 21.27 266.31 21.27 266.31 21.26 266.31 21.26 266.31 17.99"/>
        <polygon class="cls-9" points="259.76 11.46 256.49 11.46 256.49 11.47 256.49 14.73 256.49 14.74 259.76 14.74 259.76 14.73 259.76 14.73 259.76 11.46"/>
        <polygon class="cls-9" points="266.31 11.46 263.04 11.46 263.04 11.47 263.04 14.73 263.04 14.74 266.31 14.74 266.31 14.73 266.31 14.73 266.31 11.46"/>
        <polygon class="cls-9" points="259.76 4.93 256.49 4.93 256.49 4.93 256.49 8.19 256.49 8.2 259.76 8.2 259.76 8.19 259.76 8.19 259.76 4.93"/>
        <polygon class="cls-9" points="266.31 4.93 263.04 4.93 263.04 4.93 263.04 8.19 263.04 8.2 266.31 8.2 266.31 8.19 266.31 8.19 266.31 4.93"/>
      </g>
      <rect class="cls-13" x="126.77" y="3.28" width="3.81" height="6.54"/>
      <rect class="cls-13" x="182.86" y="3.28" width="6.65" height="6.54"/>
      <rect class="cls-13" x="196.07" y="127.45" width="6.53" height="6.54"/>
      <rect class="cls-13" x="137.21" y="127.45" width="6.58" height="6.54"/>
    </g>
    <g>
      <path class="cls-9" d="M145.23,109.44c-.48,0-.95,.09-1.38,.26v-4.26c.43,.17,.9,.26,1.38,.26s.96-.09,1.39-.27v4.28c-.43-.18-.9-.27-1.39-.27Z"/>
      <path class="cls-14" d="M145.23,105.71c-.48,0-.95-.09-1.38-.26v-.7h2.77v.69c-.43,.18-.9,.27-1.39,.27Z"/>
      <path class="cls-14" d="M146.62,110.39h-2.77v-.69c.43-.17,.9-.26,1.38-.26s.96,.09,1.39,.27v.68Z"/>
    </g>
    <g>
      <path class="cls-9" d="M138.53,119.24c-.48,0-.95,.09-1.38,.26v-4.26c.43,.17,.9,.26,1.38,.26s.96-.09,1.39-.27v4.28c-.43-.18-.9-.27-1.39-.27Z"/>
      <path class="cls-14" d="M138.53,115.5c-.48,0-.95-.09-1.38-.26v-.7h2.77v.69c-.43,.18-.9,.27-1.39,.27Z"/>
      <path class="cls-14" d="M139.92,120.19h-2.77v-.69c.43-.17,.9-.26,1.38-.26s.96,.09,1.39,.27v.68Z"/>
    </g>
    <g>
      <path class="cls-9" d="M148.99,109.44c-.48,0-.95,.09-1.38,.26v-4.26c.43,.17,.9,.26,1.38,.26s.96-.09,1.39-.27v4.28c-.43-.18-.9-.27-1.39-.27Z"/>
      <path class="cls-14" d="M148.99,105.71c-.48,0-.95-.09-1.38-.26v-.7h2.77v.69c-.43,.18-.9,.27-1.39,.27Z"/>
      <path class="cls-14" d="M150.38,110.39h-2.77v-.69c.43-.17,.9-.26,1.38-.26s.96,.09,1.39,.27v.68Z"/>
    </g>
    <g>
      <path class="cls-9" d="M145.23,102.25c-.48,0-.95,.09-1.38,.26v-4.26c.43,.17,.9,.26,1.38,.26s.96-.09,1.39-.27v4.28c-.43-.18-.9-.27-1.39-.27Z"/>
      <path class="cls-14" d="M145.23,98.51c-.48,0-.95-.09-1.38-.26v-.7h2.77v.69c-.43,.18-.9,.27-1.39,.27Z"/>
      <path class="cls-14" d="M146.62,103.2h-2.77v-.69c.43-.17,.9-.26,1.38-.26s.96,.09,1.39,.27v.68Z"/>
    </g>
    <g>
      <path class="cls-9" d="M148.99,102.25c-.48,0-.95,.09-1.38,.26v-4.26c.43,.17,.9,.26,1.38,.26s.96-.09,1.39-.27v4.28c-.43-.18-.9-.27-1.39-.27Z"/>
      <path class="cls-14" d="M148.99,98.51c-.48,0-.95-.09-1.38-.26v-.7h2.77v.69c-.43,.18-.9,.27-1.39,.27Z"/>
      <path class="cls-14" d="M150.38,103.2h-2.77v-.69c.43-.17,.9-.26,1.38-.26s.96,.09,1.39,.27v.68Z"/>
    </g>
    <g>
      <path class="cls-9" d="M90.93,111.84c-.48,0-.95,.09-1.38,.26v-4.26c.43,.17,.9,.26,1.38,.26s.96-.09,1.39-.27v4.28c-.43-.18-.9-.27-1.39-.27Z"/>
      <path class="cls-14" d="M90.93,108.1c-.48,0-.95-.09-1.38-.26v-.7h2.77v.69c-.43,.18-.9,.27-1.39,.27Z"/>
      <path class="cls-14" d="M92.32,112.79h-2.77v-.69c.43-.17,.9-.26,1.38-.26s.96,.09,1.39,.27v.68Z"/>
    </g>
    <g>
      <path class="cls-9" d="M94.69,111.84c-.48,0-.95,.09-1.38,.26v-4.26c.43,.17,.9,.26,1.38,.26s.96-.09,1.39-.27v4.28c-.43-.18-.9-.27-1.39-.27Z"/>
      <path class="cls-14" d="M94.69,108.1c-.48,0-.95-.09-1.38-.26v-.7h2.77v.69c-.43,.18-.9,.27-1.39,.27Z"/>
      <path class="cls-14" d="M96.09,112.79h-2.77v-.69c.43-.17,.9-.26,1.38-.26s.96,.09,1.39,.27v.68Z"/>
    </g>
    <g>
      <path class="cls-9" d="M69.17,109.5c-.48,0-.95,.09-1.38,.26v-4.26c.43,.17,.9,.26,1.38,.26s.96-.09,1.39-.27v4.28c-.43-.18-.9-.27-1.39-.27Z"/>
      <path class="cls-14" d="M69.17,105.76c-.48,0-.95-.09-1.38-.26v-.7h2.77v.69c-.43,.18-.9,.27-1.39,.27Z"/>
      <path class="cls-14" d="M70.56,110.45h-2.77v-.69c.43-.17,.9-.26,1.38-.26s.96,.09,1.39,.27v.68Z"/>
    </g>
    <g>
      <path class="cls-9" d="M72.93,109.5c-.48,0-.95,.09-1.38,.26v-4.26c.43,.17,.9,.26,1.38,.26s.96-.09,1.39-.27v4.28c-.43-.18-.9-.27-1.39-.27Z"/>
      <path class="cls-14" d="M72.93,105.76c-.48,0-.95-.09-1.38-.26v-.7h2.77v.69c-.43,.18-.9,.27-1.39,.27Z"/>
      <path class="cls-14" d="M74.33,110.45h-2.77v-.69c.43-.17,.9-.26,1.38-.26s.96,.09,1.39,.27v.68Z"/>
    </g>
    <g>
      <path class="cls-9" d="M123.78,104.41c-.48,0-.95,.09-1.38,.26v-4.26c.43,.17,.9,.26,1.38,.26s.96-.09,1.39-.27v4.28c-.43-.18-.9-.27-1.39-.27Z"/>
      <path class="cls-14" d="M123.78,100.67c-.48,0-.95-.09-1.38-.26v-.7h2.77v.69c-.43,.18-.9,.27-1.39,.27Z"/>
      <path class="cls-14" d="M125.18,105.36h-2.77v-.69c.43-.17,.9-.26,1.38-.26s.96,.09,1.39,.27v.68Z"/>
    </g>
    <g>
      <path class="cls-9" d="M127.55,104.41c-.48,0-.95,.09-1.38,.26v-4.26c.43,.17,.9,.26,1.38,.26s.96-.09,1.39-.27v4.28c-.43-.18-.9-.27-1.39-.27Z"/>
      <path class="cls-14" d="M127.55,100.67c-.48,0-.95-.09-1.38-.26v-.7h2.77v.69c-.43,.18-.9,.27-1.39,.27Z"/>
      <path class="cls-14" d="M128.94,105.36h-2.77v-.69c.43-.17,.9-.26,1.38-.26s.96,.09,1.39,.27v.68Z"/>
    </g>
    <g>
      <path class="cls-9" d="M115.64,104.41c-.48,0-.95,.09-1.38,.26v-4.26c.43,.17,.9,.26,1.38,.26s.96-.09,1.39-.27v4.28c-.43-.18-.9-.27-1.39-.27Z"/>
      <path class="cls-14" d="M115.64,100.67c-.48,0-.95-.09-1.38-.26v-.7h2.77v.69c-.43,.18-.9,.27-1.39,.27Z"/>
      <path class="cls-14" d="M117.04,105.36h-2.77v-.69c.43-.17,.9-.26,1.38-.26s.96,.09,1.39,.27v.68Z"/>
    </g>
    <g>
      <path class="cls-9" d="M119.41,104.41c-.48,0-.95,.09-1.38,.26v-4.26c.43,.17,.9,.26,1.38,.26s.96-.09,1.39-.27v4.28c-.43-.18-.9-.27-1.39-.27Z"/>
      <path class="cls-14" d="M119.41,100.67c-.48,0-.95-.09-1.38-.26v-.7h2.77v.69c-.43,.18-.9,.27-1.39,.27Z"/>
      <path class="cls-14" d="M120.8,105.36h-2.77v-.69c.43-.17,.9-.26,1.38-.26s.96,.09,1.39,.27v.68Z"/>
    </g>
    <g>
      <path class="cls-2" d="M134.22,91.92c-.48,0-.95,.09-1.38,.26v-4.26c.43,.17,.9,.26,1.38,.26s.96-.09,1.39-.27v4.28c-.43-.18-.9-.27-1.39-.27Z"/>
      <path class="cls-3" d="M134.22,91.92c-.48,0-.95,.09-1.38,.26v-4.26c.43,.17,.9,.26,1.38,.26s.96-.09,1.39-.27v4.28c-.43-.18-.9-.27-1.39-.27Z"/>
      <path class="cls-19" d="M134.22,91.92c-.48,0-.95,.09-1.38,.26v-4.26c.43,.17,.9,.26,1.38,.26s.96-.09,1.39-.27v4.28c-.43-.18-.9-.27-1.39-.27Z"/>
      <path class="cls-14" d="M134.22,88.18c-.48,0-.95-.09-1.38-.26v-.7h2.77v.69c-.43,.18-.9,.27-1.39,.27Z"/>
      <path class="cls-14" d="M135.61,92.87h-2.77v-.69c.43-.17,.9-.26,1.38-.26s.96,.09,1.39,.27v.68Z"/>
    </g>
    <g>
      <path class="cls-2" d="M98.44,111.85c-.48,0-.95,.09-1.38,.26v-4.26c.43,.17,.9,.26,1.38,.26s.96-.09,1.39-.27v4.28c-.43-.18-.9-.27-1.39-.27Z"/>
      <path class="cls-3" d="M98.44,111.85c-.48,0-.95,.09-1.38,.26v-4.26c.43,.17,.9,.26,1.38,.26s.96-.09,1.39-.27v4.28c-.43-.18-.9-.27-1.39-.27Z"/>
      <path class="cls-19" d="M98.44,111.85c-.48,0-.95,.09-1.38,.26v-4.26c.43,.17,.9,.26,1.38,.26s.96-.09,1.39-.27v4.28c-.43-.18-.9-.27-1.39-.27Z"/>
      <path class="cls-14" d="M98.44,108.11c-.48,0-.95-.09-1.38-.26v-.7h2.77v.69c-.43,.18-.9,.27-1.39,.27Z"/>
      <path class="cls-14" d="M99.83,112.8h-2.77v-.69c.43-.17,.9-.26,1.38-.26s.96,.09,1.39,.27v.68Z"/>
    </g>
    <g>
      <path class="cls-2" d="M110.88,108.32c-.48,0-.95,.09-1.38,.26v-4.26c.43,.17,.9,.26,1.38,.26s.96-.09,1.39-.27v4.28c-.43-.18-.9-.27-1.39-.27Z"/>
      <path class="cls-3" d="M110.88,108.32c-.48,0-.95,.09-1.38,.26v-4.26c.43,.17,.9,.26,1.38,.26s.96-.09,1.39-.27v4.28c-.43-.18-.9-.27-1.39-.27Z"/>
      <path class="cls-19" d="M110.88,108.32c-.48,0-.95,.09-1.38,.26v-4.26c.43,.17,.9,.26,1.38,.26s.96-.09,1.39-.27v4.28c-.43-.18-.9-.27-1.39-.27Z"/>
      <path class="cls-14" d="M110.88,104.58c-.48,0-.95-.09-1.38-.26v-.7h2.77v.69c-.43,.18-.9,.27-1.39,.27Z"/>
      <path class="cls-14" d="M112.27,109.27h-2.77v-.69c.43-.17,.9-.26,1.38-.26s.96,.09,1.39,.27v.68Z"/>
    </g>
    <g>
      <path class="cls-2" d="M62.48,115.32c-.48,0-.95,.09-1.38,.26v-4.26c.43,.17,.9,.26,1.38,.26s.96-.09,1.39-.27v4.28c-.43-.18-.9-.27-1.39-.27Z"/>
      <path class="cls-3" d="M62.48,115.32c-.48,0-.95,.09-1.38,.26v-4.26c.43,.17,.9,.26,1.38,.26s.96-.09,1.39-.27v4.28c-.43-.18-.9-.27-1.39-.27Z"/>
      <path class="cls-19" d="M62.48,115.32c-.48,0-.95,.09-1.38,.26v-4.26c.43,.17,.9,.26,1.38,.26s.96-.09,1.39-.27v4.28c-.43-.18-.9-.27-1.39-.27Z"/>
      <path class="cls-14" d="M62.48,111.58c-.48,0-.95-.09-1.38-.26v-.7h2.77v.69c-.43,.18-.9,.27-1.39,.27Z"/>
      <path class="cls-14" d="M63.87,116.27h-2.77v-.69c.43-.17,.9-.26,1.38-.26s.96,.09,1.39,.27v.68Z"/>
    </g>
    <g>
      <path class="cls-2" d="M79.42,124.77c0-.48-.09-.95-.26-1.38h4.26c-.17,.43-.26,.9-.26,1.38s.09,.96,.27,1.39h-4.28c.18-.43,.27-.9,.27-1.39Z"/>
      <path class="cls-3" d="M79.42,124.77c0-.48-.09-.95-.26-1.38h4.26c-.17,.43-.26,.9-.26,1.38s.09,.96,.27,1.39h-4.28c.18-.43,.27-.9,.27-1.39Z"/>
      <path class="cls-19" d="M79.42,124.77c0-.48-.09-.95-.26-1.38h4.26c-.17,.43-.26,.9-.26,1.38s.09,.96,.27,1.39h-4.28c.18-.43,.27-.9,.27-1.39Z"/>
      <path class="cls-14" d="M83.15,124.77c0-.48,.09-.95,.26-1.38h.7v2.77h-.69c-.18-.43-.27-.9-.27-1.39Z"/>
      <path class="cls-14" d="M78.47,126.16v-2.77h.69c.17,.43,.26,.9,.26,1.38s-.09,.96-.27,1.39h-.68Z"/>
    </g>
    <g>
      <path class="cls-2" d="M27.69,99.03c0-.48-.09-.95-.26-1.38h4.26c-.17,.43-.26,.9-.26,1.38s.09,.96,.27,1.39h-4.28c.18-.43,.27-.9,.27-1.39Z"/>
      <path class="cls-3" d="M27.69,99.03c0-.48-.09-.95-.26-1.38h4.26c-.17,.43-.26,.9-.26,1.38s.09,.96,.27,1.39h-4.28c.18-.43,.27-.9,.27-1.39Z"/>
      <path class="cls-19" d="M27.69,99.03c0-.48-.09-.95-.26-1.38h4.26c-.17,.43-.26,.9-.26,1.38s.09,.96,.27,1.39h-4.28c.18-.43,.27-.9,.27-1.39Z"/>
      <path class="cls-14" d="M31.43,99.03c0-.48,.09-.95,.26-1.38h.7v2.77h-.69c-.18-.43-.27-.9-.27-1.39Z"/>
      <path class="cls-14" d="M26.74,100.42v-2.77h.69c.17,.43,.26,.9,.26,1.38s-.09,.96-.27,1.39h-.68Z"/>
    </g>
    <g>
      <path class="cls-2" d="M35.8,48.22c0-.48-.09-.95-.26-1.38h4.26c-.17,.43-.26,.9-.26,1.38s.09,.96,.27,1.39h-4.28c.18-.43,.27-.9,.27-1.39Z"/>
      <path class="cls-3" d="M35.8,48.22c0-.48-.09-.95-.26-1.38h4.26c-.17,.43-.26,.9-.26,1.38s.09,.96,.27,1.39h-4.28c.18-.43,.27-.9,.27-1.39Z"/>
      <path class="cls-19" d="M35.8,48.22c0-.48-.09-.95-.26-1.38h4.26c-.17,.43-.26,.9-.26,1.38s.09,.96,.27,1.39h-4.28c.18-.43,.27-.9,.27-1.39Z"/>
      <path class="cls-14" d="M39.54,48.22c0-.48,.09-.95,.26-1.38h.7v2.77h-.69c-.18-.43-.27-.9-.27-1.39Z"/>
      <path class="cls-14" d="M34.85,49.61v-2.77h.69c.17,.43,.26,.9,.26,1.38s-.09,.96-.27,1.39h-.68Z"/>
    </g>
    <g>
      <path class="cls-2" d="M37.03,15.41c0-.48-.09-.95-.26-1.38h4.26c-.17,.43-.26,.9-.26,1.38s.09,.96,.27,1.39h-4.28c.18-.43,.27-.9,.27-1.39Z"/>
      <path class="cls-3" d="M37.03,15.41c0-.48-.09-.95-.26-1.38h4.26c-.17,.43-.26,.9-.26,1.38s.09,.96,.27,1.39h-4.28c.18-.43,.27-.9,.27-1.39Z"/>
      <path class="cls-19" d="M37.03,15.41c0-.48-.09-.95-.26-1.38h4.26c-.17,.43-.26,.9-.26,1.38s.09,.96,.27,1.39h-4.28c.18-.43,.27-.9,.27-1.39Z"/>
      <path class="cls-14" d="M40.77,15.41c0-.48,.09-.95,.26-1.38h.7v2.77h-.69c-.18-.43-.27-.9-.27-1.39Z"/>
      <path class="cls-14" d="M36.08,16.8v-2.77h.69c.17,.43,.26,.9,.26,1.38s-.09,.96-.27,1.39h-.68Z"/>
    </g>
    <g>
      <path class="cls-2" d="M89.7,32.21c0-.48-.09-.95-.26-1.38h4.26c-.17,.43-.26,.9-.26,1.38s.09,.96,.27,1.39h-4.28c.18-.43,.27-.9,.27-1.39Z"/>
      <path class="cls-3" d="M89.7,32.21c0-.48-.09-.95-.26-1.38h4.26c-.17,.43-.26,.9-.26,1.38s.09,.96,.27,1.39h-4.28c.18-.43,.27-.9,.27-1.39Z"/>
      <path class="cls-19" d="M89.7,32.21c0-.48-.09-.95-.26-1.38h4.26c-.17,.43-.26,.9-.26,1.38s.09,.96,.27,1.39h-4.28c.18-.43,.27-.9,.27-1.39Z"/>
      <path class="cls-14" d="M93.44,32.21c0-.48,.09-.95,.26-1.38h.7v2.77h-.69c-.18-.43-.27-.9-.27-1.39Z"/>
      <path class="cls-14" d="M88.75,33.6v-2.77h.69c.17,.43,.26,.9,.26,1.38s-.09,.96-.27,1.39h-.68Z"/>
    </g>
    <g>
      <path class="cls-2" d="M97.01,32.21c0-.48-.09-.95-.26-1.38h4.26c-.17,.43-.26,.9-.26,1.38s.09,.96,.27,1.39h-4.28c.18-.43,.27-.9,.27-1.39Z"/>
      <path class="cls-3" d="M97.01,32.21c0-.48-.09-.95-.26-1.38h4.26c-.17,.43-.26,.9-.26,1.38s.09,.96,.27,1.39h-4.28c.18-.43,.27-.9,.27-1.39Z"/>
      <path class="cls-19" d="M97.01,32.21c0-.48-.09-.95-.26-1.38h4.26c-.17,.43-.26,.9-.26,1.38s.09,.96,.27,1.39h-4.28c.18-.43,.27-.9,.27-1.39Z"/>
      <path class="cls-14" d="M100.75,32.21c0-.48,.09-.95,.26-1.38h.7v2.77h-.69c-.18-.43-.27-.9-.27-1.39Z"/>
      <path class="cls-14" d="M96.06,33.6v-2.77h.69c.17,.43,.26,.9,.26,1.38s-.09,.96-.27,1.39h-.68Z"/>
    </g>
    <g>
      <path class="cls-2" d="M135.07,102.15c0-.48-.09-.95-.26-1.38h4.26c-.17,.43-.26,.9-.26,1.38s.09,.96,.27,1.39h-4.28c.18-.43,.27-.9,.27-1.39Z"/>
      <path class="cls-3" d="M135.07,102.15c0-.48-.09-.95-.26-1.38h4.26c-.17,.43-.26,.9-.26,1.38s.09,.96,.27,1.39h-4.28c.18-.43,.27-.9,.27-1.39Z"/>
      <path class="cls-19" d="M135.07,102.15c0-.48-.09-.95-.26-1.38h4.26c-.17,.43-.26,.9-.26,1.38s.09,.96,.27,1.39h-4.28c.18-.43,.27-.9,.27-1.39Z"/>
      <path class="cls-14" d="M138.81,102.15c0-.48,.09-.95,.26-1.38h.7v2.77h-.69c-.18-.43-.27-.9-.27-1.39Z"/>
      <path class="cls-14" d="M134.12,103.55v-2.77h.69c.17,.43,.26,.9,.26,1.38s-.09,.96-.27,1.39h-.68Z"/>
    </g>
    <g>
      <path class="cls-2" d="M134.38,95.22c0-.48-.09-.95-.26-1.38h4.26c-.17,.43-.26,.9-.26,1.38s.09,.96,.27,1.39h-4.28c.18-.43,.27-.9,.27-1.39Z"/>
      <path class="cls-3" d="M134.38,95.22c0-.48-.09-.95-.26-1.38h4.26c-.17,.43-.26,.9-.26,1.38s.09,.96,.27,1.39h-4.28c.18-.43,.27-.9,.27-1.39Z"/>
      <path class="cls-19" d="M134.38,95.22c0-.48-.09-.95-.26-1.38h4.26c-.17,.43-.26,.9-.26,1.38s.09,.96,.27,1.39h-4.28c.18-.43,.27-.9,.27-1.39Z"/>
      <path class="cls-14" d="M138.12,95.22c0-.48,.09-.95,.26-1.38h.7v2.77h-.69c-.18-.43-.27-.9-.27-1.39Z"/>
      <path class="cls-14" d="M133.43,96.62v-2.77h.69c.17,.43,.26,.9,.26,1.38s-.09,.96-.27,1.39h-.68Z"/>
    </g>
    <g>
      <path class="cls-2" d="M109.43,88.85c0-.33-.06-.64-.18-.94h2.89c-.11,.29-.18,.61-.18,.94s.06,.65,.19,.94h-2.91c.12-.29,.19-.61,.19-.94Z"/>
      <path class="cls-3" d="M109.43,88.85c0-.33-.06-.64-.18-.94h2.89c-.11,.29-.18,.61-.18,.94s.06,.65,.19,.94h-2.91c.12-.29,.19-.61,.19-.94Z"/>
      <path class="cls-19" d="M109.43,88.85c0-.33-.06-.64-.18-.94h2.89c-.11,.29-.18,.61-.18,.94s.06,.65,.19,.94h-2.91c.12-.29,.19-.61,.19-.94Z"/>
      <path class="cls-14" d="M111.97,88.85c0-.33,.06-.64,.18-.94h.48v1.88h-.47c-.12-.29-.19-.61-.19-.94Z"/>
      <path class="cls-14" d="M108.79,89.79v-1.88h.47c.11,.29,.18,.61,.18,.94s-.06,.65-.19,.94h-.46Z"/>
    </g>
    <g>
      <path class="cls-2" d="M37.38,52.39c0-.33-.06-.64-.18-.94h2.89c-.11,.29-.18,.61-.18,.94s.06,.65,.19,.94h-2.91c.12-.29,.19-.61,.19-.94Z"/>
      <path class="cls-3" d="M37.38,52.39c0-.33-.06-.64-.18-.94h2.89c-.11,.29-.18,.61-.18,.94s.06,.65,.19,.94h-2.91c.12-.29,.19-.61,.19-.94Z"/>
      <path class="cls-19" d="M37.38,52.39c0-.33-.06-.64-.18-.94h2.89c-.11,.29-.18,.61-.18,.94s.06,.65,.19,.94h-2.91c.12-.29,.19-.61,.19-.94Z"/>
      <path class="cls-14" d="M39.92,52.39c0-.33,.06-.64,.18-.94h.48v1.88h-.47c-.12-.29-.19-.61-.19-.94Z"/>
      <path class="cls-14" d="M36.74,53.34v-1.88h.47c.11,.29,.18,.61,.18,.94s-.06,.65-.19,.94h-.46Z"/>
    </g>
    <g>
      <path class="cls-2" d="M103.28,77.87c.33,0,.64-.06,.94-.18v2.89c-.29-.11-.61-.18-.94-.18s-.65,.06-.94,.19v-2.91c.29,.12,.61,.19,.94,.19Z"/>
      <path class="cls-3" d="M103.28,77.87c.33,0,.64-.06,.94-.18v2.89c-.29-.11-.61-.18-.94-.18s-.65,.06-.94,.19v-2.91c.29,.12,.61,.19,.94,.19Z"/>
      <path class="cls-19" d="M103.28,77.87c.33,0,.64-.06,.94-.18v2.89c-.29-.11-.61-.18-.94-.18s-.65,.06-.94,.19v-2.91c.29,.12,.61,.19,.94,.19Z"/>
      <path class="cls-14" d="M103.28,80.41c.33,0,.64,.06,.94,.18v.48s-1.88,0-1.88,0v-.47c.29-.12,.61-.19,.94-.19Z"/>
      <path class="cls-14" d="M102.33,77.23h1.88s0,.47,0,.47c-.29,.11-.61,.18-.94,.18s-.65-.06-.94-.19v-.46Z"/>
    </g>
    <g>
      <path class="cls-2" d="M66.84,23.49c.33,0,.64-.06,.94-.18v2.89c-.29-.11-.61-.18-.94-.18s-.65,.06-.94,.19v-2.91c.29,.12,.61,.19,.94,.19Z"/>
      <path class="cls-3" d="M66.84,23.49c.33,0,.64-.06,.94-.18v2.89c-.29-.11-.61-.18-.94-.18s-.65,.06-.94,.19v-2.91c.29,.12,.61,.19,.94,.19Z"/>
      <path class="cls-19" d="M66.84,23.49c.33,0,.64-.06,.94-.18v2.89c-.29-.11-.61-.18-.94-.18s-.65,.06-.94,.19v-2.91c.29,.12,.61,.19,.94,.19Z"/>
      <path class="cls-14" d="M66.84,26.02c.33,0,.64,.06,.94,.18v.48s-1.88,0-1.88,0v-.47c.29-.12,.61-.19,.94-.19Z"/>
      <path class="cls-14" d="M65.89,22.84h1.88s0,.47,0,.47c-.29,.11-.61,.18-.94,.18s-.65-.06-.94-.19v-.46Z"/>
    </g>
    <g>
      <path class="cls-2" d="M34.53,29.07c.33,0,.64-.06,.94-.18v2.89c-.29-.11-.61-.18-.94-.18s-.65,.06-.94,.19v-2.91c.29,.12,.61,.19,.94,.19Z"/>
      <path class="cls-3" d="M34.53,29.07c.33,0,.64-.06,.94-.18v2.89c-.29-.11-.61-.18-.94-.18s-.65,.06-.94,.19v-2.91c.29,.12,.61,.19,.94,.19Z"/>
      <path class="cls-19" d="M34.53,29.07c.33,0,.64-.06,.94-.18v2.89c-.29-.11-.61-.18-.94-.18s-.65,.06-.94,.19v-2.91c.29,.12,.61,.19,.94,.19Z"/>
      <path class="cls-14" d="M34.53,31.61c.33,0,.64,.06,.94,.18v.48s-1.88,0-1.88,0v-.47c.29-.12,.61-.19,.94-.19Z"/>
      <path class="cls-14" d="M33.59,28.43h1.88s0,.47,0,.47c-.29,.11-.61,.18-.94,.18s-.65-.06-.94-.19v-.46Z"/>
    </g>
    <g>
      <path class="cls-2" d="M37.23,29.07c.33,0,.64-.06,.94-.18v2.89c-.29-.11-.61-.18-.94-.18s-.65,.06-.94,.19v-2.91c.29,.12,.61,.19,.94,.19Z"/>
      <path class="cls-3" d="M37.23,29.07c.33,0,.64-.06,.94-.18v2.89c-.29-.11-.61-.18-.94-.18s-.65,.06-.94,.19v-2.91c.29,.12,.61,.19,.94,.19Z"/>
      <path class="cls-19" d="M37.23,29.07c.33,0,.64-.06,.94-.18v2.89c-.29-.11-.61-.18-.94-.18s-.65,.06-.94,.19v-2.91c.29,.12,.61,.19,.94,.19Z"/>
      <path class="cls-14" d="M37.23,31.61c.33,0,.64,.06,.94,.18v.48s-1.88,0-1.88,0v-.47c.29-.12,.61-.19,.94-.19Z"/>
      <path class="cls-14" d="M36.29,28.43h1.88s0,.47,0,.47c-.29,.11-.61,.18-.94,.18s-.65-.06-.94-.19v-.46Z"/>
    </g>
    <g>
      <path class="cls-2" d="M82.67,110.19c.33,0,.64-.06,.94-.18v2.89c-.29-.11-.61-.18-.94-.18s-.65,.06-.94,.19v-2.91c.29,.12,.61,.19,.94,.19Z"/>
      <path class="cls-3" d="M82.67,110.19c.33,0,.64-.06,.94-.18v2.89c-.29-.11-.61-.18-.94-.18s-.65,.06-.94,.19v-2.91c.29,.12,.61,.19,.94,.19Z"/>
      <path class="cls-19" d="M82.67,110.19c.33,0,.64-.06,.94-.18v2.89c-.29-.11-.61-.18-.94-.18s-.65,.06-.94,.19v-2.91c.29,.12,.61,.19,.94,.19Z"/>
      <path class="cls-14" d="M82.67,112.72c.33,0,.64,.06,.94,.18v.48s-1.88,0-1.88,0v-.47c.29-.12,.61-.19,.94-.19Z"/>
      <path class="cls-14" d="M81.72,109.54h1.88s0,.47,0,.47c-.29,.11-.61,.18-.94,.18s-.65-.06-.94-.19v-.46Z"/>
    </g>
    <g>
      <path class="cls-2" d="M75.72,110.19c.33,0,.64-.06,.94-.18v2.89c-.29-.11-.61-.18-.94-.18s-.65,.06-.94,.19v-2.91c.29,.12,.61,.19,.94,.19Z"/>
      <path class="cls-3" d="M75.72,110.19c.33,0,.64-.06,.94-.18v2.89c-.29-.11-.61-.18-.94-.18s-.65,.06-.94,.19v-2.91c.29,.12,.61,.19,.94,.19Z"/>
      <path class="cls-19" d="M75.72,110.19c.33,0,.64-.06,.94-.18v2.89c-.29-.11-.61-.18-.94-.18s-.65,.06-.94,.19v-2.91c.29,.12,.61,.19,.94,.19Z"/>
      <path class="cls-14" d="M75.72,112.72c.33,0,.64,.06,.94,.18v.48s-1.88,0-1.88,0v-.47c.29-.12,.61-.19,.94-.19Z"/>
      <path class="cls-14" d="M74.78,109.54h1.88s0,.47,0,.47c-.29,.11-.61,.18-.94,.18s-.65-.06-.94-.19v-.46Z"/>
    </g>
    <g>
      <path class="cls-2" d="M57.4,102.49c.33,0,.64-.06,.94-.18v2.89c-.29-.11-.61-.18-.94-.18s-.65,.06-.94,.19v-2.91c.29,.12,.61,.19,.94,.19Z"/>
      <path class="cls-3" d="M57.4,102.49c.33,0,.64-.06,.94-.18v2.89c-.29-.11-.61-.18-.94-.18s-.65,.06-.94,.19v-2.91c.29,.12,.61,.19,.94,.19Z"/>
      <path class="cls-19" d="M57.4,102.49c.33,0,.64-.06,.94-.18v2.89c-.29-.11-.61-.18-.94-.18s-.65,.06-.94,.19v-2.91c.29,.12,.61,.19,.94,.19Z"/>
      <path class="cls-14" d="M57.4,105.02c.33,0,.64,.06,.94,.18v.48s-1.88,0-1.88,0v-.47c.29-.12,.61-.19,.94-.19Z"/>
      <path class="cls-14" d="M56.45,101.84h1.88s0,.47,0,.47c-.29,.11-.61,.18-.94,.18s-.65-.06-.94-.19v-.46Z"/>
    </g>
    <g>
      <path class="cls-13" d="M54.79,102.49c.33,0,.64-.06,.94-.18v2.89c-.29-.11-.61-.18-.94-.18s-.65,.06-.94,.19v-2.91c.29,.12,.61,.19,.94,.19Z"/>
      <path class="cls-14" d="M54.79,105.02c.33,0,.64,.06,.94,.18v.48s-1.88,0-1.88,0v-.47c.29-.12,.61-.19,.94-.19Z"/>
      <path class="cls-14" d="M53.84,101.84h1.88s0,.47,0,.47c-.29,.11-.61,.18-.94,.18s-.65-.06-.94-.19v-.46Z"/>
    </g>
    <g>
      <path class="cls-2" d="M142.04,102.63c.33,0,.64-.06,.94-.18v2.89c-.29-.11-.61-.18-.94-.18s-.65,.06-.94,.19v-2.91c.29,.12,.61,.19,.94,.19Z"/>
      <path class="cls-3" d="M142.04,102.63c.33,0,.64-.06,.94-.18v2.89c-.29-.11-.61-.18-.94-.18s-.65,.06-.94,.19v-2.91c.29,.12,.61,.19,.94,.19Z"/>
      <path class="cls-19" d="M142.04,102.63c.33,0,.64-.06,.94-.18v2.89c-.29-.11-.61-.18-.94-.18s-.65,.06-.94,.19v-2.91c.29,.12,.61,.19,.94,.19Z"/>
      <path class="cls-14" d="M142.04,105.17c.33,0,.64,.06,.94,.18v.48s-1.88,0-1.88,0v-.47c.29-.12,.61-.19,.94-.19Z"/>
      <path class="cls-14" d="M141.1,101.99h1.88s0,.47,0,.47c-.29,.11-.61,.18-.94,.18s-.65-.06-.94-.19v-.46Z"/>
    </g>
    <g>
      <path class="cls-2" d="M142.04,115.43c.33,0,.64-.06,.94-.18v2.89c-.29-.11-.61-.18-.94-.18s-.65,.06-.94,.19v-2.91c.29,.12,.61,.19,.94,.19Z"/>
      <path class="cls-3" d="M142.04,115.43c.33,0,.64-.06,.94-.18v2.89c-.29-.11-.61-.18-.94-.18s-.65,.06-.94,.19v-2.91c.29,.12,.61,.19,.94,.19Z"/>
      <path class="cls-19" d="M142.04,115.43c.33,0,.64-.06,.94-.18v2.89c-.29-.11-.61-.18-.94-.18s-.65,.06-.94,.19v-2.91c.29,.12,.61,.19,.94,.19Z"/>
      <path class="cls-14" d="M142.04,117.97c.33,0,.64,.06,.94,.18v.48s-1.88,0-1.88,0v-.47c.29-.12,.61-.19,.94-.19Z"/>
      <path class="cls-14" d="M141.1,114.79h1.88s0,.47,0,.47c-.29,.11-.61,.18-.94,.18s-.65-.06-.94-.19v-.46Z"/>
    </g>
    <g>
      <path class="cls-2" d="M135.18,115.5c0,.33,.06,.64,.18,.94h-2.89c.11-.29,.18-.61,.18-.94s-.06-.65-.19-.94h2.91c-.12,.29-.19,.61-.19,.94Z"/>
      <path class="cls-3" d="M135.18,115.5c0,.33,.06,.64,.18,.94h-2.89c.11-.29,.18-.61,.18-.94s-.06-.65-.19-.94h2.91c-.12,.29-.19,.61-.19,.94Z"/>
      <path class="cls-19" d="M135.18,115.5c0,.33,.06,.64,.18,.94h-2.89c.11-.29,.18-.61,.18-.94s-.06-.65-.19-.94h2.91c-.12,.29-.19,.61-.19,.94Z"/>
      <path class="cls-14" d="M132.64,115.5c0,.33-.06,.64-.18,.94h-.48s0-1.88,0-1.88h.47c.12,.29,.19,.61,.19,.94Z"/>
      <path class="cls-14" d="M135.82,114.56v1.88s-.47,0-.47,0c-.11-.29-.18-.61-.18-.94s.06-.65,.19-.94h.46Z"/>
    </g>
    <g>
      <path class="cls-2" d="M88.04,108.11c0,.33,.06,.64,.18,.94h-2.89c.11-.29,.18-.61,.18-.94s-.06-.65-.19-.94h2.91c-.12,.29-.19,.61-.19,.94Z"/>
      <path class="cls-3" d="M88.04,108.11c0,.33,.06,.64,.18,.94h-2.89c.11-.29,.18-.61,.18-.94s-.06-.65-.19-.94h2.91c-.12,.29-.19,.61-.19,.94Z"/>
      <path class="cls-19" d="M88.04,108.11c0,.33,.06,.64,.18,.94h-2.89c.11-.29,.18-.61,.18-.94s-.06-.65-.19-.94h2.91c-.12,.29-.19,.61-.19,.94Z"/>
      <path class="cls-14" d="M85.5,108.11c0,.33-.06,.64-.18,.94h-.48s0-1.88,0-1.88h.47c.12,.29,.19,.61,.19,.94Z"/>
      <path class="cls-14" d="M88.68,107.17v1.88s-.47,0-.47,0c-.11-.29-.18-.61-.18-.94s.06-.65,.19-.94h.46Z"/>
    </g>
    <g>
      <path class="cls-2" d="M33.04,18.64c-.23,.23-.41,.5-.54,.79l-2.04-2.04c.29-.12,.56-.31,.79-.54s.42-.51,.54-.8l2.05,2.05c-.29,.12-.56,.3-.8,.54Z"/>
      <path class="cls-3" d="M33.04,18.64c-.23,.23-.41,.5-.54,.79l-2.04-2.04c.29-.12,.56-.31,.79-.54s.42-.51,.54-.8l2.05,2.05c-.29,.12-.56,.3-.8,.54Z"/>
      <path class="cls-19" d="M33.04,18.64c-.23,.23-.41,.5-.54,.79l-2.04-2.04c.29-.12,.56-.31,.79-.54s.42-.51,.54-.8l2.05,2.05c-.29,.12-.56,.3-.8,.54Z"/>
      <path class="cls-14" d="M31.24,16.85c-.23,.23-.5,.41-.79,.54l-.34-.34,1.33-1.33,.33,.33c-.12,.29-.3,.56-.54,.8Z"/>
      <path class="cls-14" d="M34.16,18.43l-1.33,1.33-.33-.33c.12-.29,.31-.56,.54-.79s.51-.42,.8-.54l.32,.32Z"/>
    </g>
    <g>
      <path class="cls-2" d="M42.99,126.59c0,.33,.06,.64,.18,.94h-2.89c.11-.29,.18-.61,.18-.94s-.06-.65-.19-.94h2.91c-.12,.29-.19,.61-.19,.94Z"/>
      <path class="cls-3" d="M42.99,126.59c0,.33,.06,.64,.18,.94h-2.89c.11-.29,.18-.61,.18-.94s-.06-.65-.19-.94h2.91c-.12,.29-.19,.61-.19,.94Z"/>
      <path class="cls-19" d="M42.99,126.59c0,.33,.06,.64,.18,.94h-2.89c.11-.29,.18-.61,.18-.94s-.06-.65-.19-.94h2.91c-.12,.29-.19,.61-.19,.94Z"/>
      <path class="cls-14" d="M40.45,126.59c0,.33-.06,.64-.18,.94h-.48s0-1.88,0-1.88h.47c.12,.29,.19,.61,.19,.94Z"/>
      <path class="cls-14" d="M43.63,125.64v1.88s-.47,0-.47,0c-.11-.29-.18-.61-.18-.94s.06-.65,.19-.94h.46Z"/>
    </g>
    <g>
      <path class="cls-2" d="M42.99,129.41c0,.33,.06,.64,.18,.94h-2.89c.11-.29,.18-.61,.18-.94s-.06-.65-.19-.94h2.91c-.12,.29-.19,.61-.19,.94Z"/>
      <path class="cls-3" d="M42.99,129.41c0,.33,.06,.64,.18,.94h-2.89c.11-.29,.18-.61,.18-.94s-.06-.65-.19-.94h2.91c-.12,.29-.19,.61-.19,.94Z"/>
      <path class="cls-19" d="M42.99,129.41c0,.33,.06,.64,.18,.94h-2.89c.11-.29,.18-.61,.18-.94s-.06-.65-.19-.94h2.91c-.12,.29-.19,.61-.19,.94Z"/>
      <path class="cls-14" d="M40.45,129.41c0,.33-.06,.64-.18,.94h-.48s0-1.88,0-1.88h.47c.12,.29,.19,.61,.19,.94Z"/>
      <path class="cls-14" d="M43.63,128.46v1.88s-.47,0-.47,0c-.11-.29-.18-.61-.18-.94s.06-.65,.19-.94h.46Z"/>
    </g>
    <g>
      <path class="cls-2" d="M42.99,132.27c0,.33,.06,.64,.18,.94h-2.89c.11-.29,.18-.61,.18-.94s-.06-.65-.19-.94h2.91c-.12,.29-.19,.61-.19,.94Z"/>
      <path class="cls-3" d="M42.99,132.27c0,.33,.06,.64,.18,.94h-2.89c.11-.29,.18-.61,.18-.94s-.06-.65-.19-.94h2.91c-.12,.29-.19,.61-.19,.94Z"/>
      <path class="cls-19" d="M42.99,132.27c0,.33,.06,.64,.18,.94h-2.89c.11-.29,.18-.61,.18-.94s-.06-.65-.19-.94h2.91c-.12,.29-.19,.61-.19,.94Z"/>
      <path class="cls-14" d="M40.45,132.27c0,.33-.06,.64-.18,.94h-.48s0-1.88,0-1.88h.47c.12,.29,.19,.61,.19,.94Z"/>
      <path class="cls-14" d="M43.63,131.32v1.88s-.47,0-.47,0c-.11-.29-.18-.61-.18-.94s.06-.65,.19-.94h.46Z"/>
    </g>
    <g>
      <path class="cls-2" d="M42.99,135.13c0,.33,.06,.64,.18,.94h-2.89c.11-.29,.18-.61,.18-.94s-.06-.65-.19-.94h2.91c-.12,.29-.19,.61-.19,.94Z"/>
      <path class="cls-3" d="M42.99,135.13c0,.33,.06,.64,.18,.94h-2.89c.11-.29,.18-.61,.18-.94s-.06-.65-.19-.94h2.91c-.12,.29-.19,.61-.19,.94Z"/>
      <path class="cls-19" d="M42.99,135.13c0,.33,.06,.64,.18,.94h-2.89c.11-.29,.18-.61,.18-.94s-.06-.65-.19-.94h2.91c-.12,.29-.19,.61-.19,.94Z"/>
      <path class="cls-14" d="M40.45,135.13c0,.33-.06,.64-.18,.94h-.48s0-1.88,0-1.88h.47c.12,.29,.19,.61,.19,.94Z"/>
      <path class="cls-14" d="M43.63,134.19v1.88s-.47,0-.47,0c-.11-.29-.18-.61-.18-.94s.06-.65,.19-.94h.46Z"/>
    </g>
    <g>
      <path class="cls-2" d="M196.81,101.19c0,.33,.06,.64,.18,.94h-2.89c.11-.29,.18-.61,.18-.94s-.06-.65-.19-.94h2.91c-.12,.29-.19,.61-.19,.94Z"/>
      <path class="cls-3" d="M196.81,101.19c0,.33,.06,.64,.18,.94h-2.89c.11-.29,.18-.61,.18-.94s-.06-.65-.19-.94h2.91c-.12,.29-.19,.61-.19,.94Z"/>
      <path class="cls-19" d="M196.81,101.19c0,.33,.06,.64,.18,.94h-2.89c.11-.29,.18-.61,.18-.94s-.06-.65-.19-.94h2.91c-.12,.29-.19,.61-.19,.94Z"/>
      <path class="cls-14" d="M194.28,101.19c0,.33-.06,.64-.18,.94h-.48s0-1.88,0-1.88h.47c.12,.29,.19,.61,.19,.94Z"/>
      <path class="cls-14" d="M197.46,100.24v1.88s-.47,0-.47,0c-.11-.29-.18-.61-.18-.94s.06-.65,.19-.94h.46Z"/>
    </g>
    <g>
      <path class="cls-2" d="M120.77,42.76c.33,0,.64-.06,.94-.18v2.89c-.29-.11-.61-.18-.94-.18s-.65,.06-.94,.19v-2.91c.29,.12,.61,.19,.94,.19Z"/>
      <path class="cls-3" d="M120.77,42.76c.33,0,.64-.06,.94-.18v2.89c-.29-.11-.61-.18-.94-.18s-.65,.06-.94,.19v-2.91c.29,.12,.61,.19,.94,.19Z"/>
      <path class="cls-19" d="M120.77,42.76c.33,0,.64-.06,.94-.18v2.89c-.29-.11-.61-.18-.94-.18s-.65,.06-.94,.19v-2.91c.29,.12,.61,.19,.94,.19Z"/>
      <path class="cls-14" d="M120.77,45.3c.33,0,.64,.06,.94,.18v.48s-1.88,0-1.88,0v-.47c.29-.12,.61-.19,.94-.19Z"/>
      <path class="cls-14" d="M119.82,42.12h1.88s0,.47,0,.47c-.29,.11-.61,.18-.94,.18s-.65-.06-.94-.19v-.46Z"/>
    </g>
    <g>
      <path class="cls-9" d="M103.28,72.94c.33,0,.64-.06,.94-.18v2.89c-.29-.11-.61-.18-.94-.18s-.65,.06-.94,.19v-2.91c.29,.12,.61,.19,.94,.19Z"/>
      <path class="cls-14" d="M103.28,75.47c.33,0,.64,.06,.94,.18v.48s-1.88,0-1.88,0v-.47c.29-.12,.61-.19,.94-.19Z"/>
      <path class="cls-14" d="M102.33,72.29h1.88s0,.47,0,.47c-.29,.11-.61,.18-.94,.18s-.65-.06-.94-.19v-.46Z"/>
    </g>
    <g>
      <path class="cls-9" d="M103.28,68c.33,0,.64-.06,.94-.18v2.89c-.29-.11-.61-.18-.94-.18s-.65,.06-.94,.19v-2.91c.29,.12,.61,.19,.94,.19Z"/>
      <path class="cls-14" d="M103.28,70.54c.33,0,.64,.06,.94,.18v.48s-1.88,0-1.88,0v-.47c.29-.12,.61-.19,.94-.19Z"/>
      <path class="cls-14" d="M102.33,67.36h1.88s0,.47,0,.47c-.29,.11-.61,.18-.94,.18s-.65-.06-.94-.19v-.46Z"/>
    </g>
    <g>
      <path class="cls-9" d="M130.92,87.87c.33,0,.64-.06,.94-.18v2.89c-.29-.11-.61-.18-.94-.18s-.65,.06-.94,.19v-2.91c.29,.12,.61,.19,.94,.19Z"/>
      <path class="cls-14" d="M130.92,90.4c.33,0,.64,.06,.94,.18v.48s-1.88,0-1.88,0v-.47c.29-.12,.61-.19,.94-.19Z"/>
      <path class="cls-14" d="M129.97,87.22h1.88s0,.47,0,.47c-.29,.11-.61,.18-.94,.18s-.65-.06-.94-.19v-.46Z"/>
    </g>
    <g>
      <path class="cls-9" d="M145.49,83.85c.33,0,.64-.06,.94-.18v2.89c-.29-.11-.61-.18-.94-.18s-.65,.06-.94,.19v-2.91c.29,.12,.61,.19,.94,.19Z"/>
      <path class="cls-14" d="M145.49,86.39c.33,0,.64,.06,.94,.18v.48s-1.88,0-1.88,0v-.47c.29-.12,.61-.19,.94-.19Z"/>
      <path class="cls-14" d="M144.55,83.21h1.88s0,.47,0,.47c-.29,.11-.61,.18-.94,.18s-.65-.06-.94-.19v-.46Z"/>
    </g>
    <g>
      <path class="cls-9" d="M142.04,109.3c.33,0,.64-.06,.94-.18v2.89c-.29-.11-.61-.18-.94-.18s-.65,.06-.94,.19v-2.91c.29,.12,.61,.19,.94,.19Z"/>
      <path class="cls-14" d="M142.04,111.83c.33,0,.64,.06,.94,.18v.48s-1.88,0-1.88,0v-.47c.29-.12,.61-.19,.94-.19Z"/>
      <path class="cls-14" d="M141.1,108.65h1.88s0,.47,0,.47c-.29,.11-.61,.18-.94,.18s-.65-.06-.94-.19v-.46Z"/>
    </g>
    <g>
      <path class="cls-9" d="M128.5,109.12c.33,0,.64-.06,.94-.18v2.89c-.29-.11-.61-.18-.94-.18s-.65,.06-.94,.19v-2.91c.29,.12,.61,.19,.94,.19Z"/>
      <path class="cls-14" d="M128.5,111.66c.33,0,.64,.06,.94,.18v.48s-1.88,0-1.88,0v-.47c.29-.12,.61-.19,.94-.19Z"/>
      <path class="cls-14" d="M127.55,108.48h1.88s0,.47,0,.47c-.29,.11-.61,.18-.94,.18s-.65-.06-.94-.19v-.46Z"/>
    </g>
    <g>
      <path class="cls-9" d="M130.89,100.01c.33,0,.64-.06,.94-.18v2.89c-.29-.11-.61-.18-.94-.18s-.65,.06-.94,.19v-2.91c.29,.12,.61,.19,.94,.19Z"/>
      <path class="cls-14" d="M130.89,102.55c.33,0,.64,.06,.94,.18v.48s-1.88,0-1.88,0v-.47c.29-.12,.61-.19,.94-.19Z"/>
      <path class="cls-14" d="M129.95,99.37h1.88s0,.47,0,.47c-.29,.11-.61,.18-.94,.18s-.65-.06-.94-.19v-.46Z"/>
    </g>
    <g>
      <path class="cls-9" d="M102.43,42.77c.33,0,.64-.06,.94-.18v2.89c-.29-.11-.61-.18-.94-.18s-.65,.06-.94,.19v-2.91c.29,.12,.61,.19,.94,.19Z"/>
      <path class="cls-14" d="M102.43,45.3c.33,0,.64,.06,.94,.18v.48s-1.88,0-1.88,0v-.47c.29-.12,.61-.19,.94-.19Z"/>
      <path class="cls-14" d="M101.49,42.12h1.88s0,.47,0,.47c-.29,.11-.61,.18-.94,.18s-.65-.06-.94-.19v-.46Z"/>
    </g>
    <g>
      <path class="cls-9" d="M104.97,42.77c.33,0,.64-.06,.94-.18v2.89c-.29-.11-.61-.18-.94-.18s-.65,.06-.94,.19v-2.91c.29,.12,.61,.19,.94,.19Z"/>
      <path class="cls-14" d="M104.97,45.3c.33,0,.64,.06,.94,.18v.48s-1.88,0-1.88,0v-.47c.29-.12,.61-.19,.94-.19Z"/>
      <path class="cls-14" d="M104.02,42.12h1.88s0,.47,0,.47c-.29,.11-.61,.18-.94,.18s-.65-.06-.94-.19v-.46Z"/>
    </g>
    <g>
      <path class="cls-9" d="M107.54,42.77c.33,0,.64-.06,.94-.18v2.89c-.29-.11-.61-.18-.94-.18s-.65,.06-.94,.19v-2.91c.29,.12,.61,.19,.94,.19Z"/>
      <path class="cls-14" d="M107.54,45.3c.33,0,.64,.06,.94,.18v.48s-1.88,0-1.88,0v-.47c.29-.12,.61-.19,.94-.19Z"/>
      <path class="cls-14" d="M106.59,42.12h1.88s0,.47,0,.47c-.29,.11-.61,.18-.94,.18s-.65-.06-.94-.19v-.46Z"/>
    </g>
    <g>
      <path class="cls-9" d="M110.15,42.77c.33,0,.64-.06,.94-.18v2.89c-.29-.11-.61-.18-.94-.18s-.65,.06-.94,.19v-2.91c.29,.12,.61,.19,.94,.19Z"/>
      <path class="cls-14" d="M110.15,45.3c.33,0,.64,.06,.94,.18v.48s-1.88,0-1.88,0v-.47c.29-.12,.61-.19,.94-.19Z"/>
      <path class="cls-14" d="M109.2,42.12h1.88s0,.47,0,.47c-.29,.11-.61,.18-.94,.18s-.65-.06-.94-.19v-.46Z"/>
    </g>
    <g>
      <path class="cls-9" d="M112.76,42.77c.33,0,.64-.06,.94-.18v2.89c-.29-.11-.61-.18-.94-.18s-.65,.06-.94,.19v-2.91c.29,.12,.61,.19,.94,.19Z"/>
      <path class="cls-14" d="M112.76,45.3c.33,0,.64,.06,.94,.18v.48s-1.88,0-1.88,0v-.47c.29-.12,.61-.19,.94-.19Z"/>
      <path class="cls-14" d="M111.81,42.12h1.88s0,.47,0,.47c-.29,.11-.61,.18-.94,.18s-.65-.06-.94-.19v-.46Z"/>
    </g>
    <g>
      <path class="cls-9" d="M118.07,42.77c.33,0,.64-.06,.94-.18v2.89c-.29-.11-.61-.18-.94-.18s-.65,.06-.94,.19v-2.91c.29,.12,.61,.19,.94,.19Z"/>
      <path class="cls-14" d="M118.07,45.3c.33,0,.64,.06,.94,.18v.48s-1.88,0-1.88,0v-.47c.29-.12,.61-.19,.94-.19Z"/>
      <path class="cls-14" d="M117.12,42.12h1.88s0,.47,0,.47c-.29,.11-.61,.18-.94,.18s-.65-.06-.94-.19v-.46Z"/>
    </g>
    <g>
      <path class="cls-9" d="M132.43,42.77c.33,0,.64-.06,.94-.18v2.89c-.29-.11-.61-.18-.94-.18s-.65,.06-.94,.19v-2.91c.29,.12,.61,.19,.94,.19Z"/>
      <path class="cls-14" d="M132.43,45.3c.33,0,.64,.06,.94,.18v.48s-1.88,0-1.88,0v-.47c.29-.12,.61-.19,.94-.19Z"/>
      <path class="cls-14" d="M131.48,42.12h1.88s0,.47,0,.47c-.29,.11-.61,.18-.94,.18s-.65-.06-.94-.19v-.46Z"/>
    </g>
    <g>
      <path class="cls-9" d="M135.22,42.77c.33,0,.64-.06,.94-.18v2.89c-.29-.11-.61-.18-.94-.18s-.65,.06-.94,.19v-2.91c.29,.12,.61,.19,.94,.19Z"/>
      <path class="cls-14" d="M135.22,45.3c.33,0,.64,.06,.94,.18v.48s-1.88,0-1.88,0v-.47c.29-.12,.61-.19,.94-.19Z"/>
      <path class="cls-14" d="M134.28,42.12h1.88s0,.47,0,.47c-.29,.11-.61,.18-.94,.18s-.65-.06-.94-.19v-.46Z"/>
    </g>
    <g>
      <path class="cls-9" d="M142.76,42.77c.33,0,.64-.06,.94-.18v2.89c-.29-.11-.61-.18-.94-.18s-.65,.06-.94,.19v-2.91c.29,.12,.61,.19,.94,.19Z"/>
      <path class="cls-14" d="M142.76,45.3c.33,0,.64,.06,.94,.18v.48s-1.88,0-1.88,0v-.47c.29-.12,.61-.19,.94-.19Z"/>
      <path class="cls-14" d="M141.82,42.12h1.88s0,.47,0,.47c-.29,.11-.61,.18-.94,.18s-.65-.06-.94-.19v-.46Z"/>
    </g>
    <g>
      <path class="cls-9" d="M145.56,42.77c.33,0,.64-.06,.94-.18v2.89c-.29-.11-.61-.18-.94-.18s-.65,.06-.94,.19v-2.91c.29,.12,.61,.19,.94,.19Z"/>
      <path class="cls-14" d="M145.56,45.3c.33,0,.64,.06,.94,.18v.48s-1.88,0-1.88,0v-.47c.29-.12,.61-.19,.94-.19Z"/>
      <path class="cls-14" d="M144.61,42.12h1.88s0,.47,0,.47c-.29,.11-.61,.18-.94,.18s-.65-.06-.94-.19v-.46Z"/>
    </g>
    <g>
      <path class="cls-9" d="M151.26,42.77c.33,0,.64-.06,.94-.18v2.89c-.29-.11-.61-.18-.94-.18s-.65,.06-.94,.19v-2.91c.29,.12,.61,.19,.94,.19Z"/>
      <path class="cls-14" d="M151.26,45.3c.33,0,.64,.06,.94,.18v.48s-1.88,0-1.88,0v-.47c.29-.12,.61-.19,.94-.19Z"/>
      <path class="cls-14" d="M150.31,42.12h1.88s0,.47,0,.47c-.29,.11-.61,.18-.94,.18s-.65-.06-.94-.19v-.46Z"/>
    </g>
    <g>
      <path class="cls-9" d="M148.16,42.77c.33,0,.64-.06,.94-.18v2.89c-.29-.11-.61-.18-.94-.18s-.65,.06-.94,.19v-2.91c.29,.12,.61,.19,.94,.19Z"/>
      <path class="cls-14" d="M148.16,45.3c.33,0,.64,.06,.94,.18v.48s-1.88,0-1.88,0v-.47c.29-.12,.61-.19,.94-.19Z"/>
      <path class="cls-14" d="M147.21,42.12h1.88s0,.47,0,.47c-.29,.11-.61,.18-.94,.18s-.65-.06-.94-.19v-.46Z"/>
    </g>
    <g>
      <path class="cls-9" d="M154.05,42.77c.33,0,.64-.06,.94-.18v2.89c-.29-.11-.61-.18-.94-.18s-.65,.06-.94,.19v-2.91c.29,.12,.61,.19,.94,.19Z"/>
      <path class="cls-14" d="M154.05,45.3c.33,0,.64,.06,.94,.18v.48s-1.88,0-1.88,0v-.47c.29-.12,.61-.19,.94-.19Z"/>
      <path class="cls-14" d="M153.11,42.12h1.88s0,.47,0,.47c-.29,.11-.61,.18-.94,.18s-.65-.06-.94-.19v-.46Z"/>
    </g>
    <g>
      <path class="cls-9" d="M146.51,58.3c0,.33,.06,.64,.18,.94h-2.89c.11-.29,.18-.61,.18-.94s-.06-.65-.19-.94h2.91c-.12,.29-.19,.61-.19,.94Z"/>
      <path class="cls-14" d="M143.97,58.3c0,.33-.06,.64-.18,.94h-.48s0-1.88,0-1.88h.47c.12,.29,.19,.61,.19,.94Z"/>
      <path class="cls-14" d="M147.15,57.35v1.88s-.47,0-.47,0c-.11-.29-.18-.61-.18-.94s.06-.65,.19-.94h.46Z"/>
    </g>
    <g>
      <path class="cls-9" d="M146.51,62.2c0,.33,.06,.64,.18,.94h-2.89c.11-.29,.18-.61,.18-.94s-.06-.65-.19-.94h2.91c-.12,.29-.19,.61-.19,.94Z"/>
      <path class="cls-14" d="M143.97,62.2c0,.33-.06,.64-.18,.94h-.48s0-1.88,0-1.88h.47c.12,.29,.19,.61,.19,.94Z"/>
      <path class="cls-14" d="M147.15,61.26v1.88s-.47,0-.47,0c-.11-.29-.18-.61-.18-.94s.06-.65,.19-.94h.46Z"/>
    </g>
    <g>
      <path class="cls-9" d="M154.38,77.88c0,.33,.06,.64,.18,.94h-2.89c.11-.29,.18-.61,.18-.94s-.06-.65-.19-.94h2.91c-.12,.29-.19,.61-.19,.94Z"/>
      <path class="cls-14" d="M151.85,77.88c0,.33-.06,.64-.18,.94h-.48s0-1.88,0-1.88h.47c.12,.29,.19,.61,.19,.94Z"/>
      <path class="cls-14" d="M155.02,76.93v1.88s-.47,0-.47,0c-.11-.29-.18-.61-.18-.94s.06-.65,.19-.94h.46Z"/>
    </g>
    <g>
      <path class="cls-9" d="M167.51,77.88c0,.33,.06,.64,.18,.94h-2.89c.11-.29,.18-.61,.18-.94s-.06-.65-.19-.94h2.91c-.12,.29-.19,.61-.19,.94Z"/>
      <path class="cls-14" d="M164.97,77.88c0,.33-.06,.64-.18,.94h-.48s0-1.88,0-1.88h.47c.12,.29,.19,.61,.19,.94Z"/>
      <path class="cls-14" d="M168.15,76.93v1.88s-.47,0-.47,0c-.11-.29-.18-.61-.18-.94s.06-.65,.19-.94h.46Z"/>
    </g>
    <g>
      <path class="cls-9" d="M174.16,72.62c0,.33,.06,.64,.18,.94h-2.89c.11-.29,.18-.61,.18-.94s-.06-.65-.19-.94h2.91c-.12,.29-.19,.61-.19,.94Z"/>
      <path class="cls-14" d="M171.62,72.62c0,.33-.06,.64-.18,.94h-.48s0-1.88,0-1.88h.47c.12,.29,.19,.61,.19,.94Z"/>
      <path class="cls-14" d="M174.8,71.67v1.88s-.47,0-.47,0c-.11-.29-.18-.61-.18-.94s.06-.65,.19-.94h.46Z"/>
    </g>
    <g>
      <path class="cls-9" d="M174.16,69.07c0,.33,.06,.64,.18,.94h-2.89c.11-.29,.18-.61,.18-.94s-.06-.65-.19-.94h2.91c-.12,.29-.19,.61-.19,.94Z"/>
      <path class="cls-14" d="M171.62,69.07c0,.33-.06,.64-.18,.94h-.48s0-1.88,0-1.88h.47c.12,.29,.19,.61,.19,.94Z"/>
      <path class="cls-14" d="M174.8,68.13v1.88s-.47,0-.47,0c-.11-.29-.18-.61-.18-.94s.06-.65,.19-.94h.46Z"/>
    </g>
    <g>
      <path class="cls-9" d="M174.16,65.56c0,.33,.06,.64,.18,.94h-2.89c.11-.29,.18-.61,.18-.94s-.06-.65-.19-.94h2.91c-.12,.29-.19,.61-.19,.94Z"/>
      <path class="cls-14" d="M171.62,65.56c0,.33-.06,.64-.18,.94h-.48s0-1.88,0-1.88h.47c.12,.29,.19,.61,.19,.94Z"/>
      <path class="cls-14" d="M174.8,64.61v1.88s-.47,0-.47,0c-.11-.29-.18-.61-.18-.94s.06-.65,.19-.94h.46Z"/>
    </g>
    <g>
      <path class="cls-9" d="M174.16,62.04c0,.33,.06,.64,.18,.94h-2.89c.11-.29,.18-.61,.18-.94s-.06-.65-.19-.94h2.91c-.12,.29-.19,.61-.19,.94Z"/>
      <path class="cls-14" d="M171.62,62.04c0,.33-.06,.64-.18,.94h-.48s0-1.88,0-1.88h.47c.12,.29,.19,.61,.19,.94Z"/>
      <path class="cls-14" d="M174.8,61.1v1.88s-.47,0-.47,0c-.11-.29-.18-.61-.18-.94s.06-.65,.19-.94h.46Z"/>
    </g>
    <g>
      <path class="cls-9" d="M174.16,58.65c0,.33,.06,.64,.18,.94h-2.89c.11-.29,.18-.61,.18-.94s-.06-.65-.19-.94h2.91c-.12,.29-.19,.61-.19,.94Z"/>
      <path class="cls-14" d="M171.62,58.65c0,.33-.06,.64-.18,.94h-.48s0-1.88,0-1.88h.47c.12,.29,.19,.61,.19,.94Z"/>
      <path class="cls-14" d="M174.8,57.7v1.88s-.47,0-.47,0c-.11-.29-.18-.61-.18-.94s.06-.65,.19-.94h.46Z"/>
    </g>
    <g>
      <path class="cls-9" d="M102.78,86.43c.33,0,.64-.06,.94-.18v2.89c-.29-.11-.61-.18-.94-.18s-.65,.06-.94,.19v-2.91c.29,.12,.61,.19,.94,.19Z"/>
      <path class="cls-14" d="M102.78,88.97c.33,0,.64,.06,.94,.18v.48s-1.88,0-1.88,0v-.47c.29-.12,.61-.19,.94-.19Z"/>
      <path class="cls-14" d="M101.84,85.79h1.88s0,.47,0,.47c-.29,.11-.61,.18-.94,.18s-.65-.06-.94-.19v-.46Z"/>
    </g>
    <g>
      <path class="cls-9" d="M100.4,86.43c.33,0,.64-.06,.94-.18v2.89c-.29-.11-.61-.18-.94-.18s-.65,.06-.94,.19v-2.91c.29,.12,.61,.19,.94,.19Z"/>
      <path class="cls-14" d="M100.4,88.96c.33,0,.64,.06,.94,.18v.48s-1.88,0-1.88,0v-.47c.29-.12,.61-.19,.94-.19Z"/>
      <path class="cls-14" d="M99.45,85.78h1.88s0,.47,0,.47c-.29,.11-.61,.18-.94,.18s-.65-.06-.94-.19v-.46Z"/>
    </g>
    <g>
      <path class="cls-9" d="M75.72,104.55c.33,0,.64-.06,.94-.18v2.89c-.29-.11-.61-.18-.94-.18s-.65,.06-.94,.19v-2.91c.29,.12,.61,.19,.94,.19Z"/>
      <path class="cls-14" d="M75.72,107.08c.33,0,.64,.06,.94,.18v.48s-1.88,0-1.88,0v-.47c.29-.12,.61-.19,.94-.19Z"/>
      <path class="cls-14" d="M74.78,103.9h1.88s0,.47,0,.47c-.29,.11-.61,.18-.94,.18s-.65-.06-.94-.19v-.46Z"/>
    </g>
    <g>
      <path class="cls-9" d="M80.08,110.19c.33,0,.64-.06,.94-.18v2.89c-.29-.11-.61-.18-.94-.18s-.65,.06-.94,.19v-2.91c.29,.12,.61,.19,.94,.19Z"/>
      <path class="cls-14" d="M80.08,112.73c.33,0,.64,.06,.94,.18v.48s-1.88,0-1.88,0v-.47c.29-.12,.61-.19,.94-.19Z"/>
      <path class="cls-14" d="M79.13,109.55h1.88s0,.47,0,.47c-.29,.11-.61,.18-.94,.18s-.65-.06-.94-.19v-.46Z"/>
    </g>
    <g>
      <path class="cls-9" d="M85.64,102.95c.33,0,.64-.06,.94-.18v2.89c-.29-.11-.61-.18-.94-.18s-.65,.06-.94,.19v-2.91c.29,.12,.61,.19,.94,.19Z"/>
      <path class="cls-14" d="M85.64,105.49c.33,0,.64,.06,.94,.18v.48s-1.88,0-1.88,0v-.47c.29-.12,.61-.19,.94-.19Z"/>
      <path class="cls-14" d="M84.7,102.31h1.88s0,.47,0,.47c-.29,.11-.61,.18-.94,.18s-.65-.06-.94-.19v-.46Z"/>
    </g>
    <g>
      <path class="cls-9" d="M96.19,79.61c0,.33,.06,.64,.18,.94h-2.89c.11-.29,.18-.61,.18-.94s-.06-.65-.19-.94h2.91c-.12,.29-.19,.61-.19,.94Z"/>
      <path class="cls-14" d="M93.65,79.61c0,.33-.06,.64-.18,.94h-.48s0-1.88,0-1.88h.47c.12,.29,.19,.61,.19,.94Z"/>
      <path class="cls-14" d="M96.83,78.66v1.88s-.47,0-.47,0c-.11-.29-.18-.61-.18-.94s.06-.65,.19-.94h.46Z"/>
    </g>
    <g>
      <path class="cls-9" d="M82.34,24.3c0,.33,.06,.64,.18,.94h-2.89c.11-.29,.18-.61,.18-.94s-.06-.65-.19-.94h2.91c-.12,.29-.19,.61-.19,.94Z"/>
      <path class="cls-14" d="M79.81,24.3c0,.33-.06,.64-.18,.94h-.48s0-1.88,0-1.88h.47c.12,.29,.19,.61,.19,.94Z"/>
      <path class="cls-14" d="M82.99,23.36v1.88s-.47,0-.47,0c-.11-.29-.18-.61-.18-.94s.06-.65,.19-.94h.46Z"/>
    </g>
    <g>
      <path class="cls-9" d="M37.82,11.9c0,.33,.06,.64,.18,.94h-2.89c.11-.29,.18-.61,.18-.94s-.06-.65-.19-.94h2.91c-.12,.29-.19,.61-.19,.94Z"/>
      <path class="cls-14" d="M35.29,11.9c0,.33-.06,.64-.18,.94h-.48s0-1.88,0-1.88h.47c.12,.29,.19,.61,.19,.94Z"/>
      <path class="cls-14" d="M38.47,10.96v1.88s-.47,0-.47,0c-.11-.29-.18-.61-.18-.94s.06-.65,.19-.94h.46Z"/>
    </g>
    <g>
      <path class="cls-9" d="M42.87,11.9c0,.33,.06,.64,.18,.94h-2.89c.11-.29,.18-.61,.18-.94s-.06-.65-.19-.94h2.91c-.12,.29-.19,.61-.19,.94Z"/>
      <path class="cls-14" d="M40.34,11.9c0,.33-.06,.64-.18,.94h-.48s0-1.88,0-1.88h.47c.12,.29,.19,.61,.19,.94Z"/>
      <path class="cls-14" d="M43.52,10.96v1.88s-.47,0-.47,0c-.11-.29-.18-.61-.18-.94s.06-.65,.19-.94h.46Z"/>
    </g>
    <g>
      <path class="cls-9" d="M47.93,11.9c0,.33,.06,.64,.18,.94h-2.89c.11-.29,.18-.61,.18-.94s-.06-.65-.19-.94h2.91c-.12,.29-.19,.61-.19,.94Z"/>
      <path class="cls-14" d="M45.4,11.9c0,.33-.06,.64-.18,.94h-.48s0-1.88,0-1.88h.47c.12,.29,.19,.61,.19,.94Z"/>
      <path class="cls-14" d="M48.57,10.96v1.88s-.47,0-.47,0c-.11-.29-.18-.61-.18-.94s.06-.65,.19-.94h.46Z"/>
    </g>
    <g>
      <path class="cls-9" d="M88.04,110.49c0,.33,.06,.64,.18,.94h-2.89c.11-.29,.18-.61,.18-.94s-.06-.65-.19-.94h2.91c-.12,.29-.19,.61-.19,.94Z"/>
      <path class="cls-14" d="M85.51,110.49c0,.33-.06,.64-.18,.94h-.48s0-1.88,0-1.88h.47c.12,.29,.19,.61,.19,.94Z"/>
      <path class="cls-14" d="M88.68,109.55v1.88s-.47,0-.47,0c-.11-.29-.18-.61-.18-.94s.06-.65,.19-.94h.46Z"/>
    </g>
    <g>
      <path class="cls-2" d="M89.7,35.89c0-.48-.09-.95-.26-1.38h4.26c-.17,.43-.26,.9-.26,1.38s.09,.96,.27,1.39h-4.28c.18-.43,.27-.9,.27-1.39Z"/>
      <path class="cls-3" d="M89.7,35.89c0-.48-.09-.95-.26-1.38h4.26c-.17,.43-.26,.9-.26,1.38s.09,.96,.27,1.39h-4.28c.18-.43,.27-.9,.27-1.39Z"/>
      <path class="cls-19" d="M89.7,35.89c0-.48-.09-.95-.26-1.38h4.26c-.17,.43-.26,.9-.26,1.38s.09,.96,.27,1.39h-4.28c.18-.43,.27-.9,.27-1.39Z"/>
      <path class="cls-14" d="M93.44,35.89c0-.48,.09-.95,.26-1.38h.7v2.77h-.69c-.18-.43-.27-.9-.27-1.39Z"/>
      <path class="cls-14" d="M88.75,37.29v-2.77h.69c.17,.43,.26,.9,.26,1.38s-.09,.96-.27,1.39h-.68Z"/>
    </g>
    <g>
      <path class="cls-2" d="M89.7,39.57c0-.48-.09-.95-.26-1.38h4.26c-.17,.43-.26,.9-.26,1.38s.09,.96,.27,1.39h-4.28c.18-.43,.27-.9,.27-1.39Z"/>
      <path class="cls-3" d="M89.7,39.57c0-.48-.09-.95-.26-1.38h4.26c-.17,.43-.26,.9-.26,1.38s.09,.96,.27,1.39h-4.28c.18-.43,.27-.9,.27-1.39Z"/>
      <path class="cls-19" d="M89.7,39.57c0-.48-.09-.95-.26-1.38h4.26c-.17,.43-.26,.9-.26,1.38s.09,.96,.27,1.39h-4.28c.18-.43,.27-.9,.27-1.39Z"/>
      <path class="cls-14" d="M93.44,39.57c0-.48,.09-.95,.26-1.38h.7v2.77h-.69c-.18-.43-.27-.9-.27-1.39Z"/>
      <path class="cls-14" d="M88.75,40.97v-2.77h.69c.17,.43,.26,.9,.26,1.38s-.09,.96-.27,1.39h-.68Z"/>
    </g>
    <g>
      <path class="cls-2" d="M86.76,121.01c0-.48-.09-.95-.26-1.38h4.26c-.17,.43-.26,.9-.26,1.38s.09,.96,.27,1.39h-4.28c.18-.43,.27-.9,.27-1.39Z"/>
      <path class="cls-3" d="M86.76,121.01c0-.48-.09-.95-.26-1.38h4.26c-.17,.43-.26,.9-.26,1.38s.09,.96,.27,1.39h-4.28c.18-.43,.27-.9,.27-1.39Z"/>
      <path class="cls-19" d="M86.76,121.01c0-.48-.09-.95-.26-1.38h4.26c-.17,.43-.26,.9-.26,1.38s.09,.96,.27,1.39h-4.28c.18-.43,.27-.9,.27-1.39Z"/>
      <path class="cls-14" d="M90.5,121.01c0-.48,.09-.95,.26-1.38h.7v2.77h-.69c-.18-.43-.27-.9-.27-1.39Z"/>
      <path class="cls-14" d="M85.81,122.41v-2.77h.69c.17,.43,.26,.9,.26,1.38s-.09,.96-.27,1.39h-.68Z"/>
    </g>
    <g>
      <path class="cls-2" d="M88.62,103.67c0-.72-.09-1.42-.26-2.07h4.26c-.17,.64-.26,1.35-.26,2.07s.09,1.44,.27,2.09h-4.28c.18-.64,.27-1.35,.27-2.09Z"/>
      <path class="cls-3" d="M88.62,103.67c0-.72-.09-1.42-.26-2.07h4.26c-.17,.64-.26,1.35-.26,2.07s.09,1.44,.27,2.09h-4.28c.18-.64,.27-1.35,.27-2.09Z"/>
      <path class="cls-19" d="M88.62,103.67c0-.72-.09-1.42-.26-2.07h4.26c-.17,.64-.26,1.35-.26,2.07s.09,1.44,.27,2.09h-4.28c.18-.64,.27-1.35,.27-2.09Z"/>
      <path class="cls-14" d="M92.36,103.67c0-.72,.09-1.42,.26-2.07h.7v4.15h-.69c-.18-.64-.27-1.35-.27-2.09Z"/>
      <path class="cls-14" d="M87.67,105.76v-4.15h.69c.17,.64,.26,1.35,.26,2.07s-.09,1.44-.27,2.09h-.68Z"/>
    </g>
    <g>
      <path class="cls-9" d="M19.04,99.03c0-.72-.09-1.42-.26-2.07h4.26c-.17,.64-.26,1.35-.26,2.07s.09,1.44,.27,2.09h-4.28c.18-.64,.27-1.35,.27-2.09Z"/>
      <path class="cls-14" d="M22.78,99.03c0-.72,.09-1.42,.26-2.07h.7v4.15h-.69c-.18-.64-.27-1.35-.27-2.09Z"/>
      <path class="cls-14" d="M18.09,101.11v-4.15h.69c.17,.64,.26,1.35,.26,2.07s-.09,1.44-.27,2.09h-.68Z"/>
    </g>
    <g>
      <path class="cls-9" d="M35.81,43.95c0-.72-.09-1.42-.26-2.07h4.26c-.17,.64-.26,1.35-.26,2.07s.09,1.44,.27,2.09h-4.28c.18-.64,.27-1.35,.27-2.09Z"/>
      <path class="cls-14" d="M39.54,43.95c0-.72,.09-1.42,.26-2.07h.7v4.15h-.69c-.18-.64-.27-1.35-.27-2.09Z"/>
      <path class="cls-14" d="M34.86,46.03v-4.15h.69c.17,.64,.26,1.35,.26,2.07s-.09,1.44-.27,2.09h-.68Z"/>
    </g>
    <rect class="cls-14" x="96.06" y="34.51" width="1.67" height="2.77"/>
    <rect class="cls-14" x="100.04" y="34.51" width="1.67" height="2.77"/>
    <rect class="cls-14" x="96.06" y="38.19" width="1.67" height="2.77"/>
    <rect class="cls-14" x="100.04" y="38.19" width="1.67" height="2.77"/>
    <rect class="cls-14" x="85.79" y="123.4" width="1.67" height="2.77"/>
    <rect class="cls-14" x="89.77" y="123.4" width="1.67" height="2.77"/>
    <rect class="cls-14" x="78.47" y="118.02" width="1.12" height="1.86"/>
    <rect class="cls-14" x="81.14" y="118.02" width="1.12" height="1.86"/>
    <rect class="cls-14" x="78.47" y="120.54" width="1.12" height="1.86"/>
    <rect class="cls-14" x="81.14" y="120.54" width="1.12" height="1.86"/>
    <rect class="cls-14" x="64.77" y="114.39" width="1.12" height="1.86"/>
    <rect class="cls-14" x="67.44" y="114.39" width="1.12" height="1.86"/>
    <rect class="cls-14" x="117.69" y="87.25" width="1.12" height="1.86"/>
    <rect class="cls-14" x="120.36" y="87.25" width="1.12" height="1.86"/>
    <rect class="cls-14" x="122.53" y="87.25" width="1.12" height="1.86"/>
    <rect class="cls-14" x="125.21" y="87.25" width="1.12" height="1.86"/>
    <rect class="cls-14" x="108.8" y="90.53" width="1.12" height="1.86"/>
    <rect class="cls-14" x="108.8" y="85.5" width="1.12" height="1.86"/>
    <rect class="cls-14" x="111.48" y="90.53" width="1.12" height="1.86"/>
    <rect class="cls-14" x="103.51" y="90.53" width="1.12" height="1.86"/>
    <rect class="cls-14" x="106.19" y="90.53" width="1.12" height="1.86"/>
    <rect class="cls-14" x="64" y="30.67" width="1.12" height="1.86"/>
    <rect class="cls-14" x="66.67" y="30.67" width="1.12" height="1.86"/>
    <rect class="cls-14" x="63.79" y="22.49" width="1.12" height="1.86" transform="translate(87.77 -40.93) rotate(90)"/>
    <rect class="cls-14" x="63.79" y="25.16" width="1.12" height="1.86" transform="translate(90.44 -38.26) rotate(90)"/>
    <rect class="cls-14" x="35.26" y="17.62" width="1.12" height="1.86" transform="translate(54.37 -17.27) rotate(90)"/>
    <rect class="cls-14" x="35.26" y="20.29" width="1.12" height="1.86" transform="translate(57.05 -14.6) rotate(90)"/>
    <rect class="cls-14" x="28.33" y="15.47" width="1.12" height="1.86" transform="translate(45.29 -12.48) rotate(90)"/>
    <rect class="cls-14" x="28.33" y="18.15" width="1.12" height="1.86" transform="translate(47.97 -9.81) rotate(90)"/>
    <rect class="cls-14" x="106.05" y="85.43" width="1.12" height="1.86" transform="translate(192.97 -20.25) rotate(90)"/>
    <rect class="cls-14" x="106.05" y="88.1" width="1.12" height="1.86" transform="translate(195.64 -17.57) rotate(90)"/>
    <rect class="cls-14" x="51.59" y="101.49" width="1.12" height="1.86" transform="translate(154.57 50.27) rotate(90)"/>
    <rect class="cls-14" x="51.59" y="104.16" width="1.12" height="1.86" transform="translate(157.24 52.94) rotate(90)"/>
    <rect class="cls-13" x="18.09" y="51.45" width="5.89" height="2.62"/>
    <circle class="cls-19" cx="21.03" cy="52.77" r="1.89"/>
  </g>
  <g id="_2018_Version" data-name="2018 Version">
    <g>
      <path class="cls-13" d="M37.24,130.19h1.83s.03,.01,.03,.03v1.83s-.01,.03-.03,.03h-1.83s-.03-.01-.03-.03v-1.83s.01-.03,.03-.03Z"/>
      <path class="cls-13" d="M35.17,130.19h1.83s.03,.01,.03,.03v1.83s-.01,.03-.03,.03h-1.83s-.03-.01-.03-.03v-1.83s.01-.03,.03-.03Z"/>
    </g>
    <g>
      <path class="cls-13" d="M37.24,132.27h1.83s.03,.01,.03,.03v1.83s-.01,.03-.03,.03h-1.83s-.03-.01-.03-.03v-1.83s.01-.03,.03-.03Z"/>
      <path class="cls-13" d="M35.17,132.27h1.83s.03,.01,.03,.03v1.83s-.01,.03-.03,.03h-1.83s-.03-.01-.03-.03v-1.83s.01-.03,.03-.03Z"/>
    </g>
    <path class="cls-5" d="M59.64,6.54c0-2.27-1.84-4.12-4.12-4.12s-4.12,1.84-4.12,4.12,1.84,4.12,4.12,4.12,4.12-1.84,4.12-4.12h0Z"/>
    <path class="cls-5" d="M190.36,45.76c0-2.27-1.84-4.12-4.12-4.12s-4.12,1.84-4.12,4.12,1.84,4.12,4.12,4.12,4.12-1.84,4.12-4.12h0Z"/>
    <path class="cls-5" d="M252.45,6.54c0-2.27-1.84-4.12-4.12-4.12s-4.12,1.84-4.12,4.12,1.84,4.12,4.12,4.12,4.12-1.84,4.12-4.12h0Z"/>
    <path class="cls-5" d="M190.36,117.65c0-2.28-1.84-4.12-4.12-4.12s-4.12,1.84-4.12,4.12,1.84,4.12,4.12,4.12,4.12-1.84,4.12-4.12h0Z"/>
    <path class="cls-5" d="M268.79,130.72c0-2.28-1.84-4.12-4.12-4.12s-4.12,1.84-4.12,4.12,1.84,4.12,4.12,4.12,4.12-1.84,4.12-4.12h0Z"/>
    <path class="cls-5" d="M56.38,130.56c0-2.28-1.84-4.12-4.12-4.12s-4.12,1.84-4.12,4.12,1.84,4.12,4.12,4.12,4.12-1.84,4.12-4.12h0Z"/>
    <g>
      <polygon class="cls-2" points="189.71 73.56 189.71 70.99 187.89 69.18 187.9 68.65 189.71 66.84 189.71 64.27 187.89 62.46 187.9 61.93 189.71 60.12 189.71 57.55 187.89 55.74 185.33 55.74 181.17 55.74 178.61 55.74 176.79 57.55 176.79 60.12 178.61 61.93 178.61 62.46 176.79 64.27 176.79 66.84 178.61 68.65 178.61 69.18 176.79 70.99 176.79 73.56 178.61 75.37 181.17 75.37 185.33 75.37 187.9 75.37 189.71 73.56"/>
      <polygon class="cls-3" points="189.71 73.56 189.71 70.99 187.89 69.18 187.9 68.65 189.71 66.84 189.71 64.27 187.89 62.46 187.9 61.93 189.71 60.12 189.71 57.55 187.89 55.74 185.33 55.74 181.17 55.74 178.61 55.74 176.79 57.55 176.79 60.12 178.61 61.93 178.61 62.46 176.79 64.27 176.79 66.84 178.61 68.65 178.61 69.18 176.79 70.99 176.79 73.56 178.61 75.37 181.17 75.37 185.33 75.37 187.9 75.37 189.71 73.56"/>
      <polygon class="cls-19" points="189.71 73.56 189.71 70.99 187.89 69.18 187.9 68.65 189.71 66.84 189.71 64.27 187.89 62.46 187.9 61.93 189.71 60.12 189.71 57.55 187.89 55.74 185.33 55.74 181.17 55.74 178.61 55.74 176.79 57.55 176.79 60.12 178.61 61.93 178.61 62.46 176.79 64.27 176.79 66.84 178.61 68.65 178.61 69.18 176.79 70.99 176.79 73.56 178.61 75.37 181.17 75.37 185.33 75.37 187.9 75.37 189.71 73.56"/>
      <path class="cls-13" d="M179.89,71.12c.64,0,1.15,.52,1.15,1.15s-.52,1.15-1.15,1.15-1.15-.52-1.15-1.15,.52-1.15,1.15-1.15Z"/>
      <path class="cls-13" d="M186.61,57.68c.64,0,1.15,.52,1.15,1.15s-.51,1.15-1.15,1.15-1.15-.52-1.15-1.15,.52-1.15,1.15-1.15Z"/>
      <path class="cls-13" d="M186.61,64.4c.64,0,1.15,.52,1.15,1.15s-.51,1.15-1.15,1.15-1.15-.52-1.15-1.15,.51-1.15,1.15-1.15Z"/>
      <path class="cls-13" d="M186.61,71.12c.64,0,1.15,.52,1.15,1.15,0,.64-.51,1.15-1.15,1.15s-1.15-.52-1.15-1.15,.51-1.15,1.15-1.15Z"/>
      <path class="cls-13" d="M179.89,57.68c.64,0,1.15,.52,1.15,1.15s-.52,1.15-1.15,1.15-1.15-.52-1.15-1.15,.52-1.15,1.15-1.15Z"/>
      <path class="cls-13" d="M179.89,64.4c.64,0,1.15,.52,1.15,1.15s-.52,1.15-1.15,1.15-1.15-.52-1.15-1.15,.52-1.15,1.15-1.15Z"/>
    </g>
    <g>
      <rect class="cls-2" x="105.9" y="47.57" width="35.92" height="35.92"/>
      <rect class="cls-3" x="105.9" y="47.57" width="35.92" height="35.92"/>
      <rect class="cls-19" x="105.9" y="47.57" width="35.92" height="35.92"/>
    </g>
    <g>
      <rect class="cls-2" x="148.98" y="55.28" width="20.54" height="20.54"/>
      <rect class="cls-3" x="148.98" y="55.28" width="20.54" height="20.54"/>
      <rect class="cls-19" x="148.98" y="55.28" width="20.54" height="20.54"/>
    </g>
    <g>
      <rect class="cls-2" x="86.19" y="57.68" width="13.26" height="15.61"/>
      <rect class="cls-3" x="86.19" y="57.68" width="13.26" height="15.61"/>
      <rect class="cls-19" x="86.19" y="57.68" width="13.26" height="15.61"/>
    </g>
    <g>
      <g>
        <rect class="cls-21" x="22.72" y="97.08" width="19.01" height="31.83" transform="translate(-80.77 145.22) rotate(-90)"/>
        <rect class="cls-6" x="22.72" y="97.08" width="19.01" height="31.83" transform="translate(-80.77 145.22) rotate(-90)"/>
        <rect class="cls-19" x="22.72" y="97.08" width="19.01" height="31.83" transform="translate(-80.77 145.22) rotate(-90)"/>
      </g>
      <g>
        <rect class="cls-21" x="5.99" y="110.25" width="15.14" height="5.5" transform="translate(-99.43 126.56) rotate(-90)"/>
        <rect class="cls-6" x="5.99" y="110.25" width="15.14" height="5.5" transform="translate(-99.43 126.56) rotate(-90)"/>
        <rect class="cls-19" x="5.99" y="110.25" width="15.14" height="5.5" transform="translate(-99.43 126.56) rotate(-90)"/>
      </g>
      <g>
        <rect class="cls-1" x="12.31" y="103.93" width="2.51" height="5.5" transform="translate(-93.12 120.24) rotate(-90)"/>
        <rect class="cls-1" x="12.31" y="116.56" width="2.51" height="5.5" transform="translate(-105.75 132.88) rotate(-90)"/>
        <rect class="cls-4" x="12.31" y="103.93" width="2.51" height="5.5" transform="translate(-93.12 120.24) rotate(-90)"/>
        <rect class="cls-4" x="12.31" y="116.56" width="2.51" height="5.5" transform="translate(-105.75 132.88) rotate(-90)"/>
        <rect class="cls-19" x="12.31" y="103.93" width="2.51" height="5.5" transform="translate(-93.12 120.24) rotate(-90)"/>
        <rect class="cls-19" x="12.31" y="116.56" width="2.51" height="5.5" transform="translate(-105.75 132.88) rotate(-90)"/>
      </g>
      <path class="cls-8" d="M26.49,120.56h0v5.43h0c-.86,0-1.56-.7-1.56-1.56v-2.31c0-.86,.7-1.56,1.56-1.56Z" transform="translate(-97.57 148.99) rotate(-90)"/>
      <path class="cls-8" d="M26.49,100h0v5.43h0c-.86,0-1.56-.7-1.56-1.56v-2.31c0-.86,.7-1.56,1.56-1.56Z" transform="translate(128.42 77) rotate(90)"/>
      <path class="cls-8" d="M49.7,110.28h0v5.43h0c-.86,0-1.56-.7-1.56-1.56v-2.31c0-.86,.7-1.56,1.56-1.56Z" transform="translate(97.84 225.99) rotate(-180)"/>
      <path class="cls-8" d="M49.19,103.49h0v3.62h0c-.58,0-1.05-.47-1.05-1.05v-1.53c0-.58,.47-1.05,1.05-1.05Z" transform="translate(97.33 210.61) rotate(180)"/>
      <path class="cls-8" d="M49.19,118.88h0v3.62h0c-.58,0-1.05-.47-1.05-1.05v-1.53c0-.58,.47-1.05,1.05-1.05Z" transform="translate(97.33 241.38) rotate(-180)"/>
    </g>
    <rect class="cls-13" x="17.17" y="129.8" width="13.6" height="4.56" rx=".92" ry=".92"/>
    <rect class="cls-13" x="17.17" y="3.3" width="13.6" height="4.56" rx=".92" ry=".92"/>
    <g>
      <rect class="cls-2" x="178.79" y="86.27" width="8.57" height="16.7"/>
      <rect class="cls-3" x="178.79" y="86.27" width="8.57" height="16.7"/>
      <rect class="cls-19" x="178.79" y="86.27" width="8.57" height="16.7"/>
      <g>
        <rect class="cls-7" x="181.05" y="88.08" width=".82" height=".82"/>
        <rect class="cls-7" x="184.28" y="88.08" width=".82" height=".82"/>
        <rect class="cls-7" x="181.05" y="91.15" width=".82" height=".82"/>
        <rect class="cls-7" x="184.28" y="91.15" width=".82" height=".82"/>
        <rect class="cls-7" x="181.05" y="94.22" width=".82" height=".82"/>
        <rect class="cls-7" x="184.28" y="94.22" width=".82" height=".82"/>
        <rect class="cls-7" x="181.05" y="97.29" width=".82" height=".82"/>
        <rect class="cls-7" x="184.28" y="97.29" width=".82" height=".82"/>
        <rect class="cls-7" x="181.05" y="100.36" width=".82" height=".82"/>
        <rect class="cls-7" x="184.28" y="100.36" width=".82" height=".82"/>
      </g>
      <rect class="cls-13" x="187.36" y="88.08" width="4.07" height=".82"/>
      <rect class="cls-13" x="187.36" y="91.15" width="4.07" height=".82"/>
      <rect class="cls-13" x="187.36" y="94.22" width="4.07" height=".82"/>
      <rect class="cls-13" x="187.36" y="97.29" width="4.07" height=".82"/>
      <rect class="cls-13" x="187.36" y="100.36" width="4.07" height=".82"/>
      <rect class="cls-13" x="174.73" y="88.08" width="4.07" height=".82"/>
      <rect class="cls-13" x="174.73" y="91.15" width="4.07" height=".82"/>
      <rect class="cls-13" x="174.73" y="94.22" width="4.07" height=".82"/>
      <rect class="cls-13" x="174.73" y="97.29" width="4.07" height=".82"/>
      <rect class="cls-13" x="174.73" y="100.36" width="4.07" height=".82"/>
    </g>
    <g>
      <circle class="cls-11" cx="172.67" cy="52.71" r="2.43"/>
      <circle class="cls-9" cx="172.67" cy="52.71" r="1.25"/>
    </g>
    <g>
      <circle class="cls-11" cx="96.49" cy="90.05" r="2.43"/>
      <circle class="cls-9" cx="96.49" cy="90.05" r="1.25"/>
    </g>
    <g>
      <circle class="cls-11" cx="73.55" cy="32.74" r="2.43"/>
      <circle class="cls-9" cx="73.55" cy="32.74" r="1.25"/>
    </g>
    <path class="cls-9" d="M68.62,128.49c-1.34,0-2.43,1.09-2.43,2.44s1.09,2.43,2.43,2.43,2.44-1.09,2.44-2.43-1.09-2.44-2.44-2.44Zm0,3.68c-.69,0-1.24-.56-1.24-1.24s.55-1.25,1.24-1.25,1.25,.56,1.25,1.25-.56,1.24-1.25,1.24Z"/>
    <path class="cls-9" d="M75.19,128.49c-1.35,0-2.44,1.09-2.44,2.44s1.09,2.43,2.44,2.43,2.43-1.09,2.43-2.43-1.09-2.44-2.43-2.44Zm0,3.68c-.69,0-1.25-.56-1.25-1.24s.56-1.25,1.25-1.25,1.24,.56,1.24,1.25-.55,1.24-1.24,1.24Z"/>
    <path class="cls-9" d="M62.07,128.49c-1.35,0-2.44,1.09-2.44,2.44s1.09,2.43,2.44,2.43,2.43-1.09,2.43-2.43-1.09-2.44-2.43-2.44Zm0,3.68c-.69,0-1.25-.56-1.25-1.24s.56-1.25,1.25-1.25,1.24,.56,1.24,1.25-.55,1.24-1.24,1.24Z"/>
    <g>
      <rect class="cls-14" x="18.26" y="128.52" width="11.39" height="7.12"/>
      <polygon class="cls-12" points="26.23 132.08 26.22 132.33 26.18 132.57 26.11 132.82 26.01 133.05 25.9 133.27 25.76 133.48 25.58 133.66 25.4 133.83 25.2 133.98 24.98 134.11 24.75 134.21 24.52 134.28 24.27 134.33 24.02 134.36 23.77 134.35 23.52 134.31 23.27 134.25 23.04 134.16 22.82 134.05 22.6 133.91 22.41 133.75 22.24 133.57 22.08 133.37 21.96 133.16 21.84 132.93 21.76 132.7 21.71 132.45 21.68 132.2 21.68 131.95 21.71 131.7 21.76 131.46 21.84 131.22 21.96 131 22.08 130.78 22.24 130.58 22.41 130.41 22.6 130.24 22.82 130.11 23.04 129.99 23.27 129.91 23.52 129.84 23.77 129.8 24.02 129.8 24.27 129.82 24.52 129.87 24.75 129.94 24.98 130.04 25.2 130.17 25.4 130.32 25.58 130.49 25.76 130.67 25.9 130.88 26.01 131.1 26.11 131.34 26.18 131.58 26.22 131.83 26.23 132.08"/>
    </g>
    <g>
      <rect class="cls-14" x="18.26" y="2.02" width="11.39" height="7.12"/>
      <polygon class="cls-12" points="26.23 5.58 26.22 5.83 26.18 6.07 26.11 6.32 26.01 6.55 25.9 6.78 25.76 6.98 25.58 7.17 25.4 7.34 25.2 7.49 24.98 7.61 24.75 7.71 24.52 7.78 24.27 7.83 24.02 7.86 23.77 7.85 23.52 7.81 23.27 7.75 23.04 7.66 22.82 7.55 22.6 7.42 22.41 7.25 22.24 7.07 22.08 6.88 21.96 6.66 21.84 6.44 21.76 6.2 21.71 5.96 21.68 5.71 21.68 5.45 21.71 5.2 21.76 4.96 21.84 4.72 21.96 4.5 22.08 4.28 22.24 4.08 22.41 3.91 22.6 3.74 22.82 3.61 23.04 3.49 23.27 3.41 23.52 3.34 23.77 3.31 24.02 3.3 24.27 3.32 24.52 3.37 24.75 3.44 24.98 3.54 25.2 3.67 25.4 3.82 25.58 3.99 25.76 4.17 25.9 4.38 26.01 4.6 26.11 4.84 26.18 5.08 26.22 5.33 26.23 5.58"/>
    </g>
    <rect class="cls-15" x="43.24" y="15.14" width="17.71" height="13.28"/>
    <rect class="cls-15" x="103.28" y="93.13" width="8.99" height="4.81"/>
    <rect class="cls-15" x="117.69" y="90.5" width="9.44" height="6.68"/>
    <g>
      <rect class="cls-13" x="30.33" y="29.38" width="1.19" height=".73"/>
      <rect class="cls-13" x="30.33" y="30.5" width="1.19" height=".73"/>
      <rect class="cls-13" x="30.33" y="31.63" width="1.19" height=".73"/>
      <rect class="cls-13" x="30.33" y="32.75" width="1.19" height=".73"/>
      <rect class="cls-13" x="30.33" y="33.88" width="1.19" height=".73"/>
      <rect class="cls-13" x="30.33" y="35" width="1.19" height=".73"/>
      <rect class="cls-13" x="30.33" y="36.12" width="1.19" height=".73"/>
      <rect class="cls-13" x="30.33" y="37.25" width="1.19" height=".73"/>
      <rect class="cls-13" x="30.33" y="38.2" width="1.19" height=".73"/>
      <rect class="cls-13" x="30.33" y="39.32" width="1.19" height=".73"/>
      <rect class="cls-13" x="30.33" y="40.45" width="1.19" height=".73"/>
      <rect class="cls-13" x="30.33" y="41.57" width="1.19" height=".73"/>
    </g>
    <g>
      <rect class="cls-13" x="46.3" y="84.75" width="4.37" height="2.78"/>
      <rect class="cls-13" x="46.3" y="78.35" width="4.37" height="2.78"/>
      <rect class="cls-13" x="46.3" y="72.2" width="4.37" height="2.78"/>
      <rect class="cls-13" x="46.3" y="65.8" width="4.37" height="2.78"/>
    </g>
    <g>
      <rect class="cls-2" x="131.42" y="106.6" width="7.48" height="3.96" transform="translate(243.75 -26.58) rotate(90)"/>
      <rect class="cls-3" x="131.42" y="106.6" width="7.48" height="3.96" transform="translate(243.75 -26.58) rotate(90)"/>
      <rect class="cls-19" x="131.42" y="106.6" width="7.48" height="3.96" transform="translate(243.75 -26.58) rotate(90)"/>
      <g>
        <path class="cls-18" d="M139.1,106.76h-1.95v-.68h1.95c.19,0,.34,.15,.34,.34s-.15,.34-.34,.34Z"/>
        <path class="cls-18" d="M139.1,108.92h-1.95v-.68h1.95c.19,0,.34,.15,.34,.34s-.15,.34-.34,.34Z"/>
        <path class="cls-18" d="M139.1,111.09h-1.95v-.68h1.95c.19,0,.34,.15,.34,.34s-.15,.34-.34,.34Z"/>
      </g>
      <g>
        <path class="cls-18" d="M131.23,106.76h1.95s0-.68,0-.68h-1.95c-.19,0-.34,.15-.34,.34,0,.18,.15,.34,.34,.34Z"/>
        <path class="cls-18" d="M131.23,108.92h1.95s0-.68,0-.68h-1.95c-.19,0-.34,.15-.34,.34,0,.18,.15,.34,.34,.34Z"/>
        <path class="cls-18" d="M131.23,111.09h1.95s0-.68,0-.68h-1.95c-.19,0-.34,.15-.34,.34,0,.18,.15,.34,.34,.34Z"/>
      </g>
    </g>
    <g>
      <rect class="cls-2" x="78.55" y="103.61" width="5.5" height="4.61" transform="translate(187.21 24.62) rotate(90)"/>
      <rect class="cls-3" x="78.55" y="103.61" width="5.5" height="4.61" transform="translate(187.21 24.62) rotate(90)"/>
      <rect class="cls-19" x="78.55" y="103.61" width="5.5" height="4.61" transform="translate(187.21 24.62) rotate(90)"/>
    </g>
    <g>
      <rect class="cls-14" x="114.35" y="107.18" width="11.05" height="11.05" transform="translate(232.58 -7.17) rotate(90)"/>
      <path class="cls-13" d="M126.13,111.97h0c.41,0,.74,.33,.74,.74v.74h-1.47v-.74c0-.41,.33-.74,.74-.74Z" transform="translate(238.84 -13.43) rotate(90)"/>
      <path class="cls-13" d="M112.88,111.97h1.47v.74c0,.41-.33,.74-.74,.74h0c-.41,0-.74-.33-.74-.74v-.74h0Z" transform="translate(226.32 -.91) rotate(90)"/>
    </g>
    <rect class="cls-13" x="48.48" y="96.7" width="2.99" height="2.99"/>
    <g>
      <rect class="cls-2" x="69.78" y="23.85" width="7.79" height="4.99"/>
      <rect class="cls-3" x="69.78" y="23.85" width="7.79" height="4.99"/>
      <rect class="cls-19" x="69.78" y="23.85" width="7.79" height="4.99"/>
    </g>
    <g>
      <path class="cls-13" d="M36.08,33.94v1.2h-1.71v-1.2c0-.46,.37-.82,.82-.82h.07c.45,0,.82,.36,.82,.82Z"/>
      <path class="cls-13" d="M34.37,38.56h1.71v1.35c0,.45-.37,.82-.82,.82h-.07c-.45,0-.82-.37-.82-.82v-1.35Z"/>
      <rect class="cls-2" x="33.92" y="35.14" width="7.53" height="3.42"/>
      <rect class="cls-3" x="33.92" y="35.14" width="7.53" height="3.42"/>
      <rect class="cls-19" x="33.92" y="35.14" width="7.53" height="3.42"/>
      <path class="cls-13" d="M39.27,38.56h1.71v1.35c0,.45-.37,.82-.82,.82h-.07c-.45,0-.82-.37-.82-.82v-1.35Z"/>
      <path class="cls-13" d="M40.98,33.97v1.1s0,.05-.01,.07h-2.79s-.01-.05-.01-.07v-1.1c0-.47,.39-.85,.86-.85h1.1c.07,0,.13,.01,.19,.02,.32,.08,.58,.33,.64,.66,0,.05,.02,.11,.02,.17Z"/>
    </g>
    <g>
      <path class="cls-13" d="M48.84,51.99h-1.2v-1.71h1.2c.46,0,.82,.37,.82,.82v.07c0,.45-.36,.82-.82,.82Z"/>
      <path class="cls-13" d="M44.22,50.28v1.71h-1.35c-.45,0-.82-.37-.82-.82v-.07c0-.45,.37-.82,.82-.82h1.35Z"/>
      <rect class="cls-2" x="44.22" y="49.83" width="3.42" height="7.53"/>
      <rect class="cls-3" x="44.22" y="49.83" width="3.42" height="7.53"/>
      <rect class="cls-19" x="44.22" y="49.83" width="3.42" height="7.53"/>
      <path class="cls-13" d="M44.22,55.18v1.71h-1.35c-.45,0-.82-.37-.82-.82v-.07c0-.45,.37-.82,.82-.82h1.35Z"/>
      <path class="cls-13" d="M48.81,56.89h-1.1s-.05,0-.07-.01v-2.79s.05-.01,.07-.01h1.1c.47,0,.85,.39,.85,.86v1.1c0,.07-.01,.13-.02,.19-.08,.32-.33,.58-.66,.64-.05,0-.11,.02-.17,.02Z"/>
    </g>
    <g>
      <rect class="cls-2" x="26.51" y="50.41" width="7.03" height="3.96"/>
      <rect class="cls-3" x="26.51" y="50.41" width="7.03" height="3.96"/>
      <rect class="cls-19" x="26.51" y="50.41" width="7.03" height="3.96"/>
      <path class="cls-13" d="M25.26,50.96h1.26v2.86h-1.26c-.39,0-.7-.31-.7-.7v-1.46c0-.39,.31-.7,.7-.7Z"/>
      <path class="cls-13" d="M34.25,50.96h1.26v2.86h-1.26c-.39,0-.7-.31-.7-.7v-1.46c0-.39,.31-.7,.7-.7Z" transform="translate(69.06 104.79) rotate(180)"/>
    </g>
    <rect class="cls-17" x="18.26" y="13.38" width="6.86" height="6.86" rx="1.58" ry="1.58"/>
    <circle class="cls-16" cx="21.69" cy="16.8" r="1.95"/>
    <path class="cls-13" d="M18.69,11.64h3.85c.33,0,.59,.26,.59,.59v1.15h-4.44v-1.74h0Z"/>
    <path class="cls-13" d="M18.69,20.23h4.44v1.15c0,.33-.26,.59-.59,.59h-3.85v-1.74h0Z"/>
    <rect class="cls-13" x="25.11" y="15.41" width="1.67" height="2.78"/>
    <rect class="cls-9" x="35.95" y="131.03" width="2.28" height="2.28"/>
  </g>
  <g id="Livello_3" data-name="Livello 3">
    <g>
      <g>
        <rect class="cls-2" x="222.47" y="29.73" width="13.08" height="78.41"/>
        <rect class="cls-3" x="222.47" y="29.73" width="13.08" height="78.41"/>
        <rect class="cls-19" x="222.47" y="29.73" width="13.08" height="78.41"/>
        <g>
          <rect class="cls-9" x="224.73" y="31.99" width="2.02" height="2.02"/>
          <rect class="cls-9" x="231.27" y="31.99" width="2.02" height="2.02"/>
          <rect class="cls-9" x="231.27" y="38.53" width="2.02" height="2.02"/>
          <rect class="cls-9" x="224.72" y="38.53" width="2.02" height="2.02"/>
          <rect class="cls-9" x="224.72" y="45.08" width="2.02" height="2.02"/>
          <rect class="cls-9" x="231.26" y="45.08" width="2.02" height="2.02"/>
          <rect class="cls-9" x="231.26" y="51.57" width="2.02" height="2.02"/>
          <rect class="cls-9" x="224.73" y="51.57" width="2.02" height="2.02"/>
          <rect class="cls-9" x="224.73" y="58.13" width="2.02" height="2.02"/>
          <rect class="cls-9" x="231.27" y="58.13" width="2.02" height="2.02"/>
          <rect class="cls-9" x="231.27" y="64.66" width="2.02" height="2.02"/>
          <rect class="cls-9" x="224.72" y="64.66" width="2.02" height="2.02"/>
          <rect class="cls-9" x="224.72" y="71.18" width="2.02" height="2.02"/>
          <rect class="cls-9" x="231.27" y="71.18" width="2.02" height="2.02"/>
          <rect class="cls-9" x="231.27" y="77.74" width="2.02" height="2.02"/>
          <rect class="cls-9" x="224.72" y="77.74" width="2.02" height="2.02"/>
          <rect class="cls-9" x="224.72" y="84.25" width="2.02" height="2.02"/>
          <rect class="cls-9" x="231.27" y="84.25" width="2.02" height="2.02"/>
          <rect class="cls-9" x="231.27" y="90.8" width="2.02" height="2.02"/>
          <rect class="cls-9" x="224.73" y="90.8" width="2.02" height="2.02"/>
          <rect class="cls-9" x="224.73" y="97.33" width="2.02" height="2.02"/>
          <rect class="cls-9" x="231.27" y="97.33" width="2.02" height="2.02"/>
          <rect class="cls-9" x="231.27" y="103.87" width="2.02" height="2.02"/>
          <rect class="cls-9" x="224.73" y="103.87" width="2.02" height="2.02"/>
        </g>
      </g>
      <g>
        <g>
          <path class="cls-13" d="M235.55,31.99h3.43c.33,0,.6,.27,.6,.6v.82c0,.33-.27,.6-.6,.6h-3.43v-2.02h0Z"/>
          <path class="cls-13" d="M235.55,38.53h3.43c.33,0,.6,.27,.6,.6v.82c0,.33-.27,.6-.6,.6h-3.43v-2.02h0Z"/>
          <path class="cls-13" d="M235.55,45.08h3.43c.33,0,.6,.27,.6,.6v.82c0,.33-.27,.6-.6,.6h-3.43v-2.02h0Z"/>
        </g>
        <g>
          <path class="cls-13" d="M235.55,51.58h3.43c.33,0,.6,.27,.6,.6v.82c0,.33-.27,.6-.6,.6h-3.43v-2.02h0Z"/>
          <path class="cls-13" d="M235.55,58.11h3.43c.33,0,.6,.27,.6,.6v.82c0,.33-.27,.6-.6,.6h-3.43v-2.02h0Z"/>
          <path class="cls-13" d="M235.55,64.67h3.43c.33,0,.6,.27,.6,.6v.82c0,.33-.27,.6-.6,.6h-3.43v-2.02h0Z"/>
        </g>
        <g>
          <path class="cls-13" d="M235.55,71.2h3.43c.33,0,.6,.27,.6,.6v.82c0,.33-.27,.6-.6,.6h-3.43v-2.02h0Z"/>
          <path class="cls-13" d="M235.55,77.73h3.43c.33,0,.6,.27,.6,.6v.82c0,.33-.27,.6-.6,.6h-3.43v-2.02h0Z"/>
          <path class="cls-13" d="M235.55,84.29h3.43c.33,0,.6,.27,.6,.6v.82c0,.33-.27,.6-.6,.6h-3.43v-2.02h0Z"/>
        </g>
        <g>
          <path class="cls-13" d="M235.55,90.79h3.43c.33,0,.6,.27,.6,.6v.82c0,.33-.27,.6-.6,.6h-3.43v-2.02h0Z"/>
          <path class="cls-13" d="M235.55,97.32h3.43c.33,0,.6,.27,.6,.6v.82c0,.33-.27,.6-.6,.6h-3.43v-2.02h0Z"/>
          <path class="cls-13" d="M235.55,103.88h3.43c.33,0,.6,.27,.6,.6v.82c0,.33-.27,.6-.6,.6h-3.43v-2.02h0Z"/>
        </g>
      </g>
      <g>
        <g>
          <path class="cls-13" d="M218.43,103.88h3.43c.33,0,.6,.27,.6,.6v.82c0,.33-.27,.6-.6,.6h-3.43v-2.02h0Z" transform="translate(440.9 209.77) rotate(180)"/>
          <path class="cls-13" d="M218.43,97.34h3.43c.33,0,.6,.27,.6,.6v.82c0,.33-.27,.6-.6,.6h-3.43v-2.02h0Z" transform="translate(440.9 196.7) rotate(180)"/>
          <path class="cls-13" d="M218.43,90.79h3.43c.33,0,.6,.27,.6,.6v.82c0,.33-.27,.6-.6,.6h-3.43v-2.02h0Z" transform="translate(440.9 183.59) rotate(180)"/>
        </g>
        <g>
          <path class="cls-13" d="M218.43,84.29h3.43c.33,0,.6,.27,.6,.6v.82c0,.33-.27,.6-.6,.6h-3.43v-2.02h0Z" transform="translate(440.9 170.59) rotate(180)"/>
          <path class="cls-13" d="M218.43,77.75h3.43c.33,0,.6,.27,.6,.6v.82c0,.33-.27,.6-.6,.6h-3.43v-2.02h0Z" transform="translate(440.9 157.53) rotate(180)"/>
          <path class="cls-13" d="M218.43,71.2h3.43c.33,0,.6,.27,.6,.6v.82c0,.33-.27,.6-.6,.6h-3.43v-2.02h0Z" transform="translate(440.9 144.41) rotate(180)"/>
        </g>
        <g>
          <path class="cls-13" d="M218.43,64.67h3.43c.33,0,.6,.27,.6,.6v.82c0,.33-.27,.6-.6,.6h-3.43v-2.02h0Z" transform="translate(440.9 131.36) rotate(180)"/>
          <path class="cls-13" d="M218.43,58.14h3.43c.33,0,.6,.27,.6,.6v.82c0,.33-.27,.6-.6,.6h-3.43v-2.02h0Z" transform="translate(440.9 118.29) rotate(180)"/>
          <path class="cls-13" d="M218.43,51.58h3.43c.33,0,.6,.27,.6,.6v.82c0,.33-.27,.6-.6,.6h-3.43v-2.02h0Z" transform="translate(440.9 105.18) rotate(180)"/>
        </g>
        <g>
          <path class="cls-13" d="M218.43,45.08h3.43c.33,0,.6,.27,.6,.6v.82c0,.33-.27,.6-.6,.6h-3.43v-2.02h0Z" transform="translate(440.9 92.18) rotate(180)"/>
          <path class="cls-13" d="M218.43,38.55h3.43c.33,0,.6,.27,.6,.6v.82c0,.33-.27,.6-.6,.6h-3.43v-2.02h0Z" transform="translate(440.9 79.12) rotate(180)"/>
          <path class="cls-13" d="M218.43,31.99h3.43c.33,0,.6,.27,.6,.6v.82c0,.33-.27,.6-.6,.6h-3.43v-2.02h0Z" transform="translate(440.9 66) rotate(180)"/>
        </g>
      </g>
    </g>
    <g>
      <g>
        <rect class="cls-2" x="61.31" y="36.26" width="13.08" height="65.58"/>
        <rect class="cls-3" x="61.31" y="36.26" width="13.08" height="65.58"/>
        <rect class="cls-19" x="61.31" y="36.26" width="13.08" height="65.58"/>
        <g>
          <rect class="cls-9" x="63.57" y="38.51" width="2.02" height="2.02"/>
          <rect class="cls-9" x="70.11" y="38.51" width="2.02" height="2.02"/>
          <rect class="cls-9" x="70.11" y="45.05" width="2.02" height="2.02"/>
          <rect class="cls-9" x="63.56" y="45.05" width="2.02" height="2.02"/>
          <rect class="cls-9" x="63.56" y="51.6" width="2.02" height="2.02"/>
          <rect class="cls-9" x="70.1" y="51.6" width="2.02" height="2.02"/>
          <rect class="cls-9" x="70.1" y="58.1" width="2.02" height="2.02"/>
          <rect class="cls-9" x="63.57" y="58.1" width="2.02" height="2.02"/>
          <rect class="cls-9" x="63.57" y="64.65" width="2.02" height="2.02"/>
          <rect class="cls-9" x="70.11" y="64.65" width="2.02" height="2.02"/>
          <rect class="cls-9" x="70.11" y="71.18" width="2.02" height="2.02"/>
          <rect class="cls-9" x="63.56" y="71.18" width="2.02" height="2.02"/>
          <rect class="cls-9" x="63.56" y="77.71" width="2.02" height="2.02"/>
          <rect class="cls-9" x="70.11" y="77.71" width="2.02" height="2.02"/>
          <rect class="cls-9" x="70.11" y="84.26" width="2.02" height="2.02"/>
          <rect class="cls-9" x="63.56" y="84.26" width="2.02" height="2.02"/>
          <rect class="cls-9" x="63.56" y="90.77" width="2.02" height="2.02"/>
          <rect class="cls-9" x="70.11" y="90.77" width="2.02" height="2.02"/>
          <rect class="cls-9" x="70.11" y="97.32" width="2.02" height="2.02"/>
          <rect class="cls-9" x="63.57" y="97.32" width="2.02" height="2.02"/>
        </g>
      </g>
      <g>
        <g>
          <path class="cls-13" d="M74.39,38.51h3.43c.33,0,.6,.27,.6,.6v.82c0,.33-.27,.6-.6,.6h-3.43v-2.02h0Z"/>
          <path class="cls-13" d="M74.39,45.05h3.43c.33,0,.6,.27,.6,.6v.82c0,.33-.27,.6-.6,.6h-3.43v-2.02h0Z"/>
          <path class="cls-13" d="M74.39,51.6h3.43c.33,0,.6,.27,.6,.6v.82c0,.33-.27,.6-.6,.6h-3.43v-2.02h0Z"/>
        </g>
        <g>
          <path class="cls-13" d="M74.39,58.1h3.43c.33,0,.6,.27,.6,.6v.82c0,.33-.27,.6-.6,.6h-3.43v-2.02h0Z"/>
          <path class="cls-13" d="M74.39,64.64h3.43c.33,0,.6,.27,.6,.6v.82c0,.33-.27,.6-.6,.6h-3.43v-2.02h0Z"/>
          <path class="cls-13" d="M74.39,71.19h3.43c.33,0,.6,.27,.6,.6v.82c0,.33-.27,.6-.6,.6h-3.43v-2.02h0Z"/>
        </g>
        <g>
          <path class="cls-13" d="M74.39,77.72h3.43c.33,0,.6,.27,.6,.6v.82c0,.33-.27,.6-.6,.6h-3.43v-2.02h0Z"/>
          <path class="cls-13" d="M74.39,84.25h3.43c.33,0,.6,.27,.6,.6v.82c0,.33-.27,.6-.6,.6h-3.43v-2.02h0Z"/>
          <path class="cls-13" d="M74.39,90.81h3.43c.33,0,.6,.27,.6,.6v.82c0,.33-.27,.6-.6,.6h-3.43v-2.02h0Z"/>
        </g>
        <path class="cls-13" d="M74.39,97.31h3.43c.33,0,.6,.27,.6,.6v.82c0,.33-.27,.6-.6,.6h-3.43v-2.02h0Z"/>
      </g>
      <g>
        <path class="cls-13" d="M57.27,97.31h3.43c.33,0,.6,.27,.6,.6v.82c0,.33-.27,.6-.6,.6h-3.43v-2.02h0Z" transform="translate(118.58 196.64) rotate(180)"/>
        <g>
          <path class="cls-13" d="M57.27,90.81h3.43c.33,0,.6,.27,.6,.6v.82c0,.33-.27,.6-.6,.6h-3.43v-2.02h0Z" transform="translate(118.58 183.64) rotate(180)"/>
          <path class="cls-13" d="M57.27,84.27h3.43c.33,0,.6,.27,.6,.6v.82c0,.33-.27,.6-.6,.6h-3.43v-2.02h0Z" transform="translate(118.58 170.57) rotate(180)"/>
          <path class="cls-13" d="M57.27,77.72h3.43c.33,0,.6,.27,.6,.6v.82c0,.33-.27,.6-.6,.6h-3.43v-2.02h0Z" transform="translate(118.58 157.46) rotate(180)"/>
        </g>
        <g>
          <path class="cls-13" d="M57.27,71.19h3.43c.33,0,.6,.27,.6,.6v.82c0,.33-.27,.6-.6,.6h-3.43v-2.02h0Z" transform="translate(118.58 144.41) rotate(180)"/>
          <path class="cls-13" d="M57.27,64.66h3.43c.33,0,.6,.27,.6,.6v.82c0,.33-.27,.6-.6,.6h-3.43v-2.02h0Z" transform="translate(118.58 131.34) rotate(180)"/>
          <path class="cls-13" d="M57.27,58.1h3.43c.33,0,.6,.27,.6,.6v.82c0,.33-.27,.6-.6,.6h-3.43v-2.02h0Z" transform="translate(118.58 118.23) rotate(180)"/>
        </g>
        <g>
          <path class="cls-13" d="M57.27,51.6h3.43c.33,0,.6,.27,.6,.6v.82c0,.33-.27,.6-.6,.6h-3.43v-2.02h0Z" transform="translate(118.58 105.23) rotate(180)"/>
          <path class="cls-13" d="M57.27,45.07h3.43c.33,0,.6,.27,.6,.6v.82c0,.33-.27,.6-.6,.6h-3.43v-2.02h0Z" transform="translate(118.58 92.16) rotate(180)"/>
          <path class="cls-13" d="M57.27,38.51h3.43c.33,0,.6,.27,.6,.6v.82c0,.33-.27,.6-.6,.6h-3.43v-2.02h0Z" transform="translate(118.58 79.05) rotate(180)"/>
        </g>
      </g>
    </g>
    <g id="htFNsm.tif">
      <rect class="cls-10" x="10.84" y="60.12" width="35.46" height="33.72"/>
    </g>
    <rect class="cls-10" x="14.36" y="24.75" width="16.41" height="22.82"/>
    <g>
      <rect class="cls-13" x="19.33" y="60.12" width="1.54" height="33.72"/>
      <rect class="cls-13" x="22.4" y="60.12" width="1.54" height="33.72"/>
      <rect class="cls-13" x="25.48" y="60.12" width="1.54" height="33.72"/>
      <rect class="cls-13" x="28.55" y="60.12" width="1.54" height="33.72"/>
      <rect class="cls-13" x="31.61" y="60.12" width="1.54" height="33.72"/>
      <rect class="cls-13" x="34.68" y="60.12" width="1.54" height="33.72"/>
      <rect class="cls-13" x="37.76" y="60.12" width="1.54" height="33.72"/>
      <rect class="cls-13" x="40.83" y="60.12" width="1.54" height="33.72"/>
    </g>
    <g>
      <rect class="cls-13" x="16.96" y="24.75" width="1.54" height="22.82"/>
      <rect class="cls-13" x="20.03" y="24.75" width="1.54" height="22.82"/>
      <rect class="cls-13" x="23.11" y="24.75" width="1.54" height="22.82"/>
      <rect class="cls-13" x="26.18" y="24.75" width="1.54" height="22.82"/>
      <rect class="cls-13" x="29.24" y="24.75" width="1.53" height="22.82"/>
    </g>
    <rect class="cls-13" x="10.84" y="60.12" width="7.04" height="33.72"/>
  </g>
</svg>