<svg xmlns="http://www.w3.org/2000/svg" viewBox="0 0 277.75 137.26"><defs><style>.cls-1{fill:#007e8a}.cls-2{fill:#007481}.cls-3{fill:#e65300}.cls-4{fill:#ea611b}.cls-5{fill:#fff}.cls-6{fill:#f37c42}.cls-7{fill:#e4e5e5}.cls-8{fill:#96999a}.cls-9{fill:#8b7866}.cls-10{fill:#9fa1a2}.cls-11{fill:#9d8d7d}.cls-12{fill:#a1a3a4}.cls-13{fill:#8c9091}.cls-14{fill:#c1c3c3}.cls-15{fill:#a6a9aa}.cls-18{fill:#acaeaf}.cls-19{fill:#171e20}.cls-21{fill:#2b929b}</style></defs><g id="Livello_4" data-name="Livello 4"><path d="M271.21 32.69V6.54L264.67 0H18.64l-.25.04-.24.06-.25.09-.23.11-.21.12-.2.15-.19.17-.17.19-.15.2-.13.22-.11.23-.08.24-.06.24-.04.25-.02.25v132.12l.02.26.04.24.06.25.08.24.11.23.13.21.15.2.17.19.19.17.2.15.21.13.23.11.25.09.24.05.25.04.25.02h249.74l.26-.02.25-.04.24-.05.24-.09.23-.11.21-.13.21-.15.19-.17.17-.19.15-.2.12-.21.11-.23.09-.24.06-.25.04-.24v-.26l.01-.69 6.54-6.54V39.22zM75.19 132.17c-.69 0-1.25-.56-1.25-1.24s.56-1.25 1.25-1.25 1.24.56 1.24 1.25-.55 1.24-1.24 1.24m-6.57 0c-.69 0-1.24-.56-1.24-1.24s.55-1.25 1.24-1.25 1.25.56 1.25 1.25-.56 1.24-1.25 1.24m-6.55 0c-.69 0-1.25-.56-1.25-1.24s.56-1.25 1.25-1.25 1.24.56 1.24 1.25-.55 1.24-1.24 1.24" style="fill:#057582"/><path d="M84.93 127.45v6.54h52.28v-6.54zm4.9 4.91h-3.27v-3.28h3.27zm6.54 0H93.1v-3.28h3.27zm6.54 0h-3.27v-3.28h3.27zm6.53 0h-3.27v-3.28h3.27zm6.54 0h-3.27v-3.28h3.27zm6.53 0h-3.27v-3.28h3.27zm6.54 0h-3.27v-3.28h3.27zm6.53 0h-3.27v-3.28h3.27z" class="cls-13"/><path d="M89.83 129.08h-3.27v3.28h3.27v-3.28M96.37 129.08H93.1v3.28h3.27v-3.28M102.9 129.08h-3.27v3.28h3.27v-3.28M109.44 129.08h-3.27v3.28h3.27v-3.28M115.97 129.08h-3.27v3.28h3.27v-3.28M122.51 129.08h-3.27v3.28h3.27v-3.28M129.04 129.08h-3.27v3.28h3.27v-3.28M135.58 129.08h-3.27v3.28h3.27v-3.28" class="cls-9"/><path d="M74.49 3.28v6.54h52.28V3.28zm4.9 4.91h-3.27V4.91h3.27zm6.54 0h-3.27V4.91h3.27zm6.54 0H89.2V4.91h3.27zm6.53 0h-3.27V4.91H99zm6.54 0h-3.27V4.91h3.27zm6.53 0h-3.27V4.91h3.27zm6.54 0h-3.27V4.91h3.27zm6.53 0h-3.27V4.91h3.27z" class="cls-13"/><path d="M79.39 4.91h-3.26v3.28h3.26V4.91M85.93 4.91h-3.27v3.28h3.27V4.91M92.47 4.91H89.2v3.28h3.27V4.91M99 4.91h-3.27v3.28H99V4.91M105.54 4.91h-3.27v3.28h3.27V4.91M112.07 4.91h-3.27v3.28h3.27V4.91M118.61 4.91h-3.27v3.28h3.27V4.91M125.14 4.91h-3.27v3.28h3.27V4.91" class="cls-9"/><path d="M130.58 3.28v6.54h52.28V3.28zm4.9 4.91h-3.27V4.91h3.27zm6.54 0h-3.27V4.91h3.27zm6.54 0h-3.27V4.91h3.27zm6.53 0h-3.27V4.91h3.27zm6.54 0h-3.27V4.91h3.27zm6.53 0h-3.27V4.91h3.27zm6.54 0h-3.27V4.91h3.27zm6.53 0h-3.27V4.91h3.27z" class="cls-13"/><path d="M135.48 4.91h-3.27v3.28h3.27V4.91M142.02 4.91h-3.27v3.28h3.27V4.91M148.56 4.91h-3.27v3.28h3.27V4.91M155.09 4.91h-3.27v3.28h3.27V4.91M161.63 4.91h-3.27v3.28h3.27V4.91M168.16 4.91h-3.27v3.28h3.27V4.91M174.7 4.91h-3.27v3.28h3.27V4.91M181.23 4.91h-3.27v3.28h3.27V4.91" class="cls-9"/><path d="M189.51 3.28v6.54h52.28V3.28zm4.9 4.91h-3.27V4.91h3.27zm6.54 0h-3.27V4.91h3.27zm6.54 0h-3.27V4.91h3.27zm6.53 0h-3.27V4.91h3.27zm6.54 0h-3.27V4.91h3.27zm6.53 0h-3.27V4.91h3.27zm6.54 0h-3.27V4.91h3.27zm6.53 0h-3.27V4.91h3.27z" class="cls-13"/><path d="M194.41 4.91h-3.27v3.28h3.27V4.91M200.95 4.91h-3.27v3.28h3.27V4.91M207.49 4.91h-3.27v3.28h3.27V4.91M214.02 4.91h-3.27v3.28h3.27V4.91M220.56 4.91h-3.27v3.28h3.27V4.91M227.09 4.91h-3.27v3.28h3.27V4.91M233.63 4.91h-3.27v3.28h3.27V4.91M240.16 4.91h-3.27v3.28h3.27V4.91" class="cls-9"/><path d="M61.38 3.28v6.54h13.11V3.28zm4.95 4.91h-3.27V4.91h3.27zm6.53 0h-3.27V4.91h3.27z" class="cls-13"/><path d="M66.33 4.91h-3.27v3.28h3.27V4.91M72.86 4.91h-3.27v3.28h3.27V4.91" class="cls-9"/><path d="M143.79 127.45v6.54h52.28v-6.54zm4.9 4.91h-3.27v-3.28h3.27zm6.54 0h-3.27v-3.28h3.27zm6.54 0h-3.27v-3.28h3.27zm6.53 0h-3.27v-3.28h3.27zm6.54 0h-3.27v-3.28h3.27zm6.53 0h-3.27v-3.28h3.27zm6.54 0h-3.27v-3.28h3.27zm6.53 0h-3.27v-3.28h3.27z" class="cls-13"/><path d="M148.7 129.08h-3.27v3.28h3.27v-3.28M155.23 129.08h-3.27v3.28h3.27v-3.28M161.77 129.08h-3.27v3.28h3.27v-3.28M168.3 129.08h-3.27v3.28h3.27v-3.28M174.84 129.08h-3.27v3.28h3.27v-3.28M181.37 129.08h-3.27v3.28h3.27v-3.28M187.91 129.08h-3.27v3.28h3.27v-3.28M194.44 129.08h-3.27v3.28h3.27v-3.28" class="cls-9"/><path d="M202.6 127.45v6.54h52.28v-6.54zm4.9 4.91h-3.27v-3.28h3.27zm6.54 0h-3.27v-3.28h3.27zm6.54 0h-3.27v-3.28h3.27zm6.53 0h-3.27v-3.28h3.27zm6.54 0h-3.27v-3.28h3.27zm6.53 0h-3.27v-3.28h3.27zm6.54 0h-3.27v-3.28h3.27zm6.53 0h-3.27v-3.28h3.27z" class="cls-13"/><path d="M207.5 129.08h-3.27v3.28h3.27v-3.28M214.04 129.08h-3.27v3.28h3.27v-3.28M220.58 129.08h-3.27v3.28h3.27v-3.28M227.11 129.08h-3.27v3.28h3.27v-3.28M233.65 129.08h-3.27v3.28h3.27v-3.28M240.18 129.08h-3.27v3.28h3.27v-3.28M246.72 129.08h-3.27v3.28h3.27v-3.28M253.25 129.08h-3.27v3.28h3.27v-3.28" class="cls-9"/><path d="M254.86 3.3v117.62h13.08V3.3zm4.9 115.98h-3.27v-3.27h3.27zm0-6.53h-3.27v-3.28h3.27zm0-6.54h-3.27v-3.27h3.27zm0-6.53h-3.27V96.4h3.27zm0-6.53h-3.27v-3.28h3.27zm0-6.54h-3.27v-3.27h3.27zm0-6.53h-3.27V76.8h3.27zm0-6.54h-3.27v-3.27h3.27zm0-6.53h-3.27v-3.28h3.27zm0-6.54h-3.27V57.2h3.27zm0-6.53h-3.27v-3.27h3.27zm0-6.53h-3.27v-3.28h3.27zm0-6.54h-3.27V37.6h3.27zm0-6.53h-3.27v-3.28h3.27zm0-6.54h-3.27v-3.27h3.27zm0-6.53h-3.27v-3.28h3.27zm0-6.53h-3.27v-3.28h3.27zm0-6.54h-3.27V4.93h3.27zm6.55 111.08h-3.27v-3.27h3.27zm0-6.53h-3.27v-3.28h3.27zm0-6.54h-3.27v-3.27h3.27zm0-6.53h-3.27V96.4h3.27zm0-6.53h-3.27v-3.28h3.27zm0-6.54h-3.27v-3.27h3.27zm0-6.53h-3.27V76.8h3.27zm0-6.54h-3.27v-3.27h3.27zm0-6.53h-3.27v-3.28h3.27zm0-6.54h-3.27V57.2h3.27zm0-6.53h-3.27v-3.27h3.27zm0-6.53h-3.27v-3.28h3.27zm0-6.54h-3.27V37.6h3.27zm0-6.53h-3.27v-3.28h3.27zm0-6.54h-3.27v-3.27h3.27zm0-6.53h-3.27v-3.28h3.27zm0-6.53h-3.27v-3.28h3.27zm0-6.54h-3.27V4.93h3.27z" class="cls-13"/><path d="M259.76 116.01h-3.27v3.27h3.27v-3.27M266.31 116.01h-3.27v3.27h3.27v-3.27M259.76 109.47h-3.27v3.28h3.27v-3.28M266.31 109.47h-3.27v3.28h3.27v-3.28M259.76 102.94h-3.27v3.27h3.27v-3.27M266.31 102.94h-3.27v3.27h3.27v-3.27M259.76 96.4h-3.27v3.28h3.27V96.4M266.31 96.4h-3.27v3.28h3.27V96.4M259.76 89.87h-3.27v3.28h3.27v-3.28M266.31 89.87h-3.27v3.28h3.27v-3.28M259.76 83.34h-3.27v3.27h3.27v-3.27M266.31 83.34h-3.27v3.27h3.27v-3.27M259.76 76.8h-3.27v3.28h3.27V76.8M266.31 76.8h-3.27v3.28h3.27V76.8M259.76 70.27h-3.27v3.27h3.27v-3.27M266.31 70.27h-3.27v3.27h3.27v-3.27M259.76 63.73h-3.27v3.28h3.27v-3.28M266.31 63.73h-3.27v3.28h3.27v-3.28M259.76 57.2h-3.27v3.27h3.27zM266.31 57.2h-3.27v3.27h3.27zM259.76 50.67h-3.27v3.27h3.27v-3.27M266.31 50.67h-3.27v3.27h3.27v-3.27M259.76 44.13h-3.27v3.28h3.27v-3.28M266.31 44.13h-3.27v3.28h3.27v-3.28M259.76 37.6h-3.27v3.27h3.27V37.6M266.31 37.6h-3.27v3.27h3.27V37.6M259.76 31.06h-3.27v3.28h3.27v-3.28M266.31 31.06h-3.27v3.28h3.27v-3.28M259.76 24.53h-3.27v3.27h3.27v-3.27M266.31 24.53h-3.27v3.27h3.27v-3.27M259.76 17.99h-3.27v3.28h3.27v-3.28M266.31 17.99h-3.27v3.28h3.27v-3.28M259.76 11.46h-3.27v3.28h3.27v-3.28M266.31 11.46h-3.27v3.28h3.27v-3.28M259.76 4.93h-3.27V8.2h3.27V4.93M266.31 4.93h-3.27V8.2h3.27V4.93" class="cls-9"/><path d="M126.77 3.28h3.81v6.54h-3.81zM182.86 3.28h6.65v6.54h-6.65zM196.07 127.45h6.53v6.54h-6.53zM137.21 127.45h6.58v6.54h-6.58z" class="cls-13"/><path d="M145.23 109.44c-.48 0-.95.09-1.38.26v-4.26a3.76 3.76 0 0 0 2.77-.01v4.28c-.43-.18-.9-.27-1.39-.27" class="cls-9"/><path d="M145.23 105.71c-.48 0-.95-.09-1.38-.26v-.7h2.77v.69c-.43.18-.9.27-1.39.27M146.62 110.39h-2.77v-.69a3.76 3.76 0 0 1 2.77.01z" class="cls-14"/><path d="M138.53 119.24c-.48 0-.95.09-1.38.26v-4.26a3.76 3.76 0 0 0 2.77-.01v4.28c-.43-.18-.9-.27-1.39-.27" class="cls-9"/><path d="M138.53 115.5c-.48 0-.95-.09-1.38-.26v-.7h2.77v.69c-.43.18-.9.27-1.39.27M139.92 120.19h-2.77v-.69a3.76 3.76 0 0 1 2.77.01z" class="cls-14"/><path d="M148.99 109.44c-.48 0-.95.09-1.38.26v-4.26a3.76 3.76 0 0 0 2.77-.01v4.28c-.43-.18-.9-.27-1.39-.27" class="cls-9"/><path d="M148.99 105.71c-.48 0-.95-.09-1.38-.26v-.7h2.77v.69c-.43.18-.9.27-1.39.27M150.38 110.39h-2.77v-.69a3.76 3.76 0 0 1 2.77.01z" class="cls-14"/><path d="M145.23 102.25c-.48 0-.95.09-1.38.26v-4.26a3.76 3.76 0 0 0 2.77-.01v4.28c-.43-.18-.9-.27-1.39-.27" class="cls-9"/><path d="M145.23 98.51c-.48 0-.95-.09-1.38-.26v-.7h2.77v.69c-.43.18-.9.27-1.39.27M146.62 103.2h-2.77v-.69a3.76 3.76 0 0 1 2.77.01z" class="cls-14"/><path d="M148.99 102.25c-.48 0-.95.09-1.38.26v-4.26a3.76 3.76 0 0 0 2.77-.01v4.28c-.43-.18-.9-.27-1.39-.27" class="cls-9"/><path d="M148.99 98.51c-.48 0-.95-.09-1.38-.26v-.7h2.77v.69c-.43.18-.9.27-1.39.27M150.38 103.2h-2.77v-.69a3.76 3.76 0 0 1 2.77.01z" class="cls-14"/><path d="M90.93 111.84c-.48 0-.95.09-1.38.26v-4.26a3.76 3.76 0 0 0 2.77-.01v4.28c-.43-.18-.9-.27-1.39-.27" class="cls-9"/><path d="M90.93 108.1c-.48 0-.95-.09-1.38-.26v-.7h2.77v.69c-.43.18-.9.27-1.39.27M92.32 112.79h-2.77v-.69a3.76 3.76 0 0 1 2.77.01z" class="cls-14"/><path d="M94.69 111.84c-.48 0-.95.09-1.38.26v-4.26a3.76 3.76 0 0 0 2.77-.01v4.28c-.43-.18-.9-.27-1.39-.27" class="cls-9"/><path d="M94.69 108.1c-.48 0-.95-.09-1.38-.26v-.7h2.77v.69c-.43.18-.9.27-1.39.27M96.09 112.79h-2.77v-.69a3.76 3.76 0 0 1 2.77.01z" class="cls-14"/><path d="M69.17 109.5c-.48 0-.95.09-1.38.26v-4.26a3.76 3.76 0 0 0 2.77-.01v4.28c-.43-.18-.9-.27-1.39-.27" class="cls-9"/><path d="M69.17 105.76c-.48 0-.95-.09-1.38-.26v-.7h2.77v.69c-.43.18-.9.27-1.39.27M70.56 110.45h-2.77v-.69a3.76 3.76 0 0 1 2.77.01z" class="cls-14"/><path d="M72.93 109.5c-.48 0-.95.09-1.38.26v-4.26a3.76 3.76 0 0 0 2.77-.01v4.28c-.43-.18-.9-.27-1.39-.27" class="cls-9"/><path d="M72.93 105.76c-.48 0-.95-.09-1.38-.26v-.7h2.77v.69c-.43.18-.9.27-1.39.27M74.33 110.45h-2.77v-.69a3.76 3.76 0 0 1 2.77.01z" class="cls-14"/><path d="M123.78 104.41c-.48 0-.95.09-1.38.26v-4.26a3.76 3.76 0 0 0 2.77-.01v4.28c-.43-.18-.9-.27-1.39-.27" class="cls-9"/><path d="M123.78 100.67c-.48 0-.95-.09-1.38-.26v-.7h2.77v.69c-.43.18-.9.27-1.39.27M125.18 105.36h-2.77v-.69a3.76 3.76 0 0 1 2.77.01z" class="cls-14"/><path d="M127.55 104.41c-.48 0-.95.09-1.38.26v-4.26a3.76 3.76 0 0 0 2.77-.01v4.28c-.43-.18-.9-.27-1.39-.27" class="cls-9"/><path d="M127.55 100.67c-.48 0-.95-.09-1.38-.26v-.7h2.77v.69c-.43.18-.9.27-1.39.27M128.94 105.36h-2.77v-.69a3.76 3.76 0 0 1 2.77.01z" class="cls-14"/><path d="M115.64 104.41c-.48 0-.95.09-1.38.26v-4.26a3.76 3.76 0 0 0 2.77-.01v4.28c-.43-.18-.9-.27-1.39-.27" class="cls-9"/><path d="M115.64 100.67c-.48 0-.95-.09-1.38-.26v-.7h2.77v.69c-.43.18-.9.27-1.39.27M117.04 105.36h-2.77v-.69a3.76 3.76 0 0 1 2.77.01z" class="cls-14"/><path d="M119.41 104.41c-.48 0-.95.09-1.38.26v-4.26a3.76 3.76 0 0 0 2.77-.01v4.28c-.43-.18-.9-.27-1.39-.27" class="cls-9"/><path d="M119.41 100.67c-.48 0-.95-.09-1.38-.26v-.7h2.77v.69c-.43.18-.9.27-1.39.27M120.8 105.36h-2.77v-.69a3.76 3.76 0 0 1 2.77.01z" class="cls-14"/><path d="M134.22 91.92c-.48 0-.95.09-1.38.26v-4.26a3.76 3.76 0 0 0 2.77-.01v4.28c-.43-.18-.9-.27-1.39-.27" class="cls-2"/><path d="M134.22 91.92c-.48 0-.95.09-1.38.26v-4.26a3.76 3.76 0 0 0 2.77-.01v4.28c-.43-.18-.9-.27-1.39-.27" class="cls-3"/><path d="M134.22 91.92c-.48 0-.95.09-1.38.26v-4.26a3.76 3.76 0 0 0 2.77-.01v4.28c-.43-.18-.9-.27-1.39-.27" class="cls-19"/><path d="M134.22 88.18c-.48 0-.95-.09-1.38-.26v-.7h2.77v.69c-.43.18-.9.27-1.39.27M135.61 92.87h-2.77v-.69a3.76 3.76 0 0 1 2.77.01z" class="cls-14"/><path d="M98.44 111.85c-.48 0-.95.09-1.38.26v-4.26a3.76 3.76 0 0 0 2.77-.01v4.28c-.43-.18-.9-.27-1.39-.27" class="cls-2"/><path d="M98.44 111.85c-.48 0-.95.09-1.38.26v-4.26a3.76 3.76 0 0 0 2.77-.01v4.28c-.43-.18-.9-.27-1.39-.27" class="cls-3"/><path d="M98.44 111.85c-.48 0-.95.09-1.38.26v-4.26a3.76 3.76 0 0 0 2.77-.01v4.28c-.43-.18-.9-.27-1.39-.27" class="cls-19"/><path d="M98.44 108.11c-.48 0-.95-.09-1.38-.26v-.7h2.77v.69c-.43.18-.9.27-1.39.27M99.83 112.8h-2.77v-.69a3.76 3.76 0 0 1 2.77.01z" class="cls-14"/><path d="M110.88 108.32c-.48 0-.95.09-1.38.26v-4.26a3.76 3.76 0 0 0 2.77-.01v4.28c-.43-.18-.9-.27-1.39-.27" class="cls-2"/><path d="M110.88 108.32c-.48 0-.95.09-1.38.26v-4.26a3.76 3.76 0 0 0 2.77-.01v4.28c-.43-.18-.9-.27-1.39-.27" class="cls-3"/><path d="M110.88 108.32c-.48 0-.95.09-1.38.26v-4.26a3.76 3.76 0 0 0 2.77-.01v4.28c-.43-.18-.9-.27-1.39-.27" class="cls-19"/><path d="M110.88 104.58c-.48 0-.95-.09-1.38-.26v-.7h2.77v.69c-.43.18-.9.27-1.39.27M112.27 109.27h-2.77v-.69a3.76 3.76 0 0 1 2.77.01z" class="cls-14"/><path d="M62.48 115.32c-.48 0-.95.09-1.38.26v-4.26a3.76 3.76 0 0 0 2.77-.01v4.28c-.43-.18-.9-.27-1.39-.27" class="cls-2"/><path d="M62.48 115.32c-.48 0-.95.09-1.38.26v-4.26a3.76 3.76 0 0 0 2.77-.01v4.28c-.43-.18-.9-.27-1.39-.27" class="cls-3"/><path d="M62.48 115.32c-.48 0-.95.09-1.38.26v-4.26a3.76 3.76 0 0 0 2.77-.01v4.28c-.43-.18-.9-.27-1.39-.27" class="cls-19"/><path d="M62.48 111.58c-.48 0-.95-.09-1.38-.26v-.7h2.77v.69c-.43.18-.9.27-1.39.27M63.87 116.27H61.1v-.69a3.76 3.76 0 0 1 2.77.01z" class="cls-14"/><path d="M79.42 124.77c0-.48-.09-.95-.26-1.38h4.26a3.76 3.76 0 0 0 .01 2.77h-4.28c.18-.43.27-.9.27-1.39" class="cls-2"/><path d="M79.42 124.77c0-.48-.09-.95-.26-1.38h4.26a3.76 3.76 0 0 0 .01 2.77h-4.28c.18-.43.27-.9.27-1.39" class="cls-3"/><path d="M79.42 124.77c0-.48-.09-.95-.26-1.38h4.26a3.76 3.76 0 0 0 .01 2.77h-4.28c.18-.43.27-.9.27-1.39" class="cls-19"/><path d="M83.15 124.77c0-.48.09-.95.26-1.38h.7v2.77h-.69c-.18-.43-.27-.9-.27-1.39M78.47 126.16v-2.77h.69a3.76 3.76 0 0 1-.01 2.77z" class="cls-14"/><path d="M27.69 99.03c0-.48-.09-.95-.26-1.38h4.26a3.76 3.76 0 0 0 .01 2.77h-4.28c.18-.43.27-.9.27-1.39" class="cls-2"/><path d="M27.69 99.03c0-.48-.09-.95-.26-1.38h4.26a3.76 3.76 0 0 0 .01 2.77h-4.28c.18-.43.27-.9.27-1.39" class="cls-3"/><path d="M27.69 99.03c0-.48-.09-.95-.26-1.38h4.26a3.76 3.76 0 0 0 .01 2.77h-4.28c.18-.43.27-.9.27-1.39" class="cls-19"/><path d="M31.43 99.03c0-.48.09-.95.26-1.38h.7v2.77h-.69c-.18-.43-.27-.9-.27-1.39M26.74 100.42v-2.77h.69a3.76 3.76 0 0 1-.01 2.77z" class="cls-14"/><path d="M35.8 48.22c0-.48-.09-.95-.26-1.38h4.26a3.76 3.76 0 0 0 .01 2.77h-4.28c.18-.43.27-.9.27-1.39" class="cls-2"/><path d="M35.8 48.22c0-.48-.09-.95-.26-1.38h4.26a3.76 3.76 0 0 0 .01 2.77h-4.28c.18-.43.27-.9.27-1.39" class="cls-3"/><path d="M35.8 48.22c0-.48-.09-.95-.26-1.38h4.26a3.76 3.76 0 0 0 .01 2.77h-4.28c.18-.43.27-.9.27-1.39" class="cls-19"/><path d="M39.54 48.22c0-.48.09-.95.26-1.38h.7v2.77h-.69c-.18-.43-.27-.9-.27-1.39M34.85 49.61v-2.77h.69a3.76 3.76 0 0 1-.01 2.77z" class="cls-14"/><path d="M37.03 15.41c0-.48-.09-.95-.26-1.38h4.26a3.76 3.76 0 0 0 .01 2.77h-4.28c.18-.43.27-.9.27-1.39" class="cls-2"/><path d="M37.03 15.41c0-.48-.09-.95-.26-1.38h4.26a3.76 3.76 0 0 0 .01 2.77h-4.28c.18-.43.27-.9.27-1.39" class="cls-3"/><path d="M37.03 15.41c0-.48-.09-.95-.26-1.38h4.26a3.76 3.76 0 0 0 .01 2.77h-4.28c.18-.43.27-.9.27-1.39" class="cls-19"/><path d="M40.77 15.41c0-.48.09-.95.26-1.38h.7v2.77h-.69c-.18-.43-.27-.9-.27-1.39M36.08 16.8v-2.77h.69a3.76 3.76 0 0 1-.01 2.77z" class="cls-14"/><path d="M89.7 32.21c0-.48-.09-.95-.26-1.38h4.26a3.76 3.76 0 0 0 .01 2.77h-4.28c.18-.43.27-.9.27-1.39" class="cls-2"/><path d="M89.7 32.21c0-.48-.09-.95-.26-1.38h4.26a3.76 3.76 0 0 0 .01 2.77h-4.28c.18-.43.27-.9.27-1.39" class="cls-3"/><path d="M89.7 32.21c0-.48-.09-.95-.26-1.38h4.26a3.76 3.76 0 0 0 .01 2.77h-4.28c.18-.43.27-.9.27-1.39" class="cls-19"/><path d="M93.44 32.21c0-.48.09-.95.26-1.38h.7v2.77h-.69c-.18-.43-.27-.9-.27-1.39M88.75 33.6v-2.77h.69a3.76 3.76 0 0 1-.01 2.77z" class="cls-14"/><path d="M97.01 32.21c0-.48-.09-.95-.26-1.38h4.26a3.76 3.76 0 0 0 .01 2.77h-4.28c.18-.43.27-.9.27-1.39" class="cls-2"/><path d="M97.01 32.21c0-.48-.09-.95-.26-1.38h4.26a3.76 3.76 0 0 0 .01 2.77h-4.28c.18-.43.27-.9.27-1.39" class="cls-3"/><path d="M97.01 32.21c0-.48-.09-.95-.26-1.38h4.26a3.76 3.76 0 0 0 .01 2.77h-4.28c.18-.43.27-.9.27-1.39" class="cls-19"/><path d="M100.75 32.21c0-.48.09-.95.26-1.38h.7v2.77h-.69c-.18-.43-.27-.9-.27-1.39M96.06 33.6v-2.77h.69a3.76 3.76 0 0 1-.01 2.77z" class="cls-14"/><path d="M135.07 102.15c0-.48-.09-.95-.26-1.38h4.26a3.76 3.76 0 0 0 .01 2.77h-4.28c.18-.43.27-.9.27-1.39" class="cls-2"/><path d="M135.07 102.15c0-.48-.09-.95-.26-1.38h4.26a3.76 3.76 0 0 0 .01 2.77h-4.28c.18-.43.27-.9.27-1.39" class="cls-3"/><path d="M135.07 102.15c0-.48-.09-.95-.26-1.38h4.26a3.76 3.76 0 0 0 .01 2.77h-4.28c.18-.43.27-.9.27-1.39" class="cls-19"/><path d="M138.81 102.15c0-.48.09-.95.26-1.38h.7v2.77h-.69c-.18-.43-.27-.9-.27-1.39M134.12 103.55v-2.77h.69a3.76 3.76 0 0 1-.01 2.77z" class="cls-14"/><path d="M134.38 95.22c0-.48-.09-.95-.26-1.38h4.26a3.76 3.76 0 0 0 .01 2.77h-4.28c.18-.43.27-.9.27-1.39" class="cls-2"/><path d="M134.38 95.22c0-.48-.09-.95-.26-1.38h4.26a3.76 3.76 0 0 0 .01 2.77h-4.28c.18-.43.27-.9.27-1.39" class="cls-3"/><path d="M134.38 95.22c0-.48-.09-.95-.26-1.38h4.26a3.76 3.76 0 0 0 .01 2.77h-4.28c.18-.43.27-.9.27-1.39" class="cls-19"/><path d="M138.12 95.22c0-.48.09-.95.26-1.38h.7v2.77h-.69c-.18-.43-.27-.9-.27-1.39M133.43 96.62v-2.77h.69a3.76 3.76 0 0 1-.01 2.77z" class="cls-14"/><path d="M109.43 88.85c0-.33-.06-.64-.18-.94h2.89c-.11.29-.18.61-.18.94s.06.65.19.94h-2.91c.12-.29.19-.61.19-.94" class="cls-2"/><path d="M109.43 88.85c0-.33-.06-.64-.18-.94h2.89c-.11.29-.18.61-.18.94s.06.65.19.94h-2.91c.12-.29.19-.61.19-.94" class="cls-3"/><path d="M109.43 88.85c0-.33-.06-.64-.18-.94h2.89c-.11.29-.18.61-.18.94s.06.65.19.94h-2.91c.12-.29.19-.61.19-.94" class="cls-19"/><path d="M111.97 88.85c0-.33.06-.64.18-.94h.48v1.88h-.47c-.12-.29-.19-.61-.19-.94M108.79 89.79v-1.88h.47c.11.29.18.61.18.94s-.06.65-.19.94z" class="cls-14"/><path d="M37.38 52.39c0-.33-.06-.64-.18-.94h2.89c-.11.29-.18.61-.18.94s.06.65.19.94h-2.91c.12-.29.19-.61.19-.94" class="cls-2"/><path d="M37.38 52.39c0-.33-.06-.64-.18-.94h2.89c-.11.29-.18.61-.18.94s.06.65.19.94h-2.91c.12-.29.19-.61.19-.94" class="cls-3"/><path d="M37.38 52.39c0-.33-.06-.64-.18-.94h2.89c-.11.29-.18.61-.18.94s.06.65.19.94h-2.91c.12-.29.19-.61.19-.94" class="cls-19"/><path d="M39.92 52.39c0-.33.06-.64.18-.94h.48v1.88h-.47c-.12-.29-.19-.61-.19-.94M36.74 53.34v-1.88h.47c.11.29.18.61.18.94s-.06.65-.19.94z" class="cls-14"/><path d="M103.28 77.87c.33 0 .64-.06.94-.18v2.89c-.29-.11-.61-.18-.94-.18s-.65.06-.94.19v-2.91c.29.12.61.19.94.19" class="cls-2"/><path d="M103.28 77.87c.33 0 .64-.06.94-.18v2.89c-.29-.11-.61-.18-.94-.18s-.65.06-.94.19v-2.91c.29.12.61.19.94.19" class="cls-3"/><path d="M103.28 77.87c.33 0 .64-.06.94-.18v2.89c-.29-.11-.61-.18-.94-.18s-.65.06-.94.19v-2.91c.29.12.61.19.94.19" class="cls-19"/><path d="M103.28 80.41c.33 0 .64.06.94.18v.48h-1.88v-.47c.29-.12.61-.19.94-.19M102.33 77.23h1.88v.47c-.29.11-.61.18-.94.18s-.65-.06-.94-.19z" class="cls-14"/><path d="M66.84 23.49c.33 0 .64-.06.94-.18v2.89c-.29-.11-.61-.18-.94-.18s-.65.06-.94.19V23.3c.29.12.61.19.94.19" class="cls-2"/><path d="M66.84 23.49c.33 0 .64-.06.94-.18v2.89c-.29-.11-.61-.18-.94-.18s-.65.06-.94.19V23.3c.29.12.61.19.94.19" class="cls-3"/><path d="M66.84 23.49c.33 0 .64-.06.94-.18v2.89c-.29-.11-.61-.18-.94-.18s-.65.06-.94.19V23.3c.29.12.61.19.94.19" class="cls-19"/><path d="M66.84 26.02c.33 0 .64.06.94.18v.48H65.9v-.47c.29-.12.61-.19.94-.19M65.89 22.84h1.88v.47c-.29.11-.61.18-.94.18s-.65-.06-.94-.19z" class="cls-14"/><path d="M34.53 29.07c.33 0 .64-.06.94-.18v2.89c-.29-.11-.61-.18-.94-.18s-.65.06-.94.19v-2.91c.29.12.61.19.94.19" class="cls-2"/><path d="M34.53 29.07c.33 0 .64-.06.94-.18v2.89c-.29-.11-.61-.18-.94-.18s-.65.06-.94.19v-2.91c.29.12.61.19.94.19" class="cls-3"/><path d="M34.53 29.07c.33 0 .64-.06.94-.18v2.89c-.29-.11-.61-.18-.94-.18s-.65.06-.94.19v-2.91c.29.12.61.19.94.19" class="cls-19"/><path d="M34.53 31.61c.33 0 .64.06.94.18v.48h-1.88v-.47c.29-.12.61-.19.94-.19M33.59 28.43h1.88v.47c-.29.11-.61.18-.94.18s-.65-.06-.94-.19z" class="cls-14"/><path d="M37.23 29.07c.33 0 .64-.06.94-.18v2.89c-.29-.11-.61-.18-.94-.18s-.65.06-.94.19v-2.91c.29.12.61.19.94.19" class="cls-2"/><path d="M37.23 29.07c.33 0 .64-.06.94-.18v2.89c-.29-.11-.61-.18-.94-.18s-.65.06-.94.19v-2.91c.29.12.61.19.94.19" class="cls-3"/><path d="M37.23 29.07c.33 0 .64-.06.94-.18v2.89c-.29-.11-.61-.18-.94-.18s-.65.06-.94.19v-2.91c.29.12.61.19.94.19" class="cls-19"/><path d="M37.23 31.61c.33 0 .64.06.94.18v.48h-1.88v-.47c.29-.12.61-.19.94-.19M36.29 28.43h1.88v.47c-.29.11-.61.18-.94.18s-.65-.06-.94-.19z" class="cls-14"/><path d="M82.67 110.19c.33 0 .64-.06.94-.18v2.89c-.29-.11-.61-.18-.94-.18s-.65.06-.94.19V110c.29.12.61.19.94.19" class="cls-2"/><path d="M82.67 110.19c.33 0 .64-.06.94-.18v2.89c-.29-.11-.61-.18-.94-.18s-.65.06-.94.19V110c.29.12.61.19.94.19" class="cls-3"/><path d="M82.67 110.19c.33 0 .64-.06.94-.18v2.89c-.29-.11-.61-.18-.94-.18s-.65.06-.94.19V110c.29.12.61.19.94.19" class="cls-19"/><path d="M82.67 112.72c.33 0 .64.06.94.18v.48h-1.88v-.47c.29-.12.61-.19.94-.19M81.72 109.54h1.88v.47c-.29.11-.61.18-.94.18s-.65-.06-.94-.19z" class="cls-14"/><path d="M75.72 110.19c.33 0 .64-.06.94-.18v2.89c-.29-.11-.61-.18-.94-.18s-.65.06-.94.19V110c.29.12.61.19.94.19" class="cls-2"/><path d="M75.72 110.19c.33 0 .64-.06.94-.18v2.89c-.29-.11-.61-.18-.94-.18s-.65.06-.94.19V110c.29.12.61.19.94.19" class="cls-3"/><path d="M75.72 110.19c.33 0 .64-.06.94-.18v2.89c-.29-.11-.61-.18-.94-.18s-.65.06-.94.19V110c.29.12.61.19.94.19" class="cls-19"/><path d="M75.72 112.72c.33 0 .64.06.94.18v.48h-1.88v-.47c.29-.12.61-.19.94-.19M74.78 109.54h1.88v.47c-.29.11-.61.18-.94.18s-.65-.06-.94-.19z" class="cls-14"/><path d="M57.4 102.49c.33 0 .64-.06.94-.18v2.89c-.29-.11-.61-.18-.94-.18s-.65.06-.94.19v-2.91c.29.12.61.19.94.19" class="cls-2"/><path d="M57.4 102.49c.33 0 .64-.06.94-.18v2.89c-.29-.11-.61-.18-.94-.18s-.65.06-.94.19v-2.91c.29.12.61.19.94.19" class="cls-3"/><path d="M57.4 102.49c.33 0 .64-.06.94-.18v2.89c-.29-.11-.61-.18-.94-.18s-.65.06-.94.19v-2.91c.29.12.61.19.94.19" class="cls-19"/><path d="M57.4 105.02c.33 0 .64.06.94.18v.48h-1.88v-.47c.29-.12.61-.19.94-.19M56.45 101.84h1.88v.47c-.29.11-.61.18-.94.18s-.65-.06-.94-.19z" class="cls-14"/><path d="M54.79 102.49c.33 0 .64-.06.94-.18v2.89c-.29-.11-.61-.18-.94-.18s-.65.06-.94.19v-2.91c.29.12.61.19.94.19" class="cls-13"/><path d="M54.79 105.02c.33 0 .64.06.94.18v.48h-1.88v-.47c.29-.12.61-.19.94-.19M53.84 101.84h1.88v.47c-.29.11-.61.18-.94.18s-.65-.06-.94-.19z" class="cls-14"/><path d="M142.04 102.63c.33 0 .64-.06.94-.18v2.89c-.29-.11-.61-.18-.94-.18s-.65.06-.94.19v-2.91c.29.12.61.19.94.19" class="cls-2"/><path d="M142.04 102.63c.33 0 .64-.06.94-.18v2.89c-.29-.11-.61-.18-.94-.18s-.65.06-.94.19v-2.91c.29.12.61.19.94.19" class="cls-3"/><path d="M142.04 102.63c.33 0 .64-.06.94-.18v2.89c-.29-.11-.61-.18-.94-.18s-.65.06-.94.19v-2.91c.29.12.61.19.94.19" class="cls-19"/><path d="M142.04 105.17c.33 0 .64.06.94.18v.48h-1.88v-.47c.29-.12.61-.19.94-.19M141.1 101.99h1.88v.47c-.29.11-.61.18-.94.18s-.65-.06-.94-.19z" class="cls-14"/><path d="M142.04 115.43c.33 0 .64-.06.94-.18v2.89c-.29-.11-.61-.18-.94-.18s-.65.06-.94.19v-2.91c.29.12.61.19.94.19" class="cls-2"/><path d="M142.04 115.43c.33 0 .64-.06.94-.18v2.89c-.29-.11-.61-.18-.94-.18s-.65.06-.94.19v-2.91c.29.12.61.19.94.19" class="cls-3"/><path d="M142.04 115.43c.33 0 .64-.06.94-.18v2.89c-.29-.11-.61-.18-.94-.18s-.65.06-.94.19v-2.91c.29.12.61.19.94.19" class="cls-19"/><path d="M142.04 117.97c.33 0 .64.06.94.18v.48h-1.88v-.47c.29-.12.61-.19.94-.19M141.1 114.79h1.88v.47c-.29.11-.61.18-.94.18s-.65-.06-.94-.19z" class="cls-14"/><path d="M135.18 115.5c0 .33.06.64.18.94h-2.89c.11-.29.18-.61.18-.94s-.06-.65-.19-.94h2.91c-.12.29-.19.61-.19.94" class="cls-2"/><path d="M135.18 115.5c0 .33.06.64.18.94h-2.89c.11-.29.18-.61.18-.94s-.06-.65-.19-.94h2.91c-.12.29-.19.61-.19.94" class="cls-3"/><path d="M135.18 115.5c0 .33.06.64.18.94h-2.89c.11-.29.18-.61.18-.94s-.06-.65-.19-.94h2.91c-.12.29-.19.61-.19.94" class="cls-19"/><path d="M132.64 115.5c0 .33-.06.64-.18.94h-.48v-1.88h.47c.12.29.19.61.19.94M135.82 114.56v1.88h-.47c-.11-.29-.18-.61-.18-.94s.06-.65.19-.94z" class="cls-14"/><path d="M88.04 108.11c0 .33.06.64.18.94h-2.89c.11-.29.18-.61.18-.94s-.06-.65-.19-.94h2.91c-.12.29-.19.61-.19.94" class="cls-2"/><path d="M88.04 108.11c0 .33.06.64.18.94h-2.89c.11-.29.18-.61.18-.94s-.06-.65-.19-.94h2.91c-.12.29-.19.61-.19.94" class="cls-3"/><path d="M88.04 108.11c0 .33.06.64.18.94h-2.89c.11-.29.18-.61.18-.94s-.06-.65-.19-.94h2.91c-.12.29-.19.61-.19.94" class="cls-19"/><path d="M85.5 108.11c0 .33-.06.64-.18.94h-.48v-1.88h.47c.12.29.19.61.19.94M88.68 107.17v1.88h-.47c-.11-.29-.18-.61-.18-.94s.06-.65.19-.94z" class="cls-14"/><path d="M33.04 18.64c-.23.23-.41.5-.54.79l-2.04-2.04c.29-.12.56-.31.79-.54s.42-.51.54-.8l2.05 2.05c-.29.12-.56.3-.8.54" class="cls-2"/><path d="M33.04 18.64c-.23.23-.41.5-.54.79l-2.04-2.04c.29-.12.56-.31.79-.54s.42-.51.54-.8l2.05 2.05c-.29.12-.56.3-.8.54" class="cls-3"/><path d="M33.04 18.64c-.23.23-.41.5-.54.79l-2.04-2.04c.29-.12.56-.31.79-.54s.42-.51.54-.8l2.05 2.05c-.29.12-.56.3-.8.54" class="cls-19"/><path d="M31.24 16.85c-.23.23-.5.41-.79.54l-.34-.34 1.33-1.33.33.33c-.12.29-.3.56-.54.8ZM34.16 18.43l-1.33 1.33-.33-.33c.12-.29.31-.56.54-.79s.51-.42.8-.54l.32.32Z" class="cls-14"/><path d="M42.99 126.59c0 .33.06.64.18.94h-2.89c.11-.29.18-.61.18-.94s-.06-.65-.19-.94h2.91c-.12.29-.19.61-.19.94" class="cls-2"/><path d="M42.99 126.59c0 .33.06.64.18.94h-2.89c.11-.29.18-.61.18-.94s-.06-.65-.19-.94h2.91c-.12.29-.19.61-.19.94" class="cls-3"/><path d="M42.99 126.59c0 .33.06.64.18.94h-2.89c.11-.29.18-.61.18-.94s-.06-.65-.19-.94h2.91c-.12.29-.19.61-.19.94" class="cls-19"/><path d="M40.45 126.59c0 .33-.06.64-.18.94h-.48v-1.88h.47c.12.29.19.61.19.94M43.63 125.64v1.88h-.47c-.11-.29-.18-.61-.18-.94s.06-.65.19-.94z" class="cls-14"/><path d="M42.99 129.41c0 .33.06.64.18.94h-2.89c.11-.29.18-.61.18-.94s-.06-.65-.19-.94h2.91c-.12.29-.19.61-.19.94" class="cls-2"/><path d="M42.99 129.41c0 .33.06.64.18.94h-2.89c.11-.29.18-.61.18-.94s-.06-.65-.19-.94h2.91c-.12.29-.19.61-.19.94" class="cls-3"/><path d="M42.99 129.41c0 .33.06.64.18.94h-2.89c.11-.29.18-.61.18-.94s-.06-.65-.19-.94h2.91c-.12.29-.19.61-.19.94" class="cls-19"/><path d="M40.45 129.41c0 .33-.06.64-.18.94h-.48v-1.88h.47c.12.29.19.61.19.94M43.63 128.46v1.88h-.47c-.11-.29-.18-.61-.18-.94s.06-.65.19-.94z" class="cls-14"/><path d="M42.99 132.27c0 .33.06.64.18.94h-2.89c.11-.29.18-.61.18-.94s-.06-.65-.19-.94h2.91c-.12.29-.19.61-.19.94" class="cls-2"/><path d="M42.99 132.27c0 .33.06.64.18.94h-2.89c.11-.29.18-.61.18-.94s-.06-.65-.19-.94h2.91c-.12.29-.19.61-.19.94" class="cls-3"/><path d="M42.99 132.27c0 .33.06.64.18.94h-2.89c.11-.29.18-.61.18-.94s-.06-.65-.19-.94h2.91c-.12.29-.19.61-.19.94" class="cls-19"/><path d="M40.45 132.27c0 .33-.06.64-.18.94h-.48v-1.88h.47c.12.29.19.61.19.94M43.63 131.32v1.88h-.47c-.11-.29-.18-.61-.18-.94s.06-.65.19-.94z" class="cls-14"/><path d="M42.99 135.13c0 .33.06.64.18.94h-2.89c.11-.29.18-.61.18-.94s-.06-.65-.19-.94h2.91c-.12.29-.19.61-.19.94" class="cls-2"/><path d="M42.99 135.13c0 .33.06.64.18.94h-2.89c.11-.29.18-.61.18-.94s-.06-.65-.19-.94h2.91c-.12.29-.19.61-.19.94" class="cls-3"/><path d="M42.99 135.13c0 .33.06.64.18.94h-2.89c.11-.29.18-.61.18-.94s-.06-.65-.19-.94h2.91c-.12.29-.19.61-.19.94" class="cls-19"/><path d="M40.45 135.13c0 .33-.06.64-.18.94h-.48v-1.88h.47c.12.29.19.61.19.94M43.63 134.19v1.88h-.47c-.11-.29-.18-.61-.18-.94s.06-.65.19-.94z" class="cls-14"/><path d="M196.81 101.19c0 .33.06.64.18.94h-2.89c.11-.29.18-.61.18-.94s-.06-.65-.19-.94H197c-.12.29-.19.61-.19.94" class="cls-2"/><path d="M196.81 101.19c0 .33.06.64.18.94h-2.89c.11-.29.18-.61.18-.94s-.06-.65-.19-.94H197c-.12.29-.19.61-.19.94" class="cls-3"/><path d="M196.81 101.19c0 .33.06.64.18.94h-2.89c.11-.29.18-.61.18-.94s-.06-.65-.19-.94H197c-.12.29-.19.61-.19.94" class="cls-19"/><path d="M194.28 101.19c0 .33-.06.64-.18.94h-.48v-1.88h.47c.12.29.19.61.19.94M197.46 100.24v1.88h-.47c-.11-.29-.18-.61-.18-.94s.06-.65.19-.94z" class="cls-14"/><path d="M120.77 42.76c.33 0 .64-.06.94-.18v2.89c-.29-.11-.61-.18-.94-.18s-.65.06-.94.19v-2.91c.29.12.61.19.94.19" class="cls-2"/><path d="M120.77 42.76c.33 0 .64-.06.94-.18v2.89c-.29-.11-.61-.18-.94-.18s-.65.06-.94.19v-2.91c.29.12.61.19.94.19" class="cls-3"/><path d="M120.77 42.76c.33 0 .64-.06.94-.18v2.89c-.29-.11-.61-.18-.94-.18s-.65.06-.94.19v-2.91c.29.12.61.19.94.19" class="cls-19"/><path d="M120.77 45.3c.33 0 .64.06.94.18v.48h-1.88v-.47c.29-.12.61-.19.94-.19M119.82 42.12h1.88v.47c-.29.11-.61.18-.94.18s-.65-.06-.94-.19z" class="cls-14"/><path d="M103.28 72.94c.33 0 .64-.06.94-.18v2.89c-.29-.11-.61-.18-.94-.18s-.65.06-.94.19v-2.91c.29.12.61.19.94.19" class="cls-9"/><path d="M103.28 75.47c.33 0 .64.06.94.18v.48h-1.88v-.47c.29-.12.61-.19.94-.19M102.33 72.29h1.88v.47c-.29.11-.61.18-.94.18s-.65-.06-.94-.19z" class="cls-14"/><path d="M103.28 68c.33 0 .64-.06.94-.18v2.89c-.29-.11-.61-.18-.94-.18s-.65.06-.94.19v-2.91c.29.12.61.19.94.19" class="cls-9"/><path d="M103.28 70.54c.33 0 .64.06.94.18v.48h-1.88v-.47c.29-.12.61-.19.94-.19M102.33 67.36h1.88v.47c-.29.11-.61.18-.94.18s-.65-.06-.94-.19z" class="cls-14"/><path d="M130.92 87.87c.33 0 .64-.06.94-.18v2.89c-.29-.11-.61-.18-.94-.18s-.65.06-.94.19v-2.91c.29.12.61.19.94.19" class="cls-9"/><path d="M130.92 90.4c.33 0 .64.06.94.18v.48h-1.88v-.47c.29-.12.61-.19.94-.19M129.97 87.22h1.88v.47c-.29.11-.61.18-.94.18s-.65-.06-.94-.19z" class="cls-14"/><path d="M145.49 83.85c.33 0 .64-.06.94-.18v2.89c-.29-.11-.61-.18-.94-.18s-.65.06-.94.19v-2.91c.29.12.61.19.94.19" class="cls-9"/><path d="M145.49 86.39c.33 0 .64.06.94.18v.48h-1.88v-.47c.29-.12.61-.19.94-.19M144.55 83.21h1.88v.47c-.29.11-.61.18-.94.18s-.65-.06-.94-.19z" class="cls-14"/><path d="M142.04 109.3c.33 0 .64-.06.94-.18v2.89c-.29-.11-.61-.18-.94-.18s-.65.06-.94.19v-2.91c.29.12.61.19.94.19" class="cls-9"/><path d="M142.04 111.83c.33 0 .64.06.94.18v.48h-1.88v-.47c.29-.12.61-.19.94-.19M141.1 108.65h1.88v.47c-.29.11-.61.18-.94.18s-.65-.06-.94-.19z" class="cls-14"/><path d="M128.5 109.12c.33 0 .64-.06.94-.18v2.89c-.29-.11-.61-.18-.94-.18s-.65.06-.94.19v-2.91c.29.12.61.19.94.19" class="cls-9"/><path d="M128.5 111.66c.33 0 .64.06.94.18v.48h-1.88v-.47c.29-.12.61-.19.94-.19M127.55 108.48h1.88v.47c-.29.11-.61.18-.94.18s-.65-.06-.94-.19z" class="cls-14"/><path d="M130.89 100.01c.33 0 .64-.06.94-.18v2.89c-.29-.11-.61-.18-.94-.18s-.65.06-.94.19v-2.91c.29.12.61.19.94.19" class="cls-9"/><path d="M130.89 102.55c.33 0 .64.06.94.18v.48h-1.88v-.47c.29-.12.61-.19.94-.19M129.95 99.37h1.88v.47c-.29.11-.61.18-.94.18s-.65-.06-.94-.19z" class="cls-14"/><path d="M102.43 42.77c.33 0 .64-.06.94-.18v2.89c-.29-.11-.61-.18-.94-.18s-.65.06-.94.19v-2.91c.29.12.61.19.94.19" class="cls-9"/><path d="M102.43 45.3c.33 0 .64.06.94.18v.48h-1.88v-.47c.29-.12.61-.19.94-.19M101.49 42.12h1.88v.47c-.29.11-.61.18-.94.18s-.65-.06-.94-.19z" class="cls-14"/><path d="M104.97 42.77c.33 0 .64-.06.94-.18v2.89c-.29-.11-.61-.18-.94-.18s-.65.06-.94.19v-2.91c.29.12.61.19.94.19" class="cls-9"/><path d="M104.97 45.3c.33 0 .64.06.94.18v.48h-1.88v-.47c.29-.12.61-.19.94-.19M104.02 42.12h1.88v.47c-.29.11-.61.18-.94.18s-.65-.06-.94-.19z" class="cls-14"/><path d="M107.54 42.77c.33 0 .64-.06.94-.18v2.89c-.29-.11-.61-.18-.94-.18s-.65.06-.94.19v-2.91c.29.12.61.19.94.19" class="cls-9"/><path d="M107.54 45.3c.33 0 .64.06.94.18v.48h-1.88v-.47c.29-.12.61-.19.94-.19M106.59 42.12h1.88v.47c-.29.11-.61.18-.94.18s-.65-.06-.94-.19z" class="cls-14"/><path d="M110.15 42.77c.33 0 .64-.06.94-.18v2.89c-.29-.11-.61-.18-.94-.18s-.65.06-.94.19v-2.91c.29.12.61.19.94.19" class="cls-9"/><path d="M110.15 45.3c.33 0 .64.06.94.18v.48h-1.88v-.47c.29-.12.61-.19.94-.19M109.2 42.12h1.88v.47c-.29.11-.61.18-.94.18s-.65-.06-.94-.19z" class="cls-14"/><path d="M112.76 42.77c.33 0 .64-.06.94-.18v2.89c-.29-.11-.61-.18-.94-.18s-.65.06-.94.19v-2.91c.29.12.61.19.94.19" class="cls-9"/><path d="M112.76 45.3c.33 0 .64.06.94.18v.48h-1.88v-.47c.29-.12.61-.19.94-.19M111.81 42.12h1.88v.47c-.29.11-.61.18-.94.18s-.65-.06-.94-.19z" class="cls-14"/><path d="M118.07 42.77c.33 0 .64-.06.94-.18v2.89c-.29-.11-.61-.18-.94-.18s-.65.06-.94.19v-2.91c.29.12.61.19.94.19" class="cls-9"/><path d="M118.07 45.3c.33 0 .64.06.94.18v.48h-1.88v-.47c.29-.12.61-.19.94-.19M117.12 42.12H119v.47c-.29.11-.61.18-.94.18s-.65-.06-.94-.19z" class="cls-14"/><path d="M132.43 42.77c.33 0 .64-.06.94-.18v2.89c-.29-.11-.61-.18-.94-.18s-.65.06-.94.19v-2.91c.29.12.61.19.94.19" class="cls-9"/><path d="M132.43 45.3c.33 0 .64.06.94.18v.48h-1.88v-.47c.29-.12.61-.19.94-.19M131.48 42.12h1.88v.47c-.29.11-.61.18-.94.18s-.65-.06-.94-.19z" class="cls-14"/><path d="M135.22 42.77c.33 0 .64-.06.94-.18v2.89c-.29-.11-.61-.18-.94-.18s-.65.06-.94.19v-2.91c.29.12.61.19.94.19" class="cls-9"/><path d="M135.22 45.3c.33 0 .64.06.94.18v.48h-1.88v-.47c.29-.12.61-.19.94-.19M134.28 42.12h1.88v.47c-.29.11-.61.18-.94.18s-.65-.06-.94-.19z" class="cls-14"/><path d="M142.76 42.77c.33 0 .64-.06.94-.18v2.89c-.29-.11-.61-.18-.94-.18s-.65.06-.94.19v-2.91c.29.12.61.19.94.19" class="cls-9"/><path d="M142.76 45.3c.33 0 .64.06.94.18v.48h-1.88v-.47c.29-.12.61-.19.94-.19M141.82 42.12h1.88v.47c-.29.11-.61.18-.94.18s-.65-.06-.94-.19z" class="cls-14"/><path d="M145.56 42.77c.33 0 .64-.06.94-.18v2.89c-.29-.11-.61-.18-.94-.18s-.65.06-.94.19v-2.91c.29.12.61.19.94.19" class="cls-9"/><path d="M145.56 45.3c.33 0 .64.06.94.18v.48h-1.88v-.47c.29-.12.61-.19.94-.19M144.61 42.12h1.88v.47c-.29.11-.61.18-.94.18s-.65-.06-.94-.19z" class="cls-14"/><path d="M151.26 42.77c.33 0 .64-.06.94-.18v2.89c-.29-.11-.61-.18-.94-.18s-.65.06-.94.19v-2.91c.29.12.61.19.94.19" class="cls-9"/><path d="M151.26 45.3c.33 0 .64.06.94.18v.48h-1.88v-.47c.29-.12.61-.19.94-.19M150.31 42.12h1.88v.47c-.29.11-.61.18-.94.18s-.65-.06-.94-.19z" class="cls-14"/><path d="M148.16 42.77c.33 0 .64-.06.94-.18v2.89c-.29-.11-.61-.18-.94-.18s-.65.06-.94.19v-2.91c.29.12.61.19.94.19" class="cls-9"/><path d="M148.16 45.3c.33 0 .64.06.94.18v.48h-1.88v-.47c.29-.12.61-.19.94-.19M147.21 42.12h1.88v.47c-.29.11-.61.18-.94.18s-.65-.06-.94-.19z" class="cls-14"/><path d="M154.05 42.77c.33 0 .64-.06.94-.18v2.89c-.29-.11-.61-.18-.94-.18s-.65.06-.94.19v-2.91c.29.12.61.19.94.19" class="cls-9"/><path d="M154.05 45.3c.33 0 .64.06.94.18v.48h-1.88v-.47c.29-.12.61-.19.94-.19M153.11 42.12h1.88v.47c-.29.11-.61.18-.94.18s-.65-.06-.94-.19z" class="cls-14"/><path d="M146.51 58.3c0 .33.06.64.18.94h-2.89c.11-.29.18-.61.18-.94s-.06-.65-.19-.94h2.91c-.12.29-.19.61-.19.94" class="cls-9"/><path d="M143.97 58.3c0 .33-.06.64-.18.94h-.48v-1.88h.47c.12.29.19.61.19.94M147.15 57.35v1.88h-.47c-.11-.29-.18-.61-.18-.94s.06-.65.19-.94z" class="cls-14"/><path d="M146.51 62.2c0 .33.06.64.18.94h-2.89c.11-.29.18-.61.18-.94s-.06-.65-.19-.94h2.91c-.12.29-.19.61-.19.94" class="cls-9"/><path d="M143.97 62.2c0 .33-.06.64-.18.94h-.48v-1.88h.47c.12.29.19.61.19.94M147.15 61.26v1.88h-.47c-.11-.29-.18-.61-.18-.94s.06-.65.19-.94z" class="cls-14"/><path d="M154.38 77.88c0 .33.06.64.18.94h-2.89c.11-.29.18-.61.18-.94s-.06-.65-.19-.94h2.91c-.12.29-.19.61-.19.94" class="cls-9"/><path d="M151.85 77.88c0 .33-.06.64-.18.94h-.48v-1.88h.47c.12.29.19.61.19.94M155.02 76.93v1.88h-.47c-.11-.29-.18-.61-.18-.94s.06-.65.19-.94z" class="cls-14"/><path d="M167.51 77.88c0 .33.06.64.18.94h-2.89c.11-.29.18-.61.18-.94s-.06-.65-.19-.94h2.91c-.12.29-.19.61-.19.94" class="cls-9"/><path d="M164.97 77.88c0 .33-.06.64-.18.94h-.48v-1.88h.47c.12.29.19.61.19.94M168.15 76.93v1.88h-.47c-.11-.29-.18-.61-.18-.94s.06-.65.19-.94z" class="cls-14"/><path d="M174.16 72.62c0 .33.06.64.18.94h-2.89c.11-.29.18-.61.18-.94s-.06-.65-.19-.94h2.91c-.12.29-.19.61-.19.94" class="cls-9"/><path d="M171.62 72.62c0 .33-.06.64-.18.94h-.48v-1.88h.47c.12.29.19.61.19.94M174.8 71.67v1.88h-.47c-.11-.29-.18-.61-.18-.94s.06-.65.19-.94z" class="cls-14"/><path d="M174.16 69.07c0 .33.06.64.18.94h-2.89c.11-.29.18-.61.18-.94s-.06-.65-.19-.94h2.91c-.12.29-.19.61-.19.94" class="cls-9"/><path d="M171.62 69.07c0 .33-.06.64-.18.94h-.48v-1.88h.47c.12.29.19.61.19.94M174.8 68.13v1.88h-.47c-.11-.29-.18-.61-.18-.94s.06-.65.19-.94z" class="cls-14"/><path d="M174.16 65.56c0 .33.06.64.18.94h-2.89c.11-.29.18-.61.18-.94s-.06-.65-.19-.94h2.91c-.12.29-.19.61-.19.94" class="cls-9"/><path d="M171.62 65.56c0 .33-.06.64-.18.94h-.48v-1.88h.47c.12.29.19.61.19.94M174.8 64.61v1.88h-.47c-.11-.29-.18-.61-.18-.94s.06-.65.19-.94z" class="cls-14"/><path d="M174.16 62.04c0 .33.06.64.18.94h-2.89c.11-.29.18-.61.18-.94s-.06-.65-.19-.94h2.91c-.12.29-.19.61-.19.94" class="cls-9"/><path d="M171.62 62.04c0 .33-.06.64-.18.94h-.48V61.1h.47c.12.29.19.61.19.94M174.8 61.1v1.88h-.47c-.11-.29-.18-.61-.18-.94s.06-.65.19-.94z" class="cls-14"/><path d="M174.16 58.65c0 .33.06.64.18.94h-2.89c.11-.29.18-.61.18-.94s-.06-.65-.19-.94h2.91c-.12.29-.19.61-.19.94" class="cls-9"/><path d="M171.62 58.65c0 .33-.06.64-.18.94h-.48v-1.88h.47c.12.29.19.61.19.94M174.8 57.7v1.88h-.47c-.11-.29-.18-.61-.18-.94s.06-.65.19-.94z" class="cls-14"/><path d="M102.78 86.43c.33 0 .64-.06.94-.18v2.89c-.29-.11-.61-.18-.94-.18s-.65.06-.94.19v-2.91c.29.12.61.19.94.19" class="cls-9"/><path d="M102.78 88.97c.33 0 .64.06.94.18v.48h-1.88v-.47c.29-.12.61-.19.94-.19M101.84 85.79h1.88v.47c-.29.11-.61.18-.94.18s-.65-.06-.94-.19z" class="cls-14"/><path d="M100.4 86.43c.33 0 .64-.06.94-.18v2.89c-.29-.11-.61-.18-.94-.18s-.65.06-.94.19v-2.91c.29.12.61.19.94.19" class="cls-9"/><path d="M100.4 88.96c.33 0 .64.06.94.18v.48h-1.88v-.47c.29-.12.61-.19.94-.19M99.45 85.78h1.88v.47c-.29.11-.61.18-.94.18s-.65-.06-.94-.19z" class="cls-14"/><path d="M75.72 104.55c.33 0 .64-.06.94-.18v2.89c-.29-.11-.61-.18-.94-.18s-.65.06-.94.19v-2.91c.29.12.61.19.94.19" class="cls-9"/><path d="M75.72 107.08c.33 0 .64.06.94.18v.48h-1.88v-.47c.29-.12.61-.19.94-.19M74.78 103.9h1.88v.47c-.29.11-.61.18-.94.18s-.65-.06-.94-.19z" class="cls-14"/><path d="M80.08 110.19c.33 0 .64-.06.94-.18v2.89c-.29-.11-.61-.18-.94-.18s-.65.06-.94.19V110c.29.12.61.19.94.19" class="cls-9"/><path d="M80.08 112.73c.33 0 .64.06.94.18v.48h-1.88v-.47c.29-.12.61-.19.94-.19M79.13 109.55h1.88v.47c-.29.11-.61.18-.94.18s-.65-.06-.94-.19z" class="cls-14"/><path d="M85.64 102.95c.33 0 .64-.06.94-.18v2.89c-.29-.11-.61-.18-.94-.18s-.65.06-.94.19v-2.91c.29.12.61.19.94.19" class="cls-9"/><path d="M85.64 105.49c.33 0 .64.06.94.18v.48H84.7v-.47c.29-.12.61-.19.94-.19M84.7 102.31h1.88v.47c-.29.11-.61.18-.94.18s-.65-.06-.94-.19z" class="cls-14"/><path d="M96.19 79.61c0 .33.06.64.18.94h-2.89c.11-.29.18-.61.18-.94s-.06-.65-.19-.94h2.91c-.12.29-.19.61-.19.94" class="cls-9"/><path d="M93.65 79.61c0 .33-.06.64-.18.94h-.48v-1.88h.47c.12.29.19.61.19.94M96.83 78.66v1.88h-.47c-.11-.29-.18-.61-.18-.94s.06-.65.19-.94z" class="cls-14"/><path d="M82.34 24.3c0 .33.06.64.18.94h-2.89c.11-.29.18-.61.18-.94s-.06-.65-.19-.94h2.91c-.12.29-.19.61-.19.94" class="cls-9"/><path d="M79.81 24.3c0 .33-.06.64-.18.94h-.48v-1.88h.47c.12.29.19.61.19.94M82.99 23.36v1.88h-.47c-.11-.29-.18-.61-.18-.94s.06-.65.19-.94z" class="cls-14"/><path d="M37.82 11.9c0 .33.06.64.18.94h-2.89c.11-.29.18-.61.18-.94s-.06-.65-.19-.94h2.91c-.12.29-.19.61-.19.94" class="cls-9"/><path d="M35.29 11.9c0 .33-.06.64-.18.94h-.48v-1.88h.47c.12.29.19.61.19.94M38.47 10.96v1.88H38c-.11-.29-.18-.61-.18-.94s.06-.65.19-.94z" class="cls-14"/><path d="M42.87 11.9c0 .33.06.64.18.94h-2.89c.11-.29.18-.61.18-.94s-.06-.65-.19-.94h2.91c-.12.29-.19.61-.19.94" class="cls-9"/><path d="M40.34 11.9c0 .33-.06.64-.18.94h-.48v-1.88h.47c.12.29.19.61.19.94M43.52 10.96v1.88h-.47c-.11-.29-.18-.61-.18-.94s.06-.65.19-.94z" class="cls-14"/><path d="M47.93 11.9c0 .33.06.64.18.94h-2.89c.11-.29.18-.61.18-.94s-.06-.65-.19-.94h2.91c-.12.29-.19.61-.19.94" class="cls-9"/><path d="M45.4 11.9c0 .33-.06.64-.18.94h-.48v-1.88h.47c.12.29.19.61.19.94M48.57 10.96v1.88h-.47c-.11-.29-.18-.61-.18-.94s.06-.65.19-.94z" class="cls-14"/><path d="M88.04 110.49c0 .33.06.64.18.94h-2.89c.11-.29.18-.61.18-.94s-.06-.65-.19-.94h2.91c-.12.29-.19.61-.19.94" class="cls-9"/><path d="M85.51 110.49c0 .33-.06.64-.18.94h-.48v-1.88h.47c.12.29.19.61.19.94M88.68 109.55v1.88h-.47c-.11-.29-.18-.61-.18-.94s.06-.65.19-.94z" class="cls-14"/><path d="M89.7 35.89c0-.48-.09-.95-.26-1.38h4.26a3.76 3.76 0 0 0 .01 2.77h-4.28c.18-.43.27-.9.27-1.39" class="cls-2"/><path d="M89.7 35.89c0-.48-.09-.95-.26-1.38h4.26a3.76 3.76 0 0 0 .01 2.77h-4.28c.18-.43.27-.9.27-1.39" class="cls-3"/><path d="M89.7 35.89c0-.48-.09-.95-.26-1.38h4.26a3.76 3.76 0 0 0 .01 2.77h-4.28c.18-.43.27-.9.27-1.39" class="cls-19"/><path d="M93.44 35.89c0-.48.09-.95.26-1.38h.7v2.77h-.69c-.18-.43-.27-.9-.27-1.39M88.75 37.29v-2.77h.69a3.76 3.76 0 0 1-.01 2.77z" class="cls-14"/><path d="M89.7 39.57c0-.48-.09-.95-.26-1.38h4.26a3.76 3.76 0 0 0 .01 2.77h-4.28c.18-.43.27-.9.27-1.39" class="cls-2"/><path d="M89.7 39.57c0-.48-.09-.95-.26-1.38h4.26a3.76 3.76 0 0 0 .01 2.77h-4.28c.18-.43.27-.9.27-1.39" class="cls-3"/><path d="M89.7 39.57c0-.48-.09-.95-.26-1.38h4.26a3.76 3.76 0 0 0 .01 2.77h-4.28c.18-.43.27-.9.27-1.39" class="cls-19"/><path d="M93.44 39.57c0-.48.09-.95.26-1.38h.7v2.77h-.69c-.18-.43-.27-.9-.27-1.39M88.75 40.97V38.2h.69a3.76 3.76 0 0 1-.01 2.77z" class="cls-14"/><path d="M86.76 121.01c0-.48-.09-.95-.26-1.38h4.26a3.76 3.76 0 0 0 .01 2.77h-4.28c.18-.43.27-.9.27-1.39" class="cls-2"/><path d="M86.76 121.01c0-.48-.09-.95-.26-1.38h4.26a3.76 3.76 0 0 0 .01 2.77h-4.28c.18-.43.27-.9.27-1.39" class="cls-3"/><path d="M86.76 121.01c0-.48-.09-.95-.26-1.38h4.26a3.76 3.76 0 0 0 .01 2.77h-4.28c.18-.43.27-.9.27-1.39" class="cls-19"/><path d="M90.5 121.01c0-.48.09-.95.26-1.38h.7v2.77h-.69c-.18-.43-.27-.9-.27-1.39M85.81 122.41v-2.77h.69a3.76 3.76 0 0 1-.01 2.77z" class="cls-14"/><path d="M88.62 103.67c0-.72-.09-1.42-.26-2.07h4.26c-.17.64-.26 1.35-.26 2.07s.09 1.44.27 2.09h-4.28c.18-.64.27-1.35.27-2.09" class="cls-2"/><path d="M88.62 103.67c0-.72-.09-1.42-.26-2.07h4.26c-.17.64-.26 1.35-.26 2.07s.09 1.44.27 2.09h-4.28c.18-.64.27-1.35.27-2.09" class="cls-3"/><path d="M88.62 103.67c0-.72-.09-1.42-.26-2.07h4.26c-.17.64-.26 1.35-.26 2.07s.09 1.44.27 2.09h-4.28c.18-.64.27-1.35.27-2.09" class="cls-19"/><path d="M92.36 103.67c0-.72.09-1.42.26-2.07h.7v4.15h-.69c-.18-.64-.27-1.35-.27-2.09ZM87.67 105.76v-4.15h.69c.17.64.26 1.35.26 2.07s-.09 1.44-.27 2.09h-.68Z" class="cls-14"/><path d="M19.04 99.03c0-.72-.09-1.42-.26-2.07h4.26c-.17.64-.26 1.35-.26 2.07s.09 1.44.27 2.09h-4.28c.18-.64.27-1.35.27-2.09" class="cls-9"/><path d="M22.78 99.03c0-.72.09-1.42.26-2.07h.7v4.15h-.69c-.18-.64-.27-1.35-.27-2.09ZM18.09 101.11v-4.15h.69c.17.64.26 1.35.26 2.07s-.09 1.44-.27 2.09h-.68Z" class="cls-14"/><path d="M35.81 43.95c0-.72-.09-1.42-.26-2.07h4.26c-.17.64-.26 1.35-.26 2.07s.09 1.44.27 2.09h-4.28c.18-.64.27-1.35.27-2.09" class="cls-9"/><path d="M39.54 43.95c0-.72.09-1.42.26-2.07h.7v4.15h-.69c-.18-.64-.27-1.35-.27-2.09ZM34.86 46.03v-4.15h.69c.17.64.26 1.35.26 2.07s-.09 1.44-.27 2.09h-.68ZM96.06 34.51h1.67v2.77h-1.67zM100.04 34.51h1.67v2.77h-1.67zM96.06 38.19h1.67v2.77h-1.67zM100.04 38.19h1.67v2.77h-1.67zM85.79 123.4h1.67v2.77h-1.67zM89.77 123.4h1.67v2.77h-1.67zM78.47 118.02h1.12v1.86h-1.12zM81.14 118.02h1.12v1.86h-1.12zM78.47 120.54h1.12v1.86h-1.12zM81.14 120.54h1.12v1.86h-1.12zM64.77 114.39h1.12v1.86h-1.12zM67.44 114.39h1.12v1.86h-1.12zM117.69 87.25h1.12v1.86h-1.12zM120.36 87.25h1.12v1.86h-1.12zM122.53 87.25h1.12v1.86h-1.12zM125.21 87.25h1.12v1.86h-1.12zM108.8 90.53h1.12v1.86h-1.12zM108.8 85.5h1.12v1.86h-1.12zM111.48 90.53h1.12v1.86h-1.12zM103.51 90.53h1.12v1.86h-1.12zM106.19 90.53h1.12v1.86h-1.12zM64 30.67h1.12v1.86H64zM66.67 30.67h1.12v1.86h-1.12zM65.28 22.86v1.12h-1.86v-1.12zM65.28 25.53v1.12h-1.86v-1.12zM36.75 17.99v1.12h-1.86v-1.12zM36.76 20.66v1.12H34.9v-1.12zM29.82 15.85v1.12h-1.86v-1.12zM29.82 18.52v1.12h-1.86v-1.12zM107.54 85.8v1.12h-1.86V85.8zM107.54 88.48v1.12h-1.86v-1.12zM53.08 101.86v1.12h-1.86v-1.12zM53.08 104.53v1.12h-1.86v-1.12z" class="cls-14"/><path d="M18.09 51.45h5.89v2.62h-5.89z" class="cls-13"/><circle cx="21.03" cy="52.77" r="1.89" class="cls-19"/></g><g id="_2018_Version" data-name="2018 Version"><path d="M37.24 130.19h1.83s.03.01.03.03v1.83s-.01.03-.03.03h-1.83s-.03-.01-.03-.03v-1.83s.01-.03.03-.03M35.17 130.19H37s.03.01.03.03v1.83s-.01.03-.03.03h-1.83s-.03-.01-.03-.03v-1.83s.01-.03.03-.03M37.24 132.27h1.83s.03.01.03.03v1.83s-.01.03-.03.03h-1.83s-.03-.01-.03-.03v-1.83s.01-.03.03-.03M35.17 132.27H37s.03.01.03.03v1.83s-.01.03-.03.03h-1.83s-.03-.01-.03-.03v-1.83s.01-.03.03-.03" class="cls-13"/><path d="M59.64 6.54a4.12 4.12 0 1 0-8.241.001 4.12 4.12 0 0 0 8.241-.001M190.36 45.76a4.12 4.12 0 1 0-8.241.001 4.12 4.12 0 0 0 8.241-.001M252.45 6.54a4.12 4.12 0 1 0-8.241.001 4.12 4.12 0 0 0 8.241-.001M190.36 117.65c0-2.28-1.84-4.12-4.12-4.12s-4.12 1.84-4.12 4.12 1.84 4.12 4.12 4.12 4.12-1.84 4.12-4.12M268.79 130.72c0-2.28-1.84-4.12-4.12-4.12s-4.12 1.84-4.12 4.12 1.84 4.12 4.12 4.12 4.12-1.84 4.12-4.12M56.38 130.56c0-2.28-1.84-4.12-4.12-4.12s-4.12 1.84-4.12 4.12 1.84 4.12 4.12 4.12 4.12-1.84 4.12-4.12" class="cls-5"/><path d="M189.71 73.56v-2.57l-1.82-1.81.01-.53 1.81-1.81v-2.57l-1.82-1.81.01-.53 1.81-1.81v-2.57l-1.82-1.81h-9.28l-1.82 1.81v2.57l1.82 1.81v.53l-1.82 1.81v2.57l1.82 1.81v.53l-1.82 1.81v2.57l1.82 1.81h9.29z" class="cls-2"/><path d="M189.71 73.56v-2.57l-1.82-1.81.01-.53 1.81-1.81v-2.57l-1.82-1.81.01-.53 1.81-1.81v-2.57l-1.82-1.81h-9.28l-1.82 1.81v2.57l1.82 1.81v.53l-1.82 1.81v2.57l1.82 1.81v.53l-1.82 1.81v2.57l1.82 1.81h9.29z" class="cls-3"/><path d="M189.71 73.56v-2.57l-1.82-1.81.01-.53 1.81-1.81v-2.57l-1.82-1.81.01-.53 1.81-1.81v-2.57l-1.82-1.81h-9.28l-1.82 1.81v2.57l1.82 1.81v.53l-1.82 1.81v2.57l1.82 1.81v.53l-1.82 1.81v2.57l1.82 1.81h9.29z" class="cls-19"/><path d="M179.89 71.12c.64 0 1.15.52 1.15 1.15s-.52 1.15-1.15 1.15-1.15-.52-1.15-1.15.52-1.15 1.15-1.15M186.61 57.68a1.15 1.15 0 1 1-1.15 1.15c0-.63.52-1.15 1.15-1.15M186.61 64.4a1.15 1.15 0 1 1 0 2.3 1.15 1.15 0 0 1 0-2.3M186.61 71.12a1.15 1.15 0 1 1 0 2.3 1.15 1.15 0 0 1 0-2.3M179.89 57.68c.64 0 1.15.52 1.15 1.15s-.52 1.15-1.15 1.15-1.15-.52-1.15-1.15.52-1.15 1.15-1.15M179.89 64.4c.64 0 1.15.52 1.15 1.15s-.52 1.15-1.15 1.15-1.15-.52-1.15-1.15.52-1.15 1.15-1.15" class="cls-13"/><path d="M105.9 47.57h35.92v35.92H105.9z" class="cls-2"/><path d="M105.9 47.57h35.92v35.92H105.9z" class="cls-3"/><path d="M105.9 47.57h35.92v35.92H105.9z" class="cls-19"/><path d="M148.98 55.28h20.54v20.54h-20.54z" class="cls-2"/><path d="M148.98 55.28h20.54v20.54h-20.54z" class="cls-3"/><path d="M148.98 55.28h20.54v20.54h-20.54z" class="cls-19"/><path d="M86.19 57.68h13.26v15.61H86.19z" class="cls-2"/><path d="M86.19 57.68h13.26v15.61H86.19z" class="cls-3"/><path d="M86.19 57.68h13.26v15.61H86.19z" class="cls-19"/><path d="M16.31 122.5v-19.01h31.83v19.01z" class="cls-21"/><path d="M16.31 122.5v-19.01h31.83v19.01z" class="cls-6"/><path d="M16.31 122.5v-19.01h31.83v19.01z" class="cls-19"/><path d="M10.82 120.57v-15.14h5.5v15.14z" class="cls-21"/><path d="M10.82 120.57v-15.14h5.5v15.14z" class="cls-6"/><path d="M10.82 120.57v-15.14h5.5v15.14z" class="cls-19"/><path d="M10.81 107.93v-2.51h5.5v2.51zM10.81 120.57v-2.51h5.5v2.51z" class="cls-1"/><path d="M10.81 107.93v-2.51h5.5v2.51zM10.81 120.57v-2.51h5.5v2.51z" class="cls-4"/><path d="M10.81 107.93v-2.51h5.5v2.51zM10.81 120.57v-2.51h5.5v2.51z" class="cls-19"/><path d="M22.99 122.5h5.43c0 .86-.7 1.56-1.56 1.56h-2.31c-.86 0-1.56-.7-1.56-1.56M28.42 103.49h-5.43c0-.86.7-1.56 1.56-1.56h2.31c.86 0 1.56.7 1.56 1.56M48.14 115.71v-5.43c.86 0 1.56.7 1.56 1.56v2.31c0 .86-.7 1.56-1.56 1.56M48.14 107.12v-3.62c.58 0 1.05.47 1.05 1.05v1.53c0 .58-.47 1.05-1.05 1.05ZM48.14 122.5v-3.62c.58 0 1.05.47 1.05 1.05v1.53c0 .58-.47 1.05-1.05 1.05Z" class="cls-8"/><rect width="13.6" height="4.56" x="17.17" y="129.8" class="cls-13" rx=".92" ry=".92"/><rect width="13.6" height="4.56" x="17.17" y="3.3" class="cls-13" rx=".92" ry=".92"/><path d="M178.79 86.27h8.57v16.7h-8.57z" class="cls-2"/><path d="M178.79 86.27h8.57v16.7h-8.57z" class="cls-3"/><path d="M178.79 86.27h8.57v16.7h-8.57z" class="cls-19"/><path d="M181.05 88.08h.82v.82h-.82zM184.28 88.08h.82v.82h-.82zM181.05 91.15h.82v.82h-.82zM184.28 91.15h.82v.82h-.82zM181.05 94.22h.82v.82h-.82zM184.28 94.22h.82v.82h-.82zM181.05 97.29h.82v.82h-.82zM184.28 97.29h.82v.82h-.82zM181.05 100.36h.82v.82h-.82zM184.28 100.36h.82v.82h-.82z" class="cls-7"/><path d="M187.36 88.08h4.07v.82h-4.07zM187.36 91.15h4.07v.82h-4.07zM187.36 94.22h4.07v.82h-4.07zM187.36 97.29h4.07v.82h-4.07zM187.36 100.36h4.07v.82h-4.07zM174.73 88.08h4.07v.82h-4.07zM174.73 91.15h4.07v.82h-4.07zM174.73 94.22h4.07v.82h-4.07zM174.73 97.29h4.07v.82h-4.07zM174.73 100.36h4.07v.82h-4.07z" class="cls-13"/><circle cx="172.67" cy="52.71" r="2.43" class="cls-11"/><circle cx="172.67" cy="52.71" r="1.25" class="cls-9"/><circle cx="96.49" cy="90.05" r="2.43" class="cls-11"/><circle cx="96.49" cy="90.05" r="1.25" class="cls-9"/><circle cx="73.55" cy="32.74" r="2.43" class="cls-11"/><circle cx="73.55" cy="32.74" r="1.25" class="cls-9"/><path d="M68.62 128.49c-1.34 0-2.43 1.09-2.43 2.44s1.09 2.43 2.43 2.43 2.44-1.09 2.44-2.43-1.09-2.44-2.44-2.44m0 3.68c-.69 0-1.24-.56-1.24-1.24s.55-1.25 1.24-1.25 1.25.56 1.25 1.25-.56 1.24-1.25 1.24M75.19 128.49c-1.35 0-2.44 1.09-2.44 2.44s1.09 2.43 2.44 2.43 2.43-1.09 2.43-2.43-1.09-2.44-2.43-2.44m0 3.68c-.69 0-1.25-.56-1.25-1.24s.56-1.25 1.25-1.25 1.24.56 1.24 1.25-.55 1.24-1.24 1.24M62.07 128.49c-1.35 0-2.44 1.09-2.44 2.44s1.09 2.43 2.44 2.43 2.43-1.09 2.43-2.43-1.09-2.44-2.43-2.44m0 3.68c-.69 0-1.25-.56-1.25-1.24s.56-1.25 1.25-1.25 1.24.56 1.24 1.25-.55 1.24-1.24 1.24" class="cls-9"/><path d="M18.26 128.52h11.39v7.12H18.26z" class="cls-14"/><path d="m26.23 132.08-.01.25-.04.24-.07.25-.1.23-.11.22-.14.21-.18.18-.18.17-.2.15-.22.13-.23.1-.23.07-.25.05-.25.03-.25-.01-.25-.04-.25-.06-.23-.09-.22-.11-.22-.14-.19-.16-.17-.18-.16-.2-.12-.21-.12-.23-.08-.23-.05-.25-.03-.25v-.25l.03-.25.05-.24.08-.24.12-.22.12-.22.16-.2.17-.17.19-.17.22-.13.22-.12.23-.08.25-.07.25-.04h.25l.25.02.25.05.23.07.23.1.22.13.2.15.18.17.18.18.14.21.11.22.1.24.07.24.04.25z" class="cls-12"/><path d="M18.26 2.02h11.39v7.12H18.26z" class="cls-14"/><path d="m26.23 5.58-.01.25-.04.24-.07.25-.1.23-.11.23-.14.2-.18.19-.18.17-.2.15-.22.12-.23.1-.23.07-.25.05-.25.03-.25-.01-.25-.04-.25-.06-.23-.09-.22-.11-.22-.13-.19-.17-.17-.18-.16-.19-.12-.22-.12-.22-.08-.24-.05-.24-.03-.25v-.26l.03-.25.05-.24.08-.24.12-.22.12-.22.16-.2.17-.17.19-.17.22-.13.22-.12.23-.08.25-.07.25-.03.25-.01.25.02.25.05.23.07.23.1.22.13.2.15.18.17.18.18.14.21.11.22.1.24.07.24.04.25z" class="cls-12"/><path d="M43.24 15.14h17.71v13.28H43.24zM103.28 93.13h8.99v4.81h-8.99zM117.69 90.5h9.44v6.68h-9.44z" class="cls-15"/><path d="M30.33 29.38h1.19v.73h-1.19zM30.33 30.5h1.19v.73h-1.19zM30.33 31.63h1.19v.73h-1.19zM30.33 32.75h1.19v.73h-1.19zM30.33 33.88h1.19v.73h-1.19zM30.33 35h1.19v.73h-1.19zM30.33 36.12h1.19v.73h-1.19zM30.33 37.25h1.19v.73h-1.19zM30.33 38.2h1.19v.73h-1.19zM30.33 39.32h1.19v.73h-1.19zM30.33 40.45h1.19v.73h-1.19zM30.33 41.57h1.19v.73h-1.19zM46.3 84.75h4.37v2.78H46.3zM46.3 78.35h4.37v2.78H46.3zM46.3 72.2h4.37v2.78H46.3zM46.3 65.8h4.37v2.78H46.3z" class="cls-13"/><path d="M137.15 104.84v7.48h-3.96v-7.48z" class="cls-2"/><path d="M137.15 104.84v7.48h-3.96v-7.48z" class="cls-3"/><path d="M137.15 104.84v7.48h-3.96v-7.48z" class="cls-19"/><path d="M139.1 106.76h-1.95v-.68h1.95c.19 0 .34.15.34.34s-.15.34-.34.34M139.1 108.92h-1.95v-.68h1.95c.19 0 .34.15.34.34s-.15.34-.34.34M139.1 111.09h-1.95v-.68h1.95c.19 0 .34.15.34.34s-.15.34-.34.34M131.23 106.76h1.95v-.68h-1.95c-.19 0-.34.15-.34.34 0 .18.15.34.34.34M131.23 108.92h1.95v-.68h-1.95c-.19 0-.34.15-.34.34 0 .18.15.34.34.34M131.23 111.09h1.95v-.68h-1.95c-.19 0-.34.15-.34.34 0 .18.15.34.34.34" class="cls-18"/><path d="M83.6 103.17v5.5h-4.61v-5.5z" class="cls-2"/><path d="M83.6 103.17v5.5h-4.61v-5.5z" class="cls-3"/><path d="M83.6 103.17v5.5h-4.61v-5.5z" class="cls-19"/><path d="M125.4 107.18v11.05h-11.05v-11.05z" class="cls-14"/><path d="M126.87 112.7c0 .41-.33.74-.74.74h-.74v-1.47h.74c.41 0 .74.33.74.74ZM114.35 111.97v1.47h-.74c-.41 0-.74-.33-.74-.74s.33-.74.74-.74h.74ZM48.48 96.7h2.99v2.99h-2.99z" class="cls-13"/><path d="M69.78 23.85h7.79v4.99h-7.79z" class="cls-2"/><path d="M69.78 23.85h7.79v4.99h-7.79z" class="cls-3"/><path d="M69.78 23.85h7.79v4.99h-7.79z" class="cls-19"/><path d="M36.08 33.94v1.2h-1.71v-1.2c0-.46.37-.82.82-.82h.07c.45 0 .82.36.82.82M34.37 38.56h1.71v1.35c0 .45-.37.82-.82.82h-.07c-.45 0-.82-.37-.82-.82z" class="cls-13"/><path d="M33.92 35.14h7.53v3.42h-7.53z" class="cls-2"/><path d="M33.92 35.14h7.53v3.42h-7.53z" class="cls-3"/><path d="M33.92 35.14h7.53v3.42h-7.53z" class="cls-19"/><path d="M39.27 38.56h1.71v1.35c0 .45-.37.82-.82.82h-.07c-.45 0-.82-.37-.82-.82zM40.98 33.97v1.1s0 .05-.01.07h-2.79s-.01-.05-.01-.07v-1.1c0-.47.39-.85.86-.85h1.1a.849.849 0 0 1 .83.68c0 .05.02.11.02.17M48.84 51.99h-1.2v-1.71h1.2c.46 0 .82.37.82.82v.07c0 .45-.36.82-.82.82M44.22 50.28v1.71h-1.35c-.45 0-.82-.37-.82-.82v-.07c0-.45.37-.82.82-.82z" class="cls-13"/><path d="M44.22 49.83h3.42v7.53h-3.42z" class="cls-2"/><path d="M44.22 49.83h3.42v7.53h-3.42z" class="cls-3"/><path d="M44.22 49.83h3.42v7.53h-3.42z" class="cls-19"/><path d="M44.22 55.18v1.71h-1.35c-.45 0-.82-.37-.82-.82V56c0-.45.37-.82.82-.82zM48.81 56.89h-1.1s-.05 0-.07-.01v-2.79s.05-.01.07-.01h1.1c.47 0 .85.39.85.86v1.1a.849.849 0 0 1-.68.83c-.05 0-.11.02-.17.02" class="cls-13"/><path d="M26.51 50.41h7.03v3.96h-7.03z" class="cls-2"/><path d="M26.51 50.41h7.03v3.96h-7.03z" class="cls-3"/><path d="M26.51 50.41h7.03v3.96h-7.03z" class="cls-19"/><path d="M25.26 50.96h1.26v2.86h-1.26c-.39 0-.7-.31-.7-.7v-1.46c0-.39.31-.7.7-.7M34.81 53.83h-1.26v-2.86h1.26c.39 0 .7.31.7.7v1.46c0 .39-.31.7-.7.7" class="cls-13"/><rect width="6.86" height="6.86" x="18.26" y="13.38" rx="1.58" ry="1.58" style="fill:#c3c5c6"/><circle cx="21.69" cy="16.8" r="1.95" style="fill:#c3b9af"/><path d="M18.69 11.64h3.85c.33 0 .59.26.59.59v1.15h-4.44zM18.69 20.23h4.44v1.15c0 .33-.26.59-.59.59h-3.85zM25.11 15.41h1.67v2.78h-1.67z" class="cls-13"/><path d="M35.95 131.03h2.28v2.28h-2.28z" class="cls-9"/></g><g id="Livello_3" data-name="Livello 3"><path d="M222.47 29.73h13.08v78.41h-13.08z" class="cls-2"/><path d="M222.47 29.73h13.08v78.41h-13.08z" class="cls-3"/><path d="M222.47 29.73h13.08v78.41h-13.08z" class="cls-19"/><path d="M224.73 31.99h2.02v2.02h-2.02zM231.27 31.99h2.02v2.02h-2.02zM231.27 38.53h2.02v2.02h-2.02zM224.72 38.53h2.02v2.02h-2.02zM224.72 45.08h2.02v2.02h-2.02zM231.26 45.08h2.02v2.02h-2.02zM231.26 51.57h2.02v2.02h-2.02zM224.73 51.57h2.02v2.02h-2.02zM224.73 58.13h2.02v2.02h-2.02zM231.27 58.13h2.02v2.02h-2.02zM231.27 64.66h2.02v2.02h-2.02zM224.72 64.66h2.02v2.02h-2.02zM224.72 71.18h2.02v2.02h-2.02zM231.27 71.18h2.02v2.02h-2.02zM231.27 77.74h2.02v2.02h-2.02zM224.72 77.74h2.02v2.02h-2.02zM224.72 84.25h2.02v2.02h-2.02zM231.27 84.25h2.02v2.02h-2.02zM231.27 90.8h2.02v2.02h-2.02zM224.73 90.8h2.02v2.02h-2.02zM224.73 97.33h2.02v2.02h-2.02zM231.27 97.33h2.02v2.02h-2.02zM231.27 103.87h2.02v2.02h-2.02zM224.73 103.87h2.02v2.02h-2.02z" class="cls-9"/><path d="M235.55 31.99h3.43c.33 0 .6.27.6.6v.82c0 .33-.27.6-.6.6h-3.43zM235.55 38.53h3.43c.33 0 .6.27.6.6v.82c0 .33-.27.6-.6.6h-3.43zM235.55 45.08h3.43c.33 0 .6.27.6.6v.82c0 .33-.27.6-.6.6h-3.43zM235.55 51.58h3.43c.33 0 .6.27.6.6V53c0 .33-.27.6-.6.6h-3.43zM235.55 58.11h3.43c.33 0 .6.27.6.6v.82c0 .33-.27.6-.6.6h-3.43zM235.55 64.67h3.43c.33 0 .6.27.6.6v.82c0 .33-.27.6-.6.6h-3.43zM235.55 71.2h3.43c.33 0 .6.27.6.6v.82c0 .33-.27.6-.6.6h-3.43zM235.55 77.73h3.43c.33 0 .6.27.6.6v.82c0 .33-.27.6-.6.6h-3.43zM235.55 84.29h3.43c.33 0 .6.27.6.6v.82c0 .33-.27.6-.6.6h-3.43zM235.55 90.79h3.43c.33 0 .6.27.6.6v.82c0 .33-.27.6-.6.6h-3.43zM235.55 97.32h3.43c.33 0 .6.27.6.6v.82c0 .33-.27.6-.6.6h-3.43zM235.55 103.88h3.43c.33 0 .6.27.6.6v.82c0 .33-.27.6-.6.6h-3.43zM222.47 105.89h-3.43c-.33 0-.6-.27-.6-.6v-.82c0-.33.27-.6.6-.6h3.43zM222.47 99.36h-3.43c-.33 0-.6-.27-.6-.6v-.82c0-.33.27-.6.6-.6h3.43zM222.47 92.8h-3.43c-.33 0-.6-.27-.6-.6v-.82c0-.33.27-.6.6-.6h3.43zM222.47 86.3h-3.43c-.33 0-.6-.27-.6-.6v-.82c0-.33.27-.6.6-.6h3.43zM222.47 79.78h-3.43c-.33 0-.6-.27-.6-.6v-.82c0-.33.27-.6.6-.6h3.43zM222.47 73.21h-3.43c-.33 0-.6-.27-.6-.6v-.82c0-.33.27-.6.6-.6h3.43zM222.47 66.69h-3.43c-.33 0-.6-.27-.6-.6v-.82c0-.33.27-.6.6-.6h3.43zM222.47 60.15h-3.43c-.33 0-.6-.27-.6-.6v-.82c0-.33.27-.6.6-.6h3.43zM222.47 53.6h-3.43c-.33 0-.6-.27-.6-.6v-.82c0-.33.27-.6.6-.6h3.43zM222.47 47.1h-3.43c-.33 0-.6-.27-.6-.6v-.82c0-.33.27-.6.6-.6h3.43zM222.47 40.57h-3.43c-.33 0-.6-.27-.6-.6v-.82c0-.33.27-.6.6-.6h3.43zM222.47 34.01h-3.43c-.33 0-.6-.27-.6-.6v-.82c0-.33.27-.6.6-.6h3.43z" class="cls-13"/><path d="M61.31 36.26h13.08v65.58H61.31z" class="cls-2"/><path d="M61.31 36.26h13.08v65.58H61.31z" class="cls-3"/><path d="M61.31 36.26h13.08v65.58H61.31z" class="cls-19"/><path d="M63.57 38.51h2.02v2.02h-2.02zM70.11 38.51h2.02v2.02h-2.02zM70.11 45.05h2.02v2.02h-2.02zM63.56 45.05h2.02v2.02h-2.02zM63.56 51.6h2.02v2.02h-2.02zM70.1 51.6h2.02v2.02H70.1zM70.1 58.1h2.02v2.02H70.1zM63.57 58.1h2.02v2.02h-2.02zM63.57 64.65h2.02v2.02h-2.02zM70.11 64.65h2.02v2.02h-2.02zM70.11 71.18h2.02v2.02h-2.02zM63.56 71.18h2.02v2.02h-2.02zM63.56 77.71h2.02v2.02h-2.02zM70.11 77.71h2.02v2.02h-2.02zM70.11 84.26h2.02v2.02h-2.02zM63.56 84.26h2.02v2.02h-2.02zM63.56 90.77h2.02v2.02h-2.02zM70.11 90.77h2.02v2.02h-2.02zM70.11 97.32h2.02v2.02h-2.02zM63.57 97.32h2.02v2.02h-2.02z" class="cls-9"/><path d="M74.39 38.51h3.43c.33 0 .6.27.6.6v.82c0 .33-.27.6-.6.6h-3.43zM74.39 45.05h3.43c.33 0 .6.27.6.6v.82c0 .33-.27.6-.6.6h-3.43zM74.39 51.6h3.43c.33 0 .6.27.6.6v.82c0 .33-.27.6-.6.6h-3.43zM74.39 58.1h3.43c.33 0 .6.27.6.6v.82c0 .33-.27.6-.6.6h-3.43zM74.39 64.64h3.43c.33 0 .6.27.6.6v.82c0 .33-.27.6-.6.6h-3.43zM74.39 71.19h3.43c.33 0 .6.27.6.6v.82c0 .33-.27.6-.6.6h-3.43zM74.39 77.72h3.43c.33 0 .6.27.6.6v.82c0 .33-.27.6-.6.6h-3.43zM74.39 84.25h3.43c.33 0 .6.27.6.6v.82c0 .33-.27.6-.6.6h-3.43zM74.39 90.81h3.43c.33 0 .6.27.6.6v.82c0 .33-.27.6-.6.6h-3.43zM74.39 97.31h3.43c.33 0 .6.27.6.6v.82c0 .33-.27.6-.6.6h-3.43zM61.31 99.33h-3.43c-.33 0-.6-.27-.6-.6v-.82c0-.33.27-.6.6-.6h3.43zM61.31 92.83h-3.43c-.33 0-.6-.27-.6-.6v-.82c0-.33.27-.6.6-.6h3.43zM61.31 86.3h-3.43c-.33 0-.6-.27-.6-.6v-.82c0-.33.27-.6.6-.6h3.43zM61.31 79.74h-3.43c-.33 0-.6-.27-.6-.6v-.82c0-.33.27-.6.6-.6h3.43zM61.31 73.22h-3.43c-.33 0-.6-.27-.6-.6v-.82c0-.33.27-.6.6-.6h3.43zM61.31 66.68h-3.43c-.33 0-.6-.27-.6-.6v-.82c0-.33.27-.6.6-.6h3.43zM61.31 60.13h-3.43c-.33 0-.6-.27-.6-.6v-.82c0-.33.27-.6.6-.6h3.43zM61.31 53.63h-3.43c-.33 0-.6-.27-.6-.6v-.82c0-.33.27-.6.6-.6h3.43zM61.31 47.09h-3.43c-.33 0-.6-.27-.6-.6v-.82c0-.33.27-.6.6-.6h3.43zM61.31 40.54h-3.43c-.33 0-.6-.27-.6-.6v-.82c0-.33.27-.6.6-.6h3.43z" class="cls-13"/><path id="htFNsm.tif" d="M10.84 60.12H46.3v33.72H10.84z" class="cls-10"/><path d="M14.36 24.75h16.41v22.82H14.36z" class="cls-10"/><path d="M19.33 60.12h1.54v33.72h-1.54zM22.4 60.12h1.54v33.72H22.4zM25.48 60.12h1.54v33.72h-1.54zM28.55 60.12h1.54v33.72h-1.54zM31.61 60.12h1.54v33.72h-1.54zM34.68 60.12h1.54v33.72h-1.54zM37.76 60.12h1.54v33.72h-1.54zM40.83 60.12h1.54v33.72h-1.54zM16.96 24.75h1.54v22.82h-1.54zM20.03 24.75h1.54v22.82h-1.54zM23.11 24.75h1.54v22.82h-1.54zM26.18 24.75h1.54v22.82h-1.54zM29.24 24.75h1.53v22.82h-1.53zM10.84 60.12h7.04v33.72h-7.04z" class="cls-13"/></g></svg>