<svg xmlns="http://www.w3.org/2000/svg" xml:space="preserve" id="Layer_1" x="0" y="0" viewBox="0 0 187.8 138.2"><style>.st0{fill:#017481}.st1{fill:#8b8f90}.st2{fill:#adb0b1}.st3{fill:#a19284}.st4{fill:#fff}.st5{fill:#8a7867}.st7{fill:#c2c5c6}.st8{fill:#9da0a1}.st9{fill:#e5540f}.st10{fill:#221e20}.st11{fill:#f0c310}.st13{fill:#1d1d1b}.st14{fill:#b3b6b7}.st18{fill:#897867}</style><path d="M6.6 6.6V2.1l.1-.3.1-.2.1-.2.1-.3.2-.2.1-.1.2-.2.2-.2.3-.1.2-.1.2-.1h.3l.2-.1h166.5l.2.1h.3l.2.1.2.1.3.1.2.2.2.2.1.1.2.2.1.3.1.2.1.2.1.3v134l-.1.3-.1.2-.1.3-.1.2-.2.2-.1.2-.2.1-.2.2-.3.1-.2.1-.2.1-.3.1H8.7l-.3-.1-.2-.1-.3-.1-.2-.1-.2-.2-.2-.1-.1-.2-.2-.2-.1-.2-.1-.3-.1-.2-.1-.3v-31.5L0 98.1V13.2z" class="st0"/><path d="M24.5 62.3h4.4v2.8h-4.4z" class="st1"/><path d="M107.4 52.6h4.3v3.6h-4.3zM107.4 58.7h4.3v3.6h-4.3zM97.5 52.6h4.4v3.6h-4.4zM97.5 58.7h4.4v3.6h-4.4z" class="st2"/><path d="M77.2 27H84v.9h-6.8zM24.4 55.7h4.4v2.8h-4.4zM77.1 43.2h6.8v1.2h-6.8z" class="st1"/><path d="M77.1 44.3h6.8v1.2h-6.8z" class="st3"/><path d="M77.1 45.5h6.8v1.2h-6.8z" class="st1"/><path d="M141.6 11.6c2.7 0 5-2.2 5-4.9s-2.2-5-4.9-5-5 2.2-5 4.9c0 2.8 2.2 5 4.9 5M6.9 87c-2.7 0-5 2.2-5 4.9s2.2 5 4.9 5 5-2.2 5-4.9c.1-2.8-2.1-5-4.9-5M138.3 126.4c-2.7 0-5 2.2-5 4.9s2.2 5 4.9 5 5-2.2 5-4.9c0-2.8-2.2-5-4.9-5M6.9 24.7c2.7 0 5-2.2 5-4.9s-2.2-5-4.9-5-5 2.2-5 4.9c0 2.8 2.2 5 4.9 5" class="st4"/><path d="M110.9 61.9H98.2V53h12.7z" class="st1"/><path d="M33.4 60.5c0-1.3.8-2.3 1.7-2.3h6.3c.9 0 1.7 1 1.7 2.3s-.8 2.3-1.7 2.3h-6.3c-1 0-1.7-1-1.7-2.3M27.9 63.6H30q.3 0 .3-.3v-1.8h1.8q.3 0 .3-.3t-.3-.3h-2.2c-.1.1-.2.2-.2.3V63h-1.8q-.3 0-.3.3c0 .3.1.3.3.3M27.9 58h1.8v1.8c0 .1.1.3.2.3h2.2q.3 0 .3-.3t-.3-.3h-1.8v-1.8q0-.3-.3-.3h-2.1q-.3 0-.3.3c-.1.2.1.3.3.3" class="st5"/><path d="M31.2 58.7h2.5v3.6h-2.5z" style="fill:#c7bfb6"/><path d="M16.3 98v2.2h1.8V98h-.5v-2.1h.5v-2.2h-1.8v2.2h.6V98z" class="st5"/><g id="USB"><path d="M169 101.7v1c0 .1-.1.2-.2.2h-3.7c-.1 0-.2-.1-.2-.2v-1c0-.1.1-.2.2-.2h3.7c.2.1.2.1.2.2M169 99.8v1c0 .1-.1.2-.2.2h-3.7c-.1 0-.2-.1-.2-.2v-1c0-.1.1-.2.2-.2h3.7c.2.1.2.1.2.2M169 97.9v1c0 .1-.1.2-.2.2h-3.7c-.1 0-.2-.1-.2-.2v-1c0-.1.1-.2.2-.2h3.7c.2.1.2.1.2.2M169 96v1c0 .1-.1.2-.2.2h-3.7c-.1 0-.2-.1-.2-.2v-1c0-.1.1-.2.2-.2h3.7c.2 0 .2.1.2.2M169 94.1v1c0 .1-.1.2-.2.2h-3.7c-.1 0-.2-.1-.2-.2v-1c0-.1.1-.2.2-.2h3.7c.2 0 .2.1.2.2" class="st7"/><path d="M167.1 87.9h16.4v21.4h-16.4z" class="st8"/><path d="M168.8 87.9h-1.7v21.4h1.7v-.1zM172 87.9h-1.6v21.4h1.6v-.1zM175.3 87.9h-1.6v21.4h1.6v-.1zM178.6 87.9h-1.7v21.4h1.7v-.1zM181.9 87.9h-1.7v21.4h1.7v-.1z" class="st1"/></g><g id="USB-2"><path d="M169 60.7v1c0 .1-.1.2-.2.2h-3.7c-.1 0-.2-.1-.2-.2v-1c0-.1.1-.2.2-.2h3.7c.2.1.2.2.2.2M169 58.8v1c0 .1-.1.2-.2.2h-3.7c-.1 0-.2-.1-.2-.2v-1c0-.1.1-.2.2-.2h3.7c.2.1.2.1.2.2M169 56.9v1c0 .1-.1.2-.2.2h-3.7c-.1 0-.2-.1-.2-.2v-1c0-.1.1-.2.2-.2h3.7c.2.1.2.1.2.2M169 55v1c0 .1-.1.2-.2.2h-3.7c-.1 0-.2-.1-.2-.2v-1c0-.1.1-.2.2-.2h3.7c.2.1.2.1.2.2M169 53.1v1c0 .1-.1.2-.2.2h-3.7c-.1 0-.2-.1-.2-.2v-1c0-.1.1-.2.2-.2h3.7c.2 0 .2.1.2.2" class="st7"/><path d="M167.1 46.9h16.4v21.4h-16.4z" class="st8"/><path d="M168.8 46.9h-1.7v21.4h1.7zM172 46.9h-1.6v21.4h1.6zM175.3 46.9h-1.6v21.4h1.6zM178.6 46.9h-1.7v21.4h1.7zM181.9 46.9h-1.7v21.4h1.7z" class="st1"/></g><g id="Artwork_4"><path d="M156.7 3.8c-1.9 0-3.4 1.5-3.4 3.4h6.8c0-1.9-1.5-3.4-3.4-3.4M148.2 24.2h.1v-6.8h-.1c-1.9 0-3.4 1.5-3.4 3.4s1.5 3.4 3.4 3.4" class="st1"/><path d="M177.7 29.9v2.8h8.1V4.5h-8.1v2.7h-29.4v22.7z" class="st0"/><path d="M177.7 29.9v2.8h8.1V4.5h-8.1v2.7h-29.4v22.7z" class="st9"/><path d="M177.7 29.9v2.8h8.1V4.5h-8.1v2.7h-29.4v22.7z" class="st10"/><path d="M185.8 4.5h2v28.2h-2z" class="st5"/></g><g id="LED"><path d="M144.1 87.1h7.6v3h-7.6z" class="st1"/><path d="M145.6 88.6c0-1.3 1-2.3 2.3-2.3s2.3 1 2.3 2.3-1 2.3-2.3 2.3-2.3-1-2.3-2.3" class="st11"/></g><g id="LED-2"><path d="M144.1 81.7h7.6v3h-7.6z" class="st1"/><path d="M145.6 83.2c0-1.3 1-2.3 2.3-2.3s2.3 1 2.3 2.3-1 2.3-2.3 2.3-2.3-1-2.3-2.3" class="st11"/></g><g id="LED-3"><path d="M144.1 76.3h7.6v3h-7.6z" class="st1"/><path d="M145.6 77.8c0-1.3 1-2.3 2.3-2.3s2.3 1 2.3 2.3-1 2.3-2.3 2.3-2.3-1-2.3-2.3" class="st11"/></g><g id="LED-4"><path d="M144.1 70.9h7.6v3h-7.6z" class="st1"/><path d="M145.6 72.4c0-1.3 1-2.3 2.3-2.3s2.3 1 2.3 2.3-1 2.3-2.3 2.3-2.3-1-2.3-2.3" class="st11"/></g><g id="LED-5"><path d="M144.1 65.5h7.6v3h-7.6z" class="st1"/><path d="M145.6 67c0-1.3 1-2.3 2.3-2.3s2.3 1 2.3 2.3-1 2.3-2.3 2.3-2.3-1.1-2.3-2.3" class="st11"/></g><g id="Artwork_13"><path d="M175 83.5h-1.8v-2.4c.5 0 .9-.4.9-1 0-.5-.4-.9-.9-.9v-2.5h1.8zM160.6 83.5h-2.2v-6.7h2.2v2.4c.3 0 .5.1.7.3-.2-.2-.4-.3-.7-.3-.5 0-1 .4-1 .9s.4 1 .9 1v2.4z" class="st1"/><path d="M175 76.8h1.3v6.7H175zM157 76.8h1.3v6.7H157zM173.2 81.1c-.5 0-1-.4-1-.9s.4-1 .9-1c-.5 0-.9.5-.9 1 .1.5.5.9 1 .9" class="st7"/><path d="M163.9 76h5.6v8.3h-5.6z" class="st0"/><path d="M163.9 76h5.6v8.3h-5.6z" class="st9"/><path d="M163.9 76h5.6v8.3h-5.6z" class="st10"/><path d="M173.2 84.3h-3.7V76h3.7v3.2c-.5 0-.9.5-.9 1s.4.9.9.9zM163.9 76v8.3h-3.4v-3.2c.5 0 1-.4 1-1 0-.5-.4-.9-1-1V76z" class="st5"/><path d="M160.6 81.1c-.5 0-1-.4-1-1s.4-1 1-1c.5 0 1 .4 1 1-.1.6-.5 1-1 1M173.2 81.1c-.5 0-1-.4-1-1s.4-1 1-1 1 .4 1 1c-.1.6-.5 1-1 1" class="st7"/></g><g id="Artwork_14"><path d="M154.6 131.5v.8h13v-.8h-1.5v-1.1h1.5v-4.1h-1.5v-1.1h1.5v-4.1h-1.5V120h1.5v-.8h-13v.8h1.5v1.1h-1.5v9.2h1.5v1.1zm6.5-9.2c2 0 3.6 1.6 3.6 3.6s-1.6 3.6-3.6 3.6-3.6-1.6-3.6-3.6 1.6-3.6 3.6-3.6" class="st1"/><path d="M150.9 132.4v-2.8h2.8v.9h-1.4v1h1.4v.9zM169.8 131.6v-1.1h-1.3v-.9h2.7v2.8h-2.7v-.8z" class="st8"/><path d="M168 131.6h1.8v-1.1h-3.7v1.1z" class="st5"/><path d="M150.9 122.1v-2.7h2.8v.8h-1.4v1.1h1.4v.8zM169.8 121.3v-1.1h-1.3v-.8h2.7v2.7h-2.7v-.8zM169.8 126.4v-1.1h-1.3v-.8h2.7v2.8h-2.7v-.9z" class="st8"/><path d="M154.2 130.5h-1.9v1h3.7v-1zM154.2 120.2h-1.9v1.1h3.7v-1.1zM168 121.3h1.8v-1.1h-3.7v1.1zM168 126.4h1.8v-1.1h-3.7v1.1z" class="st5"/><path d="M164.6 125.9c0 2-1.6 3.6-3.6 3.6s-3.6-1.6-3.6-3.6 1.6-3.6 3.6-3.6 3.6 1.6 3.6 3.6" style="fill:#dddede"/></g><g id="Artwork_2"><path d="M80.4 65.5h8.4v-8.4c-.1 4.7-3.8 8.4-8.4 8.4M88.7 57.2v-8.4h-8.4c4.7 0 8.4 3.7 8.4 8.4 0-.1 0 0 0 0" class="st13"/><path d="M69.7 55.1h4v4h-4z" class="st14"/><path d="M72 55.8c-.7 0-1.3.6-1.3 1.3s.6 1.3 1.3 1.3 1.3-.6 1.3-1.3c.1-.7-.5-1.3-1.3-1.3" class="st1"/><circle cx="80.4" cy="57.1" r="8.4" class="st7"/><path d="M80.4 58.5c-.7 0-1.3-.6-1.3-1.3s.6-1.3 1.3-1.3 1.3.6 1.3 1.3-.6 1.3-1.3 1.3" class="st1"/></g><g id="Artwork_2-2"><path d="M29.2 37.2v8.4h8.4c-4.6-.1-8.4-3.8-8.4-8.4M37.6 45.5H46v-8.4c-.1 4.7-3.8 8.4-8.4 8.4" class="st13"/><path d="M35.6 26.5h4v4h-4z" class="st14"/><path d="M39 28.8c0-.7-.6-1.3-1.3-1.3s-1.3.6-1.3 1.3.6 1.3 1.3 1.3c.6.1 1.3-.5 1.3-1.3" class="st1"/><circle cx="37.6" cy="37.2" r="8.4" class="st7"/><path d="M36.3 37.2c0-.7.6-1.3 1.3-1.3s1.3.6 1.3 1.3-.6 1.3-1.3 1.3-1.3-.6-1.3-1.3" class="st1"/></g><g id="Artwork_2-3"><path d="M125.9 30.3h8.4V22c0 4.6-3.8 8.3-8.4 8.3M134.3 22v-8.4h-8.4c4.6 0 8.4 3.8 8.4 8.4" class="st13"/><path d="M115.3 19.9h4v4h-4z" class="st14"/><path d="M117.6 20.6c-.7 0-1.3.6-1.3 1.3s.6 1.3 1.3 1.3 1.3-.6 1.3-1.3-.6-1.3-1.3-1.3" class="st1"/><circle cx="125.9" cy="22" r="8.4" class="st7"/><path d="M125.9 23.3c-.7 0-1.3-.6-1.3-1.3s.6-1.3 1.3-1.3 1.3.6 1.3 1.3-.6 1.3-1.3 1.3" class="st1"/></g><g id="Artwork_13-2"><path d="M160.4 116.6h-1.8v-2.4c.5 0 .9-.4.9-1 0-.5-.4-.9-.9-.9v-2.5h1.8zM145.9 116.6h-2.2v-6.7h2.2v2.4c.3 0 .5.1.7.3-.2-.2-.4-.3-.7-.3-.5 0-1 .4-1 .9s.4 1 .9 1v2.4z" class="st1"/><path d="M160.4 109.9h1.3v6.7h-1.3zM142.4 109.9h1.3v6.7h-1.3zM158.6 114.2c-.5 0-1-.4-1-.9s.4-1 .9-1c-.5 0-.9.5-.9 1 .1.5.5.9 1 .9" class="st7"/><path d="M149.3 109.1h5.6v8.3h-5.6z" class="st0"/><path d="M149.3 109.1h5.6v8.3h-5.6z" class="st9"/><path d="M149.3 109.1h5.6v8.3h-5.6z" class="st10"/><path d="M158.6 117.4h-3.7v-8.3h3.7v3.2c-.5 0-.9.5-.9 1s.4.9.9.9zM149.3 109.1v8.3h-3.4v-3.2c.5 0 1-.4 1-1 0-.5-.4-.9-1-1V109h3.4z" class="st5"/><path d="M145.9 114.2c-.5 0-1-.4-1-1 0-.5.4-1 1-1s1 .4 1 1-.4 1-1 1M158.6 114.2c-.5 0-1-.4-1-1s.4-1 1-1 1 .4 1 1c-.1.6-.5 1-1 1" class="st7"/></g><g id="Single_pin"><path d="M132.5 135.1v-6.6h-6.6v6.6z" class="st0"/><path d="M132.5 135.1v-6.6h-6.6v6.6z" class="st9"/><path d="M132.5 135.1v-6.6h-6.6v6.6z" class="st10"/><path d="M127.5 133.5h3.3v-3.3h-3.3z" class="st5"/></g><g id="Single_pin-2"><path d="M125.9 135.1v-6.6h-6.6v6.6z" class="st0"/><path d="M125.9 135.1v-6.6h-6.6v6.6z" class="st9"/><path d="M125.9 135.1v-6.6h-6.6v6.6z" class="st10"/><path d="M120.9 133.5h3.3v-3.3h-3.3z" class="st5"/></g><g id="Single_pin-3"><path d="M119.3 135.1v-6.6h-6.6v6.6z" class="st0"/><path d="M119.3 135.1v-6.6h-6.6v6.6z" class="st9"/><path d="M119.3 135.1v-6.6h-6.6v6.6z" class="st10"/><path d="M114.3 133.5h3.3v-3.3h-3.3z" class="st5"/></g><g id="Single_pin-4"><path d="M112.7 135.1v-6.6h-6.6v6.6z" class="st0"/><path d="M112.7 135.1v-6.6h-6.6v6.6z" class="st9"/><path d="M112.7 135.1v-6.6h-6.6v6.6z" class="st10"/><path d="M107.7 133.5h3.3v-3.3h-3.3z" class="st5"/></g><g id="Single_pin-5"><path d="M106.1 135.1v-6.6h-6.6v6.6z" class="st0"/><path d="M106.1 135.1v-6.6h-6.6v6.6z" class="st9"/><path d="M106.1 135.1v-6.6h-6.6v6.6z" class="st10"/><path d="M101.2 133.5h3.2v-3.3h-3.2z" class="st5"/></g><g id="Single_pin-6"><path d="M99.5 135.1v-6.6h-6.6v6.6z" class="st0"/><path d="M99.5 135.1v-6.6h-6.6v6.6z" class="st9"/><path d="M99.5 135.1v-6.6h-6.6v6.6z" class="st10"/><path d="M94.6 133.5h3.3v-3.3h-3.3z" class="st5"/></g><g id="Single_pin-7"><path d="M92.9 135.1v-6.6h-6.6v6.6z" class="st0"/><path d="M92.9 135.1v-6.6h-6.6v6.6z" class="st9"/><path d="M92.9 135.1v-6.6h-6.6v6.6z" class="st10"/><path d="M88 133.5h3.3v-3.3H88z" class="st5"/></g><g id="Single_pin-8"><path d="M86.3 135.1v-6.6h-6.6v6.6z" class="st0"/><path d="M86.3 135.1v-6.6h-6.6v6.6z" class="st9"/><path d="M86.3 135.1v-6.6h-6.6v6.6z" class="st10"/><path d="M81.4 133.5h3.3v-3.3h-3.3z" class="st5"/></g><g id="Single_pin-9"><path d="M79.7 135.1v-6.6h-6.6v6.6z" class="st0"/><path d="M79.7 135.1v-6.6h-6.6v6.6z" class="st9"/><path d="M79.7 135.1v-6.6h-6.6v6.6z" class="st10"/><path d="M74.8 133.5h3.3v-3.3h-3.3z" class="st5"/></g><g id="Single_pin-10"><path d="M73.1 135.1v-6.6h-6.6v6.6z" class="st0"/><path d="M73.1 135.1v-6.6h-6.6v6.6z" class="st9"/><path d="M73.1 135.1v-6.6h-6.6v6.6z" class="st10"/><path d="M68.2 133.5h3.3v-3.3h-3.3z" class="st5"/></g><g id="Single_pin-11"><path d="M67.1 135.1v-6.6h-11v6.6z" class="st0"/><path d="M67.1 135.1v-6.6h-11v6.6z" class="st9"/><path d="M67.1 135.1v-6.6h-11v6.6z" class="st10"/><path d="M57.8 133.5h3.3v-3.3h-3.3z" class="st5"/></g><g id="Single_pin-12"><path d="M56.2 135.1v-6.6h-6.6v6.6z" class="st0"/><path d="M56.2 135.1v-6.6h-6.6v6.6z" class="st9"/><path d="M56.2 135.1v-6.6h-6.6v6.6z" class="st10"/><path d="M51.2 133.5h3.3v-3.3h-3.3z" class="st5"/></g><g id="Single_pin-13"><path d="M49.6 135.1v-6.6H43v6.6z" class="st0"/><path d="M49.6 135.1v-6.6H43v6.6z" class="st9"/><path d="M49.6 135.1v-6.6H43v6.6z" class="st10"/><path d="M44.6 133.5h3.3v-3.3h-3.3z" class="st5"/></g><g id="Single_pin-14"><path d="M43 135.1v-6.6h-6.6v6.6z" class="st0"/><path d="M43 135.1v-6.6h-6.6v6.6z" class="st9"/><path d="M43 135.1v-6.6h-6.6v6.6z" class="st10"/><path d="M38 133.5h3.3v-3.3H38z" class="st5"/></g><g id="Single_pin-15"><path d="M36.4 135.1v-6.6h-6.6v6.6z" class="st0"/><path d="M36.4 135.1v-6.6h-6.6v6.6z" class="st9"/><path d="M36.4 135.1v-6.6h-6.6v6.6z" class="st10"/><path d="M31.5 133.5h3.2v-3.3h-3.2z" class="st5"/></g><g id="Single_pin-16"><path d="M29.8 135.1v-6.6h-6.6v6.6z" class="st0"/><path d="M29.8 135.1v-6.6h-6.6v6.6z" class="st9"/><path d="M29.8 135.1v-6.6h-6.6v6.6z" class="st10"/><path d="M24.9 133.5h3.3v-3.3h-3.3z" class="st5"/></g><g id="Single_pin-17"><path d="M23.2 135.1v-6.6h-6.6v6.6z" class="st0"/><path d="M23.2 135.1v-6.6h-6.6v6.6z" class="st9"/><path d="M23.2 135.1v-6.6h-6.6v6.6z" class="st10"/><path d="M18.3 133.5h3.3v-3.3h-3.3z" class="st5"/></g><g id="Single_pin-18"><path d="M16.6 135.1v-6.6H10v6.6z" class="st0"/><path d="M16.6 135.1v-6.6H10v6.6z" class="st9"/><path d="M16.6 135.1v-6.6H10v6.6z" class="st10"/><path d="M11.7 133.5H15v-3.3h-3.3z" class="st5"/></g><g id="Single_pin-19"><path d="M108.7 10.1V3.5h-6.6v6.6z" class="st0"/><path d="M108.7 10.1V3.5h-6.6v6.6z" class="st9"/><path d="M108.7 10.1V3.5h-6.6v6.6z" class="st10"/><path d="M103.8 8.5h3.3V5.2h-3.3z" class="st5"/></g><g id="Single_pin-20"><path d="M102.1 10.1V3.5h-6.6v6.6z" class="st0"/><path d="M102.1 10.1V3.5h-6.6v6.6z" class="st9"/><path d="M102.1 10.1V3.5h-6.6v6.6z" class="st10"/><path d="M97.2 8.5h3.3V5.2h-3.3z" class="st5"/></g><g id="Single_pin-21"><path d="M95.6 10.1V3.5H89v6.6z" class="st0"/><path d="M95.6 10.1V3.5H89v6.6z" class="st9"/><path d="M95.6 10.1V3.5H89v6.6z" class="st10"/><path d="M90.6 8.5h3.3V5.2h-3.3z" class="st5"/></g><g id="Single_pin-22"><path d="M89 10.1V3.5h-6.6v6.6z" class="st0"/><path d="M89 10.1V3.5h-6.6v6.6z" class="st9"/><path d="M89 10.1V3.5h-6.6v6.6z" class="st10"/><path d="M84.1 8.5h3.3V5.2h-3.3z" class="st5"/></g><g id="Single_pin-23"><path d="M82.4 10.1V3.5h-6.6v6.6z" class="st0"/><path d="M82.4 10.1V3.5h-6.6v6.6z" class="st9"/><path d="M82.4 10.1V3.5h-6.6v6.6z" class="st10"/><path d="M77.5 8.5h3.3V5.2h-3.3z" class="st5"/></g><g id="Single_pin-24"><path d="M75.8 10.1V3.5h-6.6v6.6z" class="st0"/><path d="M75.8 10.1V3.5h-6.6v6.6z" class="st9"/><path d="M75.8 10.1V3.5h-6.6v6.6z" class="st10"/><path d="M70.9 8.5h3.3V5.2h-3.3z" class="st5"/></g><g id="Single_pin-25"><path d="M69.3 10.1V3.5h-6.6v6.6z" class="st0"/><path d="M69.3 10.1V3.5h-6.6v6.6z" class="st9"/><path d="M69.3 10.1V3.5h-6.6v6.6z" class="st10"/><path d="M64.3 8.5h3.3V5.2h-3.3z" class="st5"/></g><g id="Single_pin-26"><path d="M62.7 10.1V3.5H49.5v6.6z" class="st0"/><path d="M62.7 10.1V3.5H49.5v6.6z" class="st9"/><path d="M62.7 10.1V3.5H49.5v6.6z" class="st10"/><path d="M57.8 8.5h3.3V5.2h-3.3z" class="st5"/></g><g id="Single_pin-27"><path d="M49.5 10.1V3.5h-6.6v6.6z" class="st0"/><path d="M49.5 10.1V3.5h-6.6v6.6z" class="st9"/><path d="M49.5 10.1V3.5h-6.6v6.6z" class="st10"/><path d="M44.6 8.5h3.2V5.2h-3.2z" class="st5"/></g><g id="Single_pin-28"><path d="M42.9 10.1V3.5h-6.6v6.6z" class="st0"/><path d="M42.9 10.1V3.5h-6.6v6.6z" class="st9"/><path d="M42.9 10.1V3.5h-6.6v6.6z" class="st10"/><path d="M38 8.5h3.3V5.2H38z" class="st5"/></g><g id="Single_pin-29"><path d="M36.3 10.1V3.5h-6.6v6.6z" class="st0"/><path d="M36.3 10.1V3.5h-6.6v6.6z" class="st9"/><path d="M36.3 10.1V3.5h-6.6v6.6z" class="st10"/><path d="M31.4 8.5h3.3V5.2h-3.3z" class="st5"/></g><g id="Single_pin-30"><path d="M29.7 10.1V3.5h-6.6v6.6z" class="st0"/><path d="M29.7 10.1V3.5h-6.6v6.6z" class="st9"/><path d="M29.7 10.1V3.5h-6.6v6.6z" class="st10"/><path d="M24.8 8.5h3.3V5.2h-3.3z" class="st5"/></g><g id="Single_pin-31"><path d="M23.1 10.1V3.5h-6.6v6.6z" class="st0"/><path d="M23.1 10.1V3.5h-6.6v6.6z" class="st9"/><path d="M23.1 10.1V3.5h-6.6v6.6z" class="st10"/><path d="M18.2 8.5h3.3V5.2h-3.3z" class="st5"/></g><g id="Single_pin-32"><path d="M16.5 10.1V3.5H10v6.6z" class="st0"/><path d="M16.5 10.1V3.5H10v6.6z" class="st9"/><path d="M16.5 10.1V3.5H10v6.6z" class="st10"/><path d="M11.6 8.5h3.3V5.2h-3.3z" class="st5"/></g><g id="Disegno_21"><path d="M3.4 64.7v2.6l1.8 1.8v.5l-1.8 1.8v2.5l1.8 1.8v.5L3.4 78v2.6l1.8 1.8h9.2l1.8-1.8V78l-1.8-1.8v-.5l1.8-1.8v-2.5l-1.8-1.8v-.5l1.8-1.8v-2.6l-1.8-1.8H5.2z" class="st13"/><path d="M13.1 67.1c-.6 0-1.1-.5-1.1-1.1s.5-1.1 1.1-1.1 1.1.5 1.1 1.1c.1.6-.5 1.1-1.1 1.1M6.4 80.5c-.6 0-1.1-.5-1.1-1.1s.5-1.1 1.1-1.1 1.1.5 1.1 1.1c.1.5-.4 1.1-1.1 1.1M6.4 73.8c-.6 0-1.1-.5-1.1-1.1s.5-1.1 1.1-1.1 1.1.5 1.1 1.1c.1.6-.4 1.1-1.1 1.1M6.4 67.1c-.6 0-1.1-.5-1.1-1.1s.5-1.1 1.1-1.1 1.1.5 1.1 1.1c.1.6-.4 1.1-1.1 1.1M13.1 80.5c-.6 0-1.1-.5-1.1-1.1s.5-1.1 1.1-1.1 1.1.5 1.1 1.1c.1.5-.5 1.1-1.1 1.1M13.1 73.8c-.6 0-1.1-.5-1.1-1.1s.5-1.1 1.1-1.1 1.1.5 1.1 1.1c.1.6-.5 1.1-1.1 1.1" class="st1"/></g><path d="M6.8 43.5c0-.8.6-1.4 1.4-1.4s1.4.6 1.4 1.4-.6 1.4-1.4 1.4-1.4-.6-1.4-1.4" class="st4"/><path d="M9.3 43.5c0 .6-.5 1.1-1.1 1.1s-1.1-.5-1.1-1.1.5-1.1 1.1-1.1 1.1.5 1.1 1.1m.5 0c0-.9-.7-1.6-1.6-1.6s-1.6.7-1.6 1.6.7 1.6 1.6 1.6c.9.1 1.6-.7 1.6-1.6" class="st5"/><path d="M6.8 40.2c0-.8.6-1.4 1.4-1.4s1.4.6 1.4 1.4-.6 1.4-1.4 1.4-1.4-.6-1.4-1.4" class="st4"/><path d="M9.3 40.2c0 .6-.5 1.1-1.1 1.1s-1.1-.5-1.1-1.1.5-1.1 1.1-1.1 1.1.5 1.1 1.1m.5 0c0-.9-.7-1.6-1.6-1.6s-1.6.7-1.6 1.6.7 1.6 1.6 1.6c.9.1 1.6-.7 1.6-1.6" class="st5"/><path d="M6.8 53.4c0-.8.6-1.4 1.4-1.4s1.4.6 1.4 1.4-.6 1.3-1.4 1.3-1.4-.6-1.4-1.3" class="st4"/><path d="M9.3 53.4c0 .6-.5 1.1-1.1 1.1s-1.1-.5-1.1-1.1.5-1.1 1.1-1.1c.6-.1 1.1.4 1.1 1.1m.5 0c0-.9-.7-1.6-1.6-1.6s-1.6.7-1.6 1.6.7 1.6 1.6 1.6 1.6-.7 1.6-1.6" class="st5"/><path d="M6.8 50.1c0-.8.6-1.4 1.4-1.4s1.4.6 1.4 1.4-.6 1.4-1.4 1.4-1.4-.7-1.4-1.4" class="st4"/><path d="M9.3 50.1c0 .6-.5 1.1-1.1 1.1s-1.1-.5-1.1-1.1.5-1.1 1.1-1.1c.6-.1 1.1.4 1.1 1.1m.5 0c0-.9-.7-1.6-1.6-1.6s-1.6.7-1.6 1.6.7 1.6 1.6 1.6 1.6-.7 1.6-1.6" class="st5"/><path d="M6.8 46.8c0-.8.6-1.4 1.4-1.4s1.4.6 1.4 1.4-.6 1.4-1.4 1.4-1.4-.6-1.4-1.4" class="st4"/><path d="M9.3 46.8c0 .6-.5 1.1-1.1 1.1s-1.1-.5-1.1-1.1.5-1.1 1.1-1.1 1.1.5 1.1 1.1m.5 0c0-.9-.7-1.6-1.6-1.6s-1.6.7-1.6 1.6.7 1.6 1.6 1.6 1.6-.7 1.6-1.6" class="st5"/><path d="M10.1 43.5c0-.8.6-1.4 1.4-1.4s1.4.6 1.4 1.4-.6 1.4-1.4 1.4-1.4-.6-1.4-1.4" class="st4"/><path d="M12.6 43.5c0 .6-.5 1.1-1.1 1.1s-1.1-.5-1.1-1.1.5-1.1 1.1-1.1 1.1.5 1.1 1.1m.5 0c0-.9-.7-1.6-1.6-1.6s-1.6.7-1.6 1.6.7 1.6 1.6 1.6c.9.1 1.6-.7 1.6-1.6" class="st5"/><path d="M10.1 40.2c0-.8.6-1.4 1.4-1.4s1.4.6 1.4 1.4-.6 1.4-1.4 1.4-1.4-.6-1.4-1.4" class="st4"/><path d="M12.6 40.2c0 .6-.5 1.1-1.1 1.1s-1.1-.5-1.1-1.1.5-1.1 1.1-1.1 1.1.5 1.1 1.1m.5 0c0-.9-.7-1.6-1.6-1.6s-1.6.7-1.6 1.6.7 1.6 1.6 1.6c.9.1 1.6-.7 1.6-1.6" class="st5"/><path d="M10.1 53.4c0-.8.6-1.4 1.4-1.4s1.4.6 1.4 1.4-.6 1.4-1.4 1.4c-.8-.1-1.4-.7-1.4-1.4" class="st4"/><path d="M12.6 53.4c0 .6-.5 1.1-1.1 1.1s-1.1-.5-1.1-1.1.5-1.1 1.1-1.1c.6-.1 1.1.4 1.1 1.1m.5 0c0-.9-.7-1.6-1.6-1.6s-1.6.7-1.6 1.6.7 1.6 1.6 1.6 1.6-.7 1.6-1.6" class="st5"/><path d="M10.1 50.1c0-.8.6-1.4 1.4-1.4s1.4.6 1.4 1.4-.6 1.4-1.4 1.4-1.4-.7-1.4-1.4" class="st4"/><path d="M12.6 50.1c0 .6-.5 1.1-1.1 1.1s-1.1-.5-1.1-1.1.5-1.1 1.1-1.1c.6-.1 1.1.4 1.1 1.1m.5 0c0-.9-.7-1.6-1.6-1.6s-1.6.7-1.6 1.6.7 1.6 1.6 1.6 1.6-.7 1.6-1.6" class="st5"/><path d="M10.1 46.8c0-.8.6-1.4 1.4-1.4s1.4.6 1.4 1.4-.6 1.4-1.4 1.4-1.4-.6-1.4-1.4" class="st4"/><path d="M12.6 46.8c0 .6-.5 1.1-1.1 1.1s-1.1-.5-1.1-1.1.5-1.1 1.1-1.1 1.1.5 1.1 1.1m.5 0c0-.9-.7-1.6-1.6-1.6s-1.6.7-1.6 1.6.7 1.6 1.6 1.6 1.6-.7 1.6-1.6" class="st5"/><path d="M113.9 89.7H96.6V73.6l1.1-1.1h16.2z" class="st0"/><path d="M113.9 89.7H96.6V73.6l1.1-1.1h16.2z" class="st9"/><path d="M113.9 89.7H96.6V73.6l1.1-1.1h16.2z" class="st10"/><g id="Disegno_12"><path d="M59.7 90.2H41.5V72h18.2z" class="st0"/><path d="M59.7 90.2H41.5V72h18.2z" class="st9"/><path d="M59.7 90.2H41.5V72h18.2z" class="st10"/><path d="M43.4 70.3h1.7v3.4h-1.7zM45.9 70.3h1.7v3.4h-1.7zM48.5 70.3h1.7v3.4h-1.7zM51 70.3h1.7v3.4H51zM53.6 70.3h1.7v3.4h-1.7zM56.1 70.3h1.7v3.4h-1.7zM43.4 88.5h1.7v3.4h-1.7zM45.9 88.5h1.7v3.4h-1.7zM48.5 88.5h1.7v3.4h-1.7zM51 88.5h1.7v3.4H51zM53.6 88.5h1.7v3.4h-1.7zM56.1 88.5h1.7v3.4h-1.7zM58 73.9h3.4v1.7H58zM58 76.5h3.4v1.7H58zM58 79h3.4v1.7H58zM58 81.5h3.4v1.7H58zM58 84.1h3.4v1.7H58zM58 86.6h3.4v1.7H58zM39.7 73.9h3.4v1.7h-3.4zM39.7 76.5h3.4v1.7h-3.4zM39.7 79h3.4v1.7h-3.4zM39.7 81.5h3.4v1.7h-3.4zM39.7 84.1h3.4v1.7h-3.4zM39.7 86.6h3.4v1.7h-3.4z" class="st1"/></g><g id="Disegno_34"><path d="M65.3 41.9h3.2v1.2h-3.2zM59.8 41.9H63v1.2h-3.2zM56.8 29.9h9.1v1.2h-9.1z" class="st1"/><path d="M56.8 28.7h9.1v1.2h-9.1z" class="st2"/><path d="M56.8 27.4h9.1v1.2h-9.1zM54.3 41.9h3.2v1.2h-3.2z" class="st1"/><path d="M65.3 43.1h3.2v1.2h-3.2zM59.8 43.1H63v1.2h-3.2zM54.3 43.1h3.2v1.2h-3.2z" class="st3"/><path d="M65.3 44.3h3.2v1.2h-3.2zM59.8 44.3H63v1.2h-3.2zM54.3 44.3h3.2v1.2h-3.2z" class="st1"/><path d="M52.1 31.1h18.5v10.8H52.1z" class="st0"/><path d="M52.1 31.1h18.5v10.8H52.1z" class="st9"/><path d="M52.1 31.1h18.5v10.8H52.1z" class="st10"/></g><g id="Disegno_35"><path d="M127.5 68.5h3.8v4.8h-3.8z" class="st0"/><path d="M127.5 68.5h3.8v4.8h-3.8z" class="st9"/><path d="M127.5 68.5h3.8v4.8h-3.8z" class="st10"/><path d="M126.7 72.5c0 .4.4.8.8.8v-1.6c-.4 0-.8.4-.8.8M126.7 70.9c0 .4.4.8.8.8v-1.6c-.4 0-.8.4-.8.8M126.7 69.3c0 .4.4.8.8.8v-1.6c-.4 0-.8.4-.8.8M132.1 72.5c0 .4-.4.8-.8.8v-1.6c.4 0 .8.4.8.8M132.1 70.9c0 .4-.4.8-.8.8v-1.6c.4 0 .8.4.8.8M132.1 69.3c0 .4-.4.8-.8.8v-1.6c.4 0 .8.4.8.8" class="st1"/></g><g id="Disegno_35-2"><path d="M104.6 31.6h6.9V37h-6.9z" class="st0"/><path d="M104.6 31.6h6.9V37h-6.9z" class="st9"/><path d="M104.6 31.6h6.9V37h-6.9z" class="st10"/><path d="M105.8 30.4c-.6 0-1.2.5-1.2 1.2h2.3c0-.7-.5-1.2-1.1-1.2M108.1 30.4c-.6 0-1.2.5-1.2 1.2h2.3c.1-.7-.5-1.2-1.1-1.2" class="st1"/><path d="M110.4 30.4c-.6 0-1.2.5-1.2 1.2h2.3c.1-.7-.4-1.2-1.1-1.2M105.8 38.1c-.6 0-1.2-.5-1.2-1.2h2.3c0 .7-.5 1.2-1.1 1.2M108.1 38.1c-.6 0-1.2-.5-1.2-1.2h2.3c.1.7-.5 1.2-1.1 1.2" class="st1"/><path d="M110.4 38.1c-.6 0-1.2-.5-1.2-1.2h2.3c.1.7-.4 1.2-1.1 1.2" class="st1"/></g><g id="Disegno_7"><path d="M134.6 103.1h4v7h-4z" class="st13"/><path d="M138.6 103.1h2.5v2.5h-2.5zM132.1 105.3h2.5v2.5h-2.5zM138.6 107.5h2.5v2.5h-2.5z" class="st7"/><path d="M138 103.7h1.2v1.2H138zM138 108.2h1.2v1.2H138zM134 105.9h1.2v1.2H134z" class="st1"/></g><g id="Disegno_7-2"><path d="M134.6 89.6h4v7h-4z" class="st13"/><path d="M138.6 89.6h2.5v2.5h-2.5zM132.1 91.9h2.5v2.5h-2.5zM138.6 94.1h2.5v2.5h-2.5z" class="st7"/><path d="M138 90.2h1.2v1.2H138zM138 94.7h1.2v1.2H138zM134 92.5h1.2v1.2H134z" class="st1"/></g><g id="Disegno_7-3"><path d="M127.3 78.9h4v7h-4z" class="st13"/><path d="M124.8 83.3h2.5v2.5h-2.5zM131.3 81.1h2.5v2.5h-2.5zM124.8 78.9h2.5v2.5h-2.5z" class="st7"/><path d="M126.7 83.9h1.2v1.2h-1.2zM126.7 79.5h1.2v1.2h-1.2zM130.6 81.7h1.2v1.2h-1.2z" class="st1"/></g><g id="Disegno_7-4"><path d="M155.7 56.5h7v4h-7z" class="st13"/><path d="M160.1 60.5h2.5V63h-2.5zM160.1 54h2.5v2.5h-2.5zM155.7 60.5h2.5V63h-2.5z" class="st7"/><path d="M160.7 59.8h1.2V61h-1.2zM156.3 59.8h1.2V61h-1.2zM160.7 55.8h1.2V57h-1.2z" class="st1"/><path d="M155.7 54h2.5v2.5h-2.5z" class="st7"/><path d="M156.3 55.8h1.2V57h-1.2z" class="st1"/></g><g id="Disegno_7-5"><path d="M155.7 97.4h7v4h-7z" class="st13"/><path d="M160.1 101.4h2.5v2.5h-2.5zM160.1 94.9h2.5v2.5h-2.5zM155.7 101.4h2.5v2.5h-2.5z" class="st7"/><path d="M160.7 100.8h1.2v1.2h-1.2zM156.3 100.8h1.2v1.2h-1.2zM160.7 96.8h1.2V98h-1.2z" class="st1"/><path d="M155.7 94.9h2.5v2.5h-2.5z" class="st7"/><path d="M156.3 96.8h1.2V98h-1.2z" class="st1"/></g><g id="Disegno_7-6"><path d="M154 37.6h4v7h-4z" class="st13"/><path d="M158 37.6h2.5v2.5H158zM151.5 39.8h2.5v2.5h-2.5zM158 42.1h2.5v2.5H158z" class="st7"/><path d="M157.3 38.2h1.2v1.2h-1.2zM157.3 42.7h1.2v1.2h-1.2zM153.4 40.5h1.2v1.2h-1.2z" class="st1"/></g><g id="Disegno_7-7"><path d="M134.6 112.4h4v7h-4z" class="st13"/><path d="M132.1 116.9h2.5v2.5h-2.5zM138.6 114.6h2.5v2.5h-2.5zM132.1 112.4h2.5v2.5h-2.5z" class="st7"/><path d="M134 117.5h1.2v1.2H134zM134 113h1.2v1.2H134zM138 115.2h1.2v1.2H138z" class="st1"/></g><g id="Artwork_12"><path d="M162.2 114.7h3.8v1.9h-3.8zM162.2 109.9h3.8v1.9h-3.8z" class="st1"/><path d="M165.6 111.6c0-.4-.3-.7-.7-.7h-1.5c-.4 0-.7.3-.7.7v.2h3v-.2zM162.6 114.9c0 .4.3.7.7.7h1.5c.4 0 .7-.3.7-.7v-.2h-3v.2z" class="st5"/><path d="M162.6 111.8h3v3h-3z" class="st0"/><path d="M162.6 111.8h3v3h-3z" class="st9"/><path d="M162.6 111.8h3v3h-3z" class="st10"/></g><g id="Artwork_12-2"><path d="M26 82.5h3.2v1.6H26zM26 78.4h3.2V80H26z" class="st1"/><path d="M28.9 79.8c0-.3-.3-.6-.6-.6H27c-.3 0-.6.3-.6.6v.2h2.5zM26.4 82.6c0 .3.3.6.6.6h1.2c.3 0 .6-.3.6-.6v-.2h-2.5v.2z" class="st5"/><path d="M26.4 80h2.5v2.5h-2.5z" class="st0"/><path d="M26.4 80h2.5v2.5h-2.5z" class="st9"/><path d="M26.4 80h2.5v2.5h-2.5z" class="st10"/></g><g id="Artwork_12-3"><path d="M50.9 94.3h1.6v3.2h-1.6zM46.8 94.3h1.6v3.2h-1.6z" class="st1"/><path d="M48.2 94.7c-.3 0-.6.3-.6.6v1.2c0 .3.3.6.6.6h.2v-2.5h-.2zM51 97.1c.3 0 .6-.3.6-.6v-1.2c0-.3-.3-.6-.6-.6h-.2v2.5z" class="st5"/><path d="M48.4 94.7h2.5v2.5h-2.5z" class="st0"/><path d="M48.4 94.7h2.5v2.5h-2.5z" class="st9"/><path d="M48.4 94.7h2.5v2.5h-2.5z" class="st10"/></g><g id="Artwork_12-4"><path d="M65.1 48.3h1.6v3.2h-1.6zM61 48.3h1.6v3.2H61z" class="st1"/><path d="M62.5 48.7c-.3 0-.6.3-.6.6v1.2c0 .3.3.6.6.6h.2v-2.5h-.2zM65.3 51.2c.3 0 .6-.3.6-.6v-1.2c0-.3-.3-.6-.6-.6h-.2v2.5h.2z" class="st5"/><path d="M62.6 48.7h2.5v2.5h-2.5z" class="st0"/><path d="M62.6 48.7h2.5v2.5h-2.5z" class="st9"/><path d="M62.6 48.7h2.5v2.5h-2.5z" class="st10"/></g><g id="Artwork_12-5"><path d="M47.5 37.7h3.2v1.6h-3.2zM47.5 41.8h3.2v1.6h-3.2z" class="st1"/><path d="M47.9 41.9c0 .3.3.6.6.6h1.2c.3 0 .6-.3.6-.6v-.2h-2.5v.2zM50.4 39.1c0-.3-.3-.6-.6-.6h-1.2c-.3 0-.6.3-.6.6v.2h2.5v-.2z" class="st5"/><path d="M47.9 39.3h2.5v2.5h-2.5z" class="st0"/><path d="M47.9 39.3h2.5v2.5h-2.5z" class="st9"/><path d="M47.9 39.3h2.5v2.5h-2.5z" class="st10"/></g><g id="Artwork_8"><path d="M103.7 44.8c0-.7-.5-1.2-1.2-1.2V46c.6 0 1.2-.5 1.2-1.2M91.8 44.8c0 .7.5 1.2 1.2 1.2v-2.4c-.6 0-1.2.5-1.2 1.2M103.7 42.3c0-.7-.5-1.2-1.2-1.2v2.4c.6.1 1.2-.5 1.2-1.2M91.8 42.3c0 .7.5 1.2 1.2 1.2v-2.4c-.6 0-1.2.6-1.2 1.2" class="st1"/><path d="M93 43.6V46h9.4v-4.9H93z" class="st0"/><path d="M93 43.6V46h9.4v-4.9H93z" class="st9"/><path d="M93 43.6V46h9.4v-4.9H93z" class="st10"/></g><g id="Artwork_8-2"><path d="M94 38.7c.7 0 1.2-.5 1.2-1.2h-2.4c0 .7.5 1.2 1.2 1.2M94 26.9c-.7 0-1.2.5-1.2 1.2h2.4c0-.6-.5-1.2-1.2-1.2M96.5 38.7c.7 0 1.2-.5 1.2-1.2h-2.4c-.1.7.5 1.2 1.2 1.2M96.5 26.9c-.7 0-1.2.5-1.2 1.2h2.4c0-.6-.6-1.2-1.2-1.2" class="st1"/><path d="M95.2 28.1h-2.4v9.4h4.9v-9.4z" class="st0"/><path d="M95.2 28.1h-2.4v9.4h4.9v-9.4z" class="st9"/><path d="M95.2 28.1h-2.4v9.4h4.9v-9.4z" class="st10"/></g><g id="Artwork_8-3"><path d="M122.4 7c0 .7.5 1.2 1.2 1.2V5.8c-.6 0-1.2.6-1.2 1.2M134.3 7c0-.7-.5-1.2-1.2-1.2v2.4c.6.1 1.2-.5 1.2-1.2M122.4 9.5c0 .7.5 1.2 1.2 1.2V8.3c-.6 0-1.2.5-1.2 1.2M134.3 9.5c0-.7-.5-1.2-1.2-1.2v2.4c.6 0 1.2-.5 1.2-1.2" class="st1"/><path d="M133 8.3V5.8h-9.4v4.9h9.4z" class="st0"/><path d="M133 8.3V5.8h-9.4v4.9h9.4z" class="st9"/><path d="M133 8.3V5.8h-9.4v4.9h9.4z" class="st10"/></g><path d="M72.6 27.9h16v15.2h-16z" class="st0"/><path d="M72.6 27.9h16v15.2h-16z" class="st9"/><path d="M72.6 27.9h16v15.2h-16z" class="st10"/><g id="Artwork_3"><path d="M108.1 110.7v2.3h-2.3v-2.3zM108.1 108.2v2.3h-2.3v-2.3zq0-.15 0 0" class="st1"/><path d="M106 109.6v1.9c0 .5.5 1 1 .9.5 0 .9-.4.9-.9v-1.9c0-.5-.4-1-1-1s-.9.5-.9 1" class="st7"/><path d="M106 109.8h1.9v1.4H106z" class="st0"/><path d="M106 109.8h1.9v1.4H106z" class="st9"/><path d="M106 109.8h1.9v1.4H106z" class="st10"/></g><g id="Artwork_3-2"><path d="M108.1 96.3v2.3h-2.3v-2.3zM108.1 93.8V96h-2.3v-2.3zq0-.15 0 0" class="st1"/><path d="M106 95.2v1.9c0 .5.5 1 1 .9.5 0 .9-.4.9-.9v-1.9c0-.5-.4-1-1-1s-.9.4-.9 1" class="st7"/><path d="M106 95.4h1.9v1.4H106z" class="st0"/><path d="M106 95.4h1.9v1.4H106z" class="st9"/><path d="M106 95.4h1.9v1.4H106z" class="st10"/></g><g id="Artwork_3-3"><path d="M111 96.3v1.5h-1.5v-1.5zc0-.1 0 0 0 0M111 94.5V96h-1.5v-1.5z" class="st1"/><path d="M109.5 95.5v1.3c0 .4.3.6.7.6.3 0 .6-.3.6-.6v-1.3c0-.4-.3-.7-.7-.7s-.6.4-.6.7" class="st7"/><path d="M109.5 95.7h1.3v1h-1.3z" class="st0"/><path d="M109.5 95.7h1.3v1h-1.3z" class="st9"/><path d="M109.5 95.7h1.3v1h-1.3z" class="st10"/></g><g id="Artwork_3-4"><path d="M102.7 96.7v1.5h-1.5v-1.5zM104.5 96.7v1.5H103v-1.5z" class="st1"/><path d="M103.5 96.8h-1.3c-.4 0-.6.3-.6.7 0 .3.3.6.6.6h1.3c.4 0 .7-.3.7-.7s-.4-.6-.7-.6" class="st7"/><path d="M102.3 96.8h1v1.3h-1z" class="st0"/><path d="M102.3 96.8h1v1.3h-1z" class="st9"/><path d="M102.3 96.8h1v1.3h-1z" class="st10"/></g><g id="Artwork_3-5"><path d="M102.7 94.1v1.5h-1.5v-1.5zM104.5 94.1v1.5H103v-1.5z" class="st1"/><path d="M103.5 94.2h-1.3c-.4 0-.6.3-.6.7 0 .3.3.6.6.6h1.3c.4 0 .7-.3.7-.7s-.4-.6-.7-.6" class="st7"/><path d="M102.3 94.2h1v1.3h-1z" class="st0"/><path d="M102.3 94.2h1v1.3h-1z" class="st9"/><path d="M102.3 94.2h1v1.3h-1z" class="st10"/></g><g id="Artwork_3-6"><path d="M123.1 93.9v1.5h-1.5v-1.5zM124.9 93.9v1.5h-1.5v-1.5z" class="st1"/><path d="M123.9 94h-1.3c-.4 0-.6.3-.6.7 0 .3.3.6.6.6h1.3c.4 0 .7-.3.7-.7-.1-.3-.4-.6-.7-.6" class="st7"/><path d="M122.7 94h1v1.3h-1z" class="st0"/><path d="M122.7 94h1v1.3h-1z" class="st9"/><path d="M122.7 94h1v1.3h-1z" class="st10"/></g><g id="Artwork_3-7"><path d="M123.1 90.6v1.5h-1.5v-1.5zq0-.15 0 0M124.9 90.6v1.5h-1.5v-1.5zq0-.15 0 0" class="st1"/><path d="M123.9 90.7h-1.3c-.4 0-.6.3-.6.7 0 .3.3.6.6.6h1.3c.4 0 .7-.3.7-.7-.1-.3-.4-.6-.7-.6" class="st7"/><path d="M122.7 90.7h1V92h-1z" class="st0"/><path d="M122.7 90.7h1V92h-1z" class="st9"/><path d="M122.7 90.7h1V92h-1z" class="st10"/></g><g id="Artwork_3-8"><path d="M129.2 87.6v1.5h-1.5v-1.5zM130.9 87.6v1.5h-1.5v-1.5z" class="st1"/><path d="M129.9 87.7h-1.3c-.4 0-.6.3-.6.7 0 .3.3.6.6.6h1.3c.4 0 .7-.3.7-.7 0-.3-.3-.6-.7-.6" class="st7"/><path d="M128.8 87.7h1V89h-1z" class="st0"/><path d="M128.8 87.7h1V89h-1z" class="st9"/><path d="M128.8 87.7h1V89h-1z" class="st10"/></g><g id="Artwork_3-9"><path d="M149.6 94.9v1.5h-1.5v-1.5zM151.3 94.9v1.5h-1.5v-1.5z" class="st1"/><path d="M150.3 95H149c-.4 0-.6.3-.6.7 0 .3.3.6.6.6h1.3c.4 0 .7-.3.7-.7 0-.3-.3-.6-.7-.6" class="st7"/><path d="M149.2 95h1v1.3h-1z" class="st0"/><path d="M149.2 95h1v1.3h-1z" class="st9"/><path d="M149.2 95h1v1.3h-1z" class="st10"/></g><g id="Artwork_3-10"><path d="M149.6 92v1.5h-1.5V92zM151.3 92v1.5h-1.5V92z" class="st1"/><path d="M150.3 92.1H149c-.4 0-.6.3-.6.7 0 .3.3.6.6.6h1.3c.4 0 .7-.3.7-.7 0-.3-.3-.6-.7-.6" class="st7"/><path d="M149.2 92.1h1v1.3h-1z" class="st0"/><path d="M149.2 92.1h1v1.3h-1z" class="st9"/><path d="M149.2 92.1h1v1.3h-1z" class="st10"/></g><g id="Artwork_3-11"><path d="M145.5 92.7v1.5H144v-1.5zM145.5 94.4V96H144v-1.5z" class="st1"/><path d="M145.3 95v-1.3c0-.4-.3-.6-.7-.6-.3 0-.6.3-.6.6V95c0 .4.3.7.7.7s.6-.3.6-.7" class="st7"/><path d="M144 93.9h1.3v1H144z" class="st0"/><path d="M144 93.9h1.3v1H144z" class="st9"/><path d="M144 93.9h1.3v1H144z" class="st10"/></g><g id="Artwork_3-12"><path d="M138.8 82.4v1.5h-1.5v-1.5zc0-.1 0 0 0 0M140.6 82.4v1.5H139v-1.5zc0-.1 0 0 0 0" class="st1"/><path d="M139.6 82.5h-1.3c-.4 0-.6.3-.6.7 0 .3.3.6.6.6h1.3c.4 0 .7-.3.7-.7-.1-.3-.4-.6-.7-.6" class="st7"/><path d="M138.4 82.5h1v1.3h-1z" class="st0"/><path d="M138.4 82.5h1v1.3h-1z" class="st9"/><path d="M138.4 82.5h1v1.3h-1z" class="st10"/></g><g id="Artwork_3-13"><path d="M138.8 77.2v1.5h-1.5v-1.5zM140.6 77.2v1.5H139v-1.5z" class="st1"/><path d="M139.6 77.3h-1.3c-.4 0-.6.3-.6.7 0 .3.3.6.6.6h1.3c.4 0 .7-.3.7-.7-.1-.3-.4-.6-.7-.6" class="st7"/><path d="M138.4 77.3h1v1.3h-1z" class="st0"/><path d="M138.4 77.3h1v1.3h-1z" class="st9"/><path d="M138.4 77.3h1v1.3h-1z" class="st10"/></g><g id="Artwork_3-14"><path d="M138.8 72v1.5h-1.5V72zM140.6 72v1.5H139V72z" class="st1"/><path d="M139.6 72.1h-1.3c-.4 0-.6.3-.6.7 0 .3.3.6.6.6h1.3c.4 0 .7-.3.7-.7-.1-.3-.4-.6-.7-.6" class="st7"/><path d="M138.4 72.1h1v1.3h-1z" class="st0"/><path d="M138.4 72.1h1v1.3h-1z" class="st9"/><path d="M138.4 72.1h1v1.3h-1z" class="st10"/></g><g id="Artwork_3-15"><path d="M138.8 66.8v1.5h-1.5v-1.5zM140.6 66.8v1.5H139v-1.5z" class="st1"/><path d="M139.6 66.9h-1.3c-.4 0-.6.3-.6.7 0 .3.3.6.6.6h1.3c.4 0 .7-.3.7-.7-.1-.3-.4-.6-.7-.6" class="st7"/><path d="M138.4 66.9h1v1.3h-1z" class="st0"/><path d="M138.4 66.9h1v1.3h-1z" class="st9"/><path d="M138.4 66.9h1v1.3h-1z" class="st10"/></g><g id="Artwork_3-16"><path d="M129.3 75.4v1.5h-1.5v-1.5zc-.1 0 0 0 0 0M131 75.4v1.5h-1.5v-1.5z" class="st1"/><path d="M130 75.5h-1.3c-.4 0-.6.3-.6.7 0 .3.3.6.6.6h1.3c.4 0 .7-.3.7-.7s-.4-.6-.7-.6" class="st7"/><path d="M128.9 75.5h1v1.3h-1z" class="st0"/><path d="M128.9 75.5h1v1.3h-1z" class="st9"/><path d="M128.9 75.5h1v1.3h-1z" class="st10"/></g><g id="Artwork_3-17"><path d="M125.3 69.6v1.5h-1.5v-1.5zM125.3 71.3v1.5h-1.5v-1.5z" class="st1"/><path d="M125.2 71.8v-1.3c0-.4-.3-.6-.7-.6-.3 0-.6.3-.6.6v1.3c0 .4.3.7.7.7.3 0 .6-.3.6-.7" class="st7"/><path d="M123.9 70.7h1.3v1h-1.3z" class="st0"/><path d="M123.9 70.7h1.3v1h-1.3z" class="st9"/><path d="M123.9 70.7h1.3v1h-1.3z" class="st10"/></g><g id="Artwork_3-18"><path d="M129.3 64.7v1.5h-1.5v-1.5zc-.1 0 0 0 0 0M131 64.7v1.5h-1.5v-1.5z" class="st1"/><path d="M130 64.8h-1.3c-.4 0-.6.3-.6.7 0 .3.3.6.6.6h1.3c.4 0 .7-.3.7-.7-.1-.3-.4-.6-.7-.6" class="st7"/><path d="M128.9 64.8h1v1.3h-1z" class="st0"/><path d="M128.9 64.8h1v1.3h-1z" class="st9"/><path d="M128.9 64.8h1v1.3h-1z" class="st10"/></g><g id="Artwork_3-19"><path d="M121 82.3v1.5h-1.5v-1.5zc-.1 0 0 0 0 0M121 84v1.5h-1.5V84zc-.1 0 0 0 0 0" class="st1"/><path d="M120.8 84.6v-1.3c0-.4-.3-.6-.7-.6-.3 0-.6.3-.6.6v1.3c0 .4.3.7.7.7.3-.1.6-.4.6-.7" class="st7"/><path d="M119.5 83.4h1.3v1h-1.3z" class="st0"/><path d="M119.5 83.4h1.3v1h-1.3z" class="st9"/><path d="M119.5 83.4h1.3v1h-1.3z" class="st10"/></g><g id="Artwork_3-20"><path d="M118.7 82.3v1.5h-1.5v-1.5zM118.7 84v1.5h-1.5V84z" class="st1"/><path d="M118.5 84.6v-1.3c0-.4-.3-.6-.7-.6-.3 0-.6.3-.6.6v1.3c0 .4.3.7.6.7s.7-.3.7-.7" class="st7"/><path d="M117.2 83.4h1.3v1h-1.3z" class="st0"/><path d="M117.2 83.4h1.3v1h-1.3z" class="st9"/><path d="M117.2 83.4h1.3v1h-1.3z" class="st10"/></g><g id="Artwork_3-21"><path d="M121 76.6v1.5h-1.5v-1.5zc-.1 0 0 0 0 0M121 78.4v1.5h-1.5v-1.5zc-.1-.1 0-.1 0 0" class="st1"/><path d="M120.8 78.9v-1.3c0-.4-.3-.6-.7-.6-.3 0-.6.3-.6.6v1.3c0 .4.3.7.7.7.3 0 .6-.3.6-.7" class="st7"/><path d="M119.5 77.8h1.3v1h-1.3z" class="st0"/><path d="M119.5 77.8h1.3v1h-1.3z" class="st9"/><path d="M119.5 77.8h1.3v1h-1.3z" class="st10"/></g><g id="Artwork_3-22"><path d="M118.7 76.6v1.5h-1.5v-1.5zM118.7 78.4v1.5h-1.5v-1.5zq0-.15 0 0" class="st1"/><path d="M118.5 78.9v-1.3c0-.4-.3-.6-.7-.6-.3 0-.6.3-.6.6v1.3c0 .4.3.7.6.7s.7-.3.7-.7" class="st7"/><path d="M117.2 77.8h1.3v1h-1.3z" class="st0"/><path d="M117.2 77.8h1.3v1h-1.3z" class="st9"/><path d="M117.2 77.8h1.3v1h-1.3z" class="st10"/></g><g id="Artwork_3-23"><path d="M116 68.6v1.5h-1.5v-1.5zc0-.1 0 0 0 0M117.7 68.6v1.5h-1.5v-1.5zc0-.1 0 0 0 0" class="st1"/><path d="M116.7 68.7h-1.3c-.4 0-.6.3-.6.7 0 .3.3.6.6.6h1.3c.4 0 .7-.3.7-.7-.1-.3-.3-.6-.7-.6" class="st7"/><path d="M115.6 68.7h1V70h-1z" class="st0"/><path d="M115.6 68.7h1V70h-1z" class="st9"/><path d="M115.6 68.7h1V70h-1z" class="st10"/></g><g id="Artwork_3-24"><path d="M110.9 68.6v1.5h-1.5v-1.5zc0-.1 0 0 0 0M112.6 68.6v1.5H111v-1.5zc0-.1 0 0 0 0" class="st1"/><path d="M111.6 68.7h-1.3c-.4 0-.6.3-.6.7 0 .3.3.6.6.6h1.3c.4 0 .7-.3.7-.7 0-.3-.3-.6-.7-.6" class="st7"/><path d="M110.5 68.7h1V70h-1z" class="st0"/><path d="M110.5 68.7h1V70h-1z" class="st9"/><path d="M110.5 68.7h1V70h-1z" class="st10"/></g><g id="Artwork_3-25"><path d="M102.8 68.6v1.5h-1.5v-1.5zc0-.1 0 0 0 0M104.6 68.6v1.5H103v-1.5zc-.1-.1 0 0 0 0" class="st1"/><path d="M103.6 68.7h-1.3c-.4 0-.6.3-.6.7 0 .3.3.6.6.6h1.3c.4 0 .7-.3.7-.7-.1-.3-.4-.6-.7-.6" class="st7"/><path d="M102.4 68.7h1V70h-1z" class="st0"/><path d="M102.4 68.7h1V70h-1z" class="st9"/><path d="M102.4 68.7h1V70h-1z" class="st10"/></g><g id="Artwork_3-26"><path d="M102.8 63.5V65h-1.5v-1.5zq0-.15 0 0M104.6 63.5V65H103v-1.5zc-.1-.1 0-.1 0 0" class="st1"/><path d="M103.6 63.6h-1.3c-.4 0-.6.3-.6.7 0 .3.3.6.6.6h1.3c.4 0 .7-.3.7-.7-.1-.3-.4-.6-.7-.6" class="st7"/><path d="M102.4 63.6h1v1.3h-1z" class="st0"/><path d="M102.4 63.6h1v1.3h-1z" class="st9"/><path d="M102.4 63.6h1v1.3h-1z" class="st10"/></g><g id="Artwork_3-27"><path d="M116.6 58.6v1.5h-1.5v-1.5zM116.6 60.3v1.5h-1.5v-1.5z" class="st1"/><path d="M116.5 60.9v-1.3c0-.4-.3-.6-.7-.6-.3 0-.6.3-.6.6v1.3c0 .4.3.7.6.7.4 0 .7-.3.7-.7" class="st7"/><path d="M115.2 59.8h1.3v1h-1.3z" class="st0"/><path d="M115.2 59.8h1.3v1h-1.3z" class="st9"/><path d="M115.2 59.8h1.3v1h-1.3z" class="st10"/></g><g id="Artwork_3-28"><path d="M114.4 58.6v1.5h-1.5v-1.5zM114.4 60.3v1.5h-1.5v-1.5z" class="st1"/><path d="M114.3 60.9v-1.3c0-.4-.3-.6-.7-.6-.3 0-.6.3-.6.6v1.3c0 .4.3.7.6.7s.7-.3.7-.7" class="st7"/><path d="M113 59.8h1.3v1H113z" class="st0"/><path d="M113 59.8h1.3v1H113z" class="st9"/><path d="M113 59.8h1.3v1H113z" class="st10"/></g><g id="Artwork_3-29"><path d="M171 39.3v1.5h-1.5v-1.5zM171 41.1v1.5h-1.5v-1.5zc0-.1 0 0 0 0" class="st1"/><path d="M170.8 41.6v-1.3c0-.4-.3-.6-.7-.6-.3 0-.6.3-.6.6v1.3c0 .4.3.7.7.7s.6-.3.6-.7" class="st7"/><path d="M169.5 40.5h1.3v1h-1.3z" class="st0"/><path d="M169.5 40.5h1.3v1h-1.3z" class="st9"/><path d="M169.5 40.5h1.3v1h-1.3z" class="st10"/></g><g id="Artwork_3-30"><path d="M173.4 39.3v1.5h-1.5v-1.5zM173.4 41.1v1.5h-1.5v-1.5zc0-.1 0 0 0 0" class="st1"/><path d="M173.3 41.6v-1.3c0-.4-.3-.6-.7-.6-.3 0-.6.3-.6.6v1.3c0 .4.3.7.7.7.3 0 .6-.3.6-.7" class="st7"/><path d="M172 40.5h1.3v1H172z" class="st0"/><path d="M172 40.5h1.3v1H172z" class="st9"/><path d="M172 40.5h1.3v1H172z" class="st10"/></g><g id="Artwork_3-31"><path d="M164.2 40.3v2.3H162v-2.3zM164.2 37.8V40H162v-2.3zc0-.1 0 0 0 0" class="st1"/><path d="M162.1 39.2v1.9c0 .5.5 1 1 .9.5 0 .9-.4.9-.9v-1.9c0-.5-.4-1-1-1-.5.1-.9.5-.9 1" class="st7"/><path d="M162.1 39.5h1.9v1.4h-1.9z" class="st0"/><path d="M162.1 39.5h1.9v1.4h-1.9z" class="st9"/><path d="M162.1 39.5h1.9v1.4h-1.9z" class="st10"/></g><g id="Artwork_3-32"><path d="M167.4 40.3v2.3h-2.3v-2.3zM167.4 37.8V40h-2.3v-2.3zc0-.1 0 0 0 0" class="st1"/><path d="M165.3 39.2v1.9c0 .5.5 1 1 .9.5 0 .9-.4.9-.9v-1.9c0-.5-.4-1-1-1-.5.1-.9.5-.9 1" class="st7"/><path d="M165.3 39.5h1.9v1.4h-1.9z" class="st0"/><path d="M165.3 39.5h1.9v1.4h-1.9z" class="st9"/><path d="M165.3 39.5h1.9v1.4h-1.9z" class="st10"/></g><g id="Artwork_3-33"><path d="M102.3 34.9v1.5h-1.5v-1.5zc-.1-.1 0 0 0 0M102.3 36.6v1.5h-1.5v-1.5zc-.1 0 0 0 0 0" class="st1"/><path d="M102.1 37.1v-1.3c0-.4-.3-.6-.7-.6-.3 0-.6.3-.6.6v1.3c0 .4.3.7.7.7.3 0 .6-.3.6-.7" class="st7"/><path d="M100.8 36h1.3v1h-1.3z" class="st0"/><path d="M100.8 36h1.3v1h-1.3z" class="st9"/><path d="M100.8 36h1.3v1h-1.3z" class="st10"/></g><g id="Artwork_3-34"><path d="M109.2 44v1.5h-1.5V44zM110.9 44v1.5h-1.5V44z" class="st1"/><path d="M109.9 44.1h-1.3c-.4 0-.6.3-.6.7 0 .3.3.6.6.6h1.3c.4 0 .7-.3.7-.7s-.3-.6-.7-.6" class="st7"/><path d="M108.8 44.1h1v1.3h-1z" class="st0"/><path d="M108.8 44.1h1v1.3h-1z" class="st9"/><path d="M108.8 44.1h1v1.3h-1z" class="st10"/></g><g id="Artwork_3-35"><path d="M109.2 41.6v1.5h-1.5v-1.5zM110.9 41.6v1.5h-1.5v-1.5z" class="st1"/><path d="M109.9 41.7h-1.3c-.4 0-.6.3-.6.7 0 .3.3.6.6.6h1.3c.4 0 .7-.3.7-.7 0-.3-.3-.6-.7-.6" class="st7"/><path d="M108.8 41.7h1V43h-1z" class="st0"/><path d="M108.8 41.7h1V43h-1z" class="st9"/><path d="M108.8 41.7h1V43h-1z" class="st10"/></g><g id="Artwork_3-36"><path d="M108 26.2v1.5h-1.5v-1.5zq0-.15 0 0M109.8 26.2v1.5h-1.5v-1.5zc-.1-.1 0-.1 0 0" class="st1"/><path d="M108.7 26.3h-1.3c-.4 0-.6.3-.6.7 0 .3.3.6.6.6h1.3c.4 0 .7-.3.7-.7 0-.3-.3-.6-.7-.6" class="st7"/><path d="M107.6 26.3h1v1.3h-1z" class="st0"/><path d="M107.6 26.3h1v1.3h-1z" class="st9"/><path d="M107.6 26.3h1v1.3h-1z" class="st10"/></g><g id="Artwork_3-37"><path d="M119.2 8.7v3.6s0 .1-.1.1h-3.6s-.1 0-.1-.1V8.7s0-.1.1-.1zc-.1 0 0 0 0 0M119.2 4.6v3.6s0 .1-.1.1h-3.6s-.1 0-.1-.1V4.6s0-.1.1-.1zc-.1-.1 0 0 0 0" class="st1"/><path d="M115.7 6.9V10c0 .9.7 1.5 1.6 1.5.8 0 1.5-.7 1.5-1.5V7c0-.9-.7-1.6-1.6-1.6-.8 0-1.5.7-1.5 1.5" class="st7"/><path d="M115.7 7.3h3.1v2.3h-3.1z" class="st0"/><path d="M115.7 7.3h3.1v2.3h-3.1z" class="st9"/><path d="M115.7 7.3h3.1v2.3h-3.1z" class="st10"/></g><g id="Artwork_3-38"><path d="M91.3 78.8v1.5h-1.5v-1.5zc0-.1 0 0 0 0M91.3 80.5V82h-1.5v-1.5z" class="st1"/><path d="M91.2 81v-1.3c0-.4-.3-.6-.7-.6-.3 0-.6.3-.6.6V81c0 .4.3.7.6.7.4 0 .7-.3.7-.7 0 .1 0 0 0 0" class="st7"/><path d="M89.9 79.9h1.3v1h-1.3z" class="st0"/><path d="M89.9 79.9h1.3v1h-1.3z" class="st9"/><path d="M89.9 79.9h1.3v1h-1.3z" class="st10"/></g><g id="Artwork_3-39"><path d="M93.6 78.8v1.5h-1.5v-1.5zc0-.1 0 0 0 0M93.6 80.5V82h-1.5v-1.5z" class="st1"/><path d="M93.5 81v-1.3c0-.4-.3-.6-.7-.6-.3 0-.6.3-.6.6V81c0 .4.3.7.7.7s.6-.3.6-.7" class="st7"/><path d="M92.2 79.9h1.3v1h-1.3z" class="st0"/><path d="M92.2 79.9h1.3v1h-1.3z" class="st9"/><path d="M92.2 79.9h1.3v1h-1.3z" class="st10"/></g><g id="Artwork_3-40"><path d="M75.4 70.4v1.5h-1.5v-1.5zM77.1 70.4v1.5h-1.5v-1.5z" class="st1"/><path d="M76.1 70.5h-1.3c-.4 0-.6.3-.6.7 0 .3.3.6.6.6h1.3c.4 0 .7-.3.7-.7 0-.3-.3-.6-.7-.6" class="st7"/><path d="M75 70.5h1v1.3h-1z" class="st0"/><path d="M75 70.5h1v1.3h-1z" class="st9"/><path d="M75 70.5h1v1.3h-1z" class="st10"/></g><g id="Artwork_3-41"><path d="M67.3 80.1v1.5h-1.5v-1.5zc0-.1 0 0 0 0M69 80.1v1.5h-1.5v-1.5zc0-.1 0 0 0 0" class="st1"/><path d="M68 80.2h-1.3c-.4 0-.6.3-.6.7 0 .3.3.6.6.6H68c.4 0 .7-.3.7-.7 0-.3-.3-.6-.7-.6" class="st7"/><path d="M66.9 80.2h1v1.3h-1z" class="st0"/><path d="M66.9 80.2h1v1.3h-1z" class="st9"/><path d="M66.9 80.2h1v1.3h-1z" class="st10"/></g><g id="Artwork_3-42"><path d="M67.3 71.3v1.5h-1.5v-1.5zc-.1 0 0 0 0 0M67.3 73v1.5h-1.5V73zc-.1 0 0 0 0 0" class="st1"/><path d="M67.1 73.5v-1.3c0-.4-.3-.6-.7-.6-.3 0-.6.3-.6.6v1.3c0 .4.3.7.6.7s.7-.3.7-.7c0 .1 0 0 0 0" class="st7"/><path d="M65.8 72.4h1.3v1h-1.3z" class="st0"/><path d="M65.8 72.4h1.3v1h-1.3z" class="st9"/><path d="M65.8 72.4h1.3v1h-1.3z" class="st10"/></g><g id="Artwork_3-43"><path d="M67.3 87.5V89h-1.5v-1.5zc-.1 0 0 0 0 0M67.3 89.2v1.5h-1.5v-1.5zc-.1 0 0 0 0 0" class="st1"/><path d="M67.1 89.8v-1.3c0-.4-.3-.6-.7-.6-.3 0-.6.3-.6.6v1.3c0 .4.3.7.6.7s.7-.3.7-.7" class="st7"/><path d="M65.8 88.6h1.3v1h-1.3z" class="st0"/><path d="M65.8 88.6h1.3v1h-1.3z" class="st9"/><path d="M65.8 88.6h1.3v1h-1.3z" class="st10"/></g><g id="Artwork_3-44"><path d="M70.2 87.6v1.5h-1.5v-1.5zq0-.15 0 0M70.2 89.3v1.5h-1.5v-1.5z" class="st1"/><path d="M70.1 89.8v-1.3c0-.4-.3-.6-.7-.6-.3 0-.6.3-.6.6v1.3c0 .4.3.7.7.7.3 0 .6-.3.6-.7" class="st7"/><path d="M68.8 88.7h1.3v1h-1.3z" class="st0"/><path d="M68.8 88.7h1.3v1h-1.3z" class="st9"/><path d="M68.8 88.7h1.3v1h-1.3z" class="st10"/></g><g id="Artwork_3-45"><path d="M73.2 87.6v1.5h-1.5v-1.5zq0-.15 0 0M73.2 89.3v1.5h-1.5v-1.5z" class="st1"/><path d="M73.1 89.8v-1.3c0-.4-.3-.6-.7-.6-.3 0-.6.3-.6.6v1.3c0 .4.3.7.7.7.3 0 .6-.3.6-.7" class="st7"/><path d="M71.7 88.7H73v1h-1.3z" class="st0"/><path d="M71.7 88.7H73v1h-1.3z" class="st9"/><path d="M71.7 88.7H73v1h-1.3z" class="st10"/></g><g id="Artwork_3-46"><path d="M76.1 87.6v1.5h-1.5v-1.5zq0-.15 0 0M76.1 89.3v1.5h-1.5v-1.5z" class="st1"/><path d="M76 89.8v-1.3c0-.4-.3-.6-.7-.6-.3 0-.6.3-.6.6v1.3c0 .4.3.7.6.7s.7-.3.7-.7" class="st7"/><path d="M74.7 88.7H76v1h-1.3z" class="st0"/><path d="M74.7 88.7H76v1h-1.3z" class="st9"/><path d="M74.7 88.7H76v1h-1.3z" class="st10"/></g><g id="Artwork_3-47"><path d="M62.9 91v1.5h-1.5V91zc-.1 0 0 0 0 0M62.9 92.8v1.5h-1.5v-1.5zc-.1-.1 0-.1 0 0" class="st1"/><path d="M62.7 93.3V92c0-.4-.3-.6-.7-.6-.3 0-.6.3-.6.6v1.3c0 .4.3.7.7.7.3 0 .6-.3.6-.7" class="st7"/><path d="M61.4 92.2h1.3v1h-1.3z" class="st0"/><path d="M61.4 92.2h1.3v1h-1.3z" class="st9"/><path d="M61.4 92.2h1.3v1h-1.3z" class="st10"/></g><g id="Artwork_3-48"><path d="M60.2 65.5V67h-1.5v-1.5zM61.9 65.5V67h-1.5v-1.5z" class="st1"/><path d="M60.9 65.7h-1.3c-.4 0-.6.3-.6.7 0 .3.3.6.6.6h1.3c.4 0 .7-.3.7-.7s-.3-.6-.7-.6" class="st7"/><path d="M59.8 65.7h1V67h-1z" class="st0"/><path d="M59.8 65.7h1V67h-1z" class="st9"/><path d="M59.8 65.7h1V67h-1z" class="st10"/></g><g id="Artwork_3-49"><path d="M60.2 62.5V64h-1.5v-1.5zM61.9 62.5V64h-1.5v-1.5z" class="st1"/><path d="M60.9 62.6h-1.3c-.4 0-.6.3-.6.7 0 .3.3.6.6.6h1.3c.4 0 .7-.3.7-.7 0-.3-.3-.6-.7-.6" class="st7"/><path d="M59.8 62.6h1v1.3h-1z" class="st0"/><path d="M59.8 62.6h1v1.3h-1z" class="st9"/><path d="M59.8 62.6h1v1.3h-1z" class="st10"/></g><g id="Artwork_3-50"><path d="M51.2 65.5V67h-1.5v-1.5zM52.9 65.5V67h-1.5v-1.5z" class="st1"/><path d="M51.9 65.7h-1.3c-.4 0-.6.3-.6.7 0 .3.3.6.6.6h1.3c.4 0 .7-.3.7-.7s-.3-.6-.7-.6" class="st7"/><path d="M50.8 65.7h1V67h-1z" class="st0"/><path d="M50.8 65.7h1V67h-1z" class="st9"/><path d="M50.8 65.7h1V67h-1z" class="st10"/></g><g id="Artwork_3-51"><path d="M51.2 62.5V64h-1.5v-1.5zM52.9 62.5V64h-1.5v-1.5z" class="st1"/><path d="M51.9 62.6h-1.3c-.4 0-.6.3-.6.7 0 .3.3.6.6.6h1.3c.4 0 .7-.3.7-.7 0-.3-.3-.6-.7-.6" class="st7"/><path d="M50.8 62.6h1v1.3h-1z" class="st0"/><path d="M50.8 62.6h1v1.3h-1z" class="st9"/><path d="M50.8 62.6h1v1.3h-1z" class="st10"/></g><g id="Artwork_3-52"><path d="M51.2 56.2v1.5h-1.5v-1.5zM52.9 56.2v1.5h-1.5v-1.5z" class="st1"/><path d="M51.9 56.3h-1.3c-.4 0-.6.3-.6.7 0 .3.3.6.6.6h1.3c.4 0 .7-.3.7-.7 0-.3-.3-.6-.7-.6" class="st7"/><path d="M50.8 56.3h1v1.3h-1z" class="st0"/><path d="M50.8 56.3h1v1.3h-1z" class="st9"/><path d="M50.8 56.3h1v1.3h-1z" class="st10"/></g><g id="Artwork_3-53"><path d="M51.2 53.1v1.5h-1.5v-1.5zq0-.15 0 0M52.9 53.1v1.5h-1.5v-1.5zq0-.15 0 0" class="st1"/><path d="M51.9 53.2h-1.3c-.4 0-.6.3-.6.7 0 .3.3.6.6.6h1.3c.4 0 .7-.3.7-.7 0-.3-.3-.6-.7-.6" class="st7"/><path d="M50.8 53.2h1v1.3h-1z" class="st0"/><path d="M50.8 53.2h1v1.3h-1z" class="st9"/><path d="M50.8 53.2h1v1.3h-1z" class="st10"/></g><g id="Artwork_3-54"><path d="M51.2 49.9v1.5h-1.5v-1.5zM52.9 49.9v1.5h-1.5v-1.5z" class="st1"/><path d="M51.9 50h-1.3c-.4 0-.6.3-.6.7 0 .3.3.6.6.6h1.3c.4 0 .7-.3.7-.7 0-.3-.3-.6-.7-.6" class="st7"/><path d="M50.8 50h1v1.3h-1z" class="st0"/><path d="M50.8 50h1v1.3h-1z" class="st9"/><path d="M50.8 50h1v1.3h-1z" class="st10"/></g><g id="Artwork_3-55"><path d="M57.9 56.2v1.5h-1.5v-1.5zM59.7 56.2v1.5h-1.5v-1.5zc-.1 0 0 0 0 0" class="st1"/><path d="M58.6 56.3h-1.2c-.4 0-.6.3-.6.7 0 .3.3.6.6.6h1.2c.4 0 .7-.3.7-.7 0-.3-.3-.6-.7-.6" class="st7"/><path d="M57.5 56.3h1v1.3h-1z" class="st0"/><path d="M57.5 56.3h1v1.3h-1z" class="st9"/><path d="M57.5 56.3h1v1.3h-1z" class="st10"/></g><g id="Artwork_3-56"><path d="M31.6 68.1v1.5h-1.5v-1.5zc0-.1 0 0 0 0M33.3 68.1v1.5h-1.5v-1.5zc0-.1 0 0 0 0" class="st1"/><path d="M32.3 68.2H31c-.4 0-.6.3-.6.7 0 .3.3.6.6.6h1.3c.4 0 .7-.3.7-.7 0-.3-.3-.6-.7-.6" class="st7"/><path d="M31.2 68.2h1v1.3h-1z" class="st0"/><path d="M31.2 68.2h1v1.3h-1z" class="st9"/><path d="M31.2 68.2h1v1.3h-1z" class="st10"/></g><g id="Artwork_3-57"><path d="M31.6 71.1v1.5h-1.5v-1.5zM33.3 71.1v1.5h-1.5v-1.5z" class="st1"/><path d="M32.3 71.2H31c-.4 0-.6.3-.6.7 0 .3.3.6.6.6h1.3c.4 0 .7-.3.7-.7 0-.3-.3-.6-.7-.6" class="st7"/><path d="M31.2 71.2h1v1.3h-1z" class="st0"/><path d="M31.2 71.2h1v1.3h-1z" class="st9"/><path d="M31.2 71.2h1v1.3h-1z" class="st10"/></g><g id="Artwork_3-58"><path d="M31.6 76v1.5h-1.5V76zM33.3 76v1.5h-1.5V76z" class="st1"/><path d="M32.3 76.1H31c-.4 0-.6.3-.6.7 0 .3.3.6.6.6h1.3c.4 0 .7-.3.7-.7 0-.3-.3-.6-.7-.6" class="st7"/><path d="M31.2 76.1h1v1.3h-1z" class="st0"/><path d="M31.2 76.1h1v1.3h-1z" class="st9"/><path d="M31.2 76.1h1v1.3h-1z" class="st10"/></g><g id="Artwork_3-59"><path d="M31.6 79.5V81h-1.5v-1.5zM31.6 81.2v1.5h-1.5v-1.5z" class="st1"/><path d="M31.5 81.8v-1.3c0-.4-.3-.6-.7-.6-.3 0-.6.3-.6.6v1.3c0 .4.3.7.7.7.3-.1.6-.4.6-.7" class="st7"/><path d="M30.2 80.6h1.3v1h-1.3z" class="st0"/><path d="M30.2 80.6h1.3v1h-1.3z" class="st9"/><path d="M30.2 80.6h1.3v1h-1.3z" class="st10"/></g><g id="Artwork_3-60"><path d="M30.7 88.6v2.3h-2.3v-2.3zq0-.15 0 0M33.3 88.6v2.3H31v-2.3zc-.1-.1 0-.1 0 0" class="st1"/><path d="M31.8 88.7h-1.9c-.5 0-1 .5-.9 1 0 .5.4.9.9.9h1.9c.5 0 1-.4 1-1 0-.5-.5-.9-1-.9" class="st7"/><path d="M30.1 88.7h1.4v1.9h-1.4z" class="st0"/><path d="M30.1 88.7h1.4v1.9h-1.4z" class="st9"/><path d="M30.1 88.7h1.4v1.9h-1.4z" class="st10"/></g><g id="Artwork_3-61"><path d="M30.7 91.5v2.3h-2.3v-2.3zM33.3 91.5v2.3H31v-2.3zc-.1 0 0 0 0 0" class="st1"/><path d="M31.8 91.7h-1.9c-.5 0-1 .5-.9 1 0 .5.4.9.9.9h1.9c.5 0 1-.4 1-1 0-.5-.5-.9-1-.9" class="st7"/><path d="M30.1 91.7h1.4v1.9h-1.4z" class="st0"/><path d="M30.1 91.7h1.4v1.9h-1.4z" class="st9"/><path d="M30.1 91.7h1.4v1.9h-1.4z" class="st10"/></g><path d="M24.5 71.3v2.3h1.8v-2.3h-.4v-2.1h.4V67h-1.8v2.2h.6v2.1z" class="st5"/><g id="Artwork_3-62"><path d="M168.7 111.9v1.5h-1.5v-1.5zc0-.1 0 0 0 0M170.4 111.9v1.5h-1.5v-1.5zc0-.1 0 0 0 0" class="st1"/><path d="M169.4 112h-1.3c-.4 0-.6.3-.6.7 0 .3.3.6.6.6h1.3c.4 0 .7-.3.7-.7 0-.3-.3-.6-.7-.6" class="st7"/><path d="M168.3 112h1v1.3h-1z" class="st0"/><path d="M168.3 112h1v1.3h-1z" class="st9"/><path d="M168.3 112h1v1.3h-1z" class="st10"/></g><g id="Artwork_3-63"><path d="M168.7 114.6v1.5h-1.5v-1.5zM170.4 114.6v1.5h-1.5v-1.5z" class="st1"/><path d="M169.4 114.7h-1.3c-.4 0-.6.3-.6.7 0 .3.3.6.6.6h1.3c.4 0 .7-.3.7-.7 0-.3-.3-.6-.7-.6" class="st7"/><path d="M168.3 114.7h1v1.3h-1z" class="st0"/><path d="M168.3 114.7h1v1.3h-1z" class="st9"/><path d="M168.3 114.7h1v1.3h-1z" class="st10"/></g><g id="Artwork_3-64"><path d="M173.7 112.7v1.5h-1.5v-1.5zM173.7 114.4v1.5h-1.5v-1.5z" class="st1"/><path d="M173.6 115v-1.3c0-.4-.3-.6-.7-.6-.3 0-.6.3-.6.6v1.3c0 .4.3.7.6.7.3-.1.6-.4.7-.7" class="st7"/><path d="M172.2 113.9h1.3v1h-1.3z" class="st0"/><path d="M172.2 113.9h1.3v1h-1.3z" class="st9"/><path d="M172.2 113.9h1.3v1h-1.3z" class="st10"/></g><g id="Artwork_3-65"><path d="M176.1 112.7v1.5h-1.5v-1.5zM176.1 114.4v1.5h-1.5v-1.5z" class="st1"/><path d="M176 115v-1.3c0-.4-.3-.6-.7-.6-.3 0-.6.3-.6.6v1.3c0 .4.3.7.6.7.4-.1.7-.3.7-.7" class="st7"/><path d="M174.7 113.9h1.3v1h-1.3z" class="st0"/><path d="M174.7 113.9h1.3v1h-1.3z" class="st9"/><path d="M174.7 113.9h1.3v1h-1.3z" class="st10"/></g><g id="Artwork_3-66"><path d="M148.6 120.2v1.5h-1.5v-1.5zM148.6 122v1.5h-1.5V122zq0-.15 0 0" class="st1"/><path d="M148.5 122.5v-1.3c0-.4-.3-.6-.7-.6-.3 0-.6.3-.6.6v1.3c0 .4.3.7.7.7s.6-.3.6-.7" class="st7"/><path d="M147.2 121.4h1.3v1h-1.3z" class="st0"/><path d="M147.2 121.4h1.3v1h-1.3z" class="st9"/><path d="M147.2 121.4h1.3v1h-1.3z" class="st10"/></g><g id="Artwork_3-67"><path d="M145.2 120.2v1.5h-1.5v-1.5zM145.2 122v1.5h-1.5V122zq0-.15 0 0" class="st1"/><path d="M145.1 122.5v-1.3c0-.4-.3-.6-.7-.6-.3 0-.6.3-.6.6v1.3c0 .4.3.7.7.7s.6-.3.6-.7" class="st7"/><path d="M143.8 121.4h1.3v1h-1.3z" class="st0"/><path d="M143.8 121.4h1.3v1h-1.3z" class="st9"/><path d="M143.8 121.4h1.3v1h-1.3z" class="st10"/></g><g id="Artwork_3-68"><path d="M148.6 128v1.5h-1.5V128zM148.6 129.7v1.5h-1.5v-1.5z" class="st1"/><path d="M148.5 130.3V129c0-.4-.3-.6-.7-.6-.3 0-.6.3-.6.6v1.3c0 .4.3.7.7.7.3-.1.6-.4.6-.7" class="st7"/><path d="M147.2 129.1h1.3v1h-1.3z" class="st0"/><path d="M147.2 129.1h1.3v1h-1.3z" class="st9"/><path d="M147.2 129.1h1.3v1h-1.3z" class="st10"/></g><g id="Artwork_3-69"><path d="M136.5 121.4v1.5H135v-1.5zM138.2 121.4v1.5h-1.5v-1.5z" class="st1"/><path d="M137.2 121.5h-1.3c-.4 0-.6.3-.6.7 0 .3.3.6.6.6h1.3c.4 0 .7-.3.7-.7s-.3-.6-.7-.6" class="st7"/><path d="M136.1 121.5h1v1.3h-1z" class="st0"/><path d="M136.1 121.5h1v1.3h-1z" class="st9"/><path d="M136.1 121.5h1v1.3h-1z" class="st10"/></g><g id="Artwork_3-70"><path d="M130.7 113v1.5h-1.5V113zM130.7 114.7v1.5h-1.5v-1.5z" class="st1"/><path d="M130.5 115.3V114c0-.4-.3-.6-.7-.6-.3 0-.6.3-.6.6v1.3c0 .4.3.7.7.7.3-.1.6-.4.6-.7" class="st7"/><path d="M129.2 114.1h1.3v1h-1.3z" class="st0"/><path d="M129.2 114.1h1.3v1h-1.3z" class="st9"/><path d="M129.2 114.1h1.3v1h-1.3z" class="st10"/></g><g id="Artwork_3-71"><path d="M144.2 103.7v1.5h-1.5v-1.5zc-.1 0 0 0 0 0M144.2 105.4v1.5h-1.5v-1.5zc-.1 0 0 0 0 0" class="st1"/><path d="M144 106v-1.3c0-.4-.3-.6-.7-.6-.3 0-.6.3-.6.6v1.3c0 .4.3.7.6.7.4-.1.7-.3.7-.7" class="st7"/><path d="M142.7 104.8h1.3v1h-1.3z" class="st0"/><path d="M142.7 104.8h1.3v1h-1.3z" class="st9"/><path d="M142.7 104.8h1.3v1h-1.3z" class="st10"/></g><g id="Artwork_3-72"><path d="M160.7 72v1.5h-1.5V72zM162.4 72v1.5h-1.5V72z" class="st1"/><path d="M161.4 72.1h-1.3c-.4 0-.6.3-.6.7 0 .3.3.6.6.6h1.3c.4 0 .7-.3.7-.7 0-.3-.3-.6-.7-.6" class="st7"/><path d="M160.3 72.1h1v1.3h-1z" class="st0"/><path d="M160.3 72.1h1v1.3h-1z" class="st9"/><path d="M160.3 72.1h1v1.3h-1z" class="st10"/></g><g id="Artwork_3-73"><path d="M174.1 72v1.5h-1.5V72zc-.1 0 0 0 0 0M175.8 72v1.5h-1.5V72z" class="st1"/><path d="M174.8 72.1h-1.3c-.4 0-.6.3-.6.7 0 .3.3.6.6.6h1.3c.4 0 .7-.3.7-.7-.1-.3-.4-.6-.7-.6" class="st7"/><path d="M173.7 72.1h1v1.3h-1z" class="st0"/><path d="M173.7 72.1h1v1.3h-1z" class="st9"/><path d="M173.7 72.1h1v1.3h-1z" class="st10"/></g><g id="Artwork_3-74"><path d="M167.3 71v2.6h-2.6V71zq0-.15 0 0M170.2 71v2.6h-2.6V71zq0-.15 0 0" class="st1"/><path d="M168.5 71.1h-2.3c-.6 0-1.1.5-1.1 1.1s.5 1 1.1 1.1h2.3c.6 0 1.1-.5 1.1-1.1s-.5-1.1-1.1-1.1" class="st7"/><path d="M166.6 71.1h1.6v2.2h-1.6z" class="st0"/><path d="M166.6 71.1h1.6v2.2h-1.6z" class="st9"/><path d="M166.6 71.1h1.6v2.2h-1.6z" class="st10"/></g><path d="M109.8 107h16.6v7.1h-16.6z" style="fill:#e9ab0a"/><path d="M109.8 107h16.6v7.1h-16.6z" style="fill:#e5600d"/><path d="M109.8 107h16.6v7.1h-16.6z" style="fill:#1d1e1c"/><path d="M112.4 112.7v-1.3h-1.3v1.3zM111.1 109.6h1.3v-1.3h-1.3zM115.6 112.7v-1.3h-1.3v1.3zM115.6 109.6v-1.3h-1.3v1.3zM118.7 112.7v-1.3h-1.3v1.3zM118.7 109.6v-1.3h-1.3v1.3zM121.9 112.7v-1.3h-1.3v1.3zM121.9 109.6v-1.3h-1.3v1.3zM125 112.7v-1.3h-1.3v1.3zM125 109.6v-1.3h-1.3v1.3z" class="st18"/></svg>