<svg xmlns="http://www.w3.org/2000/svg" xmlns:xlink="http://www.w3.org/1999/xlink" xml:space="preserve" id="Layer_1" x="0" y="0" viewBox="0 0 195.1 70.9"><style>.st0{fill:#017481}.st2{fill:none;stroke:#000;stroke-width:7.350000e-03;stroke-linecap:round;stroke-linejoin:round}.st3{fill:#afd3d8}.st4{opacity:.2}.st6{fill:#fff}.st8{fill:#c2b9af}.st9{fill:#8b8f90}.st10{fill:#e5540f}.st12{fill:#8a7867}.st29{fill:#8f7f6e}.st30{fill:#929596}.st45{fill:#c2c5c6}.st46{opacity:.1}.st49{fill:#c8e1e4}.st50{fill:#a1a4a5}.st63{fill:#9da0a1}.st65{fill:#a19284}</style><path d="M6 70.9h179.3c3.5 0 6.4-2.9 6.4-6.4V6.4c0-3.5-2.9-6.4-6.4-6.4H6C2.6.1-.1 3 0 6.4v58.1c-.1 3.4 2.6 6.3 6 6.4M185.3 3c1.9 0 3.4 1.5 3.4 3.4s-1.5 3.4-3.4 3.4-3.4-1.5-3.4-3.4c-.1-1.9 1.5-3.4 3.4-3.4m0 58.1c1.9 0 3.4 1.5 3.4 3.4s-1.5 3.4-3.4 3.4-3.4-1.5-3.4-3.4c-.1-1.9 1.5-3.4 3.4-3.4M23.7 3c1.9 0 3.4 1.5 3.4 3.4s-1.5 3.4-3.4 3.4-3.4-1.5-3.4-3.4S21.8 3 23.7 3m0 58.1c1.9 0 3.4 1.5 3.4 3.4s-1.5 3.4-3.4 3.4-3.4-1.5-3.4-3.4 1.5-3.4 3.4-3.4" class="st0"/><path d="M0 12.7h21V58H0z" style="fill:#2c8b95"/><path d="M6 0q0 0 0 0t0 0" class="st2"/><path id="CIRCLE" d="M1.7 56.3c.4 0 .6.3.6.6s-.3.7-.6.7c-.4 0-.6-.3-.6-.6-.1-.4.2-.7.6-.7" class="st3"/><path id="CIRCLE-2" d="M5.3 52.7c.4 0 .6.3.6.6s-.3.7-.6.7c-.4 0-.6-.3-.6-.6-.1-.4.2-.7.6-.7" class="st3"/><path id="CIRCLE-3" d="M1.7 49.1c.4 0 .6.3.6.6s-.3.7-.6.7c-.4 0-.6-.3-.6-.6-.1-.4.2-.7.6-.7" class="st3"/><path id="CIRCLE-4" d="M1.7 41.9c.4 0 .6.3.6.6s-.3.7-.6.7c-.4 0-.6-.3-.6-.6-.1-.4.2-.7.6-.7" class="st3"/><path id="CIRCLE-5" d="M1.7 34.7c.4 0 .6.3.6.6 0 .4-.3.7-.6.7-.4 0-.7-.3-.7-.7 0-.3.3-.6.7-.6" class="st3"/><path id="CIRCLE-6" d="M5.3 31.1c.4 0 .6.3.6.6 0 .4-.3.6-.6.6s-.6-.3-.6-.6c-.1-.3.2-.6.6-.6" class="st3"/><path id="CIRCLE-7" d="M12.5 31.1c.4 0 .6.3.6.6 0 .4-.3.6-.6.6s-.6-.3-.6-.6c-.1-.3.2-.6.6-.6" class="st3"/><path id="CIRCLE-8" d="M16.1 27.5c.4 0 .6.3.6.6 0 .4-.3.6-.6.6s-.6-.3-.6-.6c-.1-.3.2-.6.6-.6" class="st3"/><path id="CIRCLE-9" d="M8.9 27.5c.4 0 .6.3.6.6s-.3.6-.6.6c-.4 0-.6-.3-.6-.6-.1-.3.2-.6.6-.6" class="st3"/><path id="CIRCLE-10" d="M1.7 27.5c.4 0 .6.3.6.6s-.3.7-.6.7c-.4 0-.6-.3-.6-.6-.1-.4.2-.7.6-.7" class="st3"/><path id="CIRCLE-11" d="M8.9 34.7c.4 0 .6.3.6.6 0 .4-.3.6-.6.6-.4 0-.6-.3-.6-.6-.1-.3.2-.6.6-.6" class="st3"/><path id="CIRCLE-12" d="M5.3 23.7c.4 0 .7.3.7.6 0 .4-.3.7-.7.7s-.7-.3-.7-.6c0-.4.3-.7.7-.7" class="st3"/><path id="CIRCLE-13" d="M1.7 20.3c.4 0 .6.3.6.6s-.3.7-.6.7c-.4 0-.6-.3-.6-.6-.1-.4.2-.7.6-.7" class="st3"/><path id="CIRCLE-14" d="M1.7 13.1c.4 0 .6.3.6.6s-.3.7-.6.7c-.4 0-.6-.3-.6-.6-.1-.4.2-.7.6-.7" class="st3"/><path id="CIRCLE-15" d="M5.3 16.7c.4 0 .6.3.6.6s-.3.7-.6.7c-.4 0-.6-.3-.6-.6-.1-.4.2-.7.6-.7" class="st3"/><path d="M191.6 64.5q0 0 0 0t0 0M191.6 6.4q0 0 0 0t0 0M6 70.9q0 0 0 0t0 0 0 0M191.6 6.4q0 0 0 0t0 0M185.3 0s-.1 0 0 0M185.3 70.9c-.1 0 0 0 0 0q0 0 0 0M191.6 64.5q0 0 0 0M0 6.4q0 0 0 0t0 0M0 64.5q0 0 0 0M0 64.5q0 0 0 0M0 6.4q0 0 0 0t0 0" class="st2"/><g class="st4"><defs><path id="SVGID_1_" d="M4.1 63.1H7V66H4.1z"/></defs><clipPath id="SVGID_2_"><use xlink:href="#SVGID_1_" style="overflow:visible"/></clipPath><path d="M5.5 63.1c-.8 0-1.4.6-1.4 1.4s.6 1.4 1.4 1.4 1.4-.6 1.4-1.4-.6-1.4-1.4-1.4" class="st6" style="clip-path:url(#SVGID_2_)"/></g><g class="st4"><defs><path id="SVGID_3_" d="M4.1 4.9H7v2.9H4.1z"/></defs><clipPath id="SVGID_4_"><use xlink:href="#SVGID_3_" style="overflow:visible"/></clipPath><path d="M5.5 7.8c.8 0 1.4-.6 1.4-1.4s-.6-1.5-1.4-1.5-1.4.6-1.4 1.4c0 .9.6 1.5 1.4 1.5" class="st6" style="clip-path:url(#SVGID_4_)"/></g><path d="M5.5 63.6c-.5 0-.9.4-.9.9s.4.9.9.9.9-.4.9-.9-.4-.9-.9-.9M5.5 5.5c-.5 0-.9.4-.9.9s.4.9.9.9.9-.4.9-.9-.4-.9-.9-.9" class="st3"/><path d="M128.9 62.1c1.2 0 2.1 1 2.1 2.1s-1 2.1-2.1 2.1-2.1-1-2.1-2.1.9-2.1 2.1-2.1" class="st8"/><path d="M128.9 62.1c1.2 0 2.1 1 2.1 2.1s-1 2.1-2.1 2.1-2.1-1-2.1-2.1.9-2.1 2.1-2.1M180.4 48.7v4.6h-3.2v-4.6zc-.1-.1 0-.1 0 0M174.7 48.7v4.6h-3.2v-4.6zq0-.15 0 0M107.7 54.4v2.3h2.3v-2.3zM112.6 54.4v2.3h-2.3v-2.3zM99.7 15.9v2.3h-2.3v-2.3zM99.7 13.3v2.3h-2.3v-2.3zM99.7 19.1v2.3h-2.3v-2.3zM99.7 21.7V24h-2.3v-2.3zM159.3 17.2v2.3h2.3v-2.3zq0-.15 0 0M161.6 22v-2.3h-2.3V22zM159.6 47.8V50h-2.3v-2.3zc0-.1 0 0 0 0M159.6 50.3v2.3h-2.3v-2.3zM168.3 1.1v2.3H166V1.1zM165.7 1.1v2.3h-2.3V1.1zM132.8 24.2v2.3h2.3v-2.3zM137.7 24.2v2.3h-2.3v-2.3zc-.1 0 0 0 0 0M117.7 49.6v2.3h-2.3v-2.3zM117.7 52.2v2.3h-2.3v-2.3zc0-.1 0 0 0 0M140 50.6v3.2h-3.3v-3.2zc0-.1 0 0 0 0M140 46v3.2h-3.3V46zM134.9 53.8v-3.2h-3.4v3.2s0 .1.1.1zM131.5 46v3.2h3.3V46zc.1 0 0 0 0 0M103.2 46.8V49h-2.3v-2.3zc0-.1 0 0 0 0M105.8 49v-2.3h-2.3V49zq0 .15 0 0M114.6 15.5v2.3h-2.3v-2.3zc-.1-.1 0-.1 0 0M114.6 12.9v2.3h-2.3v-2.3zc-.1 0 0 0 0 0M117.4 15.5v2.3h-2.3v-2.3zq0-.15 0 0M117.4 12.9v2.3h-2.3v-2.3zM118.5 21.1v2.3h-2.3v-2.3zM118.5 18.6v2.3h-2.3v-2.3zc0-.1 0 0 0 0M120.2 15.5v2.3h-2.3v-2.3zq0-.15 0 0M120.2 12.9v2.3h-2.3v-2.3zM153.8 60.7v-3.5h-3.1v3.5zq0 .15 0 0M144.7 60.7v-3.5h-3.1v3.5zq0 .15 0 0M130.5 56v3.3h-3.2V56s0-.1.1-.1zM135 59.4V56h-3.2v3.3zM158.9 26.1v3.2h-3.3v-3.2zq0-.15 0 0M158.9 30.6v3.2h-3.3v-3.2zM182.1 38.3V40h-4.4v-1.7zM182.1 36.5v1.7h-4.4v-1.7zq0-.15 0 0M182.1 34.6v1.7h-4.4v-1.7zM182.1 32.8v1.7h-4.4v-1.7zc0-.1 0 0 0 0M182.1 30.9v1.7h-4.4v-1.7zM160.2 53.6v4.9H158v-4.9zM163 53.6v4.9h-2.2v-4.9zM165.8 53.6v4.9h-2.2v-4.9zM168.7 53.6v4.9h-2.2v-4.9zM171.5 53.6v4.9h-2.2v-4.9zM152.5 17.2v10.4s0 .1-.1.1h-3.3s-.1 0-.1-.1V17.2s0-.1.1-.1zM146.8 17.2v10.4s0 .1-.1.1h-3.3V17.2zM151.9 53.5v-7.4h3.6c.1.3.1.5.1.8v6.6zM142.7 53.3v-6.4c0-.3 0-.6.1-.8h3.5v7.4h-3.6zM172.1 45.3v2.3h2.3v-2.3zM177 47.6v-2.3h-2.3v2.3zM112.6 57.3v2.3h-2.3v-2.3zc0-.1 0 0 0 0M107.7 57.2s0 .1 0 0q0 .15 0 0v2.3h2.3v-2.3zM106.5 56.7v-2.3h-2.3v2.3zM103.9 56.7v-2.3h-2.3v2.3zM106.5 57.3v2.3h-2.3v-2.3zc0-.1 0 0 0 0M104 57.3v2.3h-2.3v-2.3zc0-.1 0 0 0 0M101 50v2.3h-2.3V50zc-.1 0 0 0 0 0M101 52.6v2.3h-2.3v-2.3zc-.1 0 0 0 0 0M98.1 50v2.3h-2.3V50zM98.1 52.6v2.3h-2.3v-2.3zM135.7 64.5v2.3h-2.3v-2.3zM135.7 62v2.3h-2.3V62zq0-.15 0 0M149.4 65.9v2.3h-2.3v-2.3zM149.4 63.4v2.3h-2.3v-2.3zq0-.15 0 0M163 32v2.3h2.3V32zM160.4 32v2.3h2.3V32zM183.7 20.6v2.3h-2.3v-2.3zq0-.15 0 0M181.2 20.6v2.3h-2.3v-2.3zq0-.15 0 0M172.4 30.8v-2.3h-2.3v2.3zM170.1 26v2.3h2.3V26zq0-.15 0 0M177.2 19.1v2.3h-2.3v-2.3zM177.2 24v-2.3h-2.3V24zM180.3 56.3v2.3H178v-2.3zc0-.1 0 0 0 0M177.8 56.3v2.3h-2.3v-2.3zc0-.1 0 0 0 0M177.5 3.8v2.3h-2.3V3.8zM171.4 1.1v2.3h-2.3V1.1zM173.9 1.1v2.3h-2.3V1.1zM27.7 52.7h-2.6c-.1 0-.1.1-.1.1v4.5c0 .1.1.1.1.1h2.6c.1 0 .1-.1.1-.1v-4.5zM30.8 52.7h-2.6c-.1 0-.1.1-.1.1v4.5c0 .1.1.1.1.1h2.6c.1 0 .1-.1.1-.1v-4.5zM31.3 57.6h2.6c.1 0 .1-.1.1-.1V53c0-.1-.1-.1-.1-.1h-2.6c-.1 0-.1.1-.1.1v4.5zM37 52.7h-2.6c-.1 0-.1.1-.1.1v4.5c0 .1.1.1.1.1H37c.1 0 .1-.1.1-.1v-4.5c.1 0 0-.1-.1-.1M40.1 52.7h-2.6c-.1 0-.1.1-.1.1v4.5c0 .1.1.1.1.1h2.6c.1 0 .1-.1.1-.1v-4.5c.1 0 0-.1-.1-.1M43.2 52.7h-2.6c-.1 0-.1.1-.1.1v4.5c0 .1.1.1.1.1h2.6c.1 0 .1-.1.1-.1v-4.5c.1 0 0-.1-.1-.1M43.8 57.6h2.6c.1 0 .1-.1.1-.1V53c0-.1-.1-.1-.1-.1h-2.6c-.1 0-.1.1-.1.1v4.5s0 .1.1.1M46.9 57.6h2.6c.1 0 .1-.1.1-.1V53c0-.1-.1-.1-.1-.1h-2.6c-.1 0-.1.1-.1.1v4.5s0 .1.1.1M52.6 52.7H50c-.1 0-.1.1-.1.1v4.5c0 .1.1.1.1.1h2.6c.1 0 .1-.1.1-.1v-4.5s0-.1-.1-.1M53.2 57.6h2.6c.1 0 .1-.1.1-.1V53c0-.1-.1-.1-.1-.1h-2.6c-.1 0-.1.1-.1.1v4.5c-.1 0 0 .1.1.1M56.3 57.6h2.6c.1 0 .1-.1.1-.1V53c0-.1-.1-.1-.1-.1h-2.6c-.1 0-.1.1-.1.1v4.5c-.1 0 0 .1.1.1M59.4 57.6H62c.1 0 .1-.1.1-.1V53c0-.1-.1-.1-.1-.1h-2.6c-.1 0-.1.1-.1.1v4.5c-.1 0 0 .1.1.1M62.5 57.6h2.6c.1 0 .1-.1.1-.1V53c0-.1-.1-.1-.1-.1h-2.6c-.1 0-.1.1-.1.1v4.5s0 .1.1.1M68.2 52.7h-2.6c-.1 0-.1.1-.1.1v4.5c0 .1.1.1.1.1h2.6c.1 0 .1-.1.1-.1v-4.5s0-.1-.1-.1M68.7 57.6h2.6c.1 0 .1-.1.1-.1V53c0-.1-.1-.1-.1-.1h-2.6c-.1 0-.1.1-.1.1v4.5zM71.9 57.6h2.6c.1 0 .1-.1.1-.1V53c0-.1-.1-.1-.1-.1h-2.6c-.1 0-.1.1-.1.1v4.5c-.1 0 0 .1.1.1M77.5 52.7H75c-.1 0-.1.1-.1.1v4.5c0 .1.1.1.1.1h2.6c.1 0 .1-.1.1-.1v-4.5s-.1-.1-.2-.1M80.7 52.7h-2.6c-.1 0-.1.1-.1.1v4.5c0 .1.1.1.1.1h2.6c.1 0 .1-.1.1-.1v-4.5zM83.8 52.7h-2.6c-.1 0-.1.1-.1.1v4.5c0 .1.1.1.1.1h2.6c.1 0 .1-.1.1-.1v-4.5s0-.1-.1-.1M84.3 57.6h2.6c.1 0 .1-.1.1-.1V53c0-.1-.1-.1-.1-.1h-2.6c-.1 0-.1.1-.1.1v4.5zM90 52.7h-2.6c-.1 0-.1.1-.1.1v4.5c0 .1.1.1.1.1H90c.1 0 .1-.1.1-.1v-4.5c.1 0 0-.1-.1-.1M93.7 49.6h-4.5c-.1 0-.1.1-.1.1v2.6c0 .1.1.1.1.1h4.5c.1 0 .1-.1.1-.1v-2.6s0-.1-.1-.1M93.7 46.5h-4.5c-.1 0-.1.1-.1.1v2.6c0 .1.1.1.1.1h4.5c.1 0 .1-.1.1-.1v-2.6s0-.1-.1-.1M93.7 43.4h-4.5c-.1 0-.1.1-.1.1v2.6c0 .1.1.1.1.1h4.5c.1 0 .1-.1.1-.1v-2.6c0-.1 0-.1-.1-.1M93.7 40.3h-4.5c-.1 0-.1.1-.1.1V43c0 .1.1.1.1.1h4.5c.1 0 .1-.1.1-.1v-2.6c0-.1 0-.1-.1-.1M93.7 37.1h-4.5c-.1 0-.1.1-.1.1v2.6c0 .1.1.1.1.1h4.5c.1 0 .1-.1.1-.1v-2.6s0-.1-.1-.1M93.7 34h-4.5c-.1 0-.1.1-.1.1v2.6c0 .1.1.1.1.1h4.5c.1 0 .1-.1.1-.1v-2.6s0-.1-.1-.1M93.7 30.9h-4.5c-.1 0-.2.1-.2.1v2.6c0 .1.1.1.1.1h4.5c.1 0 .1-.1.1-.1V31c.1 0 .1-.1 0-.1M93.7 27.8h-4.5c-.1 0-.1.1-.1.1v2.6c0 .1.1.1.1.1h4.5c.1 0 .1-.1.1-.1v-2.6s0-.1-.1-.1M93.7 24.7h-4.5c-.1 0-.1.1-.1.1v2.6c0 .1.1.1.1.1h4.5c.1 0 .1-.1.1-.1v-2.6c0-.1 0-.1-.1-.1M93.7 21.6h-4.5c-.1 0-.1.1-.1.1v2.6c0 .1.1.1.1.1h4.5c.1 0 .1-.1.1-.1v-2.6c0-.1 0-.1-.1-.1M89 18.6v2.6c0 .1.1.1.1.1h4.5c.1 0 .1-.1.1-.1v-2.6c0-.1-.1-.1-.1-.1h-4.5c0-.1-.1 0-.1.1M21.4 21.3H26c.1 0 .1-.1.1-.1v-2.6c0-.1-.1-.1-.1-.1h-4.5c-.1 0-.1.1-.1.1v2.6c-.1 0-.1.1 0 .1M21.4 24.4H26c.1 0 .1-.1.1-.1v-2.6c0-.1-.1-.1-.1-.1h-4.5c-.1 0-.1.1-.1.1v2.6c-.1 0-.1.1 0 .1M21.4 27.5H26c.1 0 .1-.1.1-.1v-2.6c0-.1-.1-.1-.1-.1h-4.5c-.1 0-.1.1-.1.1v2.6c-.1 0-.1.1 0 .1M21.4 30.6H26c.1 0 .1-.1.1-.1v-2.6c0-.1-.1-.1-.1-.1h-4.5c-.1 0-.1.1-.1.1v2.6c-.1.1-.1.1 0 .1M21.4 33.7H26c.1 0 .1-.1.1-.1V31c0-.1-.1-.1-.1-.1h-4.5c-.1 0-.1.1-.1.1v2.6c-.1.1-.1.1 0 .1M21.4 36.9H26c.1 0 .1-.1.1-.1v-2.6c0-.1-.1-.1-.1-.1h-4.5c-.1 0-.1.1-.1.1v2.6c-.1 0-.1.1 0 .1M21.4 40H26c.1 0 .1-.1.1-.1v-2.6c0-.1-.1-.1-.1-.1h-4.5c-.1 0-.1.1-.1.1v2.6c-.1 0-.1.1 0 .1M21.4 43.1H26c.1 0 .1-.1.1-.1v-2.6c0-.1-.1-.1-.1-.1h-4.5c-.1 0-.1.1-.1.1V43c-.1 0-.1.1 0 .1M21.4 46.2H26c.1 0 .1-.1.1-.1v-2.6c0-.1-.1-.1-.1-.1h-4.5c-.1 0-.1.1-.1.1v2.6c-.1.1-.1.1 0 .1M21.4 49.3H26c.1 0 .1-.1.1-.1v-2.6c0-.1-.1-.1-.1-.1h-4.5c-.1 0-.1.1-.1.1v2.6c-.1.1-.1.1 0 .1M21.4 52.5H26c.1 0 .1-.1.1-.1v-2.6c0-.1-.1-.1-.1-.1h-4.5c-.1 0-.1.1-.1.1v2.6c-.1 0-.1.1 0 .1M30.3 48.7V52c0 .1-.1.2-.2.2h-3.3c-.1 0-.2-.1-.2-.2v-3.3c0-.1.1-.2.2-.2h3.3c.2 0 .2.1.2.2M30.3 42.7V46c0 .1-.1.2-.2.2h-3.3c-.1 0-.2-.1-.2-.2v-3.3c0-.1.1-.2.2-.2h3.3c.2 0 .2.1.2.2M30.3 36.8v3.3c0 .1-.1.2-.2.2h-3.3c-.1 0-.2-.1-.2-.2v-3.3c0-.1.1-.2.2-.2h3.3c.2 0 .2.1.2.2M30.3 30.8v3.3c0 .1-.1.2-.2.2h-3.3c-.1 0-.2-.1-.2-.2v-3.3c0-.1.1-.2.2-.2h3.3c.2 0 .2.1.2.2M30.3 24.9v3.3c0 .1-.1.2-.2.2h-3.3c-.1 0-.2-.1-.2-.2v-3.3c0-.1.1-.2.2-.2h3.3c.2 0 .2.1.2.2M26.8 22.4h3.3c.1 0 .2-.1.2-.2v-3.3c0-.1-.1-.2-.2-.2h-3.3c-.1 0-.2.1-.2.2v3.3c.1.1.1.2.2.2M35.4 48.7V52c0 .1-.1.2-.2.2h-3.3c-.1 0-.2-.1-.2-.2v-3.3c0-.1.1-.2.2-.2h3.3c.2 0 .2.1.2.2M35.4 42.7V46c0 .1-.1.2-.2.2h-3.3c-.1 0-.2-.1-.2-.2v-3.3c0-.1.1-.2.2-.2h3.3c.2 0 .2.1.2.2M35.4 36.8v3.3c0 .1-.1.2-.2.2h-3.3c-.1 0-.2-.1-.2-.2v-3.3c0-.1.1-.2.2-.2h3.3c.2 0 .2.1.2.2M35.4 30.8v3.3c0 .1-.1.2-.2.2h-3.3c-.1 0-.2-.1-.2-.2v-3.3c0-.1.1-.2.2-.2h3.3c.2 0 .2.1.2.2M35.4 24.9v3.3c0 .1-.1.2-.2.2h-3.3c-.1 0-.2-.1-.2-.2v-3.3c0-.1.1-.2.2-.2h3.3c.2 0 .2.1.2.2M31.9 22.4h3.3c.1 0 .2-.1.2-.2v-3.3c0-.1-.1-.2-.2-.2h-3.3c-.1 0-.2.1-.2.2v3.3c.1.1.1.2.2.2M40.6 48.7V52c0 .1-.1.2-.2.2H37c-.1 0-.2-.1-.2-.2v-3.3c0-.1.1-.2.2-.2h3.3c.2 0 .3.1.3.2M36.9 18.9v3.3c0 .1.1.2.2.2h3.3c.1 0 .2-.1.2-.2v-3.3c0-.1-.1-.2-.2-.2H37c-.1 0-.1.1-.1.2M50.8 48.7V52c0 .1-.1.2-.2.2h-3.3c-.1 0-.2-.1-.2-.2v-3.3c0-.1.1-.2.2-.2h3.3c.1 0 .2.1.2.2M47.2 22.4h3.3c.1 0 .2-.1.2-.2v-3.3c0-.1-.1-.2-.2-.2h-3.3c-.1 0-.2.1-.2.2v3.3c.1.1.1.2.2.2M68 48.7V52c0 .1-.1.2-.2.2h-3.3c-.1 0-.2-.1-.2-.2v-3.3c0-.1.1-.2.2-.2h3.3c.2 0 .2.1.2.2M64.5 22.4h3.3c.1 0 .2-.1.2-.2v-3.3c0-.1-.1-.2-.2-.2h-3.3c-.1 0-.2.1-.2.2v3.3c.1.1.1.2.2.2M78.3 52v-3.3c0-.1-.1-.2-.2-.2h-3.3c-.1 0-.2.1-.2.2V52c0 .1.1.2.2.2h3.3c.1 0 .2-.1.2-.2M78.3 18.9v3.3c0 .1-.1.2-.2.2h-3.3c-.1 0-.2-.1-.2-.2v-3.3c0-.1.1-.2.2-.2h3.3c.1 0 .2.1.2.2M83.4 48.7V52c0 .1-.1.2-.2.2h-3.3c-.1 0-.2-.1-.2-.2v-3.3c0-.1.1-.2.2-.2h3.3c.1 0 .2.1.2.2M83.4 42.7V46c0 .1-.1.2-.2.2h-3.3c-.1 0-.2-.1-.2-.2v-3.3c0-.1.1-.2.2-.2h3.3c.1 0 .2.1.2.2M83.4 36.8v3.3c0 .1-.1.2-.2.2h-3.3c-.1 0-.2-.1-.2-.2v-3.3c0-.1.1-.2.2-.2h3.3c.1 0 .2.1.2.2M83.4 30.8v3.3c0 .1-.1.2-.2.2h-3.3c-.1 0-.2-.1-.2-.2v-3.3c0-.1.1-.2.2-.2h3.3c.1 0 .2.1.2.2M83.4 24.9v3.3c0 .1-.1.2-.2.2h-3.3c-.1 0-.2-.1-.2-.2v-3.3c0-.1.1-.2.2-.2h3.3c.1 0 .2.1.2.2M79.8 22.4h3.3c.1 0 .2-.1.2-.2v-3.3c0-.1-.1-.2-.2-.2h-3.3c-.1 0-.2.1-.2.2v3.3c.1.1.1.2.2.2M88.5 48.7V52c0 .1-.1.2-.2.2H85c-.1 0-.2-.1-.2-.2v-3.3c0-.1.1-.2.2-.2h3.3c.1 0 .2.1.2.2M88.5 42.7V46c0 .1-.1.2-.2.2H85c-.1 0-.2-.1-.2-.2v-3.3c0-.1.1-.2.2-.2h3.3c.1 0 .2.1.2.2M88.5 36.8v3.3c0 .1-.1.2-.2.2H85c-.1 0-.2-.1-.2-.2v-3.3c0-.1.1-.2.2-.2h3.3c.1 0 .2.1.2.2M88.5 30.8v3.3c0 .1-.1.2-.2.2H85c-.1 0-.2-.1-.2-.2v-3.3c0-.1.1-.2.2-.2h3.3c.1 0 .2.1.2.2M88.5 24.9v3.3c0 .1-.1.2-.2.2H85c-.1 0-.2-.1-.2-.2v-3.3c0-.1.1-.2.2-.2h3.3c.1 0 .2.1.2.2M84.9 22.4h3.3c.1 0 .2-.1.2-.2v-3.3c0-.1-.1-.2-.2-.2h-3.3c-.1 0-.2.1-.2.2v3.3c.1.1.1.2.2.2M102.1 38.7v4.4h-5v-4.4zM102.4 35.4v2.8h-1.3v-2.8zc0-.1 0 0 0 0M101 37.6v-2.2h-1.3v2.7-.3zq-.15 0 0 0M99.5 37.6q.15 0 0 0v-2.2h-1.3v2.7-.3zM96.9 37.6v.5-2.6h-1.3zq-.15 0 0 0M98.1 46.5s.1-.1 0 0v-2.7 2.7M99.5 46.5c.1 0 .1-.1 0 0v-2.7 2.7M99.7 44.2s-.1 0 0 0v2.2h1.3v-2.6.3zM101.1 44.2v2.2h1.3v-2.6.3zm0-.1" class="st8"/><path d="M180.7 38.6q-.15 0 0 0h-1.9v1.1h3.7v-1.1zM182.6 36.8v1.1h-3.8v-1.1zM182.6 35v1.1h-3.8V35zc0-.1 0 0 0 0M182.6 33.1v1.1h-3.8v-1.1zM182.6 31.3q-.15 0 0 0h-3.8v1.1h3.7z" class="st8"/><path d="M173.9 39c0 .3.2.5.5.5s.5-.2.5-.5v-1.1h-1zM169.6 39v-1.1h-1V39c0 .3.2.5.5.5s.5-.2.5-.5M169.6 32.9c0-.3-.2-.5-.5-.5s-.5.2-.5.5V34h1zM173.9 32.9V34h1v-1.1c0-.3-.2-.5-.5-.5s-.5.2-.5.5" class="st9"/><path d="M168.3 33.8c-.1 0-.2.1-.2.2v3.9c0 .1.1.2.2.2h7c.1 0 .2-.1.2-.2V34c0-.1-.1-.2-.2-.2z"/><path d="M168.3 33.8c-.1 0-.2.1-.2.2v3.9c0 .1.1.2.2.2h7c.1 0 .2-.1.2-.2V34c0-.1-.1-.2-.2-.2z" class="st10"/><path d="M168.3 33.8c-.1 0-.2.1-.2.2v3.9c0 .1.1.2.2.2h7c.1 0 .2-.1.2-.2V34c0-.1-.1-.2-.2-.2z"/><defs><path id="SVGID_5_" d="M126 60.9h7.2v7.2H126z"/></defs><clipPath id="SVGID_6_"><use xlink:href="#SVGID_5_" style="overflow:visible"/></clipPath><g style="clip-path:url(#SVGID_6_)"><path d="M133.2 60.9H126v7.2h7.2zm-5.1 2.1h2.9v2.9h-2.9z"/><path d="M133.2 60.9H126v7.2h7.2zm-5.1 2.1h2.9v2.9h-2.9z"/><path d="M133.2 60.9H126v7.2h7.2zm-5.1 2.1h2.9v2.9h-2.9z" class="st10"/><path d="M133.2 60.9H126v7.2h7.2zm-5.1 2.1h2.9v2.9h-2.9z"/><path d="M133.2 60.9H126v7.2h7.2zm-5.1 2.1h2.9v2.9h-2.9z"/><path d="M128.8 63.7h1.5v1.5h-1.5z" class="st12"/><g style="opacity:.25"><defs><path id="SVGID_7_" d="M128.1 63h2.9v2.9h-2.9z"/></defs><clipPath id="SVGID_8_"><use xlink:href="#SVGID_7_" style="overflow:visible"/></clipPath><g style="clip-path:url(#SVGID_8_)"><path d="M128.1 65.9h2.9V63h-2.9zm2.2-.7h-1.5v-1.5h1.5z"/><path d="M128.1 65.9h2.9V63h-2.9zm2.2-.7h-1.5v-1.5h1.5z"/><path d="M128.1 65.9h2.9V63h-2.9zm2.2-.7h-1.5v-1.5h1.5z" class="st10"/><path d="M128.1 65.9h2.9V63h-2.9zm2.2-.7h-1.5v-1.5h1.5z"/><path d="M128.1 65.9h2.9V63h-2.9zm2.2-.7h-1.5v-1.5h1.5z"/></g></g></g><defs><path id="SVGID_9_" d="M180.1 21h2.9v1.4h-2.9z"/></defs><clipPath id="SVGID_10_"><use xlink:href="#SVGID_9_" style="overflow:visible"/></clipPath><g style="clip-path:url(#SVGID_10_)"><path d="M182.2 21h-1.5c-.4 0-.7.3-.7.7s.3.7.7.7h1.5c.4 0 .7-.3.7-.7s-.3-.7-.7-.7" class="st9"/><path d="M181 21h1.1v1.4H181z"/><path d="M181 21h1.1v1.4H181z"/><path d="M181 21h1.1v1.4H181z"/><path d="M181 21h1.1v1.4H181z" class="st10"/><path d="M181 21h1.1v1.4H181z"/></g><defs><path id="SVGID_11_" d="M161.3 32.5h2.9v1.4h-2.9z"/></defs><clipPath id="SVGID_12_"><use xlink:href="#SVGID_11_" style="overflow:visible"/></clipPath><g style="clip-path:url(#SVGID_12_)"><path d="M163.5 32.5H162c-.4 0-.7.3-.7.7s.3.7.7.7h1.5c.4 0 .7-.3.7-.7s-.3-.7-.7-.7" class="st9"/><path d="M162.2 32.5h1.1v1.4h-1.1z"/><path d="M162.2 32.5h1.1v1.4h-1.1z"/><path d="M162.2 32.5h1.1v1.4h-1.1z"/><path d="M162.2 32.5h1.1v1.4h-1.1z" class="st10"/><path d="M162.2 32.5h1.1v1.4h-1.1z"/></g><defs><path id="SVGID_13_" d="M173.2 45.7h2.9v1.4h-2.9z"/></defs><clipPath id="SVGID_14_"><use xlink:href="#SVGID_13_" style="overflow:visible"/></clipPath><g style="clip-path:url(#SVGID_14_)"><path d="M175.4 45.7h-1.5c-.4 0-.7.3-.7.7s.3.7.7.7h1.5c.4 0 .7-.3.7-.7s-.3-.7-.7-.7" class="st9"/><path d="M174.1 45.7h1.1v1.4h-1.1z"/><path d="M174.1 45.7h1.1v1.4h-1.1z"/><path d="M174.1 45.7h1.1v1.4h-1.1z"/><path d="M174.1 45.7h1.1v1.4h-1.1z" class="st10"/><path d="M174.1 45.7h1.1v1.4h-1.1z"/></g><defs><path id="SVGID_15_" d="M176.5 56.7h2.9v1.4h-2.9z"/></defs><clipPath id="SVGID_16_"><use xlink:href="#SVGID_15_" style="overflow:visible"/></clipPath><g style="clip-path:url(#SVGID_16_)"><path d="M178.7 56.7h-1.5c-.4 0-.7.3-.7.7s.3.7.7.7h1.5c.4 0 .7-.3.7-.7s-.3-.7-.7-.7" class="st9"/><path d="M177.4 56.7h1.1v1.4h-1.1z"/><path d="M177.4 56.7h1.1v1.4h-1.1z"/><path d="M177.4 56.7h1.1v1.4h-1.1z"/><path d="M177.4 56.7h1.1v1.4h-1.1z" class="st10"/><path d="M177.4 56.7h1.1v1.4h-1.1z"/></g><defs><path id="SVGID_17_" d="M170.1 1.6h2.9V3h-2.9z"/></defs><clipPath id="SVGID_18_"><use xlink:href="#SVGID_17_" style="overflow:visible"/></clipPath><g style="clip-path:url(#SVGID_18_)"><path d="M172.3 1.6h-1.5c-.4 0-.7.3-.7.7s.3.7.7.7h1.5c.4 0 .7-.3.7-.7s-.3-.7-.7-.7" class="st9"/><path d="M171 1.6h1.1V3H171z"/><path d="M171 1.6h1.1V3H171z"/><path d="M171 1.6h1.1V3H171z"/><path d="M171 1.6h1.1V3H171z" class="st10"/><path d="M171 1.6h1.1V3H171z"/></g><defs><path id="SVGID_19_" d="M164.5 1.6h2.9V3h-2.9z"/></defs><clipPath id="SVGID_20_"><use xlink:href="#SVGID_19_" style="overflow:visible"/></clipPath><g style="clip-path:url(#SVGID_20_)"><path d="M166.6 1.6h-1.5c-.4 0-.7.3-.7.7s.3.7.7.7h1.5c.4 0 .7-.3.7-.7s-.3-.7-.7-.7" class="st9"/><path d="M165.4 1.6h1.1V3h-1.1z"/><path d="M165.4 1.6h1.1V3h-1.1z"/><path d="M165.4 1.6h1.1V3h-1.1z"/><path d="M165.4 1.6h1.1V3h-1.1z" class="st10"/><path d="M165.4 1.6h1.1V3h-1.1z"/></g><defs><path id="SVGID_21_" d="M133.8 24.6h2.9V26h-2.9z"/></defs><clipPath id="SVGID_22_"><use xlink:href="#SVGID_21_" style="overflow:visible"/></clipPath><g style="clip-path:url(#SVGID_22_)"><path d="M135.9 24.6h-1.5c-.4 0-.7.3-.7.7s.3.7.7.7h1.5c.4 0 .7-.3.7-.7.1-.3-.3-.7-.7-.7" class="st9"/><path d="M134.7 24.6h1.1V26h-1.1z"/><path d="M134.7 24.6h1.1V26h-1.1z"/><path d="M134.7 24.6h1.1V26h-1.1z"/><path d="M134.7 24.6h1.1V26h-1.1z" class="st10"/><path d="M134.7 24.6h1.1V26h-1.1z"/></g><defs><path id="SVGID_23_" d="M175.7 4.8h1.4v2.9h-1.4z"/></defs><clipPath id="SVGID_24_"><use xlink:href="#SVGID_23_" style="overflow:visible"/></clipPath><g style="clip-path:url(#SVGID_24_)"><path d="M175.7 5.5V7c0 .4.3.7.7.7s.7-.3.7-.7V5.5c0-.4-.3-.7-.7-.7s-.7.3-.7.7" class="st9"/><path d="M175.7 5.7h1.4v1.1h-1.4z"/><path d="M175.7 5.7h1.4v1.1h-1.4z"/><path d="M175.7 5.7h1.4v1.1h-1.4z"/><path d="M175.7 5.7h1.4v1.1h-1.4z" class="st10"/><path d="M175.7 5.7h1.4v1.1h-1.4z"/></g><defs><path id="SVGID_25_" d="M175.4 20.1h1.4V23h-1.4z"/></defs><clipPath id="SVGID_26_"><use xlink:href="#SVGID_25_" style="overflow:visible"/></clipPath><g style="clip-path:url(#SVGID_26_)"><path d="M175.4 20.8v1.5c0 .4.3.7.7.7s.7-.3.7-.7v-1.5c0-.4-.3-.7-.7-.7s-.7.3-.7.7" class="st9"/><path d="M175.4 21h1.4v1.1h-1.4z"/><path d="M175.4 21h1.4v1.1h-1.4z"/><path d="M175.4 21h1.4v1.1h-1.4z"/><path d="M175.4 21h1.4v1.1h-1.4z" class="st10"/><path d="M175.4 21h1.4v1.1h-1.4z"/></g><defs><path id="SVGID_27_" d="M170.5 26.9h1.4v2.9h-1.4z"/></defs><clipPath id="SVGID_28_"><use xlink:href="#SVGID_27_" style="overflow:visible"/></clipPath><g style="clip-path:url(#SVGID_28_)"><path d="M170.5 27.6v1.5c0 .4.3.7.7.7s.7-.3.7-.7v-1.5c0-.4-.3-.7-.7-.7s-.7.3-.7.7" class="st9"/><path d="M170.5 27.8h1.4v1.1h-1.4z"/><path d="M170.5 27.8h1.4v1.1h-1.4z"/><path d="M170.5 27.8h1.4v1.1h-1.4z"/><path d="M170.5 27.8h1.4v1.1h-1.4z" class="st10"/><path d="M170.5 27.8h1.4v1.1h-1.4z"/></g><defs><path id="SVGID_29_" d="M157.7 48.7h1.4v2.9h-1.4z"/></defs><clipPath id="SVGID_30_"><use xlink:href="#SVGID_29_" style="overflow:visible"/></clipPath><g style="clip-path:url(#SVGID_30_)"><path d="M157.7 49.5V51c0 .4.3.7.7.7s.7-.3.7-.7v-1.5c0-.4-.3-.7-.7-.7s-.7.3-.7.7" class="st9"/><path d="M157.7 49.6h1.4v1.1h-1.4z"/><path d="M157.7 49.6h1.4v1.1h-1.4z"/><path d="M157.7 49.6h1.4v1.1h-1.4z"/><path d="M157.7 49.6h1.4v1.1h-1.4z" class="st10"/><path d="M157.7 49.6h1.4v1.1h-1.4z"/></g><defs><path id="SVGID_31_" d="M159.8 18.2h1.4v2.9h-1.4z"/></defs><clipPath id="SVGID_32_"><use xlink:href="#SVGID_31_" style="overflow:visible"/></clipPath><g style="clip-path:url(#SVGID_32_)"><path d="M159.8 18.9v1.5c0 .4.3.7.7.7s.7-.3.7-.7v-1.5c0-.4-.3-.7-.7-.7s-.7.3-.7.7" class="st9"/><path d="M159.8 19.1h1.4v1.1h-1.4z"/><path d="M159.8 19.1h1.4v1.1h-1.4z"/><path d="M159.8 19.1h1.4v1.1h-1.4z"/><path d="M159.8 19.1h1.4v1.1h-1.4z" class="st10"/><path d="M159.8 19.1h1.4v1.1h-1.4z"/></g><defs><path id="SVGID_33_" d="M147.6 64.3h1.4v2.9h-1.4z"/></defs><clipPath id="SVGID_34_"><use xlink:href="#SVGID_33_" style="overflow:visible"/></clipPath><g style="clip-path:url(#SVGID_34_)"><path d="M147.6 65.1v1.5c0 .4.3.7.7.7s.7-.3.7-.7v-1.5c0-.4-.3-.7-.7-.7-.4-.1-.7.3-.7.7" class="st9"/><path d="M147.6 65.3h1.4v1.1h-1.4z"/><path d="M147.6 65.3h1.4v1.1h-1.4z"/><path d="M147.6 65.3h1.4v1.1h-1.4z"/><path d="M147.6 65.3h1.4v1.1h-1.4z" class="st10"/><path d="M147.6 65.3h1.4v1.1h-1.4z"/></g><defs><path id="SVGID_35_" d="M133.8 62.8h1.4v2.9h-1.4z"/></defs><clipPath id="SVGID_36_"><use xlink:href="#SVGID_35_" style="overflow:visible"/></clipPath><g style="clip-path:url(#SVGID_36_)"><path d="M133.8 63.5V65c0 .4.3.7.7.7s.7-.3.7-.7v-1.5c0-.4-.3-.7-.7-.7s-.7.3-.7.7" class="st9"/><path d="M133.8 63.7h1.4v1.1h-1.4z"/><path d="M133.8 63.7h1.4v1.1h-1.4z"/><path d="M133.8 63.7h1.4v1.1h-1.4z"/><path d="M133.8 63.7h1.4v1.1h-1.4z" class="st10"/><path d="M133.8 63.7h1.4v1.1h-1.4z"/></g><path d="M96.9 36.6c-.1 0-.2.2-.2.4v7.9c0 .2.1.4.2.4h5.3c.1 0 .2-.2.2-.4V37c0-.2-.1-.4-.2-.4z"/><path d="M96.9 36.6c-.1 0-.2.2-.2.4v7.9c0 .2.1.4.2.4h5.3c.1 0 .2-.2.2-.4V37c0-.2-.1-.4-.2-.4z" class="st10"/><path d="M96.9 36.6c-.1 0-.2.2-.2.4v7.9c0 .2.1.4.2.4h5.3c.1 0 .2-.2.2-.4V37c0-.2-.1-.4-.2-.4z"/><path d="M98 36.5c0-.3-.2-.6-.5-.6s-.6.2-.6.5zq0 .15 0 0M99.4 36.5c0-.3-.2-.6-.6-.6-.3 0-.6.2-.6.6zq0 .15 0 0M100.8 36.5c0-.3-.3-.6-.6-.6q-.45 0-.6.6zq0 .15 0 0M102.2 36.5c0-.3-.2-.6-.6-.6s-.6.2-.6.6zq0 .15 0 0M101.1 45.1c0 .3.2.6.6.6.3 0 .6-.2.6-.6zM99.7 45.1c0 .3.2.6.6.6s.6-.2.6-.6zM98.3 45.1c0 .3.2.6.6.6.3 0 .6-.2.6-.6zM96.9 45.1c0 .3.2.6.6.6s.6-.2.6-.6z" class="st9"/><path d="M137.1 48.8h2.5V51h-2.5z" class="st29"/><path d="M137.1 47.7h2.5v1.2h-2.5zM137.1 50.9h2.5v1.2h-2.5z" class="st30"/><path d="M132.1 48.8h2.5V51h-2.5z" class="st29"/><path d="M132.1 47.7h2.5v1.2h-2.5zM132.1 50.9h2.5v1.2h-2.5z" class="st30"/><path d="M174.5 49.2h2.8v3.5h-2.8z" class="st29"/><path d="M173.1 49.2h1.5v3.5h-1.5zM177.2 49.2h1.5v3.5h-1.5z" class="st30"/><defs><path id="SVGID_37_" d="M96.2 51.1h1.4V54h-1.4z"/></defs><clipPath id="SVGID_38_"><use xlink:href="#SVGID_37_" style="overflow:visible"/></clipPath><g style="clip-path:url(#SVGID_38_)"><path d="M96.2 51.8v1.5c0 .4.3.7.7.7s.7-.3.7-.7v-1.5c0-.4-.3-.7-.7-.7s-.7.3-.7.7" class="st9"/><path d="M96.2 52h1.4v1.1h-1.4z"/><path d="M96.2 52h1.4v1.1h-1.4z"/><path d="M96.2 52h1.4v1.1h-1.4z"/><path d="M96.2 52h1.4v1.1h-1.4z" class="st10"/><path d="M96.2 52h1.4v1.1h-1.4z"/></g><defs><path id="SVGID_39_" d="M97.9 20.1h1.4V23h-1.4z"/></defs><clipPath id="SVGID_40_"><use xlink:href="#SVGID_39_" style="overflow:visible"/></clipPath><g style="clip-path:url(#SVGID_40_)"><path d="M97.9 20.8v1.5c0 .4.3.7.7.7s.7-.3.7-.7v-1.5c0-.4-.3-.7-.7-.7s-.7.3-.7.7" class="st9"/><path d="M97.9 21h1.4v1.1h-1.4z"/><path d="M97.9 21h1.4v1.1h-1.4z"/><path d="M97.9 21h1.4v1.1h-1.4z"/><path d="M97.9 21h1.4v1.1h-1.4z" class="st10"/><path d="M97.9 21h1.4v1.1h-1.4z"/></g><defs><path id="SVGID_41_" d="M97.9 14.3h1.4v2.9h-1.4z"/></defs><clipPath id="SVGID_42_"><use xlink:href="#SVGID_41_" style="overflow:visible"/></clipPath><g style="clip-path:url(#SVGID_42_)"><path d="M97.9 15v1.5c0 .4.3.7.7.7s.7-.3.7-.7V15c0-.4-.3-.7-.7-.7s-.7.3-.7.7" class="st9"/><path d="M97.9 15.2h1.4v1.1h-1.4z"/><path d="M97.9 15.2h1.4v1.1h-1.4z"/><path d="M97.9 15.2h1.4v1.1h-1.4z"/><path d="M97.9 15.2h1.4v1.1h-1.4z" class="st10"/><path d="M97.9 15.2h1.4v1.1h-1.4z"/></g><defs><path id="SVGID_43_" d="M99 51.1h1.4V54H99z"/></defs><clipPath id="SVGID_44_"><use xlink:href="#SVGID_43_" style="overflow:visible"/></clipPath><g style="clip-path:url(#SVGID_44_)"><path d="M99.1 51.8v1.5c0 .4.3.7.7.7s.7-.3.7-.7v-1.5c0-.4-.3-.7-.7-.7s-.7.3-.7.7" class="st9"/><path d="M99.1 52h1.4v1.1h-1.4z"/><path d="M99.1 52h1.4v1.1h-1.4z"/><path d="M99.1 52h1.4v1.1h-1.4z"/><path d="M99.1 52h1.4v1.1h-1.4z" class="st10"/><path d="M99.1 52h1.4v1.1h-1.4z"/></g><defs><path id="SVGID_45_" d="M115.8 50.6h1.4v2.9h-1.4z"/></defs><clipPath id="SVGID_46_"><use xlink:href="#SVGID_45_" style="overflow:visible"/></clipPath><g style="clip-path:url(#SVGID_46_)"><path d="M115.8 51.3v1.5c0 .4.3.7.7.7s.7-.3.7-.7v-1.5c0-.4-.3-.7-.7-.7s-.7.3-.7.7" class="st9"/><path d="M115.8 51.5h1.4v1.1h-1.4z"/><path d="M115.8 51.5h1.4v1.1h-1.4z"/><path d="M115.8 51.5h1.4v1.1h-1.4z"/><path d="M115.8 51.5h1.4v1.1h-1.4z" class="st10"/><path d="M115.8 51.5h1.4v1.1h-1.4z"/></g><defs><path id="SVGID_47_" d="M102.1 47.2h2.9v1.4h-2.9z"/></defs><clipPath id="SVGID_48_"><use xlink:href="#SVGID_47_" style="overflow:visible"/></clipPath><g style="clip-path:url(#SVGID_48_)"><path d="M102.8 48.7h1.5c.4 0 .7-.3.7-.7s-.3-.7-.7-.7h-1.5c-.4 0-.7.3-.7.7s.3.7.7.7" class="st9"/><path d="M103 47.2h1.1v1.4H103z"/><path d="M103 47.2h1.1v1.4H103z"/><path d="M103 47.2h1.1v1.4H103z"/><path d="M103 47.2h1.1v1.4H103z" class="st10"/><path d="M103 47.2h1.1v1.4H103z"/></g><defs><path id="SVGID_49_" d="M102.6 57.6h2.9V59h-2.9z"/></defs><clipPath id="SVGID_50_"><use xlink:href="#SVGID_49_" style="overflow:visible"/></clipPath><g style="clip-path:url(#SVGID_50_)"><path d="M103.4 59h1.5c.4 0 .7-.3.7-.7s-.3-.7-.7-.7h-1.5c-.4 0-.7.3-.7.7-.1.4.3.7.7.7" class="st9"/><path d="M103.6 57.6h1.1V59h-1.1z"/><path d="M103.6 57.6h1.1V59h-1.1z"/><path d="M103.6 57.6h1.1V59h-1.1z"/><path d="M103.6 57.6h1.1V59h-1.1z" class="st10"/><path d="M103.6 57.6h1.1V59h-1.1z"/></g><defs><path id="SVGID_51_" d="M102.6 54.8h2.9v1.4h-2.9z"/></defs><clipPath id="SVGID_52_"><use xlink:href="#SVGID_51_" style="overflow:visible"/></clipPath><g style="clip-path:url(#SVGID_52_)"><path d="M103.4 56.3h1.5c.4 0 .7-.3.7-.7s-.3-.7-.7-.7h-1.5c-.4 0-.7.3-.7.7-.1.3.3.7.7.7" class="st9"/><path d="M103.6 54.8h1.1v1.4h-1.1z"/><path d="M103.6 54.8h1.1v1.4h-1.1z"/><path d="M103.6 54.8h1.1v1.4h-1.1z"/><path d="M103.6 54.8h1.1v1.4h-1.1z" class="st10"/><path d="M103.6 54.8h1.1v1.4h-1.1z"/></g><defs><path id="SVGID_53_" d="M108.7 57.6h2.9V59h-2.9z"/></defs><clipPath id="SVGID_54_"><use xlink:href="#SVGID_53_" style="overflow:visible"/></clipPath><g style="clip-path:url(#SVGID_54_)"><path d="M109.5 59h1.5c.4 0 .7-.3.7-.7s-.3-.7-.7-.7h-1.5c-.4 0-.7.3-.7.7-.1.4.2.7.7.7-.1 0 0 0 0 0" class="st9"/><path d="M109.6 57.6h1.1V59h-1.1z"/><path d="M109.6 57.6h1.1V59h-1.1z"/><path d="M109.6 57.6h1.1V59h-1.1z"/><path d="M109.6 57.6h1.1V59h-1.1z" class="st10"/><path d="M109.6 57.6h1.1V59h-1.1z"/></g><defs><path id="SVGID_55_" d="M108.7 54.8h2.9v1.4h-2.9z"/></defs><clipPath id="SVGID_56_"><use xlink:href="#SVGID_55_" style="overflow:visible"/></clipPath><g style="clip-path:url(#SVGID_56_)"><path d="M109.5 56.3h1.5c.4 0 .7-.3.7-.7s-.3-.7-.7-.7h-1.5c-.4 0-.7.3-.7.7-.1.3.2.7.7.7-.1 0 0 0 0 0" class="st9"/><path d="M109.6 54.8h1.1v1.4h-1.1z"/><path d="M109.6 54.8h1.1v1.4h-1.1z"/><path d="M109.6 54.8h1.1v1.4h-1.1z"/><path d="M109.6 54.8h1.1v1.4h-1.1z" class="st10"/><path d="M109.6 54.8h1.1v1.4h-1.1z"/></g><defs><path id="SVGID_57_" d="M116.7 19.5h1.4v2.9h-1.4z"/></defs><clipPath id="SVGID_58_"><use xlink:href="#SVGID_57_" style="overflow:visible"/></clipPath><g style="clip-path:url(#SVGID_58_)"><path d="M116.7 20.2v1.5c0 .4.3.7.7.7s.7-.3.7-.7v-1.5c0-.4-.3-.7-.7-.7s-.7.3-.7.7" class="st9"/><path d="M116.7 20.4h1.4v1.1h-1.4z"/><path d="M116.7 20.4h1.4v1.1h-1.4z"/><path d="M116.7 20.4h1.4v1.1h-1.4z"/><path d="M116.7 20.4h1.4v1.1h-1.4z" class="st10"/><path d="M116.7 20.4h1.4v1.1h-1.4z"/></g><defs><path id="SVGID_59_" d="M118.4 13.8h1.4v2.9h-1.4z"/></defs><clipPath id="SVGID_60_"><use xlink:href="#SVGID_59_" style="overflow:visible"/></clipPath><g style="clip-path:url(#SVGID_60_)"><path d="M118.4 14.5V16c0 .4.3.7.7.7s.7-.3.7-.7v-1.5c0-.4-.3-.7-.7-.7s-.7.3-.7.7" class="st9"/><path d="M118.4 14.7h1.4v1.1h-1.4z"/><path d="M118.4 14.7h1.4v1.1h-1.4z"/><path d="M118.4 14.7h1.4v1.1h-1.4z"/><path d="M118.4 14.7h1.4v1.1h-1.4z" class="st10"/><path d="M118.4 14.7h1.4v1.1h-1.4z"/></g><defs><path id="SVGID_61_" d="M115.4 13.8h1.4v2.9h-1.4z"/></defs><clipPath id="SVGID_62_"><use xlink:href="#SVGID_61_" style="overflow:visible"/></clipPath><g style="clip-path:url(#SVGID_62_)"><path d="M115.4 14.5V16c0 .4.3.7.7.7s.7-.3.7-.7v-1.5c0-.4-.3-.7-.7-.7s-.7.3-.7.7" class="st9"/><path d="M115.4 14.7h1.4v1.1h-1.4z"/><path d="M115.4 14.7h1.4v1.1h-1.4z"/><path d="M115.4 14.7h1.4v1.1h-1.4z"/><path d="M115.4 14.7h1.4v1.1h-1.4z" class="st10"/><path d="M115.4 14.7h1.4v1.1h-1.4z"/></g><defs><path id="SVGID_63_" d="M112.7 13.8h1.4v2.9h-1.4z"/></defs><clipPath id="SVGID_64_"><use xlink:href="#SVGID_63_" style="overflow:visible"/></clipPath><g style="clip-path:url(#SVGID_64_)"><path d="M112.7 14.5V16c0 .4.3.7.7.7s.7-.3.7-.7v-1.5c0-.4-.3-.7-.7-.7s-.7.3-.7.7" class="st9"/><path d="M112.7 14.7h1.4v1.1h-1.4z"/><path d="M112.7 14.7h1.4v1.1h-1.4z"/><path d="M112.7 14.7h1.4v1.1h-1.4z"/><path d="M112.7 14.7h1.4v1.1h-1.4z" class="st10"/><path d="M112.7 14.7h1.4v1.1h-1.4z"/></g><path d="M135.3 38.6h2V41h-2zM135.3 29.9h2v2.3h-2zM143.4 38.6h2V41h-2zM143.4 29.9h2v2.3h-2z" class="st9"/><path d="M136.4 29h8v12.8h-8z" class="st45"/><path d="M140.4 32.8h.2l.3.1.3.1.3.1.2.1.2.2.2.1.2.3.2.2.2.2.1.3v.2l.1.3v.9l-.1.2-.1.3-.1.3-.2.2-.2.2-.2.2-.2.2-.2.1-.3.2h-.2l-.3.1h-.9l-.2-.1h-.3l-.3-.2-.2-.1-.2-.2-.2-.2-.2-.2-.2-.2-.1-.3-.1-.3-.1-.2V35l.1-.3.1-.2.1-.3.1-.2.2-.2.2-.3.2-.1.2-.2.3-.1.2-.1.3-.1.3-.1z" class="st0"/><path d="M141.8 57.9V60c0 .6.5 1 1 1h.5v-4.1h-.5c-.5 0-1 .5-1 1M153.5 60v-2.1c0-.6-.5-1-1-1h-.5V61h.5c.6 0 1-.4 1-1" class="st9"/><path d="M152.4 57.3v3.4c0 .3-.2.5-.5.5h-8.5c-.3 0-.5-.2-.5-.5v-3.4c0-.3.2-.5.5-.5h8.5c.3 0 .5.2.5.5"/><path d="M152.4 57.3v3.4c0 .3-.2.5-.5.5h-8.5c-.3 0-.5-.2-.5-.5v-3.4c0-.3.2-.5.5-.5h8.5c.3 0 .5.2.5.5" class="st10"/><path d="M152.4 57.3v3.4c0 .3-.2.5-.5.5h-8.5c-.3 0-.5-.2-.5-.5v-3.4c0-.3.2-.5.5-.5h8.5c.3 0 .5.2.5.5"/><path d="M151.4 18.9v7.3H150v-7.3M145.8 18.9v7.3h-1.4v-7.3" class="st9"/><g class="st46"><defs><path id="SVGID_65_" d="M154.8 56.9h19.8v1.9h-19.8z"/></defs><clipPath id="SVGID_66_"><use xlink:href="#SVGID_65_" style="overflow:visible"/></clipPath><path d="M154.8 56.9h19.8v1.9h-19.8z" class="st0" style="clip-path:url(#SVGID_66_)"/></g><path d="M142.7 53.3v-6.4c0-.3 0-.6.1-.8.4-1.2 1.5-2 2.7-2h7.3c1.2 0 2.3.8 2.7 2 .1.3.1.5.1.8v6.6c-.1 1.5-1.3 2.6-2.8 2.6h-7.3c-1.5 0-2.7-1.2-2.8-2.6z"/><path d="M142.7 53.3v-6.4c0-.3 0-.6.1-.8.4-1.2 1.5-2 2.7-2h7.3c1.2 0 2.3.8 2.7 2 .1.3.1.5.1.8v6.6c-.1 1.5-1.3 2.6-2.8 2.6h-7.3c-1.5 0-2.7-1.2-2.8-2.6z" style="fill:#f6d686"/><path d="M142.7 53.3v-6.4c0-.3 0-.6.1-.8.4-1.2 1.5-2 2.7-2h7.3c1.2 0 2.3.8 2.7 2 .1.3.1.5.1.8v6.6c-.1 1.5-1.3 2.6-2.8 2.6h-7.3c-1.5 0-2.7-1.2-2.8-2.6z"/><path d="M142.7 53.3v-6.4c0-.3 0-.6.1-.8.4-1.2 1.5-2 2.7-2h7.3c1.2 0 2.3.8 2.7 2 .1.3.1.5.1.8v6.6c-.1 1.5-1.3 2.6-2.8 2.6h-7.3c-1.5 0-2.7-1.2-2.8-2.6z" class="st10"/><path d="M142.7 53.3v-6.4c0-.3 0-.6.1-.8.4-1.2 1.5-2 2.7-2h7.3c1.2 0 2.3.8 2.7 2 .1.3.1.5.1.8v6.6c-.1 1.5-1.3 2.6-2.8 2.6h-7.3c-1.5 0-2.7-1.2-2.8-2.6z"/><path d="M157.1 28.7c-.6 0-1.2-.5-1.2-1.2v4.6-.1c0-.6.5-1.2 1.2-1.2s1.2.5 1.2 1.2v-4.6c0 .8-.6 1.3-1.2 1.3m.2.2v2h-.5v-2z" class="st49"/><path d="M156 32.1s0 .1 0 0l.6.1v-.1c0-.3.3-.6.6-.6s.6.3.6.6v.1h.6v-.1c0-.6-.5-1.2-1.2-1.2s-1.2.6-1.2 1.2M156 27.6s0-.1 0 0l.6-.1v.1c0 .3.3.6.6.6s.6-.3.6-.6v-.1h.6v.1c0 .6-.5 1.2-1.2 1.2s-1.2-.6-1.2-1.2" class="st50"/><path d="M130.1 57.7c0 .6-.5 1.2-1.2 1.2h4.6-.1c-.6 0-1.2-.5-1.2-1.2s.5-1.2 1.2-1.2h-4.6c.7 0 1.3.5 1.3 1.2m.1-.3h2v.5h-2z" class="st49"/><path d="m133.5 58.8.1-.6c-.3 0-.6-.2-.6-.5s.2-.6.5-.6h.2v-.6h-.1c-.6 0-1.2.5-1.2 1.2s.4 1.1 1.1 1.1M128.9 58.8l-.1-.6c.3 0 .6-.2.6-.5s-.2-.6-.5-.6h-.2v-.6h.1c.6 0 1.2.5 1.2 1.2s-.4 1.1-1.1 1.1" class="st50"/><path d="M87.5 18.2H90c.1 0 .1-.1.1-.1v-4.5c0-.1-.1-.1-.1-.1h-2.6c-.1 0-.1.1-.1.1V18c0 .1.1.2.2.2M84.3 18.2h2.6c.1 0 .1-.1.1-.1v-4.5c0-.1-.1-.1-.1-.1h-2.6c-.1 0-.1.1-.1.1V18c0 .1.1.2.1.2M81.2 18.2h2.6c.1 0 .1-.1.1-.1v-4.5c0-.1-.1-.1-.1-.1h-2.6c-.1 0-.1.1-.1.1V18c0 .1 0 .2.1.2M78.1 18.2h2.6c.1 0 .1-.1.1-.1v-4.5c0-.1-.1-.1-.1-.1h-2.6c-.1 0-.1.1-.1.1V18c0 .1 0 .2.1.2M75 18.2h2.6c.1 0 .1-.1.1-.1v-4.5c0-.1-.1-.1-.1-.1H75c-.1 0-.1.1-.1.1V18c-.1.1 0 .2.1.2M71.9 18.2h2.6c.1 0 .1-.1.1-.1v-4.5c0-.1-.1-.1-.1-.1h-2.6c-.1 0-.1.1-.1.1V18c-.1.1 0 .2.1.2M68.7 18.2h2.6c.1 0 .1-.1.1-.1v-4.5c0-.1-.1-.1-.1-.1h-2.6c-.1 0-.1.1-.1.1V18c0 .1.1.2.1.2M65.6 18.2h2.6c.1 0 .1-.1.1-.1v-4.5c0-.1-.1-.1-.1-.1h-2.6c-.1 0-.1.1-.1.1V18c0 .1.1.2.1.2M62.5 18.2h2.6c.1 0 .1-.1.1-.1v-4.5c0-.1-.1-.1-.1-.1h-2.6c-.1 0-.1.1-.1.1V18c0 .1 0 .2.1.2M59.4 18.2H62c.1 0 .1-.1.1-.1v-4.5c0-.1-.1-.1-.1-.1h-2.6c-.1 0-.1.1-.1.1V18c-.1.1 0 .2.1.2M56.3 18.2h2.6c.1 0 .1-.1.1-.1v-4.5c0-.1-.1-.1-.1-.1h-2.6c-.1 0-.1.1-.1.1V18c-.1.1 0 .2.1.2M53.2 18.2h2.6c.1 0 .1-.1.1-.1v-4.5c0-.1-.1-.1-.1-.1h-2.6c-.1 0-.1.1-.1.1V18c-.1.1 0 .2.1.2M50 18.2h2.6c.1 0 .1-.1.1-.1v-4.5c0-.1-.1-.1-.1-.1H50c-.1 0-.1.1-.1.1V18c0 .1.1.2.1.2M46.9 18.2h2.6c.1 0 .1-.1.1-.1v-4.5c0-.1-.1-.1-.1-.1h-2.6c-.1 0-.1.1-.1.1V18c0 .1 0 .2.1.2M43.8 18.2h2.6c.1 0 .1-.1.1-.1v-4.5c0-.1-.1-.1-.1-.1h-2.6c-.1 0-.1.1-.1.1V18c0 .1 0 .2.1.2M40.7 18.2h2.6c.1 0 .1-.1.1-.1v-4.5c0-.1-.1-.1-.1-.1h-2.6c-.1 0-.1.1-.1.1V18c-.1.1 0 .2.1.2M37.6 18.2h2.6c.1 0 .1-.1.1-.1v-4.5c0-.1-.1-.1-.1-.1h-2.6c-.1 0-.1.1-.1.1V18c-.1.1 0 .2.1.2M34.4 18.2H37c.1 0 .1-.1.1-.1v-4.5c0-.1-.1-.1-.1-.1h-2.6c-.1 0-.1.1-.1.1V18c0 .1.1.2.1.2M31.3 18.2h2.6c.1 0 .1-.1.1-.1v-4.5c0-.1-.1-.1-.1-.1h-2.6c-.1 0-.1.1-.1.1V18c0 .1.1.2.1.2M28.2 18.2h2.6c.1 0 .1-.1.1-.1v-4.5c0-.1-.1-.1-.1-.1h-2.6c-.1 0-.1.1-.1.1V18c0 .1 0 .2.1.2M25.1 18.2h2.6c.1 0 .1-.1.1-.1v-4.5c0-.1-.1-.1-.1-.1h-2.6c-.1 0-.1.1-.1.1V18c0 .1 0 .2.1.2" class="st8"/><path d="M21 12.7h73.3V58H21z" class="st9"/><path d="M21.7 13.4h71.8v43.9H21.7z" class="st45"/><defs><path id="SVGID_67_" d="M17.8 32.7h1.4v2.9h-1.4z"/></defs><clipPath id="SVGID_68_"><use xlink:href="#SVGID_67_" style="overflow:visible"/></clipPath><g style="clip-path:url(#SVGID_68_)"><path d="M17.8 33.5V35c0 .4.3.7.7.7s.7-.3.7-.7v-1.5c0-.4-.3-.7-.7-.7-.3-.1-.7.2-.7.7q0-.15 0 0" class="st9"/><path d="M17.8 33.6h1.4v1.1h-1.4z"/><path d="M17.8 33.6h1.4v1.1h-1.4z"/><path d="M17.8 33.6h1.4v1.1h-1.4z"/><path d="M17.8 33.6h1.4v1.1h-1.4z" class="st10"/><path d="M17.8 33.6h1.4v1.1h-1.4z"/></g><defs><path id="SVGID_69_" d="M17.8 38.4h1.4v2.9h-1.4z"/></defs><clipPath id="SVGID_70_"><use xlink:href="#SVGID_69_" style="overflow:visible"/></clipPath><g style="clip-path:url(#SVGID_70_)"><path d="M17.8 39.1v1.5c0 .4.3.7.7.7s.7-.3.7-.7v-1.5c0-.4-.3-.7-.7-.7-.3 0-.7.3-.7.7" class="st9"/><path d="M17.8 39.3h1.4v1.1h-1.4z"/><path d="M17.8 39.3h1.4v1.1h-1.4z"/><path d="M17.8 39.3h1.4v1.1h-1.4z"/><path d="M17.8 39.3h1.4v1.1h-1.4z" class="st10"/><path d="M17.8 39.3h1.4v1.1h-1.4z"/></g><defs><path id="SVGID_71_" d="M17.2 47.2h1.4v2.9h-1.4z"/></defs><clipPath id="SVGID_72_"><use xlink:href="#SVGID_71_" style="overflow:visible"/></clipPath><g style="clip-path:url(#SVGID_72_)"><path d="M17.2 47.9v1.5c0 .4.3.7.7.7s.7-.3.7-.7v-1.5c0-.4-.3-.7-.7-.7s-.7.3-.7.7" class="st9"/><path d="M17.2 48.1h1.4v1.1h-1.4z"/><path d="M17.2 48.1h1.4v1.1h-1.4z"/><path d="M17.2 48.1h1.4v1.1h-1.4z"/><path d="M17.2 48.1h1.4v1.1h-1.4z" class="st10"/><path d="M17.2 48.1h1.4v1.1h-1.4z"/></g><defs><path id="SVGID_73_" d="M14.4 52.6h1.4v2.9h-1.4z"/></defs><clipPath id="SVGID_74_"><use xlink:href="#SVGID_73_" style="overflow:visible"/></clipPath><g style="clip-path:url(#SVGID_74_)"><path d="M14.4 53.3v1.5c0 .4.3.7.7.7s.7-.3.7-.7v-1.5c0-.4-.3-.7-.7-.7s-.7.3-.7.7" class="st9"/><path d="M14.4 53.5h1.4v1.1h-1.4z"/><path d="M14.4 53.5h1.4v1.1h-1.4z"/><path d="M14.4 53.5h1.4v1.1h-1.4z"/><path d="M14.4 53.5h1.4v1.1h-1.4z" class="st10"/><path d="M14.4 53.5h1.4v1.1h-1.4z"/></g><defs><path id="SVGID_75_" d="M12.7 34.5h2.9v1.4h-2.9z"/></defs><clipPath id="SVGID_76_"><use xlink:href="#SVGID_75_" style="overflow:visible"/></clipPath><g style="clip-path:url(#SVGID_76_)"><path d="M14.8 34.5h-1.5c-.4 0-.7.3-.7.7s.3.7.7.7h1.5c.4 0 .7-.3.7-.7.1-.3-.3-.7-.7-.7" class="st9"/><path d="M13.6 34.5h1.1v1.4h-1.1z"/><path d="M13.6 34.5h1.1v1.4h-1.1z"/><path d="M13.6 34.5h1.1v1.4h-1.1z"/><path d="M13.6 34.5h1.1v1.4h-1.1z" class="st10"/><path d="M13.6 34.5h1.1v1.4h-1.1z"/></g><defs><path id="SVGID_77_" d="M8.7 54.9h2.9v1.4H8.7z"/></defs><clipPath id="SVGID_78_"><use xlink:href="#SVGID_77_" style="overflow:visible"/></clipPath><g style="clip-path:url(#SVGID_78_)"><path d="M10.9 54.9H9.4c-.4 0-.7.3-.7.7s.3.7.7.7h1.5c.4 0 .7-.3.7-.7s-.3-.7-.7-.7" class="st9"/><path d="M9.6 54.9h1.1v1.4H9.6z"/><path d="M9.6 54.9h1.1v1.4H9.6z"/><path d="M9.6 54.9h1.1v1.4H9.6z"/><path d="M9.6 54.9h1.1v1.4H9.6z" class="st10"/><path d="M9.6 54.9h1.1v1.4H9.6z"/></g><defs><path id="SVGID_79_" d="M8.7 51.9h2.9v1.4H8.7z"/></defs><clipPath id="SVGID_80_"><use xlink:href="#SVGID_79_" style="overflow:visible"/></clipPath><g style="clip-path:url(#SVGID_80_)"><path d="M10.8 51.9H9.4c-.4 0-.7.3-.7.7s.3.7.7.7h1.5c.4 0 .7-.3.7-.7s-.4-.7-.8-.7" class="st9"/><path d="M9.6 51.9h1.1v1.4H9.6z"/><path d="M9.6 51.9h1.1v1.4H9.6z"/><path d="M9.6 51.9h1.1v1.4H9.6z"/><path d="M9.6 51.9h1.1v1.4H9.6z" class="st10"/><path d="M9.6 51.9h1.1v1.4H9.6z"/></g><path d="M4.8 39.1h11.3v10.8H4.8z" style="fill:#80b9c0"/><path d="M10.5 40c2.5 0 4.5 2 4.5 4.5S13 49 10.5 49 6 47 6 44.5 8 40 10.5 40z" style="fill:none;stroke:#8a7867;stroke-width:.2099;stroke-miterlimit:10"/><path d="M10.5 43.4c.6 0 1.1.5 1.1 1.1s-.5 1.1-1.1 1.1-1.1-.5-1.1-1.1.5-1.1 1.1-1.1" class="st12"/><path d="M13.3 17.8h5.1v4.5h-5.1z" class="st29"/><path d="M13.3 15.5h5.1V18h-5.1zM13.3 22.2h5.1v2.5h-5.1z" class="st30"/><path d="M8 16.7h3.2v2.8H8z" class="st29"/><path d="M8 15.3h3.2v1.6H8zM8 19.4h3.2V21H8z" class="st30"/><g id="Disegno_27"><path d="M136.7 1.8h22.4v17h-22.4z" class="st6"/><g class="st46"><path d="M136.7 16.7h22.4v2.2h-22.4z" class="st0"/></g><g class="st46"><path d="M136.7 12.3h22.4v2.2h-22.4z" class="st0"/></g><g class="st46"><path d="M136.7 7.9h22.4v2.2h-22.4z" class="st0"/></g><g class="st46"><path d="M136.7 3.5h22.4v2.2h-22.4z" class="st0"/></g><path id="LWPOLYLINE" d="M151.5 18.8v7.4h-1.4v-7.4" class="st9"/><path id="LWPOLYLINE-2" d="M145.8 18.8v7.4h-1.4v-7.4" class="st9"/></g><g id="Disegno_28"><path d="M158.6 57h.9v-2zM161.4 57h.9v-2zM164.3 57h.8v-2zM167.1 57h.9v-2zM169.9 57h.9v-2z" class="st9"/><path d="m158.6 57 .9-2h-.9zM161.4 57l.9-2h-.9zM164.3 57l.8-2h-.8zM167.1 57l.9-2h-.9zM169.9 57l.9-2h-.9z" class="st9"/><path d="M154.8 57h19.8v12h-19.8z" class="st6"/><g class="st46"><defs><path id="SVGID_81_" d="M154.8 56.9h19.8v1.9h-19.8z"/></defs><clipPath id="SVGID_82_"><use xlink:href="#SVGID_81_" style="overflow:visible"/></clipPath><path d="M154.8 56.9h19.8v1.9h-19.8z" class="st0" style="clip-path:url(#SVGID_82_)"/></g><g class="st46"><defs><path id="SVGID_83_" d="M154.8 61h19.8v1.9h-19.8z"/></defs><clipPath id="SVGID_84_"><use xlink:href="#SVGID_83_" style="overflow:visible"/></clipPath><path d="M154.8 61h19.8v1.9h-19.8z" class="st0" style="clip-path:url(#SVGID_84_)"/></g><g class="st46"><defs><path id="SVGID_85_" d="M154.8 65h19.8v1.9h-19.8z"/></defs><clipPath id="SVGID_86_"><use xlink:href="#SVGID_85_" style="overflow:visible"/></clipPath><path d="M154.8 65h19.8v1.9h-19.8z" class="st0" style="clip-path:url(#SVGID_86_)"/></g></g><g id="USB"><path d="M181.7 38.4v.9c0 .1-.1.2-.2.2h-3.4c-.1 0-.2-.1-.2-.2v-.9c0-.1.1-.2.2-.2h3.4zM181.7 36.7v.9c0 .1-.1.2-.2.2h-3.4c-.1 0-.2-.1-.2-.2v-.9c0-.1.1-.2.2-.2h3.4c.1 0 .2.1.2.2M181.7 34.9v.9c0 .1-.1.2-.2.2h-3.4c-.1 0-.2-.1-.2-.2v-.9c0-.1.1-.2.2-.2h3.4c.1.1.2.1.2.2M181.7 33.1v.9c0 .1-.1.2-.2.2h-3.4c-.1 0-.2-.1-.2-.2v-.9c0-.1.1-.2.2-.2h3.4zM181.7 31.4v.9c0 .1-.1.2-.2.2h-3.4c-.1 0-.2-.1-.2-.2v-.9c0-.1.1-.2.2-.2h3.4c.1 0 .2.1.2.2" class="st45"/><path d="M179.9 25.6h15.2v19.8h-15.2z" class="st63"/><path d="M181.4 25.6h-1.5v19.9h1.5v-.1zM184.5 25.6h-1.6v19.9h1.6v-.1zM187.5 25.6H186v19.9h1.5v-.1zM190.5 25.6H189v19.9h1.5v-.1zM193.6 25.6H192v19.9h1.6v-.1z" class="st9"/></g><g id="pin"><path d="M118.7 60.8h7.2V68h-7.2z"/><path d="M118.7 60.8h7.2V68h-7.2z" class="st10"/><path d="M118.7 60.8h7.2V68h-7.2zM118.7 68.1v-7.2h-7.2v7.2z"/><path d="M118.7 68.1v-7.2h-7.2v7.2z" class="st10"/><path d="M118.7 68.1v-7.2h-7.2v7.2zM111.5 68.1v-7.2h-7.2v7.2z"/><path d="M111.5 68.1v-7.2h-7.2v7.2z" class="st10"/><path d="M111.5 68.1v-7.2h-7.2v7.2zM104.2 68.1v-7.2H97v7.2z"/><path d="M104.2 68.1v-7.2H97v7.2z" class="st10"/><path d="M104.2 68.1v-7.2H97v7.2zM133.2 68.1v-7.2H126v7.2z"/><path d="M133.2 68.1v-7.2H126v7.2z" class="st10"/><path d="M133.2 68.1v-7.2H126v7.2zM89.8 68.1v-7.2h-7.2v7.2z"/><path d="M89.8 68.1v-7.2h-7.2v7.2z" class="st10"/><path d="M89.8 68.1v-7.2h-7.2v7.2zM97 68.1v-7.2h-7.2v7.2z"/><path d="M97 68.1v-7.2h-7.2v7.2z" class="st10"/><path d="M97 68.1v-7.2h-7.2v7.2zM82.6 68.1v-7.2h-7.2v7.2z"/><path d="M82.6 68.1v-7.2h-7.2v7.2z" class="st10"/><path d="M82.6 68.1v-7.2h-7.2v7.2zM68.1 68.1v-7.2h-7.2v7.2z"/><path d="M68.1 68.1v-7.2h-7.2v7.2z" class="st10"/><path d="M68.1 68.1v-7.2h-7.2v7.2zM75.3 68.1v-7.2h-7.2v7.2z"/><path d="M75.3 68.1v-7.2h-7.2v7.2z" class="st10"/><path d="M75.3 68.1v-7.2h-7.2v7.2zM118.7 60.8h7.2V68h-7.2z"/><path d="M118.7 60.8h7.2V68h-7.2z"/><path d="M118.7 60.8h7.2V68h-7.2z"/><path d="M118.7 60.8h7.2V68h-7.2zM118.7 68.1v-7.2h-7.2v7.2z"/><path d="M118.7 68.1v-7.2h-7.2v7.2z"/><path d="M118.7 68.1v-7.2h-7.2v7.2z"/><path d="M118.7 68.1v-7.2h-7.2v7.2zM111.5 68.1v-7.2h-7.2v7.2z"/><path d="M111.5 68.1v-7.2h-7.2v7.2z"/><path d="M111.5 68.1v-7.2h-7.2v7.2z"/><path d="M111.5 68.1v-7.2h-7.2v7.2zM104.2 68.1v-7.2H97v7.2z"/><path d="M104.2 68.1v-7.2H97v7.2z"/><path d="M104.2 68.1v-7.2H97v7.2z"/><path d="M104.2 68.1v-7.2H97v7.2zM133.2 68.1v-7.2H126v7.2z"/><path d="M133.2 68.1v-7.2H126v7.2z"/><path d="M133.2 68.1v-7.2H126v7.2z"/><path d="M133.2 68.1v-7.2H126v7.2zM89.8 68.1v-7.2h-7.2v7.2z"/><path d="M89.8 68.1v-7.2h-7.2v7.2z"/><path d="M89.8 68.1v-7.2h-7.2v7.2z"/><path d="M89.8 68.1v-7.2h-7.2v7.2zM97 68.1v-7.2h-7.2v7.2z"/><path d="M97 68.1v-7.2h-7.2v7.2z"/><path d="M97 68.1v-7.2h-7.2v7.2z"/><path d="M97 68.1v-7.2h-7.2v7.2zM82.6 68.1v-7.2h-7.2v7.2z"/><path d="M82.6 68.1v-7.2h-7.2v7.2z"/><path d="M82.6 68.1v-7.2h-7.2v7.2z"/><path d="M82.6 68.1v-7.2h-7.2v7.2zM68.1 68.1v-7.2h-7.2v7.2z"/><path d="M68.1 68.1v-7.2h-7.2v7.2z"/><path d="M68.1 68.1v-7.2h-7.2v7.2z"/><path d="M68.1 68.1v-7.2h-7.2v7.2zM75.3 68.1v-7.2h-7.2v7.2z"/><path d="M75.3 68.1v-7.2h-7.2v7.2z"/><path d="M75.3 68.1v-7.2h-7.2v7.2z"/><path d="M75.3 68.1v-7.2h-7.2v7.2z"/><path d="M118.7 60.8h7.2V68h-7.2z" class="st10"/><path d="M118.7 60.8h7.2V68h-7.2z" class="st10"/><path d="M118.7 60.8h7.2V68h-7.2z" class="st10"/><path d="M118.7 60.8h7.2V68h-7.2zM118.7 68.1v-7.2h-7.2v7.2z" class="st10"/><path d="M118.7 68.1v-7.2h-7.2v7.2z" class="st10"/><path d="M118.7 68.1v-7.2h-7.2v7.2z" class="st10"/><path d="M118.7 68.1v-7.2h-7.2v7.2zM111.5 68.1v-7.2h-7.2v7.2z" class="st10"/><path d="M111.5 68.1v-7.2h-7.2v7.2z" class="st10"/><path d="M111.5 68.1v-7.2h-7.2v7.2z" class="st10"/><path d="M111.5 68.1v-7.2h-7.2v7.2zM104.2 68.1v-7.2H97v7.2z" class="st10"/><path d="M104.2 68.1v-7.2H97v7.2z" class="st10"/><path d="M104.2 68.1v-7.2H97v7.2z" class="st10"/><path d="M104.2 68.1v-7.2H97v7.2zM133.2 68.1v-7.2H126v7.2z" class="st10"/><path d="M133.2 68.1v-7.2H126v7.2z" class="st10"/><path d="M133.2 68.1v-7.2H126v7.2z" class="st10"/><path d="M133.2 68.1v-7.2H126v7.2zM89.8 68.1v-7.2h-7.2v7.2z" class="st10"/><path d="M89.8 68.1v-7.2h-7.2v7.2z" class="st10"/><path d="M89.8 68.1v-7.2h-7.2v7.2z" class="st10"/><path d="M89.8 68.1v-7.2h-7.2v7.2zM97 68.1v-7.2h-7.2v7.2z" class="st10"/><path d="M97 68.1v-7.2h-7.2v7.2z" class="st10"/><path d="M97 68.1v-7.2h-7.2v7.2z" class="st10"/><path d="M97 68.1v-7.2h-7.2v7.2zM82.6 68.1v-7.2h-7.2v7.2z" class="st10"/><path d="M82.6 68.1v-7.2h-7.2v7.2z" class="st10"/><path d="M82.6 68.1v-7.2h-7.2v7.2z" class="st10"/><path d="M82.6 68.1v-7.2h-7.2v7.2zM68.1 68.1v-7.2h-7.2v7.2z" class="st10"/><path d="M68.1 68.1v-7.2h-7.2v7.2z" class="st10"/><path d="M68.1 68.1v-7.2h-7.2v7.2z" class="st10"/><path d="M68.1 68.1v-7.2h-7.2v7.2zM75.3 68.1v-7.2h-7.2v7.2z" class="st10"/><path d="M75.3 68.1v-7.2h-7.2v7.2z" class="st10"/><path d="M75.3 68.1v-7.2h-7.2v7.2z" class="st10"/><path d="M75.3 68.1v-7.2h-7.2v7.2z" class="st10"/><path d="M118.7 60.8h7.2V68h-7.2z"/><path d="M118.7 60.8h7.2V68h-7.2z"/><path d="M118.7 60.8h7.2V68h-7.2z"/><path d="M118.7 60.8h7.2V68h-7.2zM118.7 68.1v-7.2h-7.2v7.2z"/><path d="M118.7 68.1v-7.2h-7.2v7.2z"/><path d="M118.7 68.1v-7.2h-7.2v7.2z"/><path d="M118.7 68.1v-7.2h-7.2v7.2zM111.5 68.1v-7.2h-7.2v7.2z"/><path d="M111.5 68.1v-7.2h-7.2v7.2z"/><path d="M111.5 68.1v-7.2h-7.2v7.2z"/><path d="M111.5 68.1v-7.2h-7.2v7.2zM104.2 68.1v-7.2H97v7.2z"/><path d="M104.2 68.1v-7.2H97v7.2z"/><path d="M104.2 68.1v-7.2H97v7.2z"/><path d="M104.2 68.1v-7.2H97v7.2zM133.2 68.1v-7.2H126v7.2z"/><path d="M133.2 68.1v-7.2H126v7.2z"/><path d="M133.2 68.1v-7.2H126v7.2z"/><path d="M133.2 68.1v-7.2H126v7.2zM89.8 68.1v-7.2h-7.2v7.2z"/><path d="M89.8 68.1v-7.2h-7.2v7.2z"/><path d="M89.8 68.1v-7.2h-7.2v7.2z"/><path d="M89.8 68.1v-7.2h-7.2v7.2zM97 68.1v-7.2h-7.2v7.2z"/><path d="M97 68.1v-7.2h-7.2v7.2z"/><path d="M97 68.1v-7.2h-7.2v7.2z"/><path d="M97 68.1v-7.2h-7.2v7.2zM82.6 68.1v-7.2h-7.2v7.2z"/><path d="M82.6 68.1v-7.2h-7.2v7.2z"/><path d="M82.6 68.1v-7.2h-7.2v7.2z"/><path d="M82.6 68.1v-7.2h-7.2v7.2zM68.1 68.1v-7.2h-7.2v7.2z"/><path d="M68.1 68.1v-7.2h-7.2v7.2z"/><path d="M68.1 68.1v-7.2h-7.2v7.2z"/><path d="M68.1 68.1v-7.2h-7.2v7.2zM75.3 68.1v-7.2h-7.2v7.2z"/><path d="M75.3 68.1v-7.2h-7.2v7.2z"/><path d="M75.3 68.1v-7.2h-7.2v7.2z"/><path d="M75.3 68.1v-7.2h-7.2v7.2z"/><path d="M113.3 66.3h3.6v-3.7h-3.6v.1zM120.5 66.3h3.6v-3.7h-3.6v.1zM127.7 66.3h3.7v-3.7h-3.7v.1zM84.4 66.3H88v-3.7h-3.6v.1zM66.3 66.3v-3.7h-3.7v3.7h.1zM80.8 66.3v-3.7h-3.7v3.7zM95.2 66.3v-3.7h-3.6v3.7zM102.4 66.3v-3.7h-3.6v3.7zM109.7 66.3v-3.7H106v3.7zM73.5 66.3v-3.7h-3.6v3.7z" class="st12"/><path d="M46.4 60.8h7.2V68h-7.2z"/><path d="M46.4 60.8h7.2V68h-7.2z" class="st10"/><path d="M46.4 60.8h7.2V68h-7.2zM46.4 68.1v-7.2h-7.2v7.2z"/><path d="M46.4 68.1v-7.2h-7.2v7.2z" class="st10"/><path d="M46.4 68.1v-7.2h-7.2v7.2zM39.1 68.1v-7.2h-7.2v7.2z"/><path d="M39.1 68.1v-7.2h-7.2v7.2z" class="st10"/><path d="M39.1 68.1v-7.2h-7.2v7.2zM60.8 68.1v-7.2h-7.2v7.2z"/><path d="M60.8 68.1v-7.2h-7.2v7.2z" class="st10"/><path d="M60.8 68.1v-7.2h-7.2v7.2z"/><path d="M46.4 60.8h7.2V68h-7.2z"/><path d="M46.4 60.8h7.2V68h-7.2z"/><path d="M46.4 60.8h7.2V68h-7.2z"/><path d="M46.4 60.8h7.2V68h-7.2zM46.4 68.1v-7.2h-7.2v7.2z"/><path d="M46.4 68.1v-7.2h-7.2v7.2z"/><path d="M46.4 68.1v-7.2h-7.2v7.2z"/><path d="M46.4 68.1v-7.2h-7.2v7.2zM39.1 68.1v-7.2h-7.2v7.2z"/><path d="M39.1 68.1v-7.2h-7.2v7.2z"/><path d="M39.1 68.1v-7.2h-7.2v7.2z"/><path d="M39.1 68.1v-7.2h-7.2v7.2zM60.8 68.1v-7.2h-7.2v7.2z"/><path d="M60.8 68.1v-7.2h-7.2v7.2z"/><path d="M60.8 68.1v-7.2h-7.2v7.2z"/><path d="M60.8 68.1v-7.2h-7.2v7.2z"/><path d="M46.4 60.8h7.2V68h-7.2z" class="st10"/><path d="M46.4 60.8h7.2V68h-7.2z" class="st10"/><path d="M46.4 60.8h7.2V68h-7.2z" class="st10"/><path d="M46.4 60.8h7.2V68h-7.2zM46.4 68.1v-7.2h-7.2v7.2z" class="st10"/><path d="M46.4 68.1v-7.2h-7.2v7.2z" class="st10"/><path d="M46.4 68.1v-7.2h-7.2v7.2z" class="st10"/><path d="M46.4 68.1v-7.2h-7.2v7.2zM39.1 68.1v-7.2h-7.2v7.2z" class="st10"/><path d="M39.1 68.1v-7.2h-7.2v7.2z" class="st10"/><path d="M39.1 68.1v-7.2h-7.2v7.2z" class="st10"/><path d="M39.1 68.1v-7.2h-7.2v7.2zM60.8 68.1v-7.2h-7.2v7.2z" class="st10"/><path d="M60.8 68.1v-7.2h-7.2v7.2z" class="st10"/><path d="M60.8 68.1v-7.2h-7.2v7.2z" class="st10"/><path d="M60.8 68.1v-7.2h-7.2v7.2z" class="st10"/><path d="M46.4 60.8h7.2V68h-7.2z"/><path d="M46.4 60.8h7.2V68h-7.2z"/><path d="M46.4 60.8h7.2V68h-7.2z"/><path d="M46.4 60.8h7.2V68h-7.2zM46.4 68.1v-7.2h-7.2v7.2z"/><path d="M46.4 68.1v-7.2h-7.2v7.2z"/><path d="M46.4 68.1v-7.2h-7.2v7.2z"/><path d="M46.4 68.1v-7.2h-7.2v7.2zM39.1 68.1v-7.2h-7.2v7.2z"/><path d="M39.1 68.1v-7.2h-7.2v7.2z"/><path d="M39.1 68.1v-7.2h-7.2v7.2z"/><path d="M39.1 68.1v-7.2h-7.2v7.2zM60.8 68.1v-7.2h-7.2v7.2z"/><path d="M60.8 68.1v-7.2h-7.2v7.2z"/><path d="M60.8 68.1v-7.2h-7.2v7.2z"/><path d="M60.8 68.1v-7.2h-7.2v7.2z"/><path d="M40.9 66.3h3.7v-3.7h-3.7v.1zM48.2 66.3h3.6v-3.7h-3.6v.1zM55.4 66.3H59v-3.7h-3.6v.1zM37.3 66.3v-3.7h-3.6v3.7z" class="st12"/></g><g id="Disegno_3"><path d="M165.3 31c.5 0 1-.4 1-1h-2c0 .6.4 1 1 1M163.3 31c.5 0 1-.4 1-1h-2c0 .6.4 1 1 1M161.3 31c.5 0 1-.4 1-1h-2c0 .6.5 1 1 1M161.3 23.1c-.5 0-1 .4-1 1h2c0-.5-.4-1-1-1M163.3 23.1c-.5 0-1 .4-1 1h2c0-.5-.5-1-1-1M165.3 23.1c-.5 0-1 .4-1 1h2c0-.5-.5-1-1-1" class="st9"/></g><g id="Disegno_34"><path d="M123.4 12.5h2.4v.9h-2.4zM127.5 12.5h2.4v.9h-2.4zM125.3 21.5h6.8v.9h-6.8z" class="st9"/><path d="M125.3 22.4h6.8v.9h-6.8z" style="fill:#adb0b1"/><path d="M125.3 23.3h6.8v.9h-6.8zM131.6 12.5h2.4v.9h-2.4z" class="st9"/><path d="M123.4 11.6h2.4v.9h-2.4zM127.5 11.6h2.4v.9h-2.4zM131.6 11.6h2.4v.9h-2.4z" class="st65"/><path d="M123.4 10.7h2.4v.9h-2.4zM127.5 10.7h2.4v.9h-2.4zM131.6 10.7h2.4v.9h-2.4z" class="st9"/><path d="M121.9 13.4h13.8v8.1h-13.8z"/><path d="M121.9 13.4h13.8v8.1h-13.8z" class="st10"/><path d="M121.9 13.4h13.8v8.1h-13.8z"/></g><g id="Disegno_23"><path d="M101.1 14h4.2v9.3h-4.2z" class="st12"/><path d="M101.1 22.8h4.2v.4h-4.2zM101.1 14h4.2v.4h-4.2z" class="st63"/></g><g id="LED"><path d="M137.2 62.5h2.3v5.7h-2.3z" class="st9"/><path d="M138.3 63.6c1 0 1.8.8 1.8 1.8s-.8 1.8-1.8 1.8-1.8-.8-1.8-1.8c.1-1 .9-1.8 1.8-1.8" style="fill:#eaa800"/></g><g id="LED-2"><path d="M182.6 52.4h5.7v2.3h-5.7z" class="st9"/><path d="M183.7 53.6c0-1 .8-1.8 1.8-1.8s1.8.8 1.8 1.8-.8 1.8-1.8 1.8c-1-.1-1.8-.8-1.8-1.8" style="fill:#1a9f85"/></g><g id="LED-3"><path d="M182.6 16h5.7v2.3h-5.7z" class="st9"/><path d="M183.7 17.2c0-1 .8-1.8 1.8-1.8s1.8.8 1.8 1.8-.8 1.8-1.8 1.8c-1-.1-1.8-.9-1.8-1.8" class="st10"/></g><g id="Disegno_4"><path d="M97.1 25.5h2.8v2.8h-2.8zM97.1 30.7h2.8v2.8h-2.8z" class="st9"/><path d="M97.1 28.3h2.8v2.4h-2.8z"/><path d="M97.1 28.3h2.8v2.4h-2.8z" class="st10"/><path d="M97.1 28.3h2.8v2.4h-2.8z"/><path d="M99.9 27.4 98.5 26l-1.4 1.4v.9h2.8zM97.1 31.6l1.4 1.4 1.4-1.4v-.9h-2.8z" class="st12"/></g><g id="Disegno_4-2"><path d="M158.1 39.1h2.8v2.8h-2.8zM163.3 39.1h2.8v2.8h-2.8z" class="st9"/><path d="M161 39.1h2.4v2.8H161z"/><path d="M161 39.1h2.4v2.8H161z" class="st10"/><path d="M161 39.1h2.4v2.8H161z"/><path d="m160.1 39.1-1.4 1.4 1.4 1.5h.9v-2.9zM164.2 42l1.5-1.5-1.5-1.4h-.9V42z" class="st12"/></g><g id="Disegno_4-3"><path d="M160.3 44h2.8v2.8h-2.8zM165.5 44h2.8v2.8h-2.8z" class="st9"/><path d="M163.1 44h2.4v2.8h-2.4z"/><path d="M163.1 44h2.4v2.8h-2.4z" class="st10"/><path d="M163.1 44h2.4v2.8h-2.4z"/><path d="m162.2 44-1.4 1.4 1.4 1.5h.9V44zM166.4 46.9l1.4-1.5-1.4-1.4h-.9v2.9z" class="st12"/></g><g id="Disegno_7"><path d="M141.3 64.7h4.5v2.6h-4.5z" class="st12"/><path d="M141.3 63.1h1.6v1.6h-1.6zM142.8 67.3h1.6v1.6h-1.6zM144.2 63.1h1.6v1.6h-1.6z" class="st45"/><path d="M141.7 64.3h.8v.8h-.8zM144.7 64.3h.8v.8h-.8zM143.2 66.9h.8v.8h-.8z" class="st9"/></g><g id="Disegno_11"><path d="M107.9 45.1V25.7h19.3v19.4z" class="st10"/><path d="M107.9 45.1V25.7h19.3v19.4z"/><path d="M107.9 45.1V25.7h19.3v19.4z"/><path d="M123.7 24.4h1.3V27h-1.3zM121.8 24.4h1.3V27h-1.3zM119.8 24.4h1.3V27h-1.3zM117.9 24.4h1.3V27h-1.3zM116 24.4h1.3V27H116zM114 24.4h1.3V27H114zM112.1 24.4h1.3V27h-1.3zM110.1 24.4h1.3V27h-1.3zM106.6 41.5h2.6v1.3h-2.6zM106.6 39.6h2.6v1.3h-2.6zM106.6 37.6h2.6v1.3h-2.6zM106.6 35.7h2.6V37h-2.6zM106.6 33.8h2.6v1.3h-2.6zM106.6 31.8h2.6v1.3h-2.6zM106.6 29.9h2.6v1.3h-2.6zM106.6 28h2.6v1.3h-2.6zM125.9 41.5h2.6v1.3h-2.6zM125.9 39.6h2.6v1.3h-2.6zM125.9 37.6h2.6v1.3h-2.6zM125.9 35.7h2.6V37h-2.6zM125.9 33.8h2.6v1.3h-2.6zM125.9 31.8h2.6v1.3h-2.6zM125.9 29.9h2.6v1.3h-2.6zM125.9 28h2.6v1.3h-2.6zM123.7 43.7h1.3v2.6h-1.3zM121.8 43.7h1.3v2.6h-1.3zM119.8 43.7h1.3v2.6h-1.3zM117.9 43.7h1.3v2.6h-1.3zM116 43.7h1.3v2.6H116zM114 43.7h1.3v2.6H114zM112.1 43.7h1.3v2.6h-1.3zM110.1 43.7h1.3v2.6h-1.3z" class="st9"/></g><g id="Disegno_12"><path d="M164.2 18.2V8.1h10.2v10.1z"/><path d="M164.2 18.2V8.1h10.2v10.1z" class="st10"/><path d="M164.2 18.2V8.1h10.2v10.1z"/><path d="M173.4 9.1h1.9v.9h-1.9zM173.4 10.5h1.9v.9h-1.9zM173.4 12h1.9v.9h-1.9zM173.4 13.4h1.9v.9h-1.9zM173.4 14.8h1.9v.9h-1.9zM173.4 16.2h1.9v.9h-1.9zM163.3 9.1h1.9v.9h-1.9zM163.3 10.5h1.9v.9h-1.9zM163.3 12h1.9v.9h-1.9zM163.3 13.4h1.9v.9h-1.9zM163.3 14.8h1.9v.9h-1.9zM163.3 16.2h1.9v.9h-1.9zM172.4 17.3h.9v1.9h-.9zM171 17.3h.9v1.9h-.9zM169.6 17.3h.9v1.9h-.9zM168.1 17.3h.9v1.9h-.9zM166.7 17.3h.9v1.9h-.9zM165.3 17.3h.9v1.9h-.9zM172.4 7.1h.9V9h-.9zM171 7.1h.9V9h-.9zM169.6 7.1h.9V9h-.9zM168.1 7.1h.9V9h-.9zM166.7 7.1h.9V9h-.9zM165.3 7.1h.9V9h-.9z" class="st9"/></g><g id="pin-2"><path d="M118.7 3h7.2v7.2h-7.2z"/><path d="M118.7 3h7.2v7.2h-7.2z" class="st10"/><path d="M118.7 3h7.2v7.2h-7.2zM118.7 10.3V3h-7.2v7.2z"/><path d="M118.7 10.3V3h-7.2v7.2z" class="st10"/><path d="M118.7 10.3V3h-7.2v7.2zM111.5 10.3V3h-7.2v7.2z"/><path d="M111.5 10.3V3h-7.2v7.2z" class="st10"/><path d="M111.5 10.3V3h-7.2v7.2zM104.2 10.3V3H97v7.2z"/><path d="M104.2 10.3V3H97v7.2z" class="st10"/><path d="M104.2 10.3V3H97v7.2zM133.2 10.3V3H126v7.2z"/><path d="M133.2 10.3V3H126v7.2z" class="st10"/><path d="M133.2 10.3V3H126v7.2zM89.8 10.3V3h-7.2v7.2z"/><path d="M89.8 10.3V3h-7.2v7.2z" class="st10"/><path d="M89.8 10.3V3h-7.2v7.2zM97 10.3V3h-7.2v7.2z"/><path d="M97 10.3V3h-7.2v7.2z" class="st10"/><path d="M97 10.3V3h-7.2v7.2zM82.6 10.3V3h-7.2v7.2z"/><path d="M82.6 10.3V3h-7.2v7.2z" class="st10"/><path d="M82.6 10.3V3h-7.2v7.2zM68.1 10.3V3h-7.2v7.2z"/><path d="M68.1 10.3V3h-7.2v7.2z" class="st10"/><path d="M68.1 10.3V3h-7.2v7.2zM75.3 10.3V3h-7.2v7.2z"/><path d="M75.3 10.3V3h-7.2v7.2z" class="st10"/><path d="M75.3 10.3V3h-7.2v7.2zM118.7 3h7.2v7.2h-7.2z"/><path d="M118.7 3h7.2v7.2h-7.2z"/><path d="M118.7 3h7.2v7.2h-7.2z"/><path d="M118.7 3h7.2v7.2h-7.2zM118.7 10.3V3h-7.2v7.2z"/><path d="M118.7 10.3V3h-7.2v7.2z"/><path d="M118.7 10.3V3h-7.2v7.2z"/><path d="M118.7 10.3V3h-7.2v7.2zM111.5 10.3V3h-7.2v7.2z"/><path d="M111.5 10.3V3h-7.2v7.2z"/><path d="M111.5 10.3V3h-7.2v7.2z"/><path d="M111.5 10.3V3h-7.2v7.2zM104.2 10.3V3H97v7.2z"/><path d="M104.2 10.3V3H97v7.2z"/><path d="M104.2 10.3V3H97v7.2z"/><path d="M104.2 10.3V3H97v7.2zM133.2 10.3V3H126v7.2z"/><path d="M133.2 10.3V3H126v7.2z"/><path d="M133.2 10.3V3H126v7.2z"/><path d="M133.2 10.3V3H126v7.2zM89.8 10.3V3h-7.2v7.2z"/><path d="M89.8 10.3V3h-7.2v7.2z"/><path d="M89.8 10.3V3h-7.2v7.2z"/><path d="M89.8 10.3V3h-7.2v7.2zM97 10.3V3h-7.2v7.2z"/><path d="M97 10.3V3h-7.2v7.2z"/><path d="M97 10.3V3h-7.2v7.2z"/><path d="M97 10.3V3h-7.2v7.2zM82.6 10.3V3h-7.2v7.2z"/><path d="M82.6 10.3V3h-7.2v7.2z"/><path d="M82.6 10.3V3h-7.2v7.2z"/><path d="M82.6 10.3V3h-7.2v7.2zM68.1 10.3V3h-7.2v7.2z"/><path d="M68.1 10.3V3h-7.2v7.2z"/><path d="M68.1 10.3V3h-7.2v7.2z"/><path d="M68.1 10.3V3h-7.2v7.2zM75.3 10.3V3h-7.2v7.2z"/><path d="M75.3 10.3V3h-7.2v7.2z"/><path d="M75.3 10.3V3h-7.2v7.2z"/><path d="M75.3 10.3V3h-7.2v7.2z"/><path d="M118.7 3h7.2v7.2h-7.2z" class="st10"/><path d="M118.7 3h7.2v7.2h-7.2z" class="st10"/><path d="M118.7 3h7.2v7.2h-7.2z" class="st10"/><path d="M118.7 3h7.2v7.2h-7.2zM118.7 10.3V3h-7.2v7.2z" class="st10"/><path d="M118.7 10.3V3h-7.2v7.2z" class="st10"/><path d="M118.7 10.3V3h-7.2v7.2z" class="st10"/><path d="M118.7 10.3V3h-7.2v7.2zM111.5 10.3V3h-7.2v7.2z" class="st10"/><path d="M111.5 10.3V3h-7.2v7.2z" class="st10"/><path d="M111.5 10.3V3h-7.2v7.2z" class="st10"/><path d="M111.5 10.3V3h-7.2v7.2zM104.2 10.3V3H97v7.2z" class="st10"/><path d="M104.2 10.3V3H97v7.2z" class="st10"/><path d="M104.2 10.3V3H97v7.2z" class="st10"/><path d="M104.2 10.3V3H97v7.2zM133.2 10.3V3H126v7.2z" class="st10"/><path d="M133.2 10.3V3H126v7.2z" class="st10"/><path d="M133.2 10.3V3H126v7.2z" class="st10"/><path d="M133.2 10.3V3H126v7.2zM89.8 10.3V3h-7.2v7.2z" class="st10"/><path d="M89.8 10.3V3h-7.2v7.2z" class="st10"/><path d="M89.8 10.3V3h-7.2v7.2z" class="st10"/><path d="M89.8 10.3V3h-7.2v7.2zM97 10.3V3h-7.2v7.2z" class="st10"/><path d="M97 10.3V3h-7.2v7.2z" class="st10"/><path d="M97 10.3V3h-7.2v7.2z" class="st10"/><path d="M97 10.3V3h-7.2v7.2zM82.6 10.3V3h-7.2v7.2z" class="st10"/><path d="M82.6 10.3V3h-7.2v7.2z" class="st10"/><path d="M82.6 10.3V3h-7.2v7.2z" class="st10"/><path d="M82.6 10.3V3h-7.2v7.2zM68.1 10.3V3h-7.2v7.2z" class="st10"/><path d="M68.1 10.3V3h-7.2v7.2z" class="st10"/><path d="M68.1 10.3V3h-7.2v7.2z" class="st10"/><path d="M68.1 10.3V3h-7.2v7.2zM75.3 10.3V3h-7.2v7.2z" class="st10"/><path d="M75.3 10.3V3h-7.2v7.2z" class="st10"/><path d="M75.3 10.3V3h-7.2v7.2z" class="st10"/><path d="M75.3 10.3V3h-7.2v7.2z" class="st10"/><path d="M118.7 3h7.2v7.2h-7.2z"/><path d="M118.7 3h7.2v7.2h-7.2z"/><path d="M118.7 3h7.2v7.2h-7.2z"/><path d="M118.7 3h7.2v7.2h-7.2zM118.7 10.3V3h-7.2v7.2z"/><path d="M118.7 10.3V3h-7.2v7.2z"/><path d="M118.7 10.3V3h-7.2v7.2z"/><path d="M118.7 10.3V3h-7.2v7.2zM111.5 10.3V3h-7.2v7.2z"/><path d="M111.5 10.3V3h-7.2v7.2z"/><path d="M111.5 10.3V3h-7.2v7.2z"/><path d="M111.5 10.3V3h-7.2v7.2zM104.2 10.3V3H97v7.2z"/><path d="M104.2 10.3V3H97v7.2z"/><path d="M104.2 10.3V3H97v7.2z"/><path d="M104.2 10.3V3H97v7.2zM133.2 10.3V3H126v7.2z"/><path d="M133.2 10.3V3H126v7.2z"/><path d="M133.2 10.3V3H126v7.2z"/><path d="M133.2 10.3V3H126v7.2zM89.8 10.3V3h-7.2v7.2z"/><path d="M89.8 10.3V3h-7.2v7.2z"/><path d="M89.8 10.3V3h-7.2v7.2z"/><path d="M89.8 10.3V3h-7.2v7.2zM97 10.3V3h-7.2v7.2z"/><path d="M97 10.3V3h-7.2v7.2z"/><path d="M97 10.3V3h-7.2v7.2z"/><path d="M97 10.3V3h-7.2v7.2zM82.6 10.3V3h-7.2v7.2z"/><path d="M82.6 10.3V3h-7.2v7.2z"/><path d="M82.6 10.3V3h-7.2v7.2z"/><path d="M82.6 10.3V3h-7.2v7.2zM68.1 10.3V3h-7.2v7.2z"/><path d="M68.1 10.3V3h-7.2v7.2z"/><path d="M68.1 10.3V3h-7.2v7.2z"/><path d="M68.1 10.3V3h-7.2v7.2zM75.3 10.3V3h-7.2v7.2z"/><path d="M75.3 10.3V3h-7.2v7.2z"/><path d="M75.3 10.3V3h-7.2v7.2z"/><path d="M75.3 10.3V3h-7.2v7.2z"/><path d="M113.3 8.5h3.6V4.9h-3.6zM120.5 8.5h3.6V4.9h-3.6zM127.7 8.5h3.7V4.9h-3.7zM84.4 8.5H88V4.9h-3.6zM66.3 8.5V4.9h-3.7v3.6h.1zM80.8 8.5V4.9h-3.7v3.6zM95.2 8.5V4.9h-3.6v3.6zM102.4 8.5V4.9h-3.6v3.6zM109.7 8.5V4.9H106v3.6zM73.5 8.5V4.9h-3.6v3.6z" class="st12"/><path d="M46.4 3h7.2v7.2h-7.2z"/><path d="M46.4 3h7.2v7.2h-7.2z" class="st10"/><path d="M46.4 3h7.2v7.2h-7.2zM46.4 10.3V3h-7.2v7.2z"/><path d="M46.4 10.3V3h-7.2v7.2z" class="st10"/><path d="M46.4 10.3V3h-7.2v7.2zM39.1 10.3V3h-7.2v7.2z"/><path d="M39.1 10.3V3h-7.2v7.2z" class="st10"/><path d="M39.1 10.3V3h-7.2v7.2zM60.8 10.3V3h-7.2v7.2z"/><path d="M60.8 10.3V3h-7.2v7.2z" class="st10"/><path d="M60.8 10.3V3h-7.2v7.2z"/><path d="M46.4 3h7.2v7.2h-7.2z"/><path d="M46.4 3h7.2v7.2h-7.2z"/><path d="M46.4 3h7.2v7.2h-7.2z"/><path d="M46.4 3h7.2v7.2h-7.2zM46.4 10.3V3h-7.2v7.2z"/><path d="M46.4 10.3V3h-7.2v7.2z"/><path d="M46.4 10.3V3h-7.2v7.2z"/><path d="M46.4 10.3V3h-7.2v7.2zM39.1 10.3V3h-7.2v7.2z"/><path d="M39.1 10.3V3h-7.2v7.2z"/><path d="M39.1 10.3V3h-7.2v7.2z"/><path d="M39.1 10.3V3h-7.2v7.2zM60.8 10.3V3h-7.2v7.2z"/><path d="M60.8 10.3V3h-7.2v7.2z"/><path d="M60.8 10.3V3h-7.2v7.2z"/><path d="M60.8 10.3V3h-7.2v7.2z"/><path d="M46.4 3h7.2v7.2h-7.2z" class="st10"/><path d="M46.4 3h7.2v7.2h-7.2z" class="st10"/><path d="M46.4 3h7.2v7.2h-7.2z" class="st10"/><path d="M46.4 3h7.2v7.2h-7.2zM46.4 10.3V3h-7.2v7.2z" class="st10"/><path d="M46.4 10.3V3h-7.2v7.2z" class="st10"/><path d="M46.4 10.3V3h-7.2v7.2z" class="st10"/><path d="M46.4 10.3V3h-7.2v7.2zM39.1 10.3V3h-7.2v7.2z" class="st10"/><path d="M39.1 10.3V3h-7.2v7.2z" class="st10"/><path d="M39.1 10.3V3h-7.2v7.2z" class="st10"/><path d="M39.1 10.3V3h-7.2v7.2zM60.8 10.3V3h-7.2v7.2z" class="st10"/><path d="M60.8 10.3V3h-7.2v7.2z" class="st10"/><path d="M60.8 10.3V3h-7.2v7.2z" class="st10"/><path d="M60.8 10.3V3h-7.2v7.2z" class="st10"/><path d="M46.4 3h7.2v7.2h-7.2z"/><path d="M46.4 3h7.2v7.2h-7.2z"/><path d="M46.4 3h7.2v7.2h-7.2z"/><path d="M46.4 3h7.2v7.2h-7.2zM46.4 10.3V3h-7.2v7.2z"/><path d="M46.4 10.3V3h-7.2v7.2z"/><path d="M46.4 10.3V3h-7.2v7.2z"/><path d="M46.4 10.3V3h-7.2v7.2zM39.1 10.3V3h-7.2v7.2z"/><path d="M39.1 10.3V3h-7.2v7.2z"/><path d="M39.1 10.3V3h-7.2v7.2z"/><path d="M39.1 10.3V3h-7.2v7.2zM60.8 10.3V3h-7.2v7.2z"/><path d="M60.8 10.3V3h-7.2v7.2z"/><path d="M60.8 10.3V3h-7.2v7.2z"/><path d="M60.8 10.3V3h-7.2v7.2z"/><path d="M40.9 8.5h3.7V4.9h-3.7zM48.2 8.5h3.6V4.9h-3.6zM55.4 8.5H59V4.9h-3.6zM37.3 8.5V4.9h-3.6v3.6z" class="st12"/></g><path d="M160.3 24.1h6v6h-6z"/></svg>