<svg xmlns="http://www.w3.org/2000/svg" width="836" height="761" fill="none" viewBox="0 0 836 761"><path fill="#fff" d="M0 0h836v761H0z"/><path fill="#000" d="M465.97 64.53a.75.75 0 0 1 0-1.06l4.773-4.773a.75.75 0 1 1 1.06 1.06L467.561 64l4.242 4.243a.75.75 0 0 1-1.06 1.06zm131.56 114.94a.75.75 0 0 1 0 1.06l-4.773 4.773a.749.749 0 1 1-1.06-1.06l4.242-4.243-4.242-4.243a.749.749 0 1 1 1.06-1.06zM466.5 63.25h67.397v1.5H466.5zM539.647 69v106h-1.5V69zm4.25 110.25H597v1.5h-53.103zm-4.25-4.25a4.25 4.25 0 0 0 4.25 4.25v1.5a5.75 5.75 0 0 1-5.75-5.75zm-5.75-111.75a5.75 5.75 0 0 1 5.75 5.75h-1.5a4.25 4.25 0 0 0-4.25-4.25z"/><path fill="#000" d="M464.97 64.53a.75.75 0 0 1 0-1.06l4.773-4.773a.75.75 0 1 1 1.06 1.06L466.561 64l4.242 4.243a.75.75 0 0 1-1.06 1.06zm132.56 228.94a.75.75 0 0 1 0 1.06l-4.773 4.773a.749.749 0 1 1-1.06-1.06l4.242-4.243-4.242-4.243a.749.749 0 1 1 1.06-1.06zM465.5 63.25h68.397v1.5H465.5zM539.647 69v220h-1.5V69zm4.25 224.25H597v1.5h-53.103zm-4.25-4.25a4.25 4.25 0 0 0 4.25 4.25v1.5a5.75 5.75 0 0 1-5.75-5.75zm-5.75-225.75a5.75 5.75 0 0 1 5.75 5.75h-1.5a4.25 4.25 0 0 0-4.25-4.25z"/><path fill="#000" d="M465.47 64.53a.75.75 0 0 1 0-1.06l4.773-4.773a.75.75 0 1 1 1.06 1.06L467.061 64l4.242 4.243a.75.75 0 0 1-1.06 1.06zm132.06 342.94a.75.75 0 0 1 0 1.06l-4.773 4.773a.749.749 0 1 1-1.06-1.06l4.242-4.243-4.242-4.243a.749.749 0 1 1 1.06-1.06zM466 63.25h68.118v1.5H466zM539.868 69v334h-1.5V69zm4.25 338.25H597v1.5h-52.882zm-4.25-4.25a4.25 4.25 0 0 0 4.25 4.25v1.5a5.75 5.75 0 0 1-5.75-5.75zm-5.75-339.75a5.75 5.75 0 0 1 5.75 5.75h-1.5a4.25 4.25 0 0 0-4.25-4.25z"/><path fill="#000" d="M465.47 64.53a.75.75 0 0 1 0-1.06l4.773-4.773a.75.75 0 1 1 1.06 1.06L467.061 64l4.242 4.243a.75.75 0 0 1-1.06 1.06zm132.06 458.94a.75.75 0 0 1 0 1.06l-4.773 4.773a.749.749 0 1 1-1.06-1.06l4.242-4.243-4.242-4.243a.749.749 0 1 1 1.06-1.06zM466 63.25h68.118v1.5H466zM539.868 69v450h-1.5V69zm4.25 454.25H597v1.5h-52.882zm-4.25-4.25a4.25 4.25 0 0 0 4.25 4.25v1.5a5.75 5.75 0 0 1-5.75-5.75zm-5.75-455.75a5.75 5.75 0 0 1 5.75 5.75h-1.5a4.25 4.25 0 0 0-4.25-4.25zM231.53 64.53a.75.75 0 0 0 0-1.06l-4.773-4.773a.75.75 0 1 0-1.06 1.06L229.939 64l-4.242 4.243a.75.75 0 0 0 1.06 1.06zm-118.06-1.06a.75.75 0 0 0 0 1.06l4.773 4.773a.75.75 0 1 0 1.06-1.06L115.061 64l4.242-4.243a.75.75 0 0 0-1.06-1.06zM231 63.25H114v1.5h117zM417.53 64.53a.75.75 0 0 0 0-1.06l-4.773-4.773a.75.75 0 1 0-1.06 1.06L415.939 64l-4.242 4.243a.75.75 0 0 0 1.06 1.06zm-141.06-1.06a.75.75 0 0 0 0 1.06l4.773 4.773a.75.75 0 1 0 1.06-1.06L278.061 64l4.242-4.243a.75.75 0 0 0-1.06-1.06zM417 63.25H277v1.5h140z"/><path fill="#000" d="M597.53 64.53a.75.75 0 0 0 0-1.06l-4.773-4.773a.75.75 0 1 0-1.06 1.06L595.939 64l-4.242 4.243a.75.75 0 0 0 1.06 1.06zm-136.06-1.06a.75.75 0 0 0 0 1.06l4.773 4.773a.75.75 0 1 0 1.06-1.06L463.061 64l4.242-4.243a.75.75 0 0 0-1.06-1.06zM597 63.25H462v1.5h135zM48.81 636.646v-8.599h-1.648V638h6.398v-1.354zm11.79 1.491q1.08 0 1.839-.424.766-.424 1.135-.957l-.875-.848a2.3 2.3 0 0 1-.869.677q-.526.232-1.134.232-.445 0-.82-.15-.37-.15-.643-.424a2 2 0 0 1-.43-.588 3 3 0 0 1-.233-.813v-.034h5.127v-.704q0-.794-.212-1.463a3.3 3.3 0 0 0-.63-1.156 2.85 2.85 0 0 0-1.031-.745q-.615-.273-1.416-.273a3.4 3.4 0 0 0-2.46 1.039q-.48.5-.752 1.203a4.3 4.3 0 0 0-.274 1.572v.281q0 .758.26 1.415.266.649.752 1.127.485.486 1.162.759a4 4 0 0 0 1.504.274m-.198-6.344q.41 0 .718.144.314.136.519.369.211.239.328.56.117.315.116.636v.109h-3.48a3 3 0 0 1 .233-.758q.157-.336.39-.575.232-.232.526-.355.3-.13.65-.13m6.622 2.454v.144q0 .8.205 1.49.212.684.595 1.182.39.507.936.793.547.28 1.23.281.377 0 .698-.082a2.2 2.2 0 0 0 .916-.451q.158-.13.3-.281v.513q0 .417-.122.745-.117.328-.335.554-.24.232-.581.355-.334.123-.773.123-.252 0-.499-.054a2.2 2.2 0 0 1-.485-.158 2.546 2.546 0 0 1-.895-.697l-.773.991q.246.328.588.561.342.232.718.376a4.2 4.2 0 0 0 1.442.28q.745 0 1.36-.212a3 3 0 0 0 1.067-.601q.437-.403.677-.985a3.3 3.3 0 0 0 .246-1.319v-7.191h-1.484l-.068.745a2.6 2.6 0 0 0-.294-.301 2.143 2.143 0 0 0-.943-.492 2.9 2.9 0 0 0-.746-.089q-.69 0-1.244.28-.546.273-.936.773-.39.498-.595 1.196-.205.69-.205 1.531m1.64.144v-.144q0-.5.103-.936.103-.445.322-.78.21-.335.54-.526a1.53 1.53 0 0 1 .786-.192q.26 0 .478.062.219.055.397.15.198.116.348.281.158.163.267.369v3.24a2 2 0 0 1-.253.362q-.144.164-.328.281-.184.11-.417.171-.226.061-.506.061-.45 0-.78-.185a1.57 1.57 0 0 1-.54-.526 2.2 2.2 0 0 1-.32-.759 4.3 4.3 0 0 1-.096-.929m12.112 3.746q1.08 0 1.84-.424.765-.424 1.134-.957l-.875-.848a2.3 2.3 0 0 1-.868.677q-.527.232-1.135.232-.445 0-.82-.15-.369-.15-.643-.424a2 2 0 0 1-.43-.588 3 3 0 0 1-.233-.813v-.034h5.127v-.704q0-.794-.212-1.463a3.3 3.3 0 0 0-.629-1.156A2.85 2.85 0 0 0 82 630.74q-.615-.273-1.415-.273a3.4 3.4 0 0 0-2.461 1.039q-.479.5-.752 1.203a4.3 4.3 0 0 0-.273 1.572v.281q0 .758.26 1.415.266.649.751 1.127.486.486 1.162.759a4 4 0 0 0 1.504.274m-.198-6.344q.41 0 .718.144.315.136.52.369.21.239.328.56.116.315.116.636v.109h-3.48a3 3 0 0 1 .233-.758q.157-.336.39-.575.231-.232.526-.355.3-.13.65-.13M87.412 638h1.634v-5.277q.11-.184.253-.342a1.67 1.67 0 0 1 .78-.485q.26-.083.56-.083.363 0 .642.083.28.075.479.259.199.185.3.492.104.309.103.766V638h1.634v-4.614q0-.78-.184-1.326a2.4 2.4 0 0 0-.52-.91 2 2 0 0 0-.807-.519 3.1 3.1 0 0 0-1.039-.164 2.7 2.7 0 0 0-1.538.471 3 3 0 0 0-.718.718l-.102-1.052h-1.477zm9.87-3.753v.144q0 .8.205 1.49.205.684.581 1.182.376.507.916.793a2.6 2.6 0 0 0 1.217.281q.642 0 1.135-.233.492-.239.847-.676l.075.772h1.484v-10.5h-1.634v3.794a2.5 2.5 0 0 0-.82-.608 2.5 2.5 0 0 0-1.074-.219q-.682 0-1.23.28a2.6 2.6 0 0 0-.916.773 3.6 3.6 0 0 0-.588 1.196q-.198.69-.198 1.531m1.634.144v-.144q0-.5.095-.936.096-.445.308-.78.198-.335.52-.526a1.53 1.53 0 0 1 .786-.192q.546 0 .902.247.362.239.581.649v3.179q-.22.417-.581.663-.363.239-.916.239-.451 0-.773-.185a1.5 1.5 0 0 1-.526-.526 2.3 2.3 0 0 1-.3-.759 4.3 4.3 0 0 1-.096-.929m10.908 2.625q0 .471.308.799.314.322.875.322.553 0 .868-.322.321-.32.321-.799 0-.478-.314-.807-.315-.335-.875-.335-.575 0-.882.335a1.16 1.16 0 0 0-.301.807m0-5.79q0 .471.308.799.314.322.875.322.553 0 .868-.322.321-.32.321-.799 0-.478-.314-.807-.315-.335-.875-.335-.575 0-.882.335a1.16 1.16 0 0 0-.301.807"/><rect width="23" height="23" x="47" y="656" fill="#fff" stroke="#000" stroke-width="2" rx="4"/><path fill="#000" d="M88.738 668.938h-1.647q-.041.45-.178.799a1.7 1.7 0 0 1-.362.581q-.233.24-.56.363-.33.123-.753.123-.356 0-.635-.096a1.5 1.5 0 0 1-.486-.294 1.8 1.8 0 0 1-.355-.424 2.7 2.7 0 0 1-.24-.547 4.4 4.4 0 0 1-.184-.799 8 8 0 0 1-.055-.937v-1.374q0-.404.041-.786.048-.39.137-.732.116-.389.294-.704.185-.321.458-.519.198-.165.451-.253.26-.089.581-.089.458 0 .786.137.329.13.554.383.219.252.342.615.13.355.17.8h1.641a4.6 4.6 0 0 0-.335-1.354 3.1 3.1 0 0 0-.697-1.039 3 3 0 0 0-1.06-.656 4 4 0 0 0-1.4-.233q-.582 0-1.074.158-.486.156-.889.437a3.5 3.5 0 0 0-.752.745q-.322.431-.526.964a5 5 0 0 0-.287 1.019q-.096.54-.096 1.121v1.36q0 .608.096 1.169.102.56.3 1.039.199.486.486.896.294.403.683.69.405.308.916.478.52.165 1.135.165.752 0 1.368-.226a3.2 3.2 0 0 0 1.073-.656q.444-.417.718-1.005.273-.595.341-1.319m3.109-.705v.144q0 .813.232 1.497t.677 1.189q.438.507 1.08.793.643.288 1.456.288.807 0 1.443-.288a3 3 0 0 0 1.08-.793q.437-.505.67-1.189.232-.684.232-1.497v-.144q0-.806-.232-1.49a3.5 3.5 0 0 0-.67-1.196 3.1 3.1 0 0 0-1.087-.793q-.636-.288-1.45-.287-.813 0-1.449.287a3.1 3.1 0 0 0-1.073.793 3.5 3.5 0 0 0-.677 1.196 4.6 4.6 0 0 0-.232 1.49m1.634.144v-.144q0-.485.102-.929.11-.445.335-.78.219-.335.554-.533.342-.198.807-.198.471 0 .806.198.342.198.568.533.211.335.32.78.11.444.11.929v.144q0 .5-.11.943a2.4 2.4 0 0 1-.32.78 1.65 1.65 0 0 1-.56.533 1.6 1.6 0 0 1-.8.191q-.472 0-.814-.191a1.65 1.65 0 0 1-.56-.533 2.4 2.4 0 0 1-.336-.78 4.2 4.2 0 0 1-.102-.943m9.685-3.773h-1.422V672h1.504v-5.681q.04-.102.089-.184a.7.7 0 0 1 .123-.144.54.54 0 0 1 .212-.13.8.8 0 0 1 .293-.048q.151 0 .267.041a.54.54 0 0 1 .212.13q.089.09.13.246.048.151.048.37v5.4h1.476v-5.66a.7.7 0 0 1 .219-.369.7.7 0 0 1 .205-.117.8.8 0 0 1 .274-.041q.15 0 .273.041a.54.54 0 0 1 .219.13.6.6 0 0 1 .136.253q.048.152.048.369V672h1.504v-5.38a3.5 3.5 0 0 0-.123-.991 1.8 1.8 0 0 0-.335-.677 1.3 1.3 0 0 0-.519-.362 1.7 1.7 0 0 0-.65-.123 1.8 1.8 0 0 0-.506.068q-.225.069-.41.192a1.4 1.4 0 0 0-.266.232 2 2 0 0 0-.219.294 1.4 1.4 0 0 0-.164-.301 1.08 1.08 0 0 0-.595-.424 1.8 1.8 0 0 0-.492-.061q-.527 0-.902.253a1.7 1.7 0 0 0-.581.697zm9.172 10.24h1.634v-3.514a2.5 2.5 0 0 0 .594.485q.28.158.609.24.335.082.731.082.697 0 1.238-.287.54-.288.909-.793.369-.5.553-1.19.192-.69.192-1.49v-.144q0-.834-.192-1.524a3.7 3.7 0 0 0-.553-1.196 2.55 2.55 0 0 0-.916-.773q-.54-.273-1.251-.273-.363 0-.684.082-.321.075-.588.219a2 2 0 0 0-.383.259 2.7 2.7 0 0 0-.328.335l-.061-.758h-1.504zm4.826-6.611v.144q0 .492-.096.936a2.5 2.5 0 0 1-.307.78 1.6 1.6 0 0 1-.534.533q-.32.192-.779.191-.28 0-.512-.061a1.8 1.8 0 0 1-.417-.178 1.5 1.5 0 0 1-.315-.273 1.6 1.6 0 0 1-.232-.349v-3.288q.11-.205.253-.369.15-.165.348-.274.171-.102.39-.157.219-.054.472-.055.457 0 .786.192.327.191.54.519.205.329.3.773.103.438.103.936m4.948 0v.144q0 .813.232 1.497.233.684.677 1.189.436.507 1.08.793.642.288 1.456.288.806 0 1.442-.288a3 3 0 0 0 1.08-.793q.438-.505.67-1.189t.233-1.497v-.144q0-.806-.233-1.49a3.5 3.5 0 0 0-.67-1.196 3.1 3.1 0 0 0-1.087-.793q-.635-.288-1.449-.287-.813 0-1.449.287a3.06 3.06 0 0 0-1.073.793 3.5 3.5 0 0 0-.677 1.196 4.6 4.6 0 0 0-.232 1.49m1.633.144v-.144q0-.485.103-.929.11-.445.335-.78.218-.335.554-.533.34-.198.806-.198.472 0 .807.198.342.198.567.533.213.335.322.78.108.444.109.929v.144q0 .5-.109.943a2.4 2.4 0 0 1-.322.78 1.65 1.65 0 0 1-.56.533 1.6 1.6 0 0 1-.8.191q-.472 0-.814-.191a1.66 1.66 0 0 1-.56-.533 2.4 2.4 0 0 1-.335-.78 4.2 4.2 0 0 1-.103-.943m8.756 3.623h1.633v-5.277a2 2 0 0 1 .253-.342 1.657 1.657 0 0 1 .78-.485 1.8 1.8 0 0 1 .56-.083q.363 0 .643.083.28.075.478.259.199.185.301.492.103.309.103.766V672h1.633v-4.614q0-.78-.184-1.326a2.4 2.4 0 0 0-.52-.91 2 2 0 0 0-.806-.519 3.1 3.1 0 0 0-1.039-.164 2.7 2.7 0 0 0-1.539.471 3 3 0 0 0-.717.718l-.103-1.052h-1.476zm13.54.137q1.08 0 1.839-.424.765-.424 1.135-.957l-.875-.848a2.3 2.3 0 0 1-.869.677 2.8 2.8 0 0 1-1.134.232q-.445 0-.821-.15-.369-.15-.642-.424a2 2 0 0 1-.431-.588 3 3 0 0 1-.232-.813v-.034h5.127v-.704q0-.794-.212-1.463a3.3 3.3 0 0 0-.629-1.156 2.85 2.85 0 0 0-1.032-.745q-.616-.273-1.415-.273-.718 0-1.354.273a3.3 3.3 0 0 0-1.107.766q-.479.5-.752 1.203a4.3 4.3 0 0 0-.274 1.572v.281q0 .758.26 1.415.267.649.752 1.127.485.486 1.162.759.684.274 1.504.274m-.198-6.344q.41 0 .717.144.315.136.52.369.212.239.328.56.117.315.116.636v.109h-3.479q.075-.423.232-.758.158-.336.39-.575.232-.232.526-.355.301-.13.65-.13m6.834 6.207h1.634v-5.277q.11-.184.253-.342a1.66 1.66 0 0 1 .779-.485q.26-.083.561-.083.362 0 .642.083.28.075.479.259.198.185.3.492.103.309.103.766V672h1.634v-4.614q0-.78-.185-1.326a2.4 2.4 0 0 0-.519-.91 2 2 0 0 0-.807-.519 3.1 3.1 0 0 0-1.039-.164 2.7 2.7 0 0 0-1.538.471 2.9 2.9 0 0 0-.718.718l-.102-1.052h-1.477zm13.369-9.201h-1.64v1.805h-1.791v1.223h1.791v3.637q0 .71.184 1.217.191.506.527.827.335.328.8.485.471.15 1.032.151.308 0 .615-.035a5.8 5.8 0 0 0 1.135-.212 2 2 0 0 0 .43-.191l-.177-1.128-.308.068a6 6 0 0 1-.383.062 6 6 0 0 1-.437.055q-.226.02-.438.02-.294 0-.54-.068a1.02 1.02 0 0 1-.704-.663 2.2 2.2 0 0 1-.096-.691v-3.534h2.783v-1.223h-2.783z"/><rect width="25" height="25" x="221" y="655" fill="#7f8c8d" rx="12.5"/><path fill="#000" d="M258.782 668.206h1.689a4.2 4.2 0 0 0 1.381-.219 3.2 3.2 0 0 0 1.093-.622 2.7 2.7 0 0 0 .711-.95q.253-.561.253-1.251 0-.717-.253-1.292a2.75 2.75 0 0 0-.711-.977 3.2 3.2 0 0 0-1.093-.623 4.3 4.3 0 0 0-1.381-.225h-3.329V672h1.64zm0-1.34v-3.479h1.689q.417.006.745.136.334.13.567.37.232.238.349.567.123.32.123.718 0 .362-.123.67a1.46 1.46 0 0 1-.349.533q-.232.226-.567.355a2.2 2.2 0 0 1-.745.13zm8.065 1.367v.144q0 .813.232 1.497.233.684.677 1.189.438.507 1.08.793.643.288 1.456.288.807 0 1.443-.288a3.04 3.04 0 0 0 1.08-.793q.437-.505.67-1.189.232-.684.232-1.497v-.144q0-.806-.232-1.49a3.5 3.5 0 0 0-.67-1.196 3.1 3.1 0 0 0-1.087-.793q-.636-.288-1.449-.287-.814 0-1.45.287a3.1 3.1 0 0 0-1.073.793 3.5 3.5 0 0 0-.677 1.196 4.6 4.6 0 0 0-.232 1.49m1.634.144v-.144q0-.485.102-.929.11-.445.335-.78.22-.335.554-.533.342-.198.807-.198.471 0 .806.198.342.198.568.533.212.335.321.78.11.444.109.929v.144q0 .5-.109.943a2.4 2.4 0 0 1-.321.78 1.65 1.65 0 0 1-.561.533 1.6 1.6 0 0 1-.8.191q-.471 0-.813-.191a1.65 1.65 0 0 1-.561-.533 2.4 2.4 0 0 1-.335-.78 4.2 4.2 0 0 1-.102-.943m9.37 3.623h1.388l.936-4.197.164-.916.171.916.957 4.197h1.388l1.429-7.396H282.8l-.663 4.511-.13.903-.157-.896-.964-4.518h-1.073l-.964 4.532-.15.854-.116-.854-.684-4.532h-1.476zm12.925.137q1.08 0 1.839-.424.766-.424 1.135-.957l-.875-.848a2.3 2.3 0 0 1-.868.677 2.8 2.8 0 0 1-1.135.232q-.445 0-.82-.15a1.9 1.9 0 0 1-.643-.424 2 2 0 0 1-.431-.588 3 3 0 0 1-.232-.813v-.034h5.127v-.704q0-.794-.212-1.463a3.3 3.3 0 0 0-.629-1.156 2.85 2.85 0 0 0-1.032-.745q-.615-.273-1.415-.273-.718 0-1.354.273a3.3 3.3 0 0 0-1.107.766q-.479.5-.752 1.203a4.3 4.3 0 0 0-.273 1.572v.281q0 .758.259 1.415.267.649.752 1.127.486.486 1.162.759.684.274 1.504.274m-.198-6.344q.41 0 .718.144.314.136.519.369.212.239.329.56.116.315.116.636v.109h-3.48q.075-.423.233-.758a2.1 2.1 0 0 1 .389-.575q.233-.232.527-.355.3-.13.649-.13m11.948-1.326q-.766 0-1.402.355a3.4 3.4 0 0 0-1.08.978l-.007-.171-.068-1.025h-1.531V672h1.634v-4.566a2.4 2.4 0 0 1 .321-.581 1.6 1.6 0 0 1 .465-.417q.252-.172.581-.253t.738-.082q.362 0 .725.041.369.04.745.123l.232-1.614a3.3 3.3 0 0 0-.588-.13 5 5 0 0 0-.765-.054m15.268-2.42v1.36h2.078v7.239h-2.078V672h5.865v-1.354h-2.126v-7.239h2.126v-1.36zm11.92 10.807 3.903-10.807h-1.497l-3.91 10.807zm14.757-5.167v-1.313q0-.622-.109-1.196a5 5 0 0 0-.328-1.087 4 4 0 0 0-.492-.868 3.3 3.3 0 0 0-.691-.691 3.2 3.2 0 0 0-.895-.458 3.5 3.5 0 0 0-1.094-.164q-.588 0-1.08.164a2.9 2.9 0 0 0-.868.451 3.3 3.3 0 0 0-.691.711 4.4 4.4 0 0 0-.485.889 5.4 5.4 0 0 0-.308 1.073q-.102.567-.102 1.176v1.313q0 .58.095 1.134.096.547.288 1.033.198.506.492.929.3.424.697.725.39.294.882.465.498.164 1.094.164a3.35 3.35 0 0 0 1.934-.588q.41-.301.725-.718.314-.423.526-.923.199-.499.301-1.059a6 6 0 0 0 .109-1.162m-1.654-1.327v1.327a8 8 0 0 1-.048.731 5 5 0 0 1-.116.684q-.096.375-.26.69a2 2 0 0 1-.396.533 1.5 1.5 0 0 1-.493.315 1.6 1.6 0 0 1-.628.116q-.363 0-.643-.116a1.7 1.7 0 0 1-.485-.328 2 2 0 0 1-.376-.534 3.6 3.6 0 0 1-.24-.69 5 5 0 0 1-.116-.684 7 7 0 0 1-.034-.717v-1.327q0-.37.034-.731.042-.37.123-.697.089-.384.253-.691a2 2 0 0 1 .403-.54q.2-.185.465-.287.267-.11.602-.109.349 0 .622.109.273.11.485.301.24.218.404.533.171.308.273.684.089.328.123.69.04.363.048.738"/><rect width="25" height="25" x="221" y="690" fill="#c11f09" rx="12.5"/><path fill="#000" d="M258.967 697.047h-2.037V707h1.538v-3.377l-.089-4.279 1.388 4.587h.854l1.531-4.751-.095 4.443V707h1.545v-9.953h-2.044l-1.361 4.259zM271.871 707h1.668v-.116a2.9 2.9 0 0 1-.212-.684 5.5 5.5 0 0 1-.068-.902v-3.288q0-.63-.232-1.108a2.2 2.2 0 0 0-.643-.799 2.8 2.8 0 0 0-.977-.472 4.3 4.3 0 0 0-1.21-.164 4 4 0 0 0-1.292.191 2.8 2.8 0 0 0-.944.506q-.397.315-.601.725a1.94 1.94 0 0 0-.212.854h1.64q0-.212.076-.396a.8.8 0 0 1 .246-.322q.164-.143.41-.225.252-.082.588-.082.369 0 .649.095.287.09.486.26.184.171.28.404.102.232.102.519v.499h-1.189q-.8 0-1.436.151-.629.15-1.059.437-.465.308-.711.779-.24.465-.239 1.074 0 .471.184.881.191.403.533.691.336.294.807.465.479.164 1.053.164.356 0 .663-.069.307-.068.574-.191.267-.117.479-.273a3.4 3.4 0 0 0 .389-.342q.034.212.075.41.048.191.123.328m-1.989-1.176a1.8 1.8 0 0 1-.547-.075 1.2 1.2 0 0 1-.389-.219.9.9 0 0 1-.24-.328 1.1 1.1 0 0 1-.082-.424q0-.273.096-.492.102-.219.308-.376.232-.184.622-.28.389-.102.923-.103h1.052v1.368a1.3 1.3 0 0 1-.253.341q-.164.165-.389.294a2.3 2.3 0 0 1-.506.212 2 2 0 0 1-.595.082m10.601-3.732-1.75-2.488h-1.798l2.591 3.643-2.68 3.753h1.812l1.839-2.584 1.845 2.584h1.805l-2.68-3.753 2.598-3.643h-1.811zm23.608 1.846h-1.647q-.042.45-.178.799a1.7 1.7 0 0 1-.362.581q-.232.24-.561.363a2.1 2.1 0 0 1-.752.123q-.356 0-.636-.096a1.5 1.5 0 0 1-.485-.294 1.8 1.8 0 0 1-.355-.424 2.7 2.7 0 0 1-.24-.547 4.4 4.4 0 0 1-.184-.799 8 8 0 0 1-.055-.937v-1.374q0-.404.041-.786.048-.39.137-.732.115-.389.294-.704.184-.321.458-.519.198-.165.451-.253.26-.089.581-.089.458 0 .786.137.328.13.554.383.219.252.342.615.13.355.17.8h1.641a4.6 4.6 0 0 0-.335-1.354 3.1 3.1 0 0 0-.697-1.039 3 3 0 0 0-1.06-.656 4 4 0 0 0-1.401-.233q-.58 0-1.073.158a3.3 3.3 0 0 0-.889.437 3.5 3.5 0 0 0-.752.745q-.322.431-.526.964a5 5 0 0 0-.287 1.019 6.4 6.4 0 0 0-.096 1.121v1.36q0 .608.096 1.169.102.56.3 1.039.199.486.486.896.294.403.683.69.404.308.916.478.52.165 1.135.165.752 0 1.367-.226a3.2 3.2 0 0 0 1.074-.656q.444-.417.717-1.005.274-.595.342-1.319m8.256 3.062h1.484v-7.396h-1.641v5.236a2 2 0 0 1-.232.376 1.6 1.6 0 0 1-.315.287 1.9 1.9 0 0 1-.492.219q-.28.075-.636.075-.342 0-.594-.089a.9.9 0 0 1-.417-.301 1.3 1.3 0 0 1-.24-.547 4 4 0 0 1-.075-.861v-4.395h-1.634v4.381q0 .834.185 1.436.184.594.519.977.342.384.814.568.479.178 1.053.178.67 0 1.21-.308.54-.315.916-.868zm10.355-7.533q-.765 0-1.401.355a3.4 3.4 0 0 0-1.08.978l-.007-.171-.069-1.025h-1.531V707h1.634v-4.566a2.5 2.5 0 0 1 .321-.581q.192-.254.465-.417.253-.172.581-.253t.738-.082q.363 0 .725.041.37.04.745.123l.233-1.614a3.3 3.3 0 0 0-.588-.13 5 5 0 0 0-.766-.054m10.088 0q-.765 0-1.401.355a3.4 3.4 0 0 0-1.08.978l-.007-.171-.068-1.025h-1.532V707h1.634v-4.566a2.5 2.5 0 0 1 .321-.581q.192-.254.465-.417.254-.172.581-.253.328-.082.739-.082.362 0 .724.041.37.04.745.123l.233-1.614a3.3 3.3 0 0 0-.588-.13 5 5 0 0 0-.766-.054m8.427 7.67q1.08 0 1.839-.424.766-.424 1.135-.957l-.875-.848a2.3 2.3 0 0 1-.868.677 2.8 2.8 0 0 1-1.135.232q-.444 0-.82-.15a1.9 1.9 0 0 1-.643-.424 2 2 0 0 1-.431-.588 3 3 0 0 1-.232-.813v-.034h5.127v-.704q0-.794-.212-1.463a3.3 3.3 0 0 0-.629-1.156 2.85 2.85 0 0 0-1.032-.745q-.615-.273-1.415-.273-.718 0-1.354.273a3.3 3.3 0 0 0-1.107.766q-.479.5-.752 1.203a4.3 4.3 0 0 0-.273 1.572v.281q0 .758.259 1.415.267.649.752 1.127.486.486 1.162.759.684.274 1.504.274m-.198-6.344q.41 0 .718.144.315.137.519.369.212.239.329.56.116.315.116.636v.109h-3.48q.075-.423.233-.758a2.1 2.1 0 0 1 .389-.575q.233-.232.527-.355.3-.13.649-.13m6.834 6.207h1.634v-5.277q.11-.184.253-.342a1.67 1.67 0 0 1 .779-.485q.26-.083.561-.083.363 0 .643.083.28.075.478.259.198.185.301.492.102.309.102.766V707h1.634v-4.614q0-.78-.184-1.326a2.4 2.4 0 0 0-.52-.91 2 2 0 0 0-.807-.519 3.1 3.1 0 0 0-1.039-.164 2.7 2.7 0 0 0-1.538.471 3 3 0 0 0-.717.718l-.103-1.052h-1.477zm13.37-9.201h-1.641v1.805h-1.791v1.223h1.791v3.637q0 .71.185 1.217.191.506.526.827.335.328.8.485.472.15 1.032.151.308 0 .615-.035a5.8 5.8 0 0 0 1.135-.212q.253-.081.431-.191l-.178-1.128-.307.068a7 7 0 0 1-.383.062 7 7 0 0 1-.438.055q-.225.02-.437.02-.294 0-.54-.068a1 1 0 0 1-.424-.233 1.04 1.04 0 0 1-.28-.43 2.2 2.2 0 0 1-.096-.691v-3.534h2.782v-1.223h-2.782z"/><rect width="25" height="25" x="416" y="655" fill="#f1c40f" rx="12.5"/><path fill="#000" d="M458.738 668.938h-1.647q-.042.45-.178.799a1.7 1.7 0 0 1-.362.581q-.232.24-.561.363a2.1 2.1 0 0 1-.752.123q-.356 0-.635-.096a1.5 1.5 0 0 1-.486-.294 1.8 1.8 0 0 1-.355-.424 2.7 2.7 0 0 1-.24-.547 4.4 4.4 0 0 1-.184-.799 8 8 0 0 1-.055-.937v-1.374q0-.404.041-.786.048-.39.137-.732.115-.389.294-.704.185-.321.458-.519.198-.165.451-.253.26-.089.581-.089.458 0 .786.137.329.13.554.383.219.252.342.615.129.355.171.8h1.64a4.6 4.6 0 0 0-.335-1.354 3.1 3.1 0 0 0-.697-1.039 3 3 0 0 0-1.06-.656 4 4 0 0 0-1.401-.233q-.58 0-1.073.158a3.3 3.3 0 0 0-.889.437 3.5 3.5 0 0 0-.752.745 4 4 0 0 0-.526.964 5 5 0 0 0-.287 1.019 6.4 6.4 0 0 0-.096 1.121v1.36q0 .608.096 1.169.102.56.301 1.039.197.486.485.896.294.403.684.69.403.308.916.478.519.165 1.134.165.752 0 1.367-.226a3.2 3.2 0 0 0 1.074-.656q.444-.417.717-1.005.275-.595.342-1.319m3.109-.705v.144q0 .813.232 1.497.233.684.677 1.189.438.507 1.08.793.643.288 1.456.288.807 0 1.443-.288a3.04 3.04 0 0 0 1.08-.793q.437-.505.67-1.189.232-.684.232-1.497v-.144q0-.806-.232-1.49a3.5 3.5 0 0 0-.67-1.196 3.1 3.1 0 0 0-1.087-.793q-.636-.288-1.449-.287-.814 0-1.45.287a3.1 3.1 0 0 0-1.073.793 3.5 3.5 0 0 0-.677 1.196 4.6 4.6 0 0 0-.232 1.49m1.634.144v-.144q0-.485.102-.929.11-.445.335-.78.22-.335.554-.533.342-.198.807-.198.471 0 .806.198.342.198.568.533.212.335.321.78.11.444.109.929v.144q0 .5-.109.943a2.4 2.4 0 0 1-.321.78 1.65 1.65 0 0 1-.561.533 1.6 1.6 0 0 1-.8.191q-.471 0-.813-.191a1.65 1.65 0 0 1-.561-.533 2.4 2.4 0 0 1-.335-.78 4.2 4.2 0 0 1-.102-.943m8.755 3.623h1.634v-5.277q.11-.184.253-.342a1.66 1.66 0 0 1 .779-.485q.26-.083.561-.083.361 0 .642.083.28.075.479.259.198.185.3.492.103.309.103.766V672h1.634v-4.614q0-.78-.185-1.326a2.4 2.4 0 0 0-.519-.91 2 2 0 0 0-.807-.519 3.1 3.1 0 0 0-1.039-.164 2.7 2.7 0 0 0-1.538.471 2.9 2.9 0 0 0-.718.718l-.102-1.052h-1.477zm12.508 0h1.442l2.899-7.396h-1.695l-1.812 5.366-.109.492-.11-.492-1.832-5.366h-1.695zm11.121.137q1.08 0 1.838-.424.766-.424 1.135-.957l-.875-.848a2.3 2.3 0 0 1-.868.677 2.8 2.8 0 0 1-1.135.232q-.444 0-.82-.15-.369-.15-.643-.424a2 2 0 0 1-.43-.588 3 3 0 0 1-.233-.813v-.034h5.127v-.704q0-.794-.212-1.463a3.3 3.3 0 0 0-.629-1.156 2.85 2.85 0 0 0-1.032-.745q-.615-.273-1.415-.273a3.4 3.4 0 0 0-2.461 1.039 3.6 3.6 0 0 0-.752 1.203 4.3 4.3 0 0 0-.273 1.572v.281q0 .758.26 1.415.266.649.752 1.127.484.486 1.162.759.683.274 1.504.274m-.199-6.344q.41 0 .718.144.315.136.52.369.211.239.328.56.116.315.116.636v.109h-3.48q.076-.423.233-.758.158-.336.39-.575.231-.232.526-.355.3-.13.649-.13m11.948-1.326q-.767 0-1.401.355-.63.356-1.081.978l-.006-.171-.069-1.025h-1.531V672h1.634v-4.566a2.4 2.4 0 0 1 .321-.581q.192-.253.465-.417.253-.172.581-.253t.738-.082q.362 0 .725.041.369.04.745.123l.232-1.614a3.3 3.3 0 0 0-.588-.13 5 5 0 0 0-.765-.054m9.808 5.53a.7.7 0 0 1-.082.328.8.8 0 0 1-.233.267q-.19.15-.512.239-.315.089-.739.089a3 3 0 0 1-.622-.062 1.7 1.7 0 0 1-.547-.218 1.3 1.3 0 0 1-.41-.376 1.16 1.16 0 0 1-.177-.581h-1.586q0 .458.218.902.219.444.643.786.417.349 1.032.561.622.212 1.422.212.718 0 1.306-.165a3.3 3.3 0 0 0 1.011-.458q.418-.293.643-.704.232-.41.232-.902 0-.506-.218-.875a2.1 2.1 0 0 0-.616-.643 3.9 3.9 0 0 0-.957-.437 10 10 0 0 0-1.237-.301 6 6 0 0 1-.807-.184 2 2 0 0 1-.492-.226.67.67 0 0 1-.266-.267.8.8 0 0 1-.076-.348q0-.184.089-.349a.8.8 0 0 1 .267-.294q.178-.137.451-.212.28-.082.65-.082.402 0 .704.11.3.102.492.28.163.15.246.342a.9.9 0 0 1 .089.389h1.634a2 2 0 0 0-.219-.929 2.2 2.2 0 0 0-.622-.745 3.1 3.1 0 0 0-.998-.493 4.4 4.4 0 0 0-1.326-.184q-.691 0-1.258.178-.561.177-.957.485a2.2 2.2 0 0 0-.622.718 1.8 1.8 0 0 0-.212.854q0 .472.212.827t.587.616q.384.273.91.464a8.4 8.4 0 0 0 1.175.322q.513.095.855.205t.554.232a.9.9 0 0 1 .28.287.66.66 0 0 1 .089.342m5.631-5.393v1.36h2.276v4.682h-2.276V672h6.098v-1.354h-2.174v-6.042zm2.126-1.915q0 .26.123.458a.68.68 0 0 0 .376.267q.239.075.437.034a.7.7 0 0 0 .342-.171.73.73 0 0 0 .438-.294q.15-.225.102-.526a.69.69 0 0 0-.266-.478q-.226-.192-.595-.192-.219 0-.397.068a.82.82 0 0 0-.492.472.95.95 0 0 0-.068.362m7.285 5.544v.144q0 .813.233 1.497.232.684.677 1.189.437.507 1.08.793a3.5 3.5 0 0 0 1.456.288 3.5 3.5 0 0 0 1.442-.288 3 3 0 0 0 1.08-.793q.438-.505.67-1.189t.233-1.497v-.144q0-.806-.233-1.49a3.5 3.5 0 0 0-.67-1.196 3.1 3.1 0 0 0-1.087-.793q-.636-.288-1.449-.287-.813 0-1.449.287a3.06 3.06 0 0 0-1.073.793 3.5 3.5 0 0 0-.677 1.196 4.6 4.6 0 0 0-.233 1.49m1.634.144v-.144q0-.485.103-.929.109-.445.335-.78.219-.335.553-.533.342-.198.807-.198.472 0 .807.198.342.198.567.533.212.335.321.78.11.444.11.929v.144q0 .5-.11.943a2.4 2.4 0 0 1-.321.78 1.66 1.66 0 0 1-.56.533 1.6 1.6 0 0 1-.8.191q-.472 0-.814-.191a1.65 1.65 0 0 1-.56-.533 2.4 2.4 0 0 1-.335-.78 4 4 0 0 1-.103-.943m8.755 3.623h1.634v-5.277q.11-.184.253-.342a1.67 1.67 0 0 1 .779-.485q.26-.083.561-.083.363 0 .643.083.28.075.478.259.198.185.301.492.102.309.102.766V672h1.634v-4.614q0-.78-.184-1.326a2.4 2.4 0 0 0-.52-.91 2 2 0 0 0-.807-.519 3.1 3.1 0 0 0-1.039-.164 2.7 2.7 0 0 0-1.538.471 3 3 0 0 0-.717.718l-.103-1.052h-1.477zm27.197-8.593v-1.36h-7.752v1.36h3.049V672h1.634v-8.593zm3.998 11.58q.54 0 .943-.191.403-.185.697-.465.294-.273.486-.602a6 6 0 0 0 .328-.608l3.753-8.517h-1.812l-1.784 4.539-.308.793-.253-.814-1.838-4.518h-1.798l3.151 7.068-.465.882q-.075.15-.164.287a3 3 0 0 1-.219.314 1.7 1.7 0 0 1-.334.315.7.7 0 0 1-.431.143q-.11 0-.287-.013l-.308-.014-.225 1.278q.198.048.41.082.219.042.458.041m9.172-.143h1.634v-3.514a2.5 2.5 0 0 0 .594.485q.28.158.609.24.335.082.731.082.698 0 1.238-.287.54-.288.909-.793.369-.5.553-1.19.192-.69.192-1.49v-.144q0-.834-.192-1.524a3.7 3.7 0 0 0-.553-1.196 2.55 2.55 0 0 0-.916-.773q-.54-.273-1.251-.273-.363 0-.684.082-.321.075-.588.219a2.2 2.2 0 0 0-.383.259 2.7 2.7 0 0 0-.328.335l-.061-.758h-1.504zm4.826-6.611v.144q0 .492-.096.936a2.5 2.5 0 0 1-.307.78 1.6 1.6 0 0 1-.533.533 1.5 1.5 0 0 1-.78.191q-.28 0-.512-.061a1.8 1.8 0 0 1-.417-.178 1.5 1.5 0 0 1-.315-.273 1.6 1.6 0 0 1-.232-.349v-3.288q.11-.205.253-.369.15-.165.348-.274.171-.102.39-.157.219-.054.472-.055.457 0 .786.192.327.191.54.519.204.329.301.773.102.438.102.936m8.701 3.904q1.08 0 1.838-.424.766-.424 1.135-.957l-.875-.848a2.3 2.3 0 0 1-.868.677 2.8 2.8 0 0 1-1.135.232q-.444 0-.82-.15-.369-.15-.643-.424a2 2 0 0 1-.43-.588 3 3 0 0 1-.233-.813v-.034h5.127v-.704q0-.794-.212-1.463a3.3 3.3 0 0 0-.629-1.156 2.85 2.85 0 0 0-1.032-.745q-.615-.273-1.415-.273a3.4 3.4 0 0 0-2.461 1.039 3.6 3.6 0 0 0-.752 1.203 4.3 4.3 0 0 0-.273 1.572v.281q0 .758.26 1.415.266.649.752 1.127.484.486 1.162.759.683.274 1.504.274m-.199-6.344q.41 0 .718.144.315.136.52.369.211.239.328.56.116.315.116.636v.109h-3.48q.076-.423.233-.758.158-.336.39-.575.232-.232.526-.355.3-.13.649-.13"/><rect width="25" height="25" x="416" y="690" fill="#1da086" rx="12.5"/><path fill="#000" d="M454.391 707h1.599l3.063-9.953h-1.791l-1.908 6.884-.17.601-.164-.594-1.894-6.891h-1.798zm7.456-3.767v.144q0 .813.232 1.497.233.684.677 1.189.438.507 1.08.793.643.288 1.456.288.807 0 1.443-.288a3.04 3.04 0 0 0 1.08-.793q.437-.505.67-1.189.232-.684.232-1.497v-.144q0-.806-.232-1.49a3.5 3.5 0 0 0-.67-1.196 3.1 3.1 0 0 0-1.087-.793q-.636-.288-1.449-.287-.814 0-1.45.287a3.1 3.1 0 0 0-1.073.793 3.5 3.5 0 0 0-.677 1.196 4.6 4.6 0 0 0-.232 1.49m1.634.144v-.144q0-.485.102-.929.11-.445.335-.78.22-.335.554-.533.342-.198.807-.198.471 0 .806.198.342.198.568.533.212.335.321.78.11.444.109.929v.144q0 .5-.109.943a2.4 2.4 0 0 1-.321.78 1.65 1.65 0 0 1-.561.533 1.6 1.6 0 0 1-.8.191q-.471 0-.813-.191a1.65 1.65 0 0 1-.561-.533 2.4 2.4 0 0 1-.335-.78 4.2 4.2 0 0 1-.102-.943m9.069-6.877v1.36h2.338v7.786h-2.338V707h6.228v-1.354h-2.242V696.5zm13.055 1.299h-1.64v1.805h-1.791v1.223h1.791v3.637q0 .71.184 1.217.192.506.527.827.335.328.8.485.471.15 1.032.151.307 0 .615-.035a5.8 5.8 0 0 0 1.135-.212 2 2 0 0 0 .43-.191l-.177-1.128-.308.068a6 6 0 0 1-.383.062 6 6 0 0 1-.437.055q-.226.02-.438.02-.294 0-.54-.068a1.02 1.02 0 0 1-.704-.663 2.2 2.2 0 0 1-.096-.691v-3.534h2.783v-1.223h-2.783zM497.136 707h1.668v-.116a2.8 2.8 0 0 1-.212-.684 5.4 5.4 0 0 1-.068-.902v-3.288q0-.63-.233-1.108a2.2 2.2 0 0 0-.642-.799q-.411-.315-.978-.472a4.3 4.3 0 0 0-1.21-.164 4 4 0 0 0-1.292.191 2.8 2.8 0 0 0-.943.506 2.2 2.2 0 0 0-.602.725 2 2 0 0 0-.212.854h1.641q0-.212.075-.396a.8.8 0 0 1 .246-.322q.165-.143.41-.225.254-.082.588-.082.37 0 .65.095.287.09.485.26.185.171.28.404.103.232.103.519v.499h-1.19a6.2 6.2 0 0 0-1.435.151q-.629.15-1.06.437-.465.308-.711.779-.239.465-.239 1.074 0 .471.185.881.19.403.533.691.335.294.807.465.478.164 1.052.164.356 0 .663-.069.308-.068.575-.191.266-.117.478-.273a3.3 3.3 0 0 0 .39-.342q.035.212.075.41.048.191.123.328m-1.989-1.176q-.315 0-.547-.075a1.2 1.2 0 0 1-.39-.219.9.9 0 0 1-.239-.328 1.1 1.1 0 0 1-.082-.424q0-.273.096-.492.103-.219.307-.376.233-.184.622-.28.39-.102.923-.103h1.053v1.368a1.3 1.3 0 0 1-.253.341q-.163.165-.39.294a2.25 2.25 0 0 1-1.1.294m7.142-2.577v.144a5.2 5.2 0 0 0 .205 1.49q.212.684.594 1.182.39.507.937.793.548.28 1.23.281.377 0 .698-.082a2.2 2.2 0 0 0 .916-.451q.157-.13.301-.281v.513q0 .417-.124.745a1.5 1.5 0 0 1-.334.554q-.24.232-.582.355a2.2 2.2 0 0 1-.772.123q-.253 0-.499-.054a2.2 2.2 0 0 1-.485-.158 2.551 2.551 0 0 1-.896-.697l-.772.991q.246.328.588.561.341.232.717.376a4.3 4.3 0 0 0 1.443.28q.744 0 1.36-.212.622-.205 1.066-.601.438-.403.677-.985.246-.574.246-1.319v-7.191h-1.483l-.068.745q-.138-.165-.294-.301a2.15 2.15 0 0 0-.944-.492 2.9 2.9 0 0 0-.745-.089q-.69 0-1.244.28-.547.273-.937.773a3.5 3.5 0 0 0-.594 1.196q-.205.69-.205 1.531m1.64.144v-.144q0-.5.103-.936a2.4 2.4 0 0 1 .321-.78 1.56 1.56 0 0 1 .54-.526q.328-.192.786-.192.26 0 .479.062.219.055.396.15.199.116.349.281.158.163.267.369v3.24a2 2 0 0 1-.253.362q-.143.164-.329.281-.185.11-.417.171a2 2 0 0 1-.505.061q-.451 0-.78-.185a1.6 1.6 0 0 1-.54-.526 2.2 2.2 0 0 1-.321-.759 4.3 4.3 0 0 1-.096-.929m12.112 3.746q1.08 0 1.839-.424.765-.424 1.135-.957l-.875-.848a2.3 2.3 0 0 1-.869.677 2.8 2.8 0 0 1-1.134.232q-.445 0-.821-.15-.369-.15-.642-.424a2 2 0 0 1-.431-.588 3 3 0 0 1-.232-.813v-.034h5.127v-.704q0-.794-.212-1.463a3.3 3.3 0 0 0-.629-1.156 2.85 2.85 0 0 0-1.032-.745q-.616-.273-1.415-.273-.718 0-1.354.273a3.3 3.3 0 0 0-1.107.766q-.479.5-.752 1.203a4.3 4.3 0 0 0-.274 1.572v.281q0 .758.26 1.415.267.649.752 1.127.485.486 1.162.759.684.274 1.504.274m-.198-6.344q.41 0 .717.144.315.137.52.369.212.239.328.56.117.315.116.636v.109h-3.479q.075-.423.232-.758.158-.336.39-.575.232-.232.526-.355.301-.13.65-.13m20.224 2.345 1.907 3.862h1.757v-.089l-2.126-4.163a4 4 0 0 0 .745-.437 2.637 2.637 0 0 0 .944-1.34 3 3 0 0 0 .136-.93q0-.745-.26-1.299a2.6 2.6 0 0 0-.724-.936 3.3 3.3 0 0 0-1.121-.561 5.2 5.2 0 0 0-1.422-.198h-3.158V707h1.64v-3.862zm-1.682-1.34v-3.411h1.518q.424.006.766.116.34.102.581.308.26.218.389.546.137.322.137.752 0 .383-.123.684-.123.3-.342.506a1.7 1.7 0 0 1-.601.369 2.5 2.5 0 0 1-.787.13zM547.577 707h1.668v-.116a2.8 2.8 0 0 1-.212-.684 5.5 5.5 0 0 1-.068-.902v-3.288q0-.63-.233-1.108a2.2 2.2 0 0 0-.642-.799q-.411-.315-.978-.472a4.3 4.3 0 0 0-1.21-.164 4 4 0 0 0-1.292.191 2.8 2.8 0 0 0-.943.506 2.2 2.2 0 0 0-.602.725 2 2 0 0 0-.212.854h1.641q0-.212.075-.396a.8.8 0 0 1 .246-.322q.164-.143.41-.225.253-.082.588-.082.37 0 .65.095.287.09.485.26.185.171.28.404.103.232.103.519v.499h-1.19a6.2 6.2 0 0 0-1.435.151q-.629.15-1.06.437-.465.308-.711.779-.239.465-.239 1.074 0 .471.185.881.19.403.533.691.334.294.807.465.479.164 1.052.164.356 0 .663-.069.308-.068.575-.191.266-.117.478-.273a3.3 3.3 0 0 0 .39-.342q.034.212.075.41.048.191.123.328m-1.989-1.176q-.315 0-.547-.075a1.2 1.2 0 0 1-.39-.219.9.9 0 0 1-.239-.328 1.1 1.1 0 0 1-.082-.424q0-.273.096-.492.102-.219.307-.376.233-.184.622-.28.39-.102.923-.103h1.053v1.368a1.3 1.3 0 0 1-.253.341q-.164.165-.39.294a2.3 2.3 0 0 1-.505.212 2 2 0 0 1-.595.082m7.354 1.176h1.633v-5.277a2 2 0 0 1 .253-.342 1.657 1.657 0 0 1 .78-.485 1.8 1.8 0 0 1 .56-.083q.363 0 .643.083.28.075.478.259.198.185.301.492.102.309.103.766V707h1.633v-4.614q0-.78-.184-1.326a2.4 2.4 0 0 0-.52-.91 2 2 0 0 0-.806-.519 3.1 3.1 0 0 0-1.039-.164 2.7 2.7 0 0 0-1.539.471 3 3 0 0 0-.717.718l-.103-1.052h-1.476zm9.876-3.753v.144a5.2 5.2 0 0 0 .205 1.49q.211.684.595 1.182.39.507.936.793a2.66 2.66 0 0 0 1.231.281q.375 0 .697-.082a2.2 2.2 0 0 0 .916-.451q.157-.13.301-.281v.513q0 .417-.123.745a1.5 1.5 0 0 1-.335.554q-.24.232-.581.355a2.2 2.2 0 0 1-.773.123q-.253 0-.499-.054a2.2 2.2 0 0 1-.485-.158 2.59 2.59 0 0 1-.896-.697l-.772.991q.246.328.588.561.342.232.718.376a4.2 4.2 0 0 0 1.442.28q.745 0 1.36-.212.622-.205 1.067-.601.437-.403.676-.985.247-.574.247-1.319v-7.191h-1.484l-.068.745a2.5 2.5 0 0 0-.294-.301 2.137 2.137 0 0 0-.944-.492 2.9 2.9 0 0 0-.745-.089q-.69 0-1.244.28-.547.273-.936.773a3.5 3.5 0 0 0-.595 1.196q-.205.69-.205 1.531m1.641.144v-.144q0-.5.102-.936.103-.445.321-.78.213-.335.54-.526.328-.192.787-.192.26 0 .478.062.219.055.397.15.198.116.348.281.158.163.267.369v3.24a2 2 0 0 1-.253.362q-.144.164-.328.281-.184.11-.417.171a2 2 0 0 1-.506.061q-.452 0-.779-.185a1.56 1.56 0 0 1-.54-.526 2.3 2.3 0 0 1-.322-.759 4.3 4.3 0 0 1-.095-.929m12.111 3.746q1.08 0 1.839-.424.765-.424 1.135-.957l-.875-.848a2.3 2.3 0 0 1-.868.677 2.8 2.8 0 0 1-1.135.232q-.445 0-.82-.15a1.9 1.9 0 0 1-.643-.424 2 2 0 0 1-.431-.588 3 3 0 0 1-.232-.813v-.034h5.127v-.704q0-.794-.212-1.463a3.3 3.3 0 0 0-.629-1.156 2.85 2.85 0 0 0-1.032-.745q-.615-.273-1.415-.273-.718 0-1.354.273a3.3 3.3 0 0 0-1.107.766q-.479.5-.752 1.203a4.3 4.3 0 0 0-.274 1.572v.281q0 .758.26 1.415.267.649.752 1.127.486.486 1.162.759.684.274 1.504.274m-.198-6.344q.41 0 .718.144.313.137.519.369.212.239.328.56.117.315.117.636v.109h-3.48q.076-.423.232-.758.158-.336.39-.575a1.64 1.64 0 0 1 1.176-.485"/><rect width="81" height="36" x="46" y="46" fill="#7f8c8d" rx="5"/><path fill="#fff" d="m66.303 66.505 2.071-7.458h1.791L67.09 69h-1.565l-3.07-9.953h1.792zm23.485-7.458.014 6.665q-.008.765-.246 1.401-.24.63-.67 1.08-.43.452-1.046.698a3.6 3.6 0 0 1-1.367.246q-.739 0-1.34-.246a3 3 0 0 1-1.032-.69q-.43-.453-.67-1.08a4.1 4.1 0 0 1-.246-1.41l.013-6.664h1.614l.013 6.665q.007.457.116.84.11.384.315.664.205.273.506.43.308.15.71.15.411 0 .725-.15.314-.157.527-.43.211-.28.32-.663.111-.383.117-.841l.014-6.665zm8.783 7.39q0-.356-.15-.623a1.4 1.4 0 0 0-.418-.478 2.7 2.7 0 0 0-.642-.355 8 8 0 0 0-.807-.288 9 9 0 0 1-1.162-.424 4.6 4.6 0 0 1-1.019-.615 3.2 3.2 0 0 1-.724-.854 2.3 2.3 0 0 1-.274-1.135q0-.642.274-1.148a2.7 2.7 0 0 1 .745-.869q.465-.355 1.08-.546t1.285-.192q.718 0 1.34.226.63.219 1.094.622.471.396.745.957.273.554.28 1.23h-1.64a2.3 2.3 0 0 0-.165-.683q-.123-.315-.355-.54a1.5 1.5 0 0 0-.554-.349 2.2 2.2 0 0 0-.759-.123q-.37 0-.683.096-.315.096-.547.28-.225.184-.356.444t-.13.588q0 .349.178.609.178.252.465.444t.656.335q.376.136.78.253.62.185 1.19.458.566.267.997.65.43.376.684.874.252.499.253 1.142 0 .663-.28 1.169a2.6 2.6 0 0 1-.752.847 3.5 3.5 0 0 1-1.094.52 4.9 4.9 0 0 1-2.208.082 4.4 4.4 0 0 1-.868-.267 4 4 0 0 1-.766-.437 3.3 3.3 0 0 1-.622-.609 3 3 0 0 1-.41-.772 3 3 0 0 1-.157-.943h1.647q.034.45.198.786.164.335.438.56.273.22.635.335.37.11.814.11.369 0 .69-.09.322-.088.56-.259.24-.178.377-.43.137-.26.137-.589M103.484 69v-9.953h3.179q.717.007 1.34.164.628.158 1.093.485.472.329.739.841.266.505.259 1.203-.006.738-.41 1.265a2.63 2.63 0 0 1-1.087.806q.417.117.739.336.328.211.546.512.22.3.335.67.117.363.117.773 0 .71-.26 1.25t-.725.903q-.458.362-1.093.554-.63.184-1.361.191zm1.647-4.512v3.172h1.792q.389-.006.71-.116.322-.117.554-.314.233-.199.362-.486.137-.287.137-.642 0-.376-.116-.67-.116-.301-.335-.506a1.5 1.5 0 0 0-.533-.315 2.1 2.1 0 0 0-.704-.123zm0-1.25h1.573q.37-.008.683-.096.322-.096.554-.274.233-.184.369-.444.137-.266.137-.609 0-.375-.13-.642a1.15 1.15 0 0 0-.369-.438 1.5 1.5 0 0 0-.554-.246 3 3 0 0 0-.704-.089h-1.559z"/><rect width="61" height="36" x="232" y="46" fill="#7f8c8d" rx="5"/><path fill="#fff" d="m252.391 66.505 2.072-7.458h1.791L253.177 69h-1.565l-3.069-9.953h1.791zm7.142-7.458h5.92v1.36H263.3v7.24h2.153V69h-5.92v-1.353h2.106v-7.24h-2.106zM275.842 69h-1.654l-3.24-6.85-.007 6.85h-1.661v-9.953h1.661l3.226 6.829.014-6.83h1.661z"/><rect width="71" height="24" x="227" y="87" fill="#f1c40f" rx="12"/><path fill="#171e21" d="M239.056 104v-9.953h2.434q1.025.006 1.838.342.82.334 1.388.943.575.609.882 1.456.308.84.314 1.866v.752a5.6 5.6 0 0 1-.314 1.873 4.2 4.2 0 0 1-.875 1.45 3.9 3.9 0 0 1-1.374.936q-.807.335-1.812.335zm1.668-8.627v7.308h.813q.678-.007 1.183-.24.506-.239.841-.663.341-.43.506-1.032.171-.602.177-1.34v-.765a4.9 4.9 0 0 0-.177-1.313 2.9 2.9 0 0 0-.506-1.025 2.3 2.3 0 0 0-.861-.677q-.514-.246-1.21-.253zm8.899 1.23h3.944v6.043h2.194V104h-6.138v-1.354h2.297v-4.682h-2.297zm2.16-1.913q0-.383.246-.63.246-.252.69-.252.452 0 .698.252a.84.84 0 0 1 .253.63.86.86 0 0 1-.253.635q-.246.246-.698.246-.444 0-.69-.246a.88.88 0 0 1-.246-.636m7.272 5.543q0-.8.232-1.49.24-.69.677-1.196a3.1 3.1 0 0 1 1.08-.793 3.5 3.5 0 0 1 1.442-.287q.814 0 1.45.287.642.287 1.08.793.444.506.676 1.196t.233 1.49v.144a4.7 4.7 0 0 1-.233 1.497q-.232.69-.676 1.196-.438.5-1.074.786a3.45 3.45 0 0 1-1.442.288 3.5 3.5 0 0 1-1.456-.288 3.2 3.2 0 0 1-1.08-.786 3.6 3.6 0 0 1-.677-1.196 4.7 4.7 0 0 1-.232-1.497zm1.633.144q0 .506.103.95a2.6 2.6 0 0 0 .328.786q.226.335.568.533.341.192.813.192.458 0 .793-.192.342-.198.561-.533.225-.342.328-.786a4 4 0 0 0 .109-.95v-.144a4 4 0 0 0-.109-.936 2.3 2.3 0 0 0-.328-.78 1.555 1.555 0 0 0-1.368-.731q-.464 0-.806.198-.342.199-.561.534a2.5 2.5 0 0 0-.328.779 4.2 4.2 0 0 0-.103.936zm8.537-.13q0-.84.205-1.538t.588-1.196.923-.773a2.7 2.7 0 0 1 1.223-.273q.609 0 1.074.212.465.205.813.594V93.5h1.641V104h-1.484l-.082-.752a2.4 2.4 0 0 1-.841.663q-.485.226-1.134.226-.67 0-1.21-.281a2.8 2.8 0 0 1-.923-.786 3.8 3.8 0 0 1-.588-1.182 5.2 5.2 0 0 1-.205-1.497zm1.634.144q0 .498.095.936a2.4 2.4 0 0 0 .301.766 1.6 1.6 0 0 0 .533.519q.328.185.78.185.56 0 .916-.239.356-.246.567-.657v-3.212a1.7 1.7 0 0 0-.574-.643q-.356-.24-.896-.24-.457 0-.786.192a1.6 1.6 0 0 0-.533.526 2.6 2.6 0 0 0-.308.78q-.095.444-.095.943zm12.118 3.746a4 4 0 0 1-1.497-.274 3.5 3.5 0 0 1-1.162-.752 3.4 3.4 0 0 1-.745-1.128 3.7 3.7 0 0 1-.267-1.415v-.28q0-.882.281-1.586.287-.704.758-1.203a3.3 3.3 0 0 1 1.108-.766 3.4 3.4 0 0 1 1.333-.266q.807 0 1.422.273.615.266 1.025.759.417.486.629 1.155.212.67.212 1.47v.69h-5.127q.04.431.212.8t.444.643q.28.267.65.424.376.15.82.15.622 0 1.141-.246.526-.246.855-.677l.889.834a2.9 2.9 0 0 1-.458.52 3.4 3.4 0 0 1-.657.444 4 4 0 0 1-.847.308 4 4 0 0 1-1.019.123m-.198-6.35q-.342 0-.636.122a1.6 1.6 0 0 0-.526.362 2.1 2.1 0 0 0-.397.575q-.157.334-.225.765h3.466v-.123a2.3 2.3 0 0 0-.13-.629 1.6 1.6 0 0 0-.308-.546 1.5 1.5 0 0 0-.519-.383 1.7 1.7 0 0 0-.725-.144"/><rect width="120" height="34" x="599" y="162" fill="#fff" rx="4"/><path fill="#000" d="M621.901 184h-1.654l-3.24-6.85L617 184h-1.661v-9.953H617l3.226 6.829.014-6.829h1.661zm4.045-7.396h3.945v6.042h2.194V184h-6.139v-1.354h2.297v-4.682h-2.297zm2.16-1.915a.85.85 0 0 1 .247-.628q.246-.253.69-.253.451 0 .697.253a.84.84 0 0 1 .253.628.86.86 0 0 1-.253.636q-.246.246-.697.246-.444 0-.69-.246a.87.87 0 0 1-.247-.636m9.05 1.915.102 1.025q.404-.554.971-.855a2.65 2.65 0 0 1 1.271-.307q.568 0 1.033.164.471.163.806.513.342.348.527.902.19.553.191 1.333V184h-1.634v-4.594q0-.458-.109-.765a1.2 1.2 0 0 0-.301-.493 1.06 1.06 0 0 0-.472-.259 2.2 2.2 0 0 0-.635-.082q-.54 0-.944.239a1.87 1.87 0 0 0-.642.649V184h-1.641v-7.396zM650.484 184a1.6 1.6 0 0 1-.116-.321 6 6 0 0 1-.075-.397q-.171.178-.39.335-.212.15-.479.267a3 3 0 0 1-.567.184q-.3.069-.649.069-.588 0-1.067-.164a2.6 2.6 0 0 1-.813-.465 2.08 2.08 0 0 1-.704-1.579q0-1.19.882-1.819.888-.629 2.543-.629h1.196v-.485q0-.588-.397-.93-.396-.348-1.121-.348-.328 0-.574.082a1.2 1.2 0 0 0-.41.212.9.9 0 0 0-.246.321 1 1 0 0 0-.082.396h-1.634q0-.43.198-.833.205-.41.595-.725.39-.321.95-.513a4 4 0 0 1 1.292-.191q.657 0 1.217.164.56.157.971.478.41.315.642.793.233.472.233 1.108v3.295q0 .485.068.888.075.397.212.691V184zm-1.969-1.183q.315 0 .588-.075.28-.081.499-.205.226-.129.383-.294.164-.164.26-.335v-1.387h-1.039q-.999 0-1.477.321-.471.32-.472.916 0 .225.076.424.075.19.225.335.158.137.39.218.24.082.567.082m13.459-2.522h-5.476v-1.319h5.476zm8.837.28.711-6.528h1.531L671.782 184h-1.573l-1.087-6.617-1.073 6.617h-1.565l-1.272-9.953h1.531l.711 6.494 1.019-6.494h1.285zm9.644 3.425h-1.648v-7.937l-2.543.93v-1.435l4.088-1.511h.103zm12.057-3.787q0 .964-.226 1.702a3.4 3.4 0 0 1-.636 1.231 2.7 2.7 0 0 1-1.018.745 3.5 3.5 0 0 1-1.354.253q-.744 0-1.346-.253a2.74 2.74 0 0 1-1.026-.745 3.6 3.6 0 0 1-.649-1.231q-.226-.738-.226-1.702v-2.379q0-.964.226-1.695.225-.74.642-1.231a2.7 2.7 0 0 1 1.019-.752q.601-.252 1.347-.253.751 0 1.353.253.602.254 1.019.752.424.492.649 1.231.226.73.226 1.695zm-4.84-.622 3.185-2.372q-.054-1.019-.451-1.504-.39-.492-1.141-.492-.8 0-1.197.567-.396.567-.396 1.743zm3.199-1.087-3.185 2.372q.123 1.955 1.592 1.955 1.593 0 1.593-2.331zM702.552 184h-6.686v-1.128l3.241-3.534q.41-.458.683-.807a5 5 0 0 0 .445-.649q.163-.294.232-.547t.068-.513q0-.342-.109-.629a1.34 1.34 0 0 0-.301-.499 1.3 1.3 0 0 0-.471-.328 1.6 1.6 0 0 0-.616-.116q-.888 0-1.312.485-.417.486-.417 1.34h-1.641q0-.65.233-1.223.239-.582.676-1.012a3.2 3.2 0 0 1 1.074-.677 3.8 3.8 0 0 1 1.415-.253q.738 0 1.312.212t.971.595q.396.376.601.895.206.52.206 1.142 0 .465-.151.902a4.4 4.4 0 0 1-.417.862 7 7 0 0 1-.636.868q-.369.43-.799.888l-2.256 2.42h4.655z"/><rect width="120" height="34" x="599" y="162" stroke="#111" stroke-width="2" rx="4"/><rect width="71" height="24" x="623.5" y="202" fill="#c11f09" rx="12"/><path fill="#fff" d="M637.381 213.285h.978q.43 0 .752-.109a1.5 1.5 0 0 0 .533-.322q.212-.204.314-.485a1.8 1.8 0 0 0 .11-.629q0-.724-.383-1.114-.376-.397-1.142-.397-.334 0-.622.103a1.5 1.5 0 0 0-.492.28 1.3 1.3 0 0 0-.321.445 1.4 1.4 0 0 0-.116.588h-1.634q0-.588.232-1.087.24-.5.656-.862a3.1 3.1 0 0 1 1.005-.574 3.7 3.7 0 0 1 1.272-.212q.704 0 1.292.185.588.177 1.005.533.417.355.649.889.233.526.233 1.223 0 .294-.089.602-.09.307-.274.595a2.5 2.5 0 0 1-1.107.957q.452.156.759.403.307.246.499.554.19.3.273.649.082.348.082.711 0 .697-.253 1.244a2.6 2.6 0 0 1-.704.923 3.2 3.2 0 0 1-1.053.567 4.3 4.3 0 0 1-1.312.192q-.65 0-1.237-.178a3.2 3.2 0 0 1-1.04-.526 2.7 2.7 0 0 1-.71-.875 2.66 2.66 0 0 1-.267-1.217h1.634q0 .328.116.608.116.274.328.472.219.192.52.301.3.11.676.109.78 0 1.224-.41.451-.417.451-1.203 0-.43-.13-.739a1.26 1.26 0 0 0-.376-.512 1.5 1.5 0 0 0-.581-.301 2.9 2.9 0 0 0-.772-.096h-.978zm14.73 5.715h-6.686v-1.128l3.241-3.534q.41-.458.683-.807a5 5 0 0 0 .445-.649q.163-.294.232-.547.068-.254.068-.513 0-.342-.109-.629a1.34 1.34 0 0 0-.301-.499 1.3 1.3 0 0 0-.471-.328 1.6 1.6 0 0 0-.616-.116q-.889 0-1.312.485-.417.486-.417 1.34h-1.641q0-.65.233-1.223.239-.582.676-1.012a3.2 3.2 0 0 1 1.074-.677 3.8 3.8 0 0 1 1.415-.253q.738 0 1.312.212t.971.595q.397.376.601.895.206.52.206 1.142 0 .465-.151.902a4.4 4.4 0 0 1-.417.862 7.4 7.4 0 0 1-.636.868q-.369.43-.799.888l-2.256 2.42h4.655zm10.136-3.787q0 .964-.226 1.702a3.4 3.4 0 0 1-.635 1.231 2.7 2.7 0 0 1-1.019.745 3.5 3.5 0 0 1-1.353.253q-.745 0-1.347-.253a2.7 2.7 0 0 1-1.025-.745 3.6 3.6 0 0 1-.65-1.231q-.225-.738-.225-1.702v-2.379q0-.964.225-1.695.226-.74.643-1.231a2.7 2.7 0 0 1 1.018-.752q.601-.252 1.347-.253.751 0 1.354.253.601.254 1.018.752.424.492.649 1.231.226.73.226 1.695zm-4.84-.622 3.186-2.372q-.055-1.019-.451-1.504-.39-.492-1.142-.492-.8 0-1.196.567-.397.567-.397 1.743zm3.199-1.087-3.185 2.372q.123 1.955 1.593 1.955 1.592 0 1.592-2.331zm6.281-1.9.041.779q.219-.431.588-.67.369-.246.889-.246.471 0 .779.191.315.185.472.581.218-.356.56-.56.342-.212.827-.212.363 0 .663.123.308.116.52.376.218.26.335.663.123.403.123.971v5.4h-1.518v-5.414q0-.444-.191-.608a.68.68 0 0 0-.479-.171q-.28 0-.444.136a.74.74 0 0 0-.239.349V219h-1.484v-5.414q0-.43-.177-.602-.17-.177-.472-.177-.287 0-.451.123a.8.8 0 0 0-.253.335V219h-1.518v-7.396zm13.93 5.085h-3.11l-.684 2.311h-1.695l3.233-9.953h1.443l3.171 9.953h-1.688zm-2.693-1.401h2.283l-1.128-3.903z"/><rect width="120" height="34" x="599" y="47" fill="#fff" rx="4"/><path fill="#000" d="M620.63 66.437q0-.356-.151-.623a1.4 1.4 0 0 0-.417-.478 2.7 2.7 0 0 0-.642-.355 8 8 0 0 0-.807-.288 9 9 0 0 1-1.162-.424 4.6 4.6 0 0 1-1.019-.615 3.2 3.2 0 0 1-.724-.854 2.3 2.3 0 0 1-.274-1.135q0-.642.274-1.148a2.7 2.7 0 0 1 .745-.869q.465-.355 1.08-.546t1.285-.192q.718 0 1.34.226.629.219 1.094.622.471.396.745.957.274.554.28 1.23h-1.641a2.2 2.2 0 0 0-.164-.683q-.123-.315-.355-.54a1.5 1.5 0 0 0-.554-.349 2.2 2.2 0 0 0-.759-.123q-.37 0-.683.096a1.6 1.6 0 0 0-.547.28q-.225.184-.356.444-.129.26-.129.588 0 .349.177.609.179.252.465.444t.656.335q.376.136.78.253a8 8 0 0 1 1.189.458q.567.267.998.65.43.376.684.874.252.499.253 1.142 0 .663-.281 1.169-.28.506-.751.847-.473.343-1.094.52a4.9 4.9 0 0 1-2.208.082 4.3 4.3 0 0 1-.868-.267 4 4 0 0 1-.766-.437 3.3 3.3 0 0 1-.622-.609 3 3 0 0 1-.41-.772 3 3 0 0 1-.157-.943h1.647q.035.45.198.786.164.335.438.56.273.22.635.335.37.11.814.11.369 0 .69-.09.322-.088.561-.259a1.3 1.3 0 0 0 .376-.43q.137-.26.137-.589m9.746.252h-3.11L626.582 69h-1.695l3.233-9.953h1.443L632.734 69h-1.688zm-2.693-1.4h2.283l-1.128-3.904zm9.896-6.242 1.238 4.3 1.367-4.3h2.037V69h-1.545v-3.418l.096-4.361-1.531 4.771h-.862l-1.387-4.607.095 4.197V69h-1.545v-9.953zM645.644 69v-9.953h2.434q1.024.006 1.839.342a3.9 3.9 0 0 1 1.387.943q.575.609.882 1.456.307.84.315 1.866v.752a5.6 5.6 0 0 1-.315 1.873 4.2 4.2 0 0 1-.875 1.45 3.9 3.9 0 0 1-1.374.936q-.806.335-1.811.335zm1.668-8.627v7.308h.814q.677-.007 1.182-.24.507-.24.841-.663.342-.43.506-1.032.17-.601.178-1.34v-.765a5 5 0 0 0-.178-1.313 2.8 2.8 0 0 0-.506-1.025 2.3 2.3 0 0 0-.861-.677q-.513-.246-1.21-.253zM662.199 69h-6.685v-1.128l3.24-3.534q.41-.457.684-.807.279-.355.444-.65.164-.293.232-.546a2 2 0 0 0 .069-.513 1.8 1.8 0 0 0-.11-.629 1.3 1.3 0 0 0-.301-.499 1.3 1.3 0 0 0-.471-.328 1.6 1.6 0 0 0-.615-.116q-.889 0-1.313.485-.417.486-.417 1.34h-1.641q0-.649.233-1.223.239-.582.677-1.012a3.2 3.2 0 0 1 1.073-.677 3.8 3.8 0 0 1 1.415-.253q.738 0 1.312.212t.971.595q.396.375.602.895t.205 1.142q0 .465-.151.902-.15.431-.417.862a7 7 0 0 1-.635.868q-.37.43-.8.888l-2.256 2.42h4.655zm8.168 0h-1.648v-7.937l-2.543.93v-1.435l4.088-1.511h.103zm12.303-1.244q-.253.3-.595.554a4 4 0 0 1-.766.437q-.423.185-.923.287a5 5 0 0 1-1.052.103q-.896 0-1.586-.349a3.5 3.5 0 0 1-1.169-.95 4.4 4.4 0 0 1-.725-1.429 6.3 6.3 0 0 1-.253-1.764v-1.23q0-.943.246-1.764a4.5 4.5 0 0 1 .704-1.428 3.4 3.4 0 0 1 1.135-.957q.67-.356 1.531-.356.773 0 1.381.212.61.212 1.046.615.438.397.691.971.26.574.328 1.285h-1.614a3.2 3.2 0 0 0-.191-.724 1.7 1.7 0 0 0-.349-.547 1.4 1.4 0 0 0-.533-.342 2 2 0 0 0-.731-.123q-.52 0-.896.26a2 2 0 0 0-.615.69 3.3 3.3 0 0 0-.362 1.005 6 6 0 0 0-.123 1.19v1.243q.006.623.123 1.19.123.567.376 1.005.26.43.663.69t.97.267q.233 0 .479-.028.246-.033.465-.102.225-.07.41-.17.184-.111.301-.267l.013-1.99h-1.797v-1.278h3.404zM690.543 69h-1.648v-7.937l-2.542.93v-1.435l4.087-1.511h.103zm11.872-7.328q0 .732-.376 1.306a2.6 2.6 0 0 1-1.025.895 3 3 0 0 1 1.176.97q.212.308.321.677.116.363.116.773 0 .69-.253 1.224a2.6 2.6 0 0 1-.69.895 3.1 3.1 0 0 1-1.032.54 4.2 4.2 0 0 1-1.265.185q-.69 0-1.292-.185a3 3 0 0 1-1.032-.54 2.6 2.6 0 0 1-.691-.895 2.9 2.9 0 0 1-.246-1.224q0-.41.11-.78.115-.368.321-.676.212-.308.506-.554.3-.245.67-.41a2.57 2.57 0 0 1-1.012-.895 2.36 2.36 0 0 1-.369-1.306 2.9 2.9 0 0 1 .225-1.176q.226-.52.622-.868.403-.356.958-.533a3.8 3.8 0 0 1 1.209-.185q.657 0 1.21.185.561.177.971.533.411.349.636.868.232.513.232 1.176m-1.422 4.539q0-.376-.116-.684a1.5 1.5 0 0 0-.328-.526 1.4 1.4 0 0 0-.513-.335 1.7 1.7 0 0 0-.663-.123q-.369 0-.67.123-.294.117-.505.335a1.6 1.6 0 0 0-.322.526 2 2 0 0 0-.109.684q0 .766.431 1.196.43.424 1.189.424.355 0 .649-.11.301-.109.513-.32t.328-.507q.116-.3.116-.683m-.211-4.484q0-.33-.103-.602a1.4 1.4 0 0 0-.287-.478 1.3 1.3 0 0 0-.451-.308 1.5 1.5 0 0 0-.575-.11q-.32 0-.581.103a1.15 1.15 0 0 0-.43.3q-.178.192-.274.473-.095.273-.095.622 0 .341.095.622.103.274.281.471.184.192.444.301.26.11.581.11.315 0 .574-.11a1.26 1.26 0 0 0 .718-.772q.102-.281.103-.622"/><rect width="120" height="34" x="599" y="47" stroke="#111" stroke-width="2" rx="4"/><rect width="61" height="24" x="628.5" y="87" fill="#c11f09" rx="12"/><path fill="#fff" d="M642.425 98.285h.978q.43 0 .752-.11.321-.116.533-.32.212-.206.314-.486a1.8 1.8 0 0 0 .11-.629q0-.724-.383-1.114-.376-.397-1.142-.397-.334 0-.622.103a1.5 1.5 0 0 0-.492.28 1.3 1.3 0 0 0-.321.445q-.116.26-.116.587h-1.634q0-.587.232-1.086.24-.5.657-.862a3.1 3.1 0 0 1 1.004-.574 3.7 3.7 0 0 1 1.272-.212q.704 0 1.292.185.588.177 1.005.533.417.355.649.889.233.525.233 1.223 0 .294-.089.602a2.3 2.3 0 0 1-.274.594 2.5 2.5 0 0 1-1.107.958q.452.156.759.403.307.246.499.554.19.3.273.649.082.348.082.711 0 .697-.253 1.244a2.6 2.6 0 0 1-.704.923 3.2 3.2 0 0 1-1.053.567 4.3 4.3 0 0 1-1.312.192q-.65 0-1.237-.178a3.2 3.2 0 0 1-1.039-.526 2.65 2.65 0 0 1-.711-.875 2.66 2.66 0 0 1-.267-1.217h1.634q0 .328.116.608.116.274.328.472.219.192.52.301.3.11.676.109.78 0 1.224-.41.451-.417.451-1.203 0-.43-.13-.739a1.26 1.26 0 0 0-.376-.512 1.5 1.5 0 0 0-.581-.301 2.9 2.9 0 0 0-.772-.096h-.978zm14.778 1.928q0 .963-.226 1.702a3.4 3.4 0 0 1-.635 1.231 2.7 2.7 0 0 1-1.019.745 3.5 3.5 0 0 1-1.353.253q-.745 0-1.347-.253a2.74 2.74 0 0 1-1.026-.745 3.6 3.6 0 0 1-.649-1.231q-.226-.739-.226-1.702v-2.379q0-.965.226-1.695.226-.739.643-1.23a2.7 2.7 0 0 1 1.018-.753q.601-.253 1.347-.253.751 0 1.353.253.602.254 1.019.752.424.493.649 1.23.226.732.226 1.696zm-4.84-.622 3.186-2.372q-.055-1.019-.452-1.504-.389-.492-1.141-.492-.8 0-1.196.567-.397.568-.397 1.743zm3.199-1.087-3.185 2.372q.123 1.955 1.593 1.955 1.592 0 1.592-2.331zm6.281-1.9.041.779q.219-.43.588-.67.369-.246.889-.246.471 0 .779.191.314.185.471.581a1.65 1.65 0 0 1 .561-.56 1.54 1.54 0 0 1 .827-.212q.363 0 .663.123.308.116.52.376.218.26.335.663.123.403.123.97V104h-1.518v-5.414q0-.445-.191-.608a.68.68 0 0 0-.479-.171q-.28 0-.444.136a.74.74 0 0 0-.239.349V104h-1.484v-5.414q0-.43-.177-.602-.172-.177-.472-.177-.288 0-.451.123a.8.8 0 0 0-.253.335V104h-1.518v-7.397zm13.93 5.085h-3.11l-.684 2.311h-1.695l3.233-9.953h1.442l3.172 9.953h-1.688zm-2.693-1.401h2.283l-1.128-3.903z"/><rect width="89" height="34" x="599" y="277" fill="#fff" rx="4"/><path fill="#000" d="M620.925 294.536h-4.095v3.124h4.792V299h-6.439v-9.953h6.391v1.353h-4.744v2.81h4.095zm10.977 1.408q-.069.718-.342 1.313a3.3 3.3 0 0 1-.725 1.012 3.2 3.2 0 0 1-1.066.649 3.9 3.9 0 0 1-1.36.226q-.91 0-1.586-.349a3.3 3.3 0 0 1-1.128-.957 4.2 4.2 0 0 1-.677-1.408 6.6 6.6 0 0 1-.232-1.723v-1.36a6.3 6.3 0 0 1 .239-1.716 4.3 4.3 0 0 1 .684-1.415 3.3 3.3 0 0 1 1.134-.957q.677-.356 1.573-.356.786 0 1.401.233.615.232 1.053.656t.697 1.032.335 1.354h-1.641a3.1 3.1 0 0 0-.171-.793 1.8 1.8 0 0 0-.341-.615 1.4 1.4 0 0 0-.554-.397 2 2 0 0 0-.779-.137q-.554 0-.93.253a1.9 1.9 0 0 0-.609.684 3.3 3.3 0 0 0-.335.984 7 7 0 0 0-.095 1.176v1.374q0 .643.095 1.21.103.561.329.984.226.424.601.67.376.246.937.246.86 0 1.312-.485.452-.492.533-1.388zm10.088 0a4 4 0 0 1-.342 1.313 3.3 3.3 0 0 1-.724 1.012 3.2 3.2 0 0 1-1.067.649q-.608.226-1.36.226-.91 0-1.586-.349a3.3 3.3 0 0 1-1.128-.957 4.2 4.2 0 0 1-.677-1.408 6.6 6.6 0 0 1-.232-1.723v-1.36a6.3 6.3 0 0 1 .239-1.716 4.3 4.3 0 0 1 .684-1.415 3.3 3.3 0 0 1 1.134-.957q.678-.356 1.573-.356.786 0 1.401.233.615.232 1.053.656t.697 1.032.335 1.354h-1.641a3.2 3.2 0 0 0-.17-.793 1.8 1.8 0 0 0-.342-.615 1.4 1.4 0 0 0-.554-.397 2 2 0 0 0-.779-.137q-.554 0-.93.253a1.9 1.9 0 0 0-.608.684 3.2 3.2 0 0 0-.335.984 7 7 0 0 0-.096 1.176v1.374q0 .643.096 1.21.102.561.328.984.226.424.601.67.376.246.937.246.861 0 1.312-.485.452-.492.534-1.388zm8.277-6.938v1.394h-.11q-.84 0-1.449.24a2.9 2.9 0 0 0-1.005.635 2.8 2.8 0 0 0-.608.944 4.2 4.2 0 0 0-.26 1.141q.164-.184.376-.348a2.6 2.6 0 0 1 .472-.301q.26-.137.56-.212.301-.082.643-.082.732 0 1.265.28.54.28.888.745.35.459.52 1.06.171.594.171 1.237 0 .718-.219 1.34-.212.615-.622 1.073a2.9 2.9 0 0 1-1.012.725q-.602.26-1.367.26-.813 0-1.436-.322a3.2 3.2 0 0 1-1.046-.854 3.9 3.9 0 0 1-.635-1.244 5 5 0 0 1-.219-1.477v-.636q0-.73.109-1.428.11-.705.349-1.326.246-.623.629-1.142.39-.527.93-.902a4.4 4.4 0 0 1 1.264-.588 5.7 5.7 0 0 1 1.627-.212zm-1.771 4.73q-.28 0-.54.089a1.7 1.7 0 0 0-.478.239 1.886 1.886 0 0 0-.663.848v.465q0 .609.129 1.066.138.452.37.759.232.308.533.465.3.15.642.15.383 0 .684-.15t.506-.417a1.9 1.9 0 0 0 .321-.643q.11-.375.11-.82 0-.417-.103-.786a2 2 0 0 0-.308-.656 1.5 1.5 0 0 0-.505-.445 1.44 1.44 0 0 0-.698-.164m13.383 1.477q0 .964-.225 1.702a3.4 3.4 0 0 1-.636 1.231 2.7 2.7 0 0 1-1.019.745 3.5 3.5 0 0 1-1.353.253q-.745 0-1.347-.253a2.7 2.7 0 0 1-1.025-.745 3.6 3.6 0 0 1-.65-1.231q-.225-.738-.225-1.702v-2.379q0-.964.225-1.695.226-.74.643-1.231a2.7 2.7 0 0 1 1.019-.752q.602-.252 1.346-.253.753 0 1.354.253.601.254 1.018.752.424.492.65 1.231.225.73.225 1.695zm-4.839-.622 3.185-2.372q-.054-1.019-.451-1.504-.39-.492-1.142-.492-.8 0-1.196.567t-.396 1.743zm3.199-1.087-3.186 2.372q.123 1.955 1.593 1.955 1.593 0 1.593-2.331zm11.544-1.832q0 .732-.376 1.306a2.6 2.6 0 0 1-1.025.895q.369.171.663.417.3.246.512.554.213.307.322.677.116.362.116.772 0 .69-.253 1.224a2.6 2.6 0 0 1-.69.895 3 3 0 0 1-1.033.54 4.2 4.2 0 0 1-1.264.185q-.691 0-1.292-.185a3 3 0 0 1-1.033-.54 2.6 2.6 0 0 1-.69-.895 2.9 2.9 0 0 1-.246-1.224q0-.41.109-.779.117-.37.322-.677.212-.308.505-.554.301-.246.67-.41a2.6 2.6 0 0 1-1.011-.895 2.36 2.36 0 0 1-.369-1.306q0-.663.225-1.176a2.4 2.4 0 0 1 .622-.868q.403-.356.957-.533a3.8 3.8 0 0 1 1.21-.185q.657 0 1.21.185.56.177.971.533.41.349.636.868.232.513.232 1.176m-1.422 4.539q0-.376-.116-.684a1.5 1.5 0 0 0-.328-.526 1.4 1.4 0 0 0-.513-.335 1.7 1.7 0 0 0-.663-.123q-.369 0-.67.123a1.4 1.4 0 0 0-.506.335 1.6 1.6 0 0 0-.321.526 2 2 0 0 0-.109.684q0 .765.43 1.196.43.424 1.19.424.355 0 .649-.109a1.4 1.4 0 0 0 .513-.322q.211-.212.328-.505.116-.301.116-.684m-.212-4.484q0-.329-.102-.602a1.4 1.4 0 0 0-.287-.479 1.3 1.3 0 0 0-.452-.307 1.5 1.5 0 0 0-.574-.11q-.321 0-.581.103a1.16 1.16 0 0 0-.431.301 1.3 1.3 0 0 0-.273.471q-.096.274-.096.623 0 .341.096.622.103.273.28.471.184.192.445.301.259.11.581.109.314 0 .574-.109a1.2 1.2 0 0 0 .437-.301q.185-.198.281-.471.102-.281.102-.622"/><rect width="89" height="34" x="599" y="277" stroke="#111" stroke-width="2" rx="4"/><rect width="61" height="24" x="613" y="317" fill="#c11f09" rx="12"/><path fill="#fff" d="M629.646 334h-1.647v-7.937l-2.543.93v-1.435l4.087-1.511h.103zm11.052-3.534h1.251v1.319h-1.251V334h-1.634v-2.215h-4.32l-.041-.991 4.307-6.747h1.688zm-4.313 0h2.679v-4.238l-.177.321zm9.958-3.862.041.779q.219-.431.588-.67.369-.246.889-.246.471 0 .779.191.314.185.471.581.219-.356.561-.56.342-.212.827-.212.363 0 .663.123.308.116.52.376.218.26.335.663.123.403.123.971v5.4h-1.518v-5.414q0-.444-.191-.608a.68.68 0 0 0-.479-.171q-.28 0-.444.136a.74.74 0 0 0-.239.349V334h-1.484v-5.414q0-.43-.177-.602-.172-.177-.472-.177-.288 0-.451.123a.8.8 0 0 0-.253.335V334h-1.518v-7.396zm13.93 5.085h-3.11l-.684 2.311h-1.695l3.233-9.953h1.442l3.172 9.953h-1.688zm-2.693-1.401h2.283l-1.128-3.903z"/><rect width="99" height="34" x="599" y="392" fill="#fff" rx="4"/><path fill="#000" d="M616.848 412.66h4.744V414h-6.385v-9.953h1.641zm13.458-1.223q0-.356-.15-.623a1.4 1.4 0 0 0-.417-.478 2.7 2.7 0 0 0-.643-.356 8 8 0 0 0-.807-.287 9.5 9.5 0 0 1-1.162-.423 4.6 4.6 0 0 1-1.018-.616 3.2 3.2 0 0 1-.725-.854 2.3 2.3 0 0 1-.273-1.135q0-.642.273-1.148a2.7 2.7 0 0 1 .745-.869q.465-.356 1.08-.546a4.3 4.3 0 0 1 1.285-.192q.719 0 1.34.226.63.219 1.094.622.472.396.745.957a2.8 2.8 0 0 1 .28 1.23h-1.64a2.3 2.3 0 0 0-.164-.683 1.5 1.5 0 0 0-.356-.54 1.5 1.5 0 0 0-.553-.349 2.2 2.2 0 0 0-.759-.123q-.369 0-.684.096a1.7 1.7 0 0 0-.547.28q-.226.185-.355.444a1.3 1.3 0 0 0-.13.588q0 .349.178.609.177.252.465.444.287.191.656.335.375.136.779.253.622.185 1.19.458.567.267.998.649.43.377.683.875.253.499.253 1.142 0 .663-.28 1.169t-.752.847a3.5 3.5 0 0 1-1.094.52 4.9 4.9 0 0 1-2.208.082 4.3 4.3 0 0 1-.868-.267 4 4 0 0 1-.766-.437 3.3 3.3 0 0 1-.622-.608 3 3 0 0 1-.41-.773 3 3 0 0 1-.157-.943h1.647q.034.45.199.786.164.335.437.56.273.22.636.335.369.11.813.11.37 0 .691-.089t.56-.26q.24-.177.376-.431.137-.26.137-.587m6.862-7.39 1.237 4.3 1.367-4.3h2.037V414h-1.545v-3.418l.096-4.361-1.531 4.771h-.862l-1.387-4.607.095 4.197V414h-1.544v-9.953zm13.055-.041v1.394h-.11q-.84 0-1.449.24a2.9 2.9 0 0 0-1.005.635 2.8 2.8 0 0 0-.608.944 4.2 4.2 0 0 0-.26 1.141q.164-.184.376-.348.211-.17.472-.301.26-.137.56-.212.301-.082.643-.082.731 0 1.264.28.54.28.889.745.35.459.52 1.06.171.594.171 1.237 0 .718-.219 1.34-.212.615-.622 1.073a2.9 2.9 0 0 1-1.012.725q-.602.26-1.367.26-.813 0-1.436-.322a3.2 3.2 0 0 1-1.046-.854 3.9 3.9 0 0 1-.635-1.244 5 5 0 0 1-.219-1.477v-.636q0-.73.109-1.428.11-.705.349-1.326.246-.623.629-1.142.39-.527.929-.902a4.4 4.4 0 0 1 1.265-.588 5.7 5.7 0 0 1 1.627-.212zm-1.771 4.73q-.28 0-.54.089a1.7 1.7 0 0 0-.478.239 1.886 1.886 0 0 0-.663.848v.465q0 .609.129 1.066.138.452.37.759.231.308.533.465.3.15.642.15.383 0 .684-.15.3-.15.506-.417a1.9 1.9 0 0 0 .321-.643 3 3 0 0 0 .109-.82q0-.417-.102-.786a2 2 0 0 0-.308-.656 1.5 1.5 0 0 0-.506-.445 1.44 1.44 0 0 0-.697-.164m6.869 5.264v-9.953h2.433q1.026.006 1.839.342.82.334 1.388.943.575.609.882 1.456.308.841.314 1.866v.752a5.6 5.6 0 0 1-.314 1.873 4.2 4.2 0 0 1-.875 1.45 3.95 3.95 0 0 1-1.374.936q-.807.335-1.812.335zm1.668-8.627v7.308h.813q.676-.007 1.183-.24.505-.238.841-.663.341-.43.505-1.032.171-.602.178-1.34v-.765a5 5 0 0 0-.178-1.313 2.9 2.9 0 0 0-.505-1.025 2.3 2.3 0 0 0-.862-.677q-.513-.246-1.21-.253zm13.67 6.064q0-.356-.151-.623a1.4 1.4 0 0 0-.417-.478 2.7 2.7 0 0 0-.642-.356 8 8 0 0 0-.807-.287 9.5 9.5 0 0 1-1.162-.423 4.6 4.6 0 0 1-1.018-.616 3.2 3.2 0 0 1-.725-.854 2.3 2.3 0 0 1-.273-1.135q0-.642.273-1.148a2.7 2.7 0 0 1 .745-.869q.465-.356 1.08-.546a4.3 4.3 0 0 1 1.285-.192q.718 0 1.34.226.629.219 1.094.622.471.396.745.957a2.8 2.8 0 0 1 .28 1.23h-1.64a2.3 2.3 0 0 0-.164-.683 1.5 1.5 0 0 0-.356-.54 1.5 1.5 0 0 0-.554-.349 2.2 2.2 0 0 0-.758-.123q-.369 0-.684.096t-.547.28q-.226.185-.355.444a1.3 1.3 0 0 0-.13.588q0 .349.178.609.177.252.464.444.288.191.657.335.375.136.779.253a8 8 0 0 1 1.189.458q.568.267.998.649.431.377.684.875.253.499.253 1.142 0 .663-.28 1.169t-.752.847a3.5 3.5 0 0 1-1.094.52 4.9 4.9 0 0 1-2.208.082 4.3 4.3 0 0 1-.868-.267 4 4 0 0 1-.766-.437 3.3 3.3 0 0 1-.622-.608 3 3 0 0 1-.41-.773 3 3 0 0 1-.157-.943h1.647q.035.45.198.786.165.335.438.56.273.22.636.335.369.11.813.11a2.6 2.6 0 0 0 .691-.089q.321-.089.56-.26.24-.177.376-.431.137-.26.137-.587m6.718 1.223h4.744V414h-6.385v-9.953h1.641z"/><rect width="99" height="34" x="599" y="392" stroke="#111" stroke-width="2" rx="4"/><rect width="81" height="24" x="608" y="432" fill="#c11f09" rx="12"/><path fill="#fff" d="M626.527 445.213q0 .964-.226 1.702a3.4 3.4 0 0 1-.636 1.231 2.7 2.7 0 0 1-1.018.745 3.5 3.5 0 0 1-1.354.253q-.745 0-1.347-.253a2.74 2.74 0 0 1-1.025-.745 3.6 3.6 0 0 1-.649-1.231q-.226-.738-.226-1.702v-2.379q0-.964.226-1.695.225-.74.642-1.231a2.7 2.7 0 0 1 1.019-.752q.602-.252 1.346-.253.753 0 1.354.253.602.254 1.019.752.423.492.649 1.231.226.73.226 1.695zm-4.84-.622 3.185-2.372q-.054-1.019-.451-1.504-.39-.492-1.142-.492-.799 0-1.196.567t-.396 1.743zm3.199-1.087-3.186 2.372q.123 1.955 1.593 1.955 1.593 0 1.593-2.331zm7.381 4.518q0-.238.075-.451.082-.212.233-.362.15-.158.369-.246.225-.089.513-.089.287 0 .505.089.226.089.376.246.158.15.233.362.082.213.082.451 0 .24-.082.445a.9.9 0 0 1-.233.348 1 1 0 0 1-.376.233 1.3 1.3 0 0 1-.505.089q-.288 0-.513-.089a1 1 0 0 1-.369-.233 1.1 1.1 0 0 1-.233-.348 1.3 1.3 0 0 1-.075-.445m12.912-9.016v1.394h-.11q-.84 0-1.449.24a2.9 2.9 0 0 0-1.005.635 2.8 2.8 0 0 0-.608.944 4.2 4.2 0 0 0-.26 1.141q.164-.184.376-.348.211-.17.472-.301.26-.137.56-.212.301-.082.643-.082.731 0 1.264.28.54.28.889.745.348.459.52 1.06.17.594.17 1.237 0 .718-.218 1.34a3.1 3.1 0 0 1-.622 1.073 2.9 2.9 0 0 1-1.012.725q-.602.26-1.367.26-.814 0-1.436-.322a3.2 3.2 0 0 1-1.046-.854 3.9 3.9 0 0 1-.635-1.244 5 5 0 0 1-.219-1.477v-.636q0-.73.109-1.428.11-.705.349-1.326.246-.623.629-1.142a4 4 0 0 1 .929-.902 4.4 4.4 0 0 1 1.265-.588 5.7 5.7 0 0 1 1.627-.212zm-1.771 4.73q-.28 0-.54.089a1.79 1.79 0 0 0-.868.609 2 2 0 0 0-.274.478v.465q0 .609.13 1.066.137.452.369.759a1.6 1.6 0 0 0 .534.465q.3.15.642.15.382 0 .684-.15.3-.15.506-.417a1.9 1.9 0 0 0 .321-.643 3 3 0 0 0 .109-.82q0-.417-.102-.786a2 2 0 0 0-.308-.656 1.5 1.5 0 0 0-.506-.445 1.44 1.44 0 0 0-.697-.164m7.265.328.54-5.017h5.325v1.463h-3.971l-.253 2.358q.239-.137.635-.266.397-.13.916-.13.705 0 1.258.232.56.232.944.67.383.43.587 1.053.206.615.206 1.394 0 .691-.199 1.299a2.9 2.9 0 0 1-.594 1.053q-.398.444-1.005.704-.608.26-1.436.26-.622 0-1.196-.178a3.3 3.3 0 0 1-1.012-.533 2.9 2.9 0 0 1-.731-.882 2.95 2.95 0 0 1-.322-1.224h1.579q.096.738.541 1.128.444.383 1.141.383.404 0 .704-.15.301-.151.499-.417a1.9 1.9 0 0 0 .294-.65q.103-.382.103-.834 0-.43-.116-.793a1.7 1.7 0 0 0-.335-.622 1.6 1.6 0 0 0-.561-.417q-.335-.15-.772-.15-.294 0-.506.048a1.5 1.5 0 0 0-.383.123q-.164.075-.301.184a6 6 0 0 0-.273.233zm10.758-2.46.041.779q.219-.431.588-.67.369-.246.889-.246.471 0 .779.191.315.185.472.581a1.64 1.64 0 0 1 .56-.56q.342-.213.827-.212.363 0 .663.123.309.116.52.376.218.26.335.663.123.403.123.971v5.4h-1.518v-5.414q0-.444-.191-.608a.68.68 0 0 0-.478-.171q-.28 0-.445.136a.74.74 0 0 0-.239.349V449h-1.483v-5.414q0-.43-.178-.602-.17-.177-.472-.177-.287 0-.451.123a.8.8 0 0 0-.253.335V449h-1.518v-7.396zm13.93 5.085h-3.11l-.684 2.311h-1.695l3.233-9.953h1.443L677.72 449h-1.689zm-2.693-1.401h2.283l-1.128-3.903z"/><rect width="190" height="34" x="599" y="507" fill="#fff" rx="4"/><path fill="#000" d="m621.627 519.047.013 6.665a4 4 0 0 1-.246 1.401 3.2 3.2 0 0 1-.67 1.08 2.9 2.9 0 0 1-1.046.698 3.6 3.6 0 0 1-1.367.246 3.5 3.5 0 0 1-1.34-.246 3 3 0 0 1-1.032-.691 3.2 3.2 0 0 1-.67-1.08 4.1 4.1 0 0 1-.246-1.408l.014-6.665h1.613l.014 6.665q.006.458.116.841t.314.663q.206.274.506.43.308.151.711.151.41 0 .725-.151.314-.157.526-.43.212-.28.321-.663t.117-.841l.013-6.665zm8.474 7.95a.74.74 0 0 0-.075-.335.7.7 0 0 0-.273-.28 2 2 0 0 0-.533-.239 7 7 0 0 0-.862-.212 9 9 0 0 1-1.189-.328 4 4 0 0 1-.909-.458 2 2 0 0 1-.581-.616 1.6 1.6 0 0 1-.205-.82q0-.452.211-.855.213-.41.602-.717.396-.307.957-.486.567-.184 1.265-.184.738 0 1.319.184.588.185.991.506.404.315.615.745.219.43.219.923h-1.634a.94.94 0 0 0-.095-.417 1.04 1.04 0 0 0-.287-.362 1.4 1.4 0 0 0-.479-.246 2 2 0 0 0-.649-.096q-.37 0-.643.082-.267.076-.444.205a.8.8 0 0 0-.267.294.88.88 0 0 0-.02.691.7.7 0 0 0 .246.273q.177.123.492.226.315.095.813.184.697.123 1.251.308.561.184.951.451.396.267.608.636.212.362.212.854t-.226.903-.642.71a3.2 3.2 0 0 1-1.005.458 4.8 4.8 0 0 1-1.306.165 4.4 4.4 0 0 1-1.422-.212 3.3 3.3 0 0 1-1.032-.568 2.4 2.4 0 0 1-.636-.793 2.1 2.1 0 0 1-.212-.902h1.586q.02.341.178.581.157.24.403.39.247.143.547.212.302.061.609.061.759 0 1.155-.253.396-.26.396-.663m8.715 2.14a4 4 0 0 1-1.497-.274 3.5 3.5 0 0 1-1.163-.752 3.4 3.4 0 0 1-.745-1.128 3.7 3.7 0 0 1-.266-1.415v-.28q0-.881.28-1.586.286-.704.759-1.203a3.3 3.3 0 0 1 1.107-.766 3.4 3.4 0 0 1 1.333-.266q.807 0 1.422.273.615.267 1.026.759.417.486.628 1.155.213.67.212 1.47v.69h-5.127q.042.432.212.8.17.37.445.643.28.267.649.424.376.15.82.15.623 0 1.142-.246.527-.246.854-.677l.889.834a2.8 2.8 0 0 1-.458.52 3.4 3.4 0 0 1-.656.444q-.376.192-.848.308-.465.123-1.018.123m-.199-6.351a1.588 1.588 0 0 0-1.162.485 2 2 0 0 0-.396.575q-.157.334-.226.765h3.466v-.123a2.3 2.3 0 0 0-.13-.629 1.6 1.6 0 0 0-.307-.547 1.5 1.5 0 0 0-.52-.382 1.7 1.7 0 0 0-.725-.144m11.921-1.319q.198 0 .396.013a5 5 0 0 1 .711.103q.15.027.253.068l-.232 1.607a6.7 6.7 0 0 0-1.484-.171q-.82 0-1.326.342a2 2 0 0 0-.738.95V529h-1.634v-7.396h1.531l.075 1.155a3.4 3.4 0 0 1 1.067-.944 2.8 2.8 0 0 1 1.381-.348M670.352 529a1.6 1.6 0 0 1-.116-.321 6 6 0 0 1-.076-.397q-.17.178-.389.335-.213.15-.479.267a3 3 0 0 1-.567.184 3 3 0 0 1-.65.069 3.3 3.3 0 0 1-1.066-.164 2.6 2.6 0 0 1-.813-.465 2.08 2.08 0 0 1-.705-1.579q0-1.19.882-1.819.889-.629 2.543-.629h1.197v-.485q0-.588-.397-.93-.396-.348-1.121-.348-.328 0-.574.082a1.2 1.2 0 0 0-.41.212.9.9 0 0 0-.247.321 1 1 0 0 0-.082.396h-1.633q0-.43.198-.833.205-.41.595-.725.389-.321.95-.513a4 4 0 0 1 1.292-.191q.656 0 1.217.164.56.157.97.478.41.315.643.793.232.472.232 1.108v3.295q0 .484.069.888.074.397.212.691V529zm-1.969-1.183q.315 0 .588-.075.28-.082.499-.205a1.7 1.7 0 0 0 .383-.294q.164-.164.26-.335v-1.387h-1.04q-.997 0-1.476.321-.472.32-.472.916 0 .225.075.424a.95.95 0 0 0 .226.335q.158.137.39.218.238.082.567.082m13.814-2.44q0 .807-.192 1.497a3.7 3.7 0 0 1-.56 1.196 2.7 2.7 0 0 1-.909.786 2.6 2.6 0 0 1-1.231.281q-.628 0-1.114-.205a2.4 2.4 0 0 1-.827-.588v3.5h-1.634v-10.24h1.504l.068.745q.356-.424.841-.65a2.65 2.65 0 0 1 1.142-.232q.704 0 1.244.273.546.274.916.773.37.492.56 1.189.192.69.192 1.531zm-1.634-.144q0-.498-.103-.936a2.4 2.4 0 0 0-.314-.773 1.6 1.6 0 0 0-.54-.526 1.5 1.5 0 0 0-.779-.191q-.548 0-.903.232a1.64 1.64 0 0 0-.56.622v3.309q.205.382.553.622.356.239.923.239.452 0 .78-.198a1.6 1.6 0 0 0 .533-.533q.212-.335.307-.78.103-.444.103-.943zm11.722.144q0 .807-.191 1.497-.192.69-.561 1.196a2.7 2.7 0 0 1-.909.786 2.6 2.6 0 0 1-1.231.281q-.628 0-1.114-.205a2.4 2.4 0 0 1-.827-.588v3.5h-1.634v-10.24h1.504l.068.745q.356-.424.841-.65a2.65 2.65 0 0 1 1.142-.232q.704 0 1.244.273.547.274.916.773.369.492.561 1.189.19.69.191 1.531zm-1.634-.144q0-.498-.102-.936a2.4 2.4 0 0 0-.315-.773 1.6 1.6 0 0 0-.54-.526 1.5 1.5 0 0 0-.779-.191q-.547 0-.902.232a1.65 1.65 0 0 0-.561.622v3.309q.205.382.554.622.355.239.923.239.45 0 .779-.198.328-.198.533-.533.212-.335.308-.78a4.2 4.2 0 0 0 .102-.943zm5.549-6.733h3.999v9.146h2.256V529H696.2v-1.354h2.352v-7.786H696.2zm10.143 3.104h3.945v6.042h2.194V529h-6.139v-1.354h2.297v-4.682h-2.297zm2.16-1.915a.85.85 0 0 1 .246-.628q.247-.253.691-.253.451 0 .697.253a.84.84 0 0 1 .253.628.86.86 0 0 1-.253.636q-.246.246-.697.246-.444 0-.691-.246a.87.87 0 0 1-.246-.636m10.806 8.149q.302 0 .581-.096a1.7 1.7 0 0 0 .506-.266q.219-.171.342-.404a.96.96 0 0 0 .123-.506h1.545q.008.534-.246 1.005-.246.465-.677.814a3.3 3.3 0 0 1-.984.553 3.4 3.4 0 0 1-1.176.206q-.855 0-1.497-.294a3.1 3.1 0 0 1-1.073-.8 3.5 3.5 0 0 1-.65-1.183 4.8 4.8 0 0 1-.212-1.435v-.246q0-.76.212-1.436.22-.676.65-1.183a3.1 3.1 0 0 1 1.073-.799q.642-.301 1.49-.301.67 0 1.238.205.573.205.984.574.417.369.642.882.233.513.226 1.121h-1.545q.007-.3-.109-.567a1.3 1.3 0 0 0-.322-.465 1.6 1.6 0 0 0-.499-.315 1.7 1.7 0 0 0-.628-.116q-.513 0-.855.212-.342.205-.547.547a2.4 2.4 0 0 0-.294.766 4.7 4.7 0 0 0-.082.875v.246q0 .45.082.881.088.431.294.773.205.335.547.547.342.205.861.205M730.881 529a1.6 1.6 0 0 1-.116-.321 6 6 0 0 1-.075-.397q-.171.178-.39.335-.212.15-.479.267a3 3 0 0 1-.567.184 3 3 0 0 1-.649.069q-.588 0-1.067-.164a2.6 2.6 0 0 1-.813-.465 2.08 2.08 0 0 1-.704-1.579q0-1.19.881-1.819.89-.629 2.543-.629h1.197v-.485q0-.588-.397-.93-.396-.348-1.121-.348-.328 0-.574.082a1.2 1.2 0 0 0-.41.212.9.9 0 0 0-.246.321 1 1 0 0 0-.082.396h-1.634q0-.43.198-.833.205-.41.595-.725.39-.321.95-.513a4 4 0 0 1 1.292-.191q.657 0 1.217.164.56.157.971.478.41.315.642.793.233.472.233 1.108v3.295q0 .484.068.888.075.397.212.691V529zm-1.969-1.183q.315 0 .588-.075.28-.082.499-.205.226-.129.383-.294.164-.164.26-.335v-1.387h-1.039q-.999 0-1.477.321-.471.32-.472.916 0 .225.076.424.075.19.225.335.158.137.39.218.238.082.567.082m10.615-8.005v1.792h2.796v1.216h-2.796v3.548q0 .417.095.691.103.273.281.437.177.164.417.233.239.061.526.061.212 0 .438-.02l.444-.055q.219-.035.396-.069.185-.04.308-.075l.185 1.128a2.6 2.6 0 0 1-.431.192 4 4 0 0 1-.54.136 6 6 0 0 1-.615.082q-.315.035-.622.035a3.3 3.3 0 0 1-1.019-.151 2.1 2.1 0 0 1-.793-.478 2.3 2.3 0 0 1-.519-.834q-.185-.513-.185-1.224v-3.637h-1.805v-1.216h1.805v-1.792zm7.169 1.792h3.944v6.042h2.195V529h-6.139v-1.354h2.297v-4.682h-2.297zm2.16-1.915a.85.85 0 0 1 .246-.628q.246-.253.691-.253.451 0 .697.253a.84.84 0 0 1 .253.628.86.86 0 0 1-.253.636q-.246.246-.697.246-.445 0-.691-.246a.87.87 0 0 1-.246-.636m7.272 5.544q0-.8.232-1.49.24-.69.677-1.196a3.1 3.1 0 0 1 1.08-.793q.636-.288 1.443-.287.813 0 1.449.287.642.287 1.08.793.444.506.677 1.196.232.69.232 1.49v.144a4.7 4.7 0 0 1-.232 1.497q-.233.69-.677 1.196a3.1 3.1 0 0 1-1.073.786 3.5 3.5 0 0 1-1.443.288 3.5 3.5 0 0 1-1.456-.288 3.2 3.2 0 0 1-1.08-.786 3.6 3.6 0 0 1-.677-1.196 4.7 4.7 0 0 1-.232-1.497zm1.634.144q0 .506.102.95.11.444.328.786.226.335.568.533.342.192.813.192.459 0 .793-.192.342-.197.561-.533.225-.342.328-.786a4 4 0 0 0 .109-.95v-.144q0-.492-.109-.936a2.3 2.3 0 0 0-.328-.779 1.556 1.556 0 0 0-1.367-.732q-.465 0-.807.198-.342.199-.561.534a2.5 2.5 0 0 0-.328.779 4.2 4.2 0 0 0-.102.936zm10.232-3.773.102 1.025q.404-.553.971-.855a2.65 2.65 0 0 1 1.271-.307q.568 0 1.033.164.471.163.806.513.341.348.527.902.19.553.191 1.333V529h-1.634v-4.594q0-.457-.109-.765a1.2 1.2 0 0 0-.301-.493 1.06 1.06 0 0 0-.472-.259 2.3 2.3 0 0 0-.635-.082q-.54 0-.944.239a1.87 1.87 0 0 0-.642.649V529h-1.641v-7.396z"/><rect width="190" height="34" x="599" y="507" stroke="#111" stroke-width="2" rx="4"/><rect width="71" height="24" x="658.5" y="547" fill="#c11f09" rx="12"/><path fill="#fff" d="M675.546 554.006v1.394h-.109q-.842 0-1.449.24a2.9 2.9 0 0 0-1.005.635 2.8 2.8 0 0 0-.609.944 4.2 4.2 0 0 0-.259 1.141q.163-.185.376-.348.211-.17.471-.301.26-.137.561-.212.3-.082.642-.082.732 0 1.265.28.54.28.889.745.348.459.519 1.06.171.594.171 1.237 0 .718-.219 1.34-.211.615-.622 1.073-.41.459-1.011.725-.601.26-1.368.26-.813 0-1.435-.322a3.2 3.2 0 0 1-1.046-.854 3.9 3.9 0 0 1-.636-1.244 5 5 0 0 1-.219-1.477v-.636q0-.73.11-1.428.11-.705.348-1.326.247-.623.629-1.142.39-.527.93-.902a4.4 4.4 0 0 1 1.265-.588 5.7 5.7 0 0 1 1.627-.212zm-1.77 4.73q-.28 0-.54.089a1.7 1.7 0 0 0-.479.239 1.89 1.89 0 0 0-.663.848v.465q0 .609.13 1.066.136.452.369.759.233.308.533.465.301.15.643.15.383 0 .683-.15.302-.15.506-.417.213-.273.322-.643a3 3 0 0 0 .109-.82q0-.417-.103-.786a2 2 0 0 0-.307-.656 1.5 1.5 0 0 0-.506-.445 1.44 1.44 0 0 0-.697-.164m13.383 1.477q0 .964-.226 1.702a3.4 3.4 0 0 1-.635 1.231 2.7 2.7 0 0 1-1.019.745 3.5 3.5 0 0 1-1.354.253q-.744 0-1.346-.253a2.74 2.74 0 0 1-1.026-.745 3.6 3.6 0 0 1-.649-1.231q-.225-.738-.226-1.702v-2.379q0-.964.226-1.695.226-.74.643-1.231a2.7 2.7 0 0 1 1.018-.752q.601-.252 1.347-.253.752 0 1.353.253.602.254 1.019.752.424.492.649 1.231.226.73.226 1.695zm-4.84-.622 3.186-2.372q-.055-1.019-.452-1.504-.389-.492-1.141-.492-.8 0-1.196.567-.397.567-.397 1.743zm3.199-1.087-3.185 2.372q.123 1.955 1.592 1.955 1.593 0 1.593-2.331zm11.729 1.709q0 .964-.226 1.702a3.4 3.4 0 0 1-.635 1.231 2.7 2.7 0 0 1-1.019.745 3.5 3.5 0 0 1-1.353.253q-.745 0-1.347-.253a2.7 2.7 0 0 1-1.025-.745 3.6 3.6 0 0 1-.65-1.231q-.225-.738-.225-1.702v-2.379q0-.964.225-1.695.226-.74.643-1.231a2.7 2.7 0 0 1 1.018-.752q.601-.252 1.347-.253.751 0 1.354.253.601.254 1.018.752.424.492.649 1.231.226.73.226 1.695zm-4.84-.622 3.186-2.372q-.055-1.019-.451-1.504-.39-.492-1.142-.492-.8 0-1.196.567-.397.567-.397 1.743zm3.199-1.087-3.185 2.372q.123 1.955 1.593 1.955 1.593 0 1.592-2.331zm6.281-1.9.041.779q.219-.431.588-.67.369-.246.889-.246.471 0 .779.191.315.185.472.581.218-.356.56-.56.342-.213.827-.212.363 0 .663.123.308.116.52.376.218.26.335.663.123.403.123.971v5.4h-1.518v-5.414q0-.444-.191-.608a.68.68 0 0 0-.479-.171q-.28 0-.444.136a.74.74 0 0 0-.239.349V564h-1.484v-5.414q0-.43-.177-.602-.17-.177-.472-.177-.287 0-.451.123a.8.8 0 0 0-.253.335V564h-1.518v-7.396zm13.93 5.085h-3.11l-.684 2.311h-1.695l3.233-9.953h1.443l3.171 9.953h-1.688zm-2.693-1.401h2.283l-1.128-3.903z"/><rect width="71" height="36" x="412.5" y="46" fill="#7f8c8d" rx="5"/><path fill="#fff" d="M433.62 63.531h2.611v1.538h-2.611v2.933h-1.593v-2.933h-2.618v-1.538h2.618v-2.775h1.593zm7.894-.246h.977q.43 0 .752-.11.321-.116.533-.32.212-.206.315-.486a1.8 1.8 0 0 0 .109-.629q0-.724-.383-1.114-.375-.396-1.141-.396-.336 0-.622.102a1.5 1.5 0 0 0-.493.28 1.3 1.3 0 0 0-.321.445q-.116.26-.116.587h-1.634q0-.587.232-1.086.24-.5.657-.862a3 3 0 0 1 1.005-.574 3.7 3.7 0 0 1 1.271-.212q.705 0 1.292.185.588.177 1.005.533.417.355.649.889.233.525.233 1.223 0 .294-.089.602-.088.307-.273.595a2.6 2.6 0 0 1-.458.54 2.5 2.5 0 0 1-.65.417q.451.157.759.403.307.246.499.554.192.3.273.649t.082.71q0 .698-.253 1.245a2.6 2.6 0 0 1-.704.923 3.2 3.2 0 0 1-1.052.567 4.4 4.4 0 0 1-1.313.192 4.3 4.3 0 0 1-1.237-.178 3.2 3.2 0 0 1-1.039-.526 2.7 2.7 0 0 1-.711-.875 2.65 2.65 0 0 1-.267-1.217h1.634q0 .328.116.608.117.274.328.472.219.191.52.3.3.11.677.11.779 0 1.223-.41.451-.418.451-1.203 0-.43-.129-.739a1.3 1.3 0 0 0-.376-.512 1.5 1.5 0 0 0-.581-.301 2.9 2.9 0 0 0-.773-.096h-.977zm11.51 3.22 2.071-7.458h1.791L453.81 69h-1.566l-3.069-9.953h1.791zm8.666-3.22h.977q.432 0 .752-.11a1.5 1.5 0 0 0 .534-.32q.212-.206.314-.486a1.8 1.8 0 0 0 .109-.629q0-.724-.382-1.114-.377-.396-1.142-.396-.335 0-.622.102a1.5 1.5 0 0 0-.492.28 1.3 1.3 0 0 0-.322.445q-.116.26-.116.587h-1.634q0-.587.233-1.086.239-.5.656-.862a3.1 3.1 0 0 1 1.005-.574 3.7 3.7 0 0 1 1.272-.212q.704 0 1.292.185.587.177 1.004.533.417.355.65.889.232.525.232 1.223 0 .294-.089.602-.089.307-.273.595a2.5 2.5 0 0 1-1.107.957q.45.157.758.403a2.18 2.18 0 0 1 .773 1.203q.082.349.082.71 0 .698-.253 1.245a2.6 2.6 0 0 1-.704.923 3.2 3.2 0 0 1-1.053.567 4.4 4.4 0 0 1-1.312.192q-.65 0-1.238-.178a3.2 3.2 0 0 1-1.039-.526 2.7 2.7 0 0 1-.711-.875q-.267-.527-.266-1.217h1.633q0 .328.117.608.115.274.328.472.219.191.519.3.301.11.677.11.78 0 1.224-.41.45-.418.451-1.203 0-.43-.13-.739a1.3 1.3 0 0 0-.376-.512 1.5 1.5 0 0 0-.581-.301 2.9 2.9 0 0 0-.773-.096h-.977z"/><path fill="#f1c40f" d="M398 87h60v24h-60z"/><path fill="#202020" d="M410.1 104v-9.953h2.434q1.024.006 1.839.342a3.9 3.9 0 0 1 1.387.943q.575.609.882 1.456.307.84.315 1.866v.752a5.6 5.6 0 0 1-.315 1.873 4.2 4.2 0 0 1-.875 1.45 3.9 3.9 0 0 1-1.374.936q-.807.335-1.811.335zm1.668-8.627v7.308h.814q.677-.007 1.182-.24.506-.239.841-.663.341-.43.506-1.032.17-.602.178-1.34v-.765a5 5 0 0 0-.178-1.313 2.9 2.9 0 0 0-.506-1.025 2.3 2.3 0 0 0-.861-.677q-.513-.246-1.21-.253zm15.222 5.571a4 4 0 0 1-.342 1.313 3.3 3.3 0 0 1-.724 1.012 3.2 3.2 0 0 1-1.067.649q-.608.226-1.36.226-.91 0-1.586-.349a3.3 3.3 0 0 1-1.128-.957 4.2 4.2 0 0 1-.677-1.408 6.6 6.6 0 0 1-.232-1.723v-1.36a6.3 6.3 0 0 1 .239-1.716 4.3 4.3 0 0 1 .684-1.415 3.3 3.3 0 0 1 1.134-.957q.678-.356 1.573-.356.786 0 1.401.233.615.232 1.053.656t.697 1.032q.26.609.335 1.354h-1.641a3.2 3.2 0 0 0-.17-.793 1.8 1.8 0 0 0-.342-.616 1.4 1.4 0 0 0-.554-.396 2 2 0 0 0-.779-.137q-.553 0-.93.253a1.9 1.9 0 0 0-.608.684 3.2 3.2 0 0 0-.335.984 7 7 0 0 0-.096 1.176v1.374q0 .642.096 1.21.102.561.328.984.226.424.601.67.376.246.937.246.862 0 1.312-.485.451-.492.534-1.388zm3.287 3.056v-9.953h2.433q1.026.006 1.839.342a3.9 3.9 0 0 1 1.388.943q.573.609.882 1.456.307.84.314 1.866v.752a5.6 5.6 0 0 1-.314 1.873 4.25 4.25 0 0 1-.875 1.45 3.9 3.9 0 0 1-1.375.936q-.806.335-1.811.335zm1.667-8.627v7.308h.814q.676-.007 1.183-.24.505-.239.84-.663a2.8 2.8 0 0 0 .506-1.032q.17-.602.178-1.34v-.765a5 5 0 0 0-.178-1.313 2.8 2.8 0 0 0-.506-1.025 2.3 2.3 0 0 0-.861-.677q-.513-.246-1.21-.253zm15.222 5.571a4 4 0 0 1-.341 1.313 3.3 3.3 0 0 1-.725 1.012 3.2 3.2 0 0 1-1.066.649 3.9 3.9 0 0 1-1.361.226q-.909 0-1.586-.349a3.3 3.3 0 0 1-1.128-.957 4.2 4.2 0 0 1-.676-1.408 6.6 6.6 0 0 1-.233-1.723v-1.36a6.4 6.4 0 0 1 .24-1.716 4.3 4.3 0 0 1 .683-1.415 3.3 3.3 0 0 1 1.135-.957q.677-.356 1.572-.356.786 0 1.402.233.615.232 1.052.656t.698 1.032q.26.609.334 1.354h-1.64a3.1 3.1 0 0 0-.171-.793 1.8 1.8 0 0 0-.342-.616 1.4 1.4 0 0 0-.554-.396 2 2 0 0 0-.779-.137q-.553 0-.93.253a1.9 1.9 0 0 0-.608.684 3.2 3.2 0 0 0-.335.984 7 7 0 0 0-.096 1.176v1.374q0 .642.096 1.21.102.561.328.984.226.424.602.67t.936.246q.862 0 1.313-.485.451-.492.533-1.388z"/><path fill="#c11f09" d="M458 87h40v24h-40z"/><path fill="#fff" d="M473.734 104h-1.647v-7.936l-2.543.93v-1.436l4.088-1.511h.102zm10.451-2.311h-3.111l-.683 2.311h-1.696l3.234-9.953h1.442l3.172 9.953h-1.688zm-2.694-1.401h2.284l-1.128-3.903z"/></svg>