<svg width="1920" height="1080" viewBox="0 0 1920 1080" fill="none" xmlns="http://www.w3.org/2000/svg">
<g clip-path="url(#clip0)">
<path d="M434.913 132.737H176.776C163.614 132.737 153 143.351 153 156.513V402.337C153 403.611 153.849 404.46 155.123 404.46H169.134C170.407 404.46 171.256 405.309 171.256 406.583V535.226C171.256 536.5 170.407 537.349 169.134 537.349H155.123C153.849 537.349 153 538.198 153 539.472V904.175C153 917.337 163.614 927.951 176.776 927.951H434.913C448.074 927.951 458.688 917.337 458.688 904.175V156.937C459.113 143.351 448.074 132.737 434.913 132.737ZM178.05 916.488C170.407 916.488 164.463 910.544 164.463 902.902C164.463 895.259 170.407 889.315 178.05 889.315C185.692 889.315 191.636 895.259 191.636 902.902C191.636 910.544 185.267 916.488 178.05 916.488ZM178.05 170.523C170.407 170.523 164.463 164.579 164.463 156.937C164.463 149.295 170.407 143.351 178.05 143.351C185.692 143.351 191.636 149.295 191.636 156.937C191.636 164.579 185.267 170.523 178.05 170.523ZM433.214 916.488C425.572 916.488 419.628 910.544 419.628 902.902C419.628 895.259 425.572 889.315 433.214 889.315C440.857 889.315 446.801 895.259 446.801 902.902C446.801 910.544 440.432 916.488 433.214 916.488ZM433.214 170.523C425.572 170.523 419.628 164.579 419.628 156.937C419.628 149.295 425.572 143.351 433.214 143.351C440.857 143.351 446.801 149.295 446.801 156.937C446.801 164.579 440.432 170.523 433.214 170.523Z" fill="#555A57"/>
<path d="M440.007 851.529V845.585H434.063V851.529H440.007Z" fill="#969C9E"/>
<path d="M433.638 851.531V845.587H427.695V851.531H433.638Z" fill="#969C9E"/>
<path d="M431.516 851.105H434.064H436.611C437.885 851.105 439.158 849.832 439.158 848.558C439.158 847.284 437.885 846.01 436.611 846.01H434.064H431.516C430.242 846.01 428.969 847.284 428.969 848.558C428.969 849.832 430.242 851.105 431.516 851.105Z" fill="#B0BEBE"/>
<path d="M435.762 846.01H431.941V851.105H435.762V846.01Z" fill="#222D2B"/>
<path d="M197.155 802.278V796.759H191.211V802.703L197.155 802.278Z" fill="#969C9E"/>
<path d="M190.362 802.279V796.76H184.418V802.704L190.362 802.279Z" fill="#969C9E"/>
<path d="M188.239 801.854H190.787H193.334C194.608 801.854 195.881 800.58 195.881 799.306C195.881 798.033 194.608 796.759 193.334 796.759H190.787H188.239C186.966 796.759 185.692 798.033 185.692 799.306C185.692 801.005 186.966 801.854 188.239 801.854Z" fill="#B0BEBE"/>
<path d="M192.909 797.185H189.088V802.28H192.909V797.185Z" fill="#222D2B"/>
<path d="M197.155 792.089V786.145H191.211V792.089H197.155Z" fill="#969C9E"/>
<path d="M190.362 792.089V786.146H184.418V792.089H190.362Z" fill="#969C9E"/>
<path d="M188.239 791.666H190.787H193.334C194.608 791.666 195.881 790.393 195.881 789.119C195.881 787.845 194.608 786.571 193.334 786.571H190.787H188.239C186.966 786.571 185.692 787.845 185.692 789.119C185.692 790.393 186.966 791.666 188.239 791.666Z" fill="#B0BEBE"/>
<path d="M192.909 786.571H189.088V791.666H192.909V786.571Z" fill="#222D2B"/>
<path d="M197.155 781.899V775.955H191.211V781.899H197.155Z" fill="#969C9E"/>
<path d="M190.362 781.899V775.955H184.418V781.899H190.362Z" fill="#969C9E"/>
<path d="M188.239 781.476H190.787H193.334C194.608 781.476 195.881 780.202 195.881 778.928C195.881 777.655 194.608 776.381 193.334 776.381H190.787H188.239C186.966 776.381 185.692 777.655 185.692 778.928C185.692 780.202 186.966 781.476 188.239 781.476Z" fill="#B0BEBE"/>
<path d="M192.909 776.381H189.088V781.476H192.909V776.381Z" fill="#222D2B"/>
<path d="M197.155 771.285V765.341H191.211V771.285H197.155C197.155 771.285 197.155 771.71 197.155 771.285Z" fill="#969C9E"/>
<path d="M190.362 771.286V765.342H184.418V771.286H190.362C190.362 771.286 190.362 771.711 190.362 771.286Z" fill="#969C9E"/>
<path d="M188.239 770.861H190.787H193.334C194.608 770.861 195.881 769.587 195.881 768.314C195.881 767.04 194.608 765.766 193.334 765.766H190.787H188.239C186.966 765.766 185.692 767.04 185.692 768.314C185.692 769.587 186.966 770.861 188.239 770.861Z" fill="#B0BEBE"/>
<path d="M192.909 766.192H189.088V771.287H192.909V766.192Z" fill="#222D2B"/>
<path d="M397.55 792.089V786.145H391.607V792.089H397.55Z" fill="#969C9E"/>
<path d="M391.182 792.089V786.146H385.238V792.089H391.182Z" fill="#969C9E"/>
<path d="M389.06 791.666H391.607H394.155C395.428 791.666 396.702 790.393 396.702 789.119C396.702 787.845 395.428 786.571 394.155 786.571H391.607H389.06C387.786 786.571 386.512 787.845 386.512 789.119C386.512 790.393 387.786 791.666 389.06 791.666Z" fill="#B0BEBE"/>
<path d="M393.305 786.571H389.484V791.666H393.305V786.571Z" fill="#222D2B"/>
<path d="M397.55 781.899V775.955H391.607V781.899H397.55Z" fill="#969C9E"/>
<path d="M391.182 781.899V775.955H385.238V781.899H391.182Z" fill="#969C9E"/>
<path d="M389.06 781.476H391.607H394.155C395.428 781.476 396.702 780.202 396.702 778.928C396.702 777.655 395.428 776.381 394.155 776.381H391.607H389.06C387.786 776.381 386.512 777.655 386.512 778.928C386.512 780.202 387.786 781.476 389.06 781.476Z" fill="#B0BEBE"/>
<path d="M393.305 776.381H389.484V781.476H393.305V776.381Z" fill="#222D2B"/>
<path d="M397.55 771.285V765.341H391.607V771.285H397.55C397.55 771.285 397.55 771.71 397.55 771.285Z" fill="#969C9E"/>
<path d="M391.182 771.286V765.342H385.238V771.286H391.182C391.182 771.286 391.182 771.711 391.182 771.286Z" fill="#969C9E"/>
<path d="M389.06 770.861H391.607H394.155C395.428 770.861 396.702 769.587 396.702 768.314C396.702 767.04 395.428 765.766 394.155 765.766H391.607H389.06C387.786 765.766 386.512 767.04 386.512 768.314C386.512 770.012 387.786 770.861 389.06 770.861Z" fill="#B0BEBE"/>
<path d="M393.305 766.192H389.484V771.287H393.305V766.192Z" fill="#222D2B"/>
<path d="M292.682 709.298H298.626V703.354H292.682V709.298Z" fill="#969C9E"/>
<path d="M292.682 702.929H298.626V696.985H292.682V702.929Z" fill="#969C9E"/>
<path d="M293.108 700.807V703.354V705.901C293.108 707.175 294.381 708.449 295.655 708.449C296.929 708.449 298.202 707.175 298.202 705.901V703.354V700.807C298.202 699.533 296.929 698.259 295.655 698.259C294.381 698.259 293.108 699.533 293.108 700.807Z" fill="#B0BEBE"/>
<path d="M298.202 701.232H293.108V705.053H298.202V701.232Z" fill="#222D2B"/>
<path d="M303.297 709.298H309.24V703.354H303.297V709.298C302.872 709.298 302.872 709.298 303.297 709.298Z" fill="#969C9E"/>
<path d="M303.297 702.929H309.24V696.985H303.297V702.929C302.872 702.929 302.872 702.929 303.297 702.929Z" fill="#969C9E"/>
<path d="M303.297 700.807V703.354V705.901C303.297 707.175 304.57 708.449 305.844 708.449C307.118 708.449 308.392 707.175 308.392 705.901V703.354V700.807C308.392 699.533 307.118 698.259 305.844 698.259C304.57 698.259 303.297 699.533 303.297 700.807Z" fill="#B0BEBE"/>
<path d="M308.392 701.232H303.297V705.053H308.392V701.232Z" fill="#222D2B"/>
<path d="M261.689 709.298V703.354H255.745V709.298H261.689Z" fill="#969C9E"/>
<path d="M254.896 709.298V703.354H248.952V709.298H254.896Z" fill="#969C9E"/>
<path d="M252.773 708.875H255.321H257.868C259.142 708.875 260.415 707.601 260.415 706.327C260.415 705.054 259.142 703.78 257.868 703.78H255.321H252.773C251.499 703.78 250.226 705.054 250.226 706.327C250.226 707.601 251.499 708.875 252.773 708.875Z" fill="#B0BEBE"/>
<path d="M257.443 704.204H253.622V709.299H257.443V704.204Z" fill="#222D2B"/>
<path d="M237.913 709.298V703.354H231.969V709.298H237.913Z" fill="#969C9E"/>
<path d="M231.121 709.298V703.354H225.601V709.298H231.121Z" fill="#969C9E"/>
<path d="M228.997 708.875H231.545H234.092C235.366 708.875 236.639 707.601 236.639 706.327C236.639 705.054 235.366 703.78 234.092 703.78H231.545H228.997C227.723 703.78 226.45 705.054 226.45 706.327C226.45 707.601 227.723 708.875 228.997 708.875Z" fill="#B0BEBE"/>
<path d="M233.668 704.204H229.847V709.299H233.668V704.204Z" fill="#222D2B"/>
<path d="M285.889 668.54V662.596H279.945V668.54H285.889C285.889 668.54 285.889 668.964 285.889 668.54Z" fill="#969C9E"/>
<path d="M279.521 668.541V662.597H273.577V668.541H279.521C279.521 668.541 279.521 668.966 279.521 668.541Z" fill="#969C9E"/>
<path d="M277.398 668.116H279.946H282.493C283.767 668.116 285.041 666.842 285.041 665.569C285.041 664.295 283.767 663.021 282.493 663.021H279.946H277.398C276.125 663.021 274.851 664.295 274.851 665.569C274.851 666.842 275.7 668.116 277.398 668.116Z" fill="#B0BEBE"/>
<path d="M281.644 663.446H277.823V668.541H281.644V663.446Z" fill="#222D2B"/>
<path d="M378.021 539.471V533.527H372.077V539.471H378.021C378.021 539.471 378.021 539.896 378.021 539.471Z" fill="#969C9E"/>
<path d="M371.652 539.472V533.528H365.708V539.472H371.652C371.652 539.472 371.227 539.896 371.652 539.472Z" fill="#969C9E"/>
<path d="M369.529 539.047H372.077H374.624C375.898 539.047 377.172 537.774 377.172 536.5C377.172 535.226 375.898 533.953 374.624 533.953H372.077H369.529C368.256 533.953 366.982 535.226 366.982 536.5C366.982 537.774 367.831 539.047 369.529 539.047Z" fill="#B0BEBE"/>
<path d="M373.775 534.378H369.953V539.472H373.775V534.378Z" fill="#222D2B"/>
<path d="M262.114 668.54V662.596H256.17V668.54H262.114C262.114 668.54 262.114 668.964 262.114 668.54Z" fill="#969C9E"/>
<path d="M255.746 668.541V662.597H249.802V668.541H255.746C255.746 668.541 255.746 668.966 255.746 668.541Z" fill="#969C9E"/>
<path d="M253.623 668.116H256.17H258.718C259.991 668.116 261.265 666.842 261.265 665.569C261.265 664.295 259.991 663.021 258.718 663.021H256.17H253.623C252.349 663.021 251.076 664.295 251.076 665.569C251.076 666.842 252.349 668.116 253.623 668.116Z" fill="#B0BEBE"/>
<path d="M257.868 663.446H254.047V668.541H257.868V663.446Z" fill="#222D2B"/>
<path d="M313.487 709.298H319.431V703.354H313.487V709.298Z" fill="#969C9E"/>
<path d="M313.487 702.929H319.431V696.985H313.487V702.929Z" fill="#969C9E"/>
<path d="M313.911 700.807V703.354V705.901C313.911 707.175 315.185 708.449 316.458 708.449C317.732 708.449 319.006 707.175 319.006 705.901V703.354V700.807C319.006 699.533 317.732 698.259 316.458 698.259C314.76 698.259 313.911 699.533 313.911 700.807Z" fill="#B0BEBE"/>
<path d="M319.006 701.232H313.911V705.053H319.006V701.232Z" fill="#222D2B"/>
<path d="M206.496 675.334H212.44V669.39H206.496V675.334Z" fill="#969C9E"/>
<path d="M206.496 668.966H212.44V663.022H206.496V668.966C206.496 668.966 206.496 668.541 206.496 668.966Z" fill="#969C9E"/>
<path d="M206.92 666.841V669.388V671.936C206.92 673.209 208.194 674.483 209.467 674.483C210.741 674.483 212.015 673.209 212.015 671.936V669.388V666.841C212.015 665.567 210.741 664.293 209.467 664.293C207.769 664.293 206.92 665.143 206.92 666.841Z" fill="#B0BEBE"/>
<path d="M212.015 667.267H206.92V671.088H212.015V667.267Z" fill="#222D2B"/>
<path d="M216.685 675.334H222.629V669.39H216.685V675.334Z" fill="#969C9E"/>
<path d="M216.685 668.966H222.629V663.022H216.685V668.966C216.685 668.966 216.685 668.541 216.685 668.966Z" fill="#969C9E"/>
<path d="M217.109 666.841V669.388V671.936C217.109 673.209 218.383 674.483 219.657 674.483C220.931 674.483 222.204 673.209 222.204 671.936V669.388V666.841C222.204 665.567 220.931 664.293 219.657 664.293C218.383 664.293 217.109 665.143 217.109 666.841Z" fill="#B0BEBE"/>
<path d="M222.204 667.267H217.109V671.088H222.204V667.267Z" fill="#222D2B"/>
<path d="M195.881 675.334H201.825V669.39H195.881V675.334Z" fill="#969C9E"/>
<path d="M195.881 668.966H201.825V663.022H195.881V668.966C195.881 668.966 195.881 668.541 195.881 668.966Z" fill="#969C9E"/>
<path d="M196.305 666.841V669.388V671.936C196.305 673.209 197.579 674.483 198.853 674.483C200.126 674.483 201.4 673.209 201.4 671.936V669.388V666.841C201.4 665.567 200.126 664.293 198.853 664.293C197.579 664.293 196.305 665.143 196.305 666.841Z" fill="#B0BEBE"/>
<path d="M201.4 667.267H196.305V671.088H201.4V667.267Z" fill="#222D2B"/>
<path d="M185.691 675.334H191.635V669.39H185.691V675.334Z" fill="#969C9E"/>
<path d="M185.691 668.966H191.635V663.022H185.691V668.966C185.691 668.966 185.691 668.541 185.691 668.966Z" fill="#969C9E"/>
<path d="M186.116 666.841V669.388V671.936C186.116 673.209 187.389 674.483 188.663 674.483C189.937 674.483 191.21 673.209 191.21 671.936V669.388V666.841C191.21 665.567 189.937 664.293 188.663 664.293C187.389 664.293 186.116 665.143 186.116 666.841Z" fill="#B0BEBE"/>
<path d="M191.21 667.267H186.116V671.088H191.21V667.267Z" fill="#222D2B"/>
<path d="M175.502 675.334H181.446V669.39H175.502V675.334Z" fill="#969C9E"/>
<path d="M175.502 668.966H181.446V663.022H175.502V668.966C175.502 668.966 175.502 668.541 175.502 668.966Z" fill="#969C9E"/>
<path d="M175.927 666.841V669.388V671.936C175.927 673.209 177.2 674.483 178.474 674.483C179.748 674.483 181.021 673.209 181.021 671.936V669.388V666.841C181.021 665.567 179.748 664.293 178.474 664.293C176.776 664.293 175.927 665.143 175.927 666.841Z" fill="#B0BEBE"/>
<path d="M181.021 667.267H175.927V671.088H181.021V667.267Z" fill="#222D2B"/>
<path d="M175.502 502.537H181.446V496.593H175.502V502.537Z" fill="#969C9E"/>
<path d="M175.502 496.167H181.446V490.223H175.502V496.167Z" fill="#969C9E"/>
<path d="M175.927 494.044V496.592V499.139C175.927 500.413 177.2 501.686 178.474 501.686C179.748 501.686 181.021 500.413 181.021 499.139V496.592V494.044C181.021 492.771 179.748 491.497 178.474 491.497C176.776 491.497 175.927 492.346 175.927 494.044Z" fill="#B0BEBE"/>
<path d="M181.021 494.47H175.927V498.292H181.021V494.47Z" fill="#222D2B"/>
<path d="M175.502 473.665H181.446V467.721H175.502V473.665C175.502 473.665 175.502 473.24 175.502 473.665Z" fill="#969C9E"/>
<path d="M175.502 466.87H181.446V460.927H175.502V466.87Z" fill="#969C9E"/>
<path d="M175.927 464.747V467.295V469.842C175.927 471.116 177.2 472.39 178.474 472.39C179.748 472.39 181.021 471.116 181.021 469.842V467.295V464.747C181.021 463.474 179.748 462.2 178.474 462.2C176.776 462.2 175.927 463.474 175.927 464.747Z" fill="#B0BEBE"/>
<path d="M181.021 465.172H175.927V468.993H181.021V465.172Z" fill="#222D2B"/>
<path d="M226.875 675.334H232.819V669.39H226.875V675.334Z" fill="#969C9E"/>
<path d="M226.875 668.966H232.819V663.022H226.875V668.966C226.875 668.966 226.875 668.541 226.875 668.966Z" fill="#969C9E"/>
<path d="M227.299 666.841V669.388V671.936C227.299 673.209 228.573 674.483 229.847 674.483C231.12 674.483 232.394 673.209 232.394 671.936V669.388V666.841C232.394 665.567 231.12 664.293 229.847 664.293C228.573 664.293 227.299 665.143 227.299 666.841Z" fill="#B0BEBE"/>
<path d="M232.394 667.267H227.299V671.088H232.394V667.267Z" fill="#222D2B"/>
<path d="M275.276 412.526H281.219V406.582H275.276V412.526Z" fill="#969C9E"/>
<path d="M275.276 405.732H281.219V399.789H275.276V405.732Z" fill="#969C9E"/>
<path d="M275.7 403.61V406.157V408.705C275.7 409.978 276.974 411.252 278.247 411.252C279.521 411.252 280.795 409.978 280.795 408.705V406.157V403.61C280.795 402.336 279.521 401.062 278.247 401.062C276.549 401.487 275.7 402.336 275.7 403.61Z" fill="#B0BEBE"/>
<path d="M280.795 404.46H275.7V408.281H280.795V404.46Z" fill="#222D2B"/>
<path d="M285.465 412.526H291.409V406.582H285.465V412.526Z" fill="#969C9E"/>
<path d="M285.465 405.732H291.409V399.789H285.465V405.732Z" fill="#969C9E"/>
<path d="M285.889 403.61V406.157V408.705C285.889 409.978 287.163 411.252 288.436 411.252C289.71 411.252 290.984 409.978 290.984 408.705V406.157V403.61C290.984 402.336 289.71 401.062 288.436 401.062C287.163 401.487 285.889 402.336 285.889 403.61Z" fill="#B0BEBE"/>
<path d="M290.984 404.46H285.889V408.281H290.984V404.46Z" fill="#222D2B"/>
<path d="M295.654 412.526H301.598V406.582H295.654V412.526Z" fill="#969C9E"/>
<path d="M295.654 405.732H301.598V399.789H295.654V405.732Z" fill="#969C9E"/>
<path d="M296.078 403.61V406.157V408.705C296.078 409.978 297.352 411.252 298.626 411.252C299.9 411.252 301.173 409.978 301.173 408.705V406.157V403.61C301.173 402.336 299.9 401.062 298.626 401.062C297.352 401.487 296.078 402.336 296.078 403.61Z" fill="#B0BEBE"/>
<path d="M301.173 404.46H296.078V408.281H301.173V404.46Z" fill="#222D2B"/>
<path d="M306.269 412.526H312.213V406.582H306.269V412.526C306.269 412.526 305.844 412.526 306.269 412.526Z" fill="#969C9E"/>
<path d="M306.269 405.732H312.213V399.789H306.269V405.732C306.269 405.732 305.845 405.732 306.269 405.732Z" fill="#969C9E"/>
<path d="M306.693 403.61V406.157V408.705C306.693 409.978 307.967 411.252 309.241 411.252C310.515 411.252 311.788 409.978 311.788 408.705V406.157V403.61C311.788 402.336 310.515 401.062 309.241 401.062C307.543 401.487 306.693 402.336 306.693 403.61Z" fill="#B0BEBE"/>
<path d="M311.788 404.46H306.693V408.281H311.788V404.46Z" fill="#222D2B"/>
<path d="M316.458 412.526H322.402V406.582H316.458V412.526Z" fill="#969C9E"/>
<path d="M316.458 405.732H322.402V399.789H316.458V405.732Z" fill="#969C9E"/>
<path d="M316.883 403.61V406.157V408.705C316.883 409.978 318.157 411.252 319.43 411.252C320.704 411.252 321.978 409.978 321.978 408.705V406.157V403.61C321.978 402.336 320.704 401.062 319.43 401.062C318.157 401.487 316.883 402.336 316.883 403.61Z" fill="#B0BEBE"/>
<path d="M321.978 404.46H316.883V408.281H321.978V404.46Z" fill="#222D2B"/>
<path d="M326.648 412.526H332.592V406.582H326.648V412.526Z" fill="#969C9E"/>
<path d="M326.648 405.732H332.592V399.789H326.648V405.732Z" fill="#969C9E"/>
<path d="M327.072 403.61V406.157V408.705C327.072 409.978 328.346 411.252 329.62 411.252C330.894 411.252 332.167 409.978 332.167 408.705V406.157V403.61C332.167 402.336 330.894 401.062 329.62 401.062C328.346 401.487 327.072 402.336 327.072 403.61Z" fill="#B0BEBE"/>
<path d="M332.167 404.46H327.072V408.281H332.167V404.46Z" fill="#222D2B"/>
<path d="M337.262 412.526H343.206V406.582H337.262V412.526C337.262 412.526 336.838 412.526 337.262 412.526Z" fill="#969C9E"/>
<path d="M337.262 405.732H343.206V399.789H337.262V405.732C337.262 405.732 336.838 405.732 337.262 405.732Z" fill="#969C9E"/>
<path d="M337.687 403.61V406.157V408.705C337.687 409.978 338.96 411.252 340.234 411.252C341.508 411.252 342.782 409.978 342.782 408.705V406.157V403.61C342.782 402.336 341.508 401.062 340.234 401.062C338.536 401.487 337.687 402.336 337.687 403.61Z" fill="#B0BEBE"/>
<path d="M342.782 404.46H337.687V408.281H342.782V404.46Z" fill="#222D2B"/>
<path d="M383.54 412.526H389.484V406.582H383.54V412.526Z" fill="#969C9E"/>
<path d="M383.54 405.732H389.484V399.789H383.54V405.732Z" fill="#969C9E"/>
<path d="M383.964 403.61V406.157V408.705C383.964 409.978 385.238 411.252 386.512 411.252C387.786 411.252 389.059 409.978 389.059 408.705V406.157V403.61C389.059 402.336 387.786 401.062 386.512 401.062C385.238 401.487 383.964 402.336 383.964 403.61Z" fill="#B0BEBE"/>
<path d="M389.059 404.46H383.964V408.281H389.059V404.46Z" fill="#222D2B"/>
<path d="M264.662 412.526H270.606V406.582H264.662V412.526Z" fill="#969C9E"/>
<path d="M264.662 405.732H270.606V399.789H264.662V405.732Z" fill="#969C9E"/>
<path d="M265.086 403.61V406.157V408.705C265.086 409.978 266.36 411.252 267.633 411.252C268.907 411.252 270.181 409.978 270.181 408.705V406.157V403.61C270.181 402.336 268.907 401.062 267.633 401.062C266.36 401.487 265.086 402.336 265.086 403.61Z" fill="#B0BEBE"/>
<path d="M270.181 404.46H265.086V408.281H270.181V404.46Z" fill="#222D2B"/>
<path d="M254.472 412.526H260.416V406.582H254.472V412.526Z" fill="#969C9E"/>
<path d="M254.472 405.732H260.416V399.789H254.472V405.732Z" fill="#969C9E"/>
<path d="M254.896 403.61V406.157V408.705C254.896 409.978 256.17 411.252 257.444 411.252C258.717 411.252 259.991 409.978 259.991 408.705V406.157V403.61C259.991 402.336 258.717 401.062 257.444 401.062C256.17 401.487 254.896 402.336 254.896 403.61Z" fill="#B0BEBE"/>
<path d="M259.991 404.46H254.896V408.281H259.991V404.46Z" fill="#222D2B"/>
<path d="M244.282 412.526H250.226V406.582H244.282V412.526Z" fill="#969C9E"/>
<path d="M244.282 405.732H250.226V399.789H244.282V405.732Z" fill="#969C9E"/>
<path d="M244.707 403.61V406.157V408.705C244.707 409.978 245.981 411.252 247.254 411.252C248.528 411.252 249.802 409.978 249.802 408.705V406.157V403.61C249.802 402.336 248.528 401.062 247.254 401.062C245.556 401.487 244.707 402.336 244.707 403.61Z" fill="#B0BEBE"/>
<path d="M249.802 404.46H244.707V408.281H249.802V404.46Z" fill="#222D2B"/>
<path d="M210.317 765.767H204.373V771.711H210.317V765.767C210.741 765.767 210.741 765.767 210.317 765.767Z" fill="#969C9E"/>
<path d="M210.317 772.137H204.373V778.081H210.317V772.137C210.741 772.137 210.741 772.137 210.317 772.137Z" fill="#969C9E"/>
<path d="M209.892 774.26V771.713V769.165C209.892 767.891 208.618 766.618 207.344 766.618C206.071 766.618 204.797 767.891 204.797 769.165V771.713V774.26C204.797 775.534 206.071 776.807 207.344 776.807C209.043 776.807 209.892 775.534 209.892 774.26Z" fill="#B0BEBE"/>
<path d="M210.316 770.014H205.221V773.835H210.316V770.014Z" fill="#222D2B"/>
<path d="M210.317 789.965H204.373V795.909H210.317V789.965C210.741 789.965 210.741 789.965 210.317 789.965Z" fill="#969C9E"/>
<path d="M210.317 796.335H204.373V802.279H210.317V796.335C210.741 796.335 210.741 796.76 210.317 796.335Z" fill="#969C9E"/>
<path d="M209.892 798.881V796.334V793.787C209.892 792.513 208.618 791.239 207.344 791.239C206.071 791.239 204.797 792.513 204.797 793.787V796.334V798.881C204.797 800.155 206.071 801.429 207.344 801.429C209.043 801.004 209.892 800.155 209.892 798.881Z" fill="#B0BEBE"/>
<path d="M210.316 794.637H205.221V798.458H210.316V794.637Z" fill="#222D2B"/>
<path d="M440.007 863.419V857.475H434.063V863.419H440.007Z" fill="#969C9E"/>
<path d="M433.638 863.419V857.475H427.695V863.419H433.638Z" fill="#969C9E"/>
<path d="M431.516 862.995H434.064H436.611C437.885 862.995 439.158 861.721 439.158 860.447C439.158 859.174 437.885 857.9 436.611 857.9H434.064H431.516C430.242 857.9 428.969 859.174 428.969 860.447C428.969 861.721 430.242 862.995 431.516 862.995Z" fill="#B0BEBE"/>
<path d="M435.762 857.9H431.941V862.995H435.762V857.9Z" fill="#222D2B"/>
<path d="M412.835 860.446H418.779V854.502H412.835V860.446Z" fill="#969C9E"/>
<path d="M412.835 853.652H418.779V847.708H412.835V853.652Z" fill="#969C9E"/>
<path d="M413.259 851.529V854.076V856.624C413.259 857.897 414.533 859.171 415.807 859.171C417.08 859.171 418.354 857.897 418.354 856.624V854.076V851.529C418.354 850.255 417.08 848.981 415.807 848.981C414.533 848.981 413.259 850.255 413.259 851.529Z" fill="#B0BEBE"/>
<path d="M418.354 852.378H413.259V856.199H418.354V852.378Z" fill="#222D2B"/>
<path d="M400.947 136.983V122.972C400.947 121.274 399.674 120 397.976 120H336.838V137.832C336.838 139.955 335.14 142.077 332.592 142.077H280.795C278.672 142.077 276.549 139.955 276.549 137.832V120H215.836C214.138 120 212.864 121.274 212.864 122.972V136.983C209.043 142.502 197.155 162.457 197.155 200.243H201.825C201.825 173.92 207.769 156.088 212.44 146.748V379.835C212.44 381.533 213.713 382.807 215.412 382.807H397.551C399.249 382.807 400.523 381.533 400.523 379.835V146.748C405.193 156.088 411.137 173.92 411.137 200.243H415.807C416.656 162.881 404.769 142.502 400.947 136.983ZM231.97 201.092L229.422 132.737H234.517L237.489 187.506C237.489 190.478 240.037 193.025 243.433 193.025H249.377C252.349 193.025 255.321 190.478 255.321 187.506L258.293 132.737H263.388L260.84 201.092C260.84 204.489 258.293 206.612 254.896 206.612H237.065C234.517 206.612 231.97 204.064 231.97 201.092ZM254.047 379.411C254.047 375.165 257.444 371.768 261.689 371.768H351.698C355.943 371.768 359.34 375.165 359.34 379.411H254.047ZM381.842 201.092C381.842 204.489 379.295 206.612 375.898 206.612H358.491C355.094 206.612 352.547 204.064 352.547 201.092L349.999 132.737H355.094L358.066 187.506C358.066 190.478 361.038 193.025 364.01 193.025H369.954C372.926 193.025 375.898 190.478 375.898 187.506L378.87 132.737H383.965L381.842 201.092Z" fill="#8C9091"/>
<path d="M263.812 132.737L261.265 201.092C261.265 204.489 258.718 206.612 255.321 206.612H237.489C234.093 206.612 231.545 204.064 231.545 201.092L228.998 132.737H234.093L237.065 187.506C237.065 190.478 239.612 193.026 243.009 193.026H248.953C251.924 193.026 254.896 190.478 254.896 187.506L257.868 132.737H263.812Z" fill="#8C9091"/>
<path d="M359.34 379.41H254.047C254.047 375.164 257.444 371.768 261.689 371.768H351.698C355.943 371.768 359.34 375.164 359.34 379.41Z" fill="#8C9091"/>
<path d="M384.389 132.737L381.842 201.092C381.842 204.489 379.294 206.612 375.898 206.612H358.491C355.094 206.612 352.547 204.064 352.547 201.092L349.999 132.737H355.094L358.066 187.506C358.066 190.478 361.038 193.026 364.01 193.026H369.954C372.926 193.026 375.898 190.478 375.898 187.506L378.87 132.737H384.389Z" fill="#8C9091"/>
<path d="M359.34 379.41H254.047C254.047 375.164 257.444 371.768 261.689 371.768H351.698C355.943 371.768 359.34 375.164 359.34 379.41Z" fill="#222D2B"/>
<path d="M263.812 132.737L261.265 201.092C261.265 204.489 258.718 206.612 255.321 206.612H237.489C234.093 206.612 231.545 204.064 231.545 201.092L228.998 132.737H234.093L237.065 187.506C237.065 190.478 239.612 193.026 243.009 193.026H248.953C251.924 193.026 254.896 190.478 254.896 187.506L257.868 132.737H263.812Z" fill="#555A57"/>
<path d="M384.389 132.737L381.842 201.092C381.842 204.489 379.294 206.612 375.898 206.612H358.491C355.094 206.612 352.547 204.064 352.547 201.092L349.999 132.737H355.094L358.066 187.506C358.066 190.478 361.038 193.026 364.01 193.026H369.954C372.926 193.026 375.898 190.478 375.898 187.506L378.87 132.737H384.389Z" fill="#555A57"/>
<path d="M229.422 382.808H224.752V390.45H229.422V382.808Z" fill="#8C9193"/>
<path d="M241.31 382.808H236.64V390.45H241.31V382.808Z" fill="#8C9193"/>
<path d="M253.622 382.808H248.952V390.45H253.622V382.808Z" fill="#8C9193"/>
<path d="M265.935 382.808H261.265V390.45H265.935V382.808Z" fill="#8C9193"/>
<path d="M278.247 382.808H273.577V390.45H278.247V382.808Z" fill="#8C9193"/>
<path d="M290.56 382.808H285.889V390.45H290.56V382.808Z" fill="#8C9193"/>
<path d="M302.872 382.808H298.202V390.45H302.872V382.808Z" fill="#8C9193"/>
<path d="M315.184 382.808H310.514V390.45H315.184V382.808Z" fill="#8C9193"/>
<path d="M327.497 382.808H322.827V390.45H327.497V382.808Z" fill="#8C9193"/>
<path d="M339.81 382.808H335.14V390.45H339.81V382.808Z" fill="#8C9193"/>
<path d="M352.122 382.808H347.452V390.45H352.122V382.808Z" fill="#8C9193"/>
<path d="M364.435 382.808H359.764V390.45H364.435V382.808Z" fill="#8C9193"/>
<path d="M376.747 382.808H372.077V390.45H376.747V382.808Z" fill="#8C9193"/>
<path d="M388.635 382.808H383.965V390.45H388.635V382.808Z" fill="#8C9193"/>
<path d="M212.44 203.64H199.703C198.429 203.64 197.58 204.489 197.58 205.763V226.567C197.58 227.841 198.429 228.69 199.703 228.69H212.44V203.64Z" fill="#969C9E"/>
<path d="M212.439 225.292L207.345 224.019C205.646 223.594 204.373 222.32 204.373 220.197V212.131C204.373 210.432 205.646 208.734 207.345 208.31L212.439 207.036V225.292Z" fill="#81888A"/>
<path d="M400.947 229.113H413.684C414.958 229.113 415.807 228.264 415.807 226.99V206.186C415.807 204.913 414.958 204.063 413.684 204.063H400.947V229.113Z" fill="#969C9E"/>
<path d="M400.947 207.459L406.042 208.733C407.74 209.157 409.014 210.431 409.014 212.554V220.621C409.014 222.319 407.74 224.017 406.042 224.442L400.947 225.716V207.459Z" fill="#81888A"/>
<path d="M178.049 824.358C178.049 821.811 177.625 819.263 176.776 816.716H195.456C194.607 819.263 194.183 821.811 194.183 824.358C194.183 826.906 194.607 829.877 195.456 832H176.776C177.625 829.877 178.049 826.906 178.049 824.358Z" fill="#969C9E"/>
<path d="M194.183 824.358C194.183 821.811 194.608 819.263 195.457 816.716H198.429V832H195.457C194.608 829.877 194.183 826.906 194.183 824.358Z" fill="#CFDBDA"/>
<path d="M173.803 832.004V816.719H176.775C177.625 819.267 178.049 821.814 178.049 824.362C178.049 826.909 177.625 829.881 176.775 832.004H173.803Z" fill="#CFDBDA"/>
<path d="M178.049 848.982C178.049 846.435 177.625 843.887 176.776 841.34H195.456C194.607 843.887 194.183 846.435 194.183 848.982C194.183 851.53 194.607 854.502 195.456 856.625H176.776C177.625 854.502 178.049 851.954 178.049 848.982Z" fill="#969C9E"/>
<path d="M194.183 848.982C194.183 846.435 194.607 843.887 195.457 841.34H198.429V856.625H195.457C194.607 854.502 194.183 851.954 194.183 848.982Z" fill="#CFDBDA"/>
<path d="M173.804 857.051V841.766H176.776C177.625 844.314 178.049 846.861 178.049 849.408C178.049 851.956 177.625 854.928 176.776 857.051H173.804Z" fill="#CFDBDA"/>
<path d="M310.939 910.544C310.939 907.997 310.514 905.449 309.665 902.902H328.346C327.497 905.449 327.072 907.997 327.072 910.544C327.072 913.092 327.497 916.063 328.346 918.186H309.665C310.514 915.639 310.939 913.092 310.939 910.544Z" fill="#EFAD0A"/>
<path d="M327.073 910.544C327.073 907.997 327.497 905.449 328.346 902.902H331.318V918.186H328.346C327.497 915.639 327.073 913.092 327.073 910.544Z" fill="#CFDBDA"/>
<path d="M306.693 918.188V902.903H309.665C310.515 905.451 310.939 907.998 310.939 910.545C310.939 913.093 310.515 916.065 309.665 918.188H306.693Z" fill="#CFDBDA"/>
<path d="M373.775 443.097C376.823 443.097 379.294 440.625 379.294 437.577C379.294 434.529 376.823 432.058 373.775 432.058C370.726 432.058 368.255 434.529 368.255 437.577C368.255 440.625 370.726 443.097 373.775 443.097Z" fill="#807163"/>
<path d="M433.214 281.76C436.262 281.76 438.733 279.289 438.733 276.241C438.733 273.192 436.262 270.721 433.214 270.721C430.166 270.721 427.695 273.192 427.695 276.241C427.695 279.289 430.166 281.76 433.214 281.76Z" fill="#807163"/>
<path d="M411.137 474.514H389.059V482.156H411.137V474.514Z" fill="#969C9E"/>
<path d="M411.137 486.401H389.059V494.043H411.137V486.401Z" fill="#969C9E"/>
<path d="M411.137 498.29H389.059V505.932H411.137V498.29Z" fill="#969C9E"/>
<path d="M411.137 510.602H389.059V518.244H411.137V510.602Z" fill="#969C9E"/>
<path d="M411.137 522.489H389.059V530.131H411.137V522.489Z" fill="#969C9E"/>
<path d="M411.137 534.378H389.059V542.02H411.137V534.378Z" fill="#969C9E"/>
<path d="M411.137 546.692H389.059V554.334H411.137V546.692Z" fill="#969C9E"/>
<path d="M411.137 558.578H389.059V566.22H411.137V558.578Z" fill="#969C9E"/>
<path d="M411.137 570.467H389.059V578.109H411.137V570.467Z" fill="#969C9E"/>
<path d="M411.137 582.778H389.059V590.42H411.137V582.778Z" fill="#969C9E"/>
<path d="M411.137 594.666H389.059V602.308H411.137V594.666Z" fill="#969C9E"/>
<path d="M411.137 606.556H389.059V614.198H411.137V606.556Z" fill="#969C9E"/>
<path d="M411.137 618.866H389.059V626.509H411.137V618.866Z" fill="#969C9E"/>
<path d="M411.137 630.754H389.059V638.396H411.137V630.754Z" fill="#969C9E"/>
<path d="M411.137 642.642H389.059V650.284H411.137V642.642Z" fill="#969C9E"/>
<path d="M411.137 654.956H389.059V662.598H411.137V654.956Z" fill="#969C9E"/>
<path d="M411.137 666.842H389.059V674.485H411.137V666.842Z" fill="#969C9E"/>
<path d="M411.137 678.731H389.059V686.373H411.137V678.731Z" fill="#969C9E"/>
<path d="M411.137 691.043H389.059V698.685H411.137V691.043Z" fill="#969C9E"/>
<path d="M411.137 702.931H389.059V710.573H411.137V702.931Z" fill="#969C9E"/>
<path d="M455.292 474.514H433.214V482.156H455.292V474.514Z" fill="#969C9E"/>
<path d="M455.292 486.401H433.214V494.043H455.292V486.401Z" fill="#969C9E"/>
<path d="M455.292 498.29H433.214V505.932H455.292V498.29Z" fill="#969C9E"/>
<path d="M455.292 510.602H433.214V518.244H455.292V510.602Z" fill="#969C9E"/>
<path d="M455.292 522.489H433.214V530.131H455.292V522.489Z" fill="#969C9E"/>
<path d="M455.292 534.378H433.214V542.02H455.292V534.378Z" fill="#969C9E"/>
<path d="M455.292 546.692H433.214V554.334H455.292V546.692Z" fill="#969C9E"/>
<path d="M455.292 558.578H433.214V566.22H455.292V558.578Z" fill="#969C9E"/>
<path d="M455.292 570.467H433.214V578.109H455.292V570.467Z" fill="#969C9E"/>
<path d="M455.292 582.778H433.214V590.42H455.292V582.778Z" fill="#969C9E"/>
<path d="M455.292 594.666H433.214V602.308H455.292V594.666Z" fill="#969C9E"/>
<path d="M455.292 606.556H433.214V614.198H455.292V606.556Z" fill="#969C9E"/>
<path d="M455.292 618.866H433.214V626.509H455.292V618.866Z" fill="#969C9E"/>
<path d="M455.292 630.754H433.214V638.396H455.292V630.754Z" fill="#969C9E"/>
<path d="M455.292 642.642H433.214V650.284H455.292V642.642Z" fill="#969C9E"/>
<path d="M455.292 654.956H433.214V662.598H455.292V654.956Z" fill="#969C9E"/>
<path d="M455.292 666.842H433.214V674.485H455.292V666.842Z" fill="#969C9E"/>
<path d="M455.292 678.731H433.214V686.373H455.292V678.731Z" fill="#969C9E"/>
<path d="M455.292 691.043H433.214V698.685H455.292V691.043Z" fill="#969C9E"/>
<path d="M455.292 702.931H433.214V710.573H455.292V702.931Z" fill="#969C9E"/>
<path d="M343.206 436.728H336.413V464.75H343.206V436.728Z" fill="#969C9E"/>
<path d="M327.921 436.728H321.128V464.75H327.921V436.728Z" fill="#969C9E"/>
<path d="M312.637 436.728H305.844V464.75H312.637V436.728Z" fill="#969C9E"/>
<path d="M297.778 436.728H290.984V464.75H297.778V436.728Z" fill="#969C9E"/>
<path d="M282.493 436.728H275.7V464.75H282.493V436.728Z" fill="#969C9E"/>
<path d="M267.208 436.728H260.415V464.75H267.208V436.728Z" fill="#969C9E"/>
<path d="M251.924 436.728H245.131V464.75H251.924V436.728Z" fill="#969C9E"/>
<path d="M237.064 436.728H230.271V464.75H237.064V436.728Z" fill="#969C9E"/>
<path d="M221.78 436.728H214.987V464.75H221.78V436.728Z" fill="#969C9E"/>
<path d="M206.496 436.728H199.703V464.75H206.496V436.728Z" fill="#969C9E"/>
<path d="M343.206 486.825H336.413V514.847H343.206V486.825Z" fill="#969C9E"/>
<path d="M327.921 486.825H321.128V514.847H327.921V486.825Z" fill="#969C9E"/>
<path d="M312.637 486.825H305.844V514.847H312.637V486.825Z" fill="#969C9E"/>
<path d="M297.778 486.825H290.984V514.847H297.778V486.825Z" fill="#969C9E"/>
<path d="M282.493 486.825H275.7V514.847H282.493V486.825Z" fill="#969C9E"/>
<path d="M267.208 486.825H260.415V514.847H267.208V486.825Z" fill="#969C9E"/>
<path d="M251.924 486.825H245.131V514.847H251.924V486.825Z" fill="#969C9E"/>
<path d="M237.064 486.825H230.271V514.847H237.064V486.825Z" fill="#969C9E"/>
<path d="M221.78 486.825H214.987V514.847H221.78V486.825Z" fill="#969C9E"/>
<path d="M206.496 486.825H199.703V514.847H206.496V486.825Z" fill="#969C9E"/>
<path d="M241.31 460.925H226.026V491.069H241.31V460.925Z" fill="#222D2B"/>
<path d="M239.187 452.862H227.724L226.026 460.928H240.885L239.187 452.862Z" fill="#222D2B"/>
<path d="M239.187 499.135H227.724L226.026 491.069H240.885L239.187 499.135Z" fill="#222D2B"/>
<path d="M233.668 468.993C235.543 468.993 237.064 467.473 237.064 465.597C237.064 463.721 235.543 462.2 233.668 462.2C231.792 462.2 230.271 463.721 230.271 465.597C230.271 467.473 231.792 468.993 233.668 468.993Z" fill="#807163"/>
<path d="M233.668 489.796C235.543 489.796 237.064 488.275 237.064 486.399C237.064 484.523 235.543 483.002 233.668 483.002C231.792 483.002 230.271 484.523 230.271 486.399C230.271 488.275 231.792 489.796 233.668 489.796Z" fill="#807163"/>
<path d="M256.169 460.925H240.885V491.069H256.169V460.925Z" fill="#222D2B"/>
<path d="M254.471 452.86H243.008L240.885 460.927H256.169L254.471 452.86Z" fill="#222D2B"/>
<path d="M254.471 499.137H243.008L240.885 491.07H256.169L254.471 499.137Z" fill="#222D2B"/>
<path d="M248.528 468.994C250.403 468.994 251.924 467.473 251.924 465.597C251.924 463.721 250.403 462.201 248.528 462.201C246.652 462.201 245.131 463.721 245.131 465.597C245.131 467.473 246.652 468.994 248.528 468.994Z" fill="#807163"/>
<path d="M248.528 489.796C250.403 489.796 251.924 488.275 251.924 486.399C251.924 484.524 250.403 483.003 248.528 483.003C246.652 483.003 245.131 484.524 245.131 486.399C245.131 488.275 246.652 489.796 248.528 489.796Z" fill="#807163"/>
<path d="M271.454 460.925H256.17V491.069H271.454V460.925Z" fill="#222D2B"/>
<path d="M269.756 452.86H257.868L256.169 460.927H271.454L269.756 452.86Z" fill="#222D2B"/>
<path d="M269.756 499.137H257.868L256.17 491.07H271.454L269.756 499.137Z" fill="#222D2B"/>
<path d="M263.811 468.994C265.687 468.994 267.208 467.473 267.208 465.597C267.208 463.721 265.687 462.201 263.811 462.201C261.936 462.201 260.415 463.721 260.415 465.597C260.415 467.473 261.936 468.994 263.811 468.994Z" fill="#807163"/>
<path d="M263.811 489.796C265.687 489.796 267.208 488.275 267.208 486.399C267.208 484.524 265.687 483.003 263.811 483.003C261.936 483.003 260.415 484.524 260.415 486.399C260.415 488.275 261.936 489.796 263.811 489.796Z" fill="#807163"/>
<path d="M286.738 460.925H271.454V491.069H286.738V460.925Z" fill="#222D2B"/>
<path d="M284.616 452.86H273.152L271.454 460.927H286.738L284.616 452.86Z" fill="#222D2B"/>
<path d="M284.615 499.137H273.152L271.454 491.07H286.738L284.615 499.137Z" fill="#222D2B"/>
<path d="M279.096 468.994C280.972 468.994 282.492 467.473 282.492 465.597C282.492 463.721 280.972 462.201 279.096 462.201C277.22 462.201 275.699 463.721 275.699 465.597C275.699 467.473 277.22 468.994 279.096 468.994Z" fill="#807163"/>
<path d="M279.096 489.796C280.972 489.796 282.492 488.275 282.492 486.399C282.492 484.524 280.972 483.003 279.096 483.003C277.22 483.003 275.699 484.524 275.699 486.399C275.699 488.275 277.22 489.796 279.096 489.796Z" fill="#807163"/>
<path d="M302.023 460.925H286.739V491.069H302.023V460.925Z" fill="#222D2B"/>
<path d="M299.9 452.86H288.437L286.739 460.927H301.599L299.9 452.86Z" fill="#222D2B"/>
<path d="M299.9 499.137H288.437L286.739 491.07H301.599L299.9 499.137Z" fill="#222D2B"/>
<path d="M294.381 468.994C296.257 468.994 297.778 467.473 297.778 465.597C297.778 463.721 296.257 462.201 294.381 462.201C292.505 462.201 290.984 463.721 290.984 465.597C290.984 467.473 292.505 468.994 294.381 468.994Z" fill="#807163"/>
<path d="M294.381 489.796C296.257 489.796 297.778 488.275 297.778 486.399C297.778 484.524 296.257 483.003 294.381 483.003C292.505 483.003 290.984 484.524 290.984 486.399C290.984 488.275 292.505 489.796 294.381 489.796Z" fill="#807163"/>
<path d="M316.883 460.925H301.598V491.069H316.883V460.925Z" fill="#222D2B"/>
<path d="M315.185 452.86H303.721L301.598 460.927H316.883L315.185 452.86Z" fill="#222D2B"/>
<path d="M315.185 499.137H303.721L301.598 491.07H316.883L315.185 499.137Z" fill="#222D2B"/>
<path d="M309.241 468.994C311.117 468.994 312.638 467.473 312.638 465.597C312.638 463.721 311.117 462.201 309.241 462.201C307.365 462.201 305.844 463.721 305.844 465.597C305.844 467.473 307.365 468.994 309.241 468.994Z" fill="#807163"/>
<path d="M309.241 489.796C311.117 489.796 312.638 488.275 312.638 486.399C312.638 484.524 311.117 483.003 309.241 483.003C307.365 483.003 305.844 484.524 305.844 486.399C305.844 488.275 307.365 489.796 309.241 489.796Z" fill="#807163"/>
<path d="M332.167 460.925H316.883V491.069H332.167V460.925Z" fill="#222D2B"/>
<path d="M330.469 452.86H318.581L316.883 460.927H332.167L330.469 452.86Z" fill="#222D2B"/>
<path d="M330.469 499.137H318.581L316.883 491.07H332.167L330.469 499.137Z" fill="#222D2B"/>
<path d="M324.525 468.994C326.401 468.994 327.921 467.473 327.921 465.597C327.921 463.721 326.401 462.201 324.525 462.201C322.649 462.201 321.128 463.721 321.128 465.597C321.128 467.473 322.649 468.994 324.525 468.994Z" fill="#807163"/>
<path d="M324.525 489.796C326.401 489.796 327.921 488.275 327.921 486.399C327.921 484.524 326.401 483.003 324.525 483.003C322.649 483.003 321.128 484.524 321.128 486.399C321.128 488.275 322.649 489.796 324.525 489.796Z" fill="#807163"/>
<path d="M347.451 460.925H332.167V491.069H347.451V460.925Z" fill="#222D2B"/>
<path d="M345.329 452.86H333.865L332.167 460.927H347.451L345.329 452.86Z" fill="#222D2B"/>
<path d="M345.329 499.137H333.865L332.167 491.07H347.451L345.329 499.137Z" fill="#222D2B"/>
<path d="M339.809 468.994C341.685 468.994 343.206 467.473 343.206 465.597C343.206 463.721 341.685 462.201 339.809 462.201C337.933 462.201 336.413 463.721 336.413 465.597C336.413 467.473 337.933 468.994 339.809 468.994Z" fill="#807163"/>
<path d="M339.809 489.796C341.685 489.796 343.206 488.275 343.206 486.399C343.206 484.524 341.685 483.003 339.809 483.003C337.933 483.003 336.413 484.524 336.413 486.399C336.413 488.275 337.933 489.796 339.809 489.796Z" fill="#807163"/>
<path d="M301.598 478.76C303.239 478.76 304.57 477.429 304.57 475.788C304.57 474.146 303.239 472.816 301.598 472.816C299.957 472.816 298.626 474.146 298.626 475.788C298.626 477.429 299.957 478.76 301.598 478.76Z" fill="#222D2B"/>
<path d="M316.882 478.76C318.524 478.76 319.854 477.429 319.854 475.788C319.854 474.146 318.524 472.816 316.882 472.816C315.241 472.816 313.911 474.146 313.911 475.788C313.911 477.429 315.241 478.76 316.882 478.76Z" fill="#222D2B"/>
<path d="M256.17 478.76C257.811 478.76 259.142 477.429 259.142 475.788C259.142 474.146 257.811 472.816 256.17 472.816C254.528 472.816 253.198 474.146 253.198 475.788C253.198 477.429 254.528 478.76 256.17 478.76Z" fill="#222D2B"/>
<path d="M271.454 478.76C273.095 478.76 274.426 477.429 274.426 475.788C274.426 474.146 273.095 472.816 271.454 472.816C269.813 472.816 268.482 474.146 268.482 475.788C268.482 477.429 269.813 478.76 271.454 478.76Z" fill="#222D2B"/>
<path d="M235.79 888.467C236.64 888.467 237.489 888.467 238.338 888.467C243.857 889.316 248.952 892.713 252.773 898.232C255.745 893.987 260.415 889.316 267.208 888.467C268.058 888.467 268.907 888.467 269.756 888.467C279.096 888.467 287.163 896.109 287.163 905.025C287.163 914.366 279.521 921.584 269.756 921.584C268.907 921.584 268.058 921.584 267.208 921.584C262.114 920.734 257.019 917.762 253.198 912.668C253.198 912.243 252.773 912.243 252.773 911.818C249.801 916.064 245.131 920.734 238.338 921.584C237.489 921.584 236.64 921.584 235.79 921.584C226.45 921.584 218.383 913.941 218.383 905.025C218.383 895.685 226.45 888.467 235.79 888.467ZM249.377 905.025L248.103 902.903C248.103 902.478 247.678 902.053 247.678 902.053C245.555 899.081 242.159 895.685 237.489 895.26C237.064 895.26 236.215 895.26 235.79 895.26C229.846 895.26 225.176 899.931 225.176 905.025C225.176 910.545 229.846 914.79 235.79 914.79C236.215 914.79 237.064 914.79 237.489 914.79C242.159 913.941 245.98 910.545 247.678 907.573L249.377 905.025ZM270.18 914.79C276.124 914.79 280.795 910.12 280.795 905.025C280.795 899.506 276.124 895.26 270.18 895.26C269.756 895.26 268.907 895.26 268.482 895.26C263.812 896.11 260.415 899.506 258.292 902.478L257.019 905.025L257.868 906.724C258.293 907.573 258.717 907.997 259.142 908.422C262.114 912.243 265.086 914.366 268.907 914.79C269.331 914.79 269.756 914.79 270.18 914.79Z" fill="#EFAD0A"/>
<path d="M276.549 902.904H264.237V906.725H276.549V902.904Z" fill="#EFAD0A"/>
<path d="M234.517 902.904H230.272V906.725H234.517V910.97H238.338V906.725H242.584V902.904H238.338V898.658H234.517V902.904Z" fill="#EFAD0A"/>
<path d="M451.046 328.887H414.958V376.864H451.046V328.887Z" fill="#222D2B"/>
<path d="M433.214 351.391C437.435 351.391 440.857 347.969 440.857 343.748C440.857 339.528 437.435 336.106 433.214 336.106C428.994 336.106 425.572 339.528 425.572 343.748C425.572 347.969 428.994 351.391 433.214 351.391Z" fill="#2D3634"/>
<path d="M433.214 347.993C435.559 347.993 437.46 346.092 437.46 343.748C437.46 341.403 435.559 339.502 433.214 339.502C430.87 339.502 428.969 341.403 428.969 343.748C428.969 346.092 430.87 347.993 433.214 347.993Z" fill="#807163"/>
<path d="M451.046 781.9H414.958V829.876H451.046V781.9Z" fill="#222D2B"/>
<path d="M433.214 804.403C437.435 804.403 440.857 800.981 440.857 796.761C440.857 792.54 437.435 789.119 433.214 789.119C428.994 789.119 425.572 792.54 425.572 796.761C425.572 800.981 428.994 804.403 433.214 804.403Z" fill="#2D3634"/>
<path d="M433.214 801.004C435.559 801.004 437.46 799.103 437.46 796.758C437.46 794.413 435.559 792.513 433.214 792.513C430.87 792.513 428.969 794.413 428.969 796.758C428.969 799.103 430.87 801.004 433.214 801.004Z" fill="#807163"/>
<path d="M253.198 564.948V632.454H221.78C219.657 632.454 217.959 634.153 217.959 636.276V640.097C217.959 641.795 216.26 643.493 214.562 643.493H167.011C165.312 643.493 163.614 641.795 163.614 640.097V557.306C163.614 555.608 165.312 553.909 167.011 553.909H214.562C216.685 553.909 217.959 555.608 217.959 557.306V561.127C217.959 563.25 219.657 564.948 221.78 564.948H253.198V564.948Z" fill="#8C9091"/>
<path d="M313.911 560.278H235.791V638.398H313.911V560.278Z" fill="#323A38"/>
<path d="M307.967 569.619C309.843 569.619 311.363 568.098 311.363 566.223C311.363 564.347 309.843 562.826 307.967 562.826C306.091 562.826 304.57 564.347 304.57 566.223C304.57 568.098 306.091 569.619 307.967 569.619Z" fill="#222D2B"/>
<path d="M307.967 635.851C309.843 635.851 311.363 634.33 311.363 632.454C311.363 630.578 309.843 629.058 307.967 629.058C306.091 629.058 304.57 630.578 304.57 632.454C304.57 634.33 306.091 635.851 307.967 635.851Z" fill="#222D2B"/>
<path d="M241.735 569.619C243.611 569.619 245.131 568.098 245.131 566.223C245.131 564.347 243.611 562.826 241.735 562.826C239.859 562.826 238.338 564.347 238.338 566.223C238.338 568.098 239.859 569.619 241.735 569.619Z" fill="#222D2B"/>
<path d="M241.735 635.851C243.611 635.851 245.131 634.33 245.131 632.454C245.131 630.578 243.611 629.058 241.735 629.058C239.859 629.058 238.338 630.578 238.338 632.454C238.338 634.33 239.859 635.851 241.735 635.851Z" fill="#222D2B"/>
<path d="M274.851 564.523C293.957 564.523 309.666 580.232 309.666 599.338C309.666 618.443 293.957 634.152 274.851 634.152C255.746 634.152 240.037 618.443 240.037 599.338C240.037 580.232 255.746 564.523 274.851 564.523ZM274.851 560.278C253.198 560.278 235.791 577.685 235.791 599.338C235.791 620.991 253.198 638.398 274.851 638.398C296.504 638.398 313.911 620.991 313.911 599.338C313.911 577.685 296.504 560.278 274.851 560.278Z" fill="#222D2B"/>
<path d="M243.433 604.432C243.433 604.007 243.433 603.583 244.282 603.158" stroke="#222D2B" stroke-width="0.5" stroke-linecap="round" stroke-linejoin="round"/>
<path d="M244.282 595.518C247.678 596.792 247.678 601.886 244.282 603.585" stroke="#222D2B" stroke-width="0.5" stroke-linecap="round" stroke-linejoin="round"/>
<path d="M244.282 595.517C243.858 595.092 243.433 595.092 243.433 594.243" stroke="#222D2B" stroke-width="0.5" stroke-linecap="round" stroke-linejoin="round"/>
<path d="M243.433 594.243C244.282 589.148 245.981 584.902 248.953 580.657" stroke="#222D2B" stroke-width="0.5" stroke-linecap="round" stroke-linejoin="round"/>
<path d="M248.953 580.655C249.378 580.23 249.802 580.23 250.227 580.23" stroke="#222D2B" stroke-width="0.5" stroke-linecap="round" stroke-linejoin="round"/>
<path d="M250.226 580.234C253.623 581.932 257.444 578.111 255.746 574.715" stroke="#222D2B" stroke-width="0.5" stroke-linecap="round" stroke-linejoin="round"/>
<path d="M256.171 574.713C255.746 574.288 256.171 573.864 256.595 573.439" stroke="#222D2B" stroke-width="0.5" stroke-linecap="round" stroke-linejoin="round"/>
<path d="M256.17 573.439C260.416 570.467 264.661 568.769 269.756 567.92" stroke="#222D2B" stroke-width="0.5" stroke-linecap="round" stroke-linejoin="round"/>
<path d="M269.756 567.92C270.18 567.92 270.605 567.92 271.03 568.769" stroke="#222D2B" stroke-width="0.5" stroke-linecap="round" stroke-linejoin="round"/>
<path d="M271.03 568.77C272.304 572.167 277.399 572.167 279.097 568.77" stroke="#222D2B" stroke-width="0.5" stroke-linecap="round" stroke-linejoin="round"/>
<path d="M278.672 568.769C279.097 568.344 279.097 567.92 279.946 567.92" stroke="#222D2B" stroke-width="0.5" stroke-linecap="round" stroke-linejoin="round"/>
<path d="M279.946 567.92C285.04 568.769 289.286 570.467 293.532 573.439" stroke="#222D2B" stroke-width="0.5" stroke-linecap="round" stroke-linejoin="round"/>
<path d="M293.533 573.439C293.957 573.864 293.957 574.288 293.957 574.713" stroke="#222D2B" stroke-width="0.5" stroke-linecap="round" stroke-linejoin="round"/>
<path d="M293.957 574.715C292.259 578.111 296.08 581.932 299.476 580.234" stroke="#222D2B" stroke-width="0.5" stroke-linecap="round" stroke-linejoin="round"/>
<path d="M299.476 580.232C299.9 579.807 300.325 580.232 300.75 580.656" stroke="#222D2B" stroke-width="0.5" stroke-linecap="round" stroke-linejoin="round"/>
<path d="M300.75 580.657C303.722 584.902 305.42 589.148 306.269 594.243" stroke="#222D2B" stroke-width="0.5" stroke-linecap="round" stroke-linejoin="round"/>
<path d="M306.269 594.243C306.269 594.668 306.269 595.092 305.42 595.517" stroke="#222D2B" stroke-width="0.5" stroke-linecap="round" stroke-linejoin="round"/>
<path d="M305.845 595.518C302.448 596.792 302.448 601.886 305.845 603.585" stroke="#222D2B" stroke-width="0.5" stroke-linecap="round" stroke-linejoin="round"/>
<path d="M305.844 603.158C306.269 603.583 306.693 603.583 306.693 604.432" stroke="#222D2B" stroke-width="0.5" stroke-linecap="round" stroke-linejoin="round"/>
<path d="M306.269 604.434C305.42 609.528 303.722 613.774 300.75 618.02" stroke="#222D2B" stroke-width="0.5" stroke-linecap="round" stroke-linejoin="round"/>
<path d="M300.75 618.019C300.325 618.443 299.9 618.443 299.476 618.443" stroke="#222D2B" stroke-width="0.5" stroke-linecap="round" stroke-linejoin="round"/>
<path d="M299.476 618.443C296.08 616.745 292.259 620.566 293.957 623.963" stroke="#222D2B" stroke-width="0.5" stroke-linecap="round" stroke-linejoin="round"/>
<path d="M293.957 623.962C294.382 624.387 293.957 624.811 293.533 625.236" stroke="#222D2B" stroke-width="0.5" stroke-linecap="round" stroke-linejoin="round"/>
<path d="M293.532 625.237C289.286 628.209 285.04 629.907 279.946 630.756" stroke="#222D2B" stroke-width="0.5" stroke-linecap="round" stroke-linejoin="round"/>
<path d="M279.946 630.756C279.522 630.756 279.097 630.756 278.672 629.907" stroke="#222D2B" stroke-width="0.5" stroke-linecap="round" stroke-linejoin="round"/>
<path d="M278.672 629.907C277.399 626.511 272.304 626.511 270.606 629.907" stroke="#222D2B" stroke-width="0.5" stroke-linecap="round" stroke-linejoin="round"/>
<path d="M271.03 629.907C270.605 630.332 270.605 630.756 269.756 630.756" stroke="#222D2B" stroke-width="0.5" stroke-linecap="round" stroke-linejoin="round"/>
<path d="M269.756 630.756C264.661 629.907 260.416 628.209 256.17 625.237" stroke="#222D2B" stroke-width="0.5" stroke-linecap="round" stroke-linejoin="round"/>
<path d="M256.17 625.236C255.746 624.811 255.746 624.387 255.746 623.962" stroke="#222D2B" stroke-width="0.5" stroke-linecap="round" stroke-linejoin="round"/>
<path d="M256.17 623.963C257.868 620.566 254.047 616.745 250.65 618.443" stroke="#222D2B" stroke-width="0.5" stroke-linecap="round" stroke-linejoin="round"/>
<path d="M250.227 618.443C249.802 618.868 249.378 618.443 248.953 618.019" stroke="#222D2B" stroke-width="0.5" stroke-linecap="round" stroke-linejoin="round"/>
<path d="M248.953 618.02C245.981 613.774 244.282 609.528 243.433 604.434" stroke="#222D2B" stroke-width="0.5" stroke-linecap="round" stroke-linejoin="round"/>
<path d="M251.925 599.336C251.925 612.073 262.114 622.263 274.851 622.263C287.588 622.263 297.778 612.073 297.778 599.336" stroke="#222D2B" stroke-width="0.5" stroke-linecap="round" stroke-linejoin="round"/>
<path d="M297.778 599.339C297.778 586.602 287.588 576.412 274.851 576.412C262.114 576.412 251.925 586.602 251.925 599.339" stroke="#222D2B" stroke-width="0.5" stroke-linecap="round" stroke-linejoin="round"/>
<path d="M302.448 599.336C302.448 614.62 290.136 626.933 274.851 626.933C259.567 626.933 247.254 614.62 247.254 599.336" stroke="#222D2B" stroke-width="0.5" stroke-linecap="round" stroke-linejoin="round"/>
<path d="M247.254 599.338C247.254 584.053 259.567 571.741 274.851 571.741C290.136 571.741 302.448 584.053 302.448 599.338" stroke="#222D2B" stroke-width="0.5" stroke-linecap="round" stroke-linejoin="round"/>
<path d="M274.851 615.897C283.996 615.897 291.409 608.484 291.409 599.339C291.409 590.194 283.996 582.781 274.851 582.781C265.707 582.781 258.293 590.194 258.293 599.339C258.293 608.484 265.707 615.897 274.851 615.897Z" fill="#222D2B"/>
<path d="M246.405 843.461H240.886V854.5H246.405V843.461Z" fill="#969C9E"/>
<path d="M254.897 843.461H249.377V854.5H254.897V843.461Z" fill="#969C9E"/>
<path d="M263.388 843.461H257.869V854.5H263.388V843.461Z" fill="#969C9E"/>
<path d="M272.304 843.461H266.784V854.5H272.304V843.461Z" fill="#969C9E"/>
<path d="M280.795 843.461H275.276V854.5H280.795V843.461Z" fill="#969C9E"/>
<path d="M289.287 843.461H283.767V854.5H289.287V843.461Z" fill="#969C9E"/>
<path d="M297.778 843.461H292.258V854.5H297.778V843.461Z" fill="#969C9E"/>
<path d="M306.269 843.461H300.75V854.5H306.269V843.461Z" fill="#969C9E"/>
<path d="M315.185 843.461H309.666V854.5H315.185V843.461Z" fill="#969C9E"/>
<path d="M323.676 843.461H318.157V854.5H323.676V843.461Z" fill="#969C9E"/>
<path d="M332.168 843.461H326.648V854.5H332.168V843.461Z" fill="#969C9E"/>
<path d="M340.659 843.461H335.14V854.5H340.659V843.461Z" fill="#969C9E"/>
<path d="M349.575 843.461H344.055V854.5H349.575V843.461Z" fill="#969C9E"/>
<path d="M246.405 719.913H240.886V730.952H246.405V719.913Z" fill="#969C9E"/>
<path d="M254.897 719.913H249.377V730.951H254.897V719.913Z" fill="#969C9E"/>
<path d="M263.388 719.913H257.869V730.951H263.388V719.913Z" fill="#969C9E"/>
<path d="M272.304 719.913H266.784V730.951H272.304V719.913Z" fill="#969C9E"/>
<path d="M280.795 719.913H275.276V730.951H280.795V719.913Z" fill="#969C9E"/>
<path d="M289.287 719.913H283.767V730.951H289.287V719.913Z" fill="#969C9E"/>
<path d="M297.778 719.913H292.258V730.951H297.778V719.913Z" fill="#969C9E"/>
<path d="M306.269 719.913H300.75V730.951H306.269V719.913Z" fill="#969C9E"/>
<path d="M315.185 719.913H309.666V730.951H315.185V719.913Z" fill="#969C9E"/>
<path d="M323.676 719.913H318.157V730.951H323.676V719.913Z" fill="#969C9E"/>
<path d="M332.168 719.913H326.648V730.951H332.168V719.913Z" fill="#969C9E"/>
<path d="M340.659 719.913H335.14V730.951H340.659V719.913Z" fill="#969C9E"/>
<path d="M349.575 719.913H344.055V730.951H349.575V719.913Z" fill="#969C9E"/>
<path d="M356.565 836.273L356.565 841.792L367.603 841.792L367.603 836.273L356.565 836.273Z" fill="#969C9E"/>
<path d="M356.656 827.691L356.656 833.21L367.694 833.21L367.694 827.691L356.656 827.691Z" fill="#969C9E"/>
<path d="M356.748 819.105L356.748 824.625L367.787 824.625L367.787 819.105L356.748 819.105Z" fill="#969C9E"/>
<path d="M356.415 810.523L356.415 816.043L367.454 816.043L367.454 810.523L356.415 810.523Z" fill="#969C9E"/>
<path d="M356.506 801.94L356.506 807.46L367.545 807.46L367.545 801.94L356.506 801.94Z" fill="#969C9E"/>
<path d="M356.598 793.358L356.598 798.878L367.637 798.878L367.637 793.358L356.598 793.358Z" fill="#969C9E"/>
<path d="M356.689 784.776L356.689 790.295L367.728 790.295L367.728 784.776L356.689 784.776Z" fill="#969C9E"/>
<path d="M356.781 776.191L356.781 781.71L367.82 781.71L367.82 776.191L356.781 776.191Z" fill="#969C9E"/>
<path d="M356.448 767.608L356.448 773.127L367.487 773.127L367.487 767.608L356.448 767.608Z" fill="#969C9E"/>
<path d="M356.54 759.026L356.54 764.545L367.578 764.545L367.578 759.026L356.54 759.026Z" fill="#969C9E"/>
<path d="M356.631 750.443L356.631 755.962L367.67 755.962L367.67 750.443L356.631 750.443Z" fill="#969C9E"/>
<path d="M356.723 741.859L356.723 747.379L367.762 747.379L367.762 741.859L356.723 741.859Z" fill="#969C9E"/>
<path d="M356.39 733.276L356.39 738.796L367.429 738.796L367.429 733.276L356.39 733.276Z" fill="#969C9E"/>
<path d="M222.47 836.343L222.47 841.862L233.509 841.862L233.509 836.343L222.47 836.343Z" fill="#969C9E"/>
<path d="M222.562 827.761L222.562 833.28L233.6 833.28L233.6 827.761L222.562 827.761Z" fill="#969C9E"/>
<path d="M222.654 819.175L222.654 824.694L233.693 824.694L233.693 819.175L222.654 819.175Z" fill="#969C9E"/>
<path d="M222.321 810.593L222.321 816.112L233.359 816.112L233.359 810.593L222.321 810.593Z" fill="#969C9E"/>
<path d="M222.412 802.01L222.412 807.529L233.451 807.529L233.451 802.01L222.412 802.01Z" fill="#969C9E"/>
<path d="M222.504 793.428L222.504 798.948L233.543 798.948L233.543 793.428L222.504 793.428Z" fill="#969C9E"/>
<path d="M222.596 784.845L222.596 790.365L233.634 790.365L233.634 784.845L222.596 784.845Z" fill="#969C9E"/>
<path d="M222.687 776.26L222.687 781.78L233.726 781.78L233.726 776.26L222.687 776.26Z" fill="#969C9E"/>
<path d="M222.354 767.678L222.354 773.197L233.393 773.197L233.393 767.678L222.354 767.678Z" fill="#969C9E"/>
<path d="M222.445 759.096L222.445 764.615L233.484 764.615L233.484 759.096L222.445 759.096Z" fill="#969C9E"/>
<path d="M222.537 750.513L222.537 756.032L233.575 756.032L233.575 750.513L222.537 750.513Z" fill="#969C9E"/>
<path d="M222.629 741.931L222.629 747.45L233.668 747.45L233.668 741.931L222.629 741.931Z" fill="#969C9E"/>
<path d="M222.296 733.346L222.296 738.865L233.335 738.865L233.335 733.346L222.296 733.346Z" fill="#969C9E"/>
<path d="M275.276 807.375H255.746V826.905H275.276V807.375Z" fill="#969C9E"/>
<path d="M304.996 807.374H285.466V826.904H304.996V807.374Z" fill="#969C9E"/>
<path d="M334.715 807.374H315.185V826.904H334.715V807.374Z" fill="#969C9E"/>
<path d="M275.276 777.653H255.746V797.184H275.276V777.653Z" fill="#969C9E"/>
<path d="M304.996 777.656H285.466V797.186H304.996V777.656Z" fill="#969C9E"/>
<path d="M334.715 777.656H315.185V797.186H334.715V777.656Z" fill="#969C9E"/>
<path d="M275.276 747.936H255.746V767.466H275.276V747.936Z" fill="#969C9E"/>
<path d="M304.996 747.935H285.466V767.466H304.996V747.935Z" fill="#969C9E"/>
<path d="M334.715 747.935H315.185V767.466H334.715V747.935Z" fill="#969C9E"/>
<path d="M365.284 895.686H357.641V902.479H365.284V895.686Z" fill="#969C9E"/>
<path d="M394.579 895.686H386.937V902.479H394.579V895.686Z" fill="#969C9E"/>
<path d="M387.361 883.371H365.284V890.164H387.361V883.371Z" fill="#969C9E"/>
<path d="M387.361 907.997H365.284V914.79H387.361V907.997Z" fill="#969C9E"/>
<path d="M230 549H328V649H230V549Z" stroke="#DEF154" stroke-width="6" stroke-linejoin="round"/>
<path d="M278 529.22L278 231L634 231M278 668.037V848H634" stroke="#DEF154" stroke-width="8" stroke-linecap="round" stroke-dasharray="20 20"/>
<path d="M634 146H1767V902H634V146Z" fill="#B0BFBF" fill-opacity="0.22"/>
<path d="M1091 415.217C1091 415.217 1136.3 415.217 1146.06 397.069C1146.06 397.069 1089.61 359.445 1128.65 317.594C1167.69 275.743 1219.39 295.286 1219.39 317.594C1219.39 339.903 1243.44 371.463 1218.35 396.56C1218.35 396.56 1230.54 427.766 1268.19 422.189C1268.19 422.189 1219.5 563.013 1170.59 544.887C1121.67 526.761 1091 415.217 1091 415.217Z" fill="white"/>
<path d="M1026.4 887C1026.4 887 869.841 869.728 860.267 762.555C850.692 655.381 898.546 701.324 898.546 590.445C898.546 479.567 1006 403.555 1116.95 409.305L1180.71 498.6L1238.1 415.684C1238.1 415.684 1360.53 400.052 1406.44 462.254C1452.35 524.457 1395.94 539.764 1476.28 607.677C1556.62 675.589 1521.24 770.33 1521.24 770.33L1402.58 877.807L1026.4 887Z" fill="black"/>
<path d="M1197.5 354C1199.99 354 1202 351.985 1202 349.5C1202 347.015 1199.99 345 1197.5 345C1195.01 345 1193 347.015 1193 349.5C1193 351.985 1195.01 354 1197.5 354Z" fill="#374146"/>
<path d="M1164.5 354C1166.99 354 1169 351.985 1169 349.5C1169 347.015 1166.99 345 1164.5 345C1162.01 345 1160 347.015 1160 349.5C1160 351.985 1162.01 354 1164.5 354Z" fill="#374146"/>
<path d="M1178.01 381.418C1178.01 381.418 1192.67 385.601 1186.38 374.092" stroke="#374146" stroke-width="4" stroke-miterlimit="10" stroke-linecap="round"/>
<path d="M1187 393.461C1188.57 393.461 1200.59 393.461 1202.16 380.913" stroke="#374146" stroke-width="4" stroke-miterlimit="10" stroke-linecap="round"/>
<path d="M1150.84 397.505C1150.84 397.505 1182.2 434.089 1213.58 395.403" stroke="#374146" stroke-width="4" stroke-miterlimit="10" stroke-linecap="round"/>
<path d="M1053.05 337.101L1142.98 393.581C1142.98 393.581 1154.35 375.876 1144.04 347.57C1139.85 336.061 1151.34 319.861 1151.34 319.861L1208.35 319.33C1208.35 319.33 1227.7 346.529 1222.41 367.422C1217.12 388.314 1222.41 389.376 1222.41 389.376C1222.41 389.376 1252.75 389.376 1267.38 368.462C1282.01 347.548 1306.09 338.142 1306.09 338.142C1306.09 338.142 1308.17 315.125 1265.3 299.433C1222.43 283.742 1238.1 254.462 1185.82 259.596C1133.55 264.731 1130.49 283.653 1112.61 296.202C1094.73 308.751 1060.36 309.879 1053.05 337.101Z" fill="#353535"/>
<path d="M1430.01 553.455H1011.02V890.897H1430.01V553.455Z" fill="#535353"/>
<path d="M1215.18 737.656C1227.61 737.656 1237.69 727.578 1237.69 715.148C1237.69 702.717 1227.61 692.64 1215.18 692.64C1202.75 692.64 1192.67 702.717 1192.67 715.148C1192.67 727.578 1202.75 737.656 1215.18 737.656Z" fill="#E1E5E9"/>
<path d="M1466.26 897.12C1466.26 897.12 1435.59 880.389 1440.46 851.109C1445.33 821.828 1424.44 793.92 1460.69 793.92C1496.94 793.92 1550.63 797.417 1546.45 821.12C1542.26 844.823 1526.22 864.343 1526.22 864.343C1526.22 864.343 1533.19 883.177 1521.35 896.412C1509.51 909.647 1466.26 897.12 1466.26 897.12Z" fill="#374146"/>
<path d="M1425.24 844.819C1425.24 844.819 1449.58 851.104 1449.58 826.693C1449.58 802.282 1452.33 795.974 1461.38 798.187C1470.43 800.4 1477.42 823.993 1474.66 848.404C1471.89 872.815 1492.78 884.656 1505.33 870.713C1505.33 870.713 1529.68 893.022 1540.19 863.741C1540.19 863.741 1570.86 870.005 1562.5 837.183C1562.5 837.183 1572.26 834.395 1570.86 813.48C1569.47 792.566 1561.81 790.486 1561.1 777.229C1560.4 763.972 1522.06 723.559 1487.91 739.605C1453.77 755.65 1427.94 747.971 1420.97 790.508C1413.99 833.045 1420.94 842.03 1425.24 844.819Z" fill="white"/>
<path d="M1552.71 797.421C1552.71 797.421 1563.18 821.766 1562.47 837.258" stroke="#374146" stroke-width="4" stroke-miterlimit="10" stroke-linecap="round"/>
<path d="M1526.22 805.78C1526.22 805.78 1540.16 837.141 1540.16 863.655" stroke="#374146" stroke-width="4" stroke-miterlimit="10" stroke-linecap="round"/>
<path d="M1498.27 807.173C1498.27 807.173 1511.55 841.322 1505.24 870.625" stroke="#374146" stroke-width="4" stroke-miterlimit="10" stroke-linecap="round"/>
<path d="M637 149H1764V899H637V149Z" stroke="#DEF154" stroke-width="6" stroke-linejoin="round"/>
<rect width="1122" height="25" transform="translate(639 152)" fill="#272823"/>
<circle cx="671" cy="165" r="6" fill="#EE6A5D"/>
<circle cx="690" cy="165" r="6" fill="#F6BF4F"/>
<circle cx="707" cy="165" r="6" fill="#61C554"/>
<rect x="1030" y="217" width="305" height="280" stroke="white" stroke-width="4"/>
</g>
<defs>
<clipPath id="clip0">
<rect width="1920" height="1080" fill="white"/>
</clipPath>
</defs>
</svg>
