<?xml version="1.0" encoding="utf-8"?>
<!-- Generator: Adobe Illustrator 25.0.1, SVG Export Plug-In . SVG Version: 6.00 Build 0)  -->
<svg version="1.1" id="Layer_1" xmlns="http://www.w3.org/2000/svg" xmlns:xlink="http://www.w3.org/1999/xlink" x="0px" y="0px"
	 viewBox="0 0 129.3 50.4" style="enable-background:new 0 0 129.3 50.4;" xml:space="preserve">
<style type="text/css">
	.st0{fill:#017481;}
	.st1{fill:#C2C5C6;}
	.st2{fill:#9DA0A1;}
	.st3{fill:#8B8F90;}
	.st4{fill:#80B9C0;}
	.st5{fill:#EAA800;}
	.st6{fill:#8A7867;}
	.st7{fill:#FFFFFF;}
	.st8{fill:none;}
	.st9{fill:#B8B9BA;}
	.st10{fill:#499BA5;}
	.st11{fill:#6C972E;}
	.st12{fill:#F8E6B7;}
	.st13{fill:#F6DB95;}
	.st14{fill:#C2B9AF;}
</style>
<path class="st0" d="M9.9,50.4c0-0.8,0.7-1.5,1.5-1.5s1.5,0.7,1.5,1.5H17c0-0.8,0.7-1.5,1.5-1.5s1.5,0.7,1.5,1.5h4.2
	c0-0.8,0.7-1.5,1.5-1.5s1.5,0.7,1.5,1.5h4.2c0-0.8,0.7-1.5,1.5-1.5s1.5,0.7,1.5,1.5h4.2c0-0.8,0.7-1.5,1.5-1.5s1.5,0.7,1.5,1.5h4.2
	c0-0.8,0.7-1.5,1.5-1.5s1.5,0.7,1.5,1.5h4.2c0-0.8,0.7-1.5,1.5-1.5s1.5,0.7,1.5,1.5h4.2c0-0.8,0.7-1.5,1.5-1.5s1.5,0.7,1.5,1.5h4.2
	c0-0.8,0.6-1.5,1.5-1.5c0.8,0,1.5,0.6,1.5,1.5c0,0,0,0,0,0h4.2c0-0.8,0.7-1.5,1.5-1.5s1.5,0.7,1.5,1.5h4.2c0-0.8,0.7-1.5,1.5-1.5
	s1.5,0.7,1.5,1.5h4.2c0-0.8,0.7-1.5,1.5-1.5s1.5,0.7,1.5,1.5h4.2c0-0.8,0.7-1.5,1.5-1.5s1.5,0.7,1.5,1.5h4.2c0-0.8,0.7-1.5,1.5-1.5
	s1.5,0.7,1.5,1.5h4.2c0-0.8,0.7-1.5,1.5-1.5s1.5,0.7,1.5,1.5h9.9V0h-9.9c0,0.8-0.7,1.5-1.5,1.5s-1.5-0.7-1.5-1.5h-4.2
	c0,0.8-0.7,1.5-1.5,1.5s-1.5-0.7-1.5-1.5h-4.2c0,0.8-0.7,1.5-1.5,1.5S95.3,0.8,95.3,0h-4.2c0,0.8-0.7,1.5-1.5,1.5S88.2,0.8,88.2,0
	H84c0,0.8-0.7,1.5-1.5,1.5S81,0.8,81,0h-4.2c0,0.8-0.7,1.5-1.5,1.5S73.9,0.8,73.9,0h-4.2c0,0.8-0.7,1.5-1.5,1.5S66.8,0.8,66.8,0
	h-4.2c0,0.8-0.7,1.5-1.5,1.5S59.7,0.8,59.7,0h-4.2c0,0.8-0.7,1.5-1.5,1.5S52.6,0.8,52.6,0h-4.2c0,0.8-0.7,1.5-1.5,1.5
	S45.5,0.8,45.5,0h-4.2c0,0.8-0.7,1.5-1.5,1.5S38.4,0.8,38.4,0h-4.2c0,0.8-0.7,1.5-1.5,1.5S31.2,0.8,31.2,0h-4.2
	c0,0.8-0.7,1.5-1.5,1.5S24.1,0.8,24.1,0h-4.2c0,0.8-0.7,1.5-1.5,1.5S17,0.8,17,0h-4.2c0,0.8-0.7,1.5-1.5,1.5S9.9,0.8,9.9,0H0v50.4
	H9.9z M118.7,1.3c1.3,0,2.3,1,2.3,2.3s-1,2.3-2.3,2.3c-1.3,0-2.3-1-2.3-2.3v0C116.4,2.3,117.4,1.3,118.7,1.3L118.7,1.3z M118.7,44.4
	c1.3,0,2.3,1,2.3,2.3s-1,2.3-2.3,2.3c-1.3,0-2.3-1-2.3-2.3v0C116.4,45.5,117.4,44.4,118.7,44.4L118.7,44.4z M3.6,1.3
	c1.3,0,2.3,1,2.3,2.3c0,1.3-1,2.3-2.3,2.3c-1.3,0-2.3-1-2.3-2.3v0C1.3,2.3,2.3,1.3,3.6,1.3L3.6,1.3z M3.6,44.4c1.3,0,2.3,1,2.3,2.3
	c0,1.3-1,2.3-2.3,2.3c-1.3,0-2.3-1-2.3-2.3v0C1.3,45.5,2.3,44.4,3.6,44.4L3.6,44.4z"/>
<g id="USB">
	<path class="st1" d="M113.1,28.7v1.1c0,0.1-0.1,0.2-0.2,0.2h-4.1c-0.1,0-0.2-0.1-0.2-0.2v-1.1c0-0.1,0.1-0.2,0.2-0.2c0,0,0,0,0,0
		h4.1C113.1,28.5,113.1,28.6,113.1,28.7z"/>
	<path class="st1" d="M108.8,27.8h4.1c0.1,0,0.2-0.1,0.2-0.2v-1.1c0-0.1-0.1-0.2-0.2-0.2h-4.1c-0.1,0-0.2,0.1-0.2,0.2c0,0,0,0,0,0
		v1.1C108.6,27.8,108.7,27.8,108.8,27.8C108.8,27.8,108.8,27.8,108.8,27.8z"/>
	<path class="st1" d="M113.1,24.4v1.1c0,0.1-0.1,0.2-0.2,0.2h-4.1c-0.1,0-0.2-0.1-0.2-0.2c0,0,0,0,0,0v-1.1c0-0.1,0.1-0.2,0.2-0.2
		c0,0,0,0,0,0h4.1C113.1,24.2,113.1,24.3,113.1,24.4C113.1,24.4,113.1,24.4,113.1,24.4z"/>
	<path class="st1" d="M113.1,22.3v1.1c0,0.1-0.1,0.2-0.2,0.2h-4.1c-0.1,0-0.2-0.1-0.2-0.2v-1.1c0-0.1,0.1-0.2,0.2-0.2c0,0,0,0,0,0
		h4.1C113.1,22.1,113.1,22.2,113.1,22.3z"/>
	<path class="st1" d="M113.1,20.2v1.1c0,0.1-0.1,0.2-0.2,0.2h-4.1c-0.1,0-0.2-0.1-0.2-0.2v-1.1c0-0.1,0.1-0.2,0.2-0.2c0,0,0,0,0,0
		h4.1C113.1,20,113.1,20.1,113.1,20.2C113.1,20.2,113.1,20.2,113.1,20.2z"/>
	<rect x="111" y="13.3" class="st2" width="18.3" height="23.8"/>
	<polygon class="st3" points="112.8,13.3 111,13.3 111,13.3 111,37 111,37.1 112.8,37.1 112.8,37 112.8,37 	"/>
	<polygon class="st3" points="116.5,13.3 114.6,13.3 114.6,13.3 114.6,37 114.6,37.1 116.5,37.1 116.5,37 116.5,37 	"/>
	<polygon class="st3" points="120.1,13.3 118.3,13.3 118.3,13.3 118.3,37 118.3,37.1 120.1,37.1 120.1,37 120.1,37 	"/>
	<polygon class="st3" points="123.8,13.3 121.9,13.3 121.9,13.3 121.9,37 121.9,37.1 123.8,37.1 123.8,37 123.8,37 	"/>
	<polygon class="st3" points="127.4,13.3 125.6,13.3 125.6,13.3 125.6,37 125.6,37.1 127.4,37.1 127.4,37 127.4,37 	"/>
</g>
<rect x="72.7" y="19.4" class="st4" width="10.2" height="1"/>
<rect x="80.3" y="21.5" class="st4" width="1" height="1.9"/>
<rect x="78.3" y="21.5" class="st4" width="1" height="1.9"/>
<rect x="76.4" y="21.5" class="st4" width="1" height="1.9"/>
<rect x="74.4" y="21.5" class="st4" width="1" height="1.9"/>
<rect x="72.7" y="17.5" class="st4" width="10.2" height="1"/>
<rect x="72.7" y="15.6" class="st4" width="10.2" height="1"/>
<rect x="72.7" y="13.8" class="st4" width="10.2" height="1"/>
<rect x="72.7" y="11.9" class="st4" width="10.2" height="1"/>
<rect x="72.7" y="10" class="st4" width="10.2" height="1"/>
<polygon points="73.7,22.5 74.7,22.5 74.7,22.5 81.9,22.5 81.9,21.2 81.9,21.2 82,8.3 81,8.3 81,8.3 74.7,8.3 74.7,8.3 73.7,8.3 "/>
<g id="LED">
	<rect x="113.6" y="7.5" class="st3" width="6.3" height="2.5"/>
	<path class="st5" d="M114.9,8.8c0-1.1,0.9-1.9,1.9-1.9c1.1,0,1.9,0.9,1.9,1.9c0,1.1-0.9,1.9-1.9,1.9h0
		C115.7,10.7,114.9,9.8,114.9,8.8z"/>
</g>
<g id="LED-2">
	<rect x="113.6" y="40.3" class="st3" width="6.3" height="2.5"/>
	<path class="st5" d="M114.9,41.6c0-1.1,0.9-1.9,1.9-1.9c1.1,0,1.9,0.9,1.9,1.9c0,1.1-0.9,1.9-1.9,1.9h0
		C115.7,43.5,114.9,42.7,114.9,41.6z"/>
</g>
<g id="Artwork_12">
	<rect x="83.5" y="35.1" class="st3" width="2.2" height="4.5"/>
	<rect x="77.8" y="35.1" class="st3" width="2.2" height="4.5"/>
	<path class="st6" d="M79.8,35.6c-0.5,0-0.9,0.4-0.9,0.9v1.7c0,0.5,0.4,0.9,0.9,0.9h0.2v-3.5H79.8z"/>
	<path class="st6" d="M83.8,39.1c0.5,0,0.9-0.4,0.9-0.9v-1.7c0-0.5-0.4-0.9-0.9-0.9h-0.2v3.5L83.8,39.1z"/>
	<rect x="80.1" y="35.6" width="3.5" height="3.5"/>
</g>
<g id="Artwork_12-2">
	<rect x="104" y="16.3" class="st3" width="2.2" height="4.5"/>
	<rect x="98.3" y="16.3" class="st3" width="2.2" height="4.5"/>
	<path class="st6" d="M100.3,16.8c-0.5,0-0.9,0.4-0.9,0.9v1.7c0,0.5,0.4,0.9,0.9,0.9h0.2v-3.5H100.3z"/>
	<path class="st6" d="M104.3,20.3c0.5,0,0.9-0.4,0.9-0.9v-1.7c0-0.5-0.4-0.9-0.9-0.9H104v3.5H104.3z"/>
	<rect x="100.6" y="16.8" width="3.5" height="3.5"/>
</g>
<g id="Disegno_5">
	<rect x="98.3" y="24.3" class="st0" width="6.6" height="4.4"/>
	<rect x="98.3" y="24.3" width="6.6" height="4.4"/>
	<rect x="103.2" y="21.8" class="st3" width="1.1" height="3.2"/>
	<rect x="98.9" y="21.8" class="st3" width="1.1" height="3.2"/>
	<rect x="103.2" y="27.5" class="st3" width="1.1" height="3.2"/>
	<rect x="98.9" y="27.5" class="st3" width="1.1" height="3.2"/>
</g>
<g id="Disegno_8">
	<path class="st3" d="M75.1,35.1L75.1,35.1l-1.8,0v0c-0.5,0-0.9,0.4-0.9,0.9c0,0.5,0.4,0.9,0.9,0.9v0h1.8c0.5,0,0.9-0.4,0.9-0.9
		C76,35.5,75.6,35.1,75.1,35.1C75.1,35.1,75.1,35.1,75.1,35.1z"/>
	<rect x="73.5" y="35.1" class="st6" width="1.3" height="1.8"/>
	<rect x="73.5" y="35.1" class="st6" width="1.3" height="1.8"/>
	<rect x="73.5" y="35.1" class="st6" width="1.3" height="1.8"/>
	<rect x="73.5" y="35.1" class="st6" width="1.3" height="1.8"/>
</g>
<g id="Disegno_8-2">
	<path class="st3" d="M71.9,37.1L71.9,37.1l-1.8,0v0c-0.5,0-0.9,0.4-0.9,0.9c0,0.5,0.4,0.9,0.9,0.9v0h1.8c0.5,0,0.9-0.4,0.9-0.9
		C72.8,37.5,72.4,37.1,71.9,37.1C71.9,37.1,71.9,37.1,71.9,37.1z"/>
	<rect x="70.3" y="37.1" class="st6" width="1.3" height="1.8"/>
	<rect x="70.3" y="37.1" class="st6" width="1.3" height="1.8"/>
	<rect x="70.3" y="37.1" class="st6" width="1.3" height="1.8"/>
	<rect x="70.3" y="37.1" class="st6" width="1.3" height="1.8"/>
</g>
<g id="Disegno_8-3">
	<path class="st3" d="M66.4,41L66.4,41l-1.8,0v0c-0.5,0-0.9,0.4-0.9,0.9c0,0.5,0.4,0.9,0.9,0.9v0h1.8c0.5,0,0.9-0.4,0.9-0.9
		C67.3,41.4,66.9,41,66.4,41C66.4,41,66.4,41,66.4,41L66.4,41z"/>
	<rect x="64.8" y="41" class="st6" width="1.3" height="1.8"/>
	<rect x="64.8" y="41" class="st6" width="1.3" height="1.8"/>
	<rect x="64.8" y="41" class="st6" width="1.3" height="1.8"/>
	<rect x="64.8" y="41" class="st6" width="1.3" height="1.8"/>
</g>
<g id="Disegno_8-4">
	<path class="st3" d="M75.7,24.8L75.7,24.8l-1.8,0v0c-0.5,0-0.9,0.4-0.9,0.9c0,0.5,0.4,0.9,0.9,0.9v0h1.8c0.5,0,0.9-0.4,0.9-0.9
		C76.7,25.2,76.3,24.8,75.7,24.8C75.8,24.8,75.8,24.8,75.7,24.8L75.7,24.8z"/>
	<rect x="74.2" y="24.8" class="st6" width="1.3" height="1.8"/>
	<rect x="74.2" y="24.8" class="st6" width="1.3" height="1.8"/>
	<rect x="74.2" y="24.8" class="st6" width="1.3" height="1.8"/>
	<rect x="74.2" y="24.8" class="st6" width="1.3" height="1.8"/>
</g>
<g id="Disegno_8-5">
	<path class="st3" d="M60.1,41L60.1,41l-1.8,0v0c-0.5,0-0.9,0.4-0.9,0.9c0,0.5,0.4,0.9,0.9,0.9v0h1.8c0.5,0,0.9-0.4,0.9-0.9
		C61,41.4,60.6,41,60.1,41C60.1,41,60.1,41,60.1,41L60.1,41z"/>
	<rect x="58.5" y="41" class="st6" width="1.3" height="1.8"/>
	<rect x="58.5" y="41" class="st6" width="1.3" height="1.8"/>
	<rect x="58.5" y="41" class="st6" width="1.3" height="1.8"/>
	<rect x="58.5" y="41" class="st6" width="1.3" height="1.8"/>
</g>
<g id="Disegno_8-6">
	<path class="st3" d="M107.9,41.2L107.9,41.2l-1.8,0v0c-0.5,0-0.9,0.4-0.9,0.9c0,0.5,0.4,0.9,0.9,0.9v0h1.8c0.5,0,0.9-0.4,0.9-0.9
		C108.8,41.6,108.4,41.2,107.9,41.2C107.9,41.2,107.9,41.2,107.9,41.2z"/>
	<rect x="106.3" y="41.2" class="st6" width="1.3" height="1.8"/>
	<rect x="106.3" y="41.2" class="st6" width="1.3" height="1.8"/>
	<rect x="106.3" y="41.2" class="st6" width="1.3" height="1.8"/>
	<rect x="106.3" y="41.2" class="st6" width="1.3" height="1.8"/>
</g>
<g id="Disegno_8-7">
	<path class="st3" d="M103.5,13.8L103.5,13.8l-1.8,0v0c-0.5,0-0.9,0.4-0.9,0.9c0,0.5,0.4,0.9,0.9,0.9v0h1.8c0.5,0,0.9-0.4,0.9-0.9
		C104.5,14.2,104.1,13.8,103.5,13.8C103.5,13.8,103.5,13.8,103.5,13.8z"/>
	<rect x="101.9" y="13.8" class="st6" width="1.3" height="1.8"/>
	<rect x="101.9" y="13.8" class="st6" width="1.3" height="1.8"/>
	<rect x="101.9" y="13.8" class="st6" width="1.3" height="1.8"/>
	<rect x="101.9" y="13.8" class="st6" width="1.3" height="1.8"/>
</g>
<g id="Disegno_8-8">
	<path class="st3" d="M109.5,8.1L109.5,8.1l-1.8,0v0c-0.5,0-0.9,0.4-0.9,0.9c0,0.5,0.4,0.9,0.9,0.9v0h1.8c0.5,0,0.9-0.4,0.9-0.9
		C110.4,8.6,110,8.1,109.5,8.1C109.5,8.1,109.5,8.1,109.5,8.1z"/>
	<rect x="107.9" y="8.1" class="st6" width="1.3" height="1.8"/>
	<rect x="107.9" y="8.1" class="st6" width="1.3" height="1.8"/>
	<rect x="107.9" y="8.1" class="st6" width="1.3" height="1.8"/>
	<rect x="107.9" y="8.1" class="st6" width="1.3" height="1.8"/>
</g>
<g id="Disegno_8-9">
	<path class="st3" d="M91.3,34.3L91.3,34.3l-1.8,0v0c-0.5,0-0.9,0.4-0.9,0.9c0,0.5,0.4,0.9,0.9,0.9v0h1.8c0.5,0,0.9-0.4,0.9-0.9
		C92.3,34.7,91.9,34.3,91.3,34.3C91.4,34.3,91.4,34.3,91.3,34.3L91.3,34.3z"/>
	<rect x="89.8" y="34.3" class="st6" width="1.3" height="1.8"/>
	<rect x="89.8" y="34.3" class="st6" width="1.3" height="1.8"/>
	<rect x="89.8" y="34.3" class="st6" width="1.3" height="1.8"/>
	<rect x="89.8" y="34.3" class="st6" width="1.3" height="1.8"/>
</g>
<g id="Disegno_8-10">
	<path class="st3" d="M91.3,37.5L91.3,37.5l-1.8,0v0c-0.5,0-0.9,0.4-0.9,0.9c0,0.5,0.4,0.9,0.9,0.9v0h1.8c0.5,0,0.9-0.4,0.9-0.9
		C92.3,37.9,91.9,37.5,91.3,37.5C91.4,37.5,91.4,37.5,91.3,37.5z"/>
	<rect x="89.8" y="37.5" class="st6" width="1.3" height="1.8"/>
	<rect x="89.8" y="37.5" class="st6" width="1.3" height="1.8"/>
	<rect x="89.8" y="37.5" class="st6" width="1.3" height="1.8"/>
	<rect x="89.8" y="37.5" class="st6" width="1.3" height="1.8"/>
</g>
<g id="Disegno_23">
	<rect x="81.8" y="29.5" class="st6" width="2.1" height="4.2"/>
	<rect x="81.8" y="33.4" class="st2" width="2.1" height="0.2"/>
	<rect x="81.8" y="29.5" class="st2" width="2.1" height="0.2"/>
</g>
<g id="Disegno_23-2">
	<rect x="77.9" y="29.5" class="st6" width="2.1" height="4.2"/>
	<rect x="77.9" y="33.4" class="st2" width="2.1" height="0.2"/>
	<rect x="77.9" y="29.5" class="st2" width="2.1" height="0.2"/>
</g>
<g id="Disegno_26">
	<rect x="96" y="35.6" class="st0" width="7.5" height="3.5"/>
	<rect x="96" y="35.6" width="7.5" height="3.5"/>
	<rect x="102.9" y="36.8" class="st3" width="2.8" height="1"/>
	<rect x="94.3" y="36.8" class="st3" width="2.8" height="1"/>
</g>
<g id="Artwork_12-3">
	<rect x="66.5" y="13.5" class="st3" width="4.5" height="2.2"/>
	<rect x="66.5" y="19.3" class="st3" width="4.5" height="2.2"/>
	<path class="st6" d="M67,19.5c0,0.5,0.4,0.9,0.9,0.9h1.7c0.5,0,0.9-0.4,0.9-0.9v-0.2H67L67,19.5z"/>
	<path class="st6" d="M70.5,15.5c0-0.5-0.4-0.9-0.9-0.9h-1.7c-0.5,0-0.9,0.4-0.9,0.9v0.2h3.5V15.5z"/>
	<rect x="67" y="15.8" width="3.5" height="3.5"/>
</g>
<g id="Disegno_8-11">
	<path class="st3" d="M10.7,7.3L10.7,7.3l-1.8,0v0C8.3,7.3,8,7.7,8,8.2c0,0.5,0.4,0.9,0.9,0.9v0h1.8c0.5,0,0.9-0.4,0.9-0.9
		C11.6,7.7,11.2,7.3,10.7,7.3C10.7,7.3,10.7,7.3,10.7,7.3z"/>
	<rect x="9.1" y="7.3" class="st6" width="1.3" height="1.8"/>
	<rect x="9.1" y="7.3" class="st6" width="1.3" height="1.8"/>
	<rect x="9.1" y="7.3" class="st6" width="1.3" height="1.8"/>
	<rect x="9.1" y="7.3" class="st6" width="1.3" height="1.8"/>
</g>
<g id="Disegno_8-12">
	<path class="st3" d="M4.7,7.3L4.7,7.3l-1.8,0v0C2.4,7.3,2,7.7,2,8.2c0,0.5,0.4,0.9,0.9,0.9v0h1.8c0.5,0,0.9-0.4,0.9-0.9
		C5.7,7.7,5.2,7.3,4.7,7.3C4.7,7.3,4.7,7.3,4.7,7.3z"/>
	<rect x="3.1" y="7.3" class="st6" width="1.3" height="1.8"/>
	<rect x="3.1" y="7.3" class="st6" width="1.3" height="1.8"/>
	<rect x="3.1" y="7.3" class="st6" width="1.3" height="1.8"/>
	<rect x="3.1" y="7.3" class="st6" width="1.3" height="1.8"/>
</g>
<g id="Disegno_8-13">
	<path class="st3" d="M47.1,28.8L47.1,28.8l-1.8,0v0c-0.5,0-0.9,0.4-0.9,0.9c0,0.5,0.4,0.9,0.9,0.9v0h1.8c0.5,0,0.9-0.4,0.9-0.9
		C48,29.2,47.6,28.8,47.1,28.8C47.1,28.8,47.1,28.8,47.1,28.8z"/>
	<rect x="45.5" y="28.8" class="st6" width="1.3" height="1.8"/>
	<rect x="45.5" y="28.8" class="st6" width="1.3" height="1.8"/>
	<rect x="45.5" y="28.8" class="st6" width="1.3" height="1.8"/>
	<rect x="45.5" y="28.8" class="st6" width="1.3" height="1.8"/>
</g>
<g id="Disegno_8-14">
	<path class="st3" d="M47.1,38.7L47.1,38.7l-1.8,0v0c-0.5,0-0.9,0.4-0.9,0.9c0,0.5,0.4,0.9,0.9,0.9v0h1.8c0.5,0,0.9-0.4,0.9-0.9
		S47.6,38.7,47.1,38.7C47.1,38.7,47.1,38.7,47.1,38.7z"/>
	<rect x="45.5" y="38.7" class="st6" width="1.3" height="1.8"/>
	<rect x="45.5" y="38.7" class="st6" width="1.3" height="1.8"/>
	<rect x="45.5" y="38.7" class="st6" width="1.3" height="1.8"/>
	<rect x="45.5" y="38.7" class="st6" width="1.3" height="1.8"/>
</g>
<g id="Disegno_8-15">
	<path class="st3" d="M21.6,40.8L21.6,40.8l-1.8,0v0c-0.5,0-0.9,0.4-0.9,0.9c0,0.5,0.4,0.9,0.9,0.9v0h1.8c0.5,0,0.9-0.4,0.9-0.9
		C22.5,41.3,22.1,40.8,21.6,40.8C21.6,40.8,21.6,40.8,21.6,40.8z"/>
	<rect x="20" y="40.8" class="st6" width="1.3" height="1.8"/>
	<rect x="20" y="40.8" class="st6" width="1.3" height="1.8"/>
	<rect x="20" y="40.8" class="st6" width="1.3" height="1.8"/>
	<rect x="20" y="40.8" class="st6" width="1.3" height="1.8"/>
</g>
<g id="Disegno_8-16">
	<path class="st3" d="M86.6,11.2L86.6,11.2l0,1.8h0c0,0.5,0.4,0.9,0.9,0.9c0.5,0,0.9-0.4,0.9-0.9h0v-1.8c0-0.5-0.4-0.9-0.9-0.9
		C87,10.3,86.6,10.7,86.6,11.2C86.6,11.2,86.6,11.2,86.6,11.2L86.6,11.2z"/>
	<rect x="86.6" y="11.4" class="st6" width="1.8" height="1.3"/>
	<rect x="86.6" y="11.4" class="st6" width="1.8" height="1.3"/>
	<rect x="86.6" y="11.4" class="st6" width="1.8" height="1.3"/>
	<rect x="86.6" y="11.4" class="st6" width="1.8" height="1.3"/>
</g>
<g id="Disegno_8-17">
	<path class="st3" d="M67.8,24.8L67.8,24.8l0,1.8h0c0,0.5,0.4,0.9,0.9,0.9c0.5,0,0.9-0.4,0.9-0.9h0v-1.8c0-0.5-0.4-0.9-0.9-0.9
		S67.8,24.3,67.8,24.8C67.8,24.8,67.8,24.8,67.8,24.8z"/>
	<rect x="67.8" y="25" class="st6" width="1.8" height="1.3"/>
	<rect x="67.8" y="25" class="st6" width="1.8" height="1.3"/>
	<rect x="67.8" y="25" class="st6" width="1.8" height="1.3"/>
	<rect x="67.8" y="25" class="st6" width="1.8" height="1.3"/>
</g>
<g id="Disegno_8-18">
	<path class="st3" d="M51,35.4L51,35.4l0,1.8h0c0,0.5,0.4,0.9,0.9,0.9c0.5,0,0.9-0.4,0.9-0.9h0v-1.8c0-0.5-0.4-0.9-0.9-0.9
		S51,34.9,51,35.4C51,35.4,51,35.4,51,35.4L51,35.4z"/>
	<rect x="51" y="35.6" class="st6" width="1.8" height="1.3"/>
	<rect x="51" y="35.6" class="st6" width="1.8" height="1.3"/>
	<rect x="51" y="35.6" class="st6" width="1.8" height="1.3"/>
	<rect x="51" y="35.6" class="st6" width="1.8" height="1.3"/>
</g>
<g id="Disegno_23-3">
	<rect x="83.9" y="9.8" class="st6" width="2.1" height="4.2"/>
	<rect x="83.9" y="13.7" class="st2" width="2.1" height="0.2"/>
	<rect x="83.9" y="9.8" class="st2" width="2.1" height="0.2"/>
</g>
<g id="Disegno_23-4">
	<rect x="26.1" y="7.2" class="st6" width="4.2" height="2.1"/>
	<rect x="30.1" y="7.2" class="st2" width="0.2" height="2.1"/>
	<rect x="26.1" y="7.2" class="st2" width="0.2" height="2.1"/>
</g>
<g id="Disegno_23-5">
	<rect x="104.8" y="10.3" class="st6" width="1.6" height="3.2"/>
	<rect x="104.8" y="13.4" class="st2" width="1.6" height="0.2"/>
	<rect x="104.8" y="10.3" class="st2" width="1.6" height="0.2"/>
</g>
<g id="Disegno_23-6">
	<rect x="60.8" y="13.5" class="st6" width="3.2" height="1.6"/>
	<rect x="63.8" y="13.5" class="st2" width="0.2" height="1.6"/>
	<rect x="60.8" y="13.5" class="st2" width="0.2" height="1.6"/>
</g>
<g id="Disegno_23-7">
	<rect x="60.8" y="16.4" class="st6" width="3.2" height="1.6"/>
	<rect x="63.8" y="16.4" class="st2" width="0.2" height="1.6"/>
	<rect x="60.8" y="16.4" class="st2" width="0.2" height="1.6"/>
</g>
<g id="Disegno_23-8">
	<rect x="55.2" y="18.6" class="st6" width="3.2" height="1.6"/>
	<rect x="58.3" y="18.6" class="st2" width="0.2" height="1.6"/>
	<rect x="55.2" y="18.6" class="st2" width="0.2" height="1.6"/>
</g>
<g id="Disegno_13">
	<rect x="93.3" y="7.3" width="9.1" height="5.9"/>
</g>
<g id="Disegno_13-2">
	<rect x="55.8" y="29.5" width="9.9" height="8.6"/>
</g>
<polyline class="st7" points="91.8,22.2 92,22.2 92,22.2 92.3,22.3 92.3,22.3 92.5,22.3 92.5,22.3 92.8,22.4 92.8,22.4 93,22.5 
	93,22.5 93.3,22.6 93.3,22.6 93.5,22.7 93.5,22.7 93.7,22.9 93.7,22.9 93.9,23 93.9,23 94.1,23.2 94.1,23.2 94.2,23.4 94.2,23.4 
	94.4,23.6 94.4,23.6 94.5,23.8 94.5,23.8 94.6,24 94.6,24 94.7,24.3 94.7,24.3 94.8,24.5 94.8,24.5 94.9,24.8 94.9,24.8 94.9,25 
	94.9,25 94.9,25.3 94.9,25.3 94.9,25.5 94.9,25.5 94.9,25.8 94.9,25.8 94.8,26.1 94.8,26.1 94.8,26.3 94.8,26.3 94.7,26.5 
	94.7,26.5 94.6,26.8 94.6,26.8 94.5,27 94.5,27 94.3,27.2 94.3,27.2 94.2,27.4 94.2,27.4 94,27.6 94,27.6 93.8,27.8 93.8,27.8 
	93.6,27.9 93.6,27.9 93.4,28.1 93.4,28.1 93.1,28.2 93.1,28.2 92.9,28.3 92.9,28.3 92.7,28.4 92.7,28.4 92.4,28.4 92.4,28.4 
	92.2,28.5 92.2,28.5 91.9,28.5 91.9,28.5 91.6,28.5 91.6,28.5 91.4,28.5 91.4,28.5 91.1,28.4 91.1,28.4 90.9,28.4 90.9,28.4 
	90.6,28.3 90.6,28.3 90.4,28.2 90.4,28.2 90.2,28.1 90.2,28.1 90,27.9 90,27.9 89.8,27.8 89.8,27.8 89.6,27.6 89.6,27.6 89.4,27.4 
	89.4,27.4 89.2,27.2 89.2,27.2 89.1,27 89.1,27 89,26.8 89,26.8 88.9,26.5 88.9,26.5 88.8,26.3 88.8,26.3 88.7,26.1 88.7,26.1 
	88.7,25.8 88.7,25.8 88.6,25.5 88.6,25.5 88.6,25.3 88.6,25.3 88.6,25 88.6,25 88.7,24.8 88.7,24.8 88.7,24.5 88.7,24.5 88.8,24.3 
	88.8,24.3 88.9,24 88.9,24 89,23.8 89,23.8 89.2,23.6 89.2,23.6 89.3,23.4 89.3,23.4 89.5,23.2 89.5,23.2 89.7,23 89.7,23 
	89.9,22.9 89.9,22.9 90.1,22.7 90.1,22.7 90.3,22.6 90.3,22.6 90.5,22.5 90.5,22.5 90.8,22.4 90.8,22.4 91,22.3 91,22.3 91.3,22.3 
	91.3,22.3 91.5,22.2 91.5,22.2 91.8,22.2 91.8,22.2 "/>
<polygon class="st8" points="91.6,22.7 91.3,22.7 91.1,22.8 90.9,22.8 90.7,22.9 90.5,23 90.3,23.1 90.2,23.2 90,23.4 89.8,23.5 
	89.7,23.7 89.6,23.9 89.4,24.1 89.3,24.2 89.3,24.4 89.2,24.7 89.2,24.9 89.1,25.1 89.1,25.3 89.1,25.5 89.1,25.7 89.2,26 
	89.2,26.2 89.3,26.4 89.4,26.6 89.5,26.7 89.6,26.9 89.8,27.1 89.9,27.3 90.1,27.4 90.2,27.5 90.4,27.7 90.6,27.8 90.8,27.8 
	91,27.9 91.2,28 91.5,28 91.7,28 91.9,28 92.1,28 92.3,28 92.5,27.9 92.7,27.8 92.9,27.8 93.1,27.7 93.3,27.5 93.5,27.4 93.6,27.3 
	93.8,27.1 93.9,26.9 94.1,26.7 94.2,26.6 94.2,26.4 94.3,26.2 94.4,26 94.4,25.7 94.4,25.5 94.4,25.3 94.4,25.1 94.4,24.9 
	94.4,24.7 94.3,24.4 94.2,24.2 94.1,24.1 94,23.9 93.9,23.7 93.7,23.5 93.6,23.4 93.4,23.2 93.2,23.1 93,23 92.8,22.9 92.6,22.8 
	92.4,22.8 92.2,22.7 92,22.7 91.8,22.7 "/>
<rect x="89.6" y="18.7" class="st3" width="4.5" height="1.7"/>
<rect x="89.6" y="30" class="st3" width="4.5" height="1.7"/>
<path class="st1" d="M95.5,30.4V19.8h-7.3v10.6H95.5z M89.3,24.4l0.1-0.2l0.1-0.2l0.1-0.2l0.3-0.3l0.1-0.2l0.2-0.1l0.2-0.1l0.2-0.1
	l0.2-0.1l0.2-0.1l0.2-0.1l0.2,0l0.2,0l0.2,0l0.2,0l0.2,0l0.2,0l0.2,0.1l0.2,0.1L93,23l0.2,0.1l0.2,0.1l0.2,0.1l0.1,0.2l0.1,0.2
	l0.1,0.2l0.1,0.2l0.1,0.2l0.1,0.2l0.1,0.2l0,0.2l0,0.2l0,0.2v0.2l0,0.2l0,0.2l-0.1,0.2l-0.1,0.2l-0.1,0.2l-0.1,0.2l-0.1,0.2
	l-0.1,0.2l-0.1,0.2l-0.2,0.1l-0.2,0.1l-0.2,0.1l-0.2,0.1l-0.2,0.1l-0.2,0.1L92.3,28l-0.2,0l-0.2,0h-0.2l-0.2,0l-0.2,0L91,27.9
	l-0.2-0.1l-0.2-0.1l-0.2-0.1l-0.2-0.1l-0.2-0.1l-0.2-0.1l-0.1-0.2l-0.1-0.2l-0.1-0.2l-0.1-0.2l-0.1-0.2l-0.1-0.2L89.2,26l0-0.2
	l0-0.2l0-0.2l0-0.2l0-0.2l0.1-0.2L89.3,24.4z"/>
<g id="Disegno_8-19">
	<path class="st3" d="M59.9,9.2L59.9,9.2l0,1.8h0c0,0.5,0.4,0.9,0.9,0.9c0.5,0,0.9-0.4,0.9-0.9h0V9.2c0-0.5-0.4-0.9-0.9-0.9
		C60.4,8.3,59.9,8.7,59.9,9.2C59.9,9.2,59.9,9.2,59.9,9.2L59.9,9.2z"/>
	<rect x="59.9" y="9.5" class="st6" width="1.8" height="1.3"/>
	<rect x="59.9" y="9.5" class="st6" width="1.8" height="1.3"/>
	<rect x="59.9" y="9.5" class="st6" width="1.8" height="1.3"/>
	<rect x="59.9" y="9.5" class="st6" width="1.8" height="1.3"/>
</g>
<g id="Disegno_8-20">
	<path class="st3" d="M49.2,9.2L49.2,9.2l0,1.8h0c0,0.5,0.4,0.9,0.9,0.9c0.5,0,0.9-0.4,0.9-0.9h0V9.2c0-0.5-0.4-0.9-0.9-0.9
		C49.6,8.3,49.2,8.7,49.2,9.2C49.2,9.2,49.2,9.2,49.2,9.2z"/>
	<rect x="49.2" y="9.5" class="st6" width="1.8" height="1.3"/>
	<rect x="49.2" y="9.5" class="st6" width="1.8" height="1.3"/>
	<rect x="49.2" y="9.5" class="st6" width="1.8" height="1.3"/>
	<rect x="49.2" y="9.5" class="st6" width="1.8" height="1.3"/>
</g>
<g id="Disegno_8-21">
	<path class="st3" d="M63,9.2L63,9.2l0,1.8h0c0,0.5,0.4,0.9,0.9,0.9c0.5,0,0.9-0.4,0.9-0.9h0V9.2c0-0.5-0.4-0.9-0.9-0.9
		C63.4,8.3,63,8.7,63,9.2C63,9.2,63,9.2,63,9.2L63,9.2z"/>
	<rect x="63" y="9.5" class="st6" width="1.8" height="1.3"/>
	<rect x="63" y="9.5" class="st6" width="1.8" height="1.3"/>
	<rect x="63" y="9.5" class="st6" width="1.8" height="1.3"/>
	<rect x="63" y="9.5" class="st6" width="1.8" height="1.3"/>
</g>
<g id="Artwork_24">
	<rect x="10.1" y="10.2" class="st3" width="30.7" height="30"/>
	<polygon class="st9" points="11.4,11.5 11.4,11.5 11.3,11.5 11.3,38.9 11.4,38.9 11.4,38.9 11.4,38.9 39.3,38.9 39.3,38.9 
		39.4,38.9 39.4,11.5 39.3,11.5 39.3,11.5 	"/>
</g>
<rect y="10.2" class="st10" width="10.1" height="30"/>
<rect y="10.2" class="st11" width="10.1" height="30"/>
<polygon class="st0" points="5.6,16.7 7.9,13.6 9,13.6 9,36.8 7.9,36.8 5.6,33.6 "/>
<polygon class="st0" points="1.1,22.4 4.1,18.5 4.1,31.7 1.1,27.8 "/>
<path class="st4" d="M48.6,35v2c0,0,0,0,0,0h-2c0,0,0,0,0,0v-2c0,0,0,0,0,0L48.6,35C48.6,35,48.6,35,48.6,35z"/>
<path class="st4" d="M45.8,35v2c0,0,0,0,0,0h-2c0,0,0,0,0,0v-2c0,0,0,0,0,0L45.8,35C45.8,35,45.8,35,45.8,35z"/>
<path class="st4" d="M48.6,32.3v2c0,0,0,0,0,0h-2c0,0,0,0,0,0v-2c0,0,0,0,0,0L48.6,32.3C48.6,32.2,48.6,32.2,48.6,32.3z"/>
<path class="st4" d="M45.8,32.3v2c0,0,0,0,0,0h-2c0,0,0,0,0,0v-2c0,0,0,0,0,0L45.8,32.3C45.8,32.2,45.8,32.2,45.8,32.3z"/>
<rect x="44.6" y="33.2" class="st6" width="3.3" height="3.2"/>
<path class="st3" d="M44.8,33.4c0-0.1,0.1-0.2,0.1-0.2l2.6,0c0.1,0,0.1,0.1,0.1,0.2v2.6c0,0.1-0.1,0.2-0.1,0.2h-2.6
	c-0.1,0-0.1-0.1-0.1-0.2V33.4z"/>
<rect x="44.6" y="33.2" class="st2" width="0.2" height="3.2"/>
<rect x="47.7" y="33.2" class="st2" width="0.2" height="3.2"/>
<rect x="52" y="8.7" width="6.5" height="6.5"/>
<rect x="71.6" y="28.8" width="5" height="5"/>
<rect x="43.2" y="20.2" width="9.5" height="7.3"/>
<circle class="st12" cx="45.8" cy="23.9" r="1.3"/>
<path class="st5" d="M45.8,24.8c0.5,0,0.9-0.4,0.9-0.9s-0.4-0.9-0.9-0.9c-0.5,0-0.9,0.4-0.9,0.9C44.8,24.4,45.3,24.8,45.8,24.8
	C45.8,24.8,45.8,24.8,45.8,24.8z M45.8,23.2c0.4,0,0.6,0.3,0.6,0.6c0,0,0,0,0,0c0,0.4-0.3,0.6-0.7,0.6c-0.4,0-0.6-0.3-0.6-0.6
	C45.1,23.5,45.4,23.2,45.8,23.2C45.8,23.2,45.8,23.2,45.8,23.2z"/>
<rect x="53.3" y="21.8" width="4.4" height="5.7"/>
<rect x="58.4" y="21.8" width="7.5" height="5.7"/>
<circle class="st13" cx="64.1" cy="24.7" r="1.3"/>
<path class="st14" d="M108.7,50.4v-3.7c0-1.2,1-2.3,2.3-2.3c1.2,0,2.2,1,2.3,2.3v3.7h-0.8c0-0.8-0.7-1.5-1.5-1.5s-1.5,0.7-1.5,1.5
	H108.7z"/>
<circle class="st6" cx="111" cy="46.7" r="1.5"/>
<path class="st14" d="M101.6,50.4v-3.7c0-1.2,1-2.3,2.3-2.3c1.2,0,2.2,1,2.3,2.3v3.7h-0.8c0-0.8-0.7-1.5-1.5-1.5s-1.5,0.7-1.5,1.5
	H101.6z"/>
<circle class="st6" cx="103.9" cy="46.7" r="1.5"/>
<path class="st14" d="M94.5,50.4v-3.7c0-1.2,1-2.3,2.3-2.3c1.2,0,2.2,1,2.3,2.3v3.7h-0.8c0-0.8-0.7-1.5-1.5-1.5s-1.5,0.7-1.5,1.5
	H94.5z"/>
<circle class="st6" cx="96.8" cy="46.7" r="1.5"/>
<path class="st14" d="M87.4,50.4v-3.7c0-1.2,1-2.3,2.3-2.3c1.2,0,2.2,1,2.3,2.3v3.7h-0.8c0-0.8-0.7-1.5-1.5-1.5s-1.5,0.7-1.5,1.5
	H87.4z"/>
<circle class="st6" cx="89.6" cy="46.7" r="1.5"/>
<path class="st14" d="M80.3,50.4v-3.7c0-1.2,1-2.3,2.3-2.3c1.2,0,2.2,1,2.3,2.3v3.7H84c0-0.8-0.7-1.5-1.5-1.5s-1.5,0.7-1.5,1.5H80.3
	z"/>
<circle class="st6" cx="82.5" cy="46.7" r="1.5"/>
<path class="st14" d="M73.2,50.4v-3.7c0-1.2,1-2.3,2.3-2.3c1.2,0,2.2,1,2.3,2.3v3.7h-0.8c0-0.8-0.7-1.5-1.5-1.5s-1.5,0.7-1.5,1.5
	H73.2z"/>
<circle class="st6" cx="75.4" cy="46.7" r="1.5"/>
<path class="st14" d="M66,50.4v-3.7c0-1.2,1-2.3,2.3-2.3c1.2,0,2.2,1,2.3,2.3v3.7h-0.8c0-0.8-0.6-1.5-1.5-1.5
	c-0.8,0-1.5,0.6-1.5,1.5c0,0,0,0,0,0H66z"/>
<circle class="st6" cx="68.3" cy="46.7" r="1.5"/>
<path class="st14" d="M58.9,50.4v-3.7c0-1.2,1-2.3,2.3-2.3c1.2,0,2.2,1,2.3,2.3v3.7h-0.8c0-0.8-0.7-1.5-1.5-1.5s-1.5,0.7-1.5,1.5
	H58.9z"/>
<circle class="st6" cx="61.2" cy="46.7" r="1.5"/>
<path class="st14" d="M51.8,50.4v-3.7c0-1.2,1-2.3,2.3-2.3c1.2,0,2.2,1,2.3,2.3v3.7h-0.8c0-0.8-0.7-1.5-1.5-1.5s-1.5,0.7-1.5,1.5
	H51.8z"/>
<circle class="st6" cx="54.1" cy="46.7" r="1.5"/>
<path class="st14" d="M44.7,50.4v-3.7c0-1.2,1-2.3,2.3-2.3c1.2,0,2.2,1,2.3,2.3v3.7h-0.8c0-0.8-0.7-1.5-1.5-1.5s-1.5,0.7-1.5,1.5
	H44.7z"/>
<circle class="st6" cx="46.9" cy="46.7" r="1.5"/>
<path class="st14" d="M37.6,50.4v-3.7c0-1.2,1-2.3,2.3-2.3c1.2,0,2.2,1,2.3,2.3v3.7h-0.8c0-0.8-0.7-1.5-1.5-1.5s-1.5,0.7-1.5,1.5
	H37.6z"/>
<circle class="st6" cx="39.8" cy="46.7" r="1.5"/>
<path class="st14" d="M30.5,50.4v-3.7c0-1.2,1-2.3,2.3-2.3c1.2,0,2.2,1,2.3,2.3v3.7h-0.8c0-0.8-0.7-1.5-1.5-1.5s-1.5,0.7-1.5,1.5
	H30.5z"/>
<circle class="st6" cx="32.7" cy="46.7" r="1.5"/>
<path class="st14" d="M23.3,50.4v-3.7c0-1.2,1-2.3,2.3-2.3c1.2,0,2.2,1,2.3,2.3v3.7h-0.8c0-0.8-0.7-1.5-1.5-1.5s-1.5,0.7-1.5,1.5
	H23.3z"/>
<circle class="st6" cx="25.6" cy="46.7" r="1.5"/>
<path class="st14" d="M16.2,50.4v-3.7c0-1.2,1-2.3,2.3-2.3c1.2,0,2.2,1,2.3,2.3v3.7H20c0-0.8-0.7-1.5-1.5-1.5S17,49.6,17,50.4H16.2z
	"/>
<circle class="st6" cx="18.5" cy="46.7" r="1.5"/>
<path class="st14" d="M9.1,50.4v-3.7c0-1.2,1-2.3,2.3-2.3c1.2,0,2.2,1,2.3,2.3v3.7h-0.8c0-0.8-0.7-1.5-1.5-1.5s-1.5,0.7-1.5,1.5H9.1
	z"/>
<circle class="st6" cx="11.4" cy="46.7" r="1.5"/>
<path class="st14" d="M9.1,3.7V0h0.8c0,0.8,0.7,1.5,1.5,1.5s1.5-0.7,1.5-1.5l0,0h0.8v3.7c0,1.2-1,2.3-2.3,2.3
	C10.1,5.9,9.1,4.9,9.1,3.7z"/>
<circle class="st6" cx="11.4" cy="3.7" r="1.5"/>
<path class="st14" d="M16.2,3.7V0H17c0,0.8,0.7,1.5,1.5,1.5s1.5-0.7,1.5-1.5l0,0h0.8v3.7c0,1.2-1,2.3-2.3,2.3
	C17.2,5.9,16.2,4.9,16.2,3.7z"/>
<circle class="st6" cx="18.5" cy="3.7" r="1.5"/>
<path class="st14" d="M23.3,3.7V0h0.8c0,0.8,0.7,1.5,1.5,1.5s1.5-0.7,1.5-1.5l0,0h0.8v3.7c0,1.2-1,2.3-2.3,2.3
	C24.3,5.9,23.3,4.9,23.3,3.7z"/>
<circle class="st6" cx="25.6" cy="3.7" r="1.5"/>
<path class="st14" d="M30.5,3.7V0h0.8c0,0.8,0.7,1.5,1.5,1.5s1.5-0.7,1.5-1.5l0,0H35v3.7c0,1.2-1,2.3-2.3,2.3
	C31.5,5.9,30.5,4.9,30.5,3.7z"/>
<circle class="st6" cx="32.7" cy="3.7" r="1.5"/>
<path class="st14" d="M37.6,3.7V0h0.8c0,0.8,0.7,1.5,1.5,1.5s1.5-0.7,1.5-1.5l0,0h0.8v3.7c0,1.2-1,2.3-2.3,2.3
	C38.6,5.9,37.6,4.9,37.6,3.7z"/>
<circle class="st6" cx="39.8" cy="3.7" r="1.5"/>
<path class="st14" d="M44.7,3.7V0h0.8c0,0.8,0.7,1.5,1.5,1.5s1.5-0.7,1.5-1.5l0,0h0.8v3.7c0,1.2-1,2.3-2.3,2.3
	C45.7,5.9,44.7,4.9,44.7,3.7z"/>
<circle class="st6" cx="46.9" cy="3.7" r="1.5"/>
<path class="st14" d="M51.8,3.7V0h0.8c0,0.8,0.7,1.5,1.5,1.5s1.5-0.7,1.5-1.5l0,0h0.8v3.7c0,1.2-1,2.3-2.3,2.3
	C52.8,5.9,51.8,4.9,51.8,3.7z"/>
<circle class="st6" cx="54.1" cy="3.7" r="1.5"/>
<path class="st14" d="M58.9,3.7V0h0.8c0,0.8,0.7,1.5,1.5,1.5s1.5-0.7,1.5-1.5l0,0h0.8v3.7c0,1.2-1,2.3-2.3,2.3
	C59.9,5.9,58.9,4.9,58.9,3.7z"/>
<circle class="st6" cx="61.2" cy="3.7" r="1.5"/>
<path class="st14" d="M66,3.7V0h0.8c0,0.8,0.7,1.5,1.5,1.5s1.5-0.7,1.5-1.5l0,0h0.8v3.7c0,1.2-1,2.3-2.3,2.3C67,5.9,66,4.9,66,3.7z"
	/>
<circle class="st6" cx="68.3" cy="3.7" r="1.5"/>
<path class="st14" d="M73.2,3.7V0h0.8c0,0.8,0.7,1.5,1.5,1.5s1.5-0.7,1.5-1.5l0,0h0.8v3.7c0,1.2-1,2.3-2.3,2.3
	C74.2,5.9,73.2,4.9,73.2,3.7z"/>
<circle class="st6" cx="75.4" cy="3.7" r="1.5"/>
<path class="st14" d="M80.3,3.7V0H81c0,0.8,0.7,1.5,1.5,1.5S84,0.8,84,0l0,0h0.8v3.7c0,1.2-1,2.3-2.3,2.3
	C81.3,5.9,80.3,4.9,80.3,3.7z"/>
<circle class="st6" cx="82.5" cy="3.7" r="1.5"/>
<path class="st14" d="M87.4,3.7V0h0.8c0,0.8,0.7,1.5,1.5,1.5s1.5-0.7,1.5-1.5l0,0h0.8v3.7c0,1.2-1,2.3-2.3,2.3
	C88.4,5.9,87.4,4.9,87.4,3.7z"/>
<circle class="st6" cx="89.6" cy="3.7" r="1.5"/>
<path class="st14" d="M94.5,3.7V0h0.8c0,0.8,0.7,1.5,1.5,1.5s1.5-0.7,1.5-1.5l0,0H99v3.7c0,1.2-1,2.3-2.3,2.3
	C95.5,5.9,94.5,4.9,94.5,3.7z"/>
<circle class="st6" cx="96.7" cy="3.7" r="1.5"/>
<path class="st14" d="M101.6,3.7V0h0.8c0,0.8,0.7,1.5,1.5,1.5s1.5-0.7,1.5-1.5l0,0h0.8v3.7c0,1.2-1,2.3-2.3,2.3
	C102.6,5.9,101.6,4.9,101.6,3.7z"/>
<circle class="st6" cx="103.9" cy="3.7" r="1.5"/>
<path class="st14" d="M108.7,3.7V0h0.8c0,0.8,0.7,1.5,1.5,1.5s1.5-0.7,1.5-1.5l0,0h0.8v3.7c0,1.2-1,2.3-2.3,2.3
	C109.7,5.9,108.7,4.9,108.7,3.7z"/>
<circle class="st6" cx="111" cy="3.7" r="1.5"/>
</svg>
