<svg xmlns="http://www.w3.org/2000/svg" xml:space="preserve" id="Layer_1" x="0" y="0" viewBox="0 0 196.3 70.9"><style>.st5{fill:#8b8f90}.st6{fill:#80b9c0}.st7{fill:#c2c5c6}.st8{fill:#afd3d8}.st9{fill:none}.st10{fill:#8a7867}.st11{fill:#9da0a1}.st12{fill:#8f7f6e}.st13{fill:#929596}.st16{fill:#11100d}.st17{fill:#e5540f}.st19{fill:#eaa800}.st20{fill:#c1dde0}.st22{fill:#a19284}</style><path d="M191.6 64.5V6.4c0-3.5-2.9-6.4-6.4-6.4H6.3C2.8 0 0 2.8 0 6.3v58.3c0 3.5 2.8 6.3 6.3 6.3h179c3.5 0 6.3-2.9 6.3-6.4m-2.9 0c0 1.9-1.5 3.4-3.4 3.4s-3.4-1.5-3.4-3.4 1.5-3.4 3.4-3.4c1.8 0 3.4 1.5 3.4 3.4m-161.6 0c0 1.9-1.5 3.4-3.4 3.4s-3.4-1.5-3.4-3.4 1.5-3.4 3.4-3.4 3.4 1.5 3.4 3.4m141.2-53.8c-1.2 0-2.2-1-2.2-2.2s1-2.2 2.2-2.2 2.2 1 2.2 2.2-1 2.2-2.2 2.2m-7.2 0c-1.2 0-2.2-1-2.2-2.2s1-2.2 2.2-2.2 2.2 1 2.2 2.2-1 2.2-2.2 2.2m27.6-4.3c0 1.9-1.5 3.4-3.4 3.4s-3.4-1.5-3.4-3.4 1.5-3.4 3.4-3.4c1.8 0 3.4 1.5 3.4 3.4m-161.6 0c0 1.9-1.5 3.4-3.4 3.4s-3.4-1.5-3.4-3.4S21.8 3 23.7 3s3.4 1.5 3.4 3.4" style="fill:#017481"/><path d="M1.1 57.1h24.8V29.2H1.5 26v-.7H1.5 26V27H1.5 26v-6.5H1.5 26v-1.4H1.5 26v-.7H1.5 26v-4.5H1.1c-.2 0-.4.2-.4.4v42.5c0 .1.2.3.4.3m.4-20.7h3.1zm0 .7h3.1zm0 1.4h3.1zm0 6.5h3.1zm0 1.4h3.1zm0 .8h3.1zm0 7.2h3.1zm0 .7h3.1z" style="fill:#268893"/><path d="M25.8 12.1h75.8v47H25.8z" style="fill:#0e7c88"/><g style="opacity:.2"><path d="M164.7 26.1c.8 0 1.4-.6 1.4-1.4s-.6-1.4-1.4-1.4-1.4.6-1.4 1.4.6 1.4 1.4 1.4" style="fill:#fff"/></g><path d="M23.7 46.1v2.3h-2.3v-2.3zq0-.15 0 0M23.7 48.6v2.3h-2.3v-2.3zM19.8 46.1v2.3h-2.3v-2.3zq0-.15 0 0M19.8 48.6v2.3h-2.3v-2.3z" class="st5"/><path d="M161.6 24.7c0 1.7 1.4 3.1 3.1 3.1s3.1-1.4 3.1-3.1-1.4-3.1-3.1-3.1c-1.7-.1-3.1 1.3-3.1 3.1" class="st6"/><path d="M42.7 59.1h2.8v1.6h-2.8zM46.3 59.1h2.8v1.6h-2.8zM49.9 59.1h2.8v1.6h-2.8zM53.5 59.1h2.8v1.6h-2.8zM57.1 59.1h2.8v1.6h-2.8zM60.7 59.1h2.8v1.6h-2.8zM64.3 59.1h2.8v1.6h-2.8zM67.9 59.1h2.8v1.6h-2.8zM71.5 59.1h2.8v1.6h-2.8zM75.1 59.1h2.8v1.6h-2.8zM78.7 59.1h2.8v1.6h-2.8zM82.3 59.1h2.8v1.6h-2.8zM85.9 59.1h2.8v1.6h-2.8zM101.6 46.9h1.7v2.8h-1.7zM101.6 43.3h1.7v2.8h-1.7zM101.6 39.7h1.7v2.8h-1.7zM101.6 36.1h1.7v2.8h-1.7zM101.6 32.5h1.7v2.8h-1.7zM101.6 28.9h1.7v2.8h-1.7zM101.6 25.3h1.7v2.8h-1.7zM101.6 21.7h1.7v2.8h-1.7zM85.9 10.4h2.8V12h-2.8zM82.3 10.4h2.8V12h-2.8zM78.7 10.4h2.8V12h-2.8zM75.1 10.4h2.8V12h-2.8zM71.5 10.4h2.8V12h-2.8zM67.9 10.4h2.8V12h-2.8zM64.3 10.4h2.8V12h-2.8zM60.7 10.4h2.8V12h-2.8zM57.1 10.4h2.8V12h-2.8zM53.5 10.4h2.8V12h-2.8zM49.9 10.4h2.8V12h-2.8zM46.3 10.4h2.8V12h-2.8zM42.7 10.4h2.8V12h-2.8z" class="st5"/><path d="M24.9 39.2h4.5V42h-4.5zM24.9 42.8h4.5v2.8h-4.5zM24.9 46.4h4.5v2.8h-4.5z" class="st6"/><path d="M160.4 14.5q.75.15 1.5 0c1.4-.3 2.3-1.6 2.3-3v-6c0-1.7-1.4-3.1-3.1-3.1S158 3.8 158 5.5v6.1c.1 1.4 1 2.6 2.4 2.9" class="st7"/><path d="M161.1 6.3c1.2 0 2.2 1 2.2 2.2s-1 2.2-2.2 2.2-2.2-1-2.2-2.2 1-2.2 2.2-2.2" class="st5"/><path d="M167.6 14.5q.75.15 1.5 0c1.4-.3 2.3-1.6 2.3-3v-6c0-1.7-1.4-3.1-3.1-3.1s-3.1 1.4-3.1 3.1v6.1c.1 1.4 1 2.6 2.4 2.9" class="st7"/><path d="M168.3 6.3c1.2 0 2.2 1 2.2 2.2s-1 2.2-2.2 2.2-2.2-1-2.2-2.2 1-2.2 2.2-2.2" class="st5"/><path d="M2 25.1c.4 0 .6.3.6.6s-.3.7-.6.7-.6-.3-.6-.6c-.1-.4.2-.7.6-.7M20 14.3c.4 0 .6.3.6.6 0 .4-.3.6-.6.6-.4 0-.6-.3-.6-.6-.1-.3.2-.6.6-.6" class="st8"/><circle cx="12.8" cy="15" r=".6" class="st8"/><circle cx="5.6" cy="15" r=".6" class="st8"/><path d="M2 14.3c.4 0 .6.3.6.6 0 .4-.3.6-.6.6-.4 0-.6-.3-.6-.6-.1-.3.2-.6.6-.6M23.6 25.1c.4 0 .6.3.6.6s-.3.6-.6.6-.6-.3-.6-.6c-.1-.3.2-.6.6-.6M20 28.7c.4 0 .6.3.6.6 0 .4-.3.6-.6.6s-.6-.3-.6-.6c-.1-.3.2-.6.6-.6M5.6 28.7c.4 0 .6.3.6.6 0 .4-.3.6-.6.6s-.6-.3-.6-.6c-.1-.3.2-.6.6-.6M20.5 51.5c.4 0 .6.3.6.6s-.3.6-.6.6-.6-.3-.6-.6.3-.6.6-.6" class="st8"/><circle cx="12.8" cy="52.1" r=".6" class="st8"/><circle cx="5.6" cy="51" r=".6" class="st8"/><path d="M23.6 53.9c.4 0 .6.3.6.6s-.3.6-.6.6c-.4 0-.6-.3-.6-.6-.1-.3.2-.6.6-.6M16.4 53.9c.4 0 .6.3.6.6s-.3.6-.6.6c-.4 0-.6-.3-.6-.6-.1-.3.2-.6.6-.6M9.2 53.9c.4 0 .6.3.6.6s-.3.6-.6.6c-.4 0-.6-.3-.6-.6-.1-.3.2-.6.6-.6M2 53.9c.4 0 .6.3.6.6s-.3.7-.6.7c-.4 0-.6-.3-.6-.6-.1-.4.2-.7.6-.7M2 46.7c.4 0 .6.3.6.6s-.3.7-.6.7-.6-.3-.6-.6c-.1-.4.2-.7.6-.7M2 39.5c.4 0 .6.3.6.6 0 .4-.3.6-.6.6-.4 0-.6-.3-.6-.6-.1-.3.2-.6.6-.6M23.6 39.5c.4 0 .6.3.6.6s-.3.6-.6.6c-.4 0-.6-.3-.6-.6-.1-.3.2-.6.6-.6M20 35.9c.4 0 .6.3.6.6 0 .4-.3.6-.6.6-.4 0-.6-.3-.6-.6-.1-.3.2-.6.6-.6M20 39.5c.4 0 .6.3.6.6 0 .4-.3.6-.6.6-.4 0-.6-.3-.6-.6-.1-.3.2-.6.6-.6M12.8 35.9c.4 0 .6.3.6.6 0 .4-.3.6-.6.6-.4 0-.6-.3-.6-.6-.1-.3.2-.6.6-.6M5.6 35.9c.4 0 .6.3.6.6 0 .4-.3.6-.6.6-.4 0-.6-.3-.6-.6-.1-.3.2-.6.6-.6" class="st8"/><circle cx="23.6" cy="33" r=".6" class="st8"/><path d="M16.4 32.3c.4 0 .6.3.6.6s-.3.6-.6.6-.6-.3-.6-.6c-.1-.3.2-.6.6-.6M9.2 32.3c.4 0 .6.3.6.6s-.3.6-.6.6c-.4 0-.6-.3-.6-.6-.1-.3.2-.6.6-.6M2 32.3c.4 0 .6.3.6.6s-.3.7-.6.7c-.4 0-.6-.3-.6-.6-.1-.4.2-.7.6-.7M12.8 28.7c.4 0 .6.3.6.6 0 .4-.3.6-.6.6s-.6-.3-.6-.6c-.1-.3.2-.6.6-.6M16.4 25.1c.4 0 .6.3.6.6s-.3.6-.6.6-.6-.3-.6-.6c-.1-.3.2-.6.6-.6M9.2 25.1c.4 0 .6.3.6.6s-.3.6-.6.6-.6-.3-.6-.6c-.1-.3.2-.6.6-.6M5.6 21.5c.4 0 .6.3.6.6s-.3.6-.6.6-.6-.3-.6-.6c-.1-.3.2-.6.6-.6M12.8 21.5c.4 0 .6.3.6.6s-.3.6-.6.6-.6-.3-.6-.6c-.1-.3.2-.6.6-.6M20 21.5c.4 0 .6.3.6.6 0 .4-.3.6-.6.6-.4 0-.6-.3-.6-.6-.1-.3.2-.6.6-.6M23.6 17.9c.4 0 .6.3.6.6 0 .4-.3.6-.6.6-.4 0-.6-.3-.6-.6-.1-.3.2-.6.6-.6M16.4 17.9c.4 0 .6.3.6.6 0 .4-.3.6-.6.6-.4 0-.6-.3-.6-.6-.1-.3.2-.6.6-.6M9.2 17.9c.4 0 .6.3.6.6 0 .4-.3.6-.6.6-.4 0-.6-.3-.6-.6-.1-.3.2-.6.6-.6M2 17.9c.4 0 .6.3.6.6 0 .4-.3.6-.6.6-.4 0-.6-.3-.6-.6-.1-.3.2-.6.6-.6M83.3 47.5c.4 0 .6.3.6.6s-.3.6-.6.6c-.4 0-.6-.3-.6-.6s.3-.6.6-.6M83.6 50c.4 0 .6.3.6.6 0 .4-.3.6-.6.6-.4 0-.6-.3-.6-.6 0-.4.3-.6.6-.6" class="st8"/><path d="M181.8 38.9v1c0 .1-.1.2-.2.2h-3.7c-.1 0-.2-.1-.2-.2v-1c0-.1.1-.2.2-.2h3.7c.1 0 .2.1.2.2M181.8 37v1c0 .1-.1.2-.2.2h-3.7c-.1 0-.2-.1-.2-.2v-1c0-.1.1-.2.2-.2h3.7c.1 0 .2.1.2.2M181.8 35v1c0 .1-.1.2-.2.2h-3.7c-.1 0-.2-.1-.2-.2v-1c0-.1.1-.2.2-.2h3.7zM181.8 33.1v1c0 .1-.1.2-.2.2h-3.7c-.1 0-.2-.1-.2-.2v-1c0-.1.1-.2.2-.2h3.7c.1.1.2.1.2.2M181.8 31.2v1c0 .1-.1.2-.2.2h-3.7c-.1 0-.2-.1-.2-.2v-1c0-.1.1-.2.2-.2h3.7c.1.1.2.1.2.2" class="st7"/><path d="M7.6 38.7v2.4M7.6 47.1v2.4" class="st9"/><path d="M4.8 39h11.3v10.8H4.8z" class="st6"/><path d="M10.4 39.7c2.6 0 4.7 2.1 4.7 4.7S13 49 10.4 49s-4.7-2.1-4.7-4.7c.1-2.5 2.2-4.6 4.7-4.6m0 8.9c2.4 0 4.3-1.9 4.3-4.3S12.8 40 10.4 40s-4.3 1.9-4.3 4.3c.1 2.4 2 4.3 4.3 4.3" class="st5"/><path d="M10.4 43.2c.6 0 1.1.5 1.1 1.1s-.5 1.1-1.1 1.1-1.1-.5-1.1-1.1.5-1.1 1.1-1.1M168 27.7h2.4v2H168zM159.3 27.7h2.3v2h-2.3zM168 19.6h2.4v2H168zM159.3 19.6h2.3v2h-2.3z" class="st5"/><path d="M158.4 20.6v8h12.8v-8z" class="st7"/><path d="M162.2 24.6v-.2l.1-.3.1-.3.1-.3.1-.2.2-.2.2-.3.2-.1.2-.2.2-.2.3-.1.3-.1h1.1l.3.1.2.1.3.1.2.2.2.1.2.2.2.3.1.2.2.3.1.2v.3l.1.3v.3l-.1.3v.2l-.1.3-.2.2-.1.3-.2.2-.2.2-.2.2-.2.2-.3.1-.2.1h-.3l-.3.1h-.6l-.2-.1-.3-.1-.3-.1-.2-.1-.2-.2-.2-.2-.2-.2-.2-.2-.1-.3-.1-.2-.1-.3-.1-.3zM174.3 42.7H172c-.6 0-1.1.5-1.1 1.1s.5 1.1 1.1 1.1h2.3c.6 0 1.1-.5 1.1-1.1s-.5-1.1-1.1-1.1" class="st5"/><path d="M172.4 42.7h1.6v2.2h-1.6z" class="st10"/><path d="M172.4 42.7h1.6v2.2h-1.6z" class="st10"/><path d="M172.4 42.7h1.6v2.2h-1.6z" class="st10"/><path d="M172.4 42.7h1.6v2.2h-1.6z" class="st10"/><path d="M174.3 42.7H172c-.6 0-1.1.5-1.1 1.1s.5 1.1 1.1 1.1h2.3c.6 0 1.1-.5 1.1-1.1s-.5-1.1-1.1-1.1" class="st5"/><path d="M172.4 42.7h1.6v2.2h-1.6z" class="st10"/><path d="M172.4 42.7h1.6v2.2h-1.6z" class="st10"/><path d="M172.4 42.7h1.6v2.2h-1.6z" class="st10"/><path d="M172.4 42.7h1.6v2.2h-1.6z" class="st10"/><path d="M174.3 47.3H172c-.6 0-1.1.5-1.1 1.1s.5 1.1 1.1 1.1h2.3c.6 0 1.1-.5 1.1-1.1s-.5-1.1-1.1-1.1" class="st5"/><path d="M172.4 47.3h1.6v2.2h-1.6z" class="st10"/><path d="M172.4 47.3h1.6v2.2h-1.6z" class="st10"/><path d="M172.4 47.3h1.6v2.2h-1.6z" class="st10"/><path d="M172.4 47.3h1.6v2.2h-1.6z" class="st10"/><path d="M21.6 43.3h-1.5c-.4 0-.7.3-.7.7s.3.7.7.7h1.5c.4 0 .7-.3.7-.7 0-.3-.3-.7-.7-.7" class="st5"/><path d="M20.3 43.3h1.1v1.4h-1.1z" class="st10"/><path d="M20.3 43.3h1.1v1.4h-1.1z" class="st10"/><path d="M20.3 43.3h1.1v1.4h-1.1z" class="st10"/><path d="M20.3 43.3h1.1v1.4h-1.1zM120.4 22.2h4.2v9.3h-4.2z" class="st10"/><path d="M120.4 31.1h4.2v.4h-4.2zM120.4 22.2h4.2v.4h-4.2z" class="st11"/><path d="M89.8 43.2h1.5v1.4h-1.5z" class="st12"/><path d="M89.8 42.5h1.5v.8h-1.5zM89.8 44.6h1.5v.8h-1.5z" class="st13"/><path d="M58.6 53.4H60v1.5h-1.4z" class="st12"/><path d="M59.9 53.4h.8v1.5h-.8zM57.9 53.4h.8v1.5h-.8z" class="st13"/><path d="M52.6 53.7H54v1.5h-1.4z" class="st12"/><path d="M53.9 53.7h.8v1.5h-.8zM51.9 53.7h.8v1.5h-.8z" class="st13"/><path d="M69.9 18.6h1.4v1.5h-1.4z" class="st12"/><path d="M71.2 18.6h.8v1.5h-.8zM69.1 18.6h.8v1.5h-.8z" class="st13"/><path d="M52.5 18.3h1.4v1.5h-1.4z" class="st12"/><path d="M53.8 18.3h.8v1.5h-.8zM51.7 18.3h.8v1.5h-.8z" class="st13"/><path d="M52.5 21.2h1.4v1.5h-1.4z" class="st12"/><path d="M53.8 21.2h.8v1.5h-.8zM51.7 21.2h.8v1.5h-.8z" class="st13"/><path d="M59.8 30.3h1.4v1.5h-1.4z" class="st12"/><path d="M61.1 30.3h.8v1.5h-.8zM59 30.3h.8v1.5H59z" class="st13"/><path d="m35.3 28.2-1 1 1.1 1.1 1-1z" class="st12"/><path d="m35.8 27.7-.6.6 1.1 1.1.5-.6zM34.4 29.1l-.6.6 1.1 1.1.5-.6z" class="st13"/><path d="m52.6 35.8-1 1 1.1 1.1.9-1z" class="st12"/><path d="m53.1 35.3-.6.5 1.1 1.1.5-.5zM51.6 36.7l-.5.6 1.1 1.1.5-.6z" class="st13"/><path d="m56.1 32.5-1 .9 1.1 1.1 1-.9z" class="st12"/><path d="m56.6 32-.5.5 1 1.1.6-.5zM55.2 33.4l-.6.6 1.1 1 .5-.5z" class="st13"/><path d="M69.8 20.9h1.4v1.5h-1.4z" class="st12"/><path d="M71.1 20.9h.8v1.5h-.8zM69 20.9h.8v1.5H69z" class="st13"/><path d="M72.7 24.3h1.4v1.5h-1.4z" class="st12"/><path d="M74 24.3h.8v1.5H74zM71.9 24.3h.8v1.5h-.8z" class="st13"/><path d="M72.6 27.2H74v1.5h-1.4z" class="st12"/><path d="M73.9 27.2h.8v1.5h-.8zM71.9 27.2h.8v1.5h-.8z" class="st13"/><path d="M66.4 36.9h1.4v1.5h-1.4z" class="st12"/><path d="M67.8 36.9h.8v1.5h-.8zM65.7 36.9h.8v1.5h-.8z" class="st13"/><path d="M90.3 17.4h1.4v1.5h-1.4z" class="st12"/><path d="M91.7 17.4h.8v1.5h-.8zM89.6 17.4h.8v1.5h-.8z" class="st13"/><path d="M87.1 43.2h1.5v1.4h-1.5z" class="st12"/><path d="M87.1 42.5h1.5v.8h-1.5zM87.1 44.6h1.5v.8h-1.5z" class="st13"/><path d="M77 40.1h1.5v1.4H77z" class="st12"/><path d="M77 39.4h1.5v.8H77zM77 41.4h1.5v.8H77z" class="st13"/><path d="M73.7 35.5h1.5v1.4h-1.5z" class="st12"/><path d="M73.7 34.8h1.5v.8h-1.5zM73.7 36.8h1.5v.8h-1.5z" class="st13"/><path d="M71.4 35.5h1.5v1.4h-1.5z" class="st12"/><path d="M71.4 34.8h1.5v.8h-1.5zM71.4 36.8h1.5v.8h-1.5z" class="st13"/><path d="M96.3 30.1h1.5v1.4h-1.5z" class="st12"/><path d="M96.3 29.5h1.5v.8h-1.5zM96.3 31.5h1.5v.8h-1.5z" class="st13"/><path d="M62.4 38.4h1.5v1.4h-1.5z" class="st12"/><path d="M62.4 37.7h1.5v.8h-1.5zM62.4 39.8h1.5v.8h-1.5z" class="st13"/><path d="M55.8 41.3h1.5v1.4h-1.5z" class="st12"/><path d="M55.8 40.6h1.5v.8h-1.5zM55.8 42.7h1.5v.8h-1.5z" class="st13"/><path d="m59.6 37.9-1 1 1 1.1 1-1z" class="st12"/><path d="m60.1 37.4-.6.5 1.1 1.1.5-.5zM58.6 38.9l-.6.5 1.1 1.1.6-.5z" class="st13"/><path d="M78.7 44.7H86v9.1h-7.3z" style="fill:#ebac0c" transform="rotate(-45 82.324 49.22)"/><path d="M78.7 44.7H86v9.1h-7.3z" style="fill:#e76010" transform="rotate(-45 82.324 49.22)"/><path d="m76.565 48.587 5.162-5.162 6.435 6.434L83 55.021z" class="st16"/><path d="m76.565 48.587 5.162-5.162 6.435 6.434L83 55.021z" class="st17"/><path d="m76.565 48.587 5.162-5.162 6.435 6.434L83 55.021z" class="st16"/><path d="M56.9 17.7h8.6v8.2h-8.6z" class="st10"/><path d="M56.9 17.7h.4v8.2h-.4zM65.1 17.7h.4v8.2h-.4z" class="st11"/><path d="M181.8 52.3h7.6v3h-7.6z" class="st5"/><path d="M187.9 53.8c0 1.3-1 2.3-2.3 2.3s-2.3-1-2.3-2.3 1-2.3 2.3-2.3c1.2-.1 2.3 1 2.3 2.3" style="fill:#1a9f85"/><path d="M136.7 61.5h3v7.6h-3z" class="st5"/><path d="M138.3 63c1.3 0 2.3 1 2.3 2.3s-1 2.3-2.3 2.3-2.3-1-2.3-2.3c-.1-1.3 1-2.3 2.3-2.3" class="st19"/><path d="M179.9 25h16.4v21.4h-16.4z" class="st11"/><path d="M181.5 25h-1.6v21.4h1.6zM184.8 25h-1.6v21.4h1.6zM188.1 25h-1.7v21.4h1.7zM191.4 25h-1.7v21.4h1.7zM194.6 25H193v21.4h1.6z" class="st5"/><path d="M5.3 61.4c-1.7 0-3.1 1.4-3.1 3.1s1.4 3.1 3.1 3.1 3.1-1.4 3.1-3.1-1.4-3.1-3.1-3.1" class="st20"/><path d="M5.3 63.1c-.8 0-1.4.6-1.4 1.4s.6 1.4 1.4 1.4 1.4-.6 1.4-1.4-.7-1.4-1.4-1.4" class="st5"/><path d="M5.3 3.3c-1.7 0-3.1 1.4-3.1 3.1s1.4 3.1 3.1 3.1 3.1-1.4 3.1-3.1S7 3.3 5.3 3.3" class="st20"/><path d="M5.3 4.9c-.8 0-1.4.6-1.4 1.4s.6 1.4 1.4 1.4 1.4-.6 1.4-1.4c0-.7-.7-1.4-1.4-1.4M187 14.9h3.4v3.4H187zM180.8 14.9h3.4v3.4h-3.4z" class="st5"/><path d="M184.2 14.9h2.8v3.4h-2.8z" class="st16"/><path d="M184.2 14.9h2.8v3.4h-2.8z" class="st16"/><path d="M184.2 14.9h2.8v3.4h-2.8z" class="st16"/><path d="m188.1 18.3 1.7-1.7-1.7-1.7H187v3.4zM183.1 14.9l-1.7 1.7 1.7 1.7h1.1v-3.4z" class="st10"/><path d="M126.4 50.6V30.8H145l1.3 1.2v18.6z" class="st16"/><path d="M126.4 50.6V30.8H145l1.3 1.2v18.6z" class="st17"/><path d="M126.4 50.6V30.8H145l1.3 1.2v18.6z" class="st16"/><path d="M143.7 50h1.2v1.2h-1.2zM142.3 50h1.2v1.2h-1.2zM140.8 50h1.2v1.2h-1.2zM139.4 50h1.2v1.2h-1.2zM137.9 50h1.2v1.2h-1.2zM136.5 50h1.2v1.2h-1.2zM135 50h1.2v1.2H135zM133.6 50h1.2v1.2h-1.2zM132.1 50h1.2v1.2h-1.2zM130.7 50h1.2v1.2h-1.2zM129.2 50h1.2v1.2h-1.2zM127.8 50h1.2v1.2h-1.2zM143.7 30.1h1.2v1.2h-1.2zM142.3 30.1h1.2v1.2h-1.2zM140.8 30.1h1.2v1.2h-1.2zM139.4 30.1h1.2v1.2h-1.2zM137.9 30.1h1.2v1.2h-1.2zM136.5 30.1h1.2v1.2h-1.2zM135 30.1h1.2v1.2H135zM133.6 30.1h1.2v1.2h-1.2zM132.1 30.1h1.2v1.2h-1.2zM130.7 30.1h1.2v1.2h-1.2zM129.2 30.1h1.2v1.2h-1.2zM127.8 30.1h1.2v1.2h-1.2zM145.7 32.9h1.2v1.2h-1.2zM145.7 34.3h1.2v1.2h-1.2zM145.7 35.7h1.2v1.2h-1.2zM145.7 37.2h1.2v1.2h-1.2zM145.7 38.6h1.2v1.2h-1.2zM145.7 40.1h1.2v1.2h-1.2zM145.7 41.5h1.2v1.2h-1.2zM145.7 43h1.2v1.2h-1.2zM145.7 44.4h1.2v1.2h-1.2zM145.7 45.9h1.2v1.2h-1.2zM145.7 47.3h1.2v1.2h-1.2zM125.8 32.9h1.2v1.2h-1.2zM125.8 34.3h1.2v1.2h-1.2zM125.8 35.7h1.2v1.2h-1.2zM125.8 37.2h1.2v1.2h-1.2zM125.8 38.6h1.2v1.2h-1.2zM125.8 40.1h1.2v1.2h-1.2zM125.8 41.5h1.2v1.2h-1.2zM125.8 43h1.2v1.2h-1.2zM125.8 44.4h1.2v1.2h-1.2zM125.8 45.9h1.2v1.2h-1.2zM125.8 47.3h1.2v1.2h-1.2zM151.9 25.6h3.4V29h-3.4zM151.9 31.8h3.4v3.4h-3.4z" class="st5"/><path d="M151.9 28.9h3.4v2.8h-3.4z" class="st16"/><path d="M151.9 28.9h3.4v2.8h-3.4z" class="st16"/><path d="M151.9 28.9h3.4v2.8h-3.4z" class="st16"/><path d="m155.3 27.9-1.7-1.7-1.7 1.7h.1v1h3.3zM151.9 32.8l1.7 1.7 1.7-1.7v-1h-3.4z" class="st10"/><path d="M136.2 16.9h3.4v3.4h-3.4zM136.2 23.1h3.4v3.4h-3.4z" class="st5"/><path d="M136.2 20.3h3.4v2.8h-3.4z" class="st16"/><path d="M136.2 20.3h3.4v2.8h-3.4z" class="st16"/><path d="M136.2 20.3h3.4v2.8h-3.4z" class="st16"/><path d="m139.6 19.2-1.7-1.7-1.7 1.7v1h3.4zM136.2 24.2l1.7 1.6 1.7-1.6v-1.1h-3.4z" class="st10"/><path d="M105.6 41h2.3v2.3h-2.3zM109.8 41h2.3v2.3h-2.3z" class="st5"/><path d="M107.8 41h1.9v2.3h-1.9z" class="st16"/><path d="M107.8 41h1.9v2.3h-1.9z" class="st16"/><path d="M107.8 41h1.9v2.3h-1.9z" class="st16"/><path d="m107.1 41-1.1 1.1 1.1 1.2h.7V41zM110.5 43.3l1.1-1.2-1.1-1.1h-.7v2.3z" class="st10"/><path d="M133.9 3.2h3.4v3.4h-3.4zM140.1 3.2h3.4v3.4h-3.4z" class="st5"/><path d="M137.2 3.2h2.8v3.4h-2.8z" class="st16"/><path d="M137.2 3.2h2.8v3.4h-2.8z" class="st16"/><path d="M137.2 3.2h2.8v3.4h-2.8z" class="st16"/><path d="m136.2 3.2-1.7 1.7 1.7 1.7h1V3.2zM141.1 6.6l1.7-1.7-1.7-1.7h-1v3.4z" class="st10"/><path d="M156.5 48.7h.9v2.4h-.9zM156.5 44.6h.9V47h-.9zM165.5 42.4h.9v6.8h-.9z" class="st5"/><path d="M166.4 42.4h.9v6.8h-.9z" style="fill:#adb0b1"/><path d="M167.3 42.4h.9v6.8h-.9zM156.5 40.5h.9v2.4h-.9z" class="st5"/><path d="M155.6 48.7h.9v2.4h-.9zM155.6 44.6h.9V47h-.9zM155.6 40.5h.9v2.4h-.9z" class="st22"/><path d="M154.7 48.7h.9v2.4h-.9zM154.7 44.6h.9V47h-.9zM154.7 40.5h.9v2.4h-.9z" class="st5"/><path d="M157.4 39.9h8.1v11.8h-8.1z" class="st16"/><path d="M157.4 39.9h8.1v11.8h-8.1z" class="st17"/><path d="M157.4 39.9h8.1v11.8h-8.1z" class="st16"/><path d="M138.4 7.3h3.1v5.4h-3.1z" class="st10"/><path d="M136.5 10.7h1.9v1.9h-1.9zM141.5 9h1.9v1.9h-1.9zM136.5 7.3h1.9v1.9h-1.9z" class="st7"/><path d="M137.9 11.2h1v1h-1zM137.9 7.8h1v1h-1zM141 9.5h1v1h-1z" class="st5"/><path d="M167.4 33.4h7.5v4.9h-7.5z" class="st16"/><path d="M167.4 33.4h7.5v4.9h-7.5z" class="st17"/><path d="M167.4 33.4h7.5v4.9h-7.5z" class="st16"/><path d="M173 30.6h1.3v3.6H173zM168.1 30.6h1.3v3.6h-1.3zM173 37h1.3v3.6H173zM168.1 37h1.3v3.6h-1.3zM117.5 35.1h2.1v4.2h-2.1zM112.1 35.1h2.1v4.2h-2.1z" class="st5"/><path d="M114 35.5c-.4 0-.8.4-.8.8V38c0 .4.4.8.8.8h.2v-3.3zM117.7 38.8c.4 0 .8-.4.8-.8v-1.6c0-.4-.4-.8-.8-.8h-.2v3.3z" class="st10"/><path d="M114.2 35.5h3.2v3.3h-3.2z" class="st16"/><path d="M114.2 35.5h3.2v3.3h-3.2z" class="st17"/><path d="M114.2 35.5h3.2v3.3h-3.2z" class="st16"/><path d="M117.5 54.9h2.1v4.2h-2.1zM112.1 54.9h2.1v4.2h-2.1z" class="st5"/><path d="M114 55.4c-.4 0-.8.4-.8.8v1.6c0 .4.4.8.8.8h.2v-3.3h-.2zM117.7 58.7c.4 0 .8-.4.8-.8v-1.6c0-.4-.4-.8-.8-.8h-.2v3.3h.2z" class="st10"/><path d="M114.2 55.4h3.2v3.3h-3.2z" class="st16"/><path d="M114.2 55.4h3.2v3.3h-3.2z" class="st17"/><path d="M114.2 55.4h3.2v3.3h-3.2z" class="st16"/><path d="M163.7 62.6h4.5v2.6h-4.5z" class="st10"/><path d="M163.7 61h1.6v1.6h-1.6zM165.2 65.2h1.6v1.6h-1.6zM166.6 61h1.6v1.6h-1.6z" class="st7"/><path d="M164.1 62.2h.8v.8h-.8zM167 62.2h.8v.8h-.8zM165.6 64.8h.8v.8h-.8z" class="st5"/><path d="M145.9 64.4h4.5V67h-4.5z" class="st10"/><path d="M145.9 62.8h1.6v1.6h-1.6zM147.4 67h1.6v1.6h-1.6zM148.8 62.8h1.6v1.6h-1.6z" class="st7"/><path d="M146.3 64h.8v.8h-.8zM149.2 64h.8v.8h-.8zM147.8 66.6h.8v.8h-.8z" class="st5"/><path d="M78.1 36V21.9h14.2V36z" class="st16"/><path d="M78.1 36V21.9h14.2V36z" class="st17"/><path d="M78.1 36V21.9h14.2V36z" class="st16"/><path d="M89.7 20.9h.9v1.9h-.9zM88.3 20.9h.9v1.9h-.9zM86.8 20.9h.9v1.9h-.9zM85.4 20.9h.9v1.9h-.9zM84 20.9h.9v1.9H84zM82.6 20.9h.9v1.9h-.9zM81.2 20.9h.9v1.9h-.9zM79.8 20.9h.9v1.9h-.9zM77.1 33.4H79v.9h-1.9zM77.1 32H79v.9h-1.9zM77.1 30.6H79v.9h-1.9zM77.1 29.2H79v.9h-1.9zM77.1 27.8H79v.9h-1.9zM77.1 26.3H79v.9h-1.9zM77.1 24.9H79v.9h-1.9zM77.1 23.5H79v.9h-1.9zM91.3 33.4h1.9v.9h-1.9zM91.3 32h1.9v.9h-1.9zM91.3 30.6h1.9v.9h-1.9zM91.3 29.2h1.9v.9h-1.9zM91.3 27.8h1.9v.9h-1.9zM91.3 26.3h1.9v.9h-1.9zM91.3 24.9h1.9v.9h-1.9zM91.3 23.5h1.9v.9h-1.9zM89.7 35h.9v1.9h-.9zM88.3 35h.9v1.9h-.9zM86.8 35h.9v1.9h-.9zM85.4 35h.9v1.9h-.9zM84 35h.9v1.9H84zM82.6 35h.9v1.9h-.9zM81.2 35h.9v1.9h-.9zM79.8 35h.9v1.9h-.9z" class="st5"/><path d="M113.2 47.8c-1.7 0-3.1 1.4-3.1 3.1s1.4 3.1 3.1 3.1 3.1-1.4 3.1-3.1c.1-1.7-1.3-3.1-3.1-3.1" style="fill:#aad0d4"/><path d="M113.2 49.5c-.8 0-1.4.6-1.4 1.4s.6 1.4 1.4 1.4 1.4-.6 1.4-1.4c.1-.8-.6-1.4-1.4-1.4" class="st5"/><path d="M168.9 61.3h6v6h-6z" class="st16"/><path d="M168.9 61.3h6v6h-6z" class="st19"/><path d="M168.9 61.3h6v6h-6z" class="st16"/><path d="M173.8 68.3c.5 0 1-.4 1-1h-2c0 .5.5 1 1 1M171.8 68.3c.5 0 1-.4 1-1h-2c0 .5.5 1 1 1" class="st5"/><path d="M169.9 68.3c.5 0 1-.4 1-1h-2c0 .5.4 1 1 1M169.9 60.4c-.5 0-1 .4-1 1h2c-.1-.6-.5-1-1-1" class="st5"/><path d="M171.8 60.4c-.5 0-1 .4-1 1h2c0-.6-.4-1-1-1M173.8 60.4c-.5 0-1 .4-1 1h2c0-.6-.4-1-1-1" class="st5"/><path d="M158.6 54h6v6h-6z" class="st16"/><path d="M158.6 54h6v6h-6z" class="st19"/><path d="M158.6 54h6v6h-6z" class="st16"/><path d="M165.6 55c0-.5-.4-1-1-1v2c.5 0 1-.5 1-1M165.6 57c0-.5-.4-1-1-1v2c.5-.1 1-.5 1-1" class="st5"/><path d="M165.6 58.9c0-.5-.4-1-1-1v2c.5 0 1-.4 1-1M157.7 58.9c0 .5.4 1 1 1v-2c-.6 0-1 .5-1 1" class="st5"/><path d="M157.7 57c0 .5.4 1 1 1v-2c-.6 0-1 .4-1 1M157.7 55c0 .5.4 1 1 1v-2c-.6 0-1 .4-1 1" class="st5"/><path d="M145.8 3.2h6v6h-6z" class="st16"/><path d="M145.8 3.2h6v6h-6z" class="st19"/><path d="M145.8 3.2h6v6h-6z" class="st16"/><path d="M152.7 4.2c0-.5-.4-1-1-1v2c.6 0 1-.5 1-1M152.7 6.2c0-.5-.4-1-1-1v2c.6 0 1-.5 1-1" class="st5"/><path d="M152.7 8.2c0-.5-.4-1-1-1v2c.6-.1 1-.5 1-1M144.8 8.2c0 .5.4 1 1 1v-2c-.6 0-1 .4-1 1" class="st5"/><path d="M144.8 6.2c0 .5.4 1 1 1v-2c-.6 0-1 .4-1 1M144.8 4.2c0 .5.4 1 1 1v-2c-.6 0-1 .4-1 1" class="st5"/><path d="M145.8 10.6h6v6h-6z" class="st16"/><path d="M145.8 10.6h6v6h-6z" class="st19"/><path d="M145.8 10.6h6v6h-6z" class="st16"/><path d="M152.7 11.6c0-.5-.4-1-1-1v2c.6 0 1-.4 1-1M152.7 13.6c0-.5-.4-1-1-1v2c.6 0 1-.4 1-1M152.7 15.6c0-.5-.4-1-1-1v2c.6 0 1-.5 1-1M144.8 15.6c0 .5.4 1 1 1v-2c-.6 0-1 .4-1 1M144.8 13.6c0 .5.4 1 1 1v-2c-.6 0-1 .5-1 1M144.8 11.6c0 .5.4 1 1 1v-2c-.6 0-1 .5-1 1" class="st5"/><path d="M150.4 55.7h2.6v4.5h-2.6z" class="st10"/><path d="M148.7 58.6h1.6v1.6h-1.6zM153 57.2h1.6v1.6H153zM148.7 55.7h1.6v1.6h-1.6z" class="st7"/><path d="M150 59h.8v.8h-.8zM150 56.1h.8v.8h-.8zM152.6 57.6h.8v.8h-.8z" class="st5"/><path d="m45.7 38.6-7.2-7.2 7.2-7.2 7.2 7.2z" class="st16"/><path d="m45.7 38.6-7.2-7.2 7.2-7.2 7.2 7.2z" class="st17"/><path d="m45.7 38.6-7.2-7.2 7.2-7.2 7.2 7.2z" class="st16"/><path d="m45.814 25.606 1.343-1.343.637.636-1.344 1.343zM46.813 26.609l1.343-1.344.636.637-1.343 1.343zM47.811 27.612l1.344-1.344.636.637-1.343 1.343zM48.81 28.615l1.344-1.344.636.636-1.343 1.344zM49.88 29.688l1.343-1.343.637.636-1.344 1.343zM50.879 30.69l1.343-1.343.636.637-1.343 1.343zM38.612 32.806l1.344-1.344.636.636-1.343 1.344zM39.611 33.808l1.344-1.343.636.636-1.343 1.344zM40.61 34.811l1.344-1.343.636.636-1.344 1.344zM41.609 35.814l1.343-1.344.637.637-1.344 1.343zM42.678 36.887l1.344-1.343.636.636-1.343 1.344zM43.677 37.89l1.344-1.343.636.636-1.343 1.344zM50.888 32.18l.636-.636 1.343 1.343-.636.637zM49.885 33.179l.636-.636 1.344 1.343-.637.636zM48.882 34.178l.636-.637 1.344 1.344-.637.636zM47.88 35.177l.635-.637 1.344 1.344-.636.636zM46.876 36.175l.637-.636 1.343 1.343-.636.637zM45.873 37.174l.637-.636 1.343 1.343-.636.637zM43.688 24.979l.637-.637 1.343 1.344-.636.636zM42.685 25.978l.637-.637 1.343 1.344-.636.636zM41.683 26.976l.636-.636 1.343 1.344-.636.636zM40.68 27.975l.636-.636 1.344 1.343-.637.637zM39.677 28.974l.636-.636 1.344 1.343-.637.637zM38.674 29.973l.637-.636 1.343 1.343-.636.636z" class="st5"/><path d="M118.2 3.1h7.2v7.2h-7.2zM118.2 10.3V3.1H111v7.2zM111 10.3V3.1h-7.2v7.2zM103.8 10.3V3.1h-7.2v7.2z" class="st16"/><path d="M132.6 10.3V3.1h-7.2v7.2zM89.5 10.3V3.1h-7.2v7.2zM96.7 10.3V3.1h-7.2v7.2zM82.3 10.3V3.1h-7.2v7.2zM67.9 10.3V3.1h-7.2v7.2z" class="st16"/><path d="M75.1 10.3V3.1h-7.2v7.2z" class="st16"/><path d="M118.2 3.1h7.2v7.2h-7.2zM118.2 10.3V3.1H111v7.2zM111 10.3V3.1h-7.2v7.2zM103.8 10.3V3.1h-7.2v7.2z" class="st17"/><path d="M132.6 10.3V3.1h-7.2v7.2zM89.5 10.3V3.1h-7.2v7.2zM96.7 10.3V3.1h-7.2v7.2zM82.3 10.3V3.1h-7.2v7.2zM67.9 10.3V3.1h-7.2v7.2z" class="st17"/><path d="M75.1 10.3V3.1h-7.2v7.2z" class="st17"/><path d="M118.2 3.1h7.2v7.2h-7.2zM118.2 10.3V3.1H111v7.2zM111 10.3V3.1h-7.2v7.2zM103.8 10.3V3.1h-7.2v7.2z" class="st16"/><path d="M132.6 10.3V3.1h-7.2v7.2zM89.5 10.3V3.1h-7.2v7.2zM96.7 10.3V3.1h-7.2v7.2zM82.3 10.3V3.1h-7.2v7.2zM67.9 10.3V3.1h-7.2v7.2z" class="st16"/><path d="M75.1 10.3V3.1h-7.2v7.2z" class="st16"/><path d="M112.8 8.5h3.6V4.9h-3.6zM120 8.5h3.6V4.9H120zM127.2 8.5h3.6V4.9h-3.6zM84.1 8.5h3.6V4.9h-3.6zM66.1 8.5V4.9h-3.6v3.6zM80.5 8.5V4.9h-3.6v3.6zM94.9 8.5V4.9h-3.6v3.6zM102 8.5V4.9h-3.6v3.6zM109.2 8.5V4.9h-3.6v3.6zM73.3 8.5V4.9h-3.6v3.6z" class="st10"/><path d="M46.3 3.1h7.2v7.2h-7.2zM46.3 10.3V3.1h-7.2v7.2z" class="st16"/><path d="M39.1 10.3V3.1h-7.2v7.2zM60.7 10.3V3.1h-7.2v7.2z" class="st16"/><path d="M46.3 3.1h7.2v7.2h-7.2zM46.3 10.3V3.1h-7.2v7.2z" class="st17"/><path d="M39.1 10.3V3.1h-7.2v7.2zM60.7 10.3V3.1h-7.2v7.2z" class="st17"/><path d="M46.3 3.1h7.2v7.2h-7.2zM46.3 10.3V3.1h-7.2v7.2z" class="st16"/><path d="M39.1 10.3V3.1h-7.2v7.2zM60.7 10.3V3.1h-7.2v7.2z" class="st16"/><path d="M40.9 8.5h3.6V4.9h-3.6zM48.1 8.5h3.6V4.9h-3.6zM55.3 8.5h3.6V4.9h-3.6zM37.3 8.5V4.9h-3.6v3.6z" class="st10"/><path d="M118.2 60.4h7.2v7.2h-7.2z" class="st16"/><path d="M118.2 60.4h7.2v7.2h-7.2z" class="st17"/><path d="M118.2 60.4h7.2v7.2h-7.2zM118.2 67.6v-7.2H111v7.2z" class="st16"/><path d="M118.2 67.6v-7.2H111v7.2z" class="st17"/><path d="M118.2 67.6v-7.2H111v7.2zM111 67.6v-7.2h-7.2v7.2z" class="st16"/><path d="M111 67.6v-7.2h-7.2v7.2z" class="st17"/><path d="M111 67.6v-7.2h-7.2v7.2zM103.8 67.6v-7.2h-7.2v7.2z" class="st16"/><path d="M103.8 67.6v-7.2h-7.2v7.2z" class="st17"/><path d="M103.8 67.6v-7.2h-7.2v7.2zM132.6 67.6v-7.2h-7.2v7.2z" class="st16"/><path d="M132.6 67.6v-7.2h-7.2v7.2z" class="st17"/><path d="M132.6 67.6v-7.2h-7.2v7.2zM89.5 67.6v-7.2h-7.2v7.2z" class="st16"/><path d="M89.5 67.6v-7.2h-7.2v7.2z" class="st17"/><path d="M89.5 67.6v-7.2h-7.2v7.2zM96.7 67.6v-7.2h-7.2v7.2z" class="st16"/><path d="M96.7 67.6v-7.2h-7.2v7.2z" class="st17"/><path d="M96.7 67.6v-7.2h-7.2v7.2zM82.3 67.6v-7.2h-7.2v7.2z" class="st16"/><path d="M82.3 67.6v-7.2h-7.2v7.2z" class="st17"/><path d="M82.3 67.6v-7.2h-7.2v7.2zM67.9 67.6v-7.2h-7.2v7.2z" class="st16"/><path d="M67.9 67.6v-7.2h-7.2v7.2z" class="st17"/><path d="M67.9 67.6v-7.2h-7.2v7.2z" class="st16"/><path d="M75.1 67.6v-7.2h-7.2v7.2z" class="st16"/><path d="M75.1 67.6v-7.2h-7.2v7.2z" class="st17"/><path d="M75.1 67.6v-7.2h-7.2v7.2zM118.2 60.4h7.2v7.2h-7.2z" class="st16"/><path d="M118.2 60.4h7.2v7.2h-7.2z" class="st17"/><path d="M118.2 60.4h7.2v7.2h-7.2zM118.2 67.6v-7.2H111v7.2z" class="st16"/><path d="M118.2 67.6v-7.2H111v7.2z" class="st17"/><path d="M118.2 67.6v-7.2H111v7.2zM111 67.6v-7.2h-7.2v7.2z" class="st16"/><path d="M111 67.6v-7.2h-7.2v7.2z" class="st17"/><path d="M111 67.6v-7.2h-7.2v7.2zM103.8 67.6v-7.2h-7.2v7.2z" class="st16"/><path d="M103.8 67.6v-7.2h-7.2v7.2z" class="st17"/><path d="M103.8 67.6v-7.2h-7.2v7.2zM132.6 67.6v-7.2h-7.2v7.2z" class="st16"/><path d="M132.6 67.6v-7.2h-7.2v7.2z" class="st17"/><path d="M132.6 67.6v-7.2h-7.2v7.2zM89.5 67.6v-7.2h-7.2v7.2z" class="st16"/><path d="M89.5 67.6v-7.2h-7.2v7.2z" class="st17"/><path d="M89.5 67.6v-7.2h-7.2v7.2zM96.7 67.6v-7.2h-7.2v7.2z" class="st16"/><path d="M96.7 67.6v-7.2h-7.2v7.2z" class="st17"/><path d="M96.7 67.6v-7.2h-7.2v7.2zM82.3 67.6v-7.2h-7.2v7.2z" class="st16"/><path d="M82.3 67.6v-7.2h-7.2v7.2z" class="st17"/><path d="M82.3 67.6v-7.2h-7.2v7.2zM67.9 67.6v-7.2h-7.2v7.2z" class="st16"/><path d="M67.9 67.6v-7.2h-7.2v7.2z" class="st17"/><path d="M67.9 67.6v-7.2h-7.2v7.2z" class="st16"/><path d="M75.1 67.6v-7.2h-7.2v7.2z" class="st16"/><path d="M75.1 67.6v-7.2h-7.2v7.2z" class="st17"/><path d="M75.1 67.6v-7.2h-7.2v7.2zM118.2 60.4h7.2v7.2h-7.2z" class="st16"/><path d="M118.2 60.4h7.2v7.2h-7.2z" class="st17"/><path d="M118.2 60.4h7.2v7.2h-7.2zM118.2 67.6v-7.2H111v7.2z" class="st16"/><path d="M118.2 67.6v-7.2H111v7.2z" class="st17"/><path d="M118.2 67.6v-7.2H111v7.2zM111 67.6v-7.2h-7.2v7.2z" class="st16"/><path d="M111 67.6v-7.2h-7.2v7.2z" class="st17"/><path d="M111 67.6v-7.2h-7.2v7.2zM103.8 67.6v-7.2h-7.2v7.2z" class="st16"/><path d="M103.8 67.6v-7.2h-7.2v7.2z" class="st17"/><path d="M103.8 67.6v-7.2h-7.2v7.2zM132.6 67.6v-7.2h-7.2v7.2z" class="st16"/><path d="M132.6 67.6v-7.2h-7.2v7.2z" class="st17"/><path d="M132.6 67.6v-7.2h-7.2v7.2zM89.5 67.6v-7.2h-7.2v7.2z" class="st16"/><path d="M89.5 67.6v-7.2h-7.2v7.2z" class="st17"/><path d="M89.5 67.6v-7.2h-7.2v7.2zM96.7 67.6v-7.2h-7.2v7.2z" class="st16"/><path d="M96.7 67.6v-7.2h-7.2v7.2z" class="st17"/><path d="M96.7 67.6v-7.2h-7.2v7.2zM82.3 67.6v-7.2h-7.2v7.2z" class="st16"/><path d="M82.3 67.6v-7.2h-7.2v7.2z" class="st17"/><path d="M82.3 67.6v-7.2h-7.2v7.2zM67.9 67.6v-7.2h-7.2v7.2z" class="st16"/><path d="M67.9 67.6v-7.2h-7.2v7.2z" class="st17"/><path d="M67.9 67.6v-7.2h-7.2v7.2z" class="st16"/><path d="M75.1 67.6v-7.2h-7.2v7.2z" class="st16"/><path d="M75.1 67.6v-7.2h-7.2v7.2z" class="st17"/><path d="M75.1 67.6v-7.2h-7.2v7.2z" class="st16"/><path d="M112.8 65.8h3.6v-3.6h-3.6zM120 65.8h3.6v-3.6H120zM127.2 65.8h3.6v-3.6h-3.6zM84.1 65.8h3.6v-3.6h-3.6zM66.1 65.8v-3.6h-3.6v3.6zM80.5 65.8v-3.6h-3.6v3.6zM94.9 65.8v-3.6h-3.6v3.6zM102 65.8v-3.6h-3.6v3.6zM109.2 65.8v-3.6h-3.6v3.6zM73.3 65.8v-3.6h-3.6v3.6z" class="st10"/><path d="M46.3 60.4h7.2v7.2h-7.2z" class="st16"/><path d="M46.3 60.4h7.2v7.2h-7.2z" class="st17"/><path d="M46.3 60.4h7.2v7.2h-7.2zM46.3 67.6v-7.2h-7.2v7.2z" class="st16"/><path d="M46.3 67.6v-7.2h-7.2v7.2z" class="st17"/><path d="M46.3 67.6v-7.2h-7.2v7.2z" class="st16"/><path d="M39.1 67.6v-7.2h-7.2v7.2z" class="st16"/><path d="M39.1 67.6v-7.2h-7.2v7.2z" class="st17"/><path d="M39.1 67.6v-7.2h-7.2v7.2zM60.7 67.6v-7.2h-7.2v7.2z" class="st16"/><path d="M60.7 67.6v-7.2h-7.2v7.2z" class="st17"/><path d="M60.7 67.6v-7.2h-7.2v7.2zM46.3 60.4h7.2v7.2h-7.2z" class="st16"/><path d="M46.3 60.4h7.2v7.2h-7.2z" class="st17"/><path d="M46.3 60.4h7.2v7.2h-7.2zM46.3 67.6v-7.2h-7.2v7.2z" class="st16"/><path d="M46.3 67.6v-7.2h-7.2v7.2z" class="st17"/><path d="M46.3 67.6v-7.2h-7.2v7.2z" class="st16"/><path d="M39.1 67.6v-7.2h-7.2v7.2z" class="st16"/><path d="M39.1 67.6v-7.2h-7.2v7.2z" class="st17"/><path d="M39.1 67.6v-7.2h-7.2v7.2zM60.7 67.6v-7.2h-7.2v7.2z" class="st16"/><path d="M60.7 67.6v-7.2h-7.2v7.2z" class="st17"/><path d="M60.7 67.6v-7.2h-7.2v7.2zM46.3 60.4h7.2v7.2h-7.2z" class="st16"/><path d="M46.3 60.4h7.2v7.2h-7.2z" class="st17"/><path d="M46.3 60.4h7.2v7.2h-7.2zM46.3 67.6v-7.2h-7.2v7.2z" class="st16"/><path d="M46.3 67.6v-7.2h-7.2v7.2z" class="st17"/><path d="M46.3 67.6v-7.2h-7.2v7.2z" class="st16"/><path d="M39.1 67.6v-7.2h-7.2v7.2z" class="st16"/><path d="M39.1 67.6v-7.2h-7.2v7.2z" class="st17"/><path d="M39.1 67.6v-7.2h-7.2v7.2zM60.7 67.6v-7.2h-7.2v7.2z" class="st16"/><path d="M60.7 67.6v-7.2h-7.2v7.2z" class="st17"/><path d="M60.7 67.6v-7.2h-7.2v7.2z" class="st16"/><path d="M40.9 65.8h3.6v-3.6h-3.6zM48.1 65.8h3.6v-3.6h-3.6zM55.3 65.8h3.6v-3.6h-3.6zM37.3 65.8v-3.6h-3.6v3.6z" class="st10"/><g id="Artwork_3"><path d="M132.7 22.4v-1.6h1.6v1.6h-.1V22h-1.4v.4zM132.7 24.3v-1.6h.1v.3h1.4v-.5h.1v1.6z" class="st5"/><path d="M132.8 23.2V23h1.4v.2c0 .4-.3.7-.7.7s-.7-.3-.7-.7M132.8 22v-.2c0-.4.3-.7.7-.7s.7.3.7.7v.2z" class="st7"/></g><path d="M132.8 22h1.4v1h-1.4z" class="st19"/><path d="M132.8 22h1.4v1h-1.4z" class="st17"/><path d="M132.8 22h1.4v1h-1.4z" class="st16"/><g id="Artwork_3-2"><path d="M131 13.3v-1.6h1.6v1.6h-.1v-.4h-1.4v.4zM131 15.1v-1.6h.1v.5h1.4v-.5h.1v1.6zq0 .15 0 0" class="st5"/><path d="M131.2 14.1v-.2h1.4v.2c0 .4-.3.7-.7.7s-.7-.3-.7-.7M131.2 12.9v-.2c0-.4.3-.7.7-.7s.7.3.7.7v.2z" class="st7"/></g><path d="M131.2 12.9h1.4v1h-1.4z" class="st19"/><path d="M131.2 12.9h1.4v1h-1.4z" class="st17"/><path d="M131.2 12.9h1.4v1h-1.4z" class="st16"/><g id="Artwork_3-3"><path d="M117.7 18.1v-1.6h1.6v1.6h-.1v-.4h-1.4v.4zM117.7 20v-1.6h.1v.5h1.4v-.5h.1V20z" class="st5"/><path d="M117.8 18.9v-.2h1.4v.2c0 .4-.3.7-.7.7s-.7-.3-.7-.7M117.8 17.7v-.2c0-.4.3-.7.7-.7s.7.3.7.7v.2z" class="st7"/></g><path d="M117.8 17.7h1.4v1h-1.4z" class="st19"/><path d="M117.8 17.7h1.4v1h-1.4z" class="st17"/><path d="M117.8 17.7h1.4v1h-1.4z" class="st16"/><g id="Artwork_3-4"><path d="M114.9 20.6V19h1.6v1.6h-.1v-.4H115v.4zc.1 0 0 0 0 0M114.9 22.4v-1.6h.1v.5h1.4v-.5h.1v1.6zc.1 0 0 0 0 0" class="st5"/><path d="M115.1 21.4v-.2h1.4v.2c0 .4-.3.7-.7.7s-.7-.4-.7-.7M115.1 20.2V20c0-.4.3-.7.7-.7s.7.3.7.7v.2z" class="st7"/></g><path d="M115.1 20.2h1.4v1h-1.4z" class="st19"/><path d="M115.1 20.2h1.4v1h-1.4z" class="st17"/><path d="M115.1 20.2h1.4v1h-1.4z" class="st16"/><g id="Artwork_3-5"><path d="M112 20.6V19h1.6v1.6h-.1v-.4h-1.4v.4zM112 22.4v-1.6h.1v.5h1.4v-.5h.1v1.6z" class="st5"/><path d="M112.1 21.4v-.2h1.4v.2c0 .4-.3.7-.7.7s-.7-.4-.7-.7M112.1 20.2V20c0-.4.3-.7.7-.7s.7.3.7.7v.2z" class="st7"/></g><path d="M112.1 20.2h1.4v1h-1.4z" class="st19"/><path d="M112.1 20.2h1.4v1h-1.4z" class="st17"/><path d="M112.1 20.2h1.4v1h-1.4z" class="st16"/><g id="Artwork_3-6"><path d="M141.7 23v-1.6h1.6V23h-.1v-.4h-1.4v.4zM141.7 24.8v-1.6h.1v.5h1.4v-.5h.1v1.6zc0 .1 0 0 0 0" class="st5"/><path d="M141.9 23.8v-.2h1.4v.2c0 .4-.3.7-.7.7s-.7-.3-.7-.7M141.9 22.6v-.2c0-.4.3-.7.7-.7s.7.3.7.7v.2z" class="st7"/></g><path d="M141.8 22.6h1.4v1h-1.4z" class="st19"/><path d="M141.8 22.6h1.4v1h-1.4z" class="st17"/><path d="M141.8 22.6h1.4v1h-1.4z" class="st16"/><g id="Artwork_3-7"><path d="M147.9 23v-1.6h1.6V23h-.1v-.4H148v.4zM147.9 24.8v-1.6h.1v.5h1.4v-.5h.1v1.6zc0 .1 0 0 0 0" class="st5"/><path d="M148 23.8v-.2h1.4v.2c0 .4-.3.7-.7.7s-.7-.3-.7-.7M148 22.6v-.2c0-.4.3-.7.7-.7s.7.3.7.7v.2z" class="st7"/></g><path d="M148 22.6h1.4v1H148z" class="st19"/><path d="M148 22.6h1.4v1H148z" class="st17"/><path d="M148 22.6h1.4v1H148z" class="st16"/><g id="Artwork_3-8"><path d="M153.9 21.2v-1.6h1.6v1.6h-.1v-.4H154v.4zM153.9 23v-1.6h.1v.5h1.4v-.5h.1V23zc0 .1 0 0 0 0" class="st5"/><path d="M154.1 22v-.2h1.4v.2c0 .4-.3.7-.7.7s-.7-.3-.7-.7M154.1 20.8v-.2c0-.4.3-.7.7-.7s.7.3.7.7v.2z" class="st7"/></g><path d="M154.1 20.8h1.4v1h-1.4z" class="st19"/><path d="M154.1 20.8h1.4v1h-1.4z" class="st17"/><path d="M154.1 20.8h1.4v1h-1.4z" class="st16"/><g id="Artwork_3-9"><path d="M153.9 15.1v-1.6h1.6v1.6h-.1v-.4H154v.4zM153.9 16.9v-1.6h.1v.5h1.4v-.5h.1v1.6zc0 .1 0 0 0 0" class="st5"/><path d="M154.1 15.9v-.2h1.4v.2c0 .4-.3.7-.7.7s-.7-.3-.7-.7M154.1 14.7v-.2c0-.4.3-.7.7-.7s.7.3.7.7v.2z" class="st7"/></g><path d="M154.1 14.7h1.4v1h-1.4z" class="st19"/><path d="M154.1 14.7h1.4v1h-1.4z" class="st17"/><path d="M154.1 14.7h1.4v1h-1.4z" class="st16"/><g id="Artwork_3-10"><path d="M153.9 6.2V4.6h1.6v1.6h-.1v-.4H154v.4zM153.9 8.1V6.4h.1v.5h1.4v-.5h.1V8z" class="st5"/><path d="M154.1 7v-.2h1.4V7c0 .4-.3.7-.7.7s-.7-.3-.7-.7M154.1 5.8v-.2c0-.4.3-.7.7-.7s.7.3.7.7v.2z" class="st7"/></g><path d="M154.1 5.8h1.4v1h-1.4z" class="st19"/><path d="M154.1 5.8h1.4v1h-1.4z" class="st17"/><path d="M154.1 5.8h1.4v1h-1.4z" class="st16"/><g id="Artwork_3-11"><path d="M146.2 19.6h-1.6V18h1.6-.4v1.4h.4zM148 19.6h-1.6v-.1h.4V18h-.4v-.1h1.6zq.15 0 0 0" class="st5"/><path d="M147 19.5h-.2V18h.2c.4 0 .7.3.7.7s-.3.8-.7.8M145.8 19.5h-.2c-.4 0-.7-.3-.7-.7s.3-.7.7-.7h.2z" class="st7"/></g><path d="M145.8 18h1v1.4h-1z" class="st19"/><path d="M145.8 18h1v1.4h-1z" class="st17"/><path d="M145.8 18h1v1.4h-1z" class="st16"/><g id="Artwork_3-12"><path d="M137.8 15.8h-1.6v-1.6h1.6v.1h-.4v1.4h.4zM139.7 15.8H138v-.1h.4v-1.4h-.4v-.1h1.6z" class="st5"/><path d="M138.6 15.7h-.2v-1.4h.2c.4 0 .7.3.7.7s-.3.7-.7.7M137.4 15.7h-.2c-.4 0-.7-.3-.7-.7s.3-.7.7-.7h.2z" class="st7"/></g><path d="M137.4 14.3h1v1.4h-1z" class="st19"/><path d="M137.4 14.3h1v1.4h-1z" class="st17"/><path d="M137.4 14.3h1v1.4h-1z" class="st16"/><g id="Artwork_3-13"><path d="M127.5 13h-1.6v-1.6h1.6v.1h-.4v1.4h.4zM129.3 13h-1.6v-.1h.4v-1.4h-.4v-.1h1.6zc.1 0 0 0 0 0" class="st5"/><path d="M128.3 12.8h-.2v-1.4h.2c.4 0 .7.3.7.7s-.3.7-.7.7M127.1 12.8h-.2c-.4 0-.7-.3-.7-.7s.3-.7.7-.7h.2z" class="st7"/></g><path d="M127.1 11.4h1v1.4h-1z" class="st19"/><path d="M127.1 11.4h1v1.4h-1z" class="st17"/><path d="M127.1 11.4h1v1.4h-1z" class="st16"/><g id="Artwork_3-14"><path d="M114.5 14.7h-1.6v-1.6h1.6v.1h-.4v1.4h.4zM116.4 14.7h-1.6v-.1h.4v-1.4h-.4v-.1h1.6z" class="st5"/><path d="M115.3 14.6h-.2v-1.4h.2c.4 0 .7.3.7.7s-.3.7-.7.7M114.1 14.6h-.2c-.4 0-.7-.3-.7-.7s.3-.7.7-.7h.2z" class="st7"/></g><path d="M114.1 13.2h1v1.4h-1z" class="st19"/><path d="M114.1 13.2h1v1.4h-1z" class="st17"/><path d="M114.1 13.2h1v1.4h-1z" class="st16"/><g id="Artwork_3-15"><path d="M114.5 28.2h-1.6v-1.6h1.6v.1h-.4v1.4h.4zM116.4 28.2h-1.6v-.1h.4v-1.4h-.4v-.1h1.6z" class="st5"/><path d="M115.3 28.1h-.2v-1.4h.2c.4 0 .7.3.7.7s-.3.7-.7.7M114.1 28.1h-.2c-.4 0-.7-.3-.7-.7s.3-.7.7-.7h.2z" class="st7"/></g><path d="M114.1 26.7h1v1.4h-1z" class="st19"/><path d="M114.1 26.7h1v1.4h-1z" class="st17"/><path d="M114.1 26.7h1v1.4h-1z" class="st16"/><g id="Artwork_3-16"><path d="M114.5 31.2h-1.6v-1.6h1.6v.1h-.4v1.4h.4zM116.4 31.2h-1.6v-.1h.4v-1.4h-.4v-.1h1.6z" class="st5"/><path d="M115.3 31.1h-.2v-1.4h.2c.4 0 .7.3.7.7 0 .3-.3.7-.7.7M114.1 31.1h-.2c-.4 0-.7-.3-.7-.7s.3-.7.7-.7h.2z" class="st7"/></g><path d="M114.1 29.6h1V31h-1z" class="st19"/><path d="M114.1 29.6h1V31h-1z" class="st17"/><path d="M114.1 29.6h1V31h-1z" class="st16"/><g id="Artwork_3-17"><path d="M148.5 30.6V29h1.6v1.6h-.1v-.4h-1.4v.4zc.1.1 0 .1 0 0M148.5 32.5v-1.6h.1v.4h1.4v-.4h.1v1.6zc.1 0 0 0 0 0" class="st5"/><path d="M148.7 31.4v-.2h1.4v.2c0 .4-.3.7-.7.7s-.7-.3-.7-.7M148.7 30.2V30c0-.4.3-.7.7-.7s.7.3.7.7v.2z" class="st7"/></g><path d="M148.7 30.2h1.4v1h-1.4z" class="st19"/><path d="M148.7 30.2h1.4v1h-1.4z" class="st17"/><path d="M148.7 30.2h1.4v1h-1.4z" class="st16"/><g id="Artwork_3-18"><path d="M173.9 15.1v-1.6h1.6v1.6h-.1v-.4H174v.4zM173.9 16.9v-1.6h.1v.5h1.4v-.5h.1v1.6zc0 .1 0 0 0 0" class="st5"/><path d="M174.1 15.9v-.2h1.4v.2c0 .4-.3.7-.7.7s-.7-.3-.7-.7M174.1 14.7v-.2c0-.4.3-.7.7-.7s.7.3.7.7v.2z" class="st7"/></g><path d="M174.1 14.7h1.4v1h-1.4z" class="st19"/><path d="M174.1 14.7h1.4v1h-1.4z" class="st17"/><path d="M174.1 14.7h1.4v1h-1.4z" class="st16"/><g id="Artwork_3-19"><path d="M173.9 22.4v-1.6h1.6v1.6h-.1V22H174v.4zq0 .15 0 0M173.9 24.3v-1.6h.1v.5h1.4v-.5h.1v1.6z" class="st5"/><path d="M174.1 23.2V23h1.4v.2c0 .4-.3.7-.7.7s-.7-.3-.7-.7M174.1 22v-.2c0-.4.3-.7.7-.7s.7.3.7.7v.2z" class="st7"/></g><path d="M174.1 22h1.4v1h-1.4z" class="st19"/><path d="M174.1 22h1.4v1h-1.4z" class="st17"/><path d="M174.1 22h1.4v1h-1.4z" class="st16"/><g id="Artwork_3-20"><path d="M180.2 22.3h-1.6v-1.6h1.6v.1h-.4v1.4h.4zM182 22.3h-1.6v-.1h.4v-1.4h-.4v-.1h1.6zc.1 0 0 0 0 0" class="st5"/><path d="M181 22.2h-.2v-1.4h.2c.4 0 .7.3.7.7 0 .3-.3.7-.7.7M179.8 22.2h-.2c-.4 0-.7-.3-.7-.7s.3-.7.7-.7h.2z" class="st7"/></g><path d="M179.8 20.7h1v1.4h-1z" class="st19"/><path d="M179.8 20.7h1v1.4h-1z" class="st17"/><path d="M179.8 20.7h1v1.4h-1z" class="st16"/><g id="Artwork_3-21"><path d="M176.7 15.1v-1.6h1.6v1.6h-.1v-.4h-1.4v.4zM176.7 16.9v-1.6h.1v.5h1.4v-.5h.1v1.6zc0 .1 0 0 0 0" class="st5"/><path d="M176.8 15.9v-.2h1.4v.2c0 .4-.3.7-.7.7s-.7-.3-.7-.7M176.8 14.7v-.2c0-.4.3-.7.7-.7s.7.3.7.7v.2z" class="st7"/></g><path d="M176.8 14.7h1.4v1h-1.4z" class="st19"/><path d="M176.8 14.7h1.4v1h-1.4z" class="st17"/><path d="M176.8 14.7h1.4v1h-1.4z" class="st16"/><g id="Artwork_3-22"><path d="M173.9 8.4V6.7h1.6v1.6h-.1V8H174v.4zM173.9 10.2V8.6h.1V9h1.4v-.4h.1v1.6zc0 .1 0 0 0 0" class="st5"/><path d="M174.1 9.2V9h1.4v.2c0 .4-.3.7-.7.7s-.7-.3-.7-.7M174.1 8v-.3c0-.4.3-.7.7-.7s.7.3.7.7V8z" class="st7"/></g><path d="M174.1 8h1.4v1h-1.4z" class="st19"/><path d="M174.1 8h1.4v1h-1.4z" class="st17"/><path d="M174.1 8h1.4v1h-1.4z" class="st16"/><g id="Artwork_3-23"><path d="M152 44.5v-1.6h1.6v1.6h-.1v-.4h-1.4v.4zM152 46.3v-1.6h.1v.4h1.4v-.4h.1v1.6zc0 .1 0 0 0 0" class="st5"/><path d="M152.1 45.3v-.2h1.4v.2c0 .4-.3.7-.7.7s-.7-.3-.7-.7M152.1 44.1v-.2c0-.4.3-.7.7-.7s.7.3.7.7v.2z" class="st7"/></g><path d="M152.1 44.1h1.4v1h-1.4z" class="st19"/><path d="M152.1 44.1h1.4v1h-1.4z" class="st17"/><path d="M152.1 44.1h1.4v1h-1.4z" class="st16"/><g id="Artwork_3-24"><path d="M152 51.3v-1.6h1.6v1.6h-.1v-.4h-1.4v.4zq0 .15 0 0M152 53.2v-1.6h.1v.4h1.4v-.4h.1v1.6z" class="st5"/><path d="M152.1 52.1V52h1.4v.2c0 .4-.3.7-.7.7-.4-.1-.7-.4-.7-.8M152.1 50.9v-.2c0-.4.3-.7.7-.7s.7.3.7.7v.2z" class="st7"/></g><path d="M152.1 50.9h1.4v1h-1.4z" class="st19"/><path d="M152.1 50.9h1.4v1h-1.4z" class="st17"/><path d="M152.1 50.9h1.4v1h-1.4z" class="st16"/><g id="Artwork_3-25"><path d="M177.8 53.7h-1.6V52h1.6v.1h-.4v1.4h.4zq.15 0 0 0M179.7 53.7h-1.6v-.1h.4v-1.4h-.5V52h1.6z" class="st5"/><path d="M178.6 53.6h-.2v-1.4h.2c.4 0 .7.3.7.7 0 .3-.3.7-.7.7M177.4 53.6h-.2c-.4 0-.7-.3-.7-.7s.3-.7.7-.7h.2z" class="st7"/></g><path d="M177.4 52.1h1v1.4h-1z" class="st19"/><path d="M177.4 52.1h1v1.4h-1z" class="st17"/><path d="M177.4 52.1h1v1.4h-1z" class="st16"/><g id="Artwork_3-26"><path d="M177.8 58.2h-1.6v-1.6h1.6v.1h-.4V58h.4zq.15 0 0 0M179.7 58.2h-1.6V58h.4v-1.4h-.5v-.1h1.6z" class="st5"/><path d="M178.6 58h-.2v-1.4h.2c.4 0 .7.3.7.7s-.3.7-.7.7M177.4 58h-.2c-.4 0-.7-.3-.7-.7s.3-.7.7-.7h.2z" class="st7"/></g><path d="M177.4 56.6h1V58h-1z" class="st19"/><path d="M177.4 56.6h1V58h-1z" class="st17"/><path d="M177.4 56.6h1V58h-1z" class="st16"/><g id="Artwork_3-27"><path d="M177.8 50.3h-1.6v-1.6h1.6v.1h-.4v1.4h.4zq.15 0 0 0M179.7 50.3h-1.6v-.1h.4v-1.4h-.5v-.1h1.6z" class="st5"/><path d="M178.6 50.2h-.2v-1.4h.2c.4 0 .7.3.7.7s-.3.7-.7.7M177.4 50.2h-.2c-.4 0-.7-.3-.7-.7s.3-.7.7-.7h.2z" class="st7"/></g><path d="M177.4 48.8h1v1.4h-1z" class="st19"/><path d="M177.4 48.8h1v1.4h-1z" class="st17"/><path d="M177.4 48.8h1v1.4h-1z" class="st16"/><g id="Artwork_3-28"><path d="M166.5 57.4v-1.6h1.6v1.6h-.1V57h-1.4v.4zq0 .15 0 0M166.5 59.3v-1.6h.1v.4h1.4v-.4h.1v1.6z" class="st5"/><path d="M166.6 58.2V58h1.4v.2c0 .4-.3.7-.7.7-.3.1-.7-.3-.7-.7q0 .15 0 0M166.6 57v-.2c0-.4.3-.7.7-.7s.7.3.7.7v.2z" class="st7"/></g><path d="M166.6 57h1.4v1h-1.4z" class="st19"/><path d="M166.6 57h1.4v1h-1.4z" class="st17"/><path d="M166.6 57h1.4v1h-1.4z" class="st16"/><g id="Artwork_3-29"><path d="M154.9 60v-1.6h1.6V60h-.1v-.4H155v.4zc.1 0 0 0 0 0M154.9 61.9v-1.6h.1v.4h1.4v-.4h.1v1.6zc.1 0 0 0 0 0" class="st5"/><path d="M155.1 60.8v-.2h1.4v.2c0 .4-.3.7-.7.7s-.7-.3-.7-.7M155.1 59.6v-.2c0-.4.3-.7.7-.7s.7.3.7.7v.2z" class="st7"/></g><path d="M155.1 59.6h1.4v1h-1.4z" class="st19"/><path d="M155.1 59.6h1.4v1h-1.4z" class="st17"/><path d="M155.1 59.6h1.4v1h-1.4z" class="st16"/><g id="Artwork_3-30"><path d="M151.7 65.6V64h1.6v1.6h-.1v-.4h-1.4v.4zM151.7 67.5v-1.6h.1v.4h1.4v-.4h.1v1.6z" class="st5"/><path d="M151.8 66.4v-.2h1.4v.2c0 .4-.3.7-.7.7s-.7-.3-.7-.7M151.8 65.2V65c0-.4.3-.7.7-.7s.7.3.7.7v.2z" class="st7"/></g><path d="M151.8 65.2h1.4v1h-1.4z" class="st19"/><path d="M151.8 65.2h1.4v1h-1.4z" class="st17"/><path d="M151.8 65.2h1.4v1h-1.4z" class="st16"/><g id="Artwork_3-31"><path d="M154.9 65.6V64h1.6v1.6h-.1v-.4H155v.4zc.1 0 0 0 0 0M154.9 67.5v-1.6h.1v.4h1.4v-.4h.1v1.6zc.1 0 0 0 0 0" class="st5"/><path d="M155.1 66.4v-.2h1.4v.2c0 .4-.3.7-.7.7s-.7-.3-.7-.7M155.1 65.2V65c0-.4.3-.7.7-.7s.7.3.7.7v.2z" class="st7"/></g><path d="M155.1 65.2h1.4v1h-1.4z" class="st19"/><path d="M155.1 65.2h1.4v1h-1.4z" class="st17"/><path d="M155.1 65.2h1.4v1h-1.4z" class="st16"/><g id="Artwork_3-32"><path d="M158.2 65.6V64h1.6v1.6h-.1v-.4h-1.4v.4zM158.2 67.5v-1.6h.1v.4h1.4v-.4h.1v1.6z" class="st5"/><path d="M158.3 66.4v-.2h1.4v.2c0 .4-.3.7-.7.7-.3 0-.7-.3-.7-.7M158.3 65.2V65c0-.4.3-.7.7-.7s.7.3.7.7v.2z" class="st7"/></g><path d="M158.3 65.2h1.4v1h-1.4z" class="st19"/><path d="M158.3 65.2h1.4v1h-1.4z" class="st17"/><path d="M158.3 65.2h1.4v1h-1.4z" class="st16"/><g id="Artwork_3-33"><path d="M161.5 65.6V64h1.6v1.6h-.1v-.4h-1.4v.4zM161.5 67.5v-1.6h.1v.4h1.4v-.4h.1v1.6z" class="st5"/><path d="M161.6 66.4v-.2h1.4v.2c0 .4-.3.7-.7.7s-.7-.3-.7-.7M161.6 65.2V65c0-.4.3-.7.7-.7s.7.3.7.7v.2z" class="st7"/></g><path d="M161.6 65.2h1.4v1h-1.4z" class="st19"/><path d="M161.6 65.2h1.4v1h-1.4z" class="st17"/><path d="M161.6 65.2h1.4v1h-1.4z" class="st16"/><g id="Artwork_3-34"><path d="M165.8 69.3h-1.6v-1.6h1.6v.1h-.4v1.4h.4zc0-.1 0 0 0 0M167.7 69.3H166v-.1h.5v-1.4h-.5v-.1h1.6zc0-.1 0 0 0 0" class="st5"/><path d="M166.6 69.1h-.2v-1.4h.2c.4 0 .7.3.7.7s-.3.7-.7.7M165.4 69.1h-.2c-.4 0-.7-.3-.7-.7s.3-.7.7-.7h.2z" class="st7"/></g><path d="M165.4 67.7h1v1.4h-1z" class="st19"/><path d="M165.4 67.7h1v1.4h-1z" class="st17"/><path d="M165.4 67.7h1v1.4h-1z" class="st16"/><g id="Artwork_3-35"><path d="M175.9 66.3v-1.6h1.6v1.6h-.1v-.4H176v.4zq0 .15 0 0M175.9 68.2v-1.6h.1v.4h1.4v-.4h.1v1.6z" class="st5"/><path d="M176 67.1V67h1.4v.2c0 .4-.3.7-.7.7-.4-.1-.7-.4-.7-.8M176 65.9v-.2c0-.4.3-.7.7-.7s.7.3.7.7v.2z" class="st7"/></g><path d="M176 65.9h1.4v1H176z" class="st19"/><path d="M176 65.9h1.4v1H176z" class="st17"/><path d="M176 65.9h1.4v1H176z" class="st16"/><g id="Artwork_3-36"><path d="M141.4 65.6V64h1.6v1.6-.4h-1.4v.4zM141.4 67.5v-1.6h.1v.4h1.4v-.4h.1v1.6z" class="st5"/><path d="M141.6 66.4v-.2h1.4v.2c0 .4-.3.7-.7.7s-.7-.3-.7-.7M141.6 65.2V65c0-.4.3-.7.7-.7s.7.3.7.7v.2z" class="st7"/></g><path d="M141.5 65.2h1.4v1h-1.4z" class="st19"/><path d="M141.5 65.2h1.4v1h-1.4z" class="st17"/><path d="M141.5 65.2h1.4v1h-1.4z" class="st16"/><g id="Artwork_3-37"><path d="M144.1 61.1h-1.6v-1.6h1.6v.1h-.4V61h.4zM146 61.1h-1.6V61h.4v-1.4h-.4v-.1h1.6z" class="st5"/><path d="M144.9 61h-.2v-1.4h.2c.4 0 .7.3.7.7s-.3.7-.7.7M143.7 61h-.2c-.4 0-.7-.3-.7-.7s.3-.7.7-.7h.2z" class="st7"/></g><path d="M143.7 59.6h1V61h-1z" class="st19"/><path d="M143.7 59.6h1V61h-1z" class="st17"/><path d="M143.7 59.6h1V61h-1z" class="st16"/><g id="Artwork_3-38"><path d="M129.8 57.1v-1.6h1.6v1.6h-.1v-.4h-1.4v.4zM129.8 58.9v-1.6h.1v.4h1.4v-.4h.1v1.6z" class="st5"/><path d="M129.9 57.9v-.2h1.4v.2c0 .4-.3.7-.7.7s-.7-.4-.7-.7M129.9 56.7v-.2c0-.4.3-.7.7-.7s.7.3.7.7v.2z" class="st7"/></g><path d="M129.9 56.6h1.4v1h-1.4z" class="st19"/><path d="M129.9 56.6h1.4v1h-1.4z" class="st17"/><path d="M129.9 56.6h1.4v1h-1.4z" class="st16"/><g id="Artwork_3-39"><path d="M127 57.1v-1.6h1.6v1.6h-.1v-.4h-1.4v.4zM127 58.9v-1.6h.1v.4h1.4v-.4h.1v1.6z" class="st5"/><path d="M127.1 57.9v-.2h1.4v.2c0 .4-.3.7-.7.7s-.7-.4-.7-.7M127.1 56.7v-.2c0-.4.3-.7.7-.7s.7.3.7.7v.2z" class="st7"/></g><path d="M127.1 56.6h1.4v1h-1.4z" class="st19"/><path d="M127.1 56.6h1.4v1h-1.4z" class="st17"/><path d="M127.1 56.6h1.4v1h-1.4z" class="st16"/><g id="Artwork_3-40"><path d="M114.7 43.3v-1.6h1.6v1.6h-.1v-.4h-1.4v.4zM114.7 45.2v-1.6h.1v.4h1.4v-.4h.1v1.6z" class="st5"/><path d="M114.8 44.1v-.2h1.4v.2c0 .4-.3.7-.7.7s-.7-.3-.7-.7M114.8 42.9v-.2c0-.4.3-.7.7-.7s.7.3.7.7v.2z" class="st7"/></g><path d="M114.8 42.9h1.4v1h-1.4z" class="st19"/><path d="M114.8 42.9h1.4v1h-1.4z" class="st17"/><path d="M114.8 42.9h1.4v1h-1.4z" class="st16"/><g id="Artwork_3-41"><path d="M106.5 56h-1.6v-1.6h1.6v.1h-.4v1.4h.4zc0-.1 0 0 0 0M108.3 56h-1.6v-.1h.4v-1.4h-.4v-.1h1.6zc0-.1 0 0 0 0" class="st5"/><path d="M107.3 55.8h-.2v-1.4h.2c.4 0 .7.3.7.7s-.4.7-.7.7M106.1 55.8h-.2c-.4 0-.7-.3-.7-.7s.3-.7.7-.7h.2z" class="st7"/></g><path d="M106.1 54.4h1v1.4h-1z" class="st19"/><path d="M106.1 54.4h1v1.4h-1z" class="st17"/><path d="M106.1 54.4h1v1.4h-1z" class="st16"/></svg>