<?xml version="1.0" encoding="utf-8"?>
<!-- Generator: Adobe Illustrator 25.0.1, SVG Export Plug-In . SVG Version: 6.00 Build 0)  -->
<svg version="1.1" id="Layer_1" xmlns="http://www.w3.org/2000/svg" xmlns:xlink="http://www.w3.org/1999/xlink" x="0px" y="0px"
	 viewBox="0 0 196.3 70.9" style="enable-background:new 0 0 196.3 70.9;" xml:space="preserve">
<style type="text/css">
	.st0{fill:#017481;}
	.st1{fill:#268893;}
	.st2{fill:#0E7C88;}
	.st3{opacity:0.2;}
	.st4{fill:#FFFFFF;}
	.st5{fill:#8B8F90;}
	.st6{fill:#80B9C0;}
	.st7{fill:#C2C5C6;}
	.st8{fill:#AFD3D8;}
	.st9{fill:none;}
	.st10{fill:#8A7867;}
	.st11{fill:#9DA0A1;}
	.st12{fill:#8F7F6E;}
	.st13{fill:#929596;}
	.st14{fill:#EBAC0C;}
	.st15{fill:#E76010;}
	.st16{fill:#11100D;}
	.st17{fill:#E5540F;}
	.st18{fill:#1A9F85;}
	.st19{fill:#EAA800;}
	.st20{fill:#C1DDE0;}
	.st21{fill:#ADB0B1;}
	.st22{fill:#A19284;}
	.st23{fill:#AAD0D4;}
</style>
<path class="st0" d="M191.6,64.5V6.4c0-3.5-2.9-6.4-6.4-6.4c0,0,0,0,0,0H6.3C2.8,0,0,2.8,0,6.3v58.3c0,3.5,2.8,6.3,6.3,6.3h179
	C188.8,70.9,191.6,68,191.6,64.5C191.6,64.5,191.6,64.5,191.6,64.5z M188.7,64.5c0,1.9-1.5,3.4-3.4,3.4c-1.9,0-3.4-1.5-3.4-3.4
	c0-1.9,1.5-3.4,3.4-3.4c0,0,0,0,0,0C187.1,61.1,188.7,62.6,188.7,64.5L188.7,64.5z M27.1,64.5c0,1.9-1.5,3.4-3.4,3.4
	c-1.9,0-3.4-1.5-3.4-3.4c0-1.9,1.5-3.4,3.4-3.4c0,0,0,0,0,0C25.6,61.1,27.1,62.6,27.1,64.5L27.1,64.5z M168.3,10.7
	c-1.2,0-2.2-1-2.2-2.2c0-1.2,1-2.2,2.2-2.2c1.2,0,2.2,1,2.2,2.2c0,0,0,0,0,0C170.5,9.7,169.5,10.7,168.3,10.7z M161.1,10.7
	c-1.2,0-2.2-1-2.2-2.2c0-1.2,1-2.2,2.2-2.2c1.2,0,2.2,1,2.2,2.2C163.3,9.7,162.3,10.7,161.1,10.7C161.1,10.7,161.1,10.7,161.1,10.7z
	 M188.7,6.4c0,1.9-1.5,3.4-3.4,3.4c-1.9,0-3.4-1.5-3.4-3.4c0-1.9,1.5-3.4,3.4-3.4c0,0,0,0,0,0C187.1,3,188.7,4.5,188.7,6.4z
	 M27.1,6.4c0,1.9-1.5,3.4-3.4,3.4c-1.9,0-3.4-1.5-3.4-3.4c0-1.9,1.5-3.4,3.4-3.4h0C25.6,3,27.1,4.5,27.1,6.4L27.1,6.4z"/>
<path class="st1" d="M1.1,57.1h24.8V29.2H1.5v0h24.5v-0.7H1.5v0h24.5V27H1.5v0h24.5v-6.5H1.5v0h24.5v-1.4H1.5v0h24.5v-0.7H1.5v0
	h24.5v-4.5H1.1c-0.2,0-0.4,0.2-0.4,0.4c0,0,0,0,0,0v42.5C0.7,56.9,0.9,57.1,1.1,57.1C1.1,57.1,1.1,57.1,1.1,57.1z M1.5,36.4h3.1v0
	L1.5,36.4L1.5,36.4z M1.5,37.1h3.1v0L1.5,37.1L1.5,37.1z M1.5,38.5h3.1v0L1.5,38.5L1.5,38.5z M1.5,45h3.1v0L1.5,45L1.5,45z
	 M1.5,46.4h3.1v0L1.5,46.4L1.5,46.4z M1.5,47.2h3.1v0L1.5,47.2L1.5,47.2z M1.5,54.4h3.1v0L1.5,54.4L1.5,54.4z M1.5,55.1h3.1v0
	L1.5,55.1L1.5,55.1z"/>
<rect x="25.8" y="12.1" class="st2" width="75.8" height="47"/>
<g class="st3">
	<path class="st4" d="M164.7,26.1c0.8,0,1.4-0.6,1.4-1.4c0-0.8-0.6-1.4-1.4-1.4c-0.8,0-1.4,0.6-1.4,1.4
		C163.3,25.5,163.9,26.1,164.7,26.1z"/>
</g>
<path class="st5" d="M23.7,46.1v2.3c0,0,0,0,0,0h-2.3c0,0,0,0,0,0v-2.3c0,0,0,0,0,0L23.7,46.1C23.7,46,23.7,46,23.7,46.1
	C23.7,46.1,23.7,46.1,23.7,46.1z"/>
<path class="st5" d="M23.7,48.6v2.3c0,0,0,0,0,0h-2.3c0,0,0,0,0,0v-2.3c0,0,0,0,0,0L23.7,48.6C23.7,48.6,23.7,48.6,23.7,48.6z"/>
<path class="st5" d="M19.8,46.1v2.3c0,0,0,0,0,0h-2.3c0,0,0,0,0,0v-2.3c0,0,0,0,0,0L19.8,46.1C19.8,46,19.8,46,19.8,46.1z"/>
<path class="st5" d="M19.8,48.6v2.3c0,0,0,0,0,0h-2.3c0,0,0,0,0,0v-2.3c0,0,0,0,0,0L19.8,48.6C19.8,48.6,19.8,48.6,19.8,48.6z"/>
<path class="st6" d="M161.6,24.7c0,1.7,1.4,3.1,3.1,3.1s3.1-1.4,3.1-3.1c0-1.7-1.4-3.1-3.1-3.1C163,21.5,161.6,22.9,161.6,24.7z"/>
<rect x="42.7" y="59.1" class="st5" width="2.8" height="1.6"/>
<rect x="46.3" y="59.1" class="st5" width="2.8" height="1.6"/>
<rect x="49.9" y="59.1" class="st5" width="2.8" height="1.6"/>
<rect x="53.5" y="59.1" class="st5" width="2.8" height="1.6"/>
<rect x="57.1" y="59.1" class="st5" width="2.8" height="1.6"/>
<rect x="60.7" y="59.1" class="st5" width="2.8" height="1.6"/>
<rect x="64.3" y="59.1" class="st5" width="2.8" height="1.6"/>
<rect x="67.9" y="59.1" class="st5" width="2.8" height="1.6"/>
<rect x="71.5" y="59.1" class="st5" width="2.8" height="1.6"/>
<rect x="75.1" y="59.1" class="st5" width="2.8" height="1.6"/>
<rect x="78.7" y="59.1" class="st5" width="2.8" height="1.6"/>
<rect x="82.3" y="59.1" class="st5" width="2.8" height="1.6"/>
<rect x="85.9" y="59.1" class="st5" width="2.8" height="1.6"/>
<rect x="101.6" y="46.9" class="st5" width="1.7" height="2.8"/>
<rect x="101.6" y="43.3" class="st5" width="1.7" height="2.8"/>
<rect x="101.6" y="39.7" class="st5" width="1.7" height="2.8"/>
<rect x="101.6" y="36.1" class="st5" width="1.7" height="2.8"/>
<rect x="101.6" y="32.5" class="st5" width="1.7" height="2.8"/>
<rect x="101.6" y="28.9" class="st5" width="1.7" height="2.8"/>
<rect x="101.6" y="25.3" class="st5" width="1.7" height="2.8"/>
<rect x="101.6" y="21.7" class="st5" width="1.7" height="2.8"/>
<rect x="85.9" y="10.4" class="st5" width="2.8" height="1.6"/>
<rect x="82.3" y="10.4" class="st5" width="2.8" height="1.6"/>
<rect x="78.7" y="10.4" class="st5" width="2.8" height="1.6"/>
<rect x="75.1" y="10.4" class="st5" width="2.8" height="1.6"/>
<rect x="71.5" y="10.4" class="st5" width="2.8" height="1.6"/>
<rect x="67.9" y="10.4" class="st5" width="2.8" height="1.6"/>
<rect x="64.3" y="10.4" class="st5" width="2.8" height="1.6"/>
<rect x="60.7" y="10.4" class="st5" width="2.8" height="1.6"/>
<rect x="57.1" y="10.4" class="st5" width="2.8" height="1.6"/>
<rect x="53.5" y="10.4" class="st5" width="2.8" height="1.6"/>
<rect x="49.9" y="10.4" class="st5" width="2.8" height="1.6"/>
<rect x="46.3" y="10.4" class="st5" width="2.8" height="1.6"/>
<rect x="42.7" y="10.4" class="st5" width="2.8" height="1.6"/>
<rect x="24.9" y="39.2" class="st6" width="4.5" height="2.8"/>
<rect x="24.9" y="42.8" class="st6" width="4.5" height="2.8"/>
<rect x="24.9" y="46.4" class="st6" width="4.5" height="2.8"/>
<path class="st7" d="M160.4,14.5c0.5,0.1,1,0.1,1.5,0c1.4-0.3,2.3-1.6,2.3-3V5.5c0-1.7-1.4-3.1-3.1-3.1s-3.1,1.4-3.1,3.1v6.1
	C158.1,13,159,14.2,160.4,14.5z"/>
<path class="st5" d="M161.1,6.3c1.2,0,2.2,1,2.2,2.2s-1,2.2-2.2,2.2c-1.2,0-2.2-1-2.2-2.2c0,0,0,0,0,0
	C158.9,7.3,159.9,6.3,161.1,6.3z"/>
<path class="st7" d="M167.6,14.5c0.5,0.1,1,0.1,1.5,0c1.4-0.3,2.3-1.6,2.3-3V5.5c0-1.7-1.4-3.1-3.1-3.1s-3.1,1.4-3.1,3.1v6.1
	C165.3,13,166.2,14.2,167.6,14.5z"/>
<path class="st5" d="M168.3,6.3c1.2,0,2.2,1,2.2,2.2s-1,2.2-2.2,2.2c-1.2,0-2.2-1-2.2-2.2C166.1,7.3,167.1,6.3,168.3,6.3z"/>
<path class="st8" d="M2,25.1c0.4,0,0.6,0.3,0.6,0.6S2.3,26.4,2,26.4s-0.6-0.3-0.6-0.6C1.3,25.4,1.6,25.1,2,25.1z"/>
<path class="st8" d="M20,14.3c0.4,0,0.6,0.3,0.6,0.6c0,0.4-0.3,0.6-0.6,0.6c-0.4,0-0.6-0.3-0.6-0.6C19.3,14.6,19.6,14.3,20,14.3
	C20,14.3,20,14.3,20,14.3z"/>
<circle class="st8" cx="12.8" cy="15" r="0.6"/>
<circle class="st8" cx="5.6" cy="15" r="0.6"/>
<path class="st8" d="M2,14.3c0.4,0,0.6,0.3,0.6,0.6c0,0.4-0.3,0.6-0.6,0.6c-0.4,0-0.6-0.3-0.6-0.6C1.3,14.6,1.6,14.3,2,14.3
	C2,14.3,2,14.3,2,14.3z"/>
<path class="st8" d="M23.6,25.1c0.4,0,0.6,0.3,0.6,0.6s-0.3,0.6-0.6,0.6s-0.6-0.3-0.6-0.6c0,0,0,0,0,0
	C22.9,25.4,23.2,25.1,23.6,25.1z"/>
<path class="st8" d="M20,28.7c0.4,0,0.6,0.3,0.6,0.6c0,0.4-0.3,0.6-0.6,0.6s-0.6-0.3-0.6-0.6C19.3,29,19.6,28.7,20,28.7
	C20,28.7,20,28.7,20,28.7z"/>
<path class="st8" d="M5.6,28.7c0.4,0,0.6,0.3,0.6,0.6c0,0.4-0.3,0.6-0.6,0.6s-0.6-0.3-0.6-0.6c0,0,0,0,0,0C4.9,29,5.2,28.7,5.6,28.7
	z"/>
<path class="st8" d="M20.5,51.5c0.4,0,0.6,0.3,0.6,0.6s-0.3,0.6-0.6,0.6s-0.6-0.3-0.6-0.6c0,0,0,0,0,0
	C19.9,51.8,20.2,51.5,20.5,51.5z"/>
<circle class="st8" cx="12.8" cy="52.1" r="0.6"/>
<circle class="st8" cx="5.6" cy="51" r="0.6"/>
<path class="st8" d="M23.6,53.9c0.4,0,0.6,0.3,0.6,0.6s-0.3,0.6-0.6,0.6c-0.4,0-0.6-0.3-0.6-0.6C22.9,54.2,23.2,53.9,23.6,53.9z"/>
<path class="st8" d="M16.4,53.9c0.4,0,0.6,0.3,0.6,0.6s-0.3,0.6-0.6,0.6c-0.4,0-0.6-0.3-0.6-0.6C15.7,54.2,16,53.9,16.4,53.9z"/>
<path class="st8" d="M9.2,53.9c0.4,0,0.6,0.3,0.6,0.6s-0.3,0.6-0.6,0.6c-0.4,0-0.6-0.3-0.6-0.6C8.5,54.2,8.8,53.9,9.2,53.9
	C9.2,53.9,9.2,53.9,9.2,53.9z"/>
<path class="st8" d="M2,53.9c0.4,0,0.6,0.3,0.6,0.6S2.3,55.2,2,55.2c-0.4,0-0.6-0.3-0.6-0.6C1.3,54.2,1.6,53.9,2,53.9
	C2,53.9,2,53.9,2,53.9z"/>
<path class="st8" d="M2,46.7c0.4,0,0.6,0.3,0.6,0.6S2.3,48,2,48s-0.6-0.3-0.6-0.6C1.3,47,1.6,46.7,2,46.7C2,46.7,2,46.7,2,46.7z"/>
<path class="st8" d="M2,39.5c0.4,0,0.6,0.3,0.6,0.6c0,0.4-0.3,0.6-0.6,0.6c-0.4,0-0.6-0.3-0.6-0.6C1.3,39.8,1.6,39.5,2,39.5z"/>
<path class="st8" d="M23.6,39.5c0.4,0,0.6,0.3,0.6,0.6s-0.3,0.6-0.6,0.6c-0.4,0-0.6-0.3-0.6-0.6C22.9,39.8,23.2,39.5,23.6,39.5z"/>
<path class="st8" d="M20,35.9c0.4,0,0.6,0.3,0.6,0.6c0,0.4-0.3,0.6-0.6,0.6c-0.4,0-0.6-0.3-0.6-0.6C19.3,36.2,19.6,35.9,20,35.9
	C20,35.9,20,35.9,20,35.9z"/>
<path class="st8" d="M20,39.5c0.4,0,0.6,0.3,0.6,0.6c0,0.4-0.3,0.6-0.6,0.6c-0.4,0-0.6-0.3-0.6-0.6C19.3,39.8,19.6,39.5,20,39.5z"/>
<path class="st8" d="M12.8,35.9c0.4,0,0.6,0.3,0.6,0.6c0,0.4-0.3,0.6-0.6,0.6c-0.4,0-0.6-0.3-0.6-0.6C12.1,36.2,12.4,35.9,12.8,35.9
	z"/>
<path class="st8" d="M5.6,35.9c0.4,0,0.6,0.3,0.6,0.6c0,0.4-0.3,0.6-0.6,0.6c-0.4,0-0.6-0.3-0.6-0.6C4.9,36.2,5.2,35.9,5.6,35.9z"/>
<circle class="st8" cx="23.6" cy="33" r="0.6"/>
<path class="st8" d="M16.4,32.3c0.4,0,0.6,0.3,0.6,0.6s-0.3,0.6-0.6,0.6s-0.6-0.3-0.6-0.6c0,0,0,0,0,0C15.7,32.6,16,32.3,16.4,32.3z
	"/>
<path class="st8" d="M9.2,32.3c0.4,0,0.6,0.3,0.6,0.6s-0.3,0.6-0.6,0.6c-0.4,0-0.6-0.3-0.6-0.6C8.5,32.6,8.8,32.3,9.2,32.3
	C9.2,32.3,9.2,32.3,9.2,32.3z"/>
<path class="st8" d="M2,32.3c0.4,0,0.6,0.3,0.6,0.6S2.3,33.6,2,33.6c-0.4,0-0.6-0.3-0.6-0.6C1.3,32.6,1.6,32.3,2,32.3
	C2,32.3,2,32.3,2,32.3z"/>
<path class="st8" d="M12.8,28.7c0.4,0,0.6,0.3,0.6,0.6c0,0.4-0.3,0.6-0.6,0.6s-0.6-0.3-0.6-0.6c0,0,0,0,0,0
	C12.1,29,12.4,28.7,12.8,28.7z"/>
<path class="st8" d="M16.4,25.1c0.4,0,0.6,0.3,0.6,0.6s-0.3,0.6-0.6,0.6s-0.6-0.3-0.6-0.6c0,0,0,0,0,0C15.7,25.4,16,25.1,16.4,25.1z
	"/>
<path class="st8" d="M9.2,25.1c0.4,0,0.6,0.3,0.6,0.6s-0.3,0.6-0.6,0.6s-0.6-0.3-0.6-0.6C8.5,25.4,8.8,25.1,9.2,25.1z"/>
<path class="st8" d="M5.6,21.5c0.4,0,0.6,0.3,0.6,0.6s-0.3,0.6-0.6,0.6s-0.6-0.3-0.6-0.6C4.9,21.8,5.2,21.5,5.6,21.5z"/>
<path class="st8" d="M12.8,21.5c0.4,0,0.6,0.3,0.6,0.6s-0.3,0.6-0.6,0.6s-0.6-0.3-0.6-0.6C12.1,21.8,12.4,21.5,12.8,21.5z"/>
<path class="st8" d="M20,21.5c0.4,0,0.6,0.3,0.6,0.6c0,0.4-0.3,0.6-0.6,0.6c-0.4,0-0.6-0.3-0.6-0.6C19.3,21.8,19.6,21.5,20,21.5z"/>
<path class="st8" d="M23.6,17.9c0.4,0,0.6,0.3,0.6,0.6c0,0.4-0.3,0.6-0.6,0.6c-0.4,0-0.6-0.3-0.6-0.6C22.9,18.2,23.2,17.9,23.6,17.9
	z"/>
<path class="st8" d="M16.4,17.9c0.4,0,0.6,0.3,0.6,0.6c0,0.4-0.3,0.6-0.6,0.6c-0.4,0-0.6-0.3-0.6-0.6C15.7,18.2,16,17.9,16.4,17.9z"
	/>
<path class="st8" d="M9.2,17.9c0.4,0,0.6,0.3,0.6,0.6c0,0.4-0.3,0.6-0.6,0.6c-0.4,0-0.6-0.3-0.6-0.6C8.5,18.2,8.8,17.9,9.2,17.9
	C9.2,17.9,9.2,17.9,9.2,17.9z"/>
<path class="st8" d="M2,17.9c0.4,0,0.6,0.3,0.6,0.6c0,0.4-0.3,0.6-0.6,0.6c-0.4,0-0.6-0.3-0.6-0.6C1.3,18.2,1.6,17.9,2,17.9
	C2,17.9,2,17.9,2,17.9z"/>
<path class="st8" d="M83.3,47.5c0.4,0,0.6,0.3,0.6,0.6s-0.3,0.6-0.6,0.6c-0.4,0-0.6-0.3-0.6-0.6c0,0,0,0,0,0
	C82.7,47.8,83,47.5,83.3,47.5z"/>
<path class="st8" d="M83.6,50c0.4,0,0.6,0.3,0.6,0.6c0,0.4-0.3,0.6-0.6,0.6c-0.4,0-0.6-0.3-0.6-0.6c0,0,0,0,0,0
	C83,50.2,83.3,50,83.6,50z"/>
<path class="st7" d="M181.8,38.9v1c0,0.1-0.1,0.2-0.2,0.2h0h-3.7c-0.1,0-0.2-0.1-0.2-0.2l0,0v-1c0-0.1,0.1-0.2,0.2-0.2h3.7
	C181.7,38.7,181.8,38.8,181.8,38.9C181.8,38.9,181.8,38.9,181.8,38.9z"/>
<path class="st7" d="M181.8,37v1c0,0.1-0.1,0.2-0.2,0.2h0h-3.7c-0.1,0-0.2-0.1-0.2-0.2v-1c0-0.1,0.1-0.2,0.2-0.2h3.7
	C181.7,36.8,181.8,36.9,181.8,37z"/>
<path class="st7" d="M181.8,35v1c0,0.1-0.1,0.2-0.2,0.2h0h-3.7c-0.1,0-0.2-0.1-0.2-0.2v-1c0-0.1,0.1-0.2,0.2-0.2h3.7
	C181.7,34.9,181.8,35,181.8,35C181.8,35,181.8,35,181.8,35z"/>
<path class="st7" d="M181.8,33.1v1c0,0.1-0.1,0.2-0.2,0.2h0h-3.7c-0.1,0-0.2-0.1-0.2-0.2l0,0v-1c0-0.1,0.1-0.2,0.2-0.2h3.7
	C181.7,33,181.8,33,181.8,33.1z"/>
<path class="st7" d="M181.8,31.2v1c0,0.1-0.1,0.2-0.2,0.2h0h-3.7c-0.1,0-0.2-0.1-0.2-0.2l0,0v-1c0-0.1,0.1-0.2,0.2-0.2l0,0h3.7
	C181.7,31.1,181.8,31.1,181.8,31.2z"/>
<line class="st9" x1="7.6" y1="38.7" x2="7.6" y2="41.1"/>
<line class="st9" x1="7.6" y1="47.1" x2="7.6" y2="49.5"/>
<rect x="4.8" y="39" class="st6" width="11.3" height="10.8"/>
<path class="st5" d="M10.4,39.7c2.6,0,4.7,2.1,4.7,4.7S13,49,10.4,49c-2.6,0-4.7-2.1-4.7-4.7C5.8,41.8,7.9,39.7,10.4,39.7z
	 M10.4,48.6c2.4,0,4.3-1.9,4.3-4.3s-1.9-4.3-4.3-4.3c-2.4,0-4.3,1.9-4.3,4.3C6.2,46.7,8.1,48.6,10.4,48.6L10.4,48.6z"/>
<path class="st5" d="M10.4,43.2c0.6,0,1.1,0.5,1.1,1.1c0,0.6-0.5,1.1-1.1,1.1c-0.6,0-1.1-0.5-1.1-1.1C9.3,43.7,9.8,43.2,10.4,43.2z"
	/>
<rect x="168" y="27.7" class="st5" width="2.4" height="2"/>
<rect x="159.3" y="27.7" class="st5" width="2.3" height="2"/>
<rect x="168" y="19.6" class="st5" width="2.4" height="2"/>
<rect x="159.3" y="19.6" class="st5" width="2.3" height="2"/>
<polyline class="st7" points="158.4,20.6 158.4,28.6 171.2,28.6 171.2,20.6 158.4,20.6 "/>
<polyline class="st5" points="162.2,24.6 162.2,24.4 162.3,24.1 162.4,23.8 162.5,23.5 162.6,23.3 162.8,23.1 163,22.8 163.2,22.7 
	163.4,22.5 163.6,22.3 163.9,22.2 164.2,22.1 164.4,22.1 164.7,22.1 165,22.1 165.3,22.1 165.6,22.2 165.8,22.3 166.1,22.4 
	166.3,22.6 166.5,22.7 166.7,22.9 166.9,23.2 167,23.4 167.2,23.7 167.3,23.9 167.3,24.2 167.4,24.5 167.4,24.8 167.3,25.1 
	167.3,25.3 167.2,25.6 167,25.8 166.9,26.1 166.7,26.3 166.5,26.5 166.3,26.7 166.1,26.9 165.8,27 165.6,27.1 165.3,27.1 165,27.2 
	164.7,27.2 164.4,27.2 164.2,27.1 163.9,27 163.6,26.9 163.4,26.8 163.2,26.6 163,26.4 162.8,26.2 162.6,26 162.5,25.7 162.4,25.5 
	162.3,25.2 162.2,24.9 162.2,24.6 "/>
<path class="st5" d="M174.3,42.7L174.3,42.7l-2.3,0v0c-0.6,0-1.1,0.5-1.1,1.1c0,0.6,0.5,1.1,1.1,1.1v0h2.3c0.6,0,1.1-0.5,1.1-1.1
	C175.4,43.2,174.9,42.7,174.3,42.7C174.3,42.7,174.3,42.7,174.3,42.7z"/>
<rect x="172.4" y="42.7" class="st10" width="1.6" height="2.2"/>
<rect x="172.4" y="42.7" class="st10" width="1.6" height="2.2"/>
<rect x="172.4" y="42.7" class="st10" width="1.6" height="2.2"/>
<rect x="172.4" y="42.7" class="st10" width="1.6" height="2.2"/>
<path class="st5" d="M174.3,42.7L174.3,42.7l-2.3,0v0c-0.6,0-1.1,0.5-1.1,1.1c0,0.6,0.5,1.1,1.1,1.1v0h2.3c0.6,0,1.1-0.5,1.1-1.1
	C175.4,43.2,174.9,42.7,174.3,42.7C174.3,42.7,174.3,42.7,174.3,42.7z"/>
<rect x="172.4" y="42.7" class="st10" width="1.6" height="2.2"/>
<rect x="172.4" y="42.7" class="st10" width="1.6" height="2.2"/>
<rect x="172.4" y="42.7" class="st10" width="1.6" height="2.2"/>
<rect x="172.4" y="42.7" class="st10" width="1.6" height="2.2"/>
<path class="st5" d="M174.3,47.3L174.3,47.3l-2.3,0v0c-0.6,0-1.1,0.5-1.1,1.1c0,0.6,0.5,1.1,1.1,1.1v0h2.3c0.6,0,1.1-0.5,1.1-1.1
	S174.9,47.3,174.3,47.3C174.3,47.3,174.3,47.3,174.3,47.3z"/>
<rect x="172.4" y="47.3" class="st10" width="1.6" height="2.2"/>
<rect x="172.4" y="47.3" class="st10" width="1.6" height="2.2"/>
<rect x="172.4" y="47.3" class="st10" width="1.6" height="2.2"/>
<rect x="172.4" y="47.3" class="st10" width="1.6" height="2.2"/>
<path class="st5" d="M21.6,43.3L21.6,43.3l-1.5,0v0c-0.4,0-0.7,0.3-0.7,0.7c0,0.4,0.3,0.7,0.7,0.7v0h1.5c0.4,0,0.7-0.3,0.7-0.7
	C22.3,43.7,22,43.3,21.6,43.3L21.6,43.3z"/>
<rect x="20.3" y="43.3" class="st10" width="1.1" height="1.4"/>
<rect x="20.3" y="43.3" class="st10" width="1.1" height="1.4"/>
<rect x="20.3" y="43.3" class="st10" width="1.1" height="1.4"/>
<rect x="20.3" y="43.3" class="st10" width="1.1" height="1.4"/>
<rect x="120.4" y="22.2" class="st10" width="4.2" height="9.3"/>
<rect x="120.4" y="31.1" class="st11" width="4.2" height="0.4"/>
<rect x="120.4" y="22.2" class="st11" width="4.2" height="0.4"/>
<rect x="89.8" y="43.2" class="st12" width="1.5" height="1.4"/>
<rect x="89.8" y="42.5" class="st13" width="1.5" height="0.8"/>
<rect x="89.8" y="44.6" class="st13" width="1.5" height="0.8"/>
<rect x="58.6" y="53.4" class="st12" width="1.4" height="1.5"/>
<rect x="59.9" y="53.4" class="st13" width="0.8" height="1.5"/>
<rect x="57.9" y="53.4" class="st13" width="0.8" height="1.5"/>
<rect x="52.6" y="53.7" class="st12" width="1.4" height="1.5"/>
<rect x="53.9" y="53.7" class="st13" width="0.8" height="1.5"/>
<rect x="51.9" y="53.7" class="st13" width="0.8" height="1.5"/>
<rect x="69.9" y="18.6" class="st12" width="1.4" height="1.5"/>
<rect x="71.2" y="18.6" class="st13" width="0.8" height="1.5"/>
<rect x="69.1" y="18.6" class="st13" width="0.8" height="1.5"/>
<rect x="52.5" y="18.3" class="st12" width="1.4" height="1.5"/>
<rect x="53.8" y="18.3" class="st13" width="0.8" height="1.5"/>
<rect x="51.7" y="18.3" class="st13" width="0.8" height="1.5"/>
<rect x="52.5" y="21.2" class="st12" width="1.4" height="1.5"/>
<rect x="53.8" y="21.2" class="st13" width="0.8" height="1.5"/>
<rect x="51.7" y="21.2" class="st13" width="0.8" height="1.5"/>
<rect x="59.8" y="30.3" class="st12" width="1.4" height="1.5"/>
<rect x="61.1" y="30.3" class="st13" width="0.8" height="1.5"/>
<rect x="59" y="30.3" class="st13" width="0.8" height="1.5"/>
<polygon class="st12" points="35.3,28.2 34.3,29.2 35.4,30.3 36.4,29.3 "/>
<polygon class="st13" points="35.8,27.7 35.2,28.3 36.3,29.4 36.8,28.8 "/>
<polygon class="st13" points="34.4,29.1 33.8,29.7 34.9,30.8 35.4,30.2 "/>
<polygon class="st12" points="52.6,35.8 51.6,36.8 52.7,37.9 53.6,36.9 "/>
<polygon class="st13" points="53.1,35.3 52.5,35.8 53.6,36.9 54.1,36.4 "/>
<polygon class="st13" points="51.6,36.7 51.1,37.3 52.2,38.4 52.7,37.8 "/>
<polygon class="st12" points="56.1,32.5 55.1,33.4 56.2,34.5 57.2,33.6 "/>
<polygon class="st13" points="56.6,32 56.1,32.5 57.1,33.6 57.7,33.1 "/>
<polygon class="st13" points="55.2,33.4 54.6,34 55.7,35 56.2,34.5 "/>
<rect x="69.8" y="20.9" class="st12" width="1.4" height="1.5"/>
<rect x="71.1" y="20.9" class="st13" width="0.8" height="1.5"/>
<rect x="69" y="20.9" class="st13" width="0.8" height="1.5"/>
<rect x="72.7" y="24.3" class="st12" width="1.4" height="1.5"/>
<rect x="74" y="24.3" class="st13" width="0.8" height="1.5"/>
<rect x="71.9" y="24.3" class="st13" width="0.8" height="1.5"/>
<rect x="72.6" y="27.2" class="st12" width="1.4" height="1.5"/>
<rect x="73.9" y="27.2" class="st13" width="0.8" height="1.5"/>
<rect x="71.9" y="27.2" class="st13" width="0.8" height="1.5"/>
<rect x="66.4" y="36.9" class="st12" width="1.4" height="1.5"/>
<rect x="67.8" y="36.9" class="st13" width="0.8" height="1.5"/>
<rect x="65.7" y="36.9" class="st13" width="0.8" height="1.5"/>
<rect x="90.3" y="17.4" class="st12" width="1.4" height="1.5"/>
<rect x="91.7" y="17.4" class="st13" width="0.8" height="1.5"/>
<rect x="89.6" y="17.4" class="st13" width="0.8" height="1.5"/>
<rect x="87.1" y="43.2" class="st12" width="1.5" height="1.4"/>
<rect x="87.1" y="42.5" class="st13" width="1.5" height="0.8"/>
<rect x="87.1" y="44.6" class="st13" width="1.5" height="0.8"/>
<rect x="77" y="40.1" class="st12" width="1.5" height="1.4"/>
<rect x="77" y="39.4" class="st13" width="1.5" height="0.8"/>
<rect x="77" y="41.4" class="st13" width="1.5" height="0.8"/>
<rect x="73.7" y="35.5" class="st12" width="1.5" height="1.4"/>
<rect x="73.7" y="34.8" class="st13" width="1.5" height="0.8"/>
<rect x="73.7" y="36.8" class="st13" width="1.5" height="0.8"/>
<rect x="71.4" y="35.5" class="st12" width="1.5" height="1.4"/>
<rect x="71.4" y="34.8" class="st13" width="1.5" height="0.8"/>
<rect x="71.4" y="36.8" class="st13" width="1.5" height="0.8"/>
<rect x="96.3" y="30.1" class="st12" width="1.5" height="1.4"/>
<rect x="96.3" y="29.5" class="st13" width="1.5" height="0.8"/>
<rect x="96.3" y="31.5" class="st13" width="1.5" height="0.8"/>
<rect x="62.4" y="38.4" class="st12" width="1.5" height="1.4"/>
<rect x="62.4" y="37.7" class="st13" width="1.5" height="0.8"/>
<rect x="62.4" y="39.8" class="st13" width="1.5" height="0.8"/>
<rect x="55.8" y="41.3" class="st12" width="1.5" height="1.4"/>
<rect x="55.8" y="40.6" class="st13" width="1.5" height="0.8"/>
<rect x="55.8" y="42.7" class="st13" width="1.5" height="0.8"/>
<polygon class="st12" points="59.6,37.9 58.6,38.9 59.6,40 60.6,39 "/>
<polygon class="st13" points="60.1,37.4 59.5,37.9 60.6,39 61.1,38.5 "/>
<polygon class="st13" points="58.6,38.9 58,39.4 59.1,40.5 59.7,40 "/>
<rect x="78.7" y="44.7" transform="matrix(0.7071 -0.7071 0.7071 0.7071 -10.691 72.6281)" class="st14" width="7.3" height="9.1"/>
<rect x="78.7" y="44.7" transform="matrix(0.7071 -0.7071 0.7071 0.7071 -10.691 72.6281)" class="st15" width="7.3" height="9.1"/>
<rect x="78.7" y="44.7" transform="matrix(0.7071 -0.7071 0.7071 0.7071 -10.691 72.6281)" class="st16" width="7.3" height="9.1"/>
<rect x="78.7" y="44.7" transform="matrix(0.7071 -0.7071 0.7071 0.7071 -10.691 72.6281)" class="st17" width="7.3" height="9.1"/>
<rect x="78.7" y="44.7" transform="matrix(0.7071 -0.7071 0.7071 0.7071 -10.691 72.6281)" class="st16" width="7.3" height="9.1"/>
<rect x="56.9" y="17.7" class="st10" width="8.6" height="8.2"/>
<rect x="56.9" y="17.7" class="st11" width="0.4" height="8.2"/>
<rect x="65.1" y="17.7" class="st11" width="0.4" height="8.2"/>
<rect x="181.8" y="52.3" class="st5" width="7.6" height="3"/>
<path class="st18" d="M187.9,53.8c0,1.3-1,2.3-2.3,2.3c-1.3,0-2.3-1-2.3-2.3c0-1.3,1-2.3,2.3-2.3C186.8,51.4,187.9,52.5,187.9,53.8z
	"/>
<rect x="136.7" y="61.5" class="st5" width="3" height="7.6"/>
<path class="st19" d="M138.3,63c1.3,0,2.3,1,2.3,2.3s-1,2.3-2.3,2.3c-1.3,0-2.3-1-2.3-2.3C135.9,64,137,63,138.3,63z"/>
<rect x="179.9" y="25" class="st11" width="16.4" height="21.4"/>
<polygon class="st5" points="181.5,25 179.9,25 179.9,25.1 179.9,46.4 179.9,46.4 181.5,46.4 181.5,46.4 181.5,46.4 "/>
<polygon class="st5" points="184.8,25 183.2,25 183.2,25.1 183.2,46.4 183.2,46.4 184.8,46.4 184.8,46.4 184.8,46.4 "/>
<polygon class="st5" points="188.1,25 186.4,25 186.4,25.1 186.4,46.4 186.4,46.4 188.1,46.4 188.1,46.4 188.1,46.4 "/>
<polygon class="st5" points="191.4,25 189.7,25 189.7,25.1 189.7,46.4 189.7,46.4 191.4,46.4 191.4,46.4 191.4,46.4 "/>
<polygon class="st5" points="194.6,25 193,25 193,25.1 193,46.4 193,46.4 194.6,46.4 194.6,46.4 194.6,46.4 "/>
<path class="st20" d="M5.3,61.4c-1.7,0-3.1,1.4-3.1,3.1c0,1.7,1.4,3.1,3.1,3.1c1.7,0,3.1-1.4,3.1-3.1c0,0,0,0,0,0
	C8.4,62.8,7,61.4,5.3,61.4z"/>
<path class="st5" d="M5.3,63.1c-0.8,0-1.4,0.6-1.4,1.4s0.6,1.4,1.4,1.4c0.8,0,1.4-0.6,1.4-1.4c0,0,0,0,0,0C6.7,63.7,6,63.1,5.3,63.1
	z"/>
<path class="st20" d="M5.3,3.3c-1.7,0-3.1,1.4-3.1,3.1s1.4,3.1,3.1,3.1c1.7,0,3.1-1.4,3.1-3.1c0,0,0,0,0,0C8.4,4.7,7,3.3,5.3,3.3z"
	/>
<path class="st5" d="M5.3,4.9c-0.8,0-1.4,0.6-1.4,1.4s0.6,1.4,1.4,1.4c0.8,0,1.4-0.6,1.4-1.4c0,0,0,0,0,0C6.7,5.6,6,4.9,5.3,4.9z"/>
<rect x="187" y="14.9" class="st5" width="3.4" height="3.4"/>
<rect x="180.8" y="14.9" class="st5" width="3.4" height="3.4"/>
<rect x="184.2" y="14.9" class="st16" width="2.8" height="3.4"/>
<rect x="184.2" y="14.9" class="st16" width="2.8" height="3.4"/>
<rect x="184.2" y="14.9" class="st16" width="2.8" height="3.4"/>
<polygon class="st10" points="188.1,18.3 189.8,16.6 188.1,14.9 188.1,14.9 187,14.9 187,18.3 "/>
<polygon class="st10" points="183.1,14.9 181.4,16.6 183.1,18.3 183.1,18.3 184.2,18.3 184.2,14.9 "/>
<polyline class="st16" points="126.4,50.6 126.4,30.8 126.4,30.8 145,30.8 145,30.8 146.3,32 146.3,32 146.3,50.6 146.3,50.6 
	126.4,50.6 126.4,50.6 "/>
<polyline class="st17" points="126.4,50.6 126.4,30.8 126.4,30.8 145,30.8 145,30.8 146.3,32 146.3,32 146.3,50.6 146.3,50.6 
	126.4,50.6 126.4,50.6 "/>
<polyline class="st16" points="126.4,50.6 126.4,30.8 126.4,30.8 145,30.8 145,30.8 146.3,32 146.3,32 146.3,50.6 146.3,50.6 
	126.4,50.6 126.4,50.6 "/>
<rect x="143.7" y="50" class="st5" width="1.2" height="1.2"/>
<rect x="142.3" y="50" class="st5" width="1.2" height="1.2"/>
<rect x="140.8" y="50" class="st5" width="1.2" height="1.2"/>
<rect x="139.4" y="50" class="st5" width="1.2" height="1.2"/>
<rect x="137.9" y="50" class="st5" width="1.2" height="1.2"/>
<rect x="136.5" y="50" class="st5" width="1.2" height="1.2"/>
<rect x="135" y="50" class="st5" width="1.2" height="1.2"/>
<rect x="133.6" y="50" class="st5" width="1.2" height="1.2"/>
<rect x="132.1" y="50" class="st5" width="1.2" height="1.2"/>
<rect x="130.7" y="50" class="st5" width="1.2" height="1.2"/>
<rect x="129.2" y="50" class="st5" width="1.2" height="1.2"/>
<rect x="127.8" y="50" class="st5" width="1.2" height="1.2"/>
<rect x="143.7" y="30.1" class="st5" width="1.2" height="1.2"/>
<rect x="142.3" y="30.1" class="st5" width="1.2" height="1.2"/>
<rect x="140.8" y="30.1" class="st5" width="1.2" height="1.2"/>
<rect x="139.4" y="30.1" class="st5" width="1.2" height="1.2"/>
<rect x="137.9" y="30.1" class="st5" width="1.2" height="1.2"/>
<rect x="136.5" y="30.1" class="st5" width="1.2" height="1.2"/>
<rect x="135" y="30.1" class="st5" width="1.2" height="1.2"/>
<rect x="133.6" y="30.1" class="st5" width="1.2" height="1.2"/>
<rect x="132.1" y="30.1" class="st5" width="1.2" height="1.2"/>
<rect x="130.7" y="30.1" class="st5" width="1.2" height="1.2"/>
<rect x="129.2" y="30.1" class="st5" width="1.2" height="1.2"/>
<rect x="127.8" y="30.1" class="st5" width="1.2" height="1.2"/>
<rect x="145.7" y="32.9" class="st5" width="1.2" height="1.2"/>
<rect x="145.7" y="34.3" class="st5" width="1.2" height="1.2"/>
<rect x="145.7" y="35.7" class="st5" width="1.2" height="1.2"/>
<rect x="145.7" y="37.2" class="st5" width="1.2" height="1.2"/>
<rect x="145.7" y="38.6" class="st5" width="1.2" height="1.2"/>
<rect x="145.7" y="40.1" class="st5" width="1.2" height="1.2"/>
<rect x="145.7" y="41.5" class="st5" width="1.2" height="1.2"/>
<rect x="145.7" y="43" class="st5" width="1.2" height="1.2"/>
<rect x="145.7" y="44.4" class="st5" width="1.2" height="1.2"/>
<rect x="145.7" y="45.9" class="st5" width="1.2" height="1.2"/>
<rect x="145.7" y="47.3" class="st5" width="1.2" height="1.2"/>
<rect x="125.8" y="32.9" class="st5" width="1.2" height="1.2"/>
<rect x="125.8" y="34.3" class="st5" width="1.2" height="1.2"/>
<rect x="125.8" y="35.7" class="st5" width="1.2" height="1.2"/>
<rect x="125.8" y="37.2" class="st5" width="1.2" height="1.2"/>
<rect x="125.8" y="38.6" class="st5" width="1.2" height="1.2"/>
<rect x="125.8" y="40.1" class="st5" width="1.2" height="1.2"/>
<rect x="125.8" y="41.5" class="st5" width="1.2" height="1.2"/>
<rect x="125.8" y="43" class="st5" width="1.2" height="1.2"/>
<rect x="125.8" y="44.4" class="st5" width="1.2" height="1.2"/>
<rect x="125.8" y="45.9" class="st5" width="1.2" height="1.2"/>
<rect x="125.8" y="47.3" class="st5" width="1.2" height="1.2"/>
<rect x="151.9" y="25.6" class="st5" width="3.4" height="3.4"/>
<rect x="151.9" y="31.8" class="st5" width="3.4" height="3.4"/>
<rect x="151.9" y="28.9" class="st16" width="3.4" height="2.8"/>
<rect x="151.9" y="28.9" class="st16" width="3.4" height="2.8"/>
<rect x="151.9" y="28.9" class="st16" width="3.4" height="2.8"/>
<polygon class="st10" points="155.3,27.9 153.6,26.2 151.9,27.9 152,27.9 152,28.9 155.3,28.9 "/>
<polygon class="st10" points="151.9,32.8 153.6,34.5 155.3,32.8 155.3,32.8 155.3,31.8 151.9,31.8 "/>
<rect x="136.2" y="16.9" class="st5" width="3.4" height="3.4"/>
<rect x="136.2" y="23.1" class="st5" width="3.4" height="3.4"/>
<rect x="136.2" y="20.3" class="st16" width="3.4" height="2.8"/>
<rect x="136.2" y="20.3" class="st16" width="3.4" height="2.8"/>
<rect x="136.2" y="20.3" class="st16" width="3.4" height="2.8"/>
<polygon class="st10" points="139.6,19.2 137.9,17.5 136.2,19.2 136.2,19.2 136.2,20.2 139.6,20.2 "/>
<polygon class="st10" points="136.2,24.2 137.9,25.8 139.6,24.2 139.6,24.2 139.6,23.1 136.2,23.1 "/>
<rect x="105.6" y="41" class="st5" width="2.3" height="2.3"/>
<rect x="109.8" y="41" class="st5" width="2.3" height="2.3"/>
<rect x="107.8" y="41" class="st16" width="1.9" height="2.3"/>
<rect x="107.8" y="41" class="st16" width="1.9" height="2.3"/>
<rect x="107.8" y="41" class="st16" width="1.9" height="2.3"/>
<polygon class="st10" points="107.1,41 106,42.1 107.1,43.3 107.1,43.3 107.8,43.3 107.8,41 "/>
<polygon class="st10" points="110.5,43.3 111.6,42.1 110.5,41 110.5,41 109.8,41 109.8,43.3 "/>
<rect x="133.9" y="3.2" class="st5" width="3.4" height="3.4"/>
<rect x="140.1" y="3.2" class="st5" width="3.4" height="3.4"/>
<rect x="137.2" y="3.2" class="st16" width="2.8" height="3.4"/>
<rect x="137.2" y="3.2" class="st16" width="2.8" height="3.4"/>
<rect x="137.2" y="3.2" class="st16" width="2.8" height="3.4"/>
<polygon class="st10" points="136.2,3.2 134.5,4.9 136.2,6.6 136.2,6.6 137.2,6.6 137.2,3.2 "/>
<polygon class="st10" points="141.1,6.6 142.8,4.9 141.1,3.2 141.1,3.2 140.1,3.2 140.1,6.6 "/>
<rect x="156.5" y="48.7" class="st5" width="0.9" height="2.4"/>
<rect x="156.5" y="44.6" class="st5" width="0.9" height="2.4"/>
<rect x="165.5" y="42.4" class="st5" width="0.9" height="6.8"/>
<rect x="166.4" y="42.4" class="st21" width="0.9" height="6.8"/>
<rect x="167.3" y="42.4" class="st5" width="0.9" height="6.8"/>
<rect x="156.5" y="40.5" class="st5" width="0.9" height="2.4"/>
<rect x="155.6" y="48.7" class="st22" width="0.9" height="2.4"/>
<rect x="155.6" y="44.6" class="st22" width="0.9" height="2.4"/>
<rect x="155.6" y="40.5" class="st22" width="0.9" height="2.4"/>
<rect x="154.7" y="48.7" class="st5" width="0.9" height="2.4"/>
<rect x="154.7" y="44.6" class="st5" width="0.9" height="2.4"/>
<rect x="154.7" y="40.5" class="st5" width="0.9" height="2.4"/>
<rect x="157.4" y="39.9" class="st16" width="8.1" height="11.8"/>
<rect x="157.4" y="39.9" class="st17" width="8.1" height="11.8"/>
<rect x="157.4" y="39.9" class="st16" width="8.1" height="11.8"/>
<rect x="138.4" y="7.3" class="st10" width="3.1" height="5.4"/>
<rect x="136.5" y="10.7" class="st7" width="1.9" height="1.9"/>
<rect x="141.5" y="9" class="st7" width="1.9" height="1.9"/>
<rect x="136.5" y="7.3" class="st7" width="1.9" height="1.9"/>
<rect x="137.9" y="11.2" class="st5" width="1" height="1"/>
<rect x="137.9" y="7.8" class="st5" width="1" height="1"/>
<rect x="141" y="9.5" class="st5" width="1" height="1"/>
<rect x="167.4" y="33.4" class="st16" width="7.5" height="4.9"/>
<rect x="167.4" y="33.4" class="st17" width="7.5" height="4.9"/>
<rect x="167.4" y="33.4" class="st16" width="7.5" height="4.9"/>
<rect x="173" y="30.6" class="st5" width="1.3" height="3.6"/>
<rect x="168.1" y="30.6" class="st5" width="1.3" height="3.6"/>
<rect x="173" y="37" class="st5" width="1.3" height="3.6"/>
<rect x="168.1" y="37" class="st5" width="1.3" height="3.6"/>
<rect x="117.5" y="35.1" class="st5" width="2.1" height="4.2"/>
<rect x="112.1" y="35.1" class="st5" width="2.1" height="4.2"/>
<path class="st10" d="M114,35.5c-0.4,0-0.8,0.4-0.8,0.8V38c0,0.4,0.4,0.8,0.8,0.8h0.2v-3.3H114z"/>
<path class="st10" d="M117.7,38.8c0.4,0,0.8-0.4,0.8-0.8v-1.6c0-0.4-0.4-0.8-0.8-0.8h-0.2v3.3L117.7,38.8z"/>
<rect x="114.2" y="35.5" class="st16" width="3.2" height="3.3"/>
<rect x="114.2" y="35.5" class="st17" width="3.2" height="3.3"/>
<rect x="114.2" y="35.5" class="st16" width="3.2" height="3.3"/>
<rect x="117.5" y="54.9" class="st5" width="2.1" height="4.2"/>
<rect x="112.1" y="54.9" class="st5" width="2.1" height="4.2"/>
<path class="st10" d="M114,55.4c-0.4,0-0.8,0.4-0.8,0.8v1.6c0,0.4,0.4,0.8,0.8,0.8h0.2v-3.3H114z"/>
<path class="st10" d="M117.7,58.7c0.4,0,0.8-0.4,0.8-0.8v-1.6c0-0.4-0.4-0.8-0.8-0.8h-0.2v3.3H117.7z"/>
<rect x="114.2" y="55.4" class="st16" width="3.2" height="3.3"/>
<rect x="114.2" y="55.4" class="st17" width="3.2" height="3.3"/>
<rect x="114.2" y="55.4" class="st16" width="3.2" height="3.3"/>
<rect x="163.7" y="62.6" class="st10" width="4.5" height="2.6"/>
<rect x="163.7" y="61" class="st7" width="1.6" height="1.6"/>
<rect x="165.2" y="65.2" class="st7" width="1.6" height="1.6"/>
<rect x="166.6" y="61" class="st7" width="1.6" height="1.6"/>
<rect x="164.1" y="62.2" class="st5" width="0.8" height="0.8"/>
<rect x="167" y="62.2" class="st5" width="0.8" height="0.8"/>
<rect x="165.6" y="64.8" class="st5" width="0.8" height="0.8"/>
<rect x="145.9" y="64.4" class="st10" width="4.5" height="2.6"/>
<rect x="145.9" y="62.8" class="st7" width="1.6" height="1.6"/>
<rect x="147.4" y="67" class="st7" width="1.6" height="1.6"/>
<rect x="148.8" y="62.8" class="st7" width="1.6" height="1.6"/>
<rect x="146.3" y="64" class="st5" width="0.8" height="0.8"/>
<rect x="149.2" y="64" class="st5" width="0.8" height="0.8"/>
<rect x="147.8" y="66.6" class="st5" width="0.8" height="0.8"/>
<polyline class="st16" points="78.1,36 78.1,21.9 78.1,21.9 92.3,21.9 92.3,36 92.3,36 78.1,36 78.1,36 "/>
<polyline class="st17" points="78.1,36 78.1,21.9 78.1,21.9 92.3,21.9 92.3,36 92.3,36 78.1,36 78.1,36 "/>
<polyline class="st16" points="78.1,36 78.1,21.9 78.1,21.9 92.3,21.9 92.3,36 92.3,36 78.1,36 78.1,36 "/>
<rect x="89.7" y="20.9" class="st5" width="0.9" height="1.9"/>
<rect x="88.3" y="20.9" class="st5" width="0.9" height="1.9"/>
<rect x="86.8" y="20.9" class="st5" width="0.9" height="1.9"/>
<rect x="85.4" y="20.9" class="st5" width="0.9" height="1.9"/>
<rect x="84" y="20.9" class="st5" width="0.9" height="1.9"/>
<rect x="82.6" y="20.9" class="st5" width="0.9" height="1.9"/>
<rect x="81.2" y="20.9" class="st5" width="0.9" height="1.9"/>
<rect x="79.8" y="20.9" class="st5" width="0.9" height="1.9"/>
<rect x="77.1" y="33.4" class="st5" width="1.9" height="0.9"/>
<rect x="77.1" y="32" class="st5" width="1.9" height="0.9"/>
<rect x="77.1" y="30.6" class="st5" width="1.9" height="0.9"/>
<rect x="77.1" y="29.2" class="st5" width="1.9" height="0.9"/>
<rect x="77.1" y="27.8" class="st5" width="1.9" height="0.9"/>
<rect x="77.1" y="26.3" class="st5" width="1.9" height="0.9"/>
<rect x="77.1" y="24.9" class="st5" width="1.9" height="0.9"/>
<rect x="77.1" y="23.5" class="st5" width="1.9" height="0.9"/>
<rect x="91.3" y="33.4" class="st5" width="1.9" height="0.9"/>
<rect x="91.3" y="32" class="st5" width="1.9" height="0.9"/>
<rect x="91.3" y="30.6" class="st5" width="1.9" height="0.9"/>
<rect x="91.3" y="29.2" class="st5" width="1.9" height="0.9"/>
<rect x="91.3" y="27.8" class="st5" width="1.9" height="0.9"/>
<rect x="91.3" y="26.3" class="st5" width="1.9" height="0.9"/>
<rect x="91.3" y="24.9" class="st5" width="1.9" height="0.9"/>
<rect x="91.3" y="23.5" class="st5" width="1.9" height="0.9"/>
<rect x="89.7" y="35" class="st5" width="0.9" height="1.9"/>
<rect x="88.3" y="35" class="st5" width="0.9" height="1.9"/>
<rect x="86.8" y="35" class="st5" width="0.9" height="1.9"/>
<rect x="85.4" y="35" class="st5" width="0.9" height="1.9"/>
<rect x="84" y="35" class="st5" width="0.9" height="1.9"/>
<rect x="82.6" y="35" class="st5" width="0.9" height="1.9"/>
<rect x="81.2" y="35" class="st5" width="0.9" height="1.9"/>
<rect x="79.8" y="35" class="st5" width="0.9" height="1.9"/>
<path class="st23" d="M113.2,47.8c-1.7,0-3.1,1.4-3.1,3.1s1.4,3.1,3.1,3.1c1.7,0,3.1-1.4,3.1-3.1c0,0,0,0,0,0
	C116.4,49.2,115,47.8,113.2,47.8z"/>
<path class="st5" d="M113.2,49.5c-0.8,0-1.4,0.6-1.4,1.4c0,0.8,0.6,1.4,1.4,1.4s1.4-0.6,1.4-1.4c0,0,0,0,0,0
	C114.7,50.1,114,49.5,113.2,49.5z"/>
<rect x="168.9" y="61.3" class="st16" width="6" height="6"/>
<rect x="168.9" y="61.3" class="st19" width="6" height="6"/>
<rect x="168.9" y="61.3" class="st16" width="6" height="6"/>
<path class="st5" d="M173.8,68.3c0.5,0,1-0.4,1-1c0,0,0,0,0,0h-2C172.8,67.8,173.3,68.3,173.8,68.3
	C173.8,68.3,173.8,68.3,173.8,68.3z"/>
<path class="st5" d="M171.8,68.3c0.5,0,1-0.4,1-1c0,0,0,0,0,0h-2C170.8,67.8,171.3,68.3,171.8,68.3
	C171.8,68.3,171.8,68.3,171.8,68.3z"/>
<path class="st5" d="M169.9,68.3c0.5,0,1-0.4,1-1c0,0,0,0,0,0h-2C168.9,67.8,169.3,68.3,169.9,68.3
	C169.9,68.3,169.9,68.3,169.9,68.3z"/>
<path class="st5" d="M169.9,60.4c-0.5,0-1,0.4-1,1c0,0,0,0,0,0h2C170.8,60.8,170.4,60.4,169.9,60.4
	C169.9,60.4,169.9,60.4,169.9,60.4z"/>
<path class="st5" d="M171.8,60.4c-0.5,0-1,0.4-1,1c0,0,0,0,0,0h2C172.8,60.8,172.4,60.4,171.8,60.4
	C171.8,60.4,171.8,60.4,171.8,60.4z"/>
<path class="st5" d="M173.8,60.4c-0.5,0-1,0.4-1,1c0,0,0,0,0,0h2C174.8,60.8,174.4,60.4,173.8,60.4
	C173.8,60.4,173.8,60.4,173.8,60.4z"/>
<rect x="158.6" y="54" class="st16" width="6" height="6"/>
<rect x="158.6" y="54" class="st19" width="6" height="6"/>
<rect x="158.6" y="54" class="st16" width="6" height="6"/>
<path class="st5" d="M165.6,55c0-0.5-0.4-1-1-1c0,0,0,0,0,0v2C165.1,56,165.6,55.5,165.6,55C165.6,55,165.6,55,165.6,55z"/>
<path class="st5" d="M165.6,57c0-0.5-0.4-1-1-1c0,0,0,0,0,0v2C165.1,57.9,165.6,57.5,165.6,57C165.6,57,165.6,57,165.6,57z"/>
<path class="st5" d="M165.6,58.9c0-0.5-0.4-1-1-1c0,0,0,0,0,0v2C165.1,59.9,165.6,59.5,165.6,58.9C165.6,58.9,165.6,58.9,165.6,58.9
	z"/>
<path class="st5" d="M157.7,58.9c0,0.5,0.4,1,1,1c0,0,0,0,0,0v-2C158.1,57.9,157.7,58.4,157.7,58.9
	C157.7,58.9,157.7,58.9,157.7,58.9z"/>
<path class="st5" d="M157.7,57c0,0.5,0.4,1,1,1c0,0,0,0,0,0v-2C158.1,56,157.7,56.4,157.7,57z"/>
<path class="st5" d="M157.7,55c0,0.5,0.4,1,1,1c0,0,0,0,0,0v-2C158.1,54,157.7,54.4,157.7,55C157.7,55,157.7,55,157.7,55z"/>
<rect x="145.8" y="3.2" class="st16" width="6" height="6"/>
<rect x="145.8" y="3.2" class="st19" width="6" height="6"/>
<rect x="145.8" y="3.2" class="st16" width="6" height="6"/>
<path class="st5" d="M152.7,4.2c0-0.5-0.4-1-1-1c0,0,0,0,0,0v2C152.3,5.2,152.7,4.7,152.7,4.2C152.7,4.2,152.7,4.2,152.7,4.2z"/>
<path class="st5" d="M152.7,6.2c0-0.5-0.4-1-1-1c0,0,0,0,0,0v2C152.3,7.2,152.7,6.7,152.7,6.2C152.7,6.2,152.7,6.2,152.7,6.2z"/>
<path class="st5" d="M152.7,8.2c0-0.5-0.4-1-1-1c0,0,0,0,0,0v2C152.3,9.1,152.7,8.7,152.7,8.2C152.7,8.2,152.7,8.2,152.7,8.2z"/>
<path class="st5" d="M144.8,8.2c0,0.5,0.4,1,1,1c0,0,0,0,0,0v-2C145.2,7.2,144.8,7.6,144.8,8.2C144.8,8.2,144.8,8.2,144.8,8.2z"/>
<path class="st5" d="M144.8,6.2c0,0.5,0.4,1,1,1c0,0,0,0,0,0v-2C145.2,5.2,144.8,5.6,144.8,6.2C144.8,6.2,144.8,6.2,144.8,6.2z"/>
<path class="st5" d="M144.8,4.2c0,0.5,0.4,1,1,1c0,0,0,0,0,0v-2C145.2,3.2,144.8,3.6,144.8,4.2L144.8,4.2z"/>
<rect x="145.8" y="10.6" class="st16" width="6" height="6"/>
<rect x="145.8" y="10.6" class="st19" width="6" height="6"/>
<rect x="145.8" y="10.6" class="st16" width="6" height="6"/>
<path class="st5" d="M152.7,11.6c0-0.5-0.4-1-1-1c0,0,0,0,0,0v2C152.3,12.6,152.7,12.2,152.7,11.6C152.7,11.6,152.7,11.6,152.7,11.6
	z"/>
<path class="st5" d="M152.7,13.6c0-0.5-0.4-1-1-1c0,0,0,0,0,0v2C152.3,14.6,152.7,14.2,152.7,13.6C152.7,13.6,152.7,13.6,152.7,13.6
	z"/>
<path class="st5" d="M152.7,15.6c0-0.5-0.4-1-1-1c0,0,0,0,0,0v2C152.3,16.6,152.7,16.1,152.7,15.6C152.7,15.6,152.7,15.6,152.7,15.6
	z"/>
<path class="st5" d="M144.8,15.6c0,0.5,0.4,1,1,1c0,0,0,0,0,0v-2C145.2,14.6,144.8,15,144.8,15.6C144.8,15.6,144.8,15.6,144.8,15.6z
	"/>
<path class="st5" d="M144.8,13.6c0,0.5,0.4,1,1,1c0,0,0,0,0,0v-2C145.2,12.6,144.8,13.1,144.8,13.6
	C144.8,13.6,144.8,13.6,144.8,13.6z"/>
<path class="st5" d="M144.8,11.6c0,0.5,0.4,1,1,1c0,0,0,0,0,0v-2C145.2,10.6,144.8,11.1,144.8,11.6
	C144.8,11.6,144.8,11.6,144.8,11.6z"/>
<rect x="150.4" y="55.7" class="st10" width="2.6" height="4.5"/>
<rect x="148.7" y="58.6" class="st7" width="1.6" height="1.6"/>
<rect x="153" y="57.2" class="st7" width="1.6" height="1.6"/>
<rect x="148.7" y="55.7" class="st7" width="1.6" height="1.6"/>
<rect x="150" y="59" class="st5" width="0.8" height="0.8"/>
<rect x="150" y="56.1" class="st5" width="0.8" height="0.8"/>
<rect x="152.6" y="57.6" class="st5" width="0.8" height="0.8"/>
<polyline class="st16" points="45.7,38.6 38.5,31.4 38.5,31.4 45.7,24.2 52.9,31.4 52.9,31.4 45.7,38.6 45.7,38.6 "/>
<polyline class="st17" points="45.7,38.6 38.5,31.4 38.5,31.4 45.7,24.2 52.9,31.4 52.9,31.4 45.7,38.6 45.7,38.6 "/>
<polyline class="st16" points="45.7,38.6 38.5,31.4 38.5,31.4 45.7,24.2 52.9,31.4 52.9,31.4 45.7,38.6 45.7,38.6 "/>
<rect x="45.9" y="24.8" transform="matrix(0.7071 -0.7071 0.7071 0.7071 -4.1782 40.5259)" class="st5" width="1.9" height="0.9"/>
<rect x="46.9" y="25.8" transform="matrix(0.7071 -0.7071 0.7071 0.7071 -4.5936 41.5287)" class="st5" width="1.9" height="0.9"/>
<rect x="47.9" y="26.8" transform="matrix(0.7071 -0.7071 0.7071 0.7071 -5.009 42.5315)" class="st5" width="1.9" height="0.9"/>
<rect x="48.9" y="27.8" transform="matrix(0.7071 -0.7071 0.7071 0.7071 -5.4244 43.5344)" class="st5" width="1.9" height="0.9"/>
<rect x="49.9" y="28.9" transform="matrix(0.7071 -0.7071 0.7071 0.7071 -5.8397 44.5371)" class="st5" width="1.9" height="0.9"/>
<rect x="50.9" y="29.9" transform="matrix(0.7071 -0.7071 0.7071 0.7071 -6.2551 45.5399)" class="st5" width="1.9" height="0.9"/>
<rect x="38.7" y="32" transform="matrix(0.7071 -0.7071 0.7071 0.7071 -11.3795 37.5431)" class="st5" width="1.9" height="0.9"/>
<rect x="39.7" y="33" transform="matrix(0.7071 -0.7071 0.7071 0.7071 -11.7949 38.5458)" class="st5" width="1.9" height="0.9"/>
<rect x="40.7" y="34" transform="matrix(0.7071 -0.7071 0.7071 0.7071 -12.2103 39.5487)" class="st5" width="1.9" height="0.9"/>
<rect x="41.7" y="35" transform="matrix(0.7071 -0.7071 0.7071 0.7071 -12.6257 40.5515)" class="st5" width="1.9" height="0.9"/>
<rect x="42.7" y="36.1" transform="matrix(0.7071 -0.7071 0.7071 0.7071 -13.041 41.5543)" class="st5" width="1.9" height="0.9"/>
<rect x="43.7" y="37.1" transform="matrix(0.7071 -0.7071 0.7071 0.7071 -13.4564 42.5571)" class="st5" width="1.9" height="0.9"/>
<rect x="51.4" y="31.6" transform="matrix(0.7071 -0.7071 0.7071 0.7071 -7.8017 46.1806)" class="st5" width="0.9" height="1.9"/>
<rect x="50.4" y="32.6" transform="matrix(0.7071 -0.7071 0.7071 0.7071 -8.8045 45.7653)" class="st5" width="0.9" height="1.9"/>
<rect x="49.4" y="33.6" transform="matrix(0.7071 -0.7071 0.7071 0.7071 -9.8073 45.3499)" class="st5" width="0.9" height="1.9"/>
<rect x="48.4" y="34.6" transform="matrix(0.7071 -0.7071 0.7071 0.7071 -10.8102 44.9345)" class="st5" width="0.9" height="1.9"/>
<rect x="47.4" y="35.6" transform="matrix(0.7071 -0.7071 0.7071 0.7071 -11.8129 44.5191)" class="st5" width="0.9" height="1.9"/>
<rect x="46.4" y="36.6" transform="matrix(0.7071 -0.7071 0.7071 0.7071 -12.8158 44.1037)" class="st5" width="0.9" height="1.9"/>
<rect x="44.2" y="24.4" transform="matrix(0.7071 -0.7071 0.7071 0.7071 -4.8189 38.9793)" class="st5" width="0.9" height="1.9"/>
<rect x="43.2" y="25.4" transform="matrix(0.7071 -0.7071 0.7071 0.7071 -5.8217 38.564)" class="st5" width="0.9" height="1.9"/>
<rect x="42.2" y="26.4" transform="matrix(0.7071 -0.7071 0.7071 0.7071 -6.8245 38.1486)" class="st5" width="0.9" height="1.9"/>
<rect x="41.2" y="27.4" transform="matrix(0.7071 -0.7071 0.7071 0.7071 -7.8273 37.7332)" class="st5" width="0.9" height="1.9"/>
<rect x="40.2" y="28.4" transform="matrix(0.7071 -0.7071 0.7071 0.7071 -8.8301 37.3178)" class="st5" width="0.9" height="1.9"/>
<rect x="39.2" y="29.4" transform="matrix(0.7071 -0.7071 0.7071 0.7071 -9.8329 36.9025)" class="st5" width="0.9" height="1.9"/>
<rect x="118.2" y="3.1" class="st16" width="7.2" height="7.2"/>
<path class="st16" d="M118.2,10.3V3.1H111v7.2H118.2z"/>
<path class="st16" d="M111,10.3V3.1h-7.2v7.2H111z"/>
<path class="st16" d="M103.8,10.3V3.1h-7.2v7.2H103.8z"/>
<path class="st16" d="M132.6,10.3V3.1h-7.2v7.2H132.6z"/>
<path class="st16" d="M89.5,10.3V3.1h-7.2v7.2H89.5z"/>
<path class="st16" d="M96.7,10.3V3.1h-7.2v7.2H96.7z"/>
<path class="st16" d="M82.3,10.3V3.1h-7.2v7.2H82.3z"/>
<path class="st16" d="M67.9,10.3V3.1h-7.2v7.2H67.9z"/>
<path class="st16" d="M75.1,10.3V3.1h-7.2v7.2H75.1z"/>
<rect x="118.2" y="3.1" class="st17" width="7.2" height="7.2"/>
<path class="st17" d="M118.2,10.3V3.1H111v7.2H118.2z"/>
<path class="st17" d="M111,10.3V3.1h-7.2v7.2H111z"/>
<path class="st17" d="M103.8,10.3V3.1h-7.2v7.2H103.8z"/>
<path class="st17" d="M132.6,10.3V3.1h-7.2v7.2H132.6z"/>
<path class="st17" d="M89.5,10.3V3.1h-7.2v7.2H89.5z"/>
<path class="st17" d="M96.7,10.3V3.1h-7.2v7.2H96.7z"/>
<path class="st17" d="M82.3,10.3V3.1h-7.2v7.2H82.3z"/>
<path class="st17" d="M67.9,10.3V3.1h-7.2v7.2H67.9z"/>
<path class="st17" d="M75.1,10.3V3.1h-7.2v7.2H75.1z"/>
<rect x="118.2" y="3.1" class="st16" width="7.2" height="7.2"/>
<path class="st16" d="M118.2,10.3V3.1H111v7.2H118.2z"/>
<path class="st16" d="M111,10.3V3.1h-7.2v7.2H111z"/>
<path class="st16" d="M103.8,10.3V3.1h-7.2v7.2H103.8z"/>
<path class="st16" d="M132.6,10.3V3.1h-7.2v7.2H132.6z"/>
<path class="st16" d="M89.5,10.3V3.1h-7.2v7.2H89.5z"/>
<path class="st16" d="M96.7,10.3V3.1h-7.2v7.2H96.7z"/>
<path class="st16" d="M82.3,10.3V3.1h-7.2v7.2H82.3z"/>
<path class="st16" d="M67.9,10.3V3.1h-7.2v7.2H67.9z"/>
<path class="st16" d="M75.1,10.3V3.1h-7.2v7.2H75.1z"/>
<polygon class="st10" points="112.8,8.5 116.4,8.5 116.4,8.5 116.4,4.9 116.4,4.9 112.8,4.9 112.8,4.9 112.8,4.9 "/>
<polygon class="st10" points="120,8.5 123.6,8.5 123.6,8.5 123.6,4.9 123.6,4.9 120,4.9 120,4.9 120,4.9 "/>
<polygon class="st10" points="127.2,8.5 130.8,8.5 130.8,8.5 130.8,4.9 130.8,4.9 127.2,4.9 127.2,4.9 127.2,4.9 "/>
<polygon class="st10" points="84.1,8.5 87.7,8.5 87.7,8.5 87.7,4.9 87.7,4.9 84.1,4.9 84.1,4.9 84.1,4.9 "/>
<polygon class="st10" points="66.1,8.5 66.1,4.9 66.1,4.9 62.5,4.9 62.5,4.9 62.5,8.5 62.5,8.5 62.5,8.5 "/>
<polygon class="st10" points="80.5,8.5 80.5,4.9 80.5,4.9 76.9,4.9 76.9,4.9 76.9,8.5 76.9,8.5 76.9,8.5 "/>
<polygon class="st10" points="94.9,8.5 94.9,4.9 94.9,4.9 91.3,4.9 91.3,4.9 91.3,8.5 91.3,8.5 91.3,8.5 "/>
<polygon class="st10" points="102,8.5 102,4.9 102,4.9 98.4,4.9 98.4,4.9 98.4,8.5 98.4,8.5 98.4,8.5 "/>
<polygon class="st10" points="109.2,8.5 109.2,4.9 109.2,4.9 105.6,4.9 105.6,4.9 105.6,8.5 105.6,8.5 105.6,8.5 "/>
<polygon class="st10" points="73.3,8.5 73.3,4.9 73.3,4.9 69.7,4.9 69.7,4.9 69.7,8.5 69.7,8.5 69.7,8.5 "/>
<rect x="46.3" y="3.1" class="st16" width="7.2" height="7.2"/>
<path class="st16" d="M46.3,10.3V3.1h-7.2v7.2H46.3z"/>
<path class="st16" d="M39.1,10.3V3.1h-7.2v7.2H39.1z"/>
<path class="st16" d="M60.7,10.3V3.1h-7.2v7.2H60.7z"/>
<rect x="46.3" y="3.1" class="st17" width="7.2" height="7.2"/>
<path class="st17" d="M46.3,10.3V3.1h-7.2v7.2H46.3z"/>
<path class="st17" d="M39.1,10.3V3.1h-7.2v7.2H39.1z"/>
<path class="st17" d="M60.7,10.3V3.1h-7.2v7.2H60.7z"/>
<rect x="46.3" y="3.1" class="st16" width="7.2" height="7.2"/>
<path class="st16" d="M46.3,10.3V3.1h-7.2v7.2H46.3z"/>
<path class="st16" d="M39.1,10.3V3.1h-7.2v7.2H39.1z"/>
<path class="st16" d="M60.7,10.3V3.1h-7.2v7.2H60.7z"/>
<polygon class="st10" points="40.9,8.5 44.5,8.5 44.5,8.5 44.5,4.9 44.5,4.9 40.9,4.9 40.9,4.9 40.9,4.9 "/>
<polygon class="st10" points="48.1,8.5 51.7,8.5 51.7,8.5 51.7,4.9 51.7,4.9 48.1,4.9 48.1,4.9 48.1,4.9 "/>
<polygon class="st10" points="55.3,8.5 58.9,8.5 58.9,8.5 58.9,4.9 58.9,4.9 55.3,4.9 55.3,4.9 55.3,4.9 "/>
<polygon class="st10" points="37.3,8.5 37.3,4.9 37.3,4.9 33.7,4.9 33.7,4.9 33.7,8.5 33.7,8.5 33.7,8.5 "/>
<rect x="118.2" y="60.4" class="st16" width="7.2" height="7.2"/>
<rect x="118.2" y="60.4" class="st17" width="7.2" height="7.2"/>
<rect x="118.2" y="60.4" class="st16" width="7.2" height="7.2"/>
<path class="st16" d="M118.2,67.6v-7.2H111v7.2H118.2z"/>
<path class="st17" d="M118.2,67.6v-7.2H111v7.2H118.2z"/>
<path class="st16" d="M118.2,67.6v-7.2H111v7.2H118.2z"/>
<path class="st16" d="M111,67.6v-7.2h-7.2v7.2H111z"/>
<path class="st17" d="M111,67.6v-7.2h-7.2v7.2H111z"/>
<path class="st16" d="M111,67.6v-7.2h-7.2v7.2H111z"/>
<path class="st16" d="M103.8,67.6v-7.2h-7.2v7.2H103.8z"/>
<path class="st17" d="M103.8,67.6v-7.2h-7.2v7.2H103.8z"/>
<path class="st16" d="M103.8,67.6v-7.2h-7.2v7.2H103.8z"/>
<path class="st16" d="M132.6,67.6v-7.2h-7.2v7.2H132.6z"/>
<path class="st17" d="M132.6,67.6v-7.2h-7.2v7.2H132.6z"/>
<path class="st16" d="M132.6,67.6v-7.2h-7.2v7.2H132.6z"/>
<path class="st16" d="M89.5,67.6v-7.2h-7.2v7.2H89.5z"/>
<path class="st17" d="M89.5,67.6v-7.2h-7.2v7.2H89.5z"/>
<path class="st16" d="M89.5,67.6v-7.2h-7.2v7.2H89.5z"/>
<path class="st16" d="M96.7,67.6v-7.2h-7.2v7.2H96.7z"/>
<path class="st17" d="M96.7,67.6v-7.2h-7.2v7.2H96.7z"/>
<path class="st16" d="M96.7,67.6v-7.2h-7.2v7.2H96.7z"/>
<path class="st16" d="M82.3,67.6v-7.2h-7.2v7.2H82.3z"/>
<path class="st17" d="M82.3,67.6v-7.2h-7.2v7.2H82.3z"/>
<path class="st16" d="M82.3,67.6v-7.2h-7.2v7.2H82.3z"/>
<path class="st16" d="M67.9,67.6v-7.2h-7.2v7.2H67.9z"/>
<path class="st17" d="M67.9,67.6v-7.2h-7.2v7.2H67.9z"/>
<path class="st16" d="M67.9,67.6v-7.2h-7.2v7.2H67.9z"/>
<path class="st16" d="M75.1,67.6v-7.2h-7.2v7.2H75.1z"/>
<path class="st17" d="M75.1,67.6v-7.2h-7.2v7.2H75.1z"/>
<path class="st16" d="M75.1,67.6v-7.2h-7.2v7.2H75.1z"/>
<rect x="118.2" y="60.4" class="st16" width="7.2" height="7.2"/>
<rect x="118.2" y="60.4" class="st17" width="7.2" height="7.2"/>
<rect x="118.2" y="60.4" class="st16" width="7.2" height="7.2"/>
<path class="st16" d="M118.2,67.6v-7.2H111v7.2H118.2z"/>
<path class="st17" d="M118.2,67.6v-7.2H111v7.2H118.2z"/>
<path class="st16" d="M118.2,67.6v-7.2H111v7.2H118.2z"/>
<path class="st16" d="M111,67.6v-7.2h-7.2v7.2H111z"/>
<path class="st17" d="M111,67.6v-7.2h-7.2v7.2H111z"/>
<path class="st16" d="M111,67.6v-7.2h-7.2v7.2H111z"/>
<path class="st16" d="M103.8,67.6v-7.2h-7.2v7.2H103.8z"/>
<path class="st17" d="M103.8,67.6v-7.2h-7.2v7.2H103.8z"/>
<path class="st16" d="M103.8,67.6v-7.2h-7.2v7.2H103.8z"/>
<path class="st16" d="M132.6,67.6v-7.2h-7.2v7.2H132.6z"/>
<path class="st17" d="M132.6,67.6v-7.2h-7.2v7.2H132.6z"/>
<path class="st16" d="M132.6,67.6v-7.2h-7.2v7.2H132.6z"/>
<path class="st16" d="M89.5,67.6v-7.2h-7.2v7.2H89.5z"/>
<path class="st17" d="M89.5,67.6v-7.2h-7.2v7.2H89.5z"/>
<path class="st16" d="M89.5,67.6v-7.2h-7.2v7.2H89.5z"/>
<path class="st16" d="M96.7,67.6v-7.2h-7.2v7.2H96.7z"/>
<path class="st17" d="M96.7,67.6v-7.2h-7.2v7.2H96.7z"/>
<path class="st16" d="M96.7,67.6v-7.2h-7.2v7.2H96.7z"/>
<path class="st16" d="M82.3,67.6v-7.2h-7.2v7.2H82.3z"/>
<path class="st17" d="M82.3,67.6v-7.2h-7.2v7.2H82.3z"/>
<path class="st16" d="M82.3,67.6v-7.2h-7.2v7.2H82.3z"/>
<path class="st16" d="M67.9,67.6v-7.2h-7.2v7.2H67.9z"/>
<path class="st17" d="M67.9,67.6v-7.2h-7.2v7.2H67.9z"/>
<path class="st16" d="M67.9,67.6v-7.2h-7.2v7.2H67.9z"/>
<path class="st16" d="M75.1,67.6v-7.2h-7.2v7.2H75.1z"/>
<path class="st17" d="M75.1,67.6v-7.2h-7.2v7.2H75.1z"/>
<path class="st16" d="M75.1,67.6v-7.2h-7.2v7.2H75.1z"/>
<rect x="118.2" y="60.4" class="st16" width="7.2" height="7.2"/>
<rect x="118.2" y="60.4" class="st17" width="7.2" height="7.2"/>
<rect x="118.2" y="60.4" class="st16" width="7.2" height="7.2"/>
<path class="st16" d="M118.2,67.6v-7.2H111v7.2H118.2z"/>
<path class="st17" d="M118.2,67.6v-7.2H111v7.2H118.2z"/>
<path class="st16" d="M118.2,67.6v-7.2H111v7.2H118.2z"/>
<path class="st16" d="M111,67.6v-7.2h-7.2v7.2H111z"/>
<path class="st17" d="M111,67.6v-7.2h-7.2v7.2H111z"/>
<path class="st16" d="M111,67.6v-7.2h-7.2v7.2H111z"/>
<path class="st16" d="M103.8,67.6v-7.2h-7.2v7.2H103.8z"/>
<path class="st17" d="M103.8,67.6v-7.2h-7.2v7.2H103.8z"/>
<path class="st16" d="M103.8,67.6v-7.2h-7.2v7.2H103.8z"/>
<path class="st16" d="M132.6,67.6v-7.2h-7.2v7.2H132.6z"/>
<path class="st17" d="M132.6,67.6v-7.2h-7.2v7.2H132.6z"/>
<path class="st16" d="M132.6,67.6v-7.2h-7.2v7.2H132.6z"/>
<path class="st16" d="M89.5,67.6v-7.2h-7.2v7.2H89.5z"/>
<path class="st17" d="M89.5,67.6v-7.2h-7.2v7.2H89.5z"/>
<path class="st16" d="M89.5,67.6v-7.2h-7.2v7.2H89.5z"/>
<path class="st16" d="M96.7,67.6v-7.2h-7.2v7.2H96.7z"/>
<path class="st17" d="M96.7,67.6v-7.2h-7.2v7.2H96.7z"/>
<path class="st16" d="M96.7,67.6v-7.2h-7.2v7.2H96.7z"/>
<path class="st16" d="M82.3,67.6v-7.2h-7.2v7.2H82.3z"/>
<path class="st17" d="M82.3,67.6v-7.2h-7.2v7.2H82.3z"/>
<path class="st16" d="M82.3,67.6v-7.2h-7.2v7.2H82.3z"/>
<path class="st16" d="M67.9,67.6v-7.2h-7.2v7.2H67.9z"/>
<path class="st17" d="M67.9,67.6v-7.2h-7.2v7.2H67.9z"/>
<path class="st16" d="M67.9,67.6v-7.2h-7.2v7.2H67.9z"/>
<path class="st16" d="M75.1,67.6v-7.2h-7.2v7.2H75.1z"/>
<path class="st17" d="M75.1,67.6v-7.2h-7.2v7.2H75.1z"/>
<path class="st16" d="M75.1,67.6v-7.2h-7.2v7.2H75.1z"/>
<polygon class="st10" points="112.8,65.8 116.4,65.8 116.4,65.8 116.4,62.2 116.4,62.2 112.8,62.2 112.8,62.2 112.8,62.2 "/>
<polygon class="st10" points="120,65.8 123.6,65.8 123.6,65.8 123.6,62.2 123.6,62.2 120,62.2 120,62.2 120,62.2 "/>
<polygon class="st10" points="127.2,65.8 130.8,65.8 130.8,65.8 130.8,62.2 130.8,62.2 127.2,62.2 127.2,62.2 127.2,62.2 "/>
<polygon class="st10" points="84.1,65.8 87.7,65.8 87.7,65.8 87.7,62.2 87.7,62.2 84.1,62.2 84.1,62.2 84.1,62.2 "/>
<polygon class="st10" points="66.1,65.8 66.1,62.2 66.1,62.2 62.5,62.2 62.5,62.2 62.5,65.8 62.5,65.8 62.5,65.8 "/>
<polygon class="st10" points="80.5,65.8 80.5,62.2 80.5,62.2 76.9,62.2 76.9,62.2 76.9,65.8 76.9,65.8 76.9,65.8 "/>
<polygon class="st10" points="94.9,65.8 94.9,62.2 94.9,62.2 91.3,62.2 91.3,62.2 91.3,65.8 91.3,65.8 91.3,65.8 "/>
<polygon class="st10" points="102,65.8 102,62.2 102,62.2 98.4,62.2 98.4,62.2 98.4,65.8 98.4,65.8 98.4,65.8 "/>
<polygon class="st10" points="109.2,65.8 109.2,62.2 109.2,62.2 105.6,62.2 105.6,62.2 105.6,65.8 105.6,65.8 105.6,65.8 "/>
<polygon class="st10" points="73.3,65.8 73.3,62.2 73.3,62.2 69.7,62.2 69.7,62.2 69.7,65.8 69.7,65.8 69.7,65.8 "/>
<rect x="46.3" y="60.4" class="st16" width="7.2" height="7.2"/>
<rect x="46.3" y="60.4" class="st17" width="7.2" height="7.2"/>
<rect x="46.3" y="60.4" class="st16" width="7.2" height="7.2"/>
<path class="st16" d="M46.3,67.6v-7.2h-7.2v7.2H46.3z"/>
<path class="st17" d="M46.3,67.6v-7.2h-7.2v7.2H46.3z"/>
<path class="st16" d="M46.3,67.6v-7.2h-7.2v7.2H46.3z"/>
<path class="st16" d="M39.1,67.6v-7.2h-7.2v7.2H39.1z"/>
<path class="st17" d="M39.1,67.6v-7.2h-7.2v7.2H39.1z"/>
<path class="st16" d="M39.1,67.6v-7.2h-7.2v7.2H39.1z"/>
<path class="st16" d="M60.7,67.6v-7.2h-7.2v7.2H60.7z"/>
<path class="st17" d="M60.7,67.6v-7.2h-7.2v7.2H60.7z"/>
<path class="st16" d="M60.7,67.6v-7.2h-7.2v7.2H60.7z"/>
<rect x="46.3" y="60.4" class="st16" width="7.2" height="7.2"/>
<rect x="46.3" y="60.4" class="st17" width="7.2" height="7.2"/>
<rect x="46.3" y="60.4" class="st16" width="7.2" height="7.2"/>
<path class="st16" d="M46.3,67.6v-7.2h-7.2v7.2H46.3z"/>
<path class="st17" d="M46.3,67.6v-7.2h-7.2v7.2H46.3z"/>
<path class="st16" d="M46.3,67.6v-7.2h-7.2v7.2H46.3z"/>
<path class="st16" d="M39.1,67.6v-7.2h-7.2v7.2H39.1z"/>
<path class="st17" d="M39.1,67.6v-7.2h-7.2v7.2H39.1z"/>
<path class="st16" d="M39.1,67.6v-7.2h-7.2v7.2H39.1z"/>
<path class="st16" d="M60.7,67.6v-7.2h-7.2v7.2H60.7z"/>
<path class="st17" d="M60.7,67.6v-7.2h-7.2v7.2H60.7z"/>
<path class="st16" d="M60.7,67.6v-7.2h-7.2v7.2H60.7z"/>
<rect x="46.3" y="60.4" class="st16" width="7.2" height="7.2"/>
<rect x="46.3" y="60.4" class="st17" width="7.2" height="7.2"/>
<rect x="46.3" y="60.4" class="st16" width="7.2" height="7.2"/>
<path class="st16" d="M46.3,67.6v-7.2h-7.2v7.2H46.3z"/>
<path class="st17" d="M46.3,67.6v-7.2h-7.2v7.2H46.3z"/>
<path class="st16" d="M46.3,67.6v-7.2h-7.2v7.2H46.3z"/>
<path class="st16" d="M39.1,67.6v-7.2h-7.2v7.2H39.1z"/>
<path class="st17" d="M39.1,67.6v-7.2h-7.2v7.2H39.1z"/>
<path class="st16" d="M39.1,67.6v-7.2h-7.2v7.2H39.1z"/>
<path class="st16" d="M60.7,67.6v-7.2h-7.2v7.2H60.7z"/>
<path class="st17" d="M60.7,67.6v-7.2h-7.2v7.2H60.7z"/>
<path class="st16" d="M60.7,67.6v-7.2h-7.2v7.2H60.7z"/>
<polygon class="st10" points="40.9,65.8 44.5,65.8 44.5,65.8 44.5,62.2 44.5,62.2 40.9,62.2 40.9,62.2 40.9,62.2 "/>
<polygon class="st10" points="48.1,65.8 51.7,65.8 51.7,65.8 51.7,62.2 51.7,62.2 48.1,62.2 48.1,62.2 48.1,62.2 "/>
<polygon class="st10" points="55.3,65.8 58.9,65.8 58.9,65.8 58.9,62.2 58.9,62.2 55.3,62.2 55.3,62.2 55.3,62.2 "/>
<polygon class="st10" points="37.3,65.8 37.3,62.2 37.3,62.2 33.7,62.2 33.7,62.2 33.7,65.8 33.7,65.8 33.7,65.8 "/>
<g id="Artwork_3">
	<path class="st5" d="M132.7,22.4v-1.6c0,0,0,0,0,0h1.6c0,0,0,0,0,0v1.6c0,0,0,0,0,0c0,0,0,0,0,0h-0.1V22h-1.4v0.4L132.7,22.4
		C132.7,22.4,132.7,22.4,132.7,22.4z"/>
	<path class="st5" d="M132.7,24.3v-1.6c0,0,0,0,0,0h0.1V23h1.4v-0.5h0.1c0,0,0,0,0,0v1.6c0,0,0,0,0,0L132.7,24.3
		C132.7,24.3,132.7,24.3,132.7,24.3z"/>
	<path class="st7" d="M132.8,23.2V23h1.4v0.2c0,0.4-0.3,0.7-0.7,0.7C133.1,23.9,132.8,23.6,132.8,23.2
		C132.8,23.2,132.8,23.2,132.8,23.2z"/>
	<path class="st7" d="M132.8,22v-0.2c0-0.4,0.3-0.7,0.7-0.7c0.4,0,0.7,0.3,0.7,0.7V22H132.8z"/>
</g>
<rect x="132.8" y="22" class="st19" width="1.4" height="1"/>
<rect x="132.8" y="22" class="st17" width="1.4" height="1"/>
<rect x="132.8" y="22" class="st16" width="1.4" height="1"/>
<g id="Artwork_3-2">
	<path class="st5" d="M131,13.3v-1.6c0,0,0,0,0,0h1.6c0,0,0,0,0,0v1.6c0,0,0,0,0,0c0,0,0,0,0,0h-0.1v-0.4h-1.4v0.4L131,13.3
		C131,13.3,131,13.3,131,13.3z"/>
	<path class="st5" d="M131,15.1v-1.6c0,0,0,0,0,0h0.1v0.5h1.4v-0.5h0.1c0,0,0,0,0,0v1.6c0,0,0,0,0,0L131,15.1
		C131,15.2,131,15.2,131,15.1z"/>
	<path class="st7" d="M131.2,14.1v-0.2h1.4v0.2c0,0.4-0.3,0.7-0.7,0.7C131.5,14.8,131.2,14.5,131.2,14.1
		C131.2,14.1,131.2,14.1,131.2,14.1z"/>
	<path class="st7" d="M131.2,12.9v-0.2c0-0.4,0.3-0.7,0.7-0.7c0.4,0,0.7,0.3,0.7,0.7v0.2H131.2z"/>
</g>
<rect x="131.2" y="12.9" class="st19" width="1.4" height="1"/>
<rect x="131.2" y="12.9" class="st17" width="1.4" height="1"/>
<rect x="131.2" y="12.9" class="st16" width="1.4" height="1"/>
<g id="Artwork_3-3">
	<path class="st5" d="M117.7,18.1v-1.6c0,0,0,0,0,0h1.6c0,0,0,0,0,0v1.6c0,0,0,0,0,0c0,0,0,0,0,0h-0.1v-0.4h-1.4v0.4L117.7,18.1
		C117.7,18.1,117.7,18.1,117.7,18.1z"/>
	<path class="st5" d="M117.7,20v-1.6c0,0,0,0,0,0h0.1v0.5h1.4v-0.5h0.1c0,0,0,0,0,0V20c0,0,0,0,0,0L117.7,20
		C117.7,20,117.7,20,117.7,20z"/>
	<path class="st7" d="M117.8,18.9v-0.2h1.4v0.2c0,0.4-0.3,0.7-0.7,0.7C118.1,19.6,117.8,19.3,117.8,18.9
		C117.8,18.9,117.8,18.9,117.8,18.9z"/>
	<path class="st7" d="M117.8,17.7v-0.2c0-0.4,0.3-0.7,0.7-0.7c0.4,0,0.7,0.3,0.7,0.7v0.2H117.8z"/>
</g>
<rect x="117.8" y="17.7" class="st19" width="1.4" height="1"/>
<rect x="117.8" y="17.7" class="st17" width="1.4" height="1"/>
<rect x="117.8" y="17.7" class="st16" width="1.4" height="1"/>
<g id="Artwork_3-4">
	<path class="st5" d="M114.9,20.6v-1.6c0,0,0,0,0,0h1.6c0,0,0,0,0,0v1.6c0,0,0,0,0,0c0,0,0,0,0,0h-0.1v-0.4h-1.4v0.4L114.9,20.6
		C115,20.6,114.9,20.6,114.9,20.6z"/>
	<path class="st5" d="M114.9,22.4v-1.6c0,0,0,0,0,0h0.1v0.5h1.4v-0.5h0.1c0,0,0,0,0,0v1.6c0,0,0,0,0,0L114.9,22.4
		C115,22.4,114.9,22.4,114.9,22.4z"/>
	<path class="st7" d="M115.1,21.4v-0.2h1.4v0.2c0,0.4-0.3,0.7-0.7,0.7C115.4,22.1,115.1,21.7,115.1,21.4
		C115.1,21.4,115.1,21.4,115.1,21.4z"/>
	<path class="st7" d="M115.1,20.2v-0.2c0-0.4,0.3-0.7,0.7-0.7c0.4,0,0.7,0.3,0.7,0.7v0.2H115.1z"/>
</g>
<rect x="115.1" y="20.2" class="st19" width="1.4" height="1"/>
<rect x="115.1" y="20.2" class="st17" width="1.4" height="1"/>
<rect x="115.1" y="20.2" class="st16" width="1.4" height="1"/>
<g id="Artwork_3-5">
	<path class="st5" d="M112,20.6v-1.6c0,0,0,0,0,0h1.6c0,0,0,0,0,0v1.6c0,0,0,0,0,0c0,0,0,0,0,0h-0.1v-0.4h-1.4v0.4L112,20.6
		C112,20.6,112,20.6,112,20.6z"/>
	<path class="st5" d="M112,22.4v-1.6c0,0,0,0,0,0h0.1v0.5h1.4v-0.5h0.1c0,0,0,0,0,0v1.6c0,0,0,0,0,0L112,22.4
		C112,22.4,112,22.4,112,22.4z"/>
	<path class="st7" d="M112.1,21.4v-0.2h1.4v0.2c0,0.4-0.3,0.7-0.7,0.7C112.4,22.1,112.1,21.7,112.1,21.4
		C112.1,21.4,112.1,21.4,112.1,21.4z"/>
	<path class="st7" d="M112.1,20.2v-0.2c0-0.4,0.3-0.7,0.7-0.7c0.4,0,0.7,0.3,0.7,0.7v0.2H112.1z"/>
</g>
<rect x="112.1" y="20.2" class="st19" width="1.4" height="1"/>
<rect x="112.1" y="20.2" class="st17" width="1.4" height="1"/>
<rect x="112.1" y="20.2" class="st16" width="1.4" height="1"/>
<g id="Artwork_3-6">
	<path class="st5" d="M141.7,23v-1.6c0,0,0,0,0,0h1.6c0,0,0,0,0,0V23c0,0,0,0,0,0c0,0,0,0,0,0h-0.1v-0.4h-1.4V23L141.7,23
		C141.7,23,141.7,23,141.7,23z"/>
	<path class="st5" d="M141.7,24.8v-1.6c0,0,0,0,0,0h0.1v0.5h1.4v-0.5h0.1c0,0,0,0,0,0v1.6c0,0,0,0,0,0L141.7,24.8
		C141.7,24.9,141.7,24.8,141.7,24.8z"/>
	<path class="st7" d="M141.9,23.8v-0.2h1.4v0.2c0,0.4-0.3,0.7-0.7,0.7C142.2,24.5,141.9,24.2,141.9,23.8
		C141.9,23.8,141.9,23.8,141.9,23.8z"/>
	<path class="st7" d="M141.9,22.6v-0.2c0-0.4,0.3-0.7,0.7-0.7c0.4,0,0.7,0.3,0.7,0.7v0.2H141.9z"/>
</g>
<rect x="141.8" y="22.6" class="st19" width="1.4" height="1"/>
<rect x="141.8" y="22.6" class="st17" width="1.4" height="1"/>
<rect x="141.8" y="22.6" class="st16" width="1.4" height="1"/>
<g id="Artwork_3-7">
	<path class="st5" d="M147.9,23v-1.6c0,0,0,0,0,0h1.6c0,0,0,0,0,0V23c0,0,0,0,0,0c0,0,0,0,0,0h-0.1v-0.4H148V23L147.9,23
		C147.9,23,147.9,23,147.9,23z"/>
	<path class="st5" d="M147.9,24.8v-1.6c0,0,0,0,0,0h0.1v0.5h1.4v-0.5h0.1c0,0,0,0,0,0v1.6c0,0,0,0,0,0L147.9,24.8
		C147.9,24.9,147.9,24.8,147.9,24.8z"/>
	<path class="st7" d="M148,23.8v-0.2h1.4v0.2c0,0.4-0.3,0.7-0.7,0.7C148.3,24.5,148,24.2,148,23.8C148,23.8,148,23.8,148,23.8z"/>
	<path class="st7" d="M148,22.6v-0.2c0-0.4,0.3-0.7,0.7-0.7c0.4,0,0.7,0.3,0.7,0.7v0.2H148z"/>
</g>
<rect x="148" y="22.6" class="st19" width="1.4" height="1"/>
<rect x="148" y="22.6" class="st17" width="1.4" height="1"/>
<rect x="148" y="22.6" class="st16" width="1.4" height="1"/>
<g id="Artwork_3-8">
	<path class="st5" d="M153.9,21.2v-1.6c0,0,0,0,0,0h1.6c0,0,0,0,0,0v1.6c0,0,0,0,0,0c0,0,0,0,0,0h-0.1v-0.4h-1.4v0.4L153.9,21.2
		C153.9,21.2,153.9,21.2,153.9,21.2z"/>
	<path class="st5" d="M153.9,23v-1.6c0,0,0,0,0,0h0.1v0.5h1.4v-0.5h0.1c0,0,0,0,0,0V23c0,0,0,0,0,0L153.9,23
		C153.9,23.1,153.9,23,153.9,23z"/>
	<path class="st7" d="M154.1,22v-0.2h1.4V22c0,0.4-0.3,0.7-0.7,0.7C154.4,22.7,154.1,22.4,154.1,22C154.1,22,154.1,22,154.1,22z"/>
	<path class="st7" d="M154.1,20.8v-0.2c0-0.4,0.3-0.7,0.7-0.7c0.4,0,0.7,0.3,0.7,0.7v0.2H154.1z"/>
</g>
<rect x="154.1" y="20.8" class="st19" width="1.4" height="1"/>
<rect x="154.1" y="20.8" class="st17" width="1.4" height="1"/>
<rect x="154.1" y="20.8" class="st16" width="1.4" height="1"/>
<g id="Artwork_3-9">
	<path class="st5" d="M153.9,15.1v-1.6c0,0,0,0,0,0h1.6c0,0,0,0,0,0v1.6c0,0,0,0,0,0c0,0,0,0,0,0h-0.1v-0.4h-1.4v0.4L153.9,15.1
		C153.9,15.1,153.9,15.1,153.9,15.1z"/>
	<path class="st5" d="M153.9,16.9v-1.6c0,0,0,0,0,0h0.1v0.5h1.4v-0.5h0.1c0,0,0,0,0,0v1.6c0,0,0,0,0,0L153.9,16.9
		C153.9,17,153.9,16.9,153.9,16.9z"/>
	<path class="st7" d="M154.1,15.9v-0.2h1.4v0.2c0,0.4-0.3,0.7-0.7,0.7C154.4,16.6,154.1,16.3,154.1,15.9
		C154.1,15.9,154.1,15.9,154.1,15.9z"/>
	<path class="st7" d="M154.1,14.7v-0.2c0-0.4,0.3-0.7,0.7-0.7c0.4,0,0.7,0.3,0.7,0.7v0.2H154.1z"/>
</g>
<rect x="154.1" y="14.7" class="st19" width="1.4" height="1"/>
<rect x="154.1" y="14.7" class="st17" width="1.4" height="1"/>
<rect x="154.1" y="14.7" class="st16" width="1.4" height="1"/>
<g id="Artwork_3-10">
	<path class="st5" d="M153.9,6.2V4.6c0,0,0,0,0,0h1.6c0,0,0,0,0,0v1.6c0,0,0,0,0,0c0,0,0,0,0,0h-0.1V5.8h-1.4v0.4L153.9,6.2
		C153.9,6.2,153.9,6.2,153.9,6.2z"/>
	<path class="st5" d="M153.9,8.1V6.4c0,0,0,0,0,0h0.1v0.5h1.4V6.4h0.1c0,0,0,0,0,0v1.6c0,0,0,0,0,0L153.9,8.1
		C153.9,8.1,153.9,8.1,153.9,8.1z"/>
	<path class="st7" d="M154.1,7V6.8h1.4V7c0,0.4-0.3,0.7-0.7,0.7C154.4,7.7,154.1,7.4,154.1,7C154.1,7,154.1,7,154.1,7z"/>
	<path class="st7" d="M154.1,5.8V5.6c0-0.4,0.3-0.7,0.7-0.7c0.4,0,0.7,0.3,0.7,0.7v0.2H154.1z"/>
</g>
<rect x="154.1" y="5.8" class="st19" width="1.4" height="1"/>
<rect x="154.1" y="5.8" class="st17" width="1.4" height="1"/>
<rect x="154.1" y="5.8" class="st16" width="1.4" height="1"/>
<g id="Artwork_3-11">
	<path class="st5" d="M146.2,19.6h-1.6c0,0,0,0,0,0v-1.6c0,0,0,0,0,0h1.6c0,0,0,0,0,0c0,0,0,0,0,0V18h-0.4v1.4h0.4L146.2,19.6
		C146.2,19.6,146.2,19.6,146.2,19.6z"/>
	<path class="st5" d="M148,19.6h-1.6c0,0,0,0,0,0v-0.1h0.4V18h-0.4v-0.1c0,0,0,0,0,0h1.6c0,0,0,0,0,0L148,19.6
		C148.1,19.6,148.1,19.6,148,19.6z"/>
	<path class="st7" d="M147,19.5h-0.2V18h0.2c0.4,0,0.7,0.3,0.7,0.7C147.7,19.1,147.4,19.5,147,19.5C147,19.5,147,19.5,147,19.5z"/>
	<path class="st7" d="M145.8,19.5h-0.2c-0.4,0-0.7-0.3-0.7-0.7c0-0.4,0.3-0.7,0.7-0.7h0.2V19.5z"/>
</g>
<rect x="145.8" y="18" class="st19" width="1" height="1.4"/>
<rect x="145.8" y="18" class="st17" width="1" height="1.4"/>
<rect x="145.8" y="18" class="st16" width="1" height="1.4"/>
<g id="Artwork_3-12">
	<path class="st5" d="M137.8,15.8h-1.6c0,0,0,0,0,0v-1.6c0,0,0,0,0,0h1.6c0,0,0,0,0,0c0,0,0,0,0,0v0.1h-0.4v1.4h0.4L137.8,15.8
		C137.8,15.8,137.8,15.8,137.8,15.8z"/>
	<path class="st5" d="M139.7,15.8H138c0,0,0,0,0,0v-0.1h0.4v-1.4H138v-0.1c0,0,0,0,0,0h1.6c0,0,0,0,0,0L139.7,15.8
		C139.7,15.8,139.7,15.8,139.7,15.8z"/>
	<path class="st7" d="M138.6,15.7h-0.2v-1.4h0.2c0.4,0,0.7,0.3,0.7,0.7C139.3,15.4,139,15.7,138.6,15.7
		C138.6,15.7,138.6,15.7,138.6,15.7z"/>
	<path class="st7" d="M137.4,15.7h-0.2c-0.4,0-0.7-0.3-0.7-0.7c0-0.4,0.3-0.7,0.7-0.7h0.2V15.7z"/>
</g>
<rect x="137.4" y="14.3" class="st19" width="1" height="1.4"/>
<rect x="137.4" y="14.3" class="st17" width="1" height="1.4"/>
<rect x="137.4" y="14.3" class="st16" width="1" height="1.4"/>
<g id="Artwork_3-13">
	<path class="st5" d="M127.5,13h-1.6c0,0,0,0,0,0v-1.6c0,0,0,0,0,0h1.6c0,0,0,0,0,0c0,0,0,0,0,0v0.1h-0.4v1.4h0.4L127.5,13
		C127.5,13,127.5,13,127.5,13z"/>
	<path class="st5" d="M129.3,13h-1.6c0,0,0,0,0,0v-0.1h0.4v-1.4h-0.4v-0.1c0,0,0,0,0,0h1.6c0,0,0,0,0,0L129.3,13
		C129.4,13,129.3,13,129.3,13z"/>
	<path class="st7" d="M128.3,12.8h-0.2v-1.4h0.2c0.4,0,0.7,0.3,0.7,0.7C129,12.5,128.7,12.8,128.3,12.8
		C128.3,12.8,128.3,12.8,128.3,12.8z"/>
	<path class="st7" d="M127.1,12.8h-0.2c-0.4,0-0.7-0.3-0.7-0.7c0-0.4,0.3-0.7,0.7-0.7h0.2V12.8z"/>
</g>
<rect x="127.1" y="11.4" class="st19" width="1" height="1.4"/>
<rect x="127.1" y="11.4" class="st17" width="1" height="1.4"/>
<rect x="127.1" y="11.4" class="st16" width="1" height="1.4"/>
<g id="Artwork_3-14">
	<path class="st5" d="M114.5,14.7h-1.6c0,0,0,0,0,0v-1.6c0,0,0,0,0,0h1.6c0,0,0,0,0,0c0,0,0,0,0,0v0.1h-0.4v1.4h0.4L114.5,14.7
		C114.5,14.7,114.5,14.7,114.5,14.7z"/>
	<path class="st5" d="M116.4,14.7h-1.6c0,0,0,0,0,0v-0.1h0.4v-1.4h-0.4v-0.1c0,0,0,0,0,0h1.6c0,0,0,0,0,0L116.4,14.7
		C116.4,14.7,116.4,14.7,116.4,14.7z"/>
	<path class="st7" d="M115.3,14.6h-0.2v-1.4h0.2c0.4,0,0.7,0.3,0.7,0.7C116,14.3,115.7,14.6,115.3,14.6
		C115.3,14.6,115.3,14.6,115.3,14.6z"/>
	<path class="st7" d="M114.1,14.6h-0.2c-0.4,0-0.7-0.3-0.7-0.7c0-0.4,0.3-0.7,0.7-0.7h0.2V14.6z"/>
</g>
<rect x="114.1" y="13.2" class="st19" width="1" height="1.4"/>
<rect x="114.1" y="13.2" class="st17" width="1" height="1.4"/>
<rect x="114.1" y="13.2" class="st16" width="1" height="1.4"/>
<g id="Artwork_3-15">
	<path class="st5" d="M114.5,28.2h-1.6c0,0,0,0,0,0v-1.6c0,0,0,0,0,0h1.6c0,0,0,0,0,0c0,0,0,0,0,0v0.1h-0.4v1.4h0.4L114.5,28.2
		C114.5,28.2,114.5,28.2,114.5,28.2z"/>
	<path class="st5" d="M116.4,28.2h-1.6c0,0,0,0,0,0v-0.1h0.4v-1.4h-0.4v-0.1c0,0,0,0,0,0h1.6c0,0,0,0,0,0L116.4,28.2
		C116.4,28.2,116.4,28.2,116.4,28.2z"/>
	<path class="st7" d="M115.3,28.1h-0.2v-1.4h0.2c0.4,0,0.7,0.3,0.7,0.7C116,27.8,115.7,28.1,115.3,28.1
		C115.3,28.1,115.3,28.1,115.3,28.1z"/>
	<path class="st7" d="M114.1,28.1h-0.2c-0.4,0-0.7-0.3-0.7-0.7c0-0.4,0.3-0.7,0.7-0.7h0.2V28.1z"/>
</g>
<rect x="114.1" y="26.7" class="st19" width="1" height="1.4"/>
<rect x="114.1" y="26.7" class="st17" width="1" height="1.4"/>
<rect x="114.1" y="26.7" class="st16" width="1" height="1.4"/>
<g id="Artwork_3-16">
	<path class="st5" d="M114.5,31.2h-1.6c0,0,0,0,0,0v-1.6c0,0,0,0,0,0h1.6c0,0,0,0,0,0c0,0,0,0,0,0v0.1h-0.4v1.4h0.4L114.5,31.2
		C114.5,31.2,114.5,31.2,114.5,31.2z"/>
	<path class="st5" d="M116.4,31.2h-1.6c0,0,0,0,0,0v-0.1h0.4v-1.4h-0.4v-0.1c0,0,0,0,0,0h1.6c0,0,0,0,0,0L116.4,31.2
		C116.4,31.2,116.4,31.2,116.4,31.2z"/>
	<path class="st7" d="M115.3,31.1h-0.2v-1.4h0.2c0.4,0,0.7,0.3,0.7,0.7C116,30.7,115.7,31.1,115.3,31.1
		C115.3,31.1,115.3,31.1,115.3,31.1z"/>
	<path class="st7" d="M114.1,31.1h-0.2c-0.4,0-0.7-0.3-0.7-0.7c0-0.4,0.3-0.7,0.7-0.7h0.2V31.1z"/>
</g>
<rect x="114.1" y="29.6" class="st19" width="1" height="1.4"/>
<rect x="114.1" y="29.6" class="st17" width="1" height="1.4"/>
<rect x="114.1" y="29.6" class="st16" width="1" height="1.4"/>
<g id="Artwork_3-17">
	<path class="st5" d="M148.5,30.6V29c0,0,0,0,0,0h1.6c0,0,0,0,0,0v1.6c0,0,0,0,0,0c0,0,0,0,0,0h-0.1v-0.4h-1.4v0.4L148.5,30.6
		C148.6,30.7,148.5,30.7,148.5,30.6z"/>
	<path class="st5" d="M148.5,32.5v-1.6c0,0,0,0,0,0h0.1v0.4h1.4v-0.4h0.1c0,0,0,0,0,0v1.6c0,0,0,0,0,0L148.5,32.5
		C148.6,32.5,148.5,32.5,148.5,32.5z"/>
	<path class="st7" d="M148.7,31.4v-0.2h1.4v0.2c0,0.4-0.3,0.7-0.7,0.7C149,32.1,148.7,31.8,148.7,31.4
		C148.7,31.4,148.7,31.4,148.7,31.4z"/>
	<path class="st7" d="M148.7,30.2V30c0-0.4,0.3-0.7,0.7-0.7c0.4,0,0.7,0.3,0.7,0.7v0.2H148.7z"/>
</g>
<rect x="148.7" y="30.2" class="st19" width="1.4" height="1"/>
<rect x="148.7" y="30.2" class="st17" width="1.4" height="1"/>
<rect x="148.7" y="30.2" class="st16" width="1.4" height="1"/>
<g id="Artwork_3-18">
	<path class="st5" d="M173.9,15.1v-1.6c0,0,0,0,0,0h1.6c0,0,0,0,0,0v1.6c0,0,0,0,0,0c0,0,0,0,0,0h-0.1v-0.4h-1.4v0.4L173.9,15.1
		C173.9,15.1,173.9,15.1,173.9,15.1z"/>
	<path class="st5" d="M173.9,16.9v-1.6c0,0,0,0,0,0h0.1v0.5h1.4v-0.5h0.1c0,0,0,0,0,0v1.6c0,0,0,0,0,0L173.9,16.9
		C173.9,17,173.9,16.9,173.9,16.9z"/>
	<path class="st7" d="M174.1,15.9v-0.2h1.4v0.2c0,0.4-0.3,0.7-0.7,0.7C174.4,16.6,174.1,16.3,174.1,15.9
		C174.1,15.9,174.1,15.9,174.1,15.9z"/>
	<path class="st7" d="M174.1,14.7v-0.2c0-0.4,0.3-0.7,0.7-0.7c0.4,0,0.7,0.3,0.7,0.7v0.2H174.1z"/>
</g>
<rect x="174.1" y="14.7" class="st19" width="1.4" height="1"/>
<rect x="174.1" y="14.7" class="st17" width="1.4" height="1"/>
<rect x="174.1" y="14.7" class="st16" width="1.4" height="1"/>
<g id="Artwork_3-19">
	<path class="st5" d="M173.9,22.4v-1.6c0,0,0,0,0,0h1.6c0,0,0,0,0,0v1.6c0,0,0,0,0,0c0,0,0,0,0,0h-0.1V22h-1.4v0.4L173.9,22.4
		C173.9,22.5,173.9,22.5,173.9,22.4z"/>
	<path class="st5" d="M173.9,24.3v-1.6c0,0,0,0,0,0h0.1v0.5h1.4v-0.5h0.1c0,0,0,0,0,0v1.6c0,0,0,0,0,0L173.9,24.3
		C173.9,24.3,173.9,24.3,173.9,24.3z"/>
	<path class="st7" d="M174.1,23.2v-0.2h1.4v0.2c0,0.4-0.3,0.7-0.7,0.7C174.4,23.9,174.1,23.6,174.1,23.2
		C174.1,23.2,174.1,23.2,174.1,23.2z"/>
	<path class="st7" d="M174.1,22v-0.2c0-0.4,0.3-0.7,0.7-0.7c0.4,0,0.7,0.3,0.7,0.7V22H174.1z"/>
</g>
<rect x="174.1" y="22" class="st19" width="1.4" height="1"/>
<rect x="174.1" y="22" class="st17" width="1.4" height="1"/>
<rect x="174.1" y="22" class="st16" width="1.4" height="1"/>
<g id="Artwork_3-20">
	<path class="st5" d="M180.2,22.3h-1.6c0,0,0,0,0,0v-1.6c0,0,0,0,0,0h1.6c0,0,0,0,0,0c0,0,0,0,0,0v0.1h-0.4v1.4h0.4L180.2,22.3
		C180.2,22.3,180.2,22.3,180.2,22.3z"/>
	<path class="st5" d="M182,22.3h-1.6c0,0,0,0,0,0v-0.1h0.4v-1.4h-0.4v-0.1c0,0,0,0,0,0h1.6c0,0,0,0,0,0L182,22.3
		C182.1,22.3,182,22.3,182,22.3z"/>
	<path class="st7" d="M181,22.2h-0.2v-1.4h0.2c0.4,0,0.7,0.3,0.7,0.7C181.7,21.8,181.4,22.2,181,22.2C181,22.2,181,22.2,181,22.2z"
		/>
	<path class="st7" d="M179.8,22.2h-0.2c-0.4,0-0.7-0.3-0.7-0.7c0-0.4,0.3-0.7,0.7-0.7h0.2V22.2z"/>
</g>
<rect x="179.8" y="20.7" class="st19" width="1" height="1.4"/>
<rect x="179.8" y="20.7" class="st17" width="1" height="1.4"/>
<rect x="179.8" y="20.7" class="st16" width="1" height="1.4"/>
<g id="Artwork_3-21">
	<path class="st5" d="M176.7,15.1v-1.6c0,0,0,0,0,0h1.6c0,0,0,0,0,0v1.6c0,0,0,0,0,0c0,0,0,0,0,0h-0.1v-0.4h-1.4v0.4L176.7,15.1
		C176.7,15.1,176.7,15.1,176.7,15.1z"/>
	<path class="st5" d="M176.7,16.9v-1.6c0,0,0,0,0,0h0.1v0.5h1.4v-0.5h0.1c0,0,0,0,0,0v1.6c0,0,0,0,0,0L176.7,16.9
		C176.7,17,176.7,16.9,176.7,16.9z"/>
	<path class="st7" d="M176.8,15.9v-0.2h1.4v0.2c0,0.4-0.3,0.7-0.7,0.7C177.1,16.6,176.8,16.3,176.8,15.9
		C176.8,15.9,176.8,15.9,176.8,15.9z"/>
	<path class="st7" d="M176.8,14.7v-0.2c0-0.4,0.3-0.7,0.7-0.7c0.4,0,0.7,0.3,0.7,0.7v0.2H176.8z"/>
</g>
<rect x="176.8" y="14.7" class="st19" width="1.4" height="1"/>
<rect x="176.8" y="14.7" class="st17" width="1.4" height="1"/>
<rect x="176.8" y="14.7" class="st16" width="1.4" height="1"/>
<g id="Artwork_3-22">
	<path class="st5" d="M173.9,8.4V6.7c0,0,0,0,0,0h1.6c0,0,0,0,0,0v1.6c0,0,0,0,0,0c0,0,0,0,0,0h-0.1V8h-1.4v0.4L173.9,8.4
		C173.9,8.4,173.9,8.4,173.9,8.4z"/>
	<path class="st5" d="M173.9,10.2V8.6c0,0,0,0,0,0h0.1V9h1.4V8.6h0.1c0,0,0,0,0,0v1.6c0,0,0,0,0,0L173.9,10.2
		C173.9,10.3,173.9,10.2,173.9,10.2z"/>
	<path class="st7" d="M174.1,9.2V9h1.4v0.2c0,0.4-0.3,0.7-0.7,0.7C174.4,9.9,174.1,9.6,174.1,9.2C174.1,9.2,174.1,9.2,174.1,9.2z"/>
	<path class="st7" d="M174.1,8V7.7c0-0.4,0.3-0.7,0.7-0.7c0.4,0,0.7,0.3,0.7,0.7V8H174.1z"/>
</g>
<rect x="174.1" y="8" class="st19" width="1.4" height="1"/>
<rect x="174.1" y="8" class="st17" width="1.4" height="1"/>
<rect x="174.1" y="8" class="st16" width="1.4" height="1"/>
<g id="Artwork_3-23">
	<path class="st5" d="M152,44.5v-1.6c0,0,0,0,0,0h1.6c0,0,0,0,0,0v1.6c0,0,0,0,0,0c0,0,0,0,0,0h-0.1v-0.4h-1.4v0.4L152,44.5
		C152,44.5,152,44.5,152,44.5z"/>
	<path class="st5" d="M152,46.3v-1.6c0,0,0,0,0,0h0.1v0.4h1.4v-0.4h0.1c0,0,0,0,0,0v1.6c0,0,0,0,0,0L152,46.3
		C152,46.4,152,46.3,152,46.3z"/>
	<path class="st7" d="M152.1,45.3v-0.2h1.4v0.2c0,0.4-0.3,0.7-0.7,0.7C152.4,46,152.1,45.7,152.1,45.3
		C152.1,45.3,152.1,45.3,152.1,45.3z"/>
	<path class="st7" d="M152.1,44.1v-0.2c0-0.4,0.3-0.7,0.7-0.7c0.4,0,0.7,0.3,0.7,0.7v0.2H152.1z"/>
</g>
<rect x="152.1" y="44.1" class="st19" width="1.4" height="1"/>
<rect x="152.1" y="44.1" class="st17" width="1.4" height="1"/>
<rect x="152.1" y="44.1" class="st16" width="1.4" height="1"/>
<g id="Artwork_3-24">
	<path class="st5" d="M152,51.3v-1.6c0,0,0,0,0,0h1.6c0,0,0,0,0,0v1.6c0,0,0,0,0,0c0,0,0,0,0,0h-0.1v-0.4h-1.4v0.4L152,51.3
		C152,51.4,152,51.4,152,51.3z"/>
	<path class="st5" d="M152,53.2v-1.6c0,0,0,0,0,0h0.1V52h1.4v-0.4h0.1c0,0,0,0,0,0v1.6c0,0,0,0,0,0L152,53.2
		C152,53.2,152,53.2,152,53.2z"/>
	<path class="st7" d="M152.1,52.1V52h1.4v0.2c0,0.4-0.3,0.7-0.7,0.7C152.4,52.8,152.1,52.5,152.1,52.1
		C152.1,52.1,152.1,52.1,152.1,52.1z"/>
	<path class="st7" d="M152.1,50.9v-0.2c0-0.4,0.3-0.7,0.7-0.7c0.4,0,0.7,0.3,0.7,0.7v0.2H152.1z"/>
</g>
<rect x="152.1" y="50.9" class="st19" width="1.4" height="1"/>
<rect x="152.1" y="50.9" class="st17" width="1.4" height="1"/>
<rect x="152.1" y="50.9" class="st16" width="1.4" height="1"/>
<g id="Artwork_3-25">
	<path class="st5" d="M177.8,53.7h-1.6c0,0,0,0,0,0V52c0,0,0,0,0,0h1.6c0,0,0,0,0,0c0,0,0,0,0,0v0.1h-0.4v1.4h0.4L177.8,53.7
		C177.9,53.7,177.9,53.7,177.8,53.7z"/>
	<path class="st5" d="M179.7,53.7h-1.6c0,0,0,0,0,0v-0.1h0.4v-1.4H178V52c0,0,0,0,0,0h1.6c0,0,0,0,0,0L179.7,53.7
		C179.7,53.7,179.7,53.7,179.7,53.7z"/>
	<path class="st7" d="M178.6,53.6h-0.2v-1.4h0.2c0.4,0,0.7,0.3,0.7,0.7C179.3,53.2,179,53.6,178.6,53.6
		C178.6,53.6,178.6,53.6,178.6,53.6z"/>
	<path class="st7" d="M177.4,53.6h-0.2c-0.4,0-0.7-0.3-0.7-0.7c0-0.4,0.3-0.7,0.7-0.7h0.2V53.6z"/>
</g>
<rect x="177.4" y="52.1" class="st19" width="1" height="1.4"/>
<rect x="177.4" y="52.1" class="st17" width="1" height="1.4"/>
<rect x="177.4" y="52.1" class="st16" width="1" height="1.4"/>
<g id="Artwork_3-26">
	<path class="st5" d="M177.8,58.2h-1.6c0,0,0,0,0,0v-1.6c0,0,0,0,0,0h1.6c0,0,0,0,0,0c0,0,0,0,0,0v0.1h-0.4V58h0.4L177.8,58.2
		C177.9,58.2,177.9,58.2,177.8,58.2z"/>
	<path class="st5" d="M179.7,58.2h-1.6c0,0,0,0,0,0V58h0.4v-1.4H178v-0.1c0,0,0,0,0,0h1.6c0,0,0,0,0,0L179.7,58.2
		C179.7,58.2,179.7,58.2,179.7,58.2z"/>
	<path class="st7" d="M178.6,58h-0.2v-1.4h0.2c0.4,0,0.7,0.3,0.7,0.7C179.3,57.7,179,58,178.6,58C178.6,58,178.6,58,178.6,58z"/>
	<path class="st7" d="M177.4,58h-0.2c-0.4,0-0.7-0.3-0.7-0.7c0-0.4,0.3-0.7,0.7-0.7h0.2V58z"/>
</g>
<rect x="177.4" y="56.6" class="st19" width="1" height="1.4"/>
<rect x="177.4" y="56.6" class="st17" width="1" height="1.4"/>
<rect x="177.4" y="56.6" class="st16" width="1" height="1.4"/>
<g id="Artwork_3-27">
	<path class="st5" d="M177.8,50.3h-1.6c0,0,0,0,0,0v-1.6c0,0,0,0,0,0h1.6c0,0,0,0,0,0c0,0,0,0,0,0v0.1h-0.4v1.4h0.4L177.8,50.3
		C177.9,50.3,177.9,50.3,177.8,50.3z"/>
	<path class="st5" d="M179.7,50.3h-1.6c0,0,0,0,0,0v-0.1h0.4v-1.4H178v-0.1c0,0,0,0,0,0h1.6c0,0,0,0,0,0L179.7,50.3
		C179.7,50.3,179.7,50.3,179.7,50.3z"/>
	<path class="st7" d="M178.6,50.2h-0.2v-1.4h0.2c0.4,0,0.7,0.3,0.7,0.7C179.3,49.9,179,50.2,178.6,50.2
		C178.6,50.2,178.6,50.2,178.6,50.2z"/>
	<path class="st7" d="M177.4,50.2h-0.2c-0.4,0-0.7-0.3-0.7-0.7c0-0.4,0.3-0.7,0.7-0.7h0.2V50.2z"/>
</g>
<rect x="177.4" y="48.8" class="st19" width="1" height="1.4"/>
<rect x="177.4" y="48.8" class="st17" width="1" height="1.4"/>
<rect x="177.4" y="48.8" class="st16" width="1" height="1.4"/>
<g id="Artwork_3-28">
	<path class="st5" d="M166.5,57.4v-1.6c0,0,0,0,0,0h1.6c0,0,0,0,0,0v1.6c0,0,0,0,0,0c0,0,0,0,0,0h-0.1V57h-1.4v0.4L166.5,57.4
		C166.5,57.5,166.5,57.5,166.5,57.4z"/>
	<path class="st5" d="M166.5,59.3v-1.6c0,0,0,0,0,0h0.1v0.4h1.4v-0.4h0.1c0,0,0,0,0,0v1.6c0,0,0,0,0,0L166.5,59.3
		C166.5,59.3,166.5,59.3,166.5,59.3z"/>
	<path class="st7" d="M166.6,58.2v-0.2h1.4v0.2c0,0.4-0.3,0.7-0.7,0.7C167,59,166.6,58.6,166.6,58.2
		C166.6,58.3,166.6,58.3,166.6,58.2z"/>
	<path class="st7" d="M166.6,57v-0.2c0-0.4,0.3-0.7,0.7-0.7c0.4,0,0.7,0.3,0.7,0.7V57H166.6z"/>
</g>
<rect x="166.6" y="57" class="st19" width="1.4" height="1"/>
<rect x="166.6" y="57" class="st17" width="1.4" height="1"/>
<rect x="166.6" y="57" class="st16" width="1.4" height="1"/>
<g id="Artwork_3-29">
	<path class="st5" d="M154.9,60v-1.6c0,0,0,0,0,0h1.6c0,0,0,0,0,0V60c0,0,0,0,0,0c0,0,0,0,0,0h-0.1v-0.4h-1.4V60L154.9,60
		C155,60,154.9,60,154.9,60z"/>
	<path class="st5" d="M154.9,61.9v-1.6c0,0,0,0,0,0h0.1v0.4h1.4v-0.4h0.1c0,0,0,0,0,0v1.6c0,0,0,0,0,0L154.9,61.9
		C155,61.9,154.9,61.9,154.9,61.9z"/>
	<path class="st7" d="M155.1,60.8v-0.2h1.4v0.2c0,0.4-0.3,0.7-0.7,0.7C155.4,61.5,155.1,61.2,155.1,60.8
		C155.1,60.8,155.1,60.8,155.1,60.8z"/>
	<path class="st7" d="M155.1,59.6v-0.2c0-0.4,0.3-0.7,0.7-0.7c0.4,0,0.7,0.3,0.7,0.7v0.2H155.1z"/>
</g>
<rect x="155.1" y="59.6" class="st19" width="1.4" height="1"/>
<rect x="155.1" y="59.6" class="st17" width="1.4" height="1"/>
<rect x="155.1" y="59.6" class="st16" width="1.4" height="1"/>
<g id="Artwork_3-30">
	<path class="st5" d="M151.7,65.6V64c0,0,0,0,0,0h1.6c0,0,0,0,0,0v1.6c0,0,0,0,0,0c0,0,0,0,0,0h-0.1v-0.4h-1.4v0.4L151.7,65.6
		C151.7,65.6,151.7,65.6,151.7,65.6z"/>
	<path class="st5" d="M151.7,67.5v-1.6c0,0,0,0,0,0h0.1v0.4h1.4v-0.4h0.1c0,0,0,0,0,0v1.6c0,0,0,0,0,0L151.7,67.5
		C151.7,67.5,151.7,67.5,151.7,67.5z"/>
	<path class="st7" d="M151.8,66.4v-0.2h1.4v0.2c0,0.4-0.3,0.7-0.7,0.7C152.1,67.1,151.8,66.8,151.8,66.4
		C151.8,66.4,151.8,66.4,151.8,66.4z"/>
	<path class="st7" d="M151.8,65.2V65c0-0.4,0.3-0.7,0.7-0.7c0.4,0,0.7,0.3,0.7,0.7v0.2H151.8z"/>
</g>
<rect x="151.8" y="65.2" class="st19" width="1.4" height="1"/>
<rect x="151.8" y="65.2" class="st17" width="1.4" height="1"/>
<rect x="151.8" y="65.2" class="st16" width="1.4" height="1"/>
<g id="Artwork_3-31">
	<path class="st5" d="M154.9,65.6V64c0,0,0,0,0,0h1.6c0,0,0,0,0,0v1.6c0,0,0,0,0,0c0,0,0,0,0,0h-0.1v-0.4h-1.4v0.4L154.9,65.6
		C155,65.6,154.9,65.6,154.9,65.6z"/>
	<path class="st5" d="M154.9,67.5v-1.6c0,0,0,0,0,0h0.1v0.4h1.4v-0.4h0.1c0,0,0,0,0,0v1.6c0,0,0,0,0,0L154.9,67.5
		C155,67.5,154.9,67.5,154.9,67.5z"/>
	<path class="st7" d="M155.1,66.4v-0.2h1.4v0.2c0,0.4-0.3,0.7-0.7,0.7C155.4,67.1,155.1,66.8,155.1,66.4
		C155.1,66.4,155.1,66.4,155.1,66.4z"/>
	<path class="st7" d="M155.1,65.2V65c0-0.4,0.3-0.7,0.7-0.7c0.4,0,0.7,0.3,0.7,0.7v0.2H155.1z"/>
</g>
<rect x="155.1" y="65.2" class="st19" width="1.4" height="1"/>
<rect x="155.1" y="65.2" class="st17" width="1.4" height="1"/>
<rect x="155.1" y="65.2" class="st16" width="1.4" height="1"/>
<g id="Artwork_3-32">
	<path class="st5" d="M158.2,65.6V64c0,0,0,0,0,0h1.6c0,0,0,0,0,0v1.6c0,0,0,0,0,0c0,0,0,0,0,0h-0.1v-0.4h-1.4v0.4L158.2,65.6
		C158.2,65.6,158.2,65.6,158.2,65.6z"/>
	<path class="st5" d="M158.2,67.5v-1.6c0,0,0,0,0,0h0.1v0.4h1.4v-0.4h0.1c0,0,0,0,0,0v1.6c0,0,0,0,0,0L158.2,67.5
		C158.2,67.5,158.2,67.5,158.2,67.5z"/>
	<path class="st7" d="M158.3,66.4v-0.2h1.4v0.2c0,0.4-0.3,0.7-0.7,0.7C158.7,67.1,158.3,66.8,158.3,66.4
		C158.3,66.4,158.3,66.4,158.3,66.4z"/>
	<path class="st7" d="M158.3,65.2V65c0-0.4,0.3-0.7,0.7-0.7c0.4,0,0.7,0.3,0.7,0.7v0.2H158.3z"/>
</g>
<rect x="158.3" y="65.2" class="st19" width="1.4" height="1"/>
<rect x="158.3" y="65.2" class="st17" width="1.4" height="1"/>
<rect x="158.3" y="65.2" class="st16" width="1.4" height="1"/>
<g id="Artwork_3-33">
	<path class="st5" d="M161.5,65.6V64c0,0,0,0,0,0h1.6c0,0,0,0,0,0v1.6c0,0,0,0,0,0c0,0,0,0,0,0H163v-0.4h-1.4v0.4L161.5,65.6
		C161.5,65.6,161.5,65.6,161.5,65.6z"/>
	<path class="st5" d="M161.5,67.5v-1.6c0,0,0,0,0,0h0.1v0.4h1.4v-0.4h0.1c0,0,0,0,0,0v1.6c0,0,0,0,0,0L161.5,67.5
		C161.5,67.5,161.5,67.5,161.5,67.5z"/>
	<path class="st7" d="M161.6,66.4v-0.2h1.4v0.2c0,0.4-0.3,0.7-0.7,0.7C161.9,67.1,161.6,66.8,161.6,66.4
		C161.6,66.4,161.6,66.4,161.6,66.4z"/>
	<path class="st7" d="M161.6,65.2V65c0-0.4,0.3-0.7,0.7-0.7c0.4,0,0.7,0.3,0.7,0.7v0.2H161.6z"/>
</g>
<rect x="161.6" y="65.2" class="st19" width="1.4" height="1"/>
<rect x="161.6" y="65.2" class="st17" width="1.4" height="1"/>
<rect x="161.6" y="65.2" class="st16" width="1.4" height="1"/>
<g id="Artwork_3-34">
	<path class="st5" d="M165.8,69.3h-1.6c0,0,0,0,0,0v-1.6c0,0,0,0,0,0h1.6c0,0,0,0,0,0c0,0,0,0,0,0v0.1h-0.4v1.4h0.4L165.8,69.3
		C165.8,69.2,165.8,69.3,165.8,69.3z"/>
	<path class="st5" d="M167.7,69.3H166c0,0,0,0,0,0v-0.1h0.5v-1.4H166v-0.1c0,0,0,0,0,0h1.6c0,0,0,0,0,0L167.7,69.3
		C167.7,69.2,167.7,69.3,167.7,69.3z"/>
	<path class="st7" d="M166.6,69.1h-0.2v-1.4h0.2c0.4,0,0.7,0.3,0.7,0.7C167.3,68.8,167,69.1,166.6,69.1
		C166.6,69.1,166.6,69.1,166.6,69.1z"/>
	<path class="st7" d="M165.4,69.1h-0.2c-0.4,0-0.7-0.3-0.7-0.7c0-0.4,0.3-0.7,0.7-0.7h0.2V69.1z"/>
</g>
<rect x="165.4" y="67.7" class="st19" width="1" height="1.4"/>
<rect x="165.4" y="67.7" class="st17" width="1" height="1.4"/>
<rect x="165.4" y="67.7" class="st16" width="1" height="1.4"/>
<g id="Artwork_3-35">
	<path class="st5" d="M175.9,66.3v-1.6c0,0,0,0,0,0h1.6c0,0,0,0,0,0v1.6c0,0,0,0,0,0c0,0,0,0,0,0h-0.1v-0.4H176v0.4L175.9,66.3
		C175.9,66.4,175.9,66.4,175.9,66.3z"/>
	<path class="st5" d="M175.9,68.2v-1.6c0,0,0,0,0,0h0.1V67h1.4v-0.4h0.1c0,0,0,0,0,0v1.6c0,0,0,0,0,0L175.9,68.2
		C175.9,68.2,175.9,68.2,175.9,68.2z"/>
	<path class="st7" d="M176,67.1V67h1.4v0.2c0,0.4-0.3,0.7-0.7,0.7C176.3,67.8,176,67.5,176,67.1C176,67.1,176,67.1,176,67.1z"/>
	<path class="st7" d="M176,65.9v-0.2c0-0.4,0.3-0.7,0.7-0.7c0.4,0,0.7,0.3,0.7,0.7v0.2H176z"/>
</g>
<rect x="176" y="65.9" class="st19" width="1.4" height="1"/>
<rect x="176" y="65.9" class="st17" width="1.4" height="1"/>
<rect x="176" y="65.9" class="st16" width="1.4" height="1"/>
<g id="Artwork_3-36">
	<path class="st5" d="M141.4,65.6V64c0,0,0,0,0,0h1.6c0,0,0,0,0,0v1.6c0,0,0,0,0,0c0,0,0,0,0,0H143v-0.4h-1.4v0.4L141.4,65.6
		C141.4,65.6,141.4,65.6,141.4,65.6z"/>
	<path class="st5" d="M141.4,67.5v-1.6c0,0,0,0,0,0h0.1v0.4h1.4v-0.4h0.1c0,0,0,0,0,0v1.6c0,0,0,0,0,0L141.4,67.5
		C141.4,67.5,141.4,67.5,141.4,67.5z"/>
	<path class="st7" d="M141.6,66.4v-0.2h1.4v0.2c0,0.4-0.3,0.7-0.7,0.7C141.9,67.1,141.6,66.8,141.6,66.4
		C141.6,66.4,141.6,66.4,141.6,66.4z"/>
	<path class="st7" d="M141.6,65.2V65c0-0.4,0.3-0.7,0.7-0.7c0.4,0,0.7,0.3,0.7,0.7v0.2H141.6z"/>
</g>
<rect x="141.5" y="65.2" class="st19" width="1.4" height="1"/>
<rect x="141.5" y="65.2" class="st17" width="1.4" height="1"/>
<rect x="141.5" y="65.2" class="st16" width="1.4" height="1"/>
<g id="Artwork_3-37">
	<path class="st5" d="M144.1,61.1h-1.6c0,0,0,0,0,0v-1.6c0,0,0,0,0,0h1.6c0,0,0,0,0,0c0,0,0,0,0,0v0.1h-0.4V61h0.4L144.1,61.1
		C144.1,61.1,144.1,61.1,144.1,61.1z"/>
	<path class="st5" d="M146,61.1h-1.6c0,0,0,0,0,0V61h0.4v-1.4h-0.4v-0.1c0,0,0,0,0,0h1.6c0,0,0,0,0,0L146,61.1
		C146,61.1,146,61.1,146,61.1z"/>
	<path class="st7" d="M144.9,61h-0.2v-1.4h0.2c0.4,0,0.7,0.3,0.7,0.7C145.6,60.7,145.3,61,144.9,61C144.9,61,144.9,61,144.9,61z"/>
	<path class="st7" d="M143.7,61h-0.2c-0.4,0-0.7-0.3-0.7-0.7c0-0.4,0.3-0.7,0.7-0.7h0.2V61z"/>
</g>
<rect x="143.7" y="59.6" class="st19" width="1" height="1.4"/>
<rect x="143.7" y="59.6" class="st17" width="1" height="1.4"/>
<rect x="143.7" y="59.6" class="st16" width="1" height="1.4"/>
<g id="Artwork_3-38">
	<path class="st5" d="M129.8,57.1v-1.6c0,0,0,0,0,0h1.6c0,0,0,0,0,0v1.6c0,0,0,0,0,0c0,0,0,0,0,0h-0.1v-0.4h-1.4v0.4L129.8,57.1
		C129.8,57.1,129.8,57.1,129.8,57.1z"/>
	<path class="st5" d="M129.8,58.9v-1.6c0,0,0,0,0,0h0.1v0.4h1.4v-0.4h0.1c0,0,0,0,0,0v1.6c0,0,0,0,0,0L129.8,58.9
		C129.8,58.9,129.8,58.9,129.8,58.9z"/>
	<path class="st7" d="M129.9,57.9v-0.2h1.4v0.2c0,0.4-0.3,0.7-0.7,0.7C130.2,58.6,129.9,58.2,129.9,57.9
		C129.9,57.9,129.9,57.9,129.9,57.9z"/>
	<path class="st7" d="M129.9,56.7v-0.2c0-0.4,0.3-0.7,0.7-0.7c0.4,0,0.7,0.3,0.7,0.7v0.2H129.9z"/>
</g>
<rect x="129.9" y="56.6" class="st19" width="1.4" height="1"/>
<rect x="129.9" y="56.6" class="st17" width="1.4" height="1"/>
<rect x="129.9" y="56.6" class="st16" width="1.4" height="1"/>
<g id="Artwork_3-39">
	<path class="st5" d="M127,57.1v-1.6c0,0,0,0,0,0h1.6c0,0,0,0,0,0v1.6c0,0,0,0,0,0c0,0,0,0,0,0h-0.1v-0.4h-1.4v0.4L127,57.1
		C127,57.1,127,57.1,127,57.1z"/>
	<path class="st5" d="M127,58.9v-1.6c0,0,0,0,0,0h0.1v0.4h1.4v-0.4h0.1c0,0,0,0,0,0v1.6c0,0,0,0,0,0L127,58.9
		C127,58.9,127,58.9,127,58.9z"/>
	<path class="st7" d="M127.1,57.9v-0.2h1.4v0.2c0,0.4-0.3,0.7-0.7,0.7C127.4,58.6,127.1,58.2,127.1,57.9
		C127.1,57.9,127.1,57.9,127.1,57.9z"/>
	<path class="st7" d="M127.1,56.7v-0.2c0-0.4,0.3-0.7,0.7-0.7c0.4,0,0.7,0.3,0.7,0.7v0.2H127.1z"/>
</g>
<rect x="127.1" y="56.6" class="st19" width="1.4" height="1"/>
<rect x="127.1" y="56.6" class="st17" width="1.4" height="1"/>
<rect x="127.1" y="56.6" class="st16" width="1.4" height="1"/>
<g id="Artwork_3-40">
	<path class="st5" d="M114.7,43.3v-1.6c0,0,0,0,0,0h1.6c0,0,0,0,0,0v1.6c0,0,0,0,0,0c0,0,0,0,0,0h-0.1v-0.4h-1.4v0.4L114.7,43.3
		C114.7,43.3,114.7,43.3,114.7,43.3z"/>
	<path class="st5" d="M114.7,45.2v-1.6c0,0,0,0,0,0h0.1v0.4h1.4v-0.4h0.1c0,0,0,0,0,0v1.6c0,0,0,0,0,0L114.7,45.2
		C114.7,45.2,114.7,45.2,114.7,45.2z"/>
	<path class="st7" d="M114.8,44.1v-0.2h1.4v0.2c0,0.4-0.3,0.7-0.7,0.7C115.1,44.8,114.8,44.5,114.8,44.1
		C114.8,44.1,114.8,44.1,114.8,44.1z"/>
	<path class="st7" d="M114.8,42.9v-0.2c0-0.4,0.3-0.7,0.7-0.7c0.4,0,0.7,0.3,0.7,0.7v0.2H114.8z"/>
</g>
<rect x="114.8" y="42.9" class="st19" width="1.4" height="1"/>
<rect x="114.8" y="42.9" class="st17" width="1.4" height="1"/>
<rect x="114.8" y="42.9" class="st16" width="1.4" height="1"/>
<g id="Artwork_3-41">
	<path class="st5" d="M106.5,56h-1.6c0,0,0,0,0,0v-1.6c0,0,0,0,0,0h1.6c0,0,0,0,0,0c0,0,0,0,0,0v0.1h-0.4v1.4h0.4L106.5,56
		C106.5,55.9,106.5,56,106.5,56z"/>
	<path class="st5" d="M108.3,56h-1.6c0,0,0,0,0,0v-0.1h0.4v-1.4h-0.4v-0.1c0,0,0,0,0,0h1.6c0,0,0,0,0,0L108.3,56
		C108.3,55.9,108.3,56,108.3,56z"/>
	<path class="st7" d="M107.3,55.8h-0.2v-1.4h0.2c0.4,0,0.7,0.3,0.7,0.7C108,55.5,107.6,55.8,107.3,55.8
		C107.3,55.8,107.3,55.8,107.3,55.8z"/>
	<path class="st7" d="M106.1,55.8h-0.2c-0.4,0-0.7-0.3-0.7-0.7c0-0.4,0.3-0.7,0.7-0.7h0.2V55.8z"/>
</g>
<rect x="106.1" y="54.4" class="st19" width="1" height="1.4"/>
<rect x="106.1" y="54.4" class="st17" width="1" height="1.4"/>
<rect x="106.1" y="54.4" class="st16" width="1" height="1.4"/>
</svg>
