<svg width="1800" height="800" viewBox="0 0 1800 800" fill="none" xmlns="http://www.w3.org/2000/svg">
<rect width="1800" height="800" fill="white"/>
<g clip-path="url(#clip0_4_1012)">
<path d="M249 105H1550V694H249V105Z" fill="white"/>
<path d="M406.865 204.225V536.034" stroke="#CCCCCC" stroke-miterlimit="10"/>
<path d="M546.485 204.225V536.034" stroke="#CCCCCC" stroke-miterlimit="10"/>
<path d="M686.104 204.225V536.034" stroke="#CCCCCC" stroke-miterlimit="10"/>
<path d="M824.137 204.225V536.034" stroke="#CCCCCC" stroke-miterlimit="10"/>
<path d="M963.757 204.225V536.034" stroke="#CCCCCC" stroke-miterlimit="10"/>
<path d="M1103.38 204.225V536.034" stroke="#CCCCCC" stroke-miterlimit="10"/>
<path d="M1241.41 204.225V536.034" stroke="#CCCCCC" stroke-miterlimit="10"/>
<path d="M1381.03 204.225V536.034" stroke="#CCCCCC" stroke-miterlimit="10"/>
<path d="M1520.65 204.225V536.034" stroke="#CCCCCC" stroke-miterlimit="10"/>
<path d="M406.865 536.034H1520.65" stroke="#333333" stroke-miterlimit="10"/>
<path d="M406.865 480.468H1520.65" stroke="#CCCCCC" stroke-miterlimit="10"/>
<path d="M406.865 424.902H1520.65" stroke="#CCCCCC" stroke-miterlimit="10"/>
<path d="M406.865 369.336H1520.65" stroke="#CCCCCC" stroke-miterlimit="10"/>
<path d="M406.865 313.77H1520.65" stroke="#CCCCCC" stroke-miterlimit="10"/>
<path d="M406.865 259.791H1520.65" stroke="#CCCCCC" stroke-miterlimit="10"/>
<path d="M406.865 204.225H1520.65" stroke="#CCCCCC" stroke-miterlimit="10"/>
<path d="M406.865 521.745H1520.65" stroke="#E6E6E6" stroke-miterlimit="10"/>
<path d="M406.865 507.457H1520.65" stroke="#E6E6E6" stroke-miterlimit="10"/>
<path d="M406.865 493.168H1520.65" stroke="#E6E6E6" stroke-miterlimit="10"/>
<path d="M406.865 466.179H1520.65" stroke="#E6E6E6" stroke-miterlimit="10"/>
<path d="M406.865 451.891H1520.65" stroke="#E6E6E6" stroke-miterlimit="10"/>
<path d="M406.865 439.19H1520.65" stroke="#E6E6E6" stroke-miterlimit="10"/>
<path d="M406.865 410.613H1520.65" stroke="#E6E6E6" stroke-miterlimit="10"/>
<path d="M406.865 397.912H1520.65" stroke="#E6E6E6" stroke-miterlimit="10"/>
<path d="M406.865 383.624H1520.65" stroke="#E6E6E6" stroke-miterlimit="10"/>
<path d="M406.865 356.635H1520.65" stroke="#E6E6E6" stroke-miterlimit="10"/>
<path d="M406.865 342.346H1520.65" stroke="#E6E6E6" stroke-miterlimit="10"/>
<path d="M406.865 328.058H1520.65" stroke="#E6E6E6" stroke-miterlimit="10"/>
<path d="M406.865 301.069H1520.65" stroke="#E6E6E6" stroke-miterlimit="10"/>
<path d="M406.865 286.78H1520.65" stroke="#E6E6E6" stroke-miterlimit="10"/>
<path d="M406.865 272.492H1520.65" stroke="#E6E6E6" stroke-miterlimit="10"/>
<path d="M406.865 245.503H1520.65" stroke="#E6E6E6" stroke-miterlimit="10"/>
<path d="M406.865 231.214H1520.65" stroke="#E6E6E6" stroke-miterlimit="10"/>
<path d="M406.865 218.513H1520.65" stroke="#E6E6E6" stroke-miterlimit="10"/>
<path d="M406.865 536.034V204.225" stroke="black" stroke-miterlimit="10"/>
<mask id="mask0_4_1012" style="mask-type:luminance" maskUnits="userSpaceOnUse" x="406" y="204" width="1115" height="332">
<path d="M406.945 204.093H1520.57V535.372H406.945V204.093Z" fill="white"/>
</mask>
<g mask="url(#mask0_4_1012)">
<path d="M546.148 219.469L615.749 230.794L685.351 242.092L754.952 254.72L824.554 269.527L894.155 286.781L963.757 306.241L1033.36 327.243L1102.96 348.856L1172.56 370.176L1242.16 390.381L1311.76 408.963L1381.37 425.631" stroke="#34A853" stroke-width="2" stroke-miterlimit="10"/>
</g>
<mask id="mask1_4_1012" style="mask-type:luminance" maskUnits="userSpaceOnUse" x="406" y="204" width="1115" height="332">
<path d="M406.945 204.093H1520.57V535.372H406.945V204.093Z" fill="white"/>
</mask>
<g mask="url(#mask1_4_1012)">
<path d="M553.287 219.469C553.287 223.414 550.091 226.613 546.148 226.613C542.205 226.613 539.008 223.414 539.008 219.469C539.008 215.523 542.205 212.324 546.148 212.324C550.091 212.324 553.287 215.523 553.287 219.469Z" fill="#34A853"/>
</g>
<mask id="mask2_4_1012" style="mask-type:luminance" maskUnits="userSpaceOnUse" x="406" y="204" width="1115" height="332">
<path d="M406.945 204.093H1520.57V535.372H406.945V204.093Z" fill="white"/>
</mask>
<g mask="url(#mask2_4_1012)">
<path d="M622.889 230.794C622.889 234.739 619.692 237.938 615.749 237.938C611.806 237.938 608.609 234.739 608.609 230.794C608.609 226.848 611.806 223.65 615.749 223.65C619.692 223.65 622.889 226.848 622.889 230.794Z" fill="#34A853"/>
</g>
<mask id="mask3_4_1012" style="mask-type:luminance" maskUnits="userSpaceOnUse" x="406" y="204" width="1115" height="332">
<path d="M406.945 204.093H1520.57V535.372H406.945V204.093Z" fill="white"/>
</mask>
<g mask="url(#mask3_4_1012)">
<path d="M692.49 242.092C692.49 246.038 689.294 249.236 685.351 249.236C681.407 249.236 678.211 246.038 678.211 242.092C678.211 238.147 681.407 234.948 685.351 234.948C689.294 234.948 692.49 238.147 692.49 242.092Z" fill="#34A853"/>
</g>
<mask id="mask4_4_1012" style="mask-type:luminance" maskUnits="userSpaceOnUse" x="406" y="204" width="1115" height="332">
<path d="M406.945 204.093H1520.57V535.372H406.945V204.093Z" fill="white"/>
</mask>
<g mask="url(#mask4_4_1012)">
<path d="M762.092 254.72C762.092 258.666 758.895 261.864 754.952 261.864C751.009 261.864 747.812 258.666 747.812 254.72C747.812 250.774 751.009 247.576 754.952 247.576C758.895 247.576 762.092 250.774 762.092 254.72Z" fill="#34A853"/>
</g>
<mask id="mask5_4_1012" style="mask-type:luminance" maskUnits="userSpaceOnUse" x="406" y="204" width="1115" height="332">
<path d="M406.945 204.093H1520.57V535.372H406.945V204.093Z" fill="white"/>
</mask>
<g mask="url(#mask5_4_1012)">
<path d="M831.693 269.527C831.693 273.473 828.497 276.671 824.554 276.671C820.611 276.671 817.414 273.473 817.414 269.527C817.414 265.581 820.611 262.383 824.554 262.383C828.497 262.383 831.693 265.581 831.693 269.527Z" fill="#34A853"/>
</g>
<mask id="mask6_4_1012" style="mask-type:luminance" maskUnits="userSpaceOnUse" x="406" y="204" width="1115" height="332">
<path d="M406.945 204.093H1520.57V535.372H406.945V204.093Z" fill="white"/>
</mask>
<g mask="url(#mask6_4_1012)">
<path d="M901.295 286.781C901.295 290.726 898.098 293.925 894.155 293.925C890.212 293.925 887.016 290.726 887.016 286.781C887.016 282.835 890.212 279.636 894.155 279.636C898.098 279.636 901.295 282.835 901.295 286.781Z" fill="#34A853"/>
</g>
<mask id="mask7_4_1012" style="mask-type:luminance" maskUnits="userSpaceOnUse" x="406" y="204" width="1115" height="332">
<path d="M406.945 204.093H1520.57V535.372H406.945V204.093Z" fill="white"/>
</mask>
<g mask="url(#mask7_4_1012)">
<path d="M970.896 306.241C970.896 310.186 967.7 313.385 963.757 313.385C959.814 313.385 956.617 310.186 956.617 306.241C956.617 302.295 959.814 299.096 963.757 299.096C967.7 299.096 970.896 302.295 970.896 306.241Z" fill="#34A853"/>
</g>
<mask id="mask8_4_1012" style="mask-type:luminance" maskUnits="userSpaceOnUse" x="406" y="204" width="1115" height="332">
<path d="M406.945 204.093H1520.57V535.372H406.945V204.093Z" fill="white"/>
</mask>
<g mask="url(#mask8_4_1012)">
<path d="M1040.5 327.243C1040.5 331.188 1037.3 334.387 1033.36 334.387C1029.42 334.387 1026.22 331.188 1026.22 327.243C1026.22 323.297 1029.42 320.098 1033.36 320.098C1037.3 320.098 1040.5 323.297 1040.5 327.243Z" fill="#34A853"/>
</g>
<mask id="mask9_4_1012" style="mask-type:luminance" maskUnits="userSpaceOnUse" x="406" y="204" width="1115" height="332">
<path d="M406.945 204.093H1520.57V535.372H406.945V204.093Z" fill="white"/>
</mask>
<g mask="url(#mask9_4_1012)">
<path d="M1110.1 348.856C1110.1 352.801 1106.9 356 1102.96 356C1099.02 356 1095.82 352.801 1095.82 348.856C1095.82 344.91 1099.02 341.712 1102.96 341.712C1106.9 341.712 1110.1 344.91 1110.1 348.856Z" fill="#34A853"/>
</g>
<mask id="mask10_4_1012" style="mask-type:luminance" maskUnits="userSpaceOnUse" x="406" y="204" width="1115" height="332">
<path d="M406.945 204.093H1520.57V535.372H406.945V204.093Z" fill="white"/>
</mask>
<g mask="url(#mask10_4_1012)">
<path d="M1179.7 370.176C1179.7 374.122 1176.5 377.321 1172.56 377.321C1168.62 377.321 1165.42 374.122 1165.42 370.176C1165.42 366.231 1168.62 363.032 1172.56 363.032C1176.5 363.032 1179.7 366.231 1179.7 370.176Z" fill="#34A853"/>
</g>
<mask id="mask11_4_1012" style="mask-type:luminance" maskUnits="userSpaceOnUse" x="406" y="204" width="1115" height="332">
<path d="M406.945 204.093H1520.57V535.372H406.945V204.093Z" fill="white"/>
</mask>
<g mask="url(#mask11_4_1012)">
<path d="M1249.3 390.381C1249.3 394.326 1246.11 397.525 1242.16 397.525C1238.22 397.525 1235.02 394.326 1235.02 390.381C1235.02 386.435 1238.22 383.236 1242.16 383.236C1246.11 383.236 1249.3 386.435 1249.3 390.381Z" fill="#34A853"/>
</g>
<mask id="mask12_4_1012" style="mask-type:luminance" maskUnits="userSpaceOnUse" x="406" y="204" width="1115" height="332">
<path d="M406.945 204.093H1520.57V535.372H406.945V204.093Z" fill="white"/>
</mask>
<g mask="url(#mask12_4_1012)">
<path d="M1318.9 408.963C1318.9 412.909 1315.71 416.107 1311.76 416.107C1307.82 416.107 1304.62 412.909 1304.62 408.963C1304.62 405.018 1307.82 401.819 1311.76 401.819C1315.71 401.819 1318.9 405.018 1318.9 408.963Z" fill="#34A853"/>
</g>
<mask id="mask13_4_1012" style="mask-type:luminance" maskUnits="userSpaceOnUse" x="406" y="204" width="1115" height="332">
<path d="M406.945 204.093H1520.57V535.372H406.945V204.093Z" fill="white"/>
</mask>
<g mask="url(#mask13_4_1012)">
<path d="M1388.51 425.632C1388.51 429.577 1385.31 432.776 1381.37 432.776C1377.42 432.776 1374.23 429.577 1374.23 425.632C1374.23 421.686 1377.42 418.487 1381.37 418.487C1385.31 418.487 1388.51 421.686 1388.51 425.632Z" fill="#34A853"/>
</g>
<path d="M901.706 604.259H897.343V616.34H895.583V604.259H891.22V602.796H901.706V604.259ZM907.359 616.538C905.987 616.538 904.871 616.092 904.012 615.199C903.169 614.289 902.748 613.082 902.748 611.577V611.279C902.748 610.27 902.938 609.377 903.318 608.6C903.698 607.806 904.227 607.194 904.904 606.765C905.598 606.318 906.342 606.095 907.135 606.095C908.441 606.095 909.458 606.525 910.185 607.385C910.912 608.245 911.275 609.477 911.275 611.081V611.8H904.458C904.491 612.792 904.78 613.595 905.326 614.206C905.888 614.818 906.598 615.124 907.458 615.124C908.053 615.124 908.557 615 908.97 614.752C909.4 614.504 909.78 614.173 910.11 613.76L911.152 614.578C910.309 615.885 909.044 616.538 907.359 616.538ZM907.135 607.509C906.441 607.509 905.855 607.765 905.375 608.278C904.913 608.774 904.632 609.477 904.532 610.386H909.565V610.262C909.515 609.386 909.276 608.708 908.846 608.228C908.433 607.748 907.863 607.509 907.135 607.509ZM914.325 606.268L914.374 607.385C915.101 606.525 916.093 606.095 917.349 606.095C918.754 606.095 919.712 606.632 920.225 607.707C920.555 607.228 920.985 606.839 921.514 606.541C922.059 606.244 922.696 606.095 923.423 606.095C925.637 606.095 926.761 607.261 926.794 609.592V616.34H925.084V609.692C925.084 608.981 924.918 608.451 924.588 608.104C924.257 607.74 923.704 607.558 922.927 607.558C922.282 607.558 921.745 607.749 921.316 608.129C920.902 608.509 920.663 609.022 920.597 609.667V616.34H918.886V609.741C918.886 608.286 918.167 607.558 916.729 607.558C915.606 607.558 914.837 608.038 914.424 608.997V616.34H912.689V606.268H914.325ZM938.644 611.428C938.644 612.95 938.297 614.182 937.603 615.124C936.909 616.067 935.958 616.538 934.752 616.538C933.529 616.538 932.57 616.15 931.876 615.372V620.21H930.166V606.268H931.728L931.802 607.385C932.513 606.525 933.488 606.095 934.727 606.095C935.934 606.095 936.884 606.55 937.578 607.459C938.289 608.369 938.644 609.634 938.644 611.254V611.428ZM936.934 611.23C936.934 610.089 936.686 609.196 936.19 608.551C935.711 607.889 935.049 607.558 934.207 607.558C933.165 607.558 932.389 608.013 931.876 608.923V613.735C932.389 614.661 933.174 615.124 934.231 615.124C935.058 615.124 935.711 614.802 936.19 614.157C936.686 613.495 936.934 612.52 936.934 611.23ZM945.437 616.538C944.065 616.538 942.949 616.092 942.09 615.199C941.247 614.289 940.826 613.082 940.826 611.577V611.279C940.826 610.27 941.016 609.377 941.396 608.6C941.776 607.806 942.305 607.194 942.982 606.765C943.677 606.318 944.42 606.095 945.214 606.095C946.519 606.095 947.536 606.525 948.263 607.385C948.99 608.245 949.354 609.477 949.354 611.081V611.8H942.536C942.569 612.792 942.858 613.595 943.404 614.206C943.966 614.818 944.676 615.124 945.536 615.124C946.131 615.124 946.635 615 947.048 614.752C947.478 614.504 947.858 614.173 948.188 613.76L949.23 614.578C948.387 615.885 947.122 616.538 945.437 616.538ZM945.214 607.509C944.519 607.509 943.933 607.765 943.453 608.278C942.991 608.774 942.71 609.477 942.611 610.386H947.643V610.262C947.593 609.386 947.354 608.708 946.924 608.228C946.511 607.748 945.941 607.509 945.214 607.509ZM955.65 607.806C955.386 607.773 955.105 607.757 954.807 607.757C953.667 607.757 952.899 608.236 952.502 609.196V616.34H950.791V606.268H952.452L952.477 607.434C953.039 606.541 953.841 606.095 954.882 606.095C955.212 606.095 955.468 606.136 955.65 606.219V607.806ZM963.335 616.34C963.236 616.141 963.154 615.786 963.087 615.273C962.294 616.116 961.344 616.538 960.236 616.538C959.245 616.538 958.427 616.257 957.782 615.695C957.154 615.132 956.84 614.413 956.84 613.537C956.84 612.495 957.237 611.684 958.03 611.106C958.823 610.527 959.947 610.237 961.402 610.237H963.063V609.444C963.063 608.848 962.881 608.377 962.517 608.03C962.17 607.666 961.641 607.484 960.931 607.484C960.319 607.484 959.807 607.641 959.394 607.955C958.98 608.253 958.774 608.625 958.774 609.072H957.039C957.039 608.559 957.212 608.071 957.559 607.608C957.923 607.145 958.41 606.781 959.022 606.516C959.633 606.235 960.303 606.095 961.03 606.095C962.203 606.095 963.112 606.384 963.757 606.963C964.418 607.542 964.765 608.336 964.798 609.344V613.983C964.798 614.909 964.914 615.645 965.145 616.191V616.34H963.335ZM960.484 615.025C961.03 615.025 961.542 614.884 962.021 614.603C962.501 614.322 962.848 613.958 963.063 613.512V611.453H961.724C959.608 611.453 958.551 612.073 958.551 613.313C958.551 613.843 958.733 614.264 959.096 614.578C959.46 614.876 959.922 615.025 960.484 615.025ZM970.574 603.837V606.268H972.433V607.608H970.574V613.834C970.574 614.248 970.657 614.554 970.822 614.752C970.987 614.951 971.268 615.05 971.665 615.05C971.863 615.05 972.136 615.017 972.483 614.951V616.34C972.037 616.472 971.599 616.538 971.169 616.538C970.409 616.538 969.83 616.307 969.434 615.844C969.037 615.364 968.839 614.694 968.839 613.834V607.608H967.004V606.268H968.839V603.837H970.574ZM980.788 615.347C980.127 616.141 979.143 616.538 977.838 616.538C976.763 616.538 975.945 616.224 975.383 615.596C974.822 614.967 974.541 614.041 974.541 612.817V606.268H976.251V612.768C976.251 614.306 976.871 615.075 978.11 615.075C979.433 615.075 980.308 614.578 980.738 613.586V606.268H982.473V616.34H980.837L980.788 615.347ZM990.555 607.806C990.291 607.773 990.01 607.757 989.712 607.757C988.572 607.757 987.803 608.236 987.407 609.196V616.34H985.696V606.268H987.357L987.382 607.434C987.944 606.541 988.745 606.095 989.787 606.095C990.117 606.095 990.373 606.136 990.555 606.219V607.806ZM996.207 616.538C994.836 616.538 993.72 616.092 992.861 615.199C992.018 614.289 991.596 613.082 991.596 611.577V611.279C991.596 610.27 991.786 609.377 992.167 608.6C992.547 607.806 993.076 607.194 993.753 606.765C994.447 606.318 995.191 606.095 995.984 606.095C997.29 606.095 998.306 606.525 999.033 607.385C999.761 608.245 1000.12 609.477 1000.12 611.081V611.8H993.307C993.34 612.792 993.629 613.595 994.175 614.206C994.736 614.818 995.447 615.124 996.307 615.124C996.901 615.124 997.406 615 997.819 614.752C998.248 614.504 998.629 614.173 998.959 613.76L1000 614.578C999.157 615.885 997.893 616.538 996.207 616.538ZM995.984 607.509C995.29 607.509 994.703 607.765 994.224 608.278C993.761 608.774 993.48 609.477 993.381 610.386H998.414V610.262C998.364 609.386 998.124 608.708 997.695 608.228C997.282 607.748 996.711 607.509 995.984 607.509ZM1006.25 610.833C1006.25 609.444 1006.43 608.104 1006.79 606.814C1007.17 605.524 1007.73 604.35 1008.48 603.292C1009.22 602.233 1010 601.489 1010.81 601.059L1011.16 602.2C1010.25 602.895 1009.5 603.953 1008.92 605.375C1008.35 606.798 1008.03 608.393 1007.98 610.163L1007.96 610.957C1007.96 613.355 1008.4 615.43 1009.27 617.183C1009.8 618.242 1010.43 619.068 1011.16 619.664L1010.81 620.706C1009.98 620.259 1009.19 619.49 1008.43 618.399C1006.97 616.298 1006.25 613.776 1006.25 610.833ZM1012.57 605.028C1012.57 604.383 1012.8 603.821 1013.26 603.341C1013.73 602.845 1014.28 602.597 1014.92 602.597C1015.57 602.597 1016.12 602.845 1016.59 603.341C1017.05 603.821 1017.28 604.383 1017.28 605.028C1017.28 605.69 1017.05 606.252 1016.59 606.715C1016.12 607.178 1015.57 607.409 1014.92 607.409C1014.28 607.409 1013.73 607.178 1013.26 606.715C1012.8 606.252 1012.57 605.69 1012.57 605.028ZM1014.92 606.219C1015.27 606.219 1015.55 606.111 1015.77 605.896C1016 605.665 1016.11 605.375 1016.11 605.028C1016.11 604.664 1016 604.367 1015.77 604.135C1015.55 603.904 1015.27 603.788 1014.92 603.788C1014.59 603.788 1014.31 603.912 1014.08 604.16C1013.85 604.408 1013.73 604.697 1013.73 605.028C1013.73 605.359 1013.85 605.64 1014.08 605.871C1014.31 606.103 1014.59 606.219 1014.92 606.219ZM1029.23 612.048C1029.06 613.47 1028.53 614.578 1027.64 615.372C1026.75 616.15 1025.57 616.538 1024.1 616.538C1022.49 616.538 1021.21 615.968 1020.25 614.827C1019.3 613.669 1018.82 612.123 1018.82 610.188V608.898C1018.82 607.641 1019.04 606.533 1019.49 605.574C1019.93 604.615 1020.57 603.879 1021.39 603.366C1022.22 602.853 1023.17 602.597 1024.25 602.597C1025.68 602.597 1026.83 603.002 1027.69 603.813C1028.57 604.623 1029.08 605.731 1029.23 607.137H1027.44C1027.28 606.062 1026.94 605.284 1026.43 604.805C1025.91 604.325 1025.19 604.085 1024.25 604.085C1023.1 604.085 1022.21 604.507 1021.57 605.351C1020.92 606.194 1020.6 607.393 1020.6 608.947V610.262C1020.6 611.734 1020.91 612.908 1021.52 613.785C1022.13 614.645 1022.99 615.075 1024.1 615.075C1025.09 615.075 1025.85 614.851 1026.38 614.405C1026.91 613.942 1027.26 613.156 1027.44 612.048H1029.23ZM1035.67 610.932C1035.67 612.321 1035.49 613.652 1035.13 614.926C1034.76 616.183 1034.2 617.349 1033.44 618.423C1032.7 619.498 1031.92 620.259 1031.11 620.706L1030.74 619.664C1031.7 618.936 1032.47 617.803 1033.05 616.265C1033.62 614.711 1033.92 612.999 1033.94 611.13V610.833C1033.94 609.526 1033.8 608.311 1033.52 607.186C1033.25 606.062 1032.87 605.061 1032.38 604.185C1031.9 603.292 1031.35 602.597 1030.74 602.101L1031.11 601.059C1031.92 601.506 1032.7 602.258 1033.44 603.316C1034.19 604.375 1034.74 605.549 1035.1 606.839C1035.48 608.112 1035.67 609.477 1035.67 610.932Z" fill="black"/>
<path d="M285.397 424.281V428.647H297.47V430.409H285.397V434.774H283.935V424.281H285.397ZM297.47 420.933V422.644H287.405V420.933H297.47ZM284.753 422.793C284.472 422.793 284.232 422.71 284.034 422.545C283.835 422.363 283.736 422.107 283.736 421.776C283.736 421.445 283.835 421.197 284.034 421.032C284.232 420.85 284.472 420.759 284.753 420.759C285.017 420.759 285.249 420.85 285.447 421.032C285.629 421.197 285.72 421.445 285.72 421.776C285.72 422.107 285.629 422.363 285.447 422.545C285.249 422.71 285.017 422.793 284.753 422.793ZM287.405 416.418L288.521 416.368C287.661 415.641 287.232 414.648 287.232 413.391C287.232 411.986 287.769 411.027 288.843 410.514C288.364 410.183 287.975 409.753 287.678 409.224C287.381 408.678 287.232 408.042 287.232 407.314C287.232 405.098 288.397 403.973 290.727 403.94H297.47V405.652H290.826C290.116 405.652 289.587 405.817 289.24 406.148C288.876 406.479 288.694 407.033 288.694 407.81C288.694 408.455 288.884 408.992 289.265 409.422C289.645 409.836 290.157 410.076 290.802 410.142H297.47V411.853H290.876C289.422 411.853 288.694 412.573 288.694 414.012C288.694 415.136 289.174 415.905 290.132 416.319H297.47V418.055H287.405V416.418ZM297.669 396.399C297.669 397.772 297.222 398.888 296.33 399.748C295.421 400.591 294.214 401.013 292.71 401.013H292.413C291.405 401.013 290.512 400.823 289.736 400.443C288.942 400.062 288.331 399.533 287.901 398.855C287.455 398.16 287.232 397.416 287.232 396.622C287.232 395.316 287.661 394.299 288.521 393.571C289.38 392.844 290.612 392.48 292.215 392.48H292.934V399.301C293.925 399.268 294.727 398.979 295.338 398.433C295.95 397.871 296.255 397.16 296.255 396.3C296.255 395.705 296.132 395.2 295.884 394.787C295.636 394.357 295.305 393.976 294.892 393.646L295.71 392.604C297.016 393.447 297.669 394.712 297.669 396.399ZM288.645 396.622C288.645 397.317 288.901 397.904 289.413 398.384C289.909 398.847 290.612 399.128 291.52 399.227V394.191H291.397C290.521 394.241 289.843 394.481 289.364 394.911C288.884 395.324 288.645 395.895 288.645 396.622ZM291.967 386.353C290.578 386.353 289.24 386.171 287.951 385.807C286.662 385.427 285.488 384.864 284.43 384.12C283.373 383.376 282.629 382.599 282.199 381.788L283.34 381.441C284.034 382.351 285.092 383.095 286.513 383.674C287.934 384.252 289.529 384.567 291.297 384.616L292.091 384.641C294.487 384.641 296.561 384.203 298.313 383.326C299.371 382.797 300.197 382.169 300.792 381.441L301.833 381.788C301.387 382.615 300.619 383.409 299.528 384.17C297.429 385.625 294.909 386.353 291.967 386.353ZM288.62 378.216C287.695 377.455 287.232 376.463 287.232 375.239C287.232 373.106 288.43 372.031 290.826 372.015H297.47V373.751H290.802C290.091 373.751 289.562 373.916 289.215 374.247C288.868 374.561 288.694 375.066 288.694 375.76C288.694 376.323 288.843 376.819 289.141 377.249C289.438 377.662 289.826 377.985 290.306 378.216H297.47V379.928H283.191V378.216H288.62ZM292.339 369.286C291.363 369.286 290.479 369.096 289.686 368.715C288.893 368.318 288.289 367.773 287.876 367.078C287.447 366.384 287.232 365.598 287.232 364.722C287.232 363.349 287.703 362.241 288.645 361.398C289.587 360.538 290.851 360.108 292.438 360.108H292.562C293.537 360.108 294.413 360.298 295.189 360.678C295.966 361.058 296.578 361.596 297.024 362.291C297.454 362.985 297.669 363.787 297.669 364.697C297.669 366.053 297.197 367.161 296.255 368.021C295.297 368.864 294.033 369.286 292.463 369.286H292.339ZM292.562 367.549C293.669 367.549 294.561 367.293 295.239 366.78C295.917 366.251 296.255 365.557 296.255 364.697C296.255 363.82 295.917 363.126 295.239 362.613C294.545 362.1 293.578 361.844 292.339 361.844C291.248 361.844 290.364 362.109 289.686 362.638C288.992 363.15 288.645 363.845 288.645 364.722C288.645 365.565 288.984 366.251 289.661 366.78C290.322 367.293 291.289 367.549 292.562 367.549ZM296.479 351.5C297.272 352.161 297.669 353.145 297.669 354.452C297.669 355.527 297.355 356.345 296.726 356.908C296.098 357.47 295.173 357.751 293.95 357.751H287.405V356.039H293.9C295.437 356.039 296.206 355.419 296.206 354.179C296.206 352.856 295.71 351.979 294.718 351.549H287.405V349.813H297.47V351.45L296.479 351.5ZM288.942 341.726C288.909 341.991 288.893 342.272 288.893 342.57C288.893 343.711 289.372 344.48 290.331 344.877H297.47V346.588H287.405V344.926L288.57 344.901C287.678 344.339 287.232 343.537 287.232 342.495C287.232 342.164 287.273 341.908 287.356 341.726H288.942ZM294.793 334.383C294.33 334.383 293.975 334.565 293.727 334.929C293.462 335.277 293.239 335.888 293.058 336.765C292.876 337.625 292.653 338.311 292.388 338.824C292.124 339.336 291.818 339.717 291.471 339.965C291.107 340.196 290.678 340.312 290.182 340.312C289.355 340.312 288.661 339.965 288.099 339.27C287.521 338.576 287.232 337.683 287.232 336.591C287.232 335.45 287.529 334.532 288.124 333.838C288.703 333.127 289.446 332.771 290.355 332.771V334.483C289.893 334.483 289.496 334.689 289.165 335.103C288.818 335.5 288.645 335.996 288.645 336.591C288.645 337.22 288.785 337.716 289.066 338.08C289.331 338.427 289.678 338.601 290.107 338.601C290.521 338.601 290.835 338.435 291.049 338.104C291.264 337.774 291.471 337.178 291.669 336.318C291.851 335.458 292.074 334.764 292.339 334.235C292.603 333.705 292.925 333.317 293.305 333.069C293.686 332.804 294.14 332.672 294.669 332.672C295.578 332.672 296.305 333.036 296.85 333.763C297.396 334.474 297.669 335.401 297.669 336.542C297.669 337.352 297.528 338.071 297.247 338.7C296.95 339.312 296.545 339.791 296.032 340.139C295.52 340.486 294.966 340.659 294.371 340.659V338.948C294.95 338.915 295.413 338.683 295.76 338.253C296.09 337.823 296.255 337.253 296.255 336.542C296.255 335.897 296.123 335.376 295.859 334.979C295.594 334.582 295.239 334.383 294.793 334.383ZM292.066 326.743C293.454 326.743 294.785 326.925 296.057 327.289C297.313 327.653 298.478 328.215 299.553 328.976C300.627 329.72 301.387 330.497 301.833 331.308L300.792 331.68C300.065 330.72 298.933 329.951 297.396 329.373C295.842 328.794 294.132 328.496 292.264 328.48H291.967C290.661 328.48 289.446 328.62 288.323 328.901C287.199 329.166 286.199 329.546 285.323 330.042C284.43 330.522 283.736 331.068 283.241 331.68L282.199 331.308C282.646 330.497 283.398 329.72 284.455 328.976C285.513 328.232 286.686 327.678 287.975 327.314C289.248 326.933 290.612 326.743 292.066 326.743Z" fill="black"/>
<path d="M395.938 536.736C395.938 538.754 395.591 540.259 394.896 541.251C394.219 542.227 393.145 542.715 391.674 542.715C390.236 542.715 389.17 542.235 388.476 541.276C387.782 540.317 387.418 538.878 387.385 536.96V534.678C387.385 532.677 387.724 531.196 388.401 530.237C389.095 529.262 390.178 528.774 391.649 528.774C393.103 528.774 394.178 529.245 394.872 530.188C395.566 531.114 395.921 532.553 395.938 534.504V536.736ZM394.202 534.38C394.202 532.925 393.996 531.866 393.583 531.205C393.186 530.527 392.541 530.188 391.649 530.188C390.773 530.188 390.128 530.527 389.715 531.205C389.319 531.866 389.12 532.883 389.12 534.256V537.009C389.12 538.465 389.327 539.548 389.74 540.259C390.17 540.954 390.814 541.301 391.674 541.301C392.517 541.301 393.145 540.97 393.558 540.309C393.971 539.647 394.186 538.613 394.202 537.208V534.38Z" fill="black"/>
<path d="M337.556 487.303H335.846V475.843L332.375 477.108V475.545L337.308 473.685H337.556V487.303ZM351.513 481.523C351.513 483.541 351.166 485.046 350.472 486.038C349.794 487.014 348.72 487.502 347.249 487.502C345.811 487.502 344.745 487.022 344.051 486.063C343.357 485.104 342.994 483.665 342.961 481.747V479.464C342.961 477.463 343.299 475.983 343.977 475.024C344.671 474.048 345.754 473.561 347.225 473.561C348.679 473.561 349.753 474.032 350.447 474.975C351.141 475.901 351.497 477.339 351.513 479.291V481.523ZM349.778 479.167C349.778 477.711 349.571 476.653 349.158 475.992C348.762 475.314 348.117 474.975 347.225 474.975C346.349 474.975 345.704 475.314 345.291 475.992C344.894 476.653 344.696 477.67 344.696 479.043V481.796C344.696 483.252 344.902 484.335 345.316 485.046C345.745 485.74 346.39 486.088 347.249 486.088C348.092 486.088 348.72 485.757 349.133 485.095C349.547 484.434 349.761 483.4 349.778 481.995V479.167ZM362.619 481.523C362.619 483.541 362.272 485.046 361.578 486.038C360.901 487.014 359.826 487.502 358.355 487.502C356.918 487.502 355.852 487.022 355.157 486.063C354.463 485.104 354.1 483.665 354.067 481.747V479.464C354.067 477.463 354.405 475.983 355.083 475.024C355.777 474.048 356.86 473.561 358.331 473.561C359.785 473.561 360.859 474.032 361.553 474.975C362.247 475.901 362.603 477.339 362.619 479.291V481.523ZM360.884 479.167C360.884 477.711 360.677 476.653 360.264 475.992C359.868 475.314 359.223 474.975 358.331 474.975C357.455 474.975 356.81 475.314 356.397 475.992C356 476.653 355.802 477.67 355.802 479.043V481.796C355.802 483.252 356.009 484.335 356.422 485.046C356.851 485.74 357.496 486.088 358.355 486.088C359.198 486.088 359.826 485.757 360.239 485.095C360.653 484.434 360.868 483.4 360.884 481.995V479.167ZM373.725 481.523C373.725 483.541 373.378 485.046 372.684 486.038C372.007 487.014 370.932 487.502 369.462 487.502C368.024 487.502 366.958 487.022 366.264 486.063C365.569 485.104 365.206 483.665 365.173 481.747V479.464C365.173 477.463 365.512 475.983 366.189 475.024C366.883 474.048 367.966 473.561 369.437 473.561C370.891 473.561 371.965 474.032 372.659 474.975C373.354 475.901 373.709 477.339 373.725 479.291V481.523ZM371.99 479.167C371.99 477.711 371.784 476.653 371.37 475.992C370.974 475.314 370.329 474.975 369.437 474.975C368.561 474.975 367.916 475.314 367.503 475.992C367.106 476.653 366.908 477.67 366.908 479.043V481.796C366.908 483.252 367.115 484.335 367.528 485.046C367.958 485.74 368.602 486.088 369.462 486.088C370.304 486.088 370.932 485.757 371.346 485.095C371.759 484.434 371.974 483.4 371.99 481.995V479.167ZM384.832 481.523C384.832 483.541 384.484 485.046 383.79 486.038C383.113 487.014 382.039 487.502 380.568 487.502C379.13 487.502 378.064 487.022 377.37 486.063C376.676 485.104 376.312 483.665 376.279 481.747V479.464C376.279 477.463 376.618 475.983 377.295 475.024C377.989 474.048 379.072 473.561 380.543 473.561C381.997 473.561 383.071 474.032 383.766 474.975C384.46 475.901 384.815 477.339 384.832 479.291V481.523ZM383.096 479.167C383.096 477.711 382.89 476.653 382.476 475.992C382.08 475.314 381.435 474.975 380.543 474.975C379.667 474.975 379.022 475.314 378.609 475.992C378.213 476.653 378.014 477.67 378.014 479.043V481.796C378.014 483.252 378.221 484.335 378.634 485.046C379.064 485.74 379.708 486.088 380.568 486.088C381.41 486.088 382.039 485.757 382.452 485.095C382.865 484.434 383.08 483.4 383.096 481.995V479.167ZM395.938 481.523C395.938 483.541 395.591 485.046 394.896 486.038C394.219 487.014 393.145 487.502 391.674 487.502C390.236 487.502 389.17 487.022 388.476 486.063C387.782 485.104 387.418 483.665 387.385 481.747V479.464C387.385 477.463 387.724 475.983 388.401 475.024C389.095 474.048 390.178 473.561 391.649 473.561C393.103 473.561 394.178 474.032 394.872 474.975C395.566 475.901 395.921 477.339 395.938 479.291V481.523ZM394.202 479.167C394.202 477.711 393.996 476.653 393.583 475.992C393.186 475.314 392.541 474.975 391.649 474.975C390.773 474.975 390.128 475.314 389.715 475.992C389.319 476.653 389.12 477.67 389.12 479.043V481.796C389.12 483.252 389.327 484.335 389.74 485.046C390.17 485.74 390.814 486.088 391.674 486.088C392.517 486.088 393.145 485.757 393.558 485.095C393.971 484.434 394.186 483.4 394.202 481.995V479.167Z" fill="black"/>
<path d="M340.779 432.09H331.904V430.85L336.589 425.64C337.284 424.846 337.763 424.21 338.027 423.73C338.292 423.234 338.424 422.721 338.424 422.192C338.424 421.481 338.209 420.902 337.779 420.456C337.366 419.993 336.796 419.761 336.069 419.761C335.226 419.761 334.565 420.009 334.086 420.505C333.606 420.985 333.367 421.663 333.367 422.539H331.656C331.656 421.283 332.053 420.274 332.846 419.513C333.656 418.736 334.73 418.347 336.069 418.347C337.341 418.347 338.341 418.678 339.068 419.339C339.796 420.001 340.159 420.886 340.159 421.994C340.159 423.317 339.308 424.904 337.606 426.756L333.986 430.676H340.779V432.09ZM351.513 426.31C351.513 428.328 351.166 429.832 350.472 430.825C349.794 431.8 348.72 432.288 347.249 432.288C345.811 432.288 344.745 431.809 344.051 430.85C343.357 429.89 342.994 428.452 342.961 426.533V424.251C342.961 422.25 343.299 420.77 343.977 419.811C344.671 418.835 345.754 418.347 347.224 418.347C348.679 418.347 349.753 418.818 350.447 419.761C351.141 420.687 351.497 422.126 351.513 424.077V426.31ZM349.778 423.953C349.778 422.498 349.571 421.44 349.158 420.778C348.762 420.1 348.117 419.761 347.224 419.761C346.349 419.761 345.704 420.1 345.291 420.778C344.894 421.44 344.696 422.457 344.696 423.829V426.583C344.696 428.038 344.902 429.121 345.316 429.832C345.745 430.527 346.39 430.874 347.249 430.874C348.092 430.874 348.72 430.544 349.133 429.882C349.547 429.221 349.761 428.187 349.778 426.781V423.953ZM362.619 426.31C362.619 428.328 362.272 429.832 361.578 430.825C360.901 431.8 359.826 432.288 358.355 432.288C356.918 432.288 355.852 431.809 355.157 430.85C354.463 429.89 354.1 428.452 354.067 426.533V424.251C354.067 422.25 354.405 420.77 355.083 419.811C355.777 418.835 356.86 418.347 358.331 418.347C359.785 418.347 360.859 418.818 361.553 419.761C362.247 420.687 362.603 422.126 362.619 424.077V426.31ZM360.884 423.953C360.884 422.498 360.677 421.44 360.264 420.778C359.868 420.1 359.223 419.761 358.331 419.761C357.455 419.761 356.81 420.1 356.397 420.778C356 421.44 355.802 422.457 355.802 423.829V426.583C355.802 428.038 356.009 429.121 356.422 429.832C356.851 430.527 357.496 430.874 358.355 430.874C359.198 430.874 359.826 430.544 360.239 429.882C360.653 429.221 360.867 428.187 360.884 426.781V423.953ZM373.725 426.31C373.725 428.328 373.378 429.832 372.684 430.825C372.007 431.8 370.932 432.288 369.461 432.288C368.024 432.288 366.958 431.809 366.264 430.85C365.569 429.89 365.206 428.452 365.173 426.533V424.251C365.173 422.25 365.512 420.77 366.189 419.811C366.883 418.835 367.966 418.347 369.437 418.347C370.891 418.347 371.965 418.818 372.659 419.761C373.354 420.687 373.709 422.126 373.725 424.077V426.31ZM371.99 423.953C371.99 422.498 371.784 421.44 371.37 420.778C370.974 420.1 370.329 419.761 369.437 419.761C368.561 419.761 367.916 420.1 367.503 420.778C367.106 421.44 366.908 422.457 366.908 423.829V426.583C366.908 428.038 367.115 429.121 367.528 429.832C367.958 430.527 368.602 430.874 369.461 430.874C370.304 430.874 370.932 430.544 371.346 429.882C371.759 429.221 371.974 428.187 371.99 426.781V423.953ZM384.832 426.31C384.832 428.328 384.484 429.832 383.79 430.825C383.113 431.8 382.038 432.288 380.568 432.288C379.13 432.288 378.064 431.809 377.37 430.85C376.675 429.89 376.312 428.452 376.279 426.533V424.251C376.279 422.25 376.618 420.77 377.295 419.811C377.989 418.835 379.072 418.347 380.543 418.347C381.997 418.347 383.071 418.818 383.766 419.761C384.46 420.687 384.815 422.126 384.832 424.077V426.31ZM383.096 423.953C383.096 422.498 382.89 421.44 382.476 420.778C382.08 420.1 381.435 419.761 380.543 419.761C379.667 419.761 379.022 420.1 378.609 420.778C378.212 421.44 378.014 422.457 378.014 423.829V426.583C378.014 428.038 378.221 429.121 378.634 429.832C379.064 430.527 379.708 430.874 380.568 430.874C381.41 430.874 382.038 430.544 382.452 429.882C382.865 429.221 383.08 428.187 383.096 426.781V423.953ZM395.938 426.31C395.938 428.328 395.591 429.832 394.896 430.825C394.219 431.8 393.145 432.288 391.674 432.288C390.236 432.288 389.17 431.809 388.476 430.85C387.782 429.89 387.418 428.452 387.385 426.533V424.251C387.385 422.25 387.724 420.77 388.401 419.811C389.095 418.835 390.178 418.347 391.649 418.347C393.103 418.347 394.178 418.818 394.872 419.761C395.566 420.687 395.921 422.126 395.938 424.077V426.31ZM394.202 423.953C394.202 422.498 393.996 421.44 393.583 420.778C393.186 420.1 392.541 419.761 391.649 419.761C390.773 419.761 390.128 420.1 389.715 420.778C389.319 421.44 389.12 422.457 389.12 423.829V426.583C389.12 428.038 389.327 429.121 389.74 429.832C390.17 430.527 390.814 430.874 391.674 430.874C392.517 430.874 393.145 430.544 393.558 429.882C393.971 429.221 394.186 428.187 394.202 426.781V423.953Z" fill="black"/>
<path d="M334.408 369.261H335.697C336.523 369.245 337.168 369.03 337.631 368.616C338.093 368.203 338.325 367.64 338.325 366.929C338.325 365.342 337.531 364.548 335.945 364.548C335.201 364.548 334.606 364.763 334.16 365.193C333.73 365.623 333.515 366.185 333.515 366.88H331.78C331.78 365.805 332.168 364.912 332.945 364.201C333.739 363.49 334.738 363.134 335.945 363.134C337.217 363.134 338.217 363.473 338.945 364.151C339.672 364.829 340.035 365.772 340.035 366.979C340.035 367.574 339.845 368.145 339.465 368.691C339.085 369.236 338.564 369.65 337.903 369.931C338.647 370.162 339.217 370.551 339.614 371.097C340.027 371.643 340.234 372.312 340.234 373.106C340.234 374.313 339.837 375.281 339.044 376.008C338.25 376.72 337.217 377.075 335.945 377.075C334.689 377.075 333.656 376.728 332.846 376.033C332.053 375.339 331.656 374.429 331.656 373.305H333.391C333.391 374.016 333.623 374.586 334.086 375.016C334.548 375.446 335.176 375.661 335.97 375.661C336.796 375.661 337.424 375.446 337.854 375.016C338.3 374.57 338.523 373.941 338.523 373.131C338.523 372.354 338.283 371.758 337.804 371.345C337.325 370.915 336.622 370.692 335.697 370.675H334.408V369.261ZM351.513 371.097C351.513 373.114 351.166 374.619 350.472 375.612C349.794 376.587 348.72 377.075 347.249 377.075C345.811 377.075 344.745 376.596 344.051 375.636C343.357 374.677 342.994 373.238 342.961 371.32V369.038C342.961 367.037 343.299 365.557 343.977 364.598C344.671 363.622 345.754 363.134 347.224 363.134C348.679 363.134 349.753 363.605 350.447 364.548C351.141 365.474 351.497 366.913 351.513 368.864V371.097ZM349.778 368.74C349.778 367.285 349.571 366.227 349.158 365.565C348.762 364.887 348.117 364.548 347.224 364.548C346.349 364.548 345.704 364.887 345.291 365.565C344.894 366.227 344.696 367.244 344.696 368.616V371.37C344.696 372.825 344.902 373.908 345.316 374.619C345.745 375.314 346.39 375.661 347.249 375.661C348.092 375.661 348.72 375.33 349.133 374.669C349.547 374.007 349.761 372.974 349.778 371.568V368.74ZM362.619 371.097C362.619 373.114 362.272 374.619 361.578 375.612C360.901 376.587 359.826 377.075 358.355 377.075C356.918 377.075 355.852 376.596 355.157 375.636C354.463 374.677 354.1 373.238 354.067 371.32V369.038C354.067 367.037 354.405 365.557 355.083 364.598C355.777 363.622 356.86 363.134 358.331 363.134C359.785 363.134 360.859 363.605 361.553 364.548C362.247 365.474 362.603 366.913 362.619 368.864V371.097ZM360.884 368.74C360.884 367.285 360.677 366.227 360.264 365.565C359.868 364.887 359.223 364.548 358.331 364.548C357.455 364.548 356.81 364.887 356.397 365.565C356 366.227 355.802 367.244 355.802 368.616V371.37C355.802 372.825 356.009 373.908 356.422 374.619C356.851 375.314 357.496 375.661 358.355 375.661C359.198 375.661 359.826 375.33 360.239 374.669C360.653 374.007 360.867 372.974 360.884 371.568V368.74ZM373.725 371.097C373.725 373.114 373.378 374.619 372.684 375.612C372.007 376.587 370.932 377.075 369.461 377.075C368.024 377.075 366.958 376.596 366.264 375.636C365.569 374.677 365.206 373.238 365.173 371.32V369.038C365.173 367.037 365.512 365.557 366.189 364.598C366.883 363.622 367.966 363.134 369.437 363.134C370.891 363.134 371.965 363.605 372.659 364.548C373.354 365.474 373.709 366.913 373.725 368.864V371.097ZM371.99 368.74C371.99 367.285 371.784 366.227 371.37 365.565C370.974 364.887 370.329 364.548 369.437 364.548C368.561 364.548 367.916 364.887 367.503 365.565C367.106 366.227 366.908 367.244 366.908 368.616V371.37C366.908 372.825 367.115 373.908 367.528 374.619C367.958 375.314 368.602 375.661 369.461 375.661C370.304 375.661 370.932 375.33 371.346 374.669C371.759 374.007 371.974 372.974 371.99 371.568V368.74ZM384.832 371.097C384.832 373.114 384.484 374.619 383.79 375.612C383.113 376.587 382.038 377.075 380.568 377.075C379.13 377.075 378.064 376.596 377.37 375.636C376.675 374.677 376.312 373.238 376.279 371.32V369.038C376.279 367.037 376.618 365.557 377.295 364.598C377.989 363.622 379.072 363.134 380.543 363.134C381.997 363.134 383.071 363.605 383.766 364.548C384.46 365.474 384.815 366.913 384.832 368.864V371.097ZM383.096 368.74C383.096 367.285 382.89 366.227 382.476 365.565C382.08 364.887 381.435 364.548 380.543 364.548C379.667 364.548 379.022 364.887 378.609 365.565C378.212 366.227 378.014 367.244 378.014 368.616V371.37C378.014 372.825 378.221 373.908 378.634 374.619C379.064 375.314 379.708 375.661 380.568 375.661C381.41 375.661 382.038 375.33 382.452 374.669C382.865 374.007 383.08 372.974 383.096 371.568V368.74ZM395.938 371.097C395.938 373.114 395.591 374.619 394.896 375.612C394.219 376.587 393.145 377.075 391.674 377.075C390.236 377.075 389.17 376.596 388.476 375.636C387.782 374.677 387.418 373.238 387.385 371.32V369.038C387.385 367.037 387.724 365.557 388.401 364.598C389.095 363.622 390.178 363.134 391.649 363.134C393.103 363.134 394.178 363.605 394.872 364.548C395.566 365.474 395.921 366.913 395.938 368.864V371.097ZM394.202 368.74C394.202 367.285 393.996 366.227 393.583 365.565C393.186 364.887 392.541 364.548 391.649 364.548C390.773 364.548 390.128 364.887 389.715 365.565C389.319 366.227 389.12 367.244 389.12 368.616V371.37C389.12 372.825 389.327 373.908 389.74 374.619C390.17 375.314 390.814 375.661 391.674 375.661C392.517 375.661 393.145 375.33 393.558 374.669C393.971 374.007 394.186 372.974 394.202 371.568V368.74Z" fill="black"/>
<path d="M339.168 317.124H341.052V318.513H339.168V321.663H337.457V318.513H331.284V317.496L337.333 308.119H339.168V317.124ZM333.243 317.124H337.457V310.476L337.234 310.848L333.243 317.124ZM351.513 315.884C351.513 317.901 351.166 319.406 350.472 320.398C349.794 321.374 348.72 321.862 347.249 321.862C345.811 321.862 344.745 321.382 344.051 320.423C343.357 319.464 342.994 318.025 342.961 316.107V313.825C342.961 311.824 343.299 310.344 343.977 309.384C344.671 308.409 345.754 307.921 347.224 307.921C348.679 307.921 349.753 308.392 350.447 309.335C351.141 310.261 351.497 311.7 351.513 313.651V315.884ZM349.778 313.527C349.778 312.072 349.571 311.013 349.158 310.352C348.761 309.674 348.117 309.335 347.224 309.335C346.349 309.335 345.704 309.674 345.291 310.352C344.894 311.013 344.696 312.03 344.696 313.403V316.156C344.696 317.612 344.902 318.695 345.316 319.406C345.745 320.101 346.39 320.448 347.249 320.448C348.092 320.448 348.72 320.117 349.133 319.456C349.547 318.794 349.761 317.761 349.778 316.355V313.527ZM362.619 315.884C362.619 317.901 362.272 319.406 361.578 320.398C360.901 321.374 359.826 321.862 358.355 321.862C356.918 321.862 355.852 321.382 355.157 320.423C354.463 319.464 354.1 318.025 354.067 316.107V313.825C354.067 311.824 354.405 310.344 355.083 309.384C355.777 308.409 356.86 307.921 358.331 307.921C359.785 307.921 360.859 308.392 361.553 309.335C362.247 310.261 362.603 311.7 362.619 313.651V315.884ZM360.884 313.527C360.884 312.072 360.677 311.013 360.264 310.352C359.868 309.674 359.223 309.335 358.331 309.335C357.455 309.335 356.81 309.674 356.397 310.352C356 311.013 355.802 312.03 355.802 313.403V316.156C355.802 317.612 356.009 318.695 356.422 319.406C356.851 320.101 357.496 320.448 358.355 320.448C359.198 320.448 359.826 320.117 360.239 319.456C360.653 318.794 360.867 317.761 360.884 316.355V313.527ZM373.725 315.884C373.725 317.901 373.378 319.406 372.684 320.398C372.007 321.374 370.932 321.862 369.461 321.862C368.024 321.862 366.958 321.382 366.264 320.423C365.569 319.464 365.206 318.025 365.173 316.107V313.825C365.173 311.824 365.512 310.344 366.189 309.384C366.883 308.409 367.966 307.921 369.437 307.921C370.891 307.921 371.965 308.392 372.659 309.335C373.354 310.261 373.709 311.7 373.725 313.651V315.884ZM371.99 313.527C371.99 312.072 371.784 311.013 371.37 310.352C370.974 309.674 370.329 309.335 369.437 309.335C368.561 309.335 367.916 309.674 367.503 310.352C367.106 311.013 366.908 312.03 366.908 313.403V316.156C366.908 317.612 367.115 318.695 367.528 319.406C367.958 320.101 368.602 320.448 369.461 320.448C370.304 320.448 370.932 320.117 371.346 319.456C371.759 318.794 371.974 317.761 371.99 316.355V313.527ZM384.832 315.884C384.832 317.901 384.484 319.406 383.79 320.398C383.113 321.374 382.038 321.862 380.568 321.862C379.13 321.862 378.064 321.382 377.37 320.423C376.675 319.464 376.312 318.025 376.279 316.107V313.825C376.279 311.824 376.618 310.344 377.295 309.384C377.989 308.409 379.072 307.921 380.543 307.921C381.997 307.921 383.071 308.392 383.766 309.335C384.46 310.261 384.815 311.7 384.832 313.651V315.884ZM383.096 313.527C383.096 312.072 382.89 311.013 382.476 310.352C382.08 309.674 381.435 309.335 380.543 309.335C379.667 309.335 379.022 309.674 378.609 310.352C378.212 311.013 378.014 312.03 378.014 313.403V316.156C378.014 317.612 378.221 318.695 378.634 319.406C379.064 320.101 379.708 320.448 380.568 320.448C381.41 320.448 382.038 320.117 382.452 319.456C382.865 318.794 383.08 317.761 383.096 316.355V313.527ZM395.938 315.884C395.938 317.901 395.591 319.406 394.896 320.398C394.219 321.374 393.145 321.862 391.674 321.862C390.236 321.862 389.17 321.382 388.476 320.423C387.782 319.464 387.418 318.025 387.385 316.107V313.825C387.385 311.824 387.724 310.344 388.401 309.384C389.095 308.409 390.178 307.921 391.649 307.921C393.103 307.921 394.178 308.392 394.872 309.335C395.566 310.261 395.921 311.7 395.938 313.651V315.884ZM394.202 313.527C394.202 312.072 393.996 311.013 393.583 310.352C393.186 309.674 392.541 309.335 391.649 309.335C390.773 309.335 390.128 309.674 389.715 310.352C389.319 311.013 389.12 312.03 389.12 313.403V316.156C389.12 317.612 389.327 318.695 389.74 319.406C390.17 320.101 390.814 320.448 391.674 320.448C392.517 320.448 393.145 320.117 393.558 319.456C393.971 318.794 394.186 317.761 394.202 316.355V313.527Z" fill="black"/>
<path d="M332.697 259.653L333.391 252.906H340.333V254.494H334.854L334.433 258.19C335.11 257.793 335.871 257.594 336.713 257.594C337.936 257.594 338.911 258.008 339.639 258.835C340.366 259.645 340.729 260.745 340.729 262.134C340.729 263.523 340.349 264.623 339.589 265.433C338.845 266.243 337.796 266.649 336.441 266.649C335.251 266.649 334.276 266.318 333.515 265.656C332.755 264.978 332.325 264.052 332.226 262.878H333.838C333.953 263.655 334.234 264.242 334.681 264.639C335.127 265.036 335.714 265.235 336.441 265.235C337.234 265.235 337.862 264.962 338.325 264.416C338.788 263.87 339.019 263.118 339.019 262.159C339.019 261.249 338.771 260.521 338.275 259.976C337.779 259.43 337.118 259.157 336.292 259.157C335.548 259.157 334.962 259.314 334.532 259.628L334.086 260.001L332.697 259.653ZM351.513 260.67C351.513 262.688 351.166 264.193 350.472 265.185C349.794 266.161 348.72 266.649 347.249 266.649C345.811 266.649 344.745 266.169 344.051 265.21C343.357 264.251 342.994 262.812 342.961 260.894V258.611C342.961 256.61 343.299 255.13 343.977 254.171C344.671 253.195 345.754 252.708 347.225 252.708C348.679 252.708 349.753 253.179 350.447 254.121C351.141 255.048 351.497 256.486 351.513 258.438V260.67ZM349.778 258.314C349.778 256.858 349.571 255.8 349.158 255.139C348.762 254.461 348.117 254.121 347.225 254.121C346.349 254.121 345.704 254.461 345.291 255.139C344.894 255.8 344.696 256.817 344.696 258.19V260.943C344.696 262.399 344.902 263.482 345.316 264.193C345.745 264.887 346.39 265.235 347.249 265.235C348.092 265.235 348.72 264.904 349.133 264.242C349.547 263.581 349.761 262.547 349.778 261.142V258.314ZM362.619 260.67C362.619 262.688 362.272 264.193 361.578 265.185C360.901 266.161 359.826 266.649 358.355 266.649C356.918 266.649 355.852 266.169 355.157 265.21C354.463 264.251 354.1 262.812 354.067 260.894V258.611C354.067 256.61 354.405 255.13 355.083 254.171C355.777 253.195 356.86 252.708 358.331 252.708C359.785 252.708 360.859 253.179 361.553 254.121C362.247 255.048 362.603 256.486 362.619 258.438V260.67ZM360.884 258.314C360.884 256.858 360.677 255.8 360.264 255.139C359.868 254.461 359.223 254.121 358.331 254.121C357.455 254.121 356.81 254.461 356.397 255.139C356 255.8 355.802 256.817 355.802 258.19V260.943C355.802 262.399 356.009 263.482 356.422 264.193C356.851 264.887 357.496 265.235 358.355 265.235C359.198 265.235 359.826 264.904 360.239 264.242C360.653 263.581 360.867 262.547 360.884 261.142V258.314ZM373.725 260.67C373.725 262.688 373.378 264.193 372.684 265.185C372.007 266.161 370.932 266.649 369.461 266.649C368.024 266.649 366.958 266.169 366.264 265.21C365.569 264.251 365.206 262.812 365.173 260.894V258.611C365.173 256.61 365.512 255.13 366.189 254.171C366.883 253.195 367.966 252.708 369.437 252.708C370.891 252.708 371.965 253.179 372.659 254.121C373.354 255.048 373.709 256.486 373.725 258.438V260.67ZM371.99 258.314C371.99 256.858 371.784 255.8 371.37 255.139C370.974 254.461 370.329 254.121 369.437 254.121C368.561 254.121 367.916 254.461 367.503 255.139C367.106 255.8 366.908 256.817 366.908 258.19V260.943C366.908 262.399 367.115 263.482 367.528 264.193C367.958 264.887 368.602 265.235 369.461 265.235C370.304 265.235 370.932 264.904 371.346 264.242C371.759 263.581 371.974 262.547 371.99 261.142V258.314ZM384.832 260.67C384.832 262.688 384.484 264.193 383.79 265.185C383.113 266.161 382.038 266.649 380.568 266.649C379.13 266.649 378.064 266.169 377.37 265.21C376.676 264.251 376.312 262.812 376.279 260.894V258.611C376.279 256.61 376.618 255.13 377.295 254.171C377.989 253.195 379.072 252.708 380.543 252.708C381.997 252.708 383.071 253.179 383.766 254.121C384.46 255.048 384.815 256.486 384.832 258.438V260.67ZM383.096 258.314C383.096 256.858 382.89 255.8 382.476 255.139C382.08 254.461 381.435 254.121 380.543 254.121C379.667 254.121 379.022 254.461 378.609 255.139C378.213 255.8 378.014 256.817 378.014 258.19V260.943C378.014 262.399 378.221 263.482 378.634 264.193C379.064 264.887 379.708 265.235 380.568 265.235C381.41 265.235 382.038 264.904 382.452 264.242C382.865 263.581 383.08 262.547 383.096 261.142V258.314ZM395.938 260.67C395.938 262.688 395.591 264.193 394.896 265.185C394.219 266.161 393.145 266.649 391.674 266.649C390.236 266.649 389.17 266.169 388.476 265.21C387.782 264.251 387.418 262.812 387.385 260.894V258.611C387.385 256.61 387.724 255.13 388.401 254.171C389.095 253.195 390.178 252.708 391.649 252.708C393.103 252.708 394.178 253.179 394.872 254.121C395.566 255.048 395.921 256.486 395.938 258.438V260.67ZM394.202 258.314C394.202 256.858 393.996 255.8 393.583 255.139C393.186 254.461 392.541 254.121 391.649 254.121C390.773 254.121 390.128 254.461 389.715 255.139C389.319 255.8 389.12 256.817 389.12 258.19V260.943C389.12 262.399 389.327 263.482 389.74 264.193C390.17 264.887 390.814 265.235 391.674 265.235C392.517 265.235 393.145 264.904 393.558 264.242C393.971 263.581 394.186 262.547 394.202 261.142V258.314Z" fill="black"/>
<path d="M338.672 197.693V199.131H338.35C337.011 199.165 335.945 199.57 335.152 200.347C334.358 201.108 333.896 202.183 333.763 203.572C334.49 202.761 335.466 202.356 336.689 202.356C337.862 202.356 338.804 202.77 339.515 203.597C340.225 204.423 340.581 205.498 340.581 206.821C340.581 208.211 340.201 209.327 339.44 210.17C338.68 211.014 337.655 211.435 336.366 211.435C335.077 211.435 334.028 210.939 333.218 209.947C332.425 208.938 332.028 207.648 332.028 206.077V205.432C332.028 202.935 332.557 201.025 333.615 199.702C334.672 198.379 336.251 197.709 338.35 197.693H338.672ZM336.416 203.795C335.821 203.795 335.276 203.969 334.78 204.316C334.284 204.663 333.937 205.11 333.739 205.656V206.276C333.739 207.4 333.986 208.302 334.482 208.98C334.995 209.658 335.623 209.997 336.366 209.997C337.143 209.997 337.755 209.715 338.201 209.153C338.647 208.574 338.87 207.822 338.87 206.896C338.87 205.97 338.647 205.226 338.201 204.663C337.755 204.084 337.16 203.795 336.416 203.795ZM351.513 205.457C351.513 207.475 351.166 208.98 350.472 209.972C349.794 210.948 348.72 211.435 347.249 211.435C345.811 211.435 344.745 210.956 344.051 209.997C343.357 209.037 342.994 207.599 342.961 205.68V203.398C342.961 201.397 343.299 199.917 343.977 198.958C344.671 197.982 345.754 197.494 347.224 197.494C348.679 197.494 349.753 197.966 350.447 198.908C351.141 199.834 351.497 201.273 351.513 203.225V205.457ZM349.778 203.1C349.778 201.645 349.571 200.587 349.158 199.925C348.762 199.247 348.117 198.908 347.224 198.908C346.349 198.908 345.704 199.247 345.291 199.925C344.894 200.587 344.696 201.604 344.696 202.976V205.73C344.696 207.185 344.902 208.268 345.316 208.98C345.745 209.674 346.39 210.021 347.249 210.021C348.092 210.021 348.72 209.691 349.133 209.029C349.547 208.368 349.761 207.334 349.778 205.928V203.1ZM362.619 205.457C362.619 207.475 362.272 208.98 361.578 209.972C360.901 210.948 359.826 211.435 358.355 211.435C356.918 211.435 355.852 210.956 355.157 209.997C354.463 209.037 354.1 207.599 354.067 205.68V203.398C354.067 201.397 354.405 199.917 355.083 198.958C355.777 197.982 356.86 197.494 358.331 197.494C359.785 197.494 360.859 197.966 361.553 198.908C362.247 199.834 362.603 201.273 362.619 203.225V205.457ZM360.884 203.1C360.884 201.645 360.677 200.587 360.264 199.925C359.868 199.247 359.223 198.908 358.331 198.908C357.455 198.908 356.81 199.247 356.397 199.925C356 200.587 355.802 201.604 355.802 202.976V205.73C355.802 207.185 356.009 208.268 356.422 208.98C356.851 209.674 357.496 210.021 358.355 210.021C359.198 210.021 359.826 209.691 360.239 209.029C360.653 208.368 360.867 207.334 360.884 205.928V203.1ZM373.725 205.457C373.725 207.475 373.378 208.98 372.684 209.972C372.007 210.948 370.932 211.435 369.461 211.435C368.024 211.435 366.958 210.956 366.264 209.997C365.569 209.037 365.206 207.599 365.173 205.68V203.398C365.173 201.397 365.512 199.917 366.189 198.958C366.883 197.982 367.966 197.494 369.437 197.494C370.891 197.494 371.965 197.966 372.659 198.908C373.354 199.834 373.709 201.273 373.725 203.225V205.457ZM371.99 203.1C371.99 201.645 371.784 200.587 371.37 199.925C370.974 199.247 370.329 198.908 369.437 198.908C368.561 198.908 367.916 199.247 367.503 199.925C367.106 200.587 366.908 201.604 366.908 202.976V205.73C366.908 207.185 367.115 208.268 367.528 208.98C367.958 209.674 368.602 210.021 369.461 210.021C370.304 210.021 370.932 209.691 371.346 209.029C371.759 208.368 371.974 207.334 371.99 205.928V203.1ZM384.832 205.457C384.832 207.475 384.484 208.98 383.79 209.972C383.113 210.948 382.038 211.435 380.568 211.435C379.13 211.435 378.064 210.956 377.37 209.997C376.675 209.037 376.312 207.599 376.279 205.68V203.398C376.279 201.397 376.618 199.917 377.295 198.958C377.989 197.982 379.072 197.494 380.543 197.494C381.997 197.494 383.071 197.966 383.766 198.908C384.46 199.834 384.815 201.273 384.832 203.225V205.457ZM383.096 203.1C383.096 201.645 382.89 200.587 382.476 199.925C382.08 199.247 381.435 198.908 380.543 198.908C379.667 198.908 379.022 199.247 378.609 199.925C378.213 200.587 378.014 201.604 378.014 202.976V205.73C378.014 207.185 378.221 208.268 378.634 208.98C379.064 209.674 379.708 210.021 380.568 210.021C381.41 210.021 382.038 209.691 382.452 209.029C382.865 208.368 383.08 207.334 383.096 205.928V203.1ZM395.938 205.457C395.938 207.475 395.591 208.98 394.896 209.972C394.219 210.948 393.145 211.435 391.674 211.435C390.236 211.435 389.17 210.956 388.476 209.997C387.782 209.037 387.418 207.599 387.385 205.68V203.398C387.385 201.397 387.724 199.917 388.401 198.958C389.095 197.982 390.178 197.494 391.649 197.494C393.103 197.494 394.178 197.966 394.872 198.908C395.566 199.834 395.921 201.273 395.938 203.225V205.457ZM394.202 203.1C394.202 201.645 393.996 200.587 393.583 199.925C393.186 199.247 392.541 198.908 391.649 198.908C390.773 198.908 390.128 199.247 389.715 199.925C389.319 200.587 389.12 201.604 389.12 202.976V205.73C389.12 207.185 389.327 208.268 389.74 208.98C390.17 209.674 390.814 210.021 391.674 210.021C392.517 210.021 393.145 209.691 393.558 209.029C393.971 208.368 394.186 207.334 394.202 205.928V203.1Z" fill="black"/>
<path d="M402.606 563.949H400.896V552.488L397.425 553.754V552.191L402.358 550.33H402.606V563.949ZM416.563 558.169C416.563 560.187 416.216 561.692 415.522 562.684C414.844 563.66 413.77 564.147 412.299 564.147C410.861 564.147 409.795 563.668 409.101 562.709C408.407 561.749 408.044 560.311 408.011 558.392V556.11C408.011 554.109 408.349 552.629 409.027 551.67C409.721 550.694 410.804 550.206 412.275 550.206C413.729 550.206 414.803 550.678 415.497 551.62C416.191 552.546 416.547 553.985 416.563 555.937V558.169ZM414.828 555.813C414.828 554.357 414.621 553.299 414.208 552.637C413.812 551.959 413.167 551.62 412.275 551.62C411.399 551.62 410.754 551.959 410.341 552.637C409.944 553.299 409.746 554.316 409.746 555.688V558.442C409.746 559.897 409.952 560.98 410.366 561.692C410.795 562.386 411.44 562.733 412.299 562.733C413.142 562.733 413.77 562.403 414.183 561.741C414.597 561.08 414.811 560.046 414.828 558.64V555.813Z" fill="black"/>
<path d="M545.032 563.949H536.157V562.709L540.842 557.499C541.537 556.706 542.016 556.069 542.28 555.589C542.545 555.093 542.677 554.58 542.677 554.051C542.677 553.34 542.462 552.761 542.032 552.315C541.619 551.852 541.049 551.62 540.322 551.62C539.479 551.62 538.818 551.868 538.339 552.364C537.859 552.844 537.62 553.522 537.62 554.399H535.909C535.909 553.142 536.306 552.133 537.099 551.372C537.909 550.595 538.983 550.206 540.322 550.206C541.594 550.206 542.594 550.537 543.322 551.199C544.049 551.86 544.412 552.745 544.412 553.853C544.412 555.176 543.561 556.763 541.859 558.616L538.239 562.535H545.032V563.949ZM555.766 558.169C555.766 560.187 555.419 561.692 554.725 562.684C554.047 563.66 552.973 564.147 551.502 564.147C550.065 564.147 548.999 563.668 548.304 562.709C547.61 561.749 547.247 560.311 547.214 558.392V556.11C547.214 554.109 547.552 552.629 548.23 551.67C548.924 550.694 550.007 550.206 551.478 550.206C552.932 550.206 554.006 550.678 554.7 551.62C555.394 552.546 555.75 553.985 555.766 555.937V558.169ZM554.031 555.813C554.031 554.357 553.824 553.299 553.411 552.637C553.015 551.959 552.37 551.62 551.478 551.62C550.602 551.62 549.957 551.959 549.544 552.637C549.147 553.299 548.949 554.316 548.949 555.688V558.442C548.949 559.897 549.156 560.98 549.569 561.692C549.998 562.386 550.643 562.733 551.502 562.733C552.345 562.733 552.973 562.403 553.386 561.741C553.8 561.08 554.014 560.046 554.031 558.64V555.813Z" fill="black"/>
<path d="M677.864 556.333H679.153C679.979 556.317 680.624 556.102 681.087 555.688C681.549 555.275 681.781 554.713 681.781 554.002C681.781 552.414 680.988 551.62 679.401 551.62C678.657 551.62 678.062 551.835 677.616 552.265C677.186 552.695 676.971 553.257 676.971 553.952H675.236C675.236 552.877 675.625 551.984 676.401 551.273C677.195 550.562 678.194 550.206 679.401 550.206C680.673 550.206 681.673 550.545 682.401 551.223C683.128 551.901 683.491 552.844 683.491 554.051C683.491 554.647 683.301 555.217 682.921 555.763C682.541 556.309 682.02 556.722 681.359 557.003C682.103 557.235 682.673 557.623 683.07 558.169C683.483 558.715 683.69 559.385 683.69 560.178C683.69 561.386 683.293 562.353 682.5 563.081C681.706 563.792 680.673 564.147 679.401 564.147C678.145 564.147 677.112 563.8 676.302 563.106C675.509 562.411 675.112 561.501 675.112 560.377H676.848C676.848 561.088 677.079 561.659 677.542 562.089C678.004 562.518 678.632 562.733 679.426 562.733C680.252 562.733 680.88 562.518 681.31 562.089C681.756 561.642 681.979 561.014 681.979 560.203C681.979 559.426 681.739 558.831 681.26 558.417C680.781 557.987 680.079 557.764 679.153 557.747H677.864V556.333ZM694.969 558.169C694.969 560.187 694.622 561.692 693.928 562.684C693.25 563.66 692.176 564.147 690.705 564.147C689.267 564.147 688.202 563.668 687.507 562.709C686.813 561.749 686.45 560.311 686.417 558.392V556.11C686.417 554.109 686.755 552.629 687.433 551.67C688.127 550.694 689.21 550.206 690.681 550.206C692.135 550.206 693.209 550.678 693.903 551.62C694.597 552.546 694.953 553.985 694.969 555.937V558.169ZM693.234 555.813C693.234 554.357 693.027 553.299 692.614 552.637C692.218 551.959 691.573 551.62 690.681 551.62C689.805 551.62 689.16 551.959 688.747 552.637C688.35 553.299 688.152 554.316 688.152 555.688V558.442C688.152 559.897 688.359 560.98 688.772 561.692C689.201 562.386 689.846 562.733 690.705 562.733C691.548 562.733 692.176 562.403 692.589 561.741C693.003 561.08 693.217 560.046 693.234 558.64V555.813Z" fill="black"/>
<path d="M821.827 559.409H823.711V560.799H821.827V563.949H820.116V560.799H813.943V559.782L819.992 550.405H821.827V559.409ZM815.902 559.409H820.116V552.761L819.893 553.133L815.902 559.409ZM834.172 558.169C834.172 560.187 833.825 561.692 833.131 562.684C832.454 563.66 831.379 564.147 829.908 564.147C828.471 564.147 827.405 563.668 826.71 562.709C826.016 561.749 825.653 560.311 825.62 558.392V556.11C825.62 554.109 825.959 552.629 826.636 551.67C827.33 550.694 828.413 550.206 829.884 550.206C831.338 550.206 832.412 550.678 833.106 551.62C833.801 552.546 834.156 553.985 834.172 555.937V558.169ZM832.437 555.813C832.437 554.357 832.23 553.299 831.817 552.637C831.421 551.959 830.776 551.62 829.884 551.62C829.008 551.62 828.363 551.959 827.95 552.637C827.553 553.299 827.355 554.316 827.355 555.688V558.442C827.355 559.897 827.562 560.98 827.975 561.692C828.404 562.386 829.049 562.733 829.908 562.733C830.751 562.733 831.379 562.403 831.793 561.741C832.206 561.08 832.421 560.046 832.437 558.64V555.813Z" fill="black"/>
<path d="M954.559 557.152L955.254 550.405H962.195V551.992H956.716L956.295 555.688C956.972 555.292 957.733 555.093 958.576 555.093C959.798 555.093 960.774 555.507 961.501 556.333C962.228 557.144 962.592 558.244 962.592 559.633C962.592 561.022 962.211 562.122 961.451 562.932C960.707 563.742 959.658 564.147 958.303 564.147C957.113 564.147 956.138 563.817 955.378 563.155C954.617 562.477 954.188 561.551 954.088 560.377H955.7C955.815 561.154 956.096 561.741 956.543 562.138C956.989 562.535 957.576 562.733 958.303 562.733C959.096 562.733 959.724 562.461 960.187 561.915C960.65 561.369 960.881 560.617 960.881 559.657C960.881 558.748 960.633 558.02 960.137 557.475C959.641 556.929 958.98 556.656 958.154 556.656C957.41 556.656 956.824 556.813 956.394 557.127L955.948 557.499L954.559 557.152ZM973.375 558.169C973.375 560.187 973.028 561.692 972.334 562.684C971.657 563.66 970.582 564.147 969.111 564.147C967.674 564.147 966.608 563.668 965.913 562.709C965.219 561.749 964.856 560.311 964.823 558.392V556.11C964.823 554.109 965.161 552.629 965.839 551.67C966.533 550.694 967.616 550.206 969.087 550.206C970.541 550.206 971.615 550.678 972.309 551.62C973.004 552.546 973.359 553.985 973.375 555.937V558.169ZM971.64 555.813C971.64 554.357 971.433 553.299 971.02 552.637C970.624 551.959 969.979 551.62 969.087 551.62C968.211 551.62 967.566 551.959 967.153 552.637C966.756 553.299 966.558 554.316 966.558 555.688V558.442C966.558 559.897 966.765 560.98 967.178 561.692C967.607 562.386 968.252 562.733 969.111 562.733C969.954 562.733 970.582 562.403 970.995 561.741C971.409 561.08 971.624 560.046 971.64 558.64V555.813Z" fill="black"/>
<path d="M1099.74 550.405V551.844H1099.41C1098.08 551.877 1097.01 552.282 1096.22 553.059C1095.42 553.82 1094.96 554.895 1094.83 556.284C1095.56 555.474 1096.53 555.068 1097.75 555.068C1098.93 555.068 1099.87 555.482 1100.58 556.309C1101.29 557.136 1101.65 558.21 1101.65 559.533C1101.65 560.923 1101.27 562.039 1100.51 562.882C1099.75 563.726 1098.72 564.147 1097.43 564.147C1096.14 564.147 1095.09 563.651 1094.28 562.659C1093.49 561.65 1093.09 560.36 1093.09 558.789V558.144C1093.09 555.647 1093.62 553.737 1094.68 552.414C1095.74 551.091 1097.32 550.421 1099.41 550.405H1099.74ZM1097.48 556.507C1096.89 556.507 1096.34 556.681 1095.84 557.028C1095.35 557.375 1095 557.822 1094.8 558.368V558.988C1094.8 560.112 1095.05 561.014 1095.55 561.692C1096.06 562.37 1096.69 562.709 1097.43 562.709C1098.21 562.709 1098.82 562.428 1099.27 561.865C1099.71 561.286 1099.94 560.534 1099.94 559.608C1099.94 558.682 1099.71 557.938 1099.27 557.375C1098.82 556.796 1098.22 556.507 1097.48 556.507ZM1112.58 558.169C1112.58 560.187 1112.23 561.692 1111.54 562.684C1110.86 563.66 1109.79 564.147 1108.31 564.147C1106.88 564.147 1105.81 563.668 1105.12 562.709C1104.42 561.749 1104.06 560.311 1104.03 558.392V556.11C1104.03 554.109 1104.36 552.629 1105.04 551.67C1105.74 550.694 1106.82 550.206 1108.29 550.206C1109.74 550.206 1110.82 550.678 1111.51 551.62C1112.21 552.546 1112.56 553.985 1112.58 555.937V558.169ZM1110.84 555.813C1110.84 554.357 1110.64 553.299 1110.22 552.637C1109.83 551.959 1109.18 551.62 1108.29 551.62C1107.41 551.62 1106.77 551.959 1106.36 552.637C1105.96 553.299 1105.76 554.316 1105.76 555.688V558.442C1105.76 559.897 1105.97 560.98 1106.38 561.692C1106.81 562.386 1107.46 562.733 1108.31 562.733C1109.16 562.733 1109.79 562.403 1110.2 561.741C1110.61 561.08 1110.83 560.046 1110.84 558.64V555.813Z" fill="black"/>
<path d="M1240.92 551.372L1235.32 563.949H1233.51L1239.09 551.819H1231.78V550.405H1240.92V551.372ZM1251.78 558.169C1251.78 560.187 1251.43 561.692 1250.74 562.684C1250.06 563.66 1248.99 564.147 1247.52 564.147C1246.08 564.147 1245.01 563.668 1244.32 562.709C1243.63 561.749 1243.26 560.311 1243.23 558.392V556.11C1243.23 554.109 1243.57 552.629 1244.25 551.67C1244.94 550.694 1246.02 550.206 1247.49 550.206C1248.95 550.206 1250.02 550.678 1250.72 551.62C1251.41 552.546 1251.76 553.985 1251.78 555.937V558.169ZM1250.05 555.813C1250.05 554.357 1249.84 553.299 1249.43 552.637C1249.03 551.959 1248.39 551.62 1247.49 551.62C1246.62 551.62 1245.97 551.959 1245.56 552.637C1245.16 553.299 1244.96 554.316 1244.96 555.688V558.442C1244.96 559.897 1245.17 560.98 1245.58 561.692C1246.01 562.386 1246.66 562.733 1247.52 562.733C1248.36 562.733 1248.99 562.403 1249.4 561.741C1249.81 561.08 1250.03 560.046 1250.05 558.64V555.813Z" fill="black"/>
<path d="M1379.61 553.927C1379.61 554.605 1379.42 555.209 1379.06 555.738C1378.7 556.267 1378.22 556.681 1377.62 556.978C1378.32 557.276 1378.87 557.723 1379.28 558.318C1379.7 558.897 1379.9 559.558 1379.9 560.302C1379.9 561.46 1379.51 562.394 1378.71 563.106C1377.94 563.8 1376.9 564.147 1375.61 564.147C1374.31 564.147 1373.26 563.8 1372.47 563.106C1371.69 562.394 1371.3 561.46 1371.3 560.302C1371.3 559.558 1371.5 558.897 1371.9 558.318C1372.29 557.723 1372.85 557.276 1373.56 556.978C1372.96 556.681 1372.49 556.267 1372.14 555.738C1371.8 555.209 1371.62 554.605 1371.62 553.927C1371.62 552.786 1371.99 551.885 1372.71 551.223C1373.44 550.545 1374.41 550.206 1375.61 550.206C1376.8 550.206 1377.76 550.545 1378.49 551.223C1379.23 551.885 1379.61 552.786 1379.61 553.927ZM1378.19 560.253C1378.19 559.492 1377.95 558.88 1377.47 558.417C1376.99 557.938 1376.37 557.698 1375.59 557.698C1374.81 557.698 1374.18 557.938 1373.71 558.417C1373.24 558.88 1373.01 559.5 1373.01 560.278C1373.01 561.038 1373.24 561.642 1373.71 562.089C1374.17 562.518 1374.8 562.733 1375.61 562.733C1376.41 562.733 1377.04 562.51 1377.5 562.064C1377.96 561.617 1378.19 561.014 1378.19 560.253ZM1375.61 551.62C1374.94 551.62 1374.38 551.835 1373.95 552.265C1373.54 552.679 1373.33 553.249 1373.33 553.977C1373.33 554.655 1373.54 555.209 1373.95 555.639C1374.37 556.069 1374.91 556.284 1375.59 556.284C1376.28 556.284 1376.84 556.069 1377.25 555.639C1377.66 555.209 1377.87 554.655 1377.87 553.977C1377.87 553.282 1377.66 552.72 1377.23 552.29C1376.8 551.844 1376.26 551.62 1375.61 551.62ZM1390.98 558.169C1390.98 560.187 1390.64 561.692 1389.94 562.684C1389.27 563.66 1388.19 564.147 1386.72 564.147C1385.28 564.147 1384.22 563.668 1383.52 562.709C1382.83 561.749 1382.46 560.311 1382.43 558.392V556.11C1382.43 554.109 1382.77 552.629 1383.45 551.67C1384.14 550.694 1385.22 550.206 1386.7 550.206C1388.15 550.206 1389.22 550.678 1389.92 551.62C1390.61 552.546 1390.97 553.985 1390.98 555.937V558.169ZM1389.25 555.813C1389.25 554.357 1389.04 553.299 1388.63 552.637C1388.23 551.959 1387.59 551.62 1386.7 551.62C1385.82 551.62 1385.18 551.959 1384.76 552.637C1384.37 553.299 1384.17 554.316 1384.17 555.688V558.442C1384.17 559.897 1384.37 560.98 1384.79 561.692C1385.22 562.386 1385.86 562.733 1386.72 562.733C1387.56 562.733 1388.19 562.403 1388.6 561.741C1389.02 561.08 1389.23 560.046 1389.25 558.64V555.813Z" fill="black"/>
<path d="M1517.17 557.995C1516.83 558.425 1516.4 558.773 1515.88 559.037C1515.39 559.285 1514.84 559.409 1514.25 559.409C1513.47 559.409 1512.79 559.219 1512.21 558.839C1511.64 558.459 1511.19 557.921 1510.88 557.226C1510.56 556.515 1510.4 555.738 1510.4 554.895C1510.4 554.002 1510.57 553.191 1510.9 552.464C1511.25 551.736 1511.74 551.182 1512.36 550.802C1513.01 550.405 1513.75 550.206 1514.59 550.206C1515.93 550.206 1516.98 550.711 1517.74 551.719C1518.52 552.728 1518.91 554.093 1518.91 555.813V556.309C1518.91 558.955 1518.39 560.881 1517.35 562.089C1516.3 563.296 1514.73 563.916 1512.64 563.949H1512.29V562.51H1512.66C1514.08 562.477 1515.17 562.105 1515.93 561.394C1516.69 560.683 1517.11 559.55 1517.17 557.995ZM1514.52 557.995C1515.1 557.995 1515.63 557.822 1516.11 557.475C1516.6 557.111 1516.97 556.672 1517.2 556.16V555.465C1517.2 554.341 1516.95 553.423 1516.45 552.712C1515.96 552.001 1515.34 551.645 1514.59 551.645C1513.83 551.645 1513.22 551.934 1512.76 552.513C1512.31 553.092 1512.09 553.861 1512.09 554.82C1512.09 555.746 1512.31 556.507 1512.74 557.102C1513.18 557.698 1513.78 557.995 1514.52 557.995ZM1530.19 558.169C1530.19 560.187 1529.84 561.692 1529.15 562.684C1528.47 563.66 1527.39 564.147 1525.92 564.147C1524.49 564.147 1523.42 563.668 1522.73 562.709C1522.03 561.749 1521.67 560.311 1521.63 558.392V556.11C1521.63 554.109 1521.97 552.629 1522.65 551.67C1523.35 550.694 1524.43 550.206 1525.9 550.206C1527.35 550.206 1528.43 550.678 1529.12 551.62C1529.82 552.546 1530.17 553.985 1530.19 555.937V558.169ZM1528.45 555.813C1528.45 554.357 1528.25 553.299 1527.83 552.637C1527.44 551.959 1526.79 551.62 1525.9 551.62C1525.02 551.62 1524.38 551.959 1523.97 552.637C1523.57 553.299 1523.37 554.316 1523.37 555.688V558.442C1523.37 559.897 1523.58 560.98 1523.99 561.692C1524.42 562.386 1525.06 562.733 1525.92 562.733C1526.77 562.733 1527.39 562.403 1527.81 561.741C1528.22 561.08 1528.44 560.046 1528.45 558.64V555.813Z" fill="black"/>
<path d="M849.523 652.643C849.523 657.904 845.261 662.169 840.003 662.169C834.746 662.169 830.484 657.904 830.484 652.643C830.484 647.382 834.746 643.117 840.003 643.117C845.261 643.117 849.523 647.382 849.523 652.643Z" fill="#34A853"/>
<path d="M866.083 646.243L870.52 657.282L874.933 646.243H877.263V659.787H875.478V654.503L875.652 648.823L871.189 659.787H869.826L865.388 648.848L865.562 654.503V659.787H863.777V646.243H866.083ZM889.014 647.706H884.651V659.787H882.89V647.706H878.527V646.243H889.014V647.706ZM890.749 659.787V646.243H895.186C896.657 646.243 897.756 646.549 898.484 647.161C899.227 647.756 899.599 648.649 899.599 649.84C899.599 650.485 899.417 651.055 899.054 651.551C898.707 652.031 898.219 652.403 897.591 652.668C898.335 652.866 898.913 653.255 899.326 653.834C899.756 654.396 899.971 655.074 899.971 655.868C899.971 657.092 899.574 658.051 898.781 658.745C898.004 659.44 896.897 659.787 895.459 659.787H890.749ZM892.534 653.462V658.324H895.484C896.327 658.324 896.988 658.109 897.467 657.679C897.946 657.249 898.186 656.653 898.186 655.893C898.186 654.272 897.294 653.462 895.509 653.462H892.534ZM892.534 652.023H895.236C896.013 652.023 896.633 651.833 897.095 651.452C897.575 651.055 897.814 650.518 897.814 649.84C897.814 649.096 897.599 648.558 897.17 648.227C896.74 647.88 896.079 647.706 895.186 647.706H892.534V652.023ZM909.342 653.809H903.64V659.787H901.855V646.243H910.259V647.706H903.64V652.345H909.342V653.809ZM928.133 659.787H926.348V653.536H919.506V659.787H917.721V646.243H919.506V652.072H926.348V646.243H928.133V659.787ZM931.281 654.652C931.281 653.677 931.471 652.792 931.851 651.998C932.248 651.204 932.793 650.601 933.488 650.187C934.182 649.757 934.967 649.542 935.843 649.542C937.214 649.542 938.322 650.013 939.165 650.956C940.024 651.899 940.454 653.164 940.454 654.751V654.876C940.454 655.851 940.264 656.728 939.884 657.505C939.503 658.282 938.966 658.894 938.272 659.341C937.578 659.771 936.776 659.986 935.868 659.986C934.512 659.986 933.405 659.514 932.546 658.572C931.703 657.612 931.281 656.347 931.281 654.776V654.652ZM933.017 654.876C933.017 655.984 933.273 656.877 933.785 657.555C934.314 658.233 935.008 658.572 935.868 658.572C936.743 658.572 937.438 658.233 937.95 657.555C938.462 656.86 938.718 655.893 938.718 654.652C938.718 653.561 938.454 652.676 937.925 651.998C937.413 651.303 936.719 650.956 935.843 650.956C935 650.956 934.314 651.295 933.785 651.973C933.273 652.635 933.017 653.602 933.017 654.876ZM949.056 658.795C948.395 659.589 947.412 659.986 946.106 659.986C945.032 659.986 944.214 659.671 943.652 659.043C943.09 658.415 942.809 657.488 942.809 656.265V649.716H944.519V656.215C944.519 657.753 945.139 658.522 946.379 658.522C947.701 658.522 948.577 658.026 949.006 657.034V649.716H950.742V659.787H949.106L949.056 658.795ZM958.823 651.254C958.559 651.221 958.278 651.204 957.981 651.204C956.84 651.204 956.072 651.684 955.675 652.643V659.787H953.964V649.716H955.625L955.65 650.882C956.212 649.989 957.014 649.542 958.055 649.542C958.385 649.542 958.642 649.584 958.823 649.666V651.254ZM966.161 657.108C966.161 656.645 965.98 656.289 965.616 656.041C965.269 655.777 964.657 655.554 963.781 655.372C962.922 655.19 962.236 654.966 961.724 654.702C961.212 654.437 960.831 654.131 960.584 653.784C960.352 653.42 960.236 652.99 960.236 652.494C960.236 651.667 960.584 650.973 961.278 650.41C961.972 649.832 962.864 649.542 963.955 649.542C965.095 649.542 966.013 649.84 966.707 650.435C967.417 651.014 967.773 651.758 967.773 652.668H966.062C966.062 652.205 965.856 651.808 965.442 651.477C965.046 651.13 964.55 650.956 963.955 650.956C963.327 650.956 962.831 651.097 962.468 651.378C962.121 651.642 961.947 651.99 961.947 652.42C961.947 652.833 962.112 653.147 962.443 653.362C962.773 653.577 963.368 653.784 964.228 653.982C965.087 654.164 965.781 654.388 966.31 654.652C966.839 654.917 967.227 655.239 967.475 655.62C967.74 656 967.872 656.455 967.872 656.984C967.872 657.894 967.508 658.621 966.781 659.167C966.07 659.713 965.145 659.986 964.005 659.986C963.195 659.986 962.476 659.845 961.848 659.564C961.236 659.266 960.757 658.861 960.41 658.348C960.063 657.836 959.889 657.282 959.889 656.686H961.6C961.633 657.265 961.864 657.728 962.294 658.076C962.724 658.406 963.294 658.572 964.005 658.572C964.649 658.572 965.17 658.439 965.566 658.175C965.963 657.91 966.161 657.555 966.161 657.108Z" fill="#666666"/>
<path d="M285.1 156.652V164.614H280.439V142.041H289.24C290.942 142.041 292.429 142.355 293.702 142.983C294.991 143.595 295.983 144.472 296.677 145.613C297.371 146.754 297.718 148.052 297.718 149.507C297.718 151.723 296.958 153.468 295.437 154.742C293.933 156.015 291.843 156.652 289.165 156.652H285.1ZM285.1 152.881H289.24C290.479 152.881 291.421 152.592 292.066 152.013C292.71 151.434 293.033 150.607 293.033 149.532C293.033 148.441 292.702 147.556 292.041 146.878C291.397 146.183 290.504 145.828 289.364 145.811H285.1V152.881ZM300.073 156.081C300.073 154.411 300.395 152.922 301.04 151.616C301.685 150.309 302.602 149.301 303.792 148.59C304.998 147.878 306.403 147.523 308.006 147.523C310.27 147.523 312.113 148.218 313.534 149.607C314.972 150.996 315.774 152.873 315.939 155.238L315.964 156.404C315.964 158.967 315.245 161.034 313.807 162.605C312.369 164.16 310.444 164.937 308.031 164.937C305.618 164.937 303.684 164.16 302.23 162.605C300.792 161.051 300.073 158.942 300.073 156.28V156.081ZM304.56 156.404C304.56 157.991 304.858 159.207 305.453 160.05C306.048 160.894 306.907 161.315 308.031 161.315C309.122 161.315 309.965 160.902 310.56 160.075C311.171 159.231 311.477 157.9 311.477 156.081C311.477 154.51 311.171 153.295 310.56 152.435C309.965 151.575 309.113 151.145 308.006 151.145C306.899 151.145 306.048 151.575 305.453 152.435C304.858 153.295 304.56 154.618 304.56 156.404ZM327.64 152.038C327.045 151.955 326.508 151.914 326.029 151.914C324.343 151.914 323.236 152.484 322.707 153.625V164.614H318.22V147.845H322.459L322.583 149.83C323.475 148.292 324.723 147.523 326.326 147.523C326.822 147.523 327.285 147.589 327.714 147.721L327.64 152.038ZM334.705 143.703V147.845H337.556V151.12H334.705V159.504C334.705 160.116 334.821 160.563 335.052 160.844C335.284 161.108 335.738 161.241 336.416 161.241C336.912 161.241 337.35 161.199 337.73 161.117V164.515C336.854 164.796 335.953 164.937 335.028 164.937C331.888 164.937 330.284 163.349 330.218 160.174V151.12H327.764V147.845H330.218V143.703H334.705ZM348.167 164.937C345.704 164.937 343.696 164.184 342.142 162.68C340.605 161.158 339.837 159.141 339.837 156.627V156.205C339.837 154.518 340.159 153.013 340.804 151.69C341.465 150.351 342.39 149.326 343.58 148.614C344.77 147.887 346.134 147.523 347.671 147.523C349.951 147.523 351.753 148.251 353.075 149.706C354.397 151.145 355.058 153.195 355.058 155.858V157.693H344.374C344.522 158.785 344.96 159.661 345.688 160.323C346.415 160.984 347.34 161.315 348.464 161.315C350.183 161.315 351.53 160.687 352.505 159.43L354.686 161.911C354.025 162.853 353.116 163.597 351.959 164.143C350.819 164.672 349.555 164.937 348.167 164.937ZM347.646 151.145C346.753 151.145 346.026 151.451 345.464 152.062C344.919 152.658 344.572 153.51 344.423 154.618H350.646V154.27C350.629 153.278 350.365 152.509 349.852 151.963C349.34 151.418 348.605 151.145 347.646 151.145ZM362.024 147.845L362.148 149.78C363.355 148.275 364.966 147.523 366.982 147.523C368.751 147.523 370.065 148.044 370.924 149.086C371.8 150.128 372.246 151.69 372.263 153.774V164.614H367.801V153.873C367.801 152.931 367.594 152.244 367.181 151.814C366.768 151.384 366.082 151.169 365.123 151.169C363.851 151.169 362.9 151.707 362.272 152.782V164.614H357.81V147.845H362.024ZM380.716 143.703V147.845H383.567V151.12H380.716V159.504C380.716 160.116 380.832 160.563 381.063 160.844C381.295 161.108 381.749 161.241 382.427 161.241C382.923 161.241 383.361 161.199 383.741 161.117V164.515C382.865 164.796 381.964 164.937 381.039 164.937C377.898 164.937 376.295 163.349 376.229 160.174V151.12H373.775V147.845H376.229V143.703H380.716ZM396.161 164.614C395.962 164.218 395.814 163.713 395.715 163.101C394.64 164.325 393.235 164.937 391.5 164.937C389.847 164.937 388.484 164.457 387.41 163.498C386.335 162.539 385.798 161.34 385.798 159.901C385.798 158.115 386.451 156.751 387.757 155.808C389.079 154.849 390.988 154.369 393.483 154.369H395.541V153.402C395.541 152.625 395.343 152.005 394.946 151.542C394.549 151.078 393.921 150.847 393.062 150.847C392.302 150.847 391.707 151.029 391.277 151.393C390.847 151.757 390.632 152.253 390.632 152.881H386.17C386.17 151.905 386.468 151.004 387.063 150.177C387.658 149.35 388.501 148.705 389.591 148.242C390.699 147.763 391.93 147.523 393.285 147.523C395.351 147.523 396.987 148.044 398.194 149.086C399.417 150.128 400.028 151.591 400.028 153.476V160.745C400.045 162.332 400.268 163.531 400.697 164.342V164.614H396.161ZM392.467 161.489C393.128 161.489 393.731 161.348 394.277 161.067C394.839 160.769 395.26 160.373 395.541 159.876V156.974H393.855C391.624 156.974 390.434 157.751 390.285 159.306L390.261 159.579C390.261 160.141 390.459 160.604 390.856 160.968C391.252 161.315 391.789 161.489 392.467 161.489ZM420.207 149.83L424.447 142.041H429.777L423.207 153.228L429.95 164.614H424.546L420.207 156.701L415.869 164.614H410.465L417.208 153.228L410.638 142.041H415.968L420.207 149.83ZM446.981 148.044C446.981 149.135 446.708 150.111 446.163 150.971C445.618 151.814 444.866 152.484 443.907 152.98C444.998 153.51 445.857 154.237 446.485 155.163C447.13 156.089 447.452 157.181 447.452 158.438C447.452 160.439 446.766 162.026 445.394 163.2C444.039 164.358 442.188 164.937 439.841 164.937C437.511 164.937 435.652 164.35 434.264 163.176C432.892 162.002 432.206 160.422 432.206 158.438C432.206 157.181 432.528 156.089 433.173 155.163C433.817 154.221 434.685 153.493 435.776 152.98C434.801 152.484 434.04 151.814 433.495 150.971C432.966 150.111 432.702 149.135 432.702 148.044C432.702 146.126 433.338 144.596 434.611 143.455C435.9 142.297 437.643 141.718 439.841 141.718C442.023 141.718 443.758 142.289 445.047 143.43C446.337 144.554 446.981 146.092 446.981 148.044ZM442.965 158.09C442.965 157.115 442.676 156.337 442.097 155.759C441.535 155.163 440.775 154.866 439.817 154.866C438.875 154.866 438.114 155.155 437.536 155.734C436.974 156.313 436.693 157.098 436.693 158.09C436.693 159.066 436.974 159.852 437.536 160.447C438.098 161.026 438.875 161.315 439.866 161.315C440.825 161.315 441.577 161.034 442.122 160.472C442.684 159.893 442.965 159.099 442.965 158.09ZM442.494 148.267C442.494 147.374 442.263 146.663 441.8 146.134C441.337 145.605 440.684 145.34 439.841 145.34C438.999 145.34 438.346 145.605 437.883 146.134C437.42 146.646 437.189 147.358 437.189 148.267C437.189 149.16 437.42 149.88 437.883 150.425C438.346 150.971 438.999 151.244 439.841 151.244C440.701 151.244 441.354 150.971 441.8 150.425C442.263 149.88 442.494 149.16 442.494 148.267ZM466.565 156.751H457.839V153.129H466.565V156.751ZM484.836 142.041L490.637 158.413L496.413 142.041H502.512V164.614H497.851V158.438L498.297 147.796L492.224 164.614H489.026L482.952 147.796L483.423 158.438V164.614H478.762V142.041H484.836ZM524.302 145.811H517.411V164.614H512.75V145.811H505.933V142.041H524.302V145.811ZM526.36 164.614V142.041H534.268C537.012 142.041 539.086 142.57 540.49 143.628C541.912 144.67 542.622 146.2 542.622 148.218C542.622 149.326 542.333 150.301 541.755 151.145C541.193 151.988 540.408 152.608 539.4 153.005C540.557 153.286 541.466 153.873 542.127 154.766C542.804 155.643 543.143 156.71 543.143 157.966C543.143 160.149 542.449 161.803 541.061 162.928C539.672 164.036 537.697 164.598 535.136 164.614H526.36ZM531.021 154.791V160.869H534.987C536.094 160.869 536.954 160.612 537.565 160.1C538.177 159.571 538.482 158.851 538.482 157.942C538.482 155.874 537.416 154.824 535.284 154.791H531.021ZM531.021 151.492H534.466C536.797 151.459 537.962 150.524 537.962 148.689C537.962 147.663 537.664 146.928 537.069 146.481C536.491 146.035 535.557 145.811 534.268 145.811H531.021V151.492ZM560.571 155.387H551.646V164.614H546.986V142.041H561.686V145.811H551.646V151.641H560.571V155.387ZM590.741 164.614H586.08V154.94H577.031V164.614H572.371V142.041H577.031V151.194H586.08V142.041H590.741V164.614ZM593.591 156.081C593.591 154.411 593.914 152.922 594.558 151.616C595.203 150.309 596.12 149.301 597.31 148.59C598.516 147.878 599.921 147.523 601.524 147.523C603.789 147.523 605.631 148.218 607.053 149.607C608.491 150.996 609.292 152.873 609.457 155.238L609.482 156.404C609.482 158.967 608.763 161.034 607.325 162.605C605.888 164.16 603.962 164.937 601.549 164.937C599.136 164.937 597.203 164.16 595.748 162.605C594.31 161.051 593.591 158.942 593.591 156.28V156.081ZM598.079 156.404C598.079 157.991 598.376 159.207 598.971 160.05C599.566 160.894 600.425 161.315 601.549 161.315C602.64 161.315 603.483 160.902 604.078 160.075C604.689 159.231 604.995 157.9 604.995 156.081C604.995 154.51 604.689 153.295 604.078 152.435C603.483 151.575 602.632 151.145 601.524 151.145C600.417 151.145 599.566 151.575 598.971 152.435C598.376 153.295 598.079 154.618 598.079 156.404ZM621.778 162.903C620.687 164.259 619.159 164.937 617.192 164.937C615.407 164.937 614.035 164.416 613.077 163.374C612.135 162.332 611.655 160.819 611.639 158.835V147.845H616.126V158.686C616.126 160.422 616.919 161.29 618.506 161.29C620.026 161.29 621.067 160.761 621.629 159.703V147.845H626.116V164.614H621.902L621.778 162.903ZM638.611 152.038C638.016 151.955 637.479 151.914 636.999 151.914C635.314 151.914 634.206 152.484 633.678 153.625V164.614H629.19V147.845H633.43L633.554 149.83C634.446 148.292 635.694 147.523 637.297 147.523C637.793 147.523 638.256 147.589 638.685 147.721L638.611 152.038ZM649.395 159.976C649.395 159.43 649.122 159 648.577 158.686C648.031 158.372 647.164 158.09 645.974 157.842C641.974 156.999 639.974 155.304 639.974 152.757C639.974 151.269 640.594 150.028 641.834 149.036C643.073 148.027 644.684 147.523 646.668 147.523C648.8 147.523 650.502 148.027 651.775 149.036C653.047 150.028 653.683 151.327 653.683 152.931H649.221C649.221 152.302 649.015 151.781 648.601 151.368C648.188 150.938 647.544 150.723 646.668 150.723C645.907 150.723 645.321 150.897 644.908 151.244C644.494 151.575 644.288 152.005 644.288 152.534C644.288 153.03 644.519 153.435 644.982 153.749C645.461 154.047 646.255 154.312 647.362 154.543C648.486 154.758 649.428 155.006 650.188 155.287C652.551 156.147 653.733 157.652 653.733 159.802C653.733 161.323 653.08 162.564 651.775 163.523C650.469 164.466 648.775 164.937 646.693 164.937C645.288 164.937 644.04 164.689 642.949 164.193C641.858 163.68 640.999 162.986 640.371 162.109C639.759 161.233 639.454 160.29 639.454 159.281H643.693C643.742 160.075 644.04 160.687 644.585 161.117C645.131 161.53 645.866 161.737 646.792 161.737C647.651 161.737 648.296 161.58 648.725 161.266C649.172 160.935 649.395 160.505 649.395 159.976Z" fill="#757575"/>
</g>
<defs>
<clipPath id="clip0_4_1012">
<rect width="1301" height="589" fill="white" transform="translate(249 105)"/>
</clipPath>
</defs>
</svg>
