<svg xmlns="http://www.w3.org/2000/svg" viewBox="0 0 188.51 144.14"><defs><style>.cls-1{fill:#007481}.cls-2{fill:#f27b40}.cls-3{fill:#eba900}.cls-5{fill:#e65300}.cls-6{fill:#fff}.cls-7{fill:#8b7866}.cls-8{fill:#9fa1a2}.cls-9{fill:#a1a3a4}.cls-10{fill:#8c9091}.cls-11{fill:#c1c3c3}.cls-12{fill:#c3b9af}.cls-13{fill:#c3c5c6}.cls-15{fill:#2e2200}</style></defs><g id="Layer_1" data-name="Layer 1"><path d="M186.18 42.75c0-.76-.35-1.43-.88-1.88s-4.95-4.95-4.95-4.95c-.44-.44-.71-1.03-.74-1.68h-.01V5.03c0-1.37-1.11-2.47-2.47-2.47H10.63l-.25.04-.24.06-.24.09-.23.11-.22.12-.2.15-.19.17-.17.19-.15.2-.12.22-.11.23-.09.24-.06.24-.04.25v.25L8.31 138.3v.26l.05.25.06.24.09.25.11.23.12.22.15.2.17.19.19.17.2.15.22.13.23.11.24.09.24.06.25.04h.25l166.11.01h.26l.25-.05.25-.06.24-.09.23-.11.22-.13.2-.15.19-.17.17-.19.15-.2.13-.22.11-.23.09-.25.06-.24.04-.25v-.26l.01-3.99 5.84-5.84.04-.04c.43-.45.71-1.05.71-1.73z" class="cls-1"/><path d="m10.38 140.87-.24-.06-.25-.09-.23-.11-.22-.12-.2-.15-.19-.18-.17-.19-.16-.2-.12-.22-.11-.23-.09-.24-.06-.25-.04-.25-.01-.25V5.15l.01-.26.04-.25.06-.24.09-.24.11-.24.12-.21.16-.21.17-.19.19-.17.2-.15.22-.13.23-.11.25-.08.24-.06.25-.04.25-.02-.25.02-.25.04-.24.06-.25.08-.23.11-.22.13-.2.15-.19.17-.17.19-.16.21-.12.21-.11.24-.09.24-.06.24-.04.25-.01.26v133.18l.01.25.04.25.06.25.09.24.11.23.12.22.16.2.17.19.19.18.2.15.22.12.23.11.25.09zl.25.04.25.01-.25-.01z" class="cls-1"/><path d="M179.54 116.19c-2.73 0-4.96 2.23-4.96 4.96s2.23 4.96 4.96 4.96 4.96-2.23 4.96-4.96a4.96 4.96 0 0 0-4.96-4.96M46.91 4.19c-2.74 0-4.96 2.23-4.96 4.96s2.23 4.96 4.96 4.96 4.96-2.23 4.96-4.96-2.23-4.96-4.96-4.96M44.53 129.31c-2.74 0-4.96 2.23-4.96 4.96s2.23 4.96 4.96 4.96 4.96-2.23 4.96-4.96-2.23-4.96-4.96-4.96" class="cls-6"/><path d="M157.77 35.13v25.79H132V35.13z" class="cls-1"/><path d="M157.77 35.13v25.79H132V35.13z" class="cls-5"/><path d="M157.77 35.13v25.79H132V35.13z" class="cls-15"/><path d="M134.73 31.17h.81v3.96h-.81zM136.03 31.17h.81v3.96h-.81zM137.32 31.17h.81v3.96h-.81zM138.62 31.17h.81v3.96h-.81zM139.91 31.17h.81v3.96h-.81zM141.21 31.17h.81v3.96h-.81zM142.5 31.17h.81v3.96h-.81zM143.8 31.17h.81v3.96h-.81zM145.09 31.17h.81v3.96h-.81zM146.39 31.17h.81v3.96h-.81zM147.68 31.17h.81v3.96h-.81zM148.97 31.17h.81v3.96h-.81zM150.27 31.17h.81v3.96h-.81zM151.56 31.17h.81v3.96h-.81zM152.86 31.17h.81v3.96h-.81zM154.15 31.17h.81v3.96h-.81zM134.73 60.92h.81v3.96h-.81zM136.03 60.92h.81v3.96h-.81zM137.32 60.92h.81v3.96h-.81zM138.62 60.92h.81v3.96h-.81zM139.91 60.92h.81v3.96h-.81zM141.21 60.92h.81v3.96h-.81zM142.5 60.92h.81v3.96h-.81zM143.8 60.92h.81v3.96h-.81zM145.09 60.92h.81v3.96h-.81zM146.39 60.92h.81v3.96h-.81zM147.68 60.92h.81v3.96h-.81zM148.97 60.92h.81v3.96h-.81zM150.27 60.92h.81v3.96h-.81zM151.56 60.92h.81v3.96h-.81zM152.86 60.92h.81v3.96h-.81zM154.15 60.92h.81v3.96h-.81zM128.04 37.91H132v.81h-3.96zM128.04 39.2H132v.81h-3.96zM128.04 40.5H132v.81h-3.96zM128.04 41.79H132v.81h-3.96zM128.04 43.09H132v.81h-3.96zM128.04 44.38H132v.81h-3.96zM128.04 45.68H132v.81h-3.96zM128.04 46.97H132v.81h-3.96zM128.04 48.26H132v.81h-3.96zM128.04 49.56H132v.81h-3.96zM128.04 50.85H132v.81h-3.96zM128.04 52.15H132v.81h-3.96zM128.04 53.44H132v.81h-3.96zM128.04 54.74H132v.81h-3.96zM128.04 56.03H132v.81h-3.96zM128.04 57.33H132v.81h-3.96zM157.77 37.91h3.96v.81h-3.96zM157.77 39.2h3.96v.81h-3.96zM157.77 40.5h3.96v.81h-3.96zM157.77 41.79h3.96v.81h-3.96zM157.77 43.09h3.96v.81h-3.96zM157.77 44.38h3.96v.81h-3.96zM157.77 45.68h3.96v.81h-3.96zM157.77 46.97h3.96v.81h-3.96zM157.77 48.26h3.96v.81h-3.96zM157.77 49.56h3.96v.81h-3.96zM157.77 50.85h3.96v.81h-3.96zM157.77 52.15h3.96v.81h-3.96zM157.77 53.44h3.96v.81h-3.96zM157.77 54.74h3.96v.81h-3.96zM157.77 56.03h3.96v.81h-3.96zM157.77 57.33h3.96v.81h-3.96z" class="cls-10"/><path d="M123.61 5.85h6.59v6.59h-6.59z" class="cls-1"/><path d="M119.59 5.85h4.03v6.59h-4.03zM60.34 5.85h6.59v6.59h-6.59zM66.93 5.85v6.59h6.59V5.85z" class="cls-1"/><path d="M73.52 5.85v6.59h6.59V5.85zM80.11 5.85v6.59h6.59V5.85zM53.76 5.85v6.59h6.59V5.85zM93.23 5.85v6.59h6.59V5.85z" class="cls-1"/><path d="M86.64 5.85v6.59h6.59V5.85zM99.82 5.85v6.59h6.59V5.85zM113 5.85v6.59h6.59V5.85zM106.41 5.85v6.59H113V5.85zM136.79 5.85v6.59h6.59V5.85zM130.2 5.85v6.59h6.59V5.85zM149.97 12.44V5.85h-6.59v6.59M156.5 5.85v6.59h6.59V5.85zM169.68 5.85v6.59h6.59V5.85z" class="cls-1"/><path d="M149.91 5.85v6.59h6.59V5.85zM163.08 5.85h6.59v6.59h-6.59z" class="cls-1"/><path d="M123.61 5.85h6.59v6.59h-6.59z" class="cls-5"/><path d="M119.59 5.85h4.03v6.59h-4.03zM60.34 5.85h6.59v6.59h-6.59zM66.93 5.85v6.59h6.59V5.85z" class="cls-5"/><path d="M73.52 5.85v6.59h6.59V5.85zM80.11 5.85v6.59h6.59V5.85zM53.76 5.85v6.59h6.59V5.85zM93.23 5.85v6.59h6.59V5.85z" class="cls-5"/><path d="M86.64 5.85v6.59h6.59V5.85zM99.82 5.85v6.59h6.59V5.85zM113 5.85v6.59h6.59V5.85zM106.41 5.85v6.59H113V5.85zM136.79 5.85v6.59h6.59V5.85zM130.2 5.85v6.59h6.59V5.85zM149.97 12.44V5.85h-6.59v6.59M156.5 5.85v6.59h6.59V5.85zM169.68 5.85v6.59h6.59V5.85z" class="cls-5"/><path d="M149.91 5.85v6.59h6.59V5.85zM163.08 5.85h6.59v6.59h-6.59z" class="cls-5"/><path d="M123.61 5.85h6.59v6.59h-6.59z" class="cls-15"/><path d="M119.59 5.85h4.03v6.59h-4.03zM60.34 5.85h6.59v6.59h-6.59zM66.93 5.85v6.59h6.59V5.85z" class="cls-15"/><path d="M73.52 5.85v6.59h6.59V5.85zM80.11 5.85v6.59h6.59V5.85zM53.76 5.85v6.59h6.59V5.85zM93.23 5.85v6.59h6.59V5.85z" class="cls-15"/><path d="M86.64 5.85v6.59h6.59V5.85zM99.82 5.85v6.59h6.59V5.85zM113 5.85v6.59h6.59V5.85zM106.41 5.85v6.59H113V5.85zM136.79 5.85v6.59h6.59V5.85zM130.2 5.85v6.59h6.59V5.85zM149.97 12.44V5.85h-6.59v6.59M156.5 5.85v6.59h6.59V5.85zM169.68 5.85v6.59h6.59V5.85z" class="cls-15"/><path d="M149.91 5.85v6.59h6.59V5.85zM163.08 5.85h6.59v6.59h-6.59z" class="cls-15"/><path d="M62.18 65.14v40.12H8.29V65.14z"/><path d="M62.18 65.14v40.12H8.29V65.14z" class="cls-5"/><path d="M62.18 65.14v40.12H8.29V65.14z" class="cls-15"/><path d="M170.32 60.6v2.52l1.78 1.78v.51l-1.78 1.78v2.52l1.78 1.77V72l-1.78 1.78v2.51l1.78 1.78h9.1l1.78-1.78v-2.51L181.2 72v-.52l1.78-1.77v-2.52l-1.78-1.78v-.51l1.78-1.78V60.6l-1.78-1.78h-9.1z" class="cls-1"/><path d="M170.32 60.6v2.52l1.78 1.78v.51l-1.78 1.78v2.52l1.78 1.77V72l-1.78 1.78v2.51l1.78 1.78h9.1l1.78-1.78v-2.51L181.2 72v-.52l1.78-1.77v-2.52l-1.78-1.78v-.51l1.78-1.78V60.6l-1.78-1.78h-9.1z" class="cls-5"/><path d="M170.32 60.6v2.52l1.78 1.78v.51l-1.78 1.78v2.52l1.78 1.77V72l-1.78 1.78v2.51l1.78 1.78h9.1l1.78-1.78v-2.51L181.2 72v-.52l1.78-1.77v-2.52l-1.78-1.78v-.51l1.78-1.78V60.6l-1.78-1.78h-9.1z" class="cls-15"/><path d="M179.95 62.99c-.62 0-1.13-.51-1.13-1.13s.51-1.13 1.13-1.13 1.13.51 1.13 1.13-.51 1.13-1.13 1.13M173.36 76.17a1.129 1.129 0 1 1-.002-2.262 1.129 1.129 0 0 1 .002 2.262M173.36 69.58a1.129 1.129 0 1 1 1.13-1.13c0 .62-.5 1.13-1.13 1.13M173.36 62.99a1.129 1.129 0 1 1 1.13-1.13c0 .62-.5 1.13-1.13 1.13M179.95 76.17c-.62 0-1.13-.51-1.13-1.13s.51-1.13 1.13-1.13 1.13.51 1.13 1.13-.51 1.13-1.13 1.13M179.95 69.58c-.62 0-1.13-.51-1.13-1.13s.51-1.13 1.13-1.13 1.13.51 1.13 1.13-.51 1.13-1.13 1.13" class="cls-10"/><path d="M64.57 25.79h-2.52l-1.78 1.77h-.51l-1.78-1.77h-2.52l-1.77 1.77h-.52l-1.78-1.77h-2.51l-1.78 1.77v9.11l1.78 1.78h2.51l1.78-1.78h.52l1.77 1.78h2.52l1.78-1.78h.51l1.78 1.78h2.52l1.78-1.78v-9.11z" class="cls-1"/><path d="M64.57 25.79h-2.52l-1.78 1.77h-.51l-1.78-1.77h-2.52l-1.77 1.77h-.52l-1.78-1.77h-2.51l-1.78 1.77v9.11l1.78 1.78h2.51l1.78-1.78h.52l1.77 1.78h2.52l1.78-1.78h.51l1.78 1.78h2.52l1.78-1.78v-9.11z" class="cls-5"/><path d="M64.57 25.79h-2.52l-1.78 1.77h-.51l-1.78-1.77h-2.52l-1.77 1.77h-.52l-1.78-1.77h-2.51l-1.78 1.77v9.11l1.78 1.78h2.51l1.78-1.78h.52l1.77 1.78h2.52l1.78-1.78h.51l1.78 1.78h2.52l1.78-1.78v-9.11z" class="cls-15"/><path d="M62.18 35.41c0-.62.51-1.13 1.13-1.13s1.13.51 1.13 1.13-.51 1.13-1.13 1.13-1.13-.51-1.13-1.13M49.01 28.82a1.129 1.129 0 1 1 2.262-.002 1.129 1.129 0 0 1-2.262.002M55.59 28.82a1.129 1.129 0 1 1 1.13 1.13c-.62 0-1.13-.5-1.13-1.13M62.18 28.82a1.129 1.129 0 1 1 1.13 1.13c-.62 0-1.13-.5-1.13-1.13M49.01 35.41c0-.62.51-1.13 1.13-1.13s1.13.51 1.13 1.13-.51 1.13-1.13 1.13-1.13-.51-1.13-1.13M55.59 35.41c0-.62.51-1.13 1.13-1.13s1.13.51 1.13 1.13-.51 1.13-1.13 1.13-1.13-.51-1.13-1.13M16.54 4.73H32.1v15.56H16.54z" class="cls-10"/><path d="M12.22 17h3.29v3.29h-3.29z" class="cls-8"/><path d="M16.07 17.99h-2.21v1.29h4.42v-1.29z" class="cls-7"/><path d="M33.14 17h3.29v3.29h-3.29z" class="cls-8"/><path d="M32.58 19.31h2.2v-1.3h-4.41v1.3z" class="cls-7"/><path d="M12.22 4.73h3.29v3.29h-3.29z" class="cls-8"/><path d="M16.07 5.72h-2.21v1.29h4.42V5.72z" class="cls-7"/><path d="M33.14 4.73h3.29v3.29h-3.29z" class="cls-8"/><path d="M32.58 7.04h2.2v-1.3h-4.41v1.3z" class="cls-7"/><path d="M33.14 10.87h3.29v3.29h-3.29z" class="cls-8"/><path d="M32.58 13.18h2.2v-1.3h-4.41v1.3z" class="cls-7"/><path d="M28.58 12.51c0 2.35-1.9 4.26-4.26 4.26s-4.26-1.91-4.26-4.26 1.91-4.26 4.26-4.26 4.26 1.91 4.26 4.26" style="fill:#eaeaeb"/><path d="M90.67 131.03v6.59h6.59v-6.59zM97.27 131.03v6.59h6.59v-6.59zM103.86 131.03v6.59h6.59v-6.59zM110.45 131.03v6.59h6.59v-6.59zM117.04 131.03v6.59h6.59v-6.59z" class="cls-1"/><path d="M123.63 131.03v6.59h6.59v-6.59z" class="cls-1"/><path d="M130.21 131.03v6.59h6.59v-6.59zM84.12 131.03v6.59h6.59v-6.59z" class="cls-1"/><path d="M77.56 131.03v6.59h6.59v-6.59zM136.8 131.03v6.59h6.59v-6.59z" class="cls-1"/><path d="M143.39 131.03v6.59h6.59v-6.59zM149.98 131.03v6.59h6.59v-6.59zM156.57 131.03v6.59h6.59v-6.59zM163.16 131.03v6.59h6.59v-6.59zM169.75 131.03v6.59h6.59v-6.59z" class="cls-1"/><path d="M90.67 131.03v6.59h6.59v-6.59zM97.27 131.03v6.59h6.59v-6.59zM103.86 131.03v6.59h6.59v-6.59zM110.45 131.03v6.59h6.59v-6.59zM117.04 131.03v6.59h6.59v-6.59z" class="cls-5"/><path d="M123.63 131.03v6.59h6.59v-6.59z" class="cls-5"/><path d="M130.21 131.03v6.59h6.59v-6.59zM84.12 131.03v6.59h6.59v-6.59z" class="cls-5"/><path d="M77.56 131.03v6.59h6.59v-6.59zM136.8 131.03v6.59h6.59v-6.59z" class="cls-5"/><path d="M143.39 131.03v6.59h6.59v-6.59zM149.98 131.03v6.59h6.59v-6.59zM156.57 131.03v6.59h6.59v-6.59zM163.16 131.03v6.59h6.59v-6.59zM169.75 131.03v6.59h6.59v-6.59z" class="cls-5"/><path d="M90.67 131.03v6.59h6.59v-6.59zM97.27 131.03v6.59h6.59v-6.59zM103.86 131.03v6.59h6.59v-6.59zM110.45 131.03v6.59h6.59v-6.59zM117.04 131.03v6.59h6.59v-6.59z" class="cls-15"/><path d="M123.63 131.03v6.59h6.59v-6.59z" class="cls-15"/><path d="M130.21 131.03v6.59h6.59v-6.59zM84.12 131.03v6.59h6.59v-6.59z" class="cls-15"/><path d="M77.56 131.03v6.59h6.59v-6.59zM136.8 131.03v6.59h6.59v-6.59z" class="cls-15"/><path d="M143.39 131.03v6.59h6.59v-6.59zM149.98 131.03v6.59h6.59v-6.59zM156.57 131.03v6.59h6.59v-6.59zM163.16 131.03v6.59h6.59v-6.59zM169.75 131.03v6.59h6.59v-6.59z" class="cls-15"/><path d="M95.61 132.67h-3.3v3.3h3.3zM102.2 132.67h-3.29v3.3h3.29zM108.79 132.67h-3.29v3.3h3.29zM115.38 132.67h-3.29v3.3h3.29zM121.97 132.67h-3.29v3.3h3.29zM128.56 132.67h-3.29v3.3h3.29zM89.05 132.67h-3.29v3.3h3.29zM82.5 132.67h-3.3v3.3h3.3zM141.73 132.67h-3.29v3.3h3.29zM148.32 132.67h-3.29v3.3h3.29zM154.91 132.67h-3.29v3.3h3.29zM161.5 132.67h-3.29v3.3h3.29zM168.09 132.67h-3.29v3.3h3.29zM174.68 132.67h-3.29v3.3h3.29zM71.88 7.49h-3.3v3.3h3.3v-3.3M65.28 7.49h-3.3v3.3h3.3v-3.3M58.7 7.49h-3.3v3.3h3.3v-3.3M98.17 7.49h-3.29v3.3h3.29v-3.3M114.64 7.5v3.29h3.3v-3.3zM101.46 7.5v3.29h3.3V7.5h-.01v-.01zM88.29 7.5v3.29h3.3V7.5h-.01v-.01zM81.75 7.5v3.29h3.3v-3.3zM75.17 7.5l-.01 3.29h3.31V7.5h-.01v-.01zM141.73 7.49h-3.29v3.3h3.29v-3.3M131.85 7.5l-.01 3.29h3.31V7.5h-3.3M125.26 7.5v3.29h3.3V7.5h-3.3M145.02 7.5v3.29h3.3v-3.3zM151.56 7.5v3.29h3.3V7.5h-.01v-.01zM158.14 7.5v3.29h3.31V7.5h-3.31M164.73 7.5l-.01 3.29h3.31V7.5h-3.3M171.32 7.5v3.29h3.3v-3.3zM108.05 7.5v3.29h3.3v-3.3z" class="cls-7"/><path d="M179.54 43.72c-2.73 0-4.96 2.22-4.96 4.96s2.23 4.96 4.96 4.96 4.96-2.23 4.96-4.96a4.96 4.96 0 0 0-4.96-4.96" class="cls-6"/><path d="M78.36 89.95h12.4v12.4h-12.4zM27.45 50.24h8.59v12.4h-8.59zM25.91 66.74h35.03v36.74H25.91z" class="cls-10"/><path d="M72.58 79.77h10.25v7.8H72.58z" class="cls-1"/><path d="M72.58 79.77h10.25v7.8H72.58z" class="cls-5"/><path d="M72.58 79.77h10.25v7.8H72.58z" class="cls-15"/><path d="M81.21 79.19v.58h-.58v-.58zM79.93 79.19v.58h-.58v-.58zM78.64 79.2v.58h-.58v-.58zM77.35 79.19v.58h-.58v-.58zM76.07 79.19v.58h-.58v-.58zM74.78 79.19v.58h-.58v-.58zM81.21 87.57v.58h-.58v-.58zM79.93 87.57v.58h-.58v-.58zM78.64 87.57v.58h-.58v-.58zM77.35 87.57v.58h-.58v-.58zM76.07 87.57v.58h-.58v-.58zM74.78 87.57v.58h-.58v-.58z" class="cls-10"/><circle cx="27.15" cy="32.71" r="1.17" class="cls-10"/><circle cx="27.15" cy="35.94" r="1.17" class="cls-10"/><circle cx="31.73" cy="47.68" r="1.17" class="cls-10"/><circle cx="17.4" cy="61.26" r="1.17" class="cls-10"/><circle cx="44.63" cy="63.18" r="1.17" class="cls-10"/><circle cx="47.98" cy="63.14" r="1.17" class="cls-10"/><circle cx="44.63" cy="59.91" r="1.17" class="cls-10"/><circle cx="47.98" cy="59.87" r="1.17" class="cls-10"/><circle cx="38.02" cy="63.18" r="1.17" class="cls-10"/><circle cx="41.44" cy="63.18" r="1.17" class="cls-10"/><circle cx="57.78" cy="63.18" r="1.17" class="cls-10"/><circle cx="62.11" cy="63.18" r="1.17" class="cls-10"/><circle cx="124.01" cy="51.32" r="1.17" class="cls-10"/><circle cx="165.46" cy="54.25" r="1.17" class="cls-10"/><circle cx="169.41" cy="54.25" r="1.17" class="cls-10"/><circle cx="165.46" cy="62.69" r="1.17" class="cls-10"/><circle cx="176.65" cy="81.73" r="1.17" class="cls-10"/><circle cx="176.65" cy="94" r="1.17" class="cls-10"/><circle cx="169.77" cy="94" r="1.17" class="cls-10"/><circle cx="169.77" cy="97.37" r="1.17" class="cls-10"/><circle cx="172.97" cy="113.63" r="1.17" class="cls-10"/><circle cx="75.22" cy="70.35" r="1.17" class="cls-10"/><circle cx="67.6" cy="90.69" r="1.17" class="cls-10"/><circle cx="54.54" cy="107.9" r="1.17" class="cls-10"/><circle cx="13.15" cy="135.86" r="2.53" class="cls-7"/><circle cx="13.15" cy="135.86" r="1.38" class="cls-12"/><circle cx="54.09" cy="134.48" r="2.3" class="cls-10"/><circle cx="54.09" cy="134.48" r="1.38" class="cls-12"/><circle cx="60.7" cy="134.48" r="2.3" class="cls-10"/><circle cx="60.7" cy="134.48" r="1.38" class="cls-12"/><circle cx="67.3" cy="134.48" r="2.3" class="cls-10"/><circle cx="67.3" cy="134.48" r="1.38" class="cls-12"/><circle cx="51.23" cy="107.9" r="1.17" class="cls-10"/><circle cx="47.92" cy="107.9" r="1.17" class="cls-10"/><circle cx="44.6" cy="107.9" r="1.17" class="cls-10"/><circle cx="51.3" cy="63.18" r="1.17" class="cls-10"/><circle cx="54.49" cy="63.18" r="1.17" class="cls-10"/><circle cx="50.27" cy="18.6" r="1.17" class="cls-10"/><circle cx="50.27" cy="21.83" r="1.17" class="cls-10"/><path d="M43.42 122.63h1.71v1.98h-1.71zM30.49 132.77c1.72 0 3.11-1.39 3.11-3.11h-6.22c0 1.72 1.39 3.11 3.11 3.11M38.26 114.06h-.1v6.2h.1c1.72 0 3.11-1.4 3.11-3.11s-1.39-3.11-3.11-3.11Z" class="cls-10"/><path d="M11.25 108.9v-2.6H3.88v25.82h7.37v-2.46h26.92V108.9z"/><path d="M11.25 108.9v-2.6H3.88v25.82h7.37v-2.46h26.92V108.9z" class="cls-2"/><path d="M11.25 108.9v-2.6H3.88v25.82h7.37v-2.46h26.92V108.9z" class="cls-1"/><path d="M11.25 108.9v-2.6H3.88v25.82h7.37v-2.46h26.92V108.9z"/><path d="M11.25 108.9v-2.6H3.88v25.82h7.37v-2.46h26.92V108.9z" class="cls-2"/><path d="M11.25 108.9v-2.6H3.88v25.82h7.37v-2.46h26.92V108.9z" style="fill:#e45525"/><path d="M11.25 108.9v-2.6H3.88v25.82h7.37v-2.46h26.92V108.9z"/><path d="M11.25 108.9v-2.6H3.88v25.82h7.37v-2.46h26.92V108.9z" class="cls-2"/><path d="M11.25 108.9v-2.6H3.88v25.82h7.37v-2.46h26.92V108.9z" class="cls-15"/><path d="M2.07 106.3h1.81v25.81H2.07z" class="cls-7"/></g><g id="Livello_3" data-name="Livello 3"><path d="M121.24 63.32c0-.48-.09-.95-.26-1.38h4.26a3.76 3.76 0 0 0 .01 2.77h-4.28c.18-.43.27-.9.27-1.39" class="cls-7"/><path d="M124.98 63.32c0-.48.09-.95.26-1.38h.7v2.77h-.69c-.18-.43-.27-.9-.27-1.39M120.29 64.71v-2.77h.69c.17.43.26.9.26 1.38 0 .49-.09.96-.27 1.39z" class="cls-11"/><path d="M125.52 33.72c0-.48-.09-.95-.26-1.38h4.26c-.17.43-.26.9-.26 1.38 0 .49.09.96.27 1.39h-4.28c.18-.43.27-.9.27-1.39" class="cls-1"/><path d="M125.52 33.72c0-.48-.09-.95-.26-1.38h4.26c-.17.43-.26.9-.26 1.38 0 .49.09.96.27 1.39h-4.28c.18-.43.27-.9.27-1.39" class="cls-5"/><path d="M125.52 33.72c0-.48-.09-.95-.26-1.38h4.26c-.17.43-.26.9-.26 1.38 0 .49.09.96.27 1.39h-4.28c.18-.43.27-.9.27-1.39" class="cls-15"/><path d="M129.25 33.72c0-.48.09-.95.26-1.38h.7v2.77h-.69c-.18-.43-.27-.9-.27-1.39M124.56 35.12v-2.77h.69a3.76 3.76 0 0 1-.01 2.77z" class="cls-11"/><path d="M160.45 33.72c0-.48-.09-.95-.26-1.38h4.26c-.17.43-.26.9-.26 1.38 0 .49.09.96.27 1.39h-4.28c.18-.43.27-.9.27-1.39" class="cls-1"/><path d="M160.45 33.72c0-.48-.09-.95-.26-1.38h4.26c-.17.43-.26.9-.26 1.38 0 .49.09.96.27 1.39h-4.28c.18-.43.27-.9.27-1.39" class="cls-5"/><path d="M160.45 33.72c0-.48-.09-.95-.26-1.38h4.26c-.17.43-.26.9-.26 1.38 0 .49.09.96.27 1.39h-4.28c.18-.43.27-.9.27-1.39" class="cls-15"/><path d="M164.19 33.72c0-.48.09-.95.26-1.38h.7v2.77h-.69c-.18-.43-.27-.9-.27-1.39M159.5 35.12v-2.77h.69a3.76 3.76 0 0 1-.01 2.77z" class="cls-11"/><path d="M42.88 19.59c-.33 0-.64.06-.94.18v-2.89c.29.11.61.18.94.18s.65-.06.94-.19v2.91c-.29-.12-.61-.19-.94-.19" class="cls-1"/><path d="M42.88 19.59c-.33 0-.64.06-.94.18v-2.89c.29.11.61.18.94.18s.65-.06.94-.19v2.91c-.29-.12-.61-.19-.94-.19" class="cls-5"/><path d="M42.88 19.59c-.33 0-.64.06-.94.18v-2.89c.29.11.61.18.94.18s.65-.06.94-.19v2.91c-.29-.12-.61-.19-.94-.19" class="cls-15"/><path d="M42.88 17.05c-.33 0-.64-.06-.94-.18v-.48h1.88v.47c-.29.12-.61.19-.94.19M43.82 20.23h-1.88v-.47c.29-.11.61-.18.94-.18s.65.06.94.19z" class="cls-11"/><path d="M63.63 47.35c-.33 0-.64.06-.94.18v-2.89c.29.11.61.18.94.18s.65-.06.94-.19v2.91c-.29-.12-.61-.19-.94-.19" class="cls-1"/><path d="M63.63 47.35c-.33 0-.64.06-.94.18v-2.89c.29.11.61.18.94.18s.65-.06.94-.19v2.91c-.29-.12-.61-.19-.94-.19" class="cls-5"/><path d="M63.63 47.35c-.33 0-.64.06-.94.18v-2.89c.29.11.61.18.94.18s.65-.06.94-.19v2.91c-.29-.12-.61-.19-.94-.19" class="cls-15"/><path d="M63.63 44.82c-.33 0-.64-.06-.94-.18v-.48h1.88v.47c-.29.12-.61.19-.94.19M64.57 48h-1.88v-.47c.29-.11.61-.18.94-.18s.65.06.94.19z" class="cls-11"/><path d="M64.03 55.65c-.33 0-.64.06-.94.18v-2.89c.29.11.61.18.94.18s.65-.06.94-.19v2.91c-.29-.12-.61-.19-.94-.19" class="cls-1"/><path d="M64.03 55.65c-.33 0-.64.06-.94.18v-2.89c.29.11.61.18.94.18s.65-.06.94-.19v2.91c-.29-.12-.61-.19-.94-.19" class="cls-5"/><path d="M64.03 55.65c-.33 0-.64.06-.94.18v-2.89c.29.11.61.18.94.18s.65-.06.94-.19v2.91c-.29-.12-.61-.19-.94-.19" class="cls-15"/><path d="M64.03 53.11c-.33 0-.64-.06-.94-.18v-.48h1.88v.47c-.29.12-.61.19-.94.19M64.98 56.29H63.1v-.47c.29-.11.61-.18.94-.18s.65.06.94.19z" class="cls-11"/><path d="M67.59 76.68c-.33 0-.64.06-.94.18v-2.89c.29.11.61.18.94.18s.65-.06.94-.19v2.91c-.29-.12-.61-.19-.94-.19" class="cls-1"/><path d="M67.59 76.68c-.33 0-.64.06-.94.18v-2.89c.29.11.61.18.94.18s.65-.06.94-.19v2.91c-.29-.12-.61-.19-.94-.19" class="cls-5"/><path d="M67.59 76.68c-.33 0-.64.06-.94.18v-2.89c.29.11.61.18.94.18s.65-.06.94-.19v2.91c-.29-.12-.61-.19-.94-.19" class="cls-15"/><path d="M67.59 74.15c-.33 0-.64-.06-.94-.18v-.48h1.88v.47c-.29.12-.61.19-.94.19M68.54 77.32h-1.88v-.47c.29-.11.61-.18.94-.18s.65.06.94.19z" class="cls-11"/><path d="M73.34 76.68c-.33 0-.64.06-.94.18v-2.89c.29.11.61.18.94.18s.65-.06.94-.19v2.91c-.29-.12-.61-.19-.94-.19" class="cls-1"/><path d="M73.34 76.68c-.33 0-.64.06-.94.18v-2.89c.29.11.61.18.94.18s.65-.06.94-.19v2.91c-.29-.12-.61-.19-.94-.19" class="cls-5"/><path d="M73.34 76.68c-.33 0-.64.06-.94.18v-2.89c.29.11.61.18.94.18s.65-.06.94-.19v2.91c-.29-.12-.61-.19-.94-.19" class="cls-15"/><path d="M73.34 74.15c-.33 0-.64-.06-.94-.18v-.48h1.88v.47c-.29.12-.61.19-.94.19M74.29 77.32h-1.88v-.47c.29-.11.61-.18.94-.18s.65.06.94.19z" class="cls-11"/><path d="M76.13 76.68c-.33 0-.64.06-.94.18v-2.89c.29.11.61.18.94.18s.65-.06.94-.19v2.91c-.29-.12-.61-.19-.94-.19" class="cls-1"/><path d="M76.13 76.68c-.33 0-.64.06-.94.18v-2.89c.29.11.61.18.94.18s.65-.06.94-.19v2.91c-.29-.12-.61-.19-.94-.19" class="cls-5"/><path d="M76.13 76.68c-.33 0-.64.06-.94.18v-2.89c.29.11.61.18.94.18s.65-.06.94-.19v2.91c-.29-.12-.61-.19-.94-.19" class="cls-15"/><path d="M76.13 74.15c-.33 0-.64-.06-.94-.18v-.48h1.88v.47c-.29.12-.61.19-.94.19M77.08 77.32H75.2v-.47c.29-.11.61-.18.94-.18s.65.06.94.19z" class="cls-11"/><path d="M175.42 33.27c-.33 0-.64.06-.94.18v-2.89c.29.11.61.18.94.18s.65-.06.94-.19v2.91c-.29-.12-.61-.19-.94-.19" class="cls-1"/><path d="M175.42 33.27c-.33 0-.64.06-.94.18v-2.89c.29.11.61.18.94.18s.65-.06.94-.19v2.91c-.29-.12-.61-.19-.94-.19" class="cls-5"/><path d="M175.42 33.27c-.33 0-.64.06-.94.18v-2.89c.29.11.61.18.94.18s.65-.06.94-.19v2.91c-.29-.12-.61-.19-.94-.19" class="cls-15"/><path d="M175.42 30.74c-.33 0-.64-.06-.94-.18v-.48h1.88v.47c-.29.12-.61.19-.94.19M176.37 33.92h-1.88v-.47c.29-.11.61-.18.94-.18s.65.06.94.19z" class="cls-11"/><path d="M67.59 82.56c-.33 0-.64.06-.94.18v-2.89c.29.11.61.18.94.18s.65-.06.94-.19v2.91c-.29-.12-.61-.19-.94-.19" class="cls-1"/><path d="M67.59 82.56c-.33 0-.64.06-.94.18v-2.89c.29.11.61.18.94.18s.65-.06.94-.19v2.91c-.29-.12-.61-.19-.94-.19" class="cls-5"/><path d="M67.59 82.56c-.33 0-.64.06-.94.18v-2.89c.29.11.61.18.94.18s.65-.06.94-.19v2.91c-.29-.12-.61-.19-.94-.19" class="cls-15"/><path d="M67.59 80.02c-.33 0-.64-.06-.94-.18v-.48h1.88v.47c-.29.12-.61.19-.94.19M68.54 83.2h-1.88v-.47c.29-.11.61-.18.94-.18s.65.06.94.19z" class="cls-11"/><path d="M67.59 88.26c-.33 0-.64.06-.94.18v-2.89c.29.11.61.18.94.18s.65-.06.94-.19v2.91c-.29-.12-.61-.19-.94-.19" class="cls-1"/><path d="M67.59 88.26c-.33 0-.64.06-.94.18v-2.89c.29.11.61.18.94.18s.65-.06.94-.19v2.91c-.29-.12-.61-.19-.94-.19" class="cls-5"/><path d="M67.59 88.26c-.33 0-.64.06-.94.18v-2.89c.29.11.61.18.94.18s.65-.06.94-.19v2.91c-.29-.12-.61-.19-.94-.19" class="cls-15"/><path d="M67.59 85.72c-.33 0-.64-.06-.94-.18v-.48h1.88v.47c-.29.12-.61.19-.94.19M68.54 88.9h-1.88v-.47c.29-.11.61-.18.94-.18s.65.06.94.19z" class="cls-11"/><path d="M70.38 82.56c-.33 0-.64.06-.94.18v-2.89c.29.11.61.18.94.18s.65-.06.94-.19v2.91c-.29-.12-.61-.19-.94-.19" class="cls-1"/><path d="M70.38 82.56c-.33 0-.64.06-.94.18v-2.89c.29.11.61.18.94.18s.65-.06.94-.19v2.91c-.29-.12-.61-.19-.94-.19" class="cls-5"/><path d="M70.38 82.56c-.33 0-.64.06-.94.18v-2.89c.29.11.61.18.94.18s.65-.06.94-.19v2.91c-.29-.12-.61-.19-.94-.19" class="cls-15"/><path d="M70.38 80.02c-.33 0-.64-.06-.94-.18v-.48h1.88v.47c-.29.12-.61.19-.94.19M71.33 83.2h-1.88v-.47c.29-.11.61-.18.94-.18s.65.06.94.19z" class="cls-11"/><path d="M79.35 70.34c0-.33-.06-.64-.18-.94h2.89c-.11.29-.18.61-.18.94s.06.65.19.94h-2.91c.12-.29.19-.61.19-.94" class="cls-1"/><path d="M79.35 70.34c0-.33-.06-.64-.18-.94h2.89c-.11.29-.18.61-.18.94s.06.65.19.94h-2.91c.12-.29.19-.61.19-.94" class="cls-5"/><path d="M79.35 70.34c0-.33-.06-.64-.18-.94h2.89c-.11.29-.18.61-.18.94s.06.65.19.94h-2.91c.12-.29.19-.61.19-.94" class="cls-15"/><path d="M81.88 70.34c0-.33.06-.64.18-.94h.48v1.88h-.47c-.12-.29-.19-.61-.19-.94M78.7 71.29v-1.88h.47c.11.29.18.61.18.94s-.06.65-.19.94z" class="cls-11"/><path d="M41.95 53.32c-.33 0-.64.06-.94.18v-2.89c.29.11.61.18.94.18s.65-.06.94-.19v2.91c-.29-.12-.61-.19-.94-.19" class="cls-1"/><path d="M41.95 53.32c-.33 0-.64.06-.94.18v-2.89c.29.11.61.18.94.18s.65-.06.94-.19v2.91c-.29-.12-.61-.19-.94-.19" class="cls-5"/><path d="M41.95 53.32c-.33 0-.64.06-.94.18v-2.89c.29.11.61.18.94.18s.65-.06.94-.19v2.91c-.29-.12-.61-.19-.94-.19" class="cls-15"/><path d="M41.95 50.79c-.33 0-.64-.06-.94-.18v-.48h1.88v.47c-.29.12-.61.19-.94.19M42.9 53.97h-1.88v-.47c.29-.11.61-.18.94-.18s.65.06.94.19z" class="cls-11"/><path d="M41.95 60.62c-.33 0-.64.06-.94.18v-2.89c.29.11.61.18.94.18s.65-.06.94-.19v2.91c-.29-.12-.61-.19-.94-.19" class="cls-1"/><path d="M41.95 60.62c-.33 0-.64.06-.94.18v-2.89c.29.11.61.18.94.18s.65-.06.94-.19v2.91c-.29-.12-.61-.19-.94-.19" class="cls-5"/><path d="M41.95 60.62c-.33 0-.64.06-.94.18v-2.89c.29.11.61.18.94.18s.65-.06.94-.19v2.91c-.29-.12-.61-.19-.94-.19" class="cls-15"/><path d="M41.95 58.08c-.33 0-.64-.06-.94-.18v-.48h1.88v.47c-.29.12-.61.19-.94.19M42.9 61.26h-1.88v-.47c.29-.11.61-.18.94-.18s.65.06.94.19z" class="cls-11"/><path d="M50.45 60.61c0-.33-.06-.64-.18-.94h2.89c-.11.29-.18.61-.18.94s.06.65.19.94h-2.91c.12-.29.19-.61.19-.94" class="cls-1"/><path d="M50.45 60.61c0-.33-.06-.64-.18-.94h2.89c-.11.29-.18.61-.18.94s.06.65.19.94h-2.91c.12-.29.19-.61.19-.94" class="cls-5"/><path d="M50.45 60.61c0-.33-.06-.64-.18-.94h2.89c-.11.29-.18.61-.18.94s.06.65.19.94h-2.91c.12-.29.19-.61.19-.94" class="cls-15"/><path d="M52.99 60.61c0-.33.06-.64.18-.94h.48v1.88h-.47c-.12-.29-.19-.61-.19-.94M49.81 61.56v-1.88h.47c.11.29.18.61.18.94s-.06.65-.19.94z" class="cls-11"/><path d="M22.59 61.55c0-.33-.06-.64-.18-.94h2.89c-.11.29-.18.61-.18.94s.06.65.19.94H22.4c.12-.29.19-.61.19-.94" class="cls-1"/><path d="M22.59 61.55c0-.33-.06-.64-.18-.94h2.89c-.11.29-.18.61-.18.94s.06.65.19.94H22.4c.12-.29.19-.61.19-.94" class="cls-5"/><path d="M22.59 61.55c0-.33-.06-.64-.18-.94h2.89c-.11.29-.18.61-.18.94s.06.65.19.94H22.4c.12-.29.19-.61.19-.94" class="cls-15"/><path d="M25.13 61.55c0-.33.06-.64.18-.94h.48v1.88h-.47c-.12-.29-.19-.61-.19-.94M21.95 62.5v-1.88h.47c.11.29.18.61.18.94s-.06.65-.19.94z" class="cls-11"/><path d="M16.13 58.7c0-.33-.06-.64-.18-.94h2.89c-.11.29-.18.61-.18.94s.06.65.19.94h-2.91c.12-.29.19-.61.19-.94" class="cls-1"/><path d="M16.13 58.7c0-.33-.06-.64-.18-.94h2.89c-.11.29-.18.61-.18.94s.06.65.19.94h-2.91c.12-.29.19-.61.19-.94" class="cls-5"/><path d="M16.13 58.7c0-.33-.06-.64-.18-.94h2.89c-.11.29-.18.61-.18.94s.06.65.19.94h-2.91c.12-.29.19-.61.19-.94" class="cls-15"/><path d="M18.67 58.7c0-.33.06-.64.18-.94h.48v1.88h-.47c-.12-.29-.19-.61-.19-.94M15.49 59.64v-1.88h.47c.11.29.18.61.18.94s-.06.65-.19.94z" class="cls-11"/><path d="M30.47 35.93c0-.33-.06-.64-.18-.94h2.89c-.11.29-.18.61-.18.94s.06.65.19.94h-2.91c.12-.29.19-.61.19-.94" class="cls-1"/><path d="M30.47 35.93c0-.33-.06-.64-.18-.94h2.89c-.11.29-.18.61-.18.94s.06.65.19.94h-2.91c.12-.29.19-.61.19-.94" class="cls-5"/><path d="M30.47 35.93c0-.33-.06-.64-.18-.94h2.89c-.11.29-.18.61-.18.94s.06.65.19.94h-2.91c.12-.29.19-.61.19-.94" class="cls-15"/><path d="M33 35.93c0-.33.06-.64.18-.94h.48v1.88h-.47c-.12-.29-.19-.61-.19-.94M29.82 36.88V35h.47c.11.29.18.61.18.94s-.06.65-.19.94z" class="cls-11"/><path d="M30.47 32.78c0-.33-.06-.64-.18-.94h2.89c-.11.29-.18.61-.18.94s.06.65.19.94h-2.91c.12-.29.19-.61.19-.94" class="cls-1"/><path d="M30.47 32.78c0-.33-.06-.64-.18-.94h2.89c-.11.29-.18.61-.18.94s.06.65.19.94h-2.91c.12-.29.19-.61.19-.94" class="cls-5"/><path d="M30.47 32.78c0-.33-.06-.64-.18-.94h2.89c-.11.29-.18.61-.18.94s.06.65.19.94h-2.91c.12-.29.19-.61.19-.94" class="cls-15"/><path d="M33 32.78c0-.33.06-.64.18-.94h.48v1.88h-.47c-.12-.29-.19-.61-.19-.94M29.82 33.73v-1.88h.47c.11.29.18.61.18.94s-.06.65-.19.94z" class="cls-11"/><path d="M30.47 29.63c0-.33-.06-.64-.18-.94h2.89c-.11.29-.18.61-.18.94s.06.65.19.94h-2.91c.12-.29.19-.61.19-.94" class="cls-1"/><path d="M30.47 29.63c0-.33-.06-.64-.18-.94h2.89c-.11.29-.18.61-.18.94s.06.65.19.94h-2.91c.12-.29.19-.61.19-.94" class="cls-5"/><path d="M30.47 29.63c0-.33-.06-.64-.18-.94h2.89c-.11.29-.18.61-.18.94s.06.65.19.94h-2.91c.12-.29.19-.61.19-.94" class="cls-15"/><path d="M33 29.63c0-.33.06-.64.18-.94h.48v1.88h-.47c-.12-.29-.19-.61-.19-.94M29.82 30.58V28.7h.47c.11.29.18.61.18.94s-.06.65-.19.94z" class="cls-11"/><path d="M18.79 27.17c0-.33-.06-.64-.18-.94h2.89c-.11.29-.18.61-.18.94s.06.65.19.94H18.6c.12-.29.19-.61.19-.94" class="cls-1"/><path d="M18.79 27.17c0-.33-.06-.64-.18-.94h2.89c-.11.29-.18.61-.18.94s.06.65.19.94H18.6c.12-.29.19-.61.19-.94" class="cls-5"/><path d="M18.79 27.17c0-.33-.06-.64-.18-.94h2.89c-.11.29-.18.61-.18.94s.06.65.19.94H18.6c.12-.29.19-.61.19-.94" class="cls-15"/><path d="M21.33 27.17c0-.33.06-.64.18-.94h.48v1.88h-.47c-.12-.29-.19-.61-.19-.94M18.15 28.12v-1.88h.47c.11.29.18.61.18.94s-.06.65-.19.94z" class="cls-11"/><path d="M38.96 60.62c-.33 0-.64.06-.94.18v-2.89c.29.11.61.18.94.18s.65-.06.94-.19v2.91c-.29-.12-.61-.19-.94-.19" class="cls-1"/><path d="M38.96 60.62c-.33 0-.64.06-.94.18v-2.89c.29.11.61.18.94.18s.65-.06.94-.19v2.91c-.29-.12-.61-.19-.94-.19" class="cls-5"/><path d="M38.96 60.62c-.33 0-.64.06-.94.18v-2.89c.29.11.61.18.94.18s.65-.06.94-.19v2.91c-.29-.12-.61-.19-.94-.19" class="cls-15"/><path d="M38.96 58.08c-.33 0-.64-.06-.94-.18v-.48h1.88v.47c-.29.12-.61.19-.94.19M39.9 61.26h-1.88v-.47c.29-.11.61-.18.94-.18s.65.06.94.19z" class="cls-11"/><path d="M60.74 47.35c-.33 0-.64.06-.94.18v-2.89c.29.11.61.18.94.18s.65-.06.94-.19v2.91c-.29-.12-.61-.19-.94-.19" class="cls-1"/><path d="M60.74 47.35c-.33 0-.64.06-.94.18v-2.89c.29.11.61.18.94.18s.65-.06.94-.19v2.91c-.29-.12-.61-.19-.94-.19" class="cls-5"/><path d="M60.74 47.35c-.33 0-.64.06-.94.18v-2.89c.29.11.61.18.94.18s.65-.06.94-.19v2.91c-.29-.12-.61-.19-.94-.19" class="cls-15"/><path d="M60.74 44.82c-.33 0-.64-.06-.94-.18v-.48h1.88v.47c-.29.12-.61.19-.94.19M61.68 48H59.8v-.47c.29-.11.61-.18.94-.18s.65.06.94.19z" class="cls-11"/><path d="M52.08 47.35c-.33 0-.64.06-.94.18v-2.89c.29.11.61.18.94.18s.65-.06.94-.19v2.91c-.29-.12-.61-.19-.94-.19" class="cls-1"/><path d="M52.08 47.35c-.33 0-.64.06-.94.18v-2.89c.29.11.61.18.94.18s.65-.06.94-.19v2.91c-.29-.12-.61-.19-.94-.19" class="cls-5"/><path d="M52.08 47.35c-.33 0-.64.06-.94.18v-2.89c.29.11.61.18.94.18s.65-.06.94-.19v2.91c-.29-.12-.61-.19-.94-.19" class="cls-15"/><path d="M52.08 44.82c-.33 0-.64-.06-.94-.18v-.48h1.88v.47c-.29.12-.61.19-.94.19M53.02 48h-1.88v-.47c.29-.11.61-.18.94-.18s.65.06.94.19z" class="cls-11"/><path d="M49.19 47.35c-.33 0-.64.06-.94.18v-2.89c.29.11.61.18.94.18s.65-.06.94-.19v2.91c-.29-.12-.61-.19-.94-.19" class="cls-1"/><path d="M49.19 47.35c-.33 0-.64.06-.94.18v-2.89c.29.11.61.18.94.18s.65-.06.94-.19v2.91c-.29-.12-.61-.19-.94-.19" class="cls-5"/><path d="M49.19 47.35c-.33 0-.64.06-.94.18v-2.89c.29.11.61.18.94.18s.65-.06.94-.19v2.91c-.29-.12-.61-.19-.94-.19" class="cls-15"/><path d="M49.19 44.82c-.33 0-.64-.06-.94-.18v-.48h1.88v.47c-.29.12-.61.19-.94.19M50.13 48h-1.88v-.47c.29-.11.61-.18.94-.18s.65.06.94.19z" class="cls-11"/><path d="M75.54 42.93c0-.33-.06-.64-.18-.94h2.89c-.11.29-.18.61-.18.94s.06.65.19.94h-2.91c.12-.29.19-.61.19-.94" class="cls-1"/><path d="M75.54 42.93c0-.33-.06-.64-.18-.94h2.89c-.11.29-.18.61-.18.94s.06.65.19.94h-2.91c.12-.29.19-.61.19-.94" class="cls-5"/><path d="M75.54 42.93c0-.33-.06-.64-.18-.94h2.89c-.11.29-.18.61-.18.94s.06.65.19.94h-2.91c.12-.29.19-.61.19-.94" class="cls-15"/><path d="M78.08 42.93c0-.33.06-.64.18-.94h.48v1.88h-.47c-.12-.29-.19-.61-.19-.94M74.9 43.87v-1.88h.47c.11.29.18.61.18.94s-.06.65-.19.94z" class="cls-11"/><path d="M122.75 48.33c0-.33-.06-.64-.18-.94h2.89c-.11.29-.18.61-.18.94s.06.65.19.94h-2.91c.12-.29.19-.61.19-.94" class="cls-1"/><path d="M122.75 48.33c0-.33-.06-.64-.18-.94h2.89c-.11.29-.18.61-.18.94s.06.65.19.94h-2.91c.12-.29.19-.61.19-.94" class="cls-5"/><path d="M122.75 48.33c0-.33-.06-.64-.18-.94h2.89c-.11.29-.18.61-.18.94s.06.65.19.94h-2.91c.12-.29.19-.61.19-.94" class="cls-15"/><path d="M125.28 48.33c0-.33.06-.64.18-.94h.48v1.88h-.47c-.12-.29-.19-.61-.19-.94M122.1 49.27v-1.88h.47c.11.29.18.61.18.94s-.06.65-.19.94z" class="cls-11"/><path d="M122.75 54.3c0-.33-.06-.64-.18-.94h2.89c-.11.29-.18.61-.18.94s.06.65.19.94h-2.91c.12-.29.19-.61.19-.94" class="cls-1"/><path d="M122.75 54.3c0-.33-.06-.64-.18-.94h2.89c-.11.29-.18.61-.18.94s.06.65.19.94h-2.91c.12-.29.19-.61.19-.94" class="cls-5"/><path d="M122.75 54.3c0-.33-.06-.64-.18-.94h2.89c-.11.29-.18.61-.18.94s.06.65.19.94h-2.91c.12-.29.19-.61.19-.94" class="cls-15"/><path d="M125.28 54.3c0-.33.06-.64.18-.94h.48v1.88h-.47c-.12-.29-.19-.61-.19-.94M122.1 55.25v-1.88h.47c.11.29.18.61.18.94s-.06.65-.19.94z" class="cls-11"/><path d="M170.86 80.64c.33 0 .64-.06.94-.18v2.89c-.29-.11-.61-.18-.94-.18s-.65.06-.94.19v-2.91c.29.12.61.19.94.19" class="cls-1"/><path d="M170.86 80.64c.33 0 .64-.06.94-.18v2.89c-.29-.11-.61-.18-.94-.18s-.65.06-.94.19v-2.91c.29.12.61.19.94.19" class="cls-5"/><path d="M170.86 80.64c.33 0 .64-.06.94-.18v2.89c-.29-.11-.61-.18-.94-.18s-.65.06-.94.19v-2.91c.29.12.61.19.94.19" class="cls-15"/><path d="M170.86 83.17c.33 0 .64.06.94.18v.48h-1.88v-.47c.29-.12.61-.19.94-.19M169.91 79.99h1.88v.47c-.29.11-.61.18-.94.18s-.65-.06-.94-.19z" class="cls-11"/><path d="M173.91 80.64c.33 0 .64-.06.94-.18v2.89c-.29-.11-.61-.18-.94-.18s-.65.06-.94.19v-2.91c.29.12.61.19.94.19" class="cls-1"/><path d="M173.91 80.64c.33 0 .64-.06.94-.18v2.89c-.29-.11-.61-.18-.94-.18s-.65.06-.94.19v-2.91c.29.12.61.19.94.19" class="cls-5"/><path d="M173.91 80.64c.33 0 .64-.06.94-.18v2.89c-.29-.11-.61-.18-.94-.18s-.65.06-.94.19v-2.91c.29.12.61.19.94.19" class="cls-15"/><path d="M173.91 83.17c.33 0 .64.06.94.18v.48h-1.88v-.47c.29-.12.61-.19.94-.19M172.97 79.99h1.88v.47c-.29.11-.61.18-.94.18s-.65-.06-.94-.19z" class="cls-11"/><path d="M179.76 80.64c.33 0 .64-.06.94-.18v2.89c-.29-.11-.61-.18-.94-.18s-.65.06-.94.19v-2.91c.29.12.61.19.94.19" class="cls-1"/><path d="M179.76 80.64c.33 0 .64-.06.94-.18v2.89c-.29-.11-.61-.18-.94-.18s-.65.06-.94.19v-2.91c.29.12.61.19.94.19" class="cls-5"/><path d="M179.76 80.64c.33 0 .64-.06.94-.18v2.89c-.29-.11-.61-.18-.94-.18s-.65.06-.94.19v-2.91c.29.12.61.19.94.19" class="cls-15"/><path d="M179.76 83.17c.33 0 .64.06.94.18v.48h-1.88v-.47c.29-.12.61-.19.94-.19M178.82 79.99h1.88v.47c-.29.11-.61.18-.94.18s-.65-.06-.94-.19z" class="cls-11"/><path d="M182.82 80.64c.33 0 .64-.06.94-.18v2.89c-.29-.11-.61-.18-.94-.18s-.65.06-.94.19v-2.91c.29.12.61.19.94.19" class="cls-1"/><path d="M182.82 80.64c.33 0 .64-.06.94-.18v2.89c-.29-.11-.61-.18-.94-.18s-.65.06-.94.19v-2.91c.29.12.61.19.94.19" class="cls-5"/><path d="M182.82 80.64c.33 0 .64-.06.94-.18v2.89c-.29-.11-.61-.18-.94-.18s-.65.06-.94.19v-2.91c.29.12.61.19.94.19" class="cls-15"/><path d="M182.82 83.17c.33 0 .64.06.94.18v.48h-1.88v-.47c.29-.12.61-.19.94-.19M181.87 79.99h1.88v.47c-.29.11-.61.18-.94.18s-.65-.06-.94-.19z" class="cls-11"/><path d="M164.19 57.18c0-.33-.06-.64-.18-.94h2.89c-.11.29-.18.61-.18.94s.06.65.19.94H164c.12-.29.19-.61.19-.94" class="cls-1"/><path d="M164.19 57.18c0-.33-.06-.64-.18-.94h2.89c-.11.29-.18.61-.18.94s.06.65.19.94H164c.12-.29.19-.61.19-.94" class="cls-5"/><path d="M164.19 57.18c0-.33-.06-.64-.18-.94h2.89c-.11.29-.18.61-.18.94s.06.65.19.94H164c.12-.29.19-.61.19-.94" class="cls-15"/><path d="M166.73 57.18c0-.33.06-.64.18-.94h.48v1.88h-.47c-.12-.29-.19-.61-.19-.94M163.55 58.12v-1.88h.47c.11.29.18.61.18.94s-.06.65-.19.94z" class="cls-11"/><path d="M162.65 73.93c-.23-.23-.5-.41-.79-.54l2.04-2.04c.12.29.31.56.54.79s.51.42.8.54l-2.05 2.05c-.12-.29-.3-.56-.54-.8" class="cls-1"/><path d="M162.65 73.93c-.23-.23-.5-.41-.79-.54l2.04-2.04c.12.29.31.56.54.79s.51.42.8.54l-2.05 2.05c-.12-.29-.3-.56-.54-.8" class="cls-5"/><path d="M162.65 73.93c-.23-.23-.5-.41-.79-.54l2.04-2.04c.12.29.31.56.54.79s.51.42.8.54l-2.05 2.05c-.12-.29-.3-.56-.54-.8" class="cls-15"/><path d="M164.44 72.14c-.23-.23-.41-.5-.54-.79l.34-.34 1.33 1.33-.33.33c-.29-.12-.56-.3-.8-.54ZM162.86 75.06l-1.33-1.33.33-.33c.29.12.56.31.79.54s.42.51.54.8l-.32.32Z" class="cls-11"/><path d="M162.82 77.17c-.23-.23-.5-.41-.79-.54l2.04-2.04c.12.29.31.56.54.79s.51.42.8.54l-2.05 2.05c-.12-.29-.3-.56-.54-.8" class="cls-1"/><path d="M162.82 77.17c-.23-.23-.5-.41-.79-.54l2.04-2.04c.12.29.31.56.54.79s.51.42.8.54l-2.05 2.05c-.12-.29-.3-.56-.54-.8" class="cls-5"/><path d="M162.82 77.17c-.23-.23-.5-.41-.79-.54l2.04-2.04c.12.29.31.56.54.79s.51.42.8.54l-2.05 2.05c-.12-.29-.3-.56-.54-.8" class="cls-15"/><path d="M164.61 75.37c-.23-.23-.41-.5-.54-.79l.34-.34 1.33 1.33-.33.33c-.29-.12-.56-.3-.8-.54ZM163.03 78.29l-1.33-1.33.33-.33c.29.12.56.31.79.54s.42.51.54.8l-.32.32Z" class="cls-11"/><path d="M162.82 80.88c-.23-.23-.5-.41-.79-.54l2.04-2.04c.12.29.31.56.54.79s.51.42.8.54l-2.05 2.05c-.12-.29-.3-.56-.54-.8" class="cls-1"/><path d="M162.82 80.88c-.23-.23-.5-.41-.79-.54l2.04-2.04c.12.29.31.56.54.79s.51.42.8.54l-2.05 2.05c-.12-.29-.3-.56-.54-.8" class="cls-5"/><path d="M162.82 80.88c-.23-.23-.5-.41-.79-.54l2.04-2.04c.12.29.31.56.54.79s.51.42.8.54l-2.05 2.05c-.12-.29-.3-.56-.54-.8" class="cls-15"/><path d="M164.61 79.09c-.23-.23-.41-.5-.54-.79l.34-.34 1.33 1.33-.33.33c-.29-.12-.56-.3-.8-.54ZM163.03 82.01l-1.33-1.33.33-.33c.29.12.56.31.79.54s.42.51.54.8l-.32.32Z" class="cls-11"/><path d="M162.82 84.6c-.23-.23-.5-.41-.79-.54l2.04-2.04c.12.29.31.56.54.79s.51.42.8.54l-2.05 2.05c-.12-.29-.3-.56-.54-.8" class="cls-1"/><path d="M162.82 84.6c-.23-.23-.5-.41-.79-.54l2.04-2.04c.12.29.31.56.54.79s.51.42.8.54l-2.05 2.05c-.12-.29-.3-.56-.54-.8" class="cls-5"/><path d="M162.82 84.6c-.23-.23-.5-.41-.79-.54l2.04-2.04c.12.29.31.56.54.79s.51.42.8.54l-2.05 2.05c-.12-.29-.3-.56-.54-.8" class="cls-15"/><path d="M164.61 82.8c-.23-.23-.41-.5-.54-.79l.34-.34 1.33 1.33-.33.33c-.29-.12-.56-.3-.8-.54ZM163.03 85.72l-1.33-1.33.33-.33c.29.12.56.31.79.54s.42.51.54.8l-.32.32Z" class="cls-11"/><path d="M162.82 88.31c-.23-.23-.5-.41-.79-.54l2.04-2.04c.12.29.31.56.54.79s.51.42.8.54l-2.05 2.05c-.12-.29-.3-.56-.54-.8" class="cls-1"/><path d="M162.82 88.31c-.23-.23-.5-.41-.79-.54l2.04-2.04c.12.29.31.56.54.79s.51.42.8.54l-2.05 2.05c-.12-.29-.3-.56-.54-.8" class="cls-5"/><path d="M162.82 88.31c-.23-.23-.5-.41-.79-.54l2.04-2.04c.12.29.31.56.54.79s.51.42.8.54l-2.05 2.05c-.12-.29-.3-.56-.54-.8" class="cls-15"/><path d="M164.61 86.52c-.23-.23-.41-.5-.54-.79l.34-.34 1.33 1.33-.33.33c-.29-.12-.56-.3-.8-.54ZM163.03 89.44l-1.33-1.33.33-.33c.29.12.56.31.79.54s.42.51.54.8l-.32.32Z" class="cls-11"/><path d="M162.82 92.03c-.23-.23-.5-.41-.79-.54l2.04-2.04c.12.29.31.56.54.79s.51.42.8.54l-2.05 2.05c-.12-.29-.3-.56-.54-.8" class="cls-1"/><path d="M162.82 92.03c-.23-.23-.5-.41-.79-.54l2.04-2.04c.12.29.31.56.54.79s.51.42.8.54l-2.05 2.05c-.12-.29-.3-.56-.54-.8" class="cls-5"/><path d="M162.82 92.03c-.23-.23-.5-.41-.79-.54l2.04-2.04c.12.29.31.56.54.79s.51.42.8.54l-2.05 2.05c-.12-.29-.3-.56-.54-.8" class="cls-15"/><path d="M164.61 90.24c-.23-.23-.41-.5-.54-.79l.34-.34 1.33 1.33-.33.33c-.29-.12-.56-.3-.8-.54ZM163.03 93.15l-1.33-1.33.33-.33c.29.12.56.31.79.54s.42.51.54.8l-.32.32Z" class="cls-11"/><path d="M162.82 95.74c-.23-.23-.5-.41-.79-.54l2.04-2.04c.12.29.31.56.54.79s.51.42.8.54l-2.05 2.05c-.12-.29-.3-.56-.54-.8" class="cls-1"/><path d="M162.82 95.74c-.23-.23-.5-.41-.79-.54l2.04-2.04c.12.29.31.56.54.79s.51.42.8.54l-2.05 2.05c-.12-.29-.3-.56-.54-.8" class="cls-5"/><path d="M162.82 95.74c-.23-.23-.5-.41-.79-.54l2.04-2.04c.12.29.31.56.54.79s.51.42.8.54l-2.05 2.05c-.12-.29-.3-.56-.54-.8" class="cls-15"/><path d="M164.61 93.95c-.23-.23-.41-.5-.54-.79l.34-.34 1.33 1.33-.33.33c-.29-.12-.56-.3-.8-.54ZM163.03 96.87l-1.33-1.33.33-.33c.29.12.56.31.79.54s.42.51.54.8l-.32.32Z" class="cls-11"/><path d="M162.82 99.46c-.23-.23-.5-.41-.79-.54l2.04-2.04c.12.29.31.56.54.79s.51.42.8.54l-2.05 2.05c-.12-.29-.3-.56-.54-.8" class="cls-1"/><path d="M162.82 99.46c-.23-.23-.5-.41-.79-.54l2.04-2.04c.12.29.31.56.54.79s.51.42.8.54l-2.05 2.05c-.12-.29-.3-.56-.54-.8" class="cls-5"/><path d="M162.82 99.46c-.23-.23-.5-.41-.79-.54l2.04-2.04c.12.29.31.56.54.79s.51.42.8.54l-2.05 2.05c-.12-.29-.3-.56-.54-.8" class="cls-15"/><path d="M164.61 97.67c-.23-.23-.41-.5-.54-.79l.34-.34 1.33 1.33-.33.33c-.29-.12-.56-.3-.8-.54ZM163.03 100.58l-1.33-1.33.33-.33c.29.12.56.31.79.54s.42.51.54.8l-.32.32Z" class="cls-11"/><path d="M162.82 103.17c-.23-.23-.5-.41-.79-.54l2.04-2.04c.12.29.31.56.54.79s.51.42.8.54l-2.05 2.05c-.12-.29-.3-.56-.54-.8" class="cls-1"/><path d="M162.82 103.17c-.23-.23-.5-.41-.79-.54l2.04-2.04c.12.29.31.56.54.79s.51.42.8.54l-2.05 2.05c-.12-.29-.3-.56-.54-.8" class="cls-5"/><path d="M162.82 103.17c-.23-.23-.5-.41-.79-.54l2.04-2.04c.12.29.31.56.54.79s.51.42.8.54l-2.05 2.05c-.12-.29-.3-.56-.54-.8" class="cls-15"/><path d="M164.61 101.38c-.23-.23-.41-.5-.54-.79l.34-.34 1.33 1.33-.33.33c-.29-.12-.56-.3-.8-.54ZM163.03 104.3l-1.33-1.33.33-.33c.29.12.56.31.79.54s.42.51.54.8l-.32.32Z" class="cls-11"/><path d="M162.82 106.89c-.23-.23-.5-.41-.79-.54l2.04-2.04c.12.29.31.56.54.79s.51.42.8.54l-2.05 2.05c-.12-.29-.3-.56-.54-.8" class="cls-1"/><path d="M162.82 106.89c-.23-.23-.5-.41-.79-.54l2.04-2.04c.12.29.31.56.54.79s.51.42.8.54l-2.05 2.05c-.12-.29-.3-.56-.54-.8" class="cls-5"/><path d="M162.82 106.89c-.23-.23-.5-.41-.79-.54l2.04-2.04c.12.29.31.56.54.79s.51.42.8.54l-2.05 2.05c-.12-.29-.3-.56-.54-.8" class="cls-15"/><path d="M164.61 105.1c-.23-.23-.41-.5-.54-.79l.34-.34 1.33 1.33-.33.33c-.29-.12-.56-.3-.8-.54ZM163.03 108.01l-1.33-1.33.33-.33c.29.12.56.31.79.54s.42.51.54.8l-.32.32Z" class="cls-11"/><path d="M162.82 110.6c-.23-.23-.5-.41-.79-.54l2.04-2.04c.12.29.31.56.54.79s.51.42.8.54l-2.05 2.05c-.12-.29-.3-.56-.54-.8" class="cls-1"/><path d="M162.82 110.6c-.23-.23-.5-.41-.79-.54l2.04-2.04c.12.29.31.56.54.79s.51.42.8.54l-2.05 2.05c-.12-.29-.3-.56-.54-.8" class="cls-5"/><path d="M162.82 110.6c-.23-.23-.5-.41-.79-.54l2.04-2.04c.12.29.31.56.54.79s.51.42.8.54l-2.05 2.05c-.12-.29-.3-.56-.54-.8" class="cls-15"/><path d="M164.61 108.81c-.23-.23-.41-.5-.54-.79l.34-.34 1.33 1.33-.33.33c-.29-.12-.56-.3-.8-.54ZM163.03 111.73l-1.33-1.33.33-.33c.29.12.56.31.79.54s.42.51.54.8l-.32.32Z" class="cls-11"/><path d="M122.75 57.18c0-.33-.06-.64-.18-.94h2.89c-.11.29-.18.61-.18.94s.06.65.19.94h-2.91c.12-.29.19-.61.19-.94" class="cls-1"/><path d="M122.75 57.18c0-.33-.06-.64-.18-.94h2.89c-.11.29-.18.61-.18.94s.06.65.19.94h-2.91c.12-.29.19-.61.19-.94" class="cls-5"/><path d="M122.75 57.18c0-.33-.06-.64-.18-.94h2.89c-.11.29-.18.61-.18.94s.06.65.19.94h-2.91c.12-.29.19-.61.19-.94" class="cls-15"/><path d="M125.28 57.18c0-.33.06-.64.18-.94h.48v1.88h-.47c-.12-.29-.19-.61-.19-.94M122.1 58.12v-1.88h.47c.11.29.18.61.18.94s-.06.65-.19.94z" class="cls-11"/><path d="M75.54 25.78c0-.33-.06-.64-.18-.94h2.89c-.11.29-.18.61-.18.94s.06.65.19.94h-2.91c.12-.29.19-.61.19-.94" class="cls-1"/><path d="M75.54 25.78c0-.33-.06-.64-.18-.94h2.89c-.11.29-.18.61-.18.94s.06.65.19.94h-2.91c.12-.29.19-.61.19-.94" class="cls-5"/><path d="M75.54 25.78c0-.33-.06-.64-.18-.94h2.89c-.11.29-.18.61-.18.94s.06.65.19.94h-2.91c.12-.29.19-.61.19-.94" class="cls-15"/><path d="M78.08 25.78c0-.33.06-.64.18-.94h.48v1.88h-.47c-.12-.29-.19-.61-.19-.94M74.9 26.73v-1.88h.47c.11.29.18.61.18.94s-.06.65-.19.94z" class="cls-11"/><path d="M75.54 28.11c0-.33-.06-.64-.18-.94h2.89c-.11.29-.18.61-.18.94s.06.65.19.94h-2.91c.12-.29.19-.61.19-.94" class="cls-1"/><path d="M75.54 28.11c0-.33-.06-.64-.18-.94h2.89c-.11.29-.18.61-.18.94s.06.65.19.94h-2.91c.12-.29.19-.61.19-.94" class="cls-5"/><path d="M75.54 28.11c0-.33-.06-.64-.18-.94h2.89c-.11.29-.18.61-.18.94s.06.65.19.94h-2.91c.12-.29.19-.61.19-.94" class="cls-15"/><path d="M78.08 28.11c0-.33.06-.64.18-.94h.48v1.88h-.47c-.12-.29-.19-.61-.19-.94M74.9 29.06v-1.88h.47c.11.29.18.61.18.94s-.06.65-.19.94z" class="cls-11"/><path d="M75.54 48.99c0-.33-.06-.64-.18-.94h2.89c-.11.29-.18.61-.18.94s.06.65.19.94h-2.91c.12-.29.19-.61.19-.94" class="cls-1"/><path d="M75.54 48.99c0-.33-.06-.64-.18-.94h2.89c-.11.29-.18.61-.18.94s.06.65.19.94h-2.91c.12-.29.19-.61.19-.94" class="cls-5"/><path d="M75.54 48.99c0-.33-.06-.64-.18-.94h2.89c-.11.29-.18.61-.18.94s.06.65.19.94h-2.91c.12-.29.19-.61.19-.94" class="cls-15"/><path d="M78.08 48.99c0-.33.06-.64.18-.94h.48v1.88h-.47c-.12-.29-.19-.61-.19-.94M74.9 49.94v-1.88h.47c.11.29.18.61.18.94s-.06.65-.19.94z" class="cls-11"/><path d="M69.87 48.99c0-.33-.06-.64-.18-.94h2.89c-.11.29-.18.61-.18.94s.06.65.19.94h-2.91c.12-.29.19-.61.19-.94" class="cls-1"/><path d="M69.87 48.99c0-.33-.06-.64-.18-.94h2.89c-.11.29-.18.61-.18.94s.06.65.19.94h-2.91c.12-.29.19-.61.19-.94" class="cls-5"/><path d="M69.87 48.99c0-.33-.06-.64-.18-.94h2.89c-.11.29-.18.61-.18.94s.06.65.19.94h-2.91c.12-.29.19-.61.19-.94" class="cls-15"/><path d="M72.4 48.99c0-.33.06-.64.18-.94h.48v1.88h-.47c-.12-.29-.19-.61-.19-.94M69.23 49.94v-1.88h.47c.11.29.18.61.18.94s-.06.65-.19.94z" class="cls-11"/><path d="M75.4 34.66c0-.33-.06-.64-.18-.94h2.89c-.11.29-.18.61-.18.94s.06.65.19.94h-2.91c.12-.29.19-.61.19-.94" class="cls-1"/><path d="M75.4 34.66c0-.33-.06-.64-.18-.94h2.89c-.11.29-.18.61-.18.94s.06.65.19.94h-2.91c.12-.29.19-.61.19-.94" class="cls-5"/><path d="M75.4 34.66c0-.33-.06-.64-.18-.94h2.89c-.11.29-.18.61-.18.94s.06.65.19.94h-2.91c.12-.29.19-.61.19-.94" class="cls-15"/><path d="M77.93 34.66c0-.33.06-.64.18-.94h.48v1.88h-.47c-.12-.29-.19-.61-.19-.94M74.75 35.61v-1.88h.47c.11.29.18.61.18.94s-.06.65-.19.94z" class="cls-11"/><path d="M125.28 45.33c0 .33.06.64.18.94h-2.89c.11-.29.18-.61.18-.94s-.06-.65-.19-.94h2.91c-.12.29-.19.61-.19.94" class="cls-7"/><path d="M122.75 45.33c0 .33-.06.64-.18.94h-.48v-1.88h.47c.12.29.19.61.19.94M125.93 44.38v1.88h-.47c-.11-.29-.18-.61-.18-.94s.06-.65.19-.94z" class="cls-11"/><path d="M163 30.34c0 .33.06.64.18.94h-2.89c.11-.29.18-.61.18-.94s-.06-.65-.19-.94h2.91c-.12.29-.19.61-.19.94" class="cls-7"/><path d="M160.46 30.34c0 .33-.06.64-.18.94h-.48V29.4h.47c.12.29.19.61.19.94M163.64 29.4v1.88h-.47c-.11-.29-.18-.61-.18-.94s.06-.65.19-.94z" class="cls-11"/><path d="M125.28 39.15c0 .33.06.64.18.94h-2.89c.11-.29.18-.61.18-.94s-.06-.65-.19-.94h2.91c-.12.29-.19.61-.19.94" class="cls-7"/><path d="M122.75 39.15c0 .33-.06.64-.18.94h-.48v-1.88h.47c.12.29.19.61.19.94M125.93 38.2v1.88h-.47c-.11-.29-.18-.61-.18-.94s.06-.65.19-.94z" class="cls-11"/><path d="M129.56 30.09c0 .33.06.64.18.94h-2.89c.11-.29.18-.61.18-.94s-.06-.65-.19-.94h2.91c-.12.29-.19.61-.19.94" class="cls-7"/><path d="M127.02 30.09c0 .33-.06.64-.18.94h-.48v-1.88h.47c.12.29.19.61.19.94M130.2 29.15v1.88h-.47c-.11-.29-.18-.61-.18-.94s.06-.65.19-.94z" class="cls-11"/><path d="M57.85 47.36c-.33 0-.64.06-.94.18v-2.89c.29.11.61.18.94.18s.65-.06.94-.19v2.91c-.29-.12-.61-.19-.94-.19" class="cls-7"/><path d="M57.85 44.82c-.33 0-.64-.06-.94-.18v-.48h1.88v.47c-.29.12-.61.19-.94.19M58.8 48h-1.88v-.47c.29-.11.61-.18.94-.18s.65.06.94.19z" class="cls-11"/><path d="M38.96 53.32c-.33 0-.64.06-.94.18v-2.89c.29.11.61.18.94.18s.65-.06.94-.19v2.91c-.29-.12-.61-.19-.94-.19" class="cls-7"/><path d="M38.96 50.79c-.33 0-.64-.06-.94-.18v-.48h1.88v.47c-.29.12-.61.19-.94.19M39.9 53.97h-1.88v-.47c.29-.11.61-.18.94-.18s.65.06.94.19z" class="cls-11"/><path d="M121.23 42.23c0-.48-.09-.95-.26-1.38h4.26a3.76 3.76 0 0 0 .01 2.77h-4.28c.18-.43.27-.9.27-1.39" class="cls-7"/><path d="M124.97 42.23c0-.48.09-.95.26-1.38h.7v2.77h-.69c-.18-.43-.27-.9-.27-1.39M120.28 43.62v-2.77h.69a3.76 3.76 0 0 1-.01 2.77z" class="cls-11"/><path d="M164.5 47.78c0-.48-.09-.95-.26-1.38h4.26a3.76 3.76 0 0 0 .01 2.77h-4.28c.18-.43.27-.9.27-1.39" class="cls-7"/><path d="M168.24 47.78c0-.48.09-.95.26-1.38h.7v2.77h-.69c-.18-.43-.27-.9-.27-1.39M163.55 49.17V46.4h.69a3.76 3.76 0 0 1-.01 2.77z" class="cls-11"/><path d="M49 55.82c-.33 0-.64.06-.94.18v-2.89c.29.11.61.18.94.18s.65-.06.94-.19v2.91c-.29-.12-.61-.19-.94-.19" class="cls-7"/><path d="M49 53.29c-.33 0-.64-.06-.94-.18v-.48h1.88v.47c-.29.12-.61.19-.94.19M49.95 56.46h-1.88v-.47c.29-.11.61-.18.94-.18s.65.06.94.19z" class="cls-11"/><path d="M78.92 76.68c-.33 0-.64.06-.94.18v-2.89c.29.11.61.18.94.18s.65-.06.94-.19v2.91c-.29-.12-.61-.19-.94-.19" class="cls-7"/><path d="M78.92 74.15c-.33 0-.64-.06-.94-.18v-.48h1.88v.47c-.29.12-.61.19-.94.19M79.87 77.33h-1.88v-.47c.29-.11.61-.18.94-.18s.65.06.94.19z" class="cls-11"/><path d="M81.71 76.68c-.33 0-.64.06-.94.18v-2.89c.29.11.61.18.94.18s.65-.06.94-.19v2.91c-.29-.12-.61-.19-.94-.19" class="cls-7"/><path d="M81.71 74.15c-.33 0-.64-.06-.94-.18v-.48h1.88v.47c-.29.12-.61.19-.94.19M82.66 77.33h-1.88v-.47c.29-.11.61-.18.94-.18s.65.06.94.19z" class="cls-11"/><path d="M73.21 90.35c0-.33-.06-.64-.18-.94h2.89c-.11.29-.18.61-.18.94s.06.65.19.94h-2.91c.12-.29.19-.61.19-.94" class="cls-7"/><path d="M75.75 90.35c0-.33.06-.64.18-.94h.48v1.88h-.47c-.12-.29-.19-.61-.19-.94M72.57 91.3v-1.88h.47c.11.29.18.61.18.94s-.06.65-.19.94z" class="cls-11"/><path d="M57.7 116.26c-.33 0-.64.06-.94.18v-2.89c.29.11.61.18.94.18s.65-.06.94-.19v2.91c-.29-.12-.61-.19-.94-.19" class="cls-7"/><path d="M57.7 113.73c-.33 0-.64-.06-.94-.18v-.48h1.88v.47c-.29.12-.61.19-.94.19M58.65 116.91h-1.88v-.47c.29-.11.61-.18.94-.18s.65.06.94.19z" class="cls-11"/><path d="M54.96 47.36c-.33 0-.64.06-.94.18v-2.89c.29.11.61.18.94.18s.65-.06.94-.19v2.91c-.29-.12-.61-.19-.94-.19" class="cls-7"/><path d="M54.96 44.82c-.33 0-.64-.06-.94-.18v-.48h1.88v.47c-.29.12-.61.19-.94.19M55.91 48h-1.88v-.47c.29-.11.61-.18.94-.18s.65.06.94.19z" class="cls-11"/><path d="M39.24 33.72c0-.33-.06-.64-.18-.94h2.89c-.11.29-.18.61-.18.94s.06.65.19.94h-2.91c.12-.29.19-.61.19-.94" class="cls-7"/><path d="M41.78 33.72c0-.33.06-.64.18-.94h.48v1.88h-.47c-.12-.29-.19-.61-.19-.94M38.6 34.67v-1.88h.47c.11.29.18.61.18.94s-.06.65-.19.94z" class="cls-11"/><path d="M11.01 26.23c0-.72-.09-1.42-.26-2.07h4.26c-.17.64-.26 1.35-.26 2.07s.09 1.44.27 2.09h-4.28c.18-.64.27-1.35.27-2.09" class="cls-7"/><path d="M14.75 26.23c0-.72.09-1.42.26-2.07h.7v4.15h-.69c-.18-.64-.27-1.35-.27-2.09ZM10.06 28.31v-4.15h.69c.17.64.26 1.35.26 2.07s-.09 1.44-.27 2.09h-.68Z" class="cls-11"/><path d="M85.72 70.64c0-.72-.09-1.42-.26-2.07h4.26c-.17.64-.26 1.35-.26 2.07s.09 1.44.27 2.09h-4.28c.18-.64.27-1.35.27-2.09" class="cls-7"/><path d="M89.46 70.64c0-.72.09-1.42.26-2.07h.7v4.15h-.69c-.18-.64-.27-1.35-.27-2.09ZM84.77 72.73v-4.15h.69c.17.64.26 1.35.26 2.07s-.09 1.44-.27 2.09h-.68Z" class="cls-11"/><path d="M85.72 75.67c0-.72-.09-1.42-.26-2.07h4.26c-.17.64-.26 1.35-.26 2.07s.09 1.44.27 2.09h-4.28c.18-.64.27-1.35.27-2.09" class="cls-7"/><path d="M89.46 75.67c0-.72.09-1.42.26-2.07h.7v4.15h-.69c-.18-.64-.27-1.35-.27-2.09ZM84.77 77.76v-4.15h.69c.17.64.26 1.35.26 2.07s-.09 1.44-.27 2.09h-.68Z" class="cls-11"/><path d="M85.72 80.71c0-.72-.09-1.42-.26-2.07h4.26c-.17.64-.26 1.35-.26 2.07s.09 1.44.27 2.09h-4.28c.18-.64.27-1.35.27-2.09" class="cls-7"/><path d="M89.46 80.71c0-.72.09-1.42.26-2.07h.7v4.15h-.69c-.18-.64-.27-1.35-.27-2.09ZM84.77 82.79v-4.15h.69c.17.64.26 1.35.26 2.07s-.09 1.44-.27 2.09h-.68Z" class="cls-11"/><path d="M85.72 85.74c0-.72-.09-1.42-.26-2.07h4.26c-.17.64-.26 1.35-.26 2.07s.09 1.44.27 2.09h-4.28c.18-.64.27-1.35.27-2.09" class="cls-7"/><path d="M89.46 85.74c0-.72.09-1.42.26-2.07h.7v4.15h-.69c-.18-.64-.27-1.35-.27-2.09ZM84.77 87.82v-4.15h.69c.17.64.26 1.35.26 2.07s-.09 1.44-.27 2.09h-.68Z" class="cls-11"/><path d="M73.41 94.28c.72 0 1.42-.09 2.07-.26v4.26c-.64-.17-1.35-.26-2.07-.26s-1.44.09-2.09.27v-4.28c.64.18 1.35.27 2.09.27" class="cls-7"/><path d="M73.41 98.02c.72 0 1.42.09 2.07.26v.7h-4.15v-.69c.64-.18 1.35-.27 2.09-.27ZM71.33 93.33h4.15v.69c-.64.17-1.35.26-2.07.26s-1.44-.09-2.09-.27v-.68Z" class="cls-11"/><path d="M88.69 107.04c.72 0 1.42-.09 2.07-.26v4.26c-.64-.17-1.35-.26-2.07-.26s-1.44.09-2.09.27v-4.28c.64.18 1.35.27 2.09.27" class="cls-7"/><path d="M88.69 110.77c.72 0 1.42.09 2.07.26v.7h-4.15v-.69c.64-.18 1.35-.27 2.09-.27ZM86.6 106.09h4.15v.69c-.64.17-1.35.26-2.07.26s-1.44-.09-2.09-.27v-.68Z" class="cls-11"/><path d="M53.65 112.21c.72 0 1.42-.09 2.07-.26v4.26c-.64-.17-1.35-.26-2.07-.26s-1.44.09-2.09.27v-4.28c.64.18 1.35.27 2.09.27" class="cls-7"/><path d="M53.65 115.94c.72 0 1.42.09 2.07.26v.7h-4.15v-.69c.64-.18 1.35-.27 2.09-.27ZM51.56 111.26h4.15v.69c-.64.17-1.35.26-2.07.26s-1.44-.09-2.09-.27v-.68Z" class="cls-11"/><path d="M68.32 94.28c.72 0 1.42-.09 2.07-.26v4.26c-.64-.17-1.35-.26-2.07-.26s-1.44.09-2.09.27v-4.28c.64.18 1.35.27 2.09.27" class="cls-7"/><path d="M68.32 98.02c.72 0 1.42.09 2.07.26v.7h-4.15v-.69c.64-.18 1.35-.27 2.09-.27ZM66.24 93.33h4.15v.69c-.64.17-1.35.26-2.07.26s-1.44-.09-2.09-.27v-.68ZM61.07 16.43v1.12h-1.86v-1.12zM61.07 19.1v1.12h-1.86V19.1zM67.54 16.42v1.12h-1.86v-1.12zM67.55 19.1v1.12h-1.86V19.1zM41.09 16.42v1.12h-1.86v-1.12zM41.1 19.1v1.12h-1.86V19.1zM25.83 59.29h-1.12v-1.86h1.12zM23.15 59.29h-1.12v-1.86h1.12zM68.53 68.29v1.12h-1.86v-1.12zM68.52 70.96v1.12h-1.86v-1.12zM71.32 68.29v1.12h-1.86v-1.12zM71.31 70.96v1.12h-1.86v-1.12zM71.31 73.52v1.12h-1.86v-1.12zM71.32 76.19v1.12h-1.86v-1.12zM71.32 85.1v1.12h-1.86V85.1zM71.32 87.77v1.12h-1.86v-1.12zM167.36 60.92h-1.12v-1.86h1.12zM164.69 60.92h-1.12v-1.86h1.12zM121.63 34.14v-1.12h1.86v1.12zM121.63 31.46v-1.12h1.86v1.12z" class="cls-11"/><path d="M73.87 30.09h5.89v2.62h-5.89z" class="cls-10"/><circle cx="76.82" cy="31.4" r="1.89" class="cls-3"/><path d="M73.87 44.65h5.89v2.62h-5.89z" class="cls-10"/><circle cx="76.82" cy="45.97" r="1.89" class="cls-3"/><path d="m175.496 35.197 4.165 4.165-1.852 1.852-4.165-4.165z" class="cls-10"/><circle cx="176.65" cy="38.2" r="1.89" class="cls-3"/><path d="m100.242 70.908-4.165 4.165-1.852-1.853 4.164-4.164z" class="cls-10"/><circle cx="97.24" cy="72.07" r="1.89" class="cls-3"/><path d="m105.746 70.914-4.165 4.165-1.853-1.852 4.165-4.165z" class="cls-10"/><circle cx="102.74" cy="72.07" r="1.89" class="cls-3"/><path d="m111.247 70.913-4.165 4.165-1.853-1.852 4.165-4.165z" class="cls-10"/><circle cx="108.24" cy="72.07" r="1.89" class="cls-3"/><path d="m116.758 70.913-4.165 4.164-1.853-1.852 4.165-4.165z" class="cls-10"/><circle cx="113.75" cy="72.07" r="1.89" class="cls-3"/><path d="m122.252 70.919-4.165 4.165-1.853-1.853 4.165-4.165z" class="cls-10"/><circle cx="119.25" cy="72.07" r="1.89" class="cls-3"/><path d="m127.752 70.918-4.164 4.165-1.853-1.853 4.165-4.165z" class="cls-10"/><circle cx="124.75" cy="72.07" r="1.89" class="cls-3"/><path d="m133.263 70.907-4.164 4.165-1.853-1.853 4.165-4.165z" class="cls-10"/><circle cx="130.25" cy="72.07" r="1.89" class="cls-3"/><path d="m138.764 70.906-4.165 4.165-1.852-1.853 4.165-4.165z" class="cls-10"/><circle cx="135.76" cy="72.07" r="1.89" class="cls-3"/><path d="m144.268 70.912-4.165 4.165-1.852-1.853 4.164-4.164z" class="cls-10"/><circle cx="141.26" cy="72.07" r="1.89" class="cls-3"/><path d="m149.769 70.911-4.165 4.165-1.852-1.853 4.164-4.164z" class="cls-10"/><circle cx="146.76" cy="72.07" r="1.89" class="cls-3"/><path d="m155.27 70.91-4.165 4.165-1.853-1.852 4.165-4.165z" class="cls-10"/><circle cx="152.27" cy="72.07" r="1.89" class="cls-3"/><path d="m160.774 70.916-4.165 4.165-1.853-1.852 4.165-4.165z" class="cls-10"/><circle cx="157.77" cy="72.07" r="1.89" class="cls-3"/><path d="m100.253 76.42-4.165 4.164-1.853-1.853 4.165-4.164z" class="cls-10"/><circle cx="97.24" cy="77.57" r="1.89" class="cls-3"/><path d="m105.747 76.415-4.165 4.165-1.853-1.852 4.165-4.165z" class="cls-10"/><circle cx="102.74" cy="77.57" r="1.89" class="cls-3"/><path d="m111.248 76.414-4.165 4.165-1.853-1.852 4.165-4.165z" class="cls-10"/><circle cx="108.24" cy="77.57" r="1.89" class="cls-3"/><path d="m116.759 76.413-4.165 4.165-1.853-1.852 4.165-4.165z" class="cls-10"/><circle cx="113.75" cy="77.57" r="1.89" class="cls-3"/><path d="m122.252 76.42-4.164 4.164-1.853-1.852 4.165-4.165z" class="cls-10"/><circle cx="119.25" cy="77.57" r="1.89" class="cls-3"/><path d="m127.763 76.419-4.164 4.165-1.853-1.853 4.165-4.165z" class="cls-10"/><circle cx="124.75" cy="77.57" r="1.89" class="cls-3"/><path d="m133.264 76.418-4.165 4.165-1.852-1.853 4.165-4.165z" class="cls-10"/><circle cx="130.25" cy="77.57" r="1.89" class="cls-3"/><path d="m138.765 76.417-4.165 4.165-1.852-1.853 4.165-4.165z" class="cls-10"/><circle cx="135.76" cy="77.57" r="1.89" class="cls-3"/><path d="m144.269 76.423-4.165 4.165-1.852-1.853 4.164-4.165z" class="cls-10"/><circle cx="141.26" cy="77.57" r="1.89" class="cls-3"/><path d="m149.77 76.422-4.165 4.165-1.853-1.853 4.165-4.164z" class="cls-10"/><circle cx="146.76" cy="77.57" r="1.89" class="cls-3"/><path d="m155.28 76.411-4.164 4.165-1.853-1.853 4.165-4.164z" class="cls-10"/><circle cx="152.27" cy="77.57" r="1.89" class="cls-3"/><path d="m160.775 76.417-4.165 4.165-1.853-1.852 4.165-4.165z" class="cls-10"/><circle cx="157.77" cy="77.57" r="1.89" class="cls-3"/><path d="m100.254 81.92-4.165 4.165-1.853-1.853 4.165-4.165z" class="cls-10"/><circle cx="97.24" cy="83.07" r="1.89" class="cls-3"/><path d="m105.748 81.926-4.165 4.165-1.853-1.853 4.165-4.164z" class="cls-10"/><circle cx="102.74" cy="83.07" r="1.89" class="cls-3"/><path d="m111.259 81.925-4.165 4.165-1.853-1.852 4.165-4.165z" class="cls-10"/><circle cx="108.24" cy="83.07" r="1.89" class="cls-3"/><path d="m116.76 81.924-4.165 4.165-1.853-1.852 4.165-4.165z" class="cls-10"/><circle cx="113.75" cy="83.07" r="1.89" class="cls-3"/><path d="m122.253 81.93-4.164 4.165-1.853-1.852 4.165-4.165z" class="cls-10"/><circle cx="119.25" cy="83.07" r="1.89" class="cls-3"/><path d="m127.764 81.92-4.165 4.164-1.852-1.852 4.165-4.165z" class="cls-10"/><circle cx="124.75" cy="83.07" r="1.89" class="cls-3"/><path d="m133.265 81.919-4.165 4.165-1.852-1.853 4.165-4.165z" class="cls-10"/><circle cx="130.25" cy="83.07" r="1.89" class="cls-3"/><path d="m138.766 81.918-4.165 4.165-1.852-1.853 4.164-4.165z" class="cls-10"/><circle cx="135.76" cy="83.07" r="1.89" class="cls-3"/><path d="m144.27 81.924-4.165 4.165-1.853-1.853 4.165-4.165z" class="cls-10"/><circle cx="141.26" cy="83.07" r="1.89" class="cls-3"/><path d="m149.77 81.923-4.164 4.165-1.853-1.853 4.165-4.165z" class="cls-10"/><circle cx="146.76" cy="83.07" r="1.89" class="cls-3"/><path d="m155.282 81.922-4.165 4.165-1.853-1.853 4.165-4.164z" class="cls-10"/><circle cx="152.27" cy="83.07" r="1.89" class="cls-3"/><path d="m160.776 81.928-4.165 4.165-1.853-1.852 4.165-4.165z" class="cls-10"/><circle cx="157.77" cy="83.07" r="1.89" class="cls-3"/><path d="m100.248 87.414-4.165 4.165-1.853-1.853 4.165-4.165z" class="cls-10"/><circle cx="97.24" cy="88.58" r="1.89" class="cls-3"/><path d="m105.742 87.42-4.165 4.165-1.853-1.853 4.165-4.165z" class="cls-10"/><circle cx="102.74" cy="88.58" r="1.89" class="cls-3"/><path d="m111.252 87.42-4.164 4.164-1.853-1.853 4.165-4.164z" class="cls-10"/><circle cx="108.24" cy="88.58" r="1.89" class="cls-3"/><path d="m116.753 87.418-4.164 4.165-1.853-1.853 4.165-4.164z" class="cls-10"/><circle cx="113.75" cy="88.58" r="1.89" class="cls-3"/><path d="m122.247 87.424-4.165 4.165-1.852-1.852 4.165-4.165z" class="cls-10"/><circle cx="119.25" cy="88.58" r="1.89" class="cls-3"/><path d="m127.758 87.423-4.165 4.165-1.852-1.852 4.164-4.165z" class="cls-10"/><circle cx="124.75" cy="88.58" r="1.89" class="cls-3"/><path d="m133.259 87.423-4.165 4.164-1.852-1.852 4.164-4.165z" class="cls-10"/><circle cx="130.25" cy="88.58" r="1.89" class="cls-3"/><path d="m138.77 87.422-4.165 4.165-1.853-1.853 4.165-4.165z" class="cls-10"/><circle cx="135.76" cy="88.58" r="1.89" class="cls-3"/><path d="m144.264 87.428-4.165 4.165-1.853-1.853 4.165-4.165z" class="cls-10"/><circle cx="141.26" cy="88.58" r="1.89" class="cls-3"/><path d="m149.765 87.417-4.165 4.165-1.853-1.853 4.165-4.165z" class="cls-10"/><circle cx="146.76" cy="88.58" r="1.89" class="cls-3"/><path d="m155.276 87.416-4.165 4.165-1.853-1.853 4.165-4.165z" class="cls-10"/><circle cx="152.27" cy="88.58" r="1.89" class="cls-3"/><path d="m160.77 87.422-4.165 4.165-1.853-1.853 4.165-4.164z" class="cls-10"/><circle cx="157.77" cy="88.58" r="1.89" class="cls-3"/><path d="m100.249 92.925-4.165 4.165-1.853-1.853 4.165-4.165z" class="cls-10"/><circle cx="97.24" cy="94.08" r="1.89" class="cls-3"/><path d="m105.742 92.931-4.164 4.165-1.853-1.853 4.165-4.165z" class="cls-10"/><circle cx="102.74" cy="94.08" r="1.89" class="cls-3"/><path d="m111.253 92.93-4.164 4.165-1.853-1.853 4.165-4.165z" class="cls-10"/><circle cx="108.24" cy="94.08" r="1.89" class="cls-3"/><path d="m116.754 92.93-4.165 4.164-1.852-1.853 4.165-4.164z" class="cls-10"/><circle cx="113.75" cy="94.08" r="1.89" class="cls-3"/><path d="m122.258 92.925-4.165 4.165-1.852-1.852 4.164-4.165z" class="cls-10"/><circle cx="119.25" cy="94.08" r="1.89" class="cls-3"/><path d="m127.759 92.924-4.165 4.165-1.852-1.852 4.164-4.165z" class="cls-10"/><circle cx="124.75" cy="94.08" r="1.89" class="cls-3"/><path d="m133.26 92.923-4.165 4.165-1.853-1.852 4.165-4.165z" class="cls-10"/><circle cx="130.25" cy="94.08" r="1.89" class="cls-3"/><path d="m138.77 92.923-4.164 4.164-1.853-1.852 4.165-4.165z" class="cls-10"/><circle cx="135.76" cy="94.08" r="1.89" class="cls-3"/><path d="m144.265 92.929-4.165 4.165-1.853-1.853 4.165-4.165z" class="cls-10"/><circle cx="141.26" cy="94.08" r="1.89" class="cls-3"/><path d="m149.776 92.928-4.165 4.165-1.853-1.853 4.165-4.165z" class="cls-10"/><circle cx="146.76" cy="94.08" r="1.89" class="cls-3"/><path d="m155.277 92.927-4.165 4.165-1.853-1.853 4.165-4.165z" class="cls-10"/><circle cx="152.27" cy="94.08" r="1.89" class="cls-3"/><path d="m160.77 92.933-4.164 4.165-1.853-1.853 4.165-4.165z" class="cls-10"/><circle cx="157.77" cy="94.08" r="1.89" class="cls-3"/><path d="m100.25 98.426-4.165 4.165-1.853-1.853 4.165-4.165z" class="cls-10"/><circle cx="97.24" cy="99.58" r="1.89" class="cls-3"/><path d="m105.743 98.432-4.164 4.165-1.853-1.853 4.165-4.165z" class="cls-10"/><circle cx="102.74" cy="99.58" r="1.89" class="cls-3"/><path d="m111.254 98.431-4.165 4.165-1.852-1.853 4.165-4.165z" class="cls-10"/><circle cx="108.24" cy="99.58" r="1.89" class="cls-3"/><path d="m116.755 98.43-4.165 4.165-1.852-1.853 4.165-4.165z" class="cls-10"/><circle cx="113.75" cy="99.58" r="1.89" class="cls-3"/><path d="m122.259 98.436-4.165 4.165-1.852-1.853 4.164-4.164z" class="cls-10"/><circle cx="119.25" cy="99.58" r="1.89" class="cls-3"/><path d="m127.76 98.435-4.165 4.165-1.853-1.852 4.165-4.165z" class="cls-10"/><circle cx="124.75" cy="99.58" r="1.89" class="cls-3"/><path d="m133.26 98.434-4.164 4.165-1.853-1.852 4.165-4.165z" class="cls-10"/><circle cx="130.25" cy="99.58" r="1.89" class="cls-3"/><path d="m138.772 98.423-4.165 4.165-1.853-1.852 4.165-4.165z" class="cls-10"/><circle cx="135.76" cy="99.58" r="1.89" class="cls-3"/><path d="m144.266 98.43-4.165 4.164-1.853-1.852 4.165-4.165z" class="cls-10"/><circle cx="141.26" cy="99.58" r="1.89" class="cls-3"/><path d="m149.777 98.429-4.165 4.165-1.853-1.853 4.165-4.165z" class="cls-10"/><circle cx="146.76" cy="99.58" r="1.89" class="cls-3"/><path d="m155.277 98.428-4.164 4.165-1.853-1.853 4.165-4.165z" class="cls-10"/><circle cx="152.27" cy="99.58" r="1.89" class="cls-3"/><path d="m160.771 98.434-4.165 4.165-1.852-1.853 4.165-4.165z" class="cls-10"/><circle cx="157.77" cy="99.58" r="1.89" class="cls-3"/><path d="m100.25 103.937-4.164 4.164-1.853-1.852 4.165-4.165z" class="cls-10"/><circle cx="97.24" cy="105.09" r="1.89" class="cls-3"/><path d="m105.754 103.943-4.165 4.165-1.852-1.853 4.165-4.165z" class="cls-10"/><circle cx="102.74" cy="105.09" r="1.89" class="cls-3"/><path d="m111.255 103.932-4.165 4.165-1.852-1.853 4.165-4.165z" class="cls-10"/><circle cx="108.24" cy="105.09" r="1.89" class="cls-3"/><path d="m116.756 103.931-4.165 4.165-1.852-1.853 4.164-4.165z" class="cls-10"/><circle cx="113.75" cy="105.09" r="1.89" class="cls-3"/><path d="m122.26 103.937-4.165 4.165-1.853-1.853 4.165-4.165z" class="cls-10"/><circle cx="119.25" cy="105.09" r="1.89" class="cls-3"/><path d="m127.76 103.936-4.164 4.165-1.853-1.853 4.165-4.164z" class="cls-10"/><circle cx="124.75" cy="105.09" r="1.89" class="cls-3"/><path d="m133.272 103.935-4.165 4.165-1.853-1.852 4.165-4.165z" class="cls-10"/><circle cx="130.25" cy="105.09" r="1.89" class="cls-3"/><path d="m138.773 103.934-4.165 4.165-1.853-1.852 4.165-4.165z" class="cls-10"/><circle cx="135.76" cy="105.09" r="1.89" class="cls-3"/><path d="m144.267 103.94-4.165 4.165-1.853-1.852 4.165-4.165z" class="cls-10"/><circle cx="141.26" cy="105.09" r="1.89" class="cls-3"/><path d="m149.777 103.94-4.164 4.164-1.853-1.852 4.165-4.165z" class="cls-10"/><circle cx="146.76" cy="105.09" r="1.89" class="cls-3"/><path d="m155.278 103.939-4.165 4.165-1.852-1.853 4.165-4.165z" class="cls-10"/><circle cx="152.27" cy="105.09" r="1.89" class="cls-3"/><path d="m160.782 103.935-4.165 4.165-1.852-1.853 4.165-4.165z" class="cls-10"/><circle cx="157.77" cy="105.09" r="1.89" class="cls-3"/><path d="m100.244 109.43-4.165 4.165-1.852-1.852 4.165-4.165z" class="cls-10"/><circle cx="97.24" cy="110.59" r="1.89" class="cls-3"/><path d="m105.748 109.437-4.165 4.164-1.852-1.852 4.164-4.165z" class="cls-10"/><circle cx="102.74" cy="110.59" r="1.89" class="cls-3"/><path d="m111.249 109.436-4.165 4.165-1.852-1.853 4.164-4.165z" class="cls-10"/><circle cx="108.24" cy="110.59" r="1.89" class="cls-3"/><path d="m116.76 109.435-4.165 4.165-1.853-1.853 4.165-4.165z" class="cls-10"/><circle cx="113.75" cy="110.59" r="1.89" class="cls-3"/><path d="m122.254 109.441-4.165 4.165-1.853-1.853 4.165-4.165z" class="cls-10"/><circle cx="119.25" cy="110.59" r="1.89" class="cls-3"/><path d="m127.755 109.44-4.165 4.165-1.853-1.853 4.165-4.165z" class="cls-10"/><circle cx="124.75" cy="110.59" r="1.89" class="cls-3"/><path d="m133.266 109.43-4.165 4.164-1.853-1.853 4.165-4.164z" class="cls-10"/><circle cx="130.25" cy="110.59" r="1.89" class="cls-3"/><path d="m138.767 109.428-4.165 4.165-1.853-1.853 4.165-4.164z" class="cls-10"/><circle cx="135.76" cy="110.59" r="1.89" class="cls-3"/><path d="m144.27 109.434-4.164 4.165-1.853-1.852 4.165-4.165z" class="cls-10"/><circle cx="141.26" cy="110.59" r="1.89" class="cls-3"/><path d="m149.771 109.433-4.165 4.165-1.852-1.852 4.165-4.165z" class="cls-10"/><circle cx="146.76" cy="110.59" r="1.89" class="cls-3"/><path d="m155.272 109.433-4.165 4.164-1.852-1.852 4.165-4.165z" class="cls-10"/><circle cx="152.27" cy="110.59" r="1.89" class="cls-3"/><path d="m160.776 109.439-4.165 4.165-1.852-1.853 4.164-4.165z" class="cls-10"/><circle cx="157.77" cy="110.59" r="1.89" class="cls-3"/><path d="M73.87 50.74h5.89v2.62h-5.89z" class="cls-10"/><circle cx="76.82" cy="52.05" r="1.89" class="cls-3"/><path d="M22.18 35.57h1.19v.73h-1.19zM22.18 33.24h1.19v.73h-1.19zM22.18 36.7h1.19v.73h-1.19zM22.18 37.82h1.19v.73h-1.19zM22.18 38.95h1.19v.73h-1.19zM22.18 40.07h1.19v.73h-1.19zM22.18 41.2h1.19v.73h-1.19zM22.18 42.32h1.19v.73h-1.19zM22.18 43.44h1.19v.73h-1.19zM22.18 44.59h1.19v.73h-1.19zM22.18 45.72h1.19v.73h-1.19zM22.18 46.84h1.19v.73h-1.19zM22.18 47.97h1.19v.73h-1.19zM22.18 50.24h1.19v.73h-1.19z" class="cls-10"/><path d="M4.36 30.89h18.11v23.05H4.36z" class="cls-8"/><path d="M7.23 30.89h1.7v23.05h-1.7zM10.62 30.89h1.7v23.05h-1.7zM14.02 30.89h1.7v23.05h-1.7zM17.4 30.89h1.7v23.05h-1.7zM20.78 30.89h1.69v23.05h-1.69z" class="cls-10"/><path d="M35.5 42.68v-1.62h-7.52v3.25h7.52z" class="cls-1"/><path d="M35.5 42.68v-1.62h-7.52v3.25h7.52z" class="cls-5"/><path d="M35.5 42.68v-1.62h-7.52v3.25h7.52z" class="cls-15"/><path d="M28.32 44.31v1.62c0 .28.22.5.5.5h1.7c.28 0 .5-.22.5-.5v-1.62zM33.31 44.31v1.62c0 .28.14.5.31.5h1.06c.17 0 .31-.22.31-.5v-1.62zM34.99 41.06v-1.62c0-.28-.14-.5-.31-.5h-1.06c-.17 0-.31.22-.31.5v1.62zM30 41.06v-1.62c0-.28-.14-.5-.31-.5h-1.06c-.17 0-.31.22-.31.5v1.62z" class="cls-10"/><path d="M44.27 26.73V25.1h-7.52v3.25h7.52z" class="cls-1"/><path d="M44.27 26.73V25.1h-7.52v3.25h7.52z" class="cls-5"/><path d="M44.27 26.73V25.1h-7.52v3.25h7.52z" class="cls-15"/><path d="M41.83 28.35v1.62c0 .28.18.5.41.5h1.38c.22 0 .41-.22.41-.5v-1.62h-2.19ZM37 28.35v1.62c0 .28.18.5.41.5h1.38c.22 0 .41-.22.41-.5v-1.62h-2.19ZM41.6 25.12V23.5c0-.28-.18-.5-.41-.5h-1.38c-.22 0-.41.22-.41.5v1.62h2.19Z" class="cls-10"/><path d="M168.59 89.11v1.62h7.53v-3.24h-7.53z" class="cls-1"/><path d="M168.59 89.11v1.62h7.53v-3.24h-7.53z" class="cls-5"/><path d="M168.59 89.11v1.62h7.53v-3.24h-7.53z" class="cls-15"/><path d="M171.04 87.49v-1.62c0-.28-.18-.5-.41-.5h-1.38c-.22 0-.41.22-.41.5v1.62h2.19ZM175.87 87.49v-1.62c0-.28-.18-.5-.41-.5h-1.38c-.22 0-.41.22-.41.5v1.62h2.19ZM171.26 90.71v1.62c0 .28.18.5.41.5h1.38c.22 0 .41-.22.41-.5v-1.62h-2.19Z" class="cls-10"/><path d="M67.59 114.72v4.42h17.46v-8.84H67.59z" class="cls-1"/><path d="M67.59 114.72v4.42h17.46v-8.84H67.59z" class="cls-5"/><path d="M67.59 114.72v4.42h17.46v-8.84H67.59z" class="cls-15"/><path d="M71.56 110.29v-3.7c0-.63-.25-1.14-.56-1.14h-1.91c-.31 0-.56.51-.56 1.14v3.7zM83.95 110.29v-3.7c0-.63-.25-1.14-.56-1.14h-1.91c-.31 0-.56.51-.56 1.14v3.7zM77.84 110.29v-3.7c0-.63-.25-1.14-.56-1.14h-1.91c-.31 0-.56.51-.56 1.14v3.7zM72.63 119.14v3.7c0 .63.61 1.14 1.37 1.14h4.65c.76 0 1.37-.51 1.37-1.14v-3.7z" class="cls-10"/><path d="M177.31 89.11v1.62h7.53v-3.24h-7.53z" class="cls-1"/><path d="M177.31 89.11v1.62h7.53v-3.24h-7.53z" class="cls-5"/><path d="M177.31 89.11v1.62h7.53v-3.24h-7.53z" class="cls-15"/><path d="M179.76 87.49v-1.62c0-.28-.18-.5-.41-.5h-1.38c-.22 0-.41.22-.41.5v1.62h2.19ZM184.59 87.49v-1.62c0-.28-.18-.5-.41-.5h-1.38c-.22 0-.41.22-.41.5v1.62h2.19ZM179.98 90.71v1.62c0 .28.18.5.41.5h1.38c.22 0 .41-.22.41-.5v-1.62h-2.19Z" class="cls-10"/><g id="Artwork_16" data-name="Artwork 16"><path d="M51.3 52.07h10.31v5.21H51.3z" class="cls-15"/><path d="M51.3 52.07h10.31v5.21H51.3z" class="cls-5"/><path d="M51.3 52.07h10.31v5.21H51.3z" class="cls-15"/><path d="M61.1 50.91c-.19 0-.35.11-.35.26v.92h.69v-.92c0-.14-.15-.26-.35-.26ZM59.04 50.91c-.19 0-.35.11-.35.26v.92h.69v-.92c0-.14-.15-.26-.35-.26ZM58.01 50.91c-.19 0-.35.11-.35.26v.92h.69v-.92c0-.14-.15-.26-.35-.26ZM56.98 50.91c-.19 0-.35.11-.35.26v.92h.69v-.92c0-.14-.15-.26-.35-.26ZM55.95 50.91c-.19 0-.35.11-.35.26v.92h.69v-.92c0-.14-.15-.26-.35-.26ZM54.91 50.91c-.19 0-.35.11-.35.26v.92h.69v-.92c0-.14-.15-.26-.35-.26ZM53.88 50.91c-.19 0-.35.11-.35.26v.92h.69v-.92c0-.14-.15-.26-.35-.26ZM52.85 50.91c-.19 0-.35.11-.35.26v.92h.69v-.92c0-.14-.15-.26-.35-.26ZM51.82 50.91c-.19 0-.35.11-.35.26v.92h.69v-.92c0-.14-.15-.26-.35-.26ZM60.07 50.91c-.19 0-.35.11-.35.26v.92h.69v-.92c0-.14-.15-.26-.35-.26ZM61.1 58.39c-.19 0-.35-.11-.35-.26v-.88h.69v.88c0 .14-.15.26-.35.26ZM59.04 58.39c-.19 0-.35-.11-.35-.26v-.88h.69v.88c0 .14-.15.26-.35.26ZM58.01 58.39c-.19 0-.35-.11-.35-.26v-.88h.69v.88c0 .14-.15.26-.35.26ZM56.98 58.39c-.19 0-.35-.11-.35-.26v-.88h.69v.88c0 .14-.15.26-.35.26ZM55.95 58.39c-.19 0-.35-.11-.35-.26v-.88h.69v.88c0 .14-.15.26-.35.26ZM54.91 58.39c-.19 0-.35-.11-.35-.26v-.88h.69v.88c0 .14-.15.26-.35.26ZM53.88 58.39c-.19 0-.35-.11-.35-.26v-.88h.69v.88c0 .14-.15.26-.35.26ZM52.85 58.39c-.19 0-.35-.11-.35-.26v-.88h.69v.88c0 .14-.15.26-.35.26ZM51.82 58.39c-.19 0-.35-.11-.35-.26v-.88h.69v.88c0 .14-.15.26-.35.26ZM60.07 58.39c-.19 0-.35-.11-.35-.26v-.88h.69v.88c0 .14-.15.26-.35.26Z" class="cls-10"/></g><g id="Artwork_16-2" data-name="Artwork 16"><path d="M38.64 36.3h3.65v5.59h-3.65z" class="cls-1"/><path d="M38.64 36.3h3.65v5.59h-3.65z" class="cls-5"/><path d="M38.64 36.3h3.65v5.59h-3.65z" class="cls-15"/><path d="M37.47 37.34c0-.2.12-.36.27-.36h.92v.72h-.92c-.15 0-.27-.16-.27-.36M37.47 39.12c0-.2.12-.36.27-.36h.92v.72h-.92c-.15 0-.27-.16-.27-.36M37.47 40.9c0-.2.12-.36.27-.36h.92v.72h-.92c-.15 0-.27-.16-.27-.36M43.48 40.9c0 .2-.12.36-.27.36h-.92v-.72h.92c.15 0 .27.16.27.36M43.48 37.34c0 .2-.12.36-.27.36h-.92v-.72h.92c.15 0 .27.16.27.36M43.48 39.12c0 .2-.12.36-.27.36h-.92v-.72h.92c.15 0 .27.16.27.36" class="cls-10"/></g><g id="Artwork_16-3" data-name="Artwork 16"><path d="M38.64 43.64h3.65v5.59h-3.65z" class="cls-1"/><path d="M38.64 43.64h3.65v5.59h-3.65z" class="cls-5"/><path d="M38.64 43.64h3.65v5.59h-3.65z" class="cls-15"/><path d="M37.47 44.67c0-.2.12-.36.27-.36h.92v.72h-.92c-.15 0-.27-.16-.27-.36M37.47 46.46c0-.2.12-.36.27-.36h.92v.72h-.92c-.15 0-.27-.16-.27-.36M37.47 48.24c0-.2.12-.36.27-.36h.92v.72h-.92c-.15 0-.27-.16-.27-.36M43.48 48.24c0 .2-.12.36-.27.36h-.92v-.72h.92c.15 0 .27.16.27.36M43.48 44.67c0 .2-.12.36-.27.36h-.92v-.72h.92c.15 0 .27.16.27.36M43.48 46.46c0 .2-.12.36-.27.36h-.92v-.72h.92c.15 0 .27.16.27.36" class="cls-10"/></g><g id="USB"><path d="M174.34 95.7h10.7v16.25h-10.7z" class="cls-8"/><path d="M175.87 95.7h-1.53v16.25h1.53V95.7M178.92 95.7h-1.53v16.25h1.53V95.7M181.98 95.7h-1.53v16.25h1.53V95.7M185.04 95.7h-1.53v16.25h1.53V95.7" class="cls-10"/><path d="M170.87 99.25h3.47v1.39h-3.47zM170.87 106.99h3.47v1.39h-3.47zM170.87 104.41h3.47v1.39h-3.47zM170.87 101.83h3.47v1.39h-3.47z" class="cls-13"/></g><path d="M168.59 106.78h1.84v1.84h-1.84z" class="cls-13"/><path d="M77.95 64.95v1.51c0 .38-.31.69-.69.69h-1.75c-.38 0-.69-.31-.69-.69v-1.51zM74.83 57.93v-1.2c0-.35.28-.63.63-.63h1.87c.35 0 .63.28.63.63v1.2z" class="cls-9"/><path d="M76.44 64.95h1.97v-7.01h-3.93v7.01z" class="cls-1"/><path d="M76.44 64.95h1.97v-7.01h-3.93v7.01z" class="cls-5"/><path d="M76.44 64.95h1.97v-7.01h-3.93v7.01z" class="cls-15"/><path d="M49.5 123.03v1.51c0 .38-.31.69-.69.69h-1.75c-.38 0-.69-.31-.69-.69v-1.51zM46.36 116.02v-1.2c0-.35.28-.63.63-.63h1.87c.35 0 .63.28.63.63v1.2z" class="cls-9"/><path d="M47.98 123.03h1.96v-7.02h-3.92v7.02z" class="cls-1"/><path d="M47.98 123.03h1.96v-7.02h-3.92v7.02z" class="cls-5"/><path d="M47.98 123.03h1.96v-7.02h-3.92v7.02z" class="cls-15"/></g></svg>