<svg xmlns="http://www.w3.org/2000/svg" width="192.093" height="113.387" viewBox="0 0 192.093 113.387"><defs><clipPath id="d" clipPathUnits="userSpaceOnUse"><path d="M-246.9 173.27h425.197v-481.89H-246.9Z"/></clipPath><clipPath id="e" clipPathUnits="userSpaceOnUse"><path d="M-252.804 279.794h425.197v-481.89h-425.197Z"/></clipPath><clipPath id="f" clipPathUnits="userSpaceOnUse"><path d="M-178.3 180.64h425.197v-481.89H-178.3Z"/></clipPath><clipPath id="g" clipPathUnits="userSpaceOnUse"><path d="M-246.9 180.64h425.197v-481.89H-246.9Z"/></clipPath><clipPath id="h" clipPathUnits="userSpaceOnUse"><path d="M-177.513 276.009h425.197v-481.89h-425.197Z"/></clipPath><clipPath id="i" clipPathUnits="userSpaceOnUse"><path d="M0 481.89h425.197V0H0Z"/></clipPath><clipPath id="j" clipPathUnits="userSpaceOnUse"><path d="M-190.202 175.28h425.197v-481.89h-425.197Z"/></clipPath><clipPath id="k" clipPathUnits="userSpaceOnUse"><path d="M-190.707 175.28H234.49v-481.89h-425.197Z"/></clipPath><clipPath id="l" clipPathUnits="userSpaceOnUse"><path d="M-192.754 175.28h425.197v-481.89h-425.197Z"/></clipPath><clipPath id="m" clipPathUnits="userSpaceOnUse"><path d="M0 481.89h425.197V0H0Z"/></clipPath><clipPath id="n" clipPathUnits="userSpaceOnUse"><path d="M0 481.89h425.197V0H0Z"/></clipPath><clipPath id="o" clipPathUnits="userSpaceOnUse"><path d="M0 481.89h425.197V0H0Z"/></clipPath><clipPath id="p" clipPathUnits="userSpaceOnUse"><path d="M0 481.89h425.197V0H0Z"/></clipPath><clipPath id="q" clipPathUnits="userSpaceOnUse"><path d="M0 481.89h425.197V0H0Z"/></clipPath><clipPath id="r" clipPathUnits="userSpaceOnUse"><path d="M-226.415 175.28h425.197v-481.89h-425.197Z"/></clipPath><clipPath id="s" clipPathUnits="userSpaceOnUse"><path d="M-226.92 175.28h425.197v-481.89H-226.92Z"/></clipPath><clipPath id="t" clipPathUnits="userSpaceOnUse"><path d="M-228.966 175.28H196.23v-481.89h-425.197Z"/></clipPath><clipPath id="u" clipPathUnits="userSpaceOnUse"><path d="M0 481.89h425.197V0H0Z"/></clipPath><clipPath id="v" clipPathUnits="userSpaceOnUse"><path d="M0 481.89h425.197V0H0Z"/></clipPath><clipPath id="w" clipPathUnits="userSpaceOnUse"><path d="M0 481.89h425.197V0H0Z"/></clipPath><clipPath id="x" clipPathUnits="userSpaceOnUse"><path d="M0 481.89h425.197V0H0Z"/></clipPath><clipPath id="y" clipPathUnits="userSpaceOnUse"><path d="M0 481.89h425.197V0H0Z"/></clipPath><clipPath id="z" clipPathUnits="userSpaceOnUse"><path d="M-208.309 175.28h425.197v-481.89h-425.197Z"/></clipPath><clipPath id="A" clipPathUnits="userSpaceOnUse"><path d="M-208.814 175.28h425.197v-481.89h-425.197Z"/></clipPath><clipPath id="B" clipPathUnits="userSpaceOnUse"><path d="M-210.86 175.28h425.197v-481.89H-210.86Z"/></clipPath><clipPath id="C" clipPathUnits="userSpaceOnUse"><path d="M0 481.89h425.197V0H0Z"/></clipPath><clipPath id="D" clipPathUnits="userSpaceOnUse"><path d="M0 481.89h425.197V0H0Z"/></clipPath><clipPath id="E" clipPathUnits="userSpaceOnUse"><path d="M0 481.89h425.197V0H0Z"/></clipPath><clipPath id="F" clipPathUnits="userSpaceOnUse"><path d="M0 481.89h425.197V0H0Z"/></clipPath><clipPath id="G" clipPathUnits="userSpaceOnUse"><path d="M-210.256 190.616h425.197v-481.89h-425.197Z"/></clipPath><clipPath id="H" clipPathUnits="userSpaceOnUse"><path d="M-214.263 190.616h425.197v-481.89h-425.197Z"/></clipPath><clipPath id="I" clipPathUnits="userSpaceOnUse"><path d="M-218.27 190.616h425.197v-481.89H-218.27Z"/></clipPath><clipPath id="J" clipPathUnits="userSpaceOnUse"><path d="M-222.277 190.616H202.92v-481.89h-425.197Z"/></clipPath><clipPath id="K" clipPathUnits="userSpaceOnUse"><path d="M-226.284 190.616h425.197v-481.89h-425.197Z"/></clipPath><clipPath id="L" clipPathUnits="userSpaceOnUse"><path d="M-230.291 190.616h425.197v-481.89h-425.197Z"/></clipPath><clipPath id="M" clipPathUnits="userSpaceOnUse"><path d="M-234.298 190.616h425.197v-481.89h-425.197Z"/></clipPath><clipPath id="N" clipPathUnits="userSpaceOnUse"><path d="M-177.197 190.616H248v-481.89h-425.197Z"/></clipPath><clipPath id="O" clipPathUnits="userSpaceOnUse"><path d="M-181.204 190.616h425.197v-481.89h-425.197Z"/></clipPath><clipPath id="P" clipPathUnits="userSpaceOnUse"><path d="M-185.211 190.616h425.197v-481.89h-425.197Z"/></clipPath><clipPath id="Q" clipPathUnits="userSpaceOnUse"><path d="M-189.218 190.616h425.197v-481.89h-425.197Z"/></clipPath><clipPath id="R" clipPathUnits="userSpaceOnUse"><path d="M-193.225 190.616h425.197v-481.89h-425.197Z"/></clipPath><clipPath id="S" clipPathUnits="userSpaceOnUse"><path d="M-197.232 190.616h425.197v-481.89h-425.197Z"/></clipPath><clipPath id="T" clipPathUnits="userSpaceOnUse"><path d="M-201.24 190.616h425.198v-481.89H-201.24Z"/></clipPath><clipPath id="U" clipPathUnits="userSpaceOnUse"><path d="M-238.305 190.616h425.197v-481.89h-425.197Z"/></clipPath><clipPath id="V" clipPathUnits="userSpaceOnUse"><path d="M-242.312 190.616h425.197v-481.89h-425.197Z"/></clipPath><clipPath id="W" clipPathUnits="userSpaceOnUse"><path d="M-246.32 190.616h425.198v-481.89H-246.32Z"/></clipPath><clipPath id="X" clipPathUnits="userSpaceOnUse"><path d="M-250.326 190.616H174.87v-481.89h-425.197Z"/></clipPath><clipPath id="Y" clipPathUnits="userSpaceOnUse"><path d="M-210.256 279.794h425.197v-481.89h-425.197Z"/></clipPath><clipPath id="Z" clipPathUnits="userSpaceOnUse"><path d="M-214.263 279.794h425.197v-481.89h-425.197Z"/></clipPath><clipPath id="aa" clipPathUnits="userSpaceOnUse"><path d="M-218.27 279.794h425.197v-481.89H-218.27Z"/></clipPath><clipPath id="ab" clipPathUnits="userSpaceOnUse"><path d="M-222.277 279.794H202.92v-481.89h-425.197Z"/></clipPath><clipPath id="ac" clipPathUnits="userSpaceOnUse"><path d="M-226.284 279.794h425.197v-481.89h-425.197Z"/></clipPath><clipPath id="ad" clipPathUnits="userSpaceOnUse"><path d="M-230.291 279.794h425.197v-481.89h-425.197Z"/></clipPath><clipPath id="ae" clipPathUnits="userSpaceOnUse"><path d="M-234.298 279.794h425.197v-481.89h-425.197Z"/></clipPath><clipPath id="af" clipPathUnits="userSpaceOnUse"><path d="M-177.197 279.794H248v-481.89h-425.197Z"/></clipPath><clipPath id="ag" clipPathUnits="userSpaceOnUse"><path d="M-181.204 279.794h425.197v-481.89h-425.197Z"/></clipPath><clipPath id="ah" clipPathUnits="userSpaceOnUse"><path d="M-185.211 279.794h425.197v-481.89h-425.197Z"/></clipPath><clipPath id="ai" clipPathUnits="userSpaceOnUse"><path d="M-189.218 279.794h425.197v-481.89h-425.197Z"/></clipPath><clipPath id="aj" clipPathUnits="userSpaceOnUse"><path d="M-193.225 279.794h425.197v-481.89h-425.197Z"/></clipPath><clipPath id="ak" clipPathUnits="userSpaceOnUse"><path d="M-197.232 279.794h425.197v-481.89h-425.197Z"/></clipPath><clipPath id="al" clipPathUnits="userSpaceOnUse"><path d="M-201.24 279.794h425.198v-481.89H-201.24Z"/></clipPath><clipPath id="am" clipPathUnits="userSpaceOnUse"><path d="M-238.305 279.794h425.197v-481.89h-425.197Z"/></clipPath><clipPath id="an" clipPathUnits="userSpaceOnUse"><path d="M-242.312 279.794h425.197v-481.89h-425.197Z"/></clipPath><clipPath id="ao" clipPathUnits="userSpaceOnUse"><path d="M-246.32 279.794h425.198v-481.89H-246.32Z"/></clipPath><clipPath id="ap" clipPathUnits="userSpaceOnUse"><path d="M-250.326 279.794H174.87v-481.89h-425.197Z"/></clipPath><clipPath id="aq" clipPathUnits="userSpaceOnUse"><path d="M-193.56 184.307h425.197v-481.89H-193.56Z"/></clipPath><clipPath id="ar" clipPathUnits="userSpaceOnUse"><path d="M-193.56 181.805h425.197v-481.89H-193.56Z"/></clipPath><clipPath id="as" clipPathUnits="userSpaceOnUse"><path d="M-194.494 184.945h425.197v-481.89h-425.197Z"/></clipPath><clipPath id="at" clipPathUnits="userSpaceOnUse"><path d="M-229.523 184.297h425.197v-481.89h-425.197Z"/></clipPath><clipPath id="au" clipPathUnits="userSpaceOnUse"><path d="M-229.523 181.795h425.197v-481.89h-425.197Z"/></clipPath><clipPath id="av" clipPathUnits="userSpaceOnUse"><path d="M-230.456 184.935H194.74v-481.89h-425.197Z"/></clipPath><clipPath id="aw" clipPathUnits="userSpaceOnUse"><path d="M-219.525 290.849h425.197v-481.89h-425.197Z"/></clipPath><clipPath id="ax" clipPathUnits="userSpaceOnUse"><path d="M-219.525 288.347h425.197v-481.89h-425.197Z"/></clipPath><clipPath id="ay" clipPathUnits="userSpaceOnUse"><path d="M-220.458 291.486h425.197v-481.89h-425.197Z"/></clipPath><clipPath id="az" clipPathUnits="userSpaceOnUse"><path d="M-216.342 290.849h425.197v-481.89h-425.197Z"/></clipPath><clipPath id="aA" clipPathUnits="userSpaceOnUse"><path d="M-216.342 288.347h425.197v-481.89h-425.197Z"/></clipPath><clipPath id="aB" clipPathUnits="userSpaceOnUse"><path d="M-217.275 291.486h425.197v-481.89h-425.197Z"/></clipPath><clipPath id="aC" clipPathUnits="userSpaceOnUse"><path d="M-214.157 294.202H211.04v-481.89h-425.197Z"/></clipPath><clipPath id="aD" clipPathUnits="userSpaceOnUse"><path d="M-216.66 294.202h425.198v-481.89H-216.66Z"/></clipPath><clipPath id="aE" clipPathUnits="userSpaceOnUse"><path d="M-213.52 295.136h425.198v-481.89H-213.52Z"/></clipPath><clipPath id="aF" clipPathUnits="userSpaceOnUse"><path d="M-219.203 294.202h425.197v-481.89h-425.197Z"/></clipPath><clipPath id="aG" clipPathUnits="userSpaceOnUse"><path d="M-221.705 294.202h425.197v-481.89h-425.197Z"/></clipPath><clipPath id="aH" clipPathUnits="userSpaceOnUse"><path d="M-218.565 295.136h425.197v-481.89h-425.197Z"/></clipPath><clipPath id="aI" clipPathUnits="userSpaceOnUse"><path d="M-203.745 299.751h425.197v-481.89h-425.197Z"/></clipPath><clipPath id="aJ" clipPathUnits="userSpaceOnUse"><path d="M-206.248 299.752H218.95v-481.89h-425.197Z"/></clipPath><clipPath id="aK" clipPathUnits="userSpaceOnUse"><path d="M-203.108 300.685H222.09v-481.89h-425.197Z"/></clipPath><clipPath id="aL" clipPathUnits="userSpaceOnUse"><path d="M-197.89 299.751h425.196v-481.89H-197.89Z"/></clipPath><clipPath id="aM" clipPathUnits="userSpaceOnUse"><path d="M-200.393 299.752h425.197v-481.89h-425.197Z"/></clipPath><clipPath id="aN" clipPathUnits="userSpaceOnUse"><path d="M-197.254 300.685h425.197v-481.89h-425.197Z"/></clipPath><clipPath id="aO" clipPathUnits="userSpaceOnUse"><path d="M-181.339 299.751h425.197v-481.89h-425.197Z"/></clipPath><clipPath id="aP" clipPathUnits="userSpaceOnUse"><path d="M-183.841 299.752h425.197v-481.89h-425.197Z"/></clipPath><clipPath id="aQ" clipPathUnits="userSpaceOnUse"><path d="M-180.701 300.685h425.197v-481.89h-425.197Z"/></clipPath><clipPath id="aR" clipPathUnits="userSpaceOnUse"><path d="M-200.072 296.429h425.197v-481.89h-425.197Z"/></clipPath><clipPath id="aS" clipPathUnits="userSpaceOnUse"><path d="M-200.072 293.927h425.197v-481.89h-425.197Z"/></clipPath><clipPath id="aT" clipPathUnits="userSpaceOnUse"><path d="M-201.006 297.066h425.197v-481.89h-425.197Z"/></clipPath><clipPath id="aU" clipPathUnits="userSpaceOnUse"><path d="M-213.392 184.397h425.197v-481.89h-425.197Z"/></clipPath><clipPath id="aV" clipPathUnits="userSpaceOnUse"><path d="M-210.89 184.397h425.197v-481.89H-210.89Z"/></clipPath><clipPath id="aW" clipPathUnits="userSpaceOnUse"><path d="M-214.03 183.464h425.198v-481.89H-214.03Z"/></clipPath><clipPath id="aX" clipPathUnits="userSpaceOnUse"><path d="M-211.3 181.694h425.198v-481.89H-211.3Z"/></clipPath><clipPath id="aY" clipPathUnits="userSpaceOnUse"><path d="M-208.797 181.694H216.4v-481.89h-425.197Z"/></clipPath><clipPath id="aZ" clipPathUnits="userSpaceOnUse"><path d="M-211.937 180.76H213.26v-481.89h-425.197Z"/></clipPath><clipPath id="ba" clipPathUnits="userSpaceOnUse"><path d="M-215.94 184.293h425.198v-481.89H-215.94Z"/></clipPath><clipPath id="bb" clipPathUnits="userSpaceOnUse"><path d="M-215.94 181.79h425.197V-300.1H-215.94Z"/></clipPath><clipPath id="bc" clipPathUnits="userSpaceOnUse"><path d="M-216.873 184.93h425.197v-481.89h-425.197Z"/></clipPath><clipPath id="bd" clipPathUnits="userSpaceOnUse"><path d="M-221.07 181.694h425.196v-481.89H-221.07Z"/></clipPath><clipPath id="be" clipPathUnits="userSpaceOnUse"><path d="M-218.568 181.694h425.197v-481.89h-425.197Z"/></clipPath><clipPath id="bf" clipPathUnits="userSpaceOnUse"><path d="M-221.708 180.76h425.197v-481.89h-425.197Z"/></clipPath><clipPath id="bg" clipPathUnits="userSpaceOnUse"><path d="M0 481.89h425.197V0H0Z"/></clipPath><clipPath id="bh" clipPathUnits="userSpaceOnUse"><path d="M0 481.89h425.197V0H0Z"/></clipPath><clipPath id="bi" clipPathUnits="userSpaceOnUse"><path d="M0 481.89h425.197V0H0Z"/></clipPath><clipPath id="bj" clipPathUnits="userSpaceOnUse"><path d="M0 481.89h425.197V0H0Z"/></clipPath><clipPath id="bk" clipPathUnits="userSpaceOnUse"><path d="M0 481.89h425.197V0H0Z"/></clipPath><clipPath id="bl" clipPathUnits="userSpaceOnUse"><path d="M0 481.89h425.197V0H0Z"/></clipPath><clipPath id="bm" clipPathUnits="userSpaceOnUse"><path d="M0 481.89h425.197V0H0Z"/></clipPath><clipPath id="bn" clipPathUnits="userSpaceOnUse"><path d="M0 481.89h425.197V0H0Z"/></clipPath><clipPath id="bo" clipPathUnits="userSpaceOnUse"><path d="M0 481.89h425.197V0H0Z"/></clipPath><clipPath id="bp" clipPathUnits="userSpaceOnUse"><path d="M0 481.89h425.197V0H0Z"/></clipPath><clipPath id="bq" clipPathUnits="userSpaceOnUse"><path d="M0 481.89h425.197V0H0Z"/></clipPath><clipPath id="br" clipPathUnits="userSpaceOnUse"><path d="M0 481.89h425.197V0H0Z"/></clipPath><clipPath id="bs" clipPathUnits="userSpaceOnUse"><path d="M0 481.89h425.197V0H0Z"/></clipPath><clipPath id="bt" clipPathUnits="userSpaceOnUse"><path d="M0 481.89h425.197V0H0Z"/></clipPath><clipPath id="bu" clipPathUnits="userSpaceOnUse"><path d="M0 481.89h425.197V0H0Z"/></clipPath><clipPath id="bv" clipPathUnits="userSpaceOnUse"><path d="M-180.835 290.335h425.197v-481.89h-425.197Z"/></clipPath><clipPath id="bw" clipPathUnits="userSpaceOnUse"><path d="M-183.322 290.503h425.197v-481.89h-425.197Z"/></clipPath><clipPath id="bx" clipPathUnits="userSpaceOnUse"><path d="M-183.322 287.184h425.197v-481.89h-425.197Z"/></clipPath><clipPath id="by" clipPathUnits="userSpaceOnUse"><path d="M-176.785 291.727h425.197v-481.89h-425.197Z"/></clipPath><clipPath id="bz" clipPathUnits="userSpaceOnUse"><path d="M-174.299 291.559h425.197v-481.89h-425.197Z"/></clipPath><clipPath id="bA" clipPathUnits="userSpaceOnUse"><path d="M-174.299 294.878h425.197v-481.89h-425.197Z"/></clipPath><clipPath id="bB" clipPathUnits="userSpaceOnUse"><path d="M-183.626 294.436h425.197v-481.89h-425.197Z"/></clipPath><clipPath id="bC" clipPathUnits="userSpaceOnUse"><path d="M-181.139 294.268h425.197v-481.89h-425.197Z"/></clipPath><clipPath id="bD" clipPathUnits="userSpaceOnUse"><path d="M-181.139 297.586h425.197v-481.89h-425.197Z"/></clipPath><clipPath id="bE" clipPathUnits="userSpaceOnUse"><path d="M0 481.89h425.197V0H0Z"/></clipPath><clipPath id="bF" clipPathUnits="userSpaceOnUse"><path d="M-203.743 293.14h425.197v-481.89h-425.197Z"/></clipPath><clipPath id="bG" clipPathUnits="userSpaceOnUse"><path d="M-203.575 295.627h425.197v-481.89h-425.197Z"/></clipPath><clipPath id="bH" clipPathUnits="userSpaceOnUse"><path d="M-206.893 295.627h425.197v-481.89h-425.197Z"/></clipPath><clipPath id="bI" clipPathUnits="userSpaceOnUse"><path d="M0 481.89h425.197V0H0Z"/></clipPath><clipPath id="bJ" clipPathUnits="userSpaceOnUse"><path d="M-211.3 294.206h425.197v-481.89H-211.3Z"/></clipPath><clipPath id="bK" clipPathUnits="userSpaceOnUse"><path d="M-208.813 294.038h425.197v-481.89h-425.197Z"/></clipPath><clipPath id="bL" clipPathUnits="userSpaceOnUse"><path d="M-208.813 297.356h425.197v-481.89h-425.197Z"/></clipPath><clipPath id="bM" clipPathUnits="userSpaceOnUse"><path d="M0 481.89h425.197V0H0Z"/></clipPath><clipPath id="bN" clipPathUnits="userSpaceOnUse"><path d="M0 481.89h425.197V0H0Z"/></clipPath><clipPath id="bO" clipPathUnits="userSpaceOnUse"><path d="M0 481.89h425.197V0H0Z"/></clipPath><clipPath id="bP" clipPathUnits="userSpaceOnUse"><path d="M0 481.89h425.197V0H0Z"/></clipPath><clipPath id="bQ" clipPathUnits="userSpaceOnUse"><path d="M0 481.89h425.197V0H0Z"/></clipPath><clipPath id="bR" clipPathUnits="userSpaceOnUse"><path d="M0 481.89h425.197V0H0Z"/></clipPath><clipPath id="bS" clipPathUnits="userSpaceOnUse"><path d="M0 481.89h425.197V0H0Z"/></clipPath><clipPath id="bT" clipPathUnits="userSpaceOnUse"><path d="M0 481.89h425.197V0H0Z"/></clipPath><clipPath id="bU" clipPathUnits="userSpaceOnUse"><path d="M0 481.89h425.197V0H0Z"/></clipPath><clipPath id="bV" clipPathUnits="userSpaceOnUse"><path d="M0 481.89h425.197V0H0Z"/></clipPath><clipPath id="bW" clipPathUnits="userSpaceOnUse"><path d="M0 481.89h425.197V0H0Z"/></clipPath><clipPath id="bX" clipPathUnits="userSpaceOnUse"><path d="M0 481.89h425.197V0H0Z"/></clipPath><clipPath id="bY" clipPathUnits="userSpaceOnUse"><path d="M0 481.89h425.197V0H0Z"/></clipPath><clipPath id="bZ" clipPathUnits="userSpaceOnUse"><path d="M0 481.89h425.197V0H0Z"/></clipPath><clipPath id="ca" clipPathUnits="userSpaceOnUse"><path d="M0 481.89h425.197V0H0Z"/></clipPath><clipPath id="cb" clipPathUnits="userSpaceOnUse"><path d="M0 481.89h425.197V0H0Z"/></clipPath><clipPath id="cc" clipPathUnits="userSpaceOnUse"><path d="M0 481.89h425.197V0H0Z"/></clipPath><clipPath id="cd" clipPathUnits="userSpaceOnUse"><path d="M0 481.89h425.197V0H0Z"/></clipPath><clipPath id="ce" clipPathUnits="userSpaceOnUse"><path d="M0 481.89h425.197V0H0Z"/></clipPath><clipPath id="cf" clipPathUnits="userSpaceOnUse"><path d="M0 481.89h425.197V0H0Z"/></clipPath><clipPath id="cg" clipPathUnits="userSpaceOnUse"><path d="M0 481.89h425.197V0H0Z"/></clipPath><clipPath id="ch" clipPathUnits="userSpaceOnUse"><path d="M0 481.89h425.197V0H0Z"/></clipPath><clipPath id="ci" clipPathUnits="userSpaceOnUse"><path d="M0 481.89h425.197V0H0Z"/></clipPath><clipPath id="cj" clipPathUnits="userSpaceOnUse"><path d="M0 481.89h425.197V0H0Z"/></clipPath><clipPath id="ck" clipPathUnits="userSpaceOnUse"><path d="M0 481.89h425.197V0H0Z"/></clipPath><clipPath id="cl" clipPathUnits="userSpaceOnUse"><path d="M0 481.89h425.197V0H0Z"/></clipPath><clipPath id="cm" clipPathUnits="userSpaceOnUse"><path d="M0 481.89h425.197V0H0Z"/></clipPath><clipPath id="a" clipPathUnits="userSpaceOnUse"><path d="M1 0v1H0V0z"/></clipPath><clipPath id="b" clipPathUnits="userSpaceOnUse"><path d="M1 0v1H0V0z"/></clipPath><clipPath id="c" clipPathUnits="userSpaceOnUse"><path d="M0 0h1v1H0Z"/></clipPath></defs><path d="M0 0a3.685 3.685 0 1 0-.01-7.37A3.685 3.685 0 0 0 0 0m-68.6 0a3.685 3.685 0 1 0 .01-7.37A3.685 3.685 0 0 0-68.6 0M6.92 4.54h-82.44c-.72 0-1.3-.58-1.3-1.3v-133.91h4.79c.72 0 1.3-.58 1.3-1.3v-6.26c0-.72.58-1.3 1.3-1.3h20.69c.72 0 1.3.58 1.3 1.3v7.56c.02 1.17.98 2.12 2.17 2.12.59 0 1.13-.24 1.53-.63.38-.38.62-.91.63-1.49v-7.56c0-.72.58-1.3 1.3-1.3H.82c.72 0 1.3.58 1.3 1.3v6.26c0 .72.58 1.3 1.3 1.3h4.8V3.24c0 .72-.58 1.3-1.3 1.3" clip-path="url(#d)" style="fill:#51514b;fill-opacity:1;fill-rule:nonzero;stroke:none" transform="matrix(0 1.33333 1.33333 0 186.04 102.427)"/><path d="M0 0h-78.059a2.35 2.35 0 0 0-2.352 2.352v86.826H0Z" clip-path="url(#e)" style="fill:#e5e5e5;fill-opacity:1;fill-rule:nonzero;stroke:none" transform="matrix(0 1.33333 1.33333 0 44.008 110.299)"/><path d="M0 0a3.685 3.685 0 1 0 .01 7.37A3.685 3.685 0 0 0 0 0m-6.92 11.91c-.72 0-1.3-.58-1.3-1.3V-4.53H8.22v16.44z" clip-path="url(#f)" style="fill:#8b7966;fill-opacity:1;fill-rule:nonzero;stroke:none" transform="matrix(0 1.33333 1.33333 0 176.213 10.96)"/><path d="M0 0a3.685 3.685 0 1 0-.01 7.37A3.685 3.685 0 0 0 0 0m6.92 11.91H-8.22V-4.53H8.22v15.14c0 .72-.58 1.3-1.3 1.3" clip-path="url(#g)" style="fill:#8b7966;fill-opacity:1;fill-rule:nonzero;stroke:none" transform="matrix(0 1.33333 1.33333 0 176.213 102.427)"/><path d="M0 0a1.335 1.335 0 1 0-2.67 0A1.335 1.335 0 0 0 0 0" clip-path="url(#h)" style="fill:#63615c;fill-opacity:1;fill-rule:nonzero;stroke:none" transform="matrix(0 1.33333 1.33333 0 49.055 9.91)"/><path d="M197.197 302.924h-7.37v7.37h7.37z" clip-path="url(#i)" style="fill:#8d9091;fill-opacity:1;fill-rule:nonzero;stroke:none" transform="matrix(0 1.33333 1.33333 0 -225.453 -226.773)"/><path d="M0 0a3.309 3.309 0 1 1 6.618 0A3.309 3.309 0 0 1 0 0" clip-path="url(#j)" style="fill:#8b7966;fill-opacity:1;fill-rule:nonzero;stroke:none" transform="matrix(0 1.33333 1.33333 0 183.36 26.83)"/><path d="M0 0a2.804 2.804 0 1 1 5.608 0A2.804 2.804 0 0 1 0 0" clip-path="url(#k)" style="fill:#8d9091;fill-opacity:1;fill-rule:nonzero;stroke:none" transform="matrix(0 1.33333 1.33333 0 183.36 27.503)"/><path d="M0 0a.758.758 0 1 1 1.515 0A.758.758 0 0 1 0 0" clip-path="url(#l)" style="fill:#8b7966;fill-opacity:1;fill-rule:nonzero;stroke:none" transform="matrix(0 1.33333 1.33333 0 183.36 30.231)"/><path d="M194.691 310.294h-2.359v.523h2.359z" clip-path="url(#m)" style="fill:#b6b9ba;fill-opacity:1;fill-rule:nonzero;stroke:none" transform="matrix(0 1.33333 1.33333 0 -225.453 -226.773)"/><path d="M194.691 302.401h-2.359v.523h2.359z" clip-path="url(#n)" style="fill:#b6b9ba;fill-opacity:1;fill-rule:nonzero;stroke:none" transform="matrix(0 1.33333 1.33333 0 -225.453 -226.773)"/><path d="M189.827 303.706h-.523v5.807h.523z" clip-path="url(#o)" style="fill:#b6b9ba;fill-opacity:1;fill-rule:nonzero;stroke:none" transform="matrix(0 1.33333 1.33333 0 -225.453 -226.773)"/><path d="M197.72 303.706h-.523v5.807h.523z" clip-path="url(#p)" style="fill:#b6b9ba;fill-opacity:1;fill-rule:nonzero;stroke:none" transform="matrix(0 1.33333 1.33333 0 -225.453 -226.773)"/><path d="M233.409 302.924h-7.37v7.37h7.37z" clip-path="url(#q)" style="fill:#8d9091;fill-opacity:1;fill-rule:nonzero;stroke:none" transform="matrix(0 1.33333 1.33333 0 -225.453 -226.773)"/><path d="M0 0a3.309 3.309 0 1 1 6.618 0A3.309 3.309 0 0 1 0 0" clip-path="url(#r)" style="fill:#8b7966;fill-opacity:1;fill-rule:nonzero;stroke:none" transform="matrix(0 1.33333 1.33333 0 183.36 75.113)"/><path d="M0 0a2.804 2.804 0 1 1 5.608 0A2.804 2.804 0 0 1 0 0" clip-path="url(#s)" style="fill:#8d9091;fill-opacity:1;fill-rule:nonzero;stroke:none" transform="matrix(0 1.33333 1.33333 0 183.36 75.786)"/><path d="M0 0a.758.758 0 1 1 1.515 0A.758.758 0 0 1 0 0" clip-path="url(#t)" style="fill:#8b7966;fill-opacity:1;fill-rule:nonzero;stroke:none" transform="matrix(0 1.33333 1.33333 0 183.36 78.515)"/><path d="M230.904 310.294h-2.359v.523h2.359z" clip-path="url(#u)" style="fill:#b6b9ba;fill-opacity:1;fill-rule:nonzero;stroke:none" transform="matrix(0 1.33333 1.33333 0 -225.453 -226.773)"/><path d="M230.904 302.401h-2.359v.523h2.359z" clip-path="url(#v)" style="fill:#b6b9ba;fill-opacity:1;fill-rule:nonzero;stroke:none" transform="matrix(0 1.33333 1.33333 0 -225.453 -226.773)"/><path d="M226.039 303.706h-.523v5.807h.523z" clip-path="url(#w)" style="fill:#b6b9ba;fill-opacity:1;fill-rule:nonzero;stroke:none" transform="matrix(0 1.33333 1.33333 0 -225.453 -226.773)"/><path d="M233.932 303.706h-.523v5.807h.523z" clip-path="url(#x)" style="fill:#b6b9ba;fill-opacity:1;fill-rule:nonzero;stroke:none" transform="matrix(0 1.33333 1.33333 0 -225.453 -226.773)"/><path d="M215.303 302.924h-7.37v7.37h7.37z" clip-path="url(#y)" style="fill:#8d9091;fill-opacity:1;fill-rule:nonzero;stroke:none" transform="matrix(0 1.33333 1.33333 0 -225.453 -226.773)"/><path d="M0 0a3.309 3.309 0 1 1 6.618 0A3.309 3.309 0 0 1 0 0" clip-path="url(#z)" style="fill:#8b7966;fill-opacity:1;fill-rule:nonzero;stroke:none" transform="matrix(0 1.33333 1.33333 0 183.36 50.972)"/><path d="M0 0a2.804 2.804 0 1 1 5.608 0A2.804 2.804 0 0 1 0 0" clip-path="url(#A)" style="fill:#8d9091;fill-opacity:1;fill-rule:nonzero;stroke:none" transform="matrix(0 1.33333 1.33333 0 183.36 51.645)"/><path d="M0 0a.758.758 0 1 1 1.515 0A.758.758 0 0 1 0 0" clip-path="url(#B)" style="fill:#8b7966;fill-opacity:1;fill-rule:nonzero;stroke:none" transform="matrix(0 1.33333 1.33333 0 183.36 54.373)"/><path d="M212.797 310.294h-2.359v.523h2.359z" clip-path="url(#C)" style="fill:#b6b9ba;fill-opacity:1;fill-rule:nonzero;stroke:none" transform="matrix(0 1.33333 1.33333 0 -225.453 -226.773)"/><path d="M212.797 302.401h-2.359v.523h2.359z" clip-path="url(#D)" style="fill:#b6b9ba;fill-opacity:1;fill-rule:nonzero;stroke:none" transform="matrix(0 1.33333 1.33333 0 -225.453 -226.773)"/><path d="M207.933 303.706h-.523v5.807h.523z" clip-path="url(#E)" style="fill:#b6b9ba;fill-opacity:1;fill-rule:nonzero;stroke:none" transform="matrix(0 1.33333 1.33333 0 -225.453 -226.773)"/><path d="M215.826 303.706h-.523v5.807h.523z" clip-path="url(#F)" style="fill:#b6b9ba;fill-opacity:1;fill-rule:nonzero;stroke:none" transform="matrix(0 1.33333 1.33333 0 -225.453 -226.773)"/><path d="M0 0h-2.326v1.619a1.163 1.163 0 1 0 2.326 0Z" clip-path="url(#G)" style="fill:#b6b9ba;fill-opacity:1;fill-rule:nonzero;stroke:none" transform="matrix(0 1.33333 1.33333 0 162.912 53.568)"/><path d="M0 0h-2.326v1.619a1.163 1.163 0 1 0 2.326 0Z" clip-path="url(#H)" style="fill:#b6b9ba;fill-opacity:1;fill-rule:nonzero;stroke:none" transform="matrix(0 1.33333 1.33333 0 162.912 58.91)"/><path d="M0 0h-2.326v1.619a1.163 1.163 0 0 0 2.326 0Z" clip-path="url(#I)" style="fill:#b6b9ba;fill-opacity:1;fill-rule:nonzero;stroke:none" transform="matrix(0 1.33333 1.33333 0 162.912 64.253)"/><path d="M0 0h-2.326v1.619a1.163 1.163 0 0 0 2.326 0Z" clip-path="url(#J)" style="fill:#b6b9ba;fill-opacity:1;fill-rule:nonzero;stroke:none" transform="matrix(0 1.33333 1.33333 0 162.912 69.596)"/><path d="M0 0h-2.326v1.619a1.163 1.163 0 0 0 2.326 0Z" clip-path="url(#K)" style="fill:#b6b9ba;fill-opacity:1;fill-rule:nonzero;stroke:none" transform="matrix(0 1.33333 1.33333 0 162.912 74.939)"/><path d="M0 0h-2.326v1.619a1.163 1.163 0 0 0 2.326 0Z" clip-path="url(#L)" style="fill:#b6b9ba;fill-opacity:1;fill-rule:nonzero;stroke:none" transform="matrix(0 1.33333 1.33333 0 162.912 80.281)"/><path d="M0 0h-2.326v1.619a1.163 1.163 0 1 0 2.326 0Z" clip-path="url(#M)" style="fill:#b6b9ba;fill-opacity:1;fill-rule:nonzero;stroke:none" transform="matrix(0 1.33333 1.33333 0 162.912 85.624)"/><path d="M0 0h-2.326v1.619a1.163 1.163 0 0 0 2.326 0Z" clip-path="url(#N)" style="fill:#b6b9ba;fill-opacity:1;fill-rule:nonzero;stroke:none" transform="matrix(0 1.33333 1.33333 0 162.912 9.49)"/><path d="M0 0h-2.326v1.619a1.163 1.163 0 1 0 2.326 0Z" clip-path="url(#O)" style="fill:#b6b9ba;fill-opacity:1;fill-rule:nonzero;stroke:none" transform="matrix(0 1.33333 1.33333 0 162.912 14.832)"/><path d="M0 0h-2.326v1.619a1.163 1.163 0 0 0 2.326 0Z" clip-path="url(#P)" style="fill:#b6b9ba;fill-opacity:1;fill-rule:nonzero;stroke:none" transform="matrix(0 1.33333 1.33333 0 162.912 20.175)"/><path d="M0 0h-2.326v1.619a1.163 1.163 0 0 0 2.326 0Z" clip-path="url(#Q)" style="fill:#b6b9ba;fill-opacity:1;fill-rule:nonzero;stroke:none" transform="matrix(0 1.33333 1.33333 0 162.912 25.517)"/><path d="M0 0h-2.326v1.619a1.163 1.163 0 0 0 2.326 0Z" clip-path="url(#R)" style="fill:#b6b9ba;fill-opacity:1;fill-rule:nonzero;stroke:none" transform="matrix(0 1.33333 1.33333 0 162.912 30.86)"/><path d="M0 0h-2.326v1.619a1.163 1.163 0 0 0 2.326 0Z" clip-path="url(#S)" style="fill:#b6b9ba;fill-opacity:1;fill-rule:nonzero;stroke:none" transform="matrix(0 1.33333 1.33333 0 162.912 36.203)"/><path d="M0 0h-2.326v1.619a1.163 1.163 0 1 0 2.326 0Z" clip-path="url(#T)" style="fill:#b6b9ba;fill-opacity:1;fill-rule:nonzero;stroke:none" transform="matrix(0 1.33333 1.33333 0 162.912 41.546)"/><path d="M0 0h-2.326v1.619a1.163 1.163 0 0 0 2.326 0Z" clip-path="url(#U)" style="fill:#b6b9ba;fill-opacity:1;fill-rule:nonzero;stroke:none" transform="matrix(0 1.33333 1.33333 0 162.912 90.967)"/><path d="M0 0h-2.326v1.619a1.163 1.163 0 0 0 2.326 0Z" clip-path="url(#V)" style="fill:#b6b9ba;fill-opacity:1;fill-rule:nonzero;stroke:none" transform="matrix(0 1.33333 1.33333 0 162.912 96.31)"/><path d="M0 0h-2.326v1.619a1.163 1.163 0 0 0 2.326 0Z" clip-path="url(#W)" style="fill:#b6b9ba;fill-opacity:1;fill-rule:nonzero;stroke:none" transform="matrix(0 1.33333 1.33333 0 162.912 101.652)"/><path d="M0 0h-2.326v1.619a1.163 1.163 0 0 0 2.326 0Z" clip-path="url(#X)" style="fill:#b6b9ba;fill-opacity:1;fill-rule:nonzero;stroke:none" transform="matrix(0 1.33333 1.33333 0 162.912 106.995)"/><path d="M0 0h-2.326v-1.619a1.163 1.163 0 1 1 2.326 0z" clip-path="url(#Y)" style="fill:#b6b9ba;fill-opacity:1;fill-rule:nonzero;stroke:none" transform="matrix(0 1.33333 1.33333 0 44.008 53.568)"/><path d="M0 0h-2.326v-1.619a1.163 1.163 0 1 1 2.326 0z" clip-path="url(#Z)" style="fill:#b6b9ba;fill-opacity:1;fill-rule:nonzero;stroke:none" transform="matrix(0 1.33333 1.33333 0 44.008 58.91)"/><path d="M0 0h-2.326v-1.619a1.163 1.163 0 0 1 2.326 0z" clip-path="url(#aa)" style="fill:#b6b9ba;fill-opacity:1;fill-rule:nonzero;stroke:none" transform="matrix(0 1.33333 1.33333 0 44.008 64.253)"/><path d="M0 0h-2.326v-1.619a1.163 1.163 0 0 1 2.326 0z" clip-path="url(#ab)" style="fill:#b6b9ba;fill-opacity:1;fill-rule:nonzero;stroke:none" transform="matrix(0 1.33333 1.33333 0 44.008 69.596)"/><path d="M0 0h-2.326v-1.619a1.163 1.163 0 0 1 2.326 0z" clip-path="url(#ac)" style="fill:#b6b9ba;fill-opacity:1;fill-rule:nonzero;stroke:none" transform="matrix(0 1.33333 1.33333 0 44.008 74.939)"/><path d="M0 0h-2.326v-1.619a1.163 1.163 0 0 1 2.326 0z" clip-path="url(#ad)" style="fill:#b6b9ba;fill-opacity:1;fill-rule:nonzero;stroke:none" transform="matrix(0 1.33333 1.33333 0 44.008 80.281)"/><path d="M0 0h-2.326v-1.619a1.163 1.163 0 1 1 2.326 0z" clip-path="url(#ae)" style="fill:#b6b9ba;fill-opacity:1;fill-rule:nonzero;stroke:none" transform="matrix(0 1.33333 1.33333 0 44.008 85.624)"/><path d="M0 0h-2.326v-1.619a1.163 1.163 0 0 1 2.326 0z" clip-path="url(#af)" style="fill:#b6b9ba;fill-opacity:1;fill-rule:nonzero;stroke:none" transform="matrix(0 1.33333 1.33333 0 44.008 9.49)"/><path d="M0 0h-2.326v-1.619a1.163 1.163 0 1 1 2.326 0z" clip-path="url(#ag)" style="fill:#b6b9ba;fill-opacity:1;fill-rule:nonzero;stroke:none" transform="matrix(0 1.33333 1.33333 0 44.008 14.832)"/><path d="M0 0h-2.326v-1.619a1.163 1.163 0 0 1 2.326 0z" clip-path="url(#ah)" style="fill:#b6b9ba;fill-opacity:1;fill-rule:nonzero;stroke:none" transform="matrix(0 1.33333 1.33333 0 44.008 20.175)"/><path d="M0 0h-2.326v-1.619a1.163 1.163 0 0 1 2.326 0z" clip-path="url(#ai)" style="fill:#b6b9ba;fill-opacity:1;fill-rule:nonzero;stroke:none" transform="matrix(0 1.33333 1.33333 0 44.008 25.517)"/><path d="M0 0h-2.326v-1.619a1.163 1.163 0 0 1 2.326 0z" clip-path="url(#aj)" style="fill:#b6b9ba;fill-opacity:1;fill-rule:nonzero;stroke:none" transform="matrix(0 1.33333 1.33333 0 44.008 30.86)"/><path d="M0 0h-2.326v-1.619a1.163 1.163 0 0 1 2.326 0z" clip-path="url(#ak)" style="fill:#b6b9ba;fill-opacity:1;fill-rule:nonzero;stroke:none" transform="matrix(0 1.33333 1.33333 0 44.008 36.203)"/><path d="M0 0h-2.326v-1.619a1.163 1.163 0 1 1 2.326 0z" clip-path="url(#al)" style="fill:#b6b9ba;fill-opacity:1;fill-rule:nonzero;stroke:none" transform="matrix(0 1.33333 1.33333 0 44.008 41.546)"/><path d="M0 0h-2.326v-1.619a1.163 1.163 0 0 1 2.326 0z" clip-path="url(#am)" style="fill:#b6b9ba;fill-opacity:1;fill-rule:nonzero;stroke:none" transform="matrix(0 1.33333 1.33333 0 44.008 90.967)"/><path d="M0 0h-2.326v-1.619a1.163 1.163 0 0 1 2.326 0z" clip-path="url(#an)" style="fill:#b6b9ba;fill-opacity:1;fill-rule:nonzero;stroke:none" transform="matrix(0 1.33333 1.33333 0 44.008 96.31)"/><path d="M0 0h-2.326v-1.619a1.163 1.163 0 0 1 2.326 0z" clip-path="url(#ao)" style="fill:#b6b9ba;fill-opacity:1;fill-rule:nonzero;stroke:none" transform="matrix(0 1.33333 1.33333 0 44.008 101.652)"/><path d="M0 0h-2.326v-1.619a1.163 1.163 0 0 1 2.326 0z" clip-path="url(#ap)" style="fill:#b6b9ba;fill-opacity:1;fill-rule:nonzero;stroke:none" transform="matrix(0 1.33333 1.33333 0 44.008 106.995)"/><path d="M0 0c-.323 0-.637-.062-.926-.175v2.852c.29-.113.603-.174.926-.174.331 0 .647.061.934.183V-.183A2.4 2.4 0 0 1 0 0" clip-path="url(#aq)" style="fill:#32352f;fill-opacity:1;fill-rule:nonzero;stroke:none" transform="matrix(0 1.33333 1.33333 0 171.324 31.307)"/><path d="M0 0c-.323 0-.637.062-.926.175v.471h1.86V.183A2.4 2.4 0 0 0 0 0" clip-path="url(#ar)" style="fill:#dcdcdc;fill-opacity:1;fill-rule:nonzero;stroke:none" transform="matrix(0 1.33333 1.33333 0 174.66 31.307)"/><path d="M0 0h-1.859v.463c.289.112.602.174.925.174q.502 0 .934-.184Z" clip-path="url(#as)" style="fill:#dcdcdc;fill-opacity:1;fill-rule:nonzero;stroke:none" transform="matrix(0 1.33333 1.33333 0 170.474 32.551)"/><path d="M0 0c-.323 0-.637-.062-.926-.175v2.852c.29-.113.603-.174.926-.174.331 0 .647.061.934.183V-.183A2.4 2.4 0 0 1 0 0" clip-path="url(#at)" style="fill:#32352f;fill-opacity:1;fill-rule:nonzero;stroke:none" transform="matrix(0 1.33333 1.33333 0 171.337 79.257)"/><path d="M0 0c-.323 0-.637.062-.926.175v.471h1.86V.183A2.4 2.4 0 0 0 0 0" clip-path="url(#au)" style="fill:#dcdcdc;fill-opacity:1;fill-rule:nonzero;stroke:none" transform="matrix(0 1.33333 1.33333 0 174.674 79.257)"/><path d="M0 0h-1.859v.463c.289.112.602.174.925.174q.502 0 .934-.184Z" clip-path="url(#av)" style="fill:#dcdcdc;fill-opacity:1;fill-rule:nonzero;stroke:none" transform="matrix(0 1.33333 1.33333 0 170.487 80.502)"/><path d="M0 0c-.323 0-.637-.062-.926-.175v2.852c.29-.113.603-.174.926-.174.331 0 .647.061.934.183V-.183A2.4 2.4 0 0 1 0 0" clip-path="url(#aw)" style="fill:#32352f;fill-opacity:1;fill-rule:nonzero;stroke:none" transform="matrix(0 1.33333 1.33333 0 29.268 65.926)"/><path d="M0 0c-.323 0-.637.062-.926.175v.471h1.86V.183A2.4 2.4 0 0 0 0 0" clip-path="url(#ax)" style="fill:#dcdcdc;fill-opacity:1;fill-rule:nonzero;stroke:none" transform="matrix(0 1.33333 1.33333 0 32.605 65.926)"/><path d="M0 0h-1.859v.463c.289.112.602.174.925.174q.502 0 .934-.184Z" clip-path="url(#ay)" style="fill:#dcdcdc;fill-opacity:1;fill-rule:nonzero;stroke:none" transform="matrix(0 1.33333 1.33333 0 28.419 67.17)"/><path d="M0 0c-.323 0-.637-.062-.926-.175v2.852c.29-.113.603-.174.926-.174.331 0 .647.061.934.183V-.183A2.4 2.4 0 0 1 0 0" clip-path="url(#az)" style="fill:#32352f;fill-opacity:1;fill-rule:nonzero;stroke:none" transform="matrix(0 1.33333 1.33333 0 29.268 61.682)"/><path d="M0 0c-.323 0-.637.062-.926.175v.471h1.86V.183A2.4 2.4 0 0 0 0 0" clip-path="url(#aA)" style="fill:#dcdcdc;fill-opacity:1;fill-rule:nonzero;stroke:none" transform="matrix(0 1.33333 1.33333 0 32.605 61.682)"/><path d="M0 0h-1.859v.463c.289.112.602.174.925.174q.502 0 .934-.184Z" clip-path="url(#aB)" style="fill:#dcdcdc;fill-opacity:1;fill-rule:nonzero;stroke:none" transform="matrix(0 1.33333 1.33333 0 28.419 62.927)"/><path d="M0 0c0 .323-.062.637-.175.926h2.852A2.6 2.6 0 0 1 2.503 0c0-.331.061-.647.183-.934H-.183A2.4 2.4 0 0 1 0 0" clip-path="url(#aC)" style="fill:#32352f;fill-opacity:1;fill-rule:nonzero;stroke:none" transform="matrix(0 1.33333 1.33333 0 24.798 58.769)"/><path d="M0 0c0 .323.062.637.175.926h.471v-1.86H.183A2.4 2.4 0 0 0 0 0" clip-path="url(#aD)" style="fill:#dcdcdc;fill-opacity:1;fill-rule:nonzero;stroke:none" transform="matrix(0 1.33333 1.33333 0 24.798 62.105)"/><path d="M0 0v1.859h.463A2.6 2.6 0 0 0 .637.934Q.637.432.453 0Z" clip-path="url(#aE)" style="fill:#dcdcdc;fill-opacity:1;fill-rule:nonzero;stroke:none" transform="matrix(0 1.33333 1.33333 0 23.553 57.92)"/><path d="M0 0c0 .323-.062.637-.175.926h2.852A2.6 2.6 0 0 1 2.503 0c0-.331.061-.647.183-.934H-.183A2.4 2.4 0 0 1 0 0" clip-path="url(#aF)" style="fill:#32352f;fill-opacity:1;fill-rule:nonzero;stroke:none" transform="matrix(0 1.33333 1.33333 0 24.798 65.497)"/><path d="M0 0c0 .323.062.637.175.926h.471v-1.86H.183A2.4 2.4 0 0 0 0 0" clip-path="url(#aG)" style="fill:#dcdcdc;fill-opacity:1;fill-rule:nonzero;stroke:none" transform="matrix(0 1.33333 1.33333 0 24.798 68.833)"/><path d="M0 0v1.859h.463A2.6 2.6 0 0 0 .637.934Q.637.432.453 0Z" clip-path="url(#aH)" style="fill:#dcdcdc;fill-opacity:1;fill-rule:nonzero;stroke:none" transform="matrix(0 1.33333 1.33333 0 23.553 64.647)"/><path d="M0 0c0 .323-.062.637-.175.926h2.852A2.6 2.6 0 0 1 2.503 0c0-.331.061-.647.183-.934H-.183A2.4 2.4 0 0 1 0 0" clip-path="url(#aI)" style="fill:#32352f;fill-opacity:1;fill-rule:nonzero;stroke:none" transform="matrix(0 1.33333 1.33333 0 17.398 44.887)"/><path d="M0 0c0 .323.062.637.175.926h.471v-1.86H.183A2.4 2.4 0 0 0 0 0" clip-path="url(#aJ)" style="fill:#dcdcdc;fill-opacity:1;fill-rule:nonzero;stroke:none" transform="matrix(0 1.33333 1.33333 0 17.398 48.223)"/><path d="M0 0v1.859h.463A2.6 2.6 0 0 0 .637.934Q.637.432.453 0Z" clip-path="url(#aK)" style="fill:#dcdcdc;fill-opacity:1;fill-rule:nonzero;stroke:none" transform="matrix(0 1.33333 1.33333 0 16.153 44.037)"/><path d="M0 0c0 .323-.062.637-.175.926h2.852A2.6 2.6 0 0 1 2.503 0c0-.331.061-.647.183-.934H-.183A2.4 2.4 0 0 1 0 0" clip-path="url(#aL)" style="fill:#32352f;fill-opacity:1;fill-rule:nonzero;stroke:none" transform="matrix(0 1.33333 1.33333 0 17.398 37.081)"/><path d="M0 0c0 .323.062.637.175.926h.471v-1.86H.183A2.4 2.4 0 0 0 0 0" clip-path="url(#aM)" style="fill:#dcdcdc;fill-opacity:1;fill-rule:nonzero;stroke:none" transform="matrix(0 1.33333 1.33333 0 17.398 40.418)"/><path d="M0 0v1.859h.463A2.6 2.6 0 0 0 .637.934Q.637.432.453 0Z" clip-path="url(#aN)" style="fill:#dcdcdc;fill-opacity:1;fill-rule:nonzero;stroke:none" transform="matrix(0 1.33333 1.33333 0 16.153 36.232)"/><path d="M0 0c0 .323-.062.637-.175.926h2.852A2.6 2.6 0 0 1 2.503 0c0-.331.061-.647.183-.934H-.183A2.4 2.4 0 0 1 0 0" clip-path="url(#aO)" style="fill:#32352f;fill-opacity:1;fill-rule:nonzero;stroke:none" transform="matrix(0 1.33333 1.33333 0 17.398 15.012)"/><path d="M0 0c0 .323.062.637.175.926h.471v-1.86H.183A2.4 2.4 0 0 0 0 0" clip-path="url(#aP)" style="fill:#dcdcdc;fill-opacity:1;fill-rule:nonzero;stroke:none" transform="matrix(0 1.33333 1.33333 0 17.398 18.348)"/><path d="M0 0v1.859h.463A2.6 2.6 0 0 0 .637.934Q.637.432.453 0Z" clip-path="url(#aQ)" style="fill:#dcdcdc;fill-opacity:1;fill-rule:nonzero;stroke:none" transform="matrix(0 1.33333 1.33333 0 16.153 14.162)"/><path d="M0 0c-.323 0-.637-.062-.926-.175v2.852c.29-.113.603-.174.926-.174.331 0 .647.061.934.183V-.183A2.4 2.4 0 0 1 0 0" clip-path="url(#aR)" style="fill:#32352f;fill-opacity:1;fill-rule:nonzero;stroke:none" transform="matrix(0 1.33333 1.33333 0 21.828 39.99)"/><path d="M0 0c-.323 0-.637.062-.926.175v.471h1.86V.183A2.4 2.4 0 0 0 0 0" clip-path="url(#aS)" style="fill:#dcdcdc;fill-opacity:1;fill-rule:nonzero;stroke:none" transform="matrix(0 1.33333 1.33333 0 25.165 39.99)"/><path d="M0 0h-1.859v.463c.289.112.602.174.925.174q.502 0 .934-.184Z" clip-path="url(#aT)" style="fill:#dcdcdc;fill-opacity:1;fill-rule:nonzero;stroke:none" transform="matrix(0 1.33333 1.33333 0 20.979 41.234)"/><path d="M0 0c0-.323.062-.637.175-.926h-2.852c.113.29.174.603.174.926 0 .331-.061.647-.183.934H.183A2.4 2.4 0 0 1 0 0" clip-path="url(#aU)" style="fill:#32352f;fill-opacity:1;fill-rule:nonzero;stroke:none" transform="matrix(0 1.33333 1.33333 0 171.204 57.75)"/><path d="M0 0c0-.323-.062-.637-.175-.926h-.471v1.86h.463A2.4 2.4 0 0 0 0 0" clip-path="url(#aV)" style="fill:#dcdcdc;fill-opacity:1;fill-rule:nonzero;stroke:none" transform="matrix(0 1.33333 1.33333 0 171.204 54.413)"/><path d="M0 0v-1.859h-.463a2.6 2.6 0 0 0-.174.925q0 .502.184.934z" clip-path="url(#aW)" style="fill:#dcdcdc;fill-opacity:1;fill-rule:nonzero;stroke:none" transform="matrix(0 1.33333 1.33333 0 172.448 58.6)"/><path d="M0 0c0-.323.062-.637.175-.926l-2.852.001c.113.289.174.602.174.925 0 .331-.061.647-.183.934H.183A2.4 2.4 0 0 1 0 0" clip-path="url(#aX)" style="fill:#8d9091;fill-opacity:1;fill-rule:nonzero;stroke:none" transform="matrix(0 1.33333 1.33333 0 174.808 54.96)"/><path d="M0 0c0-.323-.062-.637-.175-.926h-.471v1.86h.463A2.4 2.4 0 0 0 0 0" clip-path="url(#aY)" style="fill:#dcdcdc;fill-opacity:1;fill-rule:nonzero;stroke:none" transform="matrix(0 1.33333 1.33333 0 174.808 51.622)"/><path d="M0 0v-1.859h-.463a2.6 2.6 0 0 0-.174.925q0 .502.184.934z" clip-path="url(#aZ)" style="fill:#dcdcdc;fill-opacity:1;fill-rule:nonzero;stroke:none" transform="matrix(0 1.33333 1.33333 0 176.053 55.809)"/><path d="M0 0c-.323 0-.637-.062-.926-.175v2.852c.29-.113.603-.174.926-.174.331 0 .647.061.934.183V-.183A2.4 2.4 0 0 1 0 0" clip-path="url(#ba)" style="fill:#8d9091;fill-opacity:1;fill-rule:nonzero;stroke:none" transform="matrix(0 1.33333 1.33333 0 171.343 61.146)"/><path d="M0 0c-.323 0-.637.062-.926.175v.471h1.86V.183A2.4 2.4 0 0 0 0 0" clip-path="url(#bb)" style="fill:#dcdcdc;fill-opacity:1;fill-rule:nonzero;stroke:none" transform="matrix(0 1.33333 1.33333 0 174.68 61.146)"/><path d="M0 0h-1.859v.463c.289.112.602.174.925.174q.502 0 .934-.184Z" clip-path="url(#bc)" style="fill:#dcdcdc;fill-opacity:1;fill-rule:nonzero;stroke:none" transform="matrix(0 1.33333 1.33333 0 170.493 62.39)"/><path d="M0 0c0-.323.062-.637.175-.926l-2.852.001c.113.289.174.602.174.925 0 .331-.061.647-.183.934H.183A2.4 2.4 0 0 1 0 0" clip-path="url(#bd)" style="fill:#8d9091;fill-opacity:1;fill-rule:nonzero;stroke:none" transform="matrix(0 1.33333 1.33333 0 174.808 67.988)"/><path d="M0 0c0-.323-.062-.637-.175-.926h-.471v1.86h.463A2.4 2.4 0 0 0 0 0" clip-path="url(#be)" style="fill:#dcdcdc;fill-opacity:1;fill-rule:nonzero;stroke:none" transform="matrix(0 1.33333 1.33333 0 174.808 64.651)"/><path d="M0 0v-1.859h-.463a2.6 2.6 0 0 0-.174.925q0 .502.184.934z" clip-path="url(#bf)" style="fill:#dcdcdc;fill-opacity:1;fill-rule:nonzero;stroke:none" transform="matrix(0 1.33333 1.33333 0 176.053 68.837)"/><path d="M197.195 300.731h-1.859v-1.095h1.859z" clip-path="url(#bg)" style="fill:#dcdcdc;fill-opacity:1;fill-rule:nonzero;stroke:none" transform="matrix(0 1.33333 1.33333 0 -225.453 -226.773)"/><path d="M197.195 298.041h-1.859v-1.095h1.859z" clip-path="url(#bh)" style="fill:#dcdcdc;fill-opacity:1;fill-rule:nonzero;stroke:none" transform="matrix(0 1.33333 1.33333 0 -225.453 -226.773)"/><path d="M199.843 300.731h-1.859v-1.095h1.859z" clip-path="url(#bi)" style="fill:#dcdcdc;fill-opacity:1;fill-rule:nonzero;stroke:none" transform="matrix(0 1.33333 1.33333 0 -225.453 -226.773)"/><path d="M199.843 298.041h-1.859v-1.095h1.859z" clip-path="url(#bj)" style="fill:#dcdcdc;fill-opacity:1;fill-rule:nonzero;stroke:none" transform="matrix(0 1.33333 1.33333 0 -225.453 -226.773)"/><path d="M225.175 300.731h-1.859v-1.095h1.859z" clip-path="url(#bk)" style="fill:#dcdcdc;fill-opacity:1;fill-rule:nonzero;stroke:none" transform="matrix(0 1.33333 1.33333 0 -225.453 -226.773)"/><path d="M225.175 298.041h-1.859v-1.095h1.859z" clip-path="url(#bl)" style="fill:#dcdcdc;fill-opacity:1;fill-rule:nonzero;stroke:none" transform="matrix(0 1.33333 1.33333 0 -225.453 -226.773)"/><path d="M227.902 300.731h-1.859v-1.095h1.859z" clip-path="url(#bm)" style="fill:#dcdcdc;fill-opacity:1;fill-rule:nonzero;stroke:none" transform="matrix(0 1.33333 1.33333 0 -225.453 -226.773)"/><path d="M227.902 298.041h-1.859v-1.095h1.859z" clip-path="url(#bn)" style="fill:#dcdcdc;fill-opacity:1;fill-rule:nonzero;stroke:none" transform="matrix(0 1.33333 1.33333 0 -225.453 -226.773)"/><path d="M221.708 298.426h-1.095v-1.859h1.095z" clip-path="url(#bo)" style="fill:#dcdcdc;fill-opacity:1;fill-rule:nonzero;stroke:none" transform="matrix(0 1.33333 1.33333 0 -225.453 -226.773)"/><path d="M219.018 298.426h-1.095v-1.859h1.095z" clip-path="url(#bp)" style="fill:#dcdcdc;fill-opacity:1;fill-rule:nonzero;stroke:none" transform="matrix(0 1.33333 1.33333 0 -225.453 -226.773)"/><path d="M177.537 185.753h-1.095v-1.859h1.095z" clip-path="url(#bq)" style="fill:#dcdcdc;fill-opacity:1;fill-rule:nonzero;stroke:none" transform="matrix(0 1.33333 1.33333 0 -225.453 -226.773)"/><path d="M174.846 185.753h-1.095v-1.859h1.095z" clip-path="url(#br)" style="fill:#dcdcdc;fill-opacity:1;fill-rule:nonzero;stroke:none" transform="matrix(0 1.33333 1.33333 0 -225.453 -226.773)"/><path d="M177.537 182.635h-1.095v-1.859h1.095z" clip-path="url(#bs)" style="fill:#dcdcdc;fill-opacity:1;fill-rule:nonzero;stroke:none" transform="matrix(0 1.33333 1.33333 0 -225.453 -226.773)"/><path d="M174.846 182.635h-1.095v-1.859h1.095z" clip-path="url(#bt)" style="fill:#dcdcdc;fill-opacity:1;fill-rule:nonzero;stroke:none" transform="matrix(0 1.33333 1.33333 0 -225.453 -226.773)"/><path d="M183.322 189.62h-2.487v5.354h2.487z" clip-path="url(#bu)" style="fill:#32352f;fill-opacity:1;fill-rule:nonzero;stroke:none" transform="matrix(0 1.33333 1.33333 0 -225.453 -226.773)"/><path d="M0 0h-1.052a.29.29 0 0 0-.291.291v.932c0 .161.13.291.291.291H0Z" clip-path="url(#bv)" style="fill:#99999b;fill-opacity:1;fill-rule:nonzero;stroke:none" transform="matrix(0 1.33333 1.33333 0 29.954 14.34)"/><path d="M0 0h1.052a.29.29 0 0 0 .291-.291v-.932a.29.29 0 0 0-.291-.291H0Z" clip-path="url(#bw)" style="fill:#99999b;fill-opacity:1;fill-rule:nonzero;stroke:none" transform="matrix(0 1.33333 1.33333 0 29.73 17.656)"/><path d="M0 0h1.052a.29.29 0 0 0 .291-.291v-.932a.29.29 0 0 0-.291-.291H0Z" clip-path="url(#bx)" style="fill:#99999b;fill-opacity:1;fill-rule:nonzero;stroke:none" transform="matrix(0 1.33333 1.33333 0 34.154 17.656)"/><path d="M0 0h1.052a.29.29 0 0 0 .291-.291v-.932a.29.29 0 0 0-.291-.291H0Z" clip-path="url(#by)" style="fill:#99999b;fill-opacity:1;fill-rule:nonzero;stroke:none" transform="matrix(0 1.33333 1.33333 0 28.097 8.94)"/><path d="M0 0h-1.052a.29.29 0 0 0-.291.291v.932c0 .161.13.291.291.291H0Z" clip-path="url(#bz)" style="fill:#99999b;fill-opacity:1;fill-rule:nonzero;stroke:none" transform="matrix(0 1.33333 1.33333 0 28.322 5.625)"/><path d="M0 0h-1.052a.29.29 0 0 0-.291.291v.932c0 .161.13.291.291.291H0Z" clip-path="url(#bA)" style="fill:#99999b;fill-opacity:1;fill-rule:nonzero;stroke:none" transform="matrix(0 1.33333 1.33333 0 23.897 5.625)"/><path d="M0 0h1.052a.29.29 0 0 0 .291-.291v-.932a.29.29 0 0 0-.291-.291H0Z" clip-path="url(#bB)" style="fill:#99999b;fill-opacity:1;fill-rule:nonzero;stroke:none" transform="matrix(0 1.33333 1.33333 0 24.485 18.06)"/><path d="M0 0h-1.052a.29.29 0 0 0-.291.291v.932c0 .161.13.291.291.291H0Z" clip-path="url(#bC)" style="fill:#99999b;fill-opacity:1;fill-rule:nonzero;stroke:none" transform="matrix(0 1.33333 1.33333 0 24.71 14.745)"/><path d="M0 0h-1.052a.29.29 0 0 0-.291.291v.932c0 .161.13.291.291.291H0Z" clip-path="url(#bD)" style="fill:#99999b;fill-opacity:1;fill-rule:nonzero;stroke:none" transform="matrix(0 1.33333 1.33333 0 20.285 14.745)"/><path d="M201.808 188.75h5.354v-2.487h-5.354z" clip-path="url(#bE)" style="fill:#32352f;fill-opacity:1;fill-rule:nonzero;stroke:none" transform="matrix(0 1.33333 1.33333 0 -225.453 -226.773)"/><path d="M0 0v1.052c0 .161.13.291.291.291h.932a.29.29 0 0 0 .291-.291V0Z" clip-path="url(#bF)" style="fill:#99999b;fill-opacity:1;fill-rule:nonzero;stroke:none" transform="matrix(0 1.33333 1.33333 0 26.214 44.884)"/><path d="M0 0v-1.052a.29.29 0 0 0-.291-.291h-.932a.29.29 0 0 0-.291.291V0Z" clip-path="url(#bG)" style="fill:#99999b;fill-opacity:1;fill-rule:nonzero;stroke:none" transform="matrix(0 1.33333 1.33333 0 22.898 44.66)"/><path d="M0 0v-1.052a.29.29 0 0 0-.291-.291h-.932a.29.29 0 0 0-.291.291V0Z" clip-path="url(#bH)" style="fill:#99999b;fill-opacity:1;fill-rule:nonzero;stroke:none" transform="matrix(0 1.33333 1.33333 0 22.898 49.085)"/><path d="M208.813 189.62h2.487v-5.354h-2.487z" clip-path="url(#bI)" style="fill:#32352f;fill-opacity:1;fill-rule:nonzero;stroke:none" transform="matrix(0 1.33333 1.33333 0 -225.453 -226.773)"/><path d="M0 0h1.052a.29.29 0 0 0 .291-.291v-.932a.29.29 0 0 0-.291-.291H0Z" clip-path="url(#bJ)" style="fill:#99999b;fill-opacity:1;fill-rule:nonzero;stroke:none" transform="matrix(0 1.33333 1.33333 0 24.792 54.96)"/><path d="M0 0h-1.052a.29.29 0 0 0-.291.291v.932c0 .161.13.291.291.291H0Z" clip-path="url(#bK)" style="fill:#99999b;fill-opacity:1;fill-rule:nonzero;stroke:none" transform="matrix(0 1.33333 1.33333 0 25.017 51.644)"/><path d="M0 0h-1.052a.29.29 0 0 0-.291.291v.932c0 .161.13.291.291.291H0Z" clip-path="url(#bL)" style="fill:#99999b;fill-opacity:1;fill-rule:nonzero;stroke:none" transform="matrix(0 1.33333 1.33333 0 20.592 51.644)"/><path d="M207.206 169.776h-1.681v7.147h1.681z" clip-path="url(#bM)" style="fill:#8b7966;fill-opacity:1;fill-rule:nonzero;stroke:none" transform="matrix(0 1.33333 1.33333 0 -225.453 -226.773)"/><path d="M209.472 169.776h-1.681v7.147h1.681z" clip-path="url(#bN)" style="fill:#8b7966;fill-opacity:1;fill-rule:nonzero;stroke:none" transform="matrix(0 1.33333 1.33333 0 -225.453 -226.773)"/><path d="M211.738 169.776h-1.681v7.147h1.681z" clip-path="url(#bO)" style="fill:#8b7966;fill-opacity:1;fill-rule:nonzero;stroke:none" transform="matrix(0 1.33333 1.33333 0 -225.453 -226.773)"/><path d="M214.003 169.776h-1.681v7.147h1.681z" clip-path="url(#bP)" style="fill:#8b7966;fill-opacity:1;fill-rule:nonzero;stroke:none" transform="matrix(0 1.33333 1.33333 0 -225.453 -226.773)"/><path d="M216.269 169.776h-1.681v7.147h1.681z" clip-path="url(#bQ)" style="fill:#8b7966;fill-opacity:1;fill-rule:nonzero;stroke:none" transform="matrix(0 1.33333 1.33333 0 -225.453 -226.773)"/><path d="M218.535 169.776h-1.681v7.147h1.681z" clip-path="url(#bR)" style="fill:#8b7966;fill-opacity:1;fill-rule:nonzero;stroke:none" transform="matrix(0 1.33333 1.33333 0 -225.453 -226.773)"/><path d="M220.801 169.776h-1.681v7.147h1.681z" clip-path="url(#bS)" style="fill:#8b7966;fill-opacity:1;fill-rule:nonzero;stroke:none" transform="matrix(0 1.33333 1.33333 0 -225.453 -226.773)"/><path d="M223.067 169.776h-1.681v7.147h1.681z" clip-path="url(#bT)" style="fill:#8b7966;fill-opacity:1;fill-rule:nonzero;stroke:none" transform="matrix(0 1.33333 1.33333 0 -225.453 -226.773)"/><path d="M225.333 169.776h-1.681v7.147h1.681z" clip-path="url(#bU)" style="fill:#8b7966;fill-opacity:1;fill-rule:nonzero;stroke:none" transform="matrix(0 1.33333 1.33333 0 -225.453 -226.773)"/><path d="M227.599 169.776h-1.681v7.147h1.681z" clip-path="url(#bV)" style="fill:#8b7966;fill-opacity:1;fill-rule:nonzero;stroke:none" transform="matrix(0 1.33333 1.33333 0 -225.453 -226.773)"/><path d="M229.865 169.776h-1.681v7.147h1.681z" clip-path="url(#bW)" style="fill:#8b7966;fill-opacity:1;fill-rule:nonzero;stroke:none" transform="matrix(0 1.33333 1.33333 0 -225.453 -226.773)"/><path d="M232.131 169.776h-1.681v7.147h1.681z" clip-path="url(#bX)" style="fill:#8b7966;fill-opacity:1;fill-rule:nonzero;stroke:none" transform="matrix(0 1.33333 1.33333 0 -225.453 -226.773)"/><path d="M234.397 169.776h-1.681v7.147h1.681z" clip-path="url(#bY)" style="fill:#8b7966;fill-opacity:1;fill-rule:nonzero;stroke:none" transform="matrix(0 1.33333 1.33333 0 -225.453 -226.773)"/><path d="M236.663 169.776h-1.681v7.147h1.681z" clip-path="url(#bZ)" style="fill:#8b7966;fill-opacity:1;fill-rule:nonzero;stroke:none" transform="matrix(0 1.33333 1.33333 0 -225.453 -226.773)"/><path d="M238.929 169.776h-1.681v7.147h1.681z" clip-path="url(#ca)" style="fill:#8b7966;fill-opacity:1;fill-rule:nonzero;stroke:none" transform="matrix(0 1.33333 1.33333 0 -225.453 -226.773)"/><path d="M241.195 169.776h-1.681v7.147h1.681z" clip-path="url(#cb)" style="fill:#8b7966;fill-opacity:1;fill-rule:nonzero;stroke:none" transform="matrix(0 1.33333 1.33333 0 -225.453 -226.773)"/><path d="M243.461 169.776h-1.681v7.147h1.681z" clip-path="url(#cc)" style="fill:#8b7966;fill-opacity:1;fill-rule:nonzero;stroke:none" transform="matrix(0 1.33333 1.33333 0 -225.453 -226.773)"/><path d="M245.727 169.776h-1.681v7.147h1.681z" clip-path="url(#cd)" style="fill:#8b7966;fill-opacity:1;fill-rule:nonzero;stroke:none" transform="matrix(0 1.33333 1.33333 0 -225.453 -226.773)"/><path d="M180.116 169.776h-1.681v7.147h1.681z" clip-path="url(#ce)" style="fill:#8b7966;fill-opacity:1;fill-rule:nonzero;stroke:none" transform="matrix(0 1.33333 1.33333 0 -225.453 -226.773)"/><path d="M182.382 169.776h-1.681v7.147h1.681z" clip-path="url(#cf)" style="fill:#8b7966;fill-opacity:1;fill-rule:nonzero;stroke:none" transform="matrix(0 1.33333 1.33333 0 -225.453 -226.773)"/><path d="M184.648 169.776h-1.681v7.147h1.681z" clip-path="url(#cg)" style="fill:#8b7966;fill-opacity:1;fill-rule:nonzero;stroke:none" transform="matrix(0 1.33333 1.33333 0 -225.453 -226.773)"/><path d="M186.914 169.776h-1.681v7.147h1.681z" clip-path="url(#ch)" style="fill:#8b7966;fill-opacity:1;fill-rule:nonzero;stroke:none" transform="matrix(0 1.33333 1.33333 0 -225.453 -226.773)"/><path d="M189.18 169.776h-1.681v7.147h1.681z" clip-path="url(#ci)" style="fill:#8b7966;fill-opacity:1;fill-rule:nonzero;stroke:none" transform="matrix(0 1.33333 1.33333 0 -225.453 -226.773)"/><path d="M191.446 169.776h-1.681v7.147h1.681z" clip-path="url(#cj)" style="fill:#8b7966;fill-opacity:1;fill-rule:nonzero;stroke:none" transform="matrix(0 1.33333 1.33333 0 -225.453 -226.773)"/><path d="M193.712 169.776h-1.681v7.147h1.681z" clip-path="url(#ck)" style="fill:#8b7966;fill-opacity:1;fill-rule:nonzero;stroke:none" transform="matrix(0 1.33333 1.33333 0 -225.453 -226.773)"/><path d="M195.978 169.776h-1.681v7.147h1.681z" clip-path="url(#cl)" style="fill:#8b7966;fill-opacity:1;fill-rule:nonzero;stroke:none" transform="matrix(0 1.33333 1.33333 0 -225.453 -226.773)"/><path d="M194.297 182.879h-4.532v2.713h4.532z" clip-path="url(#cm)" style="fill:#32352f;fill-opacity:1;fill-rule:nonzero;stroke:none" transform="matrix(0 1.33333 1.33333 0 -225.453 -226.773)"/></svg>