<svg xmlns="http://www.w3.org/2000/svg" viewBox="0 0 100.379 75.685"><defs><style>.cls-2{fill:#fff}.cls-3{fill:#8b7866}.cls-4{fill:#8c9091}.cls-7{fill:#2b322d}.cls-8{fill:#dadbdc}.cls-9{fill:#a19282}.cls-10{fill:#2f3632}.cls-11{fill:#d8d9da}.cls-12{fill:#b8babb}.cls-13{fill:#e6e7e7}.cls-14{fill:#969a9b}.cls-15{fill:#c1b6ac}</style></defs><path id="Background" d="M96.956 117.892v46.092l-3.564 3.664v2.305a1.42 1.42 0 0 1-1.418 1.418H1.418A1.417 1.417 0 0 1 0 169.953V97.104a1.42 1.42 0 0 1 1.418-1.418h89.918l2.056 2.056v16.486Zm-3.41.66a2.326 2.326 0 1 0 2.326 2.326 2.326 2.326 0 0 0-2.327-2.326m0 29.17a2.326 2.326 0 1 0 2.326 2.326 2.326 2.326 0 0 0-2.327-2.327M19.791 165.43a2.326 2.326 0 1 0 2.326 2.327 2.326 2.326 0 0 0-2.326-2.327m-.557-68.438a2.326 2.326 0 1 0 2.327 2.326 2.326 2.326 0 0 0-2.327-2.326" style="fill:#3e4440" transform="translate(3.423 -95.686)"/><g id="Components"><g id="INSERT"><g id="CIRCLE"><path d="M89.32 0a1.147 1.147 0 0 0 2.294 0" class="cls-2"/><path d="M91.277 0a.811.811 0 0 1-1.622 0m-.672 0a1.484 1.484 0 0 0 2.967 0" class="cls-3"/></g></g><g id="INSERT-2" data-name="INSERT"><g id="CIRCLE-2" data-name="CIRCLE"><path d="M85.738 0a1.147 1.147 0 0 0 2.294 0" class="cls-2"/><path d="M87.695 0a.811.811 0 0 1-1.621 0M85.4 0a1.484 1.484 0 0 0 2.967 0" class="cls-3"/></g></g><g id="INSERT-3" data-name="INSERT"><g id="CIRCLE-3" data-name="CIRCLE"><path d="M82.156 0a1.147 1.147 0 0 0 2.294 0" class="cls-2"/><path d="M84.114 0a.811.811 0 0 1-1.622 0m-.673 0a1.484 1.484 0 0 0 2.967 0" class="cls-3"/></g></g><g id="INSERT-4" data-name="INSERT"><g id="CIRCLE-4" data-name="CIRCLE"><path d="M78.574 0a1.147 1.147 0 0 0 2.294 0" class="cls-2"/><path d="M80.532 0a.811.811 0 0 1-1.622 0m-.673 0a1.484 1.484 0 0 0 2.967 0" class="cls-3"/></g></g><g id="INSERT-5" data-name="INSERT"><g id="CIRCLE-5" data-name="CIRCLE"><path d="M74.992 0a1.147 1.147 0 0 0 2.294 0" class="cls-2"/><path d="M76.95 0a.811.811 0 0 1-1.622 0m-.673 0a1.484 1.484 0 0 0 2.967 0" class="cls-3"/></g></g><g id="INSERT-6" data-name="INSERT"><g id="CIRCLE-6" data-name="CIRCLE"><path d="M71.41 0a1.147 1.147 0 0 0 2.294 0" class="cls-2"/><path d="M73.368 0a.811.811 0 0 1-1.622 0m-.673 0a1.484 1.484 0 0 0 2.967 0" class="cls-3"/></g></g><g id="INSERT-7" data-name="INSERT"><g id="CIRCLE-7" data-name="CIRCLE"><path d="M67.828 0a1.147 1.147 0 0 0 2.294 0" class="cls-2"/><path d="M69.786 0a.811.811 0 0 1-1.622 0m-.673 0a1.484 1.484 0 0 0 2.967 0" class="cls-3"/></g></g><g id="INSERT-8" data-name="INSERT"><g id="CIRCLE-8" data-name="CIRCLE"><path d="M60.602 0a1.147 1.147 0 0 0 2.294 0" class="cls-2"/><path d="M62.56 0a.811.811 0 0 1-1.622 0m-.673 0a1.484 1.484 0 0 0 2.967 0" class="cls-3"/></g></g><g id="INSERT-9" data-name="INSERT"><g id="CIRCLE-9" data-name="CIRCLE"><path d="M57.02 0a1.147 1.147 0 0 0 2.294 0" class="cls-2"/><path d="M58.978 0a.811.811 0 0 1-1.622 0m-.673 0a1.484 1.484 0 0 0 2.967 0" class="cls-3"/></g></g><g id="INSERT-10" data-name="INSERT"><g id="CIRCLE-10" data-name="CIRCLE"><path d="M53.438 0a1.147 1.147 0 0 0 2.294 0" class="cls-2"/><path d="M55.396 0a.811.811 0 0 1-1.622 0M53.1 0a1.484 1.484 0 0 0 2.967 0" class="cls-3"/></g></g><g id="INSERT-11" data-name="INSERT"><g id="CIRCLE-11" data-name="CIRCLE"><path d="M49.856 0a1.147 1.147 0 0 0 2.294 0" class="cls-2"/><path d="M51.814 0a.811.811 0 0 1-1.622 0m-.673 0a1.484 1.484 0 0 0 2.967 0" class="cls-3"/></g></g><g id="INSERT-12" data-name="INSERT"><g id="CIRCLE-12" data-name="CIRCLE"><path d="M46.274 0a1.147 1.147 0 0 0 2.294 0" class="cls-2"/><path d="M48.232 0a.811.811 0 0 1-1.622 0m-.673 0a1.484 1.484 0 0 0 2.967 0" class="cls-3"/></g></g><g id="INSERT-13" data-name="INSERT"><g id="CIRCLE-13" data-name="CIRCLE"><path d="M42.692 0a1.147 1.147 0 0 0 2.294 0" class="cls-2"/><path d="M44.65 0a.811.811 0 0 1-1.622 0m-.673 0a1.484 1.484 0 0 0 2.967 0" class="cls-3"/></g></g><g id="INSERT-14" data-name="INSERT"><g id="CIRCLE-14" data-name="CIRCLE"><path d="M39.11 0a1.147 1.147 0 0 0 2.294 0" class="cls-2"/><path d="M41.068 0a.811.811 0 0 1-1.622 0m-.672 0a1.484 1.484 0 0 0 2.967 0" class="cls-3"/></g></g><g id="INSERT-15" data-name="INSERT"><g id="CIRCLE-15" data-name="CIRCLE"><path d="M35.528 0a1.147 1.147 0 0 0 2.294 0" class="cls-2"/><path d="M37.486 0a.811.811 0 0 1-1.622 0m-.672 0a1.484 1.484 0 0 0 2.967 0" class="cls-3"/></g></g><g id="INSERT-16" data-name="INSERT"><g id="CIRCLE-16" data-name="CIRCLE"><path d="M31.946 0a1.147 1.147 0 0 0 2.294 0" class="cls-2"/><path d="M33.904 0a.811.811 0 0 1-1.622 0m-.672 0a1.484 1.484 0 0 0 2.967 0" class="cls-3"/></g></g><g id="INSERT-17" data-name="INSERT"><g id="CIRCLE-17" data-name="CIRCLE"><path d="M28.364 0a1.147 1.147 0 0 0 2.295 0" class="cls-2"/><path d="M30.322 0A.811.811 0 0 1 28.7 0m-.672 0a1.484 1.484 0 0 0 2.967 0" class="cls-3"/></g></g><g id="INSERT-18" data-name="INSERT"><g id="CIRCLE-18" data-name="CIRCLE"><path d="M94.448 75.685a1.147 1.147 0 0 0-2.294 0" class="cls-2"/><path d="M92.49 75.685a.811.811 0 0 1 1.622 0m.672 0a1.484 1.484 0 0 0-2.967 0" class="cls-3"/></g></g><g id="INSERT-19" data-name="INSERT"><g id="CIRCLE-19" data-name="CIRCLE"><path d="M90.866 75.685a1.147 1.147 0 0 0-2.294 0" class="cls-2"/><path d="M88.908 75.685a.811.811 0 0 1 1.622 0m.673 0a1.484 1.484 0 0 0-2.967 0" class="cls-3"/></g></g><g id="INSERT-20" data-name="INSERT"><g id="CIRCLE-20" data-name="CIRCLE"><path d="M87.284 75.685a1.147 1.147 0 0 0-2.294 0" class="cls-2"/><path d="M85.326 75.685a.811.811 0 0 1 1.622 0m.673 0a1.484 1.484 0 0 0-2.967 0" class="cls-3"/></g></g><g id="INSERT-21" data-name="INSERT"><g id="CIRCLE-21" data-name="CIRCLE"><path d="M83.703 75.685a1.147 1.147 0 0 0-2.295 0" class="cls-2"/><path d="M81.745 75.685a.811.811 0 0 1 1.622 0m.672 0a1.484 1.484 0 0 0-2.967 0" class="cls-3"/></g></g><g id="INSERT-22" data-name="INSERT"><g id="CIRCLE-22" data-name="CIRCLE"><path d="M80.12 75.685a1.147 1.147 0 0 0-2.293 0" class="cls-2"/><path d="M78.163 75.685a.811.811 0 0 1 1.622 0m.672 0a1.484 1.484 0 0 0-2.967 0" class="cls-3"/></g></g><g id="INSERT-23" data-name="INSERT"><g id="CIRCLE-23" data-name="CIRCLE"><path d="M76.54 75.685a1.147 1.147 0 0 0-2.295 0" class="cls-2"/><path d="M74.581 75.685a.811.811 0 0 1 1.622 0m.673 0a1.484 1.484 0 0 0-2.967 0" class="cls-3"/></g></g><g id="INSERT-24" data-name="INSERT"><g id="CIRCLE-24" data-name="CIRCLE"><path d="M69.222 75.685a1.147 1.147 0 0 0-2.294 0" class="cls-2"/><path d="M67.264 75.685a.811.811 0 0 1 1.622 0m.672 0a1.484 1.484 0 0 0-2.967 0" class="cls-3"/></g></g><g id="INSERT-25" data-name="INSERT"><g id="CIRCLE-25" data-name="CIRCLE"><path d="M65.64 75.685a1.147 1.147 0 0 0-2.294 0" class="cls-2"/><path d="M63.682 75.685a.811.811 0 0 1 1.622 0m.673 0a1.484 1.484 0 0 0-2.967 0" class="cls-3"/></g></g><g id="INSERT-26" data-name="INSERT"><g id="CIRCLE-26" data-name="CIRCLE"><path d="M62.058 75.685a1.147 1.147 0 0 0-2.294 0" class="cls-2"/><path d="M60.1 75.685a.811.811 0 0 1 1.622 0m.673 0a1.484 1.484 0 0 0-2.967 0" class="cls-3"/></g></g><g id="INSERT-27" data-name="INSERT"><g id="CIRCLE-27" data-name="CIRCLE"><path d="M58.477 75.685a1.147 1.147 0 0 0-2.295 0" class="cls-2"/><path d="M56.519 75.685a.811.811 0 0 1 1.622 0m.672 0a1.484 1.484 0 0 0-2.967 0" class="cls-3"/></g></g><g id="INSERT-28" data-name="INSERT"><g id="CIRCLE-28" data-name="CIRCLE"><path d="M54.895 75.685a1.147 1.147 0 0 0-2.294 0" class="cls-2"/><path d="M52.937 75.685a.811.811 0 0 1 1.622 0m.672 0a1.484 1.484 0 0 0-2.967 0" class="cls-3"/></g></g><g id="INSERT-29" data-name="INSERT"><g id="CIRCLE-29" data-name="CIRCLE"><path d="M51.313 75.685a1.147 1.147 0 0 0-2.294 0" class="cls-2"/><path d="M49.355 75.685a.811.811 0 0 1 1.622 0m.673 0a1.484 1.484 0 0 0-2.967 0" class="cls-3"/></g></g><g id="INSERT-30" data-name="INSERT"><g id="CIRCLE-30" data-name="CIRCLE"><path d="M47.731 75.685a1.147 1.147 0 0 0-2.294 0" class="cls-2"/><path d="M45.773 75.685a.811.811 0 0 1 1.622 0m.673 0a1.484 1.484 0 0 0-2.967 0" class="cls-3"/></g></g><g id="INSERT-31" data-name="INSERT"><g id="CIRCLE-31" data-name="CIRCLE"><path d="M44.15 75.685a1.147 1.147 0 0 0-2.295 0" class="cls-2"/><path d="M42.192 75.685a.811.811 0 0 1 1.622 0m.672 0a1.484 1.484 0 0 0-2.967 0" class="cls-3"/></g></g><g id="INSERT-32" data-name="INSERT"><g id="CIRCLE-32" data-name="CIRCLE"><path d="M44.3 58.96a1.147 1.147 0 1 0-1.147 1.148A1.15 1.15 0 0 0 44.3 58.96" class="cls-2"/><path d="M42.342 58.96a.811.811 0 1 1 .811.812.81.81 0 0 1-.81-.811m-.672 0a1.484 1.484 0 1 0 1.483-1.482 1.485 1.485 0 0 0-1.483 1.483" class="cls-3"/></g></g><g id="INSERT-33" data-name="INSERT"><g id="CIRCLE-33" data-name="CIRCLE"><path d="M47.882 58.96a1.147 1.147 0 1 0-1.148 1.148 1.15 1.15 0 0 0 1.148-1.147" class="cls-2"/><path d="M45.924 58.96a.811.811 0 1 1 .81.812.81.81 0 0 1-.81-.811m-.673 0a1.484 1.484 0 1 0 1.484-1.482 1.485 1.485 0 0 0-1.484 1.483" class="cls-3"/></g></g><g id="INSERT-34" data-name="INSERT"><g id="CIRCLE-34" data-name="CIRCLE"><path d="M51.464 58.96a1.147 1.147 0 1 0-1.148 1.148 1.15 1.15 0 0 0 1.148-1.147" class="cls-2"/><path d="M49.506 58.96a.811.811 0 1 1 .81.812.81.81 0 0 1-.81-.811m-.673 0a1.484 1.484 0 1 0 1.484-1.482 1.485 1.485 0 0 0-1.484 1.483" class="cls-3"/></g></g><g id="INSERT-35" data-name="INSERT"><g id="CIRCLE-35" data-name="CIRCLE"><path d="M55.045 58.96a1.147 1.147 0 1 0-1.147 1.148 1.15 1.15 0 0 0 1.147-1.147" class="cls-2"/><path d="M53.088 58.96a.811.811 0 1 1 .81.812.81.81 0 0 1-.81-.811m-.673 0a1.484 1.484 0 1 0 1.483-1.482 1.485 1.485 0 0 0-1.483 1.483" class="cls-3"/></g></g><g id="INSERT-36" data-name="INSERT"><g id="CIRCLE-36" data-name="CIRCLE"><path d="M58.627 58.96a1.147 1.147 0 1 0-1.147 1.148 1.15 1.15 0 0 0 1.147-1.147" class="cls-2"/><path d="M56.67 58.96a.811.811 0 1 1 .81.812.81.81 0 0 1-.81-.811m-.673 0a1.484 1.484 0 1 0 1.483-1.482 1.485 1.485 0 0 0-1.483 1.483" class="cls-3"/></g></g><g id="INSERT-37" data-name="INSERT"><g id="CIRCLE-37" data-name="CIRCLE"><path d="M62.209 58.96a1.147 1.147 0 1 0-1.147 1.148 1.15 1.15 0 0 0 1.147-1.147" class="cls-2"/><path d="M60.251 58.96a.811.811 0 1 1 .81.812.81.81 0 0 1-.81-.811m-.673 0a1.484 1.484 0 1 0 1.484-1.482 1.485 1.485 0 0 0-1.484 1.483" class="cls-3"/></g></g><g id="INSERT-38" data-name="INSERT"><g id="CIRCLE-38" data-name="CIRCLE"><path d="M65.79 58.96a1.147 1.147 0 1 0-1.147 1.148 1.15 1.15 0 0 0 1.148-1.147" class="cls-2"/><path d="M63.833 58.96a.811.811 0 1 1 .81.812.81.81 0 0 1-.81-.811m-.673 0a1.484 1.484 0 1 0 1.484-1.482 1.485 1.485 0 0 0-1.484 1.483" class="cls-3"/></g></g><g id="INSERT-39" data-name="INSERT"><g id="CIRCLE-39" data-name="CIRCLE"><path d="M69.372 58.96a1.147 1.147 0 1 0-1.147 1.148 1.15 1.15 0 0 0 1.147-1.147" class="cls-2"/><path d="M67.415 58.96a.811.811 0 1 1 .81.812.81.81 0 0 1-.81-.811m-.673 0a1.484 1.484 0 1 0 1.483-1.482 1.485 1.485 0 0 0-1.483 1.483" class="cls-3"/></g></g><g id="INSERT-40" data-name="INSERT"><g id="CIRCLE-40" data-name="CIRCLE"><path d="M76.69 58.96a1.147 1.147 0 1 0-1.148 1.148 1.15 1.15 0 0 0 1.147-1.147" class="cls-2"/><path d="M74.732 58.96a.811.811 0 1 1 .81.812.81.81 0 0 1-.81-.811m-.673 0a1.484 1.484 0 1 0 1.483-1.482 1.485 1.485 0 0 0-1.483 1.483" class="cls-3"/></g></g><g id="INSERT-41" data-name="INSERT"><g id="CIRCLE-41" data-name="CIRCLE"><path d="M80.271 58.96a1.147 1.147 0 1 0-1.147 1.148 1.15 1.15 0 0 0 1.147-1.147" class="cls-2"/><path d="M78.313 58.96a.811.811 0 1 1 .811.812.81.81 0 0 1-.81-.811m-.672 0a1.484 1.484 0 1 0 1.483-1.482 1.485 1.485 0 0 0-1.483 1.483" class="cls-3"/></g></g><g id="INSERT-42" data-name="INSERT"><g id="CIRCLE-42" data-name="CIRCLE"><path d="M83.853 58.96a1.147 1.147 0 1 0-1.147 1.148 1.15 1.15 0 0 0 1.147-1.147" class="cls-2"/><path d="M81.895 58.96a.811.811 0 1 1 .81.812.81.81 0 0 1-.81-.811m-.672 0a1.484 1.484 0 1 0 1.483-1.482 1.485 1.485 0 0 0-1.483 1.483" class="cls-3"/></g></g><g id="INSERT-43" data-name="INSERT"><g id="CIRCLE-43" data-name="CIRCLE"><path d="M87.435 58.96a1.147 1.147 0 1 0-1.148 1.148 1.15 1.15 0 0 0 1.148-1.147" class="cls-2"/><path d="M85.477 58.96a.811.811 0 1 1 .81.812.81.81 0 0 1-.81-.811m-.673 0a1.484 1.484 0 1 0 1.484-1.482 1.485 1.485 0 0 0-1.484 1.483" class="cls-3"/></g></g><g id="INSERT-44" data-name="INSERT"><g id="CIRCLE-44" data-name="CIRCLE"><path d="M91.016 58.96a1.147 1.147 0 1 0-1.147 1.148 1.15 1.15 0 0 0 1.147-1.147" class="cls-2"/><path d="M89.059 58.96a.811.811 0 1 1 .81.812.81.81 0 0 1-.81-.811m-.673 0a1.484 1.484 0 1 0 1.483-1.482 1.485 1.485 0 0 0-1.483 1.483" class="cls-3"/></g></g><g id="INSERT-45" data-name="INSERT"><g id="CIRCLE-45" data-name="CIRCLE"><path d="M94.598 58.96a1.147 1.147 0 1 0-1.147 1.148 1.15 1.15 0 0 0 1.147-1.147" class="cls-2"/><path d="M92.64 58.96a.811.811 0 1 1 .811.812.81.81 0 0 1-.81-.811m-.672 0a1.484 1.484 0 1 0 1.483-1.482 1.485 1.485 0 0 0-1.483 1.483" class="cls-3"/></g></g><g id="INSERT-46" data-name="INSERT"><g id="CIRCLE-46" data-name="CIRCLE"><path d="M30.632 16.385a1.147 1.147 0 1 1-1.147-1.147 1.15 1.15 0 0 1 1.147 1.147" class="cls-2"/><path d="M28.674 16.385a.811.811 0 1 1 .81.81.81.81 0 0 1-.81-.81m-.672 0a1.484 1.484 0 1 0 1.483-1.484 1.485 1.485 0 0 0-1.483 1.484" class="cls-3"/></g></g><g id="INSERT-47" data-name="INSERT"><g id="CIRCLE-47" data-name="CIRCLE"><path d="M34.214 16.385a1.147 1.147 0 1 1-1.148-1.147 1.15 1.15 0 0 1 1.148 1.147" class="cls-2"/><path d="M32.256 16.385a.811.811 0 1 1 .81.81.81.81 0 0 1-.81-.81m-.673 0a1.484 1.484 0 1 0 1.484-1.484 1.485 1.485 0 0 0-1.484 1.484" class="cls-3"/></g></g><g id="INSERT-48" data-name="INSERT"><g id="CIRCLE-48" data-name="CIRCLE"><path d="M37.795 16.385a1.147 1.147 0 1 1-1.147-1.147 1.15 1.15 0 0 1 1.147 1.147" class="cls-2"/><path d="M35.838 16.385a.811.811 0 1 1 .81.81.81.81 0 0 1-.81-.81m-.673 0a1.484 1.484 0 1 0 1.483-1.484 1.485 1.485 0 0 0-1.483 1.484" class="cls-3"/></g></g><g id="INSERT-49" data-name="INSERT"><g id="CIRCLE-49" data-name="CIRCLE"><path d="M41.377 16.385a1.147 1.147 0 1 1-1.147-1.147 1.15 1.15 0 0 1 1.147 1.147" class="cls-2"/><path d="M39.42 16.385a.811.811 0 1 1 .81.81.81.81 0 0 1-.81-.81m-.673 0a1.484 1.484 0 1 0 1.483-1.484 1.485 1.485 0 0 0-1.483 1.484" class="cls-3"/></g></g><g id="INSERT-50" data-name="INSERT"><g id="CIRCLE-50" data-name="CIRCLE"><path d="M44.959 16.385a1.147 1.147 0 1 1-1.147-1.147 1.15 1.15 0 0 1 1.147 1.147" class="cls-2"/><path d="M43.001 16.385a.811.811 0 1 1 .81.81.81.81 0 0 1-.81-.81m-.672 0a1.484 1.484 0 1 0 1.483-1.484 1.485 1.485 0 0 0-1.483 1.484" class="cls-3"/></g></g><g id="INSERT-51" data-name="INSERT"><g id="CIRCLE-51" data-name="CIRCLE"><path d="M48.54 16.385a1.147 1.147 0 1 1-1.147-1.147 1.15 1.15 0 0 1 1.148 1.147" class="cls-2"/><path d="M46.583 16.385a.811.811 0 1 1 .81.81.81.81 0 0 1-.81-.81m-.673 0a1.484 1.484 0 1 0 1.484-1.484 1.485 1.485 0 0 0-1.484 1.484" class="cls-3"/></g></g><g id="INSERT-52" data-name="INSERT"><g id="CIRCLE-52" data-name="CIRCLE"><path d="M52.123 16.385a1.147 1.147 0 1 1-1.148-1.147 1.15 1.15 0 0 1 1.148 1.147" class="cls-2"/><path d="M50.165 16.385a.811.811 0 1 1 .81.81.81.81 0 0 1-.81-.81m-.673 0a1.484 1.484 0 1 0 1.483-1.484 1.485 1.485 0 0 0-1.483 1.484" class="cls-3"/></g></g><g id="INSERT-53" data-name="INSERT"><g id="CIRCLE-53" data-name="CIRCLE"><path d="M55.704 16.385a1.147 1.147 0 1 1-1.147-1.147 1.15 1.15 0 0 1 1.147 1.147" class="cls-2"/><path d="M53.746 16.385a.811.811 0 1 1 .811.81.81.81 0 0 1-.81-.81m-.672 0a1.484 1.484 0 1 0 1.483-1.484 1.485 1.485 0 0 0-1.483 1.484" class="cls-3"/></g></g><g id="INSERT-54" data-name="INSERT"><g id="CIRCLE-54" data-name="CIRCLE"><path d="M59.286 16.385a1.147 1.147 0 1 1-1.147-1.147 1.15 1.15 0 0 1 1.147 1.147" class="cls-2"/><path d="M57.328 16.385a.811.811 0 1 1 .81.81.81.81 0 0 1-.81-.81m-.672 0a1.484 1.484 0 1 0 1.483-1.484 1.485 1.485 0 0 0-1.483 1.484" class="cls-3"/></g></g><g id="INSERT-55" data-name="INSERT"><g id="CIRCLE-55" data-name="CIRCLE"><path d="M62.868 16.385a1.147 1.147 0 1 1-1.148-1.147 1.15 1.15 0 0 1 1.148 1.147" class="cls-2"/><path d="M60.91 16.385a.811.811 0 1 1 .81.81.81.81 0 0 1-.81-.81m-.673 0a1.484 1.484 0 1 0 1.484-1.484 1.485 1.485 0 0 0-1.484 1.484" class="cls-3"/></g></g><g id="INSERT-56" data-name="INSERT"><g id="CIRCLE-56" data-name="CIRCLE"><path d="M70.095 16.385a1.147 1.147 0 1 1-1.147-1.147 1.15 1.15 0 0 1 1.147 1.147" class="cls-2"/><path d="M68.137 16.385a.811.811 0 1 1 .811.81.81.81 0 0 1-.81-.81m-.672 0a1.484 1.484 0 1 0 1.483-1.484 1.485 1.485 0 0 0-1.483 1.484" class="cls-3"/></g></g><g id="INSERT-57" data-name="INSERT"><g id="CIRCLE-57" data-name="CIRCLE"><path d="M73.677 16.385a1.147 1.147 0 1 1-1.148-1.147 1.15 1.15 0 0 1 1.148 1.147" class="cls-2"/><path d="M71.719 16.385a.811.811 0 1 1 .81.81.81.81 0 0 1-.81-.81m-.673 0a1.484 1.484 0 1 0 1.484-1.484 1.485 1.485 0 0 0-1.484 1.484" class="cls-3"/></g></g><g id="INSERT-58" data-name="INSERT"><g id="CIRCLE-58" data-name="CIRCLE"><path d="M77.259 16.385a1.147 1.147 0 1 1-1.148-1.147 1.15 1.15 0 0 1 1.148 1.147" class="cls-2"/><path d="M75.3 16.385a.811.811 0 1 1 .811.81.81.81 0 0 1-.81-.81m-.672 0a1.484 1.484 0 1 0 1.483-1.484 1.485 1.485 0 0 0-1.483 1.484" class="cls-3"/></g></g><g id="INSERT-59" data-name="INSERT"><g id="CIRCLE-59" data-name="CIRCLE"><path d="M80.84 16.385a1.147 1.147 0 1 1-1.147-1.147 1.15 1.15 0 0 1 1.147 1.147" class="cls-2"/><path d="M78.882 16.385a.811.811 0 1 1 .811.81.81.81 0 0 1-.81-.81m-.672 0a1.484 1.484 0 1 0 1.483-1.484 1.485 1.485 0 0 0-1.483 1.484" class="cls-3"/></g></g><g id="INSERT-60" data-name="INSERT"><g id="CIRCLE-60" data-name="CIRCLE"><path d="M84.422 16.385a1.147 1.147 0 1 1-1.147-1.147 1.15 1.15 0 0 1 1.147 1.147" class="cls-2"/><path d="M82.464 16.385a.811.811 0 1 1 .811.81.81.81 0 0 1-.81-.81m-.672 0a1.484 1.484 0 1 0 1.483-1.484 1.485 1.485 0 0 0-1.483 1.484" class="cls-3"/></g></g><g id="INSERT-61" data-name="INSERT"><g id="CIRCLE-61" data-name="CIRCLE"><path d="M88.004 16.385a1.147 1.147 0 1 1-1.148-1.147 1.15 1.15 0 0 1 1.148 1.147" class="cls-2"/><path d="M86.046 16.385a.811.811 0 1 1 .81.81.81.81 0 0 1-.81-.81m-.673 0a1.484 1.484 0 1 0 1.484-1.484 1.485 1.485 0 0 0-1.484 1.484" class="cls-3"/></g></g><g id="INSERT-62" data-name="INSERT"><g id="CIRCLE-62" data-name="CIRCLE"><path d="M91.586 16.385a1.147 1.147 0 1 1-1.148-1.147 1.15 1.15 0 0 1 1.148 1.147" class="cls-2"/><path d="M89.628 16.385a.811.811 0 1 1 .81.81.81.81 0 0 1-.81-.81m-.673 0a1.484 1.484 0 1 0 1.484-1.484 1.485 1.485 0 0 0-1.484 1.484" class="cls-3"/></g></g><g id="INSERT-63" data-name="INSERT"><g id="CIRCLE-63" data-name="CIRCLE"><path d="M95.167 16.385a1.147 1.147 0 1 1-1.147-1.147 1.15 1.15 0 0 1 1.147 1.147" class="cls-2"/><path d="M93.21 16.385a.811.811 0 1 1 .81.81.81.81 0 0 1-.81-.81m-.673 0a1.484 1.484 0 1 0 1.483-1.484 1.485 1.485 0 0 0-1.483 1.484" class="cls-3"/></g></g><path d="M6.489 2.08h2.362v1.979H6.489zM15.203 2.08h2.301v1.979h-2.301zM6.489 10.168h2.362v1.979H6.489zM15.203 10.168h2.301v1.979h-2.301z" class="cls-4"/><path d="M5.631 3.109H18.45v8.015H5.631z" style="fill:#c3c5c6"/><path d="m14.601 7.116-.012.281-.05.278-.072.277-.112.262-.127.25-.162.232-.192.207-.207.191-.226.168-.248.145-.258.113-.262.078-.281.057-.281.025-.278-.009-.283-.039-.279-.071-.264-.097-.248-.127-.243-.153-.214-.183-.193-.201-.175-.225-.145-.24-.124-.254-.095-.268-.061-.271-.032-.283v-.287l.032-.28.061-.273.095-.264.124-.256.145-.24.175-.224.193-.2.214-.185.243-.152.248-.129.264-.094.279-.074.283-.043.278-.004.281.023.281.057.262.076.258.115.248.145.226.17.207.189.192.207.162.234.127.249.112.265.072.27.05.281z" style="fill:#a2a5a6"/><path d="M75.602 38.706h14.369v14.369H75.602z" class="cls-7"/><path d="M78.003 38.708h-1.367a.684.684 0 0 1 1.367 0M79.826 38.708h-1.368a.684.684 0 0 1 1.368 0M81.648 38.708H80.28a.684.684 0 0 1 1.368 0M83.47 38.708h-1.368a.684.684 0 0 1 1.368 0M85.292 38.708h-1.367a.684.684 0 0 1 1.367 0M87.114 38.708h-1.367a.684.684 0 0 1 1.367 0M88.937 38.708h-1.368a.684.684 0 0 1 1.368 0M89.969 41.108V39.74a.684.684 0 0 1 0 1.368M89.969 42.93v-1.368a.684.684 0 0 1 0 1.368M89.969 44.752v-1.368a.684.684 0 0 1 0 1.368M89.969 46.574v-1.367a.684.684 0 0 1 0 1.367M89.969 48.396V47.03a.684.684 0 0 1 0 1.367M89.969 50.219V48.85a.684.684 0 0 1 0 1.368M89.969 52.04v-1.367a.684.684 0 0 1 0 1.368M75.603 50.673v1.368a.684.684 0 0 1 0-1.368M75.603 48.85v1.369a.684.684 0 0 1 0-1.368M75.603 47.029v1.367a.684.684 0 0 1 0-1.367M75.603 45.207v1.367a.684.684 0 0 1 0-1.367M75.603 43.384v1.368a.684.684 0 0 1 0-1.368M75.603 41.562v1.368a.684.684 0 0 1 0-1.368M75.603 39.74v1.368a.684.684 0 0 1 0-1.368M87.569 53.073h1.368a.684.684 0 0 1-1.368 0M85.747 53.073h1.367a.684.684 0 0 1-1.367 0M83.925 53.073h1.367a.684.684 0 0 1-1.367 0M82.102 53.073h1.368a.684.684 0 0 1-1.368 0M80.28 53.073h1.368a.684.684 0 0 1-1.368 0M78.458 53.073h1.368a.684.684 0 0 1-1.368 0M76.636 53.073h1.367a.684.684 0 0 1-1.367 0" class="cls-4"/><path d="M45.006 23.343h14.369v14.369H45.006z" class="cls-7"/><path d="M47.408 23.345H46.04a.684.684 0 0 1 1.368 0M49.23 23.345h-1.368a.684.684 0 0 1 1.368 0M51.052 23.345h-1.368a.684.684 0 0 1 1.368 0M52.874 23.345h-1.367a.684.684 0 0 1 1.367 0M54.696 23.345H53.33a.684.684 0 0 1 1.367 0M56.519 23.345H55.15a.684.684 0 0 1 1.368 0M58.34 23.345h-1.367a.684.684 0 0 1 1.368 0M59.373 25.745v-1.368a.684.684 0 0 1 0 1.368M59.373 27.567v-1.368a.684.684 0 0 1 0 1.368M59.373 29.39V28.02a.684.684 0 0 1 0 1.368M59.373 31.211v-1.367a.684.684 0 0 1 0 1.367M59.373 33.033v-1.367a.684.684 0 0 1 0 1.367M59.373 34.856v-1.368a.684.684 0 0 1 0 1.368M59.373 36.678V35.31a.684.684 0 0 1 0 1.368M45.008 35.31v1.368a.684.684 0 0 1 0-1.368M45.008 33.488v1.368a.684.684 0 0 1 0-1.368M45.008 31.666v1.367a.684.684 0 0 1 0-1.367M45.008 29.844v1.367a.684.684 0 0 1 0-1.367M45.008 28.021v1.368a.684.684 0 0 1 0-1.368M45.008 26.2v1.367a.684.684 0 0 1 0-1.368M45.008 24.377v1.368a.684.684 0 0 1 0-1.368M56.973 37.71h1.368a.684.684 0 0 1-1.368 0M55.151 37.71h1.368a.684.684 0 0 1-1.368 0M53.329 37.71h1.367a.684.684 0 0 1-1.367 0M51.507 37.71h1.367a.684.684 0 0 1-1.367 0M49.684 37.71h1.368a.684.684 0 0 1-1.368 0M47.862 37.71h1.368a.684.684 0 0 1-1.368 0M46.04 37.71h1.368a.684.684 0 0 1-1.368 0" class="cls-4"/><path id="traccia-loop" d="M63.744 145.623a4 4 0 0 1-.535-.037 4.42 4.42 0 0 1-2.92-1.935l-.023-.032a4.5 4.5 0 0 1-2.943 1.967 4 4 0 0 1-.536.037 3.364 3.364 0 1 1 .002-6.725 4 4 0 0 1 .534.038 4.38 4.38 0 0 1 2.84 1.825q.052.069.102.142a4.48 4.48 0 0 1 2.943-1.967 4 4 0 0 1 .534-.038 3.364 3.364 0 1 1 .002 6.725m-2.705-3.363.22.398a2 2 0 0 0 .126.2 3.18 3.18 0 0 0 2.013 1.389 3 3 0 0 0 .346.023 2.013 2.013 0 1 0-.002-4.019 2.3 2.3 0 0 0-.34.024 3.23 3.23 0 0 0-2.088 1.487Zm-4.25-2.01a2.013 2.013 0 1 0-.002 4.02 3 3 0 0 0 .346-.023 3.25 3.25 0 0 0 2.085-1.49l.275-.498-.184-.331a3 3 0 0 0-.224-.35 3.03 3.03 0 0 0-1.955-1.303 2.4 2.4 0 0 0-.341-.024" class="cls-3" transform="translate(3.423 -95.686)"/><path d="M59.001 46.187h2.46v.793h-2.46zM67.471 46.98h.831v-.793h-.831v-.834h-.795v.834h-.833v.793h.833v.834h.795zM22.536 13.916a2.5 2.5 0 0 0-.91.171v-2.805a2.5 2.5 0 0 0 .91.171 2.3 2.3 0 0 0 .918-.18v2.823a2.3 2.3 0 0 0-.918-.18" class="cls-3"/><path d="M22.536 11.453a2.5 2.5 0 0 1-.91-.171v-.464h1.828v.455a2.3 2.3 0 0 1-.918.18M23.454 14.542h-1.828v-.455a2.5 2.5 0 0 1 .91-.171 2.3 2.3 0 0 1 .918.18Z" class="cls-8"/><path d="M15.867 54.028a5.5 5.5 0 0 0-1.679.259v-4.234a5.5 5.5 0 0 0 1.679.259 5.2 5.2 0 0 0 1.694-.272v4.26a5.2 5.2 0 0 0-1.694-.272" class="cls-3"/><path d="M15.867 50.312a5.5 5.5 0 0 1-1.679-.259v-.7h3.373v.687a5.2 5.2 0 0 1-1.694.272M17.562 54.973h-3.374v-.686a5.5 5.5 0 0 1 1.679-.26 5.2 5.2 0 0 1 1.695.272Z" class="cls-8"/><path d="M25.21 65.15a5.5 5.5 0 0 0 .259 1.678h-4.234a5.5 5.5 0 0 0 .26-1.678 5.2 5.2 0 0 0-.273-1.695h4.26a5.2 5.2 0 0 0-.272 1.694" class="cls-3"/><path d="M21.494 65.15a5.5 5.5 0 0 1-.259 1.679h-.699v-3.374h.686a5.2 5.2 0 0 1 .272 1.695M26.155 63.455v3.373h-.686a5.5 5.5 0 0 1-.26-1.679 5.2 5.2 0 0 1 .273-1.694Z" class="cls-8"/><path d="M7.303 54.028a5.5 5.5 0 0 0-1.679.259v-4.234a5.5 5.5 0 0 0 1.679.259 5.2 5.2 0 0 0 1.695-.272v4.26a5.2 5.2 0 0 0-1.695-.272" class="cls-3"/><path d="M7.303 50.312a5.5 5.5 0 0 1-1.679-.259v-.7h3.373v.687a5.2 5.2 0 0 1-1.694.272M8.998 54.973H5.624v-.686a5.5 5.5 0 0 1 1.68-.26 5.2 5.2 0 0 1 1.694.272Z" class="cls-8"/><path d="M38.713 54.986a5.5 5.5 0 0 0-1.678.259V51.01a5.5 5.5 0 0 0 1.678.259 5.2 5.2 0 0 0 1.695-.272v4.26a5.2 5.2 0 0 0-1.695-.272" class="cls-3"/><path d="M38.713 51.27a5.5 5.5 0 0 1-1.679-.259v-.7h3.374v.687a5.2 5.2 0 0 1-1.695.272M40.408 55.93h-3.373v-.685a5.5 5.5 0 0 1 1.678-.26 5.2 5.2 0 0 1 1.695.273Z" class="cls-8"/><path d="M38.907 22.798a2.1 2.1 0 0 0-.732.133v-2.183a2.1 2.1 0 0 0 .732.134 1.9 1.9 0 0 0 .739-.14v2.196a1.9 1.9 0 0 0-.74-.14" class="cls-3"/><path d="M38.907 20.882a2.1 2.1 0 0 1-.732-.134v-.36h1.47v.353a1.9 1.9 0 0 1-.738.14M39.646 23.285h-1.471v-.354a2.1 2.1 0 0 1 .732-.133 1.9 1.9 0 0 1 .739.14Z" class="cls-8"/><path d="M45.076 41.351a2.1 2.1 0 0 0-.133-.732h2.183a2.1 2.1 0 0 0-.134.732 1.9 1.9 0 0 0 .14.739h-2.196a1.9 1.9 0 0 0 .14-.739" class="cls-3"/><path d="M46.992 41.351a2.1 2.1 0 0 1 .134-.732h.36v1.47h-.353a1.9 1.9 0 0 1-.14-.738M44.589 42.09v-1.47h.354a2.1 2.1 0 0 1 .133.731 1.9 1.9 0 0 1-.14.739Z" class="cls-8"/><path d="M50.274 41.351a2.1 2.1 0 0 0-.133-.732h2.183a2.1 2.1 0 0 0-.134.732 1.9 1.9 0 0 0 .14.739h-2.196a1.9 1.9 0 0 0 .14-.739" class="cls-4"/><path d="M52.19 41.351a2.1 2.1 0 0 1 .134-.732h.36v1.47h-.353a1.9 1.9 0 0 1-.14-.738M49.787 42.09v-1.47h.354a2.1 2.1 0 0 1 .133.731 1.9 1.9 0 0 1-.14.739Z" class="cls-8"/><path d="M55.472 41.351a2.1 2.1 0 0 0-.133-.732h2.183a2.1 2.1 0 0 0-.133.732 1.9 1.9 0 0 0 .14.739h-2.197a1.9 1.9 0 0 0 .14-.739" class="cls-3"/><path d="M57.389 41.351a2.1 2.1 0 0 1 .133-.732h.36v1.47h-.353a1.9 1.9 0 0 1-.14-.738M54.985 42.09v-1.47h.354a2.1 2.1 0 0 1 .133.731 1.9 1.9 0 0 1-.14.739Z" class="cls-8"/><path d="M69.686 52.152a2.1 2.1 0 0 0-.134-.732h2.184a2.1 2.1 0 0 0-.134.732 1.9 1.9 0 0 0 .14.739h-2.196a1.9 1.9 0 0 0 .14-.74" class="cls-3"/><path d="M71.602 52.152a2.1 2.1 0 0 1 .134-.732h.36v1.47h-.354a1.9 1.9 0 0 1-.14-.738M69.199 52.89v-1.47h.353a2.1 2.1 0 0 1 .134.732 1.9 1.9 0 0 1-.14.739Z" class="cls-8"/><path d="M33.594 72.574a2.1 2.1 0 0 0-.134-.732h2.184a2.1 2.1 0 0 0-.134.732 1.9 1.9 0 0 0 .14.739h-2.196a1.9 1.9 0 0 0 .14-.74" class="cls-3"/><path d="M35.51 72.574a2.1 2.1 0 0 1 .134-.732h.36v1.47h-.354a1.9 1.9 0 0 1-.14-.738M33.107 73.313v-1.471h.353a2.1 2.1 0 0 1 .134.732 1.9 1.9 0 0 1-.14.739Z" class="cls-8"/><path d="M75.412 35.145a2.1 2.1 0 0 0-.134-.732h2.183a2.1 2.1 0 0 0-.133.732 1.9 1.9 0 0 0 .14.739h-2.197a1.9 1.9 0 0 0 .14-.739" class="cls-3"/><path d="M77.328 35.145a2.1 2.1 0 0 1 .133-.732h.36v1.47h-.353a1.9 1.9 0 0 1-.14-.738M74.924 35.884v-1.471h.354a2.1 2.1 0 0 1 .134.732 1.9 1.9 0 0 1-.14.739Z" class="cls-8"/><path d="M80.61 35.145a2.1 2.1 0 0 0-.134-.732h2.183a2.1 2.1 0 0 0-.133.732 1.9 1.9 0 0 0 .14.739h-2.197a1.9 1.9 0 0 0 .14-.739" class="cls-4"/><path d="M82.526 35.145a2.1 2.1 0 0 1 .133-.732h.36v1.47h-.353a1.9 1.9 0 0 1-.14-.738M80.122 35.884v-1.471h.354a2.1 2.1 0 0 1 .134.732 1.9 1.9 0 0 1-.14.739Z" class="cls-8"/><path d="M87.566 27.573a2.1 2.1 0 0 0-.733.133v-2.183a2.1 2.1 0 0 0 .732.134 1.9 1.9 0 0 0 .74-.14v2.196a1.9 1.9 0 0 0-.74-.14" class="cls-4"/><path d="M87.565 25.657a2.1 2.1 0 0 1-.732-.134v-.36h1.471v.353a1.9 1.9 0 0 1-.739.14M88.304 28.06h-1.47v-.354a2.1 2.1 0 0 1 .731-.133 1.9 1.9 0 0 1 .74.14Z" class="cls-8"/><path d="M85.808 35.145a2.1 2.1 0 0 0-.134-.732h2.183a2.1 2.1 0 0 0-.133.732 1.9 1.9 0 0 0 .14.739h-2.196a1.9 1.9 0 0 0 .14-.739" class="cls-3"/><path d="M87.724 35.145a2.1 2.1 0 0 1 .133-.732h.36v1.47h-.353a1.9 1.9 0 0 1-.14-.738M85.32 35.884v-1.471h.354a2.1 2.1 0 0 1 .134.732 1.9 1.9 0 0 1-.14.739Z" class="cls-8"/><path d="M88.626 32.49a2.1 2.1 0 0 0-.134-.733h2.183a2.1 2.1 0 0 0-.133.732 1.9 1.9 0 0 0 .14.739h-2.197a1.9 1.9 0 0 0 .14-.739" class="cls-3"/><path d="M90.542 32.49a2.1 2.1 0 0 1 .133-.733h.36v1.47h-.353a1.9 1.9 0 0 1-.14-.738M88.138 33.228v-1.47h.354a2.1 2.1 0 0 1 .134.731 1.9 1.9 0 0 1-.14.739Z" class="cls-8"/><path d="M92.248 35.145a2.1 2.1 0 0 0-.133-.732h2.183a2.1 2.1 0 0 0-.133.732 1.9 1.9 0 0 0 .14.739h-2.197a1.9 1.9 0 0 0 .14-.74" class="cls-3"/><path d="M94.165 35.145a2.1 2.1 0 0 1 .133-.732h.36v1.47h-.353a1.9 1.9 0 0 1-.14-.738M91.761 35.884v-1.471h.354a2.1 2.1 0 0 1 .133.732 1.9 1.9 0 0 1-.14.739Z" class="cls-8"/><path d="M42.548 54.374a2.1 2.1 0 0 0-.732.134v-2.184a2.1 2.1 0 0 0 .732.134 1.9 1.9 0 0 0 .74-.14v2.196a1.9 1.9 0 0 0-.74-.14" class="cls-3"/><path d="M42.548 52.458a2.1 2.1 0 0 1-.732-.134v-.36h1.471v.354a1.9 1.9 0 0 1-.739.14M43.287 54.862h-1.47v-.354a2.1 2.1 0 0 1 .731-.134 1.9 1.9 0 0 1 .74.14Z" class="cls-8"/><path d="M41.365 22.798a2.1 2.1 0 0 0-.732.133v-2.183a2.1 2.1 0 0 0 .732.134 1.9 1.9 0 0 0 .739-.14v2.196a1.9 1.9 0 0 0-.739-.14" class="cls-3"/><path d="M41.365 20.882a2.1 2.1 0 0 1-.732-.134v-.36h1.47v.353a1.9 1.9 0 0 1-.738.14M42.104 23.285h-1.471v-.354a2.1 2.1 0 0 1 .732-.133 1.9 1.9 0 0 1 .739.14Z" class="cls-8"/><path d="M41.365 27.868a2.1 2.1 0 0 0-.732.133v-2.183a2.1 2.1 0 0 0 .732.134 1.9 1.9 0 0 0 .739-.14v2.196a1.9 1.9 0 0 0-.739-.14" class="cls-4"/><path d="M41.365 25.952a2.1 2.1 0 0 1-.732-.134v-.36h1.47v.353a1.9 1.9 0 0 1-.738.14M42.104 28.355h-1.471v-.354a2.1 2.1 0 0 1 .732-.133 1.9 1.9 0 0 1 .739.14Z" class="cls-8"/><path d="M33.888 23.27a2.1 2.1 0 0 0-.133-.732h2.183a2.1 2.1 0 0 0-.133.732 1.9 1.9 0 0 0 .14.739h-2.197a1.9 1.9 0 0 0 .14-.74" class="cls-4"/><path d="M35.805 23.27a2.1 2.1 0 0 1 .133-.732h.36v1.47h-.353a1.9 1.9 0 0 1-.14-.738M33.401 24.009v-1.471h.354a2.1 2.1 0 0 1 .133.732 1.9 1.9 0 0 1-.14.739Z" class="cls-8"/><path d="M33.888 20.631a2.1 2.1 0 0 0-.133-.732h2.183a2.1 2.1 0 0 0-.133.732 1.9 1.9 0 0 0 .14.739h-2.197a1.9 1.9 0 0 0 .14-.739" class="cls-4"/><path d="M35.805 20.631a2.1 2.1 0 0 1 .133-.732h.36v1.47h-.353a1.9 1.9 0 0 1-.14-.738M33.401 21.37V19.9h.354a2.1 2.1 0 0 1 .133.731 1.9 1.9 0 0 1-.14.739Z" class="cls-8"/><path d="M45.323 20.631a2.1 2.1 0 0 0-.133-.732h2.183a2.1 2.1 0 0 0-.134.732 1.9 1.9 0 0 0 .14.739h-2.196a1.9 1.9 0 0 0 .14-.739" class="cls-4"/><path d="M47.24 20.631a2.1 2.1 0 0 1 .133-.732h.36v1.47h-.353a1.9 1.9 0 0 1-.14-.738M44.836 21.37V19.9h.354a2.1 2.1 0 0 1 .133.731 1.9 1.9 0 0 1-.14.739Z" class="cls-8"/><path d="M57.216 20.631a2.1 2.1 0 0 0-.134-.732h2.183a2.1 2.1 0 0 0-.133.732 1.9 1.9 0 0 0 .14.739h-2.197a1.9 1.9 0 0 0 .14-.739" class="cls-4"/><path d="M59.132 20.631a2.1 2.1 0 0 1 .133-.732h.36v1.47h-.353a1.9 1.9 0 0 1-.14-.738M56.728 21.37V19.9h.354a2.1 2.1 0 0 1 .134.731 1.9 1.9 0 0 1-.14.739Z" class="cls-8"/><path d="M64.02 28.352a2.1 2.1 0 0 0-.133-.732h2.183a2.1 2.1 0 0 0-.134.732 1.9 1.9 0 0 0 .14.739H63.88a1.9 1.9 0 0 0 .14-.74" class="cls-4"/><path d="M65.936 28.352a2.1 2.1 0 0 1 .134-.732h.36v1.47h-.353a1.9 1.9 0 0 1-.14-.738M63.533 29.09v-1.47h.354a2.1 2.1 0 0 1 .133.732 1.9 1.9 0 0 1-.14.739Z" class="cls-8"/><path d="M64.02 31.018a2.1 2.1 0 0 0-.133-.732h2.183a2.1 2.1 0 0 0-.134.732 1.9 1.9 0 0 0 .14.739H63.88a1.9 1.9 0 0 0 .14-.739" class="cls-4"/><path d="M65.936 31.018a2.1 2.1 0 0 1 .134-.732h.36v1.471h-.353a1.9 1.9 0 0 1-.14-.739M63.533 31.757v-1.47h.354a2.1 2.1 0 0 1 .133.731 1.9 1.9 0 0 1-.14.739Z" class="cls-8"/><path d="M64.02 41.351a2.1 2.1 0 0 0-.133-.732h2.183a2.1 2.1 0 0 0-.134.732 1.9 1.9 0 0 0 .14.739H63.88a1.9 1.9 0 0 0 .14-.739" class="cls-4"/><path d="M65.936 41.351a2.1 2.1 0 0 1 .134-.732h.36v1.471h-.353a1.9 1.9 0 0 1-.14-.739M63.533 42.09v-1.47h.354a2.1 2.1 0 0 1 .133.731 1.9 1.9 0 0 1-.14.739Z" class="cls-8"/><path d="M41.365 32.938a2.1 2.1 0 0 0-.732.133v-2.183a2.1 2.1 0 0 0 .732.134 1.9 1.9 0 0 0 .739-.14v2.196a1.9 1.9 0 0 0-.739-.14" class="cls-4"/><path d="M41.365 31.021a2.1 2.1 0 0 1-.732-.133v-.36h1.47v.353a1.9 1.9 0 0 1-.738.14M42.104 33.425h-1.471v-.354a2.1 2.1 0 0 1 .732-.133 1.9 1.9 0 0 1 .739.14Z" class="cls-8"/><path d="M18.405 60.728a2.1 2.1 0 0 0-.732.133v-2.183a2.1 2.1 0 0 0 .732.134 1.9 1.9 0 0 0 .738-.14v2.196a1.9 1.9 0 0 0-.738-.14" class="cls-4"/><path d="M18.405 58.812a2.1 2.1 0 0 1-.732-.134v-.36h1.47v.354a1.9 1.9 0 0 1-.738.14M19.144 61.215h-1.471v-.354a2.1 2.1 0 0 1 .732-.133 1.9 1.9 0 0 1 .739.14Z" class="cls-8"/><path d="M21.241 60.728a2.1 2.1 0 0 0-.732.133v-2.183a2.1 2.1 0 0 0 .732.134 1.9 1.9 0 0 0 .739-.14v2.196a1.9 1.9 0 0 0-.739-.14" class="cls-4"/><path d="M21.241 58.812a2.1 2.1 0 0 1-.732-.134v-.36h1.47v.354a1.9 1.9 0 0 1-.738.14M21.98 61.215h-1.47v-.354a2.1 2.1 0 0 1 .731-.133 1.9 1.9 0 0 1 .739.14Z" class="cls-8"/><path d="M11.59 53.002a2.1 2.1 0 0 0-.733.134v-2.184a2.1 2.1 0 0 0 .732.134 1.9 1.9 0 0 0 .74-.14v2.196a1.9 1.9 0 0 0-.74-.14" class="cls-4"/><path d="M11.59 51.086a2.1 2.1 0 0 1-.733-.133v-.361h1.471v.354a1.9 1.9 0 0 1-.739.14M12.328 53.49h-1.47v-.354a2.1 2.1 0 0 1 .731-.134 1.9 1.9 0 0 1 .74.14Z" class="cls-8"/><path d="M24.078 60.728a2.1 2.1 0 0 0-.732.133v-2.183a2.1 2.1 0 0 0 .731.134 1.9 1.9 0 0 0 .74-.14v2.196a1.9 1.9 0 0 0-.74-.14" class="cls-4"/><path d="M24.077 58.812a2.1 2.1 0 0 1-.732-.134v-.36h1.471v.354a1.9 1.9 0 0 1-.739.14M24.816 61.215h-1.47v-.354a2.1 2.1 0 0 1 .732-.133 1.9 1.9 0 0 1 .738.14Z" class="cls-8"/><path d="M26.914 60.728a2.1 2.1 0 0 0-.732.133v-2.183a2.1 2.1 0 0 0 .732.134 1.9 1.9 0 0 0 .739-.14v2.196a1.9 1.9 0 0 0-.74-.14" class="cls-4"/><path d="M26.914 58.812a2.1 2.1 0 0 1-.732-.134v-.36h1.47v.354a1.9 1.9 0 0 1-.738.14M27.653 61.215h-1.471v-.354a2.1 2.1 0 0 1 .732-.133 1.9 1.9 0 0 1 .739.14Z" class="cls-8"/><path d="M33.482 39.66a2.9 2.9 0 0 0-1.064.203v-3.33a2.9 2.9 0 0 0 1.063.203 2.7 2.7 0 0 0 1.074-.214v3.351a2.7 2.7 0 0 0-1.073-.214" class="cls-4"/><path d="M33.481 36.736a2.9 2.9 0 0 1-1.064-.204v-.55h2.138v.54a2.7 2.7 0 0 1-1.074.214M34.555 40.403h-2.137v-.54a2.9 2.9 0 0 1 1.064-.204 2.7 2.7 0 0 1 1.073.214Z" class="cls-8"/><path d="M25.207 13.916a2.5 2.5 0 0 0-.91.171v-2.805a2.5 2.5 0 0 0 .91.171 2.3 2.3 0 0 0 .918-.18v2.823a2.3 2.3 0 0 0-.918-.18" class="cls-4"/><path d="M25.207 11.453a2.5 2.5 0 0 1-.91-.171v-.464h1.828v.455a2.3 2.3 0 0 1-.918.18M26.125 14.542h-1.827v-.455a2.5 2.5 0 0 1 .91-.171 2.3 2.3 0 0 1 .917.18Z" class="cls-8"/><path d="M69.202 55.526a3.4 3.4 0 0 0-.2-1.152h3.272a3.4 3.4 0 0 0-.2 1.152 3.2 3.2 0 0 0 .21 1.163h-3.292a3.2 3.2 0 0 0 .21-1.163" class="cls-4"/><path d="M72.074 55.526a3.4 3.4 0 0 1 .2-1.152h.54v2.315h-.53a3.2 3.2 0 0 1-.21-1.163M68.472 56.69v-2.316h.53a3.4 3.4 0 0 1 .2 1.152 3.2 3.2 0 0 1-.21 1.163Z" class="cls-8"/><path d="M19.93 13.916a2.5 2.5 0 0 0-.91.171v-2.805a2.5 2.5 0 0 0 .909.171 2.3 2.3 0 0 0 .918-.18v2.823a2.3 2.3 0 0 0-.918-.18" class="cls-4"/><path d="M19.929 11.453a2.5 2.5 0 0 1-.91-.171v-.464h1.828v.455a2.3 2.3 0 0 1-.918.18M20.847 14.542H19.02v-.455a2.5 2.5 0 0 1 .91-.171 2.3 2.3 0 0 1 .917.18Z" class="cls-8"/><path d="M74.681 30.083h.662v2.502h3.25v.78h-3.912zM84.901 30.083h.663v3.282h-3.902v-.78h3.239zM74.681 24.47h3.912v.792h-3.25v2.501h-.662zM81.662 24.47h3.902v3.293h-.663v-2.501h-3.239z" class="cls-4"/><path d="M75.342 32.58v-7.318h9.564v7.319z" class="cls-7"/><path d="M44.243 49.282h.663v2.501h3.25v.781h-3.913zM54.463 49.282h.663v3.282h-3.902v-.781h3.239zM44.243 43.669h3.913v.791h-3.25v2.502h-.663zM51.224 43.669h3.902v3.293h-.663V44.46h-3.239z" class="cls-4"/><path d="M44.905 51.78v-7.32h9.564v7.32z" class="cls-7"/><path d="M31.271 69.259h1.448v.549h-1.448zM36.306 69.259h1.448v.549h-1.448z" class="cls-4"/><path d="M31.271 68.712h1.448v.548h-1.448zM36.306 68.712h1.448v.548h-1.448z" class="cls-9"/><path d="M31.271 68.163h1.448v.549h-1.448zM36.306 68.163h1.448v.549h-1.448zM31.271 62.688h1.448v.549h-1.448zM36.306 62.688h1.448v.549h-1.448z" class="cls-4"/><path d="M31.271 62.14h1.448v.548h-1.448zM36.306 62.14h1.448v.548h-1.448z" class="cls-9"/><path d="M31.271 61.591h1.448v.549h-1.448zM36.306 61.591h1.448v.549h-1.448zM33.832 62.688h1.448v.549h-1.448z" class="cls-4"/><path d="M33.832 62.14h1.448v.548h-1.448z" class="cls-9"/><path d="M33.832 61.591h1.448v.549h-1.448z" class="cls-4"/><path d="M30.363 63.237h8.385v4.926h-8.385zM64.69 18.426h2.188v4.371H64.69z" class="cls-7"/><path d="M63.533 18.899h1.157v.587h-1.157zM63.533 21.738h1.157v.587h-1.157zM66.878 20.318h1.157v.587h-1.157z" class="cls-8"/><path d="M40.888 43.018h-4.332v-5.362h4.332z" class="cls-10"/><path d="M40.888 45.25h-4.332v-2.233h4.332z" class="cls-4"/><path d="M39.758 46.71h-2.074v-1.46h2.074zM39.758 37.656h-2.074v-1.461h2.074z" class="cls-11"/><path d="M20.712 47.814H35.51v8.428H20.712z" class="cls-7"/><path d="M33.372 56.243h.735v.549h-.735zM30.958 56.243h.735v.549h-.735zM28.545 56.243h.735v.549h-.735zM26.695 56.243h.735v.549h-.735zM24.88 56.243h.735v.549h-.735zM22.978 56.243h.735v.549h-.735zM33.372 47.265h.735v.549h-.735zM30.958 47.265h.735v.549h-.735zM28.545 47.265h.735v.549h-.735zM26.695 47.265h.735v.549h-.735zM24.88 47.265h.735v.549h-.735zM22.978 47.265h.735v.549h-.735zM20.163 48.852v-.735h.549v.735zM20.163 50.27v-.736h.55v.735zM20.162 51.687v-.735h.55v.735zM20.163 53.105v-.735h.549v.735zM20.163 54.523v-.735h.55v.735zM20.162 55.94v-.735h.55v.735z" class="cls-8"/><path d="M33.888 25.282h3.769v7.987h-3.769z" class="cls-10"/><path d="M37.657 31.39h.434v.96h-.434z" class="cls-8"/><path d="M38.091 31.39h.434v.96h-.434z" class="cls-4"/><path d="M38.524 31.39h.434v.96h-.434zM37.657 26.012h.434v.96h-.434z" class="cls-8"/><path d="M38.091 26.012h.434v.96h-.434z" class="cls-4"/><path d="M38.524 26.012h.434v.96h-.434zM32.587 25.811h.434v2.372h-.434z" class="cls-8"/><path d="M33.021 25.811h.434v2.372h-.434z" class="cls-4"/><path d="M33.455 25.811h.434v2.372h-.434zM32.587 31.39h.434v.96h-.434z" class="cls-8"/><path d="M33.021 31.39h.434v.96h-.434z" class="cls-4"/><path d="M33.455 31.39h.434v.96h-.434z" class="cls-8"/><path d="M29.977 19.638v.642h-1.419v-.642zM29.977 20.963v.642h-1.42v-.642zM29.977 22.289v.642h-1.42v-.642zM29.977 23.614v.642h-1.419v-.642zM29.977 24.94v.641h-1.419v-.642zM29.977 26.264v.642h-1.419v-.642zM29.977 27.59v.641h-1.42v-.642zM29.977 28.915v.642h-1.42v-.642zM29.977 30.24v.642h-1.419v-.642zM29.977 31.565v.642h-1.419v-.642zM29.976 32.89v.642h-1.419v-.642zM29.977 34.216v.642h-1.42v-.642zM29.977 35.54v.643h-1.42v-.642zM29.977 36.866v.642h-1.419v-.642zM29.977 38.191v.642h-1.419v-.642zM29.977 39.516v.642h-1.42v-.642zM29.977 40.842v.642h-1.42v-.642zM29.977 42.167v.642h-1.419v-.642z" class="cls-12"/><path d="M28.558 41.882h-.34a.63.63 0 0 1-.64-.63v-1.18a.64.64 0 0 1 .64-.64h.34v-1.32h-.34a.64.64 0 0 1-.64-.64v-1.18a.63.63 0 0 1 .64-.63h.34v-1.33h-.34a.63.63 0 0 1-.64-.63v-1.18a.64.64 0 0 1 .64-.64h.34v-1.319h-.34a.64.64 0 0 1-.64-.64v-1.18a.63.63 0 0 1 .64-.63h.34v-1.33h-.34a.63.63 0 0 1-.64-.63v-1.18a.64.64 0 0 1 .64-.64h.34v-1.32h-.34a.64.64 0 0 1-.64-.64v-1.18a.63.63 0 0 1 .64-.63h.34v-2.499H0v26.104h28.558Z" class="cls-4"/><rect width="3.456" height="1.312" x="17.171" y="126.254" class="cls-12" rx=".656" transform="rotate(90 68.454 80.778)"/><path d="M5.179 44.168h3.028v.665H5.179zM5.179 17.399h3.028v.665H5.179z" class="cls-8"/><path d="M63.204 24.073h2.872v2.267h-2.872z" class="cls-13"/><path d="M65.677 24.473v1.467h-2.073v-1.467zm.4-.4h-2.873v2.267h2.873z" class="cls-4"/><path d="M66.483 25.21a.4.4 0 0 0 .4.39v.74h-.81v-2.27h.81v.74a.4.4 0 0 0-.4.4M62.794 25.2a.4.4 0 0 0-.4-.39v-.74h.81v2.27h-.81v-.74a.4.4 0 0 0 .4-.4" class="cls-3"/><path d="M63.204 33.132h2.872v2.267h-2.872z" class="cls-13"/><path d="M65.677 33.532v1.467h-2.073v-1.467zm.4-.4h-2.873v2.267h2.873z" class="cls-4"/><path d="M66.483 34.269a.4.4 0 0 0 .4.39v.74h-.81v-2.27h.81v.74a.4.4 0 0 0-.4.4M62.794 34.259a.4.4 0 0 0-.4-.39v-.74h.81v2.27h-.81v-.74a.4.4 0 0 0 .4-.4" class="cls-3"/><path d="M63.204 36.877h2.872v2.267h-2.872z" class="cls-13"/><path d="M65.677 37.277v1.467h-2.073v-1.467zm.4-.4h-2.873v2.267h2.873z" class="cls-4"/><path d="M66.483 38.014a.4.4 0 0 0 .4.39v.74h-.81v-2.27h.81v.74a.4.4 0 0 0-.4.4M62.794 38.004a.4.4 0 0 0-.4-.39v-.74h.81v2.27h-.81v-.74a.4.4 0 0 0 .4-.4" class="cls-3"/><path d="M91.681 63.597H95.3v7.175h-3.619z" class="cls-14"/><path d="M94.914 65.753h-2.847V68.6h2.847Z" class="cls-10"/><path d="M94.205 67.889v-1.424h-1.427v1.424h1.427" class="cls-9"/><path d="M88.063 63.597h3.619v7.175h-3.619z" class="cls-14"/><path d="M91.295 65.753h-2.847V68.6h2.847Z" class="cls-10"/><path d="M90.587 67.889v-1.424H89.16v1.424h1.427" class="cls-9"/><path d="M84.444 63.597h3.619v7.175h-3.619z" class="cls-14"/><path d="M87.677 65.753H84.83V68.6h2.847Z" class="cls-10"/><path d="M86.968 67.889v-1.424h-1.427v1.424h1.427" class="cls-9"/><path d="M80.826 63.597h3.619v7.175h-3.619z" class="cls-14"/><path d="M84.058 65.753h-2.847V68.6h2.847Z" class="cls-10"/><path d="M83.35 67.889v-1.424h-1.427v1.424h1.427" class="cls-9"/><path d="M77.207 63.597h3.619v7.175h-3.619z" class="cls-14"/><path d="M80.44 65.753h-2.847V68.6h2.847Z" class="cls-10"/><path d="M79.731 67.889v-1.424h-1.427v1.424h1.427" class="cls-9"/><path d="M73.588 63.597h3.619v7.175h-3.619z" class="cls-14"/><path d="M76.821 65.753h-2.847V68.6h2.847Z" class="cls-10"/><path d="M76.112 67.889v-1.424h-1.426v1.424h1.426" class="cls-9"/><path d="M74.287 70.772h2.221v3.493h-2.221zM81.445 70.772h2.221v3.493h-2.221zM88.609 70.772h2.221v3.493h-2.221zM78.031 60.323h2.221v3.274h-2.221zM85.144 60.323h2.221v3.274h-2.221zM92.381 60.323h2.221v3.274h-2.221z" class="cls-3"/><path d="M60.026 4.729h3.619v7.175h-3.619z" class="cls-14"/><path d="M63.26 6.885h-2.848v2.847h2.847Z" class="cls-10"/><path d="M62.55 9.021V7.596h-1.426v1.425h1.426" class="cls-9"/><path d="M56.408 4.729h3.619v7.175h-3.619z" class="cls-14"/><path d="M59.64 6.885h-2.846v2.847h2.847Z" class="cls-10"/><path d="M58.932 9.021V7.596h-1.427v1.425h1.427" class="cls-9"/><path d="M52.789 4.729h3.619v7.175h-3.619z" class="cls-14"/><path d="M56.022 6.885h-2.847v2.847h2.847Z" class="cls-10"/><path d="M55.313 9.021V7.596h-1.427v1.425h1.427" class="cls-9"/><path d="M49.171 4.729h3.619v7.175h-3.619z" class="cls-14"/><path d="M52.404 6.885h-2.847v2.847h2.847Z" class="cls-10"/><path d="M51.695 9.021V7.596h-1.427v1.425h1.427" class="cls-9"/><path d="M45.552 4.729h3.619v7.175h-3.619z" class="cls-14"/><path d="M48.785 6.885h-2.847v2.847h2.847Z" class="cls-10"/><path d="M48.076 9.021V7.596h-1.427v1.425h1.427" class="cls-9"/><path d="M41.934 4.729h3.619v7.175h-3.619z" class="cls-14"/><path d="M45.166 6.885H42.32v2.847h2.847Z" class="cls-10"/><path d="M44.458 9.021V7.596h-1.427v1.425h1.427" class="cls-9"/><path d="M38.315 4.729h3.619v7.175h-3.619z" class="cls-14"/><path d="M41.548 6.885H38.7v2.847h2.847Z" class="cls-10"/><path d="M40.839 9.021V7.596h-1.427v1.425h1.427" class="cls-9"/><path d="M34.697 4.729h3.619v7.175h-3.619z" class="cls-14"/><path d="M37.93 6.885h-2.848v2.847h2.847Z" class="cls-10"/><path d="M37.221 9.021V7.596h-1.427v1.425h1.427" class="cls-9"/><path d="M31.078 4.729h3.619v7.175h-3.619z" class="cls-14"/><path d="M34.31 6.885h-2.846v2.847h2.847Z" class="cls-10"/><path d="M33.602 9.021V7.596h-1.427v1.425h1.427" class="cls-9"/><path d="M27.459 4.729h3.619v7.175h-3.619z" class="cls-14"/><path d="M30.692 6.885h-2.847v2.847h2.847Z" class="cls-10"/><path d="M29.983 9.021V7.596h-1.426v1.425h1.426" class="cls-9"/><path d="M42.701 11.904h2.221v3.274h-2.221zM35.538 11.904h2.221v3.274h-2.221zM28.375 11.904h2.221v3.274h-2.221zM49.892 11.904h2.221v3.274h-2.221zM57.056 11.904h2.221v3.274h-2.221zM46.191 1.455h2.221v3.274h-2.221zM39.147 1.455h2.221v3.274h-2.221zM31.983 1.455h2.221v3.274h-2.221zM53.428 1.455h2.221v3.274h-2.221zM60.666 1.455h2.221v3.274h-2.221z" class="cls-3"/><path d="M92.33 4.729h3.619v7.175H92.33z" class="cls-14"/><path d="M95.563 6.885h-2.847v2.847h2.847Z" class="cls-10"/><path d="M94.854 9.021V7.596h-1.427v1.425h1.427" class="cls-9"/><path d="M88.711 4.729h3.619v7.175h-3.619z" class="cls-14"/><path d="M91.944 6.885h-2.847v2.847h2.847Z" class="cls-10"/><path d="M91.235 9.021V7.596h-1.427v1.425h1.427" class="cls-9"/><path d="M85.093 4.729h3.619v7.175h-3.619z" class="cls-14"/><path d="M88.325 6.885h-2.847v2.847h2.847Z" class="cls-10"/><path d="M87.617 9.021V7.596H86.19v1.425h1.427" class="cls-9"/><path d="M81.474 4.729h3.619v7.175h-3.619z" class="cls-14"/><path d="M84.707 6.885H81.86v2.847h2.847Z" class="cls-10"/><path d="M83.998 9.021V7.596h-1.427v1.425h1.427" class="cls-9"/><path d="M77.856 4.729h3.619v7.175h-3.619z" class="cls-14"/><path d="M81.088 6.885h-2.847v2.847h2.847Z" class="cls-10"/><path d="M80.379 9.021V7.596h-1.426v1.425h1.426" class="cls-9"/><path d="M74.237 4.729h3.619v7.175h-3.619z" class="cls-14"/><path d="M77.47 6.885h-2.847v2.847h2.847Z" class="cls-10"/><path d="M76.761 9.021V7.596h-1.427v1.425h1.427" class="cls-9"/><path d="M70.618 4.729h3.619v7.175h-3.619z" class="cls-14"/><path d="M73.851 6.885h-2.847v2.847h2.847Z" class="cls-10"/><path d="M73.142 9.021V7.596h-1.426v1.425h1.426" class="cls-9"/><path d="M67 4.729h3.619v7.175H67z" class="cls-14"/><path d="M70.233 6.885h-2.847v2.847h2.847Z" class="cls-10"/><path d="M69.524 9.021V7.596h-1.427v1.425h1.427" class="cls-9"/><path d="M75.002 11.904h2.221v3.274h-2.221zM67.699 11.904h2.221v3.274h-2.221zM82.165 11.904h2.221v3.274h-2.221zM89.356 11.904h2.221v3.274h-2.221zM78.587 1.455h2.221v3.274h-2.221zM71.446 1.455h2.221v3.274h-2.221zM85.783 1.455h2.221v3.274h-2.221zM93.062 1.455h2.221v3.274h-2.221z" class="cls-3"/><path d="M66.559 63.597h3.619v7.175h-3.619z" class="cls-14"/><path d="M69.792 65.753h-2.847V68.6h2.847Z" class="cls-10"/><path d="M69.083 67.889v-1.424h-1.427v1.424h1.427" class="cls-9"/><path d="M62.941 63.597h3.619v7.175h-3.619z" class="cls-14"/><path d="M66.174 65.753h-2.847V68.6h2.847Z" class="cls-10"/><path d="M65.465 67.889v-1.424h-1.427v1.424h1.427" class="cls-9"/><path d="M59.322 63.597h3.619v7.175h-3.619z" class="cls-14"/><path d="M62.555 65.753h-2.847V68.6h2.847Z" class="cls-10"/><path d="M61.846 67.889v-1.424h-1.427v1.424h1.427" class="cls-9"/><path d="M55.704 63.597h3.619v7.175h-3.619z" class="cls-14"/><path d="M58.936 65.753H56.09V68.6h2.847Z" class="cls-10"/><path d="M58.228 67.889v-1.424h-1.427v1.424h1.427" class="cls-9"/><path d="M52.085 63.597h3.619v7.175h-3.619z" class="cls-14"/><path d="M55.318 65.753H52.47V68.6h2.847Z" class="cls-10"/><path d="M54.609 67.889v-1.424h-1.427v1.424h1.427" class="cls-9"/><path d="M48.467 63.597h3.619v7.175h-3.619z" class="cls-14"/><path d="M51.7 65.753h-2.848V68.6H51.7Z" class="cls-10"/><path d="M50.991 67.889v-1.424h-1.427v1.424h1.427" class="cls-9"/><path d="M44.848 63.597h3.619v7.175h-3.619z" class="cls-14"/><path d="M48.08 65.753h-2.846V68.6h2.847Z" class="cls-10"/><path d="M47.372 67.889v-1.424h-1.427v1.424h1.427" class="cls-9"/><path d="M41.229 63.597h3.619v7.175h-3.619z" class="cls-14"/><path d="M44.462 65.753h-2.847V68.6h2.847Z" class="cls-10"/><path d="M43.753 67.889v-1.424h-1.426v1.424h1.426" class="cls-9"/><path d="M41.929 70.772h2.221v3.493h-2.221zM49.019 70.772h2.221v3.493h-2.221zM56.219 70.772h2.221v3.493h-2.221zM63.327 70.772h2.221v3.493h-2.221zM45.624 60.323h2.221v3.274h-2.221zM52.787 60.338h2.221v3.274h-2.221zM59.951 60.323h2.221v3.274h-2.221zM67.115 60.323h2.221v3.274h-2.221z" class="cls-3"/><path d="M3.423 69.015h3.69a2.255 2.255 0 0 1 0 4.51h-3.69Z" class="cls-15"/><circle cx="7.127" cy="71.272" r="1.471" class="cls-3"/><path d="M3.423 69.805a1.466 1.466 0 0 1 1.47 1.47 1.47 1.47 0 0 1-1.47 1.47Z" class="cls-2"/><path d="M3.423 61.89h3.69a2.255 2.255 0 0 1 0 4.51h-3.69Z" class="cls-15"/><circle cx="7.127" cy="64.147" r="1.471" class="cls-3"/><path d="M3.423 62.68a1.466 1.466 0 0 1 1.47 1.47 1.47 1.47 0 0 1-1.47 1.47Z" class="cls-2"/><path d="M90.192 28.895v-2.872h2.267v2.872z" class="cls-13"/><path d="M92.059 26.423v2.072h-1.467v-2.072zm.4-.4h-2.267v2.872h2.267z" class="cls-4"/><path d="M91.329 25.617a.4.4 0 0 0 .39-.4h.74v.81h-2.27v-.81h.74a.4.4 0 0 0 .4.4M91.319 29.305a.4.4 0 0 0-.39.4h-.74v-.81h2.27v.81h-.74a.4.4 0 0 0-.4-.4" class="cls-3"/></g></svg>