<?xml version="1.0" encoding="utf-8"?>
<!-- Generator: Adobe Illustrator 25.0.1, SVG Export Plug-In . SVG Version: 6.00 Build 0)  -->
<svg version="1.1" id="Layer_1" xmlns="http://www.w3.org/2000/svg" xmlns:xlink="http://www.w3.org/1999/xlink" x="0px" y="0px"
	 viewBox="0 0 194 138.3" style="enable-background:new 0 0 194 138.3;" xml:space="preserve">
<style type="text/css">
	.st0{fill:#017481;}
	.st1{fill:#B3B6B7;}
	.st2{fill:#A1CBCF;}
	.st3{fill:#8B8F90;}
	.st4{fill:#ADB0B1;}
	.st5{fill:#FFFFFF;}
	.st6{fill:#C2C5C6;}
	.st7{fill:#A19284;}
	.st8{fill:#8A7867;}
	.st9{fill:#9DA0A1;}
	.st10{fill:#DDDEDE;}
	.st11{fill:#B8B9BA;}
	.st12{fill:#EAA800;}
	.st13{fill:#BCC6C6;}
</style>
<path class="st0" d="M0,98.1L0,98.1c0,0.7,0.3,1.4,0.9,1.9l0,0l4.9,4.9v0c0.5,0.4,0.7,1,0.7,1.7h0v29.2c0,1.4,1.1,2.5,2.5,2.5h166.2
	v0l0.3,0l0.3,0l0.2-0.1l0.2-0.1l0.2-0.1l0.2-0.1l0.2-0.2l0.2-0.2l0.2-0.2l0.2-0.2l0.1-0.2l0.1-0.2l0.1-0.2l0.1-0.2l0-0.3l0-0.3V2.6
	l0-0.3l0-0.3l-0.1-0.2l-0.1-0.2l-0.1-0.2l-0.1-0.2l-0.2-0.2l-0.2-0.2l-0.2-0.2l-0.2-0.1l-0.2-0.1l-0.2-0.1L176,0.1l-0.2-0.1l-0.3,0
	l-0.3,0H9.2L8.9,0l-0.3,0L8.4,0.1L8.2,0.2L8,0.3L7.7,0.4L7.5,0.6L7.3,0.8L7.2,0.9L7,1.2L6.9,1.4L6.8,1.6L6.7,1.8L6.6,2.1l0,0.3
	l0,0.3v4l-5.8,5.8l0,0C0.3,12.9,0,13.5,0,14.2L0,98.1z"/>
<polygon class="st0" points="175.7,0.1 176,0.1 176.2,0.2 176.5,0.3 176.7,0.4 176.9,0.6 177.1,0.8 177.2,0.9 177.4,1.2 177.5,1.4 
	177.6,1.6 177.7,1.8 177.8,2.1 177.8,2.3 177.8,2.6 177.8,135.7 177.8,136 177.8,136.2 177.7,136.5 177.6,136.7 177.5,136.9 
	177.4,137.2 177.2,137.4 177.1,137.6 176.9,137.7 176.7,137.9 176.5,138 176.2,138.1 176,138.2 175.7,138.3 175.5,138.3 
	175.2,138.3 175.2,138.3 175.5,138.3 175.7,138.3 176,138.2 176.2,138.1 176.5,138 176.7,137.9 176.9,137.7 177.1,137.6 
	177.2,137.4 177.4,137.2 177.5,136.9 177.6,136.7 177.7,136.5 177.8,136.2 177.8,136 177.8,135.7 177.8,2.6 177.8,2.3 177.8,2.1 
	177.7,1.8 177.6,1.6 177.5,1.4 177.4,1.2 177.2,0.9 177.1,0.8 176.9,0.6 176.7,0.4 176.5,0.3 176.2,0.2 176,0.1 175.7,0.1 175.5,0 
	175.2,0 175.2,0 175.5,0 "/>
<polygon class="st0" points="175.2,138.3 175.2,138.3 175.2,138.3 "/>
<rect x="109.7" y="30.1" class="st1" width="3.9" height="3.9"/>
<path class="st2" d="M24.4,82.7c0,0.4-0.3,0.6-0.6,0.6c-0.4,0-0.6-0.3-0.6-0.6c0-0.4,0.3-0.6,0.6-0.6C24.1,82,24.4,82.3,24.4,82.7
	C24.4,82.7,24.4,82.7,24.4,82.7z"/>
<path class="st2" d="M24.4,84.7c0,0.4-0.3,0.6-0.6,0.6c-0.4,0-0.6-0.3-0.6-0.6s0.3-0.6,0.6-0.6c0,0,0,0,0,0
	C24.1,84.1,24.4,84.4,24.4,84.7z"/>
<path class="st2" d="M24.4,86.8c0,0.4-0.3,0.6-0.6,0.6s-0.6-0.3-0.6-0.6s0.3-0.6,0.6-0.6c0,0,0,0,0,0C24.1,86.2,24.4,86.4,24.4,86.8
	z"/>
<path class="st2" d="M24.4,88.9c0,0.4-0.3,0.6-0.6,0.6s-0.6-0.3-0.6-0.6s0.3-0.6,0.6-0.6c0,0,0,0,0,0C24.1,88.2,24.4,88.5,24.4,88.9
	z"/>
<path class="st2" d="M29.6,82.7c0,0.4-0.3,0.6-0.6,0.6s-0.6-0.3-0.6-0.6c0-0.4,0.3-0.6,0.6-0.6C29.3,82,29.6,82.3,29.6,82.7
	C29.6,82.7,29.6,82.7,29.6,82.7z"/>
<path class="st2" d="M29.6,84.7c0,0.4-0.3,0.6-0.6,0.6c-0.4,0-0.6-0.3-0.6-0.6c0-0.4,0.3-0.6,0.6-0.6c0,0,0,0,0,0
	C29.3,84.1,29.6,84.4,29.6,84.7z"/>
<path class="st2" d="M29.6,86.8c0,0.4-0.3,0.6-0.6,0.6s-0.6-0.3-0.6-0.6c0-0.4,0.3-0.6,0.6-0.6c0,0,0,0,0,0
	C29.3,86.2,29.6,86.4,29.6,86.8z"/>
<path class="st2" d="M29.6,88.9c0,0.4-0.3,0.6-0.6,0.6s-0.6-0.3-0.6-0.6c0-0.4,0.3-0.6,0.6-0.6c0,0,0,0,0,0
	C29.3,88.2,29.6,88.5,29.6,88.9z"/>
<polygon points="26.3,89.5 27.6,89.5 27.6,82 26.3,82 25,82 25,89.5 "/>
<polygon points="26.3,89.5 27.6,89.5 27.6,82 26.3,82 25,82 25,89.5 "/>
<polygon points="26.3,89.5 27.6,89.5 27.6,82 26.3,82 25,82 25,89.5 "/>
<rect x="27.6" y="88.2" class="st3" width="1.3" height="1.3"/>
<rect x="27.6" y="86.2" class="st3" width="1.3" height="1.3"/>
<rect x="27.6" y="84.1" class="st3" width="1.3" height="1.3"/>
<rect x="27.6" y="82" class="st3" width="1.3" height="1.3"/>
<rect x="23.8" y="88.2" class="st3" width="1.3" height="1.3"/>
<rect x="23.8" y="86.2" class="st3" width="1.3" height="1.3"/>
<rect x="23.8" y="84.1" class="st3" width="1.3" height="1.3"/>
<rect x="23.8" y="82" class="st3" width="1.3" height="1.3"/>
<polygon class="st3" points="122.6,99.3 121.2,100.6 121.2,102.5 122.6,103.9 124.5,103.9 125.9,102.5 125.9,100.6 124.5,99.3 "/>
<polygon class="st3" points="129.2,99.3 127.8,100.6 127.8,102.5 129.2,103.9 131.1,103.9 132.4,102.5 132.4,100.6 131.1,99.3 "/>
<polygon class="st3" points="129.2,105.9 127.8,107.2 127.8,109.1 129.2,110.5 131.1,110.5 132.4,109.1 132.4,107.2 131.1,105.9 "/>
<polygon class="st3" points="122.6,105.9 121.2,107.2 121.2,109.1 122.6,110.5 124.5,110.5 125.9,109.1 125.9,107.2 124.5,105.9 "/>
<path class="st4" d="M122.3,101.6c0,0.7,0.6,1.2,1.2,1.2c0.7,0,1.2-0.6,1.2-1.2c0-0.7-0.6-1.2-1.2-1.2h0
	C122.9,100.3,122.3,100.9,122.3,101.6C122.3,101.6,122.3,101.6,122.3,101.6z"/>
<path class="st4" d="M128.9,101.6c0,0.7,0.6,1.2,1.2,1.2s1.2-0.6,1.2-1.2c0-0.7-0.6-1.2-1.2-1.2c0,0,0,0,0,0
	C129.5,100.3,128.9,100.9,128.9,101.6C128.9,101.6,128.9,101.6,128.9,101.6z"/>
<path class="st4" d="M128.9,108.2c0,0.7,0.6,1.2,1.2,1.2c0.7,0,1.2-0.6,1.2-1.2s-0.6-1.2-1.2-1.2c0,0,0,0,0,0
	C129.5,106.9,128.9,107.5,128.9,108.2z"/>
<path class="st4" d="M122.3,108.2c0,0.7,0.6,1.2,1.2,1.2c0.7,0,1.2-0.6,1.2-1.2c0-0.7-0.6-1.2-1.2-1.2c0,0,0,0,0,0
	C122.9,106.9,122.3,107.5,122.3,108.2z"/>
<path class="st5" d="M6.6,24.7c2.7,0,5-2.2,5-5c0-2.7-2.2-5-5-5c-2.7,0-5,2.2-5,5C1.7,22.5,3.9,24.7,6.6,24.7z"/>
<path class="st5" d="M139.2,136.7c2.7,0,5-2.2,5-5c0-2.7-2.2-5-5-5c-2.7,0-5,2.2-5,5c0,0,0,0,0,0
	C134.3,134.5,136.5,136.7,139.2,136.7z"/>
<path class="st5" d="M141.6,11.6c2.7,0,5-2.2,5-5s-2.2-5-5-5c-2.7,0-5,2.2-5,5c0,0,0,0,0,0C136.6,9.4,138.9,11.6,141.6,11.6z"/>
<path d="M138.1,23.7v-8h-8C134.5,15.7,138.1,19.3,138.1,23.7C138.1,23.7,138.1,23.7,138.1,23.7z"/>
<path d="M130.1,15.7h-8v8C122.1,19.3,125.6,15.7,130.1,15.7C130.1,15.7,130.1,15.7,130.1,15.7z"/>
<path class="st3" d="M110.4,31.8c0,0.7,0.6,1.3,1.3,1.3s1.3-0.6,1.3-1.3s-0.6-1.3-1.3-1.3C110.9,30.5,110.4,31,110.4,31.8z"/>
<circle class="st6" cx="111.7" cy="23.7" r="8"/>
<path d="M119.7,23.7v-8h-8C116.1,15.7,119.7,19.3,119.7,23.7C119.7,23.7,119.7,23.7,119.7,23.7z"/>
<path d="M111.7,15.7h-8v8C103.6,19.3,107.2,15.7,111.7,15.7C111.6,15.7,111.7,15.7,111.7,15.7z"/>
<path class="st3" d="M112.9,23.7c0,0.7-0.6,1.3-1.3,1.3c-0.7,0-1.3-0.6-1.3-1.3c0-0.7,0.6-1.3,1.3-1.3
	C112.4,22.4,112.9,23,112.9,23.7C112.9,23.7,112.9,23.7,112.9,23.7z"/>
<rect x="128.1" y="30.1" class="st1" width="3.9" height="3.9"/>
<path class="st3" d="M128.8,31.8c0,0.7,0.6,1.3,1.3,1.3s1.3-0.6,1.3-1.3c0-0.7-0.6-1.3-1.3-1.3C129.4,30.5,128.8,31,128.8,31.8z"/>
<circle class="st6" cx="130.1" cy="23.7" r="8"/>
<path class="st3" d="M131.4,23.7c0,0.7-0.6,1.3-1.3,1.3c-0.7,0-1.3-0.6-1.3-1.3c0-0.7,0.6-1.3,1.3-1.3
	C130.8,22.4,131.4,23,131.4,23.7C131.4,23.7,131.4,23.7,131.4,23.7z"/>
<rect x="164" y="71.5" class="st3" width="6.6" height="5.4"/>
<rect x="164" y="60.5" class="st3" width="6.6" height="5.4"/>
<polyline points="119.6,96.4 119.6,83.4 119.6,83.4 132.6,83.4 132.6,96.4 132.6,96.4 119.6,96.4 119.6,96.4 "/>
<polyline points="119.6,96.4 119.6,83.4 119.6,83.4 132.6,83.4 132.6,96.4 132.6,96.4 119.6,96.4 119.6,96.4 "/>
<polyline points="119.6,96.4 119.6,83.4 119.6,83.4 132.6,83.4 132.6,96.4 132.6,96.4 119.6,96.4 119.6,96.4 "/>
<rect x="130.2" y="82.5" class="st3" width="0.9" height="1.7"/>
<rect x="128.9" y="82.5" class="st3" width="0.9" height="1.7"/>
<rect x="127.6" y="82.5" class="st3" width="0.9" height="1.7"/>
<rect x="126.3" y="82.5" class="st3" width="0.9" height="1.7"/>
<rect x="125" y="82.5" class="st3" width="0.9" height="1.7"/>
<rect x="123.7" y="82.5" class="st3" width="0.9" height="1.7"/>
<rect x="122.5" y="82.5" class="st3" width="0.9" height="1.7"/>
<rect x="121.2" y="82.5" class="st3" width="0.9" height="1.7"/>
<rect x="118.8" y="94" class="st3" width="1.7" height="0.9"/>
<rect x="118.8" y="92.7" class="st3" width="1.7" height="0.9"/>
<rect x="118.8" y="91.4" class="st3" width="1.7" height="0.9"/>
<rect x="118.8" y="90.1" class="st3" width="1.7" height="0.9"/>
<rect x="118.8" y="88.8" class="st3" width="1.7" height="0.9"/>
<rect x="118.8" y="87.5" class="st3" width="1.7" height="0.9"/>
<rect x="118.8" y="86.2" class="st3" width="1.7" height="0.9"/>
<rect x="118.8" y="84.9" class="st3" width="1.7" height="0.9"/>
<rect x="131.7" y="94" class="st3" width="1.7" height="0.9"/>
<rect x="131.7" y="92.7" class="st3" width="1.7" height="0.9"/>
<rect x="131.7" y="91.4" class="st3" width="1.7" height="0.9"/>
<rect x="131.7" y="90.1" class="st3" width="1.7" height="0.9"/>
<rect x="131.7" y="88.8" class="st3" width="1.7" height="0.9"/>
<rect x="131.7" y="87.5" class="st3" width="1.7" height="0.9"/>
<rect x="131.7" y="86.2" class="st3" width="1.7" height="0.9"/>
<rect x="131.7" y="84.9" class="st3" width="1.7" height="0.9"/>
<rect x="130.2" y="95.5" class="st3" width="0.9" height="1.7"/>
<rect x="128.9" y="95.5" class="st3" width="0.9" height="1.7"/>
<rect x="127.6" y="95.5" class="st3" width="0.9" height="1.7"/>
<rect x="126.3" y="95.5" class="st3" width="0.9" height="1.7"/>
<rect x="125" y="95.5" class="st3" width="0.9" height="1.7"/>
<rect x="123.7" y="95.5" class="st3" width="0.9" height="1.7"/>
<rect x="122.5" y="95.5" class="st3" width="0.9" height="1.7"/>
<rect x="121.2" y="95.5" class="st3" width="0.9" height="1.7"/>
<path class="st3" d="M146.2,112.7c-0.7,0-1.3,0.6-1.3,1.3c0,0,0,0,0,0h2.6C147.5,113.3,146.9,112.7,146.2,112.7
	C146.2,112.7,146.2,112.7,146.2,112.7z"/>
<path class="st3" d="M146.2,125.3c0.7,0,1.3-0.6,1.3-1.3c0,0,0,0,0,0h-2.6C144.9,124.7,145.5,125.3,146.2,125.3
	C146.2,125.3,146.2,125.3,146.2,125.3z"/>
<path class="st3" d="M143.6,112.7c-0.7,0-1.3,0.6-1.3,1.3h2.6C144.9,113.3,144.3,112.7,143.6,112.7
	C143.6,112.7,143.6,112.7,143.6,112.7z"/>
<path class="st3" d="M143.6,125.3c0.7,0,1.3-0.6,1.3-1.3c0,0,0,0,0,0h-2.6C142.3,124.7,142.9,125.3,143.6,125.3z"/>
<polygon points="144.9,124 144.9,124 147.5,124 147.5,122.9 147.5,122.8 147.5,121.8 147.5,121.7 147.5,120.7 147.5,120.6 
	147.5,119.6 147.5,119.5 147.5,118.5 147.5,118.4 147.5,117.4 147.5,117.3 147.5,116.3 147.5,116.2 147.5,115.2 147.5,115.1 
	147.5,114 144.9,114 144.9,114 142.3,114 142.3,115.1 142.3,115.2 142.3,116.2 142.3,116.3 142.3,117.3 142.3,117.4 142.3,118.4 
	142.3,118.5 142.3,119.5 142.3,119.6 142.3,120.6 142.3,120.7 142.3,121.7 142.3,121.8 142.3,122.8 142.3,122.9 142.3,124 "/>
<polygon points="144.9,124 144.9,124 147.5,124 147.5,122.9 147.5,122.8 147.5,121.8 147.5,121.7 147.5,120.7 147.5,120.6 
	147.5,119.6 147.5,119.5 147.5,118.5 147.5,118.4 147.5,117.4 147.5,117.3 147.5,116.3 147.5,116.2 147.5,115.2 147.5,115.1 
	147.5,114 144.9,114 144.9,114 142.3,114 142.3,115.1 142.3,115.2 142.3,116.2 142.3,116.3 142.3,117.3 142.3,117.4 142.3,118.4 
	142.3,118.5 142.3,119.5 142.3,119.6 142.3,120.6 142.3,120.7 142.3,121.7 142.3,121.8 142.3,122.8 142.3,122.9 142.3,124 "/>
<polygon points="144.9,124 144.9,124 147.5,124 147.5,122.9 147.5,122.8 147.5,121.8 147.5,121.7 147.5,120.7 147.5,120.6 
	147.5,119.6 147.5,119.5 147.5,118.5 147.5,118.4 147.5,117.4 147.5,117.3 147.5,116.3 147.5,116.2 147.5,115.2 147.5,115.1 
	147.5,114 144.9,114 144.9,114 142.3,114 142.3,115.1 142.3,115.2 142.3,116.2 142.3,116.3 142.3,117.3 142.3,117.4 142.3,118.4 
	142.3,118.5 142.3,119.5 142.3,119.6 142.3,120.6 142.3,120.7 142.3,121.7 142.3,121.8 142.3,122.8 142.3,122.9 142.3,124 "/>
<rect x="118.1" y="36.8" width="4.9" height="7.5"/>
<rect x="118.1" y="36.8" width="4.9" height="7.5"/>
<rect x="118.1" y="36.8" width="4.9" height="7.5"/>
<rect x="122.3" y="42.3" class="st3" width="3.6" height="1.3"/>
<rect x="122.3" y="37.4" class="st3" width="3.6" height="1.3"/>
<rect x="122.3" y="39.9" class="st3" width="3.6" height="1.3"/>
<rect x="115.9" y="42.3" class="st3" width="3.6" height="1.3"/>
<rect x="115.9" y="37.4" class="st3" width="3.6" height="1.3"/>
<rect x="150.1" y="49.3" class="st3" width="1.3" height="3.4"/>
<rect x="150.1" y="43.3" class="st3" width="1.3" height="3.4"/>
<rect x="163.1" y="40.1" class="st3" width="1.3" height="9.8"/>
<rect x="164.4" y="40.1" class="st4" width="1.3" height="9.8"/>
<rect x="165.7" y="40.1" class="st3" width="1.3" height="9.8"/>
<rect x="150.1" y="37.4" class="st3" width="1.3" height="3.4"/>
<rect x="148.8" y="49.3" class="st7" width="1.3" height="3.4"/>
<rect x="148.8" y="43.3" class="st7" width="1.3" height="3.4"/>
<rect x="148.8" y="37.4" class="st7" width="1.3" height="3.4"/>
<rect x="147.5" y="49.3" class="st3" width="1.3" height="3.4"/>
<rect x="147.5" y="43.3" class="st3" width="1.3" height="3.4"/>
<rect x="147.5" y="37.4" class="st3" width="1.3" height="3.4"/>
<rect x="121.9" y="48.5" width="8.4" height="8.4"/>
<rect x="121.9" y="48.5" width="8.4" height="8.4"/>
<rect x="121.9" y="48.5" width="8.4" height="8.4"/>
<rect x="118.9" y="51.5" class="st3" width="3.8" height="0.9"/>
<rect x="118.9" y="53.2" class="st3" width="3.8" height="0.9"/>
<rect x="118.9" y="54.9" class="st3" width="3.8" height="0.9"/>
<rect x="118.9" y="49.8" class="st3" width="3.8" height="0.9"/>
<rect x="129.5" y="53.2" class="st3" width="3.8" height="0.9"/>
<rect x="129.5" y="51.5" class="st3" width="3.8" height="0.9"/>
<rect x="129.5" y="49.8" class="st3" width="3.8" height="0.9"/>
<rect x="129.5" y="54.9" class="st3" width="3.8" height="0.9"/>
<path class="st6" d="M133.7,55.3c0-0.2-0.2-0.4-0.4-0.4c-0.2,0-0.4,0.2-0.4,0.4c0,0.2,0.2,0.4,0.4,0.4c0,0,0,0,0,0
	C133.5,55.7,133.7,55.5,133.7,55.3z"/>
<path class="st6" d="M133.7,53.6c0-0.2-0.2-0.4-0.4-0.4c-0.2,0-0.4,0.2-0.4,0.4c0,0.2,0.2,0.4,0.4,0.4c0,0,0,0,0,0
	C133.5,54,133.7,53.8,133.7,53.6z"/>
<path class="st6" d="M133.7,51.9c0-0.2-0.2-0.4-0.4-0.4c-0.2,0-0.4,0.2-0.4,0.4c0,0.2,0.2,0.4,0.4,0.4h0
	C133.5,52.3,133.7,52.1,133.7,51.9C133.7,51.9,133.7,51.9,133.7,51.9z"/>
<path class="st6" d="M133.7,50.2c0-0.2-0.2-0.4-0.4-0.4c-0.2,0-0.4,0.2-0.4,0.4c0,0.2,0.2,0.4,0.4,0.4
	C133.5,50.6,133.7,50.5,133.7,50.2C133.7,50.2,133.7,50.2,133.7,50.2z"/>
<path class="st6" d="M119.3,55.3c0-0.2-0.2-0.4-0.4-0.4c-0.2,0-0.4,0.2-0.4,0.4c0,0.2,0.2,0.4,0.4,0.4c0,0,0,0,0,0
	C119.2,55.7,119.3,55.5,119.3,55.3z"/>
<path class="st6" d="M119.3,53.6c0-0.2-0.2-0.4-0.4-0.4c-0.2,0-0.4,0.2-0.4,0.4c0,0.2,0.2,0.4,0.4,0.4c0,0,0,0,0,0
	C119.2,54,119.3,53.8,119.3,53.6z"/>
<path class="st6" d="M119.3,51.9c0-0.2-0.2-0.4-0.4-0.4c-0.2,0-0.4,0.2-0.4,0.4c0,0.2,0.2,0.4,0.4,0.4c0,0,0,0,0,0
	C119.2,52.3,119.3,52.1,119.3,51.9C119.3,51.9,119.3,51.9,119.3,51.9z"/>
<path class="st6" d="M119.3,50.2c0-0.2-0.2-0.4-0.4-0.4c-0.2,0-0.4,0.2-0.4,0.4c0,0.2,0.2,0.4,0.4,0.4l0,0
	C119.2,50.6,119.3,50.5,119.3,50.2C119.3,50.2,119.3,50.2,119.3,50.2z"/>
<rect x="153.9" y="65.1" class="st8" width="4.2" height="7.2"/>
<rect x="151.3" y="69.8" class="st6" width="2.6" height="2.6"/>
<rect x="158" y="67.5" class="st6" width="2.6" height="2.6"/>
<rect x="151.3" y="65.1" class="st6" width="2.6" height="2.6"/>
<rect x="153.2" y="70.4" class="st3" width="1.3" height="1.3"/>
<rect x="153.2" y="65.8" class="st3" width="1.3" height="1.3"/>
<rect x="157.4" y="68.1" class="st3" width="1.3" height="1.3"/>
<rect x="72.8" y="63.7" class="st3" width="2.7" height="5.4"/>
<rect x="66.1" y="63.7" class="st3" width="2.7" height="5.4"/>
<path class="st8" d="M68.4,64.3c-0.6,0-1,0.5-1,1v2.1c0,0.6,0.5,1,1,1h0.3v-4.2H68.4z"/>
<path class="st8" d="M73.1,68.4c0.6,0,1-0.5,1-1v-2.1c0-0.6-0.5-1-1-1h-0.3v4.2H73.1z"/>
<rect x="146.2" y="75.9" class="st3" width="3.1" height="3.1"/>
<rect x="140.5" y="75.9" class="st3" width="3.1" height="3.1"/>
<polygon class="st8" points="147.2,78.9 148.7,77.4 147.2,75.9 147.2,75.9 146.2,75.9 146.2,78.9 "/>
<polygon class="st8" points="142.6,75.9 141.1,77.4 142.6,78.9 142.6,78.9 143.6,78.9 143.6,75.9 "/>
<rect x="143.6" y="75.9" width="2.6" height="3.1"/>
<rect x="143.6" y="75.9" width="2.6" height="3.1"/>
<rect x="143.6" y="75.9" width="2.6" height="3.1"/>
<rect x="146.2" y="84.4" class="st3" width="3.1" height="3.1"/>
<rect x="140.5" y="84.4" class="st3" width="3.1" height="3.1"/>
<rect x="143.6" y="84.4" width="2.6" height="3.1"/>
<rect x="143.6" y="84.4" width="2.6" height="3.1"/>
<rect x="143.6" y="84.4" width="2.6" height="3.1"/>
<polygon class="st8" points="147.2,87.5 148.7,86 147.2,84.4 147.2,84.4 146.2,84.4 146.2,87.5 "/>
<polygon class="st8" points="142.6,84.4 141.1,86 142.6,87.5 142.6,87.5 143.6,87.5 143.6,84.4 "/>
<rect x="145.3" y="100.5" class="st3" width="3.1" height="3.1"/>
<rect x="141.5" y="100.5" class="st3" width="3.1" height="3.1"/>
<path class="st8" d="M145,103.4h1.3v0c0.7,0,1.3-0.6,1.2-1.3c0-0.7-0.6-1.2-1.2-1.2v0h-1.3L145,103.4L145,103.4z"/>
<path class="st8" d="M143.6,100.8c-0.7,0-1.3,0.6-1.3,1.3c0,0.7,0.6,1.3,1.3,1.3v0h1.3v-2.6H143.6z"/>
<rect x="143.6" y="100.8" width="2.6" height="2.6"/>
<rect x="143.6" y="100.8" width="2.6" height="2.6"/>
<rect x="143.6" y="100.8" width="2.6" height="2.6"/>
<rect x="145.3" y="107.1" class="st3" width="3.1" height="3.1"/>
<rect x="141.5" y="107.1" class="st3" width="3.1" height="3.1"/>
<path class="st8" d="M145,109.9h1.3v0c0.7,0,1.3-0.6,1.2-1.3c0-0.7-0.6-1.2-1.2-1.2v0h-1.3L145,109.9L145,109.9z"/>
<path class="st8" d="M143.6,107.3c-0.7,0-1.3,0.6-1.3,1.3c0,0.7,0.6,1.3,1.3,1.3c0,0,0,0,0,0v0h1.3v-2.6H143.6z"/>
<rect x="143.6" y="107.3" width="2.6" height="2.6"/>
<rect x="143.6" y="107.3" width="2.6" height="2.6"/>
<rect x="143.6" y="107.3" width="2.6" height="2.6"/>
<rect x="159.9" y="115.8" class="st3" width="3.1" height="3.1"/>
<rect x="154.2" y="115.8" class="st3" width="3.1" height="3.1"/>
<polygon class="st8" points="160.9,118.9 162.4,117.4 160.9,115.8 160.9,115.8 159.9,115.8 159.9,118.9 "/>
<polygon class="st8" points="156.3,115.8 154.8,117.4 156.3,118.9 156.3,118.9 157.3,118.9 157.3,115.8 "/>
<rect x="157.3" y="115.8" width="2.6" height="3.1"/>
<rect x="157.3" y="115.8" width="2.6" height="3.1"/>
<rect x="157.3" y="115.8" width="2.6" height="3.1"/>
<rect x="105.7" y="116" class="st3" width="3.1" height="3.1"/>
<rect x="101.8" y="116" class="st3" width="3.1" height="3.1"/>
<path class="st8" d="M105.3,118.8h1.3v0c0.7,0,1.3-0.6,1.2-1.3c0-0.7-0.6-1.2-1.2-1.2v0h-1.3L105.3,118.8L105.3,118.8z"/>
<path class="st8" d="M104,116.2c-0.7,0-1.3,0.6-1.3,1.3c0,0.7,0.6,1.3,1.3,1.3v0h1.3v-2.6C105.3,116.2,104,116.2,104,116.2z"/>
<rect x="104" y="116.2" width="2.6" height="2.6"/>
<rect x="104" y="116.2" width="2.6" height="2.6"/>
<rect x="104" y="116.2" width="2.6" height="2.6"/>
<rect x="106.1" y="75.8" class="st3" width="3.1" height="3.1"/>
<rect x="101.6" y="75.8" class="st3" width="3.1" height="3.1"/>
<path class="st8" d="M105.5,78.7h1.3v0c0.7,0,1.3-0.6,1.2-1.3c0-0.7-0.6-1.2-1.2-1.2v0h-1.3L105.5,78.7L105.5,78.7z"/>
<path class="st8" d="M104.1,76.1c-0.7,0-1.3,0.6-1.3,1.3c0,0.7,0.6,1.3,1.3,1.3c0,0,0,0,0,0v0h1.3v-2.6H104.1z"/>
<rect x="104.1" y="76.1" width="2.6" height="2.6"/>
<rect x="104.1" y="76.1" width="2.6" height="2.6"/>
<rect x="104.1" y="76.1" width="2.6" height="2.6"/>
<rect x="71.2" y="58.2" class="st3" width="3.1" height="3.1"/>
<rect x="67.3" y="58.2" class="st3" width="3.1" height="3.1"/>
<path class="st8" d="M70.8,61.1h1.3v0c0.7,0,1.3-0.6,1.2-1.3c0-0.7-0.6-1.2-1.2-1.2v0h-1.3L70.8,61.1L70.8,61.1z"/>
<path class="st8" d="M69.5,58.5c-0.7,0-1.3,0.6-1.3,1.3c0,0.7,0.6,1.3,1.3,1.3v0h1.3v-2.6H69.5z"/>
<rect x="69.5" y="58.5" width="2.6" height="2.6"/>
<rect x="69.5" y="58.5" width="2.6" height="2.6"/>
<rect x="69.5" y="58.5" width="2.6" height="2.6"/>
<rect x="110.1" y="37.1" class="st3" width="3.1" height="3.1"/>
<rect x="110.1" y="40.9" class="st3" width="3.1" height="3.1"/>
<path class="st8" d="M112.9,40.5v-1.3h0c0-0.7-0.6-1.3-1.3-1.2c-0.7,0-1.2,0.6-1.2,1.2h0v1.3L112.9,40.5L112.9,40.5z"/>
<path class="st8" d="M110.3,41.8c0,0.7,0.6,1.3,1.3,1.3s1.3-0.6,1.3-1.3l0,0h0v-1.3h-2.6L110.3,41.8L110.3,41.8z"/>
<rect x="110.3" y="39.2" width="2.6" height="2.6"/>
<rect x="110.3" y="39.2" width="2.6" height="2.6"/>
<rect x="110.3" y="39.2" width="2.6" height="2.6"/>
<rect x="128.5" y="37.1" class="st3" width="3.1" height="3.1"/>
<rect x="128.5" y="40.9" class="st3" width="3.1" height="3.1"/>
<path class="st8" d="M131.4,40.5v-1.3h0c0-0.7-0.6-1.3-1.3-1.2c-0.7,0-1.2,0.6-1.2,1.2h0v1.3L131.4,40.5L131.4,40.5z"/>
<path class="st8" d="M128.8,41.8c0,0.7,0.6,1.3,1.3,1.3s1.3-0.6,1.3-1.3l0,0h0v-1.3h-2.6L128.8,41.8L128.8,41.8z"/>
<rect x="128.8" y="39.2" width="2.6" height="2.6"/>
<rect x="128.8" y="39.2" width="2.6" height="2.6"/>
<rect x="128.8" y="39.2" width="2.6" height="2.6"/>
<rect x="105.8" y="81.1" class="st3" width="3.1" height="3.1"/>
<rect x="101.9" y="81.1" class="st3" width="3.1" height="3.1"/>
<path class="st8" d="M105.5,84h1.3v0c0.7,0,1.3-0.6,1.2-1.3c0-0.7-0.6-1.2-1.2-1.2v0h-1.3L105.5,84L105.5,84z"/>
<path class="st8" d="M104.1,81.4c-0.7,0-1.3,0.6-1.3,1.3c0,0.7,0.6,1.3,1.3,1.3c0,0,0,0,0,0v0h1.3v-2.6H104.1z"/>
<rect x="104.1" y="81.4" width="2.6" height="2.6"/>
<rect x="104.1" y="81.4" width="2.6" height="2.6"/>
<rect x="104.1" y="81.4" width="2.6" height="2.6"/>
<polygon points="122.3,125.3 124.8,125.3 126.6,123.5 127.1,123.5 128.9,125.3 131.4,125.3 133.2,123.5 133.7,123.5 135.5,125.3 
	138,125.3 139.8,123.5 139.8,121 139.8,116.9 139.8,114.4 138,112.6 135.5,112.6 133.7,114.4 133.2,114.4 131.4,112.6 128.9,112.6 
	127.1,114.4 126.6,114.4 124.8,112.6 122.3,112.6 120.5,114.4 120.5,116.9 120.5,121 120.5,123.5 "/>
<path class="st3" d="M124.7,115.7c0,0.6-0.5,1.1-1.1,1.1c-0.6,0-1.1-0.5-1.1-1.1c0-0.6,0.5-1.1,1.1-1.1
	C124.2,114.5,124.7,115,124.7,115.7C124.7,115.7,124.7,115.7,124.7,115.7z"/>
<path class="st3" d="M137.8,122.2c0,0.6-0.5,1.1-1.1,1.1c-0.6,0-1.1-0.5-1.1-1.1c0-0.6,0.5-1.1,1.1-1.1c0,0,0,0,0,0
	C137.3,121.1,137.8,121.6,137.8,122.2z"/>
<path class="st3" d="M131.3,122.2c0,0.6-0.5,1.1-1.1,1.1c-0.6,0-1.1-0.5-1.1-1.1c0-0.6,0.5-1.1,1.1-1.1
	C130.8,121.1,131.3,121.6,131.3,122.2z"/>
<path class="st3" d="M124.7,122.2c0,0.6-0.5,1.1-1.1,1.1c-0.6,0-1.1-0.5-1.1-1.1c0-0.6,0.5-1.1,1.1-1.1
	C124.2,121.1,124.7,121.6,124.7,122.2z"/>
<path class="st3" d="M137.8,115.7c0,0.6-0.5,1.1-1.1,1.1c-0.6,0-1.1-0.5-1.1-1.1c0-0.6,0.5-1.1,1.1-1.1c0,0,0,0,0,0
	C137.3,114.5,137.8,115,137.8,115.7C137.8,115.7,137.8,115.7,137.8,115.7z"/>
<path class="st3" d="M131.3,115.7c0,0.6-0.5,1.1-1.1,1.1c-0.6,0-1.1-0.5-1.1-1.1c0-0.6,0.5-1.1,1.1-1.1
	C130.8,114.5,131.3,115,131.3,115.7C131.3,115.7,131.3,115.7,131.3,115.7z"/>
<rect x="91.7" y="30.2" class="st3" width="4.4" height="2.5"/>
<rect x="98.8" y="30.2" class="st3" width="3.5" height="2.5"/>
<rect x="85.1" y="30.2" class="st3" width="4.4" height="2.5"/>
<rect x="78.5" y="30.2" class="st3" width="4.4" height="2.5"/>
<rect x="71.9" y="30.2" class="st3" width="4.4" height="2.5"/>
<rect x="65.3" y="30.2" class="st3" width="4.4" height="2.5"/>
<rect x="58.7" y="30.2" class="st3" width="4.4" height="2.5"/>
<rect x="52.2" y="30.2" class="st3" width="4.4" height="2.5"/>
<rect x="45.6" y="30.2" class="st3" width="4.4" height="2.5"/>
<rect x="39" y="30.2" class="st3" width="4.4" height="2.5"/>
<rect x="32.4" y="30.2" class="st3" width="4.4" height="2.5"/>
<rect x="25.8" y="30.2" class="st3" width="4.4" height="2.5"/>
<rect x="19.2" y="30.2" class="st3" width="4.4" height="2.5"/>
<rect x="13" y="30.2" class="st3" width="3.5" height="2.5"/>
<rect x="91.7" y="52.3" class="st3" width="4.4" height="2.6"/>
<rect x="98.8" y="52.3" class="st3" width="3.5" height="2.6"/>
<rect x="85.1" y="52.3" class="st3" width="4.4" height="2.6"/>
<rect x="78.5" y="52.3" class="st3" width="4.4" height="2.6"/>
<rect x="71.9" y="52.3" class="st3" width="4.4" height="2.6"/>
<rect x="65.3" y="52.3" class="st3" width="4.4" height="2.6"/>
<rect x="58.7" y="52.3" class="st3" width="4.4" height="2.6"/>
<rect x="52.2" y="52.3" class="st3" width="4.4" height="2.6"/>
<rect x="45.6" y="52.3" class="st3" width="4.4" height="2.6"/>
<rect x="39" y="52.3" class="st3" width="4.4" height="2.6"/>
<rect x="32.4" y="52.3" class="st3" width="4.4" height="2.6"/>
<rect x="25.8" y="52.3" class="st3" width="4.4" height="2.6"/>
<rect x="19.2" y="52.3" class="st3" width="4.4" height="2.6"/>
<rect x="13" y="52.3" class="st3" width="3.5" height="2.6"/>
<rect x="91.7" y="52.3" class="st8" width="4.4" height="1.3"/>
<rect x="98.8" y="52.3" class="st8" width="3.5" height="1.3"/>
<rect x="85.1" y="52.3" class="st8" width="4.4" height="1.3"/>
<rect x="78.5" y="52.3" class="st8" width="4.4" height="1.3"/>
<rect x="71.9" y="52.3" class="st8" width="4.4" height="1.3"/>
<rect x="65.3" y="52.3" class="st8" width="4.4" height="1.3"/>
<rect x="58.7" y="52.3" class="st8" width="4.4" height="1.3"/>
<rect x="52.2" y="52.3" class="st8" width="4.4" height="1.3"/>
<rect x="45.6" y="52.3" class="st8" width="4.4" height="1.3"/>
<rect x="39" y="52.3" class="st8" width="4.4" height="1.3"/>
<rect x="32.4" y="52.3" class="st8" width="4.4" height="1.3"/>
<rect x="25.8" y="52.3" class="st8" width="4.4" height="1.3"/>
<rect x="19.2" y="52.3" class="st8" width="4.4" height="1.3"/>
<rect x="13" y="52.3" class="st8" width="3.5" height="1.3"/>
<rect x="91.7" y="31.4" class="st8" width="4.4" height="1.3"/>
<rect x="98.8" y="31.4" class="st8" width="3.5" height="1.3"/>
<rect x="85.1" y="31.4" class="st8" width="4.4" height="1.3"/>
<rect x="78.5" y="31.4" class="st8" width="4.4" height="1.3"/>
<rect x="71.9" y="31.4" class="st8" width="4.4" height="1.3"/>
<rect x="65.3" y="31.4" class="st8" width="4.4" height="1.3"/>
<rect x="58.7" y="31.4" class="st8" width="4.4" height="1.3"/>
<rect x="52.2" y="31.4" class="st8" width="4.4" height="1.3"/>
<rect x="45.6" y="31.4" class="st8" width="4.4" height="1.3"/>
<rect x="39" y="31.4" class="st8" width="4.4" height="1.3"/>
<rect x="32.4" y="31.4" class="st8" width="4.4" height="1.3"/>
<rect x="25.8" y="31.4" class="st8" width="4.4" height="1.3"/>
<rect x="19.2" y="31.4" class="st8" width="4.4" height="1.3"/>
<rect x="13" y="31.4" class="st8" width="3.5" height="1.3"/>
<rect x="135.6" y="75.8" class="st3" width="3.1" height="3.1"/>
<rect x="131.8" y="75.8" class="st3" width="3.1" height="3.1"/>
<path class="st8" d="M135.3,78.7h1.3v0c0.7,0,1.3-0.6,1.2-1.3c0-0.7-0.6-1.2-1.2-1.2v0h-1.3L135.3,78.7L135.3,78.7z"/>
<path class="st8" d="M133.9,76.1c-0.7,0-1.3,0.6-1.3,1.3c0,0.7,0.6,1.3,1.3,1.3c0,0,0,0,0,0v0h1.3v-2.6H133.9z"/>
<rect x="126.5" y="75.8" class="st3" width="3.1" height="3.1"/>
<rect x="122.6" y="75.8" class="st3" width="3.1" height="3.1"/>
<path class="st8" d="M126.2,78.7h1.3v0c0.7,0,1.3-0.6,1.2-1.3c0-0.7-0.6-1.2-1.2-1.2v0h-1.3L126.2,78.7L126.2,78.7z"/>
<path class="st8" d="M124.8,76.1c-0.7,0-1.3,0.6-1.3,1.3c0,0.7,0.6,1.3,1.3,1.3v0h1.3v-2.6H124.8z"/>
<rect x="117.4" y="75.8" class="st3" width="3.1" height="3.1"/>
<rect x="113.5" y="75.8" class="st3" width="3.1" height="3.1"/>
<path class="st8" d="M117,78.7h1.3v0c0.7,0,1.3-0.6,1.2-1.3c0-0.7-0.6-1.2-1.2-1.2v0H117L117,78.7L117,78.7z"/>
<path class="st8" d="M115.7,76.1c-0.7,0-1.3,0.6-1.3,1.3c0,0.7,0.6,1.3,1.3,1.3v0h1.3v-2.6H115.7z"/>
<path class="st3" d="M128.3,8.6c0,0.7,0.6,1.3,1.3,1.3c0.7,0,1.3-0.6,1.3-1.3c0-0.7-0.6-1.3-1.3-1.3C128.9,7.3,128.3,7.9,128.3,8.6z
	"/>
<path class="st3" d="M112.8,8.6c0,0.7,0.6,1.3,1.3,1.3c0.7,0,1.3-0.6,1.3-1.3c0-0.7-0.6-1.3-1.3-1.3C113.4,7.3,112.8,7.9,112.8,8.6z
	"/>
<path class="st3" d="M128.3,4.7c0,0.7,0.6,1.3,1.3,1.3s1.3-0.6,1.3-1.3c0-0.7-0.6-1.3-1.3-1.3C128.9,3.4,128.3,4,128.3,4.7z"/>
<path class="st3" d="M112.8,4.7c0,0.7,0.6,1.3,1.3,1.3s1.3-0.6,1.3-1.3c0-0.7-0.6-1.3-1.3-1.3C113.4,3.4,112.8,4,112.8,4.7z"/>
<path class="st5" d="M121.1,6.7c0,0.4,0.4,0.8,0.8,0.8c0.4,0,0.8-0.4,0.8-0.8c0-0.4-0.4-0.8-0.8-0.8l0,0
	C121.4,5.9,121.1,6.3,121.1,6.7z"/>
<polygon points="115.2,9.9 115.3,9.9 116.3,9.9 116.4,9.9 117.4,9.9 117.5,9.9 118.5,9.9 118.6,9.9 119.6,9.9 119.7,9.9 120.7,9.9 
	120.8,9.9 121.8,9.9 121.9,9.9 122.9,9.9 123,9.9 124,9.9 124.1,9.9 125.1,9.9 125.2,9.9 126.2,9.9 126.3,9.9 127.3,9.9 127.4,9.9 
	128.4,9.9 128.5,9.9 129.6,9.9 129.6,3.4 128.5,3.4 128.4,3.4 127.4,3.4 127.3,3.4 126.3,3.4 126.2,3.4 125.2,3.4 125.1,3.4 
	124.1,3.4 124,3.4 123,3.4 122.9,3.4 121.9,3.4 121.8,3.4 120.8,3.4 120.7,3.4 119.7,3.4 119.6,3.4 118.6,3.4 118.5,3.4 117.5,3.4 
	117.4,3.4 116.4,3.4 116.3,3.4 115.3,3.4 115.2,3.4 114.1,3.4 114.1,9.9 "/>
<rect x="56" y="128.4" width="6.6" height="6.6"/>
<rect x="119.2" y="128.4" width="6.6" height="6.6"/>
<path d="M119.2,135v-6.6h-6.6v6.6H119.2z"/>
<path d="M112.6,135v-6.6H106v6.6H112.6z"/>
<path d="M106,135v-6.6h-6.6v6.6H106z"/>
<path d="M132.4,135v-6.6h-6.6v6.6H132.4z"/>
<path d="M92.9,135v-6.6h-6.6v6.6H92.9z"/>
<path d="M99.5,135v-6.6h-6.6v6.6H99.5z"/>
<path d="M86.3,135v-6.6h-6.6v6.6H86.3z"/>
<path d="M73.2,135v-6.6h-6.6v6.6H73.2z"/>
<path d="M79.7,135v-6.6h-6.6v6.6H79.7z"/>
<path d="M49.4,135v-6.6h-6.6v6.6H49.4z"/>
<path d="M56,135v-6.6h-6.6v6.6H56z"/>
<path d="M36.2,128.4v6.6h6.6v-6.6"/>
<path d="M29.7,135v-6.6h-6.6v6.6H29.7z"/>
<path d="M16.5,135v-6.6H9.9v6.6H16.5z"/>
<path d="M36.3,135v-6.6h-6.6v6.6H36.3z"/>
<rect x="16.5" y="128.4" width="6.6" height="6.6"/>
<rect x="56" y="128.4" width="6.6" height="6.6"/>
<rect x="119.2" y="128.4" width="6.6" height="6.6"/>
<path d="M119.2,135v-6.6h-6.6v6.6H119.2z"/>
<path d="M112.6,135v-6.6H106v6.6H112.6z"/>
<path d="M106,135v-6.6h-6.6v6.6H106z"/>
<path d="M132.4,135v-6.6h-6.6v6.6H132.4z"/>
<path d="M92.9,135v-6.6h-6.6v6.6H92.9z"/>
<path d="M99.5,135v-6.6h-6.6v6.6H99.5z"/>
<path d="M86.3,135v-6.6h-6.6v6.6H86.3z"/>
<path d="M73.2,135v-6.6h-6.6v6.6H73.2z"/>
<path d="M79.7,135v-6.6h-6.6v6.6H79.7z"/>
<path d="M49.4,135v-6.6h-6.6v6.6H49.4z"/>
<path d="M56,135v-6.6h-6.6v6.6H56z"/>
<path d="M36.2,128.4v6.6h6.6v-6.6"/>
<path d="M29.7,135v-6.6h-6.6v6.6H29.7z"/>
<path d="M16.5,135v-6.6H9.9v6.6H16.5z"/>
<path d="M36.3,135v-6.6h-6.6v6.6H36.3z"/>
<rect x="16.5" y="128.4" width="6.6" height="6.6"/>
<rect x="56" y="128.4" width="6.6" height="6.6"/>
<rect x="119.2" y="128.4" width="6.6" height="6.6"/>
<path d="M119.2,135v-6.6h-6.6v6.6H119.2z"/>
<path d="M112.6,135v-6.6H106v6.6H112.6z"/>
<path d="M106,135v-6.6h-6.6v6.6H106z"/>
<path d="M132.4,135v-6.6h-6.6v6.6H132.4z"/>
<path d="M92.9,135v-6.6h-6.6v6.6H92.9z"/>
<path d="M99.5,135v-6.6h-6.6v6.6H99.5z"/>
<path d="M86.3,135v-6.6h-6.6v6.6H86.3z"/>
<path d="M73.2,135v-6.6h-6.6v6.6H73.2z"/>
<path d="M79.7,135v-6.6h-6.6v6.6H79.7z"/>
<path d="M49.4,135v-6.6h-6.6v6.6H49.4z"/>
<path d="M56,135v-6.6h-6.6v6.6H56z"/>
<path d="M36.2,128.4v6.6h6.6v-6.6"/>
<path d="M29.7,135v-6.6h-6.6v6.6H29.7z"/>
<path d="M16.5,135v-6.6H9.9v6.6H16.5z"/>
<path d="M36.3,135v-6.6h-6.6v6.6H36.3z"/>
<rect x="16.5" y="128.4" width="6.6" height="6.6"/>
<rect x="164" y="76.8" class="st6" width="6.6" height="1.3"/>
<rect x="164" y="59.2" class="st6" width="6.6" height="1.3"/>
<path class="st6" d="M166.3,75c0-0.5,0.4-0.9,0.9-0.9c0.5,0,0.9,0.4,0.9,0.9c0,0.5-0.4,0.9-0.9,0.9c0,0,0,0,0,0
	C166.7,76,166.3,75.6,166.3,75z"/>
<path class="st6" d="M166.3,62.7c0-0.5,0.4-0.9,0.9-0.9c0.5,0,0.9,0.4,0.9,0.9c0,0.5-0.4,0.9-0.9,0.9c0,0,0,0,0,0
	C166.7,63.6,166.3,63.2,166.3,62.7C166.3,62.7,166.3,62.7,166.3,62.7z"/>
<path class="st8" d="M164.1,75.1h2.2c0-0.5,0.4-0.9,1-0.9c0.5,0,0.9,0.4,0.9,0.9h3.2V62.7h-3.2c0,0.5-0.4,0.9-0.9,0.9
	s-0.9-0.4-0.9-0.9h-3.1v12.4H164.1z"/>
<polygon points="15.9,80.3 15.9,77.8 14.1,76 14.1,75.5 15.9,73.7 15.9,71.2 14.1,69.4 14.1,68.9 15.9,67.1 15.9,64.6 14.1,62.8 
	11.6,62.8 7.5,62.8 5,62.8 3.2,64.6 3.2,67.1 5,68.9 5,69.4 3.2,71.2 3.2,73.7 5,75.5 5,76 3.2,77.8 3.2,80.3 5,82.1 7.5,82.1 
	11.6,82.1 14.1,82.1 "/>
<path class="st3" d="M6.2,77.9c0.6,0,1.1,0.5,1.1,1.1c0,0.6-0.5,1.1-1.1,1.1c-0.6,0-1.1-0.5-1.1-1.1c0,0,0,0,0,0
	C5.1,78.4,5.6,77.9,6.2,77.9z"/>
<path class="st3" d="M12.8,64.7c0.6,0,1.1,0.5,1.1,1.1S13.4,67,12.8,67s-1.1-0.5-1.1-1.1c0,0,0,0,0,0C11.7,65.2,12.2,64.7,12.8,64.7
	C12.8,64.7,12.8,64.7,12.8,64.7z"/>
<path class="st3" d="M12.8,71.3c0.6,0,1.1,0.5,1.1,1.1c0,0.6-0.5,1.1-1.1,1.1c-0.6,0-1.1-0.5-1.1-1.1c0,0,0,0,0,0
	C11.7,71.8,12.2,71.3,12.8,71.3C12.8,71.3,12.8,71.3,12.8,71.3z"/>
<path class="st3" d="M12.8,77.9c0.6,0,1.1,0.5,1.1,1.1c0,0.6-0.5,1.1-1.1,1.1c-0.6,0-1.1-0.5-1.1-1.1c0,0,0,0,0,0
	C11.7,78.4,12.2,77.9,12.8,77.9C12.8,77.9,12.8,77.9,12.8,77.9z"/>
<path class="st3" d="M6.2,64.7c0.6,0,1.1,0.5,1.1,1.1S6.9,67,6.2,67s-1.1-0.5-1.1-1.1c0,0,0,0,0,0C5.1,65.2,5.6,64.7,6.2,64.7z"/>
<path class="st3" d="M6.2,71.3c0.6,0,1.1,0.5,1.1,1.1c0,0.6-0.5,1.1-1.1,1.1c-0.6,0-1.1-0.5-1.1-1.1c0,0,0,0,0,0
	C5.1,71.8,5.6,71.3,6.2,71.3z"/>
<rect x="154.5" y="84.4" class="st9" width="39.5" height="29.7"/>
<polygon class="st9" points="192.4,114.1 194,114.1 194,114 194,84.5 194,84.4 192.4,84.4 192.4,84.5 192.4,84.5 "/>
<polygon class="st9" points="189.1,114.1 190.7,114.1 190.7,114 190.7,84.5 190.7,84.4 189.1,84.4 189.1,84.5 189.1,84.5 "/>
<polygon class="st3" points="185.8,114.1 187.4,114.1 187.4,114 187.4,84.5 187.4,84.4 185.8,84.4 185.8,84.5 185.8,84.5 "/>
<polygon class="st3" points="182.5,114.1 184.1,114.1 184.1,114 184.1,84.5 184.1,84.4 182.5,84.4 182.5,84.5 182.5,84.5 "/>
<polygon class="st3" points="179.2,114.1 180.8,114.1 180.8,114 180.8,84.5 180.8,84.4 179.2,84.4 179.2,84.5 179.2,84.5 "/>
<polygon class="st3" points="175.9,114.1 177.5,114.1 177.5,114 177.5,84.5 177.5,84.4 175.9,84.4 175.9,84.5 175.9,84.5 "/>
<polygon class="st3" points="172.6,114.1 174.2,114.1 174.2,114 174.2,84.5 174.2,84.4 172.6,84.4 172.6,84.5 172.6,84.5 "/>
<polygon class="st3" points="169.3,114.1 170.9,114.1 170.9,114 170.9,84.5 170.9,84.4 169.3,84.4 169.3,84.5 169.3,84.5 "/>
<polygon class="st3" points="166,114.1 167.7,114.1 167.7,114 167.7,84.5 167.7,84.4 166,84.4 166,84.5 166,84.5 "/>
<polygon class="st3" points="162.7,114.1 164.4,114.1 164.4,114 164.4,84.5 164.4,84.4 162.7,84.4 162.7,84.5 162.7,84.5 "/>
<polygon class="st3" points="159.4,114.1 161.1,114.1 161.1,114 161.1,84.5 161.1,84.4 159.4,84.4 159.4,84.5 159.4,84.5 "/>
<polygon class="st9" points="156.1,114.1 157.8,114.1 157.8,114 157.8,84.5 157.8,84.4 156.1,84.4 156.1,84.5 156.1,84.5 "/>
<path d="M12.7,42.4c0,0.8-0.7,1.5-1.5,1.5c0,0,0,0,0,0v8.4h93.2V32.7H11.2v8.1C12,40.9,12.7,41.5,12.7,42.4
	C12.7,42.4,12.7,42.4,12.7,42.4z"/>
<path d="M12.7,42.4c0,0.8-0.7,1.5-1.5,1.5c0,0,0,0,0,0v8.4h93.2V32.7H11.2v8.1C12,40.9,12.7,41.5,12.7,42.4
	C12.7,42.4,12.7,42.4,12.7,42.4z"/>
<path d="M12.7,42.4c0,0.8-0.7,1.5-1.5,1.5c0,0,0,0,0,0v8.4h93.2V32.7H11.2v8.1C12,40.9,12.7,41.5,12.7,42.4
	C12.7,42.4,12.7,42.4,12.7,42.4z"/>
<rect x="68.7" y="64.3" width="4.1" height="4.2"/>
<rect x="68.7" y="64.3" width="4.1" height="4.2"/>
<rect x="68.7" y="64.3" width="4.1" height="4.2"/>
<rect x="115.7" y="76.1" width="2.6" height="2.6"/>
<rect x="115.7" y="76.1" width="2.6" height="2.6"/>
<rect x="115.7" y="76.1" width="2.6" height="2.6"/>
<rect x="124.8" y="76.1" width="2.6" height="2.6"/>
<rect x="124.8" y="76.1" width="2.6" height="2.6"/>
<rect x="124.8" y="76.1" width="2.6" height="2.6"/>
<rect x="133.9" y="76.1" width="2.6" height="2.6"/>
<rect x="133.9" y="76.1" width="2.6" height="2.6"/>
<rect x="133.9" y="76.1" width="2.6" height="2.6"/>
<rect x="163.2" y="65.9" width="8.1" height="5.5"/>
<rect x="163.2" y="65.9" width="8.1" height="5.5"/>
<rect x="163.2" y="65.9" width="8.1" height="5.5"/>
<rect x="151.4" y="36.6" width="11.6" height="17"/>
<rect x="151.4" y="36.6" width="11.6" height="17"/>
<rect x="151.4" y="36.6" width="11.6" height="17"/>
<rect x="154" y="121.6" class="st3" width="15.6" height="15.6"/>
<rect x="149.7" y="133.8" class="st9" width="3.3" height="3.3"/>
<polygon class="st8" points="153.5,134.8 151.3,134.8 151.3,136.1 153.5,136.1 155.8,136.1 155.8,134.8 "/>
<rect x="170.6" y="133.8" class="st9" width="3.3" height="3.3"/>
<polygon class="st8" points="170,136.2 172.3,136.2 172.3,134.9 170,134.9 167.8,134.9 167.8,136.2 "/>
<rect x="149.7" y="121.6" class="st9" width="3.3" height="3.3"/>
<polygon class="st8" points="153.5,122.6 151.3,122.6 151.3,123.9 153.5,123.9 155.8,123.9 155.8,122.6 "/>
<rect x="170.6" y="121.6" class="st9" width="3.3" height="3.3"/>
<polygon class="st8" points="170,123.9 172.3,123.9 172.3,122.6 170,122.6 167.8,122.6 167.8,123.9 "/>
<rect x="170.6" y="127.7" class="st9" width="3.3" height="3.3"/>
<polygon class="st8" points="170,130 172.3,130 172.3,128.7 170,128.7 167.8,128.7 167.8,130 "/>
<path class="st10" d="M166,129.4c0,2.4-1.9,4.3-4.3,4.3c-2.4,0-4.3-1.9-4.3-4.3c0-2.4,1.9-4.3,4.3-4.3c0,0,0,0,0,0
	C164.1,125.1,166,127,166,129.4z"/>
<g id="LWPOLYLINE">
	<polyline class="st11" points="117.2,62.1 135,62.1 135,62.1 135.4,62.1 135.4,62.1 135.8,62.1 135.8,62.1 136.2,62.2 136.2,62.2 
		136.5,62.3 136.5,62.3 136.9,62.4 136.9,62.4 137.3,62.5 137.3,62.5 137.6,62.7 137.6,62.7 138,62.9 138,62.9 138.3,63.1 
		138.3,63.1 138.6,63.3 138.6,63.3 138.9,63.6 138.9,63.6 139.2,63.8 139.2,63.8 139.5,64.1 139.5,64.1 139.7,64.4 139.7,64.4 
		139.9,64.7 139.9,64.7 140.1,65 140.1,65 140.3,65.4 140.3,65.4 140.5,65.7 140.5,65.7 140.6,66.1 140.6,66.1 140.7,66.5 
		140.7,66.5 140.8,66.8 140.8,66.8 140.9,67.2 140.9,67.2 140.9,67.6 140.9,67.6 140.9,68 140.9,68 140.9,68.4 140.9,68.4 
		140.9,68.8 140.9,68.8 140.8,69.2 140.8,69.2 140.7,69.5 140.7,69.5 140.6,69.9 140.6,69.9 140.5,70.3 140.5,70.3 140.3,70.6 
		140.3,70.6 140.1,71 140.1,71 139.9,71.3 139.9,71.3 139.7,71.6 139.7,71.6 139.5,71.9 139.5,71.9 139.2,72.2 139.2,72.2 
		138.9,72.5 138.9,72.5 138.6,72.7 138.6,72.7 138.3,72.9 138.3,72.9 138,73.1 138,73.1 137.6,73.3 137.6,73.3 137.3,73.5 
		137.3,73.5 136.9,73.6 136.9,73.6 136.5,73.7 136.5,73.7 136.2,73.8 136.2,73.8 135.8,73.9 135.8,73.9 135.4,73.9 135.4,73.9 
		135,73.9 135,73.9 117.2,73.9 117.2,73.9 116.8,73.9 116.8,73.9 116.5,73.9 116.5,73.9 116.1,73.8 116.1,73.8 115.7,73.7 
		115.7,73.7 115.3,73.6 115.3,73.6 115,73.5 115,73.5 114.6,73.3 114.6,73.3 114.3,73.1 114.3,73.1 113.9,72.9 113.9,72.9 
		113.6,72.7 113.6,72.7 113.3,72.5 113.3,72.5 113,72.2 113,72.2 112.8,71.9 112.8,71.9 112.5,71.6 112.5,71.6 112.3,71.3 
		112.3,71.3 112.1,71 112.1,71 111.9,70.6 111.9,70.6 111.8,70.3 111.8,70.3 111.6,69.9 111.6,69.9 111.5,69.5 111.5,69.5 
		111.4,69.2 111.4,69.2 111.4,68.8 111.4,68.8 111.3,68.4 111.3,68.4 111.3,68 111.3,68 111.3,67.6 111.3,67.6 111.4,67.2 
		111.4,67.2 111.4,66.8 111.4,66.8 111.5,66.5 111.5,66.5 111.6,66.1 111.6,66.1 111.8,65.7 111.8,65.7 111.9,65.4 111.9,65.4 
		112.1,65 112.1,65 112.3,64.7 112.3,64.7 112.5,64.4 112.5,64.4 112.8,64.1 112.8,64.1 113,63.8 113,63.8 113.3,63.6 113.3,63.6 
		113.6,63.3 113.6,63.3 113.9,63.1 113.9,63.1 114.3,62.9 114.3,62.9 114.6,62.7 114.6,62.7 115,62.5 115,62.5 115.3,62.4 
		115.3,62.4 115.7,62.3 115.7,62.3 116.1,62.2 116.1,62.2 116.5,62.1 116.5,62.1 116.8,62.1 116.8,62.1 117.2,62.1 117.2,62.1 	"/>
</g>
<polygon class="st11" points="140.9,68.1 140.9,68 140.9,67.6 140.9,67.2 140.8,66.8 140.7,66.5 140.6,66.1 140.5,65.7 140.3,65.4 
	140.1,65 139.9,64.7 139.7,64.4 139.5,64.1 139.2,63.8 138.9,63.6 138.6,63.3 138.3,63.1 138,62.9 137.6,62.7 137.3,62.5 
	136.9,62.4 136.5,62.3 136.2,62.2 135.8,62.1 135.4,62.1 135,62.1 117.2,62.1 116.8,62.1 116.5,62.1 116.1,62.2 115.7,62.3 
	115.3,62.4 115,62.5 114.6,62.7 114.3,62.9 113.9,63.1 113.6,63.3 113.3,63.6 113,63.8 112.8,64.1 112.5,64.4 112.3,64.7 112.1,65 
	111.9,65.4 111.8,65.7 111.6,66.1 111.5,66.5 111.4,66.8 111.4,67.2 111.3,67.6 111.3,68 111.3,68.1 "/>
<g id="LWPOLYLINE-2">
	<polyline class="st4" points="117.2,63.4 135,63.4 135,63.4 135.3,63.4 135.3,63.4 135.7,63.4 135.7,63.4 136,63.5 136,63.5 
		136.3,63.6 136.3,63.6 136.7,63.7 136.7,63.7 137,63.8 137,63.8 137.3,64 137.3,64 137.6,64.2 137.6,64.2 137.8,64.4 137.8,64.4 
		138.1,64.6 138.1,64.6 138.3,64.8 138.3,64.8 138.6,65.1 138.6,65.1 138.8,65.3 138.8,65.3 139,65.6 139,65.6 139.1,65.9 
		139.1,65.9 139.3,66.2 139.3,66.2 139.4,66.5 139.4,66.5 139.5,66.8 139.5,66.8 139.5,67.2 139.5,67.2 139.6,67.5 139.6,67.5 
		139.6,67.8 139.6,67.8 139.6,68.2 139.6,68.2 139.6,68.5 139.6,68.5 139.5,68.8 139.5,68.8 139.5,69.2 139.5,69.2 139.4,69.5 
		139.4,69.5 139.3,69.8 139.3,69.8 139.1,70.1 139.1,70.1 139,70.4 139,70.4 138.8,70.7 138.8,70.7 138.6,71 138.6,71 138.3,71.2 
		138.3,71.2 138.1,71.4 138.1,71.4 137.8,71.7 137.8,71.7 137.6,71.9 137.6,71.9 137.3,72 137.3,72 137,72.2 137,72.2 136.7,72.3 
		136.7,72.3 136.3,72.4 136.3,72.4 136,72.5 136,72.5 135.7,72.6 135.7,72.6 135.3,72.6 135.3,72.6 135,72.6 135,72.6 117.2,72.6 
		117.2,72.6 116.9,72.6 116.9,72.6 116.6,72.6 116.6,72.6 116.2,72.5 116.2,72.5 115.9,72.4 115.9,72.4 115.6,72.3 115.6,72.3 
		115.3,72.2 115.3,72.2 115,72 115,72 114.7,71.9 114.7,71.9 114.4,71.7 114.4,71.7 114.2,71.4 114.2,71.4 113.9,71.2 113.9,71.2 
		113.7,71 113.7,71 113.5,70.7 113.5,70.7 113.3,70.4 113.3,70.4 113.1,70.1 113.1,70.1 113,69.8 113,69.8 112.9,69.5 112.9,69.5 
		112.8,69.2 112.8,69.2 112.7,68.8 112.7,68.8 112.6,68.5 112.6,68.5 112.6,68.2 112.6,68.2 112.6,67.8 112.6,67.8 112.6,67.5 
		112.6,67.5 112.7,67.2 112.7,67.2 112.8,66.8 112.8,66.8 112.9,66.5 112.9,66.5 113,66.2 113,66.2 113.1,65.9 113.1,65.9 
		113.3,65.6 113.3,65.6 113.5,65.3 113.5,65.3 113.7,65.1 113.7,65.1 113.9,64.8 113.9,64.8 114.2,64.6 114.2,64.6 114.4,64.4 
		114.4,64.4 114.7,64.2 114.7,64.2 115,64 115,64 115.3,63.8 115.3,63.8 115.6,63.7 115.6,63.7 115.9,63.6 115.9,63.6 116.2,63.5 
		116.2,63.5 116.6,63.4 116.6,63.4 116.9,63.4 116.9,63.4 117.2,63.4 117.2,63.4 	"/>
</g>
<rect x="22.1" y="93.1" class="st3" width="8.5" height="3.4"/>
<path class="st12" d="M28.9,94.8c0,1.4-1.2,2.6-2.6,2.6c-1.4,0-2.6-1.2-2.6-2.6s1.2-2.6,2.6-2.6l0,0C27.8,92.2,28.9,93.4,28.9,94.8z
	"/>
<rect x="101.1" y="86.7" class="st3" width="8.5" height="3.4"/>
<path class="st12" d="M108,88.4c0,1.4-1.2,2.6-2.6,2.6c-1.4,0-2.6-1.2-2.6-2.6c0-1.4,1.2-2.6,2.6-2.6l0,0
	C106.8,85.8,108,86.9,108,88.4z"/>
<rect x="101.1" y="93.7" class="st3" width="8.5" height="3.4"/>
<path class="st12" d="M108,95.4c0,1.4-1.2,2.6-2.6,2.6s-2.6-1.2-2.6-2.6c0-1.4,1.2-2.6,2.6-2.6C106.8,92.8,108,94,108,95.4z"/>
<rect x="101.1" y="110.1" class="st3" width="8.5" height="3.4"/>
<path class="st12" d="M108,111.8c0,1.4-1.2,2.6-2.6,2.6c-1.4,0-2.6-1.2-2.6-2.6c0-1.4,1.2-2.6,2.6-2.6l0,0
	C106.8,109.2,108,110.4,108,111.8z"/>
<path d="M95.5,9.9V3.3h-6.6v6.6H95.5z"/>
<path d="M88.9,9.9V3.3h-6.6v6.6H88.9z"/>
<path d="M82.3,9.9V3.3h-6.6v6.6H82.3z"/>
<path d="M75.7,9.9V3.3h-6.6v6.6H75.7z"/>
<path d="M69.1,9.9V3.3h-6.6v6.6H69.1z"/>
<path d="M62.5,9.9V3.3h-6.6v6.6H62.5z"/>
<path d="M102,9.9V3.3h-6.6v6.6H102z"/>
<path d="M108.6,9.9V3.3H102v6.6H108.6z"/>
<path d="M49.4,9.9V3.3h-6.6v6.6H49.4z"/>
<path d="M42.8,9.9V3.3h-6.6v6.6H42.8z"/>
<path d="M36.2,9.9V3.3h-6.6v6.6H36.2z"/>
<path d="M29.6,9.9V3.3H23v6.6H29.6z"/>
<path d="M23,9.9V3.3h-6.6v6.6H23z"/>
<path d="M16.4,9.9V3.3H9.8v6.6H16.4z"/>
<path d="M95.5,9.9V3.3h-6.6v6.6H95.5z"/>
<path d="M88.9,9.9V3.3h-6.6v6.6H88.9z"/>
<path d="M82.3,9.9V3.3h-6.6v6.6H82.3z"/>
<path d="M75.7,9.9V3.3h-6.6v6.6H75.7z"/>
<path d="M69.1,9.9V3.3h-6.6v6.6H69.1z"/>
<path d="M62.5,9.9V3.3h-6.6v6.6H62.5z"/>
<path d="M102,9.9V3.3h-6.6v6.6H102z"/>
<path d="M108.6,9.9V3.3H102v6.6H108.6z"/>
<path d="M49.4,9.9V3.3h-6.6v6.6H49.4z"/>
<path d="M42.8,9.9V3.3h-6.6v6.6H42.8z"/>
<path d="M36.2,9.9V3.3h-6.6v6.6H36.2z"/>
<path d="M29.6,9.9V3.3H23v6.6H29.6z"/>
<path d="M23,9.9V3.3h-6.6v6.6H23z"/>
<path d="M16.4,9.9V3.3H9.8v6.6H16.4z"/>
<path d="M95.5,9.9V3.3h-6.6v6.6H95.5z"/>
<path d="M88.9,9.9V3.3h-6.6v6.6H88.9z"/>
<path d="M82.3,9.9V3.3h-6.6v6.6H82.3z"/>
<path d="M75.7,9.9V3.3h-6.6v6.6H75.7z"/>
<path d="M69.1,9.9V3.3h-6.6v6.6H69.1z"/>
<path d="M62.5,9.9V3.3h-6.6v6.6H62.5z"/>
<path d="M102,9.9V3.3h-6.6v6.6H102z"/>
<path d="M108.6,9.9V3.3H102v6.6H108.6z"/>
<path d="M49.4,9.9V3.3h-6.6v6.6H49.4z"/>
<path d="M42.8,9.9V3.3h-6.6v6.6H42.8z"/>
<path d="M36.2,9.9V3.3h-6.6v6.6H36.2z"/>
<path d="M29.6,9.9V3.3H23v6.6H29.6z"/>
<path d="M23,9.9V3.3h-6.6v6.6H23z"/>
<path d="M16.4,9.9V3.3H9.8v6.6H16.4z"/>
<polygon class="st8" points="90.5,8.2 93.8,8.2 93.8,8.2 93.8,5 93.8,4.9 90.5,4.9 90.5,5 90.5,5 "/>
<polygon class="st8" points="84,8.2 87.2,8.2 87.2,8.2 87.2,5 87.2,4.9 84,4.9 84,5 84,5 "/>
<polygon class="st8" points="77.4,8.2 80.7,8.2 80.7,8.2 80.7,5 80.7,4.9 77.4,4.9 77.4,5 77.4,5 "/>
<polygon class="st8" points="70.8,8.2 74.1,8.2 74.1,8.2 74.1,5 74.1,4.9 70.8,4.9 70.8,5 70.8,5 "/>
<polygon class="st8" points="64.2,8.2 67.5,8.2 67.5,8.2 67.5,5 67.5,4.9 64.2,4.9 64.2,5 64.2,5 "/>
<polygon class="st8" points="57.6,8.2 60.9,8.2 60.9,8.2 60.9,5 60.9,4.9 57.6,4.9 57.6,5 57.6,5 "/>
<polygon class="st8" points="97.1,8.2 100.4,8.2 100.4,8.2 100.4,5 100.4,4.9 97.1,4.9 97.1,5 97.1,5 "/>
<polygon class="st8" points="103.6,8.2 106.9,8.2 106.9,8.2 106.9,5 106.9,4.9 103.6,4.9 103.6,5 103.6,5 "/>
<polygon class="st8" points="44.4,8.2 47.7,8.2 47.7,8.2 47.7,5 47.7,4.9 44.4,4.9 44.4,5 44.4,5 "/>
<polygon class="st8" points="37.8,8.2 41.1,8.2 41.1,8.2 41.1,5 41.1,4.9 37.8,4.9 37.8,5 37.8,5 "/>
<polygon class="st8" points="31.3,8.2 34.6,8.2 34.6,8.2 34.6,5 34.6,4.9 31.3,4.9 31.3,5 31.3,5 "/>
<polygon class="st8" points="24.7,8.2 28,8.2 28,8.2 28,5 28,4.9 24.7,4.9 24.7,5 24.7,5 "/>
<polygon class="st8" points="18.1,8.2 21.4,8.2 21.4,8.2 21.4,5 21.4,4.9 18.1,4.9 18.1,5 18.1,5 "/>
<polygon class="st8" points="11.5,8.2 14.8,8.2 14.8,8.2 14.8,5 14.8,4.9 11.5,4.9 11.5,5 11.5,5 "/>
<polygon class="st8" points="114.3,133.4 117.6,133.4 117.6,133.4 117.6,130.1 117.6,130.1 114.3,130.1 114.3,130.1 114.3,130.1 "/>
<polygon class="st8" points="120.9,133.4 124.2,133.4 124.2,133.4 124.2,130.1 124.2,130.1 120.9,130.1 120.9,130.1 120.9,130.1 "/>
<polygon class="st8" points="127.4,133.4 130.7,133.4 130.7,133.4 130.7,130.1 130.7,130.1 127.4,130.1 127.4,130.1 127.4,130.1 "/>
<polygon class="st8" points="88,133.4 91.3,133.4 91.3,133.4 91.3,130.1 91.3,130.1 88,130.1 88,130.1 88,130.1 "/>
<polygon class="st8" points="71.5,133.4 71.5,130.1 71.5,130.1 68.2,130.1 68.2,130.1 68.2,133.4 68.2,133.4 68.2,133.4 "/>
<polygon class="st8" points="84.7,133.4 84.7,130.1 84.7,130.1 81.4,130.1 81.4,130.1 81.4,133.4 81.4,133.4 81.4,133.4 "/>
<polygon class="st8" points="97.9,133.4 97.9,130.1 97.9,130.1 94.6,130.1 94.6,130.1 94.6,133.4 94.6,133.4 94.6,133.4 "/>
<polygon class="st8" points="104.4,133.4 104.4,130.1 104.4,130.1 101.1,130.1 101.1,130.1 101.1,133.4 101.1,133.4 101.1,133.4 "/>
<polygon class="st8" points="111,133.4 111,130.1 111,130.1 107.7,130.1 107.7,130.1 107.7,133.4 107.7,133.4 107.7,133.4 "/>
<polygon class="st8" points="44.4,133.4 47.7,133.4 47.7,133.4 47.7,130.1 47.7,130.1 44.4,130.1 44.4,130.1 44.4,130.1 "/>
<polygon class="st8" points="54.3,133.4 54.3,130.1 54.3,130.1 51,130.1 51,130.1 51,133.4 51,133.4 51,133.4 "/>
<polygon class="st8" points="60.9,133.4 60.9,130.1 60.9,130.1 57.6,130.1 57.6,130.1 57.6,133.4 57.6,133.4 57.6,133.4 "/>
<polygon class="st8" points="41.1,133.4 41.1,130.1 41.1,130.1 37.9,130.1 37.8,130.1 37.8,133.4 37.9,133.4 37.9,133.4 "/>
<polygon class="st8" points="34.6,133.4 34.6,130.1 34.6,130.1 31.3,130.1 31.3,130.1 31.3,133.4 31.3,133.4 31.3,133.4 "/>
<polygon class="st8" points="28,133.4 28,130.1 28,130.1 24.7,130.1 24.7,130.1 24.7,133.4 24.7,133.4 24.7,133.4 "/>
<polygon class="st8" points="21.5,133.4 21.5,130.1 21.4,130.1 18.2,130.1 18.1,130.1 18.1,133.4 18.2,133.4 18.2,133.4 "/>
<polygon class="st8" points="14.9,133.4 14.9,130.1 14.9,130.1 11.6,130.1 11.6,130.1 11.6,133.4 11.6,133.4 11.6,133.4 "/>
<polygon class="st8" points="78.1,133.4 78.1,130.1 78.1,130.1 74.8,130.1 74.8,130.1 74.8,133.4 74.8,133.4 74.8,133.4 "/>
<path class="st3" d="M25.2,65.7c-0.7,0-1.3,0.6-1.3,1.3c0,0,0,0,0,0h2.6C26.5,66.3,25.9,65.7,25.2,65.7
	C25.2,65.7,25.2,65.7,25.2,65.7z"/>
<path class="st3" d="M25.2,78.2c0.7,0,1.3-0.6,1.3-1.3c0,0,0,0,0,0h-2.6C23.9,77.7,24.4,78.2,25.2,78.2
	C25.2,78.2,25.2,78.2,25.2,78.2z"/>
<path class="st3" d="M22.6,65.7c-0.7,0-1.3,0.6-1.3,1.3h2.6C23.9,66.3,23.3,65.7,22.6,65.7C22.6,65.7,22.6,65.7,22.6,65.7z"/>
<path class="st3" d="M22.6,78.2c0.7,0,1.3-0.6,1.3-1.3c0,0,0,0,0,0h-2.6C21.3,77.7,21.8,78.2,22.6,78.2z"/>
<polygon points="23.9,77 23.9,77 26.5,77 26.5,75.9 26.5,75.8 26.5,74.8 26.5,74.7 26.5,73.7 26.5,73.6 26.5,72.6 26.5,72.5 
	26.5,71.5 26.5,71.4 26.5,70.4 26.5,70.3 26.5,69.3 26.5,69.2 26.5,68.2 26.5,68.1 26.5,67 23.9,67 23.9,67 21.3,67 21.3,68.1 
	21.3,68.2 21.3,69.2 21.3,69.3 21.3,70.3 21.3,70.4 21.3,71.4 21.3,71.5 21.3,72.5 21.3,72.6 21.3,73.6 21.3,73.7 21.3,74.7 
	21.3,74.8 21.3,75.8 21.3,75.9 21.3,77 "/>
<polygon points="23.9,77 23.9,77 26.5,77 26.5,75.9 26.5,75.8 26.5,74.8 26.5,74.7 26.5,73.7 26.5,73.6 26.5,72.6 26.5,72.5 
	26.5,71.5 26.5,71.4 26.5,70.4 26.5,70.3 26.5,69.3 26.5,69.2 26.5,68.2 26.5,68.1 26.5,67 23.9,67 23.9,67 21.3,67 21.3,68.1 
	21.3,68.2 21.3,69.2 21.3,69.3 21.3,70.3 21.3,70.4 21.3,71.4 21.3,71.5 21.3,72.5 21.3,72.6 21.3,73.6 21.3,73.7 21.3,74.7 
	21.3,74.8 21.3,75.8 21.3,75.9 21.3,77 "/>
<polygon points="23.9,77 23.9,77 26.5,77 26.5,75.9 26.5,75.8 26.5,74.8 26.5,74.7 26.5,73.7 26.5,73.6 26.5,72.6 26.5,72.5 
	26.5,71.5 26.5,71.4 26.5,70.4 26.5,70.3 26.5,69.3 26.5,69.2 26.5,68.2 26.5,68.1 26.5,67 23.9,67 23.9,67 21.3,67 21.3,68.1 
	21.3,68.2 21.3,69.2 21.3,69.3 21.3,70.3 21.3,70.4 21.3,71.4 21.3,71.5 21.3,72.5 21.3,72.6 21.3,73.6 21.3,73.7 21.3,74.7 
	21.3,74.8 21.3,75.8 21.3,75.9 21.3,77 "/>
<path class="st2" d="M103.4,100.5c0,0.4-0.3,0.6-0.6,0.6c-0.4,0-0.6-0.3-0.6-0.6c0-0.4,0.3-0.6,0.6-0.6
	C103.1,99.8,103.4,100.1,103.4,100.5C103.4,100.5,103.4,100.5,103.4,100.5z"/>
<path class="st2" d="M103.4,102.6c0,0.4-0.3,0.6-0.6,0.6s-0.6-0.3-0.6-0.6c0-0.4,0.3-0.6,0.6-0.6c0,0,0,0,0,0
	C103.1,101.9,103.4,102.2,103.4,102.6z"/>
<path class="st2" d="M103.4,104.6c0,0.4-0.3,0.6-0.6,0.6s-0.6-0.3-0.6-0.6c0-0.4,0.3-0.6,0.6-0.6c0,0,0,0,0,0
	C103.1,104,103.4,104.3,103.4,104.6z"/>
<path class="st2" d="M103.4,106.7c0,0.4-0.3,0.6-0.6,0.6c-0.4,0-0.6-0.3-0.6-0.6c0-0.4,0.3-0.6,0.6-0.6l0,0
	C103.1,106.1,103.4,106.4,103.4,106.7z"/>
<path class="st2" d="M108.6,100.5c0,0.4-0.3,0.6-0.6,0.6c-0.4,0-0.6-0.3-0.6-0.6c0-0.4,0.3-0.6,0.6-0.6
	C108.3,99.8,108.6,100.1,108.6,100.5C108.6,100.5,108.6,100.5,108.6,100.5z"/>
<path class="st2" d="M108.6,102.6c0,0.4-0.3,0.6-0.6,0.6s-0.6-0.3-0.6-0.6c0-0.4,0.3-0.6,0.6-0.6c0,0,0,0,0,0
	C108.3,101.9,108.6,102.2,108.6,102.6z"/>
<path class="st2" d="M108.6,104.6c0,0.4-0.3,0.6-0.6,0.6s-0.6-0.3-0.6-0.6c0-0.4,0.3-0.6,0.6-0.6c0,0,0,0,0,0
	C108.3,104,108.6,104.3,108.6,104.6z"/>
<path class="st2" d="M108.6,106.7c0,0.4-0.3,0.6-0.6,0.6c-0.4,0-0.6-0.3-0.6-0.6c0-0.4,0.3-0.6,0.6-0.6l0,0
	C108.3,106.1,108.6,106.4,108.6,106.7z"/>
<polygon points="105.4,107.4 106.7,107.4 106.7,99.8 105.4,99.8 104.1,99.8 104.1,107.4 "/>
<polygon points="105.4,107.4 106.7,107.4 106.7,99.8 105.4,99.8 104.1,99.8 104.1,107.4 "/>
<polygon points="105.4,107.4 106.7,107.4 106.7,99.8 105.4,99.8 104.1,99.8 104.1,107.4 "/>
<rect x="106.7" y="106.1" class="st3" width="1.3" height="1.3"/>
<rect x="106.7" y="104" class="st3" width="1.3" height="1.3"/>
<rect x="106.7" y="101.9" class="st3" width="1.3" height="1.3"/>
<rect x="106.7" y="99.8" class="st3" width="1.3" height="1.3"/>
<rect x="102.8" y="106.1" class="st3" width="1.3" height="1.3"/>
<rect x="102.8" y="104" class="st3" width="1.3" height="1.3"/>
<rect x="102.8" y="101.9" class="st3" width="1.3" height="1.3"/>
<rect x="102.8" y="99.8" class="st3" width="1.3" height="1.3"/>
<path class="st2" d="M103.4,58.9c0,0.4-0.3,0.6-0.6,0.6c-0.4,0-0.6-0.3-0.6-0.6c0-0.4,0.3-0.6,0.6-0.6
	C103.1,58.2,103.4,58.5,103.4,58.9C103.4,58.9,103.4,58.9,103.4,58.9z"/>
<path class="st2" d="M103.4,60.9c0,0.4-0.3,0.6-0.6,0.6c-0.4,0-0.6-0.3-0.6-0.6c0-0.4,0.3-0.6,0.6-0.6c0,0,0,0,0,0
	C103.1,60.3,103.4,60.6,103.4,60.9z"/>
<path class="st2" d="M103.4,63c0,0.4-0.3,0.6-0.6,0.6s-0.6-0.3-0.6-0.6c0-0.4,0.3-0.6,0.6-0.6c0,0,0,0,0,0
	C103.1,62.4,103.4,62.6,103.4,63z"/>
<path class="st2" d="M103.4,65.1c0,0.4-0.3,0.6-0.6,0.6s-0.6-0.3-0.6-0.6c0-0.4,0.3-0.6,0.6-0.6C103.1,64.4,103.4,64.7,103.4,65.1z"
	/>
<path class="st2" d="M108.6,58.9c0,0.4-0.3,0.6-0.6,0.6c-0.4,0-0.6-0.3-0.6-0.6c0-0.4,0.3-0.6,0.6-0.6
	C108.3,58.2,108.6,58.5,108.6,58.9C108.6,58.9,108.6,58.9,108.6,58.9z"/>
<path class="st2" d="M108.6,60.9c0,0.4-0.3,0.6-0.6,0.6c-0.4,0-0.6-0.3-0.6-0.6c0-0.4,0.3-0.6,0.6-0.6c0,0,0,0,0,0
	C108.3,60.3,108.6,60.6,108.6,60.9z"/>
<path class="st2" d="M108.6,63c0,0.4-0.3,0.6-0.6,0.6s-0.6-0.3-0.6-0.6c0-0.4,0.3-0.6,0.6-0.6c0,0,0,0,0,0
	C108.3,62.4,108.6,62.6,108.6,63z"/>
<path class="st2" d="M108.6,65.1c0,0.4-0.3,0.6-0.6,0.6s-0.6-0.3-0.6-0.6c0-0.4,0.3-0.6,0.6-0.6c0,0,0,0,0,0
	C108.3,64.4,108.6,64.7,108.6,65.1z"/>
<polygon points="105.4,65.7 106.7,65.7 106.7,58.2 105.4,58.2 104.1,58.2 104.1,65.7 "/>
<polygon points="105.4,65.7 106.7,65.7 106.7,58.2 105.4,58.2 104.1,58.2 104.1,65.7 "/>
<polygon points="105.4,65.7 106.7,65.7 106.7,58.2 105.4,58.2 104.1,58.2 104.1,65.7 "/>
<rect x="106.7" y="64.4" class="st3" width="1.3" height="1.3"/>
<rect x="106.7" y="62.4" class="st3" width="1.3" height="1.3"/>
<rect x="106.7" y="60.3" class="st3" width="1.3" height="1.3"/>
<rect x="106.7" y="58.2" class="st3" width="1.3" height="1.3"/>
<rect x="102.8" y="64.4" class="st3" width="1.3" height="1.3"/>
<rect x="102.8" y="62.4" class="st3" width="1.3" height="1.3"/>
<rect x="102.8" y="60.3" class="st3" width="1.3" height="1.3"/>
<rect x="102.8" y="58.2" class="st3" width="1.3" height="1.3"/>
<path class="st2" d="M143,90.7c0,0.4-0.3,0.6-0.6,0.6c-0.4,0-0.6-0.3-0.6-0.6c0-0.4,0.3-0.6,0.6-0.6C142.7,90,143,90.3,143,90.7
	C143,90.7,143,90.7,143,90.7z"/>
<path class="st2" d="M143,92.7c0,0.4-0.3,0.6-0.6,0.6c-0.4,0-0.6-0.3-0.6-0.6c0-0.4,0.3-0.6,0.6-0.6c0,0,0,0,0,0
	C142.7,92.1,143,92.4,143,92.7z"/>
<path class="st2" d="M143,94.8c0,0.4-0.3,0.6-0.6,0.6s-0.6-0.3-0.6-0.6c0-0.4,0.3-0.6,0.6-0.6c0,0,0,0,0,0
	C142.7,94.2,143,94.4,143,94.8z"/>
<path class="st2" d="M143,96.9c0,0.4-0.3,0.6-0.6,0.6s-0.6-0.3-0.6-0.6c0-0.4,0.3-0.6,0.6-0.6c0,0,0,0,0,0
	C142.7,96.2,143,96.5,143,96.9z"/>
<path class="st2" d="M148.2,90.7c0,0.4-0.3,0.6-0.6,0.6c-0.4,0-0.6-0.3-0.6-0.6c0-0.4,0.3-0.6,0.6-0.6
	C147.9,90,148.2,90.3,148.2,90.7C148.2,90.7,148.2,90.7,148.2,90.7z"/>
<path class="st2" d="M148.2,92.7c0,0.4-0.3,0.6-0.6,0.6c-0.4,0-0.6-0.3-0.6-0.6c0-0.4,0.3-0.6,0.6-0.6c0,0,0,0,0,0
	C147.9,92.1,148.2,92.4,148.2,92.7z"/>
<path class="st2" d="M148.2,94.8c0,0.4-0.3,0.6-0.6,0.6s-0.6-0.3-0.6-0.6c0-0.4,0.3-0.6,0.6-0.6c0,0,0,0,0,0
	C147.9,94.2,148.2,94.4,148.2,94.8z"/>
<path class="st2" d="M148.2,96.9c0,0.4-0.3,0.6-0.6,0.6s-0.6-0.3-0.6-0.6c0-0.4,0.3-0.6,0.6-0.6c0,0,0,0,0,0
	C147.9,96.2,148.2,96.5,148.2,96.9z"/>
<polygon points="144.9,97.5 146.2,97.5 146.2,90 144.9,90 143.6,90 143.6,97.5 "/>
<polygon points="144.9,97.5 146.2,97.5 146.2,90 144.9,90 143.6,90 143.6,97.5 "/>
<polygon points="144.9,97.5 146.2,97.5 146.2,90 144.9,90 143.6,90 143.6,97.5 "/>
<rect x="146.2" y="96.2" class="st3" width="1.3" height="1.3"/>
<rect x="146.2" y="94.2" class="st3" width="1.3" height="1.3"/>
<rect x="146.2" y="92.1" class="st3" width="1.3" height="1.3"/>
<rect x="146.2" y="90" class="st3" width="1.3" height="1.3"/>
<rect x="142.3" y="96.2" class="st3" width="1.3" height="1.3"/>
<rect x="142.3" y="94.2" class="st3" width="1.3" height="1.3"/>
<rect x="142.3" y="92.1" class="st3" width="1.3" height="1.3"/>
<rect x="142.3" y="90" class="st3" width="1.3" height="1.3"/>
<path class="st3" d="M155.3,5.9c-1.7,0-3.1,1.4-3.1,3.1c0,0,0,0,0,0h6.2C158.4,7.3,157,5.9,155.3,5.9C155.3,5.9,155.3,5.9,155.3,5.9
	z"/>
<path class="st3" d="M147.5,24.6C147.6,24.6,147.6,24.6,147.5,24.6l0.1-6.2c0,0-0.1,0-0.1,0c-1.7,0-3.1,1.4-3.1,3.1
	C144.4,23.3,145.8,24.6,147.5,24.6z"/>
<polygon points="174.5,29.8 174.5,31.1 174.5,31.1 174.5,32.4 181.9,32.4 181.9,31.1 181.9,31.1 181.9,29.8 181.9,28.5 181.9,27.2 
	181.9,25.9 181.9,24.6 181.9,23.3 181.9,22 181.9,20.7 181.9,19.4 181.9,18.1 181.9,16.8 181.9,15.5 181.9,14.2 181.9,12.9 
	181.9,11.6 181.9,10.3 181.9,9.1 181.9,7.9 181.9,7.8 181.9,6.6 174.5,6.6 174.5,7.8 174.5,7.9 174.5,9.1 158.4,9.1 152.2,9.1 
	147.6,9.1 147.6,11.6 147.6,14.2 147.6,16.8 147.6,18.4 147.6,19.4 147.6,22 147.6,24.6 147.6,24.6 147.6,27.2 147.6,29.8 "/>
<polygon points="174.5,29.8 174.5,31.1 174.5,31.1 174.5,32.4 181.9,32.4 181.9,31.1 181.9,31.1 181.9,29.8 181.9,28.5 181.9,27.2 
	181.9,25.9 181.9,24.6 181.9,23.3 181.9,22 181.9,20.7 181.9,19.4 181.9,18.1 181.9,16.8 181.9,15.5 181.9,14.2 181.9,12.9 
	181.9,11.6 181.9,10.3 181.9,9.1 181.9,7.9 181.9,7.8 181.9,6.6 174.5,6.6 174.5,7.8 174.5,7.9 174.5,9.1 158.4,9.1 152.2,9.1 
	147.6,9.1 147.6,11.6 147.6,14.2 147.6,16.8 147.6,18.4 147.6,19.4 147.6,22 147.6,24.6 147.6,24.6 147.6,27.2 147.6,29.8 "/>
<polygon points="174.5,29.8 174.5,31.1 174.5,31.1 174.5,32.4 181.9,32.4 181.9,31.1 181.9,31.1 181.9,29.8 181.9,28.5 181.9,27.2 
	181.9,25.9 181.9,24.6 181.9,23.3 181.9,22 181.9,20.7 181.9,19.4 181.9,18.1 181.9,16.8 181.9,15.5 181.9,14.2 181.9,12.9 
	181.9,11.6 181.9,10.3 181.9,9.1 181.9,7.9 181.9,7.8 181.9,6.6 174.5,6.6 174.5,7.8 174.5,7.9 174.5,9.1 158.4,9.1 152.2,9.1 
	147.6,9.1 147.6,11.6 147.6,14.2 147.6,16.8 147.6,18.4 147.6,19.4 147.6,22 147.6,24.6 147.6,24.6 147.6,27.2 147.6,29.8 "/>
<rect x="181.9" y="6.6" class="st8" width="1.8" height="25.8"/>
<path class="st5" d="M6.6,97.2c2.7,0,5-2.2,5-5c0-2.7-2.2-5-5-5c-2.7,0-5,2.2-5,5l0,0C1.7,94.9,3.9,97.2,6.6,97.2z"/>
<rect x="105.9" y="68.6" class="st13" width="3" height="4.5"/>
<rect x="101.9" y="68.6" class="st13" width="3" height="4.5"/>
<rect x="103.9" y="70.1" class="st13" width="3" height="1.6"/>
<rect x="48.7" y="3.3" width="7.9" height="6.6"/>
<rect x="62" y="128.4" width="5.1" height="6.6"/>
</svg>
