<?xml version="1.0" encoding="utf-8"?>
<!-- Generator: Adobe Illustrator 25.0.1, SVG Export Plug-In . SVG Version: 6.00 Build 0)  -->
<svg version="1.1" id="Layer_1" xmlns="http://www.w3.org/2000/svg" xmlns:xlink="http://www.w3.org/1999/xlink" x="0px" y="0px"
	 viewBox="0 0 226.8 141.7" style="enable-background:new 0 0 226.8 141.7;" xml:space="preserve">
<style type="text/css">
	.st0{fill:#057582;}
	.st1{fill:#81BBC1;}
	.st2{fill:#8C9091;}
	.st3{fill:#010101;}
	.st4{fill:#E6540F;}
	.st5{fill:#167F8C;}
	.st6{opacity:0.5;}
	.st7{fill:#F0B92F;}
	.st8{fill:#087683;}
	.st9{opacity:0.5;fill:#EBAA01;enable-background:new    ;}
	.st10{fill:#4A9CA6;}
	.st11{opacity:0.5;fill:#F2C553;enable-background:new    ;}
	.st12{fill:#B1D4D9;}
	.st13{fill:#C4C6C7;}
	.st14{fill:none;stroke:#8C9091;stroke-width:0.9186;}
	.st15{fill:#8B7867;}
	.st16{fill:#EEEDED;}
	.st17{fill:#FFFFFF;}
</style>
<path class="st0" d="M219.6,0H7.2C3.2,0,0,3.2,0,7.2v127.3c0,4,3.2,7.2,7.2,7.2c0,0,0,0,0,0h212.4c4,0,7.2-3.2,7.2-7.2c0,0,0,0,0,0
	V7.2C226.8,3.2,223.5,0,219.6,0C219.6,0,219.6,0,219.6,0z M9.9,114.8c-2.3,0-4.3-1.9-4.3-4.3s1.9-4.3,4.3-4.3s4.3,1.9,4.3,4.3
	c0,0,0,0,0,0C14.2,112.9,12.3,114.8,9.9,114.8z M9.9,35.4c-2.3,0-4.3-1.9-4.3-4.3s1.9-4.3,4.3-4.3s4.3,1.9,4.3,4.3c0,0,0,0,0,0
	C14.2,33.5,12.3,35.4,9.9,35.4z M219.6,138.8c-2.3,0-4.3-1.9-4.3-4.3c0-2.3,1.9-4.3,4.3-4.3c2.3,0,4.3,1.9,4.3,4.3c0,0,0,0,0,0
	C223.8,136.9,221.9,138.8,219.6,138.8C219.6,138.8,219.6,138.8,219.6,138.8z M219.6,11.5c-2.3,0-4.3-1.9-4.3-4.3
	c0-2.3,1.9-4.3,4.3-4.3c2.3,0,4.3,1.9,4.3,4.3c0,0,0,0,0,0C223.8,9.5,221.9,11.5,219.6,11.5C219.6,11.5,219.6,11.5,219.6,11.5z"/>
<path class="st1" d="M205.4,96.5v3.3c0,0.2-0.2,0.4-0.4,0.4l0,0h-4.6c-0.2,0-0.4-0.2-0.4-0.4l0,0v-3.3c0-0.2,0.2-0.4,0.4-0.4l0,0
	h4.6C205.2,96.1,205.4,96.3,205.4,96.5C205.4,96.5,205.4,96.5,205.4,96.5z"/>
<path class="st1" d="M205.4,88.4v3.3c0,0.2-0.2,0.4-0.4,0.4l0,0h-4.6c-0.2,0-0.4-0.2-0.4-0.4v-3.3c0-0.2,0.2-0.4,0.4-0.4h4.6
	C205.2,88,205.4,88.2,205.4,88.4L205.4,88.4z"/>
<path class="st1" d="M4.1,50.3c0.3,1.3,1.5,2.3,2.9,2.3h5.9c1.6,0,2.9-1.3,3-3c0-0.3,0-0.5-0.1-0.8c-0.3-1.3-1.5-2.2-2.8-2.2H7
	c-1.3,0-2.5,0.9-2.8,2.2C4,49.3,4,49.8,4.1,50.3z"/>
<path class="st1" d="M7,66.7h5.9c1.3,0,2.5-0.9,2.8-2.2c0.2-0.5,0.2-1.1,0-1.6c-0.3-1.3-1.5-2.2-2.8-2.2H7c-1.3,0-2.5,0.9-2.8,2.2
	C4,63.5,4,64,4.1,64.5C4.5,65.8,5.6,66.7,7,66.7z"/>
<path class="st1" d="M7,80.9h5.9c1.3,0,2.5-0.9,2.8-2.2c0.2-0.5,0.2-1.1,0-1.6c-0.3-1.3-1.5-2.2-2.8-2.2H7c-1.3,0-2.5,0.9-2.8,2.2
	c-0.2,0.5-0.2,1.1,0,1.6C4.5,80.1,5.6,80.9,7,80.9z"/>
<path class="st1" d="M7,95.1h5.9c1.3,0,2.5-0.9,2.8-2.1c0.2-0.5,0.2-1.1,0-1.6c-0.3-1.3-1.5-2.2-2.8-2.2H7c-1.3,0-2.5,0.9-2.8,2.2
	c-0.2,0.5-0.2,1.1,0,1.6C4.5,94.2,5.7,95.1,7,95.1z"/>
<path class="st2" d="M201.7,100.3h2.1c0.6,0,1-0.5,1-1v-0.5h-4.1v0.5C200.7,99.8,201.1,100.3,201.7,100.3"/>
<path class="st2" d="M203.8,88.6h-2.1c-0.6,0-1,0.5-1,1v0.5h4.1v-0.5C204.8,89,204.3,88.6,203.8,88.6"/>
<path class="st3" d="M200.5,90.2c0-0.3,0.2-0.5,0.5-0.5h3.4c0.3,0,0.5,0.2,0.5,0.5v8.5c0,0.3-0.2,0.5-0.5,0.5H201
	c-0.3,0-0.5-0.2-0.5-0.5V90.2z"/>
<path class="st4" d="M200.5,90.2c0-0.3,0.2-0.5,0.5-0.5h3.4c0.3,0,0.5,0.2,0.5,0.5v8.5c0,0.3-0.2,0.5-0.5,0.5H201
	c-0.3,0-0.5-0.2-0.5-0.5V90.2z"/>
<path class="st3" d="M200.5,90.2c0-0.3,0.2-0.5,0.5-0.5h3.4c0.3,0,0.5,0.2,0.5,0.5v8.5c0,0.3-0.2,0.5-0.5,0.5H201
	c-0.3,0-0.5-0.2-0.5-0.5V90.2z"/>
<path class="st3" d="M192.7,96.7c-0.1,3.8-3.2,6.8-7,6.7h-3.4c-3.8,0.1-6.9-2.9-7-6.7v-3.7c0.1-3.8,3.2-6.8,7-6.7h3.4
	c3.8-0.1,6.9,2.9,7,6.7V96.7z"/>
<path class="st4" d="M192.7,96.7c-0.1,3.8-3.2,6.8-7,6.7h-3.4c-3.8,0.1-6.9-2.9-7-6.7v-3.7c0.1-3.8,3.2-6.8,7-6.7h3.4
	c3.8-0.1,6.9,2.9,7,6.7V96.7z"/>
<path class="st3" d="M192.7,96.7c-0.1,3.8-3.2,6.8-7,6.7h-3.4c-3.8,0.1-6.9-2.9-7-6.7v-3.7c0.1-3.8,3.2-6.8,7-6.7h3.4
	c3.8-0.1,6.9,2.9,7,6.7V96.7z"/>
<g id="LWPOLYLINE">
	<path class="st5" d="M23.5,98.3c-0.1,0.7-0.7,1.2-1.4,1.2H3.2c-0.7,0.1-1.4-0.5-1.4-1.2v-55c0.1-0.7,0.7-1.2,1.4-1.2H22
		c0.7-0.1,1.4,0.5,1.4,1.2V98.3z"/>
</g>
<g id="LWPOLYLINE-2" class="st6">
	<path class="st7" d="M23.5,98.3c-0.1,0.7-0.7,1.2-1.4,1.2H3.2c-0.7,0.1-1.4-0.5-1.4-1.2v-55c0.1-0.7,0.7-1.2,1.4-1.2H22
		c0.7-0.1,1.4,0.5,1.4,1.2V98.3z"/>
</g>
<path class="st8" d="M4,42.2H3.2c-0.7-0.1-1.4,0.5-1.4,1.2v55c0.1,0.7,0.7,1.2,1.4,1.2H4V42.2z"/>
<path class="st9" d="M4,42.2H3.2c-0.7-0.1-1.4,0.5-1.4,1.2v55c0.1,0.7,0.7,1.2,1.4,1.2H4V42.2z"/>
<rect x="3.8" y="42.2" class="st10" width="13.6" height="57.3"/>
<rect x="3.8" y="42.2" class="st11" width="13.6" height="57.3"/>
<g id="CIRCLE">
	<path class="st12" d="M9.5,52.7c-1.8,0-3.2-1.4-3.2-3.2c0-1.8,1.4-3.2,3.2-3.2c1.8,0,3.2,1.4,3.2,3.2C12.8,51.2,11.3,52.7,9.5,52.7
		z M9.5,47.5c-1.1,0-2,0.9-2,2s0.9,2,2,2c1.1,0,2-0.9,2-2c0,0,0,0,0,0C11.5,48.4,10.6,47.5,9.5,47.5z"/>
</g>
<g id="INSERT">
	<g id="CIRCLE-2">
		<path class="st13" d="M14.3,49.7c0-2.4-2-4.4-4.4-4.4c-2.4,0-4.4,2-4.4,4.4c0,2.4,2,4.4,4.4,4.4c0,0,0,0,0,0
			C12.3,54.1,14.3,52.1,14.3,49.7C14.3,49.7,14.3,49.7,14.3,49.7z"/>
	</g>
</g>
<line class="st14" x1="7.6" y1="53.4" x2="12.2" y2="46"/>
<g id="CIRCLE-3">
	<path class="st12" d="M9.5,66.8c-1.8,0-3.2-1.4-3.2-3.2s1.4-3.2,3.2-3.2s3.2,1.4,3.2,3.2C12.8,65.4,11.3,66.8,9.5,66.8z M9.5,61.6
		c-1.1,0-2,0.9-2,2s0.9,2,2,2c1.1,0,2-0.9,2-2c0,0,0,0,0,0C11.5,62.5,10.6,61.6,9.5,61.6z"/>
</g>
<g id="INSERT-2">
	<g id="CIRCLE-4">
		<path class="st13" d="M14.3,63.9c0-2.4-2-4.4-4.4-4.4c-2.4,0-4.4,2-4.4,4.4c0,2.4,2,4.4,4.4,4.4c0,0,0,0,0,0
			C12.3,68.2,14.3,66.3,14.3,63.9C14.3,63.9,14.3,63.9,14.3,63.9z"/>
	</g>
</g>
<line class="st14" x1="7.6" y1="67.6" x2="12.2" y2="60.1"/>
<g id="CIRCLE-5">
	<path class="st12" d="M9.5,80.8c-1.8,0-3.2-1.4-3.2-3.2c0-1.8,1.4-3.2,3.2-3.2c1.8,0,3.2,1.4,3.2,3.2C12.8,79.3,11.3,80.8,9.5,80.8
		z M9.5,75.6c-1.1,0-2,0.9-2,2s0.9,2,2,2s2-0.9,2-2c0,0,0,0,0,0C11.5,76.5,10.6,75.6,9.5,75.6z"/>
</g>
<g id="INSERT-3">
	<g id="CIRCLE-6">
		<path class="st13" d="M14.3,77.8c0-2.4-2-4.4-4.4-4.4c-2.4,0-4.4,2-4.4,4.4s2,4.4,4.4,4.4c0,0,0,0,0,0
			C12.3,82.2,14.3,80.2,14.3,77.8C14.3,77.8,14.3,77.8,14.3,77.8z"/>
	</g>
</g>
<line class="st14" x1="7.6" y1="81.5" x2="12.2" y2="74.1"/>
<g id="CIRCLE-7">
	<path class="st12" d="M9.5,95.1c-1.8,0-3.2-1.4-3.2-3.2s1.4-3.2,3.2-3.2s3.2,1.4,3.2,3.2C12.8,93.6,11.3,95.1,9.5,95.1z M9.5,89.9
		c-1.1,0-2,0.9-2,2c0,1.1,0.9,2,2,2c1.1,0,2-0.9,2-2c0,0,0,0,0,0C11.5,90.7,10.6,89.9,9.5,89.9L9.5,89.9z"/>
</g>
<g id="INSERT-4">
	<g id="CIRCLE-8">
		<path class="st13" d="M14.3,92.1c0-2.4-2-4.4-4.4-4.4c-2.4,0-4.4,2-4.4,4.4s2,4.4,4.4,4.4c0,0,0,0,0,0
			C12.3,96.5,14.3,94.5,14.3,92.1C14.3,92.1,14.3,92.1,14.3,92.1z"/>
	</g>
</g>
<line class="st14" x1="7.6" y1="95.8" x2="12.2" y2="88.4"/>
<circle class="st3" cx="5.6" cy="56.8" r="0.8"/>
<circle class="st3" cx="5.6" cy="56.8" r="0.8"/>
<circle class="st3" cx="5.6" cy="70.9" r="0.8"/>
<circle class="st3" cx="5.6" cy="70.9" r="0.8"/>
<circle class="st3" cx="5.6" cy="84.9" r="0.8"/>
<circle class="st3" cx="5.6" cy="84.9" r="0.8"/>
<circle class="st3" cx="15.6" cy="56.8" r="0.8"/>
<circle class="st3" cx="15.6" cy="56.8" r="0.8"/>
<circle class="st3" cx="15.6" cy="70.9" r="0.8"/>
<circle class="st3" cx="15.6" cy="70.9" r="0.8"/>
<circle class="st3" cx="15.6" cy="84.9" r="0.8"/>
<circle class="st3" cx="15.6" cy="84.9" r="0.8"/>
<path class="st2" d="M53.5,68.9c0-0.3-0.2-0.6-0.5-0.6h-0.2c-0.3,0-0.5,0.3-0.5,0.6v3.2c0,0.3,0.2,0.6,0.5,0.6H53
	c0.3,0,0.5-0.3,0.5-0.6V68.9z"/>
<path class="st2" d="M55.3,68.9c0-0.3-0.2-0.6-0.5-0.6h-0.2c-0.3,0-0.5,0.3-0.5,0.6v3.2c0,0.3,0.2,0.6,0.5,0.6h0.2
	c0.3,0,0.5-0.3,0.5-0.6V68.9z"/>
<path class="st2" d="M57.2,68.9c0-0.3-0.2-0.6-0.5-0.6h-0.2c-0.3,0-0.5,0.3-0.5,0.6v3.2c0,0.3,0.2,0.6,0.5,0.6h0.2
	c0.3,0,0.5-0.3,0.5-0.6V68.9z"/>
<path class="st2" d="M59,68.9c0-0.3-0.2-0.6-0.5-0.6h-0.2c-0.3,0-0.5,0.3-0.5,0.6v3.2c0,0.3,0.2,0.6,0.5,0.6h0.2
	c0.3,0,0.5-0.3,0.5-0.6V68.9z"/>
<path class="st2" d="M60.9,68.9c0-0.3-0.2-0.6-0.5-0.6h-0.2c-0.3,0-0.5,0.3-0.5,0.6v3.2c0,0.3,0.2,0.6,0.5,0.6h0.2
	c0.3,0,0.5-0.3,0.5-0.6V68.9z"/>
<path class="st2" d="M62.7,68.9c0-0.3-0.2-0.6-0.5-0.6H62c-0.3,0-0.5,0.3-0.5,0.6v3.2c0,0.3,0.2,0.6,0.5,0.6h0.2
	c0.3,0,0.5-0.3,0.5-0.6V68.9z"/>
<path class="st2" d="M64.5,68.9c0-0.3-0.2-0.6-0.5-0.6h-0.2c-0.3,0-0.5,0.3-0.5,0.6v3.2c0,0.3,0.2,0.6,0.5,0.6h0.2
	c0.3,0,0.5-0.3,0.5-0.6V68.9z"/>
<path class="st2" d="M66.4,68.9c0-0.3-0.2-0.6-0.5-0.6h-0.2c-0.3,0-0.5,0.3-0.5,0.6v3.2c0,0.3,0.2,0.6,0.5,0.6h0.2
	c0.3,0,0.5-0.3,0.5-0.6V68.9z"/>
<path class="st2" d="M68.2,68.9c0-0.3-0.2-0.6-0.5-0.6h-0.2c-0.3,0-0.5,0.3-0.5,0.6v3.2c0,0.3,0.2,0.6,0.5,0.6h0.2
	c0.3,0,0.5-0.3,0.5-0.6V68.9z"/>
<path class="st2" d="M70.1,68.9c0-0.3-0.2-0.6-0.5-0.6h-0.2c-0.3,0-0.5,0.3-0.5,0.6v3.2c0,0.3,0.2,0.6,0.5,0.6h0.2
	c0.3,0,0.5-0.3,0.5-0.6V68.9z"/>
<path class="st2" d="M53.5,58.7c0,0.3-0.2,0.6-0.5,0.6h-0.2c-0.3,0-0.5-0.3-0.5-0.6v-3.2c0-0.3,0.2-0.6,0.5-0.6H53
	c0.3,0,0.5,0.3,0.5,0.6V58.7z"/>
<path class="st2" d="M55.3,58.7c0,0.3-0.2,0.6-0.5,0.6h-0.2c-0.3,0-0.5-0.3-0.5-0.6v-3.2c0-0.3,0.2-0.6,0.5-0.6h0.2
	c0.3,0,0.5,0.3,0.5,0.6V58.7z"/>
<path class="st2" d="M57.2,58.7c0,0.3-0.2,0.6-0.5,0.6h-0.2c-0.3,0-0.5-0.3-0.5-0.6v-3.2c0-0.3,0.2-0.6,0.5-0.6h0.2
	c0.3,0,0.5,0.3,0.5,0.6V58.7z"/>
<path class="st2" d="M59,58.7c0,0.3-0.2,0.6-0.5,0.6h-0.2c-0.3,0-0.5-0.3-0.5-0.6v-3.2c0-0.3,0.2-0.6,0.5-0.6h0.2
	c0.3,0,0.5,0.3,0.5,0.6V58.7z"/>
<path class="st2" d="M60.9,58.7c0,0.3-0.2,0.6-0.5,0.6h-0.2c-0.3,0-0.5-0.3-0.5-0.6v-3.2c0-0.3,0.2-0.6,0.5-0.6h0.2
	c0.3,0,0.5,0.3,0.5,0.6V58.7z"/>
<path class="st2" d="M62.7,58.7c0,0.3-0.2,0.6-0.5,0.6H62c-0.3,0-0.5-0.3-0.5-0.6v-3.2c0-0.3,0.2-0.6,0.5-0.6h0.2
	c0.3,0,0.5,0.3,0.5,0.6V58.7z"/>
<path class="st2" d="M64.5,58.7c0,0.3-0.2,0.6-0.5,0.6h-0.2c-0.3,0-0.5-0.3-0.5-0.6v-3.2c0-0.3,0.2-0.6,0.5-0.6h0.2
	c0.3,0,0.5,0.3,0.5,0.6V58.7z"/>
<path class="st2" d="M66.4,58.7c0,0.3-0.2,0.6-0.5,0.6h-0.2c-0.3,0-0.5-0.3-0.5-0.6v-3.2c0-0.3,0.2-0.6,0.5-0.6h0.2
	c0.3,0,0.5,0.3,0.5,0.6V58.7z"/>
<path class="st2" d="M68.2,58.7c0,0.3-0.2,0.6-0.5,0.6h-0.2c-0.3,0-0.5-0.3-0.5-0.6v-3.2c0-0.3,0.2-0.6,0.5-0.6h0.2
	c0.3,0,0.5,0.3,0.5,0.6V58.7z"/>
<path class="st2" d="M70.1,58.7c0,0.3-0.2,0.6-0.5,0.6h-0.2c-0.3,0-0.5-0.3-0.5-0.6v-3.2c0-0.3,0.2-0.6,0.5-0.6h0.2
	c0.3,0,0.5,0.3,0.5,0.6V58.7z"/>
<rect x="52" y="57" class="st3" width="18.2" height="13.6"/>
<rect x="52" y="57" class="st4" width="18.2" height="13.6"/>
<rect x="52" y="57" class="st3" width="18.2" height="13.6"/>
<g id="pin">
	<rect x="71.9" y="38.5" class="st3" width="7.2" height="7.2"/>
	<path class="st3" d="M79.1,38.5v7.2h7.2v-7.2H79.1z"/>
	<path class="st3" d="M86.3,38.5v7.2h7.2v-7.2H86.3z"/>
	<path class="st3" d="M93.5,38.5v7.2h7.2v-7.2H93.5z"/>
	<path class="st3" d="M64.7,38.5v7.2h7.2v-7.2H64.7z"/>
	<path class="st3" d="M107.8,38.5v7.2h7.2v-7.2H107.8z"/>
	<path class="st3" d="M100.6,38.5v7.2h7.2v-7.2H100.6z"/>
	<path class="st3" d="M115,38.5v7.2h7.2v-7.2H115z"/>
	<path class="st3" d="M129.4,38.5v7.2h7.2v-7.2H129.4z"/>
	<path class="st3" d="M122.2,38.5v7.2h7.2v-7.2H122.2z"/>
	<rect x="71.9" y="38.5" class="st4" width="7.2" height="7.2"/>
	<path class="st4" d="M79.1,38.5v7.2h7.2v-7.2H79.1z"/>
	<path class="st4" d="M86.3,38.5v7.2h7.2v-7.2H86.3z"/>
	<path class="st4" d="M93.5,38.5v7.2h7.2v-7.2H93.5z"/>
	<path class="st4" d="M64.7,38.5v7.2h7.2v-7.2H64.7z"/>
	<path class="st4" d="M107.8,38.5v7.2h7.2v-7.2H107.8z"/>
	<path class="st4" d="M100.6,38.5v7.2h7.2v-7.2H100.6z"/>
	<path class="st4" d="M115,38.5v7.2h7.2v-7.2H115z"/>
	<path class="st4" d="M129.4,38.5v7.2h7.2v-7.2H129.4z"/>
	<path class="st4" d="M122.2,38.5v7.2h7.2v-7.2H122.2z"/>
	<rect x="71.9" y="38.5" class="st3" width="7.2" height="7.2"/>
	<path class="st3" d="M79.1,38.5v7.2h7.2v-7.2H79.1z"/>
	<path class="st3" d="M86.3,38.5v7.2h7.2v-7.2H86.3z"/>
	<path class="st3" d="M93.5,38.5v7.2h7.2v-7.2H93.5z"/>
	<path class="st3" d="M64.7,38.5v7.2h7.2v-7.2H64.7z"/>
	<path class="st3" d="M107.8,38.5v7.2h7.2v-7.2H107.8z"/>
	<path class="st3" d="M100.6,38.5v7.2h7.2v-7.2H100.6z"/>
	<path class="st3" d="M115,38.5v7.2h7.2v-7.2H115z"/>
	<path class="st3" d="M129.4,38.5v7.2h7.2v-7.2H129.4z"/>
	<path class="st3" d="M122.2,38.5v7.2h7.2v-7.2H122.2z"/>
	<polygon class="st15" points="84.5,40.3 80.9,40.3 80.9,40.3 80.9,43.9 80.9,43.9 84.5,43.9 84.5,43.9 84.5,43.9 	"/>
	<polygon class="st15" points="77.3,40.3 73.7,40.3 73.7,40.3 73.7,43.9 73.7,43.9 77.3,43.9 77.3,43.9 77.3,43.9 	"/>
	<polygon class="st15" points="70.1,40.3 66.5,40.3 66.5,40.3 66.5,43.9 66.5,43.9 70.1,43.9 70.1,43.9 70.1,43.9 	"/>
	<polygon class="st15" points="113.2,40.3 109.6,40.3 109.6,40.3 109.6,43.9 109.6,43.9 113.2,43.9 113.2,43.9 113.2,43.9 	"/>
	<polygon class="st15" points="131.2,40.3 131.2,43.9 131.2,43.9 134.8,43.9 134.8,43.9 134.8,40.3 134.8,40.3 134.8,40.3 	"/>
	<polygon class="st15" points="116.8,40.3 116.8,43.9 116.8,43.9 120.4,43.9 120.4,43.9 120.4,40.3 120.4,40.3 120.4,40.3 	"/>
	<polygon class="st15" points="102.4,40.3 102.4,43.9 102.4,43.9 106,43.9 106,43.9 106,40.3 106,40.3 106,40.3 	"/>
	<polygon class="st15" points="95.3,40.3 95.3,43.9 95.3,43.9 98.9,43.9 98.9,43.9 98.9,40.3 98.9,40.3 98.9,40.3 	"/>
	<polygon class="st15" points="88.1,40.3 88.1,43.9 88.1,43.9 91.7,43.9 91.7,43.9 91.7,40.3 91.7,40.3 91.7,40.3 	"/>
	<polygon class="st15" points="124,40.3 124,43.9 124,43.9 127.6,43.9 127.6,43.9 127.6,40.3 127.6,40.3 127.6,40.3 	"/>
	<rect x="143.8" y="38.5" class="st3" width="7.2" height="7.2"/>
	<path class="st3" d="M151,38.5v7.2h7.2v-7.2H151z"/>
	<path class="st3" d="M158.2,38.5v7.2h7.2v-7.2H158.2z"/>
	<path class="st3" d="M136.6,38.5v7.2h7.2v-7.2H136.6z"/>
	<rect x="143.8" y="38.5" class="st4" width="7.2" height="7.2"/>
	<path class="st4" d="M151,38.5v7.2h7.2v-7.2H151z"/>
	<path class="st4" d="M158.2,38.5v7.2h7.2v-7.2H158.2z"/>
	<path class="st4" d="M136.6,38.5v7.2h7.2v-7.2H136.6z"/>
	<rect x="143.8" y="38.5" class="st3" width="7.2" height="7.2"/>
	<path class="st3" d="M151,38.5v7.2h7.2v-7.2H151z"/>
	<path class="st3" d="M158.2,38.5v7.2h7.2v-7.2H158.2z"/>
	<path class="st3" d="M136.6,38.5v7.2h7.2v-7.2H136.6z"/>
	<polygon class="st15" points="156.4,40.3 152.8,40.3 152.8,40.3 152.8,43.9 152.8,43.9 156.4,43.9 156.4,43.9 156.4,43.9 	"/>
	<polygon class="st15" points="149.2,40.3 145.6,40.3 145.6,40.3 145.6,43.9 145.6,43.9 149.2,43.9 149.2,43.9 149.2,43.9 	"/>
	<polygon class="st15" points="142,40.3 138.4,40.3 138.4,40.3 138.4,43.9 138.4,43.9 142,43.9 142,43.9 142,43.9 	"/>
	<polygon class="st15" points="160,40.3 160,43.9 160,43.9 163.6,43.9 163.6,43.9 163.6,40.3 163.6,40.3 163.6,40.3 	"/>
</g>
<path class="st2" d="M76.2,68.9c0-0.3-0.2-0.6-0.5-0.6h-0.2c-0.3,0-0.5,0.3-0.5,0.6v3.2c0,0.3,0.2,0.6,0.5,0.6h0.2
	c0.3,0,0.5-0.3,0.5-0.6V68.9z"/>
<path class="st2" d="M78.1,68.9c0-0.3-0.2-0.6-0.5-0.6h-0.2c-0.3,0-0.5,0.3-0.5,0.6v3.2c0,0.3,0.2,0.6,0.5,0.6h0.2
	c0.3,0,0.5-0.3,0.5-0.6V68.9z"/>
<path class="st2" d="M79.9,68.9c0-0.3-0.2-0.6-0.5-0.6h-0.2c-0.3,0-0.5,0.3-0.5,0.6v3.2c0,0.3,0.2,0.6,0.5,0.6h0.2
	c0.3,0,0.5-0.3,0.5-0.6V68.9z"/>
<path class="st2" d="M81.8,68.9c0-0.3-0.2-0.6-0.5-0.6h-0.2c-0.3,0-0.5,0.3-0.5,0.6v3.2c0,0.3,0.2,0.6,0.5,0.6h0.2
	c0.3,0,0.5-0.3,0.5-0.6V68.9z"/>
<path class="st2" d="M83.6,68.9c0-0.3-0.2-0.6-0.5-0.6H83c-0.3,0-0.5,0.3-0.5,0.6v3.2c0,0.3,0.2,0.6,0.5,0.6h0.2
	c0.3,0,0.5-0.3,0.5-0.6V68.9z"/>
<path class="st2" d="M85.5,68.9c0-0.3-0.2-0.6-0.5-0.6h-0.2c-0.3,0-0.5,0.3-0.5,0.6v3.2c0,0.3,0.2,0.6,0.5,0.6H85
	c0.3,0,0.5-0.3,0.5-0.6V68.9z"/>
<path class="st2" d="M87.3,68.9c0-0.3-0.2-0.6-0.5-0.6h-0.2c-0.3,0-0.5,0.3-0.5,0.6v3.2c0,0.3,0.2,0.6,0.5,0.6h0.2
	c0.3,0,0.5-0.3,0.5-0.6V68.9z"/>
<path class="st2" d="M89.1,68.9c0-0.3-0.2-0.6-0.5-0.6h-0.2c-0.3,0-0.5,0.3-0.5,0.6v3.2c0,0.3,0.2,0.6,0.5,0.6h0.2
	c0.3,0,0.5-0.3,0.5-0.6V68.9z"/>
<path class="st2" d="M91,68.9c0-0.3-0.2-0.6-0.5-0.6h-0.2c-0.3,0-0.5,0.3-0.5,0.6v3.2c0,0.3,0.2,0.6,0.5,0.6h0.2
	c0.3,0,0.5-0.3,0.5-0.6V68.9z"/>
<path class="st2" d="M92.8,68.9c0-0.3-0.2-0.6-0.5-0.6h-0.2c-0.3,0-0.5,0.3-0.5,0.6v3.2c0,0.3,0.2,0.6,0.5,0.6h0.2
	c0.3,0,0.5-0.3,0.5-0.6V68.9z"/>
<path class="st2" d="M76.2,58.7c0,0.3-0.2,0.6-0.5,0.6h-0.2c-0.3,0-0.5-0.3-0.5-0.6v-3.2c0-0.3,0.2-0.6,0.5-0.6h0.2
	c0.3,0,0.5,0.3,0.5,0.6V58.7z"/>
<path class="st2" d="M78.1,58.7c0,0.3-0.2,0.6-0.5,0.6h-0.2c-0.3,0-0.5-0.3-0.5-0.6v-3.2c0-0.3,0.2-0.6,0.5-0.6h0.2
	c0.3,0,0.5,0.3,0.5,0.6V58.7z"/>
<path class="st2" d="M79.9,58.7c0,0.3-0.2,0.6-0.5,0.6h-0.2c-0.3,0-0.5-0.3-0.5-0.6v-3.2c0-0.3,0.2-0.6,0.5-0.6h0.2
	c0.3,0,0.5,0.3,0.5,0.6V58.7z"/>
<path class="st2" d="M81.8,58.7c0,0.3-0.2,0.6-0.5,0.6h-0.2c-0.3,0-0.5-0.3-0.5-0.6v-3.2c0-0.3,0.2-0.6,0.5-0.6h0.2
	c0.3,0,0.5,0.3,0.5,0.6V58.7z"/>
<path class="st2" d="M83.6,58.7c0,0.3-0.2,0.6-0.5,0.6H83c-0.3,0-0.5-0.3-0.5-0.6v-3.2c0-0.3,0.2-0.6,0.5-0.6h0.2
	c0.3,0,0.5,0.3,0.5,0.6V58.7z"/>
<path class="st2" d="M85.5,58.7c0,0.3-0.2,0.6-0.5,0.6h-0.2c-0.3,0-0.5-0.3-0.5-0.6v-3.2c0-0.3,0.2-0.6,0.5-0.6H85
	c0.3,0,0.5,0.3,0.5,0.6V58.7z"/>
<path class="st2" d="M87.3,58.7c0,0.3-0.2,0.6-0.5,0.6h-0.2c-0.3,0-0.5-0.3-0.5-0.6v-3.2c0-0.3,0.2-0.6,0.5-0.6h0.2
	c0.3,0,0.5,0.3,0.5,0.6V58.7z"/>
<path class="st2" d="M89.1,58.7c0,0.3-0.2,0.6-0.5,0.6h-0.2c-0.3,0-0.5-0.3-0.5-0.6v-3.2c0-0.3,0.2-0.6,0.5-0.6h0.2
	c0.3,0,0.5,0.3,0.5,0.6V58.7z"/>
<path class="st2" d="M91,58.7c0,0.3-0.2,0.6-0.5,0.6h-0.2c-0.3,0-0.5-0.3-0.5-0.6v-3.2c0-0.3,0.2-0.6,0.5-0.6h0.2
	c0.3,0,0.5,0.3,0.5,0.6V58.7z"/>
<path class="st2" d="M92.8,58.7c0,0.3-0.2,0.6-0.5,0.6h-0.2c-0.3,0-0.5-0.3-0.5-0.6v-3.2c0-0.3,0.2-0.6,0.5-0.6h0.2
	c0.3,0,0.5,0.3,0.5,0.6V58.7z"/>
<rect x="74.8" y="57" class="st3" width="18.2" height="13.6"/>
<rect x="74.8" y="57" class="st4" width="18.2" height="13.6"/>
<rect x="74.8" y="57" class="st3" width="18.2" height="13.6"/>
<rect x="200" y="69.8" class="st2" width="2.2" height="1.8"/>
<path class="st1" d="M202.2,71.6v-1.8c0.5,0,0.9,0.4,0.9,0.9C203.2,71.2,202.8,71.6,202.2,71.6C202.2,71.6,202.2,71.6,202.2,71.6z"
	/>
<rect x="200" y="72.4" class="st2" width="2.2" height="1.8"/>
<path class="st1" d="M202.2,74.2v-1.8c0.5,0,0.9,0.4,0.9,0.9C203.2,73.8,202.8,74.2,202.2,74.2C202.2,74.2,202.2,74.2,202.2,74.2z"
	/>
<rect x="200" y="75" class="st2" width="2.2" height="1.8"/>
<path class="st1" d="M202.2,76.8V75c0.5,0,0.9,0.4,0.9,0.9C203.2,76.4,202.7,76.8,202.2,76.8C202.2,76.8,202.2,76.8,202.2,76.8z"/>
<rect x="200" y="77.6" class="st2" width="2.2" height="1.8"/>
<path class="st1" d="M202.2,79.4v-1.8c0.5,0,0.9,0.4,0.9,0.9C203.2,79,202.8,79.4,202.2,79.4C202.2,79.4,202.2,79.4,202.2,79.4z"/>
<rect x="187.2" y="69.8" class="st2" width="2.2" height="1.8"/>
<path class="st1" d="M187.2,71.6v-1.8c-0.5,0-0.9,0.4-0.9,0.9C186.3,71.2,186.7,71.6,187.2,71.6C187.2,71.6,187.2,71.6,187.2,71.6z"
	/>
<rect x="187.2" y="72.4" class="st2" width="2.2" height="1.8"/>
<path class="st1" d="M187.2,74.2v-1.8c-0.5,0-0.9,0.4-0.9,0.9C186.3,73.8,186.7,74.2,187.2,74.2C187.2,74.2,187.2,74.2,187.2,74.2z"
	/>
<rect x="187.2" y="75" class="st2" width="2.2" height="1.8"/>
<path class="st1" d="M187.2,76.8V75c-0.5,0-0.9,0.4-0.9,0.9C186.3,76.4,186.7,76.8,187.2,76.8C187.2,76.8,187.2,76.8,187.2,76.8z"/>
<rect x="187.2" y="77.6" class="st2" width="2.2" height="1.8"/>
<path class="st1" d="M187.2,79.4v-1.8c-0.5,0-0.9,0.4-0.9,0.9C186.3,79,186.7,79.4,187.2,79.4C187.2,79.4,187.2,79.4,187.2,79.4z"/>
<path class="st3" d="M189.1,68.8c-0.1-0.6,0.4-1.2,1-1.3h9.2c0.6,0.1,1.1,0.7,1,1.3v11.6c0.1,0.6-0.4,1.2-1,1.3l-9.2,0
	c-0.6-0.1-1.1-0.7-1-1.3V68.8z"/>
<path class="st4" d="M189.1,68.8c-0.1-0.6,0.4-1.2,1-1.3h9.2c0.6,0.1,1.1,0.7,1,1.3v11.6c0.1,0.6-0.4,1.2-1,1.3l-9.2,0
	c-0.6-0.1-1.1-0.7-1-1.3V68.8z"/>
<path class="st3" d="M189.1,68.8c-0.1-0.6,0.4-1.2,1-1.3h9.2c0.6,0.1,1.1,0.7,1,1.3v11.6c0.1,0.6-0.4,1.2-1,1.3l-9.2,0
	c-0.6-0.1-1.1-0.7-1-1.3V68.8z"/>
<g id="Artwork_3">
	<path class="st2" d="M209.3,81.6v1.9c0,0,0,0,0,0h-1.9c0,0,0,0,0,0v-1.9c0,0,0,0,0,0L209.3,81.6C209.3,81.5,209.3,81.6,209.3,81.6
		L209.3,81.6z"/>
	<path class="st2" d="M209.3,79.4v1.9c0,0,0,0,0,0h-1.9c0,0,0,0,0,0v-1.9c0,0,0,0,0,0L209.3,79.4C209.3,79.4,209.3,79.4,209.3,79.4z
		"/>
	<path class="st13" d="M207.5,80.6L207.5,80.6l0,0.8v0.1l0,0.8h0c0,0.5,0.4,0.8,0.9,0.8c0.4,0,0.8-0.4,0.8-0.8h0l0-0.8v-0.1l0-0.8
		c0-0.5-0.4-0.8-0.8-0.8C207.9,79.8,207.5,80.2,207.5,80.6C207.5,80.6,207.5,80.6,207.5,80.6L207.5,80.6z"/>
	<rect x="207.5" y="80.8" class="st3" width="1.7" height="1.2"/>
	<rect x="207.5" y="80.8" class="st4" width="1.7" height="1.2"/>
	<rect x="207.5" y="80.8" class="st3" width="1.7" height="1.2"/>
</g>
<g id="Artwork_3-2">
	<path class="st2" d="M209.3,67.9v1.9c0,0,0,0,0,0h-1.9c0,0,0,0,0,0v-1.9c0,0,0,0,0,0L209.3,67.9C209.3,67.8,209.3,67.9,209.3,67.9z
		"/>
	<path class="st2" d="M209.3,65.7v1.9c0,0,0,0,0,0h-1.9c0,0,0,0,0,0v-1.9c0,0,0,0,0,0L209.3,65.7C209.3,65.7,209.3,65.7,209.3,65.7z
		"/>
	<path class="st13" d="M207.5,66.9L207.5,66.9l0,0.8v0.1l0,0.8h0c0,0.5,0.4,0.8,0.9,0.8c0.4,0,0.8-0.4,0.8-0.8h0l0-0.8v-0.1l0-0.8
		c0-0.5-0.4-0.8-0.8-0.8S207.5,66.5,207.5,66.9C207.5,66.9,207.5,66.9,207.5,66.9L207.5,66.9z"/>
	<rect x="207.5" y="67.1" class="st3" width="1.7" height="1.2"/>
	<rect x="207.5" y="67.1" class="st4" width="1.7" height="1.2"/>
	<rect x="207.5" y="67.1" class="st3" width="1.7" height="1.2"/>
</g>
<g id="Artwork_3-3">
	<path class="st2" d="M181.8,74.1V76c0,0,0,0,0,0h-1.9c0,0,0,0,0,0v-1.9c0,0,0,0,0,0L181.8,74.1C181.8,74.1,181.8,74.1,181.8,74.1
		L181.8,74.1z"/>
	<path class="st2" d="M181.8,71.9v1.9c0,0,0,0,0,0h-1.9c0,0,0,0,0,0v-1.9c0,0,0,0,0,0L181.8,71.9C181.8,71.9,181.8,71.9,181.8,71.9z
		"/>
	<path class="st13" d="M180,73.2L180,73.2l0,0.8v0.1l0,0.8h0c0,0.5,0.4,0.8,0.9,0.8c0.4,0,0.8-0.4,0.8-0.8h0l0-0.8V74l0-0.8
		c0-0.5-0.4-0.8-0.8-0.8C180.4,72.3,180,72.7,180,73.2C180,73.2,180,73.2,180,73.2L180,73.2z"/>
	<rect x="180" y="73.4" class="st3" width="1.7" height="1.2"/>
	<rect x="180" y="73.4" class="st4" width="1.7" height="1.2"/>
	<rect x="180" y="73.4" class="st3" width="1.7" height="1.2"/>
</g>
<g id="Artwork_3-4">
	<path class="st2" d="M181.8,79.6v1.9c0,0,0,0,0,0h-1.9c0,0,0,0,0,0v-1.9c0,0,0,0,0,0L181.8,79.6C181.8,79.6,181.8,79.6,181.8,79.6
		L181.8,79.6z"/>
	<path class="st2" d="M181.8,77.5v1.9c0,0,0,0,0,0h-1.9c0,0,0,0,0,0v-1.9c0,0,0,0,0,0L181.8,77.5C181.8,77.4,181.8,77.4,181.8,77.5z
		"/>
	<path class="st13" d="M180,78.7L180,78.7l0,0.8v0.1l0,0.8h0c0,0.5,0.4,0.8,0.8,0.8c0.4,0,0.8-0.4,0.8-0.8h0l0-0.8v-0.1l0-0.8
		c0-0.5-0.4-0.8-0.8-0.8C180.4,77.8,180,78.2,180,78.7C180,78.7,180,78.7,180,78.7L180,78.7z"/>
	<rect x="180" y="78.9" class="st3" width="1.7" height="1.2"/>
	<rect x="180" y="78.9" class="st4" width="1.7" height="1.2"/>
	<rect x="180" y="78.9" class="st3" width="1.7" height="1.2"/>
</g>
<g id="Artwork_3-5">
	<path class="st2" d="M178.1,67.2v1.9c0,0,0,0,0,0h-1.9c0,0,0,0,0,0v-1.9c0,0,0,0,0,0L178.1,67.2C178.1,67.2,178.1,67.2,178.1,67.2z
		"/>
	<path class="st2" d="M178.1,65.1V67c0,0,0,0,0,0h-1.9c0,0,0,0,0,0v-1.9c0,0,0,0,0,0L178.1,65.1C178.1,65,178.1,65,178.1,65.1z"/>
	<path class="st13" d="M176.3,66.3L176.3,66.3l0,0.8v0.1l0,0.8h0c0,0.5,0.4,0.8,0.9,0.8c0.4,0,0.8-0.4,0.8-0.8h0l0-0.8v-0.1l0-0.8
		c0-0.5-0.4-0.8-0.8-0.8C176.7,65.5,176.3,65.8,176.3,66.3L176.3,66.3z"/>
	<rect x="176.3" y="66.5" class="st3" width="1.7" height="1.2"/>
	<rect x="176.3" y="66.5" class="st4" width="1.7" height="1.2"/>
	<rect x="176.3" y="66.5" class="st3" width="1.7" height="1.2"/>
</g>
<g id="Artwork_3-6">
	<path class="st2" d="M177.6,72v1.9c0,0,0,0,0,0h-1.9c0,0,0,0,0,0V72c0,0,0,0,0,0L177.6,72C177.6,71.9,177.6,71.9,177.6,72z"/>
	<path class="st2" d="M175.5,72v1.9c0,0,0,0,0,0h-1.9c0,0,0,0,0,0V72c0,0,0,0,0,0L175.5,72C175.5,71.9,175.5,71.9,175.5,72z"/>
	<path class="st13" d="M174.8,73.8L174.8,73.8l0.8,0h0.1l0.8,0v0c0.5,0,0.8-0.4,0.8-0.9c0-0.4-0.4-0.8-0.8-0.8v0l-0.8,0h-0.1l-0.8,0
		c-0.5,0-0.8,0.4-0.8,0.8C173.9,73.4,174.3,73.7,174.8,73.8C174.7,73.8,174.8,73.8,174.8,73.8L174.8,73.8z"/>
	<rect x="174.9" y="72.1" class="st3" width="1.2" height="1.7"/>
	<rect x="174.9" y="72.1" class="st4" width="1.2" height="1.7"/>
	<rect x="174.9" y="72.1" class="st3" width="1.2" height="1.7"/>
</g>
<g id="Artwork_3-7">
	<path class="st2" d="M173.5,67.2v1.9c0,0,0,0,0,0h-1.9c0,0,0,0,0,0v-1.9c0,0,0,0,0,0L173.5,67.2C173.5,67.2,173.5,67.2,173.5,67.2z
		"/>
	<path class="st2" d="M171.3,67.2v1.9c0,0,0,0,0,0h-1.9c0,0,0,0,0,0v-1.9c0,0,0,0,0,0L171.3,67.2C171.3,67.2,171.3,67.2,171.3,67.2
		L171.3,67.2z"/>
	<path class="st13" d="M170.6,69L170.6,69l0.8,0h0.1l0.8,0v0c0.5,0,0.8-0.4,0.8-0.8c0-0.4-0.4-0.8-0.8-0.8v0l-0.8,0h-0.1l-0.8,0
		c-0.5,0-0.8,0.4-0.8,0.8C169.8,68.7,170.2,69,170.6,69C170.6,69,170.6,69,170.6,69L170.6,69z"/>
	<rect x="170.8" y="67.4" class="st3" width="1.2" height="1.7"/>
	<rect x="170.8" y="67.4" class="st4" width="1.2" height="1.7"/>
	<rect x="170.8" y="67.4" class="st3" width="1.2" height="1.7"/>
</g>
<g id="Artwork_3-8">
	<path class="st2" d="M215.6,71.6v1.9c0,0,0,0,0,0h-1.9c0,0,0,0,0,0v-1.9c0,0,0,0,0,0L215.6,71.6C215.5,71.6,215.6,71.6,215.6,71.6z
		"/>
	<path class="st2" d="M213.4,71.6v1.9c0,0,0,0,0,0h-1.9c0,0,0,0,0,0v-1.9c0,0,0,0,0,0L213.4,71.6C213.4,71.6,213.4,71.6,213.4,71.6
		L213.4,71.6z"/>
	<path class="st13" d="M212.7,73.4L212.7,73.4l0.8,0h0.1l0.8,0v0c0.5,0,0.8-0.4,0.8-0.9c0-0.4-0.4-0.8-0.8-0.8v0l-0.8,0h-0.1l-0.8,0
		c-0.5,0-0.8,0.4-0.8,0.8C211.8,73,212.2,73.4,212.7,73.4C212.7,73.4,212.7,73.4,212.7,73.4L212.7,73.4z"/>
	<rect x="212.9" y="71.7" class="st3" width="1.2" height="1.7"/>
	<rect x="212.9" y="71.7" class="st4" width="1.2" height="1.7"/>
	<rect x="212.9" y="71.7" class="st3" width="1.2" height="1.7"/>
</g>
<g id="Artwork_3-9">
	<path class="st2" d="M213.5,75.3v1.9c0,0,0,0,0,0h-1.9c0,0,0,0,0,0v-1.9c0,0,0,0,0,0L213.5,75.3C213.5,75.3,213.5,75.3,213.5,75.3z
		"/>
	<path class="st2" d="M211.3,75.3v1.9c0,0,0,0,0,0h-1.9c0,0,0,0,0,0v-1.9c0,0,0,0,0,0L211.3,75.3C211.3,75.3,211.3,75.3,211.3,75.3z
		"/>
	<path class="st13" d="M210.6,77.1L210.6,77.1l0.8,0h0.1l0.8,0v0c0.5,0,0.8-0.4,0.8-0.9c0-0.4-0.4-0.8-0.8-0.8v0l-0.8,0h-0.1l-0.8,0
		c-0.5,0-0.8,0.4-0.8,0.8C209.8,76.7,210.1,77.1,210.6,77.1C210.6,77.1,210.6,77.1,210.6,77.1L210.6,77.1z"/>
	<rect x="210.8" y="75.4" class="st3" width="1.2" height="1.7"/>
	<rect x="210.8" y="75.4" class="st4" width="1.2" height="1.7"/>
	<rect x="210.8" y="75.4" class="st3" width="1.2" height="1.7"/>
</g>
<g id="Artwork_3-10">
	<path class="st2" d="M207.6,25.6v1.9c0,0,0,0,0,0c0,0,0,0,0,0h-1.9c0,0,0,0,0,0v-1.9c0,0,0,0,0,0L207.6,25.6
		C207.6,25.6,207.6,25.6,207.6,25.6C207.6,25.6,207.6,25.6,207.6,25.6L207.6,25.6z"/>
	<path class="st2" d="M207.6,23.4v1.9c0,0,0,0,0,0c0,0,0,0,0,0h-1.9c0,0,0,0,0,0v-1.9c0,0,0,0,0,0c0,0,0,0,0,0L207.6,23.4
		C207.6,23.4,207.6,23.4,207.6,23.4z"/>
	<path class="st13" d="M205.8,24.7L205.8,24.7l0,0.8v0.1l0,0.8h0c0,0.5,0.4,0.8,0.8,0.8c0.4,0,0.8-0.4,0.8-0.8h0l0-0.8v-0.1l0-0.8
		c0-0.5-0.4-0.8-0.8-0.8C206.2,23.8,205.8,24.2,205.8,24.7C205.8,24.7,205.8,24.7,205.8,24.7L205.8,24.7z"/>
	<rect x="205.8" y="24.9" class="st3" width="1.7" height="1.2"/>
	<rect x="205.8" y="24.9" class="st4" width="1.7" height="1.2"/>
	<rect x="205.8" y="24.9" class="st3" width="1.7" height="1.2"/>
</g>
<g id="Artwork_3-11">
	<path class="st2" d="M204.4,25.6v1.9c0,0,0,0,0,0h-1.9c0,0,0,0,0,0v-1.9c0,0,0,0,0,0L204.4,25.6C204.4,25.6,204.4,25.6,204.4,25.6
		C204.4,25.6,204.4,25.6,204.4,25.6L204.4,25.6z"/>
	<path class="st2" d="M202.3,25.6v1.9c0,0,0,0,0,0h-1.9c0,0,0,0,0,0v-1.9c0,0,0,0,0,0c0,0,0,0,0,0L202.3,25.6
		C202.2,25.6,202.3,25.6,202.3,25.6z"/>
	<path class="st13" d="M201.5,27.4L201.5,27.4l0.8,0h0.1l0.8,0v0c0.5,0,0.8-0.4,0.8-0.8c0-0.4-0.4-0.8-0.8-0.8v0l-0.8,0h-0.1l-0.8,0
		c-0.5,0-0.8,0.4-0.8,0.8C200.7,27,201.1,27.4,201.5,27.4C201.5,27.4,201.5,27.4,201.5,27.4L201.5,27.4z"/>
	<rect x="201.7" y="25.8" class="st3" width="1.2" height="1.7"/>
	<rect x="201.7" y="25.8" class="st4" width="1.2" height="1.7"/>
	<rect x="201.7" y="25.8" class="st3" width="1.2" height="1.7"/>
</g>
<g id="Artwork_3-12">
	<path class="st2" d="M204.4,28.8v1.9c0,0,0,0,0,0h-1.9c0,0,0,0,0,0v-1.9c0,0,0,0,0,0L204.4,28.8C204.4,28.8,204.4,28.8,204.4,28.8z
		"/>
	<path class="st2" d="M202.3,28.8v1.9c0,0,0,0,0,0h-1.9c0,0,0,0,0,0v-1.9c0,0,0,0,0,0c0,0,0,0,0,0L202.3,28.8
		C202.2,28.8,202.3,28.8,202.3,28.8z"/>
	<path class="st13" d="M201.5,30.6L201.5,30.6l0.8,0h0.1l0.8,0v0c0.5,0,0.8-0.4,0.8-0.8c0-0.4-0.4-0.8-0.8-0.8v0l-0.8,0h-0.1l-0.8,0
		c-0.5,0-0.8,0.4-0.8,0.8C200.7,30.2,201.1,30.6,201.5,30.6C201.5,30.6,201.5,30.6,201.5,30.6L201.5,30.6z"/>
	<rect x="201.7" y="28.9" class="st3" width="1.2" height="1.7"/>
	<rect x="201.7" y="28.9" class="st4" width="1.2" height="1.7"/>
	<rect x="201.7" y="28.9" class="st3" width="1.2" height="1.7"/>
</g>
<g id="Artwork_3-13">
	<path class="st2" d="M178.5,25.6v1.9c0,0,0,0,0,0h-1.9c0,0,0,0,0,0v-1.9c0,0,0,0,0,0L178.5,25.6C178.5,25.6,178.5,25.6,178.5,25.6z
		"/>
	<path class="st2" d="M178.5,23.4v1.9c0,0,0,0,0,0h-1.9c0,0,0,0,0,0v-1.9c0,0,0,0,0,0L178.5,23.4C178.5,23.4,178.5,23.4,178.5,23.4z
		"/>
	<path class="st13" d="M176.7,24.7L176.7,24.7l0,0.8v0.1l0,0.8h0c0,0.5,0.4,0.8,0.8,0.8c0.4,0,0.8-0.4,0.8-0.8h0l0-0.8v-0.1l0-0.8
		c0-0.5-0.4-0.8-0.8-0.8C177,23.9,176.7,24.2,176.7,24.7L176.7,24.7z"/>
	<rect x="176.7" y="24.9" class="st3" width="1.7" height="1.2"/>
	<rect x="176.7" y="24.9" class="st4" width="1.7" height="1.2"/>
	<rect x="176.7" y="24.9" class="st3" width="1.7" height="1.2"/>
</g>
<g id="Artwork_3-14">
	<path class="st2" d="M175.3,25.6v1.9c0,0,0,0,0,0h-1.9c0,0,0,0,0,0v-1.9c0,0,0,0,0,0L175.3,25.6C175.3,25.6,175.3,25.6,175.3,25.6
		L175.3,25.6z"/>
	<path class="st2" d="M173.1,25.6v1.9c0,0,0,0,0,0h-1.9c0,0,0,0,0,0v-1.9c0,0,0,0,0,0L173.1,25.6C173.1,25.6,173.1,25.6,173.1,25.6
		L173.1,25.6z"/>
	<path class="st13" d="M172.4,27.4L172.4,27.4l0.8,0h0.1l0.8,0v0c0.5,0,0.8-0.4,0.8-0.8c0-0.4-0.4-0.8-0.8-0.8v0l-0.8,0h-0.1l-0.8,0
		c-0.5,0-0.8,0.4-0.8,0.8C171.6,27,171.9,27.4,172.4,27.4C172.4,27.4,172.4,27.4,172.4,27.4L172.4,27.4z"/>
	<rect x="172.6" y="25.8" class="st3" width="1.2" height="1.7"/>
	<rect x="172.6" y="25.8" class="st4" width="1.2" height="1.7"/>
	<rect x="172.6" y="25.8" class="st3" width="1.2" height="1.7"/>
</g>
<g id="Artwork_3-15">
	<path class="st2" d="M175.3,28.8v1.9c0,0,0,0,0,0h-1.9c0,0,0,0,0,0v-1.9c0,0,0,0,0,0L175.3,28.8C175.3,28.8,175.3,28.8,175.3,28.8z
		"/>
	<path class="st2" d="M173.1,28.8v1.9c0,0,0,0,0,0h-1.9c0,0,0,0,0,0v-1.9c0,0,0,0,0,0L173.1,28.8C173.1,28.8,173.1,28.8,173.1,28.8
		L173.1,28.8z"/>
	<path class="st13" d="M172.4,30.6L172.4,30.6l0.8,0h0.1l0.8,0v0c0.5,0,0.8-0.4,0.8-0.8c0-0.4-0.4-0.8-0.8-0.8v0l-0.8,0h-0.1l-0.8,0
		c-0.5,0-0.8,0.4-0.8,0.8C171.6,30.2,171.9,30.6,172.4,30.6C172.4,30.6,172.4,30.6,172.4,30.6L172.4,30.6z"/>
	<rect x="172.6" y="28.9" class="st3" width="1.2" height="1.7"/>
	<rect x="172.6" y="28.9" class="st4" width="1.2" height="1.7"/>
	<rect x="172.6" y="28.9" class="st3" width="1.2" height="1.7"/>
</g>
<g id="Artwork_3-16">
	<path class="st2" d="M149.1,25.6v1.9c0,0,0,0,0,0h-1.9c0,0,0,0,0,0v-1.9c0,0,0,0,0,0L149.1,25.6C149.1,25.6,149.1,25.6,149.1,25.6z
		"/>
	<path class="st2" d="M149.1,23.4v1.9c0,0,0,0,0,0h-1.9c0,0,0,0,0,0v-1.9c0,0,0,0,0,0L149.1,23.4C149.1,23.4,149.1,23.4,149.1,23.4
		L149.1,23.4z"/>
	<path class="st13" d="M147.3,24.7L147.3,24.7l0,0.8v0.1l0,0.8h0c0,0.5,0.4,0.8,0.8,0.8c0.4,0,0.8-0.4,0.8-0.8h0l0-0.8v-0.1l0-0.8
		c0-0.5-0.4-0.8-0.8-0.8C147.7,23.9,147.3,24.2,147.3,24.7L147.3,24.7L147.3,24.7z"/>
	<rect x="147.3" y="24.9" class="st3" width="1.7" height="1.2"/>
	<rect x="147.3" y="24.9" class="st4" width="1.7" height="1.2"/>
	<rect x="147.3" y="24.9" class="st3" width="1.7" height="1.2"/>
</g>
<g id="Artwork_3-17">
	<path class="st2" d="M145.9,25.6v1.9c0,0,0,0,0,0H144c0,0,0,0,0,0v-1.9c0,0,0,0,0,0L145.9,25.6C145.9,25.6,145.9,25.6,145.9,25.6z"
		/>
	<path class="st2" d="M143.8,25.6v1.9c0,0,0,0,0,0h-1.9c0,0,0,0,0,0v-1.9c0,0,0,0,0,0L143.8,25.6C143.7,25.6,143.8,25.6,143.8,25.6z
		"/>
	<path class="st13" d="M143,27.4L143,27.4l0.8,0h0.1l0.8,0v0c0.5,0,0.8-0.4,0.8-0.8c0-0.4-0.4-0.8-0.8-0.8v0l-0.8,0h-0.1l-0.8,0
		c-0.5,0-0.8,0.4-0.8,0.8C142.2,27,142.6,27.4,143,27.4C143,27.4,143,27.4,143,27.4L143,27.4z"/>
	<rect x="143.2" y="25.8" class="st3" width="1.2" height="1.7"/>
	<rect x="143.2" y="25.8" class="st4" width="1.2" height="1.7"/>
	<rect x="143.2" y="25.8" class="st3" width="1.2" height="1.7"/>
</g>
<g id="Artwork_3-18">
	<path class="st2" d="M145.9,28.8v1.9c0,0,0,0,0,0H144c0,0,0,0,0,0v-1.9c0,0,0,0,0,0L145.9,28.8C145.9,28.8,145.9,28.8,145.9,28.8z"
		/>
	<path class="st2" d="M143.8,28.8v1.9c0,0,0,0,0,0h-1.9c0,0,0,0,0,0v-1.9c0,0,0,0,0,0L143.8,28.8C143.7,28.8,143.8,28.8,143.8,28.8
		L143.8,28.8z"/>
	<path class="st13" d="M143,30.6L143,30.6l0.8,0h0.1l0.8,0v0c0.5,0,0.8-0.4,0.8-0.8c0-0.4-0.4-0.8-0.8-0.8v0l-0.8,0h-0.1l-0.8,0
		c-0.5,0-0.8,0.4-0.8,0.8C142.2,30.2,142.6,30.6,143,30.6C143,30.6,143,30.6,143,30.6L143,30.6z"/>
	<rect x="143.2" y="28.9" class="st3" width="1.2" height="1.7"/>
	<rect x="143.2" y="28.9" class="st4" width="1.2" height="1.7"/>
	<rect x="143.2" y="28.9" class="st3" width="1.2" height="1.7"/>
</g>
<g id="Artwork_3-19">
	<path class="st2" d="M120,25.6v1.9c0,0,0,0,0,0H118c0,0,0,0,0,0v-1.9c0,0,0,0,0,0L120,25.6C120,25.6,120,25.6,120,25.6z"/>
	<path class="st2" d="M120,23.4v1.9c0,0,0,0,0,0H118c0,0,0,0,0,0v-1.9c0,0,0,0,0,0L120,23.4C120,23.4,120,23.4,120,23.4z"/>
	<path class="st13" d="M118.1,24.7L118.1,24.7l0,0.8v0.1l0,0.8h0c0,0.5,0.4,0.8,0.8,0.8c0.4,0,0.8-0.4,0.8-0.8h0l0-0.8v-0.1l0-0.8
		c0-0.5-0.4-0.8-0.8-0.9C118.5,23.8,118.2,24.2,118.1,24.7C118.1,24.7,118.1,24.7,118.1,24.7L118.1,24.7z"/>
	<rect x="118.1" y="24.9" class="st3" width="1.7" height="1.2"/>
	<rect x="118.1" y="24.9" class="st4" width="1.7" height="1.2"/>
	<rect x="118.1" y="24.9" class="st3" width="1.7" height="1.2"/>
</g>
<g id="Artwork_3-20">
	<path class="st2" d="M116.8,25.6v1.9c0,0,0,0,0,0h-1.9c0,0,0,0,0,0v-1.9c0,0,0,0,0,0L116.8,25.6C116.7,25.6,116.8,25.6,116.8,25.6
		L116.8,25.6z"/>
	<path class="st2" d="M114.6,25.6v1.9c0,0,0,0,0,0h-1.9c0,0,0,0,0,0v-1.9c0,0,0,0,0,0L114.6,25.6C114.6,25.6,114.6,25.6,114.6,25.6z
		"/>
	<path class="st13" d="M113.9,27.4L113.9,27.4l0.8,0h0.1l0.8,0v0c0.5,0,0.8-0.4,0.8-0.8c0-0.4-0.4-0.8-0.8-0.8v0l-0.8,0h-0.1l-0.8,0
		c-0.5,0-0.8,0.4-0.8,0.8C113,27,113.4,27.4,113.9,27.4C113.9,27.4,113.9,27.4,113.9,27.4L113.9,27.4z"/>
	<rect x="114.1" y="25.8" class="st3" width="1.2" height="1.7"/>
	<rect x="114.1" y="25.8" class="st4" width="1.2" height="1.7"/>
	<rect x="114.1" y="25.8" class="st3" width="1.2" height="1.7"/>
</g>
<g id="Artwork_3-21">
	<path class="st2" d="M116.8,28.8v1.9c0,0,0,0,0,0h-1.9c0,0,0,0,0,0v-1.9c0,0,0,0,0,0L116.8,28.8C116.7,28.8,116.8,28.8,116.8,28.8z
		"/>
	<path class="st2" d="M114.6,28.8v1.9c0,0,0,0,0,0h-1.9c0,0,0,0,0,0v-1.9c0,0,0,0,0,0L114.6,28.8C114.6,28.8,114.6,28.8,114.6,28.8z
		"/>
	<path class="st13" d="M113.9,30.6L113.9,30.6l0.8,0h0.1l0.8,0v0c0.5,0,0.8-0.4,0.8-0.8c0-0.4-0.4-0.8-0.8-0.8v0l-0.8,0h-0.1l-0.8,0
		c-0.5,0-0.8,0.4-0.8,0.8C113,30.2,113.4,30.6,113.9,30.6C113.9,30.6,113.9,30.6,113.9,30.6L113.9,30.6z"/>
	<rect x="114.1" y="28.9" class="st3" width="1.2" height="1.7"/>
	<rect x="114.1" y="28.9" class="st4" width="1.2" height="1.7"/>
	<rect x="114.1" y="28.9" class="st3" width="1.2" height="1.7"/>
</g>
<g id="Artwork_3-22">
	<path class="st2" d="M90.8,25.6v1.9c0,0,0,0,0,0h-1.9c0,0,0,0,0,0v-1.9c0,0,0,0,0,0L90.8,25.6C90.8,25.6,90.8,25.6,90.8,25.6z"/>
	<path class="st2" d="M90.8,23.4v1.9c0,0,0,0,0,0h-1.9c0,0,0,0,0,0v-1.9c0,0,0,0,0,0L90.8,23.4C90.8,23.4,90.8,23.4,90.8,23.4z"/>
	<path class="st13" d="M88.9,24.7L88.9,24.7l0,0.8v0.1l0,0.8h0c0,0.5,0.4,0.8,0.9,0.8c0.4,0,0.8-0.4,0.8-0.8h0l0-0.8v-0.1l0-0.8
		c0-0.5-0.4-0.8-0.8-0.8C89.3,23.8,88.9,24.2,88.9,24.7C88.9,24.7,88.9,24.7,88.9,24.7L88.9,24.7z"/>
	<rect x="88.9" y="24.9" class="st3" width="1.7" height="1.2"/>
	<rect x="88.9" y="24.9" class="st4" width="1.7" height="1.2"/>
	<rect x="88.9" y="24.9" class="st3" width="1.7" height="1.2"/>
</g>
<g id="Artwork_3-23">
	<path class="st2" d="M87.6,25.6v1.9c0,0,0,0,0,0h-1.9c0,0,0,0,0,0v-1.9c0,0,0,0,0,0L87.6,25.6C87.5,25.6,87.6,25.6,87.6,25.6
		L87.6,25.6z"/>
	<path class="st2" d="M85.4,25.6v1.9c0,0,0,0,0,0h-1.9c0,0,0,0,0,0v-1.9c0,0,0,0,0,0L85.4,25.6C85.4,25.6,85.4,25.6,85.4,25.6z"/>
	<path class="st13" d="M84.7,27.4L84.7,27.4l0.8,0h0.1l0.8,0v0c0.5,0,0.8-0.4,0.8-0.8c0-0.4-0.4-0.8-0.8-0.8v0l-0.8,0h-0.1l-0.8,0
		c-0.5,0-0.8,0.4-0.8,0.8C83.8,27,84.2,27.4,84.7,27.4C84.7,27.4,84.7,27.4,84.7,27.4L84.7,27.4z"/>
	<rect x="84.9" y="25.8" class="st3" width="1.2" height="1.7"/>
	<rect x="84.9" y="25.8" class="st4" width="1.2" height="1.7"/>
	<rect x="84.9" y="25.8" class="st3" width="1.2" height="1.7"/>
</g>
<g id="Artwork_3-24">
	<path class="st2" d="M87.6,28.8v1.9c0,0,0,0,0,0h-1.9c0,0,0,0,0,0v-1.9c0,0,0,0,0,0L87.6,28.8C87.5,28.8,87.6,28.8,87.6,28.8z"/>
	<path class="st2" d="M85.4,28.8v1.9c0,0,0,0,0,0h-1.9c0,0,0,0,0,0v-1.9c0,0,0,0,0,0L85.4,28.8C85.4,28.8,85.4,28.8,85.4,28.8
		L85.4,28.8z"/>
	<path class="st13" d="M84.7,30.6L84.7,30.6l0.8,0h0.1l0.8,0v0c0.5,0,0.8-0.4,0.8-0.8c0-0.4-0.4-0.8-0.8-0.8v0l-0.8,0h-0.1l-0.8,0
		c-0.5,0-0.8,0.4-0.8,0.8C83.8,30.2,84.2,30.6,84.7,30.6C84.7,30.6,84.7,30.6,84.7,30.6L84.7,30.6z"/>
	<rect x="84.9" y="28.9" class="st3" width="1.2" height="1.7"/>
	<rect x="84.9" y="28.9" class="st4" width="1.2" height="1.7"/>
	<rect x="84.9" y="28.9" class="st3" width="1.2" height="1.7"/>
</g>
<g id="Artwork_3-25">
	<path class="st2" d="M56,25.6v1.9c0,0,0,0,0,0h-1.9c0,0,0,0,0,0v-1.9c0,0,0,0,0,0L56,25.6C56,25.6,56,25.6,56,25.6L56,25.6z"/>
	<path class="st2" d="M56,23.4v1.9c0,0,0,0,0,0h-1.9c0,0,0,0,0,0v-1.9c0,0,0,0,0,0L56,23.4C56,23.4,56,23.4,56,23.4L56,23.4z"/>
	<path class="st13" d="M54.2,24.7L54.2,24.7l0,0.8v0.1l0,0.8h0c0,0.5,0.4,0.8,0.8,0.8c0.5,0,0.8-0.4,0.8-0.8h0l0-0.8v-0.1l0-0.8
		c0-0.5-0.4-0.8-0.8-0.8C54.6,23.9,54.2,24.2,54.2,24.7L54.2,24.7L54.2,24.7z"/>
	<rect x="54.2" y="24.9" class="st3" width="1.7" height="1.2"/>
	<rect x="54.2" y="24.9" class="st4" width="1.7" height="1.2"/>
	<rect x="54.2" y="24.9" class="st3" width="1.7" height="1.2"/>
</g>
<g id="Artwork_3-26">
	<path class="st2" d="M52.8,25.6v1.9c0,0,0,0,0,0h-1.9c0,0,0,0,0,0v-1.9c0,0,0,0,0,0L52.8,25.6C52.8,25.6,52.8,25.6,52.8,25.6
		L52.8,25.6z"/>
	<path class="st2" d="M50.6,25.6v1.9c0,0,0,0,0,0h-1.9c0,0,0,0,0,0v-1.9c0,0,0,0,0,0L50.6,25.6C50.6,25.6,50.6,25.6,50.6,25.6
		L50.6,25.6z"/>
	<path class="st13" d="M49.9,27.4L49.9,27.4l0.8,0h0.1l0.8,0v0c0.5,0,0.8-0.4,0.8-0.8c0-0.4-0.4-0.8-0.8-0.8v0l-0.8,0h-0.1l-0.8,0
		c-0.5,0-0.8,0.4-0.8,0.8C49.1,27,49.4,27.4,49.9,27.4C49.9,27.4,49.9,27.4,49.9,27.4L49.9,27.4z"/>
	<rect x="50.1" y="25.8" class="st3" width="1.2" height="1.7"/>
	<rect x="50.1" y="25.8" class="st4" width="1.2" height="1.7"/>
	<rect x="50.1" y="25.8" class="st3" width="1.2" height="1.7"/>
</g>
<g id="Artwork_3-27">
	<path class="st2" d="M52.8,28.8v1.9c0,0,0,0,0,0h-1.9c0,0,0,0,0,0v-1.9c0,0,0,0,0,0L52.8,28.8C52.8,28.8,52.8,28.8,52.8,28.8z"/>
	<path class="st2" d="M50.6,28.8v1.9c0,0,0,0,0,0h-1.9c0,0,0,0,0,0v-1.9c0,0,0,0,0,0L50.6,28.8C50.6,28.8,50.6,28.8,50.6,28.8
		L50.6,28.8z"/>
	<path class="st13" d="M49.9,30.6L49.9,30.6l0.8,0h0.1l0.8,0v0c0.5,0,0.8-0.4,0.8-0.8c0-0.4-0.4-0.8-0.8-0.8v0l-0.8,0h-0.1l-0.8,0
		c-0.5,0-0.8,0.4-0.8,0.8C49.1,30.2,49.4,30.6,49.9,30.6C49.9,30.6,49.9,30.6,49.9,30.6L49.9,30.6z"/>
	<rect x="50.1" y="28.9" class="st3" width="1.2" height="1.7"/>
	<rect x="50.1" y="28.9" class="st4" width="1.2" height="1.7"/>
	<rect x="50.1" y="28.9" class="st3" width="1.2" height="1.7"/>
</g>
<g id="Artwork_3-28">
	<path class="st2" d="M61.6,25.6v1.9c0,0,0,0,0,0h-1.9c0,0,0,0,0,0v-1.9c0,0,0,0,0,0L61.6,25.6C61.6,25.6,61.6,25.6,61.6,25.6z"/>
	<path class="st2" d="M61.6,23.4v1.9c0,0,0,0,0,0h-1.9c0,0,0,0,0,0v-1.9c0,0,0,0,0,0L61.6,23.4C61.6,23.4,61.6,23.4,61.6,23.4
		L61.6,23.4z"/>
	<path class="st13" d="M61.4,24.7L61.4,24.7l0,0.8v0.1l0,0.8h0c0,0.5-0.4,0.8-0.8,0.8c-0.4,0-0.8-0.4-0.8-0.8h0l0-0.8v-0.1l0-0.8
		c0-0.5,0.4-0.8,0.8-0.8C61.1,23.9,61.4,24.2,61.4,24.7L61.4,24.7z"/>
	<rect x="59.8" y="24.9" class="st3" width="1.7" height="1.2"/>
	<rect x="59.8" y="24.9" class="st4" width="1.7" height="1.2"/>
	<rect x="59.8" y="24.9" class="st3" width="1.7" height="1.2"/>
</g>
<g id="Artwork_3-29">
	<path class="st2" d="M64.8,25.6v1.9c0,0,0,0,0,0h-1.9c0,0,0,0,0,0v-1.9c0,0,0,0,0,0L64.8,25.6C64.8,25.6,64.8,25.6,64.8,25.6z"/>
	<path class="st2" d="M67,25.6v1.9c0,0,0,0,0,0H65c0,0,0,0,0,0v-1.9c0,0,0,0,0,0L67,25.6C67,25.6,67,25.6,67,25.6L67,25.6z"/>
	<path class="st13" d="M65.7,27.4L65.7,27.4l-0.8,0h-0.1l-0.8,0v0c-0.5,0-0.8-0.4-0.8-0.8c0-0.4,0.4-0.8,0.8-0.8v0l0.8,0h0.1l0.8,0
		c0.5,0,0.8,0.4,0.8,0.8C66.5,27,66.2,27.4,65.7,27.4C65.7,27.4,65.7,27.4,65.7,27.4L65.7,27.4z"/>
	<rect x="64.3" y="25.8" class="st3" width="1.2" height="1.7"/>
	<rect x="64.3" y="25.8" class="st4" width="1.2" height="1.7"/>
	<rect x="64.3" y="25.8" class="st3" width="1.2" height="1.7"/>
</g>
<g id="Artwork_3-30">
	<path class="st2" d="M64.8,28.8v1.9c0,0,0,0,0,0h-1.9c0,0,0,0,0,0v-1.9c0,0,0,0,0,0L64.8,28.8C64.8,28.8,64.8,28.8,64.8,28.8
		L64.8,28.8z"/>
	<path class="st2" d="M67,28.8v1.9c0,0,0,0,0,0H65c0,0,0,0,0,0v-1.9c0,0,0,0,0,0L67,28.8C67,28.8,67,28.8,67,28.8z"/>
	<path class="st13" d="M65.7,30.6L65.7,30.6l-0.8,0h-0.1l-0.8,0v0c-0.5,0-0.8-0.4-0.8-0.8c0-0.4,0.4-0.8,0.8-0.8v0l0.8,0h0.1l0.8,0
		c0.5,0,0.8,0.4,0.8,0.8C66.5,30.2,66.2,30.6,65.7,30.6C65.7,30.6,65.7,30.6,65.7,30.6L65.7,30.6z"/>
	<rect x="64.3" y="28.9" class="st3" width="1.2" height="1.7"/>
	<rect x="64.3" y="28.9" class="st4" width="1.2" height="1.7"/>
	<rect x="64.3" y="28.9" class="st3" width="1.2" height="1.7"/>
</g>
<g id="Artwork_3-31">
	<path class="st2" d="M55.3,38.2v1.9c0,0,0,0,0,0h-1.9c0,0,0,0,0,0v-1.9c0,0,0,0,0,0L55.3,38.2C55.3,38.1,55.3,38.1,55.3,38.2
		L55.3,38.2z"/>
	<path class="st2" d="M57.5,38.2v1.9c0,0,0,0,0,0h-1.9c0,0,0,0,0,0v-1.9c0,0,0,0,0,0L57.5,38.2C57.5,38.1,57.5,38.1,57.5,38.2z"/>
	<path class="st13" d="M56.2,39.9L56.2,39.9l-0.8,0h-0.1l-0.8,0v0c-0.5,0-0.8-0.4-0.8-0.8c0-0.4,0.4-0.8,0.8-0.8v0l0.8,0h0.1l0.8,0
		c0.5,0,0.8,0.4,0.8,0.8C57.1,39.6,56.7,39.9,56.2,39.9C56.2,39.9,56.2,39.9,56.2,39.9L56.2,39.9z"/>
	<rect x="54.8" y="38.3" class="st3" width="1.2" height="1.7"/>
	<rect x="54.8" y="38.3" class="st4" width="1.2" height="1.7"/>
	<rect x="54.8" y="38.3" class="st3" width="1.2" height="1.7"/>
</g>
<g id="Artwork_3-32">
	<path class="st2" d="M55.3,41.3v1.9c0,0,0,0,0,0h-1.9c0,0,0,0,0,0v-1.9c0,0,0,0,0,0L55.3,41.3C55.3,41.2,55.3,41.3,55.3,41.3
		L55.3,41.3z"/>
	<path class="st2" d="M57.5,41.3v1.9c0,0,0,0,0,0h-1.9c0,0,0,0,0,0v-1.9c0,0,0,0,0,0L57.5,41.3C57.5,41.2,57.5,41.3,57.5,41.3z"/>
	<path class="st13" d="M56.2,43.1L56.2,43.1l-0.8,0h-0.1l-0.8,0v0c-0.5,0-0.8-0.4-0.8-0.8c0-0.4,0.4-0.8,0.8-0.8v0l0.8,0h0.1l0.8,0
		c0.5,0,0.8,0.4,0.8,0.8C57.1,42.7,56.7,43.1,56.2,43.1C56.2,43.1,56.2,43.1,56.2,43.1L56.2,43.1z"/>
	<rect x="54.8" y="41.4" class="st3" width="1.2" height="1.7"/>
	<rect x="54.8" y="41.4" class="st4" width="1.2" height="1.7"/>
	<rect x="54.8" y="41.4" class="st3" width="1.2" height="1.7"/>
</g>
<g id="Artwork_3-33">
	<path class="st2" d="M55.3,44.4v1.9c0,0,0,0,0,0h-1.9c0,0,0,0,0,0v-1.9c0,0,0,0,0,0L55.3,44.4C55.3,44.4,55.3,44.4,55.3,44.4z"/>
	<path class="st2" d="M57.5,44.4v1.9c0,0,0,0,0,0h-1.9c0,0,0,0,0,0v-1.9c0,0,0,0,0,0L57.5,44.4C57.5,44.4,57.5,44.4,57.5,44.4z"/>
	<path class="st13" d="M56.2,46.2L56.2,46.2l-0.8,0h-0.1l-0.8,0v0c-0.5,0-0.8-0.4-0.8-0.8c0-0.4,0.4-0.8,0.8-0.8v0l0.8,0h0.1l0.8,0
		c0.5,0,0.8,0.4,0.8,0.8C57.1,45.8,56.7,46.2,56.2,46.2C56.2,46.2,56.2,46.2,56.2,46.2L56.2,46.2z"/>
	<rect x="54.8" y="44.5" class="st3" width="1.2" height="1.7"/>
	<rect x="54.8" y="44.5" class="st4" width="1.2" height="1.7"/>
	<rect x="54.8" y="44.5" class="st3" width="1.2" height="1.7"/>
</g>
<g id="Artwork_3-34">
	<path class="st2" d="M96.2,59.4v1.9c0,0,0,0,0,0h-1.9c0,0,0,0,0,0v-1.9c0,0,0,0,0,0L96.2,59.4C96.2,59.4,96.2,59.4,96.2,59.4z"/>
	<path class="st2" d="M96.2,57.2v1.9c0,0,0,0,0,0h-1.9c0,0,0,0,0,0v-1.9c0,0,0,0,0,0L96.2,57.2C96.2,57.2,96.2,57.2,96.2,57.2z"/>
	<path class="st13" d="M94.4,58.5L94.4,58.5l0,0.8v0.1l0,0.8h0c0,0.5,0.4,0.8,0.8,0.8c0.5,0,0.8-0.4,0.8-0.8h0l0-0.8v-0.1l0-0.8
		c0-0.5-0.4-0.8-0.8-0.8C94.8,57.6,94.4,58,94.4,58.5L94.4,58.5z"/>
	<rect x="94.4" y="58.7" class="st3" width="1.7" height="1.2"/>
	<rect x="94.4" y="58.7" class="st4" width="1.7" height="1.2"/>
	<rect x="94.4" y="58.7" class="st3" width="1.7" height="1.2"/>
</g>
<g id="Artwork_3-35">
	<path class="st2" d="M96.2,65.6v1.9c0,0,0,0,0,0h-1.9c0,0,0,0,0,0v-1.9c0,0,0,0,0,0L96.2,65.6C96.2,65.6,96.2,65.6,96.2,65.6z"/>
	<path class="st2" d="M96.2,63.4v1.9c0,0,0,0,0,0h-1.9c0,0,0,0,0,0v-1.9c0,0,0,0,0,0L96.2,63.4C96.2,63.4,96.2,63.4,96.2,63.4z"/>
	<path class="st13" d="M94.4,64.7L94.4,64.7l0,0.8v0.1l0,0.8h0c0,0.5,0.4,0.8,0.8,0.8c0.5,0,0.8-0.4,0.8-0.8h0l0-0.8v-0.1l0-0.8
		c0-0.5-0.4-0.8-0.8-0.8C94.8,63.8,94.4,64.2,94.4,64.7L94.4,64.7z"/>
	<rect x="94.4" y="64.9" class="st3" width="1.7" height="1.2"/>
	<rect x="94.4" y="64.9" class="st4" width="1.7" height="1.2"/>
	<rect x="94.4" y="64.9" class="st3" width="1.7" height="1.2"/>
</g>
<g id="Artwork_3-36">
	<path class="st2" d="M96.2,71.8v1.9c0,0,0,0,0,0h-1.9c0,0,0,0,0,0v-1.9c0,0,0,0,0,0L96.2,71.8C96.2,71.8,96.2,71.8,96.2,71.8z"/>
	<path class="st2" d="M96.2,69.6v1.9c0,0,0,0,0,0h-1.9c0,0,0,0,0,0v-1.9c0,0,0,0,0,0L96.2,69.6C96.2,69.6,96.2,69.6,96.2,69.6z"/>
	<path class="st13" d="M94.4,70.9L94.4,70.9l0,0.8v0.1l0,0.8h0c0,0.5,0.4,0.8,0.8,0.8c0.5,0,0.8-0.4,0.8-0.8h0l0-0.8v-0.1l0-0.8
		c0-0.5-0.4-0.8-0.8-0.8C94.8,70,94.4,70.4,94.4,70.9L94.4,70.9z"/>
	<rect x="94.4" y="71" class="st3" width="1.7" height="1.2"/>
	<rect x="94.4" y="71" class="st4" width="1.7" height="1.2"/>
	<rect x="94.4" y="71" class="st3" width="1.7" height="1.2"/>
</g>
<g id="Artwork_3-37">
	<path class="st2" d="M99.7,71.8v1.9c0,0,0,0,0,0h-1.9c0,0,0,0,0,0v-1.9c0,0,0,0,0,0L99.7,71.8C99.6,71.8,99.7,71.8,99.7,71.8z"/>
	<path class="st2" d="M101.8,71.8v1.9c0,0,0,0,0,0h-1.9c0,0,0,0,0,0v-1.9c0,0,0,0,0,0L101.8,71.8C101.8,71.8,101.8,71.8,101.8,71.8z
		"/>
	<path class="st13" d="M100.6,71.9L100.6,71.9l-0.8,0h-0.1l-0.8,0v0c-0.5,0-0.8,0.4-0.8,0.9c0,0.4,0.4,0.8,0.8,0.8v0l0.8,0h0.1
		l0.8,0c0.5,0,0.8-0.4,0.8-0.8C101.4,72.3,101,71.9,100.6,71.9C100.6,71.9,100.6,71.9,100.6,71.9L100.6,71.9z"/>
	<rect x="99.2" y="71.9" class="st3" width="1.2" height="1.7"/>
	<rect x="99.2" y="71.9" class="st4" width="1.2" height="1.7"/>
	<rect x="99.2" y="71.9" class="st3" width="1.2" height="1.7"/>
</g>
<g id="Artwork_3-38">
	<path class="st2" d="M54,76.7v1.9c0,0,0,0,0,0h-1.9c0,0,0,0,0,0v-1.9c0,0,0,0,0,0L54,76.7C54,76.7,54,76.7,54,76.7z"/>
	<path class="st2" d="M56.2,76.7v1.9c0,0,0,0,0,0h-1.9c0,0,0,0,0,0v-1.9c0,0,0,0,0,0L56.2,76.7C56.2,76.7,56.2,76.7,56.2,76.7z"/>
	<path class="st13" d="M54.9,76.8L54.9,76.8l-0.8,0H54l-0.8,0v0c-0.5,0-0.8,0.4-0.8,0.9c0,0.4,0.4,0.8,0.8,0.8v0l0.8,0h0.1l0.8,0
		c0.5,0,0.8-0.4,0.8-0.8S55.4,76.8,54.9,76.8L54.9,76.8L54.9,76.8z"/>
	<rect x="53.5" y="76.8" class="st3" width="1.2" height="1.7"/>
	<rect x="53.5" y="76.8" class="st4" width="1.2" height="1.7"/>
	<rect x="53.5" y="76.8" class="st3" width="1.2" height="1.7"/>
</g>
<g id="Disegno_4">
	<rect x="196.4" y="62.1" class="st2" width="2.7" height="2.7"/>
	<rect x="201.4" y="62.1" class="st2" width="2.7" height="2.7"/>
	<rect x="199.1" y="62.1" class="st3" width="2.3" height="2.7"/>
	<rect x="199.1" y="62.1" class="st3" width="2.3" height="2.7"/>
	<polygon class="st15" points="198.3,62.1 196.9,63.5 198.3,64.9 198.3,64.9 199.1,64.9 199.1,62.1 	"/>
	<polygon class="st15" points="202.3,64.9 203.7,63.5 202.3,62.1 202.3,62.1 201.4,62.1 201.4,64.9 	"/>
</g>
<g id="Disegno_4-2">
	<rect x="169.9" y="77.4" class="st2" width="2.7" height="2.7"/>
	<rect x="174.9" y="77.4" class="st2" width="2.7" height="2.7"/>
	<rect x="172.6" y="77.4" class="st3" width="2.3" height="2.7"/>
	<rect x="172.6" y="77.4" class="st4" width="2.3" height="2.7"/>
	<rect x="172.6" y="77.4" class="st3" width="2.3" height="2.7"/>
	<polygon class="st15" points="171.7,77.4 170.4,78.8 171.7,80.2 171.7,80.2 172.6,80.2 172.6,77.4 	"/>
	<polygon class="st15" points="175.8,80.2 177.2,78.8 175.8,77.4 175.8,77.4 174.9,77.4 174.9,80.2 	"/>
</g>
<polygon class="st16" points="184.4,18.6 184.4,5.9 189.5,5.9 189.5,8.1 206.2,8.1 206.2,5.9 211.4,5.9 211.4,18.6 "/>
<path class="st17" d="M210.2,7v10.5h-24.8V7h2.9v2.2h18.9V7H210.2 M212.5,4.8h-7.4v2.2h-14.4V4.8h-7.4v15h29.2L212.5,4.8z"/>
<rect x="188.3" y="13.6" class="st2" width="2.3" height="2.3"/>
<rect x="193.8" y="13.6" class="st2" width="2.3" height="2.3"/>
<rect x="199.6" y="13.6" class="st2" width="2.3" height="2.3"/>
<rect x="205.1" y="13.6" class="st2" width="2.3" height="2.3"/>
<polygon class="st16" points="154.6,18.6 154.6,5.9 159.8,5.9 159.8,8.1 176.5,8.1 176.5,5.9 181.6,5.9 181.6,18.6 "/>
<path class="st17" d="M180.5,7v10.5h-24.8V7h2.9v2.2h18.9V7H180.5 M182.7,4.8h-7.4v2.2h-14.4V4.8h-7.4v15h29.2V4.8z"/>
<rect x="158.6" y="13.6" class="st2" width="2.3" height="2.3"/>
<rect x="164.1" y="13.6" class="st2" width="2.3" height="2.3"/>
<rect x="169.9" y="13.6" class="st2" width="2.3" height="2.3"/>
<rect x="175.4" y="13.6" class="st2" width="2.3" height="2.3"/>
<polygon class="st16" points="124.9,18.6 124.9,5.9 130.1,5.9 130.1,8.1 146.7,8.1 146.7,5.9 151.9,5.9 151.9,18.6 "/>
<path class="st17" d="M150.8,7v10.5H126V7h2.9v2.2h18.9V7H150.8 M153,4.8h-7.4v2.2h-14.4V4.8h-7.4v15H153L153,4.8z"/>
<rect x="128.8" y="13.6" class="st2" width="2.3" height="2.3"/>
<rect x="134.4" y="13.6" class="st2" width="2.3" height="2.3"/>
<rect x="140.2" y="13.6" class="st2" width="2.3" height="2.3"/>
<rect x="145.7" y="13.6" class="st2" width="2.3" height="2.3"/>
<polygon class="st16" points="95.2,18.6 95.2,5.9 100.4,5.9 100.4,8.1 117,8.1 117,5.9 122.2,5.9 122.2,18.6 "/>
<path class="st17" d="M121.1,7v10.5H96.3V7h2.9v2.2h18.9V7H121.1 M123.3,4.8h-7.4v2.2h-14.4V4.8h-7.4v15h29.2L123.3,4.8z"/>
<rect x="99.1" y="13.6" class="st2" width="2.3" height="2.3"/>
<rect x="104.7" y="13.6" class="st2" width="2.3" height="2.3"/>
<rect x="110.5" y="13.6" class="st2" width="2.3" height="2.3"/>
<rect x="116" y="13.6" class="st2" width="2.3" height="2.3"/>
<polygon class="st16" points="65.5,18.6 65.5,5.9 70.6,5.9 70.6,8.1 87.3,8.1 87.3,5.9 92.5,5.9 92.5,18.6 "/>
<path class="st17" d="M91.3,7v10.5H66.6V7h2.9v2.2h18.9V7H91.3 M93.6,4.8h-7.4v2.2H71.8V4.8h-7.4v15h29.2L93.6,4.8z"/>
<rect x="69.4" y="13.6" class="st2" width="2.3" height="2.3"/>
<rect x="74.9" y="13.6" class="st2" width="2.3" height="2.3"/>
<rect x="80.7" y="13.6" class="st2" width="2.3" height="2.3"/>
<rect x="86.2" y="13.6" class="st2" width="2.3" height="2.3"/>
<polygon class="st16" points="35.7,18.6 35.7,5.9 40.9,5.9 40.9,8.1 57.6,8.1 57.6,5.9 62.7,5.9 62.7,18.6 "/>
<path class="st17" d="M61.6,7v10.5H36.9V7h2.9v2.2h18.9V7H61.6 M63.8,4.8h-7.4v2.2H42V4.8h-7.4v15h29.2L63.8,4.8z"/>
<rect x="39.7" y="13.6" class="st2" width="2.3" height="2.3"/>
<rect x="45.2" y="13.6" class="st2" width="2.3" height="2.3"/>
<rect x="51" y="13.6" class="st2" width="2.3" height="2.3"/>
<rect x="56.5" y="13.6" class="st2" width="2.3" height="2.3"/>
<polygon class="st16" points="6,18.6 6,5.9 11.2,5.9 11.2,8.1 27.8,8.1 27.8,5.9 33,5.9 33,18.6 "/>
<path class="st17" d="M31.9,7v10.5H7.1V7h2.9v2.2h18.9V7H31.9 M34.1,4.8h-7.4v2.2H12.3V4.8H4.9v15h29.2L34.1,4.8z"/>
<rect x="9.9" y="13.6" class="st2" width="2.3" height="2.3"/>
<rect x="15.5" y="13.6" class="st2" width="2.3" height="2.3"/>
<rect x="21.3" y="13.6" class="st2" width="2.3" height="2.3"/>
<rect x="26.8" y="13.6" class="st2" width="2.3" height="2.3"/>
<polygon class="st16" points="27.8,136 27.8,133.8 11.2,133.8 11.2,136 6,136 6,123.3 33,123.3 33,136 "/>
<path class="st17" d="M31.9,124.4v10.5h-2.9v-2.2H10.1v2.2H7.1v-10.5H31.9 M34.1,122.2H4.9v15h7.4V135h14.4v2.2h7.4V122.2z"/>
<rect x="26.8" y="126" class="st2" width="2.3" height="2.3"/>
<rect x="21.2" y="126" class="st2" width="2.3" height="2.3"/>
<rect x="15.4" y="126" class="st2" width="2.3" height="2.3"/>
<rect x="9.9" y="126" class="st2" width="2.3" height="2.3"/>
<polygon class="st16" points="57.6,136 57.6,133.8 40.9,133.8 40.9,136 35.7,136 35.7,123.3 62.7,123.3 62.7,136 "/>
<path class="st17" d="M61.6,124.4v10.5h-2.9v-2.2H39.8v2.2h-2.9v-10.5H61.6 M63.8,122.2H34.6v15H42V135h14.4v2.2h7.4L63.8,122.2z"/>
<rect x="56.5" y="126" class="st2" width="2.3" height="2.3"/>
<rect x="51" y="126" class="st2" width="2.3" height="2.3"/>
<rect x="45.2" y="126" class="st2" width="2.3" height="2.3"/>
<rect x="39.7" y="126" class="st2" width="2.3" height="2.3"/>
<polygon class="st16" points="87.3,136 87.3,133.8 70.6,133.8 70.6,136 65.5,136 65.5,123.3 92.5,123.3 92.5,136 "/>
<path class="st17" d="M91.3,124.4v10.5h-2.9v-2.2H69.5v2.2h-2.9v-10.5H91.3 M93.6,122.2H64.4v15h7.4V135h14.4v2.2h7.4L93.6,122.2z"
	/>
<rect x="86.2" y="126" class="st2" width="2.3" height="2.3"/>
<rect x="80.7" y="126" class="st2" width="2.3" height="2.3"/>
<rect x="74.9" y="126" class="st2" width="2.3" height="2.3"/>
<rect x="69.4" y="126" class="st2" width="2.3" height="2.3"/>
<polygon class="st16" points="117,136 117,133.8 100.4,133.8 100.4,136 95.2,136 95.2,123.3 122.2,123.3 122.2,136 "/>
<path class="st17" d="M121.1,124.4v10.5h-2.9v-2.2H99.3v2.2h-2.9v-10.5H121.1 M123.3,122.2H94.1v15h7.4V135h14.4v2.2h7.4
	L123.3,122.2z"/>
<rect x="116" y="126" class="st2" width="2.3" height="2.3"/>
<rect x="110.4" y="126" class="st2" width="2.3" height="2.3"/>
<rect x="104.6" y="126" class="st2" width="2.3" height="2.3"/>
<rect x="99.1" y="126" class="st2" width="2.3" height="2.3"/>
<polygon class="st16" points="146.7,136 146.7,133.8 130.1,133.8 130.1,136 124.9,136 124.9,123.3 151.9,123.3 151.9,136 "/>
<path class="st17" d="M150.8,124.4v10.5h-2.9v-2.2H129v2.2H126v-10.5H150.8 M153,122.2h-29.2v15h7.4V135h14.4v2.2h7.4L153,122.2z"/>
<rect x="145.7" y="126" class="st2" width="2.3" height="2.3"/>
<rect x="140.1" y="126" class="st2" width="2.3" height="2.3"/>
<rect x="134.3" y="126" class="st2" width="2.3" height="2.3"/>
<rect x="128.8" y="126" class="st2" width="2.3" height="2.3"/>
<polygon class="st16" points="176.5,136 176.5,133.8 159.8,133.8 159.8,136 154.6,136 154.6,123.3 181.6,123.3 181.6,136 "/>
<path class="st17" d="M180.5,124.4v10.5h-2.9v-2.2h-18.9v2.2h-2.9v-10.5H180.5 M182.7,122.2h-29.2v15h7.4V135h14.4v2.2h7.4V122.2z"
	/>
<rect x="175.4" y="126" class="st2" width="2.3" height="2.3"/>
<rect x="169.9" y="126" class="st2" width="2.3" height="2.3"/>
<rect x="164.1" y="126" class="st2" width="2.3" height="2.3"/>
<rect x="158.6" y="126" class="st2" width="2.3" height="2.3"/>
<polygon class="st16" points="206.2,136 206.2,133.8 189.5,133.8 189.5,136 184.4,136 184.4,123.3 211.4,123.3 211.4,136 "/>
<path class="st17" d="M210.2,124.4v10.5h-2.9v-2.2h-18.9v2.2h-2.9v-10.5H210.2 M212.5,122.2h-29.2v15h7.4V135h14.4v2.2h7.4V122.2z"
	/>
<rect x="205.1" y="126" class="st2" width="2.3" height="2.3"/>
<rect x="199.6" y="126" class="st2" width="2.3" height="2.3"/>
<rect x="193.8" y="126" class="st2" width="2.3" height="2.3"/>
<rect x="188.3" y="126" class="st2" width="2.3" height="2.3"/>
<g id="pin-2">
	<rect x="71.9" y="95.9" class="st3" width="7.2" height="7.2"/>
	<path class="st3" d="M79.1,95.9v7.2h7.2v-7.2H79.1z"/>
	<path class="st3" d="M86.3,95.9v7.2h7.2v-7.2H86.3z"/>
	<path class="st3" d="M93.5,95.9v7.2h7.2v-7.2H93.5z"/>
	<path class="st3" d="M64.7,95.9v7.2h7.2v-7.2H64.7z"/>
	<path class="st3" d="M107.8,95.9v7.2h7.2v-7.2H107.8z"/>
	<path class="st3" d="M100.6,95.9v7.2h7.2v-7.2H100.6z"/>
	<path class="st3" d="M115,95.9v7.2h7.2v-7.2H115z"/>
	<path class="st3" d="M129.4,95.9v7.2h7.2v-7.2H129.4z"/>
	<path class="st3" d="M122.2,95.9v7.2h7.2v-7.2H122.2z"/>
	<rect x="71.9" y="95.9" class="st4" width="7.2" height="7.2"/>
	<path class="st4" d="M79.1,95.9v7.2h7.2v-7.2H79.1z"/>
	<path class="st4" d="M86.3,95.9v7.2h7.2v-7.2H86.3z"/>
	<path class="st4" d="M93.5,95.9v7.2h7.2v-7.2H93.5z"/>
	<path class="st4" d="M64.7,95.9v7.2h7.2v-7.2H64.7z"/>
	<path class="st4" d="M107.8,95.9v7.2h7.2v-7.2H107.8z"/>
	<path class="st4" d="M100.6,95.9v7.2h7.2v-7.2H100.6z"/>
	<path class="st4" d="M115,95.9v7.2h7.2v-7.2H115z"/>
	<path class="st4" d="M129.4,95.9v7.2h7.2v-7.2H129.4z"/>
	<path class="st4" d="M122.2,95.9v7.2h7.2v-7.2H122.2z"/>
	<rect x="71.9" y="95.9" class="st3" width="7.2" height="7.2"/>
	<path class="st3" d="M79.1,95.9v7.2h7.2v-7.2H79.1z"/>
	<path class="st3" d="M86.3,95.9v7.2h7.2v-7.2H86.3z"/>
	<path class="st3" d="M93.5,95.9v7.2h7.2v-7.2H93.5z"/>
	<path class="st3" d="M64.7,95.9v7.2h7.2v-7.2H64.7z"/>
	<path class="st3" d="M107.8,95.9v7.2h7.2v-7.2H107.8z"/>
	<path class="st3" d="M100.6,95.9v7.2h7.2v-7.2H100.6z"/>
	<path class="st3" d="M115,95.9v7.2h7.2v-7.2H115z"/>
	<path class="st3" d="M129.4,95.9v7.2h7.2v-7.2H129.4z"/>
	<path class="st3" d="M122.2,95.9v7.2h7.2v-7.2H122.2z"/>
	<polygon class="st15" points="84.5,97.7 80.9,97.7 80.9,97.7 80.9,101.3 80.9,101.3 84.5,101.3 84.5,101.3 84.5,101.3 	"/>
	<polygon class="st15" points="77.3,97.7 73.7,97.7 73.7,97.7 73.7,101.3 73.7,101.3 77.3,101.3 77.3,101.3 77.3,101.3 	"/>
	<polygon class="st15" points="70.1,97.7 66.5,97.7 66.5,97.7 66.5,101.3 66.5,101.3 70.1,101.3 70.1,101.3 70.1,101.3 	"/>
	<polygon class="st15" points="113.2,97.7 109.6,97.7 109.6,97.7 109.6,101.3 109.6,101.3 113.2,101.3 113.2,101.3 113.2,101.3 	"/>
	<polygon class="st15" points="131.2,97.7 131.2,101.3 131.2,101.3 134.8,101.3 134.8,101.3 134.8,97.7 134.8,97.7 134.8,97.7 	"/>
	<polygon class="st15" points="116.8,97.7 116.8,101.3 116.8,101.3 120.4,101.3 120.4,101.3 120.4,97.7 120.4,97.7 120.4,97.7 	"/>
	<polygon class="st15" points="102.4,97.7 102.4,101.3 102.4,101.3 106,101.3 106,101.3 106,97.7 106,97.7 106,97.7 	"/>
	<polygon class="st15" points="95.3,97.7 95.3,101.3 95.3,101.3 98.9,101.3 98.9,101.3 98.9,97.7 98.9,97.7 98.9,97.7 	"/>
	<polygon class="st15" points="88.1,97.7 88.1,101.3 88.1,101.3 91.7,101.3 91.7,101.3 91.7,97.7 91.7,97.7 91.7,97.7 	"/>
	<polygon class="st15" points="124,97.7 124,101.3 124,101.3 127.6,101.3 127.6,101.3 127.6,97.7 127.6,97.7 127.6,97.7 	"/>
	<rect x="143.8" y="95.9" class="st3" width="7.2" height="7.2"/>
	<path class="st3" d="M151,95.9v7.2h7.2v-7.2H151z"/>
	<path class="st3" d="M158.2,95.9v7.2h7.2v-7.2H158.2z"/>
	<path class="st3" d="M136.6,95.9v7.2h7.2v-7.2H136.6z"/>
	<rect x="143.8" y="95.9" class="st4" width="7.2" height="7.2"/>
	<path class="st4" d="M151,95.9v7.2h7.2v-7.2H151z"/>
	<path class="st4" d="M158.2,95.9v7.2h7.2v-7.2H158.2z"/>
	<path class="st4" d="M136.6,95.9v7.2h7.2v-7.2H136.6z"/>
	<rect x="143.8" y="95.9" class="st3" width="7.2" height="7.2"/>
	<path class="st3" d="M151,95.9v7.2h7.2v-7.2H151z"/>
	<path class="st3" d="M158.2,95.9v7.2h7.2v-7.2H158.2z"/>
	<path class="st3" d="M136.6,95.9v7.2h7.2v-7.2H136.6z"/>
	<polygon class="st15" points="156.4,97.7 152.8,97.7 152.8,97.7 152.8,101.3 152.8,101.3 156.4,101.3 156.4,101.3 156.4,101.3 	"/>
	<polygon class="st15" points="149.2,97.7 145.6,97.7 145.6,97.7 145.6,101.3 145.6,101.3 149.2,101.3 149.2,101.3 149.2,101.3 	"/>
	<polygon class="st15" points="142,97.7 138.4,97.7 138.4,97.7 138.4,101.3 138.4,101.3 142,101.3 142,101.3 142,101.3 	"/>
	<polygon class="st15" points="160,97.7 160,101.3 160,101.3 163.6,101.3 163.6,101.3 163.6,97.7 163.6,97.7 163.6,97.7 	"/>
</g>
</svg>
