<svg xmlns="http://www.w3.org/2000/svg" width="194" height="139" fill="none" viewBox="0 0 194 139"><g clip-path="url(#a)"><path fill="#017481" d="M193.782 40.873a2.46 2.46 0 0 0-.883-1.877h.001l-4.938-4.937v-.014a2.45 2.45 0 0 1-.74-1.663h-.011V3.255a2.467 2.467 0 0 0-2.467-2.468H18.947V.782l-.255.011-.25.04-.242.06-.243.084-.231.113-.217.124-.202.152-.19.17-.173.19-.151.204-.124.218-.113.23-.085.243-.06.243-.04.25-.011.254v132.825l.012.256.038.25.06.243.086.245.113.228.124.218.151.204.173.19.19.172.202.15.217.126.231.111.242.085.243.058.25.039.255.014H184.62l.257-.014.25-.039.244-.058.243-.085.229-.111.217-.126.204-.15.192-.172.171-.19.149-.204.127-.218.11-.228.086-.245.058-.243.041-.25.013-.256v-3.982l5.824-5.824.043-.043a2.46 2.46 0 0 0 .704-1.721z"/><path fill="#017481" d="m18.442 138.729-.242-.058-.243-.086-.231-.11-.217-.126-.202-.15-.19-.172-.173-.19-.152-.205-.124-.217-.112-.229-.086-.244-.06-.242-.038-.251-.012-.256V3.368l.012-.254.039-.25.06-.243.085-.242.112-.231.124-.217.152-.205.172-.19.191-.17.202-.152.217-.124.23-.112.244-.086.242-.058.25-.04.254-.013-.254.012-.25.04-.242.059-.243.086-.231.112-.217.124-.202.152-.19.17-.173.19-.152.205-.124.217-.112.23-.086.243-.06.242-.038.251-.012.254v132.825l.012.256.039.251.06.242.085.244.112.229.124.217.152.205.172.19.191.172.202.15.217.126.23.11.244.086zl.25.039.254.014-.254-.014z"/><path fill="#b3b6b7" d="M80.442 104.904v3.883h3.883v-3.883z"/><path fill="#a1cbcf" d="M169.438 56.31a.647.647 0 1 1 1.294 0 .647.647 0 0 1-1.294 0M169.438 54.243a.648.648 0 1 1 1.296-.003.648.648 0 0 1-1.296.003M169.438 52.176a.648.648 0 0 1 .773-.636.646.646 0 1 1-.773.636M169.438 50.102a.647.647 0 1 1 1.294 0 .647.647 0 0 1-1.294 0M164.262 56.31a.647.647 0 1 1 1.295.003.647.647 0 0 1-1.295-.004M164.262 54.243a.649.649 0 0 1 1.105-.459.644.644 0 0 1-.099.996.64.64 0 0 1-.816-.08.65.65 0 0 1-.19-.457M164.262 52.176a.65.65 0 0 1 .774-.636.646.646 0 1 1-.774.636M164.262 50.102a.648.648 0 1 1 1.296.004.648.648 0 0 1-1.296-.004"/><path fill="#017481" d="M167.495 49.456h-1.294v7.501h2.588v-7.501z"/><path fill="#d25415" d="M167.495 49.456h-1.294v7.501h2.588v-7.501z"/><path fill="#000" d="M167.495 49.456h-1.294v7.501h2.588v-7.501z"/><path fill="#8b8f90" d="M164.909 49.456v1.294h1.292v-1.294zM164.909 51.524v1.294h1.292v-1.294zM164.909 53.597v1.292h1.292v-1.292zM164.909 55.663v1.295h1.292v-1.295zM168.79 49.456v1.294h1.294v-1.294zM168.79 51.524v1.294h1.294v-1.294zM168.79 53.597v1.292h1.294v-1.292zM168.79 55.663v1.295h1.294v-1.295zM84.814 65.405v5.355h1.742v-5.355zM90.68 65.405v5.355h1.74v-5.355z"/><path fill="#8a7867" d="M90.967 70.153a1.04 1.04 0 0 0 1.036-1.034v-2.07a1.04 1.04 0 0 0-1.036-1.037h-.287v4.141zM86.267 66.012a1.04 1.04 0 0 0-1.036 1.036v2.07a1.04 1.04 0 0 0 1.036 1.035h.29v-4.14z"/><path fill="#8b8f90" d="m72.195 39.74 1.348-1.347v-1.906l-1.348-1.347H70.29l-1.347 1.347v1.906l1.347 1.346zM65.623 39.74l1.35-1.347v-1.906l-1.35-1.347h-1.905l-1.347 1.347v1.906l1.347 1.346zM65.623 33.169l1.35-1.347v-1.905l-1.35-1.348h-1.905l-1.347 1.348v1.905l1.347 1.347zM72.195 33.169l1.348-1.347v-1.905l-1.348-1.348H70.29l-1.347 1.348v1.905l1.347 1.347z"/><path fill="#adb0b1" d="M72.472 37.44a1.228 1.228 0 1 0-2.457 0 1.228 1.228 0 0 0 2.457 0M65.9 37.44a1.228 1.228 0 1 0-2.457 0 1.228 1.228 0 0 0 2.456 0M65.9 30.87a1.228 1.228 0 1 0-2.457 0 1.228 1.228 0 0 0 2.456 0M72.472 30.87a1.229 1.229 0 1 0-2.458 0 1.229 1.229 0 0 0 2.458 0"/><path fill="#fff" d="M187.153 114.12a4.947 4.947 0 0 0-.969 9.801 4.95 4.95 0 0 0 5.08-2.102 4.95 4.95 0 0 0 .835-2.749 4.96 4.96 0 0 0-4.946-4.95M54.877 2.41a4.947 4.947 0 1 0 4.946 4.946 4.955 4.955 0 0 0-4.946-4.946M52.502 127.203a4.953 4.953 0 0 0-4.116 7.698 4.94 4.94 0 0 0 5.08 2.103 4.948 4.948 0 0 0-.964-9.801"/><path fill="#8a7867" d="M55.964 115.121v8.02h8.02a8.02 8.02 0 0 1-7.41-4.951 8 8 0 0 1-.61-3.069M63.984 123.141h8.02v-8.02a8.017 8.017 0 0 1-8.02 8.02"/><path fill="#8b8f90" d="M83.676 107.101a1.295 1.295 0 0 0-2.561-.255 1.296 1.296 0 0 0 1.267 1.547 1.295 1.295 0 0 0 1.294-1.292"/><path fill="#c2c5c6" d="M90.402 115.121a8.02 8.02 0 0 0-8.02-8.02 8.02 8.02 0 1 0 0 16.04 8.02 8.02 0 0 0 8.02-8.02"/><path fill="#8a7867" d="M74.362 115.121v8.02h8.02a8.02 8.02 0 0 1-8.02-8.02M82.382 123.141h8.02v-8.02a8.02 8.02 0 0 1-8.02 8.02"/><path fill="#8b8f90" d="M81.107 115.121a1.276 1.276 0 1 1 2.552.001 1.276 1.276 0 0 1-2.552-.001"/><path fill="#b3b6b7" d="M62.061 104.904v3.883h3.883v-3.883z"/><path fill="#8b8f90" d="M65.296 107.101a1.294 1.294 0 1 0-2.588-.002 1.294 1.294 0 0 0 2.588.002"/><path fill="#c2c5c6" d="M72.022 115.121a8.02 8.02 0 0 0-8.02-8.02 8.02 8.02 0 1 0 0 16.04 8.02 8.02 0 0 0 8.02-8.02"/><path fill="#8b8f90" d="M62.727 115.121a1.276 1.276 0 1 1 2.553.001 1.276 1.276 0 0 1-2.553-.001M23.586 62.112v5.373h6.573v-5.373zM23.586 72.984v5.407h6.573v-5.407z"/><path fill="#017481" d="M74.41 42.617v12.94H61.478v-12.94z"/><path fill="#d25415" d="M74.41 42.617v12.94H61.478v-12.94z"/><path fill="#000" d="M74.41 42.617v12.94H61.478v-12.94z"/><path fill="#8b8f90" d="M62.989 54.683v1.745h.851v-1.745zM64.283 54.683v1.745h.852v-1.745zM65.577 54.683v1.745h.852v-1.745zM66.872 54.683v1.745h.852v-1.745zM68.166 54.683v1.745h.852v-1.745zM69.46 54.683v1.745h.852v-1.745zM70.755 54.683v1.745h.852v-1.745zM72.049 54.683v1.745h.852v-1.745zM73.537 44.13v.855h1.745v-.854zM73.537 45.427v.852h1.745v-.852zM73.537 46.721v.854h1.745v-.854zM73.537 48.018v.852h1.745v-.852zM73.537 49.312v.854h1.745v-.854zM73.537 50.606v.852h1.745v-.852zM73.537 51.903v.851h1.745v-.851zM73.537 53.197v.852h1.745v-.852zM60.63 44.13v.855h1.745v-.854zM60.63 45.427v.852h1.745v-.852zM60.63 46.721v.854h1.745v-.854zM60.63 48.018v.852h1.745v-.852zM60.63 49.312v.854h1.745v-.854zM60.63 50.606v.852h1.745v-.852zM60.63 51.903v.851h1.745v-.851zM60.63 53.197v.852h1.745v-.852zM62.989 41.773v1.744h.851v-1.744zM64.283 41.773v1.744h.852v-1.744zM65.577 41.773v1.744h.852v-1.744zM66.872 41.773v1.744h.852v-1.744zM68.166 41.773v1.744h.852v-1.744zM69.46 41.773v1.744h.852v-1.744zM70.755 41.773v1.744h.852v-1.744zM72.049 41.773v1.744h.852v-1.744z"/><path fill="#017481" d="M131.911 90.99v12.939h-12.934v-12.94z"/><path fill="#d25415" d="M131.911 90.99v12.939h-12.934v-12.94z"/><path fill="#000" d="M131.911 90.99v12.939h-12.934v-12.94z"/><path fill="#8b8f90" d="M120.489 103.056v1.745h.851v-1.745zM121.783 103.056v1.745h.852v-1.745zM123.077 103.056v1.745h.852v-1.745zM124.372 103.056v1.745h.851v-1.745zM125.666 103.056v1.745h.852v-1.745zM126.96 103.056v1.745h.852v-1.745zM128.255 103.056v1.745h.852v-1.745zM129.549 103.056v1.745h.852v-1.745zM131.037 92.504v.854h1.745v-.854zM131.037 93.8v.852h1.745V93.8zM131.037 95.094v.854h1.745v-.854zM131.037 96.39v.853h1.745v-.852zM131.037 97.685v.854h1.745v-.854zM131.037 98.98v.851h1.745v-.852zM131.037 100.276v.851h1.745v-.851zM131.037 101.57v.852h1.745v-.852zM118.131 92.504v.854h1.744v-.854zM118.131 93.8v.852h1.744V93.8zM118.131 95.094v.854h1.744v-.854zM118.131 96.39v.853h1.744v-.852zM118.131 97.685v.854h1.744v-.854zM118.131 98.98v.851h1.744v-.852zM118.131 100.276v.851h1.744v-.851zM118.131 101.57v.852h1.744v-.852zM120.489 90.146v1.745h.851v-1.745zM121.783 90.146v1.745h.852v-1.745zM123.077 90.146v1.745h.852v-1.745zM124.372 90.146v1.745h.851v-1.745zM125.666 90.146v1.745h.852v-1.745zM126.96 90.146v1.745h.852v-1.745zM128.255 90.146v1.745h.852v-1.745zM129.549 90.146v1.745h.852v-1.745zM47.938 26.288a1.29 1.29 0 0 0 1.292-1.293h-2.586a1.293 1.293 0 0 0 1.294 1.293M47.938 13.752a1.29 1.29 0 0 0-1.294 1.292h2.586a1.29 1.29 0 0 0-1.292-1.292M50.527 26.288a1.294 1.294 0 0 0 1.294-1.293h-2.587a1.294 1.294 0 0 0 1.292 1.293M50.527 13.752a1.293 1.293 0 0 0-1.293 1.292h2.587a1.294 1.294 0 0 0-1.294-1.292"/><path fill="#017481" d="M49.234 15.044h-2.59v9.951h5.177v-9.951z"/><path fill="#d25415" d="M49.234 15.044h-2.59v9.951h5.177v-9.951z"/><path fill="#000" d="M49.234 15.044h-2.59v9.951h5.177v-9.951z"/><path fill="#017481" d="M71.028 94.6v7.492h4.937V94.6z"/><path fill="#d25415" d="M71.028 94.6v7.492h4.937V94.6z"/><path fill="#000" d="M71.028 94.6v7.492h4.937V94.6z"/><path fill="#8b8f90" d="M68.209 95.24v1.294h3.568V95.24zM68.209 100.157v1.295h3.568v-1.295zM68.209 97.699v1.294h3.568V97.7zM74.62 95.24v1.294h3.57V95.24zM74.62 100.157v1.295h3.57v-1.295zM42.7 86.164v3.416h1.295v-3.416zM42.7 92.155v3.413h1.295v-3.413zM29.784 88.984v9.755h1.295v-9.755z"/><path fill="#adb0b1" d="M28.49 88.984v9.755h1.294v-9.755z"/><path fill="#8b8f90" d="M27.198 88.984v9.755h1.292v-9.755zM42.7 98.042v3.416h1.295v-3.416z"/><path fill="#a19284" d="M43.995 86.164v3.416h1.292v-3.416zM43.995 92.155v3.413h1.292v-3.413zM43.995 98.042v3.416h1.292v-3.416z"/><path fill="#8b8f90" d="M45.287 86.164v3.416h1.294v-3.416zM45.287 92.155v3.413h1.294v-3.413zM45.287 98.042v3.416h1.294v-3.416zM71.354 86.566v.852h3.78v-.852zM71.354 84.884v.852h3.78v-.852zM71.354 83.201v.852h3.78v-.852zM71.354 88.249v.851h3.78v-.851zM60.778 84.884v.852h3.78v-.852zM60.778 86.566v.852h3.78v-.852zM60.778 88.249v.851h3.78v-.851zM60.778 83.201v.852h3.78v-.852z"/><path fill="#c2c5c6" d="M60.353 83.626a.426.426 0 1 0 .853.002.426.426 0 0 0-.853-.002M60.353 85.309a.426.426 0 1 0 .852.002.426.426 0 0 0-.852-.002M60.353 86.993a.426.426 0 1 0 .851-.002.426.426 0 0 0-.85.002M60.353 88.675a.426.426 0 1 0 .853-.002.426.426 0 0 0-.853.002M74.707 83.626a.427.427 0 1 0 .854.004.427.427 0 0 0-.854-.004M74.707 85.309a.427.427 0 1 0 .854.004.427.427 0 0 0-.854-.004M74.707 86.993a.427.427 0 1 0 .854 0 .427.427 0 0 0-.854 0M74.707 88.675a.427.427 0 1 0 .854 0 .427.427 0 0 0-.854 0"/><path fill="#000" d="M36.13 66.565v7.227h4.142v-7.227z"/><path fill="#c2c5c6" d="M40.272 66.565v2.587h2.588v-2.587zM33.544 68.886v2.587h2.586v-2.587zM40.272 71.205v2.587h2.588v-2.587z"/><path fill="#8b8f90" d="M39.623 67.211v1.295h1.295V67.21zM39.623 71.853v1.292h1.295v-1.292zM35.482 69.532v1.294h1.295v-1.294zM118.447 69.882v5.355h2.654v-5.355zM125.225 69.882v5.355h2.655v-5.355z"/><path fill="#8a7867" d="M125.514 74.63a1.036 1.036 0 0 0 1.034-1.034v-2.07a1.035 1.035 0 0 0-1.034-1.037h-.289v4.14zM120.812 70.489a1.043 1.043 0 0 0-1.036 1.036v2.07a1.04 1.04 0 0 0 1.036 1.035h.289v-4.141z"/><path fill="#8b8f90" d="M44.817 60.023v3.076h3.076v-3.076zM50.483 60.023v3.076h3.076v-3.076z"/><path fill="#8a7867" d="m46.917 60.023-1.538 1.538 1.538 1.538v-.008h.98v-3.068zM51.463 63.099l1.538-1.54-1.538-1.536v.007h-.98V63.1z"/><path fill="#017481" d="M47.896 60.023v3.075h2.588v-3.075z"/><path fill="#d25415" d="M47.896 60.023v3.075h2.588v-3.075z"/><path fill="#000" d="M47.896 60.023v3.075h2.588v-3.075z"/><path fill="#8b8f90" d="M44.817 51.48v3.077h3.076V51.48zM50.483 51.48v3.077h3.076V51.48z"/><path fill="#017481" d="M47.896 51.48v3.076h2.588v-3.075z"/><path fill="#d25415" d="M47.896 51.48v3.076h2.588v-3.075z"/><path fill="#000" d="M47.896 51.48v3.076h2.588v-3.075z"/><path fill="#8a7867" d="m46.917 51.48-1.538 1.539 1.538 1.537v-.008h.98V51.48zM51.463 54.556l1.538-1.538-1.538-1.538v.008h-.98v3.068z"/><path fill="#8b8f90" d="M45.732 35.383v3.076h3.077v-3.077zM49.57 35.383v3.076h3.076v-3.077z"/><path fill="#8a7867" d="M49.127 35.616H47.87v.01a1.284 1.284 0 0 0 0 2.568v.01h1.32v-2.588z"/><path fill="#8a7867" d="M50.492 38.204a1.293 1.293 0 0 0 0-2.586v-.002h-1.303v2.588z"/><path fill="#017481" d="M47.896 35.616v2.588h2.586v-2.588z"/><path fill="#d25415" d="M47.896 35.616v2.588h2.586v-2.588z"/><path fill="#000" d="M47.896 35.616v2.588h2.586v-2.588z"/><path fill="#8b8f90" d="M45.732 28.866v3.077h3.077v-3.077zM49.57 28.866v3.077h3.076v-3.077z"/><path fill="#8a7867" d="M49.127 29.1H47.87v.01a1.285 1.285 0 0 0 0 2.568v.01h1.32V29.1z"/><path fill="#8a7867" d="M50.492 31.688a1.293 1.293 0 0 0 0-2.586V29.1h-1.303v2.588z"/><path fill="#017481" d="M47.896 29.1v2.588h2.586V29.1z"/><path fill="#d25415" d="M47.896 29.1v2.588h2.586V29.1z"/><path fill="#000" d="M47.896 29.1v2.588h2.586V29.1z"/><path fill="#8b8f90" d="M31.156 20.14v3.076h3.076v-3.077zM36.822 20.14v3.076h3.076v-3.077z"/><path fill="#8a7867" d="m33.255 20.139-1.538 1.539 1.538 1.537v-.008h.98V20.14zM37.802 23.215l1.538-1.538-1.538-1.538v.007h-.979v3.069z"/><path fill="#017481" d="M34.234 20.14v3.075h2.589v-3.076z"/><path fill="#d25415" d="M34.234 20.14v3.075h2.589v-3.076z"/><path fill="#000" d="M34.234 20.14v3.075h2.589v-3.076z"/><path fill="#8b8f90" d="M85.286 20v3.076h3.076V20zM89.123 20v3.076H92.2V20z"/><path fill="#8a7867" d="M88.681 20.233h-1.258v.011a1.284 1.284 0 0 0 0 2.568v.01h1.32v-2.589zM90.046 22.822a1.293 1.293 0 0 0 0-2.587v-.002h-1.303v2.589z"/><path fill="#017481" d="M87.45 20.233v2.589h2.586v-2.589z"/><path fill="#d25415" d="M87.45 20.233v2.589h2.586v-2.589z"/><path fill="#000" d="M87.45 20.233v2.589h2.586v-2.589z"/><path fill="#8b8f90" d="M84.814 60.033v3.076h3.077v-3.076zM89.344 60.033v3.076h3.076v-3.076z"/><path fill="#8a7867" d="M88.557 60.266h-1.259v.011a1.284 1.284 0 0 0 0 2.568v.01h1.32v-2.589zM89.922 62.855a1.293 1.293 0 1 0 0-2.587v-.002h-1.304v2.589z"/><path fill="#017481" d="M87.325 60.266v2.589h2.587v-2.589z"/><path fill="#d25415" d="M87.325 60.266v2.589h2.587v-2.589z"/><path fill="#000" d="M87.325 60.266v2.589h2.587v-2.589z"/><path fill="#8b8f90" d="M119.705 77.589v3.076h3.076V77.59zM123.542 77.589v3.076h3.077V77.59z"/><path fill="#8a7867" d="M123.1 77.822h-1.258v.01a1.287 1.287 0 0 0-1.245 1.285 1.285 1.285 0 0 0 1.245 1.284v.01h1.32v-2.589zM124.465 80.41a1.292 1.292 0 0 0 0-2.586v-.002h-1.303v2.588z"/><path fill="#017481" d="M121.868 77.822v2.588h2.587v-2.588z"/><path fill="#d25415" d="M121.868 77.822v2.588h2.587v-2.588z"/><path fill="#000" d="M121.868 77.822v2.588h2.587v-2.588z"/><path fill="#8b8f90" d="M124.268 110.446v3.076h3.077v-3.076zM128.105 110.446v3.076h3.077v-3.076z"/><path fill="#8a7867" d="M127.664 110.679h-1.259v.011a1.286 1.286 0 0 0 0 2.568v.01h1.32v-2.589zM129.028 113.268a1.3 1.3 0 0 0 1.283-1.294 1.29 1.29 0 0 0-1.283-1.293v-.002h-1.303v2.589z"/><path fill="#017481" d="M126.432 110.679v2.589h2.586v-2.589z"/><path fill="#d25415" d="M126.432 110.679v2.589h2.586v-2.589z"/><path fill="#000" d="M126.432 110.679v2.589h2.586v-2.589z"/><path fill="#8b8f90" d="M80.888 98.726v3.077h3.076v-3.077zM80.888 94.888v3.077h3.076v-3.077z"/><path fill="#8a7867" d="M81.121 98.407v1.258h.01a1.287 1.287 0 0 0 1.285 1.245 1.285 1.285 0 0 0 1.284-1.245h.01v-1.32H81.12z"/><path fill="#8a7867" d="M83.71 97.043a1.293 1.293 0 0 0-2.587 0h-.002v1.302h2.588z"/><path fill="#017481" d="M81.12 97.052v2.587h2.59v-2.587z"/><path fill="#d25415" d="M81.12 97.052v2.587h2.59v-2.587z"/><path fill="#000" d="M81.12 97.052v2.587h2.59v-2.587z"/><path fill="#8b8f90" d="M62.462 98.726v3.077h3.077v-3.077zM62.462 94.889v3.076h3.077v-3.076z"/><path fill="#8a7867" d="M62.696 98.407v1.258h.01a1.287 1.287 0 0 0 1.284 1.245 1.285 1.285 0 0 0 1.284-1.245h.01v-1.32h-2.588z"/><path fill="#8a7867" d="M65.284 97.043a1.295 1.295 0 0 0-1.79-1.205 1.29 1.29 0 0 0-.796 1.205h-.002v1.302h2.588z"/><path fill="#017481" d="M62.696 97.052v2.587h2.588v-2.587z"/><path fill="#d25415" d="M62.696 97.052v2.587h2.588v-2.587z"/><path fill="#000" d="M62.696 97.052v2.587h2.588v-2.587z"/><path fill="#8b8f90" d="M85.161 54.768v3.077h3.077v-3.077zM88.999 54.768v3.077h3.077v-3.077z"/><path fill="#8a7867" d="M88.557 55.002h-1.258v.01a1.285 1.285 0 0 0 0 2.568v.01h1.32v-2.588z"/><path fill="#8a7867" d="M89.922 57.59a1.293 1.293 0 0 0 0-2.587v-.001h-1.304v2.588z"/><path fill="#017481" d="M87.325 55.002v2.588h2.587v-2.588z"/><path fill="#d25415" d="M87.325 55.002v2.588h2.587v-2.588z"/><path fill="#000" d="M87.325 55.002v2.588h2.587v-2.588zM71.77 13.785h-2.511l-1.775 1.773h-.512L65.2 13.785h-2.51l-1.775 1.773H60.4l-1.773-1.773h-2.51l-1.774 1.773v9.083l1.774 1.773h2.51L60.4 24.64h.514l1.774 1.774h2.51l1.774-1.774h.512l1.775 1.774h2.51l1.774-1.774v-9.082z"/><path fill="#8b8f90" d="M69.387 23.385a1.126 1.126 0 1 1 2.25-.003 1.126 1.126 0 0 1-2.25.003M56.245 16.814a1.126 1.126 0 1 1 2.253-.002 1.126 1.126 0 0 1-2.253.002M62.816 16.814a1.127 1.127 0 1 1 2.254-.002 1.127 1.127 0 0 1-2.254.002M69.387 16.814a1.127 1.127 0 1 1 2.253-.002 1.127 1.127 0 0 1-2.254.002M56.245 23.385a1.126 1.126 0 1 1 2.253-.002 1.126 1.126 0 0 1-2.253.002M62.816 23.385a1.126 1.126 0 1 1 2.253-.002 1.126 1.126 0 0 1-2.253.002M55.398 60.033v3.076h3.076v-3.076zM59.235 60.033v3.076h3.077v-3.076z"/><path fill="#8a7867" d="M58.793 60.266h-1.258v.011a1.285 1.285 0 0 0 0 2.568v.01h1.32v-2.589zM60.158 62.855a1.29 1.29 0 0 0 1.304-1.294 1.294 1.294 0 0 0-1.304-1.293v-.002h-1.303v2.589z"/><path fill="#8b8f90" d="M64.499 60.033v3.076h3.077v-3.076zM68.336 60.033v3.076h3.077v-3.076z"/><path fill="#8a7867" d="M67.894 60.266h-1.258v.011a1.284 1.284 0 0 0 0 2.568v.01h1.32v-2.589zM69.259 62.855a1.29 1.29 0 0 0 1.304-1.294 1.29 1.29 0 0 0-1.304-1.293v-.002h-1.303v2.589z"/><path fill="#8b8f90" d="M73.6 60.033v3.076h3.076v-3.076zM77.437 60.033v3.076h3.077v-3.076z"/><path fill="#8a7867" d="M76.995 60.266h-1.258v.011a1.285 1.285 0 0 0 0 2.568v.01h1.32v-2.589zM78.36 62.855a1.29 1.29 0 0 0 1.204-1.791 1.29 1.29 0 0 0-1.204-.796v-.002h-1.303v2.589z"/><path fill="#8b8f90" d="M65.79 130.212a1.295 1.295 0 0 0-2.206-.916 1.294 1.294 0 1 0 2.207.916M81.224 130.212a1.294 1.294 0 1 0-2.588-.002 1.294 1.294 0 0 0 2.588.002M65.79 134.091a1.29 1.29 0 0 0-1.294-1.294 1.295 1.295 0 0 0-.913 2.208 1.3 1.3 0 0 0 1.829.001 1.3 1.3 0 0 0 .379-.915M81.224 134.091a1.297 1.297 0 0 0-1.295-1.294 1.29 1.29 0 0 0-1.292 1.294 1.293 1.293 0 1 0 2.587 0"/><path fill="#fff" d="M72.982 132.087a.79.79 0 0 0-.486-.73.79.79 0 1 0 .486.73"/><path fill="#000" d="M78.833 128.918H64.496v6.466H79.93v-6.466z"/><path fill="#017481" d="M131.376 4.07v6.571h6.571v-6.57zM68.267 4.067v6.574h6.57V4.067zM74.847 4.07v6.571h6.57v-6.57zM81.418 4.07v6.571h6.57v-6.57zM87.988 4.07v6.571h6.57v-6.57z"/><path fill="#017481" d="M61.704 4.07v6.571h6.57v-6.57zM101.077 4.07v6.571h6.571v-6.57zM94.505 4.07v6.571h6.57v-6.57z"/><path fill="#017481" d="M107.644 4.07v6.571h6.57v-6.57zM120.791 4.07v6.571h6.57v-6.57zM114.218 4.07v6.571h6.571v-6.57zM144.52 4.07v6.571h6.57v-6.57zM137.947 4.07v6.571h6.571v-6.57zM151.09 4.07v6.571h6.571v-6.57zM164.177 4.07v6.571h6.571v-6.57zM177.32 4.07v6.571h6.571v-6.57z"/><path fill="#017481" d="M157.606 4.07v6.571h6.571v-6.57zM170.742 4.069v6.57h6.568V4.07z"/><path fill="#d25415" d="M131.376 4.07v6.571h6.571v-6.57zM68.267 4.067v6.574h6.57V4.067zM74.847 4.07v6.571h6.57v-6.57zM81.418 4.07v6.571h6.57v-6.57zM87.988 4.07v6.571h6.57v-6.57z"/><path fill="#d25415" d="M61.704 4.07v6.571h6.57v-6.57zM101.077 4.07v6.571h6.571v-6.57zM94.505 4.07v6.571h6.57v-6.57z"/><path fill="#d25415" d="M107.644 4.07v6.571h6.57v-6.57zM120.791 4.07v6.571h6.57v-6.57zM114.218 4.07v6.571h6.571v-6.57zM144.52 4.07v6.571h6.57v-6.57zM137.947 4.07v6.571h6.571v-6.57zM151.09 4.07v6.571h6.571v-6.57zM164.177 4.07v6.571h6.571v-6.57zM177.32 4.07v6.571h6.571v-6.57z"/><path fill="#d25415" d="M157.606 4.07v6.571h6.571v-6.57zM170.742 4.069v6.57h6.568V4.07z"/><path fill="#000" d="M131.376 4.07v6.571h6.571v-6.57zM68.267 4.067v6.574h6.57V4.067zM74.847 4.07v6.571h6.57v-6.57zM81.418 4.07v6.571h6.57v-6.57zM87.988 4.07v6.571h6.57v-6.57z"/><path fill="#000" d="M61.704 4.07v6.571h6.57v-6.57zM101.077 4.07v6.571h6.571v-6.57zM94.505 4.07v6.571h6.57v-6.57z"/><path fill="#000" d="M107.644 4.07v6.571h6.57v-6.57zM120.791 4.07v6.571h6.57v-6.57zM114.218 4.07v6.571h6.571v-6.57zM144.52 4.07v6.571h6.57v-6.57zM137.947 4.07v6.571h6.571v-6.57zM151.09 4.07v6.571h6.571v-6.57zM164.177 4.07v6.571h6.571v-6.57zM177.32 4.07v6.571h6.571v-6.57z"/><path fill="#000" d="M157.606 4.07v6.571h6.571v-6.57zM170.742 4.069v6.57h6.568V4.07z"/><path fill="#c2c5c6" d="M23.586 60.792v1.32h6.573v-1.32zM23.586 78.39v1.32h6.573v-1.32zM27.85 63.91a.932.932 0 1 1-1.865.003.932.932 0 0 1 1.864-.003M27.85 76.272a.933.933 0 1 1-1.866-.002.933.933 0 0 1 1.865.002"/><path fill="#8a7867" d="M30.06 63.891h-2.222a.927.927 0 0 1-1.853 0h-3.171V76.27h3.165a.933.933 0 0 1 1.865 0h3.087V63.89z"/><path fill="#000" d="M177.96 58.673v2.51l1.774 1.774-.001.513-1.773 1.774v2.51l1.774 1.775-.001.512-1.773 1.773v2.51l1.774 1.775h9.08l1.773-1.774v-2.51l-1.773-1.774v-.512l1.773-1.775v-2.51l-1.773-1.774v-.513l1.773-1.773v-2.511l-1.773-1.773h-9.081z"/><path fill="#8b8f90" d="M187.56 61.056a1.128 1.128 0 1 1-.003-2.257 1.128 1.128 0 0 1 .003 2.257M180.988 74.197a1.125 1.125 0 1 1-.003-2.25 1.125 1.125 0 0 1 .003 2.25M180.988 67.627a1.129 1.129 0 0 1-.8-1.924 1.128 1.128 0 1 1 .8 1.924M180.988 61.056a1.128 1.128 0 1 1-.003-2.257 1.128 1.128 0 0 1 .003 2.257M187.56 74.197a1.128 1.128 0 1 1-.001-2.255 1.128 1.128 0 0 1 .001 2.255M187.56 67.627a1.129 1.129 0 0 1-.8-1.924 1.13 1.13 0 0 1 1.229-.246 1.128 1.128 0 0 1-.429 2.17"/><path fill="#9da0a1" d="M.219 24.949v29.608h39.43V24.95z"/><path fill="#9da0a1" d="M1.862 24.949H.22v29.608h1.643V24.949M5.147 24.949H3.504v29.608h1.643V24.949"/><path fill="#8b8f90" d="M8.433 24.949H6.789v29.608h1.644V24.949M11.718 24.949h-1.643v29.608h1.643V24.949M15.003 24.949H13.36v29.608h1.643V24.949M18.289 24.949h-1.642v29.608h1.642V24.949M21.576 24.949h-1.644v29.608h1.644V24.949M24.861 24.949h-1.643v29.608h1.643V24.949M28.146 24.949h-1.643v29.608h1.643V24.949M31.432 24.949h-1.644v29.608h1.644V24.949M34.717 24.949h-1.643v29.608h1.643V24.949"/><path fill="#9da0a1" d="M38.002 24.949H36.36v29.608h1.643V24.949"/><path fill="#017481" d="M121.101 70.489v4.14h4.124v-4.14z"/><path fill="#d25415" d="M121.101 70.489v4.14h4.124v-4.14z"/><path fill="#000" d="M121.101 70.489v4.14h4.124v-4.14z"/><path fill="#017481" d="M86.556 66.012v4.141h4.124v-4.14z"/><path fill="#d25415" d="M86.556 66.012v4.141h4.124v-4.14z"/><path fill="#000" d="M86.556 66.012v4.141h4.124v-4.14z"/><path fill="#017481" d="M75.763 60.266v2.589h2.587v-2.589z"/><path fill="#d25415" d="M75.763 60.266v2.589h2.587v-2.589z"/><path fill="#000" d="M75.763 60.266v2.589h2.587v-2.589z"/><path fill="#017481" d="M66.663 60.266v2.589h2.586v-2.589z"/><path fill="#d25415" d="M66.663 60.266v2.589h2.586v-2.589z"/><path fill="#000" d="M66.663 60.266v2.589h2.586v-2.589z"/><path fill="#017481" d="M57.562 60.266v2.589h2.586v-2.589z"/><path fill="#d25415" d="M57.562 60.266v2.589h2.586v-2.589z"/><path fill="#000" d="M57.562 60.266v2.589h2.586v-2.589z"/><path fill="#017481" d="M22.814 67.485v5.5h8.117v-5.5z"/><path fill="#d25415" d="M22.814 67.485v5.5h8.117v-5.5z"/><path fill="#000" d="M22.814 67.485v5.5h8.117v-5.5z"/><path fill="#017481" d="M31.079 85.309v16.942H42.7V85.309z"/><path fill="#d25415" d="M31.079 85.309v16.942H42.7V85.309z"/><path fill="#000" d="M31.079 85.309v16.942H42.7V85.309z"/><path fill="#8b8f90" d="M24.59 1.955v15.523h15.522V1.955z"/><path fill="#9da0a1" d="M41.14 1.955v3.286h3.285V1.955z"/><path fill="#8a7867" d="M40.582 4.259h2.2V2.966h-4.4V4.26z"/><path fill="#9da0a1" d="M20.276 1.955v3.286h3.285V1.955z"/><path fill="#8a7867" d="M24.12 2.935h-2.2V4.23h4.4V2.935z"/><path fill="#9da0a1" d="M41.14 14.192v3.286h3.285v-3.286z"/><path fill="#8a7867" d="M40.582 16.495h2.2v-1.292h-4.4v1.292z"/><path fill="#9da0a1" d="M20.276 14.192v3.286h3.285v-3.286z"/><path fill="#8a7867" d="M24.12 15.175h-2.2v1.294h4.4v-1.294z"/><path fill="#9da0a1" d="M20.277 8.074v3.286h3.285V8.074z"/><path fill="#8a7867" d="M24.12 9.056h-2.2v1.292h4.4V9.056z"/><path fill="#dddede" d="M28.106 9.718a4.246 4.246 0 1 1 8.492 0 4.246 4.246 0 0 1-8.492 0"/><path fill="#b8b9ba" d="M76.816 76.841H59.073l-.386-.014-.381-.04-.387-.058-.377-.093-.367-.11-.36-.14-.357-.158-.34-.184-.33-.203-.316-.223-.295-.244-.282-.269-.27-.282-.243-.295-.222-.316-.205-.328-.184-.342-.158-.355-.138-.363-.11-.368-.094-.373-.058-.388-.04-.382-.013-.387.013-.388.04-.381.058-.387.093-.375.111-.37.138-.359.158-.355.184-.342.205-.328.222-.316.244-.295.269-.284.282-.27.295-.241.316-.223.33-.205.34-.184.356-.159.36-.136.368-.11.377-.094.387-.058.381-.04.386-.014h17.743l.389.014.38.04.387.058.375.093.367.11.362.137.355.16.342.183.329.205.314.223.296.242.284.269.27.284.243.295.222.316.204.328.184.342.157.355.14.36.11.37.092.374.06.387.038.381.014.388-.014.387-.039.382-.06.388-.091.373-.11.368-.14.363-.157.355-.184.342-.204.328-.222.316-.244.295-.269.282-.284.269-.296.244-.314.223-.329.203-.342.184-.355.159-.362.138-.367.11-.375.094-.388.058-.38.04z"/><path fill="#b8b9ba" d="m53.162 70.873-.002.053.013.387.04.382.058.388.093.373.111.368.138.363.158.355.184.342.205.328.222.316.244.295.269.282.282.269.295.244.316.223.33.203.34.184.356.159.36.138.368.11.377.094.387.058.381.04.386.014h17.743l.389-.014.38-.04.387-.058.375-.093.367-.11.362-.14.355-.158.342-.184.329-.203.314-.223.296-.244.284-.269.27-.282.243-.295.222-.316.204-.328.184-.342.157-.355.14-.363.11-.368.092-.373.06-.388.038-.382.014-.387-.002-.053z"/><path fill="#adb0b1" d="M76.816 75.525H59.073l-.335-.012-.335-.034-.328-.066-.328-.085-.315-.106-.31-.13-.301-.156-.284-.172-.277-.197-.255-.218-.243-.228-.224-.251-.203-.27-.19-.276-.165-.296-.138-.301-.125-.316-.092-.322-.073-.329-.05-.327-.027-.335v-.343l.026-.335.051-.328.073-.33.092-.32.125-.316.139-.303.164-.296.19-.276.203-.27.224-.25.243-.23.255-.217.277-.196.284-.17.3-.158.311-.132.315-.105.328-.086.328-.065.335-.032.335-.015h17.743l.335.015.335.032.328.065.33.086.316.105.308.132.301.157.283.171.277.196.254.218.245.23.223.25.205.269.19.275.163.297.14.303.123.315.093.321.072.33.053.328.027.335v.343l-.027.335-.053.327-.072.329-.093.322-.124.316-.139.301-.164.296-.189.276-.205.27-.223.25-.245.229-.254.218-.277.197-.283.172-.3.156-.31.13-.315.106-.33.085-.328.067-.335.033z"/><path fill="#8b8f90" d="M171.728 42.472h-8.463v3.37h8.463z"/><path fill="#eaa800" d="M164.899 44.158a2.606 2.606 0 0 1 3.11-2.552 2.6 2.6 0 0 1 1.896 3.548 2.6 2.6 0 0 1-5.006-.996"/><path fill="#8b8f90" d="M92.866 48.932h-8.462v3.37h8.462z"/><path fill="#eaa800" d="M86.038 50.618a2.602 2.602 0 1 1 5.204 0 2.602 2.602 0 0 1-5.204 0"/><path fill="#8b8f90" d="M92.866 41.9h-8.462v3.37h8.462z"/><path fill="#eaa800" d="M86.038 43.586a2.602 2.602 0 1 1 5.204 0 2.602 2.602 0 0 1-5.204 0"/><path fill="#8b8f90" d="M92.866 25.553h-8.462v3.37h8.462z"/><path fill="#eaa800" d="M86.038 27.24a2.602 2.602 0 1 1 5.204 0 2.602 2.602 0 0 1-5.204 0"/><path fill="#017481" d="M98.525 128.918v6.571h6.571v-6.571zM105.099 128.918v6.571h6.57v-6.571zM111.672 128.918v6.571h6.571v-6.571zM118.246 128.918v6.571h6.57v-6.571zM124.819 128.918v6.571h6.571v-6.571zM131.393 128.918v6.571h6.57v-6.571z"/><path fill="#017481" d="M91.988 128.918v6.571h6.57v-6.571z"/><path fill="#017481" d="M85.45 128.918v6.571h6.57v-6.571zM144.524 128.918v6.571h6.571v-6.571zM151.097 128.918v6.571h6.571v-6.571zM157.671 128.918v6.571h6.571v-6.571zM164.244 128.918v6.571h6.571v-6.571zM170.818 128.918v6.571h6.571v-6.571zM177.391 128.918v6.571h6.571v-6.571z"/><path fill="#d25415" d="M98.525 128.918v6.571h6.571v-6.571zM105.099 128.918v6.571h6.57v-6.571zM111.672 128.918v6.571h6.571v-6.571zM118.246 128.918v6.571h6.57v-6.571zM124.819 128.918v6.571h6.571v-6.571zM131.393 128.918v6.571h6.57v-6.571z"/><path fill="#d25415" d="M91.988 128.918v6.571h6.57v-6.571z"/><path fill="#d25415" d="M85.45 128.918v6.571h6.57v-6.571zM144.524 128.918v6.571h6.571v-6.571zM151.097 128.918v6.571h6.571v-6.571zM157.671 128.918v6.571h6.571v-6.571zM164.244 128.918v6.571h6.571v-6.571zM170.818 128.918v6.571h6.571v-6.571zM177.391 128.918v6.571h6.571v-6.571z"/><path fill="#000" d="M98.525 128.918v6.571h6.571v-6.571zM105.099 128.918v6.571h6.57v-6.571zM111.672 128.918v6.571h6.571v-6.571zM118.246 128.918v6.571h6.57v-6.571zM124.819 128.918v6.571h6.571v-6.571zM131.393 128.918v6.571h6.57v-6.571z"/><path fill="#000" d="M91.988 128.918v6.571h6.57v-6.571z"/><path fill="#000" d="M85.45 128.918v6.571h6.57v-6.571zM144.524 128.918v6.571h6.571v-6.571zM151.097 128.918v6.571h6.571v-6.571zM157.671 128.918v6.571h6.571v-6.571zM164.244 128.918v6.571h6.571v-6.571zM170.818 128.918v6.571h6.571v-6.571zM177.391 128.918v6.571h6.571v-6.571z"/><path fill="#8a7867" d="M103.447 130.554h-3.286v3.293h3.286v-3.293M110.02 130.554h-3.285v3.293h3.285v-3.293M116.593 130.554h-3.285v3.293h3.285v-3.293M123.167 130.554h-3.285v3.293h3.285v-3.293M129.741 130.554h-3.286v3.293h3.286v-3.293M136.314 130.554h-3.285v3.293h3.285v-3.293M96.909 130.554h-3.286v3.293h3.286v-3.293M90.371 130.554h-3.286v3.293h3.286v-3.293M149.445 130.554h-3.285v3.293h3.285v-3.293M156.019 130.554h-3.286v3.293h3.286v-3.293M162.592 130.554h-3.286v3.293h3.286v-3.293M169.165 130.554h-3.284v3.293h3.284v-3.293M175.74 130.554h-3.286v3.293h3.286v-3.293M182.313 130.554h-3.286v3.293h3.286v-3.293M79.776 5.706h-3.287V9h3.287V5.705M73.196 5.706h-3.288V9h3.288V5.705M66.633 5.706h-3.288V9h3.288V5.705M106.005 5.706h-3.285V9h3.285V5.705M122.431 5.71l-.001 3.286h3.293V5.71h-.009v-.003zM109.284 5.71l-.002 3.286h3.293V5.71h-.008v-.003zM96.145 5.71l-.002 3.286h3.293V5.71h-.008v-.003zM89.628 5.71v3.286h3.293V5.71h-.009v-.003zM83.058 5.71l-.002 3.286h3.294V5.71h-.008v-.003zM149.448 5.706h-3.287V9h3.287V5.705M139.587 5.71l-.001 3.286h3.293V5.71h-.009v-.002zM133.016 5.71l-.001 3.286h3.293V5.71h-.008l-.002-.002zM152.729 5.71v3.285h.006l3.278.002h.009V5.712l-.008-.002h-3.285M159.246 5.71v3.285h.006l3.277.002h.008V5.712l-.006-.002h-3.285M165.817 5.71l-.002 3.286h3.285l.01-.001V5.71h-3.293M172.38 5.71l-.001 3.286h3.285l.009-.001V5.71h-3.293M178.959 5.71v3.285l.004.002h3.289V5.712l-.008-.002h-3.285M115.858 5.71l-.001 3.286h3.293V5.71h-.008v-.003z"/><path fill="#8b8f90" d="M168.683 73.247a1.293 1.293 0 0 0 1.292-1.292h-2.586a1.293 1.293 0 0 0 1.294 1.292M168.683 60.712a1.293 1.293 0 0 0-1.294 1.292h2.586a1.29 1.29 0 0 0-1.292-1.292M171.272 73.247a1.29 1.29 0 0 0 1.294-1.292h-2.587a1.29 1.29 0 0 0 1.293 1.292M171.272 60.712a1.293 1.293 0 0 0-1.293 1.292h2.587a1.29 1.29 0 0 0-1.294-1.292"/><path fill="#017481" d="M169.98 62.004h-2.592v9.951h5.178v-9.951z"/><path fill="#d25415" d="M169.98 62.004h-2.592v9.951h5.178v-9.951z"/><path fill="#000" d="M169.98 62.004h-2.592v9.951h5.178v-9.951z"/><path fill="#a1cbcf" d="M90.58 38.518a.647.647 0 1 1 1.293.002.647.647 0 0 1-1.293-.002M90.58 36.451a.647.647 0 1 1 1.294-.002.647.647 0 0 1-1.294.002M90.58 34.384a.647.647 0 1 1 1.294-.001.647.647 0 0 1-1.294.001M90.58 32.31a.647.647 0 1 1 1.295.002.647.647 0 0 1-1.295-.002M85.405 38.518a.647.647 0 1 1 1.294.002.647.647 0 0 1-1.294-.002M85.405 36.451a.647.647 0 1 1 1.294-.002.647.647 0 0 1-1.294.002M85.405 34.384a.646.646 0 1 1 1.292-.002.646.646 0 0 1-1.292.002M85.405 32.31a.647.647 0 1 1 1.293.002.647.647 0 0 1-1.293-.002"/><path fill="#017481" d="M88.638 31.664h-1.294v7.502h2.588v-7.502z"/><path fill="#d25415" d="M88.638 31.664h-1.294v7.502h2.588v-7.502z"/><path fill="#000" d="M88.638 31.664h-1.294v7.502h2.588v-7.502z"/><path fill="#8b8f90" d="M86.051 31.664v1.294h1.292v-1.294zM86.051 33.732v1.295h1.292v-1.295zM86.051 35.805v1.292h1.292v-1.292zM86.051 37.872v1.294h1.292v-1.294zM89.932 31.664v1.294h1.294v-1.294zM89.932 33.732v1.295h1.294v-1.295zM89.932 35.805v1.292h1.294v-1.292zM89.932 37.872v1.294h1.294v-1.294z"/><path fill="#a1cbcf" d="M90.58 80.054a.647.647 0 1 1 1.294.002.647.647 0 0 1-1.294-.002M90.58 77.987a.646.646 0 1 1 1.293-.002.646.646 0 0 1-1.293.002M90.58 75.92a.647.647 0 1 1 1.295-.001.647.647 0 0 1-1.295.002M90.58 73.846a.648.648 0 1 1 1.296.003.648.648 0 0 1-1.296-.003M85.405 80.054a.647.647 0 1 1 1.295.002.647.647 0 0 1-1.295-.002M85.405 77.987a.647.647 0 1 1 1.294-.002.647.647 0 0 1-1.294.002M85.405 75.92a.647.647 0 1 1 1.293-.002.647.647 0 0 1-1.293.003M85.405 73.846a.647.647 0 1 1 1.294.002.647.647 0 0 1-1.294-.002"/><path fill="#017481" d="M88.638 73.2h-1.294v7.502h2.588V73.2z"/><path fill="#d25415" d="M88.638 73.2h-1.294v7.502h2.588V73.2z"/><path fill="#000" d="M88.638 73.2h-1.294v7.502h2.588V73.2z"/><path fill="#8b8f90" d="M86.051 73.2v1.294h1.292V73.2zM86.051 75.269v1.294h1.292v-1.294zM86.051 77.341v1.292h1.292v-1.292zM86.051 79.408v1.294h1.292v-1.294zM89.932 73.2v1.294h1.294V73.2zM89.932 75.269v1.294h1.294v-1.294zM89.932 77.341v1.292h1.294v-1.292zM89.932 79.408v1.294h1.294v-1.294z"/><path fill="#a1cbcf" d="M51.13 48.332a.647.647 0 1 1 1.293.002.647.647 0 0 1-1.293-.002M51.13 46.265a.647.647 0 1 1 1.293-.002.647.647 0 0 1-1.293.002M51.13 44.198a.647.647 0 1 1 1.294-.001.647.647 0 0 1-1.294.001M51.13 42.124a.648.648 0 1 1 1.296.002.648.648 0 0 1-1.296-.002M45.954 48.332a.647.647 0 1 1 1.295.002.647.647 0 0 1-1.295-.002M45.954 46.265a.647.647 0 1 1 1.295-.002.647.647 0 0 1-1.295.002M45.954 44.198a.646.646 0 1 1 1.293-.002.646.646 0 0 1-1.293.002M45.954 42.124a.647.647 0 1 1 1.295.002.647.647 0 0 1-1.295-.002"/><path fill="#017481" d="M49.187 41.478h-1.295v7.502h2.59v-7.502z"/><path fill="#d25415" d="M49.187 41.478h-1.295v7.502h2.59v-7.502z"/><path fill="#000" d="M49.187 41.478h-1.295v7.502h2.59v-7.502z"/><path fill="#8b8f90" d="M46.6 41.478v1.294h1.293v-1.294zM46.6 43.546v1.295h1.293v-1.295zM46.6 45.619v1.292h1.293V45.62zM46.6 47.685v1.295h1.293v-1.295zM50.481 41.478v1.294h1.295v-1.294zM50.481 43.546v1.295h1.295v-1.295zM50.481 45.619v1.292h1.295V45.62zM50.481 47.685v1.295h1.295v-1.295zM38.83 132.853a3.09 3.09 0 0 0 2.197-.908 3.1 3.1 0 0 0 .909-2.195H35.73a3.1 3.1 0 0 0 3.1 3.103M46.583 114.191c-.033 0-.064.009-.097.01v6.188c.033.001.064.01.097.01a3.1 3.1 0 0 0 2.199-.907 3.104 3.104 0 0 0-2.199-5.301"/><path fill="#308c97" d="M19.645 109.043v-2.587H12.29v25.753h7.356v-2.459h26.841v-20.707z"/><path fill="#dd803e" d="M19.645 109.043v-2.587H12.29v25.753h7.356v-2.459h26.841v-20.707z"/><path fill="#000" d="M19.645 109.043v-2.587H12.29v25.753h7.356v-2.459h26.841v-20.707z"/><path fill="#8a7867" d="M10.484 106.456v25.745h1.805v-25.745z"/><path fill="#fff" d="M187.153 41.839a4.946 4.946 0 1 0 4.946 4.946 4.95 4.95 0 0 0-4.946-4.946"/><path fill="#000" d="M72.163 81.946h-8.41v8.41h8.41z"/></g><defs><clipPath id="a"><path fill="#fff" d="M.219 138.782v-138h193.563v138z"/></clipPath></defs></svg>