<?xml version="1.0" encoding="UTF-8"?>
<svg id="Livello_3" data-name="Livello 3" xmlns="http://www.w3.org/2000/svg" viewBox="0 0 199.21 149.53">
  <defs>
    <style>
      .cls-1 {
        fill: #007481;
      }

      .cls-2 {
        fill: #f27b40;
      }

      .cls-3 {
        fill: #eba900;
      }

      .cls-4 {
        fill: #e65300;
      }

      .cls-5 {
        fill: #fff;
      }

      .cls-6 {
        fill: #8b7866;
      }

      .cls-7 {
        fill: #9fa1a2;
      }

      .cls-8 {
        fill: #a1a3a4;
      }

      .cls-9 {
        fill: #8c9091;
      }

      .cls-10 {
        fill: #c1c3c3;
      }

      .cls-11 {
        fill: #e0e1e1;
      }

      .cls-12 {
        fill: #e45525;
      }

      .cls-13 {
        fill: #2a312d;
      }

      .cls-14 {
        fill: #2e2200;
      }

      .cls-15 {
        fill: #787875;
      }
    </style>
  </defs>
  <path class="cls-1" d="M184.12,51.37h0c0-.76-.35-1.43-.88-1.88h0s-4.95-4.95-4.95-4.95h0c-.44-.44-.71-1.03-.74-1.68h-.01V15.13s0-1.48,0-1.48c0-1.37-1.11-2.47-2.47-2.47h-1.48s0,0,0,0H8.82s-.25,0-.25,0l-.25,.04-.24,.06-.24,.09-.23,.11-.22,.12-.2,.15-.19,.17-.17,.19-.15,.2-.12,.22-.11,.23-.09,.24-.06,.24-.04,.25v.25s-.01,133.18-.01,133.18v.26s.05,.25,.05,.25l.06,.24,.09,.25,.11,.23,.12,.22,.15,.2,.17,.19,.19,.17,.2,.15,.22,.13,.23,.11,.24,.09,.24,.06,.25,.04h.25s166.11,.01,166.11,.01h.26s.25-.05,.25-.05l.25-.06,.24-.09,.23-.11,.22-.13,.2-.15,.19-.17,.17-.19,.15-.2,.13-.22,.11-.23,.09-.25,.06-.24,.04-.25v-.26s.01-3.99,.01-3.99l5.84-5.84,.04-.04c.43-.45,.71-1.05,.71-1.73V51.37Z"/>
  <polygon class="cls-1" points="8.31 149.48 8.07 149.42 7.82 149.34 7.59 149.23 7.37 149.1 7.17 148.95 6.98 148.78 6.81 148.59 6.66 148.38 6.53 148.16 6.42 147.94 6.33 147.69 6.27 147.45 6.23 147.2 6.22 146.94 6.22 13.76 6.23 13.51 6.27 13.26 6.33 13.01 6.42 12.77 6.53 12.54 6.66 12.32 6.81 12.12 6.98 11.92 7.17 11.75 7.37 11.6 7.59 11.48 7.82 11.36 8.07 11.28 8.31 11.22 8.56 11.18 8.82 11.17 8.82 11.17 8.56 11.18 8.31 11.22 8.07 11.28 7.82 11.36 7.59 11.48 7.37 11.6 7.17 11.75 6.98 11.92 6.81 12.12 6.66 12.32 6.53 12.54 6.42 12.77 6.33 13.01 6.27 13.26 6.23 13.51 6.22 13.76 6.22 146.94 6.23 147.2 6.27 147.45 6.33 147.69 6.42 147.94 6.53 148.16 6.66 148.38 6.81 148.59 6.98 148.78 7.17 148.95 7.37 149.1 7.59 149.23 7.82 149.34 8.07 149.42 8.31 149.48 8.56 149.52 8.82 149.53 8.82 149.53 8.56 149.52 8.31 149.48"/>
  <path class="cls-5" d="M177.47,124.81c-2.73,0-4.96,2.23-4.96,4.96,0,2.73,2.23,4.96,4.96,4.96s4.96-2.23,4.96-4.96c0-2.74-2.22-4.96-4.96-4.96Z"/>
  <path class="cls-5" d="M44.84,12.8c-2.74,0-4.96,2.23-4.96,4.96,0,2.73,2.23,4.96,4.96,4.96s4.96-2.23,4.96-4.96c0-2.73-2.23-4.96-4.96-4.96Z"/>
  <path class="cls-5" d="M42.46,137.92c-2.74,0-4.96,2.23-4.96,4.96,0,2.73,2.23,4.96,4.96,4.96,2.73,0,4.96-2.23,4.96-4.96s-2.23-4.96-4.96-4.96Z"/>
  <g>
    <g>
      <polyline class="cls-1" points="132.01 54.89 132.01 80.68 132.01 80.68 106.24 80.68 106.24 54.89 106.24 54.89 132.01 54.89 132.01 54.89"/>
      <polyline class="cls-4" points="132.01 54.89 132.01 80.68 132.01 80.68 106.24 80.68 106.24 54.89 106.24 54.89 132.01 54.89 132.01 54.89"/>
      <polyline class="cls-14" points="132.01 54.89 132.01 80.68 132.01 80.68 106.24 80.68 106.24 54.89 106.24 54.89 132.01 54.89 132.01 54.89"/>
    </g>
    <g>
      <rect class="cls-9" x="108.98" y="50.93" width=".81" height="3.96"/>
      <rect class="cls-9" x="110.27" y="50.93" width=".81" height="3.96"/>
      <rect class="cls-9" x="111.56" y="50.93" width=".81" height="3.96"/>
      <rect class="cls-9" x="112.86" y="50.93" width=".81" height="3.96"/>
      <rect class="cls-9" x="114.15" y="50.93" width=".81" height="3.96"/>
      <rect class="cls-9" x="115.45" y="50.93" width=".81" height="3.96"/>
      <rect class="cls-9" x="116.74" y="50.93" width=".81" height="3.96"/>
      <rect class="cls-9" x="118.04" y="50.93" width=".81" height="3.96"/>
      <rect class="cls-9" x="119.33" y="50.93" width=".81" height="3.96"/>
      <rect class="cls-9" x="120.63" y="50.93" width=".81" height="3.96"/>
      <rect class="cls-9" x="121.92" y="50.93" width=".81" height="3.96"/>
      <rect class="cls-9" x="123.22" y="50.93" width=".81" height="3.96"/>
      <rect class="cls-9" x="124.51" y="50.93" width=".81" height="3.96"/>
      <rect class="cls-9" x="125.8" y="50.93" width=".81" height="3.96"/>
      <rect class="cls-9" x="127.1" y="50.93" width=".81" height="3.96"/>
      <rect class="cls-9" x="128.39" y="50.93" width=".81" height="3.96"/>
    </g>
    <g>
      <rect class="cls-9" x="108.98" y="80.68" width=".81" height="3.96"/>
      <rect class="cls-9" x="110.27" y="80.68" width=".81" height="3.96"/>
      <rect class="cls-9" x="111.56" y="80.68" width=".81" height="3.96"/>
      <rect class="cls-9" x="112.86" y="80.68" width=".81" height="3.96"/>
      <rect class="cls-9" x="114.15" y="80.68" width=".81" height="3.96"/>
      <rect class="cls-9" x="115.45" y="80.68" width=".81" height="3.96"/>
      <rect class="cls-9" x="116.74" y="80.68" width=".81" height="3.96"/>
      <rect class="cls-9" x="118.04" y="80.68" width=".81" height="3.96"/>
      <rect class="cls-9" x="119.33" y="80.68" width=".81" height="3.96"/>
      <rect class="cls-9" x="120.63" y="80.68" width=".81" height="3.96"/>
      <rect class="cls-9" x="121.92" y="80.68" width=".81" height="3.96"/>
      <rect class="cls-9" x="123.22" y="80.68" width=".81" height="3.96"/>
      <rect class="cls-9" x="124.51" y="80.68" width=".81" height="3.96"/>
      <rect class="cls-9" x="125.8" y="80.68" width=".81" height="3.96"/>
      <rect class="cls-9" x="127.1" y="80.68" width=".81" height="3.96"/>
      <rect class="cls-9" x="128.39" y="80.68" width=".81" height="3.96"/>
    </g>
    <g>
      <rect class="cls-9" x="102.28" y="57.67" width="3.96" height=".81"/>
      <rect class="cls-9" x="102.28" y="58.96" width="3.96" height=".81"/>
      <rect class="cls-9" x="102.28" y="60.26" width="3.96" height=".81"/>
      <rect class="cls-9" x="102.28" y="61.55" width="3.96" height=".81"/>
      <rect class="cls-9" x="102.28" y="62.85" width="3.96" height=".81"/>
      <rect class="cls-9" x="102.28" y="64.14" width="3.96" height=".81"/>
      <rect class="cls-9" x="102.28" y="65.44" width="3.96" height=".81"/>
      <rect class="cls-9" x="102.28" y="66.73" width="3.96" height=".81"/>
      <rect class="cls-9" x="102.28" y="68.03" width="3.96" height=".81"/>
      <rect class="cls-9" x="102.28" y="69.32" width="3.96" height=".81"/>
      <rect class="cls-9" x="102.28" y="70.62" width="3.96" height=".81"/>
      <rect class="cls-9" x="102.28" y="71.91" width="3.96" height=".81"/>
      <rect class="cls-9" x="102.28" y="73.2" width="3.96" height=".81"/>
      <rect class="cls-9" x="102.28" y="74.5" width="3.96" height=".81"/>
      <rect class="cls-9" x="102.28" y="75.79" width="3.96" height=".81"/>
      <rect class="cls-9" x="102.28" y="77.09" width="3.96" height=".81"/>
    </g>
    <g>
      <rect class="cls-9" x="132.01" y="57.67" width="3.96" height=".81"/>
      <rect class="cls-9" x="132.01" y="58.96" width="3.96" height=".81"/>
      <rect class="cls-9" x="132.01" y="60.26" width="3.96" height=".81"/>
      <rect class="cls-9" x="132.01" y="61.55" width="3.96" height=".81"/>
      <rect class="cls-9" x="132.01" y="62.85" width="3.96" height=".81"/>
      <rect class="cls-9" x="132.01" y="64.14" width="3.96" height=".81"/>
      <rect class="cls-9" x="132.01" y="65.44" width="3.96" height=".81"/>
      <rect class="cls-9" x="132.01" y="66.73" width="3.96" height=".81"/>
      <rect class="cls-9" x="132.01" y="68.03" width="3.96" height=".81"/>
      <rect class="cls-9" x="132.01" y="69.32" width="3.96" height=".81"/>
      <rect class="cls-9" x="132.01" y="70.62" width="3.96" height=".81"/>
      <rect class="cls-9" x="132.01" y="71.91" width="3.96" height=".81"/>
      <rect class="cls-9" x="132.01" y="73.2" width="3.96" height=".81"/>
      <rect class="cls-9" x="132.01" y="74.5" width="3.96" height=".81"/>
      <rect class="cls-9" x="132.01" y="75.79" width="3.96" height=".81"/>
      <rect class="cls-9" x="132.01" y="77.09" width="3.96" height=".81"/>
    </g>
  </g>
  <g>
    <g>
      <rect class="cls-1" x="121.83" y="14.46" width="6.59" height="6.59"/>
      <rect class="cls-1" x="58.55" y="14.46" width="6.59" height="6.59"/>
      <path class="cls-1" d="M65.15,14.46v6.59h6.59v-6.59h-6.59Z"/>
      <path class="cls-1" d="M71.73,14.46v6.59h6.59v-6.59h-6.59Z"/>
      <path class="cls-1" d="M78.32,14.46v6.59h6.59v-6.59h-6.59Z"/>
      <path class="cls-1" d="M51.97,14.46v6.59h6.59v-6.59h-6.59Z"/>
      <path class="cls-1" d="M91.45,14.46v6.59h6.59v-6.59h-6.59Z"/>
      <path class="cls-1" d="M84.86,14.46v6.59h6.59v-6.59h-6.59Z"/>
      <path class="cls-1" d="M98.03,14.46v6.59h6.59v-6.59h-6.59Z"/>
      <path class="cls-1" d="M111.21,14.46v6.59h6.59v-6.59h-6.59Z"/>
      <path class="cls-1" d="M117.8,14.46v6.59h4.03v-6.59h-4.03Z"/>
      <path class="cls-1" d="M104.62,14.46v6.59h6.59v-6.59h-6.59Z"/>
      <path class="cls-1" d="M135,14.46v6.59h6.59v-6.59h-6.59Z"/>
      <path class="cls-1" d="M128.41,14.46v6.59h6.59v-6.59h-6.59Z"/>
      <path class="cls-1" d="M148.18,21.05v-6.59h-6.59v6.59"/>
      <path class="cls-1" d="M154.71,14.46v6.59h6.59v-6.59h-6.59Z"/>
      <path class="cls-1" d="M167.89,14.46v6.59h6.59v-6.59h-6.59Z"/>
      <path class="cls-1" d="M148.13,14.46v6.59h6.59v-6.59h-6.59Z"/>
      <rect class="cls-1" x="161.3" y="14.46" width="6.59" height="6.59"/>
    </g>
    <g>
      <rect class="cls-4" x="121.83" y="14.46" width="6.59" height="6.59"/>
      <rect class="cls-4" x="58.55" y="14.46" width="6.59" height="6.59"/>
      <path class="cls-4" d="M65.15,14.46v6.59h6.59v-6.59h-6.59Z"/>
      <path class="cls-4" d="M71.73,14.46v6.59h6.59v-6.59h-6.59Z"/>
      <path class="cls-4" d="M78.32,14.46v6.59h6.59v-6.59h-6.59Z"/>
      <path class="cls-4" d="M51.97,14.46v6.59h6.59v-6.59h-6.59Z"/>
      <path class="cls-4" d="M91.45,14.46v6.59h6.59v-6.59h-6.59Z"/>
      <path class="cls-4" d="M84.86,14.46v6.59h6.59v-6.59h-6.59Z"/>
      <path class="cls-4" d="M98.03,14.46v6.59h6.59v-6.59h-6.59Z"/>
      <path class="cls-4" d="M111.21,14.46v6.59h6.59v-6.59h-6.59Z"/>
      <path class="cls-4" d="M117.8,14.46v6.59h4.03v-6.59h-4.03Z"/>
      <path class="cls-4" d="M104.62,14.46v6.59h6.59v-6.59h-6.59Z"/>
      <path class="cls-4" d="M135,14.46v6.59h6.59v-6.59h-6.59Z"/>
      <path class="cls-4" d="M128.41,14.46v6.59h6.59v-6.59h-6.59Z"/>
      <path class="cls-4" d="M148.18,21.05v-6.59h-6.59v6.59"/>
      <path class="cls-4" d="M154.71,14.46v6.59h6.59v-6.59h-6.59Z"/>
      <path class="cls-4" d="M167.89,14.46v6.59h6.59v-6.59h-6.59Z"/>
      <path class="cls-4" d="M148.13,14.46v6.59h6.59v-6.59h-6.59Z"/>
      <rect class="cls-4" x="161.3" y="14.46" width="6.59" height="6.59"/>
    </g>
    <g>
      <rect class="cls-14" x="121.83" y="14.46" width="6.59" height="6.59"/>
      <rect class="cls-14" x="58.55" y="14.46" width="6.59" height="6.59"/>
      <path class="cls-14" d="M65.15,14.46v6.59h6.59v-6.59h-6.59Z"/>
      <path class="cls-14" d="M71.73,14.46v6.59h6.59v-6.59h-6.59Z"/>
      <path class="cls-14" d="M78.32,14.46v6.59h6.59v-6.59h-6.59Z"/>
      <path class="cls-14" d="M51.97,14.46v6.59h6.59v-6.59h-6.59Z"/>
      <path class="cls-14" d="M91.45,14.46v6.59h6.59v-6.59h-6.59Z"/>
      <path class="cls-14" d="M84.86,14.46v6.59h6.59v-6.59h-6.59Z"/>
      <path class="cls-14" d="M98.03,14.46v6.59h6.59v-6.59h-6.59Z"/>
      <path class="cls-14" d="M111.21,14.46v6.59h6.59v-6.59h-6.59Z"/>
      <path class="cls-14" d="M117.8,14.46v6.59h4.03v-6.59h-4.03Z"/>
      <path class="cls-14" d="M104.62,14.46v6.59h6.59v-6.59h-6.59Z"/>
      <path class="cls-14" d="M135,14.46v6.59h6.59v-6.59h-6.59Z"/>
      <path class="cls-14" d="M128.41,14.46v6.59h6.59v-6.59h-6.59Z"/>
      <path class="cls-14" d="M148.18,21.05v-6.59h-6.59v6.59"/>
      <path class="cls-14" d="M154.71,14.46v6.59h6.59v-6.59h-6.59Z"/>
      <path class="cls-14" d="M167.89,14.46v6.59h6.59v-6.59h-6.59Z"/>
      <path class="cls-14" d="M148.13,14.46v6.59h6.59v-6.59h-6.59Z"/>
      <rect class="cls-14" x="161.3" y="14.46" width="6.59" height="6.59"/>
    </g>
  </g>
  <g>
    <polygon class="cls-1" points="168.25 69.21 168.25 71.73 170.03 73.51 170.03 74.02 168.25 75.8 168.25 78.32 170.03 80.1 170.03 80.61 168.25 82.39 168.25 84.91 170.03 86.69 172.54 86.69 176.62 86.69 179.13 86.69 180.91 84.91 180.91 82.39 179.13 80.61 179.13 80.1 180.91 78.32 180.91 75.8 179.13 74.02 179.13 73.51 180.91 71.73 180.91 69.21 179.13 67.43 176.62 67.43 172.54 67.43 170.03 67.43 168.25 69.21"/>
    <polygon class="cls-4" points="168.25 69.21 168.25 71.73 170.03 73.51 170.03 74.02 168.25 75.8 168.25 78.32 170.03 80.1 170.03 80.61 168.25 82.39 168.25 84.91 170.03 86.69 172.54 86.69 176.62 86.69 179.13 86.69 180.91 84.91 180.91 82.39 179.13 80.61 179.13 80.1 180.91 78.32 180.91 75.8 179.13 74.02 179.13 73.51 180.91 71.73 180.91 69.21 179.13 67.43 176.62 67.43 172.54 67.43 170.03 67.43 168.25 69.21"/>
    <polygon class="cls-14" points="168.25 69.21 168.25 71.73 170.03 73.51 170.03 74.02 168.25 75.8 168.25 78.32 170.03 80.1 170.03 80.61 168.25 82.39 168.25 84.91 170.03 86.69 172.54 86.69 176.62 86.69 179.13 86.69 180.91 84.91 180.91 82.39 179.13 80.61 179.13 80.1 180.91 78.32 180.91 75.8 179.13 74.02 179.13 73.51 180.91 71.73 180.91 69.21 179.13 67.43 176.62 67.43 172.54 67.43 170.03 67.43 168.25 69.21"/>
    <path class="cls-9" d="M177.88,71.6c-.62,0-1.13-.51-1.13-1.13,0-.62,.51-1.13,1.13-1.13s1.13,.51,1.13,1.13c0,.62-.51,1.13-1.13,1.13Z"/>
    <path class="cls-9" d="M171.29,84.78c-.62,0-1.13-.51-1.13-1.13,0-.62,.5-1.13,1.13-1.13s1.13,.51,1.13,1.13c0,.62-.51,1.13-1.13,1.13Z"/>
    <path class="cls-9" d="M171.29,78.19c-.62,0-1.13-.51-1.13-1.13,0-.62,.5-1.13,1.13-1.13s1.13,.51,1.13,1.13c0,.62-.5,1.13-1.13,1.13Z"/>
    <path class="cls-9" d="M171.29,71.6c-.62,0-1.13-.51-1.13-1.13,0-.62,.5-1.13,1.13-1.13s1.13,.51,1.13,1.13-.5,1.13-1.13,1.13Z"/>
    <path class="cls-9" d="M177.88,84.78c-.62,0-1.13-.51-1.13-1.13,0-.62,.51-1.13,1.13-1.13s1.13,.51,1.13,1.13c0,.62-.51,1.13-1.13,1.13Z"/>
    <path class="cls-9" d="M177.88,78.19c-.62,0-1.13-.51-1.13-1.13,0-.62,.51-1.13,1.13-1.13s1.13,.51,1.13,1.13c0,.62-.51,1.13-1.13,1.13Z"/>
  </g>
  <g>
    <g>
      <path class="cls-1" d="M169.51,37.73v-1.37l-.96-.97h-4.96l-.97,.97v1.37l.97,.97v.28l-.97,.97v1.37l.97,.97v.28l-.97,.97v1.37l.97,.97-.97,.97v1.37l.97,.97v.28l-.97,.96v1.38l.97,.96h4.96l.96-.96v-1.38l-.96-.96v-.28l.96-.97v-1.37l-.96-.97,.96-.97v-1.37l-.96-.97v-.28l.96-.97v-1.37l-.96-.97v-.28l.96-.97Zm-5.24,14.01c-.34,0-.61-.28-.61-.62s.27-.62,.61-.62,.62,.28,.62,.62-.28,.62-.62,.62Zm0-3.59c-.34,0-.61-.28-.61-.62s.27-.61,.61-.61,.62,.27,.62,.61-.28,.62-.62,.62Zm3.59,3.59c-.34,0-.61-.28-.61-.62s.27-.62,.61-.62,.62,.28,.62,.62-.28,.62-.62,.62Zm0-3.59c-.34,0-.61-.28-.61-.62s.27-.61,.61-.61,.62,.27,.62,.61-.28,.62-.62,.62Zm0-11.72c.34,0,.62,.28,.62,.62s-.28,.61-.62,.61-.61-.27-.61-.61,.27-.62,.61-.62Zm0,3.59c.34,0,.62,.27,.62,.61s-.28,.62-.62,.62-.61-.28-.61-.62,.27-.61,.61-.61Zm0,3.59c.34,0,.62,.27,.62,.61s-.28,.62-.62,.62-.61-.28-.61-.62,.27-.61,.61-.61Zm-3.59-7.18c.34,0,.62,.28,.62,.62s-.28,.61-.62,.61-.61-.27-.61-.61,.27-.62,.61-.62Zm0,3.59c.34,0,.62,.27,.62,.61s-.28,.62-.62,.62-.61-.28-.61-.62,.27-.61,.61-.61Zm0,3.59c.34,0,.62,.27,.62,.61s-.28,.62-.62,.62-.61-.28-.61-.62,.27-.61,.61-.61Z"/>
      <path class="cls-6" d="M164.89,51.12c0,.34-.28,.62-.62,.62s-.61-.28-.61-.62,.27-.62,.61-.62,.62,.28,.62,.62Z"/>
      <path class="cls-6" d="M164.89,47.53c0,.34-.28,.62-.62,.62s-.61-.28-.61-.62,.27-.61,.61-.61,.62,.27,.62,.61Z"/>
      <path class="cls-6" d="M168.48,51.12c0,.34-.28,.62-.62,.62s-.61-.28-.61-.62,.27-.62,.61-.62,.62,.28,.62,.62Z"/>
      <path class="cls-6" d="M167.25,47.53c0-.34,.27-.61,.61-.61s.62,.27,.62,.61-.28,.62-.62,.62-.61-.28-.61-.62Z"/>
      <path class="cls-9" d="M168.48,47.53c0,.34-.28,.62-.62,.62s-.61-.28-.61-.62,.27-.61,.61-.61,.62,.27,.62,.61Z"/>
      <path class="cls-9" d="M164.89,51.12c0,.34-.28,.62-.62,.62s-.61-.28-.61-.62,.27-.62,.61-.62,.62,.28,.62,.62Z"/>
      <path class="cls-9" d="M164.89,47.53c0,.34-.28,.62-.62,.62s-.61-.28-.61-.62,.27-.61,.61-.61,.62,.27,.62,.61Z"/>
      <path class="cls-9" d="M168.48,51.12c0,.34-.28,.62-.62,.62s-.61-.28-.61-.62,.27-.62,.61-.62,.62,.28,.62,.62Z"/>
      <g>
        <path class="cls-6" d="M164.89,44.22c0,.34-.28,.62-.62,.62s-.61-.28-.61-.62,.27-.61,.61-.61,.62,.27,.62,.61Z"/>
        <path class="cls-6" d="M164.89,40.63c0,.34-.28,.62-.62,.62s-.61-.28-.61-.62,.27-.61,.61-.61,.62,.27,.62,.61Z"/>
        <path class="cls-6" d="M164.89,37.05c0,.34-.28,.61-.62,.61s-.61-.27-.61-.61,.27-.62,.61-.62,.62,.28,.62,.62Z"/>
        <path class="cls-6" d="M168.48,44.22c0,.34-.28,.62-.62,.62s-.61-.28-.61-.62,.27-.61,.61-.61,.62,.27,.62,.61Z"/>
        <path class="cls-6" d="M168.48,40.63c0,.34-.28,.62-.62,.62s-.61-.28-.61-.62,.27-.61,.61-.61,.62,.27,.62,.61Z"/>
        <path class="cls-6" d="M167.25,37.05c0-.34,.27-.62,.61-.62s.62,.28,.62,.62-.28,.61-.62,.61-.61-.27-.61-.61Z"/>
        <path class="cls-9" d="M168.48,37.05c0,.34-.28,.61-.62,.61s-.61-.27-.61-.61,.27-.62,.61-.62,.62,.28,.62,.62Z"/>
        <path class="cls-9" d="M164.89,44.22c0,.34-.28,.62-.62,.62s-.61-.28-.61-.62,.27-.61,.61-.61,.62,.27,.62,.61Z"/>
        <path class="cls-9" d="M164.89,40.63c0,.34-.28,.62-.62,.62s-.61-.28-.61-.62,.27-.61,.61-.61,.62,.27,.62,.61Z"/>
        <path class="cls-9" d="M164.89,37.05c0,.34-.28,.61-.62,.61s-.61-.27-.61-.61,.27-.62,.61-.62,.62,.28,.62,.62Z"/>
        <path class="cls-9" d="M168.48,44.22c0,.34-.28,.62-.62,.62s-.61-.28-.61-.62,.27-.61,.61-.61,.62,.27,.62,.61Z"/>
        <path class="cls-9" d="M168.48,40.63c0,.34-.28,.62-.62,.62s-.61-.28-.61-.62,.27-.61,.61-.61,.62,.27,.62,.61Z"/>
      </g>
    </g>
    <g>
      <path class="cls-4" d="M169.51,37.73v-1.37l-.96-.97h-4.96l-.97,.97v1.37l.97,.97v.28l-.97,.97v1.37l.97,.97v.28l-.97,.97v1.37l.97,.97-.97,.97v1.37l.97,.97v.28l-.97,.96v1.38l.97,.96h4.96l.96-.96v-1.38l-.96-.96v-.28l.96-.97v-1.37l-.96-.97,.96-.97v-1.37l-.96-.97v-.28l.96-.97v-1.37l-.96-.97v-.28l.96-.97Zm-5.24,14.01c-.34,0-.61-.28-.61-.62s.27-.62,.61-.62,.62,.28,.62,.62-.28,.62-.62,.62Zm0-3.59c-.34,0-.61-.28-.61-.62s.27-.61,.61-.61,.62,.27,.62,.61-.28,.62-.62,.62Zm3.59,3.59c-.34,0-.61-.28-.61-.62s.27-.62,.61-.62,.62,.28,.62,.62-.28,.62-.62,.62Zm0-3.59c-.34,0-.61-.28-.61-.62s.27-.61,.61-.61,.62,.27,.62,.61-.28,.62-.62,.62Zm0-11.72c.34,0,.62,.28,.62,.62s-.28,.61-.62,.61-.61-.27-.61-.61,.27-.62,.61-.62Zm0,3.59c.34,0,.62,.27,.62,.61s-.28,.62-.62,.62-.61-.28-.61-.62,.27-.61,.61-.61Zm0,3.59c.34,0,.62,.27,.62,.61s-.28,.62-.62,.62-.61-.28-.61-.62,.27-.61,.61-.61Zm-3.59-7.18c.34,0,.62,.28,.62,.62s-.28,.61-.62,.61-.61-.27-.61-.61,.27-.62,.61-.62Zm0,3.59c.34,0,.62,.27,.62,.61s-.28,.62-.62,.62-.61-.28-.61-.62,.27-.61,.61-.61Zm0,3.59c.34,0,.62,.27,.62,.61s-.28,.62-.62,.62-.61-.28-.61-.62,.27-.61,.61-.61Z"/>
      <path class="cls-14" d="M169.51,37.73v-1.37l-.96-.97h-4.96l-.97,.97v1.37l.97,.97v.28l-.97,.97v1.37l.97,.97v.28l-.97,.97v1.37l.92,.92,.05,.05-.97,.97v1.37l.97,.97v.28l-.97,.96v1.38l.97,.96h4.96l.96-.96v-1.38l-.96-.96v-.28l.96-.97v-1.37l-.96-.97,.96-.97v-1.37l-.96-.97v-.28l.96-.97v-1.37l-.96-.97v-.28l.96-.97Zm-5.24,14.01c-.34,0-.61-.28-.61-.62s.27-.62,.61-.62,.62,.28,.62,.62-.28,.62-.62,.62Zm0-3.59c-.34,0-.61-.28-.61-.62s.27-.61,.61-.61,.62,.27,.62,.61-.28,.62-.62,.62Zm3.59,3.59c-.34,0-.61-.28-.61-.62s.27-.62,.61-.62,.62,.28,.62,.62-.28,.62-.62,.62Zm0-3.59c-.34,0-.61-.28-.61-.62s.27-.61,.61-.61,.62,.27,.62,.61-.28,.62-.62,.62Zm0-11.72c.34,0,.62,.28,.62,.62s-.28,.61-.62,.61-.61-.27-.61-.61,.27-.62,.61-.62Zm0,3.59c.34,0,.62,.27,.62,.61s-.28,.62-.62,.62-.61-.28-.61-.62,.27-.61,.61-.61Zm0,3.59c.34,0,.62,.27,.62,.61s-.28,.62-.62,.62-.61-.28-.61-.62,.27-.61,.61-.61Zm-3.59-7.18c.34,0,.62,.28,.62,.62s-.28,.61-.62,.61-.61-.27-.61-.61,.27-.62,.61-.62Zm0,3.59c.34,0,.62,.27,.62,.61s-.28,.62-.62,.62-.61-.28-.61-.62,.27-.61,.61-.61Zm0,3.59c.34,0,.62,.27,.62,.61s-.28,.62-.62,.62-.61-.28-.61-.62,.27-.61,.61-.61Z"/>
      <path class="cls-6" d="M164.89,51.12c0,.34-.28,.62-.62,.62s-.61-.28-.61-.62,.27-.62,.61-.62,.62,.28,.62,.62Z"/>
      <path class="cls-6" d="M164.89,47.53c0,.34-.28,.62-.62,.62s-.61-.28-.61-.62,.27-.61,.61-.61,.62,.27,.62,.61Z"/>
      <path class="cls-6" d="M168.48,51.12c0,.34-.28,.62-.62,.62s-.61-.28-.61-.62,.27-.62,.61-.62,.62,.28,.62,.62Z"/>
      <path class="cls-6" d="M167.25,47.53c0-.34,.27-.61,.61-.61s.62,.27,.62,.61-.28,.62-.62,.62-.61-.28-.61-.62Z"/>
      <path class="cls-9" d="M168.48,47.53c0,.34-.28,.62-.62,.62s-.61-.28-.61-.62,.27-.61,.61-.61,.62,.27,.62,.61Z"/>
      <path class="cls-9" d="M164.89,51.12c0,.34-.28,.62-.62,.62s-.61-.28-.61-.62,.27-.62,.61-.62,.62,.28,.62,.62Z"/>
      <path class="cls-9" d="M164.89,47.53c0,.34-.28,.62-.62,.62s-.61-.28-.61-.62,.27-.61,.61-.61,.62,.27,.62,.61Z"/>
      <path class="cls-9" d="M168.48,51.12c0,.34-.28,.62-.62,.62s-.61-.28-.61-.62,.27-.62,.61-.62,.62,.28,.62,.62Z"/>
      <g>
        <path class="cls-6" d="M164.89,44.22c0,.34-.28,.62-.62,.62s-.61-.28-.61-.62,.27-.61,.61-.61,.62,.27,.62,.61Z"/>
        <path class="cls-6" d="M164.89,40.63c0,.34-.28,.62-.62,.62s-.61-.28-.61-.62,.27-.61,.61-.61,.62,.27,.62,.61Z"/>
        <path class="cls-6" d="M164.89,37.05c0,.34-.28,.61-.62,.61s-.61-.27-.61-.61,.27-.62,.61-.62,.62,.28,.62,.62Z"/>
        <path class="cls-6" d="M168.48,44.22c0,.34-.28,.62-.62,.62s-.61-.28-.61-.62,.27-.61,.61-.61,.62,.27,.62,.61Z"/>
        <path class="cls-6" d="M168.48,40.63c0,.34-.28,.62-.62,.62s-.61-.28-.61-.62,.27-.61,.61-.61,.62,.27,.62,.61Z"/>
        <path class="cls-6" d="M167.25,37.05c0-.34,.27-.62,.61-.62s.62,.28,.62,.62-.28,.61-.62,.61-.61-.27-.61-.61Z"/>
        <path class="cls-9" d="M168.48,37.05c0,.34-.28,.61-.62,.61s-.61-.27-.61-.61,.27-.62,.61-.62,.62,.28,.62,.62Z"/>
        <path class="cls-9" d="M164.89,44.22c0,.34-.28,.62-.62,.62s-.61-.28-.61-.62,.27-.61,.61-.61,.62,.27,.62,.61Z"/>
        <path class="cls-9" d="M164.89,40.63c0,.34-.28,.62-.62,.62s-.61-.28-.61-.62,.27-.61,.61-.61,.62,.27,.62,.61Z"/>
        <path class="cls-9" d="M164.89,37.05c0,.34-.28,.61-.62,.61s-.61-.27-.61-.61,.27-.62,.61-.62,.62,.28,.62,.62Z"/>
        <path class="cls-9" d="M168.48,44.22c0,.34-.28,.62-.62,.62s-.61-.28-.61-.62,.27-.61,.61-.61,.62,.27,.62,.61Z"/>
        <path class="cls-9" d="M168.48,40.63c0,.34-.28,.62-.62,.62s-.61-.28-.61-.62,.27-.61,.61-.61,.62,.27,.62,.61Z"/>
      </g>
    </g>
  </g>
  <g>
    <rect class="cls-9" x="14.47" y="13.34" width="15.56" height="15.56"/>
    <rect class="cls-7" x="10.15" y="25.61" width="3.29" height="3.29"/>
    <polygon class="cls-6" points="14 26.6 11.8 26.6 11.8 27.89 14 27.89 16.21 27.89 16.21 26.6 14 26.6"/>
    <rect class="cls-7" x="31.07" y="25.61" width="3.29" height="3.29"/>
    <polygon class="cls-6" points="30.51 27.93 32.71 27.93 32.71 26.63 30.51 26.63 28.3 26.63 28.3 27.93 30.51 27.93"/>
    <rect class="cls-7" x="10.15" y="13.34" width="3.29" height="3.29"/>
    <polygon class="cls-6" points="14 14.33 11.8 14.33 11.8 15.63 14 15.63 16.21 15.63 16.21 14.33 14 14.33"/>
    <rect class="cls-7" x="31.07" y="13.34" width="3.29" height="3.29"/>
    <polygon class="cls-6" points="30.51 15.65 32.71 15.65 32.71 14.36 30.51 14.36 28.3 14.36 28.3 15.65 30.51 15.65"/>
    <rect class="cls-7" x="31.07" y="19.48" width="3.29" height="3.29"/>
    <polygon class="cls-6" points="30.51 21.79 32.71 21.79 32.71 20.49 30.51 20.49 28.3 20.49 28.3 21.79 30.51 21.79"/>
    <path class="cls-11" d="M26.51,21.13c0,2.35-1.9,4.26-4.26,4.26s-4.26-1.91-4.26-4.26,1.91-4.26,4.26-4.26,4.26,1.91,4.26,4.26Z"/>
  </g>
  <g>
    <g>
      <path class="cls-1" d="M88.61,139.64v6.59h6.59v-6.59h-6.59Z"/>
      <path class="cls-1" d="M95.2,139.64v6.59h6.59v-6.59h-6.59Z"/>
      <path class="cls-1" d="M101.79,139.64v6.59h6.59v-6.59h-6.59Z"/>
      <path class="cls-1" d="M108.38,139.64v6.59h6.59v-6.59h-6.59Z"/>
      <path class="cls-1" d="M114.97,139.64v6.59h6.59v-6.59h-6.59Z"/>
      <path class="cls-1" d="M121.56,139.64v6.59h6.59v-6.59h-6.59Z"/>
      <path class="cls-1" d="M128.15,139.64v6.59h6.59v-6.59h-6.59Z"/>
      <path class="cls-1" d="M82.05,139.64v6.59h6.59v-6.59h-6.59Z"/>
      <path class="cls-1" d="M75.5,139.64v6.59h6.59v-6.59h-6.59Z"/>
      <path class="cls-1" d="M134.73,139.64v6.59h6.59v-6.59h-6.59Z"/>
      <path class="cls-1" d="M141.32,139.64v6.59h6.59v-6.59h-6.59Z"/>
      <path class="cls-1" d="M147.91,139.64v6.59h6.59v-6.59h-6.59Z"/>
      <path class="cls-1" d="M154.5,139.64v6.59h6.59v-6.59h-6.59Z"/>
      <path class="cls-1" d="M161.09,139.64v6.59h6.59v-6.59h-6.59Z"/>
      <path class="cls-1" d="M167.68,139.64v6.59h6.59v-6.59h-6.59Z"/>
    </g>
    <g>
      <path class="cls-4" d="M88.61,139.64v6.59h6.59v-6.59h-6.59Z"/>
      <path class="cls-4" d="M95.2,139.64v6.59h6.59v-6.59h-6.59Z"/>
      <path class="cls-4" d="M101.79,139.64v6.59h6.59v-6.59h-6.59Z"/>
      <path class="cls-4" d="M108.38,139.64v6.59h6.59v-6.59h-6.59Z"/>
      <path class="cls-4" d="M114.97,139.64v6.59h6.59v-6.59h-6.59Z"/>
      <path class="cls-4" d="M121.56,139.64v6.59h6.59v-6.59h-6.59Z"/>
      <path class="cls-4" d="M128.15,139.64v6.59h6.59v-6.59h-6.59Z"/>
      <path class="cls-4" d="M82.05,139.64v6.59h6.59v-6.59h-6.59Z"/>
      <path class="cls-4" d="M75.5,139.64v6.59h6.59v-6.59h-6.59Z"/>
      <path class="cls-4" d="M134.73,139.64v6.59h6.59v-6.59h-6.59Z"/>
      <path class="cls-4" d="M141.32,139.64v6.59h6.59v-6.59h-6.59Z"/>
      <path class="cls-4" d="M147.91,139.64v6.59h6.59v-6.59h-6.59Z"/>
      <path class="cls-4" d="M154.5,139.64v6.59h6.59v-6.59h-6.59Z"/>
      <path class="cls-4" d="M161.09,139.64v6.59h6.59v-6.59h-6.59Z"/>
      <path class="cls-4" d="M167.68,139.64v6.59h6.59v-6.59h-6.59Z"/>
    </g>
    <g>
      <path class="cls-13" d="M88.61,139.64v6.59h6.59v-6.59h-6.59Z"/>
      <path class="cls-13" d="M95.2,139.64v6.59h6.59v-6.59h-6.59Z"/>
      <path class="cls-13" d="M101.79,139.64v6.59h6.59v-6.59h-6.59Z"/>
      <path class="cls-13" d="M108.38,139.64v6.59h6.59v-6.59h-6.59Z"/>
      <path class="cls-13" d="M114.97,139.64v6.59h6.59v-6.59h-6.59Z"/>
      <path class="cls-13" d="M121.56,139.64v6.59h6.59v-6.59h-6.59Z"/>
      <path class="cls-13" d="M128.15,139.64v6.59h6.59v-6.59h-6.59Z"/>
      <path class="cls-13" d="M82.05,139.64v6.59h6.59v-6.59h-6.59Z"/>
      <path class="cls-13" d="M75.5,139.64v6.59h6.59v-6.59h-6.59Z"/>
      <path class="cls-13" d="M134.73,139.64v6.59h6.59v-6.59h-6.59Z"/>
      <path class="cls-13" d="M141.32,139.64v6.59h6.59v-6.59h-6.59Z"/>
      <path class="cls-13" d="M147.91,139.64v6.59h6.59v-6.59h-6.59Z"/>
      <path class="cls-13" d="M154.5,139.64v6.59h6.59v-6.59h-6.59Z"/>
      <path class="cls-13" d="M161.09,139.64v6.59h6.59v-6.59h-6.59Z"/>
      <path class="cls-13" d="M167.68,139.64v6.59h6.59v-6.59h-6.59Z"/>
    </g>
  </g>
  <polygon class="cls-6" points="93.54 141.28 90.25 141.28 90.25 141.29 90.25 144.58 90.25 144.59 93.54 144.59 93.54 144.58 93.54 144.58 93.54 141.28"/>
  <polygon class="cls-6" points="100.13 141.28 96.84 141.28 96.84 141.29 96.84 144.58 96.84 144.59 100.13 144.59 100.13 144.58 100.13 144.58 100.13 141.28"/>
  <polygon class="cls-6" points="106.72 141.28 103.43 141.28 103.43 141.29 103.43 144.58 103.43 144.59 106.72 144.59 106.72 144.58 106.72 144.58 106.72 141.28"/>
  <polygon class="cls-6" points="113.31 141.28 110.02 141.28 110.02 141.29 110.02 144.58 110.02 144.59 113.31 144.59 113.31 144.58 113.31 144.58 113.31 141.28"/>
  <polygon class="cls-6" points="119.9 141.28 116.61 141.28 116.61 141.29 116.61 144.58 116.61 144.59 119.9 144.59 119.9 144.58 119.9 144.58 119.9 141.28"/>
  <polygon class="cls-6" points="126.5 141.28 123.2 141.28 123.2 141.29 123.2 144.58 123.2 144.59 126.5 144.59 126.5 144.58 126.5 144.58 126.5 141.28"/>
  <polygon class="cls-6" points="86.99 141.28 83.69 141.28 83.69 141.29 83.69 144.58 83.69 144.59 86.99 144.59 86.99 144.58 86.99 144.58 86.99 141.28"/>
  <polygon class="cls-6" points="80.43 141.28 77.14 141.28 77.14 141.29 77.14 144.58 77.14 144.59 80.43 144.59 80.43 144.58 80.43 144.58 80.43 141.28"/>
  <polygon class="cls-6" points="139.66 141.28 136.37 141.28 136.37 141.29 136.37 144.58 136.37 144.59 139.66 144.59 139.66 144.58 139.66 144.58 139.66 141.28"/>
  <polygon class="cls-6" points="146.25 141.28 142.96 141.28 142.96 141.29 142.96 144.58 142.96 144.59 146.25 144.59 146.25 144.58 146.25 144.58 146.25 141.28"/>
  <polygon class="cls-6" points="152.84 141.28 149.55 141.28 149.55 141.29 149.55 144.58 149.55 144.59 152.84 144.59 152.84 144.58 152.84 144.58 152.84 141.28"/>
  <polygon class="cls-6" points="159.43 141.28 156.14 141.28 156.14 141.29 156.14 144.58 156.14 144.59 159.43 144.59 159.43 144.58 159.43 144.58 159.43 141.28"/>
  <polygon class="cls-6" points="166.03 141.28 162.73 141.28 162.73 141.29 162.73 144.58 162.73 144.59 166.03 144.59 166.03 144.58 166.03 144.58 166.03 141.28"/>
  <polygon class="cls-6" points="172.62 141.28 169.32 141.28 169.32 141.29 169.32 144.58 169.32 144.59 172.62 144.59 172.62 144.58 172.62 144.58 172.62 141.28"/>
  <polygon class="cls-6" points="69.81 16.11 66.51 16.11 66.51 16.11 66.51 19.4 66.51 19.41 69.81 19.41 69.81 19.4 69.81 19.4 69.81 16.11"/>
  <polygon class="cls-6" points="63.21 16.11 59.91 16.11 59.91 16.11 59.91 19.4 59.91 19.41 63.21 19.41 63.21 19.4 63.21 19.4 63.21 16.11"/>
  <polygon class="cls-6" points="56.63 16.11 53.33 16.11 53.33 16.11 53.33 19.4 53.33 19.41 56.63 19.41 56.63 19.4 56.63 19.4 56.63 16.11"/>
  <polygon class="cls-6" points="96.11 16.11 92.81 16.11 92.81 16.11 92.81 19.4 92.81 19.41 96.11 19.41 96.11 19.4 96.11 19.4 96.11 16.11"/>
  <polygon class="cls-6" points="112.58 16.11 112.57 19.4 112.58 19.4 115.87 19.4 115.88 19.4 115.88 16.11 115.87 16.11 115.87 16.11 112.58 16.11"/>
  <polygon class="cls-6" points="99.39 16.11 99.39 19.4 99.4 19.4 102.69 19.4 102.69 19.4 102.69 16.11 102.69 16.11 102.69 16.11 99.39 16.11"/>
  <polygon class="cls-6" points="86.22 16.11 86.22 19.4 86.22 19.4 89.51 19.4 89.52 19.4 89.52 16.11 89.51 16.11 89.51 16.11 86.22 16.11"/>
  <polygon class="cls-6" points="79.69 16.11 79.68 19.4 79.69 19.4 82.98 19.4 82.99 19.4 82.99 16.11 82.98 16.11 82.98 16.11 79.69 16.11"/>
  <polygon class="cls-6" points="73.1 16.11 73.1 19.4 73.1 19.4 76.39 19.4 76.4 19.4 76.4 16.11 76.39 16.11 76.39 16.11 73.1 16.11"/>
  <polygon class="cls-6" points="139.66 16.11 136.37 16.11 136.37 16.11 136.37 19.4 136.37 19.41 139.66 19.41 139.66 19.4 139.66 19.4 139.66 16.11"/>
  <polygon class="cls-6" points="129.78 16.11 129.78 19.4 129.78 19.4 133.07 19.4 133.08 19.4 133.08 16.11 133.07 16.11 133.07 16.11 129.78 16.11"/>
  <polygon class="cls-6" points="123.19 16.11 123.19 19.4 123.19 19.4 126.48 19.4 126.49 19.4 126.49 16.11 126.48 16.11 126.48 16.11 123.19 16.11"/>
  <polygon class="cls-6" points="142.95 16.11 142.95 19.4 142.96 19.4 146.25 19.4 146.25 19.4 146.25 16.11 146.25 16.11 146.25 16.11 142.95 16.11"/>
  <polygon class="cls-6" points="149.49 16.11 149.49 19.4 149.49 19.4 152.78 19.4 152.79 19.4 152.79 16.11 152.78 16.11 152.78 16.11 149.49 16.11"/>
  <polygon class="cls-6" points="156.08 16.11 156.07 19.4 156.08 19.4 159.37 19.4 159.38 19.4 159.38 16.11 159.37 16.11 159.37 16.11 156.08 16.11"/>
  <polygon class="cls-6" points="162.66 16.11 162.66 19.4 162.66 19.4 165.95 19.4 165.96 19.4 165.96 16.11 165.95 16.11 165.95 16.11 162.66 16.11"/>
  <polygon class="cls-6" points="169.25 16.11 169.25 19.4 169.26 19.4 172.55 19.4 172.55 19.4 172.55 16.11 172.55 16.11 172.55 16.11 169.25 16.11"/>
  <polygon class="cls-6" points="105.99 16.11 105.98 19.4 105.99 19.4 109.28 19.4 109.29 19.4 109.29 16.11 109.28 16.11 109.28 16.11 105.99 16.11"/>
  <g>
    <g>
      <polygon class="cls-1" points="35.02 49.92 35.02 48.29 27.5 48.29 27.5 49.92 27.5 51.54 35.02 51.54 35.02 49.92"/>
      <polygon class="cls-4" points="35.02 49.92 35.02 48.29 27.5 48.29 27.5 49.92 27.5 51.54 35.02 51.54 35.02 49.92"/>
      <polygon class="cls-14" points="35.02 49.92 35.02 48.29 27.5 48.29 27.5 49.92 27.5 51.54 35.02 51.54 35.02 49.92"/>
    </g>
    <path class="cls-9" d="M27.85,51.54v1.62c0,.28,.22,.5,.5,.5h1.7c.28,0,.5-.22,.5-.5v-1.62h-2.7Z"/>
    <path class="cls-9" d="M32.84,51.54v1.62c0,.28,.14,.5,.31,.5h1.06c.17,0,.31-.22,.31-.5v-1.62h-1.68Z"/>
    <path class="cls-9" d="M34.52,48.29v-1.62c0-.28-.14-.5-.31-.5h-1.06c-.17,0-.31,.22-.31,.5v1.62h1.68Z"/>
    <path class="cls-9" d="M29.53,48.29v-1.62c0-.28-.14-.5-.31-.5h-1.06c-.17,0-.31,.22-.31,.5v1.62h1.68Z"/>
  </g>
  <path class="cls-5" d="M177.47,52.33c-2.73,0-4.96,2.22-4.96,4.96s2.23,4.96,4.96,4.96,4.96-2.23,4.96-4.96c0-2.74-2.22-4.96-4.96-4.96Z"/>
  <rect class="cls-9" x="12.41" y="98.58" width="12.4" height="12.4"/>
  <g>
    <g>
      <rect class="cls-1" x="27.24" y="93.16" width="7.8" height="10.25"/>
      <rect class="cls-4" x="27.24" y="93.16" width="7.8" height="10.25"/>
      <rect class="cls-14" x="27.24" y="93.16" width="7.8" height="10.25"/>
    </g>
    <g>
      <rect class="cls-9" x="26.66" y="94.78" width=".58" height=".58"/>
      <rect class="cls-9" x="26.66" y="96.06" width=".58" height=".58"/>
      <rect class="cls-9" x="26.66" y="97.35" width=".58" height=".58"/>
      <rect class="cls-9" x="26.66" y="98.64" width=".58" height=".58"/>
      <rect class="cls-9" x="26.66" y="99.92" width=".58" height=".58"/>
      <rect class="cls-9" x="26.66" y="101.21" width=".58" height=".58"/>
    </g>
    <g>
      <rect class="cls-9" x="35.04" y="94.78" width=".58" height=".58"/>
      <rect class="cls-9" x="35.04" y="96.06" width=".58" height=".58"/>
      <rect class="cls-9" x="35.04" y="97.35" width=".58" height=".58"/>
      <rect class="cls-9" x="35.04" y="98.64" width=".58" height=".58"/>
      <rect class="cls-9" x="35.04" y="99.92" width=".58" height=".58"/>
      <rect class="cls-9" x="35.04" y="101.21" width=".58" height=".58"/>
    </g>
  </g>
  <g>
    <path class="cls-8" d="M34.52,73.73h1.51c.38,0,.69,.31,.69,.69v1.75c0,.38-.31,.69-.69,.69h-1.51v-3.13h0Z"/>
    <path class="cls-8" d="M25.67,73.73h1.2c.35,0,.63,.28,.63,.63v1.87c0,.35-.28,.63-.63,.63h-1.2v-3.13h0Z" transform="translate(53.17 150.6) rotate(180)"/>
    <g>
      <polygon class="cls-1" points="34.52 75.25 34.52 73.28 27.5 73.28 27.5 75.25 27.5 77.21 34.52 77.21 34.52 75.25"/>
      <polygon class="cls-4" points="34.52 75.25 34.52 73.28 27.5 73.28 27.5 75.25 27.5 77.21 34.52 77.21 34.52 75.25"/>
      <polygon class="cls-14" points="34.52 75.25 34.52 73.28 27.5 73.28 27.5 75.25 27.5 77.21 34.52 77.21 34.52 75.25"/>
    </g>
  </g>
  <g>
    <path class="cls-8" d="M34.52,80.66h1.51c.38,0,.69,.31,.69,.69v1.75c0,.38-.31,.69-.69,.69h-1.51v-3.13h0Z"/>
    <path class="cls-8" d="M25.67,80.66h1.2c.35,0,.63,.28,.63,.63v1.87c0,.35-.28,.63-.63,.63h-1.2v-3.13h0Z" transform="translate(53.17 164.45) rotate(180)"/>
    <g>
      <polygon class="cls-1" points="34.52 82.17 34.52 80.21 27.5 80.21 27.5 82.17 27.5 84.14 34.52 84.14 34.52 82.17"/>
      <polygon class="cls-4" points="34.52 82.17 34.52 80.21 27.5 80.21 27.5 82.17 27.5 84.14 34.52 84.14 34.52 82.17"/>
      <polygon class="cls-14" points="34.52 82.17 34.52 80.21 27.5 80.21 27.5 82.17 27.5 84.14 34.52 84.14 34.52 82.17"/>
    </g>
  </g>
  <polygon class="cls-9" points="62.63 102.93 62.63 104.68 60.68 104.68 60.68 106.63 58.92 106.63 58.92 104.68 56.98 104.68 56.98 102.93 58.92 102.93 58.92 100.98 60.68 100.98 60.68 102.93 62.63 102.93"/>
  <circle class="cls-9" cx="44.16" cy="72.48" r="1.53"/>
  <circle class="cls-9" cx="51.97" cy="127.04" r="2.02"/>
  <circle class="cls-9" cx="44.54" cy="95.97" r="1.05"/>
  <circle class="cls-9" cx="22.97" cy="82.24" r="1.17"/>
  <circle class="cls-9" cx="24.15" cy="88.1" r="1.2"/>
  <rect class="cls-9" x="49" y="56.28" width="5.65" height="1.75"/>
  <g>
    <path class="cls-6" d="M95.9,76.19c0-.48-.09-.95-.26-1.38h4.26c-.17,.43-.26,.9-.26,1.38s.09,.96,.27,1.39h-4.28c.18-.43,.27-.9,.27-1.39Z"/>
    <path class="cls-10" d="M99.64,76.19c0-.48,.09-.95,.26-1.38h.7v2.77h-.69c-.18-.43-.27-.9-.27-1.39Z"/>
    <path class="cls-10" d="M94.95,77.59v-2.77h.69c.17,.43,.26,.9,.26,1.38s-.09,.96-.27,1.39h-.68Z"/>
  </g>
  <g>
    <path class="cls-6" d="M124.36,43.76c.48,0,.95-.09,1.38-.26v4.26c-.43-.17-.9-.26-1.38-.26s-.96,.09-1.39,.27v-4.28c.43,.18,.9,.27,1.39,.27Z"/>
    <path class="cls-10" d="M124.36,47.5c.48,0,.95,.09,1.38,.26v.7h-2.77v-.69c.43-.18,.9-.27,1.39-.27Z"/>
    <path class="cls-10" d="M122.97,42.81h2.77v.69c-.43,.17-.9,.26-1.38,.26s-.96-.09-1.39-.27v-.68Z"/>
  </g>
  <g>
    <path class="cls-6" d="M95.9,58.54c0-.48-.09-.95-.26-1.38h4.26c-.17,.43-.26,.9-.26,1.38s.09,.96,.27,1.39h-4.28c.18-.43,.27-.9,.27-1.39Z"/>
    <path class="cls-10" d="M99.64,58.54c0-.48,.09-.95,.26-1.38h.7v2.77h-.69c-.18-.43-.27-.9-.27-1.39Z"/>
    <path class="cls-10" d="M94.95,59.93v-2.77h.69c.17,.43,.26,.9,.26,1.38s-.09,.96-.27,1.39h-.68Z"/>
  </g>
  <g>
    <path class="cls-1" d="M140.14,61.71c0-.48-.09-.95-.26-1.38h4.26c-.17,.43-.26,.9-.26,1.38,0,.49,.09,.96,.27,1.39h-4.28c.18-.43,.27-.9,.27-1.39Z"/>
    <path class="cls-4" d="M140.14,61.71c0-.48-.09-.95-.26-1.38h4.26c-.17,.43-.26,.9-.26,1.38,0,.49,.09,.96,.27,1.39h-4.28c.18-.43,.27-.9,.27-1.39Z"/>
    <path class="cls-14" d="M140.14,61.71c0-.48-.09-.95-.26-1.38h4.26c-.17,.43-.26,.9-.26,1.38,0,.49,.09,.96,.27,1.39h-4.28c.18-.43,.27-.9,.27-1.39Z"/>
    <path class="cls-10" d="M143.88,61.71c0-.48,.09-.95,.26-1.38h.7v2.77h-.69c-.18-.43-.27-.9-.27-1.39Z"/>
    <path class="cls-10" d="M139.19,63.11v-2.77h.69c.17,.43,.26,.9,.26,1.38s-.09,.96-.27,1.39h-.68Z"/>
  </g>
  <g>
    <path class="cls-1" d="M140.14,65.33c0-.48-.09-.95-.26-1.38h4.26c-.17,.43-.26,.9-.26,1.38,0,.49,.09,.96,.27,1.39h-4.28c.18-.43,.27-.9,.27-1.39Z"/>
    <path class="cls-4" d="M140.14,65.33c0-.48-.09-.95-.26-1.38h4.26c-.17,.43-.26,.9-.26,1.38,0,.49,.09,.96,.27,1.39h-4.28c.18-.43,.27-.9,.27-1.39Z"/>
    <path class="cls-14" d="M140.14,65.33c0-.48-.09-.95-.26-1.38h4.26c-.17,.43-.26,.9-.26,1.38,0,.49,.09,.96,.27,1.39h-4.28c.18-.43,.27-.9,.27-1.39Z"/>
    <path class="cls-10" d="M143.88,65.33c0-.48,.09-.95,.26-1.38h.7v2.77h-.69c-.18-.43-.27-.9-.27-1.39Z"/>
    <path class="cls-10" d="M139.19,66.72v-2.77h.69c.17,.43,.26,.9,.26,1.38s-.09,.96-.27,1.39h-.68Z"/>
  </g>
  <g>
    <path class="cls-1" d="M99.95,72.89c0,.33,.06,.64,.18,.94h-2.89c.11-.29,.18-.61,.18-.94s-.06-.65-.19-.94h2.91c-.12,.29-.19,.61-.19,.94Z"/>
    <path class="cls-4" d="M99.95,72.89c0,.33,.06,.64,.18,.94h-2.89c.11-.29,.18-.61,.18-.94s-.06-.65-.19-.94h2.91c-.12,.29-.19,.61-.19,.94Z"/>
    <path class="cls-14" d="M99.95,72.89c0,.33,.06,.64,.18,.94h-2.89c.11-.29,.18-.61,.18-.94s-.06-.65-.19-.94h2.91c-.12,.29-.19,.61-.19,.94Z"/>
    <path class="cls-10" d="M97.42,72.89c0,.33-.06,.64-.18,.94h-.48s0-1.88,0-1.88h.47c.12,.29,.19,.61,.19,.94Z"/>
    <path class="cls-10" d="M100.6,71.94v1.88s-.47,0-.47,0c-.11-.29-.18-.61-.18-.94s.06-.65,.19-.94h.46Z"/>
  </g>
  <g>
    <path class="cls-1" d="M99.95,70.01c0,.33,.06,.64,.18,.94h-2.89c.11-.29,.18-.61,.18-.94s-.06-.65-.19-.94h2.91c-.12,.29-.19,.61-.19,.94Z"/>
    <path class="cls-4" d="M99.95,70.01c0,.33,.06,.64,.18,.94h-2.89c.11-.29,.18-.61,.18-.94s-.06-.65-.19-.94h2.91c-.12,.29-.19,.61-.19,.94Z"/>
    <path class="cls-14" d="M99.95,70.01c0,.33,.06,.64,.18,.94h-2.89c.11-.29,.18-.61,.18-.94s-.06-.65-.19-.94h2.91c-.12,.29-.19,.61-.19,.94Z"/>
    <path class="cls-10" d="M97.42,70.01c0,.33-.06,.64-.18,.94h-.48s0-1.88,0-1.88h.47c.12,.29,.19,.61,.19,.94Z"/>
    <path class="cls-10" d="M100.6,69.07v1.88s-.47,0-.47,0c-.11-.29-.18-.61-.18-.94s.06-.65,.19-.94h.46Z"/>
  </g>
  <g>
    <path class="cls-1" d="M159.26,50.66c0,.33,.06,.64,.18,.94h-2.89c.11-.29,.18-.61,.18-.94s-.06-.65-.19-.94h2.91c-.12,.29-.19,.61-.19,.94Z"/>
    <path class="cls-4" d="M159.26,50.66c0,.33,.06,.64,.18,.94h-2.89c.11-.29,.18-.61,.18-.94s-.06-.65-.19-.94h2.91c-.12,.29-.19,.61-.19,.94Z"/>
    <path class="cls-14" d="M159.26,50.66c0,.33,.06,.64,.18,.94h-2.89c.11-.29,.18-.61,.18-.94s-.06-.65-.19-.94h2.91c-.12,.29-.19,.61-.19,.94Z"/>
    <path class="cls-10" d="M156.73,50.66c0,.33-.06,.64-.18,.94h-.48s0-1.88,0-1.88h.47c.12,.29,.19,.61,.19,.94Z"/>
    <path class="cls-10" d="M159.9,49.72v1.88s-.47,0-.47,0c-.11-.29-.18-.61-.18-.94s.06-.65,.19-.94h.46Z"/>
  </g>
  <g>
    <path class="cls-1" d="M142.37,79.52c0,.33,.06,.64,.18,.94h-2.89c.11-.29,.18-.61,.18-.94s-.06-.65-.19-.94h2.91c-.12,.29-.19,.61-.19,.94Z"/>
    <path class="cls-4" d="M142.37,79.52c0,.33,.06,.64,.18,.94h-2.89c.11-.29,.18-.61,.18-.94s-.06-.65-.19-.94h2.91c-.12,.29-.19,.61-.19,.94Z"/>
    <path class="cls-14" d="M142.37,79.52c0,.33,.06,.64,.18,.94h-2.89c.11-.29,.18-.61,.18-.94s-.06-.65-.19-.94h2.91c-.12,.29-.19,.61-.19,.94Z"/>
    <path class="cls-10" d="M139.84,79.52c0,.33-.06,.64-.18,.94h-.48s0-1.88,0-1.88h.47c.12,.29,.19,.61,.19,.94Z"/>
    <path class="cls-10" d="M143.02,78.58v1.88s-.47,0-.47,0c-.11-.29-.18-.61-.18-.94s.06-.65,.19-.94h.46Z"/>
  </g>
  <g>
    <path class="cls-1" d="M142.37,76.65c0,.33,.06,.64,.18,.94h-2.89c.11-.29,.18-.61,.18-.94s-.06-.65-.19-.94h2.91c-.12,.29-.19,.61-.19,.94Z"/>
    <path class="cls-4" d="M142.37,76.65c0,.33,.06,.64,.18,.94h-2.89c.11-.29,.18-.61,.18-.94s-.06-.65-.19-.94h2.91c-.12,.29-.19,.61-.19,.94Z"/>
    <path class="cls-14" d="M142.37,76.65c0,.33,.06,.64,.18,.94h-2.89c.11-.29,.18-.61,.18-.94s-.06-.65-.19-.94h2.91c-.12,.29-.19,.61-.19,.94Z"/>
    <path class="cls-10" d="M139.84,76.65c0,.33-.06,.64-.18,.94h-.48s0-1.88,0-1.88h.47c.12,.29,.19,.61,.19,.94Z"/>
    <path class="cls-10" d="M143.02,75.71v1.88s-.47,0-.47,0c-.11-.29-.18-.61-.18-.94s.06-.65,.19-.94h.46Z"/>
  </g>
  <g>
    <path class="cls-1" d="M107.14,47.84c-.33,0-.64,.06-.94,.18v-2.89c.29,.11,.61,.18,.94,.18s.65-.06,.94-.19v2.91c-.29-.12-.61-.19-.94-.19Z"/>
    <path class="cls-4" d="M107.14,47.84c-.33,0-.64,.06-.94,.18v-2.89c.29,.11,.61,.18,.94,.18s.65-.06,.94-.19v2.91c-.29-.12-.61-.19-.94-.19Z"/>
    <path class="cls-14" d="M107.14,47.84c-.33,0-.64,.06-.94,.18v-2.89c.29,.11,.61,.18,.94,.18s.65-.06,.94-.19v2.91c-.29-.12-.61-.19-.94-.19Z"/>
    <path class="cls-10" d="M107.14,45.31c-.33,0-.64-.06-.94-.18v-.48s1.88,0,1.88,0v.47c-.29,.12-.61,.19-.94,.19Z"/>
    <path class="cls-10" d="M108.08,48.49h-1.88s0-.47,0-.47c.29-.11,.61-.18,.94-.18s.65,.06,.94,.19v.46Z"/>
  </g>
  <g>
    <path class="cls-1" d="M40.81,28.2c-.33,0-.64,.06-.94,.18v-2.89c.29,.11,.61,.18,.94,.18s.65-.06,.94-.19v2.91c-.29-.12-.61-.19-.94-.19Z"/>
    <path class="cls-4" d="M40.81,28.2c-.33,0-.64,.06-.94,.18v-2.89c.29,.11,.61,.18,.94,.18s.65-.06,.94-.19v2.91c-.29-.12-.61-.19-.94-.19Z"/>
    <path class="cls-14" d="M40.81,28.2c-.33,0-.64,.06-.94,.18v-2.89c.29,.11,.61,.18,.94,.18s.65-.06,.94-.19v2.91c-.29-.12-.61-.19-.94-.19Z"/>
    <path class="cls-10" d="M40.81,25.67c-.33,0-.64-.06-.94-.18v-.48s1.88,0,1.88,0v.47c-.29,.12-.61,.19-.94,.19Z"/>
    <path class="cls-10" d="M41.76,28.84h-1.88s0-.47,0-.47c.29-.11,.61-.18,.94-.18s.65,.06,.94,.19v.46Z"/>
  </g>
  <g>
    <path class="cls-1" d="M25.29,42.22c-.33,0-.64,.06-.94,.18v-2.89c.29,.11,.61,.18,.94,.18s.65-.06,.94-.19v2.91c-.29-.12-.61-.19-.94-.19Z"/>
    <path class="cls-4" d="M25.29,42.22c-.33,0-.64,.06-.94,.18v-2.89c.29,.11,.61,.18,.94,.18s.65-.06,.94-.19v2.91c-.29-.12-.61-.19-.94-.19Z"/>
    <path class="cls-14" d="M25.29,42.22c-.33,0-.64,.06-.94,.18v-2.89c.29,.11,.61,.18,.94,.18s.65-.06,.94-.19v2.91c-.29-.12-.61-.19-.94-.19Z"/>
    <path class="cls-10" d="M25.29,39.69c-.33,0-.64-.06-.94-.18v-.48s1.88,0,1.88,0v.47c-.29,.12-.61,.19-.94,.19Z"/>
    <path class="cls-10" d="M26.23,42.87h-1.88s0-.47,0-.47c.29-.11,.61-.18,.94-.18s.65,.06,.94,.19v.46Z"/>
  </g>
  <g>
    <path class="cls-1" d="M25.29,58.98c-.33,0-.64,.06-.94,.18v-2.89c.29,.11,.61,.18,.94,.18s.65-.06,.94-.19v2.91c-.29-.12-.61-.19-.94-.19Z"/>
    <path class="cls-4" d="M25.29,58.98c-.33,0-.64,.06-.94,.18v-2.89c.29,.11,.61,.18,.94,.18s.65-.06,.94-.19v2.91c-.29-.12-.61-.19-.94-.19Z"/>
    <path class="cls-14" d="M25.29,58.98c-.33,0-.64,.06-.94,.18v-2.89c.29,.11,.61,.18,.94,.18s.65-.06,.94-.19v2.91c-.29-.12-.61-.19-.94-.19Z"/>
    <path class="cls-10" d="M25.29,56.44c-.33,0-.64-.06-.94-.18v-.48s1.88,0,1.88,0v.47c-.29,.12-.61,.19-.94,.19Z"/>
    <path class="cls-10" d="M26.23,59.62h-1.88s0-.47,0-.47c.29-.11,.61-.18,.94-.18s.65,.06,.94,.19v.46Z"/>
  </g>
  <g>
    <path class="cls-1" d="M16.47,73.47c0-.33-.06-.64-.18-.94h2.89c-.11,.29-.18,.61-.18,.94s.06,.65,.19,.94h-2.91c.12-.29,.19-.61,.19-.94Z"/>
    <path class="cls-4" d="M16.47,73.47c0-.33-.06-.64-.18-.94h2.89c-.11,.29-.18,.61-.18,.94s.06,.65,.19,.94h-2.91c.12-.29,.19-.61,.19-.94Z"/>
    <path class="cls-14" d="M16.47,73.47c0-.33-.06-.64-.18-.94h2.89c-.11,.29-.18,.61-.18,.94s.06,.65,.19,.94h-2.91c.12-.29,.19-.61,.19-.94Z"/>
    <path class="cls-10" d="M19,73.47c0-.33,.06-.64,.18-.94h.48s0,1.88,0,1.88h-.47c-.12-.29-.19-.61-.19-.94Z"/>
    <path class="cls-10" d="M15.82,74.41v-1.88s.47,0,.47,0c.11,.29,.18,.61,.18,.94s-.06,.65-.19,.94h-.46Z"/>
  </g>
  <g>
    <path class="cls-1" d="M32.24,88.14c0-.33-.06-.64-.18-.94h2.89c-.11,.29-.18,.61-.18,.94s.06,.65,.19,.94h-2.91c.12-.29,.19-.61,.19-.94Z"/>
    <path class="cls-4" d="M32.24,88.14c0-.33-.06-.64-.18-.94h2.89c-.11,.29-.18,.61-.18,.94s.06,.65,.19,.94h-2.91c.12-.29,.19-.61,.19-.94Z"/>
    <path class="cls-14" d="M32.24,88.14c0-.33-.06-.64-.18-.94h2.89c-.11,.29-.18,.61-.18,.94s.06,.65,.19,.94h-2.91c.12-.29,.19-.61,.19-.94Z"/>
    <path class="cls-10" d="M34.77,88.14c0-.33,.06-.64,.18-.94h.48s0,1.88,0,1.88h-.47c-.12-.29-.19-.61-.19-.94Z"/>
    <path class="cls-10" d="M31.6,89.08v-1.88s.47,0,.47,0c.11,.29,.18,.61,.18,.94s-.06,.65-.19,.94h-.46Z"/>
  </g>
  <g>
    <path class="cls-1" d="M38.09,88.14c0-.33-.06-.64-.18-.94h2.89c-.11,.29-.18,.61-.18,.94s.06,.65,.19,.94h-2.91c.12-.29,.19-.61,.19-.94Z"/>
    <path class="cls-4" d="M38.09,88.14c0-.33-.06-.64-.18-.94h2.89c-.11,.29-.18,.61-.18,.94s.06,.65,.19,.94h-2.91c.12-.29,.19-.61,.19-.94Z"/>
    <path class="cls-14" d="M38.09,88.14c0-.33-.06-.64-.18-.94h2.89c-.11,.29-.18,.61-.18,.94s.06,.65,.19,.94h-2.91c.12-.29,.19-.61,.19-.94Z"/>
    <path class="cls-10" d="M40.62,88.14c0-.33,.06-.64,.18-.94h.48s0,1.88,0,1.88h-.47c-.12-.29-.19-.61-.19-.94Z"/>
    <path class="cls-10" d="M37.44,89.08v-1.88s.47,0,.47,0c.11,.29,.18,.61,.18,.94s-.06,.65-.19,.94h-.46Z"/>
  </g>
  <g>
    <path class="cls-13" d="M38.09,93.89c0-.33-.06-.64-.18-.94h2.89c-.11,.29-.18,.61-.18,.94s.06,.65,.19,.94h-2.91c.12-.29,.19-.61,.19-.94Z"/>
    <path class="cls-13" d="M38.09,93.89c0-.33-.06-.64-.18-.94h2.89c-.11,.29-.18,.61-.18,.94s.06,.65,.19,.94h-2.91c.12-.29,.19-.61,.19-.94Z"/>
    <path class="cls-14" d="M38.09,93.89c0-.33-.06-.64-.18-.94h2.89c-.11,.29-.18,.61-.18,.94s.06,.65,.19,.94h-2.91c.12-.29,.19-.61,.19-.94Z"/>
    <path class="cls-15" d="M40.62,93.89c0-.33,.06-.64,.18-.94h.48s0,1.88,0,1.88h-.47c-.12-.29-.19-.61-.19-.94Z"/>
    <path class="cls-15" d="M37.44,94.84v-1.88s.47,0,.47,0c.11,.29,.18,.61,.18,.94s-.06,.65-.19,.94h-.46Z"/>
  </g>
  <g>
    <path class="cls-1" d="M38.09,96.81c0-.33-.06-.64-.18-.94h2.89c-.11,.29-.18,.61-.18,.94s.06,.65,.19,.94h-2.91c.12-.29,.19-.61,.19-.94Z"/>
    <path class="cls-4" d="M38.09,96.81c0-.33-.06-.64-.18-.94h2.89c-.11,.29-.18,.61-.18,.94s.06,.65,.19,.94h-2.91c.12-.29,.19-.61,.19-.94Z"/>
    <path class="cls-14" d="M38.09,96.81c0-.33-.06-.64-.18-.94h2.89c-.11,.29-.18,.61-.18,.94s.06,.65,.19,.94h-2.91c.12-.29,.19-.61,.19-.94Z"/>
    <path class="cls-10" d="M40.62,96.81c0-.33,.06-.64,.18-.94h.48s0,1.88,0,1.88h-.47c-.12-.29-.19-.61-.19-.94Z"/>
    <path class="cls-10" d="M37.44,97.75v-1.88s.47,0,.47,0c.11,.29,.18,.61,.18,.94s-.06,.65-.19,.94h-.46Z"/>
  </g>
  <g>
    <path class="cls-1" d="M44.55,99.94c.33,0,.64-.06,.94-.18v2.89c-.29-.11-.61-.18-.94-.18s-.65,.06-.94,.19v-2.91c.29,.12,.61,.19,.94,.19Z"/>
    <path class="cls-4" d="M44.55,99.94c.33,0,.64-.06,.94-.18v2.89c-.29-.11-.61-.18-.94-.18s-.65,.06-.94,.19v-2.91c.29,.12,.61,.19,.94,.19Z"/>
    <path class="cls-14" d="M44.55,99.94c.33,0,.64-.06,.94-.18v2.89c-.29-.11-.61-.18-.94-.18s-.65,.06-.94,.19v-2.91c.29,.12,.61,.19,.94,.19Z"/>
    <path class="cls-10" d="M44.55,102.47c.33,0,.64,.06,.94,.18v.48h-1.88v-.47c.29-.12,.61-.19,.94-.19Z"/>
    <path class="cls-10" d="M43.6,99.29h1.88v.47c-.29,.11-.61,.18-.94,.18s-.65-.06-.94-.19v-.46Z"/>
  </g>
  <g>
    <path class="cls-1" d="M32.24,90.98c0-.33-.06-.64-.18-.94h2.89c-.11,.29-.18,.61-.18,.94s.06,.65,.19,.94h-2.91c.12-.29,.19-.61,.19-.94Z"/>
    <path class="cls-4" d="M32.24,90.98c0-.33-.06-.64-.18-.94h2.89c-.11,.29-.18,.61-.18,.94s.06,.65,.19,.94h-2.91c.12-.29,.19-.61,.19-.94Z"/>
    <path class="cls-14" d="M32.24,90.98c0-.33-.06-.64-.18-.94h2.89c-.11,.29-.18,.61-.18,.94s.06,.65,.19,.94h-2.91c.12-.29,.19-.61,.19-.94Z"/>
    <path class="cls-10" d="M34.77,90.98c0-.33,.06-.64,.18-.94h.48s0,1.88,0,1.88h-.47c-.12-.29-.19-.61-.19-.94Z"/>
    <path class="cls-10" d="M31.59,91.92v-1.88s.47,0,.47,0c.11,.29,.18,.61,.18,.94s-.06,.65-.19,.94h-.46Z"/>
  </g>
  <g>
    <path class="cls-1" d="M104.43,47.84c-.33,0-.64,.06-.94,.18v-2.89c.29,.11,.61,.18,.94,.18s.65-.06,.94-.19v2.91c-.29-.12-.61-.19-.94-.19Z"/>
    <path class="cls-4" d="M104.43,47.84c-.33,0-.64,.06-.94,.18v-2.89c.29,.11,.61,.18,.94,.18s.65-.06,.94-.19v2.91c-.29-.12-.61-.19-.94-.19Z"/>
    <path class="cls-14" d="M104.43,47.84c-.33,0-.64,.06-.94,.18v-2.89c.29,.11,.61,.18,.94,.18s.65-.06,.94-.19v2.91c-.29-.12-.61-.19-.94-.19Z"/>
    <path class="cls-10" d="M104.43,45.31c-.33,0-.64-.06-.94-.18v-.48s1.88,0,1.88,0v.47c-.29,.12-.61,.19-.94,.19Z"/>
    <path class="cls-10" d="M105.37,48.49h-1.88s0-.47,0-.47c.29-.11,.61-.18,.94-.18s.65,.06,.94,.19v.46Z"/>
  </g>
  <g>
    <path class="cls-1" d="M104.69,42.54c0-.33-.06-.64-.18-.94h2.89c-.11,.29-.18,.61-.18,.94s.06,.65,.19,.94h-2.91c.12-.29,.19-.61,.19-.94Z"/>
    <path class="cls-4" d="M104.69,42.54c0-.33-.06-.64-.18-.94h2.89c-.11,.29-.18,.61-.18,.94s.06,.65,.19,.94h-2.91c.12-.29,.19-.61,.19-.94Z"/>
    <path class="cls-14" d="M104.69,42.54c0-.33-.06-.64-.18-.94h2.89c-.11,.29-.18,.61-.18,.94s.06,.65,.19,.94h-2.91c.12-.29,.19-.61,.19-.94Z"/>
    <path class="cls-10" d="M107.22,42.54c0-.33,.06-.64,.18-.94h.48s0,1.88,0,1.88h-.47c-.12-.29-.19-.61-.19-.94Z"/>
    <path class="cls-10" d="M104.04,43.48v-1.88s.47,0,.47,0c.11,.29,.18,.61,.18,.94s-.06,.65-.19,.94h-.46Z"/>
  </g>
  <g>
    <path class="cls-1" d="M83.89,54.58c0-.33-.06-.64-.18-.94h2.89c-.11,.29-.18,.61-.18,.94s.06,.65,.19,.94h-2.91c.12-.29,.19-.61,.19-.94Z"/>
    <path class="cls-4" d="M83.89,54.58c0-.33-.06-.64-.18-.94h2.89c-.11,.29-.18,.61-.18,.94s.06,.65,.19,.94h-2.91c.12-.29,.19-.61,.19-.94Z"/>
    <path class="cls-14" d="M83.89,54.58c0-.33-.06-.64-.18-.94h2.89c-.11,.29-.18,.61-.18,.94s.06,.65,.19,.94h-2.91c.12-.29,.19-.61,.19-.94Z"/>
    <path class="cls-10" d="M86.42,54.58c0-.33,.06-.64,.18-.94h.48s0,1.88,0,1.88h-.47c-.12-.29-.19-.61-.19-.94Z"/>
    <path class="cls-10" d="M83.24,55.52v-1.88s.47,0,.47,0c.11,.29,.18,.61,.18,.94s-.06,.65-.19,.94h-.46Z"/>
  </g>
  <g>
    <path class="cls-1" d="M83.89,60.64c0-.33-.06-.64-.18-.94h2.89c-.11,.29-.18,.61-.18,.94s.06,.65,.19,.94h-2.91c.12-.29,.19-.61,.19-.94Z"/>
    <path class="cls-4" d="M83.89,60.64c0-.33-.06-.64-.18-.94h2.89c-.11,.29-.18,.61-.18,.94s.06,.65,.19,.94h-2.91c.12-.29,.19-.61,.19-.94Z"/>
    <path class="cls-14" d="M83.89,60.64c0-.33-.06-.64-.18-.94h2.89c-.11,.29-.18,.61-.18,.94s.06,.65,.19,.94h-2.91c.12-.29,.19-.61,.19-.94Z"/>
    <path class="cls-10" d="M86.42,60.64c0-.33,.06-.64,.18-.94h.48s0,1.88,0,1.88h-.47c-.12-.29-.19-.61-.19-.94Z"/>
    <path class="cls-10" d="M83.24,61.58v-1.88s.47,0,.47,0c.11,.29,.18,.61,.18,.94s-.06,.65-.19,.94h-.46Z"/>
  </g>
  <g>
    <path class="cls-1" d="M83.89,40.01c0-.33-.06-.64-.18-.94h2.89c-.11,.29-.18,.61-.18,.94s.06,.65,.19,.94h-2.91c.12-.29,.19-.61,.19-.94Z"/>
    <path class="cls-4" d="M83.89,40.01c0-.33-.06-.64-.18-.94h2.89c-.11,.29-.18,.61-.18,.94s.06,.65,.19,.94h-2.91c.12-.29,.19-.61,.19-.94Z"/>
    <path class="cls-14" d="M83.89,40.01c0-.33-.06-.64-.18-.94h2.89c-.11,.29-.18,.61-.18,.94s.06,.65,.19,.94h-2.91c.12-.29,.19-.61,.19-.94Z"/>
    <path class="cls-10" d="M86.42,40.01c0-.33,.06-.64,.18-.94h.48s0,1.88,0,1.88h-.47c-.12-.29-.19-.61-.19-.94Z"/>
    <path class="cls-10" d="M83.24,40.95v-1.88s.47,0,.47,0c.11,.29,.18,.61,.18,.94s-.06,.65-.19,.94h-.46Z"/>
  </g>
  <g>
    <path class="cls-6" d="M99.96,79.52c0,.33,.06,.64,.18,.94h-2.89c.11-.29,.18-.61,.18-.94s-.06-.65-.19-.94h2.91c-.12,.29-.19,.61-.19,.94Z"/>
    <path class="cls-10" d="M97.42,79.52c0,.33-.06,.64-.18,.94h-.48s0-1.88,0-1.88h.47c.12,.29,.19,.61,.19,.94Z"/>
    <path class="cls-10" d="M100.6,78.58v1.88s-.47,0-.47,0c-.11-.29-.18-.61-.18-.94s.06-.65,.19-.94h.46Z"/>
  </g>
  <g>
    <path class="cls-6" d="M40.63,99.73c0,.33,.06,.64,.18,.94h-2.89c.11-.29,.18-.61,.18-.94s-.06-.65-.19-.94h2.91c-.12,.29-.19,.61-.19,.94Z"/>
    <path class="cls-10" d="M38.09,99.73c0,.33-.06,.64-.18,.94h-.48s0-1.88,0-1.88h.47c.12,.29,.19,.61,.19,.94Z"/>
    <path class="cls-10" d="M41.27,98.79v1.88s-.47,0-.47,0c-.11-.29-.18-.61-.18-.94s.06-.65,.19-.94h.46Z"/>
  </g>
  <g>
    <path class="cls-6" d="M40.63,102.65c0,.33,.06,.64,.18,.94h-2.89c.11-.29,.18-.61,.18-.94s-.06-.65-.19-.94h2.91c-.12,.29-.19,.61-.19,.94Z"/>
    <path class="cls-10" d="M38.09,102.65c0,.33-.06,.64-.18,.94h-.48s0-1.88,0-1.88h.47c.12,.29,.19,.61,.19,.94Z"/>
    <path class="cls-10" d="M41.27,101.7v1.88s-.47,0-.47,0c-.11-.29-.18-.61-.18-.94s.06-.65,.19-.94h.46Z"/>
  </g>
  <g>
    <path class="cls-6" d="M142.38,68.5c0,.33,.06,.64,.18,.94h-2.89c.11-.29,.18-.61,.18-.94s-.06-.65-.19-.94h2.91c-.12,.29-.19,.61-.19,.94Z"/>
    <path class="cls-10" d="M139.84,68.5c0,.33-.06,.64-.18,.94h-.48s0-1.88,0-1.88h.47c.12,.29,.19,.61,.19,.94Z"/>
    <path class="cls-10" d="M143.02,67.56v1.88s-.47,0-.47,0c-.11-.29-.18-.61-.18-.94s.06-.65,.19-.94h.46Z"/>
  </g>
  <g>
    <path class="cls-6" d="M127.96,47.84c-.33,0-.64,.06-.94,.18v-2.89c.29,.11,.61,.18,.94,.18s.65-.06,.94-.19v2.91c-.29-.12-.61-.19-.94-.19Z"/>
    <path class="cls-10" d="M127.96,45.3c-.33,0-.64-.06-.94-.18v-.48s1.88,0,1.88,0v.47c-.29,.12-.61,.19-.94,.19Z"/>
    <path class="cls-10" d="M128.9,48.48h-1.88s0-.47,0-.47c.29-.11,.61-.18,.94-.18s.65,.06,.94,.19v.46Z"/>
  </g>
  <g>
    <path class="cls-6" d="M109.84,47.84c-.33,0-.64,.06-.94,.18v-2.89c.29,.11,.61,.18,.94,.18s.65-.06,.94-.19v2.91c-.29-.12-.61-.19-.94-.19Z"/>
    <path class="cls-10" d="M109.84,45.3c-.33,0-.64-.06-.94-.18v-.48s1.88,0,1.88,0v.47c-.29,.12-.61,.19-.94,.19Z"/>
    <path class="cls-10" d="M110.78,48.48h-1.88s0-.47,0-.47c.29-.11,.61-.18,.94-.18s.65,.06,.94,.19v.46Z"/>
  </g>
  <g>
    <path class="cls-6" d="M24.61,96.54c-.33,0-.64,.06-.94,.18v-2.89c.29,.11,.61,.18,.94,.18s.65-.06,.94-.19v2.91c-.29-.12-.61-.19-.94-.19Z"/>
    <path class="cls-10" d="M24.61,94c-.33,0-.64-.06-.94-.18v-.48s1.88,0,1.88,0v.47c-.29,.12-.61,.19-.94,.19Z"/>
    <path class="cls-10" d="M25.55,97.18h-1.88s0-.47,0-.47c.29-.11,.61-.18,.94-.18s.65,.06,.94,.19v.46Z"/>
  </g>
  <g>
    <path class="cls-6" d="M142.38,58.55c0,.33,.06,.64,.18,.94h-2.89c.11-.29,.18-.61,.18-.94s-.06-.65-.19-.94h2.91c-.12,.29-.19,.61-.19,.94Z"/>
    <path class="cls-10" d="M139.84,58.55c0,.33-.06,.64-.18,.94h-.48s0-1.88,0-1.88h.47c.12,.29,.19,.61,.19,.94Z"/>
    <path class="cls-10" d="M143.02,57.61v1.88s-.47,0-.47,0c-.11-.29-.18-.61-.18-.94s.06-.65,.19-.94h.46Z"/>
  </g>
  <g>
    <path class="cls-6" d="M16.33,88.13c0-.72-.09-1.42-.26-2.07h4.26c-.17,.64-.26,1.35-.26,2.07s.09,1.44,.27,2.09h-4.28c.18-.64,.27-1.35,.27-2.09Z"/>
    <path class="cls-10" d="M20.07,88.13c0-.72,.09-1.42,.26-2.07h.7v4.15h-.69c-.18-.64-.27-1.35-.27-2.09Z"/>
    <path class="cls-10" d="M15.38,90.22v-4.15h.69c.17,.64,.26,1.35,.26,2.07s-.09,1.44-.27,2.09h-.68Z"/>
  </g>
  <g>
    <path class="cls-6" d="M14.59,69.06c0-.72-.09-1.42-.26-2.07h4.26c-.17,.64-.26,1.35-.26,2.07s.09,1.44,.27,2.09h-4.28c.18-.64,.27-1.35,.27-2.09Z"/>
    <path class="cls-10" d="M18.33,69.06c0-.72,.09-1.42,.26-2.07h.7v4.15h-.69c-.18-.64-.27-1.35-.27-2.09Z"/>
    <path class="cls-10" d="M13.64,71.15v-4.15h.69c.17,.64,.26,1.35,.26,2.07s-.09,1.44-.27,2.09h-.68Z"/>
  </g>
  <g>
    <path class="cls-6" d="M16.33,93.67c0-.72-.09-1.42-.26-2.07h4.26c-.17,.64-.26,1.35-.26,2.07s.09,1.44,.27,2.09h-4.28c.18-.64,.27-1.35,.27-2.09Z"/>
    <path class="cls-10" d="M20.07,93.67c0-.72,.09-1.42,.26-2.07h.7v4.15h-.69c-.18-.64-.27-1.35-.27-2.09Z"/>
    <path class="cls-10" d="M15.38,95.75v-4.15h.69c.17,.64,.26,1.35,.26,2.07s-.09,1.44-.27,2.09h-.68Z"/>
  </g>
  <g>
    <path class="cls-6" d="M29.03,106.32c.72,0,1.42-.09,2.07-.26v4.26c-.64-.17-1.35-.26-2.07-.26s-1.44,.09-2.09,.27v-4.28c.64,.18,1.35,.27,2.09,.27Z"/>
    <path class="cls-10" d="M29.03,110.06c.72,0,1.42,.09,2.07,.26v.7h-4.15v-.69c.64-.18,1.35-.27,2.09-.27Z"/>
    <path class="cls-10" d="M26.95,105.37h4.15v.69c-.64,.17-1.35,.26-2.07,.26s-1.44-.09-2.09-.27v-.68Z"/>
  </g>
  <g>
    <path class="cls-6" d="M34.14,106.32c.72,0,1.42-.09,2.07-.26v4.26c-.64-.17-1.35-.26-2.07-.26s-1.44,.09-2.09,.27v-4.28c.64,.18,1.35,.27,2.09,.27Z"/>
    <path class="cls-10" d="M34.14,110.06c.72,0,1.42,.09,2.07,.26v.7h-4.15v-.69c.64-.18,1.35-.27,2.09-.27Z"/>
    <path class="cls-10" d="M32.05,105.37h4.15v.69c-.64,.17-1.35,.26-2.07,.26s-1.44-.09-2.09-.27v-.68Z"/>
  </g>
  <g>
    <path class="cls-6" d="M39.25,106.32c.72,0,1.42-.09,2.07-.26v4.26c-.64-.17-1.35-.26-2.07-.26s-1.44,.09-2.09,.27v-4.28c.64,.18,1.35,.27,2.09,.27Z"/>
    <path class="cls-10" d="M39.25,110.06c.72,0,1.42,.09,2.07,.26v.7h-4.15v-.69c.64-.18,1.35-.27,2.09-.27Z"/>
    <path class="cls-10" d="M37.16,105.37h4.15v.69c-.64,.17-1.35,.26-2.07,.26s-1.44-.09-2.09-.27v-.68Z"/>
  </g>
  <g>
    <path class="cls-6" d="M44.35,106.32c.72,0,1.42-.09,2.07-.26v4.26c-.64-.17-1.35-.26-2.07-.26s-1.44,.09-2.09,.27v-4.28c.64,.18,1.35,.27,2.09,.27Z"/>
    <path class="cls-10" d="M44.35,110.06c.72,0,1.42,.09,2.07,.26v.7h-4.15v-.69c.64-.18,1.35-.27,2.09-.27Z"/>
    <path class="cls-10" d="M42.27,105.37h4.15v.69c-.64,.17-1.35,.26-2.07,.26s-1.44-.09-2.09-.27v-.68Z"/>
  </g>
  <g>
    <rect class="cls-10" x="60.46" y="31.18" width="1.67" height="2.77" transform="translate(93.87 -28.73) rotate(90)"/>
    <rect class="cls-10" x="60.46" y="35.16" width="1.67" height="2.77" transform="translate(97.85 -24.75) rotate(90)"/>
  </g>
  <g>
    <rect class="cls-10" x="112.65" y="37.5" width="2.03" height="3.37" transform="translate(152.85 -74.49) rotate(90)"/>
    <rect class="cls-10" x="112.65" y="42.34" width="2.03" height="3.37" transform="translate(157.7 -69.65) rotate(90)"/>
  </g>
  <g>
    <rect class="cls-10" x="118.72" y="37.5" width="2.03" height="3.37" transform="translate(158.92 -80.56) rotate(90)"/>
    <rect class="cls-10" x="118.72" y="42.34" width="2.03" height="3.37" transform="translate(163.76 -75.71) rotate(90)"/>
  </g>
  <g>
    <rect class="cls-10" x="54.14" y="31.18" width="1.67" height="2.77" transform="translate(87.55 -22.41) rotate(90)"/>
    <rect class="cls-10" x="54.14" y="35.16" width="1.67" height="2.77" transform="translate(91.53 -18.43) rotate(90)"/>
  </g>
  <g>
    <rect class="cls-10" x="42.63" y="90.05" width="1.12" height="1.86"/>
    <rect class="cls-10" x="45.3" y="90.05" width="1.12" height="1.86"/>
  </g>
  <g>
    <rect class="cls-10" x="42.63" y="87.21" width="1.12" height="1.86"/>
    <rect class="cls-10" x="45.3" y="87.21" width="1.12" height="1.86"/>
  </g>
  <g>
    <rect class="cls-10" x="112.66" y="46.56" width="1.12" height="1.86"/>
    <rect class="cls-10" x="115.33" y="46.56" width="1.12" height="1.86"/>
  </g>
  <g>
    <rect class="cls-10" x="117.81" y="46.56" width="1.12" height="1.86"/>
    <rect class="cls-10" x="120.49" y="46.56" width="1.12" height="1.86"/>
  </g>
  <g>
    <rect class="cls-10" x="146.18" y="61.1" width="1.12" height="1.86" transform="translate(208.77 -84.7) rotate(90)"/>
    <rect class="cls-10" x="146.18" y="63.77" width="1.12" height="1.86" transform="translate(211.44 -82.03) rotate(90)"/>
  </g>
  <g>
    <rect class="cls-10" x="37.53" y="24.67" width="1.12" height="1.86" transform="translate(63.69 -12.49) rotate(90)"/>
    <rect class="cls-10" x="37.53" y="27.34" width="1.12" height="1.86" transform="translate(66.36 -9.82) rotate(90)"/>
  </g>
  <g>
    <rect class="cls-10" x="37.46" y="90.09" width="1.12" height="1.86"/>
    <rect class="cls-10" x="40.13" y="90.09" width="1.12" height="1.86"/>
  </g>
  <g>
    <rect class="cls-10" x="25.88" y="90.09" width="1.12" height="1.86"/>
    <rect class="cls-10" x="28.55" y="90.09" width="1.12" height="1.86"/>
  </g>
  <g>
    <rect class="cls-9" x="75.45" y="38.7" width="5.89" height="2.62"/>
    <circle class="cls-3" cx="78.39" cy="40.01" r="1.89"/>
  </g>
  <g>
    <rect class="cls-9" x="75.45" y="53.27" width="5.89" height="2.62"/>
    <circle class="cls-3" cx="78.39" cy="54.58" r="1.89"/>
  </g>
  <g>
    <rect class="cls-9" x="155.19" y="53.27" width="5.89" height="2.62"/>
    <circle class="cls-3" cx="158.13" cy="54.58" r="1.89"/>
  </g>
  <g>
    <rect class="cls-9" x="75.45" y="59.35" width="5.89" height="2.62"/>
    <circle class="cls-3" cx="78.39" cy="60.67" r="1.89"/>
  </g>
  <g>
    <g>
      <rect class="cls-9" x="20.11" y="44.18" width="1.19" height=".73"/>
      <rect class="cls-9" x="20.11" y="41.85" width="1.19" height=".73"/>
      <rect class="cls-9" x="20.11" y="45.31" width="1.19" height=".73"/>
      <rect class="cls-9" x="20.11" y="46.43" width="1.19" height=".73"/>
      <rect class="cls-9" x="20.11" y="47.56" width="1.19" height=".73"/>
      <rect class="cls-9" x="20.11" y="48.68" width="1.19" height=".73"/>
      <rect class="cls-9" x="20.11" y="49.81" width="1.19" height=".73"/>
      <rect class="cls-9" x="20.11" y="50.93" width="1.19" height=".73"/>
      <rect class="cls-9" x="20.11" y="52.06" width="1.19" height=".73"/>
      <rect class="cls-9" x="20.11" y="53.2" width="1.19" height=".73"/>
      <rect class="cls-9" x="20.11" y="54.33" width="1.19" height=".73"/>
      <rect class="cls-9" x="20.11" y="55.45" width="1.19" height=".73"/>
      <rect class="cls-9" x="20.11" y="56.58" width="1.19" height=".73"/>
      <rect class="cls-9" x="20.11" y="58.86" width="1.19" height=".73"/>
    </g>
    <rect class="cls-7" x="2.29" y="39.5" width="18.11" height="23.05"/>
    <g>
      <rect class="cls-9" x="5.16" y="39.5" width="1.7" height="23.05"/>
      <rect class="cls-9" x="8.55" y="39.5" width="1.7" height="23.05"/>
      <rect class="cls-9" x="11.95" y="39.5" width="1.7" height="23.05"/>
      <rect class="cls-9" x="15.34" y="39.5" width="1.7" height="23.05"/>
      <rect class="cls-9" x="18.71" y="39.5" width="1.69" height="23.05"/>
    </g>
  </g>
  <path class="cls-9" d="M28.42,141.38c1.72,0,3.11-1.39,3.11-3.11h-6.22c0,1.72,1.39,3.11,3.11,3.11Z"/>
  <path class="cls-9" d="M36.2,122.67s-.06,0-.1,0v2.61s0,2.6,0,2.6v.99s.06,0,.1,0c1.72,0,3.11-1.4,3.11-3.11s-1.39-3.11-3.11-3.11Z"/>
  <g>
    <g>
      <polygon class="cls-1" points="9.19 117.51 9.19 116.21 9.19 116.21 9.19 114.91 1.81 114.91 1.81 116.21 1.81 116.21 1.81 117.51 1.81 118.81 1.81 120.1 1.81 121.4 1.81 122.7 1.81 124 1.81 125.29 1.81 126.59 1.81 127.89 1.81 129.19 1.81 130.49 1.81 131.78 1.81 133.08 1.81 134.38 1.81 135.68 1.81 136.97 1.81 138.27 1.81 139.44 1.81 139.57 1.81 140.74 9.19 140.74 9.19 139.57 9.19 139.44 9.19 138.27 25.31 138.27 31.54 138.27 36.1 138.27 36.1 135.68 36.1 133.08 36.1 130.49 36.1 128.88 36.1 127.89 36.1 125.29 36.1 122.7 36.1 122.68 36.1 120.1 36.1 117.51 9.19 117.51"/>
      <polygon class="cls-2" points="9.19 117.51 9.19 116.21 9.19 116.21 9.19 114.91 1.81 114.91 1.81 116.21 1.81 116.21 1.81 117.51 1.81 118.81 1.81 120.1 1.81 121.4 1.81 122.7 1.81 124 1.81 125.29 1.81 126.59 1.81 127.89 1.81 129.19 1.81 130.49 1.81 131.78 1.81 133.08 1.81 134.38 1.81 135.68 1.81 136.97 1.81 138.27 1.81 139.44 1.81 139.57 1.81 140.74 9.19 140.74 9.19 139.57 9.19 139.44 9.19 138.27 25.31 138.27 31.54 138.27 36.1 138.27 36.1 135.68 36.1 133.08 36.1 130.49 36.1 128.88 36.1 127.89 36.1 125.29 36.1 122.7 36.1 122.68 36.1 120.1 36.1 117.51 9.19 117.51"/>
      <polygon class="cls-1" points="9.19 117.51 9.19 116.21 9.19 116.21 9.19 114.91 1.81 114.91 1.81 116.21 1.81 116.21 1.81 117.51 1.81 118.81 1.81 120.1 1.81 121.4 1.81 122.7 1.81 124 1.81 125.29 1.81 126.59 1.81 127.89 1.81 129.19 1.81 130.49 1.81 131.78 1.81 133.08 1.81 134.38 1.81 135.68 1.81 136.97 1.81 138.27 1.81 139.44 1.81 139.57 1.81 140.74 9.19 140.74 9.19 139.57 9.19 139.44 9.19 138.27 25.31 138.27 31.54 138.27 36.1 138.27 36.1 135.68 36.1 133.08 36.1 130.49 36.1 128.88 36.1 127.89 36.1 125.29 36.1 122.7 36.1 122.68 36.1 120.1 36.1 117.51 9.19 117.51"/>
    </g>
    <g>
      <polygon class="cls-4" points="9.19 117.51 9.19 116.21 9.19 116.21 9.19 114.91 1.81 114.91 1.81 116.21 1.81 116.21 1.81 117.51 1.81 118.81 1.81 120.1 1.81 121.4 1.81 122.7 1.81 124 1.81 125.29 1.81 126.59 1.81 127.89 1.81 129.19 1.81 130.49 1.81 131.78 1.81 133.08 1.81 134.38 1.81 135.68 1.81 136.97 1.81 138.27 1.81 139.44 1.81 139.57 1.81 140.74 9.19 140.74 9.19 139.57 9.19 139.44 9.19 138.27 25.31 138.27 31.54 138.27 36.1 138.27 36.1 135.68 36.1 133.08 36.1 130.49 36.1 128.88 36.1 127.89 36.1 125.29 36.1 122.7 36.1 122.68 36.1 120.1 36.1 117.51 9.19 117.51"/>
      <polygon class="cls-2" points="9.19 117.51 9.19 116.21 9.19 116.21 9.19 114.91 1.81 114.91 1.81 116.21 1.81 116.21 1.81 117.51 1.81 118.81 1.81 120.1 1.81 121.4 1.81 122.7 1.81 124 1.81 125.29 1.81 126.59 1.81 127.89 1.81 129.19 1.81 130.49 1.81 131.78 1.81 133.08 1.81 134.38 1.81 135.68 1.81 136.97 1.81 138.27 1.81 139.44 1.81 139.57 1.81 140.74 9.19 140.74 9.19 139.57 9.19 139.44 9.19 138.27 25.31 138.27 31.54 138.27 36.1 138.27 36.1 135.68 36.1 133.08 36.1 130.49 36.1 128.88 36.1 127.89 36.1 125.29 36.1 122.7 36.1 122.68 36.1 120.1 36.1 117.51 9.19 117.51"/>
      <polygon class="cls-12" points="9.19 117.51 9.19 116.21 9.19 116.21 9.19 114.91 1.81 114.91 1.81 116.21 1.81 116.21 1.81 117.51 1.81 118.81 1.81 120.1 1.81 121.4 1.81 122.7 1.81 124 1.81 125.29 1.81 126.59 1.81 127.89 1.81 129.19 1.81 130.49 1.81 131.78 1.81 133.08 1.81 134.38 1.81 135.68 1.81 136.97 1.81 138.27 1.81 139.44 1.81 139.57 1.81 140.74 9.19 140.74 9.19 139.57 9.19 139.44 9.19 138.27 25.31 138.27 31.54 138.27 36.1 138.27 36.1 135.68 36.1 133.08 36.1 130.49 36.1 128.88 36.1 127.89 36.1 125.29 36.1 122.7 36.1 122.68 36.1 120.1 36.1 117.51 9.19 117.51"/>
    </g>
    <g>
      <polygon class="cls-1" points="9.19 117.51 9.19 116.21 9.19 116.21 9.19 114.91 1.81 114.91 1.81 116.21 1.81 116.21 1.81 117.51 1.81 118.81 1.81 120.1 1.81 121.4 1.81 122.7 1.81 124 1.81 125.29 1.81 126.59 1.81 127.89 1.81 129.19 1.81 130.49 1.81 131.78 1.81 133.08 1.81 134.38 1.81 135.68 1.81 136.97 1.81 138.27 1.81 139.44 1.81 139.57 1.81 140.74 9.19 140.74 9.19 139.57 9.19 139.44 9.19 138.27 25.31 138.27 31.54 138.27 36.1 138.27 36.1 135.68 36.1 133.08 36.1 130.49 36.1 128.88 36.1 127.89 36.1 125.29 36.1 122.7 36.1 122.68 36.1 120.1 36.1 117.51 9.19 117.51"/>
      <polygon class="cls-2" points="9.19 117.51 9.19 116.21 9.19 116.21 9.19 114.91 1.81 114.91 1.81 116.21 1.81 116.21 1.81 117.51 1.81 118.81 1.81 120.1 1.81 121.4 1.81 122.7 1.81 124 1.81 125.29 1.81 126.59 1.81 127.89 1.81 129.19 1.81 130.49 1.81 131.78 1.81 133.08 1.81 134.38 1.81 135.68 1.81 136.97 1.81 138.27 1.81 139.44 1.81 139.57 1.81 140.74 9.19 140.74 9.19 139.57 9.19 139.44 9.19 138.27 25.31 138.27 31.54 138.27 36.1 138.27 36.1 135.68 36.1 133.08 36.1 130.49 36.1 128.88 36.1 127.89 36.1 125.29 36.1 122.7 36.1 122.68 36.1 120.1 36.1 117.51 9.19 117.51"/>
      <polygon class="cls-14" points="9.19 117.51 9.19 116.21 9.19 116.21 9.19 114.91 1.81 114.91 1.81 116.21 1.81 116.21 1.81 117.51 1.81 118.81 1.81 120.1 1.81 121.4 1.81 122.7 1.81 124 1.81 125.29 1.81 126.59 1.81 127.89 1.81 129.19 1.81 130.49 1.81 131.78 1.81 133.08 1.81 134.38 1.81 135.68 1.81 136.97 1.81 138.27 1.81 139.44 1.81 139.57 1.81 140.74 9.19 140.74 9.19 139.57 9.19 139.44 9.19 138.27 25.31 138.27 31.54 138.27 36.1 138.27 36.1 135.68 36.1 133.08 36.1 130.49 36.1 128.88 36.1 127.89 36.1 125.29 36.1 122.7 36.1 122.68 36.1 120.1 36.1 117.51 9.19 117.51"/>
    </g>
  </g>
  <rect class="cls-6" x="0" y="114.91" width="1.81" height="25.81"/>
</svg>