<?xml version="1.0" encoding="utf-8"?>
<!-- Generator: Adobe Illustrator 25.0.1, SVG Export Plug-In . SVG Version: 6.00 Build 0)  -->
<svg version="1.1" id="Illustration" xmlns="http://www.w3.org/2000/svg" xmlns:xlink="http://www.w3.org/1999/xlink" x="0px"
	 y="0px" viewBox="0 0 127.3 50.4" style="enable-background:new 0 0 127.3 50.4;" xml:space="preserve">
<style type="text/css">
	.st0{fill:#057582;}
	.st1{fill:#9D846D;}
	.st2{fill:#BCAC99;}
	.st3{fill:#FFFFFF;}
	.st4{fill:#BDC7C7;}
	.st5{fill:#DAE3E3;}
	.st6{fill:none;}
	.st7{fill:#C9D2D2;}
	.st8{fill:#F1C411;}
	.st9{fill:#008B9C;}
	.st10{fill:#EE7402;}
	.st11{fill:#2C353A;}
	.st12{fill:#8AC2CD;}
	.st13{fill:none;stroke:#F1C411;stroke-width:0.2835;stroke-miterlimit:10;}
</style>
<path class="st0" d="M122.3,50.4V0H0v50.4H122.3z M118.7,1.3c1.3,0,2.3,1,2.3,2.3c0,1.3-1,2.3-2.3,2.3c-1.3,0-2.3-1-2.3-2.3
	c0,0,0,0,0,0C116.4,2.3,117.4,1.3,118.7,1.3L118.7,1.3z M118.7,44.4c1.3,0,2.3,1,2.3,2.3s-1,2.3-2.3,2.3c-1.3,0-2.3-1-2.3-2.3
	c0,0,0,0,0,0C116.4,45.5,117.4,44.4,118.7,44.4L118.7,44.4z M3.6,1.3c1.3,0,2.3,1,2.3,2.3c0,1.3-1,2.3-2.3,2.3c-1.3,0-2.3-1-2.3-2.3
	v0C1.3,2.3,2.3,1.3,3.6,1.3C3.6,1.3,3.6,1.3,3.6,1.3L3.6,1.3z M3.6,44.4c1.3,0,2.3,1,2.3,2.3c0,1.3-1,2.3-2.3,2.3
	c-1.3,0-2.3-1-2.3-2.3c0,0,0,0,0,0C1.3,45.5,2.3,44.4,3.6,44.4C3.6,44.4,3.6,44.4,3.6,44.4L3.6,44.4z"/>
<path class="st1" d="M108.7,50.4v-3.7c0-1.2,1-2.3,2.3-2.3c1.2,0,2.3,1,2.3,2.3v3.7L108.7,50.4z"/>
<circle class="st2" cx="111" cy="46.7" r="1.5"/>
<path class="st3" d="M109.5,50.4c0-0.8,0.7-1.5,1.5-1.5c0.8,0,1.5,0.7,1.5,1.5c0,0,0,0,0,0H109.5z"/>
<path class="st1" d="M101.6,50.4v-3.7c0-1.2,1-2.3,2.3-2.3c1.2,0,2.3,1,2.3,2.3v3.7L101.6,50.4z"/>
<circle class="st2" cx="103.9" cy="46.7" r="1.5"/>
<path class="st3" d="M102.4,50.4c0-0.8,0.7-1.5,1.5-1.5c0.8,0,1.5,0.7,1.5,1.5c0,0,0,0,0,0H102.4z"/>
<path class="st1" d="M94.5,50.4v-3.7c0-1.2,1-2.3,2.3-2.3c1.2,0,2.3,1,2.3,2.3v3.7L94.5,50.4z"/>
<circle class="st2" cx="96.8" cy="46.7" r="1.5"/>
<path class="st3" d="M95.3,50.4c0-0.8,0.7-1.5,1.5-1.5s1.5,0.7,1.5,1.5c0,0,0,0,0,0H95.3z"/>
<path class="st1" d="M87.4,50.4v-3.7c0-1.2,1-2.3,2.3-2.3c1.2,0,2.3,1,2.3,2.3v3.7L87.4,50.4z"/>
<circle class="st2" cx="89.6" cy="46.7" r="1.5"/>
<path class="st3" d="M88.2,50.4c0-0.8,0.7-1.5,1.5-1.5s1.5,0.7,1.5,1.5c0,0,0,0,0,0H88.2z"/>
<path class="st1" d="M80.3,50.4v-3.7c0-1.2,1-2.3,2.3-2.3c1.2,0,2.3,1,2.3,2.3v3.7L80.3,50.4z"/>
<circle class="st2" cx="82.5" cy="46.7" r="1.5"/>
<path class="st3" d="M81.1,50.4c0-0.8,0.7-1.5,1.5-1.5s1.5,0.7,1.5,1.5H81.1z"/>
<path class="st1" d="M73.1,50.4v-3.7c0-1.2,1-2.3,2.3-2.3c1.2,0,2.3,1,2.3,2.3v3.7L73.1,50.4z"/>
<circle class="st2" cx="75.4" cy="46.7" r="1.5"/>
<path class="st3" d="M73.9,50.4c0-0.8,0.7-1.5,1.5-1.5s1.5,0.7,1.5,1.5H73.9z"/>
<path class="st1" d="M66,50.4v-3.7c0-1.2,1-2.3,2.3-2.3c1.2,0,2.3,1,2.3,2.3v3.7L66,50.4z"/>
<circle class="st2" cx="68.3" cy="46.7" r="1.5"/>
<path class="st3" d="M66.8,50.4c0-0.8,0.7-1.5,1.5-1.5s1.5,0.7,1.5,1.5H66.8z"/>
<path class="st1" d="M58.9,50.4v-3.7c0-1.2,1-2.3,2.3-2.3c1.2,0,2.3,1,2.3,2.3v3.7L58.9,50.4z"/>
<circle class="st2" cx="61.2" cy="46.7" r="1.5"/>
<path class="st3" d="M59.7,50.4c0-0.8,0.7-1.5,1.5-1.5s1.5,0.7,1.5,1.5H59.7z"/>
<path class="st1" d="M51.8,50.4v-3.7c0-1.2,1-2.3,2.3-2.3c1.2,0,2.3,1,2.3,2.3v3.7L51.8,50.4z"/>
<circle class="st2" cx="54.1" cy="46.7" r="1.5"/>
<path class="st3" d="M52.6,50.4c0-0.8,0.7-1.5,1.5-1.5s1.5,0.7,1.5,1.5H52.6z"/>
<path class="st1" d="M44.7,50.4v-3.7c0-1.2,1-2.3,2.3-2.3c1.2,0,2.3,1,2.3,2.3v3.7L44.7,50.4z"/>
<circle class="st2" cx="46.9" cy="46.7" r="1.5"/>
<path class="st3" d="M45.5,50.4c0-0.8,0.7-1.5,1.5-1.5s1.5,0.7,1.5,1.5H45.5z"/>
<path class="st1" d="M37.6,50.4v-3.7c0-1.2,1-2.3,2.3-2.3c1.2,0,2.3,1,2.3,2.3v3.7L37.6,50.4z"/>
<circle class="st2" cx="39.8" cy="46.7" r="1.5"/>
<path class="st3" d="M38.4,50.4c0-0.8,0.7-1.5,1.5-1.5s1.5,0.7,1.5,1.5H38.4z"/>
<path class="st1" d="M30.5,50.4v-3.7c0-1.2,1-2.3,2.3-2.3c1.2,0,2.3,1,2.3,2.3v3.7L30.5,50.4z"/>
<circle class="st2" cx="32.7" cy="46.7" r="1.5"/>
<path class="st3" d="M31.2,50.4c0-0.8,0.7-1.5,1.5-1.5s1.5,0.7,1.5,1.5H31.2z"/>
<path class="st1" d="M23.3,50.4v-3.7c0-1.2,1-2.3,2.3-2.3c1.2,0,2.3,1,2.3,2.3v3.7L23.3,50.4z"/>
<circle class="st2" cx="25.6" cy="46.7" r="1.5"/>
<path class="st3" d="M24.1,50.4c0-0.8,0.7-1.5,1.5-1.5s1.5,0.7,1.5,1.5H24.1z"/>
<path class="st1" d="M16.2,50.4v-3.7c0-1.2,1-2.3,2.3-2.3c1.2,0,2.2,1,2.3,2.3v3.7L16.2,50.4z"/>
<circle class="st2" cx="18.5" cy="46.7" r="1.5"/>
<path class="st3" d="M17,50.4c0-0.8,0.7-1.5,1.5-1.5s1.5,0.7,1.5,1.5H17z"/>
<path class="st1" d="M9.1,50.4v-3.7c0-1.2,1-2.3,2.3-2.3c1.2,0,2.2,1,2.3,2.3v3.7L9.1,50.4z"/>
<circle class="st2" cx="11.4" cy="46.7" r="1.5"/>
<path class="st3" d="M9.9,50.4c0-0.8,0.7-1.5,1.5-1.5s1.5,0.7,1.5,1.5H9.9z"/>
<path class="st1" d="M13.6,0v3.7c0,1.2-1,2.3-2.3,2.3c-1.2,0-2.2-1-2.3-2.3V0H13.6z"/>
<circle class="st2" cx="11.4" cy="3.7" r="1.5"/>
<path class="st3" d="M12.8,0c0,0.8-0.7,1.5-1.5,1.5S9.9,0.8,9.9,0l0,0H12.8z"/>
<path class="st1" d="M20.7,0v3.7c0,1.2-1,2.3-2.3,2.3c-1.2,0-2.2-1-2.3-2.3V0H20.7z"/>
<circle class="st2" cx="18.5" cy="3.7" r="1.5"/>
<path class="st3" d="M19.9,0c0,0.8-0.7,1.5-1.5,1.5S17,0.8,17,0l0,0H19.9z"/>
<path class="st1" d="M27.8,0v3.7c0,1.2-1,2.3-2.3,2.3c-1.2,0-2.3-1-2.3-2.3V0H27.8z"/>
<circle class="st2" cx="25.6" cy="3.7" r="1.5"/>
<path class="st3" d="M27.1,0c0,0.8-0.7,1.5-1.5,1.5S24.1,0.8,24.1,0l0,0H27.1z"/>
<path class="st1" d="M35,0v3.7c0,1.2-1,2.3-2.3,2.3c-1.2,0-2.3-1-2.3-2.3V0H35z"/>
<circle class="st2" cx="32.7" cy="3.7" r="1.5"/>
<path class="st3" d="M34.2,0c0,0.8-0.7,1.5-1.5,1.5S31.2,0.8,31.2,0l0,0H34.2z"/>
<path class="st1" d="M42.1,0v3.7c0,1.2-1,2.3-2.3,2.3c-1.2,0-2.3-1-2.3-2.3V0H42.1z"/>
<circle class="st2" cx="39.8" cy="3.7" r="1.5"/>
<path class="st3" d="M41.3,0c0,0.8-0.7,1.5-1.5,1.5S38.3,0.8,38.3,0l0,0H41.3z"/>
<path class="st1" d="M49.2,0v3.7c0,1.2-1,2.3-2.3,2.3c-1.2,0-2.3-1-2.3-2.3V0H49.2z"/>
<circle class="st2" cx="46.9" cy="3.7" r="1.5"/>
<path class="st3" d="M48.4,0c0,0.8-0.7,1.5-1.5,1.5S45.5,0.8,45.5,0l0,0H48.4z"/>
<path class="st1" d="M56.3,0v3.7c0,1.2-1,2.3-2.3,2.3c-1.2,0-2.3-1-2.3-2.3V0H56.3z"/>
<circle class="st2" cx="54.1" cy="3.7" r="1.5"/>
<path class="st3" d="M55.5,0c0,0.8-0.7,1.5-1.5,1.5S52.6,0.8,52.6,0l0,0H55.5z"/>
<path class="st1" d="M63.4,0v3.7c0,1.2-1,2.3-2.3,2.3c-1.2,0-2.3-1-2.3-2.3V0H63.4z"/>
<circle class="st2" cx="61.2" cy="3.7" r="1.5"/>
<path class="st3" d="M62.6,0c0,0.8-0.7,1.5-1.5,1.5S59.7,0.8,59.7,0l0,0H62.6z"/>
<path class="st1" d="M70.5,0v3.7c0,1.2-1,2.3-2.3,2.3c-1.2,0-2.3-1-2.3-2.3V0H70.5z"/>
<circle class="st2" cx="68.3" cy="3.7" r="1.5"/>
<path class="st3" d="M69.8,0c0,0.8-0.7,1.5-1.5,1.5S66.8,0.8,66.8,0l0,0H69.8z"/>
<path class="st1" d="M77.7,0v3.7c0,1.2-1,2.3-2.3,2.3c-1.2,0-2.3-1-2.3-2.3V0H77.7z"/>
<circle class="st2" cx="75.4" cy="3.7" r="1.5"/>
<path class="st3" d="M76.9,0c0,0.8-0.7,1.5-1.5,1.5S73.9,0.8,73.9,0l0,0H76.9z"/>
<path class="st1" d="M84.8,0v3.7c0,1.2-1,2.3-2.3,2.3c-1.2,0-2.3-1-2.3-2.3V0H84.8z"/>
<circle class="st2" cx="82.5" cy="3.7" r="1.5"/>
<path class="st3" d="M84,0c0,0.8-0.7,1.5-1.5,1.5S81,0.8,81,0l0,0H84z"/>
<path class="st1" d="M91.9,0v3.7c0,1.2-1,2.3-2.3,2.3c-1.2,0-2.3-1-2.3-2.3V0H91.9z"/>
<circle class="st2" cx="89.6" cy="3.7" r="1.5"/>
<path class="st3" d="M91.1,0c0,0.8-0.7,1.5-1.5,1.5c-0.8,0-1.5-0.7-1.5-1.5c0,0,0,0,0,0H91.1z"/>
<path class="st1" d="M99,0v3.7c0,1.2-1,2.3-2.3,2.3c-1.2,0-2.3-1-2.3-2.3V0H99z"/>
<circle class="st2" cx="96.7" cy="3.7" r="1.5"/>
<path class="st3" d="M98.2,0c0,0.8-0.7,1.5-1.5,1.5c-0.8,0-1.5-0.7-1.5-1.5c0,0,0,0,0,0H98.2z"/>
<path class="st1" d="M106.1,0v3.7c0,1.2-1,2.3-2.3,2.3c-1.2,0-2.3-1-2.3-2.3V0H106.1z"/>
<circle class="st2" cx="103.9" cy="3.7" r="1.5"/>
<path class="st3" d="M105.3,0c0,0.8-0.7,1.5-1.5,1.5c-0.8,0-1.5-0.7-1.5-1.5c0,0,0,0,0,0H105.3z"/>
<path class="st1" d="M113.2,0v3.7c0,1.2-1,2.3-2.3,2.3c-1.2,0-2.3-1-2.3-2.3V0H113.2z"/>
<circle class="st2" cx="111" cy="3.7" r="1.5"/>
<path class="st3" d="M112.4,0c0,0.8-0.7,1.5-1.5,1.5c-0.8,0-1.5-0.7-1.5-1.5c0,0,0,0,0,0H112.4z"/>
<rect x="0" y="10.8" class="st4" width="39.7" height="28.7"/>
<polygon class="st5" points="10.9,12.1 10.9,12.1 10.9,12.1 10.9,38.3 10.9,38.3 10.9,38.3 10.9,38.3 37.6,38.3 37.6,38.2 
	37.7,38.2 37.7,12.1 37.6,12.1 37.6,12.1 "/>
<polygon class="st5" points="3,12.1 1.5,12.1 1.5,38.4 4.4,38.4 4.4,17.4 6.5,17.4 6.5,38.4 9.3,38.4 9.3,12.1 7.6,12.1 7.6,13.8 
	6.7,13.8 6.7,13.2 3.9,13.2 3.9,13.8 3,13.8 "/>
<polyline class="st5" points="91.9,22.3 92.2,22.3 92.2,22.3 92.4,22.4 92.4,22.4 92.7,22.4 92.7,22.4 92.9,22.5 92.9,22.5 
	93.2,22.6 93.2,22.6 93.4,22.7 93.4,22.7 93.7,22.9 93.7,22.9 93.9,23 93.9,23 94.1,23.2 94.1,23.2 94.3,23.4 94.3,23.4 94.4,23.6 
	94.4,23.6 94.6,23.8 94.6,23.8 94.7,24 94.7,24 94.9,24.2 94.9,24.2 95,24.5 95,24.5 95,24.7 95,24.7 95.1,25 95.1,25 95.1,25.3 
	95.1,25.3 95.2,25.5 95.2,25.5 95.2,25.8 95.2,25.8 95.1,26 95.1,26 95.1,26.3 95.1,26.3 95,26.6 95,26.6 94.9,26.8 94.9,26.8 
	94.8,27 94.8,27 94.7,27.3 94.7,27.3 94.5,27.5 94.5,27.5 94.4,27.7 94.4,27.7 94.2,27.9 94.2,27.9 94,28.1 94,28.1 93.8,28.2 
	93.8,28.2 93.6,28.4 93.6,28.4 93.3,28.5 93.3,28.5 93.1,28.6 93.1,28.6 92.8,28.7 92.8,28.7 92.6,28.8 92.6,28.8 92.3,28.8 
	92.3,28.8 92,28.8 92,28.8 91.8,28.8 91.8,28.8 91.5,28.8 91.5,28.8 91.3,28.8 91.3,28.8 91,28.7 91,28.7 90.7,28.6 90.7,28.6 
	90.5,28.5 90.5,28.5 90.3,28.4 90.3,28.4 90,28.2 90,28.2 89.8,28.1 89.8,28.1 89.6,27.9 89.6,27.9 89.5,27.7 89.5,27.7 89.3,27.5 
	89.3,27.5 89.1,27.3 89.1,27.3 89,27 89,27 88.9,26.8 88.9,26.8 88.8,26.6 88.8,26.6 88.7,26.3 88.7,26.3 88.7,26 88.7,26 
	88.7,25.8 88.7,25.8 88.7,25.5 88.7,25.5 88.7,25.3 88.7,25.3 88.7,25 88.7,25 88.8,24.7 88.8,24.7 88.9,24.5 88.9,24.5 89,24.2 
	89,24.2 89.1,24 89.1,24 89.2,23.8 89.2,23.8 89.4,23.6 89.4,23.6 89.6,23.4 89.6,23.4 89.7,23.2 89.7,23.2 89.9,23 89.9,23 
	90.2,22.9 90.2,22.9 90.4,22.7 90.4,22.7 90.6,22.6 90.6,22.6 90.9,22.5 90.9,22.5 91.1,22.4 91.1,22.4 91.4,22.4 91.4,22.4 
	91.6,22.3 91.6,22.3 91.9,22.3 91.9,22.3 "/>
<polygon class="st6" points="91.7,22.8 91.5,22.9 91.2,22.9 91,23 90.8,23.1 90.6,23.2 90.4,23.3 90.2,23.4 90.1,23.5 89.9,23.7 
	89.8,23.9 89.6,24 89.5,24.2 89.4,24.4 89.3,24.6 89.3,24.9 89.2,25.1 89.2,25.3 89.2,25.5 89.2,25.7 89.2,26 89.2,26.2 89.3,26.4 
	89.4,26.6 89.5,26.8 89.6,27 89.7,27.2 89.8,27.4 90,27.6 90.1,27.7 90.3,27.8 90.5,28 90.7,28.1 90.9,28.1 91.1,28.2 91.4,28.3 
	91.6,28.3 91.8,28.3 92,28.3 92.3,28.3 92.5,28.3 92.7,28.2 92.9,28.1 93.1,28.1 93.3,28 93.5,27.8 93.7,27.7 93.8,27.6 94,27.4 
	94.1,27.2 94.3,27 94.4,26.8 94.5,26.6 94.5,26.4 94.6,26.2 94.6,26 94.7,25.7 94.7,25.5 94.7,25.3 94.6,25.1 94.6,24.9 94.5,24.6 
	94.4,24.4 94.3,24.2 94.2,24 94.1,23.9 93.9,23.7 93.8,23.5 93.6,23.4 93.4,23.3 93.2,23.2 93,23.1 92.8,23 92.6,22.9 92.4,22.9 
	92.1,22.8 91.9,22.8 "/>
<rect x="89.7" y="18.7" class="st7" width="4.6" height="1.8"/>
<rect x="89.7" y="30.4" class="st7" width="4.6" height="1.8"/>
<path class="st4" d="M95.7,30.8V19.8h-7.5v10.9H95.7z M89.3,24.6l0.1-0.2l0.1-0.2l0.1-0.2l0.3-0.4l0.2-0.2l0.2-0.1l0.2-0.1l0.2-0.1
	l0.2-0.1L91,23l0.2-0.1l0.2,0l0.2,0l0.2,0l0.2,0l0.2,0l0.2,0l0.2,0.1l0.2,0.1l0.2,0.1l0.2,0.1l0.2,0.1l0.2,0.1l0.2,0.2l0.2,0.2
	l0.1,0.2l0.1,0.2l0.1,0.2l0.1,0.2l0.1,0.2l0,0.2l0,0.2l0,0.2v0.2l0,0.2l0,0.2l-0.1,0.2l-0.1,0.2l-0.1,0.2L94.3,27l-0.1,0.2L94,27.4
	l-0.2,0.2l-0.2,0.1l-0.2,0.1L93.3,28l-0.2,0.1l-0.2,0.1l-0.2,0.1l-0.2,0.1l-0.2,0l-0.2,0h-0.2l-0.2,0l-0.2,0l-0.2-0.1l-0.2-0.1
	l-0.2-0.1L90.5,28l-0.2-0.1l-0.2-0.1L90,27.6l-0.2-0.2l-0.1-0.2L89.6,27l-0.1-0.2l-0.1-0.2l-0.1-0.2l-0.1-0.2l0-0.2l0-0.2l0-0.2
	l0-0.2l0-0.2l0.1-0.2L89.3,24.6z"/>
<rect x="113.9" y="39.8" class="st7" width="6.3" height="2.5"/>
<path class="st8" d="M115.1,41.1c0-1.1,0.9-1.9,1.9-1.9c1.1,0,1.9,0.9,1.9,1.9c0,1.1-0.9,1.9-1.9,1.9c0,0,0,0,0,0
	C115.9,43,115.1,42.2,115.1,41.1z"/>
<rect x="113.9" y="8" class="st7" width="6.3" height="2.5"/>
<path class="st8" d="M115.1,9.2c0-1.1,0.9-1.9,1.9-1.9c1.1,0,1.9,0.9,1.9,1.9c0,1.1-0.9,1.9-1.9,1.9c0,0,0,0,0,0
	C115.9,11.2,115.1,10.3,115.1,9.2z"/>
<rect x="103.3" y="14" class="st7" width="2.2" height="4.5"/>
<rect x="97.5" y="14" class="st7" width="2.2" height="4.5"/>
<path class="st1" d="M99.5,14.5c-0.5,0-0.9,0.4-0.9,0.9v1.7c0,0.5,0.4,0.9,0.9,0.9h0.2v-3.5H99.5z"/>
<path class="st1" d="M103.5,18c0.5,0,0.9-0.4,0.9-0.9v-1.7c0-0.5-0.4-0.9-0.9-0.9h-0.2V18H103.5z"/>
<rect x="99.8" y="14.5" class="st9" width="3.5" height="3.5"/>
<rect x="99.8" y="14.5" class="st10" width="3.5" height="3.5"/>
<rect x="99.8" y="14.5" class="st11" width="3.5" height="3.5"/>
<rect x="91.1" y="10.4" class="st7" width="2.3" height="1.6"/>
<rect x="91.1" y="14.5" class="st7" width="2.3" height="1.6"/>
<path class="st1" d="M91.4,14.7c0,0.3,0.2,0.6,0.4,0.6h0.9c0.2,0,0.4-0.3,0.4-0.6v-0.2h-1.7L91.4,14.7z"/>
<path class="st1" d="M93.1,11.8c0-0.3-0.2-0.6-0.4-0.6h-0.9c-0.2,0-0.4,0.3-0.4,0.6V12h1.7V11.8z"/>
<rect x="91.4" y="12" class="st9" width="1.7" height="2.5"/>
<rect x="91.4" y="12" class="st10" width="1.7" height="2.5"/>
<rect x="91.4" y="12" class="st11" width="1.7" height="2.5"/>
<rect x="87.1" y="10.4" class="st7" width="2.3" height="1.6"/>
<rect x="87.1" y="14.5" class="st7" width="2.3" height="1.6"/>
<path class="st1" d="M87.3,14.7c0,0.3,0.2,0.6,0.4,0.6h0.9c0.2,0,0.4-0.3,0.4-0.6v-0.2h-1.7V14.7z"/>
<path class="st1" d="M89.1,11.8c0-0.3-0.2-0.6-0.4-0.6h-0.9c-0.2,0-0.4,0.3-0.4,0.6V12h1.7V11.8z"/>
<rect x="87.3" y="12" class="st9" width="1.7" height="2.5"/>
<rect x="87.3" y="12" class="st10" width="1.7" height="2.5"/>
<rect x="87.3" y="12" class="st11" width="1.7" height="2.5"/>
<rect x="69" y="11.9" class="st7" width="2.3" height="1.6"/>
<rect x="69" y="16" class="st7" width="2.3" height="1.6"/>
<path class="st1" d="M69.2,16.1c0,0.3,0.2,0.6,0.4,0.6h0.9c0.2,0,0.4-0.3,0.4-0.6V16h-1.7V16.1z"/>
<path class="st1" d="M71,13.3c0-0.3-0.2-0.6-0.4-0.6h-0.9c-0.2,0-0.4,0.3-0.4,0.6v0.2H71V13.3z"/>
<rect x="69.2" y="13.5" class="st9" width="1.7" height="2.5"/>
<rect x="69.2" y="13.5" class="st10" width="1.7" height="2.5"/>
<rect x="69.2" y="13.5" class="st11" width="1.7" height="2.5"/>
<rect x="101" y="23.5" class="st9" width="7.9" height="4.2"/>
<rect x="101" y="23.5" class="st10" width="7.9" height="4.2"/>
<rect x="101" y="23.5" class="st11" width="7.9" height="4.2"/>
<rect x="105.9" y="22.2" class="st7" width="2.3" height="1.9"/>
<rect x="102.3" y="22.2" class="st7" width="1.1" height="1.9"/>
<rect x="106.5" y="26.6" class="st7" width="1.1" height="2.2"/>
<rect x="102.3" y="26.6" class="st7" width="1.1" height="2.2"/>
<rect x="104.8" y="38.3" class="st9" width="4.3" height="2.8"/>
<rect x="104.8" y="38.3" class="st10" width="4.3" height="2.8"/>
<rect x="104.8" y="38.3" class="st11" width="4.3" height="2.8"/>
<rect x="106.6" y="36.7" class="st7" width="0.7" height="2"/>
<rect x="108" y="40.3" class="st7" width="0.7" height="2"/>
<rect x="105.2" y="40.3" class="st7" width="0.7" height="2"/>
<rect x="69.6" y="8.4" class="st1" width="4.2" height="2.1"/>
<rect x="73.5" y="8.4" class="st7" width="0.2" height="2.1"/>
<rect x="69.6" y="8.4" class="st7" width="0.2" height="2.1"/>
<rect x="8" y="8.7" class="st1" width="3" height="1.5"/>
<rect x="10.9" y="8.7" class="st7" width="0.2" height="1.5"/>
<rect x="8" y="8.7" class="st7" width="0.2" height="1.5"/>
<rect x="107.1" y="16.1" class="st1" width="1.5" height="2.9"/>
<rect x="107.1" y="18.9" class="st7" width="1.5" height="0.2"/>
<rect x="107.1" y="16.1" class="st7" width="1.5" height="0.2"/>
<rect x="76.5" y="8.3" class="st1" width="2.7" height="1.4"/>
<rect x="79" y="8.3" class="st7" width="0.1" height="1.4"/>
<rect x="76.5" y="8.3" class="st7" width="0.1" height="1.4"/>
<rect x="81.1" y="17.3" class="st1" width="2.7" height="1.4"/>
<rect x="83.7" y="17.3" class="st7" width="0.1" height="1.4"/>
<rect x="81.1" y="17.3" class="st7" width="0.1" height="1.4"/>
<rect x="81.1" y="19.8" class="st1" width="2.7" height="1.4"/>
<rect x="83.7" y="19.8" class="st7" width="0.1" height="1.4"/>
<rect x="81.1" y="19.8" class="st7" width="0.1" height="1.4"/>
<rect x="45.8" y="17" transform="matrix(1 -1.599941e-03 1.599941e-03 1 -2.755501e-02 7.389034e-02)" class="st12" width="0.7" height="0.6"/>
<rect x="44.5" y="17" transform="matrix(1 -1.599941e-03 1.599941e-03 1 -2.755673e-02 7.173475e-02)" class="st12" width="0.7" height="0.6"/>
<rect x="43.1" y="17" transform="matrix(1 -1.599941e-03 1.599941e-03 1 -2.755844e-02 6.957915e-02)" class="st12" width="0.7" height="0.6"/>
<rect x="41.8" y="17" transform="matrix(1 -1.599941e-03 1.599941e-03 1 -2.756018e-02 6.742357e-02)" class="st12" width="0.7" height="0.6"/>
<rect x="45.8" y="8" transform="matrix(1 -1.599941e-03 1.599941e-03 1 -1.319844e-02 7.387887e-02)" class="st12" width="0.7" height="0.6"/>
<rect x="44.5" y="8" transform="matrix(1 -1.599941e-03 1.599941e-03 1 -1.320017e-02 7.172327e-02)" class="st12" width="0.7" height="0.6"/>
<rect x="43.1" y="8" transform="matrix(1 -1.599941e-03 1.599941e-03 1 -1.320188e-02 6.956767e-02)" class="st12" width="0.7" height="0.6"/>
<rect x="41.8" y="8" transform="matrix(1 -1.599941e-03 1.599941e-03 1 -1.320362e-02 6.741208e-02)" class="st12" width="0.7" height="0.6"/>
<polygon class="st7" points="41.3,17 42,17 42,17 47,17 47,16.2 47,16.2 47,8.6 46.3,8.6 46.3,8.6 42,8.6 42,8.6 41.3,8.6 "/>
<path class="st7" d="M106.3,32.4L106.3,32.4l1,0v0c0.3,0,0.5-0.2,0.5-0.5c0-0.3-0.2-0.5-0.5-0.5v0h-1c-0.3,0-0.5,0.2-0.5,0.5
	C105.8,32.1,106,32.4,106.3,32.4L106.3,32.4z"/>
<rect x="106.4" y="31.4" class="st1" width="0.7" height="1"/>
<rect x="106.4" y="31.4" class="st1" width="0.7" height="1"/>
<rect x="106.4" y="31.4" class="st1" width="0.7" height="1"/>
<rect x="106.4" y="31.4" class="st1" width="0.7" height="1"/>
<path class="st7" d="M111.2,10.4L111.2,10.4l1,0v0c0.3,0,0.5-0.2,0.5-0.5c0-0.3-0.2-0.5-0.5-0.5v0h-1c-0.3,0-0.5,0.2-0.5,0.5
	C110.7,10.2,111,10.4,111.2,10.4C111.2,10.4,111.2,10.4,111.2,10.4L111.2,10.4z"/>
<rect x="111.4" y="9.4" class="st1" width="0.7" height="1"/>
<rect x="111.4" y="9.4" class="st1" width="0.7" height="1"/>
<rect x="111.4" y="9.4" class="st1" width="0.7" height="1"/>
<rect x="111.4" y="9.4" class="st1" width="0.7" height="1"/>
<path class="st7" d="M84.6,9.4L84.6,9.4l1,0v0c0.3,0,0.5-0.2,0.5-0.5c0-0.3-0.2-0.5-0.5-0.5v0h-1c-0.3,0-0.5,0.2-0.5,0.5
	S84.4,9.4,84.6,9.4C84.6,9.4,84.6,9.4,84.6,9.4L84.6,9.4z"/>
<rect x="84.8" y="8.4" class="st1" width="0.7" height="1"/>
<rect x="84.8" y="8.4" class="st1" width="0.7" height="1"/>
<rect x="84.8" y="8.4" class="st1" width="0.7" height="1"/>
<rect x="84.8" y="8.4" class="st1" width="0.7" height="1"/>
<path class="st7" d="M72.6,21.5L72.6,21.5l1,0v0c0.3,0,0.5-0.2,0.5-0.5c0-0.3-0.2-0.5-0.5-0.5v0h-1c-0.3,0-0.5,0.2-0.5,0.5
	C72.1,21.3,72.4,21.5,72.6,21.5C72.6,21.5,72.6,21.5,72.6,21.5L72.6,21.5z"/>
<rect x="72.8" y="20.5" class="st1" width="0.7" height="1"/>
<rect x="72.8" y="20.5" class="st1" width="0.7" height="1"/>
<rect x="72.8" y="20.5" class="st1" width="0.7" height="1"/>
<rect x="72.8" y="20.5" class="st1" width="0.7" height="1"/>
<path class="st7" d="M81.4,9.4L81.4,9.4l1,0v0c0.3,0,0.5-0.2,0.5-0.5c0-0.3-0.2-0.5-0.5-0.5v0h-1c-0.3,0-0.5,0.2-0.5,0.5
	S81.1,9.4,81.4,9.4C81.4,9.4,81.4,9.4,81.4,9.4L81.4,9.4z"/>
<rect x="81.6" y="8.4" class="st1" width="0.7" height="1"/>
<rect x="81.6" y="8.4" class="st1" width="0.7" height="1"/>
<rect x="81.6" y="8.4" class="st1" width="0.7" height="1"/>
<rect x="81.6" y="8.4" class="st1" width="0.7" height="1"/>
<path class="st7" d="M106.3,34.1L106.3,34.1l1,0v0c0.3,0,0.5-0.2,0.5-0.5c0-0.3-0.2-0.5-0.5-0.5v0h-1c-0.3,0-0.5,0.2-0.5,0.5
	C105.8,33.9,106,34.1,106.3,34.1L106.3,34.1z"/>
<rect x="106.4" y="33.1" class="st1" width="0.7" height="1"/>
<rect x="106.4" y="33.1" class="st1" width="0.7" height="1"/>
<rect x="106.4" y="33.1" class="st1" width="0.7" height="1"/>
<rect x="106.4" y="33.1" class="st1" width="0.7" height="1"/>
<path class="st7" d="M97.7,32.1L97.7,32.1l1,0v0c0.3,0,0.5-0.2,0.5-0.5c0-0.3-0.2-0.5-0.5-0.5v0h-1c-0.3,0-0.5,0.2-0.5,0.5
	C97.2,31.9,97.5,32.1,97.7,32.1C97.7,32.1,97.7,32.1,97.7,32.1L97.7,32.1z"/>
<rect x="97.9" y="31.2" class="st1" width="0.7" height="1"/>
<rect x="97.9" y="31.2" class="st1" width="0.7" height="1"/>
<rect x="97.9" y="31.2" class="st1" width="0.7" height="1"/>
<rect x="97.9" y="31.2" class="st1" width="0.7" height="1"/>
<path class="st7" d="M101.2,38.9L101.2,38.9l0-1h0c0-0.3-0.2-0.5-0.5-0.5c-0.3,0-0.5,0.2-0.5,0.5h0v1c0,0.3,0.2,0.5,0.5,0.5
	C101,39.4,101.2,39.2,101.2,38.9C101.2,38.9,101.2,38.9,101.2,38.9L101.2,38.9z"/>
<rect x="100.2" y="38" class="st1" width="1" height="0.7"/>
<rect x="100.2" y="38" class="st1" width="1" height="0.7"/>
<rect x="100.2" y="38" class="st1" width="1" height="0.7"/>
<rect x="100.2" y="38" class="st1" width="1" height="0.7"/>
<path class="st7" d="M103.3,40.3L103.3,40.3l0-1h0c0-0.3-0.2-0.5-0.5-0.5c-0.3,0-0.5,0.2-0.5,0.5h0v1c0,0.3,0.2,0.5,0.5,0.5
	S103.3,40.5,103.3,40.3C103.3,40.3,103.3,40.3,103.3,40.3L103.3,40.3z"/>
<rect x="102.3" y="39.4" class="st1" width="1" height="0.7"/>
<rect x="102.3" y="39.4" class="st1" width="1" height="0.7"/>
<rect x="102.3" y="39.4" class="st1" width="1" height="0.7"/>
<rect x="102.3" y="39.4" class="st1" width="1" height="0.7"/>
<path class="st7" d="M99.6,28.6L99.6,28.6l0-1h0c0-0.3-0.2-0.5-0.5-0.5c-0.3,0-0.5,0.2-0.5,0.5h0v1c0,0.3,0.2,0.5,0.5,0.5
	S99.6,28.9,99.6,28.6C99.6,28.6,99.6,28.6,99.6,28.6L99.6,28.6z"/>
<rect x="98.6" y="27.7" class="st1" width="1" height="0.7"/>
<rect x="98.6" y="27.7" class="st1" width="1" height="0.7"/>
<rect x="98.6" y="27.7" class="st1" width="1" height="0.7"/>
<rect x="98.6" y="27.7" class="st1" width="1" height="0.7"/>
<path class="st7" d="M99.6,24.5L99.6,24.5l0-1h0c0-0.3-0.2-0.5-0.5-0.5c-0.3,0-0.5,0.2-0.5,0.5h0v1c0,0.3,0.2,0.5,0.5,0.5
	S99.6,24.7,99.6,24.5C99.6,24.5,99.6,24.5,99.6,24.5L99.6,24.5z"/>
<rect x="98.6" y="23.6" class="st1" width="1" height="0.7"/>
<rect x="98.6" y="23.6" class="st1" width="1" height="0.7"/>
<rect x="98.6" y="23.6" class="st1" width="1" height="0.7"/>
<rect x="98.6" y="23.6" class="st1" width="1" height="0.7"/>
<path class="st7" d="M79.5,12.1L79.5,12.1l0-1h0c0-0.3-0.2-0.5-0.5-0.5c-0.3,0-0.5,0.2-0.5,0.5h0v1c0,0.3,0.2,0.5,0.5,0.5
	C79.3,12.6,79.5,12.4,79.5,12.1L79.5,12.1z"/>
<rect x="78.5" y="11.2" class="st1" width="1" height="0.7"/>
<rect x="78.5" y="11.2" class="st1" width="1" height="0.7"/>
<rect x="78.5" y="11.2" class="st1" width="1" height="0.7"/>
<rect x="78.5" y="11.2" class="st1" width="1" height="0.7"/>
<path class="st7" d="M79.5,15.2L79.5,15.2l0-1h0c0-0.3-0.2-0.5-0.5-0.5c-0.3,0-0.5,0.2-0.5,0.5h0v1c0,0.3,0.2,0.5,0.5,0.5
	C79.3,15.7,79.5,15.5,79.5,15.2L79.5,15.2z"/>
<rect x="78.5" y="14.3" class="st1" width="1" height="0.7"/>
<rect x="78.5" y="14.3" class="st1" width="1" height="0.7"/>
<rect x="78.5" y="14.3" class="st1" width="1" height="0.7"/>
<rect x="78.5" y="14.3" class="st1" width="1" height="0.7"/>
<path class="st7" d="M68,15.9L68,15.9l0-1h0c0-0.3-0.2-0.5-0.5-0.5c-0.3,0-0.5,0.2-0.5,0.5h0v1c0,0.3,0.2,0.5,0.5,0.5
	C67.8,16.4,68,16.1,68,15.9L68,15.9z"/>
<rect x="67" y="15" class="st1" width="1" height="0.7"/>
<rect x="67" y="15" class="st1" width="1" height="0.7"/>
<rect x="67" y="15" class="st1" width="1" height="0.7"/>
<rect x="67" y="15" class="st1" width="1" height="0.7"/>
<path class="st7" d="M66.6,15.9L66.6,15.9l0-1h0c0-0.3-0.2-0.5-0.5-0.5c-0.3,0-0.5,0.2-0.5,0.5h0v1c0,0.3,0.2,0.5,0.5,0.5
	S66.6,16.1,66.6,15.9C66.6,15.9,66.6,15.9,66.6,15.9L66.6,15.9z"/>
<rect x="65.6" y="15" class="st1" width="1" height="0.7"/>
<rect x="65.6" y="15" class="st1" width="1" height="0.7"/>
<rect x="65.6" y="15" class="st1" width="1" height="0.7"/>
<rect x="65.6" y="15" class="st1" width="1" height="0.7"/>
<path class="st7" d="M65.1,15.9L65.1,15.9l0-1h0c0-0.3-0.2-0.5-0.5-0.5c-0.3,0-0.5,0.2-0.5,0.5h0v1c0,0.3,0.2,0.5,0.5,0.5
	C64.9,16.4,65.1,16.1,65.1,15.9L65.1,15.9z"/>
<rect x="64.1" y="15" class="st1" width="1" height="0.7"/>
<rect x="64.1" y="15" class="st1" width="1" height="0.7"/>
<rect x="64.1" y="15" class="st1" width="1" height="0.7"/>
<rect x="64.1" y="15" class="st1" width="1" height="0.7"/>
<path class="st7" d="M60.1,42.2L60.1,42.2l0-1h0c0-0.3-0.2-0.5-0.5-0.5c-0.3,0-0.5,0.2-0.5,0.5h0v1c0,0.3,0.2,0.5,0.5,0.5
	C59.9,42.7,60.1,42.5,60.1,42.2L60.1,42.2z"/>
<rect x="59.1" y="41.4" class="st1" width="1" height="0.7"/>
<rect x="59.1" y="41.4" class="st1" width="1" height="0.7"/>
<rect x="59.1" y="41.4" class="st1" width="1" height="0.7"/>
<rect x="59.1" y="41.4" class="st1" width="1" height="0.7"/>
<path class="st7" d="M70.7,42.2L70.7,42.2l0-1h0c0-0.3-0.2-0.5-0.5-0.5c-0.3,0-0.5,0.2-0.5,0.5h0v1c0,0.3,0.2,0.5,0.5,0.5
	C70.4,42.7,70.7,42.5,70.7,42.2L70.7,42.2z"/>
<rect x="69.7" y="41.4" class="st1" width="1" height="0.7"/>
<rect x="69.7" y="41.4" class="st1" width="1" height="0.7"/>
<rect x="69.7" y="41.4" class="st1" width="1" height="0.7"/>
<rect x="69.7" y="41.4" class="st1" width="1" height="0.7"/>
<path class="st7" d="M70.7,36.5L70.7,36.5l0-1h0c0-0.3-0.2-0.5-0.5-0.5c-0.3,0-0.5,0.2-0.5,0.5h0v1c0,0.3,0.2,0.5,0.5,0.5
	C70.4,37,70.7,36.8,70.7,36.5L70.7,36.5z"/>
<rect x="69.7" y="35.7" class="st1" width="1" height="0.7"/>
<rect x="69.7" y="35.7" class="st1" width="1" height="0.7"/>
<rect x="69.7" y="35.7" class="st1" width="1" height="0.7"/>
<rect x="69.7" y="35.7" class="st1" width="1" height="0.7"/>
<path class="st7" d="M58.6,42.2L58.6,42.2l0-1h0c0-0.3-0.2-0.5-0.5-0.5c-0.3,0-0.5,0.2-0.5,0.5h0v1c0,0.3,0.2,0.5,0.5,0.5
	C58.4,42.7,58.6,42.5,58.6,42.2L58.6,42.2z"/>
<rect x="57.6" y="41.4" class="st1" width="1" height="0.7"/>
<rect x="57.6" y="41.4" class="st1" width="1" height="0.7"/>
<rect x="57.6" y="41.4" class="st1" width="1" height="0.7"/>
<rect x="57.6" y="41.4" class="st1" width="1" height="0.7"/>
<path class="st7" d="M57.2,42.2L57.2,42.2l0-1h0c0-0.3-0.2-0.5-0.5-0.5c-0.3,0-0.5,0.2-0.5,0.5h0v1c0,0.3,0.2,0.5,0.5,0.5
	C56.9,42.7,57.2,42.5,57.2,42.2L57.2,42.2z"/>
<rect x="56.2" y="41.4" class="st1" width="1" height="0.7"/>
<rect x="56.2" y="41.4" class="st1" width="1" height="0.7"/>
<rect x="56.2" y="41.4" class="st1" width="1" height="0.7"/>
<rect x="56.2" y="41.4" class="st1" width="1" height="0.7"/>
<path class="st7" d="M45.7,20.6L45.7,20.6l0-1h0c0-0.3-0.2-0.5-0.5-0.5c-0.3,0-0.5,0.2-0.5,0.5h0v1c0,0.3,0.2,0.5,0.5,0.5
	C45.4,21.1,45.7,20.9,45.7,20.6L45.7,20.6z"/>
<rect x="44.7" y="19.7" class="st1" width="1" height="0.7"/>
<rect x="44.7" y="19.7" class="st1" width="1" height="0.7"/>
<rect x="44.7" y="19.7" class="st1" width="1" height="0.7"/>
<rect x="44.7" y="19.7" class="st1" width="1" height="0.7"/>
<path class="st7" d="M45.2,32.8L45.2,32.8l0-1h0c0-0.3-0.2-0.5-0.5-0.5c-0.3,0-0.5,0.2-0.5,0.5h0v1c0,0.3,0.2,0.5,0.5,0.5
	C44.9,33.3,45.2,33.1,45.2,32.8L45.2,32.8L45.2,32.8z"/>
<rect x="44.2" y="31.9" class="st1" width="1" height="0.7"/>
<rect x="44.2" y="31.9" class="st1" width="1" height="0.7"/>
<rect x="44.2" y="31.9" class="st1" width="1" height="0.7"/>
<rect x="44.2" y="31.9" class="st1" width="1" height="0.7"/>
<path class="st7" d="M66.1,9.4L66.1,9.4l0-1h0c0-0.3-0.2-0.5-0.5-0.5c-0.3,0-0.5,0.2-0.5,0.5h0v1c0,0.3,0.2,0.5,0.5,0.5
	C65.9,9.9,66.1,9.7,66.1,9.4L66.1,9.4z"/>
<rect x="65.1" y="8.5" class="st1" width="1" height="0.7"/>
<rect x="65.1" y="8.5" class="st1" width="1" height="0.7"/>
<rect x="65.1" y="8.5" class="st1" width="1" height="0.7"/>
<rect x="65.1" y="8.5" class="st1" width="1" height="0.7"/>
<path class="st7" d="M64.6,9.4L64.6,9.4l0-1h0c0-0.3-0.2-0.5-0.5-0.5c-0.3,0-0.5,0.2-0.5,0.5h0v1c0,0.3,0.2,0.5,0.5,0.5
	C64.4,9.9,64.6,9.7,64.6,9.4L64.6,9.4z"/>
<rect x="63.6" y="8.5" class="st1" width="1" height="0.7"/>
<rect x="63.6" y="8.5" class="st1" width="1" height="0.7"/>
<rect x="63.6" y="8.5" class="st1" width="1" height="0.7"/>
<rect x="63.6" y="8.5" class="st1" width="1" height="0.7"/>
<path class="st7" d="M65.7,13.4L65.7,13.4l1,0v0c0.3,0,0.5-0.2,0.5-0.5c0-0.3-0.2-0.5-0.5-0.5v0h-1c-0.3,0-0.5,0.2-0.5,0.5
	S65.4,13.4,65.7,13.4C65.7,13.4,65.7,13.4,65.7,13.4L65.7,13.4z"/>
<rect x="65.8" y="12.4" class="st1" width="0.7" height="1"/>
<rect x="65.8" y="12.4" class="st1" width="0.7" height="1"/>
<rect x="65.8" y="12.4" class="st1" width="0.7" height="1"/>
<rect x="65.8" y="12.4" class="st1" width="0.7" height="1"/>
<path class="st7" d="M65.7,12L65.7,12l1,0v0c0.3,0,0.5-0.2,0.5-0.5c0-0.3-0.2-0.5-0.5-0.5v0h-1c-0.3,0-0.5,0.2-0.5,0.5
	S65.4,12,65.7,12C65.7,12,65.7,12,65.7,12L65.7,12z"/>
<rect x="65.8" y="11" class="st1" width="0.7" height="1"/>
<rect x="65.8" y="11" class="st1" width="0.7" height="1"/>
<rect x="65.8" y="11" class="st1" width="0.7" height="1"/>
<rect x="65.8" y="11" class="st1" width="0.7" height="1"/>
<path class="st7" d="M60.5,15.2L60.5,15.2l1,0v0c0.3,0,0.5-0.2,0.5-0.5c0-0.3-0.2-0.5-0.5-0.5v0h-1c-0.3,0-0.5,0.2-0.5,0.5
	S60.2,15.2,60.5,15.2C60.5,15.2,60.5,15.2,60.5,15.2L60.5,15.2z"/>
<rect x="60.6" y="14.2" class="st1" width="0.7" height="1"/>
<rect x="60.6" y="14.2" class="st1" width="0.7" height="1"/>
<rect x="60.6" y="14.2" class="st1" width="0.7" height="1"/>
<rect x="60.6" y="14.2" class="st1" width="0.7" height="1"/>
<path class="st7" d="M43,37.9L43,37.9l1,0v0c0.3,0,0.5-0.2,0.5-0.5c0-0.3-0.2-0.5-0.5-0.5v0h-1c-0.3,0-0.5,0.2-0.5,0.5
	C42.5,37.7,42.7,37.9,43,37.9L43,37.9z"/>
<rect x="43.2" y="36.9" class="st1" width="0.7" height="1"/>
<rect x="43.2" y="36.9" class="st1" width="0.7" height="1"/>
<rect x="43.2" y="36.9" class="st1" width="0.7" height="1"/>
<rect x="43.2" y="36.9" class="st1" width="0.7" height="1"/>
<path class="st7" d="M60.5,13.7L60.5,13.7l1,0v0c0.3,0,0.5-0.2,0.5-0.5c0-0.3-0.2-0.5-0.5-0.5v0h-1c-0.3,0-0.5,0.2-0.5,0.5
	S60.2,13.7,60.5,13.7C60.5,13.7,60.5,13.7,60.5,13.7L60.5,13.7z"/>
<rect x="60.6" y="12.7" class="st1" width="0.7" height="1"/>
<rect x="60.6" y="12.7" class="st1" width="0.7" height="1"/>
<rect x="60.6" y="12.7" class="st1" width="0.7" height="1"/>
<rect x="60.6" y="12.7" class="st1" width="0.7" height="1"/>
<path class="st7" d="M60.5,12.3L60.5,12.3l1,0v0c0.3,0,0.5-0.2,0.5-0.5c0-0.3-0.2-0.5-0.5-0.5v0h-1c-0.3,0-0.5,0.2-0.5,0.5
	S60.2,12.3,60.5,12.3C60.5,12.3,60.5,12.3,60.5,12.3L60.5,12.3z"/>
<rect x="60.6" y="11.3" class="st1" width="0.7" height="1"/>
<rect x="60.6" y="11.3" class="st1" width="0.7" height="1"/>
<rect x="60.6" y="11.3" class="st1" width="0.7" height="1"/>
<rect x="60.6" y="11.3" class="st1" width="0.7" height="1"/>
<path class="st7" d="M38.5,10.2L38.5,10.2l1,0v0c0.3,0,0.5-0.2,0.5-0.5c0-0.3-0.2-0.5-0.5-0.5v0h-1c-0.3,0-0.5,0.2-0.5,0.5
	S38.2,10.2,38.5,10.2C38.5,10.2,38.5,10.2,38.5,10.2L38.5,10.2z"/>
<rect x="38.6" y="9.2" class="st1" width="0.7" height="1"/>
<rect x="38.6" y="9.2" class="st1" width="0.7" height="1"/>
<rect x="38.6" y="9.2" class="st1" width="0.7" height="1"/>
<rect x="38.6" y="9.2" class="st1" width="0.7" height="1"/>
<path class="st7" d="M33.8,10.2L33.8,10.2l1,0v0c0.3,0,0.5-0.2,0.5-0.5c0-0.3-0.2-0.5-0.5-0.5v0h-1c-0.3,0-0.5,0.2-0.5,0.5
	S33.5,10.2,33.8,10.2C33.8,10.2,33.8,10.2,33.8,10.2L33.8,10.2z"/>
<rect x="33.9" y="9.2" class="st1" width="0.7" height="1"/>
<rect x="33.9" y="9.2" class="st1" width="0.7" height="1"/>
<rect x="33.9" y="9.2" class="st1" width="0.7" height="1"/>
<rect x="33.9" y="9.2" class="st1" width="0.7" height="1"/>
<path class="st7" d="M29.8,10.2L29.8,10.2l1,0v0c0.3,0,0.5-0.2,0.5-0.5c0-0.3-0.2-0.5-0.5-0.5v0h-1c-0.3,0-0.5,0.2-0.5,0.5
	S29.5,10.2,29.8,10.2C29.8,10.2,29.8,10.2,29.8,10.2L29.8,10.2z"/>
<rect x="30" y="9.2" class="st1" width="0.7" height="1"/>
<rect x="30" y="9.2" class="st1" width="0.7" height="1"/>
<rect x="30" y="9.2" class="st1" width="0.7" height="1"/>
<rect x="30" y="9.2" class="st1" width="0.7" height="1"/>
<path class="st7" d="M24,10.2L24,10.2l1,0v0c0.3,0,0.5-0.2,0.5-0.5c0-0.3-0.2-0.5-0.5-0.5v0h-1c-0.3,0-0.5,0.2-0.5,0.5
	S23.7,10.2,24,10.2C24,10.2,24,10.2,24,10.2L24,10.2z"/>
<rect x="24.1" y="9.2" class="st1" width="0.7" height="1"/>
<rect x="24.1" y="9.2" class="st1" width="0.7" height="1"/>
<rect x="24.1" y="9.2" class="st1" width="0.7" height="1"/>
<rect x="24.1" y="9.2" class="st1" width="0.7" height="1"/>
<path class="st7" d="M21,10.2L21,10.2l1,0v0c0.3,0,0.5-0.2,0.5-0.5c0-0.3-0.2-0.5-0.5-0.5v0h-1c-0.3,0-0.5,0.2-0.5,0.5
	C20.5,10,20.7,10.2,21,10.2C21,10.2,21,10.2,21,10.2L21,10.2z"/>
<rect x="21.1" y="9.2" class="st1" width="0.7" height="1"/>
<rect x="21.1" y="9.2" class="st1" width="0.7" height="1"/>
<rect x="21.1" y="9.2" class="st1" width="0.7" height="1"/>
<rect x="21.1" y="9.2" class="st1" width="0.7" height="1"/>
<path class="st7" d="M17.9,10.2L17.9,10.2l1,0v0c0.3,0,0.5-0.2,0.5-0.5c0-0.3-0.2-0.5-0.5-0.5v0h-1c-0.3,0-0.5,0.2-0.5,0.5
	C17.4,10,17.7,10.2,17.9,10.2C17.9,10.2,17.9,10.2,17.9,10.2L17.9,10.2z"/>
<rect x="18.1" y="9.2" class="st1" width="0.7" height="1"/>
<rect x="18.1" y="9.2" class="st1" width="0.7" height="1"/>
<rect x="18.1" y="9.2" class="st1" width="0.7" height="1"/>
<rect x="18.1" y="9.2" class="st1" width="0.7" height="1"/>
<path class="st7" d="M14.9,10.2L14.9,10.2l1,0v0c0.3,0,0.5-0.2,0.5-0.5c0-0.3-0.2-0.5-0.5-0.5v0h-1c-0.3,0-0.5,0.2-0.5,0.5
	C14.4,10,14.6,10.2,14.9,10.2C14.9,10.2,14.9,10.2,14.9,10.2L14.9,10.2z"/>
<rect x="15" y="9.2" class="st1" width="0.7" height="1"/>
<rect x="15" y="9.2" class="st1" width="0.7" height="1"/>
<rect x="15" y="9.2" class="st1" width="0.7" height="1"/>
<rect x="15" y="9.2" class="st1" width="0.7" height="1"/>
<path class="st7" d="M21,42L21,42l1,0v0c0.3,0,0.5-0.2,0.5-0.5c0-0.3-0.2-0.5-0.5-0.5v0h-1c-0.3,0-0.5,0.2-0.5,0.5
	C20.5,41.7,20.7,42,21,42L21,42L21,42z"/>
<rect x="21.1" y="41" class="st1" width="0.7" height="1"/>
<rect x="21.1" y="41" class="st1" width="0.7" height="1"/>
<rect x="21.1" y="41" class="st1" width="0.7" height="1"/>
<rect x="21.1" y="41" class="st1" width="0.7" height="1"/>
<path class="st7" d="M29.1,42L29.1,42l1,0v0c0.3,0,0.5-0.2,0.5-0.5c0-0.3-0.2-0.5-0.5-0.5v0h-1c-0.3,0-0.5,0.2-0.5,0.5
	C28.6,41.7,28.8,42,29.1,42L29.1,42z"/>
<rect x="29.2" y="41" class="st1" width="0.7" height="1"/>
<rect x="29.2" y="41" class="st1" width="0.7" height="1"/>
<rect x="29.2" y="41" class="st1" width="0.7" height="1"/>
<rect x="29.2" y="41" class="st1" width="0.7" height="1"/>
<path class="st7" d="M35.5,42L35.5,42l1,0v0c0.3,0,0.5-0.2,0.5-0.5c0-0.3-0.2-0.5-0.5-0.5v0h-1c-0.3,0-0.5,0.2-0.5,0.5
	C35,41.7,35.2,42,35.5,42L35.5,42z"/>
<rect x="35.6" y="41" class="st1" width="0.7" height="1"/>
<rect x="35.6" y="41" class="st1" width="0.7" height="1"/>
<rect x="35.6" y="41" class="st1" width="0.7" height="1"/>
<rect x="35.6" y="41" class="st1" width="0.7" height="1"/>
<path class="st7" d="M38.9,42L38.9,42l1,0v0c0.3,0,0.5-0.2,0.5-0.5c0-0.3-0.2-0.5-0.5-0.5v0h-1c-0.3,0-0.5,0.2-0.5,0.5
	C38.4,41.7,38.7,42,38.9,42L38.9,42z"/>
<rect x="39.1" y="41" class="st1" width="0.7" height="1"/>
<rect x="39.1" y="41" class="st1" width="0.7" height="1"/>
<rect x="39.1" y="41" class="st1" width="0.7" height="1"/>
<rect x="39.1" y="41" class="st1" width="0.7" height="1"/>
<path class="st7" d="M49.9,42.3L49.9,42.3l1,0v0c0.3,0,0.5-0.2,0.5-0.5c0-0.3-0.2-0.5-0.5-0.5v0h-1c-0.3,0-0.5,0.2-0.5,0.5
	C49.4,42.1,49.6,42.3,49.9,42.3C49.9,42.3,49.9,42.3,49.9,42.3z"/>
<rect x="50" y="41.3" class="st1" width="0.7" height="1"/>
<rect x="50" y="41.3" class="st1" width="0.7" height="1"/>
<rect x="50" y="41.3" class="st1" width="0.7" height="1"/>
<rect x="50" y="41.3" class="st1" width="0.7" height="1"/>
<path class="st7" d="M83.4,42.3L83.4,42.3l1,0v0c0.3,0,0.5-0.2,0.5-0.5c0-0.3-0.2-0.5-0.5-0.5v0h-1c-0.3,0-0.5,0.2-0.5,0.5
	C82.9,42.1,83.1,42.3,83.4,42.3L83.4,42.3z"/>
<rect x="83.5" y="41.3" class="st1" width="0.7" height="1"/>
<rect x="83.5" y="41.3" class="st1" width="0.7" height="1"/>
<rect x="83.5" y="41.3" class="st1" width="0.7" height="1"/>
<rect x="83.5" y="41.3" class="st1" width="0.7" height="1"/>
<path class="st7" d="M60.5,10.8L60.5,10.8l1,0v0c0.3,0,0.5-0.2,0.5-0.5c0-0.3-0.2-0.5-0.5-0.5v0h-1c-0.3,0-0.5,0.2-0.5,0.5
	S60.2,10.8,60.5,10.8C60.5,10.8,60.5,10.8,60.5,10.8L60.5,10.8z"/>
<rect x="60.6" y="9.8" class="st1" width="0.7" height="1"/>
<rect x="60.6" y="9.8" class="st1" width="0.7" height="1"/>
<rect x="60.6" y="9.8" class="st1" width="0.7" height="1"/>
<rect x="60.6" y="9.8" class="st1" width="0.7" height="1"/>
<path class="st7" d="M108.7,9.8L108.7,9.8l0-1h0c0-0.3-0.2-0.5-0.5-0.5c-0.3,0-0.5,0.2-0.5,0.5h0v1c0,0.3,0.2,0.5,0.5,0.5
	C108.4,10.3,108.7,10.1,108.7,9.8C108.7,9.8,108.7,9.8,108.7,9.8L108.7,9.8z"/>
<rect x="107.7" y="8.9" class="st1" width="1" height="0.7"/>
<rect x="107.7" y="8.9" class="st1" width="1" height="0.7"/>
<rect x="107.7" y="8.9" class="st1" width="1" height="0.7"/>
<rect x="107.7" y="8.9" class="st1" width="1" height="0.7"/>
<path class="st7" d="M106.3,35.9L106.3,35.9l1,0v0c0.3,0,0.5-0.2,0.5-0.5c0-0.3-0.2-0.5-0.5-0.5v0h-1c-0.3,0-0.5,0.2-0.5,0.5
	C105.8,35.6,106,35.9,106.3,35.9L106.3,35.9z"/>
<rect x="106.4" y="34.9" class="st1" width="0.7" height="1"/>
<rect x="106.4" y="34.9" class="st1" width="0.7" height="1"/>
<rect x="106.4" y="34.9" class="st1" width="0.7" height="1"/>
<rect x="106.4" y="34.9" class="st1" width="0.7" height="1"/>
<path class="st7" d="M111.1,41.6L111.1,41.6l1,0v0c0.3,0,0.5-0.2,0.5-0.5c0-0.3-0.2-0.5-0.5-0.5v0h-1c-0.3,0-0.5,0.2-0.5,0.5
	C110.6,41.4,110.9,41.6,111.1,41.6C111.1,41.6,111.1,41.6,111.1,41.6z"/>
<rect x="111.3" y="40.6" class="st1" width="0.7" height="1"/>
<rect x="111.3" y="40.6" class="st1" width="0.7" height="1"/>
<rect x="111.3" y="40.6" class="st1" width="0.7" height="1"/>
<rect x="111.3" y="40.6" class="st1" width="0.7" height="1"/>
<rect x="49.5" y="8.1" class="st9" width="8.5" height="7"/>
<rect x="49.5" y="8.1" class="st10" width="8.5" height="7"/>
<rect x="49.5" y="8.1" class="st11" width="8.5" height="7"/>
<rect x="41.9" y="38.9" class="st9" width="4.5" height="3.4"/>
<rect x="41.9" y="38.9" class="st10" width="4.5" height="3.4"/>
<rect x="41.9" y="38.9" class="st11" width="4.5" height="3.4"/>
<rect x="72.8" y="13.5" class="st9" width="4.9" height="6"/>
<rect x="72.8" y="13.5" class="st10" width="4.9" height="6"/>
<rect x="72.8" y="13.5" class="st11" width="4.9" height="6"/>
<rect x="81" y="10.3" class="st9" width="4.4" height="6"/>
<rect x="81" y="10.3" class="st10" width="4.4" height="6"/>
<rect x="81" y="10.3" class="st11" width="4.4" height="6"/>
<rect x="80.3" y="15" class="st7" width="1.3" height="0.8"/>
<rect x="84.8" y="15" class="st7" width="1.3" height="0.8"/>
<rect x="80.3" y="13.6" class="st7" width="1.3" height="0.8"/>
<rect x="84.8" y="13.6" class="st7" width="1.3" height="0.8"/>
<rect x="80.3" y="12.2" class="st7" width="1.3" height="0.8"/>
<rect x="84.8" y="12.2" class="st7" width="1.3" height="0.8"/>
<rect x="80.3" y="10.8" class="st7" width="1.3" height="0.8"/>
<rect x="84.8" y="10.8" class="st7" width="1.3" height="0.8"/>
<rect x="87.7" y="33.5" class="st9" width="11.3" height="8.6"/>
<rect x="87.7" y="33.5" class="st10" width="11.3" height="8.6"/>
<rect x="87.7" y="33.5" class="st11" width="11.3" height="8.6"/>
<path class="st9" d="M91.4,37.7c0,0.1-0.1,0.3-0.3,0.3c-0.1,0-0.3-0.1-0.3-0.3c0-0.1,0.1-0.3,0.3-0.3C91.3,37.5,91.4,37.6,91.4,37.7
	 M92.2,37.7c0-0.5-0.4-1-1-1c-0.5,0-1,0.4-1,1c0,0.5,0.4,1,1,1c0,0,0,0,0,0C91.7,38.7,92.2,38.3,92.2,37.7z"/>
<rect x="104.5" y="9.9" class="st7" width="1.6" height="1.6"/>
<rect x="95.7" y="9.9" class="st7" width="1.6" height="1.6"/>
<rect x="97" y="8.4" class="st9" width="7.9" height="4.5"/>
<rect x="97" y="8.4" class="st10" width="7.9" height="4.5"/>
<rect x="97" y="8.4" class="st11" width="7.9" height="4.5"/>
<rect x="97.3" y="8.8" class="st7" width="1.9" height="3.7"/>
<polyline class="st9" points="67.7,38.8 48,38.8 48,38.8 48,19.1 67.7,19.1 67.7,19.1 67.7,38.8 67.7,38.8 "/>
<polyline class="st10" points="67.7,38.8 48,38.8 48,38.8 48,19.1 67.7,19.1 67.7,19.1 67.7,38.8 67.7,38.8 "/>
<polyline class="st11" points="67.7,38.8 48,38.8 48,38.8 48,19.1 67.7,19.1 67.7,19.1 67.7,38.8 67.7,38.8 "/>
<rect x="65" y="38.8" class="st7" width="0.6" height="0.9"/>
<rect x="63.9" y="38.8" class="st7" width="0.6" height="0.9"/>
<rect x="62.7" y="38.8" class="st7" width="0.6" height="0.9"/>
<rect x="61.6" y="38.8" class="st7" width="0.6" height="0.9"/>
<rect x="60.4" y="38.8" class="st7" width="0.6" height="0.9"/>
<rect x="59.3" y="38.8" class="st7" width="0.6" height="0.9"/>
<rect x="58.1" y="38.8" class="st7" width="0.6" height="0.9"/>
<rect x="57" y="38.8" class="st7" width="0.6" height="0.9"/>
<rect x="55.8" y="38.8" class="st7" width="0.6" height="0.9"/>
<rect x="54.7" y="38.8" class="st7" width="0.6" height="0.9"/>
<rect x="53.5" y="38.8" class="st7" width="0.6" height="0.9"/>
<rect x="52.4" y="38.8" class="st7" width="0.6" height="0.9"/>
<rect x="51.2" y="38.8" class="st7" width="0.6" height="0.9"/>
<rect x="50.1" y="38.8" class="st7" width="0.6" height="0.9"/>
<rect x="65" y="18.2" class="st7" width="0.6" height="0.9"/>
<rect x="63.9" y="18.2" class="st7" width="0.6" height="0.9"/>
<rect x="62.7" y="18.2" class="st7" width="0.6" height="0.9"/>
<rect x="61.6" y="18.2" class="st7" width="0.6" height="0.9"/>
<rect x="60.4" y="18.2" class="st7" width="0.6" height="0.9"/>
<rect x="59.3" y="18.2" class="st7" width="0.6" height="0.9"/>
<rect x="58.1" y="18.2" class="st7" width="0.6" height="0.9"/>
<rect x="57" y="18.2" class="st7" width="0.6" height="0.9"/>
<rect x="55.8" y="18.2" class="st7" width="0.6" height="0.9"/>
<rect x="54.7" y="18.2" class="st7" width="0.6" height="0.9"/>
<rect x="53.5" y="18.2" class="st7" width="0.6" height="0.9"/>
<rect x="52.4" y="18.2" class="st7" width="0.6" height="0.9"/>
<rect x="51.2" y="18.2" class="st7" width="0.6" height="0.9"/>
<rect x="50.1" y="18.2" class="st7" width="0.6" height="0.9"/>
<rect x="67.7" y="21.2" class="st7" width="0.9" height="0.6"/>
<rect x="67.7" y="22.4" class="st7" width="0.9" height="0.6"/>
<rect x="67.7" y="23.5" class="st7" width="0.9" height="0.6"/>
<rect x="67.7" y="24.7" class="st7" width="0.9" height="0.6"/>
<rect x="67.7" y="25.8" class="st7" width="0.9" height="0.6"/>
<rect x="67.7" y="27" class="st7" width="0.9" height="0.6"/>
<rect x="67.7" y="28.1" class="st7" width="0.9" height="0.6"/>
<rect x="67.7" y="29.3" class="st7" width="0.9" height="0.6"/>
<rect x="67.7" y="30.4" class="st7" width="0.9" height="0.6"/>
<rect x="67.7" y="31.6" class="st7" width="0.9" height="0.6"/>
<rect x="67.7" y="32.7" class="st7" width="0.9" height="0.6"/>
<rect x="67.7" y="33.9" class="st7" width="0.9" height="0.6"/>
<rect x="67.7" y="35" class="st7" width="0.9" height="0.6"/>
<rect x="67.7" y="36.2" class="st7" width="0.9" height="0.6"/>
<rect x="47.1" y="21.2" class="st7" width="0.9" height="0.6"/>
<rect x="47.1" y="22.4" class="st7" width="0.9" height="0.6"/>
<rect x="47.1" y="23.5" class="st7" width="0.9" height="0.6"/>
<rect x="47.1" y="24.7" class="st7" width="0.9" height="0.6"/>
<rect x="47.1" y="25.8" class="st7" width="0.9" height="0.6"/>
<rect x="47.1" y="27" class="st7" width="0.9" height="0.6"/>
<rect x="47.1" y="28.1" class="st7" width="0.9" height="0.6"/>
<rect x="47.1" y="29.3" class="st7" width="0.9" height="0.6"/>
<rect x="47.1" y="30.4" class="st7" width="0.9" height="0.6"/>
<rect x="47.1" y="31.6" class="st7" width="0.9" height="0.6"/>
<rect x="47.1" y="32.7" class="st7" width="0.9" height="0.6"/>
<rect x="47.1" y="33.9" class="st7" width="0.9" height="0.6"/>
<rect x="47.1" y="35" class="st7" width="0.9" height="0.6"/>
<rect x="47.1" y="36.2" class="st7" width="0.9" height="0.6"/>
<rect x="72" y="22.6" class="st9" width="14.7" height="17.2"/>
<rect x="72" y="22.6" class="st10" width="14.7" height="17.2"/>
<rect x="72" y="22.6" class="st11" width="14.7" height="17.2"/>
<circle class="st3" cx="75" cy="37" r="1"/>
<path class="st4" d="M101.5,35.1h1.9l0.5-0.5v-1.8l-0.5-0.5h-1.9l-0.5,0.5v1.8L101.5,35.1z"/>
<polyline class="st13" points="103.2,33.9 103.6,33.9 103.6,34.8 "/>
<path class="st13" d="M103.5,35.1c0-0.2,0.2-0.4,0.4-0.4c0,0,0,0,0,0"/>
<polyline class="st13" points="103.2,33.4 103.6,33.4 103.6,32.6 "/>
<path class="st13" d="M103.5,32.3c0,0.2,0.2,0.4,0.4,0.4c0,0,0,0,0,0"/>
<polyline class="st13" points="101.7,33.9 101.3,33.9 101.3,34.8 "/>
<path class="st13" d="M101.4,35.1c0-0.2-0.2-0.4-0.4-0.4c0,0,0,0,0,0"/>
<polyline class="st13" points="101.7,33.4 101.3,33.4 101.3,32.6 "/>
<path class="st13" d="M101.4,32.3c0,0.2-0.2,0.4-0.4,0.4c0,0,0,0,0,0"/>
<rect x="101.7" y="32.3" class="st5" width="1.4" height="2.8"/>
<path class="st7" d="M113,28.5v1c0,0.1-0.1,0.2-0.2,0.2l0,0h-2.7c-0.1,0-0.2-0.1-0.2-0.2v-1c0-0.1,0.1-0.2,0.2-0.2h2.8
	C112.9,28.3,113,28.4,113,28.5C113,28.5,113,28.5,113,28.5z"/>
<path class="st7" d="M113,26.6v1c0,0.1-0.1,0.2-0.2,0.2l0,0h-2.7c-0.1,0-0.2-0.1-0.2-0.2v-1c0-0.1,0.1-0.2,0.2-0.2h2.8
	C112.9,26.4,113,26.5,113,26.6z"/>
<path class="st7" d="M113,24.7v1c0,0.1-0.1,0.2-0.2,0.2l0,0h-2.7c-0.1,0-0.2-0.1-0.2-0.2v-1c0-0.1,0.1-0.2,0.2-0.2h2.7
	C112.9,24.5,113,24.6,113,24.7C113,24.7,113,24.7,113,24.7z"/>
<path class="st7" d="M113,22.8v1c0,0.1-0.1,0.2-0.2,0.2l0,0h-2.7c-0.1,0-0.2-0.1-0.2-0.2l0,0v-1c0-0.1,0.1-0.2,0.2-0.2h2.8
	C112.9,22.6,113,22.7,113,22.8z"/>
<path class="st7" d="M113,20.9v1c0,0.1-0.1,0.2-0.2,0.2l0,0h-2.7c-0.1,0-0.2-0.1-0.2-0.2l0,0v-1c0-0.1,0.1-0.2,0.2-0.2h2.7
	C112.9,20.7,113,20.8,113,20.9C113,20.9,113,20.9,113,20.9z"/>
<rect x="111.1" y="14.8" class="st7" width="16.3" height="21.2"/>
<polygon class="st5" points="112.7,14.8 111.1,14.8 111.1,14.8 111.1,35.9 111.1,36 112.7,36 112.7,35.9 112.7,35.9 "/>
<polygon class="st5" points="116,14.8 114.3,14.8 114.3,14.8 114.3,35.9 114.3,36 116,36 116,35.9 116,35.9 "/>
<polygon class="st5" points="119.2,14.8 117.6,14.8 117.6,14.8 117.6,35.9 117.6,36 119.2,36 119.2,35.9 119.2,35.9 "/>
<polygon class="st5" points="122.5,14.8 120.8,14.8 120.8,14.8 120.8,35.9 120.8,36 122.5,36 122.5,35.9 122.5,35.9 "/>
<polygon class="st5" points="125.7,14.8 124.1,14.8 124.1,14.8 124.1,35.9 124.1,36 125.7,36 125.7,35.9 125.7,35.9 "/>
</svg>
