<svg width="72" height="17" viewBox="0 0 72 17" fill="none" xmlns="http://www.w3.org/2000/svg">
<path d="M69 8.07001H3" stroke="#95A5A6" stroke-width="5" stroke-miterlimit="10" stroke-linecap="round"/>
<path d="M45.7701 15.48C46.5801 15.85 47.97 16.15 48.86 16.15H53.7C55.32 16.15 56.9301 14.54 56.9301 12.92V3.22998C56.9301 1.61998 55.32 0 53.7 0H48.86C47.97 0 46.5801 0.299983 45.7701 0.669983L45.6 0.75C44.79 1.12 43.4001 1.41998 42.5201 1.41998H29.35C28.46 1.41998 27.08 1.12 26.26 0.75L26.0901 0.669983C25.2801 0.299983 23.9 0 23 0H18.16C16.54 0 14.9301 1.61998 14.9301 3.22998V12.92C14.9301 14.54 16.54 16.15 18.16 16.15H23C23.89 16.15 25.2801 15.85 26.0901 15.48L26.26 15.4C27.07 15.03 28.46 14.73 29.35 14.73H42.5201C43.4101 14.73 44.8 15.03 45.6 15.4L45.7701 15.48Z" fill="#E8D4AC"/>
<path d="M48.5601 16.14C48.0101 16.14 47.2401 15.94 47.2401 15.94V0.209961C47.2401 0.209961 48.0301 0.0299683 48.3901 0.0299683C48.7501 0.0299683 52.0901 0.0100098 52.0901 0.0100098V16.16C52.0801 16.15 49.1101 16.14 48.5601 16.14Z" fill="#ED1C24"/>
<path d="M42.5 14.74C41.83 14.74 39.16 14.74 39.16 14.74V1.41998C39.16 1.41998 42.0201 1.41998 42.5301 1.41998C43.0401 1.41998 44.01 1.23999 44.01 1.23999V14.92C44.01 14.92 43.17 14.74 42.5 14.74Z" fill="#ED1C24"/>
<path d="M35.9301 1.40991H31.0901V14.7299H35.9301V1.40991Z" fill="#732115"/>
<path d="M21.9301 0H20.0701V16.15H21.9301V0Z" fill="#BEA95D"/>
</svg>
