<svg xmlns="http://www.w3.org/2000/svg" width="72" height="17" fill="none" viewBox="0 0 72 17"><path stroke="#95a5a6" stroke-linecap="round" stroke-miterlimit="10" stroke-width="5" d="M69 8.07H3"/><path fill="#e8d4ac" d="M45.77 15.48c.81.37 2.2.67 3.09.67h4.84c1.62 0 3.23-1.61 3.23-3.23V3.23C56.93 1.62 55.32 0 53.7 0h-4.84c-.89 0-2.28.3-3.09.67l-.17.08c-.81.37-2.2.67-3.08.67H29.35c-.89 0-2.27-.3-3.09-.67l-.17-.08C25.28.3 23.9 0 23 0h-4.84c-1.62 0-3.23 1.62-3.23 3.23v9.69c0 1.62 1.61 3.23 3.23 3.23H23c.89 0 2.28-.3 3.09-.67l.17-.08c.81-.37 2.2-.67 3.09-.67h13.17c.89 0 2.28.3 3.08.67z"/><path fill="#ed1c24" d="M48.56 16.14c-.55 0-1.32-.2-1.32-.2V.21s.79-.18 1.15-.18 3.7-.02 3.7-.02v16.15c-.01-.01-2.98-.02-3.53-.02M42.5 14.74h-3.34V1.42h3.37c.51 0 1.48-.18 1.48-.18v13.68s-.84-.18-1.51-.18"/><path fill="#732115" d="M35.93 1.41h-4.84v13.32h4.84z"/><path fill="#bea95d" d="M21.93 0h-1.86v16.15h1.86z"/></svg>