<svg width="1060" height="496" viewBox="0 0 1060 496" fill="none" xmlns="http://www.w3.org/2000/svg">
<g clip-path="url(#clip0)">
<rect width="1060" height="496" fill="white"/>
<path d="M3.05176e-05 99.651L791.411 99.651" stroke="black" stroke-width="1.5"/>
<path d="M790.583 138.573L424.854 138.573C422.093 138.573 419.854 140.811 419.854 143.573L419.854 253.682M-62.9375 446.083L414.854 446.083C417.615 446.083 419.854 443.845 419.854 441.083L419.854 274.937" stroke="black" stroke-width="1.5" stroke-linecap="round"/>
<path d="M791.411 179.979L605.302 179.979C602.541 179.979 600.302 182.218 600.302 184.979L600.302 259.448C600.302 262.209 598.064 264.448 595.302 264.448L308.094 264.448C305.332 264.448 303.094 262.209 303.094 259.448L303.094 167.833" stroke="black" stroke-width="1.5"/>
<line x1="279.552" y1="168.188" x2="327.74" y2="168.188" stroke="black" stroke-width="1.5" stroke-linecap="round"/>
<path d="M279.906 157.896H303.399M327.385 157.896H303.399M303.399 99.375V157.896" stroke="black" stroke-width="1.5" stroke-linecap="round"/>
<circle cx="303.5" cy="99.5" r="4.5" fill="black"/>
<circle cx="514.5" cy="264.5" r="4.5" fill="black"/>
<rect x="791.333" y="78.0417" width="80.7604" height="122.167" rx="4.25" fill="white"/>
<path d="M828.647 133.885V141.516C828.647 141.793 828.602 142.057 828.511 142.309C828.426 142.555 828.305 142.769 828.149 142.95C827.988 143.131 827.794 143.275 827.568 143.38C827.341 143.486 827.087 143.539 826.806 143.539C826.499 143.539 826.229 143.494 825.998 143.403C825.766 143.313 825.573 143.177 825.417 142.996C825.281 142.84 825.175 142.651 825.1 142.429C825.024 142.203 824.984 141.949 824.979 141.667H823.152C823.172 142.211 823.273 142.691 823.454 143.109C823.64 143.526 823.892 143.876 824.209 144.158C824.526 144.44 824.903 144.656 825.341 144.807C825.784 144.953 826.272 145.026 826.806 145.026C827.324 145.026 827.804 144.94 828.247 144.769C828.695 144.598 829.083 144.357 829.41 144.045C829.742 143.733 830.001 143.363 830.187 142.935C830.378 142.502 830.476 142.029 830.481 141.516V133.885H828.647ZM838.894 140.958V133.885H837.037L832.289 141.312L832.334 142.422H837.09V144.875H838.894V142.422H840.275V140.958H838.894ZM834.131 140.958L836.878 136.693L837.09 136.3V140.958H834.131Z" fill="black"/>
<rect x="791.333" y="78.0417" width="80.7604" height="122.167" rx="4.25" stroke="#C11F09" stroke-width="1.5"/>
<rect x="41.4063" y="49.6875" width="141.885" height="34.7812" rx="17.3906" fill="#7F8C8D"/>
<path d="M68.3051 68.639H70.1695C70.723 68.639 71.2312 68.5585 71.6942 68.3974C72.1622 68.2364 72.5647 68.0075 72.9019 67.7106C73.239 67.4187 73.5007 67.069 73.6869 66.6614C73.873 66.2488 73.9661 65.7883 73.9661 65.2801C73.9661 64.7517 73.873 64.2762 73.6869 63.8535C73.5007 63.4308 73.239 63.0711 72.9019 62.7742C72.5647 62.4773 72.1622 62.2483 71.6942 62.0873C71.2312 61.9263 70.723 61.8432 70.1695 61.8382H66.4936V72.8281H68.3051V68.639ZM68.3051 67.1596V63.3176H70.1695C70.4764 63.3227 70.7507 63.373 70.9922 63.4686C71.2388 63.5642 71.4476 63.7001 71.6187 63.8762C71.7898 64.0523 71.9181 64.2611 72.0037 64.5027C72.0942 64.7392 72.1395 65.0034 72.1395 65.2952C72.1395 65.5619 72.0942 65.8085 72.0037 66.0349C71.9181 66.2614 71.7898 66.4576 71.6187 66.6237C71.4476 66.7897 71.2388 66.9205 70.9922 67.0162C70.7507 67.1067 70.4764 67.1545 70.1695 67.1596H68.3051ZM77.9476 61.8382H75.6983V72.8281H77.3966V69.0994L77.2984 64.3743L78.8307 69.4391H79.7742L81.4649 64.1932L81.3593 69.0994V72.8281H83.0651V61.8382H80.8083L79.3062 66.5406L77.9476 61.8382ZM85.5067 61.8382V63.3403H87.8013V71.3336H85.5067V72.8281H91.9829V71.3336H89.6355V63.3403H91.9829V61.8382H85.5067ZM102.093 69.4466H100.274C100.244 69.7787 100.179 70.0731 100.078 70.3297C99.9774 70.5864 99.8441 70.8002 99.678 70.9713C99.5069 71.1474 99.3006 71.2808 99.0591 71.3714C98.8175 71.4619 98.5408 71.5072 98.2288 71.5072C97.9671 71.5072 97.7331 71.472 97.5268 71.4016C97.3255 71.3261 97.1469 71.2179 96.9909 71.077C96.8399 70.9462 96.7091 70.7902 96.5984 70.609C96.4927 70.4279 96.4047 70.2266 96.3342 70.0052C96.2437 69.7385 96.1757 69.4441 96.1304 69.1221C96.0902 68.8 96.07 68.4553 96.07 68.088V66.5708C96.07 66.2739 96.0851 65.9846 96.1153 65.7028C96.1506 65.416 96.2009 65.1468 96.2663 64.8952C96.3518 64.6083 96.46 64.3492 96.5909 64.1177C96.7267 63.8812 96.8953 63.69 97.0966 63.5441C97.2425 63.4233 97.4086 63.3302 97.5947 63.2648C97.786 63.1994 97.9998 63.1667 98.2363 63.1667C98.5735 63.1667 98.8628 63.217 99.1043 63.3176C99.3459 63.4132 99.5497 63.5541 99.7157 63.7403C99.8768 63.9265 100.003 64.1529 100.093 64.4196C100.189 64.6813 100.252 64.9757 100.282 65.3028H102.093C102.038 64.7543 101.915 64.2561 101.724 63.8082C101.537 63.3604 101.281 62.978 100.954 62.6609C100.632 62.349 100.242 62.1074 99.7837 61.9363C99.3308 61.7653 98.815 61.6797 98.2363 61.6797C97.8086 61.6797 97.4136 61.7376 97.0513 61.8533C96.694 61.969 96.3669 62.1301 96.07 62.3364C95.7581 62.5628 95.4813 62.8371 95.2398 63.1591C95.0033 63.4761 94.8095 63.8309 94.6586 64.2234C94.5177 64.5756 94.412 64.9505 94.3416 65.348C94.2711 65.7456 94.2359 66.1582 94.2359 66.5859V68.088C94.2359 68.5358 94.2711 68.9661 94.3416 69.3787C94.417 69.7913 94.5277 70.1737 94.6737 70.526C94.8196 70.8833 94.9982 71.2128 95.2096 71.5148C95.4259 71.8117 95.6775 72.0658 95.9644 72.2771C96.2613 72.5036 96.5984 72.6797 96.9758 72.8055C97.3582 72.9262 97.7759 72.9866 98.2288 72.9866C98.7823 72.9866 99.2855 72.9036 99.7384 72.7375C100.196 72.5665 100.591 72.3249 100.923 72.0129C101.25 71.706 101.515 71.3361 101.716 70.9034C101.917 70.4656 102.043 69.98 102.093 69.4466ZM116.17 72.8281H117.936L121.318 61.8382H119.34L117.234 69.4391L117.046 70.1033L116.865 69.4466L114.774 61.8382H112.789L116.17 72.8281ZM122.974 72.8281H126.779C127.322 72.8281 127.825 72.7602 128.288 72.6243C128.756 72.4834 129.159 72.2771 129.496 72.0054C129.833 71.7387 130.097 71.4066 130.289 71.0091C130.48 70.6115 130.573 70.1511 130.568 69.6278C130.568 69.3309 130.525 69.0491 130.439 68.7824C130.359 68.5107 130.238 68.2641 130.077 68.0427C129.921 67.8364 129.727 67.6527 129.496 67.4917C129.265 67.3256 128.985 67.1998 128.658 67.1143V67.0992C128.88 67.0086 129.073 66.908 129.239 66.7973C129.41 66.6815 129.564 66.5482 129.7 66.3972C129.891 66.1909 130.037 65.9544 130.138 65.6877C130.243 65.416 130.299 65.1241 130.304 64.8121C130.304 64.2989 130.205 63.8561 130.009 63.4837C129.818 63.1063 129.551 62.7968 129.209 62.5553C128.867 62.3137 128.462 62.1351 127.994 62.0194C127.526 61.8986 127.025 61.8382 126.492 61.8382H122.974V72.8281ZM124.801 67.8615H126.884C127.181 67.8666 127.445 67.9119 127.677 67.9974C127.908 68.0779 128.105 68.1936 128.266 68.3446C128.427 68.4956 128.547 68.6792 128.628 68.8956C128.708 69.107 128.749 69.351 128.749 69.6278C128.749 69.8894 128.698 70.1285 128.598 70.3448C128.502 70.5562 128.364 70.7348 128.183 70.8807C128.017 71.0216 127.815 71.1323 127.579 71.2128C127.342 71.2934 127.081 71.3336 126.794 71.3336H124.801V67.8615ZM124.801 66.4802V63.3403H126.515C126.826 63.3453 127.111 63.383 127.367 63.4535C127.624 63.5189 127.838 63.6271 128.009 63.7781C128.16 63.8988 128.276 64.0548 128.356 64.246C128.442 64.4322 128.485 64.6536 128.485 64.9103C128.485 65.1518 128.439 65.3657 128.349 65.5518C128.258 65.738 128.135 65.8965 127.979 66.0274C127.808 66.1733 127.596 66.284 127.345 66.3595C127.098 66.435 126.826 66.4752 126.53 66.4802H124.801ZM137.765 70.2995L138.504 72.8281H140.384L136.866 61.8382H135.259L131.681 72.8281H133.568L134.315 70.2995H137.765ZM134.776 68.7446L136.059 64.397L137.319 68.7446H134.776ZM149.664 63.3403V61.8382H141.105V63.3403H144.471V72.8281H146.275V63.3403H149.664ZM159.103 63.3403V61.8382H150.543V63.3403H153.91V72.8281H155.714V63.3403H159.103Z" fill="white"/>
<rect x="693.417" y="220.281" width="277.146" height="34.7812" rx="17.3906" fill="#0CA1A6"/>
<path d="M710.474 243.422H714.278C714.822 243.422 715.325 243.354 715.788 243.218C716.256 243.077 716.658 242.871 716.996 242.599C717.333 242.332 717.597 242 717.788 241.603C717.979 241.205 718.072 240.745 718.067 240.222C718.067 239.925 718.025 239.643 717.939 239.376C717.859 239.104 717.738 238.858 717.577 238.636C717.421 238.43 717.227 238.246 716.996 238.085C716.764 237.919 716.485 237.794 716.158 237.708V237.693C716.379 237.602 716.573 237.502 716.739 237.391C716.91 237.275 717.063 237.142 717.199 236.991C717.391 236.785 717.536 236.548 717.637 236.281C717.743 236.01 717.798 235.718 717.803 235.406C717.803 234.893 717.705 234.45 717.509 234.077C717.318 233.7 717.051 233.391 716.709 233.149C716.367 232.907 715.961 232.729 715.493 232.613C715.026 232.492 714.525 232.432 713.991 232.432H710.474V243.422ZM712.301 238.455H714.384C714.681 238.46 714.945 238.506 715.176 238.591C715.408 238.672 715.604 238.787 715.765 238.938C715.926 239.089 716.047 239.273 716.128 239.489C716.208 239.701 716.248 239.945 716.248 240.222C716.248 240.483 716.198 240.722 716.097 240.939C716.002 241.15 715.863 241.329 715.682 241.474C715.516 241.615 715.315 241.726 715.078 241.807C714.842 241.887 714.58 241.927 714.293 241.927H712.301V238.455ZM712.301 237.074V233.934H714.014C714.326 233.939 714.61 233.977 714.867 234.047C715.124 234.113 715.337 234.221 715.509 234.372C715.66 234.493 715.775 234.649 715.856 234.84C715.941 235.026 715.984 235.247 715.984 235.504C715.984 235.746 715.939 235.959 715.848 236.146C715.758 236.332 715.634 236.49 715.478 236.621C715.307 236.767 715.096 236.878 714.844 236.953C714.598 237.029 714.326 237.069 714.029 237.074H712.301ZM722.079 232.432H719.83V243.422H721.528V239.693L721.43 234.968L722.962 240.033H723.906L725.596 234.787L725.491 239.693V243.422H727.197V232.432H724.94L723.438 237.134L722.079 232.432ZM736.462 239.233V236.629C736.462 235.924 736.379 235.303 736.212 234.764C736.046 234.221 735.812 233.763 735.511 233.391C735.199 233.023 734.821 232.746 734.378 232.56C733.941 232.369 733.442 232.273 732.884 232.273C732.33 232.273 731.832 232.369 731.389 232.56C730.952 232.746 730.579 233.023 730.272 233.391C729.965 233.763 729.729 234.221 729.563 234.764C729.402 235.303 729.321 235.924 729.321 236.629V239.233C729.321 239.937 729.402 240.561 729.563 241.105C729.729 241.643 729.968 242.093 730.28 242.456C730.587 242.828 730.962 243.11 731.404 243.301C731.847 243.487 732.345 243.58 732.899 243.58C733.457 243.58 733.956 243.487 734.393 243.301C734.836 243.11 735.209 242.828 735.511 242.456C735.817 242.093 736.051 241.643 736.212 241.105C736.379 240.561 736.462 239.937 736.462 239.233ZM731.133 238.591C731.133 238.445 731.133 238.322 731.133 238.221C731.133 238.121 731.133 237.975 731.133 237.784V236.304C731.133 235.851 731.173 235.459 731.253 235.127C731.334 234.789 731.457 234.515 731.623 234.304C731.764 234.118 731.94 233.977 732.152 233.881C732.363 233.786 732.607 233.738 732.884 233.738C733.14 233.738 733.369 233.778 733.571 233.859C733.777 233.939 733.951 234.06 734.091 234.221C734.253 234.402 734.376 234.636 734.461 234.923C734.552 235.21 734.607 235.549 734.627 235.942L731.133 238.591ZM734.642 239.535C734.642 239.998 734.6 240.4 734.514 240.742C734.434 241.085 734.31 241.361 734.144 241.573C733.998 241.754 733.822 241.892 733.616 241.988C733.41 242.078 733.171 242.124 732.899 242.124C732.622 242.124 732.378 242.076 732.167 241.98C731.96 241.885 731.787 241.741 731.646 241.55C731.505 241.374 731.392 241.152 731.306 240.886C731.226 240.619 731.173 240.312 731.148 239.965L734.642 237.331C734.642 237.477 734.642 237.617 734.642 237.753C734.642 237.889 734.642 238.02 734.642 238.146V239.535ZM740.76 237.112V238.531H741.839C742.151 238.531 742.433 238.569 742.685 238.644C742.941 238.714 743.16 238.823 743.341 238.969C743.523 239.12 743.661 239.308 743.757 239.535C743.852 239.761 743.9 240.033 743.9 240.35C743.9 240.632 743.857 240.883 743.772 241.105C743.691 241.321 743.573 241.502 743.417 241.648C743.256 241.804 743.057 241.922 742.821 242.003C742.589 242.078 742.327 242.116 742.036 242.116C741.764 242.116 741.515 242.076 741.288 241.995C741.067 241.915 740.876 241.802 740.715 241.656C740.549 241.515 740.42 241.344 740.33 241.142C740.244 240.936 740.201 240.712 740.201 240.471H738.397C738.397 240.984 738.496 241.434 738.692 241.822C738.893 242.204 739.16 242.526 739.492 242.788C739.824 243.05 740.209 243.246 740.647 243.377C741.085 243.507 741.54 243.573 742.013 243.573C742.536 243.573 743.022 243.502 743.47 243.361C743.923 243.216 744.315 243.004 744.647 242.727C744.974 242.456 745.231 242.121 745.417 241.724C745.608 241.321 745.704 240.863 745.704 240.35C745.704 240.073 745.671 239.806 745.606 239.55C745.54 239.288 745.435 239.044 745.289 238.818C745.143 238.596 744.954 238.397 744.723 238.221C744.496 238.04 744.22 237.894 743.892 237.784C744.169 237.658 744.411 237.504 744.617 237.323C744.823 237.142 744.994 236.948 745.13 236.742C745.266 236.531 745.367 236.312 745.432 236.085C745.503 235.859 745.538 235.632 745.538 235.406C745.538 234.893 745.452 234.442 745.281 234.055C745.11 233.667 744.869 233.34 744.557 233.074C744.25 232.812 743.877 232.616 743.44 232.485C743.007 232.349 742.531 232.281 742.013 232.281C741.505 232.281 741.037 232.356 740.609 232.507C740.186 232.658 739.819 232.867 739.507 233.134C739.195 233.406 738.951 233.725 738.775 234.093C738.599 234.46 738.511 234.862 738.511 235.3H740.315C740.315 235.064 740.357 234.85 740.443 234.659C740.534 234.467 740.657 234.304 740.813 234.168C740.964 234.032 741.142 233.929 741.349 233.859C741.56 233.783 741.789 233.745 742.036 233.745C742.312 233.745 742.556 233.783 742.768 233.859C742.984 233.934 743.163 234.04 743.304 234.176C743.445 234.321 743.55 234.498 743.621 234.704C743.696 234.91 743.734 235.144 743.734 235.406C743.734 235.647 743.694 235.874 743.613 236.085C743.538 236.292 743.427 236.465 743.281 236.606C743.125 236.767 742.926 236.893 742.685 236.983C742.443 237.069 742.161 237.112 741.839 237.112H740.76ZM748.229 243.422H752.033C752.576 243.422 753.079 243.354 753.542 243.218C754.01 243.077 754.413 242.871 754.75 242.599C755.087 242.332 755.351 242 755.543 241.603C755.734 241.205 755.827 240.745 755.822 240.222C755.822 239.925 755.779 239.643 755.694 239.376C755.613 239.104 755.492 238.858 755.331 238.636C755.175 238.43 754.982 238.246 754.75 238.085C754.519 237.919 754.239 237.794 753.912 237.708V237.693C754.134 237.602 754.327 237.502 754.493 237.391C754.665 237.275 754.818 237.142 754.954 236.991C755.145 236.785 755.291 236.548 755.392 236.281C755.497 236.01 755.553 235.718 755.558 235.406C755.558 234.893 755.46 234.45 755.263 234.077C755.072 233.7 754.805 233.391 754.463 233.149C754.121 232.907 753.716 232.729 753.248 232.613C752.78 232.492 752.279 232.432 751.746 232.432H748.229V243.422ZM750.055 238.455H752.138C752.435 238.46 752.7 238.506 752.931 238.591C753.163 238.672 753.359 238.787 753.52 238.938C753.681 239.089 753.802 239.273 753.882 239.489C753.963 239.701 754.003 239.945 754.003 240.222C754.003 240.483 753.953 240.722 753.852 240.939C753.756 241.15 753.618 241.329 753.437 241.474C753.271 241.615 753.069 241.726 752.833 241.807C752.596 241.887 752.335 241.927 752.048 241.927H750.055V238.455ZM750.055 237.074V233.934H751.769C752.081 233.939 752.365 233.977 752.622 234.047C752.878 234.113 753.092 234.221 753.263 234.372C753.414 234.493 753.53 234.649 753.61 234.84C753.696 235.026 753.739 235.247 753.739 235.504C753.739 235.746 753.693 235.959 753.603 236.146C753.512 236.332 753.389 236.49 753.233 236.621C753.062 236.767 752.851 236.878 752.599 236.953C752.352 237.029 752.081 237.069 751.784 237.074H750.055ZM764.559 239.323V237.859H758.482V239.323H764.559ZM772.457 240.893L773.197 243.422H775.077L771.559 232.432H769.952L766.374 243.422H768.261L769.008 240.893H772.457ZM769.468 239.338L770.752 234.991L772.012 239.338H769.468ZM783.979 240.04H782.16C782.13 240.372 782.065 240.667 781.964 240.923C781.863 241.18 781.73 241.394 781.564 241.565C781.393 241.741 781.187 241.875 780.945 241.965C780.704 242.056 780.427 242.101 780.115 242.101C779.853 242.101 779.619 242.066 779.413 241.995C779.212 241.92 779.033 241.812 778.877 241.671C778.726 241.54 778.595 241.384 778.484 241.203C778.379 241.022 778.291 240.82 778.22 240.599C778.13 240.332 778.062 240.038 778.016 239.716C777.976 239.394 777.956 239.049 777.956 238.682V237.165C777.956 236.868 777.971 236.578 778.001 236.297C778.037 236.01 778.087 235.741 778.152 235.489C778.238 235.202 778.346 234.943 778.477 234.711C778.613 234.475 778.781 234.284 778.983 234.138C779.128 234.017 779.295 233.924 779.481 233.859C779.672 233.793 779.886 233.76 780.122 233.76C780.459 233.76 780.749 233.811 780.99 233.911C781.232 234.007 781.436 234.148 781.602 234.334C781.763 234.52 781.889 234.747 781.979 235.013C782.075 235.275 782.138 235.569 782.168 235.897H783.979C783.924 235.348 783.801 234.85 783.609 234.402C783.423 233.954 783.167 233.572 782.84 233.255C782.518 232.943 782.128 232.701 781.67 232.53C781.217 232.359 780.701 232.273 780.122 232.273C779.695 232.273 779.3 232.331 778.937 232.447C778.58 232.563 778.253 232.724 777.956 232.93C777.644 233.157 777.367 233.431 777.126 233.753C776.889 234.07 776.696 234.425 776.545 234.817C776.404 235.169 776.298 235.544 776.228 235.942C776.157 236.339 776.122 236.752 776.122 237.18V238.682C776.122 239.13 776.157 239.56 776.228 239.972C776.303 240.385 776.414 240.767 776.56 241.12C776.706 241.477 776.884 241.807 777.096 242.109C777.312 242.405 777.564 242.66 777.85 242.871C778.147 243.097 778.484 243.273 778.862 243.399C779.244 243.52 779.662 243.58 780.115 243.58C780.668 243.58 781.171 243.497 781.624 243.331C782.082 243.16 782.477 242.919 782.809 242.607C783.136 242.3 783.401 241.93 783.602 241.497C783.803 241.059 783.929 240.574 783.979 240.04ZM793.101 243.422V232.432H791.327V237.029H787.629V232.432H785.862V243.422H787.629V238.523H791.327V243.422H793.101ZM801.166 240.591C801.166 240.833 801.113 241.047 801.007 241.233C800.907 241.419 800.771 241.575 800.6 241.701C800.424 241.832 800.215 241.93 799.973 241.995C799.737 242.061 799.48 242.093 799.203 242.093C798.876 242.093 798.574 242.053 798.298 241.973C798.026 241.892 797.789 241.769 797.588 241.603C797.382 241.442 797.218 241.238 797.097 240.991C796.982 240.74 796.911 240.445 796.886 240.108H795.075C795.08 240.637 795.185 241.105 795.392 241.512C795.603 241.92 795.887 242.275 796.245 242.576C796.632 242.899 797.087 243.145 797.611 243.316C798.134 243.482 798.665 243.565 799.203 243.565C799.712 243.565 800.195 243.502 800.653 243.377C801.111 243.246 801.513 243.052 801.86 242.795C802.202 242.549 802.474 242.239 802.675 241.867C802.882 241.495 802.985 241.064 802.985 240.576C802.985 240.048 802.867 239.582 802.63 239.18C802.399 238.772 802.089 238.423 801.702 238.131C801.39 237.899 801.048 237.703 800.675 237.542C800.308 237.376 799.931 237.238 799.543 237.127C799.236 237.036 798.942 236.938 798.66 236.832C798.383 236.727 798.137 236.604 797.92 236.463C797.709 236.322 797.54 236.158 797.415 235.972C797.289 235.781 797.223 235.559 797.218 235.308C797.218 235.071 797.266 234.857 797.362 234.666C797.457 234.475 797.591 234.311 797.762 234.176C797.933 234.045 798.134 233.944 798.366 233.874C798.602 233.798 798.859 233.76 799.135 233.76C799.452 233.76 799.732 233.808 799.973 233.904C800.22 233.994 800.429 234.12 800.6 234.281C800.766 234.447 800.894 234.646 800.985 234.878C801.08 235.104 801.141 235.356 801.166 235.632H802.962C802.962 235.134 802.862 234.681 802.66 234.274C802.464 233.861 802.195 233.506 801.853 233.209C801.511 232.918 801.108 232.691 800.645 232.53C800.187 232.364 799.691 232.281 799.158 232.281C798.655 232.281 798.174 232.351 797.716 232.492C797.264 232.628 796.866 232.827 796.524 233.089C796.182 233.355 795.91 233.677 795.709 234.055C795.507 234.427 795.407 234.847 795.407 235.315C795.407 235.748 795.492 236.138 795.663 236.485C795.839 236.827 796.081 237.134 796.388 237.406C796.695 237.673 797.065 237.914 797.498 238.131C797.935 238.342 798.413 238.521 798.932 238.667C799.269 238.762 799.573 238.87 799.845 238.991C800.122 239.107 800.361 239.238 800.562 239.384C800.753 239.54 800.902 239.716 801.007 239.912C801.113 240.108 801.166 240.335 801.166 240.591ZM810.605 240.591C810.605 240.833 810.552 241.047 810.446 241.233C810.345 241.419 810.209 241.575 810.038 241.701C809.862 241.832 809.653 241.93 809.412 241.995C809.175 242.061 808.919 242.093 808.642 242.093C808.315 242.093 808.013 242.053 807.736 241.973C807.465 241.892 807.228 241.769 807.027 241.603C806.82 241.442 806.657 241.238 806.536 240.991C806.42 240.74 806.35 240.445 806.325 240.108H804.513C804.518 240.637 804.624 241.105 804.83 241.512C805.042 241.92 805.326 242.275 805.683 242.576C806.071 242.899 806.526 243.145 807.049 243.316C807.573 243.482 808.104 243.565 808.642 243.565C809.15 243.565 809.633 243.502 810.091 243.377C810.549 243.246 810.952 243.052 811.299 242.795C811.641 242.549 811.913 242.239 812.114 241.867C812.32 241.495 812.424 241.064 812.424 240.576C812.424 240.048 812.305 239.582 812.069 239.18C811.837 238.772 811.528 238.423 811.14 238.131C810.828 237.899 810.486 237.703 810.114 237.542C809.747 237.376 809.369 237.238 808.982 237.127C808.675 237.036 808.38 236.938 808.099 236.832C807.822 236.727 807.575 236.604 807.359 236.463C807.148 236.322 806.979 236.158 806.853 235.972C806.727 235.781 806.662 235.559 806.657 235.308C806.657 235.071 806.705 234.857 806.8 234.666C806.896 234.475 807.029 234.311 807.2 234.176C807.371 234.045 807.573 233.944 807.804 233.874C808.041 233.798 808.297 233.76 808.574 233.76C808.891 233.76 809.17 233.808 809.412 233.904C809.658 233.994 809.867 234.12 810.038 234.281C810.204 234.447 810.333 234.646 810.423 234.878C810.519 235.104 810.579 235.356 810.605 235.632H812.401C812.401 235.134 812.3 234.681 812.099 234.274C811.903 233.861 811.634 233.506 811.291 233.209C810.949 232.918 810.547 232.691 810.084 232.53C809.626 232.364 809.13 232.281 808.597 232.281C808.094 232.281 807.613 232.351 807.155 232.492C806.702 232.628 806.305 232.827 805.962 233.089C805.62 233.355 805.349 233.677 805.147 234.055C804.946 234.427 804.845 234.847 804.845 235.315C804.845 235.748 804.931 236.138 805.102 236.485C805.278 236.827 805.52 237.134 805.827 237.406C806.134 237.673 806.503 237.914 806.936 238.131C807.374 238.342 807.852 238.521 808.37 238.667C808.707 238.762 809.012 238.87 809.284 238.991C809.56 239.107 809.799 239.238 810.001 239.384C810.192 239.54 810.34 239.716 810.446 239.912C810.552 240.108 810.605 240.335 810.605 240.591ZM821.19 239.323V237.859H815.114V239.323H821.19ZM831.12 242.071L831.105 237.867H827.331V239.278H829.323L829.316 241.474C829.235 241.58 829.127 241.673 828.991 241.754C828.855 241.829 828.707 241.892 828.546 241.942C828.38 241.993 828.206 242.031 828.025 242.056C827.844 242.076 827.665 242.086 827.489 242.086C827.192 242.081 826.926 242.031 826.689 241.935C826.458 241.839 826.254 241.703 826.078 241.527C825.937 241.391 825.813 241.235 825.708 241.059C825.607 240.883 825.519 240.695 825.444 240.493C825.348 240.227 825.275 239.937 825.225 239.625C825.179 239.313 825.157 238.984 825.157 238.636V237.217C825.157 236.921 825.174 236.631 825.21 236.349C825.245 236.068 825.3 235.803 825.376 235.557C825.461 235.275 825.569 235.021 825.7 234.794C825.836 234.563 825.995 234.369 826.176 234.213C826.332 234.077 826.508 233.972 826.704 233.896C826.9 233.816 827.114 233.776 827.346 233.776C827.663 233.776 827.937 233.821 828.168 233.911C828.405 234.002 828.604 234.133 828.765 234.304C828.916 234.465 829.036 234.664 829.127 234.9C829.218 235.132 829.286 235.391 829.331 235.678H831.112C831.062 235.154 830.944 234.684 830.757 234.266C830.571 233.843 830.317 233.484 829.995 233.187C829.678 232.895 829.296 232.671 828.848 232.515C828.4 232.359 827.887 232.281 827.308 232.281C826.88 232.281 826.483 232.341 826.115 232.462C825.753 232.583 825.421 232.754 825.119 232.975C824.842 233.187 824.596 233.436 824.379 233.723C824.163 234.01 823.977 234.327 823.821 234.674C823.66 235.041 823.536 235.441 823.451 235.874C823.37 236.307 823.328 236.759 823.323 237.233V238.636C823.328 239.125 823.375 239.59 823.466 240.033C823.557 240.476 823.69 240.881 823.866 241.248C824.022 241.6 824.216 241.92 824.447 242.207C824.684 242.493 824.95 242.738 825.247 242.939C825.544 243.14 825.876 243.296 826.244 243.407C826.611 243.517 827.006 243.573 827.429 243.573C827.887 243.573 828.317 243.525 828.719 243.429C829.122 243.339 829.494 243.211 829.837 243.044C830.108 242.914 830.352 242.765 830.569 242.599C830.785 242.428 830.969 242.252 831.12 242.071ZM838.528 240.893L839.268 243.422H841.147L837.63 232.432H836.022L832.444 243.422H834.331L835.078 240.893H838.528ZM835.539 239.338L836.822 234.991L838.083 239.338H835.539ZM849.725 243.422V232.432H847.899L847.884 239.965L844.336 232.432H842.494V243.422H844.328L844.336 235.859L847.906 243.422H849.725ZM858.945 239.323V237.859H852.869V239.323H858.945ZM869.305 233.934V232.432H860.745V233.934H864.111V243.422H865.915V233.934H869.305ZM877.558 238.742V237.248H872.909V233.934H878.222V232.432H871.082V243.422H872.909V238.742H877.558ZM881.902 238.953V239.082C881.902 239.801 881.957 240.476 882.068 241.105C882.179 241.729 882.327 242.307 882.513 242.841C882.699 243.379 882.916 243.867 883.162 244.305C883.414 244.748 883.678 245.14 883.955 245.482C884.232 245.825 884.513 246.114 884.8 246.351C885.087 246.592 885.364 246.778 885.631 246.909L885.993 245.898C885.792 245.742 885.59 245.548 885.389 245.316C885.188 245.085 884.994 244.818 884.808 244.516C884.632 244.219 884.463 243.877 884.302 243.49C884.146 243.102 884.008 242.682 883.887 242.229C883.791 241.852 883.708 241.394 883.638 240.856C883.567 240.312 883.532 239.726 883.532 239.097V238.938C883.532 238.294 883.567 237.695 883.638 237.142C883.713 236.588 883.814 236.083 883.94 235.625C884.076 235.137 884.237 234.686 884.423 234.274C884.614 233.861 884.818 233.501 885.034 233.194C885.19 232.978 885.349 232.784 885.51 232.613C885.671 232.442 885.832 232.296 885.993 232.175L885.631 231.126C885.364 231.257 885.087 231.443 884.8 231.685C884.513 231.921 884.234 232.211 883.962 232.553C883.686 232.895 883.422 233.287 883.17 233.73C882.923 234.173 882.704 234.659 882.513 235.187C882.327 235.725 882.179 236.312 882.068 236.946C881.957 237.575 881.902 238.244 881.902 238.953ZM891.801 241.927V232.432H889.982V243.422H897.047V241.927H891.801ZM905.874 238.742V237.248H901.224V233.934H906.538V232.432H899.398V243.422H901.224V238.742H905.874ZM914.128 239.082V238.953C914.128 238.234 914.07 237.567 913.954 236.953C913.838 236.334 913.687 235.758 913.501 235.225C913.315 234.686 913.096 234.198 912.844 233.76C912.593 233.318 912.324 232.92 912.037 232.568C911.76 232.226 911.473 231.934 911.176 231.692C910.885 231.446 910.603 231.257 910.331 231.126L909.976 232.138C910.132 232.258 910.291 232.409 910.452 232.59C910.618 232.767 910.776 232.968 910.927 233.194C911.144 233.511 911.35 233.886 911.546 234.319C911.747 234.752 911.919 235.24 912.059 235.783C912.165 236.201 912.253 236.674 912.324 237.202C912.394 237.731 912.429 238.309 912.429 238.938V239.097C912.429 239.706 912.397 240.272 912.331 240.795C912.271 241.318 912.185 241.802 912.075 242.244C911.959 242.722 911.815 243.158 911.644 243.55C911.478 243.948 911.3 244.302 911.108 244.614C910.927 244.896 910.741 245.145 910.55 245.362C910.359 245.578 910.167 245.757 909.976 245.898L910.331 246.909C910.603 246.778 910.885 246.592 911.176 246.351C911.468 246.109 911.755 245.812 912.037 245.46C912.319 245.118 912.585 244.725 912.837 244.282C913.089 243.84 913.31 243.349 913.501 242.81C913.692 242.277 913.843 241.698 913.954 241.074C914.07 240.45 914.128 239.786 914.128 239.082ZM919.656 238.953V239.082C919.656 239.801 919.712 240.476 919.822 241.105C919.933 241.729 920.082 242.307 920.268 242.841C920.454 243.379 920.67 243.867 920.917 244.305C921.169 244.748 921.433 245.14 921.709 245.482C921.986 245.825 922.268 246.114 922.555 246.351C922.842 246.592 923.118 246.778 923.385 246.909L923.747 245.898C923.546 245.742 923.345 245.548 923.144 245.316C922.942 245.085 922.749 244.818 922.562 244.516C922.386 244.219 922.218 243.877 922.057 243.49C921.901 243.102 921.762 242.682 921.642 242.229C921.546 241.852 921.463 241.394 921.392 240.856C921.322 240.312 921.287 239.726 921.287 239.097V238.938C921.287 238.294 921.322 237.695 921.392 237.142C921.468 236.588 921.569 236.083 921.694 235.625C921.83 235.137 921.991 234.686 922.177 234.274C922.369 233.861 922.572 233.501 922.789 233.194C922.945 232.978 923.103 232.784 923.264 232.613C923.425 232.442 923.586 232.296 923.747 232.175L923.385 231.126C923.118 231.257 922.842 231.443 922.555 231.685C922.268 231.921 921.989 232.211 921.717 232.553C921.44 232.895 921.176 233.287 920.924 233.73C920.678 234.173 920.459 234.659 920.268 235.187C920.082 235.725 919.933 236.312 919.822 236.946C919.712 237.575 919.656 238.244 919.656 238.953ZM933.307 240.591C933.307 240.833 933.254 241.047 933.148 241.233C933.048 241.419 932.912 241.575 932.741 241.701C932.565 241.832 932.356 241.93 932.114 241.995C931.878 242.061 931.621 242.093 931.344 242.093C931.017 242.093 930.715 242.053 930.439 241.973C930.167 241.892 929.93 241.769 929.729 241.603C929.523 241.442 929.359 241.238 929.238 240.991C929.123 240.74 929.052 240.445 929.027 240.108H927.216C927.221 240.637 927.326 241.105 927.533 241.512C927.744 241.92 928.028 242.275 928.386 242.576C928.773 242.899 929.228 243.145 929.752 243.316C930.275 243.482 930.806 243.565 931.344 243.565C931.853 243.565 932.336 243.502 932.794 243.377C933.251 243.246 933.654 243.052 934.001 242.795C934.343 242.549 934.615 242.239 934.816 241.867C935.023 241.495 935.126 241.064 935.126 240.576C935.126 240.048 935.008 239.582 934.771 239.18C934.54 238.772 934.23 238.423 933.843 238.131C933.531 237.899 933.189 237.703 932.816 237.542C932.449 237.376 932.071 237.238 931.684 237.127C931.377 237.036 931.083 236.938 930.801 236.832C930.524 236.727 930.278 236.604 930.061 236.463C929.85 236.322 929.681 236.158 929.555 235.972C929.43 235.781 929.364 235.559 929.359 235.308C929.359 235.071 929.407 234.857 929.503 234.666C929.598 234.475 929.732 234.311 929.903 234.176C930.074 234.045 930.275 233.944 930.507 233.874C930.743 233.798 931 233.76 931.276 233.76C931.593 233.76 931.873 233.808 932.114 233.904C932.361 233.994 932.57 234.12 932.741 234.281C932.907 234.447 933.035 234.646 933.126 234.878C933.221 235.104 933.282 235.356 933.307 235.632H935.103C935.103 235.134 935.003 234.681 934.801 234.274C934.605 233.861 934.336 233.506 933.994 233.209C933.652 232.918 933.249 232.691 932.786 232.53C932.328 232.364 931.832 232.281 931.299 232.281C930.796 232.281 930.315 232.351 929.857 232.492C929.405 232.628 929.007 232.827 928.665 233.089C928.323 233.355 928.051 233.677 927.85 234.055C927.648 234.427 927.548 234.847 927.548 235.315C927.548 235.748 927.633 236.138 927.804 236.485C927.98 236.827 928.222 237.134 928.529 237.406C928.836 237.673 929.206 237.914 929.639 238.131C930.076 238.342 930.554 238.521 931.073 238.667C931.41 238.762 931.714 238.87 931.986 238.991C932.263 239.107 932.502 239.238 932.703 239.384C932.894 239.54 933.043 239.716 933.148 239.912C933.254 240.108 933.307 240.335 933.307 240.591ZM944.112 243.422V232.432H942.285L942.27 239.965L938.722 232.432H936.881V243.422H938.715L938.722 235.859L942.293 243.422H944.112ZM951.882 239.082V238.953C951.882 238.234 951.824 237.567 951.709 236.953C951.593 236.334 951.442 235.758 951.256 235.225C951.07 234.686 950.851 234.198 950.599 233.76C950.347 233.318 950.078 232.92 949.791 232.568C949.515 232.226 949.228 231.934 948.931 231.692C948.639 231.446 948.357 231.257 948.086 231.126L947.731 232.138C947.887 232.258 948.045 232.409 948.206 232.59C948.372 232.767 948.531 232.968 948.682 233.194C948.898 233.511 949.105 233.886 949.301 234.319C949.502 234.752 949.673 235.24 949.814 235.783C949.92 236.201 950.008 236.674 950.078 237.202C950.149 237.731 950.184 238.309 950.184 238.938V239.097C950.184 239.706 950.151 240.272 950.086 240.795C950.025 241.318 949.94 241.802 949.829 242.244C949.713 242.722 949.57 243.158 949.399 243.55C949.233 243.948 949.054 244.302 948.863 244.614C948.682 244.896 948.496 245.145 948.304 245.362C948.113 245.578 947.922 245.757 947.731 245.898L948.086 246.909C948.357 246.778 948.639 246.592 948.931 246.351C949.223 246.109 949.51 245.812 949.791 245.46C950.073 245.118 950.34 244.725 950.591 244.282C950.843 243.84 951.064 243.349 951.256 242.81C951.447 242.277 951.598 241.698 951.709 241.074C951.824 240.45 951.882 239.786 951.882 239.082Z" fill="white"/>
<rect x="41.4063" y="398.604" width="144.094" height="30.9167" rx="15.4583" fill="#7F8C8D"/>
<path d="M89.417 410.325V408.823H80.8575V410.325H84.2239V419.812H86.0279V410.325H89.417ZM98.1612 419.812V408.823H96.3874V413.419H92.6889V408.823H90.9226V419.812H92.6889V414.914H96.3874V419.812H98.1612ZM102.648 408.823H100.399V419.812H102.097V416.084L101.999 411.359L103.531 416.423H104.475L106.166 411.178L106.06 416.084V419.812H107.766V408.823H105.509L104.007 413.525L102.648 408.823ZM119.359 419.812H123.164C123.707 419.812 124.21 419.745 124.673 419.609C125.141 419.468 125.544 419.261 125.881 418.99C126.218 418.723 126.482 418.391 126.673 417.993C126.865 417.596 126.958 417.135 126.953 416.612C126.953 416.315 126.91 416.033 126.824 415.767C126.744 415.495 126.623 415.248 126.462 415.027C126.306 414.821 126.112 414.637 125.881 414.476C125.649 414.31 125.37 414.184 125.043 414.099V414.084C125.264 413.993 125.458 413.892 125.624 413.782C125.795 413.666 125.949 413.533 126.085 413.382C126.276 413.175 126.422 412.939 126.522 412.672C126.628 412.4 126.683 412.108 126.688 411.797C126.688 411.283 126.59 410.84 126.394 410.468C126.203 410.091 125.936 409.781 125.594 409.54C125.252 409.298 124.847 409.119 124.379 409.004C123.911 408.883 123.41 408.823 122.877 408.823H119.359V419.812ZM121.186 414.846H123.269C123.566 414.851 123.83 414.896 124.062 414.982C124.293 415.062 124.489 415.178 124.65 415.329C124.812 415.48 124.932 415.664 125.013 415.88C125.093 416.091 125.134 416.335 125.134 416.612C125.134 416.874 125.083 417.113 124.983 417.329C124.887 417.541 124.749 417.719 124.567 417.865C124.401 418.006 124.2 418.117 123.964 418.197C123.727 418.278 123.465 418.318 123.179 418.318H121.186V414.846ZM121.186 413.465V410.325H122.899C123.211 410.33 123.496 410.367 123.752 410.438C124.009 410.503 124.223 410.611 124.394 410.762C124.545 410.883 124.661 411.039 124.741 411.23C124.827 411.417 124.869 411.638 124.869 411.895C124.869 412.136 124.824 412.35 124.734 412.536C124.643 412.722 124.52 412.881 124.364 413.012C124.193 413.158 123.981 413.268 123.73 413.344C123.483 413.419 123.211 413.46 122.914 413.465H121.186ZM134.15 417.284L134.889 419.812H136.769L133.251 408.823H131.644L128.066 419.812H129.953L130.7 417.284H134.15ZM131.16 415.729L132.444 411.381L133.704 415.729H131.16ZM146.049 410.325V408.823H137.489V410.325H140.856V419.812H142.66V410.325H146.049Z" fill="white"/>
<g clip-path="url(#clip1)">
<rect width="70.1146" height="33.6771" transform="translate(232.427 203.167)" fill="#0CA1A6"/>
<path d="M257.505 222.374H255.686C255.656 222.706 255.59 223 255.489 223.257C255.389 223.513 255.255 223.727 255.089 223.898C254.918 224.075 254.712 224.208 254.47 224.298C254.229 224.389 253.952 224.434 253.64 224.434C253.379 224.434 253.145 224.399 252.938 224.329C252.737 224.253 252.558 224.145 252.402 224.004C252.251 223.873 252.121 223.717 252.01 223.536C251.904 223.355 251.816 223.154 251.746 222.932C251.655 222.666 251.587 222.371 251.542 222.049C251.502 221.727 251.481 221.382 251.481 221.015V219.498C251.481 219.201 251.497 218.912 251.527 218.63C251.562 218.343 251.612 218.074 251.678 217.822C251.763 217.535 251.871 217.276 252.002 217.045C252.138 216.808 252.307 216.617 252.508 216.471C252.654 216.35 252.82 216.257 253.006 216.192C253.197 216.126 253.411 216.094 253.648 216.094C253.985 216.094 254.274 216.144 254.516 216.245C254.757 216.34 254.961 216.481 255.127 216.667C255.288 216.854 255.414 217.08 255.505 217.347C255.6 217.608 255.663 217.903 255.693 218.23H257.505C257.449 217.681 257.326 217.183 257.135 216.735C256.949 216.287 256.692 215.905 256.365 215.588C256.043 215.276 255.653 215.035 255.195 214.863C254.742 214.692 254.226 214.607 253.648 214.607C253.22 214.607 252.825 214.665 252.463 214.78C252.105 214.896 251.778 215.057 251.481 215.263C251.169 215.49 250.893 215.764 250.651 216.086C250.415 216.403 250.221 216.758 250.07 217.15C249.929 217.503 249.823 217.878 249.753 218.275C249.683 218.673 249.647 219.085 249.647 219.513V221.015C249.647 221.463 249.683 221.893 249.753 222.306C249.828 222.718 249.939 223.101 250.085 223.453C250.231 223.81 250.41 224.14 250.621 224.442C250.837 224.739 251.089 224.993 251.376 225.204C251.673 225.431 252.01 225.607 252.387 225.733C252.77 225.853 253.187 225.914 253.64 225.914C254.194 225.914 254.697 225.831 255.15 225.665C255.608 225.494 256.003 225.252 256.335 224.94C256.662 224.633 256.926 224.263 257.127 223.83C257.329 223.393 257.454 222.907 257.505 222.374ZM264.453 225.755V214.765H264.339L259.818 216.441V218.034L262.634 217V225.755H264.453ZM276.005 225.755V224.298H270.887L273.333 221.687C273.655 221.345 273.952 221.013 274.223 220.691C274.5 220.368 274.739 220.049 274.94 219.732C275.137 219.415 275.29 219.095 275.401 218.773C275.517 218.446 275.574 218.109 275.574 217.762C275.574 217.299 275.499 216.876 275.348 216.494C275.197 216.106 274.978 215.774 274.691 215.497C274.399 215.221 274.04 215.004 273.612 214.848C273.189 214.692 272.709 214.614 272.17 214.614C271.597 214.614 271.076 214.707 270.608 214.894C270.145 215.08 269.752 215.331 269.43 215.648C269.103 215.965 268.852 216.338 268.676 216.766C268.499 217.188 268.411 217.639 268.411 218.117H270.223C270.223 217.8 270.263 217.518 270.344 217.271C270.424 217.02 270.545 216.806 270.706 216.63C270.862 216.464 271.058 216.335 271.295 216.245C271.531 216.154 271.81 216.109 272.133 216.109C272.384 216.109 272.611 216.152 272.812 216.237C273.018 216.323 273.194 216.441 273.34 216.592C273.486 216.743 273.597 216.924 273.672 217.135C273.748 217.347 273.786 217.581 273.786 217.837C273.786 218.029 273.758 218.22 273.703 218.411C273.652 218.597 273.567 218.798 273.446 219.015C273.32 219.231 273.157 219.47 272.955 219.732C272.754 219.989 272.505 220.28 272.208 220.607L268.63 224.502V225.755H276.005ZM280.356 219.445V220.864H281.435C281.747 220.864 282.029 220.902 282.281 220.977C282.537 221.048 282.756 221.156 282.937 221.302C283.119 221.453 283.257 221.642 283.353 221.868C283.448 222.094 283.496 222.366 283.496 222.683C283.496 222.965 283.453 223.217 283.368 223.438C283.287 223.654 283.169 223.836 283.013 223.981C282.852 224.137 282.653 224.256 282.417 224.336C282.185 224.412 281.923 224.449 281.632 224.449C281.36 224.449 281.111 224.409 280.884 224.329C280.663 224.248 280.472 224.135 280.311 223.989C280.145 223.848 280.016 223.677 279.926 223.476C279.84 223.269 279.797 223.045 279.797 222.804H277.993C277.993 223.317 278.092 223.768 278.288 224.155C278.489 224.537 278.756 224.86 279.088 225.121C279.42 225.383 279.805 225.579 280.243 225.71C280.681 225.841 281.136 225.906 281.609 225.906C282.132 225.906 282.618 225.836 283.066 225.695C283.519 225.549 283.911 225.338 284.243 225.061C284.57 224.789 284.827 224.454 285.013 224.057C285.204 223.654 285.3 223.196 285.3 222.683C285.3 222.406 285.267 222.14 285.202 221.883C285.136 221.621 285.031 221.377 284.885 221.151C284.739 220.93 284.55 220.731 284.319 220.555C284.092 220.373 283.815 220.228 283.488 220.117C283.765 219.991 284.007 219.838 284.213 219.656C284.419 219.475 284.59 219.282 284.726 219.075C284.862 218.864 284.963 218.645 285.028 218.419C285.099 218.192 285.134 217.966 285.134 217.739C285.134 217.226 285.048 216.776 284.877 216.388C284.706 216.001 284.465 215.674 284.153 215.407C283.846 215.145 283.473 214.949 283.036 214.818C282.603 214.682 282.127 214.614 281.609 214.614C281.101 214.614 280.633 214.69 280.205 214.841C279.782 214.992 279.415 215.201 279.103 215.467C278.791 215.739 278.547 216.059 278.371 216.426C278.195 216.793 278.107 217.196 278.107 217.634H279.911C279.911 217.397 279.953 217.183 280.039 216.992C280.13 216.801 280.253 216.637 280.409 216.501C280.56 216.365 280.738 216.262 280.945 216.192C281.156 216.116 281.385 216.079 281.632 216.079C281.908 216.079 282.152 216.116 282.364 216.192C282.58 216.267 282.759 216.373 282.9 216.509C283.041 216.655 283.146 216.831 283.217 217.037C283.292 217.244 283.33 217.478 283.33 217.739C283.33 217.981 283.29 218.207 283.209 218.419C283.134 218.625 283.023 218.798 282.877 218.939C282.721 219.1 282.522 219.226 282.281 219.317C282.039 219.402 281.757 219.445 281.435 219.445H280.356Z" fill="white"/>
<rect width="71.7708" height="33.6771" transform="translate(302.542 203.167)" fill="#C11F09"/>
<path d="M321.734 221.838V214.765H319.878L315.13 222.193L315.175 223.302H319.93V225.755H321.734V223.302H323.116V221.838H321.734ZM316.972 221.838L319.719 217.573L319.93 217.181V221.838H316.972ZM327.49 224.668C327.49 225.016 327.603 225.31 327.829 225.551C328.061 225.788 328.383 225.906 328.795 225.906C329.203 225.906 329.523 225.788 329.754 225.551C329.991 225.315 330.109 225.021 330.109 224.668C330.109 224.316 329.993 224.019 329.762 223.778C329.53 223.531 329.208 223.408 328.795 223.408C328.373 223.408 328.048 223.531 327.822 223.778C327.6 224.024 327.49 224.321 327.49 224.668ZM341.767 215.777V214.765H334.166V216.275H339.864L335.472 225.755H337.374L341.767 215.777ZM346.103 217.588H344.299V228.895H346.103V225.468C346.294 225.614 346.515 225.725 346.767 225.801C347.019 225.876 347.3 225.914 347.612 225.914C347.854 225.914 348.078 225.886 348.284 225.831C348.495 225.775 348.689 225.695 348.865 225.589C348.976 225.524 349.079 225.448 349.175 225.363C349.27 225.272 349.361 225.177 349.447 225.076L349.499 225.755H351.16V217.588H349.348V223.491C349.293 223.607 349.228 223.715 349.152 223.815C349.082 223.911 348.994 223.999 348.888 224.08C348.742 224.195 348.561 224.286 348.345 224.351C348.133 224.412 347.887 224.442 347.605 224.442C347.383 224.442 347.18 224.414 346.993 224.359C346.812 224.298 346.656 224.188 346.525 224.027C346.39 223.866 346.284 223.644 346.208 223.362C346.138 223.081 346.103 222.718 346.103 222.276V217.588ZM360.123 221.075V219.581H355.473V216.267H360.787V214.765H353.647V225.755H355.473V221.075H360.123Z" fill="white"/>
</g>
<line x1="514.74" y1="264.448" x2="514.74" y2="334.562" stroke="black" stroke-width="1.5"/>
<path d="M780.677 91.875V80.8851H780.564L776.043 82.5608V84.1534L778.858 83.1193V91.875H780.677Z" fill="black"/>
<path d="M782.791 131.625V130.168H777.673L780.119 127.557C780.441 127.214 780.738 126.882 781.009 126.56C781.286 126.238 781.525 125.919 781.726 125.602C781.923 125.285 782.076 124.965 782.187 124.643C782.303 124.316 782.36 123.979 782.36 123.632C782.36 123.169 782.285 122.746 782.134 122.364C781.983 121.976 781.764 121.644 781.477 121.367C781.185 121.09 780.826 120.874 780.398 120.718C779.975 120.562 779.495 120.484 778.956 120.484C778.383 120.484 777.862 120.577 777.394 120.763C776.931 120.95 776.538 121.201 776.216 121.518C775.889 121.835 775.638 122.208 775.462 122.635C775.285 123.058 775.197 123.508 775.197 123.986H777.009C777.009 123.669 777.049 123.388 777.13 123.141C777.21 122.889 777.331 122.676 777.492 122.499C777.648 122.333 777.844 122.205 778.081 122.115C778.317 122.024 778.596 121.979 778.918 121.979C779.17 121.979 779.397 122.021 779.598 122.107C779.804 122.192 779.98 122.311 780.126 122.462C780.272 122.613 780.383 122.794 780.458 123.005C780.534 123.217 780.572 123.451 780.572 123.707C780.572 123.898 780.544 124.09 780.488 124.281C780.438 124.467 780.353 124.668 780.232 124.885C780.106 125.101 779.943 125.34 779.741 125.602C779.54 125.858 779.291 126.15 778.994 126.477L775.416 130.372V131.625H782.791Z" fill="black"/>
<path d="M777.703 166.169V167.588H778.783C779.095 167.588 779.376 167.626 779.628 167.701C779.885 167.772 780.104 167.88 780.285 168.026C780.466 168.177 780.604 168.366 780.7 168.592C780.795 168.818 780.843 169.09 780.843 169.407C780.843 169.689 780.8 169.941 780.715 170.162C780.634 170.378 780.516 170.559 780.36 170.705C780.199 170.861 780 170.98 779.764 171.06C779.532 171.136 779.271 171.173 778.979 171.173C778.707 171.173 778.458 171.133 778.232 171.053C778.01 170.972 777.819 170.859 777.658 170.713C777.492 170.572 777.364 170.401 777.273 170.2C777.187 169.993 777.145 169.769 777.145 169.528H775.341C775.341 170.041 775.439 170.492 775.635 170.879C775.836 171.261 776.103 171.583 776.435 171.845C776.767 172.107 777.152 172.303 777.59 172.434C778.028 172.565 778.483 172.63 778.956 172.63C779.48 172.63 779.965 172.56 780.413 172.419C780.866 172.273 781.258 172.062 781.59 171.785C781.918 171.513 782.174 171.178 782.36 170.781C782.552 170.378 782.647 169.92 782.647 169.407C782.647 169.13 782.615 168.864 782.549 168.607C782.484 168.345 782.378 168.101 782.232 167.875C782.086 167.653 781.897 167.455 781.666 167.279C781.44 167.097 781.163 166.952 780.836 166.841C781.112 166.715 781.354 166.562 781.56 166.38C781.767 166.199 781.938 166.006 782.074 165.799C782.209 165.588 782.31 165.369 782.375 165.143C782.446 164.916 782.481 164.69 782.481 164.463C782.481 163.95 782.396 163.5 782.225 163.112C782.053 162.725 781.812 162.398 781.5 162.131C781.193 161.869 780.821 161.673 780.383 161.542C779.95 161.406 779.475 161.338 778.956 161.338C778.448 161.338 777.98 161.414 777.552 161.565C777.13 161.716 776.762 161.925 776.45 162.191C776.138 162.463 775.894 162.783 775.718 163.15C775.542 163.517 775.454 163.92 775.454 164.358H777.258C777.258 164.121 777.301 163.907 777.386 163.716C777.477 163.525 777.6 163.361 777.756 163.225C777.907 163.089 778.086 162.986 778.292 162.916C778.503 162.84 778.732 162.803 778.979 162.803C779.256 162.803 779.5 162.84 779.711 162.916C779.927 162.991 780.106 163.097 780.247 163.233C780.388 163.379 780.494 163.555 780.564 163.761C780.639 163.968 780.677 164.202 780.677 164.463C780.677 164.705 780.637 164.931 780.556 165.143C780.481 165.349 780.37 165.522 780.224 165.663C780.068 165.824 779.87 165.95 779.628 166.041C779.386 166.126 779.105 166.169 778.783 166.169H777.703Z" fill="black"/>
<line x1="485.479" y1="333.813" x2="544.156" y2="333.812" stroke="black" stroke-width="1.5" stroke-linecap="round"/>
<line x1="492.104" y1="344.854" x2="537.531" y2="344.854" stroke="black" stroke-width="1.5" stroke-linecap="round"/>
<line x1="500.385" y1="355.896" x2="529.25" y2="355.896" stroke="black" stroke-width="1.5" stroke-linecap="round"/>
<path d="M508.746 385.813L508.726 380.208H503.694V382.089H506.35L506.34 385.018C506.233 385.159 506.089 385.283 505.908 385.39C505.726 385.491 505.529 385.575 505.314 385.642C505.092 385.709 504.861 385.759 504.619 385.793C504.378 385.82 504.14 385.833 503.905 385.833C503.509 385.827 503.153 385.759 502.838 385.632C502.529 385.505 502.258 385.323 502.023 385.089C501.835 384.907 501.671 384.699 501.53 384.465C501.396 384.23 501.278 383.978 501.178 383.71C501.05 383.354 500.953 382.968 500.886 382.552C500.825 382.136 500.795 381.697 500.795 381.234V379.342C500.795 378.946 500.819 378.56 500.866 378.185C500.912 377.809 500.986 377.457 501.087 377.128C501.201 376.752 501.345 376.413 501.52 376.111C501.701 375.803 501.912 375.545 502.154 375.337C502.362 375.155 502.597 375.014 502.858 374.914C503.12 374.806 503.405 374.753 503.714 374.753C504.136 374.753 504.502 374.813 504.811 374.934C505.126 375.055 505.391 375.229 505.606 375.457C505.807 375.672 505.968 375.937 506.089 376.252C506.21 376.561 506.3 376.907 506.36 377.289H508.736C508.668 376.591 508.511 375.964 508.263 375.407C508.014 374.843 507.676 374.364 507.246 373.968C506.823 373.579 506.314 373.28 505.716 373.072C505.119 372.864 504.435 372.76 503.663 372.76C503.093 372.76 502.563 372.841 502.073 373.002C501.59 373.163 501.147 373.391 500.745 373.686C500.376 373.968 500.047 374.3 499.758 374.682C499.47 375.065 499.222 375.487 499.014 375.95C498.799 376.44 498.635 376.974 498.521 377.551C498.413 378.128 498.356 378.731 498.35 379.362V381.234C498.356 381.885 498.42 382.505 498.541 383.096C498.661 383.686 498.839 384.226 499.074 384.716C499.282 385.186 499.54 385.612 499.849 385.994C500.164 386.377 500.52 386.702 500.916 386.971C501.312 387.239 501.755 387.447 502.244 387.594C502.734 387.742 503.261 387.816 503.824 387.816C504.435 387.816 505.009 387.752 505.545 387.625C506.082 387.504 506.579 387.333 507.035 387.111C507.397 386.937 507.722 386.739 508.011 386.518C508.299 386.29 508.544 386.055 508.746 385.813ZM520.968 387.615V372.961H518.533L518.513 383.005L513.782 372.961H511.327V387.615H513.772L513.782 377.53L518.543 387.615H520.968ZM523.982 387.615H527.686C528.357 387.615 528.984 387.534 529.568 387.373C530.158 387.212 530.695 386.981 531.178 386.679C531.607 386.404 531.996 386.071 532.345 385.682C532.701 385.293 533.003 384.86 533.251 384.384C533.506 383.894 533.701 383.354 533.835 382.764C533.976 382.167 534.046 381.536 534.046 380.872V379.724C534.046 379.033 533.972 378.383 533.825 377.772C533.677 377.161 533.469 376.601 533.201 376.091C532.939 375.602 532.614 375.159 532.225 374.763C531.842 374.367 531.403 374.038 530.906 373.777C530.45 373.522 529.943 373.324 529.387 373.183C528.83 373.035 528.236 372.961 527.605 372.961H523.982V387.615ZM526.428 374.934H527.605C527.994 374.941 528.357 374.988 528.692 375.075C529.028 375.155 529.33 375.273 529.598 375.427C529.967 375.635 530.286 375.907 530.554 376.242C530.822 376.571 531.037 376.94 531.198 377.349C531.326 377.685 531.423 378.05 531.49 378.446C531.557 378.842 531.591 379.261 531.591 379.704V380.872C531.591 381.321 531.557 381.744 531.49 382.14C531.423 382.536 531.326 382.901 531.198 383.237C531.05 383.633 530.859 383.985 530.624 384.293C530.396 384.595 530.135 384.847 529.839 385.048C529.551 385.243 529.226 385.394 528.863 385.501C528.508 385.602 528.115 385.652 527.686 385.652H526.428V374.934Z" fill="black"/>
<path d="M420.135 274.937C425.929 274.937 430.625 270.241 430.625 264.448C430.625 258.655 425.929 253.958 420.135 253.958" stroke="black" stroke-width="1.5" stroke-linecap="round"/>
</g>
<defs>
<clipPath id="clip0">
<rect width="1060" height="496" fill="white"/>
</clipPath>
<clipPath id="clip1">
<rect x="232.427" y="203.167" width="141.885" height="33.6771" rx="16.8385" fill="white"/>
</clipPath>
</defs>
</svg>
