<svg xmlns="http://www.w3.org/2000/svg" width="836" height="1106" fill="none" viewBox="0 0 836 1106"><path fill="#fff" d="M0 0h836v1106H0z"/><path fill="#000" d="M477.47 64.53a.75.75 0 0 1 0-1.06l4.773-4.773a.75.75 0 1 1 1.06 1.06L479.061 64l4.242 4.243a.75.75 0 0 1-1.06 1.06zm120.06 114.94a.75.75 0 0 1 0 1.06l-4.773 4.773a.749.749 0 1 1-1.06-1.06l4.242-4.243-4.242-4.243a.749.749 0 1 1 1.06-1.06zM478 63.25h55.897v1.5H478zM539.647 69v106h-1.5V69zm4.25 110.25H597v1.5h-53.103zm-4.25-4.25a4.25 4.25 0 0 0 4.25 4.25v1.5a5.75 5.75 0 0 1-5.75-5.75zm-5.75-111.75a5.75 5.75 0 0 1 5.75 5.75h-1.5a4.25 4.25 0 0 0-4.25-4.25z"/><path fill="#000" d="M477.47 64.53a.75.75 0 0 1 0-1.06l4.773-4.773a.75.75 0 1 1 1.06 1.06L479.061 64l4.242 4.243a.75.75 0 0 1-1.06 1.06zm120.06 228.94a.75.75 0 0 1 0 1.06l-4.773 4.773a.749.749 0 1 1-1.06-1.06l4.242-4.243-4.242-4.243a.749.749 0 1 1 1.06-1.06zM478 63.25h55.897v1.5H478zM539.647 69v220h-1.5V69zm4.25 224.25H597v1.5h-53.103zm-4.25-4.25a4.25 4.25 0 0 0 4.25 4.25v1.5a5.75 5.75 0 0 1-5.75-5.75zm-5.75-225.75a5.75 5.75 0 0 1 5.75 5.75h-1.5a4.25 4.25 0 0 0-4.25-4.25z"/><path fill="#000" d="M477.47 64.53a.75.75 0 0 1 0-1.06l4.773-4.773a.75.75 0 1 1 1.06 1.06L479.061 64l4.242 4.243a.75.75 0 0 1-1.06 1.06zm120.06 343.94a.75.75 0 0 1 0 1.06l-4.773 4.773a.749.749 0 1 1-1.06-1.06l4.242-4.243-4.242-4.243a.749.749 0 1 1 1.06-1.06zM478 63.25h55.897v1.5H478zM539.647 69v335h-1.5V69zm4.25 339.25H597v1.5h-53.103zm-4.25-4.25a4.25 4.25 0 0 0 4.25 4.25v1.5a5.75 5.75 0 0 1-5.75-5.75zm-5.75-340.75a5.75 5.75 0 0 1 5.75 5.75h-1.5a4.25 4.25 0 0 0-4.25-4.25z"/><path fill="#000" d="M477.47 64.53a.75.75 0 0 1 0-1.06l4.773-4.773a.75.75 0 1 1 1.06 1.06L479.061 64l4.242 4.243a.75.75 0 0 1-1.06 1.06zm120.06 459.94a.75.75 0 0 1 0 1.06l-4.773 4.773a.749.749 0 1 1-1.06-1.06l4.242-4.243-4.242-4.243a.749.749 0 1 1 1.06-1.06zM478 63.25h55.897v1.5H478zM539.647 69v451h-1.5V69zm4.25 455.25H597v1.5h-53.103zm-4.25-4.25a4.25 4.25 0 0 0 4.25 4.25v1.5a5.75 5.75 0 0 1-5.75-5.75zm-5.75-456.75a5.75 5.75 0 0 1 5.75 5.75h-1.5a4.25 4.25 0 0 0-4.25-4.25z"/><path fill="#000" d="M477.47 64.53a.75.75 0 0 1 0-1.06l4.773-4.773a.75.75 0 1 1 1.06 1.06L479.061 64l4.242 4.243a.75.75 0 1 1-1.06 1.06zm120.06 574.94a.75.75 0 0 1 0 1.06l-4.773 4.773a.749.749 0 1 1-1.06-1.06l4.242-4.243-4.242-4.243a.749.749 0 1 1 1.06-1.06zM478 63.25h55.897v1.5H478zM539.647 69v566h-1.5V69zm4.25 570.25H597v1.5h-53.103zm-4.25-4.25a4.25 4.25 0 0 0 4.25 4.25v1.5a5.75 5.75 0 0 1-5.75-5.75zm-5.75-571.75a5.75 5.75 0 0 1 5.75 5.75h-1.5a4.25 4.25 0 0 0-4.25-4.25z"/><path fill="#000" d="M477.47 64.53a.75.75 0 0 1 0-1.06l4.773-4.773a.75.75 0 1 1 1.06 1.06L479.061 64l4.242 4.243a.75.75 0 1 1-1.06 1.06zm120.06 688.94a.75.75 0 0 1 0 1.06l-4.773 4.773a.749.749 0 1 1-1.06-1.06l4.242-4.243-4.242-4.243a.749.749 0 1 1 1.06-1.06zM478 63.25h55.897v1.5H478zM539.647 69v680h-1.5V69zm4.25 684.25H597v1.5h-53.103zm-4.25-4.25a4.25 4.25 0 0 0 4.25 4.25v1.5a5.75 5.75 0 0 1-5.75-5.75zm-5.75-685.75a5.75 5.75 0 0 1 5.75 5.75h-1.5a4.25 4.25 0 0 0-4.25-4.25z"/><path fill="#000" d="M477.47 64.53a.75.75 0 0 1 0-1.06l4.773-4.773a.75.75 0 1 1 1.06 1.06L479.061 64l4.242 4.243a.75.75 0 1 1-1.06 1.06zm120.06 803.94a.75.75 0 0 1 0 1.06l-4.773 4.773a.749.749 0 1 1-1.06-1.06l4.242-4.243-4.242-4.243a.749.749 0 1 1 1.06-1.06zM478 63.25h55.897v1.5H478zM539.647 69v795h-1.5V69zm4.25 799.25H597v1.5h-53.103zm-4.25-4.25a4.25 4.25 0 0 0 4.25 4.25v1.5a5.75 5.75 0 0 1-5.75-5.75zm-5.75-800.75a5.75 5.75 0 0 1 5.75 5.75h-1.5a4.25 4.25 0 0 0-4.25-4.25zM231.53 64.53a.75.75 0 0 0 0-1.06l-4.773-4.773a.75.75 0 1 0-1.06 1.06L229.939 64l-4.242 4.243a.75.75 0 0 0 1.06 1.06zm-118.06-1.06a.75.75 0 0 0 0 1.06l4.773 4.773a.75.75 0 1 0 1.06-1.06L115.061 64l4.242-4.243a.75.75 0 0 0-1.06-1.06zM231 63.25H114v1.5h117zM412.53 64.53a.75.75 0 0 0 0-1.06l-4.773-4.773a.75.75 0 1 0-1.06 1.06L410.939 64l-4.242 4.243a.75.75 0 0 0 1.06 1.06zm-136.06-1.06a.75.75 0 0 0 0 1.06l4.773 4.773a.75.75 0 1 0 1.06-1.06L278.061 64l4.242-4.243a.75.75 0 0 0-1.06-1.06zM412 63.25H277v1.5h135z"/><path fill="#000" d="M597.53 64.53a.75.75 0 0 0 0-1.06l-4.773-4.773a.75.75 0 1 0-1.06 1.06L595.939 64l-4.242 4.243a.75.75 0 0 0 1.06 1.06zm-136.06-1.06a.75.75 0 0 0 0 1.06l4.773 4.773a.75.75 0 1 0 1.06-1.06L463.061 64l4.242-4.243a.75.75 0 0 0-1.06-1.06zM597 63.25H462v1.5h135zM48.81 981.646v-8.599h-1.648V983h6.398v-1.354zm11.79 1.491q1.08 0 1.839-.424.766-.424 1.135-.957l-.875-.848a2.3 2.3 0 0 1-.869.677q-.526.232-1.134.232-.445 0-.82-.15-.37-.15-.643-.424a2 2 0 0 1-.43-.588 3 3 0 0 1-.233-.813v-.034h5.127v-.704q0-.794-.212-1.463a3.3 3.3 0 0 0-.63-1.156 2.85 2.85 0 0 0-1.031-.745q-.615-.273-1.416-.273a3.4 3.4 0 0 0-2.46 1.039q-.48.5-.752 1.203a4.3 4.3 0 0 0-.274 1.572v.281q0 .758.26 1.415.266.649.752 1.127.485.486 1.162.759a4 4 0 0 0 1.504.274m-.198-6.344q.41 0 .718.144.314.137.519.369.211.239.328.56.117.315.116.636v.109h-3.48a3 3 0 0 1 .233-.758q.157-.336.39-.575.232-.232.526-.355.3-.13.65-.13m6.622 2.454v.144q0 .8.205 1.49.212.684.595 1.182.39.507.936.793.547.28 1.23.281.377 0 .698-.082a2.2 2.2 0 0 0 .916-.451q.158-.13.3-.281v.513q0 .417-.122.745-.117.328-.335.554-.24.232-.581.355-.334.123-.773.123-.252 0-.499-.054a2.2 2.2 0 0 1-.485-.158 2.546 2.546 0 0 1-.895-.697l-.773.991q.246.328.588.561.342.232.718.376a4.2 4.2 0 0 0 1.442.28q.745 0 1.36-.212a3 3 0 0 0 1.067-.601q.437-.403.677-.985a3.3 3.3 0 0 0 .246-1.319v-7.191h-1.484l-.068.745a2.6 2.6 0 0 0-.294-.301 2.143 2.143 0 0 0-.943-.492 2.9 2.9 0 0 0-.746-.089q-.69 0-1.244.28-.546.273-.936.773-.39.498-.595 1.196-.205.69-.205 1.531m1.64.144v-.144q0-.5.103-.936.103-.445.322-.78.21-.335.54-.526a1.53 1.53 0 0 1 .786-.192q.26 0 .478.062.219.055.397.15.198.116.348.281.158.163.267.369v3.24a2 2 0 0 1-.253.362q-.144.164-.328.281-.184.11-.417.171-.226.061-.506.061-.45 0-.78-.185a1.57 1.57 0 0 1-.54-.526 2.2 2.2 0 0 1-.32-.759 4.3 4.3 0 0 1-.096-.929m12.112 3.746q1.08 0 1.84-.424.765-.424 1.134-.957l-.875-.848a2.3 2.3 0 0 1-.868.677q-.527.232-1.135.232-.445 0-.82-.15-.369-.15-.643-.424a2 2 0 0 1-.43-.588 3 3 0 0 1-.233-.813v-.034h5.127v-.704q0-.794-.212-1.463a3.3 3.3 0 0 0-.629-1.156A2.85 2.85 0 0 0 82 975.74q-.615-.273-1.415-.273a3.4 3.4 0 0 0-2.461 1.039q-.479.5-.752 1.203a4.3 4.3 0 0 0-.273 1.572v.281q0 .758.26 1.415.266.649.751 1.127.486.486 1.162.759a4 4 0 0 0 1.504.274m-.198-6.344q.41 0 .718.144.315.137.52.369.21.239.328.56.116.315.116.636v.109h-3.48a3 3 0 0 1 .233-.758q.157-.336.39-.575.231-.232.526-.355.3-.13.65-.13M87.412 983h1.634v-5.277q.11-.184.253-.342a1.67 1.67 0 0 1 .78-.485q.26-.083.56-.083.363 0 .642.083.28.075.479.259.199.185.3.492.104.309.103.766V983h1.634v-4.614q0-.78-.184-1.326a2.4 2.4 0 0 0-.52-.91 2 2 0 0 0-.807-.519 3.1 3.1 0 0 0-1.039-.164 2.7 2.7 0 0 0-1.538.471 3 3 0 0 0-.718.718l-.102-1.052h-1.477zm9.87-3.753v.144q0 .8.205 1.49.205.684.581 1.182.376.507.916.793a2.6 2.6 0 0 0 1.217.281q.642 0 1.135-.233.492-.239.847-.676l.075.772h1.484v-10.5h-1.634v3.794a2.5 2.5 0 0 0-.82-.608 2.5 2.5 0 0 0-1.074-.219q-.682 0-1.23.28a2.6 2.6 0 0 0-.916.773 3.6 3.6 0 0 0-.588 1.196q-.198.69-.198 1.531m1.634.144v-.144q0-.5.095-.936.096-.445.308-.78.198-.335.52-.526a1.53 1.53 0 0 1 .786-.192q.546 0 .902.247.362.239.581.649v3.179q-.22.417-.581.663-.363.239-.916.239-.451 0-.773-.185a1.5 1.5 0 0 1-.526-.526 2.3 2.3 0 0 1-.3-.759 4.3 4.3 0 0 1-.096-.929m10.908 2.625q0 .471.308.799.314.322.875.322.553 0 .868-.322.321-.32.321-.799 0-.478-.314-.807-.315-.335-.875-.335-.575 0-.882.335a1.16 1.16 0 0 0-.301.807m0-5.79q0 .471.308.799.314.322.875.322.553 0 .868-.322.321-.32.321-.799 0-.478-.314-.807-.315-.335-.875-.335-.575 0-.882.335a1.16 1.16 0 0 0-.301.807"/><rect width="23" height="23" x="47" y="1001" fill="#fff" stroke="#000" stroke-width="2" rx="4"/><path fill="#000" d="M88.738 1013.94h-1.647c-.027.3-.087.56-.178.8a1.8 1.8 0 0 1-.362.58q-.233.24-.56.36-.33.12-.753.12-.356 0-.635-.09a1.5 1.5 0 0 1-.486-.3 1.7 1.7 0 0 1-.355-.42 2.7 2.7 0 0 1-.24-.55c-.082-.24-.143-.5-.184-.8a8 8 0 0 1-.055-.93v-1.38q0-.405.041-.78c.032-.26.078-.51.137-.73.077-.26.175-.5.294-.71.123-.21.276-.39.458-.52.132-.11.282-.19.451-.25q.26-.09.581-.09c.305 0 .567.05.786.14.219.08.404.21.554.38.146.17.26.37.342.61.086.24.143.51.17.8h1.641q-.075-.735-.335-1.35c-.168-.4-.4-.75-.697-1.04-.292-.28-.645-.5-1.06-.65q-.615-.24-1.4-.24c-.388 0-.746.06-1.074.16-.324.11-.62.25-.889.44-.282.2-.533.45-.752.74-.214.29-.39.61-.526.97q-.191.48-.287 1.02a6.4 6.4 0 0 0-.096 1.12v1.36q0 .6.096 1.17c.068.37.168.72.3 1.04.133.32.294.62.486.89q.294.405.683.69.405.315.916.48c.347.11.725.16 1.135.16.502 0 .957-.07 1.368-.22q.621-.24 1.073-.66c.296-.28.535-.61.718-1q.273-.6.341-1.32m3.109-.71v.15c0 .54.078 1.04.232 1.49.155.46.38.86.677 1.19.292.34.652.61 1.08.8s.914.28 1.456.28c.538 0 1.019-.09 1.443-.28a3 3 0 0 0 1.08-.8c.291-.33.515-.73.67-1.19.155-.45.232-.95.232-1.49v-.15c0-.53-.077-1.03-.232-1.49a3.4 3.4 0 0 0-.67-1.19c-.296-.34-.659-.6-1.087-.8-.424-.19-.907-.28-1.45-.28s-1.025.09-1.449.28c-.423.2-.781.46-1.073.8-.296.33-.522.73-.677 1.19-.154.46-.232.96-.232 1.49m1.634.15v-.15q0-.48.102-.93.11-.435.335-.78c.146-.22.33-.4.554-.53.228-.13.497-.2.807-.2.314 0 .583.07.806.2.228.13.417.31.568.53q.211.345.32.78.11.45.11.93v.15c0 .33-.036.64-.11.94q-.1.45-.32.78c-.146.22-.333.4-.56.53-.229.13-.495.19-.8.19-.315 0-.586-.06-.814-.19a1.65 1.65 0 0 1-.56-.53q-.227-.33-.336-.78a4.2 4.2 0 0 1-.102-.94m9.685-3.78h-1.422v7.4h1.504v-5.68c.027-.07.057-.13.089-.19.036-.05.077-.1.123-.14.059-.06.129-.1.212-.13a.9.9 0 0 1 .56-.01c.082.03.153.08.212.13.059.06.103.15.13.25.032.1.048.22.048.37v5.4h1.476v-5.66a.7.7 0 0 1 .082-.21.7.7 0 0 1 .137-.16.7.7 0 0 1 .205-.12c.078-.02.169-.04.274-.04.1 0 .191.02.273.04.087.03.159.08.219.13.059.07.105.15.136.26.032.1.048.22.048.37v5.39h1.504v-5.38q0-.585-.123-.99a1.8 1.8 0 0 0-.335-.68 1.4 1.4 0 0 0-.519-.36 1.7 1.7 0 0 0-.65-.12c-.182 0-.351.02-.506.07-.15.04-.287.1-.41.19-.095.06-.184.14-.266.23s-.155.19-.219.29q-.069-.165-.164-.3a1 1 0 0 0-.219-.23.95.95 0 0 0-.376-.19q-.219-.06-.492-.06c-.351 0-.652.08-.902.25-.247.17-.44.4-.581.7zm9.172 10.24h1.634v-3.51c.086.1.18.18.28.27.1.08.205.15.314.22.187.1.39.18.609.23q.335.09.731.09c.465 0 .877-.1 1.238-.29.36-.19.663-.46.909-.79.246-.34.43-.73.553-1.19.128-.46.192-.96.192-1.49v-.15c0-.55-.064-1.06-.192-1.52a3.7 3.7 0 0 0-.553-1.2 2.54 2.54 0 0 0-.916-.77q-.54-.27-1.251-.27c-.242 0-.47.02-.684.08-.214.05-.41.12-.588.22-.137.07-.264.16-.383.26q-.177.15-.328.33l-.061-.76h-1.504zm4.826-6.61v.15q0 .495-.096.93a2.4 2.4 0 0 1-.307.78c-.137.23-.315.4-.534.54a1.57 1.57 0 0 1-.779.19q-.28 0-.512-.06a2.2 2.2 0 0 1-.417-.18 1.5 1.5 0 0 1-.315-.28c-.091-.1-.169-.22-.232-.34v-3.29c.073-.14.157-.26.253-.37q.15-.165.348-.27c.114-.07.244-.13.39-.16q.219-.06.472-.06c.305 0 .567.07.786.19.218.13.398.31.54.52q.205.33.3.78.103.435.103.93m4.948 0v.15c0 .54.077 1.04.232 1.49.155.46.381.86.677 1.19.291.34.651.61 1.08.8.428.19.914.28 1.456.28.538 0 1.018-.09 1.442-.28.429-.19.789-.46 1.08-.8.292-.33.515-.73.67-1.19.155-.45.233-.95.233-1.49v-.15c0-.53-.078-1.03-.233-1.49a3.4 3.4 0 0 0-.67-1.19c-.296-.34-.658-.6-1.087-.8-.423-.19-.906-.28-1.449-.28-.542 0-1.025.09-1.449.28-.424.2-.782.46-1.073.8-.296.33-.522.73-.677 1.19s-.232.96-.232 1.49m1.633.15v-.15q0-.48.103-.93.11-.435.335-.78c.146-.22.33-.4.554-.53.227-.13.496-.2.806-.2.315 0 .584.07.807.2.228.13.417.31.567.53q.213.345.322.78.108.45.109.93v.15c0 .33-.037.64-.109.94q-.103.45-.322.78c-.146.22-.332.4-.56.53s-.495.19-.8.19c-.315 0-.586-.06-.814-.19a1.66 1.66 0 0 1-.56-.53q-.225-.33-.335-.78c-.068-.3-.103-.61-.103-.94m8.756 3.62h1.633v-5.28c.073-.12.158-.23.253-.34q.144-.15.308-.27.211-.135.472-.21a1.7 1.7 0 0 1 .56-.09q.363 0 .643.09c.187.05.346.13.478.26.132.12.233.28.301.49.068.2.103.46.103.76v4.59h1.633v-4.61c0-.52-.061-.97-.184-1.33a2.4 2.4 0 0 0-.52-.91 1.96 1.96 0 0 0-.806-.52 3.1 3.1 0 0 0-1.039-.16q-.431 0-.821.12a2.64 2.64 0 0 0-1.107.68c-.119.12-.228.24-.328.39l-.103-1.06h-1.476zm13.54.14c.72 0 1.333-.14 1.839-.43.51-.28.888-.6 1.135-.95l-.875-.85c-.228.29-.518.52-.869.67q-.526.24-1.134.24-.445 0-.821-.15c-.246-.1-.46-.24-.642-.43a2 2 0 0 1-.431-.58 3 3 0 0 1-.232-.82v-.03h5.127v-.71c0-.53-.071-1.01-.212-1.46a3.2 3.2 0 0 0-.629-1.15 2.9 2.9 0 0 0-1.032-.75q-.616-.27-1.415-.27-.718 0-1.354.27c-.419.18-.788.43-1.107.77q-.479.495-.752 1.2c-.183.47-.274.99-.274 1.57v.28c0 .51.087.98.26 1.42.178.43.428.81.752 1.12.323.33.711.58 1.162.76.456.19.957.28 1.504.28m-.198-6.35q.41 0 .717.15c.21.09.383.21.52.37.141.16.251.34.328.56q.117.315.116.63v.11h-3.479c.05-.28.127-.53.232-.76q.158-.33.39-.57t.526-.36c.201-.08.417-.13.65-.13m6.834 6.21h1.634v-5.28c.073-.12.157-.23.253-.34a2.3 2.3 0 0 1 .307-.27q.213-.135.472-.21a1.7 1.7 0 0 1 .561-.09q.362 0 .642.09c.187.05.346.13.479.26.132.12.232.28.3.49.069.2.103.46.103.76v4.59h1.634v-4.61c0-.52-.062-.97-.185-1.33a2.44 2.44 0 0 0-.519-.91 2 2 0 0 0-.807-.52 3.1 3.1 0 0 0-1.039-.16q-.431 0-.82.12a2.64 2.64 0 0 0-1.108.68c-.118.12-.228.24-.328.39l-.102-1.06h-1.477zm13.369-9.2h-1.64v1.8h-1.791v1.23h1.791v3.63c0 .48.061.88.184 1.22.128.34.303.61.527.83q.335.33.8.48.471.15 1.032.15.308 0 .615-.03c.21-.02.41-.05.602-.08.191-.04.369-.08.533-.13.168-.06.312-.12.43-.19l-.177-1.13c-.082.02-.185.04-.308.07q-.177.03-.383.06c-.141.02-.287.04-.437.05-.151.02-.296.02-.438.02-.196 0-.376-.02-.54-.07a.95.95 0 0 1-.424-.23c-.118-.1-.211-.25-.28-.43a2.2 2.2 0 0 1-.096-.69v-3.53h2.783v-1.23h-2.783z"/><rect width="25" height="25" x="221" y="1000" fill="#7f8c8d" rx="12.5"/><path fill="#000" d="M258.782 1013.21h1.689c.501 0 .961-.08 1.381-.22.423-.15.788-.36 1.093-.62.306-.27.543-.59.711-.95q.253-.57.253-1.26c0-.47-.084-.91-.253-1.29a2.8 2.8 0 0 0-.711-.98c-.305-.26-.67-.47-1.093-.62-.42-.14-.88-.22-1.381-.22h-3.329v9.95h1.64zm0-1.34v-3.48h1.689c.278 0 .526.05.745.13.223.09.412.21.567.37q.232.24.349.57.123.315.123.72c0 .24-.041.46-.123.67-.078.2-.194.38-.349.53q-.232.225-.567.36a2.4 2.4 0 0 1-.745.13zm8.065 1.36v.15c0 .54.077 1.04.232 1.49.155.46.381.86.677 1.19.292.34.652.61 1.08.8s.914.28 1.456.28c.538 0 1.019-.09 1.443-.28.428-.19.788-.46 1.08-.8.291-.33.515-.73.67-1.19.155-.45.232-.95.232-1.49v-.15c0-.53-.077-1.03-.232-1.49a3.4 3.4 0 0 0-.67-1.19c-.296-.34-.659-.6-1.087-.8-.424-.19-.907-.28-1.449-.28-.543 0-1.026.09-1.45.28-.423.2-.781.46-1.073.8-.296.33-.522.73-.677 1.19s-.232.96-.232 1.49m1.634.15v-.15q0-.48.102-.93.11-.435.335-.78c.146-.22.331-.4.554-.53.228-.13.497-.2.807-.2.314 0 .583.07.806.2.228.13.417.31.568.53q.212.345.321.78.11.45.109.93v.15c0 .33-.036.64-.109.94q-.103.45-.321.78c-.146.22-.333.4-.561.53s-.494.19-.8.19c-.314 0-.585-.06-.813-.19a1.65 1.65 0 0 1-.561-.53q-.225-.33-.335-.78c-.068-.3-.102-.61-.102-.94m9.37 3.62h1.388l.936-4.2.164-.91.171.91.957 4.2h1.388l1.429-7.4H282.8l-.663 4.52-.13.9-.157-.9-.964-4.52h-1.073l-.964 4.54-.15.85-.116-.85-.684-4.54h-1.476zm12.925.14c.72 0 1.333-.14 1.839-.43.511-.28.889-.6 1.135-.95l-.875-.85a2.2 2.2 0 0 1-.868.67q-.526.24-1.135.24-.445 0-.82-.15c-.246-.1-.461-.24-.643-.43a2 2 0 0 1-.431-.58 3 3 0 0 1-.232-.82v-.03h5.127v-.71c0-.53-.071-1.01-.212-1.46a3.2 3.2 0 0 0-.629-1.15 2.9 2.9 0 0 0-1.032-.75q-.615-.27-1.415-.27-.718 0-1.354.27c-.419.18-.788.43-1.107.77q-.479.495-.752 1.2c-.182.47-.273.99-.273 1.57v.28c0 .51.086.98.259 1.42.178.43.429.81.752 1.12.324.33.711.58 1.162.76.456.19.957.28 1.504.28m-.198-6.35q.41 0 .718.15c.209.09.383.21.519.37.142.16.251.34.329.56q.116.315.116.63v.11h-3.48c.05-.28.128-.53.233-.76q.156-.33.389-.57t.527-.36c.2-.08.417-.13.649-.13m11.948-1.32c-.511 0-.978.12-1.402.35-.419.24-.779.57-1.08.98l-.007-.17-.068-1.03h-1.531v7.4h1.634v-4.57c.086-.22.193-.41.321-.58.127-.17.282-.31.465-.41a1.8 1.8 0 0 1 .581-.26c.219-.05.465-.08.738-.08.242 0 .483.01.725.04q.369.045.745.12l.232-1.61a3.6 3.6 0 0 0-.588-.13 6 6 0 0 0-.765-.05m15.268-2.42v1.36h2.078v7.24h-2.078v1.35h5.865v-1.35h-2.126v-7.24h2.126v-1.36zm11.92 10.8 3.903-10.8h-1.497l-3.91 10.8zm14.757-5.16v-1.32c0-.41-.036-.81-.109-1.19a5 5 0 0 0-.328-1.09 4.4 4.4 0 0 0-.492-.87 3.5 3.5 0 0 0-.691-.69 3.3 3.3 0 0 0-.895-.46 3.5 3.5 0 0 0-1.094-.16c-.392 0-.752.05-1.08.16-.324.11-.613.26-.868.46-.265.2-.495.43-.691.71-.191.27-.353.56-.485.88q-.205.51-.308 1.08a6.6 6.6 0 0 0-.102 1.17v1.32c0 .38.032.76.095 1.13.064.37.16.71.288 1.03q.198.51.492.93c.2.29.433.53.697.73.26.19.554.35.882.46.332.11.697.17 1.094.17a3.5 3.5 0 0 0 1.052-.16c.324-.11.618-.25.882-.43q.41-.3.725-.72c.209-.28.385-.59.526-.92.132-.33.233-.69.301-1.06.073-.38.109-.76.109-1.16m-1.654-1.33v1.33a8 8 0 0 1-.048.73 5 5 0 0 1-.116.68q-.096.375-.26.69c-.105.21-.237.38-.396.54-.137.13-.301.23-.493.31q-.28.12-.628.12a1.6 1.6 0 0 1-.643-.12 1.6 1.6 0 0 1-.485-.33 1.9 1.9 0 0 1-.376-.53q-.15-.33-.24-.69a5 5 0 0 1-.116-.69 7 7 0 0 1-.034-.71v-1.33c0-.25.011-.49.034-.73.028-.25.069-.48.123-.7q.089-.375.253-.69.165-.315.403-.54a1.54 1.54 0 0 1 1.067-.4c.232 0 .44.04.622.11q.273.12.485.3.24.225.404.54c.114.2.205.43.273.68q.089.33.123.69c.027.24.043.49.048.74"/><rect width="25" height="25" x="221" y="1035" fill="#c11f09" rx="12.5"/><path fill="#000" d="M258.967 1042.05h-2.037v9.95h1.538v-3.38l-.089-4.28 1.388 4.59h.854l1.531-4.75-.095 4.44v3.38h1.545v-9.95h-2.044l-1.361 4.26zm12.904 9.95h1.668v-.12a3 3 0 0 1-.212-.68 5.5 5.5 0 0 1-.068-.9v-3.29q0-.63-.232-1.11a2.2 2.2 0 0 0-.643-.8 2.9 2.9 0 0 0-.977-.47 4.3 4.3 0 0 0-1.21-.16c-.483 0-.914.06-1.292.19-.374.12-.689.29-.944.5a2.2 2.2 0 0 0-.601.73c-.137.27-.208.56-.212.85h1.64q0-.21.076-.39a.74.74 0 0 1 .246-.32c.109-.1.246-.18.41-.23.168-.05.364-.08.588-.08q.369 0 .649.09c.192.06.353.15.486.26.123.12.216.25.28.41.068.15.102.32.102.52v.5h-1.189q-.8 0-1.436.15c-.419.1-.772.24-1.059.43q-.465.315-.711.78-.24.465-.239 1.08c0 .31.061.6.184.88q.191.405.533.69c.224.19.493.35.807.46.319.11.67.17 1.053.17.237 0 .458-.03.663-.07.205-.05.396-.11.574-.19s.337-.17.479-.28c.145-.11.275-.22.389-.34.023.14.048.28.075.41q.048.195.123.33m-1.989-1.18c-.209 0-.392-.02-.547-.07a1.3 1.3 0 0 1-.389-.22.9.9 0 0 1-.24-.33 1.1 1.1 0 0 1-.082-.42c0-.18.032-.35.096-.49a.95.95 0 0 1 .308-.38c.155-.12.362-.22.622-.28.259-.07.567-.1.923-.1h1.052v1.36c-.059.12-.143.24-.253.35-.109.11-.239.2-.389.29a2 2 0 0 1-.506.21c-.182.06-.381.08-.595.08m10.601-3.73-1.75-2.49h-1.798l2.591 3.65-2.68 3.75h1.812l1.839-2.58 1.845 2.58h1.805l-2.68-3.75 2.598-3.65h-1.811zm23.608 1.85h-1.647c-.028.3-.087.56-.178.8-.091.23-.212.42-.362.58q-.232.24-.561.36-.328.12-.752.12-.356 0-.636-.09a1.5 1.5 0 0 1-.485-.3 1.7 1.7 0 0 1-.355-.42 2.7 2.7 0 0 1-.24-.55c-.082-.24-.143-.5-.184-.8q-.055-.435-.055-.93v-1.38q0-.405.041-.78c.032-.26.078-.51.137-.73.077-.26.175-.5.294-.71.123-.21.275-.39.458-.52.132-.11.282-.19.451-.25q.26-.09.581-.09c.305 0 .567.05.786.14.219.08.403.21.554.38.146.17.26.37.342.61.086.24.143.51.17.8h1.641q-.075-.735-.335-1.35c-.168-.4-.401-.75-.697-1.04-.292-.28-.645-.5-1.06-.65q-.615-.24-1.401-.24c-.387 0-.745.06-1.073.16-.324.11-.62.25-.889.44-.283.2-.533.45-.752.74a4 4 0 0 0-.526.97q-.192.48-.287 1.02c-.064.36-.096.73-.096 1.12v1.36q0 .6.096 1.17c.068.37.168.72.3 1.04.133.32.294.62.486.89q.294.405.683.69.404.315.916.48c.347.11.725.16 1.135.16.501 0 .957-.07 1.367-.22a3.3 3.3 0 0 0 1.074-.66c.296-.28.535-.61.717-1q.274-.6.342-1.32m8.256 3.06h1.484v-7.4h-1.641v5.24a2 2 0 0 1-.232.38c-.092.11-.196.2-.315.28a1.8 1.8 0 0 1-.492.22c-.187.05-.399.08-.636.08q-.342 0-.594-.09a.9.9 0 0 1-.417-.3 1.3 1.3 0 0 1-.24-.55 4 4 0 0 1-.075-.86v-4.4h-1.634v4.39c0 .55.062 1.03.185 1.43s.296.72.519.98q.342.375.814.57c.319.11.67.17 1.053.17q.67 0 1.21-.3.54-.315.916-.87zm10.355-7.53c-.51 0-.977.12-1.401.35-.42.24-.78.57-1.08.98l-.007-.17-.069-1.03h-1.531v7.4h1.634v-4.57c.087-.22.194-.41.321-.58.128-.17.283-.31.465-.41.169-.12.362-.2.581-.26.219-.05.465-.08.738-.08.242 0 .484.01.725.04q.37.045.745.12l.233-1.61a3.6 3.6 0 0 0-.588-.13 6 6 0 0 0-.766-.05m10.088 0c-.51 0-.977.12-1.401.35-.419.24-.779.57-1.08.98l-.007-.17-.068-1.03h-1.532v7.4h1.634v-4.57c.087-.22.194-.41.321-.58.128-.17.283-.31.465-.41.169-.12.363-.2.581-.26.219-.05.465-.08.739-.08.241 0 .483.01.724.04q.37.045.745.12l.233-1.61a3.6 3.6 0 0 0-.588-.13 6 6 0 0 0-.766-.05m8.427 7.67c.72 0 1.333-.14 1.839-.43.511-.28.889-.6 1.135-.95l-.875-.85a2.2 2.2 0 0 1-.868.67q-.526.24-1.135.24-.444 0-.82-.15c-.246-.1-.461-.24-.643-.43a2 2 0 0 1-.431-.58 3 3 0 0 1-.232-.82v-.03h5.127v-.71c0-.53-.071-1.01-.212-1.46a3.2 3.2 0 0 0-.629-1.15 2.9 2.9 0 0 0-1.032-.75q-.615-.27-1.415-.27-.718 0-1.354.27c-.419.18-.788.43-1.107.77q-.479.495-.752 1.2c-.182.47-.273.99-.273 1.57v.28c0 .51.086.98.259 1.42.178.43.429.81.752 1.12.324.33.711.58 1.162.76.456.19.957.28 1.504.28m-.198-6.35q.41 0 .718.15c.21.09.383.21.519.37.142.16.251.34.329.56q.116.315.116.63v.11h-3.48c.05-.28.128-.53.233-.76q.156-.33.389-.57t.527-.36c.2-.08.417-.13.649-.13m6.834 6.21h1.634v-5.28c.073-.12.157-.23.253-.34q.143-.15.308-.27.212-.135.471-.21.26-.09.561-.09.363 0 .643.09c.186.05.346.13.478.26.132.12.232.28.301.49.068.2.102.46.102.76v4.59h1.634v-4.61c0-.52-.061-.97-.184-1.33a2.44 2.44 0 0 0-.52-.91 1.96 1.96 0 0 0-.807-.52c-.314-.11-.66-.16-1.039-.16q-.43 0-.82.12a2.64 2.64 0 0 0-1.107.68c-.119.12-.228.24-.328.39l-.103-1.06h-1.477zm13.37-9.2h-1.641v1.8h-1.791v1.23h1.791v3.63c0 .48.062.88.185 1.22.127.34.303.61.526.83q.335.33.8.48.472.15 1.032.15.308 0 .615-.03a10 10 0 0 0 .602-.08c.191-.04.369-.08.533-.13.169-.06.312-.12.431-.19l-.178-1.13c-.082.02-.184.04-.307.07q-.179.03-.383.06c-.142.02-.287.04-.438.05-.15.02-.296.02-.437.02-.196 0-.376-.02-.54-.07a.95.95 0 0 1-.424-.23c-.119-.1-.212-.25-.28-.43a2.2 2.2 0 0 1-.096-.69v-3.53h2.782v-1.23h-2.782z"/><rect width="25" height="25" x="416" y="1000" fill="#f1c40f" rx="12.5"/><path fill="#000" d="M458.738 1013.94h-1.647c-.028.3-.087.56-.178.8-.091.23-.212.42-.362.58q-.232.24-.561.36-.328.12-.752.12-.356 0-.635-.09a1.5 1.5 0 0 1-.486-.3 1.7 1.7 0 0 1-.355-.42 2.7 2.7 0 0 1-.24-.55c-.082-.24-.143-.5-.184-.8q-.055-.435-.055-.93v-1.38q0-.405.041-.78c.032-.26.078-.51.137-.73.077-.26.175-.5.294-.71.123-.21.276-.39.458-.52.132-.11.282-.19.451-.25q.26-.09.581-.09c.305 0 .567.05.786.14.219.08.404.21.554.38.146.17.26.37.342.61.086.24.143.51.171.8h1.64q-.075-.735-.335-1.35c-.168-.4-.401-.75-.697-1.04-.292-.28-.645-.5-1.06-.65q-.615-.24-1.401-.24c-.387 0-.745.06-1.073.16-.324.11-.62.25-.889.44-.282.2-.533.45-.752.74-.214.29-.389.61-.526.97q-.192.48-.287 1.02c-.064.36-.096.73-.096 1.12v1.36q0 .6.096 1.17c.068.37.168.72.301 1.04s.293.62.485.89q.294.405.684.69.403.315.916.48c.346.11.724.16 1.134.16.502 0 .957-.07 1.367-.22a3.3 3.3 0 0 0 1.074-.66c.296-.28.535-.61.717-1q.275-.6.342-1.32m3.109-.71v.15c0 .54.077 1.04.232 1.49.155.46.381.86.677 1.19.292.34.652.61 1.08.8s.914.28 1.456.28c.538 0 1.019-.09 1.443-.28.428-.19.788-.46 1.08-.8.291-.33.515-.73.67-1.19.155-.45.232-.95.232-1.49v-.15c0-.53-.077-1.03-.232-1.49a3.4 3.4 0 0 0-.67-1.19c-.296-.34-.659-.6-1.087-.8-.424-.19-.907-.28-1.449-.28-.543 0-1.026.09-1.45.28-.423.2-.781.46-1.073.8-.296.33-.522.73-.677 1.19s-.232.96-.232 1.49m1.634.15v-.15q0-.48.102-.93.11-.435.335-.78c.146-.22.331-.4.554-.53.228-.13.497-.2.807-.2.314 0 .583.07.806.2.228.13.417.31.568.53q.212.345.321.78.11.45.109.93v.15c0 .33-.036.64-.109.94q-.103.45-.321.78c-.146.22-.333.4-.561.53s-.494.19-.8.19c-.314 0-.585-.06-.813-.19a1.65 1.65 0 0 1-.561-.53q-.225-.33-.335-.78c-.068-.3-.102-.61-.102-.94m8.755 3.62h1.634v-5.28c.073-.12.157-.23.253-.34a2.3 2.3 0 0 1 .307-.27q.213-.135.472-.21a1.7 1.7 0 0 1 .561-.09q.361 0 .642.09c.187.05.346.13.479.26.132.12.232.28.3.49.069.2.103.46.103.76v4.59h1.634v-4.61c0-.52-.062-.97-.185-1.33a2.44 2.44 0 0 0-.519-.91 2 2 0 0 0-.807-.52 3.1 3.1 0 0 0-1.039-.16q-.431 0-.82.12a2.64 2.64 0 0 0-1.108.68c-.118.12-.228.24-.328.39l-.102-1.06h-1.477zm12.508 0h1.442l2.899-7.4h-1.695l-1.812 5.37-.109.49-.11-.49-1.832-5.37h-1.695zm11.121.14c.72 0 1.333-.14 1.838-.43.511-.28.889-.6 1.135-.95l-.875-.85a2.2 2.2 0 0 1-.868.67q-.526.24-1.135.24-.444 0-.82-.15c-.246-.1-.46-.24-.643-.43a2 2 0 0 1-.43-.58 3 3 0 0 1-.233-.82v-.03h5.127v-.71c0-.53-.07-1.01-.212-1.46a3.2 3.2 0 0 0-.629-1.15 2.9 2.9 0 0 0-1.032-.75q-.615-.27-1.415-.27-.718 0-1.353.27c-.42.18-.789.43-1.108.77a3.6 3.6 0 0 0-.752 1.2c-.182.47-.273.99-.273 1.57v.28c0 .51.086.98.26 1.42.177.43.428.81.752 1.12.323.33.71.58 1.162.76.455.19.957.28 1.504.28m-.199-6.35q.41 0 .718.15c.21.09.383.21.52.37.141.16.25.34.328.56q.116.315.116.63v.11h-3.48c.051-.28.128-.53.233-.76q.158-.33.39-.57.231-.24.526-.36c.2-.08.417-.13.649-.13m11.948-1.32c-.511 0-.978.12-1.401.35-.42.24-.78.57-1.081.98l-.006-.17-.069-1.03h-1.531v7.4h1.634v-4.57c.086-.22.193-.41.321-.58s.283-.31.465-.41c.169-.12.362-.2.581-.26.219-.05.465-.08.738-.08.242 0 .483.01.725.04q.369.045.745.12l.232-1.61a3.6 3.6 0 0 0-.588-.13 6 6 0 0 0-.765-.05m9.808 5.53c0 .12-.028.22-.082.33a.9.9 0 0 1-.233.26q-.19.15-.512.24-.315.09-.739.09-.314 0-.622-.06a1.8 1.8 0 0 1-.547-.22c-.164-.1-.3-.22-.41-.38a1.15 1.15 0 0 1-.177-.58h-1.586q0 .465.218.9c.146.3.36.56.643.79.278.23.622.42 1.032.56q.622.21 1.422.21c.479 0 .914-.05 1.306-.16s.729-.26 1.011-.46c.278-.19.493-.43.643-.7q.232-.42.232-.9c0-.34-.073-.63-.218-.88a2 2 0 0 0-.616-.64 3.7 3.7 0 0 0-.957-.44 9.4 9.4 0 0 0-1.237-.3 7 7 0 0 1-.807-.19 1.8 1.8 0 0 1-.492-.22.7.7 0 0 1-.266-.27.8.8 0 0 1-.076-.35c0-.12.03-.24.089-.34q.09-.18.267-.3.178-.135.451-.21c.187-.06.403-.08.65-.08.268 0 .503.03.704.11.2.07.364.16.492.28.109.1.191.21.246.34q.089.18.089.39h1.634q0-.495-.219-.93a2.2 2.2 0 0 0-.622-.75 3.1 3.1 0 0 0-.998-.49 4.5 4.5 0 0 0-1.326-.18c-.461 0-.88.06-1.258.17-.374.12-.693.28-.957.49q-.404.3-.622.72a1.8 1.8 0 0 0-.212.85c0 .32.07.59.212.83.141.24.337.44.587.61.256.19.559.34.91.47.355.13.747.23 1.175.32q.513.09.855.21c.228.07.412.15.554.23.132.09.225.19.28.29.059.1.089.21.089.34m5.631-5.4v1.36h2.276v4.69h-2.276v1.35h6.098v-1.35h-2.174v-6.05zm2.126-1.91c0 .17.041.33.123.46.087.13.212.21.376.26.159.05.305.07.437.04a.8.8 0 0 0 .342-.17.698.698 0 0 0 .54-.82.68.68 0 0 0-.266-.48c-.151-.13-.349-.19-.595-.19-.146 0-.278.02-.397.07a.9.9 0 0 0-.293.17.9.9 0 0 0-.199.3.9.9 0 0 0-.068.36m7.285 5.54v.15c0 .54.078 1.04.233 1.49.155.46.38.86.677 1.19.291.34.651.61 1.08.8.428.19.913.28 1.456.28.537 0 1.018-.09 1.442-.28.428-.19.789-.46 1.08-.8.292-.33.515-.73.67-1.19.155-.45.233-.95.233-1.49v-.15c0-.53-.078-1.03-.233-1.49a3.4 3.4 0 0 0-.67-1.19c-.296-.34-.658-.6-1.087-.8-.424-.19-.907-.28-1.449-.28s-1.025.09-1.449.28c-.424.2-.782.46-1.073.8-.297.33-.522.73-.677 1.19s-.233.96-.233 1.49m1.634.15v-.15q0-.48.103-.93.109-.435.335-.78c.146-.22.33-.4.553-.53.228-.13.497-.2.807-.2.315 0 .583.07.807.2.228.13.417.31.567.53q.212.345.321.78.11.45.11.93v.15c0 .33-.037.64-.11.94q-.102.45-.321.78c-.146.22-.333.4-.56.53s-.495.19-.8.19c-.315 0-.586-.06-.814-.19a1.65 1.65 0 0 1-.56-.53 2.3 2.3 0 0 1-.335-.78 4.2 4.2 0 0 1-.103-.94m8.755 3.62h1.634v-5.28c.073-.12.157-.23.253-.34q.143-.15.308-.27.212-.135.471-.21.26-.09.561-.09.363 0 .643.09c.186.05.346.13.478.26.132.12.232.28.301.49.068.2.102.46.102.76v4.59h1.634v-4.61c0-.52-.061-.97-.184-1.33a2.44 2.44 0 0 0-.52-.91 1.96 1.96 0 0 0-.807-.52c-.314-.11-.66-.16-1.039-.16q-.43 0-.82.12a2.64 2.64 0 0 0-1.107.68c-.119.12-.228.24-.328.39l-.103-1.06h-1.477zm27.197-8.59v-1.36h-7.752v1.36h3.049v8.59h1.634v-8.59zm3.998 11.58c.36 0 .674-.07.943-.19.269-.13.501-.28.697-.47q.294-.27.486-.6c.132-.21.241-.42.328-.61l3.753-8.52h-1.812l-1.784 4.54-.308.8-.253-.82-1.838-4.52h-1.798l3.151 7.07-.465.88c-.05.1-.105.2-.164.29-.054.09-.127.2-.219.32-.095.11-.207.22-.334.31a.67.67 0 0 1-.431.14c-.073 0-.169 0-.287-.01-.114 0-.217-.01-.308-.01l-.225 1.27c.132.04.268.06.41.09.146.02.298.04.458.04m9.172-.15h1.634v-3.51c.086.1.18.18.28.27.1.08.205.15.314.22.187.1.39.18.609.23q.335.09.731.09c.465 0 .878-.1 1.238-.29s.663-.46.909-.79c.246-.34.43-.73.553-1.19.128-.46.192-.96.192-1.49v-.15c0-.55-.064-1.06-.192-1.52a3.7 3.7 0 0 0-.553-1.2 2.54 2.54 0 0 0-.916-.77q-.54-.27-1.251-.27c-.242 0-.47.02-.684.08-.214.05-.41.12-.588.22-.136.07-.264.16-.383.26q-.177.15-.328.33l-.061-.76h-1.504zm4.826-6.61v.15q0 .495-.096.93a2.4 2.4 0 0 1-.307.78c-.137.23-.315.4-.533.54-.215.12-.474.19-.78.19q-.28 0-.512-.06a2.2 2.2 0 0 1-.417-.18 1.5 1.5 0 0 1-.315-.28c-.091-.1-.169-.22-.232-.34v-3.29c.073-.14.157-.26.253-.37q.15-.165.348-.27c.114-.07.244-.13.39-.16q.219-.06.472-.06c.305 0 .567.07.786.19.218.13.398.31.54.52q.204.33.301.78.102.435.102.93m8.701 3.91c.72 0 1.333-.14 1.838-.43.511-.28.889-.6 1.135-.95l-.875-.85a2.2 2.2 0 0 1-.868.67q-.526.24-1.135.24-.444 0-.82-.15c-.246-.1-.46-.24-.643-.43a2 2 0 0 1-.43-.58 3 3 0 0 1-.233-.82v-.03h5.127v-.71c0-.53-.07-1.01-.212-1.46a3.2 3.2 0 0 0-.629-1.15 2.9 2.9 0 0 0-1.032-.75q-.615-.27-1.415-.27-.718 0-1.353.27c-.42.18-.789.43-1.108.77a3.6 3.6 0 0 0-.752 1.2c-.182.47-.273.99-.273 1.57v.28c0 .51.086.98.26 1.42.177.43.428.81.752 1.12.323.33.71.58 1.162.76.455.19.957.28 1.504.28m-.199-6.35q.41 0 .718.15c.21.09.383.21.52.37.141.16.25.34.328.56q.116.315.116.63v.11h-3.48c.051-.28.128-.53.233-.76q.158-.33.39-.57t.526-.36c.2-.08.417-.13.649-.13"/><rect width="25" height="25" x="416" y="1035" fill="#1da086" rx="12.5"/><path fill="#000" d="M454.391 1052h1.599l3.063-9.95h-1.791l-1.908 6.88-.17.6-.164-.59-1.894-6.89h-1.798zm7.456-3.77v.15c0 .54.077 1.04.232 1.49.155.46.381.86.677 1.19.292.34.652.61 1.08.8s.914.28 1.456.28c.538 0 1.019-.09 1.443-.28.428-.19.788-.46 1.08-.8.291-.33.515-.73.67-1.19.155-.45.232-.95.232-1.49v-.15c0-.53-.077-1.03-.232-1.49a3.4 3.4 0 0 0-.67-1.19c-.296-.34-.659-.6-1.087-.8-.424-.19-.907-.28-1.449-.28-.543 0-1.026.09-1.45.28-.423.2-.781.46-1.073.8-.296.33-.522.73-.677 1.19s-.232.96-.232 1.49m1.634.15v-.15q0-.48.102-.93.11-.435.335-.78c.146-.22.331-.4.554-.53.228-.13.497-.2.807-.2.314 0 .583.07.806.2.228.13.417.31.568.53q.212.345.321.78.11.45.109.93v.15c0 .33-.036.64-.109.94q-.103.45-.321.78c-.146.22-.333.4-.561.53s-.494.19-.8.19c-.314 0-.585-.06-.813-.19a1.65 1.65 0 0 1-.561-.53q-.225-.33-.335-.78c-.068-.3-.102-.61-.102-.94m9.069-6.88v1.36h2.338v7.79h-2.338v1.35h6.228v-1.35h-2.242v-9.15zm13.055 1.3h-1.64v1.8h-1.791v1.23h1.791v3.63c0 .48.061.88.184 1.22.128.34.303.61.527.83q.335.33.8.48.471.15 1.032.15.307 0 .615-.03c.21-.02.41-.05.602-.08.191-.04.369-.08.533-.13.168-.06.312-.12.43-.19l-.177-1.13c-.082.02-.185.04-.308.07q-.177.03-.383.06c-.141.02-.287.04-.437.05-.151.02-.296.02-.438.02-.196 0-.376-.02-.54-.07a.95.95 0 0 1-.424-.23c-.118-.1-.212-.25-.28-.43a2.2 2.2 0 0 1-.096-.69v-3.53h2.783v-1.23h-2.783zm11.531 9.2h1.668v-.12a2.8 2.8 0 0 1-.212-.68 5.4 5.4 0 0 1-.068-.9v-3.29q0-.63-.233-1.11a2.2 2.2 0 0 0-.642-.8c-.274-.21-.6-.36-.978-.47a4.3 4.3 0 0 0-1.21-.16c-.483 0-.914.06-1.292.19-.373.12-.688.29-.943.5-.264.21-.465.46-.602.73s-.207.56-.212.85h1.641q0-.21.075-.39a.76.76 0 0 1 .246-.32c.11-.1.246-.18.41-.23.169-.05.365-.08.588-.08q.37 0 .65.09c.191.06.353.15.485.26.123.12.217.25.28.41.069.15.103.32.103.52v.5h-1.19q-.8 0-1.435.15c-.419.1-.773.24-1.06.43q-.465.315-.711.78-.239.465-.239 1.08c0 .31.062.6.185.88q.19.405.533.69c.223.19.492.35.807.46.319.11.669.17 1.052.17.237 0 .458-.03.663-.07.205-.05.397-.11.575-.19s.337-.17.478-.28c.146-.11.276-.22.39-.34.023.14.048.28.075.41q.048.195.123.33m-1.989-1.18c-.21 0-.392-.02-.547-.07a1.3 1.3 0 0 1-.39-.22.9.9 0 0 1-.239-.33 1.1 1.1 0 0 1-.082-.42c0-.18.032-.35.096-.49a.96.96 0 0 1 .307-.38c.155-.12.363-.22.622-.28.26-.07.568-.1.923-.1h1.053v1.36c-.059.12-.144.24-.253.35s-.239.2-.39.29q-.225.135-.506.21c-.182.06-.38.08-.594.08m7.142-2.57v.14c0 .53.068 1.03.205 1.49.141.46.339.85.594 1.18.26.34.572.61.937.8.365.18.775.28 1.23.28q.377 0 .698-.09c.214-.05.41-.12.588-.22.118-.06.227-.14.328-.23.105-.08.205-.18.301-.28v.52c0 .27-.041.52-.124.74-.077.22-.189.4-.334.55q-.24.24-.582.36-.334.12-.772.12c-.169 0-.335-.01-.499-.05a2.269 2.269 0 0 1-.957-.45 2.4 2.4 0 0 1-.424-.41l-.772 1c.164.21.36.4.588.56.227.15.467.28.717.37q.377.15.752.21c.251.05.481.07.691.07q.744 0 1.36-.21.622-.21 1.066-.6.438-.405.677-.99.246-.57.246-1.32v-7.19h-1.483l-.068.75a2.6 2.6 0 0 0-.294-.3 2.028 2.028 0 0 0-.944-.49 2.9 2.9 0 0 0-.745-.09c-.46 0-.875.09-1.244.28a2.7 2.7 0 0 0-.937.77q-.39.495-.594 1.2-.205.69-.205 1.53m1.64.14v-.14c0-.34.034-.65.103-.94q.102-.45.321-.78c.141-.22.321-.4.54-.53.219-.12.481-.19.786-.19.173 0 .333.02.479.07q.219.045.396.15c.132.07.249.17.349.28q.158.165.267.36v3.25q-.11.195-.253.36c-.096.11-.205.2-.329.28-.123.07-.262.13-.417.17q-.225.06-.505.06a1.6 1.6 0 0 1-.78-.18 1.65 1.65 0 0 1-.54-.53 2.3 2.3 0 0 1-.321-.76 4.3 4.3 0 0 1-.096-.93m12.112 3.75c.72 0 1.333-.14 1.839-.43.51-.28.888-.6 1.135-.95l-.875-.85c-.228.29-.518.52-.869.67q-.527.24-1.134.24-.445 0-.821-.15c-.246-.1-.46-.24-.642-.43a2 2 0 0 1-.431-.58 3 3 0 0 1-.232-.82v-.03h5.127v-.71c0-.53-.071-1.01-.212-1.46a3.2 3.2 0 0 0-.629-1.15 2.9 2.9 0 0 0-1.032-.75q-.616-.27-1.415-.27-.718 0-1.354.27c-.419.18-.788.43-1.107.77q-.479.495-.752 1.2c-.183.47-.274.99-.274 1.57v.28c0 .51.087.98.26 1.42.178.43.428.81.752 1.12.323.33.711.58 1.162.76.456.19.957.28 1.504.28m-.198-6.35q.41 0 .717.15c.21.09.383.21.52.37.141.16.251.34.328.56q.117.315.116.63v.11h-3.479c.05-.28.127-.53.232-.76q.158-.33.39-.57t.526-.36c.201-.08.417-.13.65-.13m20.224 2.35 1.907 3.86h1.757v-.09l-2.126-4.16c.273-.13.522-.27.745-.44s.415-.36.574-.59q.24-.33.37-.75.136-.42.136-.93c0-.5-.086-.93-.26-1.3a2.6 2.6 0 0 0-.724-.93 3.1 3.1 0 0 0-1.121-.56c-.433-.13-.907-.2-1.422-.2h-3.158v9.95h1.64v-3.86zm-1.682-1.34v-3.41h1.518c.282 0 .538.04.766.11s.421.17.581.31c.173.15.303.33.389.55q.137.315.137.75c0 .25-.041.48-.123.68q-.123.3-.342.51c-.164.16-.364.28-.601.37-.233.08-.495.12-.787.13zm13.192 5.2h1.668v-.12a2.8 2.8 0 0 1-.212-.68 5.5 5.5 0 0 1-.068-.9v-3.29q0-.63-.233-1.11a2.2 2.2 0 0 0-.642-.8c-.274-.21-.6-.36-.978-.47a4.3 4.3 0 0 0-1.21-.16c-.483 0-.914.06-1.292.19-.373.12-.688.29-.943.5-.264.21-.465.46-.602.73s-.207.56-.212.85h1.641q0-.21.075-.39a.76.76 0 0 1 .246-.32c.11-.1.246-.18.41-.23.169-.05.365-.08.588-.08q.37 0 .65.09c.191.06.353.15.485.26.123.12.217.25.28.41.069.15.103.32.103.52v.5h-1.19q-.8 0-1.435.15c-.419.1-.773.24-1.06.43q-.465.315-.711.78-.239.465-.239 1.08c0 .31.062.6.185.88q.19.405.533.69c.223.19.492.35.807.46.319.11.67.17 1.052.17.237 0 .458-.03.663-.07.205-.05.397-.11.575-.19s.337-.17.478-.28c.146-.11.276-.22.39-.34.023.14.048.28.075.41q.048.195.123.33m-1.989-1.18c-.21 0-.392-.02-.547-.07a1.3 1.3 0 0 1-.39-.22.9.9 0 0 1-.239-.33 1.1 1.1 0 0 1-.082-.42c0-.18.032-.35.096-.49a.96.96 0 0 1 .307-.38c.155-.12.363-.22.622-.28.26-.07.568-.1.923-.1h1.053v1.36c-.059.12-.144.24-.253.35s-.239.2-.39.29q-.226.135-.505.21a1.9 1.9 0 0 1-.595.08m7.354 1.18h1.633v-5.28c.073-.12.158-.23.253-.34q.144-.15.308-.27.211-.135.472-.21a1.7 1.7 0 0 1 .56-.09q.363 0 .643.09c.187.05.346.13.478.26.132.12.233.28.301.49.068.2.103.46.103.76v4.59h1.633v-4.61c0-.52-.061-.97-.184-1.33a2.4 2.4 0 0 0-.52-.91 1.96 1.96 0 0 0-.806-.52 3.1 3.1 0 0 0-1.039-.16q-.432 0-.821.12a2.64 2.64 0 0 0-1.107.68c-.119.12-.228.24-.328.39l-.103-1.06h-1.476zm9.876-3.75v.14c0 .53.068 1.03.205 1.49.141.46.339.85.595 1.18.259.34.572.61.936.8.365.18.775.28 1.231.28q.375 0 .697-.09c.214-.05.41-.12.588-.22.118-.06.228-.14.328-.23.105-.08.205-.18.301-.28v.52c0 .27-.041.52-.123.74-.078.22-.189.4-.335.55q-.24.24-.581.36a2.3 2.3 0 0 1-.773.12c-.168 0-.335-.01-.499-.05a2.269 2.269 0 0 1-.957-.45c-.15-.11-.291-.25-.424-.41l-.772 1c.164.21.36.4.588.56.228.15.467.28.718.37q.375.15.751.21c.251.05.481.07.691.07q.745 0 1.36-.21.622-.21 1.067-.6.437-.405.676-.99.247-.57.247-1.32v-7.19h-1.484l-.068.75a2.5 2.5 0 0 0-.294-.3 2.018 2.018 0 0 0-.944-.49 2.9 2.9 0 0 0-.745-.09 2.68 2.68 0 0 0-2.18 1.05q-.39.495-.595 1.2-.205.69-.205 1.53m1.641.14v-.14c0-.34.034-.65.102-.94q.103-.45.321-.78c.142-.22.322-.4.54-.53.219-.12.481-.19.787-.19.173 0 .332.02.478.07q.219.045.397.15c.132.07.248.17.348.28q.158.165.267.36v3.25q-.11.195-.253.36c-.096.11-.205.2-.328.28-.123.07-.262.13-.417.17q-.226.06-.506.06-.452 0-.779-.18a1.6 1.6 0 0 1-.54-.53 2.3 2.3 0 0 1-.322-.76 4.3 4.3 0 0 1-.095-.93m12.111 3.75c.72 0 1.333-.14 1.839-.43.51-.28.889-.6 1.135-.95l-.875-.85a2.2 2.2 0 0 1-.868.67q-.527.24-1.135.24-.445 0-.82-.15c-.247-.1-.461-.24-.643-.43a2 2 0 0 1-.431-.58 3 3 0 0 1-.232-.82v-.03h5.127v-.71c0-.53-.071-1.01-.212-1.46a3.2 3.2 0 0 0-.629-1.15 2.9 2.9 0 0 0-1.032-.75q-.615-.27-1.415-.27-.718 0-1.354.27c-.419.18-.788.43-1.107.77q-.479.495-.752 1.2c-.182.47-.274.99-.274 1.57v.28c0 .51.087.98.26 1.42.178.43.429.81.752 1.12.324.33.711.58 1.162.76.456.19.957.28 1.504.28m-.198-6.35q.41 0 .718.15c.209.09.382.21.519.37.141.16.251.34.328.56q.117.315.117.63v.11h-3.48c.05-.28.128-.53.232-.76q.158-.33.39-.57.233-.24.526-.36c.201-.08.417-.13.65-.13"/><rect width="81" height="36" x="46" y="46" fill="#7f8c8d" rx="5"/><path fill="#fff" d="M65.51 69h1.6l3.062-9.953h-1.79l-1.908 6.884-.17.601-.165-.594-1.893-6.891h-1.798zm24.278-9.953h-1.62l-.014 6.658q-.013.465-.123.855-.11.383-.321.663a1.45 1.45 0 0 1-.526.424 1.7 1.7 0 0 1-.711.143q-.397 0-.698-.144a1.5 1.5 0 0 1-.499-.41 1.9 1.9 0 0 1-.32-.663 3.5 3.5 0 0 1-.117-.868l-.014-6.658h-1.62l-.014 6.658q.008.772.24 1.408.24.636.67 1.087.423.451 1.025.697.601.24 1.347.24.758 0 1.367-.246.614-.246 1.053-.698.43-.45.663-1.08.24-.636.239-1.408zm8.803 7.39q0 .328-.143.58-.138.254-.37.424-.24.178-.567.267-.322.09-.697.089-.445 0-.82-.11a1.8 1.8 0 0 1-.643-.334 1.56 1.56 0 0 1-.444-.554 2.3 2.3 0 0 1-.192-.8h-1.64q.006.718.287 1.272.287.553.772.963.526.438 1.237.67.711.226 1.443.226.69 0 1.312-.171.623-.177 1.094-.526.465-.336.738-.841.28-.506.281-1.17 0-.718-.322-1.264-.315-.554-.84-.95a4.7 4.7 0 0 0-.93-.533 7.5 7.5 0 0 0-1.026-.376q-.416-.123-.8-.267a3.5 3.5 0 0 1-.67-.335 1.6 1.6 0 0 1-.457-.444 1.1 1.1 0 0 1-.178-.602 1.28 1.28 0 0 1 .492-1.025q.232-.178.547-.273.322-.103.697-.103.43 0 .76.13.334.123.566.342.225.225.35.54.129.308.163.683h1.627a2.74 2.74 0 0 0-.273-1.23 2.9 2.9 0 0 0-.732-.964 3.4 3.4 0 0 0-1.093-.615 3.9 3.9 0 0 0-1.347-.226q-.684 0-1.306.192-.615.184-1.08.54-.465.362-.738.875a2.36 2.36 0 0 0-.274 1.141q0 .588.233 1.06.24.465.656.834.417.362 1.005.656.595.287 1.299.485a6 6 0 0 1 .827.294q.375.158.65.356.258.211.403.478.143.267.143.615M103.477 69h3.446q.737 0 1.367-.185a3.2 3.2 0 0 0 1.093-.56q.459-.362.718-.902.26-.54.253-1.251 0-.405-.116-.766a2.2 2.2 0 0 0-.328-.67 2.3 2.3 0 0 0-.527-.499 2.3 2.3 0 0 0-.758-.342v-.014q.3-.122.526-.273.233-.157.417-.362.26-.28.396-.643.144-.369.151-.793 0-.697-.267-1.203a2.26 2.26 0 0 0-.724-.84 3.2 3.2 0 0 0-1.101-.486 5.4 5.4 0 0 0-1.36-.164h-3.186zm1.654-4.498h1.887q.403.007.718.123.314.11.533.314.219.206.328.5.11.286.11.663 0 .355-.137.649a1.3 1.3 0 0 1-.376.485q-.225.192-.547.301-.321.11-.711.11h-1.805zm0-1.251v-2.844h1.552q.424.007.773.103.348.088.581.294.204.164.314.423.117.255.116.602 0 .329-.123.581a1.3 1.3 0 0 1-.335.43 1.6 1.6 0 0 1-.574.302 2.7 2.7 0 0 1-.738.109z"/><rect width="61" height="36" x="232" y="46" fill="#7f8c8d" rx="5"/><path fill="#fff" d="M251.598 69h1.6l3.062-9.953h-1.791l-1.907 6.884-.171.601-.164-.594-1.893-6.891h-1.798zm7.963-9.953v1.36h2.078v7.24h-2.078V69h5.865v-1.353H263.3v-7.24h2.126v-1.36zM275.828 69v-9.953h-1.654l-.014 6.822-3.212-6.822h-1.668V69h1.661l.007-6.85 3.233 6.85z"/><rect width="71" height="24" x="227" y="87" fill="#f1c40f" rx="12"/><path fill="#171e21" d="M239.063 104h2.515q.684 0 1.279-.164a4 4 0 0 0 1.094-.472q.437-.28.793-.676.361-.397.615-.882.26-.5.396-1.101.144-.609.144-1.285v-.78q0-.703-.151-1.326a5 5 0 0 0-.423-1.141 3.9 3.9 0 0 0-.664-.903 3.5 3.5 0 0 0-.895-.67 4.2 4.2 0 0 0-1.032-.403q-.568-.15-1.21-.15h-2.461zm1.661-8.613h.8q.396.006.738.095a2.3 2.3 0 0 1 .615.24q.376.212.65.553a2.8 2.8 0 0 1 .437.752q.13.343.198.745.069.404.069.855v.793q0 .458-.069.861a4 4 0 0 1-.198.745q-.15.404-.389.718a2.3 2.3 0 0 1-.534.513 2.4 2.4 0 0 1-.663.307 3 3 0 0 1-.8.103h-.854zm8.919 1.216v1.36h2.277v4.683h-2.277V104h6.098v-1.354h-2.174v-6.043zm2.126-1.913a.85.85 0 0 0 .123.457.68.68 0 0 0 .376.267q.24.075.438.034a.7.7 0 0 0 .342-.17.73.73 0 0 0 .437-.295.72.72 0 0 0 .103-.526.7.7 0 0 0-.267-.478q-.226-.192-.595-.192-.219 0-.396.069a.805.805 0 0 0-.492.472.9.9 0 0 0-.069.361m7.286 5.543v.144q0 .813.232 1.497.233.684.677 1.189.438.507 1.08.793.642.288 1.456.288.807 0 1.442-.288a3 3 0 0 0 1.08-.793q.438-.505.67-1.189t.233-1.497v-.144a4.6 4.6 0 0 0-.233-1.49 3.5 3.5 0 0 0-.67-1.196 3.1 3.1 0 0 0-1.086-.793q-.636-.288-1.45-.287-.813 0-1.449.287a3.1 3.1 0 0 0-1.073.793 3.5 3.5 0 0 0-.677 1.196 4.6 4.6 0 0 0-.232 1.49m1.633.144v-.144q0-.484.103-.93.11-.444.335-.779.219-.334.554-.533.342-.198.806-.198.473 0 .807.198.342.198.567.533a2.6 2.6 0 0 1 .322.78q.11.444.109.929v.144q0 .5-.109.943a2.4 2.4 0 0 1-.322.78 1.64 1.64 0 0 1-.56.533 1.6 1.6 0 0 1-.8.191q-.472 0-.813-.191a1.65 1.65 0 0 1-.561-.533 2.4 2.4 0 0 1-.335-.78 4.2 4.2 0 0 1-.103-.943m8.537-.13v.144a5.2 5.2 0 0 0 .205 1.49q.205.684.581 1.182.376.507.916.793.54.28 1.217.281a2.6 2.6 0 0 0 1.135-.233q.492-.239.847-.676l.075.772h1.484V93.5h-1.634v3.794a2.5 2.5 0 0 0-.82-.608 2.5 2.5 0 0 0-1.073-.22 2.66 2.66 0 0 0-1.231.281q-.54.273-.916.772a3.6 3.6 0 0 0-.588 1.197q-.198.69-.198 1.531m1.634.144v-.144q0-.5.095-.936.096-.445.308-.78.198-.335.52-.526a1.53 1.53 0 0 1 .786-.191q.546 0 .902.246.363.24.581.649v3.179a1.8 1.8 0 0 1-.581.663q-.362.239-.916.239-.451 0-.772-.185a1.5 1.5 0 0 1-.527-.526 2.3 2.3 0 0 1-.301-.759 4.4 4.4 0 0 1-.095-.929m12.125 3.746q1.08 0 1.839-.424.765-.425 1.135-.957l-.875-.848a2.3 2.3 0 0 1-.869.677q-.526.232-1.134.232a2.2 2.2 0 0 1-.821-.15q-.369-.15-.642-.424a2 2 0 0 1-.431-.588 3 3 0 0 1-.232-.813v-.034h5.127v-.704q0-.794-.212-1.463a3.25 3.25 0 0 0-.629-1.156 2.85 2.85 0 0 0-1.032-.745q-.615-.273-1.415-.273a3.4 3.4 0 0 0-2.461 1.039 3.6 3.6 0 0 0-.752 1.203q-.274.704-.274 1.572v.281q0 .758.26 1.415.267.649.752 1.127.486.486 1.162.759.684.274 1.504.274m-.198-6.344q.41 0 .718.143.314.138.519.37.212.24.328.56.116.315.116.636v.11h-3.479q.075-.424.232-.76.158-.334.39-.574.232-.232.526-.355.301-.13.65-.13"/><rect width="120" height="34" x="599" y="47" fill="#fff" rx="4"/><path fill="#000" d="M621.887 69v-9.953h-1.654l-.014 6.822-3.212-6.822h-1.668V69H617l.007-6.85L620.24 69zm4.08-7.397v1.36h2.276v4.684h-2.276V69h6.097v-1.353h-2.173v-6.044zm2.126-1.913a.85.85 0 0 0 .123.458.67.67 0 0 0 .376.266q.239.075.437.034a.7.7 0 0 0 .342-.17.74.74 0 0 0 .438-.295q.15-.225.102-.526a.7.7 0 0 0-.266-.479q-.226-.19-.595-.19a1.1 1.1 0 0 0-.397.068.8.8 0 0 0-.294.177.8.8 0 0 0-.198.294.9.9 0 0 0-.068.363m7.586 9.31h1.634v-5.277q.11-.184.253-.342a1.66 1.66 0 0 1 .779-.486q.26-.082.561-.082.361 0 .642.082.28.075.479.26.198.184.3.492.103.308.103.766V69h1.634v-4.614q0-.78-.185-1.326a2.4 2.4 0 0 0-.519-.91 2 2 0 0 0-.807-.52 3.1 3.1 0 0 0-1.039-.163 2.7 2.7 0 0 0-1.538.471 2.9 2.9 0 0 0-.718.718l-.102-1.053h-1.477zm14.812 0h1.668v-.116a2.8 2.8 0 0 1-.212-.684 5.4 5.4 0 0 1-.068-.902V64.01q0-.63-.233-1.108a2.2 2.2 0 0 0-.642-.8q-.411-.314-.978-.471a4.3 4.3 0 0 0-1.21-.164q-.725 0-1.292.191a2.8 2.8 0 0 0-.943.506q-.397.315-.602.725a1.96 1.96 0 0 0-.212.854h1.641q0-.212.075-.396a.8.8 0 0 1 .246-.322q.165-.142.41-.225.254-.082.588-.082.37 0 .65.095.287.09.485.26.184.171.28.404.103.232.103.52v.498h-1.19a6.3 6.3 0 0 0-1.435.15q-.629.15-1.06.438-.465.308-.711.78-.239.465-.239 1.073 0 .471.185.881.19.405.533.69.335.295.806.466.478.164 1.053.164.356 0 .663-.069a3 3 0 0 0 .574-.191q.267-.117.479-.273.219-.165.39-.342.034.212.075.41.048.191.123.328m-1.989-1.176a1.8 1.8 0 0 1-.547-.075 1.2 1.2 0 0 1-.39-.219.9.9 0 0 1-.239-.328 1.1 1.1 0 0 1-.082-.424q0-.273.096-.492.102-.219.307-.376.232-.184.622-.28a3.7 3.7 0 0 1 .923-.103h1.053v1.367a1.3 1.3 0 0 1-.253.342 1.9 1.9 0 0 1-.39.294 2.3 2.3 0 0 1-.506.212q-.273.082-.594.082M665.889 69h3.445q.738 0 1.367-.185a3.2 3.2 0 0 0 1.094-.56q.459-.362.718-.902.26-.54.253-1.251 0-.405-.116-.766a2.2 2.2 0 0 0-.328-.67 2.3 2.3 0 0 0-.527-.499 2.3 2.3 0 0 0-.759-.342v-.014a3 3 0 0 0 .527-.273q.232-.157.417-.362.26-.28.396-.643.144-.369.151-.793 0-.697-.267-1.203a2.27 2.27 0 0 0-.725-.84 3.2 3.2 0 0 0-1.1-.486 5.4 5.4 0 0 0-1.36-.164h-3.186zm1.654-4.498h1.887q.403.007.718.123.314.11.533.314.219.206.328.5.11.286.109.663 0 .355-.136.649a1.3 1.3 0 0 1-.376.485 1.7 1.7 0 0 1-.547.301q-.321.11-.711.11h-1.805zm0-1.251v-2.844h1.552q.424.007.773.103.348.088.581.294.204.164.314.423.116.255.116.602 0 .329-.123.581a1.3 1.3 0 0 1-.335.43 1.6 1.6 0 0 1-.574.302 2.7 2.7 0 0 1-.738.109zm10.218.034v1.285h.978q.423 0 .766.103.348.096.594.294.246.204.376.513.13.307.13.738 0 .383-.116.683-.11.294-.321.493a1.4 1.4 0 0 1-.54.32 2.3 2.3 0 0 1-.711.103 2 2 0 0 1-.677-.109 1.6 1.6 0 0 1-.52-.308 1.3 1.3 0 0 1-.348-.465 1.6 1.6 0 0 1-.116-.608h-1.634q0 .697.266 1.224.274.52.725.875.451.356 1.046.533t1.237.178a4.4 4.4 0 0 0 1.319-.192 3.2 3.2 0 0 0 1.067-.574q.444-.37.697-.91.26-.546.26-1.243 0-.375-.089-.725a2.2 2.2 0 0 0-.287-.663q-.198-.3-.513-.54a2.4 2.4 0 0 0-.752-.396 2.65 2.65 0 0 0 1.121-.944 2.3 2.3 0 0 0 .274-.595q.096-.307.096-.615 0-.698-.233-1.223a2.5 2.5 0 0 0-.656-.89 2.75 2.75 0 0 0-1.012-.532 4.3 4.3 0 0 0-1.292-.185q-.69 0-1.271.205a3.1 3.1 0 0 0-.998.568 2.7 2.7 0 0 0-.663.868 2.5 2.5 0 0 0-.24 1.093h1.634q0-.32.116-.58a1.39 1.39 0 0 1 .821-.725 1.8 1.8 0 0 1 .622-.103q.375 0 .663.103.293.102.485.287.191.198.287.479.103.28.103.635 0 .329-.11.615a1.2 1.2 0 0 1-.3.472q-.213.219-.54.342a2.3 2.3 0 0 1-.766.116zm14.744 1.921v-2.358q0-.957-.226-1.689a3.6 3.6 0 0 0-.635-1.244 2.7 2.7 0 0 0-1.026-.752 3.35 3.35 0 0 0-1.353-.26q-.753 0-1.354.26a2.66 2.66 0 0 0-1.012.752 3.6 3.6 0 0 0-.642 1.244q-.219.731-.219 1.689v2.358q0 .957.219 1.695.225.732.649 1.224a2.7 2.7 0 0 0 1.019.766 3.5 3.5 0 0 0 1.353.253q.759 0 1.354-.253a2.6 2.6 0 0 0 1.012-.766q.417-.492.635-1.224.226-.738.226-1.695m-4.826-.581v-2.071q0-.615.109-1.067.11-.457.335-.745.192-.252.479-.383.287-.13.663-.13.348 0 .622.11.28.11.471.328.22.246.335.636.123.39.151.923zm3.178.855q0 .628-.116 1.093-.109.465-.335.752-.198.246-.478.376a1.6 1.6 0 0 1-.65.123q-.375 0-.663-.13a1.2 1.2 0 0 1-.471-.39 1.9 1.9 0 0 1-.308-.6 4 4 0 0 1-.144-.835l3.165-2.386v1.997m10.232-6.481h-.191q-1.162 0-2.065.362a4.1 4.1 0 0 0-1.517 1.04 4.6 4.6 0 0 0-1.039 1.88 8.4 8.4 0 0 0-.308 2.29v.676q0 .8.232 1.525.233.717.684 1.25.424.513 1.039.814t1.401.3q.766 0 1.361-.259.601-.267 1.018-.731a3.1 3.1 0 0 0 .622-1.074q.219-.621.219-1.333 0-.65-.171-1.25a3.1 3.1 0 0 0-.519-1.067 2.5 2.5 0 0 0-.889-.738q-.533-.274-1.258-.274-.342 0-.649.082-.308.076-.561.205a3 3 0 0 0-.485.315 3 3 0 0 0-.383.355q.055-.636.28-1.19a2.78 2.78 0 0 1 1.655-1.565q.601-.225 1.415-.225h.109zm-1.784 4.737q.397 0 .697.164.308.157.513.438.205.28.308.656.109.369.109.786 0 .438-.109.814-.11.369-.322.642a1.6 1.6 0 0 1-.512.424q-.302.15-.684.15-.348 0-.656-.157a1.6 1.6 0 0 1-.54-.458 2.3 2.3 0 0 1-.369-.752q-.13-.451-.13-1.046v-.505a2 2 0 0 1 .642-.82q.226-.158.492-.247.267-.089.561-.089"/><rect width="120" height="34" x="599" y="47" stroke="#111" stroke-width="2" rx="4"/><rect width="61" height="24" x="628.5" y="87" fill="#c11f09" rx="12"/><path fill="#fff" d="M645.146 104v-9.953h-.103l-4.094 1.517v1.443l2.55-.937V104zm5.911-4.936 1.306.322q.13-.123.267-.226.143-.11.314-.191.165-.075.376-.123.219-.048.513-.048.444 0 .779.15.334.144.561.41.225.267.335.63.116.354.116.785a3.4 3.4 0 0 1-.096.828 1.9 1.9 0 0 1-.287.642 1.4 1.4 0 0 1-.506.424q-.3.15-.711.15-.697 0-1.148-.389-.444-.39-.533-1.121h-1.593q.04.69.321 1.223.287.526.732.882.444.363 1.018.547.575.177 1.203.178.827 0 1.436-.26.608-.26 1.005-.711.404-.452.594-1.053.2-.608.199-1.292 0-.772-.205-1.387a3 3 0 0 0-.588-1.06 2.6 2.6 0 0 0-.951-.663 3.2 3.2 0 0 0-1.257-.233q-.52 0-.923.13a3.4 3.4 0 0 0-.643.274l.26-2.386h3.992v-1.45h-5.352zm10.772-2.46h-1.422V104h1.504v-5.68a2 2 0 0 1 .089-.185.8.8 0 0 1 .123-.144.53.53 0 0 1 .212-.13.9.9 0 0 1 .294-.047q.15 0 .267.04.122.042.212.13.088.09.129.247.048.15.048.369v5.4h1.477v-5.66a.7.7 0 0 1 .082-.205.64.64 0 0 1 .342-.28.8.8 0 0 1 .273-.041q.15 0 .274.04.13.042.218.13a.6.6 0 0 1 .137.253q.048.15.048.37V104h1.504v-5.38q0-.581-.123-.991a1.8 1.8 0 0 0-.335-.677 1.3 1.3 0 0 0-.52-.362 1.7 1.7 0 0 0-.649-.123q-.273 0-.506.068-.225.069-.41.192a1.4 1.4 0 0 0-.267.232q-.123.137-.219.294a1.3 1.3 0 0 0-.382-.533 1 1 0 0 0-.376-.192 1.8 1.8 0 0 0-.492-.061q-.527 0-.903.253a1.7 1.7 0 0 0-.581.697zm13.951 5.106.67 2.29h1.702l-3.186-9.953h-1.456L670.27 104h1.709l.677-2.29zm-2.707-1.408 1.162-3.938 1.141 3.938z"/><rect width="120" height="34" x="599" y="162" fill="#fff" rx="4"/><path fill="#000" d="M627.341 182.646v-8.599h-1.648V184h6.399v-1.354zm13.486-1.209q0 .327-.144.581a1.3 1.3 0 0 1-.369.423q-.24.179-.568.267a2.6 2.6 0 0 1-.697.089q-.444 0-.82-.109a1.8 1.8 0 0 1-.643-.335 1.56 1.56 0 0 1-.444-.554 2.3 2.3 0 0 1-.191-.8h-1.641q.006.718.287 1.272.287.554.772.963.527.438 1.238.67.711.226 1.442.226.69 0 1.313-.171a3.4 3.4 0 0 0 1.093-.526 2.5 2.5 0 0 0 .739-.841 2.37 2.37 0 0 0 .28-1.169q0-.718-.321-1.265a3.1 3.1 0 0 0-.841-.95 4.7 4.7 0 0 0-.93-.533 7 7 0 0 0-1.025-.376 12 12 0 0 1-.8-.267 3.5 3.5 0 0 1-.67-.335 1.6 1.6 0 0 1-.458-.444 1.1 1.1 0 0 1-.178-.602q0-.321.13-.581t.363-.444q.232-.179.546-.273a2.3 2.3 0 0 1 .698-.103q.43 0 .758.13.336.123.568.342.225.225.348.54.13.308.165.683h1.626q0-.677-.273-1.23a2.9 2.9 0 0 0-.731-.964 3.4 3.4 0 0 0-1.094-.615 3.9 3.9 0 0 0-1.347-.226q-.684 0-1.306.192-.615.184-1.08.54a2.7 2.7 0 0 0-.738.875 2.36 2.36 0 0 0-.273 1.141q0 .588.232 1.06.24.465.656.834.417.362 1.005.656.596.287 1.299.485.458.13.827.294.376.158.65.356.26.212.403.478.144.267.144.616m6.847-7.39h-2.037V184h1.538v-3.377l-.088-4.279 1.387 4.587h.855l1.531-4.751-.096 4.443V184h1.545v-9.953h-2.044l-1.36 4.259zm9.508 8.606h-.13v1.395h.136q1.286 0 2.195-.376.916-.377 1.476-1.032a4.5 4.5 0 0 0 .964-1.867 9 9 0 0 0 .274-2.242v-.574q0-.855-.226-1.627a3.8 3.8 0 0 0-.663-1.326 3 3 0 0 0-1.019-.8q-.594-.294-1.367-.294-.765 0-1.367.28a2.96 2.96 0 0 0-1.005.746q-.41.478-.629 1.114a4.2 4.2 0 0 0-.212 1.346q0 .664.178 1.265.178.602.54 1.067.355.458.889.731.54.273 1.264.273.356 0 .65-.068.3-.068.547-.185.232-.109.424-.252a2.4 2.4 0 0 0 .348-.322v.034q-.054.582-.246 1.087a2.4 2.4 0 0 1-.601.889 2.6 2.6 0 0 1-.978.547q-.594.191-1.442.191m1.647-3.213q-.41 0-.711-.17a1.6 1.6 0 0 1-.492-.465 2 2 0 0 1-.301-.67 3.2 3.2 0 0 1-.096-.786q0-.425.103-.807.11-.39.314-.677.2-.287.493-.451.3-.171.683-.171.342 0 .643.164.3.157.526.465.219.307.349.766.137.458.137 1.052v.568a2.1 2.1 0 0 1-.267.471 1.8 1.8 0 0 1-.369.37 1.65 1.65 0 0 1-1.012.341m6.998 4.56h2.516a4.8 4.8 0 0 0 1.278-.164 4 4 0 0 0 1.094-.472q.438-.28.793-.676.363-.397.615-.882.26-.5.397-1.101.144-.609.143-1.285v-.779q0-.705-.15-1.327a5 5 0 0 0-.424-1.141 3.9 3.9 0 0 0-.663-.902 3.5 3.5 0 0 0-.895-.67 4.2 4.2 0 0 0-1.033-.404q-.567-.15-1.21-.15h-2.461zm1.662-8.613h.799q.397.006.739.095.342.083.615.24.376.212.649.553.274.335.438.752.129.343.198.745.069.404.068.855v.793q0 .458-.068.861a4 4 0 0 1-.198.745q-.15.404-.39.718a2.3 2.3 0 0 1-.533.513 2.4 2.4 0 0 1-.663.307 3 3 0 0 1-.8.103h-.854zm13.69 6.05q0 .327-.143.581a1.3 1.3 0 0 1-.369.423q-.24.179-.568.267a2.6 2.6 0 0 1-.697.089q-.445 0-.82-.109a1.8 1.8 0 0 1-.643-.335 1.56 1.56 0 0 1-.444-.554 2.3 2.3 0 0 1-.192-.8h-1.64q.006.718.287 1.272.287.554.772.963.527.438 1.238.67a4.925 4.925 0 0 0 2.754.055q.623-.178 1.094-.526a2.5 2.5 0 0 0 .739-.841q.28-.506.28-1.169 0-.718-.321-1.265a3.1 3.1 0 0 0-.841-.95 4.7 4.7 0 0 0-.93-.533 7.4 7.4 0 0 0-1.025-.376 12 12 0 0 1-.8-.267 3.5 3.5 0 0 1-.67-.335 1.6 1.6 0 0 1-.458-.444 1.1 1.1 0 0 1-.178-.602 1.28 1.28 0 0 1 .492-1.025q.233-.179.547-.273.322-.103.697-.103.432 0 .759.13.336.123.568.342.225.225.348.54.13.308.164.683h1.627q0-.677-.273-1.23a2.9 2.9 0 0 0-.732-.964 3.4 3.4 0 0 0-1.093-.615 3.9 3.9 0 0 0-1.347-.226q-.684 0-1.306.192-.615.184-1.08.54a2.7 2.7 0 0 0-.738.875 2.36 2.36 0 0 0-.273 1.141q0 .588.232 1.06.239.465.656.834.417.362 1.005.656a8 8 0 0 0 1.299.485q.458.13.827.294.376.158.649.356.26.212.404.478.143.267.143.616m9.364 2.563v-9.953h-.103l-4.094 1.517v1.443l2.549-.937V184z"/><rect width="120" height="34" x="599" y="162" stroke="#111" stroke-width="2" rx="4"/><rect width="51" height="24" x="633.5" y="202" fill="#c11f09" rx="12"/><path fill="#fff" d="M652.104 219v-1.319h-4.635l2.215-2.366q.438-.464.807-.902.376-.438.649-.868.267-.431.417-.868.158-.445.158-.916a3.1 3.1 0 0 0-.206-1.149 2.5 2.5 0 0 0-.594-.902 2.8 2.8 0 0 0-.978-.588 3.8 3.8 0 0 0-1.305-.212q-.78 0-1.416.253a3.2 3.2 0 0 0-1.066.684 3 3 0 0 0-.684 1.011 3.2 3.2 0 0 0-.239 1.224h1.641q0-.43.109-.766.11-.34.328-.581.212-.225.534-.348.321-.123.758-.123.342 0 .616.116.28.115.478.321t.301.492q.102.288.102.636 0 .26-.075.52a2.5 2.5 0 0 1-.232.547 6 6 0 0 1-.445.649 15 15 0 0 1-.676.793l-3.241 3.527V219zm4.681-7.396h-1.422V219h1.504v-5.681q.042-.102.089-.184a.8.8 0 0 1 .123-.144.54.54 0 0 1 .212-.13.9.9 0 0 1 .294-.048q.15 0 .267.041a.54.54 0 0 1 .211.13q.09.09.13.246.048.151.048.37v5.4h1.477v-5.66a.7.7 0 0 1 .082-.205.6.6 0 0 1 .137-.164.7.7 0 0 1 .205-.117.8.8 0 0 1 .273-.041q.15 0 .273.041.13.042.219.13a.64.64 0 0 1 .137.253q.048.151.048.369V219h1.504v-5.38a3.5 3.5 0 0 0-.123-.991 1.8 1.8 0 0 0-.335-.677 1.3 1.3 0 0 0-.52-.362 1.7 1.7 0 0 0-.649-.123q-.274 0-.506.068-.226.069-.41.192a1.4 1.4 0 0 0-.267.232 2 2 0 0 0-.219.294 1.3 1.3 0 0 0-.382-.533 1 1 0 0 0-.376-.192 1.8 1.8 0 0 0-.493-.061q-.526 0-.902.253-.37.252-.581.697zm13.951 5.106.67 2.29h1.702l-3.186-9.953h-1.456l-3.24 9.953h1.709l.677-2.29zm-2.707-1.408 1.162-3.938 1.141 3.938z"/><rect width="120" height="34" x="599" y="277" fill="#fff" rx="4"/><path fill="#000" d="M627.341 297.646v-8.599h-1.648V299h6.399v-1.354zm10.061-2.44h1.688q.752 0 1.381-.219a3.2 3.2 0 0 0 1.094-.622q.457-.396.711-.95a3 3 0 0 0 .253-1.251q0-.717-.253-1.292a2.8 2.8 0 0 0-.711-.977 3.2 3.2 0 0 0-1.094-.623 4.3 4.3 0 0 0-1.381-.225h-3.329V299h1.641zm0-1.34v-3.479h1.688q.418.007.745.136.336.13.568.37.232.238.348.567.123.32.123.718 0 .362-.123.67a1.44 1.44 0 0 1-.348.533q-.232.226-.568.355a2.2 2.2 0 0 1-.745.13zm13.513 2.571q0 .327-.144.581a1.3 1.3 0 0 1-.369.423 1.7 1.7 0 0 1-.567.267 2.6 2.6 0 0 1-.698.089q-.444 0-.82-.109a1.8 1.8 0 0 1-.643-.335 1.6 1.6 0 0 1-.444-.554 2.3 2.3 0 0 1-.191-.8h-1.641q.007.718.287 1.272.287.554.773.963.526.438 1.237.67.711.226 1.442.226.691 0 1.313-.171a3.4 3.4 0 0 0 1.094-.526q.465-.336.738-.841a2.37 2.37 0 0 0 .28-1.169q0-.718-.321-1.265a3.1 3.1 0 0 0-.841-.95 4.6 4.6 0 0 0-.93-.533 7 7 0 0 0-1.025-.376 12 12 0 0 1-.8-.267 3.5 3.5 0 0 1-.67-.335 1.6 1.6 0 0 1-.458-.444 1.1 1.1 0 0 1-.177-.602q0-.321.129-.581.13-.26.363-.444.232-.178.547-.273.32-.103.697-.103.43 0 .759.13.334.123.567.342.226.225.349.54.13.308.164.683h1.627a2.7 2.7 0 0 0-.274-1.23 2.9 2.9 0 0 0-.731-.964 3.4 3.4 0 0 0-1.094-.615 3.9 3.9 0 0 0-1.347-.226q-.683 0-1.305.192-.615.184-1.08.54-.465.362-.739.875a2.36 2.36 0 0 0-.273 1.141q0 .588.232 1.06.24.465.657.834.417.362 1.004.656.596.287 1.299.485.458.13.827.294.377.158.65.356.26.212.403.478.144.267.144.616M662.192 299v-1.319h-4.634l2.214-2.366q.438-.464.807-.902.376-.438.65-.868.265-.431.417-.868.157-.444.157-.916 0-.63-.205-1.149a2.5 2.5 0 0 0-.595-.902 2.8 2.8 0 0 0-.978-.588 3.8 3.8 0 0 0-1.305-.212q-.78 0-1.415.253-.63.254-1.067.684a3 3 0 0 0-.683 1.011q-.24.575-.24 1.224h1.641q0-.43.109-.766.11-.34.329-.581.212-.225.533-.348t.759-.123q.34 0 .615.116.28.115.478.321t.301.492a1.9 1.9 0 0 1 .027 1.156 2.5 2.5 0 0 1-.232.547 6 6 0 0 1-.444.649q-.274.349-.677.793l-3.24 3.527V299zm10.089 0v-1.319h-4.635l2.215-2.366q.437-.464.806-.902.376-.438.65-.868.265-.431.417-.868.157-.444.157-.916a3.1 3.1 0 0 0-.205-1.149 2.5 2.5 0 0 0-.595-.902 2.8 2.8 0 0 0-.977-.588 3.8 3.8 0 0 0-1.306-.212q-.78 0-1.415.253a3.2 3.2 0 0 0-1.067.684 3 3 0 0 0-.683 1.011q-.24.575-.239 1.224h1.64q0-.43.11-.766.11-.34.328-.581.212-.225.533-.348t.759-.123q.342 0 .615.116.28.115.479.321t.3.492q.103.288.103.636 0 .26-.075.52a2.5 2.5 0 0 1-.233.547 6 6 0 0 1-.444.649q-.273.349-.677.793l-3.24 3.527V299zm10.142 0v-9.953h-1.606v4.163h-3.35v-4.163h-1.599V299h1.599v-4.437h3.35V299zm3.642 0h3.446q.738 0 1.367-.185a3.2 3.2 0 0 0 1.094-.56q.457-.362.717-.902t.253-1.251q0-.404-.116-.766a2.2 2.2 0 0 0-.328-.67 2.3 2.3 0 0 0-.526-.499 2.3 2.3 0 0 0-.759-.342v-.013q.3-.124.526-.274.232-.158.417-.362.26-.28.397-.643.143-.369.15-.793 0-.697-.267-1.203a2.27 2.27 0 0 0-.724-.841 3.3 3.3 0 0 0-1.101-.485 5.4 5.4 0 0 0-1.36-.164h-3.186zm1.655-4.498h1.886q.404.007.718.123.315.11.533.314a1.3 1.3 0 0 1 .329.499q.109.288.109.664 0 .355-.137.649a1.3 1.3 0 0 1-.376.485q-.225.192-.547.301a2.2 2.2 0 0 1-.711.109h-1.804zm0-1.251v-2.844h1.551q.424.007.773.103.348.089.581.294.205.163.314.424.117.253.117.601 0 .329-.123.581a1.3 1.3 0 0 1-.335.431 1.6 1.6 0 0 1-.575.301 2.7 2.7 0 0 1-.738.109z"/><rect width="120" height="34" x="599" y="277" stroke="#111" stroke-width="2" rx="4"/><rect width="61" height="24" x="628.5" y="317" fill="#c11f09" rx="12"/><path fill="#fff" d="M645.146 334v-9.953h-.103l-4.094 1.517v1.443l2.55-.937V334zm12.002 0v-1.319h-4.634l2.214-2.366q.438-.464.807-.902.376-.438.649-.868.267-.431.417-.868.158-.444.158-.916 0-.63-.205-1.149a2.5 2.5 0 0 0-.595-.902 2.8 2.8 0 0 0-.978-.588 3.8 3.8 0 0 0-1.305-.212q-.78 0-1.415.253-.63.254-1.067.684a3 3 0 0 0-.683 1.011q-.24.575-.24 1.224h1.641q0-.43.109-.766.11-.34.328-.581.212-.225.534-.348.321-.123.758-.123.342 0 .616.116.28.115.478.321t.301.492a1.9 1.9 0 0 1 .027 1.156 2.5 2.5 0 0 1-.232.547 6 6 0 0 1-.444.649q-.274.349-.677.793l-3.24 3.527V334zm5.549-7.396h-1.633v10.24h1.633v-3.104q.26.199.602.301.342.103.766.103.327 0 .608-.076.287-.075.526-.218.151-.09.281-.205.129-.124.246-.26l.048.615h1.504v-7.396h-1.641v5.345a1.7 1.7 0 0 1-.178.294 1.2 1.2 0 0 1-.239.239 1.5 1.5 0 0 1-.492.247 2.5 2.5 0 0 1-.67.082q-.301 0-.554-.076a.9.9 0 0 1-.424-.3 1.54 1.54 0 0 1-.287-.602 4.2 4.2 0 0 1-.096-.984zm13.083 5.106.67 2.29h1.702l-3.186-9.953h-1.456L670.27 334h1.709l.677-2.29zm-2.707-1.408 1.162-3.938 1.141 3.938z"/><rect width="120" height="34" x="599" y="392" fill="#fff" rx="4"/><path fill="#000" d="M637.027 414v-9.953h-1.607v4.163h-3.349v-4.163h-1.6V414h1.6v-4.437h3.349V414zm10.717-8.593v-1.36h-7.752v1.36h3.049V414h1.633v-8.593zm8.215 6.03q0 .327-.144.581a1.3 1.3 0 0 1-.369.423 1.7 1.7 0 0 1-.567.267 2.6 2.6 0 0 1-.698.089q-.444 0-.82-.109a1.8 1.8 0 0 1-.642-.335 1.6 1.6 0 0 1-.445-.554 2.3 2.3 0 0 1-.191-.8h-1.641q.007.718.287 1.272.288.554.773.963.526.438 1.237.67.711.226 1.442.226.691 0 1.313-.171a3.4 3.4 0 0 0 1.094-.526q.465-.336.738-.841a2.37 2.37 0 0 0 .28-1.169q0-.718-.321-1.265a3.1 3.1 0 0 0-.841-.95 4.6 4.6 0 0 0-.93-.533 7 7 0 0 0-1.025-.376 12 12 0 0 1-.8-.267 3.5 3.5 0 0 1-.67-.335 1.6 1.6 0 0 1-.458-.444 1.1 1.1 0 0 1-.177-.602 1.28 1.28 0 0 1 .492-1.025q.232-.178.547-.273.32-.103.697-.103.43 0 .759.13.335.123.567.342.226.225.349.54.13.308.164.683h1.627a2.7 2.7 0 0 0-.274-1.23 2.9 2.9 0 0 0-.731-.964 3.4 3.4 0 0 0-1.094-.615 3.9 3.9 0 0 0-1.347-.226q-.683 0-1.305.192-.615.184-1.08.54-.465.362-.739.875a2.36 2.36 0 0 0-.273 1.141q0 .588.232 1.06.24.465.657.834.417.362 1.005.656.594.287 1.298.485.458.13.828.294.375.158.649.356.26.212.403.478.144.267.144.616M667.236 414v-1.319h-4.634l2.215-2.366q.437-.464.806-.902.376-.438.65-.868.266-.431.417-.868.157-.444.157-.916 0-.63-.205-1.149a2.5 2.5 0 0 0-.595-.902 2.8 2.8 0 0 0-.978-.588 3.8 3.8 0 0 0-1.305-.212q-.78 0-1.415.253a3.2 3.2 0 0 0-1.067.684 3 3 0 0 0-.683 1.011q-.24.575-.239 1.224H662q0-.43.11-.766.109-.34.328-.581.212-.225.533-.348t.759-.123q.342 0 .615.116.28.115.478.321.2.206.301.492.103.288.103.636 0 .26-.075.52a2.5 2.5 0 0 1-.233.547 6 6 0 0 1-.444.649q-.274.349-.677.793l-3.24 3.527V414zm10.089 0v-1.319h-4.635l2.215-2.366q.437-.464.806-.902.377-.438.65-.868.267-.431.417-.868.157-.444.157-.916a3.1 3.1 0 0 0-.205-1.149 2.5 2.5 0 0 0-.595-.902 2.8 2.8 0 0 0-.977-.588 3.8 3.8 0 0 0-1.306-.212q-.779 0-1.415.253a3.2 3.2 0 0 0-1.066.684 2.95 2.95 0 0 0-.684 1.011q-.24.575-.239 1.224h1.64q0-.43.11-.766.11-.34.328-.581.212-.225.533-.348t.759-.123q.342 0 .615.116.28.115.479.321t.3.492q.103.288.103.636 0 .26-.075.52a2.5 2.5 0 0 1-.233.547 6 6 0 0 1-.444.649q-.273.349-.677.793l-3.24 3.527V414zm8.174 0v-9.953h-.103l-4.094 1.517v1.443l2.549-.937V414z"/><rect width="120" height="34" x="599" y="392" stroke="#111" stroke-width="2" rx="4"/><rect width="51" height="24" x="633.5" y="432" fill="#c11f09" rx="12"/><path fill="#fff" d="M652.104 449v-1.319h-4.635l2.215-2.366q.438-.464.807-.902.376-.438.649-.868.267-.431.417-.868.158-.444.158-.916a3.1 3.1 0 0 0-.206-1.149 2.5 2.5 0 0 0-.594-.902 2.8 2.8 0 0 0-.978-.588 3.8 3.8 0 0 0-1.305-.212q-.78 0-1.416.253a3.2 3.2 0 0 0-1.066.684 3 3 0 0 0-.684 1.011 3.2 3.2 0 0 0-.239 1.224h1.641q0-.43.109-.766.11-.34.328-.581.212-.225.534-.348.321-.123.758-.123.342 0 .616.116.28.115.478.321t.301.492q.102.288.102.636 0 .26-.075.52a2.5 2.5 0 0 1-.232.547 6 6 0 0 1-.445.649 15 15 0 0 1-.676.793l-3.241 3.527V449zm5.549-7.396h-1.633v10.24h1.633v-3.104q.26.199.602.301.342.103.766.103.327 0 .608-.076.287-.075.526-.218.151-.09.281-.205.129-.124.246-.26l.047.615h1.504v-7.396h-1.64v5.345q-.076.157-.178.294a1.2 1.2 0 0 1-.239.239 1.5 1.5 0 0 1-.492.247 2.5 2.5 0 0 1-.67.082q-.301 0-.554-.076a.9.9 0 0 1-.424-.3 1.54 1.54 0 0 1-.287-.602 4.2 4.2 0 0 1-.096-.984zm13.083 5.106.67 2.29h1.702l-3.186-9.953h-1.456l-3.24 9.953h1.709l.677-2.29zm-2.707-1.408 1.162-3.938 1.141 3.938z"/><rect width="120" height="34" x="599" y="507" fill="#fff" rx="4"/><path fill="#000" d="m620.295 526.71.67 2.29h1.702l-3.186-9.953h-1.456l-3.24 9.953h1.709l.677-2.29zm-2.707-1.408 1.162-3.938 1.141 3.938zm9.726-.096h1.688q.752 0 1.381-.219a3.2 3.2 0 0 0 1.094-.622q.457-.396.711-.95a3 3 0 0 0 .252-1.251q0-.717-.252-1.292a2.8 2.8 0 0 0-.711-.977 3.2 3.2 0 0 0-1.094-.623 4.3 4.3 0 0 0-1.381-.225h-3.329V529h1.641zm0-1.34v-3.479h1.688q.417.006.745.136.335.13.567.37.233.238.349.567.123.32.123.718 0 .362-.123.67a1.44 1.44 0 0 1-.349.533q-.232.226-.567.355a2.2 2.2 0 0 1-.745.13zm8.249 5.134h2.515q.684 0 1.279-.164a4 4 0 0 0 1.094-.472q.437-.28.793-.676.361-.397.615-.882.26-.5.396-1.101.144-.609.144-1.285v-.779q0-.705-.151-1.327a5 5 0 0 0-.423-1.141 3.9 3.9 0 0 0-.664-.902 3.5 3.5 0 0 0-.895-.67 4.2 4.2 0 0 0-1.032-.404q-.568-.15-1.21-.15h-2.461zm1.661-8.613h.8q.396.006.738.095.342.082.615.24.376.212.65.553.273.336.437.752a4 4 0 0 1 .198.745q.069.404.069.855v.793q0 .457-.069.861a4 4 0 0 1-.198.745q-.15.404-.389.718a2.3 2.3 0 0 1-.534.513 2.4 2.4 0 0 1-.663.307 3 3 0 0 1-.8.103h-.854zm13.691 6.05q0 .327-.144.581a1.3 1.3 0 0 1-.369.423 1.7 1.7 0 0 1-.567.267 2.6 2.6 0 0 1-.698.089q-.444 0-.82-.109a1.8 1.8 0 0 1-.643-.335 1.6 1.6 0 0 1-.444-.554 2.3 2.3 0 0 1-.191-.8h-1.641q.007.718.287 1.272.287.554.773.963.526.438 1.237.67.711.226 1.442.226.691 0 1.313-.171a3.4 3.4 0 0 0 1.094-.526q.465-.336.738-.841a2.37 2.37 0 0 0 .28-1.169q0-.718-.321-1.265a3.1 3.1 0 0 0-.841-.95 4.6 4.6 0 0 0-.93-.533 7 7 0 0 0-1.025-.376 12 12 0 0 1-.8-.267 3.5 3.5 0 0 1-.67-.335 1.6 1.6 0 0 1-.458-.444 1.1 1.1 0 0 1-.177-.602q0-.321.129-.581.13-.26.363-.444.232-.178.547-.273.32-.103.697-.103.43 0 .759.13.334.123.567.342.226.225.349.54.13.308.164.683h1.627a2.7 2.7 0 0 0-.274-1.23 2.9 2.9 0 0 0-.731-.964 3.4 3.4 0 0 0-1.094-.615 3.9 3.9 0 0 0-1.347-.226q-.683 0-1.305.192-.615.185-1.08.54-.465.362-.739.875a2.36 2.36 0 0 0-.273 1.141q0 .588.232 1.06.24.465.657.834.417.362 1.004.656.596.287 1.299.485.458.13.827.294.377.158.65.356.26.212.403.478.144.267.144.616m11.127-1.149v-1.326h-5.503v1.326zm5.228 2.365h-.13v1.395h.137q1.284 0 2.194-.376.916-.377 1.477-1.032.69-.8.963-1.867a9 9 0 0 0 .274-2.242v-.574q0-.855-.226-1.627a3.8 3.8 0 0 0-.663-1.326 3 3 0 0 0-1.018-.8q-.595-.294-1.368-.294-.765 0-1.367.28a2.96 2.96 0 0 0-1.005.746q-.41.478-.629 1.114a4.2 4.2 0 0 0-.211 1.346q0 .664.177 1.265.178.602.54 1.067.356.458.889.731.54.273 1.265.273.355 0 .649-.068.301-.069.547-.185.232-.109.424-.252a2.4 2.4 0 0 0 .348-.322v.034q-.054.582-.246 1.087a2.4 2.4 0 0 1-.601.889 2.6 2.6 0 0 1-.978.547q-.594.192-1.442.191m1.647-3.213q-.41 0-.711-.17a1.6 1.6 0 0 1-.492-.465 2 2 0 0 1-.301-.67 3.2 3.2 0 0 1-.095-.786q0-.424.102-.807.11-.39.315-.677.198-.287.492-.451.3-.171.683-.171.342 0 .643.164.301.157.526.465.219.307.349.766.137.458.137 1.052v.568a2 2 0 0 1-.267.471 1.8 1.8 0 0 1-.369.37 1.64 1.64 0 0 1-1.012.341m8.441 3.213h-.13v1.395h.137q1.285 0 2.194-.376.916-.377 1.477-1.032.69-.8.964-1.867a9 9 0 0 0 .273-2.242v-.574q0-.855-.226-1.627a3.8 3.8 0 0 0-.663-1.326 3 3 0 0 0-1.018-.8q-.595-.294-1.367-.294-.766 0-1.368.28a2.9 2.9 0 0 0-1.004.746q-.41.478-.629 1.114a4.2 4.2 0 0 0-.212 1.346q0 .664.178 1.265.177.602.54 1.067.356.458.888.731.54.273 1.265.273.355 0 .649-.068.301-.069.547-.185.232-.109.424-.252.198-.151.349-.322v.034q-.056.582-.246 1.087a2.4 2.4 0 0 1-.602.889 2.6 2.6 0 0 1-.978.547q-.594.192-1.442.191m1.648-3.213q-.411 0-.711-.17a1.6 1.6 0 0 1-.493-.465 2 2 0 0 1-.3-.67 3.2 3.2 0 0 1-.096-.786q0-.424.102-.807.11-.39.315-.677.198-.287.492-.451a1.36 1.36 0 0 1 .684-.171q.342 0 .642.164.301.157.527.465.218.307.348.766.137.458.137 1.052v.568a2 2 0 0 1-.267.471 1.8 1.8 0 0 1-.369.37 1.65 1.65 0 0 1-1.011.341m11.995-5.441h-.191q-1.162 0-2.065.362a4.1 4.1 0 0 0-1.517 1.039 4.6 4.6 0 0 0-1.04 1.88 8.4 8.4 0 0 0-.307 2.29v.677q0 .8.232 1.524.233.718.684 1.251.424.513 1.039.814t1.401.301q.766 0 1.361-.26.601-.267 1.018-.731.41-.459.622-1.074.219-.622.219-1.333 0-.65-.171-1.251a3.1 3.1 0 0 0-.519-1.066 2.5 2.5 0 0 0-.889-.738q-.534-.274-1.258-.274-.342 0-.649.082a2.6 2.6 0 0 0-1.046.52 3 3 0 0 0-.383.355q.054-.636.28-1.189a2.78 2.78 0 0 1 1.655-1.566q.601-.225 1.415-.225h.109zm-1.784 4.737q.396 0 .697.164.307.157.513.438.204.28.307.656.11.369.11.786 0 .438-.11.814-.11.369-.321.642a1.6 1.6 0 0 1-.513.424q-.3.15-.683.151-.349 0-.656-.158a1.6 1.6 0 0 1-.541-.458 2.3 2.3 0 0 1-.369-.752 3.8 3.8 0 0 1-.13-1.046v-.505q.11-.254.274-.458.163-.206.369-.363a1.9 1.9 0 0 1 .492-.246q.267-.089.561-.089m13.376 1.47v-2.358q0-.957-.226-1.689a3.6 3.6 0 0 0-.635-1.244 2.7 2.7 0 0 0-1.026-.752 3.35 3.35 0 0 0-1.353-.26q-.752 0-1.354.26a2.66 2.66 0 0 0-1.011.752 3.6 3.6 0 0 0-.643 1.244q-.219.732-.219 1.689v2.358q0 .957.219 1.695.226.732.649 1.224.417.505 1.019.766.602.253 1.353.253.76 0 1.354-.253a2.64 2.64 0 0 0 1.012-.766q.417-.492.635-1.224.226-.738.226-1.695m-4.826-.581v-2.071q0-.615.109-1.067.11-.457.335-.745.192-.252.479-.383a1.6 1.6 0 0 1 .663-.13q.348 0 .622.11.28.11.472.328.218.246.335.636a3.7 3.7 0 0 1 .15.923zm3.179.854q0 .63-.117 1.094-.109.465-.335.752-.198.246-.478.376a1.6 1.6 0 0 1-.65.123q-.375 0-.663-.13a1.2 1.2 0 0 1-.471-.389q-.192-.24-.308-.602a3.8 3.8 0 0 1-.143-.834l3.165-2.386v1.996"/><rect width="120" height="34" x="599" y="507" stroke="#111" stroke-width="2" rx="4"/><rect width="71" height="24" x="623.5" y="547" fill="#c11f09" rx="12"/><path fill="#fff" d="M642.098 554.963v-.916h-6.884v1.367h5.161L636.397 564h1.722zm4.995 7.69h-.129v1.395h.136q1.285 0 2.195-.376.915-.377 1.476-1.032.69-.8.964-1.867a9 9 0 0 0 .273-2.242v-.574q0-.855-.225-1.627a3.8 3.8 0 0 0-.663-1.326 3 3 0 0 0-1.019-.8q-.594-.294-1.367-.294-.765 0-1.367.28a2.9 2.9 0 0 0-1.005.746q-.41.478-.629 1.114a4.2 4.2 0 0 0-.212 1.346q0 .664.178 1.265.177.602.54 1.067.355.458.889.731.54.273 1.264.273.356 0 .65-.068.3-.069.547-.185a2.4 2.4 0 0 0 .772-.574v.034q-.054.582-.246 1.087a2.4 2.4 0 0 1-.602.889 2.6 2.6 0 0 1-.977.547q-.595.192-1.443.191m1.648-3.213q-.411 0-.711-.17a1.6 1.6 0 0 1-.492-.465 2 2 0 0 1-.301-.67 3.2 3.2 0 0 1-.096-.786q0-.424.103-.807.11-.39.314-.677a1.46 1.46 0 0 1 .492-.451q.302-.171.684-.171.342 0 .643.164.3.157.526.465.219.307.349.766.136.458.136 1.052v.568a2 2 0 0 1-.266.471 1.8 1.8 0 0 1-.369.37 1.66 1.66 0 0 1-1.012.341m13.499.766v-2.358q0-.957-.225-1.689a3.7 3.7 0 0 0-.636-1.244 2.7 2.7 0 0 0-1.025-.752 3.4 3.4 0 0 0-1.354-.26q-.751 0-1.354.26a2.66 2.66 0 0 0-1.011.752 3.6 3.6 0 0 0-.643 1.244q-.219.732-.219 1.689v2.358q0 .957.219 1.695.226.732.65 1.224.417.505 1.018.766.601.253 1.354.253.759 0 1.353-.253a2.64 2.64 0 0 0 1.012-.766q.417-.492.636-1.224.225-.738.225-1.695m-4.826-.581v-2.071q0-.615.109-1.067.11-.457.335-.745.192-.252.479-.383a1.6 1.6 0 0 1 .663-.13q.349 0 .622.11.28.11.472.328.218.246.335.636a3.7 3.7 0 0 1 .15.923zm3.179.854q0 .63-.116 1.094-.11.465-.335.752-.199.246-.479.376a1.6 1.6 0 0 1-.649.123q-.376 0-.663-.13a1.2 1.2 0 0 1-.472-.389q-.192-.24-.308-.602a4 4 0 0 1-.143-.834l3.165-2.386v1.996M670.79 564h1.484v-7.396h-1.641v5.236a2 2 0 0 1-.232.376 1.6 1.6 0 0 1-.315.287 1.9 1.9 0 0 1-.492.219q-.28.075-.636.075-.342 0-.594-.089a.9.9 0 0 1-.417-.301 1.3 1.3 0 0 1-.24-.547 4 4 0 0 1-.075-.861v-4.395h-1.634v4.381q0 .834.185 1.436.185.594.519.977.342.384.814.568.478.178 1.053.178.67 0 1.21-.308.54-.315.916-.868zm10.034-2.29.67 2.29h1.702l-3.186-9.953h-1.456l-3.24 9.953h1.709l.677-2.29zm-2.707-1.408 1.162-3.938 1.142 3.938z"/><rect width="120" height="34" x="599" y="622" fill="#fff" rx="4"/><path fill="#000" d="M622.454 634.047h-2.037V644h1.538v-3.377l-.089-4.279 1.388 4.587h.854l1.532-4.751-.096 4.443V644h1.545v-9.953h-2.044l-1.361 4.259zm9.904 6.159h1.688q.752 0 1.381-.219a3.2 3.2 0 0 0 1.094-.622q.457-.396.711-.95a3 3 0 0 0 .253-1.251q0-.717-.253-1.292a2.8 2.8 0 0 0-.711-.977 3.2 3.2 0 0 0-1.094-.623 4.3 4.3 0 0 0-1.381-.225h-3.329V644h1.641zm0-1.34v-3.479h1.688q.417.006.745.136.336.13.568.37.232.238.348.567.123.32.123.718 0 .362-.123.67a1.44 1.44 0 0 1-.348.533q-.232.226-.568.355a2.2 2.2 0 0 1-.745.13zm10.095-.581v1.285h.977q.424 0 .766.103.348.096.595.294.246.205.376.512.129.309.129.739 0 .383-.116.683a1.3 1.3 0 0 1-.321.493 1.4 1.4 0 0 1-.54.321q-.315.102-.711.102-.37 0-.677-.109a1.5 1.5 0 0 1-.519-.308 1.3 1.3 0 0 1-.349-.464 1.6 1.6 0 0 1-.116-.609h-1.634q0 .697.267 1.224.273.52.724.875.452.355 1.046.533t1.237.178q.711 0 1.32-.192a3.2 3.2 0 0 0 1.066-.574 2.6 2.6 0 0 0 .697-.909q.26-.547.26-1.244 0-.376-.089-.725a2.2 2.2 0 0 0-.287-.663q-.198-.3-.512-.54a2.5 2.5 0 0 0-.752-.396 2.66 2.66 0 0 0 1.121-.944q.184-.286.273-.595.096-.308.096-.615 0-.697-.233-1.223a2.45 2.45 0 0 0-.656-.889 2.7 2.7 0 0 0-1.012-.533 4.3 4.3 0 0 0-1.292-.185q-.69 0-1.271.205a3.1 3.1 0 0 0-.998.568 2.7 2.7 0 0 0-.663.868q-.24.498-.239 1.094h1.633q0-.322.117-.582.122-.26.335-.444.204-.184.485-.28.287-.102.622-.103.376 0 .663.103.294.102.485.287.192.198.287.478.103.28.103.636 0 .329-.109.615a1.24 1.24 0 0 1-.301.472q-.212.219-.54.342a2.3 2.3 0 0 1-.766.116zm13.731 2.167v-6.405h-1.681l-4.3 6.726.041 1.005h4.307V644h1.633v-2.222h1.251v-1.326zm-4.313 0 2.488-3.862.192-.356v4.218zm8.912 3.548h2.516a4.8 4.8 0 0 0 1.278-.164 4 4 0 0 0 1.094-.472q.438-.28.793-.676.363-.397.615-.882.26-.5.397-1.101.143-.609.143-1.285v-.779q0-.705-.15-1.327a5 5 0 0 0-.424-1.141 3.9 3.9 0 0 0-.663-.902 3.5 3.5 0 0 0-.896-.67 4.2 4.2 0 0 0-1.032-.404q-.567-.15-1.21-.15h-2.461zm1.661-8.613h.8q.397.006.739.095.341.082.615.24.375.212.649.553.274.336.438.752.129.342.198.745.069.404.068.855v.793q0 .457-.068.861a4 4 0 0 1-.198.745q-.15.404-.39.718a2.3 2.3 0 0 1-.533.513 2.4 2.4 0 0 1-.663.307 3 3 0 0 1-.8.103h-.855zm15.564.02v-1.36h-7.752v1.36h3.049V644h1.634v-8.593zm9.453 4.799v-2.358q0-.957-.226-1.689a3.6 3.6 0 0 0-.636-1.244 2.7 2.7 0 0 0-1.025-.752 3.35 3.35 0 0 0-1.353-.26q-.753 0-1.354.26a2.66 2.66 0 0 0-1.012.752 3.6 3.6 0 0 0-.642 1.244q-.219.732-.219 1.689v2.358q0 .957.219 1.695.226.732.649 1.224.417.505 1.019.766.601.253 1.353.253.759 0 1.354-.253a2.6 2.6 0 0 0 1.011-.766q.417-.492.636-1.224.226-.738.226-1.695m-4.826-.581v-2.071q0-.615.109-1.067.11-.457.335-.745.192-.252.478-.383.288-.13.664-.13.348 0 .622.11.28.11.471.328.22.246.335.636.123.389.151.923zm3.178.854q0 .63-.116 1.094-.11.465-.335.752a1.3 1.3 0 0 1-.478.376 1.6 1.6 0 0 1-.65.123q-.376 0-.663-.13a1.2 1.2 0 0 1-.472-.389 1.9 1.9 0 0 1-.307-.602 4 4 0 0 1-.144-.834l3.165-2.386v1.996m5.597-1.415 1.306.322q.13-.123.267-.226.143-.11.314-.191.164-.075.376-.123.219-.048.513-.048.444 0 .779.15.334.144.561.41.225.267.334.629.117.356.117.786a3.4 3.4 0 0 1-.096.828 1.9 1.9 0 0 1-.287.642 1.4 1.4 0 0 1-.506.424q-.3.15-.711.15-.698 0-1.148-.389-.445-.39-.534-1.121h-1.592q.04.69.321 1.223.287.526.731.882a3.1 3.1 0 0 0 1.019.547q.575.178 1.203.178.827 0 1.436-.26.607-.26 1.005-.711.403-.452.594-1.053.198-.608.198-1.292 0-.772-.205-1.387a3 3 0 0 0-.587-1.06 2.6 2.6 0 0 0-.951-.663 3.2 3.2 0 0 0-1.258-.232q-.519 0-.922.129a3.4 3.4 0 0 0-.643.274l.26-2.386h3.992v-1.449h-5.353z"/><rect width="120" height="34" x="599" y="622" stroke="#111" stroke-width="2" rx="4"/><rect width="71" height="24" x="623.5" y="662" fill="#c11f09" rx="12"/><path fill="#fff" d="M640.56 668.999h-.191q-1.162 0-2.065.362a4.1 4.1 0 0 0-1.518 1.039 4.6 4.6 0 0 0-1.039 1.88 8.4 8.4 0 0 0-.307 2.29v.677q0 .8.232 1.524.233.718.684 1.251.424.513 1.039.814t1.401.301q.766 0 1.361-.26.601-.267 1.018-.731.41-.459.622-1.074.219-.622.219-1.333 0-.65-.171-1.251a3.1 3.1 0 0 0-.519-1.066 2.5 2.5 0 0 0-.889-.738q-.534-.274-1.258-.274-.342 0-.649.082a2.6 2.6 0 0 0-1.046.52 3 3 0 0 0-.383.355q.054-.636.28-1.189a2.78 2.78 0 0 1 1.655-1.566q.601-.225 1.415-.225h.109zm-1.784 4.737q.396 0 .697.164.308.157.513.438.205.28.307.656.11.369.11.786 0 .438-.11.814-.11.369-.321.642a1.6 1.6 0 0 1-.513.424q-.3.15-.683.151-.349 0-.657-.158a1.6 1.6 0 0 1-.54-.458 2.3 2.3 0 0 1-.369-.752 3.8 3.8 0 0 1-.13-1.046v-.505q.11-.254.274-.458.163-.206.369-.363a1.9 1.9 0 0 1 .492-.246q.267-.089.561-.089m7.237.328 1.306.322q.13-.123.267-.226.143-.11.314-.191.164-.075.376-.123.219-.048.513-.048.444 0 .779.15.334.144.561.41.225.267.335.629.116.356.116.786a3.4 3.4 0 0 1-.096.828 1.9 1.9 0 0 1-.287.642 1.4 1.4 0 0 1-.506.424q-.3.15-.711.15-.698 0-1.148-.389-.445-.39-.533-1.121h-1.593q.04.69.321 1.223.287.526.731.882a3.1 3.1 0 0 0 1.019.547q.574.178 1.203.178.827 0 1.436-.26.607-.26 1.005-.711.403-.452.594-1.053.198-.608.199-1.292 0-.772-.206-1.387a3 3 0 0 0-.587-1.06 2.6 2.6 0 0 0-.951-.663 3.2 3.2 0 0 0-1.257-.232q-.52 0-.923.129a3.4 3.4 0 0 0-.643.274l.26-2.386h3.992v-1.449h-5.352zm16.227 1.142v-2.358q0-.957-.225-1.689a3.7 3.7 0 0 0-.636-1.244 2.7 2.7 0 0 0-1.025-.752 3.4 3.4 0 0 0-1.354-.26q-.751 0-1.354.26a2.66 2.66 0 0 0-1.011.752 3.6 3.6 0 0 0-.643 1.244q-.219.732-.219 1.689v2.358q0 .957.219 1.695.226.732.65 1.224.417.505 1.018.766.601.253 1.354.253.759 0 1.353-.253a2.64 2.64 0 0 0 1.012-.766q.417-.492.636-1.224.225-.738.225-1.695m-4.826-.581v-2.071q0-.615.109-1.067.11-.457.335-.745.192-.252.479-.383a1.6 1.6 0 0 1 .663-.13q.349 0 .622.11.28.11.472.328.218.246.335.636a3.7 3.7 0 0 1 .15.923zm3.179.854q0 .63-.116 1.094-.11.465-.335.752-.199.246-.479.376a1.6 1.6 0 0 1-.649.123q-.376 0-.663-.13a1.2 1.2 0 0 1-.472-.389q-.192-.24-.308-.602a4 4 0 0 1-.143-.834l3.165-2.386v1.996M670.79 679h1.484v-7.396h-1.641v5.236a2 2 0 0 1-.232.376 1.6 1.6 0 0 1-.315.287 1.9 1.9 0 0 1-.492.219q-.28.075-.636.075-.342 0-.594-.089a.9.9 0 0 1-.417-.301 1.3 1.3 0 0 1-.24-.547 4 4 0 0 1-.075-.861v-4.395h-1.634v4.381q0 .834.185 1.436.185.594.519.977.342.384.814.568.478.178 1.053.178.67 0 1.21-.308.54-.315.916-.868zm10.034-2.29.67 2.29h1.702l-3.186-9.953h-1.456l-3.24 9.953h1.709l.677-2.29zm-2.707-1.408 1.162-3.938 1.142 3.938z"/><rect width="120" height="34" x="599" y="737" fill="#fff" rx="4"/><path fill="#000" d="M636.446 754.536v-1.326h-4.116v-2.803h4.772v-1.36h-6.419V759h6.453v-1.354h-4.806v-3.11zm10.956 1.402h-1.648a3 3 0 0 1-.177.799 1.7 1.7 0 0 1-.363.581 1.5 1.5 0 0 1-.56.363q-.329.123-.752.123-.355 0-.636-.096a1.5 1.5 0 0 1-.485-.294 1.8 1.8 0 0 1-.356-.424 2.8 2.8 0 0 1-.239-.547 4.4 4.4 0 0 1-.185-.799 8 8 0 0 1-.054-.937v-1.374q0-.404.041-.786.048-.39.137-.732.116-.389.293-.704.185-.321.458-.519.199-.165.452-.253.26-.089.581-.089.457 0 .786.137.328.13.554.383.218.252.341.615.13.355.171.8h1.641a4.6 4.6 0 0 0-.335-1.354 3.1 3.1 0 0 0-.697-1.039 3 3 0 0 0-1.06-.656 4 4 0 0 0-1.401-.233 3.34 3.34 0 0 0-1.962.595 3.5 3.5 0 0 0-.752.745q-.321.431-.527.964a5.2 5.2 0 0 0-.287 1.019q-.095.54-.095 1.121v1.36q0 .608.095 1.169.103.56.301 1.039.198.486.485.896.294.403.684.69.403.308.916.478.52.165 1.135.165.752 0 1.367-.226a3.2 3.2 0 0 0 1.073-.656 3.2 3.2 0 0 0 .718-1.005q.273-.595.342-1.319m10.088 0h-1.647q-.042.45-.178.799a1.7 1.7 0 0 1-.362.581q-.232.24-.561.363a2.1 2.1 0 0 1-.752.123q-.356 0-.636-.096a1.5 1.5 0 0 1-.485-.294 1.8 1.8 0 0 1-.355-.424 2.7 2.7 0 0 1-.24-.547 4.4 4.4 0 0 1-.184-.799 8 8 0 0 1-.055-.937v-1.374q0-.404.041-.786.048-.39.137-.732.115-.389.294-.704.184-.321.458-.519.198-.165.451-.253.26-.089.581-.089.457 0 .786.137.328.13.554.383.219.252.342.615.13.355.17.8h1.641a4.6 4.6 0 0 0-.335-1.354 3.1 3.1 0 0 0-.697-1.039 3 3 0 0 0-1.06-.656 4 4 0 0 0-1.401-.233q-.58 0-1.073.158a3.3 3.3 0 0 0-.889.437 3.5 3.5 0 0 0-.752.745q-.322.431-.526.964a5 5 0 0 0-.287 1.019 6.4 6.4 0 0 0-.096 1.121v1.36q0 .608.096 1.169.102.56.3 1.039.199.486.486.896.294.403.683.69.404.308.916.478.52.165 1.135.165.752 0 1.367-.226a3.2 3.2 0 0 0 1.074-.656q.444-.417.717-1.005.274-.595.342-1.319m8.29-6.939h-.191q-1.163 0-2.064.362a4.1 4.1 0 0 0-1.518 1.039 4.6 4.6 0 0 0-1.039 1.88 8.4 8.4 0 0 0-.308 2.29v.677q0 .8.233 1.524.233.718.683 1.251.424.513 1.039.814.616.3 1.402.301.765 0 1.36-.26a3 3 0 0 0 1.019-.731q.41-.459.622-1.074.218-.621.218-1.333 0-.65-.17-1.251a3.1 3.1 0 0 0-.52-1.066 2.5 2.5 0 0 0-.889-.738q-.533-.274-1.257-.274-.342 0-.65.082-.308.075-.56.205a2.7 2.7 0 0 0-.486.315 3 3 0 0 0-.383.355q.055-.636.281-1.189a2.77 2.77 0 0 1 1.654-1.566q.602-.225 1.415-.225h.109zm-1.784 4.737q.397 0 .698.164.307.157.512.438.205.28.308.656.11.369.109.786 0 .438-.109.814-.11.369-.321.642a1.6 1.6 0 0 1-.513.424q-.301.15-.684.151a1.4 1.4 0 0 1-.656-.158 1.6 1.6 0 0 1-.54-.458 2.3 2.3 0 0 1-.369-.752q-.13-.45-.13-1.046v-.505a2 2 0 0 1 .273-.458q.165-.206.37-.363a1.9 1.9 0 0 1 .492-.246q.266-.089.56-.089m13.377 1.47v-2.358q0-.957-.226-1.689a3.6 3.6 0 0 0-.636-1.244 2.7 2.7 0 0 0-1.025-.752 3.4 3.4 0 0 0-1.354-.26q-.751 0-1.353.26a2.65 2.65 0 0 0-1.012.752 3.6 3.6 0 0 0-.643 1.244q-.218.732-.218 1.689v2.358q0 .957.218 1.695.226.732.65 1.224.417.505 1.018.766a3.5 3.5 0 0 0 1.354.253q.759 0 1.353-.253a2.6 2.6 0 0 0 1.012-.766q.417-.492.636-1.224.226-.738.226-1.695m-4.827-.581v-2.071q0-.615.11-1.067.109-.457.335-.745a1.23 1.23 0 0 1 .478-.383q.288-.13.663-.13.35 0 .622.11.28.11.472.328.22.246.335.636a3.7 3.7 0 0 1 .15.923zm3.179.854q0 .63-.116 1.094-.11.465-.335.752-.198.246-.479.376a1.6 1.6 0 0 1-.649.123q-.376 0-.663-.13a1.2 1.2 0 0 1-.472-.389 1.9 1.9 0 0 1-.307-.602 4 4 0 0 1-.144-.834l3.165-2.386v1.996m11.544-3.807q0-.663-.232-1.176a2.45 2.45 0 0 0-.636-.868 2.8 2.8 0 0 0-.977-.533 3.8 3.8 0 0 0-1.21-.185q-.663 0-1.224.185a2.6 2.6 0 0 0-.95.533 2.5 2.5 0 0 0-.636.868q-.225.513-.225 1.176a2.4 2.4 0 0 0 .82 1.818q.26.226.574.383a3.2 3.2 0 0 0-.67.417q-.293.24-.506.54-.211.315-.328.684a2.7 2.7 0 0 0-.109.779q0 .697.246 1.23.252.527.697.882.438.363 1.032.547a4.4 4.4 0 0 0 1.299.185q.684 0 1.272-.185a3.1 3.1 0 0 0 1.039-.547q.437-.355.69-.888.253-.534.253-1.224a2.481 2.481 0 0 0-.595-1.647 2.2 2.2 0 0 0-.464-.431 3.4 3.4 0 0 0-.568-.335 2.6 2.6 0 0 0 .848-.67q.267-.308.41-.697.15-.39.15-.841m-1.415 4.532q0 .382-.123.684a1.6 1.6 0 0 1-.328.506 1.5 1.5 0 0 1-.519.314 1.9 1.9 0 0 1-.65.109q-.375 0-.677-.102a1.5 1.5 0 0 1-.505-.308 1.3 1.3 0 0 1-.335-.506 1.9 1.9 0 0 1-.117-.69q0-.376.11-.677.116-.308.328-.533.212-.212.506-.328.3-.116.677-.116.361 0 .663.116.3.116.519.328.212.225.328.533.123.301.123.67m-.212-4.471q0 .336-.102.616a1.34 1.34 0 0 1-.732.772 1.5 1.5 0 0 1-.581.109q-.321 0-.581-.109a1.3 1.3 0 0 1-.444-.308 1.2 1.2 0 0 1-.287-.464 1.9 1.9 0 0 1-.096-.616q0-.341.096-.622a1.3 1.3 0 0 1 .273-.471q.184-.192.438-.294.26-.11.581-.11a1.5 1.5 0 0 1 .588.11q.26.11.451.3.185.206.287.479.11.273.109.608"/><rect width="120" height="34" x="599" y="737" stroke="#111" stroke-width="2" rx="4"/><rect width="61" height="24" x="628.5" y="777" fill="#c11f09" rx="12"/><path fill="#fff" d="M645.146 794v-9.953h-.103l-4.094 1.517v1.443l2.55-.937V794zm11.038-3.548v-6.405h-1.681l-4.3 6.726.041 1.005h4.307V794h1.633v-2.222h1.251v-1.326zm-4.313 0 2.488-3.862.192-.356v4.218zm9.958-3.848h-1.422V794h1.504v-5.681q.042-.102.089-.184a.8.8 0 0 1 .123-.144.54.54 0 0 1 .212-.13.9.9 0 0 1 .294-.048q.15 0 .267.041a.55.55 0 0 1 .212.13q.088.09.129.246.048.151.048.37v5.4h1.477v-5.66a.7.7 0 0 1 .082-.205.6.6 0 0 1 .137-.164.7.7 0 0 1 .205-.117.8.8 0 0 1 .273-.041q.15 0 .274.041a.54.54 0 0 1 .218.13q.09.096.137.253.048.152.048.369V794h1.504v-5.38a3.5 3.5 0 0 0-.123-.991 1.8 1.8 0 0 0-.335-.677 1.3 1.3 0 0 0-.52-.362 1.7 1.7 0 0 0-.649-.123 1.8 1.8 0 0 0-.506.068q-.225.069-.41.192a1.4 1.4 0 0 0-.267.232 2 2 0 0 0-.219.294 1.3 1.3 0 0 0-.382-.533 1 1 0 0 0-.376-.192 1.8 1.8 0 0 0-.492-.061q-.527 0-.903.253-.37.253-.581.697zm13.951 5.106.67 2.29h1.702l-3.186-9.953h-1.456L670.27 794h1.709l.677-2.29zm-2.707-1.408 1.162-3.938 1.141 3.938z"/><rect width="190" height="34" x="599" y="852" fill="#fff" rx="4"/><path fill="#000" d="M621.627 864.047h-1.621l-.013 6.658q-.013.465-.123.855-.11.382-.322.663a1.44 1.44 0 0 1-.526.423 1.7 1.7 0 0 1-.711.144q-.396 0-.697-.144a1.5 1.5 0 0 1-.499-.41 1.9 1.9 0 0 1-.321-.663 3.5 3.5 0 0 1-.117-.868l-.013-6.658h-1.62l-.014 6.658q.006.772.239 1.408.24.636.67 1.087.424.451 1.025.697.601.24 1.347.24.76 0 1.367-.246.615-.246 1.053-.698.43-.45.663-1.08.24-.636.239-1.408zm8.488 7.95a.67.67 0 0 1-.082.328.8.8 0 0 1-.232.267q-.192.15-.513.239-.315.089-.738.089-.315 0-.622-.062a1.7 1.7 0 0 1-.547-.218 1.3 1.3 0 0 1-.41-.376 1.2 1.2 0 0 1-.178-.581h-1.586q0 .458.219.902t.642.786q.417.349 1.033.561a4.4 4.4 0 0 0 1.421.212q.718 0 1.306-.165a3.3 3.3 0 0 0 1.012-.458q.417-.293.642-.704.233-.41.233-.902 0-.506-.219-.875a2.1 2.1 0 0 0-.615-.643 4 4 0 0 0-.957-.437 10 10 0 0 0-1.238-.301 6 6 0 0 1-.806-.184 2 2 0 0 1-.492-.226.67.67 0 0 1-.267-.267.8.8 0 0 1-.075-.348q0-.184.089-.349a.8.8 0 0 1 .266-.294q.178-.137.451-.212a2.4 2.4 0 0 1 .65-.082q.403 0 .704.11.3.102.492.28.165.15.246.342.09.185.089.389h1.634a2 2 0 0 0-.219-.929 2.2 2.2 0 0 0-.622-.745 3.1 3.1 0 0 0-.998-.493 4.4 4.4 0 0 0-1.326-.184q-.69 0-1.258.178-.561.177-.957.485a2.2 2.2 0 0 0-.622.718 1.8 1.8 0 0 0-.212.854q0 .472.212.827.211.355.588.616.383.273.909.464.533.192 1.176.322.513.095.854.205.342.11.554.232a.9.9 0 0 1 .28.287q.09.15.089.342m8.708 2.14q1.08 0 1.838-.424.766-.424 1.135-.957l-.875-.848a2.3 2.3 0 0 1-.868.677 2.8 2.8 0 0 1-1.135.232q-.444 0-.82-.15-.369-.15-.643-.424a2 2 0 0 1-.43-.588 3 3 0 0 1-.233-.813v-.034h5.127v-.704q0-.794-.212-1.463a3.3 3.3 0 0 0-.629-1.156 2.85 2.85 0 0 0-1.032-.745q-.615-.273-1.415-.273a3.4 3.4 0 0 0-2.461 1.039q-.479.5-.752 1.203a4.3 4.3 0 0 0-.273 1.572v.281q0 .758.26 1.415.266.649.751 1.127.486.486 1.163.759.683.274 1.504.274m-.199-6.344q.41 0 .718.144.315.137.52.369.211.239.328.56.116.315.116.636v.109h-3.48q.076-.423.233-.758.158-.336.389-.575.233-.232.527-.355.3-.13.649-.13m11.948-1.326q-.766 0-1.402.355a3.4 3.4 0 0 0-1.08.978l-.006-.171-.069-1.025h-1.531V874h1.634v-4.566a2.4 2.4 0 0 1 .321-.581q.192-.254.465-.417.252-.172.581-.253t.738-.082q.362 0 .725.041.369.04.745.123l.232-1.614a3.3 3.3 0 0 0-.588-.13 5 5 0 0 0-.765-.054M670.359 874h1.668v-.116a2.8 2.8 0 0 1-.212-.684 5.4 5.4 0 0 1-.069-.902v-3.288q0-.63-.232-1.108a2.2 2.2 0 0 0-.643-.799 2.8 2.8 0 0 0-.977-.472 4.3 4.3 0 0 0-1.21-.164 4 4 0 0 0-1.292.191 2.8 2.8 0 0 0-.944.506q-.396.315-.601.725a1.96 1.96 0 0 0-.212.854h1.641q0-.212.075-.396a.8.8 0 0 1 .246-.322q.164-.143.41-.225.254-.082.588-.082.369 0 .649.095.288.09.486.26.184.171.28.404.102.232.103.519v.499h-1.19q-.8 0-1.435.151-.63.15-1.06.437-.465.308-.711.779-.24.465-.239 1.074 0 .471.184.881.192.403.534.691.335.294.806.465.478.164 1.053.164.356 0 .663-.069.307-.068.574-.191.266-.117.479-.273.218-.165.389-.342.034.212.076.41.047.191.123.328m-1.99-1.176a1.8 1.8 0 0 1-.547-.075 1.2 1.2 0 0 1-.389-.219.9.9 0 0 1-.239-.328 1.1 1.1 0 0 1-.082-.424q0-.273.095-.492.103-.219.308-.376.232-.184.622-.28.39-.102.923-.103h1.053v1.368a1.4 1.4 0 0 1-.253.341q-.165.165-.39.294a2.25 2.25 0 0 1-1.101.294m7.368 4.02h1.634v-3.514a2.5 2.5 0 0 0 .594.485q.28.158.609.24.335.082.731.082.697 0 1.237-.287.541-.288.91-.793.369-.5.553-1.19.192-.69.192-1.49v-.144q0-.834-.192-1.524a3.7 3.7 0 0 0-.553-1.196 2.55 2.55 0 0 0-.916-.773q-.54-.273-1.251-.273-.363 0-.684.082-.321.075-.588.219a2 2 0 0 0-.383.259 2.7 2.7 0 0 0-.328.335l-.061-.758h-1.504zm4.826-6.611v.144q0 .492-.096.936a2.5 2.5 0 0 1-.307.78 1.6 1.6 0 0 1-.534.533q-.32.192-.779.191-.28 0-.513-.061a2 2 0 0 1-.417-.178 1.5 1.5 0 0 1-.314-.273 1.6 1.6 0 0 1-.232-.349v-3.288q.11-.205.253-.369.15-.165.348-.274.171-.102.39-.157.219-.054.472-.055.457 0 .786.192.327.191.54.519.205.329.3.773.103.438.103.936m5.262 6.611h1.634v-3.514a2.5 2.5 0 0 0 .595.485q.28.158.608.24.335.082.731.082.698 0 1.238-.287.54-.288.909-.793.37-.5.554-1.19.19-.69.191-1.49v-.144q0-.834-.191-1.524a3.7 3.7 0 0 0-.554-1.196 2.55 2.55 0 0 0-.916-.773q-.54-.273-1.251-.273-.363 0-.684.082-.321.075-.588.219a2 2 0 0 0-.382.259 2.6 2.6 0 0 0-.329.335l-.061-.758h-1.504zm4.826-6.611v.144q0 .492-.095.936a2.5 2.5 0 0 1-.308.78 1.6 1.6 0 0 1-.533.533 1.5 1.5 0 0 1-.78.191q-.28 0-.512-.061a1.8 1.8 0 0 1-.417-.178 1.5 1.5 0 0 1-.315-.273 1.7 1.7 0 0 1-.232-.349v-3.288q.11-.205.253-.369.15-.165.348-.274.171-.102.39-.157.219-.054.472-.055.457 0 .786.192.328.191.54.519.205.329.301.773.102.438.102.936m5.563-6.733v1.36h2.338v7.786h-2.338V874h6.228v-1.354h-2.243V863.5zm10.15 3.104v1.36h2.276v4.682h-2.276V874h6.097v-1.354h-2.173v-6.042zm2.126-1.915q0 .26.123.458a.67.67 0 0 0 .376.267q.239.075.437.034a.7.7 0 0 0 .342-.171.74.74 0 0 0 .438-.294q.15-.225.102-.526a.7.7 0 0 0-.267-.478q-.225-.192-.594-.192-.219 0-.397.068a.8.8 0 0 0-.294.178.8.8 0 0 0-.198.294.95.95 0 0 0-.068.362m10.806 8.135q-.513 0-.855-.205a1.5 1.5 0 0 1-.54-.547 2.3 2.3 0 0 1-.294-.759 5 5 0 0 1-.082-.888v-.239q0-.445.082-.875.089-.432.301-.766.198-.335.533-.54.342-.212.855-.212a1.65 1.65 0 0 1 1.128.431q.204.198.314.464.116.267.116.568h1.538q.007-.615-.225-1.128a2.6 2.6 0 0 0-.636-.882 2.9 2.9 0 0 0-.984-.574 3.6 3.6 0 0 0-1.238-.205q-.847 0-1.49.301a3.1 3.1 0 0 0-1.066.799 3.45 3.45 0 0 0-.65 1.183q-.212.677-.212 1.436v.239q0 .765.219 1.442.219.67.65 1.176.423.505 1.059.807.644.294 1.497.294.615 0 1.169-.199.56-.204.991-.56.424-.342.67-.814.254-.478.246-1.018h-1.538q0 .28-.13.512-.122.233-.335.404a1.6 1.6 0 0 1-.505.266q-.28.09-.588.089M730.888 874h1.668v-.116a2.8 2.8 0 0 1-.212-.684 5.4 5.4 0 0 1-.068-.902v-3.288q0-.63-.233-1.108a2.2 2.2 0 0 0-.642-.799q-.411-.315-.978-.472a4.3 4.3 0 0 0-1.21-.164 4 4 0 0 0-1.292.191 2.8 2.8 0 0 0-.943.506q-.397.315-.602.725a1.96 1.96 0 0 0-.212.854h1.641q0-.212.075-.396a.8.8 0 0 1 .246-.322q.164-.143.41-.225.254-.082.588-.082.37 0 .65.095.287.09.485.26.184.171.28.404.103.232.103.519v.499h-1.19a6.2 6.2 0 0 0-1.435.151q-.63.15-1.06.437-.465.308-.711.779-.239.465-.239 1.074 0 .471.185.881.19.403.533.691.335.294.806.465.478.164 1.053.164.356 0 .663-.069.308-.068.574-.191.267-.117.479-.273a3.3 3.3 0 0 0 .39-.342q.033.212.075.41.048.191.123.328m-1.989-1.176q-.315 0-.547-.075a1.2 1.2 0 0 1-.39-.219.9.9 0 0 1-.239-.328 1.23 1.23 0 0 1 .013-.916q.103-.219.308-.376.232-.184.622-.28.39-.102.923-.103h1.053v1.368a1.4 1.4 0 0 1-.253.341 1.8 1.8 0 0 1-.39.294 2.25 2.25 0 0 1-1.1.294m10.635-8.025h-1.641v1.805h-1.791v1.223h1.791v3.637q0 .71.185 1.217.191.506.526.827.335.328.8.485.471.15 1.032.151.308 0 .615-.035a5.8 5.8 0 0 0 1.135-.212q.253-.081.431-.191l-.178-1.128-.308.068a6 6 0 0 1-.383.062 6 6 0 0 1-.437.055q-.225.02-.438.02-.293 0-.54-.068a1 1 0 0 1-.423-.233 1.05 1.05 0 0 1-.281-.43 2.2 2.2 0 0 1-.095-.691v-3.534h2.782v-1.223h-2.782zm7.183 1.805v1.36h2.276v4.682h-2.276V874h6.097v-1.354h-2.174v-6.042zm2.126-1.915q0 .26.123.458a.67.67 0 0 0 .376.267q.239.075.437.034a.7.7 0 0 0 .342-.171.73.73 0 0 0 .437-.294.7.7 0 0 0 .103-.526.7.7 0 0 0-.267-.478q-.225-.192-.594-.192-.219 0-.397.068a.817.817 0 0 0-.492.472.9.9 0 0 0-.068.362m7.285 5.544v.144q0 .813.232 1.497.233.684.677 1.189.438.507 1.08.793.643.288 1.456.288.807 0 1.443-.288a3.04 3.04 0 0 0 1.08-.793q.437-.505.67-1.189.232-.684.232-1.497v-.144q0-.806-.232-1.49a3.5 3.5 0 0 0-.67-1.196 3.1 3.1 0 0 0-1.087-.793q-.636-.288-1.449-.287-.814 0-1.45.287a3.1 3.1 0 0 0-1.073.793 3.5 3.5 0 0 0-.677 1.196 4.6 4.6 0 0 0-.232 1.49m1.634.144v-.144q0-.485.102-.929.11-.445.335-.78.22-.335.554-.533.342-.198.807-.198.471 0 .806.198.342.198.568.533.212.335.321.78.11.444.109.929v.144q0 .5-.109.943a2.4 2.4 0 0 1-.321.78 1.65 1.65 0 0 1-.561.533 1.6 1.6 0 0 1-.8.191q-.471 0-.813-.191a1.65 1.65 0 0 1-.561-.533 2.4 2.4 0 0 1-.335-.78 4.2 4.2 0 0 1-.102-.943m8.755 3.623h1.634v-5.277q.11-.184.253-.342a1.66 1.66 0 0 1 .779-.485q.26-.083.561-.083.361 0 .642.083.28.075.479.259.198.185.3.492.103.309.103.766V874h1.634v-4.614q0-.78-.185-1.326a2.4 2.4 0 0 0-.519-.91 2 2 0 0 0-.807-.519 3.1 3.1 0 0 0-1.039-.164 2.7 2.7 0 0 0-1.538.471 2.9 2.9 0 0 0-.718.718l-.102-1.052h-1.477z"/><rect width="190" height="34" x="599" y="852" stroke="#111" stroke-width="2" rx="4"/><rect width="71" height="24" x="658.5" y="892" fill="#c11f09" rx="12"/><path fill="#fff" d="M672.005 907.653h-.13v1.395h.137q1.285 0 2.194-.376.916-.377 1.477-1.032.69-.8.964-1.867a9 9 0 0 0 .273-2.242v-.574q0-.855-.225-1.627a3.8 3.8 0 0 0-.663-1.326 3 3 0 0 0-1.019-.8q-.594-.294-1.367-.294a3.2 3.2 0 0 0-1.367.28 2.9 2.9 0 0 0-1.005.746q-.41.478-.629 1.114a4.2 4.2 0 0 0-.212 1.346q0 .664.178 1.265.177.602.54 1.067.356.458.888.731.54.273 1.265.273.356 0 .649-.068.301-.068.547-.185.233-.109.424-.252a2.4 2.4 0 0 0 .349-.322v.034q-.056.582-.246 1.087a2.4 2.4 0 0 1-.602.889 2.6 2.6 0 0 1-.977.547q-.596.191-1.443.191m1.648-3.213q-.411 0-.711-.17a1.6 1.6 0 0 1-.492-.465 2 2 0 0 1-.301-.67 3.2 3.2 0 0 1-.096-.786q0-.424.103-.807.109-.39.314-.677.198-.287.492-.451.302-.171.684-.171.342 0 .642.164.301.157.527.465.219.307.348.766.137.458.137 1.052v.568a2 2 0 0 1-.266.471 1.8 1.8 0 0 1-.37.37 1.65 1.65 0 0 1-1.011.341m7.36-.376 1.306.322q.13-.123.267-.226.143-.11.314-.191.164-.075.376-.123.219-.048.513-.048.444 0 .779.15.334.144.561.41.225.267.335.629.116.356.116.786a3.4 3.4 0 0 1-.096.828 1.9 1.9 0 0 1-.287.642 1.4 1.4 0 0 1-.506.424q-.3.15-.711.15-.698 0-1.148-.389-.445-.39-.533-1.121h-1.593q.04.69.321 1.223.287.526.731.882a3.1 3.1 0 0 0 1.019.547q.575.178 1.203.178.827 0 1.436-.26.607-.26 1.005-.711.403-.452.594-1.053.198-.608.199-1.292 0-.772-.206-1.387a3 3 0 0 0-.587-1.06 2.6 2.6 0 0 0-.951-.663 3.2 3.2 0 0 0-1.257-.232q-.52 0-.923.129a3.4 3.4 0 0 0-.643.274l.26-2.386h3.992v-1.449h-5.352zm16.227 1.142v-2.358q0-.957-.225-1.689a3.7 3.7 0 0 0-.636-1.244 2.7 2.7 0 0 0-1.025-.752 3.4 3.4 0 0 0-1.354-.26q-.751 0-1.354.26a2.66 2.66 0 0 0-1.011.752 3.6 3.6 0 0 0-.643 1.244q-.219.732-.219 1.689v2.358q0 .957.219 1.695.226.732.65 1.224.417.505 1.018.766.601.252 1.354.253.759 0 1.353-.253a2.64 2.64 0 0 0 1.012-.766q.417-.492.636-1.224.225-.738.225-1.695m-4.826-.581v-2.071q0-.615.109-1.067.11-.457.335-.745.192-.252.479-.383a1.6 1.6 0 0 1 .663-.13q.349 0 .622.11.28.11.472.328.218.246.335.636a3.7 3.7 0 0 1 .15.923zm3.179.854q0 .63-.116 1.094-.11.465-.335.752-.199.246-.479.376a1.6 1.6 0 0 1-.649.123q-.376 0-.663-.13a1.2 1.2 0 0 1-.472-.389q-.192-.24-.308-.602a4 4 0 0 1-.143-.834l3.165-2.386v1.996m6.28-3.875h-1.422V909h1.504v-5.681q.041-.102.089-.184a.8.8 0 0 1 .123-.144.55.55 0 0 1 .212-.13.9.9 0 0 1 .294-.048q.15 0 .267.041a.55.55 0 0 1 .212.13q.088.09.13.246.047.151.047.37v5.4h1.477v-5.66a.7.7 0 0 1 .219-.369.7.7 0 0 1 .205-.117.8.8 0 0 1 .273-.041q.151 0 .274.041a.54.54 0 0 1 .218.13q.09.096.137.253.048.152.048.369V909h1.504v-5.38a3.5 3.5 0 0 0-.123-.991 1.8 1.8 0 0 0-.335-.677 1.3 1.3 0 0 0-.52-.362 1.7 1.7 0 0 0-.649-.123 1.8 1.8 0 0 0-.506.068q-.225.069-.41.192a1.4 1.4 0 0 0-.267.232 2 2 0 0 0-.218.294 1.4 1.4 0 0 0-.164-.301 1.08 1.08 0 0 0-.595-.424 1.8 1.8 0 0 0-.492-.061q-.526 0-.903.253-.37.253-.581.697zm13.951 5.106.67 2.29h1.702l-3.186-9.953h-1.456l-3.24 9.953h1.709l.677-2.29zm-2.707-1.408 1.162-3.938 1.142 3.938z"/><rect width="71" height="36" x="412.5" y="46" fill="#7f8c8d" rx="5"/><path fill="#fff" d="M433.599 63.538v-2.782h-1.579v2.782h-2.625v1.538h2.625v2.926h1.579v-2.926h2.618v-1.538zm7.942-.253v1.285h.977q.424 0 .766.103.349.096.595.294.246.204.376.513.13.307.13.738 0 .383-.117.683-.11.294-.321.493a1.4 1.4 0 0 1-.54.32 2.3 2.3 0 0 1-.711.103 2 2 0 0 1-.677-.109 1.6 1.6 0 0 1-.519-.308 1.3 1.3 0 0 1-.349-.465 1.6 1.6 0 0 1-.116-.608h-1.634q0 .697.267 1.224.274.52.724.875.452.356 1.046.533t1.238.178q.71 0 1.319-.192a3.2 3.2 0 0 0 1.066-.574q.445-.37.698-.91.26-.546.259-1.243 0-.375-.088-.725a2.2 2.2 0 0 0-.288-.663 2.2 2.2 0 0 0-.512-.54 2.5 2.5 0 0 0-.752-.396 2.66 2.66 0 0 0 1.121-.944q.184-.287.273-.595.096-.307.096-.615 0-.698-.232-1.223a2.46 2.46 0 0 0-.657-.89 2.75 2.75 0 0 0-1.011-.532 4.3 4.3 0 0 0-1.292-.185 3.8 3.8 0 0 0-1.272.205 3.2 3.2 0 0 0-.998.568 2.7 2.7 0 0 0-.663.868 2.5 2.5 0 0 0-.239 1.093h1.634q0-.32.116-.58.122-.26.335-.445.204-.184.485-.28.287-.103.622-.103.376 0 .663.103.294.102.486.287.19.198.287.479.102.28.102.635 0 .329-.109.615a1.24 1.24 0 0 1-.301.472q-.212.219-.54.342a2.3 2.3 0 0 1-.766.116zM452.231 69h1.599l3.063-9.953h-1.791l-1.908 6.884-.17.601-.164-.594-1.894-6.891h-1.798zm9.486-5.715v1.285h.978q.424 0 .765.103.35.096.595.294.246.204.376.513.13.307.13.738 0 .383-.116.683-.11.294-.321.493a1.4 1.4 0 0 1-.541.32 2.3 2.3 0 0 1-.71.103q-.37 0-.677-.109a1.6 1.6 0 0 1-.52-.308 1.3 1.3 0 0 1-.348-.465 1.6 1.6 0 0 1-.117-.608h-1.633q0 .697.266 1.224.274.52.725.875.451.356 1.046.533t1.237.178a4.4 4.4 0 0 0 1.319-.192 3.2 3.2 0 0 0 1.067-.574q.444-.37.697-.91.26-.546.26-1.243 0-.375-.089-.725a2.2 2.2 0 0 0-.287-.663q-.198-.3-.513-.54a2.5 2.5 0 0 0-.752-.396 2.63 2.63 0 0 0 1.121-.944q.184-.287.274-.595.096-.307.095-.615 0-.698-.232-1.223a2.5 2.5 0 0 0-.656-.89 2.75 2.75 0 0 0-1.012-.532 4.3 4.3 0 0 0-1.292-.185q-.69 0-1.271.205a3.2 3.2 0 0 0-.999.568 2.7 2.7 0 0 0-.663.868 2.5 2.5 0 0 0-.239 1.093h1.634q0-.32.116-.58a1.394 1.394 0 0 1 .82-.725 1.8 1.8 0 0 1 .623-.103q.375 0 .663.103.294.102.485.287.192.198.287.479.102.28.103.635 0 .329-.11.615a1.2 1.2 0 0 1-.301.472q-.212.219-.54.342a2.3 2.3 0 0 1-.765.116z"/><path fill="#f1c40f" d="M398 87h60v24h-60z"/><path fill="#202020" d="M410.107 104h2.516a4.8 4.8 0 0 0 1.278-.164 4 4 0 0 0 1.094-.472q.437-.28.793-.676.362-.397.615-.882.26-.5.396-1.101.144-.609.144-1.285v-.78q0-.703-.151-1.326a5 5 0 0 0-.423-1.141 4 4 0 0 0-.663-.903 3.5 3.5 0 0 0-.896-.67 4.2 4.2 0 0 0-1.032-.403q-.567-.15-1.21-.15h-2.461zm1.661-8.613h.8q.396.006.738.095a2.3 2.3 0 0 1 .615.24q.377.212.65.553a2.8 2.8 0 0 1 .437.752q.13.343.199.745.068.404.068.855v.793q0 .458-.068.861a4 4 0 0 1-.199.745q-.15.404-.389.718a2.3 2.3 0 0 1-.534.513 2.4 2.4 0 0 1-.663.307 3 3 0 0 1-.799.103h-.855zm15.222 5.551h-1.647q-.042.45-.178.799a1.7 1.7 0 0 1-.362.581q-.232.24-.561.363a2.1 2.1 0 0 1-.752.123q-.356 0-.636-.096a1.5 1.5 0 0 1-.485-.294 1.8 1.8 0 0 1-.355-.424 2.7 2.7 0 0 1-.24-.547 4.4 4.4 0 0 1-.184-.799 8 8 0 0 1-.055-.937v-1.374q0-.403.041-.786.048-.39.137-.732.116-.39.294-.704.184-.32.458-.52.198-.163.451-.252.26-.09.581-.089.457 0 .786.137.328.13.554.382.219.254.342.616.13.355.17.8h1.641a4.6 4.6 0 0 0-.335-1.354 3.1 3.1 0 0 0-.697-1.039 3 3 0 0 0-1.06-.656 4 4 0 0 0-1.401-.233 3.5 3.5 0 0 0-1.073.157q-.486.158-.889.438a3.5 3.5 0 0 0-.752.745 4 4 0 0 0-.526.964 5 5 0 0 0-.287 1.019q-.096.54-.096 1.12v1.361q0 .609.096 1.169.102.56.3 1.039.199.485.486.896.294.403.683.69.404.308.916.478.52.165 1.135.165.752 0 1.367-.226a3.2 3.2 0 0 0 1.074-.656q.444-.417.717-1.005.274-.595.342-1.319m3.293 3.062h2.516a4.8 4.8 0 0 0 1.278-.164 4 4 0 0 0 1.094-.472q.438-.28.793-.676.363-.397.615-.882.26-.5.397-1.101.143-.609.143-1.285v-.78q0-.703-.15-1.326a5 5 0 0 0-.424-1.141 4 4 0 0 0-.663-.903 3.5 3.5 0 0 0-.896-.67 4.2 4.2 0 0 0-1.032-.403 4.7 4.7 0 0 0-1.21-.15h-2.461zm1.661-8.613h.8q.397.006.739.095.341.083.615.24.375.212.649.553.274.335.438.752.129.343.198.745.068.404.068.855v.793q0 .458-.068.861a4 4 0 0 1-.198.745q-.15.404-.39.718a2.3 2.3 0 0 1-.533.513 2.4 2.4 0 0 1-.663.307 3 3 0 0 1-.8.103h-.855zm15.222 5.551h-1.647a3 3 0 0 1-.178.799 1.7 1.7 0 0 1-.362.581q-.233.24-.561.363a2.1 2.1 0 0 1-.752.123q-.354 0-.635-.096a1.5 1.5 0 0 1-.486-.294 1.8 1.8 0 0 1-.355-.424 2.6 2.6 0 0 1-.239-.547 4.4 4.4 0 0 1-.185-.799 8 8 0 0 1-.055-.937v-1.374q0-.403.041-.786.048-.39.137-.732.117-.39.294-.704a1.6 1.6 0 0 1 .458-.52q.198-.163.451-.252.26-.09.581-.089.459 0 .786.137.329.13.554.382.219.254.342.616.13.355.171.8h1.64a4.6 4.6 0 0 0-.334-1.354 3.1 3.1 0 0 0-.698-1.039 3 3 0 0 0-1.059-.656 4 4 0 0 0-1.402-.233 3.5 3.5 0 0 0-1.073.157 3.4 3.4 0 0 0-.889.438 3.6 3.6 0 0 0-.752.745 4 4 0 0 0-.526.964 5 5 0 0 0-.287 1.019q-.096.54-.096 1.12v1.361q0 .609.096 1.169.103.56.301 1.039.198.485.485.896.294.403.684.69.403.308.916.478.519.165 1.134.165.753 0 1.368-.226a3.2 3.2 0 0 0 1.073-.656q.444-.417.718-1.005a4 4 0 0 0 .341-1.319"/><path fill="#c11f09" d="M458 87h40v24h-40z"/><path fill="#fff" d="M473.734 104v-9.953h-.102l-4.095 1.517v1.443l2.55-.937V104zm10.458-2.29.669 2.29h1.703l-3.186-9.953h-1.456l-3.24 9.953h1.709l.677-2.29zm-2.707-1.408 1.162-3.938 1.141 3.938z"/></svg>