<svg xmlns="http://www.w3.org/2000/svg" viewBox="0 0 100.37867 75.68504"><defs><style>.cls-1{fill:#3e4440;}.cls-2{fill:#fff;}.cls-3{fill:#8b7866;}.cls-4{fill:#8c9091;}.cls-5{fill:#c3c5c6;}.cls-6{fill:#a2a5a6;}.cls-7{fill:#2b322d;}.cls-8{fill:#dadbdc;}.cls-9{fill:#a19282;}.cls-10{fill:#2f3632;}.cls-11{fill:#d8d9da;}.cls-12{fill:#b8babb;}.cls-13{fill:#e6e7e7;}.cls-14{fill:#969a9b;}.cls-15{fill:#c1b6ac;}</style></defs><g id="Background"><path class="cls-1" d="M96.95606,117.89231v46.092l-3.564,3.664v2.305a1.41754,1.41754,0,0,1-1.418,1.418H1.418A1.4169,1.4169,0,0,1,0,169.95334V97.1043a1.41754,1.41754,0,0,1,1.418-1.418H91.33606l2.056,2.056v16.486Zm-3.41075.65942a2.32639,2.32639,0,1,0,2.32638,2.32638A2.32638,2.32638,0,0,0,93.54531,118.55173Zm0,29.16952a2.32638,2.32638,0,1,0,2.32638,2.32638A2.32637,2.32637,0,0,0,93.54531,147.72125ZM19.792,165.43048a2.32638,2.32638,0,1,0,2.32638,2.32638A2.32638,2.32638,0,0,0,19.792,165.43048Zm-.55688-68.43881a2.32639,2.32639,0,1,0,2.32638,2.32639A2.32639,2.32639,0,0,0,19.23514,96.99167Z" transform="translate(3.4226 -95.6863)"/></g><g id="Components"><g id="INSERT"><g id="CIRCLE"><path class="cls-2" d="M85.89689,95.68642a1.14707,1.14707,0,0,0,2.29414,0" transform="translate(3.4226 -95.6863)"/><path class="cls-3" d="M87.85476,95.6863h0a.811.811,0,0,1-1.62193,0m-.67255,0a1.48352,1.48352,0,0,0,2.967,0h0" transform="translate(3.4226 -95.6863)"/></g></g><g id="INSERT-2" data-name="INSERT"><g id="CIRCLE-2" data-name="CIRCLE"><path class="cls-2" d="M82.315,95.68642a1.14708,1.14708,0,0,0,2.29415,0" transform="translate(3.4226 -95.6863)"/><path class="cls-3" d="M84.27284,95.6863h0a.811.811,0,0,1-1.62193,0m-.67255,0a1.48352,1.48352,0,0,0,2.967,0h0" transform="translate(3.4226 -95.6863)"/></g></g><g id="INSERT-3" data-name="INSERT"><g id="CIRCLE-3" data-name="CIRCLE"><path class="cls-2" d="M78.73305,95.68642a1.14708,1.14708,0,0,0,2.29415,0" transform="translate(3.4226 -95.6863)"/><path class="cls-3" d="M80.69092,95.6863h0a.811.811,0,0,1-1.62193,0m-.67254,0a1.48351,1.48351,0,0,0,2.967,0h0" transform="translate(3.4226 -95.6863)"/></g></g><g id="INSERT-4" data-name="INSERT"><g id="CIRCLE-4" data-name="CIRCLE"><path class="cls-2" d="M75.15113,95.68642a1.14708,1.14708,0,0,0,2.29415,0" transform="translate(3.4226 -95.6863)"/><path class="cls-3" d="M77.109,95.6863h0a.811.811,0,0,1-1.62193,0m-.67254,0a1.48351,1.48351,0,0,0,2.967,0h0" transform="translate(3.4226 -95.6863)"/></g></g><g id="INSERT-5" data-name="INSERT"><g id="CIRCLE-5" data-name="CIRCLE"><path class="cls-2" d="M71.56921,95.68642a1.14708,1.14708,0,0,0,2.29415,0" transform="translate(3.4226 -95.6863)"/><path class="cls-3" d="M73.52709,95.6863h0a.811.811,0,0,1-1.62193,0m-.67255,0a1.48351,1.48351,0,0,0,2.967,0h0" transform="translate(3.4226 -95.6863)"/></g></g><g id="INSERT-6" data-name="INSERT"><g id="CIRCLE-6" data-name="CIRCLE"><path class="cls-2" d="M67.98729,95.68642a1.14708,1.14708,0,0,0,2.29415,0" transform="translate(3.4226 -95.6863)"/><path class="cls-3" d="M69.94517,95.6863h0a.811.811,0,0,1-1.62193,0m-.67255,0a1.48351,1.48351,0,0,0,2.967,0h0" transform="translate(3.4226 -95.6863)"/></g></g><g id="INSERT-7" data-name="INSERT"><g id="CIRCLE-7" data-name="CIRCLE"><path class="cls-2" d="M64.40537,95.68642a1.14708,1.14708,0,0,0,2.29415,0" transform="translate(3.4226 -95.6863)"/><path class="cls-3" d="M66.36325,95.6863h0a.811.811,0,0,1-1.62193,0m-.67255,0a1.48352,1.48352,0,0,0,2.967,0h0" transform="translate(3.4226 -95.6863)"/></g></g><g id="INSERT-8" data-name="INSERT"><g id="CIRCLE-8" data-name="CIRCLE"><path class="cls-2" d="M57.179,95.68642a1.14708,1.14708,0,0,0,2.29415,0" transform="translate(3.4226 -95.6863)"/><path class="cls-3" d="M59.13691,95.6863h0a.811.811,0,0,1-1.62193,0m-.67254,0a1.48351,1.48351,0,0,0,2.967,0h0" transform="translate(3.4226 -95.6863)"/></g></g><g id="INSERT-9" data-name="INSERT"><g id="CIRCLE-9" data-name="CIRCLE"><path class="cls-2" d="M53.59712,95.68642a1.14708,1.14708,0,0,0,2.29415,0" transform="translate(3.4226 -95.6863)"/><path class="cls-3" d="M55.555,95.6863h0a.811.811,0,0,1-1.62193,0m-.67255,0a1.48351,1.48351,0,0,0,2.967,0h0" transform="translate(3.4226 -95.6863)"/></g></g><g id="INSERT-10" data-name="INSERT"><g id="CIRCLE-10" data-name="CIRCLE"><path class="cls-2" d="M50.0152,95.68642a1.14708,1.14708,0,0,0,2.29415,0" transform="translate(3.4226 -95.6863)"/><path class="cls-3" d="M51.97308,95.6863h0a.811.811,0,0,1-1.62193,0m-.67255,0a1.48351,1.48351,0,0,0,2.967,0h0" transform="translate(3.4226 -95.6863)"/></g></g><g id="INSERT-11" data-name="INSERT"><g id="CIRCLE-11" data-name="CIRCLE"><path class="cls-2" d="M46.43328,95.68642a1.14708,1.14708,0,0,0,2.29415,0" transform="translate(3.4226 -95.6863)"/><path class="cls-3" d="M48.39116,95.6863h0a.811.811,0,0,1-1.62193,0m-.67255,0a1.48352,1.48352,0,0,0,2.967,0h0" transform="translate(3.4226 -95.6863)"/></g></g><g id="INSERT-12" data-name="INSERT"><g id="CIRCLE-12" data-name="CIRCLE"><path class="cls-2" d="M42.85136,95.68642a1.14708,1.14708,0,0,0,2.29415,0" transform="translate(3.4226 -95.6863)"/><path class="cls-3" d="M44.80924,95.6863h0a.811.811,0,0,1-1.62193,0m-.67255,0a1.48352,1.48352,0,0,0,2.967,0h0" transform="translate(3.4226 -95.6863)"/></g></g><g id="INSERT-13" data-name="INSERT"><g id="CIRCLE-13" data-name="CIRCLE"><path class="cls-2" d="M39.26945,95.68642a1.14707,1.14707,0,0,0,2.29414,0" transform="translate(3.4226 -95.6863)"/><path class="cls-3" d="M41.22732,95.6863h0a.811.811,0,0,1-1.62193,0m-.67255,0a1.48352,1.48352,0,0,0,2.967,0h0" transform="translate(3.4226 -95.6863)"/></g></g><g id="INSERT-14" data-name="INSERT"><g id="CIRCLE-14" data-name="CIRCLE"><path class="cls-2" d="M35.68753,95.68642a1.14708,1.14708,0,0,0,2.29415,0" transform="translate(3.4226 -95.6863)"/><path class="cls-3" d="M37.6454,95.6863h0a.811.811,0,0,1-1.62193,0m-.67254,0a1.48351,1.48351,0,0,0,2.967,0h0" transform="translate(3.4226 -95.6863)"/></g></g><g id="INSERT-15" data-name="INSERT"><g id="CIRCLE-15" data-name="CIRCLE"><path class="cls-2" d="M32.10561,95.68642a1.14708,1.14708,0,0,0,2.29415,0" transform="translate(3.4226 -95.6863)"/><path class="cls-3" d="M34.06348,95.6863h0a.811.811,0,0,1-1.62193,0m-.67254,0a1.48351,1.48351,0,0,0,2.967,0h0" transform="translate(3.4226 -95.6863)"/></g></g><g id="INSERT-16" data-name="INSERT"><g id="CIRCLE-16" data-name="CIRCLE"><path class="cls-2" d="M28.52369,95.68642a1.14708,1.14708,0,0,0,2.29415,0" transform="translate(3.4226 -95.6863)"/><path class="cls-3" d="M30.48156,95.6863h0a.811.811,0,0,1-1.62192,0m-.67255,0a1.48351,1.48351,0,0,0,2.967,0h0" transform="translate(3.4226 -95.6863)"/></g></g><g id="INSERT-17" data-name="INSERT"><g id="CIRCLE-17" data-name="CIRCLE"><path class="cls-2" d="M24.94177,95.68642a1.14708,1.14708,0,0,0,2.29415,0" transform="translate(3.4226 -95.6863)"/><path class="cls-3" d="M26.89965,95.6863h0a.811.811,0,0,1-1.62193,0m-.67255,0a1.48351,1.48351,0,0,0,2.967,0h0" transform="translate(3.4226 -95.6863)"/></g></g><g id="INSERT-18" data-name="INSERT"><g id="CIRCLE-18" data-name="CIRCLE"><path class="cls-2" d="M91.02527,171.37122a1.14708,1.14708,0,0,0-2.29415,0" transform="translate(3.4226 -95.6863)"/><path class="cls-3" d="M89.0674,171.37134h0a.811.811,0,0,1,1.62193,0m.67254,0a1.48351,1.48351,0,0,0-2.967,0h0" transform="translate(3.4226 -95.6863)"/></g></g><g id="INSERT-19" data-name="INSERT"><g id="CIRCLE-19" data-name="CIRCLE"><path class="cls-2" d="M87.44352,171.37122a1.14708,1.14708,0,0,0-2.29415,0" transform="translate(3.4226 -95.6863)"/><path class="cls-3" d="M85.48564,171.37134h0a.811.811,0,0,1,1.62193,0m.67255,0a1.48351,1.48351,0,0,0-2.967,0h0" transform="translate(3.4226 -95.6863)"/></g></g><g id="INSERT-20" data-name="INSERT"><g id="CIRCLE-20" data-name="CIRCLE"><path class="cls-2" d="M83.86176,171.37122a1.14708,1.14708,0,0,0-2.29415,0" transform="translate(3.4226 -95.6863)"/><path class="cls-3" d="M81.90389,171.37134h0a.811.811,0,0,1,1.62193,0m.67255,0a1.48352,1.48352,0,0,0-2.967,0h0" transform="translate(3.4226 -95.6863)"/></g></g><g id="INSERT-21" data-name="INSERT"><g id="CIRCLE-21" data-name="CIRCLE"><path class="cls-2" d="M80.28,171.37122a1.14708,1.14708,0,0,0-2.29415,0" transform="translate(3.4226 -95.6863)"/><path class="cls-3" d="M78.32213,171.37134h0a.811.811,0,0,1,1.62193,0m.67255,0a1.48351,1.48351,0,0,0-2.967,0h0" transform="translate(3.4226 -95.6863)"/></g></g><g id="INSERT-22" data-name="INSERT"><g id="CIRCLE-22" data-name="CIRCLE"><path class="cls-2" d="M76.69825,171.37122a1.14707,1.14707,0,0,0-2.29414,0" transform="translate(3.4226 -95.6863)"/><path class="cls-3" d="M74.74038,171.37134h0a.811.811,0,0,1,1.62193,0m.67255,0a1.48352,1.48352,0,0,0-2.967,0h0" transform="translate(3.4226 -95.6863)"/></g></g><g id="INSERT-23" data-name="INSERT"><g id="CIRCLE-23" data-name="CIRCLE"><path class="cls-2" d="M73.1165,171.37122a1.14708,1.14708,0,0,0-2.29415,0" transform="translate(3.4226 -95.6863)"/><path class="cls-3" d="M71.15863,171.37134h0a.811.811,0,0,1,1.62192,0m.67255,0a1.48351,1.48351,0,0,0-2.967,0h0" transform="translate(3.4226 -95.6863)"/></g></g><g id="INSERT-24" data-name="INSERT"><g id="CIRCLE-24" data-name="CIRCLE"><path class="cls-2" d="M65.79929,171.37122a1.14708,1.14708,0,0,0-2.29415,0" transform="translate(3.4226 -95.6863)"/><path class="cls-3" d="M63.84142,171.37134h0a.811.811,0,0,1,1.62193,0m.67254,0a1.48351,1.48351,0,0,0-2.967,0h0" transform="translate(3.4226 -95.6863)"/></g></g><g id="INSERT-25" data-name="INSERT"><g id="CIRCLE-25" data-name="CIRCLE"><path class="cls-2" d="M62.21754,171.37122a1.14708,1.14708,0,0,0-2.29415,0" transform="translate(3.4226 -95.6863)"/><path class="cls-3" d="M60.25966,171.37134h0a.811.811,0,0,1,1.62193,0m.67255,0a1.48351,1.48351,0,0,0-2.967,0h0" transform="translate(3.4226 -95.6863)"/></g></g><g id="INSERT-26" data-name="INSERT"><g id="CIRCLE-26" data-name="CIRCLE"><path class="cls-2" d="M58.63578,171.37122a1.14708,1.14708,0,0,0-2.29415,0" transform="translate(3.4226 -95.6863)"/><path class="cls-3" d="M56.67791,171.37134h0a.811.811,0,0,1,1.62193,0m.67254,0a1.48351,1.48351,0,0,0-2.967,0h0" transform="translate(3.4226 -95.6863)"/></g></g><g id="INSERT-27" data-name="INSERT"><g id="CIRCLE-27" data-name="CIRCLE"><path class="cls-2" d="M55.054,171.37122a1.14708,1.14708,0,0,0-2.29415,0" transform="translate(3.4226 -95.6863)"/><path class="cls-3" d="M53.09615,171.37134h0a.811.811,0,0,1,1.62193,0m.67255,0a1.48351,1.48351,0,0,0-2.967,0h0" transform="translate(3.4226 -95.6863)"/></g></g><g id="INSERT-28" data-name="INSERT"><g id="CIRCLE-28" data-name="CIRCLE"><path class="cls-2" d="M51.47227,171.37122a1.14707,1.14707,0,0,0-2.29414,0" transform="translate(3.4226 -95.6863)"/><path class="cls-3" d="M49.5144,171.37134h0a.811.811,0,0,1,1.62193,0m.67255,0a1.48352,1.48352,0,0,0-2.967,0h0" transform="translate(3.4226 -95.6863)"/></g></g><g id="INSERT-29" data-name="INSERT"><g id="CIRCLE-29" data-name="CIRCLE"><path class="cls-2" d="M47.89052,171.37122a1.14708,1.14708,0,0,0-2.29415,0" transform="translate(3.4226 -95.6863)"/><path class="cls-3" d="M45.93264,171.37134h0a.811.811,0,0,1,1.62193,0m.67255,0a1.48351,1.48351,0,0,0-2.967,0h0" transform="translate(3.4226 -95.6863)"/></g></g><g id="INSERT-30" data-name="INSERT"><g id="CIRCLE-30" data-name="CIRCLE"><path class="cls-2" d="M44.30876,171.37122a1.14707,1.14707,0,0,0-2.29414,0" transform="translate(3.4226 -95.6863)"/><path class="cls-3" d="M42.35089,171.37134h0a.811.811,0,0,1,1.62193,0m.67255,0a1.48352,1.48352,0,0,0-2.967,0h0" transform="translate(3.4226 -95.6863)"/></g></g><g id="INSERT-31" data-name="INSERT"><g id="CIRCLE-31" data-name="CIRCLE"><path class="cls-2" d="M40.727,171.37122a1.14708,1.14708,0,0,0-2.29415,0" transform="translate(3.4226 -95.6863)"/><path class="cls-3" d="M38.76914,171.37134h0a.811.811,0,0,1,1.62193,0m.67254,0a1.48351,1.48351,0,0,0-2.967,0h0" transform="translate(3.4226 -95.6863)"/></g></g><g id="INSERT-32" data-name="INSERT"><g id="CIRCLE-32" data-name="CIRCLE"><path class="cls-2" d="M40.87754,154.64685a1.14708,1.14708,0,1,0-1.1474,1.1474A1.14839,1.14839,0,0,0,40.87754,154.64685Z" transform="translate(3.4226 -95.6863)"/><path class="cls-3" d="M38.91966,154.647a.811.811,0,1,1,.81076.81109.81056.81056,0,0,1-.81076-.81109Zm-.67254,0a1.48351,1.48351,0,1,0,1.4833-1.483,1.48513,1.48513,0,0,0-1.4833,1.483Z" transform="translate(3.4226 -95.6863)"/></g></g><g id="INSERT-33" data-name="INSERT"><g id="CIRCLE-33" data-name="CIRCLE"><path class="cls-2" d="M44.45929,154.64685a1.14708,1.14708,0,1,0-1.1474,1.1474A1.14839,1.14839,0,0,0,44.45929,154.64685Z" transform="translate(3.4226 -95.6863)"/><path class="cls-3" d="M42.50142,154.647a.811.811,0,1,1,.81076.81109.81056.81056,0,0,1-.81076-.81109Zm-.67255,0a1.48351,1.48351,0,1,0,1.48331-1.483,1.48514,1.48514,0,0,0-1.48331,1.483Z" transform="translate(3.4226 -95.6863)"/></g></g><g id="INSERT-34" data-name="INSERT"><g id="CIRCLE-34" data-name="CIRCLE"><path class="cls-2" d="M48.04105,154.64685a1.14708,1.14708,0,1,0-1.14741,1.1474A1.14839,1.14839,0,0,0,48.04105,154.64685Z" transform="translate(3.4226 -95.6863)"/><path class="cls-3" d="M46.08317,154.647a.811.811,0,1,1,.81076.81109.81056.81056,0,0,1-.81076-.81109Zm-.67255,0a1.48352,1.48352,0,1,0,1.48331-1.483,1.48514,1.48514,0,0,0-1.48331,1.483Z" transform="translate(3.4226 -95.6863)"/></g></g><g id="INSERT-35" data-name="INSERT"><g id="CIRCLE-35" data-name="CIRCLE"><path class="cls-2" d="M51.6228,154.64685a1.14708,1.14708,0,1,0-1.1474,1.1474A1.14839,1.14839,0,0,0,51.6228,154.64685Z" transform="translate(3.4226 -95.6863)"/><path class="cls-3" d="M49.66493,154.647a.811.811,0,1,1,.81076.81109.81056.81056,0,0,1-.81076-.81109Zm-.67255,0a1.48351,1.48351,0,1,0,1.48331-1.483,1.48513,1.48513,0,0,0-1.48331,1.483Z" transform="translate(3.4226 -95.6863)"/></g></g><g id="INSERT-36" data-name="INSERT"><g id="CIRCLE-36" data-name="CIRCLE"><path class="cls-2" d="M55.20456,154.64685a1.14708,1.14708,0,1,0-1.14741,1.1474A1.14839,1.14839,0,0,0,55.20456,154.64685Z" transform="translate(3.4226 -95.6863)"/><path class="cls-3" d="M53.24668,154.647a.811.811,0,1,1,.81076.81109.81056.81056,0,0,1-.81076-.81109Zm-.67255,0a1.48352,1.48352,0,1,0,1.48331-1.483,1.48514,1.48514,0,0,0-1.48331,1.483Z" transform="translate(3.4226 -95.6863)"/></g></g><g id="INSERT-37" data-name="INSERT"><g id="CIRCLE-37" data-name="CIRCLE"><path class="cls-2" d="M58.78631,154.64685a1.14708,1.14708,0,1,0-1.1474,1.1474A1.14839,1.14839,0,0,0,58.78631,154.64685Z" transform="translate(3.4226 -95.6863)"/><path class="cls-3" d="M56.82844,154.647a.811.811,0,1,1,.81075.81109.81056.81056,0,0,1-.81075-.81109Zm-.67255,0a1.48351,1.48351,0,1,0,1.4833-1.483,1.48513,1.48513,0,0,0-1.4833,1.483Z" transform="translate(3.4226 -95.6863)"/></g></g><g id="INSERT-38" data-name="INSERT"><g id="CIRCLE-38" data-name="CIRCLE"><path class="cls-2" d="M62.36806,154.64685a1.14707,1.14707,0,1,0-1.1474,1.1474A1.14839,1.14839,0,0,0,62.36806,154.64685Z" transform="translate(3.4226 -95.6863)"/><path class="cls-3" d="M60.41019,154.647a.811.811,0,1,1,.81076.81109.81056.81056,0,0,1-.81076-.81109Zm-.67255,0a1.48352,1.48352,0,1,0,1.48331-1.483,1.48514,1.48514,0,0,0-1.48331,1.483Z" transform="translate(3.4226 -95.6863)"/></g></g><g id="INSERT-39" data-name="INSERT"><g id="CIRCLE-39" data-name="CIRCLE"><path class="cls-2" d="M65.94982,154.64685a1.14708,1.14708,0,1,0-1.1474,1.1474A1.14839,1.14839,0,0,0,65.94982,154.64685Z" transform="translate(3.4226 -95.6863)"/><path class="cls-3" d="M63.99194,154.647a.811.811,0,1,1,.81076.81109.81057.81057,0,0,1-.81076-.81109Zm-.67254,0a1.48351,1.48351,0,1,0,1.4833-1.483,1.48513,1.48513,0,0,0-1.4833,1.483Z" transform="translate(3.4226 -95.6863)"/></g></g><g id="INSERT-40" data-name="INSERT"><g id="CIRCLE-40" data-name="CIRCLE"><path class="cls-2" d="M73.26686,154.64685a1.14708,1.14708,0,1,0-1.1474,1.1474A1.14839,1.14839,0,0,0,73.26686,154.64685Z" transform="translate(3.4226 -95.6863)"/><path class="cls-3" d="M71.309,154.647a.811.811,0,1,1,.81076.81109.81056.81056,0,0,1-.81076-.81109Zm-.67255,0a1.48352,1.48352,0,1,0,1.48331-1.483,1.48514,1.48514,0,0,0-1.48331,1.483Z" transform="translate(3.4226 -95.6863)"/></g></g><g id="INSERT-41" data-name="INSERT"><g id="CIRCLE-41" data-name="CIRCLE"><path class="cls-2" d="M76.84862,154.64685a1.14708,1.14708,0,1,0-1.1474,1.1474A1.14839,1.14839,0,0,0,76.84862,154.64685Z" transform="translate(3.4226 -95.6863)"/><path class="cls-3" d="M74.89074,154.647a.811.811,0,1,1,.81076.81109.81056.81056,0,0,1-.81076-.81109Zm-.67254,0a1.48351,1.48351,0,1,0,1.4833-1.483,1.48513,1.48513,0,0,0-1.4833,1.483Z" transform="translate(3.4226 -95.6863)"/></g></g><g id="INSERT-42" data-name="INSERT"><g id="CIRCLE-42" data-name="CIRCLE"><path class="cls-2" d="M80.43037,154.64685a1.14708,1.14708,0,1,0-1.1474,1.1474A1.14839,1.14839,0,0,0,80.43037,154.64685Z" transform="translate(3.4226 -95.6863)"/><path class="cls-3" d="M78.4725,154.647a.811.811,0,1,1,.81076.81109.81056.81056,0,0,1-.81076-.81109Zm-.67255,0a1.48351,1.48351,0,1,0,1.48331-1.483A1.48513,1.48513,0,0,0,77.8,154.647Z" transform="translate(3.4226 -95.6863)"/></g></g><g id="INSERT-43" data-name="INSERT"><g id="CIRCLE-43" data-name="CIRCLE"><path class="cls-2" d="M84.01213,154.64685a1.14708,1.14708,0,1,0-1.14741,1.1474A1.14839,1.14839,0,0,0,84.01213,154.64685Z" transform="translate(3.4226 -95.6863)"/><path class="cls-3" d="M82.05425,154.647a.811.811,0,1,1,.81076.81109.81056.81056,0,0,1-.81076-.81109Zm-.67255,0a1.48352,1.48352,0,1,0,1.48331-1.483,1.48514,1.48514,0,0,0-1.48331,1.483Z" transform="translate(3.4226 -95.6863)"/></g></g><g id="INSERT-44" data-name="INSERT"><g id="CIRCLE-44" data-name="CIRCLE"><path class="cls-2" d="M87.59388,154.64685a1.14708,1.14708,0,1,0-1.1474,1.1474A1.14839,1.14839,0,0,0,87.59388,154.64685Z" transform="translate(3.4226 -95.6863)"/><path class="cls-3" d="M85.636,154.647a.811.811,0,1,1,.81076.81109.81056.81056,0,0,1-.81076-.81109Zm-.67255,0a1.48351,1.48351,0,1,0,1.48331-1.483,1.48513,1.48513,0,0,0-1.48331,1.483Z" transform="translate(3.4226 -95.6863)"/></g></g><g id="INSERT-45" data-name="INSERT"><g id="CIRCLE-45" data-name="CIRCLE"><path class="cls-2" d="M91.17564,154.64685a1.14708,1.14708,0,1,0-1.14741,1.1474A1.14839,1.14839,0,0,0,91.17564,154.64685Z" transform="translate(3.4226 -95.6863)"/><path class="cls-3" d="M89.21776,154.647a.811.811,0,1,1,.81076.81109.81056.81056,0,0,1-.81076-.81109Zm-.67255,0a1.48352,1.48352,0,1,0,1.48331-1.483,1.48514,1.48514,0,0,0-1.48331,1.483Z" transform="translate(3.4226 -95.6863)"/></g></g><g id="INSERT-46" data-name="INSERT"><g id="CIRCLE-46" data-name="CIRCLE"><path class="cls-2" d="M27.20938,112.0714A1.14707,1.14707,0,1,1,26.062,110.924,1.14838,1.14838,0,0,1,27.20938,112.0714Z" transform="translate(3.4226 -95.6863)"/><path class="cls-3" d="M25.25151,112.07127a.811.811,0,1,1,.81076.8105.81108.81108,0,0,1-.81076-.8105Zm-.67255,0a1.48352,1.48352,0,1,0,1.48331-1.48363,1.48485,1.48485,0,0,0-1.48331,1.48363Z" transform="translate(3.4226 -95.6863)"/></g></g><g id="INSERT-47" data-name="INSERT"><g id="CIRCLE-47" data-name="CIRCLE"><path class="cls-2" d="M30.79114,112.0714a1.14708,1.14708,0,1,1-1.1474-1.14741A1.14839,1.14839,0,0,1,30.79114,112.0714Z" transform="translate(3.4226 -95.6863)"/><path class="cls-3" d="M28.83326,112.07127a.811.811,0,1,1,.81076.8105.81109.81109,0,0,1-.81076-.8105Zm-.67254,0a1.48351,1.48351,0,1,0,1.4833-1.48363,1.48484,1.48484,0,0,0-1.4833,1.48363Z" transform="translate(3.4226 -95.6863)"/></g></g><g id="INSERT-48" data-name="INSERT"><g id="CIRCLE-48" data-name="CIRCLE"><path class="cls-2" d="M34.37289,112.0714a1.14707,1.14707,0,1,1-1.1474-1.14741A1.14839,1.14839,0,0,1,34.37289,112.0714Z" transform="translate(3.4226 -95.6863)"/><path class="cls-3" d="M32.415,112.07127a.811.811,0,1,1,.81076.8105.81108.81108,0,0,1-.81076-.8105Zm-.67255,0a1.48352,1.48352,0,1,0,1.48331-1.48363,1.48485,1.48485,0,0,0-1.48331,1.48363Z" transform="translate(3.4226 -95.6863)"/></g></g><g id="INSERT-49" data-name="INSERT"><g id="CIRCLE-49" data-name="CIRCLE"><path class="cls-2" d="M37.95465,112.0714a1.14708,1.14708,0,1,1-1.1474-1.14741A1.14839,1.14839,0,0,1,37.95465,112.0714Z" transform="translate(3.4226 -95.6863)"/><path class="cls-3" d="M35.99677,112.07127a.811.811,0,1,1,.81076.8105.81108.81108,0,0,1-.81076-.8105Zm-.67254,0a1.48351,1.48351,0,1,0,1.4833-1.48363,1.48484,1.48484,0,0,0-1.4833,1.48363Z" transform="translate(3.4226 -95.6863)"/></g></g><g id="INSERT-50" data-name="INSERT"><g id="CIRCLE-50" data-name="CIRCLE"><path class="cls-2" d="M41.5364,112.0714A1.14708,1.14708,0,1,1,40.389,110.924,1.14839,1.14839,0,0,1,41.5364,112.0714Z" transform="translate(3.4226 -95.6863)"/><path class="cls-3" d="M39.57853,112.07127a.811.811,0,1,1,.81076.8105.81108.81108,0,0,1-.81076-.8105Zm-.67255,0a1.48351,1.48351,0,1,0,1.48331-1.48363,1.48485,1.48485,0,0,0-1.48331,1.48363Z" transform="translate(3.4226 -95.6863)"/></g></g><g id="INSERT-51" data-name="INSERT"><g id="CIRCLE-51" data-name="CIRCLE"><path class="cls-2" d="M45.11816,112.0714a1.14708,1.14708,0,1,1-1.14741-1.14741A1.14839,1.14839,0,0,1,45.11816,112.0714Z" transform="translate(3.4226 -95.6863)"/><path class="cls-3" d="M43.16028,112.07127a.811.811,0,1,1,.81076.8105.81108.81108,0,0,1-.81076-.8105Zm-.67254,0a1.48351,1.48351,0,1,0,1.4833-1.48363,1.48484,1.48484,0,0,0-1.4833,1.48363Z" transform="translate(3.4226 -95.6863)"/></g></g><g id="INSERT-52" data-name="INSERT"><g id="CIRCLE-52" data-name="CIRCLE"><path class="cls-2" d="M48.69991,112.0714a1.14708,1.14708,0,1,1-1.1474-1.14741A1.14839,1.14839,0,0,1,48.69991,112.0714Z" transform="translate(3.4226 -95.6863)"/><path class="cls-3" d="M46.742,112.07127a.811.811,0,1,1,.81076.8105.81108.81108,0,0,1-.81076-.8105Zm-.67255,0a1.48351,1.48351,0,1,0,1.48331-1.48363,1.48484,1.48484,0,0,0-1.48331,1.48363Z" transform="translate(3.4226 -95.6863)"/></g></g><g id="INSERT-53" data-name="INSERT"><g id="CIRCLE-53" data-name="CIRCLE"><path class="cls-2" d="M52.28167,112.0714a1.14708,1.14708,0,1,1-1.14741-1.14741A1.14839,1.14839,0,0,1,52.28167,112.0714Z" transform="translate(3.4226 -95.6863)"/><path class="cls-3" d="M50.32379,112.07127a.811.811,0,1,1,.81076.8105.81108.81108,0,0,1-.81076-.8105Zm-.67255,0a1.48352,1.48352,0,1,0,1.48331-1.48363,1.48485,1.48485,0,0,0-1.48331,1.48363Z" transform="translate(3.4226 -95.6863)"/></g></g><g id="INSERT-54" data-name="INSERT"><g id="CIRCLE-54" data-name="CIRCLE"><path class="cls-2" d="M55.86342,112.0714A1.14708,1.14708,0,1,1,54.716,110.924,1.14839,1.14839,0,0,1,55.86342,112.0714Z" transform="translate(3.4226 -95.6863)"/><path class="cls-3" d="M53.90555,112.07127a.811.811,0,1,1,.81076.8105.81108.81108,0,0,1-.81076-.8105Zm-.67255,0a1.48351,1.48351,0,1,0,1.48331-1.48363,1.48484,1.48484,0,0,0-1.48331,1.48363Z" transform="translate(3.4226 -95.6863)"/></g></g><g id="INSERT-55" data-name="INSERT"><g id="CIRCLE-55" data-name="CIRCLE"><path class="cls-2" d="M59.44517,112.0714a1.14707,1.14707,0,1,1-1.1474-1.14741A1.14838,1.14838,0,0,1,59.44517,112.0714Z" transform="translate(3.4226 -95.6863)"/><path class="cls-3" d="M57.4873,112.07127a.811.811,0,1,1,.81076.8105.81108.81108,0,0,1-.81076-.8105Zm-.67255,0a1.48352,1.48352,0,1,0,1.48331-1.48363,1.48485,1.48485,0,0,0-1.48331,1.48363Z" transform="translate(3.4226 -95.6863)"/></g></g><g id="INSERT-56" data-name="INSERT"><g id="CIRCLE-56" data-name="CIRCLE"><path class="cls-2" d="M66.67249,112.0714a1.14707,1.14707,0,1,1-1.1474-1.14741A1.14838,1.14838,0,0,1,66.67249,112.0714Z" transform="translate(3.4226 -95.6863)"/><path class="cls-3" d="M64.71462,112.07127a.811.811,0,1,1,.81076.8105.81108.81108,0,0,1-.81076-.8105Zm-.67255,0a1.48352,1.48352,0,1,0,1.48331-1.48363,1.48485,1.48485,0,0,0-1.48331,1.48363Z" transform="translate(3.4226 -95.6863)"/></g></g><g id="INSERT-57" data-name="INSERT"><g id="CIRCLE-57" data-name="CIRCLE"><path class="cls-2" d="M70.25425,112.0714a1.14708,1.14708,0,1,1-1.1474-1.14741A1.14839,1.14839,0,0,1,70.25425,112.0714Z" transform="translate(3.4226 -95.6863)"/><path class="cls-3" d="M68.29637,112.07127a.811.811,0,1,1,.81076.8105.81109.81109,0,0,1-.81076-.8105Zm-.67254,0a1.48351,1.48351,0,1,0,1.4833-1.48363,1.48484,1.48484,0,0,0-1.4833,1.48363Z" transform="translate(3.4226 -95.6863)"/></g></g><g id="INSERT-58" data-name="INSERT"><g id="CIRCLE-58" data-name="CIRCLE"><path class="cls-2" d="M73.836,112.0714a1.14708,1.14708,0,1,1-1.1474-1.14741A1.14839,1.14839,0,0,1,73.836,112.0714Z" transform="translate(3.4226 -95.6863)"/><path class="cls-3" d="M71.87813,112.07127a.811.811,0,1,1,.81076.8105.81108.81108,0,0,1-.81076-.8105Zm-.67255,0a1.48352,1.48352,0,1,0,1.48331-1.48363,1.48485,1.48485,0,0,0-1.48331,1.48363Z" transform="translate(3.4226 -95.6863)"/></g></g><g id="INSERT-59" data-name="INSERT"><g id="CIRCLE-59" data-name="CIRCLE"><path class="cls-2" d="M77.41776,112.0714a1.14708,1.14708,0,1,1-1.1474-1.14741A1.14839,1.14839,0,0,1,77.41776,112.0714Z" transform="translate(3.4226 -95.6863)"/><path class="cls-3" d="M75.45988,112.07127a.811.811,0,1,1,.81076.8105.81108.81108,0,0,1-.81076-.8105Zm-.67254,0a1.48351,1.48351,0,1,0,1.4833-1.48363,1.48484,1.48484,0,0,0-1.4833,1.48363Z" transform="translate(3.4226 -95.6863)"/></g></g><g id="INSERT-60" data-name="INSERT"><g id="CIRCLE-60" data-name="CIRCLE"><path class="cls-2" d="M80.99951,112.0714a1.14708,1.14708,0,1,1-1.1474-1.14741A1.14839,1.14839,0,0,1,80.99951,112.0714Z" transform="translate(3.4226 -95.6863)"/><path class="cls-3" d="M79.04164,112.07127a.811.811,0,1,1,.81076.8105.81108.81108,0,0,1-.81076-.8105Zm-.67255,0a1.48351,1.48351,0,1,0,1.48331-1.48363,1.48484,1.48484,0,0,0-1.48331,1.48363Z" transform="translate(3.4226 -95.6863)"/></g></g><g id="INSERT-61" data-name="INSERT"><g id="CIRCLE-61" data-name="CIRCLE"><path class="cls-2" d="M84.58127,112.0714a1.14708,1.14708,0,1,1-1.14741-1.14741A1.14839,1.14839,0,0,1,84.58127,112.0714Z" transform="translate(3.4226 -95.6863)"/><path class="cls-3" d="M82.62339,112.07127a.811.811,0,1,1,.81076.8105.81108.81108,0,0,1-.81076-.8105Zm-.67255,0a1.48352,1.48352,0,1,0,1.48331-1.48363,1.48485,1.48485,0,0,0-1.48331,1.48363Z" transform="translate(3.4226 -95.6863)"/></g></g><g id="INSERT-62" data-name="INSERT"><g id="CIRCLE-62" data-name="CIRCLE"><path class="cls-2" d="M88.163,112.0714a1.14708,1.14708,0,1,1-1.1474-1.14741A1.14839,1.14839,0,0,1,88.163,112.0714Z" transform="translate(3.4226 -95.6863)"/><path class="cls-3" d="M86.20515,112.07127a.811.811,0,1,1,.81076.8105.81108.81108,0,0,1-.81076-.8105Zm-.67255,0a1.48351,1.48351,0,1,0,1.48331-1.48363,1.48484,1.48484,0,0,0-1.48331,1.48363Z" transform="translate(3.4226 -95.6863)"/></g></g><g id="INSERT-63" data-name="INSERT"><g id="CIRCLE-63" data-name="CIRCLE"><path class="cls-2" d="M91.74478,112.0714a1.14708,1.14708,0,1,1-1.14741-1.14741A1.14839,1.14839,0,0,1,91.74478,112.0714Z" transform="translate(3.4226 -95.6863)"/><path class="cls-3" d="M89.7869,112.07127a.811.811,0,1,1,.81076.8105.81108.81108,0,0,1-.81076-.8105Zm-.67255,0a1.48352,1.48352,0,1,0,1.48331-1.48363,1.48485,1.48485,0,0,0-1.48331,1.48363Z" transform="translate(3.4226 -95.6863)"/></g></g><rect class="cls-4" x="6.48851" y="2.08036" width="2.36213" height="1.97936"/><rect class="cls-4" x="15.20279" y="2.08036" width="2.30064" height="1.97936"/><rect class="cls-4" x="6.48851" y="10.16768" width="2.36213" height="1.97936"/><rect class="cls-4" x="15.20279" y="10.16768" width="2.30064" height="1.97936"/><rect class="cls-5" x="5.63118" y="3.10859" width="12.81938" height="8.01503"/><polygon class="cls-6" points="14.601 7.116 14.589 7.397 14.539 7.675 14.467 7.952 14.355 8.214 14.228 8.464 14.066 8.696 13.874 8.903 13.667 9.094 13.441 9.262 13.193 9.407 12.935 9.52 12.673 9.598 12.392 9.655 12.111 9.68 11.833 9.671 11.55 9.632 11.271 9.561 11.007 9.464 10.759 9.337 10.516 9.184 10.302 9.001 10.109 8.8 9.934 8.575 9.789 8.335 9.665 8.081 9.57 7.813 9.509 7.542 9.477 7.259 9.477 6.972 9.509 6.692 9.57 6.419 9.665 6.155 9.789 5.899 9.934 5.659 10.109 5.435 10.302 5.235 10.516 5.05 10.759 4.898 11.007 4.769 11.271 4.675 11.55 4.601 11.833 4.558 12.111 4.554 12.392 4.577 12.673 4.634 12.935 4.71 13.193 4.825 13.441 4.97 13.667 5.14 13.874 5.329 14.066 5.536 14.228 5.77 14.355 6.019 14.467 6.284 14.539 6.554 14.589 6.835 14.601 7.116"/><rect class="cls-7" x="75.60181" y="38.70602" width="14.36869" height="14.36869"/><path class="cls-4" d="M74.58082,134.39384H73.21316a.68385.68385,0,0,1,1.36766,0Z" transform="translate(3.4226 -95.6863)"/><path class="cls-4" d="M76.403,134.39384H75.03535a.68384.68384,0,0,1,1.36765,0Z" transform="translate(3.4226 -95.6863)"/><path class="cls-4" d="M78.22519,134.39384H76.85754a.68384.68384,0,0,1,1.36765,0Z" transform="translate(3.4226 -95.6863)"/><path class="cls-4" d="M80.04738,134.39384H78.67972a.68385.68385,0,0,1,1.36766,0Z" transform="translate(3.4226 -95.6863)"/><path class="cls-4" d="M81.86956,134.39384H80.50191a.68384.68384,0,0,1,1.36765,0Z" transform="translate(3.4226 -95.6863)"/><path class="cls-4" d="M83.69175,134.39384H82.3241a.68384.68384,0,0,1,1.36765,0Z" transform="translate(3.4226 -95.6863)"/><path class="cls-4" d="M85.51394,134.39384H84.14628a.68385.68385,0,0,1,1.36766,0Z" transform="translate(3.4226 -95.6863)"/><path class="cls-4" d="M86.54637,136.79393v-1.36765a.68384.68384,0,0,1,0,1.36765Z" transform="translate(3.4226 -95.6863)"/><path class="cls-4" d="M86.54637,138.61612v-1.36766a.68385.68385,0,0,1,0,1.36766Z" transform="translate(3.4226 -95.6863)"/><path class="cls-4" d="M86.54637,140.4383v-1.36765a.68384.68384,0,0,1,0,1.36765Z" transform="translate(3.4226 -95.6863)"/><path class="cls-4" d="M86.54637,142.26049v-1.36765a.68384.68384,0,0,1,0,1.36765Z" transform="translate(3.4226 -95.6863)"/><path class="cls-4" d="M86.54637,144.08268V142.715a.68385.68385,0,0,1,0,1.36766Z" transform="translate(3.4226 -95.6863)"/><path class="cls-4" d="M86.54637,145.90486v-1.36765a.68384.68384,0,0,1,0,1.36765Z" transform="translate(3.4226 -95.6863)"/><path class="cls-4" d="M86.54637,147.72705V146.3594a.68384.68384,0,0,1,0,1.36765Z" transform="translate(3.4226 -95.6863)"/><path class="cls-4" d="M72.18072,146.3594v1.36765a.68384.68384,0,0,1,0-1.36765Z" transform="translate(3.4226 -95.6863)"/><path class="cls-4" d="M72.18072,144.53721v1.36765a.68384.68384,0,0,1,0-1.36765Z" transform="translate(3.4226 -95.6863)"/><path class="cls-4" d="M72.18072,142.715v1.36766a.68385.68385,0,0,1,0-1.36766Z" transform="translate(3.4226 -95.6863)"/><path class="cls-4" d="M72.18072,140.89284v1.36765a.68384.68384,0,0,1,0-1.36765Z" transform="translate(3.4226 -95.6863)"/><path class="cls-4" d="M72.18072,139.07065v1.36765a.68384.68384,0,0,1,0-1.36765Z" transform="translate(3.4226 -95.6863)"/><path class="cls-4" d="M72.18072,137.24846v1.36766a.68385.68385,0,0,1,0-1.36766Z" transform="translate(3.4226 -95.6863)"/><path class="cls-4" d="M72.18072,135.42628v1.36765a.68384.68384,0,0,1,0-1.36765Z" transform="translate(3.4226 -95.6863)"/><path class="cls-4" d="M84.14628,148.75949h1.36766a.68385.68385,0,0,1-1.36766,0Z" transform="translate(3.4226 -95.6863)"/><path class="cls-4" d="M82.3241,148.75949h1.36765a.68384.68384,0,0,1-1.36765,0Z" transform="translate(3.4226 -95.6863)"/><path class="cls-4" d="M80.50191,148.75949h1.36765a.68384.68384,0,0,1-1.36765,0Z" transform="translate(3.4226 -95.6863)"/><path class="cls-4" d="M78.67972,148.75949h1.36766a.68385.68385,0,0,1-1.36766,0Z" transform="translate(3.4226 -95.6863)"/><path class="cls-4" d="M76.85754,148.75949h1.36765a.68384.68384,0,0,1-1.36765,0Z" transform="translate(3.4226 -95.6863)"/><path class="cls-4" d="M75.03535,148.75949H76.403a.68384.68384,0,0,1-1.36765,0Z" transform="translate(3.4226 -95.6863)"/><path class="cls-4" d="M73.21316,148.75949h1.36766a.68385.68385,0,0,1-1.36766,0Z" transform="translate(3.4226 -95.6863)"/><rect class="cls-7" x="45.00614" y="23.34309" width="14.36869" height="14.36869"/><path class="cls-4" d="M43.98515,119.03091H42.61749a.68385.68385,0,0,1,1.36766,0Z" transform="translate(3.4226 -95.6863)"/><path class="cls-4" d="M45.80733,119.03091H44.43968a.68384.68384,0,0,1,1.36765,0Z" transform="translate(3.4226 -95.6863)"/><path class="cls-4" d="M47.62952,119.03091H46.26186a.68385.68385,0,0,1,1.36766,0Z" transform="translate(3.4226 -95.6863)"/><path class="cls-4" d="M49.45171,119.03091H48.08405a.68385.68385,0,0,1,1.36766,0Z" transform="translate(3.4226 -95.6863)"/><path class="cls-4" d="M51.27389,119.03091H49.90624a.68384.68384,0,0,1,1.36765,0Z" transform="translate(3.4226 -95.6863)"/><path class="cls-4" d="M53.09608,119.03091H51.72842a.68385.68385,0,0,1,1.36766,0Z" transform="translate(3.4226 -95.6863)"/><path class="cls-4" d="M54.91827,119.03091H53.55061a.68385.68385,0,0,1,1.36766,0Z" transform="translate(3.4226 -95.6863)"/><path class="cls-4" d="M55.9507,121.431v-1.36765a.68384.68384,0,0,1,0,1.36765Z" transform="translate(3.4226 -95.6863)"/><path class="cls-4" d="M55.9507,123.25319v-1.36766a.68385.68385,0,0,1,0,1.36766Z" transform="translate(3.4226 -95.6863)"/><path class="cls-4" d="M55.9507,125.07537v-1.36765a.68384.68384,0,0,1,0,1.36765Z" transform="translate(3.4226 -95.6863)"/><path class="cls-4" d="M55.9507,126.89756v-1.36765a.68384.68384,0,0,1,0,1.36765Z" transform="translate(3.4226 -95.6863)"/><path class="cls-4" d="M55.9507,128.71975v-1.36766a.68385.68385,0,0,1,0,1.36766Z" transform="translate(3.4226 -95.6863)"/><path class="cls-4" d="M55.9507,130.54193v-1.36765a.68384.68384,0,0,1,0,1.36765Z" transform="translate(3.4226 -95.6863)"/><path class="cls-4" d="M55.9507,132.36412v-1.36765a.68384.68384,0,0,1,0,1.36765Z" transform="translate(3.4226 -95.6863)"/><path class="cls-4" d="M41.58505,130.99647v1.36765a.68384.68384,0,0,1,0-1.36765Z" transform="translate(3.4226 -95.6863)"/><path class="cls-4" d="M41.58505,129.17428v1.36765a.68384.68384,0,0,1,0-1.36765Z" transform="translate(3.4226 -95.6863)"/><path class="cls-4" d="M41.58505,127.35209v1.36766a.68385.68385,0,0,1,0-1.36766Z" transform="translate(3.4226 -95.6863)"/><path class="cls-4" d="M41.58505,125.52991v1.36765a.68384.68384,0,0,1,0-1.36765Z" transform="translate(3.4226 -95.6863)"/><path class="cls-4" d="M41.58505,123.70772v1.36765a.68384.68384,0,0,1,0-1.36765Z" transform="translate(3.4226 -95.6863)"/><path class="cls-4" d="M41.58505,121.88553v1.36766a.68385.68385,0,0,1,0-1.36766Z" transform="translate(3.4226 -95.6863)"/><path class="cls-4" d="M41.58505,120.06335V121.431a.68384.68384,0,0,1,0-1.36765Z" transform="translate(3.4226 -95.6863)"/><path class="cls-4" d="M53.55061,133.39656h1.36766a.68385.68385,0,0,1-1.36766,0Z" transform="translate(3.4226 -95.6863)"/><path class="cls-4" d="M51.72842,133.39656h1.36766a.68385.68385,0,0,1-1.36766,0Z" transform="translate(3.4226 -95.6863)"/><path class="cls-4" d="M49.90624,133.39656h1.36765a.68384.68384,0,0,1-1.36765,0Z" transform="translate(3.4226 -95.6863)"/><path class="cls-4" d="M48.08405,133.39656h1.36766a.68385.68385,0,0,1-1.36766,0Z" transform="translate(3.4226 -95.6863)"/><path class="cls-4" d="M46.26186,133.39656h1.36766a.68385.68385,0,0,1-1.36766,0Z" transform="translate(3.4226 -95.6863)"/><path class="cls-4" d="M44.43968,133.39656h1.36765a.68384.68384,0,0,1-1.36765,0Z" transform="translate(3.4226 -95.6863)"/><path class="cls-4" d="M42.61749,133.39656h1.36766a.68385.68385,0,0,1-1.36766,0Z" transform="translate(3.4226 -95.6863)"/><g id="traccia-loop"><path class="cls-3" d="M63.74352,145.62281a3.86271,3.86271,0,0,1-.53473-.03671,4.419,4.419,0,0,1-2.91971-1.93479l-.02321-.03268A4.4937,4.4937,0,0,1,57.323,145.5861a3.89006,3.89006,0,0,1-.53592.03671,3.36438,3.36438,0,1,1,.00166-6.72463,3.729,3.729,0,0,1,.534.03789,4.37926,4.37926,0,0,1,2.8399,1.8249q.05221.06891.1023.14162a4.48219,4.48219,0,0,1,2.94339-1.96629,3.67871,3.67871,0,0,1,.53379-.03789,3.36426,3.36426,0,1,1,.00142,6.7244Zm-2.70492-3.36327.22024.39809a1.96827,1.96827,0,0,0,.12646.2013,3.1776,3.1776,0,0,0,2.01294,1.388,2.50706,2.50706,0,0,0,.34528.02321,2.01287,2.01287,0,1,0-.00142-4.019,2.33412,2.33412,0,0,0-.34055.02392,3.2334,3.2334,0,0,0-2.08729,1.4872Zm-4.2499-2.00867a2.013,2.013,0,1,0-.00166,4.01924,2.52866,2.52866,0,0,0,.34623-.02321,3.24544,3.24544,0,0,0,2.08445-1.48933l.27495-.49826-.1833-.33155a2.88282,2.88282,0,0,0-.22474-.34977,3.02985,3.02985,0,0,0-1.95444-1.3032A2.37873,2.37873,0,0,0,56.7887,140.25087Z" transform="translate(3.4226 -95.6863)"/></g><rect class="cls-3" x="59.00079" y="46.18699" width="2.45977" height="0.79286"/><polygon class="cls-3" points="67.471 46.98 68.302 46.98 68.302 46.187 67.471 46.187 67.471 45.353 66.676 45.353 66.676 46.187 65.843 46.187 65.843 46.98 66.676 46.98 66.676 47.814 67.471 47.814 67.471 46.98"/><path class="cls-3" d="M19.113,109.60193a2.48337,2.48337,0,0,0-.9095.17156l-.00008-2.80563a2.48363,2.48363,0,0,0,.90951.17156,2.33573,2.33573,0,0,0,.918-.18015l.00009,2.82281A2.33565,2.33565,0,0,0,19.113,109.60193Z" transform="translate(3.4226 -95.6863)"/><path class="cls-8" d="M19.11292,107.13942a2.48363,2.48363,0,0,1-.90951-.17156l0-.46336h1.8275l0,.45477A2.33573,2.33573,0,0,1,19.11292,107.13942Z" transform="translate(3.4226 -95.6863)"/><path class="cls-8" d="M20.031,110.22825h-1.8275l0-.45476a2.48337,2.48337,0,0,1,.9095-.17156,2.33565,2.33565,0,0,1,.918.18015Z" transform="translate(3.4226 -95.6863)"/><path class="cls-3" d="M12.44441,149.714a5.49621,5.49621,0,0,0-1.67883.25887l-.00016-4.23358a5.49609,5.49609,0,0,0,1.67885.25888,5.15953,5.15953,0,0,0,1.69449-.27183l.00016,4.25949A5.1597,5.1597,0,0,0,12.44441,149.714Z" transform="translate(3.4226 -95.6863)"/><path class="cls-8" d="M12.44427,145.99813a5.49609,5.49609,0,0,1-1.67885-.25888l0-.69918h3.37334l0,.68623A5.15953,5.15953,0,0,1,12.44427,145.99813Z" transform="translate(3.4226 -95.6863)"/><path class="cls-8" d="M14.13894,150.65906H10.7656l0-.68623a5.49621,5.49621,0,0,1,1.67883-.25887,5.1597,5.1597,0,0,1,1.69451.27183Z" transform="translate(3.4226 -95.6863)"/><path class="cls-3" d="M21.78727,160.83568a5.49732,5.49732,0,0,0,.259,1.67894l-4.23355.00019a5.49651,5.49651,0,0,0,.25875-1.679,5.16009,5.16009,0,0,0-.272-1.6946l4.25946-.00019A5.16031,5.16031,0,0,0,21.78727,160.83568Z" transform="translate(3.4226 -95.6863)"/><path class="cls-8" d="M18.07147,160.83584a5.49651,5.49651,0,0,1-.25875,1.679l-.69917,0-.00025-3.37357.68622,0A5.16009,5.16009,0,0,1,18.07147,160.83584Z" transform="translate(3.4226 -95.6863)"/><path class="cls-8" d="M22.73224,159.141l.00025,3.37357-.68622,0a5.49732,5.49732,0,0,1-.259-1.67894,5.16031,5.16031,0,0,1,.27171-1.69463Z" transform="translate(3.4226 -95.6863)"/><path class="cls-3" d="M3.88056,149.714a5.49621,5.49621,0,0,0-1.67883.25887l-.00016-4.23358a5.49609,5.49609,0,0,0,1.67885.25888,5.15953,5.15953,0,0,0,1.69449-.27183l.00016,4.25949A5.1597,5.1597,0,0,0,3.88056,149.714Z" transform="translate(3.4226 -95.6863)"/><path class="cls-8" d="M3.88042,145.99813a5.49609,5.49609,0,0,1-1.67885-.25888l0-.69918H5.57488l0,.68623A5.15953,5.15953,0,0,1,3.88042,145.99813Z" transform="translate(3.4226 -95.6863)"/><path class="cls-8" d="M5.57509,150.65906H2.20175l0-.68623a5.49621,5.49621,0,0,1,1.67883-.25887,5.1597,5.1597,0,0,1,1.69451.27183Z" transform="translate(3.4226 -95.6863)"/><path class="cls-3" d="M35.29081,150.672a5.49621,5.49621,0,0,0-1.67883.25887l-.00016-4.23358a5.49609,5.49609,0,0,0,1.67885.25888,5.15927,5.15927,0,0,0,1.69449-.27184l.00016,4.2595A5.1597,5.1597,0,0,0,35.29081,150.672Z" transform="translate(3.4226 -95.6863)"/><path class="cls-8" d="M35.29067,146.95619a5.49609,5.49609,0,0,1-1.67885-.25888l0-.69918h3.37334l0,.68622A5.15927,5.15927,0,0,1,35.29067,146.95619Z" transform="translate(3.4226 -95.6863)"/><path class="cls-8" d="M36.98534,151.61712l-3.37334,0,0-.68622a5.49621,5.49621,0,0,1,1.67883-.25887,5.1597,5.1597,0,0,1,1.69451.27183Z" transform="translate(3.4226 -95.6863)"/><path class="cls-3" d="M35.48424,118.48405a2.05942,2.05942,0,0,0-.732.13349l-.00007-2.18319a2.05948,2.05948,0,0,0,.73205.1335,1.93625,1.93625,0,0,0,.73887-.14018l.00007,2.19656A1.9363,1.9363,0,0,0,35.48424,118.48405Z" transform="translate(3.4226 -95.6863)"/><path class="cls-8" d="M35.48418,116.56785a2.05948,2.05948,0,0,1-.73205-.1335l0-.36055H36.223l0,.35387A1.93625,1.93625,0,0,1,35.48418,116.56785Z" transform="translate(3.4226 -95.6863)"/><path class="cls-8" d="M36.22313,118.97142H34.75221l0-.35388a2.05942,2.05942,0,0,1,.732-.13349,1.9363,1.9363,0,0,1,.73888.14018Z" transform="translate(3.4226 -95.6863)"/><path class="cls-3" d="M41.65366,137.03741a2.05943,2.05943,0,0,0-.1335-.732l2.18319-.00007a2.05948,2.05948,0,0,0-.1335.73205,1.93625,1.93625,0,0,0,.14018.73887l-2.19655.00007A1.9363,1.9363,0,0,0,41.65366,137.03741Z" transform="translate(3.4226 -95.6863)"/><path class="cls-8" d="M43.56985,137.03735a2.05948,2.05948,0,0,1,.1335-.73205l.36056,0v1.47092l-.35388,0A1.93625,1.93625,0,0,1,43.56985,137.03735Z" transform="translate(3.4226 -95.6863)"/><path class="cls-8" d="M41.16629,137.7763v-1.47092l.35387,0a2.05943,2.05943,0,0,1,.1335.732,1.9363,1.9363,0,0,1-.14018.73888Z" transform="translate(3.4226 -95.6863)"/><path class="cls-4" d="M46.85169,137.03741a2.05943,2.05943,0,0,0-.1335-.732l2.18319-.00007a2.05948,2.05948,0,0,0-.1335.73205,1.93625,1.93625,0,0,0,.14018.73887l-2.19656.00007A1.93612,1.93612,0,0,0,46.85169,137.03741Z" transform="translate(3.4226 -95.6863)"/><path class="cls-8" d="M48.76788,137.03735a2.05948,2.05948,0,0,1,.1335-.73205l.36055,0v1.47092l-.35387,0A1.93625,1.93625,0,0,1,48.76788,137.03735Z" transform="translate(3.4226 -95.6863)"/><path class="cls-8" d="M46.36431,137.7763v-1.47092l.35388,0a2.05943,2.05943,0,0,1,.1335.732,1.93612,1.93612,0,0,1-.14019.73888Z" transform="translate(3.4226 -95.6863)"/><path class="cls-3" d="M52.04971,137.03741a2.05943,2.05943,0,0,0-.1335-.732l2.18319-.00007a2.0597,2.0597,0,0,0-.1335.73205,1.93607,1.93607,0,0,0,.14019.73887l-2.19656.00007A1.9363,1.9363,0,0,0,52.04971,137.03741Z" transform="translate(3.4226 -95.6863)"/><path class="cls-8" d="M53.9659,137.03735a2.0597,2.0597,0,0,1,.1335-.73205l.36056,0v1.47092l-.35387,0A1.93607,1.93607,0,0,1,53.9659,137.03735Z" transform="translate(3.4226 -95.6863)"/><path class="cls-8" d="M51.56234,137.7763v-1.47092l.35387,0a2.05943,2.05943,0,0,1,.1335.732,1.9363,1.9363,0,0,1-.14018.73888Z" transform="translate(3.4226 -95.6863)"/><path class="cls-3" d="M66.26327,147.83824a2.05964,2.05964,0,0,0-.13349-.732l2.18318-.00007a2.0597,2.0597,0,0,0-.13349.732,1.9362,1.9362,0,0,0,.14018.73886l-2.19656.00007A1.93625,1.93625,0,0,0,66.26327,147.83824Z" transform="translate(3.4226 -95.6863)"/><path class="cls-8" d="M68.17947,147.83818a2.0597,2.0597,0,0,1,.13349-.732l.36056,0V148.577l-.35387,0A1.9362,1.9362,0,0,1,68.17947,147.83818Z" transform="translate(3.4226 -95.6863)"/><path class="cls-8" d="M65.7759,148.57713v-1.47092l.35388,0a2.05964,2.05964,0,0,1,.13349.732,1.93625,1.93625,0,0,1-.14018.73887Z" transform="translate(3.4226 -95.6863)"/><path class="cls-3" d="M30.17129,168.26019a2.05933,2.05933,0,0,0-.1335-.732l2.18319-.00007a2.05943,2.05943,0,0,0-.1335.732,1.93621,1.93621,0,0,0,.14018.73887l-2.19656.00007A1.93612,1.93612,0,0,0,30.17129,168.26019Z" transform="translate(3.4226 -95.6863)"/><path class="cls-8" d="M32.08748,168.26013a2.05943,2.05943,0,0,1,.1335-.732l.36055,0V168.999l-.35387,0A1.93621,1.93621,0,0,1,32.08748,168.26013Z" transform="translate(3.4226 -95.6863)"/><path class="cls-8" d="M29.68391,168.99908v-1.47091l.35388,0a2.05933,2.05933,0,0,1,.1335.732,1.93612,1.93612,0,0,1-.14019.73888Z" transform="translate(3.4226 -95.6863)"/><path class="cls-3" d="M71.989,130.83128a2.05943,2.05943,0,0,0-.1335-.732l2.18319-.00007a2.05952,2.05952,0,0,0-.1335.73205,1.93625,1.93625,0,0,0,.14018.73887l-2.19655.00007A1.9363,1.9363,0,0,0,71.989,130.83128Z" transform="translate(3.4226 -95.6863)"/><path class="cls-8" d="M73.90522,130.83122a2.05952,2.05952,0,0,1,.1335-.73205l.36055,0v1.47092l-.35387,0A1.93625,1.93625,0,0,1,73.90522,130.83122Z" transform="translate(3.4226 -95.6863)"/><path class="cls-8" d="M71.50165,131.57017l0-1.47091.35387,0a2.05943,2.05943,0,0,1,.1335.732,1.9363,1.9363,0,0,1-.14018.73888Z" transform="translate(3.4226 -95.6863)"/><path class="cls-4" d="M77.18705,130.83128a2.05964,2.05964,0,0,0-.13349-.732l2.18318-.00007a2.05974,2.05974,0,0,0-.13349.73205,1.93625,1.93625,0,0,0,.14018.73887l-2.19656.00007A1.9363,1.9363,0,0,0,77.18705,130.83128Z" transform="translate(3.4226 -95.6863)"/><path class="cls-8" d="M79.10325,130.83122a2.05974,2.05974,0,0,1,.13349-.73205l.36056,0v1.47092l-.35387,0A1.93625,1.93625,0,0,1,79.10325,130.83122Z" transform="translate(3.4226 -95.6863)"/><path class="cls-8" d="M76.69968,131.57017v-1.47091l.35388,0a2.05964,2.05964,0,0,1,.13349.732,1.9363,1.9363,0,0,1-.14018.73888Z" transform="translate(3.4226 -95.6863)"/><path class="cls-4" d="M84.1429,123.25908a2.05964,2.05964,0,0,0-.732.13349l-.00007-2.18318a2.0597,2.0597,0,0,0,.73205.13349,1.93625,1.93625,0,0,0,.73887-.14018l.00007,2.19656A1.9363,1.9363,0,0,0,84.1429,123.25908Z" transform="translate(3.4226 -95.6863)"/><path class="cls-8" d="M84.14284,121.34288a2.0597,2.0597,0,0,1-.73205-.13349l0-.36056h1.47091l0,.35387A1.93625,1.93625,0,0,1,84.14284,121.34288Z" transform="translate(3.4226 -95.6863)"/><path class="cls-8" d="M84.88179,123.74645H83.41087l0-.35388a2.05964,2.05964,0,0,1,.732-.13349,1.9363,1.9363,0,0,1,.73888.14018Z" transform="translate(3.4226 -95.6863)"/><path class="cls-3" d="M82.38508,130.83128a2.05943,2.05943,0,0,0-.1335-.732l2.18319-.00007a2.05952,2.05952,0,0,0-.1335.73205,1.93625,1.93625,0,0,0,.14018.73887l-2.19655.00007A1.9363,1.9363,0,0,0,82.38508,130.83128Z" transform="translate(3.4226 -95.6863)"/><path class="cls-8" d="M84.30127,130.83122a2.05952,2.05952,0,0,1,.1335-.73205l.36056,0v1.47092l-.35388,0A1.93625,1.93625,0,0,1,84.30127,130.83122Z" transform="translate(3.4226 -95.6863)"/><path class="cls-8" d="M81.89771,131.57017v-1.47091l.35387,0a2.05943,2.05943,0,0,1,.1335.732,1.9363,1.9363,0,0,1-.14018.73888Z" transform="translate(3.4226 -95.6863)"/><path class="cls-3" d="M85.203,128.17541a2.05943,2.05943,0,0,0-.1335-.732l2.18319-.00007a2.05952,2.05952,0,0,0-.1335.73205,1.93625,1.93625,0,0,0,.14018.73887l-2.19655.00007A1.9363,1.9363,0,0,0,85.203,128.17541Z" transform="translate(3.4226 -95.6863)"/><path class="cls-8" d="M87.11918,128.17535a2.05952,2.05952,0,0,1,.1335-.73205l.36056,0v1.47092l-.35388,0A1.93625,1.93625,0,0,1,87.11918,128.17535Z" transform="translate(3.4226 -95.6863)"/><path class="cls-8" d="M84.71562,128.9143v-1.47091l.35387,0a2.05943,2.05943,0,0,1,.1335.732,1.9363,1.9363,0,0,1-.14018.73888Z" transform="translate(3.4226 -95.6863)"/><path class="cls-3" d="M88.82585,130.83124a2.05942,2.05942,0,0,0-.13349-.732l2.18319-.00007a2.05952,2.05952,0,0,0-.1335.732,1.93625,1.93625,0,0,0,.14018.73887l-2.19656.00007A1.93611,1.93611,0,0,0,88.82585,130.83124Z" transform="translate(3.4226 -95.6863)"/><path class="cls-8" d="M90.74205,130.83118a2.05952,2.05952,0,0,1,.1335-.732l.36055,0V131.57l-.35387,0A1.93625,1.93625,0,0,1,90.74205,130.83118Z" transform="translate(3.4226 -95.6863)"/><path class="cls-8" d="M88.33848,131.57013v-1.47092l.35388,0a2.05942,2.05942,0,0,1,.13349.732,1.93611,1.93611,0,0,1-.14018.73888Z" transform="translate(3.4226 -95.6863)"/><path class="cls-3" d="M39.12588,150.06046a2.05939,2.05939,0,0,0-.732.1335l-.00007-2.18319a2.05948,2.05948,0,0,0,.732.1335,1.9362,1.9362,0,0,0,.73886-.14018l.00007,2.19655A1.93629,1.93629,0,0,0,39.12588,150.06046Z" transform="translate(3.4226 -95.6863)"/><path class="cls-8" d="M39.12582,148.14427a2.05948,2.05948,0,0,1-.732-.1335l0-.36056h1.47091l0,.35388A1.9362,1.9362,0,0,1,39.12582,148.14427Z" transform="translate(3.4226 -95.6863)"/><path class="cls-8" d="M39.86476,150.54783H38.39385l0-.35387a2.05939,2.05939,0,0,1,.732-.1335,1.93629,1.93629,0,0,1,.73887.14018Z" transform="translate(3.4226 -95.6863)"/><path class="cls-3" d="M37.94241,118.48405a2.05942,2.05942,0,0,0-.732.13349l-.00007-2.18319a2.05948,2.05948,0,0,0,.73205.1335,1.9362,1.9362,0,0,0,.73886-.14018l.00007,2.19656A1.93625,1.93625,0,0,0,37.94241,118.48405Z" transform="translate(3.4226 -95.6863)"/><path class="cls-8" d="M37.94235,116.56785a2.05948,2.05948,0,0,1-.73205-.1335l0-.36055H38.6812l0,.35387A1.9362,1.9362,0,0,1,37.94235,116.56785Z" transform="translate(3.4226 -95.6863)"/><path class="cls-8" d="M38.6813,118.97142H37.21038l0-.35388a2.05942,2.05942,0,0,1,.732-.13349,1.93625,1.93625,0,0,1,.73887.14018Z" transform="translate(3.4226 -95.6863)"/><path class="cls-4" d="M37.94241,123.554a2.05943,2.05943,0,0,0-.732.1335l-.00007-2.18319a2.05948,2.05948,0,0,0,.73205.1335,1.9362,1.9362,0,0,0,.73886-.14018l.00007,2.19655A1.93625,1.93625,0,0,0,37.94241,123.554Z" transform="translate(3.4226 -95.6863)"/><path class="cls-8" d="M37.94235,121.63782a2.05948,2.05948,0,0,1-.73205-.1335l0-.36055H38.6812l0,.35387A1.9362,1.9362,0,0,1,37.94235,121.63782Z" transform="translate(3.4226 -95.6863)"/><path class="cls-8" d="M38.6813,124.04139l-1.47092,0,0-.35387a2.05943,2.05943,0,0,1,.732-.1335,1.93625,1.93625,0,0,1,.73887.14018Z" transform="translate(3.4226 -95.6863)"/><path class="cls-4" d="M30.46582,118.95607a2.05964,2.05964,0,0,0-.13349-.732l2.18318-.00007a2.0597,2.0597,0,0,0-.13349.73205,1.9362,1.9362,0,0,0,.14018.73886l-2.19656.00007A1.93625,1.93625,0,0,0,30.46582,118.95607Z" transform="translate(3.4226 -95.6863)"/><path class="cls-8" d="M32.382,118.956a2.0597,2.0597,0,0,1,.13349-.73205l.36056,0v1.47091l-.35387,0A1.9362,1.9362,0,0,1,32.382,118.956Z" transform="translate(3.4226 -95.6863)"/><path class="cls-8" d="M29.97845,119.695V118.224l.35388,0a2.05964,2.05964,0,0,1,.13349.732,1.93625,1.93625,0,0,1-.14018.73887Z" transform="translate(3.4226 -95.6863)"/><path class="cls-4" d="M30.46582,116.31744a2.05964,2.05964,0,0,0-.13349-.732l2.18318-.00007a2.0597,2.0597,0,0,0-.13349.73205,1.93625,1.93625,0,0,0,.14018.73887l-2.19656.00007A1.9363,1.9363,0,0,0,30.46582,116.31744Z" transform="translate(3.4226 -95.6863)"/><path class="cls-8" d="M32.382,116.31738a2.0597,2.0597,0,0,1,.13349-.73205l.36056,0v1.47092l-.35387,0A1.93625,1.93625,0,0,1,32.382,116.31738Z" transform="translate(3.4226 -95.6863)"/><path class="cls-8" d="M29.97845,117.05633v-1.47092l.35388,0a2.05964,2.05964,0,0,1,.13349.732,1.9363,1.9363,0,0,1-.14018.73888Z" transform="translate(3.4226 -95.6863)"/><path class="cls-4" d="M41.90069,116.31744a2.05943,2.05943,0,0,0-.1335-.732l2.18319-.00007a2.05948,2.05948,0,0,0-.1335.73205,1.93625,1.93625,0,0,0,.14018.73887l-2.19655.00007A1.9363,1.9363,0,0,0,41.90069,116.31744Z" transform="translate(3.4226 -95.6863)"/><path class="cls-8" d="M43.81688,116.31738a2.05948,2.05948,0,0,1,.1335-.73205l.36055,0v1.47092l-.35387,0A1.93625,1.93625,0,0,1,43.81688,116.31738Z" transform="translate(3.4226 -95.6863)"/><path class="cls-8" d="M41.41331,117.05633v-1.47092l.35388,0a2.05943,2.05943,0,0,1,.1335.732,1.9363,1.9363,0,0,1-.14018.73888Z" transform="translate(3.4226 -95.6863)"/><path class="cls-4" d="M53.793,116.31744a2.05964,2.05964,0,0,0-.13349-.732l2.18318-.00007a2.0597,2.0597,0,0,0-.13349.73205,1.93625,1.93625,0,0,0,.14018.73887l-2.19656.00007A1.9363,1.9363,0,0,0,53.793,116.31744Z" transform="translate(3.4226 -95.6863)"/><path class="cls-8" d="M55.70918,116.31738a2.0597,2.0597,0,0,1,.13349-.73205l.36056,0v1.47092l-.35387,0A1.93625,1.93625,0,0,1,55.70918,116.31738Z" transform="translate(3.4226 -95.6863)"/><path class="cls-8" d="M53.30561,117.05633v-1.47092l.35388,0a2.05964,2.05964,0,0,1,.13349.732,1.9363,1.9363,0,0,1-.14018.73888Z" transform="translate(3.4226 -95.6863)"/><path class="cls-4" d="M60.59767,124.038a2.05964,2.05964,0,0,0-.13349-.732l2.18318-.00007a2.05974,2.05974,0,0,0-.13349.73205,1.93625,1.93625,0,0,0,.14018.73887l-2.19656.00007A1.9363,1.9363,0,0,0,60.59767,124.038Z" transform="translate(3.4226 -95.6863)"/><path class="cls-8" d="M62.51387,124.03794a2.05974,2.05974,0,0,1,.13349-.73205l.36056,0v1.47092l-.35387,0A1.93625,1.93625,0,0,1,62.51387,124.03794Z" transform="translate(3.4226 -95.6863)"/><path class="cls-8" d="M60.1103,124.77689V123.306l.35388,0a2.05964,2.05964,0,0,1,.13349.732,1.9363,1.9363,0,0,1-.14018.73888Z" transform="translate(3.4226 -95.6863)"/><path class="cls-4" d="M60.59767,126.70441a2.0596,2.0596,0,0,0-.13349-.732l2.18318-.00007a2.05964,2.05964,0,0,0-.13349.732,1.93621,1.93621,0,0,0,.14018.73887l-2.19656.00007A1.93629,1.93629,0,0,0,60.59767,126.70441Z" transform="translate(3.4226 -95.6863)"/><path class="cls-8" d="M62.51387,126.70434a2.05964,2.05964,0,0,1,.13349-.732l.36056,0v1.47092l-.35387,0A1.93621,1.93621,0,0,1,62.51387,126.70434Z" transform="translate(3.4226 -95.6863)"/><path class="cls-8" d="M60.1103,127.44329v-1.47091l.35388,0a2.0596,2.0596,0,0,1,.13349.732,1.93629,1.93629,0,0,1-.14018.73887Z" transform="translate(3.4226 -95.6863)"/><path class="cls-4" d="M60.59767,137.03745a2.05964,2.05964,0,0,0-.13349-.732l2.18318-.00007a2.05974,2.05974,0,0,0-.13349.732,1.93625,1.93625,0,0,0,.14018.73887l-2.19656.00007A1.9363,1.9363,0,0,0,60.59767,137.03745Z" transform="translate(3.4226 -95.6863)"/><path class="cls-8" d="M62.51387,137.03739a2.05974,2.05974,0,0,1,.13349-.732l.36056,0v1.47092l-.35387,0A1.93625,1.93625,0,0,1,62.51387,137.03739Z" transform="translate(3.4226 -95.6863)"/><path class="cls-8" d="M60.1103,137.77634v-1.47092l.35388,0a2.05964,2.05964,0,0,1,.13349.732,1.9363,1.9363,0,0,1-.14018.73888Z" transform="translate(3.4226 -95.6863)"/><path class="cls-4" d="M37.94241,128.624a2.05943,2.05943,0,0,0-.732.1335l-.00007-2.18319a2.05948,2.05948,0,0,0,.73205.1335,1.9362,1.9362,0,0,0,.73886-.14018l.00007,2.19655A1.93625,1.93625,0,0,0,37.94241,128.624Z" transform="translate(3.4226 -95.6863)"/><path class="cls-8" d="M37.94235,126.70779a2.05948,2.05948,0,0,1-.73205-.1335l0-.36056H38.6812l0,.35388A1.9362,1.9362,0,0,1,37.94235,126.70779Z" transform="translate(3.4226 -95.6863)"/><path class="cls-8" d="M38.6813,129.11135H37.21038l0-.35387a2.05943,2.05943,0,0,1,.732-.1335,1.93625,1.93625,0,0,1,.73887.14018Z" transform="translate(3.4226 -95.6863)"/><path class="cls-4" d="M14.98211,156.41415a2.05964,2.05964,0,0,0-.732.13349L14.25,154.36446a2.0597,2.0597,0,0,0,.732.13349,1.9362,1.9362,0,0,0,.73886-.14018l.00007,2.19656A1.93625,1.93625,0,0,0,14.98211,156.41415Z" transform="translate(3.4226 -95.6863)"/><path class="cls-8" d="M14.98205,154.498a2.0597,2.0597,0,0,1-.732-.13349l0-.36056H15.7209l0,.35387A1.9362,1.9362,0,0,1,14.98205,154.498Z" transform="translate(3.4226 -95.6863)"/><path class="cls-8" d="M15.721,156.90152H14.25008l0-.35388a2.05964,2.05964,0,0,1,.732-.13349,1.93625,1.93625,0,0,1,.73887.14018Z" transform="translate(3.4226 -95.6863)"/><path class="cls-4" d="M17.81852,156.41415a2.05964,2.05964,0,0,0-.732.13349l-.00007-2.18318a2.0597,2.0597,0,0,0,.73205.13349,1.93625,1.93625,0,0,0,.73887-.14018l.00007,2.19656A1.9363,1.9363,0,0,0,17.81852,156.41415Z" transform="translate(3.4226 -95.6863)"/><path class="cls-8" d="M17.81846,154.498a2.0597,2.0597,0,0,1-.73205-.13349l0-.36056h1.47092l0,.35387A1.93625,1.93625,0,0,1,17.81846,154.498Z" transform="translate(3.4226 -95.6863)"/><path class="cls-8" d="M18.55741,156.90152H17.08649l0-.35388a2.05964,2.05964,0,0,1,.732-.13349,1.9363,1.9363,0,0,1,.73888.14018Z" transform="translate(3.4226 -95.6863)"/><path class="cls-4" d="M8.16686,148.68849a2.05943,2.05943,0,0,0-.732.1335l-.00007-2.18319a2.05948,2.05948,0,0,0,.73205.1335,1.9362,1.9362,0,0,0,.73886-.14018l.00007,2.19655A1.93625,1.93625,0,0,0,8.16686,148.68849Z" transform="translate(3.4226 -95.6863)"/><path class="cls-8" d="M8.1668,146.7723a2.05948,2.05948,0,0,1-.73205-.1335l0-.36056H8.90565l0,.35388A1.9362,1.9362,0,0,1,8.1668,146.7723Z" transform="translate(3.4226 -95.6863)"/><path class="cls-8" d="M8.90575,149.17586H7.43483l0-.35387a2.05943,2.05943,0,0,1,.732-.1335,1.93625,1.93625,0,0,1,.73887.14018Z" transform="translate(3.4226 -95.6863)"/><path class="cls-4" d="M20.65493,156.41415a2.05964,2.05964,0,0,0-.732.13349l-.00007-2.18318a2.05974,2.05974,0,0,0,.732.13349,1.93625,1.93625,0,0,0,.73887-.14018l.00007,2.19656A1.9363,1.9363,0,0,0,20.65493,156.41415Z" transform="translate(3.4226 -95.6863)"/><path class="cls-8" d="M20.65487,154.498a2.05974,2.05974,0,0,1-.732-.13349l0-.36056h1.47092l0,.35387A1.93625,1.93625,0,0,1,20.65487,154.498Z" transform="translate(3.4226 -95.6863)"/><path class="cls-8" d="M21.39382,156.90152H19.92291l0-.35388a2.05964,2.05964,0,0,1,.732-.13349,1.9363,1.9363,0,0,1,.73888.14018Z" transform="translate(3.4226 -95.6863)"/><path class="cls-4" d="M23.49134,156.41415a2.05959,2.05959,0,0,0-.732.13349l-.00007-2.18318a2.05964,2.05964,0,0,0,.732.13349,1.93621,1.93621,0,0,0,.73887-.14018l.00007,2.19656A1.9363,1.9363,0,0,0,23.49134,156.41415Z" transform="translate(3.4226 -95.6863)"/><path class="cls-8" d="M23.49128,154.498a2.05964,2.05964,0,0,1-.732-.13349l0-.36056h1.47092l0,.35387A1.93621,1.93621,0,0,1,23.49128,154.498Z" transform="translate(3.4226 -95.6863)"/><path class="cls-8" d="M24.23023,156.90152H22.75932l0-.35388a2.05959,2.05959,0,0,1,.732-.13349,1.9363,1.9363,0,0,1,.73888.14018Z" transform="translate(3.4226 -95.6863)"/><path class="cls-4" d="M30.05891,135.34566a2.86786,2.86786,0,0,0-1.064.20369l-.0001-3.331a2.86794,2.86794,0,0,0,1.064.20368,2.69758,2.69758,0,0,0,1.0739-.21387l.00011,3.35135A2.69793,2.69793,0,0,0,30.05891,135.34566Z" transform="translate(3.4226 -95.6863)"/><path class="cls-8" d="M30.05882,132.42206a2.86794,2.86794,0,0,1-1.064-.20368l0-.55011h2.1379l0,.53992A2.69758,2.69758,0,0,1,30.05882,132.42206Z" transform="translate(3.4226 -95.6863)"/><path class="cls-8" d="M31.13284,136.08926h-2.1379l0-.53991a2.86786,2.86786,0,0,1,1.064-.20369,2.69793,2.69793,0,0,1,1.07392.21388Z" transform="translate(3.4226 -95.6863)"/><path class="cls-4" d="M21.78467,109.60193a2.48343,2.48343,0,0,0-.90951.17156l-.00008-2.80563a2.48363,2.48363,0,0,0,.90951.17156,2.33573,2.33573,0,0,0,.918-.18015l.00009,2.82281A2.33564,2.33564,0,0,0,21.78467,109.60193Z" transform="translate(3.4226 -95.6863)"/><path class="cls-8" d="M21.78459,107.13942a2.48363,2.48363,0,0,1-.90951-.17156l0-.46336h1.8275l0,.45477A2.33573,2.33573,0,0,1,21.78459,107.13942Z" transform="translate(3.4226 -95.6863)"/><path class="cls-8" d="M22.70268,110.22825h-1.8275l0-.45476a2.48343,2.48343,0,0,1,.90951-.17156,2.33564,2.33564,0,0,1,.918.18015Z" transform="translate(3.4226 -95.6863)"/><path class="cls-4" d="M65.77955,151.21261a3.38581,3.38581,0,0,0-.20006-1.152l3.27181-.00011a3.38563,3.38563,0,0,0-.20007,1.15205,3.1815,3.1815,0,0,0,.21008,1.16278l-3.29184.00012A3.18168,3.18168,0,0,0,65.77955,151.21261Z" transform="translate(3.4226 -95.6863)"/><path class="cls-8" d="M68.65123,151.21251a3.38563,3.38563,0,0,1,.20007-1.15205l.54035,0,0,2.31484-.53033,0A3.1815,3.1815,0,0,1,68.65123,151.21251Z" transform="translate(3.4226 -95.6863)"/><path class="cls-8" d="M65.04915,152.37542l0-2.31484.53033,0a3.38581,3.38581,0,0,1,.20006,1.152,3.18168,3.18168,0,0,1-.21008,1.1628Z" transform="translate(3.4226 -95.6863)"/><path class="cls-4" d="M16.50649,109.60193a2.48343,2.48343,0,0,0-.90951.17156l-.00008-2.80563a2.48363,2.48363,0,0,0,.90951.17156,2.33581,2.33581,0,0,0,.918-.18015l.00008,2.82281A2.33564,2.33564,0,0,0,16.50649,109.60193Z" transform="translate(3.4226 -95.6863)"/><path class="cls-8" d="M16.50641,107.13942a2.48363,2.48363,0,0,1-.90951-.17156l0-.46336h1.8275l0,.45477A2.33581,2.33581,0,0,1,16.50641,107.13942Z" transform="translate(3.4226 -95.6863)"/><path class="cls-8" d="M17.4245,110.22825H15.597l0-.45476a2.48343,2.48343,0,0,1,.90951-.17156,2.33564,2.33564,0,0,1,.918.18015Z" transform="translate(3.4226 -95.6863)"/><polygon class="cls-4" points="74.681 30.083 75.343 30.083 75.343 32.585 78.593 32.585 78.593 33.365 74.681 33.365 74.681 30.083"/><polygon class="cls-4" points="84.901 30.083 85.564 30.083 85.564 33.365 81.662 33.365 81.662 32.585 84.901 32.585 84.901 30.083"/><polygon class="cls-4" points="74.681 24.47 78.593 24.47 78.593 25.262 75.343 25.262 75.343 27.763 74.681 27.763 74.681 24.47"/><polygon class="cls-4" points="81.662 24.47 85.564 24.47 85.564 27.763 84.901 27.763 84.901 25.262 81.662 25.262 81.662 24.47"/><rect class="cls-7" x="73.04204" y="119.82505" width="7.31914" height="9.56428" transform="translate(-44.48297 105.6225) rotate(-90)"/><polygon class="cls-4" points="44.243 49.282 44.906 49.282 44.906 51.783 48.156 51.783 48.156 52.564 44.243 52.564 44.243 49.282"/><polygon class="cls-4" points="54.463 49.282 55.126 49.282 55.126 52.564 51.224 52.564 51.224 51.783 54.463 51.783 54.463 49.282"/><polygon class="cls-4" points="44.243 43.669 48.156 43.669 48.156 44.46 44.906 44.46 44.906 46.962 44.243 46.962 44.243 43.669"/><polygon class="cls-4" points="51.224 43.669 55.126 43.669 55.126 46.962 54.463 46.962 54.463 44.46 51.224 44.46 51.224 43.669"/><rect class="cls-7" x="42.60423" y="139.02355" width="7.31914" height="9.56428" transform="translate(-94.11928 94.38318) rotate(-90)"/><rect class="cls-4" x="31.27062" y="69.25936" width="1.44773" height="0.54868"/><rect class="cls-4" x="36.30555" y="69.25936" width="1.44773" height="0.54868"/><rect class="cls-9" x="31.27062" y="68.71152" width="1.44773" height="0.54784"/><rect class="cls-9" x="36.30555" y="68.71152" width="1.44773" height="0.54784"/><rect class="cls-4" x="31.27062" y="68.16288" width="1.44773" height="0.54864"/><rect class="cls-4" x="36.30555" y="68.16288" width="1.44773" height="0.54864"/><rect class="cls-4" x="31.27062" y="62.68784" width="1.44773" height="0.54868"/><rect class="cls-4" x="36.30555" y="62.68784" width="1.44773" height="0.54868"/><rect class="cls-9" x="31.27062" y="62.14" width="1.44773" height="0.54784"/><rect class="cls-9" x="36.30555" y="62.14" width="1.44773" height="0.54784"/><rect class="cls-4" x="31.27062" y="61.59136" width="1.44773" height="0.54864"/><rect class="cls-4" x="36.30555" y="61.59136" width="1.44773" height="0.54864"/><rect class="cls-4" x="33.83158" y="62.68784" width="1.44773" height="0.54868"/><rect class="cls-9" x="33.83158" y="62.14" width="1.44773" height="0.54784"/><rect class="cls-4" x="33.83158" y="61.59136" width="1.44773" height="0.54864"/><rect class="cls-7" x="30.36298" y="63.23652" width="8.38492" height="4.92636"/><rect class="cls-7" x="64.68965" y="18.42641" width="2.18827" height="4.37134"/><rect class="cls-8" x="63.53291" y="18.89854" width="1.15674" height="0.58726"/><rect class="cls-8" x="63.53291" y="21.73836" width="1.15674" height="0.58726"/><rect class="cls-8" x="66.87792" y="20.31845" width="1.15674" height="0.58726"/><rect class="cls-10" x="33.13245" y="133.34209" width="4.33204" height="5.36174" transform="translate(74.01955 176.35962) rotate(-180)"/><rect class="cls-4" x="33.13245" y="138.70383" width="4.33204" height="2.23198" transform="translate(74.01955 183.95334) rotate(-180)"/><rect class="cls-11" x="34.26152" y="140.93581" width="2.07391" height="1.46098" transform="translate(74.01955 187.6463) rotate(-180)"/><rect class="cls-11" x="34.26152" y="131.88111" width="2.07391" height="1.46098" transform="translate(74.01955 169.5369) rotate(-180)"/><rect class="cls-7" x="20.71174" y="47.81408" width="14.79834" height="8.42848"/><rect class="cls-8" x="33.37201" y="56.24256" width="0.73542" height="0.54893"/><rect class="cls-8" x="30.95849" y="56.24256" width="0.73542" height="0.54893"/><rect class="cls-8" x="28.54496" y="56.24256" width="0.73542" height="0.54893"/><rect class="cls-8" x="26.69534" y="56.24256" width="0.73542" height="0.54893"/><rect class="cls-8" x="24.87956" y="56.24256" width="0.73542" height="0.54893"/><rect class="cls-8" x="22.97779" y="56.24256" width="0.73542" height="0.54893"/><rect class="cls-8" x="33.37201" y="47.26514" width="0.73542" height="0.54893"/><rect class="cls-8" x="30.95849" y="47.26514" width="0.73542" height="0.54893"/><rect class="cls-8" x="28.54496" y="47.26514" width="0.73542" height="0.54893"/><rect class="cls-8" x="26.69534" y="47.26514" width="0.73542" height="0.54893"/><rect class="cls-8" x="24.87956" y="47.26514" width="0.73542" height="0.54893"/><rect class="cls-8" x="22.97779" y="47.26514" width="0.73542" height="0.54893"/><rect class="cls-8" x="16.64696" y="143.89593" width="0.73542" height="0.54893" transform="translate(-123.73312 65.49877) rotate(-90)"/><rect class="cls-8" x="16.64696" y="145.31362" width="0.73542" height="0.54893" transform="translate(-125.15081 66.91645) rotate(-90)"/><rect class="cls-8" x="16.64696" y="146.73131" width="0.73542" height="0.54893" transform="translate(-126.5685 68.33414) rotate(-90)"/><rect class="cls-8" x="16.64696" y="148.14899" width="0.73542" height="0.54893" transform="translate(-127.98619 69.75183) rotate(-90)"/><rect class="cls-8" x="16.64696" y="149.56668" width="0.73542" height="0.54893" transform="translate(-129.40387 71.16952) rotate(-90)"/><rect class="cls-8" x="16.64696" y="150.98437" width="0.73542" height="0.54893" transform="translate(-130.82156 72.5872) rotate(-90)"/><rect class="cls-10" x="33.88843" y="25.28232" width="3.76853" height="7.98659"/><rect class="cls-8" x="37.65696" y="31.3897" width="0.43366" height="0.95992"/><rect class="cls-4" x="38.09062" y="31.3897" width="0.43366" height="0.95992"/><rect class="cls-8" x="38.52428" y="31.3897" width="0.43366" height="0.95992"/><rect class="cls-8" x="37.65696" y="26.01213" width="0.43366" height="0.95992"/><rect class="cls-4" x="38.09062" y="26.01213" width="0.43366" height="0.95992"/><rect class="cls-8" x="38.52428" y="26.01213" width="0.43366" height="0.95992"/><rect class="cls-8" x="32.58744" y="25.81134" width="0.43366" height="2.37156"/><rect class="cls-4" x="33.02111" y="25.81134" width="0.43366" height="2.37156"/><rect class="cls-8" x="33.45477" y="25.81134" width="0.43366" height="2.37156"/><rect class="cls-8" x="32.58744" y="31.3897" width="0.43366" height="0.95992"/><rect class="cls-4" x="33.02111" y="31.3897" width="0.43366" height="0.95992"/><rect class="cls-8" x="33.45477" y="31.3897" width="0.43366" height="0.95992"/><rect class="cls-12" x="25.52385" y="114.9354" width="0.64155" height="1.41942" transform="translate(144.91233 -5.88583) rotate(89.99999)"/><rect class="cls-12" x="25.52385" y="116.26061" width="0.64155" height="1.41942" transform="translate(146.23755 -4.56061) rotate(89.99999)"/><rect class="cls-12" x="25.52385" y="117.58583" width="0.64155" height="1.41942" transform="translate(147.56276 -3.2354) rotate(89.99999)"/><rect class="cls-12" x="25.52385" y="118.91105" width="0.64155" height="1.41942" transform="translate(148.88798 -1.91018) rotate(89.99999)"/><rect class="cls-12" x="25.52385" y="120.23626" width="0.64155" height="1.41942" transform="translate(150.21319 -0.58497) rotate(89.99999)"/><rect class="cls-12" x="25.52385" y="121.56148" width="0.64155" height="1.41942" transform="translate(151.53841 0.74025) rotate(89.99999)"/><rect class="cls-12" x="25.52385" y="122.88669" width="0.64155" height="1.41942" transform="translate(152.86363 2.06546) rotate(89.99999)"/><rect class="cls-12" x="25.52385" y="124.21191" width="0.64155" height="1.41942" transform="translate(154.18884 3.39068) rotate(89.99999)"/><rect class="cls-12" x="25.52385" y="125.53712" width="0.64155" height="1.41942" transform="translate(155.51406 4.71589) rotate(89.99999)"/><rect class="cls-12" x="25.52385" y="126.86234" width="0.64155" height="1.41942" transform="translate(156.83927 6.04111) rotate(89.99999)"/><rect class="cls-12" x="25.52385" y="128.18755" width="0.64155" height="1.41942" transform="translate(158.16449 7.36632) rotate(89.99999)"/><rect class="cls-12" x="25.52385" y="129.51277" width="0.64155" height="1.41942" transform="translate(159.4897 8.69154) rotate(89.99999)"/><rect class="cls-12" x="25.52385" y="130.83799" width="0.64155" height="1.41942" transform="translate(160.81492 10.01675) rotate(89.99999)"/><rect class="cls-12" x="25.52385" y="132.1632" width="0.64155" height="1.41942" transform="translate(162.14014 11.34197) rotate(89.99999)"/><rect class="cls-12" x="25.52385" y="133.48842" width="0.64155" height="1.41942" transform="translate(163.46535 12.66718) rotate(89.99999)"/><rect class="cls-12" x="25.52385" y="134.81363" width="0.64155" height="1.41942" transform="translate(164.79057 13.9924) rotate(89.99999)"/><rect class="cls-12" x="25.52385" y="136.13885" width="0.64155" height="1.41942" transform="translate(166.11578 15.31761) rotate(89.99999)"/><rect class="cls-12" x="25.52385" y="137.46406" width="0.64155" height="1.41942" transform="translate(167.441 16.64283) rotate(89.99999)"/><path class="cls-4" d="M25.13491,137.56859h-.34a.6296.6296,0,0,1-.64-.63v-1.1799a.638.638,0,0,1,.64-.64h.34v-1.31991h-.34a.638.638,0,0,1-.64-.6399v-1.1799a.6296.6296,0,0,1,.64-.63h.34v-1.32991h-.34a.62963.62963,0,0,1-.64-.63v-1.1799a.638.638,0,0,1,.64-.64h.34v-1.3199h-.34a.638.638,0,0,1-.64-.64v-1.1799a.62962.62962,0,0,1,.64-.63h.34v-1.32986h-.34a.62962.62962,0,0,1-.64-.62995v-1.1799a.638.638,0,0,1,.64-.64h.34v-1.3199h-.34a.638.638,0,0,1-.64-.64v-1.1799a.62963.62963,0,0,1,.64-.63h.34v-2.49958H-3.4226v26.10387H25.13491Z" transform="translate(3.4226 -95.6863)"/><rect class="cls-12" x="17.17128" y="126.25358" width="3.45607" height="1.31173" rx="0.65586" transform="translate(149.23136 12.3238) rotate(89.99999)"/><rect class="cls-8" x="5.17868" y="44.16822" width="3.02819" height="0.66505"/><rect class="cls-8" x="5.17868" y="17.3993" width="3.02819" height="0.66505"/><rect class="cls-13" x="63.20438" y="24.07332" width="2.87227" height="2.26666"/><path class="cls-4" d="M62.25406,120.15961v1.46667h-2.0723v-1.46667h2.0723m.4-.4H59.78177v2.26667h2.87228v-2.26667Z" transform="translate(3.4226 -95.6863)"/><path class="cls-3" d="M63.06,120.89626a.39921.39921,0,0,0,.4.39v.74h-.81v-2.27h.81v.74A.40116.40116,0,0,0,63.06,120.89626Z" transform="translate(3.4226 -95.6863)"/><path class="cls-3" d="M59.3718,120.88631a.39921.39921,0,0,0-.4-.39v-.74h.81v2.27h-.81v-.74A.40116.40116,0,0,0,59.3718,120.88631Z" transform="translate(3.4226 -95.6863)"/><rect class="cls-13" x="63.20438" y="33.13198" width="2.87227" height="2.26666"/><path class="cls-4" d="M62.25406,129.21826v1.46668h-2.0723v-1.46668h2.0723m.4-.4H59.78177v2.26666h2.87228v-2.26666Z" transform="translate(3.4226 -95.6863)"/><path class="cls-3" d="M63.06,129.95492a.39922.39922,0,0,0,.4.39v.74h-.81v-2.27h.81v.74A.40116.40116,0,0,0,63.06,129.95492Z" transform="translate(3.4226 -95.6863)"/><path class="cls-3" d="M59.3718,129.945a.39921.39921,0,0,0-.4-.39v-.74h.81v2.27h-.81v-.74A.40117.40117,0,0,0,59.3718,129.945Z" transform="translate(3.4226 -95.6863)"/><rect class="cls-13" x="63.20438" y="36.87716" width="2.87227" height="2.26666"/><path class="cls-4" d="M62.25406,132.96344v1.46667h-2.0723v-1.46667h2.0723m.4-.4H59.78177v2.26666h2.87228v-2.26666Z" transform="translate(3.4226 -95.6863)"/><path class="cls-3" d="M63.06,133.7001a.39921.39921,0,0,0,.4.39v.74h-.81v-2.27h.81v.74A.40116.40116,0,0,0,63.06,133.7001Z" transform="translate(3.4226 -95.6863)"/><path class="cls-3" d="M59.3718,133.69015a.39921.39921,0,0,0-.4-.39v-.74h.81v2.27h-.81v-.74A.40116.40116,0,0,0,59.3718,133.69015Z" transform="translate(3.4226 -95.6863)"/><rect class="cls-14" x="91.6812" y="63.59737" width="3.61855" height="7.17494"/><path class="cls-10" d="M91.49138,161.43963h-2.847v2.847h2.847Z" transform="translate(3.4226 -95.6863)"/><polygon class="cls-9" points="94.205 67.889 94.205 66.465 94.203 66.465 92.783 66.465 92.778 66.465 92.778 67.889 92.783 67.889 92.783 67.889 94.205 67.889"/><rect class="cls-14" x="88.06265" y="63.59737" width="3.61855" height="7.17494"/><path class="cls-10" d="M87.87282,161.43963h-2.847v2.847h2.847Z" transform="translate(3.4226 -95.6863)"/><polygon class="cls-9" points="90.587 67.889 90.587 66.465 90.584 66.465 89.164 66.465 89.16 66.465 89.16 67.889 89.164 67.889 89.164 67.889 90.587 67.889"/><rect class="cls-14" x="84.4441" y="63.59737" width="3.61855" height="7.17494"/><path class="cls-10" d="M84.25427,161.43963h-2.847v2.847h2.847Z" transform="translate(3.4226 -95.6863)"/><polygon class="cls-9" points="86.968 67.889 86.968 66.465 86.966 66.465 85.545 66.465 85.541 66.465 85.541 67.889 85.545 67.889 85.545 67.889 86.968 67.889"/><rect class="cls-14" x="80.82554" y="63.59737" width="3.61855" height="7.17494"/><path class="cls-10" d="M80.63571,161.43963h-2.847v2.847h2.847Z" transform="translate(3.4226 -95.6863)"/><polygon class="cls-9" points="83.35 67.889 83.35 66.465 83.347 66.465 81.927 66.465 81.923 66.465 81.923 67.889 81.927 67.889 81.927 67.889 83.35 67.889"/><rect class="cls-14" x="77.20699" y="63.59737" width="3.61855" height="7.17494"/><path class="cls-10" d="M77.01716,161.43963h-2.847v2.847h2.847Z" transform="translate(3.4226 -95.6863)"/><polygon class="cls-9" points="79.731 67.889 79.731 66.465 79.728 66.465 78.308 66.465 78.304 66.465 78.304 67.889 78.308 67.889 78.308 67.889 79.731 67.889"/><rect class="cls-14" x="73.58843" y="63.59737" width="3.61855" height="7.17494"/><path class="cls-10" d="M73.39861,161.43963h-2.847v2.847h2.847Z" transform="translate(3.4226 -95.6863)"/><polygon class="cls-9" points="76.112 67.889 76.112 66.465 76.11 66.465 74.69 66.465 74.686 66.465 74.686 67.889 74.69 67.889 74.69 67.889 76.112 67.889"/><rect class="cls-3" x="74.28717" y="70.77231" width="2.22109" height="3.49267"/><rect class="cls-3" x="81.44499" y="70.77231" width="2.22109" height="3.49267"/><rect class="cls-3" x="88.6085" y="70.77231" width="2.22109" height="3.49267"/><rect class="cls-3" x="78.03124" y="60.32312" width="2.22109" height="3.27424"/><rect class="cls-3" x="85.1441" y="60.32312" width="2.22109" height="3.27424"/><rect class="cls-3" x="92.38121" y="60.32312" width="2.22109" height="3.27424"/><rect class="cls-14" x="60.02643" y="4.72914" width="3.61855" height="7.17494"/><path class="cls-10" d="M59.8366,102.5714h-2.847v2.847h2.847Z" transform="translate(3.4226 -95.6863)"/><polygon class="cls-9" points="62.55 9.021 62.55 7.596 62.548 7.596 61.128 7.596 61.124 7.596 61.124 9.021 61.128 9.021 61.128 9.021 62.55 9.021"/><rect class="cls-14" x="56.40788" y="4.72914" width="3.61855" height="7.17494"/><path class="cls-10" d="M56.21805,102.5714h-2.847v2.847h2.847Z" transform="translate(3.4226 -95.6863)"/><polygon class="cls-9" points="58.932 9.021 58.932 7.596 58.929 7.596 57.509 7.596 57.505 7.596 57.505 9.021 57.509 9.021 57.509 9.021 58.932 9.021"/><rect class="cls-14" x="52.78932" y="4.72914" width="3.61855" height="7.17494"/><path class="cls-10" d="M52.5995,102.5714h-2.847v2.847h2.847Z" transform="translate(3.4226 -95.6863)"/><polygon class="cls-9" points="55.313 9.021 55.313 7.596 55.311 7.596 53.891 7.596 53.886 7.596 53.886 9.021 53.891 9.021 53.891 9.021 55.313 9.021"/><rect class="cls-14" x="49.17077" y="4.72914" width="3.61855" height="7.17494"/><path class="cls-10" d="M48.98094,102.5714h-2.847v2.847h2.847Z" transform="translate(3.4226 -95.6863)"/><polygon class="cls-9" points="51.695 9.021 51.695 7.596 51.692 7.596 50.272 7.596 50.268 7.596 50.268 9.021 50.272 9.021 50.272 9.021 51.695 9.021"/><rect class="cls-14" x="45.55222" y="4.72914" width="3.61855" height="7.17494"/><path class="cls-10" d="M45.36239,102.5714h-2.847v2.847h2.847Z" transform="translate(3.4226 -95.6863)"/><polygon class="cls-9" points="48.076 9.021 48.076 7.596 48.074 7.596 46.654 7.596 46.649 7.596 46.649 9.021 46.654 9.021 46.654 9.021 48.076 9.021"/><rect class="cls-14" x="41.93366" y="4.72914" width="3.61855" height="7.17494"/><path class="cls-10" d="M41.74383,102.5714h-2.847v2.847h2.847Z" transform="translate(3.4226 -95.6863)"/><polygon class="cls-9" points="44.458 9.021 44.458 7.596 44.455 7.596 43.035 7.596 43.031 7.596 43.031 9.021 43.035 9.021 43.035 9.021 44.458 9.021"/><rect class="cls-14" x="38.31511" y="4.72914" width="3.61855" height="7.17494"/><path class="cls-10" d="M38.12528,102.5714h-2.847v2.847h2.847Z" transform="translate(3.4226 -95.6863)"/><polygon class="cls-9" points="40.839 9.021 40.839 7.596 40.837 7.596 39.416 7.596 39.412 7.596 39.412 9.021 39.416 9.021 39.416 9.021 40.839 9.021"/><rect class="cls-14" x="34.69655" y="4.72914" width="3.61855" height="7.17494"/><path class="cls-10" d="M34.50673,102.5714h-2.847v2.847h2.847Z" transform="translate(3.4226 -95.6863)"/><polygon class="cls-9" points="37.221 9.021 37.221 7.596 37.218 7.596 35.798 7.596 35.794 7.596 35.794 9.021 35.798 9.021 35.798 9.021 37.221 9.021"/><rect class="cls-14" x="31.078" y="4.72914" width="3.61855" height="7.17494"/><path class="cls-10" d="M30.88817,102.5714h-2.847v2.847h2.847Z" transform="translate(3.4226 -95.6863)"/><polygon class="cls-9" points="33.602 9.021 33.602 7.596 33.599 7.596 32.179 7.596 32.175 7.596 32.175 9.021 32.179 9.021 32.179 9.021 33.602 9.021"/><rect class="cls-14" x="27.45945" y="4.72914" width="3.61855" height="7.17494"/><path class="cls-10" d="M27.26962,102.5714h-2.847v2.847h2.847Z" transform="translate(3.4226 -95.6863)"/><polygon class="cls-9" points="29.983 9.021 29.983 7.596 29.981 7.596 28.561 7.596 28.557 7.596 28.557 9.021 28.561 9.021 28.561 9.021 29.983 9.021"/><rect class="cls-3" x="42.70139" y="11.90409" width="2.22109" height="3.27424"/><rect class="cls-3" x="35.53788" y="11.90409" width="2.22109" height="3.27424"/><rect class="cls-3" x="28.37453" y="11.90409" width="2.22109" height="3.27424"/><rect class="cls-3" x="49.89225" y="11.90409" width="2.22109" height="3.27424"/><rect class="cls-3" x="57.05625" y="11.90409" width="2.22109" height="3.27424"/><rect class="cls-3" x="46.19131" y="1.4549" width="2.22109" height="3.27424"/><rect class="cls-3" x="39.14666" y="1.4549" width="2.22109" height="3.27424"/><rect class="cls-3" x="31.98282" y="1.4549" width="2.22109" height="3.27424"/><rect class="cls-3" x="53.42842" y="1.4549" width="2.22109" height="3.27424"/><rect class="cls-3" x="60.66553" y="1.4549" width="2.22109" height="3.27424"/><rect class="cls-14" x="92.32973" y="4.72914" width="3.61855" height="7.17494"/><path class="cls-10" d="M92.13991,102.5714h-2.847v2.847h2.847Z" transform="translate(3.4226 -95.6863)"/><polygon class="cls-9" points="94.854 9.021 94.854 7.596 94.851 7.596 93.431 7.596 93.427 7.596 93.427 9.021 93.431 9.021 93.431 9.021 94.854 9.021"/><rect class="cls-14" x="88.71118" y="4.72914" width="3.61855" height="7.17494"/><path class="cls-10" d="M88.52135,102.5714h-2.847v2.847h2.847Z" transform="translate(3.4226 -95.6863)"/><polygon class="cls-9" points="91.235 9.021 91.235 7.596 91.233 7.596 89.812 7.596 89.808 7.596 89.808 9.021 89.812 9.021 89.812 9.021 91.235 9.021"/><rect class="cls-14" x="85.09263" y="4.72914" width="3.61855" height="7.17494"/><path class="cls-10" d="M84.9028,102.5714h-2.847v2.847h2.847Z" transform="translate(3.4226 -95.6863)"/><polygon class="cls-9" points="87.617 9.021 87.617 7.596 87.614 7.596 86.194 7.596 86.19 7.596 86.19 9.021 86.194 9.021 86.194 9.021 87.617 9.021"/><rect class="cls-14" x="81.47407" y="4.72914" width="3.61855" height="7.17494"/><path class="cls-10" d="M81.28425,102.5714h-2.847v2.847h2.847Z" transform="translate(3.4226 -95.6863)"/><polygon class="cls-9" points="83.998 9.021 83.998 7.596 83.995 7.596 82.575 7.596 82.571 7.596 82.571 9.021 82.575 9.021 82.575 9.021 83.998 9.021"/><rect class="cls-14" x="77.85552" y="4.72914" width="3.61855" height="7.17494"/><path class="cls-10" d="M77.66569,102.5714h-2.847v2.847h2.847Z" transform="translate(3.4226 -95.6863)"/><polygon class="cls-9" points="80.379 9.021 80.379 7.596 80.377 7.596 78.957 7.596 78.953 7.596 78.953 9.021 78.957 9.021 78.957 9.021 80.379 9.021"/><rect class="cls-14" x="74.23697" y="4.72914" width="3.61855" height="7.17494"/><path class="cls-10" d="M74.04714,102.5714h-2.847v2.847h2.847Z" transform="translate(3.4226 -95.6863)"/><polygon class="cls-9" points="76.761 9.021 76.761 7.596 76.758 7.596 75.338 7.596 75.334 7.596 75.334 9.021 75.338 9.021 75.338 9.021 76.761 9.021"/><rect class="cls-14" x="70.61841" y="4.72914" width="3.61855" height="7.17494"/><path class="cls-10" d="M70.42858,102.5714h-2.847v2.847h2.847Z" transform="translate(3.4226 -95.6863)"/><polygon class="cls-9" points="73.142 9.021 73.142 7.596 73.14 7.596 71.72 7.596 71.716 7.596 71.716 9.021 71.72 9.021 71.72 9.021 73.142 9.021"/><rect class="cls-14" x="66.99986" y="4.72914" width="3.61855" height="7.17494"/><path class="cls-10" d="M66.81,102.5714H63.963v2.847H66.81Z" transform="translate(3.4226 -95.6863)"/><polygon class="cls-9" points="69.524 9.021 69.524 7.596 69.521 7.596 68.101 7.596 68.097 7.596 68.097 9.021 68.101 9.021 68.101 9.021 69.524 9.021"/><rect class="cls-3" x="75.00185" y="11.90409" width="2.22109" height="3.27424"/><rect class="cls-3" x="67.69859" y="11.90409" width="2.22109" height="3.27424"/><rect class="cls-3" x="82.1645" y="11.90409" width="2.22109" height="3.27424"/><rect class="cls-3" x="89.35586" y="11.90409" width="2.22109" height="3.27424"/><rect class="cls-3" x="78.58733" y="1.4549" width="2.22109" height="3.27424"/><rect class="cls-3" x="71.44626" y="1.4549" width="2.22109" height="3.27424"/><rect class="cls-3" x="85.78299" y="1.4549" width="2.22109" height="3.27424"/><rect class="cls-3" x="93.06155" y="1.4549" width="2.22109" height="3.27424"/><rect class="cls-14" x="66.55935" y="63.59737" width="3.61855" height="7.17494"/><path class="cls-10" d="M66.36952,161.43963h-2.847v2.847h2.847Z" transform="translate(3.4226 -95.6863)"/><polygon class="cls-9" points="69.083 67.889 69.083 66.465 69.081 66.465 67.661 66.465 67.656 66.465 67.656 67.889 67.661 67.889 67.661 67.889 69.083 67.889"/><rect class="cls-14" x="62.9408" y="63.59737" width="3.61855" height="7.17494"/><path class="cls-10" d="M62.751,161.43963H59.904v2.847h2.847Z" transform="translate(3.4226 -95.6863)"/><polygon class="cls-9" points="65.465 67.889 65.465 66.465 65.462 66.465 64.042 66.465 64.038 66.465 64.038 67.889 64.042 67.889 64.042 67.889 65.465 67.889"/><rect class="cls-14" x="59.32224" y="63.59737" width="3.61855" height="7.17494"/><path class="cls-10" d="M59.13242,161.43963h-2.847v2.847h2.847Z" transform="translate(3.4226 -95.6863)"/><polygon class="cls-9" points="61.846 67.889 61.846 66.465 61.844 66.465 60.424 66.465 60.419 66.465 60.419 67.889 60.424 67.889 60.424 67.889 61.846 67.889"/><rect class="cls-14" x="55.70369" y="63.59737" width="3.61855" height="7.17494"/><path class="cls-10" d="M55.51386,161.43963h-2.847v2.847h2.847Z" transform="translate(3.4226 -95.6863)"/><polygon class="cls-9" points="58.228 67.889 58.228 66.465 58.225 66.465 56.805 66.465 56.801 66.465 56.801 67.889 56.805 67.889 56.805 67.889 58.228 67.889"/><rect class="cls-14" x="52.08514" y="63.59737" width="3.61855" height="7.17494"/><path class="cls-10" d="M51.89531,161.43963h-2.847v2.847h2.847Z" transform="translate(3.4226 -95.6863)"/><polygon class="cls-9" points="54.609 67.889 54.609 66.465 54.607 66.465 53.186 66.465 53.182 66.465 53.182 67.889 53.186 67.889 53.186 67.889 54.609 67.889"/><rect class="cls-14" x="48.46658" y="63.59737" width="3.61855" height="7.17494"/><path class="cls-10" d="M48.27676,161.43963h-2.847v2.847h2.847Z" transform="translate(3.4226 -95.6863)"/><polygon class="cls-9" points="50.991 67.889 50.991 66.465 50.988 66.465 49.568 66.465 49.564 66.465 49.564 67.889 49.568 67.889 49.568 67.889 50.991 67.889"/><rect class="cls-14" x="44.84803" y="63.59737" width="3.61855" height="7.17494"/><path class="cls-10" d="M44.6582,161.43963h-2.847v2.847h2.847Z" transform="translate(3.4226 -95.6863)"/><polygon class="cls-9" points="47.372 67.889 47.372 66.465 47.369 66.465 45.949 66.465 45.945 66.465 45.945 67.889 45.949 67.889 45.949 67.889 47.372 67.889"/><rect class="cls-14" x="41.22948" y="63.59737" width="3.61855" height="7.17494"/><path class="cls-10" d="M41.03965,161.43963h-2.847v2.847h2.847Z" transform="translate(3.4226 -95.6863)"/><polygon class="cls-9" points="43.753 67.889 43.753 66.465 43.751 66.465 42.331 66.465 42.327 66.465 42.327 67.889 42.331 67.889 42.331 67.889 43.753 67.889"/><rect class="cls-3" x="41.92948" y="70.77231" width="2.22109" height="3.49267"/><rect class="cls-3" x="49.01898" y="70.77231" width="2.22109" height="3.49267"/><rect class="cls-3" x="56.21901" y="70.77231" width="2.22109" height="3.49267"/><rect class="cls-3" x="63.32658" y="70.77231" width="2.22109" height="3.49267"/><rect class="cls-3" x="45.62444" y="60.32312" width="2.22109" height="3.27424"/><rect class="cls-3" x="52.78717" y="60.33809" width="2.22109" height="3.27424"/><rect class="cls-3" x="59.9513" y="60.32312" width="2.22109" height="3.27424"/><rect class="cls-3" x="67.11497" y="60.32312" width="2.22109" height="3.27424"/><path class="cls-15" d="M0,164.7014H3.69a2.255,2.255,0,0,1,0,4.51H0Z" transform="translate(3.4226 -95.6863)"/><circle class="cls-3" cx="7.12749" cy="71.27212" r="1.47111"/><path class="cls-2" d="M0,165.49144a1.466,1.466,0,0,1,1.47,1.47,1.4724,1.4724,0,0,1-1.47,1.47Z" transform="translate(3.4226 -95.6863)"/><path class="cls-15" d="M0,157.57605H3.69a2.255,2.255,0,0,1,0,4.51H0Z" transform="translate(3.4226 -95.6863)"/><circle class="cls-3" cx="7.12749" cy="64.14677" r="1.47111"/><path class="cls-2" d="M0,158.36609a1.466,1.466,0,0,1,1.47,1.47,1.47241,1.47241,0,0,1-1.47,1.47Z" transform="translate(3.4226 -95.6863)"/><rect class="cls-13" x="86.46687" y="122.01212" width="2.87227" height="2.26666" transform="translate(-31.81984 115.36215) rotate(-90)"/><path class="cls-4" d="M88.63635,122.10931v2.07227H87.16968v-2.07227h1.46667m.4-.4H86.76968v2.87225h2.26667v-2.87225Z" transform="translate(3.4226 -95.6863)"/><path class="cls-3" d="M87.90632,121.30336a.39921.39921,0,0,0,.39-.4h.74v.81h-2.27v-.81h.74A.40116.40116,0,0,0,87.90632,121.30336Z" transform="translate(3.4226 -95.6863)"/><path class="cls-3" d="M87.89637,124.99156a.39921.39921,0,0,0-.39.4h-.74v-.81h2.27v.81h-.74A.40116.40116,0,0,0,87.89637,124.99156Z" transform="translate(3.4226 -95.6863)"/></g></svg>