<svg width="1070" height="760" viewBox="0 0 1070 760" fill="none" xmlns="http://www.w3.org/2000/svg">
<g clip-path="url(#clip0)">
<path d="M54.2269 759.863C54.2073 759.88 54.1777 759.882 54.1777 759.91C54.1777 759.944 54.2124 759.958 54.2415 759.973L54.2711 760L958.719 759.907L54.3351 759.973L54.3351 759.907L54.2711 759.907L54.2269 759.863Z" fill="#017481"/>
<path d="M36.2709 18.091C36.2707 18.1157 36.2609 18.1394 36.2434 18.1568C36.2259 18.1742 36.2022 18.184 36.1775 18.184L36.1775 28.6041L36.1825 28.5991C36.2064 28.6001 36.2289 28.6104 36.2454 28.6277C36.2619 28.6451 36.271 28.6681 36.2709 28.692C36.2707 28.704 36.2683 28.7159 36.2635 28.7269C36.2587 28.7379 36.2517 28.7478 36.2429 28.7561C36.2342 28.7643 36.224 28.7708 36.2127 28.7749C36.2015 28.7791 36.1895 28.781 36.1775 28.7805L36.1673 28.7709C36.1483 33.5097 34.2699 38.0515 30.9362 41.419L30.9461 41.419C30.9626 41.4371 30.9719 41.4606 30.9719 41.4851C30.9719 41.5095 30.9626 41.5331 30.9461 41.5512C30.9285 41.5667 30.9058 41.5753 30.8823 41.5753C30.8588 41.5753 30.8362 41.5667 30.8185 41.5512L5.35883 67.0095C5.36804 67.0173 5.37553 67.0271 5.3806 67.0381C5.38568 67.0492 5.38827 67.0611 5.38827 67.0733C5.38827 67.0854 5.38568 67.0974 5.3806 67.1084C5.37553 67.1194 5.36804 67.1292 5.35883 67.1371C5.34204 67.1502 5.3214 67.1573 5.30009 67.1573C5.27878 67.1573 5.25814 67.1502 5.24136 67.1371C1.90693 70.5061 0.0281771 75.0496 0.00957931 79.79C0.0302686 79.7906 0.0499671 79.799 0.0646345 79.8136C0.0793019 79.8282 0.0879116 79.8479 0.0885582 79.8686C0.0868143 79.891 0.0766905 79.9119 0.0603405 79.9273C0.0439905 79.9428 0.0225421 79.9516 7.11697e-05 79.952L6.82226e-05 147.374C0.0178498 147.376 0.0343459 147.384 0.0474555 147.397C0.0605652 147.409 0.0696011 147.425 0.0733729 147.443L0.0885552 147.443L0.0784337 147.452L0.0885552 147.457L0.0733729 147.457C0.0696944 147.475 0.0608005 147.492 0.0477623 147.505C0.034724 147.518 0.0181755 147.527 6.82157e-05 147.531L6.3714e-05 250.517C0.0194194 250.519 0.0375523 250.527 0.051745 250.54C0.0659378 250.553 0.0753562 250.571 0.0784292 250.59L0.0885507 250.59L0.0834899 250.595L0.0885507 250.6L0.0784292 250.6C0.0752749 250.619 0.0659219 250.637 0.051745 250.65C0.0375682 250.663 0.0193896 250.672 6.37072e-05 250.674L4.38232e-05 705.565L0.0638403 705.565L4.38206e-05 705.626L4.38205e-05 705.629L0.0885308 705.629C0.0885308 705.653 0.0587837 705.655 0.0442106 705.672L54.2269 759.863C54.2415 759.847 54.2465 759.818 54.2711 759.818L54.3351 759.843L54.3351 759.907L958.719 759.907C958.72 759.884 958.729 759.862 958.745 759.845C958.761 759.829 958.782 759.819 958.805 759.818C958.826 759.819 958.846 759.828 958.861 759.843C958.876 759.858 958.885 759.878 958.886 759.899C963.654 759.878 968.22 757.975 971.592 754.603C974.963 751.232 976.867 746.665 976.889 741.897C976.868 741.895 976.848 741.886 976.834 741.871C976.819 741.857 976.81 741.837 976.808 741.816C976.808 741.804 976.81 741.792 976.814 741.781C976.818 741.77 976.825 741.76 976.833 741.752C976.841 741.743 976.851 741.736 976.862 741.732C976.873 741.727 976.885 741.725 976.896 741.725L976.896 710.242C976.873 710.241 976.85 710.232 976.834 710.215C976.817 710.198 976.808 710.175 976.808 710.151C976.81 710.13 976.819 710.111 976.833 710.096C976.848 710.081 976.868 710.072 976.889 710.07C976.868 707.701 975.919 705.435 974.244 703.76C972.569 702.085 970.304 701.134 967.936 701.113C967.934 701.136 967.924 701.157 967.907 701.173C967.89 701.188 967.868 701.197 967.845 701.196C967.822 701.195 967.8 701.185 967.785 701.168C967.769 701.151 967.761 701.129 967.761 701.106L860.892 701.106C860.892 701.13 860.883 701.153 860.866 701.17C860.849 701.187 860.826 701.197 860.801 701.197C860.777 701.197 860.754 701.187 860.737 701.17C860.72 701.153 860.711 701.13 860.711 701.106L860.718 701.098C856.994 701.077 853.428 699.587 850.794 696.953C848.161 694.319 846.672 690.752 846.651 687.027L846.644 687.035C846.632 687.035 846.621 687.032 846.61 687.028C846.599 687.023 846.589 687.017 846.581 687.009C846.573 687 846.566 686.991 846.562 686.98C846.558 686.969 846.555 686.958 846.555 686.946C846.555 686.922 846.564 686.899 846.581 686.882C846.597 686.865 846.62 686.856 846.644 686.855L846.644 488.481C846.62 488.481 846.597 488.471 846.581 488.454C846.564 488.437 846.555 488.414 846.555 488.391C846.555 488.379 846.558 488.367 846.562 488.357C846.566 488.346 846.573 488.336 846.581 488.328C846.589 488.32 846.599 488.313 846.61 488.309C846.621 488.305 846.632 488.302 846.644 488.303L846.649 488.31C846.671 484.773 848.085 481.387 850.586 478.886C853.087 476.385 856.472 474.971 860.009 474.95L860.002 474.947C860.001 474.935 860.003 474.923 860.007 474.912C860.011 474.9 860.017 474.89 860.025 474.881C860.033 474.872 860.043 474.865 860.054 474.86C860.065 474.855 860.077 474.852 860.089 474.852C860.101 474.852 860.113 474.854 860.124 474.858C860.135 474.863 860.146 474.869 860.154 474.878C860.163 474.886 860.169 474.896 860.174 474.908C860.179 474.919 860.181 474.931 860.181 474.943L967.761 474.943C967.762 474.919 967.771 474.896 967.788 474.879C967.805 474.862 967.828 474.852 967.852 474.852C967.873 474.854 967.893 474.863 967.908 474.879C967.923 474.894 967.932 474.914 967.933 474.935C970.302 474.914 972.568 473.963 974.243 472.287C975.918 470.611 976.868 468.345 976.889 465.976C976.868 465.975 976.848 465.966 976.833 465.951C976.818 465.936 976.809 465.916 976.808 465.895C976.808 465.883 976.81 465.872 976.815 465.861C976.819 465.85 976.826 465.84 976.834 465.832C976.842 465.824 976.852 465.817 976.863 465.813C976.873 465.809 976.885 465.806 976.896 465.806L976.896 238.011C976.885 238.011 976.873 238.009 976.863 238.005C976.852 238 976.842 237.994 976.834 237.985C976.826 237.977 976.819 237.967 976.815 237.957C976.81 237.946 976.808 237.934 976.808 237.923C976.808 237.884 976.845 237.859 976.882 237.849C976.863 236.92 976.485 236.034 975.828 235.376C975.171 234.718 974.285 234.34 973.356 234.32C973.344 234.359 973.319 234.394 973.28 234.394C973.268 234.394 973.256 234.392 973.245 234.388C973.234 234.384 973.224 234.377 973.216 234.369C973.207 234.361 973.201 234.351 973.196 234.34C973.191 234.329 973.189 234.317 973.189 234.306L900.103 234.306C900.102 234.329 900.092 234.352 900.075 234.368C900.058 234.385 900.036 234.394 900.012 234.394C899.97 234.394 899.948 234.359 899.936 234.32C899.007 234.339 898.121 234.716 897.464 235.373C896.806 236.03 896.428 236.915 896.407 237.844C896.447 237.859 896.483 237.884 896.483 237.923C896.483 237.947 896.474 237.971 896.457 237.988C896.44 238.006 896.417 238.016 896.393 238.016L896.393 243.258C896.417 243.258 896.44 243.269 896.457 243.286C896.474 243.303 896.483 243.327 896.483 243.351C896.483 243.375 896.474 243.398 896.457 243.416C896.44 243.433 896.417 243.443 896.393 243.444L896.378 243.43C896.358 244.358 895.98 245.244 895.323 245.901C894.666 246.557 893.781 246.935 892.852 246.954L892.867 246.968C892.867 246.98 892.865 246.992 892.86 247.004C892.856 247.015 892.849 247.025 892.841 247.034C892.832 247.043 892.822 247.05 892.811 247.054C892.8 247.059 892.788 247.062 892.776 247.062C892.764 247.062 892.752 247.06 892.741 247.055C892.729 247.05 892.719 247.043 892.711 247.035C892.702 247.026 892.695 247.015 892.691 247.004C892.687 246.993 892.685 246.98 892.685 246.968L853.067 246.968C853.067 246.993 853.058 247.016 853.041 247.033C853.023 247.051 853 247.06 852.975 247.06C852.951 247.06 852.928 247.051 852.91 247.033C852.893 247.016 852.884 246.993 852.884 246.968L852.901 246.954C851.971 246.934 851.084 246.556 850.427 245.899C849.769 245.241 849.391 244.354 849.372 243.425L849.357 243.44C849.345 243.44 849.334 243.438 849.323 243.434C849.311 243.43 849.301 243.423 849.293 243.415C849.284 243.407 849.278 243.397 849.273 243.386C849.268 243.375 849.266 243.363 849.266 243.351C849.266 243.339 849.268 243.328 849.273 243.317C849.278 243.306 849.284 243.296 849.293 243.288C849.301 243.279 849.311 243.273 849.323 243.269C849.334 243.264 849.345 243.262 849.357 243.263L849.357 29.944C849.345 29.944 849.333 29.9415 849.322 29.9368C849.311 29.932 849.301 29.9251 849.292 29.9164C849.284 29.9077 849.277 29.8974 849.273 29.8861C849.268 29.8748 849.266 29.8627 849.266 29.8505C849.267 29.8268 849.277 29.8041 849.294 29.7876C849.311 29.771 849.334 29.7618 849.357 29.7621L849.372 29.7772C849.391 28.8472 849.769 27.9607 850.427 27.303C851.084 26.6453 851.971 26.2673 852.901 26.248L852.886 26.2334C852.886 26.2216 852.888 26.21 852.893 26.1991C852.898 26.1882 852.904 26.1784 852.913 26.1701C852.921 26.1619 852.931 26.1554 852.942 26.1511C852.953 26.1468 852.965 26.1447 852.976 26.145C852.988 26.1449 853 26.1471 853.01 26.1516C853.021 26.156 853.031 26.1625 853.039 26.1707C853.047 26.179 853.054 26.1887 853.058 26.1995C853.063 26.2103 853.065 26.2218 853.065 26.2334L892.685 26.2334C892.685 26.2216 892.688 26.2099 892.692 26.199C892.697 26.1881 892.704 26.1783 892.712 26.17C892.72 26.1618 892.73 26.1553 892.742 26.151C892.753 26.1467 892.764 26.1447 892.776 26.145C892.8 26.1449 892.823 26.1541 892.84 26.1706C892.856 26.1872 892.866 26.2097 892.867 26.2334L892.852 26.248C893.781 26.2678 894.667 26.646 895.324 27.3037C895.981 27.9614 896.359 28.8476 896.378 29.7772L896.393 29.7621C896.405 29.7618 896.416 29.7639 896.427 29.7682C896.438 29.7725 896.448 29.779 896.457 29.7872C896.465 29.7955 896.472 29.8053 896.476 29.8162C896.481 29.8271 896.483 29.8387 896.483 29.8505C896.484 29.8627 896.482 29.8748 896.477 29.8862C896.473 29.8976 896.467 29.908 896.458 29.9167C896.45 29.9255 896.439 29.9324 896.428 29.9371C896.417 29.9418 896.405 29.9441 896.393 29.944L896.393 33.3797C896.405 33.3795 896.417 33.3819 896.428 33.3865C896.439 33.3912 896.449 33.3981 896.458 33.4068C896.466 33.4155 896.473 33.4258 896.477 33.4371C896.482 33.4484 896.484 33.4605 896.483 33.4727C896.483 33.5119 896.447 33.5365 896.407 33.5465C896.427 34.4764 896.805 35.3628 897.462 36.0204C898.12 36.678 899.006 37.056 899.936 37.0752C899.948 37.036 899.97 37.0018 900.012 37.0018C900.023 37.0017 900.035 37.004 900.046 37.0083C900.056 37.0127 900.066 37.0192 900.074 37.0274C900.083 37.0355 900.089 37.0453 900.094 37.056C900.098 37.0667 900.1 37.0782 900.1 37.0898L973.189 37.0898C973.189 37.0661 973.199 37.0436 973.216 37.0272C973.233 37.0107 973.256 37.0016 973.28 37.0018C973.321 37.0018 973.344 37.036 973.353 37.0752C974.283 37.0567 975.17 36.6791 975.828 36.0213C976.486 35.3635 976.863 34.4766 976.882 33.5465C976.845 33.5365 976.808 33.5119 976.808 33.4727C976.808 33.4487 976.817 33.4256 976.833 33.4082C976.85 33.3909 976.873 33.3806 976.896 33.3797L976.896 18.184C976.873 18.183 976.85 18.1728 976.834 18.1554C976.817 18.1381 976.808 18.115 976.808 18.0911C976.809 18.0701 976.818 18.0504 976.833 18.0358C976.848 18.0211 976.868 18.0127 976.889 18.0121C976.869 13.2439 974.966 8.67678 971.594 5.30508C968.223 1.93338 963.656 0.0300893 958.889 0.00954931C958.886 0.0303324 958.877 0.0495774 958.861 0.0639118C958.846 0.0782462 958.826 0.0867548 958.805 0.0879512C958.782 0.0881688 958.759 0.0790632 958.742 0.0626033C958.725 0.0461434 958.715 0.023653 958.715 -7.94754e-07L747.749 -1.00163e-05C747.749 0.0236702 747.739 0.0461826 747.722 0.0626468C747.705 0.079111 747.682 0.0881994 747.658 0.087942C747.636 0.0874049 747.615 0.0785191 747.599 0.0630542C747.583 0.0475893 747.574 0.0266848 747.573 0.00451459C738.036 0.027042 728.894 3.81623 722.137 10.5472C722.152 10.5624 722.16 10.5827 722.16 10.6038C722.16 10.6249 722.152 10.6452 722.137 10.6603C722.121 10.6767 722.098 10.6859 722.075 10.6859C722.052 10.6859 722.029 10.6767 722.012 10.6603L722.012 10.6553C717.24 15.3934 710.793 18.0611 704.068 18.081L704.078 18.091C704.078 18.1033 704.076 18.1154 704.071 18.1267C704.066 18.138 704.06 18.1483 704.051 18.1569C704.042 18.1655 704.032 18.1724 704.021 18.177C704.009 18.1817 703.997 18.1841 703.985 18.184C703.973 18.1841 703.961 18.1817 703.949 18.177C703.938 18.1724 703.928 18.1655 703.919 18.1569C703.91 18.1483 703.903 18.138 703.899 18.1267C703.894 18.1154 703.891 18.1033 703.891 18.091L693.478 18.091C693.478 18.1033 693.476 18.1154 693.471 18.1267C693.466 18.138 693.459 18.1483 693.451 18.1569C693.442 18.1655 693.432 18.1724 693.42 18.177C693.409 18.1817 693.397 18.1841 693.385 18.184C693.373 18.1839 693.361 18.1814 693.35 18.1766C693.339 18.1718 693.329 18.1649 693.321 18.1562C693.313 18.1475 693.306 18.1373 693.302 18.1261C693.298 18.1149 693.296 18.103 693.297 18.091L693.301 18.086C683.766 18.0662 674.625 14.2807 667.866 7.55334L667.866 7.55836C667.849 7.57482 667.826 7.584 667.802 7.584C667.779 7.584 667.756 7.57482 667.739 7.55836C667.726 7.54146 667.718 7.52069 667.718 7.49931C667.718 7.47793 667.726 7.45716 667.739 7.44026C662.966 2.69928 656.519 0.0295987 649.792 0.0095358C649.791 0.0298729 649.782 0.0490195 649.768 0.0634334C649.753 0.0778472 649.734 0.0865514 649.714 0.0879377C649.702 0.0880173 649.691 0.0858024 649.68 0.0814168C649.669 0.0770312 649.659 0.0705625 649.651 0.0623861C649.643 0.0542097 649.636 0.0444863 649.632 0.0337765C649.628 0.0230667 649.625 0.0115819 649.625 -1.43055e-05L54.3598 -4.03254e-05C54.3598 0.0115559 54.3576 0.0230407 54.3532 0.0337505C54.3487 0.0444603 54.3422 0.0541837 54.334 0.0623601C54.3258 0.0705365 54.3159 0.0770052 54.3052 0.0813908C54.2944 0.0857764 54.283 0.0879913 54.2714 0.0879117C54.2503 0.0874855 54.23 0.0792342 54.2145 0.0647518C54.1991 0.0502693 54.1898 0.0305862 54.188 0.00950977C49.4203 0.0299575 44.8537 1.93322 41.4824 5.30494C38.1111 8.67666 36.2082 13.2438 36.1877 18.0121C36.2089 18.0127 36.229 18.0211 36.2443 18.0357C36.2597 18.0502 36.2691 18.0699 36.2709 18.091V18.091ZM922.839 319.799C923.733 319.799 924.608 320.064 925.352 320.561C926.095 321.058 926.675 321.765 927.017 322.591C927.359 323.418 927.449 324.327 927.274 325.205C927.099 326.082 926.668 326.888 926.036 327.521C925.403 328.153 924.597 328.584 923.72 328.758C922.842 328.932 921.933 328.842 921.107 328.499C920.28 328.157 919.574 327.577 919.078 326.833C918.581 326.088 918.316 325.214 918.317 324.319C918.317 323.725 918.434 323.137 918.661 322.589C918.888 322.04 919.222 321.542 919.641 321.122C920.061 320.702 920.56 320.369 921.109 320.142C921.657 319.915 922.245 319.799 922.839 319.799V319.799ZM922.839 376.784C923.733 376.784 924.608 377.049 925.351 377.546C926.095 378.043 926.675 378.75 927.017 379.576C927.359 380.402 927.449 381.312 927.274 382.189C927.1 383.066 926.669 383.872 926.037 384.505C925.404 385.137 924.598 385.568 923.721 385.743C922.844 385.917 921.935 385.828 921.108 385.485C920.282 385.143 919.576 384.563 919.079 383.819C918.582 383.076 918.317 382.201 918.317 381.307C918.317 380.713 918.434 380.125 918.661 379.576C918.888 379.027 919.221 378.529 919.641 378.109C920.061 377.689 920.56 377.355 921.108 377.128C921.657 376.901 922.245 376.784 922.839 376.784V376.784ZM795.079 528.544C796.98 528.543 798.84 529.107 800.421 530.164C802.002 531.221 803.235 532.723 803.963 534.48C804.691 536.237 804.881 538.171 804.51 540.037C804.139 541.902 803.223 543.616 801.879 544.961C800.534 546.306 798.82 547.222 796.955 547.593C795.09 547.964 793.156 547.774 791.399 547.046C789.642 546.318 788.14 545.086 787.084 543.504C786.027 541.922 785.463 540.063 785.463 538.161C785.463 536.898 785.711 535.647 786.195 534.48C786.678 533.314 787.386 532.253 788.279 531.36C789.172 530.467 790.232 529.759 791.399 529.275C792.565 528.792 793.816 528.543 795.079 528.544V528.544ZM795.079 628.27C796.98 628.271 798.839 628.835 800.42 629.891C802.001 630.948 803.233 632.45 803.961 634.207C804.688 635.964 804.879 637.897 804.508 639.763C804.136 641.628 803.221 643.341 801.876 644.686C800.532 646.031 798.819 646.946 796.954 647.318C795.089 647.689 793.155 647.498 791.399 646.771C789.642 646.043 788.14 644.811 787.084 643.229C786.027 641.648 785.463 639.789 785.463 637.887C785.463 636.624 785.711 635.374 786.194 634.207C786.677 633.04 787.386 631.98 788.279 631.086C789.171 630.193 790.232 629.485 791.398 629.002C792.565 628.519 793.816 628.27 795.079 628.27V628.27ZM759.809 700.924C764.318 700.924 768.725 702.261 772.474 704.766C776.222 707.271 779.144 710.832 780.869 714.998C782.595 719.163 783.046 723.747 782.167 728.17C781.287 732.592 779.116 736.654 775.928 739.843C772.74 743.031 768.679 745.202 764.257 746.082C759.835 746.962 755.252 746.51 751.086 744.785C746.921 743.059 743.361 740.137 740.856 736.388C738.351 732.639 737.014 728.231 737.014 723.722C737.014 720.728 737.604 717.764 738.749 714.998C739.894 712.232 741.574 709.718 743.69 707.601C745.807 705.484 748.32 703.805 751.086 702.659C753.851 701.514 756.816 700.924 759.809 700.924V700.924ZM712.872 22.1791C714.211 22.1791 715.519 22.576 716.632 23.3197C717.745 24.0634 718.613 25.1205 719.125 26.3573C719.637 27.594 719.771 28.9549 719.51 30.2678C719.249 31.5807 718.604 32.7867 717.658 33.7333C716.711 34.6799 715.506 35.3245 714.193 35.5856C712.88 35.8468 711.519 35.7128 710.283 35.2005C709.046 34.6882 707.989 33.8207 707.246 32.7077C706.502 31.5946 706.105 30.286 706.105 28.9474C706.106 27.1526 706.819 25.4317 708.088 24.1626C709.357 22.8935 711.078 22.1801 712.872 22.1791V22.1791ZM680.11 22.1791C681.449 22.1791 682.757 22.576 683.87 23.3197C684.983 24.0634 685.85 25.1205 686.363 26.3573C686.875 27.594 687.009 28.9549 686.748 30.2678C686.486 31.5807 685.842 32.7867 684.895 33.7333C683.949 34.6799 682.743 35.3245 681.43 35.5856C680.118 35.8468 678.757 35.7128 677.52 35.2005C676.284 34.6882 675.227 33.8207 674.483 32.7076C673.74 31.5946 673.343 30.286 673.343 28.9474C673.344 27.1527 674.057 25.4318 675.326 24.1627C676.595 22.8936 678.316 22.1802 680.11 22.1791L680.11 22.1791ZM36.1776 529.402C31.6691 529.402 27.2619 528.065 23.5132 525.56C19.7645 523.055 16.8429 519.495 15.1175 515.329C13.3922 511.163 12.9407 506.579 13.8203 502.157C14.6998 497.734 16.8709 493.672 20.0588 490.484C23.2468 487.295 27.3086 485.124 31.7304 484.244C36.1522 483.365 40.7356 483.816 44.9008 485.542C49.0661 487.267 52.6261 490.189 55.1308 493.939C57.6356 497.688 58.9725 502.096 58.9724 506.605C58.9722 512.651 56.5706 518.45 52.2957 522.725C48.0209 527 42.223 529.402 36.1774 529.402L36.1776 529.402ZM171.858 152.223C174.182 152.222 176.454 152.911 178.387 154.202C180.32 155.493 181.826 157.328 182.716 159.476C183.606 161.623 183.839 163.986 183.386 166.266C182.933 168.546 181.815 170.64 180.172 172.284C178.529 173.928 176.435 175.048 174.156 175.501C171.876 175.955 169.514 175.723 167.366 174.834C165.219 173.945 163.383 172.439 162.092 170.507C160.8 168.574 160.11 166.302 160.11 163.978C160.109 160.861 161.347 157.872 163.55 155.667C165.753 153.463 168.742 152.224 171.858 152.223L171.858 152.223ZM171.858 294.689C174.182 294.689 176.454 295.377 178.387 296.668C180.32 297.959 181.826 299.795 182.716 301.942C183.606 304.089 183.839 306.452 183.386 308.732C182.933 311.012 181.815 313.106 180.172 314.75C178.529 316.394 176.435 317.514 174.156 317.968C171.876 318.422 169.513 318.189 167.366 317.3C165.219 316.411 163.383 314.905 162.092 312.973C160.8 311.041 160.11 308.769 160.11 306.444C160.109 303.327 161.347 300.338 163.55 298.133C165.753 295.929 168.741 294.69 171.858 294.689L171.858 294.689ZM58.9723 108.556C58.9722 113.065 57.6353 117.473 55.1305 121.222C52.6258 124.971 49.0658 127.893 44.9006 129.618C40.7353 131.344 36.152 131.795 31.7303 130.915C27.3085 130.036 23.2469 127.865 20.059 124.676C16.8711 121.488 14.7001 117.426 13.8206 113.003C12.9411 108.581 13.3926 103.997 15.1179 99.8314C16.8431 95.6657 19.7648 92.1052 23.5134 89.6002C27.262 87.0951 31.6691 85.7581 36.1775 85.7581C39.1711 85.7575 42.1355 86.3468 44.9013 87.4923C47.6672 88.6379 50.1803 90.3171 52.2971 92.4342C54.4139 94.5513 56.0929 97.0648 57.2383 99.831C58.3836 102.597 58.9729 105.562 58.9723 108.556V108.556Z" fill="#017481"/>
<path d="M42.8123 563.616L42.8123 542.225L11.4541 542.225L11.4541 563.616L42.8123 563.616Z" fill="#C2B9AF"/>
<path d="M42.8123 698.959L42.8123 677.567L11.4541 677.567L11.4541 698.959L42.8123 698.959Z" fill="#C2B9AF"/>
<path d="M89.4915 741.812L89.4915 705.63L53.3145 705.63L53.3145 741.812L89.4915 741.812Z" fill="#017481"/>
<path d="M89.4915 741.812L89.4915 705.63L53.3145 705.63L53.3145 741.812L89.4915 741.812Z" fill="#E5540F"/>
<path d="M89.4915 741.812L89.4915 705.63L53.3145 705.63L53.3145 741.812L89.4915 741.812Z" fill="black"/>
<path d="M62.3513 732.804L80.4519 732.804L80.4519 732.769L80.4519 714.721L80.4519 714.671L62.3513 714.671L62.3513 714.721L62.3513 732.804Z" fill="#8A7867"/>
<path d="M125.853 741.812L125.853 705.63L89.6762 705.63L89.6762 741.812L125.853 741.812Z" fill="#017481"/>
<path d="M125.853 741.812L125.853 705.63L89.6762 705.63L89.6762 741.812L125.853 741.812Z" fill="#E5540F"/>
<path d="M125.853 741.812L125.853 705.63L89.6762 705.63L89.6762 741.812L125.853 741.812Z" fill="black"/>
<path d="M98.7134 732.804L116.814 732.804L116.814 732.769L116.814 714.721L116.814 714.671L98.7134 714.671L98.7134 714.721L98.7134 732.804Z" fill="#8A7867"/>
<path d="M162.112 741.812L162.112 705.63L125.934 705.63L125.934 741.812L162.112 741.812Z" fill="#017481"/>
<path d="M162.112 741.812L162.112 705.63L125.934 705.63L125.934 741.812L162.112 741.812Z" fill="#E5540F"/>
<path d="M162.112 741.812L162.112 705.63L125.934 705.63L125.934 741.812L162.112 741.812Z" fill="black"/>
<path d="M134.975 732.804L153.071 732.804L153.071 732.769L153.071 714.721L153.071 714.671L134.975 714.671L134.975 714.721L134.975 732.804Z" fill="#8A7867"/>
<path d="M198.37 741.812L198.37 705.63L162.193 705.63L162.193 741.812L198.37 741.812Z" fill="#017481"/>
<path d="M198.37 741.812L198.37 705.63L162.193 705.63L162.193 741.812L198.37 741.812Z" fill="#E5540F"/>
<path d="M198.37 741.812L198.37 705.63L162.193 705.63L162.193 741.812L198.37 741.812Z" fill="black"/>
<path d="M171.232 732.804L189.333 732.804L189.333 732.769L189.333 714.721L189.333 714.671L171.232 714.671L171.232 714.721L171.232 732.804Z" fill="#8A7867"/>
<path d="M234.628 741.812L234.628 705.63L198.451 705.63L198.451 741.812L234.628 741.812Z" fill="#017481"/>
<path d="M234.628 741.812L234.628 705.63L198.451 705.63L198.451 741.812L234.628 741.812Z" fill="#E5540F"/>
<path d="M234.628 741.812L234.628 705.63L198.451 705.63L198.451 741.812L234.628 741.812Z" fill="black"/>
<path d="M207.489 732.804L225.59 732.804L225.59 732.769L225.59 714.721L225.59 714.671L207.489 714.671L207.489 714.721L207.489 732.804Z" fill="#8A7867"/>
<path d="M270.886 741.812L270.886 705.63L234.709 705.63L234.709 741.812L270.886 741.812Z" fill="#017481"/>
<path d="M270.886 741.812L270.886 705.63L234.709 705.63L234.709 741.812L270.886 741.812Z" fill="#E5540F"/>
<path d="M270.886 741.812L270.886 705.63L234.709 705.63L234.709 741.812L270.886 741.812Z" fill="black"/>
<path d="M243.746 732.804L261.847 732.804L261.847 732.769L261.847 714.721L261.847 714.671L243.746 714.671L243.746 714.721L243.746 732.804Z" fill="#8A7867"/>
<path d="M307.144 741.812L307.144 705.63L270.967 705.63L270.967 741.812L307.144 741.812Z" fill="#017481"/>
<path d="M307.144 741.812L307.144 705.63L270.967 705.63L270.967 741.812L307.144 741.812Z" fill="#E5540F"/>
<path d="M307.144 741.812L307.144 705.63L270.967 705.63L270.967 741.812L307.144 741.812Z" fill="black"/>
<path d="M280.008 732.804L298.104 732.804L298.104 732.769L298.104 714.721L298.104 714.671L280.008 714.671L280.008 714.721L280.008 732.804Z" fill="#8A7867"/>
<path d="M343.402 741.812L343.402 705.63L307.225 705.63L307.225 741.812L343.402 741.812Z" fill="#017481"/>
<path d="M343.402 741.812L343.402 705.63L307.225 705.63L307.225 741.812L343.402 741.812Z" fill="#E5540F"/>
<path d="M343.402 741.812L343.402 705.63L307.225 705.63L307.225 741.812L343.402 741.812Z" fill="black"/>
<path d="M316.265 732.804L334.365 732.804L334.365 732.769L334.365 714.721L334.365 714.671L316.265 714.671L316.265 714.721L316.265 732.804Z" fill="#8A7867"/>
<path d="M400.975 741.812L400.975 705.63L364.798 705.63L364.798 741.812L400.975 741.812Z" fill="#017481"/>
<path d="M400.975 741.812L400.975 705.63L364.798 705.63L364.798 741.812L400.975 741.812Z" fill="#E5540F"/>
<path d="M400.975 741.812L400.975 705.63L364.798 705.63L364.798 741.812L400.975 741.812Z" fill="black"/>
<path d="M373.838 732.804L391.934 732.804L391.934 732.769L391.934 714.721L391.934 714.671L373.838 714.671L373.838 714.721L373.838 732.804Z" fill="#8A7867"/>
<path d="M437.237 741.812L437.237 705.63L401.06 705.63L401.06 741.812L437.237 741.812Z" fill="#017481"/>
<path d="M437.237 741.812L437.237 705.63L401.06 705.63L401.06 741.812L437.237 741.812Z" fill="#E5540F"/>
<path d="M437.237 741.812L437.237 705.63L401.06 705.63L401.06 741.812L437.237 741.812Z" fill="black"/>
<path d="M410.1 732.804L428.196 732.804L428.196 732.769L428.196 714.721L428.196 714.671L410.1 714.671L410.1 714.721L410.1 732.804Z" fill="#8A7867"/>
<path d="M473.499 741.812L473.499 705.63L437.322 705.63L437.322 741.812L473.499 741.812Z" fill="#017481"/>
<path d="M473.499 741.812L473.499 705.63L437.322 705.63L437.322 741.812L473.499 741.812Z" fill="#E5540F"/>
<path d="M473.499 741.812L473.499 705.63L437.322 705.63L437.322 741.812L473.499 741.812Z" fill="black"/>
<path d="M446.362 732.804L464.458 732.804L464.458 732.769L464.458 714.721L464.458 714.671L446.362 714.671L446.362 714.721L446.362 732.804Z" fill="#8A7867"/>
<path d="M509.761 741.812L509.761 705.63L473.584 705.63L473.584 741.812L509.761 741.812Z" fill="#017481"/>
<path d="M509.761 741.812L509.761 705.63L473.584 705.63L473.584 741.812L509.761 741.812Z" fill="#E5540F"/>
<path d="M509.761 741.812L509.761 705.63L473.584 705.63L473.584 741.812L509.761 741.812Z" fill="black"/>
<path d="M482.624 732.804L500.72 732.804L500.72 732.769L500.72 714.721L500.72 714.671L482.624 714.671L482.624 714.721L482.624 732.804Z" fill="#8A7867"/>
<path d="M546.023 741.812L546.023 705.63L509.846 705.63L509.846 741.812L546.023 741.812Z" fill="#017481"/>
<path d="M546.023 741.812L546.023 705.63L509.846 705.63L509.846 741.812L546.023 741.812Z" fill="#E5540F"/>
<path d="M546.023 741.812L546.023 705.63L509.846 705.63L509.846 741.812L546.023 741.812Z" fill="black"/>
<path d="M518.886 732.804L536.982 732.804L536.982 732.769L536.982 714.721L536.982 714.671L518.886 714.671L518.886 714.721L518.886 732.804Z" fill="#8A7867"/>
<path d="M582.285 741.812L582.285 705.63L546.108 705.63L546.108 741.812L582.285 741.812Z" fill="#017481"/>
<path d="M582.285 741.812L582.285 705.63L546.108 705.63L546.108 741.812L582.285 741.812Z" fill="#E5540F"/>
<path d="M582.285 741.812L582.285 705.63L546.108 705.63L546.108 741.812L582.285 741.812Z" fill="black"/>
<path d="M555.148 732.804L573.249 732.804L573.249 732.769L573.249 714.721L573.249 714.671L555.148 714.671L555.148 714.721L555.148 732.804Z" fill="#8A7867"/>
<path d="M618.547 741.812L618.547 705.63L582.37 705.63L582.37 741.812L618.547 741.812Z" fill="#017481"/>
<path d="M618.547 741.812L618.547 705.63L582.37 705.63L582.37 741.812L618.547 741.812Z" fill="#E5540F"/>
<path d="M618.547 741.812L618.547 705.63L582.37 705.63L582.37 741.812L618.547 741.812Z" fill="black"/>
<path d="M591.41 732.804L609.51 732.804L609.51 732.769L609.51 714.721L609.51 714.671L591.41 714.671L591.41 714.721L591.41 732.804Z" fill="#8A7867"/>
<path d="M654.809 741.812L654.809 705.63L618.632 705.63L618.632 741.812L654.809 741.812Z" fill="#017481"/>
<path d="M654.809 741.812L654.809 705.63L618.632 705.63L618.632 741.812L654.809 741.812Z" fill="#E5540F"/>
<path d="M654.809 741.812L654.809 705.63L618.632 705.63L618.632 741.812L654.809 741.812Z" fill="black"/>
<path d="M627.672 732.804L645.772 732.804L645.772 732.769L645.772 714.721L645.772 714.671L627.672 714.671L627.672 714.721L627.672 732.804Z" fill="#8A7867"/>
<path d="M691.071 741.812L691.071 705.63L654.894 705.63L654.894 741.812L691.071 741.812Z" fill="#017481"/>
<path d="M691.071 741.812L691.071 705.63L654.894 705.63L654.894 741.812L691.071 741.812Z" fill="#E5540F"/>
<path d="M691.071 741.812L691.071 705.63L654.894 705.63L654.894 741.812L691.071 741.812Z" fill="black"/>
<path d="M663.933 732.804L682.034 732.804L682.034 732.769L682.034 714.721L682.034 714.671L663.933 714.671L663.933 714.721L663.933 732.804Z" fill="#8A7867"/>
<path d="M727.333 741.812L727.333 705.63L691.156 705.63L691.156 741.812L727.333 741.812Z" fill="#017481"/>
<path d="M727.333 741.812L727.333 705.63L691.156 705.63L691.156 741.812L727.333 741.812Z" fill="#E5540F"/>
<path d="M727.333 741.812L727.333 705.63L691.156 705.63L691.156 741.812L727.333 741.812Z" fill="black"/>
<path d="M700.195 732.804L718.296 732.804L718.296 732.769L718.296 714.721L718.296 714.671L700.195 714.671L700.195 714.721L700.195 732.804Z" fill="#8A7867"/>
<path d="M55.1609 308.823L17.199 308.823L17.199 323.945L55.1609 323.945L55.1609 308.823Z" fill="#8B8F90"/>
<path d="M24.5281 316.388C24.5281 314.079 25.2126 311.822 26.4952 309.902C27.7779 307.982 29.6011 306.486 31.7341 305.602C33.8671 304.718 36.2142 304.487 38.4786 304.938C40.743 305.388 42.8229 306.5 44.4555 308.133C46.0881 309.765 47.2 311.846 47.6504 314.11C48.1009 316.375 47.8697 318.722 46.9862 320.856C46.1027 322.989 44.6066 324.812 42.687 326.095C40.7674 327.378 38.5104 328.063 36.2017 328.063C33.1059 328.063 30.137 326.833 27.9478 324.643C25.7587 322.454 24.5286 319.485 24.5281 316.388Z" fill="#EAA800"/>
<path d="M55.1609 282.025L17.199 282.025L17.199 297.147L55.1609 297.147L55.1609 282.025Z" fill="#8B8F90"/>
<path d="M24.5281 289.59C24.5281 287.281 25.2126 285.024 26.4952 283.104C27.7779 281.184 29.6011 279.688 31.7341 278.804C33.8671 277.92 36.2142 277.689 38.4786 278.14C40.743 278.59 42.8229 279.702 44.4555 281.335C46.0881 282.967 47.2 285.048 47.6504 287.312C48.1009 289.577 47.8697 291.924 46.9862 294.058C46.1027 296.191 44.6066 298.014 42.687 299.297C40.7674 300.58 38.5104 301.265 36.2017 301.265C33.1059 301.265 30.137 300.034 27.9478 297.845C25.7587 295.656 24.5286 292.687 24.5281 289.59V289.59Z" fill="#EAA800"/>
<path d="M55.1609 255.226L17.199 255.226L17.199 270.348L55.1609 270.348L55.1609 255.226Z" fill="#8B8F90"/>
<path d="M24.5281 262.792C24.5281 260.483 25.2126 258.225 26.4952 256.306C27.7779 254.386 29.6011 252.889 31.7341 252.006C33.8671 251.122 36.2142 250.891 38.4786 251.341C40.743 251.791 42.8229 252.903 44.4555 254.536C46.0881 256.169 47.2 258.249 47.6504 260.514C48.1009 262.778 47.8697 265.126 46.9862 267.259C46.1027 269.392 44.6066 271.216 42.687 272.499C40.7674 273.782 38.5104 274.466 36.2017 274.466C33.1059 274.466 30.137 273.236 27.9478 271.047C25.7587 268.857 24.5286 265.888 24.5281 262.792V262.792Z" fill="#EAA800"/>
<path d="M55.1609 228.428L17.199 228.428L17.199 243.55L55.1609 243.55L55.1609 228.428Z" fill="#8B8F90"/>
<path d="M24.5281 235.994C24.5281 233.685 25.2126 231.427 26.4952 229.507C27.7779 227.588 29.6011 226.091 31.7341 225.207C33.8671 224.324 36.2142 224.092 38.4786 224.543C40.743 224.993 42.8229 226.105 44.4555 227.738C46.0881 229.371 47.2 231.451 47.6504 233.716C48.1009 235.98 47.8697 238.328 46.9862 240.461C46.1027 242.594 44.6066 244.418 42.687 245.701C40.7674 246.983 38.5104 247.668 36.2017 247.668C33.1059 247.668 30.137 246.438 27.9478 244.248C25.7587 242.059 24.5286 239.09 24.5281 235.994V235.994Z" fill="#EAA800"/>
<path d="M55.1609 201.63L17.199 201.63L17.199 216.752L55.1609 216.752L55.1609 201.63Z" fill="#8B8F90"/>
<path d="M24.5281 209.195C24.5281 206.886 25.2128 204.629 26.4954 202.709C27.778 200.789 29.6011 199.293 31.7341 198.409C33.8671 197.525 36.2142 197.294 38.4786 197.745C40.743 198.195 42.823 199.307 44.4555 200.94C46.0881 202.572 47.2 204.653 47.6504 206.917C48.1009 209.182 47.8697 211.529 46.9862 213.663C46.1027 215.796 44.6066 217.619 42.687 218.902C40.7674 220.185 38.5104 220.87 36.2017 220.87C33.1059 220.87 30.137 219.639 27.9478 217.45C25.7587 215.261 24.5286 212.292 24.5281 209.195V209.195Z" fill="#EAA800"/>
<path d="M55.1609 174.831L17.199 174.831L17.199 189.954L55.1609 189.954L55.1609 174.831Z" fill="#8B8F90"/>
<path d="M24.5281 182.397C24.5281 180.088 25.2126 177.831 26.4952 175.911C27.7779 173.991 29.6011 172.494 31.7341 171.611C33.8671 170.727 36.2142 170.496 38.4786 170.946C40.743 171.397 42.8229 172.509 44.4555 174.141C46.0881 175.774 47.2 177.854 47.6504 180.119C48.1009 182.384 47.8697 184.731 46.9862 186.864C46.1027 188.998 44.6066 190.821 42.687 192.104C40.7674 193.387 38.5104 194.071 36.2017 194.072C33.1059 194.071 30.137 192.841 27.9478 190.652C25.7587 188.462 24.5286 185.493 24.5281 182.397V182.397Z" fill="#EAA800"/>
<path d="M55.1608 148.033L17.1987 148.033L17.1987 163.155L55.1608 163.155L55.1608 148.033Z" fill="#8B8F90"/>
<path d="M24.5281 155.599C24.5281 153.29 25.2126 151.032 26.4952 149.112C27.7779 147.192 29.6011 145.696 31.7341 144.812C33.8671 143.929 36.2142 143.697 38.4786 144.148C40.743 144.598 42.8229 145.71 44.4555 147.343C46.0881 148.976 47.2 151.056 47.6504 153.32C48.1009 155.585 47.8697 157.933 46.9862 160.066C46.1027 162.199 44.6066 164.023 42.687 165.305C40.7674 166.588 38.5104 167.273 36.2017 167.273C33.1059 167.273 30.137 166.043 27.9478 163.853C25.7587 161.664 24.5286 158.695 24.5281 155.599V155.599Z" fill="#EAA800"/>
<path d="M20.1849 352.98L20.1849 366.832L29.969 376.612L29.9589 379.442L20.1849 389.222L20.1849 403.068L29.969 412.853L29.9589 415.678L20.1899 425.458L20.1899 439.309L29.969 449.09L43.7932 449.09L66.2006 449.09L80.0401 449.09L89.8191 439.309L89.8191 425.458L80.035 415.678L80.035 412.853L89.8191 403.068L89.8191 389.222L80.035 379.437L80.035 376.612L89.8191 366.832L89.8191 352.98L80.035 343.2L66.2006 343.2L43.7932 343.2L29.9539 343.2L20.1849 352.98Z" fill="black"/>
<path d="M73.1236 366.125C71.8934 366.127 70.6902 365.765 69.6663 365.083C68.6424 364.401 67.8436 363.43 67.3713 362.294C66.899 361.158 66.7743 359.908 67.0129 358.701C67.2516 357.494 67.8428 356.385 68.7118 355.514C69.5809 354.643 70.6887 354.05 71.895 353.809C73.1014 353.568 74.3522 353.691 75.4889 354.161C76.6257 354.631 77.5973 355.428 78.2809 356.451C78.9646 357.474 79.3296 358.677 79.3296 359.907C79.3301 361.554 78.6769 363.134 77.5132 364.3C76.3496 365.466 74.7707 366.123 73.1236 366.125V366.125Z" fill="#8B8F90"/>
<path d="M36.8816 438.601C35.653 438.602 34.4517 438.239 33.4296 437.557C32.4074 436.875 31.6103 435.906 31.1392 434.771C30.668 433.636 30.544 432.387 30.7826 431.182C31.0213 429.977 31.6118 428.869 32.4798 427.999C33.3478 427.13 34.4541 426.537 35.6589 426.296C36.8637 426.056 38.1128 426.178 39.2482 426.647C40.3837 427.116 41.3545 427.912 42.0379 428.933C42.7213 429.954 43.0866 431.155 43.0876 432.383C43.0891 433.199 42.9296 434.008 42.6184 434.762C42.3071 435.516 41.8502 436.202 41.2737 436.779C40.6973 437.357 40.0128 437.815 39.2591 438.127C38.5054 438.44 37.6975 438.601 36.8816 438.601V438.601Z" fill="#8B8F90"/>
<path d="M36.8809 402.364C35.6507 402.366 34.4474 402.003 33.4235 401.321C32.3995 400.639 31.6008 399.669 31.1285 398.533C30.6561 397.397 30.5315 396.146 30.7701 394.939C31.0087 393.732 31.5999 392.623 32.469 391.752C33.338 390.882 34.446 390.288 35.6523 390.047C36.8587 389.806 38.1093 389.929 39.2461 390.399C40.3828 390.87 41.3546 391.667 42.0383 392.689C42.7219 393.712 43.0869 394.915 43.0869 396.145C43.0883 396.961 42.9289 397.77 42.6176 398.524C42.3064 399.278 41.8494 399.964 41.273 400.541C40.6966 401.119 40.012 401.577 39.2584 401.89C38.5047 402.203 37.6968 402.363 36.8809 402.364V402.364Z" fill="#8B8F90"/>
<path d="M36.8799 366.125C35.6497 366.128 34.4465 365.765 33.4226 365.083C32.3987 364.401 31.5999 363.431 31.1276 362.295C30.6553 361.159 30.5306 359.908 30.7692 358.701C31.0078 357.494 31.599 356.385 32.4681 355.514C33.3372 354.643 34.445 354.05 35.6513 353.809C36.8577 353.568 38.1085 353.691 39.2453 354.161C40.382 354.632 41.3537 355.428 42.0374 356.451C42.7211 357.474 43.0859 358.677 43.0859 359.907C43.0874 360.723 42.928 361.532 42.6168 362.286C42.3056 363.04 41.8488 363.726 41.2723 364.303C40.6959 364.881 40.0112 365.339 39.2575 365.652C38.5038 365.965 37.6958 366.125 36.8799 366.125V366.125Z" fill="#8B8F90"/>
<path d="M73.1252 438.601C71.8966 438.602 70.6952 438.239 69.6731 437.557C68.6509 436.875 67.854 435.906 67.3828 434.771C66.9117 433.636 66.7875 432.387 67.0261 431.182C67.2647 429.977 67.8555 428.869 68.7235 427.999C69.5915 427.13 70.6977 426.537 71.9025 426.296C73.1072 426.056 74.3563 426.178 75.4918 426.647C76.6273 427.116 77.5981 427.912 78.2816 428.933C78.965 429.954 79.3303 431.155 79.3313 432.383C79.3317 434.031 78.6784 435.611 77.5148 436.777C76.3511 437.942 74.7723 438.599 73.1252 438.601V438.601Z" fill="#8B8F90"/>
<path d="M73.1241 402.363C71.894 402.365 70.6908 402.003 69.6669 401.321C68.6429 400.639 67.8442 399.669 67.3719 398.532C66.8996 397.396 66.7749 396.146 67.0135 394.939C67.2521 393.732 67.8433 392.623 68.7124 391.752C69.5814 390.881 70.6894 390.288 71.8957 390.047C73.1021 389.806 74.3528 389.929 75.4895 390.399C76.6263 390.869 77.598 391.666 78.2817 392.689C78.9654 393.712 79.3303 394.915 79.3303 396.145C79.3307 397.792 78.6773 399.373 77.5137 400.538C76.35 401.704 74.7713 402.361 73.1241 402.363V402.363Z" fill="#8B8F90"/>
<path d="M750.085 636.405L750.085 630.278L738.477 630.278L738.477 636.405L750.085 636.405Z" fill="#8B8F90"/>
<path d="M750.085 618.344L750.085 612.216L738.477 612.216L738.477 618.344L750.085 618.344Z" fill="#8B8F90"/>
<path d="M750.085 600.284L750.085 594.157L738.477 594.157L738.477 600.284L750.085 600.284Z" fill="#8B8F90"/>
<path d="M750.085 581.904L750.085 575.776L738.477 575.776L738.477 581.904L750.085 581.904Z" fill="#8B8F90"/>
<path d="M750.085 563.845L750.085 557.717L738.477 557.717L738.477 563.845L750.085 563.845Z" fill="#8B8F90"/>
<path d="M750.085 546.107L750.085 539.979L738.477 539.979L738.477 546.107L750.085 546.107Z" fill="#8B8F90"/>
<path d="M932.031 700.924L932.031 707.098C932.033 708.994 932.787 710.811 934.127 712.151C935.468 713.491 937.285 714.244 939.18 714.245L969.204 714.245C971.099 714.241 972.915 713.487 974.256 712.148C975.596 710.809 976.353 708.993 976.359 707.098L976.359 700.924L932.031 700.924Z" fill="#8B8F90"/>
<path d="M976.897 474.329L976.897 468.417C976.895 466.522 976.14 464.705 974.8 463.365C973.459 462.025 971.642 461.272 969.747 461.271L939.723 461.271C937.828 461.275 936.012 462.029 934.671 463.368C933.331 464.707 932.575 466.522 932.568 468.417L932.568 474.329L976.897 474.329Z" fill="#8B8F90"/>
<path d="M828.243 724.977C827.777 724.977 827.399 724.417 827.399 723.749L827.399 716.583C827.399 715.896 827.777 715.347 828.243 715.347L844.674 715.347C845.144 715.347 845.518 715.896 845.518 716.583L845.518 723.749C845.518 724.417 845.144 724.977 844.674 724.977L828.243 724.977Z" fill="#B9BBBC"/>
<path d="M828.243 749.615C827.777 749.615 827.399 749.065 827.399 748.378L827.399 741.202C827.399 740.535 827.777 739.985 828.243 739.985L844.674 739.985C845.144 739.985 845.518 740.535 845.518 741.202L845.518 748.378C845.518 749.065 845.144 749.615 844.674 749.615L828.243 749.615Z" fill="#B9BBBC"/>
<path d="M872.017 724.977C871.566 724.977 871.183 724.417 871.183 723.749L871.183 716.583C871.183 715.896 871.566 715.347 872.017 715.347L888.457 715.347C888.928 715.347 889.301 715.896 889.301 716.583L889.301 723.749C889.301 724.417 888.928 724.977 888.457 724.977L872.017 724.977Z" fill="#B9BBBC"/>
<path d="M872.017 749.615C871.566 749.615 871.183 749.065 871.183 748.378L871.183 741.202C871.183 740.535 871.566 739.985 872.017 739.985L888.457 739.985C888.928 739.985 889.301 740.535 889.301 741.202L889.301 748.378C889.301 749.065 888.928 749.615 888.457 749.615L872.017 749.615Z" fill="#B9BBBC"/>
<path d="M841.287 753.391L875.408 753.391C876.434 753.391 877.418 752.983 878.144 752.257C878.869 751.532 879.277 750.547 879.277 749.521L879.277 715.396C879.267 714.378 878.854 713.405 878.129 712.689C877.404 711.974 876.426 711.574 875.408 711.576L841.287 711.576C840.269 711.574 839.291 711.974 838.566 712.689C837.841 713.405 837.428 714.378 837.418 715.396L837.418 749.521C837.418 750.547 837.826 751.531 838.551 752.257C839.277 752.983 840.261 753.391 841.287 753.391ZM858.322 718.663C861.056 718.663 863.727 719.473 866 720.992C868.273 722.511 870.044 724.669 871.09 727.195C872.136 729.72 872.409 732.499 871.876 735.18C871.343 737.861 870.027 740.324 868.094 742.257C866.161 744.19 863.699 745.506 861.018 746.039C858.338 746.572 855.559 746.299 853.034 745.253C850.509 744.207 848.351 742.435 846.832 740.162C845.314 737.889 844.503 735.217 844.503 732.484C844.512 728.821 845.971 725.311 848.561 722.721C851.15 720.131 854.66 718.672 858.322 718.662L858.322 718.663Z" fill="#8B8F90"/>
<path d="M220.721 213.78C221.187 213.78 221.565 214.339 221.565 215.007L221.565 222.173C221.565 222.86 221.187 223.41 220.721 223.41L204.291 223.41C203.82 223.41 203.447 222.86 203.447 222.173L203.447 215.007C203.447 214.339 203.82 213.78 204.291 213.78L220.721 213.78Z" fill="#B9BBBC"/>
<path d="M220.721 189.141C221.187 189.141 221.565 189.691 221.565 190.378L221.565 197.554C221.565 198.222 221.187 198.771 220.721 198.771L204.291 198.771C203.82 198.771 203.447 198.222 203.447 197.554L203.447 190.378C203.447 189.691 203.82 189.141 204.291 189.141L220.721 189.141Z" fill="#B9BBBC"/>
<path d="M176.947 213.78C177.398 213.78 177.781 214.339 177.781 215.007L177.781 222.173C177.781 222.86 177.398 223.41 176.947 223.41L160.507 223.41C160.036 223.41 159.663 222.86 159.663 222.173L159.663 215.007C159.663 214.339 160.036 213.78 160.507 213.78L176.947 213.78Z" fill="#B9BBBC"/>
<path d="M176.947 189.141C177.398 189.141 177.781 189.691 177.781 190.378L177.781 197.554C177.781 198.222 177.398 198.771 176.947 198.771L160.507 198.771C160.036 198.771 159.663 198.222 159.663 197.554L159.663 190.378C159.663 189.691 160.036 189.141 160.507 189.141L176.947 189.141Z" fill="#B9BBBC"/>
<path d="M173.537 227.184L207.659 227.184C208.677 227.187 209.655 226.787 210.38 226.071C211.104 225.356 211.517 224.383 211.528 223.365L211.528 189.239C211.528 188.213 211.12 187.229 210.394 186.503C209.669 185.778 208.685 185.37 207.659 185.369L173.537 185.369C173.032 185.371 172.532 185.472 172.066 185.667C171.6 185.863 171.177 186.149 170.822 186.509C170.467 186.868 170.186 187.295 169.997 187.764C169.808 188.232 169.713 188.734 169.718 189.239L169.718 223.365C169.718 223.866 169.817 224.363 170.009 224.827C170.2 225.29 170.482 225.711 170.836 226.066C171.191 226.421 171.612 226.702 172.076 226.894C172.539 227.086 173.036 227.185 173.537 227.184V227.184ZM190.623 192.456C193.356 192.456 196.028 193.266 198.301 194.785C200.573 196.304 202.345 198.462 203.391 200.988C204.436 203.513 204.71 206.292 204.177 208.973C203.644 211.654 202.328 214.117 200.395 216.05C198.462 217.983 196 219.299 193.319 219.832C190.638 220.366 187.86 220.092 185.335 219.046C182.81 218 180.651 216.228 179.133 213.955C177.614 211.683 176.804 209.01 176.804 206.277C176.803 204.462 177.16 202.664 177.854 200.986C178.548 199.309 179.566 197.785 180.849 196.501C182.133 195.218 183.657 194.2 185.334 193.506C187.011 192.811 188.808 192.455 190.624 192.456L190.623 192.456Z" fill="#8B8F90"/>
<path d="M900.073 228.892L900.073 238.139C900.076 240.034 900.831 241.851 902.171 243.19C903.512 244.53 905.329 245.283 907.224 245.285L937.247 245.285C939.142 245.28 940.957 244.526 942.298 243.187C943.638 241.848 944.395 240.034 944.402 238.139L944.402 228.892L900.073 228.892Z" fill="#8B8F90"/>
<path d="M944.939 41.3894L944.939 32.1524C944.938 30.2567 944.184 28.4392 942.843 27.0992C941.503 25.7592 939.685 25.0064 937.789 25.0063L907.766 25.0063C905.871 25.0095 904.054 25.7631 902.713 27.1023C901.372 28.4415 900.616 30.2574 900.61 32.1526L900.61 41.3896L944.939 41.3894Z" fill="#8B8F90"/>
<path d="M799.545 229.692L799.545 238.939C799.549 240.834 800.303 242.651 801.644 243.99C802.984 245.33 804.801 246.083 806.696 246.085L836.719 246.085C838.614 246.08 840.429 245.326 841.77 243.987C843.11 242.648 843.867 240.834 843.874 238.939L843.874 229.692L799.545 229.692Z" fill="#8B8F90"/>
<path d="M844.411 41.3894L844.411 32.1524C844.41 30.2567 843.656 28.4391 842.315 27.0991C840.975 25.7591 839.157 25.0064 837.261 25.0063L807.238 25.0063C805.343 25.0095 803.526 25.7631 802.185 27.1023C800.844 28.4415 800.088 30.2574 800.082 32.1526L800.082 41.3896L844.411 41.3894Z" fill="#8B8F90"/>
<path d="M42.0911 688.262L42.0911 552.919L12.1749 552.919L12.1749 688.262L42.0911 688.262Z" fill="#8A7867"/>
<path d="M12.2931 688.154L12.2931 691.633C12.2931 693.121 14.4569 694.328 17.1318 694.328L37.4142 694.328C40.069 694.328 42.2529 693.121 42.2529 691.633L42.2529 688.154L12.2931 688.154Z" fill="#8B8F90"/>
<path d="M42.2231 553.079L42.2231 549.599C42.2231 548.112 40.0593 546.904 37.3844 546.904L17.1022 546.904C14.4473 546.904 12.2634 548.112 12.2634 549.599L12.2634 553.079L42.2231 553.079Z" fill="#8B8F90"/>
<path d="M89.866 54.2713L89.866 17.9551L53.5546 17.9551L53.5546 54.2713L89.866 54.2713Z" fill="#017481"/>
<path d="M89.866 54.2713L89.866 17.9551L53.5546 17.9551L53.5546 54.2713L89.866 54.2713Z" fill="#E5540F"/>
<path d="M89.866 54.2713L89.866 17.9551L53.5546 17.9551L53.5546 54.2713L89.866 54.2713Z" fill="black"/>
<path d="M62.6273 45.2279L80.7935 45.2279L80.7935 45.1977L80.7935 27.0846L80.7935 27.0293L62.6273 27.0293L62.6273 27.0846L62.6273 45.2279Z" fill="#8A7867"/>
<path d="M126.178 54.2713L126.178 17.9551L89.8666 17.9551L89.8666 54.2713L126.178 54.2713Z" fill="#017481"/>
<path d="M126.178 54.2713L126.178 17.9551L89.8666 17.9551L89.8666 54.2713L126.178 54.2713Z" fill="#E5540F"/>
<path d="M126.178 54.2713L126.178 17.9551L89.8666 17.9551L89.8666 54.2713L126.178 54.2713Z" fill="black"/>
<path d="M98.9397 45.2279L117.106 45.2279L117.106 45.1977L117.106 27.0846L117.106 27.0293L98.9397 27.0293L98.9397 27.0846L98.9397 45.2279Z" fill="#8A7867"/>
<path d="M162.536 54.2713L162.536 17.9551L126.225 17.9551L126.225 54.2713L162.536 54.2713Z" fill="#017481"/>
<path d="M162.536 54.2713L162.536 17.9551L126.225 17.9551L126.225 54.2713L162.536 54.2713Z" fill="#E5540F"/>
<path d="M162.536 54.2713L162.536 17.9551L126.225 17.9551L126.225 54.2713L162.536 54.2713Z" fill="black"/>
<path d="M135.297 45.2279L153.463 45.2279L153.463 45.1977L153.463 27.0846L153.463 27.0293L135.297 27.0293L135.297 27.0846L135.297 45.2279Z" fill="#8A7867"/>
<path d="M198.894 54.2713L198.894 17.9551L162.583 17.9551L162.583 54.2713L198.894 54.2713Z" fill="#017481"/>
<path d="M198.894 54.2713L198.894 17.9551L162.583 17.9551L162.583 54.2713L198.894 54.2713Z" fill="#E5540F"/>
<path d="M198.894 54.2713L198.894 17.9551L162.583 17.9551L162.583 54.2713L198.894 54.2713Z" fill="black"/>
<path d="M171.654 45.2279L189.821 45.2279L189.821 45.1977L189.821 27.0846L189.821 27.0293L171.654 27.0293L171.654 27.0846L171.654 45.2279Z" fill="#8A7867"/>
<path d="M235.252 54.2713L235.252 17.9551L198.941 17.9551L198.941 54.2713L235.252 54.2713Z" fill="#017481"/>
<path d="M235.252 54.2713L235.252 17.9551L198.941 17.9551L198.941 54.2713L235.252 54.2713Z" fill="#E5540F"/>
<path d="M235.252 54.2713L235.252 17.9551L198.941 17.9551L198.941 54.2713L235.252 54.2713Z" fill="black"/>
<path d="M208.012 45.2279L226.178 45.2279L226.178 45.1977L226.178 27.0846L226.178 27.0293L208.012 27.0293L208.012 27.0846L208.012 45.2279Z" fill="#8A7867"/>
<path d="M271.61 54.2713L271.61 17.9551L235.299 17.9551L235.299 54.2713L271.61 54.2713Z" fill="#017481"/>
<path d="M271.61 54.2713L271.61 17.9551L235.299 17.9551L235.299 54.2713L271.61 54.2713Z" fill="#E5540F"/>
<path d="M271.61 54.2713L271.61 17.9551L235.299 17.9551L235.299 54.2713L271.61 54.2713Z" fill="black"/>
<path d="M244.369 45.2279L262.54 45.2279L262.54 45.1977L262.54 27.0846L262.54 27.0293L244.369 27.0293L244.369 27.0846L244.369 45.2279Z" fill="#8A7867"/>
<path d="M343.13 54.2713L343.13 17.9551L306.819 17.9551L306.819 54.2713L343.13 54.2713Z" fill="#017481"/>
<path d="M343.13 54.2713L343.13 17.9551L306.819 17.9551L306.819 54.2713L343.13 54.2713Z" fill="#E5540F"/>
<path d="M343.13 54.2713L343.13 17.9551L306.819 17.9551L306.819 54.2713L343.13 54.2713Z" fill="black"/>
<path d="M315.893 45.2279L334.059 45.2279L334.059 45.1977L334.059 27.0846L334.059 27.0293L315.893 27.0293L315.893 27.0846L315.893 45.2279Z" fill="#8A7867"/>
<path d="M379.488 54.2713L379.488 17.9551L343.177 17.9551L343.177 54.2713L379.488 54.2713Z" fill="#017481"/>
<path d="M379.488 54.2713L379.488 17.9551L343.177 17.9551L343.177 54.2713L379.488 54.2713Z" fill="#E5540F"/>
<path d="M379.488 54.2713L379.488 17.9551L343.177 17.9551L343.177 54.2713L379.488 54.2713Z" fill="black"/>
<path d="M352.25 45.2279L370.416 45.2279L370.416 45.1977L370.416 27.0846L370.416 27.0293L352.25 27.0293L352.25 27.0846L352.25 45.2279Z" fill="#8A7867"/>
<path d="M415.846 54.2713L415.846 17.9551L379.535 17.9551L379.535 54.2713L415.846 54.2713Z" fill="#017481"/>
<path d="M415.846 54.2713L415.846 17.9551L379.535 17.9551L379.535 54.2713L415.846 54.2713Z" fill="#E5540F"/>
<path d="M415.846 54.2713L415.846 17.9551L379.535 17.9551L379.535 54.2713L415.846 54.2713Z" fill="black"/>
<path d="M388.607 45.2279L406.773 45.2279L406.773 45.1977L406.773 27.0846L406.773 27.0293L388.607 27.0293L388.607 27.0846L388.607 45.2279Z" fill="#8A7867"/>
<path d="M452.204 54.2713L452.204 17.9551L415.893 17.9551L415.893 54.2713L452.204 54.2713Z" fill="#017481"/>
<path d="M452.204 54.2713L452.204 17.9551L415.893 17.9551L415.893 54.2713L452.204 54.2713Z" fill="#E5540F"/>
<path d="M452.204 54.2713L452.204 17.9551L415.893 17.9551L415.893 54.2713L452.204 54.2713Z" fill="black"/>
<path d="M424.965 45.2279L443.131 45.2279L443.131 45.1977L443.131 27.0846L443.131 27.0293L424.965 27.0293L424.965 27.0846L424.965 45.2279Z" fill="#8A7867"/>
<path d="M488.562 54.2713L488.562 17.9551L452.251 17.9551L452.251 54.2713L488.562 54.2713Z" fill="#017481"/>
<path d="M488.562 54.2713L488.562 17.9551L452.251 17.9551L452.251 54.2713L488.562 54.2713Z" fill="#E5540F"/>
<path d="M488.562 54.2713L488.562 17.9551L452.251 17.9551L452.251 54.2713L488.562 54.2713Z" fill="black"/>
<path d="M461.322 45.2279L479.488 45.2279L479.488 45.1977L479.488 27.0846L479.488 27.0293L461.322 27.0293L461.322 27.0846L461.322 45.2279Z" fill="#8A7867"/>
<path d="M524.921 54.2713L524.921 17.9551L488.609 17.9551L488.609 54.2713L524.921 54.2713Z" fill="#017481"/>
<path d="M524.921 54.2713L524.921 17.9551L488.609 17.9551L488.609 54.2713L524.921 54.2713Z" fill="#E5540F"/>
<path d="M524.921 54.2713L524.921 17.9551L488.609 17.9551L488.609 54.2713L524.921 54.2713Z" fill="black"/>
<path d="M497.68 45.2279L515.846 45.2279L515.846 45.1977L515.846 27.0846L515.846 27.0293L497.68 27.0293L497.68 27.0846L497.68 45.2279Z" fill="#8A7867"/>
<path d="M561.279 54.2713L561.279 17.9551L524.967 17.9551L524.967 54.2713L561.279 54.2713Z" fill="#017481"/>
<path d="M561.279 54.2713L561.279 17.9551L524.967 17.9551L524.967 54.2713L561.279 54.2713Z" fill="#E5540F"/>
<path d="M561.279 54.2713L561.279 17.9551L524.967 17.9551L524.967 54.2713L561.279 54.2713Z" fill="black"/>
<path d="M534.042 45.2279L552.208 45.2279L552.208 45.1977L552.208 27.0846L552.208 27.0293L534.042 27.0293L534.042 27.0846L534.042 45.2279Z" fill="#8A7867"/>
<path d="M597.637 54.2713L597.637 17.9551L561.325 17.9551L561.325 54.2713L597.637 54.2713Z" fill="#017481"/>
<path d="M597.637 54.2713L597.637 17.9551L561.325 17.9551L561.325 54.2713L597.637 54.2713Z" fill="#E5540F"/>
<path d="M597.637 54.2713L597.637 17.9551L561.325 17.9551L561.325 54.2713L597.637 54.2713Z" fill="black"/>
<path d="M570.399 45.2279L588.565 45.2279L588.565 45.1977L588.565 27.0846L588.565 27.0293L570.399 27.0293L570.399 27.0846L570.399 45.2279Z" fill="#8A7867"/>
<path d="M154.366 611.59L154.366 574.777L115.741 574.777L115.741 611.59L154.366 611.59Z" fill="#80B9C0"/>
<path d="M135.059 577.251C138.209 577.252 141.288 578.187 143.907 579.938C146.525 581.689 148.566 584.177 149.771 587.088C150.975 589.999 151.29 593.202 150.675 596.292C150.059 599.381 148.542 602.219 146.314 604.446C144.086 606.673 141.248 608.189 138.158 608.803C135.068 609.417 131.866 609.101 128.956 607.894C126.047 606.688 123.56 604.646 121.81 602.026C120.061 599.406 119.128 596.326 119.129 593.176C119.135 588.953 120.815 584.905 123.802 581.919C126.788 578.934 130.837 577.255 135.059 577.251V577.251ZM135.059 607.742C137.938 607.741 140.753 606.886 143.147 605.286C145.54 603.685 147.406 601.411 148.507 598.75C149.609 596.09 149.897 593.162 149.335 590.338C148.773 587.514 147.386 584.92 145.35 582.883C143.314 580.847 140.72 579.46 137.896 578.898C135.073 578.336 132.145 578.624 129.485 579.726C126.825 580.828 124.551 582.693 122.951 585.087C121.351 587.481 120.496 590.296 120.495 593.176C120.5 597.038 122.036 600.74 124.766 603.47C127.496 606.201 131.198 607.737 135.059 607.742V607.742Z" fill="#8B8F90"/>
<path d="M135.055 589.34C135.815 589.34 136.558 589.566 137.19 589.989C137.821 590.412 138.314 591.013 138.604 591.716C138.894 592.418 138.97 593.191 138.821 593.937C138.672 594.682 138.305 595.367 137.767 595.904C137.229 596.441 136.544 596.807 135.798 596.955C135.052 597.102 134.28 597.025 133.578 596.734C132.875 596.442 132.276 595.949 131.854 595.316C131.432 594.684 131.207 593.941 131.208 593.18C131.21 592.161 131.616 591.184 132.337 590.464C133.058 589.744 134.036 589.34 135.055 589.34V589.34Z" fill="#8B8F90"/>
<path d="M923.047 368.988L923.047 374.009C923.047 374.229 922.96 374.44 922.804 374.595C922.649 374.751 922.438 374.838 922.218 374.838L903.545 374.838C903.324 374.838 903.111 374.75 902.955 374.594C902.799 374.437 902.711 374.225 902.711 374.004L902.711 368.993C902.711 368.772 902.799 368.56 902.955 368.403C903.112 368.246 903.324 368.158 903.545 368.158L922.218 368.158C922.438 368.158 922.649 368.246 922.804 368.401C922.96 368.557 923.047 368.768 923.047 368.988V368.988Z" fill="#C2C5C6"/>
<path d="M923.047 359.383L923.047 364.409C923.047 364.63 922.959 364.843 922.803 364.999C922.646 365.156 922.434 365.243 922.213 365.243L903.555 365.243C903.331 365.243 903.116 365.154 902.958 364.996C902.8 364.838 902.711 364.623 902.711 364.399L902.711 359.383C902.711 359.165 902.798 358.955 902.952 358.8C903.107 358.645 903.317 358.559 903.535 358.559L922.222 358.559C922.331 358.559 922.438 358.58 922.538 358.621C922.638 358.663 922.729 358.724 922.806 358.8C922.882 358.877 922.943 358.968 922.984 359.068C923.026 359.168 923.047 359.275 923.047 359.383V359.383Z" fill="#C2C5C6"/>
<path d="M923.047 349.803L923.047 354.824C923.047 355.045 922.959 355.257 922.803 355.414C922.646 355.57 922.434 355.658 922.213 355.658L903.535 355.658C903.427 355.658 903.32 355.637 903.219 355.595C903.119 355.554 903.029 355.493 902.952 355.416C902.875 355.34 902.815 355.249 902.773 355.149C902.732 355.049 902.71 354.941 902.71 354.833L902.71 349.803C902.71 349.584 902.797 349.374 902.952 349.22C903.107 349.065 903.316 348.978 903.535 348.978L922.222 348.978C922.331 348.978 922.438 348.999 922.538 349.041C922.638 349.082 922.729 349.143 922.806 349.22C922.882 349.296 922.943 349.387 922.984 349.487C923.026 349.587 923.047 349.694 923.047 349.803V349.803Z" fill="#C2C5C6"/>
<path d="M923.047 340.203L923.047 345.219C923.047 345.44 922.959 345.652 922.803 345.809C922.646 345.965 922.434 346.053 922.213 346.053L903.545 346.053C903.324 346.053 903.111 345.965 902.955 345.809C902.799 345.652 902.711 345.44 902.711 345.219L902.711 340.203C902.711 339.984 902.798 339.774 902.952 339.62C903.107 339.465 903.317 339.378 903.535 339.378L922.222 339.378C922.441 339.378 922.651 339.465 922.806 339.62C922.96 339.774 923.047 339.984 923.047 340.203V340.203Z" fill="#C2C5C6"/>
<path d="M923.047 335.628L923.047 330.612C923.047 330.151 922.674 329.778 922.213 329.778L903.545 329.778C903.084 329.778 902.711 330.151 902.711 330.612L902.711 335.628C902.711 336.089 903.084 336.463 903.545 336.463L922.213 336.463C922.674 336.463 923.047 336.089 923.047 335.628Z" fill="#C2C5C6"/>
<path d="M995.604 406.995L995.604 299.56L913.38 299.56L913.38 406.995L995.604 406.995Z" fill="#9DA0A1"/>
<path d="M921.611 299.561L913.379 299.561L913.379 299.737L913.379 406.702L913.379 406.993L921.611 406.993L921.611 406.702L921.611 299.561Z" fill="#8B8F90"/>
<path d="M938.073 299.561L929.842 299.561L929.842 299.737L929.842 406.702L929.842 406.993L938.073 406.993L938.073 406.702L938.073 299.561Z" fill="#8B8F90"/>
<path d="M954.536 299.561L946.305 299.561L946.305 299.737L946.305 406.702L946.305 406.993L954.536 406.993L954.536 406.702L954.536 299.561Z" fill="#8B8F90"/>
<path d="M970.998 299.561L962.767 299.561L962.767 299.737L962.767 406.702L962.767 406.993L970.998 406.993L970.998 406.702L970.998 299.561Z" fill="#8B8F90"/>
<path d="M987.461 299.561L979.23 299.561L979.23 299.737L979.23 406.702L979.23 406.993L987.461 406.993L987.461 406.702L987.461 299.561Z" fill="#8B8F90"/>
<path d="M735.473 56.1077L735.473 35.7893C735.473 35.2874 734.553 34.8818 733.4 34.8818L720.858 34.8818C719.705 34.8818 718.771 35.2874 718.771 35.7893L718.771 56.1077C718.771 56.6095 719.705 57.0047 720.858 57.0047L733.4 57.0047C734.553 57.0047 735.473 56.6095 735.473 56.1077Z" fill="#C2C5C6"/>
<path d="M673.933 56.1077L673.933 35.7893C673.933 35.2874 673.013 34.8818 671.859 34.8818L659.318 34.8818C658.164 34.8818 657.231 35.2874 657.231 35.7893L657.231 56.1077C657.231 56.6095 658.164 57.0047 659.318 57.0047L671.859 57.0047C673.013 57.0047 673.933 56.6095 673.933 56.1077Z" fill="#C2C5C6"/>
<path d="M754.912 50.4201L754.912 14.6997L638.07 14.6997L638.07 50.4201L754.912 50.4201Z" fill="#9DA0A1"/>
<path d="M638.069 41.4634L638.069 50.4194L638.26 50.4194L754.593 50.4194L754.915 50.4194L754.915 41.4634L754.593 41.4634L638.069 41.4634Z" fill="#8B8F90"/>
<path d="M638.069 23.5561L638.069 32.5122L638.26 32.5122L754.593 32.5122L754.915 32.5122L754.915 23.5562L754.593 23.5562L638.069 23.5561Z" fill="#8B8F90"/>
<path d="M157.867 276.74L157.867 239.68L137.904 239.68L137.904 276.74L157.867 276.74Z" fill="#C2B9AF"/>
<path d="M186.359 276.74L186.359 239.68L166.391 239.68L166.391 276.74L186.359 276.74Z" fill="#C2B9AF"/>
<path d="M214.847 276.74L214.847 239.68L194.883 239.68L194.883 276.74L214.847 276.74Z" fill="#C2B9AF"/>
<path d="M243.334 276.74L243.334 239.68L223.371 239.68L223.371 276.74L243.334 276.74Z" fill="#C2B9AF"/>
<path d="M271.827 276.74L271.827 239.68L251.859 239.68L251.859 276.74L271.827 276.74Z" fill="#C2B9AF"/>
<path d="M300.315 276.74L300.315 239.68L280.351 239.68L280.351 276.74L300.315 276.74Z" fill="#C2B9AF"/>
<path d="M328.802 276.74L328.802 239.68L308.839 239.68L308.839 276.74L328.802 276.74Z" fill="#C2B9AF"/>
<path d="M357.295 276.74L357.295 239.68L337.326 239.68L337.326 276.74L357.295 276.74Z" fill="#C2B9AF"/>
<path d="M385.782 276.74L385.782 239.68L365.819 239.68L365.819 276.74L385.782 276.74Z" fill="#C2B9AF"/>
<path d="M414.275 276.74L414.275 239.68L394.306 239.68L394.306 276.74L414.275 276.74Z" fill="#C2B9AF"/>
<path d="M442.763 276.74L442.763 239.68L422.794 239.68L422.794 276.74L442.763 276.74Z" fill="#C2B9AF"/>
<path d="M471.25 276.74L471.25 239.68L451.287 239.68L451.287 276.74L471.25 276.74Z" fill="#C2B9AF"/>
<path d="M499.742 276.74L499.742 239.68L479.774 239.68L479.774 276.74L499.742 276.74Z" fill="#C2B9AF"/>
<path d="M528.23 276.74L528.23 239.68L508.267 239.68L508.267 276.74L528.23 276.74Z" fill="#C2B9AF"/>
<path d="M556.718 276.74L556.718 239.68L536.755 239.68L536.755 276.74L556.718 276.74Z" fill="#C2B9AF"/>
<path d="M585.211 276.74L585.211 239.68L565.242 239.68L565.242 276.74L585.211 276.74Z" fill="#C2B9AF"/>
<path d="M613.698 276.74L613.698 239.68L593.735 239.68L593.735 276.74L613.698 276.74Z" fill="#C2B9AF"/>
<path d="M642.186 276.74L642.186 239.68L622.222 239.68L622.222 276.74L642.186 276.74Z" fill="#C2B9AF"/>
<path d="M670.678 276.74L670.678 239.68L650.71 239.68L650.71 276.74L670.678 276.74Z" fill="#C2B9AF"/>
<path d="M695.799 306.184L695.799 286.213L658.738 286.213L658.738 306.184L695.799 306.184Z" fill="#C2B9AF"/>
<path d="M695.799 334.675L695.799 314.709L658.738 314.709L658.738 334.675L695.799 334.675Z" fill="#C2B9AF"/>
<path d="M695.799 363.166L695.799 343.201L658.738 343.201L658.738 363.166L695.799 363.166Z" fill="#C2B9AF"/>
<path d="M695.799 391.66L695.799 371.692L658.738 371.692L658.738 391.66L695.799 391.66Z" fill="#C2B9AF"/>
<path d="M695.799 420.154L695.799 400.185L658.738 400.185L658.738 420.154L695.799 420.154Z" fill="#C2B9AF"/>
<path d="M695.799 448.648L695.799 428.679L658.738 428.679L658.738 448.648L695.799 448.648Z" fill="#C2B9AF"/>
<path d="M695.799 477.142L695.799 457.173L658.738 457.173L658.738 477.142L695.799 477.142Z" fill="#C2B9AF"/>
<path d="M695.799 505.633L695.799 485.667L658.738 485.667L658.738 505.633L695.799 505.633Z" fill="#C2B9AF"/>
<path d="M695.799 534.126L695.799 514.158L658.738 514.158L658.738 534.126L695.799 534.126Z" fill="#C2B9AF"/>
<path d="M695.799 562.62L695.799 542.652L658.738 542.652L658.738 562.62L695.799 562.62Z" fill="#C2B9AF"/>
<path d="M670.678 609.632L670.678 572.569L650.71 572.569L650.71 609.632L670.678 609.632Z" fill="#C2B9AF"/>
<path d="M642.186 609.632L642.186 572.569L622.222 572.569L622.222 609.632L642.186 609.632Z" fill="#C2B9AF"/>
<path d="M613.698 609.632L613.698 572.569L593.735 572.569L593.735 609.632L613.698 609.632Z" fill="#C2B9AF"/>
<path d="M585.211 609.632L585.211 572.569L565.242 572.569L565.242 609.632L585.211 609.632Z" fill="#C2B9AF"/>
<path d="M556.718 609.632L556.718 572.569L536.755 572.569L536.755 609.632L556.718 609.632Z" fill="#C2B9AF"/>
<path d="M528.23 609.632L528.23 572.569L508.267 572.569L508.267 609.632L528.23 609.632Z" fill="#C2B9AF"/>
<path d="M499.742 609.632L499.742 572.569L479.774 572.569L479.774 609.632L499.742 609.632Z" fill="#C2B9AF"/>
<path d="M471.25 609.632L471.25 572.569L451.287 572.569L451.287 609.632L471.25 609.632Z" fill="#C2B9AF"/>
<path d="M442.763 609.632L442.763 572.569L422.794 572.569L422.794 609.632L442.763 609.632Z" fill="#C2B9AF"/>
<path d="M414.275 609.632L414.275 572.569L394.306 572.569L394.306 609.632L414.275 609.632Z" fill="#C2B9AF"/>
<path d="M385.782 609.632L385.782 572.569L365.819 572.569L365.819 609.632L385.782 609.632Z" fill="#C2B9AF"/>
<path d="M357.295 609.632L357.295 572.569L337.326 572.569L337.326 609.632L357.295 609.632Z" fill="#C2B9AF"/>
<path d="M328.802 609.632L328.802 572.569L308.839 572.569L308.839 609.632L328.802 609.632Z" fill="#C2B9AF"/>
<path d="M300.315 609.632L300.315 572.569L280.351 572.569L280.351 609.632L300.315 609.632Z" fill="#C2B9AF"/>
<path d="M271.827 609.632L271.827 572.569L251.859 572.569L251.859 609.632L271.827 609.632Z" fill="#C2B9AF"/>
<path d="M243.334 609.632L243.334 572.569L223.371 572.569L223.371 609.632L243.334 609.632Z" fill="#C2B9AF"/>
<path d="M214.847 609.632L214.847 572.569L194.883 572.569L194.883 609.632L214.847 609.632Z" fill="#C2B9AF"/>
<path d="M186.359 609.632L186.359 572.569L166.391 572.569L166.391 609.632L186.359 609.632Z" fill="#C2B9AF"/>
<path d="M149.323 562.62L149.323 542.652L112.262 542.652L112.262 562.62L149.323 562.62Z" fill="#C2B9AF"/>
<path d="M149.323 534.126L149.323 514.158L112.262 514.158L112.262 534.126L149.323 534.126Z" fill="#C2B9AF"/>
<path d="M149.323 505.633L149.323 485.667L112.262 485.667L112.262 505.633L149.323 505.633Z" fill="#C2B9AF"/>
<path d="M149.323 477.142L149.323 457.173L112.262 457.173L112.262 477.142L149.323 477.142Z" fill="#C2B9AF"/>
<path d="M149.323 448.647L149.323 428.679L112.262 428.679L112.262 448.647L149.323 448.647Z" fill="#C2B9AF"/>
<path d="M149.323 420.154L149.323 400.185L112.262 400.185L112.262 420.154L149.323 420.154Z" fill="#C2B9AF"/>
<path d="M149.323 391.66L149.323 371.692L112.262 371.692L112.262 391.66L149.323 391.66Z" fill="#C2B9AF"/>
<path d="M149.323 363.166L149.323 343.201L112.262 343.201L112.262 363.166L149.323 363.166Z" fill="#C2B9AF"/>
<path d="M149.323 334.675L149.323 314.709L112.262 314.709L112.262 334.675L149.323 334.675Z" fill="#C2B9AF"/>
<path d="M149.323 306.184L149.323 286.213L112.262 286.213L112.262 306.184L149.323 306.184Z" fill="#C2B9AF"/>
<path d="M165.513 560.75L165.513 601.875L691.024 601.875L691.024 246.164L117.489 246.164L117.489 560.75L165.513 560.75ZM335.442 558.218C334.217 559.442 332.656 560.276 330.956 560.614C329.257 560.951 327.496 560.777 325.896 560.114C324.296 559.45 322.928 558.327 321.966 556.886C321.004 555.445 320.491 553.751 320.492 552.019C320.493 550.286 321.007 548.593 321.97 547.153C322.933 545.712 324.302 544.59 325.903 543.928C327.503 543.266 329.265 543.093 330.963 543.432C332.662 543.771 334.223 544.606 335.447 545.832C336.26 546.645 336.905 547.611 337.345 548.674C337.785 549.736 338.012 550.876 338.011 552.026C338.011 553.176 337.784 554.315 337.343 555.378C336.902 556.44 336.256 557.405 335.442 558.218V558.218ZM492.843 558.218C491.618 559.442 490.057 560.276 488.357 560.614C486.658 560.951 484.897 560.777 483.297 560.114C481.697 559.45 480.329 558.327 479.367 556.886C478.405 555.445 477.892 553.751 477.893 552.019C477.894 550.286 478.408 548.593 479.371 547.153C480.334 545.712 481.703 544.59 483.304 543.928C484.904 543.266 486.665 543.093 488.364 543.432C490.063 543.771 491.624 544.606 492.848 545.832C493.661 546.645 494.306 547.611 494.746 548.674C495.186 549.736 495.412 550.876 495.412 552.026C495.411 553.176 495.184 554.315 494.743 555.377C494.303 556.44 493.657 557.405 492.843 558.218V558.218ZM620.819 297.649C622.552 297.648 624.246 298.161 625.687 299.123C627.128 300.086 628.252 301.454 628.915 303.055C629.579 304.656 629.753 306.418 629.415 308.118C629.077 309.818 628.243 311.379 627.017 312.605C625.792 313.83 624.231 314.665 622.531 315.002C620.832 315.34 619.07 315.166 617.469 314.503C615.868 313.839 614.5 312.715 613.538 311.274C612.576 309.833 612.063 308.138 612.064 306.405C612.065 304.083 612.987 301.856 614.629 300.214C616.271 298.572 618.497 297.65 620.819 297.649V297.649ZM620.819 358.715C622.551 358.714 624.244 359.227 625.685 360.189C627.126 361.151 628.249 362.518 628.912 364.119C629.576 365.719 629.75 367.48 629.413 369.179C629.076 370.878 628.243 372.44 627.019 373.665C625.795 374.891 624.235 375.726 622.536 376.065C620.837 376.404 619.076 376.231 617.475 375.569C615.875 374.907 614.506 373.786 613.543 372.346C612.58 370.906 612.065 369.213 612.064 367.481C612.063 365.157 612.985 362.929 614.627 361.285C616.269 359.642 618.496 358.717 620.819 358.715V358.715ZM620.819 419.786C622.551 419.785 624.245 420.298 625.686 421.26C627.127 422.222 628.25 423.59 628.914 425.191C629.577 426.792 629.751 428.553 629.414 430.253C629.076 431.952 628.242 433.514 627.017 434.739C625.792 435.965 624.231 436.799 622.532 437.137C620.833 437.475 619.071 437.302 617.471 436.639C615.87 435.976 614.502 434.853 613.539 433.412C612.577 431.971 612.063 430.277 612.064 428.544C612.064 426.222 612.986 423.995 614.628 422.352C616.27 420.71 618.497 419.787 620.819 419.786V419.786ZM620.819 480.854C622.551 480.853 624.245 481.367 625.686 482.329C627.127 483.291 628.25 484.659 628.914 486.26C629.577 487.86 629.751 489.622 629.414 491.321C629.076 493.021 628.242 494.582 627.017 495.808C625.792 497.033 624.231 497.868 622.532 498.206C620.833 498.544 619.071 498.371 617.471 497.708C615.87 497.044 614.502 495.921 613.539 494.48C612.577 493.04 612.063 491.346 612.064 489.613C612.064 487.29 612.986 485.063 614.628 483.421C616.27 481.778 618.497 480.855 620.819 480.854V480.854ZM620.819 541.923C622.551 541.922 624.245 542.435 625.686 543.397C627.126 544.36 628.25 545.727 628.913 547.328C629.576 548.929 629.75 550.69 629.413 552.39C629.075 554.089 628.241 555.65 627.016 556.875C625.791 558.101 624.231 558.935 622.532 559.274C620.832 559.612 619.071 559.438 617.471 558.775C615.87 558.112 614.502 556.989 613.54 555.549C612.577 554.108 612.064 552.414 612.064 550.681C612.064 548.359 612.986 546.132 614.628 544.489C616.27 542.847 618.497 541.924 620.819 541.923V541.923ZM518.945 350.406C520.17 349.181 521.73 348.347 523.429 348.009C525.127 347.67 526.888 347.844 528.488 348.506C530.089 349.169 531.457 350.291 532.419 351.731C533.382 353.171 533.896 354.864 533.897 356.596C533.898 358.328 533.385 360.022 532.423 361.463C531.462 362.903 530.095 364.027 528.495 364.69C526.895 365.354 525.135 365.529 523.436 365.192C521.737 364.855 520.176 364.022 518.95 362.799C517.307 361.155 516.383 358.927 516.382 356.603C516.382 354.279 517.303 352.05 518.945 350.406V350.406ZM518.945 507.336C520.17 506.111 521.73 505.277 523.429 504.939C525.127 504.601 526.888 504.774 528.488 505.436C530.089 506.099 531.457 507.221 532.419 508.661C533.382 510.101 533.896 511.794 533.897 513.526C533.898 515.258 533.385 516.952 532.423 518.393C531.462 519.833 530.095 520.957 528.495 521.621C526.895 522.284 525.135 522.459 523.436 522.122C521.737 521.786 520.176 520.953 518.95 519.729C517.307 518.086 516.384 515.857 516.383 513.533C516.382 511.21 517.303 508.98 518.945 507.336V507.336ZM492.843 401.293C491.618 402.517 490.057 403.351 488.357 403.689C486.658 404.026 484.897 403.852 483.297 403.189C481.696 402.525 480.329 401.402 479.367 399.961C478.405 398.52 477.892 396.826 477.893 395.094C477.893 393.361 478.408 391.667 479.371 390.227C480.334 388.787 481.702 387.665 483.303 387.003C484.904 386.34 486.665 386.168 488.364 386.507C490.063 386.846 491.624 387.681 492.848 388.907C493.661 389.72 494.306 390.686 494.746 391.749C495.186 392.811 495.412 393.95 495.412 395.101C495.411 396.251 495.184 397.39 494.743 398.452C494.303 399.515 493.657 400.48 492.843 401.293V401.293ZM475.77 307.225C476.994 305.998 478.555 305.161 480.255 304.822C481.955 304.483 483.717 304.655 485.319 305.318C486.92 305.98 488.29 307.103 489.253 308.544C490.216 309.986 490.731 311.68 490.731 313.414C490.731 315.147 490.216 316.842 489.253 318.283C488.29 319.724 486.92 320.847 485.319 321.51C483.717 322.173 481.955 322.345 480.255 322.006C478.555 321.666 476.994 320.83 475.77 319.603C474.13 317.961 473.209 315.735 473.209 313.414C473.209 311.093 474.13 308.867 475.77 307.225V307.225ZM475.77 464.155C476.994 462.928 478.556 462.092 480.256 461.752C481.956 461.413 483.718 461.586 485.32 462.249C486.922 462.912 488.291 464.035 489.255 465.476C490.218 466.918 490.733 468.612 490.733 470.346C490.733 472.08 490.218 473.775 489.255 475.216C488.291 476.658 486.922 477.781 485.32 478.444C483.718 479.107 481.956 479.279 480.256 478.94C478.556 478.601 476.994 477.765 475.77 476.538C474.13 474.894 473.209 472.668 473.209 470.346C473.209 468.025 474.13 465.798 475.77 464.155L475.77 464.155ZM437.281 345.714C438.506 344.487 440.068 343.651 441.768 343.312C443.468 342.973 445.231 343.146 446.833 343.809C448.435 344.472 449.804 345.595 450.768 347.037C451.731 348.479 452.245 350.174 452.245 351.907C452.245 353.641 451.731 355.336 450.768 356.778C449.804 358.22 448.435 359.343 446.833 360.006C445.231 360.669 443.468 360.842 441.768 360.503C440.068 360.164 438.506 359.328 437.281 358.101C435.641 356.458 434.719 354.23 434.719 351.907C434.719 349.585 435.641 347.357 437.281 345.714V345.714ZM437.281 502.649C438.506 501.422 440.067 500.586 441.767 500.247C443.467 499.907 445.23 500.08 446.831 500.743C448.433 501.406 449.803 502.529 450.766 503.97C451.729 505.412 452.244 507.106 452.244 508.84C452.244 510.574 451.729 512.269 450.766 513.71C449.803 515.151 448.433 516.275 446.831 516.937C445.23 517.6 443.467 517.773 441.767 517.434C440.067 517.094 438.506 516.258 437.281 515.032C435.641 513.388 434.72 511.162 434.72 508.84C434.72 506.519 435.641 504.292 437.281 502.649V502.649ZM361.545 350.406C362.769 349.181 364.33 348.347 366.028 348.009C367.727 347.671 369.488 347.844 371.088 348.507C372.688 349.169 374.056 350.291 375.019 351.731C375.981 353.171 376.495 354.865 376.496 356.597C376.497 358.329 375.984 360.022 375.022 361.463C374.061 362.904 372.694 364.027 371.094 364.691C369.494 365.354 367.734 365.529 366.035 365.192C364.336 364.855 362.775 364.022 361.549 362.799C359.906 361.155 358.982 358.927 358.982 356.603C358.981 354.279 359.903 352.05 361.545 350.406V350.406ZM361.545 507.336C362.769 506.111 364.33 505.277 366.028 504.939C367.727 504.601 369.488 504.774 371.088 505.437C372.688 506.099 374.056 507.222 375.019 508.662C375.981 510.102 376.495 511.795 376.496 513.527C376.497 515.259 375.984 516.952 375.022 518.393C374.061 519.834 372.694 520.957 371.094 521.621C369.494 522.285 367.734 522.459 366.035 522.122C364.336 521.786 362.775 520.953 361.549 519.729C359.906 518.086 358.983 515.857 358.982 513.533C358.981 511.209 359.903 508.98 361.545 507.336V507.336ZM335.442 401.293C334.217 402.517 332.656 403.351 330.956 403.689C329.257 404.026 327.496 403.852 325.896 403.189C324.295 402.525 322.928 401.402 321.966 399.961C321.004 398.52 320.491 396.826 320.492 395.094C320.492 393.361 321.007 391.667 321.97 390.227C322.933 388.787 324.302 387.665 325.902 387.003C327.503 386.34 329.264 386.168 330.963 386.507C332.662 386.846 334.223 387.681 335.447 388.907C336.26 389.72 336.905 390.686 337.345 391.749C337.785 392.811 338.012 393.95 338.011 395.101C338.011 396.251 337.784 397.39 337.343 398.452C336.902 399.515 336.256 400.48 335.442 401.293V401.293ZM318.369 307.225C319.594 305.998 321.154 305.162 322.854 304.822C324.554 304.483 326.316 304.655 327.918 305.318C329.52 305.98 330.889 307.103 331.852 308.545C332.815 309.986 333.33 311.68 333.33 313.414C333.33 315.147 332.815 316.842 331.852 318.283C330.889 319.724 329.52 320.847 327.918 321.51C326.316 322.172 324.554 322.345 322.854 322.005C321.154 321.666 319.594 320.83 318.369 319.603C316.73 317.961 315.808 315.735 315.808 313.414C315.808 311.093 316.73 308.867 318.369 307.225V307.225ZM318.369 464.155C319.594 462.928 321.155 462.092 322.855 461.753C324.555 461.413 326.318 461.586 327.92 462.249C329.521 462.912 330.891 464.035 331.854 465.476C332.817 466.918 333.332 468.612 333.332 470.346C333.332 472.08 332.817 473.775 331.854 475.216C330.891 476.658 329.521 477.781 327.92 478.443C326.318 479.106 324.555 479.279 322.855 478.94C321.155 478.6 319.594 477.764 318.369 476.538C316.729 474.895 315.808 472.668 315.808 470.346C315.808 468.025 316.729 465.798 318.369 464.155L318.369 464.155ZM279.88 345.714C281.105 344.487 282.667 343.651 284.367 343.312C286.067 342.973 287.83 343.146 289.432 343.809C291.034 344.472 292.403 345.595 293.367 347.037C294.33 348.479 294.844 350.174 294.844 351.907C294.844 353.641 294.33 355.336 293.367 356.778C292.403 358.22 291.034 359.343 289.432 360.006C287.83 360.669 286.067 360.842 284.367 360.503C282.667 360.164 281.105 359.328 279.88 358.101C278.24 356.458 277.318 354.23 277.318 351.907C277.318 349.585 278.24 347.357 279.88 345.714V345.714ZM279.88 502.649C281.105 501.422 282.666 500.586 284.366 500.247C286.066 499.907 287.829 500.08 289.43 500.743C291.032 501.406 292.402 502.529 293.365 503.97C294.328 505.412 294.843 507.106 294.843 508.84C294.843 510.574 294.328 512.269 293.365 513.71C292.402 515.151 291.032 516.275 289.43 516.937C287.829 517.6 286.066 517.773 284.366 517.434C282.666 517.094 281.105 516.258 279.88 515.032C278.24 513.388 277.319 511.162 277.319 508.84C277.319 506.519 278.24 504.292 279.88 502.649V502.649ZM193.185 341.35C194.918 341.349 196.613 341.862 198.054 342.824C199.495 343.787 200.619 345.155 201.282 346.756C201.946 348.357 202.12 350.119 201.782 351.819C201.445 353.519 200.61 355.08 199.385 356.306C198.16 357.531 196.598 358.366 194.899 358.704C193.199 359.042 191.437 358.868 189.836 358.204C188.235 357.54 186.867 356.417 185.905 354.975C184.943 353.534 184.43 351.839 184.431 350.106C184.431 348.956 184.657 347.818 185.097 346.756C185.537 345.693 186.182 344.728 186.995 343.915C187.808 343.102 188.773 342.457 189.835 342.017C190.897 341.577 192.036 341.35 193.185 341.35V341.35ZM193.185 402.414C194.917 402.413 196.611 402.926 198.052 403.888C199.492 404.849 200.616 406.217 201.279 407.817C201.943 409.417 202.117 411.178 201.78 412.878C201.443 414.577 200.61 416.138 199.386 417.364C198.162 418.589 196.602 419.425 194.903 419.764C193.205 420.103 191.443 419.93 189.843 419.268C188.242 418.606 186.874 417.484 185.91 416.045C184.947 414.605 184.432 412.912 184.431 411.179C184.431 408.856 185.353 406.628 186.994 404.984C188.636 403.341 190.862 402.416 193.185 402.414V402.414ZM193.185 463.485C194.918 463.484 196.612 463.997 198.052 464.959C199.493 465.921 200.617 467.289 201.28 468.89C201.944 470.49 202.118 472.252 201.78 473.951C201.442 475.651 200.608 477.212 199.383 478.437C198.159 479.663 196.598 480.497 194.899 480.836C193.199 481.174 191.438 481 189.838 480.337C188.237 479.674 186.869 478.551 185.907 477.11C184.944 475.67 184.431 473.976 184.431 472.243C184.431 469.921 185.354 467.694 186.995 466.051C188.637 464.409 190.863 463.486 193.185 463.485V463.485Z" fill="#ADB0B1"/>
<path d="M1070 704.475L1070 470.779L747.902 470.779L747.902 704.475L1070 704.475Z" fill="#9DA0A1"/>
<path d="M781.229 585.779L781.229 588.191C781.123 589.663 781.568 591.122 782.478 592.283C783.389 593.445 784.699 594.226 786.154 594.474L840.275 596.987L840.275 576.984L786.154 579.497C784.699 579.745 783.389 580.525 782.478 581.687C781.568 582.848 781.123 584.307 781.229 585.779V585.779Z" fill="#8B8F90"/>
<path d="M840.275 604.726L840.275 601.962L786.003 599.399C783.389 598.986 781.027 597.603 779.388 595.526C777.749 593.448 776.953 590.83 777.158 588.191L777.158 585.779C776.96 583.137 777.758 580.516 779.395 578.433C781.032 576.349 783.389 574.954 786.003 574.521L840.275 572.008L840.275 569.545L773.691 569.545L773.691 604.726L840.275 604.726Z" fill="#8B8F90"/>
<path d="M794.875 43.0631C794.843 42.6822 794.958 42.3035 795.198 42.0057C795.437 41.7078 795.782 41.5136 796.161 41.4634L997.687 41.4634C998.069 41.5092 998.419 41.7014 998.663 41.9997C998.907 42.298 999.026 42.6791 998.995 43.0631L998.995 228.097C999.027 228.481 998.908 228.862 998.664 229.159C998.42 229.457 998.069 229.648 997.687 229.692L796.161 229.692C795.782 229.644 795.437 229.451 795.197 229.153C794.957 228.856 794.842 228.477 794.875 228.097L794.875 43.0631Z" fill="#ADB0B1"/>
<path d="M995.137 229.692C994.755 229.648 994.405 229.457 994.162 229.159C993.919 228.861 993.801 228.48 993.835 228.097L993.835 46.0863C993.8 45.7029 993.918 45.3214 994.161 45.0233C994.405 44.7252 994.755 44.5343 995.137 44.4912L997.687 44.4912C998.07 44.5344 998.42 44.7252 998.665 45.0231C998.909 45.321 999.027 45.7025 998.995 46.0863L998.995 228.097C999.027 228.48 998.908 228.861 998.664 229.159C998.42 229.457 998.069 229.648 997.687 229.692L995.137 229.692Z" fill="#8B8F90"/>
<path d="M1003.95 241.083L1003.95 30.5815L992.604 30.5815L992.604 241.083L1003.95 241.083Z" fill="#8B8F90"/>
<path d="M968.063 66.3076L881.714 62.2729L881.714 67.2497L967.906 71.2793C969.366 71.5171 970.683 72.2941 971.597 73.4564C972.511 74.6188 972.956 76.082 972.843 77.5566L972.843 79.9419C972.955 81.4169 972.51 82.8802 971.596 84.0433C970.682 85.2063 969.366 85.9844 967.906 86.2242L881.714 90.2537L881.714 95.2256L968.063 91.1911C970.676 90.7609 973.032 89.367 974.667 87.2846C976.302 85.2022 977.098 82.5824 976.897 79.9422L976.897 77.5569C977.099 74.9164 976.304 72.2962 974.668 70.2135C973.033 68.1308 970.676 66.7371 968.063 66.3076V66.3076Z" fill="#8B8F90"/>
<path d="M968.063 181.078L881.714 177.043L881.714 182.015L967.906 186.035C969.366 186.275 970.682 187.053 971.596 188.216C972.51 189.379 972.955 190.842 972.843 192.317L972.843 194.703C972.957 196.179 972.514 197.644 971.599 198.808C970.685 199.973 969.367 200.751 967.906 200.99L881.714 205.019L881.714 209.981L968.063 205.952C970.676 205.522 973.033 204.129 974.668 202.046C976.303 199.963 977.099 197.343 976.897 194.703L976.897 192.317C977.099 189.678 976.304 187.058 974.668 184.977C973.033 182.896 970.676 181.504 968.063 181.078V181.078Z" fill="#8B8F90"/>
<path d="M682.245 14.7008L685.808 11.1425L685.808 4.01582L689.371 0.457519L703.612 0.457519L707.175 4.01582L707.175 11.1425L710.738 14.7008" fill="#017481"/>
<path d="M682.245 14.7008L685.808 11.1425L685.808 4.01582L689.371 0.457519L703.612 0.457519L707.175 4.01582L707.175 11.1425L710.738 14.7008" fill="#E5540F"/>
<path d="M682.245 14.7008L685.808 11.1425L685.808 4.01582L689.371 0.457519L703.612 0.457519L707.175 4.01582L707.175 11.1425L710.738 14.7008" fill="black"/>
<path d="M844.503 732.484C844.503 740.131 850.701 746.33 858.348 746.33C865.994 746.33 872.192 740.131 872.192 732.484C872.192 724.837 865.994 718.637 858.348 718.637C850.701 718.637 844.503 724.837 844.503 732.484Z" fill="white"/>
<path d="M176.804 206.277C176.804 213.91 182.991 220.098 190.624 220.098C198.256 220.098 204.443 213.91 204.443 206.277C204.443 198.643 198.256 192.456 190.624 192.456C182.991 192.456 176.804 198.643 176.804 206.277Z" fill="white"/>
<path d="M159.663 163.975C159.663 170.589 165.024 175.951 171.637 175.951C178.25 175.951 183.611 170.589 183.611 163.975C183.611 157.361 178.25 152 171.637 152C165.024 152 159.663 157.361 159.663 163.975Z" fill="#43464C"/>
<path d="M105.08 217.969C105.08 222.305 108.595 225.821 112.93 225.821C117.266 225.821 120.781 222.305 120.781 217.969C120.781 213.632 117.266 210.117 112.93 210.117C108.595 210.117 105.08 213.632 105.08 217.969Z" fill="#8A7867"/>
</g>
<defs>
<clipPath id="clip0">
<rect width="760" height="1070" fill="white" transform="translate(1070) rotate(90)"/>
</clipPath>
</defs>
</svg>
