<svg xmlns="http://www.w3.org/2000/svg" id="Modulinos" width="41mm" height="95.849" viewBox="0 0 116.22 71.887"><defs><style>.cls-1{fill:#7f8c8d}.cls-2{fill:#ebaa01}.cls-3{fill:#c3bab0}.cls-4,.cls-5{fill:#b7bfbf}.cls-6{fill:#929d9e}.cls-7{fill:#8b7867}.cls-8{fill:#2f2f2f}.cls-5{fill-rule:evenodd}.cls-10{fill:#007481}</style></defs><path d="M103.46.01H12.75C5.71.01 0 5.72 0 12.76v46.38c0 7.04 5.71 12.75 12.75 12.75h90.71c7.05 0 12.76-5.71 12.76-12.75V12.76c0-7.04-5.71-12.75-12.76-12.75M12.75 66.57c-4.38 0-7.93-3.56-7.93-7.94s3.55-7.94 7.93-7.94a7.94 7.94 0 0 1 0 15.88m0-45.36c-4.38 0-7.93-3.55-7.93-7.94a7.93 7.93 0 0 1 7.93-7.93c4.39 0 7.94 3.55 7.94 7.93 0 4.39-3.55 7.94-7.94 7.94M25.71 6.53c-1.64 0-2.98-1.33-2.98-2.98 0-1.64 1.34-2.97 2.98-2.97s2.98 1.33 2.98 2.97c0 1.65-1.34 2.98-2.98 2.98m7.2 0c-1.64 0-2.98-1.33-2.98-2.98 0-1.64 1.34-2.97 2.98-2.97s2.98 1.33 2.98 2.97c0 1.65-1.34 2.98-2.98 2.98m7.2 0c-1.64 0-2.98-1.33-2.98-2.98 0-1.64 1.34-2.97 2.98-2.97s2.98 1.33 2.98 2.97c0 1.65-1.34 2.98-2.98 2.98m7.2 0c-1.64 0-2.98-1.33-2.98-2.98 0-1.64 1.34-2.97 2.98-2.97s2.98 1.33 2.98 2.97c0 1.65-1.34 2.98-2.98 2.98m7.2 0c-1.64 0-2.98-1.33-2.98-2.98 0-1.64 1.34-2.97 2.98-2.97s2.98 1.33 2.98 2.97c0 1.65-1.34 2.98-2.98 2.98m7.2 0c-1.64 0-2.98-1.33-2.98-2.98 0-1.64 1.34-2.97 2.98-2.97s2.98 1.33 2.98 2.97c0 1.65-1.34 2.98-2.98 2.98m7.2 0c-1.64 0-2.98-1.33-2.98-2.98 0-1.64 1.34-2.97 2.98-2.97s2.98 1.33 2.98 2.97c0 1.65-1.34 2.98-2.98 2.98m7.2 0c-1.64 0-2.98-1.33-2.98-2.98 0-1.64 1.34-2.97 2.98-2.97s2.98 1.33 2.98 2.97c0 1.65-1.34 2.98-2.98 2.98m7.2 0c-1.64 0-2.98-1.33-2.98-2.98 0-1.64 1.34-2.97 2.98-2.97s2.98 1.33 2.98 2.97c0 1.65-1.34 2.98-2.98 2.98m7.2 0c-1.64 0-2.98-1.33-2.98-2.98 0-1.64 1.34-2.97 2.98-2.97s2.98 1.33 2.98 2.97c0 1.65-1.34 2.98-2.98 2.98m12.95 60.04c-4.38 0-7.93-3.56-7.93-7.94s3.55-7.94 7.93-7.94a7.94 7.94 0 0 1 0 15.88m0-45.36c-4.38 0-7.93-3.55-7.93-7.94a7.93 7.93 0 0 1 7.93-7.93c4.39 0 7.94 3.55 7.94 7.93 0 4.39-3.55 7.94-7.94 7.94" style="fill:#057582"/><path d="M8.038 46.657h5.09v2.27h-5.09z" class="cls-6"/><circle cx="10.583" cy="47.792" r="1.633" class="cls-2"/><path d="M27.073 68.082h5.09v2.27h-5.09z" class="cls-6"/><circle cx="29.618" cy="69.217" r="1.633" class="cls-2"/><path d="M84.105 68.082h5.09v2.27h-5.09z" class="cls-6"/><circle cx="86.65" cy="69.217" r="1.633" class="cls-2"/><g id="USB"><path d="M102.9 27.18h11.546v17.53H102.9z" class="cls-6"/><path d="M104.55 27.18h-1.65v17.53h1.65V27.18M107.848 27.18h-1.65v17.53h1.65V27.18M111.147 27.18h-1.65v17.53h1.65V27.18M114.446 27.18h-1.65v17.53h1.65V27.18" class="cls-1"/><path d="M99.159 31.013h3.741v1.501h-3.741zM99.159 39.363h3.741v1.501h-3.741zM99.159 36.58h3.741v1.501h-3.741zM99.159 33.796h3.741v1.501h-3.741z" class="cls-4"/></g><g id="USB-2" data-name="USB"><path d="M1.773 27.18h11.546v17.53H1.773z" class="cls-6"/><path d="M11.67 44.71h1.649V27.18h-1.65v17.53M8.37 44.71h1.65V27.18H8.37v17.53M5.072 44.71h1.65V27.18h-1.65v17.53M1.773 44.71h1.65V27.18h-1.65v17.53" class="cls-1"/><path d="M17.06 40.877h-3.742v-1.501h3.741zM17.06 32.526h-3.742v-1.5h3.741zM17.06 35.31h-3.742v-1.502h3.741zM17.06 38.094h-3.742v-1.501h3.741z" class="cls-4"/></g><path d="M25.71 6.53c1.64 0 2.98-1.33 2.98-2.98 0-1.64-1.34-2.97-2.98-2.97s-2.98 1.33-2.98 2.97c0 1.65 1.34 2.98 2.98 2.98m0-4.39c.78 0 1.42.63 1.42 1.41a1.419 1.419 0 1 1-2.84 0c0-.78.64-1.41 1.42-1.41M32.91 6.53c1.64 0 2.98-1.33 2.98-2.98 0-1.64-1.34-2.97-2.98-2.97s-2.98 1.33-2.98 2.97c0 1.65 1.34 2.98 2.98 2.98m0-4.39c.78 0 1.42.63 1.42 1.41a1.419 1.419 0 1 1-2.84 0c0-.78.64-1.41 1.42-1.41M90.51 6.53c1.64 0 2.98-1.33 2.98-2.98 0-1.64-1.34-2.97-2.98-2.97s-2.98 1.33-2.98 2.97c0 1.65 1.34 2.98 2.98 2.98m0-4.39c.78 0 1.42.63 1.42 1.41a1.419 1.419 0 1 1-2.84 0c0-.78.64-1.41 1.42-1.41" class="cls-4"/><path d="M19.208 33.662v-.69h1.42v.69zM19.209 31.467v-.689h1.42v.69zM19.208 40.217v-.689h1.42v.69zM19.208 38.023v-.69h1.42v.69z" class="cls-6"/><path d="M104.456 24.03a1.9 1.9 0 0 0-.133-.707h2.179a1.93 1.93 0 0 0 .007 1.42h-2.193q.14-.332.14-.713" class="cls-7"/><path d="M106.369 24.03c0-.247.046-.487.133-.707h.36v1.42h-.353q-.14-.332-.14-.713M103.97 24.743v-1.42h.353a1.93 1.93 0 0 1-.007 1.42z" class="cls-6"/><path d="M96.099 40.71c-.396 0-.78.076-1.133.215v-3.496c.353.14.737.214 1.133.214a2.9 2.9 0 0 0 1.144-.224v3.516a2.9 2.9 0 0 0-1.144-.224" class="cls-7"/><path d="M96.099 37.643c-.396 0-.78-.075-1.133-.214v-.577h2.277v.567a2.9 2.9 0 0 1-1.144.224M97.243 41.491h-2.277v-.566a3.1 3.1 0 0 1 1.133-.214c.406 0 .791.075 1.144.224z" class="cls-6"/><circle id="HATCH" cx="3.685" cy="49.776" r="2.835" class="cls-7"/><circle id="LWPOLYLINE" cx="3.685" cy="49.776" r="1.417" class="cls-3"/><circle id="HATCH-2" cx="3.685" cy="22.11" r="2.835" class="cls-7" data-name="HATCH"/><circle id="LWPOLYLINE-2" cx="3.685" cy="22.11" r="1.417" class="cls-3" data-name="LWPOLYLINE"/><circle id="HATCH-3" cx="112.535" cy="22.11" r="2.835" class="cls-7" data-name="HATCH"/><circle id="LWPOLYLINE-3" cx="112.535" cy="22.11" r="1.417" class="cls-3" data-name="LWPOLYLINE"/><path id="HATCH-4" d="M54.51 6.532c1.64 0 2.98-1.33 2.98-2.98 0-1.64-1.34-2.97-2.98-2.97s-2.98 1.33-2.98 2.97c0 1.65 1.34 2.98 2.98 2.98m0-4.39c.78 0 1.42.63 1.42 1.41a1.419 1.419 0 1 1-2.84 0c0-.78.64-1.41 1.42-1.41" class="cls-5" data-name="HATCH"/><path id="HATCH-5" d="M61.71 6.532c1.64 0 2.98-1.33 2.98-2.98 0-1.64-1.34-2.97-2.98-2.97s-2.98 1.33-2.98 2.97c0 1.65 1.34 2.98 2.98 2.98m0-4.39c.78 0 1.42.63 1.42 1.41a1.419 1.419 0 1 1-2.84 0c0-.78.64-1.41 1.42-1.41" class="cls-5" data-name="HATCH"/><path id="HATCH-6" d="M68.91 6.532c1.64 0 2.98-1.33 2.98-2.98 0-1.64-1.34-2.97-2.98-2.97s-2.98 1.33-2.98 2.97c0 1.65 1.34 2.98 2.98 2.98m0-4.39c.78 0 1.42.63 1.42 1.41a1.419 1.419 0 1 1-2.84 0c0-.78.64-1.41 1.42-1.41" class="cls-5" data-name="HATCH"/><path id="HATCH-7" d="M76.11 6.532c1.64 0 2.98-1.33 2.98-2.98 0-1.64-1.34-2.97-2.98-2.97s-2.98 1.33-2.98 2.97c0 1.65 1.34 2.98 2.98 2.98m0-4.39c.78 0 1.42.63 1.42 1.41a1.419 1.419 0 1 1-2.84 0c0-.78.64-1.41 1.42-1.41" class="cls-5" data-name="HATCH"/><path id="HATCH-8" d="M83.31 6.532c1.64 0 2.98-1.33 2.98-2.98 0-1.64-1.34-2.97-2.98-2.97s-2.98 1.33-2.98 2.97c0 1.65 1.34 2.98 2.98 2.98m0-4.39c.78 0 1.42.63 1.42 1.41a1.419 1.419 0 1 1-2.84 0c0-.78.64-1.41 1.42-1.41" class="cls-5" data-name="HATCH"/><path id="HATCH-9" d="M47.31 6.532c1.64 0 2.98-1.33 2.98-2.98 0-1.64-1.34-2.97-2.98-2.97s-2.98 1.33-2.98 2.97c0 1.65 1.34 2.98 2.98 2.98m0-4.39c.78 0 1.42.63 1.42 1.41a1.419 1.419 0 1 1-2.84 0c0-.78.64-1.41 1.42-1.41" class="cls-5" data-name="HATCH"/><path id="HATCH-10" d="M40.11 6.532c1.64 0 2.98-1.33 2.98-2.98 0-1.64-1.34-2.97-2.98-2.97s-2.98 1.33-2.98 2.97c0 1.65 1.34 2.98 2.98 2.98m0-4.39c.78 0 1.42.63 1.42 1.41a1.419 1.419 0 1 1-2.84 0c0-.78.64-1.41 1.42-1.41" class="cls-5" data-name="HATCH"/><path id="HATCH-11" d="M12.76 50.687c-4.39 0-7.94 3.55-7.94 7.94 0 4.38 3.55 7.93 7.94 7.93a7.93 7.93 0 0 0 7.93-7.93c0-4.39-3.55-7.94-7.93-7.94m0 12.47a4.534 4.534 0 1 1 0-9.07c2.5 0 4.53 2.03 4.53 4.54 0 2.5-2.03 4.53-4.53 4.53" class="cls-5" data-name="HATCH"/><path id="HATCH-12" d="M12.76 5.327a7.94 7.94 0 0 0 0 15.88c4.38 0 7.93-3.56 7.93-7.94s-3.55-7.94-7.93-7.94m0 12.48a4.534 4.534 0 1 1 0-9.07c2.5 0 4.53 2.03 4.53 4.53 0 2.51-2.03 4.54-4.53 4.54" class="cls-5" data-name="HATCH"/><path id="HATCH-13" d="M103.47 5.327a7.94 7.94 0 0 0 0 15.88c4.38 0 7.93-3.56 7.93-7.94s-3.55-7.94-7.93-7.94m0 12.48a4.535 4.535 0 1 1 0-9.07c2.5 0 4.53 2.03 4.53 4.53 0 2.51-2.03 4.54-4.53 4.54" class="cls-5" data-name="HATCH"/><path id="HATCH-14" d="M103.47 50.687c-4.39 0-7.94 3.55-7.94 7.94 0 4.38 3.55 7.93 7.94 7.93a7.93 7.93 0 0 0 7.93-7.93c0-4.39-3.55-7.94-7.93-7.94m0 12.47a4.535 4.535 0 1 1 0-9.07c2.5 0 4.53 2.03 4.53 4.54 0 2.5-2.03 4.53-4.53 4.53" class="cls-5" data-name="HATCH"/><g id="Artwork_16" data-name="Artwork 16"><path d="M21.731 22.695h5.586v3.646h-5.586z"/><path d="M26.278 21.52c.199 0 .359.12.359.269v.923h-.717v-.923c0-.149.16-.268.358-.268M24.496 21.52c.198 0 .359.12.359.269v.923h-.717v-.923c0-.149.159-.268.358-.268M22.714 21.52c.198 0 .358.12.358.269v.923h-.717v-.923c0-.149.16-.268.359-.268M22.714 27.531c-.198 0-.359-.12-.359-.267v-.923h.717v.923c0 .148-.159.267-.358.267M26.278 27.531c-.198 0-.358-.12-.358-.267v-.923h.717v.923c0 .148-.16.267-.359.267M24.496 27.531c-.198 0-.358-.12-.358-.267v-.923h.717v.923c0 .148-.16.267-.359.267" class="cls-6"/></g><path d="M23.988 37.41V37c0-.111.09-.201.201-.201h.558c.11 0 .2.09.2.2v.412zM24.948 41.035v.411c0 .111-.09.201-.201.201h-.558a.2.2 0 0 1-.2-.2v-.412z" class="cls-6"/><path d="M24.468 41.035h1.241v-3.624h-2.482v3.624z"/><path d="M23.988 30.063v-.411c0-.111.09-.201.201-.201h.558c.11 0 .2.09.2.2v.412zM24.948 33.687v.411c0 .111-.09.201-.201.201h-.558a.2.2 0 0 1-.2-.2v-.412z" class="cls-6"/><path d="M24.468 33.687h1.241v-3.624h-2.482v3.624zM43.973 68.08v1.193h28.274v-2.385H43.973zM43.973 50.667v2.37h28.274v-4.74H43.973z"/><path d="M43.973 59.963v6.925h28.274V53.037H43.973zM43.973 70.266v.994h28.274v-1.987H43.973z" class="cls-8"/><circle cx="51.086" cy="59.963" r="4.663"/><circle cx="65.103" cy="59.963" r="4.663"/><path d="M42.383 68.124v1.954l1.59-.34v-1.275zM42.383 50.475v1.954l1.59-.34v-1.275z"/><path d="m99.436 26.485.582-.582.156.157a.21.21 0 0 1 0 .296l-.285.286a.21.21 0 0 1-.296 0zM98.433 27.488l.582-.582.156.157a.21.21 0 0 1 0 .296l-.285.285a.21.21 0 0 1-.296 0zM97.43 28.49l.582-.58.156.156a.21.21 0 0 1 0 .296l-.285.285a.21.21 0 0 1-.296 0zM96.427 29.494l.582-.582.157.157a.21.21 0 0 1 0 .296l-.286.285a.21.21 0 0 1-.296 0zM95.425 30.497l.581-.582.157.156a.21.21 0 0 1 0 .297l-.286.285a.21.21 0 0 1-.296 0zM89.844 23.752l-.582.582-.156-.156a.21.21 0 0 1 0-.297l.285-.285a.21.21 0 0 1 .296 0zM90.846 22.75l-.581.581-.157-.156a.21.21 0 0 1 0-.296l.286-.286a.21.21 0 0 1 .296 0zM91.85 21.747l-.582.581-.157-.156a.21.21 0 0 1 0-.296l.286-.286a.21.21 0 0 1 .296 0zM92.852 20.744l-.581.581-.157-.156a.21.21 0 0 1 0-.296l.286-.286a.21.21 0 0 1 .296 0zM93.855 19.74l-.582.582-.156-.156a.21.21 0 0 1 0-.296l.286-.286a.21.21 0 0 1 .296 0zM93.273 29.915l.582.582-.156.156a.21.21 0 0 1-.296 0l-.286-.285a.21.21 0 0 1 0-.297zM92.27 28.912l.582.582-.156.156a.21.21 0 0 1-.296 0l-.286-.285a.21.21 0 0 1 0-.296zM91.268 27.91l.581.58-.156.157a.21.21 0 0 1-.296 0l-.286-.285a.21.21 0 0 1 0-.296zM90.265 26.906l.581.582-.156.156a.21.21 0 0 1-.296 0l-.286-.285a.21.21 0 0 1 0-.296zM89.262 25.903l.582.582-.157.157a.21.21 0 0 1-.296 0l-.285-.286a.21.21 0 0 1 0-.296zM96.006 20.322l-.581-.581.156-.157a.21.21 0 0 1 .296 0l.286.286a.21.21 0 0 1 0 .296zM97.01 21.325l-.583-.581.157-.157a.21.21 0 0 1 .296 0l.286.286a.21.21 0 0 1 0 .296zM98.012 22.328l-.582-.581.157-.157a.21.21 0 0 1 .296 0l.285.286a.21.21 0 0 1 0 .296zM99.015 23.331l-.582-.582.157-.156a.21.21 0 0 1 .296 0l.285.286a.21.21 0 0 1 0 .296zM100.018 24.334l-.582-.582.157-.156a.21.21 0 0 1 .296 0l.285.286a.21.21 0 0 1 0 .296z" class="cls-6"/><path d="M100.803 25.119 94.64 31.28l-6.162-6.162 6.162-6.163z"/><circle cx="98.915" cy="25.06" r=".577" class="cls-6"/><path d="M19.92 43.413c.247 0 .487-.047.707-.133v2.179a1.93 1.93 0 0 0-1.42.007v-2.193q.332.14.713.14" class="cls-10"/><path d="M19.92 43.413c.247 0 .487-.047.707-.133v2.179a1.93 1.93 0 0 0-1.42.007v-2.193q.332.14.713.14"/><path d="M19.92 45.326c.247 0 .487.046.707.133v.36h-1.42v-.353q.332-.14.713-.14M19.207 42.926h1.42v.354a1.93 1.93 0 0 1-1.42-.007z" class="cls-6"/><path d="M23.675 66.19c0 .247.047.487.133.707H21.63a1.93 1.93 0 0 0-.007-1.42h2.193q-.14.332-.14.713" class="cls-10"/><path d="M23.675 66.19c0 .247.047.487.133.707H21.63a1.93 1.93 0 0 0-.007-1.42h2.193q-.14.332-.14.713"/><path d="M21.762 66.19c0 .247-.046.487-.133.707h-.36v-1.42h.354q.14.332.14.713M24.162 65.477v1.42h-.354a1.93 1.93 0 0 1 .007-1.42z" class="cls-6"/><path d="M23.675 69.18c0 .246.047.486.133.706H21.63a1.93 1.93 0 0 0-.007-1.42h2.193q-.14.332-.14.713" class="cls-10"/><path d="M23.675 69.18c0 .246.047.486.133.706H21.63a1.93 1.93 0 0 0-.007-1.42h2.193q-.14.332-.14.713"/><path d="M21.762 69.18c0 .246-.046.486-.133.706h-.36v-1.42h.354q.14.332.14.713M24.162 68.466v1.42h-.354a1.93 1.93 0 0 1 .007-1.42z" class="cls-6"/><path d="M94.638 69.18c0 .246.047.486.134.706h-2.18a1.93 1.93 0 0 0-.006-1.42h2.192q-.14.332-.14.713" class="cls-10"/><path d="M94.638 69.18c0 .246.047.486.134.706h-2.18a1.93 1.93 0 0 0-.006-1.42h2.192q-.14.332-.14.713"/><path d="M92.726 69.18c0 .246-.047.486-.134.706h-.36v-1.42h.354q.14.332.14.713M95.125 68.466v1.42h-.353a1.93 1.93 0 0 1 .006-1.42z" class="cls-6"/><path d="M106.549 47.866c0 .246.047.486.133.706h-2.18a1.93 1.93 0 0 0-.006-1.42h2.193q-.14.331-.14.714" class="cls-10"/><path d="M106.549 47.866c0 .246.047.486.133.706h-2.18a1.93 1.93 0 0 0-.006-1.42h2.193q-.14.331-.14.714"/><path d="M104.636 47.866c0 .246-.047.486-.133.706h-.36v-1.42h.353q.14.331.14.714M107.035 47.152v1.42h-.353a1.93 1.93 0 0 1 .007-1.42z" class="cls-6"/><path d="M92.9 16.45c0 .247.046.487.133.707h-2.18a1.93 1.93 0 0 0-.006-1.42h2.192q-.14.332-.14.713" class="cls-10"/><path d="M92.9 16.45c0 .247.046.487.133.707h-2.18a1.93 1.93 0 0 0-.006-1.42h2.192q-.14.332-.14.713"/><path d="M90.987 16.45c0 .247-.047.487-.134.707h-.36v-1.42h.354q.14.332.14.713M93.386 15.737v1.42h-.353a1.93 1.93 0 0 1 .006-1.42z" class="cls-6"/><path d="M92.9 13.443c0 .247.046.487.133.707h-2.18a1.93 1.93 0 0 0-.006-1.42h2.192q-.14.332-.14.713" class="cls-10"/><path d="M92.9 13.443c0 .247.046.487.133.707h-2.18a1.93 1.93 0 0 0-.006-1.42h2.192q-.14.332-.14.713"/><path d="M90.987 13.443c0 .247-.047.487-.134.707h-.36v-1.42h.354q.14.332.14.713M93.386 12.73v1.42h-.353a1.93 1.93 0 0 1 .006-1.42z" class="cls-6"/><path d="M92.9 10.436c0 .247.046.487.133.706h-2.18a1.93 1.93 0 0 0-.006-1.42h2.192q-.14.332-.14.714" class="cls-10"/><path d="M92.9 10.436c0 .247.046.487.133.706h-2.18a1.93 1.93 0 0 0-.006-1.42h2.192q-.14.332-.14.714"/><path d="M90.987 10.436c0 .247-.047.487-.134.706h-.36v-1.42h.354q.14.332.14.714M93.386 9.723v1.42h-.353a1.93 1.93 0 0 1 .006-1.42z" class="cls-6"/><path d="M29.93 16.17h56.36v31.01H29.93z"/></svg>