<svg viewBox="0 0 167 68" fill="none" xmlns="http://www.w3.org/2000/svg">
<path d="M163.858 67.3854L163.858 0.230469L0.769179 0.230462L0.769176 67.3854L163.858 67.3854ZM159.051 1.90191C160.773 1.90191 162.169 3.29743 162.169 5.01832C162.169 6.74188 160.773 8.13727 159.051 8.13727C157.329 8.13727 155.934 6.74188 155.934 5.01832C155.934 3.29741 157.329 1.90191 159.051 1.90191ZM159.051 59.4629C160.773 59.4629 162.169 60.8584 162.169 62.5793C162.169 64.3029 160.773 65.6984 159.051 65.6984C157.329 65.6984 155.934 64.3029 155.934 62.5793C155.934 60.8584 157.329 59.4629 159.051 59.4629ZM5.55705 1.9019C7.27796 1.9019 8.67344 3.29742 8.67344 5.01831C8.67344 6.74187 7.27794 8.13726 5.55705 8.13726C3.83349 8.13726 2.4381 6.74187 2.4381 5.01831C2.4381 3.29741 3.83349 1.9019 5.55705 1.9019ZM5.55705 59.4629C7.27795 59.4629 8.67344 60.8584 8.67344 62.5793C8.67344 64.3029 7.27794 65.6984 5.55705 65.6984C3.83349 65.6984 2.4381 64.3029 2.4381 62.5793C2.4381 60.8584 3.83349 59.4629 5.55705 59.4629Z" fill="#007481"/>
<path d="M97.2554 49.449L96.23 48.4242L91.7487 52.9081L92.7741 53.9329L97.2554 49.449Z" fill="#80BAC0"/>
<path d="M94.5771 46.7709L93.5514 45.745L89.0681 50.2283L90.094 51.2697L94.5771 46.7709Z" fill="#80BAC0"/>
<path d="M91.9136 44.0918L90.8878 43.066L86.4052 47.5649L87.4303 48.5907L91.9136 44.0918Z" fill="#80BAC0"/>
<path d="M93.7518 54.1309L94.1917 53.691L94.1916 53.6908L97.4644 50.4157L96.7613 49.7102L96.761 49.7105L89.7006 42.6313L89.2607 43.0713L89.2609 43.0714L86.4273 45.9076L86.4261 45.9064L85.9887 46.3464L93.7518 54.1309Z" fill="#8C9091"/>
<path d="M59.0982 26.3261L49.0283 26.326L49.0283 30.3369L59.0982 30.3369L59.0982 26.3261Z" fill="#8C9091"/>
<path d="M50.9726 28.3327C50.9726 26.6216 52.3604 25.2361 54.0691 25.2361C55.78 25.2361 57.1655 26.6216 57.1655 28.3327C57.1655 30.0414 55.78 31.4291 54.0691 31.4291C52.3604 31.4291 50.9726 30.0414 50.9726 28.3327Z" fill="#EBA900"/>
<path d="M59.0982 14.8146L49.0283 14.8146L49.0283 18.8255L59.0982 18.8255L59.0982 14.8146Z" fill="#8C9091"/>
<path d="M50.9726 16.8212C50.9726 15.1102 52.3604 13.7247 54.0691 13.7247C55.78 13.7247 57.1655 15.1102 57.1655 16.8212C57.1655 18.5299 55.78 19.9176 54.0691 19.9176C52.3604 19.9176 50.9726 18.5299 50.9726 16.8212Z" fill="#EBA900"/>
<path d="M17.7513 11.6455C15.4589 11.6455 13.5934 13.5097 13.5934 15.8007C13.5934 18.0931 15.4589 19.9586 17.7513 19.9586C20.0423 19.9586 21.9077 18.0931 21.9077 15.8007C21.9077 13.5097 20.0423 11.6455 17.7513 11.6455Z" fill="#ABD1D5"/>
<path d="M17.7512 13.882C16.6928 13.882 15.8323 14.7437 15.8323 15.8007C15.8323 16.8603 16.6928 17.7221 17.7512 17.7221C18.8095 17.7221 19.6699 16.8603 19.6699 15.8007C19.6699 14.7437 18.8095 13.882 17.7512 13.882Z" fill="#8C9091"/>
<path d="M124.865 47.4249C122.572 47.4249 120.707 49.2891 120.707 51.5801C120.707 53.8725 122.572 55.738 124.865 55.738C127.156 55.738 129.021 53.8725 129.021 51.5801C129.021 49.2891 127.156 47.4249 124.865 47.4249Z" fill="#ABD1D5"/>
<path d="M124.864 49.6614C123.806 49.6614 122.946 50.523 122.946 51.5801C122.946 52.6397 123.806 53.5015 124.864 53.5015C125.923 53.5015 126.783 52.6397 126.783 51.5801C126.783 50.523 125.923 49.6614 124.864 49.6614Z" fill="#8C9091"/>
<path d="M149.152 2.24469C150.681 2.24469 151.925 3.48994 151.925 5.01949C151.925 6.54904 150.681 7.7927 149.152 7.7927C147.622 7.7927 146.377 6.54905 146.377 5.01949C146.377 3.48993 147.622 2.24469 149.152 2.24469Z" fill="#8A7867"/>
<path d="M149.151 6.97949C148.068 6.97949 147.19 6.1012 147.19 5.0188C147.19 3.93541 148.068 3.05712 149.151 3.05712C150.234 3.05712 151.111 3.93541 151.111 5.0188C151.111 6.1012 150.234 6.97949 149.151 6.97949ZM149.151 8.60593C151.129 8.60593 152.738 6.99676 152.738 5.0188C152.738 3.04029 151.129 1.43066 149.151 1.43066C147.173 1.43066 145.563 3.04028 145.563 5.0188C145.563 6.99676 147.173 8.60593 149.151 8.60593Z" fill="#ADB0B1"/>
<path d="M139.51 2.24469C141.039 2.24469 142.283 3.48994 142.283 5.01949C142.283 6.54904 141.039 7.7927 139.51 7.7927C137.98 7.7927 136.735 6.54905 136.735 5.01949C136.735 3.48993 137.98 2.24469 139.51 2.24469Z" fill="#8A7867"/>
<path d="M139.509 6.97949C138.426 6.97949 137.548 6.1012 137.548 5.0188C137.548 3.93541 138.426 3.05712 139.509 3.05712C140.592 3.05712 141.469 3.93541 141.469 5.0188C141.469 6.1012 140.592 6.97949 139.509 6.97949ZM139.509 8.60593C141.487 8.60593 143.096 6.99676 143.096 5.0188C143.096 3.04029 141.487 1.43066 139.509 1.43066C137.531 1.43066 135.921 3.04028 135.921 5.0188C135.921 6.99676 137.531 8.60593 139.509 8.60593Z" fill="#ADB0B1"/>
<path d="M129.868 2.24469C131.397 2.24469 132.641 3.48994 132.641 5.01949C132.641 6.54904 131.397 7.7927 129.868 7.7927C128.338 7.7927 127.093 6.54905 127.093 5.01949C127.093 3.48993 128.338 2.24469 129.868 2.24469Z" fill="#8A7867"/>
<path d="M129.868 6.97949C128.784 6.97949 127.906 6.1012 127.906 5.0188C127.906 3.93541 128.784 3.05712 129.868 3.05712C130.951 3.05712 131.828 3.93541 131.828 5.0188C131.828 6.1012 130.951 6.97949 129.868 6.97949ZM129.868 8.60593C131.845 8.60593 133.454 6.99676 133.454 5.0188C133.454 3.04029 131.845 1.43066 129.868 1.43066C127.889 1.43066 126.28 3.04028 126.28 5.0188C126.28 6.99676 127.889 8.60593 129.868 8.60593Z" fill="#ADB0B1"/>
<path d="M120.226 2.24469C121.755 2.24469 122.999 3.48994 122.999 5.01949C122.999 6.54904 121.755 7.7927 120.226 7.7927C118.696 7.7927 117.451 6.54905 117.451 5.01949C117.451 3.48993 118.696 2.24469 120.226 2.24469Z" fill="#8A7867"/>
<path d="M120.226 6.97949C119.142 6.97949 118.264 6.1012 118.264 5.0188C118.264 3.93541 119.142 3.05712 120.226 3.05712C121.309 3.05712 122.186 3.93541 122.186 5.0188C122.186 6.1012 121.309 6.97949 120.226 6.97949ZM120.226 8.60593C122.203 8.60593 123.812 6.99676 123.812 5.0188C123.812 3.04029 122.203 1.43066 120.226 1.43066C118.247 1.43066 116.638 3.04028 116.638 5.0188C116.638 6.99676 118.247 8.60593 120.226 8.60593Z" fill="#ADB0B1"/>
<path d="M110.584 2.24469C112.113 2.24469 113.357 3.48994 113.357 5.01949C113.357 6.54904 112.113 7.7927 110.584 7.7927C109.054 7.7927 107.809 6.54905 107.809 5.01949C107.809 3.48993 109.054 2.24469 110.584 2.24469Z" fill="#8A7867"/>
<path d="M110.583 6.97949C109.5 6.97949 108.622 6.1012 108.622 5.0188C108.622 3.93541 109.5 3.05712 110.583 3.05712C111.667 3.05712 112.543 3.93541 112.543 5.0188C112.543 6.1012 111.667 6.97949 110.583 6.97949ZM110.583 8.60593C112.561 8.60593 114.17 6.99676 114.17 5.0188C114.17 3.04029 112.561 1.43066 110.583 1.43066C108.605 1.43066 106.995 3.04028 106.995 5.0188C106.995 6.99676 108.605 8.60593 110.583 8.60593Z" fill="#ADB0B1"/>
<path d="M100.942 2.24469C102.471 2.24469 103.715 3.48994 103.715 5.01949C103.715 6.54904 102.471 7.7927 100.942 7.7927C99.4121 7.7927 98.1668 6.54905 98.1668 5.01949C98.1668 3.48993 99.4121 2.24469 100.942 2.24469Z" fill="#8A7867"/>
<path d="M100.941 6.97949C99.8581 6.97949 98.9799 6.1012 98.9799 5.0188C98.9799 3.93541 99.8581 3.05712 100.941 3.05712C102.025 3.05712 102.901 3.93541 102.901 5.0188C102.901 6.1012 102.025 6.97949 100.941 6.97949ZM100.941 8.60593C102.919 8.60593 104.528 6.99676 104.528 5.0188C104.528 3.04029 102.919 1.43066 100.941 1.43066C98.9629 1.43066 97.3534 3.04028 97.3534 5.0188C97.3534 6.99676 98.9629 8.60593 100.941 8.60593Z" fill="#ADB0B1"/>
<path d="M91.3 2.24469C92.8296 2.24469 94.0732 3.48994 94.0732 5.01949C94.0732 6.54904 92.8296 7.7927 91.3 7.7927C89.7705 7.7927 88.5252 6.54905 88.5252 5.01949C88.5252 3.48993 89.7705 2.24469 91.3 2.24469Z" fill="#8A7867"/>
<path d="M91.2997 6.97949C90.2166 6.97949 89.3383 6.1012 89.3383 5.0188C89.3383 3.93541 90.2166 3.05712 91.2997 3.05712C92.3829 3.05712 93.2598 3.93541 93.2598 5.0188C93.2598 6.1012 92.3829 6.97949 91.2997 6.97949ZM91.2997 8.60593C93.2774 8.60593 94.8862 6.99676 94.8862 5.0188C94.8862 3.04029 93.2774 1.43066 91.2997 1.43066C89.3213 1.43066 87.7118 3.04028 87.7118 5.0188C87.7118 6.99676 89.3213 8.60593 91.2997 8.60593Z" fill="#ADB0B1"/>
<path d="M81.6579 2.24469C83.1875 2.24469 84.4312 3.48994 84.4312 5.01949C84.4312 6.54904 83.1875 7.7927 81.6579 7.7927C80.1284 7.7927 78.8831 6.54905 78.8831 5.01949C78.8831 3.48993 80.1284 2.24469 81.6579 2.24469Z" fill="#8A7867"/>
<path d="M81.6576 6.97949C80.5745 6.97949 79.6962 6.1012 79.6962 5.0188C79.6962 3.93541 80.5745 3.05712 81.6576 3.05712C82.7408 3.05712 83.6177 3.93541 83.6177 5.0188C83.6177 6.1012 82.7408 6.97949 81.6576 6.97949ZM81.6576 8.60593C83.6353 8.60593 85.2441 6.99676 85.2441 5.0188C85.2441 3.04029 83.6353 1.43066 81.6576 1.43066C79.6792 1.43066 78.0697 3.04028 78.0697 5.0188C78.0697 6.99676 79.6792 8.60593 81.6576 8.60593Z" fill="#ADB0B1"/>
<path d="M72.0158 2.24469C73.5454 2.24469 74.7891 3.48994 74.7891 5.01949C74.7891 6.54904 73.5454 7.7927 72.0158 7.7927C70.4863 7.7927 69.241 6.54905 69.241 5.01949C69.241 3.48993 70.4863 2.24469 72.0158 2.24469Z" fill="#8A7867"/>
<path d="M72.0156 6.97949C70.9324 6.97949 70.0541 6.1012 70.0541 5.0188C70.0541 3.93541 70.9324 3.05712 72.0156 3.05712C73.0987 3.05712 73.9756 3.93541 73.9756 5.0188C73.9756 6.1012 73.0987 6.97949 72.0156 6.97949ZM72.0156 8.60593C73.9932 8.60593 75.6021 6.99676 75.6021 5.0188C75.6021 3.04029 73.9932 1.43066 72.0156 1.43066C70.0371 1.43066 68.4276 3.04028 68.4276 5.0188C68.4276 6.99676 70.0371 8.60593 72.0156 8.60593Z" fill="#ADB0B1"/>
<path d="M62.3738 2.24469C63.9033 2.24469 65.147 3.48994 65.147 5.01949C65.147 6.54904 63.9033 7.7927 62.3738 7.7927C60.8442 7.7927 59.599 6.54905 59.599 5.01949C59.599 3.48993 60.8442 2.24469 62.3738 2.24469Z" fill="#8A7867"/>
<path d="M62.3735 6.97949C61.2903 6.97949 60.412 6.1012 60.412 5.0188C60.412 3.93541 61.2903 3.05712 62.3735 3.05712C63.4567 3.05712 64.3335 3.93541 64.3335 5.0188C64.3335 6.1012 63.4567 6.97949 62.3735 6.97949ZM62.3735 8.60593C64.3511 8.60593 65.96 6.99676 65.96 5.0188C65.96 3.04029 64.3511 1.43066 62.3735 1.43066C60.3951 1.43066 58.7855 3.04028 58.7855 5.0188C58.7855 6.99676 60.3951 8.60593 62.3735 8.60593Z" fill="#ADB0B1"/>
<path d="M52.7322 2.24469C54.2617 2.24469 55.5054 3.48994 55.5054 5.01949C55.5054 6.54904 54.2617 7.7927 52.7322 7.7927C51.2026 7.7927 49.9574 6.54905 49.9574 5.01949C49.9574 3.48993 51.2026 2.24469 52.7322 2.24469Z" fill="#8A7867"/>
<path d="M52.7319 6.97949C51.6487 6.97949 50.7704 6.1012 50.7704 5.0188C50.7704 3.93541 51.6487 3.05712 52.7319 3.05712C53.815 3.05712 54.6919 3.93541 54.6919 5.0188C54.6919 6.1012 53.815 6.97949 52.7319 6.97949ZM52.7319 8.60593C54.7095 8.60593 56.3184 6.99676 56.3184 5.0188C56.3184 3.04029 54.7095 1.43066 52.7319 1.43066C50.7534 1.43066 49.1439 3.04028 49.1439 5.0188C49.1439 6.99676 50.7534 8.60593 52.7319 8.60593Z" fill="#ADB0B1"/>
<path d="M43.0901 2.24469C44.6196 2.24469 45.8633 3.48994 45.8633 5.01949C45.8633 6.54904 44.6196 7.7927 43.0901 7.7927C41.5605 7.7927 40.3153 6.54905 40.3153 5.01949C40.3153 3.48993 41.5605 2.24469 43.0901 2.24469Z" fill="#8A7867"/>
<path d="M43.0898 6.97949C42.0066 6.97949 41.1283 6.1012 41.1283 5.0188C41.1283 3.93541 42.0066 3.05712 43.0898 3.05712C44.173 3.05712 45.0498 3.93541 45.0498 5.0188C45.0498 6.1012 44.173 6.97949 43.0898 6.97949ZM43.0898 8.60593C45.0674 8.60593 46.6763 6.99676 46.6763 5.0188C46.6763 3.04029 45.0674 1.43066 43.0898 1.43066C41.1114 1.43066 39.5018 3.04028 39.5018 5.0188C39.5018 6.99676 41.1114 8.60593 43.0898 8.60593Z" fill="#ADB0B1"/>
<path d="M33.448 2.24469C34.9775 2.24469 36.2212 3.48994 36.2212 5.01949C36.2212 6.54904 34.9775 7.7927 33.448 7.7927C31.9184 7.7927 30.6732 6.54905 30.6732 5.01949C30.6732 3.48993 31.9184 2.24469 33.448 2.24469Z" fill="#8A7867"/>
<path d="M33.4477 6.97949C32.3645 6.97949 31.4862 6.1012 31.4862 5.0188C31.4862 3.93541 32.3645 3.05712 33.4477 3.05712C34.5309 3.05712 35.4077 3.93541 35.4077 5.0188C35.4077 6.1012 34.5309 6.97949 33.4477 6.97949ZM33.4477 8.60593C35.4253 8.60593 37.0342 6.99676 37.0342 5.0188C37.0342 3.04029 35.4253 1.43066 33.4477 1.43066C31.4693 1.43066 29.8598 3.04028 29.8598 5.0188C29.8598 6.99676 31.4693 8.60593 33.4477 8.60593Z" fill="#ADB0B1"/>
<path d="M23.8059 2.24469C25.3354 2.24469 26.5791 3.48994 26.5791 5.01949C26.5791 6.54904 25.3354 7.7927 23.8059 7.7927C22.2763 7.7927 21.0311 6.54905 21.0311 5.01949C21.0311 3.48993 22.2763 2.24469 23.8059 2.24469Z" fill="#8A7867"/>
<path d="M23.8056 6.97949C22.7224 6.97949 21.8441 6.1012 21.8441 5.0188C21.8441 3.93541 22.7224 3.05712 23.8056 3.05712C24.8888 3.05712 25.7656 3.93541 25.7656 5.0188C25.7656 6.1012 24.8888 6.97949 23.8056 6.97949ZM23.8056 8.60593C25.7832 8.60593 27.3921 6.99676 27.3921 5.0188C27.3921 3.04029 25.7832 1.43066 23.8056 1.43066C21.8272 1.43066 20.2177 3.04028 20.2177 5.0188C20.2177 6.99676 21.8272 8.60593 23.8056 8.60593Z" fill="#ADB0B1"/>
<path d="M14.1643 2.24469C15.6938 2.24469 16.9375 3.48994 16.9375 5.01949C16.9375 6.54904 15.6938 7.7927 14.1643 7.7927C12.6347 7.7927 11.3895 6.54905 11.3895 5.01949C11.3895 3.48993 12.6347 2.24469 14.1643 2.24469Z" fill="#8A7867"/>
<path d="M14.164 6.97949C13.0808 6.97949 12.2025 6.1012 12.2025 5.0188C12.2025 3.93541 13.0808 3.05712 14.164 3.05712C15.2472 3.05712 16.124 3.93541 16.124 5.0188C16.124 6.1012 15.2472 6.97949 14.164 6.97949ZM14.164 8.60593C16.1416 8.60593 17.7505 6.99676 17.7505 5.0188C17.7505 3.04029 16.1416 1.43066 14.164 1.43066C12.1856 1.43066 10.5761 3.04028 10.5761 5.0188C10.5761 6.99676 12.1856 8.60593 14.164 8.60593Z" fill="#ADB0B1"/>
<path d="M149.152 59.8878C150.681 59.8878 151.925 61.133 151.925 62.6626C151.925 64.1921 150.681 65.4358 149.152 65.4358C147.622 65.4358 146.377 64.1921 146.377 62.6626C146.377 61.133 147.622 59.8878 149.152 59.8878Z" fill="#8A7867"/>
<path d="M149.151 64.6226C148.068 64.6226 147.19 63.7443 147.19 62.6619C147.19 61.5785 148.068 60.7002 149.151 60.7002C150.234 60.7002 151.111 61.5785 151.111 62.6619C151.111 63.7443 150.234 64.6226 149.151 64.6226ZM149.151 66.249C151.129 66.249 152.738 64.6398 152.738 62.6619C152.738 60.6834 151.129 59.0737 149.151 59.0737C147.173 59.0737 145.563 60.6833 145.563 62.6619C145.563 64.6398 147.173 66.249 149.151 66.249Z" fill="#ADB0B1"/>
<path d="M139.51 59.8878C141.039 59.8878 142.283 61.133 142.283 62.6626C142.283 64.1921 141.039 65.4358 139.51 65.4358C137.98 65.4358 136.735 64.1921 136.735 62.6626C136.735 61.133 137.98 59.8878 139.51 59.8878Z" fill="#8A7867"/>
<path d="M139.509 64.6226C138.426 64.6226 137.548 63.7443 137.548 62.6619C137.548 61.5785 138.426 60.7002 139.509 60.7002C140.592 60.7002 141.469 61.5785 141.469 62.6619C141.469 63.7443 140.592 64.6226 139.509 64.6226ZM139.509 66.249C141.487 66.249 143.096 64.6398 143.096 62.6619C143.096 60.6834 141.487 59.0737 139.509 59.0737C137.531 59.0737 135.921 60.6833 135.921 62.6619C135.921 64.6398 137.531 66.249 139.509 66.249Z" fill="#ADB0B1"/>
<path d="M129.868 59.8878C131.397 59.8878 132.641 61.133 132.641 62.6626C132.641 64.1921 131.397 65.4358 129.868 65.4358C128.338 65.4358 127.093 64.1921 127.093 62.6626C127.093 61.133 128.338 59.8878 129.868 59.8878Z" fill="#8A7867"/>
<path d="M129.868 64.6226C128.784 64.6226 127.906 63.7443 127.906 62.6619C127.906 61.5785 128.784 60.7002 129.868 60.7002C130.951 60.7002 131.828 61.5785 131.828 62.6619C131.828 63.7443 130.951 64.6226 129.868 64.6226ZM129.868 66.249C131.845 66.249 133.454 64.6398 133.454 62.6619C133.454 60.6834 131.845 59.0737 129.868 59.0737C127.889 59.0737 126.28 60.6833 126.28 62.6619C126.28 64.6398 127.889 66.249 129.868 66.249Z" fill="#ADB0B1"/>
<path d="M120.226 59.8878C121.755 59.8878 122.999 61.133 122.999 62.6626C122.999 64.1921 121.755 65.4358 120.226 65.4358C118.696 65.4358 117.451 64.1921 117.451 62.6626C117.451 61.133 118.696 59.8878 120.226 59.8878Z" fill="#8A7867"/>
<path d="M120.226 64.6226C119.142 64.6226 118.264 63.7443 118.264 62.6619C118.264 61.5785 119.142 60.7002 120.226 60.7002C121.309 60.7002 122.186 61.5785 122.186 62.6619C122.186 63.7443 121.309 64.6226 120.226 64.6226ZM120.226 66.249C122.203 66.249 123.812 64.6398 123.812 62.6619C123.812 60.6834 122.203 59.0737 120.226 59.0737C118.247 59.0737 116.638 60.6833 116.638 62.6619C116.638 64.6398 118.247 66.249 120.226 66.249Z" fill="#ADB0B1"/>
<path d="M110.584 59.8878C112.113 59.8878 113.357 61.133 113.357 62.6626C113.357 64.1921 112.113 65.4358 110.584 65.4358C109.054 65.4358 107.809 64.1921 107.809 62.6626C107.809 61.133 109.054 59.8878 110.584 59.8878Z" fill="#8A7867"/>
<path d="M110.583 64.6226C109.5 64.6226 108.622 63.7443 108.622 62.6619C108.622 61.5785 109.5 60.7002 110.583 60.7002C111.667 60.7002 112.543 61.5785 112.543 62.6619C112.543 63.7443 111.667 64.6226 110.583 64.6226ZM110.583 66.249C112.561 66.249 114.17 64.6398 114.17 62.6619C114.17 60.6834 112.561 59.0737 110.583 59.0737C108.605 59.0737 106.995 60.6833 106.995 62.6619C106.995 64.6398 108.605 66.249 110.583 66.249Z" fill="#ADB0B1"/>
<path d="M100.942 59.8878C102.471 59.8878 103.715 61.133 103.715 62.6626C103.715 64.1921 102.471 65.4358 100.942 65.4358C99.4121 65.4358 98.1668 64.1921 98.1668 62.6626C98.1668 61.133 99.4121 59.8878 100.942 59.8878Z" fill="#8A7867"/>
<path d="M100.941 64.6226C99.8581 64.6226 98.9799 63.7443 98.9799 62.6619C98.9799 61.5785 99.8581 60.7002 100.941 60.7002C102.025 60.7002 102.901 61.5785 102.901 62.6619C102.901 63.7443 102.025 64.6226 100.941 64.6226ZM100.941 66.249C102.919 66.249 104.528 64.6398 104.528 62.6619C104.528 60.6834 102.919 59.0737 100.941 59.0737C98.9629 59.0737 97.3534 60.6833 97.3534 62.6619C97.3534 64.6398 98.9629 66.249 100.941 66.249Z" fill="#ADB0B1"/>
<path d="M91.3 59.8878C92.8296 59.8878 94.0732 61.133 94.0732 62.6626C94.0732 64.1921 92.8296 65.4358 91.3 65.4358C89.7705 65.4358 88.5252 64.1921 88.5252 62.6626C88.5252 61.133 89.7705 59.8878 91.3 59.8878Z" fill="#8A7867"/>
<path d="M91.2997 64.6226C90.2166 64.6226 89.3383 63.7443 89.3383 62.6619C89.3383 61.5785 90.2166 60.7002 91.2997 60.7002C92.3829 60.7002 93.2598 61.5785 93.2598 62.6619C93.2598 63.7443 92.3829 64.6226 91.2997 64.6226ZM91.2997 66.249C93.2774 66.249 94.8862 64.6398 94.8862 62.6619C94.8862 60.6834 93.2774 59.0737 91.2997 59.0737C89.3213 59.0737 87.7118 60.6833 87.7118 62.6619C87.7118 64.6398 89.3213 66.249 91.2997 66.249Z" fill="#ADB0B1"/>
<path d="M81.6579 59.8878C83.1875 59.8878 84.4312 61.133 84.4312 62.6626C84.4312 64.1921 83.1875 65.4358 81.6579 65.4358C80.1284 65.4358 78.8831 64.1921 78.8831 62.6626C78.8831 61.133 80.1284 59.8878 81.6579 59.8878Z" fill="#8A7867"/>
<path d="M81.6576 64.6226C80.5745 64.6226 79.6962 63.7443 79.6962 62.6619C79.6962 61.5785 80.5745 60.7002 81.6576 60.7002C82.7408 60.7002 83.6177 61.5785 83.6177 62.6619C83.6177 63.7443 82.7408 64.6226 81.6576 64.6226ZM81.6576 66.249C83.6353 66.249 85.2441 64.6398 85.2441 62.6619C85.2441 60.6834 83.6353 59.0737 81.6576 59.0737C79.6792 59.0737 78.0697 60.6833 78.0697 62.6619C78.0697 64.6398 79.6792 66.249 81.6576 66.249Z" fill="#ADB0B1"/>
<path d="M72.0158 59.8878C73.5454 59.8878 74.7891 61.133 74.7891 62.6626C74.7891 64.1921 73.5454 65.4358 72.0158 65.4358C70.4863 65.4358 69.241 64.1921 69.241 62.6626C69.241 61.133 70.4863 59.8878 72.0158 59.8878Z" fill="#8A7867"/>
<path d="M72.0156 64.6226C70.9324 64.6226 70.0541 63.7443 70.0541 62.6619C70.0541 61.5785 70.9324 60.7002 72.0156 60.7002C73.0987 60.7002 73.9756 61.5785 73.9756 62.6619C73.9756 63.7443 73.0987 64.6226 72.0156 64.6226ZM72.0156 66.249C73.9932 66.249 75.6021 64.6398 75.6021 62.6619C75.6021 60.6834 73.9932 59.0737 72.0156 59.0737C70.0371 59.0737 68.4276 60.6833 68.4276 62.6619C68.4276 64.6398 70.0371 66.249 72.0156 66.249Z" fill="#ADB0B1"/>
<path d="M62.3738 59.8878C63.9033 59.8878 65.147 61.133 65.147 62.6626C65.147 64.1921 63.9033 65.4358 62.3738 65.4358C60.8442 65.4358 59.599 64.1921 59.599 62.6626C59.599 61.133 60.8442 59.8878 62.3738 59.8878Z" fill="#8A7867"/>
<path d="M62.3735 64.6226C61.2903 64.6226 60.412 63.7443 60.412 62.6619C60.412 61.5785 61.2903 60.7002 62.3735 60.7002C63.4567 60.7002 64.3335 61.5785 64.3335 62.6619C64.3335 63.7443 63.4567 64.6226 62.3735 64.6226ZM62.3735 66.249C64.3511 66.249 65.96 64.6398 65.96 62.6619C65.96 60.6834 64.3511 59.0737 62.3735 59.0737C60.3951 59.0737 58.7855 60.6833 58.7855 62.6619C58.7855 64.6398 60.3951 66.249 62.3735 66.249Z" fill="#ADB0B1"/>
<path d="M52.7322 59.8878C54.2617 59.8878 55.5054 61.133 55.5054 62.6626C55.5054 64.1921 54.2617 65.4358 52.7322 65.4358C51.2026 65.4358 49.9574 64.1921 49.9574 62.6626C49.9574 61.133 51.2026 59.8878 52.7322 59.8878Z" fill="#8A7867"/>
<path d="M52.7319 64.6226C51.6487 64.6226 50.7704 63.7443 50.7704 62.6619C50.7704 61.5785 51.6487 60.7002 52.7319 60.7002C53.815 60.7002 54.6919 61.5785 54.6919 62.6619C54.6919 63.7443 53.815 64.6226 52.7319 64.6226ZM52.7319 66.249C54.7095 66.249 56.3184 64.6398 56.3184 62.6619C56.3184 60.6834 54.7095 59.0737 52.7319 59.0737C50.7534 59.0737 49.1439 60.6833 49.1439 62.6619C49.1439 64.6398 50.7534 66.249 52.7319 66.249Z" fill="#ADB0B1"/>
<path d="M43.0901 59.8878C44.6196 59.8878 45.8633 61.133 45.8633 62.6626C45.8633 64.1921 44.6196 65.4358 43.0901 65.4358C41.5605 65.4358 40.3153 64.1921 40.3153 62.6626C40.3153 61.133 41.5605 59.8878 43.0901 59.8878Z" fill="#8A7867"/>
<path d="M43.0898 64.6226C42.0066 64.6226 41.1283 63.7443 41.1283 62.6619C41.1283 61.5785 42.0066 60.7002 43.0898 60.7002C44.173 60.7002 45.0498 61.5785 45.0498 62.6619C45.0498 63.7443 44.173 64.6226 43.0898 64.6226ZM43.0898 66.249C45.0674 66.249 46.6763 64.6398 46.6763 62.6619C46.6763 60.6834 45.0674 59.0737 43.0898 59.0737C41.1114 59.0737 39.5018 60.6833 39.5018 62.6619C39.5018 64.6398 41.1114 66.249 43.0898 66.249Z" fill="#ADB0B1"/>
<path d="M33.448 59.8878C34.9775 59.8878 36.2212 61.133 36.2212 62.6626C36.2212 64.1921 34.9775 65.4358 33.448 65.4358C31.9184 65.4358 30.6732 64.1921 30.6732 62.6626C30.6732 61.133 31.9184 59.8878 33.448 59.8878Z" fill="#8A7867"/>
<path d="M33.4477 64.6226C32.3645 64.6226 31.4862 63.7443 31.4862 62.6619C31.4862 61.5785 32.3645 60.7002 33.4477 60.7002C34.5309 60.7002 35.4077 61.5785 35.4077 62.6619C35.4077 63.7443 34.5309 64.6226 33.4477 64.6226ZM33.4477 66.249C35.4253 66.249 37.0342 64.6398 37.0342 62.6619C37.0342 60.6834 35.4253 59.0737 33.4477 59.0737C31.4693 59.0737 29.8598 60.6833 29.8598 62.6619C29.8598 64.6398 31.4693 66.249 33.4477 66.249Z" fill="#ADB0B1"/>
<path d="M23.8059 59.8878C25.3354 59.8878 26.5791 61.133 26.5791 62.6626C26.5791 64.1921 25.3354 65.4358 23.8059 65.4358C22.2763 65.4358 21.0311 64.1921 21.0311 62.6626C21.0311 61.133 22.2763 59.8878 23.8059 59.8878Z" fill="#8A7867"/>
<path d="M23.8056 64.6226C22.7224 64.6226 21.8441 63.7443 21.8441 62.6619C21.8441 61.5785 22.7224 60.7002 23.8056 60.7002C24.8888 60.7002 25.7656 61.5785 25.7656 62.6619C25.7656 63.7443 24.8888 64.6226 23.8056 64.6226ZM23.8056 66.249C25.7832 66.249 27.3921 64.6398 27.3921 62.6619C27.3921 60.6834 25.7832 59.0737 23.8056 59.0737C21.8272 59.0737 20.2177 60.6833 20.2177 62.6619C20.2177 64.6398 21.8272 66.249 23.8056 66.249Z" fill="#ADB0B1"/>
<path d="M14.1643 59.8882C15.6938 59.8882 16.9375 61.1334 16.9375 62.663C16.9375 64.1925 15.6938 65.4362 14.1643 65.4362C12.6347 65.4362 11.3895 64.1925 11.3895 62.663C11.3895 61.1334 12.6347 59.8882 14.1643 59.8882Z" fill="#8A7867"/>
<path d="M14.164 64.623C13.0808 64.623 12.2025 63.7447 12.2025 62.6623C12.2025 61.5789 13.0808 60.7006 14.164 60.7006C15.2472 60.7006 16.124 61.5789 16.124 62.6623C16.124 63.7447 15.2472 64.623 14.164 64.623ZM14.164 66.2494C16.1416 66.2494 17.7505 64.6403 17.7505 62.6623C17.7505 60.6838 16.1416 59.0742 14.164 59.0742C12.1856 59.0742 10.5761 60.6838 10.5761 62.6623C10.5761 64.6403 12.1856 66.2494 14.164 66.2494Z" fill="#ADB0B1"/>
<path d="M104.275 46.4263L90.9263 33.0776L104.269 19.7349L117.618 33.0836L104.275 46.4263Z" fill="#007481"/>
<path d="M104.275 46.4263L90.9263 33.0776L104.269 19.7349L117.618 33.0836L104.275 46.4263Z" fill="#E65300"/>
<path d="M104.275 46.4263L90.9263 33.0776L104.269 19.7349L117.618 33.0836L104.275 46.4263Z" fill="black"/>
<path d="M108.164 21.1182L106.94 19.8948L104.435 22.4001L105.659 23.6235L108.164 21.1182Z" fill="#8C9091"/>
<path d="M110.023 22.977L108.799 21.7536L106.294 24.2589L107.517 25.4823L110.023 22.977Z" fill="#8C9091"/>
<path d="M111.881 24.8359L110.658 23.6124L108.152 26.1177L109.376 27.3412L111.881 24.8359Z" fill="#8C9091"/>
<path d="M113.74 26.6947L112.517 25.4713L110.012 27.9766L111.235 29.2L113.74 26.6947Z" fill="#8C9091"/>
<path d="M115.599 28.5535L114.375 27.3301L111.87 29.8355L113.094 31.0589L115.599 28.5535Z" fill="#8C9091"/>
<path d="M117.458 30.4125L116.234 29.1889L113.729 31.6942L114.953 32.9178L117.458 30.4125Z" fill="#8C9091"/>
<path d="M94.8152 34.4668L93.5918 33.2434L91.0865 35.7487L92.3099 36.9721L94.8152 34.4668Z" fill="#8C9091"/>
<path d="M96.6741 36.3256L95.4507 35.1022L92.9454 37.6075L94.1688 38.831L96.6741 36.3256Z" fill="#8C9091"/>
<path d="M98.5326 38.1845L97.3091 36.961L94.8038 39.4663L96.0273 40.6899L98.5326 38.1845Z" fill="#8C9091"/>
<path d="M100.392 40.0434L99.1685 38.8199L96.6631 41.3253L97.8865 42.5487L100.392 40.0434Z" fill="#8C9091"/>
<path d="M102.25 41.9021L101.027 40.6787L98.5215 43.184L99.7449 44.4074L102.25 41.9021Z" fill="#8C9091"/>
<path d="M104.109 43.7611L102.886 42.5375L100.38 45.0429L101.604 46.2664L104.109 43.7611Z" fill="#8C9091"/>
<path d="M117.458 35.7487L114.953 33.2434L113.729 34.4668L116.235 36.9721L117.458 35.7487Z" fill="#8C9091"/>
<path d="M115.599 37.6076L113.094 35.1022L111.87 36.3256L114.376 38.831L115.599 37.6076Z" fill="#8C9091"/>
<path d="M113.74 39.4663L111.235 36.961L110.011 38.1845L112.517 40.6899L113.74 39.4663Z" fill="#8C9091"/>
<path d="M111.881 41.3253L109.376 38.8199L108.153 40.0434L110.658 42.5487L111.881 41.3253Z" fill="#8C9091"/>
<path d="M110.023 43.1841L107.518 40.6788L106.294 41.9022L108.799 44.4075L110.023 43.1841Z" fill="#8C9091"/>
<path d="M108.164 45.0429L105.659 42.5375L104.435 43.7611L106.94 46.2664L108.164 45.0429Z" fill="#8C9091"/>
<path d="M104.109 22.4001L101.604 19.8948L100.381 21.1182L102.886 23.6235L104.109 22.4001Z" fill="#8C9091"/>
<path d="M102.25 24.2589L99.7451 21.7535L98.5217 22.9769L101.027 25.4823L102.25 24.2589Z" fill="#8C9091"/>
<path d="M100.392 26.1177L97.8862 23.6124L96.6627 24.8359L99.168 27.3412L100.392 26.1177Z" fill="#8C9091"/>
<path d="M98.5327 27.9766L96.0273 25.4713L94.8039 26.6947L97.3093 29.2L98.5327 27.9766Z" fill="#8C9091"/>
<path d="M96.6743 29.8355L94.1689 27.3301L92.9455 28.5535L95.4509 31.0589L96.6743 29.8355Z" fill="#8C9091"/>
<path d="M94.8154 31.6942L92.3101 29.1889L91.0865 30.4125L93.5918 32.9178L94.8154 31.6942Z" fill="#8C9091"/>
<path d="M139.318 38.9252L139.318 40.4086C139.318 40.5448 139.208 40.6554 139.072 40.6554L133.55 40.6554C133.414 40.6554 133.303 40.5447 133.303 40.4085L133.303 38.9238C133.303 38.7892 133.413 38.6799 133.547 38.6799L139.073 38.6799C139.208 38.6799 139.318 38.7898 139.318 38.9252Z" fill="#C3C5C6"/>
<path d="M133.547 37.8179L139.072 37.8179C139.208 37.8179 139.318 37.7076 139.318 37.574L139.318 36.0907C139.318 35.9543 139.208 35.841 139.072 35.841L133.547 35.841C133.411 35.841 133.303 35.9543 133.303 36.0907L133.303 37.574C133.303 37.7076 133.411 37.8179 133.547 37.8179Z" fill="#C3C5C6"/>
<path d="M139.318 33.2544L139.318 34.7363C139.318 34.8725 139.208 34.9831 139.072 34.9831L133.547 34.9831C133.413 34.9831 133.303 34.8738 133.303 34.7392L133.303 33.2515C133.303 33.1169 133.413 33.0076 133.547 33.0076L139.072 33.0076C139.208 33.0076 139.318 33.1182 139.318 33.2544Z" fill="#C3C5C6"/>
<path d="M139.318 30.4126L139.318 31.8959C139.318 32.0321 139.208 32.1426 139.072 32.1426L133.55 32.1426C133.414 32.1426 133.303 32.0321 133.303 31.8959L133.303 30.4154C133.303 30.2792 133.414 30.1687 133.55 30.1687L139.074 30.1687C139.209 30.1687 139.318 30.278 139.318 30.4126Z" fill="#C3C5C6"/>
<path d="M139.318 27.5763L139.318 29.0598C139.318 29.196 139.208 29.3065 139.072 29.3065L133.55 29.3065C133.414 29.3065 133.303 29.1959 133.303 29.0598L133.303 27.5735C133.303 27.4389 133.413 27.3296 133.547 27.3296L139.072 27.3296C139.208 27.3296 139.318 27.4402 139.318 27.5763Z" fill="#C3C5C6"/>
<path d="M166.385 50.165L166.385 18.3934L136.459 18.3934L136.459 50.165L166.385 50.165Z" fill="#9EA2A3"/>
<path d="M138.894 18.3934L136.459 18.3934L136.459 18.4451L136.459 50.078L136.459 50.165L138.894 50.165L138.894 50.078L138.894 18.3934Z" fill="#8C9091"/>
<path d="M143.763 18.3934L141.328 18.3934L141.328 18.4451L141.328 50.078L141.328 50.165L143.763 50.165L143.763 50.078L143.763 18.3934Z" fill="#8C9091"/>
<path d="M148.632 18.3934L146.198 18.3934L146.198 18.4451L146.198 50.078L146.198 50.165L148.632 50.165L148.632 50.078L148.632 18.3934Z" fill="#8C9091"/>
<path d="M153.501 18.3934L151.067 18.3934L151.067 18.4451L151.067 50.078L151.067 50.165L153.501 50.165L153.501 50.078L153.501 18.3934Z" fill="#8C9091"/>
<path d="M163.24 18.3934L160.805 18.3934L160.805 18.4451L160.805 50.078L160.805 50.165L163.24 50.165L163.24 50.078L163.24 18.3934Z" fill="#8C9091"/>
<path d="M158.371 18.3934L155.936 18.3934L155.936 18.4451L155.936 50.078L155.936 50.165L158.371 50.165L158.371 50.078L158.371 18.3934Z" fill="#8C9091"/>
<path d="M59.0982 49.3491L49.0283 49.3491L49.0283 53.36L59.0982 53.36L59.0982 49.3491Z" fill="#8C9091"/>
<path d="M50.9726 51.3557C50.9726 49.6446 52.3604 48.2592 54.0691 48.2592C55.78 48.2592 57.1655 49.6446 57.1655 51.3557C57.1655 53.0644 55.78 54.4521 54.0691 54.4521C52.3604 54.4521 50.9726 53.0644 50.9726 51.3557Z" fill="#EBA900"/>
<path d="M59.0982 37.8376L49.0283 37.8376L49.0283 41.8485L59.0982 41.8485L59.0982 37.8376Z" fill="#8C9091"/>
<path d="M50.9726 39.8442C50.9726 38.1332 52.3604 36.7477 54.0691 36.7477C55.78 36.7477 57.1655 38.1332 57.1655 39.8442C57.1655 41.5529 55.78 42.9406 54.0691 42.9406C52.3604 42.9406 50.9726 41.5529 50.9726 39.8442Z" fill="#EBA900"/>
<path d="M15.5552 40.6589C17.0851 40.6589 18.3291 41.9045 18.3291 43.4344C18.3291 44.9644 17.0851 46.2084 15.5552 46.2084C14.0252 46.2084 12.7797 44.9644 12.7797 43.4344C12.7797 41.9045 14.0252 40.6589 15.5552 40.6589Z" fill="white"/>
<path d="M15.5547 45.3949C14.4712 45.3949 13.5927 44.5164 13.5927 43.4338C13.5927 42.3501 14.4712 41.4716 15.5547 41.4716C16.6382 41.4716 17.5152 42.3501 17.5152 43.4338C17.5152 44.5164 16.6382 45.3949 15.5547 45.3949ZM15.5547 47.0218C17.5328 47.0218 19.1421 45.4122 19.1421 43.4338C19.1421 41.4548 17.5328 39.8447 15.5547 39.8447C13.5758 39.8447 11.9659 41.4548 11.9659 43.4338C11.9659 45.4122 13.5758 47.0218 15.5547 47.0218Z" fill="#ADB0B1"/>
<path d="M15.5552 30.8345C17.0851 30.8345 18.3291 32.0801 18.3291 33.61C18.3291 35.14 17.0851 36.384 15.5552 36.384C14.0252 36.384 12.7797 35.14 12.7797 33.61C12.7797 32.0801 14.0252 30.8345 15.5552 30.8345Z" fill="white"/>
<path d="M15.5547 35.5705C14.4712 35.5705 13.5927 34.692 13.5927 33.6094C13.5927 32.5257 14.4712 31.6472 15.5547 31.6472C16.6382 31.6472 17.5152 32.5257 17.5152 33.6094C17.5152 34.692 16.6382 35.5705 15.5547 35.5705ZM15.5547 37.1974C17.5328 37.1974 19.1421 35.5878 19.1421 33.6094C19.1421 31.6304 17.5328 30.0203 15.5547 30.0203C13.5766 30.0203 11.9659 31.6304 11.9659 33.6094C11.9659 35.5878 13.5758 37.1974 15.5547 37.1974Z" fill="#ADB0B1"/>
<path d="M15.5552 21.0101C17.0851 21.0101 18.3291 22.2556 18.3291 23.7856C18.3291 25.3155 17.0851 26.5595 15.5552 26.5595C14.0252 26.5595 12.7797 25.3155 12.7797 23.7856C12.7797 22.2556 14.0252 21.0101 15.5552 21.0101Z" fill="white"/>
<path d="M15.5547 25.7461C14.4712 25.7461 13.5927 24.8676 13.5927 23.7849C13.5927 22.7012 14.4712 21.8227 15.5547 21.8227C16.6382 21.8227 17.5152 22.7012 17.5152 23.7849C17.5152 24.8676 16.6382 25.7461 15.5547 25.7461ZM15.5547 27.3729C17.5328 27.3729 19.1421 25.7634 19.1421 23.7849C19.1421 21.8059 17.5328 20.1959 15.5547 20.1959C13.5758 20.1959 11.9659 21.8059 11.9659 23.7849C11.9659 25.7633 13.5758 27.3729 15.5547 27.3729Z" fill="#ADB0B1"/>
<path d="M5.73145 40.6589C7.26139 40.6589 8.50537 41.9045 8.50537 43.4344C8.50537 44.9644 7.26139 46.2084 5.73145 46.2084C4.2015 46.2084 2.95594 44.9644 2.95594 43.4344C2.95594 41.9045 4.2015 40.6589 5.73145 40.6589Z" fill="white"/>
<path d="M5.73097 45.3949C4.6475 45.3949 3.769 44.5164 3.769 43.4338C3.769 42.3501 4.64751 41.4716 5.73097 41.4716C6.81443 41.4716 7.69151 42.3501 7.69151 43.4338C7.69151 44.5164 6.81442 45.3949 5.73097 45.3949ZM5.73097 47.0218C7.70907 47.0218 9.31836 45.4122 9.31836 43.4338C9.31836 41.4548 7.70907 39.8447 5.73097 39.8447C3.75286 39.8447 2.14214 41.4548 2.14214 43.4338C2.14214 45.4122 3.75206 47.0218 5.73097 47.0218Z" fill="#ADB0B1"/>
<path d="M5.73145 30.8345C7.26139 30.8345 8.50537 32.0801 8.50537 33.61C8.50537 35.14 7.26139 36.384 5.73145 36.384C4.2015 36.384 2.95594 35.14 2.95594 33.61C2.95594 32.0801 4.2015 30.8345 5.73145 30.8345Z" fill="white"/>
<path d="M5.73097 35.5705C4.6475 35.5705 3.769 34.692 3.769 33.6094C3.769 32.5257 4.64751 31.6472 5.73097 31.6472C6.81443 31.6472 7.69151 32.5257 7.69151 33.6094C7.69151 34.692 6.81442 35.5705 5.73097 35.5705ZM5.73097 37.1974C7.70907 37.1974 9.31836 35.5878 9.31836 33.6094C9.31836 31.6304 7.70907 30.0203 5.73097 30.0203C3.75206 30.0203 2.14214 31.6304 2.14214 33.6094C2.14214 35.5878 3.75206 37.1974 5.73097 37.1974Z" fill="#ADB0B1"/>
<path d="M5.73145 21.0101C7.26139 21.0101 8.50537 22.2556 8.50537 23.7856C8.50537 25.3155 7.26139 26.5595 5.73145 26.5595C4.2015 26.5595 2.95594 25.3155 2.95594 23.7856C2.95594 22.2556 4.2015 21.0101 5.73145 21.0101Z" fill="white"/>
<path d="M5.73097 25.7461C4.6475 25.7461 3.769 24.8676 3.769 23.7849C3.769 22.7012 4.64751 21.8227 5.73097 21.8227C6.81442 21.8227 7.69151 22.7012 7.69151 23.7849C7.69151 24.8676 6.81442 25.7461 5.73097 25.7461ZM5.73097 27.3729C7.70907 27.3729 9.31836 25.7634 9.31836 23.7849C9.31836 21.8059 7.70907 20.1959 5.73097 20.1959C3.75206 20.1959 2.14214 21.8059 2.14214 23.7849C2.14214 25.7633 3.75206 27.3729 5.73097 27.3729Z" fill="#ADB0B1"/>
<path d="M74.1543 27.852L74.1543 25.5708L68.1985 25.5708L68.1985 27.852L74.1543 27.852Z" fill="#8C9091"/>
<path d="M74.1543 42.9901L74.1543 40.7062L68.1985 40.7062L68.1985 42.9901L74.1543 42.9901Z" fill="#8C9091"/>
<path d="M76.0479 41.1948L76.0479 27.0881L66.3012 27.0881L66.3012 41.1948L76.0479 41.1948Z" fill="#C3C5C6"/>
<path d="M67.4701 34.2805C67.4701 36.3265 69.1287 37.9851 71.1747 37.9851C73.2208 37.9851 74.8794 36.3265 74.8794 34.2805C74.8794 32.2344 73.2208 30.5758 71.1747 30.5758C69.1287 30.5758 67.4701 32.2344 67.4701 34.2805Z" fill="#F6F6F6"/>
</svg>
