<svg xmlns="http://www.w3.org/2000/svg" width="570" height="591" fill="none" viewBox="0 0 570 591"><g clip-path="url(#a)"><path fill="#fff" d="M0 0h570v591H0z"/><path fill="#f4f4f4" d="M386 89h172v455a5 5 0 0 1-5 5H391a5 5 0 0 1-5-5z"/><rect width="122" height="36" x="40" y="197" fill="#7f8c8d" rx="5"/><path fill="#fff" d="M59.834 220h1.6l3.062-9.953h-1.791l-1.907 6.884-.171.601-.164-.594-1.894-6.891h-1.798zm7.962-9.953v1.36h2.078v7.239h-2.078V220h5.865v-1.354h-2.126v-7.239h2.126v-1.36zM84.064 220v-9.953H82.41l-.014 6.822-3.213-6.822h-1.668V220h1.661l.007-6.85 3.233 6.85zm15.125-4.047v.116q0 .978.15 1.832.15.848.403 1.573.254.73.588 1.326.342.601.718 1.066.377.465.765.786.39.329.752.506l.329-.916a4 4 0 0 1-.547-.526 5.5 5.5 0 0 1-.527-.725 7.5 7.5 0 0 1-.458-.929 10 10 0 0 1-.376-1.142 11 11 0 0 1-.225-1.244 12 12 0 0 1-.096-1.593v-.144q0-.874.096-1.627.102-.752.273-1.374.184-.662.438-1.223.26-.561.553-.978a5 5 0 0 1 .431-.526q.219-.232.438-.397l-.329-.95a3.8 3.8 0 0 0-.752.506 5.2 5.2 0 0 0-.758.786q-.376.465-.718 1.067-.335.601-.595 1.319a10.48 10.48 0 0 0-.554 3.411M114.335 220v-9.953h-1.606v4.163h-3.35v-4.163h-1.599V220h1.599v-4.437h3.35V220zm3.581 0h2.515q.684 0 1.279-.164a4 4 0 0 0 1.093-.472q.438-.28.793-.676.363-.397.616-.882.26-.5.396-1.101.144-.609.144-1.285v-.779q0-.705-.151-1.327a5 5 0 0 0-.424-1.141 3.8 3.8 0 0 0-.663-.902 3.5 3.5 0 0 0-.895-.67 4.2 4.2 0 0 0-1.032-.404q-.568-.15-1.21-.15h-2.461zm1.661-8.613h.8q.396.006.738.095.342.083.615.24.376.212.65.553.273.335.437.752a4 4 0 0 1 .198.745q.069.404.069.855v.793q0 .458-.069.861a4 4 0 0 1-.198.745q-.15.404-.39.718a2.3 2.3 0 0 1-.533.513 2.4 2.4 0 0 1-.663.307 3 3 0 0 1-.8.103h-.854zm15.222 5.551h-1.648a3 3 0 0 1-.177.799 1.7 1.7 0 0 1-.363.581q-.233.24-.56.363-.329.123-.752.123-.356 0-.636-.096a1.5 1.5 0 0 1-.485-.294 1.8 1.8 0 0 1-.356-.424 2.8 2.8 0 0 1-.239-.547 4.4 4.4 0 0 1-.185-.799 8 8 0 0 1-.054-.937v-1.374q0-.404.041-.786.048-.39.136-.732.117-.389.294-.704.185-.321.458-.519.199-.165.452-.253a1.8 1.8 0 0 1 .581-.089q.458 0 .786.137.328.13.553.383.219.252.342.615.13.355.171.8h1.641a4.6 4.6 0 0 0-.335-1.354 3.1 3.1 0 0 0-.697-1.039 3 3 0 0 0-1.06-.656 4 4 0 0 0-1.401-.233 3.34 3.34 0 0 0-1.962.595 3.5 3.5 0 0 0-.752.745q-.321.431-.527.964a5.2 5.2 0 0 0-.287 1.019 6.4 6.4 0 0 0-.095 1.121v1.36q0 .608.095 1.169.103.56.301 1.039.198.486.485.896.294.403.684.69.403.308.916.478.52.165 1.135.165.752 0 1.367-.226a3.2 3.2 0 0 0 1.073-.656q.445-.417.718-1.005.273-.595.342-1.319m8.283-.869v-.116q0-.977-.157-1.811a11 11 0 0 0-.41-1.566 7.7 7.7 0 0 0-.595-1.326 8 8 0 0 0-.731-1.08 5.4 5.4 0 0 0-.78-.793 3.7 3.7 0 0 0-.765-.513l-.321.916a3.3 3.3 0 0 1 .43.41q.226.24.431.547.294.43.56 1.019.274.588.465 1.326.144.567.24 1.285.095.719.095 1.572v.144q0 .827-.089 1.538-.081.711-.232 1.313a7 7 0 0 1-.39 1.182 7 7 0 0 1-.485.964 5.6 5.6 0 0 1-.506.677 3.3 3.3 0 0 1-.519.485l.321.916q.369-.177.765-.506a5.4 5.4 0 0 0 .78-.806q.382-.465.724-1.067t.602-1.333q.26-.725.41-1.572a10 10 0 0 0 .157-1.805"/><rect width="41" height="24" x="80.5" y="238" fill="#1da086" rx="12"/><path fill="#fff" d="m93.058 250.064 1.305.322q.13-.123.267-.226.143-.11.314-.191.165-.075.376-.123.219-.048.513-.048.444 0 .78.15.334.144.56.41.225.267.335.629.116.356.116.786 0 .445-.096.828-.096.375-.287.642a1.4 1.4 0 0 1-.506.424q-.3.15-.71.15-.698 0-1.15-.389-.443-.39-.532-1.121H92.75q.04.69.321 1.223.287.527.732.882.444.363 1.018.547.575.178 1.203.178.828 0 1.436-.26t1.005-.711q.404-.451.594-1.053a4.1 4.1 0 0 0 .199-1.292q0-.772-.205-1.387a3 3 0 0 0-.588-1.06 2.6 2.6 0 0 0-.95-.663 3.2 3.2 0 0 0-1.258-.232q-.52 0-.923.129a3.4 3.4 0 0 0-.643.274l.26-2.386h3.992v-1.449h-5.352zM105.23 255h1.599l3.063-9.953h-1.791l-1.908 6.884-.17.601-.164-.594-1.894-6.891h-1.798z"/><rect width="81" height="36" x="61" y="309" fill="#7f8c8d" rx="5"/><path fill="#fff" d="M80.51 332h1.6l3.062-9.953h-1.79l-1.908 6.884-.17.601-.165-.594-1.893-6.891h-1.798zm7.703 0h3.445a4.8 4.8 0 0 0 1.367-.185 3.2 3.2 0 0 0 1.094-.56q.457-.362.718-.902t.252-1.251a2.5 2.5 0 0 0-.116-.766 2.2 2.2 0 0 0-.328-.67 2.3 2.3 0 0 0-.526-.499 2.3 2.3 0 0 0-.759-.342v-.013q.3-.124.526-.274.233-.158.417-.362.26-.28.397-.643a2.3 2.3 0 0 0 .15-.793q0-.697-.266-1.203a2.3 2.3 0 0 0-.725-.841 3.3 3.3 0 0 0-1.1-.485 5.5 5.5 0 0 0-1.36-.164h-3.186zm1.654-4.498h1.887q.403.007.717.123.315.11.534.314.218.206.328.499.11.288.11.664 0 .355-.138.649a1.3 1.3 0 0 1-.376.485q-.225.192-.547.301a2.2 2.2 0 0 1-.71.109h-1.805zm0-1.251v-2.844h1.552q.423.007.772.103.349.089.581.294.206.163.315.424.116.253.116.601 0 .329-.123.581a1.3 1.3 0 0 1-.335.431 1.6 1.6 0 0 1-.574.301 2.7 2.7 0 0 1-.739.109zm13.28 3.459.67 2.29h1.703l-3.186-9.953h-1.456L97.638 332h1.709l.676-2.29zm-2.707-1.408 1.163-3.938 1.141 3.938zm15.024-4.895v-1.36h-7.752v1.36h3.049V332h1.634v-8.593zm10.088 0v-1.36H117.8v1.36h3.049V332h1.634v-8.593z"/><rect width="61" height="24" x="71" y="350" fill="#1da086" rx="12"/><path fill="#fff" d="M84.953 361.285v1.285h.977q.424 0 .766.103.348.096.594.294.247.205.376.512a1.9 1.9 0 0 1 .13.739q0 .383-.116.683-.11.294-.321.493a1.4 1.4 0 0 1-.54.321 2.3 2.3 0 0 1-.711.102q-.37 0-.677-.109a1.55 1.55 0 0 1-.52-.308 1.3 1.3 0 0 1-.348-.464 1.6 1.6 0 0 1-.116-.609h-1.634q0 .697.267 1.224.273.52.724.875.452.355 1.046.533t1.237.178q.711 0 1.32-.192a3.2 3.2 0 0 0 1.066-.574q.444-.369.697-.909.26-.547.26-1.244 0-.376-.089-.725a2.2 2.2 0 0 0-.287-.663 2.2 2.2 0 0 0-.513-.54 2.4 2.4 0 0 0-.751-.396 2.65 2.65 0 0 0 1.12-.944q.186-.286.274-.595a2 2 0 0 0 .096-.615q0-.697-.233-1.223a2.45 2.45 0 0 0-.656-.889 2.7 2.7 0 0 0-1.012-.533 4.3 4.3 0 0 0-1.292-.185q-.69 0-1.271.205a3.2 3.2 0 0 0-.998.568 2.7 2.7 0 0 0-.663.868q-.24.498-.24 1.094h1.634q.001-.322.116-.582.124-.26.335-.444.206-.184.486-.28.287-.102.622-.103.376 0 .663.103.294.102.485.287.192.198.287.478.103.28.103.636 0 .328-.11.615a1.2 1.2 0 0 1-.3.472q-.212.219-.54.342a2.3 2.3 0 0 1-.766.116zm10.395 4.731q0 .472.308.799.315.322.875.322.555 0 .868-.322.322-.32.322-.799t-.315-.807q-.314-.335-.875-.335-.575 0-.882.335-.3.334-.3.807m14.471-8.053v-.916h-6.884v1.367h5.161L104.117 367h1.723zm6 9.037h1.599l3.063-9.953h-1.791l-1.907 6.884-.171.601-.164-.594-1.894-6.891h-1.798z"/><rect width="172" height="36" x="386" y="62" fill="#7f8c8d" rx="5"/><path fill="#fff" d="M405.189 75.047h-2.037V85h1.538v-3.377l-.089-4.28 1.388 4.588h.855l1.531-4.751-.096 4.443V85h1.545v-9.953h-2.044l-1.36 4.259zm14.86 6.89h-1.647q-.042.452-.178.8a1.7 1.7 0 0 1-.362.581q-.233.24-.561.363a2.1 2.1 0 0 1-.752.123q-.356 0-.636-.096a1.5 1.5 0 0 1-.485-.294 1.8 1.8 0 0 1-.355-.424 2.7 2.7 0 0 1-.24-.547 4.4 4.4 0 0 1-.184-.8 8 8 0 0 1-.055-.936v-1.374q0-.403.041-.786.048-.39.137-.732.115-.39.294-.704.184-.32.458-.52.198-.163.451-.252.26-.09.581-.089.458 0 .786.137.328.13.554.382.219.254.342.616.13.355.17.8h1.641a4.6 4.6 0 0 0-.335-1.354 3.1 3.1 0 0 0-.697-1.039 3 3 0 0 0-1.06-.656 4 4 0 0 0-1.401-.233 3.5 3.5 0 0 0-1.073.157q-.486.158-.889.438a3.5 3.5 0 0 0-.752.745 4 4 0 0 0-.526.964 5 5 0 0 0-.287 1.019q-.096.54-.096 1.12v1.361q0 .609.096 1.169.102.56.3 1.039.198.486.486.895.294.405.683.691.404.308.916.478.52.165 1.135.165.752 0 1.367-.226a3.2 3.2 0 0 0 1.073-.656 3.2 3.2 0 0 0 .718-1.005q.274-.595.342-1.32m5.139-2.652v1.285h.978q.423 0 .765.103.35.096.595.294.246.204.376.513.13.307.13.738 0 .383-.116.683-.11.294-.322.493a1.4 1.4 0 0 1-.54.32 2.3 2.3 0 0 1-.711.103q-.369 0-.676-.109a1.6 1.6 0 0 1-.52-.308 1.3 1.3 0 0 1-.349-.465 1.6 1.6 0 0 1-.116-.608h-1.634q0 .697.267 1.224.273.52.725.875.45.356 1.046.533a4.3 4.3 0 0 0 1.237.178 4.4 4.4 0 0 0 1.319-.192q.615-.198 1.067-.574.444-.37.697-.91.26-.546.26-1.243 0-.375-.089-.725a2.2 2.2 0 0 0-.287-.663q-.199-.3-.513-.54a2.5 2.5 0 0 0-.752-.396 2.64 2.64 0 0 0 1.121-.944q.184-.287.273-.594.096-.308.096-.616 0-.697-.232-1.223a2.5 2.5 0 0 0-.656-.89 2.8 2.8 0 0 0-1.012-.532 4.3 4.3 0 0 0-1.292-.185q-.69 0-1.272.205a3.2 3.2 0 0 0-.998.568 2.7 2.7 0 0 0-.663.868 2.5 2.5 0 0 0-.239 1.093h1.634q0-.32.116-.58a1.35 1.35 0 0 1 .335-.445q.205-.184.485-.28.288-.103.622-.103.376 0 .663.103.294.102.486.287.19.199.287.478.102.281.102.636 0 .328-.109.616a1.2 1.2 0 0 1-.301.471q-.212.219-.54.342a2.3 2.3 0 0 1-.765.116zm13.732 2.167v-6.405h-1.682l-4.3 6.726.041 1.005h4.307V85h1.634v-2.222h1.251v-1.326zm-4.314 0 2.489-3.862.191-.356v4.218zm10.752-.246h1.688a4.2 4.2 0 0 0 1.381-.219 3.2 3.2 0 0 0 1.094-.622q.457-.395.711-.95.252-.56.253-1.25 0-.72-.253-1.293a2.8 2.8 0 0 0-.711-.978 3.2 3.2 0 0 0-1.094-.622 4.3 4.3 0 0 0-1.381-.225h-3.329V85h1.641zm0-1.34v-3.48h1.688q.417.007.745.137.336.13.568.37.233.24.348.567.123.32.123.718 0 .362-.123.67a1.4 1.4 0 0 1-.348.533q-.232.226-.568.355a2.2 2.2 0 0 1-.745.13zm14.312.896v-1.354h-4.211v-3h4.813v-1.361h-6.467V85h1.654v-4.238zM468.234 85v-9.953h-.102l-4.095 1.517v1.443l2.55-.937V85zm5.912-4.936 1.305.322q.13-.123.267-.226.143-.11.314-.191.165-.075.376-.123.219-.048.513-.048.444 0 .779.15.336.144.561.41.225.267.335.63.116.354.116.785 0 .445-.096.828-.095.375-.287.642a1.4 1.4 0 0 1-.506.424q-.3.15-.711.15-.696 0-1.148-.39-.444-.389-.533-1.12h-1.593q.04.69.321 1.223.288.526.732.882.445.363 1.018.547.575.177 1.203.178.827 0 1.436-.26t1.005-.711q.403-.45.595-1.053a4.2 4.2 0 0 0 .198-1.292q0-.772-.205-1.387a3 3 0 0 0-.588-1.06 2.6 2.6 0 0 0-.95-.663 3.2 3.2 0 0 0-1.258-.233q-.52 0-.923.13a3.4 3.4 0 0 0-.643.274l.26-2.386h3.992v-1.45h-5.352zm10.088 0 1.306.322q.13-.123.266-.226a2 2 0 0 1 .315-.191q.163-.075.376-.123a2.4 2.4 0 0 1 .512-.048q.444 0 .78.15.335.144.56.41.225.267.335.63.117.354.116.785 0 .445-.095.828-.096.375-.288.642a1.4 1.4 0 0 1-.505.424q-.302.15-.711.15-.697 0-1.149-.39-.444-.389-.533-1.12h-1.593q.042.69.322 1.223.287.526.731.882.444.363 1.019.547.573.177 1.203.178.827 0 1.435-.26t1.005-.711q.403-.45.595-1.053a4.2 4.2 0 0 0 .198-1.292q0-.772-.205-1.387a3 3 0 0 0-.588-1.06 2.6 2.6 0 0 0-.95-.663 3.2 3.2 0 0 0-1.258-.233q-.52 0-.923.13a3.4 3.4 0 0 0-.642.274l.259-2.386h3.993v-1.45h-5.353zm16.227 1.142v-2.358q0-.957-.226-1.689a3.6 3.6 0 0 0-.636-1.244 2.7 2.7 0 0 0-1.025-.752 3.35 3.35 0 0 0-1.353-.26q-.753 0-1.354.26a2.66 2.66 0 0 0-1.012.752 3.6 3.6 0 0 0-.642 1.244q-.219.731-.219 1.689v2.358q0 .957.219 1.695.226.732.649 1.224a2.7 2.7 0 0 0 1.019.766 3.5 3.5 0 0 0 1.353.253q.759 0 1.354-.253a2.6 2.6 0 0 0 1.011-.766q.417-.492.636-1.224.226-.738.226-1.695m-4.826-.581v-2.071q0-.615.109-1.067.11-.457.335-.745.192-.252.478-.383a1.6 1.6 0 0 1 .664-.13q.348 0 .622.11.28.11.471.328.22.246.335.636.123.39.151.923zm3.178.855q0 .628-.116 1.093-.109.465-.335.752-.199.246-.478.376a1.6 1.6 0 0 1-.65.123q-.375 0-.663-.13a1.2 1.2 0 0 1-.472-.39q-.191-.24-.307-.6a4 4 0 0 1-.144-.835l3.165-2.386v1.997m10.143 1.23.67 2.29h1.702l-3.185-9.953h-1.456L503.446 85h1.709l.677-2.29zm-2.707-1.408 1.162-3.938 1.142 3.938zm14.388-.096v-2.358q0-.957-.225-1.689a3.7 3.7 0 0 0-.636-1.244 2.7 2.7 0 0 0-1.026-.752 3.35 3.35 0 0 0-1.353-.26q-.752 0-1.354.26-.594.254-1.011.752a3.6 3.6 0 0 0-.643 1.244q-.219.731-.219 1.689v2.358q0 .957.219 1.695.225.732.65 1.224.417.505 1.018.766.601.253 1.354.253.758 0 1.353-.253a2.6 2.6 0 0 0 1.012-.766q.417-.492.636-1.224.225-.738.225-1.695m-4.826-.581v-2.071q0-.615.109-1.067.11-.457.335-.745.192-.252.479-.383.287-.13.663-.13.349 0 .622.11.28.11.472.328.218.246.335.636.123.39.15.923zm3.179.855q0 .628-.117 1.093-.108.465-.334.752-.199.246-.479.376a1.6 1.6 0 0 1-.649.123 1.6 1.6 0 0 1-.664-.13 1.2 1.2 0 0 1-.471-.39q-.192-.24-.308-.6a3.8 3.8 0 0 1-.143-.835l3.165-2.386v1.997m11.161-.944V79.21h-4.115v-2.803h4.771v-1.36h-6.419V85h6.454v-1.353h-4.806v-3.11zm6 .67h1.689a4.2 4.2 0 0 0 1.381-.219 3.2 3.2 0 0 0 1.094-.622 2.75 2.75 0 0 0 .71-.95q.253-.56.253-1.25 0-.72-.253-1.293a2.8 2.8 0 0 0-.71-.978 3.2 3.2 0 0 0-1.094-.622 4.3 4.3 0 0 0-1.381-.225h-3.329V85h1.64zm0-1.34v-3.48h1.689q.417.007.745.137.334.13.567.37t.349.567q.123.32.123.718 0 .362-.123.67a1.44 1.44 0 0 1-.349.533q-.233.226-.567.355a2.2 2.2 0 0 1-.745.13z"/><path fill="#000" d="M142.47 327.53a.75.75 0 0 1 0-1.06l4.773-4.773a.749.749 0 1 1 1.06 1.06L144.061 327l4.242 4.243a.749.749 0 1 1-1.06 1.06zm90.06 193.94a.75.75 0 0 1 0 1.06l-4.773 4.773a.749.749 0 1 1-1.06-1.06l4.242-4.243-4.242-4.243a.749.749 0 1 1 1.06-1.06zM143 326.25h19.698v1.5H143zm25.447 5.75v185h-1.5V332zm4.25 189.25H232v1.5h-59.303zm-4.25-4.25a4.25 4.25 0 0 0 4.25 4.25v1.5a5.75 5.75 0 0 1-5.75-5.75zm-5.749-190.75a5.75 5.75 0 0 1 5.749 5.75h-1.5a4.25 4.25 0 0 0-4.249-4.25zM276.53 130.53a.75.75 0 0 0 0-1.06l-4.773-4.773a.749.749 0 1 0-1.06 1.06l4.242 4.243-4.242 4.243a.749.749 0 1 0 1.06 1.06zm-.53-1.28H141v1.5h135zM689.53 130.53a.75.75 0 0 0 0-1.06l-4.773-4.773a.749.749 0 1 0-1.06 1.06l4.242 4.243-4.242 4.243a.749.749 0 1 0 1.06 1.06zm-.53-1.28H505v1.5h184zM418.53 130.53a.75.75 0 0 0 0-1.06l-4.773-4.773a.749.749 0 1 0-1.06 1.06l4.242 4.243-4.242 4.243a.749.749 0 1 0 1.06 1.06zm-.53-1.28h-99v1.5h99zM418.53 522.53a.75.75 0 0 0 0-1.06l-4.773-4.773a.749.749 0 1 0-1.06 1.06l4.242 4.243-4.242 4.243a.749.749 0 1 0 1.06 1.06zm-.53-1.28H317v1.5h101z"/><circle cx="186" cy="130" r="4" fill="#000"/><path fill="#1da086" d="M236 130c0-6.627 5.373-12 12-12h78c6.627 0 12 5.373 12 12s-5.373 12-12 12h-78c-6.627 0-12-5.373-12-12"/><path fill="#fff" d="m248.793 130.064 1.306.322q.13-.123.266-.226.144-.11.315-.191.163-.075.376-.123.218-.048.512-.048.444 0 .78.15a1.5 1.5 0 0 1 .56.41q.225.267.335.629.116.355.116.786 0 .445-.095.828-.096.375-.288.642a1.4 1.4 0 0 1-.505.424q-.301.15-.711.15-.698 0-1.149-.389-.444-.39-.533-1.121h-1.593q.042.69.322 1.223.287.527.731.882a3.1 3.1 0 0 0 1.019.547q.573.178 1.203.178.827 0 1.435-.26t1.005-.711q.403-.451.595-1.053.198-.608.198-1.292 0-.772-.205-1.387a3 3 0 0 0-.588-1.06 2.6 2.6 0 0 0-.95-.663 3.2 3.2 0 0 0-1.258-.232q-.52 0-.923.129a3.4 3.4 0 0 0-.642.274l.259-2.386h3.993v-1.449h-5.353zM260.966 135h1.6l3.062-9.953h-1.791l-1.907 6.884-.171.601-.164-.594-1.894-6.891h-1.797zm19.178-4.047v.116q0 .978.151 1.832.15.848.403 1.573.254.73.588 1.326.342.601.718 1.066t.765.786q.39.329.752.506l.328-.916a4 4 0 0 1-.546-.526 5.5 5.5 0 0 1-.527-.725 7.5 7.5 0 0 1-.458-.929 10 10 0 0 1-.376-1.142 11 11 0 0 1-.225-1.244 12 12 0 0 1-.096-1.593v-.144q0-.874.096-1.627.102-.752.273-1.374.184-.662.438-1.223.26-.561.553-.978a5 5 0 0 1 .431-.526q.22-.232.437-.397l-.328-.95a3.8 3.8 0 0 0-.752.506 5.2 5.2 0 0 0-.758.786q-.376.465-.718 1.067-.335.601-.595 1.319a10.507 10.507 0 0 0-.554 3.411M291.231 135h1.599l3.063-9.953h-1.791l-1.908 6.884-.17.601-.164-.594-1.894-6.891h-1.798zm7.962-9.953v1.36h2.078v7.239h-2.078V135h5.865v-1.354h-2.126v-7.239h2.126v-1.36zM315.461 135v-9.953h-1.655l-.013 6.822-3.213-6.822h-1.668V135h1.661l.007-6.85 3.233 6.85zm8.577-3.931v-.116q0-.977-.157-1.811a11 11 0 0 0-.41-1.566 7.92 7.92 0 0 0-1.326-2.406 5.4 5.4 0 0 0-.78-.793 3.7 3.7 0 0 0-.765-.513l-.322.916q.212.165.431.41.225.24.431.547.294.43.56 1.019.274.588.465 1.326.144.567.239 1.285.096.719.096 1.572v.144q0 .827-.089 1.538-.081.711-.232 1.313a7 7 0 0 1-.39 1.182 7 7 0 0 1-.485.964 5.6 5.6 0 0 1-.506.677 3.3 3.3 0 0 1-.52.485l.322.916q.369-.177.765-.506a5.5 5.5 0 0 0 .78-.806q.382-.465.724-1.067t.602-1.333q.26-.725.41-1.572a10 10 0 0 0 .157-1.805"/><path fill="#1da086" d="M233 522c0-6.627 5.373-12 12-12h108c6.627 0 12 5.373 12 12s-5.373 12-12 12H245c-6.627 0-12-5.373-12-12"/><path fill="#fff" d="M247.144 521.285v1.285h.977q.424 0 .766.103.35.096.595.294.246.205.376.512.13.309.13.739 0 .383-.117.683-.109.294-.321.493a1.4 1.4 0 0 1-.54.321 2.3 2.3 0 0 1-.711.102q-.369 0-.677-.109a1.6 1.6 0 0 1-.519-.308 1.3 1.3 0 0 1-.349-.464 1.6 1.6 0 0 1-.116-.609h-1.634q0 .697.267 1.224a2.7 2.7 0 0 0 .725.875q.45.355 1.045.533a4.3 4.3 0 0 0 1.238.178q.71 0 1.319-.192.615-.198 1.066-.574.445-.369.698-.909.26-.547.259-1.244 0-.376-.088-.725a2.2 2.2 0 0 0-.287-.663q-.2-.3-.513-.54a2.4 2.4 0 0 0-.752-.396 2.64 2.64 0 0 0 1.121-.944q.184-.286.273-.595.096-.308.096-.615 0-.697-.232-1.223a2.45 2.45 0 0 0-.657-.889 2.74 2.74 0 0 0-1.011-.533 4.3 4.3 0 0 0-1.292-.185q-.69 0-1.272.205a3.2 3.2 0 0 0-.998.568 2.7 2.7 0 0 0-.663.868 2.5 2.5 0 0 0-.239 1.094h1.634q0-.322.116-.582a1.388 1.388 0 0 1 .82-.724q.288-.102.622-.103.377 0 .663.103.294.102.486.287.19.198.287.478.102.28.102.636 0 .329-.109.615a1.2 1.2 0 0 1-.301.472q-.212.219-.54.342a2.3 2.3 0 0 1-.766.116zm10.396 4.731q0 .471.307.799.315.322.875.322.554 0 .869-.322.321-.32.321-.799 0-.478-.315-.807-.314-.335-.875-.335-.573 0-.881.335a1.16 1.16 0 0 0-.301.807m14.47-8.053v-.916h-6.884v1.367h5.161L266.309 527h1.722zm6 9.037h1.6l3.062-9.953h-1.791l-1.907 6.884-.171.601-.164-.594-1.894-6.891h-1.797zm19.178-4.047v.116q0 .978.151 1.832.15.848.403 1.573.253.73.588 1.326.342.601.718 1.066t.765.786q.39.329.752.506l.329-.916a4 4 0 0 1-.547-.526 5.5 5.5 0 0 1-.527-.725 7.5 7.5 0 0 1-.458-.929 10 10 0 0 1-.376-1.142 11 11 0 0 1-.225-1.244 12 12 0 0 1-.096-1.593v-.144q0-.874.096-1.627.102-.751.273-1.374.185-.663.438-1.223.26-.561.553-.978a5 5 0 0 1 .431-.526q.219-.232.438-.397l-.329-.95a3.8 3.8 0 0 0-.752.506 5.2 5.2 0 0 0-.758.786q-.376.465-.718 1.067-.335.601-.595 1.319a10.507 10.507 0 0 0-.554 3.411M308.275 527h1.599l3.063-9.953h-1.791l-1.907 6.884-.171.601-.164-.594-1.894-6.891h-1.798zm7.702 0h3.446q.738 0 1.367-.185a3.2 3.2 0 0 0 1.093-.56q.459-.362.718-.902.26-.54.253-1.251 0-.404-.116-.766a2.2 2.2 0 0 0-.328-.67 2.3 2.3 0 0 0-.527-.499 2.3 2.3 0 0 0-.758-.342v-.013q.3-.124.526-.274.232-.158.417-.362.26-.28.396-.643.144-.369.151-.793 0-.697-.267-1.203a2.27 2.27 0 0 0-.724-.841 3.3 3.3 0 0 0-1.101-.485 5.4 5.4 0 0 0-1.36-.164h-3.186zm1.654-4.498h1.887q.403.007.718.123.314.11.533.314.219.206.328.499.11.288.11.664 0 .355-.137.649a1.3 1.3 0 0 1-.376.485q-.226.192-.547.301a2.2 2.2 0 0 1-.711.109h-1.805zm0-1.251v-2.844h1.552q.424.007.773.103.348.089.581.294.204.163.314.424.116.253.116.601 0 .329-.123.581a1.3 1.3 0 0 1-.335.431 1.6 1.6 0 0 1-.574.301 2.7 2.7 0 0 1-.738.109zm13.281 3.459.67 2.29h1.702l-3.185-9.953h-1.456L325.402 527h1.709l.677-2.29zm-2.707-1.408 1.162-3.938 1.142 3.938zm15.024-4.895v-1.36h-7.752v1.36h3.049V527h1.633v-8.593zm7.942 4.662v-.116q0-.977-.158-1.811a11 11 0 0 0-.41-1.566 7.7 7.7 0 0 0-.595-1.326 8 8 0 0 0-.731-1.08 5.4 5.4 0 0 0-.779-.793 3.7 3.7 0 0 0-.766-.513l-.321.916q.212.165.43.41.226.24.431.547.294.43.561 1.019.273.588.464 1.326.144.567.24 1.285.095.719.095 1.572v.144q0 .827-.088 1.538-.083.711-.233 1.313a7 7 0 0 1-.39 1.182 7 7 0 0 1-.485.964 5.6 5.6 0 0 1-.506.677 3.3 3.3 0 0 1-.519.485l.321.916q.369-.177.766-.506.396-.327.779-.806.383-.465.725-1.067t.601-1.333q.26-.724.41-1.572a10 10 0 0 0 .158-1.805"/><path fill="#000" d="M418.617 354.53a.75.75 0 0 0 0-1.06l-4.773-4.773a.75.75 0 0 0-1.061 1.06l4.243 4.243-4.243 4.243a.749.749 0 1 0 1.061 1.06zM600.25 310v11.176h1.5V310zM596 325.426H399v1.5h197zm-202.75 5.75V349h1.5v-17.824zM399 354.75h19.087v-1.5H399zm-5.75-5.75a5.75 5.75 0 0 0 5.75 5.75v-1.5a4.25 4.25 0 0 1-4.25-4.25zm5.75-23.574a5.75 5.75 0 0 0-5.75 5.75h1.5a4.25 4.25 0 0 1 4.25-4.25zm201.25-4.25a4.25 4.25 0 0 1-4.25 4.25v1.5a5.75 5.75 0 0 0 5.75-5.75zM418.538 297.53a.75.75 0 0 0 0-1.06l-4.773-4.773a.749.749 0 1 0-1.06 1.06l4.242 4.243-4.242 4.243a.749.749 0 1 0 1.06 1.06zm0-111a.75.75 0 0 0 0-1.06l-4.773-4.773a.749.749 0 1 0-1.06 1.06l4.242 4.243-4.242 4.243a.749.749 0 1 0 1.06 1.06zm0 56a.75.75 0 0 0 0-1.06l-4.773-4.773a.749.749 0 1 0-1.06 1.06l4.242 4.243-4.242 4.243a.749.749 0 1 0 1.06 1.06zM634.25 140v12.5h1.5V140zM630 156.75H399v1.5h231zm-231 141h19.008v-1.5H399zm-5.75-135.25V186h1.5v-23.5zm.75 24.25h24.008v-1.5H394zm-.75-.75v56h1.5v-56zm0 56v50h1.5v-50zm.75.75h24.008v-1.5H394zm5 53.5a4.25 4.25 0 0 1-4.25-4.25h-1.5a5.75 5.75 0 0 0 5.75 5.75zm0-139.5a5.75 5.75 0 0 0-5.75 5.75h1.5a4.25 4.25 0 0 1 4.25-4.25zm235.25-4.25a4.25 4.25 0 0 1-4.25 4.25v1.5a5.75 5.75 0 0 0 5.75-5.75z"/><path stroke="#000" stroke-linejoin="round" stroke-miterlimit="3.747" stroke-width="1.5" d="M572 186h-26M571 242h-54M573 298h-57M572 354h-25M572 410h-34M573 466h-36"/><path fill="#000" d="M418.587 466.53a.75.75 0 0 0 0-1.06l-4.773-4.773a.75.75 0 0 0-1.061 1.06l4.243 4.243-4.243 4.243a.749.749 0 1 0 1.061 1.06zm-.057-55.771a.75.75 0 0 0 0-1.061l-4.773-4.773a.749.749 0 1 0-1.06 1.061l4.242 4.242-4.242 4.243a.75.75 0 0 0 1.06 1.061zM600.25 366v11.579h1.5V366zM596 381.829H399v1.5h197zM399 466.75h19.056v-1.5H399zm-5.75-79.171v22.649h1.5v-22.649zm0 22.649V461h1.5v-50.772zm.75.75h24v-1.5h-24zm5 54.272a4.25 4.25 0 0 1-4.25-4.25h-1.5a5.75 5.75 0 0 0 5.75 5.75zm0-83.421a5.75 5.75 0 0 0-5.75 5.75h1.5a4.25 4.25 0 0 1 4.25-4.25zm201.25-4.25a4.25 4.25 0 0 1-4.25 4.25v1.5a5.75 5.75 0 0 0 5.75-5.75zM888.53 100.102a.75.75 0 0 0 0-1.06l-4.773-4.774a.75.75 0 1 0-1.06 1.06l4.242 4.243-4.242 4.243a.75.75 0 0 0 1.06 1.061zM162 215.75h19v-1.5h-19zm24.75-5.75V45h-1.5v165zM191 40.75h646.079v-1.5H191zM841.329 45v49.571h1.5V45zm5.75 55.321H888v-1.5h-40.921zm-5.75-5.75a5.75 5.75 0 0 0 5.75 5.75v-1.5a4.25 4.25 0 0 1-4.25-4.25zm-4.25-53.821a4.25 4.25 0 0 1 4.25 4.25h1.5a5.75 5.75 0 0 0-5.75-5.75zM186.75 45a4.25 4.25 0 0 1 4.25-4.25v-1.5a5.75 5.75 0 0 0-5.75 5.75zM181 215.75a5.75 5.75 0 0 0 5.75-5.75h-1.5a4.25 4.25 0 0 1-4.25 4.25z"/><path fill="#f1c40f" d="M419 118h50v24h-50z"/><path fill="#202020" d="M433.017 133.646v-8.599h-1.647V135h6.398v-1.354zm8.222 1.354h2.516a4.8 4.8 0 0 0 1.278-.164 4 4 0 0 0 1.094-.472q.438-.28.793-.676.362-.397.615-.882.26-.5.397-1.101.143-.609.143-1.285v-.779q0-.705-.15-1.327a5 5 0 0 0-.424-1.141 3.9 3.9 0 0 0-.663-.902 3.5 3.5 0 0 0-.896-.67 4.2 4.2 0 0 0-1.032-.404q-.567-.15-1.21-.15h-2.461zm1.661-8.613h.8q.397 0 .738.089.342.089.616.246.375.211.649.547.273.335.438.758.129.343.198.745.068.404.068.855v.793q0 .458-.068.861a4 4 0 0 1-.198.745 3 3 0 0 1-.383.711q-.233.315-.54.52a2.4 2.4 0 0 1-.663.307 3 3 0 0 1-.8.103h-.855zm15.25 4.3v-1.313a6.4 6.4 0 0 0-.11-1.196 5 5 0 0 0-.328-1.087 4 4 0 0 0-.492-.868 3.158 3.158 0 0 0-1.586-1.149 3.5 3.5 0 0 0-1.094-.164q-.588 0-1.08.164a2.9 2.9 0 0 0-.868.451 3.3 3.3 0 0 0-.69.711 4.3 4.3 0 0 0-.486.889 5.4 5.4 0 0 0-.307 1.073q-.103.567-.103 1.176v1.313q0 .58.096 1.134.096.547.28 1.033.198.506.499.929t.697.725q.39.294.882.465.5.164 1.094.164a3.4 3.4 0 0 0 1.06-.158q.485-.156.875-.43.41-.301.724-.718.315-.423.527-.923.198-.499.3-1.059a6 6 0 0 0 .11-1.162m-1.655-1.327v1.327q0 .362-.041.724a4 4 0 0 1-.123.691q-.095.375-.259.69a1.9 1.9 0 0 1-.397.533 1.5 1.5 0 0 1-.492.315 1.6 1.6 0 0 1-.629.116q-.363 0-.643-.116a1.7 1.7 0 0 1-.485-.328 2 2 0 0 1-.376-.534 3.6 3.6 0 0 1-.239-.69 4.5 4.5 0 0 1-.116-.684 8 8 0 0 1-.035-.717v-1.327q0-.37.035-.731a5 5 0 0 1 .123-.697q.088-.384.253-.691.163-.314.403-.533.198-.192.465-.294a1.6 1.6 0 0 1 .601-.109q.35 0 .622.109.274.11.486.301.239.219.403.533.17.308.274.684.089.328.129.69.042.363.041.738"/><path fill="#c11f09" d="M469 118h40v24h-40z"/><path fill="#fff" d="M486.648 135v-1.319h-4.634l2.214-2.366q.438-.464.807-.902.376-.438.649-.868.267-.431.417-.868.158-.445.158-.916 0-.63-.205-1.149a2.5 2.5 0 0 0-.595-.902 2.8 2.8 0 0 0-.978-.588 3.8 3.8 0 0 0-1.305-.212q-.78 0-1.415.253-.63.254-1.067.684a3 3 0 0 0-.683 1.011q-.24.575-.24 1.224h1.641q0-.43.109-.766a1.5 1.5 0 0 1 .328-.574q.212-.232.534-.355.321-.123.758-.123.342 0 .616.116.28.115.478.321t.301.492a1.9 1.9 0 0 1 .027 1.156 2.5 2.5 0 0 1-.232.547 6 6 0 0 1-.444.649q-.274.349-.677.793l-3.24 3.527V135zm8.544-2.29.669 2.29h1.703l-3.186-9.953h-1.456l-3.24 9.953h1.709l.677-2.29zm-2.707-1.408 1.162-3.938 1.141 3.938z"/><path fill="#f1c40f" d="M419 174h60v24h-60z"/><path fill="#202020" d="M431.107 191h2.516a4.8 4.8 0 0 0 1.278-.164 4 4 0 0 0 1.094-.472q.437-.28.793-.676.362-.397.615-.882.26-.5.396-1.101.144-.609.144-1.285v-.779q0-.705-.151-1.327a5 5 0 0 0-.423-1.141 3.9 3.9 0 0 0-.663-.902 3.5 3.5 0 0 0-.896-.67 4.2 4.2 0 0 0-1.032-.404 4.7 4.7 0 0 0-1.21-.15h-2.461zm1.661-8.613h.8q.396.006.738.095.342.083.615.24.377.212.65.553.273.335.437.752.13.343.199.745.068.404.068.855v.793q0 .458-.068.861a4 4 0 0 1-.199.745q-.15.404-.389.718a2.3 2.3 0 0 1-.534.513 2.4 2.4 0 0 1-.663.307 3 3 0 0 1-.799.103h-.855zm15.222 5.551h-1.647q-.042.45-.178.799a1.7 1.7 0 0 1-.362.581q-.232.24-.561.363a2.1 2.1 0 0 1-.752.123q-.356 0-.636-.096a1.5 1.5 0 0 1-.485-.294 1.8 1.8 0 0 1-.355-.424 2.7 2.7 0 0 1-.24-.547 4.4 4.4 0 0 1-.184-.799 8 8 0 0 1-.055-.937v-1.374q0-.404.041-.786.048-.39.137-.732.116-.389.294-.704.184-.321.458-.519.198-.165.451-.253.26-.089.581-.089.457 0 .786.137.328.13.554.383.219.252.342.615.13.355.17.8h1.641a4.6 4.6 0 0 0-.335-1.354 3.1 3.1 0 0 0-.697-1.039 3 3 0 0 0-1.06-.656 4 4 0 0 0-1.401-.233q-.58 0-1.073.158a3.3 3.3 0 0 0-.889.437 3.5 3.5 0 0 0-.752.745q-.322.431-.526.964a5 5 0 0 0-.287 1.019 6.4 6.4 0 0 0-.096 1.121v1.36q0 .608.096 1.169.102.56.3 1.039.199.486.486.896.294.403.683.69.404.308.916.478.52.165 1.135.165.752 0 1.367-.226a3.2 3.2 0 0 0 1.074-.656q.444-.417.717-1.005.274-.595.342-1.319m3.293 3.062h2.516a4.8 4.8 0 0 0 1.278-.164 4 4 0 0 0 1.094-.472q.438-.28.793-.676.363-.397.615-.882.26-.5.397-1.101.143-.609.143-1.285v-.779q0-.705-.15-1.327a5 5 0 0 0-.424-1.141 3.9 3.9 0 0 0-.663-.902 3.5 3.5 0 0 0-.896-.67 4.2 4.2 0 0 0-1.032-.404q-.567-.15-1.21-.15h-2.461zm1.661-8.613h.8q.397.006.739.095.341.083.615.24.375.212.649.553.274.335.438.752.129.343.198.745.068.404.068.855v.793q0 .458-.068.861a4 4 0 0 1-.198.745q-.15.404-.39.718a2.3 2.3 0 0 1-.533.513 2.4 2.4 0 0 1-.663.307 3 3 0 0 1-.8.103h-.855zm15.222 5.551h-1.647a3 3 0 0 1-.178.799 1.7 1.7 0 0 1-.362.581q-.233.24-.561.363a2.1 2.1 0 0 1-.752.123q-.354 0-.635-.096a1.5 1.5 0 0 1-.486-.294 1.8 1.8 0 0 1-.355-.424 2.6 2.6 0 0 1-.239-.547 4.4 4.4 0 0 1-.185-.799 8 8 0 0 1-.055-.937v-1.374q0-.404.041-.786.048-.39.137-.732.117-.389.294-.704.185-.321.458-.519.198-.165.451-.253.26-.089.581-.089.459 0 .786.137.329.13.554.383.219.252.342.615.13.355.171.8h1.64a4.6 4.6 0 0 0-.334-1.354 3.1 3.1 0 0 0-.698-1.039 3 3 0 0 0-1.059-.656 4 4 0 0 0-1.402-.233q-.58 0-1.073.158-.485.156-.889.437a3.5 3.5 0 0 0-.752.745 4 4 0 0 0-.526.964 5 5 0 0 0-.287 1.019 6.4 6.4 0 0 0-.096 1.121v1.36q0 .608.096 1.169.103.56.301 1.039.198.486.485.896.294.403.684.69.403.308.916.478.519.165 1.134.165.753 0 1.368-.226a3.2 3.2 0 0 0 1.073-.656q.444-.417.718-1.005a4 4 0 0 0 .341-1.319"/><path fill="#c11f09" d="M479 174h70v24h-70z"/><path fill="#fff" d="m490.425 186.064 1.306.322q.13-.123.266-.226.144-.11.315-.191.164-.075.376-.123.219-.048.513-.048.444 0 .779.15a1.5 1.5 0 0 1 .56.41q.226.267.335.629.117.356.117.786a3.4 3.4 0 0 1-.096.828 1.9 1.9 0 0 1-.287.642 1.4 1.4 0 0 1-.506.424q-.302.15-.711.15-.698 0-1.148-.389-.445-.39-.534-1.121h-1.592q.04.69.321 1.223.287.527.731.882a3.1 3.1 0 0 0 1.019.547q.574.178 1.203.178.827 0 1.435-.26t1.005-.711q.404-.451.595-1.053.198-.608.198-1.292 0-.772-.205-1.387a3 3 0 0 0-.588-1.06 2.6 2.6 0 0 0-.95-.663 3.2 3.2 0 0 0-1.258-.232 3 3 0 0 0-.922.129 3.4 3.4 0 0 0-.643.274l.26-2.386h3.992v-1.449h-5.353zm16.227 1.142v-2.358q0-.957-.226-1.689a3.6 3.6 0 0 0-.635-1.244 2.7 2.7 0 0 0-1.026-.752 3.35 3.35 0 0 0-1.353-.26q-.753 0-1.354.26a2.66 2.66 0 0 0-1.011.752 3.6 3.6 0 0 0-.643 1.244q-.219.732-.219 1.689v2.358q0 .957.219 1.695.226.732.649 1.224.417.505 1.019.766.601.252 1.353.253.759 0 1.354-.253a2.64 2.64 0 0 0 1.012-.766q.417-.492.635-1.224.226-.738.226-1.695m-4.826-.581v-2.071q0-.615.109-1.067.11-.457.335-.745.191-.252.479-.383a1.6 1.6 0 0 1 .663-.13q.349 0 .622.11.28.11.472.328.218.246.335.636a3.7 3.7 0 0 1 .15.923zm3.179.854q0 .63-.117 1.094-.109.465-.335.752-.198.246-.478.376a1.6 1.6 0 0 1-.65.123q-.375 0-.663-.13a1.2 1.2 0 0 1-.471-.389q-.191-.24-.308-.602a3.8 3.8 0 0 1-.143-.834l3.165-2.386v1.996m11.735-.273v-2.358q0-.957-.225-1.689a3.7 3.7 0 0 0-.636-1.244 2.7 2.7 0 0 0-1.025-.752 3.4 3.4 0 0 0-1.354-.26q-.751 0-1.354.26a2.66 2.66 0 0 0-1.011.752 3.6 3.6 0 0 0-.643 1.244q-.219.732-.219 1.689v2.358q0 .957.219 1.695.226.732.65 1.224.417.505 1.018.766.601.252 1.354.253.759 0 1.353-.253a2.64 2.64 0 0 0 1.012-.766q.417-.492.636-1.224.225-.738.225-1.695m-4.826-.581v-2.071q0-.615.109-1.067.11-.457.335-.745.192-.252.479-.383a1.6 1.6 0 0 1 .663-.13q.349 0 .622.11.28.11.472.328.218.246.335.636a3.7 3.7 0 0 1 .15.923zm3.179.854q0 .63-.116 1.094-.11.465-.335.752-.199.246-.479.376a1.6 1.6 0 0 1-.649.123q-.376 0-.663-.13a1.2 1.2 0 0 1-.472-.389q-.192-.24-.308-.602a4 4 0 0 1-.143-.834l3.165-2.386v1.996m6.28-3.875h-1.422V191h1.504v-5.681q.041-.102.089-.184a.8.8 0 0 1 .123-.144.55.55 0 0 1 .212-.13.9.9 0 0 1 .294-.048q.15 0 .267.041a.55.55 0 0 1 .212.13q.088.09.13.246.047.151.047.37v5.4h1.477v-5.66a.7.7 0 0 1 .219-.369.7.7 0 0 1 .205-.117.8.8 0 0 1 .273-.041q.151 0 .274.041a.54.54 0 0 1 .218.13q.09.096.137.253.048.151.048.369V191h1.504v-5.38a3.5 3.5 0 0 0-.123-.991 1.8 1.8 0 0 0-.335-.677 1.3 1.3 0 0 0-.52-.362 1.7 1.7 0 0 0-.649-.123 1.8 1.8 0 0 0-.506.068q-.225.069-.41.192a1.4 1.4 0 0 0-.267.232 2 2 0 0 0-.218.294 1.4 1.4 0 0 0-.164-.301 1.08 1.08 0 0 0-.595-.424 1.8 1.8 0 0 0-.492-.061q-.527 0-.903.253-.37.252-.581.697zm13.951 5.106.67 2.29h1.702l-3.186-9.953h-1.456l-3.24 9.953h1.709l.677-2.29zm-2.707-1.408 1.162-3.938 1.142 3.938z"/><path fill="#f1c40f" d="M419 230h60v24h-60z"/><path fill="#202020" d="M431.107 247h2.516a4.8 4.8 0 0 0 1.278-.164 4 4 0 0 0 1.094-.472q.437-.28.793-.676.362-.397.615-.882.26-.5.396-1.101.144-.609.144-1.285v-.779q0-.705-.151-1.327a5 5 0 0 0-.423-1.141 3.9 3.9 0 0 0-.663-.902 3.5 3.5 0 0 0-.896-.67 4.2 4.2 0 0 0-1.032-.404 4.7 4.7 0 0 0-1.21-.15h-2.461zm1.661-8.613h.8q.396.006.738.095.342.083.615.24.377.212.65.553.273.335.437.752.13.343.199.745.068.404.068.855v.793q0 .458-.068.861a4 4 0 0 1-.199.745q-.15.404-.389.718a2.3 2.3 0 0 1-.534.513 2.4 2.4 0 0 1-.663.307 3 3 0 0 1-.799.103h-.855zm15.222 5.551h-1.647q-.042.45-.178.799a1.7 1.7 0 0 1-.362.581q-.232.24-.561.363a2.1 2.1 0 0 1-.752.123q-.356 0-.636-.096a1.5 1.5 0 0 1-.485-.294 1.8 1.8 0 0 1-.355-.424 2.7 2.7 0 0 1-.24-.547 4.4 4.4 0 0 1-.184-.799 8 8 0 0 1-.055-.937v-1.374q0-.404.041-.786.048-.39.137-.732.116-.389.294-.704.184-.321.458-.519.198-.165.451-.253.26-.089.581-.089.457 0 .786.137.328.13.554.383.219.252.342.615.13.355.17.8h1.641a4.6 4.6 0 0 0-.335-1.354 3.1 3.1 0 0 0-.697-1.039 3 3 0 0 0-1.06-.656 4 4 0 0 0-1.401-.233q-.58 0-1.073.158a3.3 3.3 0 0 0-.889.437 3.5 3.5 0 0 0-.752.745q-.322.431-.526.964a5 5 0 0 0-.287 1.019 6.4 6.4 0 0 0-.096 1.121v1.36q0 .608.096 1.169.102.56.3 1.039.199.486.486.896.294.403.683.69.404.308.916.478.52.165 1.135.165.752 0 1.367-.226a3.2 3.2 0 0 0 1.074-.656q.444-.417.717-1.005.274-.595.342-1.319m3.293 3.062h2.516a4.8 4.8 0 0 0 1.278-.164 4 4 0 0 0 1.094-.472q.438-.28.793-.676.363-.397.615-.882.26-.5.397-1.101.143-.609.143-1.285v-.779q0-.705-.15-1.327a5 5 0 0 0-.424-1.141 3.9 3.9 0 0 0-.663-.902 3.5 3.5 0 0 0-.896-.67 4.2 4.2 0 0 0-1.032-.404q-.567-.15-1.21-.15h-2.461zm1.661-8.613h.8q.397.006.739.095.341.083.615.24.375.212.649.553.274.335.438.752.129.343.198.745.068.404.068.855v.793q0 .458-.068.861a4 4 0 0 1-.198.745q-.15.404-.39.718a2.3 2.3 0 0 1-.533.513 2.4 2.4 0 0 1-.663.307 3 3 0 0 1-.8.103h-.855zm15.222 5.551h-1.647a3 3 0 0 1-.178.799 1.7 1.7 0 0 1-.362.581q-.233.24-.561.363a2.1 2.1 0 0 1-.752.123q-.354 0-.635-.096a1.5 1.5 0 0 1-.486-.294 1.8 1.8 0 0 1-.355-.424 2.6 2.6 0 0 1-.239-.547 4.4 4.4 0 0 1-.185-.799 8 8 0 0 1-.055-.937v-1.374q0-.404.041-.786.048-.39.137-.732.117-.389.294-.704.185-.321.458-.519.198-.165.451-.253.26-.089.581-.089.459 0 .786.137.329.13.554.383.219.252.342.615.13.355.171.8h1.64a4.6 4.6 0 0 0-.334-1.354 3.1 3.1 0 0 0-.698-1.039 3 3 0 0 0-1.059-.656 4 4 0 0 0-1.402-.233q-.58 0-1.073.158-.485.156-.889.437a3.5 3.5 0 0 0-.752.745 4 4 0 0 0-.526.964 5 5 0 0 0-.287 1.019 6.4 6.4 0 0 0-.096 1.121v1.36q0 .608.096 1.169.103.56.301 1.039.198.486.485.896.294.403.684.69.403.308.916.478.519.165 1.134.165.753 0 1.368-.226a3.2 3.2 0 0 0 1.073-.656q.444-.417.718-1.005a4 4 0 0 0 .341-1.319"/><path fill="#c11f09" d="M479 230h40v24h-40z"/><path fill="#fff" d="M494.734 247v-9.953h-.102l-4.095 1.517v1.443l2.55-.937V247zm10.458-2.29.669 2.29h1.703l-3.186-9.953h-1.456l-3.24 9.953h1.709l.677-2.29zm-2.707-1.408 1.162-3.938 1.141 3.938z"/><path fill="#f1c40f" d="M419 286h60v24h-60z"/><path fill="#202020" d="M431.107 303h2.516a4.8 4.8 0 0 0 1.278-.164 4 4 0 0 0 1.094-.472q.437-.28.793-.676.362-.398.615-.882.26-.5.396-1.101.144-.609.144-1.285v-.779q0-.705-.151-1.327a5 5 0 0 0-.423-1.141 3.9 3.9 0 0 0-.663-.902 3.5 3.5 0 0 0-.896-.67 4.2 4.2 0 0 0-1.032-.404 4.7 4.7 0 0 0-1.21-.15h-2.461zm1.661-8.613h.8q.396.006.738.095.342.083.615.24.377.212.65.553.273.335.437.752.13.343.199.745.068.404.068.855v.793q0 .458-.068.861a4 4 0 0 1-.199.745q-.15.404-.389.718a2.3 2.3 0 0 1-.534.513 2.4 2.4 0 0 1-.663.307 3 3 0 0 1-.799.103h-.855zm15.222 5.551h-1.647q-.042.45-.178.799a1.7 1.7 0 0 1-.362.581q-.232.24-.561.363a2.1 2.1 0 0 1-.752.123q-.356 0-.636-.096a1.5 1.5 0 0 1-.485-.294 1.8 1.8 0 0 1-.355-.424 2.7 2.7 0 0 1-.24-.547 4.4 4.4 0 0 1-.184-.799 8 8 0 0 1-.055-.937v-1.374q0-.404.041-.786.048-.39.137-.732.116-.389.294-.704.184-.321.458-.519.198-.165.451-.253.26-.089.581-.089.457 0 .786.137.328.13.554.383.219.252.342.615.13.355.17.8h1.641a4.6 4.6 0 0 0-.335-1.354 3.1 3.1 0 0 0-.697-1.039 3 3 0 0 0-1.06-.656 4 4 0 0 0-1.401-.233q-.58 0-1.073.158a3.3 3.3 0 0 0-.889.437 3.5 3.5 0 0 0-.752.745q-.322.431-.526.964a5 5 0 0 0-.287 1.019 6.4 6.4 0 0 0-.096 1.121v1.36q0 .609.096 1.169.102.56.3 1.039.199.486.486.896.294.403.683.69.404.308.916.478.52.165 1.135.165.752 0 1.367-.226a3.2 3.2 0 0 0 1.074-.656q.444-.417.717-1.005.274-.595.342-1.319m3.293 3.062h2.516a4.8 4.8 0 0 0 1.278-.164 4 4 0 0 0 1.094-.472q.438-.28.793-.676.363-.398.615-.882.26-.5.397-1.101.143-.609.143-1.285v-.779q0-.705-.15-1.327a5 5 0 0 0-.424-1.141 3.9 3.9 0 0 0-.663-.902 3.5 3.5 0 0 0-.896-.67 4.2 4.2 0 0 0-1.032-.404q-.567-.15-1.21-.15h-2.461zm1.661-8.613h.8q.397.006.739.095.341.083.615.24.375.212.649.553.274.335.438.752.129.343.198.745.068.404.068.855v.793q0 .458-.068.861a4 4 0 0 1-.198.745q-.15.404-.39.718a2.3 2.3 0 0 1-.533.513 2.4 2.4 0 0 1-.663.307 3 3 0 0 1-.8.103h-.855zm15.222 5.551h-1.647a3 3 0 0 1-.178.799 1.7 1.7 0 0 1-.362.581q-.233.24-.561.363a2.1 2.1 0 0 1-.752.123q-.354 0-.635-.096a1.5 1.5 0 0 1-.486-.294 1.8 1.8 0 0 1-.355-.424 2.6 2.6 0 0 1-.239-.547 4.4 4.4 0 0 1-.185-.799 8 8 0 0 1-.055-.937v-1.374q0-.404.041-.786.048-.39.137-.732.117-.389.294-.704.185-.321.458-.519.198-.165.451-.253.26-.089.581-.089.459 0 .786.137.329.13.554.383.219.252.342.615.13.355.171.8h1.64a4.6 4.6 0 0 0-.334-1.354 3.1 3.1 0 0 0-.698-1.039 3 3 0 0 0-1.059-.656 4 4 0 0 0-1.402-.233q-.58 0-1.073.158-.485.156-.889.437a3.5 3.5 0 0 0-.752.745 4 4 0 0 0-.526.964 5 5 0 0 0-.287 1.019 6.4 6.4 0 0 0-.096 1.121v1.36q0 .609.096 1.169.103.56.301 1.039.198.486.485.896.294.403.684.69.403.308.916.478.519.165 1.134.165.753 0 1.368-.226a3.2 3.2 0 0 0 1.073-.656q.444-.417.718-1.005a4 4 0 0 0 .341-1.319"/><path fill="#c11f09" d="M479 286h40v24h-40z"/><path fill="#fff" d="M494.734 303v-9.953h-.102l-4.095 1.517v1.443l2.55-.937V303zm10.458-2.29.669 2.29h1.703l-3.186-9.953h-1.456l-3.24 9.953h1.709l.677-2.29zm-2.707-1.408 1.162-3.938 1.141 3.938z"/><path fill="#f1c40f" d="M419 342h60v24h-60z"/><path fill="#202020" d="M431.107 359h2.516a4.8 4.8 0 0 0 1.278-.164 4 4 0 0 0 1.094-.472q.437-.28.793-.676.362-.398.615-.882.26-.5.396-1.101.144-.609.144-1.285v-.779q0-.705-.151-1.327a5 5 0 0 0-.423-1.141 3.9 3.9 0 0 0-.663-.902 3.5 3.5 0 0 0-.896-.67 4.2 4.2 0 0 0-1.032-.404 4.7 4.7 0 0 0-1.21-.15h-2.461zm1.661-8.613h.8q.396.006.738.095.342.083.615.24.377.212.65.553.273.335.437.752.13.342.199.745.068.404.068.855v.793q0 .458-.068.861a4 4 0 0 1-.199.745q-.15.404-.389.718a2.3 2.3 0 0 1-.534.513 2.4 2.4 0 0 1-.663.307 3 3 0 0 1-.799.103h-.855zm15.222 5.551h-1.647q-.042.45-.178.799a1.7 1.7 0 0 1-.362.581q-.232.24-.561.363a2.1 2.1 0 0 1-.752.123q-.356 0-.636-.096a1.5 1.5 0 0 1-.485-.294 1.8 1.8 0 0 1-.355-.424 2.7 2.7 0 0 1-.24-.547 4.4 4.4 0 0 1-.184-.799 8 8 0 0 1-.055-.937v-1.374q0-.404.041-.786.048-.39.137-.732.116-.389.294-.704.184-.321.458-.519.198-.165.451-.253.26-.089.581-.089.457 0 .786.137.328.13.554.383.219.252.342.615.13.355.17.8h1.641a4.6 4.6 0 0 0-.335-1.354 3.1 3.1 0 0 0-.697-1.039 3 3 0 0 0-1.06-.656 4 4 0 0 0-1.401-.233q-.58 0-1.073.158a3.3 3.3 0 0 0-.889.437 3.5 3.5 0 0 0-.752.745q-.322.431-.526.964a5 5 0 0 0-.287 1.019 6.4 6.4 0 0 0-.096 1.121v1.36q0 .609.096 1.169.102.56.3 1.039.199.486.486.896.294.403.683.69.404.308.916.478.52.165 1.135.165.752 0 1.367-.226a3.2 3.2 0 0 0 1.074-.656q.444-.417.717-1.005.274-.595.342-1.319m3.293 3.062h2.516a4.8 4.8 0 0 0 1.278-.164 4 4 0 0 0 1.094-.472q.438-.28.793-.676.363-.398.615-.882.26-.5.397-1.101.143-.609.143-1.285v-.779q0-.705-.15-1.327a5 5 0 0 0-.424-1.141 3.9 3.9 0 0 0-.663-.902 3.5 3.5 0 0 0-.896-.67 4.2 4.2 0 0 0-1.032-.404q-.567-.15-1.21-.15h-2.461zm1.661-8.613h.8q.397.006.739.095.341.083.615.24.375.212.649.553.274.335.438.752.129.342.198.745.068.404.068.855v.793q0 .458-.068.861a4 4 0 0 1-.198.745q-.15.404-.39.718a2.3 2.3 0 0 1-.533.513 2.4 2.4 0 0 1-.663.307 3 3 0 0 1-.8.103h-.855zm15.222 5.551h-1.647a3 3 0 0 1-.178.799 1.7 1.7 0 0 1-.362.581q-.233.24-.561.363a2.1 2.1 0 0 1-.752.123q-.354 0-.635-.096a1.5 1.5 0 0 1-.486-.294 1.8 1.8 0 0 1-.355-.424 2.6 2.6 0 0 1-.239-.547 4.4 4.4 0 0 1-.185-.799 8 8 0 0 1-.055-.937v-1.374q0-.404.041-.786.048-.39.137-.732.117-.389.294-.704.185-.321.458-.519.198-.165.451-.253.26-.089.581-.089.459 0 .786.137.329.13.554.383.219.252.342.615.13.355.171.8h1.64a4.6 4.6 0 0 0-.334-1.354 3.1 3.1 0 0 0-.698-1.039 3 3 0 0 0-1.059-.656 4 4 0 0 0-1.402-.233q-.58 0-1.073.158-.485.156-.889.437a3.5 3.5 0 0 0-.752.745 4 4 0 0 0-.526.964 5 5 0 0 0-.287 1.019 6.4 6.4 0 0 0-.096 1.121v1.36q0 .609.096 1.169.103.56.301 1.039.198.486.485.896.294.403.684.69.403.308.916.478.519.165 1.134.165.753 0 1.368-.226a3.2 3.2 0 0 0 1.073-.656q.444-.417.718-1.005a4 4 0 0 0 .341-1.319"/><path fill="#c11f09" d="M479 342h70v24h-70z"/><path fill="#fff" d="M495.06 348.999h-.191q-1.162 0-2.065.362a4.1 4.1 0 0 0-1.518 1.039 4.6 4.6 0 0 0-1.039 1.88 8.4 8.4 0 0 0-.307 2.29v.677q0 .8.232 1.524.232.719.684 1.251.423.513 1.039.814t1.401.301q.766 0 1.361-.26.601-.267 1.018-.731.41-.459.622-1.074.219-.621.219-1.333 0-.65-.171-1.251a3.1 3.1 0 0 0-.519-1.066 2.5 2.5 0 0 0-.889-.738q-.534-.274-1.258-.274-.342 0-.649.082a2.6 2.6 0 0 0-1.046.52 3 3 0 0 0-.383.355q.055-.636.28-1.189a2.78 2.78 0 0 1 1.655-1.566q.601-.225 1.415-.225h.109zm-1.784 4.737q.396 0 .697.164.308.158.513.438.204.28.307.656.11.369.11.786 0 .438-.11.814-.11.369-.321.642a1.6 1.6 0 0 1-.513.424q-.3.15-.683.151-.349 0-.657-.158a1.6 1.6 0 0 1-.54-.458 2.3 2.3 0 0 1-.369-.752 3.8 3.8 0 0 1-.13-1.046v-.505q.11-.254.274-.458.163-.205.369-.363a1.9 1.9 0 0 1 .492-.246q.267-.089.561-.089m13.376 1.47v-2.358q0-.957-.226-1.689a3.6 3.6 0 0 0-.635-1.244 2.7 2.7 0 0 0-1.026-.752 3.35 3.35 0 0 0-1.353-.26q-.753 0-1.354.26a2.66 2.66 0 0 0-1.011.752 3.6 3.6 0 0 0-.643 1.244q-.219.732-.219 1.689v2.358q0 .957.219 1.695.226.732.649 1.224.417.505 1.019.766.601.252 1.353.253.759 0 1.354-.253a2.64 2.64 0 0 0 1.012-.766q.417-.492.635-1.224.226-.738.226-1.695m-4.826-.581v-2.071q0-.615.109-1.067.11-.457.335-.745.191-.252.479-.383a1.6 1.6 0 0 1 .663-.13q.349 0 .622.11.28.11.472.328.218.246.335.636a3.7 3.7 0 0 1 .15.923zm3.179.854q0 .63-.117 1.094-.109.465-.335.752-.198.246-.478.376a1.6 1.6 0 0 1-.65.123q-.375 0-.663-.13a1.2 1.2 0 0 1-.471-.389q-.191-.24-.308-.602a3.8 3.8 0 0 1-.143-.834l3.165-2.386v1.996m11.735-.273v-2.358q0-.957-.225-1.689a3.7 3.7 0 0 0-.636-1.244 2.7 2.7 0 0 0-1.025-.752 3.4 3.4 0 0 0-1.354-.26q-.751 0-1.354.26a2.66 2.66 0 0 0-1.011.752 3.6 3.6 0 0 0-.643 1.244q-.219.732-.219 1.689v2.358q0 .957.219 1.695.226.732.65 1.224.417.505 1.018.766.601.252 1.354.253.759 0 1.353-.253a2.64 2.64 0 0 0 1.012-.766q.417-.492.636-1.224.225-.738.225-1.695m-4.826-.581v-2.071q0-.615.109-1.067.11-.457.335-.745.192-.252.479-.383a1.6 1.6 0 0 1 .663-.13q.349 0 .622.11.28.11.472.328.218.246.335.636a3.7 3.7 0 0 1 .15.923zm3.179.854q0 .63-.116 1.094-.11.465-.335.752-.199.246-.479.376a1.6 1.6 0 0 1-.649.123q-.376 0-.663-.13a1.2 1.2 0 0 1-.472-.389q-.192-.24-.308-.602a4 4 0 0 1-.143-.834l3.165-2.386v1.996m6.28-3.875h-1.422V359h1.504v-5.681q.041-.102.089-.184a.8.8 0 0 1 .123-.144.55.55 0 0 1 .212-.13.9.9 0 0 1 .294-.048q.15 0 .267.041a.55.55 0 0 1 .212.13q.088.09.13.246.047.151.047.37v5.4h1.477v-5.66a.7.7 0 0 1 .219-.369.7.7 0 0 1 .205-.117.8.8 0 0 1 .273-.041q.151 0 .274.041a.54.54 0 0 1 .218.13q.09.096.137.253.048.151.048.369V359h1.504v-5.38a3.5 3.5 0 0 0-.123-.991 1.8 1.8 0 0 0-.335-.677 1.3 1.3 0 0 0-.52-.362 1.7 1.7 0 0 0-.649-.123 1.8 1.8 0 0 0-.506.068q-.225.069-.41.192a1.4 1.4 0 0 0-.267.232 2 2 0 0 0-.218.294 1.4 1.4 0 0 0-.164-.301 1.08 1.08 0 0 0-.595-.424 1.8 1.8 0 0 0-.492-.061q-.527 0-.903.253-.37.253-.581.697zm13.951 5.106.67 2.29h1.702l-3.186-9.953h-1.456l-3.24 9.953h1.709l.677-2.29zm-2.707-1.408 1.162-3.938 1.142 3.938z"/><path fill="#f1c40f" d="M419 398h50v24h-50z"/><path fill="#202020" d="M433.017 413.646v-8.599h-1.647V415h6.398v-1.354zm8.222 1.354h2.516a4.8 4.8 0 0 0 1.278-.164 4 4 0 0 0 1.094-.472q.438-.28.793-.676.362-.398.615-.882.26-.5.397-1.101.143-.609.143-1.285v-.779q0-.705-.15-1.327a5 5 0 0 0-.424-1.141 3.9 3.9 0 0 0-.663-.902 3.5 3.5 0 0 0-.896-.67 4.2 4.2 0 0 0-1.032-.404q-.567-.15-1.21-.15h-2.461zm1.661-8.613h.8q.397.006.738.095.342.083.616.24.375.212.649.553.273.335.438.752.129.342.198.745.068.404.068.855v.793q0 .458-.068.861a4 4 0 0 1-.198.745 2.8 2.8 0 0 1-.39.718 2.3 2.3 0 0 1-.533.513 2.4 2.4 0 0 1-.663.307 3 3 0 0 1-.8.103h-.855zm15.25 4.3v-1.313a6.4 6.4 0 0 0-.11-1.196 5 5 0 0 0-.328-1.087 4 4 0 0 0-.492-.868 3.158 3.158 0 0 0-1.586-1.149 3.5 3.5 0 0 0-1.094-.164q-.588 0-1.08.164a2.9 2.9 0 0 0-.868.451 3.3 3.3 0 0 0-.69.711 4.3 4.3 0 0 0-.486.889 5.4 5.4 0 0 0-.307 1.073q-.103.567-.103 1.176v1.313q0 .58.096 1.134.096.547.287 1.033.198.506.492.929.301.424.697.725.39.294.882.465.5.164 1.094.164a3.35 3.35 0 0 0 1.935-.588q.41-.301.724-.718.315-.423.527-.923.198-.499.3-1.059a6 6 0 0 0 .11-1.162m-1.655-1.327v1.327a8 8 0 0 1-.047.731 5 5 0 0 1-.117.684q-.095.375-.259.69a1.9 1.9 0 0 1-.397.533 1.5 1.5 0 0 1-.492.315 1.6 1.6 0 0 1-.629.116q-.363 0-.643-.116a1.7 1.7 0 0 1-.485-.328 2 2 0 0 1-.376-.534 3.6 3.6 0 0 1-.239-.69 4.5 4.5 0 0 1-.116-.684 7 7 0 0 1-.035-.717v-1.327q0-.37.035-.731a5 5 0 0 1 .123-.697q.088-.384.253-.691.163-.313.403-.54.198-.185.465-.287a1.6 1.6 0 0 1 .601-.109q.35 0 .622.109.274.11.486.301.239.219.403.533.17.307.274.684.089.328.123.69.04.363.047.738"/><path fill="#c11f09" d="M469 398h70v24h-70z"/><path fill="#fff" d="M485.552 411.452v-6.405h-1.682l-4.299 6.726.041 1.005h4.306V415h1.634v-2.222h1.251v-1.326zm-4.313 0 2.488-3.862.191-.356v4.218zm15.413-.246v-2.358q0-.957-.226-1.689a3.6 3.6 0 0 0-.635-1.244 2.7 2.7 0 0 0-1.026-.752 3.35 3.35 0 0 0-1.353-.26q-.753 0-1.354.26a2.66 2.66 0 0 0-1.011.752 3.6 3.6 0 0 0-.643 1.244q-.219.732-.219 1.689v2.358q0 .957.219 1.695.226.732.649 1.224.417.505 1.019.766.601.252 1.353.253.759 0 1.354-.253a2.64 2.64 0 0 0 1.012-.766q.417-.492.635-1.224.226-.738.226-1.695m-4.826-.581v-2.071q0-.615.109-1.067.11-.457.335-.745.191-.252.479-.383a1.6 1.6 0 0 1 .663-.13q.349 0 .622.11.28.11.472.328.218.246.335.636a3.7 3.7 0 0 1 .15.923zm3.179.854q0 .63-.117 1.094-.109.465-.335.752-.198.246-.478.376a1.6 1.6 0 0 1-.65.123q-.375 0-.663-.13a1.2 1.2 0 0 1-.471-.389q-.191-.24-.308-.602a3.8 3.8 0 0 1-.143-.834l3.165-2.386v1.996m11.735-.273v-2.358q0-.957-.225-1.689a3.7 3.7 0 0 0-.636-1.244 2.7 2.7 0 0 0-1.025-.752 3.4 3.4 0 0 0-1.354-.26q-.751 0-1.354.26a2.66 2.66 0 0 0-1.011.752 3.6 3.6 0 0 0-.643 1.244q-.219.732-.219 1.689v2.358q0 .957.219 1.695.226.732.65 1.224.417.505 1.018.766.601.252 1.354.253.759 0 1.353-.253a2.64 2.64 0 0 0 1.012-.766q.417-.492.636-1.224.225-.738.225-1.695m-4.826-.581v-2.071q0-.615.109-1.067.11-.457.335-.745.192-.252.479-.383a1.6 1.6 0 0 1 .663-.13q.349 0 .622.11.28.11.472.328.219.246.335.636a3.7 3.7 0 0 1 .15.923zm3.179.854q0 .63-.116 1.094-.11.465-.335.752-.199.246-.479.376a1.6 1.6 0 0 1-.649.123q-.376 0-.663-.13a1.2 1.2 0 0 1-.472-.389q-.191-.24-.308-.602a4 4 0 0 1-.143-.834l3.165-2.386v1.996m6.28-3.875h-1.422V415h1.504v-5.681q.042-.102.089-.184a.8.8 0 0 1 .123-.144.55.55 0 0 1 .212-.13.9.9 0 0 1 .294-.048q.15 0 .267.041a.55.55 0 0 1 .212.13q.088.09.13.246.047.151.047.37v5.4h1.477v-5.66a.7.7 0 0 1 .219-.369.7.7 0 0 1 .205-.117.8.8 0 0 1 .273-.041q.151 0 .274.041a.54.54 0 0 1 .218.13q.09.096.137.253.048.151.048.369V415h1.504v-5.38a3.5 3.5 0 0 0-.123-.991 1.8 1.8 0 0 0-.335-.677 1.3 1.3 0 0 0-.52-.362 1.7 1.7 0 0 0-.649-.123 1.8 1.8 0 0 0-.506.068q-.225.069-.41.192a1.4 1.4 0 0 0-.267.232 2 2 0 0 0-.218.294 1.4 1.4 0 0 0-.164-.301 1.08 1.08 0 0 0-.595-.424 1.8 1.8 0 0 0-.492-.061q-.527 0-.903.253-.37.253-.581.697zm13.951 5.106.67 2.29h1.702l-3.186-9.953h-1.456l-3.24 9.953h1.709l.677-2.29zm-2.707-1.408 1.162-3.938 1.142 3.938z"/><path fill="#f1c40f" d="M419 454h50v24h-50z"/><path fill="#202020" d="M433.017 469.646v-8.599h-1.647V471h6.398v-1.354zm8.222 1.354h2.516a4.8 4.8 0 0 0 1.278-.164 4 4 0 0 0 1.094-.472q.438-.28.793-.676.362-.398.615-.882.26-.5.397-1.101.143-.609.143-1.285v-.779q0-.705-.15-1.327a5 5 0 0 0-.424-1.141 3.9 3.9 0 0 0-.663-.902 3.5 3.5 0 0 0-.896-.67 4.2 4.2 0 0 0-1.032-.404q-.567-.15-1.21-.15h-2.461zm1.661-8.613h.8q.397.006.738.095.342.083.616.24.375.212.649.553.273.335.438.752.129.342.198.745.068.404.068.855v.793q0 .458-.068.861a4 4 0 0 1-.198.745 2.8 2.8 0 0 1-.39.718 2.3 2.3 0 0 1-.533.513 2.4 2.4 0 0 1-.663.307 3 3 0 0 1-.8.103h-.855zm15.25 4.3v-1.313a6.4 6.4 0 0 0-.11-1.196 5 5 0 0 0-.328-1.087 4 4 0 0 0-.492-.868 3.158 3.158 0 0 0-1.586-1.149 3.5 3.5 0 0 0-1.094-.164q-.588 0-1.08.164a2.9 2.9 0 0 0-.868.451 3.3 3.3 0 0 0-.69.711 4.3 4.3 0 0 0-.486.889 5.4 5.4 0 0 0-.307 1.073q-.103.567-.103 1.176v1.313q0 .58.096 1.134.096.547.287 1.033.198.506.492.929.301.424.697.725.39.294.882.465.5.164 1.094.164a3.35 3.35 0 0 0 1.935-.588q.41-.301.724-.718.315-.423.527-.923.198-.499.3-1.059a6 6 0 0 0 .11-1.162m-1.655-1.327v1.327a8 8 0 0 1-.047.731 5 5 0 0 1-.117.684q-.095.375-.259.69a1.9 1.9 0 0 1-.397.533 1.5 1.5 0 0 1-.492.315 1.6 1.6 0 0 1-.629.116q-.363 0-.643-.116a1.7 1.7 0 0 1-.485-.328 2 2 0 0 1-.376-.534 3.6 3.6 0 0 1-.239-.69 4.5 4.5 0 0 1-.116-.684 7 7 0 0 1-.035-.717v-1.327q0-.37.035-.731a5 5 0 0 1 .123-.697q.088-.384.253-.691.163-.313.403-.54.198-.185.465-.287a1.6 1.6 0 0 1 .601-.109q.35 0 .622.109.274.11.486.301.239.219.403.533.17.307.274.684.089.328.123.69.04.363.047.738"/><path fill="#c11f09" d="M469 454h70v24h-70z"/><path fill="#fff" d="M481.909 465.285v1.285h.977q.424 0 .766.103.348.096.594.294.247.205.376.512.13.309.13.739 0 .383-.116.683a1.3 1.3 0 0 1-.321.493 1.4 1.4 0 0 1-.54.321q-.315.102-.711.102-.37 0-.677-.109a1.5 1.5 0 0 1-.519-.308 1.3 1.3 0 0 1-.349-.464 1.6 1.6 0 0 1-.116-.609h-1.634q0 .697.267 1.224.273.52.724.875.452.355 1.046.533t1.237.178q.711 0 1.32-.192a3.2 3.2 0 0 0 1.066-.574 2.6 2.6 0 0 0 .697-.909q.26-.547.26-1.244 0-.376-.089-.725a2.2 2.2 0 0 0-.287-.663q-.198-.3-.513-.54a2.4 2.4 0 0 0-.752-.396 2.65 2.65 0 0 0 1.122-.944q.184-.286.273-.595.096-.308.096-.615 0-.697-.233-1.223a2.45 2.45 0 0 0-.656-.889 2.7 2.7 0 0 0-1.012-.533 4.3 4.3 0 0 0-1.292-.185q-.69 0-1.271.205a3.1 3.1 0 0 0-.998.568 2.7 2.7 0 0 0-.663.868q-.24.498-.24 1.094h1.634q0-.322.116-.582a1.392 1.392 0 0 1 .821-.724q.287-.102.622-.103.376 0 .663.103.294.102.485.287.192.198.287.478.103.28.103.636 0 .328-.109.615a1.24 1.24 0 0 1-.301.472q-.213.219-.54.342a2.3 2.3 0 0 1-.766.116zm14.743 1.921v-2.358q0-.957-.226-1.689a3.6 3.6 0 0 0-.635-1.244 2.7 2.7 0 0 0-1.026-.752 3.35 3.35 0 0 0-1.353-.26q-.753 0-1.354.26a2.66 2.66 0 0 0-1.011.752 3.6 3.6 0 0 0-.643 1.244q-.219.732-.219 1.689v2.358q0 .957.219 1.695.226.732.649 1.224.417.505 1.019.766.601.252 1.353.253.759 0 1.354-.253a2.64 2.64 0 0 0 1.012-.766q.417-.492.635-1.224.226-.738.226-1.695m-4.826-.581v-2.071q0-.615.109-1.067.11-.457.335-.745.191-.252.479-.383a1.6 1.6 0 0 1 .663-.13q.349 0 .622.11.28.11.472.328.218.246.335.636a3.7 3.7 0 0 1 .15.923zm3.179.854q0 .63-.117 1.094-.109.465-.335.752-.198.246-.478.376a1.6 1.6 0 0 1-.65.123q-.375 0-.663-.13a1.2 1.2 0 0 1-.471-.389q-.191-.24-.308-.602a3.8 3.8 0 0 1-.143-.834l3.165-2.386v1.996m11.735-.273v-2.358q0-.957-.225-1.689a3.7 3.7 0 0 0-.636-1.244 2.7 2.7 0 0 0-1.025-.752 3.4 3.4 0 0 0-1.354-.26q-.751 0-1.354.26a2.66 2.66 0 0 0-1.011.752 3.6 3.6 0 0 0-.643 1.244q-.219.732-.219 1.689v2.358q0 .957.219 1.695.226.732.65 1.224.417.505 1.018.766.601.252 1.354.253.759 0 1.353-.253a2.64 2.64 0 0 0 1.012-.766q.417-.492.636-1.224.225-.738.225-1.695m-4.826-.581v-2.071q0-.615.109-1.067.11-.457.335-.745.192-.252.479-.383a1.6 1.6 0 0 1 .663-.13q.349 0 .622.11.28.11.472.328.219.246.335.636a3.7 3.7 0 0 1 .15.923zm3.179.854q0 .63-.116 1.094-.11.465-.335.752-.199.246-.479.376a1.6 1.6 0 0 1-.649.123q-.376 0-.663-.13a1.2 1.2 0 0 1-.472-.389q-.191-.24-.308-.602a4 4 0 0 1-.143-.834l3.165-2.386v1.996m6.28-3.875h-1.422V471h1.504v-5.681q.042-.102.089-.184a.8.8 0 0 1 .123-.144.55.55 0 0 1 .212-.13.9.9 0 0 1 .294-.048q.15 0 .267.041a.55.55 0 0 1 .212.13q.088.09.13.246.047.151.047.37v5.4h1.477v-5.66a.7.7 0 0 1 .219-.369.7.7 0 0 1 .205-.117.8.8 0 0 1 .273-.041q.151 0 .274.041a.54.54 0 0 1 .218.13q.09.096.137.253.048.151.048.369V471h1.504v-5.38a3.5 3.5 0 0 0-.123-.991 1.8 1.8 0 0 0-.335-.677 1.3 1.3 0 0 0-.52-.362 1.7 1.7 0 0 0-.649-.123 1.8 1.8 0 0 0-.506.068q-.225.069-.41.192a1.4 1.4 0 0 0-.267.232 2 2 0 0 0-.218.294 1.4 1.4 0 0 0-.164-.301 1.08 1.08 0 0 0-.595-.424 1.8 1.8 0 0 0-.492-.061q-.527 0-.903.253-.37.253-.581.697zm13.951 5.106.67 2.29h1.702l-3.186-9.953h-1.456l-3.24 9.953h1.709l.677-2.29zm-2.707-1.408 1.162-3.938 1.142 3.938z"/><path fill="#f1c40f" d="M419 510h60v24h-60z"/><path fill="#202020" d="M437.902 523.938h-1.648a3 3 0 0 1-.177.799 1.7 1.7 0 0 1-.363.581 1.5 1.5 0 0 1-.56.363q-.329.123-.752.123-.356 0-.636-.096a1.5 1.5 0 0 1-.485-.294 1.8 1.8 0 0 1-.356-.424 2.8 2.8 0 0 1-.239-.547 4.4 4.4 0 0 1-.185-.799 8 8 0 0 1-.054-.937v-1.374q0-.404.041-.786.047-.39.137-.732.116-.389.293-.704.186-.321.458-.519.199-.165.452-.253.26-.089.581-.089.457 0 .786.137.328.13.554.383.218.252.341.615.13.355.171.8h1.641a4.6 4.6 0 0 0-.335-1.354 3.1 3.1 0 0 0-.697-1.039 3 3 0 0 0-1.06-.656 4 4 0 0 0-1.401-.233 3.34 3.34 0 0 0-1.962.595 3.5 3.5 0 0 0-.752.745q-.321.431-.527.964a5.2 5.2 0 0 0-.287 1.019q-.095.54-.095 1.121v1.36q0 .608.095 1.169.103.56.301 1.039.198.486.485.896.294.403.684.69.403.308.916.478.52.165 1.135.165.752 0 1.367-.226a3.2 3.2 0 0 0 1.073-.656 3.2 3.2 0 0 0 .718-1.005q.273-.595.342-1.319m9.801 3.062v-9.953h-1.606v4.163h-3.35v-4.163h-1.6V527h1.6v-4.437h3.35V527zm6.998-3.862 1.908 3.862h1.756v-.089l-2.126-4.163q.41-.185.746-.437.334-.253.574-.588.238-.336.369-.752.137-.417.137-.93 0-.745-.26-1.299a2.6 2.6 0 0 0-.725-.936 3.3 3.3 0 0 0-1.121-.561 5.2 5.2 0 0 0-1.422-.198h-3.158V527h1.641v-3.862zm-1.681-1.34v-3.411h1.517q.424.006.766.116.341.102.581.308.26.218.39.546.136.322.136.752 0 .383-.123.684-.123.3-.342.506a1.7 1.7 0 0 1-.601.369 2.5 2.5 0 0 1-.786.13zm15.099 3.978-.014-3.807h-3.418v1.278h1.805l-.007 1.989a1 1 0 0 1-.294.253 2 2 0 0 1-.403.171q-.226.069-.472.103a5 5 0 0 1-.485.027 2 2 0 0 1-.725-.137 1.7 1.7 0 0 1-.554-.369 2 2 0 0 1-.335-.424 3.5 3.5 0 0 1-.239-.512 4.3 4.3 0 0 1-.198-.786 6 6 0 0 1-.062-.896v-1.285q0-.404.048-.786.048-.383.15-.718.117-.382.294-.69a2 2 0 0 1 .431-.527q.212-.185.479-.287a1.5 1.5 0 0 1 .581-.109q.43 0 .745.123.321.123.54.355.205.219.328.54.123.315.185.704h1.613a4.1 4.1 0 0 0-.321-1.278 2.9 2.9 0 0 0-.691-.978 2.9 2.9 0 0 0-1.039-.608 4.2 4.2 0 0 0-1.395-.212q-.58 0-1.08.164-.492.165-.902.465a3.5 3.5 0 0 0-.67.677 4.5 4.5 0 0 0-.506.861 5.3 5.3 0 0 0-.335 1.087 7 7 0 0 0-.116 1.231v1.271q.007.663.13 1.265t.362 1.1q.212.479.527.868.32.39.724.663.404.274.903.424.498.151 1.073.151.622 0 1.169-.13a4.6 4.6 0 0 0 1.012-.349q.369-.178.663-.403.294-.233.499-.479"/><rect width="81" height="36" x="61" y="112" fill="#7f8c8d" rx="5"/><path fill="#fff" d="M84.612 125.047h-1.62l-.014 6.658q-.014.465-.123.855a2 2 0 0 1-.321.663 1.45 1.45 0 0 1-.527.423 1.7 1.7 0 0 1-.71.144q-.398 0-.698-.144a1.5 1.5 0 0 1-.499-.41 1.9 1.9 0 0 1-.321-.663 3.4 3.4 0 0 1-.117-.868l-.013-6.658h-1.62l-.014 6.658q.007.772.24 1.408.238.636.67 1.087a2.9 2.9 0 0 0 1.025.697q.601.24 1.346.24.76 0 1.367-.246.615-.246 1.053-.698.43-.45.663-1.08.24-.636.24-1.408zm8.803 7.39q0 .327-.144.581a1.3 1.3 0 0 1-.369.423q-.24.179-.567.267a2.6 2.6 0 0 1-.698.089q-.445 0-.82-.109a1.8 1.8 0 0 1-.642-.335 1.6 1.6 0 0 1-.445-.554 2.3 2.3 0 0 1-.191-.8h-1.64q.006.718.286 1.272.288.554.773.963.525.438 1.237.67.711.226 1.442.226.69 0 1.313-.171.623-.178 1.094-.526.465-.336.738-.841.28-.506.28-1.169 0-.718-.321-1.265a3.1 3.1 0 0 0-.84-.95 4.6 4.6 0 0 0-.93-.533 7.4 7.4 0 0 0-1.026-.376 12 12 0 0 1-.8-.267 3.5 3.5 0 0 1-.67-.335 1.6 1.6 0 0 1-.458-.444 1.1 1.1 0 0 1-.177-.602q0-.321.13-.581a1.3 1.3 0 0 1 .362-.444q.232-.178.547-.273.32-.103.697-.103.43 0 .759.13.335.123.567.342.225.225.349.54.129.308.164.683h1.627q0-.677-.274-1.23a2.9 2.9 0 0 0-.731-.964 3.4 3.4 0 0 0-1.094-.615 3.9 3.9 0 0 0-1.347-.226q-.683 0-1.305.192-.615.185-1.08.54-.465.362-.739.875a2.36 2.36 0 0 0-.273 1.141q0 .588.232 1.06.24.465.657.834.417.362 1.005.656.594.287 1.298.485.459.13.827.294.377.158.65.356.26.212.403.478.144.267.144.616M98.3 135h3.445q.738 0 1.367-.185a3.2 3.2 0 0 0 1.094-.56 2.54 2.54 0 0 0 .718-.902q.26-.54.253-1.251 0-.404-.116-.766a2.2 2.2 0 0 0-.329-.67 2.3 2.3 0 0 0-.526-.499 2.3 2.3 0 0 0-.759-.342v-.013q.301-.124.527-.274.232-.158.417-.362.26-.28.396-.643a2.3 2.3 0 0 0 .15-.793q0-.698-.266-1.203a2.27 2.27 0 0 0-.725-.841 3.3 3.3 0 0 0-1.1-.485 5.5 5.5 0 0 0-1.361-.164h-3.185zm1.654-4.498h1.887q.403.007.718.123.314.11.533.314.219.206.328.499.11.288.109.664 0 .355-.136.649a1.3 1.3 0 0 1-.376.485 1.7 1.7 0 0 1-.547.301 2.2 2.2 0 0 1-.711.109h-1.805zm0-1.251v-2.844h1.552q.424.007.772.103.349.088.581.294.206.163.315.424.116.252.116.601 0 .329-.123.581a1.3 1.3 0 0 1-.335.431 1.6 1.6 0 0 1-.574.301q-.336.102-.738.109zm25.256 2.687h-1.648q-.04.45-.178.799a1.7 1.7 0 0 1-.362.581q-.233.24-.56.363-.329.123-.752.123-.355 0-.636-.096a1.5 1.5 0 0 1-.486-.294 1.8 1.8 0 0 1-.355-.424 2.7 2.7 0 0 1-.239-.547 4.4 4.4 0 0 1-.185-.799 8 8 0 0 1-.054-.937v-1.374q0-.404.041-.786.047-.39.136-.732.117-.389.294-.704.185-.321.458-.519.198-.165.451-.253.26-.089.581-.089.459 0 .787.137.328.13.553.383.219.252.342.615.13.355.171.8h1.641a4.6 4.6 0 0 0-.335-1.354 3.1 3.1 0 0 0-.698-1.039 3 3 0 0 0-1.059-.656 4 4 0 0 0-1.402-.233q-.58 0-1.073.158-.485.156-.888.437a3.5 3.5 0 0 0-.752.745 4 4 0 0 0-.527.964 5.2 5.2 0 0 0-.287 1.019 6.4 6.4 0 0 0-.096 1.121v1.36q0 .608.096 1.169.103.56.301 1.039.198.486.485.896.294.403.684.69.403.308.916.478.519.165 1.135.165.752 0 1.367-.226a3.2 3.2 0 0 0 1.073-.656q.444-.417.718-1.005.273-.595.342-1.319"/><rect width="71" height="24" x="66" y="153" fill="#1da086" rx="12"/><path fill="#fff" d="m78.425 165.064 1.306.322q.13-.123.266-.226.143-.11.315-.191.165-.075.376-.123.219-.048.513-.048.444 0 .779.15.335.144.56.41.225.267.335.629.117.355.117.786 0 .445-.096.828-.096.375-.287.642a1.4 1.4 0 0 1-.506.424q-.3.15-.711.15-.698 0-1.148-.389-.445-.39-.534-1.121h-1.592q.04.69.32 1.223.288.527.732.882.444.363 1.019.547.575.178 1.203.178.827 0 1.436-.26.608-.26 1.004-.711.405-.451.595-1.053a4.1 4.1 0 0 0 .198-1.292q0-.772-.205-1.387a3 3 0 0 0-.588-1.06 2.6 2.6 0 0 0-.95-.663 3.2 3.2 0 0 0-1.258-.232q-.52 0-.922.129a3.4 3.4 0 0 0-.643.274l.26-2.386h3.992v-1.449h-5.353zM90.598 170h1.6l3.062-9.953h-1.79l-1.908 6.884-.17.601-.165-.594-1.893-6.891h-1.798zm9.795.854 3.903-10.807h-1.497l-3.91 10.807zm9.78-6.569v1.285h.978q.423 0 .765.103.35.096.595.294.246.205.376.512.13.309.13.739 0 .383-.116.683a1.3 1.3 0 0 1-.322.493 1.4 1.4 0 0 1-.54.321 2.3 2.3 0 0 1-.711.102q-.369 0-.676-.109a1.5 1.5 0 0 1-.52-.308 1.3 1.3 0 0 1-.348-.464 1.6 1.6 0 0 1-.117-.609h-1.633q0 .697.266 1.224a2.7 2.7 0 0 0 .725.875q.451.355 1.046.533t1.237.178q.711 0 1.319-.192.615-.198 1.067-.574.444-.369.697-.909.26-.547.26-1.244 0-.376-.089-.725a2.2 2.2 0 0 0-.287-.663q-.198-.3-.513-.54a2.4 2.4 0 0 0-.752-.396 2.64 2.64 0 0 0 1.121-.944q.184-.286.274-.595.095-.308.095-.615 0-.697-.232-1.223a2.46 2.46 0 0 0-.656-.889 2.75 2.75 0 0 0-1.012-.533 4.3 4.3 0 0 0-1.292-.185q-.69 0-1.272.205a3.2 3.2 0 0 0-.998.568 2.7 2.7 0 0 0-.663.868 2.5 2.5 0 0 0-.239 1.094h1.634q0-.322.116-.582a1.397 1.397 0 0 1 .82-.724q.288-.103.622-.103.376 0 .664.103.293.102.485.287.19.198.287.478.103.28.103.636 0 .329-.11.615a1.2 1.2 0 0 1-.301.472q-.212.219-.54.342a2.3 2.3 0 0 1-.765.116zm13.151 3.425.67 2.29h1.702l-3.186-9.953h-1.456l-3.24 9.953h1.709l.677-2.29zm-2.707-1.408 1.162-3.938 1.142 3.938z"/><mask id="b" width="1114" height="857" x="0" y="0" maskUnits="userSpaceOnUse" style="mask-type:alpha"><path fill="red" fill-rule="evenodd" d="M1114 0H0v857h1114zM195 398V67H33v331z" clip-rule="evenodd"/></mask><g mask="url(#b)"><path fill="#95a5a6" d="M0 0h1114v857H0z" opacity=".6"/></g><path stroke="#fff" stroke-width="8" d="M33 66h164v331H33z"/></g><defs><clipPath id="a"><path fill="#fff" d="M0 0h570v591H0z"/></clipPath></defs></svg>