<svg id="Layer_1" data-name="Layer 1" xmlns="http://www.w3.org/2000/svg" viewBox="0 0 62.3622 70.00782"><defs><style>.cls-1{fill:#8b8f90;}.cls-2{fill:#404642;}.cls-3{fill:#b8ada2;}.cls-4{fill:#fff;}.cls-5{fill:#c2c5c6;}.cls-14,.cls-6{fill:none;}.cls-6{stroke:#d3ccc5;stroke-miterlimit:10;stroke-width:0.28346px;}.cls-7{fill:#b8b9ba;}.cls-8{fill:#a1a4a5;}.cls-9{fill:#c1c3c4;}.cls-10{fill:#2b322d;}.cls-11{fill:#d7d9da;}.cls-12{fill:#8a7867;}.cls-13{fill:#555b57;}.cls-14{stroke:#2b322d;stroke-linecap:round;stroke-linejoin:round;stroke-width:0.5px;}.cls-15{fill:#353c38;}.cls-16{fill:#cccecd;}.cls-17{fill:#968474;}.cls-18{fill:#39403c;}.cls-19{fill:#6c716e;}.cls-20{fill:#515753;}</style></defs><rect class="cls-1" x="965.5564" y="574.53723" width="0.59924" height="1.87104" transform="translate(988.05763 630.58566) rotate(180)"/><rect class="cls-1" x="964.31858" y="574.53723" width="0.59924" height="1.87104" transform="translate(985.58199 630.58566) rotate(180)"/><rect class="cls-1" x="963.08076" y="574.53723" width="0.59924" height="1.87104" transform="translate(983.10635 630.58566) rotate(180)"/><rect class="cls-1" x="961.84294" y="574.53723" width="0.59924" height="1.87104" transform="translate(980.63071 630.58566) rotate(180)"/><rect class="cls-1" x="960.60512" y="574.53723" width="0.59924" height="1.87104" transform="translate(978.15508 630.58566) rotate(180)"/><rect class="cls-1" x="959.3673" y="574.53723" width="0.59924" height="1.87104" transform="translate(975.67944 630.58566) rotate(180)"/><path class="cls-1" d="M972.97584,590.36766V575.476h-6.10017v1.27484h.02835a.45457.45457,0,0,0,.45325.42495h2.03962v.26438a.97935.97935,0,0,1-.98212.97266h-2.42692a.97121.97121,0,0,1-.97244-.97266V575.476h-4.47622v1.96417a.97915.97915,0,0,1-.98188.97266h-2.42693a.97125.97125,0,0,1-.97266-.97266v-.26438h2.03961a.45273.45273,0,0,0,.444-.42495V575.476h-6.09095v14.8917Zm-13.73968-6.24184a.61261.61261,0,0,1-.61371.61382h-2.002a.61382.61382,0,0,1,0-1.22764h2.002A.61261.61261,0,0,1,959.23616,584.12582Zm5.11806-6.3363a.61062.61062,0,0,1-.60426.61382h-1.97368a.6138.6138,0,0,1,0-1.22759H963.75A.61061.61061,0,0,1,964.35422,577.78952Zm5.16555,6.3363a.61266.61266,0,0,1-.61394.61382H966.904a.61382.61382,0,1,1,0-1.22764h2.00181A.61266.61266,0,0,1,969.51977,584.12582Z" transform="translate(-943.65441 -520.35984)"/><path class="cls-2" d="M943.65441,524.76976h62.3622a0,0,0,0,1,0,0v56.56288a5.79933,5.79933,0,0,1-5.79933,5.79933H943.65441a0,0,0,0,1,0,0v-62.3622A0,0,0,0,1,943.65441,524.76976Z" transform="translate(1006.01661 591.54189) rotate(-180)"/><path class="cls-3" d="M986.56189,524.76976v3.4451a2.10535,2.10535,0,0,0,4.21069,0v-3.4451Z" transform="translate(-943.65441 -520.35984)"/><circle class="cls-4" cx="45.0147" cy="7.86892" r="1.37347"/><path class="cls-4" d="M987.2995,524.76976a1.37244,1.37244,0,1,0,2.74488,0Z" transform="translate(-943.65441 -520.35984)"/><path class="cls-3" d="M993.48916,524.76976v3.4451a2.10535,2.10535,0,0,0,4.21069,0v-3.4451Z" transform="translate(-943.65441 -520.35984)"/><circle class="cls-4" cx="51.94197" cy="7.86892" r="1.37347"/><path class="cls-4" d="M994.22676,524.76976a1.37244,1.37244,0,1,0,2.74488,0Z" transform="translate(-943.65441 -520.35984)"/><path class="cls-3" d="M943.65441,537.24667h3.4451a2.10535,2.10535,0,0,0,0-4.21069h-3.4451Z" transform="translate(-943.65441 -520.35984)"/><circle class="cls-4" cx="3.459" cy="14.77961" r="1.37347"/><path class="cls-4" d="M943.65441,536.50906a1.37244,1.37244,0,1,0,0-2.74488Z" transform="translate(-943.65441 -520.35984)"/><path class="cls-3" d="M943.65441,544.17861h3.4451a2.10535,2.10535,0,0,0,0-4.21068h-3.4451Z" transform="translate(-943.65441 -520.35984)"/><circle class="cls-4" cx="3.459" cy="21.71155" r="1.37347"/><path class="cls-4" d="M943.65441,543.441a1.37244,1.37244,0,1,0,0-2.74488Z" transform="translate(-943.65441 -520.35984)"/><path class="cls-3" d="M943.65441,551.11056h3.4451a2.10535,2.10535,0,0,0,0-4.21069h-3.4451Z" transform="translate(-943.65441 -520.35984)"/><circle class="cls-4" cx="3.459" cy="28.6435" r="1.37347"/><path class="cls-4" d="M943.65441,550.373a1.37244,1.37244,0,1,0,0-2.74488Z" transform="translate(-943.65441 -520.35984)"/><path class="cls-3" d="M943.65441,558.04251h3.4451a2.10535,2.10535,0,0,0,0-4.21069h-3.4451Z" transform="translate(-943.65441 -520.35984)"/><circle class="cls-4" cx="3.459" cy="35.57545" r="1.37347"/><path class="cls-4" d="M943.65441,557.3049a1.37244,1.37244,0,1,0,0-2.74488Z" transform="translate(-943.65441 -520.35984)"/><path class="cls-3" d="M943.65441,564.97446h3.4451a2.10535,2.10535,0,0,0,0-4.21069h-3.4451Z" transform="translate(-943.65441 -520.35984)"/><circle class="cls-4" cx="3.459" cy="42.5074" r="1.37347"/><path class="cls-4" d="M943.65441,564.23685a1.37244,1.37244,0,1,0,0-2.74488Z" transform="translate(-943.65441 -520.35984)"/><path class="cls-3" d="M943.65441,571.9064h3.4451a2.10535,2.10535,0,0,0,0-4.21068h-3.4451Z" transform="translate(-943.65441 -520.35984)"/><circle class="cls-4" cx="3.459" cy="49.43934" r="1.37347"/><path class="cls-4" d="M943.65441,571.1688a1.37244,1.37244,0,1,0,0-2.74488Z" transform="translate(-943.65441 -520.35984)"/><path class="cls-3" d="M943.65441,578.83835h3.4451a2.10535,2.10535,0,0,0,0-4.21069h-3.4451Z" transform="translate(-943.65441 -520.35984)"/><circle class="cls-4" cx="3.459" cy="56.37129" r="1.37347"/><path class="cls-4" d="M943.65441,578.10074a1.37244,1.37244,0,1,0,0-2.74487Z" transform="translate(-943.65441 -520.35984)"/><path class="cls-3" d="M943.65441,585.7703h3.4451a2.10535,2.10535,0,0,0,0-4.21069h-3.4451Z" transform="translate(-943.65441 -520.35984)"/><circle class="cls-4" cx="3.459" cy="63.30324" r="1.37347"/><path class="cls-4" d="M943.65441,585.03269a1.37244,1.37244,0,1,0,0-2.74488Z" transform="translate(-943.65441 -520.35984)"/><path class="cls-3" d="M1006.01661,526.14976h-3.4451a2.10535,2.10535,0,0,0,0,4.21069h3.4451Z" transform="translate(-943.65441 -520.35984)"/><circle class="cls-4" cx="58.90321" cy="7.89714" r="1.37347"/><path class="cls-4" d="M1006.01661,526.88737a1.37244,1.37244,0,1,0,0,2.74488Z" transform="translate(-943.65441 -520.35984)"/><path class="cls-3" d="M1006.01661,533.06509h-3.4451a2.10535,2.10535,0,0,0,0,4.21069h3.4451Z" transform="translate(-943.65441 -520.35984)"/><circle class="cls-4" cx="58.90321" cy="14.81247" r="1.37347"/><path class="cls-4" d="M1006.01661,533.8027a1.37244,1.37244,0,1,0,0,2.74488Z" transform="translate(-943.65441 -520.35984)"/><path class="cls-3" d="M1006.01661,539.98042h-3.4451a2.10535,2.10535,0,0,0,0,4.21069h3.4451Z" transform="translate(-943.65441 -520.35984)"/><circle class="cls-4" cx="58.90321" cy="21.7278" r="1.37347"/><path class="cls-4" d="M1006.01661,540.718a1.37244,1.37244,0,1,0,0,2.74488Z" transform="translate(-943.65441 -520.35984)"/><path class="cls-3" d="M1006.01661,546.89575h-3.4451a2.10535,2.10535,0,0,0,0,4.21069h3.4451Z" transform="translate(-943.65441 -520.35984)"/><circle class="cls-4" cx="58.90321" cy="28.64313" r="1.37347"/><path class="cls-4" d="M1006.01661,547.63336a1.37244,1.37244,0,1,0,0,2.74488Z" transform="translate(-943.65441 -520.35984)"/><path class="cls-3" d="M1006.01661,553.81108h-3.4451a2.10535,2.10535,0,0,0,0,4.21069h3.4451Z" transform="translate(-943.65441 -520.35984)"/><circle class="cls-4" cx="58.90321" cy="35.55846" r="1.37347"/><path class="cls-4" d="M1006.01661,554.54869a1.37244,1.37244,0,1,0,0,2.74488Z" transform="translate(-943.65441 -520.35984)"/><path class="cls-3" d="M1006.01661,560.72641h-3.4451a2.10535,2.10535,0,0,0,0,4.21069h3.4451Z" transform="translate(-943.65441 -520.35984)"/><circle class="cls-4" cx="58.90321" cy="42.47379" r="1.37347"/><path class="cls-4" d="M1006.01661,561.464a1.37244,1.37244,0,1,0,0,2.74488Z" transform="translate(-943.65441 -520.35984)"/><path class="cls-3" d="M1006.01661,567.64174h-3.4451a2.10535,2.10535,0,0,0,0,4.21069h3.4451Z" transform="translate(-943.65441 -520.35984)"/><circle class="cls-4" cx="58.90321" cy="49.38912" r="1.37347"/><path class="cls-4" d="M1006.01661,568.37935a1.37244,1.37244,0,1,0,0,2.74487Z" transform="translate(-943.65441 -520.35984)"/><path class="cls-3" d="M1006.01661,574.55707h-3.4451a2.10535,2.10535,0,0,0,0,4.21069h3.4451Z" transform="translate(-943.65441 -520.35984)"/><circle class="cls-4" cx="58.90321" cy="56.30445" r="1.37347"/><path class="cls-4" d="M1006.01661,575.29468a1.37244,1.37244,0,1,0,0,2.74487Z" transform="translate(-943.65441 -520.35984)"/><path class="cls-3" d="M1006.01661,581.4724h-3.4451a2.10535,2.10535,0,0,0,0,4.21069h3.4451Z" transform="translate(-943.65441 -520.35984)"/><circle class="cls-4" cx="58.90321" cy="63.21978" r="1.37347"/><path class="cls-4" d="M1006.01661,582.21a1.37244,1.37244,0,1,0,0,2.74488Z" transform="translate(-943.65441 -520.35984)"/><rect class="cls-1" x="984.30758" y="578.87114" width="9.74267" height="4.60124" rx="1.01548" transform="translate(626.69626 -928.36699) rotate(90)"/><g id="Disegno_15" data-name="Disegno 15"><rect class="cls-5" x="42.00138" y="57.1152" width="7.04626" height="7.39402"/><path class="cls-1" d="M986.13007,581.17193a3.04884,3.04884,0,1,1,3.048,3.04964A3.05246,3.05246,0,0,1,986.13007,581.17193Zm5.836,0a2.7872,2.7872,0,1,0-2.788,2.788A2.79122,2.79122,0,0,0,991.96611,581.17193Z" transform="translate(-943.65441 -520.35984)"/><path class="cls-1" d="M988.44313,581.17172a.73578.73578,0,1,1,.73513.73644A.73638.73638,0,0,1,988.44313,581.17172Z" transform="translate(-943.65441 -520.35984)"/></g><path class="cls-1" d="M948.77127,527.5324h-1.855l-.50967.50967V529.823l.50967.50967h1.855l.50967-.50967v-1.78094Z" transform="translate(-943.65441 -520.35984)"/><polyline class="cls-6" points="3.478 8.325 3.042 8.325 3.042 7.464"/><path class="cls-6" d="M946.81122,527.5324a.39032.39032,0,0,1-.4046.39909" transform="translate(-943.65441 -520.35984)"/><polyline class="cls-6" points="3.478 8.82 3.042 8.82 3.042 9.681"/><path class="cls-6" d="M946.81122,530.33268a.39032.39032,0,0,0-.4046-.3991" transform="translate(-943.65441 -520.35984)"/><polyline class="cls-6" points="4.9 8.325 5.337 8.325 5.337 7.464"/><path class="cls-6" d="M948.87634,527.5324a.39031.39031,0,0,0,.4046.39909" transform="translate(-943.65441 -520.35984)"/><polyline class="cls-6" points="4.9 8.82 5.337 8.82 5.337 9.681"/><path class="cls-6" d="M948.87634,530.33268a.39031.39031,0,0,1,.4046-.3991" transform="translate(-943.65441 -520.35984)"/><rect class="cls-7" x="3.47848" y="7.17256" width="1.42178" height="2.80028"/><rect class="cls-5" x="6.79578" y="9.57717" width="7.0833" height="8.19891"/><circle class="cls-8" cx="10.33743" cy="13.67663" r="2.31092"/><rect class="cls-1" x="7.15103" y="17.77609" width="1.75096" height="1.01652"/><rect class="cls-1" x="11.77287" y="17.77609" width="1.75096" height="1.01652"/><rect class="cls-1" x="7.15103" y="8.56066" width="1.75096" height="1.01652"/><rect class="cls-1" x="11.77287" y="8.56066" width="1.75096" height="1.01652"/><g id="Artwork_3" data-name="Artwork 3"><path class="cls-1" d="M9.39261,4.98781h1.0716a.01673.01673,0,0,1,.01673.01673V6.07586a.01673.01673,0,0,1-.01673.01673H9.39266a.01673.01673,0,0,1-.01673-.01673V5.00449a.01668.01668,0,0,1,.01668-.01668Z"/><path class="cls-1" d="M8.18015,4.98781h1.0716a.01673.01673,0,0,1,.01673.01673V6.07586a.01673.01673,0,0,1-.01673.01673H8.18019a.01673.01673,0,0,1-.01673-.01673V5.00449a.01668.01668,0,0,1,.01668-.01668Z"/><path class="cls-9" d="M952.52556,526.362v.00033l.45059.00007h.03688l.44992.00006,0-.00368a.45909.45909,0,0,0,.00012-.91774v-.00336l-.44992-.00006-.03688,0-.45059-.00006a.46223.46223,0,1,0-.00013.92445Z" transform="translate(-943.65441 -520.35984)"/><rect class="cls-10" x="8.9757" y="5.07781" width="0.68393" height="0.92478"/></g><g id="Artwork_3-2" data-name="Artwork 3"><path class="cls-1" d="M9.39261,6.62017h1.07165a.01668.01668,0,0,1,.01668.01668V7.70822a.01673.01673,0,0,1-.01673.01673H9.39261a.01668.01668,0,0,1-.01668-.01668V6.63685A.01668.01668,0,0,1,9.39261,6.62017Z"/><path class="cls-1" d="M8.18015,6.62017h1.0716a.01673.01673,0,0,1,.01673.01673V7.70822a.01673.01673,0,0,1-.01673.01673H8.18015a.01668.01668,0,0,1-.01668-.01668V6.63685A.01668.01668,0,0,1,8.18015,6.62017Z"/><path class="cls-9" d="M952.52556,527.99439v.00034l.45059.00006h.03688l.44992.00006,0-.00368a.45909.45909,0,0,0,.00012-.91774v-.00336l-.44992-.00006h-.03688l-.45059-.00007a.46223.46223,0,1,0-.00013.92445Z" transform="translate(-943.65441 -520.35984)"/><rect class="cls-10" x="8.9757" y="6.71017" width="0.68393" height="0.92478"/></g><g id="Artwork_3-3" data-name="Artwork 3"><path class="cls-1" d="M12.39251,6.62017h1.07165a.01668.01668,0,0,1,.01668.01668V7.70822a.01673.01673,0,0,1-.01673.01673H12.39256a.01673.01673,0,0,1-.01673-.01673V6.63685A.01668.01668,0,0,1,12.39251,6.62017Z"/><path class="cls-1" d="M11.18,6.62017h1.0716a.01673.01673,0,0,1,.01673.01673V7.70822a.01673.01673,0,0,1-.01673.01673H11.18a.01668.01668,0,0,1-.01668-.01668V6.63685A.01668.01668,0,0,1,11.18,6.62017Z"/><path class="cls-9" d="M955.52547,527.99439v.00034l.45059.00006h.03688l.44992.00006v-.00368a.45909.45909,0,0,0,.00013-.91774v-.00336l-.44993-.00006h-.03688l-.45059-.00007a.46223.46223,0,1,0-.00012.92445Z" transform="translate(-943.65441 -520.35984)"/><rect class="cls-10" x="11.9756" y="6.71017" width="0.68393" height="0.92478"/></g><g id="Artwork_3-4" data-name="Artwork 3"><path class="cls-1" d="M18.3977,33.14823h1.0716a.01673.01673,0,0,1,.01673.01673v1.07132a.01673.01673,0,0,1-.01673.01673H18.3977a.01668.01668,0,0,1-.01668-.01668V33.16491A.01668.01668,0,0,1,18.3977,33.14823Z"/><path class="cls-1" d="M17.18523,33.14823h1.0716a.01673.01673,0,0,1,.01673.01673v1.07132a.01673.01673,0,0,1-.01673.01673H17.18528a.01673.01673,0,0,1-.01673-.01673V33.16491a.01668.01668,0,0,1,.01668-.01668Z"/><path class="cls-9" d="M961.53065,554.52245v.00033l.45059.00007h.03688l.44992.00006v-.00368a.45909.45909,0,0,0,.00013-.91774v-.00336l-.44992-.00006-.03688,0-.45059-.00006a.46223.46223,0,1,0-.00013.92445Z" transform="translate(-943.65441 -520.35984)"/><rect class="cls-10" x="17.98078" y="33.23823" width="0.68393" height="0.92478"/></g><g id="Artwork_3-5" data-name="Artwork 3"><path class="cls-1" d="M14.36451,36.68837h1.0716a.01673.01673,0,0,1,.01673.01673v1.07132a.01673.01673,0,0,1-.01673.01673H14.36456a.01673.01673,0,0,1-.01673-.01673V36.70505A.01668.01668,0,0,1,14.36451,36.68837Z"/><path class="cls-1" d="M13.152,36.68837h1.0716a.01673.01673,0,0,1,.01673.01673v1.07132a.01673.01673,0,0,1-.01673.01673H13.152a.01668.01668,0,0,1-.01668-.01668V36.705A.01668.01668,0,0,1,13.152,36.68837Z"/><path class="cls-9" d="M957.49746,558.06259v.00033l.45059.00006.03688,0,.44992.00006v-.00369a.45909.45909,0,0,0,.00013-.91774v-.00335l-.44992-.00006-.03688,0-.45059-.00006a.46223.46223,0,1,0-.00013.92445Z" transform="translate(-943.65441 -520.35984)"/><rect class="cls-10" x="13.9476" y="36.77836" width="0.68393" height="0.92478"/></g><g id="Artwork_3-6" data-name="Artwork 3"><path class="cls-1" d="M17.3645,42.25912h1.0716a.01673.01673,0,0,1,.01673.01673v1.07132a.01673.01673,0,0,1-.01673.01673h-1.0716a.01668.01668,0,0,1-.01668-.01668V42.2758a.01668.01668,0,0,1,.01668-.01668Z"/><path class="cls-1" d="M16.152,42.25912h1.07165a.01668.01668,0,0,1,.01668.01668v1.07137a.01673.01673,0,0,1-.01673.01673H16.152a.01668.01668,0,0,1-.01668-.01668V42.2758a.01668.01668,0,0,1,.01668-.01668Z"/><path class="cls-9" d="M960.49745,563.63333v.00034l.45059.00006.03688,0,.44992.00006v-.00369a.45909.45909,0,0,0,.00013-.91774V562.709l-.44993-.00006-.03688,0-.45059-.00006a.46222.46222,0,1,0-.00012.92444Z" transform="translate(-943.65441 -520.35984)"/><rect class="cls-10" x="16.94758" y="42.34911" width="0.68393" height="0.92478"/></g><g id="Artwork_3-7" data-name="Artwork 3"><path class="cls-1" d="M14.46628,45.56983h1.07141a.01668.01668,0,0,1,.01668.01668v1.0716a.01673.01673,0,0,1-.01673.01673H14.46633a.01673.01673,0,0,1-.01673-.01673v-1.0716A.01668.01668,0,0,1,14.46628,45.56983Z"/><path class="cls-1" d="M14.46628,44.35737h1.07137a.01673.01673,0,0,1,.01673.01673v1.07156a.01673.01673,0,0,1-.01673.01673H14.46628a.01668.01668,0,0,1-.01668-.01668V44.374a.01668.01668,0,0,1,.01668-.01668Z"/><path class="cls-9" d="M958.1944,565.4249h-.00034l-.00006.45059v.03688l-.00006.44992h.00368a.45909.45909,0,0,0,.91774.00013h.00336l.00006-.44992v-.03688l.00007-.45059a.46223.46223,0,1,0-.92445-.00013Z" transform="translate(-943.65441 -520.35984)"/><rect class="cls-10" x="14.53959" y="45.1696" width="0.92478" height="0.68393"/></g><g id="Artwork_3-8" data-name="Artwork 3"><path class="cls-1" d="M17.3645,47.66832h1.07165a.01668.01668,0,0,1,.01668.01668v1.07136a.01673.01673,0,0,1-.01673.01673h-1.0716a.01668.01668,0,0,1-.01668-.01668V47.685a.01668.01668,0,0,1,.01668-.01668Z"/><path class="cls-1" d="M16.152,47.66832h1.07165a.01668.01668,0,0,1,.01668.01668v1.07137a.01673.01673,0,0,1-.01673.01673H16.152a.01668.01668,0,0,1-.01668-.01668V47.685A.01668.01668,0,0,1,16.152,47.66832Z"/><path class="cls-9" d="M960.49745,569.04254v.00033l.45059.00007h.03688l.44992.00006v-.00369a.45908.45908,0,0,0,.00013-.91773v-.00336l-.44993-.00006-.03688,0-.45059-.00006a.46223.46223,0,1,0-.00012.92445Z" transform="translate(-943.65441 -520.35984)"/><rect class="cls-10" x="16.94758" y="47.75832" width="0.68393" height="0.92478"/></g><g id="Artwork_3-9" data-name="Artwork 3"><path class="cls-1" d="M41.99274,12.68115h1.07141a.01668.01668,0,0,1,.01668.01668v1.0716a.01673.01673,0,0,1-.01673.01673H41.99274a.01668.01668,0,0,1-.01668-.01668V12.69783a.01668.01668,0,0,1,.01668-.01668Z"/><path class="cls-1" d="M41.99274,11.46868h1.07141a.01668.01668,0,0,1,.01668.01668V12.557a.01673.01673,0,0,1-.01673.01673H41.99274a.01668.01668,0,0,1-.01668-.01668V11.48537a.01668.01668,0,0,1,.01668-.01668Z"/><path class="cls-9" d="M985.72087,532.53621h-.00034l-.00006.4506,0,.03687-.00006.44993h.00369a.45909.45909,0,0,0,.91774.00012l.00335,0,.00006-.44993,0-.03688.00006-.45059a.46222.46222,0,1,0-.92444-.00013Z" transform="translate(-943.65441 -520.35984)"/><rect class="cls-10" x="42.06606" y="12.28092" width="0.92478" height="0.68393"/></g><g id="Artwork_3-10" data-name="Artwork 3"><path class="cls-1" d="M43.61584,12.68115h1.07141a.01668.01668,0,0,1,.01668.01668v1.0716a.01673.01673,0,0,1-.01673.01673H43.61584a.01668.01668,0,0,1-.01668-.01668V12.69783a.01668.01668,0,0,1,.01668-.01668Z"/><path class="cls-1" d="M43.61583,11.46868H44.6872a.01673.01673,0,0,1,.01673.01673V12.557a.01673.01673,0,0,1-.01673.01673H43.61583a.01668.01668,0,0,1-.01668-.01668V11.48537A.01668.01668,0,0,1,43.61583,11.46868Z"/><path class="cls-9" d="M987.344,532.53621h-.00034l-.00006.4506,0,.03687-.00006.44993h.00369a.45909.45909,0,0,0,.91774.00012l.00335,0,.00007-.44993v-.03688l.00006-.45059a.46222.46222,0,1,0-.92444-.00013Z" transform="translate(-943.65441 -520.35984)"/><rect class="cls-10" x="43.68915" y="12.28092" width="0.92478" height="0.68393"/></g><g id="Artwork_3-11" data-name="Artwork 3"><path class="cls-1" d="M45.23893,12.68115h1.07141a.01668.01668,0,0,1,.01668.01668v1.0716a.01673.01673,0,0,1-.01673.01673H45.23893a.01668.01668,0,0,1-.01668-.01668V12.69783a.01668.01668,0,0,1,.01668-.01668Z"/><path class="cls-1" d="M45.23893,11.46868h1.07137a.01673.01673,0,0,1,.01673.01673V12.557a.01673.01673,0,0,1-.01673.01673H45.23893a.01668.01668,0,0,1-.01668-.01668V11.48537A.01668.01668,0,0,1,45.23893,11.46868Z"/><path class="cls-9" d="M988.96705,532.53621h-.00034l-.00006.4506v.03687l-.00007.44993h.00369a.45909.45909,0,0,0,.91774.00012l.00336,0,.00006-.44993v-.03688l.00006-.45059a.46222.46222,0,1,0-.92444-.00013Z" transform="translate(-943.65441 -520.35984)"/><rect class="cls-10" x="45.31224" y="12.28092" width="0.92478" height="0.68393"/></g><g id="Artwork_3-12" data-name="Artwork 3"><path class="cls-1" d="M46.862,12.68115h1.07141a.01668.01668,0,0,1,.01668.01668v1.0716a.01673.01673,0,0,1-.01673.01673H46.862a.01668.01668,0,0,1-.01668-.01668V12.69783a.01668.01668,0,0,1,.01668-.01668Z"/><path class="cls-1" d="M46.862,11.46868h1.07137a.01673.01673,0,0,1,.01673.01673V12.557a.01673.01673,0,0,1-.01673.01673H46.862a.01668.01668,0,0,1-.01668-.01668V11.48537A.01668.01668,0,0,1,46.862,11.46868Z"/><path class="cls-9" d="M990.59014,532.53621h-.00034l-.00006.4506v.03687l-.00006.44993h.00368a.45909.45909,0,0,0,.91774.00012l.00336,0,.00006-.44993v-.03688l.00007-.45059a.46223.46223,0,1,0-.92445-.00013Z" transform="translate(-943.65441 -520.35984)"/><rect class="cls-10" x="46.93533" y="12.28092" width="0.92478" height="0.68393"/></g><g id="Artwork_3-13" data-name="Artwork 3"><path class="cls-1" d="M50.1082,12.68115h1.07141a.01668.01668,0,0,1,.01668.01668v1.0716a.01673.01673,0,0,1-.01673.01673H50.1082a.01668.01668,0,0,1-.01668-.01668V12.69783a.01668.01668,0,0,1,.01668-.01668Z"/><path class="cls-1" d="M50.1082,11.46868h1.07137a.01673.01673,0,0,1,.01673.01673V12.557a.01673.01673,0,0,1-.01673.01673H50.1082a.01668.01668,0,0,1-.01668-.01668V11.48537A.01668.01668,0,0,1,50.1082,11.46868Z"/><path class="cls-9" d="M993.83632,532.53621H993.836l-.00006.4506,0,.03687-.00006.44993h.00369a.45909.45909,0,0,0,.91774.00012l.00335,0,.00006-.44993,0-.03688.00006-.45059a.46223.46223,0,1,0-.92445-.00013Z" transform="translate(-943.65441 -520.35984)"/><rect class="cls-10" x="50.18152" y="12.28092" width="0.92478" height="0.68393"/></g><path class="cls-1" d="M961.44373,552.43345a1.08522,1.08522,0,0,0-.07495-.39739h1.22583a1.08526,1.08526,0,0,0-.07495.39739,1.02055,1.02055,0,0,0,.07871.4011H961.365A1.02055,1.02055,0,0,0,961.44373,552.43345Z" transform="translate(-943.65441 -520.35984)"/><path class="cls-11" d="M962.51966,552.43345a1.08526,1.08526,0,0,1,.07495-.39739h.20245v.79849h-.19869A1.02055,1.02055,0,0,1,962.51966,552.43345Z" transform="translate(-943.65441 -520.35984)"/><path class="cls-11" d="M961.17008,552.83455v-.79849h.1987a1.08522,1.08522,0,0,1,.07495.39739,1.02055,1.02055,0,0,1-.07871.4011Z" transform="translate(-943.65441 -520.35984)"/><path class="cls-1" d="M956.67606,559.85788a1.0853,1.0853,0,0,0,.39739-.075v1.22583a1.0853,1.0853,0,0,0-.39739-.075,1.02052,1.02052,0,0,0-.4011.07871v-1.23335A1.02052,1.02052,0,0,0,956.67606,559.85788Z" transform="translate(-943.65441 -520.35984)"/><path class="cls-11" d="M956.67606,560.93381a1.0853,1.0853,0,0,1,.39739.075v.20245H956.275v-.19869A1.02052,1.02052,0,0,1,956.67606,560.93381Z" transform="translate(-943.65441 -520.35984)"/><path class="cls-11" d="M956.275,559.58423h.79849v.1987a1.0853,1.0853,0,0,1-.39739.075,1.02052,1.02052,0,0,1-.4011-.07871Z" transform="translate(-943.65441 -520.35984)"/><path class="cls-1" d="M961.48833,565.11592a1.08511,1.08511,0,0,0,.075.3974h-1.22584a1.08511,1.08511,0,0,0,.075-.3974,1.02059,1.02059,0,0,0-.07871-.4011H961.567A1.02059,1.02059,0,0,0,961.48833,565.11592Z" transform="translate(-943.65441 -520.35984)"/><path class="cls-11" d="M960.41241,565.11592a1.08511,1.08511,0,0,1-.075.3974H960.135v-.7985h.1987A1.02059,1.02059,0,0,1,960.41241,565.11592Z" transform="translate(-943.65441 -520.35984)"/><path class="cls-11" d="M961.762,564.71482v.7985h-.1987a1.08511,1.08511,0,0,1-.075-.3974,1.02059,1.02059,0,0,1,.07871-.4011Z" transform="translate(-943.65441 -520.35984)"/><path class="cls-1" d="M961.48833,566.63968a1.0851,1.0851,0,0,0,.075.39739h-1.22584a1.0851,1.0851,0,0,0,.075-.39739,1.02052,1.02052,0,0,0-.07871-.4011H961.567A1.02052,1.02052,0,0,0,961.48833,566.63968Z" transform="translate(-943.65441 -520.35984)"/><path class="cls-11" d="M960.41241,566.63968a1.0851,1.0851,0,0,1-.075.39739H960.135v-.79849h.1987A1.02052,1.02052,0,0,1,960.41241,566.63968Z" transform="translate(-943.65441 -520.35984)"/><path class="cls-11" d="M961.762,566.23858v.79849h-.1987a1.0851,1.0851,0,0,1-.075-.39739,1.02052,1.02052,0,0,1,.07871-.4011Z" transform="translate(-943.65441 -520.35984)"/><g id="Artwork_3-14" data-name="Artwork 3"><path class="cls-1" d="M23.63043,57.67186H24.702a.01673.01673,0,0,1,.01673.01673V58.7599a.01673.01673,0,0,1-.01673.01673H23.63047a.01673.01673,0,0,1-.01673-.01673V57.68854a.01668.01668,0,0,1,.01668-.01668Z"/><path class="cls-1" d="M22.418,57.67186h1.07165a.01668.01668,0,0,1,.01668.01668v1.07137a.01673.01673,0,0,1-.01673.01673H22.418a.01668.01668,0,0,1-.01668-.01668V57.68854a.01668.01668,0,0,1,.01668-.01668Z"/><path class="cls-9" d="M966.76338,579.04608v.00033l.45059.00006.03688,0,.44992.00006v-.00369a.45909.45909,0,0,0,.00013-.91774v-.00335l-.44992-.00006-.03688,0-.45059-.00006a.46223.46223,0,1,0-.00013.92445Z" transform="translate(-943.65441 -520.35984)"/><rect class="cls-10" x="23.21351" y="57.76185" width="0.68393" height="0.92478"/></g><g id="Artwork_3-15" data-name="Artwork 3"><path class="cls-1" d="M21.0393,64.99707h1.0716a.01673.01673,0,0,1,.01673.01673v1.07132a.01673.01673,0,0,1-.01673.01673H21.0393a.01668.01668,0,0,1-.01668-.01668V65.01375a.01668.01668,0,0,1,.01668-.01668Z"/><path class="cls-1" d="M19.82684,64.99707h1.07165a.01668.01668,0,0,1,.01668.01668v1.07137a.01673.01673,0,0,1-.01673.01673H19.82689a.01673.01673,0,0,1-.01673-.01673V65.01375a.01668.01668,0,0,1,.01668-.01668Z"/><path class="cls-9" d="M964.17225,586.37129v.00033l.45059.00007h.03688l.44993.00006v-.00369a.45908.45908,0,0,0,.00012-.91773V585.447l-.44992-.00006-.03688,0-.45059-.00006a.46223.46223,0,1,0-.00013.92445Z" transform="translate(-943.65441 -520.35984)"/><rect class="cls-10" x="20.62239" y="65.08707" width="0.68393" height="0.92478"/></g><g id="Artwork_3-16" data-name="Artwork 3"><path class="cls-1" d="M27.85026,64.82719h1.07141a.01668.01668,0,0,1,.01668.01668v1.0716a.01673.01673,0,0,1-.01673.01673H27.85031a.01673.01673,0,0,1-.01673-.01673v-1.0716a.01668.01668,0,0,1,.01668-.01668Z"/><path class="cls-1" d="M27.85026,63.61472h1.07137a.01673.01673,0,0,1,.01673.01673V64.703a.01673.01673,0,0,1-.01673.01673H27.85026a.01668.01668,0,0,1-.01668-.01668V63.63141a.01668.01668,0,0,1,.01668-.01668Z"/><path class="cls-9" d="M971.57838,584.68225h-.00033l-.00007.4506v.03687l-.00006.44993h.00368a.45909.45909,0,0,0,.91774.00013h.00336l.00006-.44993V585.133l.00007-.45059a.46223.46223,0,1,0-.92445-.00013Z" transform="translate(-943.65441 -520.35984)"/><rect class="cls-10" x="27.92357" y="64.42696" width="0.92478" height="0.68393"/></g><g id="Artwork_3-17" data-name="Artwork 3"><path class="cls-1" d="M51.9211,58.44942h1.07136a.01673.01673,0,0,1,.01673.01673v1.07156a.01673.01673,0,0,1-.01673.01673H51.9211a.01668.01668,0,0,1-.01668-.01668V58.46611A.01668.01668,0,0,1,51.9211,58.44942Z"/><path class="cls-1" d="M51.9211,57.237h1.07141a.01668.01668,0,0,1,.01668.01668v1.0716a.01673.01673,0,0,1-.01673.01673H51.9211a.01668.01668,0,0,1-.01668-.01668V57.25364A.01668.01668,0,0,1,51.9211,57.237Z"/><path class="cls-9" d="M995.64922,578.30449h-.00034l-.00006.45059v.03688l-.00007.44992h.00369a.45909.45909,0,0,0,.91774.00013h.00335l.00007-.44992v-.03688l.00006-.45059a.46222.46222,0,1,0-.92444-.00013Z" transform="translate(-943.65441 -520.35984)"/><rect class="cls-10" x="51.99441" y="58.04919" width="0.92478" height="0.68393"/></g><g id="Artwork_3-18" data-name="Artwork 3"><path class="cls-1" d="M17.67849,64.99707h1.0716a.01673.01673,0,0,1,.01673.01673v1.07132a.01673.01673,0,0,1-.01673.01673h-1.0716a.01668.01668,0,0,1-.01668-.01668V65.01375a.01668.01668,0,0,1,.01668-.01668Z"/><path class="cls-1" d="M16.466,64.99707h1.0716a.01673.01673,0,0,1,.01673.01673v1.07132a.01673.01673,0,0,1-.01673.01673H16.466a.01668.01668,0,0,1-.01668-.01668V65.01375a.01668.01668,0,0,1,.01668-.01668Z"/><path class="cls-9" d="M960.81144,586.37129v.00033l.4506.00007h.03687l.44993.00006v-.00369a.45908.45908,0,0,0,.00012-.91773l0-.00336-.44993-.00006-.03688,0-.45059-.00006a.46223.46223,0,1,0-.00013.92445Z" transform="translate(-943.65441 -520.35984)"/><rect class="cls-10" x="17.26158" y="65.08707" width="0.68393" height="0.92478"/></g><g id="Artwork_3-19" data-name="Artwork 3"><path class="cls-1" d="M26.79344,51.94946H27.8648a.01673.01673,0,0,1,.01673.01673v1.07156a.01673.01673,0,0,1-.01673.01673H26.79344a.01668.01668,0,0,1-.01668-.01668V51.96614A.01668.01668,0,0,1,26.79344,51.94946Z"/><path class="cls-1" d="M26.79344,50.737H27.8648a.01673.01673,0,0,1,.01673.01673v1.07156a.01673.01673,0,0,1-.01673.01673H26.79344a.01668.01668,0,0,1-.01668-.01668V50.75368a.01668.01668,0,0,1,.01668-.01668Z"/><path class="cls-9" d="M970.52156,571.80453h-.00034l-.00006.45059v.03688l-.00006.44992h.00368a.45909.45909,0,0,0,.91774.00013h.00336l.00006-.44992v-.03688l.00007-.45059a.46223.46223,0,1,0-.92445-.00013Z" transform="translate(-943.65441 -520.35984)"/><rect class="cls-10" x="26.86675" y="51.54923" width="0.92478" height="0.68393"/></g><g id="Artwork_3-20" data-name="Artwork 3"><path class="cls-1" d="M28.67735,51.94946h1.07136a.01673.01673,0,0,1,.01673.01673v1.07156a.01673.01673,0,0,1-.01673.01673H28.67735a.01668.01668,0,0,1-.01668-.01668V51.96614A.01668.01668,0,0,1,28.67735,51.94946Z"/><path class="cls-1" d="M28.67735,50.737h1.07137a.01673.01673,0,0,1,.01673.01673v1.07156a.01673.01673,0,0,1-.01673.01673H28.67735a.01668.01668,0,0,1-.01668-.01668V50.75368A.01668.01668,0,0,1,28.67735,50.737Z"/><path class="cls-9" d="M972.40547,571.80453h-.00033l-.00006.45059,0,.03688-.00006.44992h.00369a.45909.45909,0,0,0,.91774.00013h.00335l.00006-.44992,0-.03688.00006-.45059a.46223.46223,0,1,0-.92445-.00013Z" transform="translate(-943.65441 -520.35984)"/><rect class="cls-10" x="28.75067" y="51.54923" width="0.92478" height="0.68393"/></g><g id="Artwork_3-21" data-name="Artwork 3"><path class="cls-1" d="M30.56127,51.94946h1.07136a.01673.01673,0,0,1,.01673.01673v1.07156a.01673.01673,0,0,1-.01673.01673H30.56131a.01673.01673,0,0,1-.01673-.01673v-1.0716A.01668.01668,0,0,1,30.56127,51.94946Z"/><path class="cls-1" d="M30.56126,50.737h1.07137a.01673.01673,0,0,1,.01673.01673v1.07156a.01673.01673,0,0,1-.01673.01673H30.56126a.01668.01668,0,0,1-.01668-.01668V50.75368a.01668.01668,0,0,1,.01668-.01668Z"/><path class="cls-9" d="M974.28939,571.80453h-.00034l-.00006.45059,0,.03688-.00006.44992h.00369a.45909.45909,0,0,0,.91774.00013h.00335l.00007-.44992v-.03688l.00006-.45059a.46222.46222,0,1,0-.92444-.00013Z" transform="translate(-943.65441 -520.35984)"/><rect class="cls-10" x="30.63458" y="51.54923" width="0.92478" height="0.68393"/></g><g id="Artwork_3-22" data-name="Artwork 3"><path class="cls-1" d="M33.81429,51.94946h1.07136a.01673.01673,0,0,1,.01673.01673v1.07156a.01673.01673,0,0,1-.01673.01673H33.81429a.01668.01668,0,0,1-.01668-.01668V51.96614A.01668.01668,0,0,1,33.81429,51.94946Z"/><path class="cls-1" d="M33.81429,50.737h1.07137a.01673.01673,0,0,1,.01673.01673v1.07156a.01673.01673,0,0,1-.01673.01673H33.81429a.01668.01668,0,0,1-.01668-.01668V50.75368a.01668.01668,0,0,1,.01668-.01668Z"/><path class="cls-9" d="M977.54241,571.80453h-.00034l-.00006.45059v.03688l-.00007.44992h.00369a.45909.45909,0,0,0,.91774.00013h.00336l.00006-.44992v-.03688l.00006-.45059a.46222.46222,0,1,0-.92444-.00013Z" transform="translate(-943.65441 -520.35984)"/><rect class="cls-10" x="33.8876" y="51.54923" width="0.92478" height="0.68393"/></g><path class="cls-1" d="M967.75426,575.38a1.08532,1.08532,0,0,0,.075.3974h-1.22584a1.08511,1.08511,0,0,0,.075-.3974,1.02059,1.02059,0,0,0-.07871-.4011H967.833A1.02077,1.02077,0,0,0,967.75426,575.38Z" transform="translate(-943.65441 -520.35984)"/><path class="cls-11" d="M966.67834,575.38a1.08511,1.08511,0,0,1-.075.3974h-.20244v-.7985h.19869A1.02059,1.02059,0,0,1,966.67834,575.38Z" transform="translate(-943.65441 -520.35984)"/><path class="cls-11" d="M968.02792,574.97888v.7985h-.1987a1.08532,1.08532,0,0,1-.075-.3974,1.02077,1.02077,0,0,1,.07871-.4011Z" transform="translate(-943.65441 -520.35984)"/><path class="cls-1" d="M958.44152,585.91115a1.085,1.085,0,0,0,.075.39739h-1.22584a1.085,1.085,0,0,0,.075-.39739,1.02055,1.02055,0,0,0-.07871-.4011h1.23334A1.02055,1.02055,0,0,0,958.44152,585.91115Z" transform="translate(-943.65441 -520.35984)"/><path class="cls-11" d="M957.3656,585.91115a1.085,1.085,0,0,1-.075.39739h-.20245v-.79849h.1987A1.02055,1.02055,0,0,1,957.3656,585.91115Z" transform="translate(-943.65441 -520.35984)"/><path class="cls-11" d="M958.71517,585.51005v.79849h-.19869a1.085,1.085,0,0,1-.075-.39739,1.02055,1.02055,0,0,1,.07871-.4011Z" transform="translate(-943.65441 -520.35984)"/><path class="cls-1" d="M968.524,585.91115a1.08522,1.08522,0,0,0,.07495.39739h-1.22583a1.08522,1.08522,0,0,0,.075-.39739,1.02073,1.02073,0,0,0-.07871-.4011h1.23334A1.02055,1.02055,0,0,0,968.524,585.91115Z" transform="translate(-943.65441 -520.35984)"/><path class="cls-11" d="M967.448,585.91115a1.08522,1.08522,0,0,1-.075.39739h-.20245v-.79849h.1987A1.02073,1.02073,0,0,1,967.448,585.91115Z" transform="translate(-943.65441 -520.35984)"/><path class="cls-11" d="M968.7976,585.51005v.79849h-.1987a1.08522,1.08522,0,0,1-.07495-.39739,1.02055,1.02055,0,0,1,.07871-.4011Z" transform="translate(-943.65441 -520.35984)"/><path class="cls-1" d="M997.46454,581.12538a1.085,1.085,0,0,0,.075.39739h-1.22584a1.08522,1.08522,0,0,0,.075-.39739,1.02073,1.02073,0,0,0-.07871-.4011h1.23334A1.02055,1.02055,0,0,0,997.46454,581.12538Z" transform="translate(-943.65441 -520.35984)"/><path class="cls-11" d="M996.38862,581.12538a1.08522,1.08522,0,0,1-.075.39739h-.20245v-.79849h.1987A1.02073,1.02073,0,0,1,996.38862,581.12538Z" transform="translate(-943.65441 -520.35984)"/><path class="cls-11" d="M997.73819,580.72428v.79849h-.19869a1.085,1.085,0,0,1-.075-.39739,1.02055,1.02055,0,0,1,.07871-.4011Z" transform="translate(-943.65441 -520.35984)"/><path class="cls-1" d="M997.46454,576.3894a1.085,1.085,0,0,0,.075.39739h-1.22584a1.08526,1.08526,0,0,0,.075-.39739,1.02073,1.02073,0,0,0-.07871-.4011h1.23334A1.02055,1.02055,0,0,0,997.46454,576.3894Z" transform="translate(-943.65441 -520.35984)"/><path class="cls-11" d="M996.38862,576.3894a1.08526,1.08526,0,0,1-.075.39739h-.20245v-.79849h.1987A1.02073,1.02073,0,0,1,996.38862,576.3894Z" transform="translate(-943.65441 -520.35984)"/><path class="cls-11" d="M997.73819,575.9883v.79849h-.19869a1.085,1.085,0,0,1-.075-.39739,1.02055,1.02055,0,0,1,.07871-.4011Z" transform="translate(-943.65441 -520.35984)"/><path class="cls-1" d="M978.27385,585.67314a1.08511,1.08511,0,0,0-.3974.075v-1.22584a1.08511,1.08511,0,0,0,.3974.075,1.02059,1.02059,0,0,0,.4011-.07871v1.23334A1.02059,1.02059,0,0,0,978.27385,585.67314Z" transform="translate(-943.65441 -520.35984)"/><path class="cls-11" d="M978.27385,584.59722a1.08511,1.08511,0,0,1-.3974-.075v-.20245h.7985v.1987A1.02059,1.02059,0,0,1,978.27385,584.59722Z" transform="translate(-943.65441 -520.35984)"/><path class="cls-11" d="M978.675,585.94679h-.7985v-.19869a1.08511,1.08511,0,0,1,.3974-.075,1.02059,1.02059,0,0,1,.4011.07871Z" transform="translate(-943.65441 -520.35984)"/><path class="cls-1" d="M976.715,585.67314a1.0851,1.0851,0,0,0-.39739.075v-1.22584a1.0851,1.0851,0,0,0,.39739.075,1.02052,1.02052,0,0,0,.4011-.07871v1.23334A1.02052,1.02052,0,0,0,976.715,585.67314Z" transform="translate(-943.65441 -520.35984)"/><path class="cls-11" d="M976.715,584.59722a1.0851,1.0851,0,0,1-.39739-.075v-.20245h.79849v.1987A1.02052,1.02052,0,0,1,976.715,584.59722Z" transform="translate(-943.65441 -520.35984)"/><path class="cls-11" d="M977.11611,585.94679h-.79849v-.19869a1.0851,1.0851,0,0,1,.39739-.075,1.02052,1.02052,0,0,1,.4011.07871Z" transform="translate(-943.65441 -520.35984)"/><path class="cls-1" d="M975.15618,585.67314a1.08506,1.08506,0,0,0-.39739.075v-1.22584a1.0851,1.0851,0,0,0,.39739.075,1.02052,1.02052,0,0,0,.4011-.07871v1.23334A1.02055,1.02055,0,0,0,975.15618,585.67314Z" transform="translate(-943.65441 -520.35984)"/><path class="cls-11" d="M975.15618,584.59722a1.0851,1.0851,0,0,1-.39739-.075v-.20245h.79849v.1987A1.02052,1.02052,0,0,1,975.15618,584.59722Z" transform="translate(-943.65441 -520.35984)"/><path class="cls-11" d="M975.55728,585.94679h-.79849v-.19869a1.08506,1.08506,0,0,1,.39739-.075,1.02055,1.02055,0,0,1,.4011.07871Z" transform="translate(-943.65441 -520.35984)"/><path class="cls-1" d="M973.59735,585.67314a1.085,1.085,0,0,0-.39739.075v-1.22584a1.085,1.085,0,0,0,.39739.075,1.02055,1.02055,0,0,0,.4011-.07871v1.23334A1.02055,1.02055,0,0,0,973.59735,585.67314Z" transform="translate(-943.65441 -520.35984)"/><path class="cls-11" d="M973.59735,584.59722a1.085,1.085,0,0,1-.39739-.075v-.20245h.79849v.1987A1.02055,1.02055,0,0,1,973.59735,584.59722Z" transform="translate(-943.65441 -520.35984)"/><path class="cls-11" d="M973.99845,585.94679H973.2v-.19869a1.085,1.085,0,0,1,.39739-.075,1.02055,1.02055,0,0,1,.4011.07871Z" transform="translate(-943.65441 -520.35984)"/><path class="cls-1" d="M967.75426,572.71614a1.08522,1.08522,0,0,0,.075.39739h-1.22584a1.085,1.085,0,0,0,.075-.39739,1.02055,1.02055,0,0,0-.07871-.4011H967.833A1.02073,1.02073,0,0,0,967.75426,572.71614Z" transform="translate(-943.65441 -520.35984)"/><path class="cls-11" d="M966.67834,572.71614a1.085,1.085,0,0,1-.075.39739h-.20244V572.315h.19869A1.02055,1.02055,0,0,1,966.67834,572.71614Z" transform="translate(-943.65441 -520.35984)"/><path class="cls-11" d="M968.02792,572.315v.79849h-.1987a1.08522,1.08522,0,0,1-.075-.39739,1.02073,1.02073,0,0,1,.07871-.4011Z" transform="translate(-943.65441 -520.35984)"/><path class="cls-1" d="M967.75426,576.983a1.08522,1.08522,0,0,0,.075.39739h-1.22584a1.085,1.085,0,0,0,.075-.39739,1.02055,1.02055,0,0,0-.07871-.4011H967.833A1.02073,1.02073,0,0,0,967.75426,576.983Z" transform="translate(-943.65441 -520.35984)"/><path class="cls-11" d="M966.67834,576.983a1.085,1.085,0,0,1-.075.39739h-.20244v-.79849h.19869A1.02055,1.02055,0,0,1,966.67834,576.983Z" transform="translate(-943.65441 -520.35984)"/><path class="cls-11" d="M968.02792,576.58186v.79849h-.1987a1.08522,1.08522,0,0,1-.075-.39739,1.02073,1.02073,0,0,1,.07871-.4011Z" transform="translate(-943.65441 -520.35984)"/><path class="cls-1" d="M955.93942,552.43345a1.085,1.085,0,0,0-.075-.39739h1.22584a1.08506,1.08506,0,0,0-.075.39739,1.02055,1.02055,0,0,0,.07871.4011h-1.23334A1.02055,1.02055,0,0,0,955.93942,552.43345Z" transform="translate(-943.65441 -520.35984)"/><path class="cls-11" d="M957.01534,552.43345a1.08506,1.08506,0,0,1,.075-.39739h.20245v.79849h-.1987A1.02055,1.02055,0,0,1,957.01534,552.43345Z" transform="translate(-943.65441 -520.35984)"/><path class="cls-11" d="M955.66577,552.83455v-.79849h.19869a1.085,1.085,0,0,1,.075.39739,1.02055,1.02055,0,0,1-.07871.4011Z" transform="translate(-943.65441 -520.35984)"/><path class="cls-1" d="M981.79207,526.28267a1.76085,1.76085,0,0,0-.12164-.64487h1.98924a1.76105,1.76105,0,0,0-.12163.64487,1.65631,1.65631,0,0,0,.12772.65089h-2.00142A1.65614,1.65614,0,0,0,981.79207,526.28267Z" transform="translate(-943.65441 -520.35984)"/><path class="cls-11" d="M983.538,526.28267a1.76105,1.76105,0,0,1,.12163-.64487h.32853v1.29576h-.32244A1.65631,1.65631,0,0,1,983.538,526.28267Z" transform="translate(-943.65441 -520.35984)"/><path class="cls-11" d="M981.348,526.93356V525.6378h.32243a1.76085,1.76085,0,0,1,.12164.64487,1.65614,1.65614,0,0,1-.12773.65089Z" transform="translate(-943.65441 -520.35984)"/><path class="cls-1" d="M981.79207,528.576a1.76091,1.76091,0,0,0-.12164-.64488h1.98924a1.76111,1.76111,0,0,0-.12163.64488,1.65631,1.65631,0,0,0,.12772.65089l-2.00142,0A1.65605,1.65605,0,0,0,981.79207,528.576Z" transform="translate(-943.65441 -520.35984)"/><path class="cls-11" d="M983.538,528.576a1.76111,1.76111,0,0,1,.12163-.64488h.32853v1.29577h-.32244A1.65631,1.65631,0,0,1,983.538,528.576Z" transform="translate(-943.65441 -520.35984)"/><path class="cls-11" d="M981.348,529.22688v-1.29576h.32243a1.76091,1.76091,0,0,1,.12164.64488,1.65605,1.65605,0,0,1-.12773.65088Z" transform="translate(-943.65441 -520.35984)"/><path class="cls-1" d="M993.65964,551.05662a1.76111,1.76111,0,0,0-.12163-.64488h1.98924a1.76091,1.76091,0,0,0-.12164.64488,1.65631,1.65631,0,0,0,.12772.65089l-2.00141,0A1.65622,1.65622,0,0,0,993.65964,551.05662Z" transform="translate(-943.65441 -520.35984)"/><path class="cls-11" d="M995.40561,551.05662a1.76091,1.76091,0,0,1,.12164-.64488h.32852v1.29577h-.32244A1.65631,1.65631,0,0,1,995.40561,551.05662Z" transform="translate(-943.65441 -520.35984)"/><path class="cls-11" d="M993.21557,551.7075v-1.29576h.32244a1.76111,1.76111,0,0,1,.12163.64488,1.65622,1.65622,0,0,1-.12772.65088Z" transform="translate(-943.65441 -520.35984)"/><path class="cls-1" d="M993.65964,553.34994a1.76105,1.76105,0,0,0-.12163-.64487h1.98924a1.76085,1.76085,0,0,0-.12164.64487,1.65624,1.65624,0,0,0,.12772.65089h-2.00141A1.65624,1.65624,0,0,0,993.65964,553.34994Z" transform="translate(-943.65441 -520.35984)"/><path class="cls-11" d="M995.40561,553.34994a1.76085,1.76085,0,0,1,.12164-.64487h.32852v1.29576h-.32244A1.65624,1.65624,0,0,1,995.40561,553.34994Z" transform="translate(-943.65441 -520.35984)"/><path class="cls-11" d="M993.21557,554.00083v-1.29576h.32244a1.76105,1.76105,0,0,1,.12163.64487,1.65624,1.65624,0,0,1-.12772.65089Z" transform="translate(-943.65441 -520.35984)"/><path class="cls-1" d="M980.319,571.84205a1.76105,1.76105,0,0,0-.12163-.64487h1.98923a1.76105,1.76105,0,0,0-.12163.64487,1.65631,1.65631,0,0,0,.12772.65089h-2.00141A1.65631,1.65631,0,0,0,980.319,571.84205Z" transform="translate(-943.65441 -520.35984)"/><path class="cls-11" d="M982.06494,571.84205a1.76105,1.76105,0,0,1,.12163-.64487h.32853v1.29576h-.32244A1.65631,1.65631,0,0,1,982.06494,571.84205Z" transform="translate(-943.65441 -520.35984)"/><path class="cls-11" d="M979.8749,572.49294v-1.29576h.32244a1.76105,1.76105,0,0,1,.12163.64487,1.65631,1.65631,0,0,1-.12772.65089Z" transform="translate(-943.65441 -520.35984)"/><path class="cls-1" d="M980.88166,540.79917a1.76105,1.76105,0,0,0,.64487-.12163v1.98924a1.76085,1.76085,0,0,0-.64487-.12164,1.65614,1.65614,0,0,0-.65089.12773v-2.00142A1.65631,1.65631,0,0,0,980.88166,540.79917Z" transform="translate(-943.65441 -520.35984)"/><path class="cls-11" d="M980.88166,542.54514a1.76085,1.76085,0,0,1,.64487.12164v.32852h-1.29576v-.32243A1.65614,1.65614,0,0,1,980.88166,542.54514Z" transform="translate(-943.65441 -520.35984)"/><path class="cls-11" d="M980.23077,540.3551h1.29576v.32244a1.76105,1.76105,0,0,1-.64487.12163,1.65631,1.65631,0,0,1-.65089-.12772Z" transform="translate(-943.65441 -520.35984)"/><path class="cls-1" d="M998.2954,532.8915a1.76085,1.76085,0,0,0,.64487-.12164v1.98924a1.76085,1.76085,0,0,0-.64487-.12164,1.65606,1.65606,0,0,0-.65089.12773v-2.00142A1.65606,1.65606,0,0,0,998.2954,532.8915Z" transform="translate(-943.65441 -520.35984)"/><path class="cls-11" d="M998.2954,534.63746a1.76085,1.76085,0,0,1,.64487.12164v.32853h-1.29576v-.32244A1.65606,1.65606,0,0,1,998.2954,534.63746Z" transform="translate(-943.65441 -520.35984)"/><path class="cls-11" d="M997.64451,532.44742h1.29576v.32244a1.76085,1.76085,0,0,1-.64487.12164,1.65606,1.65606,0,0,1-.65089-.12773Z" transform="translate(-943.65441 -520.35984)"/><path class="cls-1" d="M998.2954,543.28007a1.76105,1.76105,0,0,0,.64487-.12163v1.98923a1.76105,1.76105,0,0,0-.64487-.12163,1.65624,1.65624,0,0,0-.65089.12772v-2.00141A1.65624,1.65624,0,0,0,998.2954,543.28007Z" transform="translate(-943.65441 -520.35984)"/><path class="cls-11" d="M998.2954,545.026a1.76105,1.76105,0,0,1,.64487.12163v.32853h-1.29576v-.32244A1.65624,1.65624,0,0,1,998.2954,545.026Z" transform="translate(-943.65441 -520.35984)"/><path class="cls-11" d="M997.64451,542.836h1.29576v.32244a1.76105,1.76105,0,0,1-.64487.12163,1.65624,1.65624,0,0,1-.65089-.12772Z" transform="translate(-943.65441 -520.35984)"/><path class="cls-1" d="M998.2954,547.9658a1.76085,1.76085,0,0,0,.64487-.12164v1.98924a1.76085,1.76085,0,0,0-.64487-.12164,1.65606,1.65606,0,0,0-.65089.12773v-2.00142A1.65606,1.65606,0,0,0,998.2954,547.9658Z" transform="translate(-943.65441 -520.35984)"/><path class="cls-11" d="M998.2954,549.71176a1.76085,1.76085,0,0,1,.64487.12164v.32853h-1.29576v-.32244A1.65606,1.65606,0,0,1,998.2954,549.71176Z" transform="translate(-943.65441 -520.35984)"/><path class="cls-11" d="M997.64451,547.52172h1.29576v.32244a1.76085,1.76085,0,0,1-.64487.12164,1.65606,1.65606,0,0,1-.65089-.12773Z" transform="translate(-943.65441 -520.35984)"/><path class="cls-1" d="M978.58833,540.79917a1.76111,1.76111,0,0,0,.64488-.12163v1.98924a1.76091,1.76091,0,0,0-.64488-.12164,1.65614,1.65614,0,0,0-.65089.12773v-2.00142A1.65631,1.65631,0,0,0,978.58833,540.79917Z" transform="translate(-943.65441 -520.35984)"/><path class="cls-11" d="M978.58833,542.54514a1.76091,1.76091,0,0,1,.64488.12164v.32852h-1.29577v-.32243A1.65614,1.65614,0,0,1,978.58833,542.54514Z" transform="translate(-943.65441 -520.35984)"/><path class="cls-11" d="M977.93744,540.3551h1.29577v.32244a1.76111,1.76111,0,0,1-.64488.12163,1.65631,1.65631,0,0,1-.65089-.12772Z" transform="translate(-943.65441 -520.35984)"/><rect class="cls-10" x="6.67934" y="19.60809" width="8.04983" height="10.73305"/><circle class="cls-2" cx="10.70425" cy="22.88165" r="1.7441"/><circle class="cls-12" cx="10.70425" cy="22.88165" r="0.93912"/><rect class="cls-13" x="958.99674" y="525.6731" width="17.77321" height="17.77321" transform="translate(992.11228 548.75956) rotate(-180)"/><circle class="cls-10" cx="16.70948" cy="21.7194" r="0.76108"/><circle class="cls-10" cx="16.70948" cy="6.68032" r="0.76108"/><circle class="cls-10" cx="31.74839" cy="21.7194" r="0.76108"/><circle class="cls-10" cx="31.74839" cy="6.68032" r="0.76108"/><path class="cls-10" d="M967.88336,526.6731a7.8866,7.8866,0,1,1-7.88659,7.88659,7.89551,7.89551,0,0,1,7.88659-7.88659m0-1a8.8866,8.8866,0,1,0,8.8866,8.88659,8.88659,8.88659,0,0,0-8.8866-8.88659Z" transform="translate(-943.65441 -520.35984)"/><path class="cls-14" d="M975.01667,533.40455a.206.206,0,0,1-.1476.26181" transform="translate(-943.65441 -520.35984)"/><path class="cls-14" d="M974.86907,535.45305a.9635.9635,0,0,1,0-1.78669" transform="translate(-943.65441 -520.35984)"/><path class="cls-14" d="M974.86907,535.45305a.206.206,0,0,1,.1476.26181" transform="translate(-943.65441 -520.35984)"/><path class="cls-14" d="M975.01667,535.71486a6.96406,6.96406,0,0,1-1.27251,3.072" transform="translate(-943.65441 -520.35984)"/><path class="cls-14" d="M973.74416,538.78689a.20592.20592,0,0,1-.28942.08081" transform="translate(-943.65441 -520.35984)"/><path class="cls-14" d="M973.45474,538.8677a.96352.96352,0,0,0-1.26342,1.26341" transform="translate(-943.65441 -520.35984)"/><path class="cls-14" d="M972.19132,540.13111a.20592.20592,0,0,1-.08081.28943" transform="translate(-943.65441 -520.35984)"/><path class="cls-14" d="M972.11051,540.42054a6.96409,6.96409,0,0,1-3.07194,1.2725" transform="translate(-943.65441 -520.35984)"/><path class="cls-14" d="M969.03857,541.693a.206.206,0,0,1-.2619-.1476" transform="translate(-943.65441 -520.35984)"/><path class="cls-14" d="M968.77667,541.54544a.9635.9635,0,0,0-1.78669,0" transform="translate(-943.65441 -520.35984)"/><path class="cls-14" d="M966.99,541.54544a.20592.20592,0,0,1-.26181.1476" transform="translate(-943.65441 -520.35984)"/><path class="cls-14" d="M966.72817,541.693a6.96443,6.96443,0,0,1-3.072-1.2725" transform="translate(-943.65441 -520.35984)"/><path class="cls-14" d="M963.65614,540.42054a.20593.20593,0,0,1-.08081-.28943" transform="translate(-943.65441 -520.35984)"/><path class="cls-14" d="M963.57533,540.13111a.96351.96351,0,0,0-1.26341-1.26341" transform="translate(-943.65441 -520.35984)"/><path class="cls-14" d="M962.31192,538.8677a.20593.20593,0,0,1-.28943-.08081" transform="translate(-943.65441 -520.35984)"/><path class="cls-14" d="M962.02249,538.78689a6.964,6.964,0,0,1-1.2725-3.072" transform="translate(-943.65441 -520.35984)"/><path class="cls-14" d="M960.75,535.71486a.206.206,0,0,1,.1476-.26181" transform="translate(-943.65441 -520.35984)"/><path class="cls-14" d="M960.89759,535.45305a.9635.9635,0,0,0,0-1.78669" transform="translate(-943.65441 -520.35984)"/><path class="cls-14" d="M960.89759,533.66636a.206.206,0,0,1-.1476-.26181" transform="translate(-943.65441 -520.35984)"/><path class="cls-14" d="M960.75,533.40455a6.964,6.964,0,0,1,1.2725-3.072" transform="translate(-943.65441 -520.35984)"/><path class="cls-14" d="M962.02249,530.33252a.20592.20592,0,0,1,.28943-.08081" transform="translate(-943.65441 -520.35984)"/><path class="cls-14" d="M962.31192,530.25171a.96352.96352,0,0,0,1.26341-1.26342" transform="translate(-943.65441 -520.35984)"/><path class="cls-14" d="M963.57533,528.98829a.20592.20592,0,0,1,.08081-.28942" transform="translate(-943.65441 -520.35984)"/><path class="cls-14" d="M963.65614,528.69887a6.96433,6.96433,0,0,1,3.072-1.27251" transform="translate(-943.65441 -520.35984)"/><path class="cls-14" d="M966.72817,527.42636a.20592.20592,0,0,1,.26181.1476" transform="translate(-943.65441 -520.35984)"/><path class="cls-14" d="M966.99,527.574a.9635.9635,0,0,0,1.78669,0" transform="translate(-943.65441 -520.35984)"/><path class="cls-14" d="M968.77667,527.574a.206.206,0,0,1,.2619-.1476" transform="translate(-943.65441 -520.35984)"/><path class="cls-14" d="M969.03857,527.42636a6.964,6.964,0,0,1,3.07194,1.27251" transform="translate(-943.65441 -520.35984)"/><path class="cls-14" d="M972.11051,528.69887a.2059.2059,0,0,1,.08081.28942" transform="translate(-943.65441 -520.35984)"/><path class="cls-14" d="M972.19132,528.98829a.96352.96352,0,0,0,1.26342,1.26342" transform="translate(-943.65441 -520.35984)"/><path class="cls-14" d="M973.45474,530.25171a.2059.2059,0,0,1,.28942.08081" transform="translate(-943.65441 -520.35984)"/><path class="cls-14" d="M973.74416,530.33252a6.964,6.964,0,0,1,1.27251,3.072" transform="translate(-943.65441 -520.35984)"/><path class="cls-14" d="M973.11586,534.5597a5.23253,5.23253,0,0,0-10.46506,0" transform="translate(-943.65441 -520.35984)"/><path class="cls-14" d="M962.6508,534.5597a5.23253,5.23253,0,0,0,10.46506,0" transform="translate(-943.65441 -520.35984)"/><path class="cls-14" d="M961.5943,534.5597a6.289,6.289,0,0,1,12.57806,0" transform="translate(-943.65441 -520.35984)"/><path class="cls-14" d="M974.17236,534.5597a6.289,6.289,0,0,1-12.57806,0" transform="translate(-943.65441 -520.35984)"/><circle class="cls-10" cx="24.22894" cy="14.19986" r="3.77338"/><rect class="cls-10" x="15.81368" y="23.54699" width="5.56865" height="6.79415"/><rect class="cls-12" x="16.70004" y="24.51042" width="3.79593" height="4.86728"/><rect class="cls-10" x="23.55969" y="23.54699" width="5.56865" height="6.79415"/><rect class="cls-15" x="965.03674" y="543.90683" width="2.17736" height="6.79415" transform="translate(988.59643 574.24796) rotate(180)"/><rect class="cls-12" x="24.44605" y="24.51042" width="3.79593" height="4.86728"/><rect class="cls-1" x="31.47428" y="23.94905" width="0.78897" height="4.85581"/><rect class="cls-1" x="36.66488" y="23.94905" width="0.78897" height="4.85581"/><rect class="cls-10" x="32.26325" y="23.94905" width="4.40163" height="4.82547"/><rect class="cls-1" x="34.78975" y="9.51934" width="0.78897" height="4.85581"/><rect class="cls-1" x="39.98035" y="9.51934" width="0.78897" height="4.85581"/><rect class="cls-10" x="35.57872" y="9.51935" width="4.40163" height="4.82547"/><rect class="cls-1" x="41.40636" y="29.87196" width="0.78897" height="4.85581"/><rect class="cls-1" x="46.59696" y="29.87196" width="0.78897" height="4.85581"/><rect class="cls-10" x="42.19533" y="29.87196" width="4.40163" height="4.82547"/><path class="cls-1" d="M992.67708,532.44742a1.0853,1.0853,0,0,0,.39739-.07495v1.22583a1.0853,1.0853,0,0,0-.39739-.07495,1.02052,1.02052,0,0,0-.4011.07871v-1.23334A1.02069,1.02069,0,0,0,992.67708,532.44742Z" transform="translate(-943.65441 -520.35984)"/><path class="cls-11" d="M992.67708,533.52335a1.0853,1.0853,0,0,1,.39739.07495v.20245H992.276v-.19869A1.02052,1.02052,0,0,1,992.67708,533.52335Z" transform="translate(-943.65441 -520.35984)"/><path class="cls-11" d="M992.276,532.17377h.79849v.1987a1.0853,1.0853,0,0,1-.39739.07495,1.02069,1.02069,0,0,1-.4011-.0787Z" transform="translate(-943.65441 -520.35984)"/><path class="cls-1" d="M995.92326,532.44742a1.08526,1.08526,0,0,0,.39739-.07495v1.22583a1.08526,1.08526,0,0,0-.39739-.07495,1.02055,1.02055,0,0,0-.4011.07871v-1.23334A1.02073,1.02073,0,0,0,995.92326,532.44742Z" transform="translate(-943.65441 -520.35984)"/><path class="cls-11" d="M995.92326,533.52335a1.08526,1.08526,0,0,1,.39739.07495v.20245h-.79849v-.19869A1.02055,1.02055,0,0,1,995.92326,533.52335Z" transform="translate(-943.65441 -520.35984)"/><path class="cls-11" d="M995.52216,532.17377h.79849v.1987a1.08526,1.08526,0,0,1-.39739.07495,1.02073,1.02073,0,0,1-.4011-.0787Z" transform="translate(-943.65441 -520.35984)"/><path class="cls-1" d="M998.54288,536.85942a1.0851,1.0851,0,0,0,.39739-.075v1.22584a1.0851,1.0851,0,0,0-.39739-.075,1.02052,1.02052,0,0,0-.4011.07871v-1.23334A1.02052,1.02052,0,0,0,998.54288,536.85942Z" transform="translate(-943.65441 -520.35984)"/><path class="cls-11" d="M998.54288,537.93534a1.0851,1.0851,0,0,1,.39739.075v.20245h-.79849v-.1987A1.02052,1.02052,0,0,1,998.54288,537.93534Z" transform="translate(-943.65441 -520.35984)"/><path class="cls-11" d="M998.14178,536.58576h.79849v.1987a1.0851,1.0851,0,0,1-.39739.075,1.02052,1.02052,0,0,1-.4011-.07871Z" transform="translate(-943.65441 -520.35984)"/><path class="cls-1" d="M998.54288,539.98453a1.0853,1.0853,0,0,0,.39739-.07495v1.22583a1.0853,1.0853,0,0,0-.39739-.07495,1.02052,1.02052,0,0,0-.4011.07871v-1.23335A1.02052,1.02052,0,0,0,998.54288,539.98453Z" transform="translate(-943.65441 -520.35984)"/><path class="cls-11" d="M998.54288,541.06046a1.0853,1.0853,0,0,1,.39739.07495v.20245h-.79849v-.19869A1.02052,1.02052,0,0,1,998.54288,541.06046Z" transform="translate(-943.65441 -520.35984)"/><path class="cls-11" d="M998.14178,539.71088h.79849v.1987a1.0853,1.0853,0,0,1-.39739.07495,1.02052,1.02052,0,0,1-.4011-.07871Z" transform="translate(-943.65441 -520.35984)"/><rect class="cls-10" x="39.19867" y="15.23438" width="13.54457" height="13.54457"/><path class="cls-1" d="M985.24936,535.59422h-.76626a.38314.38314,0,0,1,.76626,0Z" transform="translate(-943.65441 -520.35984)"/><path class="cls-1" d="M986.30556,535.59422h-.76626a.38314.38314,0,0,1,.76626,0Z" transform="translate(-943.65441 -520.35984)"/><path class="cls-1" d="M987.36176,535.59422h-.76627a.38314.38314,0,0,1,.76627,0Z" transform="translate(-943.65441 -520.35984)"/><path class="cls-1" d="M988.418,535.59422h-.76626a.38314.38314,0,0,1,.76626,0Z" transform="translate(-943.65441 -520.35984)"/><path class="cls-1" d="M989.47415,535.59422h-.76626a.38314.38314,0,0,1,.76626,0Z" transform="translate(-943.65441 -520.35984)"/><path class="cls-1" d="M990.54284,535.59422h-.76626a.38314.38314,0,0,1,.76626,0Z" transform="translate(-943.65441 -520.35984)"/><path class="cls-1" d="M991.599,535.59422h-.76626a.38314.38314,0,0,1,.76626,0Z" transform="translate(-943.65441 -520.35984)"/><path class="cls-1" d="M992.65524,535.59422H991.889a.38314.38314,0,0,1,.76627,0Z" transform="translate(-943.65441 -520.35984)"/><path class="cls-1" d="M993.71143,535.59422h-.76626a.38314.38314,0,0,1,.76626,0Z" transform="translate(-943.65441 -520.35984)"/><path class="cls-1" d="M994.76763,535.59422h-.76626a.38314.38314,0,0,1,.76626,0Z" transform="translate(-943.65441 -520.35984)"/><path class="cls-1" d="M994.00137,549.1647h.76626a.38314.38314,0,0,1-.76626,0Z" transform="translate(-943.65441 -520.35984)"/><path class="cls-1" d="M992.94517,549.1647h.76626a.38314.38314,0,0,1-.76626,0Z" transform="translate(-943.65441 -520.35984)"/><path class="cls-1" d="M991.889,549.1647h.76627a.38314.38314,0,0,1-.76627,0Z" transform="translate(-943.65441 -520.35984)"/><path class="cls-1" d="M990.83278,549.1647h.76626a.38314.38314,0,0,1-.76626,0Z" transform="translate(-943.65441 -520.35984)"/><path class="cls-1" d="M989.77658,549.1647h.76626a.38314.38314,0,0,1-.76626,0Z" transform="translate(-943.65441 -520.35984)"/><path class="cls-1" d="M988.70789,549.1647h.76626a.38314.38314,0,0,1-.76626,0Z" transform="translate(-943.65441 -520.35984)"/><path class="cls-1" d="M987.65169,549.1647h.76626a.38314.38314,0,0,1-.76626,0Z" transform="translate(-943.65441 -520.35984)"/><path class="cls-1" d="M986.59549,549.1647h.76627a.38314.38314,0,0,1-.76627,0Z" transform="translate(-943.65441 -520.35984)"/><path class="cls-1" d="M985.5393,549.1647h.76626a.38314.38314,0,0,1-.76626,0Z" transform="translate(-943.65441 -520.35984)"/><path class="cls-1" d="M984.4831,549.1647h.76626a.38314.38314,0,0,1-.76626,0Z" transform="translate(-943.65441 -520.35984)"/><path class="cls-1" d="M996.41061,538.00346v-.76627a.38314.38314,0,0,1,0,.76627Z" transform="translate(-943.65441 -520.35984)"/><path class="cls-1" d="M996.41061,539.05965v-.76626a.38314.38314,0,0,1,0,.76626Z" transform="translate(-943.65441 -520.35984)"/><path class="cls-1" d="M996.41061,540.11585v-.76626a.38314.38314,0,0,1,0,.76626Z" transform="translate(-943.65441 -520.35984)"/><path class="cls-1" d="M996.41061,541.17205v-.76627a.38314.38314,0,0,1,0,.76627Z" transform="translate(-943.65441 -520.35984)"/><path class="cls-1" d="M996.41061,542.22824V541.462a.38314.38314,0,0,1,0,.76626Z" transform="translate(-943.65441 -520.35984)"/><path class="cls-1" d="M996.41061,543.29694v-.76627a.38314.38314,0,0,1,0,.76627Z" transform="translate(-943.65441 -520.35984)"/><path class="cls-1" d="M996.41061,544.35313v-.76626a.38314.38314,0,0,1,0,.76626Z" transform="translate(-943.65441 -520.35984)"/><path class="cls-1" d="M996.41061,545.40933v-.76626a.38314.38314,0,0,1,0,.76626Z" transform="translate(-943.65441 -520.35984)"/><path class="cls-1" d="M996.41061,546.46553v-.76626a.38314.38314,0,0,1,0,.76626Z" transform="translate(-943.65441 -520.35984)"/><path class="cls-1" d="M996.41061,547.52172v-.76626a.38314.38314,0,0,1,0,.76626Z" transform="translate(-943.65441 -520.35984)"/><path class="cls-1" d="M982.84012,546.75546v.76626a.38314.38314,0,0,1,0-.76626Z" transform="translate(-943.65441 -520.35984)"/><path class="cls-1" d="M982.84012,545.69927v.76626a.38314.38314,0,0,1,0-.76626Z" transform="translate(-943.65441 -520.35984)"/><path class="cls-1" d="M982.84012,544.64307v.76626a.38314.38314,0,0,1,0-.76626Z" transform="translate(-943.65441 -520.35984)"/><path class="cls-1" d="M982.84012,543.58687v.76626a.38314.38314,0,0,1,0-.76626Z" transform="translate(-943.65441 -520.35984)"/><path class="cls-1" d="M982.84012,542.53067v.76627a.38314.38314,0,0,1,0-.76627Z" transform="translate(-943.65441 -520.35984)"/><path class="cls-1" d="M982.84012,541.462v.76626a.38314.38314,0,0,1,0-.76626Z" transform="translate(-943.65441 -520.35984)"/><path class="cls-1" d="M982.84012,540.40578v.76627a.38314.38314,0,0,1,0-.76627Z" transform="translate(-943.65441 -520.35984)"/><path class="cls-1" d="M982.84012,539.34959v.76626a.38314.38314,0,0,1,0-.76626Z" transform="translate(-943.65441 -520.35984)"/><path class="cls-1" d="M982.84012,538.29339v.76626a.38314.38314,0,0,1,0-.76626Z" transform="translate(-943.65441 -520.35984)"/><path class="cls-1" d="M982.84012,537.23719v.76627a.38314.38314,0,0,1,0-.76627Z" transform="translate(-943.65441 -520.35984)"/><circle class="cls-1" cx="51.36011" cy="16.61751" r="0.38313"/><path class="cls-10" d="M952.38113,570.97187H963.285l1.03311,1.03311v10.90389L963.285,583.942H952.38113l-1.03311-1.03311V572.005Z" transform="translate(-943.65441 -520.35984)"/><path class="cls-1" d="M953.44365,570.97187h-.73376a.36689.36689,0,0,1,.73376,0Z" transform="translate(-943.65441 -520.35984)"/><path class="cls-1" d="M954.80794,570.97187h-.73376a.36689.36689,0,0,1,.73376,0Z" transform="translate(-943.65441 -520.35984)"/><path class="cls-1" d="M956.17223,570.97187h-.73377a.36689.36689,0,0,1,.73377,0Z" transform="translate(-943.65441 -520.35984)"/><path class="cls-1" d="M957.53651,570.97187h-.73376a.36689.36689,0,0,1,.73376,0Z" transform="translate(-943.65441 -520.35984)"/><path class="cls-1" d="M958.9008,570.97187H958.167a.36689.36689,0,0,1,.73376,0Z" transform="translate(-943.65441 -520.35984)"/><path class="cls-1" d="M960.26509,570.97187h-.73377a.36689.36689,0,0,1,.73377,0Z" transform="translate(-943.65441 -520.35984)"/><path class="cls-1" d="M961.62937,570.97187h-.73376a.36689.36689,0,0,1,.73376,0Z" transform="translate(-943.65441 -520.35984)"/><path class="cls-1" d="M962.99366,570.97187h-.73376a.36689.36689,0,0,1,.73376,0Z" transform="translate(-943.65441 -520.35984)"/><path class="cls-1" d="M962.2599,583.942h.73376a.36689.36689,0,0,1-.73376,0Z" transform="translate(-943.65441 -520.35984)"/><path class="cls-1" d="M960.89561,583.942h.73376a.36689.36689,0,0,1-.73376,0Z" transform="translate(-943.65441 -520.35984)"/><path class="cls-1" d="M959.53132,583.942h.73377a.36689.36689,0,0,1-.73377,0Z" transform="translate(-943.65441 -520.35984)"/><path class="cls-1" d="M958.167,583.942h.73376a.36689.36689,0,0,1-.73376,0Z" transform="translate(-943.65441 -520.35984)"/><path class="cls-1" d="M956.80275,583.942h.73376a.36689.36689,0,0,1-.73376,0Z" transform="translate(-943.65441 -520.35984)"/><path class="cls-1" d="M955.43846,583.942h.73377a.36689.36689,0,0,1-.73377,0Z" transform="translate(-943.65441 -520.35984)"/><path class="cls-1" d="M954.07418,583.942h.73376a.36689.36689,0,0,1-.73376,0Z" transform="translate(-943.65441 -520.35984)"/><path class="cls-1" d="M952.70989,583.942h.73376a.36689.36689,0,0,1-.73376,0Z" transform="translate(-943.65441 -520.35984)"/><path class="cls-1" d="M964.33683,573.0488V572.315a.36689.36689,0,0,1,0,.73376Z" transform="translate(-943.65441 -520.35984)"/><path class="cls-1" d="M964.33683,574.41309v-.73376a.36689.36689,0,0,1,0,.73376Z" transform="translate(-943.65441 -520.35984)"/><path class="cls-1" d="M964.33683,575.77738v-.73377a.36689.36689,0,0,1,0,.73377Z" transform="translate(-943.65441 -520.35984)"/><path class="cls-1" d="M964.33683,577.14166v-.73376a.36689.36689,0,0,1,0,.73376Z" transform="translate(-943.65441 -520.35984)"/><path class="cls-1" d="M964.33683,578.506v-.73376a.36689.36689,0,0,1,0,.73376Z" transform="translate(-943.65441 -520.35984)"/><path class="cls-1" d="M964.33683,579.87024v-.73377a.36689.36689,0,0,1,0,.73377Z" transform="translate(-943.65441 -520.35984)"/><path class="cls-1" d="M964.33683,581.23452v-.73376a.36689.36689,0,0,1,0,.73376Z" transform="translate(-943.65441 -520.35984)"/><path class="cls-1" d="M964.33683,582.59881v-.73376a.36689.36689,0,0,1,0,.73376Z" transform="translate(-943.65441 -520.35984)"/><path class="cls-1" d="M951.36672,581.86505v.73376a.36689.36689,0,0,1,0-.73376Z" transform="translate(-943.65441 -520.35984)"/><path class="cls-1" d="M951.36672,580.50076v.73376a.36689.36689,0,0,1,0-.73376Z" transform="translate(-943.65441 -520.35984)"/><path class="cls-1" d="M951.36672,579.13647v.73377a.36689.36689,0,0,1,0-.73377Z" transform="translate(-943.65441 -520.35984)"/><path class="cls-1" d="M951.36672,577.77219v.73376a.36689.36689,0,0,1,0-.73376Z" transform="translate(-943.65441 -520.35984)"/><path class="cls-1" d="M951.36672,576.4079v.73376a.36689.36689,0,0,1,0-.73376Z" transform="translate(-943.65441 -520.35984)"/><path class="cls-1" d="M951.36672,575.04361v.73377a.36689.36689,0,0,1,0-.73377Z" transform="translate(-943.65441 -520.35984)"/><path class="cls-1" d="M951.36672,573.67933v.73376a.36689.36689,0,0,1,0-.73376Z" transform="translate(-943.65441 -520.35984)"/><path class="cls-1" d="M951.36672,572.315v.73376a.36689.36689,0,0,1,0-.73376Z" transform="translate(-943.65441 -520.35984)"/><circle class="cls-1" cx="19.33925" cy="51.9365" r="0.36688"/><rect class="cls-16" x="53.87525" y="32.1427" width="1.52547" height="2.38356"/><circle class="cls-4" cx="54.63798" cy="33.33449" r="0.91623"/><polygon class="cls-1" points="18.886 39.58 18.632 39.58 18.632 38.624 17.389 38.624 17.389 38.325 18.886 38.325 18.886 39.58"/><polygon class="cls-1" points="14.321 39.58 14.067 39.58 14.067 38.325 15.56 38.325 15.56 38.624 14.321 38.624 14.321 39.58"/><polygon class="cls-1" points="18.886 41.727 17.389 41.727 17.389 41.425 18.632 41.425 18.632 40.468 18.886 40.468 18.886 41.727"/><polygon class="cls-1" points="15.56 41.727 14.067 41.727 14.067 40.468 14.321 40.468 14.321 41.425 15.56 41.425 15.56 41.727"/><rect class="cls-10" x="958.73032" y="558.22774" width="2.79942" height="4.31416" transform="translate(576.86045 -920.10505) rotate(90)"/><circle class="cls-1" cx="14.81327" cy="40.90998" r="0.19157"/><polygon class="cls-1" points="23.452 59.659 23.452 59.913 22.495 59.913 22.495 61.156 22.196 61.156 22.196 59.659 23.452 59.659"/><polygon class="cls-1" points="23.452 64.224 23.452 64.478 22.196 64.478 22.196 62.985 22.495 62.985 22.495 64.224 23.452 64.224"/><polygon class="cls-1" points="25.599 59.659 25.599 61.156 25.296 61.156 25.296 59.913 24.339 59.913 24.339 59.659 25.599 59.659"/><polygon class="cls-1" points="25.599 62.985 25.599 64.478 24.339 64.478 24.339 64.224 25.296 64.224 25.296 62.985 25.599 62.985"/><rect class="cls-10" x="22.49665" y="59.91214" width="2.79942" height="4.31416"/><circle class="cls-1" cx="24.78136" cy="63.73157" r="0.19157"/><rect class="cls-10" x="20.49597" y="30.93592" width="18.88875" height="18.88875"/><circle class="cls-1" cx="21.8791" cy="32.31905" r="0.38313"/><rect class="cls-1" x="41.13456" y="35.7234" width="13.98936" height="18.96776"/><circle class="cls-10" cx="53.74079" cy="53.30802" r="0.38313"/><rect class="cls-1" x="981.88461" y="576.91003" width="0.9868" height="2.11683" transform="translate(-539.24445 1039.98683) rotate(-90.00002)"/><rect class="cls-1" x="981.88461" y="573.62813" width="0.9868" height="2.11683" transform="translate(-535.96256 1036.70494) rotate(-90.00002)"/><rect class="cls-10" x="981.22385" y="575.2757" width="2.2951" height="2.1036" transform="translate(-537.60937 1038.33971) rotate(-90.00007)"/><rect class="cls-10" x="27.02666" y="53.9668" width="8.19539" height="8.88992"/><circle class="cls-1" cx="33.85516" cy="61.48983" r="0.36688"/><rect class="cls-17" x="9.23368" y="34.2983" width="0.42272" height="1.31196"/><polygon class="cls-17" points="9.234 38.786 9.234 39.229 9.656 39.229 9.656 38.786 10.101 38.786 10.101 38.362 9.656 38.362 9.656 37.918 9.234 37.918 9.234 38.362 8.789 38.362 8.789 38.786 9.234 38.786"/><g id="traccia-loop"><path class="cls-17" d="M951.29169,558.97212a1.95967,1.95967,0,0,1,.02071-.28987,2.36155,2.36155,0,0,1,1.02418-1.5544,2.38857,2.38857,0,0,1-1.02492-1.55439,2.00432,2.00432,0,0,1-.02-.28766,1.80875,1.80875,0,1,1,3.61534.00074,1.92271,1.92271,0,0,1-.02071.28766,2.34666,2.34666,0,0,1-.97612,1.52112c-.01626.01183-.03179.02366-.04806.03475a2.38219,2.38219,0,0,1,1.02492,1.55366,2.02694,2.02694,0,0,1,.02.28766,1.80875,1.80875,0,1,1-3.61534.00073Zm1.80878-1.40427-.19818.11018a1.04822,1.04822,0,0,0-.10723.06729,1.65682,1.65682,0,0,0-.72173,1.04785,1.10679,1.10679,0,0,0,1.0264,1.28079,1.07323,1.07323,0,0,0,1.03824-1.10257,1.25858,1.25858,0,0,0-.01184-.17674,1.69971,1.69971,0,0,0-.7905-1.09739Zm1.0375-2.28131a1.04044,1.04044,0,1,0-2.07721-.00074,1.25109,1.25109,0,0,0,.01183.17674,1.70592,1.70592,0,0,0,.792,1.09887l.23442.12867.16417-.091a1.54284,1.54284,0,0,0,.18339-.11758,1.63132,1.63132,0,0,0,.67884-1.01753A1.18577,1.18577,0,0,0,954.138,555.28654Z" transform="translate(-943.65441 -520.35984)"/></g><path class="cls-17" d="M954.23374,563.83031v-1.6978a.29047.29047,0,0,0-.29043-.29053h-1.69753a.29051.29051,0,0,0-.29048.29053v1.6978a.2905.2905,0,0,0,.29048.29048h1.69753A.29046.29046,0,0,0,954.23374,563.83031Zm-1.6876-.672,0-.35384h.371v-.37232h.35482v.37232h.3715l0,.35384h-.3715l0,.37236h-.35482l0-.37236Z" transform="translate(-943.65441 -520.35984)"/><path class="cls-4" d="M951.33016,566.60821h1.19928L951.655,568.128A1.80988,1.80988,0,0,1,951.33016,566.60821Z" transform="translate(-943.65441 -520.35984)"/><path class="cls-4" d="M954.51356,565.94849a1.58433,1.58433,0,0,1,.30285,1.50061h-1.16373Z" transform="translate(-943.65441 -520.35984)"/><path class="cls-4" d="M952.86405,565.25065a1.68476,1.68476,0,0,1,1.46637.49305l-.59222,1.02047Z" transform="translate(-943.65441 -520.35984)"/><path class="cls-4" d="M953.32534,568.81746a1.811,1.811,0,0,1-1.483-.48968l.59684-1.03213Z" transform="translate(-943.65441 -520.35984)"/><path class="cls-4" d="M953.00277,567.73477h1.75053a1.82014,1.82014,0,0,1-1.05373.99232.15917.15917,0,0,1-.145-.04761C953.37063,568.37754,953.19645,568.06963,953.00277,567.73477Z" transform="translate(-943.65441 -520.35984)"/><path class="cls-4" d="M951.4253,566.3207a1.82589,1.82589,0,0,1,1.159-1.02411l.5904,1.02411Z" transform="translate(-943.65441 -520.35984)"/><rect class="cls-10" x="17.43893" width="13.59003" height="5.31469"/><rect class="cls-18" x="17.43391" y="3.06805" width="13.59003" height="1.53403"/><rect class="cls-19" x="17.43391" width="13.59003" height="1.53403"/><rect class="cls-20" x="17.43391" y="1.53403" width="13.59003" height="1.53403"/></svg>