<svg xmlns="http://www.w3.org/2000/svg" id="Layer_1" data-name="Layer 1" viewBox="0 0 62.362 70.008"><defs><style>.cls-1{fill:#8b8f90}.cls-2{fill:#404642}.cls-3{fill:#b8ada2}.cls-4{fill:#fff}.cls-5{fill:#c2c5c6}.cls-14,.cls-6{fill:none}.cls-6{stroke:#d3ccc5;stroke-miterlimit:10;stroke-width:.28346px}.cls-9{fill:#c1c3c4}.cls-10{fill:#2b322d}.cls-11{fill:#d7d9da}.cls-12{fill:#8a7867}.cls-14{stroke:#2b322d;stroke-linecap:round;stroke-linejoin:round;stroke-width:.5px}.cls-17{fill:#968474}</style></defs><path d="M22.502 56.049h-.6v-1.871h.6zM21.263 56.049h-.599v-1.871h.599zM20.025 56.049h-.599v-1.871h.6zM18.788 56.049h-.6v-1.871h.6zM17.55 56.049h-.599v-1.871h.6zM16.312 56.049h-.599v-1.871h.6z" class="cls-1"/><path d="M29.321 70.008V55.116h-6.1v1.275h.029a.455.455 0 0 0 .453.425h2.04v.264a.98.98 0 0 1-.983.973h-2.427a.97.97 0 0 1-.972-.973v-1.964h-4.476v1.964a.98.98 0 0 1-.982.973h-2.427a.97.97 0 0 1-.973-.973v-.264h2.04a.453.453 0 0 0 .444-.425v-1.275H8.896v14.892Zm-13.74-6.242a.613.613 0 0 1-.613.614h-2.002a.614.614 0 0 1 0-1.228h2.002a.613.613 0 0 1 .614.614M20.7 57.43a.61.61 0 0 1-.604.614h-1.974a.614.614 0 0 1 0-1.228h1.974a.61.61 0 0 1 .604.614m5.165 6.336a.613.613 0 0 1-.614.614H23.25a.614.614 0 1 1 0-1.228h2.001a.613.613 0 0 1 .614.614" class="cls-1"/><path d="M62.362 66.772H0V10.21a5.8 5.8 0 0 1 5.8-5.8h56.562z" class="cls-2"/><path d="M42.907 4.41v3.445a2.105 2.105 0 0 0 4.211 0V4.41Z" class="cls-3"/><circle cx="45.015" cy="7.869" r="1.373" class="cls-4"/><path d="M43.645 4.41a1.372 1.372 0 1 0 2.745 0Z" class="cls-4"/><path d="M49.835 4.41v3.445a2.105 2.105 0 0 0 4.21 0V4.41Z" class="cls-3"/><circle cx="51.942" cy="7.869" r="1.373" class="cls-4"/><path d="M50.572 4.41a1.372 1.372 0 1 0 2.745 0Z" class="cls-4"/><path d="M0 16.887h3.445a2.105 2.105 0 0 0 0-4.21H0Z" class="cls-3"/><circle cx="3.459" cy="14.78" r="1.373" class="cls-4"/><path d="M0 16.15a1.372 1.372 0 1 0 0-2.746Z" class="cls-4"/><path d="M0 23.819h3.445a2.105 2.105 0 0 0 0-4.21H0Z" class="cls-3"/><circle cx="3.459" cy="21.712" r="1.373" class="cls-4"/><path d="M0 23.081a1.372 1.372 0 1 0 0-2.745Z" class="cls-4"/><path d="M0 30.75h3.445a2.105 2.105 0 0 0 0-4.21H0Z" class="cls-3"/><circle cx="3.459" cy="28.643" r="1.373" class="cls-4"/><path d="M0 30.013a1.372 1.372 0 1 0 0-2.745Z" class="cls-4"/><path d="M0 37.683h3.445a2.105 2.105 0 0 0 0-4.211H0Z" class="cls-3"/><circle cx="3.459" cy="35.575" r="1.373" class="cls-4"/><path d="M0 36.945A1.372 1.372 0 1 0 0 34.2Z" class="cls-4"/><path d="M0 44.615h3.445a2.105 2.105 0 0 0 0-4.211H0Z" class="cls-3"/><circle cx="3.459" cy="42.507" r="1.373" class="cls-4"/><path d="M0 43.877a1.372 1.372 0 1 0 0-2.745Z" class="cls-4"/><path d="M0 51.547h3.445a2.105 2.105 0 0 0 0-4.211H0Z" class="cls-3"/><circle cx="3.459" cy="49.439" r="1.373" class="cls-4"/><path d="M0 50.809a1.372 1.372 0 1 0 0-2.745Z" class="cls-4"/><path d="M0 58.479h3.445a2.105 2.105 0 0 0 0-4.211H0Z" class="cls-3"/><circle cx="3.459" cy="56.371" r="1.373" class="cls-4"/><path d="M0 57.74a1.372 1.372 0 1 0 0-2.744Z" class="cls-4"/><path d="M0 65.41h3.445a2.105 2.105 0 0 0 0-4.21H0Z" class="cls-3"/><circle cx="3.459" cy="63.303" r="1.373" class="cls-4"/><path d="M0 64.673a1.372 1.372 0 1 0 0-2.745Z" class="cls-4"/><path d="M62.362 5.79h-3.445a2.105 2.105 0 0 0 0 4.21h3.445Z" class="cls-3"/><circle cx="58.903" cy="7.897" r="1.373" class="cls-4"/><path d="M62.362 6.528a1.372 1.372 0 1 0 0 2.744Z" class="cls-4"/><path d="M62.362 12.705h-3.445a2.105 2.105 0 0 0 0 4.21h3.445Z" class="cls-3"/><circle cx="58.903" cy="14.812" r="1.373" class="cls-4"/><path d="M62.362 13.443a1.372 1.372 0 1 0 0 2.745Z" class="cls-4"/><path d="M62.362 19.62h-3.445a2.105 2.105 0 0 0 0 4.211h3.445Z" class="cls-3"/><circle cx="58.903" cy="21.728" r="1.373" class="cls-4"/><path d="M62.362 20.358a1.372 1.372 0 1 0 0 2.745Z" class="cls-4"/><path d="M62.362 26.536h-3.445a2.105 2.105 0 0 0 0 4.21h3.445Z" class="cls-3"/><circle cx="58.903" cy="28.643" r="1.373" class="cls-4"/><path d="M62.362 27.274a1.372 1.372 0 1 0 0 2.744Z" class="cls-4"/><path d="M62.362 33.451h-3.445a2.105 2.105 0 0 0 0 4.21h3.445Z" class="cls-3"/><circle cx="58.903" cy="35.558" r="1.373" class="cls-4"/><path d="M62.362 34.189a1.372 1.372 0 1 0 0 2.745Z" class="cls-4"/><path d="M62.362 40.367h-3.445a2.105 2.105 0 0 0 0 4.21h3.445Z" class="cls-3"/><circle cx="58.903" cy="42.474" r="1.373" class="cls-4"/><path d="M62.362 41.104a1.372 1.372 0 1 0 0 2.745Z" class="cls-4"/><path d="M62.362 47.282h-3.445a2.105 2.105 0 0 0 0 4.21h3.445Z" class="cls-3"/><circle cx="58.903" cy="49.389" r="1.373" class="cls-4"/><path d="M62.362 48.02a1.372 1.372 0 1 0 0 2.744Z" class="cls-4"/><path d="M62.362 54.197h-3.445a2.105 2.105 0 0 0 0 4.21h3.445Z" class="cls-3"/><circle cx="58.903" cy="56.304" r="1.373" class="cls-4"/><path d="M62.362 54.935a1.372 1.372 0 1 0 0 2.745Z" class="cls-4"/><path d="M62.362 61.113h-3.445a2.105 2.105 0 0 0 0 4.21h3.445Z" class="cls-3"/><circle cx="58.903" cy="63.22" r="1.373" class="cls-4"/><path d="M62.362 61.85a1.372 1.372 0 1 0 0 2.745Z" class="cls-4"/><rect width="9.743" height="4.601" x="984.308" y="578.871" class="cls-1" rx="1.015" transform="rotate(90 777.532 -150.835)"/><g id="Disegno_15" data-name="Disegno 15"><path d="M42.001 57.115h7.046v7.394h-7.046z" class="cls-5"/><path d="M42.476 60.812a3.049 3.049 0 1 1 3.048 3.05 3.05 3.05 0 0 1-3.048-3.05m5.836 0a2.787 2.787 0 1 0-2.788 2.788 2.79 2.79 0 0 0 2.788-2.788" class="cls-1"/><path d="M44.789 60.812a.736.736 0 1 1 .735.736.736.736 0 0 1-.735-.736" class="cls-1"/></g><path d="M5.117 7.173H3.262l-.51.51v1.78l.51.51h1.855l.51-.51v-1.78Z" class="cls-1"/><path d="M3.478 8.325h-.436v-.861" class="cls-6"/><path d="M3.157 7.173a.39.39 0 0 1-.405.399M3.478 8.82h-.436v.861" class="cls-6"/><path d="M3.157 9.973a.39.39 0 0 0-.405-.4M4.9 8.325h.437v-.861" class="cls-6"/><path d="M5.222 7.173a.39.39 0 0 0 .405.399M4.9 8.82h.437v.861" class="cls-6"/><path d="M5.222 9.973a.39.39 0 0 1 .405-.4" class="cls-6"/><path d="M3.478 7.173H4.9v2.8H3.478z" style="fill:#b8b9ba"/><path d="M6.796 9.577h7.083v8.199H6.796z" class="cls-5"/><circle cx="10.337" cy="13.677" r="2.311" style="fill:#a1a4a5"/><path d="M7.151 17.776h1.751v1.017H7.151zM11.773 17.776h1.751v1.017h-1.751zM7.151 8.561h1.751v1.017H7.151zM11.773 8.561h1.751v1.017h-1.751z" class="cls-1"/><g id="Artwork_3" data-name="Artwork 3"><path d="M9.393 4.988h1.071a.02.02 0 0 1 .017.017v1.07a.017.017 0 0 1-.017.018H9.393a.02.02 0 0 1-.017-.017V5.004a.02.02 0 0 1 .017-.016M8.18 4.988h1.072a.02.02 0 0 1 .016.017v1.07a.02.02 0 0 1-.016.018H8.18a.02.02 0 0 1-.017-.017V5.004a.02.02 0 0 1 .017-.016" class="cls-1"/><path d="M8.871 6.002h.938V6a.46.46 0 0 0 0-.918v-.003h-.937a.462.462 0 1 0 0 .924" class="cls-9"/><path d="M8.976 5.078h.684v.925h-.684z" class="cls-10"/></g><g id="Artwork_3-2" data-name="Artwork 3"><path d="M9.393 6.62h1.071a.02.02 0 0 1 .017.017v1.071a.02.02 0 0 1-.017.017H9.393a.02.02 0 0 1-.017-.017V6.637a.02.02 0 0 1 .017-.017M8.18 6.62h1.072a.02.02 0 0 1 .016.017v1.071a.02.02 0 0 1-.016.017H8.18a.02.02 0 0 1-.017-.017V6.637a.02.02 0 0 1 .017-.017" class="cls-1"/><path d="M8.871 7.635h.938v-.004a.46.46 0 0 0 0-.917V6.71h-.937a.462.462 0 1 0 0 .925" class="cls-9"/><path d="M8.976 6.71h.684v.925h-.684z" class="cls-10"/></g><g id="Artwork_3-3" data-name="Artwork 3"><path d="M12.393 6.62h1.071a.02.02 0 0 1 .017.017v1.071a.02.02 0 0 1-.017.017h-1.071a.02.02 0 0 1-.017-.017V6.637a.02.02 0 0 1 .017-.017M11.18 6.62h1.072a.02.02 0 0 1 .016.017v1.071a.02.02 0 0 1-.016.017H11.18a.02.02 0 0 1-.017-.017V6.637a.02.02 0 0 1 .017-.017" class="cls-1"/><path d="M11.871 7.635h.938v-.004a.46.46 0 0 0 0-.917V6.71h-.937a.462.462 0 1 0 0 .925" class="cls-9"/><path d="M11.976 6.71h.684v.925h-.684z" class="cls-10"/></g><g id="Artwork_3-4" data-name="Artwork 3"><path d="M18.398 33.148h1.071a.02.02 0 0 1 .017.017v1.071a.02.02 0 0 1-.017.017h-1.071a.02.02 0 0 1-.017-.017v-1.071a.02.02 0 0 1 .017-.017M17.185 33.148h1.072a.02.02 0 0 1 .017.017v1.071a.02.02 0 0 1-.017.017h-1.072a.02.02 0 0 1-.016-.017v-1.071a.02.02 0 0 1 .016-.017" class="cls-1"/><path d="M17.876 34.163h.938v-.004a.46.46 0 0 0 0-.917v-.004h-.937a.462.462 0 1 0 0 .925" class="cls-9"/><path d="M17.981 33.238h.684v.925h-.684z" class="cls-10"/></g><g id="Artwork_3-5" data-name="Artwork 3"><path d="M14.365 36.688h1.071a.02.02 0 0 1 .017.017v1.071a.02.02 0 0 1-.017.017h-1.071a.02.02 0 0 1-.017-.017v-1.071a.02.02 0 0 1 .017-.017M13.152 36.688h1.072a.02.02 0 0 1 .016.017v1.071a.02.02 0 0 1-.016.017h-1.072a.02.02 0 0 1-.017-.017v-1.071a.02.02 0 0 1 .017-.017" class="cls-1"/><path d="M13.843 37.703h.938V37.7a.46.46 0 0 0 0-.918v-.004h-.937a.462.462 0 1 0 0 .925" class="cls-9"/><path d="M13.948 36.778h.684v.925h-.684z" class="cls-10"/></g><g id="Artwork_3-6" data-name="Artwork 3"><path d="M17.365 42.26h1.071a.02.02 0 0 1 .017.016v1.071a.02.02 0 0 1-.017.017h-1.072a.02.02 0 0 1-.016-.017v-1.071a.02.02 0 0 1 .016-.017M16.152 42.26h1.072a.02.02 0 0 1 .016.016v1.071a.02.02 0 0 1-.016.017h-1.072a.02.02 0 0 1-.017-.017v-1.071a.02.02 0 0 1 .017-.017" class="cls-1"/><path d="M16.843 43.273h.488l.45.001v-.004a.46.46 0 0 0 0-.917v-.004h-.937a.462.462 0 1 0-.001.924" class="cls-9"/><path d="M16.948 42.349h.684v.925h-.684z" class="cls-10"/></g><g id="Artwork_3-7" data-name="Artwork 3"><path d="M14.466 45.57h1.072a.02.02 0 0 1 .016.017v1.071a.02.02 0 0 1-.016.017h-1.072a.02.02 0 0 1-.016-.017v-1.071a.02.02 0 0 1 .016-.017M14.466 44.357h1.072a.02.02 0 0 1 .016.017v1.072a.02.02 0 0 1-.016.016h-1.072a.02.02 0 0 1-.016-.016v-1.072a.02.02 0 0 1 .016-.017" class="cls-1"/><path d="M14.54 45.065v.938h.003a.46.46 0 0 0 .918 0h.003v-.937a.462.462 0 1 0-.924 0" class="cls-9"/><path d="M14.54 45.17h.925v.684h-.925z" class="cls-10"/></g><g id="Artwork_3-8" data-name="Artwork 3"><path d="M17.365 47.668h1.071a.02.02 0 0 1 .017.017v1.071a.02.02 0 0 1-.017.017h-1.072a.02.02 0 0 1-.016-.017v-1.071a.02.02 0 0 1 .016-.017M16.152 47.668h1.072a.02.02 0 0 1 .016.017v1.071a.02.02 0 0 1-.016.017h-1.072a.02.02 0 0 1-.017-.017v-1.071a.02.02 0 0 1 .017-.017" class="cls-1"/><path d="M16.843 48.683h.938v-.004a.46.46 0 0 0 0-.917v-.004h-.937a.462.462 0 1 0-.001.925" class="cls-9"/><path d="M16.948 47.758h.684v.925h-.684z" class="cls-10"/></g><g id="Artwork_3-9" data-name="Artwork 3"><path d="M41.993 12.681h1.071a.02.02 0 0 1 .017.017v1.071a.02.02 0 0 1-.017.017h-1.071a.02.02 0 0 1-.017-.017v-1.071a.02.02 0 0 1 .017-.017M41.993 11.469h1.071a.02.02 0 0 1 .017.016v1.072a.02.02 0 0 1-.017.017h-1.071a.02.02 0 0 1-.017-.017v-1.072a.02.02 0 0 1 .017-.016" class="cls-1"/><path d="M42.066 12.176v.938h.004a.46.46 0 0 0 .917 0h.004v-.937a.462.462 0 1 0-.925 0" class="cls-9"/><path d="M42.066 12.281h.925v.684h-.925z" class="cls-10"/></g><g id="Artwork_3-10" data-name="Artwork 3"><path d="M43.616 12.681h1.071a.02.02 0 0 1 .017.017v1.071a.02.02 0 0 1-.017.017h-1.071a.02.02 0 0 1-.017-.017v-1.071a.02.02 0 0 1 .017-.017M43.616 11.469h1.071a.02.02 0 0 1 .017.016v1.072a.02.02 0 0 1-.017.017h-1.071a.02.02 0 0 1-.017-.017v-1.072a.02.02 0 0 1 .017-.016" class="cls-1"/><path d="M43.69 12.176v.938h.003a.46.46 0 0 0 .918 0h.003v-.937a.462.462 0 1 0-.924 0" class="cls-9"/><path d="M43.689 12.281h.925v.684h-.925z" class="cls-10"/></g><g id="Artwork_3-11" data-name="Artwork 3"><path d="M45.239 12.681h1.071a.02.02 0 0 1 .017.017v1.071a.02.02 0 0 1-.017.017H45.24a.02.02 0 0 1-.017-.017v-1.071a.02.02 0 0 1 .017-.017M45.239 11.469h1.071a.02.02 0 0 1 .017.016v1.072a.02.02 0 0 1-.017.017H45.24a.02.02 0 0 1-.017-.017v-1.072a.02.02 0 0 1 .017-.016" class="cls-1"/><path d="M45.313 12.176v.938h.003a.46.46 0 0 0 .918 0h.003v-.937a.462.462 0 1 0-.924 0" class="cls-9"/><path d="M45.312 12.281h.925v.684h-.925z" class="cls-10"/></g><g id="Artwork_3-12" data-name="Artwork 3"><path d="M46.862 12.681h1.071a.02.02 0 0 1 .017.017v1.071a.02.02 0 0 1-.017.017h-1.071a.02.02 0 0 1-.017-.017v-1.071a.02.02 0 0 1 .017-.017M46.862 11.469h1.071a.02.02 0 0 1 .017.016v1.072a.02.02 0 0 1-.017.017h-1.071a.02.02 0 0 1-.017-.017v-1.072a.02.02 0 0 1 .017-.016" class="cls-1"/><path d="M46.936 12.176v.938h.003a.46.46 0 0 0 .918 0h.003v-.937a.462.462 0 1 0-.924 0" class="cls-9"/><path d="M46.935 12.281h.925v.684h-.925z" class="cls-10"/></g><g id="Artwork_3-13" data-name="Artwork 3"><path d="M50.108 12.681h1.072a.02.02 0 0 1 .016.017v1.071a.02.02 0 0 1-.016.017h-1.072a.02.02 0 0 1-.016-.017v-1.071a.02.02 0 0 1 .016-.017M50.108 11.469h1.072a.02.02 0 0 1 .016.016v1.072a.02.02 0 0 1-.016.017h-1.072a.02.02 0 0 1-.016-.017v-1.072a.02.02 0 0 1 .016-.016" class="cls-1"/><path d="M50.182 12.176v.938h.003a.46.46 0 0 0 .918 0h.003v-.937a.462.462 0 1 0-.924 0" class="cls-9"/><path d="M50.182 12.281h.925v.684h-.925z" class="cls-10"/></g><path d="M17.79 32.074a1.1 1.1 0 0 0-.076-.398h1.226a1.1 1.1 0 0 0-.075.398 1 1 0 0 0 .079.4h-1.233a1 1 0 0 0 .078-.4" class="cls-1"/><path d="M18.865 32.074a1.1 1.1 0 0 1 .075-.398h.203v.799h-.199a1 1 0 0 1-.079-.401M17.516 32.475v-.799h.198a1.1 1.1 0 0 1 .075.398 1 1 0 0 1-.078.4Z" class="cls-11"/><path d="M13.022 39.498a1.1 1.1 0 0 0 .397-.075v1.226a1.1 1.1 0 0 0-.397-.075 1 1 0 0 0-.401.079v-1.234a1 1 0 0 0 .4.079" class="cls-1"/><path d="M13.022 40.574a1.1 1.1 0 0 1 .397.075v.202h-.798v-.198a1 1 0 0 1 .4-.079M12.62 39.224h.8v.2a1.1 1.1 0 0 1-.398.074 1 1 0 0 1-.401-.079Z" class="cls-11"/><path d="M17.834 44.756a1.1 1.1 0 0 0 .075.397h-1.226a1.1 1.1 0 0 0 .075-.397 1 1 0 0 0-.079-.401h1.234a1 1 0 0 0-.08.401" class="cls-1"/><path d="M16.758 44.756a1.1 1.1 0 0 1-.075.397h-.202v-.798h.198a1 1 0 0 1 .079.401M18.108 44.355v.798h-.2a1.1 1.1 0 0 1-.074-.397 1 1 0 0 1 .079-.401Z" class="cls-11"/><path d="M17.834 46.28a1.1 1.1 0 0 0 .075.397h-1.226a1.1 1.1 0 0 0 .075-.397 1 1 0 0 0-.079-.401h1.234a1 1 0 0 0-.08.4" class="cls-1"/><path d="M16.758 46.28a1.1 1.1 0 0 1-.075.397h-.202v-.798h.198a1 1 0 0 1 .079.4M18.108 45.879v.798h-.2a1.1 1.1 0 0 1-.074-.397 1 1 0 0 1 .079-.401Z" class="cls-11"/><g id="Artwork_3-14" data-name="Artwork 3"><path d="M23.63 57.672h1.072a.02.02 0 0 1 .017.017v1.07a.017.017 0 0 1-.017.018H23.63a.02.02 0 0 1-.016-.017v-1.071a.02.02 0 0 1 .016-.017M22.418 57.672h1.072a.02.02 0 0 1 .016.017v1.07a.02.02 0 0 1-.016.018h-1.072a.02.02 0 0 1-.017-.017v-1.071a.02.02 0 0 1 .017-.017" class="cls-1"/><path d="M23.109 58.686h.937v-.003a.46.46 0 0 0 0-.918v-.003h-.936a.462.462 0 1 0-.001.924" class="cls-9"/><path d="M23.214 57.762h.684v.925h-.684z" class="cls-10"/></g><g id="Artwork_3-15" data-name="Artwork 3"><path d="M21.04 64.997h1.07a.017.017 0 0 1 .018.017v1.071a.02.02 0 0 1-.017.017h-1.072a.02.02 0 0 1-.016-.017v-1.071a.02.02 0 0 1 .016-.017M19.827 64.997h1.071a.02.02 0 0 1 .017.017v1.071a.02.02 0 0 1-.017.017h-1.071a.02.02 0 0 1-.017-.017v-1.071a.02.02 0 0 1 .017-.017" class="cls-1"/><path d="M20.518 66.011h.937v-.003a.46.46 0 0 0 0-.918v-.003h-.937a.462.462 0 1 0 0 .924" class="cls-9"/><path d="M20.622 65.087h.684v.925h-.684z" class="cls-10"/></g><g id="Artwork_3-16" data-name="Artwork 3"><path d="M27.85 64.827h1.072a.02.02 0 0 1 .016.017v1.071a.02.02 0 0 1-.016.017H27.85a.02.02 0 0 1-.016-.017v-1.071a.02.02 0 0 1 .016-.017M27.85 63.615h1.072a.02.02 0 0 1 .016.016v1.072a.02.02 0 0 1-.016.017H27.85a.02.02 0 0 1-.016-.017v-1.072a.02.02 0 0 1 .016-.016" class="cls-1"/><path d="M27.924 64.322v.938h.003a.46.46 0 0 0 .918 0h.003v-.937a.462.462 0 1 0-.924 0" class="cls-9"/><path d="M27.924 64.427h.925v.684h-.925z" class="cls-10"/></g><g id="Artwork_3-17" data-name="Artwork 3"><path d="M51.921 58.45h1.071a.02.02 0 0 1 .017.016v1.072a.02.02 0 0 1-.017.016h-1.07a.02.02 0 0 1-.018-.016v-1.072a.02.02 0 0 1 .017-.017M51.921 57.237h1.072a.02.02 0 0 1 .016.017v1.071a.02.02 0 0 1-.017.017h-1.07a.017.017 0 0 1-.018-.017v-1.071a.02.02 0 0 1 .017-.017" class="cls-1"/><path d="M51.995 57.945v.937h.003a.46.46 0 0 0 .918 0h.003v-.937a.462.462 0 1 0-.924 0" class="cls-9"/><path d="M51.994 58.049h.925v.684h-.925z" class="cls-10"/></g><g id="Artwork_3-18" data-name="Artwork 3"><path d="M17.678 64.997h1.072a.02.02 0 0 1 .017.017v1.071a.02.02 0 0 1-.017.017h-1.072a.02.02 0 0 1-.016-.017v-1.071a.02.02 0 0 1 .016-.017M16.466 64.997h1.072a.02.02 0 0 1 .016.017v1.071a.02.02 0 0 1-.016.017h-1.072a.02.02 0 0 1-.017-.017v-1.071a.02.02 0 0 1 .017-.017" class="cls-1"/><path d="M17.157 66.011h.937v-.003a.46.46 0 0 0 0-.918v-.003h-.936a.462.462 0 1 0-.001.924" class="cls-9"/><path d="M17.262 65.087h.684v.925h-.684z" class="cls-10"/></g><g id="Artwork_3-19" data-name="Artwork 3"><path d="M26.793 51.95h1.072a.02.02 0 0 1 .017.016v1.072a.02.02 0 0 1-.017.016h-1.072a.02.02 0 0 1-.016-.016v-1.072a.02.02 0 0 1 .016-.017M26.793 50.737h1.072a.02.02 0 0 1 .017.017v1.071a.02.02 0 0 1-.017.017h-1.072a.02.02 0 0 1-.016-.017v-1.071a.02.02 0 0 1 .016-.017" class="cls-1"/><path d="M26.867 51.445v.937h.003a.46.46 0 0 0 .918 0h.003v-.937a.462.462 0 1 0-.924 0" class="cls-9"/><path d="M26.867 51.549h.925v.684h-.925z" class="cls-10"/></g><g id="Artwork_3-20" data-name="Artwork 3"><path d="M28.677 51.95h1.072a.02.02 0 0 1 .016.016v1.072a.02.02 0 0 1-.016.016h-1.072a.02.02 0 0 1-.016-.016v-1.072a.02.02 0 0 1 .016-.017M28.677 50.737h1.072a.02.02 0 0 1 .016.017v1.071a.02.02 0 0 1-.016.017h-1.072a.02.02 0 0 1-.016-.017v-1.071a.02.02 0 0 1 .016-.017" class="cls-1"/><path d="M28.751 51.445v.937h.003a.46.46 0 0 0 .918 0h.003v-.937a.462.462 0 1 0-.924 0" class="cls-9"/><path d="M28.751 51.549h.925v.684h-.925z" class="cls-10"/></g><g id="Artwork_3-21" data-name="Artwork 3"><path d="M30.561 51.95h1.072a.02.02 0 0 1 .016.016v1.072a.02.02 0 0 1-.016.016H30.56a.02.02 0 0 1-.016-.016v-1.072a.02.02 0 0 1 .016-.017M30.561 50.737h1.072a.02.02 0 0 1 .016.017v1.071a.02.02 0 0 1-.016.017H30.56a.02.02 0 0 1-.016-.017v-1.071a.02.02 0 0 1 .016-.017" class="cls-1"/><path d="M30.635 51.445v.937h.003a.46.46 0 0 0 .918 0h.003v-.937a.462.462 0 1 0-.924 0" class="cls-9"/><path d="M30.635 51.549h.925v.684h-.925z" class="cls-10"/></g><g id="Artwork_3-22" data-name="Artwork 3"><path d="M33.814 51.95h1.072a.02.02 0 0 1 .016.016v1.072a.02.02 0 0 1-.016.016h-1.072a.02.02 0 0 1-.016-.016v-1.072a.02.02 0 0 1 .016-.017M33.814 50.737h1.072a.02.02 0 0 1 .016.017v1.071a.02.02 0 0 1-.016.017h-1.072a.02.02 0 0 1-.016-.017v-1.071a.02.02 0 0 1 .016-.017" class="cls-1"/><path d="M33.888 51.445v.937h.003a.46.46 0 0 0 .918 0h.003v-.937a.462.462 0 1 0-.924 0" class="cls-9"/><path d="M33.888 51.549h.925v.684h-.925z" class="cls-10"/></g><path d="M24.1 55.02a1.1 1.1 0 0 0 .075.398h-1.226a1.1 1.1 0 0 0 .075-.398 1 1 0 0 0-.079-.4h1.234a1 1 0 0 0-.08.4" class="cls-1"/><path d="M23.024 55.02a1.1 1.1 0 0 1-.075.398h-.203v-.799h.2a1 1 0 0 1 .078.401M24.374 54.619v.799h-.2a1.1 1.1 0 0 1-.074-.398 1 1 0 0 1 .079-.401Z" class="cls-11"/><path d="M14.787 65.551a1.1 1.1 0 0 0 .075.398h-1.226a1.1 1.1 0 0 0 .075-.398 1 1 0 0 0-.078-.4h1.233a1 1 0 0 0-.079.4" class="cls-1"/><path d="M13.711 65.551a1.1 1.1 0 0 1-.075.398h-.202v-.799h.198a1 1 0 0 1 .08.401M15.06 65.15v.799h-.198a1.1 1.1 0 0 1-.075-.398 1 1 0 0 1 .079-.4Z" class="cls-11"/><path d="M24.87 65.551a1.1 1.1 0 0 0 .075.398h-1.226a1.1 1.1 0 0 0 .075-.398 1 1 0 0 0-.079-.4h1.233a1 1 0 0 0-.078.4" class="cls-1"/><path d="M23.794 65.551a1.1 1.1 0 0 1-.075.398h-.203v-.799h.199a1 1 0 0 1 .079.401M25.143 65.15v.799h-.199a1.1 1.1 0 0 1-.074-.398 1 1 0 0 1 .078-.4Z" class="cls-11"/><path d="M53.81 60.766a1.1 1.1 0 0 0 .075.397H52.66a1.1 1.1 0 0 0 .075-.397 1 1 0 0 0-.078-.402h1.233a1 1 0 0 0-.079.402" class="cls-1"/><path d="M52.734 60.766a1.1 1.1 0 0 1-.075.397h-.202v-.799h.198a1 1 0 0 1 .08.402M54.084 60.364v.799h-.199a1.1 1.1 0 0 1-.075-.397 1 1 0 0 1 .079-.402Z" class="cls-11"/><path d="M53.81 56.03a1.1 1.1 0 0 0 .075.397H52.66a1.1 1.1 0 0 0 .075-.397 1 1 0 0 0-.078-.402h1.233a1 1 0 0 0-.079.402" class="cls-1"/><path d="M52.734 56.03a1.1 1.1 0 0 1-.075.397h-.202v-.799h.198a1 1 0 0 1 .08.402M54.084 55.628v.799h-.199a1.1 1.1 0 0 1-.075-.397 1 1 0 0 1 .079-.402Z" class="cls-11"/><path d="M34.62 65.313a1.1 1.1 0 0 0-.398.075v-1.226a1.1 1.1 0 0 0 .397.075 1 1 0 0 0 .402-.078v1.233a1 1 0 0 0-.402-.079" class="cls-1"/><path d="M34.62 64.237a1.1 1.1 0 0 1-.398-.075v-.202h.799v.199a1 1 0 0 1-.402.078M35.02 65.587h-.798v-.199a1.1 1.1 0 0 1 .397-.075 1 1 0 0 1 .402.079Z" class="cls-11"/><path d="M33.06 65.313a1.1 1.1 0 0 0-.397.075v-1.226a1.1 1.1 0 0 0 .398.075 1 1 0 0 0 .4-.078v1.233a1 1 0 0 0-.4-.079" class="cls-1"/><path d="M33.06 64.237a1.1 1.1 0 0 1-.397-.075v-.202h.799v.199a1 1 0 0 1-.401.078M33.462 65.587h-.799v-.199a1.1 1.1 0 0 1 .398-.075 1 1 0 0 1 .4.079Z" class="cls-11"/><path d="M31.502 65.313a1.1 1.1 0 0 0-.398.075v-1.226a1.1 1.1 0 0 0 .398.075 1 1 0 0 0 .4-.078v1.233a1 1 0 0 0-.4-.079" class="cls-1"/><path d="M31.502 64.237a1.1 1.1 0 0 1-.398-.075v-.202h.799v.199a1 1 0 0 1-.401.078M31.903 65.587h-.799v-.199a1.1 1.1 0 0 1 .398-.075 1 1 0 0 1 .4.079Z" class="cls-11"/><path d="M29.943 65.313a1.1 1.1 0 0 0-.397.075v-1.226a1.1 1.1 0 0 0 .397.075 1 1 0 0 0 .401-.078v1.233a1 1 0 0 0-.401-.079" class="cls-1"/><path d="M29.943 64.237a1.1 1.1 0 0 1-.397-.075v-.202h.798v.199a1 1 0 0 1-.401.078M30.344 65.587h-.798v-.199a1.1 1.1 0 0 1 .397-.075 1 1 0 0 1 .401.079Z" class="cls-11"/><path d="M24.1 52.356a1.1 1.1 0 0 0 .075.398h-1.226a1.1 1.1 0 0 0 .075-.398 1 1 0 0 0-.079-.4h1.234a1 1 0 0 0-.08.4" class="cls-1"/><path d="M23.024 52.356a1.1 1.1 0 0 1-.075.398h-.203v-.799h.2a1 1 0 0 1 .078.401M24.374 51.955v.799h-.2a1.1 1.1 0 0 1-.074-.398 1 1 0 0 1 .079-.4Z" class="cls-11"/><path d="M24.1 56.623a1.1 1.1 0 0 0 .075.398h-1.226a1.1 1.1 0 0 0 .075-.398 1 1 0 0 0-.079-.4h1.234a1 1 0 0 0-.08.4" class="cls-1"/><path d="M23.024 56.623a1.1 1.1 0 0 1-.075.398h-.203v-.799h.2a1 1 0 0 1 .078.401M24.374 56.222v.799h-.2a1.1 1.1 0 0 1-.074-.398 1 1 0 0 1 .079-.401Z" class="cls-11"/><path d="M12.285 32.074a1.1 1.1 0 0 0-.075-.398h1.226a1.1 1.1 0 0 0-.075.398 1 1 0 0 0 .079.4h-1.234a1 1 0 0 0 .079-.4" class="cls-1"/><path d="M13.36 32.074a1.1 1.1 0 0 1 .076-.398h.202v.799h-.198a1 1 0 0 1-.08-.401M12.011 32.475v-.799h.199a1.1 1.1 0 0 1 .075.398 1 1 0 0 1-.079.4Z" class="cls-11"/><path d="M38.138 5.923a1.8 1.8 0 0 0-.122-.645h1.99a1.8 1.8 0 0 0-.122.645 1.7 1.7 0 0 0 .127.65H38.01a1.7 1.7 0 0 0 .128-.65" class="cls-1"/><path d="M39.884 5.923a1.8 1.8 0 0 1 .121-.645h.329v1.296h-.323a1.7 1.7 0 0 1-.127-.651M37.694 6.574V5.278h.322a1.8 1.8 0 0 1 .122.645 1.7 1.7 0 0 1-.128.65Z" class="cls-11"/><path d="M38.138 8.216a1.8 1.8 0 0 0-.122-.645h1.99a1.8 1.8 0 0 0-.122.645 1.7 1.7 0 0 0 .127.651H38.01a1.7 1.7 0 0 0 .128-.65" class="cls-1"/><path d="M39.884 8.216a1.8 1.8 0 0 1 .121-.645h.329v1.296h-.323a1.7 1.7 0 0 1-.127-.65M37.694 8.867V7.571h.322a1.8 1.8 0 0 1 .122.645 1.7 1.7 0 0 1-.128.651Z" class="cls-11"/><path d="M50.005 30.697a1.8 1.8 0 0 0-.121-.645h1.989a1.8 1.8 0 0 0-.122.645 1.7 1.7 0 0 0 .128.65h-2.001a1.7 1.7 0 0 0 .127-.65" class="cls-1"/><path d="M51.751 30.697a1.8 1.8 0 0 1 .122-.645h.328v1.296h-.322a1.7 1.7 0 0 1-.128-.651M49.561 31.348v-1.296h.323a1.8 1.8 0 0 1 .121.645 1.7 1.7 0 0 1-.127.65Z" class="cls-11"/><path d="M50.005 32.99a1.8 1.8 0 0 0-.121-.645h1.989a1.8 1.8 0 0 0-.122.645 1.7 1.7 0 0 0 .128.651h-2.001a1.7 1.7 0 0 0 .127-.65" class="cls-1"/><path d="M51.751 32.99a1.8 1.8 0 0 1 .122-.645h.328v1.296h-.322a1.7 1.7 0 0 1-.128-.65M49.561 33.641v-1.296h.323a1.8 1.8 0 0 1 .121.645 1.7 1.7 0 0 1-.127.651Z" class="cls-11"/><path d="M36.665 51.482a1.8 1.8 0 0 0-.122-.645h1.99a1.8 1.8 0 0 0-.122.645 1.7 1.7 0 0 0 .127.651h-2.001a1.7 1.7 0 0 0 .128-.65" class="cls-1"/><path d="M38.41 51.482a1.8 1.8 0 0 1 .122-.645h.329v1.296h-.323a1.7 1.7 0 0 1-.127-.65M36.22 52.133v-1.296h.323a1.8 1.8 0 0 1 .122.645 1.7 1.7 0 0 1-.128.651Z" class="cls-11"/><path d="M37.227 20.44a1.8 1.8 0 0 0 .645-.122v1.989a1.8 1.8 0 0 0-.645-.122 1.7 1.7 0 0 0-.65.128v-2.001a1.7 1.7 0 0 0 .65.127" class="cls-1"/><path d="M37.227 22.185a1.8 1.8 0 0 1 .645.122v.328h-1.296v-.322a1.7 1.7 0 0 1 .651-.128M36.576 19.995h1.296v.323a1.8 1.8 0 0 1-.645.121 1.7 1.7 0 0 1-.65-.127Z" class="cls-11"/><path d="M54.641 12.532a1.8 1.8 0 0 0 .645-.122v1.99a1.8 1.8 0 0 0-.645-.122 1.7 1.7 0 0 0-.65.127v-2.001a1.7 1.7 0 0 0 .65.128" class="cls-1"/><path d="M54.641 14.278a1.8 1.8 0 0 1 .645.121v.329H53.99v-.323a1.7 1.7 0 0 1 .651-.127M53.99 12.088h1.296v.322a1.8 1.8 0 0 1-.645.122 1.7 1.7 0 0 1-.65-.128Z" class="cls-11"/><path d="M54.641 22.92a1.8 1.8 0 0 0 .645-.121v1.989a1.8 1.8 0 0 0-.645-.122 1.7 1.7 0 0 0-.65.128v-2.001a1.7 1.7 0 0 0 .65.127" class="cls-1"/><path d="M54.641 24.666a1.8 1.8 0 0 1 .645.122v.328H53.99v-.322a1.7 1.7 0 0 1 .651-.128M53.99 22.476h1.296v.323a1.8 1.8 0 0 1-.645.121 1.7 1.7 0 0 1-.65-.127Z" class="cls-11"/><path d="M54.641 27.606a1.8 1.8 0 0 0 .645-.122v1.99a1.8 1.8 0 0 0-.645-.122 1.7 1.7 0 0 0-.65.128v-2.002a1.7 1.7 0 0 0 .65.128" class="cls-1"/><path d="M54.641 29.352a1.8 1.8 0 0 1 .645.122v.328H53.99v-.322a1.7 1.7 0 0 1 .651-.128M53.99 27.162h1.296v.322a1.8 1.8 0 0 1-.645.122 1.7 1.7 0 0 1-.65-.128Z" class="cls-11"/><path d="M34.934 20.44a1.8 1.8 0 0 0 .645-.122v1.989a1.8 1.8 0 0 0-.645-.122 1.7 1.7 0 0 0-.651.128v-2.001a1.7 1.7 0 0 0 .65.127" class="cls-1"/><path d="M34.934 22.185a1.8 1.8 0 0 1 .645.122v.328h-1.296v-.322a1.7 1.7 0 0 1 .65-.128M34.283 19.995h1.296v.323a1.8 1.8 0 0 1-.645.121 1.7 1.7 0 0 1-.651-.127Z" class="cls-11"/><path d="M6.679 19.608h8.05v10.733h-8.05z" class="cls-10"/><circle cx="10.704" cy="22.882" r="1.744" class="cls-2"/><circle cx="10.704" cy="22.882" r=".939" class="cls-12"/><path d="M958.997 525.673h17.773v17.773h-17.773z" style="fill:#555b57" transform="matrix(-1 0 0 -1 992.112 548.76)"/><circle cx="16.709" cy="21.719" r=".761" class="cls-10"/><circle cx="16.709" cy="6.68" r=".761" class="cls-10"/><circle cx="31.748" cy="21.719" r=".761" class="cls-10"/><circle cx="31.748" cy="6.68" r=".761" class="cls-10"/><path d="M24.229 6.313a7.887 7.887 0 1 1-7.887 7.887 7.896 7.896 0 0 1 7.887-7.887m0-1a8.887 8.887 0 1 0 8.887 8.887 8.887 8.887 0 0 0-8.887-8.887" class="cls-10"/><path d="M31.362 13.045a.206.206 0 0 1-.147.262M31.215 15.093a.964.964 0 0 1 0-1.786M31.215 15.093a.206.206 0 0 1 .147.262M31.362 15.355a6.96 6.96 0 0 1-1.272 3.072M30.09 18.427a.206.206 0 0 1-.29.08M29.8 18.508a.964.964 0 0 0-1.263 1.263M28.537 19.771a.206.206 0 0 1-.08.29M28.456 20.06a6.96 6.96 0 0 1-3.072 1.273M25.384 21.333a.206.206 0 0 1-.262-.147M25.122 21.186a.964.964 0 0 0-1.786 0M23.336 21.186a.206.206 0 0 1-.262.147" class="cls-14"/><path d="M23.074 21.333a6.96 6.96 0 0 1-3.072-1.272M20.002 20.06a.206.206 0 0 1-.081-.289M19.92 19.771a.964.964 0 0 0-1.262-1.263M18.658 18.508a.206.206 0 0 1-.29-.08M18.368 18.427a6.96 6.96 0 0 1-1.272-3.072M17.096 15.355a.206.206 0 0 1 .147-.262M17.243 15.093a.964.964 0 0 0 0-1.786M17.243 13.307a.206.206 0 0 1-.147-.262M17.096 13.045a6.96 6.96 0 0 1 1.272-3.072M18.368 9.973a.206.206 0 0 1 .29-.081M18.658 9.892a.964.964 0 0 0 1.263-1.264M19.92 8.628a.206.206 0 0 1 .082-.289M20.002 8.339a6.96 6.96 0 0 1 3.072-1.272M23.074 7.067a.206.206 0 0 1 .262.147M23.336 7.214a.964.964 0 0 0 1.786 0M25.122 7.214a.206.206 0 0 1 .262-.147M25.384 7.067a6.96 6.96 0 0 1 3.072 1.272M28.456 8.339a.206.206 0 0 1 .08.29M28.537 8.628A.964.964 0 0 0 29.8 9.892M29.8 9.892a.206.206 0 0 1 .29.08M30.09 9.973a6.96 6.96 0 0 1 1.272 3.072M29.461 14.2a5.233 5.233 0 0 0-10.465 0M18.996 14.2a5.233 5.233 0 0 0 10.465 0" class="cls-14"/><path d="M17.94 14.2a6.289 6.289 0 0 1 12.578 0M30.518 14.2a6.289 6.289 0 0 1-12.578 0" class="cls-14"/><circle cx="24.229" cy="14.2" r="3.773" class="cls-10"/><path d="M15.814 23.547h5.569v6.794h-5.569z" class="cls-10"/><path d="M16.7 24.51h3.796v4.867H16.7z" class="cls-12"/><path d="M23.56 23.547h5.569v6.794H23.56z" class="cls-10"/><path d="M965.037 543.907h2.177v6.794h-2.177z" style="fill:#353c38" transform="matrix(-1 0 0 -1 988.596 574.248)"/><path d="M24.446 24.51h3.796v4.867h-3.796z" class="cls-12"/><path d="M31.474 23.949h.789v4.856h-.789zM36.665 23.949h.789v4.856h-.789z" class="cls-1"/><path d="M32.263 23.949h4.402v4.825h-4.402z" class="cls-10"/><path d="M34.79 9.519h.789v4.856h-.789zM39.98 9.519h.789v4.856h-.789z" class="cls-1"/><path d="M35.579 9.519h4.402v4.825h-4.402z" class="cls-10"/><path d="M41.406 29.872h.789v4.856h-.789zM46.597 29.872h.789v4.856h-.789z" class="cls-1"/><path d="M42.195 29.872h4.402v4.825h-4.402z" class="cls-10"/><path d="M49.023 12.088a1.1 1.1 0 0 0 .397-.075v1.225a1.1 1.1 0 0 0-.397-.074 1 1 0 0 0-.401.078V12.01a1 1 0 0 0 .4.079" class="cls-1"/><path d="M49.023 13.164a1.1 1.1 0 0 1 .397.074v.203h-.798v-.199a1 1 0 0 1 .4-.078M48.622 11.814h.798v.199a1.1 1.1 0 0 1-.397.075 1 1 0 0 1-.401-.08Z" class="cls-11"/><path d="M52.269 12.088a1.1 1.1 0 0 0 .397-.075v1.225a1.1 1.1 0 0 0-.397-.074 1 1 0 0 0-.401.078V12.01a1 1 0 0 0 .4.079" class="cls-1"/><path d="M52.269 13.164a1.1 1.1 0 0 1 .397.074v.203h-.798v-.199a1 1 0 0 1 .4-.078M51.868 11.814h.798v.199a1.1 1.1 0 0 1-.397.075 1 1 0 0 1-.401-.08Z" class="cls-11"/><path d="M54.888 16.5a1.1 1.1 0 0 0 .398-.075v1.225a1.1 1.1 0 0 0-.398-.075 1 1 0 0 0-.4.08V16.42a1 1 0 0 0 .4.079" class="cls-1"/><path d="M54.888 17.576a1.1 1.1 0 0 1 .398.075v.202h-.799v-.199a1 1 0 0 1 .401-.078M54.487 16.226h.799v.199a1.1 1.1 0 0 1-.398.075 1 1 0 0 1-.4-.08Z" class="cls-11"/><path d="M54.888 19.625a1.1 1.1 0 0 0 .398-.075v1.226a1.1 1.1 0 0 0-.398-.075 1 1 0 0 0-.4.078v-1.233a1 1 0 0 0 .4.079" class="cls-1"/><path d="M54.888 20.7a1.1 1.1 0 0 1 .398.076v.202h-.799v-.199a1 1 0 0 1 .401-.078M54.487 19.351h.799v.199a1.1 1.1 0 0 1-.398.075 1 1 0 0 1-.4-.079Z" class="cls-11"/><path d="M39.199 15.234h13.545v13.545H39.199z" class="cls-10"/><path d="M41.595 15.234h-.766a.383.383 0 0 1 .766 0M42.651 15.234h-.766a.383.383 0 0 1 .766 0M43.707 15.234h-.766a.383.383 0 0 1 .766 0M44.764 15.234h-.767a.383.383 0 0 1 .767 0M45.82 15.234h-.767a.383.383 0 0 1 .767 0M46.888 15.234h-.766a.383.383 0 0 1 .766 0M47.945 15.234h-.767a.383.383 0 0 1 .767 0M49 15.234h-.765a.383.383 0 0 1 .766 0M50.057 15.234h-.766a.383.383 0 0 1 .766 0M51.113 15.234h-.766a.383.383 0 0 1 .766 0M50.347 28.805h.766a.383.383 0 0 1-.766 0M49.29 28.805h.767a.383.383 0 0 1-.766 0M48.235 28.805H49a.383.383 0 0 1-.766 0M47.178 28.805h.767a.383.383 0 0 1-.767 0M46.122 28.805h.766a.383.383 0 0 1-.766 0M45.053 28.805h.767a.383.383 0 0 1-.767 0M43.997 28.805h.767a.383.383 0 0 1-.767 0M42.941 28.805h.766a.383.383 0 0 1-.766 0M41.885 28.805h.766a.383.383 0 0 1-.766 0M40.829 28.805h.766a.383.383 0 0 1-.766 0M52.756 17.644v-.767a.383.383 0 0 1 0 .767M52.756 18.7v-.766a.383.383 0 0 1 0 .766M52.756 19.756v-.766a.383.383 0 0 1 0 .766M52.756 20.812v-.766a.383.383 0 0 1 0 .766M52.756 21.868v-.766a.383.383 0 0 1 0 .766M52.756 22.937v-.766a.383.383 0 0 1 0 .766M52.756 23.993v-.766a.383.383 0 0 1 0 .766M52.756 25.05v-.767a.383.383 0 0 1 0 .766M52.756 26.106v-.767a.383.383 0 0 1 0 .767M52.756 27.162v-.766a.383.383 0 0 1 0 .766M39.186 26.396v.766a.383.383 0 0 1 0-.766M39.186 25.34v.766a.383.383 0 0 1 0-.767M39.186 24.283v.766a.383.383 0 0 1 0-.766M39.186 23.227v.766a.383.383 0 0 1 0-.766M39.186 22.17v.767a.383.383 0 0 1 0-.766M39.186 21.102v.766a.383.383 0 0 1 0-.766M39.186 20.046v.766a.383.383 0 0 1 0-.766M39.186 18.99v.766a.383.383 0 0 1 0-.766M39.186 17.934v.766a.383.383 0 0 1 0-.766M39.186 16.877v.767a.383.383 0 0 1 0-.767" class="cls-1"/><circle cx="51.36" cy="16.618" r=".383" class="cls-1"/><path d="M8.727 50.612H19.63l1.033 1.033V62.55l-1.033 1.033H8.727L7.694 62.55V51.645Z" class="cls-10"/><path d="M9.79 50.612h-.735a.367.367 0 0 1 .734 0M11.154 50.612h-.734a.367.367 0 0 1 .734 0M12.518 50.612h-.734a.367.367 0 0 1 .734 0M13.882 50.612h-.734a.367.367 0 0 1 .734 0M15.246 50.612h-.733a.367.367 0 0 1 .733 0M16.61 50.612h-.733a.367.367 0 0 1 .734 0M17.975 50.612h-.734a.367.367 0 0 1 .734 0M19.34 50.612h-.735a.367.367 0 0 1 .734 0M18.605 63.582h.734a.367.367 0 0 1-.734 0M17.241 63.582h.734a.367.367 0 0 1-.734 0M15.877 63.582h.734a.367.367 0 0 1-.734 0M14.513 63.582h.733a.367.367 0 0 1-.733 0M13.148 63.582h.734a.367.367 0 0 1-.734 0M11.784 63.582h.734a.367.367 0 0 1-.734 0M10.42 63.582h.734a.367.367 0 0 1-.734 0M9.055 63.582h.734a.367.367 0 0 1-.734 0M20.682 52.689v-.734a.367.367 0 0 1 0 .734M20.682 54.053v-.734a.367.367 0 0 1 0 .734M20.682 55.418v-.734a.367.367 0 0 1 0 .734M20.682 56.782v-.734a.367.367 0 0 1 0 .734M20.682 58.146v-.734a.367.367 0 0 1 0 .734M20.682 59.51v-.733a.367.367 0 0 1 0 .733M20.682 60.875v-.734a.367.367 0 0 1 0 .734M20.682 62.239v-.734a.367.367 0 0 1 0 .734M7.712 61.505v.734a.367.367 0 0 1 0-.734M7.712 60.14v.735a.367.367 0 0 1 0-.734M7.712 58.777v.733a.367.367 0 0 1 0-.733M7.712 57.412v.734a.367.367 0 0 1 0-.734M7.712 56.048v.734a.367.367 0 0 1 0-.734M7.712 54.684v.734a.367.367 0 0 1 0-.734M7.712 53.32v.733a.367.367 0 0 1 0-.734M7.712 51.955v.734a.367.367 0 0 1 0-.734" class="cls-1"/><circle cx="19.339" cy="51.937" r=".367" class="cls-1"/><path d="M53.875 32.143H55.4v2.384h-1.525z" style="fill:#cccecd"/><circle cx="54.638" cy="33.334" r=".916" class="cls-4"/><path d="M18.886 39.58h-.254v-.956h-1.243v-.299h1.497zM14.321 39.58h-.254v-1.255h1.493v.299h-1.239zM18.886 41.727h-1.497v-.302h1.243v-.957h.254zM15.56 41.727h-1.493v-1.259h.254v.957h1.239z" class="cls-1"/><path d="M18.632 38.625v2.799h-4.314v-2.799z" class="cls-10"/><circle cx="14.813" cy="40.91" r=".192" class="cls-1"/><path d="M23.452 59.659v.254h-.957v1.243h-.299v-1.497zM23.452 64.224v.254h-1.256v-1.493h.299v1.239zM25.599 59.659v1.497h-.303v-1.243h-.957v-.254zM25.599 62.985v1.493h-1.26v-.254h.957v-1.239z" class="cls-1"/><path d="M22.497 59.912h2.799v4.314h-2.799z" class="cls-10"/><circle cx="24.781" cy="63.732" r=".192" class="cls-1"/><path d="M20.496 30.936h18.889v18.889H20.496z" class="cls-10"/><circle cx="21.879" cy="32.319" r=".383" class="cls-1"/><path d="M41.135 35.723h13.989v18.968H41.135z" class="cls-1"/><circle cx="53.741" cy="53.308" r=".383" class="cls-10"/><path d="M37.665 58.102v-.987h2.117v.987zM37.665 54.82v-.987h2.117v.987z" class="cls-1"/><path d="M37.665 57.115V54.82h2.104v2.295zM27.027 53.967h8.195v8.89h-8.195z" class="cls-10"/><circle cx="33.855" cy="61.49" r=".367" class="cls-1"/><path d="M9.234 34.298h.423v1.312h-.423zM9.234 38.786v.443h.422v-.443h.445v-.424h-.445v-.444h-.422v.444h-.445v.424z" class="cls-17"/><path id="traccia-loop" d="M951.292 558.972a2 2 0 0 1 .02-.29 2.36 2.36 0 0 1 1.025-1.554 2.4 2.4 0 0 1-1.025-1.555 2 2 0 0 1-.02-.287 1.809 1.809 0 1 1 3.615 0 2 2 0 0 1-.02.288 2.35 2.35 0 0 1-.977 1.521l-.048.035a2.38 2.38 0 0 1 1.025 1.554 2 2 0 0 1 .02.287 1.809 1.809 0 1 1-3.615.001m1.808-1.404-.198.11a1 1 0 0 0-.107.067 1.66 1.66 0 0 0-.722 1.048 1.107 1.107 0 0 0 1.027 1.281 1.073 1.073 0 0 0 1.038-1.103 1 1 0 0 0-.012-.176 1.7 1.7 0 0 0-.79-1.098Zm1.038-2.281a1.04 1.04 0 1 0-2.077-.001 1 1 0 0 0 .012.177 1.7 1.7 0 0 0 .792 1.098l.234.13.164-.092a2 2 0 0 0 .184-.117 1.63 1.63 0 0 0 .678-1.018 1 1 0 0 0 .013-.177" class="cls-17" transform="translate(-943.654 -520.36)"/><path d="M10.58 43.47v-1.697a.29.29 0 0 0-.291-.29H8.59a.29.29 0 0 0-.29.29v1.697a.29.29 0 0 0 .29.291h1.698a.29.29 0 0 0 .29-.29m-1.688-.672v-.353h.37v-.373h.356v.373h.371v.353h-.371v.373h-.355v-.373Z" class="cls-17"/><path d="M7.676 46.248h1.199l-.874 1.52a1.81 1.81 0 0 1-.325-1.52M10.86 45.589a1.58 1.58 0 0 1 .302 1.5H9.998ZM9.21 44.89a1.69 1.69 0 0 1 1.466.494l-.592 1.02ZM9.67 48.458a1.81 1.81 0 0 1-1.482-.49l.597-1.032ZM9.348 47.375h1.75a1.82 1.82 0 0 1-1.053.992.16.16 0 0 1-.145-.047c-.184-.302-.358-.61-.552-.945M7.77 45.96a1.83 1.83 0 0 1 1.16-1.023l.59 1.024Z" class="cls-4"/><path d="M17.439 0h13.59v5.315h-13.59z" class="cls-10"/><path d="M17.434 3.068h13.59v1.534h-13.59z" style="fill:#39403c"/><path d="M17.434 0h13.59v1.534h-13.59z" style="fill:#6c716e"/><path d="M17.434 1.534h13.59v1.534h-13.59z" style="fill:#515753"/></svg>